# https://github.com/mikedh/trimesh
v 0.03567024 -0.02437044 -0.09717289
v 0.03567024 -0.02228641 -0.09710093
v 0.03775682 -0.02228641 -0.09684008
v 0.03775682 -0.02437044 -0.09686707
v 0.03567024 -0.02468466 -0.09710392
v 0.03358870 -0.02468466 -0.09712191
v 0.03358870 -0.02437044 -0.09716988
v 0.03358870 -0.02228641 -0.09714890
v 0.03358870 -0.02020441 -0.09709194
v 0.03567024 -0.02020441 -0.09695402
v 0.03150213 -0.01603839 -0.09699000
v 0.02525750 -0.00562433 -0.09675914
v 0.03358870 -0.01812039 -0.09697800
v 0.03567024 -0.01812039 -0.09675914
v 0.03672107 -0.00457624 -0.09529603
v 0.03851602 -0.00770633 -0.09523907
v 0.03877747 -0.00879092 -0.09529303
v 0.03983836 -0.02020441 -0.09618349
v 0.04301095 -0.01901238 -0.09531102
v 0.03983836 -0.02228641 -0.09627344
v 0.04287017 -0.02073961 -0.09525105
v 0.04151767 -0.02228641 -0.09560184
v 0.03997914 -0.02444747 -0.09590166
v 0.03775682 -0.02468466 -0.09677713
v 0.03150213 -0.02468466 -0.09711592
v 0.02942561 -0.02468466 -0.09710693
v 0.02733904 -0.02468466 -0.09709194
v 0.02348769 -0.02468466 -0.09704397
v 0.03150213 -0.01812039 -0.09706795
v 0.02525750 -0.01242175 -0.09694203
v 0.02525750 -0.00979036 -0.09691504
v 0.02317596 -0.00562433 -0.09684008
v 0.02734407 -0.01187236 -0.09695402
v 0.02942561 -0.01395639 -0.09697800
v 0.02734407 -0.00979036 -0.09687607
v 0.02734407 -0.00770633 -0.09673215
v 0.02569493 -0.00397414 -0.09658524
v 0.03358870 -0.01603839 -0.09680711
v 0.02360835 -0.00397414 -0.09676214
v 0.02525750 -0.00397414 -0.09662722
v 0.03567527 -0.01187236 -0.09614451
v 0.03647973 -0.00397414 -0.09526905
v 0.03731939 -0.00397414 -0.09511314
v 0.03984338 -0.00397414 -0.09456147
v 0.03760598 -0.00397414 -0.09505317
v 0.04059254 -0.01242175 -0.09523007
v 0.03997914 -0.01242175 -0.09537398
v 0.04400647 -0.01603839 -0.09478633
v 0.04382547 -0.01824000 -0.09498122
v 0.04301095 -0.01935093 -0.09531102
v 0.04621874 -0.01812849 -0.09384191
v 0.04382547 -0.02010913 -0.09482231
v 0.04566064 -0.02020441 -0.09369200
v 0.04255844 -0.02228641 -0.09505018
v 0.04113555 -0.02380280 -0.09545793
v 0.04023053 -0.02468466 -0.09568879
v 0.03989366 -0.02468466 -0.09586568
v 0.02141620 -0.02468466 -0.09701698
v 0.02109944 -0.00562433 -0.09681910
v 0.02317596 -0.00770633 -0.09686707
v 0.02109944 -0.00397414 -0.09680111
v 0.02153184 -0.00397414 -0.09680411
v 0.02317596 -0.00397414 -0.09678012
v 0.02525750 -0.00770633 -0.09686107
v 0.04027578 -0.00397414 -0.09442955
v 0.04192493 -0.00770633 -0.09442356
v 0.04400647 -0.01395639 -0.09457346
v 0.04628913 -0.01585593 -0.09382093
v 0.04722432 -0.01743720 -0.09334421
v 0.04530367 -0.02184852 -0.09341917
v 0.04418747 -0.02244048 -0.09397083
v 0.04208582 -0.02468466 -0.09455547
v 0.04151264 -0.02468466 -0.09491526
v 0.02109944 -0.01242175 -0.09688806
v 0.02109944 -0.02468466 -0.09701098
v 0.02109944 -0.02437044 -0.09700799
v 0.01901790 -0.02468466 -0.09673215
v 0.01901287 -0.00979036 -0.09657025
v 0.01945030 -0.00397414 -0.09656725
v 0.04198024 -0.00397414 -0.09373997
v 0.04192493 -0.00562433 -0.09409375
v 0.04400647 -0.01187236 -0.09427965
v 0.04400647 -0.01242175 -0.09435759
v 0.04587685 -0.01395639 -0.09376995
v 0.04722432 -0.01642762 -0.09334421
v 0.04729974 -0.01585593 -0.09236081
v 0.04763158 -0.01395639 -0.08800747
v 0.04745560 -0.01603839 -0.09008820
v 0.04725448 -0.01760952 -0.09216893
v 0.04570087 -0.02468466 -0.09008820
v 0.04538914 -0.02468466 -0.09177916
v 0.04477574 -0.02468466 -0.09266362
v 0.04500199 -0.02323923 -0.09316132
v 0.04357408 -0.02468466 -0.09360506
v 0.01932963 -0.02468466 -0.09677412
v 0.01724808 -0.02468466 -0.09618649
v 0.01693133 -0.02437044 -0.09608755
v 0.01901287 -0.00397414 -0.09650429
v 0.04220146 -0.00397414 -0.09363804
v 0.04325229 -0.00562433 -0.09346114
v 0.04363441 -0.00770633 -0.09368601
v 0.04548467 -0.01187236 -0.09357807
v 0.04559026 -0.01242175 -0.09362904
v 0.04712376 -0.01503895 -0.09318232
v 0.04723940 -0.01395639 -0.09168623
v 0.04746565 -0.01395639 -0.09008820
v 0.04787794 -0.01187236 -0.08383999
v 0.04798855 -0.01187236 -0.08175926
v 0.04772208 -0.01395639 -0.08592073
v 0.04803380 -0.01187236 -0.07967553
v 0.04722432 -0.01752032 -0.09008820
v 0.04577126 -0.02437044 -0.09008820
v 0.04775224 -0.01395639 -0.08383700
v 0.04746063 -0.01603839 -0.08800747
v 0.04562042 -0.02468466 -0.08765967
v 0.04459473 -0.02468466 -0.09284052
v 0.01693133 -0.02468466 -0.09608755
v 0.01693133 -0.02228641 -0.09606355
v 0.01531235 -0.02437044 -0.09550590
v 0.01276321 -0.02228641 -0.09457047
v 0.01430174 -0.02228641 -0.09512214
v 0.01693133 -0.00979036 -0.09591664
v 0.01693133 -0.00770633 -0.09588967
v 0.01693133 -0.00562433 -0.09585369
v 0.01686094 -0.00397414 -0.09572177
v 0.04242269 -0.00397414 -0.09350911
v 0.04302603 -0.00442622 -0.09327225
v 0.04520813 -0.01041476 -0.09336819
v 0.04626902 -0.00397414 -0.08800446
v 0.04705840 -0.01132500 -0.09057390
v 0.04713884 -0.01242175 -0.09107760
v 0.04715895 -0.01271367 -0.09120951
v 0.04439362 -0.00555743 -0.09209697
v 0.04550478 -0.00770633 -0.09171621
v 0.04522322 -0.00620819 -0.09135342
v 0.04496177 -0.00481951 -0.09101463
v 0.04480088 -0.00397414 -0.09081076
v 0.04552992 -0.00397414 -0.08978537
v 0.04785783 -0.00397414 -0.07759479
v 0.04800867 -0.00562433 -0.07759479
v 0.04815950 -0.00770633 -0.07759479
v 0.04811425 -0.00979036 -0.07967553
v 0.04818967 -0.00979036 -0.07759479
v 0.04795336 -0.01187236 -0.07759479
v 0.04792822 -0.01242175 -0.07967553
v 0.04769694 -0.01395639 -0.08176226
v 0.04711370 -0.01698512 -0.08339027
v 0.04548969 -0.02468466 -0.08383700
v 0.01555871 -0.02468466 -0.09559285
v 0.01427158 -0.02437044 -0.09513113
v 0.01588553 -0.01242175 -0.09557486
v 0.01068167 -0.02020441 -0.09379694
v 0.01276321 -0.01603839 -0.09449852
v 0.00938448 -0.02020441 -0.09332023
v 0.01554363 -0.00979036 -0.09541894
v 0.01446766 -0.01187236 -0.09505917
v 0.01068167 -0.01812039 -0.09376995
v 0.01562408 -0.00770633 -0.09540696
v 0.01573972 -0.00562433 -0.09538297
v 0.01582519 -0.00439784 -0.09534100
v 0.01639334 -0.00397414 -0.09553588
v 0.04293051 -0.00397414 -0.09316732
v 0.04334279 -0.00397414 -0.09266063
v 0.04663606 -0.00397414 -0.08592073
v 0.04658075 -0.00562433 -0.08800446
v 0.04395116 -0.00397414 -0.09189010
v 0.04802877 -0.00397414 -0.07551106
v 0.04807906 -0.00562433 -0.07551106
v 0.04798353 -0.00770633 -0.07551106
v 0.04750085 -0.01187236 -0.07572693
v 0.04745560 -0.01242175 -0.07583187
v 0.04778744 -0.01242175 -0.07720502
v 0.04718912 -0.01525789 -0.07640751
v 0.04784777 -0.01242175 -0.07759479
v 0.04762655 -0.01395639 -0.07967852
v 0.04723437 -0.01547481 -0.07759179
v 0.04701315 -0.01651682 -0.07759179
v 0.04533886 -0.02437044 -0.07759179
v 0.04525841 -0.02468466 -0.07725900
v 0.01444252 -0.02468466 -0.09518509
v 0.00940459 -0.02228641 -0.09331124
v 0.01068167 -0.02228641 -0.09380294
v 0.00949006 -0.01812039 -0.09330224
v -0.00317015 -0.02468466 -0.08719196
v 0.00957554 -0.01687362 -0.09326326
v 0.00690573 -0.00397414 -0.08941361
v 0.04772710 -0.00397414 -0.07340634
v 0.04729974 -0.00397414 -0.07197621
v 0.04730979 -0.01395639 -0.07611969
v 0.04508746 -0.02358792 -0.07438675
v 0.04754107 -0.01395639 -0.07759179
v 0.04503719 -0.02468466 -0.07531917
v 0.04517294 -0.02431773 -0.07565197
v 0.04513774 -0.02468466 -0.07591282
v 0.01300455 -0.02468466 -0.09461244
v 0.01276321 -0.02437044 -0.09453749
v 0.00953531 -0.02358994 -0.09326626
v 0.01095317 -0.02468466 -0.09372198
v -0.00317015 -0.02468466 -0.06654651
v -0.00317517 -0.01242175 -0.07357424
v -0.00317517 -0.00397414 -0.08255377
v 0.04683214 -0.00397414 -0.07095983
v 0.04325732 -0.01162706 -0.06654351
v 0.04309140 -0.01237309 -0.06654351
v 0.04333273 -0.01395639 -0.06758688
v 0.04315676 -0.01545656 -0.06797665
v 0.04317184 -0.01948271 -0.07011734
v 0.04401150 -0.02421637 -0.07356224
v 0.04456960 -0.02468466 -0.07447669
v 0.04495674 -0.02468466 -0.07491443
v -0.00317517 -0.01242175 -0.06654351
v 0.02927478 -0.02468466 -0.06654651
v -0.00317517 -0.00397414 -0.06654351
v 0.04659080 -0.00397414 -0.07048012
v 0.04596232 -0.00397414 -0.06923588
v 0.04459473 -0.00397414 -0.06654351
v 0.04306123 -0.01242175 -0.06654351
v 0.04207074 -0.01412060 -0.06654651
v 0.04271933 -0.01684524 -0.06835441
v 0.04309643 -0.02345614 -0.07230601
v 0.04387072 -0.02468466 -0.07372414
v 0.04133164 -0.01743314 -0.06801562
v 0.03992886 -0.01606271 -0.06659148
v 0.04001936 -0.01590864 -0.06654651
v 0.04208079 -0.02468466 -0.07266579
v 0.04246794 -0.02087138 -0.07051610
v 0.04198526 -0.01610528 -0.06758988
v 0.04198526 -0.01812444 -0.06872319
f 1 2 3
f 1 3 4
f 1 4 5
f 1 5 6
f 1 6 7
f 1 7 8
f 1 8 9
f 1 9 2
f 2 10 3
f 2 9 11
f 2 11 12
f 2 12 13
f 2 13 10
f 3 10 14
f 3 14 15
f 3 15 16
f 3 16 17
f 3 17 18
f 3 18 19
f 3 19 20
f 3 20 4
f 4 20 21
f 4 21 22
f 4 22 23
f 4 23 24
f 4 24 5
f 5 24 57
f 5 57 56
f 5 56 73
f 5 73 72
f 5 72 94
f 5 94 116
f 5 116 92
f 5 92 91
f 5 91 90
f 5 90 115
f 5 115 148
f 5 148 179
f 5 179 194
f 5 194 192
f 5 192 210
f 5 210 209
f 5 209 221
f 5 221 225
f 5 225 212
f 5 212 199
f 5 199 184
f 5 184 198
f 5 198 195
f 5 195 180
f 5 180 149
f 5 149 117
f 5 117 96
f 5 96 77
f 5 77 95
f 5 95 75
f 5 75 58
f 5 58 28
f 5 28 27
f 5 27 26
f 5 26 25
f 5 25 6
f 6 25 7
f 7 25 26
f 7 26 27
f 7 27 28
f 7 28 8
f 8 29 9
f 8 28 30
f 8 30 31
f 8 31 32
f 8 32 33
f 8 33 29
f 9 29 33
f 9 33 34
f 9 34 35
f 9 35 11
f 10 13 12
f 10 12 36
f 10 36 37
f 10 37 38
f 10 38 14
f 11 35 39
f 11 39 12
f 12 39 40
f 12 40 36
f 14 41 42
f 14 42 15
f 14 38 37
f 14 37 41
f 15 42 43
f 15 43 16
f 16 44 17
f 16 43 45
f 16 45 44
f 17 44 46
f 17 46 47
f 17 47 18
f 18 47 46
f 18 46 48
f 18 48 19
f 19 48 49
f 19 49 50
f 19 50 20
f 20 50 21
f 21 50 51
f 21 51 52
f 21 52 53
f 21 53 54
f 21 54 55
f 21 55 22
f 22 55 23
f 23 55 56
f 23 56 57
f 23 57 24
f 28 58 59
f 28 59 30
f 30 59 60
f 30 60 31
f 31 60 61
f 31 61 32
f 32 61 62
f 32 62 63
f 32 63 64
f 32 64 34
f 32 34 33
f 34 64 63
f 34 63 35
f 35 63 39
f 36 40 37
f 37 40 39
f 37 39 63
f 37 63 62
f 37 62 61
f 37 61 79
f 37 79 98
f 37 98 125
f 37 125 161
f 37 161 186
f 37 186 201
f 37 201 213
f 37 213 216
f 37 216 215
f 37 215 214
f 37 214 202
f 37 202 188
f 37 188 187
f 37 187 167
f 37 167 139
f 37 139 164
f 37 164 129
f 37 129 138
f 37 138 137
f 37 137 166
f 37 166 163
f 37 163 162
f 37 162 126
f 37 126 99
f 37 99 80
f 37 80 65
f 37 65 44
f 37 44 45
f 37 45 43
f 37 43 42
f 37 42 41
f 44 65 66
f 44 66 67
f 44 67 48
f 44 48 46
f 48 67 68
f 48 68 49
f 49 68 51
f 49 51 50
f 51 68 69
f 51 69 53
f 51 53 52
f 53 69 70
f 53 70 71
f 53 71 54
f 54 71 55
f 55 71 72
f 55 72 73
f 55 73 56
f 58 74 59
f 58 75 76
f 58 76 74
f 59 74 77
f 59 77 78
f 59 78 61
f 59 61 60
f 61 78 79
f 65 80 81
f 65 81 66
f 66 81 82
f 66 82 83
f 66 83 67
f 67 83 84
f 67 84 68
f 68 84 85
f 68 85 69
f 69 85 86
f 69 86 87
f 69 87 88
f 69 88 89
f 69 89 90
f 69 90 91
f 69 91 92
f 69 92 93
f 69 93 70
f 70 93 71
f 71 93 94
f 71 94 72
f 74 76 95
f 74 95 77
f 75 95 76
f 77 96 97
f 77 97 78
f 78 97 98
f 78 98 79
f 80 99 81
f 81 99 100
f 81 100 101
f 81 101 82
f 82 101 102
f 82 102 103
f 82 103 84
f 82 84 83
f 84 104 85
f 84 103 104
f 85 105 106
f 85 106 86
f 85 104 105
f 86 106 87
f 87 106 107
f 87 107 108
f 87 108 88
f 88 108 109
f 88 109 110
f 88 110 89
f 89 111 112
f 89 112 90
f 89 110 113
f 89 113 114
f 89 114 111
f 90 112 115
f 92 116 93
f 93 116 94
f 96 117 97
f 97 118 98
f 97 117 119
f 97 119 120
f 97 120 121
f 97 121 118
f 98 118 122
f 98 122 123
f 98 123 124
f 98 124 125
f 99 126 100
f 100 126 127
f 100 127 128
f 100 128 102
f 100 102 101
f 102 128 104
f 102 104 103
f 104 129 130
f 104 130 131
f 104 131 132
f 104 132 105
f 104 128 127
f 104 127 133
f 104 133 134
f 104 134 135
f 104 135 136
f 104 136 137
f 104 137 138
f 104 138 129
f 105 132 106
f 106 139 140
f 106 140 141
f 106 141 142
f 106 142 107
f 106 132 139
f 107 142 108
f 108 142 143
f 108 143 110
f 108 110 109
f 110 143 144
f 110 144 174
f 110 174 145
f 110 145 146
f 110 146 113
f 111 147 112
f 111 114 146
f 111 146 147
f 112 147 148
f 112 148 115
f 113 146 114
f 117 149 150
f 117 150 119
f 118 121 151
f 118 151 122
f 119 150 120
f 120 152 153
f 120 153 121
f 120 150 154
f 120 154 152
f 121 153 151
f 122 151 155
f 122 155 123
f 123 155 124
f 124 155 156
f 124 156 157
f 124 157 158
f 124 158 159
f 124 159 160
f 124 160 125
f 125 160 161
f 126 162 127
f 127 162 163
f 127 163 133
f 129 164 165
f 129 165 130
f 130 165 139
f 130 139 131
f 131 139 132
f 133 163 166
f 133 166 137
f 133 137 135
f 133 135 134
f 135 137 136
f 139 167 140
f 139 165 164
f 140 167 141
f 141 167 168
f 141 168 143
f 141 143 142
f 143 168 169
f 143 169 144
f 144 169 170
f 144 170 171
f 144 171 172
f 144 172 173
f 144 173 174
f 145 174 175
f 145 175 146
f 146 175 147
f 147 175 176
f 147 176 177
f 147 177 148
f 148 178 179
f 148 177 178
f 149 180 150
f 150 180 181
f 150 181 182
f 150 182 154
f 151 156 155
f 151 153 156
f 152 157 153
f 152 154 157
f 153 157 156
f 154 183 157
f 154 182 181
f 154 181 184
f 154 184 183
f 157 183 158
f 158 183 159
f 159 183 185
f 159 185 160
f 160 185 184
f 160 184 186
f 160 186 161
f 167 187 168
f 168 187 169
f 169 187 188
f 169 188 170
f 170 188 171
f 171 189 172
f 171 188 190
f 171 190 189
f 172 189 173
f 173 176 191
f 173 191 174
f 173 189 190
f 173 190 192
f 173 192 193
f 173 193 194
f 173 194 179
f 173 179 176
f 174 191 175
f 175 191 176
f 176 179 177
f 177 179 178
f 180 195 196
f 180 196 181
f 181 197 184
f 181 196 197
f 183 184 185
f 184 197 198
f 184 199 211
f 184 211 200
f 184 200 201
f 184 201 186
f 188 202 190
f 190 203 204
f 190 204 205
f 190 205 206
f 190 206 207
f 190 207 208
f 190 208 209
f 190 209 210
f 190 210 192
f 190 202 203
f 192 194 193
f 195 198 197
f 195 197 196
f 199 212 217
f 199 217 211
f 200 211 213
f 200 213 201
f 202 214 203
f 203 214 215
f 203 215 216
f 203 216 213
f 203 213 211
f 203 211 217
f 203 217 204
f 204 217 218
f 204 218 206
f 204 206 205
f 206 218 219
f 206 219 207
f 207 219 220
f 207 220 208
f 208 220 221
f 208 221 209
f 212 222 223
f 212 223 224
f 212 224 217
f 212 225 220
f 212 220 226
f 212 226 222
f 217 224 218
f 218 227 219
f 218 224 227
f 219 227 222
f 219 222 228
f 219 228 226
f 219 226 220
f 220 225 221
f 222 224 223
f 222 226 228
f 222 227 224

