# https://github.com/mikedh/trimesh
v -0.04045293 -0.03720305 0.08212647
v -0.04045293 -0.03704457 0.08282007
v -0.04045293 -0.03716576 0.08073396
v -0.03895124 -0.03837770 0.08282007
v -0.03999323 -0.03752935 0.08282007
v -0.04045293 -0.03664370 0.08364605
v -0.03869841 -0.03827514 0.08489560
v -0.04045293 -0.03708186 0.07984974
v -0.03983999 -0.03758528 0.08073396
v -0.03741125 -0.03931928 0.08489560
v -0.03735762 -0.03941250 0.08282007
v -0.03637692 -0.04009305 0.08489560
v -0.04045293 -0.03625214 0.08418611
v -0.03835363 -0.03805140 0.08605514
v -0.03627733 -0.04002779 0.08601280
v -0.04045293 -0.03677421 0.07745653
v -0.03620071 -0.03999983 0.08170819
v -0.03204042 -0.04208808 0.07753596
v -0.03631563 -0.04006508 0.08282007
v -0.03204042 -0.04208808 0.07776892
v -0.03189485 -0.04204147 0.07916143
v -0.04045293 -0.01261943 0.10439075
v -0.03699752 -0.03875060 0.08672757
v -0.03633096 -0.03806073 0.08813597
v -0.04017711 -0.01278723 0.10454959
v -0.03406310 -0.03996253 0.08797183
v -0.03515106 -0.03956166 0.08751649
v -0.03306709 -0.04128634 0.08282007
v -0.03306709 -0.04097870 0.08489560
v -0.03098312 -0.04115582 0.08698172
v -0.02553567 -0.04202282 0.08972438
v -0.02362792 -0.04205079 0.09209642
v -0.04045293 -0.03644792 0.07494155
v -0.03046212 -0.04240505 0.07240538
v -0.02889914 -0.04331866 0.07240538
v -0.02733616 -0.04402718 0.07240538
v -0.03306709 -0.04104395 0.07448620
v -0.02889914 -0.04316017 0.07656702
v -0.04045293 -0.01155665 0.10519025
v -0.03515106 -0.03851754 0.08849072
v -0.03610111 -0.03574873 0.09005266
v -0.03416271 -0.02338700 0.10056267
v -0.04045293 -0.00903956 0.10693750
v -0.03007138 -0.04007440 0.09017973
v -0.01975112 -0.04219063 0.09439962
v -0.03150411 -0.04195756 0.08073396
v -0.02681517 -0.04365427 0.07656702
v -0.02056326 -0.04296440 0.09114866
v -0.02282344 -0.04239572 0.09130221
v -0.01640297 -0.04357037 0.09322949
v -0.01847928 -0.04305763 0.09322949
v -0.01847928 -0.04245166 0.09475437
v -0.04045293 -0.03423847 0.05868147
v -0.03815443 -0.03783699 0.07448620
v -0.02889914 -0.04304831 0.07031925
v -0.02686881 -0.04395260 0.07019747
v -0.02621756 -0.04427888 0.07081166
v -0.02629418 -0.04428821 0.07240538
v -0.02602602 -0.04421363 0.07385612
v -0.02675388 -0.04396191 0.07452326
v -0.03377962 -0.03766919 0.08992029
v -0.03471434 -0.03628012 0.09044976
v -0.03530429 -0.03693270 0.08961320
v -0.02049430 -0.04103463 0.09490262
v -0.03413972 -0.03168409 0.09428843
v -0.03355744 -0.02708806 0.09812710
v -0.03217067 -0.02760080 0.09852420
v -0.02984919 -0.02950261 0.09838654
v -0.01944465 -0.03993456 0.09631631
v -0.01805789 -0.04041934 0.09659164
v -0.03931134 -0.00934720 0.10711753
v -0.04045293 -0.00775304 0.10763641
v -0.01690098 -0.04180840 0.09617864
v -0.01864018 -0.04108124 0.09588744
v -0.01847928 -0.04343053 0.09114866
v -0.01640297 -0.04383140 0.09114866
v -0.01528437 -0.04414837 0.09002089
v -0.00939255 -0.04628324 0.07993975
v -0.01389761 -0.04424159 0.09048682
v -0.01431900 -0.04369156 0.09322949
v -0.01628804 -0.04265676 0.09541620
v -0.02373518 -0.04416702 0.07767891
v -0.01551422 -0.04213469 0.09639572
v -0.04045293 -0.03407999 0.05785020
v -0.02981854 -0.04201350 0.06757129
v -0.02947377 -0.04188299 0.06615231
v -0.02902939 -0.04254489 0.06825431
v -0.02558164 -0.04412972 0.06942445
v -0.02843944 -0.04233047 0.06615231
v -0.02681517 -0.04349579 0.06823843
v 0.00442143 -0.04944359 0.05773371
v -0.02473120 -0.04458653 0.07240538
v -0.02056326 -0.04507130 0.07448620
v -0.02264723 -0.04471704 0.07448620
v -0.02481548 -0.04434415 0.07452326
v -0.02557398 -0.04412040 0.07524334
v -0.02056326 -0.03952437 0.09600392
v -0.02410294 -0.03613096 0.09659164
v -0.02905237 -0.03067725 0.09794708
v -0.03246182 -0.02990348 0.09660222
v -0.03152709 -0.03129254 0.09607275
v -0.01628804 -0.04108124 0.09675577
v -0.03731165 -0.00992520 0.10736638
v -0.01847928 -0.03732424 0.09813239
v -0.01695461 -0.03772512 0.09834418
v -0.03931134 -0.00769711 0.10796468
v -0.04045293 -0.00561817 0.10850474
v -0.02000395 -0.04424159 0.08246533
v -0.01578237 -0.04423227 0.08862838
v -0.01223503 -0.04550014 0.08282007
v -0.00806708 -0.04715956 0.07448620
v -0.00598311 -0.04763501 0.07240538
v -0.00598311 -0.04730872 0.07448620
v -0.00806708 -0.04628324 0.07991328
v -0.01223503 -0.04452127 0.08906255
v -0.01223503 -0.04424159 0.09046035
v -0.01223503 -0.04343053 0.09322949
v -0.01429601 -0.04266608 0.09549033
v -0.01223503 -0.04397124 0.09149811
v -0.01431900 -0.03916079 0.09801591
v -0.01716147 -0.02536338 0.10466608
v -0.01711551 -0.02951193 0.10256937
v -0.01498557 -0.04213469 0.09639572
v -0.00181516 -0.02766606 0.10479315
v -0.00598311 -0.03153493 0.10254289
v -0.04045293 -0.03402406 0.05773371
v -0.03390987 -0.03772512 0.05773371
v -0.03168799 -0.03983202 0.06198537
v -0.03279893 -0.03834041 0.05773371
v -0.03064600 -0.04034476 0.06198537
v -0.03096779 -0.03967353 0.05982513
v -0.02881486 -0.04166856 0.06413503
v -0.02681517 -0.04292711 0.06615231
v -0.02410294 -0.04220928 0.06046579
v -0.02267021 -0.04190163 0.05773371
v -0.02209559 -0.04220928 0.05827907
v -0.02805636 -0.04214402 0.06486569
v 0.00651306 -0.04972327 0.05773371
v 0.00442143 -0.04944359 0.05781843
v 0.00234512 -0.04909866 0.06198537
v -0.01640297 -0.04597559 0.07240538
v -0.01361412 -0.04630188 0.07393025
v -0.01640297 -0.04577050 0.07448620
v -0.01847928 -0.02916699 0.10239463
v -0.02016485 -0.01949949 0.10694809
v -0.03515106 -0.00978536 0.10793821
v -0.03723503 -0.00769711 0.10832472
v -0.03931134 -0.00561817 0.10863181
v -0.04045293 -0.00417317 0.10881713
v -0.01223503 -0.04574253 0.08073396
v -0.01015105 -0.04681463 0.07448620
v -0.01015105 -0.04701040 0.07240538
v -0.00806708 -0.04734601 0.07240538
v -0.00141676 -0.04845539 0.06615231
v -0.00389914 -0.04797062 0.07031925
v -0.00389914 -0.04766298 0.07240538
v -0.00598311 -0.04689853 0.07656702
v -0.01101682 -0.04418565 0.09019032
v -0.01015105 -0.04486620 0.08698172
v 0.00487347 -0.04618069 0.07528570
v -0.01015105 -0.04301101 0.09322949
v -0.00861106 -0.04218131 0.09448434
v -0.01015105 -0.04234911 0.09477025
v -0.01223503 -0.04258218 0.09509323
v -0.00963006 -0.04408311 0.08984087
v -0.00691783 -0.04417634 0.08808832
v -0.01359114 -0.04202282 0.09630042
v -0.01223503 -0.03686744 0.09934488
v -0.01431900 -0.03811667 0.09854009
v -0.01431900 -0.02664990 0.10426897
v -0.01431900 -0.02247339 0.10634980
v -0.01643362 -0.02211913 0.10634450
v -0.01714615 -0.02118687 0.10674690
v -0.01847928 -0.02093516 0.10660923
v -0.01431900 -0.03394947 0.10062620
v -0.01015105 -0.03815395 0.09860362
v -0.00389914 -0.03151628 0.10250054
v -0.00032114 -0.02762877 0.10477726
v -0.00181516 -0.02645412 0.10539145
v -0.00340113 -0.02758216 0.10473491
v -0.00598311 -0.02853306 0.10404129
v -0.04045293 0.03191451 0.05773371
v -0.03281425 -0.03834973 0.05781843
v -0.03103675 -0.03910486 0.05773371
v -0.03098312 -0.03915147 0.05781843
v -0.03027058 -0.04013034 0.06047108
v -0.02747408 -0.04194824 0.06347848
v -0.02608731 -0.04218131 0.06266839
v -0.02476951 -0.04180840 0.05982513
v -0.02276215 -0.04187366 0.05773371
v -0.02889914 -0.04104395 0.06198537
v 0.00858937 -0.04952749 0.05773371
v 0.00650540 -0.04938765 0.05990455
v 0.00442143 -0.04912662 0.06198537
v 0.00234512 -0.04885627 0.06407149
v 0.00442143 -0.04942495 0.05990455
v -0.01847928 -0.01990036 0.10711753
v -0.02681517 -0.01395255 0.10781643
v -0.01847928 -0.01811974 0.10766289
v -0.00181516 -0.00855479 0.11090854
v 0.00026115 -0.00561817 0.11163920
v -0.01640297 -0.01811974 0.10784820
v -0.01145354 -0.01507126 0.10887537
v -0.04045293 -0.00369772 0.10886478
v -0.00127119 -0.04838082 0.06748128
v -0.00012194 -0.04838082 0.06748128
v -0.00181516 -0.04794265 0.07031925
v -0.00181516 -0.04747653 0.07240538
v -0.00389914 -0.04719685 0.07448620
v 0.00773893 -0.04628324 0.07355962
v -0.00553107 -0.04619002 0.07945793
v 0.00026115 -0.04616204 0.07725533
v 0.00427586 -0.04641376 0.07454973
v 0.00650540 -0.04670275 0.07240538
v 0.00650540 -0.04634849 0.07386672
v -0.00806708 -0.04331866 0.09114866
v -0.00394511 -0.04169653 0.09311830
v -0.00722430 -0.04203214 0.09415606
v 0.00150234 -0.04003711 0.09435197
v -0.01223503 -0.04187366 0.09613629
v 0.00026115 -0.04016763 0.09457964
v -0.00499475 -0.03998118 0.09634278
v -0.01015105 -0.04058715 0.09680342
v -0.01015105 -0.03919808 0.09784648
v -0.00598311 -0.02632361 0.10514259
v -0.01575939 -0.02130806 0.10680514
v -0.01643362 -0.02037581 0.10713341
v 0.00026115 -0.02999670 0.10292411
v -0.00598311 -0.03524531 0.10008615
v 0.00033010 -0.02840254 0.10407836
v 0.00106562 -0.02741435 0.10463430
v 0.00033010 -0.02661261 0.10520613
v 0.00026115 -0.02436587 0.10618036
v -0.00181516 -0.02436587 0.10621212
v -0.00389914 -0.02436587 0.10614330
v -0.00806708 -0.02279968 0.10659865
v -0.01431900 -0.02142926 0.10686338
v -0.00401406 -0.02664058 0.10514789
v -0.04045293 0.03190519 0.05781843
v -0.03953353 0.03243657 0.05773371
v -0.03098312 -0.03912350 0.05773371
v -0.02892979 -0.03982270 0.05773371
v -0.02712164 -0.04042866 0.05773371
v -0.02600304 -0.04080157 0.05773371
v -0.02473120 -0.04124905 0.05781843
v -0.02479249 -0.04120244 0.05773371
v 0.01074230 -0.04871643 0.05773371
v 0.01021365 -0.04862320 0.05990455
v 0.00968499 -0.04835285 0.06315550
v 0.00704172 -0.04827827 0.06489217
v 0.00442143 -0.04781214 0.06823843
v 0.00045269 -0.04818504 0.06820137
v 0.00858937 -0.04841811 0.06347848
v 0.00858937 -0.04820369 0.06452154
v 0.00858937 -0.04742059 0.06823843
v 0.00026115 -0.00869462 0.11092443
v 0.00026115 -0.00765049 0.11120504
v 0.00234512 -0.00561817 0.11176099
v -0.01015105 -0.01512720 0.10889655
v -0.00181516 -0.00352992 0.11161803
v -0.04045293 -0.00312905 0.10891773
v -0.01431900 -0.02019868 0.10729755
v -0.01431900 -0.01811974 0.10794350
v 0.00234512 -0.04756043 0.07031925
v 0.00026115 -0.04729008 0.07240538
v 0.00858937 -0.04697311 0.07031925
v 0.00849743 -0.04646969 0.07243185
v 0.00996081 -0.04637646 0.07175412
v 0.00912569 -0.04612475 0.07314134
v 0.00744013 -0.04412972 0.07962736
v 0.00650540 -0.04316950 0.08282007
v 0.00604570 -0.04428821 0.08004035
v 0.00350203 -0.04418565 0.08184585
v 0.00234512 -0.04709430 0.07240538
v -0.00181516 -0.04271269 0.08906255
v 0.00404601 -0.04013966 0.09258883
v 0.00461297 -0.03976676 0.09326126
v 0.00288910 -0.03987863 0.09397604
v 0.00650540 -0.03832176 0.09483378
v 0.00428352 -0.03853618 0.09545327
v -0.00181516 -0.04040070 0.09490791
v -0.00181516 -0.03960828 0.09595098
v -0.00389914 -0.03985066 0.09621571
v 0.00488879 -0.03776240 0.09623688
v 0.00349437 -0.03793021 0.09637455
v 0.00234512 -0.03807005 0.09648044
v -0.00805176 -0.03879721 0.09778295
v -0.00389914 -0.03395880 0.10068444
v 0.00026115 -0.03104083 0.10214049
v 0.00234512 -0.03686744 0.09738584
v 0.00234512 -0.03460205 0.09908544
v 0.00179348 -0.02977296 0.10275468
v 0.00386979 -0.03188919 0.10068444
v 0.00234512 -0.02711603 0.10443839
v 0.00393108 -0.02568035 0.10485139
v 0.00234512 -0.02607190 0.10507905
v 0.00234512 -0.02436587 0.10591033
v 0.00234512 -0.02270645 0.10656158
v 0.00234512 -0.02166232 0.10690574
v 0.00026115 -0.02291155 0.10664630
v -0.00181516 -0.02293019 0.10665159
v -0.00598311 -0.02285561 0.10663041
v -0.01223503 -0.02019868 0.10735579
v -0.01223503 -0.02155977 0.10690574
v -0.04045293 0.03175602 0.05908917
v -0.03911214 0.03240860 0.05972983
v -0.03946457 0.03247386 0.05773371
v -0.04045293 0.03166280 0.05984631
v 0.02942144 -0.03987863 0.05773371
v 0.01171533 -0.04623662 0.06928149
v 0.01065802 -0.04649766 0.07011276
v 0.00026115 -0.00978536 0.11060145
v 0.00234512 -0.00762253 0.11123152
v 0.00442143 -0.00561817 0.11170276
v 0.00442143 -0.00352992 0.11182453
v 0.00234512 -0.00352992 0.11181394
v 0.00026115 -0.00352992 0.11173452
v -0.01223503 -0.01811974 0.10798056
v -0.00389914 -0.01811974 0.10807057
v -0.02889914 0.01520846 0.11059615
v -0.04045293 -0.00220611 0.10894421
v 0.01134757 -0.04605018 0.07066870
v 0.01065802 -0.04577050 0.07243185
v 0.00967733 -0.04418565 0.07767361
v 0.00713366 -0.04197621 0.08568981
v 0.00544043 -0.03998118 0.09217054
v 0.00650540 -0.03915147 0.09322949
v 0.00772361 -0.03802344 0.09444197
v 0.00650540 -0.03742679 0.09587155
v 0.00650540 -0.03638266 0.09674518
v 0.00442143 -0.03428508 0.09883130
v 0.00036841 -0.03673692 0.09783589
v 0.00657436 -0.03471392 0.09787296
v 0.00737883 -0.02740503 0.10254818
v 0.01154678 -0.02532609 0.10254818
v 0.01494856 -0.02431926 0.10208225
v 0.01572238 -0.02322851 0.10254818
v 0.00531784 -0.02531677 0.10463960
v 0.00454402 -0.02452435 0.10527497
v 0.00650540 -0.02076735 0.10654569
v 0.00515695 -0.02112161 0.10672043
v 0.00377019 -0.02141061 0.10682632
v 0.01137056 -0.01280588 0.10882243
v 0.00234512 -0.02019868 0.10736638
v 0.00234512 -0.01811974 0.10801233
v 0.00234512 -0.01519246 0.10891773
v 0.00026115 -0.01811974 0.10810764
v 0.00026115 -0.01635778 0.10863711
v -0.00181516 -0.01811974 0.10809176
v -0.00806708 -0.02019868 0.10740343
v -0.03712777 0.03254844 0.06633763
v -0.03789394 0.03272557 0.06198537
v -0.03828468 0.03292134 0.05891974
v -0.03931134 0.03200773 0.06198537
v -0.03502848 0.03462738 0.05800375
v -0.03842259 0.03298660 0.05773371
v -0.04045293 0.03134583 0.06198537
v 0.03139048 -0.03887179 0.05773371
v 0.00026115 -0.01395255 0.10935719
v 0.00442143 -0.00740811 0.11116798
v 0.00650540 -0.00561817 0.11152802
v 0.01484129 -0.00352992 0.11137448
v 0.01275732 -0.00352992 0.11151214
v 0.01067335 -0.00352992 0.11160215
v 0.00858937 -0.00352992 0.11168686
v 0.00650540 -0.00352992 0.11176099
v 0.01484129 -0.00146031 0.11152273
v -0.02889914 0.01728739 0.11044261
v -0.04045293 -0.00172134 0.10894421
v 0.01275732 -0.04462382 0.07228360
v 0.01206777 -0.04437211 0.07393025
v 0.00789982 -0.04223724 0.08430260
v 0.01336259 -0.03972947 0.08282007
v 0.00902609 -0.03962692 0.08906255
v 0.00758570 -0.04000914 0.09015855
v 0.01000678 -0.03612163 0.09463789
v 0.01156976 -0.03362319 0.09621041
v 0.00921763 -0.03556228 0.09602509
v 0.00782321 -0.03602840 0.09650163
v 0.00819863 -0.03830311 0.09322949
v 0.02430345 -0.03171206 0.08602338
v 0.01148548 -0.03154425 0.09833889
v 0.01009872 -0.03188919 0.09859303
v 0.01360010 -0.02739570 0.10045677
v 0.01067335 -0.02916699 0.10024498
v 0.01484129 -0.02604393 0.10094918
v 0.01635064 -0.02566171 0.10068974
v 0.01699422 -0.02450571 0.10125098
v 0.01692526 -0.02289290 0.10234699
v 0.01974476 -0.02105635 0.10251112
v 0.01067335 -0.02269713 0.10437486
v 0.01321702 -0.02089787 0.10451782
v 0.00650540 -0.02228693 0.10580444
v 0.00785385 -0.01934100 0.10685808
v 0.02216584 -0.00251376 0.11095091
v 0.02109321 -0.00273750 0.11101973
v 0.01900924 -0.00414521 0.11079735
v 0.01900924 -0.00310108 0.11113092
v 0.01736964 -0.00439692 0.11088207
v 0.01484129 -0.00477914 0.11100385
v 0.01275732 -0.00614024 0.11077617
v 0.01067335 -0.00978536 0.10983371
v 0.00650540 -0.00709114 0.11107268
v 0.00352502 -0.01503397 0.10887007
v 0.00442143 -0.00978536 0.11042672
v -0.03196381 0.03288405 0.08363546
v -0.03425464 0.03298660 0.07400967
v -0.03130490 0.03464602 0.07240538
v -0.03734230 0.03328492 0.05972983
v -0.01585899 0.04357705 0.06198537
v -0.03466072 0.03483247 0.05773371
v -0.01713849 0.04318549 0.05990455
v -0.01829540 0.04284988 0.05773371
v -0.02937417 0.03742415 0.05773371
v -0.04045293 0.03107548 0.06348377
v -0.03180292 0.03277218 0.08489560
v 0.01803620 -0.04003711 0.07562456
v 0.01597522 -0.04213469 0.07358609
v 0.01345453 -0.04395260 0.07290307
v 0.03365067 -0.03710983 0.05773371
v 0.03060899 -0.02967041 0.08196762
v 0.01067335 -0.00541308 0.11119976
v 0.02109321 -0.00146031 0.11127917
v 0.01900924 -0.00146031 0.11137448
v 0.01692526 -0.00146031 0.11145389
v 0.02127709 0.00083305 0.11115740
v -0.02681517 0.01728739 0.11034731
v -0.02681517 0.01937564 0.10961663
v -0.02873825 0.01934768 0.10941014
v -0.03028590 0.01863916 0.10925130
v -0.03071496 0.01728739 0.10964311
v -0.04045293 -0.00081705 0.10884360
v 0.01893262 -0.03728695 0.08071278
v 0.01491025 -0.03962692 0.08090869
v 0.01012937 -0.03820989 0.09079392
v 0.02619587 -0.03160018 0.08372018
v 0.00861236 -0.03895570 0.09116984
v 0.02221947 -0.03172138 0.08810420
v 0.02797338 -0.02925090 0.08553626
v 0.02151460 -0.03117135 0.08949671
v 0.01916247 -0.02657532 0.09754997
v 0.01767611 -0.02726519 0.09814828
v 0.01855720 -0.02587612 0.09901132
v 0.02012018 -0.02337768 0.10057855
v 0.01401383 -0.02974499 0.09858244
v 0.01773740 -0.02528880 0.10039853
v 0.00963136 -0.03790224 0.09218113
v 0.02867826 -0.02977296 0.08414906
v 0.02123112 -0.02030123 0.10216167
v 0.02202027 -0.01906132 0.10254289
v 0.02063351 -0.01966729 0.10285528
v 0.02211987 -0.01497804 0.10468195
v 0.02218883 -0.01088543 0.10679984
v 0.02109321 -0.01123036 0.10696927
v 0.01903222 -0.02030123 0.10309883
v 0.01900924 -0.02379719 0.10086447
v 0.01692526 -0.01770955 0.10499964
v 0.01692526 -0.01036336 0.10862652
v 0.00856639 -0.02010546 0.10627566
v 0.00924062 -0.01893081 0.10665689
v 0.02109321 -0.00807933 0.10852592
v 0.02218116 -0.00669959 0.10887537
v 0.02298564 -0.00334347 0.11017257
v 0.02355260 -0.00180524 0.11065440
v 0.02421917 -0.00042550 0.11094030
v 0.02298564 -0.00125521 0.11105150
v -0.03076093 0.03331289 0.08489560
v -0.03115933 0.03337815 0.08289421
v -0.03098312 0.03374173 0.08073396
v -0.03369534 0.03479518 0.06198537
v -0.02588045 0.03713515 0.07385083
v -0.02845476 0.03737753 0.06198537
v -0.01690098 0.04306430 0.06198537
v -0.01559083 0.04344653 0.06407149
v -0.01431900 0.04433217 0.06198537
v -0.01731471 0.04326940 0.05827907
v -0.01660218 0.04366095 0.05773371
v -0.04045293 0.03103819 0.06365851
v -0.03135088 0.03252980 0.08698172
v -0.03030889 0.03308915 0.08698172
v -0.03259207 0.03148567 0.08698172
v 0.02531478 -0.03335283 0.08089280
v 0.02669389 -0.03189850 0.08232766
v 0.02808831 -0.03147899 0.08133226
v 0.03375028 -0.03702592 0.05773371
v 0.03195745 -0.02898054 0.08073396
v 0.03265466 -0.02764741 0.08196762
v 0.03140581 -0.02844916 0.08266123
v 0.03006501 -0.02925090 0.08335485
v 0.02317718 0.00010589 0.11107268
v 0.02209689 0.00166276 0.11093501
v -0.02056326 0.01922648 0.10926189
v -0.02473120 0.01937564 0.10951603
v -0.02473120 0.02048503 0.10889655
v -0.02264723 0.02325384 0.10720225
v -0.02264723 0.02429796 0.10658805
v -0.02681517 0.02051300 0.10892832
v -0.02794143 0.02046639 0.10890184
v -0.03086053 0.01923581 0.10760993
v -0.03212470 0.01844339 0.10692692
v -0.03451514 0.01674668 0.10523260
v -0.03175694 0.01728739 0.10844650
v -0.02932820 0.02002823 0.10828765
v -0.03004839 0.02050368 0.10690045
v -0.03185654 0.03067460 0.08988852
v -0.04045293 -0.00065856 0.10878006
v 0.02944442 -0.02855170 0.08490620
v 0.02881617 -0.02786184 0.08639930
v 0.02814960 -0.02728383 0.08779182
v 0.02622652 -0.02533542 0.09211759
v 0.02413489 -0.02534474 0.09418783
v 0.02064883 -0.02588545 0.09694637
v 0.02092465 -0.02375990 0.09931841
v 0.02220415 -0.02338700 0.09851891
v 0.02150694 -0.02274374 0.09990612
v 0.02222713 -0.02135468 0.10063680
v 0.02092465 -0.02214709 0.10098095
v 0.02404295 -0.01687984 0.10245817
v 0.02265619 -0.01767226 0.10292411
v 0.02428046 -0.00464863 0.10889125
v 0.02477081 -0.00352992 0.10918776
v 0.03006501 -0.00146031 0.10649275
v 0.03145944 -0.00146031 0.10544969
v 0.02909965 0.00061863 0.10730813
v 0.02771289 0.00061863 0.10835119
v 0.02918393 0.00478582 0.10737167
v 0.02421917 -0.00041618 0.11094030
v 0.02628016 -0.00244850 0.10884360
v 0.02877020 -0.00297989 0.10703281
v -0.02795676 0.03504689 0.08206293
v -0.02168952 0.03920476 0.07371317
v -0.02448603 0.03747076 0.07656702
v -0.02814064 0.03514012 0.08073396
v -0.01961321 0.04129301 0.06544811
v -0.01663282 0.04293379 0.06407149
v -0.01542228 0.04336263 0.06535281
v -0.01431900 0.04404318 0.06407149
v -0.01248786 0.04512459 0.06198537
v -0.01431900 0.04451862 0.05990455
v -0.01651789 0.04369824 0.05773371
v -0.04045293 0.03065596 0.06487629
v -0.04030736 0.03077715 0.06499277
v -0.02997944 0.03292134 0.08805655
v -0.03228560 0.03115938 0.08850130
v -0.03091416 0.03188654 0.08897254
v -0.02758900 0.03492570 0.08345015
v -0.03825404 0.03080512 0.07130408
v -0.03430828 0.03106615 0.08282007
v -0.03390221 0.03057205 0.08530860
v -0.03363405 0.03022712 0.08698172
v 0.03387287 -0.03691405 0.05773371
v 0.03781862 -0.03329689 0.05773371
v 0.03451644 -0.02523287 0.08142227
v 0.03684559 -0.02142926 0.08203116
v 0.03781862 -0.01940626 0.08278830
v 0.03644718 -0.02086990 0.08342367
v 0.03220262 -0.02700416 0.08335485
v 0.03081586 -0.02786184 0.08428671
v 0.02317718 0.00114069 0.11085030
v 0.02317718 0.00270688 0.11037378
v 0.01598288 0.01004375 0.10887007
v 0.00858937 0.01867645 0.10688455
v 0.00650540 0.02000026 0.10665159
v 0.00442143 0.02145458 0.10632861
v -0.00806708 0.02145458 0.10738756
v -0.01015105 0.02145458 0.10754111
v -0.01223503 0.02145458 0.10767347
v -0.02211091 0.02036384 0.10882772
v -0.02349767 0.02042910 0.10886478
v -0.02273916 0.02125880 0.10835119
v -0.02056326 0.02562177 0.10573561
v -0.02056326 0.02701083 0.10491493
v -0.02199598 0.02688964 0.10485668
v -0.02172016 0.02881941 0.10271233
v -0.03173396 0.02219106 0.10217755
v -0.03151943 0.01990703 0.10573031
v -0.03194083 0.02031722 0.10455488
v -0.03225495 0.02692693 0.09464318
v -0.03297515 0.02135203 0.10141512
v -0.03740359 0.01748316 0.09975258
v -0.04045293 0.01635513 0.09642220
v -0.03677534 0.01691449 0.10156337
v -0.03636160 0.01644836 0.10286057
v -0.02898342 0.02195800 0.10580444
v -0.02887616 0.02352419 0.10362301
v -0.02676154 0.02350555 0.10567737
v -0.02973427 0.02235887 0.10449135
v -0.02978023 0.02656335 0.09828594
v -0.02983387 0.03075851 0.09208053
v -0.03014799 0.02889399 0.09448963
v -0.03046979 0.03121531 0.09069332
v -0.03241584 0.02919232 0.09114866
v -0.03207107 0.02880077 0.09226585
v -0.04042228 0.01428552 0.09851891
v -0.04045293 0.01425755 0.09849244
v 0.02424215 -0.02335903 0.09639043
v 0.03020293 -0.02719993 0.08567393
v 0.02465588 -0.02228693 0.09688814
v 0.02473250 -0.01983510 0.09905367
v 0.02415021 -0.01907065 0.10044618
v 0.02468653 -0.01769090 0.10107096
v 0.02847905 -0.01095069 0.10269643
v 0.02655597 -0.01324404 0.10281821
v 0.03012631 -0.00627075 0.10444899
v 0.03073158 -0.00488169 0.10485139
v 0.02812662 -0.00845224 0.10452840
v 0.02473250 -0.01141681 0.10500494
v 0.02743707 -0.00362314 0.10752522
v 0.02581279 -0.00352992 0.10855769
v 0.03116063 -0.00352992 0.10517966
v 0.03220262 -0.00352992 0.10440134
v 0.03250142 -0.00146031 0.10463960
v 0.03022591 0.00478582 0.10658276
v 0.03017994 0.00270688 0.10655629
v 0.03013397 0.00061863 0.10652452
v 0.03024123 0.00687407 0.10660394
v 0.02919925 0.00687407 0.10727637
v 0.02658662 0.00428240 0.10903951
v -0.02136773 0.03910221 0.07510567
v -0.01513880 0.04326940 0.06674532
v -0.01128498 0.04544156 0.06314491
v -0.01144587 0.04548818 0.06198537
v -0.01431900 0.04455592 0.05781843
v -0.01564447 0.04404318 0.05773371
v -0.03807781 0.03058138 0.07240538
v -0.03619305 0.03083309 0.07761537
v -0.04045293 0.02927622 0.06823843
v -0.02889914 0.03307051 0.08843777
v -0.02178146 0.03503757 0.08814127
v -0.01495492 0.03697666 0.08768592
v -0.02316822 0.03486044 0.08758532
v -0.02681517 0.03409599 0.08698172
v -0.02686114 0.03472060 0.08490620
v -0.02376583 0.03710718 0.07977562
v -0.02843944 0.03116870 0.09274767
v -0.02633248 0.03112209 0.09480731
v -0.02339807 0.03070257 0.09821711
v -0.02113022 0.03067460 0.10018674
v -0.01974346 0.03088902 0.10067915
v -0.03422400 0.02889399 0.08827893
v -0.03840727 0.02266651 0.09040211
v -0.03646886 0.02493190 0.09060860
v -0.03449982 0.02711338 0.09074097
v -0.04045293 0.02790580 0.07156351
v -0.04045293 0.02517429 0.07818190
v -0.04045293 0.02270381 0.08416493
v -0.04045293 0.02080200 0.08876604
v -0.04034567 0.02040113 0.09006325
v -0.04045293 0.02018671 0.09024327
v -0.03678299 0.02533277 0.08906255
v 0.03781862 -0.02048768 0.08112577
v 0.03781862 0.02606925 0.05773371
v 0.03781862 -0.01975119 0.08229060
v 0.03781862 -0.01893081 0.08333366
v 0.03694519 -0.01948084 0.08412258
v 0.03269297 -0.02561509 0.08405375
v 0.03149008 -0.02640751 0.08485854
v 0.03077755 -0.02581087 0.08630929
v 0.02596603 0.00567146 0.10879595
v 0.02840243 0.01000646 0.10677867
v 0.02457927 0.00599775 0.10891773
v 0.01900924 0.01104126 0.10799116
v 0.00983823 0.01842474 0.10680514
v 0.00858937 0.01972058 0.10647157
v -0.00389914 0.02231226 0.10670453
v -0.00181516 0.02201393 0.10664630
v 0.00650540 0.02145458 0.10596857
v 0.00442143 0.02322587 0.10536498
v -0.00181516 0.02353351 0.10588915
v -0.00543913 0.02243345 0.10674690
v -0.00683355 0.02251735 0.10678396
v -0.01431900 0.02145458 0.10778995
v -0.01847928 0.02145458 0.10801233
v -0.02056326 0.02145458 0.10812352
v -0.01847928 0.02410219 0.10649805
v -0.01847928 0.02696422 0.10485668
v -0.01847928 0.02799903 0.10425837
v -0.01847928 0.02940673 0.10322061
v -0.02056326 0.02915503 0.10300883
v -0.02048664 0.03022712 0.10145218
v -0.02267787 0.03030170 0.09948784
v -0.02250932 0.02917367 0.10143629
v -0.02460861 0.02921096 0.09937136
v -0.02668492 0.02502512 0.10352771
v -0.03528897 0.02578025 0.09137104
v -0.04045293 0.01631784 0.09646456
v -0.04045293 0.01766962 0.09454788
v -0.04045293 0.01534829 0.09753409
v -0.04045293 0.01433213 0.09843948
v -0.02771925 0.03073986 0.09414018
v 0.02876253 -0.02381583 0.09056095
v 0.02924522 -0.01371949 0.09926546
v 0.03005735 -0.00998114 0.10172750
v 0.02727617 -0.01386865 0.10148395
v 0.03073158 -0.02366668 0.08833717
v 0.03040213 -0.00865733 0.10252701
v 0.02794274 -0.01233975 0.10208225
v 0.03280789 -0.00497492 0.10295058
v 0.03093078 -0.00726827 0.10306177
v 0.03152839 -0.00561817 0.10369714
v 0.02820323 -0.00436895 0.10666218
v 0.03316799 -0.00352992 0.10335828
v 0.03335953 -0.00146031 0.10360184
v 0.03247078 0.00061863 0.10459724
v 0.03122193 0.00687407 0.10556088
v 0.03094611 0.00895301 0.10533321
v 0.02984283 0.00895301 0.10637097
v 0.02880084 0.00895301 0.10697456
v 0.02733746 0.00687407 0.10803881
v -0.01752923 0.04127437 0.07146291
v -0.00881026 0.04330669 0.07128289
v -0.00809773 0.04359569 0.07047810
v -0.00806708 0.04423895 0.06823843
v 0.00357099 0.04123708 0.08173466
v 0.00495775 0.04127437 0.08189879
v -0.01051115 0.04544156 0.06314491
v -0.00995185 0.04550682 0.06218657
v -0.01439562 0.04308295 0.06827549
v -0.01375204 0.04345585 0.06760307
v -0.01223503 0.04429488 0.06615231
v -0.01155314 0.04341856 0.06958329
v -0.01033493 0.03899966 0.08501738
v -0.00976797 0.03931663 0.08440319
v -0.00854976 0.03912086 0.08579041
v -0.01028130 0.04551614 0.05975100
v -0.01143055 0.04548818 0.06033872
v -0.01431900 0.04455592 0.05773371
v -0.04045293 0.02828803 0.07063694
v -0.02048664 0.03114073 0.09948784
v -0.02264723 0.03213825 0.09531561
v -0.02622522 0.03303321 0.09041800
v -0.02473120 0.03392818 0.08906255
v -0.01223503 0.03733092 0.08869721
v -0.01356815 0.03715379 0.08823128
v -0.01223503 0.03789960 0.08698172
v -0.01428069 0.03736821 0.08698702
v -0.02538244 0.03489773 0.08561039
v -0.02470821 0.03466466 0.08692878
v -0.02473120 0.03592321 0.08282007
v -0.02264723 0.03725634 0.08025743
v -0.02063221 0.03890644 0.07659349
v -0.02557398 0.03072122 0.09619453
v -0.01431900 0.03485112 0.09387545
v -0.01842565 0.03250183 0.09729583
v -0.01907689 0.03280015 0.09604628
v -0.02056326 0.03190519 0.09739643
v -0.01847928 0.03045086 0.10191282
v -0.01847928 0.03102886 0.10087506
v -0.01117006 0.03707921 0.09010560
v -0.04045293 0.01976719 0.09114866
v -0.04045293 0.01926377 0.09210172
v -0.04045293 0.01884426 0.09284297
v 0.03694519 0.02688032 0.05773371
v 0.03781862 0.02606925 0.05774960
v 0.03781862 -0.01773752 0.08455674
v 0.03232521 -0.00636398 0.10232051
v 0.03250908 -0.01493142 0.09420901
v 0.03210302 -0.01412036 0.09545327
v 0.02411957 0.01203878 0.10675219
v 0.02526115 0.00895301 0.10770524
v 0.03063964 0.01018359 0.10495728
v 0.02912263 0.01078956 0.10554499
v 0.02845607 0.01213201 0.10474019
v 0.02733746 0.01242101 0.10504200
v 0.02317718 0.01451859 0.10505258
v 0.00771594 0.02258261 0.10477726
v 0.00650540 0.02288093 0.10504729
v 0.01275732 0.01775352 0.10649275
v 0.01122499 0.01810778 0.10668336
v -0.00389914 0.02353351 0.10603741
v 0.00442143 0.02427000 0.10433780
v -0.00012960 0.02471748 0.10483021
v -0.00181516 0.02488529 0.10496787
v 0.00234512 0.02341232 0.10548675
v -0.00389914 0.02505309 0.10506318
v -0.01015105 0.02657267 0.10462371
v -0.01640297 0.02296484 0.10703810
v -0.00607505 0.02333774 0.10627037
v -0.01149951 0.02663793 0.10467137
v -0.01640297 0.02790580 0.10416307
v -0.01640297 0.02926690 0.10312001
v -0.01640297 0.03031103 0.10187046
v -0.03868309 0.02087658 0.09284826
v -0.04025373 0.01821032 0.09409782
v 0.02996541 -0.01433478 0.09783589
v 0.03781862 -0.00313837 0.09702051
v 0.03687624 -0.00276547 0.09867245
v 0.03420997 -0.00352992 0.10196048
v 0.03781862 -0.00195440 0.09771941
v 0.03520599 -0.00146031 0.10126686
v 0.03440152 -0.00146031 0.10230462
v 0.03781862 0.00061863 0.09792060
v 0.03240949 0.00270688 0.10451782
v 0.03234819 0.00478582 0.10443310
v 0.03226392 0.00687407 0.10425837
v 0.03781862 0.00909285 0.09535796
v 0.03781862 0.00911149 0.09534737
v -0.00742350 0.04336263 0.07146821
v -0.00806708 0.04108792 0.07914025
v -0.00598311 0.04341856 0.07165881
v 0.00234512 0.04119047 0.08157582
v 0.00234512 0.04022092 0.08489560
v 0.00432949 0.04101334 0.08268242
v 0.00575456 0.04127437 0.08189879
v 0.00650540 0.04046331 0.08489560
v -0.00912439 0.04541359 0.06301785
v -0.00861106 0.04546021 0.06163063
v -0.00838121 0.04547885 0.05990455
v -0.01640297 0.04143285 0.07196061
v -0.01223503 0.04238376 0.07240538
v -0.01223503 0.03933528 0.08233296
v -0.01015105 0.03843099 0.08698172
v -0.00793683 0.03883186 0.08679641
v -0.00716300 0.03917679 0.08597573
v -0.00846549 0.04546953 0.05773371
v -0.00963772 0.04546953 0.05773371
v -0.01106279 0.04540427 0.05895150
v -0.01214309 0.04506866 0.05773371
v -0.01223503 0.04505933 0.05781843
v -0.01223503 0.04505001 0.05773371
v -0.01861719 0.03473925 0.09118043
v -0.01801192 0.03514944 0.09050271
v -0.01635700 0.03459941 0.09313418
v -0.01431900 0.03524267 0.09283239
v -0.01860187 0.03686479 0.08496444
v 0.00650540 0.03964292 0.08656345
v 0.00442143 0.03960563 0.08656874
v -0.01223503 0.03545709 0.09307594
v 0.00234512 0.03954037 0.08654755
v -0.00389914 0.03885050 0.08734176
v -0.00598311 0.03883186 0.08715115
v 0.03580360 0.02792445 0.05773371
v 0.03469266 0.02880077 0.05938037
v 0.03781862 0.02584551 0.05990455
v 0.03738190 0.01037004 0.09478084
v 0.03781862 0.01103194 0.09347834
v 0.03781862 0.01110652 0.09337774
v 0.02837945 0.01416433 0.10260113
v 0.02565956 0.01592629 0.10226757
v 0.02408892 0.02243345 0.09627924
v 0.02415021 0.02038248 0.09840243
v 0.02572085 0.01387533 0.10438015
v 0.01002211 0.03727499 0.08822598
v 0.00650540 0.02392506 0.10400423
v 0.00753973 0.02874483 0.09843419
v 0.00650540 0.02490393 0.10296647
v 0.00650540 0.02594806 0.10184928
v 0.00650540 0.02691761 0.10080622
v 0.00712600 0.03284676 0.09420901
v -0.00806708 0.02645148 0.10450723
v 0.00650540 0.03488841 0.09206995
v -0.01431900 0.02904315 0.10295058
v 0.00650540 0.03581134 0.09102689
v 0.00650540 0.03684615 0.08984616
v 0.00650540 0.03775976 0.08880311
v 0.00650540 0.03879457 0.08760650
v 0.03781862 -0.00158150 0.09780412
v 0.03781862 0.00017114 0.09792590
v 0.03781862 0.00281876 0.09742290
v 0.03781862 0.00687407 0.09610452
v -0.00598311 0.04018363 0.08282007
v 0.00026115 0.04066840 0.08282007
v 0.00026115 0.04006243 0.08489560
v -0.00598311 0.03921408 0.08611339
v -0.00389914 0.03929798 0.08629870
v 0.00442143 0.04036076 0.08489560
v 0.00647476 0.04104131 0.08268242
v 0.00858937 0.04079892 0.08282007
v 0.00714132 0.04119979 0.08143286
v 0.00647476 0.04136760 0.08073925
v 0.00858937 0.03951240 0.08636224
v 0.00858937 0.04023024 0.08489560
v -0.00389914 0.04415505 0.06823843
v -0.00598311 0.04492882 0.06407149
v 0.01182260 0.04334398 0.06103762
v 0.01469572 0.04316685 0.05975100
v 0.01390657 0.04333466 0.05895679
v -0.00797514 0.04535766 0.06218657
v 0.00026115 0.04464914 0.05990455
v -0.00181516 0.04485424 0.05990455
v -0.00733922 0.04538563 0.05990455
v -0.00735455 0.04537630 0.05773371
v -0.00845017 0.04546953 0.05781843
v -0.00181516 0.03990395 0.08489560
v -0.01067971 0.04532969 0.05773371
v -0.00181516 0.03938189 0.08641519
v 0.03476162 0.02885670 0.05773371
v 0.03476162 0.02885670 0.05781843
v 0.02853268 0.03303321 0.07240538
v 0.03097675 0.03127125 0.06823843
v 0.03086183 0.03118735 0.07031925
v 0.03190381 0.03023644 0.07031925
v 0.03303008 0.02919232 0.07031925
v 0.03781862 0.02566838 0.06159886
v 0.02636443 0.02465222 0.09020621
v 0.02589707 0.02418609 0.09159871
v 0.02613458 0.02232158 0.09401840
v 0.02634911 0.02046639 0.09643279
v 0.03781862 0.01259813 0.09106924
v 0.02981984 0.03016186 0.07656702
v 0.02842542 0.03087038 0.07767361
v 0.02656364 0.01860187 0.09873070
v 0.02392802 0.02440051 0.09398663
v 0.02508494 0.01688652 0.10156866
v 0.02109321 0.02523022 0.09495027
v 0.02270216 0.02278771 0.09665518
v 0.02254126 0.02483867 0.09454258
v 0.01838864 0.02898722 0.09243528
v 0.01422070 0.03312644 0.09032799
v 0.02421151 0.01833152 0.10052031
v 0.01140887 0.03692073 0.08780770
v 0.00981524 0.03928866 0.08609221
v 0.00858937 0.03756399 0.08856484
v 0.00858937 0.03556896 0.09073038
v 0.00858937 0.03459941 0.09176815
v 0.00741714 0.03079580 0.09632161
v 0.00858937 0.03859879 0.08740530
v 0.01067335 0.04008108 0.08282007
v 0.01184558 0.04130234 0.07578869
v 0.00934788 0.04120911 0.07945264
v 0.00862768 0.04111589 0.08073925
v 0.00796112 0.04129301 0.08004564
v 0.00650540 0.04163795 0.07865313
v -0.00181516 0.04365163 0.07031925
v 0.01057374 0.03951240 0.08474205
v 0.00448272 0.04348382 0.06623174
v 0.01067335 0.04253292 0.06823843
v 0.01275732 0.04257021 0.06615231
v 0.01275732 0.04284056 0.06407149
v 0.01261175 0.04314821 0.06183183
v 0.01484129 0.04284056 0.06198537
v 0.01692526 0.04255156 0.05990455
v 0.01494856 0.04317617 0.05781843
v 0.01390657 0.04334398 0.05781843
v 0.01275732 0.04345585 0.05781843
v 0.00858937 0.04385672 0.05773371
v -0.00389914 0.04505001 0.05773371
v 0.00858937 0.04385672 0.05781843
v 0.03364301 0.02976099 0.05773371
v 0.03235585 0.03067460 0.05990455
v 0.03116830 0.03139244 0.06407149
v 0.02622652 0.03495366 0.07031925
v 0.02845607 0.03296796 0.07361786
v 0.02957467 0.03211960 0.07240538
v 0.02986581 0.03243657 0.06407149
v 0.02634911 0.03503757 0.06787310
v 0.02309290 0.03784366 0.06407149
v 0.01956854 0.04087350 0.05990455
v 0.02081739 0.03975479 0.06198537
v 0.01852655 0.04166592 0.05990455
v 0.03072392 0.03107548 0.07240538
v 0.03746618 0.02528616 0.06823843
v 0.03781862 0.02518361 0.06615231
v 0.03781862 0.02540735 0.06406619
v 0.02611160 0.02649809 0.08777593
v 0.02451031 0.02482935 0.09259942
v 0.02532244 0.02359877 0.09330890
v 0.03781862 0.01924513 0.08059100
v 0.03025656 0.03060935 0.07509509
v 0.02877786 0.03121531 0.07656702
v 0.03459306 0.02454035 0.07754124
v 0.02811129 0.03269760 0.07501037
v 0.02738344 0.03232470 0.07666232
v 0.02632613 0.02877280 0.08390550
v 0.02371350 0.02630232 0.09114866
v 0.02220415 0.02671251 0.09226585
v 0.01807451 0.03090767 0.09021150
v 0.01394488 0.03510283 0.08815185
v 0.01977540 0.02859567 0.09194817
v 0.01561512 0.03277218 0.08989911
v 0.01120200 0.03879457 0.08531918
v 0.01177663 0.03920476 0.08393726
v 0.01208309 0.03935392 0.08282007
v 0.01280329 0.03955902 0.08061218
v 0.01262707 0.04071502 0.07651937
v 0.01392189 0.04131166 0.07160057
v 0.01692526 0.04217866 0.06198537
v 0.01484129 0.04246766 0.06407149
v 0.01692526 0.04256089 0.05781843
v 0.01829670 0.04146082 0.06198537
v 0.01503283 0.04313889 0.05773371
v 0.01494089 0.04316685 0.05773371
v 0.01486428 0.04318549 0.05773371
v 0.01390657 0.04334398 0.05773371
v 0.01275732 0.04345585 0.05773371
v 0.03139048 0.03156957 0.05773371
v 0.02589707 0.03477653 0.07240538
v 0.02738344 0.03338747 0.07438560
v 0.02936014 0.03182128 0.07435913
v 0.03058601 0.03094496 0.07370787
v 0.02068714 0.03958698 0.06407149
v 0.02317718 0.03801147 0.05990455
v 0.02185938 0.03894373 0.06198537
v 0.02088634 0.03982937 0.05990455
v 0.02198962 0.03905560 0.05781843
v 0.01956854 0.04088282 0.05781843
v 0.01852655 0.04166592 0.05781843
v 0.01933869 0.04079892 0.06198537
v 0.03781862 0.02495055 0.06823843
v 0.02417320 0.02662861 0.09005266
v 0.03781862 0.02038248 0.07865313
v 0.03228690 0.02845583 0.07493095
v 0.03143645 0.02970506 0.07431676
v 0.03662340 0.02239616 0.07740888
v 0.02672453 0.03318238 0.07603225
v 0.02614225 0.03280015 0.07742476
v 0.02651767 0.03099157 0.07997152
v 0.02595070 0.03058138 0.08135873
v 0.02513856 0.02914570 0.08472088
v 0.02267151 0.02705745 0.09114866
v 0.02110853 0.02813886 0.09121220
v 0.01553084 0.03682750 0.08343426
v 0.01856486 0.03126193 0.08906255
v 0.01769143 0.03271625 0.08769122
v 0.01796725 0.03707921 0.07969090
v 0.02237271 0.03514012 0.07790658
v 0.01353115 0.03901831 0.08122637
v 0.01629701 0.04147014 0.06615231
v 0.01698656 0.04166592 0.06398148
v 0.02038067 0.03725634 0.07411027
v 0.01527801 0.04092944 0.07031925
v 0.01805919 0.04129301 0.06322434
v 0.01851889 0.04166592 0.05773371
v 0.01697890 0.04251427 0.05773371
v 0.01692526 0.04254224 0.05773371
v 0.01885600 0.04067773 0.06398148
v 0.02544503 0.03631476 0.05773371
v 0.02485508 0.03533589 0.07240538
v 0.02412723 0.03495366 0.07535452
v 0.02519986 0.03457144 0.07459209
v 0.02277111 0.03534522 0.07656702
v 0.03258570 0.02879144 0.07353844
v 0.03574997 0.02570567 0.07257480
v 0.03689922 0.02478274 0.07179119
v 0.03489186 0.02693625 0.07197120
v 0.03781862 0.02440983 0.07031925
v 0.03719802 0.02506242 0.07031925
v 0.03513704 0.02715999 0.07031925
v 0.02317718 0.03811402 0.05781843
v 0.02317718 0.03811402 0.05773371
v 0.02194365 0.03908357 0.05773371
v 0.03781862 0.02137068 0.07676822
v 0.03781862 0.02145458 0.07659879
v 0.03528261 0.02531412 0.07448620
v 0.01903222 0.03953105 0.06807429
v 0.01772208 0.04111589 0.06461155
v 0.02090167 0.03854286 0.06807429
v 0.03781862 0.02335638 0.07263304
v 0.03781862 0.02344961 0.07243714
v 0.03781862 0.02348690 0.07235771
v 0.03781862 0.02358945 0.07213534
v 0.03781862 0.02151051 0.07648230
f 1 2 6
f 1 6 13
f 1 13 22
f 1 22 39
f 1 39 43
f 1 43 72
f 1 72 107
f 1 107 149
f 1 149 204
f 1 204 261
f 1 261 321
f 1 321 369
f 1 369 432
f 1 432 506
f 1 506 595
f 1 595 689
f 1 689 688
f 1 688 686
f 1 686 581
f 1 581 687
f 1 687 752
f 1 752 751
f 1 751 750
f 1 750 649
f 1 649 647
f 1 647 646
f 1 646 645
f 1 645 644
f 1 644 728
f 1 728 627
f 1 627 541
f 1 541 478
f 1 478 415
f 1 415 357
f 1 357 308
f 1 308 305
f 1 305 239
f 1 239 182
f 1 182 126
f 1 126 84
f 1 84 53
f 1 53 33
f 1 33 16
f 1 16 8
f 1 8 3
f 1 3 4
f 1 4 5
f 1 5 2
f 2 5 7
f 2 7 6
f 3 8 9
f 3 9 4
f 4 10 7
f 4 7 5
f 4 9 11
f 4 11 12
f 4 12 10
f 6 7 14
f 6 14 13
f 7 10 15
f 7 15 14
f 8 16 9
f 9 17 11
f 9 16 18
f 9 18 17
f 10 12 15
f 11 17 19
f 11 19 12
f 12 19 18
f 12 18 20
f 12 20 21
f 12 21 15
f 13 14 22
f 14 15 23
f 14 23 24
f 14 24 25
f 14 25 22
f 15 26 27
f 15 27 24
f 15 24 23
f 15 21 28
f 15 28 29
f 15 29 30
f 15 30 31
f 15 31 32
f 15 32 26
f 16 33 18
f 17 18 19
f 18 34 35
f 18 35 36
f 18 36 20
f 18 33 37
f 18 37 34
f 20 36 21
f 21 36 38
f 21 38 28
f 22 25 39
f 24 27 26
f 24 26 40
f 24 40 41
f 24 41 25
f 25 42 43
f 25 43 39
f 25 41 42
f 26 44 40
f 26 32 45
f 26 45 44
f 28 38 46
f 28 46 31
f 28 31 29
f 29 31 30
f 31 46 47
f 31 47 48
f 31 48 49
f 31 49 32
f 32 49 50
f 32 50 51
f 32 51 52
f 32 52 45
f 33 53 54
f 33 54 37
f 34 55 35
f 34 37 54
f 34 54 53
f 34 53 55
f 35 55 36
f 36 55 56
f 36 56 57
f 36 57 58
f 36 58 59
f 36 59 60
f 36 60 38
f 38 60 46
f 40 61 62
f 40 62 63
f 40 63 41
f 40 44 64
f 40 64 61
f 41 63 65
f 41 65 66
f 41 66 42
f 42 66 67
f 42 67 68
f 42 68 69
f 42 69 70
f 42 70 43
f 43 71 72
f 43 70 71
f 44 45 64
f 45 52 73
f 45 73 74
f 45 74 64
f 46 60 47
f 47 60 48
f 48 60 75
f 48 75 50
f 48 50 49
f 50 76 77
f 50 77 78
f 50 78 79
f 50 79 80
f 50 80 81
f 50 81 52
f 50 52 51
f 50 75 82
f 50 82 76
f 52 81 83
f 52 83 73
f 53 84 85
f 53 85 55
f 55 85 86
f 55 86 87
f 55 87 56
f 56 88 57
f 56 87 86
f 56 86 89
f 56 89 90
f 56 90 88
f 57 88 91
f 57 91 92
f 57 92 58
f 58 92 59
f 59 92 93
f 59 93 94
f 59 94 95
f 59 95 82
f 59 82 96
f 59 96 60
f 60 96 75
f 61 64 65
f 61 65 62
f 62 65 63
f 64 74 69
f 64 69 97
f 64 97 98
f 64 98 99
f 64 99 100
f 64 100 101
f 64 101 65
f 65 101 100
f 65 100 66
f 66 100 67
f 67 100 99
f 67 99 68
f 68 99 69
f 69 74 73
f 69 73 70
f 69 99 97
f 70 73 102
f 70 102 71
f 71 103 72
f 71 102 104
f 71 104 105
f 71 105 103
f 72 103 106
f 72 106 107
f 73 83 102
f 75 96 82
f 76 82 108
f 76 108 109
f 76 109 77
f 77 109 110
f 77 110 78
f 78 110 111
f 78 111 112
f 78 112 113
f 78 113 114
f 78 114 115
f 78 115 79
f 79 116 80
f 79 115 116
f 80 117 118
f 80 118 81
f 80 116 119
f 80 119 117
f 81 118 83
f 82 95 94
f 82 94 93
f 82 93 108
f 83 120 121
f 83 121 122
f 83 122 105
f 83 105 102
f 83 118 123
f 83 123 124
f 83 124 125
f 83 125 120
f 84 126 127
f 84 127 85
f 85 127 128
f 85 128 129
f 85 129 86
f 86 129 130
f 86 130 131
f 86 131 89
f 88 90 91
f 89 131 132
f 89 132 90
f 90 133 134
f 90 134 135
f 90 135 136
f 90 136 91
f 90 132 137
f 90 137 133
f 91 138 139
f 91 139 140
f 91 140 141
f 91 141 92
f 91 136 135
f 91 135 190
f 91 190 246
f 91 246 244
f 91 244 243
f 91 243 242
f 91 242 241
f 91 241 184
f 91 184 129
f 91 129 127
f 91 127 126
f 91 126 182
f 91 182 240
f 91 240 307
f 91 307 356
f 91 356 411
f 91 411 414
f 91 414 413
f 91 413 477
f 91 477 540
f 91 540 624
f 91 624 727
f 91 727 820
f 91 820 818
f 91 818 885
f 91 885 816
f 91 816 815
f 91 815 882
f 91 882 937
f 91 937 936
f 91 936 985
f 91 985 984
f 91 984 983
f 91 983 982
f 91 982 981
f 91 981 1025
f 91 1025 1024
f 91 1024 1023
f 91 1023 1041
f 91 1041 1040
f 91 1040 1027
f 91 1027 986
f 91 986 939
f 91 939 887
f 91 887 832
f 91 832 753
f 91 753 652
f 91 652 552
f 91 552 551
f 91 551 485
f 91 485 420
f 91 420 358
f 91 358 309
f 91 309 247
f 91 247 192
f 91 192 138
f 92 141 142
f 92 142 93
f 93 142 143
f 93 143 108
f 97 99 98
f 102 105 104
f 103 144 145
f 103 145 106
f 103 105 144
f 105 122 144
f 106 145 146
f 106 146 147
f 106 147 107
f 107 148 149
f 107 147 148
f 108 143 142
f 108 142 109
f 109 142 150
f 109 150 110
f 110 150 151
f 110 151 111
f 111 151 142
f 111 142 152
f 111 152 153
f 111 153 112
f 112 153 154
f 112 154 140
f 112 140 155
f 112 155 156
f 112 156 113
f 113 156 157
f 113 157 114
f 114 157 116
f 114 116 115
f 116 158 119
f 116 157 159
f 116 159 160
f 116 160 158
f 117 161 162
f 117 162 163
f 117 163 164
f 117 164 118
f 117 119 165
f 117 165 166
f 117 166 161
f 118 164 167
f 118 167 123
f 119 158 165
f 120 168 169
f 120 169 121
f 120 125 168
f 121 170 171
f 121 171 172
f 121 172 173
f 121 173 174
f 121 174 145
f 121 145 122
f 121 169 175
f 121 175 170
f 122 145 144
f 123 167 176
f 123 176 177
f 123 177 178
f 123 178 124
f 124 178 179
f 124 179 180
f 124 180 125
f 125 180 181
f 125 181 175
f 125 175 168
f 127 129 183
f 127 183 128
f 128 183 129
f 129 184 185
f 129 185 131
f 129 131 130
f 131 186 132
f 131 185 186
f 132 186 185
f 132 185 137
f 133 137 187
f 133 187 188
f 133 188 134
f 134 188 189
f 134 189 190
f 134 190 135
f 137 185 191
f 137 191 187
f 138 192 193
f 138 193 194
f 138 194 195
f 138 195 196
f 138 196 139
f 139 196 140
f 140 196 155
f 140 154 153
f 140 153 152
f 140 152 141
f 141 152 142
f 142 151 150
f 145 197 146
f 145 174 197
f 146 197 147
f 147 197 198
f 147 198 199
f 147 199 148
f 148 200 201
f 148 201 149
f 148 199 202
f 148 202 203
f 148 203 200
f 149 201 204
f 155 196 205
f 155 205 206
f 155 206 156
f 156 206 207
f 156 207 208
f 156 208 209
f 156 209 157
f 157 209 159
f 158 160 210
f 158 210 165
f 159 209 211
f 159 211 212
f 159 212 213
f 159 213 160
f 160 213 214
f 160 214 215
f 160 215 210
f 161 166 216
f 161 216 217
f 161 217 218
f 161 218 162
f 162 218 219
f 162 219 163
f 163 220 164
f 163 219 221
f 163 221 220
f 164 220 167
f 165 210 166
f 166 210 216
f 167 220 222
f 167 222 223
f 167 223 224
f 167 224 176
f 168 175 169
f 170 181 225
f 170 225 171
f 170 175 181
f 171 225 226
f 171 226 173
f 171 173 172
f 173 226 227
f 173 227 197
f 173 197 174
f 176 224 177
f 177 228 178
f 177 224 229
f 177 229 228
f 178 228 230
f 178 230 231
f 178 231 232
f 178 232 179
f 179 232 233
f 179 233 234
f 179 234 235
f 179 235 236
f 179 236 237
f 179 237 238
f 179 238 180
f 180 238 225
f 180 225 181
f 182 239 240
f 184 241 185
f 185 241 242
f 185 242 191
f 187 191 242
f 187 242 243
f 187 243 188
f 188 243 244
f 188 244 245
f 188 245 189
f 189 245 190
f 190 245 246
f 192 247 248
f 192 248 249
f 192 249 193
f 193 250 251
f 193 251 252
f 193 252 207
f 193 207 206
f 193 206 194
f 193 249 253
f 193 253 254
f 193 254 255
f 193 255 250
f 194 206 195
f 195 206 205
f 195 205 196
f 197 202 199
f 197 199 198
f 197 227 202
f 200 256 257
f 200 257 258
f 200 258 201
f 200 203 259
f 200 259 256
f 201 258 260
f 201 260 261
f 201 261 204
f 202 227 262
f 202 262 263
f 202 263 203
f 203 263 259
f 207 252 264
f 207 264 265
f 207 265 208
f 208 265 209
f 209 265 212
f 209 212 211
f 210 215 266
f 210 266 267
f 210 267 268
f 210 268 269
f 210 269 270
f 210 270 271
f 210 271 272
f 210 272 273
f 210 273 216
f 212 265 274
f 212 274 213
f 213 274 214
f 214 274 266
f 214 266 215
f 216 273 275
f 216 275 217
f 217 275 276
f 217 276 218
f 218 276 277
f 218 277 278
f 218 278 219
f 219 278 279
f 219 279 280
f 219 280 221
f 220 221 281
f 220 281 282
f 220 282 283
f 220 283 222
f 221 280 282
f 221 282 281
f 222 283 284
f 222 284 285
f 222 285 286
f 222 286 223
f 223 286 287
f 223 287 224
f 224 287 229
f 225 237 226
f 225 238 237
f 226 237 227
f 227 237 262
f 228 229 288
f 228 288 289
f 228 289 290
f 228 290 291
f 228 291 284
f 228 284 230
f 229 287 288
f 230 292 231
f 230 284 292
f 231 292 284
f 231 284 293
f 231 293 294
f 231 294 295
f 231 295 296
f 231 296 232
f 232 296 297
f 232 297 233
f 233 297 298
f 233 298 299
f 233 299 300
f 233 300 234
f 234 300 301
f 234 301 302
f 234 302 236
f 234 236 235
f 236 302 303
f 236 303 304
f 236 304 237
f 237 304 262
f 239 305 240
f 240 306 307
f 240 305 308
f 240 308 306
f 244 246 245
f 247 309 248
f 248 309 249
f 249 310 311
f 249 311 268
f 249 268 266
f 249 266 255
f 249 255 254
f 249 254 253
f 249 309 310
f 250 255 251
f 251 255 264
f 251 264 252
f 255 266 264
f 256 312 313
f 256 313 257
f 256 259 312
f 257 313 258
f 258 314 315
f 258 315 316
f 258 316 317
f 258 317 260
f 258 313 314
f 259 263 318
f 259 318 319
f 259 319 312
f 260 317 320
f 260 320 261
f 261 320 321
f 262 304 303
f 262 303 263
f 263 303 318
f 264 266 274
f 264 274 265
f 266 268 267
f 268 311 322
f 268 322 323
f 268 323 324
f 268 324 325
f 268 325 269
f 269 325 270
f 270 325 271
f 271 325 326
f 271 326 277
f 271 277 276
f 271 276 272
f 272 276 273
f 273 276 275
f 277 326 327
f 277 327 279
f 277 279 278
f 279 327 328
f 279 328 329
f 279 329 284
f 279 284 280
f 280 284 282
f 282 284 283
f 284 291 285
f 284 329 330
f 284 330 331
f 284 331 293
f 285 291 290
f 285 290 286
f 286 290 332
f 286 332 287
f 287 332 289
f 287 289 288
f 289 332 290
f 293 331 330
f 293 330 333
f 293 333 294
f 294 334 335
f 294 335 336
f 294 336 337
f 294 337 338
f 294 338 295
f 294 333 334
f 295 338 339
f 295 339 296
f 296 339 297
f 297 339 340
f 297 340 341
f 297 341 298
f 298 341 342
f 298 342 343
f 298 343 299
f 299 343 344
f 299 344 300
f 300 344 345
f 300 345 346
f 300 346 313
f 300 313 347
f 300 347 301
f 301 347 348
f 301 348 359
f 301 359 349
f 301 349 319
f 301 319 302
f 302 319 350
f 302 350 318
f 302 318 303
f 306 351 352
f 306 352 353
f 306 353 307
f 306 308 354
f 306 354 351
f 307 353 355
f 307 355 356
f 308 357 354
f 309 358 310
f 310 322 311
f 310 358 322
f 312 319 359
f 312 359 313
f 313 346 360
f 313 360 314
f 313 359 348
f 313 348 347
f 314 360 361
f 314 361 362
f 314 362 363
f 314 363 364
f 314 364 365
f 314 365 366
f 314 366 315
f 315 366 367
f 315 367 368
f 315 368 320
f 315 320 316
f 316 320 317
f 318 350 319
f 319 349 359
f 320 368 369
f 320 369 321
f 322 370 323
f 322 358 370
f 323 370 371
f 323 371 324
f 324 372 325
f 324 371 373
f 324 373 374
f 324 374 375
f 324 375 372
f 325 372 375
f 325 375 326
f 326 375 327
f 327 375 328
f 328 376 377
f 328 377 378
f 328 378 379
f 328 379 329
f 328 375 380
f 328 380 381
f 328 381 376
f 329 379 330
f 330 379 382
f 330 382 383
f 330 383 333
f 333 383 384
f 333 384 385
f 333 385 334
f 334 385 384
f 334 384 336
f 334 336 335
f 336 386 387
f 336 387 388
f 336 388 337
f 336 384 386
f 337 389 390
f 337 390 338
f 337 388 389
f 338 390 339
f 339 390 391
f 339 391 392
f 339 392 393
f 339 393 394
f 339 394 340
f 340 394 395
f 340 395 341
f 341 395 342
f 342 395 343
f 343 395 396
f 343 396 397
f 343 397 398
f 343 398 399
f 343 399 400
f 343 400 401
f 343 401 402
f 343 402 403
f 343 403 344
f 344 403 404
f 344 404 405
f 344 405 360
f 344 360 345
f 345 360 346
f 351 406 407
f 351 407 408
f 351 408 352
f 351 354 406
f 352 409 353
f 352 408 409
f 353 409 410
f 353 410 355
f 354 357 406
f 355 411 356
f 355 410 412
f 355 412 413
f 355 413 414
f 355 414 411
f 357 415 416
f 357 416 406
f 358 417 418
f 358 418 419
f 358 419 370
f 358 420 421
f 358 421 417
f 360 405 403
f 360 403 361
f 361 403 422
f 361 422 398
f 361 398 362
f 362 398 423
f 362 423 363
f 363 423 424
f 363 424 364
f 364 424 365
f 365 424 425
f 365 425 366
f 366 425 367
f 367 425 426
f 367 426 368
f 368 426 427
f 368 427 428
f 368 428 429
f 368 429 430
f 368 430 431
f 368 431 432
f 368 432 369
f 370 419 371
f 371 419 417
f 371 417 433
f 371 433 434
f 371 434 373
f 373 435 374
f 373 434 433
f 373 433 436
f 373 436 435
f 374 435 437
f 374 437 375
f 375 437 380
f 376 381 438
f 376 438 439
f 376 439 440
f 376 440 441
f 376 441 442
f 376 442 443
f 376 443 377
f 377 443 444
f 377 444 445
f 377 445 378
f 378 445 379
f 379 445 446
f 379 446 382
f 380 437 447
f 380 447 381
f 381 436 421
f 381 421 448
f 381 448 439
f 381 439 438
f 381 447 436
f 382 446 387
f 382 387 383
f 383 387 384
f 384 387 386
f 387 446 388
f 388 446 390
f 388 390 389
f 390 444 449
f 390 449 450
f 390 450 451
f 390 451 452
f 390 452 453
f 390 453 454
f 390 454 455
f 390 455 391
f 390 446 456
f 390 456 444
f 391 455 392
f 392 455 457
f 392 457 458
f 392 458 459
f 392 459 393
f 393 459 460
f 393 460 394
f 394 460 458
f 394 458 395
f 395 458 461
f 395 461 454
f 395 454 462
f 395 462 463
f 395 463 464
f 395 464 465
f 395 465 466
f 395 466 423
f 395 423 396
f 396 398 397
f 396 423 398
f 398 422 403
f 398 403 400
f 398 400 399
f 400 403 401
f 401 403 402
f 403 405 404
f 406 416 467
f 406 467 468
f 406 468 407
f 407 468 469
f 407 469 408
f 408 470 409
f 408 469 471
f 408 471 470
f 409 470 472
f 409 472 473
f 409 473 410
f 410 473 535
f 410 535 474
f 410 474 475
f 410 475 412
f 412 475 476
f 412 476 413
f 413 476 477
f 415 478 416
f 416 479 480
f 416 480 467
f 416 478 481
f 416 481 479
f 417 482 483
f 417 483 436
f 417 436 433
f 417 419 418
f 417 421 484
f 417 484 482
f 420 485 421
f 421 486 487
f 421 487 488
f 421 488 489
f 421 489 448
f 421 436 483
f 421 483 484
f 421 485 486
f 423 466 465
f 423 465 490
f 423 490 426
f 423 426 424
f 424 426 425
f 426 490 491
f 426 491 427
f 427 492 493
f 427 493 428
f 427 491 492
f 428 493 494
f 428 494 495
f 428 495 496
f 428 496 497
f 428 497 498
f 428 498 429
f 429 498 430
f 430 499 500
f 430 500 501
f 430 501 502
f 430 502 431
f 430 498 503
f 430 503 504
f 430 504 505
f 430 505 499
f 431 502 506
f 431 506 432
f 435 447 437
f 435 436 447
f 439 448 507
f 439 507 508
f 439 508 509
f 439 509 510
f 439 510 511
f 439 511 441
f 439 441 440
f 441 511 512
f 441 512 513
f 441 513 443
f 441 443 442
f 443 513 444
f 444 513 514
f 444 514 515
f 444 515 516
f 444 516 517
f 444 517 449
f 444 456 446
f 444 446 445
f 448 489 507
f 449 517 450
f 450 518 519
f 450 519 452
f 450 452 451
f 450 517 516
f 450 516 518
f 452 519 520
f 452 520 453
f 453 520 463
f 453 463 462
f 453 462 454
f 454 461 455
f 455 461 457
f 457 461 458
f 458 460 459
f 463 520 464
f 464 520 521
f 464 521 465
f 465 522 523
f 465 523 524
f 465 524 525
f 465 525 526
f 465 526 527
f 465 527 490
f 465 521 528
f 465 528 529
f 465 529 522
f 467 480 530
f 467 530 531
f 467 531 532
f 467 532 533
f 467 533 468
f 468 533 471
f 468 471 469
f 470 471 472
f 471 474 534
f 471 534 472
f 471 533 474
f 472 534 535
f 472 535 473
f 474 536 475
f 474 535 534
f 474 533 532
f 474 532 536
f 475 536 537
f 475 537 538
f 475 538 539
f 475 539 477
f 475 477 476
f 477 539 540
f 478 541 542
f 478 542 481
f 479 543 480
f 479 481 544
f 479 544 545
f 479 545 543
f 480 543 546
f 480 546 530
f 481 542 547
f 481 547 548
f 481 548 549
f 481 549 550
f 481 550 544
f 482 484 483
f 485 551 486
f 486 551 552
f 486 552 487
f 487 553 554
f 487 554 555
f 487 555 556
f 487 556 557
f 487 557 558
f 487 558 488
f 487 552 553
f 488 558 489
f 489 558 507
f 490 527 559
f 490 559 491
f 491 559 560
f 491 560 561
f 491 561 562
f 491 562 492
f 492 562 563
f 492 563 564
f 492 564 565
f 492 565 493
f 493 565 566
f 493 566 567
f 493 567 568
f 493 568 569
f 493 569 494
f 494 569 570
f 494 570 495
f 495 571 496
f 495 570 571
f 496 571 572
f 496 572 497
f 497 572 498
f 498 572 573
f 498 573 574
f 498 574 503
f 499 575 576
f 499 576 500
f 499 505 575
f 500 576 577
f 500 577 578
f 500 578 579
f 500 579 580
f 500 580 581
f 500 581 582
f 500 582 583
f 500 583 501
f 501 583 506
f 501 506 502
f 503 584 585
f 503 585 504
f 503 574 586
f 503 586 584
f 504 585 587
f 504 587 588
f 504 588 589
f 504 589 590
f 504 590 505
f 505 590 591
f 505 591 545
f 505 545 544
f 505 544 592
f 505 592 593
f 505 593 575
f 506 583 594
f 506 594 595
f 507 558 508
f 508 558 509
f 509 558 510
f 510 596 514
f 510 514 511
f 510 558 597
f 510 597 596
f 511 514 513
f 511 513 512
f 514 596 516
f 514 516 515
f 516 596 598
f 516 598 599
f 516 599 600
f 516 600 601
f 516 601 602
f 516 602 518
f 518 602 603
f 518 603 604
f 518 604 605
f 518 605 519
f 519 605 606
f 519 606 607
f 519 607 520
f 520 607 608
f 520 608 609
f 520 609 521
f 521 609 528
f 522 529 610
f 522 610 611
f 522 611 523
f 523 612 613
f 523 613 614
f 523 614 615
f 523 615 524
f 523 611 612
f 524 615 614
f 524 614 526
f 524 526 525
f 526 614 613
f 526 613 616
f 526 616 527
f 527 616 617
f 527 617 618
f 527 618 559
f 528 609 608
f 528 608 605
f 528 605 529
f 529 605 610
f 530 546 619
f 530 619 620
f 530 620 531
f 531 620 536
f 531 536 532
f 536 620 537
f 537 620 621
f 537 621 538
f 538 621 622
f 538 622 623
f 538 623 539
f 539 623 624
f 539 624 540
f 541 625 626
f 541 626 547
f 541 547 542
f 541 627 625
f 543 628 629
f 543 629 630
f 543 630 631
f 543 631 632
f 543 632 633
f 543 633 634
f 543 634 546
f 543 545 591
f 543 591 635
f 543 635 636
f 543 636 637
f 543 637 638
f 543 638 639
f 543 639 628
f 544 550 640
f 544 640 641
f 544 641 642
f 544 642 643
f 544 643 592
f 546 634 619
f 547 626 548
f 548 626 549
f 549 626 550
f 550 626 644
f 550 644 645
f 550 645 646
f 550 646 647
f 550 647 648
f 550 648 649
f 550 649 650
f 550 650 640
f 552 651 553
f 552 652 754
f 552 754 834
f 552 834 894
f 552 894 954
f 552 954 953
f 552 953 999
f 552 999 1036
f 552 1036 1051
f 552 1051 1050
f 552 1050 1049
f 552 1049 1048
f 552 1048 1052
f 552 1052 1043
f 552 1043 1042
f 552 1042 1001
f 552 1001 958
f 552 958 899
f 552 899 837
f 552 837 836
f 552 836 797
f 552 797 796
f 552 796 860
f 552 860 859
f 552 859 792
f 552 792 858
f 552 858 857
f 552 857 789
f 552 789 786
f 552 786 755
f 552 755 654
f 552 654 555
f 552 555 653
f 552 653 651
f 553 651 554
f 554 651 653
f 554 653 555
f 555 654 556
f 556 654 655
f 556 655 557
f 557 655 656
f 557 656 657
f 557 657 558
f 558 657 658
f 558 658 597
f 559 618 659
f 559 659 560
f 560 659 660
f 560 660 661
f 560 661 662
f 560 662 663
f 560 663 561
f 561 663 562
f 562 663 664
f 562 664 563
f 563 664 564
f 564 665 666
f 564 666 565
f 564 664 667
f 564 667 668
f 564 668 669
f 564 669 665
f 565 666 665
f 565 665 566
f 566 665 670
f 566 670 567
f 567 670 671
f 567 671 672
f 567 672 568
f 568 672 569
f 569 672 673
f 569 673 674
f 569 674 570
f 570 674 675
f 570 675 571
f 571 675 676
f 571 676 677
f 571 677 572
f 572 677 678
f 572 678 573
f 573 678 679
f 573 679 574
f 574 679 680
f 574 680 638
f 574 638 681
f 574 681 637
f 574 637 682
f 574 682 683
f 574 683 684
f 574 684 586
f 575 577 576
f 575 593 577
f 577 593 578
f 578 685 579
f 578 593 685
f 579 685 580
f 580 685 581
f 581 686 583
f 581 583 582
f 581 685 687
f 583 686 688
f 583 688 689
f 583 689 594
f 584 586 585
f 585 588 587
f 585 586 684
f 585 684 589
f 585 589 588
f 589 690 635
f 589 635 591
f 589 591 590
f 589 684 690
f 592 643 685
f 592 685 593
f 594 689 595
f 596 658 598
f 596 597 658
f 598 658 691
f 598 691 599
f 599 692 693
f 599 693 694
f 599 694 601
f 599 601 600
f 599 691 695
f 599 695 692
f 601 694 696
f 601 696 697
f 601 697 602
f 602 697 696
f 602 696 698
f 602 698 699
f 602 699 700
f 602 700 603
f 603 700 604
f 604 700 605
f 605 700 611
f 605 611 610
f 605 608 701
f 605 701 606
f 606 701 607
f 607 701 608
f 611 700 698
f 611 698 702
f 611 702 612
f 612 703 704
f 612 704 616
f 612 616 613
f 612 702 703
f 616 704 705
f 616 705 706
f 616 706 707
f 616 707 617
f 617 707 708
f 617 708 618
f 618 708 709
f 618 709 659
f 619 634 710
f 619 710 621
f 619 621 620
f 621 711 712
f 621 712 713
f 621 713 714
f 621 714 715
f 621 715 804
f 621 804 716
f 621 716 717
f 621 717 622
f 621 710 718
f 621 718 719
f 621 719 720
f 621 720 721
f 621 721 722
f 621 722 723
f 621 723 724
f 621 724 711
f 622 717 725
f 622 725 726
f 622 726 727
f 622 727 623
f 623 727 624
f 625 627 626
f 626 627 728
f 626 728 644
f 628 639 729
f 628 729 730
f 628 730 731
f 628 731 732
f 628 732 733
f 628 733 734
f 628 734 629
f 629 734 630
f 630 734 735
f 630 735 736
f 630 736 737
f 630 737 738
f 630 738 631
f 631 738 632
f 632 738 737
f 632 737 633
f 633 737 739
f 633 739 634
f 634 740 741
f 634 741 718
f 634 718 710
f 634 739 740
f 635 690 742
f 635 742 636
f 636 742 637
f 637 742 682
f 637 681 638
f 638 680 639
f 639 743 744
f 639 744 745
f 639 745 746
f 639 746 729
f 639 680 747
f 639 747 748
f 639 748 749
f 639 749 743
f 640 650 750
f 640 750 641
f 641 750 642
f 642 750 751
f 642 751 752
f 642 752 643
f 643 752 685
f 647 649 648
f 649 750 650
f 652 753 754
f 654 755 655
f 655 755 756
f 655 756 757
f 655 757 656
f 656 757 657
f 657 757 658
f 658 757 758
f 658 758 756
f 658 756 695
f 658 695 691
f 659 709 660
f 660 759 760
f 660 760 661
f 660 709 708
f 660 708 707
f 660 707 761
f 660 761 762
f 660 762 763
f 660 763 764
f 660 764 765
f 660 765 766
f 660 766 767
f 660 767 768
f 660 768 759
f 661 760 662
f 662 760 663
f 663 769 664
f 663 760 759
f 663 759 769
f 664 769 759
f 664 759 768
f 664 768 767
f 664 767 667
f 665 669 770
f 665 770 670
f 667 767 668
f 668 771 772
f 668 772 773
f 668 773 774
f 668 774 669
f 668 767 771
f 669 774 773
f 669 773 775
f 669 775 776
f 669 776 770
f 670 770 671
f 671 777 674
f 671 674 673
f 671 673 672
f 671 770 778
f 671 778 779
f 671 779 675
f 671 675 777
f 674 777 675
f 675 779 676
f 676 779 677
f 677 780 678
f 677 779 776
f 677 776 780
f 678 780 776
f 678 776 781
f 678 781 782
f 678 782 747
f 678 747 679
f 679 747 680
f 682 742 690
f 682 690 683
f 683 690 684
f 685 752 783
f 685 783 687
f 687 783 784
f 687 784 752
f 692 695 785
f 692 785 693
f 693 756 696
f 693 696 694
f 693 785 695
f 693 695 756
f 696 756 698
f 698 786 787
f 698 787 788
f 698 788 702
f 698 700 699
f 698 756 755
f 698 755 786
f 702 788 789
f 702 789 790
f 702 790 791
f 702 791 703
f 703 791 704
f 704 791 792
f 704 792 793
f 704 793 705
f 705 793 794
f 705 794 795
f 705 795 706
f 706 796 797
f 706 797 761
f 706 761 707
f 706 795 796
f 711 798 712
f 711 724 799
f 711 799 798
f 712 798 800
f 712 800 713
f 713 800 714
f 714 801 802
f 714 802 803
f 714 803 715
f 714 800 801
f 715 803 805
f 715 805 804
f 716 806 717
f 716 804 806
f 717 806 807
f 717 807 808
f 717 808 725
f 718 741 809
f 718 809 810
f 718 810 720
f 718 720 719
f 720 810 721
f 721 810 722
f 722 811 736
f 722 736 735
f 722 735 812
f 722 812 723
f 722 810 811
f 723 812 724
f 724 812 813
f 724 813 814
f 724 814 799
f 725 808 815
f 725 815 816
f 725 816 726
f 726 816 817
f 726 817 818
f 726 818 819
f 726 819 727
f 727 819 820
f 729 746 730
f 730 746 745
f 730 745 731
f 731 745 821
f 731 821 732
f 732 821 822
f 732 822 733
f 733 749 812
f 733 812 734
f 733 822 821
f 733 821 823
f 733 823 824
f 733 824 749
f 734 812 735
f 736 825 737
f 736 811 825
f 737 825 811
f 737 811 740
f 737 740 739
f 740 811 810
f 740 810 809
f 740 809 741
f 743 824 744
f 743 749 824
f 744 824 823
f 744 823 745
f 745 823 821
f 747 782 826
f 747 826 827
f 747 827 748
f 748 828 749
f 748 827 829
f 748 829 828
f 749 829 830
f 749 830 831
f 749 831 813
f 749 813 812
f 749 828 829
f 752 784 783
f 753 832 833
f 753 833 754
f 754 833 834
f 756 758 757
f 761 763 762
f 761 797 835
f 761 835 836
f 761 836 837
f 761 837 838
f 761 838 763
f 763 839 764
f 763 838 840
f 763 840 841
f 763 841 839
f 764 839 842
f 764 842 765
f 765 842 843
f 765 843 766
f 766 844 767
f 766 843 845
f 766 845 844
f 767 844 771
f 770 776 779
f 770 779 778
f 771 844 846
f 771 846 847
f 771 847 848
f 771 848 849
f 771 849 772
f 772 850 773
f 772 849 851
f 772 851 852
f 772 852 781
f 772 781 850
f 773 850 775
f 775 850 776
f 776 850 781
f 781 852 853
f 781 853 854
f 781 854 855
f 781 855 856
f 781 856 782
f 782 856 826
f 786 789 787
f 787 789 788
f 789 857 790
f 790 857 858
f 790 858 791
f 791 858 792
f 792 859 795
f 792 795 794
f 792 794 793
f 795 859 860
f 795 860 796
f 797 836 835
f 798 799 814
f 798 814 861
f 798 861 862
f 798 862 801
f 798 801 800
f 801 862 863
f 801 863 802
f 802 863 814
f 802 814 864
f 802 864 865
f 802 865 866
f 802 866 803
f 803 866 805
f 804 805 867
f 804 867 868
f 804 868 869
f 804 869 870
f 804 870 806
f 805 866 829
f 805 829 827
f 805 827 826
f 805 826 871
f 805 871 872
f 805 872 868
f 805 868 867
f 806 873 874
f 806 874 875
f 806 875 876
f 806 876 877
f 806 877 878
f 806 878 807
f 806 870 873
f 807 879 880
f 807 880 881
f 807 881 808
f 807 878 877
f 807 877 879
f 808 881 882
f 808 882 883
f 808 883 815
f 813 831 865
f 813 865 864
f 813 864 814
f 814 863 884
f 814 884 862
f 814 862 861
f 815 883 882
f 816 885 817
f 817 885 818
f 818 820 819
f 826 856 871
f 829 866 886
f 829 886 831
f 829 831 830
f 831 886 865
f 832 887 888
f 832 888 833
f 833 888 889
f 833 889 890
f 833 890 891
f 833 891 892
f 833 892 893
f 833 893 894
f 833 894 834
f 837 895 896
f 837 896 897
f 837 897 898
f 837 898 838
f 837 899 900
f 837 900 901
f 837 901 895
f 838 898 902
f 838 902 903
f 838 903 840
f 839 904 842
f 839 841 904
f 840 905 906
f 840 906 841
f 840 903 907
f 840 907 908
f 840 908 909
f 840 909 843
f 840 843 905
f 841 906 904
f 842 904 910
f 842 910 843
f 843 909 911
f 843 911 912
f 843 912 913
f 843 913 914
f 843 914 915
f 843 915 845
f 843 910 906
f 843 906 905
f 844 845 915
f 844 915 916
f 844 916 846
f 846 916 847
f 847 916 848
f 848 916 849
f 849 916 914
f 849 914 913
f 849 913 917
f 849 917 851
f 851 917 853
f 851 853 852
f 853 917 854
f 854 917 871
f 854 871 855
f 855 871 856
f 862 884 863
f 865 886 866
f 868 872 918
f 868 918 919
f 868 919 920
f 868 920 921
f 868 921 869
f 869 921 920
f 869 920 922
f 869 922 870
f 870 922 923
f 870 923 924
f 870 924 873
f 871 917 912
f 871 912 872
f 872 912 925
f 872 925 918
f 873 924 926
f 873 926 875
f 873 875 874
f 875 926 927
f 875 927 928
f 875 928 929
f 875 929 930
f 875 930 876
f 876 930 929
f 876 929 928
f 876 928 931
f 876 931 932
f 876 932 933
f 876 933 877
f 877 934 935
f 877 935 880
f 877 880 879
f 877 933 934
f 880 935 881
f 881 936 937
f 881 937 882
f 881 935 938
f 881 938 936
f 887 939 888
f 888 939 940
f 888 940 941
f 888 941 889
f 889 942 943
f 889 943 944
f 889 944 891
f 889 891 890
f 889 941 945
f 889 945 946
f 889 946 947
f 889 947 948
f 889 948 949
f 889 949 950
f 889 950 942
f 891 944 951
f 891 951 892
f 892 951 893
f 893 951 952
f 893 952 953
f 893 953 954
f 893 954 894
f 895 955 896
f 895 901 955
f 896 955 956
f 896 956 957
f 896 957 897
f 897 957 898
f 898 957 903
f 898 903 902
f 899 958 900
f 900 959 960
f 900 960 901
f 900 958 961
f 900 961 959
f 901 960 962
f 901 962 963
f 901 963 964
f 901 964 955
f 903 957 956
f 903 956 965
f 903 965 966
f 903 966 967
f 903 967 968
f 903 968 969
f 903 969 907
f 904 906 910
f 907 969 970
f 907 970 908
f 908 970 911
f 908 911 909
f 911 970 912
f 912 971 972
f 912 972 925
f 912 917 913
f 912 970 969
f 912 969 968
f 912 968 971
f 914 916 915
f 918 925 972
f 918 972 973
f 918 973 974
f 918 974 975
f 918 975 919
f 919 976 977
f 919 977 978
f 919 978 931
f 919 931 920
f 919 975 976
f 920 931 928
f 920 928 922
f 922 928 927
f 922 927 923
f 923 927 924
f 924 927 926
f 931 978 932
f 932 979 933
f 932 978 977
f 932 977 980
f 932 980 950
f 932 950 979
f 933 979 981
f 933 981 982
f 933 982 983
f 933 983 984
f 933 984 934
f 934 984 985
f 934 985 935
f 935 985 936
f 935 936 938
f 939 986 940
f 940 986 945
f 940 945 941
f 942 950 943
f 943 987 988
f 943 988 962
f 943 962 989
f 943 989 990
f 943 990 951
f 943 951 944
f 943 950 991
f 943 991 980
f 943 980 987
f 945 986 946
f 946 986 992
f 946 992 993
f 946 993 947
f 947 993 948
f 948 993 994
f 948 994 995
f 948 995 950
f 948 950 949
f 950 995 996
f 950 996 997
f 950 997 979
f 950 980 998
f 950 998 991
f 951 990 999
f 951 999 952
f 952 999 953
f 955 964 956
f 956 1000 965
f 956 964 1000
f 958 1001 961
f 959 1002 1003
f 959 1003 990
f 959 990 989
f 959 989 962
f 959 962 960
f 959 961 1004
f 959 1004 1002
f 961 1001 1004
f 962 988 1005
f 962 1005 963
f 963 1005 1006
f 963 1006 1007
f 963 1007 964
f 964 1007 1006
f 964 1006 1008
f 964 1008 1009
f 964 1009 965
f 964 965 1000
f 965 1009 1010
f 965 1010 966
f 966 1010 1011
f 966 1011 967
f 967 1011 971
f 967 971 968
f 971 1012 972
f 971 1011 1013
f 971 1013 1014
f 971 1014 1012
f 972 1015 973
f 972 1012 1006
f 972 1006 1005
f 972 1005 1016
f 972 1016 1015
f 973 1015 1017
f 973 1017 974
f 974 1017 975
f 975 1017 976
f 976 1018 1019
f 976 1019 977
f 976 1017 1015
f 976 1015 1020
f 976 1020 1021
f 976 1021 1018
f 977 1019 1022
f 977 1022 980
f 979 997 1023
f 979 1023 1024
f 979 1024 1025
f 979 1025 981
f 980 991 998
f 980 1022 1026
f 980 1026 987
f 986 1027 992
f 987 1028 1029
f 987 1029 1030
f 987 1030 988
f 987 1026 1028
f 988 1030 1029
f 988 1029 1031
f 988 1031 1016
f 988 1016 1005
f 990 1003 1032
f 990 1032 1033
f 990 1033 1034
f 990 1034 1035
f 990 1035 1036
f 990 1036 1037
f 990 1037 1038
f 990 1038 999
f 992 1027 1039
f 992 1039 994
f 992 994 993
f 994 1039 995
f 995 1040 1041
f 995 1041 996
f 995 1039 1040
f 996 1041 1023
f 996 1023 997
f 999 1038 1037
f 999 1037 1036
f 1001 1042 1004
f 1002 1004 1043
f 1002 1043 1003
f 1003 1043 1044
f 1003 1044 1032
f 1004 1042 1043
f 1006 1012 1008
f 1008 1012 1009
f 1009 1012 1014
f 1009 1014 1010
f 1010 1014 1013
f 1010 1013 1011
f 1015 1016 1031
f 1015 1031 1029
f 1015 1029 1020
f 1018 1021 1045
f 1018 1045 1046
f 1018 1046 1019
f 1019 1046 1022
f 1020 1045 1021
f 1020 1029 1028
f 1020 1028 1045
f 1022 1046 1026
f 1026 1046 1047
f 1026 1047 1028
f 1027 1040 1039
f 1028 1047 1045
f 1032 1044 1033
f 1033 1044 1048
f 1033 1048 1049
f 1033 1049 1050
f 1033 1050 1034
f 1034 1050 1051
f 1034 1051 1036
f 1034 1036 1035
f 1043 1052 1044
f 1044 1052 1048
f 1045 1047 1046

