# https://github.com/mikedh/trimesh
v 0.04825265 0.00687286 0.09940640
v 0.04825265 0.00836666 0.09884347
v 0.04817605 0.00687286 0.09939824
v 0.04825265 0.00486756 0.09935337
v 0.04817605 0.00836084 0.09883531
v 0.04825265 0.00944777 0.09779512
v 0.04817605 0.00940127 0.09782775
v 0.04685035 0.00809347 0.09857017
v 0.03781862 0.00687286 0.09610635
v 0.03781862 0.00281576 0.09741984
v 0.03781862 0.00062447 0.09791750
v 0.03781862 0.00017691 0.09792566
v 0.04825265 0.00479200 0.09934521
v 0.04817605 0.00479200 0.09934112
v 0.03781862 0.00911646 0.09535171
v 0.04825265 0.01044170 0.09675086
v 0.04817605 0.01039520 0.09678350
v 0.03781862 0.01103457 0.09347530
v 0.03781862 -0.00157845 0.09780737
v 0.04825265 0.00252514 0.09877412
v 0.03781862 -0.00195626 0.09771763
v 0.04825265 0.01148213 0.09563317
v 0.04817605 0.01240631 0.09462154
v 0.04825265 0.01245281 0.09458891
v 0.04825265 0.01384199 0.09291645
v 0.04825265 0.01428373 0.09235353
v 0.03781862 0.01111013 0.09337740
v 0.04825265 0.00196133 0.09862728
v 0.03781862 -0.00314200 0.09702009
v 0.04825265 -0.00310713 0.09686508
v 0.04825265 -0.00304319 0.09689771
v 0.04825265 -0.00145639 0.09766459
v 0.04825265 0.00106040 0.09837437
v 0.03781862 0.01259812 0.09106860
v 0.04825265 0.01460342 0.09171310
v 0.03781862 0.02137493 0.07676706
v 0.03781862 0.02038681 0.07864756
v 0.03781862 0.01924757 0.08058515
v 0.03781862 -0.01774288 0.08455417
v 0.03781862 -0.01892862 0.08332635
v 0.03781862 -0.01941105 0.08278790
v 0.04825265 -0.00414174 0.09557199
v 0.04825265 0.01479523 0.09129295
v 0.03781862 0.02358947 0.07213721
v 0.03781862 0.02349066 0.07235342
v 0.03781862 0.02344997 0.07243907
v 0.03781862 0.02143305 0.07664876
v 0.03781862 -0.01975399 0.08228616
v 0.03781862 -0.02048636 0.08112361
v 0.03781862 -0.03330281 0.05773779
v 0.04825265 -0.00471136 0.09453180
v 0.04825265 0.01579497 0.08886993
v 0.03781862 0.02441484 0.07031792
v 0.03858258 -0.03264601 0.05773779
v 0.04825265 -0.00986119 0.08489275
v 0.03781862 0.02607720 0.05773779
v 0.04825265 0.01589959 0.08861294
v 0.03781862 0.02495540 0.06823754
v 0.04825265 0.01619022 0.08783382
v 0.04825265 0.01639365 0.08718116
v 0.04825265 0.01854426 0.08022211
v 0.04825265 0.01904994 0.07857413
v 0.04825265 0.01960213 0.07656719
v 0.03978368 -0.03156490 0.05773779
v 0.04825265 -0.01015182 0.08288988
v 0.04069880 -0.03060003 0.05773779
v 0.04192543 -0.02921666 0.05773779
v 0.04238096 -0.02848429 0.05773779
v 0.04340332 -0.02680449 0.05773779
v 0.04433070 -0.02436326 0.05773779
v 0.03781862 0.02562964 0.06195972
v 0.04825265 0.01961375 0.07650191
v 0.04825265 0.01963700 0.07449089
v 0.04825265 0.01963119 0.07441747
v 0.04011357 0.02394403 0.05773779
v 0.03781862 0.02518208 0.06615309
v 0.04825265 -0.01015763 0.08281646
v 0.04488018 -0.02278809 0.05773779
v 0.04519476 -0.02180579 0.05773779
v 0.04570338 -0.02020155 0.05773779
v 0.04825265 0.01913132 0.07232486
v 0.04123195 0.02285710 0.05773779
v 0.04694840 -0.01380785 0.05773779
v 0.04696270 -0.01370323 0.05773779
v 0.04720578 -0.01187231 0.05773779
v 0.04721497 -0.01180255 0.05773779
v 0.04825265 -0.00537979 0.06832320
v 0.04625899 -0.01812069 0.05773779
v 0.04663178 -0.01603402 0.05773779
v 0.04664098 -0.01597589 0.05773779
v 0.04825265 0.01763170 0.06615309
v 0.04825265 0.01712602 0.06407680
v 0.04825265 0.01650990 0.06252264
v 0.04825265 0.01449879 0.05796214
v 0.04825265 0.01441161 0.05786424
v 0.04825265 0.01419073 0.05773779
v 0.04825265 -0.00051477 0.05773779
v 0.04825265 -0.00441493 0.06610823
f 1 2 3
f 1 3 4
f 1 4 13
f 1 13 20
f 1 20 28
f 1 28 33
f 1 33 32
f 1 32 31
f 1 31 30
f 1 30 42
f 1 42 51
f 1 51 55
f 1 55 65
f 1 65 77
f 1 77 87
f 1 87 98
f 1 98 97
f 1 97 96
f 1 96 95
f 1 95 94
f 1 94 93
f 1 93 92
f 1 92 91
f 1 91 81
f 1 81 74
f 1 74 73
f 1 73 72
f 1 72 63
f 1 63 62
f 1 62 61
f 1 61 60
f 1 60 59
f 1 59 57
f 1 57 52
f 1 52 43
f 1 43 35
f 1 35 26
f 1 26 25
f 1 25 24
f 1 24 22
f 1 22 16
f 1 16 6
f 1 6 2
f 2 5 3
f 2 6 7
f 2 7 5
f 3 5 8
f 3 8 9
f 3 9 10
f 3 10 11
f 3 11 12
f 3 12 4
f 4 12 14
f 4 14 13
f 5 15 8
f 5 7 15
f 6 16 17
f 6 17 7
f 7 17 18
f 7 18 15
f 8 15 9
f 9 15 18
f 9 18 27
f 9 27 34
f 9 34 38
f 9 38 37
f 9 37 36
f 9 36 47
f 9 47 46
f 9 46 45
f 9 45 44
f 9 44 53
f 9 53 58
f 9 58 76
f 9 76 71
f 9 71 56
f 9 56 50
f 9 50 49
f 9 49 48
f 9 48 41
f 9 41 40
f 9 40 39
f 9 39 29
f 9 29 21
f 9 21 19
f 9 19 12
f 9 12 11
f 9 11 10
f 12 19 14
f 13 14 19
f 13 19 21
f 13 21 20
f 16 22 17
f 17 22 23
f 17 23 18
f 18 23 24
f 18 24 25
f 18 25 26
f 18 26 27
f 20 21 28
f 21 29 30
f 21 30 31
f 21 31 32
f 21 32 33
f 21 33 28
f 22 24 23
f 26 34 27
f 26 35 36
f 26 36 37
f 26 37 38
f 26 38 34
f 29 39 30
f 30 39 40
f 30 40 41
f 30 41 42
f 35 43 44
f 35 44 45
f 35 45 46
f 35 46 47
f 35 47 36
f 41 48 42
f 42 48 49
f 42 49 50
f 42 50 51
f 43 52 53
f 43 53 44
f 50 54 55
f 50 55 51
f 50 56 75
f 50 75 82
f 50 82 96
f 50 96 97
f 50 97 86
f 50 86 85
f 50 85 84
f 50 84 83
f 50 83 90
f 50 90 89
f 50 89 88
f 50 88 80
f 50 80 79
f 50 79 78
f 50 78 70
f 50 70 69
f 50 69 68
f 50 68 67
f 50 67 66
f 50 66 64
f 50 64 54
f 52 57 53
f 53 57 59
f 53 59 60
f 53 60 61
f 53 61 62
f 53 62 63
f 53 63 58
f 54 64 55
f 55 64 66
f 55 66 67
f 55 67 68
f 55 68 69
f 55 69 70
f 55 70 65
f 56 71 72
f 56 72 73
f 56 73 74
f 56 74 75
f 58 63 72
f 58 72 76
f 65 70 78
f 65 78 79
f 65 79 80
f 65 80 77
f 71 76 72
f 74 81 82
f 74 82 75
f 77 83 84
f 77 84 85
f 77 85 86
f 77 86 87
f 77 80 88
f 77 88 89
f 77 89 90
f 77 90 83
f 81 91 82
f 82 91 92
f 82 92 93
f 82 93 94
f 82 94 95
f 82 95 96
f 86 97 98
f 86 98 87

