# https://github.com/mikedh/trimesh
v -0.04532882 -0.00083777 0.01129971
v -0.04498352 -0.00098003 0.01129971
v -0.03349257 0.00090904 0.00372421
v -0.03597106 0.00090904 0.00372421
v -0.04532882 -0.00042092 0.00883354
v -0.04532882 -0.02980579 0.01129971
v -0.04283874 -0.00187660 0.01129971
v -0.03349257 0.00090904 -0.00879148
v -0.04190250 -0.00230007 0.01129971
v -0.03926528 -0.00358702 0.01129971
v -0.03888406 -0.00420569 0.01129971
v -0.03349257 -0.02932608 0.00372421
v -0.04070324 0.00090904 -0.00872068
v -0.04532882 0.00085942 -0.00051193
v -0.04532882 0.00077009 0.00156878
v -0.04532882 0.00044918 0.00365145
v -0.04532882 0.00010180 0.00573608
v -0.04532882 -0.01907016 -0.00347959
v -0.04257108 -0.01923227 -0.00579432
v -0.04507970 -0.02992820 0.01129971
v -0.04072641 0.00090904 -0.00879148
v -0.03349257 -0.01507035 -0.00879148
v -0.03888406 -0.03288919 0.01129971
v -0.04058041 -0.02135954 -0.00382768
v -0.04140079 -0.01947378 -0.00599885
v -0.03349257 -0.02930954 0.00370258
v -0.04532882 0.00079656 -0.00073809
v -0.04532882 -0.01800486 -0.00458877
v -0.04458724 -0.01714469 -0.00575106
v -0.04335321 -0.01795193 -0.00598902
v -0.04140079 -0.01811735 -0.00663014
v -0.04011114 -0.03233338 0.01129971
v -0.04087589 -0.03197608 0.01129971
v -0.04207052 -0.03140042 0.01129971
v -0.03986201 -0.00979351 -0.00879148
v -0.04532882 -0.00979351 -0.00679534
v -0.04532882 -0.00794744 -0.00682484
v -0.04532882 -0.00770924 -0.00680124
v -0.04532882 -0.00603521 -0.00630368
v -0.04532882 -0.00582017 -0.00621125
v -0.04532882 -0.00489713 -0.00567436
v -0.04532882 -0.00368627 -0.00494080
v -0.04532882 -0.00204533 -0.00391815
v -0.04532882 -0.00114545 -0.00329276
v -0.04532882 0.00008195 -0.00222684
v -0.04532882 0.00018782 -0.00212064
v -0.03349257 -0.02679518 0.00077425
v -0.03998020 -0.01951017 -0.00601852
v -0.03695596 -0.01302247 -0.00879148
v -0.03349257 -0.02703669 0.00101222
v -0.03349257 -0.02796634 0.00201914
v -0.03349257 -0.02873719 0.00298279
v -0.04532882 -0.01657235 -0.00557602
v -0.04532882 -0.01574856 -0.00586315
v -0.04498352 -0.01603639 -0.00593002
v -0.04348414 -0.01603639 -0.00649838
v -0.03914129 -0.01164619 -0.00879148
v -0.03878093 -0.01190424 -0.00879148
v -0.04532882 -0.01211267 -0.00656524
v -0.04532882 -0.01506042 -0.00603818
v -0.04532882 -0.01436567 -0.00620928
f 1 2 3
f 1 3 4
f 1 4 5
f 1 5 17
f 1 17 16
f 1 16 15
f 1 15 14
f 1 14 27
f 1 27 46
f 1 46 45
f 1 45 44
f 1 44 43
f 1 43 42
f 1 42 41
f 1 41 40
f 1 40 39
f 1 39 38
f 1 38 37
f 1 37 36
f 1 36 59
f 1 59 61
f 1 61 60
f 1 60 54
f 1 54 53
f 1 53 28
f 1 28 18
f 1 18 6
f 1 6 20
f 1 20 34
f 1 34 33
f 1 33 32
f 1 32 23
f 1 23 11
f 1 11 10
f 1 10 9
f 1 9 7
f 1 7 2
f 2 7 3
f 3 8 21
f 3 21 13
f 3 13 4
f 3 7 9
f 3 9 10
f 3 10 11
f 3 11 23
f 3 23 12
f 3 12 26
f 3 26 52
f 3 52 51
f 3 51 50
f 3 50 47
f 3 47 22
f 3 22 8
f 4 13 14
f 4 14 15
f 4 15 16
f 4 16 17
f 4 17 5
f 6 18 19
f 6 19 20
f 8 22 49
f 8 49 58
f 8 58 57
f 8 57 35
f 8 35 21
f 12 23 24
f 12 24 25
f 12 25 26
f 13 21 14
f 14 21 27
f 18 28 19
f 19 28 29
f 19 29 30
f 19 30 31
f 19 31 25
f 19 25 24
f 19 24 23
f 19 23 32
f 19 32 33
f 19 33 34
f 19 34 20
f 21 35 36
f 21 36 37
f 21 37 38
f 21 38 39
f 21 39 40
f 21 40 41
f 21 41 42
f 21 42 43
f 21 43 44
f 21 44 45
f 21 45 46
f 21 46 27
f 22 47 48
f 22 48 25
f 22 25 31
f 22 31 49
f 25 48 47
f 25 47 50
f 25 50 51
f 25 51 52
f 25 52 26
f 28 53 29
f 29 53 54
f 29 54 55
f 29 55 30
f 30 55 56
f 30 56 31
f 31 56 57
f 31 57 58
f 31 58 49
f 35 57 59
f 35 59 36
f 54 60 55
f 55 60 61
f 55 61 56
f 56 61 57
f 57 61 59

