# https://github.com/mikedh/trimesh
v -0.00317517 -0.00397507 -0.06654546
v -0.01657977 -0.00397507 -0.06654546
v -0.00317517 -0.01349252 -0.06654546
v -0.00317517 -0.00397507 -0.08255486
v -0.01657977 -0.01349252 -0.06654546
v -0.01657977 -0.00397507 -0.08645051
v -0.00317517 -0.01349252 -0.07439328
v -0.01657584 -0.01349252 -0.08601983
v -0.00521814 -0.00397507 -0.08388394
v -0.01657977 -0.01349252 -0.08571582
v -0.00807069 -0.00397507 -0.08477259
v -0.01657977 -0.01187134 -0.08596136
v -0.00586895 -0.00397507 -0.08422498
f 1 2 5
f 1 5 3
f 1 3 7
f 1 7 4
f 1 4 9
f 1 9 13
f 1 13 11
f 1 11 6
f 1 6 2
f 2 6 12
f 2 12 10
f 2 10 5
f 3 5 10
f 3 10 8
f 3 8 7
f 4 8 9
f 4 7 8
f 6 11 8
f 6 8 12
f 8 10 12
f 8 11 13
f 8 13 9

