# https://github.com/mikedh/trimesh
v -0.04532998 -0.03588023 0.02002654
v -0.04532998 -0.03569091 0.01968564
v -0.04499104 -0.03613265 0.02002654
v -0.04044748 -0.03682680 0.04323445
v -0.04044748 -0.03401864 0.05773371
v -0.04532998 -0.00154064 0.02002654
v -0.04462462 -0.03590127 0.01914476
v -0.04532998 -0.03492314 0.01849025
v -0.04044748 -0.03693198 0.04202087
v -0.01488997 -0.04767033 0.01129971
v -0.01530219 -0.04830139 0.01322688
v -0.01543043 -0.04836449 0.01461772
v -0.01430370 -0.04894295 0.01615400
v 0.00956829 -0.06085927 0.04605249
v 0.00956829 -0.06085927 0.04653883
v -0.03278939 -0.03834133 0.05773371
v -0.04044748 0.03191549 0.05773371
v -0.04532998 -0.00146701 0.02002199
v -0.04532998 -0.03452348 0.01787210
v -0.04494524 -0.03408174 0.01674034
v -0.04386431 -0.03547005 0.01775847
v -0.01634647 -0.04688152 0.01129971
v -0.01444111 -0.04784914 0.01129971
v -0.01449607 -0.04810155 0.01186331
v -0.01391897 -0.04857484 0.01247237
v -0.01449607 -0.04871157 0.01398139
v 0.00978814 -0.06077512 0.04466165
v 0.01055762 -0.06111168 0.04533889
v 0.01275611 -0.06161652 0.04531616
v 0.01070418 -0.06108014 0.04729788
v 0.01002631 -0.06064892 0.04792512
v -0.03103975 -0.03910910 0.05773371
v -0.03945816 0.03247292 0.05773371
v -0.03966885 0.03252551 0.05572927
v -0.04044748 0.03199963 0.05672922
v -0.04532998 -0.00084648 0.01129971
v -0.04532998 -0.03392398 0.01695851
v -0.04532998 -0.03353483 0.01637218
v -0.04532998 -0.03233584 0.01469044
v -0.04532998 -0.03152599 0.01356777
v -0.04416661 -0.03356638 0.01534950
v -0.04532998 -0.03046373 0.01213603
v -0.04532998 -0.02980112 0.01129971
v -0.01328690 -0.04820673 0.01129971
v -0.01216933 -0.04866949 0.01186331
v -0.01222430 -0.04937417 0.01407229
v -0.01262735 -0.04836449 0.01129971
v -0.01222430 -0.04974228 0.01615400
v 0.01118052 -0.06097496 0.04358898
v 0.01483552 -0.06157446 0.04323445
v 0.01692409 -0.06180584 0.04323445
v 0.01483552 -0.06170066 0.04531616
v 0.01275611 -0.06126945 0.04753878
v 0.01365383 -0.06085927 0.03992553
v 0.01497293 -0.06093289 0.03916647
v 0.01483552 -0.06123789 0.04114819
v 0.01141869 -0.06092237 0.04852054
v -0.02892370 -0.03982429 0.05773371
v -0.03841387 0.03298828 0.05773371
v -0.03722302 0.03378760 0.05572927
v -0.03862456 0.03309345 0.05572927
v -0.03591309 0.03486039 0.05156584
v -0.03225809 0.03723734 0.04531616
v -0.03868869 0.03317759 0.05364756
v -0.04044748 0.03198912 0.05572927
v -0.04044748 0.03193653 0.05468841
v -0.04044748 0.03174721 0.05364756
v -0.04044748 0.03161049 0.05295669
v -0.04044748 0.03117927 0.05131131
v -0.04044748 0.03055874 0.04896143
v -0.04044748 0.02840265 0.04080275
v -0.04044748 0.02658313 0.03397128
v -0.04044748 0.02501602 0.03121233
v -0.04044748 0.02461636 0.03064872
v -0.04044748 0.02419566 0.03010784
v -0.02531450 0.02795040 0.01129971
v -0.01173879 -0.04849070 0.01129971
v 0.01692409 -0.05235061 0.01337687
v 0.01683249 -0.05493792 0.02002654
v 0.01483552 -0.05726228 0.02657166
v 0.01483552 -0.05806161 0.02865792
v 0.01483552 -0.05859800 0.03013057
v 0.01483552 -0.05952355 0.03282134
v 0.01483552 -0.06008097 0.03490305
v 0.01900350 -0.06174273 0.04114819
v 0.01576072 -0.06083823 0.03789381
v 0.01692409 -0.06075409 0.03639843
v 0.02109208 -0.06197412 0.04114819
v 0.01900350 -0.06186894 0.04323445
v 0.02109208 -0.06170066 0.04323445
v 0.01483552 -0.06124841 0.04699789
v 0.01206908 -0.06092237 0.04852054
v 0.01497293 -0.06054374 0.03711203
v 0.00650872 -0.04972124 0.05773371
v 0.00442015 -0.04942675 0.05773371
v -0.02275875 -0.04187520 0.05773371
v -0.03507033 0.03462900 0.05773371
v -0.02165950 0.04127606 0.05702011
v -0.02799850 0.03923566 0.04700698
v -0.02840156 0.03943549 0.04323445
v -0.02944584 0.03890962 0.04323445
v -0.02851148 0.03953015 0.04114819
v -0.02954661 0.03888859 0.04114819
v -0.03218480 0.03720579 0.04367988
v -0.03598637 0.03484987 0.04948413
v -0.03850548 0.03311449 0.05156584
v -0.03833143 0.03297776 0.05029318
v -0.03954976 0.03212584 0.05156584
v -0.03998946 0.02839213 0.03906648
v -0.03261534 0.03558610 0.03906648
v -0.04034672 0.02665675 0.03388492
v -0.02426106 0.02928612 0.01129971
v -0.01014488 -0.04865898 0.01129971
v 0.01275611 -0.05134094 0.01199058
v 0.01483552 -0.05151973 0.01199058
v 0.01692409 -0.05162491 0.01199058
v 0.01900350 -0.05148818 0.01199058
v 0.01863709 -0.05270821 0.01454954
v 0.01810578 -0.05463291 0.01910840
v 0.01737295 -0.05463291 0.01910840
v 0.01692409 -0.05585294 0.02240369
v 0.01692409 -0.05683107 0.02505355
v 0.01692409 -0.06031235 0.03490305
v 0.01900350 -0.06141669 0.03906648
v 0.01900350 -0.06103806 0.03726202
v 0.02120200 -0.06133255 0.03891194
v 0.02317148 -0.06173222 0.04114819
v 0.01900350 -0.06133255 0.04502981
v 0.02301576 -0.06130100 0.04325718
v 0.01649356 -0.06103806 0.04662973
v 0.01345230 -0.06071202 0.04832510
v 0.01973634 -0.05661020 0.05048408
v 0.00858813 -0.04952141 0.05773371
v -0.02068850 0.04167572 0.05773371
v -0.01819687 0.04289575 0.05773371
v -0.01862741 0.04289575 0.05572927
v -0.02379387 0.04129709 0.04687063
v -0.02680765 0.04017172 0.04323445
v -0.02822751 0.03940394 0.03906648
v -0.02680765 0.04022431 0.04114819
v -0.02927179 0.03862565 0.03906648
v -0.03079242 0.03784736 0.04114819
v -0.03199243 0.03704803 0.04229359
v -0.03313748 0.03611197 0.04295719
v -0.03183671 0.03690078 0.04114819
v -0.03152525 0.03662733 0.03906648
v -0.03048097 0.03758442 0.03906648
v -0.03633446 0.03097943 0.03567574
v -0.03017868 0.03728993 0.03766200
v -0.02290532 0.03033787 0.01129971
v -0.02792522 0.03921463 0.03793472
v 0.00972402 -0.05073092 0.01129971
v 0.01165686 -0.05092024 0.01129971
v 0.01382788 -0.05109903 0.01129971
v 0.01591645 -0.05119370 0.01129971
v 0.01692409 -0.05117266 0.01129971
v 0.01920503 -0.05232958 0.01394503
v 0.01900350 -0.05103593 0.01129971
v 0.02029512 -0.05065730 0.01129971
v 0.02317148 -0.06116427 0.03958463
v 0.02057909 -0.06100651 0.03766200
v 0.02428905 -0.06090134 0.04001643
v 0.02449058 -0.06110117 0.04114819
v 0.02450890 -0.06111168 0.04258448
v 0.02109208 -0.06104858 0.04456620
v 0.02360202 -0.06060684 0.04397077
v 0.02221880 -0.06085927 0.04431621
v 0.01788593 -0.06079616 0.04632066
v 0.01483552 -0.06048064 0.04803875
v 0.02109208 -0.05639985 0.05023409
v 0.02466463 -0.05473809 0.05070225
v 0.02733947 -0.05214027 0.05227944
v 0.02526006 -0.05238217 0.05254307
v 0.01074082 -0.04871157 0.05773371
v 0.02733947 -0.05108852 0.05294305
v -0.01652052 0.04370559 0.05773371
v -0.01758313 0.04340059 0.05572927
v -0.01768389 0.04342162 0.05364756
v -0.02382136 0.04129709 0.04531616
v -0.02680765 0.03991930 0.03906648
v -0.02471908 0.04072915 0.04114819
v -0.02374808 0.04126554 0.04410259
v -0.03233137 0.03529160 0.03747110
v -0.02221829 0.03085322 0.01129971
v -0.02667024 0.03939342 0.03713930
v -0.02381220 0.03922515 0.03373948
v -0.00835861 0.03676405 0.01129971
v -0.02157706 0.03117927 0.01129971
v -0.02189767 0.03103202 0.01129971
v 0.02002947 -0.05247683 0.01513133
v 0.02047833 -0.05085714 0.01199058
v 0.03300976 -0.03660594 0.01129971
v 0.02826467 -0.05447515 0.03622571
v 0.02626770 -0.05871370 0.04019824
v 0.02188903 -0.05012091 0.01355414
v 0.02567227 -0.05969182 0.04099820
v 0.02643259 -0.05892404 0.04158908
v 0.02845704 -0.05674692 0.04388442
v 0.02845704 -0.05674692 0.04443439
v 0.02629518 -0.05874525 0.04427531
v 0.02661579 -0.05691521 0.04672518
v 0.02569976 -0.05644192 0.04811147
v 0.02605701 -0.05448567 0.05041590
v 0.02395928 -0.05865059 0.04624338
v 0.02109208 -0.05832455 0.04792512
v 0.01823403 -0.05883991 0.04856145
v 0.02879597 -0.05076248 0.05279305
v 0.02733947 -0.05310788 0.05123859
v 0.02864024 -0.05270821 0.05085679
v 0.02941888 -0.03986636 0.05773371
v -0.01564112 0.04404216 0.05773371
v -0.01652968 0.04370559 0.05767462
v -0.01431287 0.04454700 0.05773371
v -0.01639228 0.04384232 0.05572927
v -0.01758313 0.04337955 0.05221581
v -0.02471908 0.04037155 0.03906648
v -0.02471908 0.03987723 0.03698476
v -0.02169615 0.03920411 0.03168958
v -0.02334502 0.04118140 0.04271175
v -0.02056026 0.04175986 0.04323445
v -0.01431287 0.04290627 0.04323445
v -0.02264883 0.04109726 0.04109365
v -0.01431287 0.04442079 0.05572927
v -0.01722587 0.04329541 0.05082952
v -0.00714943 0.03715320 0.01129971
v -0.00739676 0.03707958 0.01129971
v 0.03333953 -0.03606955 0.01129971
v 0.03459450 -0.04410491 0.03189866
v 0.03443877 -0.04378938 0.03073963
v 0.03309220 -0.04480958 0.02865792
v 0.03279906 -0.04442044 0.02705345
v 0.03051813 -0.05048902 0.03375311
v 0.03067385 -0.05069937 0.03490305
v 0.03240516 -0.04811206 0.03448489
v 0.03422809 -0.04567202 0.03490305
v 0.03105859 -0.05157232 0.03912557
v 0.03268914 -0.05061523 0.04323445
v 0.03680216 -0.04635565 0.04804784
v 0.03883577 -0.04421008 0.05032500
v 0.03673803 -0.04626099 0.05055226
v 0.03883577 -0.04421008 0.05059317
v 0.03278990 -0.05061523 0.04877053
v 0.03226776 -0.05018402 0.05016137
v 0.03003262 -0.05214027 0.04995683
v 0.03018835 -0.05014195 0.05238853
v 0.03231356 -0.04809103 0.05245216
v 0.03092118 -0.04875364 0.05282941
v 0.03977013 -0.03155755 0.05773371
v 0.03375175 -0.03702664 0.05773371
v 0.03138836 -0.03886720 0.05773371
v 0.02941888 -0.05144611 0.05162493
v 0.03088454 -0.05075196 0.05099769
v -0.01222430 0.04505184 0.05773371
v -0.02137553 0.04120243 0.04036187
v -0.01118001 0.04332697 0.04219814
v -0.02264883 0.04072915 0.03906648
v -0.02264883 0.04026638 0.03698476
v -0.01952513 0.03916204 0.02969877
v -0.02056026 0.04201228 0.04531616
v -0.01004412 0.04522011 0.05577927
v -0.00597690 0.04469424 0.04531616
v -0.00591278 0.03725838 0.01129971
v -0.02063354 0.04106571 0.03906193
v -0.01034641 0.04321127 0.04104820
v -0.00978763 0.04344266 0.04167544
v -0.00812044 0.04357938 0.04104820
v -0.00597690 0.04392647 0.04114819
v -0.00388833 0.04459958 0.04323445
v 0.03407236 -0.03466020 0.01129971
v 0.03366014 -0.03686887 0.01407229
v 0.03663727 -0.03983480 0.03208501
v 0.03680216 -0.04019240 0.03347131
v 0.03697620 -0.04264298 0.03906648
v 0.03663727 -0.04401025 0.04041186
v 0.03679300 -0.04429422 0.04180270
v 0.03475023 -0.04435733 0.03328495
v 0.03293647 -0.04678686 0.03282134
v 0.03272578 -0.04650289 0.03126688
v 0.03333953 -0.04535649 0.03063963
v 0.03867088 -0.04392611 0.04893416
v 0.03968768 -0.04103380 0.04739787
v 0.04052128 -0.03921428 0.04739787
v 0.04277474 -0.03333500 0.04531616
v 0.04508316 -0.02758193 0.04406168
v 0.03756247 -0.04503044 0.05095678
v 0.04508316 -0.02758193 0.04453438
v 0.04101594 -0.03826770 0.04948413
v 0.04091518 -0.03805735 0.05087497
v 0.04083273 -0.03775234 0.05227035
v 0.04290298 -0.02945404 0.05647469
v 0.04091518 -0.03589075 0.05472932
v 0.03871668 -0.04200141 0.05253852
v 0.03578535 -0.04529339 0.05209763
v 0.03791973 -0.04324247 0.05214763
v 0.03442961 -0.04606116 0.05249761
v 0.04107090 -0.03189411 0.05690194
v 0.04068617 -0.03060045 0.05773371
v -0.01067619 0.04532529 0.05773371
v -0.00927465 0.04544098 0.05650650
v -0.00597690 0.04437872 0.04323445
v -0.00597690 0.04490459 0.04739787
v -0.00388833 0.04489407 0.04531616
v -0.00389749 0.03737407 0.01129971
v -0.00180892 0.04473631 0.04531616
v -0.00180892 0.04441027 0.04323445
v 0.00094836 0.03744769 0.01129971
v 0.00026133 0.03746872 0.01129971
v -0.00113105 0.03746872 0.01129971
v 0.04072281 -0.03338759 0.03662569
v 0.03434717 -0.03397657 0.01129971
v 0.04712593 -0.02123989 0.04010279
v 0.04599004 -0.02436358 0.04114819
v 0.04527553 -0.02590965 0.04114819
v 0.03850599 -0.03937204 0.03906648
v 0.04210603 -0.03270395 0.04114819
v 0.04679615 -0.02250199 0.04114819
v 0.04719921 -0.02145024 0.04114819
v 0.04686027 -0.02250199 0.04323445
v 0.04187702 -0.03478641 0.05156584
v 0.04148312 -0.03685835 0.04948413
v 0.04719921 -0.02145024 0.04323445
v 0.04557782 -0.02228112 0.05364756
v 0.04520224 -0.02175525 0.05773371
v 0.04326024 -0.02866524 0.05576108
v 0.04314115 -0.02806574 0.05719283
v 0.04487247 -0.02277544 0.05773371
v 0.04432284 -0.02436358 0.05773371
v 0.04339765 -0.02680364 0.05773371
v 0.04237168 -0.02848644 0.05773371
v 0.04191366 -0.02921215 0.05773371
v -0.00963190 0.04547253 0.05773371
v -0.00870670 0.04544098 0.05650650
v -0.00388833 0.04498873 0.04739787
v 0.01192252 0.04337955 0.05445206
v 0.00027049 0.04432612 0.04531616
v -0.00180892 0.04482045 0.04739787
v 0.00234990 0.04441027 0.04948413
v 0.01382788 0.04333748 0.05672922
v 0.00267051 0.03720579 0.01129971
v 0.00221249 0.03730045 0.01129971
v 0.03453038 -0.03334552 0.01129971
v 0.03829530 -0.01806361 0.01129971
v 0.04520224 -0.01967278 0.03333950
v 0.04716257 -0.02019866 0.03996189
v 0.04739158 -0.02019866 0.04114819
v 0.03475939 -0.03243050 0.01129971
v 0.04746486 -0.02019866 0.04323445
v 0.04713509 -0.01919950 0.04855691
v 0.04712593 -0.02123989 0.04428894
v 0.04623737 -0.02019866 0.05364756
v 0.04569690 -0.02019866 0.05773371
v -0.00845937 0.04547253 0.05773371
v -0.00388833 0.04502028 0.04948413
v 0.01465232 0.04297989 0.05591108
v -0.00735096 0.04537787 0.05773371
v -0.00589446 0.04524115 0.05773371
v 0.00027049 0.04464165 0.05364756
v 0.00234990 0.04444182 0.05364756
v 0.00649956 0.04404216 0.05364756
v 0.01275611 0.04345318 0.05773371
v 0.01486300 0.04319024 0.05773371
v 0.01390116 0.04333748 0.05773371
v 0.00295449 0.03713216 0.01129971
v 0.03858843 -0.01603373 0.01129971
v 0.04094266 -0.01730635 0.01905840
v 0.04490911 -0.01810568 0.03226682
v 0.04718089 -0.01874724 0.03991644
v 0.04736410 -0.01808464 0.04103456
v 0.04764807 -0.01810568 0.04323445
v 0.04758395 -0.01810568 0.04531616
v 0.04740990 -0.01810568 0.04739787
v 0.04707097 -0.01872621 0.04994775
v 0.04624653 -0.01810568 0.05773371
v -0.00597690 0.04523063 0.05364756
v 0.01692409 0.04253815 0.05773371
v 0.01692409 0.04222263 0.05572927
v 0.02196231 0.03287258 0.01565403
v 0.02108292 0.03242033 0.01199058
v 0.02108292 0.03228360 0.01129971
v -0.00180892 0.04485200 0.05773371
v 0.03859759 -0.01572873 0.01129971
v 0.04094266 -0.01658064 0.01905840
v 0.03856095 -0.01354109 0.01129971
v 0.03771820 0.01102776 0.01129971
v 0.04825266 0.01101724 0.05510203
v 0.04825266 0.00895582 0.05437479
v 0.04825266 0.00632644 0.05401572
v 0.04825266 0.00479089 0.05402936
v 0.04825266 0.00270843 0.05415662
v 0.04825266 0.00072062 0.05501567
v 0.04825266 -0.00003664 0.05582472
v 0.04825266 -0.00052044 0.05773371
v 0.04720837 -0.01180570 0.05773371
v 0.04722669 -0.01806361 0.04934323
v 0.04719921 -0.01343591 0.05572927
v 0.04706180 -0.01448766 0.05572927
v 0.04683279 -0.01458232 0.05773371
v 0.04662210 -0.01603373 0.05773371
v 0.04674119 -0.01810568 0.05364756
v 0.04626485 -0.01802154 0.05773371
v 0.01697906 0.04251712 0.05773371
v 0.01795922 0.04124450 0.05260670
v 0.01760196 0.04112881 0.05121132
v 0.02300660 0.03146324 0.01129971
v 0.02170582 0.03206274 0.01129971
v 0.01833479 0.04151796 0.05572927
v 0.02083558 0.03972998 0.05572927
v 0.02187987 0.03898324 0.05572927
v 0.03857011 -0.01395127 0.01129971
v 0.03763575 0.01172192 0.01129971
v 0.04825266 0.01291039 0.05602016
v 0.04825266 0.01419353 0.05773371
v 0.04693356 -0.01384610 0.05773371
v 0.01850884 0.04166520 0.05773371
v 0.03254257 0.03083219 0.05260670
v 0.03474107 0.02882335 0.05006137
v 0.02405088 0.03067443 0.01129971
v 0.03737926 0.01311023 0.01129971
v 0.03726018 0.01355196 0.01129971
v 0.04825266 0.01373076 0.05709284
v 0.03688460 0.01447750 0.01129971
v 0.03597772 0.01611822 0.01129971
v 0.03512580 0.01764326 0.01129971
v 0.03468611 0.01841104 0.01129971
v 0.03693040 0.02688813 0.04948413
v 0.03832278 0.02558396 0.05139767
v 0.03898233 0.02486878 0.05197946
v 0.03917470 0.02501602 0.05364756
v 0.04122663 0.02284942 0.05773371
v 0.02203560 0.03901480 0.05773371
v 0.03254257 0.03083219 0.05262943
v 0.03491512 0.02897060 0.05364756
v 0.03591360 0.02813971 0.05156584
v 0.02438066 0.03032735 0.01129971
v 0.03718689 0.02709848 0.05156584
v 0.03411816 0.01910519 0.01129971
v 0.03278990 0.02069333 0.01129971
v 0.03190134 0.02173457 0.01129971
v 0.02995934 0.02399582 0.01129971
v 0.02831963 0.02589949 0.01129971
v 0.02698221 0.02744556 0.01129971
v 0.02607533 0.02848679 0.01129971
v 0.02572723 0.02887594 0.01129971
v 0.02503105 0.02963320 0.01129971
v 0.03822202 0.02605725 0.05364756
v 0.04009990 0.02394324 0.05773371
v 0.03921134 0.02497395 0.05572927
v 0.02434402 0.03718475 0.05773371
v 0.03242349 0.03073753 0.05773371
v 0.03483268 0.02891801 0.05572927
v 0.03595024 0.02811868 0.05364756
v 0.02538830 0.03635387 0.05773371
v 0.03717773 0.02707745 0.05364756
v 0.03705865 0.02698279 0.05572927
v 0.03793805 0.02595208 0.05773371
v 0.03475023 0.02885490 0.05773371
v 0.03584947 0.02787678 0.05773371
v 0.03693957 0.02687761 0.05773371
f 1 2 3
f 1 3 4
f 1 4 5
f 1 5 17
f 1 17 6
f 1 6 18
f 1 18 36
f 1 36 43
f 1 43 42
f 1 42 40
f 1 40 39
f 1 39 38
f 1 38 37
f 1 37 19
f 1 19 8
f 1 8 2
f 2 7 3
f 2 8 7
f 3 9 4
f 3 7 10
f 3 10 11
f 3 11 12
f 3 12 13
f 3 13 14
f 3 14 15
f 3 15 9
f 4 16 5
f 4 9 15
f 4 15 16
f 5 16 32
f 5 32 58
f 5 58 96
f 5 96 95
f 5 95 94
f 5 94 133
f 5 133 174
f 5 174 210
f 5 210 250
f 5 250 249
f 5 249 248
f 5 248 297
f 5 297 330
f 5 330 329
f 5 329 328
f 5 328 327
f 5 327 326
f 5 326 323
f 5 323 351
f 5 351 373
f 5 373 400
f 5 400 398
f 5 398 397
f 5 397 413
f 5 413 393
f 5 393 392
f 5 392 412
f 5 412 429
f 5 429 446
f 5 446 455
f 5 455 458
f 5 458 457
f 5 457 456
f 5 456 449
f 5 449 452
f 5 452 448
f 5 448 430
f 5 430 414
f 5 414 401
f 5 401 375
f 5 375 361
f 5 361 362
f 5 362 360
f 5 360 380
f 5 380 356
f 5 356 355
f 5 355 352
f 5 352 331
f 5 331 298
f 5 298 253
f 5 253 213
f 5 213 211
f 5 211 176
f 5 176 135
f 5 135 134
f 5 134 97
f 5 97 59
f 5 59 33
f 5 33 17
f 6 17 18
f 7 8 19
f 7 19 20
f 7 20 21
f 7 21 22
f 7 22 10
f 10 22 43
f 10 43 36
f 10 36 76
f 10 76 112
f 10 112 150
f 10 150 184
f 10 184 189
f 10 189 188
f 10 188 187
f 10 187 226
f 10 226 225
f 10 225 262
f 10 262 303
f 10 303 308
f 10 308 307
f 10 307 306
f 10 306 340
f 10 340 339
f 10 339 363
f 10 363 379
f 10 379 405
f 10 405 404
f 10 404 417
f 10 417 434
f 10 434 444
f 10 444 443
f 10 443 442
f 10 442 441
f 10 441 440
f 10 440 439
f 10 439 438
f 10 438 437
f 10 437 436
f 10 436 424
f 10 424 423
f 10 423 422
f 10 422 421
f 10 421 419
f 10 419 418
f 10 418 410
f 10 410 384
f 10 384 383
f 10 383 409
f 10 409 381
f 10 381 364
f 10 364 342
f 10 342 346
f 10 346 341
f 10 341 310
f 10 310 269
f 10 269 227
f 10 227 192
f 10 192 159
f 10 159 158
f 10 158 156
f 10 156 155
f 10 155 154
f 10 154 153
f 10 153 152
f 10 152 113
f 10 113 77
f 10 77 47
f 10 47 44
f 10 44 23
f 10 23 24
f 10 24 11
f 11 24 25
f 11 25 26
f 11 26 12
f 12 26 13
f 13 26 14
f 14 26 27
f 14 27 28
f 14 28 15
f 15 28 29
f 15 29 30
f 15 30 31
f 15 31 16
f 16 31 32
f 17 33 34
f 17 34 35
f 17 35 18
f 18 35 36
f 19 37 20
f 20 37 38
f 20 38 39
f 20 39 40
f 20 40 41
f 20 41 21
f 21 41 22
f 22 41 42
f 22 42 43
f 23 44 25
f 23 25 24
f 25 45 46
f 25 46 26
f 25 44 47
f 25 47 45
f 26 46 48
f 26 48 27
f 27 48 28
f 28 48 49
f 28 49 29
f 29 50 51
f 29 51 52
f 29 52 53
f 29 53 30
f 29 49 54
f 29 54 55
f 29 55 56
f 29 56 50
f 30 53 57
f 30 57 31
f 31 57 32
f 32 57 58
f 33 59 60
f 33 60 61
f 33 61 34
f 34 61 62
f 34 62 63
f 34 63 64
f 34 64 65
f 34 65 35
f 35 65 36
f 36 65 66
f 36 66 67
f 36 67 68
f 36 68 69
f 36 69 70
f 36 70 71
f 36 71 72
f 36 72 73
f 36 73 74
f 36 74 75
f 36 75 76
f 40 42 41
f 45 47 77
f 45 77 78
f 45 78 79
f 45 79 80
f 45 80 81
f 45 81 82
f 45 82 83
f 45 83 46
f 46 83 84
f 46 84 54
f 46 54 49
f 46 49 48
f 50 85 88
f 50 88 51
f 50 56 86
f 50 86 87
f 50 87 85
f 51 88 89
f 51 89 52
f 52 89 90
f 52 90 91
f 52 91 53
f 53 91 92
f 53 92 57
f 54 86 55
f 54 84 93
f 54 93 87
f 54 87 86
f 55 86 56
f 57 92 94
f 57 94 95
f 57 95 96
f 57 96 58
f 59 97 60
f 60 97 98
f 60 98 99
f 60 99 100
f 60 100 61
f 61 100 62
f 62 100 101
f 62 101 63
f 63 101 102
f 63 102 103
f 63 103 104
f 63 104 64
f 64 105 66
f 64 66 65
f 64 104 105
f 66 105 104
f 66 104 106
f 66 106 67
f 67 106 68
f 68 106 107
f 68 107 108
f 68 108 69
f 69 108 70
f 70 108 71
f 71 108 109
f 71 109 72
f 72 109 110
f 72 110 111
f 72 111 73
f 73 111 112
f 73 112 74
f 74 112 75
f 75 112 76
f 77 113 78
f 78 113 114
f 78 114 115
f 78 115 116
f 78 116 117
f 78 117 118
f 78 118 119
f 78 119 120
f 78 120 79
f 79 120 121
f 79 121 81
f 79 81 80
f 81 121 122
f 81 122 82
f 82 122 123
f 82 123 83
f 83 123 87
f 83 87 84
f 84 87 93
f 85 87 124
f 85 124 88
f 87 123 125
f 87 125 88
f 87 88 124
f 88 125 126
f 88 126 127
f 88 127 90
f 88 90 89
f 90 128 91
f 90 127 129
f 90 129 128
f 91 130 131
f 91 131 92
f 91 128 130
f 92 131 132
f 92 132 133
f 92 133 94
f 97 134 98
f 98 134 99
f 99 134 135
f 99 135 100
f 100 135 136
f 100 136 137
f 100 137 138
f 100 138 102
f 100 102 101
f 102 139 103
f 102 138 140
f 102 140 139
f 103 139 141
f 103 141 142
f 103 142 104
f 104 142 143
f 104 143 107
f 104 107 106
f 107 143 144
f 107 144 108
f 108 144 109
f 109 144 145
f 109 145 110
f 110 145 146
f 110 146 111
f 111 146 147
f 111 147 148
f 111 148 149
f 111 149 112
f 112 149 151
f 112 151 150
f 113 152 114
f 114 153 115
f 114 152 153
f 115 153 154
f 115 154 116
f 116 154 155
f 116 155 156
f 116 156 158
f 116 158 117
f 117 157 118
f 117 158 159
f 117 159 157
f 118 157 119
f 119 122 121
f 119 121 120
f 119 157 160
f 119 160 161
f 119 161 125
f 119 125 122
f 122 125 123
f 125 161 126
f 126 161 160
f 126 160 127
f 127 160 162
f 127 162 163
f 127 163 164
f 127 164 129
f 128 129 165
f 128 165 130
f 129 164 166
f 129 166 167
f 129 167 165
f 130 165 167
f 130 167 168
f 130 168 169
f 130 169 131
f 131 169 170
f 131 170 132
f 132 170 171
f 132 171 172
f 132 172 173
f 132 173 133
f 133 173 172
f 133 172 175
f 133 175 174
f 135 176 177
f 135 177 136
f 136 177 137
f 137 177 178
f 137 178 179
f 137 179 140
f 137 140 138
f 139 140 180
f 139 180 151
f 139 151 141
f 140 181 180
f 140 179 182
f 140 182 181
f 141 151 149
f 141 149 147
f 141 147 142
f 142 147 145
f 142 145 143
f 143 145 144
f 145 147 146
f 147 149 183
f 147 183 148
f 148 183 149
f 150 151 184
f 151 180 185
f 151 185 186
f 151 186 187
f 151 187 188
f 151 188 189
f 151 189 184
f 157 159 190
f 157 190 162
f 157 162 160
f 159 191 190
f 159 192 191
f 162 193 194
f 162 194 163
f 162 190 191
f 162 191 195
f 162 195 192
f 162 192 193
f 163 194 196
f 163 196 197
f 163 197 198
f 163 198 164
f 164 198 199
f 164 199 200
f 164 200 201
f 164 201 202
f 164 202 166
f 166 202 203
f 166 203 204
f 166 204 167
f 167 204 203
f 167 203 205
f 167 205 168
f 168 205 206
f 168 206 169
f 169 206 170
f 170 206 171
f 171 206 203
f 171 203 172
f 172 207 175
f 172 203 208
f 172 208 209
f 172 209 207
f 174 175 207
f 174 207 210
f 176 211 212
f 176 212 177
f 177 212 211
f 177 211 213
f 177 213 214
f 177 214 178
f 178 215 182
f 178 182 179
f 178 214 213
f 178 213 215
f 180 181 216
f 180 216 217
f 180 217 218
f 180 218 186
f 180 186 185
f 181 182 219
f 181 219 220
f 181 220 221
f 181 221 222
f 181 222 216
f 182 215 223
f 182 223 224
f 182 224 219
f 186 218 225
f 186 225 226
f 186 226 187
f 191 192 195
f 192 227 228
f 192 228 229
f 192 229 230
f 192 230 231
f 192 231 232
f 192 232 193
f 193 232 194
f 194 197 196
f 194 232 233
f 194 233 234
f 194 234 235
f 194 235 236
f 194 236 237
f 194 237 238
f 194 238 197
f 197 238 239
f 197 239 198
f 198 239 241
f 198 241 199
f 199 240 200
f 199 241 240
f 200 240 242
f 200 242 243
f 200 243 244
f 200 244 209
f 200 209 201
f 201 209 202
f 202 209 203
f 203 209 208
f 203 206 205
f 207 245 246
f 207 246 247
f 207 247 248
f 207 248 249
f 207 249 250
f 207 250 210
f 207 209 251
f 207 251 245
f 209 244 243
f 209 243 240
f 209 240 252
f 209 252 251
f 213 253 223
f 213 223 215
f 216 222 254
f 216 254 255
f 216 255 256
f 216 256 257
f 216 257 258
f 216 258 217
f 217 258 218
f 218 258 225
f 219 224 259
f 219 259 220
f 220 259 260
f 220 260 261
f 220 261 221
f 221 261 255
f 221 255 222
f 222 255 254
f 223 253 224
f 224 253 260
f 224 260 259
f 225 258 257
f 225 257 256
f 225 256 263
f 225 263 264
f 225 264 265
f 225 265 266
f 225 266 267
f 225 267 268
f 225 268 262
f 227 269 270
f 227 270 228
f 228 270 269
f 228 269 271
f 228 271 272
f 228 272 273
f 228 273 274
f 228 274 239
f 228 239 275
f 228 275 276
f 228 276 235
f 228 235 277
f 228 277 278
f 228 278 279
f 228 279 230
f 228 230 229
f 230 279 278
f 230 278 232
f 230 232 231
f 232 278 233
f 233 278 277
f 233 277 234
f 234 277 235
f 235 276 275
f 235 275 239
f 235 239 238
f 235 238 237
f 235 237 236
f 239 274 280
f 239 280 281
f 239 281 282
f 239 282 283
f 239 283 284
f 239 284 286
f 239 286 241
f 240 285 245
f 240 245 251
f 240 251 252
f 240 243 242
f 240 241 285
f 241 286 287
f 241 287 288
f 241 288 289
f 241 289 290
f 241 290 291
f 241 291 292
f 241 292 285
f 245 285 246
f 246 285 293
f 246 293 294
f 246 294 295
f 246 295 247
f 247 295 292
f 247 292 296
f 247 296 248
f 248 296 297
f 253 298 299
f 253 299 260
f 255 263 256
f 255 261 300
f 255 300 265
f 255 265 263
f 260 299 261
f 261 299 301
f 261 301 302
f 261 302 268
f 261 268 300
f 262 268 303
f 263 265 264
f 265 300 266
f 266 300 267
f 267 300 268
f 268 302 304
f 268 304 305
f 268 305 306
f 268 306 307
f 268 307 308
f 268 308 303
f 269 309 271
f 269 310 311
f 269 311 312
f 269 312 313
f 269 313 309
f 271 309 272
f 272 314 273
f 272 309 314
f 273 280 274
f 273 314 281
f 273 281 280
f 281 283 282
f 281 314 315
f 281 315 313
f 281 313 312
f 281 312 283
f 283 312 284
f 284 312 316
f 284 316 317
f 284 317 318
f 284 318 286
f 285 292 294
f 285 294 293
f 286 319 320
f 286 320 287
f 286 318 321
f 286 321 322
f 286 322 319
f 287 320 288
f 288 320 289
f 289 320 319
f 289 319 323
f 289 323 324
f 289 324 290
f 290 325 291
f 290 324 323
f 290 323 326
f 290 326 327
f 290 327 325
f 291 325 328
f 291 328 329
f 291 329 330
f 291 330 296
f 291 296 292
f 292 295 294
f 296 330 297
f 298 331 299
f 299 331 352
f 299 352 332
f 299 332 302
f 299 302 301
f 302 332 333
f 302 333 304
f 304 334 335
f 304 335 305
f 304 333 336
f 304 336 337
f 304 337 338
f 304 338 334
f 305 335 334
f 305 334 339
f 305 339 340
f 305 340 306
f 309 313 314
f 310 341 311
f 311 342 343
f 311 343 344
f 311 344 345
f 311 345 317
f 311 317 316
f 311 316 312
f 311 341 346
f 311 346 342
f 313 315 314
f 317 345 347
f 317 347 321
f 317 321 318
f 319 322 323
f 321 347 348
f 321 348 349
f 321 349 350
f 321 350 322
f 322 350 351
f 322 351 323
f 325 327 328
f 332 352 333
f 333 352 353
f 333 353 336
f 334 338 354
f 334 354 339
f 336 353 355
f 336 355 356
f 336 356 357
f 336 357 358
f 336 358 359
f 336 359 360
f 336 360 338
f 336 338 337
f 338 361 354
f 338 360 362
f 338 362 361
f 339 354 363
f 342 364 365
f 342 365 343
f 343 365 366
f 343 366 367
f 343 367 344
f 344 367 345
f 345 367 368
f 345 368 369
f 345 369 347
f 347 369 370
f 347 370 371
f 347 371 348
f 348 371 372
f 348 372 373
f 348 373 350
f 348 350 349
f 350 373 351
f 352 355 374
f 352 374 353
f 353 374 355
f 354 361 375
f 354 375 376
f 354 376 377
f 354 377 378
f 354 378 379
f 354 379 363
f 356 380 357
f 357 380 360
f 357 360 358
f 358 360 359
f 364 381 365
f 365 381 382
f 365 382 366
f 366 382 383
f 366 383 384
f 366 384 367
f 367 384 385
f 367 385 386
f 367 386 368
f 368 386 369
f 369 386 387
f 369 387 388
f 369 388 389
f 369 389 390
f 369 390 391
f 369 391 392
f 369 392 370
f 370 392 393
f 370 393 371
f 371 394 372
f 371 393 395
f 371 395 394
f 372 394 396
f 372 396 397
f 372 397 398
f 372 398 399
f 372 399 400
f 372 400 373
f 375 401 376
f 376 401 402
f 376 402 403
f 376 403 377
f 377 404 405
f 377 405 379
f 377 379 378
f 377 403 402
f 377 402 406
f 377 406 407
f 377 407 408
f 377 408 404
f 381 409 382
f 382 409 383
f 384 410 411
f 384 411 385
f 385 411 420
f 385 420 412
f 385 412 392
f 385 392 391
f 385 391 390
f 385 390 389
f 385 389 388
f 385 388 387
f 385 387 386
f 393 413 396
f 393 396 395
f 394 395 396
f 396 413 397
f 398 400 399
f 401 414 406
f 401 406 402
f 404 415 416
f 404 416 417
f 404 408 415
f 406 414 407
f 407 414 408
f 408 414 415
f 410 418 411
f 411 418 419
f 411 419 420
f 412 420 419
f 412 419 421
f 412 421 422
f 412 422 423
f 412 423 424
f 412 424 425
f 412 425 426
f 412 426 427
f 412 427 428
f 412 428 429
f 414 430 415
f 415 431 432
f 415 432 433
f 415 433 416
f 415 430 431
f 416 433 417
f 417 433 435
f 417 435 425
f 417 425 434
f 424 436 425
f 425 435 426
f 425 436 437
f 425 437 438
f 425 438 439
f 425 439 440
f 425 440 441
f 425 441 442
f 425 442 443
f 425 443 444
f 425 444 434
f 426 435 427
f 427 435 428
f 428 435 445
f 428 445 429
f 429 445 447
f 429 447 446
f 430 448 432
f 430 432 431
f 432 449 450
f 432 450 451
f 432 451 435
f 432 435 433
f 432 448 452
f 432 452 449
f 435 451 453
f 435 453 445
f 445 453 447
f 446 447 454
f 446 454 455
f 447 453 454
f 449 456 450
f 450 456 451
f 451 456 453
f 453 456 457
f 453 457 454
f 454 458 455
f 454 457 458

