# https://github.com/mikedh/trimesh
v -0.07483535 -0.00861257 0.02946298
v -0.07156964 -0.01003578 0.06502761
v -0.07588002 -0.00350971 0.06162318
v -0.07076995 -0.00026418 0.03302257
v -0.05704769 -0.02437667 0.01934006
v -0.06739038 -0.00588784 0.07649266
v -0.06444357 0.00141946 0.06598065
v -0.07027807 -0.00791012 0.00686636
v -0.06040925 -0.02214662 0.05104829
v -0.06349874 -0.00119538 0.00682014
v -0.06565038 -0.00571873 0.03684128
v -0.06634247 -0.00427270 0.06575572
v -0.05820982 -0.00017191 0.03086057
v -0.05427670 -0.01478317 -0.00015221
v -0.05728202 -0.01789343 0.05827737
v -0.06339340 -0.03917663 -0.06701907
v -0.05939318 -0.02569377 -0.07982046
v -0.05859641 -0.01348367 0.01179197
v -0.05848764 -0.01836171 0.02663441
v -0.05427331 -0.00429169 -0.00406794
v -0.05211992 -0.00507698 0.08852490
v -0.06079997 -0.03784527 -0.07844969
v -0.05731030 -0.01318007 -0.05959824
v -0.05463911 -0.00512870 0.05770026
v -0.05772140 -0.04733028 -0.06110033
v -0.05024016 -0.05008933 -0.07516588
v -0.05135969 0.00654084 -0.06450001
v -0.05151051 -0.01343904 0.07698695
v -0.05850496 -0.03359401 -0.07383363
v -0.05015094 -0.01703873 -0.04796290
v -0.05110434 -0.00968275 0.03491365
v -0.05202423 0.00265326 0.04748975
v -0.05510999 -0.03627916 0.05235463
v -0.04889128 -0.02967778 0.07426376
v -0.05224714 -0.03879436 0.03531618
v -0.05337492 -0.04374123 -0.06778201
v -0.05035160 -0.03489868 -0.05822948
v -0.04645424 -0.01463096 0.09199935
v -0.04216948 -0.00647888 -0.08614052
v -0.04903996 -0.00780927 0.00995021
v -0.05311911 -0.03049321 -0.08169703
v -0.04699630 -0.03456976 -0.09354285
v -0.05093220 -0.00466554 -0.06638938
v -0.04999933 -0.00716362 -0.05393550
v -0.05217527 -0.00661702 0.07421952
v -0.05312368 0.01222472 0.06391133
v -0.04849278 -0.05565670 -0.05879153
v -0.04335085 -0.04731773 -0.05316532
v -0.04442199 -0.04234351 -0.08026175
v -0.04328890 0.01339322 0.09332618
v -0.04675160 -0.03736536 0.05944780
v -0.04512158 -0.00901687 -0.07950626
v -0.04423113 -0.00597273 0.02072542
v -0.04628292 0.01854884 -0.02924300
v -0.04192886 0.02327999 0.03305410
v -0.04641095 -0.04167946 0.03892082
v -0.04297079 -0.03545361 0.01892824
v -0.04752157 -0.03019503 0.04821477
v -0.04291316 -0.02779366 0.02472600
v -0.04653170 -0.02285360 0.06826888
v -0.04459290 -0.02082921 0.00814401
v -0.04896085 -0.00621322 0.05484439
v -0.04387311 -0.00364181 0.10768407
v -0.04156145 0.02691659 -0.07406718
v -0.04327144 0.00916923 0.02180291
v -0.04486115 0.03221890 -0.04222855
v -0.04945382 0.00044941 0.07795062
v -0.04928138 0.01031659 0.06060252
v -0.04413417 -0.00245239 -0.03093511
v -0.04649635 0.00047857 -0.00110451
v -0.04164861 0.03011776 0.05787432
v -0.04532883 -0.05044849 -0.05938797
v -0.03677669 -0.03881032 0.08576968
v -0.03936613 -0.02316525 0.03814486
v -0.03955543 -0.02344327 -0.09132240
v -0.04008091 -0.00518927 0.10025758
v -0.04163602 0.00474329 -0.01336382
v -0.03480571 -0.05916248 -0.06623190
v -0.03667332 -0.05175167 -0.06870135
v -0.02690940 -0.04318557 0.07153270
v -0.03717244 -0.03203729 0.04446299
v -0.03761012 -0.02490531 0.08782067
v -0.04268047 -0.01851777 0.04944944
v -0.04084324 -0.01874467 -0.00578100
v -0.04283847 -0.00890824 -0.04129659
v -0.04249905 -0.00490581 0.03139933
v -0.04053280 -0.00368022 0.00924123
v -0.04066494 0.03274133 -0.05169328
v -0.04130329 0.00959541 0.02884013
v -0.03907398 0.02082591 0.08079437
v -0.02622804 0.02669276 -0.08952551
v -0.03460477 -0.03077679 -0.05093451
v -0.03973017 -0.03024990 0.02289652
v -0.03552940 -0.02665495 -0.04374551
v -0.03447719 -0.03509302 0.07661581
v -0.03902436 -0.02117833 0.01761702
v -0.03691234 -0.01430761 -0.03472476
v -0.03692862 -0.01873322 0.04276761
v -0.03623486 -0.01200051 -0.01465102
v -0.03795241 -0.00996220 -0.00731983
v -0.03881668 -0.00295703 -0.02565315
v -0.03052327 0.03343023 -0.07836287
v -0.04075592 0.02417587 0.05167140
v -0.03084104 0.03166989 0.08747235
v -0.03643688 0.04590872 -0.06551670
v -0.03501870 -0.02275623 0.05309276
v -0.03349545 -0.02328509 0.09949248
v -0.03902299 -0.01545587 0.00683056
v -0.03943690 0.01516527 -0.02004788
v -0.03518190 0.02232176 -0.00616636
v -0.03376253 0.04239630 -0.02601840
v -0.03204351 -0.04476627 -0.08947633
v -0.03258172 -0.04891906 -0.06146204
v -0.02880038 -0.04396513 -0.05431317
v -0.03718187 -0.00964864 0.01252624
v -0.03490152 -0.02171189 0.02600761
v -0.02820829 0.00643847 0.10887983
v -0.02480904 0.05683726 -0.04797345
v -0.03064800 -0.03589018 0.01243766
v -0.03584980 -0.02575408 0.00233326
v -0.03565594 -0.02679770 0.01306406
v -0.03718745 -0.02800118 0.01688461
v -0.03807755 -0.01904114 0.01100658
v -0.03500522 -0.00573749 0.00103364
v -0.01810831 -0.01909053 0.10643365
v -0.03323912 0.00917255 0.00992795
v -0.02924793 0.02656675 -0.00828351
v -0.02781645 0.03882250 0.03968457
v -0.03121783 -0.05496899 -0.05794552
v -0.02895070 -0.03583929 -0.09543141
v -0.02817691 -0.03813282 -0.08626883
v -0.01851130 -0.03991545 0.05022571
v -0.03524223 -0.02608929 0.02196073
v -0.03177230 -0.02133513 -0.09738221
v -0.03484736 -0.01689539 0.00681313
v -0.02828404 -0.00022632 -0.08474909
v -0.03074652 0.02761873 0.03234952
v -0.02820047 -0.05138586 -0.07852818
v -0.03065695 -0.01410516 -0.03910002
v -0.03363646 -0.02118485 0.01481704
v -0.03036987 -0.01497263 -0.00199615
v -0.03143380 0.00159299 0.00636557
v -0.02985590 0.01710466 0.10979225
v -0.02066306 0.03623370 0.06697084
v -0.02644282 0.02711386 0.01788847
v -0.03220961 -0.03105747 0.01944036
v -0.02114906 -0.03859108 0.06203310
v -0.02212423 -0.02449916 -0.02983567
v -0.02374054 -0.03259977 0.03849920
v -0.02376920 -0.01916672 -0.02506568
v -0.02907565 -0.01201186 -0.00314935
v -0.01116652 -0.00688545 0.10440870
v -0.02739878 -0.00267096 -0.09130578
v -0.02667815 0.01110748 0.10345322
v -0.02648155 0.04589642 -0.08323530
v -0.02969329 0.04709680 -0.04151705
v -0.02057032 0.05839290 -0.06986454
v -0.01996803 -0.02605315 -0.00514165
v -0.01590702 -0.02928981 0.09744936
v -0.02426032 -0.02339548 0.04767849
v -0.02073129 0.02313495 -0.08758297
v -0.02034399 0.05152338 -0.07323007
v -0.02338862 -0.03789665 -0.07284154
v -0.02223944 -0.03836592 0.08829159
v -0.02628013 -0.03565391 0.01805268
v -0.01906432 -0.01893308 -0.04454548
v -0.02382628 -0.02208698 -0.08778362
v -0.02300043 0.02834240 0.00830487
v -0.00794671 0.05658894 -0.02929750
v -0.02323015 -0.05102890 -0.06361274
v -0.02252416 -0.04430170 0.02777706
v -0.02481194 -0.02310503 -0.05299216
v -0.01991693 -0.02809054 -0.05751777
v -0.02061829 -0.03318328 0.00298331
v -0.01115900 0.04460598 0.06205495
v -0.01573232 -0.04232820 0.09503990
v -0.01761858 -0.01088168 -0.05185123
v -0.02307514 0.02297344 0.01449188
v -0.01921397 0.02916580 0.10231689
v -0.01580053 0.03621666 0.03540675
v -0.02173261 0.03731645 -0.01249055
v -0.02398611 -0.05191727 -0.07210119
v -0.02278686 -0.05251998 -0.07658074
v -0.02408822 -0.04580890 -0.07368359
v -0.02323017 -0.04615010 -0.08331209
v -0.01164527 0.01331049 -0.09288692
v 0.00471654 0.02214342 0.10506066
v -0.00828081 0.05468908 -0.03442203
v -0.02108605 -0.05041687 -0.09122312
v -0.02331467 -0.05012251 -0.06836496
v -0.02238810 -0.05008397 -0.06610403
v -0.02318732 -0.04744097 -0.06523503
v -0.02213687 -0.04103934 -0.07304438
v -0.01399670 -0.04777171 0.01277136
v -0.01821778 -0.03846284 -0.00151187
v -0.01791745 -0.01664003 -0.06857668
v -0.01960520 -0.01860450 -0.08898193
v -0.01358042 0.00960567 -0.08720366
v -0.01544485 0.03647996 0.00286394
v -0.01106506 0.06310632 -0.06188770
v -0.02076536 -0.05399696 -0.06880172
v -0.02222398 -0.05002169 -0.07041059
v -0.02008328 -0.04660265 -0.06546538
v -0.02153177 -0.04266172 -0.06326520
v -0.00108168 -0.04408676 0.07321159
v -0.01449304 -0.02244187 -0.00843218
v -0.01745788 -0.00099944 -0.08088913
v -0.01765959 0.02508900 0.09773536
v -0.00876454 0.03735961 0.08769494
v -0.01615897 0.03765311 0.02571252
v -0.01536501 0.05352646 -0.08421215
v -0.01426104 -0.06845179 -0.06592579
v -0.01217123 -0.06585362 -0.08253628
v -0.01659824 -0.05927644 -0.06142708
v -0.00526517 -0.04678613 0.07172735
v -0.01571057 -0.03536545 -0.09194005
v -0.01721494 -0.04068477 -0.05872217
v 0.00141294 -0.05507903 0.03456471
v -0.01355212 -0.02119126 -0.04158868
v -0.01097454 0.03148348 0.01087691
v -0.01250986 0.06741395 -0.06135474
v -0.01841663 -0.00053873 -0.08661099
v -0.00706421 0.05332126 -0.08525075
v -0.01087948 0.08234157 -0.07954428
v -0.00925631 -0.04568178 -0.04944549
v -0.01792538 -0.05214952 -0.07583172
v -0.01317058 -0.03030073 -0.06502605
v -0.00165459 -0.04910995 0.03444995
v -0.01241433 -0.02376284 -0.05301457
v -0.01101507 -0.02086210 -0.07743304
v -0.00289416 -0.03205844 -0.02614044
v -0.00463355 -0.02553739 -0.01917783
v -0.01368948 -0.00532727 -0.06878996
v -0.01348847 -0.00970417 -0.07839402
v -0.00161813 0.01590721 0.10221536
v -0.00108234 0.03791310 -0.00427515
v -0.01012245 0.07323721 -0.09057213
v -0.00988642 -0.06675480 -0.05756673
v -0.00790045 -0.06087695 -0.09588426
v -0.01229119 -0.04727029 -0.09722930
v -0.01032751 -0.05475322 -0.09159694
v 0.00214071 -0.04750050 0.00830648
v -0.01494470 -0.04101889 -0.08884166
v -0.00963993 -0.03027946 -0.04392765
v -0.00344705 -0.03002103 -0.00431283
v -0.01194997 -0.01954892 -0.06979538
v -0.01416878 -0.01445418 -0.05982039
v 0.00294591 -0.00474937 0.11094020
v -0.00016374 0.00143112 -0.08775609
v -0.00360052 0.05222147 -0.09192071
v -0.00348769 0.04382191 0.04400091
v -0.01098160 -0.06320930 -0.07004497
v -0.01138380 -0.04034474 -0.05509993
v -0.00439540 -0.04633519 0.01627587
v -0.01092092 -0.02667319 -0.07804264
v -0.00527526 -0.02330298 -0.08454295
v -0.01257527 -0.01727850 -0.07078757
v 0.00008444 -0.02589217 0.10459820
v -0.00009701 0.03089638 0.09106865
v -0.00213792 0.03586855 0.01655409
v -0.00257630 0.04203209 0.06068828
v -0.00605292 -0.05109239 -0.05384945
v 0.00569409 -0.03778080 0.09466044
v 0.00363924 -0.03172059 -0.00032728
v -0.00866198 -0.01612999 -0.05340576
v -0.01047266 -0.01507526 -0.06865462
v -0.01152955 -0.01064214 -0.06963411
v -0.00203084 -0.00325495 -0.07304683
v -0.00372555 0.08364317 -0.07985437
v -0.00360050 -0.04071586 -0.09219602
v -0.00139407 -0.03446887 -0.09533978
v -0.00267321 -0.04390939 0.05131761
v -0.00592074 -0.01246088 -0.06153896
v -0.00321372 0.08725794 -0.07283961
v -0.00187305 -0.07552776 -0.06698892
v -0.00646447 -0.01354662 -0.06976921
v 0.00338876 -0.01021346 -0.07192418
v -0.00167088 -0.00843075 -0.06117290
v 0.00225596 0.03322466 0.02189548
v 0.00570818 0.05125662 -0.08661420
v 0.00085919 0.07007687 -0.05625065
v 0.00656850 -0.06507802 -0.05853098
v 0.00070036 -0.06691683 -0.06712802
v 0.00859149 -0.04133616 -0.03518355
v 0.01255775 -0.02578690 0.09618372
v -0.00669039 -0.02556808 -0.04451078
v 0.00622775 0.03715631 0.00437992
v 0.00190259 0.07114736 -0.06626504
v 0.00259241 0.09801326 -0.09020545
v 0.01142409 -0.06067002 0.04747844
v 0.00656152 -0.04443477 -0.09551860
v 0.01002850 -0.04561653 0.07061595
v 0.00066084 -0.03029882 -0.03577424
v 0.00602991 -0.02949456 -0.08862881
v 0.00192355 -0.02288680 -0.07973335
v -0.00063745 -0.01515094 -0.06358153
v 0.00503205 0.06996635 -0.08427583
v 0.00422937 0.07985110 -0.09227803
v 0.00535639 -0.07127673 -0.07731361
v 0.00293071 -0.06490743 -0.07962533
v 0.00608207 -0.05222791 -0.08875021
v 0.00905802 -0.04693891 -0.04757624
v 0.01027357 0.03920877 0.04564787
v 0.00832103 0.03943142 0.08511626
v 0.00869279 -0.01998316 -0.01066552
v 0.01761242 0.04932075 -0.02733575
v 0.01224758 -0.04987865 0.02586168
v 0.01014061 0.00755084 -0.08861877
v 0.01225340 0.02316127 -0.09008479
v 0.00413684 0.07749434 -0.06671767
v 0.01326780 0.09846110 -0.07185627
v 0.01176351 0.09763991 -0.09416524
v 0.00840913 -0.06273538 -0.08764071
v 0.00844750 -0.04921696 0.05432483
v 0.01799296 0.03411721 -0.09337151
v 0.00903101 0.04794717 -0.02640298
v 0.01648119 0.04195723 0.05879007
v 0.01579856 0.09384183 -0.07802563
v 0.01272572 -0.02433775 -0.07634475
v 0.02059881 -0.02424258 -0.00823378
v 0.01020537 -0.02725654 -0.08397693
v 0.01883337 -0.01640966 -0.00370561
v 0.00350146 -0.01885466 -0.08114330
v 0.01238453 -0.01186120 -0.06513415
v 0.01657924 -0.00373068 0.10371126
v 0.01919848 0.03479710 0.02847939
v 0.01202983 0.11023862 -0.07744232
v 0.01165121 -0.05643933 -0.07403219
v 0.01428991 -0.02325863 -0.02214789
v 0.00802601 -0.02143209 -0.09165088
v 0.01116107 -0.00587271 -0.08932733
v 0.01296182 -0.00344739 -0.07856078
v 0.01773500 0.03353302 0.07619733
v 0.00988385 0.06272150 -0.08430987
v 0.01967934 0.06219936 -0.05527469
v 0.01121742 -0.00488978 -0.06296751
v 0.01801405 0.05762617 -0.05314349
v 0.01016409 0.07326942 -0.07548861
v 0.01297245 -0.05380512 0.04421935
v 0.01613282 -0.04471976 0.05361223
v 0.03103208 -0.02806063 0.08187056
v 0.01371728 -0.03386145 -0.00641821
v 0.02042282 -0.02112311 0.10096881
v 0.01992209 0.01985974 0.09293326
v 0.01153957 0.06499722 -0.07045917
v 0.01480501 -0.06073282 -0.07284147
v 0.01649515 -0.05920237 0.03423609
v 0.01969257 -0.04292924 0.01286807
v 0.02395307 -0.03114352 0.07662282
v 0.01220800 -0.03141260 -0.09167903
v 0.01976652 0.00178438 -0.09558312
v 0.01785683 0.00036482 -0.06478426
v 0.02374248 0.02283659 0.09429398
v 0.01776235 0.02819766 0.01627618
v 0.02301451 0.03000634 0.00715159
v 0.02795725 0.03194245 0.07406986
v 0.02890552 0.04532729 -0.08759153
v 0.01576766 0.06591635 -0.07047583
v 0.02099399 -0.03294273 -0.07080422
v 0.01567789 -0.04006259 -0.08750705
v 0.01474972 -0.03100186 -0.08757328
v 0.01963268 -0.02939658 -0.09589675
v 0.01518859 0.07804319 -0.08732885
v 0.01623875 0.08274097 -0.07283984
v 0.01857445 -0.04923007 -0.07941307
v 0.02885146 -0.03094979 -0.03204644
v 0.02462724 -0.03710373 -0.00074195
v 0.01504420 -0.03581376 -0.08857972
v 0.01430840 -0.03373358 -0.08781945
v 0.02580444 0.03875089 -0.03437444
v 0.02473373 0.04449461 -0.08331301
v 0.02774077 -0.05132700 0.05166261
v 0.01910366 -0.05109468 0.01267467
v 0.02240280 -0.05120481 0.04287956
v 0.02622096 -0.03355194 -0.05672041
v 0.01558005 -0.03387025 -0.09002567
v 0.01600656 -0.03439032 -0.08606795
v 0.02145359 -0.02744637 -0.07842468
v 0.01367892 -0.01831754 -0.08426998
v 0.01875393 -0.00686202 -0.09069390
v 0.02142433 -0.00254978 -0.05767869
v 0.02802888 0.01873478 0.00078692
v 0.01550964 0.07216577 -0.07707704
v 0.02001923 0.11636348 -0.08278612
v 0.02042207 -0.03581429 -0.08843726
v 0.02029668 -0.03369279 -0.08481553
v 0.02899000 -0.02396008 0.00331175
v 0.02534851 -0.03381053 -0.07317686
v 0.02323070 -0.02819682 -0.09311845
v 0.02095516 -0.02785306 -0.08364780
v 0.02752368 -0.01228191 -0.06927608
v 0.02309734 -0.00051974 0.11034864
v 0.03727688 0.01915946 0.06464253
v 0.03268498 0.04554307 -0.07096442
v 0.03232895 -0.03582050 0.05744592
v 0.01799032 -0.03519294 -0.08674009
v 0.02130710 -0.03520078 -0.08388778
v 0.03356891 0.00352030 0.09395074
v 0.03098149 0.01779856 0.02933543
v 0.02262301 0.09668701 -0.09455879
v 0.02344522 -0.06115537 0.04153137
v 0.03292235 -0.04363026 0.02924622
v 0.02530246 -0.00813125 -0.01056154
v 0.02542815 0.08734583 -0.08239619
v 0.02892480 -0.03879921 -0.05999317
v 0.03299989 -0.02583011 0.02028308
v 0.02722764 -0.02325490 -0.02823918
v 0.03045466 -0.01031795 0.09468719
v 0.02626419 0.00874160 -0.05079218
v 0.03279678 0.01003724 -0.08973553
v 0.02438285 0.11029983 -0.09034444
v 0.02848215 0.11535338 -0.07489374
v 0.03392379 -0.02318696 0.06383255
v 0.03423651 -0.00510711 -0.00236751
v 0.02962602 0.00892059 0.10574543
v 0.03043891 0.02148781 -0.02050410
v 0.02812127 0.03612675 -0.02778238
v 0.03420874 0.04537891 -0.05504853
v 0.03836535 -0.03265719 0.04053174
v 0.03502663 -0.03511338 -0.08153782
v 0.03613197 -0.01457735 -0.09214378
v 0.03195778 -0.00850877 -0.05091648
v 0.02946563 0.01235917 -0.05588683
v 0.03325954 0.01974362 0.02893050
v 0.03683290 0.02611418 0.05120858
v 0.03781945 0.04939110 -0.06819752
v 0.03079682 0.09577745 -0.08850248
v 0.03187391 0.10222664 -0.07748588
v 0.03801401 -0.04351353 0.05068400
v 0.03757190 -0.02186518 -0.07489127
v 0.02973317 -0.00382082 -0.05635292
v 0.03378024 -0.01270879 -0.02950987
v 0.03213791 -0.00311728 0.10347460
v 0.03135585 0.00048585 -0.00386528
v 0.03688865 0.00867870 -0.09281606
v 0.03202235 0.10991631 -0.08538596
v 0.03296575 -0.02762207 -0.07260659
v 0.03730716 -0.02501451 -0.09607929
v 0.03474334 -0.01235313 -0.05358973
v 0.02917218 0.00829363 -0.05495038
v 0.02900695 0.00852399 -0.05454684
v 0.02894793 0.00973006 -0.05428650
v 0.03399124 0.00534069 -0.03250142
v 0.03144303 0.02059879 -0.04557793
v 0.03290104 -0.02857100 -0.00275001
v 0.03841515 -0.02637077 -0.08558462
v 0.03565057 -0.00851577 0.01926434
v 0.02944175 0.00798251 -0.05470913
v 0.02920430 0.00972565 -0.05425703
v 0.04048815 0.01195915 0.08052971
v 0.03394133 0.01665777 -0.00134229
v 0.03908520 0.00200165 0.03894594
v 0.03792138 0.00225825 -0.06218214
v 0.03960976 0.01774398 -0.07960491
v 0.03850647 0.02593764 -0.05329897
v 0.03401055 -0.03669668 -0.09039664
v 0.03755289 -0.01619405 0.01152097
v 0.04040492 -0.00111208 -0.05961028
v 0.03468514 0.02532751 -0.04174481
v 0.03924693 0.00347342 -0.02189633
v 0.03532336 0.01842337 -0.03405316
v 0.04310488 0.02634619 -0.05105410
v 0.03981413 0.04665831 -0.05246633
v 0.04348920 -0.02968993 -0.09056077
v 0.03882063 -0.01481724 -0.03737936
v 0.04134104 0.00560236 0.03502251
v 0.03744726 0.00939628 0.09272358
v 0.04449880 0.00357165 -0.08559497
v 0.03951778 0.03762638 -0.08121521
v 0.04167644 -0.00568608 0.06451618
v 0.03823788 -0.00128960 0.09554550
v 0.04348695 -0.00015325 0.08058289
v 0.03945674 0.01648619 0.07935876
v 0.05102054 0.01403322 0.09205374
v 0.04113193 0.02265979 -0.06559883
v 0.04659069 -0.02040974 0.04127178
v 0.04389432 -0.02527283 -0.07510397
v 0.04113062 -0.00358257 -0.07403927
v 0.04383253 -0.00840962 0.08337421
v 0.05016560 0.00723628 0.09910647
v 0.04486095 -0.01744848 0.06159194
v 0.04727900 -0.00970967 -0.07724169
v 0.04405676 -0.01321380 0.04404398
v 0.04241577 -0.00416563 0.08556612
v 0.05150590 -0.00300163 0.09635382
v 0.05359007 0.00008011 0.09118748
v 0.06345773 0.01201799 0.08046828
v 0.04557452 0.03371713 -0.06512476
v 0.06199347 -0.01232518 0.08348247
v 0.04333463 -0.00441099 0.08536148
v 0.04348247 0.00681838 0.06589937
v 0.04632710 -0.01673219 -0.09312693
v 0.04585139 -0.00331607 0.07116442
v 0.04575482 -0.00434500 0.08566280
v 0.04478663 -0.00416118 0.08532214
v 0.04483404 -0.00410861 0.08572520
v 0.05248963 0.00827350 0.06399330
v 0.04574080 0.01124434 0.06142018
v 0.04766611 0.01265317 0.05917836
v 0.04602792 0.01615352 0.06463340
v 0.04836918 0.00739693 0.05809457
v 0.04962682 0.01610550 0.06375513
v 0.05965791 0.02169308 0.07082226
v 0.05606356 -0.00620825 0.06882537
v 0.04689468 0.00365088 0.05584458
v 0.05199561 0.00269644 0.05643138
v 0.06173452 0.01618285 0.06420676
v 0.07007612 -0.00679602 0.06766836
v 0.06371029 0.00616833 0.04822442
v 0.06975965 -0.00491903 0.05156234
v 0.06664269 0.01593854 0.05193022
v 0.07573667 0.01147200 0.08192740
v 0.08435738 -0.00083163 0.07756686
v 0.07224081 0.00184780 0.05215509
v 0.07302079 0.02037681 0.07404115
v 0.08128745 0.00180024 0.07486918
v 0.09077379 -0.01253951 0.06190661
v 0.08657544 0.00439375 0.04315204
v 0.08456769 0.01647017 0.06689741
v 0.08917891 0.01872641 0.05174333
v 0.10017402 -0.00976962 0.06775479
v 0.09926942 0.00037504 0.04841856
v 0.09802051 -0.00698477 0.04775584
v 0.10144076 0.01194087 0.05343944
v 0.10186932 -0.00337106 0.06180882
v 0.10586185 0.01168298 0.06093642
v 0.09960125 0.02119796 0.05866626
v 0.10627621 0.00611283 0.04295314
v 0.10791216 0.01565557 0.05111783
v 0.10812196 -0.00356118 0.04306704
v 0.10818141 0.01644160 0.06452211
v 0.11510266 -0.00534664 0.05551889
v 0.11538624 0.00520972 0.06466685
v 0.11539660 0.01224467 0.05754699
v 0.11311196 0.00297646 0.05348190
v 0.11598642 0.00444840 0.04952313
f 469 468 435
f 351 331 249
f 400 298 312
f 465 405 439
f 512 474 480
f 160 272 149
f 158 148 231
f 311 274 310
f 273 247 277
f 311 310 364
f 480 474 467
f 45 24 62
f 313 239 291
f 299 213 239
f 477 482 458
f 507 514 524
f 106 83 60
f 410 309 380
f 431 437 477
f 81 132 80
f 364 383 404
f 268 207 233
f 503 473 474
f 55 65 32
f 287 169 199
f 366 282 346
f 526 525 516
f 17 42 22
f 413 340 349
f 507 497 514
f 528 530 518
f 155 91 64
f 38 6 2
f 1 8 5
f 408 349 285
f 472 470 408
f 252 241 226
f 383 358 334
f 279 236 354
f 366 320 284
f 397 386 388
f 103 89 137
f 119 195 194
f 187 143 117
f 365 405 346
f 110 77 126
f 212 213 275
f 439 388 431
f 326 355 260
f 353 187 415
f 185 183 184
f 421 380 389
f 194 195 242
f 236 181 188
f 482 477 464
f 59 61 19
f 151 150 101
f 270 241 301
f 394 371 454
f 109 101 44
f 24 11 31
f 257 246 234
f 219 286 265
f 154 90 208
f 427 400 411
f 106 160 98
f 266 257 230
f 116 149 165
f 346 313 365
f 368 376 385
f 524 522 535
f 448 440 441
f 216 185 130
f 521 517 532
f 196 167 163
f 119 57 120
f 203 170 192
f 122 93 146
f 299 239 313
f 19 58 59
f 103 90 68
f 66 27 23
f 475 478 453
f 125 63 107
f 503 511 502
f 128 145 55
f 186 153 91
f 249 222 186
f 234 246 230
f 370 337 418
f 205 147 95
f 193 203 217
f 51 56 81
f 453 478 430
f 17 22 16
f 433 392 343
f 419 374 413
f 190 182 184
f 460 465 439
f 536 532 530
f 54 23 30
f 491 501 506
f 447 406 419
f 125 117 63
f 202 182 201
f 126 115 53
f 247 246 257
f 306 355 417
f 235 325 152
f 229 273 246
f 403 329 305
f 167 131 163
f 175 251 128
f 409 352 381
f 204 192 193
f 13 87 70
f 483 447 419
f 460 366 465
f 518 509 511
f 213 299 275
f 418 394 475
f 256 216 230
f 449 441 442
f 5 14 57
f 191 190 201
f 159 285 205
f 482 464 492
f 162 102 223
f 161 52 136
f 398 325 235
f 13 53 87
f 62 31 83
f 369 291 350
f 366 284 282
f 245 242 195
f 499 466 424
f 196 163 172
f 403 407 329
f 74 96 133
f 231 244 225
f 454 421 478
f 203 202 191
f 53 115 108
f 116 165 133
f 171 119 194
f 210 168 145
f 232 150 206
f 86 142 89
f 382 316 370
f 177 172 139
f 191 170 190
f 235 152 154
f 317 251 175
f 443 422 432
f 466 457 414
f 407 432 375
f 429 372 401
f 94 48 114
f 165 146 93
f 2 9 34
f 496 484 495
f 286 293 253
f 509 501 499
f 323 294 256
f 489 479 493
f 284 238 282
f 247 173 246
f 250 91 211
f 528 518 520
f 435 351 315
f 372 314 290
f 386 396 360
f 109 44 88
f 518 523 510
f 335 426 358
f 118 157 105
f 27 17 23
f 444 409 443
f 334 250 298
f 253 226 227
f 67 45 62
f 320 342 245
f 457 402 445
f 78 26 138
f 369 350 376
f 526 516 519
f 193 202 203
f 517 510 523
f 461 431 459
f 323 330 321
f 513 485 489
f 44 29 43
f 267 230 257
f 534 529 527
f 86 98 116
f 371 410 454
f 159 164 82
f 107 34 73
f 380 379 389
f 463 426 335
f 502 501 491
f 152 76 154
f 390 389 379
f 172 163 113
f 369 368 291
f 134 130 42
f 150 293 219
f 220 127 181
f 449 448 441
f 130 112 42
f 158 195 119
f 267 257 234
f 34 51 81
f 261 144 180
f 290 132 218
f 266 230 246
f 245 231 320
f 209 104 179
f 436 427 411
f 76 159 82
f 242 218 194
f 215 80 132
f 361 350 294
f 234 230 197
f 87 124 70
f 524 514 522
f 192 170 191
f 415 187 392
f 305 232 206
f 422 359 375
f 417 451 461
f 355 306 287
f 282 275 299
f 96 121 133
f 127 109 88
f 176 215 292
f 425 326 317
f 271 216 256
f 179 104 143
f 416 434 382
f 293 286 219
f 63 21 38
f 177 265 278
f 323 321 294
f 482 468 488
f 329 302 293
f 181 127 156
f 385 376 362
f 501 498 505
f 285 159 152
f 368 369 377
f 311 364 428
f 185 112 130
f 11 19 18
f 298 250 237
f 259 344 235
f 279 180 220
f 129 47 78
f 398 472 408
f 520 511 503
f 206 151 174
f 444 455 423
f 50 46 21
f 303 354 399
f 315 186 250
f 168 110 126
f 376 368 377
f 466 476 457
f 372 290 401
f 277 256 230
f 79 49 36
f 327 274 311
f 192 190 184
f 247 166 173
f 310 274 281
f 23 17 16
f 321 377 369
f 274 327 224
f 380 421 410
f 231 225 284
f 412 428 436
f 381 352 336
f 453 423 455
f 304 175 209
f 413 349 408
f 376 350 362
f 128 55 71
f 328 359 301
f 173 193 217
f 120 84 100
f 447 434 387
f 402 347 373
f 78 47 26
f 506 493 505
f 200 162 269
f 7 6 21
f 434 403 322
f 9 33 34
f 134 42 39
f 471 341 479
f 343 258 263
f 81 57 119
f 475 454 478
f 227 226 243
f 424 466 451
f 290 347 401
f 383 363 404
f 71 46 50
f 12 11 24
f 531 515 512
f 222 153 186
f 1 5 9
f 435 438 351
f 268 198 207
f 74 133 59
f 283 300 252
f 224 211 157
f 118 111 169
f 114 129 170
f 105 155 64
f 456 385 362
f 218 171 194
f 244 148 166
f 34 81 80
f 504 510 517
f 180 137 220
f 468 492 435
f 251 210 128
f 403 305 322
f 193 182 202
f 39 42 17
f 77 69 99
f 185 138 112
f 112 26 42
f 388 365 397
f 317 175 304
f 169 111 199
f 439 405 388
f 530 523 518
f 381 336 324
f 281 335 310
f 328 300 283
f 161 136 198
f 533 532 536
f 353 467 473
f 502 500 473
f 345 280 371
f 302 262 293
f 422 375 432
f 478 421 446
f 60 83 58
f 201 212 214
f 430 391 453
f 139 101 150
f 487 450 507
f 500 502 491
f 141 120 100
f 505 491 506
f 81 56 57
f 135 108 121
f 160 106 147
f 245 195 158
f 40 61 96
f 336 278 296
f 426 469 357
f 534 536 529
f 239 189 240
f 206 150 151
f 182 138 183
f 496 495 494
f 13 4 7
f 271 240 216
f 184 182 185
f 351 249 186
f 56 35 57
f 67 76 45
f 355 451 417
f 160 147 272
f 307 348 254
f 350 271 294
f 296 227 255
f 76 82 28
f 488 468 469
f 262 283 252
f 251 326 260
f 132 81 171
f 100 20 70
f 173 204 193
f 280 297 223
f 217 214 225
f 15 19 11
f 164 205 95
f 512 480 513
f 504 506 510
f 53 13 32
f 30 48 94
f 403 432 407
f 131 49 79
f 294 271 256
f 487 398 450
f 394 345 371
f 185 216 189
f 163 131 79
f 59 93 122
f 353 415 467
f 259 144 261
f 214 212 238
f 339 272 340
f 32 13 7
f 234 222 249
f 111 66 54
f 220 137 178
f 245 158 231
f 404 363 427
f 161 198 309
f 48 30 25
f 400 363 298
f 352 268 336
f 293 262 253
f 96 59 122
f 345 288 338
f 344 398 235
f 291 239 240
f 205 272 147
f 391 390 379
f 166 94 173
f 188 288 316
f 363 334 298
f 420 456 464
f 16 26 25
f 1 2 3
f 5 8 14
f 70 20 10
f 74 31 96
f 415 392 433
f 444 423 409
f 395 292 314
f 265 177 219
f 515 527 503
f 315 351 186
f 289 312 237
f 7 3 6
f 165 174 140
f 368 360 291
f 222 197 153
f 320 231 284
f 411 312 384
f 168 126 145
f 165 140 146
f 484 490 495
f 21 6 38
f 401 347 402
f 168 199 111
f 351 362 330
f 223 102 161
f 173 114 204
f 83 74 58
f 394 454 475
f 391 332 352
f 455 475 453
f 63 38 107
f 395 314 372
f 462 482 488
f 240 189 216
f 416 444 443
f 175 128 71
f 477 420 464
f 378 361 386
f 333 303 393
f 339 228 272
f 152 159 76
f 162 223 269
f 177 268 233
f 72 79 36
f 349 340 205
f 419 406 348
f 402 373 367
f 208 235 154
f 531 533 534
f 309 280 161
f 412 327 311
f 466 414 451
f 31 40 96
f 14 84 120
f 450 393 472
f 392 258 343
f 431 458 459
f 331 323 277
f 27 39 17
f 18 61 40
f 407 302 329
f 486 472 398
f 353 304 187
f 203 201 214
f 116 133 146
f 225 214 238
f 346 282 299
f 179 143 187
f 384 289 327
f 123 135 96
f 319 270 301
f 28 12 45
f 317 326 251
f 451 414 460
f 529 520 527
f 364 310 358
f 69 30 97
f 267 234 249
f 306 335 281
f 28 60 15
f 411 400 312
f 300 301 241
f 332 308 198
f 139 172 92
f 104 71 50
f 451 460 461
f 192 184 193
f 508 497 472
f 431 378 437
f 486 398 487
f 144 137 180
f 388 386 321
f 114 170 204
f 392 187 248
f 136 75 167
f 396 377 385
f 78 138 182
f 431 388 378
f 405 365 388
f 471 433 341
f 454 410 421
f 318 288 269
f 7 4 3
f 502 498 501
f 172 113 92
f 274 224 221
f 341 395 481
f 190 170 182
f 347 242 373
f 251 260 210
f 229 173 217
f 356 353 473
f 512 515 474
f 387 264 348
f 306 281 169
f 206 174 264
f 509 499 511
f 447 387 406
f 126 65 55
f 188 200 288
f 351 330 331
f 142 151 101
f 156 127 88
f 370 418 455
f 417 459 462
f 478 446 430
f 356 500 425
f 62 98 86
f 502 499 498
f 374 307 339
f 233 207 196
f 280 309 371
f 228 165 149
f 413 374 340
f 367 342 320
f 302 283 262
f 41 29 49
f 13 10 4
f 114 48 129
f 452 447 483
f 115 87 135
f 209 179 187
f 319 301 359
f 404 427 428
f 86 116 140
f 15 11 12
f 3 4 1
f 90 67 68
f 115 124 87
f 309 198 308
f 120 158 119
f 20 84 14
f 46 55 32
f 191 202 192
f 201 183 212
f 529 528 520
f 485 471 479
f 250 186 91
f 479 481 493
f 66 23 54
f 77 54 69
f 175 71 104
f 85 92 37
f 153 134 39
f 171 81 119
f 234 197 222
f 15 58 19
f 291 240 271
f 303 261 180
f 296 255 295
f 334 357 250
f 188 156 200
f 450 333 393
f 337 288 345
f 500 498 499
f 303 333 261
f 450 472 497
f 258 176 263
f 144 103 137
f 525 508 516
f 327 289 224
f 508 522 514
f 82 95 60
f 346 299 313
f 429 401 402
f 156 88 162
f 354 316 382
f 142 101 109
f 449 442 440
f 99 148 158
f 207 198 136
f 133 121 122
f 270 243 241
f 178 127 220
f 246 173 229
f 381 319 359
f 414 457 445
f 417 462 463
f 501 509 506
f 446 389 390
f 344 259 333
f 65 126 53
f 162 88 102
f 247 266 267
f 434 443 432
f 279 220 236
f 95 147 106
f 264 305 206
f 516 508 486
f 331 330 323
f 350 321 330
f 449 440 448
f 531 512 533
f 140 174 151
f 322 305 264
f 378 388 321
f 229 244 166
f 57 14 120
f 204 203 192
f 312 298 237
f 513 489 521
f 99 97 148
f 25 26 47
f 129 78 170
f 354 303 279
f 436 411 384
f 76 67 90
f 360 313 291
f 480 471 485
f 423 352 409
f 28 15 12
f 197 134 153
f 445 367 320
f 248 125 258
f 335 358 310
f 208 144 259
f 360 365 313
f 97 30 94
f 518 510 509
f 508 514 497
f 288 200 269
f 139 85 101
f 259 261 333
f 10 20 8
f 107 38 34
f 139 92 85
f 248 117 125
f 297 269 223
f 113 163 79
f 193 184 138
f 318 297 338
f 328 301 300
f 482 492 468
f 492 464 438
f 100 84 20
f 260 199 168
f 272 228 149
f 462 458 482
f 500 499 424
f 124 100 70
f 358 383 364
f 136 52 75
f 397 385 420
f 37 36 29
f 106 98 83
f 216 130 197
f 126 77 124
f 290 218 347
f 495 490 494
f 366 346 405
f 34 33 51
f 169 281 118
f 286 253 227
f 278 265 296
f 37 72 36
f 360 368 385
f 511 499 502
f 176 73 80
f 458 431 477
f 77 99 100
f 342 242 245
f 123 121 108
f 97 94 166
f 446 390 430
f 87 108 135
f 190 202 201
f 415 433 471
f 350 330 362
f 304 209 187
f 16 22 26
f 305 329 232
f 476 429 402
f 438 362 351
f 477 437 420
f 519 516 487
f 337 316 288
f 10 8 1
f 508 472 486
f 6 3 2
f 125 107 176
f 197 130 134
f 76 28 45
f 453 391 423
f 103 68 89
f 425 500 424
f 302 328 283
f 238 212 275
f 63 117 50
f 318 338 288
f 489 493 504
f 323 256 277
f 140 116 146
f 531 527 515
f 531 534 527
f 414 366 460
f 129 48 47
f 62 83 98
f 437 378 420
f 433 343 341
f 418 475 455
f 106 60 95
f 160 149 98
f 469 435 357
f 242 367 373
f 303 180 279
f 165 93 133
f 227 243 255
f 150 219 139
f 393 303 399
f 74 59 58
f 168 111 110
f 9 35 33
f 486 487 516
f 492 438 435
f 481 395 429
f 365 360 397
f 443 409 422
f 115 135 123
f 217 204 170
f 210 145 128
f 157 155 105
f 276 230 267
f 525 522 508
f 87 53 108
f 533 521 532
f 181 156 188
f 381 324 319
f 423 391 352
f 395 372 429
f 31 74 83
f 536 530 528
f 221 157 118
f 526 535 525
f 254 165 228
f 35 56 33
f 348 307 374
f 370 455 444
f 324 296 295
f 422 409 381
f 357 358 426
f 419 348 374
f 432 403 434
f 244 217 225
f 254 264 174
f 470 419 413
f 418 337 394
f 284 225 238
f 61 59 96
f 325 285 152
f 318 269 297
f 51 33 56
f 102 43 52
f 297 280 345
f 137 89 178
f 193 138 185
f 86 140 142
f 209 175 104
f 164 95 82
f 302 375 328
f 322 264 387
f 153 39 91
f 258 125 176
f 127 142 109
f 92 113 72
f 232 293 150
f 184 183 138
f 480 485 513
f 62 24 31
f 398 408 325
f 352 332 268
f 350 291 271
f 378 321 361
f 211 155 157
f 402 367 445
f 202 190 192
f 332 198 268
f 224 237 211
f 247 257 266
f 159 205 164
f 229 217 244
f 532 523 530
f 479 489 485
f 113 79 72
f 450 497 507
f 428 364 404
f 54 30 69
f 250 211 237
f 255 270 295
f 96 122 123
f 370 444 416
f 392 248 258
f 205 340 272
f 148 97 166
f 434 322 387
f 9 5 35
f 393 452 470
f 493 506 504
f 253 262 252
f 503 502 473
f 355 287 260
f 89 142 178
f 281 274 221
f 101 85 44
f 276 267 266
f 236 188 316
f 343 263 341
f 425 424 326
f 178 142 127
f 424 451 355
f 501 505 466
f 104 50 143
f 499 501 466
f 378 386 397
f 480 467 471
f 217 170 214
f 412 436 384
f 136 167 207
f 183 213 212
f 315 250 357
f 54 77 110
f 182 183 201
f 300 241 252
f 438 464 456
f 397 396 385
f 442 441 440
f 474 473 467
f 287 306 169
f 445 320 414
f 277 266 273
f 211 91 155
f 500 491 498
f 412 384 327
f 85 37 44
f 361 321 350
f 277 267 249
f 332 379 380
f 221 224 157
f 487 507 519
f 496 494 490
f 176 80 215
f 520 518 511
f 377 360 385
f 154 76 90
f 382 447 452
f 509 510 506
f 363 400 427
f 463 335 306
f 336 296 324
f 354 236 316
f 393 470 472
f 304 353 356
f 230 216 197
f 459 417 461
f 505 476 466
f 452 483 470
f 21 46 32
f 329 293 232
f 60 58 15
f 20 14 8
f 37 29 44
f 70 10 13
f 111 54 110
f 334 363 383
f 422 381 359
f 239 213 189
f 276 266 277
f 367 242 342
f 332 380 308
f 321 369 294
f 281 221 118
f 43 41 52
f 75 41 49
f 131 75 49
f 247 229 166
f 260 287 199
f 358 357 334
f 341 263 292
f 21 32 7
f 407 375 302
f 462 459 458
f 378 397 420
f 277 249 331
f 48 25 47
f 105 27 66
f 278 268 177
f 193 185 182
f 88 44 43
f 132 171 218
f 309 308 380
f 397 360 396
f 143 50 117
f 476 402 457
f 218 242 347
f 307 254 228
f 326 424 355
f 31 11 40
f 460 439 461
f 356 473 500
f 23 16 25
f 450 398 344
f 316 337 370
f 512 513 533
f 386 360 377
f 505 493 476
f 260 168 210
f 138 26 112
f 463 462 488
f 498 491 505
f 489 504 517
f 348 264 254
f 255 243 270
f 118 105 66
f 82 60 28
f 140 151 142
f 456 420 385
f 391 379 332
f 118 66 111
f 361 294 369
f 265 227 296
f 30 23 25
f 479 341 481
f 526 524 535
f 399 354 382
f 338 297 345
f 224 289 237
f 226 241 243
f 421 389 446
f 200 156 162
f 170 78 182
f 187 117 248
f 416 443 434
f 341 292 395
f 207 167 196
f 90 103 144
f 393 399 452
f 244 231 148
f 412 311 428
f 67 62 68
f 286 227 265
f 428 427 436
f 280 223 161
f 208 90 144
f 133 93 59
f 336 268 278
f 414 320 366
f 34 80 73
f 357 435 315
f 356 317 304
f 533 513 521
f 527 520 503
f 406 387 348
f 176 107 73
f 463 488 426
f 43 102 88
f 98 149 116
f 337 345 394
f 496 490 484
f 361 377 396
f 340 374 339
f 536 528 529
f 319 295 270
f 535 522 525
f 69 97 99
f 277 230 276
f 2 34 38
f 71 55 46
f 426 488 469
f 141 158 120
f 461 439 431
f 325 408 285
f 229 247 273
f 220 181 236
f 339 307 228
f 333 450 344
f 19 61 18
f 122 121 123
f 170 203 214
f 371 309 410
f 75 52 41
f 4 10 1
f 399 382 452
f 438 456 362
f 26 22 42
f 465 366 405
f 5 57 35
f 526 519 524
f 63 50 21
f 349 205 285
f 91 39 64
f 247 267 277
f 141 100 99
f 32 65 53
f 317 356 425
f 306 417 463
f 177 196 172
f 470 483 419
f 429 476 481
f 282 238 275
f 430 390 391
f 386 361 396
f 493 481 476
f 133 122 146
f 102 52 161
f 45 12 24
f 384 312 289
f 29 36 49
f 534 533 536
f 361 369 376
f 324 295 319
f 11 18 40
f 177 233 196
f 361 376 377
f 386 377 321
f 408 470 413
f 145 126 55
f 266 246 273
f 68 62 86
f 177 139 219
f 204 217 203
f 517 523 532
f 92 72 37
f 126 124 115
f 259 235 208
f 141 99 158
f 105 64 27
f 292 215 314
f 2 1 9
f 314 132 290
f 185 189 213
f 64 39 27
f 415 471 467
f 519 507 524
f 68 86 89
f 253 252 226
f 96 135 121
f 167 75 131
f 77 100 124
f 375 359 328
f 43 29 41
f 203 191 201
f 173 94 114
f 254 174 165
f 215 132 314
f 263 176 292
f 521 489 517
f 370 416 382
f 115 123 108
f 183 185 213
f 382 434 447
f 515 503 474

