# https://github.com/mikedh/trimesh
v 0.00283551 0.07695757 -0.09328160
v 0.00114632 0.06937334 -0.09323449
v 0.00115902 0.07145669 -0.09323449
v 0.00127333 0.07268789 -0.09321878
v 0.00026574 0.07695757 -0.09300679
v 0.00354252 0.07695757 -0.09328160
v 0.00134953 0.06937334 -0.09323449
v 0.00125639 0.06830331 -0.09321878
v -0.00181717 0.06171449 -0.09303034
v -0.00181717 0.06312478 -0.09304081
v -0.00315498 0.07695757 -0.09263775
v -0.00107207 0.07695757 -0.09286284
v 0.01279709 0.07695757 -0.08925623
v 0.00349595 0.07609797 -0.09326851
v 0.00131566 0.06830331 -0.09321878
v -0.00390009 0.06171449 -0.09280787
v 0.00026574 0.06171449 -0.09248594
v -0.00390009 0.07695757 -0.09254614
v 0.01349139 0.07695757 -0.08895262
v 0.01355913 0.07695757 -0.08892122
v -0.00457322 0.06171449 -0.09271627
v -0.00598300 0.07695757 -0.09226871
v 0.01490964 0.07695757 -0.08817791
v 0.01206892 0.06171449 -0.08541930
v -0.00598300 0.06171449 -0.09246239
v -0.00598300 0.06312478 -0.09248333
v -0.00598300 0.06520813 -0.09245455
v -0.00807015 0.07145669 -0.09203578
v -0.00807015 0.07354004 -0.09200175
v -0.00807015 0.07562190 -0.09190753
v -0.00807862 0.07695757 -0.09167197
v 0.01606964 0.07695757 -0.08717550
v 0.01231023 0.06171449 -0.08522301
v -0.00807015 0.06729148 -0.09200437
v -0.00807015 0.06937334 -0.09205409
v -0.00674081 0.06171449 -0.09218496
v -0.00980591 0.06937334 -0.09150970
v -0.01000065 0.07145669 -0.09151494
v -0.00991175 0.07354004 -0.09150709
v -0.00949263 0.07562190 -0.09139193
v -0.00907774 0.07695757 -0.09126368
v 0.01674701 0.07695757 -0.08594799
v 0.02266553 0.06171449 -0.07086987
v 0.01636175 0.06171449 -0.07976599
v 0.01480380 0.06171449 -0.08194618
v 0.01344906 0.06171449 -0.08383586
v 0.01341942 0.06171449 -0.08387511
v -0.00800241 0.06171449 -0.09166674
v -0.00959423 0.06729148 -0.09143642
v -0.01104211 0.07145669 -0.09099410
v -0.01095321 0.07354004 -0.09072452
v -0.00921321 0.07686803 -0.09122442
v -0.00925131 0.07695757 -0.09108047
v 0.01874101 0.07695757 -0.08170015
v 0.01895693 0.07695757 -0.08123951
v 0.01959196 0.07695757 -0.07966916
v 0.02305925 0.06171449 -0.06967639
v -0.00850197 0.06171449 -0.09137098
v -0.00936985 0.06520813 -0.09130555
v -0.01063569 0.06729148 -0.09075855
v -0.01084737 0.06937334 -0.09087633
v -0.01160094 0.07145669 -0.08995242
v -0.01190999 0.06520813 -0.08956507
v -0.01262970 0.06171449 -0.08857574
v -0.01278210 0.06312478 -0.08861500
v -0.01376853 0.06171449 -0.08753406
v -0.01367962 0.06312478 -0.08757332
v -0.01139773 0.07354004 -0.08968285
v -0.01126225 0.07476527 -0.08924314
v -0.01052985 0.07552490 -0.08999692
v -0.00983554 0.07695757 -0.09000477
v 0.01957079 0.07695757 -0.07943098
v 0.02305502 0.06171449 -0.06654351
v 0.02307195 0.06171449 -0.06674243
v 0.02310158 0.06171449 -0.06717689
v 0.02311429 0.06171449 -0.06778149
v 0.02312275 0.06171449 -0.06926025
v -0.00899730 0.06171449 -0.09105430
v -0.00906080 0.06231442 -0.09109879
v -0.00920898 0.06370382 -0.09119825
v -0.01174065 0.06312478 -0.08941589
v -0.01348064 0.06520813 -0.08745816
v -0.01975479 0.06171449 -0.07290611
v -0.01158824 0.06171449 -0.08931381
v -0.01454327 0.06171449 -0.08592444
v -0.01965318 0.06261588 -0.07267056
v -0.01128766 0.07687847 -0.08718858
v -0.01096591 0.07615467 -0.08857836
v -0.01748559 0.06846747 -0.07456285
v -0.01074153 0.07695757 -0.08822503
v 0.01913474 0.07695757 -0.07761982
v -0.01948384 0.06171449 -0.06654351
v 0.01653956 0.07695757 -0.07155036
v 0.01623051 0.07695757 -0.07117609
v 0.01546847 0.07695757 -0.07050869
v 0.00944834 0.07695757 -0.06761398
v 0.00722149 0.07695757 -0.06654351
v -0.01066532 0.06171449 -0.08993410
v -0.02012734 0.06171449 -0.07134360
v -0.01130459 0.07695757 -0.08704463
v -0.01120722 0.07695757 -0.08726710
v -0.01547465 0.07298040 -0.07681370
v -0.01975479 0.06272780 -0.07134360
v -0.01934413 0.06376948 -0.07134360
v -0.01748559 0.06846747 -0.07400537
v -0.01515290 0.07411610 -0.07551030
v -0.01393364 0.07695757 -0.07760935
v -0.01441203 0.07562190 -0.07759365
v -0.01309539 0.07220735 -0.06654351
v -0.01324356 0.07451903 -0.07039615
v -0.01310385 0.07636510 -0.07283806
v -0.01333247 0.07695757 -0.07434823
v -0.01343831 0.07695757 -0.07464136
v -0.01373889 0.07695757 -0.07551030
v -0.01442896 0.07562190 -0.07551030
v -0.01742209 0.06829286 -0.07261559
v -0.02000033 0.06171449 -0.06943560
v -0.00942065 0.07695757 -0.06654351
v -0.01350604 0.07695757 -0.07926347
v -0.01215130 0.07347587 -0.06654351
v -0.01155014 0.07503390 -0.06757734
v -0.01140620 0.07695757 -0.07004281
v -0.01206663 0.07695757 -0.07140117
v -0.01285831 0.07695757 -0.07315475
v -0.00978051 0.07695757 -0.06714549
v -0.01096591 0.07504435 -0.06654351
v -0.01163058 0.07416534 -0.06654351
v -0.01133423 0.07695757 -0.06990672
v -0.01138926 0.07691430 -0.06994859
f 1 2 3
f 1 3 4
f 1 4 5
f 1 5 12
f 1 12 11
f 1 11 18
f 1 18 22
f 1 22 31
f 1 31 41
f 1 41 53
f 1 53 71
f 1 71 90
f 1 90 101
f 1 101 100
f 1 100 119
f 1 119 107
f 1 107 114
f 1 114 113
f 1 113 112
f 1 112 124
f 1 124 123
f 1 123 122
f 1 122 128
f 1 128 125
f 1 125 118
f 1 118 97
f 1 97 96
f 1 96 95
f 1 95 94
f 1 94 93
f 1 93 91
f 1 91 72
f 1 72 56
f 1 56 55
f 1 55 54
f 1 54 42
f 1 42 32
f 1 32 23
f 1 23 20
f 1 20 19
f 1 19 13
f 1 13 6
f 1 6 7
f 1 7 2
f 2 7 15
f 2 15 8
f 2 8 9
f 2 9 10
f 2 10 3
f 3 10 11
f 3 11 4
f 4 11 12
f 4 12 5
f 6 13 14
f 6 14 15
f 6 15 7
f 8 15 9
f 9 16 10
f 9 15 17
f 9 17 24
f 9 24 33
f 9 33 47
f 9 47 46
f 9 46 45
f 9 45 44
f 9 44 43
f 9 43 57
f 9 57 77
f 9 77 76
f 9 76 75
f 9 75 74
f 9 74 73
f 9 73 92
f 9 92 117
f 9 117 99
f 9 99 83
f 9 83 85
f 9 85 66
f 9 66 64
f 9 64 84
f 9 84 98
f 9 98 78
f 9 78 58
f 9 58 48
f 9 48 36
f 9 36 25
f 9 25 21
f 9 21 16
f 10 16 18
f 10 18 11
f 13 19 14
f 14 19 15
f 15 19 20
f 15 20 17
f 16 21 22
f 16 22 18
f 17 20 23
f 17 23 24
f 21 25 26
f 21 26 27
f 21 27 22
f 22 27 28
f 22 28 29
f 22 29 30
f 22 30 31
f 23 32 33
f 23 33 24
f 25 34 35
f 25 35 26
f 25 36 37
f 25 37 34
f 26 35 28
f 26 28 27
f 28 35 38
f 28 38 39
f 28 39 29
f 29 39 30
f 30 39 40
f 30 40 31
f 31 40 41
f 32 42 43
f 32 43 44
f 32 44 45
f 32 45 46
f 32 46 47
f 32 47 33
f 34 37 38
f 34 38 35
f 36 48 37
f 37 49 50
f 37 50 38
f 37 48 49
f 38 50 39
f 39 50 51
f 39 51 40
f 40 51 52
f 40 52 41
f 41 52 53
f 42 54 43
f 43 54 55
f 43 55 56
f 43 56 57
f 48 58 59
f 48 59 49
f 49 59 60
f 49 60 61
f 49 61 50
f 50 62 51
f 50 61 63
f 50 63 64
f 50 64 65
f 50 65 66
f 50 66 67
f 50 67 62
f 51 62 68
f 51 68 69
f 51 69 70
f 51 70 52
f 52 70 53
f 53 70 71
f 56 72 73
f 56 73 74
f 56 74 75
f 56 75 76
f 56 76 77
f 56 77 57
f 58 78 79
f 58 79 80
f 58 80 59
f 59 80 60
f 60 81 63
f 60 63 61
f 60 80 79
f 60 79 81
f 62 67 82
f 62 82 83
f 62 83 68
f 63 81 64
f 64 81 84
f 64 66 65
f 66 85 67
f 67 85 82
f 68 83 86
f 68 86 69
f 69 87 88
f 69 88 70
f 69 86 89
f 69 89 87
f 70 88 71
f 71 88 90
f 72 91 73
f 73 91 93
f 73 93 94
f 73 94 95
f 73 95 96
f 73 96 97
f 73 97 118
f 73 118 126
f 73 126 127
f 73 127 120
f 73 120 109
f 73 109 92
f 78 98 79
f 79 98 81
f 81 98 84
f 82 85 83
f 83 99 86
f 86 99 89
f 87 100 101
f 87 101 90
f 87 90 88
f 87 89 102
f 87 102 100
f 89 99 103
f 89 103 104
f 89 104 105
f 89 105 106
f 89 106 107
f 89 107 108
f 89 108 102
f 92 109 110
f 92 110 111
f 92 111 112
f 92 112 113
f 92 113 114
f 92 114 115
f 92 115 106
f 92 106 116
f 92 116 117
f 99 117 103
f 100 102 108
f 100 108 119
f 103 117 104
f 104 117 106
f 104 106 105
f 106 115 107
f 106 117 116
f 107 115 114
f 107 119 108
f 109 111 110
f 109 120 121
f 109 121 122
f 109 122 123
f 109 123 124
f 109 124 111
f 111 124 112
f 118 125 126
f 120 127 121
f 121 127 126
f 121 126 128
f 121 128 129
f 121 129 122
f 122 129 128
f 125 128 126

