# https://github.com/mikedh/trimesh
v -0.00814369 -0.00397414 -0.08477486
v -0.00814369 -0.00397414 -0.06654351
v -0.00814369 -0.00317692 -0.08548290
v 0.01639097 -0.00397414 -0.09553770
v 0.04459318 -0.00397414 -0.06654351
v -0.00814369 0.05504347 -0.06654351
v -0.00814369 -0.00195798 -0.08655534
v -0.00814369 -0.00095278 -0.08742335
v -0.00814369 0.00063011 -0.08843950
v 0.01685835 -0.00397414 -0.09572137
v 0.04596233 -0.00397414 -0.06923645
v 0.04608329 0.00063011 -0.06717750
v 0.04575338 0.00063011 -0.06654351
v 0.03202343 0.05504347 -0.06654351
v -0.00814369 0.05504347 -0.09067028
v -0.00814369 0.00172773 -0.08902311
v 0.01901379 -0.00397414 -0.09650644
v -0.00814369 0.00176240 -0.08904089
v -0.00814369 0.01098245 -0.09369797
v 0.04683110 -0.00397414 -0.07095767
v 0.04719951 -0.00074481 -0.07014594
v 0.04622076 0.00272138 -0.06654351
v 0.04705104 -0.00213129 -0.07050144
v 0.03206742 0.05504347 -0.06717750
v 0.03419537 0.05342014 -0.06654351
v 0.03665873 0.05161772 -0.06717750
v 0.03561400 0.05239761 -0.06717750
v -0.00723642 0.05504347 -0.09127463
v -0.00814369 0.04645888 -0.09254851
v 0.01944818 -0.00397414 -0.09656865
v -0.00814369 0.01313149 -0.09423419
v 0.04730398 -0.00397414 -0.07197382
v 0.04723799 0.00063011 -0.06992375
v 0.04704005 0.00271560 -0.06865876
v 0.04676512 0.00479531 -0.06717750
v 0.04653968 0.00479531 -0.06654351
v 0.04651768 0.00271560 -0.06717750
v 0.04733697 -0.00353509 -0.07187605
v 0.04772737 -0.00397414 -0.07340471
v 0.04777686 -0.00353509 -0.07342546
v 0.03168252 0.05504347 -0.06937864
v 0.03558651 0.05238028 -0.06654351
v 0.03536107 0.05221853 -0.06926014
v 0.03401941 0.05325838 -0.06926014
v 0.03297468 0.05406716 -0.06926014
v 0.03662574 0.05159461 -0.06654351
v 0.03775844 0.05068763 -0.06654351
v 0.03775844 0.05071651 -0.06717750
v 0.03886366 0.04966510 -0.06838620
v -0.00615870 0.05504347 -0.09196194
v -0.00806671 0.04645310 -0.09257517
v -0.00814369 0.04437339 -0.09276478
v -0.00598275 0.05504347 -0.09205969
v -0.00415172 0.05504347 -0.09279440
v 0.02109225 -0.00397414 -0.09680269
v -0.00814369 0.01320081 -0.09423715
v -0.00806671 0.01313149 -0.09424307
v 0.04785383 -0.00145538 -0.07342546
v 0.04751842 0.00063011 -0.07134280
v 0.04685859 0.00688080 -0.06717750
v 0.04671013 0.00688080 -0.06654351
v 0.04802979 -0.00397414 -0.07551107
v 0.03160004 0.05504347 -0.06955344
v 0.03640030 0.05140975 -0.06926014
v 0.03891315 0.04971709 -0.06654351
v 0.03891315 0.04972287 -0.06717750
v 0.04087614 0.04539591 -0.06815217
v 0.04011733 0.04645310 -0.06926014
v 0.03918258 0.04852704 -0.06915350
v 0.04085964 0.03911634 -0.07855654
v 0.04067819 0.03870040 -0.07967637
v 0.03899013 0.04782802 -0.07076511
v 0.03867671 0.04733120 -0.07215453
v 0.03850625 0.04922028 -0.06977563
v 0.03712061 0.04994240 -0.07092804
v 0.03779144 0.05026013 -0.06915350
v 0.03952349 0.04853859 -0.06717750
v 0.04292711 0.04151379 -0.06654351
v 0.04481862 0.03746990 -0.06654351
v -0.00389878 0.05504347 -0.09287735
v -0.00806671 0.04437339 -0.09278255
v -0.00814369 0.04228790 -0.09289513
v 0.02109225 -0.00353509 -0.09679973
v 0.02152664 -0.00397414 -0.09680565
v 0.00334284 0.00790332 -0.09530365
v 0.00334284 0.00802464 -0.09530365
v -0.00814369 0.02562132 -0.09375722
v -0.00806671 0.02562132 -0.09376314
v 0.04783734 0.00063011 -0.07342546
v 0.04713902 0.02261729 -0.06816698
v 0.04714452 0.02146189 -0.06815217
v 0.04713902 0.01937640 -0.06819068
v 0.04728198 0.01104600 -0.06944086
v 0.04709503 0.00896051 -0.06844842
v 0.04678711 0.01104600 -0.06654351
v 0.04676512 0.00896051 -0.06654351
v 0.04785383 -0.00397414 -0.07759371
v 0.04801329 -0.00353509 -0.07551107
v 0.04713902 0.02261729 -0.06826770
v 0.03098420 0.05504347 -0.07074141
v 0.03267226 0.05384763 -0.07047478
v 0.03492118 0.05189501 -0.07069993
v 0.03911659 0.04936470 -0.06654351
v 0.03954548 0.04853859 -0.06654351
v 0.04073318 0.04506663 -0.06926014
v 0.04081016 0.04316023 -0.07210713
v 0.04176141 0.04020819 -0.07342546
v 0.04311956 0.03742369 -0.07294849
v 0.04211882 0.03812270 -0.07551107
v 0.04293261 0.03696730 -0.07433790
v 0.04142600 0.03830178 -0.07775369
v 0.04111808 0.03765476 -0.07967637
v 0.04092563 0.03720416 -0.08080805
v 0.03913309 0.03957850 -0.08175606
v 0.03964446 0.04032373 -0.07976820
v 0.03881967 0.04544213 -0.07450381
v 0.03905061 0.04583497 -0.07342546
v 0.03828081 0.04687482 -0.07342546
v 0.03724158 0.04809377 -0.07342546
v 0.03789591 0.04868301 -0.07154129
v 0.03666973 0.04953223 -0.07231747
v 0.03579545 0.05071651 -0.07150870
v 0.03982591 0.04798978 -0.06654351
v 0.04518152 0.03664957 -0.06654351
v -0.00499300 0.04558078 -0.09322101
v -0.00740138 0.03812270 -0.09328026
v -0.00814369 0.03812270 -0.09314991
v -0.00814369 0.04041038 -0.09301067
v -0.00806671 0.04228790 -0.09290994
v -0.00182032 0.05504347 -0.09256037
v 0.01692983 0.03603721 -0.09410384
v 0.01692983 0.03395750 -0.09444453
v 0.01692983 0.03187201 -0.09460154
v 0.01901379 0.00479531 -0.09645016
v 0.01692983 0.00479531 -0.09636127
v 0.02317622 -0.00397414 -0.09678195
v 0.01484587 0.00479531 -0.09621611
v 0.01901379 0.00271560 -0.09653014
v 0.02109225 -0.00145538 -0.09673159
v -0.00814369 0.02778768 -0.09366538
v -0.00806671 0.02770681 -0.09367723
v 0.04666064 0.02979230 -0.06654351
v 0.04675412 0.02770681 -0.06654351
v 0.04680911 0.02562132 -0.06654351
v 0.04685859 0.02345495 -0.06654351
v 0.04696856 0.02146189 -0.06711233
v 0.04698506 0.01749311 -0.06738488
v 0.04685309 0.01937640 -0.06654351
v 0.04663315 -0.00397414 -0.08592432
v 0.04780435 0.00063011 -0.07551107
v 0.04792532 -0.00145538 -0.07551107
v 0.04720500 0.01729669 -0.07068512
v 0.04693557 0.02340296 -0.06908239
v 0.04670464 0.02562132 -0.06926014
v 0.04665515 0.02979230 -0.06717750
v 0.03060479 0.05504347 -0.07130133
v 0.03522910 0.05006371 -0.07342546
v 0.02136168 0.05504347 -0.08420902
v 0.04533549 0.03601988 -0.06700863
v 0.04299859 0.03923766 -0.07041849
v 0.04243224 0.04004066 -0.07120652
v 0.04518703 0.03530931 -0.06867653
v 0.04088714 0.03293497 -0.08280479
v 0.04069469 0.03432722 -0.08249076
v 0.04043625 0.03603721 -0.08211452
v 0.03880318 0.03916833 -0.08280479
v 0.04497808 0.03463918 -0.07006299
v 0.04154697 0.03603721 -0.07967637
v 0.04286662 0.02407886 -0.08250853
v 0.04300409 0.02269239 -0.08286996
v 0.04618226 -0.00353509 -0.08800697
v 0.04553344 -0.00397414 -0.08978745
v 0.03828081 0.04062413 -0.08175606
v 0.03867671 0.04109784 -0.08052068
v 0.03909460 0.04162355 -0.07913423
v 0.03837978 0.04492220 -0.07589323
v 0.03684568 0.04764894 -0.07466675
v 0.03456377 0.04742363 -0.07853580
v 0.03224887 0.04719833 -0.08238114
v 0.03272175 0.04766049 -0.08099469
v 0.03036286 0.04741208 -0.08474227
v 0.04541247 0.03602565 -0.06654351
v -0.00775879 0.03603721 -0.09333358
v -0.00814369 0.03603721 -0.09327137
v 0.01826598 0.05504347 -0.08701453
v 0.01901379 0.05424624 -0.08719821
v 0.02526018 0.04710590 -0.08889277
v 0.02812494 0.04519950 -0.08899052
v 0.02409998 0.04115561 -0.09110872
v 0.02006952 0.03710017 -0.09322101
v 0.01901379 0.03603721 -0.09373944
v 0.01901379 0.03395750 -0.09421937
v 0.01901379 0.03187201 -0.09450971
v 0.01901379 0.02979230 -0.09469338
v 0.01864539 0.02099396 -0.09533624
v 0.01901379 0.00688080 -0.09630499
v 0.02109225 0.00271560 -0.09650348
v 0.02109225 0.00063011 -0.09663086
v 0.02317622 -0.00353509 -0.09676714
v 0.02361060 -0.00397414 -0.09676418
v -0.00814369 0.03187201 -0.09347282
v 0.04647919 0.03187201 -0.06654351
v 0.04686959 0.02146189 -0.06654351
v 0.04626475 -0.00397414 -0.08800697
v 0.04641871 0.03187201 -0.06717750
v 0.02890024 0.04791468 -0.08592432
v 0.02739363 0.04905274 -0.08607838
v 0.02224695 0.05383608 -0.08504149
v 0.02048741 0.05504347 -0.08530811
v 0.02623343 0.04952646 -0.08687529
v 0.04600081 0.03395750 -0.06717750
v 0.03939153 0.03603721 -0.08333211
v 0.03901762 0.03812270 -0.08298550
v 0.04479663 -0.00397414 -0.09081247
v 0.04370791 -0.00397414 -0.09220190
v 0.04334500 -0.00397414 -0.09266109
v 0.04293261 -0.00397414 -0.09317064
v 0.03684018 0.04139825 -0.08297957
v 0.03529508 0.04020819 -0.08543847
v 0.03245232 0.04308512 -0.08686048
v 0.03061029 0.04556922 -0.08713006
v 0.04473064 0.03394594 -0.07124800
v 0.04534648 0.03394594 -0.06932532
v 0.04578087 0.03187201 -0.06926014
v 0.04290511 0.03466807 -0.07636427
v 0.04194286 0.03395750 -0.07967637
v 0.04297110 0.02667850 -0.08072806
v 0.04361443 0.02146189 -0.08175606
v 0.04517603 0.01068205 -0.08318399
v 0.04493959 0.00946311 -0.08457341
v 0.04507706 0.00807663 -0.08493484
v 0.03486619 0.04359927 -0.08316029
v 0.03669722 0.04330465 -0.08068658
v 0.03471773 0.04551145 -0.08084952
v 0.03288671 0.04580608 -0.08332323
v 0.02993947 0.04702502 -0.08592432
v 0.02847685 0.04757383 -0.08706785
v 0.04558292 0.03551728 -0.06654351
v -0.00814369 0.03437344 -0.09335432
v 0.01942069 0.05504347 -0.08628575
v 0.02021798 0.05387074 -0.08704119
v 0.02256037 0.05199322 -0.08718635
v 0.02484228 0.05008104 -0.08733448
v 0.02734414 0.04803599 -0.08742632
v 0.02927414 0.04633756 -0.08750927
v 0.02939511 0.04444849 -0.08858170
v 0.03007143 0.04273273 -0.08885425
v 0.02868579 0.04380725 -0.08916532
v 0.02734414 0.04228790 -0.08992372
v 0.02469382 0.03976336 -0.09128056
v 0.02317622 0.03812270 -0.09210414
v 0.02050391 0.03603721 -0.09335728
v 0.02123522 0.03406726 -0.09358836
v 0.02109225 0.03187201 -0.09406237
v 0.02317622 0.02770681 -0.09422826
v 0.02109225 0.02979230 -0.09438528
v 0.02109225 0.02770681 -0.09460450
v 0.03647728 -0.00397414 -0.09526811
v 0.03556451 -0.00397414 -0.09538068
v 0.02777852 -0.00397414 -0.09633166
v 0.02569456 -0.00397414 -0.09658346
v 0.02526018 -0.00353509 -0.09659532
v 0.02003103 0.02040471 -0.09529773
v 0.02526018 -0.00397414 -0.09662791
v 0.02317622 -0.00145538 -0.09662494
v 0.04610528 0.03395750 -0.06654351
v 0.04529150 0.00884497 -0.08386241
v 0.04529150 0.01313149 -0.08144795
v 0.04586885 0.02770681 -0.07134280
v 0.04614928 0.02979230 -0.06926014
v 0.02394602 0.05146752 -0.08665310
v 0.02160912 0.05338547 -0.08643091
v 0.03879768 0.03291186 -0.08488151
v 0.03660375 0.03886793 -0.08478671
v 0.03859973 0.03395750 -0.08471265
v 0.03819283 0.03603721 -0.08437493
v 0.04242124 -0.00397414 -0.09350837
v 0.04139850 -0.00145538 -0.09360021
v 0.04110708 0.00017950 -0.09341060
v 0.03875369 0.02026606 -0.08900238
v 0.03877568 0.02660918 -0.08694639
v 0.03244132 0.04528615 -0.08471265
v 0.03272175 0.04169865 -0.08710933
v 0.03102269 0.04437339 -0.08746482
v 0.03147907 0.04221280 -0.08798327
v 0.04401033 0.03395750 -0.07342546
v 0.04479112 0.02988473 -0.07339287
v 0.04391136 0.02354738 -0.07967637
v 0.04271816 0.02990206 -0.07965267
v 0.03050582 0.04134625 -0.08907348
v 0.02942260 0.04020819 -0.08971635
v 0.02734414 0.04020819 -0.09038291
v 0.02317622 0.03603721 -0.09256629
v 0.02154864 0.03603721 -0.09305214
v 0.02317622 0.02979230 -0.09386980
v 0.02526018 0.03395750 -0.09235299
v 0.02894972 0.02354738 -0.09339283
v 0.03152855 0.01931286 -0.09347578
v 0.02734414 0.02354738 -0.09386387
v 0.03150656 0.01729669 -0.09385499
v 0.02526018 0.02562132 -0.09405051
v 0.02942260 0.01937640 -0.09403273
v 0.02734414 0.02146189 -0.09419271
v 0.03567448 0.00896051 -0.09409495
v 0.02526018 0.02354738 -0.09433492
v 0.02317622 0.02562132 -0.09447415
v 0.03775844 0.00271560 -0.09436157
v 0.03731856 -0.00397414 -0.09511405
v 0.03405790 0.04020819 -0.08648127
v 0.03631232 0.03395750 -0.08662644
v 0.03856673 0.02770681 -0.08676864
v 0.03708762 0.02354738 -0.08935788
v 0.04220130 -0.00397414 -0.09363872
v 0.04198135 -0.00397414 -0.09374241
v 0.03984240 -0.00145538 -0.09427270
v 0.03698315 0.01104600 -0.09339579
v 0.03677970 0.01225917 -0.09325656
v 0.03705463 0.01729669 -0.09141387
v 0.03365101 0.03794361 -0.08755667
v 0.03270525 0.03539019 -0.08917420
v 0.03561400 0.02372069 -0.09053400
v 0.03460226 0.02452947 -0.09111169
v 0.03257329 0.02880443 -0.09114428
v 0.02942260 0.03812270 -0.09016962
v 0.03073126 0.03122499 -0.09121538
v 0.03375548 0.01536140 -0.09358836
v 0.03313414 0.01729669 -0.09339876
v 0.03567448 0.01104600 -0.09382832
v 0.03359052 0.01313149 -0.09399719
v 0.03775844 0.00479531 -0.09408902
v 0.03984240 -0.00353509 -0.09451859
v 0.03984240 -0.00397414 -0.09456303
v 0.03775844 0.00063011 -0.09456895
v 0.03760998 -0.00397414 -0.09505481
v 0.03624634 0.02146189 -0.09073842
v 0.04027680 -0.00397414 -0.09442971
v 0.03566898 0.01302173 -0.09346986
v 0.03456377 0.01615285 -0.09319138
f 1 2 6
f 1 6 15
f 1 15 29
f 1 29 52
f 1 52 82
f 1 82 128
f 1 128 127
f 1 127 184
f 1 184 239
f 1 239 201
f 1 201 140
f 1 140 87
f 1 87 56
f 1 56 31
f 1 31 19
f 1 19 18
f 1 18 16
f 1 16 9
f 1 9 8
f 1 8 7
f 1 7 3
f 1 3 4
f 1 4 10
f 1 10 17
f 1 17 30
f 1 30 55
f 1 55 84
f 1 84 136
f 1 136 200
f 1 200 264
f 1 264 261
f 1 261 260
f 1 260 259
f 1 259 258
f 1 258 308
f 1 308 334
f 1 334 332
f 1 332 336
f 1 336 314
f 1 314 313
f 1 313 277
f 1 277 217
f 1 217 216
f 1 216 215
f 1 215 214
f 1 214 172
f 1 172 204
f 1 204 149
f 1 149 97
f 1 97 62
f 1 62 39
f 1 39 32
f 1 32 20
f 1 20 11
f 1 11 5
f 1 5 2
f 2 5 13
f 2 13 22
f 2 22 36
f 2 36 61
f 2 61 96
f 2 96 95
f 2 95 148
f 2 148 203
f 2 203 145
f 2 145 144
f 2 144 143
f 2 143 142
f 2 142 202
f 2 202 266
f 2 266 238
f 2 238 182
f 2 182 124
f 2 124 79
f 2 79 78
f 2 78 123
f 2 123 104
f 2 104 103
f 2 103 65
f 2 65 47
f 2 47 46
f 2 46 42
f 2 42 25
f 2 25 14
f 2 14 6
f 3 7 4
f 4 7 8
f 4 8 9
f 4 9 10
f 5 11 12
f 5 12 13
f 6 14 24
f 6 24 41
f 6 41 63
f 6 63 100
f 6 100 156
f 6 156 158
f 6 158 209
f 6 209 240
f 6 240 185
f 6 185 130
f 6 130 80
f 6 80 54
f 6 54 53
f 6 53 50
f 6 50 28
f 6 28 15
f 9 16 10
f 10 16 18
f 10 18 19
f 10 19 17
f 11 20 12
f 12 21 22
f 12 22 13
f 12 20 23
f 12 23 21
f 14 25 26
f 14 26 27
f 14 27 24
f 15 28 29
f 17 19 31
f 17 31 30
f 20 32 23
f 21 33 34
f 21 34 35
f 21 35 36
f 21 36 37
f 21 37 22
f 21 23 32
f 21 32 38
f 21 38 39
f 21 39 40
f 21 40 33
f 22 37 36
f 24 27 41
f 25 42 26
f 26 43 44
f 26 44 45
f 26 45 41
f 26 41 27
f 26 42 46
f 26 46 47
f 26 47 48
f 26 48 49
f 26 49 43
f 28 50 29
f 29 51 52
f 29 50 53
f 29 53 54
f 29 54 51
f 30 31 55
f 31 56 57
f 31 57 55
f 32 39 38
f 33 40 58
f 33 58 59
f 33 59 60
f 33 60 34
f 34 60 61
f 34 61 35
f 35 61 36
f 39 62 40
f 40 62 58
f 41 45 44
f 41 44 43
f 41 43 64
f 41 64 63
f 43 49 64
f 47 65 48
f 48 66 49
f 48 65 66
f 49 67 68
f 49 68 69
f 49 69 70
f 49 70 71
f 49 71 72
f 49 72 73
f 49 73 74
f 49 74 75
f 49 75 76
f 49 76 64
f 49 66 77
f 49 77 78
f 49 78 79
f 49 79 67
f 51 54 80
f 51 80 52
f 52 80 81
f 52 81 82
f 55 83 84
f 55 57 85
f 55 85 86
f 55 86 83
f 56 86 85
f 56 85 57
f 56 87 88
f 56 88 86
f 58 62 89
f 58 89 90
f 58 90 91
f 58 91 92
f 58 92 59
f 59 92 93
f 59 93 94
f 59 94 95
f 59 95 60
f 60 95 96
f 60 96 61
f 62 97 98
f 62 98 99
f 62 99 90
f 62 90 89
f 63 64 101
f 63 101 100
f 64 102 101
f 64 76 75
f 64 75 102
f 65 103 66
f 66 103 104
f 66 104 77
f 67 79 68
f 68 79 105
f 68 105 106
f 68 106 70
f 68 70 69
f 70 107 108
f 70 108 109
f 70 109 110
f 70 110 111
f 70 111 112
f 70 112 71
f 70 106 107
f 71 112 113
f 71 113 114
f 71 114 115
f 71 115 116
f 71 116 117
f 71 117 72
f 72 117 116
f 72 116 73
f 73 118 119
f 73 119 120
f 73 120 74
f 73 116 118
f 74 120 121
f 74 121 75
f 75 121 122
f 75 122 102
f 77 104 123
f 77 123 78
f 79 124 105
f 80 125 126
f 80 126 127
f 80 127 128
f 80 128 129
f 80 129 81
f 80 130 131
f 80 131 132
f 80 132 133
f 80 133 134
f 80 134 135
f 80 135 125
f 81 129 128
f 81 128 82
f 83 136 84
f 83 86 137
f 83 137 135
f 83 135 138
f 83 138 139
f 83 139 136
f 86 135 137
f 86 88 125
f 86 125 135
f 87 140 141
f 87 141 125
f 87 125 88
f 90 99 142
f 90 142 143
f 90 143 144
f 90 144 145
f 90 145 91
f 91 145 146
f 91 146 92
f 92 146 147
f 92 147 95
f 92 95 94
f 92 94 93
f 95 147 148
f 97 149 150
f 97 150 151
f 97 151 98
f 98 151 99
f 99 151 150
f 99 150 152
f 99 152 149
f 99 149 153
f 99 153 154
f 99 154 155
f 99 155 142
f 100 101 156
f 101 102 156
f 102 122 157
f 102 157 158
f 102 158 156
f 105 124 159
f 105 159 160
f 105 160 161
f 105 161 107
f 105 107 106
f 107 161 108
f 108 159 162
f 108 162 110
f 108 110 109
f 108 161 160
f 108 160 159
f 110 112 111
f 110 162 112
f 112 162 113
f 113 163 164
f 113 164 165
f 113 165 166
f 113 166 114
f 113 162 167
f 113 167 168
f 113 168 169
f 113 169 170
f 113 170 171
f 113 171 172
f 113 172 163
f 114 166 173
f 114 173 174
f 114 174 175
f 114 175 115
f 115 175 116
f 116 176 177
f 116 177 118
f 116 175 174
f 116 174 176
f 118 177 119
f 119 177 121
f 119 121 120
f 121 157 122
f 121 177 178
f 121 178 179
f 121 179 180
f 121 180 181
f 121 181 157
f 124 182 159
f 125 141 140
f 125 140 126
f 126 140 183
f 126 183 184
f 126 184 127
f 130 185 186
f 130 186 187
f 130 187 188
f 130 188 189
f 130 189 190
f 130 190 191
f 130 191 131
f 131 191 192
f 131 192 132
f 132 192 193
f 132 193 194
f 132 194 133
f 133 194 195
f 133 195 134
f 134 195 196
f 134 196 197
f 134 197 198
f 134 198 139
f 134 139 138
f 134 138 135
f 136 139 199
f 136 199 200
f 139 198 199
f 140 201 183
f 142 155 202
f 145 203 146
f 146 203 147
f 147 203 148
f 149 204 154
f 149 154 153
f 149 152 150
f 154 204 155
f 155 204 205
f 155 205 202
f 157 181 206
f 157 206 207
f 157 207 158
f 158 208 209
f 158 207 210
f 158 210 208
f 159 182 211
f 159 211 162
f 162 211 167
f 163 212 213
f 163 213 164
f 163 172 214
f 163 214 215
f 163 215 216
f 163 216 217
f 163 217 212
f 164 213 165
f 165 213 166
f 166 218 173
f 166 213 219
f 166 219 220
f 166 220 221
f 166 221 218
f 167 222 168
f 167 211 223
f 167 223 224
f 167 224 222
f 168 222 225
f 168 225 226
f 168 226 169
f 169 226 227
f 169 227 228
f 169 228 229
f 169 229 230
f 169 230 231
f 169 231 170
f 170 231 171
f 171 204 172
f 171 231 204
f 173 218 174
f 174 218 232
f 174 232 233
f 174 233 176
f 176 233 177
f 177 233 234
f 177 234 235
f 177 235 178
f 178 235 221
f 178 221 179
f 179 236 181
f 179 181 180
f 179 221 236
f 181 236 237
f 181 237 206
f 182 238 211
f 183 239 184
f 183 201 239
f 185 240 241
f 185 241 186
f 186 241 187
f 187 241 188
f 188 241 242
f 188 242 243
f 188 243 244
f 188 244 245
f 188 245 221
f 188 221 246
f 188 246 247
f 188 247 248
f 188 248 249
f 188 249 189
f 189 250 251
f 189 251 190
f 189 249 250
f 190 251 252
f 190 252 191
f 191 252 192
f 192 252 253
f 192 253 254
f 192 254 255
f 192 255 256
f 192 256 193
f 193 256 257
f 193 257 194
f 194 257 258
f 194 258 259
f 194 259 260
f 194 260 261
f 194 261 262
f 194 262 263
f 194 263 197
f 194 197 195
f 195 197 196
f 197 264 265
f 197 265 200
f 197 200 199
f 197 199 198
f 197 263 264
f 200 265 264
f 202 205 266
f 204 231 267
f 204 267 268
f 204 268 269
f 204 269 270
f 204 270 205
f 205 270 224
f 205 224 223
f 205 223 211
f 205 211 266
f 206 237 210
f 206 210 207
f 208 271 209
f 208 210 271
f 209 271 272
f 209 272 240
f 210 237 243
f 210 243 242
f 210 242 271
f 211 238 266
f 212 273 213
f 212 217 273
f 213 274 219
f 213 273 275
f 213 275 276
f 213 276 274
f 217 277 278
f 217 278 279
f 217 279 280
f 217 280 281
f 217 281 273
f 218 221 282
f 218 282 232
f 219 283 220
f 219 274 283
f 220 284 221
f 220 283 285
f 220 285 284
f 221 284 246
f 221 245 237
f 221 237 236
f 221 235 282
f 222 286 225
f 222 224 286
f 224 287 225
f 224 225 286
f 224 270 269
f 224 269 268
f 224 268 287
f 225 287 288
f 225 288 289
f 225 289 226
f 226 289 227
f 227 289 288
f 227 288 268
f 227 268 229
f 227 229 228
f 229 268 267
f 229 267 231
f 229 231 230
f 232 282 233
f 233 282 234
f 234 282 235
f 237 244 243
f 237 245 244
f 240 272 241
f 241 272 271
f 241 271 242
f 246 284 247
f 247 284 285
f 247 285 290
f 247 290 248
f 248 290 291
f 248 291 292
f 248 292 249
f 249 292 293
f 249 293 251
f 249 251 250
f 251 293 253
f 251 253 294
f 251 294 252
f 252 294 253
f 253 295 254
f 253 293 296
f 253 296 297
f 253 297 298
f 253 298 295
f 254 295 299
f 254 299 300
f 254 300 301
f 254 301 255
f 255 301 300
f 255 300 302
f 255 302 329
f 255 329 303
f 255 303 256
f 256 303 304
f 256 304 305
f 256 305 306
f 256 306 257
f 257 306 258
f 258 304 307
f 258 307 308
f 258 306 304
f 261 264 262
f 262 264 263
f 268 288 287
f 273 281 275
f 274 309 285
f 274 285 283
f 274 276 275
f 274 275 309
f 275 310 309
f 275 281 311
f 275 311 318
f 275 318 312
f 275 312 310
f 277 313 278
f 278 313 314
f 278 314 315
f 278 315 316
f 278 316 317
f 278 317 279
f 279 317 318
f 279 318 280
f 280 318 281
f 281 318 311
f 285 309 319
f 285 319 320
f 285 320 290
f 290 320 321
f 290 321 322
f 290 322 317
f 290 317 323
f 290 323 291
f 291 323 324
f 291 324 292
f 292 324 325
f 292 325 297
f 292 297 296
f 292 296 293
f 295 298 326
f 295 326 299
f 297 325 327
f 297 327 298
f 298 327 326
f 299 326 300
f 300 326 328
f 300 328 302
f 302 328 329
f 303 329 304
f 304 329 328
f 304 328 307
f 304 306 305
f 307 330 315
f 307 315 331
f 307 331 332
f 307 332 333
f 307 333 308
f 307 328 330
f 308 333 334
f 309 310 321
f 309 321 319
f 310 312 321
f 312 318 335
f 312 335 321
f 314 336 315
f 315 336 331
f 315 330 316
f 316 328 317
f 316 330 328
f 317 328 337
f 317 337 338
f 317 338 323
f 317 322 318
f 318 322 321
f 318 321 335
f 319 321 320
f 323 325 324
f 323 338 325
f 325 338 327
f 326 327 337
f 326 337 328
f 327 338 337
f 331 336 332
f 332 334 333

