# https://github.com/mikedh/trimesh
v 0.02807667 -0.03738503 -0.06654351
v 0.02764796 -0.03900621 -0.06654351
v 0.02284435 -0.03738503 -0.08325932
v -0.02469075 -0.03738503 -0.06654351
v 0.02703331 -0.04109977 -0.06654351
v 0.02001384 -0.03738503 -0.08800612
v 0.02650646 -0.04253579 -0.06668258
v 0.02439390 -0.04456511 -0.07076804
v 0.02228135 -0.04659065 -0.07485043
v 0.02016363 -0.04860863 -0.07893280
v 0.01986921 -0.04787550 -0.08032038
v 0.01587653 -0.05455298 -0.08277413
v 0.01002956 -0.06186910 -0.08751476
v -0.02469075 -0.03738503 -0.09416832
v -0.02469075 -0.05365358 -0.06654351
v 0.02652712 -0.04259247 -0.06654351
v 0.01856242 -0.03738503 -0.08935044
v 0.00948721 -0.06045198 -0.08891470
v 0.02033924 -0.04933041 -0.07741544
v 0.01987438 -0.04999930 -0.07799333
v 0.01852627 -0.05155624 -0.07974866
v 0.01956963 -0.04933041 -0.07964668
v 0.01788579 -0.05231960 -0.08049344
v 0.01813371 -0.05281464 -0.07910277
v 0.01557695 -0.05568668 -0.08195518
v 0.01173923 -0.06086389 -0.08493430
v 0.00972997 -0.06304815 -0.08713774
v 0.00912565 -0.06186910 -0.08855622
v -0.01968053 -0.05073620 -0.09330611
v -0.02183441 -0.05081934 -0.09144262
v -0.02469075 -0.03816728 -0.09346990
v -0.00390092 -0.03738503 -0.09675188
v -0.00598249 -0.03895709 -0.09693111
v -0.00912808 -0.04206719 -0.09738540
v -0.00995450 -0.04320090 -0.09753064
v -0.01221169 -0.04521132 -0.09765735
v -0.01223235 -0.04728976 -0.09795403
v -0.01352880 -0.04728976 -0.09753992
v -0.01346682 -0.04872200 -0.09749357
v -0.02469075 -0.05387276 -0.06925995
v -0.01573433 -0.06775299 -0.06717704
v -0.01568785 -0.06770764 -0.06654351
v 0.02535979 -0.04516975 -0.06654351
v 0.02517385 -0.04520376 -0.06717704
v 0.02459018 -0.04523777 -0.06917342
v 0.00764324 -0.04650373 -0.09538284
v 0.00785502 -0.04520376 -0.09556826
v 0.00805129 -0.04312153 -0.09568879
v 0.00803580 -0.04103931 -0.09555899
v 0.01043244 -0.03738503 -0.09386856
v 0.00808228 -0.06186910 -0.08937516
v 0.00759159 -0.05257279 -0.09324431
v 0.02408399 -0.04595200 -0.06981312
v 0.02088159 -0.04937199 -0.07550868
v 0.02006549 -0.05044144 -0.07660267
v 0.01943534 -0.05126526 -0.07741544
v 0.01831449 -0.05352131 -0.07745252
v 0.01800459 -0.05465502 -0.07666138
v 0.01776699 -0.05420154 -0.07805204
v 0.01552013 -0.06014210 -0.07550868
v 0.01575773 -0.05642358 -0.08036365
v 0.01193550 -0.06122290 -0.08384031
v 0.01423401 -0.05979822 -0.07959414
v 0.01387761 -0.06095837 -0.07884628
v 0.01135184 -0.06226590 -0.08384031
v 0.01159460 -0.06270804 -0.08243110
v 0.00995208 -0.06335425 -0.08592322
v 0.00945105 -0.06475247 -0.08433477
v 0.00805129 -0.06770387 -0.08176049
v 0.00776721 -0.06731841 -0.08316043
v 0.00806162 -0.06548938 -0.08554620
v 0.00747279 -0.06497166 -0.08693685
v 0.00848517 -0.06345628 -0.08790415
v 0.00771556 -0.06301036 -0.08913411
v -0.01667440 -0.05145421 -0.09485129
v -0.01858035 -0.05144287 -0.09374494
v -0.01329637 -0.05668811 -0.09530868
v -0.01934479 -0.05212687 -0.09305579
v -0.02469075 -0.05293557 -0.07771520
v -0.02469075 -0.04808335 -0.08446456
v -0.02469075 -0.04805690 -0.08449238
v -0.02469075 -0.04702145 -0.08553074
v -0.01746467 -0.05460589 -0.09323503
v -0.01998528 -0.05298092 -0.09166821
v -0.01968569 -0.05482129 -0.08940297
v -0.00181936 -0.03738503 -0.09674878
v -0.00390092 -0.03895709 -0.09702073
v -0.00806922 -0.04182912 -0.09742557
v -0.01015078 -0.04520376 -0.09794167
v -0.01015078 -0.04728976 -0.09811473
v -0.01015078 -0.04937199 -0.09802819
v -0.01234082 -0.04939844 -0.09774697
v -0.01173649 -0.05145421 -0.09762953
v -0.01139559 -0.05290912 -0.09748738
v -0.01214971 -0.05357800 -0.09686930
v -0.02469075 -0.05389166 -0.07134286
v -0.01502154 -0.06879599 -0.06717704
v -0.02469075 -0.05345329 -0.07550868
v -0.01500605 -0.06864106 -0.06654351
v 0.02417180 -0.04754295 -0.06654351
v 0.02393937 -0.04775457 -0.06717704
v 0.02444556 -0.04671535 -0.06717704
v 0.02427511 -0.04636391 -0.06842246
v 0.00726619 -0.04789062 -0.09513870
v 0.00654823 -0.04723307 -0.09571969
v 0.00651207 -0.04520376 -0.09625123
v 0.00651207 -0.04312153 -0.09634703
v 0.00783952 -0.03946348 -0.09540138
v 0.00858331 -0.03738503 -0.09481112
v 0.00855748 -0.03884372 -0.09502435
v 0.00738499 -0.05854359 -0.09105632
v 0.00703892 -0.05395968 -0.09297545
v 0.00587675 -0.04882025 -0.09548482
v 0.02156855 -0.04920571 -0.07329597
v 0.01992086 -0.05222512 -0.07398512
v 0.01886717 -0.05354021 -0.07550868
v 0.01606764 -0.05909910 -0.07550868
v 0.01816470 -0.05498757 -0.07550868
v 0.01785996 -0.05643870 -0.07406857
v 0.01747774 -0.05759129 -0.07339486
v 0.01576806 -0.06060314 -0.07402221
v 0.01182703 -0.06305193 -0.08104662
v 0.01440446 -0.06196736 -0.07548705
v 0.00968349 -0.06505857 -0.08294410
v 0.00770006 -0.06935906 -0.07909350
v 0.00742114 -0.06905675 -0.08048108
v 0.00567531 -0.07139594 -0.07884628
v 0.00336131 -0.06289699 -0.09112431
v 0.00442534 -0.06977853 -0.08156889
v 0.00442534 -0.06901518 -0.08260725
v 0.00542222 -0.06706522 -0.08486632
v 0.00026738 -0.06514549 -0.08925155
v -0.00273876 -0.06294234 -0.09325358
v 0.00662054 -0.05995694 -0.09086781
v -0.00452591 -0.06110953 -0.09549101
v -0.00313648 -0.06048977 -0.09516960
v 0.00114545 -0.06062960 -0.09313923
v 0.00542222 -0.06076942 -0.09110886
v -0.01223235 -0.05562244 -0.09623578
v -0.01502671 -0.05390678 -0.09510471
v -0.01355980 -0.05562244 -0.09546319
v -0.01219619 -0.05750815 -0.09568261
v -0.01147823 -0.05904242 -0.09551264
v -0.01560521 -0.06742800 -0.06925995
v -0.02469075 -0.05302249 -0.07741544
v -0.01749049 -0.05881568 -0.08706974
v -0.01320340 -0.06700853 -0.08052126
v -0.01339968 -0.06719370 -0.07913367
v -0.01783139 -0.05498379 -0.09217194
v -0.01932413 -0.05437159 -0.09079364
v -0.00944315 -0.06115110 -0.09563316
v -0.01083259 -0.06043309 -0.09476477
v -0.01335836 -0.05882702 -0.09333392
v -0.00130284 -0.03738503 -0.09670861
v -0.00181936 -0.03895709 -0.09688785
v -0.00806922 -0.04520376 -0.09788295
v -0.00598249 -0.04182912 -0.09742248
v -0.00806922 -0.04312153 -0.09763572
v -0.00246500 -0.04684762 -0.09741939
v -0.00598249 -0.04728976 -0.09773769
v -0.00598249 -0.04520376 -0.09771606
v -0.00390092 -0.04520376 -0.09753682
v 0.00234377 -0.04520376 -0.09697746
v -0.00373047 -0.04744092 -0.09750901
v -0.00178837 -0.04744092 -0.09731432
v -0.00390092 -0.05354021 -0.09712272
v -0.00594633 -0.05370649 -0.09731741
v -0.00598249 -0.05562244 -0.09719379
v -0.00847727 -0.05562244 -0.09744412
v -0.00891630 -0.05680526 -0.09740085
v -0.00916423 -0.05680526 -0.09740085
v -0.01015078 -0.05145421 -0.09783351
v -0.00997517 -0.05757995 -0.09687549
v -0.01398334 -0.06962360 -0.06717704
v -0.01393685 -0.06959714 -0.06654351
v 0.02314910 -0.04937199 -0.06654351
v 0.02234850 -0.05073998 -0.06717704
v 0.02310778 -0.04937199 -0.06717704
v 0.02221420 -0.05057748 -0.06850590
v 0.00453381 -0.04945890 -0.09583404
v 0.00442534 -0.04728976 -0.09650464
v 0.00442534 -0.04520376 -0.09677351
v 0.00442534 -0.04312153 -0.09671479
v 0.00442534 -0.04103931 -0.09646138
v 0.00651207 -0.04103931 -0.09605345
v 0.00741081 -0.03807281 -0.09526540
v 0.00702342 -0.03738503 -0.09521905
v 0.00662054 -0.05779158 -0.09169912
v 0.00640877 -0.05554308 -0.09266023
v 0.00529825 -0.05021092 -0.09521905
v 0.00453381 -0.05162426 -0.09503054
v 0.00183242 -0.05354021 -0.09554354
v 0.00390882 -0.05104607 -0.09554045
v 0.01899113 -0.05562244 -0.07134286
v 0.01804590 -0.05682416 -0.07267790
v 0.01977624 -0.05401259 -0.07134286
v 0.01633623 -0.05985868 -0.07336705
v 0.01594885 -0.06090925 -0.07263463
v 0.01390344 -0.06304059 -0.07477626
v 0.01228674 -0.06401180 -0.07745870
v 0.01153262 -0.06474492 -0.07806440
v 0.01367100 -0.06272694 -0.07616384
v 0.00911015 -0.06807799 -0.07776774
v 0.00794799 -0.06964249 -0.07759158
v 0.00700793 -0.07068549 -0.07759158
v 0.00596973 -0.07166047 -0.07759158
v 0.00355759 -0.07343282 -0.07471136
v 0.00442534 -0.07211395 -0.07759158
v 0.00442534 -0.07145640 -0.07901007
v 0.00442534 -0.07082154 -0.08005152
v 0.00336648 -0.06915500 -0.08279577
v -0.00598249 -0.06145342 -0.09582167
v 0.00068575 -0.06691028 -0.08674525
v 0.00010209 -0.06626407 -0.08781452
v -0.00070368 -0.06709167 -0.08698940
v -0.00390092 -0.06308971 -0.09346063
v -0.00598249 -0.06249264 -0.09477713
v 0.00137272 -0.05465879 -0.09532721
v -0.00598249 -0.05978310 -0.09661280
v -0.00385960 -0.05979066 -0.09576913
v -0.00184518 -0.05762530 -0.09567334
v 0.00016407 -0.05545994 -0.09557753
v -0.00184518 -0.05979066 -0.09484202
v -0.01014045 -0.05975665 -0.09599473
v -0.01773842 -0.05697154 -0.08948641
v -0.01549157 -0.06096215 -0.08715937
v -0.01323956 -0.06495655 -0.08481068
v -0.01352364 -0.06536467 -0.08342312
v -0.01379223 -0.06574257 -0.08176049
v -0.01277986 -0.06678557 -0.08176049
v -0.01173649 -0.06737887 -0.08176049
v -0.01239763 -0.06768875 -0.07976720
v -0.01312592 -0.06906808 -0.07200728
v -0.01338418 -0.06923058 -0.07061971
v -0.01362178 -0.06938930 -0.06925995
v -0.01296580 -0.06258711 -0.08859021
v -0.00919006 -0.06296124 -0.09332775
v -0.01001132 -0.06174062 -0.09404471
v -0.00806922 -0.05978310 -0.09683532
v -0.00806922 -0.06148365 -0.09592983
v -0.00806922 -0.06252665 -0.09464733
v -0.01109084 -0.06281763 -0.09100378
v -0.01130262 -0.06093948 -0.09337410
v 0.00026738 -0.03738503 -0.09656027
v 0.00026738 -0.03895709 -0.09672406
v -0.00200530 -0.04331048 -0.09725252
v 0.00234377 -0.04312153 -0.09689403
v 0.00026738 -0.04728976 -0.09711654
v -0.00598249 -0.05770088 -0.09700219
v 0.00026738 -0.04937199 -0.09697438
v -0.00816219 -0.05757995 -0.09724324
v -0.01212388 -0.07074974 -0.06723884
v -0.01135427 -0.07133170 -0.06658678
v -0.01135427 -0.07133170 -0.06654351
v 0.02234333 -0.05072109 -0.06654351
v 0.02169768 -0.05178298 -0.06717704
v 0.00026738 -0.05354021 -0.09619870
v -0.00390092 -0.05770088 -0.09647683
v 0.00234377 -0.04937199 -0.09661280
v 0.00234377 -0.04728976 -0.09689713
v 0.00234377 -0.04103931 -0.09672097
v 0.00077873 -0.03738503 -0.09650155
v 0.00234377 -0.03895709 -0.09648919
v 0.00442534 -0.03895709 -0.09610599
v 0.00234377 -0.03738503 -0.09623887
v 0.00285513 -0.03738503 -0.09614307
v 0.00454931 -0.03738503 -0.09577222
v 0.01594885 -0.06090925 -0.07211854
v 0.00804613 -0.06969917 -0.07550868
v 0.00908433 -0.06853902 -0.07550868
v 0.01000373 -0.06749602 -0.07550868
v 0.01104709 -0.06629052 -0.07550868
v 0.01194583 -0.06524752 -0.07550868
v 0.00705441 -0.07073839 -0.07550868
v 0.00601105 -0.07173983 -0.07550868
v 0.00234377 -0.07343282 -0.07470208
v 0.00355759 -0.07344794 -0.07342576
v -0.00040410 -0.07569643 -0.06717704
v -0.00043509 -0.07565486 -0.06881493
v -0.00181936 -0.07573801 -0.06895709
v 0.00078389 -0.06925325 -0.08296882
v -0.00092578 -0.06709167 -0.08698940
v -0.00598249 -0.06320309 -0.09373567
v -0.00390092 -0.05562244 -0.09690949
v 0.00026738 -0.05145421 -0.09671788
v -0.01343583 -0.06307460 -0.08719954
v -0.01157637 -0.06330135 -0.08961312
v -0.01136460 -0.06511526 -0.08721499
v -0.01086358 -0.06900006 -0.07795316
v -0.01129745 -0.06711057 -0.08287921
v -0.00947414 -0.06932505 -0.07895444
v -0.00751654 -0.07152065 -0.07503894
v -0.01285217 -0.06890181 -0.07342576
v -0.00815186 -0.07170204 -0.07332069
v -0.00890597 -0.07112008 -0.07394495
v -0.01015078 -0.07002417 -0.07550868
v -0.01119931 -0.06916256 -0.07656249
v -0.01203091 -0.06847100 -0.07739071
v -0.01235631 -0.06968784 -0.07132431
v -0.01223235 -0.07023579 -0.06925995
v -0.00806922 -0.06308216 -0.09360588
v -0.00510957 -0.07339881 -0.07252955
v -0.01110634 -0.07119187 -0.06797435
v -0.00715498 -0.07340258 -0.06854608
v -0.00443810 -0.07512581 -0.06717704
v -0.00339473 -0.07570022 -0.06717704
v -0.00331726 -0.07565486 -0.06654351
v 0.02188880 -0.05144665 -0.06654351
v 0.02065432 -0.05336260 -0.06717704
v 0.01991570 -0.05440560 -0.06717704
v 0.01811305 -0.05684683 -0.06756024
v 0.01833516 -0.05627620 -0.06654351
v 0.01767401 -0.05708490 -0.06654351
v 0.01576290 -0.06068628 -0.07073096
v 0.01483833 -0.06187288 -0.07134903
v 0.01391377 -0.06302170 -0.07197020
v 0.01199232 -0.06528531 -0.07342576
v 0.00782919 -0.06943087 -0.07342576
v 0.00677033 -0.07047386 -0.07342576
v 0.00572696 -0.07149420 -0.07342576
v 0.00344396 -0.07337990 -0.07217725
v 0.01096445 -0.06632832 -0.07342576
v -0.00181936 -0.07526185 -0.06999855
v 0.00063410 -0.07476302 -0.06717704
v -0.00002704 -0.07517493 -0.06654351
v -0.00052290 -0.07561707 -0.06654351
v -0.00118920 -0.07575690 -0.06654351
v -0.00181936 -0.07599119 -0.06717704
v -0.00319846 -0.07560196 -0.06860788
v -0.00598249 -0.06401557 -0.09217194
v -0.00610645 -0.07385606 -0.06924759
v -0.00806922 -0.07221598 -0.07134286
v -0.00181936 -0.07583626 -0.06654351
v 0.02060783 -0.05327568 -0.06654351
v 0.02009131 -0.05400125 -0.06654351
v 0.01605215 -0.05893283 -0.06654351
v 0.01614512 -0.05904242 -0.06717704
v 0.01554080 -0.06043687 -0.06925995
v 0.01418235 -0.06125313 -0.06717704
v 0.01324746 -0.06229613 -0.06717704
v 0.01354187 -0.06263246 -0.06925995
v 0.01372782 -0.06283275 -0.07057954
v 0.01005021 -0.06540246 -0.06654351
v 0.00804096 -0.06756026 -0.06717704
v 0.00764324 -0.06924947 -0.07204746
v 0.00745730 -0.06906430 -0.07065989
v 0.00726619 -0.06887913 -0.06925995
v 0.00585609 -0.06953289 -0.06654351
v 0.00554618 -0.07131658 -0.07210000
v 0.00439951 -0.07225755 -0.07144484
v 0.00657922 -0.06882623 -0.06654351
v 0.00325284 -0.07319474 -0.07078968
v 0.00162581 -0.07363688 -0.06654351
v 0.00096467 -0.07427553 -0.06654351
v 0.01558728 -0.05945811 -0.06654351
v 0.01408422 -0.06114354 -0.06654351
v 0.01319581 -0.06213741 -0.06654351
v 0.01283424 -0.06253799 -0.06654351
v 0.01211112 -0.06331268 -0.06654351
v 0.01220409 -0.06340716 -0.06717704
v 0.01077334 -0.06468067 -0.06654351
v 0.00899652 -0.06644546 -0.06654351
v 0.00721970 -0.06819891 -0.06654351
v 0.00446666 -0.07088199 -0.06654351
f 1 2 3
f 1 3 6
f 1 6 17
f 1 17 50
f 1 50 109
f 1 109 187
f 1 187 267
f 1 267 266
f 1 266 265
f 1 265 262
f 1 262 244
f 1 244 154
f 1 154 86
f 1 86 32
f 1 32 14
f 1 14 4
f 1 4 15
f 1 15 42
f 1 42 99
f 1 99 175
f 1 175 254
f 1 254 307
f 1 307 333
f 1 333 327
f 1 327 326
f 1 326 325
f 1 325 354
f 1 354 353
f 1 353 364
f 1 364 348
f 1 348 351
f 1 351 363
f 1 363 362
f 1 362 343
f 1 343 361
f 1 361 359
f 1 359 358
f 1 358 357
f 1 357 356
f 1 356 355
f 1 355 336
f 1 336 313
f 1 313 312
f 1 312 335
f 1 335 334
f 1 334 308
f 1 308 255
f 1 255 176
f 1 176 100
f 1 100 43
f 1 43 16
f 1 16 5
f 1 5 2
f 2 5 3
f 3 5 7
f 3 7 8
f 3 8 9
f 3 9 10
f 3 10 11
f 3 11 12
f 3 12 13
f 3 13 6
f 4 14 31
f 4 31 82
f 4 82 81
f 4 81 80
f 4 80 79
f 4 79 145
f 4 145 98
f 4 98 96
f 4 96 40
f 4 40 15
f 5 16 7
f 6 13 18
f 6 18 17
f 7 16 8
f 8 16 19
f 8 19 9
f 9 19 10
f 10 19 20
f 10 20 21
f 10 21 22
f 10 22 11
f 11 22 12
f 12 22 23
f 12 23 24
f 12 24 25
f 12 25 26
f 12 26 27
f 12 27 13
f 13 27 28
f 13 28 18
f 14 29 30
f 14 30 31
f 14 32 33
f 14 33 34
f 14 34 35
f 14 35 36
f 14 36 37
f 14 37 38
f 14 38 39
f 14 39 29
f 15 40 41
f 15 41 42
f 16 43 44
f 16 44 45
f 16 45 19
f 17 18 46
f 17 46 47
f 17 47 48
f 17 48 49
f 17 49 50
f 18 28 51
f 18 51 52
f 18 52 46
f 19 45 20
f 20 45 53
f 20 53 54
f 20 54 55
f 20 55 56
f 20 56 57
f 20 57 24
f 20 24 21
f 21 24 23
f 21 23 22
f 24 57 58
f 24 58 59
f 24 59 60
f 24 60 61
f 24 61 25
f 25 61 26
f 26 62 27
f 26 61 63
f 26 63 60
f 26 60 64
f 26 64 62
f 27 62 64
f 27 64 65
f 27 65 66
f 27 66 67
f 27 67 68
f 27 68 69
f 27 69 70
f 27 70 71
f 27 71 72
f 27 72 73
f 27 73 74
f 27 74 28
f 28 74 51
f 29 75 76
f 29 76 77
f 29 77 78
f 29 78 30
f 29 39 75
f 30 79 80
f 30 80 81
f 30 81 82
f 30 82 31
f 30 78 83
f 30 83 84
f 30 84 85
f 30 85 79
f 32 86 87
f 32 87 88
f 32 88 34
f 32 34 33
f 34 88 89
f 34 89 35
f 35 89 36
f 36 89 37
f 37 89 90
f 37 90 91
f 37 91 92
f 37 92 39
f 37 39 38
f 39 92 93
f 39 93 94
f 39 94 95
f 39 95 75
f 40 96 41
f 41 97 42
f 41 96 98
f 41 98 97
f 42 97 99
f 43 100 101
f 43 101 102
f 43 102 44
f 44 53 45
f 44 102 103
f 44 103 54
f 44 54 53
f 46 52 104
f 46 104 105
f 46 105 106
f 46 106 47
f 47 106 48
f 48 106 107
f 48 107 49
f 49 108 109
f 49 109 110
f 49 110 50
f 49 107 108
f 50 110 109
f 51 74 111
f 51 111 52
f 52 111 112
f 52 112 113
f 52 113 104
f 54 114 55
f 54 103 114
f 55 114 115
f 55 115 116
f 55 116 58
f 55 58 56
f 56 58 57
f 58 117 59
f 58 116 118
f 58 118 119
f 58 119 120
f 58 120 121
f 58 121 117
f 59 117 60
f 60 63 61
f 60 117 121
f 60 121 64
f 64 121 66
f 64 66 65
f 66 122 67
f 66 121 123
f 66 123 122
f 67 122 68
f 68 124 125
f 68 125 69
f 68 122 124
f 69 125 126
f 69 126 70
f 70 72 71
f 70 126 127
f 70 127 72
f 72 128 74
f 72 74 73
f 72 127 129
f 72 129 130
f 72 130 131
f 72 131 132
f 72 132 133
f 72 133 128
f 74 134 111
f 74 128 135
f 74 135 136
f 74 136 137
f 74 137 138
f 74 138 134
f 75 95 139
f 75 139 140
f 75 140 76
f 76 140 77
f 77 140 141
f 77 141 139
f 77 139 142
f 77 142 143
f 77 143 78
f 78 143 83
f 79 144 145
f 79 85 146
f 79 146 147
f 79 147 148
f 79 148 144
f 83 149 150
f 83 150 84
f 83 143 151
f 83 151 152
f 83 152 153
f 83 153 149
f 84 150 85
f 85 150 146
f 86 154 155
f 86 155 156
f 86 156 87
f 87 156 157
f 87 157 158
f 87 158 88
f 88 158 89
f 89 158 156
f 89 156 90
f 90 159 160
f 90 160 91
f 90 156 161
f 90 161 162
f 90 162 163
f 90 163 159
f 91 160 159
f 91 159 164
f 91 164 165
f 91 165 166
f 91 166 167
f 91 167 168
f 91 168 169
f 91 169 170
f 91 170 171
f 91 171 172
f 91 172 92
f 92 172 93
f 93 172 171
f 93 171 94
f 94 171 173
f 94 173 139
f 94 139 95
f 97 148 174
f 97 174 175
f 97 175 99
f 97 98 145
f 97 145 144
f 97 144 148
f 100 176 177
f 100 177 178
f 100 178 101
f 101 178 179
f 101 179 102
f 102 179 119
f 102 119 115
f 102 115 103
f 103 115 114
f 104 113 105
f 105 113 180
f 105 180 181
f 105 181 106
f 106 181 182
f 106 182 107
f 107 182 183
f 107 183 184
f 107 184 185
f 107 185 108
f 108 186 109
f 108 185 186
f 109 186 187
f 111 134 188
f 111 188 189
f 111 189 112
f 112 189 113
f 113 189 190
f 113 190 191
f 113 191 192
f 113 192 193
f 113 193 180
f 115 119 116
f 116 119 118
f 119 194 195
f 119 195 120
f 119 179 196
f 119 196 194
f 120 197 121
f 120 195 194
f 120 194 197
f 121 197 198
f 121 198 199
f 121 199 123
f 122 200 201
f 122 201 124
f 122 123 202
f 122 202 199
f 122 199 200
f 123 199 202
f 124 203 125
f 124 201 203
f 125 203 204
f 125 204 205
f 125 205 126
f 126 205 206
f 126 206 127
f 127 206 207
f 127 207 208
f 127 208 209
f 127 209 210
f 127 210 211
f 127 211 129
f 128 133 212
f 128 212 135
f 129 211 130
f 130 211 131
f 131 211 213
f 131 213 132
f 132 213 214
f 132 214 133
f 133 215 216
f 133 216 217
f 133 217 212
f 133 214 215
f 134 138 137
f 134 137 218
f 134 218 189
f 134 189 188
f 135 212 219
f 135 219 220
f 135 220 136
f 136 220 221
f 136 221 222
f 136 222 223
f 136 223 137
f 137 222 218
f 137 223 222
f 139 173 142
f 139 141 140
f 142 173 224
f 142 224 143
f 143 224 151
f 146 150 225
f 146 225 226
f 146 226 227
f 146 227 228
f 146 228 229
f 146 229 147
f 147 229 228
f 147 228 227
f 147 227 230
f 147 230 231
f 147 231 232
f 147 232 233
f 147 233 234
f 147 234 235
f 147 235 174
f 147 174 148
f 149 226 225
f 149 225 150
f 149 153 236
f 149 236 226
f 151 237 238
f 151 238 152
f 151 224 239
f 151 239 240
f 151 240 241
f 151 241 237
f 152 238 242
f 152 242 243
f 152 243 153
f 153 243 236
f 154 244 245
f 154 245 155
f 155 245 156
f 156 158 157
f 156 245 246
f 156 246 247
f 156 247 161
f 159 165 164
f 159 163 182
f 159 182 248
f 159 248 165
f 161 247 183
f 161 183 162
f 162 183 163
f 163 183 182
f 165 248 166
f 166 249 168
f 166 168 167
f 166 248 250
f 166 250 249
f 168 249 170
f 168 170 169
f 170 249 251
f 170 251 239
f 170 239 171
f 171 239 173
f 173 239 224
f 174 235 252
f 174 252 253
f 174 253 254
f 174 254 175
f 176 255 177
f 177 255 256
f 177 256 198
f 177 198 178
f 178 198 179
f 179 198 194
f 179 194 196
f 180 257 181
f 180 193 220
f 180 220 257
f 181 257 258
f 181 258 219
f 181 219 259
f 181 259 260
f 181 260 182
f 182 260 248
f 183 247 261
f 183 261 244
f 183 244 262
f 183 262 263
f 183 263 184
f 184 264 185
f 184 263 265
f 184 265 266
f 184 266 264
f 185 264 267
f 185 267 187
f 185 187 186
f 189 218 191
f 189 191 190
f 191 218 192
f 192 218 222
f 192 222 221
f 192 221 193
f 193 221 220
f 194 198 197
f 198 256 268
f 198 268 269
f 198 269 270
f 198 270 271
f 198 271 272
f 198 272 273
f 198 273 199
f 199 273 204
f 199 204 203
f 199 203 200
f 200 203 201
f 204 273 272
f 204 272 271
f 204 271 270
f 204 270 269
f 204 269 205
f 205 269 274
f 205 274 275
f 205 275 206
f 206 275 207
f 207 276 208
f 207 275 277
f 207 277 278
f 207 278 279
f 207 279 280
f 207 280 276
f 208 276 209
f 209 276 281
f 209 281 282
f 209 282 215
f 209 215 210
f 210 215 211
f 211 215 213
f 212 217 240
f 212 240 239
f 212 239 219
f 213 215 214
f 215 282 283
f 215 283 217
f 215 217 216
f 217 283 241
f 217 241 240
f 219 258 220
f 219 239 249
f 219 249 284
f 219 284 285
f 219 285 259
f 220 258 257
f 226 236 286
f 226 286 227
f 227 286 236
f 227 236 287
f 227 287 288
f 227 288 230
f 230 288 231
f 231 289 232
f 231 288 290
f 231 290 291
f 231 291 292
f 231 292 289
f 232 293 233
f 232 289 294
f 232 294 295
f 232 295 296
f 232 296 297
f 232 297 298
f 232 298 293
f 233 293 298
f 233 298 297
f 233 297 299
f 233 299 300
f 233 300 234
f 234 300 235
f 235 300 252
f 236 243 287
f 237 290 288
f 237 288 242
f 237 242 238
f 237 241 301
f 237 301 302
f 237 302 290
f 239 251 249
f 241 283 301
f 242 288 287
f 242 287 243
f 244 261 245
f 245 261 247
f 245 247 246
f 248 260 250
f 249 250 260
f 249 260 284
f 252 300 303
f 252 303 304
f 252 304 253
f 253 304 305
f 253 305 306
f 253 306 254
f 254 306 307
f 255 308 256
f 256 308 268
f 259 285 260
f 260 285 284
f 262 265 263
f 264 266 267
f 268 308 309
f 268 309 310
f 268 310 311
f 268 311 312
f 268 312 313
f 268 313 314
f 268 314 315
f 268 315 316
f 268 316 317
f 268 317 269
f 269 317 274
f 274 318 319
f 274 319 320
f 274 320 321
f 274 321 275
f 274 317 322
f 274 322 318
f 275 321 277
f 276 280 323
f 276 323 281
f 277 321 278
f 278 321 324
f 278 324 325
f 278 325 326
f 278 326 327
f 278 327 328
f 278 328 279
f 279 328 280
f 280 328 329
f 280 329 323
f 281 323 330
f 281 330 282
f 282 330 283
f 283 330 301
f 289 292 329
f 289 329 294
f 290 302 291
f 291 302 329
f 291 329 292
f 294 329 331
f 294 331 295
f 295 297 296
f 295 331 332
f 295 332 297
f 297 332 304
f 297 304 299
f 299 304 300
f 300 304 303
f 301 330 323
f 301 323 302
f 302 323 329
f 304 332 331
f 304 331 329
f 304 329 305
f 305 329 306
f 306 329 328
f 306 328 307
f 307 328 333
f 308 334 309
f 309 334 310
f 310 334 335
f 310 335 312
f 310 312 311
f 313 336 337
f 313 337 314
f 314 338 339
f 314 339 340
f 314 340 341
f 314 341 315
f 314 337 336
f 314 336 338
f 315 341 342
f 315 342 316
f 316 342 343
f 316 343 344
f 316 344 345
f 316 345 322
f 316 322 317
f 318 345 319
f 318 322 345
f 319 345 346
f 319 346 347
f 319 347 320
f 320 348 349
f 320 349 350
f 320 350 321
f 320 347 351
f 320 351 348
f 321 350 352
f 321 352 353
f 321 353 354
f 321 354 324
f 324 354 325
f 327 333 328
f 336 355 338
f 338 355 339
f 339 355 356
f 339 356 357
f 339 357 340
f 340 357 358
f 340 358 359
f 340 359 341
f 341 359 360
f 341 360 342
f 342 360 361
f 342 361 343
f 343 362 344
f 344 362 363
f 344 363 347
f 344 347 346
f 344 346 345
f 347 363 351
f 348 364 350
f 348 350 349
f 350 364 352
f 352 364 353
f 359 361 360

