# https://github.com/mikedh/trimesh
v 0.02942715 -0.02468466 -0.09710879
v 0.02734264 -0.02645496 -0.09709682
v 0.02525812 -0.02645496 -0.09708186
v 0.02734264 -0.02468466 -0.09709083
v 0.02948790 -0.02468466 -0.09710281
v 0.02948790 -0.02645496 -0.09705494
v 0.02942715 -0.02645496 -0.09705793
v -0.00181823 -0.03738503 -0.09674976
v 0.02109228 -0.02645496 -0.09703100
v 0.02140560 -0.02468466 -0.09701604
v 0.02948790 -0.02468466 -0.07050479
v 0.02948790 -0.02853853 -0.09645656
v 0.02942715 -0.02853853 -0.09646253
v -0.00130349 -0.03738503 -0.09670787
v -0.00317380 -0.03738503 -0.09671984
v 0.02109228 -0.02468466 -0.09701005
v 0.02946872 -0.02638161 -0.06654950
v 0.02948790 -0.02641269 -0.07186013
v 0.02927689 -0.02468466 -0.06654950
v 0.02948790 -0.03021932 -0.09559788
v 0.00077783 -0.03738503 -0.09650143
v 0.00026629 -0.03738503 -0.09655828
v -0.00317380 -0.03738503 -0.06654351
v -0.00317380 -0.03705061 -0.09669291
v -0.00317380 -0.03687035 -0.09667496
v 0.01901096 -0.02468466 -0.09672882
v 0.02943355 -0.02853853 -0.06654950
v 0.02948790 -0.03606974 -0.08231084
v 0.02948790 -0.03524924 -0.08130556
v 0.02948790 -0.02818298 -0.07340395
v 0.01083275 -0.02468466 -0.06654351
v 0.01083275 -0.03738503 -0.06654351
v 0.02948790 -0.03270196 -0.09430537
v 0.00234761 -0.03738503 -0.09623516
v 0.02948790 -0.03417264 -0.09348859
v -0.00317380 -0.02468466 -0.06654351
v -0.00317380 -0.03467613 -0.09600478
v -0.00317380 -0.03376612 -0.09560386
v -0.00317380 -0.03350878 -0.09548419
v 0.01724296 -0.02468466 -0.09618429
v 0.02916819 -0.03062211 -0.06654950
v 0.02948790 -0.03608590 -0.08234076
v 0.02807478 -0.03738503 -0.06654950
v 0.02814192 -0.03713515 -0.06654950
v 0.02831776 -0.03632459 -0.06654950
v 0.02840408 -0.03589321 -0.06654950
v 0.02857672 -0.03478678 -0.06654950
v 0.02888045 -0.03265098 -0.06654950
v 0.00286235 -0.03738503 -0.09614240
v 0.02948790 -0.03420248 -0.09347064
v -0.00317380 -0.02468466 -0.08719063
v -0.00317380 -0.03170865 -0.09388351
v 0.01300359 -0.02468466 -0.09461354
v 0.01443270 -0.02468466 -0.09518500
v 0.01554849 -0.02468466 -0.09559190
v 0.01692645 -0.02468466 -0.09608556
v 0.02948790 -0.03651480 -0.08383970
v 0.02284430 -0.03738503 -0.08325927
v 0.02948790 -0.03724828 -0.08800742
v 0.02948790 -0.03723833 -0.08794758
v 0.00455042 -0.03738503 -0.09577140
v 0.02948790 -0.03521194 -0.09269274
v 0.02948790 -0.03525421 -0.09265983
v 0.02948790 -0.03628730 -0.09164857
v -0.00317380 -0.02740848 -0.08984146
v 0.01095104 -0.02468466 -0.09372196
v -0.00317380 -0.03065070 -0.09292312
v 0.02001805 -0.03738503 -0.08800742
v 0.02948790 -0.03709412 -0.09008679
v 0.01856337 -0.03738503 -0.08935079
v 0.01043631 -0.03738503 -0.09386856
v 0.00858838 -0.03738503 -0.09481101
v 0.00525379 -0.03738503 -0.09561583
v 0.00702499 -0.03738503 -0.09521491
v -0.00317380 -0.02849129 -0.09089161
v -0.00317380 -0.02953432 -0.09189390
f 1 2 3
f 1 3 4
f 1 4 10
f 1 10 16
f 1 16 26
f 1 26 40
f 1 40 56
f 1 56 55
f 1 55 54
f 1 54 53
f 1 53 66
f 1 66 51
f 1 51 36
f 1 36 31
f 1 31 19
f 1 19 11
f 1 11 5
f 1 5 6
f 1 6 7
f 1 7 2
f 2 7 8
f 2 8 3
f 3 9 4
f 3 8 9
f 4 9 10
f 5 11 18
f 5 18 30
f 5 30 29
f 5 29 28
f 5 28 42
f 5 42 57
f 5 57 60
f 5 60 59
f 5 59 69
f 5 69 64
f 5 64 63
f 5 63 62
f 5 62 50
f 5 50 35
f 5 35 33
f 5 33 20
f 5 20 12
f 5 12 6
f 6 12 13
f 6 13 14
f 6 14 8
f 6 8 7
f 8 14 22
f 8 22 21
f 8 21 34
f 8 34 49
f 8 49 61
f 8 61 73
f 8 73 74
f 8 74 72
f 8 72 71
f 8 71 70
f 8 70 68
f 8 68 58
f 8 58 43
f 8 43 32
f 8 32 23
f 8 23 15
f 8 15 16
f 8 16 10
f 8 10 9
f 11 17 18
f 11 19 17
f 12 20 21
f 12 21 22
f 12 22 13
f 13 22 14
f 15 23 36
f 15 36 51
f 15 51 65
f 15 65 75
f 15 75 76
f 15 76 67
f 15 67 52
f 15 52 39
f 15 39 38
f 15 38 37
f 15 37 25
f 15 25 24
f 15 24 16
f 16 24 25
f 16 25 26
f 17 27 28
f 17 28 29
f 17 29 30
f 17 30 18
f 17 19 31
f 17 31 32
f 17 32 27
f 20 33 21
f 21 33 35
f 21 35 34
f 23 32 31
f 23 31 36
f 25 37 26
f 26 37 38
f 26 38 39
f 26 39 40
f 27 41 42
f 27 42 28
f 27 32 41
f 32 43 44
f 32 44 45
f 32 45 46
f 32 46 47
f 32 47 48
f 32 48 41
f 34 35 50
f 34 50 49
f 39 52 53
f 39 53 54
f 39 54 55
f 39 55 56
f 39 56 40
f 41 48 42
f 42 48 47
f 42 47 46
f 42 46 45
f 42 45 44
f 42 44 57
f 43 58 59
f 43 59 60
f 43 60 57
f 43 57 44
f 49 50 62
f 49 62 63
f 49 63 64
f 49 64 61
f 51 66 65
f 52 67 66
f 52 66 53
f 58 68 59
f 59 68 70
f 59 70 71
f 59 71 72
f 59 72 69
f 61 64 73
f 64 69 74
f 64 74 73
f 65 66 75
f 66 67 76
f 66 76 75
f 69 72 74

