# https://github.com/mikedh/trimesh
v 0.10442161 0.00479124 0.04184717
v 0.10442161 0.00271198 0.04186979
v 0.10233629 0.00479124 0.04186414
v 0.10442161 0.00624567 0.04201116
v 0.10594187 0.00612211 0.04207336
v 0.10658091 0.00465357 0.04204509
v 0.10650692 0.00271198 0.04196027
v 0.10650692 0.00062919 0.04190372
v 0.10650692 -0.00145360 0.04190937
v 0.10442161 0.00062919 0.04189806
v 0.09817239 0.00271198 0.04192634
v 0.10233629 0.00618919 0.04202813
v 0.09608707 0.00271198 0.04194896
v 0.09400176 0.00271198 0.04197723
v 0.10025097 0.00479124 0.04190372
v 0.10025097 0.00611858 0.04205074
v 0.10442161 0.00728706 0.04254270
v 0.10650692 0.00857204 0.04375846
v 0.10658091 0.00683873 0.04265580
v 0.10732759 0.00525722 0.04226562
v 0.10756303 0.00387340 0.04218080
v 0.10766393 0.00271198 0.04212425
v 0.10780519 0.00062919 0.04205640
v 0.10787919 -0.00145360 0.04205074
v 0.10778501 -0.00286919 0.04210164
v 0.10650692 -0.00292567 0.04206206
v 0.10442161 -0.00145360 0.04197723
v 0.10025097 0.00062919 0.04193765
v 0.09400176 0.00143760 0.04210164
v 0.08775254 0.00361217 0.04213556
v 0.08775254 0.00400755 0.04213556
v 0.08983786 0.00424054 0.04209033
v 0.09817239 0.00602680 0.04209598
v 0.10233629 0.00723058 0.04258228
v 0.10025097 0.00992762 0.04432393
v 0.10233629 0.00890740 0.04362275
v 0.10233629 0.00994880 0.04431827
v 0.10442161 0.00881209 0.04358317
v 0.10650692 0.00961344 0.04457274
v 0.10760339 0.01420970 0.04841227
v 0.10783210 0.00823314 0.04404685
v 0.10855187 0.00680696 0.04368495
v 0.10982323 0.00606563 0.04414298
v 0.10839043 0.00465357 0.04285371
v 0.11372479 0.00334388 0.04641051
v 0.11019994 0.00271198 0.04387721
v 0.10870659 0.00271198 0.04283674
v 0.11038157 0.00062919 0.04375280
v 0.10884113 0.00062919 0.04271234
v 0.10892185 -0.00145360 0.04261056
v 0.11035465 -0.00145360 0.04365102
v 0.10995777 -0.00353639 0.04390548
v 0.10852496 -0.00355051 0.04284805
v 0.10650692 -0.00396707 0.04254835
v 0.10442161 -0.00266797 0.04211860
v 0.09871726 -0.00056753 0.04211860
v 0.10025097 -0.00074051 0.04207336
v 0.08664934 0.00372867 0.04218080
v 0.09269003 0.00157174 0.04214687
v 0.08664934 0.00381692 0.04218080
v 0.08775254 0.00504542 0.04240699
v 0.09482243 0.00585735 0.04218080
v 0.09608707 0.00592442 0.04214687
v 0.10025097 0.00715998 0.04264449
v 0.10025097 0.00888622 0.04369060
v 0.09817239 0.01247992 0.04608254
v 0.09608707 0.00971228 0.04445399
v 0.08983786 0.01592182 0.04864412
v 0.09192317 0.01602773 0.04858191
v 0.10025097 0.01239873 0.04611081
v 0.10442161 0.00985349 0.04440309
v 0.09400176 0.01606303 0.04858191
v 0.10650692 0.01093724 0.04561320
v 0.10779174 0.01638427 0.05038010
v 0.10839043 0.01503928 0.04963369
v 0.10899584 0.01356368 0.04888161
v 0.10808100 0.01056305 0.04594117
v 0.10650692 0.01197864 0.04643879
v 0.10650692 0.01312594 0.04737181
v 0.10650692 0.01429442 0.04833876
v 0.10650692 0.01533935 0.04920959
v 0.10650692 0.01651136 0.05025005
v 0.10922455 0.00745298 0.04460666
v 0.10970889 0.01217633 0.04837834
v 0.11009231 0.00843083 0.04599207
v 0.11147803 0.00765773 0.04654622
v 0.11291757 0.00706113 0.04727003
v 0.11210363 0.00627038 0.04606558
v 0.11001159 0.00479124 0.04400727
v 0.11574956 0.00558200 0.04857626
v 0.11496925 0.00485126 0.04769413
v 0.11603881 0.00419818 0.04829352
v 0.11383242 0.00195653 0.04633135
v 0.11142422 0.00062919 0.04449923
v 0.11383242 0.00157174 0.04633135
v 0.11139731 -0.00145360 0.04471410
v 0.11357680 0.00018439 0.04671021
v 0.11186147 -0.00280565 0.04612778
v 0.10966180 -0.00460603 0.04422780
v 0.10858551 -0.00475782 0.04387155
v 0.10650692 -0.00500846 0.04358882
v 0.10442161 -0.00511084 0.04376411
v 0.10442161 -0.00370937 0.04272365
v 0.10329822 -0.00252324 0.04218080
v 0.07802556 -0.00057812 0.04626914
v 0.08095173 0.00193888 0.04439744
v 0.08159078 0.00266609 0.04391679
v 0.07943147 0.00341801 0.04413167
v 0.07834845 0.00373220 0.04426738
v 0.06759227 0.00559965 0.04628045
v 0.06759227 0.00606210 0.04628045
v 0.07798520 0.00600562 0.04420518
v 0.08584213 0.00462180 0.04252574
v 0.08151005 0.00669400 0.04387155
v 0.08346083 0.00707172 0.04377542
v 0.08567396 0.00687404 0.04341918
v 0.08775254 0.00687404 0.04325519
v 0.08983786 0.00687404 0.04311948
v 0.08983786 0.00938751 0.04465190
v 0.09817239 0.00706819 0.04271234
v 0.08983786 0.01857297 0.05034053
v 0.08882210 0.01208101 0.04636527
v 0.08775254 0.01097607 0.04576588
v 0.08775254 0.01312594 0.04708342
v 0.08775254 0.01729152 0.04963934
v 0.08775254 0.01850942 0.05040272
v 0.08983786 0.01729152 0.04950362
v 0.09192317 0.01850589 0.05037445
v 0.09608707 0.01597830 0.04866673
v 0.10460323 0.01124790 0.04558492
v 0.10542390 0.01207748 0.04636527
v 0.09817239 0.01481335 0.04790335
v 0.10822226 0.01662785 0.05157325
v 0.10926492 0.01594653 0.05157325
v 0.10989051 0.01448152 0.05027267
v 0.10444178 0.01777868 0.05172027
v 0.10376237 0.01838940 0.05251758
v 0.10514810 0.01828703 0.05277770
v 0.09505114 0.01833292 0.05052713
v 0.09643687 0.01824466 0.05063457
v 0.09817239 0.01812464 0.05079855
v 0.10025097 0.01796931 0.05103605
v 0.11172693 0.01001234 0.04843489
v 0.11435711 0.00646101 0.04799383
v 0.11576974 0.00778482 0.05067981
v 0.11622717 0.00639746 0.04996166
v 0.11641552 0.00485126 0.04935661
v 0.11373825 0.00785189 0.04849709
v 0.11184801 0.01225046 0.05038010
v 0.11506343 0.00712468 0.04923220
v 0.11603881 0.00338977 0.04829352
v 0.11573611 0.00200242 0.04867804
v 0.11401404 -0.00087465 0.04809561
v 0.11451855 -0.00152420 0.04938488
v 0.11230544 -0.00351521 0.04737181
v 0.11196237 -0.00481431 0.04804472
v 0.11373152 -0.00664999 0.05478511
v 0.10858551 -0.00523792 0.04531915
v 0.11379206 -0.00457072 0.05053844
v 0.10650692 -0.00571449 0.04531915
v 0.10233629 -0.00677707 0.04618998
v 0.10025097 -0.00691122 0.04606558
v 0.10233629 -0.00494492 0.04401292
v 0.09852891 -0.00684414 0.04619563
v 0.08631300 -0.00673471 0.04837834
v 0.08492728 -0.00657232 0.04853102
v 0.07109694 -0.00505789 0.05018219
v 0.07526084 -0.00405179 0.04875156
v 0.07526084 -0.00301040 0.04815216
v 0.07373385 -0.00272445 0.04832179
v 0.07234140 -0.00237497 0.04849709
v 0.07733943 0.00053741 0.04593552
v 0.07943147 0.00237662 0.04458970
v 0.07526084 0.00271198 0.04550576
v 0.07146692 0.00336506 0.04618998
v 0.07008119 0.00377103 0.04637093
v 0.06691286 0.00486185 0.04673848
v 0.06484772 0.00479124 0.04732657
v 0.06159867 0.00566319 0.04836703
v 0.06484772 0.00687404 0.04719086
v 0.06691286 0.00680343 0.04671021
v 0.06901162 0.00642924 0.04612778
v 0.07943147 0.00631627 0.04406947
v 0.07106330 0.00700818 0.04595814
v 0.07035026 0.00778835 0.04641617
v 0.07731251 0.00677166 0.04466321
v 0.07943147 0.00735767 0.04452184
v 0.07612187 0.01006529 0.04633135
v 0.08151005 0.00773539 0.04436351
v 0.08267380 0.00789778 0.04429000
v 0.08567396 0.00810606 0.04416560
v 0.08775254 0.00823314 0.04408643
v 0.08983786 0.01949081 0.05157325
v 0.09192317 0.01939902 0.05157325
v 0.08567396 0.00914745 0.04480458
v 0.08567396 0.01188332 0.04648402
v 0.08567396 0.01566059 0.04880810
v 0.08467166 0.01832586 0.05053278
v 0.08775254 0.01935313 0.05157325
v 0.10959452 0.01622894 0.05277770
v 0.10571988 0.01847765 0.05416309
v 0.11365753 0.01402260 0.05510177
v 0.11178075 0.01424500 0.05251758
v 0.11061700 0.01480629 0.05172027
v 0.11127623 0.01363781 0.05112652
v 0.10233629 0.01849177 0.05233663
v 0.10025097 0.01864357 0.05207651
v 0.09821948 0.01992854 0.05379554
v 0.10025097 0.02028156 0.05492648
v 0.10025097 0.02087816 0.05597259
v 0.10182505 0.02066988 0.05632884
v 0.09817239 0.01879184 0.05183902
v 0.09400176 0.01915191 0.05157325
v 0.09587854 0.01882008 0.05142622
v 0.11570248 0.00978641 0.05285121
v 0.11611954 0.01040066 0.05424226
v 0.11617336 0.00839906 0.05206520
v 0.11381224 0.01001940 0.05051016
v 0.11647606 0.00700465 0.05144884
v 0.11636844 0.00270139 0.04941881
v 0.11697385 0.00479124 0.05157325
v 0.11613972 0.00105634 0.05006344
v 0.11594465 -0.00263973 0.05250627
v 0.11548049 0.00047033 0.04941881
v 0.11557467 -0.00145360 0.05101909
v 0.11601191 -0.00485667 0.05442887
v 0.11422930 -0.00502611 0.05192384
v 0.11488853 -0.00542149 0.05369941
v 0.11234579 -0.00680531 0.05418006
v 0.10858551 -0.00581687 0.04740574
v 0.11473382 -0.00609575 0.05558242
v 0.11396696 -0.00674883 0.05617617
v 0.11292430 -0.00697476 0.05558242
v 0.09307346 -0.01294072 0.06084129
v 0.11561503 -0.00402708 0.05303781
v 0.10338567 -0.00666411 0.04635962
v 0.09776205 -0.00888810 0.05011434
v 0.10025097 -0.00752899 0.04740574
v 0.09608707 -0.00852803 0.04896643
v 0.09608707 -0.00748663 0.04751318
v 0.09400176 -0.00734543 0.04769978
v 0.09192317 -0.00719716 0.04788073
v 0.08983786 -0.00703830 0.04806168
v 0.08775254 -0.00686179 0.04824829
v 0.09400176 -0.00838682 0.04922089
v 0.07646494 -0.00663234 0.05057802
v 0.07526084 -0.00652643 0.05075331
v 0.07317553 -0.00632874 0.05106432
v 0.06961703 -0.00481431 0.05036880
v 0.07109694 -0.00353639 0.04935095
v 0.07109694 -0.00201489 0.04866108
v 0.06837258 -0.00018274 0.04854798
v 0.06692631 0.00128227 0.04827090
v 0.07109694 -0.00097350 0.04819739
v 0.07109694 0.00062919 0.04749056
v 0.06901162 0.00271198 0.04710604
v 0.06692631 0.00271198 0.04764323
v 0.06582311 0.00161764 0.04841793
v 0.04825266 0.00073157 0.05502261
v 0.04825266 0.00271198 0.05416309
v 0.06159867 0.00618919 0.04836703
v 0.04825266 0.00479124 0.05403304
v 0.04825266 0.00633039 0.05402173
v 0.06265478 0.00688110 0.04799383
v 0.06327365 0.00839553 0.04821436
v 0.06487463 0.00903802 0.04803341
v 0.06692631 0.00895683 0.04756973
v 0.06901162 0.00747063 0.04654622
v 0.07317553 0.00839906 0.04615039
v 0.06692631 0.01312594 0.04938488
v 0.06987265 0.01216221 0.04841227
v 0.06911253 0.01296355 0.04890988
v 0.06692631 0.01488749 0.05018219
v 0.07109694 0.01342953 0.04879679
v 0.07734615 0.01022062 0.04623521
v 0.08151005 0.01055599 0.04602034
v 0.08346083 0.00879797 0.04477631
v 0.06850711 0.01616187 0.05058933
v 0.06989284 0.01626778 0.05051582
v 0.07526084 0.01520873 0.04940750
v 0.08983786 0.02029215 0.05307740
v 0.09192317 0.02026744 0.05299823
v 0.09400176 0.02013683 0.05313959
v 0.08151005 0.01706912 0.05002386
v 0.08151005 0.01811052 0.05074766
v 0.08151005 0.01880596 0.05179378
v 0.08548561 0.01896835 0.05136402
v 0.08775254 0.02022155 0.05334317
v 0.07943147 0.01867534 0.05196342
v 0.10596205 0.01861180 0.05573510
v 0.10877385 0.01677965 0.05354108
v 0.10974251 0.01631367 0.05416309
v 0.11095334 0.01582651 0.05573510
v 0.11391314 0.01423088 0.05649283
v 0.10219502 0.02089228 0.05782168
v 0.10442161 0.01941314 0.05573510
v 0.11606573 0.01234930 0.05641932
v 0.11424948 0.01263172 0.05407262
v 0.09608707 0.01998503 0.05336013
v 0.09755351 0.02047925 0.05458720
v 0.09608707 0.02058163 0.05440625
v 0.09821948 0.02092758 0.05557111
v 0.09817239 0.02195133 0.05782168
v 0.10025097 0.02164420 0.05782168
v 0.11563522 0.01178801 0.05502826
v 0.11628772 0.01107492 0.05572945
v 0.11687294 0.00271198 0.05157325
v 0.11638862 0.00047033 0.05140360
v 0.11685276 0.00687404 0.05365418
v 0.11680568 0.00687404 0.05573510
v 0.11692004 0.00479124 0.05365418
v 0.11684604 0.00271198 0.05365418
v 0.11645588 -0.00145360 0.05365418
v 0.11632135 -0.00353639 0.05573510
v 0.11604555 -0.00492374 0.05573510
v 0.11396696 -0.00674883 0.05697348
v 0.11067082 -0.00781141 0.05782168
v 0.10839716 -0.00847154 0.05796305
v 0.09423719 -0.01269008 0.06198919
v 0.09319454 -0.01297602 0.06198919
v 0.09192317 -0.01322666 0.06198919
v 0.09192317 -0.01304663 0.06061510
v 0.09400176 -0.01186756 0.05782168
v 0.09608707 -0.01069554 0.05517529
v 0.10233629 -0.01030017 0.05990261
v 0.09834056 -0.00855627 0.04944708
v 0.09400176 -0.01118976 0.05579730
v 0.09608707 -0.00953412 0.05157325
v 0.09608707 -0.00894812 0.05000690
v 0.09400176 -0.00947058 0.05157325
v 0.09400176 -0.00886692 0.05026136
v 0.09192317 -0.01200523 0.05782168
v 0.08983786 -0.01305721 0.06061510
v 0.09192317 -0.01121095 0.05594998
v 0.09270348 -0.00878220 0.05045362
v 0.08983786 -0.00858804 0.05087207
v 0.07526084 -0.00703830 0.05179378
v 0.07317553 -0.00689004 0.05211044
v 0.07171580 -0.00676295 0.05238187
v 0.07104985 -0.00617342 0.05164110
v 0.06895781 -0.00363523 0.04998993
v 0.06895781 -0.00535442 0.05144319
v 0.04825266 -0.00003448 0.05583688
v 0.06904526 -0.00134769 0.04889858
v 0.04825266 0.00895683 0.05437798
v 0.06549350 0.01452035 0.05036314
v 0.06420194 0.00978641 0.04855930
v 0.04825266 0.01102550 0.05510743
v 0.06559440 0.01017120 0.04837269
v 0.06692631 0.01592888 0.05073635
v 0.06692631 0.01683260 0.05178247
v 0.07943147 0.01796578 0.05092296
v 0.09400176 0.02121705 0.05573510
v 0.09192317 0.02063458 0.05403869
v 0.08486001 0.02040159 0.05475684
v 0.08983786 0.02056397 0.05411786
v 0.09192317 0.02111821 0.05573510
v 0.09608707 0.02192308 0.05782168
v 0.09400176 0.02065929 0.05418006
v 0.07734615 0.01854473 0.05218395
v 0.08358864 0.01990031 0.05365418
v 0.08559996 0.02016507 0.05379554
v 0.10323768 0.02034863 0.05782168
v 0.10442161 0.01969203 0.05782168
v 0.11275613 0.01501104 0.05782168
v 0.10615040 0.01872123 0.05782168
v 0.11400732 0.01429442 0.05782168
v 0.11504998 0.01344012 0.05782168
v 0.10231610 0.02085345 0.05990261
v 0.10335204 0.02040512 0.05990261
v 0.11609263 0.01239520 0.05782168
v 0.11645588 0.01104315 0.05782168
v 0.09608707 0.02119587 0.05573510
v 0.09400176 0.02219843 0.05990261
v 0.09608707 0.02217372 0.05990261
v 0.09817239 0.02203605 0.05990261
v 0.10025097 0.02161243 0.05990261
v 0.11669805 0.00895683 0.05573510
v 0.11671150 0.00062919 0.05365418
v 0.11665096 0.00895683 0.05782168
v 0.11665096 0.00687404 0.05990261
v 0.11658369 0.00479124 0.06198919
v 0.11657697 0.00271198 0.05990261
v 0.11662406 0.00062919 0.05573510
v 0.11648951 -0.00145360 0.05573510
v 0.11634825 -0.00145360 0.05782168
v 0.11607918 -0.00340224 0.05770859
v 0.11597155 -0.00475782 0.05694520
v 0.11344899 -0.00624402 0.05836453
v 0.11205654 -0.00691475 0.05924101
v 0.10539699 -0.00866923 0.06500314
v 0.10596205 -0.00896224 0.06361209
v 0.10734777 -0.00859157 0.06240764
v 0.10095057 -0.01070966 0.06615105
v 0.10757648 -0.00875749 0.06102224
v 0.10759666 -0.00876102 0.05990261
v 0.10757648 -0.00875396 0.05874905
v 0.09316091 -0.01296896 0.06332370
v 0.09608707 -0.01216056 0.06198919
v 0.09817239 -0.01154984 0.06407012
v 0.09990790 -0.01103091 0.06615105
v 0.08983786 -0.01335022 0.06407012
v 0.08983786 -0.01337140 0.06198919
v 0.09192317 -0.01266537 0.05957464
v 0.10442161 -0.00970004 0.05990261
v 0.09400176 -0.01080498 0.05475684
v 0.08983786 -0.01259477 0.05957464
v 0.08861358 -0.01295484 0.06084694
v 0.07826772 -0.00876455 0.05465505
v 0.08983786 -0.01179342 0.05782168
v 0.08775254 -0.01151454 0.05782168
v 0.08775254 -0.00844683 0.05117742
v 0.07032336 -0.00660056 0.05285686
v 0.04825266 -0.00538266 0.06832245
v 0.06891745 -0.00643818 0.05359197
v 0.06482082 0.01521226 0.05108129
v 0.04825266 0.01291060 0.05602914
v 0.06351581 0.01636662 0.05247800
v 0.06484772 0.01659255 0.05215568
v 0.06484772 0.01736565 0.05365418
v 0.06692631 0.01779280 0.05365418
v 0.07415764 0.01833998 0.05259109
v 0.07526084 0.01841058 0.05244407
v 0.08775254 0.02084639 0.05573510
v 0.08358864 0.02033804 0.05496041
v 0.06142377 0.02253733 0.06916499
v 0.06276241 0.02259028 0.06896708
v 0.06883000 0.02230434 0.06626414
v 0.07317553 0.02202899 0.06407012
v 0.07545592 0.02223374 0.06427369
v 0.09400176 0.02179247 0.05782168
v 0.08983786 0.02205723 0.05990261
v 0.08456403 0.02250203 0.06301269
v 0.08151005 0.01964613 0.05365418
v 0.07994943 0.02047925 0.05659461
v 0.10442161 0.01980499 0.05990261
v 0.10728723 0.01818465 0.05990261
v 0.11120897 0.01596418 0.05990261
v 0.11014613 0.01657137 0.06198919
v 0.11396023 0.01427324 0.05925797
v 0.10197977 0.02062046 0.06138414
v 0.10442161 0.01956847 0.06198919
v 0.10625130 0.01874241 0.06198919
v 0.10729396 0.01820230 0.06198919
v 0.10858551 0.01748215 0.06198919
v 0.11597155 0.01223281 0.05903178
v 0.11613300 0.01093724 0.05979517
v 0.11648951 0.00895683 0.05990261
v 0.08476584 0.02250203 0.06301269
v 0.08476584 0.02250203 0.06306358
v 0.09192317 0.02225139 0.06198919
v 0.09400176 0.02206076 0.06198919
v 0.09608707 0.02172186 0.06198919
v 0.09817239 0.02128766 0.06198919
v 0.11648951 0.00687404 0.06198919
v 0.11620700 0.00474888 0.06418886
v 0.11626753 0.00253548 0.06215883
v 0.11634825 0.00062919 0.05990261
v 0.11597828 0.00601974 0.06522368
v 0.11608591 0.00311442 0.06357250
v 0.11595137 -0.00261855 0.05897524
v 0.11541323 -0.00400943 0.05833061
v 0.11402077 -0.00485314 0.05911095
v 0.11272250 -0.00558035 0.05986868
v 0.11141749 -0.00630756 0.06062641
v 0.10337222 -0.00873631 0.06718585
v 0.10401127 -0.00916345 0.06580045
v 0.09967919 -0.01096030 0.06759865
v 0.10233629 -0.01031782 0.06407012
v 0.10233629 -0.01031782 0.06198919
v 0.09182899 -0.01307487 0.06403619
v 0.09817239 -0.01147218 0.06615105
v 0.09608707 -0.01191345 0.06615105
v 0.09817239 -0.01154631 0.06198919
v 0.10095057 -0.01072731 0.06198919
v 0.08791399 -0.01319842 0.06632634
v 0.07950547 -0.01316312 0.07251257
v 0.07109694 -0.01312429 0.07870446
v 0.08151005 -0.01329021 0.07031855
v 0.08358864 -0.01335728 0.06823763
v 0.08567396 -0.01341376 0.06615105
v 0.08775254 -0.01343141 0.06407012
v 0.08151005 -0.01332551 0.06823763
v 0.08569413 -0.01317724 0.06404749
v 0.08785345 -0.01312076 0.06203443
v 0.06534551 -0.01304310 0.07926993
v 0.06276241 -0.01305016 0.08131128
v 0.04825266 -0.01015896 0.08281542
v 0.04825266 0.01449917 0.05796305
v 0.06279604 0.01672317 0.05361459
v 0.04825266 0.01650783 0.06252638
v 0.06291712 0.01780339 0.05591039
v 0.06371762 0.01835763 0.05672467
v 0.06484772 0.01806462 0.05538451
v 0.06692631 0.01824819 0.05493213
v 0.06885690 0.01807168 0.05373334
v 0.07109694 0.01814582 0.05313959
v 0.07276519 0.01825172 0.05283990
v 0.06484772 0.01846000 0.05642497
v 0.06182066 0.02040159 0.06306924
v 0.06320637 0.02051102 0.06275823
v 0.06484772 0.01973086 0.05990261
v 0.07943147 0.01938490 0.05365418
v 0.08983786 0.02152064 0.05782168
v 0.06276241 0.02166538 0.06615105
v 0.06071073 0.02214548 0.06837899
v 0.06003805 0.02244555 0.06957214
v 0.05926446 0.02256910 0.07095753
v 0.06071073 0.02259381 0.07029027
v 0.06940851 0.02254086 0.06702752
v 0.06276241 0.02263265 0.07031855
v 0.06484772 0.02261500 0.06873523
v 0.07628332 0.02250203 0.06510492
v 0.07932384 0.02013683 0.05583123
v 0.07856371 0.02039453 0.05684342
v 0.10994433 0.01646899 0.06361209
v 0.11369789 0.01401907 0.06064903
v 0.10443506 0.01878125 0.06418321
v 0.10598895 0.01857650 0.06356120
v 0.10016353 0.02078637 0.06204009
v 0.10875367 0.01699852 0.06421149
v 0.11554103 0.01156208 0.06042284
v 0.11597828 0.01017473 0.06112402
v 0.10955416 0.01615128 0.06499749
v 0.11186147 0.01439679 0.06326715
v 0.11336154 0.01324596 0.06211359
v 0.11613972 0.00677872 0.06397399
v 0.07906821 0.02253380 0.06534807
v 0.08775254 0.02221609 0.06407012
v 0.08567396 0.02196898 0.06615105
v 0.07526084 0.02159125 0.07239948
v 0.07943147 0.02163361 0.07031855
v 0.08358864 0.02166891 0.06823763
v 0.08775254 0.02169362 0.06615105
v 0.09192317 0.02171480 0.06407012
v 0.08151005 0.02130884 0.07031855
v 0.08567396 0.02131237 0.06823763
v 0.09400176 0.02130531 0.06407012
v 0.10079584 0.02029921 0.06277519
v 0.08357519 0.02083933 0.07041468
v 0.08772564 0.02082874 0.06832245
v 0.08567396 0.02064517 0.06977005
v 0.11597828 0.00541608 0.06522368
v 0.11299157 0.00479124 0.06681830
v 0.11597828 0.00809900 0.06321061
v 0.11551412 0.00741062 0.06460166
v 0.11367770 0.00984643 0.06498052
v 0.11186147 0.01231753 0.06524064
v 0.11482799 0.00677872 0.06562516
v 0.11268886 0.00689169 0.06675044
v 0.05189859 0.00830022 0.09877863
v 0.05221476 0.00687404 0.09896523
v 0.11577647 0.00402873 0.06495790
v 0.11585047 0.00172354 0.06297311
v 0.11590429 -0.00045810 0.06098831
v 0.11534596 -0.00184898 0.06036064
v 0.11426967 0.00081629 0.06392310
v 0.10866623 -0.00571449 0.06415494
v 0.10532973 -0.00648054 0.06705580
v 0.10394400 -0.00734896 0.06759299
v 0.10096402 -0.00816442 0.06910845
v 0.09957156 -0.00917405 0.06944773
v 0.10197977 -0.00935055 0.06772305
v 0.10989723 -0.00282330 0.06540462
v 0.11186147 -0.00059224 0.06526891
v 0.11381897 0.00163882 0.06513885
v 0.09885852 -0.01056139 0.06898969
v 0.09746607 -0.01091794 0.06940249
v 0.09816566 -0.01110857 0.06827156
v 0.09106886 -0.01294072 0.06524629
v 0.08983786 -0.01303956 0.06568736
v 0.09400176 -0.01228058 0.06615105
v 0.09608707 -0.01149336 0.06823763
v 0.08566050 -0.01312429 0.06828852
v 0.07526084 -0.01304310 0.07611461
v 0.07275847 -0.01301132 0.07804852
v 0.07039735 -0.01296543 0.07981844
v 0.06901162 -0.01307487 0.08025950
v 0.06708775 -0.01315959 0.08089849
v 0.06901162 -0.01328667 0.07864791
v 0.07526084 -0.01329374 0.07448041
v 0.07734615 -0.01335022 0.07239948
v 0.07109694 -0.01330432 0.07656699
v 0.06473337 -0.01316665 0.08059313
v 0.06086545 -0.01300779 0.08301900
v 0.06167939 -0.01292307 0.08173538
v 0.05089630 -0.01091441 0.08351095
v 0.05089630 -0.01091441 0.08402553
v 0.04825266 -0.01015190 0.08288893
v 0.04825266 0.01712560 0.06407577
v 0.05554453 0.02039806 0.06725936
v 0.05859851 0.02162655 0.06823763
v 0.05634502 0.02015801 0.06611146
v 0.06063001 0.01876712 0.05980083
v 0.05863214 0.02077931 0.06611146
v 0.06067709 0.02024979 0.06343679
v 0.06692631 0.01861533 0.05597259
v 0.06806315 0.01832233 0.05472856
v 0.06944887 0.01841058 0.05447976
v 0.06261442 0.02082521 0.06388351
v 0.07317553 0.01932489 0.05573510
v 0.06776044 0.02044395 0.06086956
v 0.05858506 0.02227963 0.07029027
v 0.05926446 0.02256910 0.07155128
v 0.05117882 0.02046160 0.07326465
v 0.06067709 0.02258675 0.07161348
v 0.06469973 0.02259734 0.07039206
v 0.10514137 0.01825525 0.06494660
v 0.08839832 0.02032039 0.06907452
v 0.10660782 0.01807168 0.06418321
v 0.10816845 0.01666668 0.06548379
v 0.11554776 0.00948635 0.06250942
v 0.10549117 0.01626778 0.06720847
v 0.10875367 0.01535700 0.06584569
v 0.10997795 0.01476040 0.06537070
v 0.11225834 0.01305534 0.06400226
v 0.11415531 0.01055599 0.06358947
v 0.07317553 0.02255498 0.06754210
v 0.07448053 0.02251615 0.06729329
v 0.07963327 0.02239259 0.06608884
v 0.08358864 0.02214548 0.06615105
v 0.07317553 0.02178541 0.07239948
v 0.07734615 0.02184895 0.07031855
v 0.08151005 0.02191249 0.06823763
v 0.07734615 0.02127001 0.07239948
v 0.07109694 0.02137591 0.07448041
v 0.07325625 0.02100171 0.07462177
v 0.08287560 0.02049337 0.07147776
v 0.08426132 0.02031333 0.07116675
v 0.07931711 0.02082521 0.07244471
v 0.10028461 0.01879537 0.06626979
v 0.11498271 0.00474888 0.06570998
v 0.05205331 0.00479124 0.09886909
v 0.05171024 0.00271198 0.09866553
v 0.11178747 0.00362629 0.06723110
v 0.11067082 0.01305534 0.06563646
v 0.11048246 0.01085958 0.06653556
v 0.05234929 0.01033359 0.09668073
v 0.05026398 0.00956048 0.09798697
v 0.05026398 0.00851909 0.09899350
v 0.05026398 0.00687404 0.09960987
v 0.11426294 0.00271198 0.06543290
v 0.11539978 0.00253548 0.06418886
v 0.10587460 -0.00509319 0.06745728
v 0.10726032 -0.00416829 0.06692573
v 0.10776483 -0.00278094 0.06732156
v 0.10959452 -0.00035925 0.06718019
v 0.05358030 -0.00274917 0.09646586
v 0.05434043 -0.00347991 0.09564593
v 0.05553108 -0.00463074 0.09430576
v 0.09328198 -0.01094971 0.07148907
v 0.06788824 -0.01287365 0.08170711
v 0.07178980 -0.01282070 0.07943957
v 0.09182899 -0.01265125 0.06602664
v 0.08983786 -0.01281010 0.06673348
v 0.08566050 -0.01269361 0.07025635
v 0.07414418 -0.01290189 0.07755090
v 0.08791399 -0.01277127 0.06828852
v 0.06649579 -0.01303250 0.08197287
v 0.06484772 -0.01313135 0.08236305
v 0.06289022 -0.01311017 0.08295679
v 0.06067709 -0.01302191 0.08401987
v 0.05962771 -0.01291248 0.08385023
v 0.04825266 -0.00471193 0.09453195
v 0.05022362 -0.01035665 0.08478891
v 0.04825266 -0.00985890 0.08489070
v 0.05962771 -0.01291248 0.08386154
v 0.04825266 0.01761630 0.06608884
v 0.05651319 0.02164773 0.07031855
v 0.05634502 0.02089934 0.06806798
v 0.05117882 0.02046160 0.07399410
v 0.04825266 0.01961436 0.07649913
v 0.04825266 0.01960377 0.07656699
v 0.05139408 0.02040512 0.07538516
v 0.05442788 0.02109350 0.07448041
v 0.05651319 0.02136885 0.07448041
v 0.05663428 0.02067694 0.07668008
v 0.05740786 0.02042983 0.07764138
v 0.04825266 0.01915191 0.07239948
v 0.04825266 0.01963201 0.07441255
v 0.04825266 0.01963907 0.07448606
v 0.06067709 0.02222315 0.07265394
v 0.06692631 0.02149593 0.07448041
v 0.06901162 0.02146416 0.07448041
v 0.06276241 0.02254086 0.07148342
v 0.06390597 0.02250556 0.07137598
v 0.06692631 0.02257969 0.06978136
v 0.10233629 0.01800108 0.06668824
v 0.10631184 0.01687849 0.06616800
v 0.10099092 0.01823760 0.06703883
v 0.10442161 0.01652195 0.06743465
v 0.05234929 0.01348248 0.09360458
v 0.05234929 0.01244109 0.09462243
v 0.07520702 0.02234670 0.06809060
v 0.07943147 0.02206782 0.06823763
v 0.07317553 0.02211724 0.07031855
v 0.06529842 0.02246320 0.07112718
v 0.07109694 0.02190896 0.07239948
v 0.07526084 0.02088522 0.07412416
v 0.07734615 0.02064164 0.07372834
v 0.07109694 0.02071224 0.07608634
v 0.06901162 0.02201840 0.07239948
v 0.06901162 0.02075460 0.07638604
v 0.07855026 0.02046513 0.07350215
v 0.11258797 0.00284260 0.06652425
v 0.05026398 0.00479124 0.09941195
v 0.05146135 0.00130345 0.09852416
v 0.11138386 0.00223894 0.06703883
v 0.05026398 0.01058070 0.09694650
v 0.04825266 0.00944752 0.09779470
v 0.04825266 0.00840612 0.09880690
v 0.04825266 0.00836729 0.09884082
v 0.04825266 0.00693405 0.09938368
v 0.04825266 0.00687404 0.09940629
v 0.04825266 0.00486891 0.09934974
v 0.04825266 0.00479124 0.09934410
v 0.05234929 -0.00145360 0.09741584
v 0.05234929 -0.00311983 0.09676556
v 0.05442788 -0.00493080 0.09464504
v 0.05588087 -0.00689710 0.09243971
v 0.05760967 -0.00877867 0.09013826
v 0.06367725 -0.01284188 0.08374845
v 0.06228480 -0.01305721 0.08407642
v 0.05728005 -0.00877867 0.09013826
v 0.05589433 -0.00870101 0.09001950
v 0.05026398 -0.00430949 0.09590604
v 0.04825266 -0.00414358 0.09557241
v 0.04825266 0.01905307 0.07856875
v 0.05026398 0.01992854 0.07656699
v 0.05442788 0.01916603 0.08072884
v 0.05218785 0.02019331 0.07650478
v 0.05442788 0.02059928 0.07611461
v 0.05442788 0.02027803 0.07715508
v 0.05234929 0.01761982 0.08489635
v 0.05234929 0.01695263 0.08698294
v 0.05442788 0.01705853 0.08698294
v 0.05651319 0.01864004 0.08261185
v 0.05859851 0.02042983 0.07764704
v 0.05234929 0.01643016 0.08854929
v 0.05234929 0.01607362 0.08958974
v 0.06067709 0.02156301 0.07448041
v 0.06484772 0.02152064 0.07448041
v 0.06692631 0.02038747 0.07752263
v 0.10233629 0.01695969 0.06788703
v 0.05761639 0.01627484 0.08805167
v 0.05234929 0.01446740 0.09256411
v 0.05026398 0.01367664 0.09374595
v 0.05026398 0.01263525 0.09483730
v 0.05026398 0.01162209 0.09587777
v 0.07261048 0.02058868 0.07575271
v 0.06901162 0.02032039 0.07742650
v 0.06439030 0.01851295 0.08205204
v 0.06067709 0.01822348 0.08359012
v 0.05026398 0.00271198 0.09891433
v 0.05026398 0.00121873 0.09855244
v 0.05026398 0.00017380 0.09828101
v 0.05026398 -0.00145360 0.09784560
v 0.04825266 0.01044302 0.09674859
v 0.04825266 0.00253195 0.09877297
v 0.05234929 -0.00416123 0.09604741
v 0.05026398 -0.00326810 0.09695781
v 0.05234929 -0.00510378 0.09500694
v 0.05442788 -0.00692534 0.09254150
v 0.04825266 -0.00310218 0.09686168
v 0.04825266 0.01854473 0.08021992
v 0.04825266 0.01820936 0.08130562
v 0.04825266 0.01645487 0.08698294
v 0.05026398 0.01599596 0.08929005
v 0.05442788 0.01646899 0.08853798
v 0.06067709 0.01861886 0.08254965
v 0.05859851 0.01824819 0.08362404
v 0.05651319 0.01780339 0.08489635
v 0.05859851 0.01862945 0.08258358
v 0.06019949 0.02042277 0.07762442
v 0.05026398 0.01533582 0.09114479
v 0.05234929 0.01533229 0.09114479
v 0.06276241 0.02078990 0.07654437
v 0.06484772 0.02039806 0.07755656
v 0.06484772 0.01999915 0.07864791
v 0.05651319 0.01637368 0.08825524
v 0.05442788 0.01594653 0.08957843
v 0.05026398 0.01454859 0.09269983
v 0.04864281 0.01435090 0.09244537
v 0.04825266 0.01245168 0.09458850
v 0.04825266 0.01148442 0.09562895
v 0.06276241 0.01860474 0.08236305
v 0.04853518 0.00143407 0.09850720
v 0.04825266 -0.00145360 0.09766465
v 0.04825266 -0.00303511 0.09689561
v 0.04825266 0.00196359 0.09862594
v 0.04825266 0.01619011 0.08783114
v 0.04825266 0.01590064 0.08861148
v 0.04825266 0.01579474 0.08887160
v 0.04825266 0.01479923 0.09129181
v 0.04825266 0.01460507 0.09171025
v 0.04825266 0.01428736 0.09234923
v 0.04825266 0.01384609 0.09291470
v 0.04825266 0.00106693 0.09837714
f 1 2 3
f 1 3 4
f 1 4 5
f 1 5 6
f 1 6 7
f 1 7 8
f 1 8 9
f 1 9 2
f 2 9 10
f 2 10 11
f 2 11 3
f 3 12 4
f 3 11 13
f 3 13 14
f 3 14 15
f 3 15 16
f 3 16 12
f 4 17 5
f 4 12 17
f 5 17 18
f 5 18 19
f 5 19 20
f 5 20 6
f 6 20 21
f 6 21 22
f 6 22 23
f 6 23 7
f 7 23 8
f 8 23 24
f 8 24 9
f 9 24 25
f 9 25 26
f 9 26 27
f 9 27 28
f 9 28 10
f 10 28 11
f 11 28 13
f 12 16 17
f 13 28 14
f 14 28 27
f 14 27 29
f 14 29 30
f 14 30 31
f 14 31 32
f 14 32 15
f 15 32 16
f 16 33 34
f 16 34 17
f 16 32 33
f 17 34 35
f 17 35 36
f 17 36 37
f 17 37 38
f 17 38 18
f 18 38 39
f 18 39 40
f 18 40 41
f 18 41 19
f 19 41 42
f 19 42 20
f 20 42 43
f 20 43 44
f 20 44 21
f 21 44 45
f 21 45 46
f 21 46 47
f 21 47 48
f 21 48 22
f 22 49 23
f 22 48 49
f 23 49 50
f 23 50 24
f 24 50 25
f 25 50 51
f 25 51 52
f 25 52 53
f 25 53 54
f 25 54 26
f 26 54 55
f 26 55 27
f 27 55 56
f 27 56 57
f 27 57 29
f 29 57 56
f 29 56 30
f 30 58 60
f 30 60 31
f 30 56 59
f 30 59 58
f 31 60 61
f 31 61 62
f 31 62 32
f 32 62 63
f 32 63 33
f 33 64 34
f 33 63 64
f 34 64 65
f 34 65 35
f 35 66 37
f 35 37 36
f 35 65 62
f 35 62 67
f 35 67 68
f 35 68 69
f 35 69 66
f 37 70 71
f 37 71 38
f 37 66 72
f 37 72 70
f 38 71 73
f 38 73 39
f 39 73 40
f 40 74 75
f 40 75 76
f 40 76 77
f 40 77 41
f 40 73 78
f 40 78 71
f 40 71 79
f 40 79 80
f 40 80 81
f 40 81 82
f 40 82 74
f 41 83 43
f 41 43 42
f 41 77 84
f 41 84 85
f 41 85 86
f 41 86 87
f 41 87 88
f 41 88 83
f 43 89 44
f 43 83 88
f 43 88 90
f 43 90 91
f 43 91 92
f 43 92 45
f 43 45 89
f 44 89 45
f 45 92 93
f 45 93 48
f 45 48 46
f 46 48 47
f 48 94 50
f 48 50 49
f 48 93 94
f 50 94 51
f 51 94 93
f 51 93 95
f 51 95 96
f 51 96 52
f 52 96 95
f 52 95 97
f 52 97 98
f 52 98 99
f 52 99 53
f 53 100 54
f 53 99 100
f 54 100 101
f 54 101 102
f 54 102 103
f 54 103 104
f 54 104 55
f 55 104 56
f 56 104 59
f 58 59 104
f 58 104 105
f 58 105 106
f 58 106 107
f 58 107 108
f 58 108 109
f 58 109 110
f 58 110 111
f 58 111 60
f 60 111 112
f 60 112 113
f 60 113 61
f 61 113 114
f 61 114 115
f 61 115 116
f 61 116 62
f 62 116 117
f 62 117 118
f 62 118 119
f 62 119 67
f 62 65 120
f 62 120 64
f 62 64 63
f 64 120 65
f 66 69 121
f 66 121 72
f 67 119 68
f 68 119 117
f 68 117 122
f 68 122 123
f 68 123 124
f 68 124 125
f 68 125 126
f 68 126 127
f 68 127 69
f 69 127 121
f 70 72 128
f 70 128 129
f 70 129 71
f 71 130 131
f 71 131 79
f 71 78 73
f 71 129 132
f 71 132 130
f 72 121 128
f 74 133 134
f 74 134 135
f 74 135 75
f 74 82 136
f 74 136 137
f 74 137 138
f 74 138 133
f 75 135 76
f 76 135 84
f 76 84 77
f 79 131 80
f 80 131 81
f 81 131 130
f 81 130 132
f 81 132 139
f 81 139 82
f 82 139 140
f 82 140 141
f 82 141 142
f 82 142 136
f 84 135 143
f 84 143 85
f 85 143 87
f 85 87 86
f 87 144 88
f 87 143 144
f 88 144 90
f 90 145 146
f 90 146 147
f 90 147 92
f 90 92 91
f 90 144 148
f 90 148 135
f 90 135 149
f 90 149 150
f 90 150 145
f 92 147 151
f 92 151 95
f 92 95 93
f 95 151 97
f 97 151 152
f 97 152 98
f 98 152 153
f 98 153 154
f 98 154 155
f 98 155 99
f 99 156 157
f 99 157 158
f 99 158 100
f 99 155 159
f 99 159 156
f 100 158 160
f 100 160 101
f 101 160 161
f 101 161 162
f 101 162 102
f 102 163 103
f 102 162 164
f 102 164 163
f 103 163 165
f 103 165 166
f 103 166 167
f 103 167 104
f 104 167 168
f 104 168 169
f 104 169 105
f 105 169 170
f 105 170 171
f 105 171 106
f 106 171 172
f 106 172 173
f 106 173 109
f 106 109 108
f 106 108 107
f 109 173 172
f 109 172 174
f 109 174 175
f 109 175 176
f 109 176 177
f 109 177 110
f 110 177 178
f 110 178 179
f 110 179 180
f 110 180 111
f 111 180 181
f 111 181 182
f 111 182 112
f 112 183 113
f 112 182 184
f 112 184 185
f 112 185 186
f 112 186 183
f 113 183 114
f 114 183 187
f 114 187 188
f 114 188 189
f 114 189 115
f 115 190 116
f 115 189 190
f 116 190 191
f 116 191 117
f 117 192 122
f 117 119 118
f 117 191 192
f 121 127 126
f 121 126 193
f 121 193 194
f 121 194 128
f 122 192 123
f 123 192 191
f 123 191 124
f 124 191 195
f 124 195 125
f 125 195 196
f 125 196 197
f 125 197 198
f 125 198 126
f 126 199 193
f 126 198 199
f 128 194 139
f 128 139 129
f 129 139 132
f 133 200 134
f 133 138 201
f 133 201 200
f 134 200 202
f 134 202 203
f 134 203 204
f 134 204 135
f 135 204 203
f 135 203 205
f 135 205 149
f 135 148 143
f 136 206 137
f 136 142 207
f 136 207 206
f 137 206 208
f 137 208 209
f 137 209 210
f 137 210 138
f 138 210 211
f 138 211 201
f 139 194 140
f 140 212 141
f 140 194 213
f 140 213 214
f 140 214 212
f 141 212 207
f 141 207 142
f 143 148 144
f 145 215 216
f 145 216 217
f 145 217 146
f 145 150 218
f 145 218 215
f 146 217 219
f 146 219 147
f 147 220 151
f 147 219 221
f 147 221 220
f 149 205 218
f 149 218 150
f 151 220 222
f 151 222 152
f 152 222 223
f 152 223 224
f 152 224 153
f 153 224 154
f 154 159 155
f 154 224 225
f 154 225 223
f 154 223 159
f 156 159 226
f 156 226 227
f 156 227 228
f 156 228 157
f 157 229 230
f 157 230 158
f 157 228 226
f 157 226 231
f 157 231 232
f 157 232 233
f 157 233 234
f 157 234 229
f 158 230 160
f 159 223 235
f 159 235 226
f 160 236 161
f 160 230 234
f 160 234 236
f 161 236 237
f 161 237 238
f 161 238 162
f 162 238 239
f 162 239 164
f 163 164 165
f 164 239 240
f 164 240 241
f 164 241 242
f 164 242 243
f 164 243 244
f 164 244 165
f 165 244 245
f 165 245 246
f 165 246 166
f 166 246 167
f 167 246 247
f 167 247 248
f 167 248 249
f 167 249 170
f 167 170 169
f 167 169 168
f 170 249 250
f 170 250 171
f 171 250 251
f 171 251 252
f 171 252 253
f 171 253 254
f 171 254 174
f 171 174 172
f 174 254 255
f 174 255 256
f 174 256 175
f 175 256 257
f 175 257 176
f 176 257 177
f 177 257 178
f 178 257 258
f 178 258 259
f 178 259 260
f 178 260 179
f 179 261 180
f 179 260 262
f 179 262 263
f 179 263 261
f 180 261 264
f 180 264 265
f 180 265 266
f 180 266 181
f 181 267 182
f 181 266 267
f 182 267 268
f 182 268 184
f 183 186 187
f 184 268 185
f 185 269 186
f 185 268 267
f 185 267 270
f 185 270 269
f 186 269 270
f 186 270 187
f 187 270 271
f 187 271 188
f 188 271 272
f 188 272 273
f 188 273 274
f 188 274 275
f 188 275 189
f 189 275 190
f 190 276 277
f 190 277 195
f 190 195 191
f 190 275 278
f 190 278 279
f 190 279 280
f 190 280 276
f 193 199 281
f 193 281 282
f 193 282 194
f 194 282 283
f 194 283 213
f 195 277 196
f 196 277 276
f 196 276 280
f 196 280 284
f 196 284 197
f 197 284 198
f 198 285 286
f 198 286 287
f 198 287 199
f 198 284 279
f 198 279 278
f 198 278 285
f 199 288 281
f 199 287 286
f 199 286 289
f 199 289 288
f 200 201 290
f 200 290 291
f 200 291 292
f 200 292 293
f 200 293 294
f 200 294 202
f 201 211 295
f 201 295 296
f 201 296 290
f 202 294 297
f 202 297 203
f 203 297 298
f 203 298 205
f 205 298 218
f 206 207 208
f 207 212 299
f 207 299 208
f 208 300 209
f 208 299 300
f 209 300 210
f 210 300 301
f 210 301 302
f 210 302 303
f 210 303 304
f 210 304 211
f 211 304 295
f 212 214 213
f 212 213 283
f 212 283 299
f 215 305 216
f 215 218 298
f 215 298 305
f 216 219 217
f 216 305 297
f 216 297 219
f 219 297 306
f 219 306 221
f 220 221 307
f 220 307 308
f 220 308 226
f 220 226 222
f 221 309 310
f 221 310 311
f 221 311 312
f 221 312 307
f 221 306 309
f 222 226 223
f 223 225 224
f 223 226 235
f 226 308 307
f 226 307 313
f 226 313 314
f 226 314 315
f 226 315 231
f 226 228 227
f 229 234 230
f 231 316 232
f 231 315 316
f 232 316 317
f 232 317 318
f 232 318 233
f 233 318 234
f 234 319 320
f 234 320 321
f 234 321 322
f 234 322 323
f 234 323 237
f 234 237 324
f 234 324 236
f 234 318 325
f 234 325 319
f 236 324 237
f 237 326 238
f 237 323 322
f 237 322 327
f 237 327 328
f 237 328 329
f 237 329 239
f 237 239 326
f 238 326 239
f 239 330 331
f 239 331 245
f 239 245 244
f 239 244 243
f 239 243 242
f 239 242 241
f 239 241 240
f 239 329 332
f 239 332 333
f 239 333 334
f 239 334 330
f 245 331 335
f 245 335 336
f 245 336 337
f 245 337 246
f 246 337 338
f 246 338 247
f 247 338 248
f 248 338 339
f 248 339 340
f 248 340 249
f 249 341 250
f 249 340 342
f 249 342 343
f 249 343 259
f 249 259 341
f 250 341 344
f 250 344 251
f 251 344 252
f 252 258 253
f 252 344 258
f 253 258 257
f 253 257 256
f 253 256 254
f 254 256 255
f 258 344 341
f 258 341 259
f 259 343 414
f 259 414 488
f 259 488 589
f 259 589 666
f 259 666 664
f 259 664 727
f 259 727 764
f 259 764 789
f 259 789 788
f 259 788 798
f 259 798 790
f 259 790 759
f 259 759 716
f 259 716 715
f 259 715 714
f 259 714 713
f 259 713 712
f 259 712 711
f 259 711 710
f 259 710 758
f 259 758 785
f 259 785 784
f 259 784 797
f 259 797 796
f 259 796 795
f 259 795 794
f 259 794 793
f 259 793 792
f 259 792 791
f 259 791 767
f 259 767 766
f 259 766 765
f 259 765 728
f 259 728 673
f 259 673 672
f 259 672 681
f 259 681 680
f 259 680 679
f 259 679 668
f 259 668 590
f 259 590 491
f 259 491 489
f 259 489 417
f 259 417 348
f 259 348 345
f 259 345 263
f 259 263 262
f 259 262 260
f 261 263 264
f 263 345 264
f 264 345 265
f 265 346 347
f 265 347 266
f 265 345 348
f 265 348 346
f 266 347 346
f 266 346 270
f 266 270 349
f 266 349 267
f 267 349 270
f 270 346 273
f 270 273 272
f 270 272 271
f 273 346 350
f 273 350 278
f 273 278 274
f 274 278 275
f 278 350 351
f 278 351 352
f 278 352 285
f 279 284 280
f 281 353 354
f 281 354 282
f 281 288 355
f 281 355 356
f 281 356 357
f 281 357 358
f 281 358 353
f 282 359 301
f 282 301 283
f 282 354 303
f 282 303 359
f 283 301 299
f 285 352 289
f 285 289 286
f 288 289 360
f 288 360 361
f 288 361 362
f 288 362 355
f 289 352 360
f 290 296 295
f 290 295 363
f 290 363 364
f 290 364 293
f 290 293 291
f 291 293 292
f 293 365 294
f 293 364 366
f 293 366 365
f 294 365 367
f 294 367 368
f 294 368 297
f 295 369 370
f 295 370 363
f 295 304 369
f 297 368 371
f 297 371 372
f 297 372 306
f 297 305 298
f 299 301 300
f 301 359 373
f 301 373 302
f 302 373 303
f 303 373 359
f 303 354 353
f 303 353 358
f 303 358 374
f 303 374 375
f 303 375 376
f 303 376 304
f 304 376 377
f 304 377 369
f 306 372 378
f 306 378 309
f 307 312 379
f 307 379 314
f 307 314 313
f 309 378 380
f 309 380 310
f 310 380 381
f 310 381 311
f 311 382 312
f 311 381 382
f 312 382 383
f 312 383 384
f 312 384 385
f 312 385 379
f 314 379 385
f 314 385 383
f 314 383 386
f 314 386 387
f 314 387 388
f 314 388 315
f 315 388 316
f 316 388 389
f 316 389 390
f 316 390 391
f 316 391 392
f 316 392 393
f 316 393 394
f 316 394 395
f 316 395 317
f 317 395 396
f 317 396 397
f 317 397 318
f 318 397 325
f 319 398 320
f 319 325 399
f 319 399 400
f 319 400 401
f 319 401 398
f 320 398 321
f 321 398 402
f 321 402 403
f 321 403 322
f 322 403 333
f 322 333 404
f 322 404 327
f 325 397 405
f 325 405 399
f 327 406 328
f 327 404 406
f 328 406 329
f 329 406 332
f 330 334 331
f 331 334 335
f 332 406 404
f 332 404 333
f 333 407 334
f 333 403 408
f 333 408 409
f 333 409 407
f 334 407 410
f 334 410 411
f 334 411 335
f 335 411 336
f 336 411 412
f 336 412 337
f 337 412 411
f 337 411 409
f 337 409 338
f 338 409 339
f 339 413 340
f 339 409 408
f 339 408 413
f 340 413 342
f 342 413 343
f 343 413 415
f 343 415 414
f 346 416 350
f 346 348 417
f 346 417 416
f 350 416 417
f 350 417 418
f 350 418 419
f 350 419 351
f 351 419 420
f 351 420 421
f 351 421 422
f 351 422 423
f 351 423 360
f 351 360 352
f 355 424 356
f 355 362 425
f 355 425 426
f 355 426 427
f 355 427 428
f 355 428 429
f 355 429 430
f 355 430 424
f 356 424 357
f 357 431 358
f 357 424 431
f 358 431 432
f 358 432 433
f 358 433 374
f 360 423 361
f 361 434 435
f 361 435 425
f 361 425 362
f 361 423 422
f 361 422 434
f 363 370 364
f 364 436 366
f 364 370 436
f 365 437 438
f 365 438 367
f 365 366 436
f 365 436 437
f 367 438 439
f 367 439 440
f 367 440 368
f 368 440 371
f 369 377 441
f 369 441 442
f 369 442 370
f 370 442 443
f 370 443 444
f 370 444 445
f 370 445 436
f 371 440 446
f 371 446 372
f 372 446 447
f 372 447 448
f 372 448 380
f 372 380 378
f 374 433 449
f 374 449 375
f 375 449 450
f 375 450 451
f 375 451 376
f 376 451 452
f 376 452 453
f 376 453 377
f 377 453 454
f 377 454 441
f 380 448 455
f 380 455 381
f 381 455 382
f 382 456 457
f 382 457 458
f 382 458 386
f 382 386 383
f 382 455 459
f 382 459 456
f 383 385 384
f 386 458 387
f 387 460 461
f 387 461 388
f 387 458 457
f 387 457 460
f 388 461 462
f 388 462 463
f 388 463 389
f 389 463 464
f 389 464 465
f 389 465 391
f 389 391 390
f 391 466 467
f 391 467 392
f 391 465 466
f 392 467 468
f 392 468 394
f 392 394 393
f 394 468 401
f 394 401 395
f 395 401 469
f 395 469 396
f 396 469 470
f 396 470 405
f 396 405 397
f 398 471 402
f 398 401 472
f 398 472 468
f 398 468 473
f 398 473 471
f 399 405 474
f 399 474 400
f 400 474 475
f 400 475 405
f 400 405 470
f 400 470 469
f 400 469 401
f 401 468 472
f 402 471 476
f 402 476 477
f 402 477 478
f 402 478 479
f 402 479 480
f 402 480 481
f 402 481 482
f 402 482 403
f 403 482 483
f 403 483 484
f 403 484 485
f 403 485 408
f 405 475 474
f 407 409 411
f 407 411 410
f 408 485 486
f 408 486 413
f 413 486 487
f 413 487 488
f 413 488 414
f 413 414 415
f 417 489 418
f 418 490 420
f 418 420 419
f 418 489 490
f 420 490 489
f 420 489 491
f 420 491 492
f 420 492 493
f 420 493 494
f 420 494 421
f 421 495 496
f 421 496 497
f 421 497 498
f 421 498 422
f 421 494 499
f 421 499 500
f 421 500 501
f 421 501 502
f 421 502 495
f 422 498 503
f 422 503 434
f 424 432 504
f 424 504 431
f 424 430 432
f 425 435 426
f 426 505 506
f 426 506 507
f 426 507 508
f 426 508 509
f 426 509 427
f 426 435 505
f 427 510 428
f 427 509 511
f 427 511 512
f 427 512 433
f 427 433 510
f 428 510 429
f 429 510 430
f 430 510 513
f 430 513 432
f 431 504 432
f 432 513 433
f 433 513 510
f 433 512 449
f 434 503 514
f 434 514 435
f 435 514 515
f 435 515 505
f 436 445 437
f 437 445 438
f 438 445 439
f 439 445 516
f 439 516 440
f 440 517 446
f 440 516 517
f 441 518 519
f 441 519 442
f 441 454 520
f 441 520 518
f 442 519 443
f 443 519 444
f 444 521 516
f 444 516 445
f 444 519 521
f 446 522 523
f 446 523 447
f 446 517 524
f 446 524 525
f 446 525 526
f 446 526 522
f 447 527 448
f 447 523 527
f 448 527 455
f 449 512 511
f 449 511 450
f 450 511 528
f 450 528 451
f 451 528 529
f 451 529 452
f 452 529 530
f 452 530 531
f 452 531 532
f 452 532 533
f 452 533 534
f 452 534 535
f 452 535 453
f 453 535 536
f 453 536 537
f 453 537 538
f 453 538 454
f 454 518 539
f 454 539 520
f 454 538 540
f 454 540 541
f 454 541 542
f 454 542 518
f 455 527 459
f 456 543 460
f 456 460 457
f 456 459 543
f 459 544 543
f 459 527 545
f 459 545 546
f 459 546 547
f 459 547 548
f 459 548 549
f 459 549 550
f 459 550 551
f 459 551 552
f 459 552 544
f 460 543 553
f 460 553 554
f 460 554 555
f 460 555 461
f 461 555 462
f 462 555 556
f 462 556 463
f 463 556 557
f 463 557 558
f 463 558 464
f 464 558 466
f 464 466 465
f 466 559 560
f 466 560 561
f 466 561 562
f 466 562 563
f 466 563 467
f 466 558 557
f 466 557 564
f 466 564 565
f 466 565 566
f 466 566 559
f 467 563 468
f 468 567 568
f 468 568 569
f 468 569 473
f 468 563 567
f 471 570 571
f 471 571 476
f 471 473 572
f 471 572 570
f 473 569 573
f 473 573 572
f 476 571 574
f 476 574 477
f 477 574 575
f 477 575 478
f 478 575 576
f 478 576 577
f 478 577 578
f 478 578 579
f 478 579 580
f 478 580 581
f 478 581 479
f 479 581 480
f 480 581 580
f 480 580 582
f 480 582 481
f 481 582 580
f 481 580 482
f 482 580 583
f 482 583 483
f 483 583 584
f 483 584 487
f 483 487 484
f 484 487 485
f 485 487 486
f 487 584 585
f 487 585 586
f 487 586 488
f 488 587 588
f 488 588 589
f 488 586 587
f 491 590 591
f 491 591 592
f 491 592 593
f 491 593 594
f 491 594 493
f 491 493 492
f 493 500 499
f 493 499 494
f 493 594 595
f 493 595 596
f 493 596 500
f 495 597 598
f 495 598 496
f 495 502 505
f 495 505 597
f 496 598 599
f 496 599 498
f 496 498 497
f 498 599 503
f 500 600 501
f 500 596 592
f 500 592 507
f 500 507 506
f 500 506 600
f 501 600 505
f 501 505 502
f 503 599 601
f 503 601 514
f 505 602 597
f 505 600 506
f 505 515 514
f 505 514 602
f 507 592 603
f 507 603 508
f 508 604 511
f 508 511 509
f 508 603 605
f 508 605 671
f 508 671 604
f 511 604 606
f 511 606 607
f 511 607 528
f 514 601 602
f 516 521 524
f 516 524 517
f 518 608 519
f 518 520 539
f 518 542 609
f 518 609 608
f 519 608 610
f 519 610 521
f 521 610 611
f 521 611 524
f 522 612 523
f 522 526 612
f 523 612 545
f 523 545 527
f 524 611 613
f 524 613 614
f 524 614 615
f 524 615 548
f 524 548 547
f 524 547 616
f 524 616 525
f 525 616 526
f 526 616 617
f 526 617 612
f 528 607 618
f 528 618 619
f 528 619 529
f 529 619 620
f 529 620 621
f 529 621 622
f 529 622 623
f 529 623 624
f 529 624 530
f 530 624 531
f 531 625 532
f 531 624 623
f 531 623 622
f 531 622 626
f 531 626 627
f 531 627 625
f 532 536 533
f 532 625 536
f 533 536 534
f 534 536 535
f 536 540 537
f 536 625 540
f 537 540 538
f 540 628 629
f 540 629 542
f 540 542 541
f 540 625 630
f 540 630 628
f 542 629 631
f 542 631 609
f 543 544 632
f 543 632 553
f 544 552 633
f 544 633 634
f 544 634 635
f 544 635 632
f 545 612 546
f 546 612 617
f 546 617 616
f 546 616 547
f 548 615 614
f 548 614 636
f 548 636 549
f 549 636 637
f 549 637 550
f 550 637 551
f 551 638 639
f 551 639 640
f 551 640 641
f 551 641 552
f 551 637 614
f 551 614 613
f 551 613 638
f 552 641 633
f 553 632 642
f 553 642 566
f 553 566 643
f 553 643 554
f 554 643 555
f 555 643 557
f 555 557 556
f 557 643 566
f 557 566 565
f 557 565 564
f 559 644 560
f 559 566 645
f 559 645 644
f 560 644 561
f 561 644 646
f 561 646 647
f 561 647 648
f 561 648 562
f 562 567 563
f 562 648 567
f 566 642 645
f 567 648 649
f 567 649 650
f 567 650 651
f 567 651 568
f 568 651 652
f 568 652 653
f 568 653 569
f 569 653 573
f 570 572 654
f 570 654 571
f 571 654 655
f 571 655 575
f 571 575 574
f 572 573 654
f 573 656 655
f 573 655 654
f 573 653 657
f 573 657 576
f 573 576 575
f 573 575 656
f 575 655 658
f 575 658 656
f 576 657 577
f 577 657 653
f 577 653 652
f 577 652 659
f 577 659 578
f 578 659 579
f 579 659 660
f 579 660 580
f 580 660 661
f 580 661 584
f 580 584 583
f 584 661 662
f 584 662 585
f 585 662 663
f 585 663 586
f 586 663 587
f 587 663 667
f 587 667 588
f 588 664 665
f 588 665 666
f 588 666 589
f 588 667 664
f 590 668 605
f 590 605 669
f 590 669 670
f 590 670 591
f 591 670 592
f 592 596 595
f 592 595 593
f 592 670 603
f 593 595 594
f 597 602 598
f 598 602 601
f 598 601 599
f 603 670 669
f 603 669 605
f 604 671 672
f 604 672 673
f 604 673 674
f 604 674 675
f 604 675 676
f 604 676 677
f 604 677 678
f 604 678 606
f 605 668 679
f 605 679 680
f 605 680 681
f 605 681 671
f 606 678 682
f 606 682 683
f 606 683 684
f 606 684 685
f 606 685 607
f 607 685 686
f 607 686 687
f 607 687 618
f 608 688 689
f 608 689 611
f 608 611 610
f 608 609 631
f 608 631 629
f 608 629 690
f 608 690 688
f 611 689 613
f 613 689 691
f 613 691 692
f 613 692 693
f 613 693 638
f 614 637 636
f 618 687 619
f 619 687 694
f 619 694 621
f 619 621 620
f 621 694 695
f 621 695 622
f 622 696 687
f 622 687 697
f 622 697 686
f 622 686 698
f 622 698 626
f 622 695 696
f 625 627 699
f 625 699 700
f 625 700 630
f 626 701 627
f 626 698 702
f 626 702 685
f 626 685 684
f 626 684 703
f 626 703 701
f 627 701 699
f 628 630 700
f 628 700 704
f 628 704 629
f 629 704 690
f 632 635 705
f 632 705 642
f 633 641 706
f 633 706 634
f 634 706 707
f 634 707 635
f 635 708 705
f 635 707 648
f 635 648 708
f 638 693 639
f 639 693 692
f 639 692 709
f 639 709 710
f 639 710 711
f 639 711 640
f 640 711 712
f 640 712 713
f 640 713 714
f 640 714 641
f 641 714 715
f 641 715 716
f 641 716 706
f 642 705 647
f 642 647 646
f 642 646 645
f 644 645 646
f 647 705 708
f 647 708 648
f 648 707 717
f 648 717 718
f 648 718 649
f 649 718 719
f 649 719 650
f 650 719 651
f 651 719 720
f 651 720 721
f 651 721 722
f 651 722 652
f 652 722 723
f 652 723 659
f 655 656 658
f 659 723 660
f 660 723 661
f 661 723 662
f 662 724 725
f 662 725 726
f 662 726 727
f 662 727 667
f 662 667 663
f 662 723 724
f 664 666 665
f 664 667 727
f 671 681 672
f 673 728 729
f 673 729 674
f 674 729 675
f 675 729 676
f 676 730 677
f 676 729 731
f 676 731 732
f 676 732 733
f 676 733 734
f 676 734 730
f 677 730 735
f 677 735 678
f 678 736 737
f 678 737 738
f 678 738 682
f 678 735 739
f 678 739 740
f 678 740 736
f 682 738 741
f 682 741 742
f 682 742 683
f 683 742 743
f 683 743 684
f 684 743 703
f 685 702 686
f 686 702 698
f 686 697 687
f 687 696 694
f 688 690 689
f 689 690 744
f 689 744 691
f 690 704 745
f 690 745 746
f 690 746 744
f 691 744 746
f 691 746 692
f 692 746 747
f 692 747 748
f 692 748 749
f 692 749 709
f 694 696 695
f 699 701 750
f 699 750 700
f 700 750 704
f 701 703 751
f 701 751 752
f 701 752 750
f 703 743 753
f 703 753 751
f 704 750 745
f 706 754 707
f 706 716 754
f 707 754 755
f 707 755 756
f 707 756 757
f 707 757 717
f 709 749 710
f 710 749 748
f 710 748 747
f 710 747 758
f 716 759 755
f 716 755 754
f 717 757 718
f 718 760 719
f 718 757 761
f 718 761 760
f 719 760 720
f 720 760 721
f 721 760 762
f 721 762 724
f 721 724 723
f 721 723 722
f 724 762 763
f 724 763 725
f 725 763 726
f 726 762 760
f 726 760 761
f 726 761 764
f 726 764 727
f 726 763 762
f 728 765 729
f 729 765 731
f 730 734 735
f 731 765 732
f 732 765 733
f 733 765 766
f 733 766 767
f 733 767 734
f 734 767 768
f 734 768 735
f 735 768 739
f 736 769 770
f 736 770 771
f 736 771 772
f 736 772 737
f 736 740 769
f 737 772 773
f 737 773 774
f 737 774 738
f 738 774 741
f 739 768 740
f 740 768 775
f 740 775 776
f 740 776 769
f 741 774 742
f 742 777 778
f 742 778 743
f 742 774 777
f 743 778 779
f 743 779 770
f 743 770 753
f 745 750 752
f 745 752 780
f 745 780 746
f 746 780 781
f 746 781 776
f 746 776 782
f 746 782 747
f 747 782 783
f 747 783 784
f 747 784 785
f 747 785 758
f 751 753 786
f 751 786 780
f 751 780 752
f 753 770 769
f 753 769 786
f 755 759 787
f 755 787 756
f 756 787 757
f 757 787 788
f 757 788 789
f 757 789 761
f 759 790 787
f 761 789 764
f 767 791 768
f 768 791 775
f 769 781 780
f 769 780 786
f 769 776 781
f 770 773 771
f 770 779 773
f 771 773 772
f 773 779 778
f 773 778 777
f 773 777 774
f 775 782 776
f 775 791 792
f 775 792 793
f 775 793 794
f 775 794 795
f 775 795 783
f 775 783 782
f 783 795 796
f 783 796 797
f 783 797 784
f 787 790 798
f 787 798 788

