# https://github.com/mikedh/trimesh
v 0.00026501 0.06871555 -0.05143450
v -0.00098913 0.06869677 -0.05143450
v 0.00026501 0.06855908 -0.05111685
v 0.00076144 0.06862167 -0.05143450
v -0.00132226 0.06854030 -0.05112718
v -0.00145943 0.06861541 -0.05143450
v 0.00026501 0.06797703 -0.05007524
v 0.00168898 0.06842139 -0.05139461
v -0.00389585 0.06230051 -0.03861614
v -0.00389585 0.06173724 -0.03757454
v 0.00171511 0.06843391 -0.05143450
v -0.00316427 0.06636232 -0.04705977
v -0.00545700 0.06228174 -0.03863535
v -0.00298138 0.06806465 -0.05143450
v -0.00181216 0.06434081 -0.04290518
v -0.00015303 0.06639362 -0.04713069
v 0.00237484 0.06780805 -0.05062338
v 0.00290393 0.06813976 -0.05143450
v 0.00043484 0.06583034 -0.04639787
v 0.00737833 0.05995355 -0.03912882
v 0.00998459 0.05799462 -0.03682843
v 0.01085334 0.05750019 -0.03634235
v -0.00545700 0.06109887 -0.03634235
v -0.00378481 0.06101125 -0.03634235
v -0.01960525 0.06164962 -0.05143450
v -0.00608407 0.06259467 -0.03999756
v -0.00767787 0.06059192 -0.03634235
v -0.00599915 0.06105506 -0.03634235
v -0.00245882 0.06217534 -0.03888948
v 0.00859981 0.06040417 -0.04042454
v 0.00551672 0.06626219 -0.04943846
v 0.00443894 0.06762656 -0.05143450
v 0.01136283 0.05782563 -0.03713426
v 0.00485046 0.05894592 -0.03634235
v 0.00859981 0.05804469 -0.03634235
v 0.01279987 0.05691189 -0.03634235
v -0.00322959 0.06087982 -0.03634235
v -0.02127744 0.06082975 -0.05143450
v -0.02191757 0.06024144 -0.05050813
v -0.02270794 0.05913993 -0.04836436
v -0.02270794 0.05793829 -0.04522921
v -0.01933744 0.05783189 -0.04133318
v -0.01526149 0.05786945 -0.03707369
v -0.01386365 0.05815734 -0.03634235
v -0.00865766 0.06021641 -0.03634235
v -0.00803060 0.06046049 -0.03634235
v 0.00780944 0.06425945 -0.04718830
v 0.00780291 0.06634355 -0.05143450
v 0.00722810 0.06656886 -0.05143450
v 0.00632668 0.06691933 -0.05143450
v 0.01012176 0.06018511 -0.04080572
v 0.01467455 0.05623596 -0.03634235
v 0.01498155 0.05611704 -0.03634235
v -0.02202208 0.06034158 -0.05143450
v -0.02270794 0.05974702 -0.05050813
v -0.02270794 0.05921504 -0.04859336
v -0.02270794 0.05750645 -0.04420238
v -0.01857320 0.05759407 -0.03997688
v -0.01481732 0.05775679 -0.03634235
v 0.01006297 0.06432829 -0.04913411
v 0.01823447 0.06218786 -0.05133403
v 0.01484438 0.06357100 -0.05143450
v 0.01698033 0.05532847 -0.03634235
v 0.01608545 0.05591051 -0.03680627
v -0.02270794 0.05977831 -0.05143450
v -0.02270794 0.05653637 -0.04205417
v -0.01866465 0.05658644 -0.03782423
v -0.01764566 0.05641120 -0.03634235
v -0.01642418 0.05699950 -0.03634235
v 0.01740491 0.05977831 -0.04575075
v 0.01829326 0.06221290 -0.05143450
v 0.01747023 0.05563513 -0.03736327
v 0.01897258 0.05437091 -0.03634235
v -0.02270794 0.00477799 -0.05143450
v -0.02270794 0.05597310 -0.04081754
v -0.02059811 0.05496547 -0.03634235
v 0.01938410 0.06174976 -0.05143450
v 0.01825407 0.05597310 -0.03875207
v 0.01950821 0.05405172 -0.03634235
v 0.02025285 0.05805095 -0.04502532
v 0.02027898 0.06014756 -0.04915627
v 0.01963885 0.05979082 -0.04776746
v -0.02270794 0.00477799 -0.03634235
v 0.03394387 0.00477799 -0.05143450
v -0.02270794 0.05392654 -0.03634235
v 0.02102362 0.06079220 -0.05143450
v 0.02003076 0.05373879 -0.03634235
v 0.02069703 0.05627977 -0.04217680
v 0.02112160 0.05684930 -0.04386257
v 0.02126531 0.05674916 -0.04386257
v 0.02223857 0.05995355 -0.05143450
v 0.02019406 0.05385144 -0.03676343
v 0.03747113 0.00477799 -0.03634235
v 0.03792837 0.00878348 -0.05143450
v 0.03626925 0.00477799 -0.04217680
v 0.02063824 0.05332572 -0.03634235
v 0.02399567 0.05359484 -0.04143660
v 0.02791486 0.05550371 -0.05050813
v 0.03634764 0.04932024 -0.04997182
v 0.03685059 0.04967071 -0.05136062
v 0.03687019 0.04968949 -0.05143450
v 0.03715107 0.00477799 -0.03801187
v 0.03882978 0.00977859 -0.05143450
v 0.03891470 0.00988499 -0.05143450
v 0.03937194 0.01104908 -0.05143450
v 0.04016884 0.01319577 -0.05143450
v 0.04054116 0.01420966 -0.05143450
v 0.04287307 0.02056837 -0.05143450
v 0.04305597 0.02108783 -0.05143450
v 0.04325193 0.02176375 -0.05143450
v 0.04370264 0.02354744 -0.05143450
v 0.04401617 0.02560025 -0.05143450
v 0.04370917 0.02771565 -0.05050813
v 0.04310169 0.02771565 -0.04926412
v 0.03609942 0.01979230 -0.03634235
v 0.03662851 0.00477799 -0.04069196
v 0.02374092 0.05115400 -0.03634235
v 0.03920211 0.04779940 -0.05102376
v 0.03110899 0.04985221 -0.04386109
v 0.02634065 0.04961439 -0.03690230
v 0.03929355 0.04786825 -0.05143450
v 0.04402270 0.02771565 -0.05143450
v 0.04388553 0.02863566 -0.05143450
v 0.04306250 0.03344850 -0.05134141
v 0.04320621 0.03187760 -0.05103115
v 0.04332378 0.02968710 -0.05042688
v 0.04299718 0.02891730 -0.04940892
v 0.04069793 0.02979350 -0.04562074
v 0.03662851 0.03188386 -0.03920269
v 0.03466238 0.03396171 -0.03634235
v 0.02553722 0.04988977 -0.03634235
v 0.03963975 0.04657273 -0.05040028
v 0.04016231 0.04655395 -0.05143450
v 0.03674608 0.04752403 -0.04734935
v 0.03867302 0.04734253 -0.04963348
v 0.02613816 0.04939534 -0.03634235
v 0.04308210 0.03351109 -0.05143450
v 0.04083510 0.04530849 -0.05143450
v 0.04101799 0.04402549 -0.05130152
v 0.04050197 0.04457624 -0.05056723
v 0.04185409 0.03187760 -0.04842493
v 0.03927396 0.03202155 -0.04386257
v 0.04128581 0.02979350 -0.04666233
v 0.03482569 0.03396171 -0.03662011
v 0.03430966 0.03577669 -0.03634235
v 0.03910413 0.04595939 -0.04895090
v 0.03671996 0.04542115 -0.04529421
v 0.03706615 0.04625354 -0.04652937
v 0.03824190 0.04657273 -0.04832299
v 0.02714408 0.04835016 -0.03634235
v 0.02839822 0.04752403 -0.03694220
v 0.02824146 0.04711096 -0.03634235
v 0.02891425 0.04624102 -0.03634235
v 0.03866649 0.04496427 -0.04756358
v 0.03667423 0.04318058 -0.04327159
v 0.03478649 0.04020150 -0.03878457
v 0.03560952 0.03396171 -0.03801187
v 0.03383282 0.03812366 -0.03634235
v 0.03630191 0.04443229 -0.04386257
v 0.03421821 0.04487665 -0.04165083
v 0.03176219 0.04252969 -0.03634235
v 0.03474730 0.04348725 -0.04098450
v 0.02730085 0.04818118 -0.03634235
v 0.03080852 0.04377514 -0.03634235
v 0.03277465 0.04155335 -0.03667625
v 0.03466238 0.04130301 -0.03900028
v 0.03372178 0.03859305 -0.03634235
v 0.03225209 0.04187880 -0.03634235
v 0.03264400 0.04135308 -0.03634235
v 0.03289222 0.04087743 -0.03634235
v 0.03310124 0.04045184 -0.03634235
v 0.03325801 0.04012014 -0.03634235
f 1 2 3
f 1 3 4
f 1 4 11
f 1 11 18
f 1 18 32
f 1 32 50
f 1 50 49
f 1 49 48
f 1 48 62
f 1 62 71
f 1 71 77
f 1 77 86
f 1 86 91
f 1 91 101
f 1 101 121
f 1 121 133
f 1 133 138
f 1 138 137
f 1 137 123
f 1 123 122
f 1 122 112
f 1 112 111
f 1 111 110
f 1 110 109
f 1 109 108
f 1 108 107
f 1 107 106
f 1 106 105
f 1 105 104
f 1 104 103
f 1 103 94
f 1 94 84
f 1 84 74
f 1 74 65
f 1 65 54
f 1 54 38
f 1 38 25
f 1 25 14
f 1 14 6
f 1 6 2
f 2 5 3
f 2 6 5
f 3 7 8
f 3 8 4
f 3 5 9
f 3 9 10
f 3 10 7
f 4 8 11
f 5 6 12
f 5 12 13
f 5 13 9
f 6 14 12
f 7 10 15
f 7 15 16
f 7 16 8
f 8 17 18
f 8 18 11
f 8 16 19
f 8 19 20
f 8 20 21
f 8 21 22
f 8 22 17
f 9 13 23
f 9 23 10
f 10 23 24
f 10 24 15
f 12 14 25
f 12 25 26
f 12 26 13
f 13 26 27
f 13 27 28
f 13 28 23
f 15 24 29
f 15 29 16
f 16 29 19
f 17 22 30
f 17 30 18
f 18 31 32
f 18 30 33
f 18 33 31
f 19 29 20
f 20 29 34
f 20 34 21
f 21 34 35
f 21 35 22
f 22 36 33
f 22 33 30
f 22 35 34
f 22 34 37
f 22 37 24
f 22 24 23
f 22 23 28
f 22 28 27
f 22 27 46
f 22 46 45
f 22 45 44
f 22 44 59
f 22 59 69
f 22 69 68
f 22 68 76
f 22 76 85
f 22 85 83
f 22 83 93
f 22 93 115
f 22 115 130
f 22 130 145
f 22 145 158
f 22 158 167
f 22 167 172
f 22 172 171
f 22 171 170
f 22 170 169
f 22 169 168
f 22 168 161
f 22 161 164
f 22 164 153
f 22 153 152
f 22 152 163
f 22 163 150
f 22 150 136
f 22 136 131
f 22 131 117
f 22 117 96
f 22 96 87
f 22 87 79
f 22 79 73
f 22 73 63
f 22 63 53
f 22 53 52
f 22 52 36
f 24 37 29
f 25 38 39
f 25 39 40
f 25 40 41
f 25 41 42
f 25 42 43
f 25 43 44
f 25 44 45
f 25 45 46
f 25 46 26
f 26 46 27
f 29 37 34
f 31 47 48
f 31 48 49
f 31 49 50
f 31 50 32
f 31 33 51
f 31 51 52
f 31 52 53
f 31 53 47
f 33 36 51
f 36 52 51
f 38 54 55
f 38 55 39
f 39 55 56
f 39 56 40
f 40 56 55
f 40 55 65
f 40 65 74
f 40 74 83
f 40 83 85
f 40 85 75
f 40 75 66
f 40 66 57
f 40 57 41
f 41 57 42
f 42 58 59
f 42 59 43
f 42 57 58
f 43 59 44
f 47 53 60
f 47 60 48
f 48 60 61
f 48 61 62
f 53 63 64
f 53 64 60
f 54 65 55
f 57 66 67
f 57 67 68
f 57 68 69
f 57 69 58
f 58 69 59
f 60 64 70
f 60 70 61
f 61 71 62
f 61 70 72
f 61 72 71
f 63 72 70
f 63 70 64
f 63 73 72
f 66 75 68
f 66 68 67
f 68 75 76
f 71 72 77
f 72 73 78
f 72 78 77
f 73 79 80
f 73 80 81
f 73 81 82
f 73 82 78
f 74 84 95
f 74 95 116
f 74 116 102
f 74 102 93
f 74 93 83
f 75 85 76
f 77 78 82
f 77 82 81
f 77 81 86
f 79 87 80
f 80 88 89
f 80 89 90
f 80 90 91
f 80 91 81
f 80 87 92
f 80 92 88
f 81 91 86
f 84 94 95
f 87 96 92
f 88 92 89
f 89 92 90
f 90 92 96
f 90 96 97
f 90 97 91
f 91 97 98
f 91 98 99
f 91 99 100
f 91 100 101
f 93 102 103
f 93 103 104
f 93 104 105
f 93 105 106
f 93 106 107
f 93 107 108
f 93 108 109
f 93 109 110
f 93 110 111
f 93 111 112
f 93 112 113
f 93 113 114
f 93 114 115
f 94 103 116
f 94 116 95
f 96 117 97
f 97 117 99
f 97 99 98
f 99 118 100
f 99 117 119
f 99 119 120
f 99 120 118
f 100 118 101
f 101 118 121
f 102 116 103
f 112 122 113
f 113 122 123
f 113 123 124
f 113 124 125
f 113 125 126
f 113 126 127
f 113 127 114
f 114 127 128
f 114 128 129
f 114 129 115
f 115 129 130
f 117 131 120
f 117 120 119
f 118 132 133
f 118 133 121
f 118 120 134
f 118 134 135
f 118 135 132
f 120 131 136
f 120 136 134
f 123 137 124
f 124 137 138
f 124 138 139
f 124 139 127
f 124 127 125
f 125 127 126
f 127 139 138
f 127 138 140
f 127 140 141
f 127 141 142
f 127 142 143
f 127 143 128
f 128 143 144
f 128 144 130
f 128 130 129
f 130 144 145
f 132 135 146
f 132 146 138
f 132 138 133
f 134 147 148
f 134 148 149
f 134 149 135
f 134 136 150
f 134 150 151
f 134 151 152
f 134 152 153
f 134 153 147
f 135 149 146
f 138 146 154
f 138 154 155
f 138 155 156
f 138 156 140
f 140 157 142
f 140 142 141
f 140 156 157
f 142 157 143
f 143 157 144
f 144 157 145
f 145 157 156
f 145 156 158
f 146 149 155
f 146 155 154
f 147 159 149
f 147 149 148
f 147 153 160
f 147 160 161
f 147 161 162
f 147 162 159
f 149 159 155
f 150 163 151
f 151 163 152
f 153 164 160
f 155 159 165
f 155 165 166
f 155 166 156
f 156 166 158
f 158 166 167
f 159 162 165
f 160 164 161
f 161 168 165
f 161 165 162
f 165 168 169
f 165 169 166
f 166 169 170
f 166 170 171
f 166 171 172
f 166 172 167

