# https://github.com/mikedh/trimesh
v -0.01658441 -0.00397414 -0.06654351
v -0.01658441 -0.03738503 -0.06654351
v -0.01658441 -0.00397414 -0.08645096
v -0.05538487 -0.00397414 -0.06654351
v -0.01658441 -0.03738503 -0.09346968
v -0.06379960 -0.03738503 -0.06654351
v -0.01658441 -0.03491257 -0.09332801
v -0.01721030 -0.00397414 -0.08713774
v -0.05534314 -0.00397414 -0.06713790
v -0.05644657 -0.00770572 -0.06654351
v -0.02682117 -0.03637446 -0.09567478
v -0.02518458 -0.03607031 -0.09545612
v -0.02890282 -0.03478502 -0.09644471
v -0.02993670 -0.02963080 -0.09738711
v -0.01658441 -0.03679308 -0.09350972
v -0.02941281 -0.03738503 -0.09556390
v -0.02906509 -0.03695333 -0.09575177
v -0.06378106 -0.03686830 -0.06654351
v -0.06388305 -0.03738503 -0.06690692
v -0.01658441 -0.03509571 -0.09336805
v -0.01852698 -0.00397414 -0.08807398
v -0.05530142 -0.00397414 -0.06767686
v -0.05698436 -0.01096963 -0.07184990
v -0.05831032 -0.01603882 -0.07342673
v -0.05678501 -0.00959604 -0.06925984
v -0.05640020 -0.00770572 -0.06717794
v -0.05885739 -0.01796511 -0.07342673
v -0.05802288 -0.01395555 -0.06925984
v -0.05762880 -0.01187227 -0.06654351
v -0.03098912 -0.03478502 -0.09651554
v -0.03002479 -0.02963080 -0.09738711
v -0.03307078 -0.02436865 -0.09791990
v -0.03098912 -0.02228537 -0.09791683
v -0.02989034 -0.02853520 -0.09741483
v -0.01658441 -0.03668515 -0.09351280
v -0.03055331 -0.03738503 -0.09556083
v -0.03086858 -0.03699911 -0.09573021
v -0.06369296 -0.03604741 -0.06654351
v -0.06392014 -0.03686830 -0.06717794
v -0.06394332 -0.03738503 -0.06717794
v -0.02492495 -0.00397414 -0.09157564
v -0.01978803 -0.00397414 -0.08891167
v -0.02988570 -0.02096084 -0.09742407
v -0.05513915 -0.00397414 -0.06921057
v -0.05513915 -0.00399049 -0.06925984
v -0.05564450 -0.00562245 -0.06925984
v -0.05905676 -0.01932562 -0.07591824
v -0.05932101 -0.02009417 -0.07533925
v -0.05911239 -0.01914901 -0.07452928
v -0.05922829 -0.01874021 -0.07134483
v -0.05821760 -0.01395555 -0.06654351
v -0.03307078 -0.03270175 -0.09661409
v -0.03098912 -0.03270175 -0.09685431
v -0.03307078 -0.03654779 -0.09569018
v -0.03515244 -0.03629597 -0.09555775
v -0.03723874 -0.03604741 -0.09541916
v -0.03853688 -0.03589043 -0.09533292
v -0.03307078 -0.03478502 -0.09626608
v -0.04263529 -0.03383660 -0.09532060
v -0.04139742 -0.03270175 -0.09565014
v -0.03082685 -0.03044187 -0.09720541
v -0.03307078 -0.02228537 -0.09800614
v -0.03315887 -0.02657293 -0.09756573
v -0.03515244 -0.02584362 -0.09744871
v -0.03620949 -0.02544463 -0.09738711
v -0.03093812 -0.02024462 -0.09767660
v -0.03199054 -0.03738503 -0.09536988
v -0.06347506 -0.03501396 -0.06654351
v -0.06350288 -0.03490276 -0.06717794
v -0.06344261 -0.03512515 -0.06925984
v -0.06379033 -0.03686830 -0.06925984
v -0.06375787 -0.03738503 -0.06928756
v -0.02762787 -0.00609339 -0.09335573
v -0.02683507 -0.00397414 -0.09248108
v -0.03021024 -0.01957417 -0.09731936
v -0.05512988 -0.00397414 -0.06925984
v -0.05503715 -0.00437314 -0.07046402
v -0.05923293 -0.02081694 -0.07759362
v -0.05971973 -0.02228537 -0.07759362
v -0.06034562 -0.02436865 -0.07759362
v -0.05991909 -0.02228537 -0.07550864
v -0.05910311 -0.01709845 -0.06654351
v -0.05900111 -0.01673543 -0.06654351
v -0.05869977 -0.01566599 -0.06654351
v -0.03723874 -0.02853520 -0.09678656
v -0.03723874 -0.03738503 -0.09460919
v -0.04075298 -0.03738503 -0.09408871
v -0.04139742 -0.03686830 -0.09430737
v -0.03992774 -0.03558301 -0.09523437
v -0.03339995 -0.03738503 -0.09516969
v -0.03477691 -0.03738503 -0.09497260
v -0.03509681 -0.03738503 -0.09492639
v -0.04339099 -0.03463459 -0.09500031
v -0.04556537 -0.03478502 -0.09459687
v -0.04411887 -0.03270175 -0.09524669
v -0.04307573 -0.03270175 -0.09541300
v -0.03298733 -0.02040160 -0.09765505
v -0.03223163 -0.01893643 -0.09747643
v -0.03160110 -0.01893643 -0.09747643
v -0.03620949 -0.02538249 -0.09738711
v -0.03445237 -0.02228537 -0.09753186
v -0.02957507 -0.01243806 -0.09547767
v -0.06230674 -0.02998727 -0.06654351
v -0.06319226 -0.03408187 -0.06925984
v -0.06179675 -0.02790400 -0.06654351
v -0.06127749 -0.02580765 -0.06654351
v -0.06244119 -0.03061847 -0.06717794
v -0.06122650 -0.02735784 -0.07513907
v -0.06118941 -0.02749847 -0.07652803
v -0.06336842 -0.03543584 -0.07073196
v -0.06365588 -0.03738503 -0.06998050
v -0.06342870 -0.03703509 -0.07139410
v -0.06336380 -0.03738503 -0.07183451
v -0.02890282 -0.00519075 -0.09297077
v -0.02890282 -0.00397414 -0.09251805
v -0.02921809 -0.01395555 -0.09570865
v -0.03039568 -0.01243806 -0.09547767
v -0.05446690 -0.00397414 -0.07088903
v -0.05404037 -0.00397414 -0.07144954
v -0.05495834 -0.00663629 -0.07240734
v -0.05708637 -0.01278800 -0.07456932
v -0.05912630 -0.02120940 -0.07866229
v -0.05934419 -0.02228537 -0.07907806
v -0.05973827 -0.02427054 -0.07980487
v -0.06040589 -0.02645192 -0.07967553
v -0.06085097 -0.02645192 -0.07759362
v -0.06046152 -0.02436865 -0.07550864
v -0.05926539 -0.01773945 -0.06654351
v -0.04139742 -0.03738503 -0.09398708
v -0.04348835 -0.03700238 -0.09384541
v -0.04556537 -0.03646276 -0.09373146
v -0.04706750 -0.03610956 -0.09348200
v -0.04771658 -0.03468037 -0.09370990
v -0.04556537 -0.03270175 -0.09481245
v -0.04310818 -0.03061847 -0.09548999
v -0.03412784 -0.02122248 -0.09739020
v -0.03362249 -0.01983581 -0.09713765
v -0.03097985 -0.00397414 -0.09168652
v -0.04120734 -0.00397414 -0.08742107
v -0.04072053 -0.00397414 -0.08764281
v -0.03930649 -0.00397414 -0.08828340
v -0.03594059 -0.02399255 -0.09724544
v -0.04415133 -0.03061847 -0.09509578
v -0.06101324 -0.02474148 -0.06654351
v -0.06100396 -0.02657947 -0.07570574
v -0.06133777 -0.02888841 -0.07723021
v -0.06188484 -0.03061847 -0.07550864
v -0.06118478 -0.02961771 -0.07861917
v -0.06143977 -0.03043533 -0.07779072
v -0.06213984 -0.03270175 -0.07550864
v -0.06277964 -0.03478502 -0.07342673
v -0.06302998 -0.03703509 -0.07323579
v -0.06169012 -0.03270175 -0.07759362
v -0.06313662 -0.03738503 -0.07288162
v -0.04309891 -0.00397414 -0.08571798
v -0.05863022 -0.02228537 -0.08011901
v -0.05900575 -0.02351179 -0.08058405
v -0.05938128 -0.02489846 -0.08097517
v -0.06061916 -0.02853520 -0.07967553
v -0.06114769 -0.02833243 -0.07779072
v -0.05956673 -0.02645192 -0.08119692
v -0.06015553 -0.02228537 -0.07134483
v -0.05974291 -0.02020537 -0.06925984
v -0.05972436 -0.01957417 -0.06654351
v -0.04285319 -0.03738503 -0.09372222
v -0.04323336 -0.03738503 -0.09365138
v -0.04460568 -0.03738503 -0.09328490
v -0.04569982 -0.03738503 -0.09284449
v -0.04747549 -0.03738503 -0.09189593
v -0.04811992 -0.03738503 -0.09151405
v -0.04864845 -0.03738503 -0.09114448
v -0.04929289 -0.03635483 -0.09166187
v -0.04845837 -0.03530175 -0.09305084
v -0.04873654 -0.03391181 -0.09325717
v -0.04873654 -0.03363382 -0.09325717
v -0.04768876 -0.03284565 -0.09372529
v -0.04267702 -0.02920891 -0.09542532
v -0.04556537 -0.03061847 -0.09430429
v -0.04666416 -0.02946074 -0.09325717
v -0.04222730 -0.00397414 -0.08676817
v -0.06040125 -0.02228537 -0.06654351
v -0.06036880 -0.02228537 -0.06717794
v -0.06124968 -0.03100439 -0.07877009
v -0.06206565 -0.03686830 -0.07759362
v -0.06188020 -0.03478502 -0.07759362
v -0.06252000 -0.03686830 -0.07550864
v -0.06183384 -0.03738503 -0.07809870
v -0.05684065 -0.02369821 -0.08264747
v -0.05718372 -0.02508815 -0.08293081
v -0.05624721 -0.02645192 -0.08424586
v -0.05744798 -0.02645192 -0.08320491
v -0.05849114 -0.02645192 -0.08223787
v -0.06151395 -0.03686830 -0.07912733
v -0.06142122 -0.03478502 -0.07904109
v -0.06132850 -0.03270175 -0.07891175
v -0.05764271 -0.02853520 -0.08344821
v -0.05868585 -0.02853520 -0.08233334
v -0.05963164 -0.02853520 -0.08129547
v -0.05984954 -0.02020537 -0.06717794
v -0.05988200 -0.02020537 -0.06654351
v -0.04984923 -0.03738503 -0.09015588
v -0.05026186 -0.03738503 -0.08980479
v -0.05311313 -0.03738503 -0.08723629
v -0.05138845 -0.03645622 -0.08966313
v -0.05069766 -0.03478502 -0.09106132
v -0.04948761 -0.03468037 -0.09228090
v -0.05169908 -0.03478502 -0.09002037
v -0.05273760 -0.03478502 -0.08893014
v -0.05370193 -0.03478502 -0.08788919
v -0.05033140 -0.03061847 -0.09076875
v -0.04840737 -0.03224389 -0.09298617
v -0.04696088 -0.03061847 -0.09346353
v -0.05273760 -0.03270175 -0.08891474
v -0.06148612 -0.03738503 -0.07907498
v -0.06071651 -0.03478502 -0.08008205
v -0.06067942 -0.03686830 -0.08016828
v -0.05871367 -0.03270175 -0.08236414
v -0.05368802 -0.03270175 -0.08787379
v -0.05967337 -0.03478502 -0.08134167
v -0.05528751 -0.03738503 -0.08523138
v -0.05744335 -0.03738503 -0.08321723
v -0.05956210 -0.03738503 -0.08118767
v -0.05963628 -0.03686830 -0.08127391
v -0.06021117 -0.03738503 -0.08049473
f 1 2 5
f 1 5 15
f 1 15 35
f 1 35 20
f 1 20 7
f 1 7 3
f 1 3 8
f 1 8 21
f 1 21 42
f 1 42 41
f 1 41 74
f 1 74 115
f 1 115 138
f 1 138 141
f 1 141 140
f 1 140 139
f 1 139 180
f 1 180 155
f 1 155 119
f 1 119 118
f 1 118 76
f 1 76 44
f 1 44 22
f 1 22 9
f 1 9 4
f 1 4 10
f 1 10 29
f 1 29 51
f 1 51 84
f 1 84 83
f 1 83 82
f 1 82 128
f 1 128 164
f 1 164 200
f 1 200 181
f 1 181 144
f 1 144 106
f 1 106 105
f 1 105 103
f 1 103 68
f 1 68 38
f 1 38 18
f 1 18 6
f 1 6 2
f 2 6 19
f 2 19 40
f 2 40 72
f 2 72 111
f 2 111 113
f 2 113 154
f 2 154 187
f 2 187 214
f 2 214 224
f 2 224 222
f 2 222 221
f 2 221 220
f 2 220 203
f 2 203 202
f 2 202 201
f 2 201 171
f 2 171 170
f 2 170 169
f 2 169 168
f 2 168 167
f 2 167 166
f 2 166 165
f 2 165 129
f 2 129 87
f 2 87 86
f 2 86 92
f 2 92 91
f 2 91 90
f 2 90 67
f 2 67 36
f 2 36 16
f 2 16 5
f 3 7 8
f 4 9 10
f 5 11 12
f 5 12 13
f 5 13 14
f 5 14 15
f 5 16 17
f 5 17 11
f 6 18 19
f 7 20 8
f 8 20 21
f 9 22 23
f 9 23 24
f 9 24 25
f 9 25 26
f 9 26 10
f 10 26 25
f 10 25 27
f 10 27 28
f 10 28 29
f 11 17 13
f 11 13 12
f 13 17 30
f 13 30 14
f 14 30 31
f 14 31 32
f 14 32 33
f 14 33 34
f 14 34 15
f 15 34 33
f 15 33 35
f 16 36 37
f 16 37 17
f 17 37 30
f 18 38 39
f 18 39 40
f 18 40 19
f 20 41 42
f 20 42 21
f 20 35 43
f 20 43 41
f 22 44 45
f 22 45 46
f 22 46 23
f 23 47 48
f 23 48 24
f 23 46 45
f 23 45 47
f 24 48 49
f 24 49 27
f 24 27 25
f 27 49 50
f 27 50 28
f 28 50 29
f 29 50 51
f 30 52 53
f 30 53 31
f 30 37 54
f 30 54 55
f 30 55 56
f 30 56 57
f 30 57 58
f 30 58 59
f 30 59 60
f 30 60 52
f 31 61 32
f 31 53 61
f 32 62 33
f 32 61 53
f 32 53 63
f 32 63 64
f 32 64 65
f 32 65 62
f 33 62 66
f 33 66 43
f 33 43 35
f 36 67 55
f 36 55 37
f 37 55 54
f 38 68 39
f 39 68 69
f 39 69 70
f 39 70 71
f 39 71 40
f 40 71 72
f 41 73 74
f 41 43 75
f 41 75 73
f 43 66 75
f 44 76 45
f 45 76 77
f 45 77 47
f 47 78 79
f 47 79 80
f 47 80 48
f 47 77 78
f 48 50 49
f 48 80 81
f 48 81 50
f 50 82 83
f 50 83 84
f 50 84 51
f 50 81 82
f 52 63 53
f 52 60 85
f 52 85 63
f 55 67 56
f 56 67 57
f 57 86 87
f 57 87 88
f 57 88 89
f 57 89 59
f 57 59 58
f 57 67 90
f 57 90 91
f 57 91 92
f 57 92 86
f 59 89 93
f 59 93 94
f 59 94 95
f 59 95 96
f 59 96 65
f 59 65 60
f 60 65 85
f 62 97 98
f 62 98 99
f 62 99 66
f 62 65 100
f 62 100 101
f 62 101 97
f 63 85 64
f 64 85 65
f 65 96 95
f 65 95 100
f 66 102 75
f 66 99 102
f 68 103 69
f 69 104 70
f 69 103 105
f 69 105 106
f 69 106 107
f 69 107 108
f 69 108 109
f 69 109 104
f 70 110 71
f 70 104 109
f 70 109 110
f 71 111 72
f 71 110 112
f 71 112 113
f 71 113 111
f 73 114 115
f 73 115 74
f 73 75 116
f 73 116 102
f 73 102 117
f 73 117 114
f 75 102 116
f 76 118 77
f 77 118 119
f 77 119 120
f 77 120 121
f 77 121 78
f 78 121 122
f 78 122 79
f 79 122 80
f 80 122 123
f 80 123 124
f 80 124 125
f 80 125 126
f 80 126 109
f 80 109 127
f 80 127 82
f 80 82 81
f 82 127 128
f 87 129 88
f 88 129 130
f 88 130 94
f 88 94 89
f 89 94 93
f 94 131 132
f 94 132 133
f 94 133 134
f 94 134 95
f 94 130 131
f 95 135 100
f 95 134 135
f 97 101 136
f 97 136 137
f 97 137 98
f 98 138 115
f 98 115 117
f 98 117 102
f 98 102 99
f 98 137 139
f 98 139 140
f 98 140 141
f 98 141 138
f 100 142 101
f 100 135 143
f 100 143 142
f 101 142 143
f 101 143 136
f 106 144 107
f 107 144 108
f 108 144 145
f 108 145 109
f 109 145 127
f 109 126 146
f 109 146 147
f 109 147 110
f 110 147 148
f 110 148 149
f 110 149 150
f 110 150 151
f 110 151 112
f 112 152 113
f 112 151 150
f 112 150 149
f 112 149 153
f 112 153 152
f 113 152 154
f 114 117 115
f 119 155 120
f 120 155 121
f 121 155 122
f 122 156 157
f 122 157 158
f 122 158 123
f 122 155 156
f 123 158 124
f 124 158 125
f 125 159 148
f 125 148 160
f 125 160 126
f 125 158 161
f 125 161 159
f 126 160 146
f 127 145 162
f 127 162 163
f 127 163 128
f 128 163 164
f 129 165 130
f 130 165 166
f 130 166 131
f 131 166 167
f 131 167 132
f 132 167 168
f 132 168 169
f 132 169 170
f 132 170 171
f 132 171 172
f 132 172 173
f 132 173 133
f 133 173 174
f 133 174 134
f 134 174 175
f 134 175 176
f 134 176 143
f 134 143 135
f 136 143 177
f 136 177 139
f 136 139 137
f 139 177 143
f 139 143 178
f 139 178 179
f 139 179 180
f 143 176 178
f 144 181 145
f 145 181 182
f 145 182 162
f 146 160 148
f 146 148 147
f 148 183 184
f 148 184 185
f 148 185 153
f 148 153 149
f 148 159 183
f 152 153 185
f 152 185 186
f 152 186 184
f 152 184 154
f 154 184 187
f 155 180 157
f 155 157 156
f 157 180 158
f 158 188 189
f 158 189 190
f 158 190 191
f 158 191 192
f 158 192 161
f 158 180 188
f 159 193 194
f 159 194 195
f 159 195 183
f 159 161 193
f 161 196 197
f 161 197 198
f 161 198 193
f 161 192 175
f 161 175 196
f 162 182 199
f 162 199 163
f 163 199 164
f 164 199 200
f 171 201 172
f 172 201 202
f 172 202 203
f 172 203 204
f 172 204 173
f 173 204 205
f 173 205 206
f 173 206 174
f 174 206 205
f 174 205 207
f 174 207 208
f 174 208 209
f 174 209 175
f 175 210 211
f 175 211 179
f 175 179 212
f 175 212 176
f 175 209 213
f 175 213 197
f 175 197 196
f 175 192 191
f 175 191 190
f 175 190 210
f 176 212 178
f 178 212 179
f 179 211 180
f 180 211 210
f 180 210 190
f 180 190 189
f 180 189 188
f 181 200 199
f 181 199 182
f 183 195 184
f 184 186 185
f 184 195 194
f 184 194 193
f 184 193 214
f 184 214 187
f 193 215 216
f 193 216 214
f 193 198 215
f 197 217 219
f 197 219 198
f 197 213 218
f 197 218 209
f 197 209 217
f 198 219 216
f 198 216 215
f 203 220 204
f 204 220 221
f 204 221 222
f 204 222 205
f 205 222 223
f 205 223 207
f 207 223 208
f 208 223 216
f 208 216 209
f 209 218 213
f 209 216 219
f 209 219 217
f 214 216 224
f 216 223 222
f 216 222 224

