# https://github.com/mikedh/trimesh
v -0.04986411 0.01065452 -0.03633745
v -0.04871912 0.01432777 -0.03274824
v -0.04965273 0.01271236 -0.03633745
v -0.04969677 0.00854523 -0.03633745
v -0.04265065 0.00479996 -0.01340000
v -0.04662289 0.01640619 -0.02649478
v -0.04752128 0.01729106 -0.02967680
v -0.04802331 0.01729106 -0.03175858
v -0.04231595 0.00479996 -0.01235910
v -0.04316149 0.00687838 -0.01509617
v -0.04921235 0.01479078 -0.03633745
v -0.04860462 0.01571681 -0.03346555
v -0.04840204 0.01708527 -0.03403183
v -0.04907143 0.01520235 -0.03592486
v -0.04751248 -0.00565387 -0.03633745
v -0.03985862 -0.00977985 -0.00879417
v -0.04171703 0.00271125 -0.01092990
v -0.04652602 0.01779523 -0.02671860
v -0.04685190 0.01717788 -0.02748444
v -0.04183154 0.00479996 -0.01092990
v -0.04108289 0.00486169 -0.00879417
v -0.04087150 0.00707387 -0.00879417
v -0.04683428 0.01893733 -0.02810736
v -0.04708090 0.01953411 -0.02952039
v -0.04759174 0.01936948 -0.03175858
v -0.04912427 0.01520235 -0.03633745
v -0.04739798 0.02145819 -0.03384307
v -0.04744201 -0.00603458 -0.03633745
v -0.03913640 -0.01164219 -0.00879417
v -0.04091554 0.00278327 -0.00879417
v -0.04708970 -0.00753680 -0.03633745
v -0.04697520 -0.00785576 -0.03633745
v -0.04108289 0.00479996 -0.00879417
v -0.04451787 0.01828911 -0.02240671
v -0.04236880 0.02004856 -0.01838335
v -0.03775359 0.02141703 -0.00879417
v -0.03834371 0.02068650 -0.00973530
v -0.04036066 0.02041898 -0.01405258
v -0.04266826 0.02090257 -0.01977211
v -0.04462356 0.02062476 -0.02422423
v -0.04657005 0.02032637 -0.02872489
v -0.04680786 0.02091286 -0.03011365
v -0.04699282 0.02154050 -0.03170465
v -0.04686951 0.02354690 -0.03390510
v -0.04671098 0.02583110 -0.03633745
v -0.04781193 0.02103633 -0.03633745
v -0.04733632 0.02312504 -0.03633745
v -0.04686071 -0.00811299 -0.03633745
v -0.04651720 -0.00867890 -0.03633745
v -0.04552194 -0.00973869 -0.03633745
v -0.03931255 -0.01603569 -0.03633745
v -0.03918043 -0.01616944 -0.03633745
v -0.03891621 -0.01641639 -0.03633745
v -0.02201432 -0.02583101 -0.00879417
v -0.03816755 0.02207554 -0.01015866
v -0.03771837 0.02154050 -0.00879417
v -0.03844059 0.02285752 -0.01154742
v -0.04039589 0.02257971 -0.01604269
v -0.03970009 0.02338227 -0.01524718
v -0.04484375 0.02137587 -0.02563996
v -0.04559240 0.02145819 -0.02759231
v -0.04631463 0.02154050 -0.02952039
v -0.04650840 0.02230190 -0.03097387
v -0.04674621 0.02284723 -0.03236263
v -0.04667574 0.02477131 -0.03464127
v -0.04639390 0.02616036 -0.03556082
v -0.04615609 0.02729217 -0.03633745
v -0.03810590 -0.01707490 -0.03633745
v -0.00584347 -0.03891889 -0.03633745
v -0.00568494 -0.03902178 -0.03633745
v -0.02056106 -0.02676733 -0.00879417
v -0.03708421 -0.01780543 -0.03633745
v -0.03697852 0.02358805 -0.00879417
v -0.03692568 0.02371152 -0.00879417
v -0.03678475 0.02402020 -0.00879417
v -0.03645006 0.02513143 -0.00924721
v -0.03640602 0.02711725 -0.01144495
v -0.04283560 0.02559445 -0.02557793
v -0.04452667 0.02458611 -0.02862511
v -0.04049277 0.03111975 -0.02621703
v -0.04016689 0.03250879 -0.02703950
v -0.04620894 0.02354690 -0.03170465
v -0.04043993 0.03308499 -0.02842826
v -0.04543386 0.02353661 -0.02967680
v -0.04478210 0.03038922 -0.03633745
v -0.04645555 0.02423627 -0.03325251
v -0.04599755 0.02750824 -0.03612441
v -0.04505514 0.02978216 -0.03633745
v -0.00449590 -0.03976260 -0.03633745
v -0.01932799 -0.02741555 -0.00879417
v -0.03588637 0.02581052 -0.00879417
v -0.03611537 0.02652048 -0.01005619
v -0.03607133 0.02850629 -0.01225394
v -0.03585114 0.04026686 -0.02539456
v -0.03622106 0.03506052 -0.02023323
v -0.03794736 0.03403160 -0.02330468
v -0.03689045 0.03622320 -0.02324266
v -0.03680237 0.03825017 -0.02539456
v -0.03844940 0.03536920 -0.02611456
v -0.03640602 0.03961864 -0.02601478
v -0.03812351 0.03675824 -0.02694242
v -0.03777121 0.03806497 -0.02761927
v -0.04230715 0.03471069 -0.03522913
v -0.04309103 0.03395957 -0.03633745
v 0.00650485 -0.04382683 -0.03633745
v -0.01828869 -0.02781683 -0.00879417
v -0.03507607 0.02714812 -0.00879417
v -0.03408961 0.03913505 -0.02033840
v -0.03445072 0.03975240 -0.02172716
v -0.03487349 0.04034917 -0.02328581
v -0.03440668 0.04168677 -0.02388445
v -0.03608014 0.04100768 -0.02686961
v -0.03612418 0.03903215 -0.02462603
v -0.04100361 0.03620262 -0.03369206
v -0.03833489 0.03925851 -0.03056398
v -0.04271230 0.03472098 -0.03633745
v 0.00734158 -0.04394002 -0.03633745
v -0.00385294 -0.03135632 -0.00879417
v -0.00593155 -0.03096533 -0.00879417
v -0.00598440 -0.03095504 -0.00879417
v -0.00806300 -0.03047144 -0.00879417
v -0.01015042 -0.02996727 -0.00879417
v -0.01431644 -0.02894864 -0.00879417
v -0.01639504 -0.02841360 -0.00879417
v -0.03468854 0.02777576 -0.00879417
v -0.03475019 0.02772431 -0.00884271
v -0.03467092 0.02977187 -0.01097304
v -0.03422173 0.03309528 -0.01385573
v -0.03340261 0.02982331 -0.00879417
v -0.03233689 0.03171653 -0.00904496
v -0.03234570 0.03758138 -0.01558157
v -0.03402796 0.04114144 -0.02249839
v -0.03375492 0.04307581 -0.02485524
v -0.03425696 0.04347709 -0.02624400
v -0.03472376 0.04234528 -0.02553479
v -0.03632676 0.04141925 -0.02825837
v -0.04058085 0.03737559 -0.03428801
v -0.04228953 0.03551324 -0.03633745
v 0.00859227 -0.04401204 -0.03633745
v -0.00177434 -0.03124313 -0.00879417
v -0.03430980 0.02906191 -0.00953574
v -0.03116547 0.03331136 -0.00879417
v -0.03084840 0.03380524 -0.00879417
v -0.03091886 0.03384639 -0.00896136
v -0.03166750 0.03617175 -0.01284180
v -0.03061940 0.03606886 -0.01092181
v -0.03185247 0.03897042 -0.01635550
v -0.03236331 0.04349767 -0.02413524
v -0.03305912 0.04382693 -0.02553479
v -0.03214312 0.04134722 -0.02014155
v -0.03012617 0.04135751 -0.01802470
v -0.03199339 0.04746930 -0.03293970
v -0.03440668 0.04366230 -0.02759231
v -0.03224001 0.04554522 -0.02833657
v -0.02999405 0.04961975 -0.03479228
v -0.03648529 0.04160446 -0.02967680
v -0.04080104 0.03762253 -0.03592486
v -0.04103885 0.03740646 -0.03633745
v 0.00961395 -0.04373423 -0.03633745
v 0.01898530 -0.02781683 -0.00879417
v 0.01654558 -0.02830042 -0.00879417
v -0.03070747 0.03402131 -0.00879417
v -0.03019663 0.03538977 -0.00943867
v -0.03015259 0.03730357 -0.01160944
v -0.03165870 0.04522626 -0.02694781
v -0.03164108 0.04313755 -0.02274648
v -0.03096290 0.04382693 -0.02343412
v -0.02955367 0.04522626 -0.02483906
v -0.03026709 0.04557609 -0.02622782
v -0.02892833 0.03777687 -0.01092181
v -0.02988836 0.03912476 -0.01410921
v -0.02669119 0.03804439 -0.00897755
v -0.02578400 0.03916591 -0.00987822
v -0.02455093 0.03943343 -0.00904766
v -0.02805637 0.04135751 -0.01592404
v -0.03129759 0.04881719 -0.03633745
v -0.03208147 0.04798376 -0.03633745
v -0.03210789 0.04759278 -0.03432846
v -0.03384300 0.04510279 -0.03175858
v -0.03020544 0.04983582 -0.03592486
v -0.03024948 0.04990784 -0.03633745
v -0.03561334 0.04264367 -0.02967680
v -0.02876979 0.04987698 -0.03399678
v -0.02642696 0.05209945 -0.03633745
v -0.02848794 0.05106024 -0.03633745
v -0.03001167 0.05011363 -0.03633745
v -0.03873125 0.03971124 -0.03384307
v -0.04083627 0.03766369 -0.03633745
v 0.01028334 -0.04353873 -0.03633745
v 0.02120482 -0.02689080 -0.00879417
v 0.01078537 -0.04336382 -0.03633745
v 0.02293112 -0.03897033 -0.03633745
v -0.02908687 0.03611002 -0.00879417
v -0.02963294 0.03677882 -0.01022069
v -0.02825014 0.03733443 -0.00946563
v -0.02745745 0.04730468 -0.02697209
v -0.02810922 0.04762364 -0.02836084
v -0.03097170 0.04587448 -0.02762197
v -0.02671761 0.04164561 -0.01517707
v -0.02384631 0.04132665 -0.01181978
v -0.02951844 0.04312726 -0.02070245
v -0.02885787 0.04379606 -0.02137660
v -0.02677046 0.04587448 -0.02345839
v -0.02816206 0.04556580 -0.02417569
v -0.02607465 0.04764422 -0.02626287
v -0.01134825 0.05590646 -0.02847680
v -0.02687615 0.03780774 -0.00879417
v -0.02663834 0.03796208 -0.00879417
v -0.02610107 0.03830162 -0.00879417
v -0.02438358 0.03938199 -0.00879417
v -0.02250755 0.04040062 -0.00879417
v -0.02523792 0.04096653 -0.01247776
v -0.02311528 0.04096653 -0.01043102
v -0.02596015 0.04133694 -0.01386652
v -0.03246900 0.04753104 -0.03633745
v -0.03223120 0.04773682 -0.03592486
v -0.03408961 0.04539089 -0.03501879
v -0.03611537 0.04324044 -0.03633745
v -0.03720752 0.04195429 -0.03633745
v -0.03993789 0.03866174 -0.03592486
v -0.01835915 0.05404411 -0.03191229
v -0.02876979 0.04890979 -0.03188263
v -0.02671761 0.04895095 -0.02976578
v -0.02230497 0.05412642 -0.03633745
v -0.03996431 0.03870290 -0.03633745
v 0.02295754 -0.02584130 -0.00879417
v 0.02317774 -0.03885715 -0.03633745
v 0.02385593 -0.03852789 -0.03633745
v 0.02488642 -0.03798256 -0.03633745
v -0.02903402 0.03617175 -0.00879417
v -0.02898118 0.03621291 -0.00879417
v -0.01273987 0.05556691 -0.02920758
v -0.01835915 0.05307692 -0.02979814
v -0.02040252 0.04154272 -0.00898563
v -0.01643027 0.04337420 -0.00879417
v -0.02042894 0.04260251 -0.01107282
v -0.02049060 0.05000045 -0.02556984
v -0.01062603 0.05555662 -0.02708804
v -0.01001830 0.05616369 -0.02770826
v -0.00995665 0.05719261 -0.02986286
v -0.01212333 0.05614311 -0.02981162
v -0.02202313 0.04064756 -0.00879417
v -0.03912759 0.03969066 -0.03633745
v -0.01794519 0.05608137 -0.03592486
v -0.01853530 0.05597848 -0.03633745
v 0.02394400 -0.02482267 -0.00879417
v 0.02647180 -0.03598646 -0.03471677
v 0.02813644 -0.03361994 -0.03310420
v 0.02657749 -0.03664497 -0.03633745
v -0.01338282 0.05588588 -0.03059634
v -0.02027922 0.04150156 -0.00879417
v -0.02059629 0.04134722 -0.00879417
v -0.01415790 0.04446485 -0.00879417
v -0.01412266 0.04460890 -0.00903687
v -0.01330355 0.04543204 -0.00985934
v -0.00923442 0.05588588 -0.02643815
v -0.00913754 0.05792314 -0.03068263
v -0.01068768 0.05768649 -0.03175858
v -0.01222902 0.05696624 -0.03175858
v -0.01639504 0.05683248 -0.03592486
v -0.01764573 0.05641063 -0.03633745
v 0.02884106 -0.03215887 -0.03175858
v 0.02873536 -0.02992612 -0.02759231
v 0.03042643 -0.02742584 -0.02668894
v 0.03262835 -0.01508908 -0.01182787
v 0.03281331 -0.01323702 -0.00940091
v 0.03332415 -0.01205376 -0.00879417
v 0.02674483 -0.03630543 -0.03592486
v 0.02851517 -0.03389775 -0.03449295
v 0.02785460 -0.03523535 -0.03633745
v -0.01222902 0.04505134 -0.00879417
v -0.01124256 0.04959917 -0.01609392
v -0.00806300 0.05540228 -0.02521928
v -0.00806300 0.05599906 -0.02626287
v -0.00806300 0.05668844 -0.02759231
v -0.00806300 0.05807748 -0.03041837
v -0.00806300 0.05868454 -0.03175858
v -0.00730554 0.06010445 -0.03459004
v -0.00964838 0.05812892 -0.03175858
v -0.01322428 0.05789227 -0.03494060
v -0.01240517 0.05770707 -0.03364082
v -0.01481847 0.05775851 -0.03633745
v -0.01598989 0.05720289 -0.03633745
v -0.01642147 0.05699711 -0.03633745
v 0.02911409 -0.03283796 -0.03381611
v 0.02997724 -0.03062578 -0.03161027
v 0.03066424 -0.02993641 -0.03220353
v 0.03252266 -0.01909158 -0.01841032
v 0.03268119 -0.01733213 -0.01571640
v 0.03242577 -0.01691027 -0.01432764
v 0.03438988 -0.01023257 -0.00879417
v 0.03372930 -0.01136439 -0.00879417
v 0.03024147 -0.03130487 -0.03384307
v 0.02857683 -0.03440192 -0.03633745
v 0.02869133 -0.03413440 -0.03592486
v -0.01180625 0.04510279 -0.00879417
v -0.01015042 0.04736641 -0.01218922
v -0.01015042 0.04966091 -0.01599685
v -0.00863550 0.05370457 -0.02244446
v -0.00799254 0.05424989 -0.02325345
v -0.00598440 0.05378688 -0.02230963
v -0.00477775 0.05378688 -0.02231233
v -0.00598440 0.05883888 -0.03175858
v -0.00598440 0.05969289 -0.03342509
v -0.00598440 0.06088643 -0.03592486
v -0.00600201 0.06106135 -0.03633745
v -0.00767547 0.06058804 -0.03633745
v -0.00802777 0.06034110 -0.03598419
v -0.01183268 0.05817008 -0.03419902
v -0.01385844 0.05815979 -0.03633745
v -0.01387605 0.05814951 -0.03632936
v 0.03195016 -0.02834158 -0.03401296
v 0.03473337 -0.02350565 -0.03463857
v 0.03084920 -0.03025537 -0.03384307
v 0.03821240 -0.01770254 -0.03633745
v 0.03478622 -0.00919336 -0.00879417
v 0.03896105 -0.01615916 -0.03633745
v 0.03038239 -0.03152094 -0.03536666
v 0.02894675 -0.03389775 -0.03633745
v 0.02983632 -0.03252929 -0.03600846
v 0.02873536 -0.03419613 -0.03633745
v -0.01015042 0.04529828 -0.00879417
v -0.01015042 0.04568927 -0.00943597
v -0.00182719 0.04599795 -0.00892901
v -0.00598440 0.05150267 -0.01848852
v -0.00724389 0.05375601 -0.02236087
v -0.00598440 0.05316952 -0.02126873
v -0.00390579 0.04926991 -0.01456494
v -0.00182719 0.04703715 -0.01064405
v -0.00182719 0.04766480 -0.01168765
v -0.00379129 0.06100991 -0.03633745
v -0.00022419 0.04763393 -0.01174158
v -0.00545594 0.06110251 -0.03633745
v -0.00802777 0.06046458 -0.03633745
v -0.00866192 0.06021763 -0.03633745
v -0.00972765 0.05979577 -0.03633745
v -0.01183268 0.05896235 -0.03633745
v 0.03511211 -0.02343363 -0.03633745
v 0.03486549 -0.02374230 -0.03592486
v 0.03567579 -0.02228123 -0.03592486
v 0.03114866 -0.03045087 -0.03633745
v 0.03206466 -0.02871199 -0.03592486
v 0.03356196 -0.02618085 -0.03633745
v 0.03592241 -0.02197256 -0.03633745
v 0.03527064 -0.00774258 -0.00879417
v 0.03904912 -0.01587106 -0.03633745
v 0.03901389 -0.01585048 -0.03613250
v 0.03595764 -0.00567445 -0.00879417
v 0.03073470 -0.03117111 -0.03633745
v 0.02985393 -0.03259102 -0.03633745
v 0.03012697 -0.03216916 -0.03633745
v -0.00390579 0.04576129 -0.00879417
v -0.00213545 0.04588477 -0.00879417
v -0.00182719 0.04590534 -0.00879417
v -0.00080550 0.04592592 -0.00879417
v 0.00029546 0.04593621 -0.00879417
v -0.00324522 0.06088643 -0.03633745
v 0.00210103 0.04569956 -0.00879417
v 0.00219791 0.04567898 -0.00879417
v 0.03955997 -0.01394698 -0.03633745
v 0.03955116 -0.01394698 -0.03592486
v 0.03650371 -0.00398702 -0.00879417
v -0.00181838 0.06054689 -0.03633745
v 0.00650485 0.04460890 -0.00879417
v 0.01085583 0.05750128 -0.03633745
v 0.00859227 0.05804661 -0.03633745
v 0.03964804 -0.01186856 -0.03633745
v 0.03971850 -0.01186856 -0.03592486
v 0.03978897 -0.00977985 -0.03384307
v 0.03984181 -0.00770143 -0.03175858
v 0.03988585 -0.00561272 -0.02967680
v 0.04001797 0.00271125 -0.02134694
v 0.03899628 0.00100324 -0.01718066
v 0.03684721 -0.00289637 -0.00884541
v 0.03683840 -0.00288608 -0.00879417
v 0.00853061 0.04410473 -0.00879417
v 0.01275828 0.05671930 -0.03592486
v 0.01280232 0.05691480 -0.03633745
v 0.01049472 0.04364172 -0.00885350
v 0.01158687 0.04330217 -0.00879417
v 0.03466291 0.03394929 -0.03633745
v 0.03961281 -0.00770143 -0.03384307
v 0.03972731 -0.00561272 -0.03175858
v 0.03983301 -0.00353430 -0.02967680
v 0.04011485 0.00271125 -0.02342603
v 0.03991228 0.00479996 -0.02134694
v 0.03963923 0.00479996 -0.01926245
v 0.03964804 0.00271125 -0.01926245
v 0.03884655 0.00142510 -0.01594561
v 0.03701456 -0.00150732 -0.00879417
v 0.01049472 0.04361085 -0.00879417
v 0.01221221 0.04349767 -0.00955193
v 0.01383282 0.05584472 -0.03485970
v 0.01467835 0.05623571 -0.03633745
v 0.01284636 0.04290089 -0.00879417
v 0.03989466 0.00479996 -0.02342603
v 0.03957758 0.00479996 -0.02551052
v 0.03431061 0.03577048 -0.03633745
v 0.03980658 0.00271125 -0.02551052
v 0.03877609 0.00769123 -0.01655235
v 0.03383499 0.03811641 -0.03633745
v 0.03884655 0.00630218 -0.01595370
v 0.03920766 0.00479996 -0.01718066
v 0.03681198 0.01245513 -0.00879417
v 0.03800982 0.00895680 -0.01301169
v 0.03919885 0.00271125 -0.01718066
v 0.03811551 0.00063283 -0.01301169
v 0.03760467 0.00063283 -0.01092990
v 0.03707621 0.00063283 -0.00884541
v 0.03705860 0.00054023 -0.00879417
v 0.01284636 0.04293176 -0.00885350
v 0.01686265 0.05317981 -0.03185296
v 0.01654558 0.05550518 -0.03633745
v 0.01886199 0.04084305 -0.00879417
v 0.01979560 0.04116202 -0.01005889
v 0.03372049 0.03858972 -0.03633745
v 0.03697933 0.01103522 -0.00879417
v 0.03758705 0.00895680 -0.01092990
v 0.03887297 0.00479996 -0.01585662
v 0.03887297 0.00271125 -0.01585123
v 0.03704979 0.00895680 -0.00879417
v 0.03653014 0.01346347 -0.00879417
v 0.03705860 0.00271125 -0.00879417
v 0.03814194 0.00479996 -0.01301169
v 0.03706740 0.00687838 -0.00884541
v 0.01750561 0.05356052 -0.03316622
v 0.01698596 0.05533026 -0.03633745
v 0.01906456 0.04077103 -0.00879417
v 0.02102867 0.03963922 -0.00879417
v 0.02036810 0.04151185 -0.01144765
v 0.01982202 0.04323015 -0.01426831
v 0.03326249 0.04012281 -0.03633745
v 0.03602810 0.01520235 -0.00879417
v 0.01825426 0.05391034 -0.03455498
v 0.01897649 0.05437336 -0.03633745
v 0.02146905 0.03932025 -0.00879417
v 0.02553819 0.04988727 -0.03633745
v 0.02538846 0.05000045 -0.03633745
v 0.02257881 0.05197598 -0.03633745
v 0.02102867 0.05305634 -0.03633745
v 0.02003340 0.05374572 -0.03633745
v 0.01951375 0.05405439 -0.03633745
v 0.03310396 0.04045206 -0.03633745
v 0.03294542 0.02315591 -0.00879417
v 0.03377334 0.02140674 -0.00879417
v 0.03440749 0.01984278 -0.00879417
v 0.03480383 0.01882415 -0.00879417
v 0.03534991 0.01729106 -0.00879417
v 0.02190943 0.03897042 -0.00879417
v 0.02613711 0.04940367 -0.03633745
v 0.03289258 0.04087392 -0.03633745
v 0.03291019 0.02321764 -0.00879417
v 0.03264596 0.04135751 -0.03633745
v 0.02277258 0.03796208 -0.00879417
v 0.02824214 0.04710918 -0.03633745
v 0.02721164 0.04828215 -0.03633745
v 0.03232889 0.02422598 -0.00879417
v 0.03225842 0.04188227 -0.03633745
v 0.02646299 0.03319817 -0.00879417
v 0.02649822 0.03314673 -0.00879417
v 0.02734375 0.03187086 -0.00879417
v 0.02820691 0.03055385 -0.00879417
v 0.03145693 0.02557387 -0.00879417
v 0.02469265 0.03552353 -0.00879417
v 0.03176520 0.04253048 -0.03633745
v 0.02570553 0.03420651 -0.00879417
f 1 2 3
f 1 3 11
f 1 11 26
f 1 26 46
f 1 46 47
f 1 47 45
f 1 45 67
f 1 67 88
f 1 88 85
f 1 85 104
f 1 104 116
f 1 116 138
f 1 138 158
f 1 158 188
f 1 188 225
f 1 225 243
f 1 243 219
f 1 219 218
f 1 218 215
f 1 215 177
f 1 177 176
f 1 176 181
f 1 181 186
f 1 186 185
f 1 185 184
f 1 184 224
f 1 224 245
f 1 245 261
f 1 261 284
f 1 284 283
f 1 283 282
f 1 282 310
f 1 310 337
f 1 337 336
f 1 336 335
f 1 335 334
f 1 334 307
f 1 307 306
f 1 306 333
f 1 333 331
f 1 331 357
f 1 357 363
f 1 363 366
f 1 366 365
f 1 365 378
f 1 378 394
f 1 394 413
f 1 413 427
f 1 427 435
f 1 435 442
f 1 442 441
f 1 441 440
f 1 440 439
f 1 439 438
f 1 438 437
f 1 437 450
f 1 450 456
f 1 456 455
f 1 455 465
f 1 465 458
f 1 458 453
f 1 453 451
f 1 451 443
f 1 443 432
f 1 432 416
f 1 416 401
f 1 401 398
f 1 398 381
f 1 381 367
f 1 367 360
f 1 360 346
f 1 346 317
f 1 317 315
f 1 315 344
f 1 344 338
f 1 338 343
f 1 343 341
f 1 341 349
f 1 349 351
f 1 351 350
f 1 350 319
f 1 319 321
f 1 321 294
f 1 294 270
f 1 270 249
f 1 249 229
f 1 229 228
f 1 228 227
f 1 227 192
f 1 192 191
f 1 191 189
f 1 189 159
f 1 159 139
f 1 139 117
f 1 117 105
f 1 105 89
f 1 89 70
f 1 70 69
f 1 69 72
f 1 72 68
f 1 68 53
f 1 53 52
f 1 52 51
f 1 51 50
f 1 50 49
f 1 49 48
f 1 48 32
f 1 32 31
f 1 31 28
f 1 28 15
f 1 15 4
f 1 4 5
f 1 5 2
f 2 6 7
f 2 7 8
f 2 8 3
f 2 5 9
f 2 9 10
f 2 10 6
f 3 8 12
f 3 12 13
f 3 13 14
f 3 14 11
f 4 15 16
f 4 16 5
f 5 16 17
f 5 17 9
f 6 18 19
f 6 19 7
f 6 10 20
f 6 20 21
f 6 21 22
f 6 22 18
f 7 19 23
f 7 23 24
f 7 24 8
f 8 25 12
f 8 24 25
f 9 20 10
f 9 17 20
f 11 14 26
f 12 25 13
f 13 25 27
f 13 27 14
f 14 27 26
f 15 28 16
f 16 29 54
f 16 54 71
f 16 71 90
f 16 90 106
f 16 106 124
f 16 124 123
f 16 123 122
f 16 122 121
f 16 121 120
f 16 120 119
f 16 119 118
f 16 118 140
f 16 140 161
f 16 161 160
f 16 160 190
f 16 190 226
f 16 226 246
f 16 246 267
f 16 267 292
f 16 292 291
f 16 291 316
f 16 316 345
f 16 345 348
f 16 348 362
f 16 362 375
f 16 375 390
f 16 390 410
f 16 410 423
f 16 423 421
f 16 421 417
f 16 417 404
f 16 404 422
f 16 422 433
f 16 433 448
f 16 448 447
f 16 447 446
f 16 446 445
f 16 445 444
f 16 444 452
f 16 452 457
f 16 457 463
f 16 463 462
f 16 462 461
f 16 461 460
f 16 460 459
f 16 459 466
f 16 466 464
f 16 464 454
f 16 454 449
f 16 449 436
f 16 436 429
f 16 429 428
f 16 428 414
f 16 414 395
f 16 395 380
f 16 380 391
f 16 391 376
f 16 376 364
f 16 364 359
f 16 359 358
f 16 358 356
f 16 356 355
f 16 355 354
f 16 354 353
f 16 353 352
f 16 352 322
f 16 322 296
f 16 296 271
f 16 271 253
f 16 253 235
f 16 235 251
f 16 251 252
f 16 252 242
f 16 242 211
f 16 211 210
f 16 210 209
f 16 209 208
f 16 208 207
f 16 207 231
f 16 231 230
f 16 230 193
f 16 193 162
f 16 162 143
f 16 143 142
f 16 142 129
f 16 129 125
f 16 125 107
f 16 107 91
f 16 91 75
f 16 75 74
f 16 74 73
f 16 73 56
f 16 56 36
f 16 36 22
f 16 22 21
f 16 21 33
f 16 33 30
f 16 30 17
f 16 28 31
f 16 31 32
f 16 32 29
f 17 30 33
f 17 33 20
f 18 34 35
f 18 35 23
f 18 23 19
f 18 22 34
f 20 33 21
f 22 36 37
f 22 37 38
f 22 38 35
f 22 35 34
f 23 35 39
f 23 39 40
f 23 40 41
f 23 41 24
f 24 41 42
f 24 42 43
f 24 43 25
f 25 43 44
f 25 44 45
f 25 45 27
f 26 27 46
f 27 45 47
f 27 47 46
f 29 32 48
f 29 48 49
f 29 49 50
f 29 50 51
f 29 51 52
f 29 52 53
f 29 53 54
f 35 38 55
f 35 55 39
f 36 56 38
f 36 38 37
f 38 56 55
f 39 55 57
f 39 57 40
f 40 57 58
f 40 58 59
f 40 59 60
f 40 60 61
f 40 61 41
f 41 61 62
f 41 62 63
f 41 63 42
f 42 63 64
f 42 64 43
f 43 64 65
f 43 65 44
f 44 65 45
f 45 65 66
f 45 66 67
f 53 68 54
f 54 69 70
f 54 70 71
f 54 68 72
f 54 72 69
f 55 56 73
f 55 73 57
f 57 73 74
f 57 74 75
f 57 75 58
f 58 75 59
f 59 75 76
f 59 76 77
f 59 77 78
f 59 78 60
f 60 78 61
f 61 79 62
f 61 78 80
f 61 80 81
f 61 81 79
f 62 82 63
f 62 79 83
f 62 83 84
f 62 84 85
f 62 85 82
f 63 82 86
f 63 86 64
f 64 86 65
f 65 86 66
f 66 87 67
f 66 86 87
f 67 87 88
f 70 89 71
f 71 89 90
f 75 91 76
f 76 91 92
f 76 92 93
f 76 93 77
f 77 93 94
f 77 94 95
f 77 95 96
f 77 96 78
f 78 96 80
f 79 81 83
f 80 96 97
f 80 97 98
f 80 98 99
f 80 99 81
f 81 99 100
f 81 100 101
f 81 101 83
f 82 85 86
f 83 101 102
f 83 102 85
f 83 85 84
f 85 102 103
f 85 103 104
f 85 88 86
f 86 88 87
f 89 105 106
f 89 106 90
f 91 107 108
f 91 108 109
f 91 109 92
f 92 109 110
f 92 110 93
f 93 110 94
f 94 110 111
f 94 111 112
f 94 112 100
f 94 100 98
f 94 98 113
f 94 113 95
f 95 113 97
f 95 97 96
f 97 113 98
f 98 100 99
f 100 112 102
f 100 102 101
f 102 114 103
f 102 112 114
f 103 114 104
f 104 114 115
f 104 115 116
f 105 117 118
f 105 118 119
f 105 119 120
f 105 120 121
f 105 121 122
f 105 122 123
f 105 123 124
f 105 124 106
f 107 125 126
f 107 126 127
f 107 127 108
f 108 127 128
f 108 128 129
f 108 129 130
f 108 130 131
f 108 131 132
f 108 132 109
f 109 132 111
f 109 111 110
f 111 133 134
f 111 134 135
f 111 135 112
f 111 132 133
f 112 115 114
f 112 135 134
f 112 134 136
f 112 136 115
f 115 137 138
f 115 138 116
f 115 136 137
f 117 139 118
f 118 139 140
f 125 129 126
f 126 129 141
f 126 141 127
f 127 141 128
f 128 141 129
f 129 142 130
f 130 142 143
f 130 143 144
f 130 144 131
f 131 145 146
f 131 146 132
f 131 144 145
f 132 146 147
f 132 147 133
f 133 148 149
f 133 149 134
f 133 147 150
f 133 150 151
f 133 151 148
f 134 152 153
f 134 153 136
f 134 149 154
f 134 154 155
f 134 155 152
f 136 153 156
f 136 156 157
f 136 157 137
f 137 157 138
f 138 157 158
f 139 159 160
f 139 160 161
f 139 161 140
f 143 162 163
f 143 163 146
f 143 146 144
f 144 146 145
f 146 164 147
f 146 163 164
f 147 164 150
f 148 165 149
f 148 151 166
f 148 166 167
f 148 167 168
f 148 168 169
f 148 169 165
f 149 165 154
f 150 164 170
f 150 170 171
f 150 171 151
f 151 171 172
f 151 172 173
f 151 173 174
f 151 174 175
f 151 175 166
f 152 176 177
f 152 177 178
f 152 178 179
f 152 179 153
f 152 155 180
f 152 180 181
f 152 181 176
f 153 179 182
f 153 182 156
f 154 165 155
f 155 183 184
f 155 184 185
f 155 185 186
f 155 186 180
f 155 165 183
f 156 182 187
f 156 187 188
f 156 188 157
f 157 188 158
f 159 189 160
f 160 189 191
f 160 191 192
f 160 192 190
f 162 193 163
f 163 193 194
f 163 194 164
f 164 194 195
f 164 195 170
f 165 169 196
f 165 196 197
f 165 197 198
f 165 198 183
f 166 175 199
f 166 199 200
f 166 200 201
f 166 201 167
f 167 202 203
f 167 203 204
f 167 204 205
f 167 205 168
f 167 201 202
f 168 205 169
f 169 205 206
f 169 206 196
f 170 195 171
f 171 195 172
f 172 195 207
f 172 207 208
f 172 208 209
f 172 209 210
f 172 210 174
f 172 174 173
f 174 210 211
f 174 211 175
f 175 211 212
f 175 212 213
f 175 213 214
f 175 214 199
f 177 215 216
f 177 216 178
f 178 216 179
f 179 217 218
f 179 218 219
f 179 219 220
f 179 220 182
f 179 216 215
f 179 215 217
f 180 186 181
f 182 220 187
f 183 221 184
f 183 198 222
f 183 222 197
f 183 197 223
f 183 223 221
f 184 221 224
f 187 220 188
f 188 220 225
f 190 192 227
f 190 227 228
f 190 228 229
f 190 229 226
f 193 230 194
f 194 230 195
f 195 230 231
f 195 231 207
f 196 206 232
f 196 232 197
f 197 232 233
f 197 233 223
f 197 222 198
f 199 214 213
f 199 213 200
f 200 213 234
f 200 234 235
f 200 235 236
f 200 236 202
f 200 202 201
f 202 236 235
f 202 235 237
f 202 237 203
f 203 237 204
f 204 237 205
f 205 237 238
f 205 238 206
f 206 238 239
f 206 239 240
f 206 240 241
f 206 241 232
f 211 242 213
f 211 213 212
f 213 242 234
f 215 218 217
f 219 243 220
f 220 243 225
f 221 232 244
f 221 244 224
f 221 223 233
f 221 233 232
f 224 244 245
f 226 229 247
f 226 247 248
f 226 248 246
f 229 249 247
f 232 241 250
f 232 250 244
f 234 251 235
f 234 242 252
f 234 252 251
f 235 253 254
f 235 254 255
f 235 255 238
f 235 238 237
f 238 256 239
f 238 255 256
f 239 256 257
f 239 257 240
f 240 257 258
f 240 258 259
f 240 259 241
f 241 244 250
f 241 259 260
f 241 260 244
f 244 260 261
f 244 261 245
f 246 248 262
f 246 262 263
f 246 263 264
f 246 264 265
f 246 265 266
f 246 266 267
f 247 249 268
f 247 268 248
f 248 268 269
f 248 269 262
f 249 270 269
f 249 269 268
f 253 271 255
f 253 255 254
f 255 271 272
f 255 272 256
f 256 272 273
f 256 273 274
f 256 274 275
f 256 275 276
f 256 276 257
f 257 276 277
f 257 277 278
f 257 278 279
f 257 279 280
f 257 280 258
f 258 280 281
f 258 281 259
f 259 281 282
f 259 282 260
f 260 282 283
f 260 283 284
f 260 284 261
f 262 269 285
f 262 285 286
f 262 286 264
f 262 264 263
f 264 286 287
f 264 287 288
f 264 288 289
f 264 289 290
f 264 290 265
f 265 290 289
f 265 289 291
f 265 291 292
f 265 292 267
f 265 267 266
f 269 293 285
f 269 270 294
f 269 294 295
f 269 295 293
f 271 296 297
f 271 297 272
f 272 298 299
f 272 299 273
f 272 297 298
f 273 299 300
f 273 300 301
f 273 301 274
f 274 301 302
f 274 302 303
f 274 303 275
f 275 303 304
f 275 304 276
f 276 304 305
f 276 305 278
f 276 278 277
f 278 305 306
f 278 306 307
f 278 307 308
f 278 308 279
f 279 308 309
f 279 309 280
f 280 282 281
f 280 309 310
f 280 310 311
f 280 311 282
f 282 311 310
f 285 293 286
f 286 293 287
f 287 312 313
f 287 313 288
f 287 293 314
f 287 314 312
f 288 315 289
f 288 313 315
f 289 315 291
f 291 315 317
f 291 317 316
f 293 318 314
f 293 295 319
f 293 319 320
f 293 320 318
f 294 321 295
f 295 321 319
f 296 322 323
f 296 323 297
f 297 323 324
f 297 324 325
f 297 325 300
f 297 300 299
f 297 299 298
f 300 326 327
f 300 327 301
f 300 325 328
f 300 328 329
f 300 329 330
f 300 330 326
f 301 327 330
f 301 330 302
f 302 331 303
f 302 330 332
f 302 332 331
f 303 331 304
f 304 331 333
f 304 333 305
f 305 333 306
f 307 334 308
f 308 334 335
f 308 335 336
f 308 336 337
f 308 337 310
f 308 310 309
f 312 338 339
f 312 339 340
f 312 340 313
f 312 314 338
f 313 340 315
f 314 318 341
f 314 341 342
f 314 342 343
f 314 343 338
f 315 340 344
f 316 317 345
f 317 346 347
f 317 347 348
f 317 348 345
f 318 349 341
f 318 320 350
f 318 350 351
f 318 351 349
f 319 350 320
f 322 352 324
f 322 324 323
f 324 352 353
f 324 353 354
f 324 354 355
f 324 355 329
f 324 329 328
f 324 328 325
f 326 330 327
f 329 355 356
f 329 356 330
f 330 356 332
f 331 332 358
f 331 358 359
f 331 359 357
f 332 356 358
f 338 344 340
f 338 340 339
f 341 343 342
f 346 360 361
f 346 361 347
f 347 361 362
f 347 362 348
f 357 359 363
f 359 364 365
f 359 365 366
f 359 366 363
f 360 367 368
f 360 368 361
f 361 368 369
f 361 369 370
f 361 370 371
f 361 371 372
f 361 372 373
f 361 373 374
f 361 374 362
f 362 374 375
f 364 376 365
f 365 377 378
f 365 376 379
f 365 379 380
f 365 380 377
f 367 381 368
f 368 382 383
f 368 383 384
f 368 384 385
f 368 385 369
f 368 381 382
f 369 385 370
f 370 385 371
f 371 385 372
f 372 385 386
f 372 386 387
f 372 387 388
f 372 388 373
f 373 388 389
f 373 389 374
f 374 389 375
f 375 389 390
f 376 391 379
f 377 380 392
f 377 392 393
f 377 393 378
f 378 393 394
f 379 391 380
f 380 395 392
f 381 386 396
f 381 396 397
f 381 397 384
f 381 384 383
f 381 383 382
f 381 398 386
f 384 397 399
f 384 399 385
f 385 399 396
f 385 396 386
f 386 400 387
f 386 398 401
f 386 401 400
f 387 402 403
f 387 403 388
f 387 400 404
f 387 404 405
f 387 405 402
f 388 406 389
f 388 403 406
f 389 406 407
f 389 407 390
f 390 407 408
f 390 408 409
f 390 409 410
f 392 395 411
f 392 411 393
f 393 412 413
f 393 413 394
f 393 411 414
f 393 414 415
f 393 415 412
f 395 414 411
f 396 399 397
f 400 401 404
f 401 416 404
f 402 405 417
f 402 417 418
f 402 418 403
f 403 419 420
f 403 420 406
f 403 418 421
f 403 421 419
f 404 416 422
f 404 417 405
f 406 420 407
f 407 420 408
f 408 420 409
f 409 423 410
f 409 420 419
f 409 419 424
f 409 424 425
f 409 425 421
f 409 421 423
f 412 426 427
f 412 427 413
f 412 415 426
f 414 428 415
f 415 428 429
f 415 429 430
f 415 430 431
f 415 431 426
f 416 432 433
f 416 433 422
f 417 421 418
f 419 425 424
f 419 421 425
f 426 434 427
f 426 431 434
f 427 434 435
f 429 436 430
f 430 437 438
f 430 438 439
f 430 439 440
f 430 440 441
f 430 441 431
f 430 436 437
f 431 441 442
f 431 442 435
f 431 435 434
f 432 443 444
f 432 444 445
f 432 445 446
f 432 446 447
f 432 447 448
f 432 448 433
f 436 449 437
f 437 449 450
f 443 451 444
f 444 451 453
f 444 453 452
f 449 454 455
f 449 455 456
f 449 456 450
f 452 453 457
f 453 458 459
f 453 459 460
f 453 460 461
f 453 461 462
f 453 462 463
f 453 463 457
f 454 464 455
f 455 464 465
f 458 465 466
f 458 466 459
f 464 466 465

