# https://github.com/mikedh/trimesh
v -0.05531806 -0.03718460 0.04948585
v -0.05531806 -0.03715277 0.04732096
v -0.05531806 -0.03701347 0.05157178
v -0.05566130 -0.03670303 0.05157178
v -0.07586282 -0.00888727 0.03074539
v -0.05531806 -0.03690601 0.04555746
v -0.07584007 -0.00885543 0.02931091
v -0.05531806 -0.03655179 0.05361823
v -0.05549381 -0.03642842 0.05364455
v -0.07387988 -0.00905443 0.05989575
v -0.07395019 -0.00916188 0.05780983
v -0.07578424 -0.00876787 0.03404209
v -0.07581940 -0.00881961 0.03282474
v -0.07198586 -0.01123941 0.06406103
v -0.07374755 -0.00884349 0.06327798
v -0.07309622 -0.00998573 0.06197510
v -0.07380959 -0.00894299 0.06197510
v -0.07606959 -0.00722764 0.04324123
v -0.07628050 -0.00552820 0.05573048
v -0.07605512 -0.00728733 0.04116188
v -0.07643971 -0.00354222 0.05780983
v -0.05531806 -0.03356286 0.03073882
v -0.07374548 -0.01088918 0.02737632
v -0.07584007 -0.00857285 0.02931091
v -0.07384267 -0.00895891 0.02002622
v -0.07387161 -0.00899871 0.02032233
v -0.05531806 -0.03654383 0.05364455
v -0.05531806 -0.03623738 0.05453946
v -0.07183492 -0.01107225 0.06550869
v -0.07557334 -0.00634807 0.05989575
v -0.07564364 -0.00645951 0.05780983
v -0.07526939 -0.00794800 0.04949243
v -0.07592072 -0.00690526 0.04949243
v -0.07621226 -0.00530533 0.05989575
v -0.07603651 -0.00712814 0.04532057
v -0.07310242 -0.00963948 0.06400839
v -0.07359247 -0.00850519 0.06466641
v -0.07606339 -0.00510235 0.06197510
v -0.07550304 -0.00614111 0.06197510
v -0.07458084 -0.00770921 0.06197510
v -0.07625775 -0.00541676 0.05780983
v -0.07642317 -0.00354222 0.05989575
v -0.07595380 -0.00232834 0.05780983
v -0.07636734 -0.00354222 0.05573048
v -0.07605512 -0.00603365 0.04116188
v -0.07598481 -0.00232834 0.05989575
v -0.05531806 -0.03335193 0.03002815
v -0.07587109 -0.00647543 0.03699002
v -0.07580078 -0.00661472 0.03571346
v -0.07549890 -0.00742265 0.03074539
v -0.07462840 -0.00562372 0.03074539
v -0.07533762 -0.00780870 0.02863973
v -0.07384267 -0.00841366 0.02002622
v -0.07597861 -0.00624857 0.03907595
v -0.07311277 -0.00976683 0.02002622
v -0.05531806 -0.03300966 0.02887661
v -0.05531806 -0.02489457 0.07288510
v -0.05729686 -0.02358517 0.07170067
v -0.06748033 -0.01503229 0.06723928
v -0.07141517 -0.01056680 0.06689711
v -0.07224847 -0.00983847 0.06617986
v -0.07585248 -0.00679382 0.05156520
v -0.07325751 -0.00776891 0.06614696
v -0.07386748 -0.00711620 0.06544946
v -0.07588349 -0.00482376 0.06323850
v -0.07608820 -0.00348252 0.06204091
v -0.07591245 -0.00239599 0.06138947
v -0.07586075 -0.00240793 0.05573048
v -0.07331747 -0.00068462 0.04532057
v -0.07208511 0.00001983 0.03699002
v -0.07199207 -0.00000405 0.03491067
v -0.07616057 -0.00340690 0.05376299
v -0.07615437 -0.00383275 0.05156520
v -0.07473178 -0.00169155 0.05989575
v -0.07317893 -0.00066472 0.04949243
v -0.07227534 -0.00011151 0.04532057
v -0.07325751 -0.00066870 0.04741308
v -0.07604685 -0.00406359 0.04949243
v -0.07493028 -0.00562372 0.03282474
v -0.07592899 -0.00429044 0.04741308
v -0.07534175 -0.00367753 0.04520871
v -0.07386128 -0.00427452 0.03074539
v -0.07330713 -0.00738683 0.02002622
v -0.07403083 -0.00395215 0.03282474
v -0.07346634 -0.00290941 0.03282474
v -0.07265580 -0.00145673 0.03282474
v -0.07377236 -0.00827834 0.02002622
v -0.07268889 -0.01021657 0.02002622
v -0.05531806 -0.03189129 0.02657354
v -0.05531806 -0.02389958 0.07399058
v -0.05536562 -0.02386774 0.07397084
v -0.06747619 -0.00670626 0.07762944
v -0.06968036 -0.00892309 0.07159539
v -0.07148547 -0.00847733 0.06905542
v -0.07185146 -0.00917780 0.06766699
v -0.07412595 -0.00556800 0.06614696
v -0.07216576 -0.00775299 0.06830528
v -0.07177289 -0.00709232 0.06959499
v -0.07588349 -0.00413523 0.06323850
v -0.07378683 -0.00483569 0.06736431
v -0.07566845 -0.00274623 0.06277789
v -0.07414455 -0.00222884 0.06406103
v -0.07487652 -0.00197810 0.06204091
v -0.07161161 -0.00041399 0.06302794
v -0.07579045 -0.00247957 0.05453946
v -0.07227121 -0.00007569 0.04324123
v -0.07214094 -0.00000405 0.03907595
v -0.07056535 0.00079193 0.03907595
v -0.07056535 0.00077203 0.03699002
v -0.07056535 0.00069642 0.03491067
v -0.07056535 0.00051334 0.03282474
v -0.07183492 -0.00014335 0.03282474
v -0.07293701 -0.00145673 0.03491067
v -0.07189696 -0.00028663 0.05573048
v -0.07221538 -0.00014733 0.04741308
v -0.06848317 0.00101481 0.06197510
v -0.07056535 0.00072427 0.04324123
v -0.07056535 0.00077999 0.04116188
v -0.07549270 -0.00302084 0.04949243
v -0.07325544 -0.00323178 0.03074539
v -0.06900216 -0.00149653 0.02002622
v -0.07169639 -0.00030255 0.03148238
v -0.06944878 -0.00049756 0.02360586
v -0.07185146 -0.01108021 0.02002622
v -0.05668275 -0.02676116 0.02003280
v -0.05698050 -0.02743377 0.02153309
v -0.05531806 -0.03099979 0.02494822
v -0.05531806 -0.01255677 0.08557834
v -0.05751397 -0.01129115 0.08437417
v -0.06747619 -0.00656299 0.07762944
v -0.06968036 -0.00693710 0.07374711
v -0.06149224 -0.00906636 0.08201844
v -0.05685230 -0.00979469 0.08576258
v -0.06171969 -0.00770921 0.08218954
v -0.05704667 -0.00681372 0.08595341
v -0.07378683 -0.00442178 0.06736431
v -0.07200034 -0.00416308 0.06993716
v -0.06968036 -0.00444566 0.07368789
v -0.07370620 -0.00249151 0.06512045
v -0.06982511 -0.00023091 0.06546920
v -0.07121461 -0.00066472 0.06441636
v -0.06676283 0.00126157 0.06614696
v -0.06572484 0.00182672 0.06614696
v -0.06714743 0.00152822 0.06406103
v -0.06758785 0.00172324 0.05156520
v -0.06752168 0.00169538 0.04949243
v -0.06848317 0.00126953 0.04116188
v -0.06848317 0.00120187 0.03907595
v -0.06848317 0.00082377 0.03074539
v -0.06848317 0.00071234 0.02865947
v -0.06848317 0.00050936 0.02657354
v -0.06791868 -0.00003987 0.02032233
v -0.07021590 0.00012728 0.02865947
v -0.06992023 -0.00003589 0.02657354
v -0.06748652 0.00168742 0.05526328
v -0.07056535 0.00058498 0.04741308
v -0.06610530 0.00198591 0.06406103
v -0.06754857 0.00171130 0.05364455
v -0.06787733 -0.00006773 0.02002622
v -0.06968450 -0.00024285 0.02499429
v -0.06858242 -0.01442336 0.02002622
v -0.06259020 -0.02054052 0.02002622
v -0.06244132 -0.02069176 0.02002622
v -0.06154600 -0.02159122 0.02002622
v -0.06102701 -0.02209667 0.02002622
v -0.05643462 -0.02696811 0.02003280
v -0.05653181 -0.02707557 0.02032233
v -0.05531806 -0.02979785 0.02298074
v -0.05531806 -0.01152198 0.08644693
v -0.05547727 -0.01144239 0.08635481
v -0.05704667 -0.00648339 0.08595341
v -0.05531806 -0.00567148 0.08724313
v -0.05695362 -0.00509439 0.08586787
v -0.05915780 -0.00455710 0.08388722
v -0.06708539 -0.00517399 0.07728069
v -0.05581224 -0.00979469 0.08661801
v -0.06102701 -0.00770921 0.08274227
v -0.06040256 -0.00770921 0.08323579
v -0.05531806 -0.00765349 0.08722340
v -0.05531806 -0.00647941 0.08724972
v -0.06776360 -0.00437800 0.07589226
v -0.06846869 -0.00403175 0.07441829
v -0.07117119 -0.00277409 0.06874615
v -0.07174601 -0.00241191 0.06735772
v -0.07252347 -0.00217312 0.06594955
v -0.07053847 -0.00103088 0.06616012
v -0.06537540 0.00167150 0.06719980
v -0.06431880 0.00217297 0.06614696
v -0.06431880 0.00244759 0.06406103
v -0.06617974 0.00199387 0.06197510
v -0.06431880 0.00242371 0.06197510
v -0.05531806 0.00347441 0.05157178
v -0.05531806 0.00341869 0.05050579
v -0.06639891 0.00039792 0.02032233
v -0.06770571 -0.00001201 0.02002622
v -0.06102701 0.00054916 0.02002622
v -0.05531806 -0.02788350 0.02003280
v -0.05531806 -0.02826955 0.02061844
v -0.05531806 -0.01117573 0.08656538
v -0.05531806 -0.00414319 0.08653905
v -0.05556412 -0.00425462 0.08642719
v -0.05531806 -0.00413125 0.08653247
v -0.05531806 -0.00322382 0.08497296
v -0.06569796 -0.00441780 0.07789265
v -0.05531806 -0.00979469 0.08700625
v -0.06639478 -0.00402777 0.07657661
v -0.06721979 -0.00261887 0.07320753
v -0.06850384 -0.00302482 0.07246397
v -0.06523480 -0.00048165 0.07124005
v -0.06445320 0.00034220 0.07045043
v -0.06431880 0.00136505 0.06868692
v -0.06431880 0.00179488 0.06764725
v -0.06782357 -0.00226068 0.07181253
v -0.06223661 0.00216501 0.06614696
v -0.06223661 0.00247545 0.06406103
v -0.06223661 0.00157200 0.06883169
v -0.06223661 0.00181876 0.06778543
v -0.05531806 0.00337889 0.05364455
v -0.05531806 0.00345849 0.05247985
v -0.05531806 0.00334307 0.04948585
v -0.06610736 0.00039792 0.02002622
v -0.06639891 0.00036210 0.02002622
v -0.06431880 0.00045762 0.02002622
v -0.05569232 0.00101879 0.02003280
v -0.05531806 0.00099889 0.02003280
v -0.05531806 -0.00227660 0.08324236
v -0.06384529 -0.00013937 0.07185859
v -0.06435395 -0.00301288 0.07657003
v -0.05531806 -0.00200596 0.08261066
v -0.05531806 -0.00001201 0.07406296
v -0.05531806 0.00029842 0.07239159
v -0.05531806 0.00256300 0.05988918
v -0.05531806 0.00312020 0.05572390
v -0.05531806 0.00325551 0.05466449
v -0.05531806 -0.00152439 0.08072872
v -0.05598593 0.00100685 0.02003280
f 1 2 6
f 1 6 22
f 1 22 47
f 1 47 56
f 1 56 89
f 1 89 127
f 1 127 168
f 1 168 198
f 1 198 197
f 1 197 225
f 1 225 220
f 1 220 193
f 1 193 192
f 1 192 219
f 1 219 218
f 1 218 234
f 1 234 233
f 1 233 232
f 1 232 231
f 1 231 230
f 1 230 235
f 1 235 229
f 1 229 226
f 1 226 203
f 1 203 202
f 1 202 200
f 1 200 172
f 1 172 180
f 1 180 179
f 1 179 205
f 1 205 199
f 1 199 169
f 1 169 128
f 1 128 90
f 1 90 57
f 1 57 28
f 1 28 27
f 1 27 8
f 1 8 3
f 1 3 4
f 1 4 5
f 1 5 2
f 2 5 7
f 2 7 6
f 3 8 9
f 3 9 4
f 4 10 11
f 4 11 12
f 4 12 13
f 4 13 5
f 4 9 14
f 4 14 15
f 4 15 16
f 4 16 17
f 4 17 10
f 5 13 18
f 5 18 19
f 5 19 20
f 5 20 21
f 5 21 7
f 6 7 22
f 7 23 22
f 7 21 24
f 7 24 53
f 7 53 25
f 7 25 26
f 7 26 23
f 8 27 9
f 9 27 28
f 9 28 29
f 9 29 14
f 10 30 31
f 10 31 32
f 10 32 12
f 10 12 11
f 10 17 30
f 12 32 33
f 12 33 34
f 12 34 35
f 12 35 13
f 13 35 18
f 14 29 36
f 14 36 15
f 15 36 37
f 15 37 38
f 15 38 39
f 15 39 40
f 15 40 17
f 15 17 16
f 17 40 30
f 18 35 41
f 18 41 19
f 19 41 42
f 19 42 21
f 19 21 20
f 21 43 44
f 21 44 45
f 21 45 24
f 21 42 46
f 21 46 43
f 22 23 26
f 22 26 25
f 22 25 47
f 24 48 49
f 24 49 50
f 24 50 51
f 24 51 52
f 24 52 53
f 24 45 54
f 24 54 48
f 25 53 87
f 25 87 83
f 25 83 121
f 25 121 159
f 25 159 195
f 25 195 222
f 25 222 221
f 25 221 223
f 25 223 196
f 25 196 165
f 25 165 164
f 25 164 163
f 25 163 162
f 25 162 161
f 25 161 124
f 25 124 88
f 25 88 55
f 25 55 56
f 25 56 47
f 28 57 58
f 28 58 59
f 28 59 29
f 29 37 36
f 29 59 60
f 29 60 61
f 29 61 37
f 30 40 34
f 30 34 31
f 31 34 62
f 31 62 32
f 32 62 33
f 33 62 34
f 34 40 39
f 34 39 38
f 34 38 42
f 34 42 41
f 34 41 35
f 37 61 63
f 37 63 64
f 37 64 65
f 37 65 38
f 38 65 42
f 42 65 66
f 42 66 67
f 42 67 46
f 43 68 44
f 43 46 69
f 43 69 70
f 43 70 71
f 43 71 68
f 44 68 72
f 44 72 73
f 44 73 54
f 44 54 45
f 46 67 74
f 46 74 75
f 46 75 76
f 46 76 77
f 46 77 69
f 48 54 73
f 48 73 78
f 48 78 49
f 49 79 50
f 49 78 80
f 49 80 81
f 49 81 79
f 50 79 51
f 51 82 83
f 51 83 52
f 51 79 84
f 51 84 85
f 51 85 86
f 51 86 82
f 52 83 87
f 52 87 53
f 55 88 89
f 55 89 56
f 57 90 91
f 57 91 92
f 57 92 58
f 58 92 93
f 58 93 59
f 59 93 60
f 60 93 94
f 60 94 95
f 60 95 61
f 61 95 63
f 63 96 64
f 63 95 94
f 63 94 97
f 63 97 98
f 63 98 96
f 64 96 65
f 65 99 66
f 65 96 100
f 65 100 136
f 65 136 99
f 66 99 101
f 66 101 67
f 67 101 102
f 67 102 103
f 67 103 104
f 67 104 74
f 68 105 72
f 68 71 105
f 69 77 106
f 69 106 107
f 69 107 70
f 70 107 108
f 70 108 109
f 70 109 71
f 71 110 111
f 71 111 112
f 71 112 113
f 71 113 105
f 71 109 110
f 72 105 73
f 73 105 78
f 74 114 115
f 74 115 76
f 74 76 75
f 74 104 116
f 74 116 114
f 76 117 118
f 76 118 106
f 76 106 77
f 76 115 117
f 78 105 80
f 79 113 84
f 79 81 113
f 80 105 119
f 80 119 81
f 81 119 113
f 82 86 120
f 82 120 83
f 83 120 122
f 83 122 123
f 83 123 121
f 84 113 85
f 85 113 86
f 86 113 112
f 86 112 122
f 86 122 120
f 88 124 125
f 88 125 126
f 88 126 89
f 89 126 127
f 90 128 91
f 91 128 129
f 91 129 92
f 92 130 136
f 92 136 100
f 92 100 131
f 92 131 93
f 92 129 132
f 92 132 133
f 92 133 134
f 92 134 135
f 92 135 171
f 92 171 130
f 93 131 94
f 94 131 98
f 94 98 97
f 96 98 100
f 98 131 100
f 99 136 101
f 101 136 137
f 101 137 138
f 101 138 139
f 101 139 102
f 102 139 140
f 102 140 141
f 102 141 104
f 102 104 103
f 104 141 140
f 104 140 142
f 104 142 143
f 104 143 144
f 104 144 116
f 105 113 119
f 106 118 108
f 106 108 107
f 108 118 145
f 108 145 109
f 109 145 146
f 109 146 147
f 109 147 148
f 109 148 110
f 110 149 150
f 110 150 111
f 110 148 149
f 111 150 151
f 111 151 152
f 111 152 153
f 111 153 112
f 112 153 154
f 112 154 122
f 114 155 115
f 114 116 155
f 115 156 117
f 115 155 156
f 116 144 157
f 116 157 155
f 117 156 155
f 117 155 158
f 117 158 118
f 118 158 145
f 121 123 159
f 122 154 160
f 122 160 123
f 123 160 159
f 124 161 125
f 125 161 162
f 125 162 163
f 125 163 164
f 125 164 165
f 125 165 166
f 125 166 167
f 125 167 126
f 126 167 168
f 126 168 127
f 128 169 170
f 128 170 129
f 129 170 132
f 130 171 172
f 130 172 173
f 130 173 174
f 130 174 175
f 130 175 138
f 130 138 136
f 132 170 133
f 133 170 176
f 133 176 134
f 134 176 177
f 134 177 135
f 135 178 179
f 135 179 180
f 135 180 171
f 135 177 178
f 136 138 137
f 138 175 181
f 138 181 182
f 138 182 139
f 139 183 184
f 139 184 185
f 139 185 186
f 139 186 140
f 139 182 183
f 140 186 187
f 140 187 142
f 142 187 143
f 143 188 189
f 143 189 157
f 143 157 144
f 143 187 188
f 145 158 190
f 145 190 189
f 145 189 191
f 145 191 146
f 146 148 147
f 146 191 192
f 146 192 148
f 148 192 149
f 149 192 193
f 149 193 150
f 150 194 151
f 150 193 194
f 151 194 195
f 151 195 152
f 152 195 159
f 152 159 154
f 152 154 153
f 154 159 160
f 155 157 158
f 157 189 190
f 157 190 158
f 165 196 225
f 165 225 197
f 165 197 166
f 166 197 198
f 166 198 167
f 167 198 168
f 169 199 170
f 170 199 176
f 171 180 172
f 172 200 201
f 172 201 173
f 173 201 174
f 174 201 202
f 174 202 203
f 174 203 204
f 174 204 175
f 175 204 181
f 176 199 205
f 176 205 178
f 176 178 177
f 178 205 179
f 181 204 206
f 181 206 187
f 181 187 207
f 181 207 182
f 182 207 208
f 182 208 183
f 183 208 184
f 184 186 185
f 184 208 186
f 186 208 187
f 187 209 210
f 187 210 211
f 187 211 212
f 187 212 188
f 187 208 213
f 187 213 207
f 187 206 209
f 188 214 215
f 188 215 189
f 188 212 216
f 188 216 217
f 188 217 214
f 189 215 218
f 189 218 219
f 189 219 192
f 189 192 191
f 193 220 221
f 193 221 194
f 194 221 222
f 194 222 195
f 196 223 224
f 196 224 225
f 200 202 201
f 203 226 210
f 203 210 227
f 203 227 209
f 203 209 228
f 203 228 206
f 203 206 204
f 206 228 209
f 207 213 208
f 209 227 210
f 210 226 211
f 211 226 229
f 211 229 212
f 212 229 216
f 214 217 230
f 214 230 231
f 214 231 232
f 214 232 215
f 215 232 233
f 215 233 234
f 215 234 218
f 216 229 235
f 216 235 217
f 217 235 230
f 220 224 236
f 220 236 221
f 220 225 224
f 221 236 224
f 221 224 223

