# https://github.com/mikedh/trimesh
v -0.03055136 -0.03738504 -0.09556249
v -0.02941233 -0.03738504 -0.09556249
v -0.03009344 -0.03794736 -0.09531818
v -0.03199054 -0.03738504 -0.09536931
v -0.02986641 -0.03794736 -0.09531818
v -0.02872738 -0.03738504 -0.09538068
v -0.03219834 -0.04420239 -0.09115638
v -0.03148260 -0.03778234 -0.09521591
v -0.03340278 -0.03738504 -0.09517045
v -0.02847725 -0.03770636 -0.09510228
v -0.02944697 -0.04032040 -0.09346312
v -0.03194821 -0.04420239 -0.09115638
v -0.02682258 -0.03738504 -0.09486648
v -0.03218294 -0.04627365 -0.08909111
v -0.03288714 -0.04516637 -0.09006266
v -0.03358749 -0.04403738 -0.09103422
v -0.04140293 -0.03826000 -0.09344040
v -0.04075645 -0.03738504 -0.09408810
v -0.03296410 -0.04325360 -0.09162796
v -0.03307185 -0.04136471 -0.09277564
v -0.03307185 -0.03759129 -0.09509943
v -0.03509594 -0.03738504 -0.09492614
v -0.03055906 -0.04390277 -0.09090639
v -0.02670329 -0.03738504 -0.09482956
v -0.02469460 -0.03738504 -0.09417048
v -0.03190973 -0.04627365 -0.08909111
v -0.03052058 -0.04606956 -0.08884963
v -0.03515366 -0.05891181 -0.06846107
v -0.03641967 -0.05880108 -0.06829914
v -0.03357210 -0.04613253 -0.08888941
v -0.03515366 -0.04480813 -0.08972461
v -0.03515366 -0.04378336 -0.09076719
v -0.04279977 -0.03804505 -0.09331255
v -0.04323845 -0.03738504 -0.09365062
v -0.04285749 -0.03738504 -0.09372164
v -0.04140293 -0.03738504 -0.09398583
v -0.03467265 -0.04013152 -0.09329836
v -0.02469460 -0.04702269 -0.08552872
v -0.02469460 -0.03738504 -0.06654351
v -0.03367600 -0.05890964 -0.06846107
v -0.02469460 -0.04808220 -0.08446625
v -0.02573358 -0.05250046 -0.07864257
v -0.02682258 -0.05252434 -0.07868234
v -0.03515366 -0.05952189 -0.06717702
v -0.03716235 -0.05906379 -0.06716282
v -0.03780882 -0.05863173 -0.06784745
v -0.04040628 -0.05667555 -0.07032181
v -0.03671598 -0.04643648 -0.08721048
v -0.03515366 -0.04585028 -0.08859111
v -0.04435824 -0.05454783 -0.07230754
v -0.04764835 -0.05072881 -0.07706023
v -0.04917988 -0.05056598 -0.07677046
v -0.04213406 -0.04824070 -0.08268505
v -0.03684681 -0.04444338 -0.08935246
v -0.03836295 -0.04211593 -0.09116774
v -0.04418893 -0.03778669 -0.09309097
v -0.04460452 -0.03738504 -0.09328699
v -0.02469460 -0.05365116 -0.06654351
v -0.06380256 -0.03738504 -0.06654351
v -0.03330658 -0.05919189 -0.06717702
v -0.02469460 -0.05293251 -0.07771362
v -0.03515366 -0.05956315 -0.06654351
v -0.03718544 -0.05917017 -0.06654351
v -0.03834371 -0.05886622 -0.06654351
v -0.03859768 -0.05877503 -0.06654351
v -0.03924800 -0.05832126 -0.06716282
v -0.04565505 -0.05433723 -0.07150643
v -0.04348858 -0.04796930 -0.08239529
v -0.03810513 -0.04617160 -0.08688379
v -0.04821786 -0.05239624 -0.07416259
v -0.04757524 -0.05185563 -0.07534154
v -0.04981866 -0.05103277 -0.07563982
v -0.05056903 -0.05032064 -0.07641821
v -0.04510477 -0.04855333 -0.08098909
v -0.04097579 -0.04651247 -0.08517077
v -0.03975210 -0.04181631 -0.09084389
v -0.04274976 -0.04012717 -0.09127285
v -0.04556654 -0.03750879 -0.09278417
v -0.04569738 -0.03738504 -0.09284666
v -0.02957780 -0.05691437 -0.06654351
v -0.02953547 -0.05694476 -0.06717702
v -0.02469460 -0.05387044 -0.06925935
v -0.06388336 -0.03738504 -0.06690715
v -0.06382950 -0.03807762 -0.06654351
v -0.03226376 -0.05864259 -0.06717702
v -0.03331428 -0.05920057 -0.06654351
v -0.02469460 -0.05301936 -0.07741249
v -0.02469460 -0.05344924 -0.07550914
v -0.04084111 -0.05784144 -0.06654351
v -0.04246115 -0.05666686 -0.06823949
v -0.04328848 -0.05607631 -0.06906332
v -0.04896054 -0.05260901 -0.07277343
v -0.04649393 -0.04827978 -0.08066523
v -0.04968398 -0.05205972 -0.07345239
v -0.05111161 -0.05069407 -0.07503189
v -0.05287018 -0.04834273 -0.07656593
v -0.05181581 -0.04879216 -0.07701762
v -0.05063445 -0.04824504 -0.07854882
v -0.04836794 -0.03982538 -0.08887520
v -0.04826404 -0.04187927 -0.08676163
v -0.04813705 -0.04392014 -0.08462249
v -0.04924530 -0.04861847 -0.07894938
v -0.04764835 -0.04803010 -0.08039251
v -0.04687489 -0.04219626 -0.08709116
v -0.04556654 -0.03951925 -0.09061094
v -0.04556654 -0.03847711 -0.09174158
v -0.04697879 -0.04016842 -0.08923315
v -0.04703266 -0.03813842 -0.09137512
v -0.04747519 -0.03738504 -0.09189783
v -0.03098620 -0.05783927 -0.06654351
v -0.03098620 -0.05788269 -0.06717702
v -0.02469460 -0.05388998 -0.07134450
v -0.06394108 -0.03738504 -0.06717702
v -0.06400266 -0.03895476 -0.06717702
v -0.06385258 -0.03895476 -0.06654351
v -0.03259084 -0.05881628 -0.06654351
v -0.04238418 -0.05719879 -0.06654351
v -0.04761757 -0.05486916 -0.06704351
v -0.04761757 -0.05420262 -0.06929911
v -0.04764835 -0.05358385 -0.07134450
v -0.04828713 -0.05440888 -0.06765144
v -0.04834870 -0.05470633 -0.06654351
v -0.04905289 -0.05435894 -0.06654351
v -0.05040742 -0.05230289 -0.07134450
v -0.05145409 -0.05098284 -0.07342683
v -0.05249692 -0.05004491 -0.07342683
v -0.05310107 -0.04858156 -0.07550914
v -0.05498277 -0.04628884 -0.07660570
v -0.05945038 -0.04032692 -0.07896642
v -0.05729162 -0.04230699 -0.07886131
v -0.05508667 -0.04428489 -0.07875904
v -0.05181581 -0.04775870 -0.07806019
v -0.04930687 -0.03843803 -0.08957404
v -0.05065754 -0.04616509 -0.08063682
v -0.04930302 -0.04048975 -0.08748604
v -0.04842181 -0.03774544 -0.09096320
v -0.04812166 -0.03738504 -0.09151432
v -0.04801007 -0.04595232 -0.08247767
v -0.03227530 -0.05862739 -0.06654351
v -0.06376023 -0.03738504 -0.06928775
v -0.06327922 -0.03793433 -0.07241549
v -0.06365248 -0.03908937 -0.06938434
v -0.06344469 -0.04019447 -0.06877356
v -0.06358322 -0.04043330 -0.06717702
v -0.06354859 -0.04040942 -0.06654351
v -0.04762526 -0.05501246 -0.06654351
v -0.04969937 -0.05396597 -0.06654351
v -0.05071141 -0.05245486 -0.07014852
v -0.05195049 -0.05113481 -0.07130757
v -0.05273550 -0.05029241 -0.07197800
v -0.05676828 -0.04806266 -0.06654351
v -0.05349742 -0.04900276 -0.07342683
v -0.05517902 -0.04649510 -0.07550914
v -0.05703380 -0.04417199 -0.07656593
v -0.06088571 -0.03970597 -0.07759431
v -0.06143599 -0.03828388 -0.07898347
v -0.06013534 -0.03896127 -0.07967094
v -0.05943115 -0.03824697 -0.08104022
v -0.05868462 -0.03963649 -0.08035558
v -0.05647967 -0.04161657 -0.08025047
v -0.05509052 -0.04220711 -0.08084420
v -0.05181581 -0.04671656 -0.07910846
v -0.05069602 -0.03784748 -0.08898031
v -0.04984944 -0.03738504 -0.09015641
v -0.04864885 -0.03738504 -0.09114501
v -0.05358977 -0.03869205 -0.08565939
v -0.06337157 -0.03738504 -0.07179051
v -0.06327922 -0.03784314 -0.07241549
v -0.06322534 -0.03987315 -0.07016272
v -0.06183619 -0.03738504 -0.07809997
v -0.06167457 -0.03866383 -0.07759431
v -0.06113199 -0.03993177 -0.07638412
v -0.06136672 -0.04018362 -0.07499495
v -0.06198627 -0.04083062 -0.07134450
v -0.06170536 -0.04262180 -0.06717702
v -0.06142445 -0.04314504 -0.06654351
v -0.06274433 -0.04147544 -0.06717702
v -0.05084225 -0.05322344 -0.06654351
v -0.05093460 -0.05262855 -0.06876220
v -0.05170422 -0.05182957 -0.06937865
v -0.05294330 -0.05048347 -0.07058884
v -0.05449792 -0.05001885 -0.06717702
v -0.05620261 -0.04862498 -0.06654351
v -0.05731086 -0.04749165 -0.06654351
v -0.05908482 -0.04205514 -0.07648070
v -0.06148601 -0.03738504 -0.07907438
v -0.06021230 -0.03738504 -0.08049478
v -0.05956198 -0.03738504 -0.08118510
v -0.05744554 -0.03738504 -0.08321629
v -0.05529062 -0.03738504 -0.08523043
v -0.05311261 -0.03738504 -0.08723605
v -0.05728777 -0.03814710 -0.08303447
v -0.05509821 -0.03804722 -0.08501453
v -0.05026119 -0.03738504 -0.08980415
v -0.06336388 -0.03738504 -0.07183313
v -0.06313684 -0.03738504 -0.07288139
v -0.05880006 -0.04591975 -0.06654351
v -0.05936958 -0.04531835 -0.06654351
v -0.06019307 -0.04444773 -0.06654351
v -0.05126554 -0.05290646 -0.06654351
v -0.05117318 -0.05282830 -0.06717702
v -0.05221601 -0.05195333 -0.06717702
v -0.05314340 -0.05065065 -0.06925935
v -0.05393995 -0.05066368 -0.06654351
v -0.05459027 -0.05010569 -0.06654351
v -0.05570621 -0.04908092 -0.06654351
v -0.05092691 -0.03738504 -0.08920757
v -0.05230837 -0.05203366 -0.06654351
f 1 2 5
f 1 5 3
f 1 3 4
f 1 4 9
f 1 9 22
f 1 22 18
f 1 18 36
f 1 36 35
f 1 35 34
f 1 34 57
f 1 57 79
f 1 79 109
f 1 109 137
f 1 137 165
f 1 165 164
f 1 164 194
f 1 194 207
f 1 207 191
f 1 191 190
f 1 190 189
f 1 189 188
f 1 188 187
f 1 187 186
f 1 186 170
f 1 170 196
f 1 196 195
f 1 195 167
f 1 167 140
f 1 140 113
f 1 113 83
f 1 83 59
f 1 59 39
f 1 39 25
f 1 25 24
f 1 24 13
f 1 13 6
f 1 6 2
f 2 6 5
f 3 5 12
f 3 12 7
f 3 7 8
f 3 8 9
f 3 9 4
f 5 6 10
f 5 10 11
f 5 11 12
f 6 13 10
f 7 12 26
f 7 26 14
f 7 14 15
f 7 15 16
f 7 16 17
f 7 17 18
f 7 18 19
f 7 19 20
f 7 20 8
f 8 20 21
f 8 21 9
f 9 21 22
f 10 13 11
f 11 23 12
f 11 13 24
f 11 24 25
f 11 25 23
f 12 23 27
f 12 27 26
f 14 26 28
f 14 28 29
f 14 29 30
f 14 30 15
f 15 30 16
f 16 30 31
f 16 31 32
f 16 32 33
f 16 33 17
f 17 33 34
f 17 34 35
f 17 35 36
f 17 36 18
f 18 22 21
f 18 21 37
f 18 37 19
f 19 37 20
f 20 37 21
f 23 25 38
f 23 38 27
f 25 39 58
f 25 58 82
f 25 82 112
f 25 112 88
f 25 88 87
f 25 87 61
f 25 61 41
f 25 41 38
f 26 40 28
f 26 27 41
f 26 41 42
f 26 42 43
f 26 43 40
f 27 38 41
f 28 40 44
f 28 44 29
f 29 44 45
f 29 45 46
f 29 46 47
f 29 47 30
f 30 48 49
f 30 49 31
f 30 47 50
f 30 50 51
f 30 51 52
f 30 52 53
f 30 53 48
f 31 49 54
f 31 54 55
f 31 55 32
f 32 55 56
f 32 56 33
f 33 56 57
f 33 57 34
f 39 59 84
f 39 84 115
f 39 115 145
f 39 145 176
f 39 176 199
f 39 199 198
f 39 198 197
f 39 197 184
f 39 184 151
f 39 151 183
f 39 183 206
f 39 206 205
f 39 205 204
f 39 204 208
f 39 208 200
f 39 200 178
f 39 178 147
f 39 147 123
f 39 123 122
f 39 122 146
f 39 146 117
f 39 117 89
f 39 89 65
f 39 65 64
f 39 64 63
f 39 63 62
f 39 62 86
f 39 86 116
f 39 116 139
f 39 139 110
f 39 110 80
f 39 80 58
f 40 60 44
f 40 43 42
f 40 42 61
f 40 61 60
f 41 61 42
f 44 62 63
f 44 63 45
f 44 60 62
f 45 63 64
f 45 64 46
f 46 64 65
f 46 65 66
f 46 66 67
f 46 67 50
f 46 50 47
f 48 53 68
f 48 68 49
f 49 68 69
f 49 69 54
f 50 67 70
f 50 70 52
f 50 52 71
f 50 71 51
f 51 71 52
f 52 70 72
f 52 72 73
f 52 73 74
f 52 74 53
f 53 74 68
f 54 69 75
f 54 75 76
f 54 76 55
f 55 76 77
f 55 77 78
f 55 78 56
f 56 78 79
f 56 79 57
f 58 80 81
f 58 81 82
f 59 83 84
f 60 85 86
f 60 86 62
f 60 61 87
f 60 87 88
f 60 88 85
f 65 89 90
f 65 90 66
f 66 90 91
f 66 91 92
f 66 92 67
f 67 92 70
f 68 74 93
f 68 93 69
f 69 93 75
f 70 92 94
f 70 94 72
f 72 94 95
f 72 95 73
f 73 95 96
f 73 96 97
f 73 97 98
f 73 98 99
f 73 99 100
f 73 100 101
f 73 101 102
f 73 102 103
f 73 103 93
f 73 93 74
f 75 93 76
f 76 93 77
f 77 93 104
f 77 104 105
f 77 105 106
f 77 106 78
f 78 106 107
f 78 107 100
f 78 100 108
f 78 108 79
f 79 108 109
f 80 110 81
f 81 110 111
f 81 111 82
f 82 111 112
f 83 113 114
f 83 114 84
f 84 114 115
f 85 116 86
f 85 88 112
f 85 112 111
f 85 111 116
f 89 117 90
f 90 117 118
f 90 118 119
f 90 119 120
f 90 120 91
f 91 120 92
f 92 120 119
f 92 119 121
f 92 121 122
f 92 122 94
f 93 103 104
f 94 122 123
f 94 123 124
f 94 124 95
f 95 124 125
f 95 125 126
f 95 126 127
f 95 127 96
f 96 127 128
f 96 128 129
f 96 129 130
f 96 130 131
f 96 131 97
f 97 131 132
f 97 132 133
f 97 133 134
f 97 134 98
f 98 134 133
f 98 133 135
f 98 135 136
f 98 136 99
f 99 136 137
f 99 137 109
f 99 109 108
f 99 108 100
f 100 107 101
f 101 138 102
f 101 107 106
f 101 106 104
f 101 104 138
f 102 138 103
f 103 138 104
f 104 106 105
f 110 139 111
f 111 139 116
f 113 140 114
f 114 140 141
f 114 141 142
f 114 142 143
f 114 143 144
f 114 144 145
f 114 145 115
f 117 146 118
f 118 146 121
f 118 121 119
f 121 146 122
f 123 147 148
f 123 148 124
f 124 148 125
f 125 148 149
f 125 149 150
f 125 150 126
f 126 150 151
f 126 151 152
f 126 152 153
f 126 153 128
f 126 128 127
f 128 153 154
f 128 154 155
f 128 155 129
f 129 155 156
f 129 156 157
f 129 157 158
f 129 158 159
f 129 159 130
f 130 159 131
f 131 159 160
f 131 160 161
f 131 161 133
f 131 133 162
f 131 162 132
f 132 162 133
f 133 163 164
f 133 164 165
f 133 165 136
f 133 136 135
f 133 161 166
f 133 166 163
f 136 165 137
f 140 167 168
f 140 168 141
f 141 169 142
f 141 168 170
f 141 170 156
f 141 156 169
f 142 169 143
f 143 169 171
f 143 171 172
f 143 172 173
f 143 173 174
f 143 174 175
f 143 175 176
f 143 176 177
f 143 177 144
f 144 177 176
f 144 176 145
f 147 178 148
f 148 178 179
f 148 179 149
f 149 179 180
f 149 180 181
f 149 181 150
f 150 181 182
f 150 182 183
f 150 183 151
f 151 184 185
f 151 185 153
f 151 153 152
f 153 185 154
f 154 185 155
f 155 185 172
f 155 172 171
f 155 171 156
f 156 186 187
f 156 187 188
f 156 188 158
f 156 158 157
f 156 171 169
f 156 170 186
f 158 188 189
f 158 189 190
f 158 190 191
f 158 191 192
f 158 192 159
f 159 192 193
f 159 193 163
f 159 163 166
f 159 166 160
f 160 166 161
f 163 194 164
f 163 193 194
f 167 195 168
f 168 195 196
f 168 196 170
f 172 185 173
f 173 185 184
f 173 184 197
f 173 197 198
f 173 198 199
f 173 199 175
f 173 175 174
f 175 199 176
f 178 200 201
f 178 201 179
f 179 201 180
f 180 202 203
f 180 203 181
f 180 201 202
f 181 203 204
f 181 204 205
f 181 205 182
f 182 205 206
f 182 206 183
f 191 207 192
f 192 207 194
f 192 194 193
f 200 208 201
f 201 208 202
f 202 208 204
f 202 204 203

