# https://github.com/mikedh/trimesh
v 0.03747267 0.00477799 -0.03634014
v 0.03939547 -0.00979239 -0.03634014
v 0.03936495 -0.01187439 -0.03801269
v 0.03663030 0.00477799 -0.04069144
v -0.02270794 0.00477799 -0.03634014
v 0.03965184 -0.01187439 -0.03634014
v 0.03960912 -0.01395284 -0.03801269
v 0.03880947 -0.01283394 -0.04119527
v 0.03655705 0.00279160 -0.04212611
v 0.03627626 0.00477799 -0.04216305
v 0.03679511 -0.01244091 -0.04977524
v -0.02270794 0.00477799 -0.05143450
v -0.02270794 -0.02247554 -0.03634014
v 0.03956028 -0.01395284 -0.03634014
v 0.03931001 -0.01603482 -0.03801269
v 0.03903532 -0.01603482 -0.04015953
v 0.03885220 -0.01533729 -0.04133121
v 0.03915741 -0.01395284 -0.04009452
v 0.03633730 0.00062463 -0.04425965
v 0.03624574 -0.00979239 -0.05050809
v 0.03393838 0.00477799 -0.05143450
v 0.03679511 -0.01349253 -0.04977524
v 0.03627626 -0.01183544 -0.05143450
v -0.02270794 -0.02695465 -0.05143450
v -0.01821530 -0.02683780 -0.03634014
v 0.03904754 -0.01587195 -0.03634014
v 0.03890103 -0.01727411 -0.03950794
v 0.03879727 -0.01707936 -0.03696661
v 0.03887662 -0.01722453 -0.03801269
v 0.03874233 -0.01672882 -0.04089829
v 0.03675849 -0.02153369 -0.04546975
v 0.03476854 -0.02644832 -0.04997175
v 0.03513479 -0.02147703 -0.05143450
v 0.03590391 -0.01812036 -0.05050809
v 0.03627626 -0.01403073 -0.05143450
v -0.01412554 -0.03139481 -0.05143450
v -0.01651835 -0.02808771 -0.03634014
v -0.01687239 -0.02787526 -0.03634014
v 0.03895597 -0.01615875 -0.03634014
v 0.03467087 -0.02758137 -0.04891089
v 0.03467087 -0.02758137 -0.04960976
v 0.03821737 -0.01770608 -0.03634014
v 0.03592222 -0.02197629 -0.03634014
v 0.03490283 -0.02380688 -0.03634014
v 0.03674017 -0.02128583 -0.03890807
v 0.03453048 -0.02731227 -0.04634148
v 0.03461594 -0.02747161 -0.04752350
v 0.03436567 -0.02644832 -0.05143450
v 0.03458542 -0.02511344 -0.05138722
v 0.03475633 -0.02392373 -0.05143450
v 0.03288236 -0.03139481 -0.05143450
v -0.00995642 -0.03139481 -0.03822546
v -0.01396683 -0.02936239 -0.03634014
v 0.03327913 -0.03061938 -0.05050809
v 0.03326692 -0.03061938 -0.05143450
v 0.03398111 -0.02845595 -0.05143450
v 0.03099619 -0.03072560 -0.03634014
v 0.03268093 -0.03139481 -0.04915616
v 0.03287626 -0.03139481 -0.05050809
v -0.00931548 -0.03139481 -0.03634014
v 0.03073981 -0.03117528 -0.03634014
v 0.03064215 -0.03139481 -0.03650858
v 0.03088631 -0.03139481 -0.03801269
v 0.03122204 -0.03139481 -0.04009452
v 0.03059942 -0.03139481 -0.03634014
f 1 2 3
f 1 3 4
f 1 4 10
f 1 10 21
f 1 21 12
f 1 12 5
f 1 5 13
f 1 13 25
f 1 25 38
f 1 38 37
f 1 37 53
f 1 53 60
f 1 60 65
f 1 65 61
f 1 61 57
f 1 57 44
f 1 44 43
f 1 43 42
f 1 42 39
f 1 39 26
f 1 26 14
f 1 14 6
f 1 6 2
f 2 6 3
f 3 6 7
f 3 7 8
f 3 8 4
f 4 9 10
f 4 8 11
f 4 11 9
f 5 12 24
f 5 24 13
f 6 14 7
f 7 14 15
f 7 15 16
f 7 16 17
f 7 17 18
f 7 18 8
f 8 18 11
f 9 11 10
f 10 11 19
f 10 19 20
f 10 20 21
f 11 18 22
f 11 22 35
f 11 35 23
f 11 23 20
f 11 20 19
f 12 21 23
f 12 23 35
f 12 35 33
f 12 33 50
f 12 50 48
f 12 48 56
f 12 56 55
f 12 55 51
f 12 51 36
f 12 36 24
f 13 24 25
f 14 26 15
f 15 27 16
f 15 26 28
f 15 28 29
f 15 29 27
f 16 27 30
f 16 30 17
f 17 30 31
f 17 31 32
f 17 32 33
f 17 33 34
f 17 34 35
f 17 35 22
f 17 22 18
f 20 23 21
f 24 36 37
f 24 37 38
f 24 38 25
f 26 39 28
f 27 29 40
f 27 40 41
f 27 41 30
f 28 39 42
f 28 42 43
f 28 43 44
f 28 44 45
f 28 45 46
f 28 46 29
f 29 46 47
f 29 47 40
f 30 41 31
f 31 41 32
f 32 41 48
f 32 48 49
f 32 49 33
f 33 49 50
f 33 35 34
f 36 51 59
f 36 59 58
f 36 58 64
f 36 64 63
f 36 63 62
f 36 62 65
f 36 65 60
f 36 60 52
f 36 52 53
f 36 53 37
f 40 47 54
f 40 54 41
f 41 54 55
f 41 55 56
f 41 56 48
f 44 57 45
f 45 57 58
f 45 58 46
f 46 58 47
f 47 58 59
f 47 59 54
f 48 50 49
f 51 55 54
f 51 54 59
f 52 60 53
f 57 61 62
f 57 62 63
f 57 63 64
f 57 64 58
f 61 65 62

