# https://github.com/mikedh/trimesh
v -0.02270794 -0.02450678 -0.04788996
v -0.02270794 -0.05157505 -0.06153337
v -0.02270794 -0.02450678 -0.06654351
v -0.02460090 -0.02450678 -0.04647807
v -0.02787935 -0.04413179 -0.05364465
v -0.02270794 -0.05317863 -0.06296022
v -0.02971995 -0.05080078 -0.05556454
v -0.02937761 -0.05353651 -0.05727027
v -0.02976023 -0.05476501 -0.05762886
v -0.02270794 -0.05355716 -0.06654351
v -0.06095380 -0.02450678 -0.06654351
v -0.02611527 -0.02450678 -0.04535751
v -0.02270794 -0.05318207 -0.06297765
v -0.03100475 -0.05611051 -0.05882412
v -0.03170957 -0.05684004 -0.05950890
v -0.03135515 -0.05707747 -0.06092579
v -0.03333671 -0.05921444 -0.06509177
v -0.02956690 -0.02450678 -0.04312635
v -0.03099266 -0.02450678 -0.04252872
v -0.03056574 -0.05218757 -0.05587580
v -0.02721883 -0.02450678 -0.04459553
v -0.02781893 -0.02450678 -0.04418217
v -0.02836266 -0.02450678 -0.04384849
v -0.03114974 -0.05335069 -0.05627174
v -0.03098864 -0.05510568 -0.05733253
v -0.03259161 -0.05881527 -0.06654351
v -0.06134447 -0.02607940 -0.06654351
v -0.06102629 -0.02450678 -0.06509177
v -0.03307090 -0.05639612 -0.05825886
v -0.03307090 -0.05694671 -0.05929973
v -0.03371530 -0.05894259 -0.06364998
v -0.03515315 -0.05966180 -0.06509177
v -0.03331658 -0.05920068 -0.06654351
v -0.03296618 -0.02450678 -0.04177172
v -0.03311922 -0.02450678 -0.04172441
v -0.03460137 -0.02450678 -0.04126872
v -0.03515315 -0.02450678 -0.04110686
v -0.03307090 -0.05377051 -0.05606506
v -0.03307090 -0.05535345 -0.05710593
v -0.06179556 -0.02790666 -0.06654351
v -0.06150961 -0.02645793 -0.06509177
v -0.06103032 -0.02450678 -0.06478548
v -0.03515315 -0.05696736 -0.05926487
v -0.03932169 -0.05642365 -0.05815926
v -0.04348218 -0.05703275 -0.05914285
v -0.03932169 -0.05700177 -0.05920013
v -0.03515315 -0.05852965 -0.06239247
v -0.03515315 -0.05904927 -0.06343335
v -0.03515315 -0.05956200 -0.06654351
v -0.03723943 -0.05905615 -0.06340098
v -0.03932169 -0.05890818 -0.06367240
v -0.03723943 -0.05941404 -0.06509177
v -0.03515315 -0.05295151 -0.05545995
v -0.03734818 -0.02450678 -0.04171943
v -0.04253972 -0.04630316 -0.05152306
v -0.04229001 -0.04630316 -0.05152306
v -0.03515315 -0.05399074 -0.05606008
v -0.03515315 -0.05536377 -0.05710095
v -0.04348218 -0.05643742 -0.05810198
v -0.04140395 -0.05643054 -0.05812937
v -0.06230706 -0.02999201 -0.06654351
v -0.06122767 -0.02526384 -0.06388903
v -0.06200097 -0.02853984 -0.06509177
v -0.06090949 -0.02450678 -0.06313702
v -0.04556444 -0.05643742 -0.05809451
v -0.04556444 -0.05701554 -0.05913788
v -0.03723943 -0.05854686 -0.06236010
v -0.03932169 -0.05786207 -0.06092579
v -0.03718708 -0.05916971 -0.06654351
v -0.04038900 -0.05875333 -0.06398865
v -0.04719963 -0.05687789 -0.05938938
v -0.04038900 -0.05875333 -0.06408825
v -0.03924920 -0.05893227 -0.06490500
v -0.03932169 -0.05017104 -0.05373430
v -0.04140395 -0.05027772 -0.05371437
v -0.03723943 -0.05297904 -0.05540268
v -0.05102582 -0.02450678 -0.04931681
v -0.05079625 -0.02545311 -0.04945875
v -0.05269727 -0.02928313 -0.05164010
v -0.05399012 -0.03894250 -0.05520596
v -0.05488424 -0.04613799 -0.05783055
v -0.05407470 -0.04534652 -0.05714826
v -0.05116679 -0.04520199 -0.05549980
v -0.04823471 -0.04520199 -0.05388371
v -0.04719560 -0.04520199 -0.05331098
v -0.04536305 -0.04500240 -0.05224520
v -0.04566513 -0.04729767 -0.05310181
v -0.04503682 -0.04887372 -0.05335331
v -0.04392521 -0.04556676 -0.05174967
v -0.04683312 -0.05268998 -0.05559691
v -0.04348218 -0.04919031 -0.05314165
v -0.04140395 -0.04923505 -0.05313916
v -0.03723943 -0.05402172 -0.05608248
v -0.04140395 -0.05539130 -0.05717067
v -0.06347506 -0.03501956 -0.06654351
v -0.06369255 -0.03604848 -0.06654351
v -0.06344284 -0.03514345 -0.06584628
v -0.06137669 -0.02645793 -0.06361512
v -0.06090144 -0.02450678 -0.06311461
v -0.06161030 -0.02853984 -0.06338354
v -0.04348218 -0.05539818 -0.05719557
v -0.04556444 -0.05539818 -0.05721799
v -0.04765072 -0.05532593 -0.05735993
v -0.04779571 -0.05639957 -0.05875191
v -0.03834299 -0.05886689 -0.06654351
v -0.04974908 -0.05531904 -0.05887890
v -0.05093722 -0.05471339 -0.05959855
v -0.04817028 -0.05644086 -0.06092579
v -0.04712713 -0.05685724 -0.06092579
v -0.03989764 -0.05855030 -0.06547774
v -0.03850812 -0.05883936 -0.06645636
v -0.04671229 -0.05670239 -0.06211109
v -0.04348218 -0.05023299 -0.05373928
v -0.04348218 -0.05145116 -0.05452616
v -0.04140395 -0.05145116 -0.05447884
v -0.05110235 -0.02450678 -0.04936163
v -0.05299531 -0.02789634 -0.05143591
v -0.05701080 -0.04197762 -0.05781064
v -0.05672887 -0.04312009 -0.05797249
v -0.05474328 -0.03962729 -0.05582600
v -0.05568976 -0.04312009 -0.05738482
v -0.05596364 -0.04534652 -0.05819910
v -0.05598377 -0.04728390 -0.05878926
v -0.05165413 -0.04715658 -0.05635889
v -0.05084861 -0.04637887 -0.05567660
v -0.04681298 -0.04661288 -0.05352264
v -0.04756614 -0.04729767 -0.05414766
v -0.04642634 -0.04799967 -0.05373679
v -0.04726810 -0.05145116 -0.05535537
v -0.04556444 -0.05282075 -0.05550727
v -0.04906842 -0.05502998 -0.05759150
v -0.03932169 -0.05294463 -0.05541762
v -0.04140395 -0.05394945 -0.05612980
v -0.06378116 -0.03687092 -0.06654351
v -0.06359186 -0.03687092 -0.06567445
v -0.06092963 -0.02645793 -0.06257425
v -0.05995496 -0.02450678 -0.06117480
v -0.06174723 -0.03062174 -0.06335864
v -0.04348218 -0.05391504 -0.05615470
v -0.04556444 -0.05386342 -0.05617711
v -0.03860075 -0.05877398 -0.06654351
v -0.05313627 -0.05274160 -0.05960103
v -0.05093722 -0.05471339 -0.06043025
v -0.04991421 -0.05531560 -0.06104531
v -0.04947924 -0.05509536 -0.06300753
v -0.04904426 -0.05478566 -0.06509177
v -0.04876233 -0.05461360 -0.06625964
v -0.04834748 -0.05470651 -0.06654351
v -0.04762655 -0.05501277 -0.06654351
v -0.04084411 -0.05784142 -0.06654351
v -0.03948682 -0.05840577 -0.06654351
v -0.04348218 -0.05287236 -0.05546493
v -0.05216965 -0.02450678 -0.05010369
v -0.05313627 -0.02645793 -0.05126160
v -0.05763105 -0.04520199 -0.05931716
v -0.05737329 -0.04728390 -0.05962345
v -0.05320877 -0.02450678 -0.05107733
v -0.06364422 -0.03895627 -0.06566201
v -0.05954818 -0.04520199 -0.06142630
v -0.05867419 -0.04520199 -0.06038543
v -0.05712760 -0.04844357 -0.05981768
v -0.05384110 -0.04940711 -0.05829372
v -0.05310808 -0.04873952 -0.05766123
v -0.05046197 -0.04776567 -0.05589075
v -0.04907245 -0.04895287 -0.05550727
v -0.04783196 -0.04953787 -0.05501920
v -0.04831124 -0.05145116 -0.05592312
v -0.04974908 -0.05342984 -0.05737735
v -0.05087681 -0.05266245 -0.05774340
v -0.05521451 -0.05068034 -0.05967076
v -0.06382949 -0.03807877 -0.06654351
v -0.06385365 -0.03895627 -0.06654351
v -0.05327321 -0.02450678 -0.05116449
v -0.05531117 -0.05075261 -0.06092579
v -0.05417539 -0.05179184 -0.06092579
v -0.05313225 -0.05273472 -0.06092579
v -0.05072778 -0.05453789 -0.06181974
v -0.05616098 -0.04967552 -0.06300753
v -0.05511784 -0.05055990 -0.06300753
v -0.05170649 -0.05391504 -0.06104531
v -0.05148497 -0.05308916 -0.06509177
v -0.05126748 -0.05290678 -0.06654351
v -0.05051835 -0.05438992 -0.06300753
v -0.04970075 -0.05396666 -0.06654351
v -0.05008740 -0.05412839 -0.06509177
v -0.04905231 -0.05435895 -0.06654351
v -0.05934277 -0.04656470 -0.06163049
v -0.06351534 -0.04038435 -0.06582884
v -0.04975311 -0.04953787 -0.05607751
v -0.04864955 -0.05034311 -0.05573885
v -0.05735314 -0.04863629 -0.06092579
v -0.05635431 -0.04967896 -0.06092579
v -0.06355158 -0.04041188 -0.06654351
v -0.05840837 -0.04759017 -0.06300753
v -0.05736523 -0.04863284 -0.06300753
v -0.05459023 -0.05010566 -0.06654351
v -0.05474730 -0.05024675 -0.06548521
v -0.05495674 -0.05042225 -0.06409821
v -0.05317252 -0.05130663 -0.06654351
v -0.05084458 -0.05322337 -0.06654351
v -0.06122767 -0.04420405 -0.06397619
v -0.06122767 -0.04420405 -0.06417292
v -0.05934277 -0.04655093 -0.06300753
v -0.06142503 -0.04314073 -0.06654351
v -0.05918972 -0.04633070 -0.06428497
v -0.05714371 -0.04844014 -0.06439205
v -0.05393776 -0.05066314 -0.06654351
v -0.05570587 -0.04908019 -0.06654351
v -0.05979386 -0.04486820 -0.06654351
v -0.05937096 -0.04531555 -0.06654351
v -0.05690206 -0.04819925 -0.06578153
v -0.05620126 -0.04862252 -0.06654351
v -0.05730884 -0.04749037 -0.06654351
v -0.05676915 -0.04805816 -0.06654351
f 1 2 6
f 1 6 13
f 1 13 10
f 1 10 3
f 1 3 11
f 1 11 28
f 1 28 42
f 1 42 64
f 1 64 99
f 1 99 137
f 1 137 173
f 1 173 157
f 1 157 153
f 1 153 116
f 1 116 77
f 1 77 54
f 1 54 37
f 1 37 36
f 1 36 35
f 1 35 34
f 1 34 19
f 1 19 18
f 1 18 23
f 1 23 22
f 1 22 21
f 1 21 12
f 1 12 4
f 1 4 5
f 1 5 2
f 2 5 7
f 2 7 8
f 2 8 9
f 2 9 6
f 3 10 26
f 3 26 33
f 3 33 49
f 3 49 69
f 3 69 105
f 3 105 141
f 3 141 151
f 3 151 150
f 3 150 149
f 3 149 148
f 3 148 186
f 3 186 184
f 3 184 200
f 3 200 182
f 3 182 199
f 3 199 207
f 3 207 196
f 3 196 208
f 3 208 212
f 3 212 214
f 3 214 213
f 3 213 210
f 3 210 209
f 3 209 204
f 3 204 193
f 3 193 172
f 3 172 171
f 3 171 134
f 3 134 96
f 3 96 95
f 3 95 61
f 3 61 40
f 3 40 27
f 3 27 11
f 4 12 5
f 5 12 7
f 6 9 14
f 6 14 15
f 6 15 16
f 6 16 17
f 6 17 13
f 7 18 19
f 7 19 20
f 7 20 9
f 7 9 8
f 7 12 21
f 7 21 22
f 7 22 23
f 7 23 18
f 9 20 24
f 9 24 25
f 9 25 14
f 10 13 17
f 10 17 26
f 11 27 28
f 14 25 15
f 15 25 29
f 15 29 30
f 15 30 31
f 15 31 17
f 15 17 16
f 17 31 32
f 17 32 33
f 17 33 26
f 19 34 20
f 20 34 35
f 20 35 36
f 20 36 37
f 20 37 24
f 24 37 38
f 24 38 25
f 25 38 39
f 25 39 29
f 27 40 41
f 27 41 28
f 28 41 42
f 29 43 30
f 29 39 44
f 29 44 45
f 29 45 46
f 29 46 43
f 30 43 47
f 30 47 48
f 30 48 31
f 31 48 32
f 32 49 33
f 32 48 50
f 32 50 51
f 32 51 52
f 32 52 49
f 37 53 38
f 37 54 55
f 37 55 56
f 37 56 53
f 38 53 57
f 38 57 39
f 39 57 58
f 39 58 59
f 39 59 60
f 39 60 44
f 40 61 41
f 41 62 42
f 41 61 63
f 41 63 62
f 42 62 64
f 43 46 47
f 44 60 45
f 45 60 59
f 45 59 65
f 45 65 66
f 45 66 50
f 45 50 67
f 45 67 68
f 45 68 46
f 46 68 67
f 46 67 47
f 47 67 48
f 48 67 50
f 49 52 69
f 50 66 51
f 51 70 52
f 51 66 71
f 51 71 70
f 52 70 72
f 52 72 73
f 52 73 69
f 53 56 74
f 53 74 75
f 53 75 76
f 53 76 57
f 54 77 78
f 54 78 79
f 54 79 80
f 54 80 81
f 54 81 82
f 54 82 83
f 54 83 84
f 54 84 85
f 54 85 86
f 54 86 87
f 54 87 88
f 54 88 89
f 54 89 55
f 55 89 88
f 55 88 90
f 55 90 91
f 55 91 75
f 55 75 92
f 55 92 56
f 56 92 74
f 57 76 93
f 57 93 58
f 58 93 94
f 58 94 65
f 58 65 59
f 61 95 63
f 62 63 95
f 62 95 96
f 62 96 97
f 62 97 98
f 62 98 64
f 64 98 100
f 64 100 99
f 65 94 101
f 65 101 102
f 65 102 103
f 65 103 104
f 65 104 71
f 65 71 66
f 69 73 105
f 70 71 72
f 71 104 106
f 71 106 107
f 71 107 108
f 71 108 109
f 71 109 72
f 72 110 111
f 72 111 73
f 72 109 108
f 72 108 112
f 72 112 110
f 73 111 105
f 74 92 75
f 75 91 113
f 75 113 114
f 75 114 115
f 75 115 76
f 76 115 93
f 77 116 79
f 77 79 78
f 79 117 118
f 79 118 119
f 79 119 120
f 79 120 80
f 79 116 117
f 80 120 81
f 81 120 121
f 81 121 122
f 81 122 123
f 81 123 124
f 81 124 125
f 81 125 83
f 81 83 82
f 83 125 84
f 84 125 85
f 85 125 126
f 85 126 86
f 86 126 87
f 87 126 127
f 87 127 128
f 87 128 129
f 87 129 88
f 88 129 90
f 90 130 113
f 90 113 91
f 90 129 131
f 90 131 103
f 90 103 130
f 93 115 132
f 93 132 133
f 93 133 102
f 93 102 101
f 93 101 94
f 96 134 135
f 96 135 97
f 97 135 100
f 97 100 98
f 99 100 136
f 99 136 137
f 100 135 138
f 100 138 137
f 100 137 136
f 102 133 139
f 102 139 140
f 102 140 103
f 103 131 104
f 103 140 130
f 104 131 106
f 105 111 141
f 106 131 142
f 106 142 107
f 107 143 108
f 107 142 143
f 108 143 144
f 108 144 145
f 108 145 146
f 108 146 147
f 108 147 148
f 108 148 149
f 108 149 112
f 110 112 150
f 110 150 111
f 111 150 151
f 111 151 141
f 112 149 150
f 113 130 140
f 113 140 114
f 114 140 152
f 114 152 132
f 114 132 115
f 116 153 117
f 117 153 154
f 117 154 118
f 118 155 156
f 118 156 119
f 118 154 157
f 118 157 158
f 118 158 159
f 118 159 160
f 118 160 155
f 119 123 122
f 119 122 121
f 119 121 120
f 119 156 161
f 119 161 123
f 123 161 162
f 123 162 163
f 123 163 164
f 123 164 124
f 124 164 128
f 124 128 127
f 124 127 126
f 124 126 125
f 128 164 163
f 128 163 165
f 128 165 166
f 128 166 167
f 128 167 129
f 129 167 168
f 129 168 131
f 131 168 169
f 131 169 161
f 131 161 170
f 131 170 142
f 132 152 133
f 133 152 139
f 134 171 135
f 135 171 172
f 135 172 158
f 135 158 173
f 135 173 138
f 137 138 173
f 139 152 140
f 142 170 174
f 142 174 175
f 142 175 176
f 142 176 143
f 143 177 144
f 143 176 178
f 143 178 179
f 143 179 180
f 143 180 181
f 143 181 182
f 143 182 177
f 144 177 183
f 144 183 145
f 145 184 146
f 145 183 185
f 145 185 184
f 146 186 147
f 146 184 186
f 147 186 148
f 153 157 154
f 155 160 156
f 156 160 187
f 156 187 161
f 157 173 158
f 158 172 188
f 158 188 159
f 159 188 187
f 159 187 160
f 161 187 170
f 161 169 162
f 162 169 163
f 163 169 168
f 163 168 189
f 163 189 165
f 165 189 166
f 166 189 190
f 166 190 167
f 167 190 189
f 167 189 168
f 170 187 191
f 170 191 192
f 170 192 174
f 172 193 188
f 174 192 194
f 174 194 195
f 174 195 175
f 175 195 176
f 176 195 178
f 177 182 183
f 178 195 196
f 178 196 197
f 178 197 198
f 178 198 179
f 179 198 181
f 179 181 180
f 181 198 199
f 181 199 182
f 182 200 183
f 183 200 185
f 184 185 200
f 187 188 201
f 187 201 202
f 187 202 203
f 187 203 194
f 187 194 191
f 188 193 201
f 191 194 192
f 193 204 202
f 193 202 201
f 194 203 202
f 194 202 205
f 194 205 206
f 194 206 195
f 195 206 196
f 196 207 197
f 196 206 208
f 197 207 198
f 198 207 199
f 202 204 205
f 204 209 205
f 205 209 210
f 205 210 211
f 205 211 206
f 206 211 212
f 206 212 208
f 210 213 211
f 211 213 214
f 211 214 212

