# https://github.com/mikedh/trimesh
v -0.07384455 -0.00895644 0.02002622
v -0.07384455 -0.00841275 0.02002622
v -0.07374407 -0.00882143 0.01902218
v -0.07311326 -0.00976287 0.02002622
v -0.07374407 -0.00861709 0.01902218
v -0.07330585 -0.00738738 0.02002622
v -0.07163952 -0.00663204 0.01282974
v -0.07152230 -0.00692396 0.01143933
v -0.07172326 -0.00889441 0.01034067
v -0.07268900 -0.01021534 0.02002622
v -0.07172326 -0.00831422 0.01034067
v -0.07142181 -0.00765376 0.00974929
v -0.07102826 -0.00770849 0.00782006
v -0.06900187 -0.00149428 0.02002622
v -0.07017137 -0.00602266 0.00782006
v -0.06787703 -0.00006753 0.02002622
v -0.06999553 -0.00914254 0.00634292
v -0.07038071 -0.00955852 0.00782006
v -0.07063191 -0.00985774 0.00961524
v -0.07091940 -0.01013142 0.01198603
v -0.07171209 -0.01094149 0.01882242
v -0.07185165 -0.01108380 0.02002622
v -0.06989784 -0.00629634 0.00635080
v -0.07015742 -0.00770849 0.00613265
v -0.06763141 -0.00023903 0.01823630
v -0.06746393 -0.00039229 0.01711661
v -0.06544592 -0.00033755 0.01064556
v -0.06599578 -0.00181539 0.00782006
v -0.06770398 -0.00000914 0.02002622
v -0.06561898 -0.00021349 0.01198603
v -0.06904095 -0.00770849 0.00508919
v -0.06778492 -0.00909146 0.00448992
v -0.06571108 -0.01107650 0.00441895
v -0.06769560 -0.01100717 0.00648222
v -0.06918888 -0.01060213 0.00782006
v -0.06951824 -0.01082472 0.00888718
v -0.05668165 -0.02676347 0.02002622
v -0.06571946 -0.00214015 0.00635869
v -0.06506353 -0.00279332 0.00496828
v -0.06714853 -0.00487688 0.00496565
v -0.06784353 -0.00626350 0.00438215
v -0.06352281 -0.00028282 0.00647959
v -0.06482070 -0.00077543 0.00782006
v -0.06640050 0.00036305 0.02002622
v -0.06377959 -0.00020619 0.00782006
v -0.06431550 0.00007478 0.01198603
v -0.06799984 -0.00770849 0.00430593
v -0.06559106 -0.00639486 0.00245030
v -0.06559106 -0.00715020 0.00245030
v -0.06523658 -0.00853681 0.00268685
v -0.06381030 -0.00979206 0.00229260
v -0.06341395 -0.01096703 0.00252915
v -0.06132894 -0.01301046 0.00250287
v -0.05288287 -0.01918089 0.00259223
v -0.05082020 -0.02336262 0.00673455
v -0.04668368 -0.03171879 0.01501917
v -0.04533276 -0.03494084 0.01848862
v -0.04533276 -0.03570348 0.01968190
v -0.04577376 -0.03557211 0.02002622
v -0.04605567 -0.03535317 0.02002622
v -0.06728251 -0.01280612 0.00914213
v -0.05643324 -0.02697146 0.02002622
v -0.06429317 -0.00142860 0.00572262
v -0.06367353 -0.00210731 0.00434273
v -0.06575853 -0.00418358 0.00434273
v -0.06358421 -0.00427480 0.00233991
v -0.06140989 -0.00436603 0.00033972
v -0.05923557 -0.00445725 -0.00164996
v -0.06223328 0.00011492 0.00782006
v -0.06014828 0.00019885 0.00573839
v -0.05181944 0.00095784 0.00157242
v -0.06014828 -0.00016605 0.00419291
v -0.06137082 -0.00034850 0.00457665
v -0.06275803 -0.00071705 0.00508919
v -0.06610464 0.00039589 0.02002622
v -0.04973723 0.00131179 0.00157242
v -0.05806886 0.00051631 0.00573839
v -0.05559868 -0.00404127 -0.00406806
v -0.05670677 -0.00562492 -0.00343725
v -0.05566288 -0.00562492 -0.00409434
v -0.05918533 -0.00678530 -0.00159739
v -0.06445226 -0.00778877 0.00194828
v -0.06271895 -0.00770849 0.00086276
v -0.05948119 -0.01142680 0.00030818
v -0.05904856 -0.01281342 0.00057627
v -0.05806328 -0.00757348 -0.00197851
v -0.05695239 -0.01492253 0.00062095
v -0.05556239 -0.01543703 0.00004008
v -0.05313686 -0.01725058 0.00029241
v -0.04867379 -0.01705353 -0.00361861
v -0.04702421 -0.02989794 0.01261947
v -0.04533276 -0.03393736 0.01695365
v -0.04533276 -0.03453580 0.01786570
v -0.04533276 -0.03589322 0.02002622
v -0.05413890 -0.02883609 0.02002622
v -0.05537259 -0.02783992 0.02002622
v -0.05932768 -0.00234449 0.00033972
v -0.06071210 -0.00297576 0.00095213
v -0.06288921 -0.00288454 0.00295495
v -0.06214955 -0.00362528 0.00164602
v -0.05997244 -0.00371651 -0.00035417
v -0.05846800 -0.00306699 -0.00104806
v -0.05789302 -0.00367272 -0.00203633
v -0.04765222 0.00128989 -0.00051187
v -0.04973723 0.00082647 -0.00051187
v -0.05181944 0.00014411 -0.00058810
v -0.05750225 -0.00023903 0.00231625
v -0.05888947 -0.00050176 0.00275519
v -0.05598665 -0.00225327 -0.00195222
v -0.05707800 -0.00246856 -0.00159739
v -0.05598665 0.00101257 0.02002622
v -0.05390165 0.00113664 0.01615200
v -0.05181944 0.00125705 0.00990173
v -0.04973723 0.00137017 0.00365672
v -0.04765222 0.00138112 0.00157242
v -0.05461339 -0.00265100 -0.00342937
v -0.05391281 -0.00342459 -0.00435192
v -0.05390165 -0.00562492 -0.00496171
v -0.05402725 -0.00779242 -0.00424679
v -0.05524978 -0.00715385 -0.00381574
v -0.05693286 -0.01067876 -0.00149489
v -0.05511022 -0.01318196 -0.00164996
v -0.05823912 -0.01202159 -0.00021224
v -0.05464968 -0.01456858 -0.00134770
v -0.05596153 -0.00779242 -0.00315339
v -0.05325968 -0.01529837 -0.00176298
v -0.04784760 -0.01623251 -0.00437295
v -0.04533276 -0.01657916 -0.00557675
v -0.04533276 -0.01800227 -0.00459111
v -0.04728378 -0.01748046 -0.00399447
v -0.04533276 -0.01907142 -0.00347931
v -0.05393235 -0.01390811 -0.00202056
v -0.04917062 -0.01566327 -0.00388670
v -0.04557001 -0.03136119 0.01350786
v -0.04533276 -0.03235006 0.01468537
v -0.04533276 -0.03354327 0.01636753
v -0.04533276 -0.00153442 0.02002622
v -0.04557001 0.00098338 -0.00051187
v -0.04557001 0.00025723 -0.00216512
v -0.04765222 0.00035211 -0.00224397
v -0.04973723 -0.00002009 -0.00204684
v -0.05112444 -0.00028282 -0.00176824
v -0.05390165 -0.00018065 0.00014522
v -0.05500695 -0.00039229 0.00049216
v -0.05639695 -0.00065866 0.00092847
v -0.05581639 -0.00119871 -0.00032526
v -0.05251164 -0.00054919 -0.00133455
v -0.05391281 -0.00190296 -0.00267765
v -0.05569078 0.00102352 0.02002622
v -0.05181944 0.00120597 0.01198603
v -0.04973723 0.00134828 0.00573839
v -0.05390165 0.00105636 0.01823630
v -0.04765222 0.00122786 0.00365672
v -0.04557001 0.00088121 0.00157242
v -0.05390165 0.00093229 0.02002622
v -0.05322619 -0.00235909 -0.00378683
v -0.05181944 -0.00354136 -0.00484606
v -0.05170500 -0.00565777 -0.00554520
v -0.05093184 -0.00637297 -0.00575547
v -0.05093184 -0.00701884 -0.00575547
v -0.05062761 -0.00840910 -0.00567925
v -0.04882730 -0.01102177 -0.00577913
v -0.05024521 -0.00979206 -0.00546898
v -0.04834164 -0.01240838 -0.00553469
v -0.05181944 -0.00979206 -0.00467259
v -0.05332666 -0.00979206 -0.00388145
v -0.05480319 -0.00854411 -0.00355816
v -0.05055783 -0.01468899 -0.00351873
v -0.05177198 -0.01397744 -0.00314287
v -0.04602776 -0.01603912 -0.00541116
v -0.04646598 -0.01479117 -0.00564245
v -0.04533276 -0.01575085 -0.00586324
v -0.04533276 -0.01801321 -0.00458059
v -0.04533276 -0.03141957 0.01341061
v -0.05292753 -0.01092689 -0.00367118
v -0.04533276 -0.00145779 0.02001571
v -0.04535230 -0.00147603 0.02002622
v -0.04533276 0.00085931 -0.00051187
v -0.04533276 0.00080093 -0.00073791
v -0.04533276 0.00077174 0.00157242
v -0.04533276 0.00019155 -0.00212044
v -0.04533276 0.00008208 -0.00222557
v -0.04533276 -0.00114762 -0.00329269
v -0.04557001 -0.00097612 -0.00320595
v -0.04765222 -0.00094693 -0.00328481
v -0.05181944 -0.00216934 -0.00391299
v -0.04973723 0.00106001 0.00990173
v -0.04765222 0.00100527 0.00573839
v -0.05360857 0.00086661 0.02002622
v -0.05181944 0.00088486 0.01615200
v -0.04973723 -0.00201243 -0.00395504
v -0.04973723 -0.00354136 -0.00490388
v -0.04557001 -0.00581467 -0.00621018
v -0.04973723 -0.00500460 -0.00562668
v -0.04973723 -0.00604456 -0.00589741
v -0.04557001 -0.00770849 -0.00677265
v -0.04765222 -0.00770849 -0.00642571
v -0.04533276 -0.00979206 -0.00679631
v -0.04557001 -0.01187563 -0.00653347
v -0.04920132 -0.00979206 -0.00586324
v -0.04533276 -0.01211281 -0.00656501
v -0.04533276 -0.01436788 -0.00621018
v -0.04695164 -0.01340455 -0.00587375
v -0.04764943 -0.01403948 -0.00529814
v -0.05104907 -0.01329873 -0.00377894
v -0.04533276 -0.01506119 -0.00603934
v -0.05181944 0.00061118 0.01823630
v -0.04533276 -0.00204163 -0.00391824
v -0.04557001 -0.00201973 -0.00393138
v -0.04765222 -0.00199054 -0.00394453
v -0.04557001 -0.00354136 -0.00485920
v -0.04533276 -0.00489513 -0.00567400
v -0.04533276 -0.00581832 -0.00621281
v -0.04533276 -0.00603361 -0.00630480
v -0.04765222 -0.00583292 -0.00610505
v -0.04533276 -0.00770849 -0.00680157
v -0.04533276 -0.00794568 -0.00682522
v -0.04533276 -0.01187563 -0.00658867
v -0.04533276 -0.00368367 -0.00494068
f 1 2 5
f 1 5 3
f 1 3 4
f 1 4 10
f 1 10 22
f 1 22 37
f 1 37 62
f 1 62 96
f 1 96 95
f 1 95 60
f 1 60 59
f 1 59 94
f 1 94 137
f 1 137 177
f 1 177 189
f 1 189 155
f 1 155 149
f 1 149 111
f 1 111 75
f 1 75 44
f 1 44 29
f 1 29 16
f 1 16 14
f 1 14 6
f 1 6 2
f 2 6 7
f 2 7 8
f 2 8 5
f 3 5 11
f 3 11 9
f 3 9 4
f 4 9 10
f 5 8 12
f 5 12 13
f 5 13 11
f 6 14 7
f 7 15 8
f 7 14 16
f 7 16 15
f 8 13 12
f 8 15 13
f 9 11 13
f 9 13 17
f 9 17 18
f 9 18 19
f 9 19 20
f 9 20 10
f 10 20 21
f 10 21 22
f 13 15 23
f 13 23 24
f 13 24 17
f 15 16 25
f 15 25 26
f 15 26 27
f 15 27 28
f 15 28 23
f 16 29 30
f 16 30 27
f 16 27 25
f 17 24 31
f 17 31 32
f 17 32 33
f 17 33 34
f 17 34 35
f 17 35 18
f 18 35 36
f 18 36 19
f 19 36 37
f 19 37 20
f 20 37 21
f 21 37 22
f 23 38 39
f 23 39 40
f 23 40 41
f 23 41 24
f 23 28 38
f 24 41 31
f 25 27 26
f 27 30 42
f 27 42 43
f 27 43 28
f 28 43 38
f 29 44 30
f 30 45 42
f 30 44 46
f 30 46 45
f 31 47 32
f 31 41 48
f 31 48 49
f 31 49 47
f 32 47 49
f 32 49 50
f 32 50 51
f 32 51 52
f 32 52 33
f 33 52 53
f 33 53 34
f 34 53 54
f 34 54 55
f 34 55 56
f 34 56 57
f 34 57 58
f 34 58 59
f 34 59 35
f 35 59 60
f 35 60 61
f 35 61 62
f 35 62 36
f 36 62 37
f 38 43 42
f 38 42 63
f 38 63 39
f 39 63 64
f 39 64 65
f 39 65 40
f 40 65 66
f 40 66 67
f 40 67 41
f 41 67 68
f 41 68 48
f 42 45 69
f 42 69 70
f 42 70 71
f 42 71 72
f 42 72 73
f 42 73 74
f 42 74 63
f 44 75 76
f 44 76 77
f 44 77 69
f 44 69 46
f 45 46 69
f 48 68 78
f 48 78 79
f 48 79 49
f 49 79 80
f 49 80 81
f 49 81 82
f 49 82 50
f 50 82 83
f 50 83 51
f 51 84 85
f 51 85 52
f 51 83 86
f 51 86 84
f 52 85 53
f 53 85 87
f 53 87 54
f 54 87 88
f 54 88 89
f 54 89 90
f 54 90 91
f 54 91 55
f 55 91 56
f 56 91 92
f 56 92 93
f 56 93 57
f 57 93 92
f 57 92 136
f 57 136 135
f 57 135 174
f 57 174 131
f 57 131 173
f 57 173 129
f 57 129 128
f 57 128 172
f 57 172 206
f 57 206 202
f 57 202 201
f 57 201 218
f 57 218 198
f 57 198 217
f 57 217 216
f 57 216 214
f 57 214 213
f 57 213 212
f 57 212 219
f 57 219 208
f 57 208 183
f 57 183 182
f 57 182 181
f 57 181 179
f 57 179 178
f 57 178 180
f 57 180 176
f 57 176 137
f 57 137 94
f 57 94 58
f 58 94 59
f 60 95 61
f 61 95 96
f 61 96 62
f 63 74 64
f 64 97 98
f 64 98 99
f 64 99 65
f 64 74 97
f 65 99 100
f 65 100 66
f 66 100 67
f 67 100 98
f 67 98 101
f 67 101 68
f 68 101 102
f 68 102 103
f 68 103 78
f 69 77 70
f 70 77 76
f 70 76 71
f 71 76 104
f 71 104 105
f 71 105 72
f 72 105 73
f 73 105 106
f 73 106 107
f 73 107 108
f 73 108 109
f 73 109 110
f 73 110 74
f 74 110 97
f 75 111 112
f 75 112 113
f 75 113 114
f 75 114 76
f 76 114 115
f 76 115 104
f 78 103 110
f 78 110 116
f 78 116 117
f 78 117 118
f 78 118 80
f 78 80 79
f 80 118 119
f 80 119 120
f 80 120 81
f 81 120 86
f 81 86 83
f 81 83 82
f 84 86 121
f 84 121 122
f 84 122 123
f 84 123 85
f 85 123 122
f 85 122 124
f 85 124 87
f 86 120 125
f 86 125 122
f 86 122 121
f 87 124 126
f 87 126 88
f 88 126 90
f 88 90 89
f 90 127 128
f 90 128 129
f 90 129 130
f 90 130 131
f 90 131 91
f 90 126 124
f 90 124 132
f 90 132 133
f 90 133 127
f 91 134 135
f 91 135 136
f 91 136 92
f 91 131 134
f 97 110 102
f 97 102 101
f 97 101 98
f 98 100 99
f 102 110 103
f 104 115 138
f 104 138 139
f 104 139 140
f 104 140 105
f 105 140 141
f 105 141 142
f 105 142 106
f 106 142 143
f 106 143 107
f 107 143 108
f 108 143 144
f 108 144 145
f 108 145 146
f 108 146 109
f 109 116 110
f 109 146 147
f 109 147 142
f 109 142 148
f 109 148 116
f 111 149 112
f 112 150 151
f 112 151 113
f 112 149 152
f 112 152 150
f 113 151 114
f 114 151 115
f 115 153 154
f 115 154 138
f 115 151 150
f 115 150 152
f 115 152 155
f 115 155 153
f 116 148 156
f 116 156 117
f 117 157 158
f 117 158 118
f 117 156 157
f 118 158 159
f 118 159 160
f 118 160 161
f 118 161 162
f 118 162 163
f 118 163 119
f 119 163 162
f 119 162 164
f 119 164 165
f 119 165 166
f 119 166 167
f 119 167 120
f 120 167 122
f 120 122 125
f 122 132 124
f 122 167 132
f 127 133 128
f 128 133 168
f 128 168 169
f 128 169 170
f 128 170 171
f 128 171 172
f 129 173 130
f 130 173 131
f 131 174 134
f 132 169 168
f 132 168 133
f 132 167 175
f 132 175 169
f 134 174 135
f 137 176 177
f 138 178 179
f 138 179 139
f 138 154 180
f 138 180 178
f 139 181 182
f 139 182 183
f 139 183 184
f 139 184 140
f 139 179 181
f 140 184 185
f 140 185 186
f 140 186 156
f 140 156 141
f 141 156 142
f 142 147 143
f 142 156 148
f 143 147 146
f 143 146 144
f 144 146 145
f 149 155 152
f 153 155 187
f 153 187 188
f 153 188 154
f 154 188 176
f 154 176 180
f 155 189 190
f 155 190 187
f 156 186 157
f 157 186 191
f 157 191 192
f 157 192 193
f 157 193 194
f 157 194 158
f 158 195 196
f 158 196 159
f 158 194 195
f 159 196 197
f 159 197 160
f 160 197 198
f 160 198 199
f 160 199 161
f 161 200 162
f 161 199 201
f 161 201 200
f 162 200 201
f 162 201 202
f 162 202 203
f 162 203 172
f 162 172 171
f 162 171 164
f 164 171 204
f 164 204 165
f 165 204 166
f 166 204 175
f 166 175 167
f 169 205 170
f 169 175 205
f 170 204 171
f 170 205 175
f 170 175 204
f 172 203 206
f 176 188 190
f 176 190 207
f 176 207 189
f 176 189 177
f 183 208 184
f 184 208 209
f 184 209 185
f 185 209 210
f 185 210 191
f 185 191 186
f 187 190 188
f 189 207 190
f 191 210 192
f 192 211 212
f 192 212 213
f 192 213 193
f 192 210 211
f 193 213 214
f 193 214 215
f 193 215 194
f 194 215 195
f 195 215 196
f 196 216 217
f 196 217 197
f 196 215 216
f 197 217 198
f 198 218 199
f 199 218 201
f 202 206 203
f 208 219 209
f 209 219 211
f 209 211 210
f 211 219 212
f 214 216 215

