# https://github.com/mikedh/trimesh
v -0.02270794 -0.05354220 -0.06654351
v -0.01568572 -0.06770054 -0.06654351
v -0.02270794 -0.05317164 -0.06295987
v -0.02270794 0.05845848 -0.06654351
v -0.01500461 -0.06864237 -0.06654351
v -0.01561080 -0.06760789 -0.06544654
v -0.02270794 -0.05155045 -0.06153628
v -0.01535198 -0.06705207 -0.06405762
v -0.01307708 -0.06672783 -0.06019203
v -0.02270794 0.05858200 -0.06543498
v -0.01309070 0.07219995 -0.06654351
v -0.01393527 -0.06956876 -0.06654351
v -0.01383311 -0.06950700 -0.06509142
v -0.01496375 -0.06822550 -0.06488805
v -0.02270794 -0.04935800 -0.06076439
v -0.01260711 -0.06601760 -0.05886781
v -0.01245727 -0.06601760 -0.05867445
v -0.01349255 -0.06393322 -0.05867445
v -0.01431669 -0.06212676 -0.05867445
v -0.01392846 -0.06811742 -0.06308313
v -0.01351980 -0.06742262 -0.06158096
v -0.01154459 -0.06742262 -0.05867445
v -0.02270794 0.05926135 -0.05884393
v -0.01163313 0.07416081 -0.06654351
v -0.02270794 0.05927679 -0.05867445
v -0.01134707 -0.07131346 -0.06592031
v -0.01134707 -0.07131346 -0.06654351
v -0.01342444 -0.06925996 -0.06382805
v -0.02270794 -0.04092783 -0.05867445
v -0.01526344 -0.05977990 -0.05867445
v -0.01082261 -0.06895117 -0.06028601
v -0.01013469 -0.06850341 -0.05885625
v -0.01013469 -0.06836445 -0.05867445
v -0.01095883 0.07504088 -0.06654351
v -0.01758601 0.06429474 -0.05867445
v -0.00937866 0.07700174 -0.06654351
v -0.01077493 -0.07102011 -0.06453137
v -0.00330999 -0.07563662 -0.06654351
v -0.00730128 -0.07347505 -0.06580937
v -0.01145604 -0.06929085 -0.06167494
v -0.01013469 -0.06964596 -0.06095852
v -0.00943315 -0.06930628 -0.05955881
v -0.00806413 -0.06959964 -0.05933849
v -0.00806413 -0.06905925 -0.05867445
v -0.01635320 0.06537553 -0.05867445
v -0.00922201 0.07680102 -0.06600658
v -0.00868393 0.07765022 -0.06654351
v -0.00181156 -0.07583734 -0.06654351
v -0.00322826 -0.07559031 -0.06587178
v -0.00598675 -0.07383016 -0.06510528
v -0.00736259 -0.07140610 -0.06166108
v -0.00597994 -0.07165314 -0.06148158
v -0.00597994 -0.06898205 -0.05867445
v -0.00389575 -0.07369120 -0.06362545
v -0.00597994 -0.07074219 -0.06044008
v -0.00597994 -0.06970772 -0.05936083
v -0.01589686 0.06569977 -0.05867445
v -0.00634092 0.07959563 -0.06654351
v -0.00118494 -0.07572927 -0.06654351
v -0.00061962 -0.07552854 -0.06597269
v -0.00181156 -0.07563662 -0.06581708
v -0.00181156 -0.07369120 -0.06370711
v 0.00235682 -0.06797846 -0.05902804
v 0.00070854 -0.06787038 -0.05867445
v -0.00389575 -0.07274938 -0.06258549
v -0.00181156 -0.07472567 -0.06477557
v -0.01467768 0.06653352 -0.05867445
v -0.00353476 0.08144841 -0.06654351
v -0.00051745 -0.07559031 -0.06654351
v -0.00002024 -0.07517343 -0.06654351
v 0.00122618 -0.07327432 -0.06414389
v 0.00138284 -0.07126714 -0.06194610
v -0.00017009 -0.07349048 -0.06387427
v 0.00320821 -0.06745350 -0.05867445
v -0.00157317 0.07331162 -0.05867445
v -0.00113045 0.07479385 -0.05968823
v -0.00314653 0.08101610 -0.06597423
v -0.00225428 0.08178809 -0.06654351
v 0.00096736 -0.07427792 -0.06654351
v 0.00615740 -0.06773142 -0.06092694
v 0.00789423 -0.06532280 -0.05867445
v 0.00583047 -0.06739175 -0.05950642
v 0.00443420 -0.06773142 -0.05921292
v 0.00443420 -0.06719102 -0.05867445
v 0.00026582 0.07372849 -0.05867445
v -0.00134159 0.07697086 -0.06166647
v -0.00181156 0.08189617 -0.06654351
v 0.00447507 -0.07088115 -0.06654351
v 0.00719950 -0.06672783 -0.06092694
v 0.00792828 -0.06535368 -0.05884393
v 0.00907254 -0.06407218 -0.05867445
v 0.00667504 -0.06621831 -0.05867445
v 0.00029307 0.07372849 -0.05867445
v -0.00012922 0.07697086 -0.06166647
v -0.00024501 0.07903980 -0.06373715
v -0.00037442 0.08106242 -0.06587485
v 0.00001381 0.08152562 -0.06654351
v 0.00721993 -0.06819461 -0.06654351
v 0.00824159 -0.06566248 -0.06092694
v 0.00969235 -0.06504488 -0.06385501
v 0.00950164 -0.06482873 -0.06246763
v 0.00928369 -0.06458169 -0.06092694
v 0.00897038 -0.06424201 -0.05884393
v 0.01173567 -0.06289874 -0.06401139
v 0.00987625 -0.06317666 -0.05867445
v 0.00207757 0.07328074 -0.05867445
v 0.00495865 0.08047570 -0.06654351
v 0.01005334 -0.06538456 -0.06654351
v 0.01077531 -0.06465889 -0.06654351
v 0.01211028 -0.06331562 -0.06654351
v 0.01283226 -0.06251275 -0.06654351
v 0.01469168 -0.06044381 -0.06654351
v 0.01558393 -0.05944022 -0.06654351
v 0.01595173 -0.05880719 -0.06590105
v 0.01766131 -0.05440683 -0.05867445
v 0.00222060 0.07323442 -0.05867445
v 0.01080256 0.06988397 -0.05867445
v 0.01285950 0.06906566 -0.05867445
v 0.01390160 0.06849438 -0.05867445
v 0.01488239 0.06786135 -0.05867445
v 0.01647618 0.06676512 -0.05867445
v 0.00628000 0.07947212 -0.06654351
v 0.01767493 -0.05707792 -0.06654351
v 0.01779753 -0.05644489 -0.06509142
v 0.01973869 -0.05212173 -0.05884393
v 0.01971145 -0.05209085 -0.05867445
v 0.03864624 0.04945704 -0.05867445
v 0.03891187 0.04970408 -0.06654351
v 0.03880971 0.04958057 -0.06187446
v 0.03885057 0.04962688 -0.06300841
v 0.03891187 0.04968864 -0.06509142
v 0.01832880 -0.05624417 -0.06654351
v 0.01795419 -0.05663017 -0.06616835
v 0.01994983 -0.05236877 -0.06029372
v 0.02057645 -0.05105638 -0.05867445
v 0.03968833 0.04831450 -0.05867445
v 0.04064189 0.04700211 -0.05867445
v 0.04064189 0.04700211 -0.05884393
v 0.03911620 0.04934897 -0.06654351
v 0.02008606 -0.05397451 -0.06654351
v 0.02048791 -0.05306356 -0.06509142
v 0.02187737 -0.05008367 -0.06092694
v 0.02245631 -0.04874040 -0.05884393
v 0.02170709 -0.04963592 -0.05867445
v 0.02059689 -0.05108726 -0.05884393
v 0.04111185 0.04606028 -0.05867445
v 0.04060102 0.04690947 -0.06092694
v 0.03954531 0.04853065 -0.06654351
v 0.02060370 -0.05324884 -0.06654351
v 0.02232690 -0.05067039 -0.06509142
v 0.02627732 -0.04410845 -0.05999867
v 0.02362782 -0.04718098 -0.05868832
v 0.02604575 -0.04403125 -0.05867445
v 0.04269883 0.04277159 -0.05884393
v 0.04192918 0.04436190 -0.05884393
v 0.04316198 0.04164448 -0.06092694
v 0.04307344 0.04145920 -0.06509142
v 0.04101650 0.04568972 -0.06509142
v 0.04051248 0.04672419 -0.06509142
v 0.04192918 0.04436190 -0.05867445
v 0.03982456 0.04797482 -0.06654351
v 0.02189099 -0.05142694 -0.06654351
v 0.02322596 -0.04935800 -0.06509142
v 0.02817080 -0.04174615 -0.06092694
v 0.02642036 -0.04430917 -0.06138760
v 0.02879061 -0.04051096 -0.05884393
v 0.02877699 -0.04048008 -0.05867445
v 0.04318923 0.04172168 -0.05884393
v 0.04516444 0.03732133 -0.06300841
v 0.04466723 0.03835579 -0.06300841
v 0.04270564 0.04272527 -0.05867445
v 0.04315517 0.04176800 -0.05867445
v 0.04368643 0.04019314 -0.06509142
v 0.04302576 0.04135112 -0.06640870
v 0.04293041 0.04150552 -0.06654351
v 0.02234052 -0.05070126 -0.06654351
v 0.02407053 -0.04807649 -0.06509142
v 0.02881785 -0.04071168 -0.06092694
v 0.02977822 -0.03893610 -0.05884393
v 0.02975097 -0.03893610 -0.05867445
v 0.04318242 0.04170624 -0.05867445
v 0.04513038 0.03725957 -0.06165029
v 0.04561397 0.03603982 -0.06300841
v 0.04564803 0.03603982 -0.06509142
v 0.04510995 0.03721324 -0.06509142
v 0.04461955 0.03824772 -0.06509142
v 0.04506908 0.03712061 -0.06619839
v 0.04481708 0.03746028 -0.06654351
v 0.02314423 -0.04935800 -0.06654351
v 0.02471078 -0.04704202 -0.06509142
v 0.02637268 -0.04430917 -0.06433032
v 0.04309387 -0.01236412 -0.06654351
v 0.03043208 -0.03746931 -0.05867445
v 0.04371368 0.04020857 -0.05867445
v 0.04374773 0.04019314 -0.05884393
v 0.04427900 0.03810876 -0.05884393
v 0.04523936 0.03591629 -0.06094388
v 0.04613161 0.03394000 -0.06300841
v 0.04634957 0.03394000 -0.06509142
v 0.04610437 0.03394000 -0.06654351
v 0.04540964 0.03600894 -0.06654351
v 0.04517806 0.03664197 -0.06654351
v 0.02417270 -0.04752066 -0.06654351
v 0.04325734 -0.01162300 -0.06654351
v 0.04491243 0.01312708 -0.05867445
v 0.04286230 -0.01265747 -0.06622767
v 0.04252855 0.00390949 -0.05867445
v 0.04423133 0.03810876 -0.05867445
v 0.04463318 0.03593174 -0.05867445
v 0.04472172 0.03591629 -0.05899337
v 0.04494649 0.03653389 -0.06026136
v 0.04559354 0.03394000 -0.06092694
v 0.04534834 0.03194826 -0.05871451
v 0.04588642 0.03187106 -0.06092694
v 0.04632232 0.03187106 -0.06300841
v 0.04662201 0.03187106 -0.06509142
v 0.04647898 0.03187106 -0.06654351
v 0.04622016 0.00273606 -0.06654351
v 0.04602944 0.00478956 -0.06509142
v 0.04525980 0.01312708 -0.05940320
v 0.04512357 0.01178381 -0.05973136
v 0.04464680 0.01204629 -0.05867445
v 0.04532791 0.01527322 -0.05867445
v 0.04440160 0.01107358 -0.05867445
v 0.04335269 0.00702834 -0.05867445
v 0.04276694 0.00478956 -0.05867445
v 0.04481027 0.03494359 -0.05867445
v 0.04509633 0.03333784 -0.05867445
v 0.04532791 0.03199457 -0.05867445
v 0.04534153 0.03190194 -0.05867445
v 0.04555948 0.02977124 -0.05867445
v 0.04556629 0.02961684 -0.05867445
v 0.04598177 0.02977124 -0.06092694
v 0.04633595 0.02977124 -0.06300841
v 0.04667650 0.02977124 -0.06509142
v 0.04680591 0.02561792 -0.06654351
v 0.04675142 0.02770230 -0.06654351
v 0.04666288 0.02977124 -0.06654351
v 0.04654028 0.00478956 -0.06654351
v 0.04636319 0.00687394 -0.06509142
v 0.04592728 0.00895832 -0.06300841
v 0.04546413 0.01728040 -0.05867445
v 0.04613161 0.01104270 -0.06300841
v 0.04557992 0.02770230 -0.05867445
v 0.04557992 0.02753246 -0.05867445
v 0.04632232 0.02770230 -0.06300841
v 0.04667650 0.02770230 -0.06509142
v 0.04687402 0.02144916 -0.06654351
v 0.04686040 0.02344090 -0.06654351
v 0.04670374 0.00687394 -0.06654351
v 0.04650622 0.00895832 -0.06509142
v 0.04550499 0.01728040 -0.05884393
v 0.04550499 0.01936478 -0.05867445
v 0.04552543 0.02144916 -0.05867445
v 0.04553905 0.01936478 -0.05884393
v 0.04683996 0.01740392 -0.06654351
v 0.04676504 0.00895832 -0.06654351
v 0.04585917 0.01521146 -0.06092694
v 0.04678548 0.01104270 -0.06654351
f 1 2 3
f 1 3 7
f 1 7 15
f 1 15 29
f 1 29 25
f 1 25 23
f 1 23 10
f 1 10 4
f 1 4 11
f 1 11 24
f 1 24 34
f 1 34 36
f 1 36 47
f 1 47 58
f 1 58 68
f 1 68 78
f 1 78 87
f 1 87 97
f 1 97 107
f 1 107 122
f 1 122 128
f 1 128 139
f 1 139 148
f 1 148 161
f 1 161 175
f 1 175 188
f 1 188 202
f 1 202 201
f 1 201 200
f 1 200 217
f 1 217 238
f 1 238 237
f 1 237 236
f 1 236 249
f 1 249 248
f 1 248 256
f 1 256 259
f 1 259 257
f 1 257 250
f 1 250 239
f 1 239 218
f 1 218 204
f 1 204 192
f 1 192 203
f 1 203 189
f 1 189 176
f 1 176 162
f 1 162 149
f 1 149 140
f 1 140 132
f 1 132 123
f 1 123 113
f 1 113 112
f 1 112 111
f 1 111 110
f 1 110 109
f 1 109 108
f 1 108 98
f 1 98 88
f 1 88 79
f 1 79 70
f 1 70 69
f 1 69 59
f 1 59 48
f 1 48 38
f 1 38 27
f 1 27 12
f 1 12 5
f 1 5 2
f 2 5 6
f 2 6 3
f 3 6 8
f 3 8 9
f 3 9 7
f 4 10 11
f 5 12 13
f 5 13 14
f 5 14 6
f 6 14 8
f 7 9 16
f 7 16 17
f 7 17 18
f 7 18 19
f 7 19 15
f 8 14 20
f 8 20 21
f 8 21 9
f 9 21 22
f 9 22 16
f 10 23 11
f 11 23 25
f 11 25 24
f 12 26 13
f 12 27 26
f 13 26 28
f 13 28 14
f 14 28 20
f 15 19 30
f 15 30 29
f 16 22 17
f 17 22 33
f 17 33 44
f 17 44 53
f 17 53 64
f 17 64 74
f 17 74 84
f 17 84 92
f 17 92 81
f 17 81 91
f 17 91 105
f 17 105 115
f 17 115 126
f 17 126 135
f 17 135 144
f 17 144 153
f 17 153 167
f 17 167 180
f 17 180 193
f 17 193 207
f 17 207 226
f 17 226 225
f 17 225 224
f 17 224 222
f 17 222 205
f 17 205 223
f 17 223 242
f 17 242 253
f 17 253 254
f 17 254 245
f 17 245 244
f 17 244 232
f 17 232 231
f 17 231 230
f 17 230 229
f 17 229 228
f 17 228 227
f 17 227 209
f 17 209 208
f 17 208 194
f 17 194 181
f 17 181 172
f 17 172 171
f 17 171 160
f 17 160 146
f 17 146 137
f 17 137 136
f 17 136 127
f 17 127 121
f 17 121 120
f 17 120 119
f 17 119 118
f 17 118 117
f 17 117 116
f 17 116 106
f 17 106 93
f 17 93 85
f 17 85 75
f 17 75 67
f 17 67 57
f 17 57 45
f 17 45 35
f 17 35 25
f 17 25 29
f 17 29 30
f 17 30 19
f 17 19 18
f 20 22 21
f 20 28 22
f 22 28 31
f 22 31 32
f 22 32 33
f 24 25 34
f 25 35 36
f 25 36 34
f 26 37 28
f 26 27 38
f 26 38 39
f 26 39 37
f 28 37 40
f 28 40 31
f 31 40 41
f 31 41 42
f 31 42 32
f 32 42 33
f 33 42 43
f 33 43 44
f 35 45 46
f 35 46 47
f 35 47 36
f 37 39 40
f 38 48 49
f 38 49 39
f 39 49 50
f 39 50 41
f 39 41 40
f 41 50 42
f 42 50 51
f 42 51 43
f 43 51 49
f 43 49 52
f 43 52 44
f 44 52 54
f 44 54 55
f 44 55 56
f 44 56 53
f 45 57 58
f 45 58 46
f 46 58 47
f 48 59 60
f 48 60 61
f 48 61 49
f 49 61 54
f 49 54 52
f 49 51 50
f 53 56 62
f 53 62 63
f 53 63 64
f 54 65 55
f 54 61 66
f 54 66 65
f 55 65 56
f 56 65 62
f 57 67 58
f 58 67 68
f 59 69 60
f 60 66 61
f 60 69 70
f 60 70 71
f 60 71 72
f 60 72 73
f 60 73 66
f 62 65 66
f 62 66 73
f 62 73 72
f 62 72 63
f 63 74 64
f 63 72 74
f 67 75 76
f 67 76 77
f 67 77 68
f 68 77 78
f 70 79 71
f 71 79 80
f 71 80 81
f 71 81 82
f 71 82 83
f 71 83 72
f 72 83 84
f 72 84 74
f 75 85 76
f 76 86 77
f 76 85 86
f 77 86 87
f 77 87 78
f 79 88 89
f 79 89 80
f 80 89 90
f 80 90 81
f 81 90 91
f 81 92 82
f 82 92 83
f 83 92 84
f 85 93 94
f 85 94 86
f 86 94 87
f 87 94 95
f 87 95 96
f 87 96 97
f 88 98 89
f 89 99 90
f 89 98 100
f 89 100 99
f 90 101 102
f 90 102 103
f 90 103 91
f 90 99 101
f 91 103 104
f 91 104 105
f 93 106 94
f 94 106 107
f 94 107 95
f 95 107 96
f 96 107 97
f 98 108 100
f 99 100 101
f 100 108 109
f 100 109 110
f 100 110 101
f 101 110 102
f 102 110 104
f 102 104 103
f 104 111 112
f 104 112 105
f 104 110 111
f 105 112 113
f 105 113 114
f 105 114 115
f 106 116 107
f 107 116 117
f 107 117 118
f 107 118 119
f 107 119 120
f 107 120 121
f 107 121 122
f 113 123 114
f 114 123 124
f 114 124 125
f 114 125 115
f 115 125 126
f 121 127 122
f 122 127 129
f 122 129 130
f 122 130 131
f 122 131 128
f 123 132 133
f 123 133 134
f 123 134 125
f 123 125 124
f 125 134 135
f 125 135 126
f 127 136 129
f 128 131 137
f 128 137 138
f 128 138 139
f 129 136 130
f 130 136 131
f 131 136 137
f 132 140 133
f 133 140 141
f 133 141 142
f 133 142 143
f 133 143 134
f 134 144 145
f 134 145 135
f 134 143 144
f 135 145 144
f 137 146 138
f 138 146 147
f 138 147 148
f 138 148 139
f 140 149 150
f 140 150 141
f 141 150 151
f 141 151 152
f 141 152 142
f 142 152 143
f 143 152 144
f 144 152 153
f 146 154 155
f 146 155 156
f 146 156 157
f 146 157 158
f 146 158 159
f 146 159 147
f 146 160 154
f 147 159 161
f 147 161 148
f 149 162 150
f 150 162 163
f 150 163 164
f 150 164 165
f 150 165 151
f 151 165 166
f 151 166 152
f 152 166 167
f 152 167 153
f 154 168 169
f 154 169 170
f 154 170 156
f 154 156 155
f 154 160 171
f 154 171 172
f 154 172 168
f 156 170 157
f 157 161 158
f 157 170 173
f 157 173 161
f 158 161 159
f 161 173 174
f 161 174 175
f 162 176 177
f 162 177 164
f 162 164 163
f 164 177 178
f 164 178 179
f 164 179 166
f 164 166 165
f 166 179 180
f 166 180 167
f 168 172 181
f 168 181 182
f 168 182 169
f 169 182 183
f 169 183 184
f 169 184 185
f 169 185 186
f 169 186 173
f 169 173 170
f 173 186 174
f 174 186 187
f 174 187 175
f 175 187 188
f 176 189 190
f 176 190 177
f 177 190 178
f 178 190 191
f 178 191 192
f 178 192 179
f 179 193 180
f 179 192 193
f 181 194 195
f 181 195 182
f 182 195 194
f 182 194 196
f 182 196 197
f 182 197 198
f 182 198 183
f 183 199 184
f 183 198 199
f 184 199 200
f 184 200 201
f 184 201 187
f 184 187 185
f 185 187 186
f 187 201 202
f 187 202 188
f 189 203 190
f 190 203 191
f 191 203 192
f 192 204 205
f 192 205 206
f 192 206 193
f 193 206 207
f 194 208 196
f 196 208 209
f 196 209 210
f 196 210 211
f 196 211 197
f 197 211 212
f 197 212 198
f 198 212 213
f 198 213 214
f 198 214 215
f 198 215 216
f 198 216 199
f 199 216 217
f 199 217 200
f 204 218 219
f 204 219 220
f 204 220 221
f 204 221 205
f 205 222 206
f 205 221 220
f 205 220 223
f 206 222 224
f 206 224 225
f 206 225 226
f 206 226 207
f 209 227 210
f 210 227 212
f 210 212 211
f 212 228 213
f 212 227 228
f 213 228 229
f 213 229 230
f 213 230 231
f 213 231 214
f 214 231 215
f 215 231 232
f 215 232 233
f 215 233 234
f 215 234 235
f 215 235 216
f 216 235 236
f 216 236 237
f 216 237 238
f 216 238 217
f 218 239 240
f 218 240 219
f 219 240 241
f 219 241 220
f 220 241 223
f 223 241 240
f 223 240 243
f 223 243 242
f 232 244 233
f 233 244 245
f 233 245 246
f 233 246 234
f 234 246 247
f 234 247 235
f 235 247 248
f 235 248 249
f 235 249 236
f 239 250 240
f 240 250 251
f 240 251 243
f 242 252 253
f 242 243 252
f 243 251 252
f 245 254 255
f 245 255 256
f 245 256 246
f 246 256 248
f 246 248 247
f 250 257 251
f 251 257 258
f 251 258 252
f 252 258 255
f 252 255 253
f 253 255 254
f 255 258 259
f 255 259 256
f 257 259 258

