# https://github.com/mikedh/trimesh
v 0.03288953 -0.03139481 -0.05143450
v 0.03288024 -0.03139481 -0.05050957
v 0.03269443 -0.03195038 -0.05143450
v -0.01412964 -0.03139481 -0.05143450
v 0.03268514 -0.03139481 -0.04915616
v 0.03265262 -0.03184219 -0.05050957
v 0.03246681 -0.03241239 -0.05143450
v -0.01432939 -0.03278374 -0.05143450
v -0.00995821 -0.03139481 -0.03822546
v 0.03251327 -0.03139481 -0.04807757
v 0.03068769 -0.03413466 -0.04634296
v 0.03085492 -0.03443291 -0.04842627
v 0.03109647 -0.03486275 -0.05143450
v -0.01445946 -0.03372529 -0.05143450
v -0.00932182 -0.03139481 -0.03634014
v -0.01454772 -0.03478965 -0.05143450
v 0.03102214 -0.03139481 -0.03883420
v 0.03077130 -0.03220185 -0.04009452
v 0.03056226 -0.03580722 -0.05143450
v 0.03044613 -0.03370775 -0.04335689
v -0.01456630 -0.03590371 -0.05143450
v -0.01446410 -0.03683649 -0.05143450
v -0.01427365 -0.03782482 -0.05143450
v -0.01156547 -0.04936901 -0.05143450
v -0.01151437 -0.04957077 -0.05143450
v -0.01130534 -0.05026377 -0.05143450
v -0.01120778 -0.05053864 -0.05143450
v -0.00706887 -0.03803828 -0.03685284
v -0.00692487 -0.03758505 -0.03634014
v 0.03060872 -0.03139481 -0.03634014
v 0.03064588 -0.03139481 -0.03650858
v 0.03050188 -0.03172231 -0.03675828
v 0.03060407 -0.03190067 -0.03801122
v 0.03050188 -0.03588617 -0.05134289
v 0.03050652 -0.03590079 -0.05143450
v 0.03025568 -0.03547388 -0.04842627
v 0.03038575 -0.03569026 -0.04995402
v 0.03016277 -0.03324281 -0.04009452
v -0.01072003 -0.05174919 -0.05143450
v -0.00996751 -0.05353580 -0.05143450
v -0.00973060 -0.05407382 -0.05143450
v -0.00932182 -0.05499782 -0.05143450
v -0.00874116 -0.05616453 -0.05143450
v -0.00842528 -0.05678735 -0.05143450
v -0.00767740 -0.05824646 -0.05143450
v -0.00722681 -0.05912075 -0.05143450
v -0.00653467 -0.06026406 -0.05143450
v -0.00610731 -0.03863478 -0.03634014
v 0.03013026 -0.03217554 -0.03634014
v 0.02995838 -0.03294456 -0.03801122
v 0.03046007 -0.03597681 -0.05143450
v 0.03006058 -0.03517563 -0.04634296
v 0.02988406 -0.03687158 -0.05143450
v -0.00548020 -0.06117344 -0.05143450
v -0.00591221 -0.03887748 -0.03634014
v 0.02985619 -0.03259953 -0.03634014
v 0.02891785 -0.03445045 -0.03801122
v 0.02902004 -0.03667567 -0.04634296
v 0.02878778 -0.03844180 -0.05143450
v -0.00390081 -0.06126409 -0.05143450
v -0.00539194 -0.06107110 -0.05132073
v -0.00584253 -0.03892427 -0.03634014
v 0.02874133 -0.03420191 -0.03634014
v 0.02843939 -0.03590079 -0.04089091
v 0.02880636 -0.03638033 -0.04425965
v 0.02869023 -0.03831022 -0.05050957
v 0.02843474 -0.03890380 -0.05143450
v -0.00181974 -0.06093952 -0.05143450
v -0.00390081 -0.06110911 -0.05127936
v -0.00248401 -0.05661191 -0.04740234
v -0.00449076 -0.03977224 -0.03634014
v -0.00568459 -0.03902953 -0.03634014
v 0.00026597 -0.05447442 -0.04538700
v 0.02857875 -0.03440952 -0.03634014
v 0.02673458 -0.03846227 -0.04217783
v 0.02828610 -0.03570196 -0.03950204
v 0.02429583 -0.04426360 -0.05143450
v 0.02788660 -0.03935118 -0.05050957
v 0.00060972 -0.06055062 -0.05143450
v -0.00181974 -0.05989855 -0.05039432
v -0.00181974 -0.05885466 -0.04935563
v -0.00067237 -0.05667624 -0.04736688
v 0.00651383 -0.04383376 -0.03634014
v 0.00651383 -0.04671396 -0.03860518
v 0.00443276 -0.04895379 -0.04057471
v 0.02785409 -0.03524287 -0.03634014
v 0.02632116 -0.03793886 -0.03898195
v 0.02647445 -0.03812600 -0.04009452
v 0.02392885 -0.04382206 -0.04842627
v 0.02411931 -0.04404430 -0.04989049
v 0.02419828 -0.04438641 -0.05143450
v 0.00443276 -0.05993656 -0.05143450
v 0.00443276 -0.05835465 -0.04985650
v 0.00443276 -0.05418202 -0.04569580
v 0.00234704 -0.05330772 -0.04449015
v 0.00651383 -0.04775493 -0.03962319
v 0.00651383 -0.04539813 -0.03756353
v 0.00734997 -0.04394780 -0.03634014
v 0.00859954 -0.04440980 -0.03672577
v 0.00859954 -0.04401213 -0.03634014
v 0.02658129 -0.03665520 -0.03634014
v 0.02607031 -0.03769908 -0.03759308
v 0.02452344 -0.04034244 -0.04009452
v 0.02433299 -0.04221091 -0.04492011
v 0.02212185 -0.04692157 -0.05143450
v 0.02241450 -0.04657653 -0.05143450
v 0.00564517 -0.05972895 -0.05143450
v 0.00651383 -0.05714116 -0.04898772
v 0.00651383 -0.05505923 -0.04690441
v 0.00651383 -0.05922017 -0.05107398
v 0.00859954 -0.04545077 -0.03777186
v 0.00983518 -0.04423729 -0.03689569
v 0.01028577 -0.04355013 -0.03634014
v 0.00961221 -0.04373727 -0.03634014
v 0.02489042 -0.03798857 -0.03634014
v 0.02468138 -0.03831899 -0.03655734
v 0.02010582 -0.04630752 -0.04314413
v 0.02431441 -0.04010851 -0.03886966
v 0.02148546 -0.04512620 -0.04408826
v 0.02165733 -0.04570809 -0.04634296
v 0.02029627 -0.04651805 -0.04425965
v 0.01790862 -0.05034272 -0.04758112
v 0.02005472 -0.04925498 -0.05143450
v 0.02213114 -0.04624612 -0.04947087
v 0.02092803 -0.04826956 -0.05143450
v 0.00651383 -0.05957690 -0.05143450
v 0.00859954 -0.05686630 -0.04926107
v 0.00859954 -0.05479314 -0.04716889
v 0.00859954 -0.05375803 -0.04612724
v 0.01078281 -0.04337176 -0.03634014
v 0.00859954 -0.05790726 -0.05031453
v 0.00859954 -0.05893653 -0.05135619
v 0.02385917 -0.03853244 -0.03634014
v 0.02200108 -0.04203254 -0.03912675
v 0.01576251 -0.05244805 -0.04749543
v 0.01389512 -0.05609727 -0.05143450
v 0.01599942 -0.05381066 -0.05143450
v 0.00838586 -0.05906812 -0.05143450
v 0.02202895 -0.03995939 -0.03700798
v 0.02293477 -0.03897397 -0.03634014
v 0.00860883 -0.05900671 -0.05143450
v 0.00973298 -0.05860319 -0.05143450
v 0.01276168 -0.05507385 -0.04896113
v 0.02317632 -0.03886286 -0.03634014
v 0.01582290 -0.05038659 -0.04532347
v 0.01403448 -0.05478144 -0.04925663
v 0.01287317 -0.05686630 -0.05143450
v 0.01077352 -0.05814704 -0.05143450
v 0.01177689 -0.05766457 -0.05143450
v 0.01227858 -0.05710899 -0.05109615
v 0.01239006 -0.05722596 -0.05143450
f 1 2 3
f 1 3 7
f 1 7 13
f 1 13 19
f 1 19 35
f 1 35 51
f 1 51 53
f 1 53 59
f 1 59 67
f 1 67 77
f 1 77 91
f 1 91 106
f 1 106 105
f 1 105 125
f 1 125 123
f 1 123 137
f 1 137 136
f 1 136 147
f 1 147 151
f 1 151 149
f 1 149 148
f 1 148 142
f 1 142 141
f 1 141 138
f 1 138 126
f 1 126 107
f 1 107 92
f 1 92 79
f 1 79 68
f 1 68 60
f 1 60 54
f 1 54 47
f 1 47 46
f 1 46 45
f 1 45 44
f 1 44 43
f 1 43 42
f 1 42 41
f 1 41 40
f 1 40 39
f 1 39 27
f 1 27 26
f 1 26 25
f 1 25 24
f 1 24 23
f 1 23 22
f 1 22 21
f 1 21 16
f 1 16 14
f 1 14 8
f 1 8 4
f 1 4 9
f 1 9 15
f 1 15 30
f 1 30 31
f 1 31 17
f 1 17 10
f 1 10 5
f 1 5 2
f 2 5 6
f 2 6 7
f 2 7 3
f 4 8 9
f 5 10 6
f 6 10 11
f 6 11 12
f 6 12 13
f 6 13 7
f 8 14 9
f 9 14 16
f 9 16 15
f 10 17 18
f 10 18 11
f 11 19 12
f 11 18 20
f 11 20 19
f 12 19 13
f 15 16 21
f 15 21 22
f 15 22 23
f 15 23 24
f 15 24 25
f 15 25 26
f 15 26 27
f 15 27 28
f 15 28 29
f 15 29 48
f 15 48 55
f 15 55 62
f 15 62 72
f 15 72 71
f 15 71 83
f 15 83 98
f 15 98 100
f 15 100 114
f 15 114 113
f 15 113 130
f 15 130 140
f 15 140 144
f 15 144 133
f 15 133 115
f 15 115 101
f 15 101 86
f 15 86 74
f 15 74 63
f 15 63 56
f 15 56 49
f 15 49 30
f 17 31 32
f 17 32 33
f 17 33 18
f 18 33 20
f 19 20 34
f 19 34 35
f 20 36 37
f 20 37 34
f 20 33 32
f 20 32 38
f 20 38 36
f 27 39 28
f 28 39 40
f 28 40 41
f 28 41 42
f 28 42 29
f 29 42 43
f 29 43 44
f 29 44 45
f 29 45 46
f 29 46 47
f 29 47 48
f 30 49 32
f 30 32 31
f 32 49 50
f 32 50 38
f 34 37 51
f 34 51 35
f 36 38 52
f 36 52 53
f 36 53 37
f 37 53 51
f 38 50 52
f 47 54 55
f 47 55 48
f 49 56 50
f 50 56 57
f 50 57 52
f 52 57 58
f 52 58 53
f 53 58 59
f 54 60 61
f 54 61 55
f 55 61 62
f 56 63 57
f 57 63 64
f 57 64 65
f 57 65 58
f 58 65 59
f 59 65 66
f 59 66 67
f 60 68 69
f 60 69 61
f 61 70 71
f 61 71 72
f 61 72 62
f 61 69 73
f 61 73 70
f 63 74 75
f 63 75 76
f 63 76 64
f 64 76 77
f 64 77 78
f 64 78 66
f 64 66 65
f 66 78 67
f 67 78 77
f 68 79 80
f 68 80 69
f 69 80 81
f 69 81 82
f 69 82 73
f 70 73 83
f 70 83 71
f 73 82 84
f 73 84 85
f 73 85 83
f 74 86 87
f 74 87 88
f 74 88 89
f 74 89 90
f 74 90 75
f 75 90 76
f 76 90 77
f 77 90 91
f 79 92 80
f 80 92 93
f 80 93 94
f 80 94 95
f 80 95 82
f 80 82 81
f 82 95 96
f 82 96 84
f 83 85 97
f 83 97 98
f 84 96 99
f 84 99 100
f 84 100 98
f 84 98 97
f 84 97 85
f 86 101 102
f 86 102 87
f 87 102 103
f 87 103 104
f 87 104 88
f 88 104 89
f 89 104 105
f 89 105 106
f 89 106 90
f 90 106 91
f 92 107 108
f 92 108 109
f 92 109 93
f 93 109 94
f 94 109 96
f 94 96 95
f 96 109 99
f 99 109 108
f 99 108 110
f 99 110 111
f 99 111 112
f 99 112 113
f 99 113 114
f 99 114 100
f 101 115 116
f 101 116 117
f 101 117 118
f 101 118 102
f 102 118 103
f 103 119 120
f 103 120 104
f 103 118 117
f 103 117 121
f 103 121 122
f 103 122 119
f 104 120 123
f 104 123 124
f 104 124 105
f 105 124 125
f 107 126 110
f 107 110 108
f 110 126 127
f 110 127 128
f 110 128 129
f 110 129 111
f 111 129 112
f 112 129 128
f 112 128 113
f 113 128 127
f 113 127 131
f 113 131 132
f 113 132 130
f 115 133 116
f 116 133 134
f 116 134 117
f 117 135 136
f 117 136 122
f 117 122 121
f 117 134 135
f 119 122 120
f 120 122 137
f 120 137 123
f 122 136 137
f 123 125 124
f 126 138 132
f 126 132 131
f 126 131 127
f 130 132 139
f 130 139 140
f 132 138 141
f 132 141 142
f 132 142 143
f 132 143 139
f 133 144 134
f 134 144 140
f 134 140 145
f 134 145 143
f 134 143 135
f 135 143 146
f 135 146 136
f 136 146 147
f 139 143 140
f 140 143 145
f 142 148 146
f 142 146 143
f 146 148 149
f 146 149 150
f 146 150 151
f 146 151 147
f 149 151 150

