# https://github.com/mikedh/trimesh
v 0.04570751 -0.02468466 -0.09008839
v 0.04562496 -0.02468466 -0.08765896
v 0.04505974 -0.02753401 -0.08881981
v 0.04532965 -0.02645588 -0.09008839
v 0.04508039 -0.02761102 -0.09117651
v 0.04539633 -0.02468466 -0.09177983
v 0.04555192 -0.02468466 -0.08554197
v 0.04523122 -0.02625714 -0.08592442
v 0.04477714 -0.02835254 -0.08807644
v 0.04475968 -0.02865189 -0.09008839
v 0.04507880 -0.02760978 -0.09008839
v 0.04519470 -0.02608822 -0.08383976
v 0.04500894 -0.02729926 -0.08592442
v 0.04371817 -0.03042435 -0.09008839
v 0.04344032 -0.03012003 -0.09151319
v 0.04408492 -0.02839850 -0.09177175
v 0.04459932 -0.02468466 -0.09284372
v 0.04477873 -0.02468466 -0.09266596
v 0.04549318 -0.02468466 -0.08383976
v 0.04496608 -0.02712909 -0.08383976
v 0.04489622 -0.02694526 -0.08176047
v 0.04447231 -0.02853886 -0.08592442
v 0.04368006 -0.03032746 -0.08800641
v 0.04542015 -0.02468466 -0.08176047
v 0.04526138 -0.02468466 -0.07725444
v 0.04506292 -0.02543737 -0.07644105
v 0.04271317 -0.03146521 -0.09008839
v 0.04137477 -0.03199558 -0.09139198
v 0.04201142 -0.03073735 -0.09192796
v 0.04086037 -0.02956234 -0.09320462
v 0.04208128 -0.02873635 -0.09298646
v 0.04287829 -0.02732906 -0.09315884
v 0.04324663 -0.02594041 -0.09339316
v 0.04358004 -0.02468466 -0.09360325
v 0.04473745 -0.02673038 -0.07967579
v 0.04347208 -0.03006041 -0.08592442
v 0.04263696 -0.03136833 -0.08800641
v 0.04369435 -0.02820101 -0.07967579
v 0.04514072 -0.02468466 -0.07591045
v 0.04492797 -0.02498028 -0.07505126
v 0.04318153 -0.02769424 -0.07624443
v 0.04343556 -0.02792899 -0.07759382
v 0.04447707 -0.02655400 -0.07759382
v 0.04159387 -0.03222413 -0.08800641
v 0.04025229 -0.03326624 -0.08800641
v 0.03679435 -0.03588332 -0.08846159
v 0.03679435 -0.03588332 -0.08972478
v 0.03671655 -0.03582618 -0.09111457
v 0.03902978 -0.03390591 -0.09127078
v 0.04003637 -0.03069885 -0.09286796
v 0.03775965 -0.03438536 -0.09156436
v 0.04149067 -0.02817244 -0.09360056
v 0.03710712 -0.03193721 -0.09338239
v 0.03883926 -0.02752656 -0.09531624
v 0.04030468 -0.02645588 -0.09501188
v 0.04208128 -0.02656270 -0.09392375
v 0.04076828 -0.02519392 -0.09522466
v 0.04151925 -0.02468466 -0.09491761
v 0.04319423 -0.02978840 -0.08383976
v 0.04235753 -0.03110128 -0.08592442
v 0.03873289 -0.03368234 -0.08304790
v 0.03892817 -0.03385003 -0.08443230
v 0.04503911 -0.02468466 -0.07532060
v 0.04496131 -0.02468466 -0.07491121
v 0.04457392 -0.02468466 -0.07447488
v 0.04387693 -0.02468466 -0.07372343
v 0.04353876 -0.02583484 -0.07412474
v 0.04087465 -0.02957600 -0.07655956
v 0.03907265 -0.03189498 -0.07836951
v 0.03937113 -0.03217445 -0.07967579
v 0.03751038 -0.03444995 -0.08176047
v 0.03855031 -0.03351466 -0.08176047
v 0.04156053 -0.03020077 -0.07967579
v 0.04260204 -0.02924312 -0.07967579
v 0.03906789 -0.03395063 -0.08592442
v 0.03921078 -0.03404876 -0.08800641
v 0.03588462 -0.03646089 -0.09028770
v 0.03759771 -0.03523246 -0.08786366
v 0.03670544 -0.03581873 -0.08707450
v 0.03587826 -0.03645716 -0.08786366
v 0.03532734 -0.03628078 -0.09142970
v 0.03778346 -0.03266010 -0.09264710
v 0.03926317 -0.02645588 -0.09558827
v 0.03567822 -0.03340163 -0.09300801
v 0.03775965 -0.02895123 -0.09491492
v 0.03775965 -0.02791036 -0.09552632
v 0.03775965 -0.02645588 -0.09627238
v 0.04023165 -0.02468466 -0.09568792
v 0.04183201 -0.03099198 -0.08364853
v 0.03646411 -0.03566099 -0.08383976
v 0.04208128 -0.02468466 -0.07266493
v 0.04097468 -0.02753525 -0.07442640
v 0.04236389 -0.02722349 -0.07485734
v 0.04192569 -0.02487222 -0.07272150
v 0.03663558 -0.02744831 -0.07242253
v 0.04177168 -0.02649935 -0.07387965
v 0.03948544 -0.02987410 -0.07623904
v 0.03775965 -0.03128511 -0.07695548
v 0.03573379 -0.03272717 -0.07756957
v 0.03775965 -0.03224897 -0.07799782
v 0.03637679 -0.03359912 -0.07881661
v 0.04004589 -0.02896986 -0.07553069
v 0.03465258 -0.03583487 -0.08071005
v 0.03714840 -0.03413818 -0.08020639
v 0.03603385 -0.03549206 -0.08176047
v 0.03775965 -0.03492815 -0.08592442
v 0.03359520 -0.03737382 -0.09008839
v 0.03663082 -0.03576408 -0.08592442
v 0.03558931 -0.03642486 -0.08592442
v 0.03359520 -0.03734277 -0.08800641
v 0.03359520 -0.03653045 -0.09165324
v 0.03370157 -0.03464993 -0.09278446
v 0.03446524 -0.03370594 -0.09319385
v 0.03989665 -0.02468466 -0.09586569
v 0.03607513 -0.02940708 -0.09519234
v 0.03567822 -0.02645588 -0.09673295
v 0.03775965 -0.02468466 -0.09677605
v 0.03550040 -0.02864319 -0.09569600
v 0.03542260 -0.03625594 -0.08383976
v 0.04192569 -0.02468466 -0.07260299
v 0.03519239 -0.02981945 -0.07421363
v 0.03658160 -0.02952135 -0.07453144
v 0.03775965 -0.02926796 -0.07480078
v 0.03591319 -0.02864195 -0.07331673
v 0.04061745 -0.02525975 -0.07248178
v 0.03583540 -0.02663474 -0.07160912
v 0.03524637 -0.02776380 -0.07216127
v 0.03648158 -0.03155961 -0.07666190
v 0.03583698 -0.03069015 -0.07543642
v 0.03498758 -0.03388232 -0.07847724
v 0.03509237 -0.03185647 -0.07634409
v 0.03499234 -0.03600007 -0.08176047
v 0.03459702 -0.03583487 -0.08071005
v 0.03359520 -0.03664472 -0.08383976
v 0.03151218 -0.03731172 -0.09008839
v 0.03151218 -0.03646710 -0.09173404
v 0.03151218 -0.03732787 -0.08800641
v 0.03359520 -0.03700368 -0.08592442
v 0.02948790 -0.03420277 -0.09347127
v 0.03151218 -0.03508217 -0.09277638
v 0.03151218 -0.03404006 -0.09336893
v 0.03307762 -0.03386493 -0.09327735
v 0.03370157 -0.03288865 -0.09371098
v 0.03468751 -0.02959463 -0.09530547
v 0.03359520 -0.02645588 -0.09685415
v 0.03567822 -0.02468466 -0.09710463
v 0.03359520 -0.02853886 -0.09598420
v 0.03151218 -0.02853886 -0.09623198
v 0.02948790 -0.02853886 -0.09645553
v 0.04007606 -0.02468466 -0.07192156
v 0.03359520 -0.02800849 -0.07192694
v 0.03359520 -0.02905060 -0.07297737
v 0.03962675 -0.02468466 -0.07175727
v 0.03748816 -0.02468466 -0.07097618
v 0.03567822 -0.02468466 -0.07031631
v 0.03567822 -0.02503742 -0.07053986
v 0.03453986 -0.02536284 -0.07033516
v 0.03315065 -0.02569572 -0.07010622
v 0.03374444 -0.02641613 -0.07078765
v 0.03422391 -0.03388232 -0.07847724
v 0.02948790 -0.03524985 -0.08130260
v 0.02948790 -0.03607211 -0.08231261
v 0.02948790 -0.03608950 -0.08234493
v 0.03377937 -0.03608205 -0.08168236
v 0.03189957 -0.02983684 -0.07412474
v 0.02948790 -0.03651554 -0.08383976
v 0.02948790 -0.03724837 -0.08800641
v 0.02948790 -0.03709435 -0.09008839
v 0.02948790 -0.03525358 -0.09266326
v 0.02948790 -0.03628824 -0.09165055
v 0.02948790 -0.03417172 -0.09349012
v 0.02948790 -0.03270358 -0.09430622
v 0.02948790 -0.03018835 -0.09561520
v 0.03151218 -0.02645588 -0.09696458
v 0.02948790 -0.02645588 -0.09705615
v 0.03359520 -0.02468466 -0.09712349
v 0.03151218 -0.02784701 -0.07206161
v 0.03210279 -0.02569572 -0.07010622
v 0.03359520 -0.02995235 -0.07401971
v 0.03510348 -0.02468466 -0.07010892
v 0.03387780 -0.02468466 -0.06967529
v 0.03367458 -0.02468466 -0.06960795
v 0.03132801 -0.02901706 -0.07342716
v 0.02948790 -0.02818238 -0.07340292
v 0.02948790 -0.03650188 -0.08379128
v 0.02948790 -0.02468466 -0.09710463
v 0.03151218 -0.02468466 -0.09711540
v 0.03145026 -0.02641613 -0.07094656
v 0.03038493 -0.02754891 -0.07234173
v 0.03355074 -0.02468466 -0.06960795
v 0.03155822 -0.02468466 -0.06964297
v 0.02948790 -0.02468466 -0.07050215
v 0.02948790 -0.02641241 -0.07185692
f 1 2 3
f 1 3 4
f 1 4 5
f 1 5 6
f 1 6 18
f 1 18 17
f 1 17 34
f 1 34 58
f 1 58 88
f 1 88 114
f 1 114 117
f 1 117 146
f 1 146 176
f 1 176 187
f 1 187 186
f 1 186 192
f 1 192 191
f 1 191 190
f 1 190 182
f 1 182 181
f 1 181 180
f 1 180 155
f 1 155 154
f 1 154 153
f 1 153 150
f 1 150 120
f 1 120 91
f 1 91 66
f 1 66 65
f 1 65 64
f 1 64 63
f 1 63 39
f 1 39 25
f 1 25 24
f 1 24 19
f 1 19 7
f 1 7 2
f 2 7 8
f 2 8 3
f 3 9 10
f 3 10 11
f 3 11 4
f 3 8 12
f 3 12 13
f 3 13 9
f 4 11 5
f 5 11 10
f 5 10 14
f 5 14 15
f 5 15 16
f 5 16 17
f 5 17 18
f 5 18 6
f 7 19 8
f 8 19 12
f 9 13 20
f 9 20 21
f 9 21 22
f 9 22 23
f 9 23 10
f 10 23 14
f 12 19 24
f 12 24 25
f 12 25 13
f 13 25 26
f 13 26 20
f 14 27 15
f 14 23 27
f 15 27 28
f 15 28 29
f 15 29 30
f 15 30 31
f 15 31 32
f 15 32 16
f 16 32 17
f 17 32 33
f 17 33 34
f 20 26 21
f 21 26 35
f 21 35 23
f 21 23 22
f 23 36 37
f 23 37 27
f 23 35 38
f 23 38 36
f 25 39 26
f 26 39 40
f 26 40 41
f 26 41 42
f 26 42 43
f 26 43 38
f 26 38 35
f 27 37 44
f 27 44 45
f 27 45 46
f 27 46 47
f 27 47 48
f 27 48 28
f 28 48 49
f 28 49 29
f 29 50 30
f 29 49 51
f 29 51 50
f 30 52 31
f 30 50 53
f 30 53 54
f 30 54 52
f 31 52 32
f 32 52 55
f 32 55 56
f 32 56 57
f 32 57 33
f 33 57 58
f 33 58 34
f 36 59 60
f 36 60 37
f 36 38 42
f 36 42 59
f 37 60 61
f 37 61 62
f 37 62 44
f 38 43 42
f 39 63 40
f 40 63 64
f 40 64 65
f 40 65 66
f 40 66 67
f 40 67 41
f 41 68 69
f 41 69 70
f 41 70 42
f 41 67 68
f 42 70 71
f 42 71 72
f 42 72 73
f 42 73 74
f 42 74 59
f 44 62 75
f 44 75 45
f 45 75 76
f 45 76 46
f 46 77 47
f 46 76 78
f 46 78 79
f 46 79 80
f 46 80 77
f 47 77 48
f 48 77 81
f 48 81 82
f 48 82 51
f 48 51 49
f 50 51 82
f 50 82 53
f 52 54 83
f 52 83 55
f 53 84 85
f 53 85 54
f 53 82 81
f 53 81 84
f 54 85 86
f 54 86 87
f 54 87 83
f 55 83 57
f 55 57 56
f 57 83 88
f 57 88 58
f 59 89 60
f 59 74 89
f 60 89 61
f 61 72 71
f 61 71 62
f 61 89 72
f 62 90 75
f 62 71 90
f 66 91 67
f 67 92 93
f 67 93 68
f 67 91 94
f 67 94 95
f 67 95 96
f 67 96 92
f 68 97 98
f 68 98 99
f 68 99 100
f 68 100 101
f 68 101 69
f 68 93 92
f 68 92 102
f 68 102 97
f 69 101 103
f 69 103 104
f 69 104 70
f 70 104 71
f 71 104 105
f 71 105 90
f 72 89 73
f 73 89 74
f 75 90 106
f 75 106 76
f 76 106 78
f 77 107 81
f 77 80 107
f 78 106 79
f 79 106 108
f 79 108 80
f 80 108 90
f 80 90 109
f 80 109 110
f 80 110 107
f 81 107 111
f 81 111 112
f 81 112 113
f 81 113 84
f 83 114 88
f 83 87 114
f 84 113 115
f 84 115 86
f 84 86 85
f 86 115 87
f 87 116 117
f 87 117 114
f 87 115 118
f 87 118 116
f 90 119 109
f 90 108 106
f 90 105 119
f 91 120 94
f 92 121 122
f 92 122 123
f 92 123 102
f 92 96 95
f 92 95 124
f 92 124 121
f 94 120 125
f 94 125 95
f 95 125 126
f 95 126 127
f 95 127 124
f 97 128 98
f 97 102 129
f 97 129 128
f 98 128 99
f 99 130 101
f 99 101 100
f 99 128 131
f 99 131 130
f 101 130 103
f 102 123 129
f 103 132 105
f 103 105 104
f 103 130 160
f 103 160 133
f 103 133 134
f 103 134 132
f 105 132 119
f 107 135 136
f 107 136 111
f 107 110 137
f 107 137 135
f 109 119 110
f 110 119 138
f 110 138 137
f 111 136 139
f 111 139 140
f 111 140 112
f 112 140 141
f 112 141 142
f 112 142 113
f 113 142 143
f 113 143 144
f 113 144 118
f 113 118 115
f 116 145 146
f 116 146 117
f 116 118 147
f 116 147 148
f 116 148 149
f 116 149 145
f 118 144 147
f 119 132 138
f 120 150 125
f 121 129 122
f 121 124 127
f 121 127 151
f 121 151 152
f 121 152 131
f 121 131 129
f 122 129 123
f 125 150 153
f 125 153 154
f 125 154 126
f 126 154 155
f 126 155 156
f 126 156 157
f 126 157 127
f 127 157 158
f 127 158 159
f 127 159 151
f 128 129 131
f 130 131 152
f 130 152 160
f 132 134 138
f 133 161 162
f 133 162 163
f 133 163 164
f 133 164 134
f 133 160 165
f 133 165 161
f 134 166 137
f 134 137 138
f 134 164 166
f 135 137 167
f 135 167 168
f 135 168 136
f 136 169 139
f 136 168 170
f 136 170 169
f 137 166 167
f 139 171 140
f 139 169 170
f 139 170 168
f 139 168 167
f 139 167 166
f 139 166 185
f 139 185 163
f 139 163 162
f 139 162 161
f 139 161 184
f 139 184 193
f 139 193 192
f 139 192 186
f 139 186 175
f 139 175 149
f 139 149 173
f 139 173 172
f 139 172 171
f 140 171 141
f 141 171 172
f 141 172 142
f 142 172 173
f 142 173 143
f 143 173 148
f 143 148 147
f 143 147 144
f 145 149 174
f 145 174 146
f 146 175 176
f 146 174 175
f 148 173 149
f 149 175 174
f 151 177 152
f 151 159 158
f 151 158 178
f 151 178 177
f 152 165 179
f 152 179 160
f 152 177 165
f 155 180 157
f 155 157 156
f 157 180 181
f 157 181 182
f 157 182 158
f 158 182 190
f 158 190 178
f 160 179 165
f 161 165 183
f 161 183 184
f 163 185 164
f 164 185 166
f 165 177 183
f 175 186 187
f 175 187 176
f 177 178 188
f 177 188 189
f 177 189 184
f 177 184 183
f 178 190 191
f 178 191 192
f 178 192 188
f 184 189 193
f 188 193 189
f 188 192 193

