# https://github.com/mikedh/trimesh
v -0.05538846 -0.00397414 -0.06654622
v -0.05536072 -0.00397414 -0.06691489
v -0.00814369 -0.00397414 -0.06654622
v -0.05523585 -0.00343688 -0.06654622
v -0.05490751 -0.00260500 -0.06778236
v -0.05530059 -0.00397414 -0.06767664
v -0.00814369 -0.00397414 -0.08477380
v -0.00814369 0.05504347 -0.06654622
v -0.05495375 -0.00244902 -0.06654622
v -0.05513874 -0.00397414 -0.06921096
v -0.05452366 -0.00098167 -0.06654622
v -0.05302530 0.00365147 -0.06654622
v -0.02683626 -0.00397414 -0.09248067
v -0.00814369 -0.00313648 -0.08551928
v -0.00814369 0.05504347 -0.09066984
v -0.02687789 0.05504347 -0.06654622
v -0.05512949 -0.00397414 -0.06925976
v -0.04898341 0.01497435 -0.06654622
v -0.04891866 0.01478371 -0.06717784
v -0.00814369 0.00172773 -0.08902437
v -0.00814369 0.00063011 -0.08844155
v -0.00814369 -0.00095278 -0.08742499
v -0.00814369 -0.00199264 -0.08652499
v -0.02890346 -0.00397414 -0.09251863
v -0.00814369 0.01313149 -0.09423458
v -0.00814369 0.01106911 -0.09371952
v -0.00814369 0.01098245 -0.09369784
v -0.02575874 0.04539591 -0.08487411
v -0.00828705 0.05504347 -0.09057496
v -0.00814369 0.04645888 -0.09254844
v -0.01964041 0.03514756 -0.09118490
v -0.02473670 0.02979230 -0.09041232
v -0.02610558 0.03138097 -0.08923311
v -0.02682702 0.05504347 -0.06704772
v -0.02719236 0.05478928 -0.06654622
v -0.05446817 -0.00397414 -0.07088896
v -0.04437270 0.02414241 -0.07171847
v -0.04268010 0.02763748 -0.07326636
v -0.04253211 0.02689803 -0.07459466
v -0.04860419 0.01601420 -0.06654622
v -0.04798450 0.01729669 -0.06717784
v -0.04403510 0.02543068 -0.07115191
v -0.01224107 0.01521120 -0.09381711
v -0.01015538 0.01521120 -0.09403398
v -0.00814369 0.01320081 -0.09423728
v -0.03097990 -0.00397414 -0.09168641
v -0.03413849 0.01016212 -0.08906504
v -0.02890346 0.01937640 -0.09027678
v -0.02682239 0.02354738 -0.09064545
v -0.02493094 0.02562132 -0.09098430
v -0.02346032 0.02806498 -0.09109002
v -0.01432214 0.03812270 -0.09207134
v -0.01224107 0.04020819 -0.09230989
v -0.01015538 0.04228790 -0.09254573
v -0.00814369 0.04437339 -0.09276532
v -0.00814369 0.04228790 -0.09289543
v -0.00814369 0.04041038 -0.09301200
v -0.00814369 0.03812270 -0.09315025
v -0.00814369 0.03603721 -0.09326953
v -0.01015538 0.02562132 -0.09354874
v -0.02620270 0.04400366 -0.08509910
v -0.02686401 0.04456981 -0.08449188
v -0.02805253 0.04569054 -0.08303887
v -0.02680389 0.04641266 -0.08354851
v -0.01347121 0.05504347 -0.08709427
v -0.02176772 0.03117299 -0.09116864
v -0.02000575 0.03395750 -0.09125809
v -0.02144400 0.03256525 -0.09108460
v -0.02311347 0.02979230 -0.09098701
v -0.02453322 0.02750461 -0.09087858
v -0.02682239 0.02562132 -0.09035539
v -0.02699350 0.02782235 -0.08975901
v -0.02649867 0.02979230 -0.08951503
v -0.02680852 0.05504347 -0.06721309
v -0.02816815 0.05399206 -0.06654622
v -0.04251824 0.01649947 -0.07872867
v -0.04254136 -0.00009779 -0.08500151
v -0.04274022 -0.00145538 -0.08525633
v -0.05403808 -0.00397414 -0.07145011
v -0.04243962 0.02249020 -0.07654645
v -0.04246274 0.02881021 -0.07246666
v -0.04223614 0.02828451 -0.07385460
v -0.04050192 0.03320649 -0.07265370
v -0.04048342 0.03106901 -0.07468683
v -0.03833761 0.03303896 -0.07664133
v -0.03617330 0.03493381 -0.07860667
v -0.04675899 0.02082065 -0.06678478
v -0.04451606 0.02697313 -0.06654622
v -0.04009033 0.03844621 -0.06717784
v -0.04637514 0.02149655 -0.06735947
v -0.04259686 0.02916261 -0.07134438
v -0.01015538 0.01937640 -0.09384693
v -0.01015538 0.01729669 -0.09394182
v -0.01015538 0.02354738 -0.09365175
v -0.00814369 0.02778768 -0.09366530
v -0.00814369 0.02562132 -0.09375747
v -0.03930415 -0.00397414 -0.08828432
v -0.03396738 0.01154860 -0.08897287
v -0.04120486 -0.00397414 -0.08742227
v -0.03231640 0.01521120 -0.08923311
v -0.02890346 0.02146189 -0.08996503
v -0.01640783 0.03603721 -0.09183008
v -0.00814369 0.03437344 -0.09335356
v -0.02759007 0.04273273 -0.08469248
v -0.02838088 0.04437339 -0.08335876
v -0.03022146 0.04580608 -0.07912173
v -0.02834388 0.04641266 -0.08158858
v -0.02748371 0.04707702 -0.08217141
v -0.02609633 0.04775292 -0.08312020
v -0.02975438 0.04272695 -0.08251840
v -0.03194181 0.04104585 -0.08056389
v -0.02945841 0.04444849 -0.08179732
v -0.02982837 0.04518794 -0.08050697
v -0.01451175 0.05504347 -0.08632168
v -0.02832538 0.02562132 -0.08946082
v -0.03212680 0.01652258 -0.08912738
v -0.02803866 0.02720999 -0.08922497
v -0.02780280 0.02859646 -0.08899998
v -0.02754383 0.02979230 -0.08881022
v -0.02679927 0.05504347 -0.06728085
v -0.02813115 0.05396317 -0.06717784
v -0.02959714 0.05279623 -0.06654622
v -0.04246274 0.00589871 -0.08282201
v -0.04222689 -0.00397414 -0.08676897
v -0.02997636 0.04133470 -0.08282743
v -0.04310094 -0.00397414 -0.08571717
v -0.04057591 0.03598522 -0.06905103
v -0.04016894 0.03664957 -0.06960946
v -0.04046030 0.03525732 -0.07054739
v -0.03843010 0.04157733 -0.06852783
v -0.03768554 0.04228212 -0.06923807
v -0.03869370 0.03593900 -0.07334497
v -0.03064230 0.04444849 -0.07975878
v -0.03167358 0.04243232 -0.07979402
v -0.03408299 0.03911634 -0.07858770
v -0.04015508 0.03861952 -0.06654622
v -0.03841623 0.04321799 -0.06654622
v -0.04035855 0.03708284 -0.06821880
v -0.00814369 0.03187201 -0.09347284
v -0.04072390 -0.00145538 -0.08723523
v -0.02789530 0.04134625 -0.08491205
v -0.02785368 0.03496847 -0.08695602
v -0.02882484 0.04203371 -0.08375996
v -0.03199268 0.04535548 -0.07649766
v -0.03416624 0.04549990 -0.07248293
v -0.03633517 0.04562699 -0.06847091
v -0.03589121 0.04713478 -0.06717784
v -0.02968039 0.04719255 -0.07816210
v -0.02789992 0.04753340 -0.08078347
v -0.02680389 0.04807643 -0.08158858
v -0.02575874 0.04956112 -0.08068316
v -0.01580662 0.05504347 -0.08528073
v -0.03019372 0.04380147 -0.08112775
v -0.02621195 0.05504347 -0.06922994
v -0.02800166 0.05385919 -0.06846820
v -0.03606232 0.04734275 -0.06654622
v -0.03831449 0.04346063 -0.06654622
v -0.03808789 0.04296958 -0.06774440
v -0.03664964 0.04429829 -0.06920283
v -0.03594207 0.04493953 -0.06986156
v -0.03667276 0.04608915 -0.06717784
v -0.03771329 0.04428674 -0.06710194
v -0.03401825 0.04740053 -0.07013807
v -0.03184469 0.04730232 -0.07415009
v -0.03007348 0.04761427 -0.07677416
v -0.02821439 0.04782225 -0.07967746
v -0.02667440 0.05048543 -0.07732988
v -0.02615645 0.04993084 -0.07929523
v -0.02427887 0.05504347 -0.07288142
v -0.02405689 0.05407871 -0.07507177
v -0.02363143 0.05369743 -0.07645971
v -0.02272963 0.05504347 -0.07530218
v -0.02531015 0.05504347 -0.07102721
v -0.02514367 0.05504347 -0.07134438
v -0.02761782 0.05351835 -0.06985614
v -0.03014285 0.05184302 -0.06856579
v -0.03440671 0.04777603 -0.06875012
v -0.03674676 0.04627979 -0.06654622
v -0.03818962 0.04372637 -0.06654622
v -0.03781041 0.04446004 -0.06654622
v -0.03097990 0.04853281 -0.07341003
v -0.02881096 0.04845194 -0.07742205
v -0.02583736 0.05380142 -0.07248563
v -0.02393203 0.05504347 -0.07344798
v -0.02290999 0.05504347 -0.07503923
v -0.02936129 0.05112090 -0.07134438
v -0.03101227 0.05064719 -0.06930584
v -0.03314420 0.04861369 -0.06939801
f 1 2 6
f 1 6 10
f 1 10 17
f 1 17 36
f 1 36 79
f 1 79 126
f 1 126 124
f 1 124 99
f 1 99 97
f 1 97 46
f 1 46 24
f 1 24 13
f 1 13 7
f 1 7 3
f 1 3 8
f 1 8 16
f 1 16 35
f 1 35 75
f 1 75 122
f 1 122 156
f 1 156 178
f 1 178 180
f 1 180 179
f 1 179 157
f 1 157 137
f 1 137 136
f 1 136 88
f 1 88 40
f 1 40 18
f 1 18 12
f 1 12 11
f 1 11 9
f 1 9 4
f 1 4 5
f 1 5 2
f 2 5 6
f 3 7 14
f 3 14 23
f 3 23 22
f 3 22 21
f 3 21 20
f 3 20 27
f 3 27 26
f 3 26 25
f 3 25 45
f 3 45 96
f 3 96 95
f 3 95 139
f 3 139 103
f 3 103 59
f 3 59 58
f 3 58 57
f 3 57 56
f 3 56 55
f 3 55 30
f 3 30 15
f 3 15 8
f 4 9 5
f 5 10 6
f 5 9 11
f 5 11 12
f 5 12 10
f 7 13 14
f 8 15 29
f 8 29 65
f 8 65 114
f 8 114 152
f 8 152 172
f 8 172 185
f 8 185 184
f 8 184 169
f 8 169 174
f 8 174 173
f 8 173 154
f 8 154 120
f 8 120 74
f 8 74 34
f 8 34 16
f 10 12 17
f 12 18 19
f 12 19 17
f 13 20 21
f 13 21 22
f 13 22 23
f 13 23 14
f 13 24 25
f 13 25 26
f 13 26 27
f 13 27 20
f 15 28 29
f 15 30 31
f 15 31 32
f 15 32 33
f 15 33 28
f 16 34 35
f 17 19 37
f 17 37 38
f 17 38 39
f 17 39 36
f 18 40 19
f 19 40 41
f 19 41 42
f 19 42 37
f 24 43 44
f 24 44 45
f 24 45 25
f 24 46 47
f 24 47 48
f 24 48 49
f 24 49 50
f 24 50 51
f 24 51 52
f 24 52 53
f 24 53 54
f 24 54 55
f 24 55 56
f 24 56 57
f 24 57 58
f 24 58 59
f 24 59 60
f 24 60 43
f 28 61 62
f 28 62 63
f 28 63 64
f 28 64 29
f 28 33 61
f 29 64 65
f 30 55 53
f 30 53 66
f 30 66 67
f 30 67 68
f 30 68 31
f 31 68 32
f 32 69 70
f 32 70 71
f 32 71 72
f 32 72 73
f 32 73 33
f 32 68 69
f 33 73 61
f 34 74 75
f 34 75 35
f 36 76 77
f 36 77 78
f 36 78 79
f 36 39 80
f 36 80 76
f 37 42 81
f 37 81 38
f 38 81 82
f 38 82 39
f 39 82 83
f 39 83 84
f 39 84 85
f 39 85 86
f 39 86 80
f 40 87 41
f 40 88 87
f 41 87 89
f 41 89 90
f 41 90 42
f 42 89 91
f 42 91 81
f 42 90 89
f 43 92 93
f 43 93 44
f 43 60 94
f 43 94 92
f 44 93 95
f 44 95 96
f 44 96 45
f 46 97 47
f 47 98 48
f 47 97 99
f 47 99 98
f 48 98 100
f 48 100 101
f 48 101 71
f 48 71 49
f 49 71 70
f 49 70 50
f 50 70 51
f 51 70 69
f 51 69 66
f 51 66 102
f 51 102 52
f 52 102 66
f 52 66 53
f 53 55 54
f 59 103 60
f 60 103 94
f 61 104 62
f 61 73 104
f 62 104 105
f 62 105 63
f 63 106 107
f 63 107 108
f 63 108 109
f 63 109 64
f 63 105 110
f 63 110 86
f 63 86 111
f 63 111 112
f 63 112 113
f 63 113 106
f 64 109 65
f 65 109 114
f 66 69 68
f 66 68 67
f 71 115 72
f 71 101 116
f 71 116 115
f 72 117 118
f 72 118 73
f 72 115 117
f 73 118 119
f 73 119 104
f 74 120 121
f 74 121 75
f 75 121 122
f 76 123 77
f 76 80 123
f 77 124 78
f 77 123 86
f 77 86 125
f 77 125 124
f 78 124 126
f 78 126 79
f 80 86 123
f 81 91 127
f 81 127 128
f 81 128 129
f 81 129 82
f 82 129 83
f 83 129 130
f 83 130 131
f 83 131 84
f 84 132 133
f 84 133 134
f 84 134 135
f 84 135 85
f 84 131 132
f 85 135 111
f 85 111 86
f 86 110 125
f 87 88 89
f 88 136 89
f 89 136 137
f 89 137 138
f 89 138 127
f 89 127 91
f 92 94 95
f 92 95 93
f 94 103 139
f 94 139 95
f 98 116 100
f 98 99 140
f 98 140 124
f 98 124 116
f 99 124 140
f 100 116 101
f 104 141 105
f 104 119 142
f 104 142 141
f 105 141 143
f 105 143 125
f 105 125 110
f 106 113 144
f 106 144 145
f 106 145 146
f 106 146 147
f 106 147 148
f 106 148 107
f 107 148 108
f 108 148 149
f 108 149 150
f 108 150 109
f 109 150 151
f 109 151 152
f 109 152 114
f 111 134 153
f 111 153 112
f 111 135 134
f 112 153 113
f 113 153 134
f 113 134 133
f 113 133 144
f 115 116 117
f 116 124 141
f 116 141 142
f 116 142 118
f 116 118 117
f 118 142 119
f 120 154 155
f 120 155 121
f 121 155 156
f 121 156 122
f 124 125 143
f 124 143 141
f 127 138 137
f 127 137 128
f 128 137 129
f 129 137 157
f 129 157 130
f 130 157 158
f 130 158 146
f 130 146 159
f 130 159 131
f 131 159 133
f 131 133 132
f 133 159 160
f 133 160 144
f 144 160 145
f 145 160 146
f 146 161 147
f 146 160 159
f 146 158 162
f 146 162 161
f 147 161 156
f 147 156 163
f 147 163 148
f 148 163 164
f 148 164 149
f 149 164 163
f 149 163 165
f 149 165 166
f 149 166 167
f 149 167 168
f 149 168 151
f 149 151 150
f 151 168 169
f 151 169 170
f 151 170 171
f 151 171 152
f 152 171 172
f 154 173 155
f 155 173 174
f 155 174 175
f 155 175 176
f 155 176 156
f 156 177 163
f 156 161 178
f 156 176 177
f 157 179 158
f 158 179 162
f 161 162 180
f 161 180 178
f 162 179 180
f 163 177 165
f 165 177 181
f 165 181 182
f 165 182 166
f 166 182 167
f 167 169 168
f 167 182 169
f 169 183 174
f 169 184 170
f 169 182 183
f 170 184 171
f 171 184 185
f 171 185 172
f 174 183 186
f 174 186 176
f 174 176 175
f 176 186 187
f 176 187 188
f 176 188 177
f 177 188 181
f 181 188 186
f 181 186 182
f 182 186 183
f 186 188 187

