# https://github.com/mikedh/trimesh
v -0.00181800 0.06171234 -0.09302821
v -0.00181800 0.06104056 -0.09302302
v -0.00390099 0.05687471 -0.09291153
v -0.00390099 0.05895731 -0.09287523
v -0.00390099 0.06171234 -0.09281042
v 0.00026499 0.06171234 -0.09248374
v -0.00181800 0.05895731 -0.09288820
v -0.00390099 0.05504347 -0.09287783
v -0.00457609 0.06171234 -0.09271449
v -0.00598399 0.06104056 -0.09245262
v -0.00598399 0.06171234 -0.09246299
v 0.01207055 0.06171234 -0.08541856
v 0.01766174 0.05567608 -0.08686789
v 0.01825606 0.05504347 -0.08701309
v -0.00181800 0.05504347 -0.09256151
v -0.00415488 0.05504347 -0.09279486
v -0.00598399 0.05895731 -0.09235669
v -0.00673987 0.06171234 -0.09218557
v 0.01230712 0.06171234 -0.08522151
v 0.01941584 0.05504347 -0.08628712
v -0.00598399 0.05504347 -0.09206112
v -0.00598399 0.05687471 -0.09222446
v -0.00800351 0.06171234 -0.09166703
v 0.01344959 0.06171234 -0.08383700
v 0.01552105 0.05970548 -0.08437369
v 0.01776560 0.05775150 -0.08459666
v 0.02000439 0.05579686 -0.08481964
v 0.02048907 0.05504347 -0.08530966
v -0.00615709 0.05504347 -0.09196259
v -0.00788234 0.06104056 -0.09167480
v -0.00850550 0.06171234 -0.09136886
v 0.01480556 0.06171234 -0.08194690
v 0.03060400 0.05504347 -0.07130117
v 0.02153345 0.05504347 -0.08396664
v 0.02136035 0.05504347 -0.08420775
v -0.00723609 0.05504347 -0.09127293
v -0.00743227 0.05687471 -0.09140516
v -0.00765731 0.05895731 -0.09155294
v -0.00899596 0.06171234 -0.09105514
v 0.01635770 0.06171234 -0.07976642
v 0.02678998 0.05831360 -0.07098486
v 0.03098482 0.05504347 -0.07074114
v -0.00736303 0.05504347 -0.09118997
v -0.00995956 0.05504347 -0.08945025
v -0.01151748 0.06104056 -0.08926616
v -0.01010381 0.06171234 -0.09031103
v -0.00847089 0.05504347 -0.09044844
v 0.02185081 0.06171234 -0.07201935
v 0.02454543 0.06025975 -0.07075670
v 0.03042512 0.05580078 -0.07019148
v 0.03159644 0.05504347 -0.06955367
v -0.01346776 0.05504347 -0.08709346
v -0.01158672 0.06171234 -0.08931283
v -0.01066351 0.06171234 -0.08993509
v -0.01365817 0.05687471 -0.08722309
v 0.02266439 0.06171234 -0.07087078
v 0.03168300 0.05504347 -0.06937737
v -0.01450637 0.05504347 -0.08632342
v -0.01255609 0.06104056 -0.08855575
v -0.01263110 0.06171234 -0.08857650
v -0.01380243 0.05895731 -0.08737347
v 0.02305675 0.06171234 -0.06967812
v 0.03067324 0.05598488 -0.06880178
v 0.03206959 0.05504347 -0.06717614
v -0.01579887 0.05504347 -0.08528115
v -0.01380820 0.06104056 -0.08751348
v -0.01376781 0.06171234 -0.08753422
v 0.02312022 0.06171234 -0.06926069
v 0.02942690 0.05700920 -0.06717614
v 0.03175801 0.05524193 -0.06654351
v 0.03202343 0.05504347 -0.06654351
v 0.02311445 0.06171234 -0.06778025
v -0.02272295 0.05504347 -0.07530174
v -0.01454099 0.06171234 -0.08592414
v -0.02290182 0.05504347 -0.07503988
v -0.02392889 0.05504347 -0.07344795
v -0.02427510 0.05504347 -0.07288273
v -0.02494442 0.05504347 -0.07169267
v -0.02514060 0.05504347 -0.07134265
v -0.02530793 0.05504347 -0.07102634
v -0.02620807 0.05504347 -0.06922958
v 0.02585523 0.05966565 -0.06717614
v 0.02583215 0.05964933 -0.06654351
v -0.02687739 0.05504347 -0.06654351
v 0.02310291 0.06171234 -0.06717614
v -0.01975713 0.06171234 -0.07290606
v -0.02679661 0.05504347 -0.06727985
v 0.02305675 0.06171234 -0.06654351
v -0.01948017 0.06171234 -0.06654351
v -0.01999947 0.06171234 -0.06943440
v -0.02012642 0.06171234 -0.07134265
f 1 2 3
f 1 3 4
f 1 4 5
f 1 5 9
f 1 9 11
f 1 11 18
f 1 18 23
f 1 23 31
f 1 31 39
f 1 39 46
f 1 46 54
f 1 54 53
f 1 53 60
f 1 60 67
f 1 67 74
f 1 74 86
f 1 86 91
f 1 91 90
f 1 90 89
f 1 89 88
f 1 88 85
f 1 85 72
f 1 72 68
f 1 68 62
f 1 62 56
f 1 56 48
f 1 48 40
f 1 40 32
f 1 32 24
f 1 24 19
f 1 19 12
f 1 12 6
f 1 6 2
f 2 7 8
f 2 8 3
f 2 6 7
f 3 9 4
f 3 8 10
f 3 10 11
f 3 11 9
f 4 9 5
f 6 12 13
f 6 13 14
f 6 14 7
f 7 15 8
f 7 14 15
f 8 16 10
f 8 15 14
f 8 14 20
f 8 20 28
f 8 28 35
f 8 35 34
f 8 34 33
f 8 33 42
f 8 42 51
f 8 51 57
f 8 57 64
f 8 64 71
f 8 71 84
f 8 84 87
f 8 87 81
f 8 81 80
f 8 80 79
f 8 79 78
f 8 78 77
f 8 77 76
f 8 76 75
f 8 75 73
f 8 73 65
f 8 65 58
f 8 58 52
f 8 52 44
f 8 44 47
f 8 47 43
f 8 43 36
f 8 36 29
f 8 29 21
f 8 21 16
f 10 17 18
f 10 18 11
f 10 16 17
f 12 19 20
f 12 20 13
f 13 20 14
f 16 21 22
f 16 22 17
f 17 22 23
f 17 23 18
f 19 24 25
f 19 25 26
f 19 26 27
f 19 27 28
f 19 28 20
f 21 29 30
f 21 30 22
f 22 30 23
f 23 30 31
f 24 32 26
f 24 26 25
f 26 32 27
f 27 32 33
f 27 33 34
f 27 34 35
f 27 35 28
f 29 36 37
f 29 37 38
f 29 38 30
f 30 38 31
f 31 38 39
f 32 40 33
f 33 41 42
f 33 40 41
f 36 43 37
f 37 43 38
f 38 43 39
f 39 44 45
f 39 45 46
f 39 43 47
f 39 47 44
f 40 48 49
f 40 49 41
f 41 49 50
f 41 50 42
f 42 50 51
f 44 52 45
f 45 53 54
f 45 54 46
f 45 52 55
f 45 55 53
f 48 56 49
f 49 56 50
f 50 57 51
f 50 56 57
f 52 58 55
f 53 55 59
f 53 59 60
f 55 58 61
f 55 61 59
f 56 62 63
f 56 63 57
f 57 63 64
f 58 65 61
f 59 61 60
f 60 61 66
f 60 66 67
f 61 65 66
f 62 68 63
f 63 68 64
f 64 69 70
f 64 70 71
f 64 68 72
f 64 72 69
f 65 67 66
f 65 73 67
f 67 73 75
f 67 75 76
f 67 76 77
f 67 77 78
f 67 78 79
f 67 79 80
f 67 80 81
f 67 81 74
f 69 72 82
f 69 82 83
f 69 83 70
f 70 83 88
f 70 88 89
f 70 89 84
f 70 84 71
f 72 85 82
f 74 81 86
f 81 87 86
f 82 85 83
f 83 85 88
f 84 89 90
f 84 90 91
f 84 91 87
f 86 87 91

