# https://github.com/mikedh/trimesh
v -0.03888320 -0.03288269 0.01129971
v -0.03888320 -0.02946902 0.00691410
v -0.01965666 -0.03810302 -0.00170961
v -0.01948980 -0.03996675 0.00057562
v -0.01755577 -0.04214427 0.00247343
v -0.01550039 -0.04632814 0.00870964
v -0.01590237 -0.04662291 0.00990339
v -0.01634985 -0.04687965 0.01129971
v -0.03888320 -0.00420412 0.01129971
v -0.03888320 -0.02886046 0.00614318
v -0.01848107 -0.03854993 -0.00200264
v -0.01866310 -0.03965296 -0.00069089
v -0.03888320 -0.02693968 0.00372421
v -0.02857595 -0.01988414 -0.00879148
v -0.02750655 -0.02091109 -0.00879148
v -0.02643714 -0.02190001 -0.00879148
v -0.02532223 -0.02291745 -0.00879148
v -0.02425282 -0.02386833 -0.00879148
v -0.02309241 -0.02488578 -0.00879148
v -0.02205334 -0.02578911 -0.00879148
v -0.02200783 -0.02582715 -0.00879148
v -0.01810185 -0.04038514 -0.00011467
v -0.01639535 -0.04169735 0.00119118
v -0.01489364 -0.04767839 0.01129971
v -0.01502257 -0.04411259 0.00477636
v -0.01430963 -0.04646127 0.00849528
v -0.01282309 -0.04824892 0.01107748
v -0.01443857 -0.04784955 0.01129971
v -0.03584943 0.00894656 0.01129971
v -0.03349067 0.02967576 -0.00879148
v -0.03888320 -0.00357654 0.00979523
v -0.01639535 -0.03884470 -0.00217964
v -0.01639535 -0.03988117 -0.00145592
v -0.02055921 -0.02675901 -0.00879148
v -0.02051370 -0.02678754 -0.00879148
v -0.01932294 -0.02741512 -0.00879148
v -0.01828388 -0.02781449 -0.00879148
v -0.01639535 -0.02840403 -0.00879148
v -0.03349067 -0.01505367 -0.00879148
v -0.02963777 -0.01885719 -0.00879148
v -0.03888320 -0.00266369 0.00372421
v -0.01639535 -0.04065138 -0.00041360
v -0.01431722 -0.04183999 0.00088832
v -0.01431722 -0.04248658 0.00192867
v -0.01223150 -0.04432178 0.00442827
v -0.01223150 -0.04599533 0.00718550
v -0.01217082 -0.04775446 0.01007449
v -0.01433239 -0.04362763 0.00380681
v -0.01143513 -0.04835352 0.01088278
v -0.01264106 -0.04837254 0.01129971
v -0.01328574 -0.04820137 0.01129971
v -0.03499238 0.01098145 0.01129971
v -0.03888320 -0.00285387 0.00573608
v -0.03888320 -0.00307257 0.00781875
v -0.03888320 -0.00340538 0.00914034
v -0.02572421 0.02726053 0.01129971
v -0.02530706 0.02794516 0.01129971
v -0.03085128 0.03380259 -0.00879148
v -0.01431722 -0.02893653 -0.00879148
v -0.01145789 -0.02964018 -0.00879148
v -0.00806764 -0.03046745 -0.00879148
v -0.00598193 -0.03096190 -0.00879148
v -0.00389621 -0.03135177 -0.00879148
v 0.01313085 -0.03584943 -0.00575499
v 0.01401823 -0.03584943 -0.00575499
v 0.00858777 -0.04188753 0.00073689
v 0.00441633 -0.04687015 0.00610188
v 0.00441633 -0.04791611 0.00723663
v 0.00234578 -0.04791611 0.00728186
v -0.00806764 -0.04388437 0.00292969
v -0.00389621 -0.04589074 0.00513823
v -0.00389621 -0.04662291 0.00618054
v -0.00181049 -0.04782102 0.00761226
v -0.01223150 -0.04389388 0.00372421
v -0.00309226 -0.04835352 0.00880404
v -0.01015337 -0.04843909 0.01072348
v -0.01173851 -0.04848664 0.01129971
v -0.02426041 0.02928590 0.01129971
v -0.02978946 0.03477249 -0.00804612
v -0.03070718 0.03402129 -0.00879148
v -0.00384311 -0.03135177 -0.00879148
v 0.01256201 -0.03498413 -0.00641185
v 0.01476150 -0.03493659 -0.00636268
v 0.01540618 -0.03573533 -0.00564289
v 0.01900878 -0.05064514 0.01069988
v 0.01692306 -0.05071170 0.01061728
v 0.01484493 -0.05072121 0.01056615
v 0.00650964 -0.04880994 0.00829665
v 0.00026006 -0.04788759 0.00740773
v -0.00181049 -0.04677505 0.00611958
v 0.00441633 -0.04875288 0.00827698
v 0.00026006 -0.04852468 0.00844808
v -0.00181049 -0.04842959 0.00865458
v 0.00905801 -0.05047398 0.01081395
v -0.01015337 -0.04866730 0.01129971
v -0.02291038 0.03034138 0.01129971
v -0.02759756 0.03691197 -0.00807366
v -0.02897793 0.03620832 -0.00879148
v -0.02908411 0.03611322 -0.00879148
v -0.00175740 -0.03123766 -0.00879148
v 0.01469324 -0.03254987 -0.00758790
v 0.01692306 -0.03547859 -0.00549736
v 0.01600535 -0.03175114 -0.00784356
v 0.01692306 -0.03444213 -0.00614832
v 0.02425721 -0.03792235 -0.00157588
v 0.02223975 -0.04423621 0.00460920
v 0.02016920 -0.05052153 0.01081985
v 0.01900878 -0.05103500 0.01129971
v 0.01692306 -0.05116812 0.01129971
v 0.01591433 -0.05119665 0.01129971
v 0.01275921 -0.05066415 0.01057598
v 0.00234578 -0.04862927 0.00832418
v 0.01066591 -0.05055956 0.01068021
v 0.01165947 -0.05093040 0.01129971
v 0.00973302 -0.05073072 0.01129971
v -0.02221262 0.03085486 0.01129971
v -0.02686946 0.03780580 -0.00879148
v 0.01654384 -0.02829944 -0.00879148
v 0.02072287 -0.03612519 -0.00389651
v 0.01897844 -0.02781449 -0.00879148
v 0.02120068 -0.02689214 -0.00879148
v 0.01903154 -0.03476543 -0.00525743
v 0.02211082 -0.03581140 -0.00362905
v 0.02296027 -0.02584617 -0.00879148
v 0.03255458 -0.02958313 -0.00364282
v 0.02506875 -0.03683835 -0.00195937
v 0.02663114 -0.03612519 -0.00178041
v 0.02412827 -0.03997626 0.00054416
v 0.02029055 -0.05065465 0.01129971
v 0.02801909 -0.03551663 -0.00091116
v 0.03019582 -0.03349125 -0.00103309
v 0.03234222 -0.03146587 -0.00115502
v 0.01382103 -0.05110156 0.01129971
v -0.02190924 0.03102602 0.01129971
v -0.02438176 0.03938426 -0.00879148
v -0.02663434 0.03795794 -0.00879148
v 0.02394625 -0.02481921 -0.00879148
v 0.03356331 -0.02852765 -0.00259263
v 0.03288071 -0.02995397 -0.00259263
v 0.02880787 -0.03412834 -0.00190431
v 0.03332061 -0.01204889 -0.00879148
v 0.03372258 -0.01136425 -0.00879148
v 0.03439760 -0.01018516 -0.00879148
v 0.03478441 -0.00918674 -0.00879148
v 0.03597516 -0.00561142 -0.00879148
v 0.03649849 -0.00397591 -0.00879148
v 0.03683979 -0.00288240 -0.00879148
v 0.03269868 -0.03178917 0.00023343
v 0.03287313 -0.03615372 0.00990339
v 0.03300206 -0.03660063 0.01129971
v 0.03322960 -0.03071468 -0.00048046
v -0.02158311 0.03116865 0.01129971
v -0.01437031 0.04436687 -0.00879148
v -0.02059713 0.04135258 -0.00879148
v -0.02250841 0.04039219 -0.00879148
v 0.03457962 -0.02644522 -0.00118255
v 0.03435967 -0.02839453 -0.00045490
v 0.03701423 -0.00151313 -0.00879148
v 0.03859179 -0.01602357 0.01129971
v 0.03828841 -0.01805845 0.01129971
v 0.03801537 -0.01811551 0.00990339
v 0.03679428 -0.02157671 0.00634968
v 0.03544425 -0.02436279 0.00156878
v 0.03478441 -0.02644522 -0.00014220
v 0.03296414 -0.03211247 0.00156878
v 0.03314617 -0.03483199 0.00795052
v 0.03334336 -0.03606814 0.01129971
v 0.03385910 -0.03061008 0.00156878
v 0.03379843 -0.03270202 0.00573608
v 0.03373775 -0.03477493 0.00990339
v -0.00836344 0.03676934 0.01129971
v -0.01415036 0.04446196 -0.00879148
v 0.03465547 -0.02760530 0.00027866
v 0.03448103 -0.02896506 0.00156878
v 0.03447345 -0.03099043 0.00573608
v 0.03435209 -0.03041040 0.00372421
v 0.03705974 0.00053127 -0.00879148
v 0.03859938 -0.01572880 0.01129971
v 0.03489058 -0.03190328 0.01129971
v 0.03445827 -0.03301581 0.00990339
v 0.03496643 -0.02801418 0.00372421
v 0.03407147 -0.03465132 0.01129971
v 0.03431417 -0.03251184 0.00796429
v -0.00740022 0.03708313 0.01129971
v -0.01298994 0.04481379 -0.00879148
v 0.03435209 -0.03397620 0.01129971
v 0.03705215 0.00478170 -0.00879148
v 0.03856904 -0.01395065 0.01129971
v 0.03704457 0.00894656 -0.00879148
v 0.03453412 -0.03334862 0.01129971
v -0.00715751 0.03714969 0.01129971
v -0.01223150 0.04504200 -0.00879148
v 0.03697631 0.01102899 -0.00879148
v 0.03771958 0.01103850 0.01129971
v -0.00590608 0.03725429 0.01129971
v -0.01014578 0.04528923 -0.00879148
v -0.01180677 0.04509905 -0.00879148
v 0.03680945 0.01242679 -0.00879148
v 0.03764373 0.01172313 0.01129971
v -0.00389621 0.03736839 0.01129971
v -0.00181807 0.04590730 -0.00879148
v -0.00212903 0.04588828 -0.00879148
v 0.03652883 0.01346325 -0.00879148
v 0.03726451 0.01354882 0.01129971
v 0.03737828 0.01312093 0.01129971
v -0.00112789 0.03747299 0.01129971
v -0.00079417 0.04592632 -0.00879148
v 0.03602067 0.01519385 -0.00879148
v 0.03534565 0.01728579 -0.00879148
v 0.03482233 0.01875965 -0.00879148
v 0.03440518 0.01983415 -0.00879148
v 0.03377568 0.02140310 -0.00879148
v 0.03689288 0.01447118 0.01129971
v 0.00026006 0.03747299 0.01129971
v 0.00029798 0.04594534 -0.00879148
v 0.03292622 0.02318125 -0.00879148
v 0.03512571 0.01764712 0.01129971
v 0.00093508 0.03745397 0.01129971
v 0.00132947 0.04541284 -0.00779046
v 0.00218651 0.04567909 -0.00879148
v 0.03231946 0.02422722 -0.00879148
v 0.03469339 0.01840783 0.01129971
v 0.00220926 0.03730183 0.01129971
v 0.00852710 0.04410063 -0.00879148
v 0.00267191 0.03720674 0.01129971
v 0.00295254 0.03714018 0.01129971
v 0.03145484 0.02556796 -0.00879148
v 0.03411697 0.01911148 0.01129971
v 0.02734407 0.03187230 -0.00879148
v 0.02647945 0.03316550 -0.00879148
v 0.02569825 0.03420196 -0.00879148
v 0.02463643 0.03558073 -0.00879148
v 0.02265690 0.03810057 -0.00879148
v 0.01044596 0.04361568 -0.00879148
v 0.02109450 0.03229069 0.01129971
v 0.03279728 0.02068994 0.01129971
v 0.02190604 0.03896587 -0.00879148
v 0.02832247 0.02590077 0.01129971
v 0.01158362 0.04330189 -0.00879148
v 0.02170126 0.03206247 0.01129971
v 0.01896328 0.04080107 -0.00879148
v 0.01276679 0.04292154 -0.00879148
v 0.02145856 0.03931770 -0.00879148
v 0.02405243 0.03067419 0.01129971
v 0.02437856 0.03033187 0.01129971
v 0.02606989 0.02848716 0.01129971
v 0.02301336 0.03147293 0.01129971
v 0.01906187 0.04076304 -0.00879148
v 0.02103383 0.03964100 -0.00879148
f 1 2 3
f 1 3 4
f 1 4 5
f 1 5 6
f 1 6 7
f 1 7 8
f 1 8 24
f 1 24 28
f 1 28 51
f 1 51 50
f 1 50 77
f 1 77 95
f 1 95 115
f 1 115 114
f 1 114 133
f 1 133 110
f 1 110 109
f 1 109 108
f 1 108 129
f 1 129 150
f 1 150 167
f 1 167 182
f 1 182 186
f 1 186 190
f 1 190 179
f 1 179 160
f 1 160 159
f 1 159 178
f 1 178 188
f 1 188 194
f 1 194 199
f 1 199 205
f 1 205 204
f 1 204 213
f 1 213 217
f 1 217 222
f 1 222 228
f 1 228 236
f 1 236 238
f 1 238 246
f 1 246 245
f 1 245 244
f 1 244 247
f 1 247 240
f 1 240 235
f 1 235 226
f 1 226 225
f 1 225 223
f 1 223 218
f 1 218 214
f 1 214 206
f 1 206 200
f 1 200 195
f 1 195 191
f 1 191 184
f 1 184 171
f 1 171 152
f 1 152 134
f 1 134 116
f 1 116 96
f 1 96 78
f 1 78 57
f 1 57 56
f 1 56 52
f 1 52 29
f 1 29 9
f 1 9 31
f 1 31 55
f 1 55 54
f 1 54 53
f 1 53 41
f 1 41 13
f 1 13 10
f 1 10 2
f 2 10 3
f 3 11 12
f 3 12 4
f 3 10 13
f 3 13 14
f 3 14 15
f 3 15 16
f 3 16 17
f 3 17 18
f 3 18 19
f 3 19 20
f 3 20 21
f 3 21 11
f 4 12 22
f 4 22 5
f 5 22 23
f 5 23 6
f 6 24 7
f 6 23 25
f 6 25 26
f 6 26 27
f 6 27 28
f 6 28 24
f 7 24 8
f 9 29 30
f 9 30 31
f 11 32 33
f 11 33 12
f 11 21 34
f 11 34 35
f 11 35 36
f 11 36 37
f 11 37 38
f 11 38 32
f 12 33 22
f 13 39 40
f 13 40 14
f 13 41 30
f 13 30 39
f 14 40 39
f 14 39 30
f 14 30 58
f 14 58 80
f 14 80 99
f 14 99 98
f 14 98 117
f 14 117 136
f 14 136 135
f 14 135 155
f 14 155 154
f 14 154 153
f 14 153 172
f 14 172 185
f 14 185 192
f 14 192 197
f 14 197 196
f 14 196 202
f 14 202 201
f 14 201 207
f 14 207 215
f 14 215 220
f 14 220 224
f 14 224 234
f 14 234 239
f 14 239 242
f 14 242 241
f 14 241 248
f 14 248 249
f 14 249 243
f 14 243 237
f 14 237 233
f 14 233 232
f 14 232 231
f 14 231 230
f 14 230 229
f 14 229 227
f 14 227 221
f 14 221 216
f 14 216 212
f 14 212 211
f 14 211 210
f 14 210 209
f 14 209 208
f 14 208 203
f 14 203 198
f 14 198 193
f 14 193 189
f 14 189 187
f 14 187 177
f 14 177 158
f 14 158 147
f 14 147 146
f 14 146 145
f 14 145 144
f 14 144 143
f 14 143 142
f 14 142 141
f 14 141 137
f 14 137 124
f 14 124 121
f 14 121 120
f 14 120 118
f 14 118 100
f 14 100 81
f 14 81 63
f 14 63 62
f 14 62 61
f 14 61 60
f 14 60 59
f 14 59 38
f 14 38 37
f 14 37 36
f 14 36 35
f 14 35 34
f 14 34 21
f 14 21 20
f 14 20 19
f 14 19 18
f 14 18 17
f 14 17 16
f 14 16 15
f 22 33 42
f 22 42 23
f 23 42 43
f 23 43 44
f 23 44 25
f 25 45 46
f 25 46 47
f 25 47 26
f 25 44 48
f 25 48 45
f 26 47 27
f 27 49 50
f 27 50 51
f 27 51 28
f 27 47 49
f 29 52 30
f 30 41 53
f 30 53 54
f 30 54 55
f 30 55 31
f 30 52 56
f 30 56 57
f 30 57 58
f 32 38 59
f 32 59 60
f 32 60 61
f 32 61 62
f 32 62 63
f 32 63 33
f 33 43 42
f 33 63 64
f 33 64 65
f 33 65 66
f 33 66 67
f 33 67 68
f 33 68 69
f 33 69 70
f 33 70 43
f 43 70 71
f 43 71 72
f 43 72 73
f 43 73 44
f 44 73 74
f 44 74 48
f 45 48 74
f 45 74 75
f 45 75 46
f 46 75 47
f 47 75 49
f 49 75 76
f 49 76 77
f 49 77 50
f 57 78 79
f 57 79 80
f 57 80 58
f 63 81 82
f 63 82 64
f 64 82 65
f 65 82 83
f 65 83 84
f 65 84 85
f 65 85 86
f 65 86 87
f 65 87 68
f 65 68 66
f 66 68 67
f 68 87 88
f 68 88 69
f 69 89 90
f 69 90 71
f 69 71 70
f 69 88 91
f 69 91 89
f 71 90 89
f 71 89 72
f 72 89 73
f 73 89 92
f 73 92 93
f 73 93 75
f 73 75 74
f 75 93 76
f 76 93 94
f 76 94 95
f 76 95 77
f 78 96 97
f 78 97 98
f 78 98 99
f 78 99 79
f 79 99 80
f 81 100 82
f 82 100 101
f 82 101 83
f 83 102 84
f 83 101 103
f 83 103 104
f 83 104 102
f 84 105 106
f 84 106 85
f 84 102 105
f 85 106 107
f 85 107 108
f 85 108 109
f 85 109 86
f 86 109 110
f 86 110 87
f 87 110 111
f 87 111 91
f 87 91 88
f 89 91 112
f 89 112 92
f 91 111 112
f 92 112 113
f 92 113 94
f 92 94 93
f 94 113 114
f 94 114 115
f 94 115 95
f 96 116 97
f 97 117 98
f 97 116 117
f 100 118 103
f 100 103 101
f 102 104 119
f 102 119 105
f 103 118 120
f 103 120 121
f 103 121 104
f 104 122 123
f 104 123 119
f 104 121 124
f 104 124 125
f 104 125 122
f 105 119 123
f 105 123 126
f 105 126 127
f 105 127 128
f 105 128 106
f 106 128 107
f 107 129 108
f 107 128 130
f 107 130 131
f 107 131 132
f 107 132 129
f 110 133 111
f 111 133 113
f 111 113 112
f 113 133 114
f 116 134 135
f 116 135 136
f 116 136 117
f 122 125 123
f 123 125 126
f 124 137 125
f 125 138 139
f 125 139 132
f 125 132 131
f 125 131 140
f 125 140 127
f 125 127 126
f 125 137 141
f 125 141 142
f 125 142 143
f 125 143 144
f 125 144 145
f 125 145 146
f 125 146 147
f 125 147 138
f 127 140 128
f 128 140 130
f 129 132 148
f 129 148 149
f 129 149 150
f 130 140 131
f 132 139 151
f 132 151 148
f 134 152 153
f 134 153 154
f 134 154 155
f 134 155 135
f 138 156 157
f 138 157 139
f 138 147 156
f 139 157 151
f 147 158 159
f 147 159 160
f 147 160 161
f 147 161 162
f 147 162 163
f 147 163 164
f 147 164 156
f 148 151 165
f 148 165 149
f 149 165 166
f 149 166 150
f 150 166 167
f 151 157 168
f 151 168 169
f 151 169 170
f 151 170 166
f 151 166 165
f 152 171 172
f 152 172 153
f 156 164 173
f 156 173 157
f 157 173 174
f 157 174 175
f 157 175 176
f 157 176 168
f 158 177 178
f 158 178 159
f 160 179 180
f 160 180 175
f 160 175 181
f 160 181 174
f 160 174 173
f 160 173 162
f 160 162 161
f 162 164 163
f 162 173 164
f 166 170 167
f 167 170 182
f 168 176 183
f 168 183 182
f 168 182 169
f 169 182 170
f 171 184 172
f 172 184 185
f 174 181 175
f 175 180 176
f 176 180 186
f 176 186 183
f 177 187 178
f 178 187 189
f 178 189 188
f 179 190 180
f 180 190 186
f 182 183 186
f 184 191 192
f 184 192 185
f 188 189 193
f 188 193 194
f 191 195 196
f 191 196 197
f 191 197 192
f 193 198 199
f 193 199 194
f 195 200 201
f 195 201 202
f 195 202 196
f 198 203 204
f 198 204 205
f 198 205 199
f 200 206 201
f 201 206 207
f 203 208 204
f 204 208 209
f 204 209 210
f 204 210 211
f 204 211 212
f 204 212 213
f 206 214 215
f 206 215 207
f 212 216 213
f 213 216 217
f 214 218 215
f 215 219 220
f 215 218 219
f 216 221 222
f 216 222 217
f 218 223 219
f 219 223 220
f 220 223 225
f 220 225 226
f 220 226 224
f 221 227 222
f 222 227 229
f 222 229 230
f 222 230 231
f 222 231 232
f 222 232 233
f 222 233 228
f 224 226 234
f 226 235 234
f 228 233 236
f 233 237 238
f 233 238 236
f 234 235 239
f 235 240 241
f 235 241 242
f 235 242 239
f 237 243 244
f 237 244 245
f 237 245 246
f 237 246 238
f 240 247 248
f 240 248 241
f 243 249 247
f 243 247 244
f 247 249 248

