# https://github.com/mikedh/trimesh
v -0.00390471 -0.03738503 -0.09675416
v -0.00317518 -0.03738503 -0.09672458
v -0.00598836 -0.03738503 -0.09644070
v -0.00390471 -0.03686822 -0.09666248
v -0.00317518 -0.03686822 -0.09667727
v -0.00317518 -0.03738503 -0.06654351
v -0.00810349 -0.03738503 -0.09592319
v -0.01657977 -0.03490855 -0.09332678
v -0.01657977 -0.03394275 -0.09306359
v -0.00598836 -0.03686822 -0.09628101
v -0.00406610 -0.03459987 -0.09584334
v -0.00317518 -0.03467470 -0.09600895
v -0.00317518 -0.01349486 -0.06654351
v -0.01100589 -0.03738503 -0.06654351
v -0.01100721 -0.03738503 -0.09516910
v -0.01657977 -0.03509329 -0.09336522
v -0.01657977 -0.02947153 -0.09167371
v -0.01657977 -0.02738558 -0.09098764
v -0.01657583 -0.01349486 -0.08601660
v -0.00317518 -0.03376268 -0.09560382
v -0.01100589 -0.01349486 -0.06654351
v -0.00317518 -0.01349486 -0.07439781
v -0.01657977 -0.03738503 -0.06654647
v -0.01172756 -0.03738503 -0.09497984
v -0.01657977 -0.03668347 -0.09351308
v -0.01217499 -0.03738503 -0.09486156
v -0.01373772 -0.03738503 -0.09444460
v -0.01590272 -0.03738503 -0.09384724
v -0.01657977 -0.01377548 -0.08603435
v -0.00317518 -0.03064546 -0.09292460
v -0.00317518 -0.03170480 -0.09388273
v -0.00317518 -0.03350779 -0.09548553
v -0.01657977 -0.01349486 -0.08571497
v -0.00317518 -0.01683190 -0.07897258
v -0.00317518 -0.01866529 -0.08129989
v -0.00317518 -0.01953522 -0.08233491
v -0.00317518 -0.02057585 -0.08350595
v -0.00317518 -0.02160246 -0.08454984
v -0.00317518 -0.02953233 -0.09189550
v -0.01657977 -0.01349486 -0.06654647
v -0.01657977 -0.03738503 -0.09346873
v -0.01657977 -0.03679105 -0.09351012
v -0.01639607 -0.03738503 -0.09359293
f 1 2 6
f 1 6 14
f 1 14 23
f 1 23 41
f 1 41 43
f 1 43 28
f 1 28 27
f 1 27 26
f 1 26 24
f 1 24 15
f 1 15 7
f 1 7 3
f 1 3 4
f 1 4 5
f 1 5 2
f 2 5 12
f 2 12 20
f 2 20 32
f 2 32 31
f 2 31 30
f 2 30 39
f 2 39 38
f 2 38 37
f 2 37 36
f 2 36 35
f 2 35 34
f 2 34 22
f 2 22 13
f 2 13 6
f 3 7 8
f 3 8 9
f 3 9 10
f 3 10 4
f 4 10 11
f 4 11 12
f 4 12 5
f 6 13 21
f 6 21 14
f 7 15 16
f 7 16 8
f 8 16 25
f 8 25 42
f 8 42 41
f 8 41 23
f 8 23 40
f 8 40 33
f 8 33 29
f 8 29 18
f 8 18 17
f 8 17 9
f 9 17 10
f 10 17 18
f 10 18 11
f 11 18 19
f 11 19 12
f 12 19 20
f 13 22 19
f 13 19 33
f 13 33 40
f 13 40 21
f 14 21 40
f 14 40 23
f 15 24 16
f 16 24 26
f 16 26 27
f 16 27 28
f 16 28 25
f 18 29 19
f 19 30 31
f 19 31 32
f 19 32 20
f 19 29 33
f 19 22 34
f 19 34 35
f 19 35 36
f 19 36 37
f 19 37 38
f 19 38 39
f 19 39 30
f 25 28 43
f 25 43 42
f 41 42 43

