# https://github.com/mikedh/trimesh
v -0.03356653 0.01751514 0.00372531
v -0.03349141 0.01765036 0.00371674
v -0.03349141 0.01945041 0.00195978
v -0.03441729 0.02094059 -0.00104322
v -0.03364387 0.01738275 0.00372531
v -0.03349141 0.01526438 0.00372531
v -0.03349141 0.02154061 -0.00008388
v -0.03401124 0.02232936 -0.00172199
v -0.03442622 0.02301952 -0.00310893
v -0.03620657 0.02252373 -0.00569414
v -0.03440539 0.01883912 0.00102371
v -0.03399191 0.01812925 0.00241311
v -0.03438308 0.01674047 0.00309188
v -0.03365130 0.01736866 0.00372531
v -0.03349141 0.00090905 0.00372531
v -0.03349141 0.02276600 -0.00128336
v -0.03349141 0.02380546 -0.00232602
v -0.03400381 0.02440829 -0.00382201
v -0.03510965 0.02346742 -0.00475807
v -0.03587488 0.02404490 -0.00676130
v -0.03617013 0.02453506 -0.00785787
v -0.03642967 0.02300262 -0.00676130
v -0.03698668 0.02358855 -0.00879148
v -0.03771994 0.02154061 -0.00879148
v -0.03545843 0.01312911 0.00372531
v -0.03479657 0.01506155 0.00372531
v -0.03472294 0.01527565 0.00372531
v -0.03471178 0.01530381 0.00372531
v -0.03597008 0.00090905 0.00372531
v -0.03349141 0.00090905 -0.00879148
v -0.03349141 0.02483366 -0.00340299
v -0.03440390 0.02503930 -0.00521140
v -0.03483821 0.02569002 -0.00671107
v -0.03474153 0.02770980 -0.00879148
v -0.03679035 0.02401955 -0.00879148
v -0.03688108 0.02372095 -0.00866896
v -0.03586819 0.02574636 -0.00866896
v -0.03589050 0.02581397 -0.00879148
v -0.03599164 0.02561678 -0.00879148
v -0.03693463 0.02371250 -0.00879148
v -0.03775713 0.02141948 -0.00879148
v -0.03548595 0.01312911 0.00365302
v -0.03595446 0.01115722 0.00372531
v -0.04070356 0.00090905 -0.00872164
v -0.03656279 0.00675710 0.00372531
v -0.03834612 0.00519931 -0.00137281
v -0.03956277 0.00479648 -0.00467843
v -0.03349141 0.02968732 -0.00879148
v -0.04072735 0.00090905 -0.00879148
v -0.03349141 0.02567875 -0.00433537
v -0.03435928 0.02705344 -0.00737146
v -0.03507842 0.02715485 -0.00879148
v -0.04087163 0.00707260 -0.00879148
v -0.03831414 0.00807544 -0.00143652
v -0.03715475 0.00896279 0.00157016
v -0.03597156 0.01108116 0.00372531
v -0.04091550 0.00278515 -0.00879148
v -0.04082998 0.00192316 -0.00879148
v -0.04015994 0.00479648 -0.00624916
v -0.04055111 0.00479648 -0.00729059
v -0.03656948 0.00683879 0.00372531
v -0.03354496 0.02773233 -0.00671107
v -0.04088725 0.00693175 -0.00879148
v -0.04052136 0.00652892 -0.00736533
v -0.03646611 0.00886983 0.00372531
v -0.03647355 0.00889237 0.00368978
v -0.03645570 0.00892335 0.00372531
v -0.04108878 0.00479648 -0.00879148
v -0.03734736 0.00687823 0.00157016
v -0.04108655 0.00485845 -0.00879148
f 1 2 3
f 1 3 4
f 1 4 5
f 1 5 14
f 1 14 28
f 1 28 27
f 1 27 26
f 1 26 25
f 1 25 43
f 1 43 56
f 1 56 67
f 1 67 65
f 1 65 61
f 1 61 45
f 1 45 29
f 1 29 15
f 1 15 6
f 1 6 2
f 2 6 15
f 2 15 30
f 2 30 48
f 2 48 50
f 2 50 31
f 2 31 17
f 2 17 16
f 2 16 7
f 2 7 3
f 3 7 8
f 3 8 4
f 4 8 9
f 4 9 10
f 4 10 11
f 4 11 12
f 4 12 5
f 5 12 13
f 5 13 14
f 7 16 8
f 8 16 9
f 9 16 17
f 9 17 18
f 9 18 19
f 9 19 10
f 10 19 20
f 10 20 21
f 10 21 22
f 10 22 23
f 10 23 24
f 10 24 25
f 10 25 26
f 10 26 27
f 10 27 28
f 10 28 13
f 10 13 11
f 11 13 12
f 13 28 14
f 15 29 44
f 15 44 49
f 15 49 30
f 17 31 18
f 18 31 32
f 18 32 19
f 19 32 20
f 20 32 33
f 20 33 34
f 20 34 21
f 21 35 36
f 21 36 22
f 21 34 37
f 21 37 38
f 21 38 39
f 21 39 35
f 22 36 40
f 22 40 23
f 23 40 35
f 23 35 39
f 23 39 38
f 23 38 52
f 23 52 34
f 23 34 48
f 23 48 30
f 23 30 49
f 23 49 58
f 23 58 57
f 23 57 68
f 23 68 70
f 23 70 63
f 23 63 53
f 23 53 41
f 23 41 24
f 24 41 25
f 25 41 42
f 25 42 43
f 29 45 46
f 29 46 47
f 29 47 44
f 31 50 32
f 32 50 51
f 32 51 33
f 33 51 34
f 34 52 37
f 34 51 48
f 35 40 36
f 37 52 38
f 41 53 54
f 41 54 55
f 41 55 56
f 41 56 43
f 41 43 42
f 44 57 58
f 44 58 49
f 44 47 59
f 44 59 60
f 44 60 57
f 45 61 59
f 45 59 46
f 46 59 47
f 48 51 62
f 48 62 50
f 50 62 51
f 53 63 64
f 53 64 54
f 54 64 65
f 54 65 66
f 54 66 55
f 55 66 67
f 55 67 56
f 57 60 68
f 59 61 60
f 60 61 69
f 60 69 68
f 61 65 69
f 63 70 64
f 64 70 69
f 64 69 65
f 65 67 66
f 68 69 70

