# https://github.com/mikedh/trimesh
v -0.02270794 -0.04094290 -0.05867292
v -0.01526794 -0.05978617 -0.05867292
v -0.02270794 -0.03709876 -0.05658131
v -0.02270794 0.05928432 -0.05867292
v -0.01431872 -0.06212062 -0.05867292
v -0.02270794 -0.02695023 -0.05143450
v -0.02270794 0.05973164 -0.05467676
v -0.01758751 0.06430268 -0.05867292
v -0.01350320 -0.06395182 -0.05867292
v -0.01305533 -0.06395182 -0.05810325
v -0.01326255 -0.06286149 -0.05781629
v -0.01154460 -0.06603464 -0.05743864
v -0.01201253 -0.06395182 -0.05699581
v -0.01090956 -0.06395182 -0.05595426
v -0.00987344 -0.06395182 -0.05512456
v -0.00921835 -0.06104425 -0.05355373
v -0.00932530 -0.05499148 -0.05143450
v -0.02270794 0.05977358 -0.05143450
v -0.02270794 0.05994133 -0.05259296
v -0.02201942 0.06040262 -0.05467676
v -0.01762093 0.06431665 -0.05675916
v -0.01635754 0.06536505 -0.05867292
v -0.02214643 0.06047251 -0.05259296
v -0.01989371 0.06238759 -0.05467676
v -0.01246040 -0.06603464 -0.05867292
v -0.01124379 -0.06713896 -0.05773056
v -0.00946568 -0.06539163 -0.05544978
v -0.00885738 -0.06242815 -0.05380668
v -0.00722633 -0.05911520 -0.05143450
v -0.00874374 -0.05616569 -0.05143450
v -0.00895765 -0.05636140 -0.05165981
v -0.02201942 0.06033273 -0.05143450
v -0.01754740 0.06423278 -0.05556173
v -0.01520778 0.06618980 -0.05821520
v -0.01590298 0.06570055 -0.05867292
v -0.01979344 0.06227576 -0.05320159
v -0.01155129 -0.06743252 -0.05867292
v -0.01014083 -0.06838307 -0.05867292
v -0.01014751 -0.06747445 -0.05739259
v -0.00806859 -0.06555937 -0.05524714
v -0.00746698 -0.06325289 -0.05334046
v -0.00677846 -0.06048511 -0.05167186
v -0.00812875 -0.06178513 -0.05306555
v -0.00806859 -0.06659380 -0.05612785
v -0.00653781 -0.06026145 -0.05143450
v -0.02128411 0.06083596 -0.05143450
v -0.00157781 0.07330495 -0.05867292
v -0.01467969 0.06652529 -0.05867292
v -0.01960627 0.06164672 -0.05143450
v -0.00806859 -0.06906802 -0.05867292
v -0.00806859 -0.06874651 -0.05829526
v -0.00806859 -0.06771209 -0.05716940
v -0.00598299 -0.06335074 -0.05322993
v -0.00548164 -0.06117006 -0.05143450
v -0.00298159 0.06806295 -0.05143450
v -0.00206579 0.06839843 -0.05143450
v -0.00146417 0.06860811 -0.05143450
v 0.00026714 0.07373829 -0.05867292
v -0.00598299 -0.06898415 -0.05867292
v -0.00389738 -0.06125394 -0.05143450
v -0.00598299 -0.06439915 -0.05422117
v -0.00099625 0.06869198 -0.05143450
v 0.00207200 0.07329097 -0.05867292
v 0.00026714 0.06870596 -0.05143450
v 0.00075512 0.06862209 -0.05143450
v 0.00170434 0.06842639 -0.05143450
v 0.00289421 0.06813283 -0.05143450
v -0.00435862 -0.06871856 -0.05867292
v 0.00110941 -0.06047113 -0.05143450
v -0.00064197 -0.06084856 -0.05153086
v -0.00181846 -0.06093243 -0.05143450
v -0.00389738 -0.06214857 -0.05230813
v 0.01068180 0.06993609 -0.05867292
v 0.00443167 0.06762961 -0.05143450
v 0.00632342 0.06691669 -0.05143450
v 0.00040752 -0.06793575 -0.05867292
v 0.00443167 -0.05992596 -0.05143450
v -0.00057512 -0.06073672 -0.05143450
v 0.01286768 0.06905543 -0.05867292
v 0.00779404 0.06634357 -0.05143450
v 0.01180482 0.06476397 -0.05143450
v 0.01769399 0.06244351 -0.05143450
v 0.01828892 0.06220587 -0.05143450
v 0.00234607 -0.06761424 -0.05867292
v 0.00651728 -0.05957649 -0.05143450
v 0.01628353 0.06656722 -0.05739330
v 0.01390380 0.06849628 -0.05867292
v 0.01896407 0.06192630 -0.05143450
v 0.01938520 0.06174457 -0.05143450
v 0.01962584 0.06188436 -0.05190922
v 0.00320838 -0.06746048 -0.05867292
v 0.00651728 -0.06026145 -0.05212178
v 0.00823523 -0.06105824 -0.05338794
v 0.00860957 -0.05900337 -0.05143450
v 0.01648406 0.06677691 -0.05867292
v 0.01488644 0.06786724 -0.05867292
v 0.02030099 0.06223383 -0.05329866
v 0.02066865 0.06254136 -0.05467676
v 0.02645085 0.05801227 -0.05342619
v 0.03253387 0.05373478 -0.05377197
v 0.02102293 0.06079403 -0.05143450
v 0.00443167 -0.06720886 -0.05867292
v 0.00651728 -0.06129587 -0.05316333
v 0.00961895 -0.06082060 -0.05364371
v 0.00651728 -0.06336472 -0.05525210
v 0.00651728 -0.06441312 -0.05633970
v 0.00798121 -0.06314106 -0.05548096
v 0.00973927 -0.05859799 -0.05143450
v 0.03864362 0.04945730 -0.05867292
v 0.03844308 0.04930354 -0.05467676
v 0.03855004 0.04938741 -0.05675916
v 0.02103630 0.06138113 -0.05259933
v 0.02525431 0.05847356 -0.05267656
v 0.02832255 0.05578965 -0.05163147
v 0.03687220 0.04968096 -0.05143450
v 0.02881721 0.05613912 -0.05302020
v 0.02361657 0.05957787 -0.05259296
v 0.03817570 0.04912182 -0.05259296
v 0.03953936 0.04808739 -0.05259296
v 0.02209247 0.06005315 -0.05143450
v 0.00667102 -0.06621637 -0.05867292
v 0.00770046 -0.06514002 -0.05762712
v 0.00651728 -0.06539163 -0.05738125
v 0.01177808 -0.05766141 -0.05143450
v 0.01077539 -0.05813669 -0.05143450
v 0.03951263 0.04850675 -0.05867292
v 0.03965301 0.04826912 -0.05467676
v 0.04069581 0.04717878 -0.05467676
v 0.02215263 0.06001122 -0.05143450
v 0.02470617 0.05822194 -0.05143450
v 0.02767414 0.05613912 -0.05143450
v 0.03929203 0.04787771 -0.05143450
v 0.04064233 0.04654973 -0.05238535
v 0.00790100 -0.06533571 -0.05867292
v 0.01190509 -0.05894746 -0.05332559
v 0.01239307 -0.05722807 -0.05143450
v 0.00971253 -0.06298730 -0.05757256
v 0.01366315 -0.05654312 -0.05188300
v 0.03968643 0.04831105 -0.05867292
v 0.04121721 0.04613037 -0.05467676
v 0.04119715 0.04604650 -0.05675916
v 0.04066907 0.04709490 -0.05675916
v 0.04110357 0.04592069 -0.05294156
v 0.04016104 0.04656371 -0.05143450
v 0.04088298 0.04540348 -0.05155212
v 0.00907081 -0.06407763 -0.05867292
v 0.01389043 -0.05609580 -0.05143450
v 0.01287436 -0.05686463 -0.05143450
v 0.01094250 -0.06198083 -0.05867292
v 0.01109625 -0.06179911 -0.05864670
v 0.01792795 -0.05244736 -0.05377267
v 0.01953894 -0.04983335 -0.05143450
v 0.01038100 -0.06198083 -0.05683001
v 0.01391048 -0.05678075 -0.05327173
v 0.01599609 -0.05380329 -0.05143450
v 0.04064233 0.04701103 -0.05867292
v 0.04318249 0.04171311 -0.05867292
v 0.04199263 0.04436906 -0.05675916
v 0.04187899 0.04436906 -0.05467676
v 0.04312233 0.04158730 -0.05722254
v 0.04115705 0.04597661 -0.05867292
v 0.04193246 0.04436906 -0.05867292
v 0.04130411 0.04457874 -0.05238535
v 0.04240039 0.04228623 -0.05467676
v 0.04083619 0.04530563 -0.05143450
v 0.04308222 0.03349364 -0.05143450
v 0.04293516 0.03483559 -0.05166194
v 0.01657097 -0.05564848 -0.05867292
v 0.01866994 -0.05328608 -0.05867292
v 0.01971274 -0.05211188 -0.05867292
v 0.02159781 -0.04751289 -0.05143450
v 0.01570865 -0.05437642 -0.05213311
v 0.04371726 0.04020341 -0.05867292
v 0.04293516 0.04107009 -0.05583310
v 0.04423198 0.03812058 -0.05867292
v 0.04179877 0.04228623 -0.05259296
v 0.04287500 0.03863779 -0.05397956
v 0.04306217 0.03968620 -0.05536759
v 0.04388438 0.02862905 -0.05143450
v 0.04409828 0.02978929 -0.05259296
v 0.04372395 0.03187211 -0.05259296
v 0.04328945 0.03406677 -0.05245125
v 0.01978627 -0.05202800 -0.05867292
v 0.02168471 -0.04780643 -0.05259296
v 0.02241334 -0.04657631 -0.05143450
v 0.04468653 0.03563238 -0.05867292
v 0.04463306 0.03592593 -0.05867292
v 0.04317581 0.03802273 -0.05467535
v 0.04409828 0.03603776 -0.05675916
v 0.04401807 0.02770646 -0.05143450
v 0.04440578 0.02770646 -0.05259296
v 0.04506087 0.02881077 -0.05567013
v 0.04495392 0.03020864 -0.05607896
v 0.04514109 0.03132694 -0.05746769
v 0.02058175 -0.05106347 -0.05867292
v 0.02197883 -0.04814192 -0.05467676
v 0.02256040 -0.04677201 -0.05259296
v 0.02419813 -0.04438166 -0.05143450
v 0.04510098 0.03333987 -0.05867292
v 0.04401138 0.02559568 -0.05143450
v 0.04448600 0.02562363 -0.05259296
v 0.04506087 0.02770646 -0.05565880
v 0.04525473 0.02770646 -0.05675916
v 0.04558228 0.02770646 -0.05867292
v 0.04556222 0.02962154 -0.05867292
v 0.04555554 0.02977531 -0.05867292
v 0.04534163 0.03194200 -0.05867292
v 0.02171145 -0.04965162 -0.05867292
v 0.02211921 -0.04830967 -0.05577996
v 0.02620352 -0.04194936 -0.05199991
v 0.02740676 -0.04022999 -0.05143450
v 0.04370390 0.02354081 -0.05143450
v 0.04428546 0.02354081 -0.05259296
v 0.04503413 0.02145798 -0.05579979
v 0.04485365 0.02354081 -0.05467676
v 0.04490713 0.02545589 -0.05486595
v 0.04496729 0.01937516 -0.05601094
v 0.04521462 0.02145798 -0.05684135
v 0.04552880 0.02145798 -0.05867292
v 0.02244007 -0.04871505 -0.05867292
v 0.02227296 -0.04850537 -0.05716869
v 0.02776773 -0.04127838 -0.05675916
v 0.02695220 -0.04116656 -0.05265389
v 0.02811533 -0.03964288 -0.05259296
v 0.02798832 -0.03947514 -0.05143450
v 0.03437214 -0.02644699 -0.05143450
v 0.04512104 0.01593640 -0.05764412
v 0.04518120 0.01729233 -0.05740180
v 0.04546864 0.01729233 -0.05867292
v 0.04550874 0.01937516 -0.05867292
v 0.02693215 -0.04289991 -0.05867292
v 0.02877711 -0.04050956 -0.05867292
v 0.02879048 -0.03842673 -0.05143450
v 0.03398444 -0.02844595 -0.05143450
v 0.04491381 0.01311270 -0.05867292
v 0.04532826 0.01527940 -0.05867292
v 0.02975306 -0.03894395 -0.05867292
v 0.03034131 -0.03768586 -0.05675916
v 0.03016083 -0.03739231 -0.05467676
v 0.02891080 -0.03859447 -0.05259296
v 0.02925172 -0.03776974 -0.05143450
v 0.03326918 -0.03061264 -0.05143450
v 0.03325581 -0.03061264 -0.05259296
v 0.04252740 0.00390075 -0.05867292
v 0.04276805 0.00478140 -0.05867292
v 0.04380416 0.00876533 -0.05867292
v 0.04465311 0.01205032 -0.05867292
v 0.03044158 -0.03749016 -0.05867292
v 0.03083597 -0.03663746 -0.05675916
v 0.03274778 -0.03208040 -0.05259296
v 0.03223306 -0.03311483 -0.05259296
v 0.03246034 -0.03240191 -0.05143450
v 0.03076913 -0.03635789 -0.05467676
v 0.03060201 -0.03606433 -0.05259296
v 0.03050843 -0.03589658 -0.05143450
v 0.02995360 -0.03709876 -0.05259296
v 0.02988007 -0.03686112 -0.05143450
v 0.03269430 -0.03194062 -0.05143450
v 0.03268762 -0.03199653 -0.05413969
v 0.03213948 -0.03298903 -0.05143450
v 0.03132395 -0.03477829 -0.05259296
v 0.03109667 -0.03484819 -0.05143450
f 1 2 3
f 1 3 6
f 1 6 18
f 1 18 19
f 1 19 7
f 1 7 4
f 1 4 8
f 1 8 22
f 1 22 35
f 1 35 48
f 1 48 47
f 1 47 58
f 1 58 63
f 1 63 73
f 1 73 79
f 1 79 87
f 1 87 96
f 1 96 95
f 1 95 109
f 1 109 126
f 1 126 139
f 1 139 156
f 1 156 161
f 1 161 162
f 1 162 157
f 1 157 173
f 1 173 175
f 1 175 187
f 1 187 186
f 1 186 199
f 1 199 207
f 1 207 206
f 1 206 205
f 1 205 204
f 1 204 219
f 1 219 230
f 1 230 229
f 1 229 236
f 1 236 235
f 1 235 247
f 1 247 246
f 1 246 245
f 1 245 244
f 1 244 248
f 1 248 237
f 1 237 232
f 1 232 231
f 1 231 220
f 1 220 208
f 1 208 195
f 1 195 183
f 1 183 170
f 1 170 169
f 1 169 168
f 1 168 149
f 1 149 146
f 1 146 134
f 1 134 121
f 1 121 102
f 1 102 91
f 1 91 84
f 1 84 76
f 1 76 68
f 1 68 59
f 1 59 50
f 1 50 38
f 1 38 37
f 1 37 25
f 1 25 9
f 1 9 5
f 1 5 2
f 2 5 6
f 2 6 3
f 4 7 8
f 5 9 10
f 5 10 11
f 5 11 6
f 6 11 12
f 6 12 13
f 6 13 14
f 6 14 15
f 6 15 16
f 6 16 17
f 6 17 30
f 6 30 29
f 6 29 45
f 6 45 54
f 6 54 60
f 6 60 71
f 6 71 78
f 6 78 69
f 6 69 77
f 6 77 85
f 6 85 94
f 6 94 108
f 6 108 125
f 6 125 124
f 6 124 136
f 6 136 148
f 6 148 147
f 6 147 155
f 6 155 152
f 6 152 171
f 6 171 185
f 6 185 198
f 6 198 211
f 6 211 225
f 6 225 233
f 6 233 241
f 6 241 257
f 6 257 255
f 6 255 262
f 6 262 260
f 6 260 252
f 6 252 258
f 6 258 242
f 6 242 234
f 6 234 226
f 6 226 212
f 6 212 200
f 6 200 190
f 6 190 179
f 6 179 166
f 6 166 165
f 6 165 144
f 6 144 132
f 6 132 115
f 6 115 131
f 6 131 130
f 6 130 129
f 6 129 120
f 6 120 101
f 6 101 89
f 6 89 88
f 6 88 83
f 6 83 82
f 6 82 81
f 6 81 80
f 6 80 75
f 6 75 74
f 6 74 67
f 6 67 66
f 6 66 65
f 6 65 64
f 6 64 62
f 6 62 57
f 6 57 56
f 6 56 55
f 6 55 49
f 6 49 46
f 6 46 32
f 6 32 18
f 7 19 20
f 7 20 8
f 8 21 22
f 8 20 19
f 8 19 23
f 8 23 24
f 8 24 21
f 9 25 26
f 9 26 12
f 9 12 10
f 10 12 11
f 12 26 27
f 12 27 14
f 12 14 13
f 14 27 15
f 15 27 28
f 15 28 16
f 16 28 29
f 16 29 30
f 16 30 31
f 16 31 17
f 17 31 30
f 18 32 23
f 18 23 19
f 21 24 33
f 21 33 34
f 21 34 22
f 22 34 35
f 23 32 36
f 23 36 33
f 23 33 24
f 25 37 26
f 26 37 38
f 26 38 39
f 26 39 27
f 27 40 41
f 27 41 42
f 27 42 43
f 27 43 28
f 27 39 44
f 27 44 40
f 28 43 29
f 29 43 42
f 29 42 45
f 32 46 36
f 33 47 34
f 33 36 47
f 34 48 35
f 34 47 48
f 36 46 49
f 36 49 47
f 38 50 39
f 39 50 51
f 39 51 52
f 39 52 44
f 40 53 54
f 40 54 41
f 40 44 53
f 41 54 45
f 41 45 42
f 44 52 53
f 47 55 56
f 47 56 57
f 47 57 58
f 47 49 55
f 50 59 51
f 51 59 52
f 52 59 60
f 52 60 61
f 52 61 53
f 53 61 60
f 53 60 54
f 57 62 58
f 58 62 64
f 58 64 65
f 58 65 66
f 58 66 67
f 58 67 63
f 59 68 69
f 59 69 70
f 59 70 71
f 59 71 72
f 59 72 60
f 60 72 71
f 63 67 74
f 63 74 75
f 63 75 73
f 68 76 77
f 68 77 69
f 69 78 70
f 70 78 71
f 73 75 80
f 73 80 81
f 73 81 82
f 73 82 83
f 73 83 79
f 76 84 77
f 77 84 85
f 79 86 87
f 79 83 88
f 79 88 89
f 79 89 90
f 79 90 86
f 84 91 85
f 85 92 93
f 85 93 94
f 85 91 92
f 86 95 96
f 86 96 87
f 86 90 97
f 86 97 98
f 86 98 99
f 86 99 100
f 86 100 95
f 89 101 90
f 90 101 97
f 91 102 92
f 92 103 93
f 92 102 103
f 93 104 94
f 93 103 105
f 93 105 106
f 93 106 107
f 93 107 104
f 94 104 108
f 95 100 110
f 95 110 111
f 95 111 109
f 97 101 112
f 97 112 99
f 97 99 98
f 99 113 114
f 99 114 115
f 99 115 116
f 99 116 100
f 99 112 117
f 99 117 113
f 100 116 115
f 100 115 118
f 100 118 119
f 100 119 110
f 101 120 112
f 102 121 122
f 102 122 123
f 102 123 106
f 102 106 105
f 102 105 103
f 104 124 125
f 104 125 108
f 104 107 122
f 104 122 124
f 106 123 107
f 107 123 122
f 109 111 127
f 109 127 128
f 109 128 126
f 110 119 127
f 110 127 111
f 112 120 129
f 112 129 117
f 113 117 129
f 113 129 114
f 114 129 130
f 114 130 131
f 114 131 115
f 115 132 118
f 118 132 119
f 119 132 133
f 119 133 128
f 119 128 127
f 121 134 122
f 122 135 136
f 122 136 124
f 122 134 137
f 122 137 138
f 122 138 135
f 126 128 139
f 128 140 141
f 128 141 142
f 128 142 139
f 128 133 143
f 128 143 140
f 132 144 133
f 133 144 145
f 133 145 143
f 134 146 137
f 135 138 147
f 135 147 148
f 135 148 136
f 137 146 149
f 137 149 150
f 137 150 151
f 137 151 152
f 137 152 153
f 137 153 138
f 138 154 155
f 138 155 147
f 138 153 154
f 139 142 156
f 140 157 158
f 140 158 141
f 140 143 159
f 140 159 160
f 140 160 157
f 141 161 156
f 141 156 142
f 141 158 162
f 141 162 161
f 143 145 163
f 143 163 164
f 143 164 159
f 144 165 145
f 145 165 166
f 145 166 167
f 145 167 163
f 149 168 150
f 150 168 151
f 151 168 169
f 151 169 170
f 151 170 152
f 152 155 172
f 152 172 153
f 152 170 171
f 153 172 154
f 154 172 155
f 157 160 173
f 157 162 158
f 159 164 160
f 160 164 174
f 160 174 175
f 160 175 173
f 163 167 176
f 163 176 164
f 164 176 167
f 164 167 177
f 164 177 178
f 164 178 174
f 166 179 180
f 166 180 167
f 167 180 181
f 167 181 182
f 167 182 178
f 167 178 177
f 170 183 184
f 170 184 171
f 171 184 185
f 174 178 186
f 174 186 187
f 174 187 175
f 178 182 188
f 178 188 189
f 178 189 186
f 179 190 191
f 179 191 180
f 180 191 192
f 180 192 193
f 180 193 194
f 180 194 181
f 181 194 182
f 182 189 188
f 182 194 189
f 183 195 196
f 183 196 185
f 183 185 184
f 185 196 197
f 185 197 198
f 186 189 194
f 186 194 199
f 190 200 201
f 190 201 191
f 191 201 192
f 192 202 203
f 192 203 204
f 192 204 205
f 192 205 206
f 192 206 207
f 192 207 194
f 192 194 193
f 192 201 202
f 194 207 199
f 195 208 209
f 195 209 196
f 196 209 198
f 196 198 197
f 198 209 210
f 198 210 211
f 200 212 213
f 200 213 201
f 201 214 215
f 201 215 216
f 201 216 202
f 201 213 217
f 201 217 214
f 202 216 203
f 203 216 218
f 203 218 219
f 203 219 204
f 208 220 221
f 208 221 209
f 209 221 222
f 209 222 223
f 209 223 210
f 210 223 211
f 211 223 224
f 211 224 225
f 212 226 213
f 213 227 217
f 213 226 227
f 214 218 216
f 214 216 215
f 214 217 228
f 214 228 229
f 214 229 230
f 214 230 218
f 217 227 228
f 218 230 219
f 220 231 222
f 220 222 221
f 222 232 224
f 222 224 223
f 222 231 232
f 224 232 233
f 224 233 225
f 226 234 227
f 227 235 236
f 227 236 228
f 227 234 235
f 228 236 229
f 232 237 238
f 232 238 239
f 232 239 240
f 232 240 233
f 233 240 241
f 234 242 243
f 234 243 244
f 234 244 245
f 234 245 246
f 234 246 247
f 234 247 235
f 237 248 238
f 238 248 249
f 238 249 250
f 238 250 251
f 238 251 252
f 238 252 253
f 238 253 254
f 238 254 255
f 238 255 239
f 239 256 240
f 239 255 256
f 240 256 241
f 241 256 257
f 242 250 243
f 242 258 250
f 243 250 259
f 243 259 244
f 244 259 248
f 248 259 250
f 248 250 249
f 250 258 251
f 251 258 252
f 252 260 253
f 253 260 261
f 253 261 254
f 254 261 255
f 255 257 256
f 255 261 262
f 260 262 261

