# https://github.com/mikedh/trimesh
v -0.04725971 -0.04232208 0.03907117
v -0.04615241 -0.04232208 0.03907117
v -0.04698098 -0.04222022 0.04116019
v -0.04802279 -0.04184191 0.04116019
v -0.04823298 -0.04190010 0.03958471
v -0.04823298 -0.04194376 0.03907117
v -0.04823298 -0.04193648 0.03899283
v -0.04706628 -0.04223477 0.03758274
v -0.04511060 -0.04165275 0.03907117
v -0.04045293 -0.03720025 0.08212248
v -0.04633822 -0.04222022 0.04116019
v -0.04631309 -0.04223477 0.03758274
v -0.04045293 -0.03643633 0.02002622
v -0.04669464 -0.04209654 0.04231786
v -0.04749427 -0.04169640 0.04310124
v -0.04823298 -0.04141993 0.04314477
v -0.04823298 -0.04174732 0.04116019
v -0.04823298 -0.04162364 0.03694732
v -0.04823298 -0.04149269 0.03640766
v -0.04823298 -0.04097614 0.03485830
v -0.04765115 -0.04115075 0.03491052
v -0.04700763 -0.04010310 0.03148104
v -0.04556830 -0.03872079 0.02657183
v -0.04556830 -0.03941922 0.02866086
v -0.04556830 -0.03987029 0.03005354
v -0.04045293 -0.03645089 0.02016549
v -0.04045293 -0.03646544 0.02032217
v -0.04393857 -0.04061238 0.03907117
v -0.04045293 -0.03704746 0.08281013
v -0.04823298 -0.03850253 0.05734143
v -0.04823298 -0.03884447 0.05578336
v -0.04823298 -0.03989939 0.05077841
v -0.04823298 -0.04005945 0.05000373
v -0.04823298 -0.04021223 0.04926387
v -0.04823298 -0.04059782 0.04735763
v -0.04823298 -0.04100524 0.04532083
v -0.04656060 -0.04209654 0.04231786
v -0.04085808 -0.03739667 0.04116019
v -0.04045293 -0.03696743 0.04116019
v -0.04140259 -0.03656001 0.02002622
v -0.04045293 0.01314502 0.02002622
v -0.04823298 -0.03993577 0.03194237
v -0.04556830 -0.03813149 0.02490061
v -0.04348544 -0.03670552 0.02032217
v -0.04045293 -0.03664732 0.08363703
v -0.04099135 -0.03648726 0.08281013
v -0.04823298 -0.03802963 0.05916932
v -0.04823298 -0.03839340 0.05782016
v -0.04345726 -0.03660366 0.02002622
v -0.04057630 0.01298497 0.02002622
v -0.04045293 0.02314132 0.02909607
v -0.04823298 -0.03985574 0.03172476
v -0.04673043 -0.03796415 0.02537935
v -0.04556830 -0.03770952 0.02386480
v -0.04045293 -0.03625445 0.08417669
v -0.04460721 -0.03383904 0.07979845
v -0.04711425 -0.03209297 0.07656046
v -0.04823298 -0.03093619 0.07587282
v -0.04499179 -0.03613077 0.02002622
v -0.04194101 0.01120979 0.02002622
v -0.04248095 0.01421450 0.02340348
v -0.04253197 0.01636799 0.02542287
v -0.04210931 0.02205730 0.03009706
v -0.04045293 0.02419625 0.03010577
v -0.04823298 -0.03844433 0.02806026
v -0.04823298 -0.03807328 0.02711150
v -0.04054051 -0.03618170 0.08410706
v -0.04045293 -0.01262419 0.10438801
v -0.04210094 -0.00855001 0.10656408
v -0.04286706 -0.00716042 0.10708633
v -0.04476638 -0.00496327 0.10715596
v -0.04823298 -0.01575258 0.09087028
v -0.04678755 -0.03191108 0.07784870
v -0.04823298 -0.03065972 0.07647341
v -0.04715842 -0.03625445 0.02277677
v -0.04577315 -0.03557057 0.02002622
v -0.04811950 -0.03755674 0.02606699
v -0.04264849 0.01019851 0.02002622
v -0.04294397 0.01067141 0.02074867
v -0.04242840 0.01206100 0.02138409
v -0.04257462 0.01851422 0.02744226
v -0.04260585 0.02066771 0.02947035
v -0.04262869 0.02281393 0.03148974
v -0.04045293 0.02462549 0.03064543
v -0.04210017 0.02419625 0.03244722
v -0.04823298 -0.03749853 0.02611051
v -0.04045293 -0.01156199 0.10518880
v -0.04071186 -0.00896470 0.10689484
v -0.04140487 -0.00779337 0.10735617
v -0.04353113 -0.00563260 0.10759118
v -0.04332247 -0.00351548 0.10841809
v -0.04485472 -0.00354458 0.10729524
v -0.04563379 -0.00354458 0.10572847
v -0.04679364 -0.00502875 0.10301273
v -0.04823298 -0.00555984 0.09940047
v -0.04823298 -0.03062335 0.07653435
v -0.04823298 -0.03583248 0.02343830
v -0.04605417 -0.03535231 0.02002622
v -0.04823298 -0.03739667 0.02594513
v -0.04823298 -0.00138381 0.02002622
v -0.04363775 0.01111521 0.02232415
v -0.04364004 0.02145345 0.03282150
v -0.04279471 0.02351964 0.03301299
v -0.04245505 0.02459639 0.03383990
v -0.04433153 0.01155900 0.02405630
v -0.04071110 0.02487285 0.03132436
v -0.04045293 0.02501836 0.03121121
v -0.04140411 0.02517842 0.03301299
v -0.04045293 -0.00903745 0.10693835
v -0.04045293 -0.00774972 0.10763470
v -0.04140259 -0.00561805 0.10840068
v -0.04251979 -0.00280249 0.10887942
v -0.04251979 -0.00245328 0.10887942
v -0.04472373 -0.00211861 0.10708633
v -0.04667179 -0.00233687 0.10276031
v -0.04742801 -0.00354458 0.10155912
v -0.04823298 -0.00349365 0.09965289
v -0.04823298 -0.03558512 0.02305531
v -0.04777224 -0.03540324 0.02221099
v -0.04741735 -0.03425374 0.02002622
v -0.04457904 0.01016941 0.02326421
v -0.04823298 -0.03359168 0.02002622
v -0.04823298 0.01708098 0.04552973
v -0.04637098 0.01941636 0.04104703
v -0.04420511 0.02140980 0.03491052
v -0.04328134 0.02354147 0.03491052
v -0.04045293 0.02675716 0.03460588
v -0.04045293 0.02658255 0.03397046
v -0.04369411 0.02354147 0.03699084
v -0.04257310 0.02473462 0.03491052
v -0.04248856 0.02671351 0.04200450
v -0.04139498 0.02978370 0.04951629
v -0.04135385 0.02765930 0.04133428
v -0.04045293 0.02794304 0.03907117
v -0.04045293 0.02597143 0.03288243
v -0.04045293 -0.00561805 0.10850513
v -0.04140259 -0.00410478 0.10880978
v -0.04140259 -0.00306441 0.10890553
v -0.04045293 -0.00222047 0.10894905
v -0.04336131 -0.00158751 0.10773916
v -0.04045293 -0.00171847 0.10894905
v -0.04045293 -0.00081633 0.10884460
v -0.04045293 -0.00065627 0.10878367
v -0.04045293 0.01433818 0.09843429
v -0.04506186 -0.00143473 0.10576329
v -0.04445034 0.00365072 0.10250789
v -0.04452115 0.00582604 0.10051461
v -0.04607473 -0.00156569 0.10352629
v -0.04641210 -0.00094729 0.10211620
v -0.04823298 -0.00110007 0.09773795
v -0.04823298 -0.00136926 0.09798167
v -0.04823298 -0.00222774 0.09874764
v -0.04823298 -0.00336269 0.09956585
v -0.04823298 0.01824503 0.04740985
v -0.04651415 0.02013661 0.04279659
v -0.04441150 0.02215916 0.03699084
v -0.04451201 0.02246472 0.03813110
v -0.04276729 0.02498926 0.03699084
v -0.04407184 0.02342506 0.03892319
v -0.04374209 0.02562221 0.04532083
v -0.04340776 0.02562221 0.04324051
v -0.04251903 0.02883791 0.05018652
v -0.04090149 0.03135517 0.05365952
v -0.04061895 0.03108598 0.05157050
v -0.04045293 0.03124604 0.05157050
v -0.04045293 -0.00418481 0.10880978
v -0.04045293 -0.00370464 0.10886201
v -0.04045293 -0.00313716 0.10891423
v -0.04045293 0.01534217 0.09752904
v -0.04237586 0.01395986 0.09624952
v -0.04285488 0.01464374 0.09486554
v -0.04458513 0.01222833 0.09439550
v -0.04473972 0.00877255 0.09723310
v -0.04539009 0.00687369 0.09739848
v -0.04823298 -0.00003059 0.09674566
v -0.04823298 0.01905259 0.04940313
v -0.04662533 0.02044218 0.04418057
v -0.04461711 0.02265388 0.03951508
v -0.04414267 0.02601508 0.04949018
v -0.04392029 0.02750652 0.05384231
v -0.04345422 0.02770295 0.05157050
v -0.04263936 0.02899796 0.05157050
v -0.04221974 0.03056943 0.05573984
v -0.04045293 0.03175531 0.05365952
v -0.04045293 0.03160981 0.05296318
v -0.04045293 0.01632434 0.09646713
v -0.04225324 0.01603333 0.09390807
v -0.04342223 0.01509481 0.09304635
v -0.04452725 0.01416357 0.09218463
v -0.04424319 0.01361064 0.09357730
v -0.04474734 0.01299952 0.09302024
v -0.04547767 0.01104245 0.09322914
v -0.04677003 0.00832148 0.09259372
v -0.04704495 0.00689552 0.09326395
v -0.04545026 0.00895443 0.09530946
v -0.04621942 0.00689552 0.09531816
v -0.04823298 0.00282861 0.09409086
v -0.04823298 0.01911079 0.04960333
v -0.04823298 0.01914717 0.04973390
v -0.04704343 0.02323590 0.05782016
v -0.04642885 0.02427628 0.05782016
v -0.04400025 0.02785574 0.05573984
v -0.04295920 0.02952906 0.05573984
v -0.04117869 0.03148612 0.05573984
v -0.04045293 0.03194447 0.05469533
v -0.04308638 0.02968184 0.05782016
v -0.04233701 0.03072222 0.05782016
v -0.04045293 0.01767028 0.09454348
v -0.04079487 0.01673904 0.09530946
v -0.04045293 0.01884161 0.09283745
v -0.04065702 0.01869610 0.09270688
v -0.04260128 0.01644802 0.09252409
v -0.04666645 0.01221378 0.08819807
v -0.04644484 0.01166813 0.08959075
v -0.04202326 0.01780851 0.09114882
v -0.04284878 0.01676086 0.09114882
v -0.04389059 0.01542220 0.09114882
v -0.04248095 0.02879426 0.06314718
v -0.04266068 0.02903434 0.06198951
v -0.04443282 0.01612063 0.08771934
v -0.04486309 0.01670266 0.08489915
v -0.04523321 0.01534217 0.08700559
v -0.04601076 0.01512391 0.08498619
v -0.04823298 0.01483290 0.07840576
v -0.04676089 0.01436728 0.08435078
v -0.04655070 0.01405444 0.08574346
v -0.04823298 0.01329780 0.08151319
v -0.04823298 0.01273033 0.08243584
v -0.04621257 0.01099880 0.09114011
v -0.04649816 0.00971107 0.09183645
v -0.04782935 0.00687369 0.09114882
v -0.04823298 0.00571691 0.09126197
v -0.04823298 0.00530222 0.09168848
v -0.04823298 0.00429095 0.09272429
v -0.04784534 0.00479295 0.09322914
v -0.04823298 0.00322148 0.09372528
v -0.04823298 0.02113333 0.05748940
v -0.04817814 0.02130794 0.05780275
v -0.04823298 0.02125701 0.05797684
v -0.04821318 0.02172991 0.05990919
v -0.04563303 0.02562221 0.05782016
v -0.04477247 0.02706273 0.05782016
v -0.04412743 0.02811037 0.05782016
v -0.04045293 0.03198812 0.05573984
v -0.04717213 0.02335231 0.05990919
v -0.04648140 0.02439268 0.05990919
v -0.04474505 0.02699725 0.05990919
v -0.04402005 0.02804490 0.05990919
v -0.04129597 0.03142792 0.05782016
v -0.04045293 0.03200267 0.05674084
v -0.04297825 0.02946358 0.05990919
v -0.04213521 0.03050395 0.05990919
v -0.04109416 0.03130424 0.05990919
v -0.04045293 0.01927085 0.09209758
v -0.04045293 0.01976557 0.09114882
v -0.04098221 0.01911807 0.09114882
v -0.04823298 0.01192277 0.08359351
v -0.04823298 0.01095515 0.08486433
v -0.04671977 0.01027854 0.09045247
v -0.04045293 0.02018754 0.09024358
v -0.04045293 0.02030395 0.08997374
v -0.04250684 0.01841236 0.08821548
v -0.04270637 0.01866700 0.08697947
v -0.04140183 0.02979097 0.06406983
v -0.04426451 0.02006386 0.07864948
v -0.04378549 0.02755745 0.06192858
v -0.04416322 0.02617513 0.06406983
v -0.04493773 0.02513476 0.06406983
v -0.04823298 0.02091507 0.06356499
v -0.04823298 0.01429453 0.07963306
v -0.04823298 0.01363975 0.08092130
v -0.04823298 0.00723018 0.08947760
v -0.04823298 0.00632077 0.09058303
v -0.04823298 0.00365072 0.09332488
v -0.04823298 0.02169354 0.05990919
v -0.04823298 0.02169354 0.05997012
v -0.04823298 0.02149710 0.06198951
v -0.04810884 0.02167898 0.06198951
v -0.04706703 0.02311950 0.06198951
v -0.04045293 0.03190809 0.05782016
v -0.04629634 0.02415987 0.06198951
v -0.04460112 0.02676444 0.06118872
v -0.04077582 0.03115873 0.06198951
v -0.04045293 0.03064946 0.06487063
v -0.04054736 0.03099868 0.06360850
v -0.04045293 0.03166073 0.05984826
v -0.04045293 0.03176259 0.05909099
v -0.04045293 0.03134789 0.06198951
v -0.04823298 0.00748482 0.08916424
v -0.04045293 0.02270480 0.08415928
v -0.04109035 0.02158440 0.08490785
v -0.04075755 0.02717185 0.07239982
v -0.04045293 0.02755745 0.07239982
v -0.04045293 0.02886701 0.06922276
v -0.04045293 0.02927443 0.06823047
v -0.04045293 0.03049668 0.06524491
v -0.04438940 0.02648070 0.06258140
v -0.04823298 0.02142435 0.06221582
v -0.04045293 0.03104233 0.06366073
v -0.04045293 0.02417442 0.08059924
f 1 2 11
f 1 11 3
f 1 3 4
f 1 4 5
f 1 5 6
f 1 6 7
f 1 7 8
f 1 8 12
f 1 12 2
f 2 9 10
f 2 10 11
f 2 12 13
f 2 13 9
f 3 11 37
f 3 37 14
f 3 14 10
f 3 10 15
f 3 15 4
f 4 15 16
f 4 16 17
f 4 17 5
f 5 17 16
f 5 16 36
f 5 36 35
f 5 35 34
f 5 34 33
f 5 33 32
f 5 32 31
f 5 31 30
f 5 30 48
f 5 48 47
f 5 47 58
f 5 58 74
f 5 74 96
f 5 96 72
f 5 72 95
f 5 95 117
f 5 117 153
f 5 153 152
f 5 152 151
f 5 151 150
f 5 150 175
f 5 175 197
f 5 197 236
f 5 236 274
f 5 274 234
f 5 234 233
f 5 233 232
f 5 232 273
f 5 273 272
f 5 272 289
f 5 289 258
f 5 258 257
f 5 257 228
f 5 228 227
f 5 227 271
f 5 271 270
f 5 270 224
f 5 224 269
f 5 269 298
f 5 298 277
f 5 277 276
f 5 276 275
f 5 275 239
f 5 239 237
f 5 237 199
f 5 199 198
f 5 198 176
f 5 176 154
f 5 154 123
f 5 123 100
f 5 100 122
f 5 122 118
f 5 118 97
f 5 97 99
f 5 99 86
f 5 86 66
f 5 66 65
f 5 65 52
f 5 52 42
f 5 42 20
f 5 20 19
f 5 19 18
f 5 18 7
f 5 7 6
f 7 18 8
f 8 18 19
f 8 19 20
f 8 20 21
f 8 21 22
f 8 22 23
f 8 23 24
f 8 24 25
f 8 25 12
f 9 13 26
f 9 26 27
f 9 27 28
f 9 28 10
f 10 29 30
f 10 30 31
f 10 31 32
f 10 32 33
f 10 33 34
f 10 34 35
f 10 35 36
f 10 36 16
f 10 16 15
f 10 14 37
f 10 37 11
f 10 28 38
f 10 38 39
f 10 39 27
f 10 27 26
f 10 26 13
f 10 13 41
f 10 41 51
f 10 51 64
f 10 64 84
f 10 84 107
f 10 107 135
f 10 135 128
f 10 128 127
f 10 127 134
f 10 134 165
f 10 165 185
f 10 185 184
f 10 184 205
f 10 205 244
f 10 244 250
f 10 250 280
f 10 280 287
f 10 287 286
f 10 286 288
f 10 288 299
f 10 299 284
f 10 284 296
f 10 296 295
f 10 295 294
f 10 294 293
f 10 293 300
f 10 300 290
f 10 290 261
f 10 261 260
f 10 260 255
f 10 255 254
f 10 254 210
f 10 210 208
f 10 208 186
f 10 186 169
f 10 169 144
f 10 144 143
f 10 143 142
f 10 142 141
f 10 141 139
f 10 139 168
f 10 168 167
f 10 167 166
f 10 166 136
f 10 136 110
f 10 110 109
f 10 109 87
f 10 87 68
f 10 68 55
f 10 55 45
f 10 45 29
f 12 25 40
f 12 40 13
f 13 40 49
f 13 49 59
f 13 59 76
f 13 76 98
f 13 98 120
f 13 120 122
f 13 122 100
f 13 100 78
f 13 78 60
f 13 60 50
f 13 50 41
f 20 42 22
f 20 22 21
f 22 42 43
f 22 43 23
f 23 43 44
f 23 44 24
f 24 44 25
f 25 44 40
f 27 39 28
f 28 39 38
f 29 45 46
f 29 46 47
f 29 47 48
f 29 48 30
f 40 44 49
f 41 50 51
f 42 52 43
f 43 52 53
f 43 53 54
f 43 54 49
f 43 49 44
f 45 55 56
f 45 56 46
f 46 56 47
f 47 56 57
f 47 57 58
f 49 54 59
f 50 60 51
f 51 60 61
f 51 61 62
f 51 62 63
f 51 63 64
f 52 65 53
f 53 65 66
f 53 66 59
f 53 59 54
f 55 67 56
f 55 68 69
f 55 69 70
f 55 70 71
f 55 71 67
f 56 67 71
f 56 71 72
f 56 72 73
f 56 73 57
f 57 73 74
f 57 74 58
f 59 75 76
f 59 66 77
f 59 77 75
f 60 78 79
f 60 79 80
f 60 80 61
f 61 80 79
f 61 79 62
f 62 81 63
f 62 79 81
f 63 81 82
f 63 82 83
f 63 83 64
f 64 83 85
f 64 85 84
f 66 86 77
f 68 87 69
f 69 87 88
f 69 88 89
f 69 89 70
f 70 89 90
f 70 90 71
f 71 90 91
f 71 91 92
f 71 92 93
f 71 93 94
f 71 94 72
f 72 94 95
f 72 96 73
f 73 96 74
f 75 97 98
f 75 98 76
f 75 77 86
f 75 86 99
f 75 99 97
f 78 100 79
f 79 100 101
f 79 101 83
f 79 83 82
f 79 82 81
f 83 102 103
f 83 103 104
f 83 104 85
f 83 101 105
f 83 105 100
f 83 100 102
f 84 85 106
f 84 106 107
f 85 104 108
f 85 108 106
f 87 109 88
f 88 109 89
f 89 109 110
f 89 110 111
f 89 111 90
f 90 111 91
f 91 111 112
f 91 112 113
f 91 113 92
f 92 113 114
f 92 114 93
f 93 114 115
f 93 115 116
f 93 116 94
f 94 116 117
f 94 117 95
f 97 118 98
f 98 118 119
f 98 119 120
f 100 105 121
f 100 121 101
f 100 123 124
f 100 124 125
f 100 125 102
f 101 121 105
f 102 125 103
f 103 125 126
f 103 126 104
f 104 127 128
f 104 128 108
f 104 126 129
f 104 129 130
f 104 130 131
f 104 131 132
f 104 132 133
f 104 133 134
f 104 134 127
f 106 108 128
f 106 128 135
f 106 135 107
f 110 136 111
f 111 136 137
f 111 137 112
f 112 137 138
f 112 138 139
f 112 139 141
f 112 141 113
f 113 140 114
f 113 141 142
f 113 142 143
f 113 143 144
f 113 144 140
f 114 145 115
f 114 140 144
f 114 144 146
f 114 146 147
f 114 147 145
f 115 145 148
f 115 148 149
f 115 149 150
f 115 150 151
f 115 151 152
f 115 152 153
f 115 153 117
f 115 117 116
f 118 122 120
f 118 120 119
f 123 154 155
f 123 155 124
f 124 155 125
f 125 155 156
f 125 156 126
f 126 156 157
f 126 157 129
f 129 158 130
f 129 157 159
f 129 159 160
f 129 160 161
f 129 161 162
f 129 162 158
f 130 158 162
f 130 162 131
f 131 162 132
f 132 162 163
f 132 163 164
f 132 164 134
f 132 134 133
f 134 164 165
f 136 166 137
f 137 166 167
f 137 167 168
f 137 168 138
f 138 168 139
f 144 169 170
f 144 170 146
f 145 147 148
f 146 170 147
f 147 170 171
f 147 171 172
f 147 172 173
f 147 173 174
f 147 174 148
f 148 174 149
f 149 174 150
f 150 174 175
f 154 176 155
f 155 176 177
f 155 177 157
f 155 157 156
f 157 178 159
f 157 177 178
f 159 178 179
f 159 179 180
f 159 180 160
f 160 180 181
f 160 181 161
f 161 181 162
f 162 181 182
f 162 182 183
f 162 183 163
f 163 184 185
f 163 185 164
f 163 183 184
f 164 185 165
f 169 186 171
f 169 171 170
f 171 186 187
f 171 187 188
f 171 188 189
f 171 189 190
f 171 190 172
f 172 190 189
f 172 189 191
f 172 191 192
f 172 192 193
f 172 193 194
f 172 194 195
f 172 195 174
f 172 174 173
f 174 195 196
f 174 196 175
f 175 196 197
f 176 198 177
f 177 198 199
f 177 199 178
f 178 199 200
f 178 200 179
f 179 200 180
f 180 200 201
f 180 201 202
f 180 202 181
f 181 202 203
f 181 203 182
f 182 203 183
f 183 204 205
f 183 205 184
f 183 203 206
f 183 206 207
f 183 207 204
f 186 208 209
f 186 209 187
f 187 209 208
f 187 208 210
f 187 210 211
f 187 211 212
f 187 212 188
f 188 212 189
f 189 213 214
f 189 214 191
f 189 212 215
f 189 215 216
f 189 216 217
f 189 217 218
f 189 218 219
f 189 219 220
f 189 220 221
f 189 221 222
f 189 222 223
f 189 223 224
f 189 224 225
f 189 225 226
f 189 226 227
f 189 227 228
f 189 228 213
f 191 214 229
f 191 229 192
f 192 229 230
f 192 230 193
f 193 230 231
f 193 231 232
f 193 232 233
f 193 233 234
f 193 234 194
f 194 235 196
f 194 196 195
f 194 234 235
f 196 235 197
f 197 235 236
f 199 237 238
f 199 238 200
f 200 238 239
f 200 239 240
f 200 240 201
f 201 241 202
f 201 240 241
f 202 241 242
f 202 242 243
f 202 243 203
f 203 243 206
f 204 244 205
f 204 207 244
f 206 243 245
f 206 245 246
f 206 246 247
f 206 247 248
f 206 248 207
f 207 249 250
f 207 250 244
f 207 248 251
f 207 251 252
f 207 252 253
f 207 253 249
f 210 254 211
f 211 254 212
f 212 254 255
f 212 255 256
f 212 256 215
f 213 228 257
f 213 257 258
f 213 258 214
f 214 259 229
f 214 258 259
f 215 256 260
f 215 260 261
f 215 261 216
f 216 261 262
f 216 262 263
f 216 263 217
f 217 263 218
f 218 263 262
f 218 262 264
f 218 264 219
f 219 251 265
f 219 265 220
f 219 264 251
f 220 265 221
f 221 265 251
f 221 251 266
f 221 266 267
f 221 267 268
f 221 268 269
f 221 269 222
f 222 269 224
f 222 224 223
f 224 270 225
f 225 270 226
f 226 270 271
f 226 271 227
f 229 259 230
f 230 259 272
f 230 272 273
f 230 273 231
f 231 273 232
f 234 274 235
f 235 274 236
f 237 239 238
f 239 275 240
f 240 275 276
f 240 276 245
f 240 245 243
f 240 243 242
f 240 242 241
f 245 276 277
f 245 277 246
f 246 277 247
f 247 277 278
f 247 278 248
f 248 278 279
f 248 279 251
f 249 280 250
f 249 253 280
f 251 279 281
f 251 281 282
f 251 282 266
f 251 264 252
f 252 283 253
f 252 264 284
f 252 284 285
f 252 285 283
f 253 286 287
f 253 287 280
f 253 283 288
f 253 288 286
f 255 260 256
f 258 289 259
f 259 289 272
f 261 290 291
f 261 291 262
f 262 291 264
f 264 291 290
f 264 290 292
f 264 292 293
f 264 293 294
f 264 294 295
f 264 295 296
f 264 296 284
f 266 282 297
f 266 297 267
f 267 269 268
f 267 297 269
f 269 297 282
f 269 282 281
f 269 281 279
f 269 279 298
f 277 298 278
f 278 298 279
f 283 285 288
f 284 299 285
f 285 299 288
f 290 300 292
f 292 300 293

