# https://github.com/mikedh/trimesh
v 0.02109252 0.11701781 -0.08175702
v 0.02109252 0.11667274 -0.08348139
v 0.01943387 0.11666097 -0.08337663
v 0.01935576 0.11664921 -0.08175702
v 0.02127631 0.11652765 -0.07974951
v 0.02584793 0.11639434 -0.07622716
v 0.02822335 0.11629631 -0.07440652
v 0.02847145 0.11629631 -0.07440652
v 0.02847145 0.11629631 -0.07487655
v 0.02675767 0.11637473 -0.07759193
v 0.02317388 0.11659431 -0.08169757
v 0.02247550 0.11640217 -0.08313029
v 0.02312334 0.11466509 -0.08595327
v 0.02239739 0.11426121 -0.08708586
v 0.02109252 0.11600614 -0.08452054
v 0.02189199 0.11426121 -0.08708586
v 0.01901117 0.11468863 -0.08532468
v 0.01774306 0.11430435 -0.08499623
v 0.01539981 0.11250845 -0.08525956
v 0.01625900 0.11393967 -0.08384100
v 0.01591900 0.11413182 -0.08268008
v 0.01673684 0.11494350 -0.08189577
v 0.01831279 0.11607672 -0.08175702
v 0.01973712 0.11636689 -0.08049419
v 0.01572603 0.11430042 -0.08034978
v 0.01341954 0.11237121 -0.07809027
v 0.01689306 0.11466509 -0.07966457
v 0.02446037 0.11615122 -0.07672267
v 0.02209415 0.11626102 -0.07860842
v 0.01992550 0.11421024 -0.07647350
v 0.01400765 0.11195164 -0.07670001
v 0.01539522 0.11227318 -0.07635458
v 0.02404685 0.11422985 -0.07441784
v 0.02525983 0.11451218 -0.07424229
v 0.02525983 0.11312015 -0.07369299
v 0.02745605 0.11523367 -0.07414319
v 0.02734118 0.11312015 -0.07371847
v 0.02871037 0.11520229 -0.07425079
v 0.03001983 0.11317898 -0.07555327
v 0.03041038 0.11391615 -0.07694918
v 0.03051146 0.11420631 -0.07833944
v 0.03051146 0.11420631 -0.07877549
v 0.02824632 0.11620220 -0.07626396
v 0.02635334 0.11626886 -0.07870186
v 0.02516793 0.11645707 -0.07950884
v 0.02441442 0.11633552 -0.08096705
v 0.02386307 0.11608064 -0.08235164
v 0.03051146 0.11209672 -0.08492262
v 0.02614659 0.11409653 -0.08473007
v 0.02475902 0.11438669 -0.08528221
v 0.02378496 0.11399458 -0.08666964
v 0.02455226 0.11221436 -0.08926610
v 0.02317388 0.11223004 -0.08925761
v 0.02363793 0.11026946 -0.09129909
v 0.02202982 0.11214378 -0.08910754
v 0.00746034 0.10381521 -0.08910470
v 0.01140251 0.10817163 -0.08718213
v 0.01401224 0.11190459 -0.08422607
v 0.00513547 0.10197616 -0.08935954
v 0.01495414 0.11342993 -0.08189577
v 0.01572603 0.11430042 -0.08129267
v 0.00882034 0.10659924 -0.08592213
v 0.01282224 0.11097527 -0.08360881
v 0.01259711 0.11124975 -0.08175702
v 0.01617630 0.11404555 -0.07896236
v 0.01475657 0.11271627 -0.07747301
v 0.01902955 0.11567676 -0.07974951
v 0.01335981 0.11244179 -0.07967590
v 0.01124170 0.11045767 -0.07759193
v 0.01150359 0.11019887 -0.07641403
v 0.02317388 0.11589634 -0.07717853
v 0.01853793 0.11393576 -0.07695767
v 0.01913982 0.11454746 -0.07762874
v 0.02127631 0.11548070 -0.07778446
v 0.01275792 0.11057139 -0.07619035
v -0.00353454 0.08144881 -0.06654351
v -0.00226184 0.08180171 -0.06654351
v -0.00181616 0.08189974 -0.06654351
v 0.02890794 0.11312015 -0.07418566
v 0.00001249 0.08152723 -0.06654351
v 0.00495628 0.08048420 -0.06654351
v 0.00627953 0.07948430 -0.06654351
v 0.00722602 0.07695906 -0.06654351
v 0.03094335 0.10895194 -0.07590720
v 0.03072281 0.11103801 -0.07602895
v 0.03056200 0.11252806 -0.07627530
v 0.03121443 0.11103801 -0.07759193
v 0.03168767 0.11103801 -0.07967590
v 0.03257443 0.11007732 -0.08269991
v 0.03269849 0.11026162 -0.08384100
v 0.03272605 0.11026946 -0.08524823
v 0.03009794 0.11397105 -0.08016291
v 0.03081010 0.11229670 -0.08384100
v 0.02780064 0.11599438 -0.07759193
v 0.02716659 0.11560226 -0.07950884
v 0.02815902 0.11405732 -0.08251303
v 0.02580199 0.11601791 -0.08009212
v 0.02516793 0.11572382 -0.08169757
v 0.02942713 0.11175559 -0.08640914
v 0.02826929 0.11203007 -0.08687916
v 0.02942713 0.11233984 -0.08536716
v 0.02870578 0.11430827 -0.08112278
v 0.02941335 0.11373186 -0.08179384
v 0.03138902 0.11098311 -0.08577772
v 0.02747902 0.11279862 -0.08608069
v 0.02525064 0.11262216 -0.08805422
v 0.02593983 0.11191636 -0.08878192
v 0.02524604 0.11109291 -0.09009572
v 0.02455226 0.11026946 -0.09129909
v 0.02317388 0.10686980 -0.09255061
v 0.02109252 0.10532485 -0.09305461
v 0.01901117 0.10416419 -0.09337173
v 0.01758684 0.10395244 -0.09331794
v 0.02225036 0.10994007 -0.09108674
v 0.00365142 0.09940780 -0.09097064
v 0.00484601 0.10227418 -0.08800609
v 0.00304952 0.09994108 -0.08958039
v 0.01232143 0.11152031 -0.07967590
v 0.00760737 0.10577971 -0.08469043
v 0.00953710 0.10800301 -0.08314445
v 0.01045143 0.10922643 -0.08175702
v 0.01689306 0.11365344 -0.07762874
v 0.01756846 0.11432003 -0.07834793
v 0.01121872 0.11047728 -0.07967590
v 0.01018034 0.10944601 -0.07967590
v 0.01020332 0.10940287 -0.07759193
v 0.00947278 0.10812457 -0.07640271
v -0.00938347 0.07701004 -0.06654351
v -0.00868509 0.07766487 -0.06654351
v -0.00634184 0.07960586 -0.06654351
v -0.00439832 0.08088416 -0.06654351
v 0.03137524 0.10270158 -0.07615354
v 0.03241362 0.10270158 -0.07677646
v -0.00942022 0.07695906 -0.06654351
v 0.00945440 0.07695906 -0.06761381
v 0.03234930 0.10478765 -0.07715022
v 0.03266633 0.10478765 -0.07819220
v 0.03166011 0.10895194 -0.07759193
v 0.03255605 0.10584638 -0.07861692
v 0.03256524 0.10797165 -0.08066124
v 0.03267092 0.10877942 -0.08190710
v 0.03295119 0.10895194 -0.08384100
v 0.03280875 0.10895194 -0.08553705
v 0.03225740 0.10895194 -0.08657902
v 0.03087902 0.11030474 -0.08723594
v 0.02734118 0.11043023 -0.08943882
v 0.02490145 0.10895194 -0.09153411
v 0.02425820 0.10387010 -0.09324432
v 0.02843470 0.11004203 -0.08907922
v 0.02232388 0.09771385 -0.09536510
v 0.02109252 0.09780796 -0.09539340
v 0.02109252 0.09885100 -0.09507062
v 0.02109252 0.10428575 -0.09338306
v 0.01901117 0.10270158 -0.09385592
v 0.01692522 0.10061944 -0.09448451
v 0.01484387 0.09872944 -0.09503947
v 0.01171494 0.09749819 -0.09529997
v 0.01619927 0.10359561 -0.09310275
v 0.00954629 0.09962346 -0.09324998
v 0.00503899 0.09979992 -0.09130476
v 0.00816332 0.09918821 -0.09297250
v 0.00437736 0.09864317 -0.09173231
v 0.00281060 0.09801970 -0.09139820
v 0.00142303 0.09729820 -0.09098197
v 0.00380763 0.10124291 -0.08800609
v 0.00565007 0.10357209 -0.08592213
v 0.00743277 0.10596009 -0.08330018
v 0.00284277 0.10019987 -0.08800609
v 0.00107844 0.09777267 -0.08959455
v 0.00920170 0.10840298 -0.07967590
v 0.00927521 0.10835984 -0.07759193
v 0.00754304 0.10584245 -0.07653579
v -0.00978320 0.07695906 -0.06714379
v 0.03106281 0.10061944 -0.07624415
v 0.01546873 0.07695906 -0.07050758
v 0.03067686 0.09925095 -0.07637157
v 0.03209659 0.10063513 -0.07749283
v 0.03267092 0.10133702 -0.07811859
v 0.03275362 0.10270158 -0.07781845
v 0.03288687 0.10478765 -0.07967590
v 0.03291903 0.10686980 -0.08175702
v 0.03265714 0.10667374 -0.07985145
v 0.03300173 0.10686980 -0.08384100
v 0.03272605 0.10672471 -0.08602123
v 0.03256984 0.10345445 -0.08699525
v 0.03257443 0.10478765 -0.08699808
v 0.03256065 0.10593656 -0.08697827
v 0.03244119 0.10732465 -0.08678006
v 0.03121443 0.10895194 -0.08745679
v 0.02593983 0.10895194 -0.09091119
v 0.02471307 0.10061944 -0.09358693
v 0.02499793 0.09853730 -0.09381061
v 0.02308198 0.09845888 -0.09485260
v 0.02233307 0.09645907 -0.09537642
v 0.02109252 0.09645907 -0.09546985
v 0.02337604 0.09645907 -0.09486109
v 0.01901117 0.09777658 -0.09538491
v 0.01692522 0.09878825 -0.09505363
v 0.01692522 0.09774522 -0.09537359
v 0.01484387 0.09769032 -0.09535377
v 0.01275792 0.09757269 -0.09531979
v 0.01901117 0.09645907 -0.09545571
v 0.01171494 0.09748250 -0.09529997
v -0.00598346 0.07695906 -0.09227029
v -0.00598346 0.07770801 -0.09226746
v -0.00059859 0.08395836 -0.09317636
v 0.00111060 0.08744036 -0.09329528
v 0.00651385 0.09437300 -0.09396068
v 0.00859980 0.09645907 -0.09433161
v 0.00579250 0.09691785 -0.09308009
v 0.00718007 0.09780012 -0.09337173
v 0.01088332 0.09832947 -0.09452131
v 0.01285440 0.10065081 -0.09377380
v 0.01067656 0.09991363 -0.09348216
v 0.00875602 0.09850985 -0.09358976
v 0.00220871 0.09654927 -0.09162755
v 0.00110141 0.09591403 -0.09126512
v -0.00072264 0.09324370 -0.09108108
v -0.00112697 0.09400833 -0.08969365
v -0.00076859 0.09539643 -0.08899994
v 0.00550764 0.10370541 -0.08425722
v 0.00734548 0.10607380 -0.08175702
v 0.00180439 0.09898432 -0.08800609
v -0.00285913 0.09332997 -0.08694995
v 0.00094060 0.09794128 -0.08800609
v 0.00816332 0.10719525 -0.07967590
v 0.00539736 0.10383481 -0.07838474
v -0.00495887 0.09127136 -0.07859993
v -0.01129023 0.08305257 -0.07844703
v -0.01123050 0.07879809 -0.07231689
v -0.01137293 0.07695906 -0.06997810
v -0.01070212 0.07695906 -0.06878038
v 0.01623143 0.07695906 -0.07117581
v 0.01653927 0.07695906 -0.07154956
v 0.03064929 0.09716488 -0.07830546
v 0.03270768 0.10099979 -0.07967590
v 0.03291903 0.10270158 -0.07967590
v 0.03175200 0.09853730 -0.07967590
v 0.03241362 0.09996068 -0.07967590
v 0.03252849 0.09972542 -0.08175702
v 0.03296038 0.10478765 -0.08175702
v 0.03282714 0.10270158 -0.08175702
v 0.03286849 0.10478765 -0.08384100
v 0.03260659 0.10273688 -0.08582868
v 0.03251930 0.10206636 -0.08645727
v 0.03227578 0.09853730 -0.08592213
v 0.03168308 0.09645907 -0.08800609
v 0.03097551 0.09645907 -0.08949261
v 0.03086983 0.09853730 -0.08935954
v 0.02852199 0.09798834 -0.09123397
v 0.02734118 0.09645907 -0.09218818
v 0.02505766 0.09645907 -0.09382194
v 0.02963848 0.09645907 -0.09053460
v 0.02221361 0.09534153 -0.09533395
v 0.02109252 0.09510235 -0.09537075
v 0.01901117 0.09488668 -0.09536793
v 0.01692522 0.09645907 -0.09539907
v 0.01275792 0.09722763 -0.09531979
v 0.01692522 0.09513371 -0.09532262
v 0.00284277 0.07695906 -0.09328113
v 0.00026519 0.07695906 -0.09300648
v -0.00107183 0.07695906 -0.09286207
v -0.00315319 0.07695906 -0.09263555
v -0.00390211 0.07695906 -0.09254777
v -0.00390211 0.07770801 -0.09257326
v -0.00807860 0.07695906 -0.09167285
v -0.00598346 0.07979015 -0.09200697
v -0.00390211 0.08395836 -0.09197015
v -0.00181616 0.08604050 -0.09238355
v 0.00035709 0.08813049 -0.09281959
v 0.00186871 0.09020872 -0.09297816
v 0.00326088 0.09148702 -0.09326980
v 0.00649547 0.09631791 -0.09351614
v 0.00460250 0.09631791 -0.09271766
v -0.00286373 0.08917744 -0.09113487
v 0.00234655 0.09437300 -0.09221366
v -0.00523914 0.08587974 -0.08993716
v -0.00287751 0.09128705 -0.08908489
v -0.00314859 0.09179679 -0.08800609
v -0.00916752 0.08511119 -0.08291510
v 0.00480007 0.10288980 -0.08367393
v 0.00630250 0.10482686 -0.08175702
v 0.00729034 0.10615222 -0.07967590
v -0.00487157 0.09114588 -0.08384100
v -0.01126266 0.08303688 -0.08086228
v -0.00870347 0.08642871 -0.08175702
v -0.00766049 0.08787562 -0.08175702
v -0.00393887 0.09229086 -0.08384100
v -0.00101670 0.09570620 -0.08592213
v 0.00624737 0.10488960 -0.07967590
v 0.00348601 0.10154483 -0.07967590
v -0.00117292 0.09589835 -0.07967590
v -0.00221589 0.09463181 -0.07967590
v -0.00307049 0.09358878 -0.07967590
v -0.00411346 0.09231047 -0.07967590
v -0.00495887 0.09127136 -0.07967590
v -0.00581346 0.09020872 -0.07967590
v -0.00683806 0.08893433 -0.07967590
v -0.00871725 0.08659339 -0.07967590
v -0.00955347 0.08555036 -0.07967590
v -0.01059644 0.08414657 -0.07967590
v -0.01131779 0.08310746 -0.07967590
v -0.01191969 0.08187622 -0.07967590
v -0.01330726 0.07884907 -0.07833094
v -0.01286158 0.07964115 -0.07761741
v -0.01323375 0.07866869 -0.07694069
v -0.01359212 0.07724530 -0.07551079
v -0.01300861 0.07828835 -0.07551079
v -0.01285699 0.07695906 -0.07315501
v -0.01206672 0.07695906 -0.07140233
v -0.01143726 0.08117040 -0.07607709
v -0.01164861 0.07764919 -0.07151275
v -0.01140509 0.07695906 -0.07004321
v 0.01913522 0.07695906 -0.07762025
v 0.02027468 0.07826481 -0.07833944
v 0.02836578 0.09127919 -0.08079716
v 0.03084686 0.09676100 -0.07967590
v 0.03264794 0.10076452 -0.08175702
v 0.03251470 0.10003910 -0.08384100
v 0.03044713 0.09545525 -0.08081981
v 0.03100767 0.09627085 -0.08160979
v 0.03086983 0.09428282 -0.08601557
v 0.03151767 0.09645907 -0.08384100
v 0.03179795 0.09645907 -0.08592213
v 0.03271686 0.10270158 -0.08384100
v 0.03256065 0.10152523 -0.08506985
v 0.03245957 0.10074492 -0.08582868
v 0.03092957 0.09430634 -0.08788434
v 0.03081470 0.09495334 -0.08937086
v 0.02853118 0.09525527 -0.09123114
v 0.02472226 0.09489844 -0.09355295
v 0.02312793 0.09442398 -0.09424383
v 0.02265469 0.09280062 -0.09354728
v 0.02194252 0.09141251 -0.09310841
v 0.01813360 0.08484063 -0.09121699
v 0.01355738 0.07695906 -0.08892066
v 0.01349305 0.07695906 -0.08895180
v 0.01279467 0.07695906 -0.08925761
v 0.00355033 0.07695906 -0.09328113
v 0.01692522 0.09409068 -0.09523201
v -0.00907563 0.07695906 -0.09126512
v -0.00808319 0.07762174 -0.09155676
v -0.00498184 0.08507589 -0.09116602
v 0.00026519 0.09020872 -0.09229860
v 0.00405115 0.09437300 -0.09293569
v 0.00541115 0.09552975 -0.09324149
v -0.00951212 0.07762174 -0.09000795
v -0.00499103 0.08717372 -0.08914151
v -0.00497724 0.08922843 -0.08702923
v -0.01091806 0.08238989 -0.08224687
v 0.00543872 0.10378383 -0.08175702
v -0.00682427 0.08891865 -0.08175702
v -0.01127644 0.08100180 -0.08297173
v -0.01146482 0.08176643 -0.08163527
v -0.01330726 0.07884907 -0.07870752
v -0.00491292 0.09121253 -0.08219025
v -0.00494968 0.09125567 -0.08080565
v -0.00302454 0.09352995 -0.08175702
v -0.01393672 0.07695906 -0.07760891
v -0.01361050 0.07786877 -0.07761741
v -0.01373915 0.07695906 -0.07551079
v -0.01343591 0.07695906 -0.07464153
v -0.01333023 0.07695906 -0.07434706
v 0.01957171 0.07695906 -0.07943238
v 0.02223198 0.08069986 -0.08048003
v 0.02639469 0.08695022 -0.08254701
v 0.02850362 0.09100863 -0.08218175
v 0.03074118 0.09486708 -0.08384100
v 0.03050227 0.09327900 -0.08677157
v 0.03050227 0.09327900 -0.08711135
v 0.03024037 0.09356524 -0.08849876
v 0.02820037 0.09143605 -0.08873661
v 0.02884821 0.09282414 -0.08939068
v 0.02938578 0.09441222 -0.09007590
v 0.02786037 0.09386718 -0.09078094
v 0.02113847 0.08599345 -0.09012120
v 0.02026550 0.08686395 -0.09127078
v 0.01568008 0.07889612 -0.08894897
v 0.01491278 0.07695906 -0.08817598
v -0.00925022 0.07695906 -0.09107824
v -0.00709535 0.08097435 -0.09119433
v -0.00983374 0.07695906 -0.09000511
v -0.01073888 0.07695906 -0.08822411
v -0.01055509 0.07762958 -0.08793247
v -0.00921347 0.07895102 -0.08925761
v -0.00919969 0.08100571 -0.08714249
v -0.00882293 0.08444851 -0.08430252
v -0.01052752 0.07969996 -0.08583719
v -0.01093185 0.08033519 -0.08436199
v -0.01095023 0.07826874 -0.08647426
v -0.01128563 0.07894710 -0.08508684
v -0.01344050 0.07770801 -0.07901616
v -0.01130401 0.07695906 -0.08704622
v -0.01350483 0.07695906 -0.07926250
v 0.01959009 0.07695906 -0.07966740
v 0.01971874 0.07713944 -0.07967590
v 0.02223198 0.08069986 -0.08093306
v 0.02639469 0.08695022 -0.08310198
v 0.02866443 0.09075768 -0.08384100
v 0.01896063 0.07695906 -0.08123887
v 0.01874468 0.07695906 -0.08170040
v 0.01675062 0.07695906 -0.08594761
v 0.02614659 0.08932254 -0.08883005
v 0.01607062 0.07695906 -0.08717646
v 0.02407902 0.08722078 -0.08888102
v 0.02681280 0.09071063 -0.08940201
v 0.02475902 0.08861279 -0.08941050
v 0.02269145 0.08651105 -0.08942183
v 0.02062387 0.08441322 -0.08943032
v 0.01855630 0.08231539 -0.08942466
v 0.01785792 0.08092729 -0.08896879
v 0.01994387 0.08302513 -0.08894614
v -0.01120752 0.07695906 -0.08726707
v 0.02201144 0.08512295 -0.08891783
f 1 2 3
f 1 3 4
f 1 4 5
f 1 5 6
f 1 6 7
f 1 7 8
f 1 8 9
f 1 9 10
f 1 10 11
f 1 11 2
f 2 11 12
f 2 12 13
f 2 13 14
f 2 14 15
f 2 15 3
f 3 15 16
f 3 16 17
f 3 17 18
f 3 18 19
f 3 19 20
f 3 20 21
f 3 21 22
f 3 22 23
f 3 23 4
f 4 24 5
f 4 23 25
f 4 25 26
f 4 26 27
f 4 27 24
f 5 24 6
f 6 28 7
f 6 24 29
f 6 29 28
f 7 28 30
f 7 30 31
f 7 31 32
f 7 32 33
f 7 33 34
f 7 34 35
f 7 35 36
f 7 36 8
f 8 36 37
f 8 37 38
f 8 38 39
f 8 39 40
f 8 40 41
f 8 41 42
f 8 42 9
f 9 42 43
f 9 43 10
f 10 43 44
f 10 44 45
f 10 45 11
f 11 45 44
f 11 44 46
f 11 46 12
f 12 46 47
f 12 47 48
f 12 48 49
f 12 49 50
f 12 50 13
f 13 50 51
f 13 51 52
f 13 52 14
f 14 16 15
f 14 52 53
f 14 53 16
f 16 53 54
f 16 54 55
f 16 55 17
f 17 55 56
f 17 56 18
f 18 56 57
f 18 57 19
f 19 58 20
f 19 57 59
f 19 59 58
f 20 58 21
f 21 60 61
f 21 61 22
f 21 58 62
f 21 62 63
f 21 63 64
f 21 64 60
f 22 61 23
f 23 61 25
f 24 27 26
f 24 26 65
f 24 65 66
f 24 66 67
f 24 67 29
f 25 61 68
f 25 68 26
f 26 68 69
f 26 69 70
f 26 70 31
f 26 31 66
f 26 66 65
f 28 71 72
f 28 72 30
f 28 29 71
f 29 67 73
f 29 73 74
f 29 74 71
f 30 72 66
f 30 66 31
f 31 70 32
f 32 70 75
f 32 75 33
f 33 75 76
f 33 76 34
f 34 76 35
f 35 76 36
f 36 76 77
f 36 77 78
f 36 78 37
f 37 79 38
f 37 78 80
f 37 80 81
f 37 81 82
f 37 82 83
f 37 83 79
f 38 79 84
f 38 84 85
f 38 85 39
f 39 85 86
f 39 86 40
f 40 86 87
f 40 87 88
f 40 88 89
f 40 89 90
f 40 90 41
f 41 90 91
f 41 91 42
f 42 92 43
f 42 91 93
f 42 93 92
f 43 92 94
f 43 94 44
f 44 94 95
f 44 95 96
f 44 96 97
f 44 97 46
f 46 98 47
f 46 97 96
f 46 96 98
f 47 98 96
f 47 96 48
f 48 99 100
f 48 100 101
f 48 101 49
f 48 96 102
f 48 102 94
f 48 94 103
f 48 103 92
f 48 92 93
f 48 93 91
f 48 91 104
f 48 104 99
f 49 101 105
f 49 105 50
f 50 105 100
f 50 100 106
f 50 106 51
f 51 106 52
f 52 106 107
f 52 107 108
f 52 108 109
f 52 109 53
f 53 109 54
f 54 109 110
f 54 110 111
f 54 111 112
f 54 112 113
f 54 113 114
f 54 114 55
f 55 114 56
f 56 115 59
f 56 59 57
f 56 114 115
f 58 59 116
f 58 116 62
f 59 115 117
f 59 117 116
f 60 64 118
f 60 118 61
f 61 118 68
f 62 116 119
f 62 119 64
f 62 64 63
f 64 119 120
f 64 120 121
f 64 121 118
f 66 72 122
f 66 122 123
f 66 123 67
f 67 123 122
f 67 122 73
f 68 118 69
f 69 118 124
f 69 124 125
f 69 125 126
f 69 126 70
f 70 126 127
f 70 127 128
f 70 128 129
f 70 129 130
f 70 130 131
f 70 131 76
f 70 76 75
f 71 74 73
f 71 73 72
f 72 73 122
f 76 131 130
f 76 130 129
f 76 129 128
f 76 128 134
f 76 134 83
f 76 83 82
f 76 82 81
f 76 81 80
f 76 80 78
f 76 78 77
f 79 132 133
f 79 133 84
f 79 83 132
f 83 134 173
f 83 173 232
f 83 232 231
f 83 231 313
f 83 313 310
f 83 310 309
f 83 309 363
f 83 363 362
f 83 362 361
f 83 361 359
f 83 359 394
f 83 394 393
f 83 393 413
f 83 413 383
f 83 383 382
f 83 382 380
f 83 380 341
f 83 341 266
f 83 266 204
f 83 204 264
f 83 264 263
f 83 263 262
f 83 262 261
f 83 261 260
f 83 260 339
f 83 339 338
f 83 338 337
f 83 337 336
f 83 336 379
f 83 379 404
f 83 404 402
f 83 402 401
f 83 401 400
f 83 400 395
f 83 395 364
f 83 364 314
f 83 314 234
f 83 234 233
f 83 233 175
f 83 175 135
f 83 135 132
f 84 133 85
f 85 133 136
f 85 136 86
f 86 136 137
f 86 137 138
f 86 138 87
f 87 138 88
f 88 138 139
f 88 139 140
f 88 140 89
f 89 140 141
f 89 141 142
f 89 142 90
f 90 142 91
f 91 142 143
f 91 143 144
f 91 144 145
f 91 145 104
f 92 103 94
f 94 102 95
f 95 102 96
f 99 104 145
f 99 145 107
f 99 107 100
f 100 107 106
f 100 105 101
f 107 146 108
f 107 145 146
f 108 146 109
f 109 147 148
f 109 148 110
f 109 146 149
f 109 149 147
f 110 148 150
f 110 150 151
f 110 151 152
f 110 152 153
f 110 153 111
f 111 153 154
f 111 154 155
f 111 155 112
f 112 155 156
f 112 156 157
f 112 157 113
f 113 158 114
f 113 157 158
f 114 158 159
f 114 159 160
f 114 160 115
f 115 160 161
f 115 161 162
f 115 162 163
f 115 163 164
f 115 164 117
f 116 117 165
f 116 165 166
f 116 166 167
f 116 167 119
f 117 168 165
f 117 164 169
f 117 169 168
f 118 121 124
f 119 167 121
f 119 121 120
f 121 167 124
f 124 167 125
f 125 170 126
f 125 167 170
f 126 170 171
f 126 171 127
f 127 171 172
f 127 172 128
f 128 173 134
f 128 172 173
f 132 174 133
f 132 135 175
f 132 175 174
f 133 174 176
f 133 176 177
f 133 177 178
f 133 178 179
f 133 179 136
f 136 179 137
f 137 179 180
f 137 180 181
f 137 181 142
f 137 142 182
f 137 182 139
f 137 139 138
f 139 182 140
f 140 182 141
f 141 182 142
f 142 181 183
f 142 183 143
f 143 183 184
f 143 184 185
f 143 185 186
f 143 186 187
f 143 187 188
f 143 188 144
f 144 188 189
f 144 189 145
f 145 189 149
f 145 149 146
f 147 149 190
f 147 190 148
f 148 190 149
f 148 149 189
f 148 189 191
f 148 191 192
f 148 192 193
f 148 193 150
f 150 194 195
f 150 195 151
f 150 193 192
f 150 192 196
f 150 196 194
f 151 195 197
f 151 197 198
f 151 198 152
f 152 198 153
f 153 198 155
f 153 155 154
f 155 198 156
f 156 198 199
f 156 199 200
f 156 200 201
f 156 201 157
f 157 201 202
f 157 202 203
f 157 203 204
f 157 204 205
f 157 205 206
f 157 206 207
f 157 207 208
f 157 208 209
f 157 209 210
f 157 210 211
f 157 211 212
f 157 212 213
f 157 213 158
f 158 213 214
f 158 214 159
f 159 214 212
f 159 212 161
f 159 161 160
f 161 211 162
f 161 212 215
f 161 215 211
f 162 211 163
f 163 211 210
f 163 210 216
f 163 216 164
f 164 216 217
f 164 217 218
f 164 218 219
f 164 219 220
f 164 220 169
f 165 168 167
f 165 167 166
f 167 168 221
f 167 221 222
f 167 222 170
f 168 169 223
f 168 223 221
f 169 220 224
f 169 224 225
f 169 225 223
f 170 222 226
f 170 226 171
f 171 226 227
f 171 227 228
f 171 228 172
f 172 228 229
f 172 229 230
f 172 230 231
f 172 231 232
f 172 232 173
f 174 175 233
f 174 233 176
f 176 233 234
f 176 234 177
f 177 235 178
f 177 234 235
f 178 236 237
f 178 237 179
f 178 235 238
f 178 238 239
f 178 239 240
f 178 240 236
f 179 237 180
f 180 237 241
f 180 241 183
f 180 183 181
f 183 241 237
f 183 237 242
f 183 242 243
f 183 243 244
f 183 244 185
f 183 185 184
f 185 244 245
f 185 245 246
f 185 246 247
f 185 247 248
f 185 248 186
f 186 248 187
f 187 189 188
f 187 248 249
f 187 249 250
f 187 250 192
f 187 192 189
f 189 192 191
f 192 251 252
f 192 252 196
f 192 250 253
f 192 253 251
f 194 254 195
f 194 196 254
f 195 254 255
f 195 255 256
f 195 256 202
f 195 202 199
f 195 199 197
f 196 252 254
f 197 199 198
f 199 202 200
f 200 202 201
f 202 256 257
f 202 257 258
f 202 258 203
f 203 258 259
f 203 259 260
f 203 260 261
f 203 261 262
f 203 262 263
f 203 263 264
f 203 264 265
f 203 265 204
f 204 265 264
f 204 266 205
f 205 266 267
f 205 267 207
f 205 207 206
f 207 267 268
f 207 268 269
f 207 269 270
f 207 270 271
f 207 271 272
f 207 272 273
f 207 273 208
f 208 273 209
f 209 273 210
f 210 273 274
f 210 274 216
f 211 215 212
f 212 214 213
f 216 268 275
f 216 275 217
f 216 274 276
f 216 276 268
f 217 275 218
f 218 275 219
f 219 275 277
f 219 277 278
f 219 278 220
f 220 278 279
f 220 279 280
f 220 280 224
f 221 281 282
f 221 282 283
f 221 283 226
f 221 226 222
f 221 223 225
f 221 225 281
f 224 284 225
f 224 280 285
f 224 285 286
f 224 286 287
f 224 287 284
f 225 284 288
f 225 288 289
f 225 289 281
f 226 283 227
f 227 283 290
f 227 290 291
f 227 291 292
f 227 292 228
f 228 292 293
f 228 293 294
f 228 294 295
f 228 295 296
f 228 296 297
f 228 297 298
f 228 298 299
f 228 299 300
f 228 300 229
f 229 300 301
f 229 301 302
f 229 302 303
f 229 303 304
f 229 304 305
f 229 305 306
f 229 306 307
f 229 307 308
f 229 308 309
f 229 309 310
f 229 310 311
f 229 311 312
f 229 312 231
f 229 231 230
f 231 312 313
f 234 314 315
f 234 315 235
f 235 316 317
f 235 317 238
f 235 315 316
f 236 240 237
f 237 240 318
f 237 318 319
f 237 319 242
f 238 317 316
f 238 316 320
f 238 320 321
f 238 321 322
f 238 322 323
f 238 323 239
f 239 323 324
f 239 324 240
f 240 246 319
f 240 319 318
f 240 324 246
f 242 325 243
f 242 319 325
f 243 325 244
f 244 325 326
f 244 326 327
f 244 327 245
f 245 327 246
f 246 327 319
f 246 324 247
f 247 324 328
f 247 328 329
f 247 329 248
f 248 329 330
f 248 330 253
f 248 253 249
f 249 253 250
f 251 253 330
f 251 330 252
f 252 330 254
f 254 330 331
f 254 331 332
f 254 332 333
f 254 333 334
f 254 334 335
f 254 335 336
f 254 336 337
f 254 337 338
f 254 338 339
f 254 339 255
f 255 339 256
f 256 340 259
f 256 259 257
f 256 339 260
f 256 260 340
f 257 259 258
f 259 340 260
f 266 341 342
f 266 342 267
f 267 342 341
f 267 341 268
f 268 343 275
f 268 276 344
f 268 344 269
f 268 341 343
f 269 344 271
f 269 271 270
f 271 344 276
f 271 276 274
f 271 274 345
f 271 345 272
f 272 345 346
f 272 346 273
f 273 346 274
f 274 346 345
f 275 343 347
f 275 347 277
f 277 347 278
f 278 347 348
f 278 348 349
f 278 349 279
f 279 349 280
f 280 350 285
f 280 349 350
f 281 351 282
f 281 289 351
f 282 351 283
f 283 351 290
f 284 287 352
f 284 352 288
f 285 350 353
f 285 353 354
f 285 354 355
f 285 355 303
f 285 303 302
f 285 302 301
f 285 301 287
f 285 287 286
f 287 301 300
f 287 300 299
f 287 299 352
f 288 352 356
f 288 356 357
f 288 357 289
f 289 357 358
f 289 358 351
f 290 351 291
f 291 351 357
f 291 357 292
f 292 357 293
f 293 357 294
f 294 357 295
f 295 357 296
f 296 357 352
f 296 352 297
f 297 352 298
f 298 352 299
f 303 355 304
f 304 306 305
f 304 355 359
f 304 359 360
f 304 360 306
f 306 360 361
f 306 361 307
f 307 361 362
f 307 362 363
f 307 363 308
f 308 363 309
f 310 313 312
f 310 312 311
f 314 364 315
f 315 364 365
f 315 365 366
f 315 366 316
f 316 366 367
f 316 367 320
f 319 327 326
f 319 326 325
f 320 367 321
f 321 368 322
f 321 367 368
f 322 324 323
f 322 368 367
f 322 367 369
f 322 369 324
f 324 369 328
f 328 369 370
f 328 370 371
f 328 371 329
f 329 371 372
f 329 372 373
f 329 373 374
f 329 374 330
f 330 374 375
f 330 375 331
f 331 375 376
f 331 376 377
f 331 377 333
f 331 333 332
f 333 377 334
f 334 377 335
f 335 378 336
f 335 377 378
f 336 378 379
f 341 380 381
f 341 381 343
f 343 381 380
f 343 380 347
f 347 380 382
f 347 382 383
f 347 383 384
f 347 384 385
f 347 385 348
f 348 385 349
f 349 385 386
f 349 386 387
f 349 387 350
f 350 387 386
f 350 386 388
f 350 388 389
f 350 389 353
f 351 358 357
f 352 357 356
f 353 389 390
f 353 390 391
f 353 391 354
f 354 391 355
f 355 392 359
f 355 391 393
f 355 393 392
f 359 361 360
f 359 392 394
f 364 395 396
f 364 396 365
f 365 396 397
f 365 397 398
f 365 398 366
f 366 398 370
f 366 370 369
f 366 369 399
f 366 399 367
f 367 399 369
f 370 398 397
f 370 397 395
f 370 395 371
f 371 395 400
f 371 400 401
f 371 401 402
f 371 402 372
f 372 403 373
f 372 402 404
f 372 404 403
f 373 403 405
f 373 405 406
f 373 406 375
f 373 375 374
f 375 406 407
f 375 407 408
f 375 408 376
f 376 409 377
f 376 408 409
f 377 409 410
f 377 410 411
f 377 411 378
f 378 411 379
f 379 411 412
f 379 412 404
f 383 413 384
f 384 413 390
f 384 390 385
f 385 390 388
f 385 388 386
f 388 390 389
f 390 413 391
f 391 413 393
f 392 393 394
f 395 397 396
f 403 404 405
f 404 412 414
f 404 414 405
f 405 414 406
f 406 414 412
f 406 412 407
f 407 412 408
f 408 412 411
f 408 411 409
f 409 411 410

