# https://github.com/mikedh/trimesh
v -0.04823298 -0.04194084 0.03908009
v -0.04830301 -0.04190969 0.03908009
v -0.05149364 -0.04033381 0.03699924
v -0.04823298 -0.04193461 0.03900215
v -0.04823298 -0.04189101 0.03960225
v -0.04973609 -0.04105635 0.04116873
v -0.04973609 -0.04119961 0.03908009
v -0.05253430 -0.03976075 0.03699924
v -0.05128148 -0.04020923 0.03532365
v -0.04973609 -0.04109995 0.03699924
v -0.05139657 -0.04031512 0.03908009
v -0.04823298 -0.04161694 0.03695248
v -0.04823298 -0.04173529 0.04116873
v -0.04973609 -0.04085080 0.04324959
v -0.05097435 -0.04008465 0.04533044
v -0.05116640 -0.04019054 0.04324959
v -0.05493178 -0.03789833 0.04815946
v -0.05343075 -0.03872054 0.03699924
v -0.05333231 -0.03858973 0.03491839
v -0.05191170 -0.03968601 0.03474693
v -0.05243723 -0.03973584 0.03908009
v -0.05495050 -0.03791702 0.04677223
v -0.05495050 -0.03791702 0.04625786
v -0.04823298 -0.04147991 0.03642253
v -0.05069840 -0.03996630 0.03393642
v -0.04989694 -0.04047084 0.03474693
v -0.05232284 -0.03969847 0.04116873
v -0.04823298 -0.04141139 0.04315607
v -0.05081766 -0.04000368 0.04646049
v -0.05409495 -0.03809142 0.05034942
v -0.05409495 -0.03819732 0.04949214
v -0.05484720 -0.03785473 0.04949214
v -0.05531588 -0.03701384 0.05157299
v -0.05531588 -0.03718202 0.04949214
v -0.05425303 -0.03686435 0.03491060
v -0.05501845 -0.03387452 0.02945518
v -0.05313956 -0.03825961 0.03332853
v -0.05487978 -0.03779867 0.04487063
v -0.05195261 -0.03875791 0.03271284
v -0.05531588 -0.03715711 0.04732556
v -0.05531588 -0.03690173 0.04555645
v -0.05526457 -0.03700761 0.04547072
v -0.04823298 -0.04096915 0.03487163
v -0.04823298 -0.04080097 0.03438843
v -0.04882438 -0.03798554 0.02746785
v -0.04823298 -0.03806651 0.02712494
v -0.04823298 -0.03844024 0.02807574
v -0.04823298 -0.03984796 0.03173087
v -0.04823298 -0.04100029 0.04533044
v -0.04969656 -0.04018431 0.04725542
v -0.05036492 -0.03986041 0.04784772
v -0.05309866 -0.03797308 0.05297581
v -0.05347166 -0.03812257 0.05158078
v -0.05409495 -0.03789833 0.05157299
v -0.05451440 -0.03774262 0.05157299
v -0.05531588 -0.03654668 0.05366163
v -0.05509610 -0.03406761 0.03074890
v -0.05531588 -0.03356307 0.03074890
v -0.05531588 -0.03300871 0.02887847
v -0.05531588 -0.03189375 0.02657161
v -0.05521743 -0.03205570 0.02657161
v -0.05471200 -0.03352571 0.02806795
v -0.05499557 -0.03170689 0.02545714
v -0.05273675 -0.03780490 0.03194129
v -0.05120938 -0.03819732 0.03074890
v -0.04823298 -0.03582414 0.02344644
v -0.04823298 -0.03749346 0.02612738
v -0.05078160 -0.03790456 0.02970457
v -0.04823298 -0.04058919 0.04737232
v -0.04849852 -0.03992893 0.05026369
v -0.04973609 -0.03885758 0.05366163
v -0.05181742 -0.03865203 0.05158078
v -0.05409495 -0.03759935 0.05286670
v -0.05124266 -0.03804160 0.05536840
v -0.05263067 -0.03782359 0.05436304
v -0.05409495 -0.03734397 0.05366163
v -0.05517722 -0.03609198 0.05525150
v -0.05531588 -0.03624147 0.05455009
v -0.05531588 -0.03100303 0.02495836
v -0.05531588 -0.02980087 0.02298662
v -0.05527566 -0.02986316 0.02301779
v -0.05531588 -0.02826858 0.02062521
v -0.05531588 -0.02788240 0.02003290
v -0.05409495 -0.03138922 0.02385949
v -0.04956553 -0.03251663 0.02004070
v -0.04823298 -0.03361291 0.02008746
v -0.04823298 -0.04005351 0.05000651
v -0.04823298 -0.03989156 0.05078585
v -0.04823298 -0.03883266 0.05579704
v -0.04993090 -0.03832189 0.05593732
v -0.05383566 -0.03750592 0.05366943
v -0.05075595 -0.03789211 0.05675563
v -0.05409495 -0.03653422 0.05584380
v -0.05409495 -0.03650308 0.05591394
v -0.05483611 -0.03567464 0.05664652
v -0.05531588 -0.02489256 0.07288028
v -0.05531588 0.00100064 0.02003290
v -0.05409495 -0.02886655 0.02003290
v -0.04823298 -0.03358176 0.02004070
v -0.04823298 -0.03849630 0.05734793
v -0.05188813 -0.03763673 0.05593732
v -0.05404503 -0.03655291 0.05587497
v -0.04925354 -0.03808520 0.05783113
v -0.04876753 -0.03793571 0.05895339
v -0.05029489 -0.03766164 0.05783113
v -0.04823298 -0.03093452 0.07585738
v -0.05181742 -0.03688927 0.05783113
v -0.04823298 -0.03066045 0.07645747
v -0.05293157 -0.03381223 0.06317743
v -0.05288997 -0.02752113 0.07346479
v -0.05482363 -0.02526006 0.07319982
v -0.05531588 -0.02389595 0.07399474
v -0.04823298 0.01961234 0.05158858
v -0.04823298 0.01910158 0.04960904
v -0.04823298 0.01904552 0.04941421
v -0.04823298 0.01823577 0.04741129
v -0.04823298 0.01708967 0.04556424
v -0.05409495 0.00093835 0.02003290
v -0.05531588 0.00334267 0.04949214
v -0.05409981 0.01104149 0.06405810
v -0.05346611 0.01311569 0.06196945
v -0.05294197 0.01429293 0.06196945
v -0.04885904 0.02067747 0.05989639
v -0.04823298 0.02125052 0.05797920
v -0.04823298 0.02122561 0.05787789
v -0.04823298 -0.00138500 0.02004070
v -0.04823298 -0.03838418 0.05783113
v -0.05333300 -0.03609198 0.05783113
v -0.04823298 -0.03802291 0.05917160
v -0.04823298 -0.03781113 0.05967038
v -0.05290315 -0.03584282 0.05893001
v -0.04823298 -0.03061685 0.07651982
v -0.05531588 -0.01255327 0.08557580
v -0.04916965 -0.00085555 0.02004070
v -0.05039820 -0.00026381 0.02004070
v -0.05156367 0.00020957 0.02004070
v -0.05181742 0.00030924 0.02004070
v -0.05360616 0.00085737 0.02004070
v -0.05390013 0.00092589 0.02004070
v -0.05531588 0.00341742 0.05050528
v -0.05531588 0.00312466 0.05573469
v -0.05531588 0.00255784 0.05989639
v -0.05531588 0.00029678 0.07238930
v -0.05531588 -0.00000843 0.07407267
v -0.05531588 -0.00152204 0.08072828
v -0.05531588 -0.00200788 0.08261430
v -0.05392648 0.01103526 0.06613895
v -0.05342313 0.01330878 0.06419058
v -0.05531588 0.00347348 0.05157299
v -0.05531588 0.00346102 0.05247703
v -0.05531588 0.00338004 0.05366163
v -0.05296693 0.01433654 0.06358270
v -0.05229996 0.01533937 0.06196945
v -0.04823298 0.02169277 0.05989639
v -0.04823298 -0.01575488 0.09085197
v -0.05295168 -0.01300175 0.08809309
v -0.05531588 -0.01151929 0.08644088
v -0.05531588 -0.00227572 0.08323777
v -0.05329972 0.01281670 0.06613895
v -0.05531588 -0.00322250 0.08497571
v -0.05283312 0.01412476 0.06497772
v -0.04823298 0.02149345 0.06196945
v -0.04883478 0.02062764 0.06196945
v -0.04823298 0.02169277 0.05995874
v -0.05231452 0.01509645 0.06419058
v -0.04823298 -0.00557077 0.09937800
v -0.05531588 -0.01117048 0.08656558
v -0.05304458 0.01240560 0.06776778
v -0.04857618 0.01395658 0.07929429
v -0.05266118 0.01385692 0.06613895
v -0.05531588 -0.00413191 0.08652661
v -0.05081072 0.01420573 0.07146187
v -0.05154287 0.01535806 0.06623247
v -0.05038919 0.01780599 0.06405030
v -0.05115807 0.01675954 0.06405030
v -0.04823298 0.02141870 0.06220325
v -0.04823298 -0.00349657 0.09965078
v -0.04881952 -0.00491051 0.09870777
v -0.05531588 -0.00979391 0.08700201
v -0.05282342 0.01198827 0.06915501
v -0.05077329 0.01206925 0.07549888
v -0.04835778 0.01352679 0.08072048
v -0.04823298 0.01363268 0.08090753
v -0.04823298 0.01428670 0.07962941
v -0.04878763 0.01428670 0.07789926
v -0.04823298 0.01094806 0.08485102
v -0.04823298 0.01096674 0.08482763
v -0.04823298 0.01191975 0.08358068
v -0.04823298 0.01272327 0.08242725
v -0.04872038 0.01213776 0.08184275
v -0.05531588 -0.00567043 0.08723581
v -0.04823298 -0.00223212 0.09873115
v -0.04823298 -0.00137254 0.09796739
v -0.04823298 0.00281945 0.09407846
v -0.04823298 0.00428322 0.09271461
v -0.04823298 0.00570962 0.09124164
v -0.04823298 0.00631382 0.09057141
v -0.04823298 0.00648822 0.09036878
v -0.04823298 0.00722945 0.08946474
v -0.04823298 0.00909810 0.08715788
v -0.04939983 0.01741980 0.06825097
v -0.05071782 0.01616158 0.06698843
v -0.04923205 0.01942548 0.06389443
v -0.04871900 0.02044078 0.06309170
v -0.04823298 0.02090794 0.06354373
v -0.04881952 -0.00415060 0.09870777
v -0.05531588 -0.00648017 0.08724361
v -0.05531588 -0.00765742 0.08722023
v -0.04889926 0.01248658 0.08072048
v -0.04823298 0.01329009 0.08149983
v -0.04823298 0.01482861 0.07839025
v -0.04823298 0.01976806 0.06634158
f 1 2 3
f 1 3 4
f 1 4 12
f 1 12 24
f 1 24 43
f 1 43 44
f 1 44 48
f 1 48 47
f 1 47 46
f 1 46 67
f 1 67 66
f 1 66 86
f 1 86 99
f 1 99 126
f 1 126 117
f 1 117 116
f 1 116 115
f 1 115 114
f 1 114 113
f 1 113 125
f 1 125 124
f 1 124 154
f 1 154 164
f 1 164 162
f 1 162 176
f 1 176 205
f 1 205 212
f 1 212 211
f 1 211 184
f 1 184 183
f 1 183 210
f 1 210 189
f 1 189 188
f 1 188 187
f 1 187 186
f 1 186 200
f 1 200 199
f 1 199 198
f 1 198 197
f 1 197 196
f 1 196 195
f 1 195 194
f 1 194 193
f 1 193 192
f 1 192 177
f 1 177 166
f 1 166 155
f 1 155 132
f 1 132 108
f 1 108 106
f 1 106 130
f 1 130 129
f 1 129 127
f 1 127 100
f 1 100 89
f 1 89 88
f 1 88 87
f 1 87 69
f 1 69 49
f 1 49 28
f 1 28 13
f 1 13 5
f 1 5 2
f 2 5 6
f 2 6 7
f 2 7 3
f 3 8 9
f 3 9 10
f 3 10 4
f 3 7 11
f 3 11 8
f 4 10 12
f 5 13 14
f 5 14 6
f 6 14 15
f 6 15 16
f 6 16 7
f 7 16 17
f 7 17 11
f 8 18 19
f 8 19 20
f 8 20 9
f 8 11 21
f 8 21 17
f 8 17 22
f 8 22 23
f 8 23 18
f 9 24 12
f 9 12 10
f 9 20 25
f 9 25 26
f 9 26 24
f 11 17 27
f 11 27 21
f 13 28 29
f 13 29 15
f 13 15 14
f 15 29 30
f 15 30 31
f 15 31 32
f 15 32 16
f 16 32 17
f 17 32 33
f 17 33 34
f 17 34 22
f 17 21 27
f 18 23 19
f 19 35 36
f 19 36 37
f 19 37 20
f 19 23 38
f 19 38 35
f 20 37 39
f 20 39 25
f 22 34 23
f 23 34 40
f 23 40 41
f 23 41 42
f 23 42 38
f 24 26 43
f 25 44 26
f 25 39 45
f 25 45 46
f 25 46 47
f 25 47 48
f 25 48 44
f 26 44 43
f 28 49 29
f 29 49 50
f 29 50 51
f 29 51 52
f 29 52 53
f 29 53 54
f 29 54 55
f 29 55 30
f 30 55 32
f 30 32 31
f 32 55 33
f 33 55 56
f 33 56 78
f 33 78 96
f 33 96 112
f 33 112 133
f 33 133 157
f 33 157 167
f 33 167 179
f 33 179 208
f 33 208 207
f 33 207 191
f 33 191 171
f 33 171 160
f 33 160 158
f 33 158 146
f 33 146 145
f 33 145 144
f 33 144 143
f 33 143 142
f 33 142 141
f 33 141 151
f 33 151 150
f 33 150 149
f 33 149 140
f 33 140 119
f 33 119 97
f 33 97 83
f 33 83 82
f 33 82 80
f 33 80 79
f 33 79 60
f 33 60 59
f 33 59 58
f 33 58 41
f 33 41 40
f 33 40 34
f 35 57 36
f 35 38 57
f 36 57 58
f 36 58 59
f 36 59 60
f 36 60 61
f 36 61 62
f 36 62 37
f 37 62 63
f 37 63 64
f 37 64 39
f 38 42 58
f 38 58 57
f 39 64 65
f 39 65 45
f 41 58 42
f 45 66 67
f 45 67 46
f 45 65 68
f 45 68 66
f 49 69 50
f 50 69 70
f 50 70 71
f 50 71 51
f 51 71 72
f 51 72 52
f 52 73 55
f 52 55 54
f 52 54 53
f 52 72 71
f 52 71 74
f 52 74 75
f 52 75 73
f 55 73 76
f 55 76 56
f 56 76 77
f 56 77 78
f 60 79 61
f 61 79 63
f 61 63 62
f 63 79 80
f 63 80 81
f 63 81 82
f 63 82 83
f 63 83 64
f 64 68 65
f 64 83 84
f 64 84 68
f 66 85 86
f 66 68 85
f 68 84 85
f 69 87 70
f 70 87 88
f 70 88 89
f 70 89 90
f 70 90 71
f 71 90 74
f 73 75 91
f 73 91 76
f 74 90 92
f 74 92 75
f 75 92 91
f 76 91 77
f 77 93 94
f 77 94 95
f 77 95 96
f 77 96 78
f 77 91 93
f 80 82 81
f 83 97 118
f 83 118 98
f 83 98 84
f 84 98 85
f 85 98 99
f 85 99 86
f 89 100 90
f 90 100 92
f 91 92 101
f 91 101 102
f 91 102 93
f 92 102 101
f 92 100 103
f 92 103 104
f 92 104 105
f 92 105 106
f 92 106 107
f 92 107 102
f 93 102 94
f 94 102 108
f 94 108 95
f 95 109 110
f 95 110 96
f 95 108 109
f 96 110 111
f 96 111 112
f 97 113 114
f 97 114 115
f 97 115 116
f 97 116 117
f 97 117 118
f 97 119 120
f 97 120 121
f 97 121 122
f 97 122 123
f 97 123 124
f 97 124 125
f 97 125 113
f 98 118 126
f 98 126 99
f 100 127 103
f 102 107 128
f 102 128 108
f 103 127 104
f 104 127 129
f 104 129 130
f 104 130 106
f 104 106 105
f 106 108 128
f 106 128 131
f 106 131 107
f 107 131 128
f 108 132 110
f 108 110 109
f 110 132 112
f 110 112 111
f 112 132 133
f 117 126 134
f 117 134 135
f 117 135 136
f 117 136 137
f 117 137 138
f 117 138 139
f 117 139 118
f 118 139 138
f 118 138 137
f 118 137 136
f 118 136 135
f 118 135 134
f 118 134 126
f 119 140 120
f 120 141 142
f 120 142 143
f 120 143 144
f 120 144 145
f 120 145 146
f 120 146 147
f 120 147 148
f 120 148 121
f 120 140 149
f 120 149 150
f 120 150 151
f 120 151 141
f 121 148 152
f 121 152 122
f 122 152 153
f 122 153 123
f 123 153 154
f 123 154 124
f 132 155 156
f 132 156 133
f 133 156 157
f 146 158 147
f 147 159 148
f 147 158 160
f 147 160 159
f 148 159 161
f 148 161 152
f 152 162 163
f 152 163 164
f 152 164 154
f 152 154 153
f 152 161 165
f 152 165 162
f 155 166 156
f 156 166 157
f 157 166 167
f 159 168 169
f 159 169 170
f 159 170 161
f 159 160 171
f 159 171 168
f 161 170 172
f 161 172 173
f 161 173 174
f 161 174 175
f 161 175 165
f 162 164 163
f 162 165 175
f 162 175 176
f 166 177 178
f 166 178 167
f 167 178 179
f 168 180 181
f 168 181 182
f 168 182 169
f 168 171 180
f 169 182 183
f 169 183 184
f 169 184 185
f 169 185 172
f 169 172 170
f 171 186 187
f 171 187 188
f 171 188 189
f 171 189 190
f 171 190 181
f 171 181 180
f 171 191 177
f 171 177 192
f 171 192 193
f 171 193 194
f 171 194 195
f 171 195 196
f 171 196 197
f 171 197 198
f 171 198 199
f 171 199 200
f 171 200 186
f 172 201 202
f 172 202 173
f 172 185 201
f 173 202 174
f 174 203 204
f 174 204 175
f 174 202 201
f 174 201 203
f 175 204 176
f 176 204 205
f 177 206 178
f 177 191 206
f 178 206 207
f 178 207 208
f 178 208 179
f 181 190 209
f 181 209 182
f 182 189 210
f 182 210 183
f 182 209 189
f 184 211 185
f 185 211 212
f 185 212 201
f 189 209 190
f 191 207 206
f 201 212 203
f 203 212 204
f 204 212 205

