# https://github.com/mikedh/trimesh
v 0.00241798 -0.02842950 0.03676722
v 0.00241798 -0.02832267 0.03619114
v 0.00305946 -0.02822070 0.03619114
v 0.00305946 -0.02832510 0.03676722
v 0.00241798 -0.02479004 0.03676722
v 0.00241798 -0.02819885 0.03554978
v 0.00452141 -0.02795120 0.03619114
v 0.00452141 -0.02806289 0.03676722
v 0.00363585 -0.02822556 0.03676722
v 0.00305946 -0.02792692 0.03473175
v 0.00881086 -0.02288169 0.03676722
v 0.00881086 -0.00362579 -0.00245970
v 0.00241798 -0.01419942 0.00543254
v 0.00241798 -0.02803375 0.03473175
v 0.00460902 -0.02759915 0.03463958
v 0.00515475 -0.02735879 0.03409039
v 0.00559346 -0.02746804 0.03506587
v 0.00604093 -0.02759430 0.03614890
v 0.00601714 -0.02773026 0.03676722
v 0.00509842 -0.02793906 0.03676722
v 0.00241798 -0.02789536 0.03409039
v 0.00312330 -0.02757487 0.03319171
v 0.00365338 -0.02735393 0.03265020
v 0.00417970 -0.02746319 0.03362569
v 0.00881086 -0.02543830 0.03676722
v 0.00881086 -0.01139759 -0.00245970
v 0.00241798 -0.01237847 -0.00245970
v 0.00241798 -0.01276208 -0.00045880
v 0.00241798 -0.01342005 0.00254448
v 0.00241798 -0.01378910 0.00400003
v 0.00604093 -0.02724710 0.03463958
v 0.00656725 -0.02733936 0.03563043
v 0.00460902 -0.02726167 0.03319171
v 0.00452141 -0.02691448 0.03180528
v 0.00598272 -0.02689991 0.03326852
v 0.00696090 -0.02745348 0.03660592
v 0.00703224 -0.02746562 0.03676722
v 0.00241798 -0.02770355 0.03322627
v 0.00267896 -0.02744376 0.03226231
v 0.00241798 -0.02739763 0.03187441
v 0.00241798 -0.02729566 0.03146732
v 0.00312330 -0.02723739 0.03178992
v 0.00305946 -0.02686592 0.03034589
v 0.00880836 -0.02685135 0.03676722
v 0.00881086 -0.02671296 0.03619114
v 0.00684762 -0.01436694 -0.00245970
v 0.00881086 -0.02322888 0.02430094
v 0.00241798 -0.01567560 -0.00245970
v 0.00744529 -0.02682464 0.03473175
v 0.00744654 -0.02719126 0.03614890
v 0.00452141 -0.02649930 0.03034589
v 0.00598272 -0.02647259 0.03180528
v 0.00771440 -0.02725439 0.03676722
v 0.00241798 -0.02746076 0.03215093
v 0.00241798 -0.02682464 0.02970453
v 0.00305946 -0.02644831 0.02888266
v 0.00881086 -0.02668868 0.03609513
v 0.00603967 -0.01488166 -0.00245970
v 0.00881086 -0.02373146 0.02586018
v 0.00841846 -0.02310020 0.02340994
v 0.00452141 -0.01536239 -0.00245970
v 0.00241798 -0.02013084 0.00902341
v 0.00881086 -0.02629535 0.03469719
v 0.00881086 -0.02425104 0.02755385
v 0.00389870 -0.02595787 0.02804543
v 0.00444005 -0.02608898 0.02895563
v 0.00537003 -0.02596516 0.02948946
v 0.00241798 -0.02658913 0.02888266
v 0.00241798 -0.02640218 0.02824130
v 0.00241798 -0.02603557 0.02707378
v 0.00292240 -0.02604528 0.02750392
v 0.00533999 -0.01512446 -0.00245970
v 0.00241798 -0.02029352 0.00951883
f 1 2 3
f 1 3 4
f 1 4 9
f 1 9 8
f 1 8 20
f 1 20 19
f 1 19 37
f 1 37 53
f 1 53 44
f 1 44 25
f 1 25 11
f 1 11 5
f 1 5 13
f 1 13 30
f 1 30 29
f 1 29 28
f 1 28 27
f 1 27 48
f 1 48 62
f 1 62 73
f 1 73 70
f 1 70 69
f 1 69 68
f 1 68 55
f 1 55 41
f 1 41 40
f 1 40 54
f 1 54 38
f 1 38 21
f 1 21 14
f 1 14 6
f 1 6 2
f 2 6 3
f 3 7 8
f 3 8 9
f 3 9 4
f 3 6 10
f 3 10 7
f 5 11 12
f 5 12 13
f 6 14 10
f 7 10 15
f 7 15 16
f 7 16 17
f 7 17 18
f 7 18 19
f 7 19 20
f 7 20 8
f 10 14 21
f 10 21 22
f 10 22 23
f 10 23 24
f 10 24 15
f 11 25 45
f 11 45 57
f 11 57 63
f 11 63 64
f 11 64 59
f 11 59 47
f 11 47 26
f 11 26 12
f 12 26 46
f 12 46 58
f 12 58 72
f 12 72 61
f 12 61 48
f 12 48 27
f 12 27 28
f 12 28 29
f 12 29 30
f 12 30 13
f 15 24 16
f 16 31 32
f 16 32 17
f 16 24 23
f 16 23 33
f 16 33 34
f 16 34 35
f 16 35 31
f 17 32 18
f 18 36 19
f 18 32 36
f 19 36 37
f 21 38 22
f 22 38 39
f 22 39 23
f 23 39 40
f 23 40 41
f 23 41 42
f 23 42 43
f 23 43 34
f 23 34 33
f 25 44 45
f 26 47 46
f 31 35 49
f 31 49 32
f 32 49 50
f 32 50 36
f 34 43 51
f 34 51 35
f 35 51 52
f 35 52 49
f 36 50 53
f 36 53 37
f 38 54 39
f 39 54 40
f 41 55 43
f 41 43 42
f 43 55 56
f 43 56 51
f 44 53 45
f 45 53 57
f 46 47 58
f 47 59 60
f 47 60 58
f 48 61 62
f 49 63 57
f 49 57 50
f 49 52 64
f 49 64 63
f 50 57 53
f 51 56 65
f 51 65 66
f 51 66 67
f 51 67 52
f 52 67 64
f 55 68 56
f 56 68 69
f 56 69 70
f 56 70 71
f 56 71 65
f 58 60 72
f 59 64 67
f 59 67 60
f 60 67 66
f 60 66 65
f 60 65 62
f 60 62 72
f 61 72 62
f 62 65 73
f 65 71 73
f 70 73 71

