# https://github.com/mikedh/trimesh
v 0.01627028 -0.01742777 -0.06753727
v 0.01635889 -0.01739418 -0.06753325
v 0.01627028 -0.01740406 -0.06698508
v 0.01627028 -0.01738233 -0.06903204
v 0.01697822 -0.01715711 -0.06851261
v 0.01697822 -0.01715711 -0.06796712
v 0.01694038 -0.01714130 -0.06699244
v 0.01627028 -0.01737245 -0.06629185
v 0.01627028 -0.01736850 -0.06908285
v 0.01630413 -0.01736060 -0.06908285
v 0.01638578 -0.01733492 -0.06908285
v 0.01632205 -0.01736455 -0.06903003
v 0.01692047 -0.01713538 -0.06908285
v 0.01755174 -0.01685879 -0.06903003
v 0.01914287 -0.01608435 -0.06907550
v 0.01755174 -0.01685484 -0.06753325
v 0.01686770 -0.01710772 -0.06615146
v 0.01987571 -0.01568330 -0.06833145
v 0.01922651 -0.01598162 -0.06775185
v 0.01627028 -0.01736060 -0.06615146
v 0.01627028 -0.01324341 -0.06908285
v 0.01747408 -0.01688842 -0.06908285
v 0.01914188 -0.01608435 -0.06908285
v 0.01988965 -0.01569317 -0.06908285
v 0.01988965 -0.01569317 -0.06907550
v 0.01768019 -0.01666716 -0.06615146
v 0.01669046 -0.01701882 -0.06469011
v 0.01627028 -0.01727170 -0.06519081
v 0.02062149 -0.01519532 -0.06907550
v 0.02161718 -0.01446434 -0.06907550
v 0.02046018 -0.01517951 -0.06775185
v 0.01976917 -0.01561810 -0.06735677
v 0.01888897 -0.01597371 -0.06615146
v 0.01627028 -0.01301424 -0.06907550
v 0.01627824 -0.01300831 -0.06908285
v 0.02062049 -0.01519532 -0.06908285
v 0.01768019 -0.01646169 -0.06469011
v 0.01627028 -0.01713340 -0.06403497
v 0.01627028 -0.01721243 -0.06469011
v 0.01648435 -0.01689633 -0.06322742
v 0.01627028 -0.01697140 -0.06295935
v 0.02161718 -0.01446434 -0.06908285
v 0.02150368 -0.01437149 -0.06761348
v 0.02234803 -0.01368595 -0.06907550
v 0.01961981 -0.01551339 -0.06615146
v 0.01868186 -0.01585715 -0.06469011
v 0.01627028 -0.01269616 -0.06225408
v 0.02184321 0.00275516 -0.06225408
v 0.02209512 0.00275318 -0.06908285
v 0.01780465 -0.01611201 -0.06315522
v 0.01761248 -0.01606459 -0.06225408
v 0.01627028 -0.01685484 -0.06225408
v 0.02234803 -0.01368595 -0.06908285
v 0.02138618 -0.01426875 -0.06668760
v 0.02070114 -0.01469944 -0.06618087
v 0.02233011 -0.01339948 -0.06755599
v 0.02293649 -0.01295497 -0.06907550
v 0.02286181 -0.01285223 -0.06800522
v 0.01837519 -0.01565761 -0.06261908
v 0.01851857 -0.01575442 -0.06359376
v 0.01941370 -0.01535732 -0.06469011
v 0.02551535 0.00275516 -0.06225408
v 0.02209910 0.00275516 -0.06907550
v 0.02210906 0.00275516 -0.06908285
v 0.01800379 -0.01581961 -0.06225408
v 0.02293649 -0.01295497 -0.06908285
v 0.02125176 -0.01413639 -0.06571291
v 0.02014454 -0.01445249 -0.06322742
v 0.02036957 -0.01462634 -0.06469011
v 0.02183624 -0.01358519 -0.06618087
v 0.02276821 -0.01270406 -0.06703054
v 0.02344927 -0.01202643 -0.06907550
v 0.02315056 -0.01214101 -0.06755599
v 0.01906023 -0.01526842 -0.06315522
v 0.01831744 -0.01561613 -0.06225408
v 0.02564479 0.00275516 -0.06289116
v 0.02550340 0.00259118 -0.06225408
v 0.02644135 0.00275516 -0.06908285
v 0.02344927 -0.01202643 -0.06908285
v 0.01999519 -0.01432802 -0.06225408
v 0.02171775 -0.01324341 -0.06469011
v 0.02110141 -0.01397439 -0.06469011
v 0.01918668 -0.01495627 -0.06225408
v 0.02265371 -0.01247094 -0.06615146
v 0.02138320 -0.01282260 -0.06231892
v 0.02150965 -0.01299053 -0.06322742
v 0.02300021 -0.01173996 -0.06615146
v 0.02411938 -0.01042025 -0.06908285
v 0.02407258 -0.01051903 -0.06899928
v 0.02381071 -0.01056447 -0.06761348
v 0.02563882 0.00259118 -0.06292124
v 0.02578021 0.00259118 -0.06365259
v 0.02578518 0.00275516 -0.06362183
v 0.02534509 0.00114108 -0.06225408
v 0.02557310 0.00116479 -0.06331433
v 0.02574038 0.00167449 -0.06385982
v 0.02644135 0.00275516 -0.06907550
v 0.02643239 0.00259118 -0.06908285
v 0.02007286 -0.01424900 -0.06225408
v 0.02129657 -0.01289965 -0.06225408
v 0.02087638 -0.01372151 -0.06322742
v 0.02141506 -0.01272975 -0.06225408
v 0.02286679 -0.01145547 -0.06515872
v 0.02176953 -0.01206396 -0.06225408
v 0.02444796 -0.00935736 -0.06908285
v 0.02423886 -0.00976237 -0.06846114
v 0.02414726 -0.00945417 -0.06761348
v 0.02427471 -0.00842487 -0.06682063
v 0.02396305 -0.00898792 -0.06626042
v 0.02384058 -0.00617267 -0.06225408
v 0.02344230 -0.01056447 -0.06615146
v 0.02597636 0.00259118 -0.06469011
v 0.02598632 0.00275516 -0.06469011
v 0.02514296 -0.00033273 -0.06225408
v 0.02536002 -0.00033273 -0.06322742
v 0.02568960 0.00070051 -0.06411653
v 0.02583995 0.00116479 -0.06463797
v 0.02638758 0.00275516 -0.06777592
v 0.02643239 0.00259118 -0.06907550
v 0.02633282 0.00112922 -0.06908285
v 0.02070214 -0.01357729 -0.06225408
v 0.02273635 -0.01111764 -0.06418405
v 0.02239881 -0.01057830 -0.06225408
v 0.02447783 -0.00920722 -0.06899928
v 0.02489702 -0.00764055 -0.06908285
v 0.02465805 -0.00764055 -0.06761348
v 0.02435934 -0.00872319 -0.06761348
v 0.02473273 -0.00618057 -0.06615146
v 0.02421098 -0.00526190 -0.06270933
v 0.02397699 -0.00570444 -0.06225408
v 0.02337459 -0.00764055 -0.06225408
v 0.02282596 -0.00932180 -0.06225408
v 0.02621632 0.00259118 -0.06615146
v 0.02608987 0.00112922 -0.06615146
v 0.02622528 0.00275516 -0.06615146
v 0.02489304 -0.00179469 -0.06225408
v 0.02512006 -0.00179469 -0.06322742
v 0.02543868 -0.00179469 -0.06469011
v 0.02563882 -0.00045720 -0.06463797
v 0.02578618 -0.00005417 -0.06509121
v 0.02638061 0.00275516 -0.06761348
v 0.02637165 0.00259118 -0.06761348
v 0.02633282 0.00112922 -0.06907550
v 0.02619840 -0.00033273 -0.06907550
v 0.02619741 -0.00033273 -0.06908285
v 0.02263081 -0.01060398 -0.06314118
v 0.02272440 -0.00962210 -0.06225408
v 0.02489603 -0.00764055 -0.06907550
v 0.02524153 -0.00618057 -0.06908285
v 0.02524153 -0.00618057 -0.06907550
v 0.02503045 -0.00618057 -0.06761348
v 0.02510512 -0.00471861 -0.06615146
v 0.02479546 -0.00471861 -0.06469011
v 0.02445393 -0.00475219 -0.06320937
v 0.02434341 -0.00431953 -0.06225408
v 0.02416418 -0.00502681 -0.06225408
v 0.02625416 0.00112922 -0.06761348
v 0.02588675 -0.00045720 -0.06602177
v 0.02610381 -0.00033273 -0.06761348
v 0.02458437 -0.00328036 -0.06225408
v 0.02481936 -0.00325665 -0.06322742
v 0.02514694 -0.00325665 -0.06469011
v 0.02571549 -0.00102815 -0.06544953
v 0.02543868 -0.00325665 -0.06615146
v 0.02566769 -0.00193101 -0.06602177
v 0.02601519 -0.00179469 -0.06907550
v 0.02601519 -0.00179469 -0.06908285
v 0.02554124 -0.00471861 -0.06908285
v 0.02554223 -0.00471861 -0.06907550
v 0.02537097 -0.00471861 -0.06761348
v 0.02436930 -0.00421285 -0.06225408
v 0.02580012 -0.00153589 -0.06642354
v 0.02587081 -0.00193101 -0.06748112
v 0.02571847 -0.00250987 -0.06690553
v 0.02577125 -0.00284967 -0.06788021
v 0.02581705 -0.00312428 -0.06907550
v 0.02581705 -0.00312428 -0.06908285
v 0.02570055 -0.00385526 -0.06908285
v 0.02570055 -0.00385526 -0.06907550
v 0.02564479 -0.00330604 -0.06748112
f 1 2 3
f 1 3 8
f 1 8 20
f 1 20 28
f 1 28 39
f 1 39 38
f 1 38 41
f 1 41 52
f 1 52 47
f 1 47 34
f 1 34 21
f 1 21 9
f 1 9 4
f 1 4 5
f 1 5 2
f 2 5 6
f 2 6 7
f 2 7 3
f 3 7 8
f 4 9 10
f 4 10 11
f 4 11 12
f 4 12 5
f 5 12 13
f 5 13 14
f 5 14 15
f 5 15 6
f 6 15 16
f 6 16 7
f 7 17 8
f 7 16 18
f 7 18 19
f 7 19 17
f 8 17 20
f 9 21 35
f 9 35 49
f 9 49 64
f 9 64 78
f 9 78 98
f 9 98 120
f 9 120 145
f 9 145 167
f 9 167 177
f 9 177 178
f 9 178 168
f 9 168 149
f 9 149 125
f 9 125 105
f 9 105 88
f 9 88 79
f 9 79 66
f 9 66 53
f 9 53 42
f 9 42 36
f 9 36 24
f 9 24 23
f 9 23 22
f 9 22 13
f 9 13 11
f 9 11 10
f 11 13 12
f 13 22 14
f 14 22 23
f 14 23 15
f 15 23 24
f 15 24 25
f 15 25 18
f 15 18 16
f 17 19 26
f 17 26 27
f 17 27 28
f 17 28 20
f 18 25 29
f 18 29 30
f 18 30 31
f 18 31 32
f 18 32 33
f 18 33 26
f 18 26 19
f 21 34 35
f 24 36 29
f 24 29 25
f 26 33 37
f 26 37 27
f 27 38 39
f 27 39 28
f 27 37 40
f 27 40 41
f 27 41 38
f 29 36 42
f 29 42 30
f 30 43 31
f 30 42 53
f 30 53 44
f 30 44 43
f 31 45 32
f 31 43 45
f 32 45 33
f 33 46 37
f 33 45 46
f 34 47 48
f 34 48 49
f 34 49 35
f 37 46 50
f 37 50 51
f 37 51 52
f 37 52 40
f 40 52 41
f 43 54 55
f 43 55 45
f 43 44 56
f 43 56 54
f 44 53 66
f 44 66 57
f 44 57 58
f 44 58 56
f 45 59 60
f 45 60 46
f 45 55 61
f 45 61 59
f 46 60 51
f 46 51 50
f 47 52 51
f 47 51 65
f 47 65 75
f 47 75 83
f 47 83 80
f 47 80 99
f 47 99 121
f 47 121 100
f 47 100 102
f 47 102 104
f 47 104 123
f 47 123 147
f 47 147 132
f 47 132 131
f 47 131 110
f 47 110 130
f 47 130 156
f 47 156 155
f 47 155 171
f 47 171 160
f 47 160 136
f 47 136 114
f 47 114 94
f 47 94 77
f 47 77 62
f 47 62 48
f 48 62 76
f 48 76 93
f 48 93 113
f 48 113 135
f 48 135 141
f 48 141 118
f 48 118 97
f 48 97 78
f 48 78 64
f 48 64 63
f 48 63 49
f 49 63 64
f 51 60 59
f 51 59 65
f 54 67 68
f 54 68 69
f 54 69 55
f 54 56 70
f 54 70 67
f 55 69 61
f 56 58 71
f 56 71 70
f 57 66 79
f 57 79 72
f 57 72 58
f 58 72 73
f 58 73 71
f 59 61 74
f 59 74 75
f 59 75 65
f 61 69 74
f 62 77 76
f 67 80 68
f 67 70 81
f 67 81 82
f 67 82 80
f 68 80 83
f 68 83 74
f 68 74 69
f 70 71 81
f 71 84 85
f 71 85 86
f 71 86 81
f 71 73 87
f 71 87 84
f 72 79 88
f 72 88 89
f 72 89 73
f 73 89 90
f 73 90 87
f 74 83 75
f 76 77 91
f 76 91 92
f 76 92 93
f 77 94 95
f 77 95 96
f 77 96 91
f 78 97 119
f 78 119 98
f 80 82 99
f 81 86 82
f 82 86 85
f 82 85 100
f 82 100 101
f 82 101 99
f 84 102 85
f 84 87 103
f 84 103 104
f 84 104 102
f 85 102 100
f 87 90 103
f 88 105 106
f 88 106 89
f 89 106 90
f 90 106 107
f 90 107 108
f 90 108 109
f 90 109 110
f 90 110 111
f 90 111 103
f 91 96 92
f 92 112 93
f 92 96 112
f 93 112 113
f 94 114 115
f 94 115 116
f 94 116 95
f 95 116 96
f 96 116 117
f 96 117 112
f 97 118 119
f 98 119 143
f 98 143 120
f 99 101 121
f 100 121 101
f 103 111 122
f 103 122 104
f 104 122 123
f 105 124 106
f 105 125 124
f 106 124 126
f 106 126 127
f 106 127 107
f 107 127 108
f 108 127 126
f 108 126 128
f 108 128 129
f 108 129 130
f 108 130 110
f 108 110 109
f 110 131 111
f 111 132 122
f 111 131 132
f 112 133 113
f 112 117 134
f 112 134 133
f 113 133 135
f 114 136 137
f 114 137 115
f 115 137 138
f 115 138 139
f 115 139 116
f 116 139 140
f 116 140 117
f 117 140 134
f 118 141 142
f 118 142 119
f 119 142 143
f 120 143 144
f 120 144 145
f 122 132 146
f 122 146 123
f 123 146 147
f 124 125 148
f 124 148 126
f 125 149 150
f 125 150 148
f 126 148 151
f 126 151 128
f 128 151 152
f 128 152 153
f 128 153 129
f 129 153 154
f 129 154 155
f 129 155 156
f 129 156 130
f 132 147 146
f 133 142 141
f 133 141 135
f 133 134 157
f 133 157 142
f 134 140 158
f 134 158 159
f 134 159 157
f 136 160 161
f 136 161 137
f 137 161 162
f 137 162 138
f 138 163 139
f 138 162 164
f 138 164 165
f 138 165 163
f 139 163 140
f 140 163 158
f 142 157 143
f 143 157 144
f 144 159 166
f 144 166 167
f 144 167 145
f 144 157 159
f 148 150 151
f 149 168 169
f 149 169 150
f 150 169 170
f 150 170 151
f 151 170 152
f 152 170 164
f 152 164 162
f 152 162 153
f 153 162 161
f 153 161 171
f 153 171 154
f 154 171 155
f 158 163 172
f 158 172 159
f 159 172 173
f 159 173 166
f 160 171 161
f 163 165 172
f 164 174 165
f 164 170 174
f 165 174 172
f 166 173 175
f 166 175 176
f 166 176 177
f 166 177 167
f 168 178 169
f 169 178 179
f 169 179 175
f 169 175 180
f 169 180 170
f 170 180 174
f 172 174 173
f 173 174 175
f 174 180 175
f 175 179 176
f 176 179 178
f 176 178 177

