# https://github.com/mikedh/trimesh
v -0.00689042 -0.02566535 0.03754902
v -0.02409977 -0.02147096 0.03754902
v -0.00689042 -0.02914442 0.03754902
v -0.00689042 -0.01519195 0.00258894
v -0.02409977 -0.01308375 0.01713541
v -0.02409977 -0.02566063 0.03754902
v -0.00717680 -0.02914128 0.03754902
v -0.00717680 -0.02894005 0.03638577
v -0.00689042 -0.02894162 0.03637794
v -0.00689042 -0.01481779 0.00110453
v -0.01933418 -0.01308375 0.01087267
v -0.01986818 -0.01308375 0.01158550
v -0.02409977 -0.01308375 0.00857359
v -0.02379655 -0.02582099 0.03754902
v -0.02409977 -0.02532892 0.03613510
v -0.02349333 -0.02566535 0.03619386
v -0.00863898 -0.02911298 0.03754902
v -0.00863898 -0.02892433 0.03646802
v -0.00717680 -0.02880642 0.03565336
v -0.00689042 -0.02883472 0.03579044
v -0.00689042 -0.01432729 -0.00104963
v -0.01854244 -0.01308375 0.00980342
v -0.01857613 -0.01308375 0.00985042
v -0.01859635 -0.01308375 0.00987784
v -0.01720996 -0.01308375 -0.00245963
v -0.01704825 -0.01333843 -0.00245963
v -0.01658163 -0.01406003 -0.00245963
v -0.02409977 -0.01312148 0.00862059
v -0.02374264 -0.02584771 0.03754902
v -0.02276223 -0.02603165 0.03619386
v -0.02409977 -0.02512611 0.03533219
v -0.02409977 -0.02498148 0.03476036
v -0.02313789 -0.02550499 0.03482694
v -0.02257020 -0.02593889 0.03537527
v -0.01010117 -0.02907525 0.03754902
v -0.01010117 -0.02890546 0.03658552
v -0.00863898 -0.02879070 0.03573952
v -0.00717680 -0.02862248 0.03472903
v -0.00689042 -0.02862563 0.03472903
v -0.00689042 -0.02880799 0.03564552
v -0.00689042 -0.01421410 -0.00154705
v -0.01773386 -0.01308375 0.00865976
v -0.01108495 -0.01308375 -0.00245963
v -0.01651256 -0.01414336 -0.00245963
v -0.01659342 -0.01410091 -0.00238521
v -0.02409977 -0.01849653 0.01657141
v -0.02306545 -0.02617157 0.03754902
v -0.02179530 -0.02647184 0.03619386
v -0.02179530 -0.02675482 0.03754902
v -0.02409977 -0.02461989 0.03336995
v -0.02409977 -0.02459317 0.03326811
v -0.02325749 -0.02503179 0.03326811
v -0.02230067 -0.02581155 0.03440394
v -0.02132531 -0.02603479 0.03354228
v -0.02180541 -0.02614170 0.03482694
v -0.01027805 -0.02906739 0.03754902
v -0.01156336 -0.02887245 0.03676961
v -0.01010117 -0.02876398 0.03585702
v -0.00863898 -0.02858475 0.03472903
v -0.00717680 -0.02831121 0.03326811
v -0.00689042 -0.02831750 0.03326811
v -0.00689042 -0.01401444 -0.00245963
v -0.00719027 -0.01392326 -0.00245963
v -0.01753340 -0.01308375 0.00836601
v -0.00863898 -0.01360569 -0.00245963
v -0.01307103 -0.01308375 0.00104970
v -0.01587917 -0.01468102 -0.00245963
v -0.02396332 -0.01858457 0.01649699
v -0.02409977 -0.01895401 0.01739782
v -0.02024383 -0.02710540 0.03624086
v -0.02063970 -0.02723274 0.03754902
v -0.02075594 -0.02718558 0.03754902
v -0.02033312 -0.02672338 0.03472903
v -0.02409977 -0.02451771 0.03298611
v -0.02399027 -0.02445639 0.03253570
v -0.02324738 -0.02467649 0.03195212
v -0.02275381 -0.02457273 0.03065570
v -0.02179530 -0.02535092 0.03180720
v -0.02180541 -0.02570622 0.03313886
v -0.02104568 -0.02590902 0.03256703
v -0.01156336 -0.02900608 0.03754902
v -0.01235510 -0.02884572 0.03690277
v -0.01156336 -0.02872467 0.03603719
v -0.01010117 -0.02852816 0.03472903
v -0.00863898 -0.02826719 0.03326811
v -0.00717680 -0.02798106 0.03180720
v -0.00689042 -0.02798735 0.03180720
v -0.00689042 -0.01731430 -0.00245963
v -0.00799549 -0.01374404 -0.00245963
v -0.01490887 -0.01308375 0.00413994
v -0.01570903 -0.01308375 0.00546769
v -0.01675682 -0.01308375 0.00715576
v -0.01444731 -0.01538847 -0.00245963
v -0.01955486 -0.02151183 0.01650874
v -0.01996083 -0.02028244 0.01426450
v -0.02045777 -0.02063774 0.01560791
v -0.02102715 -0.02004663 0.01504391
v -0.02236131 -0.01995387 0.01669282
v -0.02296943 -0.01896816 0.01572541
v -0.02332824 -0.01940206 0.01708449
v -0.02409977 -0.01918039 0.01784824
v -0.01936955 -0.02731135 0.03579044
v -0.01969804 -0.02741196 0.03676177
v -0.02055548 -0.02726261 0.03754902
v -0.02046788 -0.02628004 0.03313886
v -0.02005685 -0.02609610 0.03180720
v -0.01887093 -0.02687430 0.03326811
v -0.02409977 -0.02441552 0.03262186
v -0.02372916 -0.02431490 0.03156045
v -0.02409977 -0.02435892 0.03242603
v -0.02409977 -0.02306193 0.02805896
v -0.02248597 -0.02443439 0.02968437
v -0.02191659 -0.02485885 0.03024054
v -0.02151398 -0.02466548 0.02888146
v -0.02121750 -0.02452557 0.02790229
v -0.02090081 -0.02438722 0.02692705
v -0.02078794 -0.02580526 0.03180720
v -0.01974015 -0.02597191 0.03087895
v -0.01285541 -0.02891647 0.03754902
v -0.01332877 -0.02880957 0.03711819
v -0.01291437 -0.02868694 0.03632702
v -0.01302386 -0.02834422 0.03472903
v -0.01156336 -0.02844798 0.03472903
v -0.01010117 -0.02820273 0.03326811
v -0.00863898 -0.02792761 0.03180720
v -0.00717680 -0.02763049 0.03034237
v -0.00689042 -0.02763835 0.03034237
v -0.00698307 -0.01729229 -0.00245963
v -0.00689042 -0.02386528 0.01719024
v -0.00717680 -0.02385899 0.01719024
v -0.00822290 -0.02448312 0.01928956
v -0.00868278 -0.02426460 0.01874123
v -0.00863898 -0.02374895 0.01719024
v -0.01256566 -0.02156214 0.01198109
v -0.01304239 -0.02132318 0.01143275
v -0.01354102 -0.02150712 0.01214558
v -0.01302386 -0.02076036 0.00987784
v -0.01448605 -0.02141279 0.01238450
v -0.01448605 -0.02100561 0.01134267
v -0.01347701 -0.01564315 -0.00245963
v -0.01640643 -0.02146310 0.01371225
v -0.01750813 -0.02133890 0.01422533
v -0.01806235 -0.02150869 0.01505566
v -0.01898885 -0.02137192 0.01561574
v -0.02038702 -0.02130903 0.01707274
v -0.01858119 -0.02169420 0.01603091
v -0.01898885 -0.02191429 0.01707274
v -0.01960876 -0.02299590 0.02083273
v -0.02098335 -0.02295817 0.02241114
v -0.02091091 -0.02145681 0.01811457
v -0.02138596 -0.02028244 0.01601916
v -0.02269485 -0.02018812 0.01766415
v -0.02372579 -0.01987055 0.01864723
v -0.02409977 -0.01958128 0.01866682
v -0.01839420 -0.02745126 0.03512853
v -0.01887767 -0.02754873 0.03624086
v -0.01887767 -0.02720759 0.03467811
v -0.01897032 -0.02777669 0.03754902
v -0.01991198 -0.02748428 0.03754902
v -0.01887093 -0.02649856 0.03180720
v -0.01747275 -0.02724846 0.03320153
v -0.01800339 -0.02734436 0.03415328
v -0.02325749 -0.02378510 0.02888146
v -0.02324738 -0.02418914 0.03024054
v -0.02409977 -0.02304149 0.02799238
v -0.02382687 -0.02289529 0.02699755
v -0.02330634 -0.02333391 0.02745971
v -0.02281445 -0.02315626 0.02595963
v -0.02224508 -0.02432119 0.02888146
v -0.02174140 -0.02413726 0.02741663
v -0.02179530 -0.02367820 0.02595963
v -0.02131015 -0.02311696 0.02338639
v -0.02033312 -0.02389830 0.02449480
v -0.02038028 -0.02428189 0.02583038
v -0.01992545 -0.02458531 0.02623771
v -0.02038028 -0.02473780 0.02741663
v -0.02033312 -0.02517328 0.02888146
v -0.02026910 -0.02561818 0.03037370
v -0.01956833 -0.02444539 0.02526247
v -0.01934429 -0.02583671 0.02990370
v -0.01297838 -0.02890704 0.03754902
v -0.01437655 -0.02875926 0.03754902
v -0.01448605 -0.02849043 0.03619386
v -0.01448605 -0.02818544 0.03472903
v -0.01448605 -0.02784272 0.03326811
v -0.01302386 -0.02799993 0.03326811
v -0.01156336 -0.02811469 0.03326811
v -0.01010117 -0.02784901 0.03180720
v -0.00861709 -0.02753616 0.03023662
v -0.00811509 -0.02739152 0.02956687
v -0.00717680 -0.02741353 0.02948071
v -0.00689042 -0.02741982 0.02945720
v -0.01398405 -0.02016611 0.00896526
v -0.00689042 -0.02394389 0.01742915
v -0.00717680 -0.02428032 0.01847098
v -0.00717680 -0.02451142 0.01919948
v -0.00717680 -0.02479440 0.02010815
v -0.00863898 -0.02514812 0.02157298
v -0.00868278 -0.02466234 0.01999065
v -0.00919825 -0.02444067 0.01942665
v -0.01448605 -0.02167062 0.01311691
v -0.01010117 -0.02438408 0.01959115
v -0.01010117 -0.02462304 0.02032356
v -0.01156336 -0.02482741 0.02157298
v -0.01421147 -0.02599077 0.02645705
v -0.01543277 -0.02158258 0.01339108
v -0.01708699 -0.02164546 0.01468358
v -0.01750813 -0.02185613 0.01561574
v -0.01813141 -0.02299119 0.01938357
v -0.01887093 -0.02394860 0.02303389
v -0.01991029 -0.02312010 0.02157298
v -0.02043082 -0.02336378 0.02295164
v -0.02179699 -0.02271921 0.02295164
v -0.02179530 -0.02223972 0.02157298
v -0.02125793 -0.02163603 0.01908590
v -0.02256009 -0.02155271 0.02078573
v -0.02176498 -0.02116125 0.01861982
v -0.02184247 -0.02051669 0.01718241
v -0.02223329 -0.02135777 0.01981048
v -0.02299639 -0.02039564 0.01864723
v -0.02395826 -0.02004820 0.01943056
v -0.02409977 -0.01998217 0.01953632
v -0.01740874 -0.02793390 0.03619386
v -0.01887261 -0.02780499 0.03754902
v -0.01740874 -0.02690574 0.03180720
v -0.01886251 -0.02611182 0.03037370
v -0.01836893 -0.02598606 0.02936321
v -0.01651593 -0.02734751 0.03266887
v -0.01702803 -0.02746541 0.03364411
v -0.01747275 -0.02758961 0.03467811
v -0.02409977 -0.02276795 0.02715421
v -0.02354555 -0.02272707 0.02595963
v -0.02258536 -0.02302578 0.02512538
v -0.02409977 -0.02202749 0.02490605
v -0.02409977 -0.02160773 0.02363314
v -0.02179699 -0.02325373 0.02458097
v -0.02228551 -0.02286699 0.02415013
v -0.01859466 -0.02458688 0.02480813
v -0.01899727 -0.02477868 0.02583038
v -0.01887093 -0.02528018 0.02742054
v -0.01886251 -0.02569993 0.02887754
v -0.01899727 -0.02434006 0.02438905
v -0.01456017 -0.02873568 0.03754902
v -0.01594655 -0.02824675 0.03619386
v -0.01463934 -0.02872310 0.03754902
v -0.01594655 -0.02850615 0.03754902
v -0.01594655 -0.02794019 0.03472903
v -0.01554226 -0.02744183 0.03228112
v -0.01448605 -0.02751886 0.03199520
v -0.01370779 -0.02737423 0.03109437
v -0.01314178 -0.02758175 0.03167012
v -0.01273244 -0.02742454 0.03090245
v -0.01156336 -0.02775311 0.03180720
v -0.01010117 -0.02752201 0.03053037
v -0.00908876 -0.02736323 0.02967654
v -0.00861709 -0.02721387 0.02899896
v -0.00863898 -0.02679569 0.02742054
v -0.00717680 -0.02687430 0.02742054
v -0.00717680 -0.02722331 0.02874829
v -0.00689042 -0.02722960 0.02872479
v -0.00689042 -0.02432905 0.01860023
v -0.00689042 -0.02451613 0.01918773
v -0.00689042 -0.02457588 0.01937573
v -0.00689042 -0.02480383 0.02010815
v -0.00689042 -0.02489187 0.02039406
v -0.00689042 -0.02524874 0.02157298
v -0.00717680 -0.02523616 0.02157298
v -0.01010117 -0.02501921 0.02157298
v -0.00863898 -0.02557102 0.02303389
v -0.01010117 -0.02545940 0.02303389
v -0.01461408 -0.02576753 0.02596355
v -0.01518682 -0.02591217 0.02670771
v -0.01594655 -0.02506480 0.02449480
v -0.01156336 -0.02529119 0.02303389
v -0.01302386 -0.02607095 0.02619855
v -0.01302386 -0.02643725 0.02742054
v -0.01448605 -0.02666678 0.02888146
v -0.01461408 -0.02617786 0.02728346
v -0.01706509 -0.02453657 0.02351956
v -0.01749465 -0.02472837 0.02438905
v -0.01804045 -0.02443439 0.02383289
v -0.02176498 -0.02177438 0.02022173
v -0.02381171 -0.02141593 0.02260697
v -0.02351523 -0.02121313 0.02157298
v -0.02325918 -0.02080438 0.02010815
v -0.02314631 -0.02251169 0.02458097
v -0.02329792 -0.02190329 0.02306914
v -0.02408629 -0.02159830 0.02358222
v -0.02409977 -0.02032646 0.02036665
v -0.01740874 -0.02819644 0.03754902
v -0.01752160 -0.02816657 0.03754902
v -0.01740874 -0.02650957 0.03034237
v -0.01785178 -0.02585085 0.02838796
v -0.01599709 -0.02757703 0.03320153
v -0.01594655 -0.02684443 0.03034237
v -0.01599709 -0.02722802 0.03179936
v -0.02409977 -0.02159358 0.02359397
v -0.01740874 -0.02523616 0.02595963
v -0.01605436 -0.02848414 0.03754902
v -0.01448605 -0.02708025 0.03034237
v -0.01448605 -0.02733178 0.03126279
v -0.01302386 -0.02684757 0.02888146
v -0.01314178 -0.02724375 0.03038937
v -0.01156336 -0.02698120 0.02888146
v -0.01156336 -0.02727833 0.02998987
v -0.01156336 -0.02747327 0.03072228
v -0.01010117 -0.02733021 0.02979795
v -0.01010117 -0.02708811 0.02888146
v -0.01010117 -0.02669665 0.02742054
v -0.00863898 -0.02639638 0.02595963
v -0.00717680 -0.02648127 0.02595963
v -0.00689042 -0.02688688 0.02742054
v -0.00689042 -0.02694976 0.02765554
v -0.00689042 -0.02657088 0.02624163
v -0.00689042 -0.02534464 0.02189806
v -0.00689042 -0.02567950 0.02305347
v -0.00717680 -0.02565906 0.02303389
v -0.01161221 -0.02574552 0.02455747
v -0.01010117 -0.02579426 0.02419322
v -0.00717680 -0.02589173 0.02385639
v -0.00717680 -0.02609768 0.02458489
v -0.00863898 -0.02605366 0.02474155
v -0.01010117 -0.02629419 0.02595963
v -0.01010117 -0.02600178 0.02492564
v -0.01115738 -0.02595619 0.02508622
v -0.01594655 -0.02583985 0.02695055
v -0.01594655 -0.02553486 0.02595963
v -0.01594655 -0.02641682 0.02888146
v -0.01156336 -0.02658032 0.02742054
v -0.02409977 -0.02109837 0.02232106
v -0.02409977 -0.02043022 0.02062515
v -0.01738179 -0.02610082 0.02887754
v -0.01738179 -0.02569365 0.02747538
v -0.01687642 -0.02596248 0.02799629
v -0.00689042 -0.02649385 0.02595963
v -0.00689042 -0.02609925 0.02453789
v -0.00689042 -0.02574867 0.02329631
v -0.00689042 -0.02589959 0.02382897
f 1 2 6
f 1 6 14
f 1 14 29
f 1 29 47
f 1 47 49
f 1 49 72
f 1 72 71
f 1 71 104
f 1 104 159
f 1 159 158
f 1 158 224
f 1 224 291
f 1 291 290
f 1 290 299
f 1 299 246
f 1 246 245
f 1 245 243
f 1 243 182
f 1 182 181
f 1 181 119
f 1 119 81
f 1 81 56
f 1 56 35
f 1 35 17
f 1 17 7
f 1 7 3
f 1 3 9
f 1 9 20
f 1 20 40
f 1 40 39
f 1 39 61
f 1 61 87
f 1 87 127
f 1 127 192
f 1 192 260
f 1 260 313
f 1 313 312
f 1 312 314
f 1 314 335
f 1 335 336
f 1 336 338
f 1 338 337
f 1 337 316
f 1 316 315
f 1 315 266
f 1 266 265
f 1 265 264
f 1 264 263
f 1 263 262
f 1 262 261
f 1 261 194
f 1 194 129
f 1 129 88
f 1 88 62
f 1 62 41
f 1 41 21
f 1 21 10
f 1 10 4
f 1 4 5
f 1 5 2
f 2 5 13
f 2 13 28
f 2 28 46
f 2 46 69
f 2 69 101
f 2 101 154
f 2 154 222
f 2 222 289
f 2 289 331
f 2 331 330
f 2 330 297
f 2 297 235
f 2 235 234
f 2 234 231
f 2 231 165
f 2 165 111
f 2 111 110
f 2 110 108
f 2 108 74
f 2 74 51
f 2 51 50
f 2 50 32
f 2 32 31
f 2 31 15
f 2 15 6
f 3 7 8
f 3 8 9
f 4 10 11
f 4 11 12
f 4 12 5
f 5 12 11
f 5 11 24
f 5 24 23
f 5 23 22
f 5 22 42
f 5 42 64
f 5 64 92
f 5 92 91
f 5 91 90
f 5 90 66
f 5 66 43
f 5 43 25
f 5 25 13
f 6 15 16
f 6 16 14
f 7 17 8
f 8 17 18
f 8 18 19
f 8 19 20
f 8 20 9
f 10 21 22
f 10 22 23
f 10 23 24
f 10 24 11
f 13 25 26
f 13 26 27
f 13 27 28
f 14 16 30
f 14 30 29
f 15 31 16
f 16 31 32
f 16 32 33
f 16 33 34
f 16 34 30
f 17 35 18
f 18 35 36
f 18 36 37
f 18 37 19
f 19 37 38
f 19 38 39
f 19 39 40
f 19 40 20
f 21 41 22
f 22 41 42
f 25 43 65
f 25 65 89
f 25 89 63
f 25 63 62
f 25 62 88
f 25 88 128
f 25 128 140
f 25 140 93
f 25 93 67
f 25 67 44
f 25 44 27
f 25 27 26
f 27 44 45
f 27 45 28
f 28 45 44
f 28 44 46
f 29 30 47
f 30 34 48
f 30 48 49
f 30 49 47
f 32 50 33
f 33 50 51
f 33 51 52
f 33 52 34
f 34 52 53
f 34 53 54
f 34 54 55
f 34 55 48
f 35 56 36
f 36 56 57
f 36 57 58
f 36 58 37
f 37 58 59
f 37 59 38
f 38 59 60
f 38 60 61
f 38 61 39
f 41 62 42
f 42 62 63
f 42 63 64
f 43 66 65
f 44 67 68
f 44 68 46
f 46 68 69
f 48 70 71
f 48 71 72
f 48 72 49
f 48 55 54
f 48 54 73
f 48 73 70
f 51 74 75
f 51 75 52
f 52 75 76
f 52 76 77
f 52 77 53
f 53 77 78
f 53 78 79
f 53 79 80
f 53 80 54
f 54 80 73
f 56 81 57
f 57 81 82
f 57 82 83
f 57 83 58
f 58 83 84
f 58 84 59
f 59 84 85
f 59 85 60
f 60 85 86
f 60 86 87
f 60 87 61
f 63 89 90
f 63 90 91
f 63 91 92
f 63 92 64
f 65 66 89
f 66 90 89
f 67 93 94
f 67 94 95
f 67 95 96
f 67 96 97
f 67 97 98
f 67 98 99
f 67 99 68
f 68 99 69
f 69 99 100
f 69 100 101
f 70 73 102
f 70 102 103
f 70 103 71
f 71 103 104
f 73 80 105
f 73 105 106
f 73 106 107
f 73 107 102
f 74 108 75
f 75 109 77
f 75 77 76
f 75 108 110
f 75 110 111
f 75 111 109
f 77 109 112
f 77 112 78
f 78 80 79
f 78 112 113
f 78 113 80
f 80 113 114
f 80 114 115
f 80 115 116
f 80 116 117
f 80 117 118
f 80 118 106
f 80 106 105
f 81 119 82
f 82 119 120
f 82 120 121
f 82 121 83
f 83 121 122
f 83 122 123
f 83 123 84
f 84 123 124
f 84 124 85
f 85 124 125
f 85 125 86
f 86 125 126
f 86 126 127
f 86 127 87
f 88 129 130
f 88 130 131
f 88 131 132
f 88 132 133
f 88 133 134
f 88 134 135
f 88 135 136
f 88 136 137
f 88 137 138
f 88 138 139
f 88 139 128
f 93 140 139
f 93 139 141
f 93 141 142
f 93 142 143
f 93 143 144
f 93 144 94
f 94 145 96
f 94 96 95
f 94 144 143
f 94 143 146
f 94 146 147
f 94 147 148
f 94 148 149
f 94 149 150
f 94 150 145
f 96 145 151
f 96 151 97
f 97 151 98
f 98 151 152
f 98 152 100
f 98 100 99
f 100 152 101
f 101 153 154
f 101 152 153
f 102 155 156
f 102 156 103
f 102 107 157
f 102 157 155
f 103 158 159
f 103 159 104
f 103 156 158
f 106 118 107
f 107 118 160
f 107 160 161
f 107 161 162
f 107 162 157
f 109 163 164
f 109 164 112
f 109 111 163
f 111 165 166
f 111 166 167
f 111 167 163
f 112 164 163
f 112 163 168
f 112 168 169
f 112 169 114
f 112 114 113
f 114 169 115
f 115 170 116
f 115 169 170
f 116 171 172
f 116 172 173
f 116 173 174
f 116 174 175
f 116 175 176
f 116 176 177
f 116 177 117
f 116 170 171
f 117 177 178
f 117 178 118
f 118 178 177
f 118 177 175
f 118 175 179
f 118 179 180
f 118 180 160
f 119 181 120
f 120 181 182
f 120 182 183
f 120 183 184
f 120 184 122
f 120 122 121
f 122 184 185
f 122 185 186
f 122 186 187
f 122 187 123
f 123 187 124
f 124 187 188
f 124 188 125
f 125 188 189
f 125 189 126
f 126 189 190
f 126 190 191
f 126 191 192
f 126 192 127
f 128 139 193
f 128 193 140
f 129 194 130
f 130 194 195
f 130 195 131
f 131 196 197
f 131 197 198
f 131 198 199
f 131 199 200
f 131 200 132
f 131 195 196
f 132 200 133
f 133 200 134
f 134 200 136
f 134 136 135
f 136 201 138
f 136 138 137
f 136 200 202
f 136 202 203
f 136 203 204
f 136 204 205
f 136 205 201
f 138 201 206
f 138 206 139
f 139 206 141
f 139 140 193
f 141 206 207
f 141 207 143
f 141 143 142
f 143 207 208
f 143 208 209
f 143 209 146
f 145 150 151
f 146 209 148
f 146 148 147
f 148 209 210
f 148 210 179
f 148 179 211
f 148 211 149
f 149 211 212
f 149 212 173
f 149 173 172
f 149 172 213
f 149 213 214
f 149 214 215
f 149 215 150
f 150 215 216
f 150 216 217
f 150 217 218
f 150 218 151
f 151 218 152
f 152 218 217
f 152 217 219
f 152 219 216
f 152 216 220
f 152 220 221
f 152 221 153
f 153 221 154
f 154 221 222
f 155 223 156
f 155 157 162
f 155 162 223
f 156 223 224
f 156 224 158
f 160 225 161
f 160 180 226
f 160 226 227
f 160 227 225
f 161 225 228
f 161 228 229
f 161 229 162
f 162 229 230
f 162 230 223
f 163 167 168
f 165 231 166
f 166 232 233
f 166 233 168
f 166 168 167
f 166 231 234
f 166 234 235
f 166 235 232
f 168 233 169
f 169 233 171
f 169 171 170
f 171 233 236
f 171 236 172
f 172 236 237
f 172 237 213
f 173 179 174
f 173 212 179
f 174 179 175
f 175 177 176
f 179 238 239
f 179 239 240
f 179 240 241
f 179 241 180
f 179 212 211
f 179 210 242
f 179 242 238
f 180 241 227
f 180 227 226
f 182 243 183
f 183 244 184
f 183 243 245
f 183 245 246
f 183 246 244
f 184 244 247
f 184 247 248
f 184 248 185
f 185 248 249
f 185 249 250
f 185 250 251
f 185 251 186
f 186 251 252
f 186 252 253
f 186 253 187
f 187 253 188
f 188 253 254
f 188 254 189
f 189 254 255
f 189 255 190
f 190 256 257
f 190 257 258
f 190 258 259
f 190 259 191
f 190 255 256
f 191 259 260
f 191 260 192
f 194 261 195
f 195 261 262
f 195 262 263
f 195 263 196
f 196 263 197
f 197 263 264
f 197 264 265
f 197 265 266
f 197 266 267
f 197 267 198
f 198 268 199
f 198 267 317
f 198 317 269
f 198 269 270
f 198 270 268
f 199 268 200
f 200 268 203
f 200 203 202
f 201 205 271
f 201 271 272
f 201 272 273
f 201 273 206
f 203 268 274
f 203 274 204
f 204 274 205
f 205 274 275
f 205 275 276
f 205 276 277
f 205 277 278
f 205 278 272
f 205 272 271
f 206 273 279
f 206 279 209
f 206 209 207
f 207 209 208
f 209 279 280
f 209 280 281
f 209 281 210
f 210 281 238
f 210 238 242
f 213 216 214
f 213 237 216
f 214 216 282
f 214 282 215
f 215 282 216
f 216 283 284
f 216 284 285
f 216 285 220
f 216 219 217
f 216 237 286
f 216 286 287
f 216 287 288
f 216 288 283
f 220 285 221
f 221 285 289
f 221 289 222
f 223 244 290
f 223 290 291
f 223 291 224
f 223 230 229
f 223 229 247
f 223 247 244
f 225 227 292
f 225 292 228
f 227 241 240
f 227 240 293
f 227 293 292
f 228 248 294
f 228 294 247
f 228 247 229
f 228 292 295
f 228 295 296
f 228 296 248
f 232 235 286
f 232 286 233
f 233 286 237
f 233 237 236
f 235 297 288
f 235 288 287
f 235 287 286
f 238 281 298
f 238 298 293
f 238 293 239
f 239 293 240
f 244 246 299
f 244 299 290
f 247 294 248
f 248 296 295
f 248 295 300
f 248 300 301
f 248 301 249
f 249 301 250
f 250 301 302
f 250 302 303
f 250 303 252
f 250 252 251
f 252 303 302
f 252 302 304
f 252 304 305
f 252 305 306
f 252 306 253
f 253 306 254
f 254 306 307
f 254 307 255
f 255 307 308
f 255 308 257
f 255 257 256
f 257 309 310
f 257 310 311
f 257 311 258
f 257 308 309
f 258 312 313
f 258 313 259
f 258 311 314
f 258 314 312
f 259 313 260
f 266 315 267
f 267 315 316
f 267 316 317
f 268 270 318
f 268 318 274
f 269 319 270
f 269 317 320
f 269 320 321
f 269 321 322
f 269 322 323
f 269 323 324
f 269 324 319
f 270 319 325
f 270 325 318
f 272 326 327
f 272 327 273
f 272 278 277
f 272 277 295
f 272 295 328
f 272 328 326
f 273 327 279
f 274 318 275
f 275 318 276
f 276 318 325
f 276 325 329
f 276 329 302
f 276 302 300
f 276 300 277
f 277 300 295
f 279 327 280
f 280 327 298
f 280 298 281
f 283 330 331
f 283 331 284
f 283 288 297
f 283 297 330
f 284 331 285
f 285 331 289
f 292 293 332
f 292 332 295
f 293 298 333
f 293 333 334
f 293 334 332
f 295 332 334
f 295 334 328
f 298 327 326
f 298 326 334
f 298 334 333
f 300 302 301
f 302 329 304
f 304 329 309
f 304 309 305
f 305 309 308
f 305 308 306
f 306 308 307
f 309 329 323
f 309 323 310
f 310 323 322
f 310 322 321
f 310 321 311
f 311 335 314
f 311 321 336
f 311 336 335
f 316 337 317
f 317 337 338
f 317 338 320
f 319 324 325
f 320 338 321
f 321 338 336
f 323 329 325
f 323 325 324
f 326 328 334

