# https://github.com/mikedh/trimesh
v 0.01458455 0.02386098 -0.06836165
v 0.02146698 0.01834799 -0.06836165
v 0.02207205 0.01834799 -0.06432205
v 0.01458455 0.02684702 -0.06432205
v 0.01458455 0.03050600 -0.06836165
v 0.02650382 0.01834799 -0.06836165
v 0.02601205 0.01834799 -0.06432205
v 0.01458455 0.03111101 -0.06432205
v 0.01458455 0.03085442 -0.06750360
v 0.01461258 0.03050223 -0.06836165
v 0.02649097 0.01867628 -0.06836165
v 0.02651783 0.01834799 -0.06761352
v 0.02602022 0.01834799 -0.06435922
v 0.02599803 0.01857942 -0.06432205
v 0.01511954 0.03102674 -0.06432205
v 0.01514757 0.03103680 -0.06438887
v 0.01458455 0.03116887 -0.06459805
v 0.01458455 0.03088209 -0.06741740
v 0.01465347 0.03085064 -0.06748778
v 0.01471070 0.03048714 -0.06836165
v 0.02650498 0.01867628 -0.06761352
v 0.02639051 0.02013785 -0.06836165
v 0.02642088 0.02013785 -0.06761352
v 0.02647929 0.01834799 -0.06728453
v 0.02608681 0.01834799 -0.06468979
v 0.02606928 0.01867628 -0.06468979
v 0.02599102 0.01867628 -0.06432205
v 0.01731323 0.03051229 -0.06432205
v 0.01552603 0.03111101 -0.06536359
v 0.01469902 0.03117893 -0.06480169
v 0.01768001 0.03050726 -0.06468979
v 0.01609490 0.03090096 -0.06480169
v 0.01458455 0.03119654 -0.06479260
v 0.01621872 0.03054248 -0.06761352
v 0.01458455 0.03107831 -0.06668666
v 0.01619769 0.03024186 -0.06836165
v 0.02633327 0.01867628 -0.06615166
v 0.02623165 0.02160069 -0.06836165
v 0.02628188 0.02160069 -0.06761352
v 0.02624216 0.02013785 -0.06615166
v 0.02634612 0.01834799 -0.06615166
v 0.02629122 0.01834799 -0.06582267
v 0.02595831 0.02013785 -0.06468979
v 0.02591510 0.01967875 -0.06432205
v 0.01768001 0.03041921 -0.06432205
v 0.01552603 0.03111101 -0.06548221
v 0.01768001 0.03054877 -0.06615166
v 0.01914247 0.03006577 -0.06468979
v 0.01914247 0.03014752 -0.06615166
v 0.01458455 0.03117893 -0.06597412
v 0.01507281 0.03104309 -0.06645653
v 0.01768001 0.03023431 -0.06761352
v 0.01768001 0.02995760 -0.06836165
v 0.01719057 0.03006074 -0.06836165
v 0.01458455 0.03117768 -0.06604806
v 0.01465347 0.03116887 -0.06604252
v 0.02596883 0.02304214 -0.06836165
v 0.02604943 0.02306227 -0.06761352
v 0.02609498 0.02160069 -0.06615166
v 0.02578427 0.02403707 -0.06654826
v 0.02587304 0.02310252 -0.06609748
v 0.02587888 0.02013785 -0.06432205
v 0.02582165 0.02147994 -0.06469770
v 0.02577492 0.02119945 -0.06432205
v 0.01877568 0.03008841 -0.06432205
v 0.01609490 0.03091479 -0.06604252
v 0.02011199 0.02972113 -0.06712794
v 0.01911209 0.02998527 -0.06432205
v 0.02000452 0.02969220 -0.06432205
v 0.02009797 0.02972742 -0.06468979
v 0.02025566 0.02977899 -0.06615166
v 0.01912494 0.02986074 -0.06761471
v 0.01869625 0.02972742 -0.06836165
v 0.01849067 0.02978024 -0.06836165
v 0.02582749 0.02378928 -0.06836165
v 0.02581113 0.02409241 -0.06761352
v 0.02577259 0.02264216 -0.06519039
v 0.02556700 0.02482320 -0.06761352
v 0.02505070 0.02598542 -0.06615166
v 0.02557051 0.02452384 -0.06609748
v 0.02569082 0.02361696 -0.06557395
v 0.02567447 0.02196923 -0.06432205
v 0.02098455 0.02950730 -0.06615166
v 0.02217835 0.02862683 -0.06770526
v 0.02060025 0.02937397 -0.06761471
v 0.01959919 0.02955510 -0.06810266
v 0.02073108 0.02936391 -0.06432205
v 0.02082803 0.02942428 -0.06468979
v 0.01894155 0.02965698 -0.06836165
v 0.02578427 0.02397544 -0.06836165
v 0.02558102 0.02310252 -0.06469770
v 0.02573988 0.02410751 -0.06836165
v 0.02498996 0.02598542 -0.06761352
v 0.02448534 0.02700299 -0.06615166
v 0.02439423 0.02688853 -0.06498003
v 0.02466990 0.02611498 -0.06457156
v 0.02527147 0.02452510 -0.06468979
v 0.02564410 0.02215538 -0.06432205
v 0.02206505 0.02897147 -0.06615166
v 0.02297616 0.02830986 -0.06727939
v 0.02274138 0.02814635 -0.06825411
v 0.02192137 0.02848470 -0.06836165
v 0.02136302 0.02873626 -0.06836165
v 0.01986201 0.02933624 -0.06836165
v 0.01946486 0.02947837 -0.06836165
v 0.02205570 0.02868972 -0.06432205
v 0.02206505 0.02879412 -0.06468979
v 0.02525512 0.02415782 -0.06432205
v 0.02548523 0.02309245 -0.06432205
v 0.02546421 0.02463956 -0.06836165
v 0.02476569 0.02597285 -0.06836165
v 0.02434400 0.02670615 -0.06836165
v 0.02441175 0.02690740 -0.06761352
v 0.02378332 0.02773504 -0.06615166
v 0.02292476 0.02827967 -0.06468979
v 0.02376696 0.02740424 -0.06457156
v 0.02429261 0.02675395 -0.06432205
v 0.02448184 0.02636780 -0.06432205
v 0.02463369 0.02604077 -0.06432205
v 0.02517335 0.02452510 -0.06432205
v 0.02305209 0.02837275 -0.06615166
v 0.02348896 0.02772623 -0.06770526
v 0.02423187 0.02683571 -0.06836165
v 0.02285351 0.02799038 -0.06836165
v 0.02267596 0.02812119 -0.06836165
v 0.02253228 0.02820043 -0.06836165
v 0.02286519 0.02823314 -0.06432205
v 0.02430312 0.02677030 -0.06836165
v 0.02397605 0.02708978 -0.06432205
v 0.02366067 0.02741807 -0.06432205
f 1 2 3
f 1 3 4
f 1 4 8
f 1 8 17
f 1 17 33
f 1 33 50
f 1 50 55
f 1 55 35
f 1 35 18
f 1 18 9
f 1 9 5
f 1 5 10
f 1 10 20
f 1 20 36
f 1 36 54
f 1 54 53
f 1 53 74
f 1 74 73
f 1 73 89
f 1 89 105
f 1 105 104
f 1 104 103
f 1 103 102
f 1 102 126
f 1 126 125
f 1 125 124
f 1 124 123
f 1 123 128
f 1 128 112
f 1 112 111
f 1 111 110
f 1 110 92
f 1 92 90
f 1 90 75
f 1 75 57
f 1 57 38
f 1 38 22
f 1 22 11
f 1 11 6
f 1 6 2
f 2 6 12
f 2 12 24
f 2 24 41
f 2 41 42
f 2 42 25
f 2 25 13
f 2 13 7
f 2 7 3
f 3 7 14
f 3 14 27
f 3 27 44
f 3 44 62
f 3 62 64
f 3 64 82
f 3 82 98
f 3 98 109
f 3 109 108
f 3 108 120
f 3 120 119
f 3 119 118
f 3 118 117
f 3 117 129
f 3 129 130
f 3 130 127
f 3 127 106
f 3 106 87
f 3 87 69
f 3 69 68
f 3 68 65
f 3 65 45
f 3 45 28
f 3 28 15
f 3 15 8
f 3 8 4
f 5 9 10
f 6 11 21
f 6 21 12
f 7 13 14
f 8 15 16
f 8 16 17
f 9 18 19
f 9 19 10
f 10 19 20
f 11 22 23
f 11 23 21
f 12 21 24
f 13 25 26
f 13 26 14
f 14 26 27
f 15 28 16
f 16 29 30
f 16 30 17
f 16 28 31
f 16 31 32
f 16 32 29
f 17 30 33
f 18 34 19
f 18 35 34
f 19 34 20
f 20 34 36
f 21 37 24
f 21 23 37
f 22 38 39
f 22 39 23
f 23 39 40
f 23 40 37
f 24 37 41
f 25 42 37
f 25 37 26
f 26 37 40
f 26 40 43
f 26 43 44
f 26 44 27
f 28 45 31
f 29 46 33
f 29 33 30
f 29 32 31
f 29 31 47
f 29 47 46
f 31 45 48
f 31 48 49
f 31 49 47
f 33 46 50
f 34 35 51
f 34 51 52
f 34 52 53
f 34 53 54
f 34 54 36
f 35 55 56
f 35 56 51
f 37 42 41
f 38 57 58
f 38 58 39
f 39 59 40
f 39 58 60
f 39 60 61
f 39 61 59
f 40 59 43
f 43 62 44
f 43 59 63
f 43 63 64
f 43 64 62
f 45 65 48
f 46 66 51
f 46 51 56
f 46 56 55
f 46 55 50
f 46 47 66
f 47 49 67
f 47 67 52
f 47 52 66
f 48 65 68
f 48 68 69
f 48 69 70
f 48 70 71
f 48 71 49
f 49 71 67
f 51 66 52
f 52 67 72
f 52 72 73
f 52 73 74
f 52 74 53
f 57 75 58
f 58 75 76
f 58 76 60
f 59 61 77
f 59 77 63
f 60 76 78
f 60 78 79
f 60 79 80
f 60 80 81
f 60 81 61
f 61 81 77
f 63 77 82
f 63 82 64
f 67 71 83
f 67 83 84
f 67 84 85
f 67 85 86
f 67 86 72
f 69 87 88
f 69 88 70
f 70 88 83
f 70 83 71
f 72 86 89
f 72 89 73
f 75 90 76
f 76 90 78
f 77 81 91
f 77 91 82
f 78 90 92
f 78 92 93
f 78 93 79
f 79 93 94
f 79 94 95
f 79 95 96
f 79 96 80
f 80 97 81
f 80 96 97
f 81 97 91
f 82 91 98
f 83 88 99
f 83 99 84
f 84 100 101
f 84 101 102
f 84 102 85
f 84 99 100
f 85 103 104
f 85 104 86
f 85 102 103
f 86 104 105
f 86 105 89
f 87 106 88
f 88 106 107
f 88 107 99
f 91 97 108
f 91 108 109
f 91 109 98
f 92 110 93
f 93 111 112
f 93 112 113
f 93 113 94
f 93 110 111
f 94 113 114
f 94 114 95
f 95 114 115
f 95 115 116
f 95 116 117
f 95 117 96
f 96 117 118
f 96 118 119
f 96 119 97
f 97 120 108
f 97 119 120
f 99 121 100
f 99 107 115
f 99 115 121
f 100 121 114
f 100 114 113
f 100 113 122
f 100 122 101
f 101 122 123
f 101 123 124
f 101 124 125
f 101 125 126
f 101 126 102
f 106 127 107
f 107 127 115
f 112 128 113
f 113 128 122
f 114 121 115
f 115 127 116
f 116 129 117
f 116 127 130
f 116 130 129
f 122 128 123

