# https://github.com/mikedh/trimesh
v -0.04124628 0.00551779 -0.04764059
v -0.04124351 0.00621991 -0.04764059
v -0.04121585 0.00405537 -0.04764059
v -0.04103048 0.00551779 -0.04714384
v -0.04102771 0.00698022 -0.04714384
v -0.04123798 0.00698022 -0.04764059
v -0.04113561 0.00275640 -0.04764059
v -0.04100005 0.00405537 -0.04714384
v -0.04039137 0.00551779 -0.04579012
v -0.04039137 0.00698022 -0.04576547
v -0.04037754 0.00844141 -0.04577874
v -0.04099728 0.00844141 -0.04714384
v -0.04122414 0.00769100 -0.04764059
v -0.04091981 0.00275640 -0.04714384
v -0.03750850 0.00275640 -0.04764059
v -0.04037477 0.00405537 -0.04585648
v -0.04001234 0.00551779 -0.04506017
v -0.04002617 0.00698022 -0.04503363
v -0.04002341 0.00844141 -0.04504690
v -0.04034157 0.00990259 -0.04585837
v -0.04091705 0.00990259 -0.04714384
v -0.04120478 0.00844141 -0.04764059
v -0.04033051 0.00275640 -0.04594370
v -0.03487739 0.01540557 -0.04764059
v -0.01857336 0.01540557 -0.03407110
v -0.01703785 0.01540557 -0.03263774
v -0.01563791 0.01540557 -0.03115699
v -0.01298190 0.01540557 -0.02827131
v -0.02711132 0.00275640 -0.03446736
v -0.04028624 0.00275640 -0.04586217
v -0.03997084 0.00405537 -0.04512464
v -0.03940644 0.00405537 -0.04422025
v -0.03948390 0.00551779 -0.04422025
v -0.03952817 0.00698022 -0.04422025
v -0.03953094 0.00844141 -0.04422025
v -0.03997637 0.00990259 -0.04512653
v -0.03944517 0.00990259 -0.04422025
v -0.04020601 0.01136502 -0.04614467
v -0.04067634 0.01136502 -0.04714384
v -0.04088661 0.01139226 -0.04764059
v -0.04111901 0.00990259 -0.04764059
v -0.04116328 0.00919181 -0.04764059
v -0.03959180 0.01540557 -0.04764059
v -0.01996500 0.01540557 -0.02827131
v -0.02359764 0.00275640 -0.02827131
v -0.02389921 0.00275640 -0.02907521
v -0.02422015 0.00275640 -0.02980705
v -0.02485372 0.00275640 -0.03106219
v -0.02535448 0.00275640 -0.03194951
v -0.02581652 0.00275640 -0.03268135
v -0.02654692 0.00275640 -0.03373551
v -0.03991551 0.00275640 -0.04521185
v -0.03985464 0.00275640 -0.04511136
v -0.03930131 0.00275640 -0.04422025
v -0.03872584 0.00275640 -0.04331966
v -0.03877564 0.00405537 -0.04324951
v -0.03881160 0.00551779 -0.04320211
v -0.03884203 0.00698022 -0.04316420
v -0.03885034 0.00844141 -0.04315851
v -0.03880607 0.00990259 -0.04322297
v -0.03980484 0.01136502 -0.04541282
v -0.03871477 0.01086475 -0.04334810
v -0.04008981 0.01214762 -0.04637977
v -0.04031114 0.01271104 -0.04715712
v -0.04053248 0.01274943 -0.04764059
v -0.03990721 0.01467003 -0.04764059
v -0.03935664 0.01540557 -0.04727088
v -0.01999543 0.01537957 -0.02827131
v -0.03166251 0.01540557 -0.03875226
v -0.02782236 0.00275640 -0.02827131
v -0.03820570 0.00275640 -0.04258971
v -0.03825550 0.00405537 -0.04251957
v -0.03828593 0.00551779 -0.04247217
v -0.03830530 0.00698022 -0.04243235
v -0.03829423 0.00844141 -0.04242856
v -0.03821400 0.00990259 -0.04249302
v -0.03991827 0.01312216 -0.04667933
v -0.03904677 0.01135759 -0.04417665
v -0.03732866 0.01102201 -0.04183322
v -0.03709903 0.01199655 -0.04207970
v -0.03750296 0.01282621 -0.04306181
v -0.03847960 0.01184052 -0.04366284
v -0.03861794 0.01357537 -0.04493883
v -0.03889184 0.01415242 -0.04571807
v -0.02761209 0.00405537 -0.02827131
v -0.02726349 0.00546950 -0.02827131
v -0.02679316 0.00690468 -0.02827131
v -0.02671846 0.00713253 -0.02827131
v -0.04019494 0.01387133 -0.04764059
v -0.03973291 0.01435302 -0.04715712
v -0.03873690 0.01528670 -0.04622998
v -0.03882267 0.01540557 -0.04644234
v -0.02231391 0.01337477 -0.02827131
v -0.03193088 0.01540557 -0.03899305
v -0.02631452 0.00829900 -0.02827131
v -0.02626472 0.00844141 -0.02827131
v -0.02566712 0.00980848 -0.02827131
v -0.02565882 0.00982706 -0.02827131
v -0.03686386 0.01282621 -0.04232997
v -0.03726226 0.01377226 -0.04335190
v -0.02564775 0.00984811 -0.02827131
v -0.03823337 0.01282621 -0.04397567
v -0.03837447 0.01454991 -0.04525546
v -0.03857920 0.01540557 -0.04610296
v -0.03870647 0.01540557 -0.04627170
v -0.02323244 0.01256864 -0.02827131
v -0.03240398 0.01540557 -0.03942534
v -0.02329884 0.01250796 -0.02827131
v -0.02326288 0.01254140 -0.02827131
v -0.03641843 0.01429358 -0.04275088
v -0.03698836 0.01474680 -0.04366852
v -0.03742827 0.01540557 -0.04462220
v -0.02468495 0.01114832 -0.02827131
v -0.03492719 0.01540557 -0.04186545
v -0.03538645 0.01540557 -0.04233944
v -0.03556629 0.01481614 -0.04214985
v -0.03810057 0.01540557 -0.04547539
v -0.03345808 0.01540557 -0.04041503
v -0.02460472 0.01125233 -0.02827131
v -0.02452171 0.01133282 -0.02827131
v -0.03607259 0.01540557 -0.04308077
v -0.03631606 0.01540557 -0.04335000
v -0.03686940 0.01540557 -0.04396430
v -0.03391735 0.01540557 -0.04086248
f 1 2 6
f 1 6 13
f 1 13 22
f 1 22 42
f 1 42 41
f 1 41 40
f 1 40 65
f 1 65 89
f 1 89 66
f 1 66 43
f 1 43 24
f 1 24 15
f 1 15 7
f 1 7 3
f 1 3 8
f 1 8 4
f 1 4 5
f 1 5 2
f 2 5 6
f 3 7 14
f 3 14 8
f 4 8 9
f 4 9 10
f 4 10 5
f 5 10 11
f 5 11 12
f 5 12 13
f 5 13 6
f 7 15 29
f 7 29 51
f 7 51 50
f 7 50 49
f 7 49 48
f 7 48 47
f 7 47 46
f 7 46 45
f 7 45 70
f 7 70 71
f 7 71 55
f 7 55 54
f 7 54 53
f 7 53 52
f 7 52 30
f 7 30 23
f 7 23 14
f 8 14 16
f 8 16 9
f 9 16 17
f 9 17 18
f 9 18 10
f 10 18 19
f 10 19 11
f 11 19 20
f 11 20 12
f 12 21 22
f 12 22 13
f 12 20 21
f 14 23 16
f 15 24 25
f 15 25 26
f 15 26 27
f 15 27 28
f 15 28 29
f 16 23 30
f 16 30 31
f 16 31 17
f 17 31 32
f 17 32 33
f 17 33 34
f 17 34 18
f 18 34 35
f 18 35 19
f 19 36 20
f 19 35 37
f 19 37 36
f 20 36 38
f 20 38 39
f 20 39 21
f 21 39 40
f 21 40 41
f 21 41 42
f 21 42 22
f 24 43 67
f 24 67 92
f 24 92 105
f 24 105 104
f 24 104 117
f 24 117 112
f 24 112 123
f 24 123 122
f 24 122 121
f 24 121 115
f 24 115 114
f 24 114 124
f 24 124 118
f 24 118 107
f 24 107 94
f 24 94 69
f 24 69 44
f 24 44 28
f 24 28 27
f 24 27 26
f 24 26 25
f 28 44 68
f 28 68 93
f 28 93 106
f 28 106 109
f 28 109 108
f 28 108 120
f 28 120 119
f 28 119 113
f 28 113 101
f 28 101 98
f 28 98 97
f 28 97 96
f 28 96 95
f 28 95 88
f 28 88 87
f 28 87 86
f 28 86 85
f 28 85 70
f 28 70 45
f 28 45 46
f 28 46 47
f 28 47 48
f 28 48 49
f 28 49 50
f 28 50 51
f 28 51 29
f 30 52 31
f 31 52 53
f 31 53 54
f 31 54 32
f 32 54 55
f 32 55 56
f 32 56 33
f 33 56 57
f 33 57 58
f 33 58 34
f 34 58 59
f 34 59 35
f 35 59 60
f 35 60 37
f 36 61 38
f 36 37 62
f 36 62 61
f 37 60 62
f 38 63 64
f 38 64 65
f 38 65 39
f 38 61 63
f 39 65 40
f 43 66 67
f 44 69 68
f 55 71 72
f 55 72 56
f 56 72 57
f 57 72 73
f 57 73 58
f 58 73 70
f 58 70 74
f 58 74 59
f 59 74 70
f 59 70 75
f 59 75 60
f 60 75 70
f 60 70 76
f 60 76 62
f 61 77 63
f 61 62 78
f 61 78 77
f 62 79 80
f 62 80 81
f 62 81 82
f 62 82 83
f 62 83 84
f 62 84 78
f 62 76 85
f 62 85 86
f 62 86 87
f 62 87 88
f 62 88 79
f 63 89 64
f 63 77 89
f 64 89 65
f 66 77 90
f 66 90 67
f 66 89 77
f 67 84 91
f 67 91 92
f 67 90 84
f 68 69 93
f 69 94 93
f 70 73 72
f 70 72 71
f 70 85 76
f 77 78 90
f 78 84 90
f 79 88 95
f 79 95 96
f 79 96 97
f 79 97 98
f 79 98 80
f 80 99 100
f 80 100 81
f 80 98 101
f 80 101 99
f 81 100 82
f 82 102 83
f 82 100 102
f 83 103 91
f 83 91 84
f 83 102 100
f 83 100 103
f 91 103 104
f 91 104 105
f 91 105 92
f 93 94 106
f 94 107 108
f 94 108 109
f 94 109 106
f 99 110 100
f 99 101 110
f 100 110 111
f 100 111 112
f 100 112 103
f 101 113 114
f 101 114 115
f 101 115 116
f 101 116 110
f 103 117 104
f 103 112 117
f 107 118 119
f 107 119 120
f 107 120 108
f 110 116 121
f 110 121 111
f 111 121 122
f 111 122 123
f 111 123 112
f 113 119 114
f 114 119 124
f 115 121 116
f 118 124 119

