# https://github.com/mikedh/trimesh
v 0.02169509 0.01138348 0.04253773
v 0.02152376 0.01195845 0.04253773
v 0.01810960 0.01138348 0.04253773
v 0.02165478 0.01138348 0.04203992
v 0.02139273 0.01226711 0.04203992
v 0.02141289 0.01233007 0.04253773
v -0.00404338 0.01837613 0.04253773
v 0.00586398 0.01138348 0.01428583
v 0.02160943 0.01138348 0.04158176
v 0.02134990 0.01214633 0.04118527
v 0.02112061 0.01299796 0.04203992
v 0.02114329 0.01306093 0.04253773
v 0.02132218 0.01257885 0.04253773
v -0.00404338 0.02177336 0.04253773
v -0.00404338 0.01426869 0.00841782
v 0.00539532 0.01138348 0.01306113
v 0.02151620 0.01138348 0.04064782
v 0.02138013 0.01138348 0.03957289
v 0.02128439 0.01194503 0.04021168
v 0.02106518 0.01271098 0.04065222
v 0.02080061 0.01282763 0.03911473
v 0.02019841 0.01404159 0.03911473
v 0.02030675 0.01417992 0.04057733
v 0.02062423 0.01397553 0.04253773
v -0.00278858 0.02181568 0.04253773
v -0.00404338 0.02179194 0.04203992
v -0.00404338 0.01392598 0.00549263
v 0.00490650 0.01138348 0.01153245
v 0.02131462 0.01138348 0.03911473
v 0.02120376 0.01171277 0.03911473
v 0.02126423 0.01138348 0.03877992
v 0.02112061 0.01138348 0.03796492
v 0.02106518 0.01138348 0.03766095
v 0.02052092 0.01282763 0.03765213
v 0.02004975 0.01382791 0.03765213
v 0.01966424 0.01477245 0.03911473
v 0.01978266 0.01491077 0.04057733
v 0.01984817 0.01498922 0.04149365
v 0.01991116 0.01507077 0.04246724
v 0.02030928 0.01441734 0.04200468
v 0.02039494 0.01437192 0.04253773
v -0.00132465 0.02184046 0.04253773
v -0.00278858 0.02183117 0.04203992
v -0.00278858 0.02186936 0.04057733
v -0.00404338 0.02179710 0.04183728
v -0.00404338 0.01377733 0.00403003
v -0.00404338 0.01316003 -0.00245914
v 0.00487375 0.01138348 0.01140469
v 0.02073006 0.01138348 0.03619394
v 0.02072502 0.01138348 0.03617192
v 0.02014549 0.01286273 0.03622038
v 0.01992880 0.01364726 0.03672259
v 0.01950046 0.01455980 0.03765213
v 0.01876723 0.01539491 0.03765213
v 0.01893101 0.01558382 0.03911473
v 0.01846487 0.01654074 0.04105311
v 0.01854046 0.01662435 0.04203992
v 0.01937699 0.01563543 0.04200468
v 0.01987337 0.01512755 0.04253773
v 0.01991368 0.01507594 0.04253773
v 0.01995652 0.01501503 0.04253773
v 0.00013676 0.02185388 0.04253773
v -0.00132465 0.02185388 0.04203992
v -0.00132465 0.02191684 0.03911473
v -0.00278858 0.02188794 0.03911473
v -0.00404338 0.02182910 0.04057733
v -0.00132465 0.02189104 0.04057733
v -0.00404338 0.01702591 -0.00245914
v 0.00243219 0.01138348 -0.00245914
v 0.00243219 0.01138348 -0.00242390
v 0.00244226 0.01138348 -0.00185560
v 0.00246242 0.01138348 -0.00102738
v 0.00254809 0.01138348 -0.00036216
v 0.00291848 0.01138348 0.00239122
v 0.00318053 0.01138348 0.00420625
v 0.00350809 0.01138348 0.00605652
v 0.02000439 0.01239924 0.03511902
v 0.02024880 0.01138348 0.03467407
v 0.01977510 0.01337371 0.03574900
v 0.00653673 0.01462380 -0.00245914
v 0.01858330 0.01520084 0.03648910
v 0.00580603 0.01539284 -0.00245914
v 0.01801385 0.01612576 0.03765213
v 0.01823306 0.01631467 0.03911473
v 0.01835401 0.01642719 0.04007952
v 0.01765354 0.01718695 0.04068746
v 0.01695055 0.01794670 0.04129541
v 0.01774425 0.01735417 0.04203992
v 0.01778708 0.01739134 0.04253773
v 0.01831117 0.01690926 0.04253773
v 0.01857322 0.01666048 0.04253773
v 0.01937447 0.01571904 0.04253773
v 0.00159817 0.02185904 0.04253773
v 0.00013676 0.02186626 0.04203992
v 0.00013676 0.02192820 0.03911473
v -0.00132465 0.02191684 0.03765213
v -0.00404338 0.02184252 0.03911473
v -0.00404338 0.02183117 0.04037468
v -0.00278858 0.02188175 0.03765213
v 0.00013676 0.02190033 0.04057733
v -0.00404338 0.02110135 0.02867831
v -0.00278858 0.01713224 -0.00245914
v 0.00823247 0.01138348 -0.00245914
v 0.00452352 0.01565504 -0.00245914
v 0.00452352 0.02129335 0.03180615
v 0.00612351 0.02115399 0.03313218
v 0.00749169 0.02108380 0.03473575
v 0.00860791 0.02101051 0.03619394
v 0.00958302 0.02085050 0.03701776
v 0.00983247 0.02093618 0.03799576
v 0.01105451 0.02085566 0.03996938
v 0.01174994 0.02063579 0.04050684
v 0.01329198 0.02017642 0.04203992
v 0.01341796 0.01982029 0.04048482
v 0.01418647 0.01949718 0.04090773
v 0.01470552 0.01911627 0.04048482
v 0.01626520 0.01825226 0.04071830
v 0.01678677 0.01783522 0.04032182
v 0.01728315 0.01675545 0.03765213
v 0.01750235 0.01695675 0.03911473
v 0.01510867 0.01919060 0.04203992
v 0.01621732 0.01851136 0.04203992
v 0.01621732 0.01857742 0.04253773
v 0.01674142 0.01823780 0.04253773
v 0.01701354 0.01799522 0.04203992
v 0.01730582 0.01781354 0.04253773
v 0.00305958 0.02183426 0.04253773
v 0.00159817 0.02187039 0.04203992
v 0.00159817 0.02191788 0.03911473
v 0.00013676 0.02192820 0.03765213
v 0.00159817 0.02190033 0.04057733
v -0.00132465 0.02187349 0.03619394
v -0.00404338 0.02184149 0.03891208
v -0.00404338 0.02183117 0.03765213
v -0.00278858 0.02183736 0.03619394
v -0.00404338 0.02112715 0.02888096
v -0.00278858 0.02101567 0.02741836
v -0.00132465 0.02084018 0.02544033
v 0.00013676 0.02086186 0.02527733
v 0.00159817 0.02091966 0.02629939
v 0.00236163 0.02087734 0.02663860
v 0.00266652 0.02094547 0.02741836
v 0.00305958 0.02130367 0.03034355
v 0.00452352 0.02149258 0.03326875
v 0.00598493 0.02143890 0.03473134
v 0.00744634 0.02131915 0.03619394
v 0.00901861 0.02109618 0.03756402
v 0.01011719 0.02100947 0.03911473
v 0.01048758 0.02104973 0.04050684
v 0.01120821 0.02090418 0.04094297
v 0.01205734 0.02070701 0.04203992
v 0.01329198 0.02022597 0.04253773
v 0.01444095 0.01964067 0.04253773
v 0.01437796 0.01960557 0.04203992
v 0.01469040 0.01949925 0.04253773
v 0.01517166 0.01922570 0.04253773
v 0.01589984 0.01877872 0.04253773
v 0.01705637 0.01802619 0.04253773
v 0.00452352 0.02177645 0.04253773
v 0.00305958 0.02184459 0.04203992
v 0.00305958 0.02187969 0.03911473
v 0.00159817 0.02190962 0.03765213
v 0.00305958 0.02186936 0.04057733
v 0.00013676 0.02188072 0.03619394
v -0.00132465 0.02178678 0.03473134
v -0.00278858 0.02175375 0.03473134
v -0.00404338 0.02182497 0.03744948
v -0.00404338 0.02177439 0.03598689
v -0.00404338 0.02178575 0.03619394
v -0.00404338 0.02128096 0.03013650
v -0.00278858 0.02119838 0.02888096
v -0.00132465 0.02093205 0.02617163
v 0.00013676 0.02095063 0.02600863
v 0.00159817 0.02125929 0.02888096
v 0.00159817 0.02107554 0.02741836
v 0.00305958 0.02147193 0.03180615
v 0.00305958 0.02161129 0.03326875
v 0.00452352 0.02163090 0.03473134
v 0.00598493 0.02157723 0.03619394
v 0.00744634 0.02146368 0.03765213
v 0.00890523 0.02129954 0.03911473
v 0.00890523 0.02138109 0.04057733
v 0.01036916 0.02114676 0.04203992
v 0.01132664 0.02093205 0.04203992
v 0.01207498 0.02072250 0.04253773
v 0.00548603 0.02172174 0.04253773
v 0.00598493 0.02170420 0.04203992
v 0.00452352 0.02178678 0.04203992
v 0.00452352 0.02181672 0.03911473
v 0.00305958 0.02186523 0.03765213
v 0.00452352 0.02180949 0.04057733
v 0.00159817 0.02185594 0.03619394
v 0.00013676 0.02179400 0.03473134
v 0.00013676 0.02168871 0.03326875
v -0.00132465 0.02167942 0.03326875
v -0.00278858 0.02164536 0.03326875
v -0.00404338 0.02170110 0.03473134
v -0.00404338 0.02130470 0.03034355
v -0.00278858 0.02136767 0.03034355
v -0.00132465 0.02108173 0.02741836
v 0.00013676 0.02111476 0.02741836
v 0.00013676 0.02127580 0.02888096
v 0.00159817 0.02141206 0.03034355
v 0.00159817 0.02166394 0.03326875
v 0.00305958 0.02172278 0.03473134
v 0.00159817 0.02154832 0.03180615
v 0.00452352 0.02172691 0.03619394
v 0.00598493 0.02166600 0.03765213
v 0.00744634 0.02154316 0.03911473
v 0.00744634 0.02157619 0.04057733
v 0.00890523 0.02139451 0.04203992
v 0.01036916 0.02114470 0.04253773
v 0.01134427 0.02093308 0.04253773
v 0.01159372 0.02087012 0.04253773
v 0.00598493 0.02169284 0.04253773
v 0.00744634 0.02157206 0.04203992
v 0.00598493 0.02171762 0.04057733
v 0.00744634 0.02156174 0.04253773
v 0.00598493 0.02170833 0.03911473
v 0.00452352 0.02178987 0.03765213
v 0.00305958 0.02181155 0.03619394
v 0.00159817 0.02176407 0.03473134
v 0.00013676 0.02156690 0.03180615
v -0.00132465 0.02155451 0.03180615
v -0.00404338 0.02158652 0.03326875
v -0.00404338 0.02168562 0.03452429
v -0.00278858 0.02151529 0.03180615
v -0.00404338 0.02143477 0.03159910
v -0.00132465 0.02141000 0.03034355
v -0.00132465 0.02125103 0.02888096
v 0.00013676 0.02142858 0.03034355
v 0.00890523 0.02138522 0.04253773
v -0.00404338 0.02145542 0.03180615
f 1 2 6
f 1 6 13
f 1 13 12
f 1 12 24
f 1 24 41
f 1 41 61
f 1 61 60
f 1 60 59
f 1 59 92
f 1 92 91
f 1 91 90
f 1 90 89
f 1 89 126
f 1 126 158
f 1 158 124
f 1 124 123
f 1 123 157
f 1 157 156
f 1 156 155
f 1 155 153
f 1 153 152
f 1 152 185
f 1 185 214
f 1 214 213
f 1 213 212
f 1 212 232
f 1 232 218
f 1 218 215
f 1 215 186
f 1 186 159
f 1 159 127
f 1 127 93
f 1 93 62
f 1 62 42
f 1 42 25
f 1 25 14
f 1 14 7
f 1 7 3
f 1 3 8
f 1 8 16
f 1 16 28
f 1 28 48
f 1 48 76
f 1 76 75
f 1 75 74
f 1 74 73
f 1 73 72
f 1 72 71
f 1 71 70
f 1 70 69
f 1 69 103
f 1 103 78
f 1 78 50
f 1 50 49
f 1 49 33
f 1 33 32
f 1 32 31
f 1 31 29
f 1 29 18
f 1 18 17
f 1 17 9
f 1 9 4
f 1 4 5
f 1 5 2
f 2 5 6
f 3 7 8
f 4 9 10
f 4 10 5
f 5 10 11
f 5 11 12
f 5 12 13
f 5 13 6
f 7 14 26
f 7 26 45
f 7 45 66
f 7 66 98
f 7 98 97
f 7 97 133
f 7 133 134
f 7 134 167
f 7 167 169
f 7 169 168
f 7 168 197
f 7 197 226
f 7 226 225
f 7 225 233
f 7 233 228
f 7 228 198
f 7 198 170
f 7 170 136
f 7 136 101
f 7 101 68
f 7 68 47
f 7 47 46
f 7 46 27
f 7 27 15
f 7 15 16
f 7 16 8
f 9 17 10
f 10 17 18
f 10 18 19
f 10 19 20
f 10 20 11
f 11 20 21
f 11 21 22
f 11 22 23
f 11 23 12
f 12 23 24
f 14 25 26
f 15 27 16
f 16 27 28
f 18 29 19
f 19 29 30
f 19 30 21
f 19 21 20
f 21 30 31
f 21 31 32
f 21 32 33
f 21 33 34
f 21 34 35
f 21 35 22
f 22 35 36
f 22 36 37
f 22 37 23
f 23 37 38
f 23 38 39
f 23 39 40
f 23 40 41
f 23 41 24
f 25 42 43
f 25 43 26
f 26 43 44
f 26 44 45
f 27 46 28
f 28 46 47
f 28 47 48
f 29 31 30
f 33 49 34
f 34 49 50
f 34 50 51
f 34 51 52
f 34 52 35
f 35 52 53
f 35 53 36
f 36 53 54
f 36 54 55
f 36 55 56
f 36 56 37
f 37 56 57
f 37 57 58
f 37 58 38
f 38 58 59
f 38 59 39
f 39 59 60
f 39 60 61
f 39 61 40
f 40 61 41
f 42 62 63
f 42 63 43
f 43 63 44
f 44 64 65
f 44 65 66
f 44 66 45
f 44 63 67
f 44 67 64
f 47 68 102
f 47 102 104
f 47 104 82
f 47 82 80
f 47 80 103
f 47 103 69
f 47 69 70
f 47 70 71
f 47 71 72
f 47 72 73
f 47 73 74
f 47 74 75
f 47 75 76
f 47 76 48
f 50 77 51
f 50 78 77
f 51 77 79
f 51 79 52
f 52 79 80
f 52 80 53
f 53 81 54
f 53 80 81
f 54 81 82
f 54 82 83
f 54 83 84
f 54 84 85
f 54 85 55
f 55 85 56
f 56 85 86
f 56 86 87
f 56 87 88
f 56 88 57
f 57 88 89
f 57 89 90
f 57 90 91
f 57 91 92
f 57 92 58
f 58 92 59
f 62 93 94
f 62 94 67
f 62 67 63
f 64 67 95
f 64 95 130
f 64 130 96
f 64 96 65
f 65 97 98
f 65 98 66
f 65 96 99
f 65 99 97
f 67 94 100
f 67 100 95
f 68 101 102
f 77 78 103
f 77 103 79
f 79 103 80
f 80 82 81
f 82 104 105
f 82 105 106
f 82 106 107
f 82 107 108
f 82 108 109
f 82 109 110
f 82 110 111
f 82 111 112
f 82 112 113
f 82 113 114
f 82 114 115
f 82 115 116
f 82 116 117
f 82 117 87
f 82 87 118
f 82 118 119
f 82 119 83
f 83 119 120
f 83 120 84
f 84 120 87
f 84 87 86
f 84 86 85
f 87 120 118
f 87 117 121
f 87 121 122
f 87 122 123
f 87 123 124
f 87 124 125
f 87 125 126
f 87 126 89
f 87 89 88
f 93 127 128
f 93 128 100
f 93 100 94
f 95 129 130
f 95 100 131
f 95 131 129
f 96 130 132
f 96 132 99
f 97 99 133
f 99 134 133
f 99 132 135
f 99 135 134
f 100 128 131
f 101 136 137
f 101 137 102
f 102 137 138
f 102 138 139
f 102 139 140
f 102 140 141
f 102 141 142
f 102 142 105
f 102 105 104
f 105 142 143
f 105 143 144
f 105 144 145
f 105 145 106
f 106 145 107
f 107 145 146
f 107 146 108
f 108 146 147
f 108 147 110
f 108 110 109
f 110 148 111
f 110 147 148
f 111 148 149
f 111 149 150
f 111 150 151
f 111 151 112
f 112 151 113
f 113 151 152
f 113 152 153
f 113 153 154
f 113 154 115
f 113 115 114
f 115 154 121
f 115 121 116
f 116 121 117
f 118 120 119
f 121 154 155
f 121 155 156
f 121 156 122
f 122 156 157
f 122 157 123
f 124 158 125
f 125 158 126
f 127 159 188
f 127 188 160
f 127 160 128
f 128 160 131
f 129 161 162
f 129 162 130
f 129 131 163
f 129 163 161
f 130 162 164
f 130 164 132
f 131 160 163
f 132 164 193
f 132 193 165
f 132 165 166
f 132 166 135
f 134 135 167
f 135 166 168
f 135 168 169
f 135 169 167
f 136 170 171
f 136 171 137
f 137 171 172
f 137 172 138
f 138 172 139
f 139 172 173
f 139 173 174
f 139 174 175
f 139 175 140
f 140 175 141
f 141 175 143
f 141 143 142
f 143 175 174
f 143 174 176
f 143 176 144
f 144 177 178
f 144 178 179
f 144 179 145
f 144 176 177
f 145 179 180
f 145 180 146
f 146 180 181
f 146 181 148
f 146 148 147
f 148 181 149
f 149 181 182
f 149 182 183
f 149 183 184
f 149 184 150
f 150 184 151
f 151 184 185
f 151 185 152
f 153 155 154
f 159 186 187
f 159 187 188
f 160 188 163
f 161 189 190
f 161 190 162
f 161 163 191
f 161 191 189
f 162 190 221
f 162 221 192
f 162 192 164
f 163 188 191
f 164 192 193
f 165 193 194
f 165 194 195
f 165 195 166
f 166 195 196
f 166 196 197
f 166 197 168
f 170 198 199
f 170 199 171
f 171 199 230
f 171 230 200
f 171 200 172
f 172 200 173
f 173 200 201
f 173 201 174
f 174 202 231
f 174 231 203
f 174 203 176
f 174 201 202
f 176 203 177
f 177 204 205
f 177 205 178
f 177 203 206
f 177 206 204
f 178 205 207
f 178 207 179
f 179 207 208
f 179 208 180
f 180 208 209
f 180 209 182
f 180 182 181
f 182 210 211
f 182 211 183
f 182 209 210
f 183 211 212
f 183 212 213
f 183 213 184
f 184 213 214
f 184 214 185
f 186 215 187
f 187 216 217
f 187 217 191
f 187 191 188
f 187 215 218
f 187 218 216
f 189 219 220
f 189 220 190
f 189 191 217
f 189 217 219
f 190 220 221
f 192 221 205
f 192 205 222
f 192 222 193
f 193 222 204
f 193 204 194
f 194 204 206
f 194 206 223
f 194 223 195
f 195 223 224
f 195 224 196
f 196 225 226
f 196 226 197
f 196 224 227
f 196 227 225
f 198 228 199
f 199 228 227
f 199 227 229
f 199 229 230
f 200 230 201
f 201 230 202
f 202 230 229
f 202 229 231
f 203 231 223
f 203 223 206
f 204 222 205
f 205 221 207
f 207 221 220
f 207 220 208
f 208 220 219
f 208 219 209
f 209 219 210
f 210 219 217
f 210 217 216
f 210 216 211
f 211 216 232
f 211 232 212
f 216 218 232
f 223 231 224
f 224 231 229
f 224 229 227
f 225 227 233
f 227 228 233

