# https://github.com/mikedh/trimesh
v 0.00794505 0.01185165 -0.01974987
v 0.00794505 0.01185165 -0.00772152
v 0.00759207 0.01185165 -0.01936514
v -0.00695584 0.01280330 -0.01059594
v -0.00695584 0.01300744 -0.01206411
v -0.00695584 0.01326562 -0.01358092
v -0.00695584 0.01376996 -0.01646418
v -0.00695584 0.01403265 -0.01790582
v -0.00695584 0.01431484 -0.01936514
v -0.00695584 0.01463906 -0.02082888
v -0.00695584 0.01491825 -0.02193885
v -0.00695584 0.01511339 -0.02267293
v -0.00695584 0.01543611 -0.02375194
v -0.00695584 0.01869785 -0.03398488
v -0.00695584 0.01919770 -0.03552380
v -0.00695584 0.01960148 -0.03669569
v -0.00695584 0.02089987 -0.04046339
v -0.00695584 0.02347114 -0.04764059
v 0.00794505 0.02298330 -0.04764059
v 0.00766354 0.01185165 -0.00246354
v 0.00794505 0.01627068 -0.01420887
v 0.00649084 0.01185165 -0.01806944
v -0.00695584 0.01262768 -0.00913220
v -0.00695584 0.02694903 -0.04764059
v 0.00794505 0.02666383 -0.04764059
v 0.00653605 0.01462405 -0.00246354
v 0.00149665 0.01185165 -0.00246354
v 0.00794505 0.01642829 -0.01446093
v 0.00794505 0.01679605 -0.01510657
v 0.00552234 0.01185165 -0.01645976
v -0.00695584 0.01248208 -0.00757117
v 0.00013579 0.02717418 -0.04764059
v -0.00695584 0.01619113 -0.00246354
v -0.00544475 0.01665495 -0.00246354
v -0.00425017 0.01701220 -0.00246354
v -0.00278867 0.01713378 -0.00246354
v 0.00757602 0.02670736 -0.04764059
v 0.00452029 0.01565526 -0.00246354
v 0.00508768 0.01553968 -0.00246354
v 0.00580530 0.01539258 -0.00246354
v 0.00794505 0.01690562 -0.01535421
v 0.00149373 0.01185165 -0.00249892
v -0.00695584 0.01255113 -0.00246354
v -0.00695584 0.01248959 -0.00328607
v -0.00695584 0.01242654 -0.00470559
v 0.00403313 0.01185165 -0.01357650
v -0.00695584 0.01246557 -0.00724393
v 0.00063025 0.02717869 -0.04764059
v 0.00159583 0.02718469 -0.04764059
v 0.00598325 0.02688449 -0.04764059
v 0.00452029 0.02701658 -0.04764059
v 0.00302816 0.02712015 -0.04764059
v 0.00143685 0.01185165 -0.00328607
v 0.00144414 0.01185165 -0.00474539
v 0.00142372 0.01185165 -0.00356909
v -0.00695584 0.01243405 -0.00620913
v 0.00333301 0.01185165 -0.01205526
v 0.00273645 0.01185165 -0.01062690
v 0.00156083 0.01185165 -0.00617376
v 0.00157104 0.01185165 -0.00625778
v 0.00230033 0.01185165 -0.00913220
v 0.00187442 0.01185165 -0.00766846
f 1 2 20
f 1 20 27
f 1 27 42
f 1 42 53
f 1 53 55
f 1 55 54
f 1 54 59
f 1 59 60
f 1 60 62
f 1 62 61
f 1 61 58
f 1 58 57
f 1 57 46
f 1 46 30
f 1 30 22
f 1 22 3
f 1 3 4
f 1 4 5
f 1 5 6
f 1 6 7
f 1 7 8
f 1 8 9
f 1 9 10
f 1 10 11
f 1 11 12
f 1 12 13
f 1 13 14
f 1 14 15
f 1 15 16
f 1 16 17
f 1 17 18
f 1 18 19
f 1 19 25
f 1 25 41
f 1 41 29
f 1 29 28
f 1 28 21
f 1 21 2
f 2 21 20
f 3 22 23
f 3 23 4
f 4 23 31
f 4 31 47
f 4 47 56
f 4 56 45
f 4 45 44
f 4 44 43
f 4 43 33
f 4 33 24
f 4 24 18
f 4 18 17
f 4 17 16
f 4 16 15
f 4 15 14
f 4 14 13
f 4 13 12
f 4 12 11
f 4 11 10
f 4 10 9
f 4 9 8
f 4 8 7
f 4 7 6
f 4 6 5
f 18 24 32
f 18 32 48
f 18 48 49
f 18 49 52
f 18 52 51
f 18 51 50
f 18 50 37
f 18 37 25
f 18 25 19
f 20 26 40
f 20 40 39
f 20 39 38
f 20 38 36
f 20 36 35
f 20 35 34
f 20 34 33
f 20 33 43
f 20 43 27
f 20 21 28
f 20 28 29
f 20 29 26
f 22 30 31
f 22 31 23
f 24 33 34
f 24 34 35
f 24 35 36
f 24 36 32
f 25 37 36
f 25 36 38
f 25 38 39
f 25 39 40
f 25 40 26
f 25 26 41
f 26 29 41
f 27 43 44
f 27 44 45
f 27 45 42
f 30 46 47
f 30 47 31
f 32 36 48
f 36 49 48
f 36 37 50
f 36 50 51
f 36 51 52
f 36 52 49
f 42 45 53
f 45 54 55
f 45 55 53
f 45 56 54
f 46 57 47
f 47 57 58
f 47 58 56
f 54 56 59
f 56 60 59
f 56 58 61
f 56 61 62
f 56 62 60

