# https://github.com/mikedh/trimesh
v -0.00381756 0.00275516 -0.06911573
v -0.00381756 0.00264043 -0.06912872
v -0.00381756 0.00275516 -0.07397678
v -0.01010135 0.00275516 -0.06870370
v -0.01156187 0.00112961 -0.06878779
v -0.00381756 -0.00182568 -0.06965466
v -0.01156187 -0.00033145 -0.06895673
v -0.00381756 -0.01056576 -0.07544450
v -0.01448841 0.00275516 -0.07339275
v -0.01140173 0.00275516 -0.06861885
v -0.01156187 0.00259205 -0.06862649
v -0.01448841 0.00112961 -0.06860509
v -0.01448841 -0.00033145 -0.06877097
v -0.01302514 -0.00033145 -0.06886347
v -0.00381756 -0.00259284 -0.06974944
v -0.00863808 -0.00325633 -0.06950330
v -0.00853041 -0.00484317 -0.06970281
v -0.00796994 -0.00541543 -0.06981137
v -0.03202008 -0.01135918 -0.06897508
v -0.01156187 -0.00179389 -0.06913331
v -0.01010135 -0.00325633 -0.06940545
v -0.01611182 0.00275516 -0.07330178
v -0.01594893 0.00275516 -0.07331095
v -0.00381756 -0.01099288 -0.07548042
v -0.01594893 -0.01056576 -0.07474197
v -0.01741220 -0.00910332 -0.07450424
v -0.01448841 -0.00910332 -0.07467318
v -0.02180754 0.00275516 -0.07297689
v -0.01757509 0.00275516 -0.07321846
v -0.01156187 0.00275516 -0.06860891
v -0.01580536 0.00257132 -0.06838493
v -0.01705052 0.00206955 -0.06836428
v -0.01594893 0.00112961 -0.06852176
v -0.00381756 -0.00278497 -0.06977391
v -0.01010135 -0.00471738 -0.06958433
v -0.00717757 -0.00617844 -0.06997113
v -0.00381756 -0.00321486 -0.06982895
v -0.02325701 0.00112961 -0.06812808
v -0.02325701 0.00259205 -0.06797978
v -0.02472028 0.00112961 -0.06806158
v -0.02472028 0.00259205 -0.06792933
v -0.03202008 0.00275516 -0.06770229
v -0.03202008 -0.01136609 -0.07327425
v -0.03136851 -0.01136609 -0.06903011
v -0.00717757 -0.01136609 -0.07080513
v -0.00717757 -0.00764088 -0.07019053
v -0.00381756 -0.01136609 -0.07551176
v -0.01741220 -0.01056576 -0.07465713
v -0.01886995 -0.00910332 -0.07441862
v -0.02116977 -0.00831266 -0.07419923
v -0.02344475 0.00275516 -0.07288211
v -0.01566179 0.00275516 -0.06837499
v -0.01644865 0.00275516 -0.06833218
v -0.01802236 0.00180969 -0.06833906
v -0.00571429 -0.00617844 -0.07009191
v -0.00381756 -0.00427782 -0.06997572
v -0.02325701 0.00275516 -0.06796832
v -0.02455739 0.00275516 -0.06792397
v -0.03202008 0.00275516 -0.07228202
v -0.03202008 -0.01136609 -0.07334764
v -0.00571429 -0.01136609 -0.07092591
v -0.00425378 -0.01136609 -0.07105510
v -0.00571429 -0.00764088 -0.07032048
v -0.00381756 -0.00617844 -0.07025856
v -0.00381756 -0.00574303 -0.07019053
v -0.00381756 -0.01136609 -0.07109868
v -0.01594893 -0.01136609 -0.07480390
v -0.01661154 -0.01136609 -0.07476491
v -0.01807205 -0.01136609 -0.07467853
v -0.01886995 -0.01056576 -0.07457075
v -0.02033322 -0.00910332 -0.07433224
v -0.02472028 -0.00910332 -0.07406545
v -0.02472028 -0.00764088 -0.07391104
v -0.02325701 -0.00764088 -0.07400047
v -0.02761922 0.00275516 -0.07263061
v -0.02484176 0.00275516 -0.07279955
v -0.02473961 0.00275516 -0.07280566
v -0.03202008 0.00275378 -0.07231719
v -0.03073075 0.00275516 -0.07242039
v -0.03202008 -0.01057682 -0.07341797
v -0.03123047 -0.01136609 -0.07349901
v -0.00393076 -0.01136609 -0.07108721
v -0.01953257 -0.01136609 -0.07458909
v -0.02033322 -0.01056576 -0.07448054
v -0.02393619 -0.00986633 -0.07418929
v -0.02618080 -0.00910332 -0.07397143
v -0.02618080 -0.00764088 -0.07382160
v -0.02910458 0.00275516 -0.07253734
v -0.03202008 0.00259205 -0.07233400
v -0.03084394 0.00005282 -0.07269482
v -0.03056785 0.00275516 -0.07243338
v -0.03202008 -0.01056576 -0.07341874
v -0.03056785 -0.01056576 -0.07365418
v -0.03056785 -0.01136609 -0.07360603
v -0.02099584 -0.01136609 -0.07449506
v -0.02472028 -0.01092791 -0.07422751
v -0.02179374 -0.01056576 -0.07439034
v -0.02337297 -0.01043859 -0.07428025
v -0.02764407 -0.00910332 -0.07386441
v -0.02764407 -0.00764088 -0.07372375
v -0.02472028 -0.01019670 -0.07416636
v -0.02986935 0.00042327 -0.07273304
v -0.02926748 0.00275516 -0.07252588
v -0.03145686 -0.00092168 -0.07274527
v -0.03202008 0.00112961 -0.07248536
v -0.03044085 -0.00039365 -0.07277279
v -0.03056785 -0.00179389 -0.07290733
v -0.03202008 -0.00911438 -0.07342103
v -0.03056785 -0.00910332 -0.07360220
v -0.02910458 -0.01056576 -0.07383382
v -0.02830668 -0.01136609 -0.07391027
v -0.02976720 -0.01136609 -0.07373063
v -0.02413774 -0.01136609 -0.07428867
v -0.02547953 -0.01126104 -0.07419541
v -0.02605380 -0.01069016 -0.07410979
v -0.02764407 -0.01056576 -0.07397372
v -0.02910458 -0.00910332 -0.07374363
v -0.02910458 -0.00764088 -0.07361214
v -0.02910458 -0.00617844 -0.07346614
v -0.03197867 -0.00039365 -0.07264436
v -0.03202008 0.00080201 -0.07251900
v -0.03056785 -0.00325633 -0.07305487
v -0.03056785 -0.00471738 -0.07320087
v -0.03056785 -0.00617844 -0.07334612
v -0.03202008 -0.00326738 -0.07292644
v -0.03202008 -0.00179250 -0.07278044
v -0.03202008 -0.00765194 -0.07334077
v -0.03202008 -0.00764088 -0.07334000
v -0.03056785 -0.00764088 -0.07348601
v -0.02547953 -0.01136609 -0.07419541
v -0.02539670 -0.01136609 -0.07420228
v -0.03202008 -0.00047935 -0.07264895
v -0.03202008 -0.00617844 -0.07321234
v -0.03202008 -0.00471738 -0.07306939
f 1 2 6
f 1 6 15
f 1 15 34
f 1 34 37
f 1 37 56
f 1 56 65
f 1 65 64
f 1 64 66
f 1 66 47
f 1 47 24
f 1 24 8
f 1 8 3
f 1 3 9
f 1 9 23
f 1 23 22
f 1 22 29
f 1 29 28
f 1 28 51
f 1 51 77
f 1 77 76
f 1 76 75
f 1 75 88
f 1 88 103
f 1 103 91
f 1 91 79
f 1 79 59
f 1 59 42
f 1 42 58
f 1 58 57
f 1 57 53
f 1 53 52
f 1 52 30
f 1 30 10
f 1 10 4
f 1 4 5
f 1 5 2
f 2 5 7
f 2 7 6
f 3 8 9
f 4 10 5
f 5 10 11
f 5 11 12
f 5 12 13
f 5 13 14
f 5 14 7
f 6 7 16
f 6 16 17
f 6 17 18
f 6 18 15
f 7 14 19
f 7 19 20
f 7 20 21
f 7 21 16
f 8 22 23
f 8 23 9
f 8 24 25
f 8 25 26
f 8 26 27
f 8 27 28
f 8 28 29
f 8 29 22
f 10 30 11
f 11 30 12
f 12 31 32
f 12 32 33
f 12 33 19
f 12 19 13
f 12 30 31
f 13 19 14
f 15 18 34
f 16 21 17
f 17 21 35
f 17 35 19
f 17 19 18
f 18 36 37
f 18 37 34
f 18 19 36
f 19 38 39
f 19 39 40
f 19 40 41
f 19 41 42
f 19 42 59
f 19 59 78
f 19 78 89
f 19 89 105
f 19 105 121
f 19 121 132
f 19 132 126
f 19 126 125
f 19 125 134
f 19 134 133
f 19 133 128
f 19 128 127
f 19 127 108
f 19 108 92
f 19 92 80
f 19 80 60
f 19 60 43
f 19 43 44
f 19 44 45
f 19 45 46
f 19 46 36
f 19 35 21
f 19 21 20
f 19 33 38
f 24 47 25
f 25 48 26
f 25 47 48
f 26 48 49
f 26 49 50
f 26 50 51
f 26 51 28
f 26 28 27
f 30 52 31
f 31 52 32
f 32 52 53
f 32 53 39
f 32 39 38
f 32 38 54
f 32 54 33
f 33 54 38
f 36 46 55
f 36 55 56
f 36 56 37
f 39 57 41
f 39 41 40
f 39 53 57
f 41 57 58
f 41 58 42
f 43 60 81
f 43 81 94
f 43 94 112
f 43 112 111
f 43 111 130
f 43 130 131
f 43 131 113
f 43 113 95
f 43 95 83
f 43 83 69
f 43 69 68
f 43 68 67
f 43 67 47
f 43 47 66
f 43 66 82
f 43 82 62
f 43 62 61
f 43 61 45
f 43 45 44
f 45 61 46
f 46 61 62
f 46 62 63
f 46 63 64
f 46 64 65
f 46 65 55
f 47 67 48
f 48 67 68
f 48 68 69
f 48 69 70
f 48 70 71
f 48 71 49
f 49 71 50
f 50 71 72
f 50 72 73
f 50 73 74
f 50 74 75
f 50 75 76
f 50 76 77
f 50 77 51
f 55 65 56
f 59 79 78
f 60 80 81
f 62 82 64
f 62 64 63
f 64 82 66
f 69 83 70
f 70 83 84
f 70 84 85
f 70 85 72
f 70 72 71
f 72 85 86
f 72 86 87
f 72 87 73
f 73 87 75
f 73 75 74
f 75 87 88
f 78 79 90
f 78 90 89
f 79 91 90
f 80 92 81
f 81 93 94
f 81 92 93
f 83 95 96
f 83 96 97
f 83 97 84
f 84 97 85
f 85 97 98
f 85 98 86
f 86 99 100
f 86 100 87
f 86 98 101
f 86 101 96
f 86 96 99
f 87 100 102
f 87 102 88
f 88 102 103
f 89 90 104
f 89 104 105
f 90 106 107
f 90 107 104
f 90 91 102
f 90 102 106
f 91 103 102
f 92 108 93
f 93 108 109
f 93 109 110
f 93 110 111
f 93 111 112
f 93 112 94
f 95 113 114
f 95 114 96
f 96 114 115
f 96 115 99
f 96 101 98
f 96 98 97
f 99 115 116
f 99 116 117
f 99 117 118
f 99 118 100
f 100 118 119
f 100 119 102
f 102 119 107
f 102 107 106
f 104 120 121
f 104 121 105
f 104 107 122
f 104 122 123
f 104 123 124
f 104 124 125
f 104 125 126
f 104 126 120
f 107 119 122
f 108 127 109
f 109 127 128
f 109 128 129
f 109 129 117
f 109 117 110
f 110 117 116
f 110 116 114
f 110 114 130
f 110 130 111
f 113 131 114
f 114 131 130
f 114 116 115
f 117 129 118
f 118 129 124
f 118 124 123
f 118 123 119
f 119 123 122
f 120 126 132
f 120 132 121
f 124 129 133
f 124 133 134
f 124 134 125
f 128 133 129

