# https://github.com/mikedh/trimesh
v 0.02247080 -0.01036997 -0.06225341
v 0.02239696 -0.01058016 -0.06225341
v 0.01845446 -0.01036997 -0.06225341
v 0.01532156 -0.01036997 -0.02762375
v 0.02197239 -0.01158526 -0.06225341
v -0.00447005 -0.01812233 -0.06225341
v 0.00328837 -0.01036997 -0.01351905
v 0.01512905 -0.01036997 -0.02672830
v 0.02141332 -0.01273123 -0.06225341
v 0.02176933 -0.01206489 -0.06225341
v -0.00447005 -0.01384925 -0.01644534
v 0.00291126 -0.01036997 -0.01214955
v 0.00309849 -0.01036997 -0.01286356
v -0.00447005 -0.02179056 -0.06225341
v 0.00962274 -0.01036997 -0.00246354
v 0.00684848 -0.01436578 -0.00246354
v 0.02129465 -0.01290117 -0.06225341
v -0.00447005 -0.01375757 -0.01498219
v -0.00447005 -0.01374528 -0.01476565
v -0.00447005 -0.01367037 -0.01330250
v -0.00447005 -0.01360217 -0.01183936
v -0.00447005 -0.01356863 -0.01037622
v 0.00286643 -0.01036997 -0.01059276
v -0.00425117 -0.02178049 -0.06225341
v -0.00447005 -0.02178497 -0.06183787
v 0.00507370 -0.01036997 -0.00246354
v 0.00604152 -0.01488230 -0.00246354
v 0.00877622 -0.01817040 -0.03407913
v 0.00994710 -0.01737996 -0.03398549
v 0.01999454 -0.01432888 -0.06225341
v 0.02007102 -0.01425174 -0.06225341
v 0.02070129 -0.01357981 -0.06225341
v -0.00447005 -0.01358540 -0.00891308
v -0.00447005 -0.01367149 -0.00767233
v -0.00447005 -0.01368714 -0.00744993
v 0.00318288 -0.01036997 -0.00919400
v -0.00278757 -0.02167764 -0.06225341
v -0.00425117 -0.02177267 -0.06176180
v -0.00447005 -0.02178385 -0.06176180
v -0.00447005 -0.01483535 -0.00246354
v -0.00447005 -0.01386490 -0.00620919
v -0.00447005 -0.01391298 -0.00596338
v -0.00447005 -0.01409186 -0.00507379
v -0.00136879 -0.01816929 -0.00246354
v 0.00820133 -0.01861985 -0.03462927
v 0.01831470 -0.01561796 -0.06225341
v 0.01918495 -0.01495833 -0.06225341
v -0.00195160 -0.02161279 -0.06225341
v -0.00080181 -0.02151552 -0.06176180
v -0.00278757 -0.02166758 -0.06176180
v -0.00278757 -0.02105378 -0.04421579
v -0.00425117 -0.02119689 -0.04567893
v -0.00447005 -0.02121478 -0.04589547
v -0.00447005 -0.01794456 -0.00246354
v -0.00203599 -0.01826655 -0.00246354
v 0.00013700 -0.02056521 -0.03983221
v 0.00159797 -0.02033937 -0.03983221
v 0.00269765 -0.02014148 -0.03983221
v 0.00364438 -0.02003974 -0.04096175
v 0.00439596 -0.01991899 -0.04138314
v 0.00598351 -0.01967526 -0.04275264
v 0.00744711 -0.01929625 -0.04275264
v 0.01036904 -0.01928731 -0.06176180
v 0.01178782 -0.01882668 -0.06225341
v 0.01210955 -0.01871041 -0.06225341
v 0.01247874 -0.01857625 -0.06225341
v 0.01325142 -0.01826097 -0.06225341
v 0.01483369 -0.01757114 -0.06225341
v 0.01549561 -0.01726816 -0.06225341
v 0.01561692 -0.01721226 -0.06225341
v 0.01570658 -0.01716642 -0.06225341
v 0.01626565 -0.01685673 -0.06225341
v 0.01761059 -0.01606517 -0.06225341
v 0.01800088 -0.01582144 -0.06225341
v -0.00075698 -0.02151888 -0.06225341
v 0.00013700 -0.02141826 -0.06176180
v -0.00132660 -0.02086819 -0.04275264
v -0.00132660 -0.02081005 -0.04129535
v -0.00278757 -0.02099005 -0.04275264
v -0.00425117 -0.02114099 -0.04421579
v -0.00447005 -0.02120695 -0.04567893
v -0.00425117 -0.01800829 -0.00246354
v -0.00447005 -0.02088049 -0.03983221
v -0.00276911 -0.01833587 -0.00246354
v -0.00132660 -0.02072061 -0.03983221
v 0.00013700 -0.02064682 -0.04129535
v 0.00159797 -0.02042993 -0.04129535
v 0.00311959 -0.02017166 -0.04138314
v 0.00382370 -0.02007551 -0.04193328
v 0.00468077 -0.01995253 -0.04275264
v 0.00598351 -0.01975464 -0.04421579
v 0.00744711 -0.01937004 -0.04421579
v 0.00890808 -0.01967862 -0.06029865
v 0.00890808 -0.01974570 -0.06176180
v 0.01036904 -0.01930967 -0.06225341
v -0.00013198 -0.02145403 -0.06225341
v 0.00013700 -0.02142385 -0.06225341
v 0.00159797 -0.02123602 -0.06225341
v 0.00159797 -0.02122931 -0.06176180
v 0.00013700 -0.02070384 -0.04275264
v -0.00278757 -0.02091627 -0.04129535
v -0.00425117 -0.02106832 -0.04275264
v -0.00447005 -0.02114881 -0.04421579
v -0.00447005 -0.02115776 -0.04443818
v -0.00447005 -0.02108732 -0.04297504
v -0.00343630 -0.01819277 -0.00246354
v -0.00447005 -0.02089726 -0.04004875
v -0.00447005 -0.02099005 -0.04129535
v -0.00425117 -0.02098447 -0.04129535
v 0.00159797 -0.02049812 -0.04275264
v 0.00306157 -0.02025887 -0.04275264
v 0.00395028 -0.02010011 -0.04275264
v 0.00486009 -0.01999166 -0.04421579
v 0.00598351 -0.02047241 -0.06176180
v 0.00724142 -0.02019626 -0.06176180
v 0.00797190 -0.02001737 -0.06176180
v 0.00890808 -0.01976247 -0.06225341
v 0.00306157 -0.02101241 -0.06225341
v 0.00306157 -0.02100459 -0.06176180
v -0.00447005 -0.02107614 -0.04275264
v -0.00447005 -0.02100347 -0.04151190
v 0.00306157 -0.02032036 -0.04421579
v 0.00412961 -0.02013477 -0.04421579
v 0.00452254 -0.02075527 -0.06176180
v 0.00598351 -0.02047912 -0.06225341
v 0.00726515 -0.02019961 -0.06225341
v 0.00751040 -0.02014259 -0.06225341
v 0.00799563 -0.02002409 -0.06225341
v 0.00403467 -0.02084583 -0.06225341
v 0.00452254 -0.02076086 -0.06225341
f 1 2 5
f 1 5 10
f 1 10 9
f 1 9 17
f 1 17 32
f 1 32 31
f 1 31 30
f 1 30 47
f 1 47 46
f 1 46 74
f 1 74 73
f 1 73 72
f 1 72 71
f 1 71 70
f 1 70 69
f 1 69 68
f 1 68 67
f 1 67 66
f 1 66 65
f 1 65 64
f 1 64 95
f 1 95 117
f 1 117 128
f 1 128 127
f 1 127 126
f 1 126 125
f 1 125 130
f 1 130 129
f 1 129 118
f 1 118 98
f 1 98 97
f 1 97 96
f 1 96 75
f 1 75 48
f 1 48 37
f 1 37 24
f 1 24 14
f 1 14 6
f 1 6 3
f 1 3 7
f 1 7 13
f 1 13 12
f 1 12 23
f 1 23 36
f 1 36 26
f 1 26 15
f 1 15 8
f 1 8 4
f 1 4 2
f 2 4 5
f 3 6 7
f 4 8 9
f 4 9 10
f 4 10 5
f 6 11 12
f 6 12 13
f 6 13 7
f 6 14 25
f 6 25 39
f 6 39 53
f 6 53 81
f 6 81 104
f 6 104 103
f 6 103 105
f 6 105 120
f 6 120 121
f 6 121 108
f 6 108 107
f 6 107 83
f 6 83 54
f 6 54 40
f 6 40 43
f 6 43 42
f 6 42 41
f 6 41 35
f 6 35 34
f 6 34 33
f 6 33 22
f 6 22 21
f 6 21 20
f 6 20 19
f 6 19 18
f 6 18 11
f 8 15 16
f 8 16 17
f 8 17 9
f 11 18 12
f 12 18 19
f 12 19 20
f 12 20 21
f 12 21 22
f 12 22 23
f 14 24 25
f 15 26 40
f 15 40 54
f 15 54 82
f 15 82 106
f 15 106 84
f 15 84 55
f 15 55 44
f 15 44 27
f 15 27 16
f 16 27 28
f 16 28 29
f 16 29 30
f 16 30 31
f 16 31 32
f 16 32 17
f 22 33 23
f 23 33 34
f 23 34 35
f 23 35 36
f 24 37 38
f 24 38 39
f 24 39 25
f 26 36 35
f 26 35 41
f 26 41 42
f 26 42 43
f 26 43 40
f 27 44 45
f 27 45 28
f 28 45 46
f 28 46 29
f 29 46 47
f 29 47 30
f 37 48 49
f 37 49 50
f 37 50 38
f 38 50 51
f 38 51 52
f 38 52 39
f 39 52 53
f 44 55 56
f 44 56 57
f 44 57 58
f 44 58 59
f 44 59 60
f 44 60 45
f 45 60 61
f 45 61 62
f 45 62 63
f 45 63 64
f 45 64 65
f 45 65 66
f 45 66 67
f 45 67 68
f 45 68 69
f 45 69 70
f 45 70 71
f 45 71 72
f 45 72 73
f 45 73 74
f 45 74 46
f 48 75 49
f 49 75 76
f 49 76 77
f 49 77 51
f 49 51 50
f 51 77 78
f 51 78 79
f 51 79 80
f 51 80 52
f 52 80 81
f 52 81 53
f 54 83 82
f 55 84 85
f 55 85 56
f 56 85 78
f 56 78 86
f 56 86 87
f 56 87 57
f 57 87 88
f 57 88 58
f 58 88 89
f 58 89 59
f 59 89 60
f 60 89 90
f 60 90 61
f 61 90 91
f 61 91 62
f 62 91 92
f 62 92 63
f 63 93 94
f 63 94 95
f 63 95 64
f 63 92 93
f 75 96 76
f 76 96 97
f 76 97 98
f 76 98 99
f 76 99 100
f 76 100 77
f 77 100 86
f 77 86 78
f 78 101 79
f 78 85 101
f 79 101 102
f 79 102 80
f 80 103 104
f 80 104 81
f 80 102 105
f 80 105 103
f 82 83 106
f 83 107 84
f 83 84 106
f 84 107 108
f 84 108 109
f 84 109 101
f 84 101 85
f 86 100 110
f 86 110 87
f 87 110 111
f 87 111 88
f 88 111 112
f 88 112 89
f 89 112 90
f 90 112 113
f 90 113 91
f 91 113 114
f 91 114 115
f 91 115 116
f 91 116 92
f 92 116 94
f 92 94 93
f 94 116 117
f 94 117 95
f 98 118 99
f 99 118 119
f 99 119 110
f 99 110 100
f 101 109 102
f 102 120 105
f 102 109 120
f 108 121 109
f 109 121 120
f 110 122 111
f 110 119 122
f 111 122 123
f 111 123 112
f 112 123 113
f 113 123 114
f 114 124 125
f 114 125 126
f 114 126 115
f 114 123 124
f 115 126 127
f 115 127 128
f 115 128 116
f 116 128 117
f 118 129 124
f 118 124 119
f 119 124 122
f 122 124 123
f 124 129 130
f 124 130 125

