# https://github.com/mikedh/trimesh
v 0.01627028 -0.01269847 -0.06225408
v 0.01627028 -0.01685583 -0.06225408
v 0.01627028 -0.01301628 -0.06907550
v -0.00381284 -0.01666940 -0.06908285
v -0.00381284 -0.01808271 -0.06225408
v 0.01626634 -0.01685849 -0.06225408
v 0.01627028 -0.01697301 -0.06295935
v 0.01627028 -0.01324444 -0.06908285
v 0.01619753 -0.01304558 -0.06908285
v -0.00381284 -0.02083742 -0.06908285
v -0.00381284 -0.02174915 -0.06225408
v 0.01570602 -0.01716743 -0.06225408
v 0.01627028 -0.01713459 -0.06403497
v 0.01627028 -0.01736895 -0.06908285
v -0.00381284 -0.02084008 -0.06907550
v -0.00279443 -0.02080191 -0.06908285
v -0.00278853 -0.02080457 -0.06907550
v -0.00381284 -0.02176690 -0.06322742
v -0.00278853 -0.02169766 -0.06322742
v -0.00278853 -0.02167724 -0.06225408
v 0.01561755 -0.01721360 -0.06225408
v 0.01627028 -0.01721448 -0.06469011
v 0.01575124 -0.01727574 -0.06322742
v 0.01627028 -0.01738227 -0.06903204
v 0.01475446 -0.01789717 -0.06908285
v -0.00381284 -0.02133634 -0.06752590
v -0.00132579 -0.02072823 -0.06908285
v -0.00278853 -0.02126798 -0.06761348
v -0.00132579 -0.02073089 -0.06907550
v -0.00381284 -0.02172163 -0.06469011
v -0.00278853 -0.02165593 -0.06469011
v -0.00139854 -0.02158669 -0.06322742
v -0.00075761 -0.02151922 -0.06225408
v -0.00195100 -0.02161332 -0.06225408
v 0.01483507 -0.01757136 -0.06225408
v 0.01627028 -0.01727219 -0.06519081
v 0.01595768 -0.01735830 -0.06469011
v 0.01475446 -0.01772583 -0.06322742
v 0.01627028 -0.01742755 -0.06753727
v 0.01475446 -0.01799216 -0.06761348
v 0.01475446 -0.01789895 -0.06907550
v 0.01474856 -0.01789895 -0.06908285
v -0.00381284 -0.02151478 -0.06675311
v 0.00013497 -0.02061726 -0.06908285
v -0.00132579 -0.02116411 -0.06761348
v 0.00013497 -0.02061992 -0.06907550
v -0.00381284 -0.02159556 -0.06607458
v -0.00278853 -0.02157248 -0.06575838
v -0.00194706 -0.02153964 -0.06550301
v -0.00166985 -0.02156627 -0.06469011
v -0.00066717 -0.02152454 -0.06322742
v -0.00013241 -0.02145352 -0.06225408
v 0.01325240 -0.01826115 -0.06225408
v 0.01613462 -0.01741867 -0.06615146
v 0.01627028 -0.01736096 -0.06615146
v 0.01475446 -0.01786255 -0.06469011
v 0.01627028 -0.01740358 -0.06698508
v 0.01475446 -0.01795487 -0.06615146
v 0.01346670 -0.01841207 -0.06615146
v 0.01273730 -0.01866774 -0.06615146
v 0.01344114 -0.01842094 -0.06761348
v 0.01270978 -0.01865620 -0.06761348
v 0.01261934 -0.01862424 -0.06844376
v 0.01318163 -0.01837301 -0.06898859
v 0.01298699 -0.01840940 -0.06908285
v -0.00278853 -0.02148726 -0.06648972
v -0.00381284 -0.02151833 -0.06672570
v 0.00159771 -0.02047965 -0.06908285
v 0.00159771 -0.02048232 -0.06907550
v 0.00013497 -0.02102207 -0.06761348
v -0.00140640 -0.02143044 -0.06605452
v 0.00013497 -0.02125910 -0.06615146
v -0.00093848 -0.02150324 -0.06469011
v 0.00013497 -0.02138783 -0.06469011
v 0.00013497 -0.02143666 -0.06322742
v 0.00013497 -0.02142423 -0.06225408
v 0.01247778 -0.01857630 -0.06225408
v 0.01627028 -0.01737250 -0.06629185
v 0.01252104 -0.01859228 -0.06274676
v 0.01339199 -0.01838100 -0.06469011
v 0.01266063 -0.01864200 -0.06469011
v 0.01183096 -0.01892608 -0.06469011
v 0.01036822 -0.01939037 -0.06469011
v 0.01183096 -0.01894650 -0.06615146
v 0.01036822 -0.01937351 -0.06615146
v 0.01183096 -0.01890300 -0.06761348
v 0.01240111 -0.01856831 -0.06908285
v 0.01036822 -0.01929539 -0.06761348
v 0.00890549 -0.01965493 -0.06761348
v 0.01036822 -0.01908676 -0.06907550
v 0.01181129 -0.01874054 -0.06898859
v 0.00169994 -0.02046900 -0.06908285
v 0.00159771 -0.02085961 -0.06761348
v 0.00159771 -0.02107889 -0.06615146
v 0.00159771 -0.02119962 -0.06469011
v 0.00159771 -0.02125112 -0.06322742
v 0.00159771 -0.02123691 -0.06225408
v 0.01211013 -0.01871124 -0.06225408
v 0.01259968 -0.01862069 -0.06372144
v 0.01195285 -0.01882310 -0.06323143
v 0.01036822 -0.01935398 -0.06322742
v 0.00890549 -0.01979431 -0.06322742
v 0.00890549 -0.01980585 -0.06469011
v 0.00890549 -0.01976412 -0.06615146
v 0.01191549 -0.01869615 -0.06908285
v 0.00787921 -0.02000737 -0.06615146
v 0.00693158 -0.02011390 -0.06721705
v 0.00742899 -0.01995677 -0.06766763
v 0.00657573 -0.02004820 -0.06819173
v 0.00890549 -0.01940192 -0.06907550
v 0.01036822 -0.01908499 -0.06908285
v 0.00309977 -0.02030477 -0.06908285
v 0.00347921 -0.02025860 -0.06908285
v 0.00452121 -0.02020090 -0.06880742
v 0.00306044 -0.02067230 -0.06761348
v 0.00306044 -0.02087737 -0.06615146
v 0.00306044 -0.02098301 -0.06469011
v 0.00306044 -0.02102740 -0.06322742
v 0.00306044 -0.02101231 -0.06225408
v 0.01178770 -0.01882665 -0.06225408
v 0.01036822 -0.01930959 -0.06225408
v 0.00890549 -0.01976235 -0.06225408
v 0.00799521 -0.02002512 -0.06225408
v 0.00804436 -0.02003844 -0.06322742
v 0.00802667 -0.02003666 -0.06469011
v 0.00729530 -0.02019735 -0.06469011
v 0.00598395 -0.02047166 -0.06469011
v 0.00714784 -0.02016006 -0.06615146
v 0.00598395 -0.02038999 -0.06615146
v 0.00452121 -0.02065099 -0.06615146
v 0.00604686 -0.02020622 -0.06766763
v 0.00452121 -0.02045924 -0.06761348
v 0.00560254 -0.02012100 -0.06854136
v 0.00604686 -0.01992037 -0.06904741
v 0.00744472 -0.01968067 -0.06907550
v 0.00890745 -0.01939925 -0.06908285
v 0.00452121 -0.02012277 -0.06908285
v 0.00593873 -0.01992569 -0.06908285
v 0.00452121 -0.02074243 -0.06469011
v 0.00452121 -0.02077350 -0.06322742
v 0.00403363 -0.02084630 -0.06225408
v 0.00750763 -0.02014319 -0.06225408
v 0.00726384 -0.02020001 -0.06225408
v 0.00731299 -0.02020711 -0.06322742
v 0.00598395 -0.02049208 -0.06322742
v 0.00604686 -0.01990794 -0.06908285
v 0.00744472 -0.01967801 -0.06908285
v 0.00452121 -0.02076107 -0.06225408
v 0.00598395 -0.02047877 -0.06225408
f 1 2 7
f 1 7 13
f 1 13 22
f 1 22 36
f 1 36 55
f 1 55 78
f 1 78 57
f 1 57 39
f 1 39 24
f 1 24 14
f 1 14 8
f 1 8 3
f 1 3 4
f 1 4 5
f 1 5 11
f 1 11 20
f 1 20 34
f 1 34 33
f 1 33 52
f 1 52 76
f 1 76 97
f 1 97 119
f 1 119 141
f 1 141 148
f 1 148 149
f 1 149 143
f 1 143 142
f 1 142 123
f 1 123 122
f 1 122 121
f 1 121 120
f 1 120 98
f 1 98 77
f 1 77 53
f 1 53 35
f 1 35 21
f 1 21 12
f 1 12 6
f 1 6 2
f 2 6 7
f 3 8 9
f 3 9 4
f 4 10 15
f 4 15 26
f 4 26 43
f 4 43 67
f 4 67 47
f 4 47 30
f 4 30 18
f 4 18 11
f 4 11 5
f 4 9 8
f 4 8 14
f 4 14 25
f 4 25 42
f 4 42 65
f 4 65 87
f 4 87 105
f 4 105 111
f 4 111 136
f 4 136 147
f 4 147 146
f 4 146 138
f 4 138 137
f 4 137 113
f 4 113 112
f 4 112 92
f 4 92 68
f 4 68 44
f 4 44 27
f 4 27 16
f 4 16 10
f 6 12 7
f 7 12 13
f 10 16 17
f 10 17 15
f 11 18 19
f 11 19 20
f 12 21 13
f 13 21 23
f 13 23 22
f 14 24 25
f 15 17 26
f 16 27 17
f 17 28 26
f 17 27 29
f 17 29 28
f 18 30 31
f 18 31 19
f 19 31 32
f 19 32 33
f 19 33 34
f 19 34 20
f 21 35 23
f 22 23 37
f 22 37 36
f 23 35 38
f 23 38 37
f 24 39 40
f 24 40 41
f 24 41 25
f 25 41 42
f 26 28 43
f 27 44 46
f 27 46 29
f 28 29 45
f 28 45 43
f 29 46 45
f 30 47 48
f 30 48 49
f 30 49 31
f 31 49 50
f 31 50 32
f 32 50 51
f 32 51 33
f 33 51 52
f 35 53 38
f 36 37 54
f 36 54 55
f 37 38 56
f 37 56 54
f 38 53 56
f 39 57 58
f 39 58 40
f 40 58 59
f 40 59 60
f 40 60 61
f 40 61 41
f 41 61 62
f 41 62 63
f 41 63 64
f 41 64 65
f 41 65 42
f 43 45 66
f 43 66 67
f 44 68 69
f 44 69 46
f 45 46 69
f 45 69 70
f 45 70 71
f 45 71 66
f 47 67 66
f 47 66 48
f 48 66 49
f 49 71 72
f 49 72 73
f 49 73 50
f 49 66 71
f 50 73 51
f 51 73 74
f 51 74 75
f 51 75 76
f 51 76 52
f 53 77 56
f 54 78 55
f 54 56 58
f 54 58 78
f 56 77 79
f 56 79 58
f 57 78 58
f 58 79 80
f 58 80 81
f 58 81 59
f 59 81 60
f 60 81 82
f 60 82 83
f 60 83 84
f 60 84 62
f 60 62 61
f 62 84 85
f 62 85 86
f 62 86 63
f 63 87 65
f 63 65 64
f 63 86 88
f 63 88 89
f 63 89 90
f 63 90 91
f 63 91 87
f 68 92 69
f 69 92 93
f 69 93 70
f 70 72 71
f 70 93 72
f 72 93 94
f 72 94 74
f 72 74 73
f 74 94 95
f 74 95 96
f 74 96 75
f 75 96 76
f 76 96 97
f 77 98 79
f 79 98 99
f 79 99 80
f 80 99 81
f 81 99 100
f 81 100 82
f 82 100 101
f 82 101 83
f 83 85 84
f 83 101 102
f 83 102 103
f 83 103 85
f 85 103 104
f 85 104 88
f 85 88 86
f 87 91 105
f 88 104 89
f 89 104 106
f 89 106 107
f 89 107 108
f 89 108 109
f 89 109 110
f 89 110 90
f 90 111 105
f 90 105 91
f 90 110 111
f 92 112 93
f 93 112 113
f 93 113 114
f 93 114 115
f 93 115 94
f 94 115 116
f 94 116 95
f 95 116 117
f 95 117 96
f 96 117 118
f 96 118 97
f 97 118 119
f 98 120 99
f 99 120 100
f 100 120 121
f 100 121 101
f 101 121 122
f 101 122 102
f 102 122 123
f 102 123 124
f 102 124 103
f 103 124 125
f 103 125 104
f 104 125 106
f 106 125 126
f 106 126 127
f 106 127 128
f 106 128 107
f 107 128 129
f 107 129 130
f 107 130 131
f 107 131 109
f 107 109 108
f 109 131 132
f 109 132 115
f 109 115 133
f 109 133 134
f 109 134 135
f 109 135 110
f 110 135 136
f 110 136 111
f 113 137 114
f 114 137 138
f 114 138 134
f 114 134 133
f 114 133 115
f 115 132 116
f 116 132 130
f 116 130 117
f 117 130 139
f 117 139 118
f 118 140 141
f 118 141 119
f 118 139 140
f 123 142 124
f 124 142 143
f 124 143 144
f 124 144 125
f 125 144 126
f 126 145 127
f 126 144 145
f 127 145 140
f 127 140 139
f 127 139 129
f 127 129 128
f 129 139 130
f 130 132 131
f 134 146 135
f 134 138 146
f 135 147 136
f 135 146 147
f 140 145 148
f 140 148 141
f 143 149 144
f 144 149 145
f 145 149 148

