# https://github.com/mikedh/trimesh
v 0.00881148 -0.02664941 0.06556111
v 0.00744510 -0.02664941 0.06562427
v 0.00159684 -0.02811102 0.06574196
v 0.00305852 -0.02811102 0.06567020
v 0.00452020 -0.02811102 0.06557833
v 0.00598188 -0.02811102 0.06544341
v 0.00881148 -0.02674555 0.06553528
v 0.00881148 -0.02528306 0.06539461
v -0.00689042 -0.02806780 0.06609793
v -0.00571309 -0.02811102 0.06604626
v -0.00424987 -0.02957264 0.06544341
v -0.00278819 -0.02957264 0.06536590
v 0.00159684 -0.02944738 0.06516783
v 0.00305852 -0.02935388 0.06511615
v 0.00452020 -0.02924450 0.06505300
v 0.00598188 -0.02910866 0.06495253
v 0.00744510 -0.02811102 0.06525107
v 0.00881148 -0.02812602 0.06502716
v 0.00881148 -0.02518073 0.06536017
v -0.00689042 -0.02674202 0.06581086
v -0.00689042 -0.02957264 0.06551518
v -0.00571309 -0.02957264 0.06549509
v -0.00424987 -0.03041150 0.06483770
v -0.00278819 -0.03037710 0.06479464
v -0.00132651 -0.02957264 0.06527691
v -0.00000163 -0.02968555 0.06510755
v -0.00057954 -0.03030565 0.06470565
v 0.00039492 -0.03024743 0.06461953
v 0.00159684 -0.03017863 0.06450183
v 0.00881148 -0.02814807 0.06501856
v 0.00305852 -0.03008425 0.06432097
v 0.00744510 -0.02894195 0.06480325
v 0.00881148 -0.02431276 0.06492669
v 0.00881148 -0.02427130 0.06490086
v -0.00689042 -0.02574086 0.06500708
v -0.00689042 -0.03042650 0.06486354
v -0.00571309 -0.03042738 0.06486066
v -0.00424987 -0.03089929 0.06397363
v -0.00278819 -0.03083843 0.06397363
v -0.00132651 -0.03033035 0.06473722
v -0.00132651 -0.03074846 0.06397363
v -0.00000163 -0.03059057 0.06406836
v 0.00159684 -0.03057733 0.06376981
v 0.00820745 -0.02885109 0.06471426
v 0.00881148 -0.02874171 0.06455638
v 0.00305852 -0.03047413 0.06358895
v 0.00425892 -0.03038063 0.06340523
v 0.00465546 -0.03004014 0.06392483
v 0.00598188 -0.02976670 0.06397363
v 0.00881148 -0.02401462 0.06405114
v 0.00881148 -0.02268884 0.05957575
v 0.00881148 -0.02236688 0.05821504
v -0.00689042 -0.02473440 0.05958723
v -0.00689042 -0.03091429 0.06397363
v -0.00571309 -0.03092399 0.06397363
v -0.00424987 -0.03136680 0.06250958
v -0.00278819 -0.03133769 0.06250958
v -0.00132651 -0.03127154 0.06250958
v 0.00013517 -0.03116745 0.06250958
v 0.00159684 -0.03102808 0.06250958
v 0.00744510 -0.02943944 0.06397363
v 0.00877921 -0.02909102 0.06397363
v 0.00881148 -0.02908837 0.06396215
v 0.00305852 -0.03084284 0.06250958
v 0.00523337 -0.03030124 0.06323299
v 0.00881148 -0.02235629 0.05812318
v -0.00689042 -0.02473528 0.05930016
v -0.00689042 -0.03132093 0.06250958
v -0.00571309 -0.03136063 0.06250958
v -0.00278819 -0.03128389 0.06104840
v -0.00132651 -0.03125389 0.06104840
v 0.00013517 -0.03118421 0.06104840
v 0.00159684 -0.03108541 0.06104840
v 0.00305852 -0.03093899 0.06104840
v 0.00598188 -0.03023067 0.06298898
v 0.00881148 -0.02973229 0.06250671
v 0.00881148 -0.02924450 0.06361192
v 0.00465546 -0.03055793 0.06265024
v 0.00452020 -0.03074581 0.06104840
v 0.00693328 -0.03034534 0.06193831
v 0.00598188 -0.03043708 0.06225696
v 0.00881148 -0.02288290 0.03677393
v -0.00689042 -0.02477145 0.05812318
v -0.00689042 -0.03004808 0.04496972
v -0.00571309 -0.03003838 0.04496972
v -0.00424987 -0.02989107 0.04350568
v -0.00278819 -0.02983991 0.04350568
v -0.00132651 -0.02975258 0.04350568
v 0.00013517 -0.02963350 0.04350568
v 0.00159684 -0.02948002 0.04350568
v 0.00742973 -0.03008689 0.06245791
v 0.00881148 -0.02995017 0.06104840
v 0.00305852 -0.02928684 0.04350568
v 0.00678880 -0.03031712 0.06029341
v 0.00598188 -0.03051382 0.06104840
v 0.00693482 -0.03034534 0.06104840
v 0.00766643 -0.03020862 0.06104840
v 0.00881148 -0.02544095 0.03677393
v -0.00689042 -0.02552387 0.03677393
v -0.00689042 -0.02992547 0.04350568
v -0.00571309 -0.02991665 0.04350568
v -0.00424987 -0.02974553 0.04204450
v -0.00278819 -0.02969789 0.04204450
v -0.00132651 -0.02961233 0.04204450
v 0.00013517 -0.02949325 0.04204450
v 0.00159684 -0.02933536 0.04204450
v 0.00597881 -0.02874789 0.04336214
v 0.00744510 -0.02841887 0.04350568
v 0.00881148 -0.02803604 0.04350568
v 0.00305852 -0.02913777 0.04204450
v 0.00429888 -0.02893665 0.04204450
v 0.00466468 -0.02900634 0.04336214
v 0.00524874 -0.02884139 0.04277939
v 0.00880841 -0.02685317 0.03677393
v 0.00881148 -0.02705340 0.03761503
v -0.00689042 -0.02900899 0.03677393
v -0.00689042 -0.02977464 0.04204450
v -0.00571309 -0.02976846 0.04204450
v -0.00424987 -0.02957528 0.04058332
v -0.00278819 -0.02952677 0.04058332
v -0.00132651 -0.02943944 0.04058332
v 0.00013517 -0.02931948 0.04058332
v 0.00159684 -0.02915541 0.04058332
v 0.00598188 -0.02860323 0.04204450
v 0.00744510 -0.02824686 0.04204450
v 0.00881148 -0.02802458 0.04341094
v 0.00307543 -0.02894812 0.04057758
v 0.00398379 -0.02887579 0.04105986
v 0.00503048 -0.02880258 0.04204450
v 0.00880380 -0.02708339 0.03772699
v 0.00793540 -0.02730568 0.03728778
v 0.00771407 -0.02725364 0.03677393
v 0.00881148 -0.02708604 0.03775283
v -0.00673211 -0.02901075 0.03677393
v -0.00689042 -0.02916247 0.03765810
v -0.00689042 -0.02959646 0.04058332
v -0.00571309 -0.02959381 0.04058332
v -0.00424987 -0.02937682 0.03911927
v -0.00278819 -0.02932918 0.03911927
v -0.00132651 -0.02924539 0.03911927
v 0.00013517 -0.02912366 0.03911927
v 0.00160299 -0.02895077 0.03910779
v 0.00260050 -0.02888197 0.03958720
v 0.00598188 -0.02840564 0.04058332
v 0.00744510 -0.02803957 0.04058332
v 0.00881148 -0.02784993 0.04204450
v 0.00357495 -0.02880963 0.04008383
v 0.00449100 -0.02871525 0.04057758
v 0.00824741 -0.02740535 0.03826094
v 0.00744663 -0.02754296 0.03772699
v 0.00703165 -0.02746710 0.03677393
v 0.00881148 -0.02737272 0.03911927
v -0.00571309 -0.02902133 0.03677393
v -0.00571309 -0.02917217 0.03765810
v -0.00689042 -0.02939181 0.03911927
v -0.00571309 -0.02939534 0.03911927
v -0.00424987 -0.02915453 0.03765810
v -0.00278819 -0.02910954 0.03765810
v -0.00118511 -0.02898782 0.03751456
v 0.00013517 -0.02893224 0.03786766
v 0.00112038 -0.02887844 0.03817769
v 0.00209483 -0.02880787 0.03861117
v 0.00307543 -0.02873466 0.03910779
v 0.00452020 -0.02848238 0.03911927
v 0.00598188 -0.02817629 0.03911927
v 0.00881148 -0.02763293 0.04059767
v 0.00881148 -0.02783581 0.04194690
v 0.00744510 -0.02780229 0.03911927
v 0.00849025 -0.02748650 0.03911927
v 0.00598188 -0.02792226 0.03765810
v 0.00601723 -0.02773084 0.03677393
v 0.00881148 -0.02755266 0.04010966
v -0.00424987 -0.02901075 0.03677393
v -0.00278819 -0.02896753 0.03677393
v -0.00153862 -0.02889255 0.03677393
v -0.00060259 -0.02884139 0.03692894
v 0.00013517 -0.02880434 0.03713851
v 0.00013517 -0.02873907 0.03677393
v 0.00070693 -0.02866850 0.03677393
v 0.00159838 -0.02855736 0.03677393
v 0.00160299 -0.02871966 0.03767819
v 0.00305852 -0.02848944 0.03765810
v 0.00452020 -0.02823187 0.03765810
v 0.00881148 -0.02760823 0.04044553
v 0.00509657 -0.02794078 0.03677393
v -0.00072862 -0.02882375 0.03677393
v 0.00217322 -0.02846827 0.03677393
v 0.00305852 -0.02832713 0.03677393
v 0.00363490 -0.02822569 0.03677393
v 0.00452020 -0.02806251 0.03677393
f 1 2 3
f 1 3 4
f 1 4 5
f 1 5 6
f 1 6 7
f 1 7 18
f 1 18 30
f 1 30 45
f 1 45 63
f 1 63 77
f 1 77 76
f 1 76 92
f 1 92 109
f 1 109 126
f 1 126 146
f 1 146 167
f 1 167 166
f 1 166 184
f 1 184 172
f 1 172 152
f 1 152 133
f 1 133 115
f 1 115 98
f 1 98 82
f 1 82 66
f 1 66 52
f 1 52 51
f 1 51 50
f 1 50 34
f 1 34 33
f 1 33 19
f 1 19 8
f 1 8 2
f 2 9 10
f 2 10 3
f 2 8 9
f 3 10 11
f 3 11 4
f 4 11 12
f 4 12 13
f 4 13 5
f 5 13 14
f 5 14 15
f 5 15 6
f 6 15 16
f 6 16 17
f 6 17 7
f 7 17 18
f 8 19 20
f 8 20 9
f 9 20 35
f 9 35 53
f 9 53 67
f 9 67 83
f 9 83 99
f 9 99 116
f 9 116 135
f 9 135 155
f 9 155 136
f 9 136 117
f 9 117 100
f 9 100 84
f 9 84 68
f 9 68 54
f 9 54 36
f 9 36 21
f 9 21 22
f 9 22 10
f 10 22 11
f 11 22 23
f 11 23 24
f 11 24 12
f 12 25 13
f 12 24 25
f 13 25 26
f 13 26 27
f 13 27 14
f 14 27 15
f 15 27 28
f 15 28 29
f 15 29 16
f 16 30 17
f 16 29 31
f 16 31 32
f 16 32 30
f 17 30 18
f 19 33 20
f 20 33 34
f 20 34 35
f 21 36 37
f 21 37 22
f 22 37 23
f 23 37 38
f 23 38 24
f 24 38 39
f 24 39 40
f 24 40 25
f 25 40 27
f 25 27 26
f 27 40 39
f 27 39 41
f 27 41 42
f 27 42 28
f 28 42 43
f 28 43 29
f 29 43 31
f 30 32 44
f 30 44 45
f 31 43 46
f 31 46 47
f 31 47 48
f 31 48 49
f 31 49 32
f 32 49 44
f 34 50 35
f 35 50 51
f 35 51 52
f 35 52 53
f 36 54 55
f 36 55 37
f 37 55 38
f 38 55 56
f 38 56 57
f 38 57 39
f 39 57 58
f 39 58 41
f 41 58 59
f 41 59 43
f 41 43 42
f 43 59 60
f 43 60 46
f 44 49 61
f 44 61 62
f 44 62 63
f 44 63 45
f 46 60 64
f 46 64 47
f 47 64 65
f 47 65 48
f 48 65 49
f 49 65 61
f 52 66 53
f 53 66 67
f 54 68 69
f 54 69 55
f 55 69 56
f 56 69 70
f 56 70 57
f 57 70 71
f 57 71 58
f 58 71 72
f 58 72 73
f 58 73 59
f 59 73 60
f 60 73 74
f 60 74 64
f 61 65 75
f 61 75 76
f 61 76 77
f 61 77 63
f 61 63 62
f 64 78 65
f 64 74 79
f 64 79 80
f 64 80 81
f 64 81 78
f 65 78 81
f 65 81 75
f 66 82 67
f 67 82 83
f 68 84 69
f 69 84 70
f 70 84 85
f 70 85 86
f 70 86 71
f 71 86 87
f 71 87 72
f 72 87 88
f 72 88 73
f 73 88 89
f 73 89 74
f 74 89 90
f 74 90 93
f 74 93 79
f 75 81 80
f 75 80 91
f 75 91 76
f 76 91 80
f 76 80 92
f 79 93 94
f 79 94 95
f 79 95 80
f 80 95 96
f 80 96 97
f 80 97 92
f 82 98 114
f 82 114 132
f 82 132 151
f 82 151 171
f 82 171 185
f 82 185 190
f 82 190 189
f 82 189 188
f 82 188 187
f 82 187 180
f 82 180 179
f 82 179 178
f 82 178 186
f 82 186 175
f 82 175 174
f 82 174 173
f 82 173 153
f 82 153 134
f 82 134 116
f 82 116 99
f 82 99 83
f 84 100 101
f 84 101 85
f 85 101 86
f 86 101 102
f 86 102 103
f 86 103 87
f 87 103 104
f 87 104 88
f 88 104 105
f 88 105 89
f 89 105 90
f 90 105 106
f 90 106 93
f 92 97 107
f 92 107 108
f 92 108 109
f 93 106 110
f 93 110 111
f 93 111 112
f 93 112 94
f 94 97 96
f 94 96 95
f 94 112 113
f 94 113 107
f 94 107 97
f 98 115 114
f 100 117 118
f 100 118 101
f 101 118 102
f 102 118 119
f 102 119 103
f 103 119 120
f 103 120 104
f 104 120 121
f 104 121 105
f 105 121 122
f 105 122 106
f 106 122 123
f 106 123 110
f 107 113 124
f 107 124 108
f 108 124 125
f 108 125 109
f 109 125 126
f 110 123 127
f 110 127 128
f 110 128 111
f 111 128 129
f 111 129 113
f 111 113 112
f 113 129 124
f 114 115 130
f 114 130 131
f 114 131 132
f 115 133 130
f 116 134 135
f 117 136 137
f 117 137 118
f 118 137 119
f 119 137 156
f 119 156 138
f 119 138 139
f 119 139 120
f 120 139 140
f 120 140 121
f 121 140 122
f 122 140 141
f 122 141 123
f 123 141 142
f 123 142 143
f 123 143 127
f 124 129 144
f 124 144 125
f 125 144 145
f 125 145 146
f 125 146 126
f 127 143 147
f 127 147 128
f 128 147 148
f 128 148 129
f 129 148 144
f 130 133 149
f 130 149 131
f 131 149 150
f 131 150 151
f 131 151 132
f 133 152 149
f 134 153 135
f 135 153 154
f 135 154 155
f 136 155 156
f 136 156 137
f 138 156 157
f 138 157 158
f 138 158 139
f 139 158 140
f 140 158 159
f 140 159 160
f 140 160 141
f 141 160 161
f 141 161 142
f 142 161 162
f 142 162 143
f 143 162 163
f 143 163 147
f 144 148 164
f 144 164 165
f 144 165 145
f 145 166 167
f 145 167 146
f 145 165 168
f 145 168 166
f 147 163 164
f 147 164 148
f 149 152 169
f 149 169 168
f 149 168 150
f 150 168 170
f 150 170 151
f 151 170 171
f 152 172 169
f 153 173 154
f 154 173 157
f 154 157 156
f 154 156 155
f 157 173 174
f 157 174 158
f 158 174 175
f 158 175 159
f 159 175 176
f 159 176 160
f 160 176 177
f 160 177 161
f 161 177 178
f 161 178 179
f 161 179 180
f 161 180 181
f 161 181 162
f 162 181 182
f 162 182 163
f 163 182 164
f 164 182 183
f 164 183 165
f 165 183 170
f 165 170 168
f 166 168 184
f 168 169 184
f 169 172 184
f 170 183 185
f 170 185 171
f 175 186 176
f 176 186 178
f 176 178 177
f 180 187 181
f 181 187 182
f 182 187 188
f 182 188 189
f 182 189 183
f 183 189 190
f 183 190 185

