# https://github.com/mikedh/trimesh
v 0.00881149 -0.02995028 0.06104885
v 0.00890752 -0.02992817 0.06104885
v 0.00881149 -0.02973163 0.06250745
v 0.00881149 -0.02821949 0.04952140
v 0.00882274 -0.02821703 0.04952140
v 0.01036975 -0.02952526 0.06104885
v 0.00890752 -0.02970706 0.06251059
v 0.00890752 -0.02819369 0.04952140
v 0.00881149 -0.02924396 0.06361121
v 0.00881149 -0.02451837 0.04952140
v 0.01175546 -0.02907444 0.06104885
v 0.01156190 -0.02901179 0.06223583
v 0.00907632 -0.02814333 0.04952140
v 0.01036975 -0.02773673 0.04952140
v 0.01048979 -0.02921202 0.06263777
v 0.01105773 -0.02882754 0.06320927
v 0.01008241 -0.02897740 0.06348560
v 0.00881149 -0.02908795 0.06396133
v 0.01647527 -0.01994633 0.04952140
v 0.00881149 -0.02265491 0.05663382
v 0.01647527 -0.01740235 0.05812538
v 0.01647527 -0.01772541 0.05694313
v 0.01248695 -0.02881403 0.06104885
v 0.01046203 -0.02770602 0.04952140
v 0.01563725 -0.02745543 0.06196577
v 0.01329347 -0.02823546 0.06251059
v 0.01196253 -0.02870838 0.06263777
v 0.01421102 -0.02746894 0.06336471
v 0.01329347 -0.02766426 0.06365674
v 0.01191601 -0.02792836 0.06408537
v 0.01048979 -0.02853027 0.06397390
v 0.00881149 -0.02874155 0.06455796
v 0.01647527 -0.02464244 0.04952140
v 0.00881149 -0.02235642 0.05812538
v 0.01647527 -0.01741709 0.05857757
v 0.01329347 -0.02849710 0.06104885
v 0.01122729 -0.02743210 0.04952140
v 0.01475570 -0.02789519 0.06104885
v 0.01568601 -0.02748123 0.06104885
v 0.01641675 -0.02708938 0.06104885
v 0.01647527 -0.02705498 0.06104885
v 0.01647527 -0.02704269 0.06111637
v 0.01647527 -0.02675280 0.06245878
v 0.01616167 -0.02692109 0.06247605
v 0.01518560 -0.02722081 0.06294079
v 0.01472119 -0.02764952 0.06247605
v 0.01647527 -0.02613983 0.06351072
v 0.01621719 -0.02620985 0.06359865
v 0.01478046 -0.02665699 0.06399430
v 0.01245919 -0.02732277 0.06464746
v 0.00918286 -0.02867399 0.06446062
v 0.01148387 -0.02753036 0.06483901
v 0.01036975 -0.02773182 0.06498031
v 0.00881149 -0.02814824 0.06501799
v 0.01643326 -0.02467192 0.04952140
v 0.00881149 -0.02236747 0.05821645
v 0.00881149 -0.02268931 0.05957770
v 0.01647527 -0.01761609 0.05937045
v 0.01560123 -0.02743946 0.06021200
v 0.01187475 -0.02715817 0.04952140
v 0.01612115 -0.02488565 0.04952140
v 0.01647527 -0.02659556 0.06276494
v 0.01647527 -0.02549248 0.06424866
v 0.01534915 -0.02583520 0.06462547
v 0.01437458 -0.02609193 0.06484529
v 0.01329347 -0.02637200 0.06499444
v 0.01191601 -0.02676017 0.06510435
v 0.01036975 -0.02664839 0.06541836
v 0.00881149 -0.02812613 0.06502742
v 0.00881149 -0.02401350 0.06405240
v 0.00881149 -0.02427024 0.06490024
v 0.01647527 -0.01767628 0.05953688
v 0.01195878 -0.02712254 0.04952140
v 0.01329347 -0.02650098 0.04952140
v 0.01339625 -0.02644939 0.04952140
v 0.01422528 -0.02602682 0.04952140
v 0.01495602 -0.02561655 0.04952140
v 0.01509331 -0.02553301 0.04952140
v 0.01647527 -0.02528734 0.06446376
v 0.01647527 -0.02476405 0.06490966
v 0.01621719 -0.02484266 0.06495519
v 0.01481947 -0.02528365 0.06510278
v 0.01329347 -0.02518661 0.06543092
v 0.00890752 -0.02664839 0.06555653
v 0.00881149 -0.02674420 0.06553612
v 0.00881149 -0.02431200 0.06492693
v 0.01647527 -0.02066248 0.06500543
v 0.01647527 -0.02055684 0.06493321
v 0.01647527 -0.02015392 0.06445905
v 0.01647527 -0.02463998 0.06496932
v 0.01647527 -0.02372484 0.06532259
v 0.01621719 -0.02372361 0.06538696
v 0.01647527 -0.02346687 0.06540266
v 0.01475570 -0.02372361 0.06550314
v 0.00881149 -0.02664839 0.06556123
v 0.00881149 -0.02517924 0.06536184
v 0.00890752 -0.02518661 0.06537911
v 0.01647527 -0.02200510 0.06544819
v 0.01647527 -0.02226306 0.06546232
v 0.01621719 -0.02226306 0.06545761
v 0.01036975 -0.02518661 0.06548902
v 0.00881149 -0.02528242 0.06539481
f 1 2 3
f 1 3 9
f 1 9 18
f 1 18 32
f 1 32 54
f 1 54 69
f 1 69 85
f 1 85 95
f 1 95 102
f 1 102 96
f 1 96 86
f 1 86 71
f 1 71 70
f 1 70 57
f 1 57 56
f 1 56 34
f 1 34 20
f 1 20 10
f 1 10 4
f 1 4 5
f 1 5 2
f 2 6 7
f 2 7 3
f 2 5 8
f 2 8 6
f 3 7 9
f 4 10 19
f 4 19 33
f 4 33 55
f 4 55 61
f 4 61 78
f 4 78 77
f 4 77 76
f 4 76 75
f 4 75 74
f 4 74 73
f 4 73 60
f 4 60 37
f 4 37 24
f 4 24 14
f 4 14 13
f 4 13 8
f 4 8 5
f 6 11 12
f 6 12 7
f 6 8 13
f 6 13 14
f 6 14 11
f 7 15 16
f 7 16 17
f 7 17 9
f 7 12 15
f 9 17 18
f 10 20 21
f 10 21 22
f 10 22 19
f 11 23 12
f 11 14 24
f 11 24 23
f 12 23 25
f 12 25 26
f 12 26 27
f 12 27 16
f 12 16 15
f 16 27 26
f 16 26 28
f 16 28 29
f 16 29 30
f 16 30 31
f 16 31 32
f 16 32 17
f 17 32 18
f 19 22 21
f 19 21 35
f 19 35 58
f 19 58 72
f 19 72 89
f 19 89 88
f 19 88 87
f 19 87 98
f 19 98 99
f 19 99 93
f 19 93 91
f 19 91 90
f 19 90 80
f 19 80 79
f 19 79 63
f 19 63 47
f 19 47 62
f 19 62 43
f 19 43 42
f 19 42 41
f 19 41 33
f 20 34 21
f 21 34 35
f 23 36 25
f 23 24 37
f 23 37 36
f 25 36 38
f 25 38 39
f 25 39 40
f 25 40 41
f 25 41 42
f 25 42 43
f 25 43 44
f 25 44 45
f 25 45 46
f 25 46 26
f 26 46 28
f 28 46 45
f 28 45 47
f 28 47 48
f 28 48 49
f 28 49 50
f 28 50 29
f 29 50 30
f 30 50 51
f 30 51 31
f 31 51 32
f 32 51 50
f 32 50 52
f 32 52 53
f 32 53 54
f 33 41 55
f 34 56 35
f 35 56 57
f 35 57 58
f 36 37 59
f 36 59 38
f 37 60 59
f 38 59 39
f 39 59 40
f 40 59 41
f 41 59 61
f 41 61 55
f 43 62 44
f 44 62 45
f 45 62 47
f 47 63 64
f 47 64 48
f 48 64 49
f 49 64 50
f 50 64 65
f 50 65 52
f 52 65 66
f 52 66 53
f 53 66 67
f 53 67 68
f 53 68 69
f 53 69 54
f 57 70 58
f 58 70 71
f 58 71 72
f 59 60 73
f 59 73 74
f 59 74 75
f 59 75 76
f 59 76 77
f 59 77 78
f 59 78 61
f 63 79 64
f 64 79 80
f 64 80 65
f 65 80 81
f 65 81 66
f 66 81 82
f 66 82 83
f 66 83 67
f 67 83 68
f 68 83 84
f 68 84 85
f 68 85 69
f 71 86 87
f 71 87 88
f 71 88 89
f 71 89 72
f 80 90 81
f 81 90 91
f 81 91 92
f 81 92 82
f 82 92 83
f 83 92 93
f 83 93 94
f 83 94 84
f 84 95 85
f 84 94 95
f 86 96 87
f 87 96 97
f 87 97 98
f 91 93 92
f 93 99 94
f 94 99 95
f 95 99 100
f 95 100 98
f 95 98 101
f 95 101 102
f 96 102 97
f 97 102 98
f 98 102 101
f 98 100 99

