# https://github.com/mikedh/trimesh
v 0.01845575 -0.01036885 -0.06225341
v 0.02247075 -0.01036885 -0.06225341
v 0.01840553 -0.01036885 -0.06207431
v 0.02184303 0.00275516 -0.06225341
v 0.02272423 -0.00962375 -0.06225341
v 0.02293586 -0.00440678 -0.04567916
v 0.02268477 -0.00513775 -0.04567916
v 0.02219336 -0.00617960 -0.04567916
v 0.02195662 -0.00617960 -0.04421876
v 0.02157281 -0.00724586 -0.04567916
v 0.02144129 -0.00705830 -0.04421876
v 0.01532313 -0.01036885 -0.02762155
v 0.01831825 -0.01036885 -0.06176201
v 0.02551608 0.00275516 -0.06225341
v 0.01796194 -0.01036885 -0.06046694
v 0.01791651 -0.01036885 -0.06029242
v 0.01756140 -0.01036885 -0.05886417
v 0.01613259 -0.01036885 -0.05309142
v 0.01330128 0.00275516 -0.02536664
v 0.02282586 -0.00932186 -0.06225341
v 0.02320129 -0.00325573 -0.04567916
v 0.02285456 -0.00415756 -0.04421876
v 0.02337466 -0.00764153 -0.06225341
v 0.02383977 -0.00617189 -0.06225341
v 0.02397727 -0.00570299 -0.06225341
v 0.02416499 -0.00502470 -0.06225341
v 0.02434314 -0.00431814 -0.06225341
v 0.02436825 -0.00421151 -0.06225341
v 0.02458467 -0.00328014 -0.06225341
v 0.02258075 -0.00488852 -0.04421876
v 0.02245401 -0.00458149 -0.04288235
v 0.02154053 -0.00579420 -0.04129335
v 0.02164455 -0.00623227 -0.04284561
v 0.02135760 -0.00694268 -0.04339211
v 0.01513064 -0.01036885 -0.02672602
v 0.02550890 0.00266266 -0.06225341
v 0.02326945 0.00275516 -0.04437950
v 0.02322999 -0.00033186 -0.04421876
v 0.02320010 -0.00179380 -0.04421876
v 0.02336629 -0.00179380 -0.04567916
v 0.01330128 -0.01036885 -0.04014523
v 0.01330128 0.00275516 -0.01533668
v 0.02304108 -0.00325573 -0.04421876
v 0.02280314 -0.00400468 -0.04345182
v 0.02489314 -0.00179380 -0.06225341
v 0.02514303 -0.00033186 -0.06225341
v 0.02534510 0.00114035 -0.06225341
v 0.02205107 -0.00471767 -0.04129335
v 0.02141499 -0.00557838 -0.04027382
v 0.01545226 -0.00968285 -0.02611981
v 0.01554553 -0.00992693 -0.02709801
v 0.01481259 -0.01036885 -0.02548605
v 0.02550293 0.00259201 -0.06225341
v 0.02324792 0.00275516 -0.04421876
v 0.02300640 0.00275516 -0.04275376
v 0.02298727 -0.00033186 -0.04275376
v 0.02296814 -0.00179380 -0.04275376
v 0.02279716 -0.00252990 -0.04201896
v 0.01330128 -0.01036885 -0.02136660
v 0.01330128 -0.00251962 -0.01571326
v 0.01411433 -0.00274958 -0.01699456
v 0.01390868 0.00275516 -0.01655827
v 0.02285695 -0.00311313 -0.04288235
v 0.02270629 -0.00350495 -0.04247821
v 0.02213836 -0.00325573 -0.03983294
v 0.02146281 -0.00427831 -0.03837254
v 0.02164933 -0.00478961 -0.03980539
v 0.02127271 -0.00532659 -0.03930022
v 0.01418248 -0.01006054 -0.02263871
v 0.01438335 -0.01032003 -0.02375468
v 0.01440368 -0.01036885 -0.02395216
v 0.02134564 -0.00401111 -0.03761018
v 0.02285336 0.00275516 -0.04199600
v 0.02282107 -0.00033186 -0.04191793
v 0.02281629 -0.00179380 -0.04194548
v 0.02264651 -0.00179380 -0.04121528
v 0.02230097 -0.00179380 -0.03983294
v 0.02255684 -0.00311313 -0.04143571
v 0.01380346 -0.01036885 -0.02236776
v 0.01330128 -0.01021855 -0.02116912
v 0.01330128 -0.00326472 -0.01576837
v 0.01398042 -0.00948373 -0.02166511
v 0.01555987 -0.00267764 -0.01994752
v 0.01555987 -0.00223186 -0.01994752
v 0.01435226 0.00275516 -0.01747218
v 0.02189205 -0.00179380 -0.03837254
v 0.02172586 -0.00325573 -0.03837254
v 0.01405574 -0.01036885 -0.02298315
v 0.01710705 -0.00281124 -0.02401645
v 0.01434270 -0.01036885 -0.02375468
v 0.01436063 -0.01036885 -0.02380520
v 0.02142097 -0.00325573 -0.03735301
v 0.02119021 -0.00325573 -0.03662280
v 0.02283064 0.00275516 -0.04188578
v 0.02268358 0.00275516 -0.04123365
v 0.02237510 0.00275516 -0.03996153
v 0.02231651 -0.00033186 -0.03983294
v 0.02195901 0.00275516 -0.03837254
v 0.02156683 0.00275516 -0.03691213
v 0.02137792 0.00275516 -0.03620948
v 0.02117466 0.00275516 -0.03546550
v 0.02115194 0.00275516 -0.03538283
v 0.01330128 -0.00947730 -0.02044351
v 0.01688227 -0.00179380 -0.02317603
v 0.01716444 -0.00179380 -0.02391083
v 0.01576553 0.00275516 -0.02050780
v 0.01554194 0.00275516 -0.01997508
v 0.01530998 0.00275516 -0.01945153
v 0.02131934 -0.00033186 -0.03623703
v 0.02109455 -0.00033186 -0.03545172
v 0.02150705 -0.00179380 -0.03704990
v 0.02129423 -0.00179380 -0.03631970
v 0.01837564 -0.00216891 -0.02752511
v 0.01763792 -0.00179380 -0.02521509
v 0.02102759 -0.00179380 -0.03545172
v 0.02055531 -0.00179380 -0.03398672
v 0.02234162 0.00275516 -0.03983294
v 0.02070836 0.00275516 -0.03398672
v 0.02064021 -0.00033186 -0.03398672
v 0.01651640 0.00275516 -0.02243664
v 0.01842466 -0.00119386 -0.02737355
v 0.01842466 -0.00099988 -0.02737355
v 0.01685835 0.00275516 -0.02335973
v 0.01818314 -0.00172699 -0.02680409
v 0.01988336 -0.00114248 -0.03176396
f 1 2 12
f 1 12 35
f 1 35 52
f 1 52 71
f 1 71 91
f 1 91 90
f 1 90 88
f 1 88 79
f 1 79 59
f 1 59 41
f 1 41 18
f 1 18 17
f 1 17 16
f 1 16 15
f 1 15 13
f 1 13 3
f 1 3 4
f 1 4 14
f 1 14 36
f 1 36 53
f 1 53 47
f 1 47 46
f 1 46 45
f 1 45 29
f 1 29 28
f 1 28 27
f 1 27 26
f 1 26 25
f 1 25 24
f 1 24 23
f 1 23 20
f 1 20 5
f 1 5 2
f 2 5 6
f 2 6 7
f 2 7 8
f 2 8 9
f 2 9 10
f 2 10 11
f 2 11 12
f 3 13 4
f 4 13 15
f 4 15 16
f 4 16 17
f 4 17 18
f 4 18 19
f 4 19 42
f 4 42 62
f 4 62 85
f 4 85 108
f 4 108 107
f 4 107 106
f 4 106 120
f 4 120 123
f 4 123 118
f 4 118 102
f 4 102 101
f 4 101 100
f 4 100 99
f 4 99 98
f 4 98 117
f 4 117 96
f 4 96 95
f 4 95 94
f 4 94 73
f 4 73 55
f 4 55 54
f 4 54 37
f 4 37 14
f 5 20 6
f 6 21 22
f 6 22 7
f 6 20 23
f 6 23 24
f 6 24 25
f 6 25 26
f 6 26 27
f 6 27 28
f 6 28 29
f 6 29 21
f 7 22 30
f 7 30 8
f 8 30 9
f 9 11 10
f 9 30 31
f 9 31 32
f 9 32 33
f 9 33 34
f 9 34 11
f 11 34 12
f 12 34 35
f 14 37 38
f 14 38 39
f 14 39 40
f 14 40 36
f 18 41 19
f 19 41 59
f 19 59 80
f 19 80 103
f 19 103 81
f 19 81 60
f 19 60 42
f 21 40 43
f 21 43 44
f 21 44 22
f 21 29 45
f 21 45 46
f 21 46 47
f 21 47 40
f 22 44 30
f 30 44 31
f 31 44 48
f 31 48 32
f 32 34 33
f 32 48 49
f 32 49 50
f 32 50 51
f 32 51 34
f 34 51 35
f 35 51 52
f 36 40 53
f 37 54 38
f 38 54 55
f 38 55 56
f 38 56 57
f 38 57 39
f 39 57 58
f 39 58 43
f 39 43 40
f 40 47 53
f 42 60 61
f 42 61 62
f 43 58 63
f 43 63 44
f 44 63 58
f 44 58 64
f 44 64 65
f 44 65 48
f 48 65 66
f 48 66 67
f 48 67 49
f 49 67 68
f 49 68 50
f 50 69 70
f 50 70 71
f 50 71 52
f 50 52 51
f 50 68 66
f 50 66 72
f 50 72 69
f 55 73 74
f 55 74 56
f 56 74 75
f 56 75 57
f 57 75 58
f 58 75 76
f 58 76 77
f 58 77 65
f 58 65 78
f 58 78 64
f 59 79 69
f 59 69 80
f 60 81 61
f 61 81 82
f 61 82 83
f 61 83 62
f 62 83 84
f 62 84 85
f 64 78 65
f 65 77 86
f 65 86 87
f 65 87 72
f 65 72 66
f 66 68 67
f 69 83 82
f 69 82 80
f 69 79 88
f 69 88 70
f 69 72 89
f 69 89 83
f 70 90 91
f 70 91 71
f 70 88 90
f 72 87 92
f 72 92 93
f 72 93 89
f 73 94 74
f 74 94 95
f 74 95 76
f 74 76 75
f 76 95 96
f 76 96 97
f 76 97 77
f 77 97 98
f 77 98 99
f 77 99 100
f 77 100 101
f 77 101 102
f 77 102 86
f 80 82 103
f 81 103 82
f 83 104 84
f 83 89 105
f 83 105 104
f 84 104 106
f 84 106 107
f 84 107 108
f 84 108 85
f 86 109 110
f 86 110 111
f 86 111 87
f 86 102 109
f 87 111 112
f 87 112 92
f 89 113 114
f 89 114 105
f 89 93 113
f 92 112 115
f 92 115 93
f 93 115 116
f 93 116 113
f 96 117 97
f 97 117 98
f 102 118 119
f 102 119 110
f 102 110 109
f 104 120 106
f 104 105 120
f 105 114 121
f 105 121 122
f 105 122 123
f 105 123 120
f 110 115 112
f 110 112 111
f 110 119 115
f 113 124 114
f 113 116 124
f 114 124 121
f 115 119 125
f 115 125 116
f 116 125 121
f 116 121 124
f 118 123 122
f 118 122 121
f 118 121 119
f 119 121 125

