# https://github.com/mikedh/trimesh
v 0.00881149 -0.02826354 0.04788949
v 0.00890752 -0.02823709 0.04788949
v 0.00890752 -0.02820368 0.04935275
v 0.00881149 -0.02823153 0.04925638
v 0.00881149 -0.02823709 0.04642783
v 0.01036975 -0.02777213 0.04788949
v 0.01036975 -0.02774429 0.04935275
v 0.00890752 -0.02821064 0.04642783
v 0.01036975 -0.02774707 0.04642783
v 0.00881149 -0.02822874 0.04935275
v 0.01036975 -0.02773733 0.04952140
v 0.00907632 -0.02814243 0.04952140
v 0.00890752 -0.02819394 0.04952140
v 0.00882274 -0.02821621 0.04952140
v 0.00881149 -0.02823292 0.04633146
v 0.01123854 -0.02743802 0.04642783
v 0.01126930 -0.02745055 0.04788949
v 0.01123479 -0.02743524 0.04935275
v 0.01046203 -0.02770670 0.04952140
v 0.00890752 -0.02813547 0.04496618
v 0.01049579 -0.02761621 0.04490514
v 0.01117252 -0.02741018 0.04535167
v 0.00881149 -0.02821900 0.04952140
v 0.00881149 -0.02816192 0.04496618
v 0.01196928 -0.02711645 0.04642783
v 0.01200079 -0.02713176 0.04788949
v 0.01196628 -0.02712480 0.04935275
v 0.01187475 -0.02715821 0.04952140
v 0.01122729 -0.02743246 0.04952140
v 0.00890752 -0.02800879 0.04350452
v 0.01020770 -0.02758420 0.04350452
v 0.01106673 -0.02736703 0.04437669
v 0.01172920 -0.02712341 0.04490514
v 0.00881149 -0.02451739 0.04952140
v 0.00881149 -0.02803524 0.04350452
v 0.01329347 -0.02648025 0.04642783
v 0.01329347 -0.02651784 0.04788949
v 0.01329347 -0.02650670 0.04935275
v 0.01329347 -0.02650114 0.04952140
v 0.01211858 -0.02704823 0.04952140
v 0.01195878 -0.02712202 0.04952140
v 0.00881149 -0.02802410 0.04340814
v 0.00881149 -0.02784869 0.04204126
v 0.00890752 -0.02782085 0.04204126
v 0.00994061 -0.02748535 0.04204126
v 0.01093844 -0.02731969 0.04350452
v 0.01183199 -0.02692573 0.04350452
v 0.01342101 -0.02628536 0.04489711
v 0.01647527 -0.01994571 0.04952140
v 0.01647527 -0.01404178 0.03311392
v 0.00881149 -0.02181252 0.03311392
v 0.01418476 -0.02601251 0.04642783
v 0.01423128 -0.02603339 0.04788949
v 0.01410599 -0.02596796 0.04533882
v 0.01423053 -0.02602921 0.04935275
v 0.01339625 -0.02644963 0.04952140
v 0.00881149 -0.02783616 0.04194649
v 0.00897054 -0.02758559 0.04059888
v 0.00973654 -0.02741575 0.04109841
v 0.01067210 -0.02721390 0.04204126
v 0.01314567 -0.02625334 0.04350452
v 0.01183199 -0.02669185 0.04204126
v 0.01647527 -0.02464267 0.04952140
v 0.01647527 -0.01977726 0.03311392
v 0.00881149 -0.02581483 0.03311392
v 0.01491551 -0.02555868 0.04642783
v 0.01496277 -0.02560462 0.04788949
v 0.01496202 -0.02561854 0.04935275
v 0.01399345 -0.02589835 0.04436385
v 0.01465817 -0.02555033 0.04489711
v 0.01495602 -0.02561715 0.04952140
v 0.01422528 -0.02602643 0.04952140
v 0.00881149 -0.02763292 0.04059727
v 0.00881149 -0.02760786 0.04044468
v 0.00881149 -0.02755218 0.04010898
v 0.00950021 -0.02733083 0.04012344
v 0.01028197 -0.02710949 0.04059888
v 0.01387716 -0.02582597 0.04350452
v 0.01292135 -0.02612527 0.04204126
v 0.01036975 -0.02677399 0.03911955
v 0.01162867 -0.02619487 0.03911955
v 0.01195953 -0.02631459 0.04048163
v 0.01271878 -0.02600694 0.04090245
v 0.01643326 -0.02467191 0.04952140
v 0.01647527 -0.02464546 0.04935275
v 0.01451937 -0.02225521 0.03311392
v 0.01647527 -0.01989281 0.03329702
v 0.01036975 -0.02527747 0.03311392
v 0.00881149 -0.02587051 0.03329060
v 0.01599586 -0.02482782 0.04642783
v 0.01608139 -0.02487376 0.04788949
v 0.01587507 -0.02474151 0.04496618
v 0.01612340 -0.02488768 0.04935275
v 0.01612115 -0.02488629 0.04952140
v 0.01509331 -0.02553223 0.04952140
v 0.01475570 -0.02526216 0.04350452
v 0.01571227 -0.02462318 0.04350452
v 0.00881149 -0.02737259 0.03911955
v 0.00922262 -0.02722642 0.03911955
v 0.01365209 -0.02569232 0.04204126
v 0.01487274 -0.02490021 0.04198986
v 0.00881149 -0.02708025 0.03772696
v 0.01036975 -0.02643988 0.03765790
v 0.01112525 -0.02592898 0.03688531
v 0.01130456 -0.02602364 0.03765790
v 0.01262650 -0.02450068 0.03383671
v 0.01253197 -0.02589975 0.03992748
v 0.01279455 -0.02460509 0.03473298
v 0.01324095 -0.02560879 0.04048163
v 0.01647527 -0.02458977 0.04788949
v 0.01432581 -0.02249883 0.03311392
v 0.01647527 -0.02074199 0.03471370
v 0.01182598 -0.02472342 0.03311392
v 0.00890752 -0.02667933 0.03619463
v 0.00881149 -0.02668907 0.03609987
v 0.00881149 -0.02629650 0.03469925
v 0.00881149 -0.02617121 0.03427361
v 0.01647527 -0.02446448 0.04642783
v 0.01647527 -0.02427237 0.04496618
v 0.01557798 -0.02452295 0.04244120
v 0.01644301 -0.02402597 0.04350452
v 0.01647527 -0.02405521 0.04379524
v 0.00881149 -0.02708582 0.03775266
v 0.01456214 -0.02481251 0.04058121
v 0.01543918 -0.02442133 0.04146624
v 0.00881149 -0.02705380 0.03761453
v 0.01246445 -0.02438653 0.03311392
v 0.01352605 -0.02403711 0.03473298
v 0.01379989 -0.02428629 0.03619463
v 0.01396644 -0.02441437 0.03709412
v 0.01306915 -0.02476379 0.03619463
v 0.01431231 -0.02464824 0.03911955
v 0.01397920 -0.02293038 0.03311392
v 0.01647527 -0.02075730 0.03474101
v 0.00881149 -0.02671274 0.03619303
v 0.01647527 -0.02399673 0.04350452
v 0.01647527 -0.02400648 0.04355270
v 0.01612566 -0.02395080 0.04198986
v 0.01647527 -0.02364453 0.04200913
v 0.01529288 -0.02431274 0.04058121
v 0.01628546 -0.02347609 0.04068883
v 0.01288083 -0.02400509 0.03311392
v 0.01434457 -0.02330486 0.03473298
v 0.01552246 -0.02303061 0.03683712
v 0.01479922 -0.02346634 0.03628780
v 0.01467393 -0.02398560 0.03761132
v 0.01504380 -0.02411924 0.03911955
v 0.01322220 -0.02368351 0.03311392
v 0.01413450 -0.02310579 0.03377086
v 0.01647527 -0.02155359 0.03622194
v 0.01507531 -0.02247795 0.03473298
v 0.01647527 -0.02334662 0.04084463
v 0.01590058 -0.02338839 0.03911955
v 0.01531539 -0.02278839 0.03586375
v 0.01647527 -0.02220649 0.03758240
v 0.01646927 -0.02221762 0.03759044
v 0.01647527 -0.02223433 0.03764987
v 0.01647527 -0.02280788 0.03911955
v 0.01566050 -0.02316704 0.03765790
v 0.01647527 -0.02325335 0.04053945
v 0.01647527 -0.02221484 0.03760168
f 1 2 3
f 1 3 4
f 1 4 10
f 1 10 23
f 1 23 34
f 1 34 51
f 1 51 65
f 1 65 89
f 1 89 117
f 1 117 116
f 1 116 115
f 1 115 135
f 1 135 126
f 1 126 102
f 1 102 123
f 1 123 98
f 1 98 75
f 1 75 74
f 1 74 73
f 1 73 57
f 1 57 43
f 1 43 42
f 1 42 35
f 1 35 24
f 1 24 15
f 1 15 5
f 1 5 8
f 1 8 2
f 2 6 7
f 2 7 3
f 2 8 9
f 2 9 6
f 3 10 4
f 3 7 11
f 3 11 12
f 3 12 13
f 3 13 14
f 3 14 10
f 5 15 8
f 6 9 16
f 6 16 17
f 6 17 18
f 6 18 7
f 7 18 19
f 7 19 11
f 8 15 20
f 8 20 9
f 9 20 21
f 9 21 22
f 9 22 16
f 10 14 23
f 11 19 29
f 11 29 28
f 11 28 41
f 11 41 40
f 11 40 39
f 11 39 56
f 11 56 72
f 11 72 71
f 11 71 95
f 11 95 94
f 11 94 84
f 11 84 63
f 11 63 49
f 11 49 34
f 11 34 23
f 11 23 14
f 11 14 13
f 11 13 12
f 15 24 20
f 16 22 25
f 16 25 26
f 16 26 17
f 17 26 27
f 17 27 18
f 18 27 28
f 18 28 29
f 18 29 19
f 20 24 35
f 20 35 30
f 20 30 21
f 21 30 31
f 21 31 32
f 21 32 22
f 22 32 33
f 22 33 25
f 25 33 36
f 25 36 37
f 25 37 26
f 26 37 38
f 26 38 27
f 27 38 39
f 27 39 40
f 27 40 41
f 27 41 28
f 30 35 42
f 30 42 43
f 30 43 44
f 30 44 45
f 30 45 31
f 31 46 32
f 31 45 46
f 32 46 47
f 32 47 33
f 33 47 48
f 33 48 36
f 34 49 50
f 34 50 51
f 36 52 53
f 36 53 37
f 36 48 54
f 36 54 52
f 37 53 55
f 37 55 38
f 38 55 56
f 38 56 39
f 43 57 44
f 44 57 58
f 44 58 59
f 44 59 45
f 45 59 60
f 45 60 46
f 46 60 47
f 47 61 48
f 47 60 62
f 47 62 61
f 48 61 54
f 49 63 85
f 49 85 110
f 49 110 118
f 49 118 119
f 49 119 122
f 49 122 137
f 49 137 136
f 49 136 139
f 49 139 152
f 49 152 160
f 49 160 158
f 49 158 157
f 49 157 161
f 49 161 155
f 49 155 150
f 49 150 134
f 49 134 112
f 49 112 87
f 49 87 64
f 49 64 50
f 50 64 86
f 50 86 111
f 50 111 133
f 50 133 148
f 50 148 142
f 50 142 127
f 50 127 113
f 50 113 88
f 50 88 65
f 50 65 51
f 52 66 67
f 52 67 53
f 52 54 66
f 53 67 68
f 53 68 55
f 54 61 69
f 54 69 70
f 54 70 66
f 55 68 71
f 55 71 72
f 55 72 56
f 57 73 58
f 58 73 74
f 58 74 75
f 58 75 76
f 58 76 59
f 59 76 77
f 59 77 60
f 60 77 62
f 61 78 69
f 61 62 79
f 61 79 78
f 62 77 80
f 62 80 81
f 62 81 82
f 62 82 83
f 62 83 79
f 63 84 85
f 64 87 86
f 65 88 89
f 66 90 91
f 66 91 67
f 66 70 92
f 66 92 90
f 67 91 93
f 67 93 68
f 68 93 94
f 68 94 95
f 68 95 71
f 69 78 96
f 69 96 70
f 70 96 97
f 70 97 92
f 75 98 76
f 76 98 99
f 76 99 80
f 76 80 77
f 78 79 100
f 78 100 101
f 78 101 96
f 79 83 100
f 80 99 102
f 80 102 103
f 80 103 104
f 80 104 105
f 80 105 81
f 81 105 106
f 81 106 107
f 81 107 82
f 82 107 83
f 83 107 108
f 83 108 109
f 83 109 100
f 84 94 93
f 84 93 85
f 85 93 91
f 85 91 110
f 86 87 112
f 86 112 111
f 88 113 114
f 88 114 115
f 88 115 116
f 88 116 117
f 88 117 89
f 90 118 110
f 90 110 91
f 90 92 118
f 92 97 119
f 92 119 118
f 96 101 120
f 96 120 97
f 97 121 122
f 97 122 119
f 97 120 121
f 98 123 99
f 99 123 102
f 100 109 124
f 100 124 101
f 101 124 125
f 101 125 120
f 102 126 103
f 103 126 114
f 103 114 113
f 103 113 104
f 104 113 105
f 105 113 106
f 106 113 127
f 106 127 128
f 106 128 129
f 106 129 130
f 106 130 108
f 106 108 107
f 108 130 131
f 108 131 109
f 109 131 130
f 109 130 132
f 109 132 124
f 111 112 133
f 112 134 133
f 114 126 135
f 114 135 115
f 120 125 121
f 121 136 137
f 121 137 122
f 121 125 138
f 121 138 139
f 121 139 136
f 124 132 125
f 125 132 130
f 125 130 140
f 125 140 141
f 125 141 138
f 127 142 143
f 127 143 128
f 128 143 144
f 128 144 145
f 128 145 129
f 129 145 144
f 129 144 146
f 129 146 130
f 130 146 147
f 130 147 140
f 133 134 149
f 133 149 148
f 134 150 151
f 134 151 149
f 138 141 139
f 139 141 152
f 140 147 153
f 140 153 141
f 141 153 152
f 142 148 149
f 142 149 143
f 143 149 144
f 144 149 154
f 144 154 150
f 144 150 155
f 144 155 156
f 144 156 157
f 144 157 158
f 144 158 159
f 144 159 146
f 146 159 147
f 147 159 153
f 149 151 154
f 150 154 151
f 152 153 160
f 153 159 158
f 153 158 160
f 155 161 156
f 156 161 157

