# https://github.com/mikedh/trimesh
v -0.01186746 -0.01150101 -0.00911096
v -0.01891801 0.00275516 -0.00914546
v -0.01873085 0.00275516 -0.00766953
v -0.01865599 0.00275516 -0.00620894
v -0.01874882 0.00275516 -0.00474452
v -0.01196628 -0.01150101 -0.00803756
v -0.01205461 -0.01150101 -0.00993901
v -0.02096924 0.00275516 -0.02046600
v -0.02077759 0.00275516 -0.01954978
v -0.02074016 0.00275516 -0.01936576
v -0.02048713 0.00275516 -0.01806618
v -0.02045718 0.00275516 -0.01790517
v -0.01901683 0.00275516 -0.00328393
v -0.01924591 0.00275516 -0.00246354
v -0.01213247 -0.01150101 -0.00751236
v -0.01225524 -0.01150101 -0.01059455
v -0.02151873 0.00275516 -0.02244796
v -0.02118335 0.00275516 -0.02128255
v -0.02267162 0.00275516 -0.00246354
v -0.01403248 -0.01150101 -0.00246354
v -0.01334375 -0.01150101 -0.00403531
v -0.01292901 -0.01150101 -0.00508187
v -0.01788042 -0.01150101 -0.02676073
v -0.02199486 0.00275516 -0.02394305
v -0.02192898 0.00275516 -0.02374754
v -0.02274947 0.00249281 -0.00246354
v -0.02716337 0.00275516 -0.02677989
v -0.01817088 -0.01150101 -0.00246354
v -0.01912912 -0.01150101 -0.02972791
v -0.02389786 0.00275516 -0.02907237
v -0.02353703 0.00275516 -0.02813698
v -0.02234522 0.00275516 -0.02493978
v -0.02307737 0.00112943 -0.00246354
v -0.02716337 0.00275516 -0.03452371
v -0.02716337 0.00255561 -0.02669172
v -0.02320314 -0.00033163 -0.00246354
v -0.02006640 -0.00884263 -0.00246354
v -0.02716337 -0.01150101 -0.03603414
v -0.02061739 -0.01150101 -0.03265293
v -0.02485161 0.00275516 -0.03105816
v -0.02421828 0.00275516 -0.02980458
v -0.02710947 0.00275516 -0.03446237
v -0.02539661 -0.01150101 -0.03975270
v -0.02678905 -0.01150101 -0.04125546
v -0.02716337 -0.01150101 -0.04162349
v -0.02716337 0.00150760 -0.02632370
v -0.02307138 -0.00182758 -0.00246354
v -0.02716337 0.00112943 -0.02621636
v -0.02716337 -0.00033163 -0.02613202
v -0.02716337 -0.00179409 -0.02634670
v -0.02716337 -0.00319515 -0.02683356
v -0.02072968 -0.00781696 -0.00246354
v -0.02716337 -0.00829003 -0.03122683
v -0.02113544 -0.00709131 -0.00246354
v -0.02166547 -0.00612564 -0.00246354
v -0.02224640 -0.00471761 -0.00246354
v -0.02276145 -0.00311979 -0.00246354
v -0.02535319 0.00275516 -0.03194755
v -0.02224939 -0.01150101 -0.03543610
v -0.02654500 0.00275516 -0.03373399
v -0.02414192 -0.01150101 -0.03824994
v -0.02441292 -0.01150101 -0.03859496
v -0.02511962 -0.01150101 -0.03943451
v -0.02716337 -0.00390684 -0.02722459
v -0.02716337 -0.00470784 -0.02766545
v -0.02716337 -0.00500089 -0.02784946
v -0.02716337 -0.00604331 -0.02869668
v -0.02716337 -0.00656661 -0.02921038
v -0.02716337 -0.00707457 -0.02974708
v -0.02716337 -0.00743879 -0.03014577
v -0.02716337 -0.00795372 -0.03075914
v -0.02581435 0.00275516 -0.03267593
v -0.02320014 -0.01150101 -0.03693503
f 1 2 3
f 1 3 4
f 1 4 5
f 1 5 6
f 1 6 15
f 1 15 22
f 1 22 21
f 1 21 20
f 1 20 28
f 1 28 38
f 1 38 45
f 1 45 44
f 1 44 43
f 1 43 63
f 1 63 62
f 1 62 61
f 1 61 73
f 1 73 59
f 1 59 39
f 1 39 29
f 1 29 23
f 1 23 16
f 1 16 7
f 1 7 8
f 1 8 9
f 1 9 10
f 1 10 11
f 1 11 12
f 1 12 2
f 2 12 11
f 2 11 10
f 2 10 9
f 2 9 8
f 2 8 18
f 2 18 17
f 2 17 25
f 2 25 24
f 2 24 32
f 2 32 31
f 2 31 30
f 2 30 41
f 2 41 40
f 2 40 58
f 2 58 72
f 2 72 60
f 2 60 42
f 2 42 34
f 2 34 27
f 2 27 19
f 2 19 14
f 2 14 13
f 2 13 5
f 2 5 4
f 2 4 3
f 5 13 6
f 6 13 14
f 6 14 15
f 7 16 17
f 7 17 18
f 7 18 8
f 14 19 26
f 14 26 33
f 14 33 36
f 14 36 47
f 14 47 57
f 14 57 56
f 14 56 55
f 14 55 54
f 14 54 52
f 14 52 37
f 14 37 28
f 14 28 20
f 14 20 21
f 14 21 22
f 14 22 15
f 16 23 24
f 16 24 25
f 16 25 17
f 19 27 26
f 23 29 30
f 23 30 31
f 23 31 32
f 23 32 24
f 26 27 33
f 27 34 45
f 27 45 38
f 27 38 53
f 27 53 71
f 27 71 70
f 27 70 69
f 27 69 68
f 27 68 67
f 27 67 66
f 27 66 65
f 27 65 64
f 27 64 51
f 27 51 50
f 27 50 49
f 27 49 48
f 27 48 46
f 27 46 35
f 27 35 36
f 27 36 33
f 28 37 38
f 29 39 40
f 29 40 41
f 29 41 30
f 34 42 43
f 34 43 44
f 34 44 45
f 35 46 36
f 36 46 48
f 36 48 49
f 36 49 50
f 36 50 51
f 36 51 47
f 37 52 38
f 38 52 54
f 38 54 55
f 38 55 56
f 38 56 57
f 38 57 53
f 39 58 40
f 39 59 58
f 42 60 61
f 42 61 62
f 42 62 63
f 42 63 43
f 47 51 64
f 47 64 65
f 47 65 66
f 47 66 67
f 47 67 68
f 47 68 69
f 47 69 70
f 47 70 71
f 47 71 57
f 53 57 71
f 58 59 72
f 59 73 72
f 60 73 61
f 60 72 73

