# https://github.com/mikedh/trimesh
v 0.01997527 -0.00316561 0.03501113
v 0.01585023 0.01138347 0.03501113
v 0.02393488 -0.00316561 0.03501113
v 0.02146690 -0.00316561 0.05969983
v 0.01459861 0.01138347 0.06217269
v 0.01963084 0.01138347 0.03501113
v 0.02404200 -0.00179273 0.03501113
v 0.02845046 -0.00316561 0.06251171
v 0.02147368 -0.00316561 0.05978625
v 0.01462844 0.01138347 0.06242529
v 0.02035767 0.01137920 0.03501113
v 0.02059633 0.01138347 0.03576562
v 0.02387657 -0.00035292 0.03501113
v 0.02426439 -0.00103224 0.03686577
v 0.02834876 -0.00179273 0.06251171
v 0.02813857 -0.00033013 0.06397083
v 0.02824570 -0.00179273 0.06397083
v 0.02828367 -0.00316561 0.06397083
v 0.02161335 -0.00316561 0.06091964
v 0.02276734 -0.00316561 0.06620770
v 0.01636687 0.01138347 0.06827506
v 0.02107501 0.00961184 0.03501113
v 0.02072651 0.01138347 0.03617776
v 0.02321211 0.00259364 0.03501113
v 0.02788228 0.00113104 0.06251171
v 0.02815620 -0.00033013 0.06251171
v 0.02793788 0.00113104 0.06397083
v 0.02736292 0.00259364 0.06496795
v 0.02749446 0.00113104 0.06512416
v 0.02758124 -0.00033013 0.06521058
v 0.02761650 -0.00179273 0.06522720
v 0.02761515 -0.00316561 0.06519729
v 0.02281615 -0.00316561 0.06624427
v 0.02352807 -0.00316561 0.06673618
v 0.01670452 0.01138347 0.06845455
v 0.02146148 0.00865054 0.03501113
v 0.02073193 0.01138347 0.03619770
v 0.02074007 0.01136496 0.03619770
v 0.02292464 0.00385544 0.03501113
v 0.02730597 0.00372299 0.06286070
v 0.02763955 0.00259364 0.06397083
v 0.02279175 0.00476262 0.03549972
v 0.02286904 0.00508732 0.03647358
v 0.02725037 0.00357488 0.06481506
v 0.02570450 0.00617252 0.06614455
v 0.02679746 0.00259364 0.06569918
v 0.02689374 0.00113104 0.06585539
v 0.02695205 -0.00033013 0.06594180
v 0.02696290 -0.00179273 0.06595843
v 0.02692899 -0.00316561 0.06592851
v 0.02498987 -0.00316561 0.06707520
v 0.01768087 0.01138347 0.06886005
v 0.02135164 0.00921308 0.03540666
v 0.02144249 0.00946800 0.03619770
v 0.02205813 0.00697859 0.03501113
v 0.02106687 0.01138347 0.03766347
v 0.02128791 0.01050050 0.03717820
v 0.02286090 0.00413030 0.03501113
v 0.02631064 0.00697859 0.06397083
v 0.02680560 0.00551599 0.06397083
v 0.02710935 0.00454045 0.06397083
v 0.02732631 0.00381129 0.06397083
v 0.02269140 0.00555159 0.03607140
v 0.02275106 0.00606144 0.03731448
v 0.02258427 0.00685896 0.03774324
v 0.02208661 0.00843976 0.03765682
v 0.02145063 0.01098044 0.03911926
v 0.02138147 0.01138347 0.03957794
v 0.02275106 0.00459457 0.03501113
v 0.02583603 0.00800825 0.06494801
v 0.02601232 0.00697859 0.06523385
v 0.02560008 0.00697859 0.06596507
v 0.02465086 0.00843976 0.06659658
v 0.02477155 0.00691450 0.06697549
v 0.02429965 0.00638330 0.06766350
v 0.02581298 0.00519841 0.06626754
v 0.02593502 0.00405482 0.06640381
v 0.02606656 0.00259364 0.06653011
v 0.02616284 0.00113104 0.06659326
v 0.02622115 -0.00033013 0.06661320
v 0.02623199 -0.00179273 0.06659658
v 0.02619809 -0.00316561 0.06654672
v 0.02498987 -0.00179273 0.06719818
v 0.02436745 0.00152126 0.06767347
v 0.01912639 0.01138347 0.06896640
v 0.02180862 0.00843976 0.03619770
v 0.02250698 0.00552311 0.03501113
v 0.02230629 0.00697859 0.03619770
v 0.02112247 0.01138347 0.03796925
v 0.02109942 0.01129518 0.03766347
v 0.02137876 0.01076112 0.03815538
v 0.02156318 0.00996930 0.03766347
v 0.02588349 0.00810794 0.06397083
v 0.02126485 0.01138347 0.03878690
v 0.02131503 0.01138347 0.03911926
v 0.02150216 0.01138347 0.04052521
v 0.02557432 0.00883852 0.06397083
v 0.02445966 0.01099611 0.06519064
v 0.02473494 0.01004762 0.06557952
v 0.02425897 0.01063295 0.06616449
v 0.02540482 0.00847394 0.06543327
v 0.02443797 0.00965883 0.06636392
v 0.02394030 0.00843976 0.06732780
v 0.02413421 0.00735884 0.06751726
v 0.02298430 0.00959475 0.06777983
v 0.02320940 0.00843976 0.06792276
v 0.02359994 0.00691450 0.06793272
v 0.02438101 0.00551599 0.06772333
v 0.02446373 0.00405482 0.06775989
v 0.02445424 0.00259364 0.06772333
v 0.02206491 0.00697859 0.06832492
v 0.02060447 0.00990236 0.06870383
v 0.02060447 0.01136496 0.06860412
v 0.02060582 0.01138347 0.06859747
v 0.02427660 0.01138347 0.06397083
v 0.02449492 0.01104168 0.06397083
v 0.02507937 0.00990236 0.06397083
v 0.02409489 0.01138347 0.06553299
v 0.02405828 0.01138347 0.06561940
v 0.02331246 0.01138347 0.06667635
v 0.02331788 0.01136496 0.06668300
v 0.02255579 0.01138347 0.06739427
v 0.02276462 0.01056886 0.06760035
v 0.02362164 0.01011313 0.06698214
v 0.02181676 0.01136496 0.06796263
v 0.02219238 0.01001060 0.06811885
v 0.02206491 0.00843976 0.06840802
v 0.02352807 0.00551599 0.06801914
v 0.02062210 0.01138347 0.06859082
v 0.02254088 0.01138347 0.06740757
v 0.02254766 0.01136496 0.06741089
v 0.02181133 0.01138347 0.06795931
f 1 2 6
f 1 6 11
f 1 11 22
f 1 22 36
f 1 36 55
f 1 55 87
f 1 87 69
f 1 69 58
f 1 58 39
f 1 39 24
f 1 24 13
f 1 13 7
f 1 7 3
f 1 3 8
f 1 8 18
f 1 18 32
f 1 32 50
f 1 50 82
f 1 82 51
f 1 51 34
f 1 34 33
f 1 33 20
f 1 20 19
f 1 19 9
f 1 9 4
f 1 4 5
f 1 5 2
f 2 5 10
f 2 10 21
f 2 21 35
f 2 35 52
f 2 52 85
f 2 85 114
f 2 114 129
f 2 129 132
f 2 132 130
f 2 130 122
f 2 122 120
f 2 120 119
f 2 119 118
f 2 118 115
f 2 115 96
f 2 96 68
f 2 68 95
f 2 95 94
f 2 94 89
f 2 89 56
f 2 56 37
f 2 37 23
f 2 23 12
f 2 12 6
f 3 7 8
f 4 9 5
f 5 9 10
f 6 12 11
f 7 13 14
f 7 14 15
f 7 15 8
f 8 15 16
f 8 16 17
f 8 17 18
f 9 19 10
f 10 20 21
f 10 19 20
f 11 12 22
f 12 23 22
f 13 24 25
f 13 25 26
f 13 26 14
f 14 26 15
f 15 26 16
f 16 27 28
f 16 28 29
f 16 29 30
f 16 30 17
f 16 26 27
f 17 30 31
f 17 31 18
f 18 31 32
f 20 33 21
f 21 33 34
f 21 34 35
f 22 23 36
f 23 37 38
f 23 38 36
f 24 39 25
f 25 40 41
f 25 41 27
f 25 27 26
f 25 39 42
f 25 42 43
f 25 43 40
f 27 41 44
f 27 44 28
f 28 44 45
f 28 45 46
f 28 46 29
f 29 46 47
f 29 47 30
f 30 47 48
f 30 48 31
f 31 48 49
f 31 49 32
f 32 49 50
f 34 51 52
f 34 52 35
f 36 38 53
f 36 53 54
f 36 54 55
f 37 56 38
f 38 57 54
f 38 54 53
f 38 56 57
f 39 58 42
f 40 59 60
f 40 60 61
f 40 61 62
f 40 62 41
f 40 43 63
f 40 63 64
f 40 64 65
f 40 65 66
f 40 66 67
f 40 67 68
f 40 68 59
f 41 62 44
f 42 58 69
f 42 69 63
f 42 63 43
f 44 62 61
f 44 61 60
f 44 60 70
f 44 70 71
f 44 71 72
f 44 72 45
f 45 72 73
f 45 73 74
f 45 74 75
f 45 75 76
f 45 76 46
f 46 76 77
f 46 77 78
f 46 78 47
f 47 78 79
f 47 79 48
f 48 79 80
f 48 80 49
f 49 80 81
f 49 81 50
f 50 81 82
f 51 83 84
f 51 84 85
f 51 85 52
f 51 82 83
f 54 86 55
f 54 57 86
f 55 86 88
f 55 88 87
f 56 89 90
f 56 90 57
f 57 90 91
f 57 91 92
f 57 92 86
f 59 93 70
f 59 70 60
f 59 68 93
f 63 69 87
f 63 87 88
f 63 88 64
f 64 88 65
f 65 88 66
f 66 88 86
f 66 86 92
f 66 92 91
f 66 91 94
f 66 94 95
f 66 95 67
f 67 95 68
f 68 96 97
f 68 97 93
f 70 98 99
f 70 99 100
f 70 100 101
f 70 101 72
f 70 72 71
f 70 93 97
f 70 97 98
f 72 100 102
f 72 102 73
f 72 101 100
f 73 102 103
f 73 103 104
f 73 104 74
f 74 104 75
f 75 104 105
f 75 105 106
f 75 106 107
f 75 107 108
f 75 108 78
f 75 78 77
f 75 77 76
f 78 108 79
f 79 108 109
f 79 109 80
f 80 109 81
f 81 109 110
f 81 110 82
f 82 110 83
f 83 110 84
f 84 110 111
f 84 111 112
f 84 112 85
f 85 112 113
f 85 113 114
f 89 91 90
f 89 94 91
f 96 115 116
f 96 116 117
f 96 117 97
f 97 117 98
f 98 117 116
f 98 116 115
f 98 115 118
f 98 118 100
f 98 100 99
f 100 118 119
f 100 119 120
f 100 120 121
f 100 121 122
f 100 122 123
f 100 123 124
f 100 124 103
f 100 103 102
f 103 105 104
f 103 124 105
f 105 124 123
f 105 123 125
f 105 125 126
f 105 126 106
f 106 126 113
f 106 113 127
f 106 127 107
f 107 127 108
f 108 127 109
f 109 127 128
f 109 128 110
f 110 128 127
f 110 127 111
f 111 127 112
f 112 127 113
f 113 126 129
f 113 129 114
f 120 122 121
f 122 130 131
f 122 131 123
f 123 131 132
f 123 132 125
f 125 132 129
f 125 129 126
f 130 132 131

