# https://github.com/mikedh/trimesh
v 0.02207200 0.01834798 -0.06432042
v 0.01458455 0.02684724 -0.06432042
v 0.02601318 0.01834798 -0.06432042
v 0.01794736 0.01834798 -0.04764060
v 0.01458455 0.02121813 -0.04764060
v 0.01458455 0.03111186 -0.06432042
v 0.02599752 0.01857914 -0.06432042
v 0.02582077 0.01867660 -0.06351867
v 0.02582524 0.01834798 -0.06344030
v 0.02181247 0.01834798 -0.04764060
v 0.01458455 0.02520911 -0.04764060
v 0.01458455 0.03092568 -0.06343213
v 0.01512040 0.03102689 -0.06432042
v 0.02599081 0.01867660 -0.06432042
v 0.02576259 0.02013854 -0.06378321
v 0.02565184 0.01867660 -0.06278878
v 0.02566527 0.01834798 -0.06273489
v 0.02578273 0.01834798 -0.06324599
v 0.02591474 0.01967872 -0.06432042
v 0.02587894 0.02013854 -0.06432042
v 0.02170954 0.01871783 -0.04764060
v 0.02534196 0.01834798 -0.06143513
v 0.02539454 0.01867660 -0.06176497
v 0.02572680 0.02091200 -0.06393670
v 0.02549746 0.02148053 -0.06336029
v 0.02566191 0.02188663 -0.06421428
v 0.02520772 0.02306243 -0.06322639
v 0.02487994 0.02452437 -0.06322639
v 0.01458455 0.02545652 -0.04829864
v 0.01498504 0.02504917 -0.04764060
v 0.01876289 0.02832042 -0.05923238
v 0.01767999 0.02912137 -0.06030191
v 0.01693717 0.02963742 -0.06104160
v 0.01458455 0.03087820 -0.06327865
v 0.01469866 0.03086945 -0.06331293
v 0.01621897 0.03052958 -0.06322639
v 0.01731306 0.03051209 -0.06432042
v 0.02563171 0.01834798 -0.06259447
v 0.02577490 0.02119939 -0.06432042
v 0.02142651 0.01966872 -0.04764060
v 0.02444924 0.02447439 -0.06178783
v 0.02433178 0.02540529 -0.06229075
v 0.02569771 0.02179666 -0.06432042
v 0.02567422 0.02196910 -0.06432042
v 0.02564401 0.02215528 -0.06432042
v 0.02548516 0.02309242 -0.06432042
v 0.02525582 0.02415701 -0.06432042
v 0.02517304 0.02452437 -0.06432042
v 0.01458455 0.02944875 -0.05906909
v 0.01635769 0.02948748 -0.06025946
v 0.01596279 0.02975613 -0.06071993
v 0.01518417 0.02957620 -0.05974510
v 0.01523339 0.02494046 -0.04764060
v 0.01973728 0.02812175 -0.05970428
v 0.01920702 0.02855284 -0.06023660
v 0.01903138 0.02925507 -0.06187764
v 0.01846867 0.02965991 -0.06244098
v 0.01767999 0.02952247 -0.06136492
v 0.01767999 0.02978112 -0.06209481
v 0.01767999 0.03015598 -0.06322639
v 0.01635769 0.02997729 -0.06162291
v 0.01458455 0.03039963 -0.06176497
v 0.01475683 0.03036964 -0.06176497
v 0.01767999 0.03041838 -0.06432042
v 0.02115020 0.02035346 -0.04764060
v 0.02447609 0.02571267 -0.06322639
v 0.02424340 0.02668855 -0.06400364
v 0.02409126 0.02644364 -0.06322639
v 0.02379927 0.02593009 -0.06178783
v 0.02463382 0.02604004 -0.06432042
v 0.01458455 0.02980986 -0.06005045
v 0.01471991 0.02985609 -0.06025946
v 0.01626483 0.02447939 -0.04764060
v 0.02018811 0.02832792 -0.06067911
v 0.01987152 0.02671603 -0.05664917
v 0.01944418 0.02949123 -0.06294554
v 0.01903138 0.02976987 -0.06335049
v 0.01990173 0.02965242 -0.06392036
v 0.01877520 0.03008850 -0.06432042
v 0.01458455 0.03034090 -0.06159351
v 0.02043982 0.02148553 -0.04764060
v 0.02296473 0.02548525 -0.05920462
v 0.02280475 0.02818548 -0.06393996
v 0.02325223 0.02747325 -0.06336192
v 0.02303744 0.02696344 -0.06176497
v 0.02283943 0.02675977 -0.06095016
v 0.02448168 0.02636742 -0.06432042
v 0.02429262 0.02675352 -0.06432042
v 0.02397603 0.02708964 -0.06432042
v 0.01729851 0.02397458 -0.04764060
v 0.02116250 0.02808926 -0.06125061
v 0.02064678 0.02853409 -0.06174864
v 0.02064678 0.02790308 -0.06023660
v 0.01770908 0.02374967 -0.04764060
v 0.01798316 0.02359848 -0.04764060
v 0.02123745 0.02665231 -0.05822979
v 0.02047450 0.02920134 -0.06335049
v 0.02073068 0.02936378 -0.06432042
v 0.02000465 0.02969240 -0.06432042
v 0.01911192 0.02998479 -0.06432042
v 0.01977979 0.02225149 -0.04764060
v 0.02203173 0.02841664 -0.06336192
v 0.02152049 0.02828419 -0.06222544
v 0.02249599 0.02797806 -0.06296513
v 0.02366056 0.02741827 -0.06432042
v 0.02286628 0.02823296 -0.06432042
v 0.02205634 0.02869028 -0.06432042
v 0.02156971 0.02689097 -0.05920462
v 0.01949116 0.02249889 -0.04764060
v 0.02203173 0.02773815 -0.06174864
v 0.01902690 0.02287750 -0.04764060
f 1 2 6
f 1 6 13
f 1 13 37
f 1 37 64
f 1 64 79
f 1 79 100
f 1 100 99
f 1 99 98
f 1 98 107
f 1 107 106
f 1 106 105
f 1 105 89
f 1 89 88
f 1 88 87
f 1 87 70
f 1 70 48
f 1 48 47
f 1 47 46
f 1 46 45
f 1 45 44
f 1 44 43
f 1 43 39
f 1 39 20
f 1 20 19
f 1 19 14
f 1 14 7
f 1 7 3
f 1 3 9
f 1 9 18
f 1 18 17
f 1 17 38
f 1 38 22
f 1 22 10
f 1 10 4
f 1 4 5
f 1 5 2
f 2 5 11
f 2 11 29
f 2 29 49
f 2 49 71
f 2 71 80
f 2 80 62
f 2 62 34
f 2 34 12
f 2 12 6
f 3 7 8
f 3 8 9
f 4 10 21
f 4 21 40
f 4 40 65
f 4 65 81
f 4 81 101
f 4 101 109
f 4 109 111
f 4 111 95
f 4 95 94
f 4 94 90
f 4 90 73
f 4 73 53
f 4 53 30
f 4 30 11
f 4 11 5
f 6 12 13
f 7 14 8
f 8 15 16
f 8 16 17
f 8 17 18
f 8 18 9
f 8 14 19
f 8 19 20
f 8 20 15
f 10 22 23
f 10 23 24
f 10 24 25
f 10 25 26
f 10 26 27
f 10 27 28
f 10 28 21
f 11 30 31
f 11 31 32
f 11 32 33
f 11 33 29
f 12 34 35
f 12 35 36
f 12 36 13
f 13 36 37
f 15 24 23
f 15 23 16
f 15 20 24
f 16 23 22
f 16 22 38
f 16 38 17
f 20 39 24
f 21 28 41
f 21 41 42
f 21 42 40
f 24 39 43
f 24 43 26
f 24 26 25
f 26 43 44
f 26 44 45
f 26 45 27
f 27 45 46
f 27 46 47
f 27 47 28
f 28 47 48
f 28 48 42
f 28 42 41
f 29 33 50
f 29 50 51
f 29 51 52
f 29 52 49
f 30 53 54
f 30 54 31
f 31 54 55
f 31 55 56
f 31 56 32
f 32 56 57
f 32 57 58
f 32 58 33
f 33 58 59
f 33 59 60
f 33 60 61
f 33 61 51
f 33 51 50
f 34 62 35
f 35 62 63
f 35 63 36
f 36 60 64
f 36 64 37
f 36 63 61
f 36 61 60
f 40 42 65
f 42 48 66
f 42 66 67
f 42 67 68
f 42 68 69
f 42 69 65
f 48 70 66
f 49 52 71
f 51 61 63
f 51 63 72
f 51 72 52
f 52 72 71
f 53 73 54
f 54 74 55
f 54 73 75
f 54 75 74
f 55 74 56
f 56 76 57
f 56 74 76
f 57 76 77
f 57 77 60
f 57 60 59
f 57 59 58
f 60 77 78
f 60 78 79
f 60 79 64
f 62 80 63
f 63 80 71
f 63 71 72
f 65 69 82
f 65 82 81
f 66 70 67
f 67 83 84
f 67 84 85
f 67 85 86
f 67 86 68
f 67 70 87
f 67 87 88
f 67 88 89
f 67 89 83
f 68 86 82
f 68 82 69
f 73 90 75
f 74 91 92
f 74 92 76
f 74 75 93
f 74 93 91
f 75 90 94
f 75 94 95
f 75 95 96
f 75 96 91
f 75 91 93
f 76 92 97
f 76 97 78
f 76 78 77
f 78 97 98
f 78 98 99
f 78 99 100
f 78 100 79
f 81 82 86
f 81 86 101
f 83 102 103
f 83 103 104
f 83 104 86
f 83 86 85
f 83 85 84
f 83 89 105
f 83 105 106
f 83 106 107
f 83 107 102
f 86 104 108
f 86 108 96
f 86 96 109
f 86 109 101
f 91 96 108
f 91 108 110
f 91 110 104
f 91 104 103
f 91 103 92
f 92 103 97
f 95 111 96
f 96 111 109
f 97 103 102
f 97 102 98
f 98 102 107
f 104 110 108

