# https://github.com/mikedh/trimesh
v -0.03528028 -0.01409058 0.04500772
v -0.03133924 -0.01409058 0.04500772
v -0.03525062 -0.01409058 0.04644114
v -0.03547308 -0.01355161 0.04500772
v -0.03352036 -0.00316882 0.04500772
v -0.02815853 -0.00316561 0.06129836
v -0.02692361 -0.01409058 0.06017827
v -0.03549681 -0.01337516 0.04645101
v -0.03515471 -0.01409058 0.04789183
v -0.03570148 -0.01281051 0.04597978
v -0.03570642 -0.01282442 0.04500772
v -0.03362022 -0.00316561 0.04500772
v -0.02802604 -0.00316561 0.06250974
v -0.02689889 -0.01409058 0.06028436
v -0.03536037 -0.01348958 0.04789183
v -0.03567379 -0.01271534 0.04695431
v -0.03362417 -0.01409058 0.06543578
v -0.03585473 -0.01214749 0.04645101
v -0.03632239 -0.01056585 0.04500772
v -0.03594371 -0.01198708 0.04500772
v -0.03593185 -0.01203092 0.04500772
v -0.03684839 -0.00316561 0.04500772
v -0.02686132 -0.01409058 0.06104918
v -0.02810513 -0.00316561 0.06835937
v -0.03563919 -0.01257204 0.04789183
v -0.03625714 -0.01056585 0.04643127
v -0.03582507 -0.01184057 0.04789183
v -0.03345411 -0.01409058 0.06629682
v -0.03345807 -0.01348958 0.06689634
v -0.03374579 -0.01348958 0.06543578
v -0.03611872 -0.01056585 0.04789183
v -0.03662494 -0.00910291 0.04500772
v -0.03685531 -0.00321587 0.04500772
v -0.03684641 -0.00316561 0.04505706
v -0.02686725 -0.01409058 0.06122188
v -0.02821785 -0.00316561 0.06920560
v -0.02746246 -0.01409058 0.06689634
v -0.02689889 -0.01409058 0.06187814
v -0.03654387 -0.00910291 0.04643127
v -0.03330383 -0.01409058 0.06693088
v -0.03289845 -0.01409058 0.06779438
v -0.03296964 -0.01348958 0.06788074
v -0.03371810 -0.01202771 0.06689634
v -0.03395342 -0.01202771 0.06543578
v -0.03638567 -0.00910291 0.04789183
v -0.03684345 -0.00764211 0.04500772
v -0.03686026 -0.00325651 0.04500772
v -0.03678808 -0.00325651 0.04643127
v -0.03677523 -0.00316561 0.04643127
v -0.02823070 -0.00316561 0.06927221
v -0.02787575 -0.01409058 0.06815706
v -0.03674754 -0.00764211 0.04643127
v -0.03246045 -0.01409058 0.06813485
v -0.03226963 -0.01202771 0.06878866
v -0.03250198 -0.01056585 0.06894162
v -0.03267105 -0.00953601 0.06904030
v -0.03311597 -0.01202771 0.06805837
v -0.03324154 -0.01056585 0.06821133
v -0.03392079 -0.01056585 0.06689634
v -0.03425794 -0.00874787 0.06632642
v -0.03657749 -0.00764211 0.04789183
v -0.03684741 -0.00760147 0.04500772
v -0.03695715 -0.00467774 0.04500772
v -0.03688399 -0.00471837 0.04643127
v -0.03662692 -0.00325651 0.04789183
v -0.03661505 -0.00316561 0.04789183
v -0.03676633 -0.00316561 0.04652009
v -0.02904541 -0.00316561 0.06979525
v -0.02890600 -0.01348958 0.06887253
v -0.02902761 -0.01409058 0.06889474
v -0.03687212 -0.00618024 0.04643127
v -0.03201750 -0.01409058 0.06847285
v -0.03193643 -0.01349172 0.06868256
v -0.03138769 -0.01300514 0.06913158
v -0.03279365 -0.00856286 0.06911679
v -0.03349663 -0.00764211 0.06835937
v -0.03412743 -0.00764211 0.06719487
v -0.03324154 -0.00907083 0.06847532
v -0.03409283 -0.00918311 0.06684700
v -0.03428068 -0.00764211 0.06646459
v -0.03668723 -0.00618024 0.04789183
v -0.03696012 -0.00618024 0.04500772
v -0.03695913 -0.00471837 0.04500772
v -0.03696110 -0.00613960 0.04500772
v -0.03670602 -0.00471837 0.04789183
v -0.03660319 -0.00316561 0.04798311
v -0.03425992 -0.00498145 0.06637824
v -0.03405723 -0.00325651 0.06689634
v -0.03404636 -0.00316561 0.06689634
v -0.02910770 -0.00316561 0.06983472
v -0.02970587 -0.01409058 0.06912912
v -0.02963765 -0.01348958 0.06915626
v -0.03112666 -0.01409058 0.06894902
v -0.03021704 -0.01409058 0.06913406
v -0.03053640 -0.01349172 0.06916612
v -0.03056903 -0.01202771 0.06931169
v -0.03056903 -0.00316561 0.07021220
v -0.03203036 -0.00618024 0.06967683
v -0.03203036 -0.00764211 0.06953126
v -0.03153995 -0.01202771 0.06919573
v -0.03100209 -0.01397937 0.06904770
v -0.03212231 -0.00907083 0.06932649
v -0.03286088 -0.00764211 0.06917353
v -0.03294591 -0.00618024 0.06924754
v -0.03359847 -0.00618024 0.06835937
v -0.03414523 -0.00618024 0.06723434
v -0.03428266 -0.00618024 0.06650406
v -0.03415017 -0.00458363 0.06687907
v -0.03356287 -0.00325651 0.06835937
v -0.03401867 -0.00316561 0.06698763
v -0.03047905 -0.00316561 0.07019493
v -0.03094869 -0.01409058 0.06903537
v -0.03194038 -0.00316561 0.06987174
v -0.03203036 -0.00471837 0.06978045
v -0.03177230 -0.01056585 0.06928208
v -0.03203036 -0.00325651 0.06984213
v -0.03298052 -0.00471837 0.06928455
v -0.03362121 -0.00471837 0.06835937
v -0.03296470 -0.00325651 0.06928455
v -0.03352332 -0.00316561 0.06841365
v -0.03355496 -0.00316561 0.06835937
v -0.03203036 -0.00316561 0.06984213
v -0.03290636 -0.00316561 0.06931909
v -0.03296074 -0.00316561 0.06928208
f 1 2 7
f 1 7 14
f 1 14 23
f 1 23 35
f 1 35 38
f 1 38 37
f 1 37 51
f 1 51 70
f 1 70 91
f 1 91 94
f 1 94 112
f 1 112 93
f 1 93 72
f 1 72 53
f 1 53 41
f 1 41 40
f 1 40 28
f 1 28 17
f 1 17 9
f 1 9 3
f 1 3 4
f 1 4 11
f 1 11 21
f 1 21 20
f 1 20 19
f 1 19 32
f 1 32 46
f 1 46 62
f 1 62 82
f 1 82 84
f 1 84 83
f 1 83 63
f 1 63 47
f 1 47 33
f 1 33 22
f 1 22 12
f 1 12 5
f 1 5 2
f 2 5 6
f 2 6 7
f 3 8 4
f 3 9 8
f 4 8 10
f 4 10 11
f 5 12 6
f 6 13 14
f 6 14 7
f 6 12 22
f 6 22 34
f 6 34 49
f 6 49 67
f 6 67 66
f 6 66 86
f 6 86 89
f 6 89 110
f 6 110 121
f 6 121 120
f 6 120 124
f 6 124 123
f 6 123 122
f 6 122 113
f 6 113 97
f 6 97 111
f 6 111 90
f 6 90 68
f 6 68 50
f 6 50 36
f 6 36 24
f 6 24 13
f 8 9 15
f 8 15 16
f 8 16 10
f 9 17 15
f 10 16 18
f 10 18 19
f 10 19 20
f 10 20 21
f 10 21 11
f 13 23 14
f 13 24 23
f 15 25 16
f 15 17 25
f 16 26 18
f 16 25 27
f 16 27 26
f 17 28 29
f 17 29 30
f 17 30 31
f 17 31 27
f 17 27 25
f 18 26 19
f 19 26 32
f 22 33 34
f 23 24 35
f 24 36 37
f 24 37 38
f 24 38 35
f 26 27 31
f 26 31 39
f 26 39 32
f 28 40 29
f 29 40 41
f 29 41 42
f 29 42 43
f 29 43 30
f 30 43 44
f 30 44 45
f 30 45 39
f 30 39 31
f 32 39 46
f 33 47 48
f 33 48 34
f 34 48 49
f 36 50 37
f 37 50 51
f 39 52 46
f 39 45 52
f 41 53 54
f 41 54 42
f 42 54 55
f 42 55 56
f 42 56 57
f 42 57 43
f 43 57 58
f 43 58 59
f 43 59 44
f 44 59 60
f 44 60 61
f 44 61 45
f 45 61 52
f 46 52 62
f 47 63 48
f 48 64 65
f 48 65 66
f 48 66 67
f 48 67 49
f 48 63 64
f 50 68 69
f 50 69 51
f 51 69 70
f 52 71 62
f 52 61 71
f 53 72 73
f 53 73 54
f 54 73 74
f 54 74 55
f 55 74 56
f 56 75 57
f 56 74 75
f 57 75 58
f 58 76 77
f 58 77 59
f 58 75 78
f 58 78 76
f 59 77 79
f 59 79 60
f 60 79 77
f 60 77 80
f 60 80 81
f 60 81 71
f 60 71 61
f 62 71 82
f 63 83 64
f 64 83 84
f 64 84 71
f 64 71 85
f 64 85 65
f 65 86 66
f 65 85 87
f 65 87 88
f 65 88 89
f 65 89 86
f 68 90 69
f 69 90 70
f 70 90 92
f 70 92 91
f 71 84 82
f 71 81 85
f 72 93 74
f 72 74 73
f 74 94 95
f 74 95 96
f 74 96 97
f 74 97 98
f 74 98 99
f 74 99 100
f 74 100 75
f 74 93 101
f 74 101 94
f 75 100 102
f 75 102 99
f 75 99 98
f 75 98 103
f 75 103 78
f 76 78 103
f 76 103 104
f 76 104 105
f 76 105 77
f 77 106 80
f 77 105 106
f 80 106 107
f 80 107 85
f 80 85 81
f 85 107 87
f 87 107 106
f 87 106 108
f 87 108 88
f 88 108 106
f 88 106 109
f 88 109 110
f 88 110 89
f 90 111 91
f 90 91 92
f 91 111 97
f 91 97 94
f 93 112 101
f 94 97 95
f 94 101 112
f 95 97 96
f 97 113 114
f 97 114 98
f 98 114 104
f 98 104 103
f 99 102 115
f 99 115 100
f 100 115 102
f 104 114 116
f 104 116 117
f 104 117 105
f 105 117 118
f 105 118 106
f 106 118 109
f 109 118 119
f 109 119 120
f 109 120 121
f 109 121 110
f 113 122 116
f 113 116 114
f 116 122 117
f 117 122 123
f 117 123 119
f 117 119 118
f 119 123 124
f 119 124 120

