# https://github.com/mikedh/trimesh
v -0.02409977 -0.02566271 0.03754902
v -0.02409977 -0.02147219 0.03754902
v -0.02384034 -0.02579898 0.03754902
v -0.02409977 -0.02568826 0.03765653
v -0.02409977 -0.02161102 0.05370102
v -0.00689042 -0.02566611 0.03754902
v -0.02379655 -0.02582198 0.03754902
v -0.02382013 -0.02583390 0.03765653
v -0.02398016 -0.02591312 0.03841227
v -0.02409977 -0.02582454 0.03829053
v -0.02409977 -0.02582880 0.05370102
v -0.00689042 -0.02603491 0.05370102
v -0.00689042 -0.02914373 0.03754902
v -0.02374264 -0.02584838 0.03754902
v -0.02306545 -0.02617204 0.03754902
v -0.02308904 -0.02618312 0.03765653
v -0.02409977 -0.02602299 0.03935616
v -0.02409977 -0.02586968 0.03851030
v -0.02339899 -0.02628873 0.03898777
v -0.02409977 -0.02597529 0.05327097
v -0.02394647 -0.02590886 0.05370102
v -0.00689042 -0.02953809 0.05370102
v -0.00689042 -0.02916247 0.03765653
v -0.00717680 -0.02914203 0.03754902
v -0.02186605 -0.02672311 0.03754902
v -0.02179530 -0.02677763 0.03765653
v -0.02325749 -0.02662431 0.04058147
v -0.02409977 -0.02604088 0.03946209
v -0.02170265 -0.02708851 0.03913165
v -0.02205809 -0.02717453 0.04058147
v -0.02409977 -0.02598977 0.05322671
v -0.02331140 -0.02620185 0.05370102
v -0.00721554 -0.02953723 0.05370102
v -0.00717680 -0.02985578 0.05227649
v -0.00689042 -0.02979275 0.05256108
v -0.00689042 -0.02939159 0.03911900
v -0.00717680 -0.02939074 0.03911900
v -0.00717680 -0.02915991 0.03765653
v -0.00863898 -0.02913181 0.03765653
v -0.00863898 -0.02911307 0.03754902
v -0.02179530 -0.02675548 0.03754902
v -0.02067339 -0.02724352 0.03765653
v -0.02093450 -0.02733380 0.03865259
v -0.02325749 -0.02683043 0.04204394
v -0.02409977 -0.02626488 0.04091349
v -0.02409977 -0.02621804 0.04058147
v -0.02229225 -0.02727844 0.04204394
v -0.02115349 -0.02741727 0.03962652
v -0.02132700 -0.02749137 0.04058147
v -0.02409977 -0.02621207 0.05227649
v -0.02325749 -0.02661153 0.05227649
v -0.02109116 -0.02739087 0.05304014
v -0.02303008 -0.02632535 0.05370102
v -0.00863898 -0.02953212 0.05370102
v -0.00717680 -0.03005935 0.05081403
v -0.00689042 -0.03001846 0.05110019
v -0.00689042 -0.02985408 0.05227649
v -0.00863898 -0.02984556 0.05227649
v -0.00863898 -0.03005679 0.05081403
v -0.00689042 -0.02959600 0.04058147
v -0.00717680 -0.02959686 0.04058147
v -0.00863898 -0.02957897 0.04058147
v -0.00863898 -0.02936774 0.03911900
v -0.01010117 -0.02909433 0.03765653
v -0.01010117 -0.02907560 0.03754902
v -0.02075594 -0.02718646 0.03754902
v -0.02063970 -0.02723245 0.03754902
v -0.02055548 -0.02726311 0.03754902
v -0.01991198 -0.02748456 0.03754902
v -0.01994230 -0.02749478 0.03765653
v -0.02040218 -0.02759614 0.03913165
v -0.02243880 -0.02734232 0.04320601
v -0.02311767 -0.02706721 0.04361867
v -0.02409977 -0.02658428 0.04356965
v -0.02409977 -0.02641819 0.04204394
v -0.02156115 -0.02758762 0.04204394
v -0.02033312 -0.02785251 0.04058147
v -0.02033312 -0.02805352 0.04204394
v -0.02409977 -0.02647526 0.05081403
v -0.02325749 -0.02688665 0.05081403
v -0.02235626 -0.02730825 0.05081403
v -0.02202777 -0.02716431 0.05227649
v -0.02077615 -0.02727503 0.05370102
v -0.02166559 -0.02695052 0.05361248
v -0.02129668 -0.02747519 0.05227649
v -0.02033312 -0.02783462 0.05227649
v -0.01887093 -0.02833800 0.05227649
v -0.01887093 -0.02793172 0.05370102
v -0.01928027 -0.02779459 0.05370102
v -0.02021688 -0.02750500 0.05361248
v -0.02030616 -0.02744283 0.05370102
v -0.02167402 -0.02691305 0.05370102
v -0.01010117 -0.02951849 0.05370102
v -0.00863898 -0.03015389 0.04935313
v -0.00717680 -0.03014537 0.04935313
v -0.00689042 -0.03013941 0.04935313
v -0.00689042 -0.03005253 0.05081403
v -0.01010117 -0.02982682 0.05227649
v -0.01010117 -0.03002528 0.05081403
v -0.01010117 -0.03012493 0.04935313
v -0.00689042 -0.02977401 0.04204394
v -0.00717680 -0.02977572 0.04204394
v -0.00863898 -0.02976380 0.04204394
v -0.01010117 -0.02973143 0.04204394
v -0.01010117 -0.02954064 0.04058147
v -0.01010117 -0.02932686 0.03911900
v -0.01156336 -0.02926212 0.03911900
v -0.01156336 -0.02902449 0.03765653
v -0.01156336 -0.02900575 0.03754902
v -0.01897032 -0.02777671 0.03754902
v -0.01887093 -0.02782611 0.03765653
v -0.01887093 -0.02807737 0.03911900
v -0.02188964 -0.02761147 0.04361867
v -0.02253651 -0.02738406 0.04418152
v -0.02332993 -0.02707317 0.04496730
v -0.02409977 -0.02663794 0.04423211
v -0.02033312 -0.02821024 0.04350483
v -0.01887093 -0.02830819 0.04058147
v -0.01887093 -0.02851771 0.04204394
v -0.01880523 -0.02868891 0.04339416
v -0.02409977 -0.02663709 0.04945116
v -0.02250450 -0.02737043 0.04996026
v -0.02162516 -0.02760806 0.05081403
v -0.02143818 -0.02700929 0.05370102
v -0.02033312 -0.02810377 0.05081403
v -0.01878839 -0.02863099 0.05080612
v -0.01800844 -0.02880389 0.05128834
v -0.01747612 -0.02873490 0.05241879
v -0.01667259 -0.02884052 0.05300061
v -0.01744748 -0.02837803 0.05370102
v -0.02016129 -0.02749393 0.05370102
v -0.01013823 -0.02951679 0.05370102
v -0.01156336 -0.02976209 0.05227649
v -0.01010117 -0.03014537 0.04789066
v -0.00863898 -0.03017177 0.04789066
v -0.00717680 -0.03016496 0.04789066
v -0.00689042 -0.03016155 0.04789066
v -0.01156336 -0.02996225 0.05081403
v -0.01156336 -0.03006190 0.04935313
v -0.01156336 -0.03008490 0.04789066
v -0.00689042 -0.02992477 0.04350483
v -0.00717680 -0.02992733 0.04350483
v -0.00863898 -0.02991455 0.04350483
v -0.01010117 -0.02988559 0.04350483
v -0.01156336 -0.02982853 0.04350483
v -0.01156336 -0.02966585 0.04204394
v -0.01156336 -0.02947761 0.04058147
v -0.01302386 -0.02938052 0.04058147
v -0.01302386 -0.02916417 0.03911900
v -0.01167622 -0.02899894 0.03754902
v -0.01887261 -0.02780566 0.03754902
v -0.01740874 -0.02821875 0.03765653
v -0.01740874 -0.02846916 0.03911900
v -0.02179530 -0.02775626 0.04496730
v -0.02259883 -0.02741302 0.04496730
v -0.02266285 -0.02744112 0.04642819
v -0.02339394 -0.02710043 0.04642819
v -0.02409977 -0.02669671 0.04496730
v -0.02033312 -0.02832096 0.04496730
v -0.01916235 -0.02870850 0.04496730
v -0.01737505 -0.02869828 0.04052930
v -0.01789726 -0.02878345 0.04204394
v -0.01811793 -0.02883626 0.04283131
v -0.01827460 -0.02888055 0.04380681
v -0.01843126 -0.02892910 0.04496730
v -0.02409977 -0.02670097 0.04849621
v -0.02314800 -0.02710724 0.04942428
v -0.02258704 -0.02740705 0.04898475
v -0.02192838 -0.02764894 0.04942428
v -0.02033312 -0.02827071 0.04935313
v -0.01912193 -0.02868635 0.04935313
v -0.01824596 -0.02887544 0.05031441
v -0.01747612 -0.02901683 0.05080612
v -0.01703309 -0.02894272 0.05202669
v -0.01741043 -0.02838910 0.05370102
v -0.01608974 -0.02909093 0.05241879
v -0.01569724 -0.02895295 0.05334054
v -0.01600888 -0.02876046 0.05370102
v -0.01615712 -0.02872553 0.05370102
v -0.01156336 -0.02944184 0.05370102
v -0.01302386 -0.02963348 0.05227649
v -0.01302386 -0.02984300 0.05081403
v -0.01156336 -0.03004998 0.04642819
v -0.01010117 -0.03010619 0.04642819
v -0.00863898 -0.03012919 0.04642819
v -0.00717680 -0.03013345 0.04642819
v -0.00689042 -0.03013089 0.04642819
v -0.01302386 -0.02995373 0.04935313
v -0.01302386 -0.02998610 0.04789066
v -0.00689042 -0.03004742 0.04496730
v -0.00717680 -0.03004998 0.04496730
v -0.00863898 -0.03003890 0.04496730
v -0.01010117 -0.03001420 0.04496730
v -0.01156336 -0.02996140 0.04496730
v -0.01302386 -0.02985834 0.04496730
v -0.01302386 -0.02972376 0.04350483
v -0.01302386 -0.02956023 0.04204394
v -0.01448605 -0.02940862 0.04204394
v -0.01448605 -0.02922465 0.04058147
v -0.01456522 -0.02898531 0.03902730
v -0.01413061 -0.02888992 0.03809448
v -0.01297838 -0.02890695 0.03754902
v -0.01285541 -0.02891632 0.03754902
v -0.01752160 -0.02816765 0.03754902
v -0.01740874 -0.02819746 0.03754902
v -0.01594655 -0.02850664 0.03754902
v -0.01594655 -0.02852708 0.03765653
v -0.01655804 -0.02882008 0.04000755
v -0.02179530 -0.02780737 0.04642819
v -0.02033312 -0.02837462 0.04642819
v -0.02179530 -0.02779118 0.04789066
v -0.02264431 -0.02743260 0.04789066
v -0.02337541 -0.02709532 0.04789066
v -0.02409977 -0.02674015 0.04789066
v -0.02409977 -0.02675292 0.04642819
v -0.02409977 -0.02672396 0.04565032
v -0.01927185 -0.02874001 0.04642819
v -0.01854076 -0.02896231 0.04642819
v -0.01686463 -0.02888651 0.04098148
v -0.01716617 -0.02895380 0.04204394
v -0.01754182 -0.02901683 0.04339416
v -0.01740874 -0.02917951 0.04496730
v -0.01740874 -0.02925190 0.04642819
v -0.02033312 -0.02836099 0.04789066
v -0.01925500 -0.02873320 0.04789066
v -0.01839083 -0.02892058 0.04935313
v -0.01740874 -0.02918462 0.04935313
v -0.01594655 -0.02938222 0.05081403
v -0.01448605 -0.02943673 0.05227649
v -0.01447257 -0.02907389 0.05370102
v -0.01472189 -0.02903045 0.05370102
v -0.01542266 -0.02889247 0.05370102
v -0.01160042 -0.02943843 0.05370102
v -0.01302386 -0.02929279 0.05370102
v -0.01306261 -0.02928768 0.05370102
v -0.01448605 -0.02965307 0.05081403
v -0.01448605 -0.02977572 0.04935313
v -0.01302386 -0.02995118 0.04642819
v -0.01448605 -0.02982086 0.04789066
v -0.01448605 -0.02978935 0.04642819
v -0.01448605 -0.02969991 0.04496730
v -0.01448605 -0.02957130 0.04350483
v -0.01594655 -0.02919143 0.04204394
v -0.01602067 -0.02898276 0.04052930
v -0.01558269 -0.02890525 0.03945260
v -0.01510428 -0.02882689 0.03847868
v -0.01456522 -0.02875023 0.03762807
v -0.01456017 -0.02873660 0.03754902
v -0.01437655 -0.02875960 0.03754902
v -0.01602067 -0.02875620 0.03902730
v -0.01852391 -0.02895806 0.04789066
v -0.01740874 -0.02925446 0.04789066
v -0.01594655 -0.02935156 0.04350483
v -0.01594655 -0.02947335 0.04496730
v -0.01594655 -0.02955342 0.04642819
v -0.01594655 -0.02957556 0.04789066
v -0.01594655 -0.02951849 0.04935313
f 1 2 6
f 1 6 13
f 1 13 24
f 1 24 40
f 1 40 65
f 1 65 109
f 1 109 150
f 1 150 203
f 1 203 202
f 1 202 249
f 1 249 248
f 1 248 206
f 1 206 205
f 1 205 204
f 1 204 151
f 1 151 110
f 1 110 69
f 1 69 68
f 1 68 67
f 1 67 66
f 1 66 41
f 1 41 25
f 1 25 15
f 1 15 14
f 1 14 7
f 1 7 3
f 1 3 4
f 1 4 10
f 1 10 18
f 1 18 17
f 1 17 28
f 1 28 46
f 1 46 45
f 1 45 75
f 1 75 74
f 1 74 116
f 1 116 158
f 1 158 216
f 1 216 215
f 1 215 214
f 1 214 166
f 1 166 121
f 1 121 79
f 1 79 50
f 1 50 31
f 1 31 20
f 1 20 11
f 1 11 5
f 1 5 2
f 2 5 6
f 3 7 4
f 4 7 8
f 4 8 9
f 4 9 10
f 5 11 21
f 5 21 32
f 5 32 53
f 5 53 92
f 5 92 124
f 5 124 83
f 5 83 91
f 5 91 131
f 5 131 89
f 5 89 88
f 5 88 130
f 5 130 175
f 5 175 179
f 5 179 178
f 5 178 232
f 5 232 231
f 5 231 230
f 5 230 235
f 5 235 234
f 5 234 233
f 5 233 180
f 5 180 132
f 5 132 93
f 5 93 54
f 5 54 33
f 5 33 22
f 5 22 12
f 5 12 6
f 6 12 22
f 6 22 35
f 6 35 57
f 6 57 56
f 6 56 97
f 6 97 96
f 6 96 137
f 6 137 187
f 6 187 190
f 6 190 141
f 6 141 101
f 6 101 60
f 6 60 36
f 6 36 23
f 6 23 13
f 7 14 8
f 8 14 15
f 8 15 16
f 8 16 9
f 9 17 18
f 9 18 10
f 9 16 19
f 9 19 17
f 11 20 21
f 13 23 24
f 15 25 26
f 15 26 16
f 16 26 19
f 17 19 27
f 17 27 28
f 19 26 29
f 19 29 30
f 19 30 27
f 20 31 21
f 21 31 32
f 22 33 34
f 22 34 35
f 23 36 37
f 23 37 38
f 23 38 24
f 24 38 39
f 24 39 40
f 25 41 26
f 26 41 42
f 26 42 43
f 26 43 29
f 27 44 45
f 27 45 46
f 27 46 28
f 27 30 47
f 27 47 44
f 29 43 48
f 29 48 30
f 30 48 49
f 30 49 47
f 31 50 51
f 31 51 52
f 31 52 32
f 32 52 53
f 33 54 34
f 34 55 56
f 34 56 57
f 34 57 35
f 34 54 58
f 34 58 59
f 34 59 55
f 36 60 61
f 36 61 37
f 37 61 62
f 37 62 63
f 37 63 38
f 38 63 39
f 39 63 64
f 39 64 65
f 39 65 40
f 41 66 42
f 42 66 67
f 42 67 68
f 42 68 69
f 42 69 70
f 42 70 43
f 43 70 71
f 43 71 48
f 44 47 72
f 44 72 73
f 44 73 74
f 44 74 75
f 44 75 45
f 47 49 76
f 47 76 72
f 48 71 77
f 48 77 49
f 49 77 78
f 49 78 76
f 50 79 80
f 50 80 51
f 51 80 81
f 51 81 82
f 51 82 52
f 52 83 84
f 52 84 53
f 52 82 85
f 52 85 86
f 52 86 87
f 52 87 88
f 52 88 89
f 52 89 90
f 52 90 91
f 52 91 83
f 53 84 92
f 54 93 58
f 55 59 94
f 55 94 95
f 55 95 96
f 55 96 97
f 55 97 56
f 58 93 98
f 58 98 59
f 59 98 99
f 59 99 100
f 59 100 94
f 60 101 102
f 60 102 61
f 61 102 103
f 61 103 62
f 62 104 105
f 62 105 63
f 62 103 104
f 63 105 106
f 63 106 64
f 64 107 108
f 64 108 109
f 64 109 65
f 64 106 107
f 69 110 70
f 70 110 111
f 70 111 112
f 70 112 71
f 71 112 77
f 72 76 113
f 72 113 114
f 72 114 73
f 73 115 74
f 73 114 115
f 74 115 116
f 76 78 117
f 76 117 113
f 77 112 118
f 77 118 119
f 77 119 78
f 78 119 120
f 78 120 117
f 79 121 122
f 79 122 80
f 80 122 81
f 81 122 123
f 81 123 85
f 81 85 82
f 83 124 84
f 84 124 92
f 85 123 125
f 85 125 86
f 86 125 87
f 87 126 127
f 87 127 128
f 87 128 129
f 87 129 88
f 87 125 126
f 88 129 130
f 89 131 90
f 90 131 91
f 93 132 133
f 93 133 98
f 94 100 134
f 94 134 135
f 94 135 136
f 94 136 95
f 95 136 137
f 95 137 96
f 98 133 138
f 98 138 99
f 99 138 139
f 99 139 100
f 100 139 140
f 100 140 134
f 101 141 142
f 101 142 102
f 102 142 103
f 103 142 143
f 103 143 144
f 103 144 104
f 104 144 145
f 104 145 146
f 104 146 147
f 104 147 105
f 105 147 106
f 106 147 107
f 107 147 148
f 107 148 149
f 107 149 108
f 108 150 109
f 108 149 150
f 110 151 111
f 111 151 152
f 111 152 112
f 112 152 153
f 112 153 118
f 113 154 114
f 113 117 154
f 114 154 155
f 114 155 115
f 115 155 156
f 115 156 157
f 115 157 158
f 115 158 116
f 117 159 154
f 117 120 160
f 117 160 159
f 118 153 161
f 118 161 162
f 118 162 163
f 118 163 119
f 119 163 120
f 120 163 164
f 120 164 165
f 120 165 160
f 121 166 167
f 121 167 122
f 122 168 169
f 122 169 170
f 122 170 125
f 122 125 123
f 122 167 168
f 125 170 171
f 125 171 172
f 125 172 126
f 126 172 127
f 127 172 173
f 127 173 174
f 127 174 128
f 128 174 129
f 129 175 130
f 129 174 176
f 129 176 177
f 129 177 178
f 129 178 179
f 129 179 175
f 132 180 133
f 133 180 181
f 133 181 182
f 133 182 138
f 134 140 183
f 134 183 184
f 134 184 135
f 135 184 185
f 135 185 186
f 135 186 136
f 136 186 187
f 136 187 137
f 138 182 188
f 138 188 139
f 139 188 189
f 139 189 140
f 140 189 238
f 140 238 183
f 141 190 191
f 141 191 142
f 142 191 192
f 142 192 143
f 143 192 193
f 143 193 144
f 144 193 194
f 144 194 145
f 145 194 195
f 145 195 196
f 145 196 146
f 146 196 197
f 146 197 148
f 146 148 147
f 148 197 198
f 148 198 199
f 148 199 149
f 149 199 200
f 149 200 201
f 149 201 202
f 149 202 203
f 149 203 150
f 151 204 152
f 152 205 206
f 152 206 207
f 152 207 208
f 152 208 153
f 152 204 205
f 153 208 161
f 154 209 156
f 154 156 155
f 154 159 210
f 154 210 209
f 156 209 211
f 156 211 212
f 156 212 213
f 156 213 157
f 157 213 214
f 157 214 215
f 157 215 216
f 157 216 158
f 159 160 217
f 159 217 210
f 160 165 218
f 160 218 217
f 161 208 219
f 161 219 162
f 162 219 163
f 163 219 220
f 163 220 221
f 163 221 222
f 163 222 164
f 164 222 165
f 165 222 223
f 165 223 218
f 166 214 213
f 166 213 167
f 167 213 168
f 168 212 211
f 168 211 169
f 168 213 212
f 169 211 224
f 169 224 170
f 170 224 225
f 170 225 171
f 171 225 226
f 171 226 172
f 172 226 227
f 172 227 173
f 173 227 228
f 173 228 174
f 174 228 176
f 176 228 229
f 176 229 177
f 177 229 230
f 177 230 231
f 177 231 232
f 177 232 178
f 180 233 181
f 181 233 234
f 181 234 235
f 181 235 229
f 181 229 236
f 181 236 182
f 182 236 237
f 182 237 188
f 183 238 194
f 183 194 184
f 184 194 193
f 184 193 192
f 184 192 185
f 185 192 191
f 185 191 186
f 186 191 190
f 186 190 187
f 188 237 239
f 188 239 189
f 189 239 240
f 189 240 238
f 194 238 195
f 195 238 241
f 195 241 242
f 195 242 196
f 196 242 198
f 196 198 197
f 198 242 243
f 198 243 199
f 199 243 244
f 199 244 245
f 199 245 200
f 200 245 246
f 200 246 201
f 201 246 247
f 201 247 248
f 201 248 249
f 201 249 202
f 206 248 246
f 206 246 207
f 207 246 250
f 207 250 208
f 208 250 245
f 208 245 244
f 208 244 243
f 208 243 219
f 209 210 224
f 209 224 211
f 210 217 225
f 210 225 224
f 217 218 251
f 217 251 225
f 218 223 252
f 218 252 251
f 219 243 220
f 220 243 253
f 220 253 221
f 221 253 222
f 222 253 254
f 222 254 255
f 222 255 223
f 223 255 256
f 223 256 252
f 225 251 226
f 226 251 227
f 227 251 252
f 227 252 257
f 227 257 228
f 228 257 236
f 228 236 229
f 229 235 230
f 236 257 237
f 237 257 256
f 237 256 239
f 238 240 241
f 239 256 255
f 239 255 240
f 240 255 254
f 240 254 241
f 241 254 253
f 241 253 242
f 242 253 243
f 245 250 246
f 246 248 247
f 252 256 257

