# https://github.com/mikedh/trimesh
v -0.03471674 -0.00316561 0.05670182
v -0.03404595 -0.00316561 0.06689745
v -0.03471080 -0.00310653 0.05670182
v -0.03071577 -0.00316561 0.05670182
v -0.03457872 -0.00179270 0.05670182
v -0.03401924 -0.00316561 0.06698710
v -0.03388122 -0.00179270 0.06689745
v -0.02485530 0.00995472 0.05670182
v -0.01974872 0.00995472 0.06255738
v -0.02850158 -0.00316561 0.06056805
v -0.03457278 -0.00175289 0.05670182
v -0.03355474 -0.00316561 0.06835885
v -0.03343156 -0.00179270 0.06835885
v -0.03362003 -0.00033118 0.06689745
v -0.03437096 -0.00047245 0.05670182
v -0.03322082 -0.00033118 0.06835885
v -0.02989213 0.00995472 0.05670182
v -0.01965819 0.00995472 0.06317210
v -0.02815728 -0.00316561 0.06129946
v -0.03352357 -0.00316561 0.06841435
v -0.03291363 -0.00179270 0.06925391
v -0.03282459 -0.00033118 0.06916568
v -0.03276671 0.00042913 0.06909880
v -0.03401330 0.00117530 0.05670182
v -0.03403705 0.00107512 0.05670182
v -0.03435760 -0.00040695 0.05670182
v -0.03294034 0.00100192 0.06835032
v -0.03283943 0.00210769 0.06785797
v -0.03326683 0.00113163 0.06689745
v -0.03014738 0.00960796 0.05670182
v -0.02977785 0.00908525 0.06689745
v -0.02912933 0.00995472 0.06696149
v -0.01955876 0.00995472 0.06396612
v -0.02802520 -0.00316561 0.06251326
v -0.03296112 -0.00316561 0.06928379
v -0.03203063 -0.00179270 0.06985014
v -0.03203063 -0.00033118 0.06977472
v -0.03211225 0.00100192 0.06955985
v -0.03175905 0.00259316 0.06958262
v -0.03152160 0.00405468 0.06937201
v -0.03265392 0.00140390 0.06883271
v -0.03361261 0.00259444 0.05670182
v -0.03291363 0.00231703 0.06689745
v -0.03249661 0.00259444 0.06835032
v -0.03200391 0.00405468 0.06835885
v -0.03132719 0.00630219 0.06771851
v -0.03230666 0.00405468 0.06689745
v -0.03266877 0.00304908 0.06689745
v -0.03093244 0.00840201 0.05670182
v -0.03023345 0.00835449 0.06689745
v -0.02967842 0.00891572 0.06835885
v -0.02894976 0.00995472 0.06832755
v -0.01955579 0.00995472 0.06985155
v -0.02810386 -0.00316561 0.06835885
v -0.03290621 -0.00316561 0.06932079
v -0.03203063 -0.00316561 0.06984159
v -0.03080332 0.00113163 0.07040225
v -0.03083152 0.00259316 0.07031403
v -0.02989213 0.00498836 0.07058582
v -0.03073061 0.00405468 0.07010201
v -0.02973185 0.00596314 0.07048763
v -0.03136281 0.00494341 0.06917849
v -0.03360074 0.00263169 0.05670182
v -0.03149489 0.00546483 0.06826636
v -0.03171007 0.00705607 0.05670324
v -0.03249365 0.00550593 0.05670182
v -0.03307687 0.00412788 0.05670182
v -0.03171749 0.00551620 0.06689745
v -0.03116246 0.00591819 0.06869326
v -0.03085972 0.00686599 0.06826636
v -0.03012215 0.00818496 0.06835885
v -0.03096508 0.00707148 0.06689745
v -0.03308578 0.00410605 0.05670182
v -0.03316888 0.00386846 0.05670182
v -0.03171007 0.00705607 0.05670182
v -0.02854759 0.00995472 0.06926102
v -0.02893640 0.00995472 0.06841578
v -0.02994555 0.00790242 0.06924679
v -0.01989415 0.00995472 0.07026564
v -0.02823000 -0.00316561 0.06927241
v -0.02821665 -0.00316561 0.06920695
v -0.03194010 -0.00316561 0.06987148
v -0.03049613 -0.00031576 0.07043640
v -0.03007318 0.00113163 0.07061712
v -0.03009989 0.00259316 0.07064985
v -0.02999897 0.00405468 0.07062992
v -0.02918869 0.00549180 0.07075942
v -0.02876277 0.00697773 0.07072812
v -0.02851048 0.00793324 0.07063277
v -0.02949292 0.00697773 0.07025568
v -0.03018151 0.00697773 0.06952427
v -0.02868115 0.00959255 0.06944744
v -0.02796139 0.00995472 0.06985440
v -0.02908332 0.00840586 0.06983448
v -0.02050558 0.00995472 0.07071388
v -0.02904326 -0.00316561 0.06979606
v -0.03056885 -0.00316561 0.07021157
v -0.03056885 -0.00179270 0.07033253
v -0.02996187 0.00018126 0.07057728
v -0.02764381 0.00551620 0.07103548
v -0.02910559 0.00405468 0.07082772
v -0.02764381 0.00697773 0.07105255
v -0.02768239 0.00842898 0.07082914
v -0.02721937 0.00953347 0.07070392
v -0.02819438 0.00890802 0.07042217
v -0.02780557 0.00995472 0.07000239
v -0.02105912 0.00995472 0.07085333
v -0.03047832 -0.00316561 0.07019592
v -0.02910559 -0.00316561 0.06983590
v -0.02150433 0.00995472 0.07095009
v -0.02325847 0.00990206 0.07123754
v -0.02472173 0.00844054 0.07120623
v -0.02969623 0.00018126 0.07057728
v -0.02618351 0.00697773 0.07114504
v -0.02618351 0.00844054 0.07120339
v -0.02625326 0.00995472 0.07089745
v -0.02629630 0.00995472 0.07088464
v -0.02703387 0.00995472 0.07060716
v -0.02320801 0.00995472 0.07123754
v -0.02472173 0.00990206 0.07123043
v -0.02472173 0.00995472 0.07121762
v -0.02466979 0.00995472 0.07122758
f 1 2 3
f 1 3 5
f 1 5 11
f 1 11 15
f 1 15 26
f 1 26 25
f 1 25 24
f 1 24 42
f 1 42 63
f 1 63 74
f 1 74 73
f 1 73 67
f 1 67 66
f 1 66 75
f 1 75 49
f 1 49 30
f 1 30 17
f 1 17 8
f 1 8 4
f 1 4 10
f 1 10 19
f 1 19 34
f 1 34 54
f 1 54 81
f 1 81 80
f 1 80 96
f 1 96 109
f 1 109 108
f 1 108 97
f 1 97 82
f 1 82 56
f 1 56 55
f 1 55 35
f 1 35 20
f 1 20 12
f 1 12 6
f 1 6 2
f 2 5 3
f 2 6 7
f 2 7 5
f 4 8 9
f 4 9 10
f 5 7 11
f 6 12 13
f 6 13 7
f 7 14 15
f 7 15 11
f 7 13 16
f 7 16 14
f 8 17 32
f 8 32 52
f 8 52 77
f 8 77 76
f 8 76 93
f 8 93 106
f 8 106 118
f 8 118 117
f 8 117 116
f 8 116 121
f 8 121 122
f 8 122 119
f 8 119 110
f 8 110 107
f 8 107 95
f 8 95 79
f 8 79 53
f 8 53 33
f 8 33 18
f 8 18 9
f 9 18 19
f 9 19 10
f 12 20 13
f 13 21 22
f 13 22 23
f 13 23 16
f 13 20 21
f 14 24 25
f 14 25 26
f 14 26 15
f 14 16 27
f 14 27 28
f 14 28 29
f 14 29 24
f 16 23 27
f 17 30 31
f 17 31 32
f 18 33 19
f 19 33 34
f 20 35 21
f 21 35 36
f 21 36 37
f 21 37 22
f 22 37 38
f 22 38 23
f 23 38 39
f 23 39 40
f 23 40 41
f 23 41 27
f 24 29 42
f 27 41 28
f 28 43 29
f 28 41 44
f 28 44 45
f 28 45 46
f 28 46 47
f 28 47 48
f 28 48 43
f 29 43 42
f 30 49 31
f 31 49 50
f 31 50 51
f 31 51 52
f 31 52 32
f 33 53 34
f 34 53 54
f 35 55 36
f 36 55 56
f 36 56 57
f 36 57 58
f 36 58 37
f 37 58 38
f 38 58 39
f 39 58 59
f 39 59 60
f 39 60 61
f 39 61 40
f 40 62 41
f 40 61 62
f 41 62 44
f 42 43 63
f 43 48 63
f 44 62 45
f 45 62 64
f 45 64 46
f 46 65 66
f 46 66 67
f 46 67 68
f 46 68 47
f 46 64 69
f 46 69 70
f 46 70 71
f 46 71 50
f 46 50 72
f 46 72 65
f 47 68 73
f 47 73 48
f 48 73 74
f 48 74 63
f 49 75 65
f 49 65 50
f 50 65 72
f 50 71 51
f 51 76 77
f 51 77 52
f 51 71 78
f 51 78 76
f 53 79 80
f 53 80 81
f 53 81 54
f 56 82 57
f 57 82 83
f 57 83 84
f 57 84 85
f 57 85 86
f 57 86 58
f 58 86 59
f 59 61 60
f 59 86 87
f 59 87 88
f 59 88 61
f 61 88 89
f 61 89 90
f 61 90 91
f 61 91 62
f 62 69 64
f 62 91 78
f 62 78 69
f 65 75 66
f 67 73 68
f 69 78 70
f 70 78 71
f 76 78 92
f 76 92 93
f 78 91 90
f 78 90 94
f 78 94 92
f 79 95 80
f 80 95 96
f 82 97 98
f 82 98 83
f 83 98 84
f 84 99 100
f 84 100 101
f 84 101 85
f 84 98 99
f 85 101 86
f 86 101 102
f 86 102 87
f 87 102 88
f 88 102 103
f 88 103 89
f 89 103 104
f 89 104 105
f 89 105 90
f 90 105 94
f 92 94 105
f 92 105 106
f 92 106 93
f 95 107 108
f 95 108 109
f 95 109 96
f 97 108 110
f 97 110 111
f 97 111 112
f 97 112 113
f 97 113 99
f 97 99 98
f 99 113 100
f 100 114 115
f 100 115 102
f 100 102 101
f 100 113 114
f 102 115 103
f 103 115 116
f 103 116 117
f 103 117 104
f 104 117 118
f 104 118 105
f 105 118 106
f 107 110 108
f 110 119 111
f 111 119 120
f 111 120 115
f 111 115 112
f 112 115 114
f 112 114 113
f 115 120 116
f 116 120 121
f 119 122 120
f 120 122 121

