# https://github.com/mikedh/trimesh
v 0.02391006 0.01185309 -0.04719901
v 0.02385224 0.01185309 -0.04764059
v 0.02142686 0.01966814 -0.04764059
v 0.02389287 0.01185309 -0.04567886
v 0.01986099 0.01185309 -0.04764059
v 0.02337248 0.01282744 -0.04421733
v 0.02357563 0.01282744 -0.04567886
v 0.02115025 0.02035106 -0.04764059
v 0.02090177 0.01867640 -0.04275579
v 0.02368815 0.01185309 -0.04421733
v 0.00794505 0.02298410 -0.04764059
v 0.00794505 0.01185309 -0.01975035
v 0.02285521 0.01370029 -0.04321692
v 0.02305055 0.01289558 -0.04274016
v 0.02043920 0.02148489 -0.04764059
v 0.02024542 0.01998278 -0.04275579
v 0.02007664 0.01970584 -0.04129427
v 0.02060798 0.01867640 -0.04129427
v 0.02337873 0.01185309 -0.04275189
v 0.00794505 0.02666399 -0.04764059
v 0.00794505 0.01185309 -0.00771812
v 0.02274894 0.01342770 -0.04223996
v 0.02292084 0.01245191 -0.04160689
v 0.01977972 0.02225045 -0.04764059
v 0.01986099 0.02085418 -0.04352955
v 0.01974378 0.02071499 -0.04275579
v 0.01994538 0.01950865 -0.04034466
v 0.02020323 0.01872715 -0.03984836
v 0.02079238 0.01721488 -0.03983273
v 0.02301304 0.01185309 -0.04135679
v 0.00794505 0.02666109 -0.04762887
v 0.00890770 0.02651755 -0.04764059
v 0.01260047 0.01185309 -0.01728842
v 0.01255046 0.01193284 -0.01719854
v 0.01400694 0.01636233 -0.02159485
v 0.01273486 0.01674221 -0.01984805
v 0.01225041 0.01771656 -0.02039515
v 0.00999849 0.01677266 -0.01681948
v 0.00852170 0.01671466 -0.01535404
v 0.00802475 0.01635073 -0.01438099
v 0.00794505 0.01627099 -0.01420904
v 0.02277551 0.01200823 -0.04063384
v 0.02285990 0.01185309 -0.04079015
v 0.01949061 0.02249838 -0.04764059
v 0.01841857 0.02087593 -0.03907852
v 0.01951562 0.02043660 -0.04129427
v 0.01977972 0.01924912 -0.03937161
v 0.01878425 0.02015822 -0.03850407
v 0.01860923 0.01965800 -0.03690967
v 0.01845451 0.01946226 -0.03605776
v 0.02000319 0.01819358 -0.03837120
v 0.01987349 0.01794709 -0.03763653
v 0.02034856 0.01721488 -0.03837120
v 0.00794505 0.01690605 -0.01535404
v 0.01127526 0.01801379 -0.01991449
v 0.00942966 0.02642765 -0.04764059
v 0.01361938 0.01185309 -0.01944554
v 0.01346154 0.01282744 -0.01936739
v 0.01529933 0.01735118 -0.02514708
v 0.01548061 0.01792970 -0.02595991
v 0.01423823 0.01693070 -0.02257181
v 0.01399131 0.01790650 -0.02306420
v 0.01407570 0.01538799 -0.02145026
v 0.01433512 0.01582587 -0.02216540
v 0.01503835 0.01575192 -0.02375198
v 0.01561813 0.01695390 -0.02558867
v 0.01269111 0.01802974 -0.02137211
v 0.00794505 0.01679586 -0.01510394
v 0.00794505 0.01642758 -0.01445914
v 0.02272706 0.01185309 -0.04040328
v 0.01998913 0.01721488 -0.03733562
v 0.01902492 0.02287536 -0.04764059
v 0.01798256 0.02359742 -0.04764059
v 0.01770752 0.02374821 -0.04764059
v 0.01729652 0.02397295 -0.04764059
v 0.01626354 0.02447752 -0.04764059
v 0.01563688 0.01949415 -0.02999670
v 0.01708555 0.01952750 -0.03292368
v 0.01960313 0.01892434 -0.03837120
v 0.01568377 0.01818778 -0.02693296
v 0.01701054 0.01806019 -0.03013348
v 0.01425229 0.02534312 -0.04762887
v 0.01326776 0.02562295 -0.04764059
v 0.01232855 0.02584769 -0.04764059
v 0.01183316 0.02596078 -0.04764059
v 0.01086582 0.02616087 -0.04764059
v 0.01040012 0.02625512 -0.04764059
v 0.01427573 0.01185309 -0.02086409
v 0.01391474 0.01282744 -0.02034825
v 0.01425541 0.01814573 -0.02404116
v 0.01491802 0.01185309 -0.02229045
v 0.02144717 0.01185309 -0.03727310
v 0.02190506 0.01185309 -0.03836339
v 0.02210353 0.01185309 -0.03885577
v 0.01525557 0.01935206 -0.02902365
v 0.01523369 0.02494004 -0.04764059
v 0.01498522 0.02504878 -0.04764059
v 0.01425698 0.02534457 -0.04764059
f 1 2 3
f 1 3 4
f 1 4 10
f 1 10 19
f 1 19 30
f 1 30 43
f 1 43 70
f 1 70 94
f 1 94 93
f 1 93 92
f 1 92 91
f 1 91 88
f 1 88 57
f 1 57 33
f 1 33 21
f 1 21 12
f 1 12 5
f 1 5 2
f 2 5 11
f 2 11 20
f 2 20 32
f 2 32 56
f 2 56 87
f 2 87 86
f 2 86 85
f 2 85 84
f 2 84 83
f 2 83 98
f 2 98 97
f 2 97 96
f 2 96 76
f 2 76 75
f 2 75 74
f 2 74 73
f 2 73 72
f 2 72 44
f 2 44 24
f 2 24 15
f 2 15 8
f 2 8 3
f 3 6 7
f 3 7 4
f 3 8 9
f 3 9 6
f 4 7 6
f 4 6 10
f 5 12 11
f 6 9 13
f 6 13 14
f 6 14 10
f 8 15 16
f 8 16 17
f 8 17 18
f 8 18 9
f 9 18 13
f 10 14 19
f 11 12 21
f 11 21 41
f 11 41 69
f 11 69 68
f 11 68 54
f 11 54 31
f 11 31 20
f 13 18 22
f 13 22 14
f 14 22 23
f 14 23 19
f 15 24 25
f 15 25 17
f 15 17 16
f 17 25 26
f 17 26 27
f 17 27 18
f 18 27 28
f 18 28 29
f 18 29 22
f 19 23 30
f 20 31 32
f 21 33 34
f 21 34 35
f 21 35 36
f 21 36 37
f 21 37 38
f 21 38 39
f 21 39 40
f 21 40 41
f 22 29 23
f 23 29 42
f 23 42 43
f 23 43 30
f 24 44 45
f 24 45 25
f 25 45 26
f 26 45 46
f 26 46 27
f 27 47 28
f 27 46 45
f 27 45 48
f 27 48 49
f 27 49 50
f 27 50 47
f 28 47 51
f 28 51 29
f 29 51 52
f 29 52 53
f 29 53 42
f 31 54 55
f 31 55 32
f 32 55 56
f 33 57 34
f 34 58 35
f 34 57 58
f 35 59 60
f 35 60 61
f 35 61 62
f 35 62 36
f 35 58 63
f 35 63 64
f 35 64 65
f 35 65 66
f 35 66 59
f 36 62 67
f 36 67 37
f 37 67 55
f 37 55 38
f 38 55 39
f 39 68 69
f 39 69 40
f 39 55 68
f 40 69 41
f 42 70 43
f 42 53 52
f 42 52 71
f 42 71 60
f 42 60 66
f 42 66 70
f 44 72 45
f 45 50 49
f 45 49 48
f 45 72 73
f 45 73 74
f 45 74 75
f 45 75 76
f 45 76 77
f 45 77 78
f 45 78 50
f 47 50 79
f 47 79 51
f 50 52 79
f 50 78 80
f 50 80 60
f 50 60 81
f 50 81 52
f 51 79 52
f 52 81 60
f 52 60 71
f 54 68 55
f 55 67 82
f 55 82 83
f 55 83 84
f 55 84 85
f 55 85 86
f 55 86 87
f 55 87 56
f 57 88 58
f 58 88 89
f 58 89 63
f 59 66 60
f 60 80 90
f 60 90 62
f 60 62 61
f 62 90 67
f 63 89 88
f 63 88 91
f 63 91 64
f 64 91 65
f 65 91 92
f 65 92 66
f 66 92 93
f 66 93 94
f 66 94 70
f 67 90 77
f 67 77 95
f 67 95 82
f 76 96 77
f 77 90 80
f 77 80 78
f 77 96 97
f 77 97 82
f 77 82 95
f 82 97 98
f 82 98 83

