# https://github.com/mikedh/trimesh
v 0.01458455 0.00275516 -0.07499808
v 0.01458455 0.00275516 -0.07057084
v 0.01458455 0.00276602 -0.07499740
v 0.01459402 0.00275516 -0.07499877
v 0.02227562 0.00275516 -0.06836166
v 0.01458455 0.02385982 -0.06836166
v 0.01914305 0.00275516 -0.07528790
v 0.01458455 0.02159967 -0.07310197
v 0.02641132 0.00275516 -0.06836166
v 0.01458455 0.03050715 -0.06836166
v 0.02060452 0.00551786 -0.07507464
v 0.02060452 0.00405637 -0.07521886
v 0.02060452 0.00275516 -0.07534395
v 0.01964995 0.01372447 -0.07420929
v 0.02060452 0.01394723 -0.07423184
v 0.02060452 0.01282802 -0.07434394
v 0.01458455 0.02306116 -0.07294612
v 0.01621893 0.02306116 -0.07304044
v 0.01914305 0.02013547 -0.07351892
v 0.01914305 0.01867398 -0.07366998
v 0.02644211 0.00275516 -0.06907595
v 0.02644566 0.00334193 -0.06836166
v 0.01619880 0.03024093 -0.06836166
v 0.01475628 0.03018931 -0.06907595
v 0.01458455 0.03027624 -0.06892694
v 0.02158397 0.01391192 -0.07422843
v 0.02206599 0.00844356 -0.07470143
v 0.02206599 0.00697935 -0.07483403
v 0.02206599 0.00551786 -0.07495912
v 0.02206599 0.00405637 -0.07507942
v 0.02206599 0.00275516 -0.07517717
v 0.02060452 0.01467797 -0.07415802
v 0.02060452 0.01575372 -0.07404729
v 0.01458455 0.02317525 -0.07293244
v 0.01914305 0.02159967 -0.07335692
v 0.01458455 0.02437324 -0.07278617
v 0.01475628 0.02505237 -0.07270551
v 0.01768040 0.02306116 -0.07311358
v 0.02060452 0.01867398 -0.07373287
v 0.02060452 0.01721249 -0.07389349
v 0.02632368 0.00275516 -0.07053803
v 0.02651554 0.00405637 -0.06907595
v 0.02648593 0.00405637 -0.06836166
v 0.01719127 0.03005892 -0.06836166
v 0.01768040 0.02981715 -0.06873897
v 0.01617629 0.02992038 -0.06916002
v 0.01458455 0.03021376 -0.06907595
v 0.01663581 0.02958624 -0.06970343
v 0.01566111 0.02966774 -0.06984492
v 0.02206599 0.01721249 -0.07380190
v 0.02206599 0.01575372 -0.07396663
v 0.02206836 0.01435471 -0.07411291
v 0.02206599 0.01136653 -0.07441845
v 0.02206599 0.00990504 -0.07456335
v 0.02283936 0.01224940 -0.07420860
v 0.02295424 0.01136653 -0.07425440
v 0.02312597 0.00990504 -0.07432549
v 0.02326454 0.00844356 -0.07439042
v 0.02337587 0.00697935 -0.07445262
v 0.02346469 0.00551786 -0.07450867
v 0.02351443 0.00405637 -0.07456062
v 0.02352273 0.00275516 -0.07460095
v 0.01914305 0.02306116 -0.07313341
v 0.02060452 0.02159967 -0.07332753
v 0.02060452 0.02013547 -0.07355104
v 0.01458455 0.02501705 -0.07270141
v 0.01458455 0.02516103 -0.07267339
v 0.01621893 0.02516646 -0.07271508
v 0.01621893 0.02443572 -0.07284427
v 0.01768040 0.02441399 -0.07287572
v 0.02206599 0.01867398 -0.07362077
v 0.02595890 0.00275516 -0.07182786
v 0.02639118 0.00405637 -0.07053803
v 0.02658542 0.00551786 -0.06907595
v 0.02652146 0.00480342 -0.06836166
v 0.01768040 0.02995569 -0.06836166
v 0.01849049 0.02977912 -0.06836166
v 0.01862432 0.02970305 -0.06848675
v 0.01768040 0.02946944 -0.06946967
v 0.01458455 0.02980628 -0.06982852
v 0.01914305 0.02852952 -0.07024001
v 0.01768040 0.02873869 -0.07045874
v 0.01475628 0.02907011 -0.07065970
v 0.01475628 0.02973022 -0.06992832
v 0.01693545 0.02817637 -0.07126667
v 0.02255868 0.01322192 -0.07415733
v 0.02352746 0.01721249 -0.07340682
v 0.02352746 0.01575372 -0.07356609
v 0.02352746 0.01428951 -0.07371509
v 0.02368616 0.01136653 -0.07394066
v 0.02385789 0.00990504 -0.07400286
v 0.02399527 0.00844356 -0.07406028
v 0.02410660 0.00697935 -0.07411017
v 0.02419543 0.00551786 -0.07415597
v 0.02424517 0.00405637 -0.07418468
v 0.02425464 0.00275516 -0.07418946
v 0.01914305 0.02425643 -0.07286409
v 0.02073954 0.02319970 -0.07296457
v 0.02206599 0.02013547 -0.07338494
v 0.01458455 0.02598414 -0.07246354
v 0.01768040 0.02514473 -0.07270278
v 0.01475628 0.02598414 -0.07246696
v 0.01621893 0.02598414 -0.07245260
v 0.02352746 0.01867398 -0.07320791
v 0.02563558 0.00275516 -0.07255787
v 0.02599088 0.00405637 -0.07187160
v 0.02645277 0.00551786 -0.07053803
v 0.02655462 0.00551786 -0.06836166
v 0.02663752 0.00697935 -0.06907595
v 0.02658186 0.00626762 -0.06836166
v 0.01869656 0.02972750 -0.06836166
v 0.01894172 0.02965687 -0.06836166
v 0.01912410 0.02928471 -0.06901443
v 0.02025633 0.02833121 -0.07000077
v 0.01458455 0.02974109 -0.06994267
v 0.01914305 0.02786397 -0.07097139
v 0.01768040 0.02808673 -0.07118943
v 0.01458455 0.02907554 -0.07067337
v 0.01458455 0.02915704 -0.07058793
v 0.01596075 0.02825515 -0.07133024
v 0.01458455 0.02843172 -0.07131862
v 0.01914305 0.02713323 -0.07155649
v 0.01768040 0.02735598 -0.07167474
v 0.02438137 0.01867398 -0.07282445
v 0.02451283 0.01721249 -0.07292698
v 0.02460284 0.01575372 -0.07300148
v 0.02467982 0.01428951 -0.07307394
v 0.02474496 0.01282802 -0.07314366
v 0.02479825 0.01136653 -0.07320996
v 0.02484207 0.00990504 -0.07327216
v 0.02487997 0.00844356 -0.07332958
v 0.02490721 0.00697935 -0.07337947
v 0.02492497 0.00551786 -0.07342459
v 0.02492261 0.00405637 -0.07345330
v 0.02490484 0.00275516 -0.07345808
v 0.02034515 0.02401737 -0.07280463
v 0.01914305 0.02498717 -0.07264263
v 0.02131868 0.02378104 -0.07272807
v 0.02181018 0.02280581 -0.07285862
v 0.02220456 0.02173821 -0.07301310
v 0.02308926 0.02134160 -0.07284769
v 0.02355707 0.02004582 -0.07294544
v 0.01458455 0.02615528 -0.07240202
v 0.01768040 0.02598414 -0.07237674
v 0.01458455 0.02744562 -0.07188664
v 0.01475628 0.02744562 -0.07188254
v 0.02428544 0.01949708 -0.07274994
v 0.02565334 0.00405637 -0.07260229
v 0.02601812 0.00551786 -0.07188732
v 0.02648475 0.00697935 -0.07053803
v 0.02666476 0.00844356 -0.06907595
v 0.02661976 0.00772911 -0.06836166
v 0.02660555 0.00697935 -0.06836166
v 0.01946519 0.02947758 -0.06836166
v 0.02068743 0.02864361 -0.06917711
v 0.02122985 0.02813019 -0.06973214
v 0.02076204 0.02751626 -0.07062210
v 0.02127012 0.02667957 -0.07124275
v 0.02029659 0.02690232 -0.07141090
v 0.01475628 0.02833936 -0.07139040
v 0.01635631 0.02759232 -0.07168090
v 0.01458455 0.02834480 -0.07139450
v 0.01914305 0.02598414 -0.07219902
v 0.02511328 0.01867398 -0.07208965
v 0.02524356 0.01721249 -0.07220790
v 0.02533357 0.01575372 -0.07229129
v 0.02541055 0.01428951 -0.07236033
v 0.02547569 0.01282802 -0.07242253
v 0.02552899 0.01136653 -0.07247517
v 0.02557399 0.00990504 -0.07252233
v 0.02561189 0.00844356 -0.07256538
v 0.02563795 0.00697935 -0.07259820
v 0.02565571 0.00551786 -0.07261870
v 0.02073954 0.02451178 -0.07254419
v 0.02220456 0.02319970 -0.07263101
v 0.02278488 0.02231683 -0.07272738
v 0.02206599 0.02452265 -0.07213681
v 0.02406397 0.02047231 -0.07263648
v 0.01458455 0.02755700 -0.07182922
v 0.02473430 0.02159967 -0.07173558
v 0.02495695 0.01996161 -0.07195909
v 0.02602641 0.00697935 -0.07186682
v 0.02649422 0.00844356 -0.07053803
v 0.02667779 0.00990504 -0.06907595
v 0.02664937 0.00990504 -0.06836166
v 0.02663279 0.00844356 -0.06836166
v 0.01986194 0.02933361 -0.06836166
v 0.02064124 0.02902392 -0.06836166
v 0.02136250 0.02873597 -0.06836166
v 0.02176635 0.02839641 -0.06875743
v 0.02217850 0.02792645 -0.06917711
v 0.02298859 0.02686429 -0.06997275
v 0.02206599 0.02715767 -0.07027760
v 0.02206599 0.02640791 -0.07100830
v 0.02291398 0.02536749 -0.07134528
v 0.02206599 0.02567717 -0.07152846
v 0.02071111 0.02610910 -0.07175403
v 0.02573032 0.01945362 -0.07128239
v 0.02586178 0.01721249 -0.07147789
v 0.02578362 0.01867398 -0.07135896
v 0.02591153 0.01575372 -0.07156128
v 0.02594824 0.01428951 -0.07162963
v 0.02598022 0.01282802 -0.07169252
v 0.02600154 0.01136653 -0.07174446
v 0.02601693 0.00990504 -0.07179163
v 0.02602285 0.00844356 -0.07183469
v 0.02352746 0.02306116 -0.07207461
v 0.02355707 0.02173821 -0.07251686
v 0.02345166 0.02441127 -0.07153188
v 0.02429728 0.02385167 -0.07130358
v 0.02446782 0.02306116 -0.07146627
v 0.02546503 0.02159967 -0.07086476
v 0.02562847 0.02042885 -0.07110605
v 0.02647645 0.01136653 -0.07053803
v 0.02649067 0.00990504 -0.07053803
v 0.02668371 0.01136653 -0.06907595
v 0.02665884 0.01136653 -0.06836166
v 0.02192150 0.02848334 -0.06836166
v 0.02253262 0.02820082 -0.06836166
v 0.02267592 0.02811932 -0.06836166
v 0.02285357 0.02798893 -0.06836166
v 0.02349667 0.02710335 -0.06897411
v 0.02396330 0.02643508 -0.06939311
v 0.02440979 0.02545985 -0.06999326
v 0.02343864 0.02589992 -0.07047036
v 0.02388868 0.02482690 -0.07096797
v 0.02587600 0.02159967 -0.07013338
v 0.02593877 0.02001866 -0.07058656
v 0.02611997 0.01867398 -0.07053803
v 0.02625025 0.01721249 -0.07053803
v 0.02633433 0.01575372 -0.07053803
v 0.02639829 0.01428951 -0.07053803
v 0.02644448 0.01282802 -0.07053803
v 0.02459928 0.02441127 -0.07050385
v 0.02523764 0.02302041 -0.07045874
v 0.02577651 0.02250699 -0.06991807
v 0.02665174 0.01428951 -0.06907595
v 0.02667305 0.01282802 -0.06907595
v 0.02665292 0.01282802 -0.06836166
v 0.02423214 0.02683441 -0.06836166
v 0.02429491 0.02675834 -0.06841839
v 0.02458152 0.02596240 -0.06897411
v 0.02537147 0.02447103 -0.06903904
v 0.02561189 0.02348222 -0.06950179
v 0.02618392 0.02159967 -0.06907595
v 0.02636158 0.02013547 -0.06907595
v 0.02647764 0.01867398 -0.06907595
v 0.02656173 0.01721249 -0.06907595
v 0.02661739 0.01575372 -0.06907595
v 0.02577770 0.02394675 -0.06852707
v 0.02589613 0.02302041 -0.06903904
v 0.02663516 0.01428951 -0.06836166
v 0.02660792 0.01575372 -0.06836166
v 0.02430320 0.02676921 -0.06836166
v 0.02434465 0.02670402 -0.06836166
v 0.02476509 0.02597327 -0.06836166
v 0.02546503 0.02463674 -0.06836166
v 0.02573980 0.02410702 -0.06836166
v 0.02582744 0.02378647 -0.06836166
v 0.02596838 0.02303943 -0.06836166
v 0.02623248 0.02159967 -0.06836166
v 0.02639118 0.02013547 -0.06836166
v 0.02649067 0.01867398 -0.06836166
v 0.02656054 0.01721249 -0.06836166
v 0.02578362 0.02397391 -0.06836166
f 1 2 6
f 1 6 10
f 1 10 25
f 1 25 47
f 1 47 80
f 1 80 115
f 1 115 119
f 1 119 118
f 1 118 121
f 1 121 162
f 1 162 179
f 1 179 145
f 1 145 143
f 1 143 100
f 1 100 67
f 1 67 66
f 1 66 36
f 1 36 34
f 1 34 17
f 1 17 8
f 1 8 3
f 1 3 4
f 1 4 7
f 1 7 13
f 1 13 31
f 1 31 62
f 1 62 96
f 1 96 135
f 1 135 105
f 1 105 72
f 1 72 41
f 1 41 21
f 1 21 9
f 1 9 5
f 1 5 2
f 2 5 6
f 3 7 4
f 3 8 7
f 5 9 22
f 5 22 43
f 5 43 75
f 5 75 108
f 5 108 110
f 5 110 153
f 5 153 152
f 5 152 186
f 5 186 185
f 5 185 217
f 5 217 239
f 5 239 252
f 5 252 253
f 5 253 264
f 5 264 263
f 5 263 262
f 5 262 261
f 5 261 260
f 5 260 259
f 5 259 265
f 5 265 258
f 5 258 257
f 5 257 256
f 5 256 255
f 5 255 254
f 5 254 240
f 5 240 221
f 5 221 220
f 5 220 219
f 5 219 218
f 5 218 189
f 5 189 188
f 5 188 187
f 5 187 154
f 5 154 112
f 5 112 111
f 5 111 77
f 5 77 76
f 5 76 44
f 5 44 23
f 5 23 10
f 5 10 6
f 7 11 12
f 7 12 13
f 7 8 14
f 7 14 15
f 7 15 16
f 7 16 11
f 8 17 18
f 8 18 19
f 8 19 20
f 8 20 14
f 9 21 22
f 10 23 24
f 10 24 25
f 11 16 26
f 11 26 12
f 12 26 13
f 13 26 27
f 13 27 28
f 13 28 29
f 13 29 30
f 13 30 31
f 14 32 15
f 14 20 19
f 14 19 33
f 14 33 32
f 15 26 16
f 15 32 26
f 17 34 18
f 18 35 19
f 18 34 36
f 18 36 37
f 18 37 38
f 18 38 35
f 19 35 39
f 19 39 40
f 19 40 33
f 21 41 42
f 21 42 22
f 22 42 43
f 23 44 45
f 23 45 46
f 23 46 24
f 24 47 25
f 24 46 48
f 24 48 49
f 24 49 47
f 26 32 33
f 26 33 40
f 26 40 39
f 26 39 50
f 26 50 51
f 26 51 52
f 26 52 53
f 26 53 54
f 26 54 27
f 27 54 55
f 27 55 28
f 28 55 29
f 29 55 56
f 29 56 30
f 30 56 57
f 30 57 31
f 31 57 58
f 31 58 59
f 31 59 60
f 31 60 61
f 31 61 62
f 35 38 63
f 35 63 64
f 35 64 65
f 35 65 39
f 36 66 37
f 37 66 67
f 37 67 68
f 37 68 69
f 37 69 38
f 38 69 70
f 38 70 63
f 39 65 71
f 39 71 50
f 41 72 73
f 41 73 42
f 42 73 74
f 42 74 43
f 43 74 75
f 44 76 45
f 45 76 77
f 45 77 78
f 45 78 79
f 45 79 48
f 45 48 46
f 47 49 80
f 48 79 81
f 48 81 82
f 48 82 49
f 49 83 84
f 49 84 80
f 49 82 85
f 49 85 83
f 50 71 55
f 50 55 86
f 50 86 51
f 51 86 52
f 52 86 53
f 53 86 54
f 54 86 55
f 55 71 87
f 55 87 88
f 55 88 56
f 56 88 89
f 56 89 90
f 56 90 57
f 57 90 91
f 57 91 58
f 58 91 92
f 58 92 59
f 59 93 60
f 59 92 93
f 60 93 94
f 60 94 61
f 61 95 62
f 61 94 95
f 62 95 96
f 63 70 97
f 63 97 98
f 63 98 64
f 64 99 71
f 64 71 65
f 64 98 99
f 67 100 68
f 68 101 70
f 68 70 69
f 68 100 102
f 68 102 103
f 68 103 101
f 70 101 97
f 71 99 104
f 71 104 87
f 72 105 106
f 72 106 107
f 72 107 73
f 73 107 74
f 74 108 75
f 74 107 109
f 74 109 110
f 74 110 108
f 77 111 78
f 78 111 112
f 78 112 113
f 78 113 79
f 79 113 114
f 79 114 81
f 80 84 115
f 81 114 116
f 81 116 117
f 81 117 82
f 82 117 85
f 83 118 119
f 83 119 115
f 83 115 84
f 83 85 120
f 83 120 121
f 83 121 118
f 85 117 122
f 85 122 123
f 85 123 120
f 87 104 124
f 87 124 125
f 87 125 88
f 88 125 90
f 88 90 89
f 90 125 91
f 91 125 92
f 92 125 126
f 92 126 93
f 93 126 127
f 93 127 128
f 93 128 94
f 94 128 129
f 94 129 130
f 94 130 131
f 94 131 95
f 95 131 132
f 95 132 133
f 95 133 134
f 95 134 96
f 96 134 135
f 97 136 98
f 97 101 137
f 97 137 136
f 98 136 138
f 98 138 139
f 98 139 99
f 99 139 140
f 99 140 141
f 99 141 142
f 99 142 104
f 100 143 102
f 101 103 144
f 101 144 137
f 102 143 103
f 103 143 145
f 103 145 146
f 103 146 144
f 104 142 147
f 104 147 124
f 105 135 148
f 105 148 106
f 106 149 107
f 106 148 149
f 107 149 150
f 107 150 109
f 109 150 151
f 109 151 152
f 109 152 153
f 109 153 110
f 112 154 113
f 113 154 155
f 113 155 114
f 114 156 157
f 114 157 116
f 114 155 156
f 116 157 158
f 116 158 159
f 116 159 122
f 116 122 117
f 120 160 121
f 120 123 161
f 120 161 160
f 121 160 162
f 122 159 163
f 122 163 123
f 123 163 144
f 123 144 161
f 124 147 164
f 124 164 165
f 124 165 125
f 125 165 166
f 125 166 126
f 126 166 127
f 127 167 128
f 127 166 167
f 128 167 168
f 128 168 129
f 129 168 130
f 130 168 169
f 130 169 131
f 131 169 170
f 131 170 171
f 131 171 132
f 132 171 133
f 133 171 172
f 133 172 173
f 133 173 134
f 134 173 135
f 135 173 148
f 136 137 138
f 137 144 163
f 137 163 174
f 137 174 138
f 138 175 176
f 138 176 139
f 138 174 177
f 138 177 175
f 139 176 140
f 140 176 141
f 141 178 142
f 141 176 178
f 142 178 147
f 144 146 161
f 145 179 146
f 146 179 160
f 146 160 161
f 147 178 180
f 147 180 181
f 147 181 164
f 148 173 149
f 149 173 182
f 149 182 183
f 149 183 150
f 150 183 184
f 150 184 151
f 151 184 185
f 151 185 186
f 151 186 152
f 154 187 155
f 155 187 188
f 155 188 189
f 155 189 190
f 155 190 156
f 156 190 191
f 156 191 192
f 156 192 193
f 156 193 158
f 156 158 157
f 158 193 194
f 158 194 195
f 158 195 196
f 158 196 197
f 158 197 159
f 159 197 163
f 160 179 162
f 163 197 174
f 164 181 198
f 164 198 165
f 165 199 166
f 165 198 200
f 165 200 199
f 166 199 167
f 167 199 201
f 167 201 168
f 168 201 169
f 169 201 202
f 169 202 170
f 170 202 203
f 170 203 171
f 171 203 204
f 171 204 172
f 172 204 205
f 172 205 206
f 172 206 173
f 173 206 182
f 174 197 177
f 175 177 207
f 175 207 176
f 176 208 178
f 176 207 208
f 177 197 196
f 177 196 195
f 177 195 209
f 177 209 207
f 178 208 207
f 178 207 210
f 178 210 211
f 178 211 180
f 180 212 213
f 180 213 198
f 180 198 181
f 180 211 212
f 182 206 214
f 182 214 215
f 182 215 183
f 183 215 216
f 183 216 184
f 184 216 217
f 184 217 185
f 189 218 190
f 190 218 219
f 190 219 191
f 191 219 220
f 191 220 192
f 192 220 221
f 192 221 222
f 192 222 223
f 192 223 224
f 192 224 225
f 192 225 195
f 192 195 194
f 192 194 193
f 195 225 226
f 195 226 210
f 195 210 209
f 198 213 227
f 198 227 228
f 198 228 229
f 198 229 200
f 199 230 201
f 199 200 230
f 200 229 230
f 201 230 231
f 201 231 202
f 202 232 203
f 202 231 232
f 203 232 233
f 203 233 204
f 204 233 205
f 205 233 214
f 205 214 206
f 207 209 210
f 210 226 224
f 210 224 234
f 210 234 235
f 210 235 212
f 210 212 211
f 212 235 236
f 212 236 213
f 213 236 227
f 214 233 237
f 214 237 238
f 214 238 215
f 215 238 216
f 216 238 239
f 216 239 217
f 221 240 241
f 221 241 222
f 222 241 223
f 223 241 224
f 224 241 242
f 224 242 243
f 224 243 244
f 224 244 234
f 224 226 225
f 227 236 245
f 227 245 229
f 227 229 228
f 229 245 246
f 229 246 230
f 230 246 247
f 230 247 231
f 231 247 248
f 231 248 232
f 232 248 249
f 232 249 233
f 233 249 237
f 234 244 235
f 235 244 236
f 236 244 250
f 236 250 251
f 236 251 245
f 237 252 238
f 237 249 253
f 237 253 252
f 238 252 239
f 240 254 241
f 241 254 255
f 241 255 242
f 242 256 243
f 242 255 256
f 243 256 257
f 243 257 258
f 243 258 250
f 243 250 244
f 245 251 250
f 245 250 259
f 245 259 260
f 245 260 261
f 245 261 246
f 246 261 262
f 246 262 247
f 247 263 248
f 247 262 263
f 248 263 264
f 248 264 249
f 249 264 253
f 250 258 265
f 250 265 259

