# https://github.com/mikedh/trimesh
v -0.03864941 -0.01641002 -0.06225111
v -0.03845871 -0.01656762 -0.06225111
v -0.03814422 -0.01680025 -0.06176464
v -0.03860927 -0.01641002 -0.06176464
v -0.02962949 -0.01641002 -0.06225111
v -0.03814756 -0.01681212 -0.06225111
v -0.03801708 -0.01669554 -0.06030294
v -0.03835834 -0.01641002 -0.06030294
v -0.03741486 -0.01731516 -0.06176464
v -0.03728438 -0.01723690 -0.06030294
v -0.01730739 -0.01641002 -0.03870023
v -0.00447005 -0.01812369 -0.06225111
v -0.03741821 -0.01731462 -0.06225111
v -0.03794348 -0.01641002 -0.05879744
v -0.03718401 -0.01717105 -0.05943607
v -0.03703680 -0.01707174 -0.05846083
v -0.03789329 -0.01644672 -0.05877899
v -0.03675242 -0.01767246 -0.06225111
v -0.03641450 -0.01785166 -0.06176464
v -0.03641450 -0.01772536 -0.06030294
v -0.00447005 -0.01730652 -0.03870023
v -0.02497901 -0.01641002 -0.03870023
v -0.00447005 -0.02179012 -0.06225111
v -0.03786987 -0.01641002 -0.05856919
v -0.03649480 -0.01747708 -0.05890580
v -0.03611340 -0.01740530 -0.05737724
v -0.03587585 -0.01726766 -0.05616915
v -0.03684275 -0.01693033 -0.05737724
v -0.03748512 -0.01641002 -0.05737724
v -0.03641450 -0.01784518 -0.06225111
v -0.03522010 -0.01841353 -0.06176464
v -0.03512977 -0.01836495 -0.06030294
v -0.03485208 -0.01831637 -0.05885277
v -0.00447005 -0.02077056 -0.03870023
v -0.02502250 -0.01641002 -0.03870484
v -0.02499239 -0.01642945 -0.03870023
v -0.00447005 -0.02178418 -0.06176464
v -0.00571464 -0.02184625 -0.06176464
v -0.00571464 -0.02185057 -0.06225111
v -0.03495245 -0.01802383 -0.05737724
v -0.03509631 -0.01761579 -0.05577490
v -0.03479186 -0.01749381 -0.05445384
v -0.03568180 -0.01714298 -0.05519391
v -0.03690298 -0.01641002 -0.05584176
v -0.03638440 -0.01679647 -0.05577490
v -0.03561824 -0.01821922 -0.06225111
v -0.03520337 -0.01840705 -0.06225111
v -0.03449075 -0.01871470 -0.06176464
v -0.03440041 -0.01868123 -0.06030294
v -0.03429335 -0.01863859 -0.05935076
v -0.03412941 -0.01856951 -0.05837553
v -0.03395879 -0.01849557 -0.05737724
v -0.00447005 -0.02088120 -0.03983454
v -0.00571464 -0.02079646 -0.03870023
v -0.02759532 -0.01641002 -0.04142535
v -0.02651132 -0.01688175 -0.04097116
v -0.02479834 -0.01656492 -0.03870023
v -0.02796334 -0.01686340 -0.04246745
v -0.00447005 -0.02121476 -0.04590267
v -0.00571464 -0.02131407 -0.04714534
v -0.00717670 -0.02183762 -0.06030294
v -0.00717670 -0.02188781 -0.06176464
v -0.00717670 -0.02188997 -0.06225111
v -0.03370451 -0.01837304 -0.05591554
v -0.03337998 -0.01826348 -0.05451609
v -0.03349039 -0.01788026 -0.05299214
v -0.03448071 -0.01731354 -0.05299214
v -0.03552456 -0.01703234 -0.05445384
v -0.03428666 -0.01719048 -0.05212296
v -0.03647808 -0.01641002 -0.05480428
v -0.03447402 -0.01870768 -0.06225111
v -0.03349039 -0.01906283 -0.06176464
v -0.03349039 -0.01900778 -0.06030294
v -0.03358072 -0.01884154 -0.05885277
v -0.03322608 -0.01879458 -0.05737724
v -0.03297516 -0.01869743 -0.05591554
v -0.03281457 -0.01863266 -0.05504636
v -0.00447005 -0.02089793 -0.04005357
v -0.00571464 -0.02090711 -0.03983454
v -0.00571464 -0.02102154 -0.04129624
v -0.00604252 -0.02079808 -0.03870023
v -0.02889679 -0.01641002 -0.04282941
v -0.02698975 -0.01719048 -0.04194640
v -0.02396527 -0.01712301 -0.03870023
v -0.02905069 -0.01641002 -0.04300002
v -0.02948897 -0.01689740 -0.04422194
v -0.02841836 -0.01717213 -0.04344268
v -0.00447005 -0.02120666 -0.04568364
v -0.00571464 -0.02125902 -0.04568364
v -0.00717670 -0.02135347 -0.04714534
v -0.00863875 -0.02186460 -0.06030294
v -0.00863875 -0.02191642 -0.06176464
v -0.00863875 -0.02191642 -0.06225111
v -0.03262052 -0.01854468 -0.05407112
v -0.03241308 -0.01844375 -0.05299214
v -0.03353389 -0.01749219 -0.05159269
v -0.03198149 -0.01832663 -0.05145897
v -0.03521007 -0.01679809 -0.05299214
v -0.03613682 -0.01641002 -0.05399274
v -0.03302869 -0.01732002 -0.05006874
v -0.03404912 -0.01702316 -0.05114773
v -0.03380823 -0.01893923 -0.06225111
v -0.03349039 -0.01904664 -0.06225111
v -0.03202833 -0.01948814 -0.06225111
v -0.03202833 -0.01950379 -0.06176464
v -0.03202833 -0.01946763 -0.06030294
v -0.03202833 -0.01936832 -0.05883894
v -0.03202833 -0.01921773 -0.05737724
v -0.03202833 -0.01904394 -0.05591554
v -0.03056628 -0.01919722 -0.05299214
v -0.03209190 -0.01883614 -0.05451609
v -0.03168038 -0.01877569 -0.05299214
v -0.03145957 -0.01867962 -0.05189933
v -0.00447005 -0.02099023 -0.04129624
v -0.00717670 -0.02091413 -0.03983454
v -0.00717670 -0.02103341 -0.04129624
v -0.00717670 -0.02113380 -0.04276025
v -0.00571464 -0.02111653 -0.04276025
v -0.00717670 -0.02079700 -0.03870023
v -0.02754179 -0.01734862 -0.04287552
v -0.02200136 -0.01815553 -0.03870023
v -0.02345673 -0.01741231 -0.03870023
v -0.03016145 -0.01641002 -0.04425883
v -0.02981685 -0.01713381 -0.04497585
v -0.02875627 -0.01736212 -0.04422194
v -0.00447005 -0.02115863 -0.04444097
v -0.00571464 -0.02119479 -0.04422194
v -0.00717670 -0.02129140 -0.04568364
v -0.00863875 -0.02135779 -0.04714534
v -0.00863875 -0.02141770 -0.04860704
v -0.01010081 -0.02187162 -0.06030294
v -0.01010081 -0.02192344 -0.06176464
v -0.01010081 -0.02192128 -0.06225111
v -0.03123541 -0.01858138 -0.05092409
v -0.03202833 -0.01790563 -0.05006874
v -0.03570522 -0.01641002 -0.05299214
v -0.03280453 -0.01717699 -0.04925951
v -0.03424317 -0.01641002 -0.05006874
v -0.03498590 -0.01641002 -0.05148894
v -0.03495914 -0.01643971 -0.05150969
v -0.03376139 -0.01679755 -0.05006874
v -0.03006777 -0.02001546 -0.06225111
v -0.02988041 -0.02006512 -0.06225111
v -0.03042910 -0.01992047 -0.06178078
v -0.03056628 -0.01985246 -0.06030294
v -0.03056628 -0.01977366 -0.05883894
v -0.03056628 -0.01965600 -0.05737724
v -0.03056628 -0.01952376 -0.05591554
v -0.03056628 -0.01938073 -0.05445384
v -0.02910422 -0.01965222 -0.05299214
v -0.02910422 -0.01944874 -0.05153044
v -0.03067668 -0.01890145 -0.05145897
v -0.00447005 -0.02100426 -0.04151526
v -0.00863875 -0.02089308 -0.03983454
v -0.00863875 -0.02101290 -0.04129624
v -0.00863875 -0.02111653 -0.04276025
v -0.00863875 -0.02120666 -0.04422194
v -0.00717670 -0.02121962 -0.04422194
v -0.00447005 -0.02108792 -0.04297696
v -0.00447005 -0.02107605 -0.04276025
v -0.00750457 -0.02079215 -0.03870023
v -0.02764216 -0.01790509 -0.04422194
v -0.02107461 -0.01860945 -0.03870023
v -0.03057631 -0.01641002 -0.04474991
v -0.03064657 -0.01686987 -0.04555223
v -0.03118522 -0.01707120 -0.04656896
v -0.03021163 -0.01736104 -0.04595108
v -0.02924139 -0.01770053 -0.04555223
v -0.00447005 -0.02114891 -0.04422194
v -0.00863875 -0.02128655 -0.04568364
v -0.01010081 -0.02132595 -0.04714534
v -0.01010081 -0.02139611 -0.04860704
v -0.01097403 -0.02153536 -0.05216446
v -0.01156287 -0.02180307 -0.05883894
v -0.01156287 -0.02186298 -0.06030294
v -0.01156287 -0.02190724 -0.06176464
v -0.01156287 -0.02190292 -0.06225111
v -0.03025847 -0.01878108 -0.05006874
v -0.02997409 -0.01866990 -0.04912117
v -0.03098783 -0.01846264 -0.05006874
v -0.03201830 -0.01744254 -0.04870618
v -0.03050271 -0.01825160 -0.04862318
v -0.03500598 -0.01641002 -0.05153044
v -0.03152648 -0.01728817 -0.04754420
v -0.03250007 -0.01696163 -0.04828427
v -0.03342013 -0.01641002 -0.04866929
v -0.02985030 -0.02007268 -0.06225111
v -0.02981685 -0.02006512 -0.06130354
v -0.02974659 -0.02004947 -0.06030294
v -0.02959269 -0.02001276 -0.05883894
v -0.02939195 -0.01996311 -0.05737724
v -0.02903061 -0.01993774 -0.05580949
v -0.02910422 -0.01980767 -0.05445384
v -0.02786966 -0.01996095 -0.05299214
v -0.02751837 -0.01987459 -0.05163880
v -0.02764216 -0.01960580 -0.05006874
v -0.02910422 -0.01919021 -0.05006874
v -0.00863875 -0.02077433 -0.03870023
v -0.01010081 -0.02072684 -0.03870023
v -0.01010081 -0.02084450 -0.03983454
v -0.01010081 -0.02096270 -0.04129624
v -0.01010081 -0.02107443 -0.04276025
v -0.01010081 -0.02116780 -0.04422194
v -0.01010081 -0.02124822 -0.04568364
v -0.02825107 -0.01856735 -0.04654130
v -0.02771576 -0.01843026 -0.04559603
v -0.02075677 -0.01875518 -0.03870023
v -0.03135585 -0.01641002 -0.04568825
v -0.03064657 -0.01760392 -0.04709231
v -0.03199488 -0.01641002 -0.04652977
v -0.03201830 -0.01671497 -0.04709231
v -0.02913098 -0.01837089 -0.04707618
v -0.01156287 -0.02127467 -0.04714534
v -0.01156287 -0.02135131 -0.04860704
v -0.01156287 -0.02142418 -0.05006874
v -0.01150265 -0.02149704 -0.05161805
v -0.01269371 -0.02154508 -0.05343019
v -0.01302493 -0.02164385 -0.05591554
v -0.01302493 -0.02170700 -0.05737724
v -0.01302493 -0.02176961 -0.05883894
v -0.01156287 -0.02174154 -0.05737724
v -0.01302493 -0.02183114 -0.06030294
v -0.01302493 -0.02186676 -0.06176464
v -0.01302493 -0.02185867 -0.06225111
v -0.02913098 -0.01884693 -0.04862318
v -0.02963618 -0.01852579 -0.04814594
v -0.03241977 -0.01641002 -0.04711306
v -0.02961945 -0.02011801 -0.06225111
v -0.02764216 -0.02050770 -0.06176464
v -0.02924139 -0.02019304 -0.06178078
v -0.02901723 -0.02021193 -0.06030294
v -0.02886333 -0.02018062 -0.05883894
v -0.02866259 -0.02013745 -0.05737724
v -0.02849530 -0.02009804 -0.05622448
v -0.02834810 -0.02006458 -0.05525155
v -0.02819085 -0.02003220 -0.05445384
v -0.02714031 -0.02011531 -0.05299214
v -0.02694626 -0.02007699 -0.05219904
v -0.02662173 -0.02001492 -0.05122611
v -0.02764216 -0.01931111 -0.04860704
v -0.02615334 -0.01993126 -0.05007566
v -0.01820403 -0.02008509 -0.04046625
v -0.01775236 -0.02000575 -0.03949102
v -0.01042869 -0.02070902 -0.03870023
v -0.01156287 -0.02076678 -0.03983454
v -0.01156287 -0.02089685 -0.04129624
v -0.01156287 -0.02101020 -0.04276025
v -0.01156287 -0.02111005 -0.04422194
v -0.01156287 -0.02119587 -0.04568364
v -0.02865924 -0.01871470 -0.04751653
v -0.01884974 -0.01952052 -0.03870023
v -0.01920103 -0.01939530 -0.03870023
v -0.02034191 -0.01893329 -0.03870023
v -0.02055938 -0.01884370 -0.03870023
v -0.01302493 -0.02129734 -0.04860704
v -0.01302493 -0.02137182 -0.05006874
v -0.01448699 -0.02139179 -0.05153044
v -0.01302493 -0.02144361 -0.05153044
v -0.01311861 -0.02150838 -0.05296217
v -0.01366730 -0.02152835 -0.05378985
v -0.01311861 -0.02157260 -0.05434779
v -0.01420595 -0.02155048 -0.05476509
v -0.01448699 -0.02165195 -0.05737724
v -0.01448699 -0.02171078 -0.05883894
v -0.01448699 -0.02176583 -0.06030294
v -0.01448699 -0.02179498 -0.06176464
v -0.01448699 -0.02178472 -0.06225111
v -0.02764216 -0.02049421 -0.06225111
v -0.02666857 -0.02065667 -0.06225111
v -0.02618010 -0.02075113 -0.06176464
v -0.02618010 -0.02073008 -0.06030294
v -0.02764216 -0.02048611 -0.06030294
v -0.02764216 -0.02042404 -0.05883894
v -0.02764216 -0.02034038 -0.05737724
v -0.02777599 -0.02020977 -0.05580949
v -0.02745815 -0.02017415 -0.05445384
v -0.02618010 -0.02040354 -0.05445384
v -0.02618010 -0.02028533 -0.05299214
v -0.02615334 -0.02015040 -0.05163880
v -0.02564814 -0.02010614 -0.05056673
v -0.01876275 -0.01982278 -0.03992215
v -0.01741110 -0.02032959 -0.04129624
v -0.01732411 -0.02014392 -0.03992215
v -0.01742114 -0.01990806 -0.03870023
v -0.01677877 -0.02008455 -0.03902069
v -0.01156287 -0.02063130 -0.03870023
v -0.01302493 -0.02065127 -0.03983454
v -0.01302493 -0.02081050 -0.04129624
v -0.01302493 -0.02093571 -0.04276025
v -0.01302493 -0.02103827 -0.04422194
v -0.01302493 -0.02113272 -0.04568364
v -0.01302493 -0.02121800 -0.04714534
v -0.01448699 -0.02131407 -0.05006874
v -0.01448699 -0.02145980 -0.05299214
v -0.01594904 -0.02131839 -0.05153044
v -0.01594904 -0.02139179 -0.05299214
v -0.01517954 -0.02152997 -0.05522389
v -0.01461078 -0.02157854 -0.05579335
v -0.01558437 -0.02155048 -0.05619912
v -0.01655796 -0.02152511 -0.05684236
v -0.01594904 -0.02163036 -0.05883894
v -0.01594904 -0.02167624 -0.06030294
v -0.01594904 -0.02170160 -0.06176464
v -0.01594904 -0.02169189 -0.06225111
v -0.01497545 -0.02175396 -0.06225111
v -0.02618010 -0.02073763 -0.06225111
v -0.02471804 -0.02094489 -0.06176464
v -0.02471804 -0.02093248 -0.06030294
v -0.02471804 -0.02089362 -0.05883894
v -0.02618010 -0.02067664 -0.05883894
v -0.02618010 -0.02059892 -0.05737724
v -0.02618010 -0.02050177 -0.05591554
v -0.02471804 -0.02073115 -0.05591554
v -0.02471804 -0.02062698 -0.05445384
v -0.02471804 -0.02050716 -0.05299214
v -0.02471804 -0.02036521 -0.05153044
v -0.01741110 -0.02049529 -0.04276025
v -0.01594904 -0.02053037 -0.04129624
v -0.01594904 -0.02032473 -0.03983454
v -0.01709326 -0.01996527 -0.03870023
v -0.01595908 -0.02013960 -0.03870023
v -0.01652784 -0.02006188 -0.03870023
v -0.01189075 -0.02060540 -0.03870023
v -0.01302493 -0.02048881 -0.03870023
v -0.01448699 -0.02050069 -0.03983454
v -0.01448699 -0.02068744 -0.04129624
v -0.01448699 -0.02083101 -0.04276025
v -0.01448699 -0.02094489 -0.04422194
v -0.01448699 -0.02104852 -0.04568364
v -0.01448699 -0.02114190 -0.04714534
v -0.01448699 -0.02122987 -0.04860704
v -0.01594904 -0.02123311 -0.05006874
v -0.01741110 -0.02121800 -0.05153044
v -0.01741110 -0.02130004 -0.05299214
v -0.01741110 -0.02137398 -0.05445384
v -0.01594904 -0.02145710 -0.05445384
v -0.01602265 -0.02151053 -0.05579335
v -0.01741110 -0.02143821 -0.05591554
v -0.01735757 -0.02149326 -0.05734957
v -0.01707988 -0.02155803 -0.05883894
v -0.01781258 -0.02151000 -0.05883894
v -0.01803674 -0.02152403 -0.05988334
v -0.01749474 -0.02157314 -0.06034214
v -0.01819399 -0.02153536 -0.06085857
v -0.01741110 -0.02159743 -0.06176464
v -0.01787950 -0.02155965 -0.06225111
v -0.02520651 -0.02086663 -0.06225111
v -0.02471804 -0.02092924 -0.06225111
v -0.02325599 -0.02109926 -0.06176464
v -0.02325599 -0.02109710 -0.06030294
v -0.02325599 -0.02106687 -0.05883894
v -0.02471804 -0.02082561 -0.05737724
v -0.02325599 -0.02100588 -0.05737724
v -0.02325599 -0.02092006 -0.05591554
v -0.02325599 -0.02081643 -0.05445384
v -0.02325599 -0.02069823 -0.05299214
v -0.02179393 -0.02076246 -0.05153044
v -0.02325599 -0.02056977 -0.05153044
v -0.01594904 -0.02068690 -0.04276025
v -0.02179393 -0.02062483 -0.05006874
v -0.01457732 -0.02030908 -0.03870023
v -0.01499887 -0.02025834 -0.03870023
v -0.01335280 -0.02045481 -0.03870023
v -0.01594904 -0.02081643 -0.04422194
v -0.01594904 -0.02093787 -0.04568364
v -0.01594904 -0.02104474 -0.04714534
v -0.01594904 -0.02113974 -0.04860704
v -0.01741110 -0.02112624 -0.05006874
v -0.01887316 -0.02119479 -0.05299214
v -0.01887316 -0.02127521 -0.05445384
v -0.01887316 -0.02134160 -0.05591554
v -0.01887316 -0.02139179 -0.05737724
v -0.01887316 -0.02143281 -0.05883894
v -0.02033522 -0.02132001 -0.05883894
v -0.01875941 -0.02147923 -0.06034214
v -0.02033522 -0.02135401 -0.06030294
v -0.02179393 -0.02123419 -0.06030294
v -0.01894342 -0.02147815 -0.06176464
v -0.01821406 -0.02153698 -0.06176464
v -0.01819733 -0.02153590 -0.06225111
v -0.02374445 -0.02103179 -0.06225111
v -0.02325599 -0.02108306 -0.06225111
v -0.02179393 -0.02121908 -0.06225111
v -0.02179393 -0.02123419 -0.06176464
v -0.02179393 -0.02120289 -0.05883894
v -0.02179393 -0.02115377 -0.05737724
v -0.02179393 -0.02108522 -0.05591554
v -0.02179393 -0.02099617 -0.05445384
v -0.02179393 -0.02088498 -0.05299214
v -0.02033522 -0.02094327 -0.05153044
v -0.02033522 -0.02081589 -0.05006874
v -0.01887316 -0.02086231 -0.04860704
v -0.01887316 -0.02098753 -0.05006874
v -0.01741110 -0.02102369 -0.04860704
v -0.01887316 -0.02109764 -0.05153044
v -0.02033522 -0.02105932 -0.05299214
v -0.02033522 -0.02115323 -0.05445384
v -0.02033522 -0.02122717 -0.05591554
v -0.02033522 -0.02128061 -0.05737724
v -0.02033522 -0.02136265 -0.06176464
v -0.01848506 -0.02151216 -0.06225111
v -0.02033522 -0.02134915 -0.06225111
f 1 2 3
f 1 3 4
f 1 4 8
f 1 8 14
f 1 14 24
f 1 24 29
f 1 29 44
f 1 44 70
f 1 70 99
f 1 99 136
f 1 136 183
f 1 183 139
f 1 139 138
f 1 138 186
f 1 186 227
f 1 227 210
f 1 210 208
f 1 208 164
f 1 164 123
f 1 123 85
f 1 85 82
f 1 82 55
f 1 55 35
f 1 35 22
f 1 22 11
f 1 11 5
f 1 5 12
f 1 12 23
f 1 23 39
f 1 39 63
f 1 63 93
f 1 93 133
f 1 133 177
f 1 177 224
f 1 224 267
f 1 267 305
f 1 305 304
f 1 304 346
f 1 346 380
f 1 380 401
f 1 401 402
f 1 402 383
f 1 383 382
f 1 382 381
f 1 381 348
f 1 348 347
f 1 347 306
f 1 306 269
f 1 269 268
f 1 268 228
f 1 228 187
f 1 187 143
f 1 143 142
f 1 142 104
f 1 104 103
f 1 103 102
f 1 102 71
f 1 71 47
f 1 47 46
f 1 46 30
f 1 30 18
f 1 18 13
f 1 13 6
f 1 6 2
f 2 6 3
f 3 7 8
f 3 8 4
f 3 6 9
f 3 9 10
f 3 10 7
f 5 11 12
f 6 13 9
f 7 14 8
f 7 10 15
f 7 15 16
f 7 16 17
f 7 17 14
f 9 13 18
f 9 18 19
f 9 19 20
f 9 20 10
f 10 20 15
f 11 21 12
f 11 22 36
f 11 36 57
f 11 57 84
f 11 84 122
f 11 122 121
f 11 121 163
f 11 163 207
f 11 207 254
f 11 254 253
f 11 253 252
f 11 252 251
f 11 251 284
f 11 284 320
f 11 320 322
f 11 322 321
f 11 321 362
f 11 362 361
f 11 361 363
f 11 363 324
f 11 324 323
f 11 323 286
f 11 286 244
f 11 244 199
f 11 199 198
f 11 198 161
f 11 161 119
f 11 119 81
f 11 81 54
f 11 54 34
f 11 34 21
f 12 21 34
f 12 34 53
f 12 53 78
f 12 78 114
f 12 114 153
f 12 153 160
f 12 160 159
f 12 159 169
f 12 169 126
f 12 126 88
f 12 88 59
f 12 59 37
f 12 37 23
f 14 17 24
f 15 20 25
f 15 25 16
f 16 25 26
f 16 26 27
f 16 27 28
f 16 28 29
f 16 29 24
f 16 24 17
f 18 30 19
f 19 30 31
f 19 31 32
f 19 32 20
f 20 32 33
f 20 33 25
f 22 35 36
f 23 37 38
f 23 38 39
f 25 33 40
f 25 40 26
f 26 40 41
f 26 41 42
f 26 42 27
f 27 43 28
f 27 42 43
f 28 44 29
f 28 43 45
f 28 45 44
f 30 46 31
f 31 46 47
f 31 47 48
f 31 48 49
f 31 49 32
f 32 49 50
f 32 50 33
f 33 50 51
f 33 51 52
f 33 52 40
f 34 54 79
f 34 79 53
f 35 55 36
f 36 56 57
f 36 55 58
f 36 58 56
f 37 59 38
f 38 59 60
f 38 60 61
f 38 61 62
f 38 62 39
f 39 62 63
f 40 52 64
f 40 64 65
f 40 65 41
f 41 65 66
f 41 66 42
f 42 66 67
f 42 67 43
f 43 68 45
f 43 67 69
f 43 69 68
f 44 45 70
f 45 68 70
f 47 71 48
f 48 71 72
f 48 72 73
f 48 73 49
f 49 73 50
f 50 73 74
f 50 74 75
f 50 75 76
f 50 76 51
f 51 76 52
f 52 76 77
f 52 77 64
f 53 79 80
f 53 80 78
f 54 81 79
f 55 82 58
f 56 58 83
f 56 83 57
f 57 83 84
f 58 82 85
f 58 85 86
f 58 86 87
f 58 87 83
f 59 88 60
f 60 88 89
f 60 89 90
f 60 90 61
f 61 90 91
f 61 91 92
f 61 92 62
f 62 92 63
f 63 92 93
f 64 77 94
f 64 94 95
f 64 95 65
f 65 95 66
f 66 96 67
f 66 95 97
f 66 97 96
f 67 96 69
f 68 98 99
f 68 99 70
f 68 69 98
f 69 96 100
f 69 100 101
f 69 101 98
f 71 102 72
f 72 102 103
f 72 103 104
f 72 104 105
f 72 105 106
f 72 106 73
f 73 106 107
f 73 107 74
f 74 107 108
f 74 108 75
f 75 108 109
f 75 109 76
f 76 109 110
f 76 110 111
f 76 111 112
f 76 112 77
f 77 112 113
f 77 113 94
f 78 80 114
f 79 81 115
f 79 115 116
f 79 116 80
f 80 116 117
f 80 117 118
f 80 118 114
f 81 119 115
f 83 87 120
f 83 120 121
f 83 121 122
f 83 122 84
f 85 123 86
f 86 123 124
f 86 124 87
f 87 125 120
f 87 124 125
f 88 126 89
f 89 126 127
f 89 127 128
f 89 128 90
f 90 128 129
f 90 129 130
f 90 130 91
f 91 131 132
f 91 132 92
f 91 130 131
f 92 132 93
f 93 132 133
f 94 113 95
f 95 113 134
f 95 134 97
f 96 97 135
f 96 135 100
f 97 134 135
f 98 136 99
f 98 101 136
f 100 135 137
f 100 137 101
f 101 138 139
f 101 139 140
f 101 140 136
f 101 137 141
f 101 141 138
f 104 142 105
f 105 142 143
f 105 143 144
f 105 144 145
f 105 145 106
f 106 145 146
f 106 146 107
f 107 146 147
f 107 147 148
f 107 148 149
f 107 149 108
f 108 149 109
f 109 149 110
f 110 149 150
f 110 150 151
f 110 151 152
f 110 152 113
f 110 113 112
f 110 112 111
f 113 152 134
f 114 118 153
f 115 119 154
f 115 154 155
f 115 155 116
f 116 155 156
f 116 156 117
f 117 156 157
f 117 157 158
f 117 158 118
f 118 127 159
f 118 159 160
f 118 160 153
f 118 158 127
f 119 161 154
f 120 162 163
f 120 163 121
f 120 125 162
f 123 164 124
f 124 164 165
f 124 165 166
f 124 166 167
f 124 167 125
f 125 167 168
f 125 168 162
f 126 169 127
f 127 169 159
f 127 158 128
f 128 158 170
f 128 170 129
f 129 170 171
f 129 171 172
f 129 172 173
f 129 173 174
f 129 174 130
f 130 174 175
f 130 175 131
f 131 175 132
f 132 175 176
f 132 176 133
f 133 176 177
f 134 152 178
f 134 178 179
f 134 179 180
f 134 180 135
f 135 181 137
f 135 180 182
f 135 182 181
f 136 140 183
f 137 181 184
f 137 184 185
f 137 185 141
f 138 141 186
f 139 183 140
f 141 185 186
f 143 187 144
f 144 187 188
f 144 188 145
f 145 188 189
f 145 189 190
f 145 190 146
f 146 190 191
f 146 191 192
f 146 192 147
f 147 192 193
f 147 193 148
f 148 193 149
f 149 193 150
f 150 193 194
f 150 194 195
f 150 195 151
f 151 195 196
f 151 196 197
f 151 197 152
f 152 197 178
f 154 161 198
f 154 198 199
f 154 199 200
f 154 200 155
f 155 200 201
f 155 201 202
f 155 202 156
f 156 202 203
f 156 203 157
f 157 203 204
f 157 204 170
f 157 170 158
f 162 168 205
f 162 205 206
f 162 206 207
f 162 207 163
f 164 208 165
f 165 208 166
f 166 209 167
f 166 208 210
f 166 210 211
f 166 211 185
f 166 185 184
f 166 184 209
f 167 209 168
f 168 209 212
f 168 212 205
f 170 204 171
f 171 204 213
f 171 213 214
f 171 214 215
f 171 215 172
f 172 215 216
f 172 216 173
f 173 216 217
f 173 217 218
f 173 218 219
f 173 219 220
f 173 220 221
f 173 221 174
f 174 221 220
f 174 220 222
f 174 222 175
f 175 222 176
f 176 222 223
f 176 223 177
f 177 223 224
f 178 197 179
f 179 182 180
f 179 197 225
f 179 225 226
f 179 226 182
f 181 182 184
f 182 226 209
f 182 209 184
f 185 227 186
f 185 211 227
f 187 228 229
f 187 229 230
f 187 230 188
f 188 230 231
f 188 231 189
f 189 231 232
f 189 232 190
f 190 232 233
f 190 233 191
f 191 233 234
f 191 234 235
f 191 235 192
f 192 235 193
f 193 235 236
f 193 236 194
f 194 236 237
f 194 237 238
f 194 238 195
f 195 238 239
f 195 239 196
f 196 240 197
f 196 239 241
f 196 241 242
f 196 242 243
f 196 243 240
f 197 240 225
f 199 244 245
f 199 245 200
f 200 245 246
f 200 246 201
f 201 246 247
f 201 247 202
f 202 247 248
f 202 248 203
f 203 248 249
f 203 249 204
f 204 249 213
f 205 212 226
f 205 226 250
f 205 250 251
f 205 251 252
f 205 252 253
f 205 253 254
f 205 254 206
f 206 254 207
f 209 226 212
f 210 227 211
f 213 255 214
f 213 249 255
f 214 255 256
f 214 256 215
f 215 256 257
f 215 257 258
f 215 258 259
f 215 259 217
f 215 217 216
f 217 259 260
f 217 260 261
f 217 261 218
f 218 261 260
f 218 260 219
f 219 260 262
f 219 262 263
f 219 263 220
f 220 263 222
f 222 263 264
f 222 264 265
f 222 265 223
f 223 265 266
f 223 266 224
f 224 266 267
f 225 240 250
f 225 250 226
f 228 268 229
f 229 268 269
f 229 269 270
f 229 270 271
f 229 271 272
f 229 272 230
f 230 272 231
f 231 272 232
f 232 272 273
f 232 273 233
f 233 273 274
f 233 274 234
f 234 274 235
f 235 275 276
f 235 276 236
f 235 274 275
f 236 276 237
f 237 276 277
f 237 277 278
f 237 278 238
f 238 278 279
f 238 279 239
f 239 279 280
f 239 280 242
f 239 242 241
f 240 243 281
f 240 281 251
f 240 251 250
f 242 282 283
f 242 283 243
f 242 280 282
f 243 284 251
f 243 251 281
f 243 283 285
f 243 285 284
f 244 286 245
f 245 286 287
f 245 287 288
f 245 288 246
f 246 288 289
f 246 289 247
f 247 289 290
f 247 290 248
f 248 290 291
f 248 291 249
f 249 291 292
f 249 292 255
f 255 292 293
f 255 293 257
f 255 257 256
f 257 294 260
f 257 260 258
f 257 293 295
f 257 295 296
f 257 296 294
f 258 260 259
f 260 294 262
f 262 294 297
f 262 297 298
f 262 298 263
f 263 298 297
f 263 297 299
f 263 299 264
f 264 299 300
f 264 300 265
f 265 300 301
f 265 301 302
f 265 302 266
f 266 302 303
f 266 303 304
f 266 304 305
f 266 305 267
f 269 306 270
f 270 306 307
f 270 307 308
f 270 308 271
f 271 308 309
f 271 309 310
f 271 310 272
f 272 310 273
f 273 310 311
f 273 311 274
f 274 311 312
f 274 312 277
f 274 277 275
f 275 277 276
f 277 312 313
f 277 313 314
f 277 314 278
f 278 314 315
f 278 315 316
f 278 316 279
f 279 316 280
f 280 316 282
f 282 317 318
f 282 318 319
f 282 319 283
f 282 316 317
f 283 319 285
f 284 285 320
f 285 321 322
f 285 322 320
f 285 319 321
f 286 323 287
f 287 323 324
f 287 324 325
f 287 325 326
f 287 326 288
f 288 326 327
f 288 327 289
f 289 327 328
f 289 328 329
f 289 329 290
f 290 329 291
f 291 329 330
f 291 330 331
f 291 331 292
f 292 331 293
f 293 331 295
f 294 296 297
f 295 331 332
f 295 332 333
f 295 333 334
f 295 334 335
f 295 335 296
f 296 336 297
f 296 335 336
f 297 336 337
f 297 337 299
f 299 337 300
f 300 337 338
f 300 338 339
f 300 339 301
f 301 339 340
f 301 340 302
f 302 340 341
f 302 341 342
f 302 342 343
f 302 343 344
f 302 344 303
f 303 344 345
f 303 345 346
f 303 346 304
f 306 347 307
f 307 347 348
f 307 348 349
f 307 349 350
f 307 350 308
f 308 350 351
f 308 351 309
f 309 352 310
f 309 351 353
f 309 353 352
f 310 352 311
f 311 352 313
f 311 313 312
f 313 352 354
f 313 354 355
f 313 355 314
f 314 355 356
f 314 356 315
f 315 356 357
f 315 357 358
f 315 358 316
f 316 358 317
f 317 359 318
f 317 358 360
f 317 360 359
f 318 359 326
f 318 326 325
f 318 325 319
f 319 325 361
f 319 361 362
f 319 362 321
f 324 363 325
f 325 363 361
f 326 359 327
f 327 359 364
f 327 364 365
f 327 365 328
f 328 365 366
f 328 366 329
f 329 366 367
f 329 367 332
f 329 332 330
f 330 332 331
f 332 367 368
f 332 368 333
f 333 368 369
f 333 369 334
f 334 369 370
f 334 370 335
f 335 370 371
f 335 371 338
f 335 338 336
f 336 338 337
f 338 371 339
f 339 371 372
f 339 372 341
f 339 341 340
f 341 372 342
f 342 372 373
f 342 373 374
f 342 374 375
f 342 375 344
f 342 344 343
f 344 375 376
f 344 376 377
f 344 377 378
f 344 378 379
f 344 379 345
f 345 379 380
f 345 380 346
f 348 381 349
f 349 381 382
f 349 382 383
f 349 383 384
f 349 384 377
f 349 377 350
f 350 377 351
f 351 377 385
f 351 385 386
f 351 386 353
f 352 353 354
f 353 386 387
f 353 387 354
f 354 387 388
f 354 388 355
f 355 388 389
f 355 389 356
f 356 389 357
f 357 389 390
f 357 390 391
f 357 391 360
f 357 360 358
f 359 360 391
f 359 391 392
f 359 392 364
f 364 392 393
f 364 393 394
f 364 394 365
f 365 394 366
f 366 394 368
f 366 368 367
f 368 394 395
f 368 395 369
f 369 395 396
f 369 396 397
f 369 397 370
f 370 397 398
f 370 398 371
f 371 398 399
f 371 399 372
f 372 399 373
f 373 399 374
f 374 399 385
f 374 385 376
f 374 376 375
f 376 385 377
f 377 384 400
f 377 400 378
f 378 401 380
f 378 380 379
f 378 400 401
f 383 402 384
f 384 402 401
f 384 401 400
f 385 399 386
f 386 399 398
f 386 398 387
f 387 398 397
f 387 397 388
f 388 397 396
f 388 396 389
f 389 396 390
f 390 396 393
f 390 393 392
f 390 392 391
f 393 395 394
f 393 396 395

