# https://github.com/mikedh/trimesh
v -0.04434420 0.00405542 -0.06176533
v -0.04425918 0.00405542 -0.06030391
v -0.04426813 0.00551779 -0.06030391
v -0.04433525 0.00551779 -0.06176533
v -0.04425173 0.00405542 -0.06322675
v -0.04425471 0.00275516 -0.06306493
v -0.04431586 0.00275516 -0.06176533
v -0.04430691 0.00275516 -0.06160351
v -0.04413837 0.00405542 -0.05902722
v -0.04422488 0.00275516 -0.06030391
v -0.04414583 0.00551779 -0.05902722
v -0.04423979 0.00698015 -0.06030391
v -0.04429051 0.00698015 -0.06176533
v -0.04421443 0.00551779 -0.06322675
v -0.04392657 0.00275516 -0.06468890
v -0.04396386 0.00275516 -0.06452636
v -0.04424427 0.00275516 -0.06322675
v -0.04391165 0.00405542 -0.06468890
v -0.04410406 0.00275516 -0.05902722
v -0.04411152 0.00698015 -0.05902722
v -0.04406081 0.00825627 -0.05902722
v -0.04417566 0.00844252 -0.06030391
v -0.04420847 0.00844252 -0.06176533
v -0.04414284 0.00698015 -0.06322675
v -0.04385349 0.00551779 -0.06468890
v -0.04343884 0.00275516 -0.06598850
v -0.04327776 0.00400714 -0.06627706
v -0.04044535 0.00275516 -0.05902722
v -0.04405186 0.00844252 -0.05902722
v -0.04396982 0.00971864 -0.05902722
v -0.04407125 0.00990316 -0.06030391
v -0.04408020 0.00990316 -0.06176533
v -0.04403098 0.00844252 -0.06322675
v -0.04374759 0.00698015 -0.06468890
v -0.04330610 0.00551779 -0.06603218
v -0.04336725 0.00275516 -0.06616536
v -0.04324942 0.00395368 -0.06634150
v -0.04325240 0.00386573 -0.06634150
v -0.04318081 0.00511771 -0.06634150
v -0.04324345 0.00405887 -0.06634150
v -0.03793213 0.00275516 -0.06634150
v -0.02910827 0.02037080 -0.06634150
v -0.03722217 0.02037252 -0.05902722
v -0.04395640 0.00990316 -0.05902722
v -0.04383410 0.01117928 -0.05902722
v -0.04392359 0.01136553 -0.06030391
v -0.04387884 0.00990316 -0.06322675
v -0.04391911 0.01136553 -0.06176533
v -0.04359546 0.00844252 -0.06468890
v -0.04324345 0.00698015 -0.06588897
v -0.04307939 0.00622138 -0.06634150
v -0.04314501 0.00551779 -0.06634150
v -0.04328521 0.00275516 -0.06634150
v -0.02910827 0.02037252 -0.06634150
v -0.04183247 0.02037252 -0.05902722
v -0.04381471 0.01136553 -0.05902722
v -0.04364766 0.01263992 -0.05902722
v -0.04372820 0.01282617 -0.06030391
v -0.04341647 0.00990316 -0.06468890
v -0.04368494 0.01136553 -0.06322675
v -0.04371328 0.01282617 -0.06176533
v -0.04305850 0.00990316 -0.06553668
v -0.04315694 0.00844252 -0.06572070
v -0.04293918 0.00743197 -0.06634150
v -0.04299437 0.00698015 -0.06634150
v -0.03925810 0.02037252 -0.06634150
v -0.04195179 0.02037252 -0.06000102
v -0.04206664 0.02013627 -0.06030391
v -0.04187274 0.02024836 -0.05902722
v -0.04362230 0.01282617 -0.05902722
v -0.04348956 0.01428853 -0.06030391
v -0.04320467 0.01124826 -0.06472040
v -0.04300481 0.01068263 -0.06543715
v -0.04344183 0.01282617 -0.06322675
v -0.04311518 0.01282617 -0.06422992
v -0.04345674 0.01428853 -0.06176533
v -0.04280345 0.00844252 -0.06634150
v -0.03927302 0.02037252 -0.06633005
v -0.03952955 0.01977758 -0.06634150
v -0.04198312 0.02037252 -0.06030391
v -0.04187423 0.02037252 -0.06176533
v -0.04195627 0.02013627 -0.06176533
v -0.04240522 0.01867563 -0.06176533
v -0.04303912 0.01664936 -0.06130993
v -0.04250067 0.01867563 -0.06030391
v -0.04236942 0.01867563 -0.05902722
v -0.04338067 0.01428853 -0.05902722
v -0.04301227 0.01654244 -0.05946400
v -0.04322406 0.01575090 -0.06030391
v -0.04261403 0.00990316 -0.06626775
v -0.04266474 0.00931339 -0.06634150
v -0.04277810 0.00861669 -0.06634150
v -0.04290339 0.01165524 -0.06522807
v -0.04251111 0.01124826 -0.06601499
v -0.04307342 0.01535772 -0.06273413
v -0.04316739 0.01421955 -0.06322389
v -0.04302718 0.01368669 -0.06402442
v -0.04315098 0.01580781 -0.06178466
v -0.04296007 0.01633205 -0.06228517
v -0.03951912 0.02037252 -0.06607657
v -0.03941322 0.02028975 -0.06622694
v -0.03989349 0.01895499 -0.06634150
v -0.04162664 0.02037252 -0.06272481
v -0.04282135 0.01716670 -0.06178466
v -0.04304061 0.01665281 -0.06030391
v -0.04284969 0.01738399 -0.06030391
v -0.04283179 0.01699425 -0.05902722
v -0.04308386 0.01589920 -0.05902722
v -0.04256034 0.00990316 -0.06634150
v -0.04257674 0.00981349 -0.06634150
v -0.04227545 0.01128447 -0.06634150
v -0.04276915 0.01282617 -0.06496099
v -0.04185037 0.01428853 -0.06588109
v -0.04198013 0.01283824 -0.06624770
v -0.04193091 0.01277616 -0.06634150
v -0.04279003 0.01580781 -0.06322389
v -0.04290935 0.01466275 -0.06370864
v -0.04214569 0.01575090 -0.06468890
v -0.04261254 0.01421955 -0.06458292
v -0.04166691 0.02013627 -0.06282578
v -0.04240522 0.01721326 -0.06322675
v -0.04022162 0.01978965 -0.06560470
v -0.04044535 0.02037252 -0.06495597
v -0.04020074 0.01818070 -0.06634150
v -0.04141335 0.02037252 -0.06322461
v -0.04150732 0.01932576 -0.06389911
v -0.04164603 0.01575090 -0.06558179
v -0.04165647 0.01380912 -0.06634150
v -0.04189213 0.01292274 -0.06634150
v -0.04166095 0.01835142 -0.06418911
v -0.04177132 0.01707358 -0.06468174
v -0.04153715 0.01649243 -0.06542569
v -0.04190257 0.01877392 -0.06333774
v -0.04043044 0.01867563 -0.06585889
v -0.04137308 0.01746849 -0.06516363
v -0.04121945 0.01877392 -0.06468174
v -0.04060495 0.02022077 -0.06480060
v -0.04057362 0.02037252 -0.06475119
v -0.04050352 0.01731156 -0.06634150
v -0.04129850 0.02037252 -0.06347308
v -0.04135668 0.02013627 -0.06355685
v -0.04139546 0.01467137 -0.06634150
v -0.04076752 0.01710462 -0.06611022
v -0.04106135 0.01575090 -0.06631286
v -0.04108522 0.01560949 -0.06634150
f 1 2 3
f 1 3 4
f 1 4 5
f 1 5 6
f 1 6 7
f 1 7 8
f 1 8 2
f 2 9 3
f 2 8 10
f 2 10 19
f 2 19 9
f 3 11 12
f 3 12 4
f 3 9 11
f 4 12 13
f 4 13 14
f 4 14 5
f 5 15 16
f 5 16 17
f 5 17 6
f 5 14 18
f 5 18 15
f 6 17 16
f 6 16 15
f 6 15 26
f 6 26 36
f 6 36 53
f 6 53 41
f 6 41 28
f 6 28 19
f 6 19 10
f 6 10 8
f 6 8 7
f 9 19 28
f 9 28 43
f 9 43 55
f 9 55 69
f 9 69 86
f 9 86 107
f 9 107 108
f 9 108 87
f 9 87 70
f 9 70 57
f 9 57 56
f 9 56 45
f 9 45 44
f 9 44 30
f 9 30 29
f 9 29 21
f 9 21 20
f 9 20 11
f 11 20 12
f 12 20 21
f 12 21 22
f 12 22 13
f 13 22 23
f 13 23 24
f 13 24 14
f 14 24 25
f 14 25 18
f 15 18 26
f 18 25 27
f 18 27 26
f 21 29 22
f 22 29 30
f 22 30 31
f 22 31 23
f 23 31 32
f 23 32 33
f 23 33 24
f 24 33 34
f 24 34 25
f 25 34 35
f 25 35 27
f 26 27 36
f 27 37 38
f 27 38 36
f 27 35 39
f 27 39 40
f 27 40 37
f 28 41 42
f 28 42 43
f 30 44 31
f 31 44 45
f 31 45 46
f 31 46 32
f 32 47 33
f 32 46 48
f 32 48 47
f 33 47 49
f 33 49 34
f 34 49 50
f 34 50 35
f 35 50 51
f 35 51 52
f 35 52 39
f 36 38 53
f 37 40 39
f 37 39 52
f 37 52 51
f 37 51 65
f 37 65 64
f 37 64 77
f 37 77 92
f 37 92 91
f 37 91 110
f 37 110 109
f 37 109 111
f 37 111 115
f 37 115 129
f 37 129 128
f 37 128 142
f 37 142 145
f 37 145 139
f 37 139 124
f 37 124 102
f 37 102 79
f 37 79 66
f 37 66 54
f 37 54 42
f 37 42 41
f 37 41 53
f 37 53 38
f 42 54 43
f 43 54 66
f 43 66 78
f 43 78 100
f 43 100 123
f 43 123 138
f 43 138 140
f 43 140 125
f 43 125 103
f 43 103 81
f 43 81 80
f 43 80 67
f 43 67 55
f 45 56 46
f 46 56 57
f 46 57 58
f 46 58 48
f 47 59 49
f 47 48 60
f 47 60 59
f 48 58 61
f 48 61 60
f 49 59 62
f 49 62 63
f 49 63 50
f 50 63 64
f 50 64 65
f 50 65 51
f 55 67 68
f 55 68 69
f 57 70 58
f 58 70 71
f 58 71 61
f 59 60 72
f 59 72 73
f 59 73 62
f 60 61 74
f 60 74 75
f 60 75 72
f 61 71 76
f 61 76 74
f 62 73 77
f 62 77 63
f 63 77 64
f 66 79 78
f 67 80 68
f 68 80 81
f 68 81 82
f 68 82 83
f 68 83 84
f 68 84 85
f 68 85 86
f 68 86 69
f 70 87 71
f 71 87 88
f 71 88 89
f 71 89 84
f 71 84 76
f 72 75 73
f 73 90 91
f 73 91 92
f 73 92 77
f 73 75 93
f 73 93 94
f 73 94 90
f 74 76 95
f 74 95 96
f 74 96 97
f 74 97 75
f 75 97 93
f 76 84 98
f 76 98 99
f 76 99 95
f 78 79 101
f 78 101 100
f 79 102 101
f 81 103 82
f 82 103 83
f 83 99 104
f 83 104 84
f 83 103 99
f 84 99 98
f 84 89 105
f 84 105 106
f 84 106 85
f 84 104 99
f 85 106 88
f 85 88 86
f 86 88 107
f 87 108 88
f 88 106 105
f 88 105 89
f 88 108 107
f 90 109 110
f 90 110 91
f 90 94 111
f 90 111 109
f 93 97 112
f 93 112 113
f 93 113 114
f 93 114 94
f 94 114 115
f 94 115 111
f 95 116 117
f 95 117 97
f 95 97 96
f 95 99 116
f 97 117 118
f 97 118 119
f 97 119 112
f 99 103 120
f 99 120 121
f 99 121 116
f 100 101 102
f 100 102 122
f 100 122 123
f 102 124 122
f 103 125 126
f 103 126 120
f 112 119 127
f 112 127 113
f 113 127 128
f 113 128 114
f 114 128 129
f 114 129 115
f 116 121 117
f 117 121 130
f 117 130 118
f 118 130 131
f 118 131 132
f 118 132 119
f 119 132 127
f 120 126 133
f 120 133 121
f 121 133 126
f 121 126 130
f 122 124 134
f 122 134 132
f 122 132 135
f 122 135 136
f 122 136 123
f 123 136 137
f 123 137 138
f 124 139 134
f 125 140 141
f 125 141 126
f 126 136 135
f 126 135 130
f 126 141 138
f 126 138 137
f 126 137 136
f 127 142 128
f 127 132 142
f 130 135 132
f 130 132 131
f 132 134 143
f 132 143 144
f 132 144 145
f 132 145 142
f 134 139 143
f 138 141 140
f 139 145 144
f 139 144 143

