# https://github.com/mikedh/trimesh
v 0.02404215 -0.00179273 0.03501113
v 0.02393427 -0.00316561 0.03501113
v 0.02389830 -0.00316561 0.03472867
v 0.02400408 -0.00179273 0.03472867
v 0.02387504 -0.00035292 0.03501113
v 0.01997220 -0.00316561 0.03501113
v 0.02365504 -0.00316561 0.03326872
v 0.02376504 -0.00179273 0.03326872
v 0.02383273 -0.00033013 0.03472867
v 0.02321293 0.00259364 0.03501113
v 0.01584726 0.01138347 0.03501113
v 0.01350979 0.01138347 0.03044785
v 0.00586278 0.01138347 0.01428561
v 0.00539528 0.01138347 0.01306042
v 0.00539105 0.01126527 0.01290635
v 0.00528317 0.01071128 0.01194528
v 0.01051868 -0.00316561 0.00850814
v 0.02335466 -0.00316561 0.03180509
v 0.02347101 -0.00179273 0.03180509
v 0.02329754 -0.00033013 0.03180509
v 0.02358735 -0.00033013 0.03326872
v 0.02317062 0.00259364 0.03472867
v 0.02292524 0.00385544 0.03501113
v 0.01962952 0.01138347 0.03501113
v 0.00490664 0.01138347 0.01153077
v 0.00350839 0.01138347 0.00605409
v 0.01012945 -0.00316561 0.00704085
v 0.01048906 -0.00316561 0.00840910
v 0.02293793 -0.00316561 0.03005535
v 0.02283428 -0.00282096 0.02947577
v 0.02311351 -0.00179273 0.03034514
v 0.02284486 -0.00084852 0.02941707
v 0.02284274 0.00206244 0.03231498
v 0.02273063 0.00303798 0.03287255
v 0.02296120 -0.00034865 0.03035248
v 0.02285120 0.00064399 0.03084768
v 0.02274120 0.00161953 0.03134290
v 0.02282582 0.00345098 0.03384830
v 0.02290197 0.00376856 0.03472867
v 0.02286178 0.00413030 0.03501113
v 0.02035508 0.01137920 0.03501113
v 0.02026412 0.01138347 0.03472867
v 0.01010830 -0.00316561 0.00695281
v 0.00318051 0.01138347 0.00420530
v 0.02267986 -0.00316561 0.02908693
v 0.02215102 -0.00316561 0.02732985
v 0.02230756 -0.00179273 0.02742155
v 0.02266505 -0.00179273 0.02863207
v 0.02286178 -0.00179273 0.02936572
v 0.02259948 -0.00034865 0.02891086
v 0.02273274 0.00012702 0.02987194
v 0.01329825 0.00259364 -0.00245987
v 0.02261217 0.00256801 0.03181976
v 0.02258679 0.00398503 0.03332374
v 0.02261217 0.00113104 0.03035248
v 0.02223775 0.00259364 0.03034514
v 0.02272851 0.00449773 0.03472867
v 0.02275178 0.00459457 0.03501113
v 0.02024931 0.01138347 0.03467732
v 0.02107219 0.00961184 0.03501113
v 0.02121392 0.00887840 0.03442788
v 0.01103482 0.00890261 -0.00245987
v 0.01088887 0.00915611 -0.00245987
v 0.01045099 0.00984397 -0.00245987
v 0.01110675 0.01063865 0.00181362
v 0.00977196 -0.00316561 0.00477021
v 0.00291820 0.01138347 0.00238953
v 0.01231038 -0.00316561 -0.00245987
v 0.02222083 0.00113104 0.02888151
v 0.01315652 0.00307643 -0.00245987
v 0.02221025 0.00405482 0.03180509
v 0.02213198 0.00551599 0.03326872
v 0.02245775 0.00551599 0.03472867
v 0.02250640 0.00552311 0.03501113
v 0.00972965 0.01068564 -0.00245987
v 0.00823198 0.01138347 -0.00245987
v 0.02145930 0.00865054 0.03501113
v 0.02141276 0.00790428 0.03373825
v 0.02160526 0.00701989 0.03325772
v 0.01017599 0.01018719 -0.00245987
v 0.00254801 0.01138347 -0.00036531
v 0.00970215 -0.00316561 0.00422732
v 0.00891947 -0.00316561 -0.00245987
v 0.02199872 0.00697859 0.03472867
v 0.02205795 0.00697859 0.03501113
v 0.00243379 0.01138347 -0.00245987
v 0.02150795 0.00841128 0.03484239
v 0.00246340 0.01138347 -0.00102560
v 0.00962388 -0.00316561 0.00357437
v 0.00892370 -0.00316561 -0.00242319
v 0.00244225 0.01138347 -0.00185462
v 0.00243802 0.01138347 -0.00207104
v 0.00243167 0.01138347 -0.00242686
f 1 2 3
f 1 3 4
f 1 4 5
f 1 5 10
f 1 10 23
f 1 23 40
f 1 40 58
f 1 58 74
f 1 74 85
f 1 85 77
f 1 77 60
f 1 60 41
f 1 41 24
f 1 24 11
f 1 11 6
f 1 6 2
f 2 6 17
f 2 17 28
f 2 28 27
f 2 27 43
f 2 43 66
f 2 66 82
f 2 82 89
f 2 89 90
f 2 90 83
f 2 83 68
f 2 68 46
f 2 46 45
f 2 45 29
f 2 29 18
f 2 18 7
f 2 7 3
f 3 7 8
f 3 8 4
f 4 8 9
f 4 9 5
f 5 9 10
f 6 11 12
f 6 12 13
f 6 13 14
f 6 14 15
f 6 15 16
f 6 16 17
f 7 18 19
f 7 19 8
f 8 19 20
f 8 20 21
f 8 21 9
f 9 21 22
f 9 22 10
f 10 22 23
f 11 24 42
f 11 42 59
f 11 59 76
f 11 76 86
f 11 86 93
f 11 93 92
f 11 92 91
f 11 91 88
f 11 88 81
f 11 81 67
f 11 67 44
f 11 44 26
f 11 26 25
f 11 25 14
f 11 14 13
f 11 13 12
f 14 25 16
f 14 16 15
f 16 25 26
f 16 26 27
f 16 27 28
f 16 28 17
f 18 29 30
f 18 30 19
f 19 30 31
f 19 31 32
f 19 32 20
f 20 33 34
f 20 34 21
f 20 32 35
f 20 35 36
f 20 36 37
f 20 37 33
f 21 34 38
f 21 38 22
f 22 38 39
f 22 39 23
f 23 39 40
f 24 41 42
f 26 43 27
f 26 44 43
f 29 45 30
f 30 45 46
f 30 46 47
f 30 47 48
f 30 48 49
f 30 49 31
f 31 49 32
f 32 50 51
f 32 51 35
f 32 49 48
f 32 48 52
f 32 52 50
f 33 37 34
f 34 37 53
f 34 53 54
f 34 54 38
f 35 51 36
f 36 51 37
f 37 51 55
f 37 55 56
f 37 56 53
f 38 54 57
f 38 57 39
f 39 58 40
f 39 57 58
f 41 59 42
f 41 60 61
f 41 61 62
f 41 62 63
f 41 63 64
f 41 64 65
f 41 65 59
f 43 44 66
f 44 67 66
f 46 68 52
f 46 52 47
f 47 52 48
f 50 69 55
f 50 55 51
f 50 52 69
f 52 68 83
f 52 83 86
f 52 86 76
f 52 76 75
f 52 75 80
f 52 80 64
f 52 64 63
f 52 63 62
f 52 62 70
f 52 70 71
f 52 71 56
f 52 56 69
f 53 71 54
f 53 56 71
f 54 72 73
f 54 73 57
f 54 71 72
f 55 69 56
f 57 73 74
f 57 74 58
f 59 65 75
f 59 75 76
f 60 77 61
f 61 78 62
f 61 77 78
f 62 78 79
f 62 79 70
f 64 80 65
f 65 80 75
f 66 67 81
f 66 81 82
f 70 79 72
f 70 72 71
f 72 79 84
f 72 84 73
f 73 84 85
f 73 85 74
f 77 85 84
f 77 84 87
f 77 87 78
f 78 87 84
f 78 84 79
f 81 88 82
f 82 88 89
f 83 90 88
f 83 88 91
f 83 91 92
f 83 92 93
f 83 93 86
f 88 90 89

