# https://github.com/mikedh/trimesh
v 0.02644174 0.00275516 -0.06908356
v 0.02633216 0.00112935 -0.06908356
v 0.02622849 0.00112935 -0.07053838
v 0.02631439 0.00259119 -0.07053838
v 0.02632327 0.00275516 -0.07053838
v 0.02210880 0.00275516 -0.06908356
v 0.02619592 -0.00033250 -0.06908356
v 0.02611299 -0.00033250 -0.07053838
v 0.02579313 -0.00179434 -0.07146841
v 0.02586125 -0.00033250 -0.07164167
v 0.02591456 0.00112935 -0.07175765
v 0.02595898 0.00275516 -0.07182781
v 0.02209399 0.00275285 -0.06908356
v -0.00381184 0.00275516 -0.06911578
v 0.02601525 -0.00179434 -0.06908356
v 0.02595898 -0.00179434 -0.07053838
v 0.02574574 -0.00269731 -0.07133882
v 0.02549696 -0.00179434 -0.07219940
v 0.02556508 -0.00033250 -0.07237265
v 0.02560950 0.00112935 -0.07248864
v 0.02563320 0.00259119 -0.07255308
v 0.02563616 0.00275516 -0.07255881
v -0.00381184 -0.01666913 -0.06908356
v -0.00381184 0.00275516 -0.07397711
v 0.02581682 -0.00312455 -0.06908356
v 0.02579609 -0.00300908 -0.07053838
v 0.02568355 -0.00374116 -0.07053838
v 0.02552954 -0.00471803 -0.07053838
v 0.02526299 -0.00617988 -0.07053838
v 0.02493128 -0.00617988 -0.07200036
v 0.02518599 -0.00471803 -0.07200036
v 0.02544661 -0.00321231 -0.07189583
v 0.02458180 -0.00471803 -0.07318670
v 0.02468250 -0.00325619 -0.07330411
v 0.02476543 -0.00179434 -0.07338573
v 0.02483355 -0.00033250 -0.07343370
v 0.02487797 0.00112935 -0.07345232
v 0.02490166 0.00259119 -0.07345875
v 0.02490462 0.00275516 -0.07345804
v -0.00381184 -0.02083758 -0.06908356
v 0.00744551 -0.01056541 -0.07613499
v 0.00305926 -0.01056541 -0.07587009
v 0.00145699 -0.01041992 -0.07575624
v 0.00013608 -0.01077095 -0.07571401
v -0.00098047 -0.01108041 -0.07567893
v -0.00381184 -0.01056541 -0.07544409
v 0.01914119 0.00275516 -0.07528730
v 0.01182880 -0.00910357 -0.07623522
v 0.01037165 -0.00910357 -0.07614859
v 0.02569835 -0.00385663 -0.06908356
v 0.02554139 -0.00471803 -0.06908356
v 0.02524226 -0.00617988 -0.06908356
v 0.02494016 -0.00764403 -0.07053838
v 0.02437449 -0.00910357 -0.07156434
v 0.02456107 -0.00769022 -0.07208627
v 0.02433894 -0.00723296 -0.07285306
v 0.02445445 -0.00617988 -0.07301558
v 0.02401020 -0.00471803 -0.07391768
v 0.02411089 -0.00325619 -0.07403509
v 0.02418198 -0.00179434 -0.07411671
v 0.02422640 -0.00033250 -0.07416468
v 0.02424713 0.00112935 -0.07418330
v 0.02425305 0.00259119 -0.07418974
v 0.02425305 0.00275516 -0.07418903
v -0.00381184 -0.02030873 -0.07025486
v -0.00278710 -0.02029257 -0.07023553
v -0.00132699 -0.02026254 -0.07019043
v -0.00279302 -0.02080064 -0.06908356
v 0.00890858 -0.01056541 -0.07621804
v 0.00305926 -0.01202726 -0.07599179
v -0.00195487 -0.01141527 -0.07564814
v -0.00381184 -0.01099265 -0.07548061
v 0.02060130 0.00275516 -0.07534458
v 0.01621505 -0.00764403 -0.07629894
v 0.01621505 -0.00617988 -0.07613786
v 0.01475494 -0.00764403 -0.07623093
v 0.01329187 -0.00910357 -0.07631683
v 0.02489574 -0.00764403 -0.06908356
v 0.02432117 -0.00999961 -0.06943653
v 0.02456107 -0.00910357 -0.07053838
v 0.02426194 -0.00984026 -0.07127582
v 0.02420863 -0.00820752 -0.07263111
v 0.02376142 -0.00769022 -0.07338931
v 0.02386508 -0.00617988 -0.07374657
v 0.02313650 -0.00617988 -0.07448472
v 0.02327866 -0.00471803 -0.07458781
v 0.02337936 -0.00325619 -0.07463220
v 0.02345044 -0.00179434 -0.07464796
v 0.02349486 -0.00033250 -0.07464580
v 0.02351560 0.00112935 -0.07463292
v 0.02352448 0.00259119 -0.07460643
v 0.02352152 0.00275516 -0.07460142
v -0.00381184 -0.01990690 -0.07098657
v -0.00278710 -0.01989997 -0.07096652
v -0.00132699 -0.01987919 -0.07092142
v 0.00013608 -0.01984455 -0.07083980
v 0.00013608 -0.02021636 -0.07010881
v -0.00132699 -0.02072673 -0.06908356
v 0.01037165 -0.01056541 -0.07629465
v 0.00452233 -0.01202726 -0.07606841
v 0.00159915 -0.01348910 -0.07587009
v -0.00237542 -0.01305955 -0.07567463
v -0.00237542 -0.01238983 -0.07567463
v 0.00159915 -0.01202726 -0.07590517
v -0.00381184 -0.01200416 -0.07556508
v 0.02060130 0.00259119 -0.07535961
v 0.02018074 -0.00079669 -0.07568179
v 0.01914119 -0.00325619 -0.07591733
v 0.01767812 -0.00617988 -0.07619441
v 0.01939886 -0.00079669 -0.07568179
v 0.02206437 0.00275516 -0.07517704
v 0.01767812 -0.00764403 -0.07631183
v 0.01621505 -0.00910357 -0.07639345
v 0.01475494 -0.00910357 -0.07637626
v 0.01182880 -0.01056541 -0.07635622
v 0.02444853 -0.00935760 -0.06908356
v 0.02430637 -0.00996497 -0.07053838
v 0.02411978 -0.01041992 -0.06908356
v 0.02344748 -0.01202726 -0.06908356
v 0.02401612 -0.01069474 -0.07053838
v 0.02339417 -0.01202726 -0.07053838
v 0.02281960 -0.01278705 -0.07130589
v 0.02372884 -0.01042223 -0.07185788
v 0.02405462 -0.00910357 -0.07229605
v 0.02301211 -0.01056541 -0.07299625
v 0.02323424 -0.00900426 -0.07351030
v 0.02282256 -0.00844770 -0.07421838
v 0.02294399 -0.00764403 -0.07432291
v 0.02206437 -0.00764403 -0.07495940
v 0.02193702 -0.00616602 -0.07529160
v 0.02212657 -0.00471803 -0.07531881
v 0.02212064 -0.00325619 -0.07536319
v 0.02193406 -0.00183360 -0.07542477
v 0.02206437 -0.00033250 -0.07533169
v 0.02206437 0.00112935 -0.07527155
v 0.02206437 0.00259119 -0.07518922
v -0.00381184 -0.01926489 -0.07200036
v -0.00278710 -0.01925565 -0.07200036
v -0.00132699 -0.01922332 -0.07200036
v 0.00013608 -0.01916328 -0.07200036
v 0.00168504 -0.01898776 -0.07214140
v 0.00305926 -0.01900624 -0.07192805
v 0.00159915 -0.01979605 -0.07072453
v 0.00159915 -0.02015631 -0.06999354
v 0.00013608 -0.02061588 -0.06908356
v 0.00890858 -0.01202726 -0.07627603
v 0.00744551 -0.01202726 -0.07621302
v -0.00084127 -0.01426737 -0.07566747
v -0.00181567 -0.01403412 -0.07564241
v 0.00013608 -0.01348910 -0.07579061
v 0.00305926 -0.01348910 -0.07593524
v -0.00381184 -0.01350065 -0.07556652
v 0.02060130 0.00112935 -0.07549206
v 0.02064276 -0.00031864 -0.07560518
v 0.02064276 -0.00183360 -0.07572117
v 0.01914119 -0.00471803 -0.07605194
v 0.02115514 -0.00137403 -0.07563883
v 0.01914119 -0.00617988 -0.07615002
v 0.01914119 -0.00764403 -0.07616649
v 0.01767812 -0.00910357 -0.07631683
v 0.01475494 -0.01056541 -0.07638986
v 0.01329187 -0.01056541 -0.07639703
v 0.02293511 -0.01295563 -0.06908356
v 0.02290253 -0.01290714 -0.07053838
v 0.02222430 -0.01363690 -0.07053838
v 0.02149277 -0.01435743 -0.07053838
v 0.02134468 -0.01422811 -0.07128298
v 0.02189259 -0.01332513 -0.07178199
v 0.02146611 -0.01288866 -0.07286022
v 0.02244050 -0.01230900 -0.07228101
v 0.02281960 -0.01133444 -0.07275999
v 0.02300026 -0.01190486 -0.07187578
v 0.02229835 -0.01056541 -0.07372724
v 0.02261821 -0.00941995 -0.07403009
v 0.02210584 -0.00900426 -0.07457707
v 0.02081750 -0.00910357 -0.07538538
v 0.02112552 -0.00764403 -0.07556079
v 0.02127953 -0.00664175 -0.07563454
v 0.02136541 -0.00566719 -0.07566962
v 0.02139503 -0.00471803 -0.07568108
v 0.02138911 -0.00325619 -0.07567678
v 0.02135949 -0.00234860 -0.07566389
v -0.00381184 -0.01869447 -0.07284017
v -0.00278710 -0.01869216 -0.07284017
v -0.00132699 -0.01868292 -0.07282872
v 0.00013608 -0.01865521 -0.07279507
v 0.00125856 -0.01862750 -0.07275856
v 0.00223295 -0.01859978 -0.07272276
v 0.00305926 -0.01855822 -0.07265904
v 0.00452233 -0.01893234 -0.07181063
v 0.00310369 -0.01979143 -0.07044102
v 0.00264462 -0.02010551 -0.06988902
v 0.00159915 -0.02047963 -0.06908356
v 0.00598540 -0.01348910 -0.07602831
v 0.00452233 -0.01348910 -0.07598464
v 0.01037165 -0.01202726 -0.07630610
v 0.00013608 -0.01434589 -0.07569110
v -0.00381184 -0.01495095 -0.07534386
v 0.00159915 -0.01444519 -0.07572403
v 0.02060130 -0.00325619 -0.07581495
v 0.02060130 -0.00471803 -0.07587223
v 0.02071681 -0.00616602 -0.07583643
v 0.02039398 -0.00764403 -0.07584431
v 0.01914119 -0.00910357 -0.07603833
v 0.01767812 -0.01056541 -0.07608702
v 0.01621505 -0.01056541 -0.07630252
v 0.01329187 -0.01202726 -0.07625026
v 0.01182880 -0.01202726 -0.07629751
v 0.02234573 -0.01368540 -0.06908356
v 0.02161716 -0.01446366 -0.06908356
v 0.01989050 -0.01569457 -0.06984176
v 0.02085600 -0.01386322 -0.07225738
v 0.01954398 -0.01551213 -0.07081617
v 0.01856959 -0.01576385 -0.07141471
v 0.02046210 -0.01441979 -0.07186218
v 0.01988161 -0.01422580 -0.07273779
v 0.02037325 -0.01331821 -0.07328621
v 0.01988753 -0.01277088 -0.07420335
v 0.02086489 -0.01227205 -0.07383463
v 0.02133580 -0.01129749 -0.07419404
v 0.02188963 -0.01180325 -0.07329766
v 0.02156681 -0.01056541 -0.07436801
v 0.02046803 -0.01043609 -0.07510688
v 0.01989346 -0.00986336 -0.07566532
v 0.02008597 -0.00910357 -0.07574479
v -0.00381184 -0.01799934 -0.07357116
v -0.00278710 -0.01801089 -0.07357116
v -0.00132699 -0.01801782 -0.07355970
v 0.00013608 -0.01800165 -0.07352605
v 0.00168504 -0.01809403 -0.07333203
v 0.00305926 -0.01719798 -0.07424416
v 0.00404254 -0.01716334 -0.07421122
v 0.00501693 -0.01712408 -0.07417256
v 0.00598540 -0.01708020 -0.07412603
v 0.00598540 -0.01767603 -0.07339504
v 0.00744551 -0.01758596 -0.07330697
v 0.00452233 -0.01848201 -0.07254162
v 0.00452233 -0.01958821 -0.07053838
v 0.00598540 -0.01840580 -0.07240631
v 0.00598540 -0.01883996 -0.07167532
v 0.00361902 -0.02004777 -0.06974081
v 0.00169985 -0.02046808 -0.06908356
v 0.00310369 -0.02027871 -0.06918237
v 0.00744551 -0.01348910 -0.07605766
v 0.00305926 -0.01449831 -0.07574765
v 0.00890858 -0.01348910 -0.07606268
v -0.00278710 -0.01495095 -0.07538897
v 0.00013608 -0.01507796 -0.07547201
v -0.00381184 -0.01641279 -0.07477611
v 0.00159915 -0.01517496 -0.07548490
v 0.01902273 -0.01043609 -0.07577343
v 0.01845704 -0.01132982 -0.07567176
v 0.01767812 -0.01157923 -0.07577486
v 0.01620024 -0.01208730 -0.07590015
v 0.01475494 -0.01202726 -0.07613356
v 0.01329187 -0.01327895 -0.07587940
v 0.01184953 -0.01359764 -0.07589514
v 0.01037165 -0.01348910 -0.07602903
v 0.02061907 -0.01519574 -0.06908356
v 0.01988753 -0.01569226 -0.06908356
v 0.01914119 -0.01608486 -0.06908356
v 0.01747377 -0.01688853 -0.06908356
v 0.01687847 -0.01711946 -0.06948808
v 0.01767812 -0.01649131 -0.07053838
v 0.01909084 -0.01589087 -0.07041238
v 0.01795060 -0.01545901 -0.07238912
v 0.01909084 -0.01515648 -0.07194094
v 0.01632167 -0.01698552 -0.07063432
v 0.01537097 -0.01711023 -0.07118560
v 0.01754781 -0.01590703 -0.07194094
v 0.01697620 -0.01569457 -0.07274567
v 0.01914119 -0.01442210 -0.07295472
v 0.01804241 -0.01402257 -0.07399786
v 0.01914119 -0.01371542 -0.07368571
v 0.02046803 -0.01188176 -0.07438878
v 0.01914119 -0.01298565 -0.07437589
v 0.01902273 -0.01190255 -0.07511332
v 0.01943144 -0.01083792 -0.07548204
v -0.00381184 -0.01726958 -0.07429284
v -0.00278710 -0.01728112 -0.07430430
v -0.00132699 -0.01728805 -0.07431360
v 0.00013608 -0.01727188 -0.07430501
v 0.00159915 -0.01723955 -0.07428066
v 0.00598540 -0.01634813 -0.07472241
v 0.00744551 -0.01627192 -0.07468662
v 0.00890858 -0.01617030 -0.07462719
v 0.00744551 -0.01700168 -0.07403796
v 0.00890858 -0.01690238 -0.07390623
v 0.00890858 -0.01746818 -0.07317524
v 0.00598540 -0.01940114 -0.07053838
v 0.00744551 -0.01831573 -0.07222803
v 0.00744551 -0.01873142 -0.07149705
v 0.00452233 -0.01999235 -0.06953963
v 0.00310072 -0.02030411 -0.06908356
v 0.00347982 -0.02025793 -0.06908356
v 0.00598540 -0.01452140 -0.07577772
v 0.00452233 -0.01451678 -0.07576341
v 0.00744551 -0.01449369 -0.07577844
v -0.00278710 -0.01641279 -0.07480690
v -0.00132699 -0.01641279 -0.07484198
v 0.00305926 -0.01522807 -0.07548633
v 0.01767812 -0.01230900 -0.07540973
v 0.01667707 -0.01261384 -0.07558227
v 0.01570268 -0.01284940 -0.07570614
v 0.01475494 -0.01302722 -0.07578918
v 0.01235006 -0.01415882 -0.07562523
v 0.01137566 -0.01428122 -0.07568895
v 0.01037165 -0.01435512 -0.07572475
v 0.00890858 -0.01443364 -0.07575768
v 0.01691697 -0.01713563 -0.06908356
v 0.01638387 -0.01733655 -0.06908356
v 0.01475494 -0.01789542 -0.06908356
v 0.01590111 -0.01729036 -0.07021048
v 0.01483195 -0.01747049 -0.07063432
v 0.01329187 -0.01793006 -0.07053838
v 0.01439658 -0.01724879 -0.07146626
v 0.01483195 -0.01682617 -0.07197244
v 0.01621505 -0.01636891 -0.07200036
v 0.01621505 -0.01581466 -0.07291105
v 0.01475494 -0.01546594 -0.07394131
v 0.01621505 -0.01519343 -0.07364204
v 0.01706505 -0.01427891 -0.07424559
v 0.01750931 -0.01486781 -0.07337213
v 0.01329187 -0.01698552 -0.07246787
v 0.01760408 -0.01351681 -0.07461359
v 0.00013608 -0.01641279 -0.07485271
v 0.00159915 -0.01641279 -0.07484198
v 0.00305926 -0.01641279 -0.07480690
v 0.00452529 -0.01654674 -0.07464580
v 0.00744551 -0.01522576 -0.07541760
v 0.00890858 -0.01516572 -0.07535818
v 0.01037165 -0.01508489 -0.07526367
v 0.01037165 -0.01604560 -0.07453268
v 0.01182880 -0.01589087 -0.07439809
v 0.01037165 -0.01677537 -0.07372509
v 0.01037165 -0.01732500 -0.07299411
v 0.00893228 -0.01826030 -0.07190514
v 0.00846137 -0.01865059 -0.07135385
v 0.00943576 -0.01857438 -0.07119419
v 0.00744551 -0.01917251 -0.07053838
v 0.00452233 -0.02012167 -0.06908356
v 0.00593801 -0.01992537 -0.06908356
v 0.00452233 -0.01524886 -0.07547631
v 0.00598540 -0.01525348 -0.07545340
v 0.01620024 -0.01339903 -0.07519709
v 0.01475494 -0.01375930 -0.07536963
v 0.01329187 -0.01400871 -0.07553931
v 0.01184953 -0.01484240 -0.07521642
v 0.01298682 -0.01840810 -0.06908356
v 0.01228786 -0.01853743 -0.06941863
v 0.01131347 -0.01865752 -0.06994843
v 0.01181103 -0.01832958 -0.07047682
v 0.01037165 -0.01847739 -0.07095291
v 0.01329187 -0.01739890 -0.07173689
v 0.01475494 -0.01604098 -0.07321032
v 0.01382201 -0.01561605 -0.07411958
v 0.01621505 -0.01446136 -0.07440596
v 0.01240040 -0.01710792 -0.07267120
v 0.01331852 -0.01505718 -0.07473530
v 0.01284762 -0.01576385 -0.07427709
v 0.01187915 -0.01670377 -0.07338000
v 0.01142601 -0.01721415 -0.07283802
v 0.01037165 -0.01792775 -0.07200036
v 0.01187915 -0.01753516 -0.07211062
v 0.01037165 -0.01876837 -0.07022193
v 0.00893228 -0.01888153 -0.07063933
v 0.00744551 -0.01967827 -0.06908356
v 0.01475494 -0.01473386 -0.07463864
v 0.01240040 -0.01856745 -0.06908356
v 0.01191469 -0.01869447 -0.06908356
v 0.01037165 -0.01908476 -0.06908356
v 0.00890858 -0.01939883 -0.06908356
v 0.01331852 -0.01619109 -0.07356400
f 1 2 3
f 1 3 4
f 1 4 5
f 1 5 12
f 1 12 22
f 1 22 39
f 1 39 64
f 1 64 92
f 1 92 111
f 1 111 73
f 1 73 47
f 1 47 24
f 1 24 14
f 1 14 6
f 1 6 13
f 1 13 23
f 1 23 40
f 1 40 68
f 1 68 98
f 1 98 145
f 1 145 193
f 1 193 242
f 1 242 294
f 1 294 295
f 1 295 341
f 1 341 342
f 1 342 367
f 1 367 372
f 1 372 371
f 1 371 370
f 1 370 369
f 1 369 349
f 1 349 312
f 1 312 311
f 1 311 310
f 1 310 262
f 1 262 261
f 1 261 260
f 1 260 259
f 1 259 210
f 1 210 209
f 1 209 163
f 1 163 119
f 1 119 118
f 1 118 116
f 1 116 78
f 1 78 52
f 1 52 51
f 1 51 50
f 1 50 25
f 1 25 15
f 1 15 7
f 1 7 2
f 2 7 8
f 2 8 3
f 3 8 9
f 3 9 10
f 3 10 4
f 4 10 11
f 4 11 5
f 5 11 12
f 6 14 13
f 7 15 16
f 7 16 8
f 8 16 17
f 8 17 9
f 9 17 18
f 9 18 19
f 9 19 10
f 10 19 11
f 11 19 20
f 11 20 12
f 12 20 21
f 12 21 22
f 13 14 23
f 14 24 46
f 14 46 72
f 14 72 105
f 14 105 152
f 14 152 198
f 14 198 249
f 14 249 279
f 14 279 226
f 14 226 183
f 14 183 137
f 14 137 93
f 14 93 65
f 14 65 40
f 14 40 23
f 15 25 26
f 15 26 16
f 16 26 17
f 17 26 27
f 17 27 28
f 17 28 29
f 17 29 30
f 17 30 31
f 17 31 32
f 17 32 18
f 18 32 31
f 18 31 33
f 18 33 19
f 19 33 34
f 19 34 35
f 19 35 20
f 20 35 36
f 20 36 21
f 21 36 22
f 22 36 37
f 22 37 38
f 22 38 39
f 24 41 42
f 24 42 43
f 24 43 44
f 24 44 45
f 24 45 46
f 24 47 48
f 24 48 49
f 24 49 41
f 25 50 28
f 25 28 27
f 25 27 26
f 28 51 29
f 28 50 51
f 29 51 52
f 29 52 53
f 29 53 30
f 30 53 54
f 30 54 55
f 30 55 56
f 30 56 57
f 30 57 31
f 31 57 33
f 33 57 58
f 33 58 59
f 33 59 34
f 34 59 35
f 35 59 60
f 35 60 36
f 36 60 61
f 36 61 37
f 37 61 62
f 37 62 38
f 38 62 39
f 39 62 63
f 39 63 64
f 40 65 66
f 40 66 67
f 40 67 68
f 41 69 70
f 41 70 71
f 41 71 45
f 41 45 42
f 41 49 48
f 41 48 69
f 42 45 44
f 42 44 43
f 45 71 46
f 46 71 72
f 47 73 74
f 47 74 75
f 47 75 76
f 47 76 77
f 47 77 48
f 48 77 69
f 52 78 53
f 53 78 79
f 53 79 80
f 53 80 81
f 53 81 54
f 54 81 82
f 54 82 55
f 55 82 56
f 56 82 83
f 56 83 84
f 56 84 57
f 57 84 58
f 58 84 85
f 58 85 86
f 58 86 59
f 59 86 60
f 60 86 87
f 60 87 61
f 61 87 88
f 61 88 62
f 62 88 89
f 62 89 63
f 63 89 90
f 63 90 64
f 64 90 91
f 64 91 92
f 65 93 94
f 65 94 66
f 66 94 95
f 66 95 67
f 67 95 96
f 67 96 97
f 67 97 98
f 67 98 68
f 69 77 99
f 69 99 100
f 69 100 70
f 70 100 101
f 70 101 102
f 70 102 103
f 70 103 104
f 70 104 71
f 71 104 105
f 71 105 72
f 73 106 107
f 73 107 108
f 73 108 109
f 73 109 110
f 73 110 74
f 73 111 106
f 74 109 112
f 74 112 113
f 74 113 114
f 74 114 77
f 74 77 76
f 74 76 75
f 74 110 109
f 77 115 99
f 77 114 115
f 78 116 79
f 79 117 80
f 79 116 118
f 79 118 119
f 79 119 120
f 79 120 117
f 80 117 81
f 81 117 120
f 81 120 121
f 81 121 122
f 81 122 123
f 81 123 124
f 81 124 82
f 82 124 125
f 82 125 126
f 82 126 83
f 83 126 127
f 83 127 84
f 84 127 128
f 84 128 85
f 85 128 129
f 85 129 130
f 85 130 86
f 86 130 131
f 86 131 87
f 87 131 88
f 88 131 132
f 88 132 89
f 89 132 90
f 90 132 91
f 91 132 133
f 91 133 134
f 91 134 92
f 92 134 135
f 92 135 136
f 92 136 111
f 93 137 138
f 93 138 94
f 94 138 139
f 94 139 95
f 95 139 140
f 95 140 96
f 96 140 141
f 96 141 142
f 96 142 143
f 96 143 97
f 97 143 144
f 97 144 98
f 98 144 145
f 99 115 146
f 99 146 147
f 99 147 100
f 100 147 101
f 101 148 149
f 101 149 150
f 101 150 102
f 101 147 151
f 101 151 148
f 102 150 152
f 102 152 103
f 103 152 105
f 103 105 104
f 106 153 107
f 106 111 153
f 107 153 154
f 107 154 155
f 107 155 156
f 107 156 108
f 108 156 109
f 109 156 112
f 111 136 157
f 111 157 153
f 112 156 158
f 112 158 159
f 112 159 160
f 112 160 113
f 113 160 161
f 113 161 162
f 113 162 114
f 114 162 115
f 115 162 146
f 119 163 121
f 119 121 120
f 121 163 164
f 121 164 122
f 122 164 165
f 122 165 166
f 122 166 167
f 122 167 168
f 122 168 169
f 122 169 170
f 122 170 171
f 122 171 172
f 122 172 123
f 123 172 171
f 123 171 124
f 124 171 125
f 125 171 173
f 125 173 174
f 125 174 126
f 126 174 127
f 127 174 175
f 127 175 129
f 127 129 128
f 129 175 176
f 129 176 177
f 129 177 178
f 129 178 130
f 130 178 131
f 131 178 179
f 131 179 132
f 132 179 180
f 132 180 181
f 132 181 133
f 133 181 182
f 133 182 134
f 134 182 135
f 135 182 136
f 136 182 157
f 137 183 184
f 137 184 138
f 138 184 185
f 138 185 139
f 139 185 186
f 139 186 140
f 140 186 187
f 140 187 188
f 140 188 141
f 141 188 142
f 142 188 189
f 142 189 190
f 142 190 143
f 143 190 191
f 143 191 144
f 144 191 192
f 144 192 145
f 145 192 193
f 146 194 195
f 146 195 151
f 146 151 147
f 146 162 196
f 146 196 194
f 148 151 197
f 148 197 198
f 148 198 149
f 149 198 152
f 149 152 150
f 151 195 199
f 151 199 197
f 153 157 154
f 154 157 155
f 155 157 200
f 155 200 158
f 155 158 156
f 157 182 200
f 158 200 201
f 158 201 159
f 159 201 202
f 159 202 203
f 159 203 204
f 159 204 160
f 160 204 205
f 160 205 206
f 160 206 161
f 161 206 207
f 161 207 208
f 161 208 196
f 161 196 162
f 163 209 164
f 164 209 165
f 165 209 210
f 165 210 166
f 166 211 167
f 166 210 211
f 167 212 169
f 167 169 168
f 167 211 213
f 167 213 214
f 167 214 215
f 167 215 216
f 167 216 212
f 169 212 216
f 169 216 217
f 169 217 218
f 169 218 219
f 169 219 220
f 169 220 221
f 169 221 171
f 169 171 170
f 171 221 220
f 171 220 173
f 173 222 174
f 173 220 222
f 174 222 175
f 175 222 176
f 176 223 224
f 176 224 225
f 176 225 177
f 176 222 223
f 177 225 203
f 177 203 178
f 178 203 179
f 179 203 202
f 179 202 180
f 180 202 201
f 180 201 181
f 181 201 182
f 182 201 200
f 183 226 227
f 183 227 184
f 184 227 228
f 184 228 185
f 185 228 229
f 185 229 186
f 186 229 230
f 186 230 187
f 187 230 188
f 188 230 231
f 188 231 232
f 188 232 233
f 188 233 234
f 188 234 235
f 188 235 236
f 188 236 189
f 189 237 190
f 189 236 237
f 190 238 191
f 190 237 239
f 190 239 240
f 190 240 238
f 191 238 192
f 192 238 241
f 192 241 193
f 193 241 243
f 193 243 242
f 194 196 244
f 194 244 245
f 194 245 199
f 194 199 195
f 196 208 246
f 196 246 244
f 197 199 247
f 197 247 198
f 198 247 248
f 198 248 249
f 199 250 248
f 199 248 247
f 199 245 250
f 203 225 204
f 204 225 224
f 204 224 251
f 204 251 205
f 205 251 252
f 205 252 253
f 205 253 254
f 205 254 255
f 205 255 206
f 206 255 207
f 207 256 257
f 207 257 258
f 207 258 208
f 207 255 256
f 208 258 246
f 210 259 211
f 211 259 260
f 211 260 261
f 211 261 262
f 211 262 263
f 211 263 264
f 211 264 265
f 211 265 213
f 213 265 214
f 214 266 267
f 214 267 215
f 214 265 264
f 214 264 268
f 214 268 269
f 214 269 270
f 214 270 271
f 214 271 266
f 215 267 216
f 216 267 266
f 216 266 271
f 216 271 272
f 216 272 273
f 216 273 274
f 216 274 218
f 216 218 217
f 218 275 220
f 218 220 219
f 218 274 273
f 218 273 276
f 218 276 277
f 218 277 278
f 218 278 275
f 220 275 223
f 220 223 222
f 223 275 278
f 223 278 224
f 224 278 252
f 224 252 251
f 226 279 280
f 226 280 227
f 227 280 281
f 227 281 228
f 228 281 282
f 228 282 229
f 229 282 283
f 229 283 231
f 229 231 230
f 231 284 232
f 231 283 284
f 232 284 285
f 232 285 233
f 233 285 234
f 234 285 286
f 234 286 287
f 234 287 235
f 235 287 236
f 236 239 237
f 236 287 288
f 236 288 289
f 236 289 239
f 238 240 290
f 238 290 241
f 239 289 291
f 239 291 240
f 240 291 292
f 240 292 290
f 241 290 293
f 241 293 243
f 242 243 294
f 243 293 295
f 243 295 294
f 244 246 296
f 244 296 297
f 244 297 245
f 245 297 250
f 246 298 296
f 246 258 298
f 248 250 249
f 249 299 279
f 249 250 299
f 250 300 299
f 250 297 301
f 250 301 300
f 252 278 277
f 252 277 302
f 252 302 303
f 252 303 253
f 253 303 304
f 253 304 254
f 254 304 305
f 254 305 255
f 255 305 256
f 256 306 307
f 256 307 257
f 256 305 306
f 257 307 258
f 258 307 308
f 258 308 309
f 258 309 298
f 262 310 263
f 263 310 311
f 263 311 312
f 263 312 313
f 263 313 264
f 264 313 268
f 268 313 269
f 269 313 314
f 269 314 315
f 269 315 316
f 269 316 317
f 269 317 271
f 269 271 318
f 269 318 270
f 270 318 271
f 271 319 320
f 271 320 321
f 271 321 322
f 271 322 323
f 271 323 272
f 271 317 324
f 271 324 319
f 272 323 273
f 273 323 322
f 273 322 276
f 276 322 325
f 276 325 302
f 276 302 277
f 279 299 300
f 279 300 280
f 280 300 281
f 281 300 326
f 281 326 327
f 281 327 282
f 282 327 328
f 282 328 283
f 283 328 329
f 283 329 284
f 284 330 285
f 284 329 328
f 284 328 330
f 285 330 331
f 285 331 286
f 286 331 332
f 286 332 333
f 286 333 287
f 287 333 288
f 288 333 334
f 288 334 335
f 288 335 289
f 289 335 336
f 289 336 337
f 289 337 291
f 290 292 338
f 290 338 339
f 290 339 340
f 290 340 293
f 291 337 338
f 291 338 292
f 293 341 295
f 293 340 342
f 293 342 341
f 296 298 343
f 296 343 301
f 296 301 297
f 298 330 344
f 298 344 343
f 298 309 330
f 300 301 326
f 301 343 326
f 302 325 303
f 303 325 345
f 303 345 304
f 304 345 346
f 304 346 347
f 304 347 305
f 305 347 306
f 306 347 348
f 306 348 307
f 307 332 331
f 307 331 308
f 307 348 332
f 308 331 330
f 308 330 309
f 312 349 350
f 312 350 313
f 313 350 314
f 314 350 351
f 314 351 315
f 315 351 352
f 315 352 316
f 316 352 353
f 316 353 354
f 316 354 324
f 316 324 317
f 319 355 320
f 319 324 355
f 320 355 356
f 320 356 357
f 320 357 321
f 321 357 322
f 322 357 345
f 322 345 325
f 324 354 358
f 324 358 355
f 326 343 327
f 327 343 344
f 327 344 328
f 328 344 330
f 332 348 333
f 333 348 334
f 334 348 359
f 334 359 360
f 334 360 335
f 335 360 361
f 335 361 362
f 335 362 336
f 336 362 363
f 336 363 337
f 337 363 339
f 337 339 338
f 339 363 364
f 339 364 354
f 339 354 353
f 339 353 365
f 339 365 366
f 339 366 340
f 340 366 367
f 340 367 342
f 345 357 346
f 346 357 368
f 346 368 347
f 347 368 359
f 347 359 348
f 349 369 350
f 350 369 370
f 350 370 371
f 350 371 351
f 351 371 372
f 351 372 365
f 351 365 353
f 351 353 352
f 354 364 358
f 355 373 356
f 355 358 373
f 356 368 357
f 356 373 360
f 356 360 368
f 358 364 363
f 358 363 362
f 358 362 361
f 358 361 373
f 359 368 360
f 360 373 361
f 365 372 367
f 365 367 366

