# https://github.com/mikedh/trimesh
v -0.00571321 -0.02902152 0.03676722
v -0.00425079 -0.02901011 0.03676722
v -0.00689042 -0.02900849 0.03676722
v -0.00689042 -0.02898568 0.03663280
v -0.00689042 -0.02894169 0.03637933
v -0.00571321 -0.02894820 0.03634861
v -0.00425079 -0.02894169 0.03634861
v -0.00278838 -0.02896776 0.03676722
v -0.00278838 -0.02891888 0.03646382
v -0.00689042 -0.02552200 0.03676722
v -0.00689042 -0.02883416 0.03578789
v -0.00571321 -0.02881135 0.03561890
v -0.00425079 -0.02881298 0.03561890
v -0.00278838 -0.02879506 0.03573412
v -0.00154009 -0.02889281 0.03676722
v 0.00241798 -0.02479049 0.03676722
v 0.00241798 -0.01419907 0.00543254
v -0.00689042 -0.01519288 0.00258672
v -0.00689042 -0.02880646 0.03564579
v -0.00571321 -0.02864029 0.03473175
v -0.00425079 -0.02864191 0.03473175
v -0.00278838 -0.02860770 0.03473175
v -0.00132779 -0.02850995 0.03473175
v -0.00118565 -0.02876248 0.03619883
v -0.00073007 -0.02882439 0.03676722
v 0.00241798 -0.02842849 0.03676722
v 0.00241798 -0.01378852 0.00400003
v 0.00241798 -0.01341869 0.00254448
v -0.00689042 -0.01481817 0.00110813
v -0.00689042 -0.02862562 0.03473175
v -0.00571321 -0.02833888 0.03326852
v -0.00425079 -0.02834377 0.03326852
v -0.00278838 -0.02831445 0.03326852
v -0.00132779 -0.02822647 0.03326852
v 0.00013462 -0.02836169 0.03473175
v 0.00013462 -0.02863540 0.03619114
v 0.00013462 -0.02873804 0.03676722
v 0.00217288 -0.02846759 0.03676722
v 0.00241798 -0.02838287 0.03651758
v 0.00241798 -0.01276049 -0.00045880
v -0.00689042 -0.01421374 -0.00154566
v -0.00689042 -0.02831770 0.03326852
v -0.00571321 -0.02801467 0.03180528
v -0.00425079 -0.02802771 0.03180528
v -0.00278838 -0.02800327 0.03180528
v 0.00013462 -0.02806518 0.03326852
v -0.00132779 -0.02791367 0.03180528
v 0.00159612 -0.02817108 0.03473175
v 0.00159612 -0.02845293 0.03619114
v 0.00159885 -0.02855720 0.03676722
v 0.00070591 -0.02866798 0.03676722
v 0.00241798 -0.02832259 0.03619114
v 0.00241798 -0.01237763 -0.00245970
v -0.00689042 -0.01401497 -0.00245970
v -0.00689042 -0.02798698 0.03180528
v -0.00571321 -0.02767580 0.03034589
v -0.00425079 -0.02769698 0.03034589
v -0.00278838 -0.02767580 0.03034589
v -0.00170866 -0.02741513 0.02946642
v 0.00159612 -0.02785664 0.03326852
v 0.00013462 -0.02774260 0.03180528
v -0.00126401 -0.02754872 0.03023452
v -0.00073372 -0.02736462 0.02967381
v 0.00241798 -0.02803422 0.03473175
v 0.00241798 -0.02819877 0.03554978
v 0.00241798 -0.01567513 -0.00245970
v -0.00689042 -0.01731410 -0.00245970
v -0.00689042 -0.02763833 0.03034589
v -0.00571321 -0.02744120 0.02936657
v -0.00425079 -0.02745423 0.02930896
v -0.00278838 -0.02744446 0.02935120
v -0.00278838 -0.02726199 0.02862151
v -0.00278838 -0.02695733 0.02741943
v -0.00132779 -0.02685143 0.02741943
v -0.00126401 -0.02723592 0.02894027
v 0.00104851 -0.02741024 0.03094885
v 0.00155967 -0.02752103 0.03178992
v 0.00241798 -0.02746238 0.03215093
v 0.00241798 -0.02770513 0.03322627
v 0.00241798 -0.02789574 0.03409039
v 0.00013462 -0.02747704 0.03066082
v 0.00013462 -0.02730272 0.02992728
v 0.00013462 -0.02703553 0.02888266
v -0.00013326 -0.01750309 -0.00245970
v 0.00241798 -0.02013424 0.00902341
v -0.00425079 -0.01800977 -0.00245970
v -0.00689042 -0.02386511 0.01718448
v -0.00689042 -0.02742002 0.02945874
v -0.00571321 -0.02725547 0.02863303
v -0.00425079 -0.02727339 0.02857926
v -0.00425079 -0.02697525 0.02741943
v -0.00425079 -0.02659239 0.02595620
v -0.00278838 -0.02656958 0.02595620
v 0.00013462 -0.02664289 0.02741943
v -0.00132779 -0.02644739 0.02595620
v 0.00155967 -0.02718378 0.03041502
v 0.00202345 -0.02732715 0.03129066
v 0.00241798 -0.02739721 0.03187441
v 0.00159612 -0.02677160 0.02888266
v -0.00137153 -0.01817106 -0.00245970
v 0.00241798 -0.02603520 0.02707378
v -0.00343622 -0.01819387 -0.00245970
v -0.00689042 -0.02432943 0.01860163
v -0.00689042 -0.02722940 0.02872520
v -0.00571321 -0.02693940 0.02741943
v -0.00571321 -0.02655003 0.02595620
v -0.00425079 -0.02619649 0.02449680
v -0.00315740 -0.02594559 0.02366726
v -0.00271731 -0.02611503 0.02437007
v 0.00020386 -0.02617205 0.02586018
v 0.00159612 -0.02634637 0.02741943
v -0.00195012 -0.01864190 -0.00126531
v -0.00218337 -0.02590649 0.02379783
v 0.00241798 -0.02729620 0.03146732
v 0.00241798 -0.02640340 0.02824130
v 0.00241798 -0.02658913 0.02888266
v 0.00241798 -0.02682373 0.02970453
v -0.00203759 -0.01826718 -0.00245970
v -0.00277107 -0.01833724 -0.00245970
v -0.00689042 -0.02457544 0.01937741
v -0.00689042 -0.02688727 0.02741943
v -0.00689042 -0.02649463 0.02595620
v -0.00581434 -0.02610525 0.02435855
v -0.00539430 -0.02593908 0.02369414
v -0.00425079 -0.02595537 0.02364037
v -0.00689042 -0.02524830 0.02157034
v -0.00689042 -0.02489150 0.02039514
v -0.00689042 -0.02480352 0.02011095
v -0.00689042 -0.02609874 0.02453905
v -0.00689042 -0.02589997 0.02382856
v -0.00636924 -0.02591301 0.02377863
v -0.00689042 -0.02574846 0.02329857
v -0.00689042 -0.02534442 0.02190062
f 1 2 8
f 1 8 15
f 1 15 25
f 1 25 37
f 1 37 51
f 1 51 50
f 1 50 38
f 1 38 26
f 1 26 16
f 1 16 10
f 1 10 3
f 1 3 4
f 1 4 5
f 1 5 6
f 1 6 7
f 1 7 2
f 2 7 9
f 2 9 8
f 3 10 18
f 3 18 29
f 3 29 41
f 3 41 54
f 3 54 67
f 3 67 87
f 3 87 103
f 3 103 120
f 3 120 128
f 3 128 127
f 3 127 126
f 3 126 133
f 3 133 132
f 3 132 130
f 3 130 129
f 3 129 122
f 3 122 121
f 3 121 104
f 3 104 88
f 3 88 68
f 3 68 55
f 3 55 42
f 3 42 30
f 3 30 19
f 3 19 11
f 3 11 5
f 3 5 4
f 5 11 6
f 6 11 12
f 6 12 13
f 6 13 7
f 7 13 14
f 7 14 9
f 8 9 15
f 9 14 15
f 10 16 17
f 10 17 18
f 11 19 20
f 11 20 12
f 12 20 21
f 12 21 13
f 13 21 22
f 13 22 14
f 14 22 23
f 14 23 15
f 15 24 25
f 15 23 24
f 16 26 39
f 16 39 52
f 16 52 65
f 16 65 64
f 16 64 80
f 16 80 79
f 16 79 78
f 16 78 98
f 16 98 114
f 16 114 117
f 16 117 116
f 16 116 115
f 16 115 101
f 16 101 85
f 16 85 66
f 16 66 53
f 16 53 40
f 16 40 28
f 16 28 27
f 16 27 17
f 17 27 18
f 18 27 28
f 18 28 29
f 19 30 20
f 20 30 31
f 20 31 32
f 20 32 21
f 21 32 33
f 21 33 22
f 22 33 34
f 22 34 23
f 23 35 36
f 23 36 25
f 23 25 24
f 23 34 35
f 25 36 37
f 26 38 39
f 28 40 41
f 28 41 29
f 30 42 31
f 31 42 43
f 31 43 44
f 31 44 32
f 32 44 45
f 32 45 33
f 33 45 34
f 34 46 35
f 34 45 47
f 34 47 46
f 35 48 49
f 35 49 36
f 35 46 48
f 36 49 50
f 36 50 51
f 36 51 37
f 38 50 49
f 38 49 39
f 39 49 52
f 40 53 54
f 40 54 41
f 42 55 43
f 43 55 56
f 43 56 57
f 43 57 44
f 44 57 58
f 44 58 45
f 45 58 59
f 45 59 47
f 46 60 48
f 46 47 61
f 46 61 60
f 47 59 62
f 47 62 63
f 47 63 61
f 48 60 64
f 48 64 65
f 48 65 49
f 49 65 52
f 53 66 84
f 53 84 100
f 53 100 118
f 53 118 119
f 53 119 102
f 53 102 86
f 53 86 67
f 53 67 54
f 55 68 56
f 56 68 69
f 56 69 70
f 56 70 57
f 57 70 71
f 57 71 58
f 58 71 59
f 59 71 72
f 59 72 73
f 59 73 74
f 59 74 75
f 59 75 63
f 59 63 62
f 60 61 76
f 60 76 77
f 60 77 78
f 60 78 79
f 60 79 80
f 60 80 64
f 61 63 81
f 61 81 76
f 63 82 81
f 63 75 74
f 63 74 83
f 63 83 82
f 66 85 84
f 67 86 87
f 68 88 69
f 69 88 89
f 69 89 90
f 69 90 70
f 70 90 71
f 71 90 72
f 72 90 73
f 73 90 91
f 73 91 92
f 73 92 93
f 73 93 74
f 74 94 83
f 74 93 95
f 74 95 94
f 76 81 82
f 76 82 83
f 76 83 96
f 76 96 97
f 76 97 78
f 76 78 77
f 78 97 98
f 83 94 99
f 83 99 96
f 84 85 100
f 85 101 100
f 86 102 87
f 87 102 103
f 88 104 89
f 89 104 105
f 89 105 91
f 89 91 90
f 91 105 92
f 92 106 107
f 92 107 93
f 92 105 106
f 93 107 108
f 93 108 109
f 93 109 95
f 94 110 111
f 94 111 99
f 94 95 112
f 94 112 110
f 95 109 113
f 95 113 112
f 96 99 97
f 97 114 98
f 97 99 114
f 99 111 115
f 99 115 116
f 99 116 117
f 99 117 114
f 100 112 118
f 100 101 115
f 100 115 111
f 100 111 112
f 102 119 103
f 103 119 120
f 104 121 105
f 105 121 106
f 106 122 123
f 106 123 124
f 106 124 107
f 106 121 122
f 107 124 125
f 107 125 108
f 108 125 119
f 108 119 112
f 108 112 109
f 109 112 113
f 110 112 111
f 112 119 118
f 119 125 124
f 119 124 126
f 119 126 127
f 119 127 128
f 119 128 120
f 122 129 123
f 123 129 130
f 123 130 131
f 123 131 124
f 124 131 132
f 124 132 133
f 124 133 126
f 130 132 131

