# https://github.com/mikedh/trimesh
v 0.00881149 -0.02581490 0.03311231
v 0.01036975 -0.02527616 0.03311231
v 0.00881149 -0.02181093 0.03311231
v 0.00881149 -0.02504781 0.03035080
v 0.00925713 -0.02441373 0.02830664
v 0.00996011 -0.02453789 0.02928171
v 0.01093469 -0.02439378 0.02979014
v 0.01123254 -0.02453567 0.03076171
v 0.01182598 -0.02472190 0.03311231
v 0.01144936 -0.02464209 0.03180642
v 0.00881149 -0.01505338 0.02010567
v 0.01647527 -0.01404241 0.03311231
v 0.01647527 -0.00316782 0.02260253
v 0.01424178 -0.00316782 0.01758096
v 0.01345777 -0.00316782 0.01579799
v 0.01278705 -0.00317004 0.01423789
v 0.01252521 -0.00316782 0.01361803
v 0.01223337 -0.00317004 0.01291459
v 0.01132632 -0.00316782 0.01066150
v 0.01120103 -0.00316782 0.01034808
v 0.01110724 -0.00316782 0.01010780
v 0.01096320 -0.00316782 0.00972126
v 0.01051755 -0.00316782 0.00850591
v 0.01048829 -0.00316782 0.00840840
v 0.01012892 -0.00316782 0.00703984
v 0.01010717 -0.00316782 0.00695278
v 0.01007565 -0.00325650 0.00695278
v 0.00981382 -0.00336736 0.00542750
v 0.00977105 -0.00316782 0.00476933
v 0.00970128 -0.00316782 0.00422957
v 0.00881149 -0.02424302 0.02752660
v 0.00890752 -0.02374419 0.02595953
v 0.00882499 -0.02424524 0.02754053
v 0.00881149 -0.02373089 0.02586203
v 0.00881149 -0.02322762 0.02430192
v 0.01185224 -0.02377744 0.03028115
v 0.01218010 -0.02413439 0.03180642
v 0.00974705 -0.02308351 0.02501929
v 0.00881149 -0.01139748 -0.00246354
v 0.01240893 -0.02434722 0.03286158
v 0.01246445 -0.02438713 0.03311231
v 0.00881149 -0.00716737 0.00462307
v 0.01647527 -0.01977568 0.03311231
v 0.01647527 -0.00316782 0.01423092
v 0.01279005 -0.00316782 0.01424137
v 0.01223412 -0.00316782 0.01291111
v 0.00962325 -0.00316782 0.00357140
v 0.01270677 -0.02316110 0.03077564
v 0.01294610 -0.02340276 0.03180642
v 0.01311866 -0.02378188 0.03311231
v 0.00881149 -0.00362675 -0.00246354
v 0.00926163 -0.01083214 -0.00246354
v 0.01432581 -0.02249821 0.03311231
v 0.01397920 -0.02293053 0.03311231
v 0.01288083 -0.02400358 0.03311231
v 0.00891802 -0.00316782 -0.00246354
v 0.01451937 -0.02225433 0.03311231
v 0.00958499 -0.01042198 -0.00246354
v 0.00983632 -0.01010051 -0.00246354
v 0.01647527 -0.01475630 0.02359501
v 0.01647527 -0.00471975 0.01465577
v 0.01258749 -0.00555558 -0.00246354
v 0.01258749 -0.00546024 -0.00246354
v 0.01258373 -0.00528510 -0.00246354
v 0.01230989 -0.00316782 -0.00246354
v 0.01322220 -0.02368211 0.03311231
v 0.01158440 -0.00760634 -0.00246354
v 0.01647527 -0.01464101 0.02337910
v 0.01647527 -0.00626281 0.01514678
v 0.01255898 -0.00689467 -0.00107408
v 0.01233465 -0.00632267 -0.00246354
v 0.01647527 -0.00724718 0.01572486
v 0.01647527 -0.00764403 0.01598255
v 0.01647527 -0.01200052 0.02021711
v 0.01647527 -0.01339504 0.02158220
v 0.01647527 -0.01343494 0.02162399
v 0.01647527 -0.01434615 0.02291943
v 0.01647527 -0.01347707 0.02167622
f 1 2 9
f 1 9 41
f 1 41 55
f 1 55 50
f 1 50 66
f 1 66 54
f 1 54 53
f 1 53 57
f 1 57 43
f 1 43 12
f 1 12 3
f 1 3 11
f 1 11 42
f 1 42 51
f 1 51 39
f 1 39 35
f 1 35 34
f 1 34 31
f 1 31 4
f 1 4 5
f 1 5 6
f 1 6 7
f 1 7 8
f 1 8 2
f 2 8 10
f 2 10 9
f 3 12 13
f 3 13 14
f 3 14 15
f 3 15 16
f 3 16 17
f 3 17 18
f 3 18 19
f 3 19 20
f 3 20 21
f 3 21 22
f 3 22 23
f 3 23 24
f 3 24 25
f 3 25 26
f 3 26 27
f 3 27 28
f 3 28 29
f 3 29 30
f 3 30 11
f 4 31 5
f 5 32 6
f 5 31 33
f 5 33 34
f 5 34 32
f 6 32 35
f 6 35 7
f 7 36 37
f 7 37 8
f 7 35 38
f 7 38 39
f 7 39 36
f 8 37 40
f 8 40 41
f 8 41 9
f 8 9 10
f 11 30 42
f 12 43 60
f 12 60 68
f 12 68 77
f 12 77 78
f 12 78 76
f 12 76 75
f 12 75 74
f 12 74 73
f 12 73 72
f 12 72 69
f 12 69 61
f 12 61 44
f 12 44 13
f 13 44 65
f 13 65 56
f 13 56 47
f 13 47 30
f 13 30 29
f 13 29 26
f 13 26 25
f 13 25 24
f 13 24 23
f 13 23 22
f 13 22 21
f 13 21 20
f 13 20 19
f 13 19 46
f 13 46 17
f 13 17 45
f 13 45 15
f 13 15 14
f 15 45 16
f 16 45 17
f 17 46 18
f 18 46 19
f 26 29 27
f 27 29 28
f 30 47 42
f 31 34 33
f 32 34 35
f 35 39 38
f 36 48 49
f 36 49 37
f 36 39 48
f 37 49 50
f 37 50 40
f 39 51 56
f 39 56 65
f 39 65 64
f 39 64 63
f 39 63 62
f 39 62 71
f 39 71 67
f 39 67 59
f 39 59 58
f 39 58 52
f 39 52 53
f 39 53 54
f 39 54 49
f 39 49 48
f 40 50 55
f 40 55 41
f 42 47 56
f 42 56 51
f 43 57 52
f 43 52 58
f 43 58 59
f 43 59 60
f 44 61 62
f 44 62 63
f 44 63 64
f 44 64 65
f 49 54 66
f 49 66 50
f 52 57 53
f 59 67 68
f 59 68 60
f 61 69 62
f 62 70 71
f 62 69 72
f 62 72 73
f 62 73 74
f 62 74 75
f 62 75 76
f 62 76 70
f 67 71 70
f 67 70 68
f 68 70 77
f 70 76 78
f 70 78 77

