# https://github.com/mikedh/trimesh
v -0.00381841 -0.01136609 -0.07109888
v -0.00381841 -0.01136609 -0.07551111
v -0.00425149 -0.01136609 -0.07105556
v -0.00381841 -0.01715940 -0.06843030
v -0.00381841 -0.01200534 -0.07556491
v -0.01515079 -0.01136609 -0.07485095
v -0.00571676 -0.01136609 -0.07092563
v -0.00381841 -0.02104545 -0.06843030
v -0.03441224 -0.01136609 -0.06843030
v -0.00381841 -0.01350137 -0.07556700
v -0.00425149 -0.01349088 -0.07554325
v -0.00571676 -0.01349088 -0.07546221
v -0.00717842 -0.01349088 -0.07537908
v -0.00864008 -0.01349088 -0.07529455
v -0.01302507 -0.01202824 -0.07502630
v -0.01661245 -0.01136609 -0.07476503
v -0.00390503 -0.02104927 -0.06843030
v -0.00381841 -0.02084032 -0.06907579
v -0.04068475 -0.01136609 -0.06843030
v -0.00381841 -0.01495256 -0.07534346
v -0.00425149 -0.01495256 -0.07532459
v -0.00571676 -0.01495256 -0.07525543
v -0.00717842 -0.01495256 -0.07517859
v -0.00864008 -0.01495256 -0.07509755
v -0.01010175 -0.01495256 -0.07501582
v -0.01156341 -0.01495256 -0.07493269
v -0.01302507 -0.01495256 -0.07484886
v -0.01010175 -0.01349088 -0.07520723
v -0.01741366 -0.01202824 -0.07476713
v -0.01594839 -0.01202824 -0.07485445
v -0.01807411 -0.01136609 -0.07467841
v -0.00427676 -0.02106358 -0.06843030
v -0.00381841 -0.02030889 -0.07025499
v -0.00425149 -0.02085559 -0.06907579
v -0.04037437 -0.01136609 -0.06885224
v -0.04030941 -0.01202824 -0.06866013
v -0.04061979 -0.01157122 -0.06843030
v -0.00381841 -0.01641424 -0.07477621
v -0.00425149 -0.01641424 -0.07476293
v -0.00571676 -0.01641424 -0.07471474
v -0.00717842 -0.01641424 -0.07465396
v -0.01156341 -0.01632551 -0.07448769
v -0.01302507 -0.01625014 -0.07444857
v -0.01448673 -0.01615377 -0.07440526
v -0.01594839 -0.01604692 -0.07435846
v -0.01741366 -0.01594006 -0.07431095
v -0.01887532 -0.01582175 -0.07425646
v -0.01448673 -0.01495256 -0.07475944
v -0.01302507 -0.01349088 -0.07503119
v -0.01887532 -0.01202824 -0.07467841
v -0.01887532 -0.01136609 -0.07462950
v -0.00571676 -0.02110365 -0.06843030
v -0.00425149 -0.02031556 -0.07026337
v -0.00381841 -0.01990816 -0.07098641
v -0.00571676 -0.02088516 -0.06907579
v -0.03982940 -0.01136609 -0.06953125
v -0.04014339 -0.01287739 -0.06843030
v -0.03971392 -0.01202824 -0.06939084
v -0.00381841 -0.01726912 -0.07429279
v -0.00425149 -0.01726435 -0.07428720
v -0.00571676 -0.01724240 -0.07426903
v -0.00717842 -0.01721187 -0.07424389
v -0.00864008 -0.01717180 -0.07421315
v -0.00943047 -0.01714890 -0.07419499
v -0.01040491 -0.01710787 -0.07417124
v -0.01156341 -0.01705731 -0.07414260
v -0.01302507 -0.01698098 -0.07410138
v -0.01448673 -0.01688462 -0.07405038
v -0.01594839 -0.01677680 -0.07399379
v -0.01741366 -0.01666994 -0.07393581
v -0.01887532 -0.01655259 -0.07387155
v -0.01984254 -0.01573302 -0.07421525
v -0.01741366 -0.01495256 -0.07457222
v -0.01594839 -0.01495256 -0.07466653
v -0.01448673 -0.01349088 -0.07494177
v -0.01741366 -0.01349088 -0.07475944
v -0.01887532 -0.01349088 -0.07466653
v -0.02033698 -0.01202824 -0.07458200
v -0.02413730 -0.01136609 -0.07428860
v -0.02099744 -0.01136609 -0.07449538
v -0.01953578 -0.01136609 -0.07458899
v -0.00717842 -0.02111319 -0.06843030
v -0.00425149 -0.01991198 -0.07099479
v -0.00571676 -0.02032892 -0.07027943
v -0.00381841 -0.01926510 -0.07199934
v -0.00717842 -0.02088421 -0.06907579
v -0.03949377 -0.01136609 -0.06987566
v -0.03898128 -0.01202824 -0.07014601
v -0.04013617 -0.01288216 -0.06843589
v -0.04013257 -0.01289361 -0.06843030
v -0.03876113 -0.01301669 -0.06994691
v -0.00381841 -0.01799996 -0.07357115
v -0.00425149 -0.01799519 -0.07357115
v -0.00571676 -0.01797420 -0.07356137
v -0.00717842 -0.01794271 -0.07353693
v -0.01302507 -0.01855811 -0.07267138
v -0.01302507 -0.01782631 -0.07337066
v -0.01448673 -0.01778433 -0.07331897
v -0.01594839 -0.01772995 -0.07326238
v -0.01741366 -0.01767080 -0.07320510
v -0.01887532 -0.01760210 -0.07314013
v -0.02033698 -0.01751528 -0.07306328
v -0.02179864 -0.01740555 -0.07296828
v -0.02179864 -0.01641424 -0.07362075
v -0.02032976 -0.01629689 -0.07385897
v -0.02032976 -0.01503748 -0.07433331
v -0.01887532 -0.01495256 -0.07446953
v -0.02081698 -0.01558131 -0.07416844
v -0.02033698 -0.01349088 -0.07456174
v -0.02325669 -0.01202824 -0.07438082
v -0.02179864 -0.01202824 -0.07448211
v -0.02539686 -0.01136609 -0.07420267
v -0.00864008 -0.02109983 -0.06843030
v -0.00425149 -0.01926987 -0.07199934
v -0.00571676 -0.01991770 -0.07101016
v -0.00717842 -0.02032701 -0.07027664
v -0.00381841 -0.01869550 -0.07284044
v -0.00864008 -0.02086513 -0.06907579
v -0.03915451 -0.01136609 -0.07018653
v -0.03818368 -0.01136609 -0.07097033
v -0.03805737 -0.01202824 -0.07087743
v -0.03930249 -0.01343745 -0.06903736
v -0.03886940 -0.01448600 -0.06866432
v -0.03918339 -0.01428278 -0.06843030
v -0.03715150 -0.01276576 -0.07127213
v -0.03779029 -0.01337925 -0.07048063
v -0.03842910 -0.01399178 -0.06963953
v -0.00425149 -0.01869550 -0.07284044
v -0.00571676 -0.01868882 -0.07282996
v -0.00717842 -0.01866878 -0.07280551
v -0.00864008 -0.01864398 -0.07277548
v -0.00979859 -0.01862299 -0.07274962
v -0.01077303 -0.01860486 -0.07272797
v -0.01156341 -0.01858864 -0.07270841
v -0.01156341 -0.01911721 -0.07197839
v -0.01302507 -0.01908573 -0.07194066
v -0.01448673 -0.01904947 -0.07188897
v -0.01448673 -0.01851518 -0.07261898
v -0.01594839 -0.01846079 -0.07255332
v -0.01741366 -0.01840164 -0.07248347
v -0.01887532 -0.01833294 -0.07240383
v -0.02033698 -0.01824612 -0.07229973
v -0.02179864 -0.01813640 -0.07216840
v -0.02325669 -0.01727198 -0.07284743
v -0.02325669 -0.01641424 -0.07341328
v -0.02179864 -0.01464343 -0.07428860
v -0.02297158 -0.01439823 -0.07423481
v -0.02618002 -0.01495256 -0.07366267
v -0.02471836 -0.01495256 -0.07387643
v -0.02179864 -0.01537427 -0.07411465
v -0.02394602 -0.01418546 -0.07418870
v -0.02179864 -0.01349088 -0.07444368
v -0.02542934 -0.01254250 -0.07419080
v -0.02485189 -0.01204446 -0.07424878
v -0.02547986 -0.01156741 -0.07419499
v -0.02547986 -0.01136609 -0.07419499
v -0.01010175 -0.02106644 -0.06843030
v -0.00571676 -0.01926796 -0.07199934
v -0.00717842 -0.01991484 -0.07100736
v -0.00864008 -0.02031461 -0.07025149
v -0.01010175 -0.02082887 -0.06907579
v -0.03778669 -0.01136609 -0.07124418
v -0.03732834 -0.01202824 -0.07137761
v -0.03788774 -0.01497546 -0.06909674
v -0.03868534 -0.01480945 -0.06843030
v -0.03894519 -0.01456042 -0.06843030
v -0.03641525 -0.01202824 -0.07185474
v -0.03495359 -0.01349088 -0.07203148
v -0.03631059 -0.01334872 -0.07145375
v -0.03575119 -0.01427897 -0.07130635
v -0.03672924 -0.01374085 -0.07101434
v -0.03745466 -0.01448982 -0.07003913
v -0.00717842 -0.01924602 -0.07199934
v -0.00864008 -0.01920404 -0.07199934
v -0.01021363 -0.01904565 -0.07214395
v -0.00864008 -0.01989862 -0.07098291
v -0.01010175 -0.01987381 -0.07094239
v -0.01156341 -0.01984805 -0.07089280
v -0.01302507 -0.01981657 -0.07083691
v -0.01448673 -0.01978031 -0.07077194
v -0.01594839 -0.01900654 -0.07182261
v -0.01741366 -0.01895597 -0.07175345
v -0.01887532 -0.01889491 -0.07167311
v -0.02033698 -0.01881763 -0.07156972
v -0.02179864 -0.01872508 -0.07143839
v -0.02278391 -0.01865161 -0.07133359
v -0.02326752 -0.01809919 -0.07189316
v -0.02415895 -0.01718230 -0.07276429
v -0.02467505 -0.01651252 -0.07312337
v -0.02618002 -0.01619385 -0.07307865
v -0.02764168 -0.01598204 -0.07293894
v -0.02764168 -0.01495256 -0.07341607
v -0.02910334 -0.01349088 -0.07357255
v -0.02764168 -0.01349088 -0.07380728
v -0.02337940 -0.01491249 -0.07405807
v -0.02337940 -0.01361587 -0.07429698
v -0.02618002 -0.01349088 -0.07400008
v -0.02485189 -0.01361587 -0.07415028
v -0.02445490 -0.01321133 -0.07423969
v -0.02764168 -0.01202824 -0.07397354
v -0.02830574 -0.01136609 -0.07390997
v -0.01087408 -0.02103973 -0.06843030
v -0.01010175 -0.02029553 -0.07021098
v -0.01156341 -0.02077735 -0.06907579
v -0.01156341 -0.02026786 -0.07016207
v -0.03745466 -0.01136609 -0.07144956
v -0.03813677 -0.01525978 -0.06843030
v -0.03683029 -0.01546491 -0.06952916
v -0.03734278 -0.01581411 -0.06855464
v -0.03695300 -0.01136609 -0.07171083
v -0.03641525 -0.01136609 -0.07197769
v -0.03560683 -0.01136609 -0.07232977
v -0.03489946 -0.01206163 -0.07250722
v -0.03495359 -0.01455756 -0.07149148
v -0.03409464 -0.01257112 -0.07269653
v -0.03356050 -0.01352236 -0.07253376
v -0.03254636 -0.01403185 -0.07266510
v -0.03404411 -0.01558799 -0.07118271
v -0.03495359 -0.01528936 -0.07092842
v -0.03629255 -0.01487146 -0.07047015
v -0.03585585 -0.01577881 -0.06992666
v -0.01302507 -0.02023542 -0.07010549
v -0.01448673 -0.02019725 -0.07004052
v -0.01594839 -0.01973738 -0.07068322
v -0.01887532 -0.01957327 -0.07053792
v -0.02033698 -0.01942157 -0.07053792
v -0.02179864 -0.01924220 -0.07053792
v -0.02326752 -0.01896646 -0.07064410
v -0.02376196 -0.01856574 -0.07120226
v -0.02618002 -0.01760210 -0.07180584
v -0.02467505 -0.01764694 -0.07210413
v -0.02513701 -0.01706494 -0.07266160
v -0.02872800 -0.01580934 -0.07281879
v -0.02618002 -0.01692373 -0.07253586
v -0.02917191 -0.01505656 -0.07306049
v -0.03056861 -0.01464916 -0.07292426
v -0.03056861 -0.01349088 -0.07329661
v -0.03056861 -0.01202824 -0.07356627
v -0.02910334 -0.01202824 -0.07379400
v -0.02910334 -0.01136609 -0.07381216
v -0.01159950 -0.02101206 -0.06843030
v -0.01302507 -0.02095195 -0.06843030
v -0.01302507 -0.02071342 -0.06907579
v -0.03754488 -0.01574065 -0.06843030
v -0.03637195 -0.01605646 -0.06905553
v -0.03577285 -0.01671192 -0.06843030
v -0.03721646 -0.01594292 -0.06843030
v -0.03740413 -0.01583606 -0.06843030
v -0.03507269 -0.01136609 -0.07254494
v -0.03437975 -0.01159699 -0.07278316
v -0.03353163 -0.01504129 -0.07174855
v -0.03356050 -0.01206163 -0.07292008
v -0.03203027 -0.01202824 -0.07328544
v -0.03312020 -0.01305676 -0.07282437
v -0.03204471 -0.01352236 -0.07295710
v -0.03157192 -0.01437438 -0.07280760
v -0.03204471 -0.01489818 -0.07234794
v -0.03306967 -0.01581221 -0.07138739
v -0.03342336 -0.01639325 -0.07050648
v -0.03495359 -0.01599349 -0.07019771
v -0.03377705 -0.01697525 -0.06951939
v -0.03496442 -0.01675295 -0.06904993
v -0.01448673 -0.02063614 -0.06907579
v -0.01594839 -0.02014669 -0.06995250
v -0.01747862 -0.01975646 -0.07042894
v -0.01703832 -0.02010089 -0.06986868
v -0.01801276 -0.02005700 -0.06978135
v -0.01887532 -0.02001693 -0.06969053
v -0.02033698 -0.01994251 -0.06952218
v -0.02179864 -0.01985569 -0.06933286
v -0.02329279 -0.01980035 -0.06899335
v -0.02471836 -0.01890254 -0.07032694
v -0.02618002 -0.01877087 -0.07009781
v -0.02471836 -0.01847606 -0.07105766
v -0.02618002 -0.01833390 -0.07082922
v -0.02764168 -0.01743132 -0.07160465
v -0.02764168 -0.01671192 -0.07233536
v -0.02926214 -0.01647054 -0.07205593
v -0.02970605 -0.01561375 -0.07269304
v -0.03203027 -0.01136609 -0.07334551
v -0.03122906 -0.01136609 -0.07349850
v -0.03056861 -0.01136609 -0.07360608
v -0.02976740 -0.01136609 -0.07373043
v -0.01448673 -0.02087371 -0.06843030
v -0.03528923 -0.01694949 -0.06843030
v -0.03457825 -0.01136609 -0.07273984
v -0.03352802 -0.01136609 -0.07300740
v -0.03269073 -0.01136609 -0.07320510
v -0.03441584 -0.01136609 -0.07279433
v -0.03056861 -0.01538000 -0.07254913
v -0.03203027 -0.01600875 -0.07157042
v -0.02979627 -0.01713268 -0.07125396
v -0.03056861 -0.01699911 -0.07108630
v -0.03203027 -0.01673864 -0.07074889
v -0.03280260 -0.01716035 -0.06982955
v -0.03448803 -0.01725003 -0.06854486
v -0.01594839 -0.02078116 -0.06843030
v -0.01594839 -0.02054169 -0.06907579
v -0.01747862 -0.02035945 -0.06920712
v -0.01887532 -0.02033655 -0.06895912
v -0.02033698 -0.02025927 -0.06879076
v -0.02179864 -0.02017817 -0.06860214
v -0.02282722 -0.02011425 -0.06845055
v -0.02293549 -0.02010662 -0.06843030
v -0.02368617 -0.01998640 -0.06843030
v -0.02398933 -0.01993679 -0.06843030
v -0.02471836 -0.01953034 -0.06907579
v -0.02721220 -0.01867260 -0.06992246
v -0.02767777 -0.01822608 -0.07046107
v -0.02882183 -0.01727103 -0.07141952
v -0.03056861 -0.01626827 -0.07181911
v -0.03474066 -0.01719851 -0.06843030
v -0.02922966 -0.01767652 -0.07067484
v -0.03056861 -0.01751528 -0.07035559
v -0.03203027 -0.01729011 -0.07001817
v -0.03203027 -0.01780914 -0.06907579
v -0.03336922 -0.01737884 -0.06904993
v -0.03454577 -0.01727198 -0.06843030
v -0.03134456 -0.01832912 -0.06843030
v -0.03436532 -0.01733877 -0.06843030
v -0.01744614 -0.02065713 -0.06843030
v -0.01829788 -0.02058557 -0.06843030
v -0.01887532 -0.02053119 -0.06843030
v -0.01988946 -0.02043483 -0.06843030
v -0.02154601 -0.02026595 -0.06843030
v -0.02179864 -0.02023828 -0.06843030
v -0.02280557 -0.02012379 -0.06843030
v -0.02471836 -0.01980703 -0.06843030
v -0.02525249 -0.01971162 -0.06843030
v -0.02618002 -0.01926891 -0.06907579
v -0.02767777 -0.01892544 -0.06916939
v -0.02818664 -0.01856383 -0.06971917
v -0.02910334 -0.01844553 -0.06948654
v -0.03057222 -0.01827856 -0.06901850
v -0.03091147 -0.01845984 -0.06843030
v -0.02621250 -0.01952843 -0.06843030
v -0.02765972 -0.01923648 -0.06843030
v -0.02868830 -0.01901608 -0.06843030
v -0.02910334 -0.01879186 -0.06875513
v -0.03008861 -0.01867546 -0.06849247
v -0.03027267 -0.01864970 -0.06843030
v -0.03002004 -0.01871554 -0.06843030
v -0.03012470 -0.01868882 -0.06843030
f 1 2 6
f 1 6 16
f 1 16 31
f 1 31 51
f 1 51 81
f 1 81 80
f 1 80 79
f 1 79 112
f 1 112 156
f 1 156 201
f 1 201 240
f 1 240 283
f 1 283 282
f 1 282 281
f 1 281 280
f 1 280 288
f 1 288 287
f 1 287 289
f 1 289 286
f 1 286 249
f 1 249 212
f 1 212 211
f 1 211 210
f 1 210 206
f 1 206 162
f 1 162 120
f 1 120 119
f 1 119 87
f 1 87 56
f 1 56 35
f 1 35 19
f 1 19 9
f 1 9 7
f 1 7 3
f 1 3 4
f 1 4 8
f 1 8 18
f 1 18 33
f 1 33 54
f 1 54 85
f 1 85 117
f 1 117 92
f 1 92 59
f 1 59 38
f 1 38 20
f 1 20 10
f 1 10 5
f 1 5 2
f 2 5 6
f 3 7 4
f 4 7 9
f 4 9 19
f 4 19 37
f 4 37 57
f 4 57 90
f 4 90 124
f 4 124 166
f 4 166 165
f 4 165 207
f 4 207 244
f 4 244 248
f 4 248 247
f 4 247 246
f 4 246 285
f 4 285 312
f 4 312 318
f 4 318 320
f 4 320 319
f 4 319 335
f 4 335 341
f 4 341 343
f 4 343 342
f 4 342 338
f 4 338 337
f 4 337 336
f 4 336 329
f 4 329 328
f 4 328 306
f 4 306 305
f 4 305 304
f 4 304 327
f 4 327 326
f 4 326 325
f 4 325 324
f 4 324 323
f 4 323 322
f 4 322 321
f 4 321 297
f 4 297 284
f 4 284 242
f 4 242 241
f 4 241 202
f 4 202 157
f 4 157 113
f 4 113 82
f 4 82 52
f 4 52 32
f 4 32 17
f 4 17 8
f 5 10 11
f 5 11 12
f 5 12 13
f 5 13 14
f 5 14 15
f 5 15 6
f 6 15 30
f 6 30 16
f 8 17 18
f 10 20 21
f 10 21 22
f 10 22 23
f 10 23 24
f 10 24 25
f 10 25 12
f 10 12 11
f 12 25 26
f 12 26 13
f 13 26 27
f 13 27 14
f 14 28 29
f 14 29 30
f 14 30 15
f 14 27 28
f 16 30 31
f 17 32 18
f 18 32 34
f 18 34 33
f 19 35 36
f 19 36 37
f 20 38 39
f 20 39 40
f 20 40 41
f 20 41 21
f 21 41 42
f 21 42 43
f 21 43 22
f 22 43 44
f 22 44 23
f 23 44 45
f 23 45 46
f 23 46 24
f 24 46 25
f 25 46 26
f 26 46 27
f 27 46 47
f 27 47 48
f 27 48 75
f 27 75 49
f 27 49 28
f 28 49 29
f 29 49 50
f 29 50 31
f 29 31 30
f 31 50 51
f 32 52 34
f 33 34 53
f 33 53 54
f 34 52 55
f 34 55 53
f 35 56 36
f 36 57 37
f 36 56 58
f 36 58 57
f 38 59 60
f 38 60 61
f 38 61 62
f 38 62 39
f 39 62 40
f 40 62 63
f 40 63 64
f 40 64 41
f 41 64 65
f 41 65 66
f 41 66 42
f 42 66 43
f 43 66 67
f 43 67 44
f 44 67 68
f 44 68 45
f 45 68 46
f 46 68 69
f 46 69 70
f 46 70 47
f 47 70 71
f 47 71 72
f 47 72 73
f 47 73 74
f 47 74 48
f 48 74 77
f 48 77 76
f 48 76 75
f 49 75 50
f 50 76 77
f 50 77 78
f 50 78 79
f 50 79 80
f 50 80 81
f 50 81 51
f 50 75 76
f 52 82 55
f 53 83 54
f 53 55 84
f 53 84 83
f 54 83 85
f 55 82 86
f 55 86 84
f 56 87 88
f 56 88 58
f 57 89 90
f 57 58 91
f 57 91 89
f 58 88 91
f 59 92 93
f 59 93 94
f 59 94 60
f 60 94 61
f 61 94 62
f 62 94 95
f 62 95 96
f 62 96 63
f 63 96 97
f 63 97 64
f 64 97 98
f 64 98 65
f 65 98 66
f 66 98 99
f 66 99 67
f 67 99 100
f 67 100 101
f 67 101 68
f 68 101 69
f 69 101 70
f 70 101 102
f 70 102 71
f 71 102 103
f 71 103 104
f 71 104 105
f 71 105 72
f 72 106 107
f 72 107 73
f 72 105 104
f 72 104 108
f 72 108 106
f 73 107 77
f 73 77 74
f 77 107 109
f 77 109 110
f 77 110 111
f 77 111 78
f 78 111 112
f 78 112 79
f 82 113 86
f 83 114 85
f 83 84 115
f 83 115 114
f 84 86 116
f 84 116 115
f 85 114 117
f 86 113 118
f 86 118 116
f 87 119 88
f 88 120 121
f 88 121 91
f 88 119 120
f 89 91 122
f 89 122 123
f 89 123 90
f 90 123 124
f 91 121 125
f 91 125 126
f 91 126 127
f 91 127 122
f 92 117 128
f 92 128 93
f 93 128 129
f 93 129 94
f 94 129 130
f 94 130 131
f 94 131 95
f 95 131 132
f 95 132 133
f 95 133 134
f 95 134 96
f 96 134 135
f 96 135 136
f 96 136 137
f 96 137 138
f 96 138 98
f 96 98 97
f 98 138 99
f 99 138 100
f 100 138 139
f 100 139 140
f 100 140 101
f 101 140 141
f 101 141 102
f 102 142 103
f 102 141 142
f 103 143 144
f 103 144 145
f 103 145 104
f 103 142 143
f 104 145 108
f 106 108 146
f 106 146 107
f 107 146 147
f 107 147 109
f 108 145 148
f 108 148 149
f 108 149 150
f 108 150 151
f 108 151 147
f 108 147 146
f 109 147 151
f 109 151 152
f 109 152 153
f 109 153 110
f 110 153 154
f 110 154 112
f 110 112 111
f 112 154 155
f 112 155 156
f 113 157 118
f 114 128 117
f 114 115 158
f 114 158 128
f 115 116 159
f 115 159 158
f 116 118 160
f 116 160 159
f 118 157 161
f 118 161 160
f 120 162 121
f 121 162 163
f 121 163 125
f 122 127 123
f 123 127 164
f 123 164 165
f 123 165 166
f 123 166 124
f 125 163 167
f 125 167 168
f 125 168 169
f 125 169 170
f 125 170 171
f 125 171 126
f 126 172 127
f 126 171 172
f 127 172 164
f 128 158 129
f 129 158 173
f 129 173 130
f 130 173 174
f 130 174 131
f 131 174 132
f 132 174 175
f 132 175 133
f 133 175 135
f 133 135 134
f 135 175 174
f 135 174 176
f 135 176 177
f 135 177 136
f 136 177 178
f 136 178 179
f 136 179 137
f 137 180 181
f 137 181 138
f 137 179 180
f 138 181 182
f 138 182 139
f 139 182 140
f 140 182 183
f 140 183 141
f 141 183 184
f 141 184 142
f 142 184 185
f 142 185 143
f 143 185 186
f 143 186 187
f 143 187 188
f 143 188 144
f 144 188 145
f 145 188 189
f 145 189 190
f 145 190 148
f 148 190 191
f 148 191 192
f 148 192 193
f 148 193 194
f 148 194 151
f 148 151 149
f 149 151 195
f 149 195 150
f 150 195 151
f 151 196 152
f 151 194 197
f 151 197 198
f 151 198 199
f 151 199 196
f 152 196 199
f 152 199 153
f 153 155 154
f 153 199 198
f 153 198 200
f 153 200 155
f 155 200 201
f 155 201 156
f 157 202 161
f 158 159 173
f 159 160 176
f 159 176 173
f 160 161 203
f 160 203 176
f 161 202 204
f 161 204 205
f 161 205 203
f 162 206 163
f 163 206 167
f 164 207 165
f 164 172 208
f 164 208 209
f 164 209 207
f 167 206 210
f 167 210 211
f 167 211 212
f 167 212 213
f 167 213 168
f 168 214 170
f 168 170 169
f 168 213 215
f 168 215 216
f 168 216 217
f 168 217 214
f 170 214 218
f 170 218 219
f 170 219 220
f 170 220 172
f 170 172 171
f 172 220 221
f 172 221 208
f 173 176 174
f 176 203 177
f 177 203 178
f 178 203 205
f 178 205 179
f 179 205 222
f 179 222 180
f 180 223 224
f 180 224 182
f 180 182 181
f 180 222 223
f 182 224 183
f 183 224 225
f 183 225 184
f 184 226 185
f 184 225 226
f 185 227 186
f 185 226 227
f 186 228 229
f 186 229 230
f 186 230 187
f 186 227 228
f 187 230 231
f 187 231 188
f 188 231 230
f 188 230 232
f 188 232 190
f 188 190 189
f 190 232 191
f 191 233 192
f 191 232 234
f 191 234 233
f 192 233 235
f 192 235 236
f 192 236 237
f 192 237 193
f 193 237 238
f 193 238 194
f 194 238 239
f 194 239 197
f 197 239 198
f 198 239 200
f 200 239 240
f 200 240 201
f 202 241 204
f 204 241 242
f 204 242 243
f 204 243 222
f 204 222 205
f 207 209 244
f 208 221 245
f 208 245 209
f 209 245 246
f 209 246 247
f 209 247 248
f 209 248 244
f 212 249 213
f 213 249 250
f 213 250 215
f 214 217 251
f 214 251 218
f 215 250 252
f 215 252 253
f 215 253 254
f 215 254 216
f 216 254 217
f 217 254 255
f 217 255 256
f 217 256 257
f 217 257 251
f 218 251 258
f 218 258 259
f 218 259 260
f 218 260 221
f 218 221 219
f 219 221 220
f 221 260 261
f 221 261 262
f 221 262 245
f 222 243 223
f 223 263 264
f 223 264 224
f 223 243 263
f 224 264 265
f 224 265 225
f 225 265 266
f 225 266 267
f 225 267 268
f 225 268 226
f 226 269 227
f 226 268 269
f 227 270 228
f 227 269 270
f 228 270 271
f 228 271 272
f 228 272 229
f 229 272 273
f 229 273 274
f 229 274 230
f 230 274 275
f 230 275 276
f 230 276 232
f 232 276 234
f 233 234 277
f 233 277 278
f 233 278 279
f 233 279 235
f 234 276 277
f 235 279 236
f 236 256 237
f 236 279 256
f 237 256 255
f 237 255 254
f 237 254 253
f 237 253 238
f 238 253 280
f 238 280 281
f 238 281 282
f 238 282 239
f 239 282 283
f 239 283 240
f 242 263 243
f 242 284 263
f 245 262 246
f 246 262 285
f 249 286 250
f 250 287 288
f 250 288 253
f 250 253 252
f 250 286 289
f 250 289 287
f 251 257 290
f 251 290 279
f 251 279 258
f 253 288 280
f 256 279 290
f 256 290 257
f 258 291 292
f 258 292 293
f 258 293 294
f 258 294 259
f 258 279 291
f 259 294 295
f 259 295 260
f 260 295 261
f 261 295 296
f 261 296 262
f 262 296 285
f 263 284 297
f 263 297 298
f 263 298 264
f 264 298 266
f 264 266 265
f 266 298 299
f 266 299 267
f 267 299 268
f 268 299 300
f 268 300 269
f 269 301 302
f 269 302 270
f 269 300 301
f 270 302 303
f 270 303 271
f 271 303 304
f 271 304 305
f 271 305 306
f 271 306 307
f 271 307 272
f 272 307 273
f 273 308 275
f 273 275 274
f 273 307 308
f 275 308 309
f 275 309 276
f 276 309 310
f 276 310 277
f 277 310 292
f 277 292 278
f 278 292 311
f 278 311 279
f 279 311 291
f 285 296 312
f 291 311 292
f 292 310 309
f 292 309 313
f 292 313 314
f 292 314 315
f 292 315 293
f 293 315 295
f 293 295 294
f 295 315 316
f 295 316 317
f 295 317 296
f 296 318 312
f 296 317 316
f 296 316 319
f 296 319 320
f 296 320 318
f 297 321 298
f 298 321 322
f 298 322 300
f 298 300 299
f 300 322 323
f 300 323 324
f 300 324 301
f 301 325 302
f 301 324 325
f 302 326 303
f 302 325 326
f 303 326 327
f 303 327 304
f 306 328 307
f 307 328 329
f 307 329 330
f 307 330 308
f 308 330 331
f 308 331 332
f 308 332 309
f 309 332 313
f 313 332 314
f 314 332 333
f 314 333 315
f 315 333 334
f 315 334 316
f 316 334 319
f 319 334 335
f 329 336 330
f 330 336 337
f 330 337 331
f 331 337 338
f 331 338 339
f 331 339 332
f 332 339 340
f 332 340 333
f 333 340 334
f 334 340 335
f 335 340 341
f 338 342 340
f 338 340 339
f 340 342 343
f 340 343 341

