# https://github.com/mikedh/trimesh
v -0.00604547 0.03204077 -0.06322675
v -0.00604547 0.03201108 -0.06289523
v -0.00604547 0.03192883 -0.06435737
v -0.00717823 0.03198024 -0.06322675
v -0.00863815 0.03177691 -0.06176533
v -0.00604547 0.03188999 -0.06176533
v -0.00717823 0.03184659 -0.06176533
v -0.00604547 0.03188885 -0.06468890
v -0.00863815 0.03188885 -0.06322675
v -0.01010159 0.03168553 -0.06176533
v -0.00863815 0.03146736 -0.06030391
v -0.01010159 0.03138511 -0.06030391
v -0.00604547 0.03181803 -0.06143381
v -0.00717823 0.03153018 -0.06030391
v -0.00604547 0.03158615 -0.06581879
v -0.00717823 0.03180547 -0.06468890
v -0.01010159 0.03178376 -0.06322675
v -0.01156503 0.03158158 -0.06176533
v -0.01302495 0.03122406 -0.06052158
v -0.01010159 0.03115780 -0.05936877
v -0.00863815 0.03119436 -0.05922843
v -0.01159317 0.03125718 -0.06019435
v -0.01112178 0.03112468 -0.05949192
v -0.00604547 0.03156788 -0.06030391
v -0.00717823 0.03122406 -0.05913033
v -0.00604547 0.03148335 -0.06618039
v -0.01010159 0.03156216 -0.06468890
v -0.00863815 0.03168667 -0.06468890
v -0.01156503 0.03166382 -0.06322675
v -0.01712680 0.03115438 -0.06215486
v -0.01302495 0.03146507 -0.06176533
v -0.01545581 0.03112354 -0.06094762
v -0.01448839 0.03116466 -0.06077578
v -0.01302495 0.03105043 -0.05979051
v -0.01209623 0.03108812 -0.05963441
v -0.01010159 0.03106528 -0.05902722
v -0.00913769 0.03111554 -0.05902722
v -0.00863815 0.03114067 -0.05902722
v -0.00717823 0.03119664 -0.05902722
v -0.01151578 0.03096933 -0.05902722
v -0.00604547 0.03149820 -0.06003682
v -0.00604547 0.03142966 -0.06634150
v -0.00730135 0.03133942 -0.06629066
v -0.00863815 0.03130287 -0.06603146
v -0.01010159 0.03123662 -0.06582668
v -0.01156503 0.03116808 -0.06561831
v -0.01248671 0.03112354 -0.06548154
v -0.01156503 0.03142738 -0.06468890
v -0.01559652 0.03114752 -0.06412753
v -0.01302495 0.03152675 -0.06322675
v -0.01712680 0.03115438 -0.06288664
v -0.02033511 0.03072831 -0.06176533
v -0.01887519 0.03090765 -0.06176533
v -0.01753136 0.03104358 -0.06170661
v -0.01643026 0.03108013 -0.06118033
v -0.01594480 0.03120349 -0.06170661
v -0.01448839 0.03134057 -0.06176533
v -0.01741175 0.03078314 -0.06030391
v -0.01594480 0.03094420 -0.06039771
v -0.01448839 0.03098761 -0.06004470
v -0.01280684 0.03086767 -0.05902722
v -0.01448839 0.03072146 -0.05902722
v -0.01419992 0.03074659 -0.05902722
v -0.00663296 0.03121149 -0.05902722
v -0.00604547 0.03124233 -0.05908236
v -0.00604547 0.02602103 -0.06634150
v -0.00722044 0.03132914 -0.06634150
v -0.00735060 0.03131772 -0.06634150
v -0.00835320 0.03122748 -0.06634150
v -0.00929599 0.03114067 -0.06634150
v -0.01043579 0.03103329 -0.06634150
v -0.01156503 0.03092364 -0.06634150
v -0.01299681 0.03087680 -0.06604220
v -0.01346117 0.03107213 -0.06530397
v -0.01299681 0.03126175 -0.06476551
v -0.01448839 0.03120806 -0.06436310
v -0.01602922 0.03095448 -0.06464450
v -0.01657098 0.03108927 -0.06386116
v -0.01448839 0.03138397 -0.06322675
v -0.01448839 0.03101502 -0.06509417
v -0.01602922 0.03121720 -0.06331483
v -0.01753136 0.03104586 -0.06331483
v -0.01887519 0.03088709 -0.06322675
v -0.02033511 0.03068605 -0.06322675
v -0.02179855 0.03052727 -0.06176533
v -0.02471840 0.02992987 -0.06030391
v -0.02325848 0.03012976 -0.06030391
v -0.02179855 0.03031024 -0.06030391
v -0.02033511 0.03047930 -0.06030391
v -0.01887519 0.03063693 -0.06030391
v -0.01868874 0.03032852 -0.05902722
v -0.01741175 0.03045074 -0.05902722
v -0.01594831 0.03058781 -0.05902722
v -0.02014867 0.03018688 -0.05902722
v -0.00604547 0.03122748 -0.05902722
v -0.00604547 0.02738947 -0.05902722
v -0.02910520 0.02037252 -0.06634150
v -0.01159669 0.03092021 -0.06634150
v -0.01448839 0.03066891 -0.06615104
v -0.01741175 0.03076029 -0.06468890
v -0.01887519 0.03055583 -0.06468890
v -0.01594831 0.03048615 -0.06615104
v -0.02033511 0.03033308 -0.06468890
v -0.02179855 0.03045531 -0.06322675
v -0.02325848 0.03030910 -0.06176533
v -0.02694522 0.02964772 -0.06097769
v -0.02612907 0.02971740 -0.06041561
v -0.02658288 0.02959061 -0.06000317
v -0.02560842 0.02966486 -0.05946257
v -0.02471840 0.02972426 -0.05920909
v -0.02299815 0.02988417 -0.05902722
v -0.02161211 0.03003838 -0.05902722
v -0.03722096 0.02037252 -0.05902722
v -0.03925781 0.02037252 -0.06634150
v -0.01429843 0.03060266 -0.06634150
v -0.01594831 0.03040048 -0.06634150
v -0.01741175 0.03028283 -0.06615104
v -0.01887519 0.03006465 -0.06615104
v -0.01741175 0.03020058 -0.06634150
v -0.02179855 0.02975167 -0.06572643
v -0.02271672 0.02967400 -0.06551161
v -0.02179855 0.03008750 -0.06468890
v -0.02325848 0.03019487 -0.06322675
v -0.02471840 0.03005894 -0.06176533
v -0.02694522 0.02964772 -0.06121685
v -0.02910520 0.02912228 -0.06176533
v -0.02910520 0.02911429 -0.06030391
v -0.02751512 0.02946839 -0.06041561
v -0.02762769 0.02922737 -0.05902722
v -0.02747290 0.02925821 -0.05902722
v -0.02602705 0.02950494 -0.05902722
v -0.02560842 0.02956206 -0.05902722
v -0.02471840 0.02968314 -0.05902722
v -0.04183291 0.02037252 -0.05902722
v -0.03927189 0.02037252 -0.06633005
v -0.03925430 0.02038281 -0.06634150
v -0.01887519 0.02998812 -0.06634150
v -0.02012404 0.02979622 -0.06634150
v -0.02035974 0.02975967 -0.06634150
v -0.02024013 0.02983391 -0.06619471
v -0.02191113 0.02949695 -0.06634150
v -0.02108794 0.02963973 -0.06634150
v -0.02322681 0.02935873 -0.06606010
v -0.02369118 0.02958719 -0.06523308
v -0.02322681 0.02981907 -0.06472255
v -0.02439123 0.02972426 -0.06425785
v -0.02536569 0.02962374 -0.06387906
v -0.02481338 0.02986133 -0.06332628
v -0.02588282 0.02973225 -0.06290454
v -0.02685727 0.02962945 -0.06219137
v -0.02629441 0.02975738 -0.06172882
v -0.02751512 0.02949923 -0.06172882
v -0.02910520 0.02892125 -0.06322675
v -0.03056864 0.02874305 -0.06176533
v -0.03276028 0.02817877 -0.06103999
v -0.03056864 0.02874991 -0.06030391
v -0.02910520 0.02892010 -0.05902722
v -0.02891875 0.02896008 -0.05902722
v -0.03056864 0.02856143 -0.05902722
v -0.04166053 0.02090025 -0.05902722
v -0.04195251 0.02037252 -0.06000102
v -0.03909599 0.02160046 -0.06591474
v -0.03885326 0.02122922 -0.06634150
v -0.03951814 0.02037252 -0.06607657
v -0.04002823 0.02076547 -0.06536197
v -0.02221367 0.02943869 -0.06634150
v -0.02471840 0.02900920 -0.06615104
v -0.02618184 0.02868251 -0.06615104
v -0.02879211 0.02828272 -0.06565554
v -0.02764176 0.02889612 -0.06468890
v -0.02618184 0.02921367 -0.06468890
v -0.02481338 0.02949923 -0.06472255
v -0.02764176 0.02928220 -0.06322675
v -0.02629441 0.02955520 -0.06332628
v -0.02921074 0.02848033 -0.06480203
v -0.03029776 0.02831242 -0.06439031
v -0.03127222 0.02817078 -0.06392203
v -0.03069880 0.02845634 -0.06335135
v -0.03161697 0.02827472 -0.06294750
v -0.03259494 0.02812851 -0.06201451
v -0.03207429 0.02832498 -0.06162212
v -0.03276028 0.02817877 -0.06102710
v -0.03334777 0.02792519 -0.06162212
v -0.03495192 0.02733807 -0.06176533
v -0.03495192 0.02738261 -0.06030391
v -0.03210244 0.02833069 -0.06044568
v -0.03264067 0.02814450 -0.06005258
v -0.03175065 0.02824388 -0.05902722
v -0.03145866 0.02832384 -0.05902722
v -0.04161480 0.02106360 -0.05911028
v -0.04155148 0.02116868 -0.05902722
v -0.04198417 0.02037252 -0.06030391
v -0.03881456 0.02265477 -0.06562547
v -0.03846277 0.02191458 -0.06634150
v -0.04044334 0.02037252 -0.06495597
v -0.03982771 0.02160046 -0.06508057
v -0.04057350 0.02037252 -0.06475119
v -0.04032021 0.02160046 -0.06434949
v -0.02471840 0.02891553 -0.06634150
v -0.02618184 0.02859570 -0.06634150
v -0.02737088 0.02832727 -0.06634150
v -0.02751863 0.02837524 -0.06614602
v -0.02818000 0.02812052 -0.06634150
v -0.02976656 0.02816050 -0.06536555
v -0.03069880 0.02805998 -0.06480203
v -0.03202856 0.02766133 -0.06468890
v -0.03459310 0.02687202 -0.06432658
v -0.03349200 0.02760764 -0.06322675
v -0.03207429 0.02804627 -0.06335135
v -0.03334777 0.02794575 -0.06044568
v -0.03587361 0.02679892 -0.06280287
v -0.03606709 0.02688687 -0.06176533
v -0.03613041 0.02691657 -0.06030391
v -0.03578918 0.02688915 -0.05902722
v -0.03495192 0.02720785 -0.05902722
v -0.03236628 0.02806455 -0.05902722
v -0.03336184 0.02775499 -0.05902722
v -0.04168164 0.02122466 -0.06030391
v -0.04136151 0.02195571 -0.06030391
v -0.04131578 0.02164729 -0.05902722
v -0.04162535 0.02108758 -0.06176533
v -0.04189623 0.02037252 -0.06144956
v -0.03848388 0.02363027 -0.06527318
v -0.03788232 0.02307056 -0.06616177
v -0.04012673 0.02243431 -0.06405091
v -0.03932114 0.02303286 -0.06466240
v -0.03774864 0.02294719 -0.06634150
v -0.04129819 0.02037252 -0.06347308
v -0.02869009 0.02797659 -0.06634150
v -0.03056864 0.02749113 -0.06615104
v -0.03311207 0.02685488 -0.06566700
v -0.02921074 0.02792519 -0.06614602
v -0.03355533 0.02708791 -0.06476407
v -0.03408653 0.02666070 -0.06530111
v -0.03502932 0.02647908 -0.06476407
v -0.03556756 0.02666527 -0.06377739
v -0.03502932 0.02702166 -0.06326471
v -0.03638370 0.02641854 -0.06326471
v -0.03679881 0.02655675 -0.06176533
v -0.03603191 0.02678863 -0.05902722
v -0.03593693 0.02682975 -0.05902722
v -0.03686213 0.02658531 -0.06030391
v -0.04131226 0.02181863 -0.06176533
v -0.04058757 0.02299859 -0.05902722
v -0.04075291 0.02306256 -0.06030391
v -0.04187160 0.02037252 -0.06176533
v -0.04153740 0.02088083 -0.06250786
v -0.03884974 0.02406433 -0.06429865
v -0.03794212 0.02459434 -0.06477482
v -0.03698174 0.02512549 -0.06525169
v -0.03750943 0.02415000 -0.06572428
v -0.03711894 0.02372964 -0.06634150
v -0.03755164 0.02320991 -0.06634150
v -0.04102731 0.02146110 -0.06308713
v -0.04032725 0.02276215 -0.06322675
v -0.03988048 0.02349319 -0.06322675
v -0.04141428 0.02037252 -0.06322461
v -0.03056864 0.02737576 -0.06634150
v -0.03181397 0.02695084 -0.06634150
v -0.03194765 0.02701252 -0.06615318
v -0.03260550 0.02665042 -0.06634150
v -0.03310152 0.02642996 -0.06634150
v -0.03355533 0.02634886 -0.06615318
v -0.03489916 0.02568521 -0.06615820
v -0.03600729 0.02545333 -0.06567487
v -0.03646462 0.02574460 -0.06473400
v -0.03739685 0.02543733 -0.06427646
v -0.03788232 0.02559382 -0.06312866
v -0.03787880 0.02593765 -0.06176533
v -0.03666865 0.02649050 -0.05902722
v -0.03787880 0.02598905 -0.06030391
v -0.04054184 0.02319849 -0.06188419
v -0.04005989 0.02377648 -0.06245129
v -0.04050666 0.02314366 -0.05902722
v -0.04033429 0.02344408 -0.05902722
v -0.04013025 0.02387586 -0.05931793
v -0.04019357 0.02395010 -0.06030391
v -0.04017247 0.02391926 -0.06147606
v -0.04162535 0.02037252 -0.06272481
v -0.03906433 0.02454066 -0.06312866
v -0.03837131 0.02503868 -0.06354969
v -0.03555700 0.02513920 -0.06634150
v -0.03608117 0.02471314 -0.06634150
v -0.03645054 0.02457150 -0.06618684
v -0.03635556 0.02447098 -0.06634150
v -0.03211299 0.02683775 -0.06634150
v -0.03477955 0.02560867 -0.06634150
v -0.03864570 0.02528884 -0.06257588
v -0.03874069 0.02536651 -0.06176533
v -0.03795620 0.02572404 -0.05902722
v -0.03877234 0.02538936 -0.06030391
v -0.03868791 0.02531854 -0.05933941
v -0.03958498 0.02445384 -0.06188419
v -0.03965182 0.02427451 -0.05902722
v -0.03909951 0.02482508 -0.05902722
v -0.03950055 0.02468115 -0.06030391
v -0.03823059 0.02555156 -0.05902722
f 1 2 6
f 1 6 13
f 1 13 24
f 1 24 41
f 1 41 65
f 1 65 95
f 1 95 96
f 1 96 66
f 1 66 42
f 1 42 26
f 1 26 15
f 1 15 8
f 1 8 3
f 1 3 4
f 1 4 5
f 1 5 2
f 2 5 7
f 2 7 6
f 3 8 9
f 3 9 4
f 4 9 10
f 4 10 5
f 5 11 7
f 5 10 12
f 5 12 11
f 6 7 14
f 6 14 13
f 7 11 14
f 8 15 16
f 8 16 17
f 8 17 9
f 9 17 18
f 9 18 10
f 10 18 19
f 10 19 12
f 11 12 20
f 11 20 21
f 11 21 14
f 12 19 22
f 12 22 23
f 12 23 20
f 13 14 24
f 14 21 25
f 14 25 24
f 15 26 27
f 15 27 28
f 15 28 16
f 16 28 17
f 17 29 30
f 17 30 31
f 17 31 18
f 17 28 29
f 18 31 32
f 18 32 33
f 18 33 19
f 19 33 34
f 19 34 35
f 19 35 22
f 20 23 36
f 20 36 37
f 20 37 21
f 21 37 38
f 21 38 39
f 21 39 25
f 22 35 23
f 23 40 36
f 23 35 40
f 24 25 41
f 25 39 41
f 26 42 43
f 26 43 44
f 26 44 45
f 26 45 27
f 27 45 46
f 27 46 47
f 27 47 48
f 27 48 49
f 27 49 29
f 27 29 28
f 29 50 51
f 29 51 30
f 29 49 50
f 30 51 52
f 30 52 53
f 30 53 54
f 30 54 55
f 30 55 56
f 30 56 57
f 30 57 31
f 31 57 55
f 31 55 32
f 32 55 58
f 32 58 59
f 32 59 60
f 32 60 33
f 33 60 34
f 34 61 35
f 34 60 62
f 34 62 63
f 34 63 61
f 35 61 40
f 36 40 61
f 36 61 63
f 36 63 62
f 36 62 93
f 36 93 92
f 36 92 91
f 36 91 94
f 36 94 112
f 36 112 111
f 36 111 133
f 36 133 132
f 36 132 131
f 36 131 130
f 36 130 129
f 36 129 158
f 36 158 157
f 36 157 159
f 36 159 189
f 36 189 188
f 36 188 216
f 36 216 217
f 36 217 215
f 36 215 214
f 36 214 241
f 36 241 240
f 36 240 270
f 36 270 290
f 36 290 297
f 36 297 295
f 36 295 294
f 36 294 275
f 36 275 274
f 36 274 244
f 36 244 220
f 36 220 191
f 36 191 160
f 36 160 134
f 36 134 113
f 36 113 96
f 36 96 95
f 36 95 64
f 36 64 39
f 36 39 38
f 36 38 37
f 39 64 65
f 39 65 41
f 42 66 97
f 42 97 114
f 42 114 136
f 42 136 163
f 42 163 194
f 42 194 227
f 42 227 253
f 42 253 252
f 42 252 285
f 42 285 283
f 42 283 282
f 42 282 287
f 42 287 262
f 42 262 261
f 42 261 286
f 42 286 259
f 42 259 258
f 42 258 229
f 42 229 203
f 42 203 201
f 42 201 200
f 42 200 199
f 42 199 166
f 42 166 141
f 42 141 142
f 42 142 139
f 42 139 138
f 42 138 137
f 42 137 119
f 42 119 116
f 42 116 115
f 42 115 98
f 42 98 72
f 42 72 71
f 42 71 70
f 42 70 69
f 42 69 68
f 42 68 67
f 42 67 43
f 43 67 68
f 43 68 69
f 43 69 44
f 44 69 45
f 45 69 70
f 45 70 71
f 45 71 46
f 46 71 72
f 46 72 47
f 47 73 74
f 47 74 48
f 47 72 73
f 48 74 75
f 48 75 76
f 48 76 49
f 49 77 78
f 49 78 79
f 49 79 50
f 49 76 80
f 49 80 77
f 50 79 51
f 51 79 81
f 51 81 78
f 51 78 82
f 51 82 83
f 51 83 84
f 51 84 85
f 51 85 52
f 52 85 86
f 52 86 87
f 52 87 88
f 52 88 53
f 53 55 54
f 53 88 89
f 53 89 55
f 55 89 90
f 55 90 58
f 55 57 56
f 58 91 92
f 58 92 93
f 58 93 59
f 58 90 94
f 58 94 91
f 59 93 60
f 60 93 62
f 64 95 65
f 66 96 97
f 72 98 73
f 73 98 99
f 73 99 74
f 74 99 80
f 74 80 76
f 74 76 75
f 77 100 78
f 77 80 100
f 78 81 79
f 78 100 101
f 78 101 84
f 78 84 83
f 78 83 82
f 80 99 102
f 80 102 100
f 84 103 104
f 84 104 105
f 84 105 85
f 84 101 103
f 85 105 86
f 86 105 106
f 86 106 107
f 86 107 108
f 86 108 109
f 86 109 87
f 87 109 110
f 87 110 88
f 88 110 111
f 88 111 89
f 89 111 112
f 89 112 90
f 90 112 94
f 96 113 97
f 97 113 134
f 97 134 161
f 97 161 192
f 97 192 222
f 97 222 246
f 97 246 279
f 97 279 257
f 97 257 228
f 97 228 197
f 97 197 195
f 97 195 164
f 97 164 135
f 97 135 114
f 98 115 99
f 99 115 116
f 99 116 102
f 100 102 117
f 100 117 101
f 101 117 118
f 101 118 103
f 102 116 119
f 102 119 117
f 103 120 121
f 103 121 122
f 103 122 104
f 103 118 120
f 104 122 123
f 104 123 124
f 104 124 105
f 105 124 106
f 106 125 126
f 106 126 127
f 106 127 128
f 106 128 108
f 106 108 107
f 106 124 125
f 108 128 129
f 108 129 130
f 108 130 109
f 109 130 131
f 109 131 132
f 109 132 133
f 109 133 110
f 110 133 111
f 114 135 136
f 117 119 137
f 117 137 118
f 118 137 138
f 118 138 139
f 118 139 140
f 118 140 120
f 120 141 121
f 120 140 139
f 120 139 142
f 120 142 141
f 121 141 143
f 121 143 144
f 121 144 122
f 122 144 145
f 122 145 123
f 123 145 146
f 123 146 147
f 123 147 148
f 123 148 149
f 123 149 150
f 123 150 124
f 124 150 151
f 124 151 125
f 125 150 152
f 125 152 126
f 125 151 150
f 126 152 150
f 126 150 153
f 126 153 154
f 126 154 155
f 126 155 156
f 126 156 127
f 127 157 158
f 127 158 128
f 127 156 159
f 127 159 157
f 128 158 129
f 134 160 161
f 135 162 163
f 135 163 136
f 135 164 165
f 135 165 162
f 141 166 143
f 143 167 144
f 143 166 167
f 144 167 168
f 144 168 169
f 144 169 170
f 144 170 171
f 144 171 172
f 144 172 146
f 144 146 145
f 146 172 147
f 147 172 171
f 147 171 170
f 147 170 173
f 147 173 174
f 147 174 148
f 148 174 149
f 149 174 173
f 149 173 150
f 150 173 153
f 153 175 176
f 153 176 177
f 153 177 178
f 153 178 179
f 153 179 154
f 153 173 175
f 154 179 180
f 154 180 181
f 154 181 155
f 155 182 156
f 155 181 180
f 155 180 183
f 155 183 184
f 155 184 185
f 155 185 182
f 156 182 186
f 156 186 187
f 156 187 188
f 156 188 189
f 156 189 159
f 160 190 161
f 160 191 190
f 161 190 192
f 162 193 163
f 162 165 193
f 163 193 194
f 164 195 165
f 165 196 193
f 165 195 197
f 165 197 198
f 165 198 196
f 166 199 167
f 167 199 200
f 167 200 168
f 168 200 201
f 168 201 202
f 168 202 169
f 169 202 201
f 169 201 203
f 169 203 204
f 169 204 170
f 170 204 175
f 170 175 173
f 175 204 176
f 176 204 177
f 177 179 178
f 177 204 205
f 177 205 206
f 177 206 207
f 177 207 208
f 177 208 209
f 177 209 179
f 179 209 208
f 179 208 180
f 180 208 184
f 180 184 183
f 182 187 186
f 182 185 210
f 182 210 187
f 184 211 212
f 184 212 213
f 184 213 185
f 184 208 211
f 185 213 214
f 185 214 215
f 185 215 187
f 185 187 210
f 187 216 188
f 187 215 217
f 187 217 216
f 190 218 192
f 190 191 219
f 190 219 218
f 191 220 219
f 192 218 221
f 192 221 222
f 193 223 224
f 193 224 194
f 193 196 225
f 193 225 226
f 193 226 223
f 194 224 227
f 196 198 225
f 197 228 198
f 198 228 225
f 203 229 204
f 204 230 231
f 204 231 206
f 204 206 205
f 204 229 232
f 204 232 230
f 206 231 233
f 206 233 207
f 207 233 234
f 207 234 235
f 207 235 236
f 207 236 237
f 207 237 208
f 208 237 211
f 211 238 239
f 211 239 212
f 211 237 236
f 211 236 238
f 212 239 213
f 213 240 241
f 213 241 214
f 213 239 242
f 213 242 240
f 218 219 243
f 218 243 221
f 219 220 244
f 219 244 245
f 219 245 243
f 221 246 222
f 221 243 247
f 221 247 246
f 223 226 248
f 223 248 249
f 223 249 250
f 223 250 251
f 223 251 252
f 223 252 253
f 223 253 224
f 224 253 227
f 225 228 254
f 225 254 255
f 225 255 256
f 225 256 248
f 225 248 226
f 228 257 254
f 229 258 230
f 229 230 232
f 230 258 259
f 230 259 260
f 230 260 231
f 231 260 261
f 231 261 234
f 231 234 233
f 234 261 262
f 234 262 263
f 234 263 264
f 234 264 265
f 234 265 235
f 235 265 266
f 235 266 236
f 236 266 267
f 236 267 238
f 238 267 268
f 238 268 239
f 239 268 269
f 239 269 242
f 240 242 270
f 242 269 271
f 242 271 270
f 243 245 272
f 243 272 273
f 243 273 255
f 243 255 247
f 244 274 245
f 245 274 275
f 245 275 276
f 245 276 277
f 245 277 278
f 245 278 272
f 246 247 279
f 247 255 254
f 247 254 257
f 247 257 279
f 248 256 273
f 248 273 280
f 248 280 281
f 248 281 249
f 249 281 267
f 249 267 250
f 250 266 265
f 250 265 282
f 250 282 283
f 250 283 284
f 250 284 251
f 250 267 266
f 251 284 285
f 251 285 252
f 255 273 256
f 259 286 260
f 260 286 261
f 262 287 263
f 263 287 264
f 264 287 265
f 265 287 282
f 267 281 288
f 267 288 268
f 268 288 269
f 269 288 289
f 269 289 271
f 270 271 290
f 271 289 291
f 271 291 292
f 271 292 290
f 272 278 273
f 273 293 288
f 273 288 280
f 273 278 293
f 275 294 276
f 276 294 295
f 276 295 292
f 276 292 296
f 276 296 277
f 277 296 278
f 278 296 289
f 278 289 293
f 280 288 281
f 283 285 284
f 288 293 289
f 289 296 291
f 290 292 297
f 291 296 292
f 292 295 297

