# https://github.com/mikedh/trimesh
v -0.04188579 -0.01150149 -0.06225111
v -0.04174384 -0.01190941 -0.06225111
v -0.04173182 -0.01179938 -0.06176464
v -0.04183527 -0.01150149 -0.06176464
v -0.03762254 -0.01150149 -0.06225111
v -0.04147198 -0.01260705 -0.06225111
v -0.04162355 -0.01152456 -0.06030294
v -0.04178715 -0.01150149 -0.06140959
v -0.04143829 -0.01253066 -0.06176464
v -0.02450560 -0.01150149 -0.03870023
v -0.02963016 -0.01640948 -0.06225111
v -0.04102929 -0.01345268 -0.06225111
v -0.04094509 -0.01349063 -0.06176464
v -0.04161393 -0.01150149 -0.06019689
v -0.04162595 -0.01150149 -0.06026836
v -0.04132041 -0.01225535 -0.06030294
v -0.04069006 -0.01349063 -0.06030294
v -0.02952190 -0.01150149 -0.03870023
v -0.01730716 -0.01640948 -0.03870023
v -0.03864745 -0.01640948 -0.06225111
v -0.04033880 -0.01459667 -0.06225111
v -0.04030993 -0.01455823 -0.06176464
v -0.04145032 -0.01150149 -0.05932540
v -0.04119049 -0.01190989 -0.05892885
v -0.04132522 -0.01150149 -0.05871213
v -0.04017039 -0.01436364 -0.06030294
v -0.04008378 -0.01424113 -0.05951676
v -0.04036767 -0.01353195 -0.05895190
v -0.03149232 -0.01150149 -0.04066914
v -0.02782814 -0.01365255 -0.03870023
v -0.02498438 -0.01640948 -0.03870023
v -0.03861137 -0.01640948 -0.06176464
v -0.03903962 -0.01608036 -0.06225111
v -0.03996589 -0.01508387 -0.06225111
v -0.03974695 -0.01528903 -0.06176464
v -0.03962425 -0.01509492 -0.06030294
v -0.04124342 -0.01150149 -0.05835939
v -0.04077667 -0.01202857 -0.05737724
v -0.03935479 -0.01495991 -0.05881819
v -0.03996348 -0.01404653 -0.05854153
v -0.04024737 -0.01306061 -0.05737724
v -0.03265678 -0.01150149 -0.04183343
v -0.02714968 -0.01447367 -0.03870023
v -0.02556179 -0.01602126 -0.03870023
v -0.02502528 -0.01640948 -0.03870484
v -0.03847423 -0.01640948 -0.06096924
v -0.03889285 -0.01596409 -0.06030294
v -0.03901556 -0.01606883 -0.06176464
v -0.03977101 -0.01532795 -0.06225111
v -0.03874850 -0.01582139 -0.05909715
v -0.04101245 -0.01150149 -0.05737724
v -0.04012467 -0.01284825 -0.05647578
v -0.04037008 -0.01206124 -0.05595934
v -0.04063473 -0.01150149 -0.05598931
v -0.04089697 -0.01150149 -0.05693919
v -0.03860415 -0.01567869 -0.05812192
v -0.03906849 -0.01480712 -0.05737724
v -0.03979988 -0.01379189 -0.05737724
v -0.03295511 -0.01150149 -0.04215620
v -0.03243544 -0.01237787 -0.04237984
v -0.03103280 -0.01391633 -0.04230606
v -0.03149473 -0.01442274 -0.04328129
v -0.02719780 -0.01453085 -0.03880628
v -0.02700052 -0.01463751 -0.03870023
v -0.02572780 -0.01589874 -0.03870023
v -0.02575907 -0.01592565 -0.03877170
v -0.02759718 -0.01640948 -0.04142535
v -0.03835875 -0.01640948 -0.06030294
v -0.03794494 -0.01640948 -0.05879744
v -0.03787276 -0.01640948 -0.05856919
v -0.03774284 -0.01619904 -0.05737724
v -0.03960260 -0.01339742 -0.05595934
v -0.03996829 -0.01257054 -0.05550285
v -0.04022091 -0.01159615 -0.05471897
v -0.04025219 -0.01150149 -0.05467747
v -0.03847423 -0.01553791 -0.05737724
v -0.03747819 -0.01597946 -0.05591554
v -0.03727850 -0.01580361 -0.05485961
v -0.03883030 -0.01450442 -0.05591554
v -0.03393431 -0.01150149 -0.04328360
v -0.03334967 -0.01184839 -0.04292394
v -0.03287812 -0.01290302 -0.04335507
v -0.03196388 -0.01340991 -0.04282941
v -0.03100393 -0.01539713 -0.04383001
v -0.02959166 -0.01543269 -0.04229914
v -0.02816256 -0.01546920 -0.04079133
v -0.02644716 -0.01522705 -0.03870023
v -0.02663482 -0.01502957 -0.03870023
v -0.03246912 -0.01387789 -0.04382770
v -0.03288534 -0.01435596 -0.04480293
v -0.03194944 -0.01487678 -0.04431647
v -0.02673346 -0.01550572 -0.03929736
v -0.02861728 -0.01588817 -0.04176657
v -0.02890117 -0.01640948 -0.04282941
v -0.03748541 -0.01640948 -0.05737724
v -0.03867152 -0.01430070 -0.05501869
v -0.03900593 -0.01353580 -0.05449995
v -0.03878700 -0.01302362 -0.05299214
v -0.03984319 -0.01206124 -0.05432012
v -0.04000198 -0.01150149 -0.05390743
v -0.04017520 -0.01150149 -0.05442617
v -0.03820958 -0.01523521 -0.05591554
v -0.03690318 -0.01640948 -0.05584176
v -0.03647975 -0.01640948 -0.05480428
v -0.03651824 -0.01624948 -0.05440542
v -0.03614292 -0.01606642 -0.05299214
v -0.03707400 -0.01561382 -0.05388438
v -0.03432406 -0.01150149 -0.04374471
v -0.03385491 -0.01229379 -0.04392684
v -0.03426392 -0.01281077 -0.04490208
v -0.03336892 -0.01334457 -0.04436488
v -0.03142977 -0.01579688 -0.04480293
v -0.03002954 -0.01585166 -0.04327438
v -0.03279151 -0.01571088 -0.04637299
v -0.03240416 -0.01533083 -0.04539776
v -0.03385973 -0.01378564 -0.04543004
v -0.03423023 -0.01422863 -0.04640527
v -0.03332562 -0.01477973 -0.04590267
v -0.02900703 -0.01635759 -0.04287091
v -0.02905275 -0.01640948 -0.04300002
v -0.03848626 -0.01405326 -0.05404346
v -0.03788238 -0.01495750 -0.05445154
v -0.03754074 -0.01467259 -0.05299214
v -0.03827213 -0.01375441 -0.05299214
v -0.03863062 -0.01279203 -0.05221057
v -0.03936682 -0.01202857 -0.05299214
v -0.03964831 -0.01150149 -0.05299214
v -0.03631614 -0.01640948 -0.05441464
v -0.03613811 -0.01640948 -0.05399274
v -0.03570504 -0.01640948 -0.05299214
v -0.03588068 -0.01585550 -0.05187396
v -0.03687431 -0.01540338 -0.05299214
v -0.03550295 -0.01150149 -0.04524560
v -0.03450210 -0.01189500 -0.04433722
v -0.03531048 -0.01210016 -0.04559834
v -0.03558715 -0.01263540 -0.04655513
v -0.03448526 -0.01337532 -0.04582428
v -0.03135519 -0.01640948 -0.04568825
v -0.03057808 -0.01640948 -0.04474991
v -0.03053718 -0.01613753 -0.04427728
v -0.03196147 -0.01601597 -0.04580584
v -0.03241859 -0.01640948 -0.04711306
v -0.03199515 -0.01640948 -0.04652977
v -0.03448045 -0.01449001 -0.04714534
v -0.03377552 -0.01522128 -0.04714534
v -0.03408106 -0.01554704 -0.04809752
v -0.03304413 -0.01593141 -0.04714534
v -0.03592398 -0.01306302 -0.04753036
v -0.03553423 -0.01403693 -0.04812058
v -0.03016186 -0.01640948 -0.04425883
v -0.03730737 -0.01440497 -0.05193160
v -0.03786073 -0.01345844 -0.05158347
v -0.03884955 -0.01197812 -0.05164572
v -0.03739880 -0.01309569 -0.05006874
v -0.03841408 -0.01243168 -0.05123764
v -0.03909495 -0.01150149 -0.05163419
v -0.03505545 -0.01640948 -0.05162958
v -0.03500734 -0.01640948 -0.05153044
v -0.03493756 -0.01640948 -0.05139442
v -0.03424467 -0.01640948 -0.05006874
v -0.03467051 -0.01606594 -0.05006874
v -0.03563287 -0.01563208 -0.05089873
v -0.03647253 -0.01501852 -0.05141516
v -0.03583737 -0.01150149 -0.04570900
v -0.03595045 -0.01166053 -0.04602947
v -0.03341945 -0.01640948 -0.04866929
v -0.03495922 -0.01496327 -0.04859782
v -0.03438662 -0.01582859 -0.04907276
v -0.03642441 -0.01202712 -0.04715226
v -0.03689837 -0.01239372 -0.04828888
v -0.03718948 -0.01281702 -0.04926181
v -0.03636426 -0.01342721 -0.04869235
v -0.03583015 -0.01437902 -0.04909581
v -0.03706678 -0.01412437 -0.05095637
v -0.03871001 -0.01150149 -0.05070276
v -0.03813259 -0.01197812 -0.05010563
v -0.03864745 -0.01150149 -0.05057135
v -0.03345553 -0.01640948 -0.04872924
v -0.03540190 -0.01539761 -0.05006874
v -0.03609961 -0.01466682 -0.05006874
v -0.03601781 -0.01150149 -0.04598105
v -0.03711249 -0.01150149 -0.04766870
v -0.03724963 -0.01150149 -0.04789694
v -0.03682860 -0.01382648 -0.05006874
v -0.03741805 -0.01195506 -0.04870849
v -0.03829379 -0.01150149 -0.04987738
f 1 2 3
f 1 3 4
f 1 4 8
f 1 8 15
f 1 15 14
f 1 14 23
f 1 23 25
f 1 25 37
f 1 37 51
f 1 51 55
f 1 55 54
f 1 54 75
f 1 75 101
f 1 101 100
f 1 100 127
f 1 127 156
f 1 156 175
f 1 175 177
f 1 177 186
f 1 186 183
f 1 183 182
f 1 182 181
f 1 181 164
f 1 164 133
f 1 133 108
f 1 108 80
f 1 80 59
f 1 59 42
f 1 42 29
f 1 29 18
f 1 18 10
f 1 10 5
f 1 5 11
f 1 11 20
f 1 20 33
f 1 33 49
f 1 49 34
f 1 34 21
f 1 21 12
f 1 12 6
f 1 6 2
f 2 6 3
f 3 7 8
f 3 8 4
f 3 6 9
f 3 9 7
f 5 10 11
f 6 12 13
f 6 13 9
f 7 14 15
f 7 15 8
f 7 9 16
f 7 16 14
f 9 13 17
f 9 17 16
f 10 18 30
f 10 30 43
f 10 43 64
f 10 64 88
f 10 88 87
f 10 87 65
f 10 65 44
f 10 44 31
f 10 31 19
f 10 19 11
f 11 19 31
f 11 31 45
f 11 45 67
f 11 67 94
f 11 94 120
f 11 120 150
f 11 150 139
f 11 139 138
f 11 138 143
f 11 143 142
f 11 142 166
f 11 166 178
f 11 178 160
f 11 160 159
f 11 159 158
f 11 158 157
f 11 157 130
f 11 130 129
f 11 129 128
f 11 128 104
f 11 104 103
f 11 103 95
f 11 95 70
f 11 70 69
f 11 69 68
f 11 68 46
f 11 46 32
f 11 32 20
f 12 21 22
f 12 22 13
f 13 22 17
f 14 16 23
f 16 24 25
f 16 25 23
f 16 17 24
f 17 22 26
f 17 26 27
f 17 27 28
f 17 28 24
f 18 29 30
f 20 32 33
f 21 34 22
f 22 34 35
f 22 35 36
f 22 36 26
f 24 37 25
f 24 28 38
f 24 38 37
f 26 36 27
f 27 36 39
f 27 39 40
f 27 40 28
f 28 41 38
f 28 40 41
f 29 42 30
f 30 42 43
f 31 44 45
f 32 46 47
f 32 47 48
f 32 48 33
f 33 48 49
f 34 49 35
f 35 49 48
f 35 48 47
f 35 47 36
f 36 47 50
f 36 50 39
f 37 38 51
f 38 41 52
f 38 52 53
f 38 53 54
f 38 54 55
f 38 55 51
f 39 50 56
f 39 56 57
f 39 57 40
f 40 57 58
f 40 58 41
f 41 58 52
f 42 59 60
f 42 60 43
f 43 61 62
f 43 62 63
f 43 63 64
f 43 60 61
f 44 65 66
f 44 66 67
f 44 67 45
f 46 68 47
f 47 68 50
f 50 68 69
f 50 69 70
f 50 70 71
f 50 71 56
f 52 58 72
f 52 72 73
f 52 73 53
f 53 73 74
f 53 74 75
f 53 75 54
f 56 76 57
f 56 71 77
f 56 77 78
f 56 78 76
f 57 76 79
f 57 79 58
f 58 79 72
f 59 80 81
f 59 81 82
f 59 82 60
f 60 82 83
f 60 83 61
f 61 83 62
f 62 84 85
f 62 85 86
f 62 86 87
f 62 87 88
f 62 88 64
f 62 64 63
f 62 83 89
f 62 89 90
f 62 90 91
f 62 91 84
f 65 87 92
f 65 92 93
f 65 93 66
f 66 93 67
f 67 93 94
f 70 95 71
f 71 95 77
f 72 79 96
f 72 96 97
f 72 97 73
f 73 97 98
f 73 98 99
f 73 99 100
f 73 100 101
f 73 101 74
f 74 101 75
f 76 78 102
f 76 102 79
f 77 95 103
f 77 103 78
f 78 103 104
f 78 104 105
f 78 105 106
f 78 106 107
f 78 107 102
f 79 102 96
f 80 108 109
f 80 109 81
f 81 109 82
f 82 89 83
f 82 109 110
f 82 110 111
f 82 111 89
f 84 91 112
f 84 112 113
f 84 113 85
f 85 93 86
f 85 113 93
f 86 93 92
f 86 92 87
f 89 111 90
f 90 114 115
f 90 115 91
f 90 111 110
f 90 110 116
f 90 116 117
f 90 117 118
f 90 118 114
f 91 115 112
f 93 113 119
f 93 119 94
f 94 119 120
f 96 121 97
f 96 102 122
f 96 122 123
f 96 123 121
f 97 121 98
f 98 121 124
f 98 124 125
f 98 125 99
f 99 125 126
f 99 126 100
f 100 126 127
f 102 107 122
f 104 128 105
f 105 128 129
f 105 129 106
f 106 129 130
f 106 130 131
f 106 131 107
f 107 131 132
f 107 132 123
f 107 123 122
f 108 133 134
f 108 134 110
f 108 110 109
f 110 134 133
f 110 133 135
f 110 135 136
f 110 136 137
f 110 137 117
f 110 117 116
f 112 138 139
f 112 139 140
f 112 140 113
f 112 115 114
f 112 114 141
f 112 141 138
f 113 140 120
f 113 120 119
f 114 142 143
f 114 143 141
f 114 118 117
f 114 117 144
f 114 144 145
f 114 145 146
f 114 146 147
f 114 147 142
f 117 137 136
f 117 136 148
f 117 148 149
f 117 149 144
f 120 140 150
f 121 123 151
f 121 151 124
f 123 132 151
f 124 151 152
f 124 152 125
f 125 153 126
f 125 152 154
f 125 154 155
f 125 155 153
f 126 153 127
f 127 153 156
f 130 157 131
f 131 157 158
f 131 158 159
f 131 159 160
f 131 160 161
f 131 161 162
f 131 162 132
f 132 163 151
f 132 162 163
f 133 164 165
f 133 165 135
f 135 165 136
f 136 165 148
f 138 141 143
f 139 150 140
f 142 147 166
f 144 149 167
f 144 167 146
f 144 146 145
f 146 167 168
f 146 168 147
f 147 168 166
f 148 165 169
f 148 169 170
f 148 170 171
f 148 171 172
f 148 172 149
f 149 172 173
f 149 173 167
f 151 163 174
f 151 174 152
f 152 174 154
f 153 155 175
f 153 175 156
f 154 174 171
f 154 171 155
f 155 171 176
f 155 176 177
f 155 177 175
f 160 168 161
f 160 178 168
f 161 168 162
f 162 179 180
f 162 180 174
f 162 174 163
f 162 168 179
f 164 181 165
f 165 181 182
f 165 182 169
f 166 168 178
f 167 173 179
f 167 179 168
f 169 182 170
f 170 182 183
f 170 183 171
f 171 174 184
f 171 184 173
f 171 173 172
f 171 183 185
f 171 185 176
f 173 180 179
f 173 184 174
f 173 174 180
f 176 185 186
f 176 186 177
f 183 186 185

