# https://github.com/mikedh/trimesh
v -0.00604547 0.02670387 -0.06580579
v -0.00604547 0.02347496 -0.04764059
v -0.00604547 0.03156443 -0.06580579
v 0.01458253 0.02664798 -0.06580579
v 0.01458455 0.02121773 -0.04764059
v -0.00604547 0.02696614 -0.04764059
v -0.00604547 0.03188904 -0.06468913
v -0.00604143 0.03159023 -0.06580579
v 0.01458455 0.03061317 -0.06580579
v 0.01458455 0.02688660 -0.06469802
v 0.01458455 0.02520980 -0.04764059
v -0.00604547 0.02978552 -0.05482772
v 0.00013586 0.02717466 -0.04764059
v -0.00604547 0.03192881 -0.06435663
v -0.00571227 0.03191377 -0.06468913
v -0.00459555 0.03170524 -0.06580579
v 0.01458455 0.03118178 -0.06580579
v 0.01458455 0.02545809 -0.04829849
v 0.01425539 0.02534631 -0.04764059
v -0.00604547 0.03011658 -0.05567233
v 0.00063263 0.02717896 -0.04764059
v -0.00571227 0.03021547 -0.05591771
v -0.00604547 0.03021225 -0.05591771
v -0.00604547 0.03204168 -0.06322575
v -0.00425024 0.03200836 -0.06468913
v -0.00313352 0.03180736 -0.06580579
v 0.01458455 0.03119575 -0.06479226
v 0.01441492 0.03120650 -0.06580579
v 0.01329214 0.03138600 -0.06468913
v 0.01458455 0.02944909 -0.05906852
v 0.01326589 0.02562470 -0.04764059
v 0.00159790 0.02718541 -0.04764059
v -0.00425024 0.03021870 -0.05591771
v -0.00425024 0.03074538 -0.05737753
v -0.00571227 0.03073463 -0.05737753
v -0.00604547 0.03061317 -0.05704680
v -0.00604547 0.03201158 -0.06289501
v -0.00571227 0.03205887 -0.06322575
v -0.00278820 0.03209112 -0.06468913
v -0.00167149 0.03189012 -0.06580579
v 0.01458455 0.03116888 -0.06459667
v 0.01435434 0.03121510 -0.06580579
v 0.01329214 0.03135698 -0.06580579
v 0.01294683 0.03140213 -0.06580579
v 0.01183011 0.03157411 -0.06468913
v 0.01417057 0.03113126 -0.06385875
v 0.01458455 0.02980917 -0.06005004
v 0.01232688 0.02584935 -0.04764059
v 0.00302964 0.02712092 -0.04764059
v 0.00159790 0.03010798 -0.05591771
v 0.00013586 0.03016710 -0.05591771
v -0.00132617 0.03072281 -0.05737753
v -0.00278820 0.03074323 -0.05737753
v -0.00278820 0.03105064 -0.05828260
v -0.00425024 0.03104742 -0.05829860
v -0.00571227 0.03103775 -0.05833594
v -0.00604547 0.03072926 -0.05737753
v -0.00604547 0.03188904 -0.06176414
v -0.00425024 0.03212552 -0.06322575
v -0.00132617 0.03214917 -0.06468913
v -0.00020945 0.03195569 -0.06580579
v 0.01458455 0.03092596 -0.06343201
v 0.01183011 0.03152896 -0.06580579
v 0.01329214 0.03119898 -0.06361693
v 0.01148479 0.03156658 -0.06580579
v 0.01036808 0.03173104 -0.06468913
v 0.00744401 0.03180951 -0.06322575
v 0.00890604 0.03164290 -0.06322575
v 0.01036808 0.03147414 -0.06322575
v 0.01329214 0.03098830 -0.06288613
v 0.01458455 0.03040035 -0.06176414
v 0.01420692 0.02967911 -0.05946860
v 0.01039837 0.02625672 -0.04764059
v 0.01086484 0.02616213 -0.04764059
v 0.01183011 0.02596221 -0.04764059
v 0.00305993 0.03001662 -0.05591771
v 0.00159790 0.03061962 -0.05737753
v 0.00451994 0.02701773 -0.04764059
v 0.00013586 0.03068197 -0.05737753
v -0.00132617 0.03103882 -0.05831282
v -0.00132617 0.03126454 -0.05904540
v -0.00278820 0.03126884 -0.05901340
v -0.00425024 0.03126132 -0.05902940
v -0.00571227 0.03124735 -0.05906674
v -0.00604547 0.03119683 -0.05891560
v -0.00604547 0.03103452 -0.05835016
v -0.00604547 0.03096358 -0.05811901
v -0.00604547 0.03181810 -0.06143163
v -0.00571227 0.03190194 -0.06176414
v -0.00278820 0.03217389 -0.06322575
v 0.00013586 0.03218141 -0.06468913
v 0.00125258 0.03199976 -0.06580579
v 0.01458455 0.03087867 -0.06327908
v 0.01180790 0.03127744 -0.06315995
v 0.01228043 0.03106462 -0.06262652
v 0.01002276 0.03170417 -0.06580579
v 0.00890604 0.03187077 -0.06468913
v 0.00598198 0.03195461 -0.06322575
v 0.00598198 0.03160635 -0.06176414
v 0.00744401 0.03143330 -0.06176414
v 0.01329214 0.03062607 -0.06176414
v 0.01329214 0.03012518 -0.06030253
v 0.00942906 0.02642870 -0.04764059
v 0.00305993 0.03052396 -0.05737753
v 0.00159790 0.03098723 -0.05847107
v 0.00598198 0.02688445 -0.04764059
v 0.00013586 0.03101840 -0.05838039
v 0.00013586 0.03124412 -0.05911119
v 0.00013586 0.03159130 -0.06030253
v -0.00132617 0.03162140 -0.06030253
v -0.00278820 0.03162355 -0.06030253
v -0.00425024 0.03160958 -0.06030253
v -0.00571227 0.03157948 -0.06030253
v -0.00604547 0.03149887 -0.06003581
v -0.00604547 0.03124197 -0.05908097
v -0.00604547 0.03156766 -0.06030253
v -0.00425024 0.03194279 -0.06176414
v -0.00132617 0.03219538 -0.06322575
v 0.00159790 0.03219861 -0.06468913
v 0.00271461 0.03202233 -0.06580579
v 0.01130507 0.03113019 -0.06240426
v 0.01036808 0.03097003 -0.06146897
v 0.01180790 0.03088512 -0.06185660
v 0.00856073 0.03182025 -0.06580579
v 0.00744401 0.03199331 -0.06468913
v 0.00451994 0.03205995 -0.06322575
v 0.00451994 0.03174716 -0.06176414
v 0.00598198 0.03125057 -0.06055680
v 0.00454014 0.03130002 -0.06019762
v 0.00504296 0.03108182 -0.05963929
v 0.00744401 0.03116136 -0.06085374
v 0.00823561 0.03111084 -0.06101022
v 0.00921097 0.03104850 -0.06121825
v 0.01036808 0.03058415 -0.06030253
v 0.01183011 0.03035843 -0.06030253
v 0.00890604 0.02651899 -0.04764059
v 0.00451994 0.03038853 -0.05737753
v 0.00454014 0.03090554 -0.05893516
v 0.00305993 0.03093778 -0.05862043
v 0.00159790 0.03121725 -0.05920188
v 0.00305993 0.03117318 -0.05935124
v 0.00757729 0.02670817 -0.04764059
v 0.00159790 0.03153971 -0.06030253
v 0.00013586 0.03195246 -0.06176414
v 0.00159790 0.03191484 -0.06176414
v -0.00132617 0.03196859 -0.06176414
v -0.00278820 0.03196429 -0.06176414
v 0.00013586 0.03219323 -0.06322575
v 0.00305993 0.03219323 -0.06468913
v 0.00417665 0.03201803 -0.06580579
v 0.00709869 0.03190947 -0.06580579
v 0.00598198 0.03209220 -0.06468913
v 0.00305993 0.03213304 -0.06322575
v 0.00305993 0.03185035 -0.06176414
v 0.00305993 0.03145802 -0.06030253
v 0.00406962 0.03113019 -0.05948637
v 0.00598198 0.03021117 -0.05737753
v 0.00598198 0.03069916 -0.05884092
v 0.00598198 0.03102055 -0.05982599
v 0.00879700 0.03084642 -0.06043411
v 0.00795087 0.02666410 -0.04764059
v 0.00159790 0.03217496 -0.06322575
v 0.00451994 0.03215991 -0.06468913
v 0.00451994 0.03200943 -0.06580579
v 0.00598198 0.03195998 -0.06580579
v 0.00563666 0.03197503 -0.06580579
f 1 2 6
f 1 6 12
f 1 12 20
f 1 20 23
f 1 23 36
f 1 36 57
f 1 57 87
f 1 87 86
f 1 86 85
f 1 85 115
f 1 115 114
f 1 114 116
f 1 116 88
f 1 88 58
f 1 58 37
f 1 37 24
f 1 24 14
f 1 14 7
f 1 7 3
f 1 3 8
f 1 8 16
f 1 16 26
f 1 26 40
f 1 40 61
f 1 61 92
f 1 92 120
f 1 120 150
f 1 150 164
f 1 164 166
f 1 166 165
f 1 165 151
f 1 151 124
f 1 124 96
f 1 96 65
f 1 65 63
f 1 63 44
f 1 44 43
f 1 43 42
f 1 42 28
f 1 28 17
f 1 17 9
f 1 9 4
f 1 4 5
f 1 5 2
f 2 5 11
f 2 11 19
f 2 19 31
f 2 31 48
f 2 48 75
f 2 75 74
f 2 74 73
f 2 73 103
f 2 103 136
f 2 136 161
f 2 161 142
f 2 142 106
f 2 106 78
f 2 78 49
f 2 49 32
f 2 32 21
f 2 21 13
f 2 13 6
f 3 7 8
f 4 9 10
f 4 10 5
f 5 10 9
f 5 9 17
f 5 17 27
f 5 27 41
f 5 41 62
f 5 62 93
f 5 93 71
f 5 71 47
f 5 47 30
f 5 30 18
f 5 18 11
f 6 13 12
f 7 14 15
f 7 15 16
f 7 16 8
f 11 18 19
f 12 13 20
f 13 21 22
f 13 22 23
f 13 23 20
f 14 24 25
f 14 25 15
f 15 25 26
f 15 26 16
f 17 28 29
f 17 29 27
f 18 30 19
f 19 30 31
f 21 32 22
f 22 33 34
f 22 34 35
f 22 35 23
f 22 32 33
f 23 35 36
f 24 37 38
f 24 38 39
f 24 39 25
f 25 39 40
f 25 40 26
f 27 29 41
f 28 42 29
f 29 43 44
f 29 44 45
f 29 45 46
f 29 46 41
f 29 42 43
f 30 47 31
f 31 47 48
f 32 49 50
f 32 50 51
f 32 51 52
f 32 52 53
f 32 53 33
f 33 53 34
f 34 53 54
f 34 54 55
f 34 55 35
f 35 56 57
f 35 57 36
f 35 55 56
f 37 58 59
f 37 59 38
f 38 59 39
f 39 59 60
f 39 60 61
f 39 61 40
f 41 46 62
f 44 63 45
f 45 64 46
f 45 63 65
f 45 65 66
f 45 66 67
f 45 67 68
f 45 68 69
f 45 69 64
f 46 64 70
f 46 70 62
f 47 71 72
f 47 72 73
f 47 73 74
f 47 74 75
f 47 75 48
f 49 76 77
f 49 77 50
f 49 78 76
f 50 77 79
f 50 79 51
f 51 79 52
f 52 79 80
f 52 80 54
f 52 54 53
f 54 80 81
f 54 81 82
f 54 82 55
f 55 82 83
f 55 83 56
f 56 84 85
f 56 85 86
f 56 86 87
f 56 87 57
f 56 83 84
f 58 88 89
f 58 89 59
f 59 90 60
f 59 89 90
f 60 91 92
f 60 92 61
f 60 90 91
f 62 70 93
f 64 69 94
f 64 94 95
f 64 95 70
f 65 96 97
f 65 97 66
f 66 97 98
f 66 98 67
f 67 98 99
f 67 99 68
f 68 99 69
f 69 99 100
f 69 100 94
f 70 95 101
f 70 101 71
f 70 71 93
f 71 101 102
f 71 102 72
f 72 102 103
f 72 103 73
f 76 104 77
f 76 78 104
f 77 105 79
f 77 104 105
f 78 106 104
f 79 107 80
f 79 105 107
f 80 107 108
f 80 108 81
f 81 108 109
f 81 109 110
f 81 110 82
f 82 110 111
f 82 111 83
f 83 111 112
f 83 112 84
f 84 113 114
f 84 114 115
f 84 115 85
f 84 112 113
f 88 116 113
f 88 113 89
f 89 113 117
f 89 117 90
f 90 117 147
f 90 147 118
f 90 118 91
f 91 119 120
f 91 120 92
f 91 118 119
f 94 121 95
f 94 100 121
f 95 121 122
f 95 122 123
f 95 123 101
f 96 124 125
f 96 125 97
f 97 125 98
f 98 125 126
f 98 126 127
f 98 127 99
f 99 128 100
f 99 127 129
f 99 129 130
f 99 130 128
f 100 128 131
f 100 131 132
f 100 132 133
f 100 133 121
f 101 123 134
f 101 134 135
f 101 135 136
f 101 136 102
f 102 136 103
f 104 137 138
f 104 138 139
f 104 139 105
f 104 106 137
f 105 140 107
f 105 139 141
f 105 141 140
f 106 142 137
f 107 140 108
f 108 140 143
f 108 143 109
f 109 144 110
f 109 143 145
f 109 145 144
f 110 144 146
f 110 146 111
f 111 146 147
f 111 147 112
f 112 147 117
f 112 117 113
f 113 116 114
f 118 146 148
f 118 148 119
f 118 147 146
f 119 148 149
f 119 149 150
f 119 150 120
f 121 133 122
f 122 133 134
f 122 134 123
f 124 151 152
f 124 152 125
f 125 152 126
f 126 153 154
f 126 154 127
f 126 152 153
f 127 154 155
f 127 155 129
f 128 130 131
f 129 155 156
f 129 156 130
f 130 156 138
f 130 138 137
f 130 137 157
f 130 157 158
f 130 158 159
f 130 159 132
f 130 132 131
f 132 160 133
f 132 159 158
f 132 158 160
f 133 160 134
f 134 160 157
f 134 157 161
f 134 161 136
f 134 136 135
f 137 142 161
f 137 161 157
f 138 156 139
f 139 156 141
f 140 141 155
f 140 155 143
f 141 156 155
f 143 155 154
f 143 154 145
f 144 148 146
f 144 145 162
f 144 162 148
f 145 154 153
f 145 153 162
f 148 162 149
f 149 162 163
f 149 163 150
f 150 163 164
f 151 165 163
f 151 163 152
f 152 163 153
f 153 163 162
f 157 160 158
f 163 165 166
f 163 166 164

