# https://github.com/mikedh/trimesh
v -0.01296582 0.00995472 -0.00244396
v -0.01923000 -0.00316561 -0.00245963
v -0.01296582 0.00995472 -0.00245963
v -0.01303117 0.00995472 -0.00192693
v -0.02274740 -0.00316561 -0.00245963
v -0.01305370 0.00995472 -0.00175850
v -0.01330156 0.00995472 -0.00035626
v -0.01412627 0.00995472 0.00403066
v -0.01416908 0.00995472 0.00423825
v -0.01442821 0.00995472 0.00545249
v -0.01443948 0.00995472 0.00550341
v -0.01937421 -0.00316561 -0.00195435
v -0.01813940 0.00995472 -0.00245963
v -0.02276318 -0.00311937 -0.00245963
v -0.02824546 -0.00316561 0.00792797
v -0.01488113 0.00995472 0.00679207
v -0.03257180 -0.00316561 0.03755141
v -0.01938998 -0.00316561 -0.00190343
v -0.01821376 0.00987894 -0.00245963
v -0.02105968 0.00916231 0.00185287
v -0.02128726 0.00934725 0.00282818
v -0.01974150 0.00995472 0.00110474
v -0.02307188 -0.00182738 -0.00245963
v -0.02862176 -0.00316561 0.00866042
v -0.02660055 0.00995472 0.03755141
v -0.03598329 -0.00316561 0.03755141
v -0.01851570 0.00955787 -0.00245963
v -0.01924577 0.00875776 -0.00245963
v -0.01984740 0.00802571 -0.00245963
v -0.02413994 0.00787288 0.00594210
v -0.02533870 0.00755181 0.00797497
v -0.02552347 0.00776757 0.00895027
v -0.02707825 0.00995472 0.01905585
v -0.02320482 -0.00033118 -0.00245963
v -0.02831982 -0.00179270 0.00779871
v -0.02922114 -0.00316561 0.00987858
v -0.03133699 0.00995472 0.03755141
v -0.03580303 -0.00185049 0.03755141
v -0.03572416 -0.00228844 0.03671711
v -0.03577824 -0.00316561 0.03644684
v -0.02013132 0.00763400 -0.00245963
v -0.02687320 0.00615450 0.00925188
v -0.02082984 0.00660785 -0.00245963
v -0.02705797 0.00643062 0.01022718
v -0.02746807 0.00995472 0.02010950
v -0.02828602 -0.00033118 0.00788096
v -0.02307864 0.00113163 -0.00245963
v -0.02867133 -0.00179270 0.00852725
v -0.02970560 -0.00316561 0.01090088
v -0.03116348 0.00995472 0.03668186
v -0.03154879 0.00964777 0.03755141
v -0.03577824 -0.00170023 0.03755141
v -0.03564079 -0.00131366 0.03715972
v -0.03225408 -0.00033118 0.02010950
v -0.03247039 -0.00179270 0.02010950
v -0.03274305 -0.00288692 0.02095162
v -0.03267094 -0.00316561 0.02049727
v -0.02829278 0.00456069 0.01082255
v -0.02847529 0.00496781 0.01179785
v -0.02146527 0.00552391 -0.00245963
v -0.02218858 0.00404441 -0.00245963
v -0.02864429 0.00517844 0.01280449
v -0.02984530 0.00479572 0.01642370
v -0.02786014 0.00995472 0.02167625
v -0.02929775 -0.00179270 0.00987858
v -0.02862176 -0.00033118 0.00861342
v -0.02849332 0.00113163 0.00888369
v -0.02275191 0.00249427 -0.00245963
v -0.02840544 0.00195358 0.00908345
v -0.03002782 -0.00316561 0.01162943
v -0.03158485 0.00959511 0.03755141
v -0.03106434 0.00995472 0.03619225
v -0.03567684 -0.00112744 0.03755141
v -0.03198368 0.00113163 0.02010950
v -0.03169301 0.00113163 0.01864849
v -0.03195214 -0.00033118 0.01864849
v -0.03216846 -0.00179270 0.01864849
v -0.03229915 -0.00316561 0.01864849
v -0.02804717 0.00406624 0.00990599
v -0.02846628 0.00358591 0.01041127
v -0.02866457 0.00406624 0.01132391
v -0.02982051 0.00326484 0.01359179
v -0.02921663 0.00405468 0.01280449
v -0.02249954 0.00323402 -0.00245963
v -0.02961997 0.00407138 0.01415190
v -0.02972362 0.00456968 0.01544840
v -0.03006387 0.00407138 0.01585183
v -0.03038609 0.00405468 0.01718749
v -0.03070831 0.00405468 0.01864849
v -0.03112743 0.00444510 0.02157049
v -0.03165020 0.00852401 0.03474691
v -0.03123784 0.00906727 0.03427297
v -0.03134375 0.00924322 0.03524828
v -0.03085478 0.00979932 0.03474691
v -0.03089759 0.00995472 0.03543237
v -0.02973038 -0.00179270 0.01087347
v -0.02918058 -0.00033118 0.00987858
v -0.02893271 0.00113163 0.00987858
v -0.02266178 0.00279094 -0.00245963
v -0.02978897 0.00160682 0.01221304
v -0.02917607 0.00259316 0.01133958
v -0.02859472 0.00250197 0.00990599
v -0.03051003 -0.00316561 0.01280449
v -0.03144515 0.00939476 0.03619225
v -0.03233295 0.00834036 0.03755141
v -0.03551461 -0.00034787 0.03755141
v -0.03526224 -0.00033118 0.03619225
v -0.03155781 0.00270746 0.02001941
v -0.03142261 0.00226053 0.01864849
v -0.03132797 0.00195872 0.01779461
v -0.03491748 0.00113163 0.03619225
v -0.03140233 0.00103146 0.01726191
v -0.03131445 0.00047664 0.01640020
v -0.03162541 -0.00033118 0.01718749
v -0.03183947 -0.00179270 0.01718749
v -0.03195439 -0.00316561 0.01718749
v -0.02995121 0.00229006 0.01318835
v -0.03014048 0.00270361 0.01415190
v -0.03061818 0.00259316 0.01572649
v -0.02996022 0.00359490 0.01456318
v -0.02968081 0.00270361 0.01274182
v -0.03128065 0.00326998 0.01947104
v -0.03102603 0.00400588 0.02001941
v -0.03123559 0.00465573 0.02263589
v -0.03200171 0.00844054 0.03619225
v -0.03137304 0.00348574 0.02044635
v -0.03274530 0.00621486 0.03407713
v -0.03002557 -0.00179270 0.01160201
v -0.02966729 -0.00033118 0.01104189
v -0.02957490 0.00112393 0.01142183
v -0.02987910 0.00063204 0.01196236
v -0.03006387 0.00112393 0.01274182
v -0.03056636 0.00113163 0.01426549
v -0.03105307 -0.00316561 0.01425374
v -0.03049200 -0.00179270 0.01280449
v -0.03248842 0.00805910 0.03755141
v -0.03516534 0.00113163 0.03755141
v -0.03475074 0.00260086 0.03755141
v -0.03446457 0.00269333 0.03611782
v -0.03420093 0.00324815 0.03558513
v -0.03119278 0.00299129 0.01864849
v -0.03103054 0.00250582 0.01726191
v -0.03121080 0.00145142 0.01682322
v -0.03104406 0.00103146 0.01584008
v -0.03117700 -0.00033118 0.01543273
v -0.03137980 -0.00033118 0.01616127
v -0.03144965 -0.00192241 0.01567166
v -0.03130094 -0.00249649 0.01499012
v -0.03153978 -0.00316561 0.01572258
v -0.03429106 0.00351656 0.03656043
v -0.03403194 0.00402386 0.03611782
v -0.03412207 0.00448620 0.03755141
v -0.03345960 0.00551620 0.03619225
v -0.03258757 0.00736687 0.03619225
v -0.03269573 0.00757749 0.03726156
v -0.03310583 0.00564335 0.03462940
v -0.03283994 0.00641007 0.03504851
v -0.02995571 -0.00033118 0.01177044
v -0.03034103 -0.00033118 0.01280449
v -0.03083225 -0.00033118 0.01426549
v -0.03130544 -0.00316561 0.01497445
v -0.03106208 -0.00192241 0.01440650
v -0.03272277 0.00763272 0.03755141
v -0.03437669 0.00376315 0.03755141
v -0.03125812 -0.00152171 0.01514679
v -0.03370295 0.00551620 0.03755141
v -0.03302921 0.00700213 0.03755141
v -0.03295035 0.00663611 0.03619225
v -0.03291655 0.00723459 0.03755141
f 1 2 3
f 1 3 13
f 1 13 22
f 1 22 33
f 1 33 45
f 1 45 64
f 1 64 95
f 1 95 72
f 1 72 50
f 1 50 37
f 1 37 25
f 1 25 16
f 1 16 11
f 1 11 10
f 1 10 9
f 1 9 8
f 1 8 7
f 1 7 6
f 1 6 4
f 1 4 2
f 2 5 14
f 2 14 23
f 2 23 34
f 2 34 47
f 2 47 68
f 2 68 99
f 2 99 84
f 2 84 61
f 2 61 60
f 2 60 43
f 2 43 41
f 2 41 29
f 2 29 28
f 2 28 27
f 2 27 19
f 2 19 13
f 2 13 3
f 2 4 6
f 2 6 7
f 2 7 8
f 2 8 9
f 2 9 10
f 2 10 11
f 2 11 12
f 2 12 18
f 2 18 17
f 2 17 26
f 2 26 40
f 2 40 57
f 2 57 78
f 2 78 116
f 2 116 149
f 2 149 161
f 2 161 134
f 2 134 103
f 2 103 70
f 2 70 49
f 2 49 36
f 2 36 24
f 2 24 15
f 2 15 5
f 5 15 14
f 11 16 17
f 11 17 18
f 11 18 12
f 13 19 20
f 13 20 21
f 13 21 22
f 14 15 23
f 15 24 23
f 16 25 17
f 17 25 37
f 17 37 51
f 17 51 71
f 17 71 105
f 17 105 136
f 17 136 163
f 17 163 169
f 17 169 167
f 17 167 166
f 17 166 152
f 17 152 164
f 17 164 138
f 17 138 137
f 17 137 106
f 17 106 73
f 17 73 52
f 17 52 38
f 17 38 26
f 19 27 20
f 20 27 28
f 20 28 29
f 20 29 30
f 20 30 21
f 21 30 31
f 21 31 32
f 21 32 33
f 21 33 22
f 23 24 35
f 23 35 34
f 24 36 35
f 26 38 39
f 26 39 40
f 29 41 30
f 30 42 31
f 30 41 43
f 30 43 42
f 31 42 44
f 31 44 32
f 32 44 45
f 32 45 33
f 34 35 46
f 34 46 47
f 35 36 48
f 35 48 46
f 36 49 48
f 37 50 51
f 38 52 39
f 39 52 53
f 39 53 54
f 39 54 55
f 39 55 40
f 40 55 56
f 40 56 57
f 42 58 59
f 42 59 44
f 42 43 60
f 42 60 61
f 42 61 58
f 44 59 62
f 44 62 45
f 45 62 63
f 45 63 64
f 46 48 65
f 46 65 66
f 46 66 67
f 46 67 47
f 47 67 69
f 47 69 68
f 48 49 65
f 49 70 65
f 50 71 51
f 50 72 71
f 52 73 53
f 53 73 74
f 53 74 54
f 54 74 75
f 54 75 76
f 54 76 77
f 54 77 55
f 55 77 78
f 55 78 56
f 56 78 57
f 58 79 80
f 58 80 81
f 58 81 82
f 58 82 83
f 58 83 59
f 58 61 84
f 58 84 79
f 59 83 85
f 59 85 86
f 59 86 62
f 62 86 63
f 63 87 88
f 63 88 89
f 63 89 90
f 63 90 91
f 63 91 92
f 63 92 64
f 63 86 87
f 64 92 93
f 64 93 94
f 64 94 95
f 65 96 97
f 65 97 66
f 65 70 96
f 66 97 67
f 67 97 98
f 67 98 69
f 68 69 99
f 69 98 100
f 69 100 101
f 69 101 102
f 69 102 80
f 69 80 99
f 70 103 96
f 71 72 104
f 71 104 105
f 72 95 94
f 72 94 93
f 72 93 104
f 73 106 107
f 73 107 74
f 74 108 109
f 74 109 110
f 74 110 75
f 74 107 106
f 74 106 111
f 74 111 108
f 75 110 112
f 75 112 113
f 75 113 76
f 76 113 114
f 76 114 77
f 77 114 115
f 77 115 78
f 78 115 116
f 79 84 80
f 80 102 101
f 80 101 81
f 80 84 99
f 81 101 82
f 82 117 118
f 82 118 119
f 82 119 120
f 82 120 85
f 82 85 83
f 82 101 121
f 82 121 117
f 85 120 86
f 86 120 87
f 87 122 88
f 87 120 122
f 88 122 89
f 89 122 123
f 89 123 90
f 90 124 125
f 90 125 91
f 90 123 122
f 90 122 126
f 90 126 127
f 90 127 124
f 91 125 93
f 91 93 92
f 93 125 104
f 96 103 128
f 96 128 129
f 96 129 97
f 97 129 98
f 98 129 130
f 98 130 100
f 100 131 132
f 100 132 133
f 100 133 117
f 100 117 121
f 100 121 101
f 100 130 131
f 103 134 135
f 103 135 128
f 104 125 105
f 105 125 136
f 106 137 111
f 108 122 109
f 108 111 137
f 108 137 138
f 108 138 139
f 108 139 140
f 108 140 122
f 109 122 141
f 109 141 110
f 110 142 119
f 110 119 143
f 110 143 112
f 110 141 142
f 112 143 113
f 113 143 144
f 113 144 133
f 113 133 145
f 113 145 146
f 113 146 114
f 114 146 115
f 115 146 147
f 115 147 116
f 116 147 148
f 116 148 149
f 117 133 118
f 118 133 144
f 118 144 119
f 119 144 143
f 119 142 120
f 120 142 141
f 120 141 122
f 122 140 150
f 122 150 151
f 122 151 152
f 122 152 153
f 122 153 126
f 124 127 154
f 124 154 125
f 125 154 155
f 125 155 136
f 126 153 156
f 126 156 127
f 127 156 153
f 127 153 157
f 127 157 155
f 127 155 154
f 128 135 158
f 128 158 129
f 129 158 131
f 129 131 130
f 131 158 159
f 131 159 132
f 132 159 160
f 132 160 133
f 133 160 145
f 134 161 148
f 134 148 135
f 135 159 158
f 135 148 162
f 135 162 159
f 136 155 163
f 138 164 150
f 138 150 140
f 138 140 139
f 145 160 165
f 145 165 146
f 146 165 147
f 147 165 148
f 148 165 162
f 148 161 149
f 150 164 152
f 150 152 151
f 152 166 153
f 153 166 167
f 153 167 168
f 153 168 157
f 155 167 169
f 155 169 163
f 155 157 168
f 155 168 167
f 159 162 160
f 160 162 165

