# https://github.com/mikedh/trimesh
v -0.02409977 -0.02669900 0.04500772
v -0.02409977 -0.02259701 0.04500772
v -0.02468400 -0.02641330 0.04500772
v -0.02472155 -0.02639352 0.04496633
v -0.02409977 -0.02669680 0.04496633
v -0.03064626 -0.01547319 0.04500772
v -0.02409977 -0.01547319 0.02047561
v -0.02472155 -0.02639462 0.04500772
v -0.02554782 -0.02597046 0.04500772
v -0.02554678 -0.02596936 0.04496633
v -0.02549044 -0.02593750 0.04403662
v -0.02483214 -0.02622429 0.04353038
v -0.02409977 -0.02658472 0.04356859
v -0.03475673 -0.01547319 0.04500772
v -0.02409977 -0.01547319 0.01248078
v -0.02627915 -0.02555620 0.04500772
v -0.02627810 -0.02555510 0.04496633
v -0.02606006 -0.02556389 0.04353038
v -0.02539342 -0.02588695 0.04306234
v -0.02454315 -0.02620122 0.04204031
v -0.02409977 -0.02641769 0.04204031
v -0.03446983 -0.01616656 0.04500772
v -0.03475673 -0.01547319 0.04496633
v -0.02409977 -0.01567538 0.01272913
v -0.02431364 -0.01547319 0.01271957
v -0.02746117 -0.02484524 0.04500772
v -0.02749455 -0.02482436 0.04496633
v -0.02740483 -0.02476722 0.04350172
v -0.02618317 -0.02531885 0.04204031
v -0.02527448 -0.02582541 0.04204031
v -0.02507835 -0.02572761 0.04057889
v -0.02434702 -0.02609793 0.04057889
v -0.02409977 -0.02626495 0.04091001
v -0.03445522 -0.01620062 0.04500772
v -0.03445522 -0.01620062 0.04496633
v -0.03473378 -0.01547319 0.04432318
v -0.02409977 -0.01726430 0.01485280
v -0.02555929 -0.01547319 0.01433382
v -0.02749455 -0.02482436 0.04500772
v -0.02822484 -0.02435296 0.04496633
v -0.02751542 -0.02481118 0.04500772
v -0.02822588 -0.02435406 0.04500772
v -0.02813616 -0.02429252 0.04350172
v -0.02725669 -0.02467932 0.04204031
v -0.02709394 -0.02457383 0.04057889
v -0.02618317 -0.02511556 0.04057889
v -0.02627080 -0.02481118 0.03914294
v -0.02467565 -0.02566169 0.03898374
v -0.02415715 -0.02600123 0.03938491
v -0.02409977 -0.02621770 0.04057889
v -0.03444584 -0.01622150 0.04500772
v -0.03442706 -0.01613909 0.04350172
v -0.03412347 -0.01693245 0.04496633
v -0.03470039 -0.01547319 0.04350172
v -0.02409977 -0.01791262 0.01572838
v -0.02543828 -0.01713244 0.01647978
v -0.02655249 -0.01547319 0.01572838
v -0.02925141 -0.02351015 0.04484852
v -0.02905841 -0.02356069 0.04350172
v -0.02923785 -0.02352553 0.04500772
v -0.02894261 -0.02345960 0.04204031
v -0.02798802 -0.02419033 0.04204031
v -0.02782527 -0.02406396 0.04057889
v -0.02697605 -0.02449691 0.03964600
v -0.02681643 -0.02439362 0.03867172
v -0.02589314 -0.02471338 0.03765605
v -0.02409977 -0.02582431 0.03828646
v -0.02409977 -0.02587047 0.03850934
v -0.02472155 -0.02536060 0.03765605
v -0.02409977 -0.02602321 0.03935308
v -0.02409977 -0.02604079 0.03946133
v -0.03412347 -0.01693245 0.04500772
v -0.03409530 -0.01686982 0.04350172
v -0.03457729 -0.01547319 0.04204031
v -0.03436238 -0.01599514 0.04204031
v -0.03363939 -0.01787746 0.04496633
v -0.03365295 -0.01785109 0.04500772
v -0.02409977 -0.01828953 0.01626964
v -0.02688737 -0.01565669 0.01649889
v -0.02697292 -0.01547319 0.01635561
v -0.02667872 -0.01547319 0.01591305
v -0.02409977 -0.01849721 0.01657212
v -0.02485822 -0.01801372 0.01697648
v -0.02574187 -0.01744342 0.01745407
v -0.02983460 -0.02299039 0.04428178
v -0.02948615 -0.02331895 0.04500772
v -0.02978765 -0.02294644 0.04350172
v -0.02967289 -0.02283216 0.04204031
v -0.02878090 -0.02333323 0.04057889
v -0.02859103 -0.02317829 0.03911747
v -0.02753628 -0.02398155 0.03914294
v -0.02774389 -0.02347279 0.03764649
v -0.02739544 -0.02335301 0.03619144
v -0.02662447 -0.02427274 0.03765605
v -0.02565110 -0.02457163 0.03646526
v -0.02409977 -0.02568696 0.03765605
v -0.02485926 -0.02490898 0.03606408
v -0.02409977 -0.02532984 0.03613731
v -0.03402853 -0.01672587 0.04204031
v -0.03357784 -0.01787746 0.04350172
v -0.03449174 -0.01547319 0.04132392
v -0.03428935 -0.01582482 0.04084315
v -0.03300821 -0.01902356 0.04496633
v -0.03302595 -0.01899169 0.04500772
v -0.03363939 -0.01787746 0.04500772
v -0.02671628 -0.01694124 0.01826596
v -0.02717114 -0.01596657 0.01747635
v -0.02747682 -0.01547319 0.01723756
v -0.02409977 -0.01895433 0.01739994
v -0.02427816 -0.01885104 0.01747317
v -0.02525258 -0.01841809 0.01825641
v -0.03047308 -0.02221461 0.04350172
v -0.03019974 -0.02264096 0.04500772
v -0.03041153 -0.02240690 0.04484852
v -0.03126909 -0.02149376 0.04496633
v -0.03036458 -0.02210142 0.04204031
v -0.03021331 -0.02193989 0.04057889
v -0.02951119 -0.02267173 0.04057889
v -0.02845436 -0.02306182 0.03812408
v -0.02829787 -0.02292666 0.03714980
v -0.02711898 -0.02314753 0.03473002
v -0.02615709 -0.02415407 0.03606408
v -0.02543828 -0.02444746 0.03549098
v -0.02452333 -0.02475074 0.03473002
v -0.02409977 -0.02512655 0.03533178
v -0.03398054 -0.01635336 0.04044516
v -0.03343491 -0.01787746 0.04204031
v -0.03297483 -0.01895763 0.04350172
v -0.03440724 -0.01547319 0.04065211
v -0.03422049 -0.01567757 0.03986569
v -0.03255857 -0.01975429 0.04496633
v -0.03299570 -0.01904444 0.04500772
v -0.03300821 -0.01902356 0.04500772
v -0.02612683 -0.01782362 0.01874674
v -0.02699170 -0.01722914 0.01924024
v -0.02756967 -0.01632479 0.01880405
v -0.02810800 -0.01547319 0.01839332
v -0.02409977 -0.01917960 0.01785205
v -0.02409977 -0.01958067 0.01867032
v -0.02474763 -0.01907850 0.01870534
v -0.02553739 -0.01868401 0.01923069
v -0.03120336 -0.02141574 0.04350172
v -0.03127014 -0.02149486 0.04500772
v -0.03182828 -0.02076413 0.04496633
v -0.03177508 -0.02068611 0.04350172
v -0.03109591 -0.02128938 0.04204031
v -0.03094464 -0.02111466 0.04057889
v -0.03003178 -0.02174210 0.03911747
v -0.02932236 -0.02247283 0.03911747
v -0.02911162 -0.02226296 0.03764968
v -0.02889462 -0.02204758 0.03619144
v -0.02866510 -0.02181573 0.03473002
v -0.02848879 -0.02164321 0.03367933
v -0.02812677 -0.02277832 0.03619144
v -0.02695519 -0.02302336 0.03390220
v -0.02618317 -0.02375848 0.03473002
v -0.02553634 -0.02304863 0.03089340
v -0.02457550 -0.02393760 0.03195046
v -0.02409977 -0.02435955 0.03242486
v -0.02409977 -0.02441669 0.03262227
v -0.02409977 -0.02451889 0.03298523
v -0.02416862 -0.02455735 0.03326860
v -0.02409977 -0.02498150 0.03475868
v -0.02409977 -0.02462108 0.03337049
v -0.03371972 -0.01641490 0.03911747
v -0.03306351 -0.01768406 0.03911747
v -0.03313758 -0.01799174 0.04053750
v -0.03281625 -0.01869061 0.04099917
v -0.03289867 -0.01882247 0.04204031
v -0.03250536 -0.01968946 0.04350172
v -0.03433004 -0.01547319 0.04006946
v -0.03427057 -0.01547319 0.03970012
v -0.03415164 -0.01547319 0.03907926
v -0.03414746 -0.01550066 0.03911747
v -0.03341613 -0.01641490 0.03765605
v -0.03182828 -0.02076523 0.04500772
v -0.03255857 -0.01975429 0.04500772
v -0.02649823 -0.01819063 0.02011264
v -0.02676218 -0.01845546 0.02116015
v -0.02720035 -0.01745990 0.02011264
v -0.02839594 -0.01570834 0.01933895
v -0.02848774 -0.01547319 0.01916702
v -0.02409977 -0.01987407 0.01930392
v -0.02409977 -0.01998285 0.01953953
v -0.02472155 -0.01969605 0.01999802
v -0.02520980 -0.01988066 0.02130024
v -0.02576690 -0.01888840 0.02011264
v -0.03167596 -0.02055974 0.04204031
v -0.03154243 -0.02038503 0.04057889
v -0.03138594 -0.02018064 0.03911747
v -0.03130039 -0.02007186 0.03838198
v -0.03076206 -0.02091138 0.03911747
v -0.02990137 -0.02160035 0.03814637
v -0.02976783 -0.02145640 0.03717209
v -0.02962490 -0.02130037 0.03619144
v -0.02939643 -0.02105642 0.03473002
v -0.02785031 -0.02254756 0.03473002
v -0.02912205 -0.02081248 0.03323358
v -0.02885497 -0.02057293 0.03180718
v -0.02831143 -0.02146959 0.03270505
v -0.02763331 -0.02225307 0.03330363
v -0.02695101 -0.02156189 0.02952431
v -0.02672984 -0.02286403 0.03292792
v -0.02608719 -0.02248492 0.03038078
v -0.02529952 -0.02289479 0.02991912
v -0.02430738 -0.02318818 0.02888116
v -0.02477580 -0.02335740 0.03038078
v -0.02409977 -0.02330576 0.02888116
v -0.03291432 -0.01742364 0.03765605
v -0.03272966 -0.01855545 0.04002488
v -0.03264620 -0.01841480 0.03911747
v -0.03240625 -0.01955320 0.04204031
v -0.03235200 -0.01924223 0.04053750
v -0.03413599 -0.01547319 0.03900603
v -0.03384387 -0.01547319 0.03765605
v -0.03305412 -0.01647094 0.03622010
v -0.03281000 -0.01723354 0.03672634
v -0.02699066 -0.01868511 0.02213443
v -0.02759158 -0.01781153 0.02171097
v -0.02819354 -0.01692696 0.02128750
v -0.02793168 -0.01663467 0.02011264
v -0.02839281 -0.01716651 0.02226497
v -0.02853991 -0.01590393 0.02011264
v -0.02883932 -0.01547319 0.02016677
v -0.02863276 -0.01547319 0.01957774
v -0.02409977 -0.02032569 0.02036735
v -0.02423435 -0.02024987 0.02040874
v -0.02546749 -0.02008175 0.02227452
v -0.02611431 -0.01928288 0.02171733
v -0.03200147 -0.01933893 0.03911747
v -0.03166762 -0.01939387 0.03779932
v -0.03117624 -0.01991692 0.03740770
v -0.03053880 -0.02076413 0.03777703
v -0.03027799 -0.02057073 0.03619144
v -0.03006099 -0.02032569 0.03473002
v -0.02991284 -0.02015537 0.03376211
v -0.02975427 -0.01997516 0.03278783
v -0.02859624 -0.02030042 0.03034576
v -0.02843558 -0.02013229 0.02944790
v -0.02760201 -0.02075864 0.02899896
v -0.02740170 -0.02194649 0.03180718
v -0.02731303 -0.02044217 0.02742292
v -0.02708351 -0.02022569 0.02627034
v -0.02688633 -0.02004548 0.02529606
v -0.02673088 -0.02138498 0.02855321
v -0.02530161 -0.02142344 0.02554123
v -0.02553217 -0.02159046 0.02651550
v -0.02621968 -0.02191682 0.02897668
v -0.02409977 -0.02276842 0.02715866
v -0.02409977 -0.02302775 0.02795464
v -0.02409977 -0.02304094 0.02799603
v -0.02431572 -0.02175529 0.02450008
v -0.02409977 -0.02306182 0.02806289
v -0.03248971 -0.01815437 0.03765605
v -0.03375937 -0.01547319 0.03729626
v -0.03352255 -0.01547319 0.03629014
v -0.03291119 -0.01599843 0.03473002
v -0.03268689 -0.01699619 0.03575206
v -0.03234679 -0.01778406 0.03622010
v -0.02638035 -0.01960265 0.02303866
v -0.02671315 -0.01989165 0.02450008
v -0.02717219 -0.01887082 0.02303866
v -0.02818624 -0.01838952 0.02450008
v -0.02790352 -0.01806976 0.02303866
v -0.02871622 -0.01643028 0.02169505
v -0.02834169 -0.01856754 0.02532153
v -0.02852739 -0.01733903 0.02303866
v -0.02983356 -0.01860380 0.02962301
v -0.02909493 -0.01547319 0.02094046
v -0.02409977 -0.02043008 0.02062843
v -0.02409977 -0.02109708 0.02232228
v -0.02472155 -0.02040810 0.02170460
v -0.02564902 -0.02022899 0.02303866
v -0.02463287 -0.02100478 0.02307369
v -0.02504705 -0.02123444 0.02450008
v -0.03156851 -0.01897411 0.03619144
v -0.03100828 -0.01970484 0.03619144
v -0.03087891 -0.01928508 0.03463769
v -0.03034997 -0.01942793 0.03327179
v -0.03019348 -0.01904883 0.03180718
v -0.02999631 -0.01880379 0.03059729
v -0.02958526 -0.01978066 0.03180718
v -0.02871726 -0.01899938 0.02742292
v -0.02851800 -0.01877082 0.02629581
v -0.02825197 -0.01994110 0.02847680
v -0.02598286 -0.02050370 0.02450008
v -0.02409977 -0.02159376 0.02359585
v -0.02409977 -0.02202780 0.02490762
v -0.02409977 -0.02160804 0.02363724
v -0.03141097 -0.01876203 0.03506115
v -0.03331807 -0.01547319 0.03543685
v -0.03314801 -0.01547319 0.03473002
v -0.03301030 -0.01547319 0.03417284
v -0.03280061 -0.01576548 0.03385763
v -0.03255231 -0.01672917 0.03473002
v -0.03161545 -0.01765439 0.03326860
v -0.03178446 -0.01800163 0.03463769
v -0.03127431 -0.01857193 0.03408687
v -0.02929210 -0.01627864 0.02316284
v -0.02931401 -0.01547319 0.02160590
v -0.02996709 -0.01734122 0.02742292
v -0.03115224 -0.01838513 0.03326860
v -0.03099263 -0.01786757 0.03168301
v -0.03288198 -0.01547319 0.03366341
v -0.03267020 -0.01547319 0.03288972
v -0.03237182 -0.01631820 0.03332910
v -0.03143810 -0.01737309 0.03208737
v -0.03128787 -0.01712475 0.03111309
v -0.02968646 -0.01547319 0.02277440
v -0.03266289 -0.01547319 0.03286424
v -0.03140367 -0.01587646 0.02928552
v -0.03156329 -0.01617755 0.03034576
v -0.03176568 -0.01654786 0.03168301
f 1 2 6
f 1 6 14
f 1 14 22
f 1 22 34
f 1 34 51
f 1 51 72
f 1 72 77
f 1 77 105
f 1 105 104
f 1 104 133
f 1 133 132
f 1 132 177
f 1 177 176
f 1 176 143
f 1 143 113
f 1 113 86
f 1 86 60
f 1 60 42
f 1 42 41
f 1 41 39
f 1 39 26
f 1 26 16
f 1 16 9
f 1 9 8
f 1 8 3
f 1 3 4
f 1 4 5
f 1 5 13
f 1 13 21
f 1 21 33
f 1 33 50
f 1 50 71
f 1 71 70
f 1 70 68
f 1 68 67
f 1 67 96
f 1 96 98
f 1 98 125
f 1 125 163
f 1 163 164
f 1 164 161
f 1 161 160
f 1 160 159
f 1 159 208
f 1 208 253
f 1 253 251
f 1 251 250
f 1 250 249
f 1 249 288
f 1 288 289
f 1 289 287
f 1 287 271
f 1 271 270
f 1 270 226
f 1 226 184
f 1 184 183
f 1 183 139
f 1 139 138
f 1 138 109
f 1 109 82
f 1 82 78
f 1 78 55
f 1 55 37
f 1 37 24
f 1 24 15
f 1 15 7
f 1 7 2
f 2 7 6
f 3 8 4
f 4 8 9
f 4 9 10
f 4 10 11
f 4 11 12
f 4 12 13
f 4 13 5
f 6 7 15
f 6 15 25
f 6 25 38
f 6 38 57
f 6 57 81
f 6 81 80
f 6 80 108
f 6 108 137
f 6 137 182
f 6 182 225
f 6 225 224
f 6 224 269
f 6 269 300
f 6 300 309
f 6 309 310
f 6 310 305
f 6 305 304
f 6 304 293
f 6 293 292
f 6 292 291
f 6 291 256
f 6 256 255
f 6 255 215
f 6 215 214
f 6 214 173
f 6 173 172
f 6 172 171
f 6 171 129
f 6 129 101
f 6 101 74
f 6 74 54
f 6 54 36
f 6 36 23
f 6 23 14
f 9 16 17
f 9 17 10
f 10 17 11
f 11 18 19
f 11 19 12
f 11 17 18
f 12 19 20
f 12 20 21
f 12 21 13
f 14 23 22
f 15 24 25
f 16 26 27
f 16 27 17
f 17 27 28
f 17 28 18
f 18 28 29
f 18 29 19
f 19 29 30
f 19 30 20
f 20 30 31
f 20 31 32
f 20 32 33
f 20 33 21
f 22 23 35
f 22 35 34
f 23 36 35
f 24 37 25
f 25 37 38
f 26 39 27
f 27 40 28
f 27 39 41
f 27 41 42
f 27 42 40
f 28 43 44
f 28 44 29
f 28 40 43
f 29 44 45
f 29 45 46
f 29 46 30
f 30 46 31
f 31 46 47
f 31 47 48
f 31 48 49
f 31 49 32
f 32 50 33
f 32 49 50
f 34 35 51
f 35 36 52
f 35 52 53
f 35 53 51
f 36 54 52
f 37 55 38
f 38 55 56
f 38 56 57
f 40 42 58
f 40 58 59
f 40 59 43
f 42 60 58
f 43 59 61
f 43 61 62
f 43 62 44
f 44 62 45
f 45 62 63
f 45 63 64
f 45 64 46
f 46 64 47
f 47 64 65
f 47 65 66
f 47 66 48
f 48 67 68
f 48 68 49
f 48 66 69
f 48 69 67
f 49 70 71
f 49 71 50
f 49 68 70
f 51 53 72
f 52 73 53
f 52 54 74
f 52 74 75
f 52 75 73
f 53 73 76
f 53 76 77
f 53 77 72
f 55 78 56
f 56 79 80
f 56 80 81
f 56 81 57
f 56 78 82
f 56 82 83
f 56 83 84
f 56 84 79
f 58 85 59
f 58 60 86
f 58 86 85
f 59 85 87
f 59 87 61
f 61 87 88
f 61 88 89
f 61 89 62
f 62 89 63
f 63 89 90
f 63 90 91
f 63 91 64
f 64 91 65
f 65 91 92
f 65 92 93
f 65 93 94
f 65 94 66
f 66 94 95
f 66 95 69
f 67 69 96
f 69 95 97
f 69 97 98
f 69 98 96
f 73 75 99
f 73 99 100
f 73 100 76
f 74 101 75
f 75 101 102
f 75 102 99
f 76 100 103
f 76 103 104
f 76 104 105
f 76 105 77
f 79 84 106
f 79 106 107
f 79 107 80
f 80 107 108
f 82 109 110
f 82 110 111
f 82 111 83
f 83 111 84
f 84 111 106
f 85 112 87
f 85 86 113
f 85 113 114
f 85 114 115
f 85 115 112
f 87 112 116
f 87 116 88
f 88 116 117
f 88 117 118
f 88 118 89
f 89 118 90
f 90 119 91
f 90 118 119
f 91 119 92
f 92 120 93
f 92 119 120
f 93 120 121
f 93 121 94
f 94 121 122
f 94 122 95
f 95 122 123
f 95 123 97
f 97 123 124
f 97 124 98
f 98 124 125
f 99 102 126
f 99 126 127
f 99 127 100
f 100 127 128
f 100 128 103
f 101 129 102
f 102 129 130
f 102 130 126
f 103 128 131
f 103 131 132
f 103 132 133
f 103 133 104
f 106 111 134
f 106 134 135
f 106 135 107
f 107 135 136
f 107 136 137
f 107 137 108
f 109 138 110
f 110 138 139
f 110 139 140
f 110 140 141
f 110 141 111
f 111 141 134
f 112 115 142
f 112 142 116
f 113 143 114
f 114 143 115
f 115 143 144
f 115 144 145
f 115 145 142
f 116 142 146
f 116 146 117
f 117 146 147
f 117 147 148
f 117 148 118
f 118 148 149
f 118 149 119
f 119 149 150
f 119 150 151
f 119 151 120
f 120 151 152
f 120 152 153
f 120 153 154
f 120 154 121
f 121 155 122
f 121 154 155
f 122 155 156
f 122 156 123
f 123 156 157
f 123 157 158
f 123 158 159
f 123 159 160
f 123 160 161
f 123 161 162
f 123 162 124
f 124 163 125
f 124 162 164
f 124 164 163
f 126 130 165
f 126 165 166
f 126 166 167
f 126 167 127
f 127 168 169
f 127 169 128
f 127 167 168
f 128 169 170
f 128 170 131
f 129 171 130
f 130 171 172
f 130 172 173
f 130 173 174
f 130 174 175
f 130 175 165
f 131 170 144
f 131 144 176
f 131 176 177
f 131 177 132
f 134 141 135
f 135 141 178
f 135 178 179
f 135 179 180
f 135 180 181
f 135 181 136
f 136 181 137
f 137 181 182
f 139 183 140
f 140 183 184
f 140 184 185
f 140 185 141
f 141 185 186
f 141 186 187
f 141 187 179
f 141 179 178
f 142 145 188
f 142 188 146
f 143 176 144
f 144 170 145
f 145 170 188
f 146 188 189
f 146 189 147
f 147 189 190
f 147 190 191
f 147 191 192
f 147 192 148
f 148 192 193
f 148 193 149
f 149 193 194
f 149 194 150
f 150 194 151
f 151 194 195
f 151 195 152
f 152 196 153
f 152 195 196
f 153 197 154
f 153 196 198
f 153 198 199
f 153 199 200
f 153 200 197
f 154 197 155
f 155 197 201
f 155 201 202
f 155 202 203
f 155 203 157
f 155 157 156
f 157 203 204
f 157 204 205
f 157 205 206
f 157 206 207
f 157 207 158
f 158 207 159
f 159 207 206
f 159 206 208
f 161 164 162
f 165 175 209
f 165 209 166
f 166 210 167
f 166 209 211
f 166 211 210
f 167 210 168
f 168 212 169
f 168 210 213
f 168 213 212
f 169 212 170
f 170 212 188
f 173 214 174
f 174 214 175
f 175 214 215
f 175 215 216
f 175 216 217
f 175 217 209
f 179 218 180
f 179 187 218
f 180 218 219
f 180 219 220
f 180 220 221
f 180 221 181
f 181 221 220
f 181 220 222
f 181 222 223
f 181 223 224
f 181 224 225
f 181 225 182
f 184 226 227
f 184 227 186
f 184 186 185
f 186 227 228
f 186 228 187
f 187 228 229
f 187 229 218
f 188 212 189
f 189 213 230
f 189 230 190
f 189 212 213
f 190 230 231
f 190 231 191
f 191 231 232
f 191 232 233
f 191 233 192
f 192 233 193
f 193 233 194
f 194 234 195
f 194 233 234
f 195 234 235
f 195 235 196
f 196 235 236
f 196 236 237
f 196 237 198
f 197 200 201
f 198 237 199
f 199 238 200
f 199 237 238
f 200 238 239
f 200 239 240
f 200 240 202
f 200 202 241
f 200 241 201
f 201 241 202
f 202 240 242
f 202 242 243
f 202 243 244
f 202 244 245
f 202 245 246
f 202 246 247
f 202 247 248
f 202 248 204
f 202 204 203
f 204 248 247
f 204 247 205
f 205 249 250
f 205 250 251
f 205 251 206
f 205 247 246
f 205 246 252
f 205 252 249
f 206 251 253
f 206 253 208
f 209 217 254
f 209 254 211
f 210 211 230
f 210 230 213
f 211 254 231
f 211 231 230
f 215 255 216
f 216 255 256
f 216 256 257
f 216 257 258
f 216 258 217
f 217 258 259
f 217 259 254
f 218 222 219
f 218 229 260
f 218 260 261
f 218 261 244
f 218 244 262
f 218 262 263
f 218 263 264
f 218 264 222
f 219 222 220
f 222 265 223
f 222 264 263
f 222 263 266
f 222 266 267
f 222 267 268
f 222 268 265
f 223 265 269
f 223 269 224
f 226 270 227
f 227 270 271
f 227 271 272
f 227 272 228
f 228 273 260
f 228 260 229
f 228 272 274
f 228 274 275
f 228 275 273
f 231 254 276
f 231 276 232
f 232 276 277
f 232 277 234
f 232 234 233
f 234 277 235
f 235 277 236
f 236 277 278
f 236 278 279
f 236 279 237
f 237 279 280
f 237 280 281
f 237 281 282
f 237 282 239
f 237 239 238
f 239 283 284
f 239 284 285
f 239 285 242
f 239 242 240
f 239 282 283
f 242 285 243
f 243 285 244
f 244 261 286
f 244 286 245
f 244 285 262
f 245 286 246
f 246 286 273
f 246 273 275
f 246 275 287
f 246 287 252
f 249 252 288
f 252 287 289
f 252 289 288
f 254 259 290
f 254 290 276
f 256 291 257
f 257 291 292
f 257 292 293
f 257 293 294
f 257 294 258
f 258 294 295
f 258 295 296
f 258 296 297
f 258 297 259
f 259 297 298
f 259 298 290
f 260 273 261
f 261 273 286
f 262 266 263
f 262 285 266
f 265 299 300
f 265 300 269
f 265 268 301
f 265 301 299
f 266 285 284
f 266 284 268
f 266 268 267
f 268 284 283
f 268 283 282
f 268 282 281
f 268 281 302
f 268 302 303
f 268 303 301
f 271 287 272
f 272 287 274
f 274 287 275
f 276 290 277
f 277 290 298
f 277 298 278
f 278 298 279
f 279 298 280
f 280 298 281
f 281 298 302
f 293 304 294
f 294 304 305
f 294 305 306
f 294 306 295
f 295 306 307
f 295 307 296
f 296 307 302
f 296 302 298
f 296 298 297
f 299 301 303
f 299 303 300
f 300 303 308
f 300 308 309
f 302 307 303
f 303 307 308
f 305 310 306
f 306 310 311
f 306 311 312
f 306 312 313
f 306 313 308
f 306 308 307
f 308 313 309
f 309 313 312
f 309 312 311
f 309 311 310

