# https://github.com/mikedh/trimesh
v 0.02227666 0.00275516 -0.06836165
v 0.02146810 0.01834673 -0.06836165
v 0.02641159 0.00275516 -0.06836165
v 0.02041219 0.00275516 -0.05299326
v 0.01794727 0.01834673 -0.04764262
v 0.02650371 0.01834673 -0.06836165
v 0.02644571 0.00334122 -0.06836165
v 0.02638771 0.00275516 -0.06777547
v 0.02039684 0.00275516 -0.05283100
v 0.02028766 0.00275516 -0.05153086
v 0.02027828 0.00275516 -0.05136859
v 0.02008552 0.00275516 -0.04764262
v 0.02181353 0.01834673 -0.04764262
v 0.02651138 0.01834673 -0.06795802
v 0.02656085 0.01721277 -0.06836165
v 0.02648665 0.00405547 -0.06836165
v 0.02638089 0.00275516 -0.06761321
v 0.02359527 0.00275516 -0.04764262
v 0.02421107 0.01074935 -0.04764262
v 0.02534204 0.01834673 -0.06143503
v 0.02651735 0.01834673 -0.06761321
v 0.02660776 0.01575068 -0.06836165
v 0.02656085 0.01721277 -0.06761321
v 0.02652247 0.00480331 -0.06836165
v 0.02645509 0.00405547 -0.06761321
v 0.02624271 0.00275516 -0.06631308
v 0.02430233 0.00876377 -0.04764262
v 0.02622480 0.00275516 -0.06615081
v 0.02426992 0.01041206 -0.04764262
v 0.02608748 0.01834673 -0.06468841
v 0.02602096 0.01834673 -0.06435779
v 0.02582564 0.01834673 -0.06343898
v 0.02578299 0.01834673 -0.06324426
v 0.02566529 0.01834673 -0.06273516
v 0.02563118 0.01834673 -0.06259521
v 0.02647897 0.01834673 -0.06728463
v 0.02639112 0.01721277 -0.06615081
v 0.02663591 0.01428859 -0.06836165
v 0.02659838 0.01575068 -0.06761321
v 0.02642950 0.01575068 -0.06615081
v 0.02655488 0.00551756 -0.06836165
v 0.02652332 0.00551756 -0.06761321
v 0.02629815 0.00405547 -0.06615081
v 0.02430660 0.00979700 -0.04764262
v 0.02636042 0.00551756 -0.06615081
v 0.02640818 0.00697966 -0.06615081
v 0.02644144 0.00844175 -0.06615081
v 0.02646703 0.00990384 -0.06615081
v 0.02647386 0.01136440 -0.06615081
v 0.02634592 0.01834673 -0.06615081
v 0.02629133 0.01834673 -0.06582223
v 0.02661885 0.01428859 -0.06761321
v 0.02665382 0.01282649 -0.06836165
v 0.02645339 0.01428859 -0.06615081
v 0.02658217 0.00626540 -0.06836165
v 0.02657279 0.00697966 -0.06761321
v 0.02646788 0.01282649 -0.06615081
v 0.02659923 0.00844175 -0.06761321
v 0.02662056 0.00990384 -0.06761321
v 0.02663420 0.01136440 -0.06761321
v 0.02663250 0.01282649 -0.06761321
v 0.02665894 0.01136440 -0.06836165
v 0.02660606 0.00697966 -0.06836165
v 0.02663335 0.00844175 -0.06836165
v 0.02664956 0.00990384 -0.06836165
f 1 2 6
f 1 6 15
f 1 15 22
f 1 22 38
f 1 38 53
f 1 53 62
f 1 62 65
f 1 65 64
f 1 64 63
f 1 63 55
f 1 55 41
f 1 41 24
f 1 24 16
f 1 16 7
f 1 7 3
f 1 3 8
f 1 8 17
f 1 17 26
f 1 26 28
f 1 28 18
f 1 18 12
f 1 12 11
f 1 11 10
f 1 10 9
f 1 9 4
f 1 4 5
f 1 5 2
f 2 5 13
f 2 13 20
f 2 20 35
f 2 35 34
f 2 34 33
f 2 33 32
f 2 32 31
f 2 31 30
f 2 30 51
f 2 51 50
f 2 50 36
f 2 36 21
f 2 21 14
f 2 14 6
f 3 7 8
f 4 9 5
f 5 9 10
f 5 10 11
f 5 11 12
f 5 12 18
f 5 18 27
f 5 27 44
f 5 44 29
f 5 29 19
f 5 19 13
f 6 14 15
f 7 16 8
f 8 16 17
f 13 19 20
f 14 21 15
f 15 21 23
f 15 23 22
f 16 24 25
f 16 25 17
f 17 25 26
f 18 28 27
f 19 29 30
f 19 30 31
f 19 31 32
f 19 32 33
f 19 33 34
f 19 34 35
f 19 35 20
f 21 36 37
f 21 37 23
f 22 23 39
f 22 39 38
f 23 37 40
f 23 40 39
f 24 41 42
f 24 42 25
f 25 42 43
f 25 43 26
f 26 43 28
f 27 28 43
f 27 43 45
f 27 45 46
f 27 46 47
f 27 47 48
f 27 48 49
f 27 49 44
f 29 44 50
f 29 50 51
f 29 51 30
f 36 50 37
f 37 50 44
f 37 44 40
f 38 39 52
f 38 52 53
f 39 40 54
f 39 54 52
f 40 44 54
f 41 55 42
f 42 56 45
f 42 45 43
f 42 55 56
f 44 49 57
f 44 57 54
f 45 56 46
f 46 56 47
f 47 56 58
f 47 58 48
f 48 58 59
f 48 59 60
f 48 60 49
f 49 60 61
f 49 61 57
f 52 61 53
f 52 54 57
f 52 57 61
f 53 61 62
f 55 63 56
f 56 63 64
f 56 64 58
f 58 64 59
f 59 64 65
f 59 65 60
f 60 65 62
f 60 62 61

