# https://github.com/mikedh/trimesh
v -0.03959290 0.01540557 -0.04764059
v -0.03946830 0.01540557 -0.04744530
v -0.03908494 0.01576603 -0.04708887
v -0.03943955 0.01575925 -0.04764059
v -0.03487752 0.01540557 -0.04764059
v -0.03935649 0.01540557 -0.04727088
v -0.03882298 0.01540557 -0.04644234
v -0.03883895 0.01692085 -0.04754010
v -0.03897632 0.01676153 -0.04764059
v -0.00695584 0.02347125 -0.04764059
v -0.00695584 0.02090058 -0.04046433
v -0.00695584 0.01919660 -0.03552721
v -0.01857496 0.01540557 -0.03407110
v -0.03870796 0.01540557 -0.04627170
v -0.03849392 0.01626321 -0.04656557
v -0.03877186 0.01717849 -0.04764059
v -0.03888687 0.01695023 -0.04764059
v -0.00695584 0.02694814 -0.04764059
v -0.00695584 0.01869828 -0.03398578
v -0.00695584 0.01722933 -0.02938046
v -0.00695584 0.01687904 -0.02827131
v -0.01703831 0.01540557 -0.03263774
v -0.03858018 0.01540557 -0.04610296
v -0.03848114 0.01770731 -0.04764059
v -0.03809778 0.01540557 -0.04547539
v -0.03794763 0.01587790 -0.04559673
v -0.03713617 0.01646661 -0.04496158
v -0.03749398 0.01721464 -0.04597213
v -0.03828307 0.01733103 -0.04708887
v -0.00695584 0.02694249 -0.04762353
v -0.00717628 0.02694588 -0.04764059
v -0.01298424 0.01540557 -0.02827131
v -0.01563584 0.01540557 -0.03115699
v -0.00695584 0.02042148 -0.02827131
v -0.03723521 0.01808697 -0.04630204
v -0.03820001 0.01816381 -0.04764059
v -0.03742689 0.01540557 -0.04462220
v -0.03740133 0.01549145 -0.04464306
v -0.03686782 0.01540557 -0.04396430
v -0.03596371 0.01575247 -0.04318126
v -0.03572731 0.01654910 -0.04344290
v -0.03609790 0.01710730 -0.04425059
v -0.03690296 0.01721464 -0.04524218
v -0.00695584 0.02224185 -0.03351937
v -0.00863945 0.02690520 -0.04764059
v -0.01996785 0.01540557 -0.02827131
v -0.00700057 0.02041583 -0.02827131
v -0.00695584 0.02043391 -0.02830354
v -0.02326159 0.02628372 -0.04764059
v -0.02471837 0.02611536 -0.04764059
v -0.03756107 0.01861580 -0.04717418
v -0.03585510 0.01818189 -0.04476061
v -0.03638222 0.01862258 -0.04573134
v -0.03690935 0.01906213 -0.04670777
v -0.03785498 0.01868811 -0.04764059
v -0.03631833 0.01540557 -0.04335000
v -0.03607234 0.01540557 -0.04308077
v -0.03538548 0.01540557 -0.04233944
v -0.03528005 0.01575247 -0.04245131
v -0.03428970 0.01658751 -0.04195835
v -0.03485196 0.01705532 -0.04286463
v -0.03541103 0.01752425 -0.04378607
v -0.00695584 0.02196388 -0.03268893
v -0.01010262 0.02684757 -0.04764059
v -0.03248788 0.01916609 -0.04223896
v -0.03297987 0.01819206 -0.04181995
v -0.03130585 0.01649147 -0.03909543
v -0.03156142 0.01575247 -0.03886033
v -0.03166365 0.01540557 -0.03875226
v -0.01917237 0.01610502 -0.02827131
v -0.01010262 0.02000791 -0.02827131
v -0.00695584 0.02075481 -0.02918328
v -0.02179842 0.02638203 -0.04764059
v -0.02614640 0.02584982 -0.04764059
v -0.02471837 0.02589954 -0.04714384
v -0.01166483 0.01980000 -0.02827131
v -0.01142203 0.01983277 -0.02827131
v -0.03731188 0.01951299 -0.04764059
v -0.03549090 0.01915705 -0.04516065
v -0.03443665 0.01822709 -0.04326278
v -0.03593497 0.01969830 -0.04613519
v -0.03721923 0.01963728 -0.04764059
v -0.03492544 0.01540557 -0.04186545
v -0.03455166 0.01575247 -0.04169860
v -0.03381049 0.01575247 -0.04096866
v -0.03282014 0.01656717 -0.04050604
v -0.03395425 0.01756154 -0.04228825
v -0.00695584 0.02141245 -0.03106219
v -0.02033525 0.02644079 -0.04764059
v -0.03306293 0.01967344 -0.04321349
v -0.03403731 0.01920225 -0.04366473
v -0.01853982 0.01664740 -0.02827131
v -0.01843440 0.01673667 -0.02827131
v -0.03228981 0.01575247 -0.03952771
v -0.03240482 0.01540557 -0.03942534
v -0.03193200 0.01540557 -0.03899305
v -0.00695584 0.02100906 -0.02989806
v -0.02619113 0.02558089 -0.04706421
v -0.02764153 0.02548258 -0.04764059
v -0.02571193 0.02531873 -0.04628497
v -0.01240919 0.01961468 -0.02827131
v -0.02668631 0.02519670 -0.04652576
v -0.03451652 0.01971412 -0.04463926
v -0.03548770 0.02067233 -0.04662245
v -0.03641098 0.02013334 -0.04715143
v -0.03663461 0.02033786 -0.04764059
v -0.03465389 0.01540557 -0.04159433
v -0.03391911 0.01540557 -0.04086248
v -0.03307891 0.01575247 -0.04025767
v -0.03245913 0.02064860 -0.04372540
v -0.03401495 0.02068928 -0.04514549
v -0.01832897 0.01681238 -0.02827131
v -0.03318113 0.01540557 -0.04015528
v -0.02764153 0.02542947 -0.04752494
v -0.02802808 0.02537297 -0.04764059
v -0.01289798 0.01947683 -0.02827131
v -0.02764153 0.02505093 -0.04679309
v -0.03591580 0.02108363 -0.04759698
v -0.03598608 0.02104635 -0.04764059
v -0.03451332 0.02110623 -0.04612002
v -0.03345588 0.01540557 -0.04041503
v -0.03148155 0.02098985 -0.04334621
v -0.03304057 0.02107912 -0.04470183
v -0.01734820 0.01745871 -0.02827131
v -0.02864785 0.02517297 -0.04764059
v -0.01333885 0.01932202 -0.02827131
v -0.02776612 0.02431081 -0.04554933
v -0.02735719 0.02395261 -0.04468666
v -0.03492863 0.02158082 -0.04717039
v -0.03511073 0.02178760 -0.04764059
v -0.03587746 0.02114691 -0.04764059
v -0.03593177 0.02110058 -0.04764059
v -0.03345907 0.02157856 -0.04571428
v -0.03387758 0.02207913 -0.04674569
v -0.03445262 0.02231190 -0.04764059
v -0.03134099 0.02235484 -0.04491797
v -0.03190006 0.02152093 -0.04432264
v -0.03231537 0.02205314 -0.04530854
v -0.03290319 0.02242264 -0.04628307
v -0.01726194 0.01750730 -0.02827131
v -0.02924207 0.02495150 -0.04764059
v -0.02904080 0.02480799 -0.04723485
v -0.01435477 0.01891411 -0.02827131
v -0.02833158 0.02377746 -0.04497485
v -0.02910470 0.02406222 -0.04596265
v -0.03422580 0.02247462 -0.04764059
v -0.03056787 0.02254242 -0.04464684
v -0.03053592 0.02329610 -0.04574651
v -0.03100235 0.02365656 -0.04663004
v -0.03190964 0.02261021 -0.04575030
v -0.01601282 0.01817172 -0.02827131
v -0.01591378 0.01822031 -0.02827131
v -0.03207257 0.02341814 -0.04712868
v -0.03236648 0.02357746 -0.04764059
v -0.03298306 0.02322378 -0.04764059
v -0.03343032 0.02268592 -0.04719694
v -0.02999921 0.02465093 -0.04764059
v -0.03053592 0.02415600 -0.04712868
v -0.03002797 0.02387803 -0.04627549
v -0.01450172 0.01885422 -0.02827131
v -0.02910470 0.02361023 -0.04523271
v -0.03346866 0.02293790 -0.04764059
v -0.03161573 0.02395374 -0.04760457
v -0.03169560 0.02393340 -0.04764059
v -0.03055828 0.02442493 -0.04764059
v -0.03158059 0.02398764 -0.04764059
v -0.03163170 0.02396504 -0.04764059
f 1 2 3
f 1 3 4
f 1 4 9
f 1 9 17
f 1 17 16
f 1 16 24
f 1 24 36
f 1 36 55
f 1 55 78
f 1 78 82
f 1 82 106
f 1 106 119
f 1 119 132
f 1 132 131
f 1 131 130
f 1 130 135
f 1 135 146
f 1 146 162
f 1 162 155
f 1 155 154
f 1 154 164
f 1 164 167
f 1 167 166
f 1 166 165
f 1 165 157
f 1 157 141
f 1 141 125
f 1 125 115
f 1 115 99
f 1 99 74
f 1 74 50
f 1 50 49
f 1 49 73
f 1 73 89
f 1 89 64
f 1 64 45
f 1 45 31
f 1 31 18
f 1 18 10
f 1 10 5
f 1 5 13
f 1 13 22
f 1 22 33
f 1 33 32
f 1 32 46
f 1 46 69
f 1 69 96
f 1 96 95
f 1 95 113
f 1 113 121
f 1 121 108
f 1 108 107
f 1 107 83
f 1 83 58
f 1 58 57
f 1 57 56
f 1 56 39
f 1 39 37
f 1 37 25
f 1 25 23
f 1 23 14
f 1 14 7
f 1 7 6
f 1 6 2
f 2 6 3
f 3 6 7
f 3 7 8
f 3 8 4
f 4 8 9
f 5 10 11
f 5 11 12
f 5 12 13
f 7 14 8
f 8 14 15
f 8 15 16
f 8 16 17
f 8 17 9
f 10 18 30
f 10 30 44
f 10 44 63
f 10 63 88
f 10 88 97
f 10 97 72
f 10 72 48
f 10 48 34
f 10 34 21
f 10 21 20
f 10 20 19
f 10 19 12
f 10 12 11
f 12 19 13
f 13 19 20
f 13 20 21
f 13 21 22
f 14 23 15
f 15 24 16
f 15 23 25
f 15 25 26
f 15 26 27
f 15 27 28
f 15 28 29
f 15 29 24
f 18 31 30
f 21 32 33
f 21 33 22
f 21 34 47
f 21 47 71
f 21 71 77
f 21 77 76
f 21 76 101
f 21 101 116
f 21 116 126
f 21 126 143
f 21 143 160
f 21 160 152
f 21 152 151
f 21 151 140
f 21 140 124
f 21 124 112
f 21 112 93
f 21 93 92
f 21 92 70
f 21 70 46
f 21 46 32
f 24 29 35
f 24 35 36
f 25 37 38
f 25 38 26
f 26 38 27
f 27 35 28
f 27 38 39
f 27 39 40
f 27 40 41
f 27 41 42
f 27 42 43
f 27 43 35
f 28 35 29
f 30 31 44
f 31 45 44
f 34 48 49
f 34 49 50
f 34 50 47
f 35 51 36
f 35 43 52
f 35 52 53
f 35 53 54
f 35 54 51
f 36 51 55
f 37 39 38
f 39 56 40
f 40 56 57
f 40 57 58
f 40 58 41
f 41 58 59
f 41 59 60
f 41 60 61
f 41 61 62
f 41 62 42
f 42 62 52
f 42 52 43
f 44 45 63
f 45 64 63
f 46 65 66
f 46 66 67
f 46 67 68
f 46 68 69
f 46 70 65
f 47 50 71
f 48 72 49
f 49 72 73
f 50 74 75
f 50 75 76
f 50 76 77
f 50 77 71
f 51 54 78
f 51 78 55
f 52 79 53
f 52 62 80
f 52 80 79
f 53 79 54
f 54 79 81
f 54 81 82
f 54 82 78
f 58 83 84
f 58 84 60
f 58 60 59
f 60 84 85
f 60 85 86
f 60 86 87
f 60 87 61
f 61 87 80
f 61 80 62
f 63 64 89
f 63 89 73
f 63 73 88
f 65 90 91
f 65 91 66
f 65 70 92
f 65 92 93
f 65 93 90
f 66 91 80
f 66 80 87
f 66 87 86
f 66 86 67
f 67 86 68
f 68 86 94
f 68 94 95
f 68 95 96
f 68 96 69
f 72 97 73
f 73 97 88
f 74 98 75
f 74 99 98
f 75 98 100
f 75 100 76
f 76 100 102
f 76 102 101
f 79 80 91
f 79 91 103
f 79 103 81
f 81 104 105
f 81 105 82
f 81 103 104
f 82 105 106
f 83 107 84
f 84 107 108
f 84 108 85
f 85 108 109
f 85 109 86
f 86 109 95
f 86 95 94
f 90 110 111
f 90 111 91
f 90 93 110
f 91 111 103
f 93 112 110
f 95 109 113
f 98 102 100
f 98 99 114
f 98 114 102
f 99 115 114
f 101 102 116
f 102 114 117
f 102 117 116
f 103 111 104
f 104 118 119
f 104 119 106
f 104 106 105
f 104 111 120
f 104 120 118
f 108 121 109
f 109 121 113
f 110 122 123
f 110 123 111
f 110 112 122
f 111 123 120
f 112 124 122
f 114 115 117
f 115 125 117
f 116 117 127
f 116 127 128
f 116 128 126
f 117 125 127
f 118 120 129
f 118 129 130
f 118 130 131
f 118 131 132
f 118 132 119
f 120 123 133
f 120 133 134
f 120 134 135
f 120 135 129
f 122 136 137
f 122 137 123
f 122 124 136
f 123 137 138
f 123 138 139
f 123 139 133
f 124 140 136
f 125 141 142
f 125 142 127
f 126 128 144
f 126 144 143
f 127 142 145
f 127 145 144
f 127 144 128
f 129 135 130
f 133 139 134
f 134 146 135
f 134 139 146
f 136 147 148
f 136 148 149
f 136 149 150
f 136 150 139
f 136 139 138
f 136 138 137
f 136 140 151
f 136 151 152
f 136 152 147
f 139 150 153
f 139 153 154
f 139 154 155
f 139 155 156
f 139 156 146
f 141 157 158
f 141 158 142
f 142 158 159
f 142 159 145
f 143 144 160
f 144 145 159
f 144 159 161
f 144 161 160
f 146 156 162
f 147 161 148
f 147 152 161
f 148 159 149
f 148 161 159
f 149 159 158
f 149 158 163
f 149 163 153
f 149 153 150
f 152 160 161
f 153 163 154
f 154 163 164
f 155 162 156
f 157 165 158
f 158 165 163
f 163 166 167
f 163 167 164
f 163 165 166

