# https://github.com/mikedh/trimesh
v 0.02427728 0.01138348 0.06397150
v 0.02402530 0.01177421 0.06397150
v 0.02281897 0.01358437 0.06477605
v 0.02409481 0.01138348 0.06553216
v 0.02169373 0.01138348 0.04254483
v 0.02141279 0.01232976 0.04254483
v 0.02132300 0.01257894 0.04254483
v 0.02114487 0.01306081 0.04254483
v 0.02118977 0.01318200 0.04350544
v 0.02055112 0.01429021 0.04350544
v 0.02281897 0.01358437 0.06463344
v 0.01996316 0.01513857 0.04350544
v 0.02002688 0.01522389 0.04496922
v 0.02136934 0.01505325 0.06482717
v 0.02121583 0.01490200 0.06580123
v 0.02264374 0.01336234 0.06575011
v 0.02318101 0.01285623 0.06533035
v 0.02404412 0.01143777 0.06558059
v 0.02405860 0.01138348 0.06561826
v 0.01810949 0.01138348 0.04254483
v 0.02062498 0.01397510 0.04254483
v 0.02039617 0.01437165 0.04254483
v 0.01995737 0.01501544 0.04254483
v 0.02136934 0.01505325 0.06462267
v 0.01945195 0.01595494 0.04496922
v 0.01950553 0.01601796 0.04643031
v 0.01872062 0.01682269 0.04496922
v 0.01877421 0.01687117 0.04643031
v 0.01991537 0.01507555 0.04254483
v 0.01727679 0.01818589 0.04643031
v 0.01958663 0.01628265 0.06543529
v 0.02067856 0.01546434 0.06536263
v 0.01863807 0.01664138 0.06641204
v 0.02024121 0.01531988 0.06655196
v 0.02166911 0.01392759 0.06651967
v 0.02300433 0.01238697 0.06639320
v 0.02331134 0.01138348 0.06667574
v 0.00948414 0.01746842 0.04254483
v 0.01459766 0.01138348 0.06217137
v 0.00948414 0.01331580 0.06251041
v 0.00948414 0.01337301 0.06174622
v 0.00948414 0.01341954 0.06141795
v 0.01800812 0.01760221 0.04643031
v 0.01936796 0.01586962 0.04350544
v 0.01796757 0.01755374 0.04496922
v 0.01863663 0.01673155 0.04350544
v 0.01987337 0.01512694 0.04254483
v 0.01723624 0.01816165 0.04496922
v 0.01621817 0.01883646 0.04496922
v 0.01621817 0.01886167 0.04643031
v 0.01885530 0.01676936 0.06543529
v 0.01582282 0.01807245 0.06643356
v 0.01627465 0.01761191 0.06691252
v 0.01765621 0.01690704 0.06689907
v 0.01812687 0.01628653 0.06738880
v 0.01919563 0.01580369 0.06697172
v 0.01767938 0.01742576 0.06543529
v 0.01975317 0.01490103 0.06752871
v 0.02117673 0.01334295 0.06749373
v 0.02152140 0.01236855 0.06776550
v 0.02254092 0.01138348 0.06740762
v 0.02255540 0.01138348 0.06739417
v 0.00948414 0.02128847 0.04254483
v 0.01462807 0.01138348 0.06242700
v 0.01636589 0.01138348 0.06827406
v 0.00948414 0.01401485 0.06836016
v 0.01937375 0.01571934 0.04254483
v 0.01786620 0.01746260 0.04350544
v 0.01713487 0.01808602 0.04350544
v 0.01857436 0.01665981 0.04254483
v 0.01831079 0.01690995 0.04254483
v 0.01621817 0.01870363 0.04350544
v 0.01538981 0.01935033 0.04496922
v 0.01529423 0.01929215 0.04350544
v 0.01536954 0.01935130 0.04643031
v 0.01675544 0.01786981 0.06543529
v 0.01602411 0.01813353 0.06543529
v 0.01475696 0.01853105 0.06543529
v 0.01119444 0.01942692 0.06622369
v 0.01329430 0.01862995 0.06689638
v 0.01470193 0.01821885 0.06691252
v 0.01515231 0.01781649 0.06740762
v 0.01715225 0.01660648 0.06776281
v 0.01877855 0.01531212 0.06787313
v 0.01702046 0.01507749 0.06912434
v 0.01799509 0.01456071 0.06884719
v 0.02020211 0.01392662 0.06786506
v 0.02065539 0.01284460 0.06810185
v 0.02181103 0.01138348 0.06795923
v 0.01037043 0.02114498 0.04254483
v 0.00948414 0.02127878 0.04350544
v 0.01037043 0.02114110 0.04350544
v 0.01670476 0.01138348 0.06845434
v 0.00948414 0.01454229 0.06950375
v 0.01778655 0.01739085 0.04254483
v 0.01730575 0.01781358 0.04254483
v 0.01705667 0.01802688 0.04254483
v 0.01674386 0.01823727 0.04254483
v 0.01621817 0.01857759 0.04254483
v 0.01465848 0.01973233 0.04496922
v 0.01456290 0.01970615 0.04350544
v 0.01590247 0.01877829 0.04254483
v 0.01517403 0.01922525 0.04254483
v 0.01444270 0.01964022 0.04254483
v 0.01463966 0.01968676 0.04643031
v 0.01329430 0.02032667 0.04496922
v 0.01200687 0.02073194 0.04496922
v 0.01037043 0.01951127 0.06646585
v 0.00948414 0.01936584 0.06738072
v 0.00948414 0.01933772 0.06745606
v 0.01037043 0.01923301 0.06719775
v 0.01174185 0.01906819 0.06678606
v 0.01115534 0.02088126 0.04585449
v 0.01042546 0.02097627 0.04637650
v 0.00948414 0.02116825 0.04585449
v 0.00948414 0.02112849 0.04640879
v 0.01417769 0.01799585 0.06770361
v 0.01621817 0.01684499 0.06802382
v 0.01621817 0.01605383 0.06875571
v 0.01757367 0.01568249 0.06830365
v 0.01757656 0.01416029 0.06919431
v 0.01843678 0.01358631 0.06910013
v 0.01522906 0.01634082 0.06899787
v 0.01621817 0.01532279 0.06923736
v 0.01621817 0.01429021 0.06945800
v 0.01933610 0.01282812 0.06884988
v 0.02060470 0.01138348 0.06859964
v 0.01134505 0.02093361 0.04254483
v 0.01137981 0.02093749 0.04350544
v 0.00948414 0.02124678 0.04439339
v 0.01037043 0.02108583 0.04496922
v 0.01127699 0.02091035 0.04496922
v 0.01767938 0.01138348 0.06886065
v 0.01668304 0.01202048 0.06912973
v 0.00948414 0.01575230 0.07002845
v 0.01329430 0.02032085 0.04350544
v 0.01329430 0.02022584 0.04254483
v 0.01211114 0.02075231 0.04350544
v 0.00948414 0.01958011 0.06676184
v 0.00948414 0.01877926 0.06834402
v 0.01183164 0.01831872 0.06815835
v 0.01329430 0.01812287 0.06788120
v 0.00948414 0.02122448 0.04496922
v 0.01097722 0.01790084 0.06904631
v 0.01183164 0.01775153 0.06889024
v 0.01329430 0.01748684 0.06861310
v 0.01470338 0.01719500 0.06834940
v 0.01860477 0.01282812 0.06914049
v 0.01425299 0.01657351 0.06915663
v 0.01474682 0.01581338 0.06937459
v 0.01329430 0.01575230 0.06967595
v 0.01183164 0.01575230 0.06986969
v 0.01475696 0.01429021 0.06963559
v 0.01864242 0.01186632 0.06914856
v 0.01912466 0.01138348 0.06896559
v 0.01159559 0.02087059 0.04254483
v 0.01767938 0.01186728 0.06916201
v 0.01037043 0.01575230 0.06998539
v 0.00948414 0.01725802 0.06974322
v 0.01207638 0.02072225 0.04254483
v 0.00948414 0.01811026 0.06924812
v 0.01000259 0.01804530 0.06918892
v 0.01044139 0.01845155 0.06847856
v 0.01329430 0.01675579 0.06928848
v 0.01183164 0.01702048 0.06945531
v 0.01044139 0.01733365 0.06953065
f 1 2 3
f 1 3 4
f 1 4 19
f 1 19 37
f 1 37 62
f 1 62 61
f 1 61 89
f 1 89 127
f 1 127 155
f 1 155 133
f 1 133 93
f 1 93 65
f 1 65 64
f 1 64 39
f 1 39 20
f 1 20 5
f 1 5 6
f 1 6 7
f 1 7 8
f 1 8 9
f 1 9 10
f 1 10 2
f 2 11 3
f 2 10 12
f 2 12 13
f 2 13 11
f 3 11 24
f 3 24 14
f 3 14 15
f 3 15 16
f 3 16 17
f 3 17 4
f 4 18 19
f 4 17 18
f 5 20 38
f 5 38 63
f 5 63 90
f 5 90 128
f 5 128 156
f 5 156 160
f 5 160 137
f 5 137 104
f 5 104 103
f 5 103 102
f 5 102 99
f 5 99 98
f 5 98 97
f 5 97 96
f 5 96 95
f 5 95 71
f 5 71 70
f 5 70 67
f 5 67 47
f 5 47 29
f 5 29 23
f 5 23 22
f 5 22 21
f 5 21 8
f 5 8 7
f 5 7 6
f 8 21 9
f 9 21 10
f 10 21 22
f 10 22 23
f 10 23 12
f 11 13 25
f 11 25 26
f 11 26 27
f 11 27 28
f 11 28 24
f 12 23 29
f 12 29 25
f 12 25 13
f 14 24 30
f 14 30 31
f 14 31 32
f 14 32 15
f 15 32 31
f 15 31 33
f 15 33 34
f 15 34 35
f 15 35 16
f 16 35 36
f 16 36 18
f 16 18 17
f 18 36 19
f 19 36 37
f 20 39 40
f 20 40 41
f 20 41 42
f 20 42 38
f 24 28 43
f 24 43 30
f 25 27 26
f 25 29 44
f 25 44 27
f 27 45 28
f 27 44 46
f 27 46 45
f 28 45 43
f 29 47 44
f 30 43 48
f 30 48 49
f 30 49 50
f 30 50 51
f 30 51 31
f 31 51 33
f 33 52 53
f 33 53 54
f 33 54 55
f 33 55 56
f 33 56 34
f 33 51 57
f 33 57 52
f 34 56 58
f 34 58 35
f 35 58 59
f 35 59 36
f 36 59 60
f 36 60 61
f 36 61 62
f 36 62 37
f 38 42 41
f 38 41 40
f 38 40 66
f 38 66 94
f 38 94 135
f 38 135 159
f 38 159 161
f 38 161 140
f 38 140 110
f 38 110 109
f 38 109 139
f 38 139 116
f 38 116 115
f 38 115 143
f 38 143 130
f 38 130 91
f 38 91 63
f 39 64 40
f 40 64 65
f 40 65 66
f 43 45 48
f 44 47 67
f 44 67 46
f 45 46 68
f 45 68 69
f 45 69 48
f 46 67 70
f 46 70 71
f 46 71 68
f 48 69 72
f 48 72 49
f 49 73 50
f 49 72 74
f 49 74 73
f 50 73 75
f 50 75 51
f 51 75 57
f 52 57 76
f 52 76 77
f 52 77 78
f 52 78 79
f 52 79 80
f 52 80 81
f 52 81 82
f 52 82 53
f 53 82 83
f 53 83 54
f 54 83 55
f 55 83 84
f 55 84 58
f 55 58 56
f 57 75 76
f 58 84 85
f 58 85 86
f 58 86 87
f 58 87 59
f 59 87 60
f 60 87 88
f 60 88 89
f 60 89 61
f 63 91 92
f 63 92 90
f 65 93 94
f 65 94 66
f 68 71 95
f 68 95 96
f 68 96 97
f 68 97 69
f 69 97 72
f 72 97 98
f 72 98 99
f 72 99 74
f 73 100 75
f 73 74 101
f 73 101 100
f 74 99 102
f 74 102 103
f 74 103 104
f 74 104 101
f 75 100 105
f 75 105 76
f 76 105 106
f 76 106 77
f 77 106 107
f 77 107 78
f 78 107 79
f 79 108 109
f 79 109 110
f 79 110 111
f 79 111 112
f 79 112 80
f 79 107 113
f 79 113 114
f 79 114 115
f 79 115 116
f 79 116 108
f 80 112 111
f 80 111 110
f 80 110 117
f 80 117 81
f 81 117 82
f 82 117 118
f 82 118 83
f 83 118 119
f 83 119 120
f 83 120 84
f 84 120 85
f 85 121 122
f 85 122 86
f 85 120 119
f 85 119 123
f 85 123 124
f 85 124 125
f 85 125 121
f 86 122 87
f 87 122 88
f 88 122 89
f 89 122 126
f 89 126 127
f 90 92 129
f 90 129 128
f 91 130 92
f 92 130 131
f 92 131 132
f 92 132 129
f 93 133 94
f 94 133 134
f 94 134 135
f 100 106 105
f 100 101 136
f 100 136 106
f 101 104 137
f 101 137 136
f 106 136 138
f 106 138 107
f 107 138 129
f 107 129 132
f 107 132 113
f 108 139 109
f 108 116 139
f 110 140 141
f 110 141 142
f 110 142 117
f 113 132 131
f 113 131 114
f 114 131 115
f 115 131 143
f 117 142 144
f 117 144 145
f 117 145 146
f 117 146 147
f 117 147 118
f 118 147 123
f 118 123 119
f 121 125 122
f 122 125 148
f 122 148 127
f 122 127 126
f 123 149 124
f 123 147 149
f 124 150 151
f 124 151 125
f 124 149 150
f 125 151 152
f 125 152 153
f 125 153 154
f 125 154 148
f 127 148 154
f 127 154 155
f 128 129 156
f 129 138 156
f 130 143 131
f 133 155 157
f 133 157 134
f 134 157 135
f 135 153 158
f 135 158 159
f 135 157 154
f 135 154 153
f 136 137 160
f 136 160 138
f 138 160 156
f 140 161 162
f 140 162 163
f 140 163 141
f 141 163 144
f 141 144 142
f 144 162 164
f 144 164 149
f 144 149 145
f 144 163 162
f 145 149 146
f 146 149 147
f 149 164 150
f 150 164 151
f 151 159 152
f 151 164 165
f 151 165 159
f 152 159 158
f 152 158 153
f 154 157 155
f 159 165 166
f 159 166 161
f 161 166 165
f 161 165 162
f 162 165 164

