# https://github.com/mikedh/trimesh
v 0.02431841 0.01000314 -0.04723375
v 0.02430272 0.00876190 -0.04764059
v 0.02430496 0.00979568 -0.04764059
v 0.02426910 0.01041095 -0.04764059
v 0.02428703 0.01073774 -0.04680922
v 0.02428703 0.01073774 -0.04616358
v 0.02430944 0.00990252 -0.04596901
v 0.02431393 0.00871026 -0.04714088
v 0.02359449 0.00275605 -0.04764059
v 0.02421083 0.01074931 -0.04764059
v 0.02409652 0.01128089 -0.04723375
v 0.02390826 0.01185165 -0.04720280
v 0.02389257 0.01185165 -0.04567714
v 0.02407860 0.01128089 -0.04567714
v 0.02384551 0.01136459 -0.04421782
v 0.02406515 0.00990252 -0.04421782
v 0.02422428 0.00990252 -0.04523934
v 0.02429824 0.00892307 -0.04607072
v 0.02008470 0.00275605 -0.04764059
v 0.02357207 0.00275605 -0.04730450
v 0.02389033 0.01173678 -0.04764059
v 0.02385223 0.01185165 -0.04764059
v 0.02368862 0.01185165 -0.04421782
v 0.02353173 0.01136459 -0.04275408
v 0.02376034 0.00990252 -0.04275408
v 0.02337933 0.01185165 -0.04274965
v 0.02367293 0.00844046 -0.04275408
v 0.02395533 0.00844046 -0.04421782
v 0.02356087 0.00275605 -0.04714088
v 0.02324709 0.00275605 -0.04421782
v 0.02326951 0.00275605 -0.04438144
v 0.02343088 0.00275605 -0.04568156
v 0.01986058 0.01185165 -0.04764059
v 0.00952845 0.00275605 -0.01746802
v 0.00273749 0.01185165 -0.01062690
v 0.00333366 0.01185165 -0.01205526
v 0.00403517 0.01185165 -0.01357650
v 0.02301177 0.01185165 -0.04135666
v 0.02285936 0.01185165 -0.04079062
v 0.02307228 0.01145808 -0.04118862
v 0.02335916 0.00990252 -0.04129476
v 0.01324891 0.00275605 -0.00246354
v 0.02237525 0.00275605 -0.03996368
v 0.02268230 0.00275605 -0.04123284
v 0.02283023 0.00275605 -0.04188291
v 0.02300504 0.00275605 -0.04275408
v 0.00949483 0.00275605 -0.01737073
v 0.00919451 0.00275605 -0.01644207
v 0.00187685 0.01185165 -0.00766846
v 0.02272713 0.01185165 -0.04040590
v 0.01103457 0.00890259 -0.00246354
v 0.01315478 0.00307660 -0.00246354
v 0.02289074 0.01103246 -0.04031303
v 0.00929088 0.00275605 -0.00246354
v 0.00914968 0.00275605 -0.01627845
v 0.00157205 0.01185165 -0.00625778
v 0.00884487 0.00275605 -0.01498275
v 0.00766598 0.01185165 -0.00246354
v 0.00973017 0.01068520 -0.00246354
v 0.01017617 0.01018835 -0.00246354
v 0.01045184 0.00984376 -0.00246354
v 0.01088889 0.00915636 -0.00246354
v 0.00149808 0.01185165 -0.00246354
v 0.00921692 0.00275605 -0.00312245
v 0.00156308 0.01185165 -0.00617376
v 0.00881798 0.00275605 -0.01481913
v 0.00864989 0.00275605 -0.01351901
v 0.00143757 0.01185165 -0.00328607
v 0.00862075 0.00275605 -0.00896858
v 0.00875522 0.00275605 -0.00750926
v 0.00890091 0.00275605 -0.00604551
v 0.00905555 0.00275605 -0.00458177
v 0.00144654 0.01185165 -0.00474539
v 0.00863420 0.00275605 -0.01335539
v 0.00142636 0.01185165 -0.00356909
v 0.00853334 0.00275605 -0.01043232
v 0.00854679 0.00275605 -0.01205526
v 0.00854231 0.00275605 -0.01189607
v 0.00853110 0.00275605 -0.01059594
f 1 2 3
f 1 3 4
f 1 4 5
f 1 5 6
f 1 6 7
f 1 7 8
f 1 8 2
f 2 8 9
f 2 9 19
f 2 19 33
f 2 33 22
f 2 22 21
f 2 21 10
f 2 10 4
f 2 4 3
f 4 10 5
f 5 11 12
f 5 12 6
f 5 10 11
f 6 12 13
f 6 13 14
f 6 14 15
f 6 15 16
f 6 16 17
f 6 17 7
f 7 18 8
f 7 17 18
f 8 18 9
f 9 18 20
f 9 20 29
f 9 29 32
f 9 32 31
f 9 31 30
f 9 30 46
f 9 46 45
f 9 45 44
f 9 44 43
f 9 43 42
f 9 42 54
f 9 54 64
f 9 64 72
f 9 72 71
f 9 71 70
f 9 70 69
f 9 69 76
f 9 76 79
f 9 79 78
f 9 78 77
f 9 77 74
f 9 74 67
f 9 67 66
f 9 66 57
f 9 57 55
f 9 55 48
f 9 48 47
f 9 47 34
f 9 34 19
f 10 21 11
f 11 21 22
f 11 22 12
f 12 22 33
f 12 33 37
f 12 37 36
f 12 36 35
f 12 35 49
f 12 49 56
f 12 56 65
f 12 65 73
f 12 73 75
f 12 75 68
f 12 68 63
f 12 63 58
f 12 58 50
f 12 50 39
f 12 39 38
f 12 38 26
f 12 26 23
f 12 23 13
f 13 23 14
f 14 23 15
f 15 24 25
f 15 25 16
f 15 23 26
f 15 26 24
f 16 27 28
f 16 28 18
f 16 18 17
f 16 25 27
f 18 29 20
f 18 28 30
f 18 30 31
f 18 31 32
f 18 32 29
f 19 34 35
f 19 35 36
f 19 36 37
f 19 37 33
f 24 26 38
f 24 38 39
f 24 39 40
f 24 40 41
f 24 41 25
f 25 41 42
f 25 42 27
f 27 43 44
f 27 44 45
f 27 45 46
f 27 46 28
f 27 42 43
f 28 46 30
f 34 47 35
f 35 47 48
f 35 48 49
f 39 50 51
f 39 51 52
f 39 52 42
f 39 42 40
f 40 42 53
f 40 53 41
f 41 53 42
f 42 52 51
f 42 51 62
f 42 62 61
f 42 61 60
f 42 60 59
f 42 59 58
f 42 58 63
f 42 63 54
f 48 55 49
f 49 55 57
f 49 57 56
f 50 58 59
f 50 59 60
f 50 60 61
f 50 61 62
f 50 62 51
f 54 63 64
f 56 57 66
f 56 66 67
f 56 67 65
f 63 68 69
f 63 69 70
f 63 70 71
f 63 71 72
f 63 72 64
f 65 67 74
f 65 74 73
f 68 75 76
f 68 76 69
f 73 74 77
f 73 77 78
f 73 78 75
f 75 78 79
f 75 79 76

