# https://github.com/mikedh/trimesh
v -0.03573057 -0.01150101 -0.05361756
v -0.02716337 -0.01150101 -0.04162622
v -0.03573057 -0.01150101 -0.04555697
v -0.03573142 -0.00266905 -0.04634258
v -0.03573057 0.00275237 -0.04489243
v -0.02848682 0.00275516 -0.03617806
v -0.02843147 0.00275516 -0.03611080
v -0.02785445 0.00275516 -0.03539783
v -0.02716337 0.00275516 -0.03452612
v -0.02716337 -0.01150101 -0.03603546
v -0.03550413 -0.01150101 -0.04524218
v -0.03573057 -0.01135030 -0.04540092
v -0.03573057 0.00275516 -0.04459647
v -0.03573057 -0.01108237 -0.04515071
v -0.03573057 -0.01032323 -0.04452115
v -0.03573057 -0.00990319 -0.04417676
v -0.03573057 -0.00944129 -0.04382432
v -0.03573057 -0.00866541 -0.04325932
v -0.03573057 -0.00838631 -0.04308444
v -0.03573057 -0.00764113 -0.04263514
v -0.03573057 -0.00698944 -0.04226655
v -0.03573057 -0.00675500 -0.04214010
v -0.03573057 -0.00591911 -0.04175805
v -0.03573057 -0.00556466 -0.04160739
v -0.03573057 -0.00471761 -0.04126301
v -0.03573057 -0.00393893 -0.04098589
v -0.03573057 -0.00344633 -0.04082716
v -0.03573057 -0.00262579 -0.04059847
v -0.03573057 -0.00179409 -0.04036978
v -0.03573057 -0.00033163 -0.03997159
v -0.03573057 0.00112943 -0.03962453
v -0.03573057 0.00259189 -0.03937431
v -0.03573057 0.00275516 -0.03936355
v -0.03558716 0.00275516 -0.04471216
v -0.02716337 0.00275516 -0.02678301
v -0.02716337 -0.00829003 -0.03123032
v -0.03265762 -0.01150101 -0.04183069
v -0.03560813 -0.01117726 -0.04505385
v -0.03432409 -0.01150101 -0.04374360
v -0.02716337 -0.00743879 -0.03014876
v -0.02716337 -0.00707457 -0.02975057
v -0.02716337 -0.00656661 -0.02921248
v -0.02716337 -0.00604331 -0.02869861
v -0.02716337 -0.00500089 -0.02785112
v -0.02716337 -0.00470784 -0.02766817
v -0.02716337 -0.00390684 -0.02722693
v -0.02716337 -0.00319515 -0.02683682
v -0.02716337 -0.00179409 -0.02634985
v -0.02716337 -0.00033163 -0.02613461
v -0.02716337 0.00112943 -0.02622070
v -0.02716337 0.00150760 -0.02632563
v -0.02716337 0.00255561 -0.02669691
v -0.02716337 -0.00795372 -0.03076487
v -0.03295703 -0.01150101 -0.04215355
v -0.03393411 -0.01150101 -0.04328085
f 1 2 10
f 1 10 37
f 1 37 54
f 1 54 55
f 1 55 39
f 1 39 11
f 1 11 3
f 1 3 4
f 1 4 5
f 1 5 6
f 1 6 7
f 1 7 8
f 1 8 9
f 1 9 2
f 2 9 35
f 2 35 52
f 2 52 51
f 2 51 50
f 2 50 49
f 2 49 48
f 2 48 47
f 2 47 46
f 2 46 45
f 2 45 44
f 2 44 43
f 2 43 42
f 2 42 41
f 2 41 40
f 2 40 53
f 2 53 36
f 2 36 10
f 3 11 12
f 3 12 4
f 4 13 5
f 4 12 14
f 4 14 15
f 4 15 16
f 4 16 17
f 4 17 18
f 4 18 19
f 4 19 20
f 4 20 21
f 4 21 22
f 4 22 23
f 4 23 24
f 4 24 25
f 4 25 26
f 4 26 27
f 4 27 28
f 4 28 29
f 4 29 30
f 4 30 31
f 4 31 32
f 4 32 33
f 4 33 13
f 5 13 34
f 5 34 6
f 6 34 13
f 6 13 33
f 6 33 35
f 6 35 9
f 6 9 8
f 6 8 7
f 10 36 37
f 11 38 12
f 11 39 40
f 11 40 41
f 11 41 42
f 11 42 38
f 12 38 14
f 14 38 15
f 15 38 43
f 15 43 16
f 16 43 44
f 16 44 17
f 17 44 18
f 18 44 19
f 19 44 45
f 19 45 20
f 20 45 21
f 21 45 46
f 21 46 47
f 21 47 22
f 22 47 23
f 23 47 24
f 24 47 25
f 25 47 26
f 26 47 48
f 26 48 27
f 27 48 28
f 28 48 29
f 29 48 30
f 30 48 31
f 31 48 32
f 32 48 49
f 32 49 33
f 33 49 50
f 33 50 51
f 33 51 52
f 33 52 35
f 36 53 54
f 36 54 37
f 38 42 43
f 39 55 53
f 39 53 40
f 53 55 54

