# https://github.com/mikedh/trimesh
v -0.01108592 -0.01308375 -0.00246162
v -0.01721128 -0.01308375 -0.00246162
v -0.01922801 -0.00316561 -0.00246162
v -0.01937325 -0.00316561 -0.00195520
v -0.01938853 -0.00316561 -0.00190340
v -0.01945351 -0.00316561 -0.00172692
v -0.01995291 -0.00316561 -0.00039755
v -0.02068419 -0.00316561 0.00120229
v -0.02070075 -0.00316561 0.00123682
v -0.02138234 -0.00316561 0.00251632
v -0.02408575 -0.00316561 0.00749042
v -0.01307080 -0.01308375 0.00105075
v -0.02006630 -0.00884213 -0.00246162
v -0.02409976 -0.01308375 0.00857041
v -0.02396600 -0.01274007 0.00771486
v -0.02409976 -0.01265852 0.00778583
v -0.02409976 -0.01210417 0.00695330
v -0.02409976 -0.01146535 0.00600950
v -0.02378891 -0.01099935 0.00504845
v -0.02274678 -0.00316561 -0.00246162
v -0.02409976 -0.00316561 0.00748466
v -0.02409976 -0.00316852 0.00751727
v -0.01490917 -0.01308375 0.00413918
v -0.02073005 -0.00781886 -0.00246162
v -0.02409976 -0.01076635 0.00528248
v -0.02409976 -0.01308375 0.01713170
v -0.02409976 -0.00316561 0.00050404
v -0.02224738 -0.00471799 -0.00246162
v -0.02409976 -0.00764217 0.00297287
v -0.02409976 -0.00643638 0.00221898
v -0.02409976 -0.00571990 0.00179312
v -0.02409976 -0.00562573 0.00174133
v -0.02409976 -0.00471799 0.00124258
v -0.02409976 -0.00357142 0.00068052
v -0.01986756 -0.01308375 0.01158403
v -0.01933375 -0.01308375 0.01086851
v -0.01859738 -0.01308375 0.00987676
v -0.01854260 -0.01308375 0.00980003
v -0.01773362 -0.01308375 0.00865673
v -0.01753615 -0.01308375 0.00836323
v -0.01675774 -0.01308375 0.00715472
v -0.01572580 -0.01308375 0.00549157
v -0.02113518 -0.00709267 -0.00246162
v -0.02409976 -0.01003821 0.00460149
v -0.02409976 -0.01002754 0.00459190
v -0.02166644 -0.00612668 -0.00246162
v -0.02409976 -0.00909552 0.00392625
v -0.02409976 -0.00860816 0.00359055
v -0.02409976 -0.00829069 0.00338722
f 1 2 13
f 1 13 24
f 1 24 43
f 1 43 46
f 1 46 28
f 1 28 20
f 1 20 3
f 1 3 4
f 1 4 5
f 1 5 6
f 1 6 7
f 1 7 8
f 1 8 9
f 1 9 10
f 1 10 11
f 1 11 12
f 1 12 23
f 1 23 42
f 1 42 41
f 1 41 40
f 1 40 39
f 1 39 38
f 1 38 37
f 1 37 36
f 1 36 35
f 1 35 26
f 1 26 14
f 1 14 2
f 2 14 15
f 2 15 16
f 2 16 17
f 2 17 18
f 2 18 19
f 2 19 13
f 3 20 27
f 3 27 21
f 3 21 11
f 3 11 10
f 3 10 9
f 3 9 8
f 3 8 7
f 3 7 6
f 3 6 5
f 3 5 4
f 11 21 22
f 11 22 23
f 11 23 12
f 13 19 25
f 13 25 24
f 14 26 22
f 14 22 21
f 14 21 27
f 14 27 34
f 14 34 33
f 14 33 32
f 14 32 31
f 14 31 30
f 14 30 29
f 14 29 49
f 14 49 48
f 14 48 47
f 14 47 45
f 14 45 44
f 14 44 25
f 14 25 18
f 14 18 17
f 14 17 16
f 14 16 15
f 18 25 19
f 20 28 29
f 20 29 30
f 20 30 31
f 20 31 32
f 20 32 33
f 20 33 34
f 20 34 27
f 22 26 35
f 22 35 36
f 22 36 37
f 22 37 38
f 22 38 39
f 22 39 40
f 22 40 41
f 22 41 42
f 22 42 23
f 24 25 44
f 24 44 45
f 24 45 43
f 28 46 45
f 28 45 47
f 28 47 48
f 28 48 49
f 28 49 29
f 43 45 46

