# https://github.com/mikedh/trimesh
v -0.02409977 -0.01547319 0.02047720
v -0.02409977 -0.01547319 0.01248332
v -0.02409977 -0.00316922 0.00752146
v -0.03352078 -0.00316922 0.04500772
v -0.03064612 -0.01547319 0.04500772
v -0.02431382 -0.01547319 0.01271856
v -0.02409977 -0.01265772 0.00779155
v -0.02409977 -0.00316561 0.00748661
v -0.03352959 -0.00316561 0.04496416
v -0.03362025 -0.00316561 0.04500772
v -0.03475601 -0.01547319 0.04500772
v -0.02555913 -0.01547319 0.01433476
v -0.02528463 -0.01260712 0.00938161
v -0.02409977 -0.01210354 0.00695513
v -0.02655260 -0.01547319 0.01572879
v -0.02409977 -0.00316561 0.00050340
v -0.03684747 -0.00316561 0.04500772
v -0.03497259 -0.01495154 0.04500772
v -0.03475727 -0.01547319 0.04498158
v -0.02694420 -0.01279024 0.01202155
v -0.02412495 -0.01145057 0.00602288
v -0.02409977 -0.01146503 0.00600981
v -0.02667852 -0.01547319 0.01591176
v -0.02671126 -0.00325596 0.00512547
v -0.02671755 -0.00316561 0.00511240
v -0.02409977 -0.00357160 0.00068201
v -0.02679436 -0.00617986 0.00642802
v -0.02721492 -0.00617986 0.00715988
v -0.02660927 -0.00480405 0.00554368
v -0.02700212 -0.00437275 0.00606208
v -0.03685503 -0.00321500 0.04500772
v -0.03684999 -0.00316561 0.04496416
v -0.03547247 -0.01355163 0.04500772
v -0.03547247 -0.01355645 0.04496416
v -0.03497259 -0.01495154 0.04496416
v -0.03475727 -0.01547319 0.04496416
v -0.02717840 -0.01303480 0.01280134
v -0.02821091 -0.01253243 0.01384250
v -0.02725018 -0.01197825 0.01145523
v -0.02703738 -0.01145780 0.01041406
v -0.02542944 -0.01126384 0.00771749
v -0.02706886 -0.01437808 0.01474862
v -0.02409977 -0.01076628 0.00528666
v -0.02697316 -0.01547319 0.01635610
v -0.02711922 -0.00325596 0.00585298
v -0.02712552 -0.00316561 0.00584427
v -0.02409977 -0.00471851 0.00124398
v -0.02692405 -0.00839777 0.00766957
v -0.02703234 -0.00764240 0.00748225
v -0.02756874 -0.00764240 0.00841886
v -0.02818069 -0.00764240 0.00950794
v -0.02830787 -0.00657501 0.00927706
v -0.02799056 -0.00612444 0.00852777
v -0.03686006 -0.00325596 0.04500772
v -0.03686258 -0.00325596 0.04496416
v -0.03681473 -0.00316561 0.04359191
v -0.03682606 -0.00325596 0.04350478
v -0.03570667 -0.01282518 0.04500772
v -0.03570667 -0.01282518 0.04496416
v -0.03569786 -0.01279626 0.04391864
v -0.03548632 -0.01336610 0.04346122
v -0.03491466 -0.01495154 0.04350478
v -0.03473334 -0.01547319 0.04432377
v -0.02763925 -0.01347092 0.01429556
v -0.02853829 -0.01155659 0.01320212
v -0.02829528 -0.01113614 0.01222630
v -0.02795405 -0.01203728 0.01274906
v -0.02846148 -0.01287096 0.01481396
v -0.02728040 -0.01052895 0.00990873
v -0.02672385 -0.01099157 0.00943824
v -0.02573289 -0.01028921 0.00725572
v -0.02520405 -0.01069159 0.00684187
v -0.02440952 -0.01053377 0.00551754
v -0.02747682 -0.01547319 0.01723608
v -0.02734587 -0.01468408 0.01572879
v -0.02409977 -0.01003862 0.00460271
v -0.02840734 -0.00560038 0.00908974
v -0.02849548 -0.00471851 0.00892420
v -0.02771606 -0.00325596 0.00695513
v -0.02772740 -0.00316561 0.00695513
v -0.02409977 -0.00562568 0.00174060
v -0.02563468 -0.00877967 0.00594882
v -0.02617108 -0.00907604 0.00697691
v -0.02670748 -0.00937120 0.00800937
v -0.02715826 -0.00897243 0.00846678
v -0.02796915 -0.00908688 0.00993922
v -0.02845015 -0.00858692 0.01047070
v -0.02409977 -0.00571965 0.00179288
v -0.02409977 -0.00643646 0.00221980
v -0.02530604 -0.00798696 0.00497300
v -0.02856977 -0.00764240 0.01023545
v -0.02867554 -0.00612444 0.00981289
v -0.03695702 -0.00467755 0.04500772
v -0.03696205 -0.00471851 0.04496416
v -0.03693687 -0.00471851 0.04350478
v -0.03681222 -0.00316561 0.04350478
v -0.03668504 -0.00316561 0.04204106
v -0.03669763 -0.00325596 0.04204106
v -0.03681348 -0.00471851 0.04204106
v -0.03593206 -0.01203126 0.04500772
v -0.03593458 -0.01202764 0.04496416
v -0.03586533 -0.01216016 0.04346122
v -0.03567897 -0.01273603 0.04294717
v -0.03533522 -0.01349019 0.04204106
v -0.03479253 -0.01495154 0.04204106
v -0.03470061 -0.01547319 0.04350478
v -0.02807618 -0.01387932 0.01572879
v -0.02874354 -0.01203728 0.01430427
v -0.02940837 -0.01195897 0.01576800
v -0.02971686 -0.01101566 0.01530623
v -0.02950784 -0.01054341 0.01427813
v -0.02879264 -0.01061569 0.01274906
v -0.02852570 -0.01016030 0.01177760
v -0.02804848 -0.01061569 0.01131147
v -0.02831039 -0.01414075 0.01658699
v -0.02854333 -0.01443832 0.01756281
v -0.02866169 -0.01314805 0.01572879
v -0.02968287 -0.01246858 0.01718816
v -0.02701597 -0.01001694 0.00898519
v -0.02541307 -0.00975310 0.00627990
v -0.02804093 -0.01547319 0.01826853
v -0.02410480 -0.01002417 0.00459836
v -0.02409977 -0.01002778 0.00459400
v -0.02898781 -0.00471851 0.00987823
v -0.02824239 -0.00325596 0.00793967
v -0.02824743 -0.00316561 0.00793095
v -0.02409977 -0.00764240 0.00297344
v -0.02409977 -0.00829176 0.00338729
v -0.02409977 -0.00860981 0.00359204
v -0.02511842 -0.00920133 0.00547398
v -0.02827513 -0.00956034 0.01080613
v -0.02869443 -0.00908688 0.01131147
v -0.02946503 -0.00904351 0.01289282
v -0.02987930 -0.00851584 0.01344172
v -0.02965768 -0.00764240 0.01247461
v -0.02912002 -0.00764240 0.01134196
v -0.02949651 -0.00614371 0.01144216
v -0.03695953 -0.00471851 0.04500772
v -0.03696205 -0.00617986 0.04496416
v -0.03696080 -0.00614010 0.04500772
v -0.03694317 -0.00617986 0.04350478
v -0.03682606 -0.00617986 0.04204106
v -0.03650498 -0.00316561 0.04066881
v -0.03650498 -0.00325596 0.04057733
v -0.03661201 -0.00471851 0.04057733
v -0.03662838 -0.00617986 0.04057733
v -0.03632240 -0.01056509 0.04500772
v -0.03632366 -0.01056509 0.04496416
v -0.03629848 -0.01056509 0.04350478
v -0.03585400 -0.01186741 0.04204106
v -0.03563616 -0.01259869 0.04204106
v -0.03515768 -0.01349019 0.04057733
v -0.03457721 -0.01547319 0.04204106
v -0.03453440 -0.01509369 0.04044228
v -0.03449159 -0.01547319 0.04132226
v -0.02814670 -0.01541295 0.01836438
v -0.02990448 -0.01142648 0.01628205
v -0.03008580 -0.01054341 0.01576800
v -0.02992211 -0.01004103 0.01477475
v -0.02973449 -0.00948926 0.01379894
v -0.02848793 -0.01547319 0.01916594
v -0.02869695 -0.01493587 0.01877387
v -0.02893745 -0.01358777 0.01712282
v -0.02982389 -0.01272880 0.01796795
v -0.02426723 -0.00896641 0.00407995
v -0.02409977 -0.00909652 0.00392748
v -0.02810892 -0.01547319 0.01839487
v -0.02987552 -0.00563050 0.01199541
v -0.02959976 -0.00471851 0.01109365
v -0.02861888 -0.00325596 0.00867153
v -0.02862266 -0.00316561 0.00866282
v -0.03005432 -0.00904351 0.01427813
v -0.03101757 -0.00759060 0.01580721
v -0.03042199 -0.00764240 0.01426506
v -0.02998003 -0.00764240 0.01320647
v -0.02977605 -0.00660513 0.01221323
v -0.03684621 -0.00764240 0.04496416
v -0.03684747 -0.00760144 0.04500772
v -0.03695953 -0.00617986 0.04500772
v -0.03683865 -0.00764240 0.04350478
v -0.03673163 -0.00764240 0.04204106
v -0.03654779 -0.00764240 0.04057733
v -0.03649239 -0.00316561 0.04057733
v -0.03627077 -0.00325596 0.03911796
v -0.03638158 -0.00471851 0.03911796
v -0.03639795 -0.00617986 0.03911796
v -0.03631863 -0.00764240 0.03911796
v -0.03662586 -0.00910495 0.04500772
v -0.03662712 -0.00910495 0.04496416
v -0.03661579 -0.00910495 0.04350478
v -0.03652009 -0.00910495 0.04204106
v -0.03620152 -0.01056509 0.04204106
v -0.03577467 -0.01158791 0.04057733
v -0.03554928 -0.01231919 0.04057733
v -0.03544981 -0.01193608 0.03916587
v -0.03492096 -0.01349019 0.03911796
v -0.03433041 -0.01547319 0.04006764
v -0.03440722 -0.01547319 0.04065139
v -0.03444122 -0.01476842 0.03911796
v -0.03005054 -0.01173730 0.01718816
v -0.03055043 -0.01056509 0.01718816
v -0.03057813 -0.00910495 0.01572879
v -0.02883923 -0.01547319 0.02016790
v -0.02930134 -0.01481058 0.02025067
v -0.02955443 -0.01348658 0.01853427
v -0.02969924 -0.01397088 0.01985424
v -0.02984404 -0.01422990 0.02082570
v -0.02996366 -0.01299625 0.01894377
v -0.03266959 -0.01547319 0.03288840
v -0.03025327 -0.01215534 0.01853427
v -0.02995485 -0.00471851 0.01182552
v -0.03009965 -0.00614371 0.01274035
v -0.03038044 -0.00471851 0.01280134
v -0.02921698 -0.00325596 0.00987823
v -0.02922202 -0.00316561 0.00987823
v -0.03121652 -0.00804238 0.01673075
v -0.03133866 -0.00706775 0.01634739
v -0.03116993 -0.00617986 0.01536286
v -0.03073804 -0.00617986 0.01426506
v -0.03684369 -0.00764240 0.04500772
v -0.03634759 -0.00910495 0.04057733
v -0.03612094 -0.00910495 0.03911796
v -0.03625819 -0.00316561 0.03911796
v -0.03601517 -0.00325596 0.03765422
v -0.03612471 -0.00471851 0.03765422
v -0.03614486 -0.00617986 0.03765422
v -0.03569786 -0.00703401 0.03539765
v -0.03606050 -0.00764240 0.03765422
v -0.03603909 -0.01056509 0.04057733
v -0.03571297 -0.01138793 0.03968864
v -0.03562735 -0.01106988 0.03871282
v -0.03513627 -0.01202764 0.03765422
v -0.03464017 -0.01349019 0.03765422
v -0.03429894 -0.01440940 0.03765422
v -0.03426998 -0.01547319 0.03969735
v -0.03415161 -0.01547319 0.03907875
v -0.03415917 -0.01547319 0.03911796
v -0.03100498 -0.01049281 0.01869546
v -0.03121778 -0.00956396 0.01823368
v -0.03106668 -0.00908929 0.01720559
v -0.02931393 -0.01547319 0.02160549
v -0.02951918 -0.01514429 0.02157499
v -0.02970175 -0.01544307 0.02275556
v -0.03266203 -0.01547319 0.03286226
v -0.03288113 -0.01547319 0.03366382
v -0.03301837 -0.01497683 0.03332838
v -0.03289372 -0.01450578 0.03207812
v -0.03002914 -0.00325596 0.01163384
v -0.02970553 -0.00325596 0.01090197
v -0.03051391 -0.00325596 0.01280134
v -0.03126185 -0.00504740 0.01510584
v -0.03103268 -0.00462334 0.01440011
v -0.02970679 -0.00316561 0.01090197
v -0.03136384 -0.00859053 0.01770657
v -0.03147087 -0.00759060 0.01720559
v -0.03142428 -0.00617986 0.01609472
v -0.03176551 -0.00617986 0.01718816
v -0.03582503 -0.01057594 0.03916587
v -0.03573941 -0.00867968 0.03663920
v -0.03584518 -0.00914230 0.03760631
v -0.03575074 -0.01009404 0.03805937
v -0.03600258 -0.00316561 0.03765422
v -0.03577844 -0.00316561 0.03644752
v -0.03578348 -0.00325596 0.03642138
v -0.03568149 -0.00406675 0.03548477
v -0.03582126 -0.00461972 0.03605981
v -0.03570793 -0.00504138 0.03535409
v -0.03587540 -0.00617986 0.03619050
v -0.03518664 -0.00764240 0.03326740
v -0.03552536 -0.00757012 0.03484003
v -0.03564749 -0.00800864 0.03566338
v -0.03578978 -0.00757012 0.03616872
v -0.03571171 -0.00617986 0.03533665
v -0.03230821 -0.00471851 0.01865189
v -0.03553795 -0.01057594 0.03760631
v -0.03524834 -0.01056509 0.03619050
v -0.03483156 -0.01202764 0.03619050
v -0.03437323 -0.01345525 0.03633862
v -0.03422339 -0.01422147 0.03692237
v -0.03399422 -0.01514068 0.03765422
v -0.03413650 -0.01547319 0.03900469
v -0.03134369 -0.00995670 0.01920950
v -0.03315310 -0.01362392 0.03167734
v -0.03362907 -0.01349019 0.03326740
v -0.03147591 -0.00908929 0.01869546
v -0.02968790 -0.01547319 0.02277299
v -0.03300956 -0.01547319 0.03416916
v -0.03338353 -0.01495154 0.03473113
v -0.03002914 -0.00316561 0.01162948
v -0.03130718 -0.00407277 0.01497515
v -0.03105157 -0.00325596 0.01424328
v -0.03051265 -0.00316561 0.01280134
v -0.03194305 -0.00471851 0.01718816
v -0.03147842 -0.00462334 0.01564602
v -0.03184988 -0.00764240 0.01865189
v -0.03215081 -0.00617986 0.01865189
v -0.03526597 -0.00910495 0.03473113
v -0.03556187 -0.00914230 0.03616872
v -0.03565253 -0.00965311 0.03708355
v -0.03564120 -0.00325596 0.03568952
v -0.03267211 -0.00316561 0.02050334
v -0.03263181 -0.00332825 0.02024196
v -0.03276780 -0.00386315 0.02081263
v -0.03486052 -0.00764240 0.03180803
v -0.03494111 -0.00910495 0.03326740
v -0.03247064 -0.00617986 0.02011562
v -0.03276780 -0.00415710 0.02081263
v -0.03230695 -0.00325596 0.01865189
v -0.03196320 -0.00325596 0.01718816
v -0.03492600 -0.01056509 0.03473113
v -0.03433797 -0.01164695 0.03353749
v -0.03447018 -0.01209149 0.03470063
v -0.03417806 -0.01262158 0.03419094
v -0.03429264 -0.01294445 0.03516676
v -0.03410880 -0.01391908 0.03594654
v -0.03383431 -0.01480576 0.03633862
v -0.03352204 -0.01547319 0.03629069
v -0.03384312 -0.01547319 0.03765422
v -0.03409496 -0.01209149 0.03313671
v -0.03421709 -0.01127227 0.03256603
v -0.03398918 -0.01345525 0.03470063
v -0.03423724 -0.00988321 0.03101953
v -0.03314807 -0.01547319 0.03473113
v -0.03331805 -0.01547319 0.03543685
v -0.03154642 -0.00325596 0.01572879
v -0.03130718 -0.00325596 0.01497515
v -0.03108179 -0.00316561 0.01433041
v -0.03219236 -0.00764240 0.02011562
v -0.03459987 -0.00910495 0.03180803
v -0.03231702 -0.00316561 0.01874338
v -0.03229814 -0.00316561 0.01865189
v -0.03195564 -0.00316561 0.01718816
v -0.03154013 -0.00316561 0.01572444
v -0.03451551 -0.01069641 0.03313671
v -0.03130592 -0.00316561 0.01497515
f 1 2 7
f 1 7 14
f 1 14 22
f 1 22 43
f 1 43 76
f 1 76 123
f 1 123 166
f 1 166 129
f 1 129 128
f 1 128 127
f 1 127 89
f 1 89 88
f 1 88 81
f 1 81 47
f 1 47 26
f 1 26 16
f 1 16 8
f 1 8 3
f 1 3 4
f 1 4 5
f 1 5 11
f 1 11 19
f 1 19 36
f 1 36 63
f 1 63 106
f 1 106 153
f 1 153 155
f 1 155 198
f 1 198 197
f 1 197 235
f 1 235 237
f 1 237 236
f 1 236 281
f 1 281 318
f 1 318 317
f 1 317 324
f 1 324 323
f 1 323 287
f 1 287 245
f 1 245 209
f 1 209 244
f 1 244 286
f 1 286 241
f 1 241 203
f 1 203 161
f 1 161 167
f 1 167 121
f 1 121 74
f 1 74 44
f 1 44 23
f 1 23 15
f 1 15 12
f 1 12 6
f 1 6 2
f 2 6 7
f 3 8 4
f 4 9 10
f 4 10 17
f 4 17 31
f 4 31 54
f 4 54 93
f 4 93 138
f 4 138 140
f 4 140 179
f 4 179 178
f 4 178 220
f 4 220 188
f 4 188 147
f 4 147 100
f 4 100 58
f 4 58 33
f 4 33 18
f 4 18 11
f 4 11 5
f 4 8 9
f 6 12 7
f 7 13 14
f 7 12 15
f 7 15 13
f 8 16 25
f 8 25 46
f 8 46 80
f 8 80 126
f 8 126 171
f 8 171 215
f 8 215 253
f 8 253 289
f 8 289 292
f 8 292 327
f 8 327 335
f 8 335 333
f 8 333 332
f 8 332 331
f 8 331 330
f 8 330 301
f 8 301 263
f 8 263 262
f 8 262 223
f 8 223 183
f 8 183 143
f 8 143 97
f 8 97 96
f 8 96 56
f 8 56 32
f 8 32 17
f 8 17 10
f 8 10 9
f 11 18 19
f 13 20 21
f 13 21 14
f 13 15 20
f 14 21 22
f 15 23 20
f 16 24 25
f 16 26 27
f 16 27 28
f 16 28 29
f 16 29 30
f 16 30 24
f 17 32 31
f 18 33 34
f 18 34 35
f 18 35 36
f 18 36 19
f 20 37 38
f 20 38 39
f 20 39 40
f 20 40 41
f 20 41 21
f 20 23 42
f 20 42 37
f 21 41 43
f 21 43 22
f 23 44 42
f 24 30 45
f 24 45 25
f 25 45 46
f 26 47 48
f 26 48 49
f 26 49 27
f 27 49 28
f 28 30 29
f 28 49 50
f 28 50 51
f 28 51 52
f 28 52 53
f 28 53 30
f 30 53 45
f 31 32 55
f 31 55 54
f 32 56 57
f 32 57 55
f 33 58 34
f 34 59 60
f 34 60 61
f 34 61 35
f 34 58 59
f 35 61 62
f 35 62 63
f 35 63 36
f 37 64 38
f 37 42 64
f 38 65 66
f 38 66 67
f 38 67 39
f 38 64 68
f 38 68 65
f 39 67 40
f 40 67 66
f 40 66 69
f 40 69 70
f 40 70 41
f 41 71 72
f 41 72 73
f 41 73 43
f 41 70 71
f 42 44 74
f 42 74 75
f 42 75 64
f 43 73 76
f 45 53 52
f 45 52 77
f 45 77 78
f 45 78 79
f 45 79 80
f 45 80 46
f 47 81 48
f 48 82 83
f 48 83 84
f 48 84 85
f 48 85 86
f 48 86 87
f 48 87 50
f 48 50 49
f 48 81 88
f 48 88 89
f 48 89 90
f 48 90 82
f 50 87 51
f 51 87 91
f 51 91 52
f 52 91 92
f 52 92 77
f 54 55 93
f 55 94 93
f 55 57 95
f 55 95 94
f 56 96 57
f 57 96 97
f 57 97 98
f 57 98 99
f 57 99 95
f 58 100 101
f 58 101 59
f 59 101 60
f 60 102 103
f 60 103 61
f 60 101 102
f 61 103 62
f 62 103 104
f 62 104 105
f 62 105 106
f 62 106 63
f 64 75 107
f 64 107 68
f 65 68 108
f 65 108 109
f 65 109 110
f 65 110 111
f 65 111 112
f 65 112 66
f 66 112 113
f 66 113 114
f 66 114 69
f 68 107 115
f 68 115 116
f 68 116 117
f 68 117 118
f 68 118 109
f 68 109 108
f 69 114 119
f 69 119 70
f 70 119 71
f 71 119 120
f 71 120 72
f 72 120 73
f 73 120 76
f 74 121 107
f 74 107 75
f 76 122 123
f 76 120 122
f 77 92 124
f 77 124 78
f 78 125 79
f 78 124 125
f 79 125 80
f 80 125 126
f 82 120 83
f 82 90 89
f 82 89 127
f 82 127 128
f 82 128 129
f 82 129 130
f 82 130 120
f 83 120 84
f 84 119 85
f 84 120 119
f 85 119 131
f 85 131 86
f 86 131 87
f 87 131 132
f 87 132 133
f 87 133 134
f 87 134 135
f 87 135 136
f 87 136 91
f 91 136 137
f 91 137 92
f 92 137 124
f 93 94 138
f 94 139 140
f 94 140 138
f 94 95 141
f 94 141 139
f 95 99 142
f 95 142 141
f 97 143 98
f 98 143 144
f 98 144 99
f 99 144 145
f 99 145 146
f 99 146 142
f 100 147 101
f 101 147 148
f 101 148 149
f 101 149 102
f 102 149 103
f 103 149 150
f 103 150 151
f 103 151 104
f 104 151 152
f 104 152 105
f 105 153 106
f 105 152 154
f 105 154 155
f 105 155 153
f 107 121 156
f 107 156 115
f 109 157 110
f 109 118 157
f 110 157 158
f 110 158 159
f 110 159 111
f 111 160 112
f 111 159 160
f 112 160 113
f 113 132 131
f 113 131 114
f 113 160 133
f 113 133 132
f 114 131 119
f 115 156 161
f 115 161 116
f 116 162 163
f 116 163 117
f 116 161 162
f 117 163 118
f 118 163 164
f 118 164 157
f 120 130 129
f 120 129 165
f 120 165 166
f 120 166 122
f 121 167 156
f 122 166 123
f 124 137 168
f 124 168 169
f 124 169 170
f 124 170 125
f 125 170 126
f 126 170 171
f 129 166 165
f 133 160 134
f 134 160 172
f 134 172 173
f 134 173 174
f 134 174 175
f 134 175 135
f 135 175 176
f 135 176 136
f 136 176 137
f 137 176 168
f 139 177 178
f 139 178 179
f 139 179 140
f 139 141 180
f 139 180 177
f 141 142 181
f 141 181 180
f 142 146 182
f 142 182 181
f 143 183 144
f 144 183 223
f 144 223 184
f 144 184 185
f 144 185 145
f 145 185 186
f 145 186 146
f 146 186 187
f 146 187 182
f 147 188 189
f 147 189 148
f 148 189 190
f 148 190 149
f 149 190 191
f 149 191 192
f 149 192 150
f 150 192 193
f 150 193 151
f 151 193 194
f 151 194 152
f 152 194 195
f 152 195 196
f 152 196 154
f 154 197 198
f 154 198 155
f 154 196 199
f 154 199 197
f 156 167 161
f 157 164 200
f 157 200 201
f 157 201 158
f 158 202 159
f 158 201 202
f 159 202 160
f 160 202 172
f 161 203 204
f 161 204 205
f 161 205 162
f 162 205 163
f 163 205 164
f 164 205 206
f 164 206 207
f 164 207 208
f 164 208 209
f 164 209 210
f 164 210 200
f 168 211 169
f 168 176 212
f 168 212 213
f 168 213 211
f 169 211 214
f 169 214 170
f 170 214 171
f 171 214 215
f 172 202 173
f 173 202 216
f 173 216 217
f 173 217 218
f 173 218 174
f 174 219 175
f 174 218 219
f 175 219 212
f 175 212 176
f 177 189 188
f 177 188 220
f 177 220 178
f 177 180 189
f 180 181 191
f 180 191 190
f 180 190 189
f 181 182 221
f 181 221 191
f 182 187 222
f 182 222 221
f 184 223 262
f 184 262 224
f 184 224 185
f 185 224 225
f 185 225 226
f 185 226 186
f 186 226 187
f 187 226 227
f 187 227 228
f 187 228 222
f 191 221 229
f 191 229 192
f 192 229 193
f 193 229 230
f 193 230 194
f 194 230 195
f 195 230 231
f 195 231 232
f 195 232 196
f 196 232 233
f 196 233 234
f 196 234 199
f 197 199 235
f 199 236 237
f 199 237 235
f 199 234 236
f 200 210 201
f 201 210 238
f 201 238 239
f 201 239 240
f 201 240 202
f 202 240 216
f 203 241 204
f 204 206 205
f 204 241 242
f 204 242 206
f 206 242 207
f 207 242 243
f 207 243 244
f 207 244 208
f 208 244 209
f 209 245 246
f 209 246 247
f 209 247 210
f 210 247 238
f 211 248 249
f 211 249 214
f 211 213 248
f 212 219 213
f 213 250 248
f 213 219 251
f 213 251 252
f 213 252 250
f 214 249 215
f 215 249 253
f 216 240 254
f 216 254 255
f 216 255 217
f 217 256 218
f 217 255 257
f 217 257 256
f 218 256 251
f 218 251 219
f 221 222 258
f 221 258 229
f 222 228 259
f 222 259 260
f 222 260 261
f 222 261 258
f 224 262 263
f 224 263 264
f 224 264 265
f 224 265 225
f 225 265 266
f 225 266 267
f 225 267 226
f 226 267 268
f 226 268 227
f 227 269 270
f 227 270 271
f 227 271 272
f 227 272 228
f 227 268 273
f 227 273 274
f 227 274 269
f 228 272 271
f 228 271 259
f 229 258 230
f 230 258 231
f 231 258 261
f 231 261 275
f 231 275 276
f 231 276 232
f 232 276 277
f 232 277 233
f 233 277 278
f 233 278 279
f 233 279 234
f 234 279 280
f 234 280 281
f 234 281 236
f 238 282 239
f 238 247 283
f 238 283 284
f 238 284 282
f 239 282 285
f 239 285 254
f 239 254 240
f 241 286 242
f 242 286 243
f 243 286 244
f 245 287 246
f 246 287 288
f 246 288 284
f 246 284 247
f 247 284 283
f 248 289 249
f 248 250 289
f 249 289 253
f 250 252 290
f 250 290 291
f 250 291 292
f 250 292 289
f 251 256 257
f 251 257 293
f 251 293 294
f 251 294 290
f 251 290 252
f 254 285 295
f 254 295 255
f 255 295 257
f 257 295 296
f 257 296 293
f 259 271 297
f 259 297 298
f 259 298 299
f 259 299 260
f 260 299 261
f 261 299 276
f 261 276 275
f 263 300 264
f 263 301 300
f 264 300 265
f 265 267 266
f 265 300 301
f 265 301 302
f 265 302 267
f 267 273 268
f 267 302 303
f 267 303 273
f 269 304 305
f 269 305 297
f 269 297 271
f 269 271 270
f 269 274 306
f 269 306 296
f 269 296 304
f 273 303 307
f 273 307 274
f 274 307 303
f 274 303 308
f 274 308 309
f 274 309 293
f 274 293 296
f 274 296 306
f 276 299 297
f 276 297 310
f 276 310 277
f 277 310 311
f 277 311 312
f 277 312 313
f 277 313 314
f 277 314 278
f 278 314 279
f 279 314 315
f 279 315 284
f 279 284 288
f 279 288 316
f 279 316 280
f 280 316 317
f 280 317 318
f 280 318 281
f 282 284 313
f 282 313 319
f 282 319 311
f 282 311 320
f 282 320 285
f 284 315 321
f 284 321 313
f 285 320 322
f 285 322 295
f 287 323 288
f 288 323 324
f 288 324 316
f 290 294 293
f 290 293 325
f 290 325 326
f 290 326 291
f 291 326 327
f 291 327 292
f 293 309 325
f 295 328 296
f 295 322 329
f 295 329 328
f 296 328 305
f 296 305 304
f 297 305 310
f 297 299 298
f 301 330 308
f 301 308 302
f 302 308 303
f 305 329 322
f 305 322 310
f 305 328 329
f 308 330 331
f 308 331 332
f 308 332 309
f 309 332 333
f 309 333 325
f 310 322 334
f 310 334 311
f 311 334 320
f 311 319 313
f 311 313 312
f 313 321 314
f 314 321 315
f 316 324 317
f 320 334 322
f 325 333 335
f 325 335 326
f 326 335 327

