# https://github.com/mikedh/trimesh
v -0.03598286 -0.00316561 0.03755141
v -0.03257303 -0.00316561 0.03755141
v -0.03600282 -0.00316561 0.03765638
v -0.03580438 -0.00185049 0.03755141
v -0.02660230 0.00995472 0.03755141
v -0.03071664 -0.00316561 0.05670182
v -0.03625762 -0.00316561 0.03912041
v -0.03606388 -0.00179270 0.03912041
v -0.03581378 -0.00179784 0.03765263
v -0.03577855 -0.00170023 0.03755141
v -0.03133778 0.00995472 0.03755141
v -0.02485511 0.00995472 0.05670182
v -0.03471592 -0.00316561 0.05670182
v -0.03649246 -0.00316561 0.04058068
v -0.03629637 -0.00179270 0.04058068
v -0.03573159 -0.00084875 0.03813627
v -0.03567875 -0.00112744 0.03755141
v -0.03154914 0.00964777 0.03755141
v -0.03135892 0.00995472 0.03765826
v -0.02989354 0.00995472 0.05670182
v -0.03472883 -0.00316561 0.05666245
v -0.03471005 -0.00310653 0.05670182
v -0.03668502 -0.00316561 0.04204283
v -0.03649011 -0.00179270 0.04204283
v -0.03600987 -0.00033118 0.04058068
v -0.03580204 -0.00034916 0.03918226
v -0.03562474 0.00012603 0.03873612
v -0.03551671 -0.00034787 0.03755141
v -0.03158436 0.00959511 0.03755141
v -0.03159493 0.00961053 0.03765826
v -0.03160315 0.00995472 0.03912041
v -0.03002739 0.00995472 0.05635690
v -0.03014951 0.00960796 0.05670182
v -0.03459145 -0.00179270 0.05666245
v -0.03515858 -0.00316561 0.05529028
v -0.03457854 -0.00179270 0.05670182
v -0.03681301 -0.00316561 0.04350498
v -0.03661340 -0.00179270 0.04350498
v -0.03632338 -0.00033118 0.04350498
v -0.03619891 -0.00033118 0.04204283
v -0.03571045 0.00048563 0.03971089
v -0.03516680 0.00113163 0.03755141
v -0.03233467 0.00834036 0.03755141
v -0.03237342 0.00832752 0.03771261
v -0.03244621 0.00861135 0.03912041
v -0.03171470 0.00978904 0.03912041
v -0.03172057 0.00995472 0.04006330
v -0.03033973 0.00995472 0.05546836
v -0.03015655 0.00961823 0.05666245
v -0.03114404 0.00891572 0.05520030
v -0.03091273 0.00843155 0.05670182
v -0.03457384 -0.00175289 0.05670182
v -0.03503881 -0.00179270 0.05520030
v -0.03518559 -0.00316561 0.05520030
v -0.03681536 -0.00316561 0.04359496
v -0.03665685 -0.00179270 0.04496713
v -0.03594176 0.00113163 0.04350498
v -0.03582552 0.00117530 0.04217405
v -0.03635978 -0.00033118 0.04496713
v -0.03576916 0.00070268 0.04058068
v -0.03546857 0.00103659 0.03918226
v -0.03518559 0.00113163 0.03765826
v -0.03556368 0.00143344 0.04058068
v -0.03500829 0.00259316 0.03912041
v -0.03477228 0.00259316 0.03765826
v -0.03475114 0.00260086 0.03755141
v -0.03272332 0.00763272 0.03755141
v -0.03279025 0.00776628 0.03823749
v -0.03285248 0.00787930 0.03912041
v -0.03294172 0.00803984 0.04058068
v -0.03253311 0.00877060 0.04058068
v -0.03177458 0.00995472 0.04053007
v -0.03043014 0.00995472 0.05520780
v -0.03127673 0.00913534 0.05439425
v -0.03157849 0.00818368 0.05520030
v -0.03140824 0.00789086 0.05624068
v -0.03093152 0.00840201 0.05670182
v -0.03437071 -0.00047245 0.05670182
v -0.03437892 -0.00044291 0.05666057
v -0.03479811 -0.00033118 0.05520030
v -0.03517737 -0.00033118 0.05373815
v -0.03547209 -0.00192113 0.05360318
v -0.03568932 -0.00249521 0.05302582
v -0.03551436 -0.00316561 0.05395747
v -0.03684941 -0.00316561 0.04496713
v -0.03684589 -0.00316561 0.04505711
v -0.03658992 -0.00179270 0.04642928
v -0.03629519 -0.00033118 0.04642928
v -0.03570693 0.00192404 0.04350498
v -0.03568814 0.00187138 0.04274766
v -0.03597816 0.00113163 0.04496713
v -0.03563765 0.00169158 0.04177289
v -0.03587718 0.00126135 0.04651363
v -0.03521729 0.00259316 0.04058068
v -0.03447755 0.00416513 0.03905854
v -0.03438597 0.00378883 0.03765826
v -0.03437658 0.00376315 0.03755141
v -0.03302979 0.00700213 0.03755141
v -0.03303918 0.00704451 0.03771261
v -0.03329515 0.00697773 0.03912041
v -0.03348067 0.00697773 0.04058068
v -0.03361453 0.00697773 0.04204283
v -0.03300982 0.00816698 0.04204283
v -0.03260473 0.00889774 0.04204283
v -0.03186734 0.00995472 0.04145235
v -0.03082936 0.00995472 0.05393872
v -0.03092682 0.00986096 0.05383938
v -0.03141528 0.00934468 0.05341948
v -0.03175579 0.00856511 0.05383938
v -0.03233115 0.00685829 0.05510095
v -0.03171000 0.00705607 0.05670182
v -0.03435896 -0.00040695 0.05670182
v -0.03430143 0.00072066 0.05617132
v -0.03444938 0.00117658 0.05525279
v -0.03484507 0.00113163 0.05373815
v -0.03516211 0.00113163 0.05227600
v -0.03551201 -0.00037613 0.05223101
v -0.03571985 -0.00089370 0.05171551
v -0.03562004 -0.00152043 0.05269028
v -0.03577268 -0.00192113 0.05223101
v -0.03617073 -0.00316561 0.05090946
v -0.03588423 -0.00316561 0.05236598
v -0.03571515 -0.00316561 0.05313079
v -0.03554019 -0.00316561 0.05385625
v -0.03677544 -0.00316561 0.04642928
v -0.03644197 -0.00179270 0.04788955
v -0.03615899 -0.00033118 0.04788955
v -0.03583844 0.00096467 0.04788955
v -0.03546152 0.00265480 0.04350498
v -0.03572454 0.00197798 0.04496713
v -0.03544508 0.00245188 0.04217405
v -0.03487795 0.00405468 0.04204283
v -0.03571163 0.00194330 0.04608061
v -0.03567875 0.00183671 0.04705537
v -0.03472531 0.00405468 0.04058068
v -0.03420280 0.00472636 0.03852993
v -0.03427442 0.00490745 0.03950469
v -0.03412295 0.00448620 0.03755141
v -0.03370377 0.00551620 0.03755141
v -0.03372255 0.00551620 0.03765826
v -0.03397970 0.00544300 0.03905854
v -0.03403137 0.00579875 0.04058068
v -0.03409712 0.00595800 0.04204283
v -0.03413117 0.00604276 0.04350498
v -0.03368498 0.00697773 0.04350498
v -0.03304740 0.00824147 0.04350498
v -0.03264818 0.00897223 0.04350498
v -0.03196010 0.00990206 0.04204283
v -0.03192488 0.00995472 0.04204283
v -0.03095265 0.00995472 0.05349446
v -0.03117457 0.00995472 0.05267715
v -0.03155031 0.00955273 0.05227600
v -0.03231353 0.00829541 0.05213541
v -0.03251432 0.00722303 0.05373815
v -0.03265639 0.00750429 0.05252719
v -0.03278321 0.00629063 0.05454795
v -0.03264700 0.00600038 0.05552272
v -0.03248848 0.00551749 0.05670182
v -0.03403724 0.00107512 0.05670182
v -0.03418166 0.00169415 0.05577391
v -0.03402784 0.00117658 0.05666057
v -0.03430847 0.00215264 0.05479915
v -0.03442355 0.00262141 0.05372315
v -0.03561886 0.00008108 0.05114752
v -0.03474057 0.00259316 0.05227600
v -0.03546387 0.00101861 0.05072200
v -0.03569988 0.00045610 0.05017275
v -0.03578325 -0.00037613 0.05072200
v -0.03602396 -0.00179270 0.05081385
v -0.03618835 -0.00316561 0.05081385
v -0.03676604 -0.00316561 0.04651926
v -0.03661457 -0.00316561 0.04788955
v -0.03625292 -0.00179270 0.04935170
v -0.03598168 -0.00033118 0.04935170
v -0.03575507 0.00066030 0.04935170
v -0.03555898 0.00139234 0.04935170
v -0.03564000 0.00169672 0.04788955
v -0.03496249 0.00405468 0.04350498
v -0.03547796 0.00271003 0.04496713
v -0.03441180 0.00522595 0.04204283
v -0.03434018 0.00506799 0.04058068
v -0.03549910 0.00249555 0.04651363
v -0.03495662 0.00405468 0.04642928
v -0.03535467 0.00259316 0.04788955
v -0.03412882 0.00451959 0.03765826
v -0.03445525 0.00531072 0.04350498
v -0.03446816 0.00533640 0.04496713
v -0.03414174 0.00606845 0.04496713
v -0.03371081 0.00697773 0.04496713
v -0.03306149 0.00826587 0.04496713
v -0.03204934 0.00990206 0.04350498
v -0.03266109 0.00899663 0.04496713
v -0.03201412 0.00995472 0.04350498
v -0.03127203 0.00995472 0.05227600
v -0.03140002 0.00995472 0.05165365
v -0.03155853 0.00995472 0.05081385
v -0.03168652 0.00976207 0.05081385
v -0.03241803 0.00855355 0.05081385
v -0.03276325 0.00771234 0.05155243
v -0.03288419 0.00649227 0.05373815
v -0.03299104 0.00700213 0.05213541
v -0.03298047 0.00551364 0.05510095
v -0.03332333 0.00551620 0.05373815
v -0.03286775 0.00502560 0.05625192
v -0.03307675 0.00412788 0.05670182
v -0.03401258 0.00117530 0.05670182
v -0.03404663 0.00262141 0.05525279
v -0.03362745 0.00259316 0.05666245
v -0.03400201 0.00121640 0.05670182
v -0.03361335 0.00259444 0.05670182
v -0.03416405 0.00312742 0.05420116
v -0.03427090 0.00345106 0.05322640
v -0.03436483 0.00371434 0.05227600
v -0.03499185 0.00259316 0.05081385
v -0.03641731 -0.00316561 0.04935170
v -0.03660283 -0.00316561 0.04797953
v -0.03519263 0.00259316 0.04935170
v -0.03499068 0.00405468 0.04496713
v -0.03484507 0.00405468 0.04788955
v -0.03445407 0.00530301 0.04642928
v -0.03440006 0.00519642 0.04788955
v -0.03412648 0.00603506 0.04642928
v -0.03367911 0.00697773 0.04642928
v -0.03304505 0.00823890 0.04642928
v -0.03264700 0.00896966 0.04642928
v -0.03207165 0.00990206 0.04496713
v -0.03204699 0.00990206 0.04642928
v -0.03203642 0.00995472 0.04496713
v -0.03159258 0.00995472 0.05060015
v -0.03176049 0.00995472 0.04937420
v -0.03252254 0.00874877 0.04935170
v -0.03292881 0.00801672 0.04935170
v -0.03282313 0.00782279 0.05081385
v -0.03324232 0.00697773 0.05081385
v -0.03364975 0.00551620 0.05227600
v -0.03355934 0.00405468 0.05520030
v -0.03409477 0.00444510 0.05227600
v -0.03395505 0.00398404 0.05372315
v -0.03308497 0.00410605 0.05670182
v -0.03316834 0.00386846 0.05670182
v -0.03360161 0.00263169 0.05670182
v -0.03418871 0.00469169 0.05130311
v -0.03445642 0.00414458 0.05081572
v -0.03468186 0.00405468 0.04935170
v -0.03431787 0.00501662 0.04935170
v -0.03408538 0.00592718 0.04788955
v -0.03401375 0.00574738 0.04935170
v -0.03359339 0.00697773 0.04788955
v -0.03300043 0.00815671 0.04788955
v -0.03260121 0.00888747 0.04788955
v -0.03195658 0.00990206 0.04788955
v -0.03203525 0.00995472 0.04505148
v -0.03200707 0.00995472 0.04651926
v -0.03201177 0.00995472 0.04642928
v -0.03177106 0.00995472 0.04927859
v -0.03345015 0.00697773 0.04935170
v -0.03395269 0.00541988 0.05081572
v -0.03425681 0.00486892 0.05032834
v -0.03185678 0.00995472 0.04850066
v -0.03191431 0.00995472 0.04795703
v -0.03192135 0.00995472 0.04788955
f 1 2 6
f 1 6 13
f 1 13 21
f 1 21 35
f 1 35 54
f 1 54 84
f 1 84 124
f 1 124 123
f 1 123 122
f 1 122 121
f 1 121 170
f 1 170 215
f 1 215 216
f 1 216 172
f 1 172 171
f 1 171 125
f 1 125 86
f 1 86 85
f 1 85 55
f 1 55 37
f 1 37 23
f 1 23 14
f 1 14 7
f 1 7 3
f 1 3 4
f 1 4 10
f 1 10 17
f 1 17 28
f 1 28 42
f 1 42 66
f 1 66 97
f 1 97 138
f 1 138 139
f 1 139 98
f 1 98 67
f 1 67 43
f 1 43 29
f 1 29 18
f 1 18 11
f 1 11 5
f 1 5 2
f 2 5 6
f 3 7 4
f 4 7 8
f 4 8 9
f 4 9 10
f 5 11 19
f 5 19 31
f 5 31 47
f 5 47 72
f 5 72 105
f 5 105 149
f 5 149 193
f 5 193 228
f 5 228 252
f 5 252 254
f 5 254 253
f 5 253 261
f 5 261 260
f 5 260 259
f 5 259 255
f 5 255 230
f 5 230 229
f 5 229 196
f 5 196 195
f 5 195 194
f 5 194 151
f 5 151 150
f 5 150 106
f 5 106 73
f 5 73 48
f 5 48 32
f 5 32 20
f 5 20 12
f 5 12 6
f 6 12 20
f 6 20 33
f 6 33 51
f 6 51 77
f 6 77 111
f 6 111 158
f 6 158 205
f 6 205 239
f 6 239 240
f 6 240 241
f 6 241 210
f 6 210 209
f 6 209 206
f 6 206 159
f 6 159 112
f 6 112 78
f 6 78 52
f 6 52 36
f 6 36 22
f 6 22 13
f 7 14 8
f 8 14 15
f 8 15 16
f 8 16 9
f 9 17 10
f 9 16 17
f 11 18 19
f 13 22 21
f 14 23 24
f 14 24 15
f 15 24 25
f 15 25 26
f 15 26 16
f 16 26 27
f 16 27 28
f 16 28 17
f 18 29 30
f 18 30 19
f 19 30 31
f 20 32 33
f 21 22 34
f 21 34 35
f 22 36 34
f 23 37 24
f 24 37 38
f 24 38 39
f 24 39 40
f 24 40 25
f 25 41 26
f 25 40 41
f 26 41 27
f 27 41 42
f 27 42 28
f 29 43 44
f 29 44 30
f 30 44 45
f 30 45 46
f 30 46 31
f 31 46 47
f 32 48 49
f 32 49 33
f 33 49 50
f 33 50 51
f 34 36 52
f 34 52 53
f 34 53 35
f 35 53 54
f 37 55 56
f 37 56 38
f 38 56 39
f 39 57 58
f 39 58 40
f 39 56 59
f 39 59 91
f 39 91 57
f 40 58 60
f 40 60 41
f 41 61 62
f 41 62 42
f 41 60 63
f 41 63 64
f 41 64 61
f 42 62 65
f 42 65 66
f 43 67 68
f 43 68 44
f 44 68 45
f 45 68 69
f 45 69 70
f 45 70 71
f 45 71 46
f 46 71 47
f 47 71 72
f 48 73 74
f 48 74 49
f 49 74 50
f 50 74 75
f 50 75 76
f 50 76 77
f 50 77 51
f 52 78 79
f 52 79 53
f 53 79 80
f 53 80 81
f 53 81 82
f 53 82 83
f 53 83 54
f 54 83 84
f 55 85 56
f 56 85 86
f 56 86 87
f 56 87 88
f 56 88 59
f 57 89 90
f 57 90 58
f 57 91 89
f 58 90 92
f 58 92 60
f 59 88 93
f 59 93 91
f 60 92 63
f 61 64 65
f 61 65 62
f 63 92 94
f 63 94 64
f 64 94 95
f 64 95 96
f 64 96 65
f 65 96 97
f 65 97 66
f 67 98 68
f 68 98 99
f 68 99 100
f 68 100 69
f 69 100 101
f 69 101 70
f 70 102 103
f 70 103 104
f 70 104 71
f 70 101 102
f 71 104 72
f 72 104 105
f 73 106 74
f 74 106 107
f 74 107 108
f 74 108 109
f 74 109 75
f 75 109 110
f 75 110 76
f 76 110 111
f 76 111 77
f 78 112 79
f 79 113 80
f 79 112 113
f 80 113 114
f 80 114 81
f 81 114 115
f 81 115 116
f 81 116 117
f 81 117 118
f 81 118 119
f 81 119 82
f 82 119 83
f 83 119 120
f 83 120 121
f 83 121 122
f 83 122 123
f 83 123 124
f 83 124 84
f 86 125 87
f 87 125 126
f 87 126 127
f 87 127 88
f 88 127 128
f 88 128 93
f 89 129 90
f 89 91 130
f 89 130 129
f 90 131 92
f 90 129 132
f 90 132 131
f 91 93 133
f 91 133 130
f 92 131 94
f 93 134 133
f 93 128 134
f 94 131 135
f 94 135 95
f 95 136 96
f 95 135 137
f 95 137 136
f 96 138 97
f 96 136 138
f 98 139 99
f 99 139 140
f 99 140 100
f 100 140 141
f 100 141 142
f 100 142 101
f 101 142 143
f 101 143 102
f 102 143 144
f 102 144 145
f 102 145 146
f 102 146 103
f 103 146 147
f 103 147 104
f 104 147 148
f 104 148 105
f 105 148 149
f 106 150 107
f 107 150 108
f 108 150 151
f 108 151 152
f 108 152 153
f 108 153 109
f 109 154 110
f 109 153 155
f 109 155 154
f 110 154 156
f 110 156 157
f 110 157 111
f 111 157 158
f 112 159 113
f 113 160 114
f 113 159 161
f 113 161 160
f 114 160 115
f 115 160 162
f 115 162 163
f 115 163 116
f 116 164 117
f 116 163 165
f 116 165 166
f 116 166 167
f 116 167 164
f 117 164 118
f 118 120 119
f 118 164 168
f 118 168 169
f 118 169 120
f 120 169 121
f 121 169 170
f 125 171 126
f 126 172 173
f 126 173 174
f 126 174 127
f 126 171 172
f 127 174 175
f 127 175 128
f 128 175 176
f 128 176 177
f 128 177 134
f 129 178 132
f 129 130 179
f 129 179 178
f 130 133 179
f 131 132 135
f 132 178 180
f 132 180 181
f 132 181 135
f 133 134 182
f 133 182 183
f 133 183 179
f 134 177 184
f 134 184 182
f 135 181 137
f 136 137 141
f 136 141 140
f 136 140 139
f 136 139 185
f 136 185 138
f 137 181 142
f 137 142 141
f 138 185 139
f 142 181 180
f 142 180 143
f 143 180 186
f 143 186 144
f 144 186 187
f 144 187 188
f 144 188 189
f 144 189 145
f 145 189 190
f 145 190 146
f 146 190 147
f 147 191 148
f 147 190 192
f 147 192 191
f 148 191 193
f 148 193 149
f 151 194 152
f 152 194 195
f 152 195 196
f 152 196 197
f 152 197 198
f 152 198 153
f 153 198 199
f 153 199 155
f 154 200 156
f 154 155 200
f 155 199 201
f 155 201 200
f 156 202 157
f 156 200 203
f 156 203 202
f 157 202 204
f 157 204 158
f 158 204 205
f 159 206 161
f 160 207 162
f 160 161 208
f 160 208 207
f 161 206 209
f 161 209 210
f 161 210 208
f 162 211 163
f 162 207 211
f 163 212 165
f 163 211 212
f 164 167 168
f 165 213 214
f 165 214 166
f 165 212 213
f 166 176 167
f 166 214 176
f 167 176 175
f 167 175 174
f 167 174 168
f 168 174 173
f 168 173 169
f 169 173 215
f 169 215 170
f 172 216 173
f 173 216 215
f 176 214 217
f 176 217 177
f 177 217 184
f 178 186 180
f 178 179 218
f 178 218 186
f 179 183 218
f 182 184 219
f 182 219 183
f 183 220 218
f 183 219 221
f 183 221 220
f 184 217 219
f 186 218 187
f 187 218 220
f 187 220 188
f 188 220 222
f 188 222 189
f 189 222 223
f 189 223 224
f 189 224 190
f 190 224 225
f 190 225 192
f 191 192 226
f 191 226 228
f 191 228 193
f 192 225 227
f 192 227 226
f 196 229 197
f 197 229 230
f 197 230 231
f 197 231 198
f 198 231 232
f 198 232 233
f 198 233 199
f 199 233 234
f 199 234 201
f 200 201 235
f 200 235 203
f 201 234 235
f 202 203 236
f 202 236 204
f 203 235 237
f 203 237 238
f 203 238 236
f 204 236 205
f 205 236 239
f 207 236 211
f 207 208 240
f 207 240 239
f 207 239 236
f 208 210 241
f 208 241 240
f 211 236 238
f 211 238 212
f 212 238 237
f 212 237 213
f 213 237 242
f 213 242 214
f 214 242 243
f 214 243 217
f 217 244 219
f 217 243 244
f 219 244 245
f 219 245 221
f 220 221 246
f 220 246 222
f 221 245 247
f 221 247 246
f 222 246 248
f 222 248 223
f 223 248 224
f 224 248 249
f 224 249 225
f 225 249 250
f 225 250 251
f 225 251 227
f 226 227 252
f 226 252 228
f 227 251 253
f 227 253 254
f 227 254 252
f 230 255 250
f 230 250 231
f 231 250 232
f 232 250 249
f 232 249 248
f 232 248 256
f 232 256 233
f 233 256 234
f 234 257 235
f 234 256 247
f 234 247 257
f 235 257 242
f 235 242 237
f 242 257 258
f 242 258 243
f 243 258 244
f 244 258 245
f 245 258 247
f 246 247 256
f 246 256 248
f 247 258 257
f 250 255 259
f 250 259 251
f 251 259 260
f 251 260 261
f 251 261 253

