# https://github.com/mikedh/trimesh
v -0.00695584 0.01618991 -0.00246354
v -0.00717646 0.01613284 -0.00246354
v -0.00695584 0.01254978 -0.00246354
v -0.00695584 0.02042145 -0.02827131
v -0.01010169 0.02000642 -0.02827131
v -0.01141927 0.01983177 -0.02827131
v -0.01166440 0.01979891 -0.02827131
v -0.01240797 0.01961388 -0.02827131
v -0.00863907 0.01575067 -0.00246354
v -0.00695584 0.01248926 -0.00328203
v -0.01924508 0.00275516 -0.00246354
v -0.01922057 0.00275516 -0.00254438
v -0.01901425 0.00275516 -0.00328203
v -0.01874665 0.00275516 -0.00474471
v -0.00695584 0.01687816 -0.02827131
v -0.01289823 0.01947554 -0.02827131
v -0.01302488 0.01437417 -0.00246354
v -0.00695584 0.01242355 -0.00470176
v -0.01865472 0.00275516 -0.00620739
v -0.02267079 0.00275516 -0.00246354
v -0.02353692 0.00275516 -0.02813490
v -0.02359616 0.00275516 -0.02827131
v -0.00695584 0.01589939 -0.02521207
v -0.01333946 0.01932163 -0.02827131
v -0.01421785 0.01385885 -0.00246354
v -0.01450179 0.01885300 -0.02827131
v -0.00695584 0.01243219 -0.00620739
v -0.01872826 0.00275516 -0.00767006
v -0.00695584 0.01246332 -0.00724313
v -0.02266057 0.00279147 -0.00246354
v -0.02726291 0.00547012 -0.02827131
v -0.02761427 0.00405558 -0.02827131
v -0.02782467 0.00275516 -0.02827131
v -0.00695584 0.01543422 -0.02374940
v -0.02234395 0.00275516 -0.02494177
v -0.01494916 0.01330202 -0.00246354
v -0.01591538 0.01821835 -0.02827131
v -0.01601344 0.01816993 -0.02827131
v -0.01725952 0.01750589 -0.02827131
v -0.01734736 0.01745747 -0.02827131
v -0.01832584 0.01681072 -0.02827131
v -0.01843206 0.01673463 -0.02827131
v -0.00695584 0.01262587 -0.00913274
v -0.00695584 0.01248061 -0.00757154
v -0.01891620 0.00275516 -0.00914537
v -0.02249715 0.00323417 -0.00246354
v -0.02626196 0.00844275 -0.02827131
v -0.02671545 0.00713196 -0.02827131
v -0.02679103 0.00690542 -0.02827131
v -0.00695584 0.01511257 -0.02266818
v -0.02199464 0.00275516 -0.02394391
v -0.01821144 0.00988151 -0.00246354
v -0.01853624 0.01664644 -0.02827131
v -0.01916950 0.01610345 -0.02827131
v -0.02231330 0.01337465 -0.02827131
v -0.02326114 0.01254114 -0.02827131
v -0.02329792 0.01250655 -0.02827131
v -0.02451744 0.01133410 -0.02827131
v -0.02460120 0.01125283 -0.02827131
v -0.00695584 0.01280053 -0.01059289
v -0.00695584 0.01300631 -0.01206567
v -0.02045644 0.00275516 -0.01790122
v -0.02218665 0.00404693 -0.00246354
v -0.02565730 0.00982963 -0.02827131
v -0.00695584 0.01508317 -0.02255955
v -0.02192927 0.00275516 -0.02374940
v -0.01851377 0.00955813 -0.00246354
v -0.02468291 0.01115080 -0.02827131
v -0.01984565 0.00802772 -0.00246354
v -0.01924304 0.00875921 -0.00246354
v -0.00695584 0.01327262 -0.01363192
v -0.02048708 0.00275516 -0.01806289
v -0.02073834 0.00275516 -0.01936389
v -0.02146352 0.00552546 -0.00246354
v -0.02564504 0.00984865 -0.02827131
v -0.02082822 0.00660972 -0.00246354
v -0.00695584 0.01491716 -0.02193810
v -0.02151867 0.00275516 -0.02245092
v -0.02012959 0.00763518 -0.00246354
v -0.00695584 0.01376719 -0.01645875
v -0.02096917 0.00275516 -0.02046027
v -0.00695584 0.01463702 -0.02082657
v -0.02118366 0.00275516 -0.02128129
v -0.00695584 0.01403177 -0.01790122
v -0.00695584 0.01431364 -0.01936389
f 1 2 9
f 1 9 17
f 1 17 25
f 1 25 36
f 1 36 52
f 1 52 67
f 1 67 70
f 1 70 69
f 1 69 79
f 1 79 76
f 1 76 74
f 1 74 63
f 1 63 46
f 1 46 30
f 1 30 20
f 1 20 11
f 1 11 3
f 1 3 10
f 1 10 18
f 1 18 27
f 1 27 29
f 1 29 44
f 1 44 43
f 1 43 60
f 1 60 61
f 1 61 71
f 1 71 80
f 1 80 84
f 1 84 85
f 1 85 82
f 1 82 77
f 1 77 65
f 1 65 50
f 1 50 34
f 1 34 23
f 1 23 15
f 1 15 4
f 1 4 5
f 1 5 6
f 1 6 7
f 1 7 8
f 1 8 2
f 2 8 9
f 3 11 12
f 3 12 13
f 3 13 14
f 3 14 10
f 4 15 22
f 4 22 33
f 4 33 32
f 4 32 31
f 4 31 49
f 4 49 48
f 4 48 47
f 4 47 64
f 4 64 75
f 4 75 68
f 4 68 59
f 4 59 58
f 4 58 57
f 4 57 56
f 4 56 55
f 4 55 54
f 4 54 53
f 4 53 42
f 4 42 41
f 4 41 40
f 4 40 39
f 4 39 38
f 4 38 37
f 4 37 26
f 4 26 24
f 4 24 16
f 4 16 8
f 4 8 7
f 4 7 6
f 4 6 5
f 8 16 9
f 9 16 17
f 10 14 19
f 10 19 18
f 11 20 33
f 11 33 22
f 11 22 21
f 11 21 35
f 11 35 51
f 11 51 66
f 11 66 78
f 11 78 83
f 11 83 81
f 11 81 73
f 11 73 72
f 11 72 62
f 11 62 45
f 11 45 28
f 11 28 19
f 11 19 14
f 11 14 13
f 11 13 12
f 15 21 22
f 15 23 21
f 16 24 17
f 17 24 26
f 17 26 25
f 18 19 27
f 19 28 29
f 19 29 27
f 20 30 31
f 20 31 32
f 20 32 33
f 21 23 34
f 21 34 35
f 25 26 37
f 25 37 38
f 25 38 39
f 25 39 40
f 25 40 41
f 25 41 42
f 25 42 36
f 28 43 44
f 28 44 29
f 28 45 43
f 30 46 47
f 30 47 48
f 30 48 49
f 30 49 31
f 34 50 35
f 35 50 51
f 36 42 53
f 36 53 54
f 36 54 55
f 36 55 56
f 36 56 57
f 36 57 58
f 36 58 59
f 36 59 52
f 43 45 60
f 45 61 60
f 45 62 61
f 46 63 47
f 47 63 64
f 50 65 66
f 50 66 51
f 52 59 67
f 59 68 69
f 59 69 70
f 59 70 67
f 61 62 72
f 61 72 73
f 61 73 71
f 63 74 64
f 64 74 76
f 64 76 75
f 65 77 66
f 66 77 78
f 68 75 69
f 69 75 79
f 71 73 80
f 73 81 80
f 75 76 79
f 77 82 78
f 78 82 83
f 80 81 84
f 81 85 84
f 81 83 85
f 82 85 83

