# https://github.com/mikedh/trimesh
v -0.00404590 0.02175209 0.04310776
v -0.00404590 0.01838324 0.04310776
v -0.00404590 0.02179165 0.04204164
v -0.00419634 0.02174743 0.04310776
v -0.02733474 0.00995472 0.04310776
v -0.01488065 0.00995472 0.00679257
v -0.01444026 0.00995472 0.00550341
v -0.00404590 0.01426847 0.00841629
v -0.00404590 0.02179747 0.04183644
v -0.00425378 0.02178467 0.04204164
v -0.00425378 0.02174510 0.04310776
v -0.03199032 0.00995472 0.04310776
v -0.01442932 0.00995472 0.00545434
v -0.00404590 0.01315949 -0.00245908
v -0.00404590 0.01377740 0.00403135
v -0.00404590 0.01392635 0.00549448
v -0.00404590 0.02182889 0.04057850
v -0.00425378 0.02182191 0.04057850
v -0.00571447 0.02172067 0.04204164
v -0.00571447 0.02167645 0.04310776
v -0.03141863 0.01079140 0.04310776
v -0.03138580 0.01074718 0.04204164
v -0.03193014 0.00995472 0.04212193
v -0.01416946 0.00995472 0.00423654
v -0.01330235 0.00995472 -0.00035360
v -0.01305343 0.00995472 -0.00175874
v -0.01303155 0.00995472 -0.00192825
v -0.01296590 0.00995472 -0.00244570
v -0.01296590 0.00995472 -0.00245908
v -0.00404590 0.01702523 -0.00245908
v -0.01412569 0.00995472 0.00403135
v -0.00404590 0.02183122 0.04037331
v -0.00404590 0.02184285 0.03911537
v -0.00425378 0.02183471 0.03911537
v -0.00571447 0.02175558 0.04057850
v -0.00717788 0.02163805 0.04204164
v -0.00677852 0.02161594 0.04310776
v -0.03081958 0.01152219 0.04310776
v -0.03192467 0.00995472 0.04204164
v -0.03078402 0.01147797 0.04204164
v -0.03133383 0.01068085 0.04097105
v -0.01813846 0.00995472 -0.00245908
v -0.00425378 0.01701126 -0.00245908
v -0.00425378 0.02111555 0.02888234
v -0.00404590 0.02110159 0.02867715
v -0.00404590 0.02184169 0.03891017
v -0.00425378 0.02182307 0.03765223
v -0.00571447 0.02176256 0.03911537
v -0.00717788 0.02166946 0.04057850
v -0.00863856 0.02153331 0.04204164
v -0.00863856 0.02149375 0.04310776
v -0.00824194 0.02152168 0.04310776
v -0.00717788 0.02159266 0.04310776
v -0.03008924 0.01237284 0.04310776
v -0.03005368 0.01233444 0.04204164
v -0.03186722 0.00995472 0.04144835
v -0.02997162 0.01224483 0.04057850
v -0.03081138 0.01124640 0.04052051
v -0.03128186 0.01061219 0.03999860
v -0.03172225 0.01003617 0.04052051
v -0.01973865 0.00995472 0.00110508
v -0.02541999 0.01204934 0.01799358
v -0.02381707 0.01337127 0.01719064
v -0.01494903 0.01330262 -0.00245908
v -0.00863856 0.01575216 -0.00245908
v -0.01676258 0.01652601 0.01190908
v -0.01595018 0.01685067 0.01280124
v -0.01302608 0.02006592 0.02888234
v -0.01156266 0.02035451 0.02888234
v -0.01010198 0.02056979 0.02888234
v -0.00863856 0.02054070 0.02741921
v -0.00717788 0.02082813 0.02846749
v -0.00639831 0.02086420 0.02817754
v -0.00583209 0.02098522 0.02875298
v -0.00542452 0.02090260 0.02789651
v -0.00571447 0.02119003 0.03034548
v -0.00425378 0.02129476 0.03034548
v -0.00404590 0.02112719 0.02888234
v -0.00404590 0.02183122 0.03765223
v -0.00404590 0.02182540 0.03744704
v -0.00425378 0.02177769 0.03619356
v -0.00571447 0.02174394 0.03765223
v -0.00717788 0.02166946 0.03911537
v -0.00863856 0.02156241 0.04057850
v -0.01010198 0.02140065 0.04204164
v -0.01010198 0.02136807 0.04310776
v -0.00970262 0.02140415 0.04310776
v -0.02936984 0.01310363 0.04310776
v -0.02933155 0.01306523 0.04204164
v -0.02925222 0.01297679 0.04057850
v -0.03177422 0.00995472 0.04052497
v -0.02989777 0.01216338 0.03939193
v -0.02983212 0.01209123 0.03841949
v -0.03121621 0.01052143 0.03911537
v -0.03160189 0.00995472 0.03911537
v -0.03171951 0.00995472 0.04006105
v -0.02707761 0.00995472 0.01905971
v -0.02692717 0.01065874 0.01934966
v -0.02561967 0.01226927 0.01896603
v -0.02397025 0.01354466 0.01798020
v -0.02274207 0.01372620 0.01572751
v -0.01421869 0.01386002 -0.00245908
v -0.01302608 0.01437553 -0.00245908
v -0.01769260 0.01620483 0.01280124
v -0.01797434 0.01639917 0.01426437
v -0.01695952 0.01660863 0.01280124
v -0.01448676 0.01990882 0.03034548
v -0.01302608 0.02027771 0.03034548
v -0.01156266 0.02054768 0.03034548
v -0.01004727 0.02076412 0.03039454
v -0.00899690 0.02082929 0.02994401
v -0.00856197 0.02075481 0.02897156
v -0.00717788 0.02092355 0.02919906
v -0.00717788 0.02105737 0.03034548
v -0.00717788 0.02121214 0.03180415
v -0.00571447 0.02134014 0.03180415
v -0.00404590 0.02130523 0.03034548
v -0.00404590 0.02128080 0.03014028
v -0.00425378 0.02144488 0.03180415
v -0.00404590 0.02143440 0.03159896
v -0.00404590 0.02178583 0.03619356
v -0.00404590 0.02177420 0.03598836
v -0.00425378 0.02169274 0.03473042
v -0.00571447 0.02168692 0.03619356
v -0.00717788 0.02164038 0.03765223
v -0.00863856 0.02155310 0.03911537
v -0.01010198 0.02142160 0.04057850
v -0.01156266 0.02123076 0.04204164
v -0.01156266 0.02120167 0.04310776
v -0.01116603 0.02124705 0.04310776
v -0.02863950 0.01379369 0.04310776
v -0.02860120 0.01375878 0.04204164
v -0.02852188 0.01369012 0.04057850
v -0.02844529 0.01362147 0.03939193
v -0.02913734 0.01285926 0.03890571
v -0.02975826 0.01200861 0.03765223
v -0.03036004 0.01127665 0.03765223
v -0.02836870 0.01355397 0.03841949
v -0.02830305 0.01349113 0.03765223
v -0.02816628 0.01336197 0.03619356
v -0.02888295 0.01263118 0.03619356
v -0.03109038 0.01034338 0.03765223
v -0.03135845 0.00995472 0.03765223
v -0.02746603 0.00995472 0.02011245
v -0.02785992 0.00995472 0.02167819
v -0.02703658 0.01082049 0.02011245
v -0.02651413 0.01155128 0.02011245
v -0.02578105 0.01242521 0.02011245
v -0.02496592 0.01315599 0.02011245
v -0.02409881 0.01364125 0.01895711
v -0.02339308 0.01403457 0.01854226
v -0.02195702 0.01468041 0.01719064
v -0.02308672 0.01394962 0.01719064
v -0.02090664 0.01491315 0.01540187
v -0.01990550 0.01521920 0.01426437
v -0.01887154 0.01586737 0.01426437
v -0.02109812 0.01503999 0.01637878
v -0.01811111 0.01647132 0.01509854
v -0.01677078 0.01944219 0.03230822
v -0.01602677 0.01962488 0.03181753
v -0.01561373 0.01955041 0.03034548
v -0.01448676 0.02009850 0.03180415
v -0.01302608 0.02044527 0.03180415
v -0.01050134 0.02082929 0.03151420
v -0.01143410 0.02073503 0.03192459
v -0.00952482 0.02088631 0.03092092
v -0.00802037 0.02087933 0.02952023
v -0.00856197 0.02092588 0.03039454
v -0.00863856 0.02106784 0.03180415
v -0.00717788 0.02135062 0.03326729
v -0.00571447 0.02147048 0.03326729
v -0.00425378 0.02157637 0.03326729
v -0.00404590 0.02145535 0.03180415
v -0.00404590 0.02170089 0.03473042
v -0.00404590 0.02168576 0.03452523
v -0.00404590 0.02158684 0.03326729
v -0.00571447 0.02159150 0.03473042
v -0.00717788 0.02156823 0.03619356
v -0.00863856 0.02150655 0.03765223
v -0.01010198 0.02140531 0.03911537
v -0.01156266 0.02123891 0.04057850
v -0.01302608 0.02100850 0.04204164
v -0.01378924 0.02087584 0.04295164
v -0.01273066 0.02103061 0.04310776
v -0.02776419 0.01452564 0.04310776
v -0.02771769 0.01449073 0.04204164
v -0.02751253 0.01452564 0.04059635
v -0.02778607 0.01411370 0.03899046
v -0.02687519 0.01499344 0.04011904
v -0.02872977 0.01248222 0.03473042
v -0.02961329 0.01183987 0.03619356
v -0.03021507 0.01110908 0.03619356
v -0.02756998 0.01410788 0.03765223
v -0.02743595 0.01399850 0.03619356
v -0.02729097 0.01388446 0.03473042
v -0.02713779 0.01375878 0.03326729
v -0.02690802 0.01355514 0.03109043
v -0.02802131 0.01321302 0.03473042
v -0.03005915 0.01091824 0.03473042
v -0.03094814 0.01012694 0.03619356
v -0.03116424 0.00995472 0.03667978
v -0.03089891 0.00995472 0.03543076
v -0.02721165 0.01106021 0.02157113
v -0.02665910 0.01179100 0.02157113
v -0.02512730 0.01329098 0.02157113
v -0.02423557 0.01374249 0.02011245
v -0.02535160 0.01495155 0.03180415
v -0.02325632 0.01440695 0.02011245
v -0.02218132 0.01482238 0.01865378
v -0.02252324 0.01501904 0.02085740
v -0.02240836 0.01495504 0.02011245
v -0.02122395 0.01511097 0.01719064
v -0.02256701 0.01650390 0.03093430
v -0.02107077 0.01794802 0.03543523
v -0.02039513 0.01819821 0.03485979
v -0.01887154 0.01889642 0.03473042
v -0.01766524 0.01921643 0.03326729
v -0.01693217 0.01950270 0.03326729
v -0.01595018 0.01983202 0.03326729
v -0.01448676 0.02025094 0.03326729
v -0.01302608 0.02058375 0.03326729
v -0.01181978 0.02079904 0.03326729
v -0.01086241 0.02087235 0.03249111
v -0.01010198 0.02103526 0.03326729
v -0.01004727 0.02092006 0.03192459
v -0.00863856 0.02120632 0.03326729
v -0.00863856 0.02132502 0.03473042
v -0.00717788 0.02146815 0.03473042
v -0.00863856 0.02142858 0.03619356
v -0.01010198 0.02134480 0.03765223
v -0.01156266 0.02120865 0.03911537
v -0.01314370 0.02097824 0.04066326
v -0.01379198 0.02087584 0.04204164
v -0.01595018 0.02035917 0.04310776
v -0.01396157 0.02083162 0.04310776
v -0.01358956 0.02090144 0.04310776
v -0.01452232 0.02071874 0.04204164
v -0.02703111 0.01511330 0.04310776
v -0.02698734 0.01507956 0.04204164
v -0.02694084 0.01504232 0.04109149
v -0.02679861 0.01493642 0.03911537
v -0.02630624 0.01544379 0.04059635
v -0.02606553 0.01545542 0.03911537
v -0.02666731 0.01483867 0.03765223
v -0.02652233 0.01473045 0.03619356
v -0.02637463 0.01461641 0.03473042
v -0.02544187 0.01501672 0.03257587
v -0.02608468 0.01459314 0.03314238
v -0.02632539 0.01414163 0.03167033
v -0.02609288 0.01409392 0.03034548
v -0.03106303 0.00995472 0.03619356
v -0.02444073 0.01531811 0.03034548
v -0.02425746 0.01519825 0.02888234
v -0.02341223 0.01615828 0.03180415
v -0.02268189 0.01656790 0.03180415
v -0.02117197 0.01800271 0.03619356
v -0.02033222 0.01841349 0.03619356
v -0.01875392 0.01913148 0.03622478
v -0.01805367 0.01937469 0.03575640
v -0.01789775 0.01931302 0.03473042
v -0.01716741 0.01958183 0.03473042
v -0.01595018 0.01997980 0.03473042
v -0.01448676 0.02038127 0.03473042
v -0.01448676 0.02049415 0.03619356
v -0.01320661 0.02076761 0.03619356
v -0.01289752 0.02072921 0.03482410
v -0.01212067 0.02084209 0.03439586
v -0.01108944 0.02090609 0.03326729
v -0.01010198 0.02115512 0.03473042
v -0.01010198 0.02125985 0.03619356
v -0.01156266 0.02114115 0.03765223
v -0.01272792 0.02094566 0.03765223
v -0.01290025 0.02098406 0.03911537
v -0.01363059 0.02084442 0.03911537
v -0.01370992 0.02085838 0.04023502
v -0.01376736 0.02087118 0.04120747
v -0.01595018 0.02037895 0.04204164
v -0.01701423 0.02006475 0.04310776
v -0.01434726 0.02073503 0.04066326
v -0.01595018 0.02036265 0.04057850
v -0.02681228 0.01526923 0.04310776
v -0.02618041 0.01565208 0.04204164
v -0.02593697 0.01536233 0.03765223
v -0.02510268 0.01626302 0.04057850
v -0.02498780 0.01618621 0.03911537
v -0.02486197 0.01546241 0.03314238
v -0.02462126 0.01542749 0.03180415
v -0.02484282 0.01609196 0.03765223
v -0.02401948 0.01650157 0.03678238
v -0.02359824 0.01625952 0.03326729
v -0.02286790 0.01667496 0.03326729
v -0.02190505 0.01760706 0.03619356
v -0.02208558 0.01770481 0.03765223
v -0.02135524 0.01809814 0.03765223
v -0.02033222 0.01858456 0.03765223
v -0.01901651 0.01916174 0.03765223
v -0.01818770 0.01942590 0.03673331
v -0.01750659 0.01961325 0.03622478
v -0.01741086 0.01977151 0.03765223
v -0.01595018 0.02010781 0.03619356
v -0.01595018 0.02022185 0.03765223
v -0.01448676 0.02059190 0.03765223
v -0.01345826 0.02081416 0.03765223
v -0.01247353 0.02090027 0.03619356
v -0.01232583 0.02087351 0.03537277
v -0.01156266 0.02105039 0.03619356
v -0.01160643 0.02094915 0.03482410
v -0.01448676 0.02065823 0.03911537
v -0.01741086 0.01996584 0.04204164
v -0.01741086 0.01995304 0.04310776
v -0.01741086 0.01994373 0.04057850
v -0.01595018 0.02030564 0.03911537
v -0.02618041 0.01571492 0.04310776
v -0.02519022 0.01632353 0.04204164
v -0.02591235 0.01589762 0.04310776
v -0.02437234 0.01671336 0.04057850
v -0.02425472 0.01664587 0.03911537
v -0.02411248 0.01655859 0.03765223
v -0.02390460 0.01643408 0.03580547
v -0.02377603 0.01635960 0.03473042
v -0.02325632 0.01705083 0.03765223
v -0.02335205 0.01680878 0.03625154
v -0.02304296 0.01677620 0.03473042
v -0.02325632 0.01722189 0.03911537
v -0.02223329 0.01778860 0.03911537
v -0.02150295 0.01817261 0.03911537
v -0.02033222 0.01872536 0.03911537
v -0.01828617 0.01946546 0.03765223
v -0.01916149 0.01922807 0.03911537
v -0.01843115 0.01951899 0.03911537
v -0.01741086 0.01987391 0.03911537
v -0.01860894 0.01957485 0.04204164
v -0.01861442 0.01957135 0.04310776
v -0.01828891 0.01967725 0.04310776
v -0.01854056 0.01955972 0.04057850
v -0.02523672 0.01635262 0.04310776
v -0.02445987 0.01676223 0.04204164
v -0.02325632 0.01735338 0.04057850
v -0.02235091 0.01785260 0.04057850
v -0.02162057 0.01822847 0.04057850
v -0.02033222 0.01883009 0.04057850
v -0.01927090 0.01927694 0.04057850
v -0.01933928 0.01930953 0.04204164
v -0.01934475 0.01931418 0.04310776
v -0.02450638 0.01678783 0.04310776
v -0.02325632 0.01744648 0.04204164
v -0.02243571 0.01789682 0.04204164
v -0.02170537 0.01826571 0.04204164
v -0.02033222 0.01889991 0.04204164
v -0.02006415 0.01902675 0.04310776
v -0.02417813 0.01697402 0.04310776
v -0.02325632 0.01748953 0.04310776
v -0.02303475 0.01761172 0.04310776
v -0.02246853 0.01791544 0.04310776
v -0.02173819 0.01827618 0.04310776
v -0.02136618 0.01844840 0.04310776
v -0.02033222 0.01891504 0.04310776
f 1 2 8
f 1 8 16
f 1 16 15
f 1 15 14
f 1 14 30
f 1 30 45
f 1 45 78
f 1 78 118
f 1 118 117
f 1 117 120
f 1 120 173
f 1 173 176
f 1 176 175
f 1 175 174
f 1 174 122
f 1 122 121
f 1 121 80
f 1 80 79
f 1 79 46
f 1 46 33
f 1 33 32
f 1 32 17
f 1 17 9
f 1 9 3
f 1 3 4
f 1 4 11
f 1 11 20
f 1 20 37
f 1 37 53
f 1 53 52
f 1 52 51
f 1 51 87
f 1 87 86
f 1 86 130
f 1 130 129
f 1 129 184
f 1 184 236
f 1 236 235
f 1 235 234
f 1 234 278
f 1 278 310
f 1 310 334
f 1 334 333
f 1 333 344
f 1 344 350
f 1 350 357
f 1 357 356
f 1 356 355
f 1 355 354
f 1 354 353
f 1 353 352
f 1 352 351
f 1 351 345
f 1 345 336
f 1 336 315
f 1 315 313
f 1 313 281
f 1 281 238
f 1 238 185
f 1 185 131
f 1 131 88
f 1 88 54
f 1 54 38
f 1 38 21
f 1 21 12
f 1 12 5
f 1 5 2
f 2 5 6
f 2 6 7
f 2 7 8
f 3 9 10
f 3 10 4
f 4 10 11
f 5 12 23
f 5 23 39
f 5 39 56
f 5 56 91
f 5 91 96
f 5 96 95
f 5 95 143
f 5 143 201
f 5 201 251
f 5 251 202
f 5 202 145
f 5 145 144
f 5 144 97
f 5 97 61
f 5 61 42
f 5 42 29
f 5 29 28
f 5 28 27
f 5 27 26
f 5 26 25
f 5 25 31
f 5 31 24
f 5 24 13
f 5 13 7
f 5 7 6
f 7 13 14
f 7 14 15
f 7 15 16
f 7 16 8
f 9 17 18
f 9 18 10
f 10 18 19
f 10 19 11
f 11 19 20
f 12 21 22
f 12 22 23
f 13 24 14
f 14 25 26
f 14 26 27
f 14 27 28
f 14 28 29
f 14 29 42
f 14 42 64
f 14 64 102
f 14 102 103
f 14 103 65
f 14 65 43
f 14 43 30
f 14 24 31
f 14 31 25
f 17 32 18
f 18 32 33
f 18 33 34
f 18 34 35
f 18 35 19
f 19 36 20
f 19 35 36
f 20 36 37
f 21 38 22
f 22 39 23
f 22 38 40
f 22 40 41
f 22 41 39
f 30 43 44
f 30 44 45
f 33 46 34
f 34 46 47
f 34 47 48
f 34 48 35
f 35 49 36
f 35 48 49
f 36 50 51
f 36 51 52
f 36 52 53
f 36 53 37
f 36 49 50
f 38 54 55
f 38 55 40
f 39 41 56
f 40 55 57
f 40 57 58
f 40 58 41
f 41 58 59
f 41 59 60
f 41 60 56
f 42 61 62
f 42 62 63
f 42 63 64
f 43 65 66
f 43 66 67
f 43 67 68
f 43 68 69
f 43 69 70
f 43 70 71
f 43 71 72
f 43 72 73
f 43 73 74
f 43 74 75
f 43 75 44
f 44 75 74
f 44 74 76
f 44 76 77
f 44 77 78
f 44 78 45
f 46 79 47
f 47 79 80
f 47 80 81
f 47 81 82
f 47 82 48
f 48 82 83
f 48 83 49
f 49 84 50
f 49 83 84
f 50 85 86
f 50 86 87
f 50 87 51
f 50 84 85
f 54 88 55
f 55 88 89
f 55 89 90
f 55 90 57
f 56 60 91
f 57 90 92
f 57 92 58
f 58 92 59
f 59 92 93
f 59 93 94
f 59 94 95
f 59 95 96
f 59 96 60
f 60 96 91
f 61 97 98
f 61 98 62
f 62 98 99
f 62 99 63
f 63 99 100
f 63 100 101
f 63 101 64
f 64 101 102
f 65 103 66
f 66 104 105
f 66 105 106
f 66 106 107
f 66 107 68
f 66 68 67
f 66 103 102
f 66 102 104
f 68 107 108
f 68 108 69
f 69 108 109
f 69 109 70
f 70 109 110
f 70 110 111
f 70 111 112
f 70 112 71
f 71 112 72
f 72 112 113
f 72 113 73
f 73 113 74
f 74 113 76
f 76 113 114
f 76 114 115
f 76 115 116
f 76 116 119
f 76 119 77
f 77 117 118
f 77 118 78
f 77 119 120
f 77 120 117
f 80 121 81
f 81 121 122
f 81 122 123
f 81 123 124
f 81 124 82
f 82 124 125
f 82 125 83
f 83 125 126
f 83 126 84
f 84 127 85
f 84 126 127
f 85 128 129
f 85 129 130
f 85 130 86
f 85 127 128
f 88 131 132
f 88 132 89
f 89 132 133
f 89 133 90
f 90 133 134
f 90 134 135
f 90 135 92
f 92 135 93
f 93 136 137
f 93 137 94
f 93 135 138
f 93 138 139
f 93 139 140
f 93 140 141
f 93 141 136
f 94 137 142
f 94 142 143
f 94 143 95
f 97 144 98
f 98 144 145
f 98 145 146
f 98 146 147
f 98 147 99
f 99 147 148
f 99 148 100
f 100 148 149
f 100 149 150
f 100 150 151
f 100 151 152
f 100 152 153
f 100 153 101
f 101 153 154
f 101 154 102
f 102 154 155
f 102 155 104
f 104 155 154
f 104 154 156
f 104 156 105
f 105 156 157
f 105 157 158
f 105 158 106
f 106 158 159
f 106 159 160
f 106 160 161
f 106 161 107
f 107 161 160
f 107 160 162
f 107 162 108
f 108 162 163
f 108 163 109
f 109 164 110
f 109 163 165
f 109 165 164
f 110 164 166
f 110 166 111
f 111 167 112
f 111 166 168
f 111 168 167
f 112 167 113
f 113 167 114
f 114 167 168
f 114 168 115
f 115 168 169
f 115 169 226
f 115 226 170
f 115 170 116
f 116 170 171
f 116 171 172
f 116 172 119
f 119 173 120
f 119 172 176
f 119 176 173
f 122 174 123
f 123 174 175
f 123 175 176
f 123 176 172
f 123 172 177
f 123 177 124
f 124 177 178
f 124 178 125
f 125 178 179
f 125 179 126
f 126 179 180
f 126 180 127
f 127 181 128
f 127 180 181
f 128 182 183
f 128 183 184
f 128 184 129
f 128 181 182
f 131 185 132
f 132 185 186
f 132 186 133
f 133 186 187
f 133 187 134
f 134 188 138
f 134 138 135
f 134 187 189
f 134 189 188
f 136 141 190
f 136 190 191
f 136 191 192
f 136 192 137
f 137 192 142
f 138 193 194
f 138 194 139
f 138 188 193
f 139 194 195
f 139 195 140
f 140 195 196
f 140 196 197
f 140 197 198
f 140 198 141
f 141 198 190
f 142 192 199
f 142 199 200
f 142 200 201
f 142 201 143
f 145 202 146
f 146 202 203
f 146 203 147
f 147 203 204
f 147 204 148
f 148 204 190
f 148 190 198
f 148 198 197
f 148 197 149
f 149 197 205
f 149 205 206
f 149 206 150
f 150 206 207
f 150 207 208
f 150 208 151
f 151 209 152
f 151 208 210
f 151 210 211
f 151 211 209
f 152 157 153
f 152 209 157
f 153 157 154
f 154 157 156
f 157 209 211
f 157 211 212
f 157 212 158
f 158 212 210
f 158 210 213
f 158 213 214
f 158 214 215
f 158 215 216
f 158 216 217
f 158 217 159
f 159 217 218
f 159 218 219
f 159 219 160
f 160 219 162
f 162 219 220
f 162 220 163
f 163 220 221
f 163 221 222
f 163 222 165
f 164 165 223
f 164 223 224
f 164 224 225
f 164 225 166
f 165 222 223
f 166 225 226
f 166 226 169
f 166 169 168
f 170 226 227
f 170 227 228
f 170 228 177
f 170 177 171
f 171 177 172
f 177 228 178
f 178 228 229
f 178 229 179
f 179 229 230
f 179 230 180
f 180 230 231
f 180 231 181
f 181 232 182
f 181 231 232
f 182 233 183
f 182 232 233
f 183 234 235
f 183 235 236
f 183 236 184
f 183 233 237
f 183 237 234
f 185 238 239
f 185 239 186
f 186 239 240
f 186 240 187
f 187 240 189
f 188 189 241
f 188 241 193
f 189 240 242
f 189 242 243
f 189 243 241
f 190 204 191
f 191 204 192
f 192 204 199
f 193 241 244
f 193 244 194
f 194 244 245
f 194 245 195
f 195 246 247
f 195 247 248
f 195 248 196
f 195 245 246
f 196 248 249
f 196 249 197
f 197 249 250
f 197 250 205
f 199 204 203
f 199 203 200
f 200 251 201
f 200 203 251
f 202 251 203
f 205 250 207
f 205 207 206
f 207 250 247
f 207 247 252
f 207 252 253
f 207 253 208
f 208 253 210
f 210 212 211
f 210 253 252
f 210 252 254
f 210 254 213
f 213 254 255
f 213 255 214
f 214 255 256
f 214 256 257
f 214 257 215
f 215 257 216
f 216 257 258
f 216 258 259
f 216 259 260
f 216 260 217
f 217 260 218
f 218 260 259
f 218 259 261
f 218 261 219
f 219 261 262
f 219 262 220
f 220 262 263
f 220 263 221
f 221 263 264
f 221 264 265
f 221 265 266
f 221 266 267
f 221 267 222
f 222 267 268
f 222 268 223
f 223 268 269
f 223 269 224
f 224 226 225
f 224 269 226
f 226 269 227
f 227 269 270
f 227 270 229
f 227 229 228
f 229 270 230
f 230 270 271
f 230 271 231
f 231 271 272
f 231 272 273
f 231 273 232
f 232 273 274
f 232 274 275
f 232 275 276
f 232 276 233
f 233 276 237
f 234 237 277
f 234 277 278
f 237 276 279
f 237 279 280
f 237 280 277
f 238 281 239
f 239 282 240
f 239 281 282
f 240 282 242
f 241 243 283
f 241 283 244
f 242 284 243
f 242 282 284
f 243 285 283
f 243 284 285
f 244 283 247
f 244 247 245
f 245 247 246
f 247 286 287
f 247 287 252
f 247 250 249
f 247 249 248
f 247 283 288
f 247 288 289
f 247 289 286
f 252 287 254
f 254 287 290
f 254 290 291
f 254 291 255
f 255 291 256
f 256 292 293
f 256 293 294
f 256 294 257
f 256 291 292
f 257 294 295
f 257 295 258
f 258 295 296
f 258 296 297
f 258 297 259
f 259 297 298
f 259 298 261
f 261 298 262
f 262 298 299
f 262 299 300
f 262 300 263
f 263 300 301
f 263 301 264
f 264 301 302
f 264 302 303
f 264 303 265
f 265 304 305
f 265 305 266
f 265 303 304
f 266 305 267
f 267 305 306
f 267 306 307
f 267 307 268
f 268 307 269
f 269 307 270
f 270 307 306
f 270 306 271
f 271 306 304
f 271 304 272
f 272 304 303
f 272 303 273
f 273 303 274
f 274 303 302
f 274 302 308
f 274 308 279
f 274 279 275
f 275 279 276
f 277 309 310
f 277 310 278
f 277 280 309
f 279 308 280
f 280 311 309
f 280 308 312
f 280 312 311
f 281 313 282
f 282 314 284
f 282 313 315
f 282 315 314
f 283 285 288
f 284 314 316
f 284 316 317
f 284 317 285
f 285 317 318
f 285 318 288
f 286 289 287
f 287 289 319
f 287 319 320
f 287 320 290
f 288 318 289
f 289 318 321
f 289 321 322
f 289 322 319
f 290 320 291
f 291 320 319
f 291 319 323
f 291 323 293
f 291 293 292
f 293 323 322
f 293 322 321
f 293 321 324
f 293 324 325
f 293 325 294
f 294 325 326
f 294 326 295
f 295 326 327
f 295 327 296
f 296 328 297
f 296 327 329
f 296 329 328
f 297 328 299
f 297 299 298
f 299 301 300
f 299 328 330
f 299 330 331
f 299 331 301
f 301 331 312
f 301 312 302
f 302 312 308
f 304 306 305
f 309 332 333
f 309 333 334
f 309 334 310
f 309 311 332
f 311 335 332
f 311 312 331
f 311 331 335
f 314 315 336
f 314 336 337
f 314 337 316
f 316 337 338
f 316 338 324
f 316 324 317
f 317 324 318
f 318 324 321
f 319 322 323
f 324 338 325
f 325 338 339
f 325 339 326
f 326 339 340
f 326 340 327
f 327 340 341
f 327 341 329
f 328 329 330
f 329 341 342
f 329 342 330
f 330 342 335
f 330 335 331
f 332 343 344
f 332 344 333
f 332 335 343
f 335 342 343
f 336 345 337
f 337 345 346
f 337 346 338
f 338 346 339
f 339 346 347
f 339 347 340
f 340 347 348
f 340 348 341
f 341 348 349
f 341 349 342
f 342 349 343
f 343 349 350
f 343 350 344
f 345 351 346
f 346 351 352
f 346 352 353
f 346 353 347
f 347 353 354
f 347 354 348
f 348 354 355
f 348 355 356
f 348 356 349
f 349 356 357
f 349 357 350

