# https://github.com/mikedh/trimesh
v 0.01330128 -0.01036885 -0.04014547
v 0.00952635 0.00275516 -0.01746476
v 0.00977972 0.00275516 -0.01811394
v 0.00981241 0.00275516 -0.01819508
v 0.01030280 0.00275516 -0.01936803
v 0.01080544 0.00275516 -0.02048565
v 0.01085958 0.00275516 -0.02060369
v 0.01117220 0.00275516 -0.02125287
v 0.01330128 0.00275516 -0.02536188
v 0.01330128 -0.01036885 -0.02136352
v 0.00328725 -0.01036885 -0.01351804
v 0.00949366 0.00275516 -0.01736885
v 0.01330128 0.00275516 -0.01534017
v 0.01330128 -0.01021855 -0.02116803
v 0.01329822 0.00259201 -0.00246354
v 0.01258614 -0.00555269 -0.00246354
v 0.01233380 -0.00632220 -0.00246354
v 0.01158392 -0.00760428 -0.00246354
v 0.00983591 -0.01009907 -0.00246354
v 0.00962443 -0.01036885 -0.00246354
v 0.00309825 -0.01036885 -0.01286148
v 0.00919330 0.00275516 -0.01644304
v 0.01325020 0.00275516 -0.00246354
v 0.01330128 -0.00251962 -0.01571271
v 0.01330128 -0.00947730 -0.02044508
v 0.01330128 -0.00326472 -0.01576804
v 0.00507306 -0.01036885 -0.00246354
v 0.00291027 -0.01036885 -0.01214591
v 0.00914835 0.00275516 -0.01628074
v 0.00928934 0.00275516 -0.00246354
v 0.00318611 -0.01036885 -0.00918403
v 0.00863141 0.00275516 -0.01335575
v 0.00864775 0.00275516 -0.01351804
v 0.00881530 0.00275516 -0.01481640
v 0.00884391 0.00275516 -0.01497869
v 0.00286531 -0.01036885 -0.01059304
v 0.00854048 0.00275516 -0.01189509
v 0.00854559 0.00275516 -0.01205739
v 0.00921476 0.00275516 -0.00312010
v 0.00318304 -0.01036885 -0.00919509
v 0.00905436 0.00275516 -0.00458444
v 0.00889907 0.00275516 -0.00604510
v 0.00875400 0.00275516 -0.00750575
v 0.00861915 0.00275516 -0.00897009
v 0.00860893 0.00275516 -0.00913239
v 0.00853231 0.00275516 -0.01043075
v 0.00852924 0.00275516 -0.01059304
f 1 2 3
f 1 3 4
f 1 4 5
f 1 5 6
f 1 6 7
f 1 7 8
f 1 8 9
f 1 9 13
f 1 13 24
f 1 24 26
f 1 26 25
f 1 25 14
f 1 14 10
f 1 10 20
f 1 20 27
f 1 27 31
f 1 31 40
f 1 40 36
f 1 36 28
f 1 28 21
f 1 21 11
f 1 11 2
f 2 12 22
f 2 22 29
f 2 29 35
f 2 35 34
f 2 34 33
f 2 33 32
f 2 32 38
f 2 38 37
f 2 37 47
f 2 47 46
f 2 46 45
f 2 45 44
f 2 44 43
f 2 43 42
f 2 42 41
f 2 41 39
f 2 39 30
f 2 30 23
f 2 23 13
f 2 13 9
f 2 9 8
f 2 8 7
f 2 7 6
f 2 6 5
f 2 5 4
f 2 4 3
f 2 11 12
f 10 14 15
f 10 15 16
f 10 16 17
f 10 17 18
f 10 18 19
f 10 19 20
f 11 21 22
f 11 22 12
f 13 23 15
f 13 15 24
f 14 25 15
f 15 23 30
f 15 30 27
f 15 27 20
f 15 20 19
f 15 19 18
f 15 18 17
f 15 17 16
f 15 25 26
f 15 26 24
f 21 28 29
f 21 29 22
f 27 30 31
f 28 32 33
f 28 33 34
f 28 34 35
f 28 35 29
f 28 36 37
f 28 37 38
f 28 38 32
f 30 39 36
f 30 36 40
f 30 40 31
f 36 39 41
f 36 41 42
f 36 42 43
f 36 43 44
f 36 44 45
f 36 45 46
f 36 46 47
f 36 47 37

