# https://github.com/mikedh/trimesh
v -0.04429396 0.00275516 -0.06225341
v -0.04425551 0.00275516 -0.06306564
v -0.04429276 0.00269987 -0.06225341
v -0.04031000 0.00275516 -0.06225341
v -0.04424470 0.00275516 -0.06322744
v -0.04424350 0.00259205 -0.06322744
v -0.04429036 0.00259205 -0.06225341
v -0.03202008 0.00275516 -0.06770292
v -0.03769927 -0.01136609 -0.06225341
v -0.04396357 0.00275516 -0.06452723
v -0.04392752 0.00259205 -0.06469011
v -0.04391551 0.00112961 -0.06469011
v -0.04420025 0.00112961 -0.06322744
v -0.04427474 0.00210411 -0.06225341
v -0.03202008 0.00275516 -0.07228225
v -0.03202008 -0.01135918 -0.06897429
v -0.04193193 -0.01136609 -0.06225341
v -0.03203210 -0.01136609 -0.06897210
v -0.04392632 0.00275516 -0.06469011
v -0.04337967 0.00259205 -0.06615169
v -0.04338688 0.00112961 -0.06615169
v -0.04335083 -0.00033145 -0.06615169
v -0.04385904 -0.00033145 -0.06469011
v -0.04423149 0.00112961 -0.06225341
v -0.04411855 -0.00033145 -0.06322744
v -0.03202008 0.00275378 -0.07231614
v -0.03203210 0.00275516 -0.07231614
v -0.03202008 -0.01136609 -0.07327377
v -0.04195957 -0.01136609 -0.06251687
v -0.04202925 -0.01108549 -0.06225341
v -0.04343854 0.00275516 -0.06598990
v -0.04302164 0.00259205 -0.06692348
v -0.04302885 0.00112961 -0.06693660
v -0.04336765 0.00275516 -0.06616700
v -0.04301563 -0.00033145 -0.06691583
v -0.04300242 -0.00124236 -0.06689506
v -0.04298439 -0.00221824 -0.06685352
v -0.04322949 -0.00175518 -0.06628069
v -0.04321988 -0.00325633 -0.06603254
v -0.04374971 -0.00179389 -0.06469011
v -0.04420385 0.00064167 -0.06225341
v -0.04408972 -0.00082077 -0.06225341
v -0.04413417 -0.00033145 -0.06225341
v -0.04398519 -0.00179389 -0.06322744
v -0.03202008 0.00259205 -0.07233363
v -0.03349305 0.00275516 -0.07217184
v -0.03202008 0.00112961 -0.07248559
v -0.03203210 0.00112961 -0.07248449
v -0.03349305 0.00259205 -0.07218933
v -0.03202008 -0.01136609 -0.07334701
v -0.04202565 -0.01136609 -0.06323072
v -0.04220346 -0.01056576 -0.06225341
v -0.04247739 0.00259205 -0.06765482
v -0.04251944 0.00112961 -0.06766794
v -0.04305047 0.00275516 -0.06685024
v -0.04301804 0.00275516 -0.06691910
v -0.04257350 0.00275516 -0.06751708
v -0.04254106 -0.00033145 -0.06764717
v -0.04261916 -0.00175518 -0.06747553
v -0.04246177 -0.00325633 -0.06761437
v -0.04236325 -0.00471738 -0.06761437
v -0.04294955 -0.00325633 -0.06676278
v -0.04288828 -0.00471738 -0.06657804
v -0.04314058 -0.00471738 -0.06584670
v -0.04359833 -0.00325633 -0.06469011
v -0.04399360 -0.00179389 -0.06225341
v -0.04342172 -0.00471738 -0.06469011
v -0.04380497 -0.00325633 -0.06322744
v -0.04393353 -0.00228183 -0.06225341
v -0.03365644 0.00275516 -0.07214561
v -0.03202008 -0.00039227 -0.07263973
v -0.03243458 -0.00137229 -0.07269985
v -0.03349305 0.00112961 -0.07233801
v -0.03203210 -0.01136609 -0.07334483
v -0.03202008 -0.01056576 -0.07341916
v -0.04202685 -0.01136609 -0.06398939
v -0.04229357 -0.01056576 -0.06322744
v -0.04249781 -0.00959126 -0.06225341
v -0.04174571 0.00259205 -0.06856216
v -0.04178897 0.00112961 -0.06861463
v -0.04248339 0.00275516 -0.06763405
v -0.04183582 0.00275516 -0.06843754
v -0.04181059 -0.00033145 -0.06864743
v -0.04180338 -0.00179389 -0.06865180
v -0.04177695 -0.00325633 -0.06863650
v -0.04173971 -0.00471738 -0.06860370
v -0.04168684 -0.00617844 -0.06854576
v -0.04223109 -0.00617844 -0.06761437
v -0.04204848 -0.00764088 -0.06761437
v -0.04284503 -0.00631529 -0.06613202
v -0.04306369 -0.00591857 -0.06563243
v -0.04299400 -0.00689307 -0.06540833
v -0.04318023 -0.00631529 -0.06482785
v -0.04374010 -0.00374427 -0.06225341
v -0.04380978 -0.00325633 -0.06225341
v -0.04359592 -0.00471738 -0.06322744
v -0.03495519 0.00275516 -0.07192588
v -0.03202008 -0.00047935 -0.07264847
v -0.03202008 -0.00185609 -0.07278621
v -0.03203210 -0.00325633 -0.07292395
v -0.03203210 -0.00471738 -0.07306825
v -0.03203210 -0.00617844 -0.07321146
v -0.03289473 -0.00234679 -0.07274795
v -0.03349305 -0.00033145 -0.07248012
v -0.03393277 -0.00325633 -0.07269111
v -0.03419108 -0.00405251 -0.07272499
v -0.03269409 -0.01136609 -0.07320490
v -0.03203210 -0.01056576 -0.07341698
v -0.03202008 -0.00911438 -0.07342135
v -0.04201844 -0.01136609 -0.06471307
v -0.04270686 -0.00910332 -0.06322744
v -0.04227555 -0.01056576 -0.06469011
v -0.04263477 -0.00910332 -0.06225341
v -0.04095877 0.00112961 -0.06934488
v -0.04173971 0.00275516 -0.06855560
v -0.04102125 -0.00033145 -0.06937877
v -0.04105248 -0.00179389 -0.06938314
v -0.04107411 -0.00325633 -0.06936783
v -0.04107171 -0.00471738 -0.06933504
v -0.04103807 -0.00617844 -0.06927710
v -0.04097199 -0.00764088 -0.06917434
v -0.04160635 -0.00764088 -0.06844300
v -0.04154868 -0.00845918 -0.06836539
v -0.04178776 -0.00900933 -0.06767341
v -0.04263237 -0.00764088 -0.06615169
v -0.04307931 -0.00728426 -0.06443322
v -0.04235004 -0.00910332 -0.06615169
v -0.04264679 -0.00910332 -0.06469011
v -0.04292192 -0.00771967 -0.06482785
v -0.04358992 -0.00471738 -0.06225341
v -0.04336165 -0.00617844 -0.06322744
v -0.04351182 -0.00520532 -0.06225341
v -0.03510417 0.00275516 -0.07188762
v -0.03495519 0.00112961 -0.07208002
v -0.03202008 -0.00325633 -0.07292505
v -0.03202008 -0.00326738 -0.07292613
v -0.03202008 -0.00472844 -0.07307044
v -0.03361920 -0.00460957 -0.07285617
v -0.03320230 -0.00325633 -0.07279277
v -0.03202008 -0.00618950 -0.07321256
v -0.03202008 -0.00765194 -0.07334045
v -0.03203210 -0.00764088 -0.07333827
v -0.03342697 -0.00183259 -0.07262988
v -0.03495519 -0.00325633 -0.07246482
v -0.03495519 -0.00033145 -0.07221120
v -0.03349305 -0.00617844 -0.07300594
v -0.03434727 -0.00502563 -0.07276216
v -0.03353149 -0.01136609 -0.07300703
v -0.03349305 -0.01056576 -0.07310761
v -0.03349305 -0.00910332 -0.07314587
v -0.03203210 -0.00910332 -0.07341916
v -0.04186105 -0.01136609 -0.06570896
v -0.04283782 -0.00836519 -0.06225341
v -0.04291952 -0.00805418 -0.06225341
v -0.04295075 -0.00817444 -0.06322744
v -0.04201003 -0.01056576 -0.06615169
v -0.04022830 0.00112961 -0.06991334
v -0.04028957 -0.00033145 -0.06996034
v -0.04095997 0.00275516 -0.06920495
v -0.04086866 0.00259205 -0.06929350
v -0.04032201 -0.00179389 -0.06999095
v -0.04034363 -0.00325633 -0.07001718
v -0.04034124 -0.00471738 -0.07002702
v -0.04030639 -0.00617844 -0.07001062
v -0.04024151 -0.00764088 -0.06996144
v -0.04013579 -0.00910332 -0.06986632
v -0.04007211 -0.00983454 -0.06980620
v -0.04145737 -0.00943368 -0.06820032
v -0.04167483 -0.01056576 -0.06719568
v -0.04311655 -0.00744322 -0.06322744
v -0.04157511 -0.01136609 -0.06696720
v -0.04159073 -0.01136609 -0.06692020
v -0.04332801 -0.00617844 -0.06225341
v -0.03654349 0.00275516 -0.07149079
v -0.03349305 -0.00764088 -0.07310323
v -0.03488311 -0.00460957 -0.07259053
v -0.03641734 -0.00325633 -0.07202536
v -0.03641734 -0.00033145 -0.07178704
v -0.03641734 0.00112961 -0.07166570
v -0.03448543 -0.00617844 -0.07280261
v -0.03441695 -0.01136609 -0.07279386
v -0.03454430 -0.01056576 -0.07283322
v -0.03463321 -0.00910332 -0.07285399
v -0.03459957 -0.00764088 -0.07283869
v -0.04178055 -0.01136609 -0.06615169
v -0.04309132 -0.00732434 -0.06225341
v -0.03934044 0.00112961 -0.07042821
v -0.03934044 -0.00033145 -0.07052989
v -0.04013819 0.00259205 -0.06985102
v -0.03934044 -0.00179389 -0.07060422
v -0.03853187 -0.00471738 -0.07122952
v -0.03934044 -0.00325633 -0.07067090
v -0.04084463 0.00275516 -0.06929678
v -0.04020067 0.00275516 -0.06978871
v -0.03934044 -0.00471738 -0.07071900
v -0.03934044 -0.00617844 -0.07072338
v -0.03856070 -0.00764088 -0.07124045
v -0.03934044 -0.00764088 -0.07066435
v -0.03849222 -0.00910332 -0.07119345
v -0.03934044 -0.00910332 -0.07052333
v -0.03940051 -0.01041924 -0.07024238
v -0.03915422 -0.01136609 -0.07018553
v -0.03949542 -0.01136609 -0.06987507
v -0.03992674 -0.01080904 -0.06964769
v -0.04046979 -0.01041924 -0.06912624
v -0.03833844 -0.01056576 -0.07108304
v -0.04037607 -0.01136609 -0.06885185
v -0.04075933 -0.01136609 -0.06832712
v -0.04130118 -0.01056576 -0.06792592
v -0.04324511 -0.00660142 -0.06225341
v -0.04115821 -0.01136609 -0.06768652
v -0.03661318 0.00275516 -0.07146893
v -0.03521590 -0.00617844 -0.07259818
v -0.03641734 -0.00471738 -0.07212921
v -0.03761277 -0.00179389 -0.07146455
v -0.03749143 -0.00033145 -0.07140662
v -0.03723432 0.00227966 -0.07130167
v -0.03458035 -0.01136609 -0.07273921
v -0.03527478 -0.01056576 -0.07258835
v -0.03536368 -0.00910332 -0.07262988
v -0.03533125 -0.00764088 -0.07262442
v -0.03808133 0.00112961 -0.07105242
v -0.03822070 -0.00033145 -0.07110599
v -0.03834324 -0.00179389 -0.07115081
v -0.03948701 0.00275516 -0.07020739
v -0.03934044 0.00259205 -0.07030250
v -0.03844417 -0.00325633 -0.07119126
v -0.04012738 0.00275516 -0.06984337
v -0.03780140 -0.00471738 -0.07156841
v -0.03784585 -0.00617844 -0.07160011
v -0.03857512 -0.00617844 -0.07125029
v -0.03783023 -0.00764088 -0.07161651
v -0.03776175 -0.00910332 -0.07160667
v -0.03760917 -0.01056576 -0.07153561
v -0.03818586 -0.01136609 -0.07096934
v -0.03982942 -0.01136609 -0.06953072
v -0.03778698 -0.01136609 -0.07124373
v -0.03771850 0.00275516 -0.07106445
v -0.03641734 -0.00617844 -0.07219917
v -0.03771489 -0.00325633 -0.07152031
v -0.03778458 0.00269710 -0.07104259
v -0.03507654 -0.01136609 -0.07254462
v -0.03641734 -0.01056576 -0.07212484
v -0.03641734 -0.00910332 -0.07223634
v -0.03560757 -0.01136609 -0.07232926
v -0.03641734 -0.00764088 -0.07224181
v -0.03935365 0.00275516 -0.07028064
v -0.03778938 0.00275516 -0.07103494
v -0.03641734 -0.01136609 -0.07197616
v -0.03695679 -0.01136609 -0.07170943
v -0.03745658 -0.01136609 -0.07144815
f 1 2 3
f 1 3 7
f 1 7 14
f 1 14 24
f 1 24 41
f 1 41 43
f 1 43 42
f 1 42 66
f 1 66 69
f 1 69 95
f 1 95 94
f 1 94 130
f 1 130 132
f 1 132 173
f 1 173 210
f 1 210 186
f 1 186 154
f 1 154 153
f 1 153 113
f 1 113 78
f 1 78 52
f 1 52 30
f 1 30 17
f 1 17 9
f 1 9 4
f 1 4 8
f 1 8 15
f 1 15 27
f 1 27 46
f 1 46 70
f 1 70 97
f 1 97 133
f 1 133 174
f 1 174 212
f 1 212 238
f 1 238 248
f 1 248 247
f 1 247 225
f 1 225 228
f 1 228 194
f 1 194 193
f 1 193 159
f 1 159 115
f 1 115 82
f 1 82 81
f 1 81 57
f 1 57 56
f 1 56 55
f 1 55 34
f 1 34 31
f 1 31 19
f 1 19 10
f 1 10 5
f 1 5 2
f 2 5 6
f 2 6 7
f 2 7 3
f 4 9 8
f 5 10 11
f 5 11 6
f 6 11 12
f 6 12 13
f 6 13 7
f 7 13 14
f 8 9 16
f 8 16 28
f 8 28 50
f 8 50 75
f 8 75 109
f 8 109 141
f 8 141 140
f 8 140 137
f 8 137 136
f 8 136 135
f 8 135 99
f 8 99 98
f 8 98 71
f 8 71 47
f 8 47 45
f 8 45 26
f 8 26 15
f 9 17 29
f 9 29 51
f 9 51 76
f 9 76 110
f 9 110 152
f 9 152 185
f 9 185 172
f 9 172 171
f 9 171 211
f 9 211 208
f 9 208 207
f 9 207 236
f 9 236 203
f 9 203 202
f 9 202 235
f 9 235 237
f 9 237 251
f 9 251 250
f 9 250 249
f 9 249 245
f 9 245 242
f 9 242 218
f 9 218 181
f 9 181 148
f 9 148 107
f 9 107 74
f 9 74 50
f 9 50 28
f 9 28 18
f 9 18 16
f 10 19 11
f 11 19 20
f 11 20 21
f 11 21 12
f 12 21 22
f 12 22 23
f 12 23 13
f 13 24 14
f 13 23 25
f 13 25 24
f 15 26 27
f 16 18 28
f 17 30 29
f 19 31 20
f 20 32 33
f 20 33 21
f 20 31 34
f 20 34 32
f 21 35 36
f 21 36 22
f 21 33 35
f 22 36 37
f 22 37 38
f 22 38 23
f 23 38 39
f 23 39 40
f 23 40 25
f 24 25 41
f 25 42 43
f 25 43 41
f 25 40 44
f 25 44 42
f 26 45 27
f 27 45 47
f 27 47 48
f 27 48 49
f 27 49 46
f 29 30 51
f 30 52 51
f 32 53 54
f 32 54 33
f 32 34 55
f 32 55 56
f 32 56 57
f 32 57 53
f 33 54 58
f 33 58 35
f 35 58 59
f 35 59 36
f 36 59 37
f 37 60 61
f 37 61 62
f 37 62 38
f 37 59 60
f 38 62 39
f 39 62 63
f 39 63 64
f 39 64 40
f 40 64 65
f 40 65 44
f 42 44 66
f 44 65 67
f 44 67 68
f 44 68 69
f 44 69 66
f 46 49 70
f 47 71 48
f 48 71 72
f 48 72 49
f 49 72 73
f 49 73 70
f 50 74 108
f 50 108 75
f 51 52 77
f 51 77 76
f 52 78 77
f 53 79 80
f 53 80 54
f 53 57 81
f 53 81 82
f 53 82 79
f 54 80 83
f 54 83 58
f 58 83 84
f 58 84 85
f 58 85 59
f 59 85 86
f 59 86 60
f 60 86 87
f 60 87 61
f 61 87 88
f 61 88 62
f 62 88 63
f 63 88 89
f 63 89 90
f 63 90 64
f 64 90 91
f 64 91 65
f 65 91 67
f 67 91 92
f 67 92 93
f 67 93 68
f 68 94 95
f 68 95 69
f 68 93 96
f 68 96 94
f 70 73 97
f 71 98 72
f 72 98 99
f 72 99 100
f 72 100 101
f 72 101 102
f 72 102 103
f 72 103 73
f 73 103 104
f 73 104 105
f 73 105 106
f 73 106 97
f 74 107 108
f 75 108 109
f 76 77 110
f 77 78 111
f 77 111 112
f 77 112 110
f 78 113 111
f 79 114 80
f 79 82 115
f 79 115 114
f 80 114 116
f 80 116 83
f 83 116 117
f 83 117 118
f 83 118 84
f 84 118 119
f 84 119 85
f 85 119 86
f 86 119 120
f 86 120 87
f 87 120 121
f 87 121 122
f 87 122 88
f 88 122 123
f 88 123 89
f 89 123 124
f 89 124 125
f 89 125 90
f 90 125 92
f 90 92 91
f 92 126 93
f 92 125 127
f 92 127 128
f 92 128 129
f 92 129 126
f 93 126 96
f 94 96 130
f 96 126 131
f 96 131 132
f 96 132 130
f 97 106 134
f 97 134 133
f 99 135 100
f 100 135 136
f 100 136 137
f 100 137 101
f 101 137 102
f 102 138 139
f 102 139 103
f 102 137 140
f 102 140 141
f 102 141 142
f 102 142 138
f 103 139 143
f 103 143 104
f 104 143 105
f 105 143 139
f 105 139 138
f 105 138 106
f 106 144 145
f 106 145 134
f 106 138 146
f 106 146 147
f 106 147 144
f 107 148 149
f 107 149 108
f 108 149 150
f 108 150 151
f 108 151 109
f 109 151 142
f 109 142 141
f 110 112 152
f 111 113 153
f 111 153 154
f 111 154 155
f 111 155 112
f 112 155 128
f 112 128 156
f 112 156 152
f 114 157 158
f 114 158 116
f 114 115 159
f 114 159 160
f 114 160 157
f 116 158 161
f 116 161 162
f 116 162 117
f 117 162 163
f 117 163 118
f 118 163 119
f 119 163 164
f 119 164 120
f 120 164 165
f 120 165 121
f 121 123 122
f 121 165 166
f 121 166 123
f 123 166 167
f 123 167 168
f 123 168 124
f 124 168 169
f 124 169 125
f 125 169 127
f 126 170 131
f 126 129 128
f 126 128 155
f 126 155 170
f 127 169 171
f 127 171 172
f 127 172 156
f 127 156 128
f 131 170 173
f 131 173 132
f 133 134 174
f 134 145 174
f 138 142 146
f 142 175 146
f 142 151 175
f 144 147 176
f 144 176 177
f 144 177 178
f 144 178 179
f 144 179 174
f 144 174 145
f 146 175 147
f 147 175 180
f 147 180 176
f 148 181 149
f 149 182 183
f 149 183 150
f 149 181 182
f 150 183 184
f 150 184 175
f 150 175 151
f 152 156 185
f 154 186 155
f 155 186 170
f 156 172 185
f 157 187 188
f 157 188 158
f 157 160 189
f 157 189 187
f 158 188 190
f 158 190 191
f 158 191 192
f 158 192 161
f 159 193 160
f 160 193 194
f 160 194 189
f 161 192 195
f 161 195 162
f 162 195 163
f 163 195 196
f 163 196 164
f 164 196 197
f 164 197 198
f 164 198 165
f 165 198 199
f 165 199 200
f 165 200 166
f 166 200 167
f 167 201 202
f 167 202 203
f 167 203 204
f 167 204 205
f 167 205 168
f 167 200 206
f 167 206 201
f 168 205 207
f 168 207 208
f 168 208 209
f 168 209 169
f 169 209 171
f 170 186 210
f 170 210 173
f 171 209 211
f 174 179 212
f 175 184 180
f 176 180 213
f 176 213 214
f 176 214 177
f 177 215 216
f 177 216 217
f 177 217 178
f 177 214 215
f 178 217 212
f 178 212 179
f 180 184 213
f 181 218 182
f 182 219 220
f 182 220 183
f 182 218 219
f 183 220 221
f 183 221 184
f 184 221 213
f 187 222 223
f 187 223 224
f 187 224 188
f 187 189 225
f 187 225 226
f 187 226 222
f 188 224 227
f 188 227 191
f 188 191 190
f 189 194 228
f 189 228 225
f 191 229 230
f 191 230 231
f 191 231 195
f 191 195 192
f 191 227 229
f 195 231 196
f 196 231 197
f 197 231 232
f 197 232 233
f 197 233 199
f 197 199 198
f 199 233 234
f 199 234 206
f 199 206 200
f 201 206 202
f 202 206 235
f 203 236 204
f 204 236 207
f 204 207 205
f 206 234 237
f 206 237 235
f 208 211 209
f 212 217 238
f 213 221 239
f 213 239 214
f 214 229 240
f 214 240 215
f 214 239 229
f 215 223 216
f 215 240 223
f 216 223 222
f 216 222 217
f 217 222 241
f 217 241 238
f 218 242 219
f 219 243 244
f 219 244 220
f 219 242 245
f 219 245 243
f 220 244 246
f 220 246 221
f 221 246 239
f 222 226 247
f 222 247 248
f 222 248 241
f 223 240 224
f 224 240 229
f 224 229 227
f 225 247 226
f 229 239 230
f 230 239 246
f 230 246 232
f 230 232 231
f 232 246 244
f 232 244 233
f 233 244 243
f 233 243 234
f 234 243 249
f 234 249 250
f 234 250 251
f 234 251 237
f 238 241 248
f 243 245 249

