# https://github.com/mikedh/trimesh
v -0.04188569 -0.01150101 -0.06225341
v -0.03762481 -0.01150101 -0.06225341
v -0.04183527 -0.01150101 -0.06176491
v -0.04215798 -0.01056465 -0.06176491
v -0.04202856 -0.01108516 -0.06225341
v -0.04030992 0.00275516 -0.06225341
v -0.03573136 0.00275237 -0.04489379
v -0.03573136 -0.01150101 -0.05361953
v -0.04178820 -0.01150101 -0.06141086
v -0.04196469 -0.01056465 -0.06030166
v -0.04243196 -0.00910359 -0.06030166
v -0.04260004 -0.00910359 -0.06176491
v -0.04220337 -0.01056465 -0.06225341
v -0.04429347 0.00275516 -0.06225341
v -0.03573220 0.00275516 -0.04489379
v -0.03573136 0.00275516 -0.04459800
v -0.03573136 -0.01150101 -0.04555931
v -0.04163105 -0.01150101 -0.06030166
v -0.04162601 -0.01150101 -0.06026804
v -0.04173106 -0.01059535 -0.05893027
v -0.04223026 -0.00910359 -0.05884064
v -0.04265971 -0.00764113 -0.05884064
v -0.04298411 -0.00685687 -0.05970112
v -0.04284880 -0.00757554 -0.06023219
v -0.04290427 -0.00799418 -0.06176491
v -0.04283872 -0.00836538 -0.06225341
v -0.04263534 -0.00910359 -0.06225341
v -0.04249751 -0.00959200 -0.06225341
v -0.04429263 0.00270073 -0.06225341
v -0.04431700 0.00275516 -0.06176491
v -0.03573136 0.00275516 -0.03936345
v -0.03573136 -0.01135030 -0.04540469
v -0.03583894 -0.01150101 -0.04570720
v -0.04161424 -0.01150101 -0.06019634
v -0.04145624 -0.01110191 -0.05850228
v -0.04162516 -0.01006646 -0.05737739
v -0.04196805 -0.00910359 -0.05737739
v -0.04155289 -0.01134193 -0.05947703
v -0.04242776 -0.00764113 -0.05737739
v -0.04292696 -0.00660429 -0.05884064
v -0.04309000 -0.00587306 -0.05884064
v -0.04315639 -0.00629310 -0.06023219
v -0.04307907 -0.00726435 -0.06176491
v -0.04292024 -0.00805419 -0.06225341
v -0.04429011 0.00259189 -0.06225341
v -0.04431280 0.00259189 -0.06176491
v -0.04430692 0.00275516 -0.06160133
v -0.03618687 0.00275516 -0.03993485
v -0.03573136 0.00271888 -0.03936569
v -0.03573136 -0.01108237 -0.04515148
v -0.03692727 -0.01090794 -0.04677607
v -0.03601962 -0.01150101 -0.04598058
v -0.04145204 -0.01150101 -0.05932466
v -0.04132598 -0.01150101 -0.05871291
v -0.04133102 -0.01079769 -0.05737739
v -0.04154028 -0.00985017 -0.05662223
v -0.04168567 -0.00906312 -0.05604858
v -0.04213109 -0.00764113 -0.05591637
v -0.04282359 -0.00611169 -0.05741324
v -0.04252524 -0.00617867 -0.05591637
v -0.04302529 -0.00558001 -0.05792414
v -0.04331859 -0.00471761 -0.05884064
v -0.04347659 -0.00471761 -0.06030166
v -0.04331103 -0.00617867 -0.06176491
v -0.04309168 -0.00732436 -0.06225341
v -0.04427582 0.00210347 -0.06225341
v -0.04422035 0.00259189 -0.06030166
v -0.04424641 0.00112943 -0.06176491
v -0.04422455 0.00275516 -0.06030166
v -0.03691802 0.00275516 -0.04086480
v -0.03618014 0.00259189 -0.03994158
v -0.03573136 0.00259189 -0.03937465
v -0.03573136 -0.01032323 -0.04452181
v -0.03590617 -0.01020183 -0.04464954
v -0.03641630 -0.01055488 -0.04569152
v -0.03720292 -0.00993250 -0.04633015
v -0.03742647 -0.01047813 -0.04721528
v -0.03722141 -0.01141868 -0.04775083
v -0.03711384 -0.01150101 -0.04767016
v -0.04101418 -0.01150101 -0.05737739
v -0.04114361 -0.01042789 -0.05604858
v -0.04141254 -0.00952362 -0.05564748
v -0.04160079 -0.00854958 -0.05495506
v -0.04175795 -0.00765090 -0.05446208
v -0.04217563 -0.00617867 -0.05445312
v -0.04294797 -0.00518788 -0.05694939
v -0.04284376 -0.00470645 -0.05593206
v -0.04251180 -0.00471761 -0.05445312
v -0.04311353 -0.00470645 -0.05741324
v -0.04335389 -0.00325655 -0.05737739
v -0.04355727 -0.00325655 -0.05884064
v -0.04370434 -0.00325655 -0.06030166
v -0.04358668 -0.00471761 -0.06176491
v -0.04351189 -0.00520463 -0.06225341
v -0.04332783 -0.00617867 -0.06225341
v -0.04324548 -0.00660150 -0.06225341
v -0.04423128 0.00112943 -0.06225341
v -0.04415228 0.00112943 -0.06030166
v -0.04408252 0.00259189 -0.05884064
v -0.04420943 0.00275516 -0.06014032
v -0.04420355 0.00064241 -0.06225341
v -0.04414303 -0.00033163 -0.06176491
v -0.03747774 0.00275516 -0.04159530
v -0.03691130 0.00259189 -0.04087151
v -0.03608097 0.00112943 -0.04006706
v -0.03573136 0.00112943 -0.03962338
v -0.03573136 0.00219557 -0.03944188
v -0.03573136 -0.00990319 -0.04417896
v -0.03573136 -0.00944129 -0.04382491
v -0.03617762 -0.00909940 -0.04418569
v -0.03693819 -0.00910359 -0.04527025
v -0.03713569 -0.00834305 -0.04497221
v -0.03740294 -0.00910359 -0.04600075
v -0.03813830 -0.00904637 -0.04721975
v -0.03845933 -0.00949572 -0.04816538
v -0.03817948 -0.01053953 -0.04863596
v -0.03725167 -0.01150101 -0.04789648
v -0.03845849 -0.01100841 -0.04964208
v -0.04089737 -0.01150101 -0.05694043
v -0.04063516 -0.01150101 -0.05599032
v -0.04025361 -0.01150101 -0.05467720
v -0.04051330 -0.01070280 -0.05432091
v -0.04125454 -0.00906312 -0.05446208
v -0.04145708 -0.00814490 -0.05398031
v -0.04162012 -0.00716946 -0.05346268
v -0.04175627 -0.00617449 -0.05298314
v -0.04212521 -0.00471761 -0.05299211
v -0.04303790 -0.00421384 -0.05642952
v -0.04294377 -0.00367240 -0.05545476
v -0.04241431 -0.00325655 -0.05299211
v -0.04281266 -0.00321329 -0.05452707
v -0.04355222 -0.00179409 -0.05737739
v -0.04310765 -0.00321329 -0.05593206
v -0.04329926 -0.00179409 -0.05591637
v -0.04374636 -0.00179409 -0.05884064
v -0.04388923 -0.00179409 -0.06030166
v -0.04399764 -0.00179409 -0.06176491
v -0.04381191 -0.00325655 -0.06176491
v -0.04359004 -0.00471761 -0.06225341
v -0.04404050 -0.00033163 -0.06030166
v -0.04401445 0.00112943 -0.05884064
v -0.04408672 0.00275516 -0.05884064
v -0.04389259 0.00259189 -0.05737739
v -0.04413463 -0.00033163 -0.06225341
v -0.04409009 -0.00082005 -0.06225341
v -0.04399344 -0.00179409 -0.06225341
v -0.03812737 0.00275516 -0.04248042
v -0.03820217 0.00259189 -0.04259919
v -0.03747185 0.00259189 -0.04160426
v -0.03737857 0.00112943 -0.04172751
v -0.03681129 0.00112943 -0.04099700
v -0.03725587 -0.00033163 -0.04189109
v -0.03573136 0.00037308 -0.03980489
v -0.03573136 -0.00866541 -0.04326247
v -0.03581120 -0.00860959 -0.04332297
v -0.03684070 -0.00776951 -0.04419241
v -0.03734747 -0.00736901 -0.04466074
v -0.03832991 -0.00617867 -0.04540693
v -0.03862070 -0.00693362 -0.04639737
v -0.03840807 -0.00790906 -0.04678055
v -0.03867532 -0.00852028 -0.04775531
v -0.03889803 -0.00904637 -0.04863596
v -0.03871146 -0.01003437 -0.04914014
v -0.03829461 -0.01150101 -0.04987736
v -0.03869801 -0.01145636 -0.05061684
v -0.04017461 -0.01150101 -0.05442623
v -0.04006452 -0.01128053 -0.05374502
v -0.04027042 -0.01026044 -0.05299211
v -0.04075534 -0.00910359 -0.05299211
v -0.04129152 -0.00765090 -0.05298314
v -0.04145708 -0.00665872 -0.05248792
v -0.04160415 -0.00568328 -0.05206216
v -0.04169576 -0.00461155 -0.05155798
v -0.04196973 -0.00325655 -0.05152885
v -0.04302445 -0.00269836 -0.05506262
v -0.04263282 -0.00179409 -0.05299211
v -0.04291267 -0.00179409 -0.05408114
v -0.04219832 -0.00179409 -0.05152885
v -0.04345810 -0.00033163 -0.05591637
v -0.04370938 -0.00033163 -0.05737739
v -0.04307907 -0.00179409 -0.05481389
v -0.04390015 -0.00033163 -0.05884064
v -0.04393293 -0.00228251 -0.06225341
v -0.04380939 -0.00325655 -0.06225341
v -0.04373964 -0.00374496 -0.06225341
v -0.04382368 0.00112943 -0.05737739
v -0.04389595 0.00275516 -0.05737739
v -0.04365224 0.00259189 -0.05591637
v -0.04365643 0.00275516 -0.05591637
v -0.04386990 0.00275516 -0.05721605
v -0.03820889 0.00275516 -0.04259246
v -0.03872659 0.00275516 -0.04332297
v -0.03871986 0.00259189 -0.04333194
v -0.03866019 0.00148388 -0.04341933
v -0.03820133 0.00104989 -0.04286360
v -0.03853581 -0.00033163 -0.04359635
v -0.03791223 -0.00033163 -0.04275829
v -0.03573136 -0.00033163 -0.03997519
v -0.03841648 -0.00179409 -0.04375993
v -0.03828033 -0.00325655 -0.04394368
v -0.03754917 -0.00325655 -0.04299357
v -0.03717351 -0.00117869 -0.04199865
v -0.03573136 -0.00838631 -0.04308544
v -0.03604231 -0.00764113 -0.04303167
v -0.03701047 -0.00655545 -0.04368598
v -0.03753909 -0.00611308 -0.04419241
v -0.03852405 -0.00520603 -0.04508874
v -0.03877449 -0.00617867 -0.04613744
v -0.03932412 -0.00617867 -0.04714581
v -0.03881987 -0.00750995 -0.04721975
v -0.03958633 -0.00752949 -0.04872559
v -0.03989896 -0.00794255 -0.04972499
v -0.03963843 -0.00901986 -0.05015523
v -0.03990904 -0.00945106 -0.05117704
v -0.03891736 -0.01053953 -0.05010593
v -0.03865011 -0.01150101 -0.05057426
v -0.03871062 -0.01150101 -0.05070423
v -0.03961910 -0.01047673 -0.05161176
v -0.03992333 -0.01099166 -0.05299211
v -0.03909552 -0.01150101 -0.05163417
v -0.04000317 -0.01150101 -0.05390636
v -0.03965104 -0.01150101 -0.05299211
v -0.04011747 -0.00992971 -0.05215180
v -0.04026706 -0.00901986 -0.05161176
v -0.04076290 -0.00764113 -0.05152885
v -0.04127135 -0.00617449 -0.05155798
v -0.04142935 -0.00502880 -0.05108741
v -0.04155121 -0.00405615 -0.05075577
v -0.04163020 -0.00325655 -0.05054513
v -0.04282275 -0.00034000 -0.05307950
v -0.04297150 -0.00083121 -0.05383690
v -0.04236557 -0.00033163 -0.05152885
v -0.04174702 -0.00179409 -0.05023365
v -0.04357912 0.00112943 -0.05591637
v -0.04314042 -0.00034000 -0.05437693
v -0.04328413 0.00112943 -0.05445312
v -0.04336565 0.00259189 -0.05445312
v -0.04362534 0.00275516 -0.05575279
v -0.03930311 0.00275516 -0.04422154
v -0.03928966 0.00259189 -0.04422154
v -0.03903838 0.00104989 -0.04408709
v -0.03902913 -0.00033163 -0.04432686
v -0.03859632 0.00050984 -0.04351120
v -0.03892661 -0.00179409 -0.04449044
v -0.03573136 -0.00160431 -0.04032027
v -0.03695416 -0.00325655 -0.04226306
v -0.03880223 -0.00325655 -0.04467643
v -0.03735168 -0.00471761 -0.04323782
v -0.03869549 -0.00423338 -0.04482880
v -0.03676170 -0.00471761 -0.04250732
v -0.03573136 -0.00764113 -0.04263728
v -0.03573136 -0.00698944 -0.04226979
v -0.03573136 -0.00675500 -0.04214206
v -0.03642470 -0.00620100 -0.04274708
v -0.03719956 -0.00558141 -0.04342381
v -0.03900560 -0.00471900 -0.04561981
v -0.03813662 -0.00471900 -0.04429325
v -0.03981492 -0.00480971 -0.04714581
v -0.04004435 -0.00535813 -0.04793682
v -0.03989140 -0.00617867 -0.04825053
v -0.04009477 -0.00696851 -0.04929027
v -0.04011578 -0.00847702 -0.05069974
v -0.04025025 -0.00752949 -0.05015523
v -0.04069063 -0.00617867 -0.05007008
v -0.04119319 -0.00461155 -0.05018884
v -0.04086879 -0.00325655 -0.04860682
v -0.04135539 -0.00325655 -0.04981462
v -0.04249247 0.00112943 -0.05152885
v -0.04285637 0.00112943 -0.05276130
v -0.04302360 0.00014283 -0.05362402
v -0.04179745 -0.00041955 -0.04994011
v -0.04199158 0.00112943 -0.05007008
v -0.04147053 -0.00179409 -0.04950315
v -0.04152431 -0.00096657 -0.04936422
v -0.04305974 0.00112943 -0.05349180
v -0.04310009 0.00259189 -0.05332599
v -0.04310345 0.00275516 -0.05331478
v -0.04333876 0.00275516 -0.05431643
v -0.04337070 0.00275516 -0.05445312
v -0.03991829 0.00275516 -0.04521422
v -0.03991156 0.00259189 -0.04522543
v -0.03983929 0.00112943 -0.04535091
v -0.03975945 -0.00033163 -0.04549209
v -0.03972499 -0.00183037 -0.04578115
v -0.03573136 -0.00229227 -0.04050850
v -0.03573136 -0.00393893 -0.04099028
v -0.03573136 -0.00344633 -0.04082894
v -0.03612383 -0.00314491 -0.04122109
v -0.03942161 -0.00325655 -0.04568255
v -0.03583809 -0.00584515 -0.04185075
v -0.03996115 -0.00325655 -0.04663714
v -0.03603055 -0.00471761 -0.04161771
v -0.03573136 -0.00591911 -0.04176112
v -0.04019142 -0.00438409 -0.04763207
v -0.04045027 -0.00480971 -0.04849702
v -0.04023008 -0.00617867 -0.04898328
v -0.04109655 -0.00179409 -0.04860682
v -0.04031665 -0.00325655 -0.04736765
v -0.04210084 0.00259189 -0.05007008
v -0.04259500 0.00259189 -0.05152885
v -0.04290595 0.00259189 -0.05259548
v -0.04157390 0.00000886 -0.04924322
v -0.04162516 0.00112943 -0.04911773
v -0.04168147 0.00259189 -0.04896984
v -0.04129572 -0.00041955 -0.04869646
v -0.04308244 0.00275516 -0.05323187
v -0.04291015 0.00275516 -0.05258203
v -0.04028807 0.00275516 -0.04586406
v -0.04032757 0.00259189 -0.04595593
v -0.04025697 0.00112943 -0.04608142
v -0.04017713 -0.00033163 -0.04622259
v -0.04011578 -0.00136847 -0.04633463
v -0.04004519 -0.00234251 -0.04646684
v -0.03573136 -0.00262579 -0.04060038
v -0.03573136 -0.00471761 -0.04126590
v -0.03573136 -0.00556466 -0.04161099
v -0.04038388 -0.00183037 -0.04703153
v -0.04061751 -0.00033163 -0.04714581
v -0.04205881 0.00275516 -0.04993563
v -0.04210924 0.00275516 -0.05007008
v -0.04260256 0.00275516 -0.05152885
v -0.04131673 0.00112943 -0.04838723
v -0.04138480 0.00259189 -0.04823933
v -0.04168567 0.00275516 -0.04895863
v -0.04138985 0.00275516 -0.04822812
v -0.04077046 0.00112943 -0.04714581
v -0.04033261 0.00275516 -0.04594473
v -0.04085030 0.00275516 -0.04700240
v -0.04090913 0.00259189 -0.04714581
v -0.04091922 0.00275516 -0.04714581
f 1 2 8
f 1 8 17
f 1 17 33
f 1 33 52
f 1 52 79
f 1 79 117
f 1 117 164
f 1 164 216
f 1 216 217
f 1 217 220
f 1 220 222
f 1 222 221
f 1 221 166
f 1 166 121
f 1 121 120
f 1 120 119
f 1 119 80
f 1 80 54
f 1 54 53
f 1 53 34
f 1 34 19
f 1 19 18
f 1 18 9
f 1 9 3
f 1 3 4
f 1 4 5
f 1 5 13
f 1 13 28
f 1 28 27
f 1 27 26
f 1 26 44
f 1 44 65
f 1 65 96
f 1 96 95
f 1 95 94
f 1 94 139
f 1 139 185
f 1 185 184
f 1 184 183
f 1 183 146
f 1 146 145
f 1 145 144
f 1 144 101
f 1 101 97
f 1 97 66
f 1 66 45
f 1 45 29
f 1 29 14
f 1 14 6
f 1 6 2
f 2 6 7
f 2 7 8
f 3 9 10
f 3 10 4
f 4 10 11
f 4 11 12
f 4 12 13
f 4 13 5
f 6 14 30
f 6 30 47
f 6 47 69
f 6 69 100
f 6 100 142
f 6 142 187
f 6 187 190
f 6 190 189
f 6 189 238
f 6 238 279
f 6 279 278
f 6 278 277
f 6 277 306
f 6 306 307
f 6 307 321
f 6 321 320
f 6 320 319
f 6 319 324
f 6 324 325
f 6 325 330
f 6 330 328
f 6 328 327
f 6 327 308
f 6 308 280
f 6 280 239
f 6 239 192
f 6 192 191
f 6 191 147
f 6 147 103
f 6 103 70
f 6 70 48
f 6 48 31
f 6 31 16
f 6 16 15
f 6 15 7
f 7 15 16
f 7 16 31
f 7 31 49
f 7 49 72
f 7 72 107
f 7 107 106
f 7 106 153
f 7 153 198
f 7 198 245
f 7 245 285
f 7 285 314
f 7 314 287
f 7 287 286
f 7 286 315
f 7 315 316
f 7 316 293
f 7 293 253
f 7 253 252
f 7 252 251
f 7 251 203
f 7 203 154
f 7 154 109
f 7 109 108
f 7 108 73
f 7 73 50
f 7 50 32
f 7 32 17
f 7 17 8
f 9 18 10
f 10 18 19
f 10 19 20
f 10 20 21
f 10 21 11
f 11 21 22
f 11 22 23
f 11 23 24
f 11 24 12
f 12 24 25
f 12 25 26
f 12 26 27
f 12 27 28
f 12 28 13
f 14 29 30
f 17 32 33
f 19 34 20
f 20 35 36
f 20 36 37
f 20 37 21
f 20 34 38
f 20 38 35
f 21 37 39
f 21 39 22
f 22 40 23
f 22 39 40
f 23 40 41
f 23 41 42
f 23 42 43
f 23 43 25
f 23 25 24
f 25 43 44
f 25 44 26
f 29 45 30
f 30 45 46
f 30 46 47
f 31 48 49
f 32 50 33
f 33 51 52
f 33 50 51
f 34 53 38
f 35 38 54
f 35 54 55
f 35 55 36
f 36 55 56
f 36 56 37
f 37 56 57
f 37 57 58
f 37 58 39
f 38 53 54
f 39 59 40
f 39 58 60
f 39 60 59
f 40 59 61
f 40 61 41
f 41 61 62
f 41 62 63
f 41 63 42
f 42 63 64
f 42 64 43
f 43 64 65
f 43 65 44
f 45 66 46
f 46 67 47
f 46 66 68
f 46 68 67
f 47 67 69
f 48 70 104
f 48 104 71
f 48 71 72
f 48 72 49
f 50 73 74
f 50 74 75
f 50 75 51
f 51 75 76
f 51 76 77
f 51 77 78
f 51 78 52
f 52 78 79
f 54 80 55
f 55 80 81
f 55 81 56
f 56 81 82
f 56 82 83
f 56 83 57
f 57 83 58
f 58 83 84
f 58 84 85
f 58 85 60
f 59 60 86
f 59 86 61
f 60 87 86
f 60 85 88
f 60 88 87
f 61 86 89
f 61 89 62
f 62 89 90
f 62 90 91
f 62 91 63
f 63 91 92
f 63 92 93
f 63 93 64
f 64 93 94
f 64 94 95
f 64 95 96
f 64 96 65
f 66 97 68
f 67 98 141
f 67 141 99
f 67 99 100
f 67 100 69
f 67 68 98
f 68 97 101
f 68 101 144
f 68 144 102
f 68 102 98
f 70 103 104
f 71 105 106
f 71 106 107
f 71 107 72
f 71 104 105
f 73 108 74
f 74 108 109
f 74 109 110
f 74 110 111
f 74 111 76
f 74 76 75
f 76 111 112
f 76 112 113
f 76 113 114
f 76 114 115
f 76 115 77
f 77 115 116
f 77 116 78
f 78 117 79
f 78 116 118
f 78 118 117
f 80 119 81
f 81 119 120
f 81 120 121
f 81 121 122
f 81 122 82
f 82 123 83
f 82 122 123
f 83 123 124
f 83 124 84
f 84 124 125
f 84 125 85
f 85 125 126
f 85 126 127
f 85 127 88
f 86 87 128
f 86 128 89
f 87 129 128
f 87 88 129
f 88 127 130
f 88 130 131
f 88 131 129
f 89 128 90
f 90 132 91
f 90 128 133
f 90 133 134
f 90 134 132
f 91 135 92
f 91 132 135
f 92 135 136
f 92 136 137
f 92 137 138
f 92 138 93
f 93 138 139
f 93 139 94
f 98 140 141
f 98 102 140
f 99 142 100
f 99 141 143
f 99 143 142
f 102 137 140
f 102 144 145
f 102 145 146
f 102 146 137
f 103 147 148
f 103 148 149
f 103 149 104
f 104 149 150
f 104 150 151
f 104 151 105
f 105 151 152
f 105 152 106
f 106 152 153
f 109 154 155
f 109 155 110
f 110 112 111
f 110 155 112
f 112 155 156
f 112 156 157
f 112 157 158
f 112 158 159
f 112 159 160
f 112 160 113
f 113 160 114
f 114 161 115
f 114 160 161
f 115 161 162
f 115 162 163
f 115 163 116
f 116 163 118
f 117 118 164
f 118 163 165
f 118 165 164
f 121 166 167
f 121 167 122
f 122 167 168
f 122 168 123
f 123 168 169
f 123 169 124
f 124 169 170
f 124 170 125
f 125 170 171
f 125 171 126
f 126 171 172
f 126 172 127
f 127 172 173
f 127 173 174
f 127 174 130
f 128 129 133
f 129 131 175
f 129 175 133
f 130 176 177
f 130 177 131
f 130 174 178
f 130 178 176
f 131 177 175
f 132 134 179
f 132 179 180
f 132 180 135
f 133 175 134
f 134 175 181
f 134 181 179
f 135 182 136
f 135 180 182
f 136 182 140
f 136 140 137
f 137 146 183
f 137 183 184
f 137 184 138
f 138 184 185
f 138 185 139
f 140 182 141
f 141 182 180
f 141 180 186
f 141 186 143
f 142 143 187
f 143 186 188
f 143 188 189
f 143 189 190
f 143 190 187
f 147 191 148
f 148 191 192
f 148 192 193
f 148 193 194
f 148 194 195
f 148 195 150
f 148 150 149
f 150 195 196
f 150 196 197
f 150 197 152
f 150 152 151
f 152 198 153
f 152 197 199
f 152 199 200
f 152 200 201
f 152 201 202
f 152 202 198
f 154 203 155
f 155 203 204
f 155 204 156
f 156 204 205
f 156 205 157
f 157 205 206
f 157 206 207
f 157 207 158
f 158 207 208
f 158 208 159
f 159 208 209
f 159 209 210
f 159 210 161
f 159 161 160
f 161 210 211
f 161 211 162
f 162 211 212
f 162 212 213
f 162 213 163
f 163 213 214
f 163 214 215
f 163 215 165
f 164 165 216
f 165 217 216
f 165 215 218
f 165 218 219
f 165 219 220
f 165 220 217
f 166 221 167
f 167 221 222
f 167 222 219
f 167 219 223
f 167 223 168
f 168 223 169
f 169 223 224
f 169 224 225
f 169 225 170
f 170 225 171
f 171 225 226
f 171 226 172
f 172 226 227
f 172 227 173
f 173 227 228
f 173 228 174
f 174 228 229
f 174 229 178
f 175 177 181
f 176 230 231
f 176 231 177
f 176 178 232
f 176 232 230
f 177 231 181
f 178 229 233
f 178 233 232
f 179 234 180
f 179 181 235
f 179 235 236
f 179 236 234
f 180 234 186
f 181 231 235
f 186 234 188
f 188 234 237
f 188 237 238
f 188 238 189
f 192 239 193
f 193 239 240
f 193 240 194
f 194 241 242
f 194 242 243
f 194 243 195
f 194 240 241
f 195 243 196
f 196 199 197
f 196 243 242
f 196 242 244
f 196 244 199
f 198 202 201
f 198 201 246
f 198 246 245
f 199 244 247
f 199 247 200
f 200 248 201
f 200 247 249
f 200 249 248
f 201 248 250
f 201 250 246
f 203 251 204
f 204 251 252
f 204 252 205
f 205 252 253
f 205 253 254
f 205 254 255
f 205 255 207
f 205 207 206
f 207 256 208
f 207 255 257
f 207 257 249
f 207 249 256
f 208 256 258
f 208 258 209
f 209 258 259
f 209 259 260
f 209 260 211
f 209 211 210
f 211 261 212
f 211 260 261
f 212 262 213
f 212 261 262
f 213 262 214
f 214 218 215
f 214 262 223
f 214 223 218
f 218 223 219
f 219 222 220
f 223 262 224
f 224 262 225
f 225 262 263
f 225 263 264
f 225 264 226
f 226 264 227
f 227 264 265
f 227 265 228
f 228 265 266
f 228 266 267
f 228 267 229
f 229 267 233
f 230 232 268
f 230 268 269
f 230 269 270
f 230 270 231
f 231 270 235
f 232 233 271
f 232 271 272
f 232 272 268
f 233 267 273
f 233 273 274
f 233 274 271
f 234 236 237
f 235 270 236
f 236 270 275
f 236 275 237
f 237 275 276
f 237 276 277
f 237 277 278
f 237 278 279
f 237 279 238
f 239 280 240
f 240 280 281
f 240 281 282
f 240 282 241
f 241 282 283
f 241 283 242
f 242 283 244
f 244 283 284
f 244 284 247
f 245 246 285
f 246 250 286
f 246 286 287
f 246 287 288
f 246 288 285
f 247 284 289
f 247 289 249
f 248 249 257
f 248 257 255
f 248 255 290
f 248 290 250
f 249 289 291
f 249 291 256
f 250 290 292
f 250 292 286
f 253 293 290
f 253 290 254
f 254 290 255
f 256 291 258
f 258 294 259
f 258 291 294
f 259 294 295
f 259 295 264
f 259 264 296
f 259 296 261
f 259 261 260
f 261 296 264
f 261 264 263
f 261 263 262
f 264 295 265
f 265 295 266
f 266 297 273
f 266 273 267
f 266 295 294
f 266 294 298
f 266 298 297
f 268 272 299
f 268 299 300
f 268 300 269
f 269 301 275
f 269 275 270
f 269 300 301
f 271 274 302
f 271 302 272
f 272 302 303
f 272 303 304
f 272 304 299
f 273 297 274
f 274 297 305
f 274 305 302
f 275 301 276
f 276 306 277
f 276 301 307
f 276 307 306
f 280 308 309
f 280 309 281
f 281 309 310
f 281 310 282
f 282 310 311
f 282 311 283
f 283 311 312
f 283 312 284
f 284 312 313
f 284 313 289
f 285 288 314
f 286 292 315
f 287 314 288
f 289 313 291
f 290 293 316
f 290 316 315
f 290 315 292
f 291 313 298
f 291 298 294
f 297 298 317
f 297 317 318
f 297 318 305
f 298 313 317
f 299 304 319
f 299 319 320
f 299 320 300
f 300 320 321
f 300 321 307
f 300 307 301
f 302 305 322
f 302 322 303
f 303 322 323
f 303 323 304
f 304 324 319
f 304 323 325
f 304 325 324
f 305 318 326
f 305 326 322
f 308 327 309
f 309 327 328
f 309 328 329
f 309 329 310
f 310 329 326
f 310 326 311
f 311 326 318
f 311 318 312
f 312 318 317
f 312 317 313
f 322 326 329
f 322 329 323
f 323 329 330
f 323 330 325
f 328 330 329

