# https://github.com/mikedh/trimesh
v -0.02410086 -0.02675294 0.04642950
v -0.02472143 -0.02644679 0.04642950
v -0.02468421 -0.02641332 0.04501008
v -0.02410086 -0.02672443 0.04565248
v -0.02410086 -0.02673930 0.04789143
v -0.02472143 -0.02643563 0.04789143
v -0.02559044 -0.02599438 0.04642950
v -0.02554775 -0.02596959 0.04501008
v -0.02552368 -0.02598199 0.04501008
v -0.02472143 -0.02639473 0.04501008
v -0.02410086 -0.02669840 0.04501008
v -0.02410086 -0.02648769 0.06397267
v -0.02557840 -0.02598819 0.04789143
v -0.02461088 -0.02623608 0.06397267
v -0.02534199 -0.02585804 0.06397267
v -0.02632155 -0.02557916 0.04642950
v -0.02627886 -0.02555561 0.04501008
v -0.02556855 -0.02595844 0.04501008
v -0.02410086 -0.02259702 0.04501008
v -0.02410086 -0.02619766 0.06528817
v -0.02440403 -0.02611833 0.06517009
v -0.02630951 -0.02556925 0.04789143
v -0.02713146 -0.02460743 0.06518190
v -0.02618365 -0.02534367 0.06397267
v -0.02751890 -0.02484788 0.04642950
v -0.02746199 -0.02484540 0.04501008
v -0.03133862 -0.01409182 0.04501008
v -0.02692460 -0.01409182 0.06017732
v -0.02689943 -0.01409182 0.06028360
v -0.02410086 -0.01828245 0.05941920
v -0.02410086 -0.02597331 0.06583138
v -0.02482321 -0.02574525 0.06556686
v -0.02690709 -0.02445125 0.06615494
v -0.02632483 -0.02496687 0.06557631
v -0.02750249 -0.02483796 0.04789143
v -0.02762945 -0.02411164 0.06557631
v -0.02872283 -0.02329855 0.06543460
v -0.02794356 -0.02411412 0.06397267
v -0.02721245 -0.02467188 0.06397267
v -0.02825001 -0.02436697 0.04642950
v -0.02822594 -0.02435333 0.04501008
v -0.02749483 -0.02482433 0.04501008
v -0.03528092 -0.01409182 0.04501008
v -0.02410086 -0.01822295 0.05970733
v -0.02686113 -0.01409182 0.06104881
v -0.02410086 -0.02587787 0.06604866
v -0.02593301 -0.02470534 0.06641710
v -0.02764477 -0.02260817 0.06732874
v -0.02764477 -0.02344729 0.06659895
v -0.02852254 -0.02311511 0.06631082
v -0.02823250 -0.02435086 0.04789143
v -0.02945394 -0.02262057 0.06543460
v -0.02880929 -0.02338284 0.06397267
v -0.02986327 -0.02301843 0.04747576
v -0.02910699 -0.02367163 0.04642950
v -0.02915186 -0.02359602 0.04501008
v -0.03497228 -0.01495325 0.04501008
v -0.03495258 -0.01495325 0.04642950
v -0.03525028 -0.01409182 0.04644131
v -0.02410086 -0.01821180 0.06044892
v -0.02686769 -0.01409182 0.06122358
v -0.02410086 -0.01821180 0.06090238
v -0.02410086 -0.02515031 0.06665800
v -0.02472143 -0.02499910 0.06662257
v -0.02661159 -0.02288209 0.06757200
v -0.02847767 -0.02161660 0.06767828
v -0.02997819 -0.02169469 0.06635569
v -0.02898769 -0.02214337 0.06682096
v -0.03014017 -0.02188928 0.06543460
v -0.02953931 -0.02266271 0.06397267
v -0.03128718 -0.02151620 0.04642950
v -0.03059329 -0.02226236 0.04642950
v -0.02987421 -0.02302959 0.04642950
v -0.02986108 -0.02301595 0.04526043
v -0.02948677 -0.02331962 0.04501008
v -0.03445569 -0.01620139 0.04501008
v -0.03444803 -0.01619767 0.04642950
v -0.03440863 -0.01611091 0.04789143
v -0.03486064 -0.01495325 0.04789143
v -0.03515506 -0.01409182 0.04789143
v -0.02689834 -0.01409182 0.06188015
v -0.02687864 -0.01411661 0.06185417
v -0.02746199 -0.01409182 0.06689654
v -0.02410086 -0.01992350 0.06634860
v -0.02410086 -0.02370757 0.06739959
v -0.02472143 -0.02379806 0.06735472
v -0.02563641 -0.02305562 0.06765465
v -0.02764477 -0.02187689 0.06777275
v -0.02945284 -0.02117039 0.06732874
v -0.02910699 -0.01933971 0.06828997
v -0.02902271 -0.02072915 0.06783888
v -0.02994317 -0.02019618 0.06769954
v -0.03130798 -0.02008339 0.06618091
v -0.03128061 -0.01857992 0.06760979
v -0.03099934 -0.01933971 0.06726024
v -0.03087019 -0.02091011 0.06543460
v -0.03183114 -0.02078492 0.04642950
v -0.03182785 -0.02076385 0.04501008
v -0.03126967 -0.02149513 0.04501008
v -0.03019927 -0.02264164 0.04501008
v -0.03412297 -0.01693267 0.04501008
v -0.03412516 -0.01692895 0.04642950
v -0.03408794 -0.01684219 0.04789143
v -0.03280412 -0.01725989 0.06512757
v -0.03299566 -0.01654968 0.06554324
v -0.03344877 -0.01495325 0.06543460
v -0.03362389 -0.01409182 0.06543460
v -0.02787570 -0.01409182 0.06815772
v -0.02410086 -0.02067337 0.06709965
v -0.02410086 -0.02303826 0.06764049
v -0.02472143 -0.02306677 0.06765465
v -0.02764477 -0.02079979 0.06810576
v -0.02910699 -0.01787714 0.06861589
v -0.03056811 -0.01641458 0.06866314
v -0.03070383 -0.01800605 0.06813882
v -0.03026823 -0.01933971 0.06788139
v -0.03275488 -0.01712603 0.06610062
v -0.03182019 -0.01933971 0.06543460
v -0.03136489 -0.02018006 0.06543460
v -0.03150827 -0.01933971 0.06653046
v -0.03151483 -0.01760446 0.06782234
v -0.03270015 -0.01550605 0.06752240
v -0.03187929 -0.01800605 0.06703115
v -0.03256115 -0.01975245 0.04642950
v -0.03255896 -0.01975493 0.04501008
v -0.03363921 -0.01787714 0.04501008
v -0.03363812 -0.01787714 0.04642950
v -0.03356479 -0.01787714 0.04789143
v -0.03253598 -0.01779906 0.06554324
v -0.03291905 -0.01615181 0.06654699
v -0.03345424 -0.01409182 0.06629664
v -0.02902709 -0.01409182 0.06889458
v -0.02410086 -0.02143564 0.06764521
v -0.02410086 -0.02226236 0.06765938
v -0.02970457 -0.01409182 0.06913076
v -0.02974616 -0.01444631 0.06911423
v -0.02764477 -0.01933971 0.06834901
v -0.03002635 -0.01444631 0.06911423
v -0.03053528 -0.01494085 0.06895835
v -0.03094790 -0.01409182 0.06903629
v -0.03112520 -0.01409182 0.06895126
v -0.03178079 -0.01641458 0.06802782
v -0.03255787 -0.01654968 0.06697919
v -0.03296939 -0.01895795 0.04789143
v -0.03300551 -0.01902117 0.04642950
v -0.03307337 -0.01499291 0.06697919
v -0.03284572 -0.01453183 0.06773023
v -0.03300879 -0.01902365 0.04501008
v -0.03330430 -0.01409182 0.06692960
v -0.03021569 -0.01409182 0.06913548
v -0.03201829 -0.01409182 0.06847420
v -0.03213978 -0.01499291 0.06816007
v -0.03246046 -0.01409182 0.06813410
v -0.03289825 -0.01409182 0.06779400
f 1 2 3
f 1 3 4
f 1 4 11
f 1 11 19
f 1 19 30
f 1 30 44
f 1 44 60
f 1 60 62
f 1 62 84
f 1 84 109
f 1 109 133
f 1 133 134
f 1 134 110
f 1 110 85
f 1 85 63
f 1 63 46
f 1 46 31
f 1 31 20
f 1 20 12
f 1 12 5
f 1 5 6
f 1 6 2
f 2 6 7
f 2 7 8
f 2 8 9
f 2 9 10
f 2 10 3
f 3 11 4
f 3 10 9
f 3 9 8
f 3 8 18
f 3 18 17
f 3 17 26
f 3 26 42
f 3 42 41
f 3 41 56
f 3 56 75
f 3 75 100
f 3 100 99
f 3 99 98
f 3 98 125
f 3 125 148
f 3 148 126
f 3 126 101
f 3 101 76
f 3 76 57
f 3 57 43
f 3 43 27
f 3 27 19
f 3 19 11
f 5 12 6
f 6 13 7
f 6 12 14
f 6 14 15
f 6 15 13
f 7 13 16
f 7 16 17
f 7 17 18
f 7 18 8
f 12 20 21
f 12 21 14
f 13 22 16
f 13 15 22
f 14 21 15
f 15 21 23
f 15 23 24
f 15 24 22
f 16 22 25
f 16 25 26
f 16 26 17
f 19 27 28
f 19 28 29
f 19 29 30
f 20 31 21
f 21 31 32
f 21 32 33
f 21 33 34
f 21 34 23
f 22 35 25
f 22 24 35
f 23 34 33
f 23 33 36
f 23 36 37
f 23 37 38
f 23 38 39
f 23 39 24
f 24 39 35
f 25 35 40
f 25 40 41
f 25 41 42
f 25 42 26
f 27 43 59
f 27 59 80
f 27 80 107
f 27 107 131
f 27 131 149
f 27 149 154
f 27 154 153
f 27 153 151
f 27 151 141
f 27 141 140
f 27 140 150
f 27 150 135
f 27 135 132
f 27 132 108
f 27 108 83
f 27 83 81
f 27 81 61
f 27 61 45
f 27 45 29
f 27 29 28
f 29 44 30
f 29 45 44
f 31 46 32
f 32 46 33
f 33 46 47
f 33 47 48
f 33 48 49
f 33 49 50
f 33 50 36
f 35 51 40
f 35 39 51
f 36 50 37
f 37 52 53
f 37 53 38
f 37 50 52
f 38 53 54
f 38 54 51
f 38 51 39
f 40 51 55
f 40 55 41
f 41 55 56
f 43 57 58
f 43 58 59
f 44 45 60
f 45 61 62
f 45 62 60
f 46 63 64
f 46 64 47
f 47 64 65
f 47 65 48
f 48 65 66
f 48 66 49
f 49 66 50
f 50 67 52
f 50 66 68
f 50 68 67
f 51 54 55
f 52 67 69
f 52 69 70
f 52 70 53
f 53 70 54
f 54 71 72
f 54 72 73
f 54 73 55
f 54 70 71
f 55 73 74
f 55 74 75
f 55 75 56
f 57 76 77
f 57 77 58
f 58 77 78
f 58 78 79
f 58 79 59
f 59 79 80
f 61 81 82
f 61 82 62
f 62 82 83
f 62 83 84
f 63 85 86
f 63 86 87
f 63 87 65
f 63 65 64
f 65 87 88
f 65 88 66
f 66 89 68
f 66 88 90
f 66 90 91
f 66 91 92
f 66 92 89
f 67 93 69
f 67 68 89
f 67 89 92
f 67 92 94
f 67 94 95
f 67 95 93
f 69 93 96
f 69 96 71
f 69 71 70
f 71 97 98
f 71 98 99
f 71 99 72
f 71 96 97
f 72 99 74
f 72 74 73
f 74 99 100
f 74 100 75
f 76 101 102
f 76 102 77
f 77 102 103
f 77 103 78
f 78 103 104
f 78 104 79
f 79 104 80
f 80 104 105
f 80 105 106
f 80 106 107
f 81 83 82
f 83 108 84
f 84 108 109
f 85 110 111
f 85 111 87
f 85 87 86
f 87 111 112
f 87 112 88
f 88 112 90
f 90 113 114
f 90 114 115
f 90 115 116
f 90 116 92
f 90 92 91
f 90 112 113
f 92 116 94
f 93 117 118
f 93 118 119
f 93 119 96
f 93 95 94
f 93 94 120
f 93 120 117
f 94 116 115
f 94 115 121
f 94 121 122
f 94 122 123
f 94 123 120
f 96 119 124
f 96 124 97
f 97 124 125
f 97 125 98
f 101 126 102
f 102 126 127
f 102 127 128
f 102 128 103
f 103 128 118
f 103 118 129
f 103 129 104
f 104 129 117
f 104 117 105
f 105 117 106
f 106 117 130
f 106 130 131
f 106 131 107
f 108 132 133
f 108 133 109
f 110 134 135
f 110 135 136
f 110 136 137
f 110 137 111
f 111 137 112
f 112 137 113
f 113 137 136
f 113 136 138
f 113 138 139
f 113 139 114
f 114 139 140
f 114 140 141
f 114 141 142
f 114 142 115
f 115 142 121
f 117 129 118
f 117 120 123
f 117 123 143
f 117 143 130
f 118 128 119
f 119 128 144
f 119 144 145
f 119 145 124
f 121 142 122
f 122 146 130
f 122 130 143
f 122 143 123
f 122 142 147
f 122 147 146
f 124 145 148
f 124 148 125
f 126 148 127
f 127 148 145
f 127 145 144
f 127 144 128
f 130 146 149
f 130 149 131
f 132 135 133
f 133 135 134
f 135 150 136
f 136 150 138
f 138 150 140
f 138 140 139
f 141 151 142
f 142 151 152
f 142 152 147
f 146 147 149
f 147 152 151
f 147 151 153
f 147 153 154
f 147 154 149

