# https://github.com/mikedh/trimesh
v 0.00948270 0.01575181 0.07002949
v 0.00890664 0.01721363 0.06987206
v 0.00744467 0.01721363 0.07008197
v 0.00410754 0.01658307 0.07057085
v 0.00410754 0.01643087 0.07057085
v 0.00890664 0.01575181 0.07005987
v 0.00948270 0.01454170 0.06950195
v 0.00948270 0.01725879 0.06974500
v 0.00890664 0.01818289 0.06931414
v 0.00744467 0.01833258 0.06945223
v 0.00598269 0.01721363 0.07025045
v 0.00598269 0.01844799 0.06956272
v 0.00305873 0.01673193 0.07059846
v 0.00456574 0.01712833 0.07040788
v 0.00305873 0.01746285 0.07044103
v 0.00159808 0.01766105 0.07049075
v 0.00305873 0.01636397 0.07059846
v -0.00404590 0.01471147 0.06965662
v 0.00948270 0.01401484 0.06835849
v -0.00404590 0.01598597 0.07073932
v -0.00404590 0.01535708 0.07044379
v -0.00404590 0.01525505 0.07038856
v 0.00948270 0.01811097 0.06924785
v 0.00744467 0.01906350 0.06857668
v 0.00598269 0.01917890 0.06874792
v 0.00452071 0.01927006 0.06888603
v 0.00452071 0.01853915 0.06964833
v 0.00013610 0.01783332 0.07052941
v 0.00159808 0.01693097 0.07062884
v -0.00278918 0.01721363 0.07073104
v 0.00159808 0.01628954 0.07062884
v -0.00404590 0.01425402 0.06397244
v 0.00948270 0.01331570 0.06251135
v -0.00404590 0.01721363 0.07075589
v 0.00948270 0.01877916 0.06834468
v 0.00889870 0.01897820 0.06826458
v 0.00840740 0.01945488 0.06771218
v 0.00744467 0.01953516 0.06784476
v 0.00598269 0.01963301 0.06801600
v 0.00305873 0.01933446 0.06898270
v 0.00452071 0.01970744 0.06815686
v 0.00305873 0.01860270 0.06970910
v -0.00077631 0.01791946 0.07054599
v 0.00013610 0.01710324 0.07065646
v -0.00128880 0.01734493 0.07066198
v -0.00175096 0.01795542 0.07055980
v -0.00404590 0.01416704 0.06251135
v 0.00948270 0.01337257 0.06174627
v -0.00404590 0.01731984 0.07073380
v 0.00948270 0.01933780 0.06745531
v 0.00938205 0.01934951 0.06748570
v 0.00889870 0.01962548 0.06695816
v 0.00744467 0.01988222 0.06689739
v 0.00598269 0.02005784 0.06689739
v 0.00159808 0.01937209 0.06903794
v 0.00305873 0.01975594 0.06825077
v 0.00452071 0.02017158 0.06689739
v 0.00159808 0.01864117 0.06976157
v -0.00278918 0.01796880 0.07057085
v 0.00013610 0.01865873 0.06979749
v 0.00013610 0.01938965 0.06906279
v 0.00948270 0.01341940 0.06141760
v -0.00404590 0.01837607 0.04254490
v -0.00404590 0.01797047 0.07057085
v 0.00948270 0.01936540 0.06738074
v 0.00948270 0.01958032 0.06676205
v 0.00890664 0.02122111 0.04643102
v 0.00744467 0.02140008 0.04643102
v 0.00598269 0.02143269 0.04789212
v 0.00159808 0.01977852 0.06830601
v 0.00305873 0.02023430 0.06689739
v 0.00598269 0.02153807 0.04643102
v 0.00452071 0.02154058 0.04789212
v 0.00305873 0.02161584 0.04789212
v -0.00404590 0.01808923 0.07044932
v -0.00199860 0.01940721 0.06909041
v -0.00273488 0.01884021 0.06967595
v 0.00948270 0.01746870 0.04254490
v -0.00404590 0.02177306 0.04254490
v 0.00948270 0.02112829 0.04640893
v 0.00948270 0.02116759 0.04585377
v 0.00948270 0.02122530 0.04496717
v 0.00890664 0.02131478 0.04496717
v 0.00744467 0.02148789 0.04496717
v 0.00159808 0.02025520 0.06689739
v 0.00013610 0.01978605 0.06833087
v 0.00159808 0.02166017 0.04789212
v 0.00598269 0.02161584 0.04496717
v 0.00452071 0.02164009 0.04643102
v 0.00305873 0.02170449 0.04643102
v -0.00221180 0.01940721 0.06909041
v -0.00318645 0.01940387 0.06908489
v -0.00404590 0.01882348 0.06967872
v -0.00143711 0.01970744 0.06849658
v 0.00948270 0.02128802 0.04254490
v -0.00278918 0.02181572 0.04254490
v -0.00404590 0.02173878 0.04350607
v -0.00278918 0.02178561 0.04350607
v 0.00948270 0.02124704 0.04439267
v 0.00890664 0.02136830 0.04350607
v 0.00744467 0.02154141 0.04350607
v 0.00598269 0.02167020 0.04350607
v 0.00013610 0.02024517 0.06689739
v 0.00013610 0.02165682 0.04789212
v -0.00404590 0.01972584 0.06835020
v -0.00273488 0.01969155 0.06850211
v 0.00159808 0.02174128 0.04643102
v 0.00013610 0.02174296 0.04643102
v 0.00452071 0.02170867 0.04496717
v 0.00305873 0.02176972 0.04496717
v -0.00404590 0.01942979 0.06898270
v -0.00404590 0.01939132 0.06906279
v 0.00948270 0.02127882 0.04350607
v 0.00890664 0.02138586 0.04254490
v -0.00132588 0.02184080 0.04254490
v -0.00132588 0.02181655 0.04350607
v -0.00404590 0.02167606 0.04496717
v -0.00278918 0.02172623 0.04496717
v -0.00132588 0.02177056 0.04496717
v 0.00744467 0.02156148 0.04254490
v 0.00598269 0.02169278 0.04254490
v 0.00452071 0.02175634 0.04350607
v -0.00132588 0.02020754 0.06689739
v -0.00404590 0.01978939 0.06812648
v -0.00132588 0.02170700 0.04643102
v -0.00132588 0.02161668 0.04789212
v 0.00159808 0.02179648 0.04496717
v 0.00013610 0.02179564 0.04496717
v 0.00305873 0.02181404 0.04350607
v 0.00013610 0.02185418 0.04254490
v 0.00013610 0.02183160 0.04350607
v -0.00404590 0.02160079 0.04643102
v -0.00278918 0.02165348 0.04643102
v 0.00548344 0.02172205 0.04254490
v 0.00452071 0.02177641 0.04254490
v 0.00402147 0.02179648 0.04254490
v -0.00278918 0.02014063 0.06689739
v -0.00278918 0.02156399 0.04789212
v -0.00404590 0.02006286 0.06689739
v 0.00159808 0.02183579 0.04350607
v 0.00305873 0.02183411 0.04254490
v 0.00159808 0.02185920 0.04254490
v 0.00109884 0.02185753 0.04254490
v -0.00404590 0.02150378 0.04789212
f 1 2 3
f 1 3 4
f 1 4 5
f 1 5 6
f 1 6 7
f 1 7 19
f 1 19 33
f 1 33 48
f 1 48 62
f 1 62 78
f 1 78 95
f 1 95 113
f 1 113 99
f 1 99 82
f 1 82 81
f 1 81 80
f 1 80 66
f 1 66 65
f 1 65 50
f 1 50 35
f 1 35 23
f 1 23 8
f 1 8 2
f 2 8 9
f 2 9 10
f 2 10 3
f 3 11 4
f 3 10 12
f 3 12 11
f 4 13 17
f 4 17 5
f 4 11 14
f 4 14 15
f 4 15 16
f 4 16 13
f 5 17 6
f 6 17 7
f 7 18 19
f 7 17 20
f 7 20 21
f 7 21 22
f 7 22 18
f 8 23 9
f 9 23 24
f 9 24 10
f 10 24 25
f 10 25 26
f 10 26 12
f 11 12 15
f 11 15 14
f 12 26 27
f 12 27 28
f 12 28 16
f 12 16 15
f 13 16 28
f 13 28 29
f 13 29 30
f 13 30 17
f 17 30 31
f 17 31 20
f 18 22 21
f 18 21 20
f 18 20 34
f 18 34 49
f 18 49 64
f 18 64 75
f 18 75 93
f 18 93 112
f 18 112 111
f 18 111 105
f 18 105 124
f 18 124 139
f 18 139 144
f 18 144 132
f 18 132 117
f 18 117 97
f 18 97 79
f 18 79 63
f 18 63 47
f 18 47 32
f 18 32 33
f 18 33 19
f 20 31 30
f 20 30 34
f 23 35 36
f 23 36 24
f 24 36 37
f 24 37 38
f 24 38 25
f 25 38 39
f 25 39 26
f 26 40 27
f 26 39 41
f 26 41 40
f 27 40 42
f 27 42 43
f 27 43 28
f 28 43 44
f 28 44 29
f 29 44 30
f 30 44 45
f 30 45 43
f 30 43 46
f 30 46 34
f 32 47 33
f 33 47 48
f 34 46 49
f 35 50 51
f 35 51 37
f 35 37 36
f 37 51 52
f 37 52 53
f 37 53 38
f 38 53 54
f 38 54 39
f 39 54 41
f 40 55 42
f 40 41 56
f 40 56 55
f 41 54 57
f 41 57 56
f 42 55 58
f 42 58 43
f 43 45 44
f 43 58 46
f 46 59 49
f 46 58 60
f 46 60 55
f 46 55 61
f 46 61 59
f 47 62 48
f 47 63 62
f 49 59 64
f 50 65 51
f 51 65 66
f 51 66 52
f 52 66 53
f 53 66 67
f 53 67 68
f 53 68 54
f 54 68 69
f 54 69 57
f 55 60 58
f 55 56 70
f 55 70 61
f 56 57 71
f 56 71 70
f 57 69 72
f 57 72 73
f 57 73 74
f 57 74 71
f 59 75 64
f 59 61 76
f 59 76 77
f 59 77 75
f 61 70 76
f 62 63 78
f 63 79 96
f 63 96 115
f 63 115 130
f 63 130 143
f 63 143 142
f 63 142 141
f 63 141 136
f 63 136 135
f 63 135 134
f 63 134 121
f 63 121 120
f 63 120 114
f 63 114 95
f 63 95 78
f 66 80 67
f 67 80 81
f 67 81 82
f 67 82 83
f 67 83 68
f 68 83 84
f 68 84 72
f 68 72 69
f 70 71 85
f 70 85 86
f 70 86 76
f 71 74 87
f 71 87 85
f 72 84 88
f 72 88 89
f 72 89 73
f 73 89 74
f 74 89 90
f 74 90 87
f 75 77 91
f 75 91 92
f 75 92 93
f 76 86 94
f 76 94 91
f 76 91 77
f 79 97 98
f 79 98 96
f 82 99 83
f 83 99 100
f 83 100 101
f 83 101 84
f 84 101 102
f 84 102 88
f 85 103 86
f 85 87 104
f 85 104 103
f 86 103 105
f 86 105 106
f 86 106 94
f 87 90 107
f 87 107 108
f 87 108 104
f 88 102 109
f 88 109 89
f 89 109 90
f 90 109 110
f 90 110 107
f 91 94 92
f 92 94 106
f 92 106 111
f 92 111 112
f 92 112 93
f 95 114 113
f 96 98 116
f 96 116 115
f 97 117 118
f 97 118 98
f 98 118 119
f 98 119 116
f 99 113 100
f 100 113 114
f 100 114 120
f 100 120 101
f 101 120 121
f 101 121 102
f 102 121 122
f 102 122 109
f 103 123 124
f 103 124 105
f 103 104 123
f 104 108 125
f 104 125 126
f 104 126 123
f 105 111 106
f 107 110 127
f 107 127 108
f 108 127 128
f 108 128 119
f 108 119 125
f 109 122 110
f 110 122 129
f 110 129 127
f 115 116 128
f 115 128 131
f 115 131 130
f 116 119 128
f 117 132 133
f 117 133 118
f 118 133 125
f 118 125 119
f 121 134 122
f 122 134 135
f 122 135 136
f 122 136 129
f 123 137 124
f 123 126 138
f 123 138 137
f 124 137 139
f 125 133 138
f 125 138 126
f 127 129 140
f 127 140 128
f 128 140 131
f 129 136 141
f 129 141 142
f 129 142 140
f 130 131 143
f 131 140 142
f 131 142 143
f 132 144 138
f 132 138 133
f 137 138 144
f 137 144 139

