# https://github.com/mikedh/trimesh
v -0.00447005 -0.01483465 -0.00246354
v -0.00591192 -0.01431226 -0.00246354
v -0.00447005 -0.01794531 -0.00246354
v -0.00447005 -0.01409111 -0.00507417
v -0.00631898 -0.01416846 -0.00246354
v -0.01347685 -0.01564371 -0.00246354
v -0.01741748 -0.01990744 -0.03870023
v -0.01709134 -0.01996569 -0.03870023
v -0.01652735 -0.02006216 -0.03870023
v -0.01594863 -0.02013952 -0.03868958
v -0.01499720 -0.02025783 -0.03870023
v -0.01457542 -0.02030879 -0.03870023
v -0.01335424 -0.02045440 -0.03870023
v -0.01189030 -0.02060548 -0.03870023
v -0.01156416 -0.02063096 -0.03870023
v -0.01042881 -0.02070923 -0.03870023
v -0.01010022 -0.02072652 -0.03870023
v -0.00863873 -0.02077384 -0.03870023
v -0.00750583 -0.02079204 -0.03870023
v -0.00717724 -0.02079660 -0.03870023
v -0.00604189 -0.02079841 -0.03870023
v -0.00571575 -0.02079660 -0.03870023
v -0.00458040 -0.02077293 -0.03870023
v -0.00447005 -0.02077020 -0.03870023
v -0.00447005 -0.01391364 -0.00596093
v -0.01403349 -0.01150101 -0.00246354
v -0.01444791 -0.01538706 -0.00246354
v -0.01884709 -0.01951975 -0.03870023
v -0.01595599 -0.02013952 -0.03870023
v -0.01594863 -0.02014043 -0.03870023
v -0.00447005 -0.01730552 -0.03870023
v -0.00447005 -0.01386450 -0.00620923
v -0.01816784 -0.01150101 -0.00246354
v -0.00447005 -0.01368612 -0.00745070
v -0.01334444 -0.01150101 -0.00403489
v -0.01587998 -0.01467993 -0.00246354
v -0.02200303 -0.01815462 -0.03870023
v -0.02107366 -0.01860875 -0.03870023
v -0.02075488 -0.01875437 -0.03870023
v -0.02055380 -0.01884265 -0.03870023
v -0.02033801 -0.01893275 -0.03870023
v -0.01920021 -0.01939507 -0.03870023
v -0.02450424 -0.01150101 -0.03870023
v -0.02441351 -0.01150101 -0.03859381
v -0.02414132 -0.01150101 -0.03824975
v -0.02385932 -0.01150101 -0.03785602
v -0.02319969 -0.01150101 -0.03693379
v -0.02224825 -0.01150101 -0.03543694
v -0.02061756 -0.01150101 -0.03265250
v -0.00447005 -0.01414298 -0.01876934
v -0.01771665 -0.01226730 -0.00246354
v -0.02952137 -0.01150101 -0.03870023
v -0.00447005 -0.01358510 -0.00891208
v -0.01196632 -0.01150101 -0.00803596
v -0.01213307 -0.01150101 -0.00751454
v -0.01293002 -0.01150101 -0.00508127
v -0.01306244 -0.01150101 -0.00474430
v -0.01651509 -0.01414389 -0.00246354
v -0.02572542 -0.01589944 -0.03870023
v -0.02555867 -0.01602230 -0.03870023
v -0.02499467 -0.01642911 -0.03870023
v -0.02479850 -0.01656380 -0.03870023
v -0.02396476 -0.01712259 -0.03870023
v -0.02345717 -0.01741200 -0.03870023
v -0.01912664 -0.01150101 -0.02972618
v -0.00447005 -0.01401011 -0.01790386
v -0.01738806 -0.01280425 -0.00246354
v -0.02795689 -0.01348499 -0.03870023
v -0.01658375 -0.01406016 -0.00246354
v -0.01663524 -0.01398190 -0.00246354
v -0.01704721 -0.01333847 -0.00246354
v -0.01186823 -0.01150101 -0.00911072
v -0.00447005 -0.01356872 -0.01037701
v -0.02782447 -0.01365245 -0.03870023
v -0.02714522 -0.01447425 -0.03870023
v -0.02699809 -0.01463807 -0.03870023
v -0.02663027 -0.01503031 -0.03870023
v -0.02644390 -0.01522780 -0.03870023
v -0.01787849 -0.01150101 -0.02676085
v -0.00447005 -0.01384902 -0.01644247
v -0.01205460 -0.01150101 -0.00993718
v -0.00447005 -0.01360148 -0.01183840
v -0.00447005 -0.01367065 -0.01329979
v -0.00447005 -0.01374528 -0.01476117
v -0.00447005 -0.01375802 -0.01498109
v -0.01225567 -0.01150101 -0.01059338
f 1 2 5
f 1 5 26
f 1 26 33
f 1 33 51
f 1 51 67
f 1 67 71
f 1 71 70
f 1 70 69
f 1 69 58
f 1 58 36
f 1 36 27
f 1 27 6
f 1 6 3
f 1 3 24
f 1 24 31
f 1 31 50
f 1 50 66
f 1 66 80
f 1 80 85
f 1 85 84
f 1 84 83
f 1 83 82
f 1 82 73
f 1 73 53
f 1 53 34
f 1 34 32
f 1 32 25
f 1 25 4
f 1 4 2
f 2 4 5
f 3 6 7
f 3 7 8
f 3 8 9
f 3 9 10
f 3 10 11
f 3 11 12
f 3 12 13
f 3 13 14
f 3 14 15
f 3 15 16
f 3 16 17
f 3 17 18
f 3 18 19
f 3 19 20
f 3 20 21
f 3 21 22
f 3 22 23
f 3 23 24
f 4 25 26
f 4 26 5
f 6 27 7
f 7 28 42
f 7 42 41
f 7 41 40
f 7 40 39
f 7 39 38
f 7 38 37
f 7 37 64
f 7 64 63
f 7 63 62
f 7 62 61
f 7 61 60
f 7 60 59
f 7 59 78
f 7 78 77
f 7 77 76
f 7 76 75
f 7 75 74
f 7 74 68
f 7 68 52
f 7 52 43
f 7 43 31
f 7 31 24
f 7 24 23
f 7 23 22
f 7 22 21
f 7 21 20
f 7 20 19
f 7 19 18
f 7 18 17
f 7 17 16
f 7 16 15
f 7 15 14
f 7 14 13
f 7 13 12
f 7 12 11
f 7 11 30
f 7 30 29
f 7 29 9
f 7 9 8
f 7 27 28
f 9 29 10
f 10 29 30
f 10 30 11
f 25 32 26
f 26 32 34
f 26 34 35
f 26 35 57
f 26 57 56
f 26 56 55
f 26 55 54
f 26 54 72
f 26 72 81
f 26 81 86
f 26 86 79
f 26 79 65
f 26 65 49
f 26 49 48
f 26 48 47
f 26 47 46
f 26 46 45
f 26 45 44
f 26 44 43
f 26 43 52
f 26 52 33
f 27 36 37
f 27 37 38
f 27 38 39
f 27 39 40
f 27 40 41
f 27 41 42
f 27 42 28
f 31 43 44
f 31 44 45
f 31 45 46
f 31 46 47
f 31 47 48
f 31 48 49
f 31 49 50
f 33 52 51
f 34 53 54
f 34 54 55
f 34 55 56
f 34 56 57
f 34 57 35
f 36 58 59
f 36 59 60
f 36 60 61
f 36 61 62
f 36 62 63
f 36 63 64
f 36 64 37
f 49 65 66
f 49 66 50
f 51 52 67
f 52 68 69
f 52 69 70
f 52 70 71
f 52 71 67
f 53 72 54
f 53 73 72
f 58 69 74
f 58 74 75
f 58 75 76
f 58 76 77
f 58 77 78
f 58 78 59
f 65 79 80
f 65 80 66
f 68 74 69
f 72 73 82
f 72 82 83
f 72 83 84
f 72 84 85
f 72 85 81
f 79 86 80
f 80 86 81
f 80 81 85

