# https://github.com/mikedh/trimesh
v -0.04414445 0.00533154 -0.05902722
v -0.04412767 0.00551779 -0.05884108
v -0.04414445 0.00551779 -0.05902722
v -0.04413746 0.00405542 -0.05902722
v -0.04412068 0.00405542 -0.05884108
v -0.04393612 0.00551779 -0.05737874
v -0.04390396 0.00698015 -0.05737874
v -0.04409272 0.00698015 -0.05884108
v -0.04411089 0.00698015 -0.05902722
v -0.04413327 0.00386918 -0.05902722
v -0.04410391 0.00275516 -0.05902722
v -0.04408573 0.00275516 -0.05884108
v -0.04406475 0.00275516 -0.05867835
v -0.04389557 0.00275516 -0.05737874
v -0.04392773 0.00405542 -0.05737874
v -0.04370122 0.00551779 -0.05591640
v -0.04367745 0.00698015 -0.05591640
v -0.04362432 0.00844252 -0.05591640
v -0.04384803 0.00844252 -0.05737874
v -0.04403399 0.00844252 -0.05884108
v -0.04406056 0.00825627 -0.05902722
v -0.04044480 0.00275516 -0.05902722
v -0.04386900 0.00275516 -0.05721601
v -0.04368864 0.00405542 -0.05591640
v -0.04342298 0.00551779 -0.05445407
v -0.04340340 0.00698015 -0.05445407
v -0.04335027 0.00844252 -0.05445407
v -0.04353344 0.00990316 -0.05591640
v -0.04375715 0.00990316 -0.05737874
v -0.04405217 0.00844252 -0.05902722
v -0.04394031 0.00990316 -0.05884108
v -0.03750856 0.00275516 -0.04764059
v -0.03722193 0.02037252 -0.05902722
v -0.02986177 0.02037252 -0.04764059
v -0.04365648 0.00275516 -0.05591640
v -0.04341039 0.00405542 -0.05445407
v -0.04313215 0.00551779 -0.05319124
v -0.04312516 0.00698015 -0.05322691
v -0.04309719 0.00844252 -0.05333279
v -0.04304546 0.00990316 -0.05352896
v -0.04325239 0.00990316 -0.05445407
v -0.04338802 0.01136553 -0.05591640
v -0.04361733 0.01136553 -0.05737874
v -0.04396968 0.00971864 -0.05902722
v -0.04395709 0.00990316 -0.05902722
v -0.04379909 0.01136553 -0.05884108
v -0.04383405 0.01117928 -0.05902722
v -0.04113551 0.00275516 -0.04764059
v -0.04183321 0.02037252 -0.05902722
v -0.03660532 0.02037252 -0.04764059
v -0.04336984 0.00275516 -0.05445407
v -0.04312516 0.00405542 -0.05321798
v -0.04333908 0.00275516 -0.05431697
v -0.04294479 0.00551779 -0.05246007
v -0.04293361 0.00698015 -0.05249573
v -0.04290704 0.00844252 -0.05260162
v -0.04286090 0.00990316 -0.05279890
v -0.04300771 0.01073264 -0.05367608
v -0.04310978 0.01127758 -0.05443400
v -0.04305525 0.01246402 -0.05490882
v -0.04316151 0.01290032 -0.05583170
v -0.04342717 0.01282617 -0.05737874
v -0.04381447 0.01136553 -0.05902722
v -0.04360614 0.01282617 -0.05884108
v -0.04364669 0.01263992 -0.05902722
v -0.04134244 0.00275516 -0.04811652
v -0.04117466 0.00339149 -0.04764059
v -0.04187376 0.02024836 -0.05902722
v -0.04179966 0.02037252 -0.05875861
v -0.03667803 0.02037252 -0.04772642
v -0.03663887 0.02033631 -0.04764059
v -0.04293780 0.00405542 -0.05248682
v -0.04310279 0.00275516 -0.05331607
v -0.04268053 0.00551779 -0.05153162
v -0.04265955 0.00698015 -0.05153162
v -0.04259943 0.00844252 -0.05153162
v -0.04250436 0.00990316 -0.05153162
v -0.04235195 0.01136553 -0.05153162
v -0.04280217 0.01127758 -0.05311099
v -0.04295038 0.01170525 -0.05393355
v -0.04287907 0.01290032 -0.05443400
v -0.04297695 0.01343836 -0.05528889
v -0.04306783 0.01394881 -0.05626304
v -0.04315452 0.01437648 -0.05730852
v -0.04336425 0.01428853 -0.05884108
v -0.04362152 0.01282617 -0.05902722
v -0.04142913 0.00405542 -0.04813658
v -0.04138998 0.00275516 -0.04822686
v -0.04121521 0.00405542 -0.04764059
v -0.04235055 0.01867563 -0.05884108
v -0.04182483 0.02027595 -0.05870956
v -0.04236873 0.01867563 -0.05902722
v -0.04177589 0.02037252 -0.05861371
v -0.03697305 0.02037252 -0.04809200
v -0.03729184 0.01959305 -0.04768406
v -0.03722053 0.01963617 -0.04764059
v -0.04266375 0.00405542 -0.05153162
v -0.04308181 0.00275516 -0.05323470
v -0.04290983 0.00275516 -0.05258490
v -0.04220374 0.00551779 -0.05006928
v -0.04218696 0.00698015 -0.05006928
v -0.04212544 0.00844252 -0.05006928
v -0.04203596 0.00990316 -0.05006928
v -0.04160531 0.01101890 -0.04915866
v -0.04181224 0.01145003 -0.04995448
v -0.04210726 0.01282617 -0.05153162
v -0.04253651 0.01282617 -0.05299284
v -0.04261901 0.01428853 -0.05445407
v -0.04290285 0.01437648 -0.05583170
v -0.04297835 0.01492314 -0.05677463
v -0.04304686 0.01525425 -0.05774879
v -0.04309999 0.01574572 -0.05892133
v -0.04308321 0.01589920 -0.05902722
v -0.04337963 0.01428853 -0.05902722
v -0.04171996 0.00405542 -0.04886775
v -0.04165285 0.00275516 -0.04887667
v -0.04124597 0.00551779 -0.04764059
v -0.04144312 0.00551779 -0.04810091
v -0.04173534 0.00551779 -0.04883208
v -0.04210167 0.01867563 -0.05737874
v -0.04283154 0.01699425 -0.05902722
v -0.04278819 0.01710290 -0.05892133
v -0.04252253 0.01721326 -0.05737874
v -0.04161509 0.02037252 -0.05775882
v -0.03749877 0.02037252 -0.04880645
v -0.03731421 0.01951028 -0.04764059
v -0.03759665 0.02010351 -0.04865152
v -0.03860615 0.01939991 -0.04934368
v -0.03838384 0.01881704 -0.04848545
v -0.03858238 0.01789444 -0.04791701
v -0.04217578 0.00405542 -0.05006928
v -0.04287907 0.00275516 -0.05247902
v -0.04260223 0.00275516 -0.05153162
v -0.04172975 0.00698015 -0.04884323
v -0.04170178 0.00844252 -0.04889784
v -0.04166124 0.00990316 -0.04900262
v -0.04088803 0.01139484 -0.04764059
v -0.04131308 0.01145003 -0.04864595
v -0.04151442 0.01199324 -0.04938938
v -0.04137740 0.00990316 -0.04827145
v -0.04112013 0.00990316 -0.04764059
v -0.04170318 0.01282617 -0.05035127
v -0.04159832 0.01379705 -0.05063772
v -0.04177589 0.01428681 -0.05149149
v -0.04224429 0.01428853 -0.05299284
v -0.04228484 0.01575090 -0.05445407
v -0.04261621 0.01575090 -0.05591640
v -0.04287208 0.01574572 -0.05730852
v -0.04294060 0.01622858 -0.05848887
v -0.04205833 0.00275516 -0.04993553
v -0.04168500 0.00275516 -0.04895803
v -0.04124457 0.00622138 -0.04764059
v -0.04143892 0.00698015 -0.04811206
v -0.04177170 0.01871184 -0.05592309
v -0.04170178 0.01988277 -0.05737874
v -0.04224009 0.01721326 -0.05591640
v -0.04159552 0.01956719 -0.05641462
v -0.04146968 0.02037252 -0.05715471
v -0.03820067 0.02037252 -0.04981069
v -0.03820207 0.01816173 -0.04764059
v -0.03836846 0.02025698 -0.04992661
v -0.03841040 0.02037252 -0.05011163
v -0.03987992 0.01904639 -0.05116157
v -0.03939055 0.01873599 -0.05000909
v -0.03889978 0.01842558 -0.04889116
v -0.03873060 0.02037252 -0.05060094
v -0.03890537 0.01985173 -0.05031894
v -0.03987433 0.01752712 -0.04969812
v -0.03935699 0.01722361 -0.04860025
v -0.03877114 0.01717705 -0.04764059
v -0.03848311 0.01770647 -0.04764059
v -0.04254770 0.00275516 -0.05136888
v -0.04210866 0.00275516 -0.05006928
v -0.04142214 0.00844252 -0.04816668
v -0.04053288 0.01275029 -0.04764059
v -0.04097471 0.01282617 -0.04860694
v -0.04141795 0.01282617 -0.04962010
v -0.04116347 0.00919440 -0.04764059
v -0.04124317 0.01428681 -0.05011832
v -0.04146409 0.01477139 -0.05097767
v -0.04165005 0.01539910 -0.05195182
v -0.04183182 0.01583195 -0.05290813
v -0.04165984 0.01687354 -0.05333836
v -0.04182762 0.01730121 -0.05437159
v -0.04123898 0.00698015 -0.04764059
v -0.04122499 0.00769237 -0.04764059
v -0.04164586 0.01824796 -0.05480293
v -0.04146409 0.01922402 -0.05543936
v -0.04134384 0.02037252 -0.05670776
v -0.03937656 0.02017248 -0.05149149
v -0.04013300 0.01951890 -0.05213572
v -0.04013439 0.01807206 -0.05067338
v -0.03913328 0.02037252 -0.05129533
v -0.04010223 0.01655278 -0.04928349
v -0.03897668 0.01675972 -0.04764059
v -0.03888719 0.01694769 -0.04764059
v -0.04120402 0.00844252 -0.04764059
v -0.04019452 0.01387121 -0.04764059
v -0.04019172 0.01390742 -0.04765619
v -0.04047975 0.01435234 -0.04851331
v -0.04076359 0.01575090 -0.05006928
v -0.04133825 0.01583195 -0.05149149
v -0.04149904 0.01637344 -0.05236422
v -0.04150184 0.01784788 -0.05382878
v -0.04133545 0.01871184 -0.05437159
v -0.04074122 0.02013627 -0.05445407
v -0.04124038 0.02008799 -0.05592309
v -0.04110335 0.02037252 -0.05591529
v -0.03928009 0.02037252 -0.05155502
v -0.03966879 0.02037252 -0.05225164
v -0.03988272 0.02037252 -0.05264175
v -0.04086146 0.01867563 -0.05299284
v -0.04031337 0.01860492 -0.05160183
v -0.04020290 0.02037252 -0.05333279
v -0.04027282 0.02005867 -0.05311879
v -0.04086705 0.01721326 -0.05153162
v -0.04028680 0.01710807 -0.05013950
v -0.04025045 0.01575090 -0.04899816
v -0.04002254 0.01488176 -0.04796382
v -0.03984217 0.01575090 -0.04826699
v -0.03944089 0.01575780 -0.04764059
v -0.04017774 0.01392122 -0.04764059
v -0.04136901 0.01730121 -0.05290813
v -0.04053847 0.02037252 -0.05421666
v -0.04062377 0.02037252 -0.05445407
v -0.03967578 0.01520941 -0.04764059
v -0.03990649 0.01466964 -0.04764059
f 1 2 3
f 1 3 9
f 1 9 21
f 1 21 30
f 1 30 44
f 1 44 45
f 1 45 47
f 1 47 63
f 1 63 65
f 1 65 86
f 1 86 114
f 1 114 113
f 1 113 121
f 1 121 92
f 1 92 68
f 1 68 49
f 1 49 33
f 1 33 22
f 1 22 11
f 1 11 10
f 1 10 4
f 1 4 5
f 1 5 2
f 2 6 7
f 2 7 8
f 2 8 9
f 2 9 3
f 2 5 6
f 4 10 5
f 5 10 11
f 5 11 12
f 5 12 13
f 5 13 14
f 5 14 15
f 5 15 6
f 6 16 17
f 6 17 7
f 6 15 16
f 7 17 18
f 7 18 19
f 7 19 8
f 8 19 20
f 8 20 21
f 8 21 9
f 11 22 32
f 11 32 48
f 11 48 66
f 11 66 88
f 11 88 116
f 11 116 151
f 11 151 150
f 11 150 173
f 11 173 172
f 11 172 133
f 11 133 132
f 11 132 99
f 11 99 98
f 11 98 73
f 11 73 53
f 11 53 51
f 11 51 35
f 11 35 23
f 11 23 14
f 11 14 13
f 11 13 12
f 14 23 15
f 15 24 16
f 15 23 24
f 16 25 26
f 16 26 17
f 16 24 36
f 16 36 25
f 17 26 27
f 17 27 18
f 18 27 28
f 18 28 29
f 18 29 19
f 19 29 20
f 20 30 21
f 20 29 31
f 20 31 30
f 22 33 34
f 22 34 32
f 23 35 24
f 24 35 36
f 25 37 38
f 25 38 26
f 25 36 37
f 26 38 39
f 26 39 27
f 27 39 40
f 27 40 41
f 27 41 28
f 28 41 42
f 28 42 43
f 28 43 29
f 29 43 31
f 30 31 44
f 31 45 44
f 31 43 46
f 31 46 47
f 31 47 45
f 32 34 50
f 32 50 71
f 32 71 96
f 32 96 126
f 32 126 160
f 32 160 171
f 32 171 170
f 32 170 196
f 32 196 195
f 32 195 221
f 32 221 226
f 32 226 227
f 32 227 222
f 32 222 198
f 32 198 175
f 32 175 137
f 32 137 141
f 32 141 178
f 32 178 197
f 32 197 186
f 32 186 185
f 32 185 152
f 32 152 117
f 32 117 89
f 32 89 67
f 32 67 48
f 33 49 69
f 33 69 93
f 33 93 124
f 33 124 158
f 33 158 189
f 33 189 208
f 33 208 225
f 33 225 224
f 33 224 214
f 33 214 211
f 33 211 210
f 33 210 209
f 33 209 193
f 33 193 166
f 33 166 162
f 33 162 159
f 33 159 125
f 33 125 94
f 33 94 70
f 33 70 50
f 33 50 34
f 35 51 36
f 36 52 37
f 36 51 53
f 36 53 52
f 37 54 38
f 37 52 72
f 37 72 54
f 38 55 56
f 38 56 39
f 38 54 55
f 39 56 57
f 39 57 40
f 40 57 58
f 40 58 41
f 41 58 59
f 41 59 42
f 42 59 60
f 42 60 61
f 42 61 62
f 42 62 43
f 43 62 46
f 46 63 47
f 46 62 64
f 46 64 65
f 46 65 63
f 48 67 66
f 49 68 69
f 50 70 71
f 52 53 73
f 52 73 72
f 54 74 75
f 54 75 55
f 54 72 74
f 55 75 56
f 56 76 77
f 56 77 57
f 56 75 76
f 57 77 78
f 57 78 79
f 57 79 58
f 58 79 80
f 58 80 59
f 59 80 60
f 60 81 82
f 60 82 61
f 60 80 81
f 61 82 83
f 61 83 62
f 62 83 84
f 62 84 85
f 62 85 64
f 64 86 65
f 64 85 114
f 64 114 86
f 66 87 88
f 66 67 89
f 66 89 87
f 68 90 91
f 68 91 69
f 68 92 90
f 69 91 93
f 70 94 71
f 71 95 96
f 71 94 95
f 72 97 74
f 72 73 98
f 72 98 99
f 72 99 97
f 74 100 101
f 74 101 75
f 74 97 100
f 75 101 76
f 76 102 103
f 76 103 77
f 76 101 102
f 77 103 78
f 78 104 105
f 78 105 106
f 78 106 107
f 78 107 79
f 78 103 104
f 79 107 80
f 80 107 81
f 81 107 108
f 81 108 82
f 82 108 109
f 82 109 83
f 83 109 110
f 83 110 84
f 84 110 111
f 84 111 85
f 85 111 112
f 85 112 113
f 85 113 114
f 87 115 116
f 87 116 88
f 87 89 117
f 87 117 118
f 87 118 119
f 87 119 115
f 90 120 91
f 90 92 121
f 90 121 122
f 90 122 123
f 90 123 120
f 91 120 93
f 93 120 124
f 94 125 95
f 95 126 96
f 95 125 127
f 95 127 128
f 95 128 129
f 95 129 130
f 95 130 126
f 97 131 100
f 97 99 132
f 97 132 133
f 97 133 131
f 100 119 134
f 100 134 101
f 100 131 119
f 101 134 135
f 101 135 102
f 102 135 136
f 102 136 103
f 103 136 104
f 104 137 138
f 104 138 139
f 104 139 105
f 104 136 140
f 104 140 141
f 104 141 137
f 105 139 142
f 105 142 106
f 106 142 143
f 106 143 144
f 106 144 145
f 106 145 107
f 107 145 108
f 108 145 146
f 108 146 147
f 108 147 109
f 109 147 110
f 110 147 123
f 110 123 148
f 110 148 149
f 110 149 111
f 111 149 113
f 111 113 112
f 113 149 121
f 115 119 131
f 115 131 150
f 115 150 151
f 115 151 116
f 117 152 118
f 118 152 153
f 118 153 119
f 119 153 134
f 120 154 155
f 120 155 124
f 120 123 156
f 120 156 154
f 121 149 122
f 122 149 123
f 123 149 148
f 123 147 156
f 124 155 157
f 124 157 158
f 125 159 127
f 126 130 160
f 127 161 128
f 127 159 162
f 127 162 161
f 128 163 164
f 128 164 165
f 128 165 130
f 128 130 129
f 128 161 162
f 128 162 166
f 128 166 167
f 128 167 163
f 130 168 169
f 130 169 170
f 130 170 171
f 130 171 160
f 130 165 168
f 131 133 172
f 131 172 173
f 131 173 150
f 134 153 174
f 134 174 135
f 135 174 136
f 136 174 140
f 137 175 176
f 137 176 139
f 137 139 138
f 139 176 177
f 139 177 143
f 139 143 142
f 140 174 178
f 140 178 141
f 143 179 180
f 143 180 181
f 143 181 144
f 143 177 179
f 144 181 145
f 145 181 182
f 145 182 146
f 146 182 183
f 146 183 184
f 146 184 156
f 146 156 147
f 152 185 153
f 153 185 186
f 153 186 174
f 154 157 155
f 154 156 187
f 154 187 157
f 156 184 187
f 157 187 188
f 157 188 158
f 158 188 189
f 163 167 190
f 163 190 191
f 163 191 192
f 163 192 164
f 164 192 168
f 164 168 165
f 166 193 167
f 167 193 190
f 168 192 194
f 168 194 169
f 169 194 195
f 169 195 196
f 169 196 170
f 174 186 197
f 174 197 178
f 175 198 199
f 175 199 200
f 175 200 176
f 176 200 179
f 176 179 177
f 179 200 201
f 179 201 180
f 180 201 202
f 180 202 181
f 181 202 203
f 181 203 182
f 182 203 183
f 183 203 204
f 183 204 184
f 184 204 187
f 187 204 205
f 187 205 188
f 188 205 206
f 188 206 207
f 188 207 189
f 189 207 208
f 190 193 209
f 190 209 210
f 190 210 211
f 190 211 191
f 191 212 213
f 191 213 192
f 191 211 214
f 191 214 215
f 191 215 212
f 192 213 216
f 192 216 217
f 192 217 194
f 194 217 201
f 194 201 218
f 194 218 219
f 194 219 220
f 194 220 195
f 195 220 221
f 198 222 199
f 199 222 219
f 199 219 200
f 200 219 218
f 200 218 201
f 201 217 216
f 201 216 202
f 202 216 203
f 203 216 223
f 203 223 204
f 204 223 212
f 204 212 205
f 205 212 206
f 206 212 215
f 206 215 224
f 206 224 225
f 206 225 208
f 206 208 207
f 212 223 216
f 212 216 213
f 214 224 215
f 219 226 221
f 219 221 220
f 219 222 227
f 219 227 226

