# https://github.com/mikedh/trimesh
v 0.01647602 -0.02705548 0.06104958
v 0.01838683 -0.02590027 0.06055816
v 0.01781171 -0.02627910 0.06104958
v 0.01843495 -0.02593301 0.06153583
v 0.01843495 -0.02593301 0.06182034
v 0.01647602 -0.02675381 0.06245660
v 0.01647602 -0.02427269 0.04496196
v 0.02014506 -0.02467023 0.06104958
v 0.01901008 -0.02549337 0.06104958
v 0.01647602 -0.02405521 0.04379288
v 0.02009107 -0.02462580 0.06226003
v 0.01986806 -0.02445041 0.06323253
v 0.01804411 -0.02572021 0.06279802
v 0.01760631 -0.02614815 0.06238936
v 0.01647602 -0.02659480 0.06276181
v 0.02087629 -0.02404820 0.06104958
v 0.01647602 -0.02399675 0.04350321
v 0.02161456 -0.02325311 0.06250833
v 0.02058873 -0.02407626 0.06265317
v 0.02143380 -0.02308474 0.06332047
v 0.02060516 -0.02342616 0.06358946
v 0.01929999 -0.02384709 0.06406020
v 0.01809810 -0.02421657 0.06449471
v 0.01712274 -0.02456734 0.06479474
v 0.01647602 -0.02528525 0.06446368
v 0.01647602 -0.02549103 0.06424642
v 0.01647602 -0.02613879 0.06351187
v 0.01706992 -0.02597744 0.06331013
v 0.02168146 -0.02331625 0.06104958
v 0.01725772 -0.02329521 0.04350321
v 0.01647602 -0.02364364 0.04200825
v 0.01707579 -0.02311982 0.04203929
v 0.02241268 -0.02258431 0.06104958
v 0.02234578 -0.02247674 0.06250833
v 0.02282348 -0.02156473 0.06326357
v 0.02197958 -0.02213766 0.06352221
v 0.02158991 -0.02038614 0.06490854
v 0.02116619 -0.02136129 0.06457748
v 0.02064859 -0.02231538 0.06431884
v 0.01970609 -0.02283921 0.06459817
v 0.01873073 -0.02324142 0.06487750
v 0.01763800 -0.02372782 0.06503269
v 0.01647602 -0.02476377 0.06490854
v 0.01647602 -0.02334665 0.04083918
v 0.01696898 -0.02301225 0.04124266
v 0.02138216 -0.01721283 0.03675261
v 0.02305705 -0.02185237 0.06104958
v 0.02297020 -0.02174713 0.06250833
v 0.02412396 -0.01989039 0.06293251
v 0.02444556 -0.01891524 0.06340841
v 0.02290564 -0.01876090 0.06479991
v 0.02373194 -0.02070184 0.06247212
v 0.02019083 -0.02186406 0.06489820
v 0.02316503 -0.01787462 0.06503269
v 0.02207348 -0.01928472 0.06509477
v 0.02206643 -0.01787462 0.06559654
v 0.02064859 -0.02084448 0.06513615
v 0.01918848 -0.02231538 0.06511029
v 0.01647602 -0.02372315 0.06532237
v 0.01647602 -0.02463983 0.06496544
v 0.01647602 -0.02325311 0.04053916
v 0.01681875 -0.02285323 0.04027534
v 0.01994318 -0.01866035 0.03680952
v 0.02119319 -0.01700705 0.03578011
v 0.02154531 -0.01603190 0.03511798
v 0.02161103 -0.01647621 0.03624050
v 0.02571787 -0.01713800 0.06033055
v 0.02548665 -0.01783487 0.06090992
v 0.02424720 -0.02004940 0.06039780
v 0.02387513 -0.02070184 0.06094613
v 0.02431175 -0.02014996 0.06137030
v 0.02431175 -0.02014996 0.06196001
v 0.02566974 -0.01704914 0.06308769
v 0.02460518 -0.01937592 0.06247212
v 0.02588571 -0.01607633 0.06343944
v 0.02472608 -0.01787462 0.06366188
v 0.02442443 -0.01597344 0.06487233
v 0.02361105 -0.01644113 0.06528099
v 0.02427067 -0.01279779 0.06617072
v 0.02060516 -0.01933851 0.06561206
v 0.02206643 -0.01641307 0.06590173
v 0.01768026 -0.02226160 0.06547756
v 0.01647602 -0.02346591 0.06539997
v 0.01647602 -0.02280647 0.03912179
v 0.01647602 -0.02223354 0.03765269
v 0.01647602 -0.02221483 0.03760614
v 0.01647602 -0.02219144 0.03755441
v 0.01647602 -0.02155304 0.03622498
v 0.01647602 -0.02075562 0.03474037
v 0.01647602 -0.01475977 0.02359800
v 0.01647602 -0.01464284 0.02338075
v 0.01698776 -0.01426635 0.02369111
v 0.01857580 -0.01299188 0.02492743
v 0.01980586 -0.01261772 0.02684657
v 0.02174718 -0.01499829 0.03467312
v 0.02219554 -0.01349232 0.03473519
v 0.02206643 -0.01495386 0.03619912
v 0.02725544 -0.01303164 0.06153066
v 0.02024835 -0.01209157 0.02736903
v 0.02093614 -0.01192787 0.02898296
v 0.02136455 -0.01137366 0.02953646
v 0.02655942 -0.01495386 0.06104958
v 0.02602186 -0.01655572 0.06090992
v 0.02580120 -0.01732040 0.06130305
v 0.02464274 -0.01947180 0.06094613
v 0.02580120 -0.01732040 0.06211519
v 0.02541974 -0.01783487 0.06256523
v 0.02603125 -0.01650193 0.06256523
v 0.02720731 -0.01283520 0.06327908
v 0.02610167 -0.01495386 0.06368257
v 0.02539275 -0.01495386 0.06441195
v 0.02504768 -0.01651129 0.06402399
v 0.02466152 -0.01495386 0.06509477
v 0.02557937 -0.00954964 0.06608796
v 0.02577421 -0.00857684 0.06620693
v 0.02439509 -0.01202843 0.06623797
v 0.02282583 -0.01429909 0.06617072
v 0.02493852 -0.01336370 0.06540514
v 0.02599956 -0.01202843 0.06494993
v 0.02626247 -0.01056688 0.06520340
v 0.02276949 -0.01429909 0.06617072
v 0.02499016 -0.00316794 0.06707598
v 0.01647602 -0.02226160 0.06546205
v 0.01647602 -0.01434586 0.02292553
v 0.01674598 -0.01390856 0.02271344
v 0.01647602 -0.01347595 0.02167887
v 0.01647602 -0.01343385 0.02162714
v 0.01830937 -0.01256862 0.02394976
v 0.01959107 -0.01209157 0.02591545
v 0.02002299 -0.01164492 0.02637066
v 0.02184812 -0.01056688 0.03034860
v 0.02220963 -0.01056688 0.03181252
v 0.02249836 -0.01056688 0.03327127
v 0.02758877 -0.01056688 0.06104958
v 0.02808408 -0.00910533 0.06250833
v 0.02782352 -0.01056688 0.06250833
v 0.02749487 -0.01202843 0.06250833
v 0.02725544 -0.01301994 0.06250833
v 0.02702891 -0.01375189 0.06250833
v 0.02662633 -0.01495386 0.06250833
v 0.02278944 -0.00832662 0.03259362
v 0.02119084 -0.01085451 0.02855879
v 0.02134929 -0.00988171 0.02811909
v 0.02146667 -0.01044762 0.02898296
v 0.02731060 -0.01202843 0.06346531
v 0.02699370 -0.01056688 0.06448437
v 0.02672961 -0.01202843 0.06419469
v 0.02560519 -0.01392961 0.06460334
v 0.02586928 -0.00764379 0.06627935
v 0.02499016 -0.00617990 0.06676043
v 0.02499016 -0.00764379 0.06658455
v 0.02645144 -0.00910533 0.06543100
v 0.02725074 -0.00866102 0.06476887
v 0.02660050 -0.00764379 0.06561206
v 0.02672961 -0.00617990 0.06575172
v 0.02499016 -0.00471835 0.06691562
v 0.02712985 -0.00963383 0.06464472
v 0.02599839 -0.00617990 0.06637764
v 0.02611224 -0.00471835 0.06647075
v 0.02619557 -0.00325681 0.06654317
v 0.02619792 -0.00316794 0.06654834
v 0.02352771 -0.00316794 0.06673456
v 0.01647602 -0.02200437 0.06544652
v 0.01647602 -0.01339410 0.02158576
v 0.01884106 -0.01205883 0.02446187
v 0.01705466 -0.01293342 0.02212374
v 0.01677884 -0.01243299 0.02115124
v 0.01647602 -0.00764379 0.01598871
v 0.01979295 -0.01106498 0.02539816
v 0.02094084 -0.01044762 0.02755008
v 0.02020140 -0.01057390 0.02591545
v 0.02177300 -0.00910533 0.02888468
v 0.02217911 -0.00910533 0.03034860
v 0.02249954 -0.00910533 0.03181252
v 0.02827422 -0.00764379 0.06250833
v 0.02809934 -0.00617990 0.06397226
v 0.02789746 -0.00764379 0.06397226
v 0.02748548 -0.01056688 0.06375500
v 0.02286574 -0.00735148 0.03220049
v 0.02364860 -0.00325681 0.03327127
v 0.02271081 -0.00776071 0.03175045
v 0.02143967 -0.00910533 0.02786562
v 0.02116619 -0.00910533 0.02713625
v 0.02128591 -0.00814188 0.02683105
v 0.02757351 -0.00913106 0.06408089
v 0.02735520 -0.00764379 0.06488268
v 0.02747962 -0.00617990 0.06501717
v 0.02684346 -0.00471835 0.06585518
v 0.02692680 -0.00325681 0.06592760
v 0.02692914 -0.00316794 0.06592760
v 0.02281644 -0.00316794 0.06624314
v 0.01647602 -0.02065974 0.06500165
v 0.02276715 -0.00316794 0.06620693
v 0.01647602 -0.01197932 0.02019943
v 0.01647602 -0.00724858 0.01573007
v 0.01694551 -0.00689547 0.01646462
v 0.02065797 -0.00910533 0.02596201
v 0.02157700 -0.00765080 0.02735868
v 0.02206291 -0.00764379 0.02888468
v 0.02243263 -0.00764379 0.03034860
v 0.02840568 -0.00617990 0.06250833
v 0.02823549 -0.00471835 0.06397226
v 0.02757351 -0.00471835 0.06512580
v 0.02276715 -0.00668969 0.03122799
v 0.02293968 -0.00619393 0.03175045
v 0.02334813 -0.00325681 0.03181252
v 0.02365565 -0.00316794 0.03327127
v 0.02139037 -0.00716674 0.02656206
v 0.01850655 -0.00574728 0.01917520
v 0.02761577 -0.00325681 0.06519306
v 0.02761577 -0.00316794 0.06519822
v 0.01647602 -0.02055451 0.06492923
v 0.02161456 -0.00316794 0.06092026
v 0.01647602 -0.02015230 0.06445850
v 0.01647602 -0.00626175 0.01515071
v 0.01736570 -0.00631787 0.01704915
v 0.02184343 -0.00617990 0.02742593
v 0.02228357 -0.00617990 0.02888468
v 0.02265212 -0.00619393 0.03040550
v 0.02846671 -0.00471835 0.06250833
v 0.02828596 -0.00325681 0.06397226
v 0.02283170 -0.00571454 0.03092796
v 0.02297607 -0.00328954 0.03026583
v 0.02293851 -0.00316794 0.03005892
v 0.02333405 -0.00316794 0.03171941
v 0.02335517 -0.00316794 0.03181252
v 0.02388452 -0.00316794 0.03464726
v 0.02146784 -0.00617990 0.02636032
v 0.01988802 -0.00549473 0.02227375
v 0.02116737 -0.00617990 0.02563094
v 0.01706171 -0.00592033 0.01623184
v 0.01825303 -0.00471835 0.01825960
v 0.01859341 -0.00471835 0.01898898
v 0.01909341 -0.00471835 0.02011149
v 0.02828361 -0.00316794 0.06397226
v 0.01647602 -0.00316794 0.02260999
v 0.02132465 -0.00375022 0.06034090
v 0.01647602 -0.01767585 0.05953393
v 0.01647602 -0.00471835 0.01465411
v 0.01772955 -0.00471835 0.01718882
v 0.02155587 -0.00471835 0.02609650
v 0.02149953 -0.00316794 0.02539816
v 0.02161808 -0.00338776 0.02582234
v 0.02215212 -0.00316794 0.02733282
v 0.02217324 -0.00325681 0.02742593
v 0.02262513 -0.00328954 0.02895193
v 0.02268029 -0.00316794 0.02909159
v 0.02845615 -0.00325681 0.06250833
v 0.02845028 -0.00316794 0.06250833
v 0.02093145 -0.00471835 0.02449808
v 0.02128239 -0.00471835 0.02536713
v 0.02128591 -0.00316794 0.02482915
v 0.01964154 -0.00471835 0.02140988
v 0.02032347 -0.00471835 0.02303933
v 0.01647602 -0.00316794 0.01422994
v 0.01787040 -0.00316794 0.01708536
v 0.01832463 -0.00316794 0.01802682
v 0.01867909 -0.00316794 0.01879758
v 0.01927534 -0.00316794 0.02011149
v 0.01973661 -0.00316794 0.02116675
v 0.02051008 -0.00316794 0.02295657
v 0.02053474 -0.00325681 0.02303933
v 0.02164977 -0.00316794 0.02584303
v 0.02218146 -0.00316794 0.02742593
v 0.02113920 -0.00338776 0.02454464
v 0.02114507 -0.00316794 0.02448774
v 0.02054530 -0.00316794 0.02303933
f 1 2 3
f 1 3 4
f 1 4 5
f 1 5 6
f 1 6 15
f 1 15 27
f 1 27 26
f 1 26 25
f 1 25 43
f 1 43 60
f 1 60 59
f 1 59 83
f 1 83 123
f 1 123 163
f 1 163 192
f 1 192 212
f 1 212 214
f 1 214 238
f 1 238 236
f 1 236 255
f 1 255 239
f 1 239 215
f 1 215 195
f 1 195 168
f 1 168 194
f 1 194 164
f 1 164 127
f 1 127 126
f 1 126 124
f 1 124 91
f 1 91 90
f 1 90 89
f 1 89 88
f 1 88 87
f 1 87 86
f 1 86 85
f 1 85 84
f 1 84 61
f 1 61 44
f 1 44 31
f 1 31 17
f 1 17 10
f 1 10 7
f 1 7 2
f 2 8 9
f 2 9 4
f 2 4 3
f 2 7 10
f 2 10 8
f 4 9 8
f 4 8 5
f 5 8 11
f 5 11 12
f 5 12 13
f 5 13 14
f 5 14 6
f 6 14 13
f 6 13 15
f 8 16 11
f 8 10 17
f 8 17 16
f 11 16 18
f 11 18 19
f 11 19 12
f 12 19 20
f 12 20 21
f 12 21 22
f 12 22 23
f 12 23 24
f 12 24 25
f 12 25 26
f 12 26 27
f 12 27 28
f 12 28 13
f 13 28 15
f 15 28 27
f 16 29 18
f 16 17 30
f 16 30 29
f 17 31 32
f 17 32 30
f 18 29 33
f 18 33 34
f 18 34 20
f 18 20 19
f 20 34 35
f 20 35 36
f 20 36 37
f 20 37 38
f 20 38 39
f 20 39 40
f 20 40 21
f 21 40 22
f 22 40 41
f 22 41 23
f 23 41 24
f 24 41 42
f 24 42 43
f 24 43 25
f 29 30 32
f 29 32 33
f 31 44 45
f 31 45 32
f 32 45 46
f 32 46 33
f 33 47 34
f 33 46 47
f 34 48 35
f 34 47 48
f 35 49 50
f 35 50 51
f 35 51 37
f 35 37 36
f 35 48 52
f 35 52 49
f 37 53 38
f 37 51 54
f 37 54 55
f 37 55 56
f 37 56 57
f 37 57 53
f 38 53 39
f 39 53 40
f 40 53 41
f 41 53 58
f 41 58 42
f 42 58 59
f 42 59 60
f 42 60 43
f 44 61 62
f 44 62 45
f 45 62 63
f 45 63 46
f 46 63 64
f 46 64 65
f 46 65 66
f 46 66 67
f 46 67 68
f 46 68 69
f 46 69 47
f 47 69 70
f 47 70 71
f 47 71 72
f 47 72 48
f 48 72 52
f 49 73 50
f 49 52 72
f 49 72 74
f 49 74 73
f 50 73 75
f 50 75 76
f 50 76 77
f 50 77 54
f 50 54 51
f 53 57 58
f 54 78 79
f 54 79 56
f 54 56 55
f 54 77 78
f 56 80 57
f 56 79 81
f 56 81 80
f 57 80 58
f 58 80 82
f 58 82 83
f 58 83 59
f 61 84 62
f 62 84 63
f 63 84 85
f 63 85 86
f 63 86 87
f 63 87 88
f 63 88 64
f 64 88 89
f 64 89 90
f 64 90 91
f 64 91 92
f 64 92 93
f 64 93 94
f 64 94 65
f 65 95 96
f 65 96 97
f 65 97 98
f 65 98 66
f 65 94 99
f 65 99 100
f 65 100 101
f 65 101 95
f 66 98 102
f 66 102 103
f 66 103 67
f 67 103 104
f 67 104 68
f 68 104 105
f 68 105 69
f 69 105 71
f 69 71 70
f 71 105 104
f 71 104 106
f 71 106 72
f 72 106 107
f 72 107 74
f 73 74 107
f 73 107 106
f 73 106 108
f 73 108 109
f 73 109 75
f 75 110 111
f 75 111 77
f 75 77 112
f 75 112 76
f 75 109 110
f 76 112 77
f 77 111 113
f 77 113 78
f 78 113 79
f 79 114 115
f 79 115 116
f 79 116 117
f 79 117 81
f 79 113 118
f 79 118 119
f 79 119 120
f 79 120 114
f 80 81 117
f 80 117 82
f 82 117 83
f 83 117 121
f 83 121 122
f 83 122 123
f 91 124 125
f 91 125 92
f 92 125 93
f 93 125 126
f 93 126 127
f 93 127 128
f 93 128 94
f 94 128 129
f 94 129 130
f 94 130 99
f 95 101 131
f 95 131 96
f 96 131 132
f 96 132 133
f 96 133 98
f 96 98 97
f 98 134 135
f 98 135 136
f 98 136 137
f 98 137 138
f 98 138 139
f 98 139 140
f 98 140 104
f 98 104 103
f 98 103 102
f 98 133 141
f 98 141 134
f 99 130 142
f 99 142 100
f 100 142 101
f 101 142 143
f 101 143 144
f 101 144 131
f 104 140 106
f 106 140 108
f 108 140 109
f 109 145 146
f 109 146 147
f 109 147 110
f 109 140 139
f 109 139 138
f 109 138 137
f 109 137 136
f 109 136 145
f 110 147 148
f 110 148 111
f 111 148 113
f 113 119 118
f 113 148 119
f 114 120 115
f 115 149 150
f 115 150 151
f 115 151 116
f 115 120 152
f 115 152 153
f 115 153 154
f 115 154 155
f 115 155 149
f 116 151 150
f 116 150 156
f 116 156 122
f 116 122 117
f 117 122 121
f 119 148 147
f 119 147 146
f 119 146 120
f 120 146 157
f 120 157 152
f 122 156 149
f 122 149 158
f 122 158 159
f 122 159 160
f 122 160 161
f 122 161 190
f 122 190 211
f 122 211 235
f 122 235 249
f 122 249 227
f 122 227 207
f 122 207 226
f 122 226 225
f 122 225 224
f 122 224 247
f 122 247 264
f 122 264 244
f 122 244 263
f 122 263 242
f 122 242 252
f 122 252 266
f 122 266 267
f 122 267 261
f 122 261 260
f 122 260 259
f 122 259 258
f 122 258 257
f 122 257 256
f 122 256 255
f 122 255 236
f 122 236 213
f 122 213 193
f 122 193 191
f 122 191 162
f 122 162 123
f 123 162 163
f 124 126 125
f 127 164 128
f 128 165 129
f 128 164 166
f 128 166 167
f 128 167 168
f 128 168 165
f 129 165 168
f 129 168 169
f 129 169 130
f 130 170 142
f 130 169 171
f 130 171 170
f 131 144 143
f 131 143 172
f 131 172 173
f 131 173 132
f 132 173 174
f 132 174 133
f 133 174 141
f 134 141 135
f 135 175 176
f 135 176 177
f 135 177 178
f 135 178 145
f 135 145 136
f 135 141 179
f 135 179 180
f 135 180 175
f 141 174 181
f 141 181 179
f 142 170 143
f 143 182 172
f 143 170 183
f 143 183 184
f 143 184 182
f 145 178 157
f 145 157 146
f 149 156 150
f 149 155 158
f 152 157 153
f 153 157 178
f 153 178 185
f 153 185 177
f 153 177 186
f 153 186 154
f 154 186 155
f 155 186 187
f 155 187 188
f 155 188 158
f 158 188 159
f 159 188 189
f 159 189 160
f 160 189 161
f 161 189 190
f 162 191 163
f 163 191 193
f 163 193 192
f 164 194 167
f 164 167 166
f 167 194 168
f 168 195 196
f 168 196 171
f 168 171 169
f 170 171 183
f 171 196 197
f 171 197 183
f 172 182 198
f 172 198 199
f 172 199 173
f 173 200 174
f 173 199 200
f 174 200 181
f 175 201 202
f 175 202 176
f 175 180 201
f 176 202 203
f 176 203 187
f 176 187 177
f 177 187 186
f 177 185 178
f 179 181 204
f 179 204 205
f 179 205 180
f 180 205 204
f 180 204 206
f 180 206 226
f 180 226 207
f 180 207 201
f 181 200 204
f 182 184 198
f 183 197 184
f 184 208 198
f 184 197 209
f 184 209 208
f 187 203 188
f 188 203 189
f 189 203 210
f 189 210 211
f 189 211 190
f 192 193 212
f 193 213 214
f 193 214 212
f 195 215 196
f 196 215 216
f 196 216 209
f 196 209 197
f 198 208 217
f 198 217 199
f 199 217 218
f 199 218 200
f 200 219 204
f 200 218 219
f 201 220 202
f 201 207 220
f 202 221 210
f 202 210 203
f 202 220 221
f 204 219 222
f 204 222 206
f 206 222 219
f 206 219 223
f 206 223 224
f 206 224 225
f 206 225 226
f 207 227 220
f 208 228 217
f 208 209 229
f 208 229 230
f 208 230 228
f 209 216 215
f 209 215 231
f 209 231 232
f 209 232 233
f 209 233 234
f 209 234 229
f 210 221 211
f 211 221 235
f 213 236 237
f 213 237 238
f 213 238 214
f 215 239 240
f 215 240 231
f 217 228 241
f 217 241 242
f 217 242 243
f 217 243 244
f 217 244 245
f 217 245 218
f 218 245 246
f 218 246 247
f 218 247 224
f 218 224 223
f 218 223 219
f 220 248 221
f 220 227 248
f 221 248 235
f 227 249 248
f 228 230 250
f 228 250 251
f 228 251 252
f 228 252 242
f 228 242 241
f 229 234 253
f 229 253 254
f 229 254 250
f 229 250 230
f 231 240 232
f 232 240 255
f 232 255 256
f 232 256 257
f 232 257 233
f 233 258 259
f 233 259 234
f 233 257 258
f 234 259 260
f 234 260 261
f 234 261 262
f 234 262 253
f 235 248 249
f 236 238 237
f 239 255 240
f 242 263 243
f 243 263 244
f 244 264 245
f 245 264 247
f 245 247 246
f 250 265 252
f 250 252 251
f 250 254 262
f 250 262 265
f 252 265 266
f 253 262 254
f 261 267 262
f 262 267 266
f 262 266 265

