# https://github.com/mikedh/trimesh
v 0.00271125 0.03202335 -0.06580579
v 0.00417276 0.03201762 -0.06580579
v 0.00305680 0.03196605 -0.06615222
v 0.00159530 0.03194313 -0.06615222
v 0.00124975 0.03199470 -0.06580579
v 0.00563426 0.03197178 -0.06580579
v 0.00451830 0.03196032 -0.06615222
v 0.00305680 0.03151912 -0.06761446
v 0.00451830 0.03152485 -0.06761446
v 0.00159530 0.03148188 -0.06761446
v 0.00013380 0.03189156 -0.06615222
v -0.00021175 0.03195459 -0.06580579
v 0.00709576 0.03190875 -0.06580579
v 0.00597981 0.03191448 -0.06615222
v 0.00744131 0.03145036 -0.06761446
v 0.00597981 0.03149334 -0.06761446
v 0.00305680 0.03117819 -0.06847201
v 0.00159530 0.03115527 -0.06843691
v 0.00451830 0.03118392 -0.06849000
v 0.00744131 0.03115527 -0.06844771
v 0.00597981 0.03117246 -0.06847920
v 0.00013380 0.03112662 -0.06838742
v 0.00013380 0.03142744 -0.06761446
v -0.00132771 0.03182567 -0.06615222
v -0.00167326 0.03188870 -0.06580579
v 0.00855727 0.03181707 -0.06580579
v 0.00890282 0.03176264 -0.06615222
v 0.00744131 0.03185145 -0.06615222
v 0.00890282 0.03138160 -0.06761446
v 0.00968455 0.03110370 -0.06835232
v 0.00890282 0.03112662 -0.06839281
v 0.00305680 0.03066823 -0.06920447
v 0.00451830 0.03069115 -0.06922066
v 0.00744131 0.03070834 -0.06918018
v 0.00597981 0.03070548 -0.06920987
v 0.00890282 0.03069975 -0.06912348
v 0.00013380 0.03057083 -0.06911808
v -0.00064794 0.03110370 -0.06835232
v 0.00159530 0.03062240 -0.06916758
v -0.00121441 0.03131571 -0.06771164
v -0.00278921 0.03174545 -0.06615222
v -0.00313476 0.03180275 -0.06580579
v 0.01001877 0.03169961 -0.06580579
v 0.01036432 0.03164804 -0.06615222
v 0.01025102 0.03126701 -0.06770264
v 0.01182582 0.03123835 -0.06734091
v 0.01065888 0.03107219 -0.06824794
v 0.01182582 0.03054218 -0.06907579
v 0.01025102 0.03074272 -0.06893452
v 0.00305680 0.02993481 -0.07009531
v 0.00451830 0.02996346 -0.07013220
v 0.00744131 0.02998065 -0.07016999
v 0.00597981 0.02997492 -0.07015380
v 0.01036432 0.02994341 -0.07016639
v 0.00890282 0.02997206 -0.07017539
v 0.01182582 0.02989757 -0.07012950
v 0.00013380 0.02984027 -0.06999002
v -0.00132771 0.02977724 -0.06992973
v -0.00121441 0.03059948 -0.06893452
v 0.00159530 0.02988897 -0.07004402
v -0.00278921 0.03033304 -0.06907579
v -0.00571788 0.03013536 -0.06894352
v -0.00604644 0.03011817 -0.06892192
v -0.00162227 0.03106360 -0.06826234
v -0.00278921 0.03131858 -0.06742279
v -0.00425071 0.03126128 -0.06727972
v -0.00425071 0.03163658 -0.06615222
v -0.00459626 0.03170534 -0.06580579
v 0.01036432 0.03167096 -0.06580579
v 0.01182582 0.03151052 -0.06615222
v 0.01182582 0.03101203 -0.06807157
v 0.01328732 0.03116100 -0.06707455
v 0.01328732 0.03038461 -0.06907579
v 0.01328732 0.02982308 -0.07004762
v 0.00597981 0.02902949 -0.07088177
v 0.00451830 0.02897219 -0.07086197
v 0.00890282 0.02912117 -0.07090607
v 0.00744131 0.02908106 -0.07090066
v 0.01036432 0.02914695 -0.07089436
v 0.01182582 0.02914409 -0.07085837
v 0.01328732 0.02912403 -0.07077739
v 0.00308513 0.02877451 -0.07090426
v 0.00159530 0.02890630 -0.07071890
v 0.00013380 0.02890630 -0.07060642
v -0.00132771 0.02890630 -0.07048853
v -0.00278921 0.02969416 -0.06985775
v -0.00414875 0.03010098 -0.06919007
v -0.00864655 0.02996633 -0.06874375
v -0.00358794 0.02964545 -0.06981546
v -0.00278921 0.03100916 -0.06815256
v -0.01010806 0.02988038 -0.06864027
v -0.00425071 0.03094040 -0.06801128
v -0.00604644 0.03118392 -0.06708176
v -0.00604644 0.03143031 -0.06634299
v -0.00571788 0.03151912 -0.06615222
v -0.00604644 0.03159074 -0.06580579
v 0.01148027 0.03156209 -0.06580579
v 0.01182582 0.03152485 -0.06580579
v 0.01328732 0.03134722 -0.06615222
v 0.01409172 0.03110943 -0.06691799
v 0.01328732 0.03092894 -0.06780522
v 0.01458455 0.03027574 -0.06892732
v 0.01458455 0.03020985 -0.06907579
v 0.01458455 0.02980589 -0.06982896
v 0.01458455 0.02973713 -0.06994233
v 0.01458455 0.02915841 -0.07058662
v 0.00890282 0.02839348 -0.07138837
v 0.00744131 0.02834764 -0.07136138
v 0.00597981 0.02829607 -0.07133169
v 0.00451830 0.02823590 -0.07130019
v 0.00359495 0.02819579 -0.07127859
v 0.01182582 0.02841640 -0.07142167
v 0.01036432 0.02841640 -0.07141087
v 0.01328732 0.02839348 -0.07142167
v 0.01458455 0.02842785 -0.07131729
v 0.01458455 0.02834191 -0.07139377
v 0.01458455 0.02907246 -0.07067300
v 0.00262062 0.02813276 -0.07125070
v -0.00278921 0.02890630 -0.07035986
v -0.00571788 0.02875732 -0.07019069
v -0.00456227 0.02957383 -0.06975337
v -0.00717938 0.02864559 -0.07012501
v -0.00864655 0.02853386 -0.07005662
v -0.01010806 0.02842499 -0.06998373
v -0.01266285 0.02823304 -0.06984785
v -0.01363719 0.02815282 -0.06979296
v -0.01156956 0.02978583 -0.06852869
v -0.00571788 0.03086592 -0.06785111
v -0.00787048 0.03109797 -0.06687209
v -0.00689615 0.03114381 -0.06698547
v -0.01303106 0.02969129 -0.06841081
v -0.01378447 0.02964259 -0.06834962
v -0.01156956 0.03033590 -0.06761446
v -0.00735499 0.03131571 -0.06634299
v -0.00604644 0.02670030 -0.06580579
v -0.00864655 0.03119825 -0.06634299
v -0.01044227 0.03102922 -0.06634299
v -0.01157522 0.03092035 -0.06634299
v -0.01429996 0.03060234 -0.06634299
v -0.01594840 0.03039893 -0.06634299
v -0.01740991 0.03019839 -0.06634299
v -0.01887141 0.02998638 -0.06634299
v -0.02035557 0.02975718 -0.06634299
v -0.02108066 0.02963972 -0.06634299
v -0.02190771 0.02949648 -0.06634299
v -0.02220794 0.02943631 -0.06634299
v -0.02471176 0.02891489 -0.06634299
v -0.02617892 0.02859402 -0.06634299
v -0.02736852 0.02832472 -0.06634299
v -0.02817858 0.02811844 -0.06634299
v -0.02868840 0.02797519 -0.06634299
v -0.03056343 0.02737356 -0.06634299
v -0.03180968 0.02694955 -0.06634299
v -0.03260274 0.02664873 -0.06634299
v -0.03310123 0.02642813 -0.06634299
v -0.03477800 0.02560589 -0.06634299
v -0.03555407 0.02513604 -0.06634299
v -0.03608089 0.02470917 -0.06634299
v -0.03635280 0.02446851 -0.06634299
v -0.03711754 0.02372649 -0.06634299
v -0.03754806 0.02320794 -0.06634299
v -0.03774633 0.02294436 -0.06634299
v -0.03845442 0.02191012 -0.06634299
v -0.03885095 0.02122540 -0.06634299
v -0.03925315 0.02037738 -0.06634299
v -0.03952505 0.01977575 -0.06634299
v -0.03988760 0.01895351 -0.06634299
v -0.04019349 0.01817711 -0.06634299
v -0.04049939 0.01731190 -0.06634299
v -0.04108286 0.01561299 -0.06634299
v -0.04139442 0.01467616 -0.06634299
v -0.04165499 0.01381381 -0.06634299
v -0.04192690 0.01277957 -0.06634299
v -0.04227245 0.01128694 -0.06634299
v -0.04255569 0.00990604 -0.06634299
v -0.04265765 0.00931586 -0.06634299
v -0.04277095 0.00861968 -0.06634299
v -0.04279928 0.00844206 -0.06634299
v -0.04293523 0.00743360 -0.06634299
v -0.04299187 0.00698094 -0.06634299
v -0.04307685 0.00622173 -0.06634299
v -0.04317881 0.00511873 -0.06634299
v -0.04324112 0.00406157 -0.06634299
v -0.04328644 0.00275516 -0.06634299
v 0.01294177 0.03139879 -0.06580579
v 0.01441461 0.03120684 -0.06580579
v 0.01458455 0.03117819 -0.06604784
v 0.01458455 0.03107792 -0.06668852
v 0.01458455 0.03086592 -0.06746868
v 0.01458455 0.03085446 -0.06750558
v 0.01182582 0.02744518 -0.07189769
v 0.01036432 0.02744518 -0.07185719
v 0.00890282 0.02744518 -0.07180050
v 0.00744131 0.02744518 -0.07173571
v 0.00597981 0.02744518 -0.07166643
v 0.00451830 0.02744518 -0.07159444
v 0.01328732 0.02744518 -0.07191208
v 0.01458455 0.02755405 -0.07182749
v 0.01458455 0.02744518 -0.07188598
v 0.00308513 0.02756264 -0.07147296
v -0.00385418 0.02677192 -0.07128939
v -0.00482852 0.02667165 -0.07125790
v -0.00571788 0.02744518 -0.07087817
v -0.00604644 0.02744518 -0.07085207
v -0.00717938 0.02744518 -0.07076029
v -0.00864655 0.02744518 -0.07063521
v -0.00571788 0.02948788 -0.06967598
v -0.01010806 0.02744518 -0.07050563
v -0.01156956 0.02744518 -0.07037066
v -0.01310470 0.02757697 -0.07015110
v -0.01448690 0.02733345 -0.07013400
v -0.01594840 0.02717874 -0.07005931
v -0.01989673 0.02677192 -0.06984156
v -0.02087673 0.02666592 -0.06978486
v -0.01448690 0.02806401 -0.06973627
v -0.01740991 0.02862267 -0.06879324
v -0.01594840 0.02874300 -0.06890302
v -0.01010806 0.02915841 -0.06937184
v -0.00864655 0.02926728 -0.06947532
v -0.01010806 0.03049920 -0.06761446
v -0.00604644 0.03086305 -0.06778362
v -0.01010806 0.03099197 -0.06655895
v -0.01887141 0.02849375 -0.06867447
v -0.02033291 0.02836482 -0.06854579
v -0.01475314 0.02956810 -0.06824704
v -0.01594840 0.02992622 -0.06738320
v -0.01435661 0.02994627 -0.06770174
v -0.01303106 0.03016401 -0.06761446
v 0.01457889 0.02664300 -0.06580579
v -0.01740991 0.02982594 -0.06720683
v -0.01887141 0.02971421 -0.06701516
v -0.01968147 0.02965118 -0.06690629
v -0.02065580 0.02957097 -0.06671282
v -0.02179441 0.02947069 -0.06645817
v -0.02694933 0.02818720 -0.06689909
v -0.02792366 0.02804968 -0.06663184
v -0.03140182 0.02675187 -0.06693508
v -0.03237615 0.02655705 -0.06664263
v -0.03437014 0.02534232 -0.06697018
v -0.03535014 0.02498993 -0.06665073
v -0.03591661 0.02401585 -0.06703497
v -0.03689095 0.02348297 -0.06670023
v -0.03727615 0.02250890 -0.06697737
v -0.03830713 0.02159785 -0.06664713
v -0.03856205 0.02078420 -0.06684960
v -0.03977997 0.01867275 -0.06659134
v -0.03997823 0.01771586 -0.06679651
v -0.04130378 0.01429226 -0.06661294
v -0.04146240 0.01333823 -0.06680011
v -0.04160401 0.01236129 -0.06696658
v -0.04172297 0.01136716 -0.06710335
v -0.04273696 0.00844206 -0.06645277
v -0.04188158 0.00990604 -0.06728962
v -0.04283893 0.00698094 -0.06662014
v -0.04292390 0.00551982 -0.06676411
v -0.04297488 0.00446553 -0.06684960
v -0.04299754 0.00349145 -0.06689819
v -0.04304852 0.00275516 -0.06684960
v -0.03792760 0.00275516 -0.06634299
v 0.01458455 0.03117819 -0.06580579
v 0.01328732 0.02598406 -0.07243399
v 0.01458455 0.02615309 -0.07240249
v 0.01458455 0.02598406 -0.07246278
v 0.01182582 0.02598406 -0.07237460
v 0.01036432 0.02598406 -0.07230351
v 0.00597981 0.02598406 -0.07207405
v 0.00451830 0.02598406 -0.07199486
v 0.00159530 0.02729334 -0.07146396
v -0.00717938 0.02564887 -0.07137488
v -0.00864655 0.02547411 -0.07132988
v -0.00972852 0.02534232 -0.07129389
v -0.00604644 0.02652267 -0.07121471
v -0.01303106 0.02598406 -0.07084307
v -0.01448690 0.02598406 -0.07071440
v -0.01594840 0.02598406 -0.07057852
v -0.01740991 0.02598406 -0.07043365
v -0.01887141 0.02598406 -0.07028518
v -0.02036690 0.02733345 -0.06936914
v -0.01887141 0.02760562 -0.06940513
v -0.01740991 0.02775746 -0.06952481
v -0.01594840 0.02790930 -0.06963459
v -0.02036690 0.02609866 -0.07007911
v -0.02179441 0.02580357 -0.07004492
v -0.02471176 0.02540535 -0.06988115
v -0.02557846 0.02529361 -0.06982806
v -0.02179441 0.02653700 -0.06972098
v -0.02325592 0.02736210 -0.06887693
v -0.02193037 0.02758843 -0.06891562
v -0.02250251 0.02817287 -0.06834063
v -0.01594840 0.02947642 -0.06811386
v 0.00159530 0.00275516 -0.06941773
v 0.01458455 0.00275516 -0.07056952
v 0.01458455 0.02663727 -0.06582918
v 0.01458455 0.03061094 -0.06580579
v -0.01740991 0.02935323 -0.06793750
v -0.02023661 0.02916414 -0.06748129
v -0.02193037 0.02867424 -0.06775753
v -0.02325592 0.02859402 -0.06751367
v -0.02471176 0.02843931 -0.06729861
v -0.01887141 0.02922717 -0.06774583
v -0.02617892 0.02827601 -0.06704216
v -0.02471176 0.02792362 -0.06802928
v -0.02617892 0.02772308 -0.06777283
v -0.02760644 0.02744232 -0.06760546
v -0.02910193 0.02714436 -0.06742549
v -0.03056343 0.02689798 -0.06712405
v -0.03188898 0.02592676 -0.06756227
v -0.03348644 0.02556578 -0.06719784
v -0.02910193 0.02651694 -0.06815616
v -0.03056343 0.02621612 -0.06785471
v -0.03489696 0.02451149 -0.06727702
v -0.03237049 0.02499280 -0.06819035
v -0.03352610 0.02451435 -0.06796989
v -0.03404158 0.02363768 -0.06827584
v -0.03498193 0.02311340 -0.06804188
v -0.03640945 0.02301885 -0.06726262
v -0.03757638 0.02159785 -0.06718164
v -0.03636980 0.02159785 -0.06793840
v -0.03879430 0.01981013 -0.06703497
v -0.03799558 0.02023127 -0.06743629
v -0.03904922 0.01867275 -0.06723293
v -0.04015384 0.01674751 -0.06696928
v -0.04032945 0.01575624 -0.06712855
v -0.04057303 0.01429226 -0.06735440
v -0.04078829 0.01278244 -0.06760546
v -0.04096956 0.01136716 -0.06783492
v -0.04117349 0.00990604 -0.06802028
v -0.04136043 0.00844206 -0.06819215
v -0.04200621 0.00844206 -0.06746059
v -0.04147372 0.00740495 -0.06829654
v -0.04200621 0.00694370 -0.06773143
v -0.04227812 0.00551982 -0.06761446
v -0.04252170 0.00400714 -0.06747678
v -0.04256702 0.00275516 -0.06751727
v -0.04301453 0.00275516 -0.06691889
v 0.01458455 0.02516183 -0.07267244
v 0.01458455 0.02501572 -0.07270124
v 0.01328732 0.02476074 -0.07267244
v -0.00571788 0.02452008 -0.07166372
v -0.00717938 0.02452008 -0.07158273
v -0.00864655 0.02452008 -0.07149816
v -0.01017037 0.02463468 -0.07138567
v -0.01070285 0.02519621 -0.07125790
v -0.01156956 0.02598406 -0.07096095
v -0.01017037 0.02589238 -0.07109683
v -0.00717938 0.02638229 -0.07117331
v -0.01887141 0.02452008 -0.07076389
v -0.02033291 0.02452008 -0.07063791
v -0.02179441 0.02452008 -0.07050204
v -0.02325592 0.02452008 -0.07035896
v -0.02471176 0.02452008 -0.07020959
v -0.02611095 0.02457738 -0.07001252
v -0.02655280 0.02510166 -0.06974797
v -0.02611095 0.02586087 -0.06938803
v -0.02471176 0.02613877 -0.06948072
v -0.02325592 0.02632786 -0.06960760
v -0.02471176 0.02719020 -0.06875005
v -0.02325592 0.02809552 -0.06824435
v 0.01458455 0.00275516 -0.07499852
v -0.02617892 0.02699539 -0.06859618
v -0.02729488 0.02683495 -0.06845400
v -0.02826921 0.02667738 -0.06831183
v -0.03139615 0.02530221 -0.06838112
v -0.03306725 0.02401872 -0.06846210
v -0.03352610 0.02311340 -0.06868616
v -0.03451176 0.02266360 -0.06848460
v -0.03548609 0.02208202 -0.06824435
v -0.03687396 0.02013386 -0.06819215
v -0.03584864 0.02110508 -0.06843601
v -0.03785962 0.01877875 -0.06802748
v -0.03710055 0.01933741 -0.06832353
v -0.03928147 0.01582213 -0.06793480
v -0.03971199 0.01429226 -0.06808597
v -0.03942875 0.01722309 -0.06739400
v -0.03835811 0.01721163 -0.06818856
v -0.03992725 0.01320072 -0.06824435
v -0.04011419 0.01222664 -0.06837842
v -0.04023881 0.01136716 -0.06847740
v -0.04044274 0.00990604 -0.06863217
v -0.04062968 0.00844206 -0.06876445
v -0.04155303 0.00643087 -0.06836942
v -0.04091292 0.00694370 -0.06878335
v -0.04161534 0.00551982 -0.06842522
v -0.04168899 0.00405871 -0.06850260
v -0.04173997 0.00275516 -0.06855658
v -0.04247639 0.00275516 -0.06763425
v 0.01458455 0.02436824 -0.07278582
v 0.01458455 0.02305896 -0.07294599
v -0.00864655 0.02305896 -0.07168172
v -0.01010806 0.02305896 -0.07160164
v -0.01156956 0.02305896 -0.07151705
v -0.01391476 0.02384682 -0.07127769
v -0.01443025 0.02440835 -0.07113462
v -0.01594840 0.02452008 -0.07099964
v -0.01740991 0.02452008 -0.07088356
v -0.00864655 0.02620466 -0.07111663
v -0.02471176 0.02305896 -0.07060821
v -0.02617892 0.02305896 -0.07045884
v -0.02764043 0.02305896 -0.07025728
v -0.02764043 0.02411326 -0.06992973
v -0.02854679 0.02388693 -0.06984695
v -0.02764043 0.02484668 -0.06963279
v -0.02910193 0.02578352 -0.06872216
v -0.02772540 0.02610726 -0.06885533
v 0.01458455 0.02159498 -0.07310166
v -0.01448690 0.00275516 -0.07339231
v -0.01010806 0.02159785 -0.07175371
v -0.03056343 0.02548556 -0.06851339
v -0.03194563 0.02451435 -0.06860608
v -0.03056343 0.02452008 -0.06903620
v -0.03202494 0.02305896 -0.06922606
v -0.03348644 0.02159785 -0.06925306
v -0.03498193 0.02159785 -0.06866277
v -0.03494794 0.02013386 -0.06912528
v -0.03614320 0.02013386 -0.06858178
v -0.03736112 0.01836333 -0.06847470
v -0.03855072 0.01635501 -0.06830914
v -0.03875465 0.01537807 -0.06844231
v -0.03898124 0.01429226 -0.06858988
v -0.03940043 0.01275952 -0.06870686
v -0.03933812 0.01136716 -0.06905779
v -0.03922483 0.00986880 -0.06942043
v -0.03953072 0.00844206 -0.06949512
v -0.03972332 0.00698094 -0.06960580
v -0.03989893 0.00551982 -0.06970658
v -0.04079962 0.00551982 -0.06905510
v -0.04065800 0.00396989 -0.06932685
v -0.04095823 0.00275516 -0.06920627
v 0.01458455 0.02176688 -0.07308367
v -0.01156956 0.02159785 -0.07167272
v -0.01303106 0.02159785 -0.07158904
v -0.01448690 0.02159785 -0.07150175
v -0.01303106 0.02305896 -0.07142887
v -0.01443025 0.02309621 -0.07133618
v -0.01488343 0.02360617 -0.07124530
v -0.02033291 0.02305896 -0.07094926
v -0.02179441 0.02305896 -0.07084128
v -0.02325592 0.02305896 -0.07072610
v -0.02617892 0.02159785 -0.07073059
v -0.02764043 0.02159785 -0.07058212
v -0.02910193 0.02159785 -0.07037786
v -0.02905661 0.02307902 -0.06999633
v -0.03021788 0.02260344 -0.06989824
v -0.02952112 0.02357752 -0.06973537
v -0.02905661 0.02443413 -0.06948072
v -0.01594840 0.00275516 -0.07331043
v -0.03064840 0.02307902 -0.06962649
v -0.03119789 0.02224532 -0.06978306
v -0.03266505 0.02076415 -0.06977946
v -0.03352610 0.02021695 -0.06964179
v -0.03211557 0.02169239 -0.06967058
v -0.03404158 0.01915406 -0.06974617
v -0.03489696 0.01866988 -0.06953381
v -0.03540112 0.01721163 -0.06969848
v -0.03640945 0.01721163 -0.06925306
v -0.03653407 0.01877875 -0.06877165
v -0.03762737 0.01721163 -0.06863037
v -0.03798424 0.01582213 -0.06877705
v -0.03787662 0.01429226 -0.06922697
v -0.03784262 0.01295147 -0.06955901
v -0.03830147 0.01136716 -0.06965799
v -0.03849407 0.01033292 -0.06975517
v -0.03866401 0.00935597 -0.06983886
v -0.03879430 0.00844206 -0.06990904
v -0.03899257 0.00698094 -0.07001432
v -0.03916251 0.00551982 -0.07010791
v -0.04000656 0.00439963 -0.06977227
v -0.04083927 0.00275516 -0.06929805
v -0.04008020 0.00342555 -0.06981546
v -0.04012552 0.00275516 -0.06984425
v -0.01757418 0.00275516 -0.07321864
v -0.02181141 0.00275516 -0.07297659
v -0.01594840 0.02013386 -0.07156564
v -0.02143187 0.01960958 -0.07129119
v -0.02325592 0.00275516 -0.07289290
v -0.01594840 0.02159785 -0.07141267
v -0.01774979 0.02210781 -0.07124350
v -0.01887141 0.02305896 -0.07104824
v -0.02179441 0.02159785 -0.07104374
v -0.02325592 0.02159785 -0.07094476
v -0.02471176 0.02159785 -0.07084307
v -0.02617892 0.02013386 -0.07091686
v -0.02764043 0.02013386 -0.07079538
v -0.02910193 0.02013386 -0.07063881
v -0.03056343 0.02013386 -0.07042645
v -0.03064840 0.02169239 -0.07005662
v -0.03168505 0.02127124 -0.06992074
v -0.03306158 0.01978721 -0.06990634
v -0.03211557 0.02021695 -0.07006472
v -0.03352610 0.01866988 -0.07001882
v -0.03437581 0.01817998 -0.06986495
v -0.03563338 0.01640658 -0.06979117
v -0.03639245 0.01585365 -0.06958600
v -0.03712320 0.01351873 -0.06979926
v -0.03733280 0.01254465 -0.06989554
v -0.03756505 0.01136716 -0.06999993
v -0.03795592 0.00986880 -0.07007372
v -0.03787662 0.00844206 -0.07032747
v -0.03787662 0.00698094 -0.07053353
v -0.03787662 0.00551982 -0.07072250
v -0.03934944 0.00275516 -0.07028157
v -0.03944575 0.00396989 -0.07011690
v -0.03787662 0.00405871 -0.07087906
v -0.02033291 0.01867275 -0.07145226
v -0.02483638 0.00275516 -0.07279932
v -0.01959083 0.02086156 -0.07126780
v -0.02687002 0.00275516 -0.07267604
v -0.02240054 0.01932882 -0.07126060
v -0.02186806 0.02011094 -0.07120750
v -0.01901303 0.02160930 -0.07122011
v -0.02033291 0.02159785 -0.07113822
v -0.02325592 0.02013386 -0.07111572
v -0.02471176 0.02013386 -0.07101765
v -0.02617892 0.01867275 -0.07108063
v -0.02764043 0.01867275 -0.07096995
v -0.02910193 0.01867275 -0.07083227
v -0.03056343 0.01867275 -0.07066220
v -0.03202494 0.01721163 -0.07064691
v -0.03202494 0.01867275 -0.07040755
v -0.03348644 0.01721163 -0.07032387
v -0.03466471 0.01721163 -0.06996753
v -0.03507257 0.01585365 -0.07009801
v -0.03618852 0.01429226 -0.07000172
v -0.03654540 0.01295147 -0.07012320
v -0.03640945 0.01136716 -0.07045434
v -0.03640945 0.00990604 -0.07068650
v -0.03640945 0.00844206 -0.07089976
v -0.03637546 0.00711273 -0.07109772
v -0.03680031 0.00551982 -0.07115261
v -0.03702124 0.00405871 -0.07122911
v -0.03785395 0.00275516 -0.07099964
v -0.03712887 0.00325939 -0.07126240
v -0.03771234 0.00275516 -0.07106443
v -0.03778031 0.00275516 -0.07103474
v -0.02761777 0.00275516 -0.07263015
v -0.02910193 0.00275516 -0.07253657
v -0.02325592 0.01906238 -0.07123271
v -0.02630355 0.01724028 -0.07122280
v -0.02687002 0.01646388 -0.07126509
v -0.02764043 0.01547261 -0.07131459
v -0.02764043 0.01620031 -0.07123720
v -0.02764043 0.01721163 -0.07112922
v -0.02853546 0.01515747 -0.07128219
v -0.02905661 0.01568748 -0.07117871
v -0.02910193 0.01721163 -0.07100414
v -0.03056343 0.01575624 -0.07102844
v -0.03056343 0.01721163 -0.07085387
v -0.03202494 0.01575624 -0.07085567
v -0.03348644 0.01429226 -0.07081428
v -0.03348644 0.01575624 -0.07058572
v -0.03494794 0.01429226 -0.07043095
v -0.03494794 0.01283114 -0.07067930
v -0.03494794 0.01136716 -0.07091236
v -0.03566736 0.00768858 -0.07126509
v -0.03585997 0.00671450 -0.07132988
v -0.03607522 0.00551982 -0.07139377
v -0.03629049 0.00405871 -0.07145856
v -0.03656806 0.00275516 -0.07148106
v -0.03660771 0.00275516 -0.07146846
v -0.03056343 0.00275516 -0.07243308
v -0.02910193 0.00405871 -0.07240159
v -0.02416228 0.01804819 -0.07127859
v -0.03056343 0.00405871 -0.07229631
v -0.03056343 0.00844206 -0.07183290
v -0.03056343 0.00990604 -0.07167722
v -0.03202494 0.00844206 -0.07171322
v -0.03109025 0.01340126 -0.07124980
v -0.03202494 0.01429226 -0.07104464
v -0.03407557 0.01049335 -0.07124890
v -0.03491962 0.00996334 -0.07112922
v -0.03544644 0.00844206 -0.07121290
v -0.03440979 0.00951927 -0.07131099
v -0.03508956 0.00711273 -0.07145586
v -0.03494794 0.00551982 -0.07166103
v -0.03494794 0.00405871 -0.07180230
v -0.03494794 0.00275516 -0.07192557
v -0.03510089 0.00275516 -0.07188778
v -0.03202494 0.00275516 -0.07231520
v -0.03202494 0.00405871 -0.07217933
v -0.03202494 0.00698094 -0.07186889
v -0.03348644 0.00551982 -0.07188419
v -0.03348644 0.00698094 -0.07172761
v -0.03348644 0.00844206 -0.07156654
v -0.03202494 0.00990604 -0.07155035
v -0.03261973 0.01198025 -0.07125340
v -0.03208725 0.01287698 -0.07120480
v -0.03310123 0.01100331 -0.07131189
v -0.03354875 0.00996334 -0.07138117
v -0.03348644 0.00405871 -0.07203716
v -0.03348644 0.00275516 -0.07217213
v -0.03365071 0.00275516 -0.07214513
v -0.03218922 0.00275516 -0.07229991
f 1 2 7
f 1 7 3
f 1 3 4
f 1 4 5
f 1 5 12
f 1 12 25
f 1 25 42
f 1 42 68
f 1 68 96
f 1 96 135
f 1 135 229
f 1 229 294
f 1 294 260
f 1 260 186
f 1 186 185
f 1 185 98
f 1 98 97
f 1 97 69
f 1 69 43
f 1 43 26
f 1 26 13
f 1 13 6
f 1 6 2
f 2 6 14
f 2 14 7
f 3 8 4
f 3 7 9
f 3 9 8
f 4 8 10
f 4 10 11
f 4 11 12
f 4 12 5
f 6 13 28
f 6 28 14
f 7 14 15
f 7 15 16
f 7 16 9
f 8 17 18
f 8 18 10
f 8 9 19
f 8 19 17
f 9 16 20
f 9 20 21
f 9 21 19
f 10 18 22
f 10 22 23
f 10 23 11
f 11 23 24
f 11 24 25
f 11 25 12
f 13 26 27
f 13 27 28
f 14 28 15
f 15 20 16
f 15 28 29
f 15 29 30
f 15 30 31
f 15 31 20
f 17 32 18
f 17 19 33
f 17 33 32
f 18 32 22
f 19 21 34
f 19 34 35
f 19 35 33
f 20 34 21
f 20 31 36
f 20 36 34
f 22 37 38
f 22 38 23
f 22 32 39
f 22 39 37
f 23 38 40
f 23 40 41
f 23 41 24
f 24 41 25
f 25 41 42
f 26 43 44
f 26 44 27
f 27 45 29
f 27 29 28
f 27 44 46
f 27 46 45
f 29 45 30
f 30 45 47
f 30 47 48
f 30 48 49
f 30 49 31
f 31 49 36
f 32 50 39
f 32 33 51
f 32 51 50
f 33 35 52
f 33 52 53
f 33 53 51
f 34 36 54
f 34 54 55
f 34 55 35
f 35 55 52
f 36 49 56
f 36 56 54
f 37 57 58
f 37 58 59
f 37 59 38
f 37 39 60
f 37 60 57
f 38 59 61
f 38 61 62
f 38 62 63
f 38 63 64
f 38 64 65
f 38 65 40
f 39 50 60
f 40 65 41
f 41 65 66
f 41 66 67
f 41 67 68
f 41 68 42
f 43 69 44
f 44 69 70
f 44 70 46
f 45 46 47
f 46 71 47
f 46 70 72
f 46 72 71
f 47 71 73
f 47 73 48
f 48 56 49
f 48 73 74
f 48 74 56
f 50 51 75
f 50 75 76
f 50 76 60
f 51 53 77
f 51 77 78
f 51 78 75
f 52 55 79
f 52 79 77
f 52 77 53
f 54 56 80
f 54 80 79
f 54 79 55
f 56 74 81
f 56 81 80
f 57 60 76
f 57 76 82
f 57 82 83
f 57 83 58
f 58 83 84
f 58 84 85
f 58 85 86
f 58 86 61
f 58 61 59
f 61 86 87
f 61 87 62
f 62 87 63
f 63 88 64
f 63 87 89
f 63 89 88
f 64 90 66
f 64 66 65
f 64 88 91
f 64 91 90
f 66 90 92
f 66 92 93
f 66 93 94
f 66 94 67
f 67 94 95
f 67 95 96
f 67 96 68
f 69 97 70
f 70 97 98
f 70 98 99
f 70 99 100
f 70 100 72
f 71 72 101
f 71 101 102
f 71 102 73
f 72 100 101
f 73 102 103
f 73 103 104
f 73 104 74
f 74 104 105
f 74 105 106
f 74 106 81
f 75 78 107
f 75 107 76
f 76 107 108
f 76 108 109
f 76 109 110
f 76 110 111
f 76 111 82
f 77 79 112
f 77 112 113
f 77 113 78
f 78 113 107
f 79 80 114
f 79 114 112
f 80 81 115
f 80 115 116
f 80 116 114
f 81 106 117
f 81 117 115
f 82 111 118
f 82 118 83
f 83 118 84
f 84 118 85
f 85 119 86
f 85 118 120
f 85 120 119
f 86 119 120
f 86 120 89
f 86 89 87
f 88 89 91
f 89 121 91
f 89 120 122
f 89 122 123
f 89 123 124
f 89 124 125
f 89 125 126
f 89 126 121
f 90 91 92
f 91 127 92
f 91 121 127
f 92 128 129
f 92 129 130
f 92 130 93
f 92 127 131
f 92 131 132
f 92 132 133
f 92 133 128
f 93 130 94
f 94 130 129
f 94 129 134
f 94 134 95
f 95 134 96
f 96 134 136
f 96 136 137
f 96 137 138
f 96 138 139
f 96 139 140
f 96 140 141
f 96 141 142
f 96 142 143
f 96 143 144
f 96 144 145
f 96 145 146
f 96 146 147
f 96 147 148
f 96 148 149
f 96 149 150
f 96 150 151
f 96 151 152
f 96 152 153
f 96 153 154
f 96 154 155
f 96 155 156
f 96 156 157
f 96 157 158
f 96 158 159
f 96 159 160
f 96 160 161
f 96 161 162
f 96 162 163
f 96 163 164
f 96 164 165
f 96 165 166
f 96 166 167
f 96 167 168
f 96 168 169
f 96 169 170
f 96 170 171
f 96 171 172
f 96 172 173
f 96 173 174
f 96 174 175
f 96 175 176
f 96 176 177
f 96 177 178
f 96 178 179
f 96 179 180
f 96 180 181
f 96 181 182
f 96 182 183
f 96 183 184
f 96 184 135
f 98 185 99
f 99 186 187
f 99 187 188
f 99 188 100
f 99 185 186
f 100 188 189
f 100 189 190
f 100 190 101
f 101 190 102
f 102 190 189
f 102 189 188
f 102 188 187
f 102 187 260
f 102 260 294
f 102 294 293
f 102 293 292
f 102 292 359
f 102 359 405
f 102 405 429
f 102 429 388
f 102 388 387
f 102 387 337
f 102 337 336
f 102 336 263
f 102 263 262
f 102 262 199
f 102 199 198
f 102 198 116
f 102 116 115
f 102 115 117
f 102 117 106
f 102 106 105
f 102 105 104
f 102 104 103
f 107 113 191
f 107 191 192
f 107 192 108
f 108 192 109
f 109 192 110
f 110 192 193
f 110 193 111
f 111 193 194
f 111 194 195
f 111 195 196
f 111 196 118
f 112 114 197
f 112 197 113
f 113 197 191
f 114 116 198
f 114 198 199
f 114 199 197
f 118 196 200
f 118 200 201
f 118 201 202
f 118 202 203
f 118 203 204
f 118 204 205
f 118 205 206
f 118 206 122
f 118 122 120
f 121 126 207
f 121 207 127
f 122 206 123
f 123 206 208
f 123 208 124
f 124 208 209
f 124 209 125
f 125 209 210
f 125 210 126
f 126 210 211
f 126 211 212
f 126 212 213
f 126 213 214
f 126 214 215
f 126 215 216
f 126 216 217
f 126 217 218
f 126 218 219
f 126 219 207
f 127 207 219
f 127 219 218
f 127 218 131
f 128 133 220
f 128 220 221
f 128 221 129
f 129 136 134
f 129 221 220
f 129 220 133
f 129 133 222
f 129 222 136
f 131 218 132
f 132 218 217
f 132 217 216
f 132 216 223
f 132 223 224
f 132 224 225
f 132 225 226
f 132 226 227
f 132 227 228
f 132 228 133
f 133 228 139
f 133 139 138
f 133 138 222
f 135 184 229
f 136 222 137
f 137 222 138
f 139 228 226
f 139 226 140
f 140 226 230
f 140 230 231
f 140 231 232
f 140 232 141
f 141 232 142
f 142 232 143
f 143 232 233
f 143 233 144
f 144 233 145
f 145 233 234
f 145 234 146
f 146 234 147
f 147 234 235
f 147 235 148
f 148 235 149
f 149 235 150
f 150 236 151
f 150 235 236
f 151 236 152
f 152 237 153
f 152 236 237
f 153 237 238
f 153 238 154
f 154 238 155
f 155 238 239
f 155 239 156
f 156 239 157
f 157 240 158
f 157 239 240
f 158 240 159
f 159 240 241
f 159 241 160
f 160 241 242
f 160 242 161
f 161 242 243
f 161 243 162
f 162 243 244
f 162 244 163
f 163 244 245
f 163 245 164
f 164 245 165
f 165 246 166
f 165 245 246
f 166 246 167
f 167 246 247
f 167 247 168
f 168 247 169
f 169 247 170
f 170 247 248
f 170 248 171
f 171 248 249
f 171 249 172
f 172 249 250
f 172 250 173
f 173 250 174
f 174 250 251
f 174 251 175
f 175 252 176
f 175 251 253
f 175 253 252
f 176 252 177
f 177 252 178
f 178 252 179
f 179 252 254
f 179 254 180
f 180 254 255
f 180 255 181
f 181 255 182
f 182 255 256
f 182 256 183
f 183 256 257
f 183 257 258
f 183 258 184
f 184 259 229
f 184 258 335
f 184 335 334
f 184 334 386
f 184 386 385
f 184 385 428
f 184 428 468
f 184 468 470
f 184 470 501
f 184 501 531
f 184 531 534
f 184 534 533
f 184 533 559
f 184 559 558
f 184 558 577
f 184 577 576
f 184 576 591
f 184 591 590
f 184 590 592
f 184 592 578
f 184 578 560
f 184 560 536
f 184 536 535
f 184 535 507
f 184 507 505
f 184 505 475
f 184 475 472
f 184 472 471
f 184 471 446
f 184 446 406
f 184 406 359
f 184 359 292
f 184 292 291
f 184 291 259
f 186 260 187
f 191 261 192
f 191 197 262
f 191 262 263
f 191 263 261
f 192 261 193
f 193 261 264
f 193 264 194
f 194 264 195
f 195 264 265
f 195 265 196
f 196 265 266
f 196 266 267
f 196 267 201
f 196 201 268
f 196 268 200
f 197 199 262
f 200 268 201
f 201 267 202
f 202 267 269
f 202 269 270
f 202 270 271
f 202 271 272
f 202 272 205
f 202 205 204
f 202 204 203
f 205 272 273
f 205 273 206
f 206 273 274
f 206 274 208
f 208 274 209
f 209 274 275
f 209 275 212
f 209 212 211
f 209 211 210
f 212 275 276
f 212 276 213
f 213 276 277
f 213 277 214
f 214 278 279
f 214 279 280
f 214 280 281
f 214 281 215
f 214 277 282
f 214 282 283
f 214 283 284
f 214 284 285
f 214 285 286
f 214 286 287
f 214 287 278
f 215 281 223
f 215 223 216
f 223 281 224
f 224 281 280
f 224 280 288
f 224 288 289
f 224 289 225
f 225 290 230
f 225 230 226
f 225 289 290
f 226 228 227
f 229 291 292
f 229 292 293
f 229 293 294
f 229 259 291
f 230 290 231
f 231 290 295
f 231 295 232
f 232 296 297
f 232 297 298
f 232 298 299
f 232 299 233
f 232 295 300
f 232 300 296
f 233 299 301
f 233 301 234
f 234 301 235
f 235 301 302
f 235 302 303
f 235 303 304
f 235 304 305
f 235 305 306
f 235 306 236
f 236 306 237
f 237 307 308
f 237 308 238
f 237 306 309
f 237 309 310
f 237 310 307
f 238 308 239
f 239 311 240
f 239 308 312
f 239 312 313
f 239 313 311
f 240 311 241
f 241 311 314
f 241 314 315
f 241 315 316
f 241 316 242
f 242 316 243
f 243 317 245
f 243 245 244
f 243 316 318
f 243 318 317
f 245 319 246
f 245 317 320
f 245 320 319
f 246 319 247
f 247 319 321
f 247 321 322
f 247 322 249
f 247 249 248
f 249 322 323
f 249 323 324
f 249 324 250
f 250 324 325
f 250 325 326
f 250 326 327
f 250 327 251
f 251 327 328
f 251 328 253
f 252 253 329
f 252 329 254
f 253 328 330
f 253 330 329
f 254 329 331
f 254 331 255
f 255 331 332
f 255 332 256
f 256 332 333
f 256 333 257
f 257 333 334
f 257 334 335
f 257 335 258
f 261 263 336
f 261 336 264
f 264 336 265
f 265 336 337
f 265 337 266
f 266 337 267
f 267 337 338
f 267 338 339
f 267 339 340
f 267 340 271
f 267 271 270
f 267 270 269
f 271 340 341
f 271 341 342
f 271 342 343
f 271 343 344
f 271 344 345
f 271 345 346
f 271 346 272
f 272 346 273
f 273 347 348
f 273 348 274
f 273 346 344
f 273 344 343
f 273 343 347
f 274 348 349
f 274 349 275
f 275 349 350
f 275 350 276
f 276 350 277
f 277 350 351
f 277 351 283
f 277 283 282
f 278 287 279
f 279 287 288
f 279 288 280
f 283 351 284
f 284 351 285
f 285 352 353
f 285 353 354
f 285 354 355
f 285 355 356
f 285 356 286
f 285 351 352
f 286 356 357
f 286 357 287
f 287 357 289
f 287 289 288
f 289 357 358
f 289 358 298
f 289 298 297
f 289 297 300
f 289 300 295
f 289 295 290
f 296 300 297
f 298 358 299
f 299 358 302
f 299 302 301
f 302 358 360
f 302 360 361
f 302 361 303
f 303 361 362
f 303 362 304
f 304 362 305
f 305 362 306
f 306 362 309
f 307 310 363
f 307 363 308
f 308 363 312
f 309 362 363
f 309 363 310
f 311 313 314
f 312 364 314
f 312 314 313
f 312 363 364
f 314 365 366
f 314 366 315
f 314 364 365
f 315 367 316
f 315 366 367
f 316 367 318
f 317 318 368
f 317 368 320
f 318 367 369
f 318 369 368
f 319 320 370
f 319 370 321
f 320 368 371
f 320 371 370
f 321 372 373
f 321 373 374
f 321 374 322
f 321 370 375
f 321 375 372
f 322 374 373
f 322 373 376
f 322 376 323
f 323 376 377
f 323 377 324
f 324 377 325
f 325 377 326
f 326 377 327
f 327 377 378
f 327 378 328
f 328 378 379
f 328 379 380
f 328 380 330
f 329 330 331
f 330 381 331
f 330 380 382
f 330 382 381
f 331 381 332
f 332 381 383
f 332 383 384
f 332 384 333
f 333 384 385
f 333 385 386
f 333 386 334
f 337 387 338
f 338 387 388
f 338 388 389
f 338 389 339
f 339 389 390
f 339 390 340
f 340 390 341
f 341 390 391
f 341 391 392
f 341 392 342
f 342 392 343
f 343 392 393
f 343 393 394
f 343 394 395
f 343 395 347
f 344 346 396
f 344 396 345
f 345 396 346
f 347 395 397
f 347 397 348
f 348 397 349
f 349 397 350
f 350 397 398
f 350 398 351
f 351 398 352
f 352 398 399
f 352 399 400
f 352 400 353
f 353 400 401
f 353 401 402
f 353 402 403
f 353 403 404
f 353 404 354
f 354 404 360
f 354 360 355
f 355 360 357
f 355 357 356
f 357 360 358
f 359 406 407
f 359 407 405
f 360 404 361
f 361 404 362
f 362 404 403
f 362 403 408
f 362 408 363
f 363 409 364
f 363 408 410
f 363 410 409
f 364 409 411
f 364 411 365
f 365 412 366
f 365 411 412
f 366 412 413
f 366 413 367
f 367 413 369
f 368 369 371
f 369 413 414
f 369 414 415
f 369 415 371
f 370 371 416
f 370 416 375
f 371 415 416
f 372 375 417
f 372 417 373
f 373 417 376
f 375 416 417
f 376 417 418
f 376 418 419
f 376 419 377
f 377 419 420
f 377 420 421
f 377 421 378
f 378 421 379
f 379 421 422
f 379 422 423
f 379 423 380
f 380 423 424
f 380 424 425
f 380 425 382
f 381 382 426
f 381 426 383
f 382 425 426
f 383 426 427
f 383 427 428
f 383 428 384
f 384 428 385
f 388 429 389
f 389 407 390
f 389 429 405
f 389 405 407
f 390 407 430
f 390 430 431
f 390 431 391
f 391 431 432
f 391 432 433
f 391 433 392
f 392 433 434
f 392 434 435
f 392 435 436
f 392 436 437
f 392 437 393
f 393 437 394
f 394 437 438
f 394 438 395
f 395 438 397
f 397 438 439
f 397 439 440
f 397 440 398
f 398 440 399
f 399 440 441
f 399 441 442
f 399 442 401
f 399 401 400
f 401 442 443
f 401 443 444
f 401 444 445
f 401 445 402
f 402 445 410
f 402 410 408
f 402 408 403
f 406 446 430
f 406 430 407
f 409 410 411
f 410 445 444
f 410 444 447
f 410 447 411
f 411 447 448
f 411 448 412
f 412 449 450
f 412 450 414
f 412 414 413
f 412 448 451
f 412 451 449
f 414 450 452
f 414 452 453
f 414 453 454
f 414 454 455
f 414 455 456
f 414 456 415
f 415 456 416
f 416 457 417
f 416 456 455
f 416 455 457
f 417 457 418
f 418 457 419
f 419 457 458
f 419 458 459
f 419 459 420
f 420 459 460
f 420 460 461
f 420 461 421
f 421 461 462
f 421 462 422
f 422 462 463
f 422 463 423
f 423 463 464
f 423 464 424
f 424 464 465
f 424 465 425
f 425 465 466
f 425 466 467
f 425 467 426
f 426 467 427
f 427 468 428
f 427 467 469
f 427 469 470
f 427 470 468
f 430 446 471
f 430 471 472
f 430 472 431
f 431 473 474
f 431 474 432
f 431 472 475
f 431 475 473
f 432 476 433
f 432 474 476
f 433 476 477
f 433 477 434
f 434 477 435
f 435 478 436
f 435 477 479
f 435 479 478
f 436 478 479
f 436 479 480
f 436 480 481
f 436 481 437
f 437 481 439
f 437 439 438
f 439 482 483
f 439 483 440
f 439 481 482
f 440 483 484
f 440 484 441
f 441 484 485
f 441 485 486
f 441 486 442
f 442 486 443
f 443 486 448
f 443 448 444
f 444 448 447
f 448 487 449
f 448 449 451
f 448 486 487
f 449 488 450
f 449 487 489
f 449 489 488
f 450 488 452
f 452 488 490
f 452 490 491
f 452 491 453
f 453 491 454
f 454 492 455
f 454 491 492
f 455 492 493
f 455 493 494
f 455 494 459
f 455 459 457
f 457 459 458
f 459 494 460
f 460 494 461
f 461 494 495
f 461 495 462
f 462 495 496
f 462 496 497
f 462 497 463
f 463 497 498
f 463 498 464
f 464 498 499
f 464 499 465
f 465 499 500
f 465 500 466
f 466 501 502
f 466 502 467
f 466 500 503
f 466 503 501
f 467 502 501
f 467 501 469
f 469 501 470
f 473 504 474
f 473 475 505
f 473 505 504
f 474 506 476
f 474 504 505
f 474 505 507
f 474 507 508
f 474 508 509
f 474 509 506
f 476 506 477
f 477 506 510
f 477 510 511
f 477 511 479
f 479 512 513
f 479 513 480
f 479 511 512
f 480 513 482
f 480 482 481
f 482 513 514
f 482 514 515
f 482 515 483
f 483 515 516
f 483 516 484
f 484 516 517
f 484 517 485
f 485 517 518
f 485 518 519
f 485 519 489
f 485 489 486
f 486 489 487
f 488 489 490
f 489 519 490
f 490 519 520
f 490 520 491
f 491 520 521
f 491 521 492
f 492 521 522
f 492 522 523
f 492 523 494
f 492 494 493
f 494 523 524
f 494 524 495
f 495 524 525
f 495 525 496
f 496 498 497
f 496 525 526
f 496 526 498
f 498 526 527
f 498 527 499
f 499 527 528
f 499 528 529
f 499 529 500
f 500 529 530
f 500 530 503
f 501 503 531
f 503 530 532
f 503 532 533
f 503 533 534
f 503 534 531
f 506 509 511
f 506 511 510
f 507 535 508
f 508 535 536
f 508 536 537
f 508 537 514
f 508 514 512
f 508 512 509
f 509 512 511
f 512 514 513
f 514 538 539
f 514 539 540
f 514 540 541
f 514 541 542
f 514 542 515
f 514 537 538
f 515 542 543
f 515 543 544
f 515 544 545
f 515 545 516
f 516 545 546
f 516 546 547
f 516 547 517
f 517 547 548
f 517 548 518
f 518 548 549
f 518 549 550
f 518 550 519
f 519 550 520
f 520 550 551
f 520 551 521
f 521 551 522
f 522 551 523
f 523 551 524
f 524 551 525
f 525 551 552
f 525 552 553
f 525 553 526
f 526 554 527
f 526 553 554
f 527 554 528
f 528 554 555
f 528 555 529
f 529 555 556
f 529 556 530
f 530 556 557
f 530 557 558
f 530 558 532
f 532 558 559
f 532 559 533
f 536 560 561
f 536 561 538
f 536 538 562
f 536 562 537
f 537 562 538
f 538 561 539
f 539 561 540
f 540 543 541
f 540 561 560
f 540 560 543
f 541 543 542
f 543 560 563
f 543 563 564
f 543 564 565
f 543 565 566
f 543 566 544
f 544 566 567
f 544 567 545
f 545 567 546
f 546 567 568
f 546 568 547
f 547 568 548
f 548 568 569
f 548 569 549
f 549 569 553
f 549 553 550
f 550 553 552
f 550 552 551
f 553 569 570
f 553 570 571
f 553 571 554
f 554 571 570
f 554 570 572
f 554 572 573
f 554 573 555
f 555 573 574
f 555 574 575
f 555 575 556
f 556 575 576
f 556 576 577
f 556 577 557
f 557 577 558
f 560 578 579
f 560 579 563
f 563 579 564
f 564 579 580
f 564 580 565
f 565 580 566
f 566 580 581
f 566 581 582
f 566 582 583
f 566 583 584
f 566 584 567
f 567 584 583
f 567 583 585
f 567 585 586
f 567 586 568
f 568 586 585
f 568 585 587
f 568 587 569
f 569 587 588
f 569 588 583
f 569 583 572
f 569 572 570
f 572 583 582
f 572 582 574
f 572 574 573
f 574 582 581
f 574 581 589
f 574 589 590
f 574 590 591
f 574 591 575
f 575 591 576
f 578 592 579
f 579 592 581
f 579 581 580
f 581 592 589
f 583 587 585
f 583 588 587
f 589 592 590

