# https://github.com/mikedh/trimesh
v -0.00404590 0.01721277 0.07075688
v -0.00425139 0.01721277 0.07076240
v -0.01887181 0.01282791 0.07117008
v -0.02179535 0.01136591 0.07124722
v -0.00404590 0.01614571 0.07074036
v -0.00404590 0.01731901 0.07073485
v -0.00571453 0.01721277 0.07077066
v -0.01156434 0.01575192 0.07092492
v -0.01594828 0.01428991 0.07105439
v -0.02033221 0.01282791 0.07115357
v -0.02325575 0.01136591 0.07115632
v -0.02466683 0.00995587 0.07122794
v -0.02320643 0.00995587 0.07123896
v -0.00404590 0.01598519 0.07073760
v -0.00404590 0.01797033 0.07057232
v -0.00863807 0.01703377 0.07076790
v -0.00425139 0.01797149 0.07057232
v -0.00703519 0.01731324 0.07072933
v -0.01302474 0.01575192 0.07090564
v -0.01741142 0.01428991 0.07102960
v -0.01887455 0.01437191 0.07085054
v -0.02033221 0.01396887 0.07078718
v -0.02187481 0.01293762 0.07090288
v -0.02325575 0.01252650 0.07078167
v -0.02471615 0.01140517 0.07084504
v -0.02583405 0.00995587 0.07098553
v -0.02150217 0.00995587 0.07094971
v -0.00404590 0.01535812 0.07044285
v -0.00404590 0.01808928 0.07045110
v -0.00645432 0.01794492 0.07055303
v -0.01010121 0.01690327 0.07075137
v -0.00404590 0.01882374 0.06967978
v -0.00571453 0.01795532 0.07056130
v -0.01594828 0.01551749 0.07079820
v -0.01156434 0.01677740 0.07072107
v -0.01741142 0.01527960 0.07071006
v -0.01838958 0.01511330 0.07061639
v -0.02143916 0.01372521 0.07066322
v -0.02241458 0.01349771 0.07050896
v -0.02422843 0.01224242 0.07064394
v -0.02625052 0.00997435 0.07089186
v -0.02625052 0.00995587 0.07089737
v -0.02581213 0.01094440 0.07070730
v -0.02105556 0.00995587 0.07085330
v -0.00404590 0.01525535 0.07038775
v -0.00742975 0.01786755 0.07051447
v -0.00404590 0.01939076 0.06906273
v -0.00425139 0.01938845 0.06905722
v -0.00571453 0.01863204 0.06982028
v -0.00703519 0.01844150 0.06994424
v -0.00863807 0.01847845 0.06971835
v -0.01302474 0.01663767 0.07065496
v -0.01398647 0.01653258 0.07058884
v -0.01496189 0.01640439 0.07049794
v -0.01594828 0.01624734 0.07036571
v -0.01741142 0.01600944 0.07010126
v -0.01936501 0.01491352 0.07047315
v -0.02033221 0.01469988 0.07026103
v -0.02136518 0.01515834 0.06926658
v -0.02325575 0.01396079 0.06956133
v -0.02325575 0.01325750 0.07029133
v -0.02520386 0.01191907 0.07042907
v -0.02626970 0.00995587 0.07089186
v -0.02678481 0.01050903 0.07047866
v -0.02703141 0.00995587 0.07060537
v -0.02629436 0.00995587 0.07088360
v -0.02050209 0.00995587 0.07071281
v -0.00404590 0.01471142 0.06965775
v -0.00863807 0.01776477 0.07045110
v -0.00404590 0.01942887 0.06898285
v -0.00425139 0.01973143 0.06832722
v -0.00571453 0.01935150 0.06898560
v -0.00717767 0.01929606 0.06886439
v -0.01010121 0.01836181 0.06960265
v -0.01010121 0.01763428 0.07033541
v -0.01156434 0.01750840 0.07017288
v -0.01302474 0.01736867 0.06997730
v -0.01385221 0.01796802 0.06912334
v -0.01594828 0.01693561 0.06963295
v -0.01741142 0.01669887 0.06937126
v -0.01829094 0.01654182 0.06917292
v -0.02033221 0.01538353 0.06952828
v -0.01926637 0.01634203 0.06875420
v -0.02234060 0.01492969 0.06888367
v -0.02423117 0.01369865 0.06927484
v -0.02471615 0.01282214 0.06985058
v -0.02587789 0.01242719 0.06945390
v -0.02633272 0.01149525 0.06996628
v -0.02734376 0.01107027 0.06950349
v -0.02776846 0.01005172 0.06996352
v -0.02780408 0.00995587 0.07000209
v -0.01989108 0.00995587 0.07026379
v -0.01955406 0.00995587 0.06985058
v -0.00404590 0.01425411 0.06397201
v -0.00404590 0.01972566 0.06834926
v -0.00404590 0.01978917 0.06812613
v -0.00571453 0.01968755 0.06825285
v -0.00863807 0.01920945 0.06865503
v -0.00717767 0.01962288 0.06813439
v -0.01156434 0.01821515 0.06944288
v -0.01302474 0.01805579 0.06924454
v -0.01008203 0.01912284 0.06827763
v -0.01156434 0.01878563 0.06835752
v -0.01302474 0.01845420 0.06835752
v -0.01439746 0.01812739 0.06834651
v -0.01482764 0.01783175 0.06882307
v -0.01596472 0.01768393 0.06834651
v -0.01741142 0.01720584 0.06835752
v -0.01881428 0.01670234 0.06830242
v -0.01972668 0.01653720 0.06777903
v -0.02026097 0.01608913 0.06830242
v -0.02183097 0.01535928 0.06838232
v -0.02272420 0.01512370 0.06790850
v -0.02323109 0.01466639 0.06838232
v -0.02520660 0.01340186 0.06873216
v -0.02685331 0.01204494 0.06898560
v -0.02831919 0.01056908 0.06894428
v -0.02854661 0.00995587 0.06926107
v -0.02796026 0.00995587 0.06985334
v -0.01955680 0.00995587 0.06396374
v -0.00404590 0.01416635 0.06250925
v -0.00404590 0.02006287 0.06689752
v -0.00863807 0.01952587 0.06792503
v -0.00958335 0.01944735 0.06773496
v -0.00425139 0.02005016 0.06689752
v -0.00571453 0.01993353 0.06689752
v -0.01548522 0.01801999 0.06785066
v -0.01821148 0.01943118 0.04881279
v -0.01876770 0.01917134 0.04932241
v -0.02033221 0.01858239 0.04935547
v -0.02145560 0.01811468 0.04935547
v -0.02218716 0.01779018 0.04935547
v -0.02552169 0.01360857 0.06775700
v -0.02471889 0.01387302 0.06829141
v -0.02325575 0.01724972 0.04935547
v -0.02431063 0.01667116 0.04935547
v -0.02618750 0.01283138 0.06837130
v -0.02707525 0.01226089 0.06801043
v -0.02893568 0.00995587 0.06841537
v -0.02848085 0.01075963 0.06796911
v -0.01965544 0.00995587 0.06317038
v -0.01974586 0.00995587 0.06255608
v -0.02733555 0.00995587 0.04310777
v -0.00404590 0.01838260 0.04310777
v -0.00404590 0.02150293 0.04789271
v -0.00425139 0.02149369 0.04789271
v -0.00571453 0.02140477 0.04789271
v -0.00717767 0.01977762 0.06689752
v -0.01150680 0.02092090 0.04779630
v -0.01233975 0.02087586 0.04724535
v -0.01290692 0.02072804 0.04779630
v -0.01448788 0.02044049 0.04789271
v -0.01448788 0.02029498 0.04935547
v -0.01594828 0.01997510 0.04935547
v -0.00717767 0.02131123 0.04789271
v -0.00863807 0.02131816 0.04642996
v -0.01010121 0.02118651 0.04642996
v -0.01747444 0.01957438 0.04932241
v -0.01594828 0.02012292 0.04789271
v -0.01741142 0.01973490 0.04789271
v -0.01832656 0.01946813 0.04789271
v -0.01905813 0.01921638 0.04789271
v -0.02033221 0.01872905 0.04789271
v -0.02161725 0.01818744 0.04789271
v -0.02234882 0.01786409 0.04789271
v -0.02504220 0.01622770 0.04935547
v -0.02518468 0.01631778 0.04789271
v -0.02611079 0.01549786 0.04935547
v -0.02691085 0.01501976 0.04860894
v -0.02845619 0.01363167 0.04935547
v -0.02325575 0.01740100 0.04789271
v -0.02445311 0.01675084 0.04789271
v -0.02918776 0.01297111 0.04935547
v -0.02997687 0.01224011 0.04935547
v -0.02894938 0.00995587 0.06832722
v -0.03081255 0.01124580 0.04937750
v -0.03127287 0.01060026 0.04987887
v -0.03159070 0.00995587 0.05060060
v -0.03198800 0.00995587 0.04310777
v -0.00404590 0.02175237 0.04310777
v -0.00404590 0.02159993 0.04642996
v -0.00425139 0.02159185 0.04642996
v -0.00571453 0.02151217 0.04642996
v -0.00717767 0.02142094 0.04642996
v -0.01156434 0.02102368 0.04642996
v -0.01156434 0.02111606 0.04496720
v -0.01251237 0.02090242 0.04642996
v -0.01324120 0.02078232 0.04642996
v -0.01448788 0.02055366 0.04642996
v -0.00863807 0.02141170 0.04496720
v -0.01010121 0.02128467 0.04496720
v -0.01594828 0.02022916 0.04642996
v -0.01741142 0.01983652 0.04642996
v -0.01847178 0.01951664 0.04642996
v -0.01920335 0.01926950 0.04642996
v -0.02033221 0.01883644 0.04642996
v -0.02172411 0.01824056 0.04642996
v -0.02245568 0.01791143 0.04642996
v -0.02525592 0.01636166 0.04642996
v -0.02618202 0.01572536 0.04642996
v -0.02632724 0.01550248 0.04803045
v -0.02697113 0.01506826 0.04763377
v -0.02753282 0.01456592 0.04803045
v -0.02856305 0.01372174 0.04789271
v -0.02929462 0.01306465 0.04789271
v -0.02325575 0.01749223 0.04642996
v -0.02452435 0.01679472 0.04642996
v -0.03006454 0.01233365 0.04789271
v -0.03079611 0.01148139 0.04789271
v -0.03133041 0.01067879 0.04890370
v -0.03171126 0.01002978 0.04937750
v -0.03176058 0.00995587 0.04937475
v -0.03170578 0.00995587 0.04977694
v -0.03156605 0.01057601 0.04310777
v -0.03201266 0.00995587 0.04350720
v -0.00425139 0.02174544 0.04310777
v -0.00404590 0.02173851 0.04350720
v -0.00404590 0.02167615 0.04496720
v -0.00425139 0.02166807 0.04496720
v -0.00571453 0.02159531 0.04496720
v -0.00717767 0.02150870 0.04496720
v -0.01156434 0.02118997 0.04350720
v -0.01278363 0.02094631 0.04496720
v -0.01351519 0.02082967 0.04496720
v -0.01448788 0.02064143 0.04496720
v -0.00717767 0.02157684 0.04350720
v -0.00863807 0.02147868 0.04350720
v -0.01010121 0.02135627 0.04350720
v -0.01594828 0.02030653 0.04496720
v -0.01741142 0.01991043 0.04496720
v -0.01856768 0.01955359 0.04496720
v -0.01929925 0.01929953 0.04496720
v -0.02033221 0.01889650 0.04496720
v -0.02176521 0.01827289 0.04496720
v -0.02249678 0.01792991 0.04496720
v -0.02454353 0.01680742 0.04496720
v -0.02527236 0.01637321 0.04496720
v -0.02618202 0.01576347 0.04496720
v -0.02703141 0.01511446 0.04642996
v -0.02706977 0.01514217 0.04496720
v -0.02776298 0.01451972 0.04642996
v -0.02863703 0.01378872 0.04642996
v -0.02936860 0.01311662 0.04642996
v -0.02325575 0.01752457 0.04496720
v -0.03011386 0.01238561 0.04642996
v -0.03084269 0.01154259 0.04642996
v -0.03138521 0.01075039 0.04789271
v -0.03191402 0.00995587 0.04795882
v -0.03185648 0.00995587 0.04850150
v -0.03141809 0.01079081 0.04310777
v -0.03143179 0.01080697 0.04350720
v -0.03201540 0.00995587 0.04358708
v -0.00571453 0.02167615 0.04310777
v -0.00425139 0.02173043 0.04350720
v -0.00571453 0.02165998 0.04350720
v -0.01116705 0.02124771 0.04310777
v -0.01156434 0.02120152 0.04310777
v -0.01273157 0.02103061 0.04310777
v -0.01312338 0.02096247 0.04346864
v -0.01367685 0.02085507 0.04392867
v -0.01396181 0.02083198 0.04310777
v -0.01436184 0.02072920 0.04346864
v -0.00678038 0.02161610 0.04310777
v -0.00717767 0.02159300 0.04310777
v -0.00824077 0.02152141 0.04310777
v -0.00863807 0.02149369 0.04310777
v -0.00970391 0.02140477 0.04310777
v -0.01010121 0.02136781 0.04310777
v -0.01594828 0.02035157 0.04350720
v -0.01741142 0.01994738 0.04350720
v -0.01861700 0.01956976 0.04350720
v -0.01934857 0.01931685 0.04350720
v -0.02033221 0.01892190 0.04350720
v -0.02175151 0.01827982 0.04350720
v -0.02248034 0.01792183 0.04350720
v -0.02325575 0.01750494 0.04350720
v -0.02452161 0.01679703 0.04350720
v -0.02525318 0.01636282 0.04350720
v -0.02618202 0.01573806 0.04350720
v -0.02780134 0.01455090 0.04496720
v -0.02704785 0.01512600 0.04350720
v -0.02777942 0.01453820 0.04350720
v -0.02866443 0.01381990 0.04496720
v -0.02939600 0.01313278 0.04496720
v -0.03012482 0.01240178 0.04496720
v -0.03142904 0.01081159 0.04642996
v -0.03085365 0.01155530 0.04496720
v -0.03200718 0.00995587 0.04651811
v -0.03191950 0.00995587 0.04789271
v -0.03125643 0.01098944 0.04310777
v -0.03203732 0.00995587 0.04496720
v -0.03144000 0.01082430 0.04496720
v -0.03083448 0.01153798 0.04350720
v -0.01358917 0.02090242 0.04310777
v -0.01556194 0.02045204 0.04310777
v -0.01594828 0.02035966 0.04310777
v -0.01701412 0.02006518 0.04310777
v -0.01741142 0.01995316 0.04310777
v -0.01828820 0.01967716 0.04310777
v -0.01861426 0.01957091 0.04310777
v -0.01934583 0.01931454 0.04310777
v -0.02006370 0.01902699 0.04310777
v -0.02033221 0.01891497 0.04310777
v -0.02136518 0.01844843 0.04310777
v -0.02173781 0.01827636 0.04310777
v -0.02246938 0.01791490 0.04310777
v -0.02303381 0.01761234 0.04310777
v -0.02325575 0.01748993 0.04310777
v -0.02417911 0.01697372 0.04310777
v -0.02450517 0.01678779 0.04310777
v -0.02470519 0.01666885 0.04310777
v -0.02523674 0.01635243 0.04310777
v -0.02591351 0.01589627 0.04310777
v -0.02618202 0.01571381 0.04310777
v -0.02681221 0.01526920 0.04310777
v -0.02865347 0.01380720 0.04350720
v -0.02703141 0.01511330 0.04310777
v -0.02723143 0.01495278 0.04310777
v -0.02776298 0.01452550 0.04310777
v -0.02938230 0.01311777 0.04350720
v -0.03010291 0.01238677 0.04350720
v -0.03200991 0.00995587 0.04642996
v -0.03082077 0.01152181 0.04310777
v -0.03008921 0.01237176 0.04310777
v -0.03028922 0.01213964 0.04310777
v -0.02863703 0.01379450 0.04310777
v -0.02883704 0.01360626 0.04310777
v -0.02936860 0.01310391 0.04310777
v -0.02989467 0.01257039 0.04310777
f 1 2 3
f 1 3 4
f 1 4 5
f 1 5 14
f 1 14 28
f 1 28 45
f 1 45 68
f 1 68 94
f 1 94 121
f 1 121 144
f 1 144 180
f 1 180 217
f 1 217 218
f 1 218 181
f 1 181 145
f 1 145 122
f 1 122 96
f 1 96 95
f 1 95 70
f 1 70 47
f 1 47 32
f 1 32 29
f 1 29 15
f 1 15 6
f 1 6 2
f 2 6 7
f 2 7 8
f 2 8 3
f 3 8 9
f 3 9 10
f 3 10 4
f 4 10 11
f 4 11 12
f 4 12 13
f 4 13 14
f 4 14 5
f 6 15 7
f 7 16 8
f 7 15 17
f 7 17 18
f 7 18 16
f 8 19 9
f 8 16 19
f 9 19 20
f 9 20 10
f 10 20 21
f 10 21 22
f 10 22 23
f 10 23 11
f 11 23 24
f 11 24 25
f 11 25 12
f 12 25 26
f 12 26 42
f 12 42 63
f 12 63 66
f 12 66 65
f 12 65 91
f 12 91 119
f 12 119 118
f 12 118 139
f 12 139 175
f 12 175 178
f 12 178 213
f 12 213 212
f 12 212 249
f 12 249 248
f 12 248 289
f 12 289 288
f 12 288 322
f 12 322 291
f 12 291 252
f 12 252 215
f 12 215 179
f 12 179 143
f 12 143 142
f 12 142 141
f 12 141 120
f 12 120 93
f 12 93 92
f 12 92 67
f 12 67 44
f 12 44 27
f 12 27 13
f 13 27 14
f 14 27 28
f 15 29 17
f 16 18 30
f 16 30 31
f 16 31 19
f 17 29 32
f 17 32 33
f 17 33 18
f 18 33 30
f 19 34 20
f 19 31 35
f 19 35 34
f 20 34 21
f 21 34 36
f 21 36 22
f 22 36 37
f 22 37 38
f 22 38 23
f 23 38 24
f 24 38 39
f 24 39 40
f 24 40 25
f 25 41 42
f 25 42 26
f 25 40 43
f 25 43 41
f 27 44 45
f 27 45 28
f 30 46 35
f 30 35 31
f 30 33 32
f 30 32 47
f 30 47 48
f 30 48 49
f 30 49 50
f 30 50 51
f 30 51 46
f 34 35 52
f 34 52 53
f 34 53 36
f 35 46 52
f 36 53 54
f 36 54 37
f 37 54 55
f 37 55 56
f 37 56 57
f 37 57 38
f 38 57 39
f 39 57 58
f 39 58 59
f 39 59 60
f 39 60 61
f 39 61 62
f 39 62 40
f 40 62 43
f 41 63 42
f 41 43 63
f 43 62 64
f 43 64 65
f 43 65 66
f 43 66 63
f 44 67 45
f 45 67 68
f 46 69 52
f 46 51 69
f 47 70 48
f 48 70 71
f 48 71 72
f 48 72 50
f 48 50 49
f 50 72 51
f 51 72 73
f 51 73 74
f 51 74 69
f 52 69 75
f 52 75 53
f 53 75 76
f 53 76 54
f 54 76 77
f 54 77 78
f 54 78 79
f 54 79 55
f 55 79 80
f 55 80 56
f 56 80 57
f 57 80 81
f 57 81 82
f 57 82 58
f 58 82 59
f 59 82 81
f 59 81 83
f 59 83 84
f 59 84 85
f 59 85 60
f 60 85 61
f 61 85 86
f 61 86 62
f 62 86 87
f 62 87 88
f 62 88 64
f 64 88 89
f 64 89 90
f 64 90 91
f 64 91 65
f 67 92 68
f 68 92 93
f 68 93 94
f 69 74 75
f 70 95 71
f 71 95 96
f 71 96 97
f 71 97 72
f 72 97 73
f 73 98 74
f 73 97 99
f 73 99 98
f 74 76 75
f 74 98 100
f 74 100 76
f 76 100 77
f 77 100 101
f 77 101 78
f 78 101 98
f 78 98 102
f 78 102 103
f 78 103 104
f 78 104 105
f 78 105 106
f 78 106 81
f 78 81 80
f 78 80 79
f 81 106 107
f 81 107 108
f 81 108 109
f 81 109 83
f 83 109 110
f 83 110 111
f 83 111 84
f 84 111 112
f 84 112 113
f 84 113 114
f 84 114 85
f 85 87 86
f 85 114 115
f 85 115 87
f 87 115 116
f 87 116 88
f 88 116 89
f 89 116 117
f 89 117 118
f 89 118 90
f 90 118 119
f 90 119 91
f 93 120 121
f 93 121 94
f 96 122 97
f 97 122 99
f 98 101 100
f 98 99 123
f 98 123 124
f 98 124 102
f 99 122 125
f 99 125 126
f 99 126 123
f 102 124 103
f 103 124 104
f 104 124 127
f 104 127 105
f 105 127 106
f 106 127 107
f 107 127 108
f 108 127 110
f 108 110 109
f 110 113 112
f 110 112 111
f 110 127 128
f 110 128 129
f 110 129 130
f 110 130 131
f 110 131 132
f 110 132 113
f 113 133 134
f 113 134 114
f 113 132 135
f 113 135 136
f 113 136 133
f 114 134 115
f 115 134 133
f 115 133 137
f 115 137 116
f 116 137 138
f 116 138 117
f 117 139 118
f 117 138 140
f 117 140 139
f 120 141 121
f 121 141 142
f 121 142 143
f 121 143 144
f 122 145 146
f 122 146 147
f 122 147 125
f 123 126 124
f 124 126 148
f 124 148 149
f 124 149 150
f 124 150 151
f 124 151 152
f 124 152 153
f 124 153 154
f 124 154 127
f 125 147 155
f 125 155 156
f 125 156 126
f 126 156 157
f 126 157 148
f 127 154 158
f 127 158 128
f 128 158 154
f 128 154 159
f 128 159 160
f 128 160 161
f 128 161 162
f 128 162 129
f 129 162 130
f 130 162 163
f 130 163 131
f 131 163 164
f 131 164 165
f 131 165 132
f 132 165 135
f 133 138 137
f 133 136 166
f 133 166 167
f 133 167 168
f 133 168 169
f 133 169 170
f 133 170 138
f 135 165 171
f 135 171 172
f 135 172 136
f 136 172 167
f 136 167 166
f 138 170 173
f 138 173 174
f 138 174 140
f 139 140 175
f 140 174 176
f 140 176 177
f 140 177 178
f 140 178 175
f 143 179 214
f 143 214 250
f 143 250 290
f 143 290 323
f 143 323 325
f 143 325 324
f 143 324 329
f 143 329 328
f 143 328 327
f 143 327 326
f 143 326 319
f 143 319 318
f 143 318 317
f 143 317 315
f 143 315 314
f 143 314 313
f 143 313 312
f 143 312 311
f 143 311 310
f 143 310 309
f 143 309 308
f 143 308 307
f 143 307 306
f 143 306 305
f 143 305 304
f 143 304 303
f 143 303 302
f 143 302 301
f 143 301 300
f 143 300 299
f 143 299 298
f 143 298 297
f 143 297 296
f 143 296 295
f 143 295 261
f 143 261 294
f 143 294 258
f 143 258 257
f 143 257 256
f 143 256 268
f 143 268 267
f 143 267 266
f 143 266 265
f 143 265 264
f 143 264 263
f 143 263 253
f 143 253 216
f 143 216 180
f 143 180 144
f 145 181 182
f 145 182 146
f 146 182 183
f 146 183 147
f 147 183 184
f 147 184 155
f 148 157 149
f 149 157 150
f 150 157 185
f 150 185 186
f 150 186 187
f 150 187 188
f 150 188 152
f 150 152 151
f 152 188 189
f 152 189 159
f 152 159 153
f 153 159 154
f 155 184 156
f 156 184 190
f 156 190 191
f 156 191 157
f 157 191 185
f 159 189 192
f 159 192 160
f 160 192 193
f 160 193 161
f 161 193 194
f 161 194 195
f 161 195 162
f 162 195 163
f 163 195 196
f 163 196 164
f 164 196 197
f 164 197 165
f 165 197 198
f 165 198 171
f 167 172 207
f 167 207 199
f 167 199 200
f 167 200 201
f 167 201 168
f 168 201 169
f 169 201 202
f 169 202 203
f 169 203 204
f 169 204 170
f 170 204 205
f 170 205 173
f 171 198 206
f 171 206 172
f 172 206 207
f 173 205 174
f 174 205 208
f 174 208 209
f 174 209 176
f 176 209 210
f 176 210 177
f 177 210 211
f 177 211 212
f 177 212 213
f 177 213 178
f 179 215 214
f 180 216 217
f 181 218 219
f 181 219 182
f 182 219 220
f 182 220 183
f 183 220 221
f 183 221 184
f 184 221 190
f 185 191 186
f 186 191 222
f 186 222 223
f 186 223 187
f 187 223 224
f 187 224 188
f 188 224 189
f 189 224 225
f 189 225 192
f 190 221 226
f 190 226 227
f 190 227 228
f 190 228 191
f 191 228 222
f 192 225 229
f 192 229 193
f 193 229 230
f 193 230 194
f 194 230 231
f 194 231 195
f 195 231 232
f 195 232 196
f 196 232 233
f 196 233 197
f 197 233 234
f 197 234 198
f 198 234 235
f 198 235 206
f 199 207 236
f 199 236 237
f 199 237 238
f 199 238 200
f 200 239 201
f 200 238 240
f 200 240 239
f 201 239 202
f 202 239 241
f 202 241 203
f 203 241 204
f 204 241 242
f 204 242 205
f 205 242 243
f 205 243 208
f 206 235 244
f 206 244 207
f 207 244 236
f 208 243 245
f 208 245 246
f 208 246 209
f 209 246 247
f 209 247 210
f 210 247 248
f 210 248 249
f 210 249 211
f 211 249 212
f 214 215 251
f 214 251 250
f 215 252 251
f 216 253 254
f 216 254 217
f 217 254 219
f 217 219 218
f 219 254 255
f 219 255 220
f 220 255 226
f 220 226 221
f 222 228 256
f 222 256 257
f 222 257 258
f 222 258 259
f 222 259 223
f 223 259 260
f 223 260 224
f 224 260 225
f 225 260 261
f 225 261 262
f 225 262 229
f 226 255 263
f 226 263 264
f 226 264 227
f 227 264 265
f 227 265 266
f 227 266 267
f 227 267 228
f 228 267 268
f 228 268 256
f 229 262 269
f 229 269 230
f 230 269 270
f 230 270 231
f 231 270 271
f 231 271 272
f 231 272 232
f 232 272 233
f 233 272 273
f 233 273 234
f 234 273 274
f 234 274 235
f 235 274 275
f 235 275 244
f 236 244 276
f 236 276 277
f 236 277 278
f 236 278 237
f 237 278 238
f 238 278 279
f 238 279 240
f 239 240 280
f 239 280 241
f 240 279 281
f 240 281 282
f 240 282 280
f 241 280 242
f 242 280 283
f 242 283 243
f 243 283 284
f 243 284 245
f 244 275 276
f 245 284 285
f 245 285 246
f 246 286 247
f 246 285 287
f 246 287 292
f 246 292 286
f 247 286 288
f 247 288 289
f 247 289 248
f 250 251 290
f 251 252 291
f 251 291 292
f 251 292 287
f 251 287 293
f 251 293 290
f 253 263 255
f 253 255 254
f 258 294 259
f 259 294 260
f 260 294 261
f 261 295 262
f 262 295 269
f 269 295 296
f 269 296 270
f 270 296 297
f 270 297 298
f 270 298 271
f 271 298 299
f 271 299 300
f 271 300 272
f 272 300 301
f 272 301 302
f 272 302 273
f 273 302 303
f 273 303 304
f 273 304 274
f 274 304 305
f 274 305 275
f 275 305 306
f 275 306 307
f 275 307 276
f 276 307 308
f 276 308 309
f 276 309 277
f 277 309 310
f 277 310 278
f 278 310 311
f 278 311 312
f 278 312 279
f 279 312 313
f 279 313 314
f 279 314 315
f 279 315 281
f 280 282 316
f 280 316 283
f 281 315 317
f 281 317 318
f 281 318 282
f 282 318 319
f 282 319 326
f 282 326 316
f 283 316 284
f 284 316 320
f 284 320 285
f 285 320 321
f 285 321 293
f 285 293 287
f 286 322 288
f 286 292 291
f 286 291 322
f 290 293 323
f 293 321 324
f 293 324 325
f 293 325 323
f 316 326 327
f 316 327 328
f 316 328 320
f 320 328 329
f 320 329 321
f 321 329 324

