# https://github.com/mikedh/trimesh
v 0.09644234 0.16067968 -0.06974228
v 0.10982676 0.16067968 -0.05107544
v 0.11352243 0.16067968 -0.06974228
v 0.11197666 0.10861309 -0.06974228
v 0.12025861 0.10861309 -0.05107544
v 0.11545677 0.16067968 -0.05107544
v 0.11414359 0.16067968 -0.06868614
v 0.11449528 0.15980817 -0.06974228
v 0.11871000 0.10861309 -0.06974228
v 0.12541497 0.10861309 -0.05107544
v 0.11712735 0.16067968 -0.05109737
v 0.12482218 0.14575182 -0.05107544
v 0.11493206 0.16067968 -0.06464252
v 0.11479876 0.15933418 -0.06974228
v 0.12418401 0.10861309 -0.06590512
v 0.11643247 0.15045595 -0.06974228
v 0.12429747 0.10861309 -0.06530215
v 0.12539795 0.11066701 -0.05107544
v 0.12484488 0.14567536 -0.05118507
v 0.12485055 0.14569576 -0.05107544
v 0.11521286 0.15852892 -0.06974228
v 0.12425210 0.10957125 -0.06576808
v 0.12485339 0.14563461 -0.05107544
f 1 2 6
f 1 6 11
f 1 11 13
f 1 13 7
f 1 7 3
f 1 3 8
f 1 8 14
f 1 14 21
f 1 21 16
f 1 16 9
f 1 9 4
f 1 4 5
f 1 5 2
f 2 5 10
f 2 10 18
f 2 18 23
f 2 23 20
f 2 20 12
f 2 12 6
f 3 7 8
f 4 9 15
f 4 15 17
f 4 17 10
f 4 10 5
f 6 12 11
f 7 13 14
f 7 14 8
f 9 16 15
f 10 17 18
f 11 12 19
f 11 19 13
f 12 20 19
f 13 19 14
f 14 19 21
f 15 16 22
f 15 22 17
f 16 21 19
f 16 19 22
f 17 22 18
f 18 22 19
f 18 19 23
f 19 20 23

