# https://github.com/mikedh/trimesh
v 0.06096146 -0.20065998 0.07185393
v 0.05673949 -0.20055723 0.07185393
v 0.06096146 -0.20702079 0.07185393
v 0.06096146 -0.18317005 -0.04734719
v 0.04466146 -0.20026533 0.07185393
v 0.04114613 -0.20682931 0.07185393
v 0.00030409 -0.20285730 0.04050180
v 0.06096146 -0.20684333 0.07043042
v 0.06096146 -0.18992084 -0.04734719
v 0.02285688 -0.18324010 -0.04734719
v 0.01909214 -0.19876388 0.06029086
v 0.00030409 -0.20060861 0.06095594
v 0.04336696 -0.20038444 0.07185393
v 0.03529119 -0.20657946 0.07185393
v 0.00030409 -0.20470437 0.05911238
v 0.03344445 -0.20083043 0.02438817
v 0.00030409 -0.19298682 -0.03483900
v 0.01434168 -0.19630967 -0.00975264
v 0.05134178 -0.19582865 -0.00975264
v 0.06096146 -0.19313861 -0.02810653
v 0.00030409 -0.19078483 -0.04734719
v 0.00030409 -0.18422318 -0.04734719
v 0.00030409 -0.19708960 0.04562408
v 0.00030409 -0.20326827 0.05989414
f 1 2 5
f 1 5 13
f 1 13 14
f 1 14 6
f 1 6 3
f 1 3 8
f 1 8 20
f 1 20 9
f 1 9 4
f 1 4 2
f 2 4 5
f 3 6 7
f 3 7 8
f 4 9 21
f 4 21 22
f 4 22 10
f 4 10 5
f 5 11 12
f 5 12 13
f 5 10 11
f 6 14 15
f 6 15 7
f 7 16 8
f 7 15 24
f 7 24 12
f 7 12 23
f 7 23 22
f 7 22 21
f 7 21 17
f 7 17 18
f 7 18 16
f 8 16 19
f 8 19 20
f 9 20 17
f 9 17 21
f 10 22 23
f 10 23 11
f 11 23 12
f 12 24 14
f 12 14 13
f 14 24 15
f 16 18 19
f 17 20 19
f 17 19 18

