# https://github.com/mikedh/trimesh
v 0.03914290 0.20576413 0.07938761
v 0.03928736 0.20202017 0.07938761
v 0.00029222 0.20713605 0.08675299
v 0.04885357 0.20787245 0.07938761
v 0.00029222 0.20325805 0.08751541
v 0.04157458 0.20179678 0.07938761
v 0.00029222 0.20717928 0.08682643
v 0.05726413 0.20863047 0.07938761
v 0.04389390 0.20164260 0.07938761
v 0.08227912 0.19910194 0.07938761
v 0.00029222 0.20448300 0.10343177
v 0.00029222 0.21201128 0.09917901
v 0.06443076 0.20851950 0.07938761
v 0.00029222 0.21346535 0.10322192
v 0.01664787 0.21382131 0.10575049
v 0.08227912 0.20560849 0.07938761
v 0.08227912 0.20071164 0.09420580
v 0.00029222 0.20504069 0.10657237
v 0.05836360 0.21138296 0.09590200
v 0.06220774 0.21343651 0.11373840
v 0.00029222 0.21193635 0.11128327
v 0.00029222 0.21116824 0.11447284
v 0.08227912 0.20855409 0.10229863
v 0.08227912 0.20210375 0.10146277
v 0.00029222 0.21026756 0.11469318
v 0.08227912 0.20661581 0.11501143
v 0.04033868 0.20803961 0.11511286
v 0.08227912 0.20957582 0.11437492
f 1 2 3
f 1 3 4
f 1 4 8
f 1 8 13
f 1 13 16
f 1 16 10
f 1 10 9
f 1 9 6
f 1 6 2
f 2 5 3
f 2 6 5
f 3 7 4
f 3 5 11
f 3 11 18
f 3 18 25
f 3 25 22
f 3 22 21
f 3 21 14
f 3 14 12
f 3 12 7
f 4 7 8
f 5 6 9
f 5 9 10
f 5 10 11
f 7 12 8
f 8 12 14
f 8 14 15
f 8 15 13
f 10 16 23
f 10 23 28
f 10 28 26
f 10 26 24
f 10 24 17
f 10 17 11
f 11 17 18
f 13 15 19
f 13 19 20
f 13 20 16
f 14 21 15
f 15 21 22
f 15 22 20
f 15 20 19
f 16 20 23
f 17 24 18
f 18 24 26
f 18 26 27
f 18 27 25
f 20 22 25
f 20 25 27
f 20 27 28
f 20 28 23
f 26 28 27

