# https://github.com/mikedh/trimesh
v -0.11744464 -0.19589458 0.11372503
v -0.11744464 -0.19267631 0.11462768
v -0.12886772 -0.18628356 0.11340007
v -0.11744464 -0.19386429 0.09875911
v -0.11744464 -0.18838203 0.11480820
v -0.12748112 -0.18176532 0.11502484
v -0.13839959 -0.15886249 0.11354449
v -0.12949948 -0.17028956 0.06297810
v -0.12318593 -0.16291334 -0.01775481
v -0.11744464 -0.16813269 -0.03277489
v -0.12632629 -0.14615493 0.04781361
v -0.13187887 -0.14615493 0.10892294
v -0.13402851 -0.14615493 0.11475405
v -0.11744464 -0.14615493 -0.05236236
v -0.13833191 -0.14615493 0.11392361
v -0.13756680 -0.14615493 0.10354315
v -0.12952819 -0.14615493 0.01342268
v -0.12236749 -0.14615493 -0.06527025
v -0.12116960 -0.15106268 -0.06803235
v -0.11744464 -0.15857036 -0.06422317
v -0.11744464 -0.14615493 -0.06888085
v -0.12031016 -0.14615493 -0.06902527
v -0.11744464 -0.15352629 -0.06940438
v -0.11744464 -0.15529855 -0.06916969
v -0.11744464 -0.15582924 -0.06837536
v -0.11744464 -0.14616954 -0.06940438
v -0.11946712 -0.14615493 -0.06940438
f 1 2 3
f 1 3 4
f 1 4 10
f 1 10 20
f 1 20 25
f 1 25 24
f 1 24 23
f 1 23 26
f 1 26 21
f 1 21 14
f 1 14 5
f 1 5 2
f 2 5 6
f 2 6 3
f 3 6 7
f 3 7 8
f 3 8 9
f 3 9 10
f 3 10 4
f 5 11 12
f 5 12 13
f 5 13 6
f 5 14 11
f 6 13 15
f 6 15 7
f 7 15 16
f 7 16 17
f 7 17 18
f 7 18 19
f 7 19 9
f 7 9 8
f 9 19 10
f 10 19 20
f 11 14 21
f 11 21 27
f 11 27 22
f 11 22 18
f 11 18 17
f 11 17 16
f 11 16 15
f 11 15 13
f 11 13 12
f 18 22 19
f 19 22 23
f 19 23 24
f 19 24 25
f 19 25 20
f 21 26 27
f 22 27 23
f 23 27 26

