# https://github.com/mikedh/trimesh
v -0.10722733 0.15609591 -0.06710364
v -0.10722733 0.16909620 -0.06710364
v -0.07911955 0.17623775 -0.06710364
v -0.07911955 0.17857693 -0.05164021
v -0.07911955 0.20469071 0.11489457
v -0.10722733 0.18360566 0.05875945
v -0.10695495 0.16934952 -0.06710364
v -0.10722733 0.19880500 0.07534523
v -0.07911955 0.17896500 -0.06710364
v -0.07911955 0.20954156 0.11444919
v -0.09527272 0.21057104 0.11389693
v -0.10722733 0.20016325 0.11448482
v -0.10722733 0.19663829 0.11478768
v -0.09881371 0.18086761 -0.03970414
v -0.10722733 0.20476077 0.11357626
v -0.10252803 0.19833070 0.05776181
v -0.09115120 0.19169579 -0.01390800
v -0.07911955 0.18766421 -0.03970414
v -0.07911955 0.21115851 0.10897998
v -0.07911955 0.20849594 0.08758414
v -0.07911955 0.19901520 0.02501781
v -0.07911955 0.19001417 -0.03227528
f 1 2 7
f 1 7 9
f 1 9 3
f 1 3 4
f 1 4 5
f 1 5 6
f 1 6 13
f 1 13 12
f 1 12 15
f 1 15 8
f 1 8 2
f 2 8 7
f 3 9 18
f 3 18 22
f 3 22 21
f 3 21 20
f 3 20 19
f 3 19 10
f 3 10 5
f 3 5 4
f 5 10 11
f 5 11 12
f 5 12 13
f 5 13 6
f 7 8 14
f 7 14 9
f 8 15 16
f 8 16 17
f 8 17 14
f 9 14 18
f 10 19 11
f 11 15 12
f 11 19 20
f 11 20 17
f 11 17 16
f 11 16 15
f 14 17 18
f 17 20 21
f 17 21 22
f 17 22 18

