# https://github.com/mikedh/trimesh
v 0.08227912 0.20560540 0.07938760
v 0.06443076 0.20851807 0.07938760
v 0.08227912 0.19909857 0.07938760
v 0.08227912 0.20010895 0.03085040
v 0.05726413 0.20862859 0.07938760
v 0.04789053 0.18683743 -0.06848602
v 0.04389390 0.20164026 0.07938760
v 0.00029222 0.19808033 0.05664918
v 0.00029222 0.19751988 0.05335226
v 0.08227912 0.19103675 0.02127010
v 0.08227912 0.19517028 -0.00145353
v 0.00029222 0.20246382 0.04520605
v 0.04885357 0.20787345 0.07938760
v 0.00029222 0.19202869 -0.03300345
v 0.00029222 0.19747779 0.00550992
v 0.08227912 0.18505089 -0.06758417
v 0.08227912 0.18427469 -0.06793901
v 0.08227912 0.18175142 -0.06909218
v 0.05251312 0.18175142 -0.07055584
v 0.01818873 0.18175142 -0.07164989
v 0.00029222 0.18680586 -0.06816076
v 0.04157458 0.20179550 0.07938760
v 0.03928736 0.20201652 0.07938760
v 0.00029222 0.19849342 0.05687095
v 0.00029222 0.18175142 -0.06337062
v 0.08227912 0.18175142 -0.04871928
v 0.00029222 0.20175341 0.05140072
v 0.03914290 0.20576327 0.07938760
v 0.00029222 0.18175142 -0.07151683
f 1 2 5
f 1 5 13
f 1 13 28
f 1 28 23
f 1 23 22
f 1 22 7
f 1 7 3
f 1 3 10
f 1 10 26
f 1 26 18
f 1 18 17
f 1 17 16
f 1 16 11
f 1 11 4
f 1 4 2
f 2 4 6
f 2 6 5
f 3 7 8
f 3 8 9
f 3 9 10
f 4 11 6
f 5 12 13
f 5 6 14
f 5 14 15
f 5 15 12
f 6 11 16
f 6 16 17
f 6 17 18
f 6 18 19
f 6 19 20
f 6 20 21
f 6 21 14
f 7 22 8
f 8 22 23
f 8 23 24
f 8 24 27
f 8 27 12
f 8 12 15
f 8 15 14
f 8 14 21
f 8 21 29
f 8 29 25
f 8 25 9
f 9 25 10
f 10 25 26
f 12 27 13
f 13 27 28
f 18 26 25
f 18 25 29
f 18 29 20
f 18 20 19
f 20 29 21
f 23 28 24
f 24 28 27

