# https://github.com/mikedh/trimesh
v 0.06322570 0.16068174 -0.07677130
v 0.05765420 0.16068174 -0.07674623
v 0.06623603 0.16666333 -0.07674121
v 0.07068851 0.16068174 -0.07670360
v 0.00030010 0.16068174 -0.07647794
v 0.00030010 0.17221180 -0.07639018
v 0.03134917 0.18175142 -0.07123499
v 0.05251613 0.18175142 -0.07056551
v 0.08079915 0.18175142 -0.06916638
v 0.08079915 0.17878537 -0.07051285
v 0.08079915 0.16439858 -0.07489327
v 0.08079915 0.16068174 -0.07526436
v 0.00030010 0.16068174 -0.07163867
v 0.00030010 0.17868842 -0.07355432
v 0.01818878 0.18175142 -0.07164870
v 0.08079915 0.18175142 -0.05115831
v 0.08079915 0.16068174 -0.07150829
v 0.00270364 0.16068174 -0.07146817
v 0.00030010 0.18175142 -0.06337933
v 0.00030010 0.18175142 -0.07151832
v 0.02704643 0.16068174 -0.06976314
f 1 2 3
f 1 3 4
f 1 4 12
f 1 12 17
f 1 17 21
f 1 21 18
f 1 18 13
f 1 13 5
f 1 5 2
f 2 5 3
f 3 5 6
f 3 6 7
f 3 7 8
f 3 8 9
f 3 9 10
f 3 10 11
f 3 11 12
f 3 12 4
f 5 13 19
f 5 19 20
f 5 20 14
f 5 14 6
f 6 14 7
f 7 14 15
f 7 15 20
f 7 20 19
f 7 19 16
f 7 16 9
f 7 9 8
f 9 16 17
f 9 17 12
f 9 12 11
f 9 11 10
f 13 18 16
f 13 16 19
f 14 20 15
f 16 18 21
f 16 21 17

