# https://github.com/mikedh/trimesh
v 0.13673212 -0.16757593 0.11328325
v 0.12861614 -0.16757593 0.11420785
v 0.12195005 -0.18919408 0.11518793
v 0.11676388 -0.19409807 0.08441717
v 0.13062797 -0.16757593 0.06252261
v 0.09291354 -0.19820197 0.09741708
v 0.09291354 -0.20283926 0.11511396
v 0.09291354 -0.16757593 -0.06723603
v 0.09291354 -0.20761189 0.11463317
v 0.10597117 -0.20734918 0.11404142
v 0.12529168 -0.16825262 0.02206202
v 0.11075411 -0.18245108 -0.00865325
v 0.12519301 -0.16757593 0.01917727
v 0.09291354 -0.16757593 -0.07372674
v 0.09291354 -0.20823684 0.10488786
v 0.09291354 -0.19471902 0.00203515
v 0.09291354 -0.19250983 -0.01148253
v 0.11153483 -0.16757593 -0.06549778
v 0.11941058 -0.16757593 -0.01695618
v 0.09291354 -0.18547229 -0.04428741
v 0.09291354 -0.17952542 -0.06784627
v 0.11027367 -0.16757593 -0.06886332
v 0.09936514 -0.16757593 -0.07320896
v 0.09291354 -0.17471696 -0.07104539
f 1 2 3
f 1 3 4
f 1 4 5
f 1 5 13
f 1 13 19
f 1 19 18
f 1 18 22
f 1 22 23
f 1 23 14
f 1 14 8
f 1 8 2
f 2 6 7
f 2 7 3
f 2 8 6
f 3 7 9
f 3 9 10
f 3 10 4
f 4 11 5
f 4 10 12
f 4 12 11
f 5 11 13
f 6 8 14
f 6 14 24
f 6 24 21
f 6 21 20
f 6 20 17
f 6 17 16
f 6 16 15
f 6 15 9
f 6 9 7
f 9 15 10
f 10 15 16
f 10 16 17
f 10 17 12
f 11 12 18
f 11 18 19
f 11 19 13
f 12 17 20
f 12 20 21
f 12 21 22
f 12 22 18
f 14 23 24
f 21 24 22
f 22 24 23

