# https://github.com/mikedh/trimesh
v -0.12356581 -0.00102773 -0.06671154
v -0.11640712 -0.00102773 -0.06671154
v -0.12438688 -0.00102773 -0.06553391
v -0.12373558 0.02431655 -0.06671154
v -0.11061782 0.15235922 -0.06671154
v -0.13220243 -0.00102773 0.10033443
v -0.12504652 -0.00102773 -0.05953867
v -0.12481552 0.13183457 -0.04644192
v -0.12243021 0.09374307 -0.06671154
v -0.11505999 0.15235922 -0.06671154
v -0.11382978 0.15235922 -0.03493319
v -0.13290104 0.00383693 0.10827456
v -0.13321556 -0.00102773 0.10955925
v -0.13905217 -0.00102773 0.11273530
v -0.13890187 0.07165691 0.11343118
v -0.13833408 0.15235922 0.11287805
v -0.12095784 0.15235922 -0.03828768
v -0.11970535 0.14174406 -0.06671154
v -0.12045684 0.13862108 -0.06671154
v -0.13075233 0.15235922 0.03574285
v -0.11935466 0.15235922 -0.05022462
v -0.13124219 0.15235922 0.10402793
v -0.13307919 0.04368510 0.11111159
v -0.13557582 -0.00102773 0.11496567
v -0.13844819 -0.00102773 0.11312784
v -0.13623267 0.01165942 0.11496567
v -0.13850942 0.03595270 0.11416274
v -0.13846767 0.15235922 0.11462665
v -0.13360523 0.15235922 0.11498352
v -0.13382789 0.06721264 0.11357392
v -0.13744621 0.06377435 0.11557233
v -0.13815317 0.15235922 0.11466234
f 1 2 6
f 1 6 13
f 1 13 24
f 1 24 25
f 1 25 14
f 1 14 7
f 1 7 3
f 1 3 4
f 1 4 9
f 1 9 19
f 1 19 18
f 1 18 10
f 1 10 5
f 1 5 2
f 2 5 6
f 3 7 8
f 3 8 4
f 4 8 9
f 5 10 21
f 5 21 17
f 5 17 20
f 5 20 16
f 5 16 28
f 5 28 32
f 5 32 29
f 5 29 22
f 5 22 11
f 5 11 6
f 6 12 13
f 6 11 12
f 7 14 15
f 7 15 16
f 7 16 8
f 8 17 18
f 8 18 19
f 8 19 9
f 8 16 20
f 8 20 17
f 10 18 21
f 11 22 12
f 12 22 23
f 12 23 13
f 13 23 24
f 14 25 26
f 14 26 27
f 14 27 15
f 15 27 28
f 15 28 16
f 17 21 18
f 22 29 23
f 23 29 30
f 23 30 24
f 24 30 29
f 24 29 31
f 24 31 26
f 24 26 25
f 26 31 27
f 27 31 28
f 28 31 32
f 29 32 31

