# https://github.com/mikedh/trimesh
v 0.11586681 0.18174846 0.07011589
v 0.11586681 0.18174846 0.02407600
v 0.08091845 0.18174846 -0.05107544
v 0.11586681 0.15158676 -0.05107544
v 0.11586681 0.17602615 -0.00943668
v 0.10639670 0.17978199 -0.04553547
v 0.10441579 0.18174846 -0.03890411
v 0.10019393 0.18174846 -0.05107544
v 0.11586681 0.16313767 -0.05107544
v 0.11586681 0.17576042 -0.01031453
v 0.10825104 0.17521712 -0.05107544
v 0.10174377 0.18103983 -0.05107544
v 0.11586681 0.17005582 -0.02905791
v 0.11528861 0.16425674 -0.05107544
f 1 2 7
f 1 7 8
f 1 8 3
f 1 3 4
f 1 4 9
f 1 9 13
f 1 13 10
f 1 10 5
f 1 5 2
f 2 5 6
f 2 6 7
f 3 8 12
f 3 12 11
f 3 11 14
f 3 14 9
f 3 9 4
f 5 10 6
f 6 11 12
f 6 12 7
f 6 10 11
f 7 12 8
f 9 14 13
f 10 13 14
f 10 14 11

