# https://github.com/mikedh/trimesh
v 0.12074678 0.00079122 -0.05107544
v 0.12023154 0.00082021 -0.05107544
v 0.12505777 0.00079122 -0.05107544
v 0.12771003 0.00079122 0.04383177
v 0.11644012 0.14887099 -0.05107544
v 0.12784481 0.00079122 0.04560407
v 0.12511429 0.00379166 -0.05107544
v 0.12738611 0.04384104 -0.03387279
v 0.12936878 0.00079122 -0.00193897
v 0.12321859 0.14887099 -0.05107544
v 0.12792091 0.00079122 0.04653086
v 0.12787090 0.14887099 0.07200964
v 0.12569693 0.07928103 -0.05107544
v 0.13864733 0.13121621 0.11298379
v 0.13615595 0.00079122 0.08888709
v 0.12395556 0.14887099 -0.04652276
v 0.12482516 0.14574009 -0.05107544
v 0.13452764 0.00079122 0.11475608
v 0.13168406 0.07933901 0.09974849
v 0.13204712 0.14887099 0.11272363
v 0.12539910 0.11066247 -0.05107544
v 0.13726249 0.14887099 0.10565072
v 0.13553418 0.14887099 0.11376425
v 0.13559072 0.09566026 0.11503250
v 0.13618855 0.04352215 0.11499998
v 0.13695379 0.00079122 0.11478861
v 0.12485560 0.14562413 -0.05107544
v 0.12485342 0.14568211 -0.05107544
v 0.12602955 0.14887099 -0.03180783
f 1 2 5
f 1 5 10
f 1 10 17
f 1 17 28
f 1 28 27
f 1 27 21
f 1 21 13
f 1 13 7
f 1 7 3
f 1 3 9
f 1 9 15
f 1 15 26
f 1 26 18
f 1 18 11
f 1 11 6
f 1 6 4
f 1 4 2
f 2 4 6
f 2 6 5
f 3 7 8
f 3 8 9
f 5 6 11
f 5 11 12
f 5 12 20
f 5 20 23
f 5 23 22
f 5 22 29
f 5 29 16
f 5 16 10
f 7 13 8
f 8 13 14
f 8 14 15
f 8 15 9
f 10 16 17
f 11 18 19
f 11 19 12
f 12 19 20
f 13 21 14
f 14 22 23
f 14 23 24
f 14 24 25
f 14 25 26
f 14 26 15
f 14 21 27
f 14 27 28
f 14 28 22
f 16 28 17
f 16 29 28
f 18 26 25
f 18 25 24
f 18 24 20
f 18 20 19
f 20 24 23
f 22 28 29

