# https://github.com/mikedh/trimesh
v 0.08079915 0.16068174 -0.07526566
v 0.08079915 0.16068174 -0.07150784
v 0.08079915 0.16439858 -0.07489391
v 0.10471093 0.16068174 -0.07186066
v 0.08091651 0.18175142 -0.05107544
v 0.08079915 0.18175142 -0.05115832
v 0.10982472 0.16068174 -0.05107544
v 0.08079915 0.17878537 -0.07051334
v 0.08436245 0.18175142 -0.06899079
v 0.09110853 0.18175142 -0.06781632
v 0.11267322 0.16068174 -0.07047308
v 0.10019102 0.18175142 -0.05107544
v 0.08079915 0.18175142 -0.06916838
v 0.11545771 0.16068174 -0.05107544
v 0.09910283 0.18175142 -0.05421288
v 0.10824933 0.17521703 -0.05107544
v 0.11414193 0.16068174 -0.06868534
v 0.11313908 0.16068174 -0.07039021
v 0.10174152 0.18103981 -0.05107544
v 0.11712912 0.16068174 -0.05109675
v 0.11528702 0.16425627 -0.05107544
v 0.11493140 0.16068174 -0.06464100
f 1 2 6
f 1 6 13
f 1 13 8
f 1 8 3
f 1 3 4
f 1 4 11
f 1 11 18
f 1 18 17
f 1 17 22
f 1 22 20
f 1 20 14
f 1 14 7
f 1 7 2
f 2 5 6
f 2 7 5
f 3 8 9
f 3 9 10
f 3 10 4
f 4 10 11
f 5 7 14
f 5 14 21
f 5 21 16
f 5 16 19
f 5 19 12
f 5 12 15
f 5 15 10
f 5 10 9
f 5 9 13
f 5 13 6
f 8 13 9
f 10 15 16
f 10 16 17
f 10 17 18
f 10 18 11
f 12 19 15
f 14 20 21
f 15 19 16
f 16 21 17
f 17 21 22
f 20 22 21

