# https://github.com/mikedh/trimesh
v -0.10723008 0.15235922 -0.07266811
v -0.11437827 0.15235922 -0.06932291
v -0.10723008 0.16869819 -0.06867960
v -0.10723008 0.15235922 -0.06755842
v -0.10740443 0.16872384 -0.06858771
v -0.11935478 0.15235922 -0.05022594
v -0.11901528 0.16270125 -0.03418006
v -0.10723008 0.16878539 -0.06858771
v -0.10723008 0.19664115 0.11479109
v -0.13124092 0.15235922 0.10402032
v -0.10723008 0.16897008 -0.06799954
v -0.12025405 0.18473449 0.06260984
v -0.11736663 0.19984226 0.11330229
v -0.12095755 0.15235922 -0.03827884
v -0.13075152 0.15235922 0.03575643
v -0.13157126 0.15519097 0.04709698
v -0.13285287 0.17943010 0.11210758
v -0.10723008 0.20016544 0.11449701
v -0.11326796 0.19491236 0.11477271
v -0.13145502 0.16998067 0.11510355
v -0.13360530 0.15235922 0.11499327
v -0.10723008 0.19881113 0.07534728
v -0.10723008 0.20476703 0.11357799
v -0.13833405 0.15235922 0.11287956
v -0.13847782 0.15491909 0.11464404
v -0.13815360 0.15235922 0.11466243
v -0.13846557 0.15235922 0.11462568
f 1 2 3
f 1 3 8
f 1 8 11
f 1 11 22
f 1 22 23
f 1 23 18
f 1 18 9
f 1 9 4
f 1 4 10
f 1 10 21
f 1 21 26
f 1 26 27
f 1 27 24
f 1 24 15
f 1 15 14
f 1 14 6
f 1 6 2
f 2 5 3
f 2 6 7
f 2 7 5
f 3 5 8
f 4 9 10
f 5 11 8
f 5 7 12
f 5 12 13
f 5 13 11
f 6 14 7
f 7 14 15
f 7 15 16
f 7 16 17
f 7 17 12
f 9 18 19
f 9 19 20
f 9 20 21
f 9 21 10
f 11 13 22
f 12 17 13
f 13 17 20
f 13 20 19
f 13 19 18
f 13 18 23
f 13 23 22
f 15 24 25
f 15 25 16
f 16 25 17
f 17 25 20
f 20 25 21
f 21 25 26
f 24 27 25
f 25 27 26

