# https://github.com/mikedh/trimesh
v 0.00029222 0.18740077 -0.06414943
v 0.00029222 0.18680395 -0.06816310
v -0.05394117 0.18730816 -0.06414943
v 0.00029222 0.18156967 -0.06414943
v 0.00029222 0.17868842 -0.07355470
v -0.02508265 0.17434596 -0.07625474
v -0.05588822 0.18676279 -0.06777860
v -0.05826679 0.18709551 -0.06414943
v 0.00029222 0.15235922 -0.07242544
v -0.07911607 0.17668183 -0.06414943
v -0.10722733 0.15236266 -0.06756512
v 0.00029222 0.17220901 -0.07638938
v -0.05805629 0.15235922 -0.07646944
v -0.07911607 0.16814439 -0.07593210
v -0.07911607 0.17863010 -0.06814612
v -0.09302962 0.16653912 -0.07584840
v -0.07911607 0.17411613 -0.07282450
v -0.10722733 0.16896760 -0.06801149
v -0.07911607 0.17989580 -0.06414943
v 0.00029222 0.15235922 -0.07654100
v -0.07911607 0.15235922 -0.07134955
v -0.10722733 0.15609457 -0.06710420
v -0.10722733 0.15236266 -0.07266682
v -0.07911607 0.15235922 -0.07628870
v -0.07911607 0.15236266 -0.07628870
v -0.09503982 0.15236266 -0.07615164
v -0.10722733 0.16878238 -0.06859249
v -0.10715367 0.15236266 -0.07269835
v -0.10722733 0.15710987 -0.07150966
v -0.10722733 0.16869320 -0.06868225
v -0.10722733 0.16909452 -0.06710420
v -0.10695370 0.16934490 -0.06710420
v -0.10651166 0.16949926 -0.06710420
f 1 2 3
f 1 3 8
f 1 8 19
f 1 19 10
f 1 10 4
f 1 4 9
f 1 9 20
f 1 20 12
f 1 12 5
f 1 5 2
f 2 5 6
f 2 6 7
f 2 7 3
f 3 7 8
f 4 10 11
f 4 11 9
f 5 12 6
f 6 12 13
f 6 13 14
f 6 14 7
f 7 15 8
f 7 14 16
f 7 16 17
f 7 17 15
f 8 15 18
f 8 18 19
f 9 11 21
f 9 21 24
f 9 24 13
f 9 13 20
f 10 19 31
f 10 31 22
f 10 22 11
f 11 22 31
f 11 31 18
f 11 18 27
f 11 27 30
f 11 30 29
f 11 29 23
f 11 23 24
f 11 24 21
f 12 20 13
f 13 24 25
f 13 25 14
f 14 25 26
f 14 26 16
f 15 17 16
f 15 16 27
f 15 27 18
f 16 26 28
f 16 28 23
f 16 23 29
f 16 29 30
f 16 30 27
f 18 31 32
f 18 32 33
f 18 33 19
f 19 33 32
f 19 32 31
f 23 28 24
f 24 28 26
f 24 26 25

