# https://github.com/mikedh/trimesh
v 0.03529711 -0.20658123 0.07185394
v 0.01752733 -0.20894183 0.08381948
v 0.04336771 -0.20038684 0.07185394
v 0.04115233 -0.20683174 0.07185394
v 0.06096740 -0.20702279 0.07185394
v 0.03659827 -0.20886710 0.08381948
v 0.04052301 -0.20303528 0.08381948
v 0.04466461 -0.20026796 0.07185394
v 0.06096740 -0.20066109 0.07185394
v 0.06096740 -0.20851725 0.08381948
v 0.05409166 -0.20183460 0.08381948
v 0.06096740 -0.20200019 0.08381948
v 0.05674500 -0.20055921 0.07185394
f 1 2 3
f 1 3 8
f 1 8 13
f 1 13 9
f 1 9 5
f 1 5 4
f 1 4 2
f 2 4 5
f 2 5 6
f 2 6 10
f 2 10 12
f 2 12 11
f 2 11 7
f 2 7 3
f 3 7 8
f 5 9 12
f 5 12 10
f 5 10 6
f 7 11 8
f 8 11 12
f 8 12 13
f 9 13 12

