# https://github.com/mikedh/trimesh
v 0.12767966 0.18175142 0.11461788
v 0.12249789 0.19337891 0.11420339
v 0.10097529 0.20597877 0.11496030
v 0.12386665 0.18175142 0.11490624
v 0.12733747 0.18175142 0.10960785
v 0.12373334 0.18175142 0.06525646
v 0.10441943 0.18175142 -0.03889092
v 0.10512605 0.20299359 0.08926136
v 0.08228356 0.20855539 0.10229105
v 0.08228356 0.20957406 0.11436559
v 0.08228356 0.20661338 0.11499634
v 0.08228356 0.20210293 0.10146204
v 0.12113357 0.18175142 0.10946368
v 0.09910879 0.18175142 -0.05420936
v 0.08796752 0.18475567 -0.06743730
v 0.08920297 0.19684346 0.01203839
v 0.08228356 0.20010918 0.03085304
v 0.08228356 0.20070840 0.09419930
v 0.08228356 0.18175142 -0.04871275
v 0.09110947 0.18175142 -0.06781575
v 0.08436338 0.18175142 -0.06898715
v 0.08228356 0.18427357 -0.06794190
v 0.08228356 0.18505256 -0.06758146
v 0.08228356 0.19516839 -0.00145986
v 0.08228356 0.18175142 -0.06907726
f 1 2 3
f 1 3 4
f 1 4 13
f 1 13 19
f 1 19 25
f 1 25 21
f 1 21 20
f 1 20 14
f 1 14 7
f 1 7 6
f 1 6 5
f 1 5 2
f 2 5 6
f 2 6 7
f 2 7 8
f 2 8 3
f 3 9 10
f 3 10 11
f 3 11 4
f 3 8 9
f 4 11 12
f 4 12 13
f 7 14 8
f 8 14 15
f 8 15 16
f 8 16 9
f 9 16 17
f 9 17 24
f 9 24 23
f 9 23 22
f 9 22 25
f 9 25 19
f 9 19 18
f 9 18 12
f 9 12 11
f 9 11 10
f 12 18 13
f 13 18 19
f 14 20 15
f 15 20 21
f 15 21 22
f 15 22 23
f 15 23 24
f 15 24 16
f 16 24 17
f 21 25 22

