# https://github.com/mikedh/trimesh
v 0.00030128 -0.16757423 -0.07460711
v 0.00030128 -0.18429364 -0.07290187
v 0.00030128 -0.16757423 -0.07130337
v 0.08276834 -0.16757423 -0.07452972
v 0.02614024 -0.18428908 -0.07274442
v 0.00030128 -0.18667272 -0.07068691
v 0.00030128 -0.18422092 -0.04734720
v 0.09291353 -0.17995813 -0.04734720
v 0.09291353 -0.16757423 -0.06723907
v 0.09291353 -0.16757423 -0.07372648
v 0.08144467 -0.18741120 -0.06718836
v 0.00030128 -0.19078554 -0.04734720
v 0.09291353 -0.18470037 -0.04734720
v 0.09291353 -0.17471600 -0.07104451
v 0.09291353 -0.17951959 -0.06785818
v 0.09138133 -0.18572971 -0.04734720
v 0.08410108 -0.19008566 -0.04734720
v 0.07104561 -0.19031972 -0.04734720
f 1 2 6
f 1 6 12
f 1 12 7
f 1 7 3
f 1 3 9
f 1 9 10
f 1 10 4
f 1 4 2
f 2 5 6
f 2 4 5
f 3 7 8
f 3 8 9
f 4 10 5
f 5 10 11
f 5 11 6
f 6 11 12
f 7 12 18
f 7 18 17
f 7 17 16
f 7 16 13
f 7 13 8
f 8 13 15
f 8 15 14
f 8 14 10
f 8 10 9
f 10 14 11
f 11 14 15
f 11 15 13
f 11 13 16
f 11 16 17
f 11 17 18
f 11 18 12

