# https://github.com/mikedh/trimesh
v -0.09121202 -0.20872892 0.11393625
v -0.09121202 -0.20438623 0.11433297
v -0.10436814 -0.20689139 0.11409855
v -0.09121202 -0.19307931 -0.01597286
v -0.11744464 -0.18838134 0.11481985
v -0.09121202 -0.19897164 0.09022296
v -0.11124537 -0.14615493 -0.06940439
v -0.11744464 -0.14615493 -0.05236328
v -0.11744464 -0.19267505 0.11462150
v -0.11744464 -0.19589072 0.11373789
v -0.11744464 -0.19386332 0.09875253
v -0.10654070 -0.20109706 0.08477703
v -0.10996905 -0.18916537 0.02324872
v -0.09121202 -0.19306706 -0.01604499
v -0.09121202 -0.17112695 -0.06940439
v -0.11147906 -0.14615493 -0.06940439
v -0.11744464 -0.14615493 -0.06888143
v -0.11744464 -0.16813791 -0.03277954
v -0.10880829 -0.17599028 -0.05539281
v -0.09121202 -0.18267277 -0.06321910
v -0.09121202 -0.17943259 -0.06940439
v -0.11744464 -0.14617330 -0.06940439
v -0.11744464 -0.15857050 -0.06422894
v -0.11744464 -0.15583259 -0.06837650
v -0.10618117 -0.17025720 -0.06940439
v -0.11744464 -0.15352342 -0.06940439
v -0.11744464 -0.15529969 -0.06916996
v -0.11673586 -0.15610209 -0.06940439
f 1 2 3
f 1 3 4
f 1 4 14
f 1 14 20
f 1 20 21
f 1 21 15
f 1 15 6
f 1 6 2
f 2 5 3
f 2 6 7
f 2 7 8
f 2 8 5
f 3 5 9
f 3 9 10
f 3 10 11
f 3 11 12
f 3 12 4
f 4 13 14
f 4 12 13
f 5 8 17
f 5 17 22
f 5 22 26
f 5 26 27
f 5 27 24
f 5 24 23
f 5 23 18
f 5 18 11
f 5 11 10
f 5 10 9
f 6 15 7
f 7 15 21
f 7 21 25
f 7 25 28
f 7 28 26
f 7 26 22
f 7 22 16
f 7 16 17
f 7 17 8
f 11 13 12
f 11 18 19
f 11 19 13
f 13 19 14
f 14 19 20
f 16 22 17
f 18 23 19
f 19 23 24
f 19 24 25
f 19 25 21
f 19 21 20
f 24 27 28
f 24 28 25
f 26 28 27

