# https://github.com/mikedh/trimesh
v -0.13839958 -0.15885787 0.11356032
v -0.12950098 -0.17028632 0.06298952
v -0.13574282 -0.11826537 0.08157824
v -0.13821223 -0.12340507 0.11459008
v -0.13902647 -0.05415865 0.11361413
v -0.13325432 -0.00123133 0.05318403
v -0.13910722 -0.00478828 0.11260093
v -0.13851097 0.03594303 0.11417328
v -0.13623382 0.01165684 0.11497935
v -0.13890425 0.07164912 0.11344375
v -0.13630037 0.11614707 0.08788216
v -0.13744644 0.06376080 0.11557233
v -0.13830288 0.10850820 0.11456115
v -0.13584431 0.13403623 0.11489488
v -0.13847782 0.15491723 0.11464755
v -0.13157325 0.15519023 0.04709848
v -0.13285308 0.17943211 0.11212107
v -0.12886886 -0.18628406 0.11340968
v -0.12747992 -0.18176904 0.11502484
v -0.12953760 -0.13925606 -0.00075243
v -0.12862409 -0.07288343 -0.01692636
v -0.13422869 -0.06467173 0.11451088
v -0.13453204 -0.02127869 0.11497934
v -0.13382887 0.06720292 0.11357899
v -0.12713585 0.08280553 -0.02476857
v -0.13145722 0.16997927 0.11510356
v -0.12025246 0.18473530 0.06262682
v -0.11326524 0.19491357 0.11479071
v -0.12318435 -0.16291230 -0.01776123
v -0.13164664 -0.15421087 0.10837150
v -0.12547304 -0.13344693 -0.05815052
v -0.12750613 -0.08871553 0.04012258
v -0.12945513 -0.02010817 0.06918709
v -0.12472261 -0.01405113 -0.06495028
v -0.13290315 0.00383078 0.10828004
v -0.12942614 0.07347347 0.07232805
v -0.13307957 0.04368209 0.11111219
v -0.12481326 0.13183808 -0.04645265
v -0.13132638 0.15595765 0.10547708
v -0.11901332 0.16269940 -0.03418582
v -0.10654276 -0.20110304 0.08478774
v -0.12611058 -0.15659876 0.04921895
v -0.12116858 -0.15105902 -0.06804268
v -0.11529575 -0.11751529 -0.07477523
v -0.12177404 -0.07722464 -0.07176055
v -0.12208355 0.08822673 -0.06964711
v -0.12516570 0.15017878 0.03435051
v -0.11977181 0.13970000 -0.06988879
v -0.11908066 0.17455839 0.05588219
v -0.11736431 0.19984230 0.11330507
v -0.10436837 -0.20689488 0.11411529
v -0.12221826 -0.17743528 0.08521860
v -0.10880973 -0.17598424 -0.05539961
v -0.11121400 -0.17917084 0.02555947
v -0.12207221 -0.12882706 -0.02234119
v -0.11858589 -0.00630491 -0.07370326
v -0.12365778 0.00984152 -0.00673016
v -0.10801972 0.05044582 -0.07664630
v -0.12231763 0.09624475 -0.01496088
v -0.11742255 0.18563221 0.09625706
v -0.10997026 -0.18917009 0.02325079
v -0.10553765 -0.16884255 -0.07284613
v -0.11832933 -0.15293598 -0.03581702
v -0.10740354 0.16871990 -0.06859386
v -0.10253299 0.19833517 0.05776617
v -0.09827224 -0.19853605 0.09058769
v -0.11668745 -0.14011469 -0.06696958
v -0.11398984 -0.09946733 -0.07064609
v -0.11999229 -0.05935823 -0.05953039
v -0.11564353 -0.01461412 -0.06961522
v -0.10887174 -0.03347383 -0.07658822
v -0.11997347 -0.02865743 -0.05783648
v -0.10496128 0.00295943 -0.07694602
v -0.11620985 0.06660044 -0.06862660
v -0.12008238 0.02507914 -0.05206682
v -0.09889489 0.12514806 -0.07673664
v -0.11684348 0.11194324 -0.06737065
v -0.11820017 0.14127839 -0.04418618
v -0.10476617 0.17533425 -0.01579628
v -0.09114735 0.19170108 -0.01392316
v -0.09334069 -0.20427547 0.11432750
v -0.10912735 -0.16344047 -0.06540808
v -0.08333805 -0.08703535 -0.07665164
v -0.11101010 0.15191411 -0.06670608
v -0.10814695 -0.04303768 -0.07317845
v -0.09949367 0.12858157 -0.07223892
v -0.09303714 0.16653904 -0.07584899
v -0.09527639 0.21057593 0.11392249
v -0.09120152 -0.19307581 -0.01604026
v -0.09198121 -0.18634317 -0.01069622
v -0.10471265 -0.15350959 -0.07232206
v -0.05928301 -0.10074129 -0.07311888
v -0.09062474 0.00297036 -0.07366034
v -0.08784736 0.19839500 0.06349341
v -0.09424854 -0.17543755 -0.06813702
v -0.08753651 -0.16694758 -0.07617678
v -0.06172971 0.08157125 -0.07242546
v 0.02105388 0.07676893 -0.07720844
v -0.03953536 -0.16489025 -0.07267921
v -0.09361714 0.17111060 -0.06863238
v -0.06626031 0.20684515 0.06665389
v -0.06524768 0.20866748 0.11493676
v -0.07022294 -0.20807119 0.07924549
v -0.07851841 -0.18749625 -0.06887307
v -0.05988258 -0.17785424 -0.07057136
v -0.05589699 0.18676697 -0.06777805
v -0.06118106 -0.21291421 0.11357705
v -0.07401067 0.18520081 -0.03846060
v 0.03344709 -0.20083182 0.02439081
v -0.04058930 -0.19343987 0.01369688
v -0.04315234 -0.20551538 0.06165526
v -0.06119582 -0.19774445 0.04963124
v -0.05113818 -0.18430365 -0.07321802
v -0.04064741 -0.18388457 -0.05687327
v -0.06826363 0.17994647 -0.06682514
v -0.03885312 -0.20220923 0.08752722
v -0.04374366 0.16872093 -0.07215211
v -0.02507564 0.17434770 -0.07625608
v -0.03623289 0.19360432 0.02182515
v -0.02644128 0.19494378 -0.01308023
v -0.04434627 -0.21051909 0.09084743
v -0.04551560 -0.20677368 0.11475052
v -0.05879751 0.20336087 0.09025497
v -0.03982373 0.21259100 0.09702492
v -0.00291895 -0.01467229 -0.07352916
v 0.01693518 -0.05792280 -0.07695376
v -0.01890895 -0.18844391 -0.06916033
v -0.00447930 0.20468271 0.10555797
v 0.01664047 -0.14745579 -0.07656145
v -0.04401106 0.20094404 0.06979744
v -0.00784164 0.20243606 0.04547099
v -0.01770918 -0.20237467 0.06160203
v -0.04337941 0.20616483 0.06926856
v -0.02591437 0.18126379 -0.06517719
v -0.02735499 0.20348866 0.08779083
v -0.02934379 0.20873115 0.08727667
v -0.00947055 0.21081077 0.11459104
v 0.01042577 -0.21310204 0.11356064
v 0.03155357 -0.18890104 -0.02019695
v -0.00324825 -0.20997196 0.08799816
v -0.00430977 0.19779428 0.05534561
v 0.00512878 -0.20376571 0.08728377
v 0.02613457 -0.18429007 -0.07274646
v -0.00067679 -0.20430032 0.10721775
v 0.01552801 -0.17846987 -0.07020775
v 0.02823809 0.15168305 -0.07255968
v -0.00012146 0.20715054 0.08675943
v 0.02660440 -0.12968007 -0.07270087
v 0.05035483 0.05944012 -0.07302756
v 0.01664624 0.21382273 0.10575151
v 0.01756836 -0.21271758 0.10046116
v 0.04789483 0.18683660 -0.06848616
v 0.02133136 -0.20431732 0.05790102
v 0.02421693 0.18199592 -0.06313942
v 0.01410145 0.20059782 0.06148837
v 0.01908404 -0.19876677 0.06030480
v 0.02966463 -0.20728573 0.11446521
v 0.04033502 0.20804099 0.11511635
v 0.03685160 0.20295218 0.08714991
v 0.06096570 -0.20297617 0.09254092
v 0.04228807 -0.20771593 0.07884181
v 0.06623798 0.16666292 -0.07674281
v 0.05488954 0.20265370 0.04351730
v 0.05836467 0.21138316 0.09590169
v 0.04229253 0.20545080 0.06798637
v 0.04095983 -0.20302572 0.08377814
v 0.04363626 -0.20009680 0.07054665
v 0.03733901 0.20594175 0.08588338
v 0.08231235 -0.20782510 0.11511092
v 0.04263032 0.20073666 0.06872494
v 0.06221305 0.21343699 0.11374177
v 0.07339669 -0.20956313 0.09123801
v 0.06919712 -0.19778573 0.04439979
v 0.08145103 -0.18741332 -0.06719005
v 0.08451681 -0.15218236 -0.07246046
v 0.07788216 0.19291669 0.01979720
v 0.07155771 -0.17887333 -0.07001047
v 0.08920285 0.19684546 0.01203097
v 0.07909544 0.18414149 -0.04628618
v 0.08881233 -0.19482748 -0.01214348
v 0.08854706 -0.18733881 -0.01763235
v 0.09120306 -0.06731334 -0.07317243
v 0.08796622 0.18475457 -0.06744977
v 0.08812286 0.17202986 -0.07088851
v 0.09738497 0.19996482 0.09654827
v 0.10241935 -0.19678435 0.09887426
v 0.09724222 -0.17535021 -0.06458043
v 0.10779192 0.04038410 -0.07238888
v 0.10263907 0.13190780 -0.07259720
v 0.10097107 0.20598089 0.11496891
v 0.09505189 -0.01386611 -0.07333527
v 0.10553908 -0.09804027 -0.07650993
v 0.10919558 0.10893530 -0.07637765
v 0.10513043 0.20299619 0.08926879
v 0.10723896 -0.09866119 -0.07237171
v 0.10423895 0.17386713 -0.03706210
v 0.10597009 -0.20734956 0.11404522
v 0.11075198 -0.18244936 -0.00866845
v 0.10538895 -0.16089486 -0.07524341
v 0.11477852 0.15911422 -0.07058358
v 0.11676409 -0.19409944 0.08441846
v 0.11158114 -0.16666977 -0.06894735
v 0.11630901 -0.17768839 0.04751592
v 0.11464684 0.14871738 -0.06488419
v 0.10639994 0.17978480 -0.04554277
v 0.11349606 -0.15987654 -0.04528607
v 0.11269113 -0.13035125 -0.06984262
v 0.11364784 0.17760631 0.03183243
v 0.11643830 0.17580203 -0.00726028
v 0.11690385 -0.07217628 -0.06658794
v 0.11110406 -0.02530021 -0.07148173
v 0.11335169 0.00784782 -0.07634918
v 0.11884709 0.18241723 0.08944245
v 0.12195221 -0.18919501 0.11518793
v 0.11421619 0.09211803 -0.07000041
v 0.11878656 0.15817029 -0.01885953
v 0.12274663 -0.03794662 -0.06899763
v 0.12385255 0.18064807 0.06062112
v 0.12249979 0.19337852 0.11421454
v 0.12529328 -0.16824938 0.02207347
v 0.12610115 -0.15419418 0.04917738
v 0.12246868 -0.10126135 -0.01671717
v 0.12046796 -0.01358662 -0.05095134
v 0.11895762 0.01954046 -0.06348992
v 0.12786129 0.00108775 0.04578690
v 0.12082890 0.09869213 -0.05332548
v 0.12171167 0.07323676 -0.07097411
v 0.12416358 0.14216688 -0.00305606
v 0.13107627 0.17412715 0.11489386
v 0.12065835 -0.12766357 -0.07084846
v 0.12665488 0.16234001 0.07198121
v 0.13251607 -0.15493922 0.11363570
v 0.12246758 -0.14911864 -0.05990866
v 0.12916576 -0.11375549 0.06826596
v 0.12483657 -0.10398450 -0.05822000
v 0.12281366 0.02779309 -0.06944757
v 0.12978724 0.12767057 0.07208773
v 0.12425340 0.10957113 -0.06576850
v 0.12484556 0.14567873 -0.05118340
v 0.13168686 0.15882199 0.11322767
v 0.13152346 -0.13231963 0.03206516
v 0.12738428 0.04383449 -0.03387617
v 0.13168564 0.07934156 0.09976111
v 0.12933050 0.15778683 0.02230322
v 0.13322318 -0.10280600 0.11343470
v 0.13178384 -0.05151664 0.03685542
v 0.13348662 -0.02602469 0.11460419
v 0.13618886 0.04351253 0.11501378
v 0.13559107 0.09566810 0.11503250
v 0.13131695 0.11631847 0.02487819
v 0.13299563 0.12273811 0.11145548
v 0.13880395 -0.12394877 0.11352514
v 0.13816155 -0.06664183 0.11444695
v 0.13638783 0.16002329 0.10101695
v 0.13731656 -0.16672343 0.11320985
v 0.13563773 0.01826726 0.08226383
v 0.13864949 0.13122436 0.11298915
f 59 75 74
f 102 94 123
f 207 175 187
f 122 81 107
f 55 63 67
f 97 86 74
f 173 181 139
f 150 147 136
f 251 237 243
f 132 111 153
f 30 42 32
f 247 234 245
f 230 192 217
f 135 130 136
f 165 163 155
f 47 36 59
f 134 117 154
f 131 120 101
f 200 162 183
f 188 149 191
f 91 82 95
f 205 200 183
f 93 74 70
f 119 134 154
f 29 53 61
f 178 152 120
f 158 137 128
f 107 103 121
f 96 62 44
f 235 233 230
f 220 198 202
f 59 74 77
f 110 114 90
f 90 54 66
f 172 109 180
f 163 120 131
f 156 132 153
f 97 93 125
f 84 77 86
f 29 43 53
f 157 138 169
f 224 188 211
f 205 183 178
f 47 78 79
f 28 60 94
f 6 21 3
f 50 65 27
f 232 221 203
f 145 114 139
f 182 125 148
f 255 232 214
f 181 206 187
f 230 199 192
f 241 220 233
f 59 57 75
f 94 60 49
f 43 44 62
f 224 211 223
f 52 19 66
f 126 212 192
f 211 182 210
f 214 203 186
f 105 91 95
f 21 31 20
f 100 84 86
f 119 94 108
f 190 185 229
f 32 42 55
f 172 180 201
f 34 56 45
f 218 254 244
f 64 48 40
f 7 5 23
f 248 253 256
f 37 35 36
f 207 195 175
f 128 135 159
f 17 16 15
f 257 250 254
f 121 103 111
f 220 201 198
f 73 71 56
f 130 119 141
f 101 80 65
f 239 238 200
f 215 149 188
f 17 15 26
f 50 17 28
f 134 115 117
f 213 208 231
f 76 46 48
f 184 146 189
f 208 185 176
f 23 22 33
f 214 197 201
f 20 29 2
f 241 235 246
f 88 50 28
f 142 140 116
f 190 158 185
f 19 81 66
f 76 58 46
f 94 79 108
f 214 201 220
f 233 202 230
f 118 76 87
f 22 5 4
f 211 210 223
f 234 221 232
f 128 102 123
f 98 83 73
f 245 234 232
f 81 51 107
f 240 251 257
f 18 41 51
f 97 74 93
f 67 63 82
f 162 98 118
f 164 163 165
f 12 10 8
f 241 233 235
f 136 130 133
f 168 159 147
f 237 225 243
f 9 23 35
f 139 114 110
f 10 6 8
f 107 121 140
f 168 165 170
f 42 52 54
f 249 243 248
f 138 140 151
f 195 148 175
f 157 160 144
f 77 74 86
f 111 89 109
f 211 191 182
f 166 167 161
f 156 110 132
f 41 61 89
f 63 54 82
f 32 68 69
f 16 38 25
f 201 180 198
f 208 176 196
f 147 135 136
f 240 231 237
f 164 168 147
f 78 77 84
f 158 128 159
f 171 150 137
f 9 8 7
f 5 3 4
f 7 6 5
f 197 169 172
f 28 17 26
f 71 83 45
f 18 2 41
f 137 102 128
f 253 245 252
f 228 204 226
f 218 209 194
f 172 161 109
f 157 144 138
f 138 151 172
f 31 44 43
f 78 59 77
f 107 41 103
f 113 127 104
f 130 123 119
f 133 130 141
f 80 64 40
f 226 224 225
f 123 94 119
f 107 51 41
f 208 216 231
f 171 164 150
f 184 154 146
f 85 70 68
f 227 236 212
f 50 27 17
f 88 65 50
f 6 3 5
f 13 11 10
f 69 68 70
f 129 96 83
f 238 227 193
f 146 149 189
f 193 98 162
f 52 66 54
f 108 79 115
f 218 244 209
f 117 100 86
f 24 37 36
f 9 7 23
f 175 148 145
f 240 257 229
f 230 202 199
f 200 238 193
f 1 2 18
f 231 228 237
f 179 176 154
f 197 172 201
f 199 202 174
f 187 177 181
f 23 5 22
f 155 131 141
f 126 129 83
f 80 40 27
f 177 145 139
f 139 110 156
f 214 186 169
f 119 115 134
f 255 214 220
f 123 130 135
f 4 3 1
f 19 1 18
f 2 29 61
f 75 70 74
f 171 158 190
f 181 173 186
f 83 71 73
f 193 212 98
f 185 213 229
f 227 212 193
f 176 141 119
f 101 65 88
f 166 161 140
f 210 207 222
f 10 12 24
f 14 24 36
f 102 88 28
f 93 85 92
f 253 252 246
f 24 8 9
f 109 143 174
f 32 55 68
f 95 82 90
f 242 227 238
f 102 28 94
f 196 179 184
f 199 174 143
f 192 129 126
f 49 47 79
f 112 110 90
f 30 52 42
f 65 80 27
f 42 63 55
f 98 73 58
f 68 67 91
f 58 73 56
f 189 149 215
f 178 183 152
f 25 46 34
f 132 112 116
f 242 236 227
f 250 242 238
f 93 70 85
f 59 36 57
f 160 142 144
f 37 24 9
f 246 235 217
f 124 133 101
f 209 200 205
f 165 155 170
f 38 48 46
f 242 246 217
f 186 173 160
f 196 204 216
f 175 145 177
f 15 16 11
f 106 87 64
f 167 156 153
f 203 206 181
f 109 104 127
f 122 116 81
f 55 67 68
f 236 217 212
f 83 96 44
f 103 89 111
f 6 7 8
f 229 213 240
f 204 189 215
f 250 256 242
f 71 45 56
f 36 35 33
f 209 239 200
f 117 97 146
f 191 149 125
f 57 32 72
f 257 249 248
f 39 49 60
f 222 207 206
f 37 9 35
f 186 203 181
f 152 162 118
f 116 140 121
f 45 44 31
f 83 44 45
f 16 25 11
f 183 162 152
f 92 68 99
f 210 182 195
f 233 220 202
f 158 171 137
f 79 84 100
f 198 174 202
f 167 153 161
f 178 120 163
f 47 59 78
f 209 205 178
f 118 87 106
f 89 53 104
f 3 20 2
f 193 162 200
f 90 105 95
f 213 185 208
f 144 116 122
f 252 232 255
f 194 209 178
f 188 191 211
f 188 224 226
f 198 180 174
f 14 36 39
f 216 204 228
f 137 150 124
f 128 123 135
f 244 250 239
f 255 220 241
f 25 34 21
f 109 127 143
f 234 222 221
f 75 72 70
f 79 100 115
f 192 199 129
f 38 46 25
f 247 253 248
f 169 186 160
f 226 204 215
f 208 196 216
f 102 124 88
f 194 178 164
f 195 182 148
f 160 173 167
f 85 68 92
f 96 113 104
f 209 244 239
f 119 108 115
f 149 97 125
f 87 76 48
f 4 1 19
f 87 48 64
f 99 105 145
f 244 254 250
f 242 217 236
f 27 16 17
f 176 170 141
f 11 25 6
f 24 12 8
f 169 138 172
f 240 237 251
f 23 33 35
f 225 224 223
f 237 228 225
f 36 33 57
f 144 122 138
f 109 89 104
f 133 131 101
f 46 58 56
f 98 76 118
f 114 145 105
f 215 188 226
f 27 40 16
f 103 41 89
f 239 250 238
f 250 248 256
f 180 109 174
f 169 160 157
f 159 168 170
f 253 247 245
f 136 133 124
f 39 47 49
f 185 159 176
f 252 241 246
f 251 243 249
f 116 111 132
f 213 231 240
f 32 69 72
f 173 139 167
f 68 91 99
f 112 90 66
f 152 106 120
f 229 254 219
f 166 140 142
f 253 246 256
f 151 140 161
f 54 90 82
f 120 80 101
f 256 246 242
f 15 11 13
f 160 166 142
f 3 2 1
f 219 254 218
f 223 210 222
f 99 91 105
f 22 30 32
f 175 177 187
f 43 62 53
f 204 184 189
f 252 245 232
f 10 11 6
f 98 126 83
f 19 30 4
f 114 105 90
f 116 112 66
f 154 117 146
f 129 113 96
f 76 98 58
f 138 107 140
f 225 222 234
f 229 257 254
f 235 230 217
f 132 110 112
f 255 241 252
f 41 2 61
f 34 45 21
f 129 143 113
f 248 225 247
f 199 143 129
f 106 64 80
f 56 34 46
f 148 92 99
f 26 14 39
f 143 127 113
f 31 29 20
f 42 54 63
f 212 126 98
f 40 38 16
f 251 249 257
f 125 93 92
f 21 45 31
f 165 168 164
f 167 166 160
f 223 222 225
f 3 21 20
f 158 159 185
f 22 32 33
f 150 136 124
f 151 161 172
f 125 92 148
f 124 101 88
f 257 248 250
f 147 159 135
f 146 97 149
f 40 48 38
f 161 153 109
f 164 147 150
f 191 125 182
f 148 99 145
f 243 225 248
f 4 30 22
f 61 53 89
f 79 78 84
f 232 203 214
f 39 36 47
f 159 170 176
f 81 116 66
f 115 100 117
f 91 67 82
f 170 155 141
f 104 53 62
f 14 13 24
f 171 194 164
f 57 72 75
f 57 33 32
f 14 15 13
f 26 39 60
f 167 139 156
f 96 104 62
f 111 109 153
f 6 25 21
f 190 219 194
f 179 154 184
f 19 18 51
f 141 131 133
f 26 15 14
f 176 179 196
f 195 207 210
f 176 119 154
f 152 118 106
f 144 142 116
f 221 206 203
f 81 19 51
f 120 106 80
f 225 234 247
f 219 190 229
f 219 218 194
f 196 184 204
f 214 169 197
f 181 177 139
f 206 207 187
f 178 163 164
f 190 194 171
f 94 49 79
f 13 10 24
f 72 69 70
f 117 86 97
f 216 228 231
f 212 217 192
f 31 43 29
f 122 107 138
f 163 131 155
f 116 121 111
f 28 26 60
f 222 206 221
f 228 226 225
f 30 19 52
f 137 124 102

