# https://github.com/mikedh/trimesh
v -0.04330212 -0.01576444 -0.00462600
v -0.04373090 -0.01118370 -0.00452226
v -0.04331476 -0.01201848 -0.01047559
v -0.04356394 -0.00763600 -0.01075358
v -0.04292930 -0.01093631 0.00130686
v -0.04346146 -0.00655766 -0.00440417
v -0.04314765 -0.00286138 -0.01067173
v -0.04170742 -0.01779192 0.00328028
v -0.04179519 -0.01569548 -0.00590280
v -0.04187838 -0.01010735 -0.01379350
v -0.04253733 -0.00679990 -0.01706568
v -0.03899496 -0.00820604 0.00340666
v -0.04162149 -0.00136349 -0.01775719
v -0.04047856 -0.00067523 -0.01039918
v -0.04086253 -0.02131686 0.00363581
v -0.04133032 -0.02010068 0.00076904
v -0.04112707 -0.01532330 0.00704124
v -0.04071728 0.00235412 -0.01719174
v -0.04036572 -0.00565760 -0.01988443
v -0.03945108 -0.00167884 -0.02420688
v -0.03858741 -0.02153082 0.00979356
v -0.03667679 -0.01846717 -0.00164020
v -0.03718019 -0.01874678 0.01335561
v -0.03765690 -0.01416627 0.00939375
v -0.03818417 0.00540382 -0.02207277
v -0.03850765 -0.02308361 0.00467727
v -0.03722357 -0.01023155 -0.01333305
v -0.03890974 -0.00340376 0.00099647
v -0.03760572 0.00357125 -0.02525297
v -0.03758041 0.00421409 -0.01637892
v -0.03907787 0.00256339 0.00176377
v -0.03859467 0.00130152 -0.00859603
v -0.03776223 -0.00008834 0.01084792
v -0.03834780 0.00614453 0.00296606
v -0.03652177 -0.02615644 0.00958162
v -0.03642178 -0.00162520 -0.02537312
v -0.03716110 -0.00515583 0.01081843
v -0.03797885 0.00513394 -0.00767182
v -0.03745215 0.01095364 -0.00426038
v -0.03578043 0.00748511 0.00326337
v -0.03623083 -0.02482345 0.00474536
v -0.03405681 -0.02126913 0.00148267
v -0.03571914 0.00181502 0.00962375
v -0.03371634 0.00940108 -0.01756584
v -0.03603579 0.01146067 -0.01066313
v -0.03398227 -0.02586924 0.01528416
v -0.03242504 -0.02337160 0.01896298
v -0.03336050 -0.01175498 0.01601399
v -0.03487517 -0.00557850 0.01733578
v -0.03315583 0.00903564 -0.02363928
v -0.03468728 0.01473660 -0.00893222
v -0.02961502 -0.01239570 -0.00980364
v -0.03450265 -0.00307431 0.01654561
v -0.03416417 0.00281157 -0.03101890
v -0.03528244 0.00599611 0.01178906
v -0.03364437 0.00710657 -0.02952832
v -0.03570662 0.01098374 0.00546679
v -0.03504031 0.00919479 0.01240849
v -0.03536233 0.01342957 0.00627529
v -0.03147770 -0.02967175 0.01583060
v -0.03132887 -0.01881721 0.01745742
v -0.03364005 0.00507283 0.01757003
v -0.02920286 0.01222558 -0.03006558
v -0.03464489 0.01163286 -0.00254401
v -0.03457371 0.01340359 -0.00144257
v -0.03045775 0.01379886 0.01071616
v -0.03432793 0.01708136 -0.00015857
v -0.03229861 0.01906535 -0.00008047
v -0.03196832 -0.02676946 0.00814443
v -0.03076512 -0.02361485 0.00326794
v -0.02612679 -0.00172810 -0.02450908
v -0.03146800 0.00125344 -0.02932568
v -0.03340985 0.00125214 0.01544224
v -0.03198883 -0.00716848 0.02153559
v -0.03215889 -0.00110719 0.01532621
v -0.03120528 0.00676590 0.01834496
v -0.02982678 0.01821344 -0.01361497
v -0.03222336 0.01703636 -0.00684687
v -0.03059081 0.01834577 -0.01686215
v -0.03119060 -0.00448224 0.01910558
v -0.02999802 0.00363858 -0.03374082
v -0.03012637 -0.02870070 0.01317665
v -0.02725571 -0.00626089 -0.01824033
v -0.03025117 -0.00097151 0.02223613
v -0.03087589 0.00558539 -0.03414327
v -0.03013835 0.02266944 -0.00669415
v -0.02600211 -0.03020239 0.02147887
v -0.02914884 -0.00728361 0.02298605
v -0.03044200 -0.00280000 0.01875750
v -0.02947133 0.00090551 0.02424850
v -0.02892659 0.00996406 -0.03336338
v -0.02665661 0.00984100 0.01826023
v -0.02754992 0.01510249 -0.02324392
v -0.02821649 -0.02030187 0.00142047
v -0.02459827 -0.02007871 0.02288840
v -0.02537599 -0.01377633 0.02607337
v -0.02868317 -0.00435337 0.02038537
v -0.02658027 0.02075739 0.00275716
v -0.02730702 0.02465528 -0.01063738
v -0.02701718 -0.03215665 0.01862607
v -0.02615591 -0.02532885 0.02355547
v -0.02455271 -0.01650041 -0.00376920
v -0.02829712 -0.00502152 0.02032007
v -0.02523714 0.00361102 0.02473322
v -0.02415376 0.01457944 -0.02895469
v -0.02846514 0.02030367 -0.01206048
v -0.02819353 -0.02517361 0.00685869
v -0.02810756 -0.00472765 0.01878853
v -0.02721614 -0.00586061 0.02256748
v -0.02690953 0.00014484 -0.02823058
v -0.02653846 0.00184379 -0.03276195
v -0.02447230 0.02070150 -0.02266206
v -0.02610656 -0.01081338 0.02700436
v -0.02578278 -0.00594945 0.02043134
v -0.02614575 -0.00587308 0.02461542
v -0.02741190 0.00633122 -0.03632989
v -0.02648418 0.00855174 -0.03687452
v -0.02299575 0.02438029 -0.01592151
v -0.02270658 0.02605205 -0.00623787
v -0.02328572 -0.03055642 0.01621121
v -0.02109285 -0.02378592 0.00650390
v -0.02687168 -0.02274343 0.00460392
v -0.02511245 -0.00885866 0.02547834
v -0.02442763 -0.00406803 0.02856173
v -0.02501796 0.00482591 -0.03583068
v -0.02532702 0.02093433 -0.01671256
v -0.02374855 0.02314913 -0.02108317
v -0.02559641 -0.00141245 0.02810311
v -0.02589680 -0.00649815 0.02198757
v -0.02326890 0.01825270 0.00988643
v -0.02376719 0.02701917 -0.01134362
v -0.02551406 -0.00655482 0.02139396
v -0.02564608 -0.00661968 0.02236068
v -0.02570625 -0.00669033 0.02295461
v -0.02555435 -0.00631355 0.02180144
v -0.02564270 -0.00645545 0.02237089
v -0.02570506 -0.00657877 0.02298420
v -0.02568040 -0.00658402 0.02367968
v -0.02108880 0.00950138 -0.03994297
v -0.02056355 0.01248109 -0.03874147
v -0.01876444 0.01570584 0.01598618
v -0.01915788 -0.02546202 0.02614550
v -0.01991529 -0.01158917 -0.01044974
v -0.01926246 -0.01089922 0.02861467
v -0.02010367 -0.00798921 0.02985865
v -0.01856048 0.02495564 -0.02204940
v -0.02193665 -0.00384784 0.03095349
v -0.02199030 0.00116642 -0.03073078
v -0.02206186 0.00314475 -0.03378668
v -0.02160414 0.01578207 -0.03517295
v -0.01835742 -0.03502642 0.02329511
v -0.01894430 -0.01322984 0.03111976
v -0.02025907 -0.00238994 0.03107527
v -0.02134509 0.00116285 -0.02847952
v -0.02221897 0.02756227 -0.01464272
v -0.02036673 0.00884547 0.02260307
v -0.01754335 0.00856284 -0.03866060
v -0.01815446 0.02588715 -0.00128531
v -0.01429255 -0.01790387 0.03118846
v -0.01347979 -0.00518185 -0.01886644
v -0.01878999 0.00254145 0.02837456
v -0.02020257 0.00465459 -0.03336255
v -0.01822551 0.02421535 -0.02003683
v -0.01884441 -0.02872620 0.02754885
v -0.01856534 -0.00945009 -0.01378992
v -0.01471016 0.02180869 -0.02872250
v -0.01739258 0.01960102 0.01134588
v -0.01873399 0.02275102 0.00522822
v -0.01434119 0.02802743 -0.01970286
v -0.01759333 -0.03284910 0.02563728
v -0.01876045 -0.02998604 0.01598403
v -0.00928422 -0.02379982 0.02930891
v -0.01478387 0.01761637 -0.03777348
v -0.01751678 0.02980610 -0.01551446
v -0.01679082 -0.02818899 0.01347268
v -0.01380948 -0.01766692 -0.00162386
v -0.01637519 0.00064188 -0.02726073
v -0.01352368 0.01236213 0.02178917
v -0.01031880 0.01885452 -0.03387124
v -0.01367083 -0.03277269 0.01990329
v -0.01463295 -0.00583646 0.03459375
v -0.01210494 0.00524978 -0.03356401
v -0.01424508 0.02619436 -0.02575233
v -0.01577477 0.02922601 -0.00976243
v -0.01389544 -0.01277350 0.03173543
v -0.01197271 -0.00329811 0.03403782
v -0.01400690 0.00777289 0.02589689
v -0.01238485 -0.03341550 0.02753006
v -0.01279225 -0.02882796 0.02935822
v -0.01444362 0.01218813 -0.04223103
v -0.01131262 0.02425572 0.00617179
v -0.01650984 -0.02850163 0.01550369
v -0.01158990 -0.00960763 0.03387310
v -0.01120009 0.00245504 0.03065801
v -0.01297948 0.02556127 -0.02198660
v -0.01543248 -0.02974474 0.01547887
v -0.00760739 -0.01177292 -0.00929309
v -0.00898681 0.01629190 -0.04114096
v -0.01074953 0.03150666 -0.01590049
v -0.01214338 -0.03602227 0.02489062
v -0.01194304 -0.02611136 0.01029951
v -0.00986420 0.01246895 -0.04344196
v -0.01073131 0.01758029 0.01672592
v -0.01120649 0.03140359 -0.01860417
v -0.01067070 0.02835361 -0.00288549
v -0.00997073 -0.01540294 0.03430695
v -0.00444972 -0.01276693 0.03301450
v -0.00896494 0.00133802 -0.02777634
v -0.00670937 0.01033472 -0.04052861
v -0.00730457 -0.00685418 0.03654490
v -0.00384131 -0.00313760 -0.02119198
v -0.00617202 0.03040127 -0.00756573
v -0.00663123 -0.02255616 0.00564968
v -0.00509864 -0.01683847 -0.00214365
v -0.00645888 0.02757933 -0.02561045
v -0.00603119 -0.03676720 0.02677175
v -0.00420794 -0.03028786 0.03120058
v -0.00741836 0.00730099 0.02777266
v -0.00356276 -0.03422549 0.02895409
v -0.00501069 -0.03120823 0.01874047
v -0.00432378 -0.02912922 0.01581656
v -0.00139706 0.02710263 -0.02446801
v -0.00589018 0.03006281 -0.02150014
v -0.00375882 0.01306249 0.02302767
v -0.00530239 0.01749558 0.01800478
v 0.00057541 -0.02585970 0.01061665
v -0.00434413 -0.02796512 0.03022896
v -0.00350445 -0.00998854 0.03556427
v -0.00479729 0.01270412 -0.04370842
v -0.00537923 0.01898783 -0.03960987
v -0.00488161 0.02194991 0.01187960
v -0.00223559 0.02761538 -0.02764992
v -0.00111389 0.03268190 -0.01962329
v -0.00300202 0.00162459 0.03236823
v -0.00583643 0.02362070 -0.03035750
v -0.00110757 0.02715725 0.00269000
v -0.00311888 0.01409861 -0.04366975
v -0.00163283 0.03215172 -0.01399220
v -0.00266075 -0.01886489 0.03364140
v 0.00148903 -0.01520962 0.03531198
v -0.00249694 -0.00792114 -0.01443502
v 0.00003293 0.00116923 -0.02702962
v -0.00217688 0.01931745 -0.03641117
v -0.00192407 -0.03613267 0.02530537
v 0.00144263 0.00826767 -0.03707161
v 0.00127995 0.02004730 0.01506122
v 0.00383721 0.02013504 -0.03370778
v -0.00170551 -0.00516285 0.03642259
v -0.00057609 0.00789420 0.02796395
v 0.00024093 0.02492697 -0.02983513
v -0.00093297 -0.03054213 0.01886379
v 0.00135077 -0.00689294 0.03714144
v 0.00037578 0.01339628 -0.04402988
v 0.00468104 0.01904230 -0.03963314
v 0.00078048 -0.03675352 0.02730623
v 0.00188214 -0.03002416 0.01683941
v 0.00790111 -0.02105981 0.00426484
v 0.00309058 0.02993615 -0.02176080
v 0.00380497 -0.03006074 0.03128661
v 0.00297981 -0.02337821 0.03054940
v 0.00479130 0.01273414 -0.04321011
v 0.00214328 0.01580104 -0.04256515
v 0.00351903 -0.03264133 0.02075806
v 0.00505070 -0.02681762 0.03010155
v 0.00325296 -0.01113145 -0.00963844
v 0.00434640 -0.01015183 0.03520060
v 0.00300494 -0.00156969 0.03443116
v 0.00330867 0.02997274 -0.00470720
v 0.00748665 -0.00611596 -0.01641308
v 0.00511383 0.02359633 0.00943031
v 0.00432087 -0.02809901 0.01459965
v 0.00584197 0.01408272 0.02198204
v 0.00536012 -0.03389833 0.02904647
v 0.00541678 -0.01582685 -0.00293785
v 0.00991996 -0.01248256 0.03274130
v 0.00628762 0.00639959 0.02887200
v 0.00478149 0.03271788 -0.01868896
v 0.00909008 -0.01809072 0.03278061
v 0.00991590 0.02751720 -0.02584269
v 0.00916548 -0.03608074 0.02658637
v 0.00731038 0.01363530 -0.04322635
v 0.00953829 0.01912610 0.01545591
v 0.00897245 0.03176539 -0.01401793
v 0.00936699 0.00125377 -0.02664139
v 0.00836151 0.02370513 -0.02943554
v 0.01128667 -0.02600855 0.01134008
v 0.00692617 -0.00498149 0.03610209
v 0.01192412 0.01596157 -0.04030491
v 0.00957664 0.02746682 0.00073189
v 0.01033199 0.03151475 -0.01853310
v 0.00737179 -0.00676655 0.03647169
v 0.01261303 0.00033183 0.03217811
v 0.01012574 0.02665702 -0.02320155
v 0.01098637 -0.03480871 0.02414795
v 0.00942635 0.00780880 -0.03595372
v 0.01092681 -0.03304440 0.02835957
v 0.01168784 -0.03049342 0.01810122
v 0.01389166 0.01925898 -0.03095510
v 0.01334792 0.02914418 -0.00567903
v 0.01047358 -0.02469181 0.02909338
v 0.01680383 -0.01240330 0.03201643
v 0.01026644 0.01210239 -0.04209975
v 0.01337818 0.01520838 0.01932717
v 0.01153955 0.02363058 0.00803905
v 0.01184660 0.02865924 -0.02011741
v 0.01400535 -0.01666171 -0.00134033
v 0.01293047 -0.00505563 0.03507378
v 0.01086661 0.01903385 -0.03787163
v 0.01220075 -0.00901753 0.03344776
v 0.01409426 0.01071497 0.02379992
v 0.01399340 0.01824237 -0.03429179
v 0.01711129 0.02249343 -0.02631138
v 0.01649969 -0.01051717 -0.00967390
v 0.01774895 -0.02735518 0.02856454
v 0.01793906 -0.02146390 0.02692991
v 0.01803946 -0.00315113 -0.01994371
v 0.01562570 0.00927958 -0.03771202
v 0.01486936 0.01210744 -0.04154730
v 0.01545808 -0.03455927 0.02552669
v 0.02200276 -0.02943098 0.02527360
v 0.01555500 0.02529524 -0.02104861
v 0.01706520 0.03025103 -0.01540482
v 0.01912014 0.01824349 0.01347667
v 0.01784293 0.02564587 -0.02161639
v 0.01684512 0.02683013 -0.01849887
v 0.01871125 0.01747419 -0.03505636
v 0.02381339 -0.03016349 0.01836643
v 0.02168372 -0.02387973 0.02579749
v 0.01856542 -0.00627272 0.03126744
v 0.01905289 0.00443315 -0.03056661
v 0.01926724 0.00464550 0.02738314
v 0.02127954 0.02522772 -0.00043566
v 0.02062048 -0.02729383 0.01357488
v 0.02050045 -0.02194477 0.00617262
v 0.01771895 -0.01757038 0.02922032
v 0.01744357 -0.00211146 0.03258912
v 0.01967538 0.02160775 0.00807053
v 0.01926002 -0.03358219 0.02298726
v 0.02081649 -0.00932701 0.02852408
v 0.01960877 0.01171738 -0.03975623
v 0.02070784 0.02479788 -0.02189783
v 0.01958147 0.02904722 -0.01072261
v 0.02148765 0.01001496 -0.03851701
v 0.02266472 0.01380025 -0.03609701
v 0.02272931 0.01600324 -0.02894735
v 0.02546130 -0.01686961 -0.00040118
v 0.02287055 0.00833788 0.02288392
v 0.02426427 -0.01504869 0.02564175
v 0.02076259 -0.00192075 0.03128551
v 0.02141329 0.02602638 -0.01512919
v 0.02350957 -0.01087207 0.02892206
v 0.02722106 -0.00634293 -0.01499009
v 0.02457559 -0.00644881 0.02468354
v 0.02375949 -0.01181186 -0.00748466
v 0.02710705 0.00016241 -0.02501339
v 0.02463874 0.01233273 0.01797240
v 0.02160891 0.02301155 -0.01725627
v 0.02146306 0.02866598 -0.01280059
v 0.02422805 0.00662373 -0.03359162
v 0.02595702 0.01876578 -0.02139150
v 0.02506675 0.02315259 -0.01808874
v 0.02482951 0.02353702 -0.01299123
v 0.02562778 0.02554066 -0.00542057
v 0.02487565 -0.03166507 0.02158916
v 0.02649843 -0.01856683 0.02212944
v 0.02418066 -0.00308173 0.02794980
v 0.02280551 0.00179689 -0.02664007
v 0.02449994 0.00274252 -0.03009432
v 0.02624390 0.02574721 -0.00902866
v 0.02632473 0.00117555 0.02688823
v 0.02416043 0.00118765 -0.02782249
v 0.02721293 0.00884952 -0.03575531
v 0.02840856 0.01786644 0.00824358
v 0.02339521 0.02046705 -0.01490440
v 0.02339764 0.02046467 -0.01481100
v 0.02336794 0.02092346 -0.01490602
v 0.02337109 0.02089338 -0.01477761
v 0.02347154 0.02203088 -0.01473489
v 0.02326545 0.02140059 -0.01475942
v 0.02437455 0.02169135 -0.01541693
v 0.02894363 -0.02386243 0.02272365
v 0.02618868 0.00441762 0.02475166
v 0.02898893 0.01354170 -0.03007129
v 0.02415403 0.02053318 -0.01392425
v 0.02413632 0.02038923 -0.01385650
v 0.02351300 0.02047775 -0.01486195
v 0.02403303 0.02084089 -0.01380728
v 0.02412972 0.02122892 -0.01471439
v 0.02403627 0.02123070 -0.01380625
v 0.02605186 -0.02460053 0.00882811
v 0.02904795 -0.02675085 0.01273637
v 0.02868591 0.01332998 -0.02432746
v 0.02417954 0.02063789 -0.01380364
v 0.02736883 0.02065609 -0.01338112
v 0.02586946 -0.02189977 0.00674277
v 0.02841713 -0.00809524 0.02514546
v 0.02756182 0.00477288 -0.03280508
v 0.02777423 -0.02277554 0.00598121
v 0.02919006 -0.02047959 0.02122766
v 0.02873545 -0.00112317 0.02240886
v 0.03111984 0.01930488 -0.01231314
v 0.03125583 -0.02861171 0.01669794
v 0.02945095 0.01913762 -0.00829967
v 0.02945741 -0.02897494 0.01917343
v 0.02959627 -0.02567199 0.00900771
v 0.03047033 -0.01356824 0.01905778
v 0.03441785 -0.01080214 -0.00834141
v 0.03011277 0.00172481 -0.02929737
v 0.02764702 0.01662246 -0.01059566
v 0.02765082 0.01661382 -0.01050018
v 0.02756687 0.01709481 -0.01056556
v 0.02757104 0.01705988 -0.01041849
v 0.02754921 0.01751720 -0.01044966
v 0.02887266 -0.02036299 0.00487122
v 0.03322607 0.00061811 -0.02477907
v 0.02775017 0.01664329 -0.01055070
v 0.02766940 0.01733231 -0.01040135
v 0.03052467 0.01577206 -0.01738283
v 0.03090620 -0.00252610 0.01944466
v 0.03044781 0.00481180 0.02168047
v 0.03059025 0.00776178 0.01924379
v 0.03129125 0.00900865 -0.03129825
v 0.03158150 -0.02242815 0.00545724
v 0.03791007 -0.01740505 0.00109929
v 0.03137673 0.00486258 -0.03210116
v 0.03052455 0.02197277 -0.00188546
v 0.03080039 0.02099564 -0.00415528
v 0.03473865 -0.02540183 0.00986542
v 0.03203959 0.01232731 0.01319791
v 0.03436250 -0.02177359 0.00631624
v 0.03370475 -0.00304019 0.01890834
v 0.03176944 0.00145948 0.01244109
v 0.03167656 0.00323686 0.00833758
v 0.03103385 0.00389071 0.00949402
v 0.03200725 0.00327981 0.01760912
v 0.03430579 0.00936280 -0.01975757
v 0.03223473 0.00086807 0.01512273
v 0.03238548 0.00248105 0.01472577
v 0.03187268 0.00171982 0.01378233
v 0.03173284 0.00265088 0.01250541
v 0.03137575 0.00785073 0.00277285
v 0.03224901 0.00557410 0.00852754
v 0.03203417 0.00844657 0.00429038
v 0.03659526 0.00874449 -0.02189986
v 0.03294185 0.01843994 0.00244125
v 0.03346174 -0.02512109 0.01677178
v 0.03514659 -0.01863052 0.01705271
v 0.03566436 -0.01367678 0.01326368
v 0.03420921 -0.00718797 0.01581195
v 0.03716958 -0.00356140 -0.01825417
v 0.03444168 0.00411452 -0.02922997
v 0.03308727 0.00321083 0.01177351
v 0.03217518 0.00221963 0.01306688
v 0.03317628 0.00927758 0.01519420
v 0.03367096 0.01441802 -0.00437460
v 0.03290720 0.00218564 0.01335698
v 0.03329784 0.00258333 0.01239461
v 0.03410345 0.00594534 0.00803348
v 0.03458172 0.00939558 -0.01437066
v 0.03399649 0.00999958 0.00343064
v 0.03344311 0.01464552 -0.00015547
v 0.03397701 0.01358983 0.00929098
v 0.03643315 0.00275818 0.01174718
v 0.03422318 0.00830515 0.01034536
v 0.03359408 0.00766137 0.00577746
v 0.03556519 0.01172586 -0.00891333
v 0.03700533 -0.02450264 0.01107851
v 0.03504335 -0.01006804 0.01263799
v 0.03739561 0.00601634 -0.02364999
v 0.03436999 0.00788492 0.00694387
v 0.03471580 0.00842588 0.00489446
v 0.03436872 0.01212985 0.00547442
v 0.03501645 0.01524567 -0.00747536
v 0.03711953 -0.00287858 0.00910604
v 0.03894095 0.00091087 -0.02402414
v 0.03682730 0.00771783 0.00512021
v 0.03690424 0.01183073 -0.00139089
v 0.03877848 -0.02039691 0.01042655
v 0.03860275 -0.00871305 0.00674223
v 0.03805701 -0.00409946 0.00444633
v 0.03875042 0.00159327 -0.00554364
v 0.03769665 0.00660657 -0.00327843
v 0.04060015 -0.02029141 0.00524305
v 0.04027309 -0.01259417 0.00904425
v 0.04170036 -0.01017871 -0.00884083
v 0.03812299 0.00405340 0.00403993
v 0.04060137 0.00379357 -0.01410576
v 0.04087388 -0.00463975 -0.00002706
v 0.04144738 -0.00031534 -0.01780194
v 0.04147681 -0.01357547 0.00686458
v 0.04298965 -0.00212998 -0.00605770
v 0.04263843 -0.00839085 0.00263374
v 0.04195543 -0.00413119 -0.01733194
v 0.04335017 -0.01172190 -0.00062178
v 0.04326829 -0.01452487 -0.00238336
v 0.04380821 -0.00981766 -0.00846543
v 0.04361823 -0.00501328 -0.00885224
f 43 34 33
f 153 128 147
f 151 100 120
f 406 365 399
f 453 452 432
f 333 334 390
f 223 222 169
f 452 433 432
f 310 276 331
f 483 430 424
f 124 84 115
f 31 38 32
f 67 65 57
f 187 194 218
f 464 470 472
f 148 111 149
f 366 353 400
f 216 200 244
f 256 220 221
f 195 215 146
f 71 36 72
f 369 403 362
f 416 409 410
f 197 143 165
f 110 71 72
f 248 234 186
f 319 338 364
f 178 156 187
f 414 346 424
f 448 406 399
f 352 316 355
f 478 467 483
f 417 412 413
f 434 433 441
f 221 180 201
f 347 310 331
f 323 304 282
f 239 172 260
f 414 423 398
f 245 229 261
f 430 428 423
f 450 355 415
f 51 45 39
f 206 207 185
f 431 449 474
f 401 361 394
f 466 418 401
f 42 70 41
f 14 7 6
f 272 276 310
f 254 262 237
f 497 493 489
f 307 309 329
f 21 8 15
f 330 284 317
f 39 45 38
f 468 448 479
f 283 238 268
f 463 458 452
f 218 234 249
f 186 153 181
f 247 254 243
f 94 42 22
f 193 145 185
f 425 397 372
f 93 50 44
f 56 91 85
f 278 300 315
f 331 336 349
f 348 335 315
f 339 309 275
f 120 100 82
f 60 35 82
f 454 429 421
f 73 55 43
f 336 292 307
f 168 98 130
f 444 469 383
f 71 154 177
f 457 453 440
f 6 7 4
f 201 121 213
f 47 46 87
f 159 172 239
f 186 181 210
f 495 485 496
f 40 39 34
f 141 66 92
f 217 219 259
f 15 26 35
f 439 432 440
f 139 125 116
f 325 350 321
f 308 288 254
f 405 398 423
f 192 175 196
f 294 297 327
f 185 152 206
f 282 304 270
f 350 322 358
f 356 323 303
f 80 53 74
f 477 482 466
f 13 20 11
f 64 51 39
f 176 121 102
f 361 360 341
f 482 459 466
f 283 277 238
f 491 489 487
f 25 56 29
f 86 78 67
f 472 460 461
f 482 486 481
f 461 455 403
f 240 207 206
f 418 392 360
f 474 468 480
f 219 217 188
f 438 456 440
f 194 186 234
f 348 315 365
f 350 357 321
f 196 175 201
f 309 266 275
f 238 233 199
f 348 365 406
f 123 113 152
f 185 145 144
f 170 151 188
f 57 40 55
f 2 1 8
f 188 164 170
f 378 376 380
f 437 456 439
f 281 253 262
f 462 472 445
f 305 321 293
f 97 89 108
f 469 489 475
f 142 164 189
f 94 70 42
f 322 350 325
f 424 346 407
f 73 75 89
f 459 481 487
f 463 474 486
f 180 171 196
f 313 265 269
f 250 235 232
f 412 409 411
f 368 330 359
f 355 368 408
f 461 403 427
f 164 87 170
f 270 236 231
f 285 298 247
f 162 149 125
f 414 398 395
f 468 479 480
f 14 18 7
f 466 459 418
f 172 189 227
f 317 302 318
f 421 420 454
f 490 483 494
f 76 62 90
f 260 227 264
f 49 33 37
f 381 314 320
f 116 125 81
f 12 14 6
f 121 176 213
f 109 103 88
f 177 154 182
f 420 400 435
f 90 84 124
f 215 232 183
f 82 107 121
f 252 210 228
f 81 54 85
f 10 3 11
f 407 352 450
f 355 367 371
f 235 179 166
f 179 230 173
f 428 391 405
f 31 32 28
f 460 443 441
f 455 461 460
f 372 343 340
f 47 87 101
f 405 390 398
f 4 13 11
f 137 129 136
f 191 205 158
f 183 112 127
f 399 328 381
f 451 415 408
f 477 466 473
f 170 87 151
f 349 307 329
f 356 421 429
f 64 39 40
f 163 146 126
f 397 368 359
f 238 199 212
f 476 470 465
f 79 93 44
f 174 131 119
f 301 339 275
f 95 101 142
f 421 382 420
f 200 180 244
f 436 392 418
f 462 373 429
f 105 150 63
f 155 169 118
f 381 446 447
f 225 203 224
f 217 189 188
f 209 202 229
f 90 62 84
f 193 185 207
f 106 77 78
f 146 183 127
f 329 339 353
f 82 35 69
f 292 267 287
f 9 1 3
f 392 383 345
f 77 79 51
f 337 289 304
f 59 57 58
f 467 402 428
f 276 234 267
f 181 147 145
f 487 444 436
f 236 205 191
f 269 284 316
f 272 246 224
f 301 335 348
f 22 16 9
f 319 280 294
f 53 33 49
f 36 20 54
f 101 87 164
f 282 270 246
f 259 227 217
f 236 191 231
f 463 437 419
f 469 451 422
f 97 103 109
f 167 130 141
f 158 184 119
f 69 35 41
f 22 9 27
f 136 129 135
f 105 63 50
f 314 296 320
f 447 448 399
f 449 406 468
f 355 371 368
f 342 322 299
f 364 320 319
f 6 4 2
f 401 360 361
f 230 198 173
f 21 15 35
f 97 108 103
f 453 432 456
f 110 72 111
f 227 189 217
f 111 72 81
f 355 316 367
f 326 308 311
f 438 440 452
f 250 247 235
f 329 353 366
f 138 109 137
f 94 102 121
f 140 117 91
f 445 472 461
f 200 151 180
f 472 470 460
f 274 214 265
f 194 153 186
f 220 180 221
f 312 298 285
f 352 313 316
f 27 36 71
f 413 411 416
f 153 147 181
f 32 14 28
f 123 109 88
f 471 465 443
f 450 352 355
f 169 163 118
f 115 123 144
f 260 172 227
f 396 431 419
f 297 256 286
f 473 466 401
f 378 380 357
f 269 242 284
f 356 373 323
f 494 495 496
f 477 473 455
f 426 369 363
f 34 39 38
f 27 10 19
f 66 98 68
f 395 398 390
f 156 141 92
f 346 354 407
f 379 376 378
f 37 12 48
f 471 460 465
f 166 105 112
f 476 465 458
f 404 364 402
f 413 412 411
f 416 410 412
f 445 461 427
f 49 37 48
f 74 49 48
f 211 177 208
f 224 249 276
f 137 109 129
f 252 248 210
f 241 197 160
f 31 28 37
f 269 211 242
f 26 16 22
f 314 259 296
f 424 485 495
f 96 61 95
f 275 240 301
f 102 52 143
f 327 297 333
f 84 62 73
f 306 257 274
f 237 198 230
f 244 180 220
f 463 452 457
f 222 215 195
f 66 59 58
f 92 76 104
f 251 220 256
f 40 34 43
f 442 458 433
f 445 427 426
f 332 342 299
f 67 78 65
f 401 394 403
f 183 166 112
f 477 455 460
f 191 158 168
f 288 281 262
f 36 54 72
f 303 272 310
f 211 208 242
f 391 333 390
f 318 302 281
f 48 96 74
f 343 317 318
f 388 380 386
f 271 226 286
f 199 174 184
f 446 467 478
f 347 331 382
f 380 361 357
f 290 277 283
f 237 253 229
f 222 195 169
f 73 43 75
f 7 13 4
f 351 339 301
f 68 86 67
f 44 30 38
f 61 47 101
f 324 341 279
f 444 487 469
f 162 157 182
f 169 195 163
f 378 357 350
f 361 341 324
f 286 257 334
f 480 479 488
f 30 25 18
f 312 285 279
f 174 155 131
f 74 53 49
f 294 280 244
f 104 90 128
f 475 415 451
f 395 334 346
f 381 320 404
f 279 232 222
f 92 66 76
f 406 449 431
f 245 182 209
f 103 108 80
f 319 294 338
f 202 157 139
f 32 30 14
f 316 284 330
f 320 296 319
f 242 182 245
f 56 85 54
f 301 278 335
f 150 91 63
f 400 419 435
f 289 268 236
f 277 290 258
f 23 24 17
f 364 338 327
f 486 480 481
f 402 327 391
f 116 81 85
f 84 73 89
f 447 478 484
f 119 86 68
f 242 208 182
f 322 325 305
f 27 19 36
f 367 368 371
f 91 117 85
f 223 204 233
f 219 216 255
f 76 90 104
f 4 11 3
f 224 178 218
f 173 150 179
f 387 384 389
f 241 211 269
f 254 237 230
f 421 356 347
f 126 146 127
f 21 35 46
f 205 184 158
f 172 142 189
f 198 190 140
f 287 291 307
f 295 245 302
f 279 285 250
f 87 100 151
f 96 48 61
f 440 434 442
f 23 21 47
f 462 445 373
f 239 206 159
f 184 174 119
f 142 101 164
f 144 123 152
f 484 448 447
f 84 97 109
f 476 471 470
f 78 77 64
f 299 268 289
f 378 388 379
f 258 222 223
f 345 311 298
f 438 453 456
f 403 394 362
f 496 485 493
f 241 160 211
f 340 318 288
f 300 260 264
f 23 17 21
f 9 3 10
f 115 138 123
f 256 263 251
f 99 118 106
f 465 442 443
f 10 11 19
f 84 109 115
f 435 437 438
f 306 313 354
f 264 259 314
f 187 161 194
f 421 347 382
f 331 292 336
f 442 433 452
f 463 431 474
f 349 366 370
f 61 23 47
f 224 203 178
f 308 254 247
f 164 188 189
f 487 436 459
f 119 68 98
f 225 231 203
f 393 387 389
f 75 53 80
f 444 383 392
f 224 246 225
f 258 293 222
f 344 340 288
f 386 375 377
f 459 436 418
f 345 383 326
f 231 191 203
f 302 261 281
f 48 24 61
f 420 435 454
f 484 490 492
f 396 339 351
f 4 3 2
f 198 202 190
f 135 129 114
f 203 141 178
f 359 330 317
f 451 408 425
f 2 3 1
f 121 107 122
f 69 41 70
f 457 452 453
f 99 155 118
f 456 457 440
f 55 40 43
f 442 441 443
f 244 220 263
f 5 2 8
f 354 313 352
f 296 273 280
f 417 413 416
f 180 196 201
f 140 139 117
f 427 403 369
f 396 353 339
f 187 156 161
f 174 169 155
f 301 240 278
f 303 282 272
f 329 309 339
f 358 322 342
f 312 345 298
f 439 440 453
f 24 23 61
f 470 471 443
f 489 493 475
f 251 263 220
f 139 116 117
f 253 237 262
f 168 158 98
f 341 312 279
f 383 344 326
f 162 148 149
f 240 206 239
f 267 252 287
f 128 124 147
f 386 374 375
f 294 244 263
f 191 168 167
f 422 425 372
f 246 270 231
f 137 136 134
f 44 50 30
f 326 288 308
f 469 422 383
f 45 44 38
f 178 187 218
f 213 176 214
f 166 179 105
f 356 310 347
f 390 334 395
f 233 204 199
f 493 485 450
f 30 50 25
f 437 439 438
f 362 350 369
f 204 169 174
f 276 267 292
f 442 434 441
f 474 480 486
f 82 69 107
f 167 168 130
f 152 96 159
f 113 74 96
f 373 332 337
f 38 30 32
f 295 302 317
f 279 222 293
f 351 348 396
f 284 295 317
f 487 489 469
f 53 43 33
f 258 305 293
f 429 454 462
f 120 171 180
f 100 60 82
f 429 373 356
f 298 311 247
f 178 141 156
f 404 320 364
f 303 310 356
f 212 184 205
f 30 18 14
f 430 423 414
f 138 137 134
f 192 171 175
f 5 8 17
f 464 458 470
f 380 376 386
f 396 419 353
f 267 248 252
f 291 287 252
f 296 280 319
f 134 109 123
f 469 475 451
f 63 56 25
f 396 406 431
f 26 15 16
f 243 254 230
f 150 173 140
f 48 12 24
f 291 309 307
f 232 166 183
f 380 388 394
f 324 279 293
f 145 115 144
f 494 496 497
f 236 268 212
f 414 395 346
f 440 432 434
f 463 457 456
f 300 264 314
f 341 360 312
f 228 193 207
f 322 305 290
f 475 493 450
f 176 102 143
f 159 96 95
f 199 204 174
f 290 305 258
f 52 83 165
f 435 438 464
f 94 22 102
f 411 409 416
f 438 439 453
f 408 368 397
f 370 400 420
f 467 428 483
f 276 249 234
f 252 266 291
f 140 91 150
f 360 392 345
f 370 331 349
f 291 266 309
f 186 210 248
f 393 389 384
f 306 274 265
f 412 410 409
f 138 134 123
f 340 343 318
f 334 257 306
f 12 6 5
f 465 460 441
f 222 232 215
f 152 159 206
f 104 153 161
f 219 188 216
f 229 202 237
f 388 386 377
f 175 120 121
f 422 372 344
f 87 60 100
f 275 207 240
f 476 477 460
f 225 246 231
f 17 8 21
f 447 399 381
f 111 81 125
f 430 414 424
f 435 419 437
f 406 448 468
f 434 432 433
f 26 22 42
f 447 446 478
f 397 359 372
f 306 265 313
f 161 153 194
f 266 228 207
f 218 194 234
f 455 401 403
f 268 238 212
f 121 122 94
f 182 157 209
f 130 98 66
f 292 287 307
f 147 124 145
f 351 301 348
f 426 427 369
f 456 432 439
f 135 114 132
f 273 219 255
f 181 145 193
f 332 299 289
f 34 31 33
f 256 271 286
f 75 43 53
f 226 257 286
f 485 407 450
f 328 314 381
f 95 142 172
f 159 95 172
f 303 323 282
f 373 337 323
f 332 363 342
f 160 83 71
f 338 294 327
f 490 478 483
f 363 369 342
f 470 443 460
f 326 344 288
f 214 176 197
f 154 148 162
f 112 105 93
f 93 105 50
f 197 176 143
f 373 445 426
f 224 218 249
f 247 243 179
f 122 70 94
f 245 209 229
f 214 197 265
f 349 336 307
f 68 67 59
f 285 247 250
f 173 198 140
f 425 408 397
f 113 96 152
f 470 442 465
f 24 5 17
f 255 216 244
f 203 191 167
f 360 345 312
f 6 2 5
f 213 214 257
f 335 278 315
f 431 463 419
f 387 385 384
f 127 112 79
f 252 228 266
f 473 401 455
f 281 261 253
f 50 63 25
f 160 71 177
f 446 404 402
f 182 154 162
f 163 126 118
f 272 282 246
f 210 193 228
f 162 125 157
f 34 38 31
f 58 55 62
f 297 263 256
f 95 61 101
f 462 464 472
f 417 416 412
f 99 106 78
f 106 126 77
f 393 384 385
f 257 214 274
f 304 289 270
f 470 458 442
f 69 70 107
f 195 146 163
f 265 241 269
f 476 463 486
f 77 127 79
f 212 199 184
f 391 390 405
f 377 375 374
f 331 276 292
f 120 82 121
f 116 85 117
f 78 64 65
f 488 492 491
f 359 343 372
f 18 13 7
f 181 193 210
f 484 492 479
f 133 132 129
f 79 44 45
f 405 423 428
f 370 420 382
f 223 169 204
f 464 452 458
f 160 177 211
f 57 64 40
f 125 149 111
f 376 374 386
f 396 348 406
f 492 490 494
f 46 60 87
f 365 328 399
f 346 306 354
f 197 241 265
f 480 488 481
f 52 27 83
f 112 93 79
f 379 377 376
f 273 255 280
f 19 20 36
f 136 135 133
f 235 247 179
f 190 139 140
f 313 269 316
f 89 75 80
f 476 486 477
f 402 391 428
f 151 120 180
f 63 91 56
f 424 407 485
f 92 104 156
f 491 497 489
f 157 125 139
f 388 377 379
f 58 57 55
f 26 42 41
f 333 297 286
f 134 129 109
f 18 25 13
f 483 495 494
f 321 324 293
f 271 221 226
f 333 286 334
f 58 62 76
f 192 196 171
f 383 422 344
f 492 494 491
f 56 54 20
f 221 201 226
f 373 426 332
f 29 20 13
f 25 29 13
f 226 201 213
f 415 355 408
f 253 261 229
f 264 227 259
f 190 202 139
f 156 104 161
f 284 242 245
f 143 52 165
f 362 394 388
f 134 133 129
f 197 165 160
f 381 404 446
f 367 330 368
f 77 51 64
f 294 263 297
f 497 496 493
f 279 250 232
f 28 14 12
f 277 258 233
f 123 88 113
f 254 288 262
f 492 488 479
f 332 426 363
f 436 444 392
f 484 478 490
f 131 86 119
f 165 83 160
f 484 479 448
f 115 109 138
f 148 110 111
f 377 374 376
f 369 358 342
f 66 68 59
f 325 321 305
f 329 366 349
f 266 207 275
f 359 317 343
f 171 120 175
f 136 133 134
f 243 230 179
f 135 132 133
f 402 364 327
f 494 497 491
f 118 126 106
f 108 89 80
f 400 353 419
f 289 236 270
f 86 99 78
f 62 55 73
f 52 22 27
f 235 166 232
f 132 114 129
f 201 175 121
f 259 219 273
f 131 155 99
f 84 89 97
f 236 212 205
f 358 369 350
f 362 388 378
f 361 324 357
f 35 26 41
f 322 290 283
f 278 239 260
f 141 130 66
f 465 441 433
f 476 460 471
f 370 366 400
f 393 385 387
f 20 19 11
f 318 281 288
f 240 239 278
f 154 110 148
f 354 352 407
f 382 331 370
f 450 415 475
f 258 223 233
f 483 424 495
f 452 440 442
f 454 464 462
f 215 183 146
f 88 80 74
f 271 256 221
f 328 300 314
f 131 99 86
f 259 273 296
f 323 337 304
f 337 332 289
f 322 283 299
f 126 127 77
f 8 1 15
f 71 110 154
f 463 476 458
f 284 245 295
f 83 27 71
f 327 333 391
f 203 167 141
f 428 430 483
f 124 115 145
f 344 372 340
f 72 54 81
f 394 361 380
f 188 200 216
f 104 128 153
f 237 202 198
f 16 15 1
f 24 12 5
f 302 245 261
f 103 80 88
f 449 468 474
f 209 157 202
f 488 491 481
f 128 90 124
f 277 233 238
f 299 283 268
f 179 150 105
f 311 308 247
f 463 456 437
f 454 435 464
f 57 65 64
f 47 21 46
f 345 326 311
f 76 66 58
f 46 35 60
f 438 452 464
f 482 481 459
f 185 144 152
f 208 177 182
f 267 234 248
f 278 260 300
f 59 67 57
f 102 22 52
f 401 418 360
f 280 255 244
f 188 151 200
f 158 119 98
f 272 224 276
f 446 402 467
f 315 300 328
f 477 486 482
f 451 425 422
f 33 31 37
f 29 56 20
f 362 378 350
f 328 365 315
f 88 74 113
f 458 465 433
f 491 487 481
f 334 306 346
f 37 28 12
f 226 213 257
f 51 79 45
f 122 107 70
f 324 321 357
f 316 330 367
f 16 1 9
f 27 9 10

