# https://github.com/mikedh/trimesh
v -0.02323225 -0.00340748 -0.00143400
v -0.02318503 -0.00356925 0.01471919
v -0.02078595 0.00162862 -0.01223289
v -0.02237032 0.00874279 0.00724606
v -0.02292753 0.00594561 0.01793873
v -0.01829631 -0.01363923 0.00321162
v -0.02242057 -0.00006205 0.02102359
v -0.02068954 -0.01201805 -0.00570093
v -0.02104273 0.00594518 0.02335407
v -0.02113394 0.01205699 0.01796617
v -0.01815201 -0.00868425 0.02022798
v -0.01925814 0.01106543 -0.00808081
v -0.01946662 -0.00995367 -0.01636016
v -0.01933726 -0.00046504 0.02671055
v -0.01889742 0.01600216 0.00234554
v -0.01753646 -0.00064252 -0.02148372
v -0.01919835 0.01724689 0.01168752
v -0.01782414 0.00534582 0.02734169
v -0.01624950 0.01667857 0.02188200
v -0.01627316 0.02002201 0.01650119
v -0.01623636 -0.01156328 -0.02312901
v -0.01546890 0.02135951 0.00700621
v -0.01737361 -0.01617507 -0.01672211
v -0.01540012 0.00639572 -0.02211200
v -0.01371208 -0.01044003 0.02540084
v -0.01221435 -0.00438191 0.03068662
v -0.01429847 0.02014348 -0.00137816
v -0.01388530 -0.02022764 -0.01545932
v -0.01405322 -0.01748229 -0.02158639
v -0.01374936 0.01275254 0.02579457
v -0.01413901 -0.00531705 -0.02714053
v -0.01374216 0.01435653 -0.01541221
v -0.01411274 -0.01627734 0.01198167
v -0.01329400 0.00270140 0.03035453
v -0.01153625 0.00331555 -0.02894482
v -0.01269374 -0.02092196 -0.00291535
v -0.00948023 -0.01764959 0.01456101
v -0.01072354 -0.01080605 -0.02879952
v -0.00958839 0.01155292 -0.02408897
v -0.00974734 0.01925829 -0.00900963
v -0.00836830 0.02381069 0.01944485
v -0.00860538 -0.02377127 -0.01899577
v -0.00639934 0.02509602 0.00366425
v -0.00853302 -0.01858298 -0.02554267
v -0.00575269 -0.00130240 0.03276092
v -0.00966384 0.02539177 0.01229005
v -0.00779614 -0.02329592 -0.00144085
v -0.00355858 0.00695623 0.03003483
v -0.00929230 -0.02446134 -0.01243273
v -0.00782734 -0.01174613 0.02754960
v -0.00370014 0.01763944 -0.01836494
v -0.00729332 -0.00336923 -0.03196369
v -0.00511987 0.00964373 -0.02904459
v -0.00121049 -0.02488236 -0.02040774
v -0.00545764 0.00262339 -0.03240713
v -0.00180988 -0.01782696 0.01698069
v -0.00302212 -0.00962048 -0.03079988
v 0.00031183 0.02173463 0.02377952
v -0.00325139 -0.00881552 0.03088079
v -0.00139463 -0.00499578 -0.03230550
v -0.00258697 0.02602727 0.01751998
v 0.00157036 -0.02519563 -0.00301855
v -0.00191478 -0.02669139 -0.01537474
v 0.00030507 0.02716647 0.01155146
v 0.00329814 -0.01934382 -0.02588797
v 0.00010863 -0.01466124 -0.02860532
v 0.00138940 0.00622671 -0.03235171
v -0.00134545 0.02284313 -0.00708662
v -0.00151382 -0.01338882 0.02689400
v 0.00072670 0.01413239 -0.02612487
v 0.00497488 -0.00935287 0.02907436
v 0.00156932 -0.00352764 0.03283580
v 0.00065817 0.02569147 0.00300973
v 0.00300466 -0.01110237 -0.03354201
v 0.00695324 0.00451229 0.03185762
v 0.00367845 0.01732826 -0.01910114
v 0.00536051 -0.01673155 0.02012869
v 0.00392511 -0.00014708 -0.03303548
v 0.00369100 0.02254214 -0.00464426
v 0.00509873 0.01272555 0.02908813
v 0.00732915 -0.02189253 0.00851209
v 0.00646578 -0.02607255 -0.01396227
v 0.00607976 0.01185559 -0.02788060
v 0.00788768 0.02289174 0.02109200
v 0.00711268 -0.00648215 -0.03104972
v 0.01034286 0.02145421 0.00343231
v 0.00878572 -0.02464192 -0.00381576
v 0.00833265 -0.01238428 -0.02865984
v 0.00911692 0.00600845 -0.03079914
v 0.01296061 0.01312943 -0.01764226
v 0.01031266 0.02346095 0.01626973
v 0.00929621 0.00028581 0.03145296
v 0.00961209 -0.02322595 -0.01927881
v 0.01238825 -0.01937205 -0.02306157
v 0.01061724 0.01501563 0.02710072
v 0.01068638 -0.01131966 0.02311590
v 0.01286723 0.00011219 -0.03053751
v 0.01190169 -0.01749896 0.01278459
v 0.01433526 0.00801114 -0.02623767
v 0.01276920 -0.02166616 0.00250756
v 0.01536791 -0.02136375 -0.00699271
v 0.01295231 -0.00393077 0.02738055
v 0.01486078 0.00782955 0.02698422
v 0.01575303 0.01620652 0.02186086
v 0.01590238 -0.00583763 -0.02753664
v 0.01657983 0.01789035 0.00542975
v 0.01547024 -0.02080443 -0.01481731
v 0.01511123 -0.01172782 0.01627916
v 0.01593632 0.01901518 0.01719492
v 0.01907306 -0.00430329 0.01602454
v 0.01670536 0.00343656 0.02502424
v 0.01618030 -0.01397018 -0.02375713
v 0.01864950 -0.01565477 0.00244790
v 0.01934661 0.01156349 -0.01090350
v 0.01749062 0.00178457 -0.02678604
v 0.01801300 -0.01662942 -0.01839589
v 0.01914432 -0.00906325 -0.02180202
v 0.01934495 0.00884536 0.01970552
v 0.01984946 0.01445542 0.01360748
v 0.02079506 0.00098871 -0.02122139
v 0.02041730 0.00636166 -0.01942303
v 0.01996590 -0.01589320 -0.01264761
v 0.02221710 0.00366513 0.00896070
v 0.02178242 0.00810475 -0.00099711
v 0.02153584 -0.00822570 -0.01613771
v 0.02216700 -0.00870329 -0.00206988
v 0.02329438 -0.00292024 -0.00640003
v 0.02317707 0.00243423 -0.01152753
f 63 49 42
f 7 2 11
f 60 57 52
f 14 25 26
f 101 87 82
f 90 83 76
f 58 48 80
f 8 28 6
f 62 47 49
f 33 36 47
f 30 18 34
f 16 35 31
f 19 9 18
f 77 69 56
f 72 59 71
f 13 16 21
f 123 110 126
f 40 51 32
f 38 44 29
f 37 25 33
f 112 88 105
f 82 54 93
f 114 121 90
f 106 114 86
f 51 70 53
f 68 51 40
f 83 89 67
f 47 36 49
f 67 55 53
f 87 62 82
f 125 117 120
f 45 26 59
f 23 21 29
f 57 66 44
f 108 98 113
f 56 62 81
f 27 32 12
f 19 10 9
f 8 13 23
f 105 88 85
f 71 96 102
f 64 73 43
f 124 128 121
f 34 26 45
f 62 63 82
f 71 69 77
f 27 12 15
f 46 43 22
f 3 16 13
f 79 76 68
f 5 4 2
f 114 90 86
f 32 24 12
f 117 116 112
f 16 31 21
f 71 59 69
f 78 60 55
f 96 77 98
f 77 56 81
f 58 61 41
f 60 74 57
f 42 49 28
f 113 122 126
f 9 7 14
f 103 118 104
f 54 42 44
f 110 113 126
f 121 99 90
f 99 97 89
f 20 22 17
f 8 23 28
f 55 52 35
f 62 49 63
f 9 5 7
f 14 11 25
f 88 66 74
f 117 112 105
f 84 91 64
f 121 120 115
f 122 116 125
f 108 113 110
f 26 50 59
f 119 118 123
f 54 44 65
f 7 5 2
f 104 109 84
f 111 123 118
f 4 1 2
f 95 103 104
f 107 82 93
f 4 3 1
f 19 18 30
f 41 19 30
f 93 65 94
f 76 83 70
f 56 37 47
f 121 115 99
f 101 82 107
f 63 54 82
f 37 33 47
f 39 53 35
f 116 94 112
f 103 75 92
f 99 83 90
f 102 110 111
f 31 38 21
f 58 30 48
f 72 45 59
f 112 94 88
f 33 11 6
f 102 92 71
f 7 11 14
f 60 52 55
f 73 86 79
f 13 21 23
f 95 75 103
f 10 4 5
f 34 18 26
f 58 84 61
f 81 62 87
f 61 64 46
f 51 76 70
f 1 13 8
f 80 48 75
f 43 40 27
f 109 106 91
f 69 50 56
f 51 39 32
f 17 22 15
f 91 86 64
f 20 17 10
f 84 109 91
f 24 16 3
f 104 84 95
f 27 40 32
f 103 92 102
f 100 81 87
f 50 37 56
f 19 41 20
f 10 17 4
f 54 65 93
f 106 86 91
f 83 67 53
f 2 8 6
f 85 88 74
f 70 83 53
f 120 105 115
f 97 105 85
f 95 80 75
f 75 45 72
f 33 6 36
f 121 128 120
f 12 3 4
f 124 127 128
f 73 68 43
f 52 31 35
f 3 13 1
f 18 9 14
f 12 24 3
f 98 81 100
f 58 80 95
f 113 100 101
f 22 27 15
f 88 65 66
f 32 39 24
f 92 72 71
f 22 43 27
f 2 1 8
f 76 51 68
f 46 20 41
f 99 89 83
f 39 35 24
f 86 73 64
f 85 74 60
f 50 25 37
f 16 24 35
f 42 29 44
f 84 64 61
f 48 34 45
f 52 38 31
f 128 125 120
f 96 98 108
f 104 118 119
f 116 107 94
f 78 85 60
f 109 104 119
f 18 14 26
f 17 15 4
f 25 11 33
f 99 115 97
f 57 74 66
f 102 108 110
f 2 6 11
f 123 126 127
f 89 78 67
f 61 46 41
f 57 38 52
f 96 71 77
f 90 76 79
f 64 43 46
f 23 29 28
f 86 90 79
f 36 28 49
f 127 125 128
f 92 75 72
f 103 102 111
f 67 78 55
f 51 53 39
f 59 50 69
f 6 28 36
f 109 119 106
f 9 10 5
f 30 34 48
f 106 124 114
f 55 35 53
f 97 85 78
f 126 125 127
f 126 122 125
f 66 65 44
f 113 101 122
f 101 107 122
f 123 124 119
f 124 123 127
f 56 47 62
f 107 93 94
f 95 84 58
f 111 110 123
f 115 105 97
f 63 42 54
f 122 107 116
f 103 111 118
f 75 48 45
f 29 21 38
f 88 94 65
f 89 97 78
f 124 121 114
f 125 116 117
f 68 40 43
f 50 26 25
f 79 68 73
f 19 20 10
f 120 117 105
f 100 87 101
f 58 41 30
f 57 44 38
f 15 12 4
f 77 81 98
f 98 100 113
f 42 28 29
f 119 124 106
f 102 96 108
f 46 22 20

