# https://github.com/mikedh/trimesh
v -0.05030027 -0.00814306 0.00293876
v -0.04980992 -0.00048278 -0.00490998
v -0.04990299 0.00536533 -0.00563404
v -0.04704157 -0.01625334 0.00603692
v -0.04735741 0.00134508 0.00058127
v -0.04327031 -0.01569189 0.01201202
v -0.04370487 -0.00947647 0.00087243
v -0.04486468 0.00745488 -0.01098136
v -0.04703741 0.01138265 -0.01244199
v -0.04579466 0.01598748 -0.01025511
v -0.04467031 -0.02162247 0.01319425
v -0.04124495 -0.00696191 0.00693510
v -0.04350567 0.01825158 -0.01625917
v -0.03171838 0.01069128 -0.01278933
v -0.03686737 0.00406375 -0.00141238
v -0.04213794 -0.02546416 0.01374267
v -0.02680826 -0.02532619 0.01274813
v -0.03690970 -0.03080980 0.01945855
v -0.03914756 0.02429214 -0.01538451
v -0.04003476 0.01787341 -0.01822130
v -0.03079730 -0.02759857 0.02128641
v -0.03703525 0.02684201 -0.01922741
v -0.03520881 -0.01274771 0.00957751
v 0.00263134 -0.00177296 -0.00272981
v -0.03261685 0.02811367 -0.02356026
v -0.03147398 -0.03402521 0.01947757
v -0.02726627 0.00257312 -0.00050232
v -0.02983757 0.02406330 -0.01459968
v -0.03302333 0.02856984 -0.01823091
v -0.02876247 0.02579524 -0.02387002
v -0.02762363 -0.03570001 0.02442151
v -0.02670122 0.03487565 -0.02367316
v -0.01518027 -0.01183367 0.00929582
v -0.01290047 -0.02694538 0.02128008
v -0.02239853 0.03338386 -0.02765724
v -0.02599083 0.03438554 -0.02155694
v -0.01665654 -0.04099199 0.02714366
v -0.01757673 0.02704815 -0.02368509
v 0.00375061 0.02128417 -0.01915424
v -0.01822045 -0.03730432 0.02747740
v -0.00787589 0.01783027 -0.00900112
v -0.01793258 0.03188511 -0.02793348
v -0.01289758 0.03549938 -0.02187878
v -0.01947306 0.03864802 -0.02639280
v -0.01484206 0.04002637 -0.02529200
v -0.00989362 0.04072541 -0.02804403
v -0.00976023 0.03757670 -0.02951051
v -0.00905054 -0.04249218 0.02707546
v -0.00773493 -0.03687377 0.02841421
v -0.00474536 -0.04254795 0.02875767
v 0.00243589 -0.03040091 0.01762605
v 0.00136268 0.03514488 -0.03006520
v 0.00359867 0.04085170 -0.02949278
v 0.00834949 0.00271059 0.00086323
v -0.00557810 0.04004734 -0.02363636
v 0.01001336 0.01808705 -0.00912178
v 0.00375584 -0.04126690 0.02571554
v 0.01008318 -0.01518348 0.01202721
v -0.00248091 0.03621390 -0.02194950
v -0.00185744 0.04238365 -0.02653538
v 0.00345408 -0.04025335 0.02943027
v 0.00922974 0.04113025 -0.02435087
v 0.00752422 -0.03691615 0.02914397
v 0.01150241 0.03088133 -0.01877416
v 0.01423658 -0.02628154 0.02041555
v 0.00488225 -0.04188200 0.02803107
v 0.01445754 0.04082984 -0.02636866
v 0.02415614 -0.01846692 0.00865435
v 0.02543182 0.01896413 -0.01605557
v 0.01510266 -0.03933346 0.02788935
v 0.01785892 0.03597643 -0.02762696
v 0.01566998 -0.03973923 0.02566910
v 0.02848652 -0.03233141 0.02041667
v 0.02300015 -0.03321632 0.02724087
v 0.03036231 -0.00682187 0.00694627
v 0.03351164 0.01853569 -0.00849311
v 0.02907551 0.02773658 -0.02352183
v 0.02100402 0.03669548 -0.02070094
v 0.02675868 0.03045504 -0.01656384
v 0.03275272 -0.02175345 0.01873020
v 0.03909188 0.00071946 0.00351278
v 0.02225650 -0.03692475 0.02757698
v 0.02778384 0.03635274 -0.02214352
v 0.02990537 0.03187005 -0.02350451
v 0.02921871 -0.03456261 0.02365475
v 0.04108380 -0.01976342 0.01803345
v 0.03390179 -0.02962423 0.02372143
v 0.03452758 0.02964855 -0.01606697
v 0.03664237 0.02069067 -0.01884712
v 0.03852891 0.02863111 -0.01741754
v 0.03923652 0.02484350 -0.01995916
v 0.04076801 -0.02499220 0.01882525
v 0.04307949 -0.00133090 -0.00200788
v 0.04136286 0.01405168 -0.00480102
v 0.04547182 0.00961555 -0.00989615
v 0.04230542 0.01838119 -0.01600005
v 0.04576667 -0.01854357 0.01172851
v 0.04492013 0.02052826 -0.01121871
v 0.04335213 0.02051213 -0.00954838
v 0.04494967 0.01858274 -0.01307581
v 0.04795845 0.00759129 -0.00071027
v 0.04902459 -0.00212795 0.00639127
v 0.04920922 0.01083687 -0.00404636
v 0.04846171 -0.01333118 0.01262587
v 0.04957419 -0.00374473 0.00040955
v 0.05136251 -0.00680073 0.00625862
v 0.05108234 0.00527692 -0.00429514
v 0.05201161 -0.00049561 0.00297821
f 38 42 47
f 96 95 69
f 91 77 84
f 87 85 92
f 41 27 33
f 41 54 56
f 34 40 49
f 12 5 6
f 98 90 88
f 30 14 20
f 61 49 50
f 101 102 108
f 107 105 95
f 29 19 28
f 8 2 9
f 63 70 82
f 98 100 90
f 10 3 5
f 102 104 106
f 18 16 26
f 103 94 101
f 24 39 69
f 86 81 80
f 41 28 27
f 76 79 56
f 6 23 12
f 63 61 70
f 108 102 106
f 71 77 52
f 99 98 88
f 33 23 34
f 10 13 9
f 17 37 26
f 97 68 93
f 104 92 97
f 69 89 96
f 86 87 92
f 100 95 96
f 32 44 35
f 7 2 8
f 81 54 75
f 60 46 45
f 22 13 19
f 44 46 35
f 21 23 6
f 58 33 34
f 15 12 23
f 88 79 76
f 108 106 105
f 37 48 50
f 83 84 71
f 75 58 65
f 61 50 66
f 53 60 67
f 75 54 58
f 19 13 10
f 22 25 13
f 69 95 24
f 64 59 41
f 81 76 54
f 16 11 4
f 81 75 80
f 15 10 5
f 54 33 58
f 7 17 4
f 105 97 93
f 68 51 24
f 60 59 62
f 98 99 103
f 51 57 48
f 107 95 100
f 6 1 11
f 95 93 24
f 38 30 42
f 61 66 70
f 108 105 107
f 78 67 62
f 104 102 86
f 62 59 64
f 40 37 49
f 15 19 10
f 82 74 63
f 45 44 36
f 32 22 29
f 94 103 99
f 14 24 7
f 36 32 29
f 43 28 41
f 20 9 13
f 35 25 32
f 45 46 44
f 83 67 78
f 35 30 25
f 63 34 49
f 58 34 65
f 5 3 1
f 3 2 1
f 21 18 31
f 85 73 92
f 77 39 52
f 18 26 31
f 23 21 34
f 53 52 47
f 29 22 19
f 65 34 63
f 62 64 78
f 24 14 39
f 71 52 53
f 53 47 46
f 11 16 18
f 40 21 31
f 45 36 43
f 9 2 3
f 31 26 37
f 82 72 85
f 96 89 91
f 35 42 30
f 36 29 28
f 47 52 38
f 79 88 83
f 83 78 79
f 101 108 103
f 55 45 43
f 40 31 37
f 82 70 72
f 68 73 51
f 20 13 25
f 103 107 100
f 43 36 28
f 36 44 32
f 78 64 79
f 63 49 61
f 14 7 8
f 94 76 81
f 32 25 22
f 84 77 71
f 88 76 99
f 20 8 9
f 51 48 17
f 102 81 86
f 15 5 12
f 39 14 38
f 47 35 46
f 47 42 35
f 62 67 60
f 17 26 16
f 103 108 107
f 55 60 45
f 39 38 52
f 6 11 21
f 56 64 41
f 104 86 92
f 69 39 77
f 23 33 27
f 91 84 83
f 67 71 53
f 104 97 106
f 90 83 88
f 77 89 69
f 5 1 6
f 72 66 57
f 48 37 17
f 55 43 59
f 105 93 95
f 70 66 72
f 55 59 60
f 30 20 25
f 75 65 80
f 103 100 98
f 50 48 57
f 59 43 41
f 79 64 56
f 1 4 11
f 86 80 74
f 74 65 63
f 49 37 50
f 1 2 4
f 28 19 15
f 97 92 73
f 27 28 15
f 54 41 33
f 24 51 17
f 102 101 81
f 106 97 105
f 38 14 30
f 93 68 24
f 66 50 57
f 24 17 7
f 34 21 40
f 97 73 68
f 74 82 85
f 74 85 87
f 91 89 77
f 72 57 73
f 60 53 46
f 7 4 2
f 87 86 74
f 3 10 9
f 85 72 73
f 83 71 67
f 99 76 94
f 73 57 51
f 100 96 91
f 27 15 23
f 76 56 54
f 101 94 81
f 90 100 91
f 21 11 18
f 80 65 74
f 90 91 83
f 17 16 4
f 14 8 20

