# https://github.com/mikedh/trimesh
v -0.03330687 -0.00639463 0.01021185
v -0.03388199 -0.01002242 0.00536926
v -0.03260599 -0.00973544 -0.00257612
v -0.03406804 -0.00221441 0.00181864
v -0.03329455 0.00244082 0.00866888
v -0.03070840 -0.00652145 -0.00819112
v -0.03120596 -0.01530064 0.00192300
v -0.03209137 0.00619554 0.00102600
v -0.03133290 -0.01488990 0.02225501
v -0.03108278 -0.00747215 0.01962303
v -0.03030758 0.00117866 0.01745629
v -0.03042695 0.00039460 -0.00775434
v -0.03027692 0.01036303 0.01054579
v -0.03047803 -0.01519377 0.01356881
v -0.03058665 -0.01464523 0.02667968
v -0.03141632 -0.01093511 0.01530455
v -0.03116383 -0.01140329 0.02647813
v -0.02593507 0.00936433 -0.00921935
v -0.02868756 -0.01612592 -0.00514038
v -0.02579596 0.01724364 0.00026199
v -0.02833704 -0.00519032 0.02306160
v -0.02639209 -0.01963438 0.01441611
v -0.01951920 -0.02249029 0.02105863
v -0.02420334 -0.00497567 0.02610219
v -0.02757072 0.00780149 0.01928720
v -0.02286163 0.02027228 0.00806592
v -0.02496876 -0.01482703 0.02711760
v -0.02610439 -0.01100396 0.02789409
v -0.02474673 0.00299703 0.02331975
v -0.02628801 -0.02066139 0.00299975
v -0.02451952 -0.01283265 -0.01357391
v -0.02380201 0.01360457 0.01885783
v -0.02294029 -0.00339778 -0.01828207
v -0.02142217 -0.02181870 -0.00484512
v -0.02039302 0.00460962 -0.02011437
v -0.01996705 -0.01243961 0.02742846
v -0.01914898 -0.02579955 0.01097574
v -0.02171466 -0.01860062 -0.01074531
v -0.01965818 0.01816470 -0.01186709
v -0.01867580 -0.01511350 -0.01649150
v -0.01348277 -0.02654517 -0.00128516
v -0.01617006 0.02167792 0.01456421
v -0.01657800 0.00966780 0.02686652
v -0.01820533 -0.01857599 0.02514755
v -0.01540415 -0.00775895 -0.02258076
v -0.01827842 0.02443722 0.00041627
v -0.01251793 -0.00686090 0.03207989
v -0.01521422 0.01465695 -0.01975062
v -0.01407580 0.00083757 -0.02565149
v -0.01502420 0.02522998 -0.00760161
v -0.01479336 -0.02154358 -0.01132416
v -0.01250240 0.00116887 0.03194572
v -0.01375735 0.01654041 0.02235563
v -0.01027067 0.02411498 -0.01561321
v -0.01063283 0.02757744 0.00656943
v -0.00821009 -0.01802330 -0.01779736
v -0.00814799 0.02927706 -0.00720135
v -0.00860533 0.01119085 -0.02686021
v -0.01032372 -0.02247946 0.02533926
v -0.00994959 -0.02909367 0.01528220
v -0.00864822 -0.01052591 -0.02387678
v -0.00554171 0.02360501 0.01664935
v -0.00836043 -0.01361022 0.03116427
v -0.00689459 0.01075201 0.02890421
v -0.00711811 -0.03008943 0.00616649
v -0.00314504 -0.00306362 -0.02909102
v -0.00616007 0.02013475 -0.02355080
v -0.00302978 0.03145997 0.00075718
v -0.00486044 -0.02704255 0.02027173
v -0.00337887 -0.02700431 -0.00535811
v -0.00296677 0.00780678 -0.03023551
v -0.00201462 -0.02993774 0.01205801
v -0.00355095 -0.02157450 0.02606419
v -0.00498120 0.00071674 0.03349104
v -0.00408560 -0.00531833 0.03355892
v -0.00053674 -0.01397684 0.03029985
v -0.00064946 0.02731234 -0.01948969
v 0.00042865 0.00931513 0.02975020
v 0.00045113 -0.01114760 -0.02503097
v 0.00319469 0.02088360 0.02075149
v -0.00092533 0.01896160 -0.02724826
v -0.00067726 0.02984847 0.00733806
v 0.00274268 -0.02190422 -0.01351769
v 0.00255533 -0.02880096 0.00039730
v 0.00253055 0.00122705 0.03219034
v 0.00679988 0.02704822 0.01259416
v 0.00320789 0.03261285 -0.00709271
v 0.00300975 -0.00461728 0.03211911
v 0.00347521 0.03044411 -0.01585700
v 0.00398283 0.00396021 -0.03166055
v 0.00631520 0.01449502 -0.03001301
v 0.00697583 -0.02667419 0.01331550
v 0.00544594 -0.02123158 0.02239977
v 0.00499637 0.02251867 -0.02539610
v 0.00639082 0.03123869 0.00431609
v 0.00763260 0.01538229 0.02488356
v 0.00789149 -0.02801930 0.00390815
v 0.00755525 -0.01072762 0.02798175
v 0.00958727 -0.01237351 -0.02331314
v 0.00711489 -0.00481224 -0.02901718
v 0.00862355 0.02752139 -0.02053074
v 0.01304037 -0.02368286 -0.00622681
v 0.01222011 0.03070225 -0.01336782
v 0.01146720 0.00646715 0.02807324
v 0.01019150 0.03229219 -0.00407104
v 0.01280285 0.00826548 -0.03033523
v 0.01322644 0.01694728 -0.02769686
v 0.01075088 0.00012244 -0.03044093
v 0.01770508 -0.01097969 0.02023288
v 0.01278508 -0.00267225 0.02783831
v 0.01470927 0.02285408 -0.02304540
v 0.01656452 -0.01492502 -0.01847300
v 0.01706023 -0.02088268 0.01153650
v 0.01447878 0.02285008 0.01600416
v 0.01540146 -0.02467791 0.00384586
v 0.01856382 0.01697714 0.01941206
v 0.01754014 0.02992413 -0.00221767
v 0.01651270 0.02692857 0.00860291
v 0.01873940 -0.00529431 -0.02477034
v 0.01710370 0.00368281 -0.02860841
v 0.01914109 0.00577036 0.02360056
v 0.02150335 -0.01685352 -0.01230647
v 0.01838554 0.02610606 -0.01903538
v 0.01998383 -0.00148423 0.02250693
v 0.02038019 0.01611332 -0.02707773
v 0.02226527 0.01067084 -0.02636912
v 0.02213066 0.02117630 -0.02633615
v 0.02247869 -0.01929135 -0.00492084
v 0.02265254 0.02561258 -0.02401283
v 0.02614693 0.02387359 0.00115007
v 0.02491661 0.01970654 0.01165868
v 0.02424535 0.00008867 -0.02331711
v 0.02376492 -0.01839625 0.00141351
v 0.02670497 -0.00374327 0.01412004
v 0.02229530 0.02745348 -0.01242548
v 0.02405433 0.02847166 -0.01942368
v 0.02659670 -0.00803911 -0.01769727
v 0.02511943 0.01144229 0.01715840
v 0.02729253 0.02571302 -0.00989071
v 0.02757085 -0.01008579 0.00811520
v 0.03058905 0.01279970 -0.02493524
v 0.02764704 0.01644096 -0.02815331
v 0.02666961 0.02705040 -0.02467543
v 0.02869264 -0.01122494 -0.01037673
v 0.02936727 0.00439360 0.01311556
v 0.02808741 0.02913609 -0.01903824
v 0.03013253 0.00638733 -0.01977724
v 0.02752751 0.02151232 -0.02828156
v 0.02879237 0.02105875 -0.00392602
v 0.03148299 0.02523054 -0.02208413
v 0.03209403 -0.00696782 -0.00297563
v 0.03186371 0.02277093 -0.00915513
v 0.03019769 0.01041787 0.01056416
v 0.03229979 0.02028264 -0.02515085
v 0.03275102 0.02686572 -0.01696735
v 0.03220042 -0.00044439 -0.01302319
v 0.03216006 0.01637171 -0.00638552
v 0.03194939 0.01633429 0.00047299
v 0.03352380 -0.00123493 0.00303828
v 0.03485278 0.01537950 -0.02414214
v 0.03315729 0.00894967 -0.01213546
v 0.03401433 0.00756250 0.00291236
v 0.03587569 0.01222465 -0.02062960
v 0.03417857 0.00075030 -0.00479359
v 0.03519083 0.01131327 -0.01640796
v 0.03517985 0.01798998 -0.01033207
v 0.03540717 0.02432933 -0.01353001
v 0.03400299 0.00812787 -0.00610725
v 0.03686459 0.02082342 -0.01801954
v 0.03796584 0.01636913 -0.01869676
v 0.03805868 0.01840717 -0.01465444
f 169 154 150
f 20 18 8
f 86 82 62
f 92 97 115
f 129 123 136
f 42 62 55
f 93 73 69
f 13 20 8
f 85 74 75
f 137 119 132
f 41 34 51
f 69 60 72
f 22 7 30
f 100 66 90
f 135 103 117
f 72 65 84
f 24 28 36
f 165 161 147
f 47 44 63
f 11 10 21
f 67 58 48
f 32 13 25
f 110 88 98
f 43 29 24
f 44 23 59
f 96 78 104
f 143 148 129
f 152 166 167
f 29 11 21
f 171 170 169
f 26 32 42
f 22 37 23
f 111 125 107
f 24 36 47
f 33 45 31
f 144 137 156
f 93 92 113
f 134 140 159
f 29 21 24
f 119 99 100
f 105 103 87
f 159 140 151
f 132 119 120
f 62 42 53
f 142 126 125
f 25 11 29
f 154 143 150
f 104 121 116
f 131 130 118
f 14 7 22
f 117 103 105
f 27 23 44
f 99 56 79
f 41 30 34
f 107 126 106
f 53 42 32
f 114 86 80
f 23 37 60
f 58 49 35
f 129 127 123
f 38 34 19
f 127 111 123
f 74 52 47
f 81 71 58
f 113 115 133
f 3 6 19
f 35 33 12
f 13 5 11
f 114 96 116
f 138 116 121
f 138 121 145
f 95 87 68
f 52 24 47
f 39 18 20
f 130 117 118
f 59 23 69
f 37 30 41
f 109 140 134
f 40 31 45
f 109 98 93
f 18 12 8
f 97 84 102
f 147 126 141
f 43 53 32
f 70 56 83
f 36 28 27
f 47 63 75
f 77 54 57
f 27 15 23
f 153 131 138
f 164 156 161
f 137 112 119
f 16 14 9
f 130 139 117
f 92 72 97
f 149 139 130
f 66 61 45
f 97 72 84
f 108 100 90
f 158 168 157
f 68 57 55
f 78 64 74
f 74 47 75
f 93 69 92
f 165 163 170
f 55 46 26
f 165 147 163
f 131 114 116
f 119 108 120
f 144 128 122
f 167 169 155
f 96 80 78
f 85 88 110
f 63 59 73
f 78 80 64
f 160 141 142
f 101 111 94
f 143 154 148
f 155 169 150
f 63 44 59
f 57 50 46
f 104 85 110
f 131 118 114
f 43 32 29
f 21 10 17
f 125 126 107
f 50 54 39
f 167 171 169
f 11 1 10
f 151 133 144
f 146 143 136
f 15 9 23
f 7 3 19
f 151 144 156
f 70 51 56
f 148 125 127
f 26 20 13
f 71 66 49
f 124 109 134
f 31 6 33
f 85 75 88
f 98 76 93
f 167 139 152
f 139 135 117
f 157 161 166
f 55 57 46
f 145 159 162
f 103 89 87
f 109 93 113
f 17 15 28
f 102 83 112
f 11 5 1
f 141 163 147
f 17 9 15
f 62 64 80
f 157 152 149
f 81 58 67
f 155 146 139
f 50 39 20
f 36 27 44
f 144 133 128
f 121 104 110
f 83 99 112
f 4 6 3
f 159 151 164
f 5 4 1
f 17 10 9
f 62 53 64
f 40 38 31
f 8 12 4
f 87 89 57
f 84 70 102
f 131 158 130
f 2 7 14
f 147 132 126
f 118 86 114
f 162 164 168
f 24 17 28
f 154 142 148
f 32 26 13
f 23 60 69
f 28 15 27
f 95 105 87
f 99 83 56
f 117 95 118
f 158 162 168
f 102 70 83
f 103 101 89
f 71 49 58
f 1 14 16
f 69 72 92
f 42 55 26
f 49 45 33
f 126 132 120
f 103 123 101
f 94 91 81
f 13 8 5
f 47 36 44
f 107 91 94
f 161 156 147
f 149 158 157
f 43 52 64
f 8 4 5
f 90 66 71
f 37 22 30
f 87 57 68
f 126 120 106
f 100 99 79
f 166 161 165
f 170 154 169
f 113 92 115
f 82 68 55
f 65 37 41
f 139 146 135
f 61 56 40
f 135 136 123
f 155 150 146
f 110 98 109
f 77 81 67
f 30 7 19
f 54 67 48
f 153 145 162
f 73 59 69
f 72 60 65
f 95 82 86
f 53 43 64
f 104 78 85
f 1 2 14
f 95 117 105
f 10 1 16
f 149 152 139
f 80 86 62
f 76 63 73
f 29 32 25
f 138 145 153
f 122 102 112
f 148 142 125
f 89 101 77
f 38 19 31
f 168 161 157
f 62 82 55
f 107 106 91
f 101 94 77
f 148 127 129
f 170 163 160
f 127 125 111
f 89 77 57
f 146 136 135
f 115 128 133
f 33 6 12
f 25 13 11
f 122 137 144
f 142 141 126
f 145 134 159
f 21 17 24
f 40 56 51
f 120 108 106
f 156 137 147
f 166 152 157
f 65 70 84
f 4 12 6
f 48 35 18
f 150 143 146
f 124 110 109
f 50 20 46
f 19 6 31
f 78 74 85
f 122 112 137
f 164 151 156
f 116 96 104
f 57 54 50
f 88 75 76
f 2 3 7
f 23 9 22
f 43 24 52
f 154 160 142
f 91 106 90
f 171 165 170
f 153 162 158
f 66 45 49
f 66 79 61
f 41 51 70
f 121 110 124
f 95 68 82
f 140 133 151
f 140 113 133
f 131 153 158
f 167 155 139
f 51 38 40
f 81 91 71
f 130 158 149
f 22 9 14
f 39 48 18
f 91 90 71
f 94 81 77
f 167 166 171
f 168 164 161
f 108 119 100
f 170 160 154
f 30 19 34
f 115 102 128
f 18 35 12
f 75 63 76
f 4 3 2
f 111 107 94
f 76 73 93
f 79 56 61
f 77 67 54
f 48 58 35
f 10 16 9
f 35 49 33
f 138 131 116
f 136 143 129
f 65 41 70
f 109 113 140
f 128 102 122
f 88 76 98
f 60 37 65
f 112 99 119
f 162 159 164
f 26 46 20
f 163 141 160
f 114 80 96
f 124 134 145
f 61 40 45
f 135 123 103
f 51 34 38
f 121 124 145
f 106 108 90
f 147 137 132
f 123 111 101
f 64 52 74
f 1 4 2
f 166 165 171
f 118 95 86
f 115 97 102
f 100 79 66
f 54 48 39

