# https://github.com/mikedh/trimesh
v 0.12541696 0.10861309 -0.05107544
v 0.12025765 0.10861309 -0.05107544
v 0.12569581 0.07928292 -0.05107544
v 0.12429846 0.10861309 -0.06530215
v 0.11197753 0.10861309 -0.06974228
v 0.10960187 0.04848573 -0.06974228
v 0.11996779 0.01744578 -0.05107544
v 0.12511294 0.00378862 -0.05107544
v 0.12418504 0.10861309 -0.06590512
v 0.12494278 0.00079122 -0.05236180
v 0.12278611 0.00079122 -0.06926172
v 0.11870907 0.10861309 -0.06974228
v 0.11225637 0.00079122 -0.06974228
v 0.12023087 0.00081233 -0.05107544
v 0.12505621 0.00079122 -0.05107544
v 0.12281290 0.02779946 -0.06944627
v 0.12260022 0.03657002 -0.06974228
v 0.12231193 0.08182649 -0.06974228
v 0.12214179 0.00079122 -0.06974228
v 0.12074444 0.00079122 -0.05107544
f 1 2 7
f 1 7 14
f 1 14 20
f 1 20 15
f 1 15 8
f 1 8 3
f 1 3 4
f 1 4 9
f 1 9 12
f 1 12 5
f 1 5 2
f 2 5 6
f 2 6 7
f 3 8 4
f 4 8 10
f 4 10 11
f 4 11 9
f 5 12 18
f 5 18 17
f 5 17 19
f 5 19 13
f 5 13 6
f 6 13 14
f 6 14 7
f 8 15 10
f 9 11 16
f 9 16 17
f 9 17 18
f 9 18 12
f 10 15 20
f 10 20 13
f 10 13 19
f 10 19 11
f 11 19 17
f 11 17 16
f 13 20 14

