# https://github.com/mikedh/trimesh
v 0.09291353 -0.20284036 0.11513152
v 0.06096740 -0.20760450 0.11484523
v 0.08230964 -0.20782402 0.11509971
v 0.09291353 -0.20761044 0.11462257
v 0.09291353 -0.19820377 0.09741408
v 0.06096740 -0.20297384 0.09251554
v 0.06096740 -0.20939031 0.11463848
v 0.09291353 -0.20823635 0.10488912
v 0.09291353 -0.18253489 -0.02245690
v 0.06096740 -0.18316972 -0.04734719
v 0.06096740 -0.21025950 0.09563279
v 0.07339749 -0.20956236 0.09122729
v 0.08881082 -0.19482793 -0.01213499
v 0.09291353 -0.19472115 0.00203577
v 0.09291353 -0.17996001 -0.04734719
v 0.06096740 -0.18992139 -0.04734719
v 0.06096740 -0.21026543 0.09327896
v 0.08410458 -0.19008753 -0.04734719
v 0.09291353 -0.19251409 -0.01148291
v 0.09291353 -0.18470338 -0.04734719
v 0.07105219 -0.19032188 -0.04734719
v 0.06096740 -0.19314002 -0.02810294
v 0.09138440 -0.18573274 -0.04734719
v 0.09291353 -0.18547170 -0.04429356
f 1 2 3
f 1 3 4
f 1 4 8
f 1 8 14
f 1 14 19
f 1 19 24
f 1 24 20
f 1 20 15
f 1 15 9
f 1 9 5
f 1 5 2
f 2 5 6
f 2 6 10
f 2 10 16
f 2 16 22
f 2 22 17
f 2 17 11
f 2 11 7
f 2 7 3
f 3 7 4
f 4 7 8
f 5 9 10
f 5 10 6
f 7 11 8
f 8 11 12
f 8 12 13
f 8 13 14
f 9 15 10
f 10 15 20
f 10 20 23
f 10 23 18
f 10 18 21
f 10 21 16
f 11 17 12
f 12 17 13
f 13 18 19
f 13 19 14
f 13 17 18
f 16 21 22
f 17 22 21
f 17 21 18
f 18 23 19
f 19 23 24
f 20 24 23

