# https://github.com/mikedh/trimesh
v 0.00029223 -0.16755548 -0.07460953
v 0.00029223 -0.16755548 -0.07130588
v 0.00029223 -0.15049833 -0.07650108
v 0.08276729 -0.16755548 -0.07452982
v 0.09993253 -0.16755548 -0.06543083
v 0.11385518 -0.02185276 -0.06543083
v 0.11621780 0.00077475 -0.06543083
v 0.00029223 0.00077475 -0.07339557
v 0.00029223 -0.13756125 -0.07657510
v 0.01664982 -0.14744945 -0.07656143
v 0.10538104 -0.16088094 -0.07524271
v 0.09935392 -0.16755548 -0.07321565
v 0.11154076 -0.16755548 -0.06543083
v 0.12326954 0.00077475 -0.06543083
v 0.00029223 0.00077475 -0.07701809
v 0.00029223 -0.06275697 -0.07690307
v 0.01693912 -0.05792823 -0.07695318
v 0.10553775 -0.09802491 -0.07650905
v 0.12065376 -0.12765656 -0.07084922
v 0.11157691 -0.16666552 -0.06894743
v 0.11283056 0.00077475 -0.07635986
v 0.11026301 -0.16755548 -0.06887113
v 0.11152871 -0.16755548 -0.06550144
v 0.11210730 -0.16671497 -0.06543083
v 0.12343828 -0.05980700 -0.06543083
v 0.12277531 0.00077475 -0.06926288
v 0.01873520 0.00077475 -0.07706478
v 0.12154578 -0.13828640 -0.06543083
v 0.11479540 0.00077475 -0.07521537
v 0.12273915 -0.03795406 -0.06899868
v 0.12244985 -0.11750467 -0.06543083
v 0.11580795 -0.15982619 -0.06543083
f 1 2 8
f 1 8 15
f 1 15 16
f 1 16 9
f 1 9 3
f 1 3 4
f 1 4 12
f 1 12 22
f 1 22 23
f 1 23 13
f 1 13 5
f 1 5 2
f 2 5 6
f 2 6 7
f 2 7 8
f 3 9 10
f 3 10 11
f 3 11 4
f 4 11 12
f 5 13 24
f 5 24 32
f 5 32 28
f 5 28 31
f 5 31 25
f 5 25 14
f 5 14 7
f 5 7 6
f 7 14 26
f 7 26 29
f 7 29 21
f 7 21 27
f 7 27 15
f 7 15 8
f 9 16 10
f 10 16 17
f 10 17 18
f 10 18 11
f 11 19 20
f 11 20 12
f 11 18 21
f 11 21 19
f 12 20 22
f 13 23 20
f 13 20 24
f 14 25 26
f 15 27 16
f 16 27 17
f 17 27 18
f 18 27 21
f 19 28 20
f 19 21 29
f 19 29 26
f 19 26 30
f 19 30 25
f 19 25 31
f 19 31 28
f 20 28 32
f 20 32 24
f 20 23 22
f 25 30 26

