# https://github.com/mikedh/trimesh
v 0.00029222 -0.20060731 0.06094718
v -0.09120946 -0.19568524 0.06169146
v -0.01778241 -0.20237145 0.06169146
v 0.00029222 -0.20326698 0.05988209
v 0.00029222 -0.19708577 0.04562528
v -0.09120946 -0.20172842 0.06169146
v -0.09120946 -0.17112873 -0.06940438
v -0.04315675 -0.20551929 0.06169146
v 0.00029222 -0.20470455 0.05911214
v 0.00029222 -0.17872730 -0.06940438
v -0.07408424 -0.20530719 0.06169146
v -0.09120946 -0.19307943 -0.01597025
v -0.09120050 -0.19307606 -0.01603442
v -0.09120946 -0.17943768 -0.06940438
v -0.04321049 -0.20551929 0.06169146
v 0.00029222 -0.20285624 0.04050516
v 0.00029222 -0.18690158 -0.06940438
v -0.07851781 -0.18749750 -0.06886542
v -0.01891095 -0.18844016 -0.06914774
v -0.09120946 -0.19306597 -0.01604725
v -0.09120946 -0.18267304 -0.06321916
v -0.08212736 -0.18500279 -0.06940438
v 0.00029222 -0.19298516 -0.03484672
v -0.01584776 -0.18816073 -0.06940438
v -0.07917165 -0.18600270 -0.06940438
v -0.07516801 -0.18710695 -0.06940438
v -0.02085456 -0.18819439 -0.06940438
v -0.01766597 -0.18817419 -0.06940438
f 1 2 3
f 1 3 4
f 1 4 9
f 1 9 16
f 1 16 23
f 1 23 17
f 1 17 10
f 1 10 5
f 1 5 2
f 2 6 11
f 2 11 15
f 2 15 8
f 2 8 3
f 2 5 7
f 2 7 14
f 2 14 21
f 2 21 20
f 2 20 12
f 2 12 6
f 3 8 9
f 3 9 4
f 5 10 7
f 6 12 13
f 6 13 11
f 7 10 17
f 7 17 24
f 7 24 28
f 7 28 27
f 7 27 26
f 7 26 25
f 7 25 22
f 7 22 14
f 8 15 16
f 8 16 9
f 11 13 18
f 11 18 19
f 11 19 15
f 12 20 13
f 13 20 21
f 13 21 18
f 14 22 18
f 14 18 21
f 15 19 23
f 15 23 16
f 17 23 24
f 18 22 25
f 18 25 26
f 18 26 27
f 18 27 19
f 19 27 28
f 19 28 24
f 19 24 23

