# https://github.com/mikedh/trimesh
v 0.00029223 0.00079122 -0.07701842
v 0.01874149 0.00079122 -0.07706447
v 0.00029223 0.00079122 -0.07339716
v 0.00029223 0.06461514 -0.07716459
v 0.11281957 0.00079122 -0.07635921
v 0.02106411 0.07677580 -0.07720844
v 0.11224490 0.00079122 -0.06974228
v 0.02705024 0.16067968 -0.06976420
v 0.00269865 0.16067968 -0.07147069
v 0.00029223 0.16067968 -0.07163952
v 0.00029223 0.08513332 -0.07712658
v 0.10919198 0.10892252 -0.07637748
v 0.11334635 0.00784973 -0.07634898
v 0.11479499 0.00079122 -0.07521620
v 0.06323044 0.16067968 -0.07677359
v 0.07068916 0.16067968 -0.07670490
v 0.12213400 0.00079122 -0.06974228
v 0.09644151 0.16067968 -0.06974228
v 0.00029223 0.16067968 -0.07647761
v 0.10470237 0.16067968 -0.07186095
v 0.11477105 0.15909895 -0.07058419
v 0.12170298 0.07323873 -0.07097445
v 0.12260091 0.03656893 -0.06974228
v 0.11351395 0.16067968 -0.06974228
v 0.11313085 0.16067968 -0.07039271
v 0.11449569 0.15980324 -0.06974228
v 0.11479499 0.15933372 -0.06974228
v 0.11521403 0.15851988 -0.06974228
v 0.11642323 0.15044406 -0.06974228
v 0.12230161 0.08183101 -0.06974228
f 1 2 5
f 1 5 14
f 1 14 17
f 1 17 7
f 1 7 3
f 1 3 10
f 1 10 19
f 1 19 11
f 1 11 4
f 1 4 2
f 2 4 6
f 2 6 5
f 3 7 8
f 3 8 9
f 3 9 10
f 4 11 6
f 5 6 12
f 5 12 13
f 5 13 14
f 6 11 15
f 6 15 16
f 6 16 12
f 7 17 23
f 7 23 30
f 7 30 29
f 7 29 28
f 7 28 27
f 7 27 26
f 7 26 24
f 7 24 18
f 7 18 8
f 8 18 24
f 8 24 25
f 8 25 20
f 8 20 16
f 8 16 15
f 8 15 19
f 8 19 10
f 8 10 9
f 11 19 15
f 12 16 20
f 12 20 21
f 12 21 22
f 12 22 13
f 13 22 14
f 14 22 17
f 17 22 23
f 20 25 21
f 21 25 26
f 21 26 27
f 21 27 28
f 21 28 29
f 21 29 30
f 21 30 22
f 22 30 23
f 24 26 25

