# https://github.com/mikedh/trimesh
v 0.11352303 -0.12762451 -0.06543083
v 0.11386453 -0.02186003 -0.06543083
v 0.12201599 -0.12762451 -0.06543083
v 0.13288461 -0.12762451 0.11352377
v 0.11459702 -0.01484593 -0.06543083
v 0.13348594 -0.02603328 0.11459989
v 0.13452777 0.00079122 0.11475866
v 0.12245153 -0.11749304 -0.06543083
v 0.12483708 -0.10398023 -0.05821549
v 0.12359729 -0.12762451 -0.05909756
v 0.13805661 -0.12762451 0.11352377
v 0.13816054 -0.06663458 0.11444112
v 0.11623029 0.00079122 -0.06543083
v 0.13695291 0.00079122 0.11479395
v 0.12343891 -0.05980904 -0.06543083
v 0.12327558 0.00079122 -0.06543083
v 0.12494349 0.00079122 -0.05235853
v 0.12936814 0.00079122 -0.00193935
v 0.13880394 -0.12394149 0.11352377
v 0.13867526 -0.12762451 0.11348849
v 0.13041492 -0.12762451 0.01711339
v 0.13615607 0.00079122 0.08887870
f 1 2 5
f 1 5 13
f 1 13 16
f 1 16 15
f 1 15 8
f 1 8 3
f 1 3 10
f 1 10 21
f 1 21 20
f 1 20 11
f 1 11 4
f 1 4 2
f 2 4 6
f 2 6 7
f 2 7 5
f 3 8 9
f 3 9 10
f 4 11 12
f 4 12 6
f 5 7 13
f 6 12 14
f 6 14 7
f 7 14 22
f 7 22 18
f 7 18 17
f 7 17 16
f 7 16 13
f 8 15 9
f 9 15 16
f 9 16 17
f 9 17 18
f 9 18 19
f 9 19 20
f 9 20 21
f 9 21 10
f 11 20 12
f 12 19 22
f 12 22 14
f 12 20 19
f 18 22 19

