# https://github.com/mikedh/trimesh
v 0.09994332 -0.16756804 -0.06543083
v 0.11352407 -0.12762451 -0.06543083
v 0.11154876 -0.16756804 -0.06543083
v 0.12861758 -0.16756804 0.11420812
v 0.13288289 -0.12762451 0.11352235
v 0.12201298 -0.12762451 -0.06543083
v 0.11211368 -0.16672733 -0.06543083
v 0.11941209 -0.16756804 -0.01695152
v 0.13673493 -0.16756804 0.11327617
v 0.13867234 -0.12762451 0.11348718
v 0.13805814 -0.12762451 0.11352235
v 0.12359399 -0.12762451 -0.05910056
v 0.12155423 -0.13829178 -0.06543083
v 0.11581785 -0.15984134 -0.06543083
v 0.12519017 -0.16756804 0.01918376
v 0.13063081 -0.16756804 0.06252852
v 0.13731502 -0.16672343 0.11320584
v 0.13041469 -0.12762451 0.01710884
v 0.12246416 -0.14911543 -0.05989185
f 1 2 6
f 1 6 13
f 1 13 14
f 1 14 7
f 1 7 3
f 1 3 8
f 1 8 15
f 1 15 16
f 1 16 9
f 1 9 4
f 1 4 5
f 1 5 2
f 2 5 11
f 2 11 10
f 2 10 18
f 2 18 12
f 2 12 6
f 3 7 8
f 4 9 10
f 4 10 11
f 4 11 5
f 6 12 13
f 7 14 15
f 7 15 8
f 9 16 17
f 9 17 10
f 10 17 18
f 12 19 13
f 12 18 17
f 12 17 19
f 13 19 14
f 14 19 15
f 15 19 16
f 16 19 17

