# https://github.com/mikedh/trimesh
v -0.09120946 -0.20173314 0.06169395
v -0.09120946 -0.19569020 0.06169395
v -0.07408168 -0.20530771 0.06169395
v -0.07022201 -0.20807107 0.07924362
v -0.09120946 -0.20404430 0.08244675
v -0.09120946 -0.19873880 0.08725645
v -0.03901394 -0.20217840 0.08725645
v -0.03863301 -0.20221180 0.08725645
v -0.01778211 -0.20237459 0.06169395
v -0.04321143 -0.20552060 0.06169395
v -0.04420331 -0.20990218 0.08725645
v -0.05236110 -0.20976025 0.08725645
v -0.06810888 -0.20920090 0.08725645
v -0.09120946 -0.20446312 0.08725645
v -0.04315394 -0.20552060 0.06169395
f 1 2 9
f 1 9 15
f 1 15 10
f 1 10 3
f 1 3 4
f 1 4 5
f 1 5 14
f 1 14 6
f 1 6 2
f 2 6 7
f 2 7 8
f 2 8 9
f 3 10 11
f 3 11 12
f 3 12 4
f 4 12 13
f 4 13 14
f 4 14 5
f 6 14 13
f 6 13 12
f 6 12 11
f 6 11 8
f 6 8 7
f 8 11 9
f 9 11 15
f 10 15 11

