# https://github.com/mikedh/trimesh
v 0.00029222 0.19849230 0.05687099
v 0.00029222 0.19808128 0.05664903
v 0.00029222 0.20175339 0.05140033
v -0.04332362 0.20615751 0.06923547
v -0.04328475 0.20614251 0.06923547
v -0.04246078 0.20082037 0.06923547
v -0.00431733 0.19779328 0.05534339
v 0.00029222 0.19752027 0.05334575
v -0.05185867 0.20036134 0.06923547
v -0.07911954 0.19953333 0.06923547
v 0.00029222 0.20246141 0.04521156
v -0.06400830 0.20733355 0.06923547
v -0.07911954 0.17857774 -0.05164135
v -0.07911954 0.17668769 -0.06414944
v 0.00029222 0.18157482 -0.06414944
v -0.07911954 0.20493647 0.06923547
v 0.00029222 0.19747527 0.00551989
v 0.00029222 0.19202712 -0.03299670
v 0.00029222 0.18740098 -0.06414944
v -0.05394191 0.18731098 -0.06414944
v -0.06625477 0.20684452 0.06665029
v -0.06784052 0.20704854 0.06923547
v -0.07911954 0.17990077 -0.06414944
v -0.07911954 0.19901732 0.02501320
v -0.05827162 0.18710098 -0.06414944
v -0.07911954 0.19002005 -0.03229165
f 1 2 8
f 1 8 15
f 1 15 19
f 1 19 18
f 1 18 17
f 1 17 11
f 1 11 3
f 1 3 4
f 1 4 5
f 1 5 6
f 1 6 2
f 2 7 8
f 2 6 9
f 2 9 10
f 2 10 7
f 3 11 4
f 4 12 22
f 4 22 16
f 4 16 10
f 4 10 9
f 4 9 6
f 4 6 5
f 4 11 12
f 7 10 13
f 7 13 8
f 8 13 14
f 8 14 15
f 10 16 24
f 10 24 26
f 10 26 23
f 10 23 14
f 10 14 13
f 11 17 12
f 12 17 18
f 12 18 19
f 12 19 20
f 12 20 21
f 12 21 22
f 14 23 25
f 14 25 20
f 14 20 19
f 14 19 15
f 16 22 24
f 20 25 21
f 21 24 22
f 21 25 26
f 21 26 24
f 23 26 25

