# https://github.com/mikedh/trimesh
v 0.01752661 -0.20894167 0.08382368
v 0.04051013 -0.20303646 0.08382368
v 0.03659266 -0.20886575 0.08382368
v 0.01755640 -0.21271679 0.10045704
v -0.00326730 -0.20997086 0.08799949
v -0.04419972 -0.20990197 0.08726151
v -0.05234748 -0.20975997 0.08726151
v -0.06810676 -0.20920038 0.08726151
v -0.09120945 -0.20446496 0.08726151
v -0.09120945 -0.19873971 0.08726151
v 0.05407980 -0.20183574 0.08382368
v 0.06096146 -0.20851706 0.08382368
v 0.06096146 -0.21026473 0.09329592
v 0.01042153 -0.21310204 0.11355539
v -0.06116553 -0.21291363 0.11357361
v -0.04433378 -0.21051781 0.09085118
v -0.09120945 -0.20872656 0.11395019
v -0.09120945 -0.19897310 0.09022557
v 0.06096146 -0.20200163 0.08382368
v 0.06096146 -0.21026050 0.09564652
v 0.00027779 -0.21307532 0.11355843
v 0.06096146 -0.20939159 0.11464565
v -0.04551052 -0.20677221 0.11474891
v -0.09120945 -0.20438763 0.11434196
v -0.00069040 -0.20430186 0.10721729
v 0.06096146 -0.20297740 0.09254579
v 0.06096146 -0.20760596 0.11484306
f 1 2 11
f 1 11 19
f 1 19 12
f 1 12 3
f 1 3 4
f 1 4 5
f 1 5 6
f 1 6 7
f 1 7 8
f 1 8 9
f 1 9 10
f 1 10 2
f 2 10 11
f 3 12 4
f 4 12 13
f 4 13 14
f 4 14 15
f 4 15 16
f 4 16 6
f 4 6 5
f 6 16 7
f 7 16 8
f 8 16 15
f 8 15 17
f 8 17 9
f 9 17 24
f 9 24 18
f 9 18 10
f 10 18 11
f 11 18 19
f 12 19 26
f 12 26 27
f 12 27 22
f 12 22 20
f 12 20 13
f 13 20 14
f 14 21 15
f 14 20 22
f 14 22 21
f 15 23 17
f 15 21 22
f 15 22 23
f 17 23 24
f 18 24 25
f 18 25 26
f 18 26 19
f 22 27 23
f 23 27 24
f 24 27 25
f 25 27 26

