# https://github.com/mikedh/trimesh
v -0.07911954 0.19953762 0.06923547
v -0.07911954 0.20493990 0.06923547
v -0.07143177 0.19977078 0.06923547
v 0.00029222 0.20325868 0.08751867
v 0.00029222 0.20448312 0.10343091
v -0.07911954 0.20469446 0.11489203
v -0.07911954 0.20849735 0.08760367
v -0.06784052 0.20704791 0.06923547
v -0.05185867 0.20036528 0.06923547
v -0.04246078 0.20082206 0.06923547
v 0.00029222 0.20713654 0.08675370
v 0.00029222 0.20504080 0.10657131
v -0.00448057 0.20468356 0.10555582
v -0.06524425 0.20866641 0.11493676
v -0.07911954 0.20954861 0.11446704
v 0.00029222 0.21026720 0.11469071
v -0.07911954 0.21116303 0.10899595
v -0.06400830 0.20733289 0.06923547
v -0.04328475 0.20614526 0.06923547
v -0.04332362 0.20616025 0.06923547
v 0.00029222 0.20718017 0.08682527
v -0.00947101 0.21080987 0.11458783
v 0.00029222 0.21116713 0.11447152
v 0.00029222 0.21193615 0.11128638
v 0.00029222 0.21346602 0.10322066
v -0.03981787 0.21259063 0.09702486
v 0.00029222 0.21201113 0.09918109
f 1 2 8
f 1 8 18
f 1 18 20
f 1 20 19
f 1 19 10
f 1 10 9
f 1 9 3
f 1 3 4
f 1 4 5
f 1 5 6
f 1 6 15
f 1 15 17
f 1 17 7
f 1 7 2
f 2 7 8
f 3 9 4
f 4 9 10
f 4 10 11
f 4 11 21
f 4 21 27
f 4 27 25
f 4 25 24
f 4 24 23
f 4 23 16
f 4 16 12
f 4 12 5
f 5 12 13
f 5 13 6
f 6 14 15
f 6 13 12
f 6 12 16
f 6 16 14
f 7 17 8
f 8 17 18
f 10 19 11
f 11 19 20
f 11 20 21
f 14 16 22
f 14 22 15
f 15 22 23
f 15 23 17
f 16 23 22
f 17 23 24
f 17 24 25
f 17 25 26
f 17 26 18
f 18 26 25
f 18 25 20
f 20 25 27
f 20 27 21

