# https://github.com/mikedh/trimesh
v 0.11644070 0.14887419 -0.05107545
v 0.11586681 0.15158741 -0.05107545
v 0.12321831 0.14887419 -0.05107545
v 0.12787008 0.14887419 0.07201770
v 0.11586681 0.18175142 0.07010046
v 0.11586681 0.16313870 -0.05107545
v 0.12395556 0.14887419 -0.04652607
v 0.13204640 0.14887419 0.11273463
v 0.12113644 0.18175142 0.10946883
v 0.11586681 0.18175142 0.02408676
v 0.11586681 0.17005530 -0.02905971
v 0.11643860 0.17580037 -0.00725520
v 0.12602906 0.14887419 -0.03180558
v 0.12385294 0.18064746 0.06061176
v 0.13553365 0.14887419 0.11375824
v 0.12387178 0.18175142 0.11491182
v 0.11586681 0.17602566 -0.00943240
v 0.12373564 0.18175142 0.06525862
v 0.12932990 0.15778951 0.02231576
v 0.13638608 0.16002637 0.10100372
v 0.13726157 0.14887419 0.10565060
v 0.13107458 0.17412674 0.11487933
v 0.12767948 0.18175142 0.11461937
v 0.12734018 0.18175142 0.10959881
f 1 2 6
f 1 6 3
f 1 3 7
f 1 7 13
f 1 13 21
f 1 21 15
f 1 15 8
f 1 8 4
f 1 4 5
f 1 5 2
f 2 5 10
f 2 10 17
f 2 17 11
f 2 11 6
f 3 6 7
f 4 8 5
f 5 8 9
f 5 9 16
f 5 16 23
f 5 23 24
f 5 24 18
f 5 18 10
f 6 11 12
f 6 12 7
f 7 12 14
f 7 14 13
f 8 15 16
f 8 16 9
f 10 18 17
f 11 17 12
f 12 17 18
f 12 18 14
f 13 19 20
f 13 20 21
f 13 14 19
f 14 18 20
f 14 20 19
f 15 22 16
f 15 21 22
f 16 22 23
f 18 24 20
f 20 24 23
f 20 23 22
f 20 22 21

