# https://github.com/mikedh/trimesh
v 0.08667427 0.06719996 -0.07435066
v 0.07596076 0.06451095 -0.06986883
v 0.07457104 0.06327358 -0.06806627
v 0.07875355 0.06304754 -0.06806627
v 0.08759295 0.06715030 -0.07435066
v 0.06671381 0.06503490 -0.07435066
v 0.07320137 0.06306714 -0.06806627
v 0.08013659 0.06297176 -0.06806627
v 0.08775998 0.06670867 -0.07435066
v 0.05989218 0.05891210 -0.07435066
v 0.05860268 0.05831629 -0.06806627
v 0.06139213 0.06081846 -0.06806627
v 0.08025017 0.06267123 -0.06806627
v 0.08167663 0.05889120 -0.06806627
v 0.08622996 0.06265425 -0.07435066
v 0.05721965 0.05593564 -0.07435066
v 0.05384557 0.05385290 -0.07019120
v 0.05379881 0.05385290 -0.06973103
v 0.05363511 0.05385290 -0.06806627
v 0.08146951 0.05834503 -0.06806627
v 0.06287204 0.05385290 -0.07435066
v 0.05714281 0.05385290 -0.07435066
v 0.05415625 0.05385290 -0.07104820
v 0.06039662 0.05385290 -0.06806627
f 1 2 3
f 1 3 4
f 1 4 5
f 1 5 9
f 1 9 15
f 1 15 21
f 1 21 22
f 1 22 16
f 1 16 10
f 1 10 6
f 1 6 2
f 2 7 3
f 2 6 7
f 3 7 12
f 3 12 11
f 3 11 19
f 3 19 24
f 3 24 20
f 3 20 14
f 3 14 13
f 3 13 8
f 3 8 4
f 4 8 5
f 5 8 9
f 6 10 11
f 6 11 12
f 6 12 7
f 8 13 9
f 9 13 14
f 9 14 15
f 10 16 17
f 10 17 18
f 10 18 11
f 11 18 19
f 14 20 15
f 15 20 21
f 16 22 23
f 16 23 17
f 17 23 22
f 17 22 21
f 17 21 24
f 17 24 19
f 17 19 18
f 20 24 21

