# https://github.com/mikedh/trimesh
v 0.09711192 0.06298903 -0.08850684
v 0.09710775 0.06298903 -0.08849575
v 0.09704512 0.06286491 -0.08850684
v 0.09704094 0.06298903 -0.08850684
v 0.09708478 0.06298903 -0.08847359
v 0.08332871 0.05218485 -0.07435127
v 0.08341221 0.05109708 -0.07435127
v 0.09072652 0.05551185 -0.08231170
v 0.09423755 0.05770372 -0.08850684
v 0.09687604 0.06293187 -0.08850684
v 0.07578687 0.05285123 -0.07935338
v 0.07578687 0.05051563 -0.07435127
v 0.08887706 0.05334775 -0.08052424
v 0.08173810 0.04822413 -0.07435127
v 0.07578687 0.04630338 -0.07435127
v 0.08918391 0.05610800 -0.08850684
v 0.08876435 0.06011119 -0.08850684
v 0.07578687 0.05275323 -0.07941158
v 0.07578687 0.04941643 -0.08117133
v 0.08849090 0.05918021 -0.08850684
f 1 2 3
f 1 3 9
f 1 9 16
f 1 16 20
f 1 20 17
f 1 17 10
f 1 10 4
f 1 4 5
f 1 5 2
f 2 5 6
f 2 6 7
f 2 7 8
f 2 8 3
f 3 8 9
f 4 10 11
f 4 11 5
f 5 11 12
f 5 12 6
f 6 12 15
f 6 15 14
f 6 14 7
f 7 13 8
f 7 14 13
f 8 13 9
f 9 13 14
f 9 14 15
f 9 15 16
f 10 17 11
f 11 18 19
f 11 19 15
f 11 15 12
f 11 17 18
f 15 19 16
f 16 19 20
f 17 20 19
f 17 19 18

