# https://github.com/mikedh/trimesh
v 0.03675904 0.02662881 -0.04996347
v 0.03675904 0.03126917 -0.04996347
v 0.03720742 0.02616976 -0.04996347
v 0.03675904 0.02584963 -0.04951543
v 0.03675904 0.03126917 -0.04678697
v 0.05773906 0.03126917 -0.04996347
v 0.03714514 0.02355588 -0.04603449
v 0.04490445 0.02656010 -0.04996347
v 0.03675904 0.02355588 -0.04606321
v 0.03675904 0.02409647 -0.03625797
v 0.04285149 0.02606406 -0.03880405
v 0.04977633 0.03126917 -0.04613070
v 0.05796532 0.03126917 -0.04893671
v 0.04701968 0.02355588 -0.03620771
v 0.05192062 0.02804523 -0.04996347
v 0.04201287 0.02355588 -0.04566256
v 0.03675904 0.02355588 -0.03555575
v 0.04188832 0.02355588 -0.03529439
v 0.05754186 0.03126917 -0.04765864
v 0.05470217 0.02895654 -0.04476503
v 0.04500823 0.02355588 -0.04452235
f 1 2 6
f 1 6 15
f 1 15 8
f 1 8 3
f 1 3 4
f 1 4 9
f 1 9 17
f 1 17 10
f 1 10 5
f 1 5 2
f 2 5 12
f 2 12 19
f 2 19 13
f 2 13 6
f 3 7 4
f 3 8 7
f 4 7 9
f 5 10 11
f 5 11 12
f 6 13 14
f 6 14 15
f 7 8 16
f 7 16 21
f 7 21 14
f 7 14 18
f 7 18 17
f 7 17 9
f 8 15 16
f 10 17 18
f 10 18 11
f 11 18 12
f 12 18 14
f 12 14 19
f 13 19 20
f 13 20 14
f 14 21 15
f 14 20 19
f 15 21 16

