# https://github.com/mikedh/trimesh
v 0.08872577 0.06299011 -0.09053870
v 0.08872577 0.06841069 -0.09069742
v 0.07777362 0.06841069 -0.08692563
v 0.08668545 0.06299011 -0.08995061
v 0.08872577 0.06299011 -0.09899173
v 0.08872577 0.06841069 -0.10021603
v 0.07777362 0.06471737 -0.08735108
v 0.07777362 0.06841069 -0.09621915
v 0.07777362 0.06299011 -0.08851814
v 0.08780800 0.06299011 -0.09949004
v 0.08872577 0.06337059 -0.09916086
v 0.08872577 0.06511961 -0.09993760
v 0.08607323 0.06299011 -0.09898653
v 0.08074137 0.06841069 -0.09789363
v 0.07841907 0.06841069 -0.09658345
v 0.07777362 0.06299011 -0.09430528
v 0.07809635 0.06299011 -0.09448743
f 1 2 3
f 1 3 4
f 1 4 9
f 1 9 16
f 1 16 17
f 1 17 13
f 1 13 10
f 1 10 5
f 1 5 11
f 1 11 12
f 1 12 6
f 1 6 2
f 2 6 14
f 2 14 15
f 2 15 8
f 2 8 3
f 3 7 4
f 3 8 16
f 3 16 9
f 3 9 7
f 4 7 9
f 5 10 11
f 6 12 13
f 6 13 14
f 8 15 17
f 8 17 16
f 10 12 11
f 10 13 12
f 13 17 14
f 14 17 15

