# https://github.com/mikedh/trimesh
v -0.01673366 -0.00993943 -0.00364459
v -0.00939540 -0.00993943 -0.00124416
v -0.04550852 -0.02981150 0.01826639
v -0.05296241 -0.02702125 0.01475744
v -0.03031611 -0.00993943 -0.00078161
v -0.00177251 -0.00993943 0.00189795
v -0.05499933 -0.03331880 0.02244523
v 0.01203231 -0.00993943 0.00771961
v 0.00301292 -0.02683420 0.03709109
v -0.06355619 -0.03647796 0.02621336
v -0.06649148 -0.02831765 0.02244523
v -0.06751440 -0.02841638 0.02303138
v -0.06664270 -0.02750708 0.02244523
v -0.04585542 -0.00993943 0.00871248
v 0.01764496 -0.00993943 0.01878475
v 0.02054469 -0.01578492 0.02749332
v 0.01639968 -0.01602913 0.02234554
v 0.00730024 -0.02488310 0.03709109
v -0.02425871 -0.03122481 0.03709109
v -0.05490149 -0.03506465 0.03709109
v -0.06276455 -0.03186652 0.03709109
v -0.06602006 -0.03100658 0.03124152
v -0.07030738 -0.02114199 0.02724610
v -0.06664270 -0.02750448 0.02244523
v -0.05123681 -0.01140990 0.01214168
v -0.04845272 -0.00993943 0.01045101
v 0.00470295 -0.00993943 0.02749731
v -0.00230620 -0.01547316 0.03709109
v 0.00486305 -0.02106405 0.03709109
v -0.05724083 -0.02240981 0.03709109
v -0.06392977 -0.01508606 0.03343062
v -0.06160821 -0.01259458 0.02364146
v -0.05630688 -0.00993943 0.02120513
v -0.03473685 -0.00993943 0.02651241
v -0.05443006 -0.00994203 0.02653235
v -0.01039163 -0.01562904 0.03709109
v -0.05721415 -0.02238903 0.03709109
v -0.03358942 -0.01712029 0.03709109
v -0.03291341 -0.01696961 0.03709109
v -0.05587103 -0.00993943 0.02244523
v -0.04566863 -0.00993943 0.02524042
f 1 2 3
f 1 3 4
f 1 4 5
f 1 5 14
f 1 14 26
f 1 26 33
f 1 33 40
f 1 40 41
f 1 41 34
f 1 34 27
f 1 27 15
f 1 15 8
f 1 8 6
f 1 6 2
f 2 6 3
f 3 7 4
f 3 6 8
f 3 8 9
f 3 9 7
f 4 7 10
f 4 10 11
f 4 11 5
f 5 11 12
f 5 12 13
f 5 13 14
f 7 9 10
f 8 15 16
f 8 16 17
f 8 17 9
f 9 17 18
f 9 18 29
f 9 29 28
f 9 28 36
f 9 36 39
f 9 39 38
f 9 38 37
f 9 37 30
f 9 30 21
f 9 21 20
f 9 20 19
f 9 19 10
f 10 20 21
f 10 21 22
f 10 22 12
f 10 12 11
f 10 19 20
f 12 22 23
f 12 23 24
f 12 24 13
f 13 24 25
f 13 25 14
f 14 25 26
f 15 27 16
f 16 27 28
f 16 28 29
f 16 29 18
f 16 18 17
f 21 30 31
f 21 31 23
f 21 23 22
f 23 31 32
f 23 32 25
f 23 25 24
f 25 32 26
f 26 32 33
f 27 34 35
f 27 35 28
f 28 35 36
f 30 37 31
f 31 37 38
f 31 38 39
f 31 39 36
f 31 36 35
f 31 35 40
f 31 40 32
f 32 40 33
f 34 41 35
f 35 41 40

