# https://github.com/mikedh/trimesh
v 0.03362243 0.03440404 -0.04996348
v 0.02821083 0.03126917 -0.04362285
v 0.03348161 0.03440404 -0.04976985
v 0.03547726 0.04114627 -0.04996348
v 0.04033362 0.03440404 -0.04996348
v 0.02095648 0.03126917 -0.03350521
v 0.03445127 0.03126917 -0.04362285
v 0.02077542 0.03126917 -0.02970755
v 0.04573314 0.04852034 -0.04996348
v 0.06187137 0.04506298 -0.04996348
v 0.04424043 0.03126917 -0.03076862
v 0.02885862 0.03126917 -0.02365091
v 0.04207176 0.04449863 -0.04362285
v 0.04622401 0.04868346 -0.04996348
v 0.06187942 0.04539672 -0.04996348
v 0.05604938 0.04050879 -0.04362285
v 0.04096530 0.03126917 -0.02716459
v 0.02894311 0.03126917 -0.02358895
v 0.06028611 0.05042339 -0.04996348
v 0.04387831 0.03517276 -0.03031683
v 0.03882078 0.03126917 -0.02508891
v 0.03551347 0.03126917 -0.02407431
v 0.03701423 0.03126917 -0.02453385
f 1 2 3
f 1 3 4
f 1 4 9
f 1 9 14
f 1 14 19
f 1 19 15
f 1 15 10
f 1 10 5
f 1 5 7
f 1 7 2
f 2 6 4
f 2 4 3
f 2 7 11
f 2 11 17
f 2 17 21
f 2 21 23
f 2 23 22
f 2 22 18
f 2 18 12
f 2 12 8
f 2 8 6
f 4 6 8
f 4 8 9
f 5 10 11
f 5 11 7
f 8 12 13
f 8 13 14
f 8 14 9
f 10 15 16
f 10 16 11
f 11 16 15
f 11 15 17
f 12 18 13
f 13 19 14
f 13 18 19
f 15 20 17
f 15 19 20
f 17 20 21
f 18 22 19
f 19 22 20
f 20 22 23
f 20 23 21

