# https://github.com/mikedh/trimesh
v 0.05096537 0.03780084 -0.05605489
v 0.05096537 0.03383744 -0.04996460
v 0.05096537 0.03780084 -0.06146410
v 0.04152710 0.03780084 -0.04996460
v 0.05096537 0.02784396 -0.04996460
v 0.05096537 0.03450693 -0.06146410
v 0.04493502 0.03780084 -0.06146410
v 0.03455418 0.03780084 -0.04996460
v 0.05096537 0.03285826 -0.05898183
v 0.04490288 0.02655964 -0.04996460
v 0.04871068 0.03439193 -0.06146410
v 0.04289277 0.03780084 -0.06038113
v 0.03539143 0.03780084 -0.05113313
v 0.03283861 0.03157622 -0.04996460
v 0.03720696 0.02616911 -0.04996460
v 0.04280351 0.03780084 -0.06033272
v 0.03766932 0.03780084 -0.05431111
v 0.03272972 0.03064145 -0.04996460
v 0.03862618 0.03780084 -0.05564512
v 0.03898321 0.03780084 -0.05604588
f 1 2 5
f 1 5 9
f 1 9 6
f 1 6 3
f 1 3 7
f 1 7 12
f 1 12 16
f 1 16 20
f 1 20 19
f 1 19 17
f 1 17 13
f 1 13 8
f 1 8 4
f 1 4 2
f 2 4 8
f 2 8 14
f 2 14 18
f 2 18 15
f 2 15 10
f 2 10 5
f 3 6 11
f 3 11 7
f 5 10 9
f 6 9 10
f 6 10 11
f 7 11 12
f 8 13 14
f 10 15 11
f 11 15 16
f 11 16 12
f 13 17 14
f 14 17 19
f 14 19 20
f 14 20 16
f 14 16 18
f 15 18 16

