# https://github.com/mikedh/trimesh
v 0.01810139 0.01733989 -0.03336886
v 0.02074823 0.01733989 -0.00933301
v 0.01927684 0.01388878 -0.03231816
v 0.01927684 0.01343109 -0.03213793
v 0.00465459 0.00743359 -0.02306121
v 0.00470044 0.01733989 -0.02459892
v 0.01506273 0.01733989 -0.00636879
v -0.01310635 0.00743359 0.00580636
v 0.01838066 0.00743359 -0.01286476
v 0.01927684 0.00743747 -0.01445616
v 0.01927684 0.00743359 -0.02247833
v 0.01927684 0.01337388 -0.03209575
v 0.01010250 0.00743359 -0.02484434
v -0.01053871 0.00743359 -0.01291077
v -0.01543641 0.00743359 -0.00963211
v -0.00250648 0.01733989 -0.01164533
v 0.00615933 0.01733989 -0.00534109
v -0.00465730 0.01213462 0.00074073
v -0.01776230 0.00743359 0.00516597
v -0.02183468 0.00743359 0.00270410
v -0.00924238 0.01388878 -0.00664872
f 1 2 3
f 1 3 4
f 1 4 5
f 1 5 6
f 1 6 16
f 1 16 17
f 1 17 7
f 1 7 2
f 2 7 8
f 2 8 9
f 2 9 10
f 2 10 11
f 2 11 12
f 2 12 4
f 2 4 3
f 4 12 13
f 4 13 5
f 5 14 6
f 5 13 11
f 5 11 9
f 5 9 8
f 5 8 19
f 5 19 20
f 5 20 15
f 5 15 14
f 6 14 15
f 6 15 16
f 7 17 18
f 7 18 8
f 8 18 19
f 9 11 10
f 11 13 12
f 15 20 21
f 15 21 16
f 16 21 20
f 16 20 17
f 17 20 19
f 17 19 18

