# https://github.com/mikedh/trimesh
v 0.08780833 0.06299011 -0.09949008
v 0.08728167 0.06176269 -0.09923311
v 0.08607536 0.06299011 -0.09898581
v 0.08970396 0.06299011 -0.09845788
v 0.07777255 0.05758261 -0.09212706
v 0.07777255 0.05873592 -0.09280337
v 0.07777255 0.06299011 -0.09430543
v 0.09755173 0.06299011 -0.09388395
v 0.09699989 0.05995121 -0.09262273
v 0.08960328 0.05765401 -0.09335602
v 0.07777255 0.05752400 -0.09203997
v 0.07777255 0.06299011 -0.08851760
v 0.09714511 0.06299011 -0.08859608
v 0.09704636 0.06286683 -0.08850684
v 0.09423681 0.05770589 -0.08850684
v 0.08918310 0.05610863 -0.08850684
v 0.08848990 0.05918188 -0.08850684
v 0.08876486 0.06011154 -0.08850684
v 0.09704055 0.06299011 -0.08850684
v 0.09711219 0.06299011 -0.08850684
f 1 2 3
f 1 3 7
f 1 7 12
f 1 12 19
f 1 19 20
f 1 20 13
f 1 13 8
f 1 8 4
f 1 4 2
f 2 5 6
f 2 6 7
f 2 7 3
f 2 4 8
f 2 8 9
f 2 9 10
f 2 10 5
f 5 11 12
f 5 12 7
f 5 7 6
f 5 10 11
f 8 13 9
f 9 13 14
f 9 14 15
f 9 15 10
f 10 15 16
f 10 16 11
f 11 16 12
f 12 16 17
f 12 17 18
f 12 18 19
f 13 20 14
f 14 20 19
f 14 19 18
f 14 18 17
f 14 17 16
f 14 16 15

