# https://github.com/mikedh/trimesh
v 0.07344966 0.07037412 -0.08231360
v 0.07451206 0.07027953 -0.08231360
v 0.07777122 0.07283318 -0.08518311
v 0.07621695 0.07256746 -0.08558251
v 0.07146350 0.06859061 -0.08231360
v 0.07576373 0.05021067 -0.08231360
v 0.07777122 0.06471511 -0.08735126
v 0.07777122 0.07308764 -0.08599722
v 0.07777122 0.07321375 -0.08726081
v 0.07777122 0.07126586 -0.09312231
v 0.07777122 0.06990797 -0.09650256
v 0.06460524 0.06095895 -0.08231360
v 0.06567963 0.05182528 -0.08231360
v 0.07763526 0.05752257 -0.09202432
v 0.07777122 0.05758337 -0.09212591
v 0.07777122 0.05752482 -0.09203824
v 0.07777122 0.06981114 -0.09650672
v 0.06415469 0.05297825 -0.08231360
v 0.06778043 0.05555442 -0.08604453
v 0.07777122 0.05873634 -0.09280223
v 0.07777122 0.06928420 -0.09652899
f 1 2 3
f 1 3 4
f 1 4 5
f 1 5 12
f 1 12 18
f 1 18 13
f 1 13 6
f 1 6 2
f 2 6 3
f 3 7 16
f 3 16 15
f 3 15 20
f 3 20 21
f 3 21 17
f 3 17 11
f 3 11 10
f 3 10 9
f 3 9 8
f 3 8 4
f 3 6 7
f 4 8 9
f 4 9 10
f 4 10 11
f 4 11 12
f 4 12 5
f 6 13 14
f 6 14 15
f 6 15 16
f 6 16 7
f 11 17 18
f 11 18 12
f 13 18 19
f 13 19 14
f 14 20 15
f 14 19 20
f 17 21 18
f 18 21 19
f 19 21 20

