# https://github.com/mikedh/trimesh
v 0.09903903 0.06841069 -0.08936563
v 0.09668359 0.06841069 -0.08506081
v 0.09714903 0.06303947 -0.08853209
v 0.09714600 0.06299011 -0.08859609
v 0.09755288 0.06299011 -0.09388226
v 0.09881995 0.06841069 -0.09377864
v 0.09708644 0.06299011 -0.08847571
v 0.09710865 0.06299011 -0.08849704
v 0.08978587 0.06841069 -0.08978315
v 0.08872578 0.06299011 -0.09053898
v 0.08970612 0.06299011 -0.09845833
v 0.09834745 0.06736160 -0.09569562
v 0.09772148 0.06841069 -0.09582667
v 0.08872578 0.06841069 -0.09069745
v 0.08872578 0.06299011 -0.09899167
v 0.08872578 0.06337059 -0.09916081
v 0.09014429 0.06841069 -0.10062674
v 0.09429786 0.06841069 -0.09836537
v 0.08872578 0.06841069 -0.10021531
v 0.08872578 0.06511961 -0.09993644
v 0.08988078 0.06841069 -0.10055055
v 0.08872578 0.06676674 -0.10007664
f 1 2 3
f 1 3 4
f 1 4 5
f 1 5 6
f 1 6 13
f 1 13 18
f 1 18 17
f 1 17 21
f 1 21 19
f 1 19 14
f 1 14 9
f 1 9 2
f 2 7 8
f 2 8 3
f 2 9 10
f 2 10 7
f 3 8 4
f 4 8 7
f 4 7 10
f 4 10 15
f 4 15 11
f 4 11 5
f 5 11 12
f 5 12 6
f 6 12 13
f 9 14 10
f 10 14 19
f 10 19 22
f 10 22 20
f 10 20 16
f 10 16 15
f 11 15 16
f 11 16 17
f 11 17 12
f 12 17 18
f 12 18 13
f 16 20 17
f 17 20 21
f 19 21 22
f 20 22 21

