# https://github.com/mikedh/trimesh
v 0.05746576 0.04902926 -0.06806626
v 0.05691859 0.04902926 -0.06692432
v 0.07757584 0.04757939 -0.06806626
v 0.05100193 0.04902926 -0.06806626
v 0.05546497 0.04902926 -0.06389920
v 0.07109223 0.04230140 -0.06146410
v 0.07446094 0.04300341 -0.06806626
v 0.05363888 0.04902926 -0.06146410
v 0.05097556 0.04881150 -0.06806626
v 0.04915935 0.04902926 -0.06599888
v 0.06794766 0.03844176 -0.06146410
v 0.06775977 0.03821397 -0.06146410
v 0.06971771 0.03960080 -0.06396641
v 0.07110871 0.04192031 -0.06806626
v 0.04698716 0.04902926 -0.06146410
v 0.05031632 0.04313952 -0.06806626
v 0.04423813 0.04146042 -0.06146410
v 0.04455457 0.04417678 -0.06146410
v 0.04906376 0.04902926 -0.06589096
v 0.06653689 0.03753631 -0.06146410
v 0.05707681 0.03920395 -0.06806626
v 0.05263684 0.03459216 -0.06146410
v 0.04706297 0.04902926 -0.06310301
v 0.04561924 0.04804501 -0.06146410
v 0.04871437 0.03439445 -0.06146410
v 0.04390522 0.03858216 -0.06146410
v 0.05531994 0.03911512 -0.06806626
f 1 2 3
f 1 3 7
f 1 7 14
f 1 14 21
f 1 21 27
f 1 27 16
f 1 16 9
f 1 9 4
f 1 4 10
f 1 10 19
f 1 19 23
f 1 23 15
f 1 15 8
f 1 8 5
f 1 5 2
f 2 5 3
f 3 6 7
f 3 5 8
f 3 8 6
f 4 9 10
f 6 11 7
f 6 8 15
f 6 15 24
f 6 24 18
f 6 18 17
f 6 17 26
f 6 26 25
f 6 25 22
f 6 22 20
f 6 20 12
f 6 12 11
f 7 11 12
f 7 12 13
f 7 13 14
f 9 16 17
f 9 17 18
f 9 18 10
f 10 18 19
f 12 20 13
f 13 20 14
f 14 20 22
f 14 22 21
f 15 23 24
f 16 25 26
f 16 26 17
f 16 27 25
f 18 24 23
f 18 23 19
f 21 22 27
f 22 25 27

