# https://github.com/mikedh/trimesh
v 0.03272840 0.03064024 -0.04996204
v 0.03280175 0.03126917 -0.04996204
v 0.03675904 0.02662881 -0.04996204
v 0.03675904 0.02584963 -0.04951644
v 0.03354844 0.02355588 -0.04630809
v 0.02660813 0.02355588 -0.04221860
v 0.01839260 0.02355588 -0.03684260
v 0.03255160 0.03126917 -0.04968318
v 0.03675904 0.03126917 -0.04996204
v 0.03675904 0.02355588 -0.04606372
v 0.01903773 0.02355588 -0.03527867
v 0.01754434 0.02355663 -0.03527867
v 0.02222764 0.03126917 -0.03527867
v 0.03675904 0.03126917 -0.04678676
v 0.03675904 0.02355588 -0.03555610
v 0.02527649 0.02355588 -0.03527867
v 0.03378543 0.03126917 -0.03527867
v 0.03675904 0.02409647 -0.03625757
f 1 2 9
f 1 9 3
f 1 3 4
f 1 4 5
f 1 5 6
f 1 6 7
f 1 7 2
f 2 7 8
f 2 8 13
f 2 13 17
f 2 17 14
f 2 14 9
f 3 9 14
f 3 14 18
f 3 18 15
f 3 15 10
f 3 10 4
f 4 10 5
f 5 10 15
f 5 15 16
f 5 16 11
f 5 11 7
f 5 7 6
f 7 11 12
f 7 12 13
f 7 13 8
f 11 16 17
f 11 17 13
f 11 13 12
f 14 17 18
f 15 18 17
f 15 17 16

