# https://github.com/mikedh/trimesh
v 0.02311270 -0.00989975 0.01320883
v 0.02030503 0.00294157 0.00778301
v 0.01765367 -0.00993683 0.01878976
v 0.01203834 -0.00993683 0.00771786
v 0.01137883 -0.00901399 0.00550286
v 0.00654881 -0.00442689 -0.00419165
v 0.00838628 0.00042266 -0.00419165
v 0.00364013 -0.00312750 0.01464827
v 0.00471325 -0.00993683 0.02750086
v 0.01135406 0.00257073 -0.00100875
v 0.00737034 0.00442497 -0.00419165
v 0.00576160 0.00451483 -0.00419165
v 0.00364013 0.00463321 -0.00419165
v 0.00364013 -0.00993683 0.00617605
v 0.00364013 -0.00955743 0.00338093
v 0.00364013 -0.00510012 -0.00419165
v 0.00364013 -0.00993683 0.02721856
f 1 2 3
f 1 3 4
f 1 4 5
f 1 5 6
f 1 6 7
f 1 7 2
f 2 8 9
f 2 9 3
f 2 7 10
f 2 10 11
f 2 11 12
f 2 12 13
f 2 13 8
f 3 9 17
f 3 17 14
f 3 14 4
f 4 14 15
f 4 15 5
f 5 15 6
f 6 16 13
f 6 13 12
f 6 12 11
f 6 11 7
f 6 15 16
f 7 11 10
f 8 17 9
f 8 13 16
f 8 16 15
f 8 15 14
f 8 14 17

