# https://github.com/mikedh/trimesh
v 0.04390068 0.03858161 -0.06146410
v 0.04347168 0.03780084 -0.06068846
v 0.04289325 0.03780084 -0.06038113
v 0.04280327 0.03780084 -0.06033272
v 0.03862573 0.03780084 -0.05564512
v 0.04321942 0.04236134 -0.06020664
v 0.04434093 0.04236134 -0.06146410
v 0.04414491 0.03839724 -0.06146410
v 0.04493542 0.03780084 -0.06146410
v 0.03455263 0.03780084 -0.04996460
v 0.04286272 0.04236134 -0.05980587
v 0.05096554 0.04236134 -0.06146410
v 0.05096554 0.03780084 -0.06146410
v 0.03547490 0.04114533 -0.04996460
v 0.04152751 0.03780084 -0.04996460
v 0.03726160 0.04236134 -0.05198982
v 0.05096554 0.04236134 -0.06142244
v 0.05096554 0.03780084 -0.05605489
v 0.03716520 0.04236134 -0.04996460
v 0.04815856 0.04236134 -0.04996460
f 1 2 3
f 1 3 4
f 1 4 5
f 1 5 6
f 1 6 7
f 1 7 12
f 1 12 13
f 1 13 9
f 1 9 8
f 1 8 2
f 2 8 9
f 2 9 13
f 2 13 18
f 2 18 15
f 2 15 10
f 2 10 5
f 2 5 4
f 2 4 3
f 5 10 11
f 5 11 6
f 6 11 16
f 6 16 19
f 6 19 20
f 6 20 17
f 6 17 12
f 6 12 7
f 10 14 11
f 10 15 20
f 10 20 19
f 10 19 14
f 11 14 16
f 12 17 18
f 12 18 13
f 14 19 16
f 15 18 20
f 17 20 18

