# https://github.com/mikedh/trimesh
v 0.05098882 0.04236134 -0.06146410
v 0.05096912 0.04235992 -0.06146410
v 0.05096912 0.04236134 -0.06142244
v 0.07109485 0.04230165 -0.06146410
v 0.05096912 0.03450830 -0.06146410
v 0.05096912 0.03383895 -0.04996460
v 0.05339839 0.03399243 -0.04996460
v 0.05980553 0.03311135 -0.04996460
v 0.05876919 0.03183945 -0.04996460
v 0.06776125 0.03821313 -0.06146410
v 0.05096912 0.03285981 -0.05898183
v 0.05263592 0.03459214 -0.06146410
v 0.05096912 0.02784472 -0.04996460
v 0.05192270 0.02804652 -0.04996460
v 0.06653775 0.03753526 -0.06146410
v 0.05621383 0.03534817 -0.06146410
f 1 2 3
f 1 3 4
f 1 4 10
f 1 10 15
f 1 15 16
f 1 16 12
f 1 12 5
f 1 5 2
f 2 5 11
f 2 11 13
f 2 13 6
f 2 6 3
f 3 6 7
f 3 7 4
f 4 7 8
f 4 8 9
f 4 9 10
f 5 12 11
f 6 13 14
f 6 14 9
f 6 9 8
f 6 8 7
f 9 14 15
f 9 15 10
f 11 12 13
f 12 16 13
f 13 16 14
f 14 16 15

