# https://github.com/mikedh/trimesh
v 0.00364012 0.00701427 -0.02243193
v 0.00364012 0.00743271 -0.02237995
v 0.00364012 0.00324918 -0.01973999
v -0.00643021 -0.00156509 -0.01300084
v -0.01728333 -0.00156509 -0.00944748
v -0.01744834 -0.00156509 -0.00933980
v -0.01054720 0.00743271 -0.01290802
v 0.00364012 0.00743271 -0.00579757
v 0.00364012 -0.00156509 -0.01166787
v -0.00380262 -0.00156509 -0.01385855
v -0.02053715 -0.00156509 -0.00727164
v -0.03119562 -0.00156509 -0.00013149
v -0.01544274 0.00743271 -0.00962570
v 0.00364012 -0.00156509 0.00789978
v -0.01311133 0.00743271 0.00580564
v -0.03254116 -0.00156509 0.00077077
v -0.03958616 -0.00156509 0.01353616
v -0.02183190 0.00743271 0.00270526
v -0.02928310 -0.00156509 0.01550035
v -0.01776992 0.00743271 0.00516699
v -0.03895994 -0.00156509 0.01529985
v -0.03130563 0.00257792 0.00974145
f 1 2 8
f 1 8 14
f 1 14 9
f 1 9 3
f 1 3 4
f 1 4 5
f 1 5 6
f 1 6 7
f 1 7 2
f 2 7 13
f 2 13 18
f 2 18 20
f 2 20 15
f 2 15 8
f 3 9 10
f 3 10 4
f 4 10 9
f 4 9 14
f 4 14 19
f 4 19 21
f 4 21 17
f 4 17 16
f 4 16 12
f 4 12 11
f 4 11 6
f 4 6 5
f 6 11 7
f 7 11 12
f 7 12 13
f 8 15 14
f 12 16 13
f 13 16 17
f 13 17 18
f 14 15 19
f 15 20 21
f 15 21 19
f 17 21 22
f 17 22 18
f 18 22 20
f 20 22 21

