# https://github.com/mikedh/trimesh
v 0.09055979 0.06938070 -0.10083145
v 0.09431350 0.07412127 -0.09653881
v 0.09772184 0.06841122 -0.09582639
v 0.09429839 0.06841122 -0.09836608
v 0.09014318 0.06841122 -0.10062660
v 0.08987984 0.06841122 -0.10055047
v 0.08074272 0.06841122 -0.09789295
v 0.07867051 0.07051843 -0.09746876
v 0.08582393 0.07655432 -0.09595148
v 0.09096559 0.07750600 -0.08952159
v 0.09982427 0.07063951 -0.08971012
v 0.09882054 0.06841122 -0.09377796
v 0.07777255 0.06841122 -0.09621976
v 0.07777255 0.06928633 -0.09652793
v 0.07777255 0.06990862 -0.09650256
v 0.07777255 0.07126803 -0.09312174
v 0.07777255 0.07321322 -0.08726107
v 0.07777255 0.07308859 -0.08599757
v 0.09640513 0.07160899 -0.08299562
v 0.07777255 0.07283486 -0.08518363
v 0.08665282 0.07435096 -0.08289954
v 0.09903856 0.06841122 -0.08936569
v 0.09668358 0.06841122 -0.08506218
v 0.07777255 0.06841122 -0.08692570
v 0.09572087 0.07126624 -0.08231220
v 0.08679312 0.07384619 -0.08231220
v 0.08842283 0.06974481 -0.08231220
v 0.09550070 0.07081667 -0.08231220
v 0.08864947 0.06971455 -0.08231220
f 1 2 3
f 1 3 4
f 1 4 5
f 1 5 6
f 1 6 7
f 1 7 8
f 1 8 9
f 1 9 2
f 2 9 10
f 2 10 11
f 2 11 3
f 3 11 12
f 3 12 22
f 3 22 23
f 3 23 24
f 3 24 13
f 3 13 7
f 3 7 6
f 3 6 5
f 3 5 4
f 7 13 8
f 8 13 14
f 8 14 15
f 8 15 16
f 8 16 9
f 9 16 17
f 9 17 18
f 9 18 10
f 10 19 11
f 10 18 20
f 10 20 21
f 10 21 19
f 11 22 12
f 11 19 23
f 11 23 22
f 13 24 20
f 13 20 18
f 13 18 17
f 13 17 16
f 13 16 15
f 13 15 14
f 19 25 23
f 19 21 26
f 19 26 25
f 20 24 27
f 20 27 26
f 20 26 21
f 23 25 28
f 23 28 29
f 23 29 24
f 24 29 27
f 25 26 27
f 25 27 29
f 25 29 28

