# https://github.com/mikedh/trimesh
v 0.01010495 0.00743359 -0.02484700
v 0.00466121 0.00743359 -0.02306372
v 0.02463119 0.00743359 -0.02127235
v 0.00364013 0.00324966 -0.01973977
v 0.00364013 0.00664343 -0.02216601
v 0.00364013 0.00701397 -0.02243087
v 0.00364013 0.00743359 -0.02238235
v 0.02471371 0.00743359 -0.02096300
v 0.02423720 0.00708514 -0.02073251
v 0.00364013 -0.00333912 -0.00879947
v 0.00364013 0.00743359 -0.00579903
v 0.02062111 0.00743359 -0.01439195
v 0.00655074 -0.00442621 -0.00419165
v 0.00364013 -0.00510103 -0.00419165
v 0.00364013 0.00463367 -0.00419165
v 0.00576069 0.00451588 -0.00419165
v 0.00736967 0.00442509 -0.00419165
v 0.01838503 0.00743359 -0.01285937
v 0.00838663 0.00042520 -0.00419165
f 1 2 7
f 1 7 11
f 1 11 18
f 1 18 12
f 1 12 8
f 1 8 3
f 1 3 4
f 1 4 5
f 1 5 6
f 1 6 2
f 2 6 7
f 3 8 9
f 3 9 10
f 3 10 4
f 4 10 14
f 4 14 15
f 4 15 11
f 4 11 7
f 4 7 6
f 4 6 5
f 8 12 13
f 8 13 9
f 9 13 10
f 10 13 14
f 11 15 16
f 11 16 17
f 11 17 18
f 12 19 13
f 12 18 17
f 12 17 19
f 13 19 17
f 13 17 16
f 13 16 15
f 13 15 14

