# https://github.com/mikedh/trimesh
v 0.00712097 0.01843937 -0.02676570
v 0.00800919 0.01733989 -0.02676570
v 0.00470168 0.01733989 -0.02459912
v -0.00251126 0.01733989 -0.01164373
v 0.01293072 0.02355527 -0.02676570
v 0.01727853 0.01733989 -0.02676570
v 0.00961629 0.02355527 -0.02064770
v 0.00616708 0.01733989 -0.00533907
v 0.01908954 0.02355527 -0.01260222
v 0.02301225 0.02355527 -0.02676570
v 0.03122401 0.02355527 -0.02056171
v 0.03279655 0.02355527 -0.01860277
v 0.02074848 0.01733989 -0.00933034
v 0.01507006 0.01733989 -0.00636468
v 0.02370347 0.01961856 -0.00947506
v 0.02342007 0.02355527 -0.01310140
v 0.02881163 0.02355527 -0.01475202
f 1 2 3
f 1 3 4
f 1 4 5
f 1 5 10
f 1 10 6
f 1 6 2
f 2 6 13
f 2 13 14
f 2 14 8
f 2 8 4
f 2 4 3
f 4 7 5
f 4 8 9
f 4 9 7
f 5 7 9
f 5 9 16
f 5 16 17
f 5 17 12
f 5 12 11
f 5 11 10
f 6 10 11
f 6 11 12
f 6 12 13
f 8 14 15
f 8 15 9
f 9 15 16
f 12 17 15
f 12 15 13
f 13 15 14
f 15 17 16

