# https://github.com/mikedh/trimesh
v 0.03824842 0.01733989 -0.02753117
v 0.03778110 0.01733989 -0.02678092
v 0.02062439 0.00743359 -0.01439041
v 0.02471589 0.00743359 -0.02096761
v 0.03585070 0.01733989 -0.03663877
v 0.01810442 0.01733989 -0.02751299
v 0.01928553 0.00743747 -0.01446089
v 0.01928553 0.00743359 -0.01445861
v 0.02463505 0.00743359 -0.02127453
v 0.03329326 0.01733989 -0.03697070
v 0.01928553 0.00743359 -0.02248403
v 0.01810442 0.01388878 -0.02302967
v 0.01810442 0.01733989 -0.03337177
v 0.02485589 0.01733989 -0.03761637
v 0.01928553 0.01337388 -0.03209861
v 0.01810442 0.01388878 -0.03152115
v 0.01810442 0.01389266 -0.03155070
v 0.02221564 0.01733989 -0.03605903
v 0.01928553 0.01343109 -0.03213726
v 0.02263169 0.01733989 -0.03630457
f 1 2 3
f 1 3 4
f 1 4 5
f 1 5 10
f 1 10 14
f 1 14 20
f 1 20 18
f 1 18 13
f 1 13 6
f 1 6 2
f 2 6 3
f 3 7 8
f 3 8 11
f 3 11 9
f 3 9 4
f 3 6 7
f 4 9 5
f 5 9 11
f 5 11 10
f 6 12 7
f 6 13 17
f 6 17 16
f 6 16 12
f 7 12 8
f 8 12 16
f 8 16 11
f 10 11 15
f 10 15 14
f 11 16 17
f 11 17 15
f 13 18 19
f 13 19 17
f 14 15 19
f 14 19 20
f 15 17 19
f 18 20 19

