# https://github.com/mikedh/trimesh
v 0.07344826 0.07037400 -0.08231220
v 0.07279509 0.06561176 -0.07435127
v 0.07451160 0.07028056 -0.08231220
v 0.07146399 0.06859221 -0.08231220
v 0.06670915 0.06503486 -0.07435127
v 0.07456732 0.06342875 -0.07435127
v 0.07302881 0.06183511 -0.08231220
v 0.06635781 0.06290917 -0.08231220
v 0.05989267 0.05891198 -0.07435127
v 0.07280283 0.05932191 -0.07435127
v 0.07127051 0.05764603 -0.08231220
v 0.06460571 0.06095792 -0.08231220
v 0.05973479 0.05764603 -0.07706387
v 0.05946083 0.05764603 -0.07630488
v 0.05875659 0.05764603 -0.07435127
v 0.06882499 0.05764603 -0.07435127
v 0.06448343 0.05764603 -0.08231220
v 0.06454843 0.05941536 -0.08231220
f 1 2 3
f 1 3 7
f 1 7 11
f 1 11 17
f 1 17 18
f 1 18 12
f 1 12 8
f 1 8 4
f 1 4 5
f 1 5 2
f 2 6 3
f 2 5 9
f 2 9 15
f 2 15 16
f 2 16 10
f 2 10 6
f 3 6 7
f 4 8 9
f 4 9 5
f 6 10 11
f 6 11 7
f 8 12 13
f 8 13 9
f 9 13 14
f 9 14 15
f 10 16 11
f 11 16 15
f 11 15 14
f 11 14 13
f 11 13 17
f 12 18 13
f 13 18 17

