# https://github.com/mikedh/trimesh
v -0.00380108 -0.00156597 -0.01386210
v -0.00650644 -0.00156597 -0.01297737
v 0.00364013 -0.00156597 -0.01166637
v 0.00364013 -0.00314411 -0.00911272
v 0.00364013 -0.00333994 -0.00879502
v -0.01673515 -0.00993683 -0.00364349
v -0.03031476 -0.00993683 -0.00078421
v -0.01728092 -0.00156597 -0.00944650
v 0.00364013 -0.00156597 0.00790221
v 0.00364013 -0.00955746 0.00338205
v -0.00939958 -0.00993683 -0.00124266
v -0.04585443 -0.00993683 0.00870248
v -0.02152968 -0.00330799 -0.00681243
v -0.01744523 -0.00156597 -0.00933792
v 0.00364013 -0.00312772 0.01464625
v -0.02928191 -0.00156597 0.01549880
v 0.00364013 -0.00993683 0.00617699
v -0.00177059 -0.00993683 0.00189812
v -0.04845416 -0.00993683 0.01044379
v -0.02054378 -0.00156597 -0.00727088
v 0.00364013 -0.00661340 0.02108466
v -0.03895900 -0.00156597 0.01530175
v -0.05442825 -0.00993683 0.02653378
v 0.00364013 -0.00993683 0.02722145
v -0.05630615 -0.00993683 0.02120932
v -0.03253890 -0.00156597 0.00077210
v -0.03958105 -0.00156597 0.01353632
f 1 2 8
f 1 8 14
f 1 14 20
f 1 20 26
f 1 26 27
f 1 27 22
f 1 22 16
f 1 16 9
f 1 9 3
f 1 3 4
f 1 4 5
f 1 5 6
f 1 6 7
f 1 7 2
f 2 7 8
f 3 9 15
f 3 15 21
f 3 21 24
f 3 24 17
f 3 17 10
f 3 10 5
f 3 5 4
f 5 10 11
f 5 11 6
f 6 11 18
f 6 18 17
f 6 17 24
f 6 24 23
f 6 23 25
f 6 25 19
f 6 19 12
f 6 12 7
f 7 12 13
f 7 13 8
f 8 13 14
f 9 16 15
f 10 17 18
f 10 18 11
f 12 19 20
f 12 20 13
f 13 20 14
f 15 16 21
f 16 22 23
f 16 23 24
f 16 24 21
f 19 25 26
f 19 26 20
f 22 27 25
f 22 25 23
f 25 27 26

