# https://github.com/mikedh/trimesh
v -0.00229918 -0.01547068 0.03709110
v 0.00486939 -0.02106782 0.03709110
v -0.01039384 -0.01562816 0.03709110
v -0.01562108 -0.02539832 0.05698397
v 0.00730465 -0.02488825 0.03709110
v -0.03291484 -0.01696667 0.03709110
v -0.03112441 -0.03384709 0.06685924
v -0.01053104 -0.02889696 0.05330023
v -0.04325268 -0.03075925 0.05822770
v -0.00520777 -0.03347394 0.04614964
v 0.00301722 -0.02683954 0.03709110
v -0.05721940 -0.02238922 0.03709110
v -0.04826726 -0.04424714 0.07170877
v -0.03254440 -0.04364806 0.06504957
v -0.03562450 -0.04829694 0.06221983
v -0.02425767 -0.03122825 0.03709110
v -0.05723998 -0.02240634 0.03709110
v -0.06277591 -0.03187525 0.03709110
v -0.04607210 -0.05044336 0.06871975
v -0.05490076 -0.03506579 0.03709110
f 1 2 5
f 1 5 11
f 1 11 16
f 1 16 20
f 1 20 18
f 1 18 17
f 1 17 12
f 1 12 6
f 1 6 3
f 1 3 4
f 1 4 2
f 2 4 5
f 3 6 4
f 4 7 8
f 4 8 5
f 4 6 9
f 4 9 7
f 5 8 10
f 5 10 11
f 6 12 9
f 7 9 13
f 7 13 14
f 7 14 8
f 8 14 10
f 9 12 13
f 10 14 15
f 10 15 11
f 11 15 16
f 12 17 13
f 13 17 18
f 13 18 19
f 13 19 14
f 14 19 15
f 15 19 20
f 15 20 16
f 18 20 19

