# https://github.com/mikedh/trimesh
v 0.03354917 0.02355527 -0.04630713
v 0.02769472 0.02355527 -0.04285988
v 0.03714230 0.02355527 -0.04603357
v 0.02485537 0.01733989 -0.03761631
v 0.02221520 0.01733989 -0.03606294
v 0.02660897 0.02355527 -0.04221711
v 0.04200865 0.02355527 -0.04566245
v 0.03329141 0.01733989 -0.03697162
v 0.00801064 0.01733989 -0.02676570
v 0.00712017 0.01843937 -0.02676570
v 0.01839165 0.02355527 -0.03684154
v 0.04500422 0.02355527 -0.04452229
v 0.03702123 0.01837183 -0.03823995
v 0.03584956 0.01733989 -0.03663876
v 0.01728247 0.01733989 -0.02676570
v 0.01293166 0.02355527 -0.02676570
v 0.04701950 0.02355527 -0.03620833
v 0.03824758 0.01733989 -0.02753282
v 0.02301585 0.02355527 -0.02676570
v 0.03777891 0.01733989 -0.02678291
v 0.03998946 0.01861582 -0.02837837
f 1 2 6
f 1 6 11
f 1 11 16
f 1 16 19
f 1 19 17
f 1 17 12
f 1 12 7
f 1 7 3
f 1 3 4
f 1 4 5
f 1 5 2
f 2 5 6
f 3 7 4
f 4 7 8
f 4 8 14
f 4 14 18
f 4 18 20
f 4 20 15
f 4 15 9
f 4 9 5
f 5 9 10
f 5 10 11
f 5 11 6
f 7 12 13
f 7 13 8
f 8 13 14
f 9 15 19
f 9 19 16
f 9 16 10
f 10 16 11
f 12 17 18
f 12 18 14
f 12 14 13
f 15 20 19
f 17 21 18
f 17 19 21
f 18 21 20
f 19 20 21

