# https://github.com/mikedh/trimesh
v -0.06752462 -0.02841901 0.02303195
v -0.07031628 -0.02113825 0.02725040
v -0.06393889 -0.01508334 0.03344055
v -0.06603225 -0.03100887 0.03124896
v -0.05124244 -0.01140364 0.01213901
v -0.05296991 -0.02702286 0.01475665
v -0.06161624 -0.01259146 0.02364273
v -0.06356134 -0.03647796 0.02621444
v -0.05725101 -0.02236956 0.03704856
v -0.05603749 -0.03138943 0.02604253
v -0.05494586 -0.03395059 0.05113882
v -0.05307782 -0.04100464 0.05492971
v -0.03130698 0.00257755 0.00974176
v -0.04551233 -0.02981443 0.01827190
v -0.03266491 -0.01793259 0.03854843
v -0.03594111 -0.00526898 0.01948909
v -0.02152486 -0.00330732 -0.00681598
v -0.04826915 -0.04424948 0.07171215
v -0.02313681 -0.02955028 0.03462187
v -0.04325882 -0.03075638 0.05822891
v -0.04607607 -0.05044336 0.06872013
v -0.03490989 -0.02067053 0.01770995
v -0.03563101 -0.04829756 0.06222222
v -0.03112753 -0.03385034 0.06685977
v -0.01750663 -0.01043678 -0.00303436
v -0.03254986 -0.04364812 0.06505214
v -0.01062019 -0.01055760 -0.00053546
v -0.01716324 -0.01184018 0.00667856
v -0.00466213 0.01213442 0.00074281
v -0.00520191 -0.03347714 0.04614795
v -0.00548664 -0.00645197 0.01840833
v -0.01052536 -0.02889426 0.05329905
v -0.01561526 -0.02539799 0.05698553
v -0.00484352 0.01300825 -0.01607047
v 0.01640375 -0.01602765 0.02234971
v 0.00962107 0.02355962 -0.02065382
v 0.00087402 -0.01310694 0.03235413
v 0.00416003 0.00592012 -0.00675344
v 0.01137712 -0.00901508 0.00550239
v 0.00668243 -0.02014367 0.03518323
v 0.00444476 -0.00242796 -0.00841568
v 0.01952155 0.01352897 -0.03228704
v 0.03048850 0.02904765 -0.04765638
v 0.01135285 0.00257137 -0.00101118
v 0.01230816 0.01082474 -0.00891466
v 0.02327602 0.02556785 -0.01495231
v 0.01952298 0.00679915 -0.01359677
v 0.01065810 0.01453318 -0.01711194
v 0.01810767 0.01807139 -0.02846329
v 0.02055358 -0.01578253 0.02749664
v 0.02423906 0.00708619 -0.02073448
v 0.01802302 0.01080092 -0.01901631
v 0.01726160 -0.00914419 0.01761154
v 0.02311270 -0.00990065 0.01320923
v 0.02030686 0.00294288 0.00778268
v 0.03702178 0.01837161 -0.03824030
v 0.04678750 0.04924792 -0.05081591
v 0.02400484 0.02138536 -0.01828950
v 0.02370383 0.01961835 -0.00947468
v 0.03503699 0.03439114 -0.04272332
v 0.03999136 0.01861558 -0.02837821
v 0.04285062 0.02606359 -0.03880290
v 0.05249995 0.05272778 -0.06926648
v 0.04580385 0.03734177 -0.05585200
v 0.03635621 0.02509736 -0.02217816
v 0.04388105 0.03517131 -0.03031549
v 0.04849221 0.04071543 -0.04546524
v 0.05470353 0.02895723 -0.04476630
v 0.06067465 0.04294340 -0.07342128
v 0.06778019 0.05555300 -0.08604428
v 0.06341825 0.04627213 -0.05164335
v 0.05888027 0.05316259 -0.06674491
v 0.06416356 0.05402274 -0.05460023
v 0.06494419 0.04266933 -0.06218013
v 0.06543658 0.05632556 -0.07713932
v 0.06971945 0.03960044 -0.06396639
v 0.07553684 0.04931669 -0.08112806
v 0.07621748 0.07256841 -0.08558173
v 0.08033676 0.04982733 -0.07087880
v 0.07866909 0.07051779 -0.09746971
v 0.07400698 0.05928553 -0.08588767
v 0.07139511 0.06609881 -0.07633200
v 0.07528089 0.05268609 -0.07925493
v 0.08072923 0.05767218 -0.06708709
v 0.07728115 0.06114238 -0.07265675
v 0.07596397 0.06451212 -0.06986835
v 0.07763601 0.05752230 -0.09202439
v 0.08123731 0.06971466 -0.08869660
v 0.08728042 0.06176330 -0.09923382
v 0.08582290 0.07655456 -0.09595277
v 0.08887895 0.05334777 -0.08052320
v 0.08849707 0.06765657 -0.07511283
v 0.08999335 0.06817327 -0.09114777
v 0.08665272 0.07435162 -0.08289936
v 0.08874239 0.05448225 -0.08340690
v 0.09002943 0.05746406 -0.08212419
v 0.08960488 0.05765354 -0.09335543
v 0.08793482 0.06419647 -0.07659946
v 0.09056053 0.06937992 -0.10083145
v 0.08862230 0.06974488 -0.08213449
v 0.09096708 0.07750600 -0.08952057
v 0.08840090 0.06087411 -0.09034401
v 0.09640714 0.07160845 -0.08299547
v 0.09714910 0.06303916 -0.08853102
v 0.09431474 0.07412153 -0.09653993
v 0.09700163 0.05995155 -0.09262246
v 0.09834793 0.06736194 -0.09569643
v 0.09982427 0.07063916 -0.08970991
f 61 56 68
f 92 98 103
f 24 33 15
f 97 87 89
f 41 39 27
f 83 75 74
f 81 75 83
f 55 31 37
f 65 67 71
f 42 43 69
f 74 64 62
f 92 73 84
f 24 20 18
f 42 17 34
f 67 60 72
f 4 1 8
f 47 51 61
f 92 100 85
f 99 89 80
f 20 11 18
f 103 108 101
f 92 103 94
f 27 25 42
f 50 53 37
f 34 17 5
f 14 25 27
f 78 82 81
f 70 69 43
f 8 6 14
f 106 95 97
f 51 42 56
f 106 97 89
f 77 70 87
f 35 28 39
f 32 24 26
f 9 4 11
f 58 45 48
f 31 38 16
f 100 98 85
f 36 34 13
f 64 49 62
f 108 107 105
f 13 7 3
f 94 100 92
f 50 35 53
f 72 75 85
f 76 69 77
f 21 12 23
f 72 64 75
f 75 81 82
f 79 74 68
f 61 51 56
f 9 16 3
f 71 67 72
f 48 49 60
f 3 7 2
f 10 4 8
f 83 77 81
f 13 5 7
f 36 43 34
f 73 86 57
f 80 89 70
f 79 91 96
f 84 85 98
f 88 87 97
f 55 54 44
f 29 16 38
f 63 70 43
f 9 3 4
f 63 43 36
f 66 46 59
f 5 1 2
f 55 44 31
f 107 106 89
f 81 87 88
f 24 15 20
f 20 9 11
f 100 88 93
f 56 42 69
f 68 56 76
f 85 75 82
f 76 77 91
f 13 34 5
f 53 35 39
f 16 29 13
f 59 46 29
f 103 93 104
f 32 37 33
f 7 5 2
f 5 6 1
f 29 45 59
f 60 49 64
f 23 12 19
f 79 76 91
f 54 53 39
f 16 13 3
f 89 87 70
f 71 72 85
f 68 74 62
f 108 105 101
f 84 98 92
f 65 58 67
f 104 107 108
f 47 61 52
f 40 37 32
f 35 19 28
f 93 88 102
f 3 2 4
f 95 91 77
f 99 80 90
f 79 83 74
f 32 26 30
f 6 8 1
f 68 76 79
f 30 23 19
f 59 45 58
f 48 52 49
f 47 52 45
f 103 100 93
f 32 30 40
f 105 90 101
f 95 83 96
f 70 77 69
f 57 63 36
f 58 60 67
f 45 29 38
f 66 57 46
f 22 10 14
f 94 78 88
f 104 91 106
f 19 10 22
f 18 11 12
f 27 28 14
f 90 80 78
f 61 62 52
f 10 8 14
f 38 41 47
f 46 36 29
f 104 96 91
f 12 10 19
f 61 68 62
f 58 48 60
f 47 41 51
f 43 42 34
f 59 58 65
f 86 82 57
f 66 65 71
f 41 27 51
f 2 1 4
f 105 99 90
f 104 106 107
f 91 95 106
f 30 19 35
f 11 10 12
f 84 71 85
f 102 97 95
f 28 22 14
f 45 52 48
f 59 65 66
f 86 85 82
f 12 21 18
f 78 81 88
f 105 107 99
f 80 63 78
f 81 77 87
f 62 49 52
f 19 22 28
f 78 63 57
f 60 64 72
f 79 96 83
f 31 16 15
f 44 38 31
f 50 40 30
f 102 88 97
f 24 18 21
f 107 89 99
f 98 100 103
f 29 36 13
f 92 85 86
f 82 78 57
f 24 21 26
f 93 102 104
f 39 41 44
f 37 31 33
f 94 88 100
f 17 25 6
f 25 17 42
f 74 75 64
f 101 90 78
f 27 42 51
f 54 39 44
f 55 53 54
f 20 15 9
f 14 6 25
f 71 73 66
f 33 31 15
f 103 104 108
f 4 10 11
f 50 30 35
f 17 6 5
f 56 69 76
f 37 53 55
f 26 23 30
f 84 73 71
f 15 16 9
f 86 73 92
f 39 28 27
f 45 38 47
f 95 77 83
f 104 102 96
f 26 21 23
f 103 101 94
f 50 37 40
f 96 102 95
f 33 24 32
f 44 41 38
f 46 57 36
f 101 78 94
f 80 70 63
f 66 73 57

