# https://github.com/mikedh/trimesh
v -0.04530332 -0.01399248 -0.00875606
v -0.04452235 -0.01317207 -0.01483050
v -0.04285159 -0.00851452 -0.00561136
v -0.04571711 -0.01090995 0.01250378
v -0.04481798 -0.00900682 0.01778078
v -0.04514328 -0.00945459 -0.01249286
v -0.04415504 -0.00656398 0.00956265
v -0.04588862 -0.01007316 -0.00797278
v -0.04250063 -0.01014977 0.00867497
v -0.04351292 -0.00784726 0.00932799
v -0.04436439 -0.00586749 0.01716052
v -0.03915744 -0.01210696 -0.00458979
v -0.03888540 -0.01387026 -0.01068307
v -0.04382816 -0.01336111 -0.01289448
v -0.04274882 -0.01414436 -0.00743230
v -0.04263436 -0.01113358 0.01710662
v -0.04155782 -0.00961103 -0.00532192
v -0.04328621 -0.00884923 -0.01423654
v -0.04278113 -0.00545279 0.01695993
v -0.04092048 -0.00844502 -0.02022069
v -0.04040210 -0.00703182 -0.01312105
v -0.03703688 -0.00318542 0.01440600
v -0.04082921 -0.01280096 -0.02082189
v -0.04307125 -0.01064558 0.01712296
v -0.04028280 -0.01246740 0.01114038
v -0.04024754 -0.00592185 0.02445263
v -0.03874114 -0.01326243 -0.01016139
v -0.04022916 -0.01271700 0.01131181
v -0.03959766 -0.01249388 -0.02004600
v -0.03529627 -0.00932196 0.01497004
v -0.03848755 -0.00684152 -0.01071595
v -0.03868110 -0.00600900 0.02366728
v -0.03549529 -0.01021027 0.01567783
v -0.03825424 -0.00546697 0.00714193
v -0.03808361 -0.00621298 -0.00181080
v -0.03812398 -0.00618344 0.00859461
v -0.03677812 -0.00448468 0.01346288
v -0.03676145 -0.00806632 0.02257352
v -0.03656119 -0.00178998 0.02259329
v -0.03409247 -0.01116751 -0.01873218
v -0.03788290 -0.01137382 0.00729846
v -0.03818832 -0.00837615 -0.00608018
v -0.03653486 -0.00714906 0.01231188
v -0.03491341 -0.01131906 -0.01980917
v -0.03766767 -0.01449425 0.00115272
v -0.03296277 -0.00678264 -0.01929587
v -0.03383172 -0.00573219 -0.01965494
v -0.03405409 -0.00440162 -0.01155144
v -0.03455243 -0.00197497 0.01978435
v -0.03542830 -0.01159281 -0.01332564
v -0.03644363 -0.01339906 -0.00622544
v -0.03767111 -0.01254320 0.00010251
v -0.03774653 -0.00564830 0.00148417
v -0.03720526 -0.01037296 0.00857333
v -0.03399055 0.00042806 -0.00234887
v -0.03290379 -0.02120210 0.00600152
v -0.03530047 -0.00944842 -0.01090016
v -0.03451299 -0.01112845 -0.00657064
v -0.03224699 0.00067255 0.01009644
v -0.03081818 -0.00313118 0.02080100
v -0.03337109 0.00160031 0.00406788
v -0.03306816 -0.02076497 -0.00410655
v -0.03527486 -0.01447546 0.00949343
v -0.03294431 -0.00762774 -0.01496387
v -0.03302931 -0.00052304 -0.00027994
v -0.03351381 -0.02004450 -0.00265216
v -0.03074967 -0.01373782 -0.01452583
v -0.03153662 -0.00700768 0.01485298
v -0.02743922 0.00220388 -0.01038147
v -0.03141887 -0.01205747 -0.01388427
v -0.03370346 -0.00720008 0.01744133
v -0.03056750 -0.01590405 0.01555919
v -0.03173086 -0.00697280 0.01864033
v -0.03257519 -0.00572376 0.01741546
v -0.03162459 0.00228684 0.00324588
v -0.02925413 0.00205988 0.01392605
v -0.02768919 -0.01611229 0.01705496
v -0.02992558 0.00222040 0.00003016
v -0.02416798 0.00560407 -0.01010736
v -0.02767289 -0.02587361 -0.00224886
v -0.02970153 -0.00222338 0.01783083
v -0.02902940 -0.02419816 0.00745192
v -0.02626622 -0.02277442 -0.00943586
v -0.02976660 -0.00915802 -0.01613599
v -0.02871443 -0.00128522 0.00099406
v -0.02947868 0.00322180 -0.00083841
v -0.03001109 0.00452128 -0.00031782
v -0.02702704 -0.02429762 -0.00756411
v -0.02644488 -0.02625482 0.00888128
v -0.02795574 -0.00586117 0.01992528
v -0.03001225 -0.00623635 -0.03196549
v -0.02857674 -0.01191573 -0.02921572
v -0.03041374 -0.00672907 0.01990217
v -0.02228002 -0.00238852 -0.01943220
v -0.02792416 -0.00602392 -0.01803637
v -0.02508218 -0.01234752 -0.01918045
v -0.02722561 -0.01243625 -0.03486643
v -0.02612385 -0.00826245 -0.02700127
v -0.02424769 -0.00256560 -0.02981041
v -0.01983585 0.01092234 -0.00081387
v -0.02674008 -0.02796514 0.00070851
v -0.02208849 -0.00554274 0.02351279
v -0.02978886 -0.00621804 -0.03193420
v -0.02706340 -0.01071434 -0.02806970
v -0.02304793 -0.00826693 -0.03859989
v -0.01936560 -0.00070168 -0.02062971
v -0.02238269 0.00284128 0.02036126
v -0.02337003 0.00839735 -0.00002295
v -0.02028450 -0.01046446 -0.02116808
v -0.02553716 -0.01435850 -0.03155455
v -0.02710539 -0.00696474 -0.03611758
v -0.02349841 -0.00397030 -0.02894912
v -0.02122090 -0.02543609 0.01083105
v -0.02569234 -0.01705294 -0.03398361
v -0.02507450 -0.01716210 -0.02727570
v -0.02170058 -0.01690895 -0.01778762
v -0.02064206 -0.00233191 -0.03330110
v -0.01861332 -0.00218397 -0.03620494
v -0.02091952 -0.02945343 0.00073800
v -0.02243851 -0.01651150 0.02009835
v -0.02150886 -0.02992601 0.00119315
v -0.02105313 -0.01939973 -0.01667744
v -0.01986923 0.00361860 0.02091985
v -0.02341920 -0.01376038 -0.03255451
v -0.02122282 -0.01134037 -0.02810696
v -0.01696967 -0.00969254 -0.03635419
v -0.01591457 -0.01040251 0.02393546
v -0.01523896 -0.00084299 0.02595519
v -0.01805231 -0.02042264 0.01758676
v -0.01878278 -0.01093181 -0.02454759
v -0.01856554 -0.00519697 -0.03814137
v -0.01848283 0.00982525 0.01423206
v -0.01845035 -0.01862004 0.01876583
v -0.01556280 -0.01298574 -0.03877074
v -0.01900359 -0.00757483 -0.03030083
v -0.02160458 -0.00826504 -0.02720691
v -0.01610249 0.01172661 0.00736465
v -0.01876384 -0.01507515 -0.02672596
v -0.02119809 -0.01200900 -0.02695388
v -0.01927701 -0.02930873 0.00669443
v -0.01799864 -0.02523845 -0.00930905
v -0.01560025 -0.01184906 -0.02794677
v -0.01291350 -0.00670883 -0.04057041
v -0.01821479 -0.00648686 -0.02617533
v -0.01703235 -0.02220625 -0.01297747
v -0.01524509 -0.00484083 -0.02438056
v -0.01280806 -0.02400193 0.00839296
v -0.01457260 -0.01321345 -0.02302732
v -0.01413552 -0.00647189 -0.03505973
v -0.01225914 -0.00090128 -0.02544350
v -0.01250313 -0.00017439 -0.03054314
v -0.01547600 0.00414417 0.02541732
v -0.01298027 0.01123126 -0.00880267
v -0.00551003 -0.02301754 0.00060240
v -0.01301646 -0.02403864 0.00899502
v -0.01137300 -0.01917331 -0.01677122
v -0.01013650 -0.00916847 0.02625765
v -0.01625462 -0.00674552 -0.02773832
v -0.01232502 0.00666627 -0.01726877
v -0.01070246 -0.02385574 -0.00355040
v -0.00577400 -0.01500740 0.01863332
v -0.01651434 -0.00956712 -0.02464252
v -0.01262186 -0.00364081 -0.02773191
v -0.01318834 0.00624289 -0.01785734
v -0.00958837 -0.02305284 -0.00916942
v -0.01400537 -0.01371870 -0.02183480
v -0.01117870 -0.00262584 -0.02963649
v -0.00863742 0.01076023 0.01744725
v -0.01067631 0.01467445 0.00539873
v -0.00805309 -0.01693172 0.01851200
v -0.01426923 -0.01131061 -0.02589712
v -0.00993603 -0.00311604 -0.03661612
v -0.01247060 -0.00410351 0.02764243
v -0.01323108 -0.00356812 0.03254187
v -0.01512651 0.00104478 0.03223524
v -0.01140722 0.00126694 -0.02359794
v -0.01290324 -0.00089491 0.03845757
v -0.01383286 0.00183531 0.03198612
v -0.00919236 0.01150132 0.01482803
v -0.01344512 0.00780477 0.02263237
v -0.00436074 -0.01692536 -0.01507444
v -0.01256433 -0.00720028 -0.02168290
v -0.01242691 0.00271785 0.03772548
v -0.00798896 0.00742179 0.02322498
v -0.00985191 0.01162748 -0.01201965
v -0.01154479 -0.00876899 -0.02347005
v -0.00966665 0.00105925 0.02406624
v -0.00848295 -0.01197750 -0.02306462
v -0.01010229 -0.00328263 -0.02158157
v -0.00944710 -0.00339119 0.03691635
v -0.01222442 -0.00233355 0.02877718
v -0.01066516 -0.00214109 0.03587277
v -0.00851378 0.00361722 -0.02282740
v -0.00941856 0.00026421 0.02430072
v -0.00894863 -0.00127438 -0.02141818
v -0.00792752 0.00351090 0.04156450
v -0.00682442 -0.01045096 -0.02088901
v -0.00700826 -0.00346058 -0.03710231
v -0.00821609 -0.00537454 0.03130840
v -0.00590009 -0.00102661 0.04097780
v -0.00724769 0.00224208 0.03841277
v -0.00505812 0.00783050 0.02171100
v -0.00852978 0.01417978 -0.00178659
v -0.00050738 -0.01732183 -0.01250964
v -0.00718124 -0.00768238 0.02557129
v -0.00690131 -0.00321917 -0.03295079
v -0.00830306 -0.00538241 0.02765338
v -0.00685888 -0.00052574 -0.02938227
v -0.00515482 0.00324386 -0.02108954
v -0.00759881 0.01406986 -0.00569945
v -0.00534913 -0.00712200 -0.02124113
v -0.00647937 -0.00780965 -0.03832424
v -0.00421933 0.01189180 -0.01077914
v -0.00508652 -0.00342437 0.03348949
v -0.00330896 -0.00602627 -0.02130103
v 0.00003038 0.00546946 0.03305678
v -0.00122132 0.00819800 0.03725511
v -0.00328575 0.01002678 0.00185885
v -0.00409816 0.01367386 0.00577996
v -0.00622136 0.01400819 0.00147540
v -0.00384507 -0.00518380 -0.02840461
v -0.00481627 -0.00098615 -0.02294249
v -0.00302987 -0.00052086 -0.02251509
v -0.00184092 0.00202919 0.04198649
v -0.00162356 -0.00728007 0.02307015
v -0.00237641 -0.00282186 0.03601391
v -0.00280882 0.00452999 -0.01904135
v -0.00288640 0.01050028 -0.01525696
v -0.00414508 0.01147751 -0.00575162
v -0.00156697 -0.01186978 -0.01917483
v -0.00430573 -0.00259766 -0.02549717
v -0.00390351 -0.00299340 -0.02397179
v -0.00438763 -0.00249798 -0.02500114
v -0.00441381 -0.00228456 -0.02412031
v -0.00250786 -0.00122402 -0.02182047
v 0.00036260 0.00002634 0.02208852
v -0.00192715 0.00982156 0.01683938
v -0.00062877 0.00873730 0.01990400
v -0.00329169 0.01341743 -0.00992945
v -0.00352839 0.01486540 0.01063660
v 0.00046241 -0.01926614 0.00414314
v -0.00038153 -0.01733549 0.01268630
v -0.00029689 -0.00522551 0.02158590
v -0.00180890 -0.00686656 -0.02213645
v -0.00420325 -0.00257262 -0.02520865
v -0.00448559 0.01108502 0.00093760
v -0.00276832 0.01511780 0.00755292
v 0.00314445 0.00340870 0.03149421
v -0.00252978 0.00473894 -0.01847708
v 0.00341627 0.00995871 0.03882395
v 0.00363738 0.01343155 -0.00810520
v 0.00295063 0.01420070 -0.00018343
v -0.00010714 0.01414048 -0.01636523
v 0.00186775 0.01619294 -0.01303975
v 0.00139654 0.01667624 0.01737051
v 0.00117428 0.01924786 0.01011896
v 0.00111381 0.00786081 -0.02186049
v 0.00259500 0.00838929 -0.02237315
v 0.00254763 0.01363391 0.00817022
v -0.00069337 0.01489038 0.01508998
v 0.00333783 0.01499634 -0.00875439
v 0.00102450 0.00172429 0.02038725
v 0.00146267 0.01239874 0.00944947
v -0.00076943 0.01709552 0.01092040
v 0.00452460 -0.00108409 0.03788542
v 0.00846363 0.00269410 -0.02568078
v 0.00444760 0.00915531 0.02284383
v 0.00544061 0.01910904 -0.01369390
v 0.00229889 -0.00643039 -0.01790070
v 0.00059960 -0.00392406 -0.02001266
v 0.00332841 0.00489506 0.03714256
v 0.00329971 0.01180200 0.00010055
v 0.00387031 -0.00966813 0.01637309
v 0.00740005 -0.00072768 -0.02387177
v 0.00570629 0.00733253 0.02426570
v 0.00868329 0.01628375 -0.02227449
v 0.00714588 0.02276676 0.01412000
v 0.00480428 -0.01646975 -0.00216818
v 0.00859937 -0.00720201 -0.02199453
v 0.00628541 0.01984080 0.01061118
v 0.00338510 0.01882522 -0.00103704
v 0.00446127 -0.01657675 -0.00606369
v 0.00371239 -0.01047977 0.01649179
v 0.00828617 0.01667724 0.02302970
v 0.00493987 -0.01475500 0.00884333
v 0.00289841 -0.01106870 -0.01575086
v 0.00741648 0.01621973 0.00052408
v 0.00827339 0.02152517 0.01630439
v 0.00606957 0.01928862 0.00455719
v 0.00556034 -0.01655859 0.00605084
v 0.00563835 -0.01341062 -0.01118890
v 0.01038668 -0.01548964 -0.01562348
v 0.00906198 -0.01245179 -0.01751515
v 0.01245184 0.00085052 0.02489574
v 0.00833158 0.01484232 0.00961106
v 0.00497465 0.01858632 -0.00634247
v 0.00706566 0.01927820 0.00838448
v 0.01181162 0.02349845 -0.01250123
v 0.01009772 -0.01454865 0.01654357
v 0.00799684 -0.01058155 0.01831574
v 0.01317867 -0.00631345 0.02394913
v 0.01070342 0.01569323 -0.01068822
v 0.00883970 -0.01945881 0.00254576
v 0.01840620 -0.02246164 -0.00391168
v 0.00989084 -0.01953186 0.00337725
v 0.01160668 0.01159517 -0.02621615
v 0.01221558 0.01586300 0.02398564
v 0.01120829 0.01908896 -0.01901384
v 0.01097409 -0.01922880 -0.00514307
v 0.01142222 -0.01685556 0.01208217
v 0.00883644 0.01101785 0.03152398
v 0.00955902 0.01567216 -0.00280621
v 0.00838538 0.01698829 0.00615251
v 0.00928187 0.02422283 0.00803692
v 0.01002791 0.02015224 -0.01287347
v 0.01332278 0.01194539 -0.02604809
v 0.01191653 0.01548475 -0.00194248
v 0.01233731 0.01832112 -0.01017553
v 0.01058451 0.02025821 0.00788805
v 0.01656867 -0.01067366 -0.02131076
v 0.01571121 0.00470181 0.02647403
v 0.01474196 0.02456475 -0.01057308
v 0.01285980 0.02452624 0.00593114
v 0.01641291 0.02712939 0.00704796
v 0.01711510 -0.00659255 0.02337177
v 0.01537853 0.01832388 0.00097875
v 0.01445425 0.02236056 0.00267643
v 0.01800670 0.00328059 -0.02649292
v 0.01727548 0.02498628 0.01460673
v 0.01248188 0.02050055 0.00792179
v 0.01467567 0.02240781 -0.00614692
v 0.01750028 -0.02131619 0.00825613
v 0.01644128 0.02060761 0.02222531
v 0.01488436 0.02619458 -0.00198262
v 0.01743147 -0.01481258 0.01724368
v 0.01978364 -0.00989499 -0.02296674
v 0.02037601 0.00901689 -0.02748567
v 0.01538543 0.01888638 -0.00794995
v 0.01629709 0.01870297 0.00362451
v 0.02144901 0.02565350 0.01596196
v 0.02237874 -0.01692108 0.01621405
v 0.02141763 -0.00034452 -0.02638904
v 0.02284057 0.00560500 0.02567486
v 0.01873564 0.01468568 0.02574298
v 0.01952176 0.02735471 0.00161680
v 0.02037812 -0.01726898 -0.01602738
v 0.01593847 0.02373542 -0.00283916
v 0.02272108 0.02773696 -0.00638528
v 0.02176613 -0.01868876 -0.01256442
v 0.02265745 -0.00583037 -0.02394278
v 0.02572027 0.02099205 0.02039071
v 0.02399549 0.02074916 -0.02006824
v 0.02314173 -0.02243513 0.00050889
v 0.02332243 -0.01998986 0.01065775
v 0.02475722 0.01580083 -0.02499379
v 0.02204565 0.02241469 -0.01936698
v 0.02855365 -0.01434752 0.01626558
v 0.02282282 0.02493854 -0.00275476
v 0.02549333 0.00066435 0.02570107
v 0.02662824 0.01155868 -0.02499537
v 0.02369712 0.02564445 -0.01132473
v 0.02528394 -0.02159214 -0.00601716
v 0.02744102 -0.01471799 -0.01630784
v 0.02751476 0.02042908 0.02086114
v 0.02655882 -0.01038098 0.02089936
v 0.02814542 0.02684850 0.00871201
v 0.02932692 -0.01468904 -0.01592914
v 0.02596205 0.02776743 -0.00087207
v 0.02772052 0.02832483 0.00525933
v 0.02636382 -0.02226966 0.00764087
v 0.02926991 0.00032690 -0.02382745
v 0.02901728 -0.00583654 -0.02285202
v 0.02996079 0.01095094 0.02349565
v 0.03123773 0.02547311 0.01078227
v 0.02907193 -0.02064182 -0.00422658
v 0.02882879 -0.00319260 0.02293386
v 0.02966328 0.00636475 -0.02490016
v 0.02997135 0.02660177 -0.00921362
v 0.02941625 -0.02517869 0.00212150
v 0.02958319 -0.02234761 0.00517626
v 0.03015714 -0.01914677 0.01184858
v 0.03342646 -0.00909230 -0.01715041
v 0.03273019 -0.00621117 0.02046815
v 0.03037674 0.00784731 0.02306792
v 0.03276460 0.02248082 -0.01414549
v 0.03394534 -0.01798304 -0.00492742
v 0.03156022 0.02440489 -0.01141303
v 0.03745885 0.01625565 -0.01487821
v 0.03482875 0.01763118 0.01653835
v 0.03230333 -0.02169945 0.00427981
v 0.03767979 0.00292597 0.01879138
v 0.03293971 -0.01805217 0.00518390
v 0.03549764 -0.00700114 0.01646222
v 0.03488427 0.02471344 0.00131183
v 0.03571649 -0.01166591 0.01320586
v 0.03451307 0.00282027 0.02051903
v 0.03870896 0.01487120 -0.01504278
v 0.03667783 0.01316757 0.01828644
v 0.03458672 0.02584869 -0.00272598
v 0.03817314 -0.01286665 -0.00162271
v 0.03446844 -0.01421811 -0.00946330
v 0.03630710 0.00191857 -0.02019312
v 0.03534901 0.01994128 0.01455052
v 0.03678693 -0.00745770 -0.01609651
v 0.03864414 0.00350392 -0.01651351
v 0.03751641 0.02159012 0.00653653
v 0.03872950 -0.01315621 0.00339511
v 0.03614665 0.01987466 -0.00459300
v 0.03777490 0.02290588 0.00037415
v 0.03917502 0.01209649 0.01378791
v 0.04027338 -0.00765684 -0.00843436
v 0.03965077 0.02217148 0.00713935
v 0.04100030 -0.00491683 0.01127045
v 0.04047756 0.00250707 0.01277040
v 0.04288747 0.02174547 -0.00315972
v 0.03964768 0.01995990 -0.01153124
v 0.04294244 0.00575989 -0.01013688
v 0.04081000 0.01835571 0.00842421
v 0.04128501 -0.00800476 -0.00629493
v 0.04104662 0.01711218 0.00973349
v 0.04704846 0.02301440 0.00671233
v 0.04245118 -0.00375134 0.00384605
v 0.04204013 0.01431240 -0.00920647
v 0.04473639 0.02276720 -0.00448028
v 0.04646535 0.02241058 0.00642982
v 0.04395254 0.00754366 0.00600350
v 0.04331398 0.00551668 -0.00457928
v 0.04326660 0.00982839 0.00493269
v 0.04580162 0.02000696 -0.01085339
v 0.04306942 0.01489043 -0.00896786
v 0.04436484 -0.00076079 -0.00063100
v 0.04451903 0.01658005 0.00122787
v 0.05064006 0.01961614 -0.00188407
v 0.04536236 0.01588366 -0.00048349
v 0.05024653 0.01865504 -0.00141184
v 0.05134469 0.02284521 -0.00922242
v 0.05231608 0.02453749 -0.00072386
v 0.05365030 0.02157989 0.00045817
f 207 157 225
f 59 43 36
f 178 194 152
f 288 260 280
f 388 352 360
f 139 135 136
f 99 118 91
f 89 101 121
f 30 25 24
f 387 361 352
f 76 61 22
f 193 164 185
f 418 432 428
f 42 69 65
f 179 137 219
f 359 365 383
f 244 230 188
f 213 159 249
f 365 381 395
f 354 305 310
f 390 379 386
f 212 149 134
f 64 70 40
f 220 229 210
f 59 53 65
f 252 246 259
f 68 54 30
f 53 52 42
f 87 55 78
f 308 258 316
f 322 315 308
f 162 139 136
f 207 191 192
f 288 307 260
f 277 256 255
f 259 246 247
f 426 413 431
f 366 368 394
f 161 113 133
f 310 273 300
f 152 107 102
f 422 427 411
f 6 20 2
f 35 12 45
f 18 14 29
f 426 417 434
f 158 162 136
f 312 261 296
f 132 169 100
f 157 129 170
f 420 398 426
f 359 301 365
f 223 208 150
f 49 73 32
f 415 388 433
f 164 150 106
f 109 116 166
f 402 404 372
f 271 248 311
f 146 109 162
f 95 48 79
f 385 397 355
f 157 120 129
f 34 9 7
f 410 384 389
f 105 114 97
f 399 409 416
f 143 134 105
f 399 369 374
f 57 42 51
f 103 110 111
f 337 266 306
f 215 234 222
f 413 407 431
f 252 229 246
f 123 81 59
f 49 19 37
f 436 424 437
f 154 121 141
f 328 350 371
f 323 280 330
f 82 80 66
f 324 334 314
f 242 155 154
f 298 318 331
f 365 341 381
f 198 221 212
f 265 271 224
f 117 103 111
f 393 357 376
f 256 259 247
f 200 177 190
f 55 48 35
f 344 321 359
f 215 222 195
f 250 271 311
f 336 292 279
f 272 218 251
f 394 368 387
f 421 437 424
f 99 144 150
f 356 298 348
f 4 7 9
f 108 75 86
f 185 164 79
f 11 4 5
f 254 213 258
f 213 153 159
f 403 374 364
f 136 135 104
f 63 52 54
f 411 401 400
f 281 252 297
f 387 388 408
f 341 301 299
f 364 333 344
f 145 83 119
f 17 8 31
f 275 236 301
f 397 377 355
f 262 243 202
f 417 419 404
f 245 231 232
f 31 64 50
f 244 223 270
f 327 319 314
f 159 176 209
f 152 132 107
f 436 429 416
f 423 388 405
f 42 27 51
f 250 224 271
f 415 408 388
f 211 221 244
f 297 259 256
f 341 299 332
f 378 356 348
f 137 153 203
f 120 72 89
f 270 230 244
f 26 11 5
f 357 380 354
f 421 435 438
f 287 251 317
f 146 94 109
f 22 7 11
f 311 217 250
f 34 35 41
f 180 123 179
f 68 63 54
f 46 18 29
f 406 418 389
f 335 310 300
f 382 350 363
f 21 20 6
f 141 156 165
f 380 375 353
f 112 104 103
f 51 27 15
f 134 114 105
f 60 39 26
f 154 165 204
f 32 24 19
f 192 191 178
f 78 61 87
f 74 71 68
f 358 345 322
f 128 123 180
f 64 31 46
f 102 60 93
f 59 75 108
f 107 76 60
f 101 56 62
f 317 302 338
f 334 298 331
f 186 142 163
f 398 373 391
f 92 114 115
f 199 174 173
f 106 130 95
f 294 262 267
f 61 78 55
f 131 111 126
f 63 66 52
f 386 367 404
f 45 62 56
f 80 119 83
f 193 150 164
f 301 341 365
f 369 324 340
f 88 101 62
f 387 408 394
f 38 16 33
f 23 13 2
f 135 110 104
f 252 261 229
f 250 217 196
f 3 6 1
f 290 282 303
f 182 158 171
f 150 144 106
f 18 8 14
f 391 359 383
f 348 298 334
f 371 350 382
f 201 192 183
f 184 152 194
f 287 272 251
f 222 232 235
f 325 335 300
f 86 85 65
f 151 99 150
f 282 204 286
f 383 365 395
f 268 298 253
f 172 131 126
f 229 261 239
f 387 352 388
f 304 282 292
f 198 143 118
f 41 35 45
f 130 148 96
f 353 349 309
f 421 420 434
f 410 389 418
f 48 47 21
f 13 23 44
f 67 95 96
f 73 71 30
f 432 423 427
f 152 102 173
f 148 156 122
f 285 161 273
f 427 405 411
f 45 12 62
f 434 417 430
f 247 246 220
f 315 254 308
f 425 432 418
f 234 233 245
f 71 43 30
f 380 392 375
f 41 45 56
f 20 23 2
f 312 289 313
f 398 364 373
f 284 255 238
f 227 193 185
f 149 124 134
f 382 401 411
f 370 332 304
f 83 145 116
f 161 127 205
f 65 69 86
f 169 210 100
f 384 376 343
f 219 203 218
f 363 349 375
f 148 122 96
f 108 86 69
f 167 172 135
f 79 48 55
f 107 60 102
f 357 354 335
f 374 412 409
f 146 158 182
f 109 166 162
f 391 413 426
f 404 367 372
f 342 279 266
f 48 21 35
f 261 268 239
f 157 170 225
f 317 251 302
f 385 416 397
f 411 405 382
f 351 307 329
f 249 159 209
f 356 355 276
f 236 238 184
f 303 282 304
f 163 142 125
f 269 235 215
f 199 173 207
f 159 94 176
f 177 174 190
f 262 202 237
f 206 149 212
f 314 319 297
f 389 366 406
f 61 35 34
f 421 434 435
f 75 85 86
f 171 158 139
f 431 419 417
f 314 334 327
f 57 70 64
f 435 434 430
f 302 251 254
f 290 154 282
f 138 115 125
f 47 20 21
f 309 291 278
f 202 179 237
f 429 430 397
f 378 385 356
f 346 304 292
f 307 294 267
f 413 383 395
f 329 323 345
f 399 385 378
f 339 295 317
f 363 320 349
f 213 251 218
f 42 58 17
f 160 181 145
f 113 119 82
f 206 212 221
f 33 16 28
f 151 198 118
f 286 279 292
f 328 274 350
f 208 198 151
f 108 69 153
f 184 168 152
f 310 285 273
f 373 359 391
f 399 378 348
f 47 44 20
f 49 37 74
f 163 125 149
f 359 321 301
f 338 302 315
f 395 381 390
f 189 186 163
f 68 71 73
f 269 215 197
f 127 77 90
f 38 33 93
f 16 4 28
f 137 203 219
f 109 84 70
f 355 306 276
f 184 194 236
f 146 162 158
f 210 185 100
f 395 407 413
f 360 352 316
f 351 384 343
f 369 348 324
f 40 29 50
f 325 357 335
f 256 247 240
f 278 181 160
f 436 416 424
f 397 402 377
f 341 332 370
f 178 152 175
f 43 37 36
f 36 52 53
f 94 146 176
f 189 206 221
f 401 363 375
f 307 267 260
f 364 344 373
f 51 15 17
f 224 200 265
f 176 146 195
f 203 213 218
f 59 36 53
f 419 386 404
f 192 178 183
f 336 367 346
f 91 97 92
f 367 362 346
f 251 213 254
f 437 438 436
f 280 264 263
f 214 207 192
f 111 110 126
f 336 346 292
f 314 297 256
f 377 342 337
f 373 344 359
f 239 228 210
f 239 253 228
f 435 430 429
f 291 181 278
f 323 330 339
f 314 256 277
f 414 422 393
f 295 218 272
f 204 165 156
f 433 423 432
f 428 427 422
f 54 36 10
f 327 326 319
f 410 418 428
f 121 88 141
f 352 308 316
f 209 222 235
f 67 13 44
f 268 253 239
f 4 9 28
f 289 281 297
f 381 370 390
f 58 52 51
f 208 221 198
f 312 318 261
f 360 328 371
f 288 280 323
f 77 113 82
f 345 347 322
f 421 412 420
f 377 372 342
f 102 72 120
f 414 393 396
f 264 260 219
f 233 232 231
f 19 10 37
f 271 265 226
f 93 33 72
f 57 64 69
f 106 144 130
f 319 326 313
f 171 139 162
f 260 264 280
f 389 351 366
f 394 408 406
f 291 269 181
f 242 170 155
f 340 277 333
f 167 158 112
f 325 300 294
f 396 393 376
f 385 355 356
f 36 54 52
f 375 349 353
f 236 225 283
f 40 50 64
f 249 209 235
f 76 22 39
f 216 201 217
f 318 312 326
f 360 371 405
f 297 319 313
f 322 308 352
f 401 375 400
f 315 302 254
f 135 139 158
f 13 67 62
f 32 30 24
f 170 283 225
f 37 43 71
f 140 89 121
f 410 414 396
f 208 151 150
f 112 103 117
f 355 377 337
f 435 429 436
f 289 296 281
f 72 56 89
f 118 143 105
f 379 362 386
f 211 188 186
f 337 342 266
f 201 216 192
f 51 70 57
f 419 407 386
f 417 402 397
f 31 8 18
f 301 236 283
f 76 100 61
f 422 411 400
f 406 366 394
f 358 361 368
f 202 180 179
f 8 15 14
f 298 356 276
f 183 178 175
f 197 182 166
f 22 34 7
f 381 341 370
f 94 84 109
f 104 110 103
f 113 147 119
f 263 219 218
f 351 329 366
f 3 1 12
f 386 362 367
f 390 386 407
f 354 310 335
f 21 6 3
f 277 324 314
f 17 15 8
f 220 246 229
f 370 304 379
f 127 161 133
f 125 115 124
f 238 240 168
f 42 17 31
f 136 104 112
f 376 325 343
f 402 372 377
f 205 128 187
f 344 275 321
f 284 275 344
f 133 113 77
f 350 274 320
f 203 153 213
f 122 88 67
f 311 248 216
f 90 68 81
f 262 237 267
f 222 245 232
f 330 295 339
f 379 304 362
f 281 261 252
f 433 432 425
f 295 287 317
f 92 97 114
f 320 274 293
f 389 384 351
f 277 255 284
f 395 390 407
f 229 239 210
f 273 243 262
f 425 415 433
f 148 130 138
f 137 59 108
f 223 244 221
f 332 303 304
f 399 348 369
f 33 41 56
f 343 294 307
f 285 278 241
f 329 288 323
f 364 398 403
f 60 76 39
f 285 241 161
f 276 257 253
f 88 62 67
f 35 21 3
f 188 142 186
f 168 132 152
f 279 270 266
f 28 9 41
f 271 226 248
f 220 210 169
f 393 422 392
f 414 428 422
f 132 100 76
f 200 196 177
f 127 133 77
f 153 69 159
f 340 324 277
f 396 376 384
f 255 240 238
f 130 96 95
f 116 70 83
f 166 171 162
f 391 383 413
f 77 63 68
f 123 128 90
f 178 191 194
f 298 268 318
f 244 188 211
f 66 83 70
f 425 418 406
f 125 124 149
f 148 138 142
f 33 56 72
f 207 173 157
f 286 204 230
f 283 290 299
f 189 163 206
f 405 371 382
f 243 161 205
f 366 345 368
f 81 74 59
f 327 331 326
f 119 80 82
f 166 145 181
f 392 400 375
f 34 41 9
f 318 268 261
f 46 40 84
f 185 79 100
f 209 195 222
f 33 28 41
f 42 57 69
f 289 312 296
f 90 77 68
f 106 95 79
f 398 391 426
f 181 197 166
f 410 396 384
f 357 392 380
f 425 406 415
f 27 14 15
f 213 249 258
f 316 328 360
f 224 196 200
f 438 435 436
f 98 92 115
f 295 272 287
f 216 214 192
f 69 64 94
f 412 424 409
f 305 278 285
f 156 188 230
f 11 7 4
f 361 322 352
f 358 322 361
f 289 297 313
f 250 196 224
f 13 62 12
f 400 392 422
f 347 338 322
f 132 76 107
f 278 160 241
f 74 30 43
f 135 172 126
f 73 74 81
f 267 237 260
f 147 241 160
f 140 121 154
f 31 50 42
f 77 82 63
f 274 249 269
f 166 116 145
f 247 220 169
f 264 219 263
f 118 105 91
f 42 50 27
f 306 257 276
f 429 397 416
f 68 30 74
f 114 134 124
f 95 47 48
f 195 182 197
f 99 98 144
f 190 199 226
f 266 270 227
f 37 71 74
f 374 409 399
f 32 19 49
f 121 101 88
f 12 1 13
f 19 24 10
f 89 56 101
f 191 207 194
f 142 138 125
f 349 320 293
f 196 201 183
f 355 337 306
f 343 325 294
f 374 403 412
f 183 175 177
f 263 218 295
f 73 30 32
f 215 232 234
f 366 329 345
f 226 214 248
f 187 128 180
f 230 204 156
f 243 205 187
f 316 258 274
f 280 263 295
f 74 43 59
f 234 232 233
f 350 320 363
f 99 91 98
f 27 29 14
f 25 10 24
f 223 221 208
f 284 238 275
f 124 115 114
f 330 280 295
f 75 65 85
f 372 367 336
f 306 266 257
f 245 233 231
f 215 195 197
f 235 232 215
f 126 110 135
f 311 216 217
f 95 44 47
f 347 339 338
f 39 22 11
f 211 186 189
f 401 382 363
f 98 91 92
f 179 123 137
f 212 134 143
f 93 60 38
f 51 66 70
f 193 223 150
f 151 118 99
f 242 154 290
f 202 243 187
f 301 283 299
f 254 258 308
f 265 200 226
f 160 145 119
f 156 148 188
f 61 55 35
f 228 257 227
f 390 370 379
f 6 2 1
f 387 368 361
f 189 221 211
f 66 80 83
f 69 94 159
f 248 214 216
f 321 275 301
f 120 89 129
f 331 318 326
f 420 426 434
f 249 274 258
f 31 18 46
f 128 127 90
f 326 312 313
f 88 122 141
f 94 64 84
f 30 54 25
f 117 131 172
f 296 261 281
f 39 11 26
f 430 417 397
f 209 176 195
f 339 317 338
f 376 357 325
f 433 388 423
f 182 171 166
f 420 403 398
f 362 304 346
f 202 187 180
f 84 40 70
f 349 293 309
f 286 230 270
f 123 90 81
f 354 380 353
f 214 199 207
f 95 67 44
f 22 61 34
f 240 169 168
f 368 345 358
f 255 256 240
f 354 353 305
f 323 339 347
f 130 115 138
f 82 66 63
f 175 173 174
f 269 291 293
f 167 112 117
f 164 106 79
f 129 89 140
f 297 252 259
f 372 336 342
f 26 38 60
f 257 266 227
f 226 199 214
f 91 105 97
f 190 174 199
f 292 282 286
f 158 136 112
f 160 119 147
f 87 79 55
f 275 238 236
f 249 235 269
f 205 127 128
f 237 179 219
f 100 79 87
f 53 42 65
f 228 227 185
f 222 234 245
f 16 5 4
f 393 392 357
f 195 146 182
f 37 10 36
f 353 309 305
f 1 2 13
f 75 59 65
f 417 404 402
f 351 343 307
f 117 111 131
f 154 204 282
f 137 108 153
f 279 286 270
f 155 140 154
f 228 185 210
f 155 129 140
f 307 288 329
f 173 102 157
f 161 147 113
f 305 309 278
f 26 16 38
f 323 347 345
f 35 3 12
f 269 293 274
f 194 207 225
f 154 141 165
f 338 315 322
f 167 117 172
f 109 70 116
f 309 293 291
f 52 66 51
f 424 416 409
f 206 163 149
f 253 257 228
f 161 241 147
f 198 212 143
f 96 122 67
f 427 423 405
f 168 169 132
f 431 407 419
f 217 201 196
f 64 46 84
f 299 290 303
f 141 122 156
f 175 152 173
f 227 270 223
f 424 412 421
f 130 98 115
f 177 175 174
f 334 331 327
f 324 348 334
f 184 238 168
f 342 336 279
f 247 169 240
f 403 420 412
f 432 427 428
f 123 59 137
f 310 305 285
f 170 242 283
f 26 5 16
f 93 72 102
f 54 10 25
f 399 416 385
f 46 29 40
f 158 167 135
f 298 276 253
f 223 193 227
f 44 23 20
f 170 129 155
f 426 431 417
f 410 428 414
f 49 74 73
f 260 237 219
f 144 98 130
f 188 148 142
f 388 360 405
f 262 300 273
f 374 369 340
f 100 87 61
f 73 81 68
f 27 50 29
f 316 274 328
f 333 277 284
f 364 374 340
f 438 437 421
f 364 340 333
f 42 52 58
f 283 242 290
f 299 303 332
f 58 51 17
f 157 102 120
f 197 181 269
f 236 194 225
f 333 284 344
f 273 161 243
f 200 190 226
f 406 408 415
f 196 183 177
f 294 300 262

