# https://github.com/mikedh/trimesh
v 0.00738039 0.01955047 0.00711367
v 0.00537382 0.01963904 0.00220056
v 0.00537382 0.01961594 0.00319512
v 0.00636915 0.01951966 0.00618173
v 0.00634381 0.01938872 0.00711367
v 0.00835687 0.01938102 0.00711367
v 0.00537382 0.01957742 0.00120454
v 0.00489766 0.01911530 -0.00627581
v 0.00486172 0.01911530 -0.00627581
v 0.00437908 0.01937717 -0.00177915
v 0.00437908 0.01943493 -0.00078459
v 0.00437908 0.01947344 0.00020997
v 0.00555297 0.01940413 0.00518716
v 0.00365306 0.01926549 0.00020997
v 0.00377151 0.01920772 0.00102688
v 0.00633320 0.01938487 0.00711367
v 0.00835687 0.01702031 -0.00776256
v 0.00835687 -0.01808228 0.00711367
v 0.00487881 0.01811401 -0.00725581
v 0.00390115 0.01807936 -0.00619863
v 0.00398955 0.01906138 -0.00415271
v 0.00382042 0.01914995 -0.00348870
v 0.00437908 0.01931170 -0.00277518
v 0.00487173 0.01811401 -0.00725581
v 0.00378565 0.01725522 -0.00741453
v 0.00373733 0.01919232 -0.00277518
v 0.00358352 0.01922698 -0.00177915
v 0.00353579 0.01925778 -0.00078459
v 0.00467903 0.01929630 0.00319512
v 0.00573565 0.01926934 0.00618173
v 0.00302309 0.01862621 -0.00076566
v 0.00388819 0.01908064 0.00168944
v 0.00480102 0.01919617 0.00389117
v 0.00233655 0.01466345 0.00711367
v 0.00584349 0.01914995 0.00675109
v 0.00565904 0.01863006 0.00711367
v 0.00441208 0.01707422 -0.00776256
v 0.00835687 -0.01804377 -0.00776256
v 0.00233655 -0.01830949 0.00711367
v 0.00835687 -0.01922990 0.00418677
v 0.00379154 0.01824110 -0.00553607
v 0.00233655 0.01531813 -0.00776256
v 0.00366425 0.01842595 -0.00476576
v 0.00353991 0.01868012 -0.00380032
v 0.00308615 0.01879951 -0.00177915
v 0.00351987 0.01663520 -0.00776256
v 0.00351280 0.01663135 -0.00776256
v 0.00285161 0.01830657 -0.00108456
v 0.00284336 0.01829887 -0.00177915
v 0.00233655 0.01514098 -0.00078459
v 0.00835687 -0.01804762 -0.00775236
v 0.00233714 -0.01778190 -0.00776256
v 0.00233655 -0.01855596 0.00624725
v 0.00835687 -0.01952644 0.00326647
v 0.00233655 0.01537975 -0.00725581
v 0.00286339 0.01816408 -0.00245773
v 0.00290877 0.01800233 -0.00312174
v 0.00233655 -0.01767021 -0.00776256
v 0.00835687 -0.01841347 -0.00668499
v 0.00835687 -0.01864839 -0.00592633
v 0.00835687 -0.01869460 -0.00576178
v 0.00233655 -0.01792054 -0.00721504
v 0.00233655 -0.01778190 -0.00775236
v 0.00233655 -0.01884865 0.00520172
v 0.00835687 -0.01970359 0.00220056
v 0.00233655 -0.01887175 0.00510998
v 0.00233655 -0.01887945 0.00507358
v 0.00835687 -0.01876007 -0.00548948
v 0.00233655 -0.01827483 -0.00581129
v 0.00835687 -0.01965352 0.00120454
v 0.00233655 -0.01901039 0.00416202
v 0.00233655 -0.01902194 0.00400330
v 0.00233655 -0.01901039 0.00317328
v 0.00835687 -0.01890641 -0.00475120
v 0.00233655 -0.01850205 -0.00478906
v 0.00233655 -0.01828639 -0.00576178
v 0.00835687 -0.01953414 0.00009930
v 0.00233655 -0.01895648 0.00214522
v 0.00233655 -0.01879858 -0.00078459
v 0.00233655 -0.01863684 -0.00377120
v 0.00835687 -0.01891411 -0.00469586
v 0.00835687 -0.01942246 -0.00078750
v 0.00835687 -0.01916443 -0.00277954
f 1 2 3
f 1 3 4
f 1 4 5
f 1 5 16
f 1 16 36
f 1 36 34
f 1 34 39
f 1 39 18
f 1 18 6
f 1 6 2
f 2 6 7
f 2 7 8
f 2 8 9
f 2 9 10
f 2 10 11
f 2 11 12
f 2 12 3
f 3 13 5
f 3 5 4
f 3 12 14
f 3 14 15
f 3 15 13
f 5 13 16
f 6 17 8
f 6 8 7
f 6 18 40
f 6 40 54
f 6 54 65
f 6 65 70
f 6 70 77
f 6 77 82
f 6 82 83
f 6 83 81
f 6 81 74
f 6 74 68
f 6 68 61
f 6 61 60
f 6 60 59
f 6 59 51
f 6 51 38
f 6 38 17
f 8 19 24
f 8 24 9
f 8 17 19
f 9 20 21
f 9 21 22
f 9 22 23
f 9 23 10
f 9 24 25
f 9 25 20
f 10 23 26
f 10 26 27
f 10 27 11
f 11 27 28
f 11 28 12
f 12 28 14
f 13 15 29
f 13 29 30
f 13 30 16
f 14 28 31
f 14 31 15
f 15 32 33
f 15 33 29
f 15 31 34
f 15 34 32
f 16 30 35
f 16 35 36
f 17 37 19
f 17 38 52
f 17 52 58
f 17 58 42
f 17 42 47
f 17 47 46
f 17 46 37
f 18 39 40
f 19 37 24
f 20 41 21
f 20 25 42
f 20 42 41
f 21 41 43
f 21 43 22
f 22 43 44
f 22 44 45
f 22 45 27
f 22 27 26
f 22 26 23
f 24 37 46
f 24 46 47
f 24 47 25
f 25 47 42
f 27 45 28
f 28 45 31
f 29 33 30
f 30 33 35
f 31 45 48
f 31 48 34
f 32 34 33
f 33 34 35
f 34 36 35
f 34 48 49
f 34 49 50
f 34 50 55
f 34 55 42
f 34 42 58
f 34 58 63
f 34 63 62
f 34 62 69
f 34 69 76
f 34 76 75
f 34 75 80
f 34 80 79
f 34 79 78
f 34 78 73
f 34 73 72
f 34 72 71
f 34 71 67
f 34 67 66
f 34 66 64
f 34 64 53
f 34 53 39
f 38 51 52
f 39 53 54
f 39 54 40
f 41 42 43
f 42 55 49
f 42 49 56
f 42 56 57
f 42 57 45
f 42 45 44
f 42 44 43
f 45 57 56
f 45 56 49
f 45 49 48
f 49 55 50
f 51 59 52
f 52 59 60
f 52 60 61
f 52 61 62
f 52 62 63
f 52 63 58
f 53 64 54
f 54 64 66
f 54 66 67
f 54 67 65
f 61 68 69
f 61 69 62
f 65 67 71
f 65 71 72
f 65 72 73
f 65 73 70
f 68 74 75
f 68 75 76
f 68 76 69
f 70 73 78
f 70 78 79
f 70 79 80
f 70 80 77
f 74 81 75
f 75 81 80
f 77 80 82
f 80 81 83
f 80 83 82

