# https://github.com/mikedh/trimesh
v -0.03820013 -0.01415775 0.00129451
v -0.03885601 -0.01253080 0.01215635
v -0.03885601 -0.01258374 0.01145872
v -0.03885601 -0.01258726 0.01116070
v -0.03885601 -0.01249315 0.01014925
v -0.03885601 -0.01234022 0.00916940
v -0.03820179 -0.01414952 0.00129451
v -0.03820013 -0.00506539 0.00129451
v -0.03820013 -0.01210377 0.01338228
v -0.03842323 -0.01222493 0.01314974
v -0.03885601 -0.01247551 0.01259434
v -0.03885601 -0.01207789 0.00818730
v -0.03830227 -0.01324252 0.00129451
v -0.03885601 -0.01185437 0.00755288
v -0.03885601 -0.01172379 0.00731131
v -0.03829880 -0.00522421 0.00129451
v -0.03885601 -0.00425015 0.00965932
v -0.03885601 -0.00367019 0.01231665
v -0.03885601 -0.00350549 0.01314974
v -0.03820013 -0.00327022 0.01286753
v -0.03820013 -0.01189201 0.01410024
v -0.03885601 -0.01216964 0.01373223
v -0.03885601 -0.01235081 0.01311362
v -0.03830702 -0.01315311 0.00129451
v -0.03885601 -0.01125323 0.00709005
v -0.03861159 -0.00718290 0.00129451
v -0.03860787 -0.00727114 0.00129451
v -0.03833206 -0.00528067 0.00129451
v -0.03885601 -0.00450778 0.00859820
v -0.03885601 -0.00336080 0.01414313
v -0.03820013 -0.00312670 0.01384060
v -0.03820013 -0.01179084 0.01442535
v -0.03841494 -0.01191672 0.01419280
v -0.03820013 -0.00967216 0.02046923
v -0.03885601 -0.00975568 0.02060243
v -0.03885601 -0.01104972 0.00701780
v -0.03863759 -0.00627590 0.00129451
v -0.03861288 -0.00618650 0.00129451
v -0.03885601 -0.00505245 0.00734066
v -0.03885601 -0.00252203 0.02011703
v -0.03820013 -0.00226675 0.01991384
v -0.03820013 -0.00931924 0.02129104
v -0.03885601 -0.00972157 0.02067243
v -0.03885601 -0.01025565 0.00687783
v -0.03885601 -0.00714056 0.00637662
v -0.03885601 -0.00627590 0.00625244
v -0.03885601 -0.00610533 0.00629985
v -0.03885601 -0.00541361 0.00652788
v -0.03885601 -0.00249497 0.02111268
v -0.03842323 -0.00225616 0.02111268
v -0.03820013 -0.00213970 0.02111268
v -0.03820013 -0.00223852 0.02011703
v -0.03820013 -0.00889103 0.02201125
v -0.03842323 -0.00895456 0.02188030
v -0.03885601 -0.00918042 0.02146940
v -0.03885601 -0.00265143 0.02184418
v -0.03820013 -0.00226675 0.02209930
v -0.03820013 -0.00860634 0.02239731
v -0.03842323 -0.00858752 0.02237925
v -0.03885601 -0.00891926 0.02182611
v -0.03885601 -0.00291377 0.02239731
v -0.03881280 -0.00288553 0.02241763
v -0.03820013 -0.00261967 0.02289175
v -0.03845796 -0.00245850 0.02209478
v -0.03820013 -0.00257497 0.02279241
v -0.03820013 -0.00810990 0.02301819
v -0.03842323 -0.00809108 0.02301819
v -0.03885601 -0.00871222 0.02210607
v -0.03885601 -0.00804756 0.02296400
v -0.03885601 -0.00296318 0.02249665
v -0.03885601 -0.00330551 0.02314688
v -0.03885601 -0.00352314 0.02355100
v -0.03820013 -0.00266555 0.02297529
v -0.03820013 -0.00761464 0.02351262
v -0.03842323 -0.00768758 0.02351488
v -0.03885601 -0.00765229 0.02346295
v -0.03885601 -0.00365725 0.02369775
v -0.03820013 -0.00282436 0.02316494
v -0.03820013 -0.00715350 0.02380612
v -0.03842323 -0.00718996 0.02385354
v -0.03885601 -0.00715467 0.02390095
v -0.03885601 -0.00386782 0.02383096
v -0.03842323 -0.00349020 0.02374517
v -0.03820013 -0.00342903 0.02370678
v -0.03820013 -0.00626179 0.02409963
v -0.03842323 -0.00627590 0.02419445
v -0.03885601 -0.00629002 0.02432088
v -0.03885601 -0.00472894 0.02424864
v -0.03842323 -0.00428544 0.02406576
v -0.03820013 -0.00348314 0.02373614
v -0.03820013 -0.00605239 0.02412220
v -0.03842323 -0.00528067 0.02426444
v -0.03885601 -0.00575123 0.02435926
v -0.03885601 -0.00526656 0.02435701
v -0.03820013 -0.00406075 0.02396868
v -0.03820013 -0.00528067 0.02417639
v -0.03820013 -0.00505951 0.02416510
f 1 2 3
f 1 3 4
f 1 4 5
f 1 5 6
f 1 6 7
f 1 7 13
f 1 13 24
f 1 24 27
f 1 27 26
f 1 26 37
f 1 37 38
f 1 38 28
f 1 28 16
f 1 16 8
f 1 8 20
f 1 20 31
f 1 31 41
f 1 41 52
f 1 52 51
f 1 51 57
f 1 57 65
f 1 65 63
f 1 63 73
f 1 73 78
f 1 78 84
f 1 84 90
f 1 90 95
f 1 95 97
f 1 97 96
f 1 96 91
f 1 91 85
f 1 85 79
f 1 79 74
f 1 74 66
f 1 66 58
f 1 58 53
f 1 53 42
f 1 42 34
f 1 34 32
f 1 32 21
f 1 21 9
f 1 9 10
f 1 10 11
f 1 11 2
f 2 11 23
f 2 23 22
f 2 22 35
f 2 35 43
f 2 43 55
f 2 55 60
f 2 60 68
f 2 68 69
f 2 69 76
f 2 76 81
f 2 81 87
f 2 87 93
f 2 93 94
f 2 94 88
f 2 88 82
f 2 82 77
f 2 77 72
f 2 72 71
f 2 71 70
f 2 70 61
f 2 61 56
f 2 56 49
f 2 49 40
f 2 40 30
f 2 30 19
f 2 19 18
f 2 18 17
f 2 17 29
f 2 29 39
f 2 39 48
f 2 48 47
f 2 47 46
f 2 46 45
f 2 45 44
f 2 44 36
f 2 36 25
f 2 25 15
f 2 15 14
f 2 14 12
f 2 12 6
f 2 6 5
f 2 5 4
f 2 4 3
f 6 12 7
f 7 12 14
f 7 14 15
f 7 15 13
f 8 16 17
f 8 17 18
f 8 18 19
f 8 19 20
f 9 21 22
f 9 22 23
f 9 23 10
f 10 23 11
f 13 15 24
f 15 25 26
f 15 26 27
f 15 27 24
f 16 28 17
f 17 28 29
f 19 30 31
f 19 31 20
f 21 32 33
f 21 33 22
f 22 33 32
f 22 32 34
f 22 34 35
f 25 36 37
f 25 37 26
f 28 38 29
f 29 38 37
f 29 37 39
f 30 40 41
f 30 41 31
f 34 42 35
f 35 42 43
f 36 44 37
f 37 44 45
f 37 45 46
f 37 46 47
f 37 47 48
f 37 48 39
f 40 49 50
f 40 50 51
f 40 51 52
f 40 52 41
f 42 53 43
f 43 53 54
f 43 54 55
f 49 56 57
f 49 57 50
f 50 57 51
f 53 58 59
f 53 59 54
f 54 59 60
f 54 60 55
f 56 61 62
f 56 62 63
f 56 63 64
f 56 64 57
f 57 64 65
f 58 66 67
f 58 67 59
f 59 68 60
f 59 67 69
f 59 69 68
f 61 70 62
f 62 70 63
f 63 65 64
f 63 70 71
f 63 71 72
f 63 72 73
f 66 74 75
f 66 75 67
f 67 75 76
f 67 76 69
f 72 77 78
f 72 78 73
f 74 79 80
f 74 80 75
f 75 80 81
f 75 81 76
f 77 82 83
f 77 83 78
f 78 83 84
f 79 85 86
f 79 86 87
f 79 87 80
f 80 87 81
f 82 88 83
f 83 88 89
f 83 89 90
f 83 90 84
f 85 91 86
f 86 91 92
f 86 92 93
f 86 93 87
f 88 94 89
f 89 94 92
f 89 92 95
f 89 95 90
f 91 96 92
f 92 94 93
f 92 96 97
f 92 97 95

