# https://github.com/mikedh/trimesh
v -0.00078513 0.01318629 0.00120001
v -0.00078513 0.01541704 -0.01069825
v -0.00296194 0.01237880 0.00120001
v -0.00078513 -0.02080595 0.00120001
v -0.00078513 0.01554610 -0.01150035
v -0.00124031 0.01523268 -0.01092306
v -0.00296194 0.01422239 -0.01035410
v -0.00296194 -0.02211490 0.00120001
v -0.00085758 -0.02085388 0.00120001
v -0.00078513 -0.02079857 0.00103904
v -0.00078513 0.01554241 -0.01173626
v -0.00296194 0.01422239 -0.01044569
v -0.00296194 -0.02211490 0.00086696
v -0.00267021 -0.02195635 0.00120001
v -0.00078513 -0.02070271 -0.00078719
v -0.00217113 -0.02165400 0.00120001
v -0.00221481 -0.02162819 0.00020919
v -0.00078513 0.01536911 -0.01245510
v -0.00122582 0.01522162 -0.01173626
v -0.00172362 0.01484184 -0.01173626
v -0.00236292 0.01434407 -0.01173626
v -0.00296194 0.01408597 -0.01095636
v -0.00296194 -0.02208172 0.00020919
v -0.00099055 -0.02076907 -0.00178080
v -0.00078513 -0.02064371 -0.00178080
v -0.00271240 -0.02193054 0.00020919
v -0.00078513 0.01502989 -0.01372347
v -0.00151158 0.01474966 -0.01267990
v -0.00209952 0.01413759 -0.01324609
v -0.00296194 0.01400116 -0.01119228
v -0.00296194 -0.02199691 -0.00077054
v -0.00276738 -0.02188629 -0.00078719
v -0.00226958 -0.02159869 -0.00078719
v -0.00104148 -0.02073958 -0.00240804
v -0.00078513 -0.02054047 -0.00264395
v -0.00078513 0.01487871 -0.01426467
v -0.00296194 0.01349233 -0.01229967
v -0.00296194 0.01384630 -0.01159471
v -0.00078513 0.01477547 -0.01462271
v -0.00078513 0.01452843 -0.01536374
v -0.00078513 0.01446575 -0.01554137
v -0.00116018 0.01420027 -0.01536652
v -0.00296194 -0.02181255 -0.00178080
v -0.00291591 -0.02179043 -0.00178080
v -0.00078513 -0.02027868 -0.00377355
v -0.00296194 -0.02179780 -0.00184741
v -0.00296194 -0.02176830 -0.00197508
v -0.00296194 -0.01963342 -0.01104240
v -0.00101783 0.01400116 -0.01603262
v -0.00296194 0.01158974 -0.01537762
v -0.00078513 0.01432195 -0.01583279
v -0.00078513 -0.02023812 -0.00394008
v -0.00296194 -0.01935688 -0.01176401
v -0.00202643 -0.01874849 -0.01228580
v -0.00078513 -0.01829497 -0.01173626
v -0.00078513 0.01382418 -0.01652665
v -0.00078513 0.01364350 -0.01670150
v -0.00122454 0.01333747 -0.01638233
v -0.00296194 0.01143856 -0.01551917
v -0.00296194 -0.01894391 -0.01260497
v -0.00258901 -0.01886648 -0.01248007
v -0.00258901 -0.01856413 -0.01297688
v -0.00106407 -0.01773451 -0.01324609
v -0.00078513 -0.01792625 -0.01267158
v -0.00078513 0.01337803 -0.01689578
v -0.00096456 0.01287657 -0.01704565
v -0.00296194 0.01057207 -0.01622690
v -0.00296194 -0.01874849 -0.01292692
v -0.00296194 -0.01864156 -0.01310177
v -0.00296194 -0.01852726 -0.01327107
v -0.00296194 -0.01819910 -0.01374012
v -0.00296194 -0.01799999 -0.01401211
v -0.00296087 -0.01778613 -0.01429521
v -0.00159384 -0.01693070 -0.01445063
v -0.00159384 -0.01503917 -0.01654885
v -0.00101314 -0.01677584 -0.01427578
v -0.00078513 -0.01705976 -0.01380673
v -0.00078513 -0.01728099 -0.01355694
v -0.00078513 -0.01783407 -0.01282978
v -0.00078513 0.01274383 -0.01734263
v -0.00296194 -0.00430575 -0.02672913
v -0.00296194 -0.01778613 -0.01429521
v -0.00296194 -0.01616008 -0.01610201
v -0.00296194 -0.01495437 -0.01743977
v -0.00198722 -0.01280105 -0.01926045
v -0.00159384 -0.01458934 -0.01704565
v -0.00138394 -0.01357536 -0.01803371
v -0.00097265 -0.01581349 -0.01530824
v -0.00093962 -0.01485113 -0.01634070
v -0.00091362 -0.01388508 -0.01737038
v -0.00078513 -0.01502443 -0.01601874
v -0.00078513 0.01162292 -0.01806424
v -0.00296194 -0.00485883 -0.02705107
v -0.00078513 0.01080805 -0.01858324
v -0.00078513 0.00973139 -0.01926600
v -0.00078513 0.00956916 -0.01936869
v -0.00078513 0.00941061 -0.01946860
v -0.00078513 0.00865473 -0.01994320
v -0.00078513 0.00759651 -0.02059820
v -0.00296194 -0.01401045 -0.01848610
v -0.00132384 -0.01258350 -0.01905229
v -0.00296194 -0.01337625 -0.01918828
v -0.00296194 -0.01278630 -0.01983774
v -0.00296194 -0.00590600 -0.02691785
v -0.00090063 -0.01291167 -0.01838896
v -0.00078513 -0.01303334 -0.01815305
v -0.00078513 -0.01402520 -0.01710116
v -0.00078513 0.00696968 -0.02087852
v -0.00078513 0.00666365 -0.02099786
v -0.00296194 -0.00527917 -0.02715377
v -0.00078513 -0.00633740 -0.02180274
v -0.00078513 -0.00728132 -0.02140863
v -0.00078513 -0.01123399 -0.01953799
v -0.00078513 -0.01128930 -0.01951024
v -0.00078513 -0.01208205 -0.01904396
v -0.00078513 -0.01235121 -0.01880250
v -0.00078513 -0.01266831 -0.01851108
v -0.00078513 -0.00428363 -0.02182494
v -0.00078513 -0.00546722 -0.02189710
v -0.00078513 -0.00631528 -0.02180829
f 1 2 3
f 1 3 8
f 1 8 14
f 1 14 16
f 1 16 9
f 1 9 4
f 1 4 10
f 1 10 15
f 1 15 25
f 1 25 35
f 1 35 45
f 1 45 52
f 1 52 55
f 1 55 64
f 1 64 79
f 1 79 78
f 1 78 77
f 1 77 91
f 1 91 107
f 1 107 106
f 1 106 117
f 1 117 116
f 1 116 115
f 1 115 114
f 1 114 113
f 1 113 112
f 1 112 111
f 1 111 120
f 1 120 119
f 1 119 118
f 1 118 109
f 1 109 108
f 1 108 99
f 1 99 98
f 1 98 97
f 1 97 96
f 1 96 95
f 1 95 94
f 1 94 92
f 1 92 80
f 1 80 65
f 1 65 57
f 1 57 56
f 1 56 51
f 1 51 41
f 1 41 40
f 1 40 39
f 1 39 36
f 1 36 27
f 1 27 18
f 1 18 11
f 1 11 5
f 1 5 2
f 2 5 6
f 2 6 3
f 3 6 7
f 3 7 12
f 3 12 22
f 3 22 30
f 3 30 38
f 3 38 37
f 3 37 50
f 3 50 59
f 3 59 67
f 3 67 81
f 3 81 93
f 3 93 110
f 3 110 104
f 3 104 103
f 3 103 102
f 3 102 100
f 3 100 84
f 3 84 83
f 3 83 82
f 3 82 72
f 3 72 71
f 3 71 70
f 3 70 69
f 3 69 68
f 3 68 60
f 3 60 53
f 3 53 48
f 3 48 47
f 3 47 46
f 3 46 43
f 3 43 31
f 3 31 23
f 3 23 13
f 3 13 8
f 4 9 10
f 5 11 12
f 5 12 7
f 5 7 6
f 8 13 14
f 9 15 10
f 9 16 17
f 9 17 15
f 11 18 19
f 11 19 12
f 12 19 20
f 12 20 21
f 12 21 22
f 13 23 14
f 14 23 26
f 14 26 16
f 15 24 25
f 15 17 26
f 15 26 24
f 16 26 17
f 18 27 20
f 18 20 19
f 20 28 29
f 20 29 21
f 20 27 28
f 21 29 22
f 22 29 30
f 23 31 32
f 23 32 33
f 23 33 24
f 23 24 26
f 24 34 25
f 24 33 32
f 24 32 34
f 25 34 35
f 27 36 29
f 27 29 28
f 29 37 38
f 29 38 30
f 29 36 39
f 29 39 40
f 29 40 41
f 29 41 42
f 29 42 37
f 31 43 44
f 31 44 34
f 31 34 32
f 34 45 35
f 34 44 46
f 34 46 47
f 34 47 48
f 34 48 45
f 37 42 49
f 37 49 50
f 41 51 42
f 42 51 49
f 43 46 44
f 45 48 52
f 48 53 54
f 48 54 55
f 48 55 52
f 49 51 56
f 49 56 57
f 49 57 58
f 49 58 50
f 50 58 59
f 53 60 61
f 53 61 54
f 54 61 62
f 54 62 63
f 54 63 64
f 54 64 55
f 57 65 66
f 57 66 58
f 58 66 67
f 58 67 59
f 60 68 61
f 61 68 62
f 62 69 63
f 62 68 69
f 63 69 70
f 63 70 71
f 63 71 72
f 63 72 73
f 63 73 74
f 63 74 75
f 63 75 76
f 63 76 77
f 63 77 78
f 63 78 79
f 63 79 64
f 65 80 66
f 66 80 81
f 66 81 67
f 72 82 73
f 73 83 74
f 73 82 83
f 74 83 84
f 74 84 75
f 75 84 85
f 75 85 86
f 75 86 76
f 76 86 87
f 76 87 88
f 76 88 77
f 77 88 89
f 77 89 90
f 77 90 91
f 80 92 81
f 81 92 94
f 81 94 95
f 81 95 96
f 81 96 97
f 81 97 98
f 81 98 99
f 81 99 93
f 84 100 85
f 85 101 87
f 85 87 86
f 85 100 102
f 85 102 103
f 85 103 104
f 85 104 101
f 87 90 89
f 87 89 88
f 87 101 90
f 90 101 105
f 90 105 106
f 90 106 107
f 90 107 91
f 93 99 108
f 93 108 109
f 93 109 110
f 101 104 105
f 104 110 111
f 104 111 112
f 104 112 113
f 104 113 114
f 104 114 115
f 104 115 116
f 104 116 117
f 104 117 105
f 105 117 106
f 109 118 110
f 110 118 119
f 110 119 120
f 110 120 111

