# https://github.com/mikedh/trimesh
v -0.03820013 -0.01540268 -0.00956108
v -0.03820013 -0.01538953 -0.00875574
v -0.04439514 -0.01442822 -0.00974421
v -0.04439514 -0.01429161 -0.01073710
v -0.04439514 -0.01415399 -0.01173220
v -0.04439514 -0.01401030 -0.01272950
v -0.04485289 -0.01372798 -0.01420118
v -0.04376688 -0.01373203 -0.01514994
v -0.04140976 -0.01349828 -0.01870007
v -0.04041438 -0.01337685 -0.01969738
v -0.03941900 -0.01316232 -0.01969738
v -0.03868092 -0.01281119 -0.02034165
v -0.03820013 -0.01279298 -0.01986507
v -0.04439514 -0.01438268 -0.00874912
v -0.03820013 -0.01446060 0.00020895
v -0.04527378 -0.01405887 -0.00874912
v -0.04530143 -0.01407911 -0.00974421
v -0.04521848 -0.01401030 -0.01073710
v -0.04513399 -0.01394149 -0.01173220
v -0.04504260 -0.01386661 -0.01272950
v -0.04495965 -0.01379679 -0.01353705
v -0.04508177 -0.01333435 -0.01381065
v -0.04499345 -0.01306417 -0.01453656
v -0.04402878 -0.01298524 -0.01642746
v -0.04295813 -0.01284964 -0.01829630
v -0.04209255 -0.01294982 -0.01950101
v -0.04120086 -0.01297512 -0.02069247
v -0.04041438 -0.01309857 -0.02069247
v -0.03820013 -0.01251572 -0.02030414
v -0.03951040 -0.01288304 -0.02068144
v -0.03990364 -0.01274947 -0.02119333
v -0.03820013 -0.01228703 -0.02055126
v -0.03820013 -0.01423798 0.00113344
v -0.04510020 -0.01391619 -0.00809602
v -0.04559636 -0.01324226 -0.00874912
v -0.04570772 -0.01324226 -0.00974421
v -0.04560711 -0.01324226 -0.01073710
v -0.04545888 -0.01324226 -0.01173220
v -0.04529759 -0.01324226 -0.01272950
v -0.04528991 -0.01224756 -0.01372459
v -0.04504951 -0.01224756 -0.01462040
v -0.04484291 -0.01224756 -0.01511685
v -0.04451573 -0.01224756 -0.01571479
v -0.04406872 -0.01224756 -0.01650248
v -0.04377380 -0.01224756 -0.01699892
v -0.04334446 -0.01224756 -0.01770498
v -0.04297119 -0.01224756 -0.01831616
v -0.04216859 -0.01224756 -0.01962677
v -0.04186137 -0.01224756 -0.02012322
v -0.04098734 -0.01283143 -0.02124628
v -0.04041438 -0.01281322 -0.02123305
v -0.03990364 -0.01270899 -0.02119333
v -0.03820013 -0.01125185 -0.02080279
v -0.03820013 -0.01415703 0.00129451
v -0.04570004 -0.01025613 -0.00748484
v -0.04595119 -0.01084000 -0.00811808
v -0.04604643 -0.01025613 -0.00874912
v -0.04557485 -0.01224756 -0.01173220
v -0.04544275 -0.01224756 -0.01272950
v -0.04529836 -0.01125185 -0.01372459
v -0.04552186 -0.01125185 -0.01272950
v -0.04556256 -0.01025613 -0.01272950
v -0.04522616 -0.01025613 -0.01372459
v -0.04501879 -0.01125185 -0.01446816
v -0.04494122 -0.01025613 -0.01431371
v -0.04476149 -0.01125185 -0.01496681
v -0.04436826 -0.01125185 -0.01571479
v -0.04394046 -0.01049190 -0.01629508
v -0.04281912 -0.00926143 -0.01804477
v -0.04287442 -0.00998191 -0.01815068
v -0.04291666 -0.01064369 -0.01822569
v -0.04293894 -0.01125185 -0.01826320
v -0.04210561 -0.01025613 -0.01952307
v -0.04263479 -0.01125185 -0.01876185
v -0.04183296 -0.01125185 -0.02007247
v -0.04143358 -0.01224756 -0.02069247
v -0.04098197 -0.01224756 -0.02123967
v -0.04045432 -0.01232548 -0.02123084
v -0.03820013 -0.00826672 -0.02056229
v -0.03820013 -0.00506607 0.00129451
v -0.03820243 -0.01414893 0.00129451
v -0.04599804 -0.00966417 -0.00802762
v -0.04601801 -0.01025613 -0.00798349
v -0.03830227 -0.01324226 0.00129451
v -0.03830765 -0.01315322 0.00129451
v -0.03860795 -0.00727101 0.00129451
v -0.03861179 -0.00718196 0.00129451
v -0.03863791 -0.00627529 0.00129451
v -0.04598345 -0.00967024 -0.00874912
v -0.04517547 -0.00917946 -0.01272067
v -0.04503185 -0.00951744 -0.01372459
v -0.04489820 -0.00974107 -0.01423207
v -0.04468008 -0.01025613 -0.01481236
v -0.04308025 -0.00926143 -0.01754832
v -0.04198272 -0.00864619 -0.01934214
v -0.04246889 -0.00926143 -0.01870007
v -0.04205569 -0.00926143 -0.01945467
v -0.04176921 -0.00926143 -0.01995332
v -0.04180070 -0.01025613 -0.02001952
v -0.04092974 -0.01166268 -0.02120216
v -0.04081223 -0.01166268 -0.02120216
v -0.04127152 -0.00926143 -0.02052920
v -0.03842362 -0.00826672 -0.02057995
v -0.03820013 -0.00725887 -0.02035489
v -0.03820013 -0.00553762 -0.01173220
v -0.03941900 -0.00606684 -0.01272950
v -0.04041438 -0.00648172 -0.01272950
v -0.04096200 -0.00674684 -0.01339142
v -0.04098273 -0.00673672 -0.01272950
v -0.04491587 -0.00875042 -0.01238530
v -0.04491280 -0.00875143 -0.01173220
v -0.04489667 -0.00876155 -0.01120045
v -0.03829920 -0.00522494 0.00129451
v -0.03861333 -0.00618726 0.00129451
v -0.03833223 -0.00528059 0.00129451
v -0.03831610 -0.00525327 0.00129451
v -0.04486211 -0.00879190 -0.01304722
v -0.04475458 -0.00901958 -0.01372459
v -0.04395966 -0.00871095 -0.01535955
v -0.04299347 -0.00866339 -0.01738284
v -0.04084142 -0.00780530 -0.02004379
v -0.04114095 -0.00846911 -0.02039681
v -0.04041438 -0.00926143 -0.02080942
v -0.03941900 -0.00826672 -0.02061304
v -0.03832839 -0.00725684 -0.02034827
v -0.03820013 -0.00710101 -0.02029973
v -0.03820013 -0.00558720 -0.01272950
v -0.03830304 -0.00562768 -0.01272950
v -0.04330606 -0.00803500 -0.01364296
v -0.04291128 -0.00776381 -0.01325683
v -0.04047583 -0.00659405 -0.01372239
v -0.04084910 -0.00680047 -0.01405556
v -0.04109026 -0.00767982 -0.01870007
v -0.04124771 -0.00759785 -0.01770498
v -0.04174540 -0.00785488 -0.01770498
v -0.04425689 -0.00856422 -0.01372459
v -0.04407794 -0.00864315 -0.01471969
v -0.04097659 -0.00773750 -0.01937965
v -0.04047122 -0.00759988 -0.01970620
v -0.03820013 -0.00677619 -0.01969738
v -0.04017783 -0.00767274 -0.02030414
v -0.04047122 -0.00818881 -0.02048286
v -0.03941900 -0.00755536 -0.02038137
v -0.03820013 -0.00572887 -0.01372459
v -0.03862792 -0.00588672 -0.01372459
v -0.03941900 -0.00618018 -0.01372459
v -0.04339976 -0.00825762 -0.01471969
v -0.04021777 -0.00665577 -0.01471969
v -0.04071546 -0.00685309 -0.01471969
v -0.04004956 -0.00672357 -0.01550959
v -0.04041438 -0.00740661 -0.01870007
v -0.03877001 -0.00682881 -0.01887438
v -0.03820013 -0.00669827 -0.01929581
v -0.03820013 -0.00657684 -0.01862726
f 1 2 3
f 1 3 4
f 1 4 5
f 1 5 6
f 1 6 7
f 1 7 8
f 1 8 9
f 1 9 10
f 1 10 11
f 1 11 12
f 1 12 13
f 1 13 29
f 1 29 32
f 1 32 53
f 1 53 79
f 1 79 104
f 1 104 126
f 1 126 140
f 1 140 153
f 1 153 154
f 1 154 144
f 1 144 127
f 1 127 105
f 1 105 80
f 1 80 54
f 1 54 33
f 1 33 15
f 1 15 2
f 2 14 3
f 2 15 14
f 3 14 16
f 3 16 17
f 3 17 18
f 3 18 19
f 3 19 20
f 3 20 21
f 3 21 7
f 3 7 4
f 4 7 5
f 5 7 6
f 7 21 22
f 7 22 23
f 7 23 24
f 7 24 25
f 7 25 26
f 7 26 27
f 7 27 9
f 7 9 8
f 9 27 10
f 10 27 28
f 10 28 11
f 11 28 12
f 12 29 13
f 12 28 30
f 12 30 31
f 12 31 32
f 12 32 29
f 14 15 33
f 14 33 16
f 16 34 35
f 16 35 36
f 16 36 17
f 16 33 34
f 17 36 37
f 17 37 18
f 18 37 19
f 19 37 20
f 20 37 21
f 21 37 38
f 21 38 39
f 21 39 22
f 22 40 23
f 22 39 40
f 23 40 41
f 23 41 42
f 23 42 24
f 24 43 44
f 24 44 25
f 24 42 43
f 25 44 45
f 25 45 46
f 25 46 47
f 25 47 48
f 25 48 49
f 25 49 50
f 25 50 26
f 26 50 27
f 27 50 28
f 28 50 51
f 28 51 31
f 28 31 30
f 31 51 52
f 31 52 53
f 31 53 32
f 33 54 34
f 34 55 56
f 34 56 35
f 34 54 55
f 35 56 36
f 36 56 57
f 36 57 37
f 37 58 59
f 37 59 38
f 37 57 58
f 38 59 40
f 38 40 39
f 40 60 41
f 40 59 61
f 40 61 62
f 40 62 60
f 41 60 63
f 41 63 64
f 41 64 42
f 42 64 65
f 42 65 66
f 42 66 67
f 42 67 68
f 42 68 69
f 42 69 70
f 42 70 43
f 43 70 71
f 43 71 44
f 44 71 45
f 45 71 72
f 45 72 46
f 46 72 73
f 46 73 74
f 46 74 47
f 47 74 73
f 47 73 75
f 47 75 48
f 48 75 49
f 49 75 76
f 49 76 50
f 50 77 78
f 50 78 51
f 50 76 77
f 51 78 52
f 52 78 79
f 52 79 53
f 54 80 113
f 54 113 116
f 54 116 115
f 54 115 114
f 54 114 88
f 54 88 87
f 54 87 86
f 54 86 85
f 54 85 84
f 54 84 81
f 54 81 55
f 55 82 83
f 55 83 56
f 55 81 84
f 55 84 85
f 55 85 86
f 55 86 87
f 55 87 88
f 55 88 82
f 56 83 57
f 57 83 82
f 57 82 89
f 57 89 62
f 57 62 61
f 57 61 58
f 58 61 59
f 60 62 63
f 62 90 91
f 62 91 63
f 62 89 90
f 63 91 92
f 63 92 65
f 63 65 64
f 65 92 93
f 65 93 66
f 66 93 68
f 66 68 67
f 68 94 69
f 68 93 94
f 69 94 95
f 69 95 96
f 69 96 70
f 70 96 97
f 70 97 71
f 71 97 98
f 71 98 73
f 71 73 72
f 73 98 99
f 73 99 75
f 75 99 76
f 76 99 98
f 76 98 77
f 77 100 101
f 77 101 78
f 77 98 102
f 77 102 100
f 78 101 79
f 79 101 103
f 79 103 104
f 80 105 106
f 80 106 107
f 80 107 108
f 80 108 109
f 80 109 110
f 80 110 111
f 80 111 112
f 80 112 82
f 80 82 113
f 82 88 114
f 82 114 115
f 82 115 116
f 82 116 113
f 82 112 111
f 82 111 110
f 82 110 89
f 89 110 90
f 90 110 117
f 90 117 91
f 91 117 118
f 91 118 119
f 91 119 92
f 92 119 120
f 92 120 94
f 92 94 93
f 94 120 95
f 95 121 122
f 95 122 98
f 95 98 97
f 95 97 96
f 95 120 121
f 98 122 102
f 100 123 101
f 100 102 122
f 100 122 123
f 101 123 103
f 103 123 124
f 103 124 104
f 104 124 125
f 104 125 126
f 105 127 128
f 105 128 106
f 106 128 108
f 106 108 107
f 108 129 130
f 108 130 110
f 108 110 109
f 108 128 127
f 108 127 131
f 108 131 132
f 108 132 133
f 108 133 134
f 108 134 135
f 108 135 129
f 110 130 117
f 117 130 129
f 117 129 136
f 117 136 137
f 117 137 119
f 117 119 118
f 119 137 138
f 119 138 121
f 119 121 120
f 121 138 139
f 121 139 140
f 121 140 141
f 121 141 122
f 122 142 123
f 122 141 142
f 123 142 124
f 124 142 143
f 124 143 125
f 125 143 126
f 126 143 141
f 126 141 140
f 127 144 145
f 127 145 146
f 127 146 131
f 129 147 136
f 129 135 147
f 131 146 148
f 131 148 149
f 131 149 132
f 132 149 138
f 132 138 133
f 133 138 135
f 133 135 134
f 135 138 137
f 135 137 136
f 135 136 147
f 138 149 148
f 138 148 150
f 138 150 151
f 138 151 139
f 139 152 153
f 139 153 140
f 139 151 150
f 139 150 146
f 139 146 145
f 139 145 144
f 139 144 152
f 141 143 142
f 144 154 152
f 146 150 148
f 152 154 153

