# https://github.com/mikedh/trimesh
v -0.01568161 0.00268276 0.02755025
v -0.01567014 0.00268276 0.02808129
v -0.01539412 0.00359746 0.02755025
v -0.01532368 0.00116495 0.02755025
v -0.01554974 0.00168778 0.02902847
v -0.01543835 0.00274824 0.02902847
v -0.01536873 0.00345487 0.02808129
v -0.01519755 0.00329115 0.02881649
v -0.01497313 0.00367139 0.02755025
v -0.01394769 -0.00426200 0.02755025
v -0.01516151 0.00069281 0.02902847
v -0.01394031 -0.00428312 0.02755025
v -0.01535071 0.00291619 0.02902847
v -0.01453330 0.00323200 0.02902847
v -0.01453330 0.00354148 0.02808129
v -0.01456688 0.00371364 0.02755025
v -0.01475035 -0.00034970 0.02902847
v -0.01353407 -0.00503622 0.02755025
v -0.01321300 -0.00401906 0.02902847
v -0.01356028 -0.00333568 0.02902847
v -0.01389527 -0.00250125 0.02902847
v -0.01424746 0.00316757 0.02902847
v -0.01399519 0.00320771 0.02872866
v -0.01383548 0.00331650 0.02755025
v -0.01342104 -0.00513973 0.02755025
v -0.01325723 -0.00527282 0.02755025
v -0.01248077 -0.00589494 0.02755025
v -0.01245866 -0.00455986 0.02902847
v -0.01365692 0.00292464 0.02902847
v -0.01362498 0.00290351 0.02902847
v -0.01360287 0.00316018 0.02755025
v -0.01154706 -0.00636708 0.02755025
v -0.01203030 -0.00477850 0.02902847
v -0.01280020 0.00234687 0.02902847
v -0.01217363 0.00209866 0.02808129
v -0.01210156 0.00214725 0.02755025
v -0.01050442 -0.00687724 0.02755025
v -0.01162815 -0.00492320 0.02902847
v -0.01230222 0.00196240 0.02902847
v -0.01092786 0.00129592 0.02755025
v -0.01187386 0.00199303 0.02755025
v -0.00955760 -0.00706525 0.02755025
v -0.00890154 -0.00577559 0.02902847
v -0.00961985 -0.00556434 0.02902847
v -0.01060680 -0.00526331 0.02902847
v -0.01226946 0.00193705 0.02902847
v -0.00750998 -0.00447747 0.02902847
v -0.00768280 -0.00444367 0.02755025
v -0.01096800 0.00126951 0.02775731
v -0.00917346 -0.00707687 0.02755025
v -0.00842813 -0.00585163 0.02902847
v -0.01178295 0.00146386 0.02902847
v -0.00743791 -0.00526648 0.02902847
v -0.00731587 -0.00527915 0.02755025
v -0.00882947 -0.00696913 0.02755025
v -0.00800469 -0.00585163 0.02902847
v -0.00796455 -0.00583896 0.02902847
v -0.00756731 -0.00624772 0.02755025
v -0.00822501 -0.00665332 0.02755025
f 1 2 3
f 1 3 9
f 1 9 16
f 1 16 24
f 1 24 31
f 1 31 36
f 1 36 41
f 1 41 40
f 1 40 48
f 1 48 54
f 1 54 58
f 1 58 59
f 1 59 55
f 1 55 50
f 1 50 42
f 1 42 37
f 1 37 32
f 1 32 27
f 1 27 26
f 1 26 25
f 1 25 18
f 1 18 12
f 1 12 10
f 1 10 4
f 1 4 5
f 1 5 2
f 2 6 7
f 2 7 3
f 2 5 6
f 3 7 8
f 3 8 9
f 4 10 5
f 5 11 17
f 5 17 21
f 5 21 20
f 5 20 19
f 5 19 28
f 5 28 33
f 5 33 38
f 5 38 45
f 5 45 44
f 5 44 43
f 5 43 51
f 5 51 56
f 5 56 57
f 5 57 53
f 5 53 47
f 5 47 52
f 5 52 46
f 5 46 39
f 5 39 34
f 5 34 30
f 5 30 29
f 5 29 22
f 5 22 14
f 5 14 13
f 5 13 6
f 5 10 12
f 5 12 11
f 6 13 7
f 7 13 8
f 8 14 15
f 8 15 16
f 8 16 9
f 8 13 14
f 11 12 17
f 12 18 19
f 12 19 20
f 12 20 21
f 12 21 17
f 14 22 15
f 15 22 23
f 15 23 16
f 16 23 24
f 18 25 19
f 19 25 26
f 19 26 27
f 19 27 28
f 22 29 23
f 23 29 30
f 23 30 31
f 23 31 24
f 27 32 33
f 27 33 28
f 30 34 35
f 30 35 31
f 31 35 36
f 32 37 33
f 33 37 38
f 34 39 40
f 34 40 35
f 35 41 36
f 35 40 41
f 37 42 43
f 37 43 44
f 37 44 45
f 37 45 38
f 39 46 40
f 40 47 48
f 40 46 49
f 40 49 47
f 42 50 51
f 42 51 43
f 46 52 49
f 47 53 54
f 47 54 48
f 47 49 52
f 50 55 56
f 50 56 51
f 53 57 58
f 53 58 54
f 55 59 57
f 55 57 56
f 57 59 58

