# https://github.com/mikedh/trimesh
v -0.01121783 -0.00674691 -0.02473688
v -0.01040888 -0.01124740 -0.02473688
v -0.01142708 -0.00674691 -0.02518903
v -0.01930737 -0.00674691 -0.02473688
v -0.01038646 -0.01141772 -0.02473688
v -0.01233131 -0.00674691 -0.02671695
v -0.01206228 -0.00674691 -0.02631273
v -0.01200810 -0.00674691 -0.02622859
v -0.01187919 -0.00674691 -0.02601770
v -0.02068802 -0.00924695 -0.02473688
v -0.02590045 -0.00674691 -0.02719839
v -0.02593594 -0.00679232 -0.02717762
v -0.02626102 -0.00745604 -0.02697791
v -0.02545207 -0.00829111 -0.02634735
v -0.02509897 -0.00864000 -0.02612687
v -0.01286376 -0.00674691 -0.02750621
v -0.01060131 -0.01213718 -0.02473688
v -0.01091891 -0.01188428 -0.02526252
v -0.01472828 -0.00674691 -0.03017701
v -0.02117750 -0.01025750 -0.02473688
v -0.02648148 -0.00674691 -0.02765745
v -0.02654686 -0.00718354 -0.02737786
v -0.02692425 -0.00795564 -0.02720638
v -0.02654686 -0.00827976 -0.02688204
v -0.02560339 -0.00926140 -0.02630581
v -0.02510457 -0.00926140 -0.02612474
v -0.01063120 -0.01215369 -0.02473688
v -0.02471037 -0.01709598 -0.03017701
v -0.01608090 -0.01274000 -0.02815381
v -0.01500852 -0.01177693 -0.02817458
v -0.02921847 -0.00674691 -0.03017701
v -0.02113079 -0.01080251 -0.02473688
v -0.02701766 -0.00674691 -0.02812026
v -0.02806949 -0.00674691 -0.02905916
v -0.02733153 -0.00827976 -0.02758662
v -0.02700459 -0.00861936 -0.02713342
v -0.02908395 -0.00674691 -0.03001405
v -0.02915869 -0.00727128 -0.02992511
v -0.02647774 -0.00926140 -0.02676967
v -0.02638993 -0.01125256 -0.02688950
v -0.02548196 -0.01324269 -0.02659180
v -0.02548196 -0.01224659 -0.02650446
v -0.02548196 -0.01125256 -0.02642138
v -0.02460014 -0.01423775 -0.02630688
v -0.01147565 -0.01255833 -0.02473688
v -0.01983049 -0.01579228 -0.02721703
v -0.02268518 -0.01683276 -0.02728306
v -0.02510457 -0.01721365 -0.03017701
v -0.02924089 -0.00681503 -0.03017701
v -0.02917923 -0.00674691 -0.03012695
v -0.02441145 -0.01525552 -0.02631433
v -0.02093463 -0.01173255 -0.02473688
v -0.02789761 -0.00826634 -0.02824274
v -0.02701206 -0.00926140 -0.02712969
v -0.02794806 -0.00890219 -0.02818363
v -0.02800037 -0.00956591 -0.02812238
v -0.02804894 -0.01025750 -0.02808138
v -0.02912506 -0.00674691 -0.03006198
v -0.02937167 -0.00727128 -0.03017701
v -0.02924089 -0.00826634 -0.02982552
v -0.02881866 -0.00826634 -0.02932758
v -0.02699525 -0.00989106 -0.02714779
v -0.02655807 -0.01023685 -0.02689962
v -0.02630960 -0.01224659 -0.02693637
v -0.02548196 -0.01423775 -0.02668233
v -0.01152236 -0.01257897 -0.02473688
v -0.01693656 -0.01478173 -0.02537223
v -0.02268518 -0.01683276 -0.02701838
v -0.02442826 -0.01722088 -0.02771338
v -0.02548196 -0.01729210 -0.03017701
v -0.02548196 -0.01523282 -0.02677500
v -0.02555482 -0.01621446 -0.02691985
v -0.02448618 -0.01622891 -0.02647943
v -0.02390141 -0.01560235 -0.02617746
v -0.02050493 -0.01224246 -0.02473688
v -0.02805455 -0.01125256 -0.02808723
v -0.02889713 -0.00926140 -0.02923491
v -0.02899802 -0.01054962 -0.02911508
v -0.02903351 -0.01125256 -0.02906289
v -0.02855150 -0.01125256 -0.02856494
v -0.02945760 -0.00828595 -0.03017701
v -0.02928946 -0.00926140 -0.02973286
v -0.02694293 -0.01055478 -0.02718614
v -0.02615079 -0.01423775 -0.02704075
v -0.02622926 -0.01324269 -0.02698696
v -0.02800971 -0.01198854 -0.02813037
v -0.02747352 -0.01125256 -0.02765373
v -0.01158961 -0.01260684 -0.02473688
v -0.01693656 -0.01478173 -0.02509530
v -0.02349227 -0.01695972 -0.02689802
v -0.02448618 -0.01711456 -0.02687299
v -0.02548196 -0.01727249 -0.02865548
v -0.02548196 -0.01729004 -0.02965084
v -0.02582385 -0.01710940 -0.03017701
v -0.02606859 -0.01523282 -0.02709720
v -0.02527084 -0.01703921 -0.02698483
v -0.02601254 -0.01587279 -0.02713821
v -0.01743725 -0.01419130 -0.02473688
v -0.02323818 -0.01578402 -0.02614019
v -0.01744659 -0.01418717 -0.02473688
v -0.01997995 -0.01265845 -0.02473688
v -0.02902604 -0.01189254 -0.02907088
v -0.02947068 -0.00926140 -0.03017701
v -0.02680842 -0.01224659 -0.02728520
v -0.02795553 -0.01265122 -0.02817191
v -0.02672809 -0.01324269 -0.02734378
v -0.01658159 -0.01437814 -0.02473688
v -0.02555482 -0.01712695 -0.02766065
v -0.01658719 -0.01437814 -0.02473688
v -0.02610969 -0.01692153 -0.03017701
v -0.02593408 -0.01653651 -0.02732993
v -0.02725493 -0.01423775 -0.02791042
v -0.02933243 -0.01024718 -0.03017701
v -0.02915495 -0.01125256 -0.02965084
v -0.02902791 -0.01190286 -0.02965084
v -0.02882427 -0.01239936 -0.02965084
v -0.02839083 -0.01324269 -0.02965084
v -0.02800037 -0.01378564 -0.02904052
v -0.02709613 -0.01492624 -0.02802013
v -0.02601068 -0.01677496 -0.02799297
v -0.02604804 -0.01683070 -0.02865548
v -0.02608727 -0.01689160 -0.02965084
v -0.02655621 -0.01622891 -0.03017701
v -0.02912879 -0.01126392 -0.03017701
v -0.02899428 -0.01182441 -0.03017701
v -0.02857018 -0.01284425 -0.03017701
v -0.02820774 -0.01357506 -0.03017701
v -0.02803960 -0.01385789 -0.03017701
v -0.02803399 -0.01384035 -0.02965084
v -0.02717833 -0.01505527 -0.02865548
v -0.02686260 -0.01555280 -0.02865548
v -0.02690370 -0.01561680 -0.02965084
v -0.02651323 -0.01622891 -0.02965084
v -0.02747726 -0.01478483 -0.03017701
v -0.02773881 -0.01435542 -0.03017701
v -0.02771826 -0.01433891 -0.02965084
f 1 2 3
f 1 3 9
f 1 9 8
f 1 8 7
f 1 7 6
f 1 6 16
f 1 16 19
f 1 19 31
f 1 31 50
f 1 50 58
f 1 58 37
f 1 37 34
f 1 34 33
f 1 33 21
f 1 21 11
f 1 11 4
f 1 4 10
f 1 10 20
f 1 20 32
f 1 32 52
f 1 52 75
f 1 75 101
f 1 101 100
f 1 100 98
f 1 98 109
f 1 109 107
f 1 107 88
f 1 88 66
f 1 66 45
f 1 45 27
f 1 27 17
f 1 17 5
f 1 5 2
f 2 5 6
f 2 6 7
f 2 7 8
f 2 8 9
f 2 9 3
f 4 11 12
f 4 12 13
f 4 13 14
f 4 14 15
f 4 15 10
f 5 16 6
f 5 17 18
f 5 18 19
f 5 19 16
f 10 15 20
f 11 21 12
f 12 21 22
f 12 22 13
f 13 22 23
f 13 23 24
f 13 24 14
f 14 24 15
f 15 24 25
f 15 25 26
f 15 26 20
f 17 27 28
f 17 28 18
f 18 29 30
f 18 30 19
f 18 28 29
f 19 30 28
f 19 28 48
f 19 48 70
f 19 70 94
f 19 94 110
f 19 110 123
f 19 123 134
f 19 134 135
f 19 135 128
f 19 128 127
f 19 127 126
f 19 126 125
f 19 125 124
f 19 124 113
f 19 113 103
f 19 103 81
f 19 81 59
f 19 59 49
f 19 49 31
f 20 26 32
f 21 33 22
f 22 33 34
f 22 34 23
f 23 35 36
f 23 36 24
f 23 34 37
f 23 37 38
f 23 38 35
f 24 36 39
f 24 39 25
f 25 39 40
f 25 40 41
f 25 41 42
f 25 42 43
f 25 43 44
f 25 44 32
f 25 32 26
f 27 45 46
f 27 46 28
f 28 47 48
f 28 30 29
f 28 46 47
f 31 49 50
f 32 44 51
f 32 51 52
f 35 38 53
f 35 53 36
f 36 54 39
f 36 53 55
f 36 55 56
f 36 56 57
f 36 57 54
f 37 58 38
f 38 58 59
f 38 59 60
f 38 60 61
f 38 61 53
f 39 54 62
f 39 62 63
f 39 63 40
f 40 63 62
f 40 62 64
f 40 64 41
f 41 64 65
f 41 65 51
f 41 51 42
f 42 51 44
f 42 44 43
f 45 66 46
f 46 66 67
f 46 67 47
f 47 68 69
f 47 69 48
f 47 67 89
f 47 89 68
f 48 69 70
f 49 59 58
f 49 58 50
f 51 65 71
f 51 71 72
f 51 72 73
f 51 73 74
f 51 74 52
f 52 74 75
f 53 61 55
f 54 57 76
f 54 76 62
f 55 61 77
f 55 77 78
f 55 78 56
f 56 78 57
f 57 78 79
f 57 79 80
f 57 80 76
f 59 81 82
f 59 82 60
f 60 82 78
f 60 78 77
f 60 77 61
f 62 83 84
f 62 84 85
f 62 85 64
f 62 76 86
f 62 86 87
f 62 87 83
f 64 85 71
f 64 71 65
f 66 88 67
f 67 88 89
f 68 89 90
f 68 90 69
f 69 90 91
f 69 91 92
f 69 92 93
f 69 93 70
f 70 93 94
f 71 85 84
f 71 84 95
f 71 95 72
f 72 96 73
f 72 95 97
f 72 97 96
f 73 91 98
f 73 98 99
f 73 99 74
f 73 96 91
f 74 99 98
f 74 98 100
f 74 100 101
f 74 101 75
f 76 80 102
f 76 102 86
f 78 82 79
f 79 82 103
f 79 103 102
f 79 102 80
f 81 103 82
f 83 104 84
f 83 87 104
f 84 104 95
f 86 102 105
f 86 105 95
f 86 95 106
f 86 106 104
f 86 104 87
f 88 107 89
f 89 107 91
f 89 91 90
f 91 96 108
f 91 108 92
f 91 107 109
f 91 109 98
f 92 108 110
f 92 110 94
f 92 94 93
f 95 104 106
f 95 105 97
f 96 97 111
f 96 111 108
f 97 112 111
f 97 105 112
f 102 103 113
f 102 113 114
f 102 114 115
f 102 115 116
f 102 116 117
f 102 117 118
f 102 118 119
f 102 119 112
f 102 112 105
f 108 111 120
f 108 120 121
f 108 121 122
f 108 122 110
f 110 122 121
f 110 121 123
f 111 112 119
f 111 119 120
f 113 124 115
f 113 115 114
f 115 125 116
f 115 124 125
f 116 125 126
f 116 126 127
f 116 127 117
f 117 127 128
f 117 128 129
f 117 129 118
f 118 129 130
f 118 130 119
f 119 130 120
f 120 130 131
f 120 131 121
f 121 131 136
f 121 136 132
f 121 132 133
f 121 133 123
f 123 133 132
f 123 132 134
f 128 135 129
f 129 135 134
f 129 134 136
f 129 136 130
f 130 136 131
f 132 136 134

