# https://github.com/mikedh/trimesh
v 0.00441208 0.01707478 -0.00776435
v 0.00351987 0.01663408 -0.00776435
v 0.00835687 0.01702066 -0.00776435
v 0.00835687 0.02142379 -0.01289004
v 0.00769744 0.02121117 -0.01309478
v 0.00351280 0.01663022 -0.00776435
v 0.00835687 -0.01804587 -0.00776435
v 0.00835687 0.02144699 -0.01375031
v 0.00769744 0.02121117 -0.01343062
v 0.00238782 0.01763146 -0.01273020
v 0.00233655 0.01759667 -0.01267632
v 0.00233655 0.01733379 -0.01176576
v 0.00233655 0.01531972 -0.00776435
v 0.00233714 -0.01777913 -0.00776435
v 0.00233655 -0.01746600 -0.00878087
v 0.00835687 -0.01700597 -0.01079953
v 0.00485229 0.01912365 -0.01424958
v 0.00835687 0.01759667 -0.02078331
v 0.00833860 0.01762372 -0.02071506
v 0.00428361 0.01885304 -0.01372516
v 0.00233655 0.01759667 -0.01273020
v 0.00233655 -0.01767088 -0.00776435
v 0.00233655 -0.01749692 -0.00867850
v 0.00233655 -0.01747373 -0.00875572
v 0.00233655 -0.01746213 -0.00879164
v 0.00835687 -0.01665032 -0.01181964
v 0.00835687 -0.01678949 -0.01142632
v 0.00277264 0.01719076 -0.01534512
v 0.00233655 0.01712890 -0.01472192
v 0.00355641 0.01835436 -0.01372516
v 0.00788248 0.01710184 -0.02116764
v 0.00537912 0.01638667 -0.01967879
v 0.00475564 0.01619339 -0.01933396
v 0.00233655 0.01557486 -0.01775710
v 0.00233655 0.01560579 -0.01770143
v 0.00835687 0.01706705 -0.02168488
v 0.00233655 0.01744590 -0.01361561
v 0.00233655 -0.01706396 -0.00968963
v 0.00835687 -0.01589262 -0.01370002
v 0.00835687 -0.01591195 -0.01365512
v 0.00835687 -0.01629467 -0.01273379
v 0.00835687 -0.01663486 -0.01186274
v 0.00241965 0.01676165 -0.01569354
v 0.00233655 0.01670367 -0.01569534
v 0.00233655 0.01569470 -0.01753979
v 0.00233655 0.01742270 -0.01371977
v 0.00305904 0.01797551 -0.01372516
v 0.00827260 0.01696268 -0.02177109
v 0.00669150 0.01623591 -0.02133646
v 0.00636326 0.01642533 -0.02068632
v 0.00571444 0.01621271 -0.02035227
v 0.00258937 0.01530425 -0.01845933
v 0.00233655 0.01479784 -0.01873770
v 0.00835687 0.01698201 -0.02182137
v 0.00233655 0.01742657 -0.01370541
v 0.00233655 -0.01701370 -0.00979200
v 0.00835687 -0.01542487 -0.01471115
v 0.00835687 -0.01545579 -0.01464649
v 0.00835687 -0.01569160 -0.01414542
v 0.00773339 0.01622818 -0.02228653
v 0.00602794 0.01594984 -0.02101498
v 0.00296004 0.01503365 -0.01912204
v 0.00233655 0.01474758 -0.01879338
v 0.00835687 0.01643693 -0.02248947
v 0.00233655 -0.01514653 -0.01262423
v 0.00835687 -0.01484500 -0.01575281
v 0.00835687 -0.01491845 -0.01563966
v 0.00835687 -0.01540940 -0.01474168
v 0.00831149 0.01569083 -0.02299773
v 0.00738688 0.01557486 -0.02245176
v 0.00679109 0.01521534 -0.02224522
v 0.00706983 0.01587639 -0.02199917
v 0.00401607 0.01496407 -0.02007929
v 0.00268130 0.01437260 -0.01937168
v 0.00233655 0.01470119 -0.01882750
v 0.00835687 0.01571403 -0.02300671
v 0.00233655 -0.01424193 -0.01371259
v 0.00835687 -0.01463624 -0.01606890
v 0.00835687 0.01564831 -0.02304622
v 0.00794730 0.01501819 -0.02313063
v 0.00735270 0.01466253 -0.02293667
v 0.00274317 0.01031739 -0.02228653
v 0.00584880 0.01415612 -0.02220391
v 0.00545986 0.01452337 -0.02161484
v 0.00573506 0.01528493 -0.02130414
v 0.00440442 0.01459682 -0.02067016
v 0.00233655 0.01358011 -0.01964466
v 0.00233655 0.01361491 -0.01961952
v 0.00233655 -0.01331801 -0.01480633
v 0.00233655 -0.01256032 -0.01567378
v 0.00233655 -0.01238249 -0.01586595
v 0.00233655 -0.01217761 -0.01608506
v 0.00835687 -0.01421487 -0.01650172
v 0.00835687 0.01477464 -0.02348444
v 0.00831149 0.01466253 -0.02351317
v 0.00767681 0.01435714 -0.02328868
v 0.00417518 0.01064598 -0.02300851
v 0.00701326 0.01394736 -0.02309471
v 0.00240197 0.00961382 -0.02244098
v 0.00233655 0.00957516 -0.02241943
v 0.00233655 0.00967567 -0.02235657
v 0.00233655 0.01063439 -0.02173517
v 0.00233655 0.01067691 -0.02170643
v 0.00302250 0.01097844 -0.02206922
v 0.00233655 0.01250156 -0.02041154
v 0.00233655 -0.01151656 -0.01667234
v 0.00835687 -0.01092123 -0.01938964
v 0.00835687 0.01461615 -0.02356166
v 0.00835687 0.01371155 -0.02399270
v 0.00834390 0.01168201 -0.02495174
v 0.00580931 0.01221549 -0.02321684
v 0.00545220 0.01057253 -0.02378975
v 0.00335723 0.00970273 -0.02297798
v 0.00367191 0.00940893 -0.02329766
v 0.00233655 0.00859325 -0.02282891
v 0.00233655 -0.01134646 -0.01681063
v 0.00835687 -0.00770489 -0.02214644
v 0.00835687 -0.00826157 -0.02169027
v 0.00835687 -0.00881051 -0.02122870
v 0.00835687 -0.00952568 -0.02060730
v 0.00835687 -0.01016353 -0.02005235
v 0.00835687 0.01168975 -0.02495534
v 0.00835687 0.01167042 -0.02496431
v 0.00583642 0.01018982 -0.02419564
v 0.00300836 0.00889092 -0.02310908
v 0.00778524 0.01025554 -0.02520497
v 0.00246502 0.00859712 -0.02289716
v 0.00284866 0.00822600 -0.02319708
v 0.00233655 0.00795540 -0.02296900
v 0.00233655 -0.00525399 -0.02067734
v 0.00388171 -0.00577587 -0.02118919
v 0.00695079 -0.00668046 -0.02214644
v 0.00731498 -0.00727966 -0.02193272
v 0.00808225 -0.00761985 -0.02208718
v 0.00761435 -0.00695493 -0.02228473
v 0.00835687 -0.00731832 -0.02235478
v 0.00835687 0.01064212 -0.02536661
v 0.00800152 0.01091659 -0.02509003
v 0.00834390 0.01061119 -0.02537020
v 0.00835687 0.00984190 -0.02551208
v 0.00835687 0.00964861 -0.02554621
v 0.00769213 0.00964861 -0.02524807
v 0.00498488 0.00865511 -0.02412560
v 0.00233655 0.00765773 -0.02303006
v 0.00233655 -0.00454268 -0.02108862
v 0.00284984 -0.00480942 -0.02120356
v 0.00663905 -0.00601941 -0.02227755
v 0.00731498 -0.00632094 -0.02243559
v 0.00835687 -0.00627455 -0.02281814
v 0.00835687 -0.00724873 -0.02239070
v 0.00835687 -0.00726419 -0.02238351
v 0.00835687 0.01060733 -0.02537559
v 0.00835687 0.00865511 -0.02564499
v 0.00835687 0.00666423 -0.02584254
v 0.00835687 0.00566685 -0.02594132
v 0.00728669 0.00666423 -0.02536122
v 0.00548225 0.00865511 -0.02435189
v 0.00277500 0.00765773 -0.02322941
v 0.00537382 0.00566685 -0.02459794
v 0.00468316 0.00566685 -0.02427466
v 0.00233655 0.00752630 -0.02303724
v 0.00233655 -0.00431847 -0.02118021
v 0.00233655 -0.00410585 -0.02126642
v 0.00246620 -0.00419476 -0.02128618
v 0.00338316 -0.00428367 -0.02162202
v 0.00645283 -0.00319352 -0.02327072
v 0.00736448 -0.00030192 -0.02473084
v 0.00781530 -0.00482875 -0.02319888
v 0.00792373 0.00024316 -0.02515469
v 0.00835687 -0.00554392 -0.02309471
v 0.00835687 0.00467335 -0.02603830
v 0.00825256 0.00467335 -0.02599161
v 0.00736448 0.00467335 -0.02559290
v 0.00476684 0.00666423 -0.02422617
v 0.00338316 0.00765773 -0.02350419
v 0.00426888 0.00666423 -0.02400168
v 0.00665378 0.00467335 -0.02526963
v 0.00615582 0.00467335 -0.02503615
v 0.00736448 0.00367598 -0.02566474
v 0.00537382 0.00467335 -0.02463924
v 0.00272608 0.00666423 -0.02326353
v 0.00233655 0.00666423 -0.02305520
v 0.00233655 -0.00328630 -0.02157353
v 0.00238782 -0.00328630 -0.02159688
v 0.00489059 -0.00177865 -0.02317553
v 0.00730320 0.00062201 -0.02505411
v 0.00759431 0.00090807 -0.02527861
v 0.00770451 -0.00196034 -0.02423874
v 0.00835687 0.00168896 -0.02581380
v 0.00835687 0.00163484 -0.02579405
v 0.00835687 0.00049443 -0.02536661
v 0.00835687 -0.00232759 -0.02430519
v 0.00835687 0.00367598 -0.02611014
v 0.00817772 0.00367598 -0.02604010
v 0.00663669 0.00367598 -0.02529298
v 0.00736448 0.00268247 -0.02563241
v 0.00233655 0.00646707 -0.02304622
v 0.00470378 0.00467335 -0.02427466
v 0.00233655 -0.00227733 -0.02187705
v 0.00280564 -0.00193328 -0.02223265
v 0.00577749 0.00007306 -0.02422258
v 0.00693076 0.00132944 -0.02514571
v 0.00730320 0.00167350 -0.02539894
v 0.00835687 0.00262062 -0.02605087
v 0.00835687 0.00273272 -0.02605806
v 0.00835687 0.00263994 -0.02605267
v 0.00613873 0.00367598 -0.02501999
v 0.00680523 0.00199049 -0.02520857
v 0.00672096 0.00268247 -0.02526065
v 0.00278442 0.00566685 -0.02324198
v 0.00233655 0.00566685 -0.02296900
v 0.00420582 0.00467335 -0.02398013
v 0.00233655 -0.00142686 -0.02203869
v 0.00271253 -0.00129542 -0.02229012
v 0.00395714 -0.00051840 -0.02314320
v 0.00537382 0.00367598 -0.02456740
v 0.00233655 0.00202142 -0.02249845
v 0.00530959 0.00274432 -0.02440756
v 0.00233655 -0.00129542 -0.02206203
v 0.00233655 -0.00030192 -0.02219314
v 0.00233655 0.00539238 -0.02293487
v 0.00233655 0.00560887 -0.02296181
v 0.00233655 0.00367598 -0.02271397
v 0.00233655 0.00467721 -0.02284328
v 0.00233655 0.00268247 -0.02258466
f 1 2 6
f 1 6 13
f 1 13 22
f 1 22 14
f 1 14 7
f 1 7 3
f 1 3 4
f 1 4 5
f 1 5 2
f 2 5 6
f 3 7 16
f 3 16 27
f 3 27 26
f 3 26 42
f 3 42 41
f 3 41 40
f 3 40 39
f 3 39 59
f 3 59 58
f 3 58 57
f 3 57 68
f 3 68 67
f 3 67 66
f 3 66 78
f 3 78 93
f 3 93 107
f 3 107 121
f 3 121 120
f 3 120 119
f 3 119 118
f 3 118 117
f 3 117 136
f 3 136 151
f 3 151 150
f 3 150 149
f 3 149 170
f 3 170 192
f 3 192 191
f 3 191 190
f 3 190 189
f 3 189 204
f 3 204 206
f 3 206 205
f 3 205 193
f 3 193 171
f 3 171 155
f 3 155 154
f 3 154 153
f 3 153 141
f 3 141 140
f 3 140 152
f 3 152 137
f 3 137 123
f 3 123 122
f 3 122 109
f 3 109 108
f 3 108 94
f 3 94 79
f 3 79 76
f 3 76 64
f 3 64 54
f 3 54 36
f 3 36 18
f 3 18 8
f 3 8 4
f 4 8 5
f 5 8 9
f 5 9 10
f 5 10 11
f 5 11 12
f 5 12 6
f 6 12 13
f 7 14 15
f 7 15 16
f 8 17 9
f 8 18 19
f 8 19 17
f 9 17 20
f 9 20 21
f 9 21 10
f 10 21 11
f 11 21 37
f 11 37 55
f 11 55 46
f 11 46 29
f 11 29 44
f 11 44 45
f 11 45 35
f 11 35 34
f 11 34 53
f 11 53 63
f 11 63 75
f 11 75 88
f 11 88 87
f 11 87 105
f 11 105 103
f 11 103 102
f 11 102 101
f 11 101 100
f 11 100 115
f 11 115 129
f 11 129 144
f 11 144 161
f 11 161 182
f 11 182 197
f 11 197 211
f 11 211 222
f 11 222 221
f 11 221 224
f 11 224 223
f 11 223 225
f 11 225 217
f 11 217 220
f 11 220 219
f 11 219 213
f 11 213 199
f 11 199 183
f 11 183 163
f 11 163 162
f 11 162 145
f 11 145 130
f 11 130 116
f 11 116 106
f 11 106 92
f 11 92 91
f 11 91 90
f 11 90 89
f 11 89 77
f 11 77 65
f 11 65 56
f 11 56 38
f 11 38 25
f 11 25 15
f 11 15 24
f 11 24 23
f 11 23 22
f 11 22 13
f 11 13 12
f 14 22 23
f 14 23 24
f 14 24 15
f 15 25 42
f 15 42 26
f 15 26 27
f 15 27 16
f 17 28 29
f 17 29 30
f 17 30 20
f 17 19 31
f 17 31 32
f 17 32 33
f 17 33 34
f 17 34 35
f 17 35 28
f 18 36 31
f 18 31 19
f 20 30 21
f 21 30 37
f 25 38 39
f 25 39 40
f 25 40 41
f 25 41 42
f 28 43 44
f 28 44 29
f 28 35 45
f 28 45 43
f 29 46 47
f 29 47 30
f 30 47 37
f 31 36 48
f 31 48 49
f 31 49 50
f 31 50 51
f 31 51 32
f 32 51 33
f 33 51 34
f 34 52 53
f 34 51 52
f 36 54 48
f 37 47 55
f 38 56 57
f 38 57 58
f 38 58 59
f 38 59 39
f 43 45 44
f 46 55 47
f 48 54 49
f 49 51 50
f 49 54 60
f 49 60 61
f 49 61 62
f 49 62 52
f 49 52 51
f 52 62 63
f 52 63 53
f 54 64 60
f 56 65 66
f 56 66 67
f 56 67 68
f 56 68 57
f 60 64 69
f 60 69 70
f 60 70 71
f 60 71 72
f 60 72 62
f 60 62 61
f 62 73 74
f 62 74 63
f 62 72 73
f 63 74 75
f 64 76 69
f 65 77 78
f 65 78 66
f 69 76 79
f 69 79 80
f 69 80 81
f 69 81 70
f 70 81 82
f 70 82 71
f 71 83 84
f 71 84 85
f 71 85 72
f 71 82 83
f 72 85 73
f 73 85 86
f 73 86 74
f 74 86 87
f 74 87 88
f 74 88 75
f 77 89 78
f 78 89 90
f 78 90 91
f 78 91 92
f 78 92 93
f 79 94 80
f 80 94 95
f 80 95 96
f 80 96 97
f 80 97 98
f 80 98 99
f 80 99 82
f 80 82 81
f 82 99 100
f 82 100 101
f 82 101 102
f 82 102 103
f 82 103 104
f 82 104 83
f 83 104 103
f 83 103 84
f 84 105 87
f 84 87 86
f 84 86 85
f 84 103 105
f 92 106 93
f 93 106 107
f 94 108 95
f 95 108 109
f 95 109 96
f 96 109 110
f 96 110 111
f 96 111 97
f 97 112 113
f 97 113 99
f 97 99 98
f 97 111 112
f 99 113 100
f 100 114 115
f 100 113 114
f 106 116 117
f 106 117 118
f 106 118 119
f 106 119 120
f 106 120 121
f 106 121 107
f 109 122 110
f 110 122 123
f 110 123 124
f 110 124 112
f 110 112 111
f 112 124 113
f 113 124 114
f 114 125 115
f 114 124 126
f 114 126 125
f 115 125 127
f 115 127 128
f 115 128 129
f 116 130 131
f 116 131 132
f 116 132 133
f 116 133 134
f 116 134 117
f 117 134 135
f 117 135 136
f 123 137 138
f 123 138 124
f 124 138 126
f 125 128 127
f 125 126 128
f 126 138 137
f 126 137 139
f 126 139 140
f 126 140 141
f 126 141 142
f 126 142 128
f 128 142 143
f 128 143 144
f 128 144 129
f 130 145 131
f 131 145 146
f 131 146 132
f 132 146 147
f 132 147 148
f 132 148 135
f 132 135 134
f 132 134 133
f 135 148 149
f 135 149 150
f 135 150 151
f 135 151 136
f 137 152 139
f 139 152 140
f 141 153 142
f 142 153 154
f 142 154 155
f 142 155 156
f 142 156 157
f 142 157 143
f 143 157 144
f 144 158 159
f 144 159 160
f 144 160 161
f 144 157 158
f 145 162 146
f 146 162 163
f 146 163 164
f 146 164 147
f 147 164 165
f 147 165 166
f 147 166 167
f 147 167 148
f 148 168 149
f 148 167 168
f 149 168 169
f 149 169 170
f 155 171 172
f 155 172 173
f 155 173 156
f 156 173 157
f 157 173 174
f 157 174 175
f 157 175 158
f 158 175 176
f 158 176 159
f 159 173 177
f 159 177 160
f 159 176 174
f 159 174 173
f 160 177 178
f 160 178 179
f 160 179 180
f 160 180 181
f 160 181 161
f 161 181 182
f 163 183 184
f 163 184 164
f 164 184 185
f 164 185 167
f 164 167 165
f 165 167 166
f 167 185 186
f 167 186 187
f 167 187 188
f 167 188 168
f 168 188 169
f 169 188 187
f 169 187 189
f 169 189 190
f 169 190 191
f 169 191 192
f 169 192 170
f 171 193 194
f 171 194 172
f 172 194 173
f 173 194 177
f 174 176 175
f 177 194 179
f 177 179 178
f 179 195 180
f 179 194 196
f 179 196 195
f 180 182 181
f 180 195 182
f 182 195 198
f 182 198 197
f 183 199 200
f 183 200 184
f 184 200 201
f 184 201 186
f 184 186 185
f 186 201 187
f 187 202 203
f 187 203 189
f 187 201 202
f 189 203 204
f 193 205 194
f 194 205 206
f 194 206 196
f 195 207 198
f 195 196 207
f 196 206 204
f 196 204 203
f 196 203 202
f 196 202 208
f 196 208 209
f 196 209 207
f 197 210 211
f 197 198 210
f 198 212 210
f 198 207 212
f 199 213 200
f 200 213 214
f 200 214 215
f 200 215 208
f 200 208 202
f 200 202 201
f 207 216 212
f 207 209 216
f 208 215 214
f 208 214 209
f 209 217 218
f 209 218 216
f 209 214 219
f 209 219 220
f 209 220 217
f 210 221 222
f 210 222 211
f 210 212 216
f 210 216 221
f 213 219 214
f 216 218 223
f 216 223 224
f 216 224 221
f 217 225 218
f 218 225 223

