# https://github.com/mikedh/trimesh
v -0.00875057 -0.00538575 0.03250399
v -0.00955733 -0.00522251 0.03250399
v -0.00875057 -0.00293798 0.03250399
v -0.00875057 -0.00521198 0.03305869
v -0.00955733 -0.00448265 0.03504961
v -0.00955733 -0.00470908 0.03430235
v -0.00955733 -0.00485389 0.03380506
v -0.00955733 -0.00507067 0.03305869
v -0.01105292 -0.00478280 0.03256317
v -0.01106782 -0.00478719 0.03250399
v -0.01320429 0.00206024 0.03250399
v -0.00875057 0.00221734 0.03752103
v -0.00875057 -0.00491533 0.03396582
v -0.00955733 -0.00416055 0.03604507
v -0.01055266 -0.00419917 0.03504961
v -0.01014766 -0.00382792 0.03663687
v -0.01045351 -0.00455110 0.03395522
v -0.01145014 -0.00455198 0.03296065
v -0.01254268 -0.00418776 0.03305869
v -0.01254268 -0.00430361 0.03250399
v -0.01336369 0.00216293 0.03250399
v -0.00875057 0.00312571 0.03865605
v -0.00875057 0.00262194 0.03797857
v -0.00875057 -0.00475209 0.03446399
v -0.00875057 -0.00419127 0.03604507
v -0.00955733 -0.00388936 0.03678703
v -0.00875057 -0.00455023 0.03504961
v -0.01154799 -0.00419390 0.03405415
v -0.01050860 -0.00391569 0.03599296
v -0.01081186 -0.00366556 0.03629062
v -0.01112614 -0.00382178 0.03562728
v -0.00955733 -0.00365151 0.03728343
v -0.01055266 -0.00298011 0.03776659
v -0.01115206 -0.00284232 0.03761201
v -0.01181562 -0.00267381 0.03729315
v -0.01150976 -0.00297397 0.03699371
v -0.01320753 -0.00390515 0.03305869
v -0.01247787 -0.00389813 0.03397907
v -0.01307015 -0.00380510 0.03359749
v -0.01327103 -0.00396396 0.03250399
v -0.01363650 0.00230598 0.03250399
v -0.00875057 0.00331967 0.03914363
v -0.00875057 -0.00389638 0.03680646
v -0.00875057 -0.00372260 0.03720835
v -0.00875057 -0.00367784 0.03730286
v -0.01276624 -0.00364712 0.03426084
v -0.01210203 -0.00381388 0.03461238
v -0.00875057 -0.00334258 0.03789201
v -0.00875057 -0.00291955 0.03853769
v -0.00949771 -0.00309508 0.03807397
v -0.01209555 -0.00181810 0.03855801
v -0.01247334 -0.00196554 0.03799270
v -0.01309283 -0.00184180 0.03763321
v -0.01275911 -0.00165398 0.03829655
v -0.01249343 -0.00247370 0.03699371
v -0.01249343 -0.00295729 0.03598677
v -0.01374472 -0.00323726 0.03304456
v -0.01351209 -0.00366380 0.03250399
v -0.01321854 -0.00295992 0.03504961
v -0.01334749 -0.00330484 0.03397907
v -0.01279216 -0.00266416 0.03627914
v -0.01308311 -0.00282389 0.03561579
v -0.01424887 0.00229545 0.03250399
v -0.01204631 0.00318100 0.03753693
v -0.01204501 0.00318100 0.03753693
v -0.00875057 0.00358033 0.04004104
v -0.00875057 -0.00285461 0.03862249
v -0.00912641 -0.00281336 0.03855801
v -0.00978996 -0.00270277 0.03843170
v -0.01154799 -0.00191201 0.03866665
v -0.00991697 -0.00174350 0.03947486
v -0.01055266 -0.00160395 0.03935384
v -0.01157910 -0.00127483 0.03921164
v -0.01247334 -0.00131257 0.03881151
v -0.01317577 -0.00099047 0.03868255
v -0.01329630 -0.00131257 0.03799270
v -0.01321854 -0.00198398 0.03703965
v -0.01406872 -0.00287216 0.03270361
v -0.01378619 -0.00330221 0.03250399
v -0.01389959 -0.00247546 0.03405415
v -0.01399161 -0.00267908 0.03336696
v -0.01452621 0.00214098 0.03250399
v -0.01416074 0.00227263 0.03405415
v -0.01206704 0.00319592 0.03855271
v -0.01206251 0.00319241 0.03803510
v -0.01055266 0.00338813 0.03902968
v -0.00875057 0.00355225 0.04104357
v -0.00875057 -0.00258692 0.03895372
v -0.00875057 -0.00203576 0.03959233
v -0.00925342 -0.00186023 0.03960205
v -0.00875057 -0.00140297 0.04016558
v -0.00875057 -0.00131345 0.04023801
v -0.01055266 -0.00110632 0.03973807
v -0.01126805 -0.00092816 0.03960735
v -0.01193161 -0.00061045 0.03948545
v -0.01208778 0.00005305 0.03956053
v -0.01318484 -0.00030327 0.03869757
v -0.01351986 -0.00030327 0.03803510
v -0.01402077 -0.00064468 0.03647876
v -0.01363521 -0.00129765 0.03703965
v -0.01460980 -0.00129765 0.03305869
v -0.01511589 -0.00001892 0.03305869
v -0.01514505 -0.00008825 0.03250399
v -0.01406678 -0.00286777 0.03250399
v -0.01389765 -0.00129326 0.03610602
v -0.01396763 -0.00162238 0.03525453
v -0.01474653 0.00196809 0.03250399
v -0.01409853 0.00223928 0.03504961
v -0.01324057 0.00249380 0.03703965
v -0.01310320 0.00234460 0.03765441
v -0.01289065 0.00168724 0.03832659
v -0.01219146 0.00268249 0.03866577
v -0.01107171 0.00319943 0.03954728
v -0.01404669 0.00219803 0.03557251
v -0.00937783 0.00337759 0.04080420
v -0.00875057 0.00290893 0.04151259
v -0.00875057 -0.00194360 0.03969744
v -0.00875057 -0.00115986 0.04034666
v -0.00903245 -0.00076755 0.04051360
v -0.01055266 -0.00030327 0.04009404
v -0.01019820 0.00097371 0.04058602
v -0.01208778 0.00031635 0.03956053
v -0.00875057 0.00268249 0.04152672
v -0.00891710 0.00268249 0.04144281
v -0.01309801 0.00041026 0.03860217
v -0.01328075 0.00072182 0.03809870
v -0.01381017 0.00063932 0.03696457
v -0.01405252 0.00027247 0.03658210
v -0.01405252 0.00001882 0.03658210
v -0.01389635 -0.00030942 0.03696457
v -0.01409853 -0.00095888 0.03581541
v -0.01504850 0.00015047 0.03362929
v -0.01527401 0.00069198 0.03305869
v -0.01536991 0.00069198 0.03250399
v -0.01497528 0.00174780 0.03250399
v -0.01525651 0.00147046 0.03250399
v -0.01354967 0.00168724 0.03703965
v -0.01318938 0.00168724 0.03782930
v -0.01299952 0.00107376 0.03847233
v -0.01239299 0.00168724 0.03884861
v -0.01117150 0.00268249 0.03963826
v -0.01004138 0.00315204 0.04050830
v -0.01518976 0.00138006 0.03305869
v -0.01506729 0.00125807 0.03364165
v -0.01410825 0.00168724 0.03571737
v -0.01389830 0.00168724 0.03621554
v -0.00964870 0.00276499 0.04091637
v -0.01016256 0.00248853 0.04061606
v -0.00875057 -0.00048758 0.04069820
v -0.00875057 -0.00038314 0.04072912
v -0.00929813 -0.00010405 0.04061076
v -0.00875057 0.00147660 0.04127322
v -0.00875057 0.00164950 0.04131473
v -0.01197178 0.00097985 0.03946072
v -0.01254397 0.00069462 0.03903145
v -0.01398059 0.00093597 0.03641251
v -0.01419119 0.00063932 0.03606627
v -0.01459036 0.00069198 0.03504961
v -0.01490659 0.00069198 0.03417251
v -0.01507118 0.00069198 0.03367434
v -0.01533297 0.00099740 0.03250399
v -0.01184672 0.00168724 0.03934678
v -0.01051767 0.00276499 0.04020445
f 1 2 10
f 1 10 20
f 1 20 40
f 1 40 58
f 1 58 79
f 1 79 104
f 1 104 103
f 1 103 134
f 1 134 161
f 1 161 136
f 1 136 135
f 1 135 107
f 1 107 82
f 1 82 63
f 1 63 41
f 1 41 21
f 1 21 11
f 1 11 3
f 1 3 12
f 1 12 23
f 1 23 22
f 1 22 42
f 1 42 66
f 1 66 87
f 1 87 116
f 1 116 123
f 1 123 153
f 1 153 152
f 1 152 150
f 1 150 149
f 1 149 118
f 1 118 92
f 1 92 91
f 1 91 117
f 1 117 89
f 1 89 88
f 1 88 67
f 1 67 49
f 1 49 48
f 1 48 45
f 1 45 44
f 1 44 43
f 1 43 25
f 1 25 27
f 1 27 24
f 1 24 13
f 1 13 4
f 1 4 5
f 1 5 6
f 1 6 7
f 1 7 8
f 1 8 2
f 2 8 9
f 2 9 10
f 3 11 12
f 4 13 14
f 4 14 5
f 5 15 6
f 5 14 16
f 5 16 15
f 6 15 17
f 6 17 7
f 7 17 9
f 7 9 8
f 9 17 18
f 9 18 19
f 9 19 20
f 9 20 10
f 11 21 22
f 11 22 23
f 11 23 12
f 13 24 14
f 14 25 26
f 14 26 16
f 14 24 27
f 14 27 25
f 15 28 18
f 15 18 17
f 15 16 29
f 15 29 28
f 16 30 31
f 16 31 19
f 16 19 29
f 16 26 32
f 16 32 33
f 16 33 34
f 16 34 35
f 16 35 36
f 16 36 30
f 18 28 19
f 19 37 20
f 19 28 29
f 19 31 38
f 19 38 39
f 19 39 37
f 20 37 40
f 21 41 22
f 22 41 42
f 25 43 26
f 26 43 44
f 26 44 45
f 26 45 32
f 30 36 46
f 30 46 47
f 30 47 31
f 31 47 38
f 32 45 48
f 32 48 49
f 32 49 50
f 32 50 33
f 33 50 51
f 33 51 34
f 34 52 53
f 34 53 35
f 34 51 54
f 34 54 52
f 35 53 55
f 35 55 36
f 36 55 56
f 36 56 46
f 37 57 58
f 37 58 40
f 37 39 59
f 37 59 60
f 37 60 57
f 38 47 39
f 39 47 46
f 39 46 61
f 39 61 62
f 39 62 59
f 41 63 64
f 41 64 65
f 41 65 66
f 41 66 42
f 46 56 55
f 46 55 61
f 49 67 50
f 50 67 68
f 50 68 69
f 50 69 51
f 51 69 70
f 51 70 71
f 51 71 72
f 51 72 73
f 51 73 74
f 51 74 75
f 51 75 54
f 52 54 53
f 53 54 75
f 53 75 76
f 53 76 77
f 53 77 59
f 53 59 62
f 53 62 61
f 53 61 55
f 57 78 79
f 57 79 58
f 57 60 59
f 57 59 77
f 57 77 80
f 57 80 81
f 57 81 78
f 63 82 83
f 63 83 84
f 63 84 85
f 63 85 64
f 64 85 86
f 64 86 66
f 64 66 65
f 66 86 87
f 67 88 68
f 68 88 89
f 68 89 90
f 68 90 69
f 69 90 70
f 70 90 71
f 71 90 91
f 71 91 92
f 71 92 72
f 72 92 93
f 72 93 94
f 72 94 73
f 73 94 74
f 74 94 75
f 75 94 95
f 75 95 96
f 75 96 97
f 75 97 98
f 75 98 99
f 75 99 100
f 75 100 76
f 76 100 77
f 77 100 80
f 78 101 102
f 78 102 103
f 78 103 104
f 78 104 79
f 78 81 101
f 80 100 105
f 80 105 81
f 81 105 106
f 81 106 102
f 81 102 101
f 82 107 108
f 82 108 83
f 83 108 84
f 84 109 110
f 84 110 111
f 84 111 112
f 84 112 113
f 84 113 87
f 84 87 86
f 84 86 85
f 84 108 114
f 84 114 109
f 87 115 116
f 87 113 115
f 89 117 90
f 90 117 91
f 92 118 93
f 93 118 94
f 94 118 119
f 94 119 95
f 95 119 120
f 95 120 121
f 95 121 96
f 96 122 97
f 96 121 123
f 96 123 124
f 96 124 122
f 97 122 125
f 97 125 98
f 98 126 127
f 98 127 128
f 98 128 129
f 98 129 130
f 98 130 99
f 98 125 126
f 99 131 100
f 99 130 132
f 99 132 131
f 100 131 105
f 102 106 131
f 102 131 132
f 102 132 133
f 102 133 134
f 102 134 103
f 105 131 106
f 107 135 108
f 108 135 136
f 108 136 114
f 109 114 110
f 110 137 138
f 110 138 139
f 110 139 111
f 110 114 137
f 111 139 112
f 112 139 140
f 112 140 113
f 113 140 141
f 113 141 142
f 113 142 115
f 114 136 143
f 114 143 144
f 114 144 145
f 114 145 146
f 114 146 137
f 115 142 116
f 116 142 147
f 116 147 148
f 116 148 124
f 116 124 123
f 118 149 119
f 119 149 150
f 119 150 151
f 119 151 120
f 120 151 152
f 120 152 121
f 121 152 153
f 121 153 123
f 122 154 155
f 122 155 125
f 122 124 148
f 122 148 154
f 125 139 138
f 125 138 126
f 125 155 140
f 125 140 139
f 126 138 137
f 126 137 127
f 127 156 128
f 127 137 156
f 128 156 157
f 128 157 144
f 128 144 158
f 128 158 159
f 128 159 129
f 129 159 132
f 129 132 130
f 132 159 160
f 132 160 133
f 133 160 144
f 133 144 143
f 133 143 161
f 133 161 134
f 136 161 143
f 137 146 156
f 140 155 162
f 140 162 141
f 141 148 163
f 141 163 142
f 141 162 148
f 142 163 148
f 142 148 147
f 144 160 159
f 144 159 158
f 144 157 145
f 145 157 156
f 145 156 146
f 148 162 154
f 150 152 151
f 154 162 155

