# https://github.com/mikedh/trimesh
v 0.02329155 0.01891498 -0.02297947
v 0.02326039 0.01891498 -0.02297743
v 0.02276818 0.02110274 -0.02119328
v 0.02280245 0.02110274 -0.02119328
v 0.02413891 0.01891498 -0.02282619
v 0.02229777 0.01891498 -0.02287320
v 0.02229777 0.01944724 -0.02245424
v 0.02229777 0.01994501 -0.02205981
v 0.02158749 0.02213276 -0.02022457
v 0.02209216 0.02213276 -0.02022457
v 0.02275572 0.02208895 -0.02018983
v 0.02319809 0.02140195 -0.02070280
v 0.02428532 0.01891498 -0.02278736
v 0.02027906 0.01891498 -0.02258095
v 0.02030710 0.02039057 -0.02141809
v 0.01807968 0.01905947 -0.02214769
v 0.02092393 0.02207217 -0.02017144
v 0.02127284 0.02244596 -0.01978314
v 0.02229777 0.02304347 -0.01911485
v 0.01831644 0.02020787 -0.02127299
v 0.01632577 0.01952554 -0.02152232
v 0.01693948 0.02008110 -0.02117080
v 0.02237254 0.02247858 -0.01979336
v 0.02329155 0.02292695 -0.01897997
v 0.02329155 0.02242918 -0.01956855
v 0.02329155 0.02197243 -0.02006721
v 0.02428532 0.01930089 -0.02238680
v 0.02480869 0.01891498 -0.02253803
v 0.01897065 0.01891498 -0.02239089
v 0.01651580 0.01891498 -0.02203324
v 0.01629150 0.01891498 -0.02200054
v 0.01729151 0.01969146 -0.02153254
v 0.02030710 0.02200133 -0.02007947
v 0.01632577 0.02002331 -0.02110132
v 0.02030710 0.02236486 -0.01958081
v 0.02130088 0.02300245 -0.01902084
v 0.02329155 0.02324388 -0.01848335
v 0.02229777 0.02327557 -0.01861619
v 0.02329155 0.02398680 -0.01697715
v 0.02428532 0.02418814 -0.01643148
v 0.02501741 0.02414993 -0.01632521
v 0.01532888 0.01891498 -0.02185749
v 0.01532888 0.01940902 -0.02144875
v 0.02402364 0.02316278 -0.01831372
v 0.02468408 0.02305558 -0.01815636
v 0.02527910 0.02294373 -0.01801330
v 0.03125110 0.02299406 -0.01509491
v 0.03025732 0.02227351 -0.01640083
v 0.02627599 0.02223716 -0.01835460
v 0.02428532 0.02221852 -0.01932944
v 0.02918255 0.02155949 -0.01766792
v 0.02826666 0.02128357 -0.01839752
v 0.02754703 0.02000094 -0.02008765
v 0.02428532 0.02027406 -0.02136904
v 0.02521368 0.01957495 -0.02165516
v 0.02489903 0.01916014 -0.02223966
v 0.02504857 0.01891498 -0.02242359
v 0.01831644 0.02123137 -0.02033902
v 0.01770584 0.02113443 -0.02024093
v 0.01931021 0.02187455 -0.01987102
v 0.01433510 0.01927106 -0.02135678
v 0.01364039 0.01917039 -0.02126277
v 0.02030710 0.02286263 -0.01881238
v 0.01931021 0.02220547 -0.01937440
v 0.02130088 0.02322337 -0.01852422
v 0.01978997 0.02309473 -0.01821358
v 0.02229777 0.02366335 -0.01770470
v 0.02329155 0.02419280 -0.01647849
v 0.02726977 0.02621463 -0.01157976
v 0.02726977 0.02600770 -0.01207842
v 0.02590216 0.02509512 -0.01425904
v 0.02826666 0.02620438 -0.01150619
v 0.02826666 0.02593965 -0.01200280
v 0.02903302 0.02615311 -0.01136517
v 0.01433510 0.01891498 -0.02167560
v 0.02969657 0.02605430 -0.01120781
v 0.03072150 0.02506902 -0.01221739
v 0.03074954 0.02308728 -0.01521549
v 0.02670590 0.02306677 -0.01717539
v 0.03276202 0.02309753 -0.01423247
v 0.03121060 0.02244223 -0.01574685
v 0.03085234 0.02213835 -0.01625777
v 0.02953146 0.02099367 -0.01809300
v 0.02691462 0.01917226 -0.02125868
v 0.02627599 0.01931954 -0.02141196
v 0.02627599 0.01981730 -0.02089082
v 0.02556259 0.01900820 -0.02208025
v 0.02627599 0.01891498 -0.02183500
v 0.01704228 0.02102723 -0.02008356
v 0.01297684 0.01906413 -0.02112176
v 0.01348463 0.01891498 -0.02146714
v 0.01939744 0.02272001 -0.01860802
v 0.01333821 0.01993662 -0.01993233
v 0.01731955 0.02220267 -0.01837504
v 0.01780241 0.02309380 -0.01721626
v 0.02130088 0.02355615 -0.01770470
v 0.02148780 0.02413501 -0.01633952
v 0.02030710 0.02339209 -0.01770470
v 0.01343478 0.02327650 -0.01471887
v 0.01224475 0.02345455 -0.01382373
v 0.01234443 0.02396350 -0.01294086
v 0.01307030 0.02404459 -0.01313297
v 0.02197690 0.02506436 -0.01418547
v 0.02255945 0.02709831 -0.00931739
v 0.02264045 0.02509139 -0.01425291
v 0.02329155 0.02489471 -0.01476792
v 0.02428532 0.02489658 -0.01477201
v 0.02826666 0.02691840 -0.00987124
v 0.02926043 0.02712161 -0.00936849
v 0.02926043 0.02689417 -0.00986715
v 0.02984922 0.02710297 -0.00932353
v 0.03025732 0.02628081 -0.01056200
v 0.03025732 0.02596668 -0.01105862
v 0.03174643 0.02408281 -0.01322493
v 0.03224799 0.02317956 -0.01435714
v 0.04018262 0.02041388 -0.01162881
v 0.04018262 0.01999162 -0.01211112
v 0.03389909 0.02220733 -0.01432035
v 0.03274955 0.02209640 -0.01521958
v 0.03224799 0.02225114 -0.01538307
v 0.03151590 0.02196031 -0.01609836
v 0.03086169 0.02615125 -0.01036581
v 0.03083988 0.02115773 -0.01726940
v 0.03025732 0.02130128 -0.01742063
v 0.02889283 0.02016499 -0.01926404
v 0.02757818 0.01901379 -0.02109723
v 0.02749718 0.01891498 -0.02123416
v 0.01308276 0.01891498 -0.02131386
v 0.01234443 0.01891498 -0.02102366
v 0.01234443 0.01896252 -0.02096235
v 0.01133197 0.01891498 -0.02052704
v 0.01134754 0.01993382 -0.01893296
v 0.01333821 0.02188108 -0.01687292
v 0.01343478 0.02271069 -0.01561605
v 0.01383354 0.02309007 -0.01521958
v 0.01251266 0.02319448 -0.01438779
v 0.01931021 0.02363072 -0.01670943
v 0.02080866 0.02607388 -0.01123642
v 0.02147222 0.02612794 -0.01137130
v 0.02189590 0.02705823 -0.00921725
v 0.02229777 0.02770048 -0.00775397
v 0.01373385 0.02410052 -0.01326785
v 0.01184910 0.02308821 -0.01422021
v 0.01134754 0.02328210 -0.01353762
v 0.01182107 0.02409959 -0.01227666
v 0.01234443 0.02416763 -0.01244424
v 0.01337559 0.02424128 -0.01277123
v 0.02329155 0.02776945 -0.00775397
v 0.02329155 0.02736211 -0.00874925
v 0.02329155 0.02711416 -0.00935418
v 0.02527910 0.02621184 -0.01157159
v 0.02726977 0.02712068 -0.00937053
v 0.02826666 0.02712161 -0.00937462
v 0.02428532 0.02776759 -0.00775397
v 0.02329155 0.02801927 -0.00703868
v 0.03000810 0.02712348 -0.00874925
v 0.03050655 0.02697060 -0.00874925
v 0.03021060 0.02676740 -0.00969139
v 0.02329155 0.02813579 -0.00654002
v 0.02329155 0.02823833 -0.00576342
v 0.02428532 0.02831849 -0.00377286
v 0.02527910 0.02836230 -0.00210112
v 0.04018262 0.02085758 -0.01073980
v 0.04018262 0.01997670 -0.01212543
v 0.03105172 0.02629386 -0.00974453
v 0.02884610 0.01917319 -0.02025523
v 0.02764983 0.01891498 -0.02114424
v 0.01196437 0.01891498 -0.02084382
v 0.01034754 0.01891498 -0.02003042
v 0.01035377 0.01927666 -0.01946432
v 0.01139116 0.02134230 -0.01673804
v 0.01224475 0.02289899 -0.01471887
v 0.01532888 0.02492827 -0.01185770
v 0.01931021 0.02615125 -0.01043325
v 0.02130088 0.02701162 -0.00910076
v 0.02130088 0.02721110 -0.00860210
v 0.02030710 0.02713000 -0.00839978
v 0.02130088 0.02753549 -0.00775397
v 0.02229777 0.02798385 -0.00693854
v 0.01134754 0.02187828 -0.01587151
v 0.01134754 0.02219335 -0.01537490
v 0.01082729 0.02210666 -0.01523797
v 0.01077121 0.02313575 -0.01331077
v 0.00953756 0.02227817 -0.01354784
v 0.00835687 0.02144763 -0.01374812
v 0.01179303 0.02413128 -0.01173508
v 0.01283353 0.02508394 -0.00828329
v 0.01333821 0.02517436 -0.00866954
v 0.01333821 0.02482387 -0.01073980
v 0.01679618 0.02608227 -0.00927652
v 0.01976193 0.02708246 -0.00828329
v 0.01480551 0.02508487 -0.01125073
v 0.01532888 0.02512775 -0.01135904
v 0.02527910 0.02736863 -0.00874925
v 0.02229777 0.02812181 -0.00644192
v 0.03061558 0.02704611 -0.00775397
v 0.02627599 0.02817028 -0.00210112
v 0.03423866 0.02642623 -0.00277758
v 0.03426981 0.02627709 -0.00374833
v 0.03480253 0.02612142 -0.00340091
v 0.02229777 0.02820290 -0.00576342
v 0.02329155 0.02830451 -0.00476814
v 0.02428532 0.02839865 -0.00277758
v 0.02428532 0.02843780 -0.00210112
v 0.04018262 0.02105799 -0.01004290
v 0.04018262 0.01947800 -0.01248103
v 0.02899563 0.01891498 -0.02033085
v 0.02831027 0.01891498 -0.02074572
v 0.00951264 0.01891498 -0.01952155
v 0.00973694 0.01916667 -0.01929265
v 0.01036934 0.01980053 -0.01864276
v 0.01004847 0.02003729 -0.01808483
v 0.00938491 0.01934284 -0.01867546
v 0.00966217 0.02021999 -0.01742063
v 0.00874939 0.01917412 -0.01832599
v 0.00852198 0.01891498 -0.01854875
v 0.00835687 0.01891498 -0.01836482
v 0.00835687 0.02142526 -0.01288772
v 0.01446594 0.02637403 -0.00210112
v 0.01283353 0.02508394 -0.00799104
v 0.01443791 0.02626217 -0.00377286
v 0.01532888 0.02674968 -0.00277758
v 0.01532888 0.02659681 -0.00377286
v 0.01469336 0.02611489 -0.00550182
v 0.01574321 0.02609905 -0.00739837
v 0.02030710 0.02754388 -0.00675869
v 0.02179933 0.02806495 -0.00626208
v 0.01532888 0.02557611 -0.00974453
v 0.03253148 0.02691281 -0.00210112
v 0.03324177 0.02675621 -0.00210112
v 0.03356264 0.02667325 -0.00210112
v 0.03423866 0.02643835 -0.00210112
v 0.03487106 0.02616896 -0.00277758
v 0.04018262 0.02319261 -0.00210112
v 0.04018262 0.02304347 -0.00272036
v 0.04018262 0.02221292 -0.00579203
v 0.04018262 0.02141314 -0.00874925
v 0.02169964 0.02808825 -0.00576342
v 0.02154076 0.02812181 -0.00476814
v 0.02229777 0.02824019 -0.00476814
v 0.02329155 0.02835018 -0.00377286
v 0.02329155 0.02836510 -0.00277758
v 0.02329155 0.02836789 -0.00210112
v 0.04018262 0.01891498 -0.01284889
v 0.00938491 0.01891498 -0.01940710
v 0.00907338 0.01899422 -0.01899019
v 0.00883662 0.01891498 -0.01887983
v 0.00835687 0.01891498 -0.01482923
v 0.00835687 0.02072149 -0.01236658
v 0.01416688 0.02557704 -0.00210112
v 0.01436626 0.02612794 -0.00210112
v 0.01532888 0.02681587 -0.00210112
v 0.01615443 0.02698086 -0.00277758
v 0.01676814 0.02708619 -0.00337025
v 0.01717313 0.02696688 -0.00476814
v 0.03444115 0.02635539 -0.00210112
v 0.03484926 0.02615311 -0.00210112
v 0.04018262 0.01891498 -0.00210112
v 0.01931021 0.02767251 -0.00377286
v 0.02104543 0.02801088 -0.00476814
v 0.01665287 0.02711136 -0.00277758
v 0.02083047 0.02806122 -0.00319041
v 0.02074636 0.02807800 -0.00252825
v 0.02071521 0.02808172 -0.00210112
v 0.02229777 0.02825417 -0.00377286
v 0.02162175 0.02819078 -0.00210112
v 0.02229777 0.02826256 -0.00210112
v 0.00918554 0.01891498 -0.01922521
v 0.00835998 0.01891498 -0.01136313
v 0.00835687 0.01894295 -0.01139992
v 0.01408276 0.02259137 -0.00210112
v 0.01559679 0.02689044 -0.00210112
v 0.01604851 0.02701441 -0.00210112
v 0.01723543 0.01891498 -0.00210112
v 0.01931021 0.02773683 -0.00277758
v 0.02030710 0.02790462 -0.00377286
v 0.01731955 0.02727169 -0.00277758
v 0.01676191 0.02718593 -0.00210112
v 0.01764042 0.02739100 -0.00210112
v 0.01654695 0.02713466 -0.00210112
v 0.01963732 0.02785521 -0.00210112
v 0.02025103 0.02798665 -0.00210112
v 0.01400488 0.01891498 -0.00210521
v 0.01419180 0.01936521 -0.00210112
v 0.01831644 0.02754854 -0.00210112
v 0.01931021 0.02777971 -0.00210112
f 1 2 3
f 1 3 4
f 1 4 5
f 1 5 13
f 1 13 28
f 1 28 57
f 1 57 88
f 1 88 127
f 1 127 167
f 1 167 208
f 1 208 207
f 1 207 244
f 1 244 258
f 1 258 274
f 1 274 283
f 1 283 269
f 1 269 248
f 1 248 217
f 1 217 216
f 1 216 247
f 1 247 268
f 1 268 245
f 1 245 209
f 1 209 169
f 1 169 131
f 1 131 168
f 1 168 129
f 1 129 128
f 1 128 91
f 1 91 75
f 1 75 42
f 1 42 31
f 1 31 30
f 1 30 29
f 1 29 14
f 1 14 6
f 1 6 2
f 2 6 7
f 2 7 3
f 3 7 8
f 3 8 9
f 3 9 10
f 3 10 4
f 4 10 11
f 4 11 12
f 4 12 13
f 4 13 5
f 6 14 7
f 7 15 9
f 7 9 8
f 7 14 16
f 7 16 15
f 9 17 18
f 9 18 19
f 9 19 10
f 9 15 20
f 9 20 21
f 9 21 22
f 9 22 17
f 10 19 23
f 10 23 11
f 11 23 19
f 11 19 24
f 11 24 25
f 11 25 26
f 11 26 12
f 12 26 27
f 12 27 13
f 13 27 28
f 14 29 16
f 15 16 20
f 16 29 30
f 16 30 31
f 16 31 32
f 16 32 20
f 17 33 18
f 17 22 34
f 17 34 33
f 18 33 35
f 18 35 36
f 18 36 19
f 19 37 24
f 19 36 38
f 19 38 39
f 19 39 40
f 19 40 41
f 19 41 37
f 20 32 21
f 21 32 31
f 21 31 42
f 21 42 22
f 22 42 43
f 22 43 34
f 24 37 44
f 24 44 45
f 24 45 46
f 24 46 25
f 25 46 47
f 25 47 48
f 25 48 49
f 25 49 50
f 25 50 26
f 26 50 49
f 26 49 51
f 26 51 52
f 26 52 53
f 26 53 54
f 26 54 27
f 27 54 55
f 27 55 56
f 27 56 57
f 27 57 28
f 33 58 59
f 33 59 60
f 33 60 35
f 33 34 61
f 33 61 62
f 33 62 58
f 34 43 61
f 35 63 36
f 35 60 64
f 35 64 63
f 36 65 38
f 36 63 66
f 36 66 65
f 37 41 44
f 38 67 39
f 38 65 67
f 39 67 68
f 39 68 69
f 39 69 70
f 39 70 71
f 39 71 40
f 40 71 41
f 41 71 72
f 41 72 73
f 41 73 74
f 41 74 44
f 42 75 43
f 43 75 61
f 44 74 76
f 44 76 77
f 44 77 78
f 44 78 79
f 44 79 45
f 45 79 47
f 45 47 46
f 47 79 78
f 47 78 80
f 47 80 81
f 47 81 48
f 48 81 82
f 48 82 49
f 49 82 51
f 51 82 83
f 51 83 53
f 51 53 52
f 53 84 85
f 53 85 55
f 53 55 86
f 53 86 54
f 53 83 84
f 54 86 55
f 55 87 56
f 55 85 87
f 56 87 57
f 57 87 88
f 58 62 59
f 59 89 64
f 59 64 60
f 59 62 90
f 59 90 89
f 61 75 91
f 61 91 62
f 62 91 90
f 63 64 66
f 64 92 66
f 64 89 90
f 64 90 93
f 64 93 132
f 64 132 94
f 64 94 95
f 64 95 92
f 65 96 97
f 65 97 67
f 65 66 98
f 65 98 96
f 66 92 95
f 66 95 99
f 66 99 100
f 66 100 101
f 66 101 102
f 66 102 98
f 67 97 103
f 67 103 104
f 67 104 105
f 67 105 68
f 68 106 107
f 68 107 69
f 68 105 106
f 69 107 108
f 69 108 70
f 70 108 109
f 70 109 110
f 70 110 71
f 71 110 72
f 72 110 111
f 72 111 74
f 72 74 73
f 74 111 112
f 74 112 76
f 76 112 113
f 76 113 77
f 77 113 114
f 77 114 78
f 78 114 115
f 78 115 80
f 80 116 117
f 80 117 118
f 80 118 119
f 80 119 120
f 80 120 121
f 80 121 81
f 80 115 114
f 80 114 113
f 80 113 112
f 80 112 122
f 80 122 116
f 81 121 82
f 82 121 123
f 82 123 124
f 82 124 83
f 83 124 84
f 84 124 125
f 84 125 126
f 84 126 88
f 84 88 85
f 85 88 87
f 88 126 127
f 90 91 128
f 90 128 129
f 90 129 130
f 90 130 131
f 90 131 93
f 93 131 132
f 94 132 133
f 94 133 95
f 95 133 134
f 95 134 135
f 95 135 136
f 95 136 99
f 96 98 137
f 96 137 138
f 96 138 97
f 97 138 139
f 97 139 140
f 97 140 141
f 97 141 103
f 98 102 142
f 98 142 137
f 99 136 100
f 100 136 143
f 100 143 144
f 100 144 101
f 101 144 145
f 101 145 146
f 101 146 102
f 102 146 147
f 102 147 142
f 103 141 104
f 104 148 105
f 104 141 148
f 105 148 149
f 105 149 150
f 105 150 106
f 106 150 107
f 107 151 152
f 107 152 108
f 107 150 151
f 108 153 109
f 108 152 153
f 109 111 110
f 109 153 154
f 109 154 155
f 109 155 111
f 111 156 157
f 111 157 158
f 111 158 112
f 111 155 159
f 111 159 160
f 111 160 161
f 111 161 162
f 111 162 156
f 112 158 122
f 116 163 205
f 116 205 237
f 116 237 236
f 116 236 235
f 116 235 234
f 116 234 258
f 116 258 244
f 116 244 206
f 116 206 164
f 116 164 117
f 116 122 163
f 117 164 118
f 118 164 119
f 119 164 123
f 119 123 120
f 120 123 121
f 122 158 165
f 122 165 163
f 123 166 126
f 123 126 124
f 123 164 166
f 124 126 125
f 126 166 127
f 127 166 167
f 129 168 130
f 130 168 131
f 131 169 132
f 132 169 170
f 132 170 171
f 132 171 172
f 132 172 134
f 132 134 133
f 134 172 135
f 135 172 136
f 136 172 143
f 137 173 138
f 137 142 173
f 138 173 174
f 138 174 175
f 138 175 139
f 139 175 140
f 140 175 176
f 140 176 141
f 141 176 177
f 141 177 178
f 141 178 179
f 141 179 155
f 141 155 148
f 142 147 173
f 143 172 171
f 143 171 180
f 143 180 181
f 143 181 182
f 143 182 144
f 144 182 183
f 144 183 145
f 145 183 184
f 145 184 185
f 145 185 186
f 145 186 187
f 145 187 188
f 145 188 189
f 145 189 190
f 145 190 191
f 145 191 192
f 145 192 146
f 146 192 147
f 147 192 193
f 147 193 173
f 148 155 154
f 148 154 153
f 148 153 152
f 148 152 194
f 148 194 149
f 149 194 152
f 149 152 150
f 150 152 151
f 155 179 195
f 155 195 159
f 156 196 157
f 156 162 197
f 156 197 196
f 157 165 158
f 157 196 198
f 157 198 199
f 157 199 200
f 157 200 163
f 157 163 165
f 159 195 160
f 160 195 201
f 160 201 202
f 160 202 203
f 160 203 161
f 161 203 162
f 162 203 204
f 162 204 243
f 162 243 267
f 162 267 266
f 162 266 264
f 162 264 282
f 162 282 281
f 162 281 286
f 162 286 285
f 162 285 279
f 162 279 278
f 162 278 280
f 162 280 273
f 162 273 272
f 162 272 252
f 162 252 219
f 162 219 251
f 162 251 250
f 162 250 271
f 162 271 284
f 162 284 274
f 162 274 258
f 162 258 234
f 162 234 257
f 162 257 256
f 162 256 232
f 162 232 231
f 162 231 230
f 162 230 229
f 162 229 197
f 163 200 205
f 164 206 166
f 166 207 208
f 166 208 167
f 166 206 207
f 169 209 210
f 169 210 170
f 170 211 182
f 170 182 181
f 170 181 180
f 170 180 171
f 170 210 211
f 173 193 177
f 173 177 175
f 173 175 174
f 175 177 176
f 177 191 178
f 177 193 192
f 177 192 191
f 178 191 179
f 179 191 195
f 182 211 210
f 182 210 212
f 182 212 213
f 182 213 214
f 182 214 183
f 183 214 184
f 184 214 215
f 184 215 216
f 184 216 185
f 185 216 217
f 185 217 248
f 185 248 270
f 185 270 249
f 185 249 218
f 185 218 219
f 185 219 220
f 185 220 187
f 185 187 186
f 187 220 219
f 187 219 221
f 187 221 222
f 187 222 223
f 187 223 188
f 188 223 224
f 188 224 189
f 189 224 223
f 189 223 225
f 189 225 226
f 189 226 227
f 189 227 228
f 189 228 190
f 190 228 227
f 190 227 191
f 191 227 195
f 195 227 201
f 196 197 229
f 196 229 230
f 196 230 231
f 196 231 198
f 198 231 232
f 198 232 233
f 198 233 200
f 198 200 199
f 200 233 234
f 200 234 235
f 200 235 236
f 200 236 237
f 200 237 205
f 201 227 238
f 201 238 239
f 201 239 240
f 201 240 241
f 201 241 202
f 202 241 204
f 202 204 203
f 204 241 242
f 204 242 243
f 206 244 207
f 209 245 212
f 209 212 210
f 212 245 213
f 213 245 246
f 213 246 214
f 214 246 215
f 215 246 216
f 216 246 247
f 218 249 250
f 218 250 251
f 218 251 219
f 219 252 221
f 221 252 222
f 222 252 253
f 222 253 254
f 222 254 223
f 223 254 255
f 223 255 225
f 225 255 226
f 226 255 227
f 227 255 254
f 227 254 238
f 232 256 233
f 233 256 257
f 233 257 234
f 238 259 260
f 238 260 239
f 238 254 261
f 238 261 259
f 239 260 262
f 239 262 263
f 239 263 240
f 240 263 264
f 240 264 265
f 240 265 242
f 240 242 241
f 242 265 266
f 242 266 267
f 242 267 243
f 245 268 246
f 246 268 247
f 248 269 270
f 249 270 269
f 249 269 250
f 250 269 271
f 252 272 253
f 253 273 261
f 253 261 254
f 253 272 273
f 259 275 276
f 259 276 260
f 259 261 277
f 259 277 278
f 259 278 279
f 259 279 275
f 260 276 262
f 261 273 280
f 261 280 277
f 262 276 281
f 262 281 263
f 263 281 282
f 263 282 264
f 264 266 265
f 269 283 271
f 271 283 284
f 274 284 283
f 275 279 285
f 275 285 286
f 275 286 276
f 276 286 281
f 277 280 278

