# https://github.com/mikedh/trimesh
v -0.00296164 -0.00692355 0.02457612
v -0.00296164 -0.00662695 0.02457383
v -0.00296164 -0.00736446 0.02433128
v -0.00203545 -0.00780536 0.02363110
v -0.00139008 -0.00726826 0.02341143
v 0.00001613 -0.00328810 0.02271354
v 0.00007075 -0.00241431 0.02273871
v 0.00007075 -0.00230208 0.02274557
v 0.00007075 -0.00069078 0.02280278
v 0.00007075 0.00044756 0.02277303
v 0.00007075 0.00073615 0.02273413
v -0.00296164 0.00268013 0.02311168
v -0.00296164 -0.00808995 0.02389424
v -0.00093411 -0.00794164 0.02276616
v -0.00296164 -0.00841862 0.02363110
v -0.00296164 -0.00861102 0.02347093
v -0.00296164 -0.00955695 0.02267006
v -0.00197222 -0.00884750 0.02268379
v -0.00167210 -0.00820618 0.02305676
v -0.00080053 -0.00726826 0.02291490
v -0.00070998 -0.00627422 0.02298354
v 0.00007075 -0.00319191 0.02267693
v 0.00007075 0.00267612 0.02238404
v -0.00296164 0.00367016 0.02291490
v -0.00130874 -0.00860701 0.02246184
v -0.00015635 -0.00869920 0.02157173
v 0.00007075 -0.00854287 0.02145503
v 0.00004255 -0.00803383 0.02177309
v -0.00296164 -0.00969323 0.02254879
v -0.00296164 -0.01065120 0.02169072
v -0.00296164 -0.01074739 0.02160377
v -0.00030299 -0.00726826 0.02239319
v -0.00021216 -0.00627422 0.02248014
v -0.00014982 -0.00545655 0.02255108
v -0.00009905 -0.00479118 0.02260828
v -0.00006017 -0.00428214 0.02264718
v 0.00007075 -0.00405768 0.02255108
v 0.00007075 0.00823151 0.02121478
v -0.00296164 0.00447581 0.02270438
v -0.00081982 -0.00896374 0.02179826
v 0.00007075 -0.00916415 0.02099740
v -0.00296164 -0.01087967 0.02148249
v 0.00007075 -0.01071132 0.01958101
v -0.00011924 -0.00974534 0.02060154
v 0.00007075 -0.00805788 0.02173191
v 0.00007075 -0.00800177 0.02175250
v 0.00007075 -0.00726826 0.02198589
v 0.00007075 0.00862031 0.02110265
v -0.00296164 0.00528547 0.02246641
v 0.00007075 -0.00948881 0.02070222
v -0.00296164 -0.01385777 0.01872981
v -0.00000822 -0.01281163 0.01769097
v 0.00007075 -0.01191779 0.01846438
v 0.00007075 -0.01041070 0.01985788
v 0.00007075 -0.00966918 0.02053747
v -0.00296164 0.00798300 0.02166097
v -0.00296164 0.00765834 0.02176165
v -0.00296164 0.00749400 0.02181199
v 0.00007075 0.00934981 0.02086926
v -0.00296164 -0.01436281 0.01825844
v -0.00112647 -0.01371748 0.01760631
v 0.00007075 -0.01289981 0.01755139
v 0.00007075 -0.01265130 0.01778479
v 0.00007075 0.01002720 0.02054662
v 0.00007075 0.01048012 0.02032696
v 0.00007075 0.01138197 0.01983729
v 0.00007075 0.01197118 0.01951237
v -0.00296164 0.00830366 0.02148249
v -0.00296164 -0.01487987 0.01776877
v 0.00007075 -0.01369344 0.01678485
v -0.00059866 -0.01352509 0.01742096
v -0.00296164 -0.01538089 0.01728138
v 0.00007075 0.01203531 0.01947575
v -0.00296164 0.00855618 0.02124223
v 0.00007075 0.01328187 0.01872981
v 0.00007075 0.01380694 0.01838887
v 0.00007075 0.01500941 0.01753766
v 0.00007075 0.01539019 0.01726765
v 0.00007075 0.01556254 0.01714180
v 0.00007075 0.01576696 0.01699078
v 0.00007075 0.01615175 0.01667730
v -0.00256415 -0.01624667 0.01615331
v -0.00222722 -0.01662745 0.01554236
v 0.00000574 -0.01381769 0.01670934
v -0.00043183 -0.01648716 0.01440742
v 0.00007075 -0.01546507 0.01505040
v -0.00296164 -0.01638696 0.01629746
v -0.00296164 0.00898506 0.02076172
v 0.00007075 0.01656860 0.01613500
v -0.00026648 0.01632010 0.01590847
v -0.00113033 0.01615576 0.01469802
v -0.00296164 0.00921754 0.02049171
v -0.00289099 -0.01686794 0.01577576
v -0.00159373 -0.01690402 0.01481930
v -0.00069752 -0.01698418 0.01410309
v 0.00002414 -0.01682385 0.01374385
v 0.00007075 -0.01580576 0.01471633
v 0.00002652 -0.01582180 0.01473234
v -0.00296164 -0.01688397 0.01580779
v 0.00007075 0.01700550 0.01538219
v -0.00126689 0.01628001 0.01414428
v -0.00209690 0.01612369 0.01266611
v -0.00296164 0.01548238 0.01206432
v -0.00296164 0.01541825 0.01218788
v -0.00109679 -0.01772169 0.01364546
v 0.00007075 -0.01680782 0.01372326
v 0.00007075 -0.01673567 0.01379648
v -0.00059866 -0.01754533 0.01344638
v -0.00296164 -0.01737298 0.01526320
v -0.00226759 -0.01762950 0.01452183
v 0.00007075 0.01723397 0.01481472
v -0.00296164 0.01593130 0.01116049
v -0.00059866 -0.01788603 0.01294756
v -0.00004057 -0.01775777 0.01271645
v -0.00293136 -0.01778182 0.01474150
v -0.00296164 -0.01780987 0.01471175
v -0.00296164 -0.01830689 0.01382851
v -0.00296164 -0.01868366 0.01315578
v -0.00296164 -0.01883197 0.01288578
v -0.00282331 -0.01881193 0.01282857
v -0.00149458 -0.01808644 0.01324960
v 0.00007075 -0.01757339 0.01282629
v -0.00296164 -0.01778582 0.01475294
v 0.00007075 0.01826007 0.01212839
v -0.00002454 0.01804363 0.01247619
v -0.00155840 0.01678104 0.01220619
v -0.00136366 0.01735422 0.01116049
v -0.00041966 0.01840437 0.01016513
v -0.00296164 0.01608361 0.01016513
v -0.00215983 -0.01869168 0.01258831
v -0.00296164 -0.01935304 0.01171880
v -0.00059866 -0.01819466 0.01215585
v 0.00007075 -0.01789404 0.01215585
v 0.00007075 -0.01780587 0.01241670
v 0.00007075 -0.01772169 0.01262950
v -0.00296164 -0.01892817 0.01270501
v 0.00007075 0.01862883 0.01116049
v -0.00080438 0.01785124 0.01116049
v 0.00007075 0.01882924 0.01016513
v -0.00140819 0.01740632 0.00916977
v -0.00296164 0.01598741 0.00916977
v -0.00296164 -0.01916866 0.01218331
v -0.00296164 -0.01952539 0.01120854
v 0.00007075 -0.01817061 0.01119939
v 0.00007075 0.01848453 0.00935053
v -0.00031754 0.01831619 0.00939172
v -0.00296164 0.01559461 0.00717904
v -0.00296164 0.01588320 0.00817440
v -0.00296164 -0.01964163 0.01079667
v 0.00007075 -0.01831892 0.01067310
v 0.00007075 0.01353839 0.00120230
v -0.00296164 0.01238002 0.00120001
v -0.00296164 0.01525391 0.00640335
v 0.00007075 -0.01959353 0.00614478
v -0.00296164 -0.02181408 0.00304658
v -0.00065596 -0.02047534 0.00416093
v 0.00007075 0.01294518 0.00120001
v -0.00050308 0.01330191 0.00120001
v -0.00296164 -0.02211470 0.00120001
v 0.00007075 -0.01986208 0.00518832
v -0.00296164 -0.02184615 0.00292759
v -0.00159373 -0.02115673 0.00319760
v 0.00007075 -0.02013464 0.00420898
v 0.00007075 -0.01965365 0.00120001
v -0.00267013 -0.02195437 0.00120001
v -0.00266835 -0.02195437 0.00120688
v -0.00296164 -0.02211871 0.00123205
v -0.00296164 -0.02201850 0.00220224
v -0.00089107 -0.02082004 0.00319760
v 0.00007075 -0.02023084 0.00376049
v 0.00007075 -0.02028695 0.00120459
v -0.00035999 -0.02054748 0.00120001
v -0.00217111 -0.02165375 0.00120001
v -0.00031576 -0.02057554 0.00220224
v -0.00081359 -0.02087616 0.00220224
v -0.00296164 -0.02205458 0.00196427
v -0.00159373 -0.02131306 0.00220224
v -0.00271822 -0.02189825 0.00220224
v 0.00007075 -0.02031902 0.00319760
v 0.00007075 -0.02033906 0.00220224
v -0.00085752 -0.02085211 0.00120001
v 0.00007075 -0.02034307 0.00274225
f 1 2 12
f 1 12 24
f 1 24 39
f 1 39 49
f 1 49 58
f 1 58 57
f 1 57 56
f 1 56 68
f 1 68 74
f 1 74 88
f 1 88 92
f 1 92 104
f 1 104 103
f 1 103 112
f 1 112 129
f 1 129 141
f 1 141 148
f 1 148 147
f 1 147 153
f 1 153 152
f 1 152 159
f 1 159 167
f 1 167 176
f 1 176 168
f 1 168 161
f 1 161 155
f 1 155 149
f 1 149 143
f 1 143 131
f 1 131 142
f 1 142 136
f 1 136 119
f 1 119 118
f 1 118 117
f 1 117 116
f 1 116 123
f 1 123 109
f 1 109 99
f 1 99 87
f 1 87 72
f 1 72 69
f 1 69 60
f 1 60 51
f 1 51 42
f 1 42 31
f 1 31 30
f 1 30 29
f 1 29 17
f 1 17 16
f 1 16 15
f 1 15 13
f 1 13 3
f 1 3 4
f 1 4 5
f 1 5 6
f 1 6 7
f 1 7 8
f 1 8 9
f 1 9 2
f 2 9 10
f 2 10 11
f 2 11 12
f 3 13 4
f 4 14 5
f 4 13 15
f 4 15 16
f 4 16 17
f 4 17 18
f 4 18 19
f 4 19 14
f 5 14 20
f 5 20 21
f 5 21 6
f 6 22 7
f 6 21 22
f 7 22 37
f 7 37 47
f 7 47 46
f 7 46 45
f 7 45 27
f 7 27 41
f 7 41 50
f 7 50 55
f 7 55 54
f 7 54 43
f 7 43 53
f 7 53 63
f 7 63 62
f 7 62 70
f 7 70 86
f 7 86 97
f 7 97 107
f 7 107 106
f 7 106 122
f 7 122 135
f 7 135 134
f 7 134 133
f 7 133 144
f 7 144 150
f 7 150 154
f 7 154 160
f 7 160 163
f 7 163 170
f 7 170 179
f 7 179 182
f 7 182 180
f 7 180 171
f 7 171 164
f 7 164 157
f 7 157 151
f 7 151 145
f 7 145 139
f 7 139 137
f 7 137 124
f 7 124 111
f 7 111 100
f 7 100 89
f 7 89 81
f 7 81 80
f 7 80 79
f 7 79 78
f 7 78 77
f 7 77 76
f 7 76 75
f 7 75 73
f 7 73 67
f 7 67 66
f 7 66 65
f 7 65 64
f 7 64 59
f 7 59 48
f 7 48 38
f 7 38 23
f 7 23 11
f 7 11 10
f 7 10 9
f 7 9 8
f 11 23 12
f 12 23 24
f 14 19 25
f 14 25 26
f 14 26 27
f 14 27 28
f 14 28 20
f 17 29 18
f 18 25 19
f 18 29 30
f 18 30 31
f 18 31 25
f 20 32 33
f 20 33 34
f 20 34 35
f 20 35 21
f 20 28 32
f 21 35 36
f 21 36 22
f 22 36 37
f 23 38 24
f 24 38 39
f 25 40 41
f 25 41 26
f 25 31 42
f 25 42 43
f 25 43 44
f 25 44 40
f 26 41 27
f 27 45 28
f 28 45 46
f 28 46 47
f 28 47 32
f 32 47 33
f 33 47 37
f 33 37 34
f 34 37 35
f 35 37 36
f 38 48 39
f 39 48 49
f 40 44 41
f 41 44 50
f 42 51 43
f 43 51 52
f 43 52 53
f 43 54 44
f 44 54 55
f 44 55 50
f 48 56 57
f 48 57 58
f 48 58 49
f 48 59 56
f 51 60 52
f 52 60 61
f 52 61 62
f 52 62 63
f 52 63 53
f 56 59 64
f 56 64 65
f 56 65 66
f 56 66 67
f 56 67 68
f 60 69 61
f 61 70 71
f 61 71 62
f 61 69 72
f 61 72 70
f 62 71 70
f 67 73 68
f 68 73 75
f 68 75 76
f 68 76 77
f 68 77 78
f 68 78 79
f 68 79 80
f 68 80 81
f 68 81 74
f 70 72 82
f 70 82 83
f 70 83 84
f 70 84 85
f 70 85 86
f 72 87 82
f 74 81 88
f 81 89 90
f 81 90 91
f 81 91 92
f 81 92 88
f 82 87 83
f 83 85 84
f 83 87 93
f 83 93 85
f 85 93 94
f 85 94 95
f 85 95 96
f 85 96 97
f 85 97 98
f 85 98 86
f 86 98 97
f 87 99 93
f 89 91 90
f 89 100 91
f 91 100 101
f 91 101 102
f 91 102 103
f 91 103 104
f 91 104 92
f 93 99 105
f 93 105 95
f 93 95 94
f 95 105 96
f 96 106 107
f 96 107 97
f 96 105 108
f 96 108 106
f 99 109 110
f 99 110 105
f 100 111 102
f 100 102 101
f 102 112 103
f 102 111 112
f 105 113 114
f 105 114 108
f 105 110 115
f 105 115 116
f 105 116 117
f 105 117 118
f 105 118 119
f 105 119 120
f 105 120 121
f 105 121 113
f 106 108 114
f 106 114 122
f 109 123 115
f 109 115 110
f 111 124 125
f 111 125 126
f 111 126 112
f 112 126 127
f 112 127 128
f 112 128 129
f 113 121 130
f 113 130 114
f 114 130 131
f 114 131 132
f 114 132 133
f 114 133 134
f 114 134 135
f 114 135 122
f 115 123 116
f 119 136 120
f 120 136 130
f 120 130 121
f 124 137 125
f 125 137 138
f 125 138 127
f 125 127 126
f 127 138 128
f 128 138 137
f 128 137 139
f 128 139 140
f 128 140 129
f 129 140 141
f 130 136 142
f 130 142 131
f 131 143 132
f 132 143 144
f 132 144 133
f 139 145 146
f 139 146 140
f 140 146 147
f 140 147 148
f 140 148 141
f 143 149 144
f 144 149 150
f 145 151 152
f 145 152 146
f 146 153 147
f 146 152 153
f 149 154 150
f 149 155 156
f 149 156 154
f 151 157 158
f 151 158 152
f 152 158 157
f 152 157 164
f 152 164 172
f 152 172 181
f 152 181 173
f 152 173 165
f 152 165 159
f 154 156 160
f 155 161 156
f 156 161 162
f 156 162 163
f 156 163 160
f 159 165 166
f 159 166 167
f 161 168 162
f 162 168 169
f 162 169 163
f 163 169 170
f 164 171 172
f 165 173 166
f 166 173 174
f 166 174 175
f 166 175 167
f 167 175 177
f 167 177 176
f 168 176 178
f 168 178 169
f 169 178 177
f 169 177 179
f 169 179 170
f 171 180 174
f 171 174 173
f 171 173 181
f 171 181 172
f 174 180 182
f 174 182 175
f 175 182 179
f 175 179 177
f 176 177 178

