# https://github.com/mikedh/trimesh
v -0.03445879 -0.01993225 0.00418757
v -0.03445879 -0.01992202 0.00319247
v -0.03445879 -0.01979105 0.00518708
v -0.03478143 -0.01946567 0.00418757
v -0.03795842 -0.01576572 -0.00900857
v -0.03795842 -0.01576572 -0.00929918
v -0.03517145 -0.01898680 -0.00575907
v -0.03445879 -0.01980128 -0.00476397
v -0.03594346 -0.01773643 0.00372965
v -0.03510078 -0.01896838 0.00418757
v -0.03445879 -0.01941041 0.00612054
v -0.03819976 -0.00967146 0.02047030
v -0.03819976 -0.00969192 0.02041306
v -0.03819976 -0.01178951 0.01442482
v -0.03819976 -0.01189183 0.01409899
v -0.03819976 -0.01210261 0.01338128
v -0.03683228 -0.01656792 0.00219736
v -0.03819976 -0.01538918 -0.00875319
v -0.03819976 -0.01540146 -0.00955896
v -0.03819976 -0.01279226 -0.01986226
v -0.03701136 -0.01681145 -0.00837453
v -0.03606394 -0.01785103 -0.00743666
v -0.03511396 -0.01888448 -0.00648559
v -0.03445879 -0.01952092 -0.00580310
v -0.03800822 -0.01486734 0.00120666
v -0.03445879 -0.01878830 0.00721251
v -0.03819976 -0.00932152 0.02128928
v -0.03819976 -0.01446010 0.00021155
v -0.03768814 -0.01536462 0.00120666
v -0.03819976 -0.01251599 -0.02030257
v -0.03801701 -0.01271040 -0.02003398
v -0.03445879 -0.01899703 -0.00676739
v -0.03445879 -0.01815800 0.00817239
v -0.03742776 -0.00867280 0.02246051
v -0.03819976 -0.00889177 0.02201139
v -0.03819976 -0.01228679 -0.02054915
v -0.03643236 -0.01197778 -0.02039504
v -0.03543733 -0.01182839 -0.02026735
v -0.03493890 -0.01174858 -0.02019249
v -0.03445879 -0.01189388 -0.01958046
v -0.03445879 -0.01805568 0.00832210
v -0.03634593 -0.00861754 0.02215669
v -0.03643236 -0.00808752 0.02284358
v -0.03742776 -0.00817552 0.02301530
v -0.03819976 -0.00811003 0.02301530
v -0.03819976 -0.00860731 0.02239446
v -0.03445879 -0.01750110 0.00911906
v -0.03819976 -0.01125130 -0.02080453
v -0.03742776 -0.01125130 -0.02069885
v -0.03643236 -0.01125130 -0.02054915
v -0.03543733 -0.01125130 -0.02036862
v -0.03476422 -0.01125130 -0.02023212
v -0.03445879 -0.01125130 -0.02008682
v -0.03445879 -0.01169128 -0.01975659
v -0.03445879 -0.01187341 -0.01961569
v -0.03445879 -0.00798315 0.02186169
v -0.03575009 -0.00790129 0.02268947
v -0.03445879 -0.01673778 0.01017581
v -0.03739004 -0.00735080 0.02350405
v -0.03819976 -0.00715435 0.02380346
v -0.03819976 -0.00761479 0.02351286
v -0.03445879 -0.00725872 -0.02025854
v -0.03819976 -0.00826761 -0.02056235
v -0.03643236 -0.00727099 -0.02040825
v -0.03445879 -0.00623550 -0.02022331
v -0.03445879 -0.00727099 -0.02025854
v -0.03445879 -0.00882014 -0.02025414
v -0.03457195 -0.01025673 -0.02026735
v -0.03445879 -0.01025673 -0.02024533
v -0.03445879 -0.00727099 0.02224476
v -0.03505500 -0.00727099 0.02253977
v -0.03555269 -0.00727099 0.02277313
v -0.03643236 -0.00727099 0.02316501
v -0.03769657 -0.00707249 0.02369779
v -0.03819976 -0.00626210 0.02409847
v -0.03819976 -0.00726076 -0.02035541
v -0.03742776 -0.00727099 -0.02040384
v -0.03643236 -0.00660386 -0.02029377
v -0.03445879 -0.00616797 -0.02021451
v -0.03445879 -0.00670823 0.02237245
v -0.03445879 -0.00635419 0.02245170
v -0.03494623 -0.00675529 0.02260141
v -0.03703297 -0.00650358 0.02355689
v -0.03481951 -0.00609225 0.02265865
v -0.03819976 -0.00605337 0.02412049
v -0.03739004 -0.00621299 0.02375943
v -0.03690662 -0.00584054 0.02360972
v -0.03632689 -0.00528186 0.02343800
v -0.03819976 -0.00710114 -0.02029817
v -0.03742776 -0.00670209 -0.02025414
v -0.03472356 -0.00585896 -0.02015727
v -0.03445879 -0.00562157 -0.01983144
v -0.03445879 -0.00564408 0.02257499
v -0.03466460 -0.00528186 0.02272470
v -0.03819976 -0.00528186 0.02417773
v -0.03682422 -0.00528186 0.02364055
v -0.03543733 -0.00528186 0.02305933
v -0.03445879 -0.00495034 0.02267186
v -0.03454118 -0.00428525 0.02275992
v -0.03819976 -0.00677576 -0.01969494
v -0.03793205 -0.00677167 -0.02019690
v -0.03445879 -0.00558474 -0.01975659
v -0.03445879 -0.00528186 0.02263223
v -0.03819976 -0.00506085 0.02416452
v -0.03543733 -0.00428525 0.02310777
v -0.03681250 -0.00448376 0.02364055
v -0.03445879 -0.00428525 0.02272470
v -0.03445879 -0.00409289 0.02271589
v -0.03819976 -0.00670004 -0.01929426
v -0.03445879 0.00039084 -0.00272973
v -0.03521613 -0.00567683 -0.01949240
v -0.03819976 -0.00406015 0.02396638
v -0.03733584 -0.00420544 0.02378585
v -0.03760647 -0.00346259 0.02371099
v -0.03445879 -0.00329069 0.02266305
v -0.03819976 -0.00657725 -0.01862498
v -0.03445879 0.00057911 -0.00171261
v -0.03819976 -0.00348305 0.02373301
v -0.03694288 -0.00381867 0.02359651
v -0.03643236 -0.00329069 0.02334554
v -0.03643236 -0.00229408 0.02313859
v -0.03445879 -0.00224496 0.02242528
v -0.03479168 -0.00254374 0.02265425
v -0.03536445 -0.00224496 0.02280395
v -0.03543733 -0.00329069 0.02300209
v -0.03819976 -0.00645652 -0.01792929
v -0.03819976 -0.00641763 -0.01770473
v -0.03819976 -0.00578119 -0.01402372
v -0.03819976 -0.00573003 -0.01372431
v -0.03819976 -0.00558883 -0.01272921
v -0.03486273 0.00006750 -0.00177865
v -0.03819976 -0.00214060 0.02111316
v -0.03445879 0.00073668 0.00021155
v -0.03643236 -0.00159011 0.02280395
v -0.03819976 -0.00342985 0.02370659
v -0.03564755 -0.00165150 0.02272029
v -0.03498395 -0.00188070 0.02257939
v -0.03445879 -0.00152462 0.02194534
v -0.03819976 -0.00223882 0.02011805
v -0.03819976 -0.00226747 0.02209945
v -0.03774381 -0.00192981 0.02210826
v -0.03724648 -0.00161466 0.02210826
v -0.03445879 0.00097407 0.00518708
v -0.03445879 0.00093519 0.00415235
v -0.03445879 0.00078989 0.00120666
v -0.03445879 0.00074282 0.00029081
v -0.03536445 -0.00135681 0.02219192
v -0.03445879 -0.00064261 0.02085777
v -0.03519563 -0.00065079 0.02087098
v -0.03643236 -0.00126677 0.02210826
v -0.03710402 -0.00166787 0.02275992
v -0.03819976 -0.00282410 0.02316501
v -0.03445879 -0.00151030 0.02193213
v -0.03445879 -0.00102325 0.02137294
v -0.03819976 -0.00257444 0.02279074
v -0.03527620 -0.00058940 0.02011805
v -0.03445879 0.00089835 0.00618218
v -0.03445879 -0.00032132 0.02013126
v -0.03445879 -0.00031927 0.02011805
v -0.03445879 -0.00018012 0.01914056
v -0.03819976 -0.00261946 0.02289202
v -0.03814922 -0.00259695 0.02293164
v -0.03819976 -0.00266653 0.02297567
f 1 2 8
f 1 8 24
f 1 24 32
f 1 32 40
f 1 40 55
f 1 55 54
f 1 54 53
f 1 53 69
f 1 69 67
f 1 67 66
f 1 66 62
f 1 62 65
f 1 65 79
f 1 79 92
f 1 92 102
f 1 102 110
f 1 110 117
f 1 117 133
f 1 133 146
f 1 146 145
f 1 145 144
f 1 144 143
f 1 143 157
f 1 157 160
f 1 160 159
f 1 159 158
f 1 158 148
f 1 148 154
f 1 154 153
f 1 153 138
f 1 138 122
f 1 122 115
f 1 115 108
f 1 108 107
f 1 107 98
f 1 98 103
f 1 103 93
f 1 93 81
f 1 81 80
f 1 80 70
f 1 70 56
f 1 56 58
f 1 58 47
f 1 47 41
f 1 41 33
f 1 33 26
f 1 26 11
f 1 11 3
f 1 3 4
f 1 4 5
f 1 5 6
f 1 6 2
f 2 6 7
f 2 7 8
f 3 9 10
f 3 10 4
f 3 11 12
f 3 12 13
f 3 13 14
f 3 14 15
f 3 15 16
f 3 16 9
f 4 10 9
f 4 9 17
f 4 17 18
f 4 18 5
f 5 18 19
f 5 19 6
f 6 19 20
f 6 20 21
f 6 21 7
f 7 21 22
f 7 22 23
f 7 23 8
f 8 23 24
f 9 16 25
f 9 25 17
f 11 26 27
f 11 27 12
f 12 27 35
f 12 35 46
f 12 46 45
f 12 45 61
f 12 61 60
f 12 60 75
f 12 75 85
f 12 85 95
f 12 95 104
f 12 104 112
f 12 112 118
f 12 118 135
f 12 135 152
f 12 152 163
f 12 163 161
f 12 161 155
f 12 155 140
f 12 140 132
f 12 132 139
f 12 139 130
f 12 130 129
f 12 129 128
f 12 128 127
f 12 127 126
f 12 126 116
f 12 116 109
f 12 109 100
f 12 100 89
f 12 89 76
f 12 76 63
f 12 63 48
f 12 48 36
f 12 36 30
f 12 30 20
f 12 20 19
f 12 19 18
f 12 18 28
f 12 28 16
f 12 16 15
f 12 15 14
f 12 14 13
f 16 28 25
f 17 25 29
f 17 29 18
f 18 29 25
f 18 25 28
f 20 30 31
f 20 31 24
f 20 24 23
f 20 23 22
f 20 22 21
f 24 31 32
f 26 33 34
f 26 34 35
f 26 35 27
f 30 36 37
f 30 37 31
f 31 37 38
f 31 38 39
f 31 39 32
f 32 39 40
f 33 41 34
f 34 42 43
f 34 43 44
f 34 44 45
f 34 45 46
f 34 46 35
f 34 41 47
f 34 47 42
f 36 48 37
f 37 48 49
f 37 49 50
f 37 50 38
f 38 50 39
f 39 50 51
f 39 51 52
f 39 52 53
f 39 53 54
f 39 54 55
f 39 55 40
f 42 56 57
f 42 57 43
f 42 47 58
f 42 58 56
f 43 57 59
f 43 59 44
f 44 59 60
f 44 60 61
f 44 61 45
f 48 62 49
f 48 63 64
f 48 64 65
f 48 65 62
f 49 62 66
f 49 66 50
f 50 66 67
f 50 67 68
f 50 68 51
f 51 68 69
f 51 69 52
f 52 69 53
f 56 70 57
f 57 70 71
f 57 71 72
f 57 72 73
f 57 73 59
f 59 73 74
f 59 74 60
f 60 74 75
f 63 76 77
f 63 77 64
f 64 77 78
f 64 78 79
f 64 79 65
f 67 69 68
f 70 80 71
f 71 80 81
f 71 81 82
f 71 82 72
f 72 82 73
f 73 83 75
f 73 75 74
f 73 82 84
f 73 84 83
f 75 83 86
f 75 86 87
f 75 87 88
f 75 88 85
f 76 89 90
f 76 90 78
f 76 78 77
f 78 90 91
f 78 91 79
f 79 91 92
f 81 93 82
f 82 93 84
f 83 87 86
f 83 84 94
f 83 94 87
f 84 93 94
f 85 88 96
f 85 96 95
f 87 94 97
f 87 97 88
f 88 97 98
f 88 98 99
f 88 99 96
f 89 100 101
f 89 101 90
f 90 101 91
f 91 101 92
f 92 101 102
f 93 103 94
f 94 103 98
f 94 98 97
f 95 96 99
f 95 99 105
f 95 105 106
f 95 106 104
f 98 107 99
f 99 107 108
f 99 108 105
f 100 109 110
f 100 110 101
f 101 111 102
f 101 110 111
f 102 111 110
f 104 106 113
f 104 113 114
f 104 114 112
f 105 108 115
f 105 115 106
f 106 115 113
f 109 116 117
f 109 117 110
f 112 114 118
f 113 119 120
f 113 120 114
f 113 115 119
f 114 120 121
f 114 121 118
f 115 122 123
f 115 123 124
f 115 124 125
f 115 125 119
f 116 126 117
f 117 126 127
f 117 127 128
f 117 128 129
f 117 129 130
f 117 130 131
f 117 131 132
f 117 132 133
f 118 121 134
f 118 134 135
f 119 125 120
f 120 125 124
f 120 124 121
f 121 124 136
f 121 136 134
f 122 137 123
f 122 138 137
f 123 137 124
f 124 137 136
f 130 139 131
f 131 139 132
f 132 140 141
f 132 141 142
f 132 142 143
f 132 143 144
f 132 144 145
f 132 145 146
f 132 146 133
f 134 136 147
f 134 147 148
f 134 148 149
f 134 149 150
f 134 150 151
f 134 151 135
f 135 151 152
f 136 137 153
f 136 153 154
f 136 154 148
f 136 148 147
f 137 138 153
f 140 155 151
f 140 151 141
f 141 151 142
f 142 150 156
f 142 156 157
f 142 157 143
f 142 151 150
f 148 158 149
f 149 158 159
f 149 159 160
f 149 160 156
f 149 156 150
f 151 155 161
f 151 161 162
f 151 162 163
f 151 163 152
f 156 160 157
f 161 163 162

