# https://github.com/mikedh/trimesh
v -0.04041414 -0.01295423 0.01215656
v -0.04127929 -0.01285390 0.01215656
v -0.04049706 -0.01294399 0.01108038
v -0.03953914 -0.01292045 0.01115983
v -0.03969446 -0.01284468 0.01215656
v -0.03987930 -0.01275254 0.01267479
v -0.04041414 -0.01278633 0.01280119
v -0.04107478 -0.01279247 0.01282827
v -0.04240519 -0.01222219 0.01414642
v -0.04240519 -0.01237167 0.01315149
v -0.04339967 -0.01207681 0.01315149
v -0.04420017 -0.01183928 0.01315149
v -0.04177688 -0.01270544 0.01215656
v -0.04123853 -0.01284264 0.01135845
v -0.04301593 -0.01178297 0.01586362
v -0.04022016 -0.01285390 0.01043756
v -0.03967267 -0.01285390 0.01043756
v -0.03904155 -0.01268292 0.01115983
v -0.03885601 -0.01258361 0.01145777
v -0.03885601 -0.01253037 0.01215656
v -0.03919687 -0.01267268 0.01215656
v -0.03885601 -0.01234096 0.00916997
v -0.03885601 -0.01249249 0.01014865
v -0.03885601 -0.01247508 0.01259354
v -0.03885601 -0.01235017 0.01311538
v -0.04041414 -0.01262865 0.01329775
v -0.03949627 -0.01253651 0.01306482
v -0.03885601 -0.00975578 0.02060352
v -0.04141001 -0.01147275 0.01713121
v -0.04141001 -0.01169799 0.01649019
v -0.04141001 -0.01187307 0.01599182
v -0.04141001 -0.01213722 0.01514135
v -0.04240519 -0.01173485 0.01655158
v -0.04240519 -0.01186078 0.01605502
v -0.04240519 -0.01205940 0.01514135
v -0.04384736 -0.01173485 0.01454548
v -0.04469775 -0.01168980 0.01315149
v -0.04240519 -0.01249556 0.01215656
v -0.04150630 -0.01263889 0.01108038
v -0.04088361 -0.01273309 0.01069396
v -0.04339967 -0.01214336 0.01215656
v -0.04420930 -0.01185566 0.01215656
v -0.04470689 -0.01167035 0.01215656
v -0.04402728 -0.01180652 0.01155708
v -0.04240519 -0.01153213 0.01713121
v -0.04336874 -0.01156080 0.01617058
v -0.04369695 -0.01168059 0.01514135
v -0.03885601 -0.01185464 0.00755208
v -0.03885601 -0.01207783 0.00818588
v -0.03885601 -0.01258770 0.01115983
v -0.03885601 -0.01216896 0.01373292
v -0.03885601 -0.00972200 0.02067214
v -0.03891012 -0.00976090 0.02061797
v -0.04074657 -0.01078678 0.01868409
v -0.04141001 -0.01106219 0.01812613
v -0.04436673 -0.01160380 0.01418614
v -0.04539072 -0.01136422 0.01315149
v -0.03885601 -0.01172359 0.00731012
v -0.04600287 -0.01092500 0.01240033
v -0.04545960 -0.01119120 0.01210420
v -0.04517426 -0.01099360 0.01133859
v -0.04445247 -0.01130484 0.01111649
v -0.04389093 -0.01074378 0.00967195
v -0.04322748 -0.01091067 0.00939929
v -0.04360418 -0.01161609 0.01089259
v -0.04141001 -0.01079088 0.01868589
v -0.04195118 -0.01077040 0.01864436
v -0.04233210 -0.01099974 0.01814419
v -0.04315298 -0.01093319 0.01782278
v -0.04345097 -0.01111748 0.01716732
v -0.04437868 -0.01097824 0.01604419
v -0.04439484 -0.01131508 0.01514135
v -0.03885601 -0.00918039 0.02146844
v -0.03894456 -0.00976090 0.02061797
v -0.04541743 -0.01105093 0.01411933
v -0.04593259 -0.01081238 0.01376903
v -0.04600709 -0.01092602 0.01315149
v -0.04282055 -0.01068235 0.00873480
v -0.04093492 -0.01076631 0.00766765
v -0.03885601 -0.01125263 0.00708983
v -0.04598530 -0.01025644 0.01231185
v -0.04584192 -0.01025644 0.01181529
v -0.04529655 -0.01033015 0.01106955
v -0.04487767 -0.01071000 0.01067591
v -0.04603590 -0.01025644 0.01315149
v -0.04400478 -0.01008034 0.00954736
v -0.04304615 -0.01001891 0.00855062
v -0.04261393 -0.01062604 0.01848727
v -0.03960801 -0.00972507 0.02057102
v -0.03885601 -0.00871250 0.02210765
v -0.04041414 -0.00965852 0.02048435
v -0.04141001 -0.00994519 0.01985958
v -0.04101082 -0.00781870 0.02267103
v -0.04207628 -0.00984998 0.01973680
v -0.04319937 -0.00996260 0.01884299
v -0.04386282 -0.00973531 0.01859922
v -0.04381643 -0.01069771 0.01752304
v -0.04211845 -0.00890293 0.02076965
v -0.04403501 -0.01086664 0.01685855
v -0.04505759 -0.01088712 0.01514135
v -0.03885601 -0.00891931 0.02182597
v -0.04593892 -0.01025644 0.01389543
v -0.04490016 -0.00976500 0.01763860
v -0.04499153 -0.00916503 0.01803224
v -0.04528319 -0.00926127 0.01713121
v -0.04553901 -0.00926127 0.01613628
v -0.04240519 -0.00926127 0.00811004
v -0.03885601 -0.00627578 0.00625200
v -0.03885601 -0.00714092 0.00637659
v -0.03885601 -0.01025644 0.00687857
v -0.03885601 -0.01104991 0.00701760
v -0.04590307 -0.00971381 0.01245269
v -0.04576040 -0.00933294 0.01213489
v -0.04531904 -0.00826509 0.01115983
v -0.04498871 -0.00747059 0.01044478
v -0.04506743 -0.00826509 0.01037255
v -0.04504845 -0.00926127 0.01047728
v -0.04496272 -0.01004655 0.01058382
v -0.04411864 -0.00926127 0.00941916
v -0.04591151 -0.00967695 0.01385751
v -0.04591642 -0.00966364 0.01315149
v -0.04365127 -0.00926127 0.00892079
v -0.04315368 -0.00926127 0.00849284
v -0.03885601 -0.00804701 0.02296354
v -0.03941896 -0.00760676 0.02339149
v -0.03941896 -0.00799172 0.02289493
v -0.03941896 -0.00848931 0.02225211
v -0.04043943 -0.00845040 0.02204084
v -0.04041414 -0.00789241 0.02276672
v -0.04041414 -0.00749005 0.02326509
v -0.04041414 -0.00699246 0.02387361
v -0.04103401 -0.00687472 0.02371651
v -0.04278120 -0.00868076 0.02052588
v -0.04323240 -0.00898996 0.01986319
v -0.04354796 -0.00936263 0.01923121
v -0.04439484 -0.00996977 0.01786612
v -0.04389585 -0.00875857 0.01961762
v -0.04214164 -0.00793541 0.02178985
v -0.04469916 -0.01059533 0.01631504
v -0.04490157 -0.01076119 0.01565235
v -0.04570488 -0.00926127 0.01514135
v -0.04489595 -0.00876881 0.01862811
v -0.04504424 -0.00835723 0.01814600
v -0.04532325 -0.00826509 0.01713121
v -0.04321904 -0.00826509 0.00851090
v -0.03885601 -0.00610480 0.00630075
v -0.04371664 -0.00727095 0.00875828
v -0.04309324 -0.00652969 0.00859215
v -0.04542446 -0.00826509 0.01215656
v -0.04502385 -0.00719211 0.01117608
v -0.04488189 -0.00680715 0.01085467
v -0.04576462 -0.00916606 0.01315149
v -0.04500418 -0.00643243 0.01514135
v -0.04521853 -0.00727095 0.01414642
v -0.04548068 -0.00826509 0.01315149
v -0.04482567 -0.00719211 0.01013420
v -0.04431894 -0.00727095 0.00925484
v -0.04473641 -0.00826509 0.00987419
v -0.04461623 -0.00926127 0.00997891
v -0.04423882 -0.00826509 0.00930179
v -0.04543430 -0.00826509 0.01613628
v -0.04524454 -0.00727095 0.01613628
v -0.04501542 -0.00634131 0.01613628
v -0.04371664 -0.00826509 0.00880342
v -0.03885601 -0.00765284 0.02346191
v -0.03941896 -0.00710918 0.02396389
v -0.04015199 -0.00599321 0.02469880
v -0.04045560 -0.00630547 0.02436475
v -0.04110500 -0.00627578 0.02387180
v -0.04199054 -0.00691670 0.02272700
v -0.04489595 -0.00874936 0.01862811
v -0.04498380 -0.00727095 0.01781375
v -0.04491773 -0.00666689 0.01767652
v -0.04514474 -0.00727095 0.01713121
v -0.03885601 -0.00541269 0.00652826
v -0.04419243 -0.00647645 0.00939568
v -0.04281142 -0.00586625 0.00877272
v -0.04473360 -0.00603109 0.01414642
v -0.04427677 -0.00619695 0.01022449
v -0.04485870 -0.00584373 0.01613628
v -0.04480247 -0.00593485 0.01514135
v -0.04497115 -0.00645598 0.01713121
v -0.04483972 -0.00595840 0.01713121
v -0.03885601 -0.00715423 0.02390069
v -0.03966213 -0.00599321 0.02469880
v -0.04015199 -0.00556217 0.02469880
v -0.04104807 -0.00561951 0.02384652
v -0.04199054 -0.00644983 0.02272700
v -0.04481723 -0.00808592 0.01848907
v -0.04396613 -0.00750233 0.01974041
v -0.04471603 -0.00727095 0.01831031
v -0.04409053 -0.00627578 0.01896397
v -0.04460990 -0.00631162 0.01805571
v -0.03885601 -0.00505231 0.00734082
v -0.04214867 -0.00570141 0.00855604
v -0.04379043 -0.00581301 0.00993197
v -0.04312697 -0.00571165 0.00943541
v -0.04391342 -0.00577001 0.01059646
v -0.04436111 -0.00548436 0.01613628
v -0.04430488 -0.00553555 0.01514135
v -0.04423601 -0.00558674 0.01414642
v -0.04415589 -0.00563794 0.01315149
v -0.04406733 -0.00568913 0.01215656
v -0.04397105 -0.00574032 0.01115983
v -0.04434213 -0.00543215 0.01713121
v -0.04398300 -0.00566967 0.01877618
v -0.04416221 -0.00550996 0.01812613
v -0.03885601 -0.00628909 0.02432141
v -0.03936554 -0.00630547 0.02446948
v -0.03966213 -0.00556217 0.02469880
v -0.03885601 -0.00575158 0.02435753
v -0.03885601 -0.00386773 0.02383208
v -0.03885601 -0.00365785 0.02369845
v -0.03900430 -0.00371518 0.02368221
v -0.04043241 -0.00525912 0.02415890
v -0.04190479 -0.00578639 0.02260241
v -0.04005008 -0.00466734 0.02380499
v -0.04075640 -0.00491818 0.02310258
v -0.04175720 -0.00491306 0.02134927
v -0.04260690 -0.00505640 0.02011780
v -0.04294425 -0.00572291 0.02068839
v -0.04388109 -0.00683889 0.01959054
v -0.04419525 -0.00721054 0.01920412
v -0.03885601 -0.00450763 0.00859938
v -0.03885601 -0.00425065 0.00965931
v -0.03885601 -0.00252242 0.02011780
v -0.04185208 -0.00480351 0.01186404
v -0.03977036 -0.00383702 0.01315149
v -0.04041414 -0.00422914 0.01215656
v -0.03885601 -0.00367013 0.01231546
v -0.04354937 -0.00493456 0.01713121
v -0.03919617 -0.00266883 0.02011780
v -0.04358380 -0.00501238 0.01812613
v -0.04308551 -0.00468168 0.01812613
v -0.04299063 -0.00471342 0.01877798
v -0.04280017 -0.00487109 0.01944247
v -0.03885601 -0.00526629 0.02435572
v -0.03885601 -0.00472877 0.02424919
v -0.03885601 -0.00352270 0.02355220
v -0.03918914 -0.00355444 0.02310258
v -0.04025881 -0.00448510 0.02310258
v -0.04090329 -0.00479020 0.02259157
v -0.04211001 -0.00460591 0.02011780
v -0.03985821 -0.00383804 0.02250490
v -0.03943091 -0.00327903 0.02212932
v -0.04004867 -0.00367218 0.02184041
v -0.03885601 -0.00336094 0.01414461
v -0.03885601 -0.00249477 0.02111273
v -0.03927277 -0.00365580 0.01315149
v -0.03885601 -0.00350632 0.01315149
v -0.04115138 -0.00365785 0.01912106
v -0.03969376 -0.00289816 0.02011780
v -0.04108461 -0.00367730 0.01993181
v -0.03915470 -0.00265961 0.02111273
v -0.04090259 -0.00379606 0.02059630
v -0.03900360 -0.00272207 0.02175374
v -0.03885601 -0.00330565 0.02314772
v -0.03885601 -0.00296267 0.02249587
v -0.03885601 -0.00265142 0.02184583
v -0.03965229 -0.00299952 0.02111273
v -0.03885601 -0.00291352 0.02239656
f 1 2 3
f 1 3 4
f 1 4 5
f 1 5 6
f 1 6 7
f 1 7 8
f 1 8 2
f 2 9 10
f 2 10 11
f 2 11 12
f 2 12 13
f 2 13 14
f 2 14 3
f 2 8 15
f 2 15 9
f 3 14 16
f 3 16 17
f 3 17 4
f 4 18 19
f 4 19 20
f 4 20 21
f 4 21 5
f 4 17 22
f 4 22 23
f 4 23 18
f 5 21 24
f 5 24 25
f 5 25 6
f 6 26 7
f 6 25 27
f 6 27 28
f 6 28 29
f 6 29 30
f 6 30 31
f 6 31 26
f 7 26 31
f 7 31 32
f 7 32 8
f 8 32 33
f 8 33 34
f 8 34 35
f 8 35 15
f 9 36 10
f 9 15 36
f 10 36 11
f 11 36 12
f 12 36 37
f 12 37 13
f 13 38 14
f 13 37 38
f 14 39 40
f 14 40 16
f 14 38 41
f 14 41 42
f 14 42 43
f 14 43 44
f 14 44 39
f 15 34 33
f 15 33 45
f 15 45 46
f 15 46 47
f 15 47 36
f 15 35 34
f 16 48 49
f 16 49 17
f 16 40 48
f 17 49 22
f 18 50 19
f 18 23 50
f 19 50 23
f 19 23 22
f 19 22 49
f 19 49 48
f 19 48 58
f 19 58 80
f 19 80 111
f 19 111 110
f 19 110 109
f 19 109 108
f 19 108 146
f 19 146 175
f 19 175 194
f 19 194 224
f 19 224 225
f 19 225 230
f 19 230 250
f 19 250 247
f 19 247 226
f 19 226 248
f 19 248 259
f 19 259 261
f 19 261 258
f 19 258 257
f 19 257 239
f 19 239 213
f 19 213 212
f 19 212 238
f 19 238 237
f 19 237 211
f 19 211 208
f 19 208 184
f 19 184 165
f 19 165 124
f 19 124 90
f 19 90 101
f 19 101 73
f 19 73 52
f 19 52 28
f 19 28 51
f 19 51 25
f 19 25 24
f 19 24 20
f 20 24 21
f 25 51 27
f 27 51 28
f 28 52 53
f 28 53 29
f 29 53 54
f 29 54 55
f 29 55 45
f 29 45 30
f 30 45 31
f 31 45 33
f 31 33 32
f 36 47 37
f 37 47 56
f 37 56 57
f 37 57 43
f 37 43 42
f 37 42 41
f 37 41 38
f 39 44 40
f 40 44 58
f 40 58 48
f 43 59 60
f 43 60 44
f 43 57 59
f 44 60 61
f 44 61 62
f 44 62 63
f 44 63 64
f 44 64 65
f 44 65 58
f 45 55 66
f 45 66 67
f 45 67 68
f 45 68 69
f 45 69 70
f 45 70 46
f 46 70 71
f 46 71 72
f 46 72 57
f 46 57 56
f 46 56 47
f 52 73 53
f 53 73 74
f 53 74 66
f 53 66 54
f 54 66 55
f 57 72 75
f 57 75 76
f 57 76 77
f 57 77 59
f 58 64 78
f 58 78 79
f 58 79 80
f 58 65 64
f 59 81 82
f 59 82 83
f 59 83 84
f 59 84 61
f 59 61 60
f 59 77 85
f 59 85 81
f 61 84 63
f 61 63 62
f 63 86 87
f 63 87 78
f 63 78 64
f 63 84 86
f 66 74 67
f 67 88 69
f 67 69 68
f 67 74 89
f 67 89 90
f 67 90 91
f 67 91 92
f 67 92 93
f 67 93 94
f 67 94 88
f 69 95 96
f 69 96 97
f 69 97 70
f 69 88 94
f 69 94 98
f 69 98 95
f 70 97 99
f 70 99 71
f 71 100 75
f 71 75 72
f 71 99 100
f 73 89 74
f 73 101 89
f 75 100 76
f 76 102 85
f 76 85 77
f 76 100 103
f 76 103 104
f 76 104 105
f 76 105 106
f 76 106 102
f 78 87 79
f 79 107 108
f 79 108 109
f 79 109 110
f 79 110 111
f 79 111 80
f 79 87 107
f 81 85 112
f 81 112 113
f 81 113 114
f 81 114 115
f 81 115 82
f 82 115 116
f 82 116 117
f 82 117 83
f 83 118 84
f 83 117 118
f 84 118 119
f 84 119 86
f 85 102 120
f 85 120 121
f 85 121 112
f 86 119 122
f 86 122 87
f 87 122 123
f 87 123 107
f 89 101 90
f 90 124 125
f 90 125 126
f 90 126 127
f 90 127 92
f 90 92 91
f 92 127 128
f 92 128 129
f 92 129 93
f 93 129 130
f 93 130 131
f 93 131 132
f 93 132 94
f 94 132 98
f 95 98 133
f 95 133 134
f 95 134 135
f 95 135 96
f 96 103 136
f 96 136 97
f 96 135 137
f 96 137 103
f 97 136 103
f 97 103 99
f 98 132 138
f 98 138 133
f 99 139 140
f 99 140 100
f 99 103 139
f 100 140 103
f 102 106 141
f 102 141 120
f 103 140 139
f 103 137 142
f 103 142 104
f 104 142 105
f 105 142 143
f 105 143 144
f 105 144 106
f 106 144 141
f 107 123 145
f 107 145 108
f 108 145 147
f 108 147 148
f 108 148 146
f 112 149 150
f 112 150 151
f 112 151 113
f 112 121 152
f 112 152 153
f 112 153 154
f 112 154 155
f 112 155 149
f 113 151 114
f 114 151 115
f 115 156 116
f 115 151 156
f 116 156 157
f 116 157 158
f 116 158 117
f 117 158 159
f 117 159 118
f 118 159 119
f 119 159 160
f 119 160 122
f 120 141 161
f 120 161 162
f 120 162 163
f 120 163 121
f 121 163 152
f 122 160 164
f 122 164 123
f 123 164 147
f 123 147 145
f 124 165 125
f 125 165 166
f 125 166 131
f 125 131 130
f 125 130 129
f 125 129 128
f 125 128 126
f 126 128 127
f 131 166 167
f 131 167 168
f 131 168 132
f 132 168 169
f 132 169 170
f 132 170 142
f 132 142 137
f 132 137 138
f 133 138 137
f 133 137 134
f 134 137 135
f 141 144 161
f 142 171 143
f 142 170 188
f 142 188 171
f 143 171 172
f 143 172 144
f 144 172 173
f 144 173 174
f 144 174 161
f 146 148 175
f 147 164 157
f 147 157 176
f 147 176 148
f 148 176 177
f 148 177 175
f 149 151 150
f 149 155 154
f 149 154 151
f 151 178 179
f 151 179 176
f 151 176 156
f 151 154 153
f 151 153 180
f 151 180 181
f 151 181 178
f 152 163 153
f 153 163 180
f 156 176 157
f 157 164 160
f 157 160 158
f 158 160 159
f 161 174 162
f 162 174 182
f 162 182 163
f 163 182 183
f 163 183 180
f 165 184 166
f 166 184 185
f 166 185 167
f 167 185 210
f 167 210 186
f 167 186 169
f 167 169 168
f 169 187 188
f 169 188 170
f 169 186 187
f 171 189 173
f 171 173 172
f 171 188 190
f 171 190 189
f 173 189 191
f 173 191 192
f 173 192 193
f 173 193 183
f 173 183 182
f 173 182 174
f 175 177 195
f 175 195 194
f 176 179 196
f 176 196 177
f 177 196 197
f 177 197 195
f 178 181 179
f 179 181 198
f 179 198 196
f 180 199 200
f 180 200 201
f 180 201 202
f 180 202 203
f 180 203 204
f 180 204 181
f 180 183 205
f 180 205 199
f 181 204 198
f 183 193 206
f 183 206 207
f 183 207 205
f 184 208 209
f 184 209 185
f 185 209 208
f 185 208 211
f 185 211 210
f 186 212 213
f 186 213 214
f 186 214 215
f 186 215 187
f 186 210 212
f 187 216 188
f 187 215 217
f 187 217 218
f 187 218 219
f 187 219 220
f 187 220 206
f 187 206 221
f 187 221 216
f 188 216 190
f 189 190 191
f 190 216 222
f 190 222 223
f 190 223 191
f 191 223 192
f 192 223 222
f 192 222 216
f 192 216 193
f 193 216 221
f 193 221 206
f 194 195 224
f 195 197 224
f 196 225 197
f 196 198 226
f 196 226 227
f 196 227 228
f 196 228 229
f 196 229 230
f 196 230 225
f 197 225 224
f 198 204 231
f 198 231 232
f 198 232 226
f 199 205 231
f 199 231 200
f 200 231 201
f 201 231 202
f 202 231 203
f 203 231 204
f 205 207 233
f 205 233 234
f 205 234 231
f 206 235 207
f 206 220 236
f 206 236 235
f 207 235 233
f 210 211 237
f 210 237 238
f 210 238 212
f 213 239 214
f 214 239 240
f 214 240 217
f 214 217 215
f 217 240 241
f 217 241 218
f 218 241 242
f 218 242 219
f 219 243 236
f 219 236 220
f 219 242 244
f 219 244 245
f 219 245 246
f 219 246 243
f 226 247 228
f 226 228 227
f 226 232 248
f 228 247 249
f 228 249 229
f 229 249 250
f 229 250 230
f 231 234 251
f 231 251 252
f 231 252 232
f 232 252 248
f 233 235 234
f 234 235 253
f 234 253 254
f 234 254 252
f 234 252 251
f 235 236 255
f 235 255 256
f 235 256 253
f 236 243 255
f 239 257 240
f 240 257 258
f 240 258 245
f 240 245 244
f 240 244 242
f 240 242 241
f 243 246 245
f 243 245 256
f 243 256 255
f 245 258 256
f 247 250 249
f 248 252 254
f 248 254 259
f 253 256 260
f 253 260 254
f 254 260 256
f 254 256 259
f 256 258 261
f 256 261 259

