# https://github.com/mikedh/trimesh
v 0.00233633 0.00259781 0.02338035
v 0.00233633 0.00367106 0.02334432
v 0.00007075 0.00045130 0.02277283
v 0.00007075 -0.00068463 0.02280395
v 0.00007075 -0.00230235 0.02274663
v 0.00007075 -0.00241594 0.02274008
v 0.00007075 -0.00319150 0.02267622
v 0.00233633 0.00163423 0.02330011
v 0.00233633 0.00449363 0.02323788
v 0.00007075 0.00073724 0.02273517
v 0.00007075 -0.00405716 0.02255177
v 0.00233633 -0.00030468 0.02302828
v 0.00233633 0.00069023 0.02317075
v 0.00233633 0.00463464 0.02321332
v 0.00233633 0.00566873 0.02303156
v 0.00233633 0.00665581 0.02285635
v 0.00007075 0.00267615 0.02238311
v 0.00007075 -0.00726909 0.02198519
v 0.00233633 -0.00034777 0.02301846
v 0.00233633 0.00765856 0.02267295
v 0.00007075 0.00823435 0.02121557
v 0.00007075 -0.00800156 0.02175267
v 0.00233633 -0.00126434 0.02277447
v 0.00233633 0.00865347 0.02243223
v 0.00007075 0.00862214 0.02110422
v 0.00007075 -0.00806032 0.02173302
v 0.00233633 -0.00129960 0.02275809
v 0.00094482 -0.00882413 0.02066864
v 0.00233633 0.00898642 0.02233234
v 0.00233633 0.00943687 0.02219643
v 0.00233633 0.00957788 0.02215386
v 0.00233633 0.01058063 0.02185092
v 0.00233633 0.01062372 0.02183782
v 0.00233633 0.01127002 0.02163641
v 0.00007075 0.00935069 0.02086842
v 0.00007075 -0.00854211 0.02145464
v 0.00233633 -0.00914141 0.01908354
v 0.00039700 -0.00904740 0.02087497
v 0.00212741 -0.00997573 0.01882481
v 0.00233633 -0.00982688 0.01873803
v 0.00233633 -0.00920016 0.01905406
v 0.00233633 0.01177531 0.02144809
v 0.00233633 0.01254304 0.02108620
v 0.00007075 0.01002833 0.02054747
v 0.00007075 -0.00916491 0.02099778
v 0.00103354 -0.00985822 0.01971398
v 0.00233633 -0.01095497 0.01781939
v 0.00233633 -0.01018724 0.01847602
v 0.00233633 0.01258613 0.02106492
v 0.00088161 0.01116426 0.02062607
v 0.00007075 0.01047879 0.02032804
v 0.00007075 -0.00967020 0.02053764
v 0.00007075 -0.01041051 0.01985808
v 0.00058153 -0.01052410 0.01940776
v 0.00138352 -0.01024992 0.01911629
v 0.00233633 -0.01099806 0.01778009
v 0.00233633 0.01333036 0.02067519
v 0.00007075 0.01137970 0.01983679
v 0.00233633 0.01363196 0.02051635
v 0.00233633 0.01453679 0.02003820
v 0.00220792 0.01562179 0.01935864
v 0.00160221 0.01562179 0.01886084
v 0.00092797 0.01507341 0.01859393
v 0.00007075 -0.01122525 0.01910646
v 0.00233633 -0.01145635 0.01735106
v 0.00007075 -0.01191855 0.01846456
v 0.00007075 -0.01225933 0.01814852
v 0.00007075 -0.01265103 0.01778500
v 0.00065561 -0.01256877 0.01746241
v 0.00007075 0.01190065 0.01955186
v 0.00233633 0.01562179 0.01946344
v 0.00233633 0.01571972 0.01941104
v 0.00180492 0.01624459 0.01869381
v 0.00110473 0.01562179 0.01843672
v 0.00080243 0.01630727 0.01774079
v 0.00007075 0.01203775 0.01947490
v 0.00007075 0.01197116 0.01951256
v 0.00233633 -0.01202039 0.01681232
v 0.00007075 -0.01278029 0.01766382
v 0.00007075 -0.01328558 0.01717912
v 0.00112802 -0.01291347 0.01679758
v 0.00233633 0.01646786 0.01898201
v 0.00233633 0.01665196 0.01886575
v 0.00206486 0.01691048 0.01847930
v 0.00140770 0.01660888 0.01810922
v 0.00101069 0.01696924 0.01742966
v 0.00007075 0.01615059 0.01667805
v 0.00007075 0.01576672 0.01699081
v 0.00011954 0.01567272 0.01714146
v 0.00007075 0.01539069 0.01726918
v 0.00007075 0.01380823 0.01839088
v 0.00007075 0.01328335 0.01872984
v 0.00113845 -0.01391622 0.01581017
v 0.00180182 -0.01367336 0.01557273
v 0.00233633 -0.01247477 0.01636365
v 0.00007075 -0.01369295 0.01678448
v 0.00233633 0.01703583 0.01859065
v 0.00167407 0.01726301 0.01781611
v 0.00144873 0.01754504 0.01703339
v 0.00083637 0.01716509 0.01676647
v 0.00007075 0.01656970 0.01613603
v 0.00007075 0.01562963 0.01709397
v 0.00007075 -0.01573762 0.01478509
v 0.00233633 -0.01301923 0.01582327
v 0.00007075 -0.01673645 0.01379768
v 0.00233633 0.01752153 0.01803062
v 0.00233633 0.01797199 0.01738381
v 0.00233633 0.01812475 0.01715620
v 0.00233633 0.01825009 0.01694660
v 0.00188699 0.01811300 0.01663875
v 0.00127573 0.01778397 0.01613603
v 0.00092508 0.01808558 0.01457549
v 0.00070019 0.01728651 0.01613603
v 0.00007075 0.01734919 0.01451327
v 0.00007075 0.01723167 0.01481621
v 0.00007075 0.01700449 0.01538278
v 0.00179472 -0.01466044 0.01454766
v 0.00233633 -0.01367336 0.01508967
v 0.00007075 -0.01680695 0.01372399
v 0.00233633 0.01863788 0.01623756
v 0.00233633 0.01867313 0.01614913
v 0.00233633 0.01898257 0.01534839
v 0.00233633 0.01945261 0.01412027
v 0.00198103 0.01902957 0.01444285
v 0.00154942 0.01839894 0.01514043
v 0.00136689 0.01940561 0.01208976
v 0.00086986 0.01912750 0.01171478
v 0.00007075 0.01863004 0.01115966
v 0.00007075 0.01808950 0.01257610
v 0.00007075 0.01787014 0.01315087
v 0.00106769 -0.01589821 0.01382715
v 0.00068799 -0.01656018 0.01343252
v 0.00098386 -0.01681087 0.01276933
v 0.00207196 -0.01491113 0.01388447
v 0.00233633 -0.01435492 0.01427583
v 0.00233633 -0.01390838 0.01481457
v 0.00007075 -0.01757468 0.01282664
v 0.00233633 0.02007149 0.01249423
v 0.00205533 0.01996182 0.01215526
v 0.00192536 0.02007149 0.01156740
v 0.00075076 0.01923326 0.01115966
v 0.00007075 0.01879064 0.01034746
v 0.00007075 -0.01772353 0.01262850
v 0.00066515 -0.01751985 0.01215526
v 0.00134626 -0.01697147 0.01206684
v 0.00233633 -0.01683829 0.01097626
v 0.00190451 -0.01674036 0.01167711
v 0.00233633 -0.01523233 0.01311812
v 0.00233633 -0.01447243 0.01412190
v 0.00233633 0.02019684 0.01215526
v 0.00143143 0.01978555 0.01120551
v 0.00233633 0.02027126 0.01195221
v 0.00178940 0.02016942 0.01090421
v 0.00015592 0.01890031 0.01016570
v 0.00007075 0.01882589 0.01016570
v 0.00007075 -0.01780579 0.01241726
v 0.00086010 -0.01770003 0.01160342
v 0.00233633 -0.01720649 0.01033763
v 0.00233633 -0.01656018 0.01135780
v 0.00233633 0.02044361 0.01131195
v 0.00175391 0.02019292 0.01016570
v 0.00125622 0.01980514 0.01016570
v 0.00233633 0.02047103 0.01120387
v 0.00233633 0.02056503 0.01016570
v 0.00074055 0.01922542 0.00957947
v 0.00180936 0.02015767 0.00961386
v 0.00007075 0.01848511 0.00935022
v 0.00007075 -0.01789196 0.01215526
v 0.00016745 -0.01784887 0.01215526
v 0.00106991 -0.01779795 0.01094024
v 0.00194310 -0.01774311 0.00975141
v 0.00233633 -0.01764911 0.00941572
v 0.00173329 -0.01762952 0.01041460
v 0.00233633 -0.01729266 0.01018698
v 0.00007075 -0.01792721 0.01203573
v 0.00047574 -0.01798205 0.01122680
v 0.00233633 0.02032610 0.00949596
v 0.00007075 0.01737661 0.00854293
v 0.00007075 0.01786623 0.00889336
v 0.00233633 -0.01778620 0.00898506
v 0.00007075 -0.01817007 0.01119896
v 0.00007075 -0.01831891 0.01067332
v 0.00233633 0.01456812 0.00665162
v 0.00007585 0.01416467 0.00665162
v 0.00007075 0.01415684 0.00665162
v 0.00139217 -0.01815440 0.00917010
v 0.00007075 -0.01872236 0.00924215
v 0.00007075 -0.01911798 0.00783553
v 0.00073080 -0.01915715 0.00665162
v 0.00180426 -0.01867928 0.00665162
v 0.00233633 -0.01791154 0.00853802
v 0.00233633 -0.01844034 0.00665162
v 0.00007075 -0.01945092 0.00665162
f 1 2 3
f 1 3 4
f 1 4 5
f 1 5 6
f 1 6 7
f 1 7 8
f 1 8 13
f 1 13 12
f 1 12 19
f 1 19 23
f 1 23 27
f 1 27 37
f 1 37 41
f 1 41 40
f 1 40 48
f 1 48 47
f 1 47 56
f 1 56 65
f 1 65 78
f 1 78 95
f 1 95 104
f 1 104 118
f 1 118 136
f 1 136 135
f 1 135 149
f 1 149 148
f 1 148 159
f 1 159 146
f 1 146 158
f 1 158 174
f 1 174 172
f 1 172 180
f 1 180 191
f 1 191 192
f 1 192 183
f 1 183 177
f 1 177 164
f 1 164 163
f 1 163 160
f 1 160 152
f 1 152 150
f 1 150 138
f 1 138 123
f 1 123 122
f 1 122 121
f 1 121 120
f 1 120 109
f 1 109 108
f 1 108 107
f 1 107 106
f 1 106 97
f 1 97 83
f 1 83 82
f 1 82 72
f 1 72 71
f 1 71 60
f 1 60 59
f 1 59 57
f 1 57 49
f 1 49 43
f 1 43 42
f 1 42 34
f 1 34 33
f 1 33 32
f 1 32 31
f 1 31 30
f 1 30 29
f 1 29 24
f 1 24 20
f 1 20 16
f 1 16 15
f 1 15 14
f 1 14 9
f 1 9 2
f 2 9 3
f 3 10 17
f 3 17 21
f 3 21 25
f 3 25 35
f 3 35 44
f 3 44 51
f 3 51 58
f 3 58 70
f 3 70 77
f 3 77 76
f 3 76 92
f 3 92 91
f 3 91 90
f 3 90 102
f 3 102 88
f 3 88 87
f 3 87 101
f 3 101 116
f 3 116 115
f 3 115 114
f 3 114 130
f 3 130 129
f 3 129 128
f 3 128 142
f 3 142 155
f 3 155 167
f 3 167 179
f 3 179 178
f 3 178 185
f 3 185 193
f 3 193 188
f 3 188 187
f 3 187 182
f 3 182 181
f 3 181 175
f 3 175 168
f 3 168 156
f 3 156 143
f 3 143 137
f 3 137 119
f 3 119 105
f 3 105 103
f 3 103 96
f 3 96 80
f 3 80 79
f 3 79 68
f 3 68 67
f 3 67 66
f 3 66 64
f 3 64 53
f 3 53 52
f 3 52 45
f 3 45 36
f 3 36 26
f 3 26 22
f 3 22 18
f 3 18 11
f 3 11 7
f 3 7 6
f 3 6 5
f 3 5 4
f 3 9 10
f 7 11 12
f 7 12 13
f 7 13 8
f 9 14 10
f 10 14 15
f 10 15 16
f 10 16 17
f 11 18 12
f 12 18 19
f 16 20 17
f 17 20 21
f 18 22 23
f 18 23 19
f 20 24 21
f 21 24 25
f 22 26 23
f 23 26 28
f 23 28 27
f 24 29 25
f 25 29 30
f 25 30 31
f 25 31 32
f 25 32 33
f 25 33 34
f 25 34 35
f 26 36 28
f 27 28 37
f 28 36 38
f 28 38 39
f 28 39 40
f 28 40 41
f 28 41 37
f 34 42 35
f 35 42 43
f 35 43 44
f 36 45 38
f 38 45 46
f 38 46 39
f 39 46 47
f 39 47 48
f 39 48 40
f 43 49 50
f 43 50 44
f 44 50 51
f 45 52 46
f 46 52 53
f 46 53 54
f 46 54 55
f 46 55 56
f 46 56 47
f 49 51 50
f 49 57 51
f 51 57 59
f 51 59 60
f 51 60 61
f 51 61 62
f 51 62 63
f 51 63 58
f 53 64 54
f 54 64 56
f 54 56 55
f 56 64 66
f 56 66 67
f 56 67 68
f 56 68 69
f 56 69 65
f 58 63 70
f 60 71 61
f 61 71 72
f 61 72 73
f 61 73 62
f 62 73 63
f 63 73 74
f 63 74 75
f 63 75 76
f 63 76 77
f 63 77 70
f 65 69 78
f 68 79 69
f 69 79 80
f 69 80 81
f 69 81 78
f 72 82 73
f 73 82 83
f 73 83 84
f 73 84 85
f 73 85 74
f 74 85 75
f 75 85 86
f 75 86 87
f 75 87 88
f 75 88 89
f 75 89 90
f 75 90 91
f 75 91 92
f 75 92 76
f 78 81 93
f 78 93 94
f 78 94 95
f 80 96 81
f 81 96 93
f 83 97 84
f 84 97 98
f 84 98 85
f 85 98 86
f 86 98 99
f 86 99 100
f 86 100 101
f 86 101 87
f 88 102 89
f 89 102 90
f 93 96 103
f 93 103 94
f 94 104 95
f 94 103 105
f 94 105 104
f 97 106 98
f 98 106 107
f 98 107 108
f 98 108 109
f 98 109 110
f 98 110 99
f 99 110 100
f 100 110 111
f 100 111 112
f 100 112 113
f 100 113 114
f 100 114 115
f 100 115 116
f 100 116 101
f 104 117 118
f 104 105 119
f 104 119 117
f 109 120 110
f 110 120 121
f 110 121 122
f 110 122 123
f 110 123 124
f 110 124 125
f 110 125 112
f 110 112 111
f 112 125 126
f 112 126 127
f 112 127 128
f 112 128 129
f 112 129 130
f 112 130 114
f 112 114 113
f 117 131 132
f 117 132 133
f 117 133 134
f 117 134 135
f 117 135 136
f 117 136 118
f 117 119 131
f 119 137 132
f 119 132 131
f 123 138 124
f 124 138 126
f 124 126 125
f 126 138 127
f 127 138 139
f 127 139 140
f 127 140 141
f 127 141 128
f 128 141 142
f 132 137 133
f 133 137 143
f 133 143 144
f 133 144 145
f 133 145 146
f 133 146 147
f 133 147 134
f 134 148 149
f 134 149 135
f 134 147 148
f 138 150 140
f 138 140 139
f 140 151 141
f 140 150 152
f 140 152 153
f 140 153 151
f 141 154 155
f 141 155 142
f 141 151 153
f 141 153 154
f 143 156 157
f 143 157 144
f 144 157 146
f 144 146 145
f 146 159 147
f 146 157 158
f 147 159 148
f 152 160 153
f 153 161 162
f 153 162 154
f 153 160 163
f 153 163 164
f 153 164 161
f 154 165 155
f 154 162 166
f 154 166 165
f 155 165 167
f 156 168 169
f 156 169 157
f 157 170 171
f 157 171 172
f 157 172 173
f 157 173 174
f 157 174 158
f 157 169 175
f 157 175 176
f 157 176 170
f 161 166 162
f 161 164 166
f 164 177 166
f 165 166 167
f 166 177 178
f 166 178 179
f 166 179 167
f 168 175 169
f 170 180 171
f 170 176 180
f 171 180 172
f 172 174 173
f 175 181 176
f 176 181 182
f 176 182 180
f 177 183 184
f 177 184 178
f 178 184 185
f 180 182 186
f 180 186 187
f 180 187 188
f 180 188 189
f 180 189 190
f 180 190 191
f 182 187 186
f 183 192 190
f 183 190 189
f 183 189 193
f 183 193 185
f 183 185 184
f 188 193 189
f 190 192 191

