# https://github.com/mikedh/trimesh
v -0.00669893 -0.00531879 0.02695003
v -0.00669893 -0.00626579 0.02693246
v -0.00600165 -0.00591214 0.02663954
v -0.00600165 -0.00568816 0.02663954
v -0.00296194 0.00367182 0.02291360
v -0.00296194 0.00447736 0.02270270
v -0.00458002 0.00566799 0.02299562
v -0.00557509 0.00666215 0.02309814
v -0.00669893 0.00677217 0.02349065
v -0.00669893 -0.00682377 0.02663075
v -0.00491220 -0.00691022 0.02567583
v -0.00302157 -0.00686307 0.02464182
v -0.00302157 -0.00668624 0.02464182
v -0.00296194 0.00268160 0.02310986
v -0.00296194 0.00528290 0.02246543
v -0.00384067 0.00566799 0.02270270
v -0.00366178 0.00659535 0.02235705
v -0.00296194 0.00749126 0.02181222
v -0.00296194 0.00765630 0.02176243
v -0.00495464 0.00732230 0.02265290
v -0.00528279 0.00798638 0.02253573
v -0.00669893 0.00751877 0.02318894
v -0.00669893 -0.00711455 0.02646379
v -0.00458039 -0.00725209 0.02529504
v -0.00333399 -0.00752715 0.02446607
v -0.00363361 -0.00722458 0.02479707
v -0.00656101 -0.00725994 0.02630561
v -0.00669893 -0.00732282 0.02633783
v -0.00531023 -0.00757430 0.02547372
v -0.00296194 -0.00692201 0.02457445
v -0.00296194 -0.00662730 0.02457152
v -0.00296194 0.00615525 0.02220766
v -0.00296194 0.00798638 0.02165990
v -0.00358459 0.00765630 0.02200848
v -0.00304133 0.00818678 0.02162768
v -0.00460600 0.00765630 0.02240392
v -0.00594641 0.00818678 0.02264118
v -0.00669893 0.00765630 0.02310693
v -0.00399762 -0.00782972 0.02463889
v -0.00296194 -0.00736211 0.02433133
v -0.00296194 -0.00808906 0.02389488
v -0.00669893 -0.00738962 0.02629682
v -0.00665137 -0.00821480 0.02576371
v -0.00669893 -0.00825410 0.02576371
v -0.00296194 0.00830466 0.02148415
v -0.00358459 0.00830073 0.02173606
v -0.00657052 0.00822607 0.02269977
v -0.00669893 0.00814355 0.02278765
v -0.00307828 0.00915343 0.02061418
v -0.00296194 0.01541699 0.01218688
v -0.00669893 -0.00864312 0.02551473
v -0.00296194 -0.00841914 0.02363125
v -0.00511341 -0.00873742 0.02457445
v -0.00296194 0.00855615 0.02124103
v -0.00669893 0.00823000 0.02271148
v -0.00296194 0.00898446 0.02076064
v -0.00296194 0.00921630 0.02049115
v -0.00296194 0.01547986 0.01206093
v -0.00669893 0.01265851 0.01522739
v -0.00669893 0.01225770 0.01594504
v -0.00669893 -0.00915395 0.02510757
v -0.00296194 -0.00861168 0.02347015
v -0.00319644 -0.00869027 0.02353752
v -0.00386006 -0.00891032 0.02372499
v -0.00669893 -0.00924039 0.02503727
v -0.00669893 -0.00976301 0.02460082
v -0.00296194 0.01592782 0.01115873
v -0.00669893 0.01299251 0.01454488
v -0.00310608 -0.00974337 0.02259432
v -0.00296194 -0.00955475 0.02267048
v -0.00502305 -0.00979445 0.02363125
v -0.00484233 -0.01190457 0.02174192
v -0.00618640 -0.01067858 0.02353752
v -0.00669893 -0.01423081 0.02081629
v -0.00657052 -0.01297731 0.02180636
v -0.00296194 0.01608500 0.01016574
v -0.00669893 0.01529518 0.00816802
v -0.00669893 0.01516944 0.00883588
v -0.00669893 0.01499654 0.00934263
v -0.00669893 0.01464682 0.01028583
v -0.00669893 0.01352299 0.01327068
v -0.00669893 0.01323221 0.01397955
v -0.00417907 -0.01168452 0.02155152
v -0.00305084 -0.01078074 0.02163354
v -0.00296194 -0.01065107 0.02169212
v -0.00600568 -0.01278870 0.02164819
v -0.00534205 -0.01256865 0.02146072
v -0.00669893 -0.01465913 0.02045015
v -0.00669893 0.01539735 0.00718088
v -0.00296194 0.01598676 0.00916981
v -0.00669893 0.01536984 0.00618496
v -0.00358459 -0.01147233 0.02135527
v -0.00669893 -0.01533106 0.01987016
v -0.00669893 -0.01567686 0.01956846
v -0.00587142 -0.01488310 0.01975300
v -0.00583410 -0.01590476 0.01878636
v -0.00296194 -0.01247041 0.02001369
v -0.00296194 0.01588460 0.00817388
v -0.00669893 0.01436782 -0.00297464
v -0.00669893 -0.01629378 0.01900605
v -0.00664150 -0.01617590 0.01907635
v -0.00633163 -0.01554718 0.01944836
v -0.00669893 -0.01671424 0.01861647
v -0.00517084 -0.01566114 0.01855788
v -0.00296194 -0.01436049 0.01825911
v -0.00405542 -0.01475343 0.01864283
v -0.00296194 -0.01388109 0.01870727
v -0.00296194 -0.01333097 0.01921695
v -0.00296194 0.01559382 0.00718088
v -0.00667040 0.01435604 -0.00297464
v -0.00669893 -0.02343755 -0.00297464
v -0.00402359 -0.01676925 0.01667441
v -0.00515548 -0.01666708 0.01757368
v -0.00628773 -0.01656491 0.01847294
v -0.00669893 -0.01700108 0.01829426
v -0.00581910 -0.01689892 0.01780801
v -0.00296194 -0.01487917 0.01776700
v -0.00296194 0.01251705 -0.00297464
v -0.00659613 -0.02339039 -0.00297464
v -0.00657052 -0.02341790 -0.00277545
v -0.00594934 -0.02374798 0.00046131
v -0.00669893 -0.02344541 -0.00293070
v -0.00296194 -0.01688320 0.01580737
v -0.00296194 -0.01638809 0.01629654
v -0.00296194 -0.01555504 0.01711086
v -0.00458002 -0.01596371 0.01785488
v -0.00296194 -0.01493419 0.01771428
v -0.00669893 -0.01712683 0.01813608
v -0.00657052 -0.01760229 0.01745651
v -0.00524730 -0.01764552 0.01651916
v -0.00408505 -0.01772018 0.01563455
v -0.00358459 -0.01757872 0.01546172
v -0.00296194 -0.01737439 0.01526254
v -0.00296194 -0.02152390 -0.00297464
v -0.00657052 -0.02337861 -0.00297464
v -0.00557509 -0.02334324 -0.00078360
v -0.00594934 -0.02374798 0.00093291
v -0.00669893 -0.02405840 0.00123462
v -0.00669893 -0.02399946 0.00018303
v -0.00560033 -0.02352793 0.00016253
v -0.00406310 -0.02270667 -0.00032957
v -0.00458002 -0.02303281 0.00021233
v -0.00669893 -0.01762980 0.01750044
v -0.00296194 -0.01813277 0.01414066
v -0.00296194 -0.01781056 0.01471185
v -0.00296194 -0.01778698 0.01475286
v -0.00591093 -0.01777912 0.01673885
v -0.00669893 -0.01792844 0.01699662
v -0.00669893 -0.01799131 0.01688531
v -0.00474831 -0.01784199 0.01585717
v -0.00296194 -0.01858073 0.01333806
v -0.00296194 -0.02165750 -0.00243274
v -0.00577045 -0.02298566 -0.00297464
v -0.00557509 -0.02314677 -0.00177953
v -0.00403054 -0.02273024 0.00101493
v -0.00448417 -0.02294243 0.00129027
v -0.00408834 -0.02269488 0.00167692
v -0.00669893 -0.02388944 0.00186439
v -0.00296194 -0.02184611 0.00292769
v -0.00296194 -0.02181468 0.00304779
v -0.00296194 -0.02181468 -0.00177953
v -0.00296194 -0.02199543 -0.00076895
v -0.00296194 -0.02208188 0.00021233
v -0.00402908 -0.02273024 0.00021233
v -0.00669893 -0.01896189 0.01513658
v -0.00514926 -0.01869075 0.01459468
v -0.00669893 -0.02073408 0.01194083
v -0.00296194 -0.01883222 0.01288403
v -0.00296194 -0.02211725 0.00123169
v -0.00365300 -0.02249841 0.00129027
v -0.00296194 -0.02205438 0.00196399
v -0.00296194 -0.02201901 0.00220125
v -0.00669893 -0.02382263 0.00210752
v -0.00296194 -0.01964169 0.01079844
v -0.00296194 -0.02211725 0.00086847
v -0.00669893 -0.02079695 0.01182366
v -0.00611543 -0.02069085 0.01162155
v -0.00296194 -0.01892652 0.01270242
v -0.00296194 -0.01956310 0.01107672
v -0.00327729 -0.01962597 0.01135499
v -0.00669893 -0.02149246 0.01017452
v -0.00669893 -0.02109559 0.01122318
v -0.00394091 -0.01977529 0.01178265
v -0.00296194 -0.01917015 0.01218102
v -0.00296194 -0.01952380 0.01120853
v -0.00296194 -0.01935484 0.01171821
v -0.00669893 -0.02118596 0.01101520
f 1 2 3
f 1 3 4
f 1 4 5
f 1 5 6
f 1 6 7
f 1 7 8
f 1 8 9
f 1 9 22
f 1 22 38
f 1 38 48
f 1 48 55
f 1 55 60
f 1 60 59
f 1 59 68
f 1 68 82
f 1 82 81
f 1 81 80
f 1 80 79
f 1 79 78
f 1 78 77
f 1 77 89
f 1 89 91
f 1 91 99
f 1 99 111
f 1 111 122
f 1 122 139
f 1 139 138
f 1 138 158
f 1 158 173
f 1 173 181
f 1 181 187
f 1 187 182
f 1 182 176
f 1 176 167
f 1 167 165
f 1 165 149
f 1 149 148
f 1 148 143
f 1 143 128
f 1 128 115
f 1 115 103
f 1 103 100
f 1 100 94
f 1 94 93
f 1 93 88
f 1 88 74
f 1 74 66
f 1 66 65
f 1 65 61
f 1 61 51
f 1 51 44
f 1 44 42
f 1 42 28
f 1 28 23
f 1 23 10
f 1 10 2
f 2 10 11
f 2 11 12
f 2 12 3
f 3 12 13
f 3 13 4
f 4 13 14
f 4 14 5
f 5 14 31
f 5 31 30
f 5 30 40
f 5 40 41
f 5 41 52
f 5 52 62
f 5 62 70
f 5 70 85
f 5 85 97
f 5 97 108
f 5 108 107
f 5 107 105
f 5 105 117
f 5 117 127
f 5 127 125
f 5 125 124
f 5 124 123
f 5 123 133
f 5 133 146
f 5 146 145
f 5 145 144
f 5 144 151
f 5 151 168
f 5 168 178
f 5 178 184
f 5 184 186
f 5 186 185
f 5 185 179
f 5 179 174
f 5 174 160
f 5 160 159
f 5 159 172
f 5 172 171
f 5 171 169
f 5 169 175
f 5 175 163
f 5 163 162
f 5 162 161
f 5 161 152
f 5 152 134
f 5 134 118
f 5 118 109
f 5 109 98
f 5 98 90
f 5 90 76
f 5 76 67
f 5 67 58
f 5 58 50
f 5 50 57
f 5 57 56
f 5 56 54
f 5 54 45
f 5 45 33
f 5 33 19
f 5 19 18
f 5 18 32
f 5 32 15
f 5 15 6
f 6 15 16
f 6 16 7
f 7 16 8
f 8 17 18
f 8 18 19
f 8 19 20
f 8 20 9
f 8 16 17
f 9 20 21
f 9 21 22
f 10 23 11
f 11 24 25
f 11 25 26
f 11 26 12
f 11 23 27
f 11 27 28
f 11 28 29
f 11 29 24
f 12 26 25
f 12 25 30
f 12 30 13
f 13 31 14
f 13 30 31
f 15 32 16
f 16 32 17
f 17 32 18
f 19 33 34
f 19 34 20
f 20 34 33
f 20 33 35
f 20 35 36
f 20 36 21
f 21 36 35
f 21 35 37
f 21 37 22
f 22 37 38
f 23 28 27
f 24 29 39
f 24 39 25
f 25 40 30
f 25 39 41
f 25 41 40
f 28 42 29
f 29 43 44
f 29 44 39
f 29 42 43
f 33 45 35
f 35 46 37
f 35 45 46
f 37 47 48
f 37 48 38
f 37 46 49
f 37 49 50
f 37 50 47
f 39 44 51
f 39 51 41
f 41 51 53
f 41 53 52
f 42 44 43
f 45 54 46
f 46 54 49
f 47 55 48
f 47 50 55
f 49 54 56
f 49 56 57
f 49 57 50
f 50 58 59
f 50 59 60
f 50 60 55
f 51 61 53
f 52 53 63
f 52 63 62
f 53 64 63
f 53 61 65
f 53 65 66
f 53 66 64
f 58 67 59
f 59 67 68
f 62 63 69
f 62 69 70
f 63 64 71
f 63 71 72
f 63 72 69
f 64 66 71
f 66 73 71
f 66 74 75
f 66 75 73
f 67 76 77
f 67 77 78
f 67 78 79
f 67 79 80
f 67 80 81
f 67 81 82
f 67 82 68
f 69 83 70
f 69 72 83
f 70 83 84
f 70 84 85
f 71 73 86
f 71 86 72
f 72 86 87
f 72 87 83
f 73 75 86
f 74 88 83
f 74 83 87
f 74 87 86
f 74 86 75
f 76 89 77
f 76 90 91
f 76 91 89
f 83 92 84
f 83 88 93
f 83 93 94
f 83 94 95
f 83 95 92
f 84 92 95
f 84 95 96
f 84 96 97
f 84 97 85
f 90 98 91
f 91 98 99
f 94 100 101
f 94 101 102
f 94 102 95
f 95 102 101
f 95 101 96
f 96 101 100
f 96 100 103
f 96 103 104
f 96 104 105
f 96 105 106
f 96 106 107
f 96 107 108
f 96 108 97
f 98 109 110
f 98 110 99
f 99 110 118
f 99 118 134
f 99 134 153
f 99 153 135
f 99 135 119
f 99 119 111
f 103 112 113
f 103 113 114
f 103 114 104
f 103 115 116
f 103 116 112
f 104 114 117
f 104 117 105
f 105 107 106
f 109 118 110
f 111 119 120
f 111 120 121
f 111 121 122
f 112 116 123
f 112 123 124
f 112 124 125
f 112 125 126
f 112 126 113
f 113 126 114
f 114 126 127
f 114 127 117
f 115 128 129
f 115 129 130
f 115 130 131
f 115 131 132
f 115 132 116
f 116 132 133
f 116 133 123
f 119 135 120
f 120 135 154
f 120 154 136
f 120 136 121
f 121 137 138
f 121 138 139
f 121 139 122
f 121 136 140
f 121 140 141
f 121 141 142
f 121 142 137
f 125 127 126
f 128 143 129
f 129 143 130
f 130 143 131
f 131 144 145
f 131 145 146
f 131 146 132
f 131 143 147
f 131 147 148
f 131 148 149
f 131 149 150
f 131 150 151
f 131 151 144
f 132 146 133
f 134 152 153
f 135 153 154
f 136 154 141
f 136 141 140
f 137 142 155
f 137 155 156
f 137 156 157
f 137 157 138
f 138 157 159
f 138 159 160
f 138 160 158
f 141 161 162
f 141 162 163
f 141 163 164
f 141 164 142
f 141 154 153
f 141 153 161
f 142 164 155
f 143 148 147
f 149 165 166
f 149 166 150
f 150 166 151
f 151 166 167
f 151 167 168
f 152 161 153
f 155 164 169
f 155 169 170
f 155 170 157
f 155 157 156
f 157 170 171
f 157 171 172
f 157 172 159
f 158 160 173
f 160 174 173
f 163 175 164
f 164 175 169
f 165 167 166
f 167 176 177
f 167 177 168
f 168 177 178
f 169 171 170
f 173 174 179
f 173 179 180
f 173 180 181
f 176 182 177
f 177 182 183
f 177 183 178
f 178 183 184
f 179 185 180
f 180 185 186
f 180 186 183
f 180 183 181
f 181 183 187
f 182 187 183
f 183 186 184

