# https://github.com/mikedh/trimesh
v 0.02428532 0.01565350 -0.02553202
v 0.02428532 0.01623486 -0.02525909
v 0.02492084 0.01621794 -0.02524762
v 0.02520745 0.01565350 -0.02530954
v 0.02321989 0.01565350 -0.02547698
v 0.02321678 0.01571831 -0.02544716
v 0.02283360 0.01565350 -0.02545175
v 0.02229777 0.01565350 -0.02539899
v 0.02349715 0.01617612 -0.02521322
v 0.02329155 0.01778196 -0.02391507
v 0.02329155 0.01839875 -0.02341737
v 0.02329155 0.01889647 -0.02299535
v 0.02428532 0.01832309 -0.02336920
v 0.02428532 0.01882081 -0.02288297
v 0.02496446 0.01719964 -0.02426139
v 0.02562801 0.01703203 -0.02410314
v 0.02683051 0.01716899 -0.02322471
v 0.02604234 0.01636863 -0.02437607
v 0.02558440 0.01581536 -0.02503890
v 0.02539748 0.01565350 -0.02520634
v 0.02329155 0.01891498 -0.02297930
v 0.02130088 0.01565350 -0.02527743
v 0.02102362 0.01707609 -0.02414442
v 0.02321678 0.01655220 -0.02487607
v 0.02283360 0.01611322 -0.02516505
v 0.01134754 0.01681143 -0.02294260
v 0.01333821 0.01699819 -0.02308710
v 0.02229777 0.01881729 -0.02295178
v 0.02229777 0.01891498 -0.02287379
v 0.02168718 0.01713707 -0.02419258
v 0.02326039 0.01891498 -0.02297700
v 0.02413891 0.01891498 -0.02282563
v 0.02428532 0.01891498 -0.02278664
v 0.02493019 0.01817975 -0.02325223
v 0.02617319 0.01891498 -0.02188528
v 0.02627599 0.01834608 -0.02243114
v 0.02749718 0.01891498 -0.02123391
v 0.02691151 0.01819188 -0.02226830
v 0.02899563 0.01891498 -0.02033025
v 0.02757506 0.01795276 -0.02207105
v 0.04018262 0.01891498 -0.01285098
v 0.04018262 0.01764053 -0.01370189
v 0.04018262 0.01697361 -0.01412620
v 0.02563424 0.01565350 -0.02507331
v 0.04018262 0.01646280 -0.01442436
v 0.02030710 0.01565350 -0.02513753
v 0.01632577 0.01727339 -0.02330498
v 0.01931021 0.01891498 -0.02244031
v 0.02229777 0.01606087 -0.02512606
v 0.00969021 0.01615441 -0.02320636
v 0.01134754 0.01631371 -0.02332792
v 0.01731955 0.01623486 -0.02426369
v 0.01831644 0.01632840 -0.02433708
v 0.01035377 0.01671629 -0.02286691
v 0.01295814 0.01809036 -0.02216738
v 0.01234443 0.01753613 -0.02251600
v 0.01234443 0.01640758 -0.02340131
v 0.01331017 0.01770055 -0.02252747
v 0.02095197 0.01891498 -0.02267884
v 0.02480869 0.01891498 -0.02253894
v 0.02504857 0.01891498 -0.02242426
v 0.02566228 0.01891498 -0.02213068
v 0.02627599 0.01891498 -0.02183482
v 0.02764983 0.01891498 -0.02114446
v 0.02831027 0.01891498 -0.02074538
v 0.04018262 0.01891498 -0.00210112
v 0.04018262 0.01565350 -0.01455280
v 0.01931021 0.01565350 -0.02499303
v 0.01532888 0.01880580 -0.02194720
v 0.01819182 0.01891498 -0.02227747
v 0.01731955 0.01565350 -0.02470175
v 0.01628527 0.01571129 -0.02450680
v 0.01031327 0.01565350 -0.02367424
v 0.01234443 0.01575087 -0.02389901
v 0.00902666 0.01607204 -0.02315590
v 0.01035377 0.01731138 -0.02236921
v 0.01134754 0.01743110 -0.02244490
v 0.01234443 0.01803385 -0.02210775
v 0.01532888 0.01891498 -0.02185775
v 0.04018262 0.01565350 -0.00210112
v 0.01723543 0.01891498 -0.00210112
v 0.01629150 0.01891498 -0.02199995
v 0.00941918 0.01565350 -0.02348847
v 0.00890828 0.01709972 -0.02215821
v 0.00957183 0.01720667 -0.02227977
v 0.00935376 0.01565350 -0.02346782
v 0.00925407 0.01565350 -0.02342883
v 0.00835687 0.01565350 -0.02304352
v 0.00835687 0.01571735 -0.02300682
v 0.00835687 0.01643790 -0.02249077
v 0.01348463 0.01891498 -0.02146785
v 0.01433510 0.01891498 -0.02167427
v 0.00835687 0.01565350 -0.00210112
v 0.01400488 0.01891498 -0.00210571
v 0.01400488 0.01891435 -0.00210112
v 0.00835687 0.01698319 -0.02182106
v 0.00835687 0.01706939 -0.02168574
v 0.00854690 0.01730372 -0.02149308
v 0.00879612 0.01814974 -0.02026374
v 0.00951264 0.01891498 -0.01952292
v 0.01034754 0.01891498 -0.02002979
v 0.00995190 0.01808110 -0.02114217
v 0.01196437 0.01891498 -0.02084401
v 0.01234443 0.01891498 -0.02102290
v 0.01308276 0.01891498 -0.02131418
v 0.00835687 0.01735831 -0.00210112
v 0.00835998 0.01891498 -0.01136247
v 0.00835687 0.01759775 -0.02078208
v 0.00835687 0.01764628 -0.02069722
v 0.00883662 0.01891498 -0.01888072
v 0.00918554 0.01891498 -0.01922476
v 0.00938491 0.01891498 -0.01940824
v 0.00835687 0.01776631 -0.02047704
v 0.00842229 0.01827552 -0.01961466
v 0.00852198 0.01891498 -0.01855045
v 0.00835687 0.01891498 -0.01483032
v 0.00835687 0.01820178 -0.01967659
v 0.00835687 0.01874546 -0.01867660
v 0.00835687 0.01891498 -0.01836468
f 1 2 3
f 1 3 4
f 1 4 20
f 1 20 44
f 1 44 67
f 1 67 80
f 1 80 93
f 1 93 88
f 1 88 87
f 1 87 86
f 1 86 83
f 1 83 73
f 1 73 71
f 1 71 68
f 1 68 46
f 1 46 22
f 1 22 8
f 1 8 7
f 1 7 5
f 1 5 6
f 1 6 2
f 2 6 7
f 2 7 8
f 2 8 9
f 2 9 10
f 2 10 11
f 2 11 12
f 2 12 3
f 3 13 14
f 3 14 15
f 3 15 16
f 3 16 17
f 3 17 18
f 3 18 19
f 3 19 20
f 3 20 4
f 3 12 21
f 3 21 13
f 5 7 6
f 8 22 9
f 9 23 24
f 9 24 10
f 9 22 25
f 9 25 26
f 9 26 27
f 9 27 23
f 10 28 29
f 10 29 11
f 10 24 30
f 10 30 28
f 11 29 31
f 11 31 12
f 12 31 21
f 13 21 32
f 13 32 14
f 14 32 33
f 14 33 15
f 15 33 34
f 15 34 35
f 15 35 36
f 15 36 16
f 16 36 37
f 16 37 38
f 16 38 39
f 16 39 40
f 16 40 17
f 17 40 39
f 17 39 41
f 17 41 18
f 18 41 42
f 18 42 43
f 18 43 19
f 19 44 20
f 19 43 45
f 19 45 44
f 21 31 29
f 21 29 59
f 21 59 48
f 21 48 70
f 21 70 82
f 21 82 79
f 21 79 92
f 21 92 91
f 21 91 105
f 21 105 104
f 21 104 103
f 21 103 101
f 21 101 100
f 21 100 112
f 21 112 111
f 21 111 110
f 21 110 115
f 21 115 119
f 21 119 116
f 21 116 107
f 21 107 94
f 21 94 81
f 21 81 66
f 21 66 41
f 21 41 39
f 21 39 65
f 21 65 64
f 21 64 37
f 21 37 63
f 21 63 35
f 21 35 62
f 21 62 61
f 21 61 60
f 21 60 33
f 21 33 32
f 22 46 25
f 23 28 30
f 23 30 24
f 23 27 47
f 23 47 48
f 23 48 28
f 25 46 49
f 25 49 50
f 25 50 51
f 25 51 52
f 25 52 53
f 25 53 26
f 26 54 55
f 26 55 56
f 26 56 27
f 26 53 52
f 26 52 57
f 26 57 51
f 26 51 50
f 26 50 54
f 27 56 58
f 27 58 47
f 28 48 59
f 28 59 29
f 33 60 34
f 34 60 61
f 34 61 62
f 34 62 35
f 35 63 36
f 36 63 37
f 37 64 38
f 38 64 65
f 38 65 39
f 41 66 80
f 41 80 67
f 41 67 45
f 41 45 43
f 41 43 42
f 44 45 67
f 46 68 49
f 47 58 69
f 47 69 48
f 48 69 70
f 49 68 71
f 49 71 72
f 49 72 73
f 49 73 74
f 49 74 50
f 50 74 73
f 50 73 75
f 50 75 54
f 51 57 52
f 54 76 77
f 54 77 55
f 54 75 76
f 55 77 78
f 55 78 79
f 55 79 69
f 55 69 58
f 55 58 56
f 66 81 95
f 66 95 106
f 66 106 93
f 66 93 80
f 69 79 82
f 69 82 70
f 71 73 72
f 73 83 75
f 75 84 85
f 75 85 76
f 75 83 86
f 75 86 87
f 75 87 88
f 75 88 89
f 75 89 90
f 75 90 84
f 76 91 78
f 76 78 77
f 76 85 91
f 78 91 92
f 78 92 79
f 81 94 95
f 84 90 96
f 84 96 97
f 84 97 98
f 84 98 99
f 84 99 100
f 84 100 101
f 84 101 102
f 84 102 103
f 84 103 104
f 84 104 85
f 85 104 105
f 85 105 91
f 88 93 106
f 88 106 116
f 88 116 119
f 88 119 118
f 88 118 117
f 88 117 113
f 88 113 109
f 88 109 108
f 88 108 97
f 88 97 96
f 88 96 90
f 88 90 89
f 94 107 95
f 95 107 106
f 97 108 98
f 98 108 109
f 98 109 99
f 99 110 111
f 99 111 112
f 99 112 100
f 99 109 113
f 99 113 114
f 99 114 115
f 99 115 110
f 101 103 102
f 106 107 116
f 113 117 114
f 114 117 118
f 114 118 115
f 115 118 119

