# https://github.com/mikedh/trimesh
v -0.01048722 0.00113175 -0.02473688
v -0.01055395 0.00021864 -0.03017701
v -0.01154888 0.00024255 -0.03017701
v -0.01196343 0.00023792 -0.03017701
v -0.01254380 0.00023021 -0.03017701
v -0.01309385 0.00020476 -0.03017701
v -0.01154888 0.00096054 -0.02473688
v -0.00856005 0.00033509 -0.02473688
v -0.00856005 0.00003124 -0.02965244
v -0.00856208 0.00003201 -0.02965084
v -0.01000796 0.00020013 -0.03016530
v -0.01010098 0.00020322 -0.03017701
v -0.01811701 -0.00078162 -0.03017701
v -0.01245685 0.00055180 -0.02473688
v -0.02301885 -0.00179113 -0.03017701
v -0.02301885 -0.00179113 -0.03008275
v -0.02288336 -0.00183586 -0.02941918
v -0.00856005 -0.00419344 -0.02473688
v -0.00856005 -0.00007982 -0.03017701
v -0.00999785 0.00019473 -0.03017701
v -0.01301296 0.00019550 -0.02473688
v -0.02447686 -0.00249678 -0.02962368
v -0.02480244 -0.00291092 -0.02927379
v -0.02495006 -0.00256850 -0.03017701
v -0.02518463 -0.00266645 -0.02993736
v -0.02340711 -0.00199781 -0.02971102
v -0.00856005 -0.00388804 -0.03017595
v -0.01121926 -0.00674614 -0.02473688
v -0.00856005 -0.00387724 -0.03017701
v -0.01365804 -0.00022095 -0.02473688
v -0.02551223 -0.00323945 -0.02960717
v -0.02517452 -0.00357493 -0.02900804
v -0.01542748 -0.00137545 -0.02473688
v -0.02516846 -0.00267724 -0.03017701
v -0.02533630 -0.00277904 -0.03017701
v -0.02651929 -0.00371298 -0.03017701
v -0.02621798 -0.00356722 -0.02994056
v -0.00856208 -0.00388804 -0.03017701
v -0.01142755 -0.00674614 -0.02518903
v -0.01187850 -0.00674614 -0.02601770
v -0.01200792 -0.00674614 -0.02622859
v -0.01206252 -0.00674614 -0.02631273
v -0.01233147 -0.00674614 -0.02671695
v -0.01286332 -0.00674614 -0.02750621
v -0.01472981 -0.00674614 -0.03017701
v -0.01930607 -0.00674614 -0.02473688
v -0.02583781 -0.00394511 -0.02927698
v -0.02605014 -0.00569806 -0.02809682
v -0.02590050 -0.00674614 -0.02719839
v -0.01819386 -0.00373611 -0.02473688
v -0.02764769 -0.00481503 -0.03017701
v -0.02718055 -0.00455359 -0.02997091
v -0.02650918 -0.00424897 -0.02962368
v -0.02921894 -0.00674614 -0.03017701
v -0.01900274 -0.00484280 -0.02473688
v -0.02613507 -0.00460835 -0.02901816
v -0.02701271 -0.00673148 -0.02812611
v -0.02648087 -0.00674614 -0.02765745
v -0.01863874 -0.00417184 -0.02473688
v -0.02779126 -0.00497467 -0.03017701
v -0.02854555 -0.00581375 -0.03017701
v -0.02814110 -0.00558701 -0.03000074
v -0.02917850 -0.00674614 -0.03012695
v -0.02906728 -0.00662274 -0.03003535
v -0.02915221 -0.00655256 -0.03017701
v -0.02701676 -0.00674614 -0.02812026
v -0.02805415 -0.00667673 -0.02907834
v -0.02873361 -0.00602660 -0.03017701
v -0.02912592 -0.00674614 -0.03006198
v -0.02892167 -0.00625333 -0.03017701
v -0.02908345 -0.00674614 -0.03001405
v -0.02807033 -0.00674614 -0.02905916
f 1 2 3
f 1 3 4
f 1 4 5
f 1 5 6
f 1 6 7
f 1 7 14
f 1 14 21
f 1 21 30
f 1 30 33
f 1 33 50
f 1 50 59
f 1 59 55
f 1 55 46
f 1 46 28
f 1 28 18
f 1 18 8
f 1 8 9
f 1 9 10
f 1 10 11
f 1 11 12
f 1 12 2
f 2 12 20
f 2 20 19
f 2 19 29
f 2 29 38
f 2 38 45
f 2 45 54
f 2 54 65
f 2 65 70
f 2 70 68
f 2 68 61
f 2 61 60
f 2 60 51
f 2 51 36
f 2 36 35
f 2 35 34
f 2 34 24
f 2 24 15
f 2 15 13
f 2 13 6
f 2 6 5
f 2 5 4
f 2 4 3
f 6 13 7
f 7 13 15
f 7 15 16
f 7 16 17
f 7 17 14
f 8 18 27
f 8 27 29
f 8 29 19
f 8 19 9
f 9 19 10
f 10 19 11
f 11 19 20
f 11 20 12
f 14 17 22
f 14 22 23
f 14 23 21
f 15 24 16
f 16 24 25
f 16 25 26
f 16 26 17
f 17 26 25
f 17 25 22
f 18 28 27
f 21 23 30
f 22 25 23
f 23 25 31
f 23 31 32
f 23 32 33
f 23 33 30
f 24 34 25
f 25 34 35
f 25 35 36
f 25 36 37
f 25 37 31
f 27 38 29
f 27 28 39
f 27 39 40
f 27 40 41
f 27 41 42
f 27 42 43
f 27 43 44
f 27 44 45
f 27 45 38
f 28 46 49
f 28 49 58
f 28 58 66
f 28 66 72
f 28 72 71
f 28 71 69
f 28 69 63
f 28 63 54
f 28 54 45
f 28 45 44
f 28 44 43
f 28 43 42
f 28 42 41
f 28 41 40
f 28 40 39
f 31 37 32
f 32 37 47
f 32 47 48
f 32 48 49
f 32 49 33
f 33 49 50
f 36 51 37
f 37 51 52
f 37 52 53
f 37 53 47
f 46 55 49
f 47 53 56
f 47 56 48
f 48 56 57
f 48 57 58
f 48 58 49
f 49 55 59
f 49 59 50
f 51 60 52
f 52 60 61
f 52 61 62
f 52 62 53
f 53 57 56
f 53 62 57
f 54 63 64
f 54 64 65
f 57 66 58
f 57 62 61
f 57 61 67
f 57 67 66
f 61 68 67
f 63 69 64
f 64 70 65
f 64 69 71
f 64 71 72
f 64 72 67
f 64 67 70
f 66 67 72
f 67 68 70

