# https://github.com/mikedh/trimesh
v -0.02959819 -0.02561671 0.00189862
v -0.02959819 -0.02561368 0.00219739
v -0.02975045 -0.02544997 0.00219739
v -0.03210628 -0.02286693 0.00418783
v -0.03260400 -0.02231212 0.00418783
v -0.03165044 -0.02335504 0.00319471
v -0.03019916 -0.02495276 0.00219739
v -0.02959819 -0.02560155 0.00120848
v -0.02959819 -0.02555607 0.00296748
v -0.03019964 -0.02493154 0.00319471
v -0.03069735 -0.02441008 0.00319471
v -0.03305651 -0.02182401 0.00518515
v -0.03209486 -0.02285783 0.00319471
v -0.03304604 -0.02181491 0.00418783
v -0.03302511 -0.02179066 0.00219739
v -0.03301464 -0.02177853 0.00120848
v -0.03163949 -0.02334291 0.00219739
v -0.03016585 -0.02491638 -0.00078195
v -0.02973189 -0.02542571 0.00021116
v -0.02959819 -0.02557427 0.00021116
v -0.03162807 -0.02333078 0.00120848
v -0.02959819 -0.02552576 0.00319471
v -0.02969906 -0.02542874 0.00319471
v -0.03114225 -0.02387953 0.00418783
v -0.03257783 -0.02232121 0.00518515
v -0.03302368 -0.02178460 0.00589632
v -0.03353091 -0.02120553 0.00518515
v -0.03352568 -0.02120553 0.00418783
v -0.03386543 -0.02060525 -0.00376971
v -0.03339673 -0.02120553 -0.00277239
v -0.03297086 -0.02172699 -0.00277239
v -0.03255927 -0.02226361 0.00021116
v -0.03109705 -0.02384314 -0.00177928
v -0.02970097 -0.02541358 -0.00078195
v -0.02959819 -0.02551969 -0.00078195
v -0.02959819 -0.02535598 0.00402792
v -0.03013207 -0.02484362 0.00418783
v -0.03062978 -0.02437673 0.00418783
v -0.03208011 -0.02282751 0.00518515
v -0.03392062 -0.02066588 0.00518515
v -0.03201730 -0.02275475 0.00591736
v -0.03192690 -0.02266986 0.00658224
v -0.03289996 -0.02164513 0.00656120
v -0.03330252 -0.02126920 0.00620772
v -0.03383211 -0.02051733 0.00618247
v -0.03392538 -0.02068104 0.00418783
v -0.03391824 -0.02067195 0.00319471
v -0.03445831 -0.01980184 -0.00476283
v -0.03424751 -0.02005954 -0.00476283
v -0.03295944 -0.02171486 -0.00332786
v -0.03197876 -0.02272140 -0.00332786
v -0.03010114 -0.02483149 -0.00177928
v -0.02959819 -0.02526503 -0.00183819
v -0.03104709 -0.02378554 -0.00251570
v -0.02959819 -0.02532263 0.00418783
v -0.03155670 -0.02332472 0.00518515
v -0.03423276 -0.02016868 0.00518515
v -0.03445831 -0.01993220 0.00418783
v -0.03428320 -0.02018384 0.00418783
v -0.03003405 -0.02475267 0.00494950
v -0.02959819 -0.02512557 0.00501262
v -0.02959819 -0.02500430 0.00551759
v -0.03089054 -0.02363396 0.00643075
v -0.02959819 -0.02459198 0.00717559
v -0.02973237 -0.02446768 0.00717559
v -0.03009495 -0.02382798 0.00785730
v -0.03104566 -0.02280023 0.00779418
v -0.03274532 -0.02126920 0.00727658
v -0.03445831 -0.00798413 0.02186190
v -0.03394917 -0.01872557 0.00867788
v -0.03387970 -0.01961387 0.00752065
v -0.03400913 -0.01982913 0.00685998
v -0.03411048 -0.02002013 0.00618247
v -0.03445831 -0.01978971 0.00518515
v -0.03445831 -0.01951989 -0.00580644
v -0.03445831 -0.01992311 0.00319471
v -0.03288189 -0.02164513 -0.00399274
v -0.03416377 -0.01991098 -0.00552870
v -0.03181555 -0.02258497 -0.00399274
v -0.03001597 -0.02473144 -0.00238104
v -0.02959819 -0.02521955 -0.00199389
v -0.02959819 -0.02484362 0.00618247
v -0.02986751 -0.02460411 0.00618247
v -0.02959819 -0.02433732 0.00772264
v -0.02959819 -0.02414329 0.00813925
v -0.02959819 -0.02401292 0.00830757
v -0.02985466 -0.02356726 0.00851798
v -0.02959819 -0.01983216 0.01326473
v -0.02959819 -0.01883169 0.01430413
v -0.02959819 -0.01840118 0.01471653
v -0.02959819 -0.01771297 0.01535195
v -0.02959819 -0.01742799 0.01560865
v -0.02959819 -0.01703993 0.01595371
v -0.02959819 -0.01648209 0.01635348
v -0.02959819 -0.01622742 0.01653443
v -0.03445831 -0.00727167 0.02224484
v -0.03445831 -0.01673676 0.01017597
v -0.02959819 -0.02333684 0.00915340
v -0.02959819 -0.02223026 0.01047475
v -0.02959819 -0.02075987 0.01222953
v -0.03445831 -0.01750075 0.00911974
v -0.03445831 -0.01805556 0.00832440
v -0.03442452 -0.01821927 0.00817291
v -0.03404481 -0.01889838 0.00817291
v -0.03445831 -0.01878924 0.00721346
v -0.03445831 -0.01941075 0.00611935
v -0.03445831 -0.01815864 0.00817291
v -0.03445831 -0.01899540 -0.00676589
v -0.02959819 -0.02358848 -0.00592847
v -0.03098428 -0.02271837 -0.00530147
v -0.03112322 -0.02283358 -0.00476283
v -0.03043374 -0.02338232 -0.00480912
v -0.03008449 -0.02379464 -0.00451034
v -0.02959819 -0.02489213 -0.00282710
v -0.02959819 -0.02495579 -0.00266719
v -0.02959819 -0.01536035 0.01694683
v -0.02959819 -0.00702004 0.02072992
v -0.02959819 -0.00635609 0.02096978
v -0.02959819 -0.00627727 0.02099503
v -0.02959819 -0.00541928 0.02126435
v -0.02959819 -0.00522222 0.02131485
v -0.02959819 -0.00428541 0.02155050
v -0.03445831 -0.00635609 0.02245104
v -0.03445831 -0.01189507 -0.01958380
v -0.02959819 -0.02366730 -0.00576015
v -0.02959819 -0.02313372 -0.00670277
v -0.02959819 -0.02379767 -0.00546137
v -0.02959819 -0.02450103 -0.00376971
v -0.02959819 -0.00329101 0.02159258
v -0.03445831 -0.00428541 0.02272877
v -0.03445831 -0.00495240 0.02266986
v -0.03445831 -0.00528286 0.02263620
v -0.03445831 -0.01187385 -0.01961747
v -0.02959819 -0.02269108 -0.00724561
v -0.02959819 -0.00318186 0.02156733
v -0.03445831 -0.00224506 0.02242579
v -0.03445831 -0.00329101 0.02266144
v -0.03445831 -0.00409138 0.02271615
v -0.03445831 -0.01168891 -0.01976054
v -0.02959819 -0.01422648 -0.01569550
v -0.02959819 -0.01479038 -0.01525786
v -0.02959819 -0.01526939 -0.01483284
v -0.02959819 -0.01534822 -0.01476130
v -0.02959819 -0.01636385 -0.01382289
v -0.02959819 -0.01686409 -0.01335579
v -0.02959819 -0.01739767 -0.01283399
v -0.02959819 -0.01787063 -0.01236689
v -0.02959819 -0.01835570 -0.01187454
v -0.02959819 -0.01931980 -0.01088563
v -0.02959819 -0.02029905 -0.00984202
v -0.02959819 -0.00253610 0.02134430
v -0.03445831 -0.00152653 0.02194607
v -0.02959819 -0.00234813 0.02125593
v -0.02959819 -0.00167812 0.02082671
v -0.03445831 -0.01124931 -0.02008877
v -0.02959819 -0.01413249 -0.01575442
v -0.03426607 -0.01124931 -0.02000040
v -0.03445831 -0.00151138 0.02192923
v -0.02959819 -0.00162355 0.02077200
v -0.03445831 -0.01025490 -0.02024448
v -0.03407383 -0.01025490 -0.02016031
v -0.03092004 -0.00880573 -0.01922190
v -0.02959819 -0.00824183 -0.01855281
v -0.03445831 -0.00102327 0.02137376
v -0.02959819 -0.00113847 0.02014078
v -0.03445831 -0.00882089 -0.02025289
v -0.03391063 -0.00727167 -0.02020239
v -0.03393537 -0.00785983 -0.02019398
v -0.03402958 -0.00926353 -0.02017714
v -0.03344622 -0.00926353 -0.02002565
v -0.03059220 -0.00727167 -0.01929765
v -0.03009448 -0.00727167 -0.01915457
v -0.03075873 -0.00826608 -0.01926398
v -0.02959819 -0.00727167 -0.01893996
v -0.03444118 -0.00064127 0.02086037
v -0.03445831 -0.00064127 0.02086037
v -0.02959819 0.00194783 0.01546978
v -0.03445831 -0.00727167 -0.02026131
v -0.03389683 -0.00627727 -0.02020660
v -0.03145582 -0.00627727 -0.01955434
v -0.03145582 -0.00727167 -0.01953330
v -0.03354043 -0.00822061 -0.02008036
v -0.03245078 -0.00826608 -0.01978158
v -0.03056269 -0.00627727 -0.01930607
v -0.03006498 -0.00627727 -0.01915878
v -0.02959819 -0.00627727 -0.01899887
v -0.02959819 0.00226010 0.01490168
v -0.02959819 0.00229648 0.01483435
v -0.03444118 -0.00031384 0.02011554
v -0.03445831 -0.00032294 0.02013237
v -0.03445831 -0.00623785 -0.02022343
v -0.03441120 -0.00622573 -0.02022343
v -0.03391729 -0.00576793 -0.02019818
v -0.03069117 -0.00568911 -0.01927240
v -0.02959819 -0.00555571 -0.01859068
v -0.02959819 0.00247839 0.01427888
v -0.03197781 0.00120506 0.01669434
v -0.02959819 0.00475219 0.00316947
v -0.02959819 0.00494622 0.00220160
v -0.02959819 0.00513722 0.00120848
v -0.02959819 0.00535551 0.00006809
v -0.03445831 -0.00031990 0.02011554
v -0.03445831 -0.00616812 -0.02021502
v -0.03405956 -0.00576793 -0.02019818
v -0.03145582 -0.00558906 -0.01937760
v -0.02959819 0.00048957 -0.01140323
v -0.02959819 0.00534338 -0.00062204
v -0.02997409 0.00517967 -0.00031906
v -0.02997409 0.00517967 -0.00024331
v -0.03445831 -0.00018044 0.01913925
v -0.03445831 -0.00562241 -0.01983208
v -0.02959819 0.00095343 -0.01073835
v -0.02959819 0.00530397 -0.00078195
v -0.03102235 0.00423376 0.00021116
v -0.03316167 0.00236925 0.00319471
v -0.02985038 0.00508871 -0.00098394
v -0.03198685 0.00321207 -0.00136267
v -0.03209724 0.00330605 0.00219739
v -0.03365653 0.00192358 0.00418783
v -0.03315882 0.00233287 0.00418783
v -0.03413237 0.00139000 0.00518515
v -0.03445831 0.00089885 0.00618247
v -0.03445831 -0.00558603 -0.01975633
v -0.02959819 0.00305139 -0.00675326
v -0.02959819 0.00282401 -0.00720353
v -0.02959819 0.00258450 -0.00766643
v -0.02959819 0.00162344 -0.00952220
v -0.02959819 0.00145973 -0.00983360
v -0.02959819 0.00501595 -0.00177928
v -0.03365939 0.00190539 0.00319471
v -0.02968289 0.00495532 -0.00177928
v -0.03030146 0.00445508 -0.00177928
v -0.03395964 0.00120506 -0.00231371
v -0.03412285 0.00142638 0.00418783
v -0.03445831 0.00097162 0.00518515
v -0.03445831 0.00038952 -0.00273031
v -0.02959819 0.00464002 -0.00281026
v -0.02959819 0.00427318 -0.00376971
v -0.02959819 0.00390634 -0.00472495
v -0.02959819 0.00355162 -0.00563391
v -0.02959819 0.00346067 -0.00584431
v -0.02959819 0.00484011 -0.00227162
v -0.03408145 0.00133239 0.00120848
v -0.03410048 0.00140515 0.00319471
v -0.03405480 0.00128995 0.00021116
v -0.03445831 0.00057749 -0.00171195
v -0.03445831 0.00078971 0.00120848
v -0.03445831 0.00093524 0.00414996
v -0.03445831 0.00073514 0.00021116
v -0.03445831 0.00074120 0.00029112
f 1 2 3
f 1 3 4
f 1 4 5
f 1 5 6
f 1 6 7
f 1 7 8
f 1 8 20
f 1 20 35
f 1 35 53
f 1 53 81
f 1 81 115
f 1 115 114
f 1 114 128
f 1 128 127
f 1 127 125
f 1 125 109
f 1 109 126
f 1 126 134
f 1 134 150
f 1 150 149
f 1 149 148
f 1 148 147
f 1 147 146
f 1 146 145
f 1 145 144
f 1 144 143
f 1 143 142
f 1 142 141
f 1 141 140
f 1 140 156
f 1 156 163
f 1 163 174
f 1 174 186
f 1 186 195
f 1 195 206
f 1 206 212
f 1 212 228
f 1 228 227
f 1 227 226
f 1 226 225
f 1 225 224
f 1 224 241
f 1 241 240
f 1 240 239
f 1 239 238
f 1 238 237
f 1 237 242
f 1 242 229
f 1 229 213
f 1 213 207
f 1 207 201
f 1 201 200
f 1 200 199
f 1 199 198
f 1 198 196
f 1 196 188
f 1 188 187
f 1 187 177
f 1 177 165
f 1 165 159
f 1 159 154
f 1 154 153
f 1 153 151
f 1 151 135
f 1 135 129
f 1 129 122
f 1 122 121
f 1 121 120
f 1 120 119
f 1 119 118
f 1 118 117
f 1 117 116
f 1 116 95
f 1 95 94
f 1 94 93
f 1 93 92
f 1 92 91
f 1 91 90
f 1 90 89
f 1 89 88
f 1 88 100
f 1 100 99
f 1 99 98
f 1 98 86
f 1 86 85
f 1 85 84
f 1 84 64
f 1 64 82
f 1 82 62
f 1 62 61
f 1 61 55
f 1 55 36
f 1 36 22
f 1 22 9
f 1 9 2
f 2 9 10
f 2 10 11
f 2 11 3
f 3 11 12
f 3 12 4
f 4 12 5
f 5 13 6
f 5 12 14
f 5 14 15
f 5 15 16
f 5 16 13
f 6 13 17
f 6 17 8
f 6 8 7
f 8 18 19
f 8 19 20
f 8 17 21
f 8 21 18
f 9 22 23
f 9 23 24
f 9 24 10
f 10 24 25
f 10 25 12
f 10 12 11
f 12 25 26
f 12 26 27
f 12 27 28
f 12 28 29
f 12 29 14
f 13 16 32
f 13 32 17
f 14 29 15
f 15 29 16
f 16 29 30
f 16 30 31
f 16 31 32
f 17 32 21
f 18 33 34
f 18 34 20
f 18 20 19
f 18 21 32
f 18 32 31
f 18 31 33
f 20 34 35
f 22 36 37
f 22 37 38
f 22 38 39
f 22 39 23
f 23 39 24
f 24 39 25
f 25 39 26
f 26 40 27
f 26 39 41
f 26 41 42
f 26 42 43
f 26 43 44
f 26 44 45
f 26 45 40
f 27 40 46
f 27 46 28
f 28 46 47
f 28 47 29
f 29 48 49
f 29 49 50
f 29 50 31
f 29 31 30
f 29 47 48
f 31 50 33
f 33 35 34
f 33 50 51
f 33 51 35
f 35 52 53
f 35 51 54
f 35 54 52
f 36 55 37
f 37 55 41
f 37 41 56
f 37 56 38
f 38 56 39
f 39 56 41
f 40 57 58
f 40 58 59
f 40 59 46
f 40 45 57
f 41 60 61
f 41 61 62
f 41 62 63
f 41 63 42
f 41 55 60
f 42 63 64
f 42 64 65
f 42 65 66
f 42 66 43
f 43 45 44
f 43 66 67
f 43 67 68
f 43 68 69
f 43 69 70
f 43 70 71
f 43 71 45
f 45 71 72
f 45 72 73
f 45 73 74
f 45 74 57
f 46 59 48
f 46 48 47
f 48 75 49
f 48 59 76
f 48 76 58
f 48 58 74
f 48 74 106
f 48 106 105
f 48 105 107
f 48 107 102
f 48 102 101
f 48 101 97
f 48 97 69
f 48 69 96
f 48 96 123
f 48 123 132
f 48 132 131
f 48 131 130
f 48 130 138
f 48 138 137
f 48 137 136
f 48 136 152
f 48 152 158
f 48 158 164
f 48 164 176
f 48 176 190
f 48 190 202
f 48 202 210
f 48 210 222
f 48 222 235
f 48 235 248
f 48 248 247
f 48 247 250
f 48 250 249
f 48 249 246
f 48 246 236
f 48 236 223
f 48 223 211
f 48 211 203
f 48 203 191
f 48 191 178
f 48 178 166
f 48 166 160
f 48 160 155
f 48 155 139
f 48 139 133
f 48 133 124
f 48 124 108
f 48 108 75
f 49 77 50
f 49 75 78
f 49 78 77
f 50 77 51
f 51 77 78
f 51 78 79
f 51 79 80
f 51 80 81
f 51 81 54
f 52 54 53
f 53 54 81
f 55 61 60
f 57 74 58
f 58 76 59
f 62 82 83
f 62 83 63
f 63 83 82
f 63 82 64
f 64 84 66
f 64 66 65
f 66 84 85
f 66 85 86
f 66 86 87
f 66 87 69
f 66 69 67
f 67 69 68
f 69 88 89
f 69 89 90
f 69 90 91
f 69 91 92
f 69 92 93
f 69 93 94
f 69 94 95
f 69 95 96
f 69 97 70
f 69 87 86
f 69 86 98
f 69 98 99
f 69 99 100
f 69 100 88
f 70 97 101
f 70 101 102
f 70 102 103
f 70 103 104
f 70 104 71
f 71 104 72
f 72 105 106
f 72 106 73
f 72 104 103
f 72 103 107
f 72 107 105
f 73 106 74
f 75 108 109
f 75 109 78
f 78 109 110
f 78 110 79
f 79 111 112
f 79 112 113
f 79 113 114
f 79 114 80
f 79 110 111
f 80 114 115
f 80 115 81
f 95 116 96
f 96 117 118
f 96 118 119
f 96 119 120
f 96 120 121
f 96 121 122
f 96 122 123
f 96 116 117
f 102 107 103
f 108 124 109
f 109 125 110
f 109 124 126
f 110 125 127
f 110 127 111
f 111 127 112
f 112 127 113
f 113 128 114
f 113 127 128
f 122 129 130
f 122 130 131
f 122 131 132
f 122 132 123
f 124 133 126
f 126 133 134
f 129 135 136
f 129 136 137
f 129 137 138
f 129 138 130
f 133 139 140
f 133 140 141
f 133 141 142
f 133 142 143
f 133 143 144
f 133 144 145
f 133 145 146
f 133 146 147
f 133 147 148
f 133 148 149
f 133 149 150
f 133 150 134
f 135 151 136
f 136 151 153
f 136 153 154
f 136 154 152
f 139 155 140
f 140 155 157
f 140 157 156
f 152 154 159
f 152 159 158
f 155 160 161
f 155 161 162
f 155 162 157
f 156 157 162
f 156 162 163
f 158 159 164
f 159 165 164
f 160 166 167
f 160 167 168
f 160 168 169
f 160 169 161
f 161 169 168
f 161 168 170
f 161 170 171
f 161 171 172
f 161 172 173
f 161 173 162
f 162 173 174
f 162 174 163
f 164 165 175
f 164 175 176
f 165 177 175
f 166 178 179
f 166 179 167
f 167 179 180
f 167 180 181
f 167 181 182
f 167 182 168
f 168 182 170
f 170 182 183
f 170 183 171
f 171 184 172
f 171 183 182
f 171 182 181
f 171 181 180
f 171 180 184
f 172 184 185
f 172 185 186
f 172 186 174
f 172 174 173
f 175 177 187
f 175 187 188
f 175 188 176
f 176 188 189
f 176 189 190
f 178 191 192
f 178 192 193
f 178 193 179
f 179 193 180
f 180 193 184
f 184 194 185
f 184 193 194
f 185 194 186
f 186 194 195
f 188 196 189
f 189 196 197
f 189 197 190
f 190 197 198
f 190 198 199
f 190 199 200
f 190 200 201
f 190 201 202
f 191 203 204
f 191 204 192
f 192 204 193
f 193 205 194
f 193 204 206
f 193 206 205
f 194 205 206
f 194 206 195
f 196 198 197
f 201 207 208
f 201 208 209
f 201 209 210
f 201 210 202
f 203 211 204
f 204 211 212
f 204 212 206
f 207 213 208
f 208 214 215
f 208 215 209
f 208 213 216
f 208 216 217
f 208 217 214
f 209 215 218
f 209 218 219
f 209 219 220
f 209 220 210
f 210 220 219
f 210 219 221
f 210 221 222
f 211 223 224
f 211 224 225
f 211 225 226
f 211 226 227
f 211 227 228
f 211 228 212
f 213 229 216
f 214 217 230
f 214 230 215
f 215 230 219
f 215 219 218
f 216 229 231
f 216 231 232
f 216 232 217
f 217 232 223
f 217 223 233
f 217 233 230
f 219 230 234
f 219 234 221
f 221 234 235
f 221 235 222
f 223 236 233
f 223 232 231
f 223 231 237
f 223 237 238
f 223 238 239
f 223 239 240
f 223 240 241
f 223 241 224
f 229 242 231
f 230 243 244
f 230 244 234
f 230 233 245
f 230 245 243
f 231 242 237
f 233 236 246
f 233 246 245
f 234 244 243
f 234 243 247
f 234 247 248
f 234 248 235
f 243 245 249
f 243 249 250
f 243 250 247
f 245 246 249

