# https://github.com/mikedh/trimesh
v 0.00835687 0.00665920 0.02534437
v 0.00835687 0.00566349 0.02526049
v 0.00835687 0.00765491 0.02527834
v 0.00736448 0.00765908 0.02509275
v 0.00636915 0.00765908 0.02488931
v 0.00736448 0.00666337 0.02511952
v 0.00285396 0.00308881 0.02361338
v 0.00233655 0.00163899 0.02330109
v 0.00233655 0.00069327 0.02317082
v 0.00238782 -0.00030244 0.02304233
v 0.00835687 -0.00328957 0.02390247
v 0.00636915 0.00666337 0.02489288
v 0.00835687 0.00865062 0.02514271
v 0.00736448 0.00865479 0.02493928
v 0.00635147 0.00865896 0.02471622
v 0.00579222 0.00833400 0.02463591
v 0.00565727 0.00765908 0.02468945
v 0.00559481 0.00666337 0.02468588
v 0.00284277 0.00367624 0.02362230
v 0.00233655 0.00260137 0.02337961
v 0.00509744 0.00666337 0.02452349
v 0.00233655 -0.00030244 0.02302806
v 0.00678520 -0.00285629 0.02361873
v 0.00773692 -0.00386866 0.02364372
v 0.00738864 -0.00322707 0.02369011
v 0.00835687 -0.00418529 0.02369011
v 0.00835687 0.00964633 0.02497497
v 0.00730791 0.00970049 0.02473406
v 0.00693842 0.01006295 0.02458059
v 0.00786716 0.01611220 0.02359910
v 0.00542568 0.00865896 0.02433968
v 0.00516049 0.00765908 0.02444318
v 0.00285986 0.00426783 0.02361695
v 0.00233655 0.00366791 0.02334392
v 0.00437908 0.00666337 0.02415409
v 0.00233655 -0.00034410 0.02301735
v 0.00338316 -0.00129815 0.02306910
v 0.00233655 -0.00915967 0.01907534
v 0.00233655 -0.00982626 0.01873806
v 0.00233655 -0.00126482 0.02277465
v 0.00276969 -0.00187724 0.02265866
v 0.00835687 -0.00433944 0.02360981
v 0.00835687 0.01079203 0.02475548
v 0.00835687 0.01145028 0.02462877
v 0.00835687 0.01466238 0.02400597
v 0.00826317 0.01571642 0.02377399
v 0.00835687 0.01570808 0.02379719
v 0.00835687 0.01629968 0.02365799
v 0.00835687 0.01670796 0.02348668
v 0.00826317 0.01666630 0.02347597
v 0.00765913 0.01724123 0.02276752
v 0.00734209 0.01662881 0.02296203
v 0.00673805 0.01630801 0.02270863
v 0.00586117 0.01514149 0.02261405
v 0.00283393 0.01222102 0.02164683
v 0.00268189 0.01163775 0.02173963
v 0.00233655 0.01127113 0.02163791
v 0.00535614 0.01356252 0.02282105
v 0.00637563 0.01372083 0.02340638
v 0.00687654 0.01411245 0.02359553
v 0.00671212 0.01345003 0.02369368
v 0.00528837 0.00972133 0.02394352
v 0.00454526 0.00865479 0.02380789
v 0.00391058 0.00807570 0.02358304
v 0.00429716 0.00770907 0.02390961
v 0.00295002 0.00493442 0.02355984
v 0.00247209 0.00463029 0.02330287
v 0.00233655 0.00449281 0.02323863
v 0.00368370 0.00666337 0.02372937
v 0.00835687 -0.00966794 0.01998009
v 0.00835687 -0.00922633 0.02029774
v 0.00835687 -0.00830978 0.02094730
v 0.00835687 -0.00785983 0.02125959
v 0.00835687 -0.00699328 0.02185741
v 0.00835687 -0.00586008 0.02263546
v 0.00835687 -0.00525599 0.02304947
v 0.00835687 -0.00508934 0.02316189
v 0.00233655 -0.01018871 0.01847574
v 0.00835687 -0.01046368 0.01940547
v 0.00835687 0.01741621 0.02294775
v 0.00486054 0.01712458 0.02062787
v 0.00592482 0.01705792 0.02156653
v 0.00699558 0.01697043 0.02249984
v 0.00835687 0.01790782 0.02234815
v 0.00778112 0.01815778 0.02167539
v 0.00711756 0.01795364 0.02140414
v 0.00658837 0.01728706 0.02183599
v 0.00567083 0.01639550 0.02177532
v 0.00233655 0.01647049 0.01898254
v 0.00287282 0.01613720 0.01963032
v 0.00394005 0.01602888 0.02056720
v 0.00607450 0.01580391 0.02243916
v 0.00543393 0.01552894 0.02205906
v 0.00233655 0.01424993 0.02019066
v 0.00233655 0.01362918 0.02051723
v 0.00304018 0.01288343 0.02148444
v 0.00233655 0.01254181 0.02108649
v 0.00233655 0.01177524 0.02144875
v 0.00233655 0.01062121 0.02183778
v 0.00235541 0.01060872 0.02185384
v 0.00233655 0.00957968 0.02215542
v 0.00588651 0.01210853 0.02359196
v 0.00552881 0.01064621 0.02381325
v 0.00338316 0.00865479 0.02308516
v 0.00343089 0.00770907 0.02335998
v 0.00379449 0.00740911 0.02365799
v 0.00275083 0.00865479 0.02269078
v 0.00233655 0.00865479 0.02243203
v 0.00233655 0.00765908 0.02267294
v 0.00255931 0.00765908 0.02281570
v 0.00318574 0.00666337 0.02340638
v 0.00233655 0.00662587 0.02286210
v 0.00233655 0.00566766 0.02303162
v 0.00233655 -0.01095529 0.01781903
v 0.00835687 -0.01326333 0.01735505
v 0.00835687 -0.01225096 0.01810991
v 0.00835687 -0.01220930 0.01814025
v 0.00835687 -0.01121775 0.01885941
v 0.00233655 0.01703292 0.01858995
v 0.00537382 0.01728706 0.02084023
v 0.00233655 0.01752453 0.01803139
v 0.00272903 0.01721623 0.01874877
v 0.00233655 0.01664964 0.01886476
v 0.00835687 0.01832443 0.02179495
v 0.00795261 0.01906600 0.02056363
v 0.00680936 0.02212813 0.01568653
v 0.00604975 0.01799947 0.02046905
v 0.00641512 0.02156569 0.01610054
v 0.00671330 0.01820778 0.02074030
v 0.00233655 0.01572059 0.01941083
v 0.00233655 0.01562060 0.01946436
v 0.00233655 0.01527897 0.01964638
v 0.00233655 0.01059205 0.02184670
v 0.00233655 -0.01145522 0.01735149
v 0.00835687 -0.01390909 0.01679828
v 0.00533846 0.01781199 0.02012821
v 0.00338316 0.01792031 0.01837759
v 0.00284807 0.01813279 0.01766021
v 0.00363950 0.01925765 0.01683397
v 0.00297595 0.01904934 0.01649491
v 0.00233655 0.01797447 0.01738361
v 0.00835687 0.01883270 0.02110791
v 0.00835687 0.01954928 0.02013713
v 0.00799857 0.02203647 0.01655737
v 0.00779644 0.02112825 0.01767270
v 0.00732971 0.02279888 0.01511548
v 0.00697495 0.02304468 0.01451409
v 0.00643397 0.02231560 0.01508693
v 0.00561720 0.02125740 0.01584892
v 0.00510804 0.01896185 0.01843469
v 0.00233655 -0.01197599 0.01685360
v 0.00233655 -0.01302170 0.01582572
v 0.00233655 -0.01367162 0.01509228
v 0.00233655 -0.01390909 0.01481568
v 0.00233655 -0.01435486 0.01427675
v 0.00233655 -0.01478398 0.01371284
v 0.00233655 -0.01525059 0.01309540
v 0.00233655 -0.01608798 0.01198542
v 0.00233655 -0.01655876 0.01135727
v 0.00233655 -0.01683789 0.01097538
v 0.00835687 -0.01433403 0.01610054
v 0.00233655 -0.01247593 0.01636464
v 0.00495424 0.02104909 0.01553306
v 0.00581403 0.02214062 0.01471931
v 0.00385106 0.02012421 0.01568296
v 0.00233655 0.01864106 0.01623794
v 0.00233655 0.01824944 0.01694640
v 0.00233655 0.01812445 0.01715697
v 0.00835687 0.02134489 0.01769768
v 0.00835687 0.02178233 0.01710165
v 0.00835687 0.02210729 0.01665731
v 0.00835687 0.02242392 0.01621653
v 0.00835687 0.02295719 0.01544740
v 0.00763851 0.02315717 0.01476393
v 0.00677813 0.02314050 0.01385025
v 0.00641512 0.02279054 0.01416790
v 0.00835687 0.02361128 0.01414648
v 0.00732971 0.02327798 0.01416790
v 0.00233655 -0.01729200 0.01018662
v 0.00835687 -0.01435903 0.01604878
v 0.00567377 0.02225311 0.01414648
v 0.00372377 0.02023253 0.01514225
v 0.00233655 0.01867438 0.01615229
v 0.00835687 0.02326132 0.01494773
v 0.00622536 0.02285720 0.01315072
v 0.00489000 0.02208230 0.01233697
v 0.00547754 0.02236143 0.01315072
v 0.00498075 0.02200731 0.01315072
v 0.00835687 0.02387374 0.01317392
v 0.00736448 0.02349462 0.01315072
v 0.00672273 0.02317383 0.01315072
v 0.00233655 -0.01765029 0.00941571
v 0.00835687 -0.01478398 0.01514225
v 0.00835687 -0.01441319 0.01593636
v 0.00315981 0.02087828 0.01215674
v 0.00379567 0.02116991 0.01284378
v 0.00517640 0.02183650 0.01414648
v 0.00263651 0.01931597 0.01514225
v 0.00458710 0.02134072 0.01414648
v 0.00233655 0.01898268 0.01535104
v 0.00434549 0.02181150 0.01016521
v 0.00354934 0.02129906 0.01116097
v 0.00305138 0.02098660 0.01116097
v 0.00620356 0.02288636 0.01215674
v 0.00365777 0.02124907 0.01215674
v 0.00835687 0.02388207 0.01312216
v 0.00835687 0.02400289 0.01234233
v 0.00817418 0.02395706 0.01215674
v 0.00806575 0.02399456 0.01116097
v 0.00799739 0.02401123 0.01016521
v 0.00795850 0.02402789 0.00916945
v 0.00736448 0.02366960 0.00916945
v 0.00233655 -0.01778361 0.00898564
v 0.00835687 -0.01807940 0.00711546
v 0.00835687 -0.01760446 0.00833072
v 0.00835687 -0.01649210 0.01116097
v 0.00835687 -0.01604632 0.01227095
v 0.00835687 -0.01600050 0.01238159
v 0.00835687 -0.01567970 0.01315072
v 0.00835687 -0.01523809 0.01413934
v 0.00233655 0.02047000 0.01120380
v 0.00233655 0.02044500 0.01131087
v 0.00233655 0.02027419 0.01195330
v 0.00349984 0.02042417 0.01414648
v 0.00233655 0.02007004 0.01249401
v 0.00233655 0.01976175 0.01330597
v 0.00352518 0.02131156 0.01016521
v 0.00663964 0.02322799 0.00916945
v 0.00302781 0.02099910 0.01016521
v 0.00238782 0.02059498 0.01016521
v 0.00233655 0.02056165 0.01016521
v 0.00233655 0.02055749 0.01022767
v 0.00233655 0.02050333 0.01084511
v 0.00233655 0.02047416 0.01116633
v 0.00835687 0.02402789 0.01215674
v 0.00835687 0.02411538 0.01116097
v 0.00835687 0.02418620 0.01016521
v 0.00835687 0.02424870 0.00916945
v 0.00671036 0.02318216 0.00854843
v 0.00233655 -0.01831271 0.00711546
v 0.00835687 0.01938263 0.00711546
v 0.00233655 0.02032418 0.00949601
v 0.00835687 0.02394457 0.00813799
v 0.00835687 0.02363211 0.00790243
v 0.00561779 0.02226978 0.00856092
v 0.00233655 0.01466655 0.00711546
v 0.00738039 0.01954928 0.00711546
v 0.00835687 0.02259057 0.00766688
v 0.00634381 0.01939096 0.00711546
v 0.00633320 0.01938263 0.00711546
v 0.00565904 0.01863272 0.00711546
f 1 2 11
f 1 11 26
f 1 26 42
f 1 42 77
f 1 77 76
f 1 76 75
f 1 75 74
f 1 74 73
f 1 73 72
f 1 72 71
f 1 71 70
f 1 70 79
f 1 79 118
f 1 118 117
f 1 117 116
f 1 116 115
f 1 115 135
f 1 135 161
f 1 161 180
f 1 180 194
f 1 194 193
f 1 193 220
f 1 220 219
f 1 219 218
f 1 218 217
f 1 217 216
f 1 216 215
f 1 215 214
f 1 214 241
f 1 241 248
f 1 248 244
f 1 244 243
f 1 243 238
f 1 238 237
f 1 237 236
f 1 236 235
f 1 235 207
f 1 207 206
f 1 206 189
f 1 189 177
f 1 177 184
f 1 184 173
f 1 173 172
f 1 172 171
f 1 171 170
f 1 170 169
f 1 169 143
f 1 143 142
f 1 142 124
f 1 124 84
f 1 84 80
f 1 80 49
f 1 49 48
f 1 48 47
f 1 47 45
f 1 45 44
f 1 44 43
f 1 43 27
f 1 27 13
f 1 13 3
f 1 3 4
f 1 4 5
f 1 5 6
f 1 6 2
f 2 7 8
f 2 8 9
f 2 9 10
f 2 10 11
f 2 6 12
f 2 12 7
f 3 13 4
f 4 13 14
f 4 14 5
f 5 14 15
f 5 15 16
f 5 16 17
f 5 17 18
f 5 18 12
f 5 12 6
f 7 19 20
f 7 20 8
f 7 12 18
f 7 18 21
f 7 21 19
f 8 20 34
f 8 34 68
f 8 68 113
f 8 113 112
f 8 112 109
f 8 109 108
f 8 108 101
f 8 101 133
f 8 133 99
f 8 99 57
f 8 57 98
f 8 98 97
f 8 97 95
f 8 95 94
f 8 94 132
f 8 132 131
f 8 131 130
f 8 130 89
f 8 89 123
f 8 123 119
f 8 119 121
f 8 121 141
f 8 141 168
f 8 168 167
f 8 167 166
f 8 166 183
f 8 183 200
f 8 200 226
f 8 226 225
f 8 225 223
f 8 223 222
f 8 222 221
f 8 221 234
f 8 234 233
f 8 233 232
f 8 232 231
f 8 231 242
f 8 242 246
f 8 246 240
f 8 240 213
f 8 213 192
f 8 192 179
f 8 179 160
f 8 160 159
f 8 159 158
f 8 158 157
f 8 157 156
f 8 156 155
f 8 155 154
f 8 154 153
f 8 153 152
f 8 152 162
f 8 162 151
f 8 151 134
f 8 134 114
f 8 114 78
f 8 78 39
f 8 39 38
f 8 38 40
f 8 40 36
f 8 36 22
f 8 22 9
f 9 22 10
f 10 23 11
f 10 22 24
f 10 24 23
f 11 25 24
f 11 24 26
f 11 23 25
f 13 27 14
f 14 27 15
f 15 27 28
f 15 28 29
f 15 29 30
f 15 30 16
f 16 31 32
f 16 32 17
f 16 30 31
f 17 32 21
f 17 21 18
f 19 33 20
f 19 21 33
f 20 33 34
f 21 35 33
f 21 32 35
f 22 36 37
f 22 37 24
f 23 24 25
f 24 38 39
f 24 39 26
f 24 37 40
f 24 40 41
f 24 41 38
f 26 39 42
f 27 43 28
f 28 43 44
f 28 44 45
f 28 45 29
f 29 45 46
f 29 46 30
f 30 46 47
f 30 47 48
f 30 48 49
f 30 49 50
f 30 50 51
f 30 51 52
f 30 52 53
f 30 53 54
f 30 54 55
f 30 55 56
f 30 56 57
f 30 57 58
f 30 58 59
f 30 59 60
f 30 60 61
f 30 61 62
f 30 62 31
f 31 62 63
f 31 63 64
f 31 64 32
f 32 64 65
f 32 65 35
f 33 66 67
f 33 67 68
f 33 68 34
f 33 35 69
f 33 69 66
f 35 65 69
f 36 40 37
f 38 41 40
f 39 70 71
f 39 71 72
f 39 72 73
f 39 73 74
f 39 74 75
f 39 75 76
f 39 76 77
f 39 77 42
f 39 78 79
f 39 79 70
f 45 47 46
f 49 80 51
f 49 51 50
f 51 81 82
f 51 82 83
f 51 83 52
f 51 80 84
f 51 84 85
f 51 85 86
f 51 86 87
f 51 87 81
f 52 83 53
f 53 88 89
f 53 89 90
f 53 90 91
f 53 91 92
f 53 92 54
f 53 83 82
f 53 82 88
f 54 92 93
f 54 93 94
f 54 94 95
f 54 95 96
f 54 96 55
f 55 96 97
f 55 97 98
f 55 98 57
f 55 57 56
f 57 99 100
f 57 100 58
f 58 100 101
f 58 101 59
f 59 102 103
f 59 103 60
f 59 101 63
f 59 63 102
f 60 103 61
f 61 103 62
f 62 103 63
f 63 101 104
f 63 104 64
f 63 103 102
f 64 105 106
f 64 106 65
f 64 104 107
f 64 107 108
f 64 108 109
f 64 109 110
f 64 110 105
f 65 106 69
f 66 111 112
f 66 112 113
f 66 113 67
f 66 69 111
f 67 113 68
f 69 106 109
f 69 109 111
f 78 114 115
f 78 115 116
f 78 116 117
f 78 117 118
f 78 118 79
f 81 119 82
f 81 87 120
f 81 120 121
f 81 121 122
f 81 122 119
f 82 119 123
f 82 123 89
f 82 89 88
f 84 124 85
f 85 124 125
f 85 125 126
f 85 126 86
f 86 127 120
f 86 120 87
f 86 126 128
f 86 128 129
f 86 129 127
f 89 130 90
f 90 130 131
f 90 131 91
f 91 131 132
f 91 132 93
f 91 93 92
f 93 132 94
f 95 97 96
f 99 133 100
f 100 133 101
f 101 108 107
f 101 107 104
f 105 110 106
f 106 110 109
f 109 112 111
f 114 134 135
f 114 135 115
f 119 122 121
f 120 127 136
f 120 136 121
f 121 136 137
f 121 137 138
f 121 138 139
f 121 139 140
f 121 140 141
f 124 142 125
f 125 142 143
f 125 143 144
f 125 144 145
f 125 145 146
f 125 146 126
f 126 146 147
f 126 147 148
f 126 148 149
f 126 149 128
f 127 129 128
f 127 128 149
f 127 149 150
f 127 150 138
f 127 138 136
f 134 151 135
f 135 152 153
f 135 153 154
f 135 154 155
f 135 155 156
f 135 156 157
f 135 157 158
f 135 158 159
f 135 159 160
f 135 160 161
f 135 151 162
f 135 162 152
f 136 138 137
f 138 150 149
f 138 149 139
f 139 149 163
f 139 163 140
f 140 163 164
f 140 164 165
f 140 165 166
f 140 166 167
f 140 167 168
f 140 168 141
f 143 169 144
f 144 169 170
f 144 170 171
f 144 171 172
f 144 172 146
f 144 146 145
f 146 172 173
f 146 173 174
f 146 174 147
f 147 175 176
f 147 176 164
f 147 164 163
f 147 163 148
f 147 174 177
f 147 177 178
f 147 178 175
f 148 163 149
f 160 179 161
f 161 179 180
f 164 176 181
f 164 181 165
f 165 182 166
f 165 181 182
f 166 182 183
f 173 184 174
f 174 184 177
f 175 185 186
f 175 186 187
f 175 187 188
f 175 188 181
f 175 181 176
f 175 178 189
f 175 189 190
f 175 190 191
f 175 191 185
f 177 189 178
f 179 192 193
f 179 193 194
f 179 194 180
f 181 188 195
f 181 195 196
f 181 196 197
f 181 197 182
f 182 198 183
f 182 197 199
f 182 199 224
f 182 224 198
f 183 198 200
f 185 191 186
f 186 201 202
f 186 202 203
f 186 203 187
f 186 191 204
f 186 204 201
f 187 203 205
f 187 205 188
f 188 205 195
f 189 206 190
f 190 206 207
f 190 207 208
f 190 208 209
f 190 209 191
f 191 209 210
f 191 210 211
f 191 211 212
f 191 212 204
f 192 213 214
f 192 214 215
f 192 215 216
f 192 216 217
f 192 217 218
f 192 218 219
f 192 219 220
f 192 220 193
f 195 205 221
f 195 221 222
f 195 222 223
f 195 223 196
f 196 224 199
f 196 199 197
f 196 223 225
f 196 225 226
f 196 226 224
f 198 226 200
f 198 224 226
f 201 227 202
f 201 204 212
f 201 212 228
f 201 228 227
f 202 227 203
f 203 229 230
f 203 230 231
f 203 231 232
f 203 232 233
f 203 233 234
f 203 234 221
f 203 221 205
f 203 227 229
f 207 235 208
f 208 235 236
f 208 236 209
f 209 236 237
f 209 237 238
f 209 238 210
f 210 238 211
f 211 238 239
f 211 239 212
f 212 239 228
f 213 240 214
f 214 240 246
f 214 246 251
f 214 251 250
f 214 250 249
f 214 249 247
f 214 247 241
f 227 228 229
f 228 239 231
f 228 231 230
f 228 230 229
f 231 239 242
f 238 243 239
f 239 243 244
f 239 244 245
f 239 245 242
f 241 247 248
f 242 245 246
f 244 248 249
f 244 249 250
f 244 250 245
f 245 250 251
f 245 251 246
f 247 249 248

