# https://github.com/mikedh/trimesh
v -0.03017338 -0.00727064 -0.03164274
v -0.03008256 -0.00727064 -0.03234193
v -0.03002944 -0.00799773 -0.03164274
v -0.03003116 -0.00801145 -0.03103229
v -0.03005172 -0.00727064 -0.03101305
v -0.03011341 -0.00629834 -0.03166413
v -0.03011341 -0.00627605 -0.03234621
v -0.02998318 -0.00782968 -0.03220829
v -0.02979298 -0.00727064 -0.03283906
v -0.02912985 -0.00925984 -0.03340568
v -0.02901676 -0.00990290 -0.03327311
v -0.02987009 -0.00849503 -0.03164274
v -0.02898763 -0.01180979 -0.03025720
v -0.02899277 -0.01182179 -0.03017702
v -0.02943143 -0.01025616 -0.03064742
v -0.02912814 -0.01126276 -0.03017702
v -0.02933204 -0.01024587 -0.03017702
v -0.02946913 -0.00925984 -0.03017702
v -0.02965761 -0.00727064 -0.03051592
v -0.03001231 -0.00664473 -0.03108147
v -0.02945713 -0.00828582 -0.03017702
v -0.03002602 -0.00573073 -0.03201051
v -0.03002602 -0.00573073 -0.03221364
v -0.02811031 -0.00661215 -0.03534074
v -0.02897049 -0.00676477 -0.03413908
v -0.02897049 -0.00678706 -0.03413908
v -0.02848557 -0.01125075 -0.03363340
v -0.02939716 -0.00925984 -0.03263807
v -0.02925665 -0.00826696 -0.03346127
v -0.02817542 -0.01125075 -0.03444805
v -0.02805034 -0.01197269 -0.03431655
v -0.02960278 -0.00925984 -0.03164274
v -0.02910586 -0.01127133 -0.03061214
v -0.02884541 -0.01140680 -0.03164274
v -0.02812573 -0.01228136 -0.03362057
v -0.02793211 -0.01263633 -0.03394344
v -0.02854554 -0.01224707 -0.03164274
v -0.02878029 -0.01218362 -0.03061214
v -0.02801264 -0.01382814 -0.03135195
v -0.02896707 -0.01188867 -0.03017702
v -0.02937145 -0.00727064 -0.03017702
v -0.02924123 -0.00681450 -0.03017702
v -0.02915213 -0.00655385 -0.03017702
v -0.02945885 -0.00630177 -0.03068591
v -0.02984953 -0.00598110 -0.03134660
v -0.02918640 -0.00555239 -0.03095425
v -0.02820455 -0.00462124 -0.03092752
v -0.02533614 -0.00277952 -0.03017702
v -0.02698111 -0.00378441 -0.03112744
v -0.02806233 -0.00473785 -0.03226068
v -0.02780873 -0.00487675 -0.03292352
v -0.02198622 -0.00280010 -0.03510981
v -0.02743690 -0.00627090 -0.03557915
v -0.02720558 -0.00659500 -0.03629330
v -0.02698111 -0.00378441 -0.03115417
v -0.02811031 -0.00706830 -0.03534074
v -0.02890024 -0.01056482 -0.03281447
v -0.02874774 -0.01115644 -0.03254506
v -0.02896878 -0.01076031 -0.03215163
v -0.02829194 -0.01025616 -0.03447478
v -0.02783101 -0.01125075 -0.03494518
v -0.02729297 -0.01224707 -0.03540168
v -0.02780359 -0.01228136 -0.03464048
v -0.02746946 -0.01324167 -0.03462872
v -0.02702223 -0.01486218 -0.03423850
v -0.02925151 -0.01025616 -0.03164274
v -0.02691257 -0.01556011 -0.03363340
v -0.02709763 -0.01506281 -0.03363340
v -0.02779503 -0.01319022 -0.03362057
v -0.02800065 -0.01282325 -0.03327953
v -0.02806576 -0.01300159 -0.03263807
v -0.02794581 -0.01367037 -0.03201479
v -0.02696740 -0.01570758 -0.03303043
v -0.02699482 -0.01576074 -0.03236759
v -0.02804520 -0.01387272 -0.03064742
v -0.02857125 -0.01284383 -0.03017702
v -0.02892080 -0.00625547 -0.03017702
v -0.02779160 -0.00497621 -0.03017702
v -0.02784301 -0.00492476 -0.03026361
v -0.02764766 -0.00481673 -0.03017702
v -0.02651846 -0.00371410 -0.03017702
v -0.02880429 -0.00596052 -0.03029034
v -0.02854554 -0.00581476 -0.03017702
v -0.02516822 -0.00267834 -0.03017702
v -0.02538412 -0.00313792 -0.03154439
v -0.02747631 -0.00457837 -0.03261027
v -0.02159212 -0.00245542 -0.03471852
v -0.01907497 -0.00176949 -0.03616501
v -0.02186628 -0.00585248 -0.03805089
v -0.02250199 -0.00732038 -0.03879284
v -0.02217471 -0.00768563 -0.03915420
v -0.02349069 -0.00826696 -0.03869021
v -0.02720044 -0.00727064 -0.03629009
v -0.01951192 -0.00293385 -0.03698928
v -0.01901157 -0.00279324 -0.03711544
v -0.02019732 -0.00364379 -0.03721914
v -0.02513566 -0.00269721 -0.03064742
v -0.02498658 -0.00279152 -0.03114668
v -0.02627000 -0.01125075 -0.03634248
v -0.02648419 -0.01231395 -0.03593088
v -0.02712162 -0.01324167 -0.03524024
v -0.02699310 -0.01378012 -0.03514189
v -0.02611065 -0.01694054 -0.03428020
v -0.02663841 -0.01622889 -0.03363340
v -0.02620317 -0.01705544 -0.03363340
v -0.02699482 -0.01576074 -0.03190253
v -0.02820798 -0.01357434 -0.03017702
v -0.02873403 -0.00602740 -0.03017702
v -0.02494889 -0.00256859 -0.03017702
v -0.02443654 -0.00266805 -0.03154439
v -0.01997799 -0.00180550 -0.03507881
v -0.01928402 -0.00171976 -0.03562405
v -0.01851637 -0.00156028 -0.03562405
v -0.01851637 -0.00172662 -0.03623451
v -0.01861404 -0.00231823 -0.03680861
v -0.01834844 -0.00266634 -0.03721059
v -0.02120315 -0.00565014 -0.03818881
v -0.01926174 -0.00466068 -0.03819308
v -0.01634192 -0.00662416 -0.04019015
v -0.01304512 -0.00677335 -0.04109888
v -0.02227752 -0.00826696 -0.03917237
v -0.02277615 -0.00826696 -0.03904516
v -0.02349069 -0.00925984 -0.03857047
v -0.02413154 -0.00925984 -0.03822623
v -0.02520077 -0.01025616 -0.03728436
v -0.01722609 -0.00370038 -0.03816956
v -0.01610374 -0.00474814 -0.03912854
v -0.02448624 -0.00237653 -0.03064742
v -0.02404586 -0.00984288 -0.03814283
v -0.02510139 -0.01093523 -0.03718279
v -0.02615691 -0.01202585 -0.03622274
v -0.02647734 -0.01324167 -0.03561657
v -0.02645506 -0.01416253 -0.03529049
v -0.02610893 -0.01492219 -0.03519534
v -0.02585876 -0.01558583 -0.03507347
v -0.02550920 -0.01624947 -0.03493662
v -0.02474155 -0.01659586 -0.03504460
v -0.02548178 -0.01703143 -0.03443094
v -0.02548178 -0.01729037 -0.03363340
v -0.02548178 -0.01729208 -0.03064742
v -0.02548178 -0.01729208 -0.03017702
v -0.02621003 -0.01704172 -0.03263807
v -0.02672408 -0.01614658 -0.03159891
v -0.02655616 -0.01622889 -0.03017702
v -0.02692456 -0.01565100 -0.03017702
v -0.02747631 -0.01478501 -0.03017702
v -0.02773848 -0.01435459 -0.03017702
v -0.02775904 -0.01437002 -0.03064742
v -0.02804006 -0.01385729 -0.03017702
v -0.02301947 -0.00179178 -0.03017702
v -0.02340673 -0.00195983 -0.03057365
v -0.02249171 -0.00190153 -0.03170261
v -0.02195881 -0.00180550 -0.03207359
v -0.01959245 -0.00165116 -0.03469928
v -0.01851637 -0.00140080 -0.03462872
v -0.01752082 -0.00121217 -0.03462872
v -0.01552972 -0.00070286 -0.03345379
v -0.01752082 -0.00146425 -0.03562405
v -0.01752082 -0.00171461 -0.03625695
v -0.01752082 -0.00209530 -0.03675408
v -0.01752082 -0.00259260 -0.03729291
v -0.01652527 -0.00362321 -0.03825082
v -0.01431826 -0.00567757 -0.04018267
v -0.01498139 -0.00580275 -0.04008752
v -0.01552972 -0.00643038 -0.04030134
v -0.01303998 -0.00677335 -0.04109888
v -0.01304512 -0.00677506 -0.04109888
v -0.02150130 -0.00826696 -0.03934129
v -0.01460442 -0.00619031 -0.04041359
v -0.01353862 -0.00562613 -0.04024040
v -0.01266987 -0.00563127 -0.04024468
v -0.02219527 -0.00888429 -0.03914671
v -0.02251399 -0.00923412 -0.03893931
v -0.02369973 -0.01050652 -0.03801989
v -0.02301947 -0.00179178 -0.03019305
v -0.02504827 -0.01381956 -0.03615432
v -0.02525218 -0.01324167 -0.03626230
v -0.02555889 -0.01231395 -0.03644084
v -0.02594272 -0.01268949 -0.03610087
v -0.02519563 -0.01593223 -0.03521459
v -0.02407842 -0.01674677 -0.03514937
v -0.02444169 -0.01624947 -0.03530439
v -0.02217128 -0.01578818 -0.03617249
v -0.02390193 -0.01674677 -0.03514937
v -0.02471071 -0.01709488 -0.03017702
v -0.02510482 -0.01721320 -0.03017702
v -0.02582449 -0.01710859 -0.03017702
v -0.02616891 -0.01699885 -0.03164274
v -0.02612950 -0.01694912 -0.03064742
v -0.02610893 -0.01692168 -0.03017702
v -0.01811712 -0.00078175 -0.03017702
v -0.02282070 -0.00183465 -0.03085589
v -0.02215757 -0.00176263 -0.03140968
v -0.02050746 -0.00156885 -0.03263807
v -0.01851637 -0.00127390 -0.03363340
v -0.01552972 -0.00039077 -0.03164274
v -0.01453417 -0.00018842 -0.03164274
v -0.01621169 -0.00076288 -0.03334260
v -0.01353862 -0.00005638 -0.03164274
v -0.01552972 -0.00085720 -0.03395092
v -0.01652527 -0.00111099 -0.03462872
v -0.01652527 -0.00149168 -0.03562405
v -0.01652527 -0.00175234 -0.03620029
v -0.01266987 -0.00227193 -0.03661831
v -0.01266987 -0.00261318 -0.03717317
v -0.01266987 -0.00266805 -0.03725549
v -0.01353862 -0.00264748 -0.03726938
v -0.01453417 -0.00262690 -0.03728649
v -0.01552972 -0.00260804 -0.03730360
v -0.01652527 -0.00259089 -0.03731963
v -0.01552972 -0.00359920 -0.03829785
v -0.01453417 -0.00460752 -0.03927287
v -0.01266987 -0.00640123 -0.04078457
v -0.01266987 -0.00714546 -0.04088078
v -0.01303998 -0.00677506 -0.04109888
v -0.01453417 -0.00826696 -0.04053547
v -0.01552972 -0.00826696 -0.04037617
v -0.01731862 -0.00798573 -0.04014952
v -0.01851637 -0.00826696 -0.03989508
v -0.01951192 -0.00826696 -0.03972830
v -0.02050746 -0.00826696 -0.03954335
v -0.01552972 -0.01224707 -0.03946637
v -0.01552972 -0.01125075 -0.03972189
v -0.01266987 -0.00556954 -0.04018480
v -0.02050746 -0.00925984 -0.03935733
v -0.02144476 -0.00923412 -0.03919910
v -0.02107807 -0.00980859 -0.03912640
v -0.02249685 -0.01025616 -0.03851488
v -0.02303661 -0.01078261 -0.03812466
v -0.02341701 -0.01117016 -0.03783921
v -0.02384367 -0.01264491 -0.03707267
v -0.02050746 -0.00131677 -0.03064742
v -0.01811712 -0.00078175 -0.03032562
v -0.01951192 -0.00110756 -0.03064742
v -0.02448624 -0.01523258 -0.03575341
v -0.01752082 -0.01392760 -0.03828396
v -0.02250028 -0.01526859 -0.03632858
v -0.02283613 -0.01562356 -0.03606559
v -0.02088272 -0.01465125 -0.03707909
v -0.01826277 -0.01385386 -0.03818453
v -0.01885907 -0.01480902 -0.03722021
v -0.02098382 -0.01574017 -0.03613722
v -0.01674117 -0.01387615 -0.03826899
v -0.02098382 -0.01574017 -0.03610087
v -0.01885907 -0.01480902 -0.03697325
v -0.01674117 -0.01387615 -0.03786059
v -0.01303313 -0.01175320 -0.03810862
v -0.01266987 -0.01128677 -0.03793009
v -0.01266987 -0.00513226 -0.03017702
v -0.01309310 0.00020428 -0.03017702
v -0.01707359 -0.00079032 -0.03222433
v -0.01347179 0.00011854 -0.03071798
v -0.01266987 0.00016655 -0.03097563
v -0.01266987 -0.00005809 -0.03164274
v -0.01453417 -0.00068057 -0.03341744
v -0.01552972 -0.00113157 -0.03462872
v -0.01453417 -0.00182779 -0.03604848
v -0.01514417 -0.00180550 -0.03610193
v -0.01580730 -0.00177978 -0.03615325
v -0.01266987 -0.00222734 -0.03653599
v -0.01266987 -0.00308819 -0.03769061
v -0.01266987 -0.00314821 -0.03775262
v -0.01453417 -0.00311734 -0.03778469
v -0.01552972 -0.00310019 -0.03780073
v -0.01453417 -0.00411022 -0.03878322
v -0.01266987 -0.00826696 -0.04046491
v -0.01385048 -0.00988747 -0.04015166
v -0.01652527 -0.01125075 -0.03956259
v -0.01752082 -0.01025616 -0.03962032
v -0.01653041 -0.00829783 -0.04020832
v -0.01483060 -0.01284897 -0.03918093
v -0.01552972 -0.01293471 -0.03921407
v -0.01630251 -0.01289356 -0.03917665
v -0.01659038 -0.01231909 -0.03928677
v -0.01353862 -0.00462296 -0.03926753
v -0.01266987 -0.00507052 -0.03968768
v -0.01851637 -0.00925984 -0.03967806
v -0.01851637 -0.01025616 -0.03945996
v -0.01752082 -0.01125075 -0.03939689
v -0.02144476 -0.01018585 -0.03885699
v -0.01752082 -0.01201557 -0.03919483
v -0.01812054 -0.01181836 -0.03913495
v -0.02050746 -0.01125075 -0.03867418
v -0.02249685 -0.01224707 -0.03764785
v -0.02350439 -0.01321937 -0.03692407
v -0.02350439 -0.01228651 -0.03733033
v -0.01309310 0.00020428 -0.03043360
v -0.02359007 -0.01433572 -0.03641197
v -0.02053317 -0.01428771 -0.03734315
v -0.01892589 -0.01368066 -0.03808510
v -0.01752082 -0.01324167 -0.03868380
v -0.01299201 -0.01177549 -0.03860896
v -0.01266987 -0.01155942 -0.03844646
v -0.01266987 0.00022314 -0.03017702
v -0.01266987 0.00018027 -0.03088369
v -0.01266987 -0.00047994 -0.03263807
v -0.01353862 -0.00041649 -0.03263807
v -0.01453417 -0.00089493 -0.03391564
v -0.01266987 -0.00189981 -0.03588598
v -0.01353862 -0.00128248 -0.03462872
v -0.01266987 -0.00163573 -0.03528408
v -0.01266987 -0.00364551 -0.03825402
v -0.01266987 -0.00898375 -0.04018588
v -0.01318563 -0.00965768 -0.04006186
v -0.01352662 -0.01023386 -0.03992395
v -0.01353862 -0.01125075 -0.03951555
v -0.01451360 -0.01228822 -0.03933701
v -0.01298344 -0.01178063 -0.03912961
v -0.01696564 -0.01269807 -0.03909112
v -0.01266987 -0.00407764 -0.03868914
v -0.01266987 -0.00457494 -0.03918948
v -0.01752082 -0.01251286 -0.03900880
v -0.01847696 -0.01218876 -0.03886875
v -0.01951192 -0.01224707 -0.03853626
v -0.01266987 0.00022314 -0.03049881
v -0.01951192 -0.01298273 -0.03821554
v -0.01856263 -0.01330511 -0.03835665
v -0.01266987 -0.01157486 -0.03860896
v -0.01266987 -0.00074917 -0.03325494
v -0.01266987 -0.00134935 -0.03462872
v -0.01266987 -0.00947934 -0.03998916
v -0.01266987 -0.01013955 -0.03972189
v -0.01266987 -0.01025273 -0.03967592
v -0.01266987 -0.01122846 -0.03927073
v -0.01266987 -0.01131763 -0.03923331
f 1 2 3
f 1 3 4
f 1 4 5
f 1 5 6
f 1 6 7
f 1 7 2
f 2 8 3
f 2 7 9
f 2 9 10
f 2 10 11
f 2 11 8
f 3 8 12
f 3 12 13
f 3 13 14
f 3 14 15
f 3 15 4
f 4 15 14
f 4 14 16
f 4 16 17
f 4 17 18
f 4 18 5
f 5 19 20
f 5 20 6
f 5 18 21
f 5 21 19
f 6 22 7
f 6 20 22
f 7 22 23
f 7 23 24
f 7 24 25
f 7 25 26
f 7 26 9
f 8 11 27
f 8 27 28
f 8 28 12
f 9 26 29
f 9 29 10
f 10 29 30
f 10 30 31
f 10 31 11
f 11 31 27
f 12 28 32
f 12 32 33
f 12 33 13
f 13 33 34
f 13 34 35
f 13 35 36
f 13 36 37
f 13 37 38
f 13 38 39
f 13 39 40
f 13 40 14
f 14 40 76
f 14 76 107
f 14 107 149
f 14 149 147
f 14 147 146
f 14 146 145
f 14 145 144
f 14 144 190
f 14 190 187
f 14 187 141
f 14 141 186
f 14 186 185
f 14 185 249
f 14 249 294
f 14 294 250
f 14 250 191
f 14 191 150
f 14 150 109
f 14 109 84
f 14 84 48
f 14 48 81
f 14 81 80
f 14 80 78
f 14 78 83
f 14 83 108
f 14 108 77
f 14 77 43
f 14 43 42
f 14 42 41
f 14 41 21
f 14 21 18
f 14 18 17
f 14 17 16
f 19 41 20
f 19 21 41
f 20 41 42
f 20 42 43
f 20 43 44
f 20 44 45
f 20 45 22
f 22 45 46
f 22 46 47
f 22 47 48
f 22 48 49
f 22 49 55
f 22 55 23
f 23 50 51
f 23 51 52
f 23 52 53
f 23 53 54
f 23 54 24
f 23 55 50
f 24 54 56
f 24 56 26
f 24 26 25
f 26 56 29
f 27 31 36
f 27 36 35
f 27 35 28
f 28 35 57
f 28 57 58
f 28 58 59
f 28 59 32
f 29 60 30
f 29 56 60
f 30 61 62
f 30 62 63
f 30 63 31
f 30 60 61
f 31 63 64
f 31 64 65
f 31 65 36
f 32 59 66
f 32 66 33
f 33 66 59
f 33 59 58
f 33 58 34
f 34 58 35
f 35 58 57
f 36 65 67
f 36 67 68
f 36 68 69
f 36 69 70
f 36 70 38
f 36 38 37
f 38 70 71
f 38 71 72
f 38 72 39
f 39 72 67
f 39 67 73
f 39 73 74
f 39 74 75
f 39 75 76
f 39 76 40
f 43 77 46
f 43 46 44
f 44 46 45
f 46 78 79
f 46 79 80
f 46 80 81
f 46 81 47
f 46 77 82
f 46 82 83
f 46 83 78
f 47 81 48
f 48 84 55
f 48 55 49
f 50 55 85
f 50 85 86
f 50 86 51
f 51 86 52
f 52 86 87
f 52 87 88
f 52 88 53
f 53 88 54
f 54 89 90
f 54 90 91
f 54 91 92
f 54 92 93
f 54 93 56
f 54 88 94
f 54 94 95
f 54 95 96
f 54 96 89
f 55 84 97
f 55 97 98
f 55 98 85
f 56 93 62
f 56 62 61
f 56 61 60
f 62 99 100
f 62 100 101
f 62 101 63
f 62 93 99
f 63 101 102
f 63 102 64
f 64 102 65
f 65 103 104
f 65 104 67
f 65 102 103
f 67 104 73
f 67 72 68
f 68 72 69
f 69 72 70
f 70 72 71
f 73 104 105
f 73 105 74
f 74 105 106
f 74 106 75
f 75 107 76
f 75 106 107
f 77 108 82
f 78 80 79
f 82 108 83
f 84 109 97
f 85 98 110
f 85 110 87
f 85 87 86
f 87 110 111
f 87 111 88
f 88 111 112
f 88 112 113
f 88 113 114
f 88 114 115
f 88 115 116
f 88 116 95
f 88 95 94
f 89 117 90
f 89 96 117
f 90 117 91
f 91 118 119
f 91 119 120
f 91 120 121
f 91 121 122
f 91 122 92
f 91 117 95
f 91 95 118
f 92 122 123
f 92 123 124
f 92 124 93
f 93 124 125
f 93 125 99
f 95 116 126
f 95 126 127
f 95 127 118
f 95 117 96
f 97 109 128
f 97 128 98
f 98 128 110
f 99 125 129
f 99 129 130
f 99 130 131
f 99 131 100
f 100 102 101
f 100 131 102
f 102 131 132
f 102 132 133
f 102 133 134
f 102 134 135
f 102 135 103
f 103 135 136
f 103 136 137
f 103 137 138
f 103 138 139
f 103 139 105
f 103 105 104
f 105 139 140
f 105 140 141
f 105 141 142
f 105 142 106
f 106 142 143
f 106 143 144
f 106 144 145
f 106 145 146
f 106 146 147
f 106 147 148
f 106 148 107
f 107 148 149
f 109 150 128
f 110 128 111
f 111 151 152
f 111 152 153
f 111 153 112
f 111 128 151
f 112 153 154
f 112 154 155
f 112 155 113
f 113 155 156
f 113 156 157
f 113 157 158
f 113 158 114
f 114 159 160
f 114 160 161
f 114 161 116
f 114 116 115
f 114 158 159
f 116 161 162
f 116 162 163
f 116 163 126
f 118 127 164
f 118 164 119
f 119 165 120
f 119 164 165
f 120 166 215
f 120 215 167
f 120 167 168
f 120 168 121
f 120 165 169
f 120 169 163
f 120 163 170
f 120 170 171
f 120 171 166
f 121 168 172
f 121 172 122
f 122 172 123
f 123 172 173
f 123 173 174
f 123 174 129
f 123 129 124
f 124 129 125
f 126 163 127
f 127 163 164
f 128 150 175
f 128 175 151
f 129 174 176
f 129 176 177
f 129 177 178
f 129 178 179
f 129 179 132
f 129 132 130
f 130 132 131
f 132 179 134
f 132 134 133
f 134 179 178
f 134 178 177
f 134 177 176
f 134 176 135
f 135 180 136
f 135 176 180
f 136 180 137
f 137 181 138
f 137 180 182
f 137 182 183
f 137 183 181
f 138 181 184
f 138 184 139
f 139 185 186
f 139 186 140
f 139 184 185
f 140 186 141
f 141 187 142
f 142 187 188
f 142 188 143
f 143 188 189
f 143 189 144
f 144 189 190
f 147 149 148
f 150 191 233
f 150 233 175
f 151 175 192
f 151 192 153
f 151 153 152
f 153 192 175
f 153 175 193
f 153 193 194
f 153 194 155
f 153 155 154
f 155 194 195
f 155 195 196
f 155 196 197
f 155 197 198
f 155 198 156
f 156 198 157
f 157 198 199
f 157 199 200
f 157 200 201
f 157 201 158
f 158 201 200
f 158 200 159
f 159 200 202
f 159 202 203
f 159 203 204
f 159 204 205
f 159 205 206
f 159 206 160
f 160 206 207
f 160 207 208
f 160 208 209
f 160 209 210
f 160 210 161
f 161 210 211
f 161 211 212
f 161 212 170
f 161 170 162
f 162 170 163
f 163 169 164
f 164 169 165
f 166 213 214
f 166 214 215
f 166 171 213
f 167 216 217
f 167 217 218
f 167 218 219
f 167 219 220
f 167 220 221
f 167 221 168
f 167 215 222
f 167 222 223
f 167 223 216
f 168 221 172
f 170 212 171
f 171 224 276
f 171 276 311
f 171 311 310
f 171 310 302
f 171 302 262
f 171 262 261
f 171 261 206
f 171 206 205
f 171 205 204
f 171 204 260
f 171 260 299
f 171 299 301
f 171 301 320
f 171 320 319
f 171 319 296
f 171 296 254
f 171 254 253
f 171 253 295
f 171 295 315
f 171 315 294
f 171 294 249
f 171 249 248
f 171 248 293
f 171 293 318
f 171 318 325
f 171 325 324
f 171 324 323
f 171 323 322
f 171 322 321
f 171 321 303
f 171 303 266
f 171 266 214
f 171 214 213
f 171 212 224
f 172 225 226
f 172 226 227
f 172 227 173
f 172 221 220
f 172 220 225
f 173 227 228
f 173 228 229
f 173 229 230
f 173 230 174
f 174 230 231
f 174 231 176
f 175 232 193
f 175 233 234
f 175 234 232
f 176 231 180
f 180 235 182
f 180 231 235
f 181 183 236
f 181 236 184
f 182 235 237
f 182 237 238
f 182 238 183
f 183 238 239
f 183 239 240
f 183 240 236
f 184 241 242
f 184 242 185
f 184 236 243
f 184 243 241
f 185 242 244
f 185 244 245
f 185 245 246
f 185 246 247
f 185 247 248
f 185 248 249
f 187 189 188
f 187 190 189
f 191 250 287
f 191 287 233
f 193 232 194
f 194 232 251
f 194 251 195
f 195 251 196
f 196 234 233
f 196 233 197
f 196 251 232
f 196 232 234
f 197 233 252
f 197 252 199
f 197 199 198
f 199 252 253
f 199 253 254
f 199 254 200
f 200 254 255
f 200 255 202
f 202 256 257
f 202 257 258
f 202 258 259
f 202 259 203
f 202 255 256
f 203 259 204
f 204 259 260
f 206 261 207
f 207 261 262
f 207 262 208
f 208 262 209
f 209 262 263
f 209 263 264
f 209 264 210
f 210 264 265
f 210 265 211
f 211 265 212
f 212 265 224
f 214 266 267
f 214 267 215
f 215 267 222
f 216 223 268
f 216 268 217
f 217 268 269
f 217 269 270
f 217 270 218
f 218 270 225
f 218 225 219
f 219 225 220
f 222 267 271
f 222 271 272
f 222 272 273
f 222 273 274
f 222 274 223
f 223 274 268
f 224 275 276
f 224 265 275
f 225 270 277
f 225 277 269
f 225 269 278
f 225 278 279
f 225 279 227
f 225 227 226
f 227 280 228
f 227 279 274
f 227 274 281
f 227 281 282
f 227 282 280
f 228 280 283
f 228 283 284
f 228 284 285
f 228 285 286
f 228 286 229
f 229 286 231
f 229 231 230
f 231 286 235
f 233 287 252
f 235 288 289
f 235 289 237
f 235 286 285
f 235 285 288
f 236 240 273
f 236 273 272
f 236 272 243
f 237 289 239
f 237 239 238
f 239 289 290
f 239 290 291
f 239 291 240
f 240 291 273
f 241 245 244
f 241 244 242
f 241 243 246
f 241 246 245
f 243 272 271
f 243 271 246
f 246 271 292
f 246 292 247
f 247 292 293
f 247 293 248
f 250 294 315
f 250 315 287
f 252 287 253
f 253 287 295
f 254 296 297
f 254 297 255
f 255 298 256
f 255 297 298
f 256 298 257
f 257 299 260
f 257 260 258
f 257 298 300
f 257 300 301
f 257 301 299
f 258 260 259
f 262 302 263
f 263 302 275
f 263 275 264
f 264 275 265
f 266 303 267
f 267 303 304
f 267 304 305
f 267 305 306
f 267 306 307
f 267 307 271
f 268 274 279
f 268 279 278
f 268 278 269
f 269 277 270
f 271 307 308
f 271 308 292
f 273 291 309
f 273 309 282
f 273 282 281
f 273 281 274
f 275 302 310
f 275 310 311
f 275 311 276
f 280 282 283
f 282 309 312
f 282 312 313
f 282 313 283
f 283 313 314
f 283 314 289
f 283 289 284
f 284 289 285
f 285 289 288
f 287 315 295
f 289 314 316
f 289 316 290
f 290 316 317
f 290 317 309
f 290 309 291
f 292 308 318
f 292 318 293
f 296 319 298
f 296 298 297
f 298 319 300
f 300 320 301
f 300 319 320
f 303 321 304
f 304 321 322
f 304 322 306
f 304 306 305
f 306 322 323
f 306 323 324
f 306 324 325
f 306 325 308
f 306 308 307
f 308 325 318
f 309 317 312
f 312 317 313
f 313 317 314
f 314 317 316

