# https://github.com/mikedh/trimesh
v -0.01266816 -0.01157600 -0.03860952
v -0.01266816 -0.01155926 -0.03844690
v -0.01266816 -0.01131800 -0.03923360
v -0.01115260 -0.01068286 -0.03882789
v -0.00905539 -0.00976018 -0.03811819
v -0.01103568 -0.01076065 -0.03816417
v -0.01103568 -0.01076065 -0.03810613
v -0.01266816 -0.01128748 -0.03793028
v -0.01181662 -0.01087980 -0.03917153
v -0.01266816 -0.01025352 -0.03967665
v -0.01254241 -0.01025647 -0.03964045
v -0.01150998 -0.01031260 -0.03932784
v -0.01055182 -0.00997189 -0.03919624
v -0.01000987 -0.00978283 -0.03911981
v -0.00777956 -0.00889855 -0.03835495
v -0.00905539 -0.00976018 -0.03811015
v -0.00600222 -0.00786459 -0.03823830
v -0.00593972 -0.00790792 -0.03761480
v -0.00606914 -0.00777006 -0.03611611
v -0.00561248 -0.00702364 -0.03501105
v -0.01266742 -0.00700493 -0.03501105
v -0.01266816 -0.00700493 -0.03501163
v -0.01266816 -0.01014028 -0.03972262
v -0.01254241 -0.00893892 -0.04017372
v -0.01164455 -0.00822894 -0.04020993
v -0.01055182 -0.00926092 -0.03948644
v -0.00962969 -0.00924025 -0.03923589
v -0.00886567 -0.00889559 -0.03916119
v -0.00820238 -0.00866812 -0.03901868
v -0.00657138 -0.00807040 -0.03845322
v -0.00599045 -0.00783702 -0.03661950
v -0.00773911 -0.00800442 -0.03920199
v -0.00723908 -0.00726982 -0.03903764
v -0.00657138 -0.00726982 -0.03864573
v -0.00601251 -0.00726982 -0.03821761
v -0.00584559 -0.00726982 -0.03761480
v -0.00515657 -0.00627526 -0.03501105
v -0.01266816 -0.00686018 -0.03501105
v -0.01266816 -0.00947953 -0.03998984
v -0.01254241 -0.00826537 -0.04044611
v -0.01089817 -0.00787247 -0.04014499
v -0.01056065 -0.00822894 -0.03990651
v -0.00955689 -0.00826537 -0.03961056
v -0.00854506 -0.00830772 -0.03930945
v -0.01264095 -0.00717135 -0.04086560
v -0.01266816 -0.00714476 -0.04088169
v -0.01154748 -0.00726982 -0.04050587
v -0.00955689 -0.00726982 -0.03983008
v -0.00773691 -0.00726982 -0.03921176
v -0.00795310 -0.00663665 -0.03915199
v -0.00759940 -0.00629397 -0.03889512
v -0.00702656 -0.00471349 -0.03813486
v -0.00687214 -0.00528069 -0.03822853
v -0.01082022 -0.00627526 -0.04019498
v -0.00606399 -0.00672921 -0.03812624
v -0.00653829 -0.00634911 -0.03834518
v -0.00567058 -0.00627526 -0.03661950
v -0.00517422 -0.00618860 -0.03501105
v -0.01266816 -0.00151611 -0.03501105
v -0.01266816 -0.00898520 -0.04018579
v -0.01266816 -0.00826537 -0.04046565
v -0.01266816 -0.00640130 -0.04078515
v -0.01154748 -0.00627526 -0.04044381
v -0.01032239 -0.00627526 -0.03999386
v -0.00955689 -0.00627526 -0.03968355
v -0.00756631 -0.00528069 -0.03854688
v -0.00730967 -0.00404979 -0.03802510
v -0.00683316 -0.00348752 -0.03736195
v -0.00671771 -0.00434324 -0.03766249
v -0.01103200 -0.00576616 -0.04010994
v -0.00855829 -0.00525312 -0.03893995
v -0.00888699 -0.00556626 -0.03917728
v -0.00618459 -0.00606650 -0.03791994
v -0.00616326 -0.00428514 -0.03683960
v -0.00609782 -0.00489763 -0.03704130
v -0.00597060 -0.00634911 -0.03759871
v -0.00536320 -0.00528168 -0.03501105
v -0.00590442 -0.00525016 -0.03667352
v -0.00556028 -0.00528069 -0.03562421
v -0.01088567 -0.00165200 -0.03501105
v -0.00992089 -0.00178592 -0.03514954
v -0.01154748 -0.00172389 -0.03529149
v -0.01266816 -0.00163526 -0.03528401
v -0.01266816 -0.00563125 -0.04024498
v -0.01254241 -0.00563223 -0.04024555
v -0.01154748 -0.00570018 -0.04017315
v -0.00797295 -0.00374650 -0.03814578
v -0.00738468 -0.00282382 -0.03705164
v -0.00692508 -0.00268989 -0.03638792
v -0.00654711 -0.00329156 -0.03660571
v -0.00606105 -0.00375930 -0.03615921
v -0.00600222 -0.00428514 -0.03634195
v -0.00577206 -0.00428514 -0.03562421
v -0.00544924 -0.00487794 -0.03501105
v -0.01008855 -0.00171305 -0.03501105
v -0.00925761 -0.00181153 -0.03508921
v -0.00856197 -0.00253234 -0.03661950
v -0.01154748 -0.00194151 -0.03578913
v -0.01266816 -0.00187159 -0.03582419
v -0.01266816 -0.00556823 -0.04018521
v -0.01254241 -0.00513397 -0.03974848
v -0.01055182 -0.00417485 -0.03871641
v -0.00955689 -0.00369726 -0.03820210
v -0.01055182 -0.00467312 -0.03921176
v -0.00986280 -0.00471448 -0.03916751
v -0.00856197 -0.00371597 -0.03817853
v -0.00856197 -0.00321770 -0.03764353
v -0.00804796 -0.00279034 -0.03711888
v -0.00852667 -0.00186273 -0.03501105
v -0.00756631 -0.00222708 -0.03562421
v -0.00756631 -0.00199074 -0.03501105
v -0.00676331 -0.00254317 -0.03562421
v -0.00626547 -0.00283169 -0.03501105
v -0.00616620 -0.00294297 -0.03501105
v -0.00626621 -0.00310348 -0.03562421
v -0.00737217 -0.00206755 -0.03501105
v -0.00566028 -0.00402222 -0.03501105
v -0.00558160 -0.00428514 -0.03501105
v -0.00597575 -0.00360076 -0.03562421
v -0.00932158 -0.00177411 -0.03501105
v -0.00871860 -0.00184107 -0.03501105
v -0.01266816 -0.00189917 -0.03588682
v -0.01266816 -0.00506996 -0.03968814
v -0.01266816 -0.00463767 -0.03925313
v -0.01266816 -0.00314779 -0.03775387
v -0.01154748 -0.00316650 -0.03773490
v -0.01055182 -0.00318324 -0.03771709
v -0.00955689 -0.00319998 -0.03768893
v -0.00955689 -0.00273618 -0.03719071
v -0.00856197 -0.00277064 -0.03714588
v -0.00666330 -0.00242599 -0.03501105
v -0.00610885 -0.00304144 -0.03501105
v -0.00591251 -0.00340086 -0.03501105
v -0.01266816 -0.00222708 -0.03653675
v -0.01266816 -0.00308674 -0.03769123
v -0.01254241 -0.00266922 -0.03725392
v -0.01154748 -0.00268989 -0.03723726
v -0.01055182 -0.00270959 -0.03721944
v -0.01266816 -0.00227237 -0.03661950
v -0.01266816 -0.00266725 -0.03725622
v -0.01266816 -0.00261309 -0.03717404
f 1 2 8
f 1 8 22
f 1 22 38
f 1 38 59
f 1 59 83
f 1 83 99
f 1 99 122
f 1 122 134
f 1 134 139
f 1 139 141
f 1 141 140
f 1 140 135
f 1 135 125
f 1 125 124
f 1 124 123
f 1 123 100
f 1 100 84
f 1 84 62
f 1 62 46
f 1 46 61
f 1 61 60
f 1 60 39
f 1 39 23
f 1 23 10
f 1 10 3
f 1 3 4
f 1 4 5
f 1 5 6
f 1 6 7
f 1 7 2
f 2 7 8
f 3 9 4
f 3 10 11
f 3 11 12
f 3 12 13
f 3 13 14
f 3 14 9
f 4 9 15
f 4 15 5
f 5 16 7
f 5 7 6
f 5 15 17
f 5 17 18
f 5 18 16
f 7 16 19
f 7 19 20
f 7 20 8
f 8 20 21
f 8 21 22
f 9 14 17
f 9 17 15
f 10 23 11
f 11 23 24
f 11 24 25
f 11 25 26
f 11 26 12
f 12 26 27
f 12 27 28
f 12 28 13
f 13 28 14
f 14 28 29
f 14 29 30
f 14 30 17
f 16 18 31
f 16 31 19
f 17 30 32
f 17 32 33
f 17 33 34
f 17 34 35
f 17 35 36
f 17 36 37
f 17 37 18
f 18 20 31
f 18 37 20
f 19 31 20
f 20 37 58
f 20 58 77
f 20 77 94
f 20 94 118
f 20 118 117
f 20 117 133
f 20 133 132
f 20 132 114
f 20 114 113
f 20 113 131
f 20 131 116
f 20 116 111
f 20 111 109
f 20 109 121
f 20 121 120
f 20 120 95
f 20 95 80
f 20 80 59
f 20 59 38
f 20 38 21
f 21 38 22
f 23 39 24
f 24 39 40
f 24 40 25
f 25 41 42
f 25 42 26
f 25 40 41
f 26 43 44
f 26 44 28
f 26 28 27
f 26 42 43
f 28 44 32
f 28 32 29
f 29 32 30
f 32 41 45
f 32 45 46
f 32 46 47
f 32 47 48
f 32 48 49
f 32 49 33
f 32 44 41
f 33 50 51
f 33 51 52
f 33 52 53
f 33 53 34
f 33 49 54
f 33 54 50
f 34 55 35
f 34 53 56
f 34 56 55
f 35 55 37
f 35 37 36
f 37 55 57
f 37 57 58
f 39 60 40
f 40 60 61
f 40 61 46
f 40 46 45
f 40 45 41
f 41 44 43
f 41 43 42
f 46 62 63
f 46 63 49
f 46 49 48
f 46 48 47
f 49 63 54
f 50 54 64
f 50 64 65
f 50 65 66
f 50 66 51
f 51 66 52
f 52 66 67
f 52 67 68
f 52 68 69
f 52 69 55
f 52 55 53
f 53 55 56
f 54 63 70
f 54 70 71
f 54 71 72
f 54 72 64
f 55 69 68
f 55 68 73
f 55 73 74
f 55 74 75
f 55 75 76
f 55 76 57
f 57 77 58
f 57 76 78
f 57 78 79
f 57 79 77
f 59 80 81
f 59 81 82
f 59 82 83
f 62 84 85
f 62 85 86
f 62 86 70
f 62 70 63
f 64 72 65
f 65 72 66
f 66 72 71
f 66 71 67
f 67 71 70
f 67 70 87
f 67 87 68
f 68 88 89
f 68 89 90
f 68 90 91
f 68 91 74
f 68 74 73
f 68 87 88
f 70 86 87
f 74 91 92
f 74 92 75
f 75 92 78
f 75 78 76
f 77 79 92
f 77 92 93
f 77 93 94
f 78 92 79
f 80 95 81
f 81 95 96
f 81 96 97
f 81 97 82
f 82 97 98
f 82 98 83
f 83 98 99
f 84 100 85
f 85 100 123
f 85 123 101
f 85 101 102
f 85 102 103
f 85 103 104
f 85 104 87
f 85 87 105
f 85 105 86
f 86 105 87
f 87 104 106
f 87 106 107
f 87 107 108
f 87 108 88
f 88 108 96
f 88 96 109
f 88 109 110
f 88 110 111
f 88 111 89
f 89 112 113
f 89 113 114
f 89 114 115
f 89 115 90
f 89 111 116
f 89 116 112
f 90 115 91
f 91 117 118
f 91 118 93
f 91 93 92
f 91 115 119
f 91 119 117
f 93 118 94
f 95 120 96
f 96 120 121
f 96 121 109
f 96 108 97
f 97 99 98
f 97 108 99
f 99 108 122
f 101 123 124
f 101 124 125
f 101 125 102
f 102 125 103
f 103 125 126
f 103 126 127
f 103 127 106
f 103 106 104
f 106 127 128
f 106 128 107
f 107 128 129
f 107 129 130
f 107 130 108
f 108 130 122
f 109 111 110
f 112 116 131
f 112 131 113
f 114 132 119
f 114 119 115
f 117 119 133
f 119 132 133
f 122 130 134
f 125 135 126
f 126 135 136
f 126 136 127
f 127 136 137
f 127 137 138
f 127 138 128
f 128 138 129
f 129 138 139
f 129 139 134
f 129 134 130
f 135 140 136
f 136 138 137
f 136 140 141
f 136 141 138
f 138 141 139

