# https://github.com/mikedh/trimesh
v 0.03399076 0.00205917 0.03532652
v 0.03399076 0.00013697 0.03477120
v 0.03926303 0.01007362 0.02942998
v 0.03399076 0.00336189 0.03446069
v 0.03629098 0.00013697 0.03118793
v 0.03399076 0.00013697 0.02331822
v 0.04141000 0.01583793 0.01933735
v 0.04042730 0.02207139 0.01854381
v 0.03772617 0.02340372 0.01854381
v 0.03399076 0.00649115 0.03237579
v 0.03768113 0.00114134 0.02931169
v 0.03994504 0.00101608 0.01854381
v 0.03735793 0.00013697 0.02892067
v 0.03529231 0.00013697 0.01854381
v 0.03771818 0.02339916 0.01854381
v 0.04139983 0.01521162 0.01854381
v 0.04130541 0.01660999 0.01854381
v 0.04103886 0.01899907 0.01854381
v 0.04081007 0.00910569 0.01854381
v 0.04122842 0.01302296 0.01854381
v 0.03835152 0.00013697 0.02530290
v 0.03978670 0.00013697 0.01854381
f 1 2 3
f 1 3 4
f 1 4 10
f 1 10 6
f 1 6 2
f 2 5 3
f 2 6 14
f 2 14 22
f 2 22 21
f 2 21 13
f 2 13 5
f 3 7 8
f 3 8 9
f 3 9 10
f 3 10 4
f 3 5 11
f 3 11 12
f 3 12 7
f 5 13 11
f 6 10 15
f 6 15 14
f 7 16 17
f 7 17 18
f 7 18 8
f 7 12 19
f 7 19 20
f 7 20 16
f 8 18 17
f 8 17 16
f 8 16 20
f 8 20 19
f 8 19 12
f 8 12 22
f 8 22 14
f 8 14 15
f 8 15 9
f 9 15 10
f 11 13 21
f 11 21 12
f 12 21 22

