# https://github.com/mikedh/trimesh
v -0.03686395 -0.03446554 -0.00839353
v -0.04177018 -0.02571372 -0.01548993
v -0.03911613 -0.02694561 -0.01548993
v -0.03686395 -0.03343672 -0.00951874
v -0.03686395 -0.03372438 -0.00628967
v -0.03958770 -0.02671886 -0.00409598
v -0.04235907 -0.02436337 -0.01548993
v -0.03867069 -0.02695237 -0.01548993
v -0.03686395 -0.02938569 -0.01326314
v -0.03686395 -0.01961180 0.01110855
v -0.03686395 -0.00173248 0.03108814
v -0.04004998 -0.00707969 0.01626656
v -0.04266338 -0.02301642 -0.01548993
v -0.03693364 0.00010858 -0.01548993
v -0.03686395 -0.02039696 -0.00507936
v -0.03686395 0.00010858 0.03280906
v -0.04023408 0.00010858 0.02240794
v -0.04255885 -0.01540172 -0.00619039
v -0.04270578 -0.00640622 -0.01548993
v -0.04279696 0.00010858 0.00706630
v -0.04154775 0.00010858 -0.01548993
v -0.03686395 0.00010858 0.01538247
v -0.04258440 0.00010858 -0.00914052
f 1 2 3
f 1 3 4
f 1 4 9
f 1 9 15
f 1 15 22
f 1 22 16
f 1 16 11
f 1 11 10
f 1 10 5
f 1 5 6
f 1 6 2
f 2 6 7
f 2 7 13
f 2 13 19
f 2 19 21
f 2 21 14
f 2 14 8
f 2 8 3
f 3 8 4
f 4 8 9
f 5 10 6
f 6 10 11
f 6 11 12
f 6 12 7
f 7 12 13
f 8 14 9
f 9 14 15
f 11 16 12
f 12 16 17
f 12 17 18
f 12 18 13
f 13 18 20
f 13 20 19
f 14 21 23
f 14 23 20
f 14 20 17
f 14 17 16
f 14 16 22
f 14 22 15
f 17 20 18
f 19 20 23
f 19 23 21

