# https://github.com/mikedh/trimesh
v -0.03662444 0.00011188 -0.03155020
v -0.03964770 0.00011188 -0.02485695
v -0.03662444 0.01180445 -0.01913381
v -0.03662444 0.00011188 -0.01693669
v -0.04031222 0.00011188 -0.02304964
v -0.04022230 0.00066930 -0.02299206
v -0.03662444 0.02782441 -0.00109615
v -0.03662444 0.01629676 0.00059599
v -0.03735546 0.00011188 0.01370341
v -0.04258475 0.00011188 -0.00914045
v -0.04242278 0.00881616 -0.00066204
v -0.04183524 0.02406762 0.01370341
v -0.04090776 0.02751767 0.01370341
v -0.03810373 0.03136022 0.00645645
v -0.03662444 0.03279499 0.00513641
v -0.03662444 0.02951316 0.01365026
v -0.03664045 0.02945049 0.01370341
v -0.04165603 0.00011188 0.01370341
v -0.04279660 0.00011188 0.00706332
v -0.04291608 0.00787614 0.01370341
v -0.04288097 0.01051150 0.01370341
v -0.03974993 0.02926578 0.01370341
v -0.03662444 0.03380428 0.01031028
v -0.03662444 0.03366245 0.00771448
v -0.03662444 0.02954944 0.01362368
v -0.03666262 0.02946038 0.01370341
v -0.03662444 0.02990896 0.01334461
f 1 2 3
f 1 3 7
f 1 7 15
f 1 15 24
f 1 24 23
f 1 23 27
f 1 27 25
f 1 25 16
f 1 16 8
f 1 8 4
f 1 4 9
f 1 9 18
f 1 18 19
f 1 19 10
f 1 10 5
f 1 5 2
f 2 5 6
f 2 6 3
f 3 6 7
f 4 8 9
f 5 10 11
f 5 11 6
f 6 11 12
f 6 12 13
f 6 13 14
f 6 14 7
f 7 14 15
f 8 16 9
f 9 16 17
f 9 17 26
f 9 26 22
f 9 22 13
f 9 13 12
f 9 12 21
f 9 21 20
f 9 20 18
f 10 19 20
f 10 20 21
f 10 21 11
f 11 21 12
f 13 22 23
f 13 23 14
f 14 23 24
f 14 24 15
f 16 25 17
f 17 25 26
f 18 20 19
f 22 26 23
f 23 26 27
f 25 27 26

