# https://github.com/mikedh/trimesh
v 0.03528843 0.00013698 -0.03147548
v 0.03606321 0.00013698 -0.02966389
v 0.03528843 0.00013698 -0.01329110
v 0.03528843 0.02926972 0.00082946
v 0.03666927 0.03227842 0.00733157
v 0.03823498 0.00682704 -0.01678696
v 0.03883207 0.00013698 -0.02006740
v 0.03529202 0.00013698 0.01854381
v 0.03528843 0.02803376 0.01407850
v 0.03528843 0.03385236 0.00660694
v 0.03528843 0.03398822 0.00933411
v 0.03637671 0.03276883 0.01039658
v 0.04054137 0.02324237 0.01747644
v 0.04049471 0.02261942 0.01238932
v 0.04089077 0.00013698 -0.00481093
v 0.03978694 0.00013698 0.01854381
v 0.03771866 0.02339810 0.01854381
v 0.03772644 0.02340142 0.01854381
v 0.03528843 0.03352432 0.00975518
v 0.04042770 0.02207268 0.01854381
v 0.04103915 0.01899771 0.01854381
v 0.04130539 0.01661195 0.01854381
v 0.04117196 0.00013698 -0.00052188
v 0.03994488 0.00101507 0.01854381
v 0.04001069 0.00013698 0.01748623
v 0.04139991 0.01521363 0.01854381
v 0.04122880 0.01302669 0.01854381
v 0.04040018 0.00013698 0.01491574
v 0.04081000 0.00910676 0.01854381
f 1 2 7
f 1 7 15
f 1 15 23
f 1 23 28
f 1 28 25
f 1 25 16
f 1 16 8
f 1 8 3
f 1 3 9
f 1 9 19
f 1 19 11
f 1 11 10
f 1 10 4
f 1 4 5
f 1 5 2
f 2 6 7
f 2 5 6
f 3 8 9
f 4 10 5
f 5 10 11
f 5 11 12
f 5 12 13
f 5 13 14
f 5 14 6
f 6 14 7
f 7 14 15
f 8 16 24
f 8 24 29
f 8 29 27
f 8 27 26
f 8 26 22
f 8 22 21
f 8 21 20
f 8 20 18
f 8 18 17
f 8 17 9
f 9 17 18
f 9 18 19
f 11 19 12
f 12 19 18
f 12 18 13
f 13 18 20
f 13 20 21
f 13 21 22
f 13 22 14
f 14 22 15
f 15 22 23
f 16 25 24
f 22 26 23
f 23 26 27
f 23 27 28
f 24 25 28
f 24 28 29
f 27 29 28

