# https://github.com/mikedh/trimesh
v -0.01543494 0.00830556 -0.04523224
v -0.01543494 0.01092112 -0.04699713
v -0.01541511 0.00831385 -0.04524178
v -0.00096516 0.01069728 -0.04813239
v -0.00096516 0.00917603 -0.04498420
v -0.01543494 0.04470370 0.00017318
v -0.01543494 0.01107449 -0.04705437
v -0.01473524 0.01133149 -0.04728333
v -0.00235746 0.01093356 -0.04831364
v -0.00096516 0.01125687 -0.04846152
v -0.00096516 0.04714931 -0.00180159
v -0.00096516 0.05065192 -0.00422474
v -0.01543494 0.04817729 -0.00224997
v -0.01543494 0.01225584 -0.04581418
v -0.00524972 0.02202585 -0.03917437
v -0.00096516 0.01829111 -0.04318592
v -0.00096516 0.01228900 -0.04855692
v -0.01543494 0.03259585 -0.02257961
v -0.01299167 0.03628085 -0.01981303
v -0.00096516 0.04511406 -0.01210951
v -0.01156679 0.04957834 -0.00348539
v -0.01543494 0.04737728 -0.00442508
v -0.00096516 0.04506847 -0.01216675
v -0.00096516 0.04488194 -0.01239094
v -0.01543494 0.03918242 -0.01491426
f 1 2 3
f 1 3 4
f 1 4 5
f 1 5 6
f 1 6 13
f 1 13 22
f 1 22 25
f 1 25 18
f 1 18 14
f 1 14 7
f 1 7 2
f 2 7 8
f 2 8 9
f 2 9 3
f 3 9 4
f 4 9 10
f 4 10 17
f 4 17 16
f 4 16 24
f 4 24 23
f 4 23 20
f 4 20 12
f 4 12 11
f 4 11 5
f 5 11 6
f 6 11 12
f 6 12 13
f 7 14 8
f 8 15 16
f 8 16 17
f 8 17 9
f 8 14 18
f 8 18 19
f 8 19 15
f 9 17 10
f 12 20 21
f 12 21 13
f 13 21 22
f 15 19 23
f 15 23 24
f 15 24 16
f 18 25 19
f 19 25 21
f 19 21 20
f 19 20 23
f 21 25 22

