# https://github.com/mikedh/trimesh
v -0.03012111 0.00842904 -0.01398182
v -0.03092763 0.02130710 -0.00439736
v -0.02991101 0.01865219 -0.00143427
v -0.02787444 0.01923228 -0.00743766
v -0.02969479 0.02553901 0.00478157
v -0.03075788 0.02843142 0.00098203
v -0.02969618 -0.00810630 -0.02562931
v -0.02964778 0.00117533 -0.01583810
v -0.02990256 -0.00017866 -0.02020095
v -0.02843401 -0.01293876 -0.02342105
v -0.02390079 0.00253256 0.01053182
v -0.02456611 0.02991095 -0.00118730
v -0.02881444 -0.01117237 -0.02712066
v -0.02493218 -0.01668843 -0.01117760
v -0.02722773 -0.00265672 -0.02314206
v -0.02034178 0.00454018 -0.02057892
v -0.02723825 0.01826343 0.01018583
v -0.02787468 0.02675748 0.00430594
v -0.02399007 -0.00958950 -0.02893588
v -0.02298187 -0.01221345 0.00121396
v -0.02600613 0.02050545 0.01330364
v -0.02549963 -0.01571267 -0.02112267
v -0.02477184 -0.01970849 -0.01526774
v -0.01478582 0.02509493 0.00789409
v -0.02391455 0.01535783 0.01979012
v -0.01749252 -0.01013389 -0.02851089
v -0.01963133 -0.02899938 -0.00221057
v -0.01318376 -0.00507572 -0.02999759
v -0.01383200 0.02189604 -0.01053890
v -0.01453641 0.03215800 -0.00227511
v -0.02188521 0.00881963 0.02491533
v -0.01256627 -0.01585265 -0.02040940
v -0.02164085 0.01164952 0.02578595
v -0.01145353 0.01081262 0.02794162
v -0.02132562 0.01452787 0.02218824
v -0.01904953 -0.02401774 -0.00949526
v -0.01877470 -0.00141643 0.02982530
v -0.01948695 0.00706077 0.03236368
v -0.01914735 -0.02839954 0.00340907
v -0.01733581 -0.02315001 0.01633583
v -0.01706842 -0.00987233 0.02872140
v -0.01774544 0.00311350 0.03708254
v -0.01616840 -0.03415223 0.01085942
v -0.00841868 -0.02900281 -0.00180263
v -0.01686744 -0.01665803 0.02399584
v -0.01344848 -0.00792883 -0.03095371
v -0.01628749 -0.03515674 0.00681117
v -0.01443356 -0.03283850 0.00321499
v -0.01696727 -0.00145884 0.03668006
v -0.01621612 -0.02090254 0.02255581
v -0.01603473 -0.00640395 0.03343448
v -0.01590116 0.00125379 0.03878363
v -0.01575623 0.00346041 0.03793781
v -0.00899810 0.03280265 -0.00496497
v -0.01581922 -0.02787100 0.01789167
v -0.01588786 -0.01192251 0.02956875
v -0.01463294 -0.03759143 0.01034494
v -0.01494505 -0.03597472 0.01222768
v -0.01307771 -0.00211033 0.03554836
v -0.01386002 -0.03095630 0.01564434
v -0.01358253 -0.02363551 0.02046400
v -0.01353779 -0.01764271 0.02489601
v -0.00550694 -0.00591859 0.03022542
v -0.00739245 -0.03536186 0.00724741
v -0.00867377 -0.03541199 0.01060034
v -0.00553895 -0.02816867 0.01447039
v -0.01126001 0.00304161 0.03806179
v 0.00076457 0.03301254 -0.00232486
v 0.00255824 0.00931251 -0.02542801
v -0.00811891 -0.03645956 0.00916052
v -0.00052192 -0.01589101 0.02127655
v 0.00798922 0.02219633 0.01321391
v -0.00812361 0.00277077 0.03691474
v -0.00368178 -0.00575685 -0.03338379
v -0.00642186 -0.00846608 -0.03002634
v 0.00941263 0.03221084 -0.01191883
v -0.00330486 -0.02032538 -0.01359469
v -0.00384445 0.00526231 0.03593160
v 0.00501355 -0.01332494 -0.02277760
v -0.00177088 -0.03488999 0.00819832
v 0.01066651 -0.02417178 -0.00738471
v -0.00144674 0.00463065 0.03584911
v 0.00199489 -0.00550871 -0.03378049
v 0.00552604 -0.00335058 0.02773676
v 0.00436204 -0.03390529 0.00606328
v 0.00644592 -0.00340183 -0.03595274
v 0.01362026 0.01273449 0.02664363
v 0.00749095 -0.02361171 0.01286374
v 0.00542179 0.00507512 0.03385020
v 0.00439421 0.00684751 0.03399046
v 0.01005322 -0.03259221 0.00562009
v 0.01104498 -0.03094965 0.00215026
v 0.01201524 0.00058394 -0.03550478
v 0.01089960 0.03758338 -0.00848365
v 0.01267910 -0.00585591 -0.03279177
v 0.01225896 0.00829200 0.03256237
v 0.01389512 -0.01099741 0.01943478
v 0.01927229 0.00089534 0.02590961
v 0.01866010 -0.02734507 0.00622469
v 0.01363805 0.01138721 -0.02829654
v 0.01905279 0.00786992 0.03063067
v 0.01994995 -0.01230247 -0.02347791
v 0.01502337 0.03597231 -0.00537256
v 0.02288396 -0.01459856 0.01361338
v 0.01563866 0.03086731 -0.01523765
v 0.01514132 0.03822174 -0.00931826
v 0.02068440 -0.03053268 0.00245474
v 0.01698253 -0.00232546 -0.03692207
v 0.01727785 0.00596913 -0.03234038
v 0.01595493 0.01867595 -0.02392292
v 0.02409570 -0.02861412 -0.00035646
v 0.01712534 -0.00044319 -0.03767174
v 0.01660686 0.03450186 -0.00996775
v 0.01714082 0.03565420 -0.00577623
v 0.01757520 0.01416904 -0.02317010
v 0.01683027 0.02309182 -0.01893178
v 0.01661090 0.03004451 -0.01393551
v 0.01948351 0.01880813 -0.01134767
v 0.01882170 0.02910179 0.00439641
v 0.01860413 0.03253953 -0.00063573
v 0.02425188 -0.02368125 -0.00741511
v 0.01903887 -0.00516256 -0.03279852
v 0.02118369 0.00244165 -0.01850938
v 0.01966508 0.03030943 -0.00046941
v 0.02632054 -0.00534445 0.01883885
v 0.02032587 -0.00524943 -0.02939474
v 0.02438594 0.01057029 0.02980471
v 0.02300048 0.02374939 0.01149247
v 0.02329970 0.02111158 0.00739152
v 0.02125636 0.02783651 0.00542175
v 0.02280481 -0.01196054 -0.02298196
v 0.02587948 0.01641018 0.02179054
v 0.02722252 -0.02145274 0.00733546
v 0.02408776 -0.01843542 -0.01482350
v 0.02495487 -0.01414842 -0.01639797
v 0.02606812 -0.02919886 0.00189809
v 0.02562332 0.00720384 0.00575295
v 0.02542980 -0.00452667 -0.00562548
v 0.02562467 0.01935202 0.01690263
v 0.02689001 0.01670414 0.02063468
v 0.02808062 -0.01548945 -0.00388495
v 0.02833291 0.00127198 0.02282517
v 0.02869429 0.01095662 0.02878983
v 0.02690101 0.01301917 0.01658028
v 0.02909083 -0.02616817 -0.00355249
v 0.02830908 -0.02263116 -0.00791776
v 0.02838933 0.00702236 0.02678109
v 0.02941908 -0.00789058 0.00843978
v 0.03037512 -0.02637107 0.00225396
v 0.02904148 0.01277024 0.02558613
v 0.03098870 -0.01439717 0.01016874
v 0.02954805 0.00554380 0.02161445
v 0.03021075 -0.00902865 0.01480091
v 0.03020057 -0.00128943 0.02000075
v 0.02994112 0.00584502 0.02486813
v 0.03085759 -0.02210612 0.00263838
v 0.03052092 -0.00465585 0.01722108
v 0.03080930 -0.02776254 -0.00034900
v 0.03096540 -0.02162381 0.00558749
f 71 66 88
f 31 17 11
f 3 2 1
f 128 72 132
f 89 84 98
f 106 94 103
f 104 99 133
f 103 94 68
f 42 49 52
f 143 147 155
f 96 89 101
f 68 94 54
f 157 153 151
f 90 87 34
f 38 37 42
f 72 68 24
f 44 27 36
f 84 71 97
f 120 114 103
f 66 65 80
f 81 77 79
f 95 79 83
f 125 104 153
f 25 21 17
f 73 67 59
f 64 48 44
f 64 47 48
f 139 128 132
f 44 77 81
f 16 15 9
f 153 104 151
f 93 28 69
f 21 5 17
f 96 101 127
f 33 25 31
f 92 44 81
f 3 8 11
f 72 103 68
f 38 31 37
f 51 41 56
f 90 82 89
f 68 30 24
f 16 28 15
f 18 5 21
f 56 50 62
f 88 99 104
f 3 11 17
f 31 11 37
f 74 75 46
f 59 49 51
f 77 32 79
f 42 37 49
f 52 53 42
f 35 25 33
f 94 76 54
f 114 113 106
f 127 87 96
f 60 58 65
f 143 132 127
f 150 155 152
f 41 11 45
f 43 57 58
f 122 95 108
f 23 22 32
f 107 92 111
f 87 72 34
f 130 120 119
f 38 42 53
f 1 9 8
f 99 91 107
f 110 109 100
f 55 43 58
f 21 25 35
f 82 73 63
f 79 75 83
f 155 147 142
f 144 152 137
f 143 101 147
f 4 16 1
f 35 34 21
f 66 60 65
f 85 64 44
f 109 122 112
f 86 74 28
f 45 40 50
f 106 105 76
f 123 135 126
f 117 118 116
f 88 66 80
f 4 1 2
f 145 121 146
f 121 134 146
f 77 44 32
f 136 107 111
f 118 137 123
f 143 127 101
f 142 125 154
f 155 142 154
f 22 26 32
f 125 153 157
f 18 6 5
f 75 26 46
f 12 2 6
f 6 2 5
f 5 3 17
f 159 149 156
f 83 74 86
f 51 37 41
f 48 27 44
f 151 156 148
f 30 54 12
f 43 47 57
f 49 37 51
f 117 116 105
f 85 80 64
f 78 67 73
f 98 84 97
f 136 149 133
f 97 71 88
f 135 146 131
f 114 124 113
f 83 75 74
f 128 119 72
f 38 34 33
f 140 144 139
f 33 31 38
f 136 111 145
f 44 36 32
f 60 55 58
f 143 150 132
f 151 133 159
f 32 26 75
f 67 53 52
f 14 27 39
f 109 112 93
f 122 102 95
f 14 8 10
f 67 52 59
f 14 10 23
f 51 56 63
f 121 81 134
f 131 102 122
f 40 43 55
f 24 30 18
f 125 97 104
f 124 129 118
f 96 87 90
f 84 63 71
f 110 100 76
f 8 7 10
f 132 150 140
f 126 122 123
f 96 90 89
f 71 61 66
f 130 129 124
f 120 124 114
f 11 8 20
f 78 82 90
f 63 62 71
f 18 12 6
f 63 56 62
f 22 10 13
f 80 70 64
f 57 47 64
f 54 76 29
f 16 9 1
f 93 86 28
f 95 83 86
f 132 87 127
f 40 11 20
f 98 97 125
f 111 92 81
f 12 4 2
f 71 62 61
f 139 144 129
f 146 134 131
f 106 76 94
f 88 80 91
f 130 124 120
f 113 117 105
f 126 131 122
f 72 24 34
f 151 104 133
f 105 110 76
f 15 7 9
f 12 29 4
f 118 123 115
f 52 49 59
f 59 51 63
f 157 151 148
f 112 86 93
f 152 148 137
f 137 148 138
f 85 44 92
f 156 149 158
f 155 154 152
f 67 34 53
f 65 70 80
f 133 149 159
f 10 22 23
f 46 19 28
f 115 109 110
f 81 102 134
f 118 117 113
f 76 69 29
f 136 145 158
f 54 29 12
f 69 28 16
f 19 13 7
f 100 93 69
f 124 118 113
f 25 17 31
f 67 78 34
f 107 91 92
f 20 8 14
f 20 39 40
f 149 136 158
f 128 130 119
f 20 14 39
f 129 137 118
f 140 139 132
f 41 37 11
f 147 98 142
f 111 121 145
f 29 16 4
f 79 32 75
f 15 19 7
f 26 22 19
f 34 38 53
f 80 85 91
f 5 2 3
f 74 46 28
f 36 27 23
f 116 110 105
f 95 86 108
f 141 146 135
f 136 99 107
f 34 35 33
f 114 106 103
f 97 88 104
f 112 108 86
f 63 73 59
f 39 27 43
f 3 1 8
f 150 144 140
f 47 27 48
f 100 109 93
f 87 132 72
f 90 34 78
f 10 7 13
f 158 145 146
f 137 138 123
f 30 12 18
f 129 144 137
f 133 99 136
f 70 65 57
f 135 131 126
f 24 18 21
f 24 21 34
f 101 98 147
f 101 89 98
f 139 129 128
f 99 88 91
f 151 159 156
f 148 156 141
f 14 23 27
f 22 13 19
f 41 45 56
f 62 50 61
f 65 58 57
f 85 92 91
f 120 103 72
f 9 7 8
f 76 100 69
f 81 79 102
f 61 55 60
f 68 54 30
f 28 19 15
f 154 125 157
f 50 55 61
f 102 79 95
f 141 135 138
f 150 152 144
f 130 128 129
f 46 26 19
f 152 157 148
f 70 57 64
f 111 81 121
f 56 45 50
f 66 61 60
f 89 63 84
f 142 98 125
f 82 63 89
f 36 23 32
f 138 148 141
f 123 138 135
f 39 43 40
f 122 108 112
f 152 154 157
f 123 122 109
f 69 16 29
f 11 40 45
f 156 158 146
f 134 102 131
f 27 47 43
f 143 155 150
f 116 115 110
f 50 40 55
f 118 115 116
f 119 120 72
f 106 113 105
f 78 73 82
f 123 109 115
f 156 146 141

