# https://github.com/mikedh/trimesh
v -0.04053768 0.00201950 -0.00577397
v -0.03762219 -0.00582442 -0.00036809
v -0.03653277 -0.00488102 -0.01272173
v -0.03896107 0.00780015 0.00292742
v -0.04000761 0.01038223 -0.00591470
v -0.03753851 0.00587889 -0.01176274
v -0.03846354 0.01536605 -0.00932832
v -0.03697862 -0.00031695 0.01191411
v -0.03768372 0.01863276 0.00174109
v -0.03363454 0.00998778 0.01474930
v -0.03488091 0.01916339 -0.00907146
v -0.03502393 -0.01374180 -0.00787291
v -0.03596746 -0.00883825 0.00911591
v -0.03269508 0.01488585 -0.01629558
v -0.03599914 0.02208878 -0.00260715
v -0.03400001 -0.01519381 0.00071675
v -0.03297328 -0.01312290 0.01066086
v -0.02931389 -0.00725022 0.01990537
v -0.03309693 0.00886743 -0.01823082
v -0.03278268 0.02314163 0.01019093
v -0.02791864 0.02661594 0.00113631
v -0.03075914 -0.02011103 -0.00188198
v -0.03086127 -0.00064211 0.02172948
v -0.02940863 -0.00606316 -0.02353612
v -0.03296945 0.01833169 0.01548522
v -0.02738216 0.02578798 -0.00722713
v -0.02236780 0.01885490 -0.01835245
v -0.02729619 -0.02066126 -0.01572691
v -0.02762807 -0.01524272 -0.02130277
v -0.02890254 0.00750228 0.02311066
v -0.02715903 0.01760323 0.01958710
v -0.02586002 -0.01505699 0.01814885
v -0.02739254 0.00423803 -0.02234977
v -0.02487785 0.01299626 -0.02322138
v -0.02777167 -0.01793317 0.00735405
v -0.02653733 -0.01511955 0.01291940
v -0.02415786 -0.02206051 -0.00849984
v -0.02716045 0.02367014 0.01203197
v -0.02398679 -0.02337279 0.00241374
v -0.02509559 0.00588629 0.02878388
v -0.02361093 0.01263617 0.02801256
v -0.01491862 -0.00032713 0.03200387
v -0.02292778 0.00407517 -0.02923787
v -0.02210603 -0.02350255 0.01159840
v -0.02101541 -0.00930968 -0.02850283
v -0.02073027 0.03109547 0.00864278
v -0.02381003 0.02322494 0.02027730
v -0.01700031 -0.01476777 0.02265083
v -0.01721630 -0.01534121 -0.03064704
v -0.01694719 0.02052210 0.02730075
v -0.02067441 -0.02549104 -0.01589519
v -0.01951406 -0.02162444 -0.02459656
v -0.01586282 -0.00972398 0.02913477
v -0.01951058 -0.00586334 -0.03343074
v -0.01811166 0.02833839 0.01723313
v -0.01476607 -0.03132769 -0.00261944
v -0.01818771 -0.02086673 0.01732818
v -0.01503186 -0.00127547 -0.03432511
v -0.01124722 0.01042262 0.03391721
v -0.01466428 -0.02619210 -0.01707229
v -0.01729281 0.02018202 -0.01696835
v -0.01315801 -0.03062847 0.00360293
v -0.01247321 0.03396096 -0.00368363
v -0.00724962 -0.03038315 0.01410693
v -0.01240715 0.00862605 -0.03659844
v -0.01622678 0.01082396 -0.03212606
v -0.01062009 0.01784818 0.03323389
v -0.01491691 0.02957576 -0.01001022
v -0.01764210 0.03217376 -0.00661463
v -0.01563493 0.02358592 -0.01895293
v -0.01498838 0.02358096 -0.01435250
v -0.01301556 -0.02111937 0.02387092
v -0.00775675 -0.01004095 -0.03600284
v -0.01236323 -0.03039536 -0.00540891
v -0.01197710 -0.02472533 0.02073075
v -0.01299179 0.01592658 -0.02674268
v -0.01022718 0.03763113 0.00667670
v -0.01252475 -0.02035524 -0.03049233
v -0.01263006 0.01977105 -0.02041233
v -0.00846051 -0.02620487 0.01689230
v -0.00886253 0.01685472 -0.03448179
v -0.01033327 0.02706473 0.02658991
v -0.00941510 0.03444796 0.01688302
v -0.01022085 -0.03111193 -0.01216389
v -0.00292999 -0.01597386 -0.03469194
v -0.01052790 0.02367698 -0.01696499
v -0.00292851 -0.02549816 -0.01937718
v -0.00700097 0.02491040 -0.02377213
v -0.00831134 0.03293869 -0.01151122
v -0.00432309 -0.03223006 -0.00868746
v -0.00625759 -0.01751506 0.03079893
v -0.00444582 -0.02220299 0.02496671
v -0.00048232 0.00351182 -0.04058543
v -0.00290415 0.02376487 0.03326681
v -0.00227500 0.03754218 0.01462301
v -0.00712078 0.03765569 -0.00700346
v -0.00340105 -0.03532393 0.00099682
v -0.00289042 -0.03299113 0.00918529
v -0.00046908 0.03139981 0.02601958
v -0.00332357 0.03953825 -0.00220741
v -0.00246010 -0.01315812 0.03451726
v -0.00226509 0.00239362 0.03595879
v -0.00178967 0.01746121 -0.03759799
v -0.00101281 0.01627432 0.03644482
v -0.00181388 0.03417685 -0.01721016
v -0.00288931 0.01148053 -0.04058407
v -0.00260968 0.02354155 -0.03178799
v 0.00391972 0.03753263 -0.01303028
v 0.00694377 -0.03442981 -0.00155088
v 0.00125876 -0.02012919 0.02981041
v 0.00286396 -0.00599050 0.03435982
v 0.00743346 -0.02026152 -0.02796176
v 0.00654567 0.00939556 -0.04112345
v 0.00784782 0.03245959 0.02281631
v 0.00254566 0.04192120 0.00464922
v 0.00790658 -0.03155758 -0.00878424
v 0.00346801 0.02630359 -0.03159359
v 0.00883421 -0.03293257 0.00803975
v 0.00568665 -0.01053545 -0.03775817
v 0.00361433 -0.00353462 -0.04009466
v 0.00593837 0.02449959 0.03255692
v 0.00523367 -0.03474453 0.00323604
v 0.00708718 -0.03335874 0.01420893
v 0.00518424 0.01825563 -0.03829959
v 0.00427239 -0.02637188 0.02471657
v 0.00698595 0.00337209 0.03799256
v 0.01196303 -0.02756344 -0.01813256
v 0.00890108 -0.01062388 0.03514211
v 0.01013714 0.01296592 0.03446606
v 0.00840129 0.03214699 -0.02355602
v 0.00603925 -0.02918053 0.01943005
v 0.00828189 -0.01621876 0.02955536
v 0.01283295 0.03688773 0.00854635
v 0.01069615 -0.02350452 0.02556316
v 0.01013643 0.04070229 -0.00374633
v 0.01202500 0.00338522 -0.03995512
v 0.01057124 0.02483430 -0.02917496
v 0.01034764 -0.02623546 0.02024788
v 0.01560501 -0.02852291 0.01849538
v 0.01283098 0.01334547 -0.03827804
v 0.01761186 -0.03062591 0.01371991
v 0.01251984 0.02567856 0.03005629
v 0.01196605 0.03749807 -0.01414816
v 0.01572255 -0.00462792 -0.03823136
v 0.01685218 0.01366267 0.03392158
v 0.01955254 0.01770213 -0.03343676
v 0.01669120 0.00036158 0.03353303
v 0.01447915 -0.03469941 0.00339301
v 0.01530546 -0.01584852 0.03137355
v 0.01840012 0.03237564 0.01590133
v 0.01646863 -0.03218800 -0.00438455
v 0.01512356 -0.01540809 -0.03116019
v 0.01905405 0.03216080 -0.01759672
v 0.01697114 0.03721000 -0.00859968
v 0.01954625 -0.02343391 0.02239846
v 0.01902524 0.02198359 0.02647562
v 0.01939632 -0.03022218 -0.01034796
v 0.02561743 -0.01226857 -0.02590260
v 0.01980432 -0.01981514 -0.02129639
v 0.02141234 -0.00698449 0.03104305
v 0.02195610 0.00364320 -0.03707873
v 0.02107686 -0.02967319 0.00725949
v 0.02106067 -0.01876500 0.02807654
v 0.02412396 0.02258890 -0.02288790
v 0.02085905 0.03612086 0.00111984
v 0.02303591 -0.02892981 -0.00394890
v 0.02595932 0.02776638 0.01372868
v 0.02543044 0.03021164 -0.01270327
v 0.02336817 -0.02795470 0.01805055
v 0.02451197 0.01008007 0.02647245
v 0.02595662 -0.02984654 0.00341502
v 0.02713948 0.01786379 0.02231780
v 0.02743533 -0.02261366 -0.01398991
v 0.02732539 -0.01571621 0.02304074
v 0.02629364 -0.00002406 -0.03355217
v 0.02419815 0.00191380 0.03199124
v 0.02597765 0.03163538 0.00742087
v 0.02823983 0.02971573 -0.00228891
v 0.02645286 -0.02771710 0.01154102
v 0.02882511 0.01191539 -0.03140446
v 0.02683165 -0.00608918 0.02697596
v 0.03555748 -0.01442633 0.01062277
v 0.02751930 -0.00062590 0.02901762
v 0.03036910 -0.02536366 -0.00361797
v 0.03148648 -0.02415334 0.00505267
v 0.02849912 -0.00028715 0.02511444
v 0.03204494 0.00710854 0.02315731
v 0.03106302 0.01815791 0.01277266
v 0.03309630 -0.00682762 0.01920757
v 0.03327007 0.00749332 -0.02877358
v 0.03277956 0.02412251 0.00066044
v 0.03391707 0.00063275 -0.02432954
v 0.03594045 -0.00876214 -0.01764049
v 0.03455509 0.01700596 -0.02091347
v 0.03433975 0.02246342 -0.00966202
v 0.03377776 0.01021080 0.01942929
v 0.03769087 -0.01468404 -0.00143893
v 0.03696204 0.00848480 0.00170790
v 0.03524923 -0.01622260 -0.01158664
v 0.03524000 0.00333614 0.01796985
v 0.03725864 0.01123889 -0.01638007
v 0.03745656 -0.00693423 -0.01047307
v 0.03985870 -0.00470014 0.00424460
v 0.03919250 -0.00381293 0.01119321
v 0.03938019 0.00238792 -0.00562767
f 172 156 170
f 141 118 162
f 145 147 176
f 195 168 178
f 154 143 135
f 12 3 28
f 152 127 112
f 2 12 16
f 168 194 164
f 167 191 177
f 118 122 148
f 39 56 62
f 172 167 156
f 205 202 201
f 9 21 15
f 23 8 18
f 169 139 141
f 99 114 95
f 115 108 100
f 57 44 64
f 201 192 190
f 156 167 150
f 86 88 79
f 64 44 62
f 100 96 63
f 6 7 14
f 152 112 119
f 176 147 160
f 140 136 113
f 46 21 38
f 204 203 198
f 189 174 182
f 184 166 173
f 149 134 163
f 203 182 197
f 73 85 49
f 123 98 118
f 180 161 146
f 159 127 152
f 179 171 185
f 146 161 140
f 201 190 194
f 89 71 68
f 74 56 60
f 111 102 101
f 177 165 150
f 48 18 32
f 116 90 87
f 90 84 87
f 104 126 129
f 158 144 175
f 203 197 202
f 144 152 119
f 76 66 27
f 149 128 132
f 27 34 14
f 193 199 158
f 164 153 168
f 107 103 81
f 71 27 68
f 195 201 194
f 55 46 38
f 83 82 99
f 77 63 46
f 51 28 52
f 94 104 121
f 130 117 105
f 9 4 10
f 87 52 78
f 153 130 143
f 154 153 143
f 105 89 96
f 87 85 112
f 71 61 27
f 119 120 144
f 34 19 14
f 168 153 154
f 38 20 31
f 188 198 191
f 186 181 189
f 182 179 185
f 15 11 9
f 116 87 127
f 71 70 61
f 25 9 10
f 165 168 154
f 56 74 90
f 131 80 64
f 170 145 176
f 85 78 49
f 155 139 169
f 190 175 161
f 38 21 20
f 139 131 123
f 137 117 130
f 179 162 171
f 198 203 205
f 68 26 69
f 21 26 15
f 2 13 8
f 51 52 60
f 93 58 65
f 174 163 155
f 82 83 55
f 16 12 22
f 132 101 110
f 111 101 132
f 63 68 69
f 25 10 31
f 35 16 22
f 87 84 60
f 118 148 162
f 140 161 136
f 7 6 5
f 54 45 24
f 6 3 1
f 197 184 199
f 94 82 67
f 41 31 30
f 197 185 184
f 189 182 204
f 3 24 29
f 77 100 63
f 50 31 41
f 22 28 37
f 4 5 1
f 35 22 39
f 100 108 96
f 104 102 126
f 140 113 124
f 91 53 48
f 43 54 24
f 142 121 145
f 204 182 203
f 169 141 179
f 35 17 16
f 83 77 46
f 50 41 67
f 18 13 17
f 89 86 71
f 12 28 22
f 201 202 192
f 151 109 116
f 193 158 192
f 27 66 34
f 118 141 123
f 104 59 102
f 150 133 114
f 133 150 165
f 177 150 167
f 47 55 38
f 56 51 60
f 129 121 104
f 143 130 108
f 150 142 156
f 96 89 63
f 139 123 141
f 191 198 195
f 34 66 43
f 115 100 77
f 110 92 125
f 14 19 6
f 29 52 28
f 137 124 117
f 151 116 157
f 89 68 63
f 23 10 8
f 103 113 106
f 95 77 83
f 170 183 186
f 87 60 52
f 76 81 66
f 101 42 53
f 196 188 172
f 164 180 146
f 122 109 148
f 45 49 29
f 35 39 44
f 140 124 137
f 106 65 81
f 98 64 62
f 45 29 24
f 4 1 2
f 196 200 198
f 23 18 42
f 61 70 79
f 54 49 45
f 202 199 193
f 33 19 34
f 160 149 163
f 148 151 166
f 48 36 57
f 95 114 115
f 75 57 80
f 29 49 52
f 184 173 199
f 114 133 115
f 104 67 59
f 137 164 146
f 15 26 11
f 192 158 175
f 92 75 80
f 42 40 23
f 83 46 55
f 50 55 47
f 147 126 128
f 165 154 135
f 19 24 6
f 178 165 177
f 158 173 159
f 96 108 105
f 102 42 101
f 178 168 165
f 60 84 74
f 37 51 56
f 89 88 86
f 128 111 132
f 48 72 92
f 36 17 35
f 131 64 123
f 103 106 81
f 167 172 188
f 166 151 157
f 73 119 85
f 129 147 145
f 166 157 173
f 117 107 105
f 126 147 129
f 4 2 8
f 155 138 139
f 169 179 182
f 94 67 104
f 194 180 164
f 181 160 174
f 159 152 158
f 65 58 43
f 5 6 1
f 156 142 145
f 144 158 152
f 202 193 192
f 149 132 134
f 187 200 196
f 200 204 198
f 67 41 59
f 118 98 122
f 44 39 62
f 66 65 43
f 162 148 166
f 101 91 110
f 86 79 70
f 134 138 155
f 64 98 123
f 199 173 158
f 88 76 79
f 82 50 67
f 51 37 28
f 59 41 40
f 177 191 178
f 146 140 137
f 31 10 30
f 33 43 24
f 141 162 179
f 117 124 103
f 42 18 53
f 33 24 19
f 81 65 66
f 27 14 11
f 30 23 40
f 148 109 151
f 91 92 110
f 132 110 134
f 63 21 46
f 160 181 183
f 125 80 131
f 47 31 50
f 187 186 189
f 11 14 7
f 101 53 91
f 125 131 138
f 93 73 58
f 3 29 28
f 180 190 161
f 187 189 200
f 120 73 93
f 159 157 127
f 134 125 138
f 173 157 159
f 183 181 186
f 90 74 84
f 92 80 125
f 88 107 81
f 10 4 8
f 99 94 121
f 86 70 71
f 62 97 98
f 134 110 125
f 126 102 111
f 21 69 26
f 80 57 64
f 136 93 113
f 18 17 32
f 121 114 99
f 183 176 160
f 20 21 9
f 109 90 116
f 32 36 48
f 198 205 201
f 95 115 77
f 72 75 92
f 197 199 202
f 194 190 180
f 198 201 195
f 87 78 85
f 135 143 108
f 9 5 4
f 167 188 191
f 188 196 198
f 107 117 103
f 26 27 11
f 41 30 40
f 68 27 26
f 122 97 109
f 13 2 16
f 135 108 115
f 36 44 57
f 133 135 115
f 32 17 36
f 89 105 88
f 185 197 182
f 156 145 170
f 163 134 155
f 2 3 12
f 105 107 88
f 52 49 78
f 62 56 97
f 187 170 186
f 18 8 13
f 205 203 202
f 124 113 103
f 102 59 42
f 153 137 130
f 165 135 133
f 185 171 184
f 160 147 149
f 172 170 187
f 108 130 105
f 39 22 37
f 174 155 169
f 98 97 122
f 113 93 106
f 97 56 90
f 174 169 182
f 194 168 195
f 48 57 72
f 13 16 17
f 160 163 174
f 171 166 184
f 127 87 112
f 142 114 121
f 164 137 153
f 94 99 82
f 1 3 2
f 73 49 54
f 126 111 128
f 144 120 136
f 61 76 27
f 20 25 31
f 161 144 136
f 20 9 25
f 63 69 21
f 39 37 56
f 82 55 50
f 142 150 114
f 36 35 44
f 200 189 204
f 120 119 73
f 61 79 76
f 171 162 166
f 161 175 144
f 109 97 90
f 93 136 120
f 9 7 5
f 30 10 23
f 112 85 119
f 88 81 76
f 178 191 195
f 106 93 65
f 121 129 145
f 58 73 54
f 24 3 6
f 147 128 149
f 47 38 31
f 181 174 189
f 116 127 157
f 59 40 42
f 34 43 33
f 92 91 48
f 196 172 187
f 192 175 190
f 72 57 75
f 138 131 139
f 170 176 183
f 99 95 83
f 53 18 48
f 58 54 43
f 11 7 9

