# https://github.com/mikedh/trimesh
v -0.02561191 0.01087959 -0.00570139
v -0.02657058 0.02342718 -0.01257194
v -0.02618854 0.02249631 0.00128666
v -0.02679188 0.02934075 -0.00533021
v -0.02591946 0.02796067 0.00236218
v -0.02637463 0.03162471 -0.00695979
v -0.02641171 0.03315138 -0.00515694
v -0.02566089 0.00261961 -0.02660306
v -0.02597592 0.00874089 -0.01893818
v -0.02530604 0.01451233 -0.01897058
v -0.02514191 -0.00685877 -0.02464102
v -0.02459800 -0.00685949 -0.03213755
v -0.02433678 -0.00787604 -0.00787571
v -0.02413025 0.00241524 0.01561701
v -0.02466661 0.01269979 0.02095509
v -0.02531047 0.02000049 0.01310657
v -0.02319234 0.03378276 -0.00538883
v -0.02460210 -0.01042905 -0.02710319
v -0.02267316 0.00215463 -0.02784166
v -0.02111047 0.02778082 0.00348209
v -0.02202219 0.03019319 -0.00867739
v -0.02377975 -0.01786234 -0.01175100
v -0.02364693 -0.01797567 -0.01661378
v -0.02411536 -0.00358598 -0.03168263
v -0.02350107 0.00920803 0.02943581
v -0.02397576 0.01344189 0.02334951
v -0.01359122 0.01202817 -0.02210631
v -0.02206334 0.01812917 0.01702268
v -0.02276312 -0.01639042 0.01482069
v -0.02125881 -0.00901138 -0.02950674
v -0.02116193 -0.00608667 -0.03324417
v -0.02336212 0.00001751 0.02879636
v -0.02361044 0.00541379 0.03201624
v -0.02292697 -0.02462162 -0.00762806
v -0.02233652 -0.01716297 -0.01844920
v -0.02289501 -0.00504280 0.02745466
v -0.02277735 0.00238879 0.03292673
v -0.02277643 0.00573867 0.03412080
v -0.01327491 0.00900627 0.03058456
v -0.02224886 -0.03049396 0.00073766
v -0.02259932 -0.02772161 -0.00021196
v -0.02199795 -0.02691358 0.01194003
v -0.02261912 -0.01398500 0.02126864
v -0.02203280 -0.03123453 0.00717805
v -0.02174925 -0.02975954 -0.00100236
v -0.01813065 -0.02380689 -0.00909347
v -0.02150583 -0.02173468 -0.01211224
v -0.02176559 -0.00982872 0.02466220
v -0.01998418 -0.00343051 0.02909481
v -0.01837596 0.00643763 0.03393084
v -0.02120580 -0.03465578 0.00675059
v -0.02103017 -0.03389856 0.00469545
v -0.02113404 -0.01774468 0.01905579
v -0.01831065 0.00384891 0.03389718
v -0.01967013 -0.02945915 0.01093510
v -0.01630976 -0.02324244 0.01491268
v -0.01123027 -0.01529525 -0.02030658
v -0.00958578 -0.02107182 0.01586230
v -0.00474450 0.02379445 0.01020976
v -0.01544375 0.03241887 -0.00260557
v -0.00736073 -0.03270880 0.00382209
v -0.01732844 -0.00450138 -0.03306326
v -0.01564652 -0.03420180 0.00699227
v -0.00951520 -0.02867152 -0.00197968
v -0.01407223 -0.00569680 -0.03347486
v -0.00640659 -0.00505708 0.02679210
v -0.01426372 0.03424341 -0.00613871
v -0.00707837 -0.00789433 -0.03041572
v -0.00842001 0.03144155 -0.00903613
v -0.01132063 0.00585996 0.03455177
v -0.00876759 -0.00411484 -0.03349920
v 0.00037881 -0.02156449 -0.01106038
v -0.00660569 -0.03371145 0.00653105
v 0.00170396 0.00466850 0.03261394
v -0.00340797 0.03525633 -0.00590462
v -0.00386355 0.00705123 0.03392158
v 0.00527515 0.00876993 -0.02588647
v -0.00145209 0.01207549 0.02702132
v -0.00239300 -0.03207456 0.00762515
v -0.00282233 -0.00516126 -0.03392609
v 0.00667449 0.02637833 -0.01388270
v 0.00625950 -0.01886401 0.01592979
v 0.00553624 -0.00780576 -0.02984648
v 0.00462011 0.03376737 -0.00309588
v 0.00886653 -0.02811672 -0.00156250
v 0.00493685 -0.00394042 -0.03424499
v 0.00405599 -0.03323556 0.00576836
v 0.00458698 0.00746445 0.03360087
v 0.01387092 0.01117990 0.02932047
v 0.00791242 0.03577866 -0.00714307
v 0.00994058 -0.03206165 0.00384877
v 0.01515377 -0.01634625 -0.01734112
v 0.01821866 -0.00118521 0.02722037
v 0.01235726 0.02738832 0.00627138
v 0.00866479 -0.02981455 0.00803766
v 0.01517829 0.00110567 -0.03203970
v 0.01342846 0.01799203 0.01946100
v 0.01019851 -0.03248606 0.00594104
v 0.01597611 0.00796980 0.03326866
v 0.02050078 -0.02374359 0.01134951
v 0.01715795 -0.00287233 -0.03453817
v 0.01902760 0.01559477 -0.02253254
v 0.01579280 0.03578802 -0.00811053
v 0.01661218 0.03677258 -0.00674140
v 0.02096363 -0.03193544 0.00443426
v 0.02168768 -0.02809915 -0.00081641
v 0.01691075 -0.03172573 0.00595907
v 0.01998735 0.00497859 0.03147761
v 0.01963594 0.03327875 -0.00165833
v 0.02158296 -0.00717812 -0.02948950
v 0.02097393 -0.00374590 -0.03461533
v 0.02095920 0.00644772 -0.02893915
v 0.02106566 0.02811794 -0.01391457
v 0.02192947 0.02291719 0.01300845
v 0.02447752 -0.02064722 -0.01055790
v 0.02159489 0.03500869 -0.00889179
v 0.02236816 -0.03161039 0.00535887
v 0.02098352 0.03698660 -0.00677624
v 0.02347846 0.01306006 0.02696527
v 0.02252565 0.01960148 -0.01968241
v 0.02217456 0.03328502 -0.00414498
v 0.02243595 -0.00183696 -0.03426261
v 0.02522782 -0.00702651 0.02238102
v 0.02389439 -0.00604912 -0.03048358
v 0.02316946 0.00959020 -0.02604652
v 0.02311759 0.02686638 0.00682059
v 0.02209923 0.03082788 -0.01180172
v 0.02254981 0.02561225 -0.01515479
v 0.02251721 0.02888641 -0.00934301
v 0.02355655 0.00070268 -0.03223409
v 0.02400380 0.00837541 0.03307742
v 0.02302024 0.01975110 -0.01565634
v 0.02345837 0.02514251 0.00324926
v 0.02448806 -0.01153412 -0.02304950
v 0.02383477 -0.00304517 -0.03416663
v 0.02514315 0.00110260 0.02805543
v 0.02422288 0.00625598 0.03211725
v 0.02345786 0.00938498 -0.02188192
v 0.02413965 0.00747637 -0.01006420
v 0.02356338 0.01783360 -0.00447752
v 0.02416011 -0.00101225 -0.02806538
v 0.02437172 0.01695845 0.02103118
v 0.02450736 0.01321992 0.00802040
v 0.02696544 -0.02658737 0.00790800
v 0.02650697 -0.01733909 0.01487821
v 0.02467389 -0.00292995 -0.01684332
v 0.02422830 0.02061717 0.01415992
v 0.02535797 -0.01616569 -0.01586941
v 0.02542110 -0.01235473 -0.01376155
v 0.02481918 -0.00799512 -0.02414407
v 0.02537088 -0.00605391 -0.00213024
v 0.02543134 0.00242889 0.01314831
v 0.02567225 0.00580413 0.03093464
v 0.02549747 0.00832508 0.03251997
v 0.02513417 0.01061040 0.03001572
v 0.02492484 0.01295822 0.01876061
v 0.02500500 0.01369604 0.02491701
v 0.02645200 -0.02754168 -0.00081251
v 0.02639850 -0.01073495 0.01884303
v 0.02604446 -0.00090785 0.02125201
v 0.02554055 0.00929274 0.02856381
v 0.02679276 -0.03099695 0.00402524
v 0.02679432 -0.03027081 0.00597853
v 0.02631396 -0.02234536 -0.00624999
v 0.02678804 -0.02381632 0.00165453
v 0.02629140 -0.01413129 0.00736857
v 0.02620479 -0.00230110 0.02486621
f 135 124 111
f 164 115 148
f 90 81 69
f 160 159 166
f 110 83 111
f 78 59 39
f 44 40 51
f 122 111 101
f 128 132 120
f 115 92 134
f 141 135 130
f 153 108 93
f 93 82 100
f 158 106 115
f 4 1 3
f 49 36 48
f 42 44 51
f 134 92 110
f 64 72 85
f 140 139 132
f 51 52 63
f 87 61 91
f 119 142 114
f 67 21 17
f 71 65 62
f 71 80 65
f 30 12 31
f 162 117 105
f 27 71 62
f 46 34 47
f 74 66 93
f 18 23 22
f 130 135 122
f 154 155 131
f 60 17 20
f 129 132 128
f 108 74 93
f 166 144 165
f 30 31 65
f 84 104 90
f 75 69 67
f 69 27 21
f 116 129 127
f 99 74 108
f 13 9 11
f 70 66 74
f 120 125 102
f 72 46 57
f 167 159 160
f 137 108 153
f 120 138 125
f 20 5 28
f 145 144 166
f 31 24 19
f 17 7 5
f 48 36 43
f 16 3 15
f 77 86 27
f 33 14 32
f 46 35 57
f 132 139 138
f 161 153 160
f 100 95 98
f 109 104 84
f 138 141 125
f 161 160 156
f 55 51 63
f 87 73 61
f 134 110 124
f 79 73 87
f 121 116 118
f 100 107 117
f 62 31 19
f 39 28 26
f 48 53 58
f 38 25 33
f 145 123 100
f 132 138 120
f 126 94 114
f 155 161 157
f 150 134 124
f 35 23 18
f 83 68 80
f 50 38 54
f 17 6 7
f 145 100 144
f 152 151 143
f 33 15 14
f 107 100 98
f 27 19 10
f 2 10 9
f 131 119 89
f 45 40 34
f 49 37 36
f 133 143 140
f 116 127 113
f 140 143 139
f 73 63 61
f 163 144 100
f 130 122 96
f 28 16 26
f 6 2 4
f 1 9 13
f 81 77 27
f 86 71 27
f 13 22 29
f 131 108 137
f 53 43 42
f 146 141 138
f 56 42 55
f 25 15 33
f 99 89 88
f 95 79 87
f 143 151 139
f 155 119 131
f 146 150 141
f 59 20 28
f 32 14 36
f 70 39 50
f 167 123 159
f 72 57 83
f 126 147 133
f 7 4 5
f 5 4 3
f 9 8 11
f 83 86 111
f 151 164 149
f 139 146 138
f 127 128 113
f 103 81 90
f 83 80 86
f 52 40 45
f 62 65 31
f 67 17 60
f 112 96 77
f 55 42 51
f 82 79 95
f 38 33 37
f 47 23 35
f 4 2 1
f 155 157 119
f 163 162 144
f 21 6 17
f 43 29 42
f 164 158 115
f 126 114 142
f 85 72 92
f 54 49 66
f 165 162 158
f 153 136 167
f 58 79 82
f 155 154 161
f 70 54 66
f 144 162 165
f 151 165 164
f 151 166 165
f 149 148 134
f 156 160 152
f 119 114 97
f 70 50 54
f 122 101 96
f 153 167 160
f 66 82 93
f 63 52 61
f 61 52 45
f 105 91 106
f 69 81 27
f 11 18 22
f 118 116 104
f 82 95 100
f 146 149 150
f 39 26 25
f 39 59 28
f 109 84 94
f 16 15 26
f 113 120 102
f 53 42 56
f 117 107 105
f 142 157 156
f 15 3 14
f 92 83 110
f 165 158 164
f 149 134 150
f 147 143 133
f 101 111 86
f 45 46 64
f 57 68 83
f 114 94 97
f 88 76 74
f 30 18 12
f 8 12 11
f 105 98 91
f 29 22 41
f 100 117 163
f 126 133 121
f 10 8 9
f 152 166 151
f 162 105 106
f 160 166 152
f 56 55 58
f 36 14 43
f 96 86 77
f 110 111 124
f 13 11 22
f 154 137 153
f 47 34 23
f 22 23 34
f 102 77 81
f 40 52 51
f 106 92 115
f 133 140 129
f 27 62 19
f 41 40 44
f 167 136 123
f 116 103 104
f 41 34 40
f 139 151 146
f 91 61 85
f 131 137 154
f 127 129 128
f 131 99 108
f 88 89 78
f 19 8 10
f 121 133 129
f 58 53 56
f 156 152 143
f 88 78 76
f 14 29 43
f 106 91 85
f 72 64 46
f 7 6 4
f 94 84 59
f 157 142 119
f 20 17 5
f 126 109 94
f 102 112 77
f 46 45 34
f 151 149 146
f 76 39 70
f 59 75 60
f 148 115 134
f 161 156 157
f 47 35 46
f 33 32 37
f 113 102 81
f 16 28 5
f 50 25 38
f 118 104 109
f 22 34 41
f 24 12 8
f 80 68 65
f 121 129 116
f 61 45 64
f 38 37 54
f 79 58 73
f 24 31 12
f 42 29 44
f 129 140 132
f 126 121 109
f 1 2 9
f 84 75 59
f 66 58 82
f 163 117 162
f 142 147 126
f 58 63 73
f 122 135 111
f 54 37 49
f 103 113 81
f 14 1 13
f 49 48 58
f 106 85 92
f 21 2 6
f 153 93 136
f 75 90 69
f 119 97 89
f 48 43 53
f 69 21 67
f 147 156 143
f 101 86 96
f 136 93 123
f 116 113 103
f 76 70 74
f 25 26 15
f 21 27 2
f 61 64 85
f 50 39 25
f 89 97 78
f 84 90 75
f 11 12 18
f 95 87 98
f 29 14 13
f 141 124 135
f 162 106 158
f 130 96 112
f 125 141 130
f 57 35 30
f 75 67 60
f 142 156 147
f 78 39 76
f 87 91 98
f 159 123 145
f 29 41 44
f 86 80 71
f 66 49 58
f 150 124 141
f 3 1 14
f 57 30 68
f 121 118 109
f 154 153 161
f 68 30 65
f 159 145 166
f 97 94 59
f 58 55 63
f 32 36 37
f 35 18 30
f 123 93 100
f 59 60 20
f 149 164 148
f 125 112 102
f 125 130 112
f 107 98 105
f 19 24 8
f 72 83 92
f 97 59 78
f 5 3 16
f 99 88 74
f 128 120 113
f 27 10 2
f 104 103 90
f 131 89 99

