# https://github.com/mikedh/trimesh
v 0.01372528 -0.03441605 0.07269412
v 0.01424863 -0.03440129 0.07267442
v 0.01424863 -0.03372215 0.07362967
v 0.01372528 -0.03392392 0.07338347
v 0.01372528 -0.03440621 0.07160100
v 0.01424863 -0.03440129 0.07169455
v 0.01615490 -0.03433731 0.07255625
v 0.01615490 -0.03369262 0.07351150
v 0.01806116 -0.03269853 0.07466370
v 0.01372528 -0.03372707 0.07364936
v 0.01372528 -0.03426841 0.07068515
v 0.01424863 -0.03425857 0.07074424
v 0.01615490 -0.03419459 0.07116277
v 0.01615490 -0.03433731 0.07211801
v 0.01715655 -0.03429302 0.07247747
v 0.01789826 -0.03373691 0.07323575
v 0.01996742 -0.03260994 0.07458984
v 0.01615490 -0.03274282 0.07469817
v 0.02288228 -0.03048396 0.07628368
v 0.02187022 -0.03052825 0.07631814
v 0.01996742 -0.03155187 0.07554509
v 0.01996742 -0.03060207 0.07637723
v 0.01806116 -0.03159617 0.07561402
v 0.01372528 -0.03303809 0.07443719
v 0.01372528 -0.03293475 0.06732209
v 0.01424863 -0.03382550 0.06960680
v 0.02122556 -0.03239341 0.06672630
v 0.02249756 -0.03236880 0.06681985
v 0.01789826 -0.03408140 0.07167979
v 0.01715655 -0.03429302 0.07242823
v 0.03459367 -0.03051348 0.06472717
v 0.03586220 -0.03044459 0.06498814
v 0.03846165 -0.03052333 0.06655888
v 0.03973018 -0.03044951 0.06690848
v 0.03048307 -0.03238849 0.07247747
v 0.02568275 -0.03277727 0.07311758
v 0.02366904 -0.03282648 0.07354104
v 0.02187022 -0.03313652 0.07341794
v 0.01996742 -0.03338750 0.07341794
v 0.02187022 -0.03248691 0.07447659
v 0.01424863 -0.03277235 0.07471786
v 0.01615490 -0.03162077 0.07564849
v 0.01424863 -0.03165522 0.07566819
v 0.02415427 -0.03039045 0.07619997
v 0.02568275 -0.02930778 0.07687947
v 0.02568275 -0.02810699 0.07782979
v 0.02377648 -0.02823002 0.07792335
v 0.02187022 -0.02952431 0.07707644
v 0.01806116 -0.02952431 0.07724385
v 0.01806116 -0.03064144 0.07640678
v 0.02187022 -0.02735895 0.07869641
v 0.01996742 -0.02741801 0.07875057
v 0.01372528 -0.03277727 0.07472279
v 0.01372528 -0.03255581 0.06637669
v 0.01424863 -0.03254597 0.06639639
v 0.01424863 -0.03306762 0.06770124
v 0.02186676 -0.03205876 0.06597293
v 0.02377648 -0.03189636 0.06580059
v 0.03330087 -0.03027234 0.06357004
v 0.03521753 -0.03023790 0.06401320
v 0.03036523 -0.03237373 0.07089688
v 0.03123171 -0.03227038 0.07152222
v 0.03048307 -0.03238849 0.07216725
v 0.03710993 -0.03000167 0.06389502
v 0.03710993 -0.03037077 0.06528358
v 0.03906472 -0.03028219 0.06587445
v 0.04091899 -0.03000167 0.06580059
v 0.04282526 -0.02968671 0.06580059
v 0.04105070 -0.03037569 0.06760275
v 0.04050655 -0.03056270 0.06817394
v 0.03710993 -0.03127136 0.06960680
v 0.03843045 -0.03058238 0.07261042
v 0.03710993 -0.03075463 0.07285169
v 0.03520367 -0.03098101 0.07316682
v 0.03329048 -0.03107451 0.07356565
v 0.02423399 -0.03229006 0.07425994
v 0.03330087 -0.03195542 0.07151237
v 0.03520367 -0.03162569 0.07151237
v 0.03710993 -0.03124675 0.07151237
v 0.02296546 -0.03240817 0.07439780
v 0.01424863 -0.03070541 0.07645602
v 0.01372528 -0.03071034 0.07646586
v 0.01372528 -0.03166014 0.07567310
v 0.02568275 -0.03025758 0.07606702
v 0.02758555 -0.02911093 0.07674652
v 0.02758555 -0.02794951 0.07769685
v 0.02758555 -0.02699478 0.07841574
v 0.02568275 -0.02715226 0.07852899
v 0.02377648 -0.02727529 0.07862255
v 0.01424863 -0.02952431 0.07734232
v 0.01806116 -0.02746230 0.07878011
v 0.02187022 -0.02604498 0.07964673
v 0.01996742 -0.02613356 0.07970089
v 0.01806116 -0.02617293 0.07973536
v 0.01372528 -0.03207353 0.06542637
v 0.02675372 -0.03048396 0.06292993
v 0.02746771 -0.03080384 0.06375715
v 0.03139808 -0.03032648 0.06332877
v 0.03710993 -0.02933238 0.06198946
v 0.03901620 -0.02914045 0.06198946
v 0.03901620 -0.02976545 0.06389502
v 0.04091899 -0.02949478 0.06389502
v 0.04282526 -0.02919459 0.06389502
v 0.04478698 -0.02883534 0.06379655
v 0.04629119 -0.02869754 0.06436773
v 0.04473152 -0.02932746 0.06580059
v 0.04282526 -0.03007057 0.06770124
v 0.04079076 -0.03064144 0.06960680
v 0.03901620 -0.03097116 0.06960680
v 0.03904739 -0.03078415 0.07157639
v 0.03970245 -0.03039537 0.07225589
v 0.04418044 -0.02872707 0.07264981
v 0.04282526 -0.02895345 0.07291077
v 0.03710993 -0.02996722 0.07380201
v 0.03520367 -0.03025266 0.07411714
v 0.03392128 -0.03041506 0.07430425
v 0.04052734 -0.03061191 0.07098551
v 0.02568275 -0.03119262 0.07511178
v 0.01372528 -0.02985404 0.07710598
v 0.03387968 -0.02850069 0.07620981
v 0.03330087 -0.02639931 0.07798244
v 0.03056278 -0.02668966 0.07819909
v 0.02949181 -0.02680285 0.07828280
v 0.03326621 -0.02776742 0.07690410
v 0.03045880 -0.01333335 0.08770724
v 0.02536042 -0.02487371 0.08016375
v 0.02377648 -0.02593671 0.07957780
v 0.01372528 -0.02876644 0.07791350
v 0.01372528 -0.02952431 0.07735217
v 0.02187022 -0.02509517 0.08031639
v 0.01996742 -0.02518375 0.08037548
v 0.01806116 -0.02521820 0.08039025
v 0.01372528 -0.02618769 0.07976983
v 0.01372528 -0.02753120 0.07881458
v 0.01372528 -0.03111880 0.06403290
v 0.02618878 -0.03048396 0.06292993
v 0.03710993 -0.02805777 0.05979830
v 0.03520367 -0.02877628 0.06074862
v 0.03710993 -0.02875168 0.06075355
v 0.03901620 -0.02867293 0.06086187
v 0.04026740 -0.02860896 0.06097020
v 0.04153940 -0.02853022 0.06115731
v 0.04090860 -0.02885502 0.06187128
v 0.04282526 -0.02875168 0.06238337
v 0.04419084 -0.02864341 0.06271328
v 0.04545937 -0.02853022 0.06309734
v 0.04913326 -0.02758041 0.06198946
v 0.04854058 -0.02815620 0.06389502
v 0.04913326 -0.02804301 0.06389502
v 0.04755972 -0.02856467 0.06488966
v 0.04473152 -0.02964242 0.06770124
v 0.04174042 -0.03044951 0.06960680
v 0.04106456 -0.03024774 0.07157639
v 0.04282526 -0.02974085 0.07151237
v 0.04478351 -0.02906171 0.07160593
v 0.04545243 -0.02847116 0.07230020
v 0.04913326 -0.02675856 0.07256609
v 0.04854058 -0.02687667 0.07270397
v 0.04486670 -0.02767392 0.07348195
v 0.04428442 -0.02687175 0.07458492
v 0.04282526 -0.02808730 0.07386109
v 0.03995893 -0.02856959 0.07436826
v 0.03710993 -0.02901742 0.07481141
v 0.03520367 -0.02929793 0.07509701
v 0.04624960 -0.02879596 0.07102983
v 0.04282526 -0.03018376 0.06960680
v 0.04473152 -0.02965719 0.06960680
v 0.03520367 -0.02832844 0.07604732
v 0.03520367 -0.02737864 0.07685978
v 0.03520367 -0.02616309 0.07781503
v 0.03330087 -0.02544458 0.07867672
v 0.03330087 -0.02411584 0.07963196
v 0.03172734 -0.01317095 0.08759399
v 0.03330087 -0.01201445 0.08809622
v 0.03121438 -0.01247213 0.08814546
v 0.03139808 -0.01072015 0.08920411
v 0.02949181 -0.01085795 0.08929274
v 0.02949181 -0.01237862 0.08836704
v 0.02949181 -0.01336780 0.08773185
v 0.02377648 -0.02498198 0.08023760
v 0.03471151 -0.02298395 0.08017360
v 0.01524336 -0.01714241 0.08580167
v 0.01424863 -0.01810697 0.08518617
v 0.01372528 -0.01805284 0.08522064
v 0.01372528 -0.03091211 0.06376700
v 0.02377648 -0.03046427 0.06295948
v 0.04663432 -0.02219655 0.05233360
v 0.04663432 -0.02295442 0.05328884
v 0.04854058 -0.02294458 0.05329869
v 0.04913326 -0.02292982 0.05331346
v 0.04913326 -0.02362863 0.05436719
v 0.04473152 -0.02687667 0.05882828
v 0.04663432 -0.02675856 0.05899077
v 0.04773302 -0.02668474 0.05909910
v 0.04282526 -0.02844163 0.06143305
v 0.04900156 -0.02660108 0.05928129
v 0.04913326 -0.02659124 0.05930591
v 0.04913326 -0.02662569 0.05938961
v 0.04913326 -0.02694065 0.06016267
v 0.04478698 -0.02832844 0.06204362
v 0.04663432 -0.02800856 0.06198946
v 0.04854058 -0.02768376 0.06198946
v 0.04913326 -0.02828907 0.06568734
v 0.04663432 -0.02913061 0.06770124
v 0.04913326 -0.02704399 0.07209340
v 0.04913326 -0.02738848 0.07149760
v 0.04913326 -0.02531663 0.07408267
v 0.04555641 -0.02661092 0.07431410
v 0.04282526 -0.02713258 0.07483604
v 0.04913326 -0.02489832 0.07449136
v 0.04414925 -0.02495246 0.07643632
v 0.04282526 -0.02615324 0.07579128
v 0.04751813 -0.02854498 0.07042910
v 0.04678335 -0.02895345 0.06972005
v 0.04804496 -0.02871230 0.06770124
v 0.04913326 -0.02838258 0.06770124
v 0.04790285 -0.02867785 0.06915873
v 0.04282526 -0.02520344 0.07663327
v 0.03520367 -0.02520836 0.07849945
v 0.04299509 -0.02372706 0.07770178
v 0.04282526 -0.01855973 0.08163109
v 0.04282526 -0.01760501 0.08232536
v 0.04295696 -0.01609418 0.08338893
v 0.04240935 -0.01539536 0.08401427
v 0.03529032 -0.02369753 0.07955810
v 0.03330087 -0.01296917 0.08745119
v 0.04295696 -0.01445047 0.08452636
v 0.04282526 -0.01292488 0.08555055
v 0.03520367 -0.01171917 0.08789927
v 0.04217713 -0.00965716 0.08778602
v 0.03326621 -0.01033137 0.08912040
v 0.03260769 -0.00960303 0.08966205
v 0.03139808 -0.00976543 0.08975559
v 0.02949181 -0.00856956 0.09060744
v 0.01424863 -0.01135992 0.08957341
v 0.01424863 -0.01237862 0.08894315
v 0.03598351 -0.02280678 0.08005050
v 0.01372528 -0.01237862 0.08894807
v 0.01372528 -0.03035600 0.06307765
v 0.04663432 -0.02124674 0.05117154
v 0.04854058 -0.02125166 0.05117154
v 0.04854058 -0.02220639 0.05234345
v 0.04913326 -0.02220147 0.05235822
v 0.04913326 -0.02450462 0.05573605
v 0.04913326 -0.02509025 0.05669129
v 0.04913326 -0.02603513 0.05829157
v 0.04913326 -0.02812667 0.06968559
v 0.04913326 -0.02272312 0.07617535
v 0.04913326 -0.02017391 0.07812523
v 0.04913326 -0.01957843 0.07857823
v 0.04417351 -0.01736386 0.08215302
v 0.04374027 -0.02284615 0.07817447
v 0.04367788 -0.01520343 0.08387148
v 0.04282526 -0.01197016 0.08615619
v 0.04091899 -0.01079397 0.08731824
v 0.04281833 -0.01036582 0.08717544
v 0.04344913 -0.00933236 0.08761368
v 0.04281833 -0.00864830 0.08810607
v 0.03520367 -0.00666503 0.09068130
v 0.03520367 -0.00821031 0.08994271
v 0.03326621 -0.00869259 0.09006088
v 0.03387622 -0.00940126 0.08954386
v 0.03139808 -0.00856956 0.09043510
v 0.02949181 -0.00722113 0.09133618
v 0.02758555 -0.00730972 0.09135588
v 0.01424863 -0.01040519 0.09009535
v 0.01372528 -0.01041504 0.09010027
v 0.01372528 -0.01067586 0.08995748
v 0.01372528 -0.01136484 0.08957833
v 0.01372528 -0.02056269 0.05195938
v 0.04473152 -0.02121721 0.05120109
v 0.04663432 -0.02037076 0.05022122
v 0.04913326 -0.02038060 0.05021630
v 0.04913326 -0.02125166 0.05117154
v 0.04913326 -0.01778217 0.07989785
v 0.04913326 -0.01732941 0.08021791
v 0.04913326 -0.01413059 0.08239922
v 0.04913326 -0.01258531 0.08344309
v 0.04913326 -0.01214240 0.08373853
v 0.04913326 -0.01166504 0.08405367
v 0.04913326 -0.01040519 0.08487104
v 0.04411805 -0.01165520 0.08594938
v 0.04433640 -0.00806759 0.08790912
v 0.04913326 -0.00917980 0.08562440
v 0.04913326 -0.00907153 0.08568349
v 0.04913326 -0.00831366 0.08608726
v 0.04263810 -0.00647802 0.08909086
v 0.04187906 -0.00571523 0.08961280
v 0.04091899 -0.00690125 0.08931244
v 0.03260075 -0.00582842 0.09156269
v 0.03325928 -0.00654692 0.09112938
v 0.03139808 -0.00698491 0.09124263
v 0.02949181 -0.00626641 0.09174979
v 0.02758555 -0.00635991 0.09181873
v 0.01424863 -0.00865322 0.09104567
v 0.01424863 -0.00666503 0.09206985
v 0.01424863 -0.00769850 0.09156269
v 0.01372528 -0.00771326 0.09156761
v 0.01372528 -0.01961288 0.05092042
v 0.04473152 -0.02034123 0.05025077
v 0.04473152 -0.01939142 0.04929060
v 0.04663432 -0.01941603 0.04925613
v 0.04913326 -0.01942587 0.04922659
v 0.04487709 -0.00681759 0.08824395
v 0.04913326 -0.00661090 0.08688986
v 0.04765677 -0.00576936 0.08772693
v 0.04913326 -0.00505086 0.08748073
v 0.04913326 -0.00470637 0.08758906
v 0.04913326 -0.00412074 0.08777124
v 0.04311986 -0.00476050 0.08943062
v 0.04216673 -0.00476050 0.08967681
v 0.03260075 -0.00549869 0.09156269
v 0.03139808 -0.00603019 0.09163655
v 0.04226032 -0.00365814 0.08969651
v 0.02949181 -0.00496227 0.09174979
v 0.02377648 -0.00476050 0.09202061
v 0.02187022 -0.00476050 0.09206001
v 0.01615490 -0.00476050 0.09215848
v 0.01424863 -0.00476050 0.09218802
v 0.01372528 -0.00666503 0.09207477
v 0.01372528 -0.00696031 0.09193691
v 0.01372528 -0.01853020 0.04997010
v 0.04913326 -0.01743768 0.04745889
v 0.04913326 -0.01839241 0.04827626
v 0.04913326 -0.00359908 0.08778602
v 0.03520367 -0.00476050 0.09100135
v 0.03325928 -0.00482448 0.09129679
v 0.03139808 -0.00523786 0.09163655
v 0.04091899 -0.00347605 0.08981961
v 0.04854058 -0.00336778 0.08787464
v 0.04854058 -0.00241798 0.08752505
v 0.04734830 -0.00200951 0.08765800
v 0.04607631 -0.00179298 0.08779094
v 0.02760981 -0.00460302 0.09177441
v 0.03139808 -0.00428314 0.09137065
v 0.02949181 -0.00400755 0.09143959
v 0.02826141 -0.00386483 0.09149375
v 0.02377648 -0.00367290 0.09165131
v 0.02699287 -0.00377625 0.09154791
v 0.02187022 -0.00365322 0.09167594
v 0.01372528 -0.00476050 0.09217326
v 0.01372528 -0.00528216 0.09215848
v 0.01615490 -0.00366798 0.09168085
v 0.01424863 -0.00367782 0.09167594
v 0.01372528 -0.00397310 0.09180396
v 0.01372528 -0.01758040 0.04938415
v 0.04913326 -0.01199968 0.04358867
v 0.04913326 -0.01290520 0.04416477
v 0.04913326 -0.01432744 0.04515941
v 0.04913326 -0.01608926 0.04643963
v 0.04913326 -0.00324967 0.08766785
v 0.04473152 -0.00164042 0.08791404
v 0.04091899 -0.00252133 0.08915488
v 0.03901620 -0.00328904 0.08998702
v 0.04913326 -0.00261975 0.08743642
v 0.04913326 -0.00201444 0.08716068
v 0.04913326 -0.00086286 0.08645163
v 0.04913326 -0.00031168 0.08605771
v 0.04814547 0.00012632 0.08590999
v 0.03710993 -0.00314633 0.09014951
v 0.02949181 0.00020506 0.08788942
v 0.02758555 0.00025919 0.08794358
v 0.02568275 0.00027887 0.08797805
v 0.03520367 -0.00305774 0.09026276
v 0.03577555 -0.00003117 0.08767769
v 0.03450355 0.00002297 0.08772693
v 0.03330087 0.00006726 0.08776632
v 0.02377648 0.00027887 0.08798297
v 0.01372528 -0.00368767 0.09166609
v 0.01372528 -0.01614339 0.04935461
v 0.04913326 -0.00666503 0.04188498
v 0.04913326 -0.00768373 0.04197854
v 0.04913326 -0.00808728 0.04202778
v 0.04913326 -0.00883039 0.04221981
v 0.04913326 -0.01045933 0.04279591
v 0.04473152 -0.00069061 0.08714098
v 0.04282526 -0.00145833 0.08807161
v 0.04663432 0.00027395 0.08604294
v 0.04913326 0.00031332 0.08554070
v 0.04913326 0.00090880 0.08501384
v 0.04913326 0.00129266 0.08467408
v 0.04473152 0.00540683 0.08171479
v 0.03710993 -0.00219652 0.08935676
v 0.04091899 -0.00130085 0.08819963
v 0.03901620 -0.00117782 0.08830795
v 0.03330087 0.00102199 0.08689478
v 0.03330087 0.00205053 0.08593953
v 0.03139808 0.00207514 0.08598385
v 0.03520367 0.00389600 0.08398966
v 0.02949181 0.00207514 0.08600355
v 0.03516554 0.00077592 0.08698341
v 0.03710993 -0.00010498 0.08760875
v 0.03821903 0.00383203 0.08391088
v 0.03520367 0.00198163 0.08587060
v 0.02377648 0.00123360 0.08688493
v 0.02187022 0.00023458 0.08794358
v 0.01516017 0.00000328 0.08771215
v 0.01389164 -0.00004593 0.08765800
v 0.01372528 -0.00005085 0.08764815
v 0.01372528 -0.01515422 0.04957126
v 0.04913326 -0.00468176 0.04208194
v 0.04913326 -0.00513452 0.04198346
v 0.04282526 -0.00050361 0.08727393
v 0.04473152 0.00042651 0.08619066
v 0.04913326 0.00601707 0.08037548
v 0.04282526 0.00555939 0.08183297
v 0.04282526 0.00057415 0.08632360
v 0.04854058 0.00607120 0.08042964
v 0.04663432 0.00621884 0.08060198
v 0.03901620 -0.00022309 0.08751027
v 0.04091899 -0.00035105 0.08740195
v 0.03710993 0.00387140 0.08395518
v 0.04091899 0.00562829 0.08187236
v 0.03901620 0.00561353 0.08182312
v 0.02187022 0.00195703 0.08587060
v 0.02377648 0.00199640 0.08592969
v 0.03949103 0.00375821 0.08384686
v 0.02187022 0.00118439 0.08682585
v 0.01372528 0.00063321 0.08682092
v 0.01372528 -0.01493768 0.04966974
v 0.04913326 0.00062828 0.04358867
v 0.04913326 -0.00095144 0.04300764
v 0.04913326 -0.00285597 0.04250048
v 0.04913326 0.00631235 0.08007019
v 0.04091899 0.00070702 0.08645163
v 0.04473152 0.00631727 0.08076447
v 0.04282526 0.00632711 0.08088265
v 0.04913326 0.00724246 0.07904601
v 0.04282526 0.00728184 0.07952363
v 0.04473152 0.01110566 0.07383155
v 0.04282526 0.01009188 0.07523488
v 0.02078192 0.00191766 0.08582136
v 0.01372528 0.00142553 0.08568842
v 0.01372528 -0.01424378 0.04999472
v 0.04913326 0.00160269 0.04405644
v 0.04913326 0.00777888 0.07839113
v 0.04663432 0.00716865 0.07946455
v 0.04473152 0.00726707 0.07953348
v 0.04854058 0.01111550 0.07391033
v 0.04663432 0.01112042 0.07389556
v 0.04663432 0.01173066 0.07294031
v 0.04473152 0.01167653 0.07287630
v 0.01372528 0.00168636 0.08530435
v 0.01372528 -0.01233433 0.05094504
v 0.04913326 0.00280840 0.04471625
v 0.01372528 -0.01041996 0.05193968
v 0.01372528 -0.00850558 0.05295401
v 0.01372528 -0.00674377 0.05390434
v 0.01372528 -0.00481464 0.05495314
v 0.04913326 0.00803479 0.07805137
v 0.04913326 0.01045113 0.07480157
v 0.04913326 0.01111058 0.07390541
v 0.04913326 0.01131235 0.07360997
v 0.04913326 0.01175034 0.07295509
v 0.04854058 0.01175034 0.07296001
v 0.04913326 0.01259188 0.07151237
v 0.04854058 0.01258204 0.07151237
v 0.04663432 0.01250822 0.07151237
v 0.04473152 0.01236550 0.07151237
v 0.01372528 0.00897967 0.07189644
v 0.01372528 0.00822672 0.07335393
v 0.04913326 0.00414699 0.04549424
v 0.01372528 -0.00398786 0.05542584
v 0.01372528 -0.00297408 0.05600686
v 0.04913326 0.01201609 0.07251193
v 0.04913326 0.01278873 0.07115785
v 0.04854058 0.01321688 0.07028631
v 0.04663432 0.01316275 0.07012382
v 0.01372528 0.00998853 0.06968066
v 0.01372528 0.00919129 0.07143359
v 0.04913326 0.00529364 0.04619836
v 0.01372528 -0.00146818 0.05693256
v 0.04913326 0.01322672 0.07031093
v 0.04913326 0.01336452 0.07001549
v 0.04854058 0.01363027 0.06933106
v 0.04663432 0.01354168 0.06917350
v 0.04473152 0.01307909 0.06986285
v 0.01615490 0.01026412 0.06960680
v 0.01372528 0.01050526 0.06817394
v 0.04913326 0.00833991 0.04841414
v 0.01372528 -0.00120243 0.05710983
v 0.01372528 -0.00051345 0.05758745
v 0.01372528 -0.00014928 0.05784842
v 0.04913326 0.01364995 0.06935568
v 0.04913326 0.01387141 0.06882882
v 0.04913326 0.01428480 0.06770124
v 0.04854058 0.01423066 0.06770124
v 0.01372528 0.01065290 0.06770124
v 0.04913326 0.01044621 0.05003411
v 0.01372528 0.00078576 0.05853777
v 0.01372528 0.00174049 0.05926159
v 0.01372528 0.00836451 0.06428402
v 0.04913326 0.01447673 0.06708574
v 0.04913326 0.01483106 0.06578090
v 0.04913326 0.01495901 0.06520972
v 0.04913326 0.01513618 0.06422000
v 0.04913326 0.01519031 0.06391472
v 0.04913326 0.01527397 0.06336816
v 0.04913326 0.01529365 0.06323522
v 0.04913326 0.01548066 0.06190575
v 0.04913326 0.01570212 0.06008389
v 0.04913326 0.01575626 0.05949302
v 0.04913326 0.01584976 0.05817832
v 0.04913326 0.01585960 0.05758745
v 0.04913326 0.01574149 0.05631215
v 0.04913326 0.01561354 0.05568681
v 0.04913326 0.01541669 0.05502700
v 0.01372528 0.01014109 0.06598771
v 0.04913326 0.01249838 0.05170825
v 0.01372528 0.00931432 0.06503246
v 0.04913326 0.01537240 0.05494329
v 0.04913326 0.01475232 0.05396342
v 0.04913326 0.01442751 0.05356951
v 0.01372528 0.00955054 0.06529342
v 0.04913326 0.01367456 0.05278660
v 0.04913326 0.01382712 0.05292939
f 1 2 3
f 1 3 4
f 1 4 10
f 1 10 24
f 1 24 53
f 1 53 83
f 1 83 82
f 1 82 119
f 1 119 129
f 1 129 128
f 1 128 134
f 1 134 133
f 1 133 184
f 1 184 238
f 1 238 269
f 1 269 268
f 1 268 267
f 1 267 298
f 1 298 321
f 1 321 320
f 1 320 342
f 1 342 341
f 1 341 345
f 1 345 369
f 1 369 399
f 1 399 419
f 1 419 433
f 1 433 443
f 1 443 461
f 1 461 460
f 1 460 470
f 1 470 469
f 1 469 479
f 1 479 488
f 1 488 508
f 1 508 514
f 1 514 510
f 1 510 492
f 1 492 491
f 1 491 490
f 1 490 483
f 1 483 482
f 1 482 481
f 1 481 472
f 1 472 464
f 1 464 463
f 1 463 449
f 1 449 448
f 1 448 447
f 1 447 446
f 1 446 444
f 1 444 434
f 1 434 420
f 1 420 400
f 1 400 370
f 1 370 346
f 1 346 322
f 1 322 299
f 1 299 270
f 1 270 239
f 1 239 185
f 1 185 135
f 1 135 95
f 1 95 54
f 1 54 25
f 1 25 11
f 1 11 5
f 1 5 6
f 1 6 2
f 2 7 8
f 2 8 3
f 2 6 14
f 2 14 7
f 3 9 10
f 3 10 4
f 3 8 9
f 5 11 12
f 5 12 6
f 6 12 13
f 6 13 14
f 7 14 30
f 7 30 15
f 7 15 16
f 7 16 8
f 8 16 17
f 8 17 9
f 9 18 10
f 9 17 19
f 9 19 20
f 9 20 21
f 9 21 22
f 9 22 23
f 9 23 18
f 10 18 24
f 11 25 26
f 11 26 27
f 11 27 28
f 11 28 12
f 12 28 13
f 13 29 30
f 13 30 14
f 13 28 31
f 13 31 32
f 13 32 33
f 13 33 34
f 13 34 29
f 15 30 63
f 15 63 35
f 15 35 36
f 15 36 37
f 15 37 38
f 15 38 39
f 15 39 16
f 16 39 40
f 16 40 17
f 17 40 19
f 18 41 24
f 18 23 42
f 18 42 43
f 18 43 41
f 19 44 45
f 19 45 46
f 19 46 47
f 19 47 48
f 19 48 20
f 19 40 44
f 20 22 21
f 20 48 22
f 22 49 50
f 22 50 23
f 22 48 51
f 22 51 52
f 22 52 49
f 23 50 42
f 24 41 53
f 25 54 55
f 25 55 56
f 25 56 26
f 26 56 27
f 27 56 55
f 27 55 57
f 27 57 58
f 27 58 28
f 28 58 59
f 28 59 60
f 28 60 31
f 29 34 61
f 29 61 30
f 30 61 62
f 30 62 63
f 31 60 64
f 31 64 32
f 32 64 65
f 32 65 33
f 33 65 66
f 33 66 34
f 34 66 67
f 34 67 68
f 34 68 69
f 34 69 70
f 34 70 71
f 34 71 61
f 35 72 73
f 35 73 74
f 35 74 75
f 35 75 76
f 35 76 36
f 35 63 77
f 35 77 78
f 35 78 79
f 35 79 72
f 36 76 80
f 36 80 37
f 37 39 38
f 37 80 39
f 39 80 40
f 40 80 44
f 41 43 83
f 41 83 53
f 42 50 81
f 42 81 82
f 42 82 43
f 43 82 83
f 44 84 85
f 44 85 45
f 44 80 84
f 45 86 46
f 45 85 86
f 46 86 87
f 46 87 88
f 46 88 89
f 46 89 47
f 47 89 51
f 47 51 48
f 49 90 50
f 49 52 91
f 49 91 90
f 50 82 81
f 50 90 82
f 51 89 92
f 51 92 93
f 51 93 52
f 52 93 94
f 52 94 91
f 54 95 96
f 54 96 55
f 55 96 57
f 57 96 58
f 58 96 97
f 58 97 59
f 59 97 98
f 59 98 99
f 59 99 60
f 60 99 100
f 60 100 64
f 61 71 77
f 61 77 62
f 62 77 63
f 64 101 65
f 64 100 101
f 65 101 66
f 66 101 67
f 67 101 102
f 67 102 103
f 67 103 68
f 68 103 104
f 68 104 105
f 68 105 106
f 68 106 107
f 68 107 69
f 69 107 70
f 70 108 109
f 70 109 71
f 70 107 108
f 71 109 77
f 72 79 110
f 72 110 111
f 72 111 112
f 72 112 113
f 72 113 114
f 72 114 115
f 72 115 73
f 73 115 74
f 74 115 116
f 74 116 75
f 75 116 76
f 76 116 80
f 77 109 78
f 78 109 108
f 78 108 117
f 78 117 79
f 79 117 110
f 80 116 118
f 80 118 84
f 82 90 119
f 84 120 85
f 84 118 116
f 84 116 120
f 85 120 86
f 86 121 122
f 86 122 123
f 86 123 87
f 86 120 124
f 86 124 121
f 87 123 125
f 87 125 88
f 88 125 126
f 88 126 127
f 88 127 89
f 89 127 92
f 90 128 129
f 90 129 119
f 90 91 94
f 90 94 128
f 92 127 130
f 92 130 131
f 92 131 93
f 93 131 94
f 94 131 132
f 94 132 133
f 94 133 134
f 94 134 128
f 95 135 136
f 95 136 96
f 96 136 137
f 96 137 138
f 96 138 139
f 96 139 140
f 96 140 99
f 96 99 97
f 97 99 98
f 99 140 141
f 99 141 100
f 100 141 142
f 100 142 143
f 100 143 101
f 101 143 144
f 101 144 102
f 102 144 145
f 102 145 103
f 103 145 104
f 104 145 146
f 104 146 147
f 104 147 105
f 105 148 149
f 105 149 106
f 105 147 148
f 106 149 150
f 106 150 107
f 107 150 151
f 107 151 152
f 107 152 108
f 108 152 117
f 110 117 111
f 111 117 153
f 111 153 154
f 111 154 155
f 111 155 112
f 112 155 156
f 112 156 157
f 112 157 158
f 112 158 159
f 112 159 160
f 112 160 161
f 112 161 113
f 113 161 162
f 113 162 114
f 114 162 115
f 115 162 163
f 115 163 164
f 115 164 116
f 116 164 120
f 117 165 154
f 117 154 153
f 117 152 166
f 117 166 167
f 117 167 165
f 120 168 169
f 120 169 124
f 120 164 168
f 121 124 169
f 121 169 170
f 121 170 171
f 121 171 122
f 122 171 123
f 123 171 172
f 123 172 125
f 125 173 174
f 125 174 175
f 125 175 176
f 125 176 177
f 125 177 178
f 125 178 179
f 125 179 131
f 125 131 130
f 125 130 180
f 125 180 127
f 125 127 126
f 125 172 181
f 125 181 173
f 127 180 130
f 131 179 182
f 131 182 183
f 131 183 132
f 132 183 133
f 133 183 184
f 135 185 186
f 135 186 136
f 136 186 187
f 136 187 188
f 136 188 137
f 137 139 138
f 137 188 189
f 137 189 139
f 139 189 190
f 139 190 191
f 139 191 140
f 140 192 141
f 140 191 192
f 141 192 193
f 141 193 194
f 141 194 142
f 142 195 143
f 142 194 196
f 142 196 197
f 142 197 198
f 142 198 199
f 142 199 195
f 143 195 144
f 144 195 145
f 145 195 200
f 145 200 201
f 145 201 202
f 145 202 146
f 146 202 147
f 147 202 199
f 147 199 198
f 147 198 197
f 147 197 246
f 147 246 245
f 147 245 244
f 147 244 191
f 147 191 190
f 147 190 243
f 147 243 274
f 147 274 273
f 147 273 303
f 147 303 324
f 147 324 323
f 147 323 350
f 147 350 349
f 147 349 348
f 147 348 347
f 147 347 375
f 147 375 374
f 147 374 373
f 147 373 372
f 147 372 371
f 147 371 402
f 147 402 401
f 147 401 423
f 147 423 422
f 147 422 421
f 147 421 435
f 147 435 445
f 147 445 462
f 147 462 471
f 147 471 480
f 147 480 489
f 147 489 509
f 147 509 515
f 147 515 516
f 147 516 513
f 147 513 512
f 147 512 511
f 147 511 507
f 147 507 506
f 147 506 505
f 147 505 504
f 147 504 503
f 147 503 502
f 147 502 501
f 147 501 500
f 147 500 499
f 147 499 498
f 147 498 497
f 147 497 496
f 147 496 495
f 147 495 494
f 147 494 493
f 147 493 486
f 147 486 485
f 147 485 484
f 147 484 474
f 147 474 473
f 147 473 466
f 147 466 456
f 147 456 465
f 147 465 454
f 147 454 453
f 147 453 452
f 147 452 451
f 147 451 450
f 147 450 436
f 147 436 428
f 147 428 424
f 147 424 405
f 147 405 381
f 147 381 380
f 147 380 379
f 147 379 358
f 147 358 357
f 147 357 356
f 147 356 355
f 147 355 351
f 147 351 325
f 147 325 309
f 147 309 308
f 147 308 307
f 147 307 305
f 147 305 286
f 147 286 285
f 147 285 284
f 147 284 281
f 147 281 280
f 147 280 279
f 147 279 278
f 147 278 277
f 147 277 276
f 147 276 275
f 147 275 250
f 147 250 249
f 147 249 248
f 147 248 210
f 147 210 207
f 147 207 157
f 147 157 205
f 147 205 206
f 147 206 247
f 147 247 216
f 147 216 203
f 147 203 149
f 147 149 148
f 149 203 150
f 150 203 151
f 151 204 166
f 151 166 152
f 151 203 204
f 154 165 155
f 155 165 156
f 156 205 157
f 156 165 206
f 156 206 205
f 157 207 208
f 157 208 158
f 158 208 159
f 159 208 160
f 160 209 161
f 160 208 210
f 160 210 211
f 160 211 212
f 160 212 209
f 161 209 162
f 162 209 212
f 162 212 163
f 163 212 168
f 163 168 164
f 165 167 213
f 165 213 206
f 166 204 167
f 167 214 213
f 167 204 215
f 167 215 216
f 167 216 217
f 167 217 214
f 168 212 218
f 168 218 169
f 169 218 170
f 170 219 172
f 170 172 171
f 170 218 220
f 170 220 221
f 170 221 222
f 170 222 223
f 170 223 224
f 170 224 219
f 172 219 225
f 172 225 181
f 173 226 174
f 173 181 226
f 174 226 224
f 174 224 227
f 174 227 228
f 174 228 229
f 174 229 230
f 174 230 231
f 174 231 176
f 174 176 175
f 176 232 233
f 176 233 177
f 176 231 232
f 177 233 234
f 177 234 235
f 177 235 178
f 178 236 179
f 178 235 236
f 179 236 182
f 181 225 237
f 181 237 224
f 181 224 226
f 182 236 183
f 183 236 238
f 183 238 184
f 185 239 186
f 186 239 240
f 186 240 187
f 187 240 241
f 187 241 242
f 187 242 188
f 188 242 189
f 189 242 243
f 189 243 190
f 191 244 192
f 192 244 245
f 192 245 193
f 193 245 246
f 193 246 194
f 194 246 196
f 195 199 201
f 195 201 200
f 196 246 197
f 199 202 201
f 203 215 204
f 203 216 215
f 206 213 247
f 207 210 208
f 210 248 211
f 211 248 249
f 211 249 250
f 211 250 251
f 211 251 252
f 211 252 218
f 211 218 212
f 213 214 217
f 213 217 247
f 216 247 217
f 218 252 220
f 219 224 225
f 220 252 221
f 221 251 253
f 221 253 222
f 221 252 251
f 222 253 223
f 223 253 224
f 224 253 227
f 224 237 225
f 227 253 228
f 228 253 254
f 228 254 230
f 228 230 255
f 228 255 229
f 229 255 230
f 230 254 256
f 230 256 257
f 230 257 258
f 230 258 259
f 230 259 260
f 230 260 261
f 230 261 262
f 230 262 231
f 231 262 232
f 232 262 261
f 232 261 263
f 232 263 233
f 233 263 234
f 234 264 265
f 234 265 266
f 234 266 235
f 234 263 264
f 235 266 267
f 235 267 268
f 235 268 269
f 235 269 236
f 236 269 238
f 239 270 271
f 239 271 240
f 240 271 300
f 240 300 272
f 240 272 273
f 240 273 241
f 241 273 274
f 241 274 242
f 242 274 243
f 250 275 251
f 251 275 276
f 251 276 253
f 253 277 278
f 253 278 279
f 253 279 280
f 253 280 281
f 253 281 282
f 253 282 256
f 253 256 254
f 253 276 277
f 256 282 257
f 257 283 258
f 257 282 284
f 257 284 285
f 257 285 286
f 257 286 283
f 258 283 287
f 258 287 288
f 258 288 289
f 258 289 259
f 259 289 288
f 259 288 290
f 259 290 291
f 259 291 260
f 260 291 261
f 261 291 292
f 261 292 263
f 263 292 264
f 264 292 293
f 264 293 294
f 264 294 265
f 265 295 266
f 265 294 296
f 265 296 297
f 265 297 295
f 266 295 298
f 266 298 267
f 270 299 271
f 271 299 300
f 272 300 301
f 272 301 302
f 272 302 303
f 272 303 273
f 281 284 282
f 283 304 287
f 283 286 305
f 283 305 304
f 287 304 306
f 287 306 288
f 288 306 307
f 288 307 308
f 288 308 309
f 288 309 310
f 288 310 311
f 288 311 290
f 290 312 328
f 290 328 313
f 290 313 292
f 290 292 291
f 290 311 314
f 290 314 312
f 292 313 293
f 293 313 328
f 293 328 315
f 293 315 316
f 293 316 294
f 294 316 317
f 294 317 296
f 295 297 298
f 296 317 318
f 296 318 319
f 296 319 320
f 296 320 321
f 296 321 298
f 296 298 297
f 299 322 301
f 299 301 300
f 301 323 324
f 301 324 302
f 301 322 323
f 302 324 303
f 304 305 306
f 305 307 306
f 309 325 310
f 310 314 311
f 310 325 314
f 312 326 327
f 312 327 328
f 312 314 326
f 314 329 327
f 314 327 326
f 314 325 330
f 314 330 331
f 314 331 332
f 314 332 333
f 314 333 329
f 315 334 316
f 315 328 335
f 315 335 336
f 315 336 337
f 315 337 334
f 316 338 317
f 316 334 339
f 316 339 338
f 317 338 318
f 318 338 340
f 318 340 319
f 319 341 342
f 319 342 320
f 319 340 343
f 319 343 344
f 319 344 345
f 319 345 341
f 322 346 347
f 322 347 348
f 322 348 349
f 322 349 350
f 322 350 323
f 325 351 330
f 327 329 335
f 327 335 328
f 329 333 352
f 329 352 353
f 329 353 354
f 329 354 335
f 330 351 355
f 330 355 331
f 331 355 356
f 331 356 332
f 332 356 357
f 332 357 333
f 333 357 358
f 333 358 359
f 333 359 352
f 334 337 339
f 335 354 360
f 335 360 336
f 336 360 337
f 337 360 339
f 338 339 361
f 338 361 362
f 338 362 363
f 338 363 340
f 339 360 364
f 339 364 365
f 339 365 366
f 339 366 367
f 339 367 361
f 340 368 343
f 340 363 368
f 343 368 344
f 344 369 345
f 344 368 369
f 346 370 371
f 346 371 372
f 346 372 373
f 346 373 374
f 346 374 375
f 346 375 347
f 352 376 377
f 352 377 353
f 352 359 378
f 352 378 376
f 353 360 354
f 353 377 360
f 358 379 359
f 359 379 380
f 359 380 381
f 359 381 382
f 359 382 378
f 360 383 364
f 360 377 384
f 360 384 385
f 360 385 383
f 361 367 386
f 361 386 387
f 361 387 362
f 362 387 388
f 362 388 363
f 363 388 389
f 363 389 390
f 363 390 368
f 364 383 365
f 365 391 366
f 365 383 392
f 365 392 393
f 365 393 394
f 365 394 391
f 366 391 394
f 366 394 386
f 366 386 367
f 368 390 395
f 368 395 396
f 368 396 369
f 369 396 397
f 369 397 398
f 369 398 399
f 370 400 401
f 370 401 402
f 370 402 371
f 376 403 377
f 376 378 403
f 377 403 384
f 378 382 404
f 378 404 403
f 381 405 382
f 382 406 407
f 382 407 404
f 382 405 408
f 382 408 409
f 382 409 406
f 383 385 410
f 383 410 392
f 384 403 411
f 384 411 410
f 384 410 385
f 386 394 387
f 387 394 412
f 387 412 388
f 388 412 389
f 389 412 413
f 389 413 414
f 389 414 415
f 389 415 416
f 389 416 395
f 389 395 390
f 392 410 417
f 392 417 393
f 393 417 406
f 393 406 412
f 393 412 394
f 395 418 396
f 395 416 415
f 395 415 418
f 396 418 397
f 397 418 419
f 397 419 398
f 398 419 399
f 400 420 421
f 400 421 422
f 400 422 423
f 400 423 401
f 403 404 407
f 403 407 411
f 405 424 408
f 406 413 412
f 406 417 425
f 406 425 407
f 406 409 426
f 406 426 427
f 406 427 413
f 407 425 411
f 408 424 409
f 409 424 428
f 409 428 426
f 410 411 425
f 410 425 417
f 413 427 429
f 413 429 414
f 414 429 430
f 414 430 431
f 414 431 415
f 415 431 432
f 415 432 419
f 415 419 418
f 419 432 433
f 420 434 421
f 421 434 435
f 426 428 436
f 426 436 437
f 426 437 438
f 426 438 427
f 427 438 429
f 429 438 439
f 429 439 440
f 429 440 430
f 430 440 441
f 430 441 442
f 430 442 443
f 430 443 432
f 430 432 431
f 432 443 433
f 434 444 435
f 435 444 446
f 435 446 447
f 435 447 448
f 435 448 449
f 435 449 445
f 436 450 437
f 437 450 438
f 438 450 451
f 438 451 452
f 438 452 439
f 439 452 453
f 439 453 454
f 439 454 455
f 439 455 440
f 440 455 441
f 441 455 456
f 441 456 457
f 441 457 458
f 441 458 442
f 442 458 459
f 442 459 460
f 442 460 461
f 442 461 443
f 445 449 463
f 445 463 464
f 445 464 462
f 454 465 455
f 455 465 456
f 456 466 457
f 457 466 458
f 458 466 467
f 458 467 468
f 458 468 459
f 459 468 469
f 459 469 470
f 459 470 460
f 462 464 471
f 464 472 471
f 466 473 467
f 467 473 474
f 467 474 475
f 467 475 468
f 468 475 476
f 468 476 477
f 468 477 469
f 469 476 478
f 469 478 479
f 469 477 476
f 471 472 481
f 471 481 482
f 471 482 483
f 471 483 480
f 474 484 475
f 475 484 485
f 475 485 476
f 476 485 486
f 476 486 487
f 476 487 479
f 476 479 478
f 479 487 488
f 480 483 490
f 480 490 491
f 480 491 492
f 480 492 489
f 486 493 487
f 487 493 488
f 488 493 494
f 488 494 495
f 488 495 496
f 488 496 497
f 488 497 498
f 488 498 499
f 488 499 500
f 488 500 501
f 488 501 502
f 488 502 503
f 488 503 504
f 488 504 505
f 488 505 506
f 488 506 507
f 488 507 508
f 489 492 510
f 489 510 509
f 507 511 508
f 508 511 512
f 508 512 513
f 508 513 514
f 509 510 515
f 510 514 513
f 510 513 516
f 510 516 515

