# https://github.com/mikedh/trimesh
v 0.08474095 0.02585966 0.02211611
v 0.08460223 0.02585663 0.02211611
v 0.08650627 0.02574152 0.02211611
v 0.08664723 0.03146084 0.01054817
v 0.08664723 0.03216364 0.00910274
v 0.08269818 0.02575666 0.02211611
v 0.08665394 0.02572637 0.02211611
v 0.08813064 0.03253018 0.00799331
v 0.08664723 0.03260289 0.00814890
v 0.08474095 0.03395699 0.00502353
v 0.08474095 0.03315725 0.00673729
v 0.08093286 0.02564155 0.02211611
v 0.08854233 0.02515080 0.02211611
v 0.08941716 0.03045814 0.01145016
v 0.08868999 0.03106703 0.01070602
v 0.08814630 0.03064596 0.01178840
v 0.08940149 0.03236357 0.00762349
v 0.08868104 0.03285432 0.00688838
v 0.08855128 0.03369040 0.00483186
v 0.08681504 0.03403272 0.00475519
v 0.08664723 0.03322995 0.00673729
v 0.08868104 0.03209699 0.00863371
v 0.08474095 0.03437806 0.00406968
v 0.08367817 0.03432656 0.00394115
v 0.08078966 0.02562035 0.02211611
v 0.08859826 0.02512657 0.02211611
v 0.09006601 0.03081257 0.01018287
v 0.08874369 0.02505992 0.02211611
v 0.08942834 0.02474488 0.02211611
v 0.09006601 0.03263318 0.00635395
v 0.09060299 0.03215152 0.00688838
v 0.09045756 0.03344200 0.00292642
v 0.08855128 0.03399939 0.00292642
v 0.08748849 0.03427506 0.00292642
v 0.08629148 0.03437806 0.00406968
v 0.09060299 0.03295126 0.00497392
v 0.08474095 0.03443258 0.00292642
v 0.08364685 0.03432959 0.00292642
v 0.08269818 0.03404484 0.00292642
v 0.08093286 0.03339354 0.00292642
v 0.08089930 0.03288764 0.00482509
v 0.08296220 0.03378734 0.00467852
v 0.07891694 0.02523562 0.02211611
v 0.07902434 0.02526288 0.02211611
v 0.09133687 0.03043693 0.00950638
v 0.09060299 0.03122758 0.00878029
v 0.09013313 0.02426625 0.02211611
v 0.09133687 0.03235145 0.00570227
v 0.08621764 0.03435382 0.00191619
v 0.09166577 0.03262106 0.00443273
v 0.09180672 0.03276647 0.00292642
v 0.09168142 0.03266347 0.00173129
v 0.08653536 0.03439926 0.00292642
v 0.08474095 0.03435080 0.00192070
v 0.08371173 0.03431141 0.00195904
v 0.07978059 0.03264833 0.00179217
v 0.07972689 0.03269376 0.00292642
v 0.07984100 0.03253624 0.00418468
v 0.07795037 0.02485999 0.02211611
v 0.09174855 0.03078833 0.00823684
v 0.09038372 0.02409358 0.02211611
v 0.09169038 0.02315752 0.02211611
v 0.09271064 0.02232749 0.02211611
v 0.09045756 0.03292096 0.00158472
v 0.08855128 0.03317542 0.00155540
v 0.09045756 0.03143964 0.00094882
v 0.08677029 0.03352077 0.00160952
v 0.08474095 0.03334506 0.00154413
v 0.09207297 0.03115791 0.00673729
v 0.09302612 0.02982804 0.00673729
v 0.09249584 0.03143964 0.00292642
v 0.09192754 0.03143964 0.00148775
v 0.09145544 0.02684418 0.00004007
v 0.08093286 0.03291490 0.00168844
v 0.07978059 0.03177286 0.00179217
v 0.07805777 0.02862844 0.00572031
v 0.08557774 0.02677148 0.00004909
v 0.08664723 0.02381791 -0.00054397
v 0.08664723 0.02191248 -0.00081907
v 0.08503181 0.02191248 -0.00032298
v 0.07395881 0.01987376 0.02211611
v 0.07435708 0.02070379 0.02211611
v 0.07498803 0.02174587 0.02211611
v 0.07500146 0.02176707 0.02211611
v 0.07596578 0.02306361 0.02211611
v 0.07689207 0.02394817 0.02211611
v 0.09315141 0.02269707 0.02072480
v 0.09319392 0.02461764 0.01692520
v 0.09358323 0.02137932 0.02211611
v 0.08855128 0.03143964 0.00092176
v 0.09045756 0.02953420 0.00050008
v 0.08664723 0.03143964 0.00097588
v 0.08474095 0.03143964 0.00105705
v 0.09333712 0.02864662 0.00780164
v 0.09338410 0.02887381 0.00673729
v 0.09340648 0.02492361 0.01565340
v 0.09338410 0.02891017 0.00541363
v 0.09288068 0.02953420 0.00292642
v 0.09276434 0.02381791 0.00102098
v 0.09206627 0.02953420 0.00126451
v 0.09188503 0.02381791 -0.00025533
v 0.09161431 0.02572334 -0.00007043
v 0.09045756 0.02706532 -0.00000729
v 0.09045756 0.02801955 0.00018438
v 0.09045756 0.02381791 -0.00060710
v 0.09045756 0.02572334 -0.00026210
v 0.07948301 0.02762877 0.00336613
v 0.07931297 0.02953420 0.00307750
v 0.07847841 0.02773783 0.00498294
v 0.07805777 0.02844365 0.00572031
v 0.08423305 0.02000705 0.00031743
v 0.08306289 0.02000705 0.00127127
v 0.08210974 0.02000705 0.00226346
v 0.07165428 0.01048595 0.02211611
v 0.07179299 0.01239138 0.02211611
v 0.07220244 0.01429681 0.02211611
v 0.07330772 0.01810464 0.02211611
v 0.08855128 0.02572334 -0.00027788
v 0.08664723 0.02572334 -0.00020121
v 0.08855128 0.02706835 -0.00001180
v 0.08855128 0.02381791 -0.00063416
v 0.08855128 0.02191248 -0.00091829
v 0.08664723 0.02000705 -0.00057779
v 0.08518620 0.02000705 -0.00022602
v 0.09343109 0.02303332 0.01945300
v 0.09361680 0.02131571 0.02211611
v 0.09360337 0.02141567 0.02197630
v 0.08855128 0.02953420 0.00050459
v 0.08855128 0.02801955 0.00018664
v 0.09357429 0.02335140 0.01816542
v 0.09416497 0.02001613 0.02211611
v 0.09419181 0.02000705 0.02197630
v 0.09421643 0.01986770 0.02211611
v 0.09433725 0.02000705 0.02007086
v 0.09405085 0.02191248 0.00673729
v 0.09386515 0.02191248 0.00483186
v 0.09331474 0.02282733 0.00198384
v 0.09432606 0.02000705 0.01816542
v 0.09299703 0.02207909 0.00116980
v 0.09196558 0.02191248 -0.00031396
v 0.09045756 0.02191248 -0.00080329
v 0.08147879 0.02000705 0.00321730
v 0.07188249 0.00858052 0.02211611
v 0.08549944 0.01897708 -0.00001856
v 0.08336941 0.01873474 0.00155765
v 0.08167792 0.01871959 0.00351947
v 0.08865867 0.01983740 -0.00043122
v 0.08664723 0.01893467 -0.00007493
v 0.09450952 0.01810464 0.02211611
v 0.09450952 0.01810464 0.02197630
v 0.09450952 0.01796530 0.02211611
v 0.09436186 0.01620224 0.02211611
v 0.09388529 0.02000705 0.00673729
v 0.09345570 0.02065835 0.00292642
v 0.09333935 0.02091886 0.00190266
v 0.09333935 0.02155805 0.00190266
v 0.09348702 0.02207909 0.00274151
v 0.09174632 0.02065835 -0.00016288
v 0.09045756 0.02028574 -0.00037935
v 0.07282445 0.00678111 0.02211611
v 0.08283914 0.00351249 0.02211611
v 0.08093286 0.00377907 0.02211611
v 0.07898183 0.00425770 0.02211611
v 0.07753198 0.00468180 0.02211611
v 0.07708673 0.00482115 0.02211611
v 0.07521848 0.00545125 0.02211611
v 0.07342184 0.00626916 0.02211611
v 0.08936569 0.01908917 0.00010997
v 0.08809484 0.01896800 -0.00003435
v 0.08474095 0.00348523 0.02211611
v 0.09434172 0.01605986 0.02211611
v 0.09352729 0.01059500 0.02211611
v 0.09351164 0.01051018 0.02211611
v 0.09349374 0.01044051 0.02211611
v 0.09327223 0.00964380 0.02211611
v 0.09360561 0.01998281 0.00493558
v 0.09273972 0.00858960 0.02211611
v 0.09271288 0.00854416 0.02211611
v 0.09169485 0.00688411 0.02211611
v 0.09168366 0.00686896 0.02211611
v 0.09086924 0.00597834 0.02211611
v 0.09224974 0.02015548 0.00125549
v 0.09148005 0.01900132 0.00187786
v 0.09045756 0.01933151 0.00050459
v 0.08877725 0.00442734 0.02211611
v 0.08858036 0.00434252 0.02211611
v 0.08738334 0.00393962 0.02211611
v 0.08664723 0.00372454 0.02211611
v 0.09045756 0.00561180 0.02211611
v 0.09021591 0.00539975 0.02211611
v 0.08891597 0.00449399 0.02211611
f 1 2 6
f 1 6 12
f 1 12 25
f 1 25 44
f 1 44 43
f 1 43 59
f 1 59 86
f 1 86 85
f 1 85 84
f 1 84 83
f 1 83 82
f 1 82 81
f 1 81 117
f 1 117 116
f 1 116 115
f 1 115 114
f 1 114 143
f 1 143 160
f 1 160 167
f 1 167 166
f 1 166 165
f 1 165 164
f 1 164 163
f 1 163 162
f 1 162 161
f 1 161 170
f 1 170 188
f 1 188 187
f 1 187 186
f 1 186 185
f 1 185 191
f 1 191 190
f 1 190 189
f 1 189 181
f 1 181 180
f 1 180 179
f 1 179 178
f 1 178 177
f 1 177 175
f 1 175 174
f 1 174 173
f 1 173 172
f 1 172 171
f 1 171 152
f 1 152 151
f 1 151 149
f 1 149 133
f 1 133 131
f 1 131 126
f 1 126 89
f 1 89 63
f 1 63 62
f 1 62 61
f 1 61 47
f 1 47 29
f 1 29 28
f 1 28 26
f 1 26 13
f 1 13 7
f 1 7 3
f 1 3 4
f 1 4 5
f 1 5 2
f 2 5 6
f 3 7 4
f 4 8 5
f 4 7 8
f 5 8 9
f 5 9 10
f 5 10 11
f 5 11 6
f 6 11 12
f 7 13 14
f 7 14 15
f 7 15 16
f 7 16 8
f 8 17 18
f 8 18 19
f 8 19 20
f 8 20 21
f 8 21 9
f 8 16 22
f 8 22 17
f 9 21 10
f 10 21 23
f 10 23 24
f 10 24 12
f 10 12 11
f 12 24 25
f 13 26 14
f 14 27 17
f 14 17 15
f 14 26 28
f 14 28 29
f 14 29 27
f 15 22 16
f 15 17 22
f 17 30 19
f 17 19 18
f 17 27 31
f 17 31 30
f 19 32 33
f 19 33 34
f 19 34 35
f 19 35 20
f 19 30 36
f 19 36 32
f 20 35 21
f 21 35 23
f 23 35 37
f 23 37 24
f 24 37 38
f 24 38 39
f 24 39 40
f 24 40 41
f 24 41 42
f 24 42 43
f 24 43 44
f 24 44 25
f 27 45 46
f 27 46 31
f 27 29 45
f 29 47 45
f 30 31 48
f 30 48 36
f 31 46 48
f 32 49 33
f 32 36 50
f 32 50 51
f 32 51 52
f 32 52 49
f 33 49 34
f 34 49 53
f 34 53 35
f 35 53 37
f 36 48 50
f 37 53 49
f 37 49 54
f 37 54 55
f 37 55 38
f 38 55 39
f 39 55 40
f 40 55 56
f 40 56 57
f 40 57 58
f 40 58 41
f 41 58 59
f 41 59 42
f 42 59 43
f 45 60 48
f 45 48 46
f 45 47 61
f 45 61 62
f 45 62 63
f 45 63 60
f 48 60 50
f 49 52 64
f 49 64 65
f 49 65 66
f 49 66 67
f 49 67 68
f 49 68 54
f 50 60 69
f 50 69 70
f 50 70 51
f 51 70 71
f 51 71 52
f 52 71 72
f 52 72 73
f 52 73 66
f 52 66 64
f 54 68 55
f 55 68 74
f 55 74 56
f 56 75 110
f 56 110 76
f 56 76 57
f 56 74 77
f 56 77 78
f 56 78 79
f 56 79 80
f 56 80 75
f 57 76 81
f 57 81 82
f 57 82 83
f 57 83 84
f 57 84 85
f 57 85 58
f 58 85 86
f 58 86 59
f 60 63 87
f 60 87 88
f 60 88 69
f 63 89 87
f 64 66 65
f 66 90 67
f 66 73 91
f 66 91 90
f 67 90 68
f 68 90 92
f 68 92 93
f 68 93 74
f 69 88 70
f 70 94 95
f 70 95 71
f 70 88 96
f 70 96 94
f 71 95 97
f 71 97 98
f 71 98 72
f 72 98 99
f 72 99 100
f 72 100 101
f 72 101 102
f 72 102 73
f 73 103 104
f 73 104 91
f 73 102 105
f 73 105 106
f 73 106 103
f 74 93 77
f 75 107 108
f 75 108 109
f 75 109 110
f 75 80 111
f 75 111 112
f 75 112 113
f 75 113 107
f 76 110 114
f 76 114 115
f 76 115 116
f 76 116 117
f 76 117 81
f 77 118 119
f 77 119 78
f 77 93 92
f 77 92 120
f 77 120 118
f 78 121 122
f 78 122 79
f 78 119 121
f 79 122 123
f 79 123 124
f 79 124 80
f 80 124 111
f 87 89 125
f 87 125 88
f 88 125 96
f 89 126 127
f 89 127 125
f 90 91 128
f 90 128 92
f 91 104 120
f 91 120 129
f 91 129 128
f 92 128 129
f 92 129 120
f 94 96 130
f 94 130 131
f 94 131 132
f 94 132 133
f 94 133 95
f 95 133 134
f 95 134 97
f 96 125 130
f 97 135 136
f 97 136 137
f 97 137 98
f 97 134 138
f 97 138 135
f 98 137 99
f 99 137 139
f 99 139 101
f 99 101 100
f 101 139 140
f 101 140 141
f 101 141 105
f 101 105 102
f 103 106 118
f 103 118 120
f 103 120 104
f 105 141 122
f 105 122 121
f 105 121 106
f 106 121 118
f 107 109 108
f 107 113 142
f 107 142 143
f 107 143 109
f 109 143 114
f 109 114 110
f 111 124 144
f 111 144 145
f 111 145 112
f 112 145 113
f 113 145 146
f 113 146 143
f 113 143 142
f 118 121 119
f 122 141 147
f 122 147 123
f 123 147 148
f 123 148 144
f 123 144 124
f 125 127 130
f 126 130 127
f 126 131 130
f 131 133 132
f 133 149 134
f 134 149 150
f 134 150 138
f 135 138 150
f 135 150 151
f 135 151 152
f 135 152 153
f 135 153 136
f 136 153 154
f 136 154 155
f 136 155 156
f 136 156 157
f 136 157 137
f 137 157 156
f 137 156 139
f 139 156 155
f 139 155 140
f 140 155 158
f 140 158 141
f 141 158 159
f 141 159 147
f 143 146 160
f 144 148 161
f 144 161 162
f 144 162 163
f 144 163 164
f 144 164 165
f 144 165 166
f 144 166 167
f 144 167 145
f 145 167 160
f 145 160 146
f 147 159 168
f 147 168 169
f 147 169 148
f 148 169 170
f 148 170 161
f 149 151 150
f 152 171 153
f 153 171 172
f 153 172 173
f 153 173 174
f 153 174 175
f 153 175 176
f 153 176 154
f 154 176 175
f 154 175 155
f 155 175 177
f 155 177 178
f 155 178 179
f 155 179 180
f 155 180 181
f 155 181 182
f 155 182 158
f 158 182 183
f 158 183 184
f 158 184 168
f 158 168 159
f 168 184 185
f 168 185 186
f 168 186 187
f 168 187 188
f 168 188 169
f 169 188 170
f 181 189 183
f 181 183 182
f 183 189 190
f 183 190 191
f 183 191 184
f 184 191 185

