# https://github.com/mikedh/trimesh
v -0.04357474 -0.01420931 -0.00721276
v -0.04322781 -0.01439023 -0.00204435
v -0.04272398 -0.01088763 -0.01288517
v -0.04302815 -0.00918604 -0.00106899
v -0.04304929 -0.00605788 -0.01345922
v -0.04228114 -0.00103393 -0.01362283
v -0.04198622 -0.01970216 -0.00018748
v -0.04065924 -0.01619312 -0.00558800
v -0.04225656 -0.00670329 -0.01775089
v -0.04045613 -0.00461535 -0.00398829
v -0.04080426 -0.01970666 0.00544951
v -0.03732691 -0.01273548 0.00873605
v -0.04050290 -0.00775208 -0.01754576
v -0.03770405 0.00336601 -0.01521101
v -0.03954415 -0.02365777 0.00559039
v -0.03971207 -0.00332547 -0.02324433
v -0.03959251 0.00037038 -0.02238381
v -0.03888943 -0.01786291 0.01111783
v -0.03821344 -0.02199959 0.00257076
v -0.03863586 0.00257993 -0.00431983
v -0.03661340 0.00625899 -0.02448864
v -0.03700110 -0.02324680 0.01225088
v -0.03816822 -0.00513764 0.00610833
v -0.03713726 0.00020025 -0.02759019
v -0.03903001 0.00414304 0.00354693
v -0.03767625 0.00515299 -0.02060984
v -0.03571920 -0.00783556 -0.01708999
v -0.03557724 -0.00171426 0.01384144
v -0.03684217 -0.02655501 0.00998664
v -0.03650981 -0.02423001 0.00375798
v -0.03341474 -0.02325650 0.01792871
v -0.03434936 -0.01772057 0.01438903
v -0.03659136 -0.00145058 -0.02617053
v -0.03382272 0.00564925 -0.02980049
v -0.03570302 0.00642974 0.00418690
v -0.03555930 0.01329750 -0.00760047
v -0.03641363 -0.02646909 0.00765134
v -0.03463174 0.01348064 -0.01237013
v -0.03254483 -0.01284540 0.01708229
v -0.03477266 -0.00585748 0.01767592
v -0.03348566 -0.02776945 0.01104763
v -0.03265248 -0.02127958 0.00153342
v -0.03149678 -0.01704090 -0.00389144
v -0.03178409 -0.00277954 0.01629164
v -0.03154727 0.00404110 -0.03333206
v -0.03494413 0.00416687 0.01184039
v -0.03560988 0.01062994 0.00416893
v -0.03558089 0.01052339 0.00942871
v -0.03454712 0.01590088 0.00220937
v -0.03307454 -0.02926912 0.01382417
v -0.03282406 -0.02271191 0.00177339
v -0.03048522 -0.00281250 -0.02380681
v -0.03195034 0.00266636 0.02077809
v -0.03121036 0.01006393 -0.02530732
v -0.03306682 0.01498369 -0.00532089
v -0.03138017 0.01127336 0.01278218
v -0.03186775 -0.02513251 0.00437390
v -0.02854305 -0.02102124 0.02006184
v -0.03185084 0.00162852 -0.03045732
v -0.03113322 0.01132822 -0.02049022
v -0.03151464 0.01748235 0.00328299
v -0.03217091 -0.02911912 0.01577185
v -0.03135668 -0.02705011 0.00784603
v -0.03021840 -0.00873312 0.02343476
v -0.03025911 -0.00332096 0.02058857
v -0.03041946 0.00610581 0.01923175
v -0.02893301 0.01654646 -0.02010762
v -0.03212307 0.01968955 -0.00473567
v -0.03082225 0.01844705 -0.01584999
v -0.03056238 -0.02980909 0.01422784
v -0.02877239 -0.00582247 0.02052950
v -0.02721168 0.01281841 -0.03248709
v -0.02908717 0.02183400 -0.00342914
v -0.02983182 -0.03114014 0.01703722
v -0.02845840 -0.02884089 0.02041274
v -0.02722221 -0.00913729 -0.01470935
v -0.02756017 -0.00219795 0.02615585
v -0.02602038 0.01589469 0.01081108
v -0.02631998 0.01993965 -0.01605106
v -0.02652351 0.02509536 -0.01032553
v -0.02574104 -0.01462693 0.02542433
v -0.02795226 0.00001232 -0.02856453
v -0.02895161 0.00178550 -0.03295859
v -0.02872005 0.02009816 -0.01143366
v -0.02367239 -0.02745847 0.02523657
v -0.02867207 -0.02277910 0.00309087
v -0.02789668 -0.02718894 0.01066122
v -0.02569577 -0.00776857 0.02390680
v -0.02950681 -0.00505145 0.01890656
v -0.02636659 0.00897320 -0.03631232
v -0.02475344 -0.03312459 0.02069616
v -0.02810111 -0.02498736 0.00531360
v -0.02419301 -0.02067507 0.00153181
v -0.02151284 -0.01582599 -0.00499331
v -0.02638659 -0.00730212 0.02232537
v -0.02896648 -0.00531704 0.01926134
v -0.02657219 -0.00608679 0.02462146
v -0.02881239 -0.00538772 0.02012223
v -0.02532257 0.00178965 0.02586879
v -0.02469186 0.01414462 -0.02770921
v -0.02467000 0.02137533 0.00251449
v -0.02348463 -0.03095919 0.01628376
v -0.02707026 -0.02489978 0.00721768
v -0.02356024 -0.01267010 0.02874676
v -0.02584341 0.00100978 -0.03210816
v -0.02514665 0.00419529 -0.03567564
v -0.02474448 0.00768353 -0.03810677
v -0.02358805 0.02282843 -0.02093858
v -0.02157043 0.00783205 0.02266411
v -0.02312571 0.01193775 0.01772531
v -0.02295278 0.02592459 -0.01468370
v -0.02149143 0.02629344 -0.00695132
v -0.02090858 -0.02543535 0.00834070
v -0.02289293 -0.00805755 0.02758906
v -0.02291644 -0.00337981 0.03025702
v -0.02253334 0.00594246 -0.03581808
v -0.02625149 -0.00734336 0.02187022
v -0.02586566 -0.00731922 0.02372284
v -0.02293325 -0.03012541 0.02447794
v -0.02065852 -0.02352951 0.02517151
v -0.02120093 -0.00495755 -0.02017295
v -0.02346518 -0.00003699 -0.02959628
v -0.02044077 0.00983432 -0.04016636
v -0.02170188 0.02054226 -0.02485631
v -0.02119740 0.01544610 -0.03441036
v -0.02116228 -0.00946563 -0.01399127
v -0.01742162 -0.01211658 0.02990870
v -0.02203740 -0.00000544 -0.02730648
v -0.02010957 0.01467890 -0.03705857
v -0.01990049 -0.01173862 -0.01065149
v -0.02117588 0.00198469 -0.03233615
v -0.01588729 0.00333050 0.02854018
v -0.01791534 0.02064250 0.00882219
v -0.02020601 0.02819293 -0.01258931
v -0.01632139 -0.03243455 0.02683843
v -0.01545040 -0.01848342 0.03052599
v -0.01838498 -0.00838123 0.03138133
v -0.01394244 0.00909824 -0.03969385
v -0.01568020 0.01672496 0.01562705
v -0.01648212 0.01945586 -0.02912947
v -0.01471780 0.02551728 -0.02563918
v -0.01796021 -0.03458110 0.02166892
v -0.01601657 0.01682607 -0.03330301
v -0.01692058 0.02421762 0.00264824
v -0.01872568 -0.03525716 0.02346552
v -0.01946680 -0.01094244 -0.01289529
v -0.01681896 -0.00320740 0.03260790
v -0.01622201 -0.03062863 0.01633057
v -0.01629231 -0.02147177 0.00304088
v -0.01393693 0.00000856 -0.02672449
v -0.01909224 0.00241049 -0.03050628
v -0.01297066 0.00482789 -0.03349073
v -0.01402618 0.01456546 -0.04028841
v -0.01408161 0.02731457 -0.02002461
v -0.01561458 0.02996240 -0.01712889
v -0.01602615 -0.02926815 0.02870091
v -0.01379230 -0.02691256 0.01079607
v -0.01211530 -0.01537547 0.03384502
v -0.01625639 -0.00987657 -0.01307124
v -0.01371712 -0.00686388 0.03484329
v -0.01437422 0.01142442 0.02212208
v -0.01243943 -0.02516585 0.02832871
v -0.01257207 0.02564501 -0.02183615
v -0.01139404 -0.03637750 0.02481996
v -0.01510318 0.01715599 -0.03778449
v -0.01475633 -0.03612712 0.02486273
v -0.01242185 -0.01772249 -0.00194755
v -0.01039250 -0.00780958 -0.01548764
v -0.01094343 0.03049071 -0.01262925
v -0.01032478 -0.01259859 -0.00878803
v -0.00919281 -0.00407537 -0.02065989
v -0.01069773 -0.01117163 0.03326100
v -0.01121644 0.01166173 -0.04293697
v -0.01056029 0.02781245 -0.00243194
v -0.01171352 -0.03646983 0.02590752
v -0.00875332 -0.03420706 0.02179405
v -0.01125026 -0.00330255 0.03404304
v -0.00981755 0.00669691 0.02756934
v -0.00765219 0.01844354 -0.03917674
v -0.00821592 -0.02253168 0.00504648
v -0.00820626 0.01908375 -0.03349335
v -0.00992911 0.02181626 0.01034306
v -0.00706935 -0.03081927 0.03083693
v -0.00685670 0.02525183 0.00493743
v -0.00982231 -0.03047798 0.01648080
v -0.00811833 0.01345672 0.02165399
v -0.00630676 0.02330911 -0.03008671
v -0.00772198 0.02707665 -0.02505728
v -0.00593737 -0.01309255 0.03325085
v -0.00650924 0.01838468 0.01620236
v -0.00668839 -0.03421859 0.02886668
v -0.00834571 -0.00745614 0.03645578
v -0.00725803 -0.03698518 0.02674088
v -0.00308576 -0.02771246 0.01253497
v -0.00091156 -0.01467210 -0.00538429
v -0.00539492 0.00059607 -0.02698263
v -0.00569378 -0.00090899 0.03351348
v -0.00371933 0.00871590 -0.03849463
v -0.00626681 0.01520483 -0.04214838
v -0.00430056 0.02744661 -0.02720700
v -0.00498471 0.02902571 -0.02183009
v -0.00842434 -0.02880344 0.01452241
v -0.00549967 -0.00635341 0.03657081
v -0.00705130 0.03176381 -0.01936958
v -0.00475756 -0.03117663 0.01859281
v -0.00113752 -0.03009821 0.01621918
v -0.00183368 -0.02301783 0.03113012
v -0.00306349 0.00542845 0.02950895
v -0.00549412 0.01167100 -0.04290503
v -0.00564856 0.01306667 -0.04369040
v -0.00428447 -0.02855396 0.01515584
v -0.00064766 -0.01582289 0.03550615
v -0.00274983 -0.03708898 0.02732748
v -0.00151178 -0.02924557 0.03082902
v -0.00250112 -0.01852696 -0.00014975
v -0.00262590 -0.01021874 0.03575600
v -0.00188630 0.02037364 -0.03291757
v -0.00347343 0.02196887 0.01148238
v -0.00307177 0.02919143 -0.00376877
v -0.00272688 0.03226150 -0.01757707
v -0.00207976 0.03139526 -0.01207841
v -0.00290607 -0.03710995 0.02631376
v 0.00107192 -0.00167665 -0.02344572
v -0.00155753 0.01004161 0.02577695
v -0.00059461 0.03193218 -0.02007132
v 0.00099580 0.00543298 -0.03343265
v 0.00226661 0.01282495 -0.04366087
v -0.00205128 0.01910588 -0.03930535
v -0.00342709 0.02680550 -0.02355849
v 0.00174908 -0.03441033 0.02266156
v 0.00016361 -0.00929491 -0.01286197
v 0.00166699 0.00095074 0.03275853
v 0.00024856 0.01747397 0.01799082
v 0.00154735 0.01801020 -0.04046313
v 0.00173506 0.02432097 -0.02980511
v 0.00014140 -0.02281539 0.00590043
v 0.00099727 -0.00782180 0.03719535
v 0.00360482 -0.00484527 0.03610976
v 0.00243586 0.02324761 0.00961359
v 0.00356487 0.02662911 0.00303923
v -0.00050559 -0.03434390 0.02940248
v 0.00191356 -0.01287000 0.03368244
v 0.00090179 0.01464344 -0.04300529
v 0.00094724 0.01896601 -0.03675474
v 0.00321932 0.02690068 -0.02444372
v 0.00139048 -0.03158309 0.03117698
v 0.00498068 0.02876079 -0.02183333
v 0.00209933 -0.02865317 0.01541262
v 0.00571976 -0.02503693 0.02995922
v 0.00305609 0.01124671 -0.04179951
v 0.00741453 0.03158106 -0.01410659
v 0.00299039 -0.03720732 0.02705865
v 0.00285737 -0.03111571 0.01858728
v 0.00602052 0.01938386 -0.03379172
v 0.00589323 0.02738483 -0.02680567
v 0.00760795 -0.03598907 0.02511157
v 0.00481854 -0.02812860 0.01362850
v 0.00671568 -0.02582510 0.01035171
v 0.00503571 0.00831175 0.02718130
v 0.00827921 0.01388936 0.02151188
v 0.00416413 0.03013820 -0.00672927
v 0.00628406 0.03211265 -0.01847605
v 0.00629625 -0.03326006 0.02961400
v 0.00461955 -0.02993353 0.03123916
v 0.00849754 -0.02209278 0.00525175
v 0.00804780 -0.01786477 -0.00065334
v 0.00726784 -0.00498113 -0.01848243
v 0.00829774 0.01565963 -0.04127560
v 0.00604801 -0.03018977 0.01689271
v 0.00818398 -0.01827150 0.03327974
v 0.00680909 -0.01041638 0.03478498
v 0.00879009 0.00714520 -0.03552720
v 0.00585493 0.01344024 -0.04332985
v 0.00622635 0.01907237 -0.03862659
v 0.00881459 -0.01086044 -0.01019951
v 0.01018414 -0.00578621 0.03589511
v 0.00971065 -0.01485747 0.03442307
v 0.01090956 -0.01276073 0.03270199
v 0.00958438 0.01807952 0.01638043
v 0.01025690 0.01848212 -0.03593539
v 0.01545773 -0.03105891 0.01862419
v 0.01031916 0.00072532 -0.02633940
v 0.01074328 0.00081176 0.03205118
v 0.00886127 0.02362280 -0.02900475
v 0.01174551 0.02654662 0.00128218
v 0.00911956 -0.03644764 0.02679777
v 0.01256234 0.01821293 -0.03765974
v 0.01059228 0.02181023 0.01079681
v 0.01149315 0.02616648 -0.02304066
v 0.01569094 -0.03190661 0.02759933
v 0.00888252 0.01230611 -0.04269337
v 0.01429383 -0.02870219 0.02969381
v 0.01215629 -0.01394852 -0.00560174
v 0.01442397 -0.00601785 -0.01660918
v 0.01766538 -0.03417619 0.02508995
v 0.01385664 -0.02421738 0.02838648
v 0.01589080 -0.00813689 0.03218824
v 0.01571823 0.02847905 -0.00636448
v 0.01172128 0.02914136 -0.01952366
v 0.01190495 0.01125810 -0.04137809
v 0.01765377 0.01714312 -0.03167719
v 0.01546879 0.02102065 -0.02807294
v 0.01384814 0.02624909 -0.02490974
v 0.01577256 0.00693067 0.02641474
v 0.01303577 0.01202898 -0.04198104
v 0.01637276 0.01583384 -0.03814909
v 0.01863040 -0.00960515 -0.01135757
v 0.01754156 0.00446673 -0.03116513
v 0.01685814 0.03000995 -0.01534087
v 0.01724926 -0.01820385 0.02935985
v 0.01759235 -0.00390642 0.03328278
v 0.02022287 0.01466486 0.01713138
v 0.01648709 -0.02423690 0.00860329
v 0.02016286 0.02003331 0.00977589
v 0.02022899 -0.01918173 0.00193607
v 0.01934864 -0.01530038 -0.00338742
v 0.01690765 0.00969020 -0.03882601
v 0.01582758 0.01235650 -0.04101940
v 0.01818397 0.02626025 -0.01752529
v 0.01894003 -0.00040270 -0.02421030
v 0.01926406 0.02483184 -0.02108338
v 0.01928777 0.02366614 -0.01869016
v 0.02530332 -0.03194981 0.02133670
v 0.02322502 -0.02386457 0.02512176
v 0.01867003 -0.00897454 0.02901532
v 0.02172684 0.00042901 0.02939661
v 0.02178332 -0.01053803 0.02957891
v 0.01910372 0.01066202 -0.03993101
v 0.02114376 0.01172713 -0.03842320
v 0.02109043 0.02137544 -0.02386264
v 0.02304220 -0.02774400 0.01381845
v 0.02189649 0.02322018 0.00292163
v 0.02119126 0.02803286 -0.00999042
v 0.02479262 -0.02262253 0.00671154
v 0.02183858 0.00272965 -0.02879339
v 0.02509052 -0.02870079 0.02383124
v 0.02386761 -0.00509964 0.02681750
v 0.02210281 0.00882861 -0.03742835
v 0.02297239 0.01549414 -0.03403121
v 0.02386139 -0.01791585 0.02463379
v 0.02257809 -0.00265091 0.03013055
v 0.02448857 0.00488524 0.02488643
v 0.02557448 0.00863600 -0.03662985
v 0.02481600 0.01476247 -0.02797658
v 0.02234100 0.02713973 -0.01299408
v 0.02284291 -0.02677416 0.02658316
v 0.02674581 -0.00435505 -0.01829952
v 0.02617705 -0.03090814 0.01878926
v 0.02723115 0.01024205 0.01846525
v 0.02507348 0.02239498 -0.01697281
v 0.02600421 0.02393623 -0.00241945
v 0.02810385 -0.01076177 -0.00922513
v 0.02613293 -0.00423280 0.02301945
v 0.02509351 0.00029999 -0.02590529
v 0.02538548 0.00450732 -0.03215061
v 0.02337533 0.02104099 -0.01506577
v 0.02380968 0.02238721 -0.01428174
v 0.03268027 -0.01443895 -0.00383619
v 0.02835213 0.01065361 -0.03304506
v 0.02342684 0.02045891 -0.01474925
v 0.02480494 0.02168032 -0.02018001
v 0.02631567 0.02557036 -0.00828254
v 0.02721330 0.00042413 -0.02813415
v 0.02410455 0.02005737 -0.01377942
v 0.02410033 0.01991922 -0.01369896
v 0.02379453 0.02063788 -0.01470176
v 0.02403290 0.02037764 -0.01365698
v 0.02405203 0.02076473 -0.01368563
v 0.02730143 -0.02486941 0.00820191
v 0.02803153 -0.00703563 0.02506320
v 0.02664370 0.00094853 0.02675539
v 0.02947194 0.01297214 -0.02965186
v 0.02901240 0.01300099 -0.02256127
v 0.02820511 0.01568926 0.01117431
v 0.02416631 0.02016715 -0.01367831
v 0.02885917 0.01888254 0.00560551
v 0.02801821 0.01938744 -0.01090339
v 0.02850838 0.02104583 -0.00878176
v 0.02872887 -0.02706659 0.01273401
v 0.02907464 0.00025772 0.02295772
v 0.02781054 0.00218250 -0.03064537
v 0.02926754 0.01524539 -0.01943731
v 0.03145951 -0.02150019 0.00523297
v 0.02999290 -0.00908946 0.02277056
v 0.03032504 -0.00427130 0.02152102
v 0.02972195 0.00438966 -0.03251503
v 0.03026860 0.01969962 -0.01390790
v 0.02987270 -0.02706591 0.01102428
v 0.02993017 -0.02344515 0.02227368
v 0.02991361 -0.01664608 0.01937975
v 0.03026384 -0.00020592 -0.02530420
v 0.02761270 0.01619959 -0.01046194
v 0.02760936 0.01618934 -0.01036650
v 0.02755317 0.01667717 -0.01042854
v 0.02754536 0.01663979 -0.01028221
v 0.02754790 0.01709868 -0.01030664
v 0.02771340 0.01621465 -0.01040952
v 0.02765522 0.01690702 -0.01025349
v 0.03159452 -0.00122638 0.01722842
v 0.03136606 0.00572695 0.02008855
v 0.03161171 0.01757347 -0.00949003
v 0.03075947 0.02151221 -0.00308188
v 0.03220328 -0.02836308 0.01599920
v 0.03460772 -0.02330900 0.01655423
v 0.03366083 -0.00217390 -0.02093897
v 0.03390343 -0.02463819 0.00784146
v 0.03148662 0.00126100 -0.02891495
v 0.03158602 0.01525958 -0.00614890
v 0.03445622 -0.00789756 0.01516575
v 0.03199023 0.00133064 0.01346010
v 0.03249349 0.00377531 0.00811521
v 0.03210942 0.00295494 0.01160111
v 0.03116785 0.00635561 -0.03301758
v 0.03301875 -0.01274653 0.01585732
v 0.03353484 -0.00345322 0.01924239
v 0.03448630 0.00146462 -0.02638948
v 0.03223102 0.00211324 0.01674611
v 0.03226057 0.00122370 0.01181752
v 0.03217283 0.00242931 0.01280257
v 0.03197614 0.00594952 0.00696876
v 0.03290862 0.00378697 0.01064949
v 0.03286913 0.00667014 0.00409183
v 0.03307344 0.01075892 -0.02443991
v 0.03391591 0.00936311 -0.01617885
v 0.03240836 0.01583570 -0.00319144
v 0.03418705 -0.02633624 0.01034763
v 0.03271103 0.00116982 0.01379438
v 0.03264739 0.00252994 0.01180768
v 0.03232134 0.00184474 0.01333861
v 0.03414771 0.01232449 -0.01245202
v 0.03306622 0.01785398 0.00306599
v 0.03793540 -0.01905393 0.00294797
v 0.03701911 -0.01783157 0.01504543
v 0.03616432 -0.01573737 0.01419178
v 0.03382599 0.00204821 0.01304351
v 0.03277623 0.00229720 0.01387717
v 0.03389056 0.00373351 0.01099543
v 0.03302850 0.00285749 0.01232568
v 0.03603665 0.00317546 -0.02785109
v 0.03357993 0.00448962 0.01162755
v 0.03516511 0.00655353 -0.02722191
v 0.03361291 0.00656954 0.00753034
v 0.03348122 0.00679315 0.01463198
v 0.03348460 0.00742410 0.00626685
v 0.03332456 0.00838942 0.00491696
v 0.03345638 0.01072416 0.01335047
v 0.03405507 0.00969851 0.00336066
v 0.03685139 0.00799264 -0.02236802
v 0.03423352 0.01235157 -0.00166046
v 0.03391874 0.01411561 0.00829645
v 0.03382494 0.01434592 0.00177505
v 0.03630786 0.00151225 0.01299847
v 0.03427734 0.00801631 0.00609173
v 0.03576149 0.00792812 -0.01887266
v 0.03549004 0.01409389 -0.00591911
v 0.03688944 -0.02454440 0.01196858
v 0.04029670 -0.00616205 -0.01492116
v 0.03541272 0.00771717 0.00554102
v 0.03443627 0.00736973 0.00756279
v 0.03449982 0.01042190 0.00856086
v 0.03707424 -0.02331460 0.00868996
v 0.03749952 -0.01161538 0.00999573
v 0.03578754 0.00548019 0.00829433
v 0.03715958 0.01017450 0.00077236
v 0.03744159 -0.00300348 0.00794903
v 0.03762145 0.00407795 -0.00856064
v 0.03659066 0.00927676 -0.00721282
v 0.03777737 0.00501107 -0.01363123
v 0.04140324 -0.01220837 -0.00649570
v 0.03869861 0.00403978 -0.02200016
v 0.03781235 0.00616948 0.00622980
v 0.03815669 0.00396578 0.00010913
v 0.04009756 -0.01779506 0.00916298
v 0.03998093 -0.00145942 -0.02155795
v 0.04028544 -0.02107577 0.00655758
v 0.04105133 -0.01496168 -0.00259963
v 0.04195870 -0.01044275 0.00521444
v 0.03973522 -0.00334758 -0.00053508
v 0.04056428 0.00330012 -0.01716154
v 0.04107678 -0.01944378 0.00354904
v 0.04101847 0.00076576 -0.00937898
v 0.03979146 0.00494550 -0.01654497
v 0.04171050 0.00215453 -0.01313580
v 0.04233796 -0.01703158 0.00219747
v 0.04162168 -0.00153659 -0.01800532
v 0.04311318 -0.00420108 -0.00340499
v 0.04261659 -0.00143934 -0.01313518
v 0.04269803 -0.01230355 0.00298419
v 0.04277002 -0.00539251 -0.01550691
v 0.04287242 -0.00092177 -0.00882712
v 0.04360065 -0.01257080 -0.00253789
v 0.04341182 -0.01276458 -0.00556076
v 0.04374464 -0.00858792 -0.01051928
v 0.04381125 -0.00735457 -0.00635236
f 421 412 420
f 10 14 6
f 311 297 341
f 282 223 272
f 425 449 408
f 100 72 54
f 127 88 104
f 481 482 468
f 141 124 108
f 182 184 144
f 472 478 466
f 56 66 110
f 339 306 287
f 198 138 209
f 213 193 222
f 303 302 284
f 374 314 312
f 294 267 282
f 396 394 397
f 54 72 21
f 283 232 238
f 122 82 105
f 81 39 58
f 68 84 55
f 421 442 411
f 288 240 239
f 238 237 276
f 73 49 61
f 185 157 202
f 318 328 305
f 5 17 9
f 31 18 22
f 108 124 67
f 246 183 191
f 327 325 278
f 482 483 479
f 253 205 206
f 316 266 293
f 143 125 100
f 378 377 357
f 27 13 33
f 402 425 378
f 452 435 427
f 471 464 458
f 420 422 445
f 462 414 434
f 135 119 91
f 317 300 305
f 4 5 2
f 413 386 343
f 263 241 213
f 224 178 208
f 39 23 12
f 231 168 223
f 195 231 275
f 94 43 76
f 197 132 177
f 219 221 169
f 151 116 152
f 388 379 369
f 327 277 310
f 394 392 397
f 209 210 227
f 35 28 44
f 157 149 180
f 223 196 226
f 316 307 352
f 105 83 106
f 136 162 207
f 366 360 357
f 487 485 479
f 252 222 256
f 179 199 153
f 338 328 343
f 293 275 307
f 98 96 71
f 53 46 65
f 429 410 419
f 451 449 425
f 356 350 322
f 81 58 120
f 175 166 164
f 150 128 151
f 145 91 142
f 164 142 176
f 25 36 20
f 148 113 157
f 120 85 156
f 32 18 31
f 290 263 286
f 426 388 406
f 222 176 230
f 404 456 473
f 414 462 409
f 431 450 451
f 313 265 315
f 423 448 372
f 258 194 236
f 379 388 403
f 222 164 176
f 480 476 484
f 340 296 324
f 255 235 200
f 269 248 257
f 230 205 253
f 329 328 318
f 446 460 450
f 485 474 470
f 80 111 84
f 453 444 422
f 463 440 437
f 167 94 170
f 304 260 259
f 273 291 227
f 456 475 473
f 397 393 395
f 76 27 52
f 121 150 171
f 429 428 427
f 342 400 349
f 103 63 92
f 31 62 75
f 119 85 75
f 17 24 16
f 210 173 199
f 243 210 199
f 457 405 474
f 374 376 314
f 400 443 446
f 190 139 186
f 489 474 485
f 107 45 90
f 255 200 245
f 464 467 455
f 256 230 281
f 38 60 14
f 273 227 243
f 347 354 391
f 6 21 17
f 306 268 287
f 312 314 279
f 436 438 440
f 48 46 53
f 472 465 478
f 208 178 197
f 65 44 89
f 8 3 13
f 159 126 121
f 120 156 162
f 220 204 169
f 173 123 153
f 169 204 155
f 43 8 27
f 258 236 265
f 196 150 152
f 161 139 110
f 389 404 433
f 186 178 224
f 475 480 484
f 203 177 192
f 159 146 126
f 136 120 162
f 390 340 324
f 376 332 314
f 398 395 396
f 268 305 273
f 477 462 434
f 132 109 99
f 439 407 386
f 333 309 298
f 370 384 415
f 47 55 35
f 42 86 51
f 110 78 56
f 459 458 442
f 40 39 64
f 228 199 179
f 283 238 276
f 305 300 291
f 57 86 92
f 265 215 266
f 480 432 476
f 46 44 65
f 352 347 405
f 176 205 230
f 66 53 99
f 458 447 444
f 22 11 15
f 179 153 165
f 51 30 42
f 4 2 11
f 277 242 212
f 234 268 243
f 348 281 331
f 211 194 248
f 130 146 159
f 470 441 448
f 254 244 217
f 118 95 117
f 216 189 242
f 464 447 458
f 302 301 284
f 372 359 339
f 199 173 153
f 107 106 45
f 138 173 209
f 324 296 292
f 128 52 82
f 196 152 226
f 229 188 163
f 158 104 136
f 310 270 296
f 276 237 271
f 262 225 220
f 375 367 368
f 371 326 341
f 344 372 339
f 396 395 394
f 194 157 180
f 184 219 174
f 5 3 1
f 214 162 183
f 488 484 491
f 104 81 136
f 415 384 409
f 90 34 72
f 287 268 234
f 419 412 428
f 379 331 369
f 270 249 296
f 233 239 218
f 42 19 8
f 122 105 131
f 257 194 258
f 481 483 482
f 79 36 55
f 21 34 17
f 260 312 279
f 217 187 235
f 417 410 436
f 239 240 184
f 448 479 470
f 195 168 231
f 482 454 468
f 102 113 148
f 336 295 323
f 477 478 462
f 161 110 109
f 8 13 27
f 357 322 319
f 49 47 48
f 487 493 489
f 323 281 348
f 277 212 270
f 384 390 414
f 85 119 135
f 330 344 302
f 450 376 374
f 39 12 32
f 297 271 278
f 66 99 109
f 79 108 69
f 168 159 121
f 229 163 201
f 105 82 83
f 110 66 109
f 112 80 73
f 435 429 419
f 452 427 399
f 108 67 69
f 382 373 330
f 148 157 185
f 327 353 325
f 331 313 334
f 19 15 7
f 17 34 24
f 6 17 5
f 254 217 235
f 111 79 84
f 409 384 414
f 232 197 238
f 456 461 475
f 345 309 333
f 72 129 90
f 334 313 315
f 168 121 171
f 15 19 30
f 385 370 415
f 376 351 332
f 353 399 380
f 93 43 94
f 336 323 403
f 197 203 238
f 244 179 181
f 46 35 44
f 412 411 420
f 315 265 266
f 346 324 292
f 298 309 251
f 190 218 182
f 230 253 269
f 464 455 449
f 304 259 283
f 38 14 20
f 296 249 264
f 357 360 356
f 135 91 145
f 308 272 317
f 226 198 250
f 363 335 381
f 327 340 384
f 471 458 463
f 441 359 372
f 318 305 268
f 98 71 65
f 338 317 328
f 436 429 427
f 102 87 113
f 451 447 449
f 98 89 96
f 349 312 342
f 63 30 57
f 236 180 215
f 23 20 10
f 73 80 68
f 330 302 303
f 477 488 486
f 370 327 384
f 263 213 252
f 181 179 143
f 376 431 402
f 395 393 392
f 331 334 369
f 37 29 15
f 128 122 131
f 171 150 196
f 314 288 279
f 376 402 351
f 103 86 93
f 67 100 60
f 88 71 64
f 469 358 457
f 134 80 112
f 225 204 220
f 192 160 172
f 57 30 51
f 13 16 33
f 22 15 29
f 355 381 335
f 132 115 147
f 458 453 442
f 73 68 49
f 456 403 426
f 398 396 397
f 323 256 281
f 183 135 191
f 390 324 389
f 358 352 457
f 358 315 316
f 87 41 63
f 268 273 243
f 245 200 188
f 186 139 161
f 350 361 321
f 357 356 322
f 439 386 413
f 351 298 332
f 313 331 281
f 153 123 129
f 438 437 412
f 304 283 326
f 141 140 124
f 211 206 202
f 488 473 484
f 234 199 228
f 286 252 256
f 56 48 53
f 280 274 244
f 39 32 58
f 33 24 59
f 347 307 294
f 48 47 46
f 358 316 352
f 143 165 125
f 78 101 61
f 322 321 289
f 172 160 137
f 461 406 383
f 59 45 83
f 177 147 160
f 455 430 387
f 201 154 204
f 203 192 237
f 254 280 244
f 252 213 222
f 132 147 177
f 367 365 364
f 169 134 112
f 195 167 170
f 305 291 273
f 76 121 126
f 487 494 493
f 149 113 93
f 237 216 271
f 399 353 385
f 172 137 127
f 400 342 371
f 430 466 424
f 231 223 267
f 289 255 245
f 251 220 221
f 395 392 394
f 79 69 36
f 91 74 70
f 101 112 73
f 375 365 367
f 225 201 204
f 415 399 385
f 465 472 471
f 297 325 337
f 402 378 362
f 22 29 50
f 265 236 215
f 241 191 213
f 416 407 439
f 54 21 26
f 382 330 361
f 350 321 322
f 464 472 467
f 173 138 123
f 383 315 358
f 164 145 142
f 212 158 207
f 41 37 63
f 454 373 424
f 212 207 270
f 28 40 64
f 125 165 129
f 248 206 211
f 12 4 18
f 417 399 410
f 186 161 178
f 163 188 141
f 27 33 52
f 277 270 310
f 292 263 290
f 70 41 87
f 167 149 94
f 178 132 197
f 194 180 236
f 470 474 439
f 192 172 216
f 212 189 158
f 211 202 194
f 357 377 366
f 134 111 80
f 174 169 112
f 329 318 306
f 264 246 263
f 309 262 251
f 99 77 115
f 329 343 328
f 24 45 59
f 163 141 108
f 25 20 23
f 151 128 131
f 154 79 111
f 486 490 481
f 113 103 93
f 428 411 418
f 55 36 35
f 401 387 377
f 49 55 47
f 97 71 95
f 64 39 81
f 309 299 262
f 101 73 61
f 35 25 28
f 184 174 144
f 260 233 224
f 195 170 168
f 294 282 320
f 363 354 335
f 26 21 6
f 491 484 492
f 427 410 399
f 180 167 215
f 424 373 382
f 389 336 404
f 18 4 11
f 11 7 15
f 415 409 452
f 295 286 256
f 86 42 93
f 97 118 88
f 274 287 234
f 303 284 255
f 250 198 227
f 453 445 447
f 319 289 299
f 483 490 487
f 431 451 402
f 446 443 460
f 324 346 389
f 247 245 229
f 286 263 252
f 75 74 91
f 455 408 449
f 161 132 178
f 275 231 267
f 214 183 246
f 152 138 198
f 271 242 278
f 276 271 297
f 378 357 345
f 123 138 107
f 151 131 116
f 162 156 183
f 246 241 263
f 281 257 258
f 355 338 343
f 56 49 48
f 421 420 442
f 116 106 107
f 251 262 220
f 405 416 474
f 421 411 428
f 58 31 85
f 293 195 275
f 417 436 440
f 85 31 75
f 389 346 336
f 373 344 330
f 135 145 166
f 478 477 486
f 453 422 411
f 471 472 464
f 121 76 52
f 319 322 289
f 182 133 139
f 170 159 168
f 28 23 40
f 475 461 480
f 317 305 328
f 87 63 103
f 346 292 290
f 474 416 439
f 463 458 459
f 91 70 102
f 440 438 421
f 99 115 132
f 264 214 246
f 274 234 228
f 182 144 133
f 461 432 480
f 362 345 333
f 359 413 343
f 375 368 364
f 15 30 37
f 77 53 65
f 261 251 221
f 491 493 494
f 99 53 77
f 350 356 366
f 493 492 469
f 94 130 170
f 88 64 104
f 187 181 140
f 297 278 325
f 45 34 90
f 42 30 19
f 335 308 355
f 482 448 454
f 119 75 91
f 383 334 315
f 5 1 2
f 106 83 45
f 181 143 140
f 491 492 493
f 218 184 182
f 405 391 416
f 197 177 203
f 320 335 354
f 428 418 427
f 32 31 58
f 452 465 471
f 446 450 374
f 208 197 232
f 482 479 448
f 460 459 453
f 298 261 285
f 118 97 95
f 131 105 106
f 118 117 88
f 493 457 489
f 417 440 443
f 452 463 437
f 438 412 421
f 189 127 158
f 62 74 75
f 419 410 412
f 346 290 336
f 244 228 179
f 140 143 100
f 312 304 342
f 351 333 298
f 155 154 111
f 133 144 101
f 52 59 82
f 102 70 87
f 314 285 288
f 33 16 24
f 294 275 267
f 430 424 382
f 453 459 444
f 460 453 447
f 272 226 250
f 4 6 5
f 9 3 5
f 74 50 70
f 342 304 326
f 67 60 38
f 484 476 492
f 456 426 461
f 240 219 184
f 461 426 406
f 58 85 120
f 34 45 24
f 170 130 159
f 460 447 451
f 344 301 302
f 472 466 467
f 237 192 216
f 221 220 169
f 485 487 489
f 188 200 141
f 201 163 154
f 49 68 55
f 386 355 343
f 299 247 262
f 139 133 78
f 467 466 430
f 12 18 32
f 169 155 134
f 127 104 158
f 478 486 481
f 47 35 46
f 124 140 100
f 371 380 400
f 41 29 37
f 323 348 403
f 150 121 128
f 71 96 89
f 404 473 433
f 246 191 241
f 156 85 135
f 389 433 390
f 391 354 363
f 410 429 436
f 147 115 160
f 387 430 382
f 398 397 395
f 66 56 53
f 453 458 445
f 320 282 308
f 450 460 451
f 266 195 293
f 259 232 283
f 82 59 83
f 190 182 139
f 416 391 407
f 217 181 187
f 137 114 127
f 483 487 479
f 200 187 141
f 288 285 240
f 84 79 55
f 165 153 129
f 284 254 235
f 437 421 428
f 272 250 291
f 23 10 12
f 114 88 127
f 371 341 380
f 223 171 196
f 72 34 21
f 36 38 20
f 223 226 272
f 309 319 299
f 198 209 227
f 216 242 271
f 441 372 448
f 260 304 312
f 367 364 368
f 277 278 242
f 80 84 68
f 397 392 393
f 403 388 426
f 477 433 473
f 234 243 199
f 298 251 261
f 401 377 408
f 183 156 135
f 139 78 110
f 166 145 164
f 375 364 365
f 207 162 214
f 74 62 50
f 78 61 56
f 115 77 114
f 136 81 120
f 321 330 303
f 18 11 22
f 290 286 295
f 176 185 205
f 450 431 376
f 168 171 223
f 311 276 297
f 43 27 76
f 407 363 381
f 436 435 419
f 235 187 200
f 56 61 49
f 418 411 410
f 176 148 185
f 279 239 233
f 243 227 210
f 435 436 427
f 116 131 106
f 2 1 7
f 161 109 132
f 179 165 143
f 157 113 149
f 290 295 336
f 278 277 327
f 291 250 227
f 436 419 438
f 457 474 489
f 359 343 329
f 206 185 202
f 239 184 218
f 269 257 281
f 432 358 476
f 383 406 369
f 60 54 14
f 442 420 444
f 209 173 210
f 8 7 1
f 115 114 137
f 391 363 407
f 476 358 469
f 447 445 422
f 390 434 414
f 233 218 190
f 257 248 194
f 362 378 345
f 337 325 353
f 349 400 446
f 191 193 213
f 404 403 456
f 266 215 195
f 455 401 408
f 217 244 181
f 95 71 88
f 259 260 224
f 386 381 355
f 352 307 347
f 124 100 67
f 443 440 460
f 63 37 30
f 308 317 338
f 378 408 377
f 339 287 301
f 10 6 4
f 248 269 206
f 204 154 155
f 44 28 71
f 477 473 488
f 20 14 10
f 313 258 265
f 191 175 193
f 481 468 466
f 63 57 92
f 259 208 232
f 242 189 212
f 71 28 64
f 350 366 377
f 148 142 102
f 52 33 59
f 123 107 90
f 150 151 152
f 359 329 339
f 287 274 280
f 154 163 79
f 400 417 443
f 347 320 354
f 341 297 337
f 427 418 410
f 471 463 452
f 344 339 301
f 370 385 353
f 340 390 384
f 256 222 230
f 327 310 340
f 439 413 359
f 114 77 97
f 316 293 307
f 388 369 406
f 152 116 138
f 435 437 438
f 366 356 360
f 402 362 351
f 225 247 201
f 458 444 445
f 292 264 263
f 383 369 334
f 381 386 407
f 247 229 201
f 454 448 423
f 380 337 353
f 478 481 466
f 10 4 12
f 457 352 405
f 310 296 340
f 180 149 167
f 299 289 247
f 383 358 432
f 459 442 444
f 424 468 454
f 351 362 333
f 387 382 361
f 281 230 269
f 113 87 103
f 347 391 405
f 403 348 379
f 160 115 137
f 253 206 269
f 317 272 300
f 193 175 164
f 174 112 144
f 423 344 373
f 125 72 100
f 326 371 342
f 494 488 491
f 163 108 79
f 249 207 214
f 31 22 62
f 301 280 254
f 155 111 134
f 452 437 435
f 281 258 313
f 349 446 374
f 479 485 470
f 175 135 166
f 103 92 86
f 17 16 9
f 306 318 268
f 255 284 235
f 401 455 387
f 425 408 378
f 415 452 399
f 432 461 383
f 454 423 373
f 438 419 428
f 321 303 289
f 486 488 494
f 473 475 484
f 142 148 176
f 123 90 129
f 284 301 254
f 420 411 422
f 238 203 237
f 332 298 285
f 311 283 276
f 332 285 314
f 177 160 192
f 146 130 126
f 490 494 487
f 341 326 311
f 339 329 306
f 279 288 239
f 117 95 88
f 22 50 62
f 348 331 379
f 262 247 225
f 327 370 353
f 215 167 195
f 207 249 270
f 57 51 86
f 89 44 71
f 470 439 441
f 116 107 138
f 347 294 320
f 97 65 71
f 249 214 264
f 77 65 97
f 193 164 222
f 26 6 14
f 476 469 492
f 142 91 102
f 490 483 481
f 409 462 465
f 460 440 459
f 140 141 187
f 16 13 9
f 94 76 130
f 469 457 493
f 128 82 122
f 442 453 411
f 423 372 344
f 260 279 233
f 437 428 412
f 412 410 411
f 35 36 25
f 69 67 38
f 463 459 440
f 60 100 54
f 104 64 81
f 377 387 350
f 13 3 9
f 275 294 307
f 434 433 477
f 233 190 186
f 202 157 194
f 341 337 380
f 93 42 43
f 315 266 316
f 144 112 101
f 301 287 280
f 2 7 11
f 121 52 128
f 440 421 437
f 69 38 36
f 205 185 206
f 444 447 422
f 216 172 189
f 261 219 240
f 345 357 319
f 267 223 282
f 303 255 289
f 42 8 43
f 296 264 292
f 434 390 433
f 274 228 244
f 54 26 14
f 452 409 465
f 435 428 429
f 152 198 226
f 70 50 41
f 158 136 207
f 349 374 312
f 125 129 72
f 247 289 245
f 295 256 323
f 133 101 78
f 19 7 8
f 345 319 309
f 300 272 291
f 444 420 445
f 355 308 338
f 29 41 50
f 229 245 188
f 320 308 335
f 130 76 126
f 465 462 478
f 361 330 321
f 261 221 219
f 240 285 261
f 336 403 404
f 224 208 259
f 350 387 361
f 149 93 94
f 28 25 23
f 98 65 89
f 326 283 311
f 441 439 359
f 380 399 417
f 40 23 39
f 464 449 447
f 438 428 435
f 233 186 224
f 8 1 3
f 172 127 189
f 308 282 272
f 451 425 402
f 455 467 430
f 486 494 490
f 219 169 174
f 191 135 175
f 114 97 88
f 466 468 424
f 400 380 417

