# https://github.com/mikedh/trimesh
v -0.01154765 0.00024306 -0.03017702
v -0.01055183 0.00021888 -0.03017702
v -0.01154765 0.00024306 -0.03037622
v -0.01254260 0.00023026 -0.03017702
v -0.01055183 0.00021888 -0.03023285
v -0.01009951 0.00020323 -0.03017702
v -0.01254260 0.00017478 -0.03101550
v -0.01254260 0.00023026 -0.03051771
v -0.01266729 0.00022457 -0.03017702
v -0.00999631 0.00019469 -0.03017702
v -0.01254260 -0.00005783 -0.03164246
v -0.01266729 -0.00005783 -0.03164246
v -0.01266729 0.00016766 -0.03097527
v -0.01266729 0.00018189 -0.03088300
v -0.01154765 0.00012285 -0.03087401
v -0.01154765 -0.00015173 -0.03164246
v -0.01266729 0.00022457 -0.03049878
v -0.01266729 -0.00513110 -0.03017702
v -0.00962740 0.00000263 -0.03055746
v -0.01055183 -0.00027906 -0.03164246
v -0.00756697 -0.00019441 -0.03017702
v -0.00756697 -0.00031889 -0.03064689
v -0.00856107 -0.00017876 -0.03064689
v -0.01254260 -0.00048819 -0.03263709
v -0.01266729 -0.00047895 -0.03263709
v -0.01113144 -0.00080687 -0.03312021
v -0.00955688 -0.00118886 -0.03363267
v -0.00856107 -0.00184970 -0.03498834
v -0.00871844 -0.00184116 -0.03501105
v -0.00932212 -0.00177429 -0.03501105
v -0.01266729 -0.00700477 -0.03501105
v -0.00447634 -0.00591998 -0.03017702
v -0.00955688 -0.00089579 -0.03288646
v -0.00714818 -0.00033952 -0.03017702
v -0.00677497 -0.00059489 -0.03064689
v -0.00694437 -0.00072720 -0.03133726
v -0.00702607 -0.00177216 -0.03419387
v -0.00756697 -0.00172450 -0.03431737
v -0.01266729 -0.00074854 -0.03325460
v -0.01008833 -0.00171312 -0.03501105
v -0.01088549 -0.00165194 -0.03501105
v -0.00852581 -0.00186321 -0.03501105
v -0.00856107 -0.00185894 -0.03501105
v -0.00561232 -0.00702398 -0.03501105
v -0.00519525 -0.00684757 -0.03287889
v -0.01266729 -0.00151679 -0.03501105
v -0.00430435 -0.00591998 -0.03017702
v -0.00756697 -0.00191514 -0.03481515
v -0.00756697 -0.00199054 -0.03501105
v -0.00856107 -0.00165479 -0.03449056
v -0.00664941 -0.00053230 -0.03017702
v -0.00631920 -0.00080616 -0.03017702
v -0.00688160 -0.00166475 -0.03363267
v -0.00737177 -0.00206737 -0.03501105
v -0.00666317 -0.00242517 -0.03501105
v -0.01266729 -0.00134891 -0.03462825
v -0.01261570 -0.00152035 -0.03501105
v -0.00515655 -0.00627494 -0.03501105
v -0.00498972 -0.00687886 -0.03445506
v -0.00493727 -0.00690874 -0.03363267
v -0.00497854 -0.00684757 -0.03287889
v -0.00396811 -0.00589651 -0.03017702
v -0.00617731 -0.00093207 -0.03017702
v -0.00626588 -0.00283134 -0.03501105
v -0.00517461 -0.00618744 -0.03501105
v -0.00406013 -0.00566959 -0.03121565
v -0.00513763 -0.00627494 -0.03495191
v -0.00498628 -0.00627494 -0.03445412
v -0.00406013 -0.00581897 -0.03121565
v -0.00398961 -0.00589081 -0.03064689
v -0.00388298 -0.00529756 -0.03017702
v -0.00607497 -0.00107363 -0.03017702
v -0.00614205 -0.00290248 -0.03485869
v -0.00616699 -0.00294231 -0.03501105
v -0.00536294 -0.00528049 -0.03501105
v -0.00504390 -0.00561481 -0.03423740
v -0.00413752 -0.00500591 -0.03099704
v -0.00397327 -0.00531463 -0.03065777
v -0.00544893 -0.00487716 -0.03501105
v -0.00511442 -0.00495114 -0.03401879
v -0.00402315 -0.00466660 -0.03033317
v -0.00396897 -0.00480745 -0.03017702
v -0.00586429 -0.00140155 -0.03017702
v -0.00605777 -0.00276519 -0.03419529
v -0.00503358 -0.00371127 -0.03232196
v -0.00586687 -0.00325673 -0.03456721
v -0.00610851 -0.00304119 -0.03501105
v -0.00558222 -0.00428390 -0.03501105
v -0.00400079 -0.00462890 -0.03017702
v -0.00546355 -0.00428390 -0.03462825
v -0.00566048 -0.00402070 -0.03501105
v -0.00511528 -0.00389195 -0.03298536
v -0.00476528 -0.00327380 -0.03017702
v -0.00458641 -0.00357896 -0.03017702
v -0.00591244 -0.00340042 -0.03501105
f 1 2 5
f 1 5 3
f 1 3 8
f 1 8 4
f 1 4 9
f 1 9 18
f 1 18 32
f 1 32 47
f 1 47 62
f 1 62 71
f 1 71 82
f 1 82 89
f 1 89 94
f 1 94 93
f 1 93 83
f 1 83 72
f 1 72 63
f 1 63 52
f 1 52 51
f 1 51 34
f 1 34 21
f 1 21 10
f 1 10 6
f 1 6 2
f 2 6 5
f 3 5 7
f 3 7 8
f 4 8 17
f 4 17 9
f 5 6 7
f 6 10 7
f 7 11 12
f 7 12 13
f 7 13 14
f 7 14 8
f 7 10 15
f 7 15 16
f 7 16 11
f 8 14 17
f 9 17 14
f 9 14 13
f 9 13 12
f 9 12 25
f 9 25 39
f 9 39 56
f 9 56 46
f 9 46 31
f 9 31 18
f 10 19 20
f 10 20 16
f 10 16 15
f 10 21 22
f 10 22 23
f 10 23 19
f 11 24 25
f 11 25 12
f 11 16 26
f 11 26 24
f 16 20 27
f 16 27 28
f 16 28 29
f 16 29 30
f 16 30 26
f 18 31 32
f 19 23 20
f 20 33 27
f 20 23 22
f 20 22 33
f 21 34 22
f 22 34 35
f 22 35 36
f 22 36 37
f 22 37 38
f 22 38 33
f 24 39 25
f 24 26 39
f 26 30 40
f 26 40 41
f 26 41 39
f 27 33 28
f 28 42 43
f 28 43 29
f 28 33 42
f 29 43 42
f 29 42 49
f 29 49 54
f 29 54 55
f 29 55 64
f 29 64 74
f 29 74 87
f 29 87 95
f 29 95 91
f 29 91 88
f 29 88 79
f 29 79 75
f 29 75 65
f 29 65 58
f 29 58 44
f 29 44 31
f 29 31 46
f 29 46 57
f 29 57 41
f 29 41 40
f 29 40 30
f 31 44 45
f 31 45 32
f 32 45 61
f 32 61 47
f 33 38 48
f 33 48 49
f 33 49 50
f 33 50 42
f 34 51 35
f 35 51 52
f 35 52 53
f 35 53 36
f 36 53 37
f 37 54 49
f 37 49 48
f 37 48 38
f 37 53 55
f 37 55 54
f 39 41 56
f 41 57 56
f 42 50 49
f 44 58 59
f 44 59 60
f 44 60 61
f 44 61 45
f 46 56 57
f 47 61 62
f 52 63 53
f 53 63 55
f 55 63 64
f 58 65 66
f 58 66 67
f 58 67 59
f 59 68 69
f 59 69 70
f 59 70 60
f 59 67 68
f 60 62 61
f 60 70 62
f 62 70 71
f 63 72 73
f 63 73 64
f 64 73 74
f 65 75 76
f 65 76 66
f 66 77 78
f 66 78 71
f 66 71 69
f 66 69 68
f 66 68 67
f 66 76 75
f 66 75 79
f 66 79 80
f 66 80 77
f 69 71 70
f 71 78 81
f 71 81 82
f 72 83 73
f 73 83 84
f 73 84 85
f 73 85 86
f 73 86 87
f 73 87 74
f 77 81 78
f 77 80 88
f 77 88 81
f 79 88 80
f 81 89 82
f 81 88 90
f 81 90 91
f 81 91 92
f 81 92 89
f 83 93 85
f 83 85 84
f 85 93 94
f 85 94 89
f 85 89 92
f 85 92 86
f 86 92 95
f 86 95 87
f 88 91 90
f 91 95 92

