# https://github.com/mikedh/trimesh
v -0.00669893 0.01436830 -0.00297464
v -0.00667040 0.01435720 -0.00297464
v -0.00296194 0.01417956 -0.01009363
v -0.00296194 0.01422397 -0.01035564
v -0.00296194 0.01422397 -0.01044511
v -0.00669893 0.01426468 -0.00665769
v -0.00669893 -0.02343856 -0.00297464
v -0.00296194 0.01411665 -0.00981245
v -0.00296194 0.01251793 -0.00297464
v -0.00636749 0.01421287 -0.00744797
v -0.00296194 0.01408334 -0.01095635
v -0.00669893 0.01424248 -0.00677058
v -0.00669893 -0.02329054 -0.00377132
v -0.00657052 -0.02323502 -0.00377132
v -0.00657052 -0.02337935 -0.00297464
v -0.00296194 -0.02152158 -0.00297464
v -0.00296194 0.01400193 -0.01119279
v -0.00669893 0.01399823 -0.00773555
v -0.00669893 0.01400933 -0.00769720
v -0.00669893 -0.02326833 -0.00389061
v -0.00669893 -0.02303888 -0.00499829
v -0.00649223 -0.02297227 -0.00481510
v -0.00577045 -0.02298707 -0.00297464
v -0.00669893 -0.02287235 -0.00576302
v -0.00669893 -0.02219881 -0.00874950
v -0.00619189 -0.02164000 -0.00997008
v -0.00312035 -0.01969340 -0.01115871
v -0.00296194 -0.01963419 -0.01104155
v -0.00296194 0.01384280 -0.01159540
v -0.00669893 0.01199242 -0.01272012
v -0.00669893 -0.02197307 -0.00968677
v -0.00654235 -0.02189535 -0.00968038
v -0.00669893 -0.02185464 -0.01005742
v -0.00513572 -0.02068151 -0.01117149
v -0.00378360 -0.01987474 -0.01152297
v -0.00296194 -0.01935664 -0.01176368
v -0.00296194 0.01349123 -0.01229835
v -0.00669893 0.01196282 -0.01278402
v -0.00669893 -0.02164740 -0.01059422
v -0.00296194 -0.01894215 -0.01260509
v -0.00579935 -0.02081843 -0.01142072
v -0.00296194 0.01158904 -0.01537856
v -0.00669893 0.01150762 -0.01363609
v -0.00669893 -0.02099237 -0.01174025
v -0.00353410 -0.01906058 -0.01279681
v -0.00316864 -0.01868310 -0.01317384
v -0.00296194 -0.01863869 -0.01310355
v -0.00551070 -0.02050387 -0.01174664
v -0.00669893 -0.02089615 -0.01190001
v -0.00629212 -0.02061859 -0.01208533
v -0.00296194 0.01144101 -0.01551915
v -0.00669893 0.00412463 -0.02216099
v -0.00669893 0.00441698 -0.02183294
v -0.00620981 0.01119306 -0.01427088
v -0.00669893 0.01143731 -0.01374472
v -0.00452259 -0.01950097 -0.01273716
v -0.00561423 -0.01938254 -0.01366804
v -0.00462612 -0.01894215 -0.01372768
v -0.00498829 -0.01875341 -0.01427514
v -0.00432504 -0.01860909 -0.01405786
v -0.00296194 -0.01852767 -0.01327396
v -0.00669893 -0.02035214 -0.01279681
v -0.00660272 -0.02038545 -0.01267751
v -0.00657052 -0.01987474 -0.01349763
v -0.00296194 0.01057133 -0.01622636
v -0.00457600 -0.00008683 -0.02473635
v -0.00669893 0.00379896 -0.02239530
v -0.00669893 -0.01956388 -0.01409407
v -0.00652260 -0.01906798 -0.01478424
v -0.00615896 -0.01867200 -0.01515702
v -0.00669893 -0.01892365 -0.01512081
v -0.00296194 -0.01820200 -0.01374472
v -0.00669893 -0.01990065 -0.01354023
v -0.00296194 -0.00147831 -0.02447860
v -0.00320741 -0.00122666 -0.02473635
v -0.00321912 -0.00120075 -0.02473635
v -0.00375653 -0.00047541 -0.02473635
v -0.00650467 0.00002419 -0.02473635
v -0.00669893 0.00282566 -0.02304074
v -0.00669893 0.00366573 -0.02248690
v -0.00669893 -0.01914569 -0.01477359
v -0.00669893 -0.01863869 -0.01549998
v -0.00669893 -0.01834633 -0.01584080
v -0.00669893 -0.01825381 -0.01594731
v -0.00645785 -0.01827972 -0.01577903
v -0.00557509 -0.01802437 -0.01555323
v -0.00296194 -0.01778382 -0.01429431
v -0.00296194 -0.00186689 -0.02473635
v -0.00669893 0.00002419 -0.02473635
v -0.00669893 -0.01796145 -0.01627536
v -0.00669893 -0.01684012 -0.01751937
v -0.00596836 -0.01578541 -0.01826493
v -0.00296194 -0.01355386 -0.01899344
v -0.00296194 -0.01579651 -0.01650541
v -0.00296194 -0.01713989 -0.01501430
v -0.00358459 -0.01750256 -0.01497383
v -0.00296194 -0.00654464 -0.02473635
v -0.00669893 -0.00530489 -0.02473635
v -0.00669893 -0.01588533 -0.01857806
v -0.00548253 -0.01329111 -0.02074656
v -0.00296194 -0.01306536 -0.01953450
v -0.00296194 -0.01206616 -0.02048029
v -0.00397091 -0.01183671 -0.02125354
v -0.00587873 -0.01189962 -0.02229518
v -0.00669893 -0.01224009 -0.02248051
v -0.00669893 -0.01216608 -0.02253377
v -0.00669893 -0.01140372 -0.02304926
v -0.00333034 -0.00672227 -0.02473635
v -0.00551180 -0.00621157 -0.02473635
v -0.00669893 -0.01112617 -0.02314725
v -0.00669893 -0.01408677 -0.02056976
v -0.00669893 -0.01300245 -0.02176904
v -0.00578362 -0.01289513 -0.02135792
v -0.00388421 -0.01284702 -0.02030988
v -0.00322058 -0.01266568 -0.02011603
v -0.00296194 -0.01278410 -0.01983698
v -0.00296194 -0.01258056 -0.02004148
v -0.00635578 -0.01256206 -0.02202040
v -0.00669893 -0.01231781 -0.02241234
v -0.00358459 -0.00673708 -0.02473635
v -0.00488659 -0.00650763 -0.02473635
v -0.00458002 -0.00665196 -0.02473635
v -0.00511999 -0.01272119 -0.02116407
f 1 2 3
f 1 3 4
f 1 4 5
f 1 5 6
f 1 6 12
f 1 12 19
f 1 19 18
f 1 18 30
f 1 30 38
f 1 38 43
f 1 43 55
f 1 55 53
f 1 53 52
f 1 52 67
f 1 67 80
f 1 80 79
f 1 79 89
f 1 89 98
f 1 98 110
f 1 110 107
f 1 107 106
f 1 106 105
f 1 105 119
f 1 119 112
f 1 112 111
f 1 111 99
f 1 99 91
f 1 91 90
f 1 90 84
f 1 84 83
f 1 83 82
f 1 82 71
f 1 71 81
f 1 81 68
f 1 68 73
f 1 73 62
f 1 62 49
f 1 49 44
f 1 44 39
f 1 39 33
f 1 33 31
f 1 31 25
f 1 25 24
f 1 24 21
f 1 21 20
f 1 20 13
f 1 13 7
f 1 7 15
f 1 15 23
f 1 23 16
f 1 16 9
f 1 9 2
f 2 8 3
f 2 9 8
f 3 8 9
f 3 9 16
f 3 16 28
f 3 28 36
f 3 36 40
f 3 40 47
f 3 47 61
f 3 61 72
f 3 72 87
f 3 87 95
f 3 95 94
f 3 94 93
f 3 93 101
f 3 101 116
f 3 116 117
f 3 117 102
f 3 102 97
f 3 97 88
f 3 88 74
f 3 74 65
f 3 65 51
f 3 51 42
f 3 42 37
f 3 37 29
f 3 29 17
f 3 17 11
f 3 11 5
f 3 5 4
f 5 10 6
f 5 11 10
f 6 10 12
f 7 13 14
f 7 14 15
f 10 11 17
f 10 17 18
f 10 18 19
f 10 19 12
f 13 20 14
f 14 20 21
f 14 21 22
f 14 22 23
f 14 23 15
f 16 23 22
f 16 22 24
f 16 24 25
f 16 25 26
f 16 26 27
f 16 27 28
f 17 29 18
f 18 29 30
f 21 24 22
f 25 31 32
f 25 32 26
f 26 32 31
f 26 31 33
f 26 33 34
f 26 34 27
f 27 34 35
f 27 35 36
f 27 36 28
f 29 37 38
f 29 38 30
f 33 39 34
f 34 40 35
f 34 39 41
f 34 41 40
f 35 40 36
f 37 42 43
f 37 43 38
f 39 44 41
f 40 45 46
f 40 46 47
f 40 41 48
f 40 48 45
f 41 44 49
f 41 49 50
f 41 50 48
f 42 51 52
f 42 52 53
f 42 53 54
f 42 54 55
f 42 55 43
f 45 48 56
f 45 56 46
f 46 56 57
f 46 57 58
f 46 58 59
f 46 59 60
f 46 60 61
f 46 61 47
f 48 50 56
f 49 62 63
f 49 63 50
f 50 63 64
f 50 64 57
f 50 57 56
f 51 65 52
f 52 65 66
f 52 66 67
f 53 55 54
f 57 64 68
f 57 68 69
f 57 69 58
f 58 69 59
f 59 70 60
f 59 69 71
f 59 71 70
f 60 72 61
f 60 70 72
f 62 73 64
f 62 64 63
f 64 73 68
f 65 74 75
f 65 75 76
f 65 76 77
f 65 77 66
f 66 77 76
f 66 76 75
f 66 75 88
f 66 88 97
f 66 97 108
f 66 108 120
f 66 120 122
f 66 122 121
f 66 121 109
f 66 109 98
f 66 98 89
f 66 89 78
f 66 78 79
f 66 79 80
f 66 80 67
f 68 81 69
f 69 81 71
f 70 71 82
f 70 82 83
f 70 83 84
f 70 84 85
f 70 85 86
f 70 86 87
f 70 87 72
f 74 88 75
f 78 89 79
f 84 90 85
f 85 90 86
f 86 90 91
f 86 91 92
f 86 92 93
f 86 93 94
f 86 94 95
f 86 95 96
f 86 96 87
f 87 96 95
f 91 99 92
f 92 99 93
f 93 99 100
f 93 100 101
f 97 102 103
f 97 103 104
f 97 104 105
f 97 105 106
f 97 106 107
f 97 107 108
f 98 109 110
f 99 111 100
f 100 112 113
f 100 113 101
f 100 111 112
f 101 113 114
f 101 114 115
f 101 115 116
f 102 117 118
f 102 118 103
f 103 118 104
f 104 118 105
f 105 118 119
f 107 120 108
f 107 110 120
f 109 121 110
f 110 121 122
f 110 122 120
f 112 119 118
f 112 118 123
f 112 123 113
f 113 123 114
f 114 123 115
f 115 123 118
f 115 118 117
f 115 117 116

