# https://github.com/mikedh/trimesh
v 0.00835687 0.01565350 -0.00210112
v 0.00835687 0.01565350 0.02380670
v 0.00835687 0.01735840 -0.00210112
v 0.04018262 0.01565350 -0.00210112
v 0.00901419 0.01565350 0.02395655
v 0.00835687 0.01571116 0.02379580
v 0.00835687 0.01890753 0.00696621
v 0.00835998 0.01890753 0.00673462
v 0.01399865 0.01890753 -0.00209567
v 0.01405473 0.01890753 -0.00210112
v 0.04018262 0.01890753 -0.00210112
v 0.04018262 0.01565350 0.01200937
v 0.00935688 0.01565350 0.02403284
v 0.01203914 0.01595422 0.02456141
v 0.00835687 0.01594498 0.02374131
v 0.00835687 0.01890753 0.02100586
v 0.04018262 0.01890753 0.01032014
v 0.04018262 0.01565796 0.01259787
v 0.04015147 0.01565350 0.01264964
v 0.01142542 0.01565350 0.02449329
v 0.01188649 0.01565350 0.02459137
v 0.01233197 0.01565350 0.02468129
v 0.01333821 0.01565350 0.02487745
v 0.01533199 0.01565350 0.02525344
v 0.01731955 0.01565350 0.02562126
v 0.01270269 0.01616797 0.02462134
v 0.00904846 0.01703061 0.02356422
v 0.00853132 0.01636706 0.02367865
v 0.00835687 0.01630080 0.02365685
v 0.00835687 0.01884764 0.02108759
v 0.00935376 0.01890753 0.02156439
v 0.04018262 0.01864727 0.01054355
v 0.03765612 0.01890753 0.01347790
v 0.04018262 0.01663943 0.01207748
v 0.03983371 0.01632884 0.01281583
v 0.03993028 0.01565350 0.01300383
v 0.01831644 0.01565350 0.02573296
v 0.01731955 0.01591917 0.02548503
v 0.01333821 0.01626544 0.02467311
v 0.00971202 0.01715771 0.02362416
v 0.01355005 0.01890753 0.02327541
v 0.01333821 0.01890753 0.02322637
v 0.01281796 0.01890753 0.02310104
v 0.01183664 0.01890753 0.02283131
v 0.01035377 0.01833063 0.02283948
v 0.00835687 0.01741638 0.02294847
v 0.00835687 0.01671014 0.02348520
v 0.00835687 0.01828667 0.02184775
v 0.00900173 0.01805380 0.02252616
v 0.00934130 0.01846346 0.02216107
v 0.01028835 0.01890753 0.02208478
v 0.03968729 0.01807292 0.01162793
v 0.04018262 0.01769033 0.01132005
v 0.03687730 0.01890753 0.01444784
v 0.04018262 0.01719275 0.01168514
v 0.03910162 0.01565350 0.01419991
v 0.03961564 0.01565350 0.01348063
v 0.04018262 0.01762917 0.01136909
v 0.03828853 0.01572964 0.01522434
v 0.03819196 0.01565350 0.01540416
v 0.03839757 0.01565350 0.01514261
v 0.01931021 0.01565350 0.02566485
v 0.01931021 0.01594880 0.02549320
v 0.01831644 0.01600773 0.02552590
v 0.01731955 0.01783145 0.02443608
v 0.01731955 0.01733387 0.02472215
v 0.01731955 0.01661904 0.02511449
v 0.01540676 0.01666555 0.02478754
v 0.01333821 0.01676302 0.02440883
v 0.01282107 0.01811783 0.02360508
v 0.01442233 0.01890753 0.02343616
v 0.01333821 0.01869219 0.02337077
v 0.01163103 0.01890753 0.02275502
v 0.00966529 0.01818951 0.02270325
v 0.00835687 0.01791173 0.02234906
v 0.01104225 0.01890753 0.02249346
v 0.01033819 0.01890753 0.02211203
v 0.03659693 0.01890753 0.01478841
v 0.03662808 0.01795633 0.01551315
v 0.03689600 0.01837363 0.01485108
v 0.03751282 0.01565350 0.01624878
v 0.02039745 0.01565350 0.02541964
v 0.02354700 0.01801462 0.02356422
v 0.02288345 0.01813344 0.02361598
v 0.01931021 0.01661904 0.02507362
v 0.01831644 0.01733801 0.02473305
v 0.01831644 0.01661904 0.02516626
v 0.02069340 0.01709368 0.02458048
v 0.01731955 0.01860936 0.02398107
v 0.01642546 0.01890753 0.02375221
v 0.01628527 0.01869059 0.02384757
v 0.01512950 0.01702870 0.02455050
v 0.01333821 0.01819461 0.02364595
v 0.01520738 0.01890753 0.02356149
v 0.03645674 0.01890753 0.01495734
v 0.03630098 0.01890753 0.01514261
v 0.03678385 0.01621193 0.01670105
v 0.03693961 0.01565350 0.01695716
v 0.02133515 0.01565350 0.02516626
v 0.02552832 0.01890753 0.02263514
v 0.02464047 0.01890753 0.02284493
v 0.02379311 0.01890753 0.02299206
v 0.02229777 0.01890753 0.02319640
v 0.02002984 0.01716217 0.02462679
v 0.01931021 0.01850456 0.02385574
v 0.01850024 0.01890753 0.02370317
v 0.01815133 0.01890753 0.02374949
v 0.01831644 0.01783559 0.02441973
v 0.01731955 0.01890753 0.02380398
v 0.01608589 0.01890753 0.02370044
v 0.03580253 0.01890753 0.01571204
v 0.03689911 0.01565350 0.01700348
v 0.02232269 0.01565350 0.02485293
v 0.02329155 0.01661904 0.02419359
v 0.02405479 0.01735107 0.02368410
v 0.02434451 0.01765529 0.02347975
v 0.02582427 0.01890753 0.02254523
v 0.01901115 0.01890753 0.02363505
v 0.03552216 0.01890753 0.01596270
v 0.03609537 0.01565350 0.01780722
v 0.03630409 0.01565350 0.01761378
v 0.03645674 0.01579430 0.01736585
v 0.03670285 0.01565350 0.01721055
v 0.02337877 0.01565350 0.02451509
v 0.02471523 0.01705705 0.02358056
v 0.02658440 0.01890753 0.02231364
v 0.03579319 0.01619441 0.01768189
v 0.03488975 0.01890753 0.01650216
v 0.03543805 0.01565350 0.01837121
v 0.02826666 0.01565350 0.02294847
v 0.02627599 0.01586693 0.02350972
v 0.02726977 0.01860936 0.02220194
v 0.02727911 0.01890753 0.02209023
v 0.03474022 0.01612496 0.01862732
v 0.03257821 0.01890753 0.01846657
v 0.03218568 0.01853450 0.01906869
v 0.03274332 0.01711184 0.01961633
v 0.03493960 0.01565350 0.01878534
v 0.03368102 0.01603608 0.01957274
v 0.02826666 0.01636324 0.02269236
v 0.02774329 0.01709336 0.02259700
v 0.02894890 0.01565350 0.02269781
v 0.02877445 0.01613515 0.02261062
v 0.02754391 0.01890753 0.02199487
v 0.03149098 0.01890753 0.01939019
v 0.03179939 0.01816816 0.01965993
v 0.03040063 0.01890753 0.02029202
v 0.02989284 0.01890753 0.02070343
v 0.03425735 0.01565350 0.01933570
v 0.03070904 0.01804680 0.02058355
v 0.03330719 0.01567198 0.01998959
v 0.03334457 0.01565350 0.01997325
v 0.02945358 0.01565350 0.02241990
v 0.02885545 0.01824271 0.02166792
v 0.02860311 0.01890753 0.02152080
v 0.02812959 0.01890753 0.02176601
v 0.03102057 0.01890753 0.01978253
v 0.02954704 0.01890753 0.02092412
v 0.03000499 0.01860936 0.02077154
v 0.02921682 0.01858834 0.02128376
v 0.03094269 0.01738325 0.02073340
v 0.03254394 0.01565350 0.02048274
v 0.03330719 0.01565350 0.01999777
v 0.02907663 0.01761388 0.02180415
v 0.03031651 0.01565350 0.02188861
v 0.02975265 0.01710483 0.02160526
v 0.03125110 0.01565350 0.02130011
f 1 2 6
f 1 6 15
f 1 15 29
f 1 29 47
f 1 47 46
f 1 46 75
f 1 75 48
f 1 48 30
f 1 30 16
f 1 16 7
f 1 7 3
f 1 3 10
f 1 10 11
f 1 11 4
f 1 4 12
f 1 12 19
f 1 19 36
f 1 36 57
f 1 57 56
f 1 56 61
f 1 61 60
f 1 60 81
f 1 81 98
f 1 98 112
f 1 112 123
f 1 123 121
f 1 121 120
f 1 120 129
f 1 129 138
f 1 138 149
f 1 149 152
f 1 152 163
f 1 163 162
f 1 162 167
f 1 167 165
f 1 165 153
f 1 153 142
f 1 142 130
f 1 130 124
f 1 124 113
f 1 113 99
f 1 99 82
f 1 82 62
f 1 62 37
f 1 37 25
f 1 25 24
f 1 24 23
f 1 23 22
f 1 22 21
f 1 21 20
f 1 20 13
f 1 13 5
f 1 5 2
f 2 5 6
f 3 7 8
f 3 8 9
f 3 9 10
f 4 11 17
f 4 17 32
f 4 32 53
f 4 53 58
f 4 58 55
f 4 55 34
f 4 34 18
f 4 18 12
f 5 13 14
f 5 14 15
f 5 15 6
f 7 16 31
f 7 31 51
f 7 51 77
f 7 77 76
f 7 76 73
f 7 73 44
f 7 44 43
f 7 43 42
f 7 42 41
f 7 41 71
f 7 71 94
f 7 94 110
f 7 110 90
f 7 90 109
f 7 109 107
f 7 107 106
f 7 106 118
f 7 118 103
f 7 103 102
f 7 102 101
f 7 101 100
f 7 100 117
f 7 117 126
f 7 126 133
f 7 133 144
f 7 144 156
f 7 156 155
f 7 155 158
f 7 158 148
f 7 148 147
f 7 147 157
f 7 157 145
f 7 145 135
f 7 135 128
f 7 128 119
f 7 119 111
f 7 111 96
f 7 96 95
f 7 95 78
f 7 78 54
f 7 54 33
f 7 33 17
f 7 17 11
f 7 11 10
f 7 10 9
f 7 9 8
f 12 18 19
f 13 20 14
f 14 20 21
f 14 21 22
f 14 22 23
f 14 23 24
f 14 24 25
f 14 25 26
f 14 26 27
f 14 27 28
f 14 28 29
f 14 29 15
f 16 30 31
f 17 33 32
f 18 34 35
f 18 35 36
f 18 36 19
f 25 37 38
f 25 38 39
f 25 39 26
f 26 39 40
f 26 40 27
f 27 40 41
f 27 41 42
f 27 42 43
f 27 43 44
f 27 44 45
f 27 45 46
f 27 46 47
f 27 47 29
f 27 29 28
f 30 48 49
f 30 49 50
f 30 50 31
f 31 50 51
f 32 52 53
f 32 33 54
f 32 54 52
f 34 55 35
f 35 56 57
f 35 57 36
f 35 55 58
f 35 58 59
f 35 59 60
f 35 60 61
f 35 61 56
f 37 62 63
f 37 63 64
f 37 64 65
f 37 65 66
f 37 66 67
f 37 67 38
f 38 67 39
f 39 67 68
f 39 68 69
f 39 69 40
f 40 69 70
f 40 70 71
f 40 71 72
f 40 72 41
f 41 72 71
f 44 73 45
f 45 73 74
f 45 74 46
f 46 74 49
f 46 49 75
f 48 75 49
f 49 74 76
f 49 76 77
f 49 77 51
f 49 51 50
f 52 54 53
f 53 54 58
f 54 78 79
f 54 79 80
f 54 80 58
f 58 80 81
f 58 81 59
f 59 81 60
f 62 82 83
f 62 83 84
f 62 84 63
f 63 85 86
f 63 86 87
f 63 87 64
f 63 84 88
f 63 88 85
f 64 87 89
f 64 89 65
f 65 89 90
f 65 90 66
f 66 90 67
f 67 90 91
f 67 91 92
f 67 92 68
f 68 92 69
f 69 92 93
f 69 93 70
f 70 93 94
f 70 94 71
f 73 76 74
f 78 95 79
f 79 95 96
f 79 96 97
f 79 97 98
f 79 98 80
f 80 98 81
f 82 99 83
f 83 99 100
f 83 100 101
f 83 101 84
f 84 101 102
f 84 102 103
f 84 103 104
f 84 104 85
f 84 85 88
f 85 104 105
f 85 105 106
f 85 106 107
f 85 107 108
f 85 108 86
f 86 108 109
f 86 109 87
f 87 109 89
f 89 109 90
f 90 110 91
f 91 110 92
f 92 110 93
f 93 110 94
f 96 111 97
f 97 112 98
f 97 111 112
f 99 113 114
f 99 114 115
f 99 115 116
f 99 116 100
f 100 116 117
f 103 118 105
f 103 105 104
f 105 118 106
f 107 109 108
f 111 119 120
f 111 120 121
f 111 121 122
f 111 122 112
f 112 122 123
f 113 124 125
f 113 125 126
f 113 126 114
f 114 126 115
f 115 126 116
f 116 126 117
f 119 127 120
f 119 128 127
f 120 127 129
f 121 123 122
f 124 130 131
f 124 131 125
f 125 131 132
f 125 132 126
f 126 132 133
f 127 128 134
f 127 134 129
f 128 135 136
f 128 136 137
f 128 137 134
f 129 134 137
f 129 137 139
f 129 139 138
f 130 140 141
f 130 141 131
f 130 142 143
f 130 143 140
f 131 141 132
f 132 141 140
f 132 140 143
f 132 143 133
f 133 143 144
f 135 145 136
f 136 145 146
f 136 146 137
f 137 146 147
f 137 147 148
f 137 148 139
f 138 139 149
f 139 148 150
f 139 150 151
f 139 151 152
f 139 152 149
f 142 153 143
f 143 153 154
f 143 154 155
f 143 155 156
f 143 156 144
f 145 157 146
f 146 157 147
f 148 158 159
f 148 159 150
f 150 159 160
f 150 160 154
f 150 154 161
f 150 161 151
f 151 162 163
f 151 163 152
f 151 161 162
f 153 164 154
f 153 165 164
f 154 160 155
f 154 164 165
f 154 165 166
f 154 166 161
f 155 160 158
f 158 160 159
f 161 166 167
f 161 167 162
f 165 167 166

