# https://github.com/mikedh/trimesh
v -0.02150193 -0.03022835 0.00121246
v -0.02050453 -0.03004522 0.00121246
v -0.02050453 -0.03012115 0.00220026
v -0.02150193 -0.03020155 0.00220026
v -0.02249486 -0.03000949 0.00121246
v -0.02316951 -0.02972364 0.00057270
v -0.02241193 -0.02980403 0.00023490
v -0.02150193 -0.02997376 0.00021443
v -0.02084074 -0.02972810 -0.00042021
v -0.02050902 -0.02982190 0.00025026
v -0.01993075 -0.02969684 0.00060341
v -0.01503787 -0.02767353 0.00072624
v -0.01968868 -0.02979957 0.00220026
v -0.01961696 -0.02983083 0.00318805
v -0.01943989 -0.02981744 0.00428333
v -0.01891989 -0.02971024 0.00618215
v -0.01893559 -0.02970131 0.00675537
v -0.02050453 -0.03008542 0.00318805
v -0.02050453 -0.02998716 0.00419120
v -0.02023781 -0.02974151 0.00599789
v -0.02150193 -0.03000502 0.00318805
v -0.02255986 -0.02986657 0.00224120
v -0.02611913 -0.02871868 0.00099750
v -0.02611913 -0.02871868 0.00058294
v -0.02312692 -0.02971471 0.00193923
v -0.02322554 -0.02974597 0.00121246
v -0.02572017 -0.02858022 -0.00008242
v -0.02694843 -0.02766460 -0.00125958
v -0.02542655 -0.02841050 -0.00071706
v -0.02548034 -0.02707503 -0.00376746
v -0.02357743 -0.02895987 -0.00086549
v -0.02268985 -0.02958071 -0.00008754
v -0.02202641 -0.02967004 -0.00029738
v -0.02150193 -0.02971917 -0.00039974
v -0.01906782 -0.02668644 -0.00727336
v -0.01896248 -0.02668644 -0.00727336
v -0.01783060 -0.02573955 -0.00934108
v -0.01001275 -0.02370285 -0.00927454
v -0.00938741 -0.02358225 -0.00874226
v -0.00804484 -0.02469440 0.00067506
v -0.01705957 -0.02865615 0.00193923
v -0.01413908 -0.02743681 0.00248687
v -0.01897593 -0.02967897 0.00518412
v -0.01752129 -0.02905367 0.00518412
v -0.01004861 -0.02568595 0.00263530
v -0.01004861 -0.02568595 0.00270183
v -0.01871593 -0.02883035 0.00787624
v -0.01951161 -0.02889287 0.00795301
v -0.01931213 -0.02970131 0.00675537
v -0.00670002 -0.02150088 0.01012821
v -0.00670002 -0.02148748 0.01016915
v -0.00670002 -0.02118376 0.01101364
v -0.00670002 -0.02109443 0.01121837
v -0.00670002 -0.02079518 0.01181718
v -0.00670002 -0.02073265 0.01194002
v -0.00670002 -0.01792771 0.01699671
v -0.00670002 -0.01762846 0.01749829
v -0.00707433 -0.01771779 0.01762112
v -0.00828915 -0.01764633 0.01850655
v -0.01997557 -0.02965664 0.00665813
v -0.02054264 -0.02956731 0.00626915
v -0.02148401 -0.02978170 0.00412979
v -0.02223934 -0.02975044 0.00318805
v -0.02273692 -0.02957178 0.00318805
v -0.02384191 -0.02861596 0.00547585
v -0.02406605 -0.02869635 0.00481049
v -0.02424536 -0.02877228 0.00419120
v -0.02595551 -0.02866062 0.00164750
v -0.02646206 -0.02851769 0.00127900
v -0.02732722 -0.02798618 0.00121246
v -0.02729360 -0.02794599 0.00021443
v -0.02646206 -0.02843730 0.00024002
v -0.02580534 -0.02859809 0.00220026
v -0.02714567 -0.02779859 -0.00059423
v -0.02801756 -0.02472567 -0.00635210
v -0.02783825 -0.02457827 -0.00701234
v -0.02703136 -0.02671324 -0.00335289
v -0.02710309 -0.02576635 -0.00545132
v -0.02677360 -0.02561896 -0.00611155
v -0.02638585 -0.02678917 -0.00372139
v -0.02599137 -0.02668198 -0.00427927
v -0.02645757 -0.02587355 -0.00577376
v -0.02330399 -0.02877228 -0.00147966
v -0.02407053 -0.02769587 -0.00331706
v -0.02472500 -0.02662391 -0.00515446
v -0.02249486 -0.02887054 -0.00167415
v -0.02159607 -0.02895094 -0.00187376
v -0.02150193 -0.02946905 -0.00089620
v -0.02050453 -0.02615047 -0.00774935
v -0.01902076 -0.02568149 -0.00924383
v -0.01851645 -0.02572615 -0.00932061
v -0.02249486 -0.02786112 -0.00363950
v -0.01851645 -0.02539564 -0.00981706
v -0.01752129 -0.02491326 -0.01054383
v -0.01652613 -0.02449788 -0.01093793
v -0.01652613 -0.02481500 -0.01044147
v -0.01586717 -0.02473013 -0.01031352
v -0.01520373 -0.02464080 -0.01015486
v -0.01055291 -0.02377431 -0.00941785
v -0.01055291 -0.02351526 -0.00991431
v -0.00955775 -0.02286762 -0.01052848
v -0.00963172 -0.02336786 -0.00965840
v -0.00826225 -0.02261303 -0.01003202
v -0.00858052 -0.02288995 -0.00971470
v -0.00798208 -0.02273809 -0.00936667
v -0.00856259 -0.02320707 -0.00874226
v -0.00856259 -0.02339466 -0.00774935
v -0.00670002 -0.02329193 -0.00376746
v -0.00670002 -0.02344379 -0.00292809
v -0.00670002 -0.02400210 0.00018372
v -0.00750467 -0.02447108 0.00121246
v -0.00800225 -0.02471227 0.00121246
v -0.00856259 -0.02495792 0.00121246
v -0.00955775 -0.02538670 0.00121246
v -0.01553097 -0.02813805 0.00419120
v -0.00800225 -0.02471227 0.00179593
v -0.01894455 -0.02670431 0.01068608
v -0.00895259 -0.01774905 0.01865498
v -0.01792025 -0.02175547 0.01669986
v -0.01916644 -0.02670431 0.01068608
v -0.01951161 -0.02799512 0.00905852
v -0.02050453 -0.02882588 0.00787112
v -0.01959006 -0.02944225 0.00712388
v -0.00670002 -0.02382344 0.00210301
v -0.00670002 -0.01699869 0.01829159
v -0.00747105 -0.01752126 0.01814829
v -0.00756743 -0.01698082 0.01889041
v -0.00828466 -0.01665924 0.01956600
v -0.02150193 -0.02873209 0.00775852
v -0.02202641 -0.02867402 0.00768687
v -0.02497380 -0.02766907 0.00765616
v -0.02204659 -0.02967897 0.00375104
v -0.02519121 -0.02775393 0.00699081
v -0.02550724 -0.02757080 0.00726719
v -0.02585689 -0.02762440 0.00645852
v -0.02688343 -0.02762440 0.00449317
v -0.02620654 -0.02776733 0.00518412
v -0.02723532 -0.02787899 0.00220026
v -0.02701343 -0.02770033 0.00383293
v -0.02773290 -0.02745914 0.00220026
v -0.02782480 -0.02753060 0.00121246
v -0.02779118 -0.02750827 0.00021443
v -0.02818118 -0.02687404 -0.00078360
v -0.02747739 -0.02742788 -0.00086549
v -0.02787859 -0.02660605 -0.00209384
v -0.02959547 -0.02379664 -0.00546155
v -0.02959547 -0.02358672 -0.00593242
v -0.02887375 -0.02359118 -0.00710446
v -0.02820807 -0.02391724 -0.00753950
v -0.02755135 -0.02426116 -0.00784659
v -0.02717481 -0.02481053 -0.00748320
v -0.02749308 -0.02494452 -0.00671037
v -0.02908444 -0.02378771 -0.00643911
v -0.02611241 -0.02572169 -0.00633675
v -0.02645757 -0.02544030 -0.00670525
v -0.02548034 -0.02579315 -0.00646982
v -0.02249486 -0.02861596 -0.00217061
v -0.02349002 -0.02548497 -0.00786194
v -0.01941523 -0.02532864 -0.00964305
v -0.01951161 -0.02479713 -0.01039541
v -0.02548034 -0.02512318 -0.00774935
v -0.02606309 -0.02470334 -0.00827651
v -0.01951161 -0.02444875 -0.01089698
v -0.02003833 -0.02270236 -0.01323596
v -0.01851645 -0.02489986 -0.01051824
v -0.01658889 -0.01437688 -0.02473635
v -0.01658216 -0.01437688 -0.02473635
v -0.01493028 -0.02271576 -0.01325131
v -0.01553097 -0.02359118 -0.01206391
v -0.01300496 -0.02170634 -0.01423399
v -0.01254324 -0.02378771 -0.01040053
v -0.01181704 -0.02076392 -0.01532415
v -0.01115360 -0.02067905 -0.01516549
v -0.01413908 -0.02343486 -0.01176194
v -0.01254324 -0.02350186 -0.01090210
v -0.01131722 -0.02361798 -0.01010879
v -0.01049688 -0.02299715 -0.01081509
v -0.01012706 -0.02267109 -0.01119895
v -0.00892569 -0.02274702 -0.01032887
v -0.00955775 -0.02257283 -0.01103005
v -0.00685692 -0.02181353 -0.01043123
v -0.00670002 -0.02185373 -0.01005249
v -0.00670002 -0.02196986 -0.00968399
v -0.00783863 -0.02281849 -0.00874226
v -0.00756743 -0.02311774 -0.00675643
v -0.00670002 -0.02303288 -0.00499580
v -0.00670002 -0.02405570 0.00124317
v -0.01851645 -0.02175994 0.01669986
v -0.00955775 -0.01782945 0.01874710
v -0.01217117 -0.01868255 0.01858332
v -0.01752129 -0.02081305 0.01773884
v -0.01851645 -0.02083538 0.01775931
v -0.01851645 -0.02133116 0.01720143
v -0.01950265 -0.02702143 0.01024081
v -0.01951161 -0.02758420 0.00956010
v -0.01910593 -0.02172421 0.01665892
v -0.01951161 -0.02443535 0.01334238
v -0.02150193 -0.02741894 0.00936049
v -0.02311795 -0.02769587 0.00869514
v -0.00670002 -0.01671284 0.01861403
v -0.00695330 -0.01680663 0.01870104
v -0.00756743 -0.01646271 0.01939199
v -0.00904448 -0.01573468 0.02062033
v -0.01254996 -0.01821357 0.01912073
v -0.01283686 -0.01876294 0.01867033
v -0.00756743 -0.01597140 0.01982191
v -0.00856259 -0.01302801 0.02286206
v -0.00932241 -0.01266175 0.02353254
v -0.00922603 -0.01369351 0.02256521
v -0.02378140 -0.02763780 0.00859278
v -0.02548034 -0.02694550 0.00903805
v -0.02625137 -0.02680704 0.00887427
v -0.02548034 -0.02734301 0.00816797
v -0.02654050 -0.02690530 0.00818333
v -0.02691481 -0.02663731 0.00852624
v -0.02702464 -0.02672217 0.00785577
v -0.02775308 -0.02648545 0.00618215
v -0.02841652 -0.02635593 0.00426286
v -0.02865410 -0.02640059 0.00318805
v -0.02959547 -0.02535544 0.00402742
v -0.02919875 -0.02590035 0.00318805
v -0.02826411 -0.02696336 0.00220026
v -0.02830221 -0.02703036 0.00121246
v -0.02828652 -0.02700803 0.00021443
v -0.02876393 -0.02648099 0.00220026
v -0.02925030 -0.02598074 0.00220026
v -0.02920099 -0.02591821 -0.00078360
v -0.02867875 -0.02641846 -0.00078360
v -0.02910461 -0.02580209 -0.00157691
v -0.02804669 -0.02674004 -0.00143360
v -0.02959547 -0.02492219 -0.00274384
v -0.02959547 -0.02313114 -0.00670013
v -0.02959547 -0.02268896 -0.00724265
v -0.02855324 -0.02328747 -0.00785171
v -0.02793014 -0.02364925 -0.00820486
v -0.02726670 -0.02394850 -0.00849659
v -0.02672654 -0.02460954 -0.00814344
v -0.02642843 -0.02489539 -0.00778517
v -0.02548034 -0.02553410 -0.00697139
v -0.02440225 -0.02540457 -0.00765210
v -0.02249486 -0.02478820 -0.00938714
v -0.02049109 -0.02437728 -0.01066667
v -0.02070177 -0.02262643 -0.01312336
v -0.02548034 -0.02393510 -0.00958163
v -0.02485949 -0.02366265 -0.01019580
v -0.02548034 -0.02443088 -0.00887533
v -0.02448742 -0.02455148 -0.00904423
v -0.02150193 -0.02083985 -0.01541627
v -0.02050453 -0.02143388 -0.01485840
v -0.02050453 -0.02093811 -0.01552887
v -0.01951161 -0.02314007 -0.01272927
v -0.01951161 -0.02236291 -0.01376824
v -0.01851645 -0.02402890 -0.01168005
v -0.01743836 -0.01418928 -0.02473635
v -0.02050453 -0.02056739 -0.01602533
v -0.02050453 -0.02007161 -0.01666509
v -0.01158842 -0.01260369 -0.02473635
v -0.01055291 -0.01892373 -0.01742257
v -0.01154808 -0.01958030 -0.01704383
v -0.01254324 -0.02051379 -0.01592808
v -0.01254324 -0.02085325 -0.01543163
v -0.01150997 -0.02047806 -0.01567730
v -0.01154808 -0.02151428 -0.01389619
v -0.01077033 -0.01982149 -0.01639895
v -0.00976172 -0.02181800 -0.01242730
v -0.00858052 -0.02238971 -0.01069226
v -0.00759208 -0.02194753 -0.01075368
v -0.00727829 -0.02161254 -0.01109659
v -0.00670002 -0.02098724 -0.01173635
v -0.00670002 -0.02150982 -0.01082533
v -0.00670002 -0.02164381 -0.01058990
v -0.00670002 -0.02219318 -0.00874226
v -0.00734105 -0.02254603 -0.00874226
v -0.00718192 -0.02263536 -0.00797454
v -0.00670002 -0.02287209 -0.00575328
v -0.01615406 -0.01967856 0.01858844
v -0.01553097 -0.01960264 0.01850655
v -0.01681750 -0.01975896 0.01867033
v -0.01752129 -0.02029940 0.01823018
v -0.01916196 -0.02075052 0.01767230
v -0.01752129 -0.01979916 0.01869592
v -0.01851645 -0.02028600 0.01825577
v -0.01913507 -0.01974110 0.01864986
v -0.01979851 -0.01965177 0.01856797
v -0.02179779 -0.02465420 0.01261049
v -0.01976937 -0.02163487 0.01656679
v -0.02504552 -0.02569935 0.01068096
v -0.02448742 -0.02575295 0.01074238
v -0.02346761 -0.02731175 0.00908411
v -0.02476535 -0.02663731 0.00961640
v -0.02548034 -0.02657478 0.00952939
v -0.00670002 -0.01628852 0.01900813
v -0.00670002 -0.01567662 0.01956600
v -0.00699588 -0.01577934 0.01966325
v -0.01353840 -0.01729348 0.02021600
v -0.01016964 -0.01072331 0.02556442
v -0.00951068 -0.01424735 0.02211994
v -0.01553097 -0.01910239 0.01898766
v -0.01413908 -0.01892820 0.01882388
v -0.00747553 -0.01526123 0.02037978
v -0.00876880 -0.01094663 0.02476088
v -0.00856259 -0.01245630 0.02335852
v -0.00955775 -0.01008461 0.02588687
v -0.02647550 -0.02590928 0.00990301
v -0.02654050 -0.02644079 0.00919160
v -0.02704481 -0.02575742 0.00972900
v -0.02725998 -0.02595841 0.00916600
v -0.02795256 -0.02565916 0.00861325
v -0.02748859 -0.02620406 0.00823451
v -0.02923237 -0.02492219 0.00717506
v -0.02761635 -0.02636486 0.00717506
v -0.02959547 -0.02484179 0.00618215
v -0.02959547 -0.02531971 0.00419120
v -0.02959547 -0.02552516 0.00318805
v -0.02879979 -0.02648992 0.00121246
v -0.02878410 -0.02648099 0.00021443
v -0.02959547 -0.02561003 0.00220026
v -0.02959547 -0.02551623 -0.00078360
v -0.02959547 -0.02555196 0.00296797
v -0.02959547 -0.02526164 -0.00183793
v -0.02959547 -0.02521698 -0.00199147
v -0.02959547 -0.02117483 -0.00889068
v -0.02889617 -0.02262196 -0.00816391
v -0.02893875 -0.02067905 -0.01021116
v -0.02794359 -0.02267109 -0.00921824
v -0.02686550 -0.02360905 -0.00916706
v -0.02620206 -0.02381451 -0.00940761
v -0.02508362 -0.02275596 -0.01131155
v -0.02448742 -0.02285869 -0.01145486
v -0.02147728 -0.02138475 -0.01464344
v -0.02150193 -0.02046020 -0.01590761
v -0.02211159 -0.02075498 -0.01528320
v -0.01744732 -0.01418482 -0.02473635
v -0.02150193 -0.01996442 -0.01651667
v -0.01152118 -0.01257689 -0.02473635
v -0.00989171 -0.01780265 -0.01829777
v -0.00995447 -0.01876741 -0.01726391
v -0.00856259 -0.01884334 -0.01635800
v -0.01048343 -0.01946864 -0.01671627
v -0.00904448 -0.01474313 -0.02119973
v -0.01154808 -0.01993762 -0.01654226
v -0.00682330 -0.01882100 -0.01534974
v -0.01010688 -0.01968750 -0.01617375
v -0.00670002 -0.01990189 -0.01353793
v -0.00958465 -0.02095597 -0.01373753
v -0.00948155 -0.02151428 -0.01274462
v -0.00670002 -0.02242097 -0.00775446
v -0.01377598 -0.01579274 0.02166954
v -0.01083308 -0.01080371 0.02563608
v -0.01394633 -0.01474759 0.02261640
v -0.02150193 -0.01888800 0.01879829
v -0.02212055 -0.02273809 0.01468333
v -0.01851645 -0.01978576 0.01868057
v -0.01422201 -0.01474759 0.02261640
v -0.01652613 -0.01751233 0.02046167
v -0.01752129 -0.01920959 0.01914632
v -0.02203762 -0.01673517 0.02062033
v -0.02150193 -0.01788751 0.01975537
v -0.02219003 -0.01778479 0.01967860
v -0.02273916 -0.02361798 0.01357270
v -0.02570896 -0.02559663 0.01057348
v -0.02541758 -0.02600754 0.01021010
v -0.02507017 -0.02471673 0.01168923
v -0.00670002 -0.01460020 0.02049750
v -0.00670002 -0.01409549 0.02092742
v -0.01055291 -0.01283148 0.02368608
v -0.00955775 -0.00948163 0.02638844
v -0.01052154 -0.01033473 0.02594317
v -0.00670002 -0.01038386 0.02407506
v -0.00819501 -0.00966923 0.02551836
v -0.00886069 -0.00988808 0.02570261
v -0.02573586 -0.02458274 0.01155616
v -0.02505224 -0.02273809 0.01368529
v -0.02647550 -0.02539564 0.01039947
v -0.02647550 -0.02489986 0.01086522
v -0.02657412 -0.02422542 0.01141797
v -0.02701791 -0.02472120 0.01068608
v -0.02804894 -0.02175994 0.01270262
v -0.02959547 -0.01770886 0.01535380
v -0.02959547 -0.01840116 0.01471915
v -0.02908893 -0.02084431 0.01277939
v -0.02804445 -0.02377878 0.01074750
v -0.02799962 -0.02471673 0.00970341
v -0.02775756 -0.02544030 0.00916600
v -0.02890289 -0.02461400 0.00856207
v -0.02959547 -0.02414056 0.00813726
v -0.02909789 -0.02480160 0.00789671
v -0.02959547 -0.02458721 0.00717506
v -0.02959547 -0.02561449 0.00189317
v -0.02959547 -0.02559216 0.00092585
v -0.02959547 -0.02557429 0.00021443
v -0.02959547 -0.02027707 -0.00985801
v -0.02956185 -0.02031727 -0.00985801
v -0.02959547 -0.01935251 -0.01085092
v -0.02894772 -0.01969643 -0.01121942
v -0.02050453 -0.01224191 -0.02473635
v -0.02618189 -0.02286315 -0.01039541
v -0.01998006 -0.01265282 -0.02473635
v -0.02212952 -0.01981256 -0.01630682
v -0.02393156 -0.02167061 -0.01319501
v -0.01063136 -0.01215258 -0.02473635
v -0.00856259 -0.01651184 -0.01896312
v -0.00929103 -0.01859321 -0.01707454
v -0.00805605 -0.01871828 -0.01621470
v -0.00832052 -0.01262156 -0.02306785
v -0.00756743 -0.01291188 -0.02237178
v -0.00670002 -0.01863788 -0.01549816
v -0.00670002 -0.01892373 -0.01511942
v -0.00670002 -0.01914259 -0.01477139
v -0.00670002 -0.01959817 -0.01403438
v -0.01055291 -0.00955310 0.02649592
v -0.01154808 -0.01081264 0.02563608
v -0.02282882 -0.01965623 0.01757506
v -0.02448742 -0.02284082 0.01379277
v -0.02279968 -0.02163934 0.01557388
v -0.01851645 -0.01920959 0.01910025
v -0.02050453 -0.01732027 0.02032348
v -0.02150193 -0.01677090 0.02064592
v -0.01413908 -0.01356845 0.02347624
v -0.01488546 -0.01471633 0.02259592
v -0.02269882 -0.01643591 0.02051285
v -0.02349002 -0.01696296 0.01982191
v -0.02244331 -0.01720415 0.02009828
v -0.01353840 -0.01190692 0.02470970
v -0.01213755 -0.01077691 0.02560537
v -0.01425788 -0.01183993 0.02465852
v -0.01632665 -0.01289401 0.02369631
v -0.01248272 -0.00589953 0.02755025
v -0.02145039 -0.01518084 0.02140340
v -0.02285123 -0.01766419 0.01957112
v -0.02284227 -0.01866021 0.01857309
v -0.00703847 -0.00878040 0.02560537
v -0.00901535 -0.00879380 0.02660852
v -0.00955775 -0.00898139 0.02670065
v -0.00670002 -0.00924045 0.02503726
v -0.02349002 -0.01746320 0.01939199
v -0.02499845 -0.02171081 0.01465262
v -0.02630740 -0.02392170 0.01185813
v -0.02660999 -0.02328747 0.01223687
v -0.02846807 -0.01900860 0.01490340
v -0.02959547 -0.01742747 0.01560970
v -0.02959547 -0.01882994 0.01430458
v -0.02959547 -0.01983043 0.01326049
v -0.02959547 -0.02075498 0.01223175
v -0.02939823 -0.02112570 0.01206285
v -0.02822152 -0.02414056 0.01008726
v -0.02959547 -0.02333660 0.00915065
v -0.02918979 -0.02395297 0.00897152
v -0.02819238 -0.02494006 0.00916600
v -0.02959547 -0.02401103 0.00830104
v -0.02959547 -0.01836543 -0.01186431
v -0.02959547 -0.01786965 -0.01236588
v -0.02959547 -0.01686023 -0.01335367
v -0.02959547 -0.01527017 -0.01483281
v -0.02959547 -0.01479226 -0.01525761
v -0.02959547 -0.01422502 -0.01569265
v -0.02093487 -0.01172826 -0.02473635
v -0.01060223 -0.01213471 -0.02473635
v -0.00702054 -0.01276895 -0.02221312
v -0.00670002 -0.01457787 -0.02002257
v -0.00670002 -0.01834756 -0.01584108
v -0.00750243 -0.01226871 -0.02290918
v -0.00955775 -0.00826229 0.02704356
v -0.01055291 -0.00906179 0.02672112
v -0.01413908 -0.01279575 0.02403411
v -0.01851645 -0.01691829 0.02075340
v -0.02249486 -0.01522997 0.02100419
v -0.02301709 -0.01577041 0.02062033
v -0.02340485 -0.01615006 0.02027230
v -0.02405260 -0.01677090 0.01965301
v -0.01280099 -0.01058932 0.02553884
v -0.01119170 -0.00890099 0.02663411
v -0.01055291 -0.00826229 0.02703332
v -0.01154808 -0.00636851 0.02755025
v -0.01325823 -0.00527869 0.02755025
v -0.01342185 -0.00514470 0.02755025
v -0.01353616 -0.00504197 0.02755025
v -0.02175073 -0.01446621 0.02153135
v -0.00670002 -0.00915112 0.02510891
v -0.00670002 -0.00864194 0.02551324
v -0.00756743 -0.00624792 0.02755025
v -0.00822639 -0.00665436 0.02755025
v -0.00883155 -0.00697148 0.02755025
v -0.02411087 -0.01780712 0.01870104
v -0.02932651 -0.01712375 0.01604986
v -0.02959547 -0.01703889 0.01595262
v -0.02959547 -0.02222892 0.01047624
v -0.02959547 -0.01412675 -0.01575407
v -0.02112987 -0.01079924 -0.02473635
v -0.02959547 -0.01336299 -0.01611745
v -0.02959547 -0.00823549 -0.01854856
v -0.02959547 -0.00727520 -0.01893753
v -0.00670002 -0.00531443 -0.02473635
v -0.00683002 -0.01099576 -0.02324698
v -0.00670002 -0.01112083 -0.02314462
v -0.00670002 -0.01139775 -0.02304737
v -0.00712588 -0.01166127 -0.02314974
v -0.00778932 -0.01195605 -0.02330840
v -0.00670002 -0.01223744 -0.02247926
v -0.00670002 -0.01231337 -0.02241273
v -0.00670002 -0.01300121 -0.02176785
v -0.00917448 -0.00707868 0.02755025
v -0.00955775 -0.00737346 0.02742742
v -0.00955775 -0.00706528 0.02755025
v -0.02204659 -0.01380517 0.02162860
v -0.02959547 -0.00542162 0.02126521
v -0.02959547 -0.00627918 0.02099395
v -0.02959547 -0.00635511 0.02096836
v -0.02959547 -0.00702508 0.02072781
v -0.02805118 -0.01583294 0.01767230
v -0.02591292 -0.01663691 0.01858332
v -0.02896565 -0.01672177 0.01663332
v -0.01050585 -0.00687769 0.02755025
v -0.01394184 -0.00428714 0.02755025
v -0.01610251 -0.00485885 0.02661364
v -0.00670002 -0.00828462 0.02573844
v -0.00731640 -0.00528316 0.02755025
v -0.00670002 -0.00711888 0.02646521
v -0.00670002 -0.00682409 0.02662899
v -0.00670002 -0.00627025 0.02693096
v -0.02959547 -0.01622599 0.01653608
v -0.02117694 -0.01024987 -0.02473635
v -0.02959547 -0.00627918 -0.01899895
v -0.00670002 0.00002300 -0.02473635
v -0.02959547 -0.00429161 0.02155183
v -0.02959547 -0.01535950 0.01694041
v -0.01394857 -0.00426927 0.02755025
v -0.00768398 -0.00444793 0.02755025
v -0.00670002 -0.00532782 0.02694632
v -0.00670002 0.00677182 0.02349159
v -0.01900507 -0.00484991 -0.02473635
v -0.02959547 -0.00556008 -0.01858950
v -0.01863748 -0.00417994 -0.02473635
v -0.01048792 0.00112621 -0.02473635
v -0.00991637 0.00221603 -0.02420407
v -0.00856259 0.00346217 -0.02336469
v -0.00784088 0.00334604 -0.02326233
v -0.00717743 0.00307359 -0.02312926
v -0.00670002 0.00282347 -0.02303714
v -0.02959547 -0.00329559 0.02159277
v -0.01532700 0.00116194 0.02755025
v -0.01568562 0.00268054 0.02755025
v -0.01092946 0.00129594 0.02755025
v -0.00670002 0.00751325 0.02318962
v -0.00713036 0.00705321 0.02357860
v -0.01995540 0.00015252 -0.02015052
v -0.01882576 0.00006319 -0.02106155
v -0.01924041 -0.00059784 -0.02136863
v -0.01543010 -0.00137947 -0.02473635
v -0.01819370 -0.00373776 -0.02473635
v -0.02959547 0.00048751 -0.01140368
v -0.02897462 0.00119768 -0.01124501
v -0.02512397 0.00530235 -0.01039029
v -0.02412432 0.00528449 -0.01135761
v -0.02308209 0.00424827 -0.01330249
v -0.01154808 0.00095649 -0.02473635
v -0.01013378 0.00221603 -0.02420407
v -0.00856259 0.00396241 -0.02299107
v -0.00753381 0.00368103 -0.02290407
v -0.00670002 0.00366316 -0.02248438
v -0.02959547 -0.00318839 0.02156206
v -0.01539648 0.00359170 0.02755025
v -0.01187532 0.00199271 0.02755025
v -0.00779381 0.00730333 0.02367584
v -0.00670002 0.00765171 0.02310773
v -0.01960575 0.00075996 -0.01976667
v -0.01929196 0.00038925 -0.02040131
v -0.02305968 0.00521749 -0.01227887
v -0.02150193 0.00435546 -0.01441824
v -0.01816232 0.00128700 -0.02029383
v -0.01752129 0.00150586 -0.02050879
v -0.01366616 -0.00023159 -0.02473635
v -0.01701250 0.00217583 -0.02018635
v -0.01403598 0.00516836 -0.01919856
v -0.02959547 0.00095202 -0.01073832
v -0.02441794 0.00562394 -0.01067690
v -0.02680723 0.00401155 -0.00993478
v -0.02583223 0.00502990 -0.00974029
v -0.02533465 0.00546315 -0.00974029
v -0.02470932 0.00596339 -0.00974029
v -0.02404812 0.00619565 -0.01029816
v -0.02366708 0.00594552 -0.01096352
v -0.02300364 0.00616885 -0.01124501
v -0.02336450 0.00557927 -0.01162887
v -0.01245807 0.00054557 -0.02473635
v -0.00955775 0.00386415 -0.02286824
v -0.00955775 0.00336391 -0.02333399
v -0.00955775 0.00432866 -0.02236666
v -0.00856259 0.00440459 -0.02248950
v -0.00756743 0.00431973 -0.02237690
v -0.00697571 0.00421700 -0.02223359
v -0.00670002 0.00379716 -0.02239226
v -0.02959547 -0.00253629 0.02133687
v -0.01497511 0.00366763 0.02755025
v -0.01329185 0.00823682 0.02270340
v -0.01395529 0.00811622 0.02231954
v -0.01508045 0.00719167 0.02263687
v -0.02959547 -0.00114275 0.02013923
v -0.02959547 -0.00162959 0.02077387
v -0.02959547 -0.00167873 0.02081994
v -0.02959547 -0.00235316 0.02125498
v -0.01383650 0.00331478 0.02755025
v -0.00670002 0.00813856 0.02278529
v -0.00856259 0.00737032 0.02375773
v -0.01456942 0.00370783 0.02755025
v -0.01699681 0.00315845 -0.01917808
v -0.02249486 0.00591426 -0.01194108
v -0.02249486 0.00541848 -0.01249895
v -0.01403374 0.00616438 -0.01820052
v -0.01301168 0.00019272 -0.02473635
v -0.01337254 0.00537828 -0.01940328
v -0.02959547 0.00145673 -0.00983753
v -0.02884237 0.00206864 -0.01001667
v -0.02647550 0.00447159 -0.00965840
v -0.02597344 0.00516389 -0.00922848
v -0.02613258 0.00529342 -0.00856312
v -0.02488638 0.00609738 -0.00901352
v -0.02421174 0.00630284 -0.00974029
v -0.02349002 0.00667356 -0.00974029
v -0.02202865 0.00716933 -0.01026746
v -0.01704612 0.00916138 -0.01125013
v -0.01903869 0.00816535 -0.01125525
v -0.02191883 0.00611525 -0.01216116
v -0.01994419 0.00712914 -0.01217651
v -0.01712457 0.00720953 -0.01430053
v -0.01388357 0.00708000 -0.01708478
v -0.01907679 0.00620011 -0.01426982
v -0.01212859 0.00520856 -0.02023241
v -0.01014051 0.00421254 -0.02222848
v -0.01279203 0.00503883 -0.02006863
v -0.01073446 0.00504330 -0.02106155
v -0.01007326 0.00517283 -0.02119462
v -0.00955775 0.00524429 -0.02128163
v -0.00912517 0.00617778 -0.02021194
v -0.00670002 0.01143480 -0.01374265
v -0.00670002 0.00441353 -0.02183438
v -0.00670002 0.00412321 -0.02215682
v -0.01254324 0.00826808 0.02273411
v -0.01254324 0.00860754 0.02210458
v -0.00670002 0.01265415 0.01522585
v -0.00670002 0.01299360 0.01454514
v -0.00670002 0.01323032 0.01397703
v -0.00670002 0.01351618 0.01327073
v -0.01752129 0.01064424 0.01413569
v -0.01819818 0.01021099 0.01476010
v -0.01852542 0.00984921 0.01510813
v -0.01905662 0.00917924 0.01568136
v -0.01943765 0.00933110 0.01505183
v -0.02959547 0.00194357 0.01546640
v -0.00670002 0.00822789 0.02270852
v -0.00756743 0.00826362 0.02278017
v -0.00856259 0.00786610 0.02322033
v -0.01688923 0.00606612 -0.01610722
v -0.01622579 0.00628497 -0.01635800
v -0.01453580 0.00640110 -0.01750958
v -0.01413908 0.00653956 -0.01762218
v -0.01362581 0.00671376 -0.01776548
v -0.01337030 0.00634304 -0.01840525
v -0.01274720 0.00603932 -0.01907060
v -0.02959547 0.00202397 -0.00874226
v -0.02945651 0.00267607 -0.00773911
v -0.02903961 0.00324778 -0.00738084
v -0.02959547 0.00304679 -0.00675643
v -0.02921444 0.00339517 -0.00675643
v -0.02801307 0.00420807 -0.00732966
v -0.02682292 0.00503883 -0.00774935
v -0.02695067 0.00514603 -0.00720171
v -0.02710533 0.00527109 -0.00653635
v -0.02632533 0.00544081 -0.00774935
v -0.02807583 0.00524429 -0.00449423
v -0.02903737 0.00521749 -0.00243675
v -0.02918306 0.00531129 -0.00177139
v -0.02502759 0.00619118 -0.00835328
v -0.02452777 0.00641450 -0.00871155
v -0.02294537 0.00812516 -0.00615761
v -0.02099763 0.01014400 -0.00326076
v -0.02294313 0.00713807 -0.00917730
v -0.02273020 0.00703534 -0.00974029
v -0.01501097 0.01013506 -0.01120407
v -0.01057085 0.01197971 -0.01179777
v -0.01200980 0.01112215 -0.01218675
v -0.01134635 0.01128741 -0.01246312
v -0.01162652 0.01095689 -0.01277021
v -0.01688250 0.00808496 -0.01311312
v -0.01224962 0.01025119 -0.01338950
v -0.01322013 0.00724973 -0.01733045
v -0.01207480 0.00916584 -0.01523714
v -0.01208376 0.00617331 -0.01921391
v -0.01154808 0.00624924 -0.01930604
v -0.01181256 0.00709787 -0.01812375
v -0.01055291 0.01029586 -0.01441312
v -0.01023016 0.01120702 -0.01331273
v -0.00975723 0.01211817 -0.01217139
v -0.00670002 0.01150627 -0.01363005
v -0.00670002 0.01225663 0.01594238
v -0.00670002 0.01390029 0.01226246
v -0.00670002 0.01431567 0.01115695
v -0.00670002 0.01494098 0.00948333
v -0.00670002 0.01516877 0.00883333
v -0.00708778 0.01512410 0.00867978
v -0.01714250 0.01119362 0.01279474
v -0.01852542 0.01030926 0.01408451
v -0.01886162 0.01007253 0.01437624
v -0.02002713 0.00916138 0.01466285
v -0.02959547 0.00226069 0.01489317
v -0.01254324 0.00699961 -0.01799068
v -0.01246703 0.00644577 -0.01872257
v -0.02959547 0.00281900 -0.00720171
v -0.02959547 0.00345770 -0.00584541
v -0.02959547 0.00354703 -0.00563045
v -0.02883117 0.00406068 -0.00596824
v -0.02959547 0.00389095 -0.00476549
v -0.02791893 0.00512816 -0.00515446
v -0.02873703 0.00498077 -0.00376746
v -0.02888720 0.00510583 -0.00309698
v -0.02959547 0.00501203 -0.00177139
v -0.02770601 0.00599465 -0.00277454
v -0.02959547 0.00530235 -0.00078360
v -0.02838962 0.00583833 -0.00172533
v -0.02309106 0.00821895 -0.00548714
v -0.02205107 0.00918371 -0.00438163
v -0.02115453 0.01024226 -0.00259541
v -0.02010333 0.01119362 -0.00143872
v -0.01987471 0.01107749 -0.00209384
v -0.01921127 0.01123381 -0.00253911
v -0.01896024 0.01111769 -0.00320447
v -0.01855680 0.01001894 -0.00684344
v -0.02073988 0.00902738 -0.00675643
v -0.01413908 0.01100156 -0.00990919
v -0.01260151 0.01140801 -0.01077927
v -0.01091377 0.01208244 -0.01104541
v -0.01025033 0.01220750 -0.01150604
v -0.01055740 0.01145267 -0.01277021
v -0.01089360 0.01108195 -0.01312848
v -0.01151670 0.01040305 -0.01372218
v -0.01254324 0.00737032 -0.01748911
v -0.01116480 0.01019760 -0.01429541
v -0.00914759 0.01315886 -0.00933596
v -0.00756743 0.01428441 -0.00666942
v -0.00670002 0.01399409 -0.00773399
v -0.00909379 0.01213604 -0.01222769
v -0.00670002 0.01196185 -0.01278045
v -0.00670002 0.01529383 0.00816286
v -0.00923276 0.01516877 0.00681679
v -0.00816587 0.01515090 0.00775341
v -0.01727026 0.01125168 0.01215498
v -0.01851645 0.01052365 0.01314789
v -0.01059326 0.01500351 0.00618215
v -0.01154808 0.01470425 0.00618215
v -0.01413908 0.01316333 0.00884868
v -0.01903645 0.01016186 0.01371089
v -0.01942644 0.00977775 0.01408451
v -0.02959547 0.00229643 0.01482663
v -0.02959547 0.00427060 -0.00376746
v -0.02910910 0.00429293 -0.00476549
v -0.02959547 0.00467258 -0.00270801
v -0.02959547 0.00483784 -0.00226785
v -0.02183366 0.01004127 -0.00177139
v -0.02959547 0.00533809 -0.00061982
v -0.02949461 0.00538722 -0.00070171
v -0.02498052 0.00815195 -0.00126982
v -0.02800411 0.00618225 -0.00136195
v -0.02133607 0.01035839 -0.00177139
v -0.02146383 0.01043432 -0.00078360
v -0.02017730 0.01124275 -0.00078360
v -0.01951161 0.01154647 -0.00078360
v -0.01851645 0.01172512 -0.00177139
v -0.01953178 0.01133654 -0.00177139
v -0.01654182 0.01134548 -0.00574817
v -0.01413908 0.01130081 -0.00905446
v -0.01649251 0.01196185 -0.00376234
v -0.01205686 0.01214051 -0.00925919
v -0.00986482 0.01306506 -0.00874226
v -0.00936724 0.01323926 -0.00874226
v -0.00827570 0.01419954 -0.00650565
v -0.00756743 0.01446307 -0.00575328
v -0.00670002 0.01426654 -0.00664895
v -0.00670002 0.01423974 -0.00676155
v -0.00670002 0.01199311 -0.01271903
v -0.00856259 0.01214497 -0.01224305
v -0.00670002 0.01540102 0.00717506
v -0.00756743 0.01532063 0.00717506
v -0.01029067 0.01516430 0.00584435
v -0.01776784 0.01101942 0.01215498
v -0.01413908 0.01328392 0.00804514
v -0.01595906 0.01210477 0.01041994
v -0.01909696 0.01020206 0.01314789
v -0.01789784 0.01108195 0.01115695
v -0.01895576 0.01111322 0.00644317
v -0.02000023 0.01113108 0.00166797
v -0.01154808 0.01483825 0.00518412
v -0.01245134 0.01432461 0.00618215
v -0.02959547 0.00535148 0.00006601
v -0.02959547 0.00509243 0.00144278
v -0.02959547 0.00494504 0.00220026
v -0.02959547 0.00474851 0.00316758
v -0.02959547 0.00247062 0.01427899
v -0.02505000 0.00819662 -0.00060447
v -0.02505000 0.00819662 -0.00006706
v -0.02014592 0.01122935 0.00021443
v -0.01951161 0.01155540 0.00021443
v -0.01857473 0.01196631 0.00021443
v -0.01807939 0.01216284 0.00021443
v -0.01802784 0.01213604 -0.00030250
v -0.01842007 0.01195738 -0.00068636
v -0.01704164 0.01214051 -0.00229344
v -0.01743164 0.01189485 -0.00268754
v -0.01680406 0.01205564 -0.00296391
v -0.01555562 0.01230130 -0.00376234
v -0.00917672 0.01416828 -0.00542061
v -0.00893914 0.01407895 -0.00608596
v -0.00858949 0.01427994 -0.00575328
v -0.00856259 0.01447200 -0.00476549
v -0.00856259 0.01457919 -0.00376746
v -0.00856259 0.01466406 -0.00277454
v -0.00756743 0.01462386 -0.00376746
v -0.00670002 0.01536976 0.00618215
v -0.00856259 0.01529383 0.00618215
v -0.01025033 0.01515537 0.00518412
v -0.01074791 0.01508390 0.00518412
v -0.01740026 0.01132314 0.01115695
v -0.01413908 0.01353851 0.00586994
v -0.01809284 0.01217177 0.00101286
v -0.01960575 0.01138567 0.00129435
v -0.01263065 0.01434247 0.00523018
v -0.01154808 0.01479805 0.00419120
v -0.01254324 0.01443627 0.00419120
v -0.01316858 0.01418168 0.00419120
v -0.01309909 0.01415488 0.00492821
v -0.01538976 0.01327052 0.00220026
v -0.01315513 0.01417274 0.00336207
v -0.01787766 0.01209137 -0.00096273
v -0.01578424 0.01305613 0.00121246
v -0.01717836 0.01218517 -0.00177139
v -0.00935603 0.01422188 -0.00476549
v -0.01000378 0.01411022 -0.00415131
v -0.00955775 0.01444520 -0.00277454
v -0.01055291 0.01483378 0.00220026
v -0.01055291 0.01495438 0.00318805
v -0.01046774 0.01505264 0.00421679
v -0.00856259 0.01474445 -0.00177139
v -0.00956672 0.01518217 0.00508687
v -0.01366616 0.01395389 0.00419120
v -0.01154808 0.01466406 0.00318805
v -0.01264410 0.01430674 0.00309593
v -0.01652613 0.01254249 -0.00078360
v -0.01304082 0.01412808 0.00269671
v -0.01512752 0.01316333 0.00050105
v -0.01154808 0.01452560 0.00220026
f 1 2 3
f 1 3 4
f 1 4 5
f 1 5 6
f 1 6 7
f 1 7 8
f 1 8 9
f 1 9 2
f 2 9 10
f 2 10 11
f 2 11 12
f 2 12 13
f 2 13 3
f 3 13 14
f 3 14 15
f 3 15 16
f 3 16 17
f 3 17 18
f 3 18 4
f 4 18 19
f 4 19 20
f 4 20 21
f 4 21 22
f 4 22 5
f 5 23 24
f 5 24 6
f 5 22 25
f 5 25 26
f 5 26 23
f 6 24 27
f 6 27 28
f 6 28 29
f 6 29 30
f 6 30 31
f 6 31 32
f 6 32 7
f 7 32 33
f 7 33 8
f 8 33 34
f 8 34 9
f 9 34 35
f 9 35 36
f 9 36 37
f 9 37 38
f 9 38 10
f 10 38 11
f 11 38 39
f 11 39 12
f 12 40 41
f 12 41 13
f 12 39 40
f 13 41 14
f 14 42 43
f 14 43 16
f 14 16 15
f 14 41 42
f 16 43 44
f 16 44 45
f 16 45 46
f 16 46 17
f 17 47 48
f 17 48 49
f 17 49 19
f 17 19 18
f 17 46 50
f 17 50 51
f 17 51 52
f 17 52 53
f 17 53 54
f 17 54 55
f 17 55 56
f 17 56 57
f 17 57 58
f 17 58 59
f 17 59 47
f 19 49 20
f 20 49 60
f 20 60 61
f 20 61 62
f 20 62 21
f 21 62 63
f 21 63 22
f 22 63 64
f 22 64 65
f 22 65 66
f 22 66 67
f 22 67 25
f 23 26 25
f 23 25 68
f 23 68 69
f 23 69 24
f 24 69 70
f 24 70 71
f 24 71 72
f 24 72 28
f 24 28 27
f 25 73 68
f 25 67 73
f 28 72 74
f 28 74 75
f 28 75 76
f 28 76 77
f 28 77 78
f 28 78 79
f 28 79 80
f 28 80 81
f 28 81 30
f 28 30 29
f 30 81 82
f 30 82 83
f 30 83 31
f 31 83 32
f 32 83 33
f 33 83 84
f 33 84 85
f 33 85 86
f 33 86 87
f 33 87 88
f 33 88 34
f 34 88 35
f 35 89 90
f 35 90 91
f 35 91 37
f 35 37 36
f 35 88 87
f 35 87 92
f 35 92 89
f 37 91 93
f 37 93 94
f 37 94 95
f 37 95 96
f 37 96 97
f 37 97 98
f 37 98 38
f 38 98 99
f 38 99 100
f 38 100 101
f 38 101 102
f 38 102 103
f 38 103 104
f 38 104 105
f 38 105 106
f 38 106 39
f 39 106 107
f 39 107 108
f 39 108 40
f 40 108 109
f 40 109 110
f 40 110 111
f 40 111 112
f 40 112 113
f 40 113 114
f 40 114 41
f 41 114 42
f 42 45 115
f 42 115 44
f 42 44 43
f 42 114 45
f 44 115 45
f 45 114 113
f 45 113 112
f 45 112 116
f 45 116 46
f 46 116 50
f 47 117 48
f 47 59 118
f 47 118 119
f 47 119 117
f 48 117 120
f 48 120 121
f 48 121 122
f 48 122 123
f 48 123 49
f 49 123 60
f 50 116 124
f 50 124 187
f 50 187 110
f 50 110 109
f 50 109 108
f 50 108 186
f 50 186 275
f 50 275 347
f 50 347 272
f 50 272 183
f 50 183 182
f 50 182 271
f 50 271 270
f 50 270 269
f 50 269 344
f 50 344 410
f 50 410 409
f 50 409 408
f 50 408 407
f 50 407 461
f 50 461 460
f 50 460 501
f 50 501 500
f 50 500 499
f 50 499 496
f 50 496 495
f 50 495 493
f 50 493 524
f 50 524 539
f 50 539 560
f 50 560 592
f 50 592 637
f 50 637 636
f 50 636 635
f 50 635 694
f 50 694 742
f 50 742 779
f 50 779 740
f 50 740 778
f 50 778 777
f 50 777 817
f 50 817 781
f 50 781 743
f 50 743 699
f 50 699 698
f 50 698 697
f 50 697 696
f 50 696 643
f 50 643 642
f 50 642 641
f 50 641 640
f 50 640 695
f 50 695 650
f 50 650 603
f 50 603 565
f 50 565 544
f 50 544 530
f 50 530 529
f 50 529 520
f 50 520 519
f 50 519 518
f 50 518 516
f 50 516 480
f 50 480 479
f 50 479 435
f 50 435 369
f 50 369 365
f 50 365 364
f 50 364 293
f 50 293 292
f 50 292 200
f 50 200 125
f 50 125 57
f 50 57 56
f 50 56 55
f 50 55 54
f 50 54 53
f 50 53 52
f 50 52 51
f 57 125 126
f 57 126 58
f 58 126 59
f 59 126 127
f 59 127 128
f 59 128 118
f 60 123 129
f 60 129 130
f 60 130 61
f 61 130 131
f 61 131 62
f 62 132 63
f 62 131 65
f 62 65 132
f 63 132 65
f 63 65 64
f 65 131 133
f 65 133 66
f 66 133 134
f 66 134 67
f 67 134 135
f 67 135 73
f 68 136 69
f 68 73 137
f 68 137 136
f 69 138 70
f 69 136 139
f 69 139 138
f 70 138 140
f 70 140 141
f 70 141 142
f 70 142 71
f 71 142 143
f 71 143 74
f 71 74 72
f 73 135 137
f 74 143 144
f 74 144 145
f 74 145 75
f 75 145 146
f 75 146 147
f 75 147 76
f 76 148 149
f 76 149 150
f 76 150 151
f 76 151 152
f 76 152 78
f 76 78 77
f 76 147 153
f 76 153 148
f 78 152 151
f 78 151 79
f 79 154 82
f 79 82 81
f 79 81 80
f 79 151 155
f 79 155 154
f 82 154 83
f 83 154 84
f 84 154 85
f 85 154 156
f 85 156 86
f 86 156 157
f 86 157 87
f 87 157 92
f 89 158 90
f 89 92 158
f 90 159 160
f 90 160 93
f 90 93 91
f 90 158 161
f 90 161 162
f 90 162 159
f 92 157 156
f 92 156 158
f 93 160 163
f 93 163 164
f 93 164 165
f 93 165 94
f 94 165 166
f 94 166 167
f 94 167 168
f 94 168 95
f 95 168 169
f 95 169 96
f 96 169 170
f 96 170 97
f 97 171 98
f 97 170 172
f 97 172 173
f 97 173 174
f 97 174 175
f 97 175 171
f 98 171 176
f 98 176 100
f 98 100 99
f 100 176 177
f 100 177 178
f 100 178 101
f 101 179 102
f 101 178 180
f 101 180 179
f 102 179 103
f 103 179 181
f 103 181 104
f 104 181 105
f 105 181 182
f 105 182 183
f 105 183 184
f 105 184 106
f 106 184 185
f 106 185 108
f 106 108 107
f 108 185 186
f 110 187 111
f 111 187 116
f 111 116 112
f 116 187 124
f 117 119 188
f 117 188 120
f 118 128 189
f 118 189 190
f 118 190 119
f 119 190 191
f 119 191 192
f 119 192 193
f 119 193 188
f 120 194 195
f 120 195 121
f 120 188 196
f 120 196 197
f 120 197 194
f 121 195 122
f 122 129 123
f 122 195 194
f 122 194 198
f 122 198 199
f 122 199 129
f 125 200 201
f 125 201 126
f 126 201 127
f 127 202 128
f 127 201 202
f 128 203 204
f 128 204 205
f 128 205 190
f 128 190 189
f 128 202 206
f 128 206 207
f 128 207 208
f 128 208 209
f 128 209 203
f 129 199 210
f 129 210 130
f 130 210 211
f 130 211 212
f 130 212 213
f 130 213 131
f 131 213 134
f 131 134 133
f 134 213 214
f 134 214 135
f 135 214 136
f 135 136 137
f 136 214 215
f 136 215 139
f 138 139 140
f 139 215 216
f 139 216 217
f 139 217 140
f 140 217 218
f 140 218 219
f 140 219 220
f 140 220 221
f 140 221 222
f 140 222 141
f 141 223 224
f 141 224 142
f 141 222 225
f 141 225 226
f 141 226 223
f 142 224 227
f 142 227 228
f 142 228 143
f 143 228 229
f 143 229 230
f 143 230 144
f 144 230 145
f 145 230 231
f 145 231 146
f 146 231 321
f 146 321 320
f 146 320 318
f 146 318 391
f 146 391 390
f 146 390 389
f 146 389 317
f 146 317 319
f 146 319 314
f 146 314 220
f 146 220 313
f 146 313 312
f 146 312 388
f 146 388 386
f 146 386 450
f 146 450 447
f 146 447 487
f 146 487 444
f 146 444 443
f 146 443 442
f 146 442 380
f 146 380 379
f 146 379 441
f 146 441 486
f 146 486 521
f 146 521 526
f 146 526 509
f 146 509 508
f 146 508 507
f 146 507 506
f 146 506 525
f 146 525 540
f 146 540 561
f 146 561 593
f 146 593 601
f 146 601 600
f 146 600 599
f 146 599 598
f 146 598 649
f 146 649 705
f 146 705 753
f 146 753 797
f 146 797 796
f 146 796 795
f 146 795 794
f 146 794 793
f 146 793 759
f 146 759 718
f 146 718 716
f 146 716 757
f 146 757 756
f 146 756 754
f 146 754 712
f 146 712 710
f 146 710 709
f 146 709 663
f 146 663 708
f 146 708 660
f 146 660 612
f 146 612 575
f 146 575 551
f 146 551 532
f 146 532 523
f 146 523 492
f 146 492 491
f 146 491 490
f 146 490 488
f 146 488 456
f 146 456 455
f 146 455 454
f 146 454 453
f 146 453 452
f 146 452 451
f 146 451 394
f 146 394 392
f 146 392 322
f 146 322 233
f 146 233 232
f 146 232 147
f 147 232 153
f 148 153 232
f 148 232 233
f 148 233 234
f 148 234 235
f 148 235 149
f 149 235 150
f 150 235 236
f 150 236 237
f 150 237 151
f 151 237 238
f 151 238 155
f 154 155 238
f 154 238 239
f 154 239 156
f 156 239 158
f 158 239 240
f 158 240 161
f 159 162 241
f 159 241 160
f 160 241 242
f 160 242 243
f 160 243 164
f 160 164 163
f 161 240 239
f 161 239 238
f 161 238 162
f 162 238 237
f 162 237 244
f 162 244 245
f 162 245 246
f 162 246 247
f 162 247 241
f 164 243 248
f 164 248 249
f 164 249 250
f 164 250 251
f 164 251 165
f 165 251 252
f 165 252 253
f 165 253 166
f 166 254 333
f 166 333 398
f 166 398 396
f 166 396 457
f 166 457 489
f 166 489 522
f 166 522 531
f 166 531 533
f 166 533 550
f 166 550 549
f 166 549 572
f 166 572 610
f 166 610 585
f 166 585 556
f 166 556 534
f 166 534 524
f 166 524 493
f 166 493 458
f 166 458 401
f 166 401 335
f 166 335 257
f 166 257 167
f 166 253 252
f 166 252 255
f 166 255 256
f 166 256 254
f 167 257 258
f 167 258 259
f 167 259 260
f 167 260 168
f 168 260 261
f 168 261 169
f 169 261 170
f 170 261 262
f 170 262 172
f 171 175 177
f 171 177 176
f 172 262 173
f 173 178 177
f 173 177 263
f 173 263 175
f 173 175 174
f 173 262 264
f 173 264 178
f 175 263 177
f 178 265 180
f 178 264 265
f 179 180 265
f 179 265 266
f 179 266 267
f 179 267 181
f 181 267 268
f 181 268 269
f 181 269 270
f 181 270 271
f 181 271 182
f 183 272 273
f 183 273 184
f 184 273 274
f 184 274 185
f 185 274 275
f 185 275 186
f 188 193 196
f 190 205 276
f 190 276 277
f 190 277 191
f 191 277 276
f 191 276 278
f 191 278 279
f 191 279 192
f 192 280 196
f 192 196 193
f 192 279 281
f 192 281 282
f 192 282 283
f 192 283 284
f 192 284 280
f 194 197 198
f 196 285 197
f 196 280 286
f 196 286 287
f 196 287 288
f 196 288 285
f 197 285 288
f 197 288 198
f 198 288 289
f 198 289 199
f 199 289 290
f 199 290 291
f 199 291 210
f 200 292 201
f 201 292 293
f 201 293 294
f 201 294 202
f 202 294 206
f 203 295 204
f 203 209 296
f 203 296 297
f 203 297 295
f 204 295 298
f 204 298 299
f 204 299 205
f 205 299 278
f 205 278 276
f 206 300 301
f 206 301 302
f 206 302 207
f 206 294 300
f 207 302 303
f 207 303 208
f 208 303 296
f 208 296 209
f 210 291 211
f 211 291 212
f 212 291 304
f 212 304 305
f 212 305 215
f 212 215 214
f 212 214 213
f 215 305 306
f 215 306 307
f 215 307 308
f 215 308 309
f 215 309 216
f 216 309 310
f 216 310 311
f 216 311 217
f 217 311 312
f 217 312 218
f 218 313 219
f 218 312 313
f 219 313 220
f 220 314 221
f 221 314 222
f 222 314 225
f 223 315 316
f 223 316 224
f 223 226 317
f 223 317 315
f 224 316 318
f 224 318 227
f 225 314 319
f 225 319 226
f 226 319 317
f 227 318 320
f 227 320 229
f 227 229 228
f 229 320 321
f 229 321 231
f 229 231 230
f 233 322 323
f 233 323 234
f 234 323 235
f 235 323 324
f 235 324 325
f 235 325 236
f 236 325 326
f 236 326 237
f 237 326 327
f 237 327 328
f 237 328 329
f 237 329 244
f 241 247 243
f 241 243 242
f 243 330 248
f 243 247 246
f 243 246 330
f 244 329 248
f 244 248 245
f 245 248 330
f 245 330 246
f 248 331 255
f 248 255 250
f 248 250 249
f 248 329 332
f 248 332 331
f 250 255 251
f 251 255 252
f 254 256 334
f 254 334 333
f 255 331 256
f 256 331 334
f 257 335 258
f 258 336 337
f 258 337 338
f 258 338 339
f 258 339 259
f 258 335 340
f 258 340 336
f 259 339 264
f 259 264 341
f 259 341 260
f 260 341 261
f 261 341 262
f 262 341 264
f 264 339 342
f 264 342 343
f 264 343 344
f 264 344 345
f 264 345 265
f 265 345 346
f 265 346 266
f 266 346 345
f 266 345 344
f 266 344 268
f 266 268 267
f 268 344 269
f 272 347 273
f 273 347 274
f 274 347 275
f 278 281 279
f 278 299 298
f 278 298 348
f 278 348 349
f 278 349 350
f 278 350 281
f 280 284 351
f 280 351 352
f 280 352 286
f 281 353 282
f 281 350 354
f 281 354 355
f 281 355 356
f 281 356 353
f 282 353 283
f 283 353 357
f 283 357 358
f 283 358 284
f 284 358 359
f 284 359 351
f 286 352 360
f 286 360 287
f 287 361 362
f 287 362 291
f 287 291 290
f 287 290 288
f 287 360 352
f 287 352 363
f 287 363 361
f 288 290 289
f 291 362 361
f 291 361 304
f 293 364 294
f 294 364 365
f 294 365 300
f 295 297 366
f 295 366 296
f 295 296 348
f 295 348 298
f 296 303 367
f 296 367 368
f 296 368 349
f 296 349 348
f 296 366 297
f 300 365 369
f 300 369 301
f 301 369 370
f 301 370 371
f 301 371 303
f 301 303 302
f 303 371 367
f 304 361 372
f 304 372 373
f 304 373 374
f 304 374 306
f 304 306 305
f 306 374 375
f 306 375 376
f 306 376 377
f 306 377 378
f 306 378 379
f 306 379 380
f 306 380 381
f 306 381 382
f 306 382 383
f 306 383 384
f 306 384 308
f 306 308 307
f 308 385 386
f 308 386 387
f 308 387 388
f 308 388 309
f 308 384 385
f 309 388 310
f 310 388 312
f 310 312 311
f 315 317 389
f 315 389 390
f 315 390 391
f 315 391 316
f 316 391 318
f 322 392 393
f 322 393 323
f 323 393 324
f 324 393 394
f 324 394 395
f 324 395 325
f 325 395 396
f 325 396 397
f 325 397 326
f 326 397 328
f 326 328 327
f 328 398 399
f 328 399 400
f 328 400 332
f 328 332 329
f 328 397 398
f 331 332 334
f 332 400 334
f 333 334 399
f 333 399 398
f 334 400 399
f 335 401 340
f 336 402 337
f 336 340 402
f 337 403 404
f 337 404 338
f 337 402 403
f 338 404 339
f 339 404 342
f 340 401 405
f 340 405 406
f 340 406 402
f 342 407 408
f 342 408 343
f 342 404 407
f 343 408 409
f 343 409 410
f 343 410 344
f 349 368 411
f 349 411 412
f 349 412 350
f 350 412 354
f 351 359 413
f 351 413 414
f 351 414 415
f 351 415 352
f 352 415 414
f 352 414 363
f 353 356 355
f 353 355 416
f 353 416 417
f 353 417 418
f 353 418 357
f 354 412 419
f 354 419 420
f 354 420 355
f 355 420 416
f 357 421 422
f 357 422 423
f 357 423 359
f 357 359 358
f 357 418 424
f 357 424 425
f 357 425 426
f 357 426 427
f 357 427 428
f 357 428 429
f 357 429 421
f 359 423 430
f 359 430 431
f 359 431 413
f 361 363 414
f 361 414 373
f 361 373 372
f 367 371 432
f 367 432 433
f 367 433 434
f 367 434 411
f 367 411 368
f 369 435 370
f 370 435 432
f 370 432 371
f 373 414 430
f 373 430 436
f 373 436 437
f 373 437 438
f 373 438 375
f 373 375 374
f 375 438 376
f 376 438 378
f 376 378 377
f 378 438 439
f 378 439 440
f 378 440 441
f 378 441 379
f 380 442 381
f 381 442 443
f 381 443 444
f 381 444 445
f 381 445 382
f 382 446 383
f 382 445 446
f 383 446 447
f 383 447 448
f 383 448 449
f 383 449 384
f 384 449 448
f 384 448 385
f 385 450 386
f 385 448 447
f 385 447 450
f 386 388 387
f 392 394 393
f 394 451 395
f 395 451 452
f 395 452 453
f 395 453 396
f 396 453 454
f 396 454 455
f 396 455 456
f 396 456 457
f 396 398 397
f 401 458 405
f 402 406 459
f 402 459 460
f 402 460 461
f 402 461 403
f 403 461 404
f 404 461 407
f 405 462 459
f 405 459 406
f 405 458 462
f 411 434 463
f 411 463 464
f 411 464 425
f 411 425 412
f 412 425 424
f 412 424 465
f 412 465 419
f 413 431 414
f 414 431 430
f 416 420 465
f 416 465 466
f 416 466 417
f 417 466 465
f 417 465 418
f 418 465 424
f 419 465 420
f 421 429 467
f 421 467 468
f 421 468 469
f 421 469 470
f 421 470 422
f 422 470 436
f 422 436 430
f 422 430 423
f 425 464 426
f 426 464 471
f 426 471 428
f 426 428 427
f 428 471 472
f 428 472 464
f 428 464 473
f 428 473 474
f 428 474 513
f 428 513 504
f 428 504 502
f 428 502 483
f 428 483 482
f 428 482 481
f 428 481 517
f 428 517 528
f 428 528 543
f 428 543 563
f 428 563 602
f 428 602 605
f 428 605 594
f 428 594 562
f 428 562 542
f 428 542 541
f 428 541 527
f 428 527 514
f 428 514 477
f 428 477 476
f 428 476 475
f 428 475 429
f 429 475 476
f 429 476 477
f 429 477 478
f 429 478 467
f 432 435 479
f 432 479 480
f 432 480 481
f 432 481 433
f 433 481 434
f 434 481 482
f 434 482 483
f 434 483 463
f 436 470 484
f 436 484 437
f 437 484 438
f 438 484 439
f 439 484 440
f 440 485 441
f 440 484 485
f 441 485 486
f 444 487 445
f 445 487 446
f 446 487 447
f 456 488 457
f 457 488 490
f 457 490 491
f 457 491 492
f 457 492 489
f 458 493 494
f 458 494 495
f 458 495 496
f 458 496 497
f 458 497 498
f 458 498 462
f 459 462 499
f 459 499 500
f 459 500 501
f 459 501 460
f 462 498 499
f 463 483 502
f 463 502 464
f 464 472 471
f 464 502 503
f 464 503 504
f 464 504 473
f 467 478 505
f 467 505 506
f 467 506 507
f 467 507 468
f 468 507 508
f 468 508 509
f 468 509 469
f 469 509 470
f 470 509 510
f 470 510 511
f 470 511 512
f 470 512 484
f 473 504 513
f 473 513 474
f 477 514 515
f 477 515 506
f 477 506 505
f 477 505 478
f 480 516 481
f 481 516 518
f 481 518 519
f 481 519 520
f 481 520 517
f 484 512 485
f 485 512 486
f 486 512 521
f 489 492 523
f 489 523 522
f 493 495 494
f 496 499 497
f 497 499 498
f 502 504 503
f 506 515 525
f 509 526 510
f 510 526 521
f 510 521 511
f 511 521 512
f 514 527 525
f 514 525 515
f 517 520 529
f 517 529 530
f 517 530 528
f 522 523 531
f 523 532 533
f 523 533 531
f 524 534 535
f 524 535 536
f 524 536 537
f 524 537 538
f 524 538 539
f 525 527 541
f 525 541 542
f 525 542 540
f 528 530 543
f 530 544 545
f 530 545 543
f 532 546 547
f 532 547 548
f 532 548 549
f 532 549 550
f 532 550 533
f 532 551 552
f 532 552 553
f 532 553 554
f 532 554 555
f 532 555 546
f 534 556 557
f 534 557 535
f 535 557 536
f 536 557 558
f 536 558 537
f 537 558 559
f 537 559 538
f 538 559 560
f 538 560 539
f 540 542 562
f 540 562 561
f 543 545 563
f 544 564 545
f 544 565 564
f 545 564 563
f 546 566 567
f 546 567 547
f 546 555 568
f 546 568 569
f 546 569 566
f 547 567 570
f 547 570 571
f 547 571 549
f 547 549 548
f 549 571 573
f 549 573 574
f 549 574 572
f 551 575 552
f 552 575 553
f 553 576 554
f 553 575 577
f 553 577 578
f 553 578 579
f 553 579 580
f 553 580 581
f 553 581 576
f 554 582 583
f 554 583 584
f 554 584 568
f 554 568 555
f 554 576 582
f 556 585 557
f 557 585 586
f 557 586 587
f 557 587 558
f 558 587 586
f 558 586 588
f 558 588 589
f 558 589 590
f 558 590 559
f 559 590 591
f 559 591 592
f 559 592 560
f 561 562 593
f 562 594 595
f 562 595 596
f 562 596 597
f 562 597 598
f 562 598 599
f 562 599 600
f 562 600 601
f 562 601 593
f 563 564 602
f 564 565 603
f 564 603 604
f 564 604 605
f 564 605 602
f 566 606 567
f 566 569 606
f 567 606 570
f 568 584 607
f 568 607 608
f 568 608 569
f 569 608 609
f 569 609 606
f 570 606 609
f 570 609 573
f 570 573 571
f 572 574 610
f 573 609 574
f 574 611 585
f 574 585 610
f 574 609 611
f 575 612 613
f 575 613 577
f 576 581 582
f 577 613 578
f 578 614 615
f 578 615 579
f 578 613 614
f 579 615 580
f 580 615 616
f 580 616 617
f 580 617 618
f 580 618 581
f 581 618 619
f 581 619 620
f 581 620 621
f 581 621 622
f 581 622 583
f 581 583 582
f 583 623 607
f 583 607 584
f 583 622 624
f 583 624 625
f 583 625 626
f 583 626 627
f 583 627 623
f 585 628 629
f 585 629 586
f 585 611 630
f 585 630 628
f 586 629 588
f 588 629 631
f 588 631 632
f 588 632 633
f 588 633 589
f 589 633 634
f 589 634 635
f 589 635 590
f 590 635 591
f 591 635 636
f 591 636 637
f 591 637 592
f 594 605 595
f 595 638 639
f 595 639 640
f 595 640 641
f 595 641 642
f 595 642 643
f 595 643 644
f 595 644 645
f 595 645 596
f 595 605 638
f 596 645 646
f 596 646 647
f 596 647 597
f 597 647 598
f 598 647 648
f 598 648 649
f 603 650 604
f 604 650 651
f 604 651 652
f 604 652 638
f 604 638 605
f 607 623 627
f 607 627 608
f 608 627 653
f 608 653 609
f 609 653 627
f 609 627 654
f 609 654 655
f 609 655 656
f 609 656 657
f 609 657 658
f 609 658 611
f 611 658 659
f 611 659 630
f 612 614 613
f 612 660 661
f 612 661 614
f 614 661 615
f 615 661 662
f 615 662 663
f 615 663 664
f 615 664 665
f 615 665 666
f 615 666 616
f 616 666 667
f 616 667 668
f 616 668 669
f 616 669 617
f 617 669 668
f 617 668 670
f 617 670 671
f 617 671 672
f 617 672 673
f 617 673 674
f 617 674 618
f 618 674 675
f 618 675 676
f 618 676 619
f 619 676 677
f 619 677 678
f 619 678 620
f 620 678 621
f 621 679 680
f 621 680 681
f 621 681 622
f 621 678 679
f 622 681 682
f 622 682 683
f 622 683 624
f 624 683 684
f 624 684 625
f 625 684 685
f 625 685 626
f 626 686 657
f 626 657 656
f 626 656 655
f 626 655 627
f 626 685 687
f 626 687 686
f 627 655 654
f 628 630 659
f 628 659 629
f 629 659 631
f 631 659 688
f 631 688 632
f 632 688 689
f 632 689 633
f 633 689 690
f 633 690 691
f 633 691 634
f 634 691 692
f 634 692 635
f 635 692 693
f 635 693 694
f 638 652 651
f 638 651 695
f 638 695 640
f 638 640 639
f 643 696 644
f 644 696 697
f 644 697 698
f 644 698 699
f 644 699 700
f 644 700 701
f 644 701 702
f 644 702 645
f 645 702 703
f 645 703 646
f 646 703 648
f 646 648 647
f 648 704 649
f 648 703 704
f 649 704 705
f 650 695 651
f 657 686 658
f 658 686 706
f 658 706 707
f 658 707 659
f 659 707 688
f 660 708 661
f 661 708 663
f 661 663 662
f 663 709 664
f 664 709 665
f 665 709 710
f 665 710 711
f 665 711 666
f 666 711 667
f 667 711 712
f 667 712 713
f 667 713 668
f 668 713 670
f 670 713 714
f 670 714 715
f 670 715 671
f 671 715 716
f 671 716 672
f 672 717 673
f 672 716 718
f 672 718 719
f 672 719 717
f 673 717 674
f 674 717 720
f 674 720 675
f 675 720 721
f 675 721 676
f 676 721 722
f 676 722 723
f 676 723 724
f 676 724 725
f 676 725 726
f 676 726 727
f 676 727 728
f 676 728 677
f 677 728 679
f 677 679 678
f 679 728 727
f 679 727 729
f 679 729 730
f 679 730 680
f 680 731 732
f 680 732 693
f 680 693 733
f 680 733 682
f 680 682 681
f 680 730 731
f 682 733 734
f 682 734 683
f 683 734 735
f 683 735 687
f 683 687 685
f 683 685 684
f 686 736 706
f 686 687 737
f 686 737 736
f 687 735 734
f 687 734 737
f 688 707 706
f 688 706 690
f 688 690 689
f 690 706 691
f 691 737 692
f 691 706 737
f 692 737 733
f 692 733 693
f 693 732 738
f 693 738 739
f 693 739 740
f 693 740 741
f 693 741 694
f 694 741 742
f 699 743 744
f 699 744 745
f 699 745 700
f 700 745 701
f 701 746 747
f 701 747 702
f 701 745 744
f 701 744 748
f 701 748 749
f 701 749 750
f 701 750 746
f 702 747 751
f 702 751 703
f 703 751 752
f 703 752 704
f 704 753 705
f 704 752 753
f 706 736 737
f 710 712 711
f 712 754 714
f 712 714 755
f 712 755 713
f 713 755 714
f 714 754 756
f 714 756 757
f 714 757 715
f 715 757 716
f 717 719 758
f 717 758 720
f 718 759 760
f 718 760 761
f 718 761 762
f 718 762 719
f 719 762 761
f 719 761 758
f 720 758 763
f 720 763 721
f 721 763 722
f 722 763 723
f 723 761 764
f 723 764 765
f 723 765 766
f 723 766 767
f 723 767 768
f 723 768 725
f 723 725 724
f 723 763 761
f 725 769 770
f 725 770 726
f 725 768 731
f 725 731 769
f 726 770 729
f 726 729 727
f 729 770 730
f 730 770 769
f 730 769 731
f 731 768 771
f 731 771 772
f 731 772 732
f 732 772 773
f 732 773 774
f 732 774 738
f 733 737 734
f 738 774 775
f 738 775 739
f 739 775 776
f 739 776 777
f 739 777 778
f 739 778 740
f 740 779 780
f 740 780 741
f 741 780 779
f 741 779 742
f 743 781 782
f 743 782 744
f 744 782 783
f 744 783 748
f 746 784 747
f 746 750 785
f 746 785 786
f 746 786 784
f 747 787 751
f 747 784 788
f 747 788 789
f 747 789 790
f 747 790 787
f 748 783 749
f 749 783 791
f 749 791 792
f 749 792 750
f 750 792 785
f 751 787 793
f 751 793 794
f 751 794 795
f 751 795 796
f 751 796 797
f 751 797 752
f 752 797 753
f 758 761 763
f 759 798 764
f 759 764 761
f 759 761 760
f 759 793 798
f 764 798 765
f 765 798 799
f 765 799 800
f 765 800 801
f 765 801 766
f 766 801 802
f 766 802 803
f 766 803 804
f 766 804 805
f 766 805 767
f 767 806 807
f 767 807 768
f 767 805 806
f 768 807 771
f 771 807 808
f 771 808 809
f 771 809 772
f 772 809 773
f 773 809 810
f 773 810 811
f 773 811 774
f 774 811 775
f 775 811 810
f 775 810 812
f 775 812 813
f 775 813 776
f 776 813 814
f 776 814 815
f 776 815 816
f 776 816 817
f 776 817 777
f 781 817 818
f 781 818 783
f 781 783 782
f 783 819 820
f 783 820 791
f 783 818 819
f 784 786 785
f 784 785 821
f 784 821 788
f 785 788 821
f 785 792 822
f 785 822 788
f 787 790 800
f 787 800 793
f 788 822 823
f 788 823 789
f 789 823 824
f 789 824 800
f 789 800 790
f 791 825 792
f 791 820 826
f 791 826 827
f 791 827 828
f 791 828 829
f 791 829 825
f 792 825 829
f 792 829 822
f 793 800 799
f 793 799 798
f 800 824 801
f 801 824 823
f 801 823 802
f 802 823 830
f 802 830 803
f 803 830 831
f 803 831 804
f 804 832 805
f 804 831 833
f 804 833 832
f 805 832 806
f 806 808 807
f 806 832 834
f 806 834 835
f 806 835 810
f 806 810 809
f 806 809 808
f 810 835 813
f 810 813 812
f 813 835 836
f 813 836 837
f 813 837 838
f 813 838 839
f 813 839 814
f 814 839 840
f 814 840 815
f 815 841 816
f 815 840 819
f 815 819 841
f 816 841 817
f 817 841 842
f 817 842 818
f 818 842 819
f 819 840 820
f 819 842 841
f 820 840 839
f 820 839 826
f 822 829 823
f 823 829 843
f 823 843 828
f 823 828 827
f 823 827 830
f 826 839 838
f 826 838 844
f 826 844 845
f 826 845 833
f 826 833 831
f 826 831 827
f 827 831 830
f 828 843 829
f 832 833 846
f 832 846 836
f 832 836 835
f 832 835 834
f 833 845 847
f 833 847 848
f 833 848 846
f 836 846 848
f 836 848 837
f 837 848 847
f 837 847 849
f 837 849 844
f 837 844 838
f 844 849 847
f 844 847 845

