# https://github.com/mikedh/trimesh
v -0.01453329 0.00323256 0.02902847
v -0.01424791 0.00316765 0.02902847
v -0.01535028 0.00291598 0.02902847
v -0.01424894 0.00229526 0.03250365
v -0.01363594 0.00230593 0.03250365
v -0.01365654 0.00292487 0.02902847
v -0.01543888 0.00274880 0.02902847
v -0.01541621 0.00275502 0.02911965
v -0.01534101 0.00249535 0.03007222
v -0.01519162 0.00231216 0.03083291
v -0.01452608 0.00214141 0.03250365
v -0.01336395 0.00216276 0.03250365
v -0.01320426 0.00205960 0.03250365
v -0.01362460 0.00290353 0.02902847
v -0.01554912 0.00168788 0.02902847
v -0.01555530 0.00168788 0.02907678
v -0.01557384 0.00168788 0.03007222
v -0.01531010 0.00154204 0.03206274
v -0.01525653 0.00147089 0.03250365
v -0.01497527 0.00174746 0.03250365
v -0.01474655 0.00196800 0.03250365
v -0.01279937 0.00234684 0.02902847
v -0.00558348 -0.00328677 0.03250365
v -0.01553469 0.00165053 0.02902847
v -0.01529671 0.00069188 0.03007222
v -0.01541003 0.00069188 0.03106731
v -0.01544712 0.00069188 0.03206274
v -0.01533276 0.00099691 0.03250365
v -0.01230176 0.00196267 0.02902847
v -0.00504877 -0.00373141 0.03250365
v -0.01226879 0.00193688 0.02902847
v -0.01516174 0.00069277 0.02902847
v -0.01512980 -0.00004533 0.03106731
v -0.01475067 -0.00034947 0.02902847
v -0.01389556 -0.00250153 0.02902847
v -0.01516792 -0.00014315 0.03206274
v -0.01536985 0.00069188 0.03250365
v -0.01514423 -0.00008802 0.03250365
v -0.00504877 -0.00382390 0.03250365
v -0.00692590 -0.00461002 0.02931833
v -0.00593685 -0.00368695 0.03137111
v -0.01178251 0.00146378 0.02902847
v -0.01492581 -0.00054333 0.03106731
v -0.01406246 -0.00285725 0.03206274
v -0.01496599 -0.00064026 0.03206274
v -0.01355970 -0.00333568 0.02902847
v -0.01406658 -0.00286703 0.03250365
v -0.00504980 -0.00383012 0.03250365
v -0.00692590 -0.00493817 0.02931833
v -0.00743793 -0.00526720 0.02902847
v -0.00751005 -0.00447841 0.02902847
v -0.01461365 -0.00129833 0.03106731
v -0.01403877 -0.00279855 0.03153713
v -0.01382241 -0.00319340 0.03114998
v -0.01381932 -0.00335524 0.03206274
v -0.01321353 -0.00401865 0.02902847
v -0.01378532 -0.00330189 0.03250365
v -0.00533003 -0.00415293 0.03250365
v -0.00677960 -0.00502532 0.03007222
v -0.00796439 -0.00583901 0.02902847
v -0.01329698 -0.00403199 0.03106731
v -0.01332171 -0.00401154 0.03206274
v -0.01351128 -0.00366383 0.03250365
v -0.01325268 -0.00402932 0.03007222
v -0.01245836 -0.00456022 0.02902847
v -0.00601103 -0.00482879 0.03250365
v -0.00601824 -0.00482879 0.03237981
v -0.00796233 -0.00583279 0.03007222
v -0.00800457 -0.00585235 0.02902847
v -0.01254284 -0.00445973 0.03106731
v -0.01254284 -0.00439571 0.03206274
v -0.01327123 -0.00396440 0.03250365
v -0.01202977 -0.00477899 0.02902847
v -0.00626962 -0.00494350 0.03250365
v -0.00801178 -0.00579988 0.03162558
v -0.00797160 -0.00582301 0.03106731
v -0.00842801 -0.00585235 0.02902847
v -0.01254284 -0.00430322 0.03250365
v -0.01162797 -0.00492394 0.02902847
v -0.01184123 -0.00471140 0.03106731
v -0.01134362 -0.00488392 0.03106731
v -0.01055136 -0.00515782 0.03106731
v -0.00955716 -0.00549931 0.03106731
v -0.01055136 -0.00502888 0.03206274
v -0.01106648 -0.00478788 0.03250365
v -0.00712783 -0.00528944 0.03250365
v -0.00760174 -0.00538548 0.03250365
v -0.00807154 -0.00541749 0.03250365
v -0.00854545 -0.00543350 0.03250365
v -0.00817765 -0.00579988 0.03162558
v -0.00829510 -0.00582301 0.03106731
v -0.00890192 -0.00577587 0.02902847
v -0.01060596 -0.00526276 0.02902847
v -0.00962001 -0.00556511 0.02902847
v -0.00879271 -0.00572252 0.03106731
v -0.00955716 -0.00534368 0.03206274
v -0.00955716 -0.00522274 0.03250365
v -0.00853000 -0.00560424 0.03199947
f 1 2 6
f 1 6 14
f 1 14 22
f 1 22 29
f 1 29 31
f 1 31 42
f 1 42 51
f 1 51 50
f 1 50 60
f 1 60 69
f 1 69 77
f 1 77 92
f 1 92 94
f 1 94 93
f 1 93 79
f 1 79 73
f 1 73 65
f 1 65 56
f 1 56 46
f 1 46 35
f 1 35 34
f 1 34 32
f 1 32 24
f 1 24 15
f 1 15 7
f 1 7 3
f 1 3 4
f 1 4 5
f 1 5 2
f 2 5 6
f 3 7 8
f 3 8 9
f 3 9 10
f 3 10 11
f 3 11 4
f 4 11 21
f 4 21 20
f 4 20 19
f 4 19 28
f 4 28 37
f 4 37 38
f 4 38 47
f 4 47 57
f 4 57 63
f 4 63 72
f 4 72 78
f 4 78 85
f 4 85 97
f 4 97 89
f 4 89 88
f 4 88 87
f 4 87 86
f 4 86 74
f 4 74 66
f 4 66 58
f 4 58 48
f 4 48 39
f 4 39 30
f 4 30 23
f 4 23 13
f 4 13 12
f 4 12 5
f 5 12 6
f 6 12 13
f 6 13 14
f 7 15 16
f 7 16 17
f 7 17 18
f 7 18 9
f 7 9 8
f 9 18 19
f 9 19 10
f 10 19 20
f 10 20 21
f 10 21 11
f 13 22 14
f 13 23 22
f 15 24 16
f 16 24 25
f 16 25 26
f 16 26 27
f 16 27 17
f 17 27 18
f 18 27 19
f 19 27 28
f 22 23 29
f 23 30 31
f 23 31 29
f 24 32 25
f 25 33 26
f 25 32 34
f 25 34 35
f 25 35 33
f 26 33 36
f 26 36 27
f 27 37 28
f 27 36 38
f 27 38 37
f 30 39 49
f 30 49 40
f 30 40 41
f 30 41 42
f 30 42 31
f 33 43 44
f 33 44 45
f 33 45 36
f 33 35 46
f 33 46 43
f 36 47 38
f 36 45 47
f 39 48 49
f 40 49 50
f 40 50 51
f 40 51 42
f 40 42 41
f 43 52 53
f 43 53 44
f 43 46 52
f 44 53 46
f 44 46 54
f 44 54 55
f 44 55 47
f 44 47 45
f 46 56 54
f 46 53 52
f 47 55 57
f 48 58 59
f 48 59 49
f 49 59 60
f 49 60 50
f 54 56 55
f 55 56 61
f 55 61 62
f 55 62 63
f 55 63 57
f 56 64 61
f 56 65 64
f 58 66 67
f 58 67 59
f 59 67 60
f 60 66 68
f 60 68 69
f 60 67 66
f 61 65 62
f 61 64 65
f 62 70 71
f 62 71 72
f 62 72 63
f 62 65 70
f 65 73 70
f 66 74 75
f 66 75 76
f 66 76 68
f 68 76 69
f 69 76 91
f 69 91 77
f 70 73 71
f 71 78 72
f 71 73 79
f 71 79 80
f 71 80 81
f 71 81 82
f 71 82 83
f 71 83 84
f 71 84 85
f 71 85 78
f 74 86 75
f 75 87 88
f 75 88 89
f 75 89 90
f 75 90 91
f 75 91 76
f 75 86 87
f 77 91 92
f 79 93 83
f 79 83 82
f 79 82 81
f 79 81 80
f 83 93 94
f 83 94 92
f 83 92 95
f 83 95 96
f 83 96 84
f 84 96 85
f 85 96 97
f 89 98 90
f 89 97 98
f 90 98 97
f 90 97 96
f 90 96 95
f 90 95 91
f 91 95 92

