# https://github.com/mikedh/trimesh
v -0.00856006 -0.00419398 -0.02473688
v -0.00551222 -0.00621198 -0.02473688
v -0.00856006 0.00033576 -0.02473688
v -0.00856006 -0.00388789 -0.03017595
v -0.00447654 -0.00591974 -0.03017701
v -0.00488698 -0.00650907 -0.02473688
v -0.00790029 0.00028729 -0.02473688
v -0.00856006 0.00003106 -0.02965244
v -0.00856006 -0.00387750 -0.03017701
v -0.00430393 -0.00591974 -0.03017701
v -0.00358499 -0.00673898 -0.02473688
v -0.00458011 -0.00665311 -0.02473688
v -0.00457628 -0.00008459 -0.02473688
v -0.00557578 -0.00002227 -0.02566993
v -0.00657036 -0.00002642 -0.02766012
v -0.00756603 -0.00005412 -0.02965084
v -0.00856006 -0.00007974 -0.03017701
v -0.00333018 -0.00672305 -0.02473688
v -0.00396747 -0.00589619 -0.03017701
v -0.00375650 -0.00047379 -0.02473688
v -0.00557578 -0.00010191 -0.02666529
v -0.00657036 -0.00014415 -0.02865548
v -0.00714792 -0.00034013 -0.03017701
v -0.00756603 -0.00019401 -0.03017701
v -0.00296194 -0.00654785 -0.02473688
v -0.00388309 -0.00529786 -0.03017701
v -0.00303427 -0.00583386 -0.02728520
v -0.00296194 -0.00590727 -0.02692039
v -0.00321894 -0.00120093 -0.02473688
v -0.00394610 -0.00061714 -0.02541643
v -0.00664872 -0.00053265 -0.03017701
v -0.00296194 -0.00186644 -0.02473688
v -0.00396912 -0.00480686 -0.03017701
v -0.00305619 -0.00462334 -0.02727401
v -0.00296194 -0.00486157 -0.02705300
v -0.00296194 -0.00527916 -0.02715418
v -0.00458669 -0.00357903 -0.03017701
v -0.00476533 -0.00327294 -0.03017701
v -0.00586347 -0.00140107 -0.03017701
v -0.00607444 -0.00107351 -0.03017701
v -0.00320743 -0.00122655 -0.02473688
v -0.00400090 -0.00462889 -0.03017701
v -0.00617691 -0.00093223 -0.03017701
v -0.00631829 -0.00080619 -0.03017701
v -0.00296194 -0.00204511 -0.02493180
v -0.00310661 -0.00184358 -0.02513577
v -0.00312688 -0.00395922 -0.02704980
v -0.00296194 -0.00427709 -0.02670896
v -0.00296194 -0.00430825 -0.02673080
v -0.00296194 -0.00245854 -0.02532004
v -0.00302276 -0.00354510 -0.02638623
v -0.00296194 -0.00340175 -0.02607415
f 1 2 6
f 1 6 12
f 1 12 11
f 1 11 18
f 1 18 25
f 1 25 32
f 1 32 41
f 1 41 29
f 1 29 20
f 1 20 13
f 1 13 7
f 1 7 3
f 1 3 8
f 1 8 17
f 1 17 9
f 1 9 4
f 1 4 2
f 2 5 6
f 2 4 5
f 3 7 8
f 4 9 5
f 5 10 11
f 5 11 12
f 5 12 6
f 5 9 17
f 5 17 24
f 5 24 23
f 5 23 31
f 5 31 44
f 5 44 43
f 5 43 40
f 5 40 39
f 5 39 38
f 5 38 37
f 5 37 42
f 5 42 33
f 5 33 26
f 5 26 19
f 5 19 10
f 7 13 14
f 7 14 15
f 7 15 16
f 7 16 8
f 8 16 17
f 10 18 11
f 10 19 18
f 13 20 21
f 13 21 15
f 13 15 14
f 15 21 16
f 16 21 22
f 16 22 23
f 16 23 24
f 16 24 17
f 18 19 25
f 19 26 27
f 19 27 28
f 19 28 25
f 20 29 30
f 20 30 31
f 20 31 22
f 20 22 21
f 22 31 23
f 25 28 36
f 25 36 35
f 25 35 49
f 25 49 48
f 25 48 52
f 25 52 50
f 25 50 45
f 25 45 32
f 26 33 34
f 26 34 35
f 26 35 36
f 26 36 27
f 27 36 28
f 29 37 38
f 29 38 39
f 29 39 40
f 29 40 30
f 29 41 42
f 29 42 37
f 30 40 43
f 30 43 44
f 30 44 31
f 32 45 46
f 32 46 41
f 33 42 34
f 34 42 47
f 34 47 48
f 34 48 49
f 34 49 35
f 41 46 42
f 42 46 50
f 42 50 47
f 45 50 46
f 47 50 51
f 47 51 52
f 47 52 48
f 50 52 51

