# https://github.com/mikedh/trimesh
v 0.01400488 0.01891460 -0.00210112
v 0.01405473 0.01890785 -0.00210112
v 0.01399865 0.01890785 -0.00209605
v 0.01408276 0.02259182 -0.00210112
v 0.04018262 0.01890785 -0.00210112
v 0.00835998 0.01890785 0.00673427
v 0.01416688 0.02557642 -0.00210112
v 0.04018262 0.02319279 -0.00210112
v 0.04018262 0.01890785 0.01032016
v 0.00835687 0.01890785 0.00696505
v 0.00835687 0.01896862 0.00681796
v 0.00835687 0.02363460 0.00790336
v 0.01436626 0.02612820 -0.00210112
v 0.04018262 0.02321015 -0.00202758
v 0.03484926 0.02615328 -0.00210112
v 0.03765612 0.01890785 0.01348001
v 0.04018262 0.02223297 0.00786786
v 0.00835687 0.01890785 0.02100683
v 0.00835687 0.02394811 0.00813921
v 0.01446594 0.02637418 -0.00210112
v 0.04018262 0.02322945 -0.00193121
v 0.03444115 0.02635586 -0.00210112
v 0.03423866 0.02644460 -0.00177905
v 0.03483991 0.02614556 -0.00177905
v 0.04018262 0.02334135 -0.00075451
v 0.04018262 0.02334038 -0.00078494
v 0.04018262 0.02323717 -0.00187034
v 0.03687730 0.01890785 0.01444876
v 0.04018262 0.02225709 0.00784504
v 0.03580565 0.02018021 0.01472264
v 0.03650036 0.01960528 0.01435492
v 0.03668104 0.01903807 0.01458570
v 0.03659693 0.01890785 0.01478858
v 0.00923849 0.01890785 0.02149881
v 0.00835687 0.01915287 0.02067715
v 0.00835687 0.02424811 0.00917136
v 0.00858740 0.02425583 0.00817471
v 0.01076810 0.02515584 0.00452796
v 0.01532888 0.02681599 -0.00210112
v 0.01370270 0.02618704 -0.00058713
v 0.01354382 0.02625071 0.00021170
v 0.03423866 0.02643881 -0.00210112
v 0.03275890 0.02707644 -0.00034368
v 0.03275890 0.02707644 -0.00024224
v 0.04018262 0.02281658 0.00618396
v 0.04018262 0.02327671 0.00024214
v 0.03378071 0.02311755 0.01269131
v 0.03458134 0.02198795 0.01349776
v 0.03471218 0.02108215 0.01462120
v 0.03532901 0.02093263 0.01423066
v 0.04018262 0.02259085 0.00720597
v 0.03283990 0.02514040 0.01075635
v 0.03183366 0.02513751 0.01173271
v 0.03516702 0.02036639 0.01509036
v 0.03479007 0.02014934 0.01568125
v 0.03545362 0.01977313 0.01538707
v 0.03573400 0.01910946 0.01563813
v 0.03594895 0.01950689 0.01509036
v 0.03630098 0.01890785 0.01514362
v 0.01028835 0.01890785 0.02208462
v 0.00987713 0.01909788 0.02159771
v 0.00835687 0.02022266 0.01922403
v 0.00835687 0.02419023 0.01016547
v 0.00845967 0.02430309 0.00917136
v 0.00992386 0.02500825 0.00717807
v 0.01065595 0.02521179 0.00518732
v 0.01532888 0.02684686 -0.00177905
v 0.01559679 0.02689027 -0.00210112
v 0.01433510 0.02663078 0.00021170
v 0.01284600 0.02606839 0.00177134
v 0.03356264 0.02667322 -0.00210112
v 0.03324177 0.02675618 -0.00210112
v 0.03259690 0.02703979 -0.00100811
v 0.02981184 0.02808546 0.00255242
v 0.04018262 0.02281369 0.00621439
v 0.02980872 0.02808642 0.00319656
v 0.02977134 0.02807292 0.00373927
v 0.03367479 0.02105514 0.01557981
v 0.03432277 0.02089115 0.01520448
v 0.03227603 0.02378122 0.01316554
v 0.03133521 0.02288796 0.01520194
v 0.03147540 0.02191078 0.01638879
v 0.03093957 0.02122010 0.01779119
v 0.04018262 0.02260050 0.00717807
v 0.03156886 0.02599701 0.01016547
v 0.03088661 0.02612337 0.01077918
v 0.03123241 0.02580022 0.01112914
v 0.03219815 0.02530150 0.01111393
v 0.03117322 0.02526291 0.01210043
v 0.03079004 0.02509892 0.01268117
v 0.03092711 0.02419795 0.01380208
v 0.03068412 0.02304134 0.01557473
v 0.03263740 0.02102717 0.01653841
v 0.03160313 0.02099437 0.01749702
v 0.03373398 0.02009629 0.01662717
v 0.03516702 0.01950689 0.01583594
v 0.03056574 0.02095675 0.01845562
v 0.02886479 0.02116511 0.01970840
v 0.02952835 0.02091334 0.01941423
v 0.02847538 0.02086318 0.02037283
v 0.02991153 0.02024967 0.01974644
v 0.03580253 0.01890785 0.01571168
v 0.03552216 0.01890785 0.01596274
v 0.01104225 0.01890785 0.02249292
v 0.01113882 0.01898984 0.02244473
v 0.01234443 0.01976638 0.02206180
v 0.01289272 0.02107733 0.02058585
v 0.00835687 0.02211143 0.01665760
v 0.00835687 0.02411885 0.01115958
v 0.00849706 0.02425776 0.01016547
v 0.00935688 0.02472368 0.00917136
v 0.00994566 0.02504008 0.00817471
v 0.01042230 0.02525520 0.00717807
v 0.01051265 0.02523880 0.00618396
v 0.01524476 0.02695200 0.00021170
v 0.01541611 0.02694043 -0.00073168
v 0.01580552 0.02707451 -0.00036650
v 0.01589586 0.02705329 -0.00102840
v 0.01599866 0.02702918 -0.00177905
v 0.01604851 0.02701374 -0.00210112
v 0.01433510 0.02666647 0.00120581
v 0.01540676 0.02724043 0.00518732
v 0.01545037 0.02721728 0.00419321
v 0.01506719 0.02698769 0.00220246
v 0.01514819 0.02697033 0.00120581
v 0.01281796 0.02608383 0.00243323
v 0.03253148 0.02691245 -0.00210112
v 0.03125110 0.02748256 0.00021170
v 0.03025732 0.02782115 0.00120581
v 0.02963427 0.02804012 0.00188799
v 0.02826666 0.02849543 0.00319656
v 0.02826666 0.02859961 0.00419321
v 0.02905794 0.02822823 0.00518732
v 0.02890841 0.02814430 0.00618396
v 0.02881183 0.02809028 0.00674949
v 0.02826666 0.02858225 0.00518732
v 0.03043801 0.02188377 0.01734739
v 0.03107041 0.02622949 0.01016547
v 0.02984611 0.02710924 0.00877828
v 0.03025732 0.02650441 0.01016547
v 0.03025732 0.02620151 0.01098713
v 0.02974019 0.02607032 0.01164395
v 0.03025732 0.02599411 0.01148418
v 0.02872149 0.02207574 0.01860017
v 0.03025732 0.02561308 0.01215368
v 0.03025732 0.02519635 0.01283586
v 0.02781183 0.02112170 0.02064925
v 0.02926043 0.02190210 0.01836686
v 0.02977446 0.02210371 0.01764157
v 0.03430408 0.01970078 0.01642936
v 0.02885545 0.02019950 0.02068729
v 0.03162805 0.01995834 0.01851902
v 0.03420751 0.01890785 0.01708111
v 0.03057508 0.01988889 0.01946495
v 0.03124175 0.01959178 0.01911244
v 0.03149098 0.01890785 0.01939140
v 0.01163103 0.01890785 0.02275666
v 0.01180238 0.01912586 0.02262733
v 0.01437872 0.02058150 0.02208209
v 0.01481797 0.02110434 0.02161800
v 0.00992386 0.02206512 0.01759085
v 0.00866528 0.02217413 0.01674129
v 0.00835687 0.02242493 0.01621381
v 0.00835687 0.02403107 0.01215368
v 0.00935688 0.02462722 0.01016547
v 0.01005158 0.02500150 0.00917136
v 0.01134754 0.02560729 0.00817471
v 0.01044411 0.02524266 0.00817471
v 0.01263104 0.02615907 0.00717807
v 0.01213571 0.02595746 0.00717807
v 0.01134754 0.02563623 0.00717807
v 0.01536626 0.02725972 0.00618396
v 0.01333821 0.02642435 0.00618396
v 0.01220736 0.02592466 0.00518732
v 0.01550022 0.02718931 0.00319656
v 0.01556564 0.02715747 0.00220246
v 0.01564352 0.02712564 0.00120581
v 0.01574321 0.02709381 0.00021170
v 0.01632577 0.02742468 0.00319656
v 0.01626658 0.02715940 -0.00073168
v 0.01649711 0.02714590 -0.00177905
v 0.01676191 0.02718641 -0.00210112
v 0.01490831 0.02703786 0.00518732
v 0.01632577 0.02757999 0.00618396
v 0.01632577 0.02753947 0.00518732
v 0.02627599 0.02817035 -0.00210112
v 0.02635699 0.02818868 -0.00185006
v 0.02696758 0.02810475 -0.00156603
v 0.02627599 0.02835074 -0.00078494
v 0.02726977 0.02855910 0.00220246
v 0.02726977 0.02867100 0.00319656
v 0.02726977 0.02875010 0.00419321
v 0.02726977 0.02876167 0.00518732
v 0.02826666 0.02839318 0.00618396
v 0.02826666 0.02816070 0.00693715
v 0.02726977 0.02859383 0.00618396
v 0.02926043 0.02718352 0.00897355
v 0.02926043 0.02673399 0.01016547
v 0.02870280 0.02705715 0.00963291
v 0.02832896 0.02693946 0.01016039
v 0.02680247 0.02707644 0.01068027
v 0.02527910 0.02647547 0.01315033
v 0.02431959 0.02627868 0.01420530
v 0.02277441 0.02606935 0.01562546
v 0.02923862 0.02533912 0.01317822
v 0.02826666 0.02523301 0.01389084
v 0.02829470 0.02382752 0.01610729
v 0.02748784 0.02199470 0.01946241
v 0.02682428 0.02211143 0.01964754
v 0.02627599 0.02220596 0.01975912
v 0.02726977 0.02121141 0.02074816
v 0.02730092 0.02056510 0.02129593
v 0.02765295 0.02000464 0.02157235
v 0.02819189 0.02055932 0.02085467
v 0.02826977 0.01964580 0.02137708
v 0.02921682 0.01953487 0.02082170
v 0.02979938 0.01915576 0.02064418
v 0.02951900 0.01981943 0.02041087
v 0.03085546 0.01922522 0.01970333
v 0.03102057 0.01890785 0.01978194
v 0.01183664 0.01890785 0.02283274
v 0.01234443 0.01923679 0.02272877
v 0.01460613 0.02019565 0.02268819
v 0.01394258 0.02005384 0.02254871
v 0.01532888 0.02082073 0.02225200
v 0.01532888 0.02119019 0.02175494
v 0.01185222 0.02209213 0.01862046
v 0.00835687 0.02295838 0.01544540
v 0.00835687 0.02400598 0.01233881
v 0.00877743 0.02411595 0.01276739
v 0.00867463 0.02415647 0.01215368
v 0.01017931 0.02495134 0.01016547
v 0.01240363 0.02592273 0.00921954
v 0.01268089 0.02613688 0.00817471
v 0.01218555 0.02594106 0.00817471
v 0.01486470 0.02705715 0.00717807
v 0.01333821 0.02644364 0.00717807
v 0.01536315 0.02724815 0.00717807
v 0.01632577 0.02748449 0.00419321
v 0.01731955 0.02765619 0.00319656
v 0.01731955 0.02752886 0.00120581
v 0.01931021 0.02780089 -0.00177905
v 0.01931021 0.02777967 -0.00210112
v 0.01632577 0.02754043 0.00717807
v 0.01731955 0.02776713 0.00618396
v 0.01731955 0.02774398 0.00518732
v 0.01731955 0.02770732 0.00419321
v 0.02527910 0.02836231 -0.00210112
v 0.02627599 0.02848386 0.00021170
v 0.02527910 0.02840186 -0.00177905
v 0.02627599 0.02858514 0.00120581
v 0.02527910 0.02849254 -0.00078494
v 0.02627599 0.02865653 0.00220246
v 0.02627599 0.02870283 0.00319656
v 0.02627599 0.02871634 0.00419321
v 0.02627599 0.02870476 0.00518732
v 0.02627599 0.02858804 0.00618396
v 0.02826666 0.02797742 0.00743421
v 0.02731027 0.02824848 0.00724401
v 0.02700497 0.02811536 0.00780953
v 0.02766852 0.02804301 0.00761933
v 0.02627599 0.02835749 0.00717807
v 0.02527910 0.02803240 0.00851707
v 0.02627599 0.02814720 0.00799212
v 0.02627599 0.02800153 0.00848918
v 0.02428532 0.02669252 0.01315033
v 0.02211085 0.02614556 0.01578776
v 0.02238500 0.02587546 0.01612505
v 0.02329155 0.02516741 0.01676158
v 0.02329155 0.02556967 0.01613519
v 0.02329155 0.02652370 0.01414444
v 0.02728846 0.02538350 0.01419769
v 0.02379311 0.02507963 0.01663478
v 0.02720123 0.02230725 0.01912766
v 0.02527910 0.02319472 0.01875994
v 0.02329155 0.02482979 0.01725863
v 0.02229777 0.02533140 0.01694163
v 0.02428532 0.02333363 0.01890956
v 0.02527910 0.02233136 0.01988846
v 0.02627599 0.02132331 0.02086481
v 0.02627599 0.02080723 0.02136187
v 0.02698939 0.02021012 0.02167633
v 0.02754391 0.01890785 0.02199333
v 0.02793955 0.01934097 0.02169408
v 0.02860311 0.01890785 0.02152163
v 0.02562178 0.01901010 0.02256900
v 0.02582427 0.01890785 0.02254617
v 0.02730092 0.01964580 0.02181581
v 0.02727911 0.01890785 0.02208969
v 0.02954704 0.01890785 0.02092314
v 0.02989284 0.01890785 0.02070251
v 0.03040063 0.01890785 0.02029168
v 0.01281796 0.01890785 0.02310156
v 0.01532888 0.02032394 0.02277188
v 0.01632577 0.02095482 0.02245234
v 0.01333821 0.01890785 0.02322582
v 0.01632577 0.02134261 0.02195529
v 0.01627281 0.02187798 0.02108544
v 0.01532888 0.02158666 0.02111334
v 0.01387715 0.02208249 0.01959935
v 0.01098617 0.02305195 0.01656884
v 0.00962168 0.02315324 0.01574718
v 0.00895812 0.02306063 0.01558995
v 0.00835687 0.02326417 0.01494581
v 0.00835687 0.02388444 0.01311990
v 0.00835687 0.02387479 0.01317062
v 0.00835687 0.02361241 0.01414444
v 0.00836310 0.02361434 0.01414444
v 0.00910454 0.02402528 0.01343182
v 0.01353759 0.02615135 0.00992455
v 0.01287403 0.02606550 0.00958219
v 0.01333821 0.02639540 0.00817471
v 0.01433510 0.02676486 0.00817471
v 0.01508900 0.02700506 0.00817471
v 0.01931021 0.02786263 -0.00078494
v 0.01963732 0.02785491 -0.00210112
v 0.01632577 0.02734558 0.00817471
v 0.01731955 0.02750764 0.00817471
v 0.01731955 0.02769960 0.00717807
v 0.01558745 0.02715265 0.00817471
v 0.01831644 0.02787710 0.00618396
v 0.01831644 0.02787324 0.00518732
v 0.02007657 0.02803530 0.00021170
v 0.02069340 0.02808450 -0.00177905
v 0.02071521 0.02808160 -0.00210112
v 0.02428532 0.02843755 -0.00210112
v 0.02527910 0.02855910 0.00021170
v 0.02428532 0.02845588 -0.00177905
v 0.02527910 0.02859479 0.00120581
v 0.02527910 0.02861023 0.00419321
v 0.02428532 0.02850894 0.00518732
v 0.02527910 0.02861119 0.00518732
v 0.02428532 0.02848000 -0.00078494
v 0.02329155 0.02837003 -0.00177905
v 0.02329155 0.02837485 -0.00078494
v 0.02527910 0.02851087 0.00618396
v 0.02070897 0.02807196 0.00671398
v 0.02527910 0.02813659 0.00802002
v 0.02130088 0.02809414 0.00682050
v 0.02428532 0.02697515 0.01238700
v 0.02490215 0.02709574 0.01172510
v 0.02329155 0.02703111 0.01249604
v 0.02527910 0.02786070 0.00917136
v 0.02229777 0.02685650 0.01315033
v 0.02229777 0.02661824 0.01414444
v 0.02329155 0.02684686 0.01315033
v 0.02130088 0.02635489 0.01514108
v 0.02130088 0.02615424 0.01581312
v 0.02130088 0.02590537 0.01631271
v 0.02130088 0.02540761 0.01703039
v 0.02229777 0.02492625 0.01744122
v 0.02229777 0.02442850 0.01800929
v 0.02428532 0.02097894 0.02150388
v 0.02527910 0.02089597 0.02143287
v 0.02527910 0.02188763 0.02038805
v 0.02527910 0.02138987 0.02093582
v 0.02278687 0.02109759 0.02160786
v 0.02627599 0.02030947 0.02174734
v 0.02495822 0.01917409 0.02264761
v 0.02812959 0.01890785 0.02176509
v 0.02552832 0.01890785 0.02263493
v 0.02464047 0.01890785 0.02284542
v 0.02658440 0.01890785 0.02231286
v 0.01532888 0.01960528 0.02320553
v 0.01632577 0.02045706 0.02284542
v 0.01355005 0.01890785 0.02327400
v 0.01731955 0.02096061 0.02248785
v 0.01731955 0.02141302 0.02199079
v 0.01731955 0.02191078 0.02135172
v 0.01731955 0.02226673 0.02085467
v 0.01736627 0.02278957 0.02004315
v 0.01656876 0.02216448 0.02073548
v 0.01590521 0.02207284 0.02057824
v 0.01334133 0.02282623 0.01807269
v 0.01132885 0.02336450 0.01619605
v 0.01334133 0.02334617 0.01718255
v 0.01333821 0.02416515 0.01577761
v 0.01084598 0.02408412 0.01464403
v 0.01666222 0.02512015 0.01571422
v 0.00976809 0.02410438 0.01371585
v 0.01035377 0.02441692 0.01315033
v 0.01164038 0.02512787 0.01181893
v 0.01234443 0.02549636 0.01115958
v 0.01580552 0.02707451 0.00868952
v 0.02025103 0.02798707 -0.00210112
v 0.01632577 0.02713721 0.00889494
v 0.01755008 0.02712950 0.00988144
v 0.01870896 0.02708513 0.01073860
v 0.01831644 0.02738995 0.00917136
v 0.01831644 0.02759542 0.00817471
v 0.01831644 0.02778932 0.00717807
v 0.01931021 0.02797646 0.00618396
v 0.02046287 0.02810186 0.00518732
v 0.02130088 0.02818192 0.00319656
v 0.02162175 0.02819061 -0.00210112
v 0.02130088 0.02815781 -0.00177905
v 0.02127596 0.02814913 -0.00210112
v 0.02329155 0.02836810 -0.00210112
v 0.02261865 0.02829672 -0.00210112
v 0.01931021 0.02787131 0.00717807
v 0.02428532 0.02782597 0.00917136
v 0.02130088 0.02657869 0.01414444
v 0.02030710 0.02670409 0.01315033
v 0.02030710 0.02646679 0.01414444
v 0.02065602 0.02610987 0.01572436
v 0.02031645 0.02585617 0.01608700
v 0.02030710 0.02533719 0.01701011
v 0.02030710 0.02499957 0.01750716
v 0.02130088 0.02498992 0.01752745
v 0.01961551 0.02411692 0.01866104
v 0.02007969 0.02411692 0.01866104
v 0.02074324 0.02407640 0.01861539
v 0.02030710 0.02315517 0.01969318
v 0.02131023 0.02346675 0.01920881
v 0.02329155 0.02296417 0.01948270
v 0.02527910 0.02039822 0.02181834
v 0.01931021 0.02226963 0.02080902
v 0.02130088 0.02168988 0.02116659
v 0.02233515 0.02160113 0.02111841
v 0.01831644 0.02188088 0.02137708
v 0.01831644 0.02138408 0.02192232
v 0.02428532 0.01975673 0.02238133
v 0.02428532 0.01925898 0.02270341
v 0.01831644 0.02037024 0.02277948
v 0.01931021 0.02027089 0.02271355
v 0.02084916 0.02011269 0.02261211
v 0.02229777 0.01996220 0.02251574
v 0.02379311 0.01890785 0.02299251
v 0.01442233 0.01890785 0.02343631
v 0.01532888 0.01898888 0.02353775
v 0.01659368 0.01917409 0.02363665
v 0.01628527 0.01954548 0.02338559
v 0.01731955 0.01968053 0.02334247
v 0.01731955 0.02046381 0.02284542
v 0.01831644 0.02231786 0.02087749
v 0.01831644 0.02318314 0.01973883
v 0.01895195 0.02406193 0.01858749
v 0.01773076 0.02311369 0.01966022
v 0.01931021 0.02490889 0.01733725
v 0.01632577 0.02321015 0.01883095
v 0.01523230 0.02442368 0.01623409
v 0.01632888 0.02481532 0.01608193
v 0.01341609 0.02487899 0.01406328
v 0.01134754 0.02435615 0.01414444
v 0.01045034 0.02415743 0.01408611
v 0.01999246 0.02603077 0.01549105
v 0.01931021 0.02519925 0.01683766
v 0.01313572 0.02500825 0.01341153
v 0.01205783 0.02502850 0.01248336
v 0.01541611 0.02686326 0.00908006
v 0.01891145 0.02605103 0.01456288
v 0.01926971 0.02624685 0.01419769
v 0.01688652 0.02705426 0.00961769
v 0.01726036 0.02697033 0.01019336
v 0.02031645 0.02620248 0.01515123
v 0.01931021 0.02700602 0.01135992
v 0.02146599 0.01890785 0.02330697
v 0.02229777 0.01890785 0.02319539
v 0.01831332 0.01952618 0.02332979
v 0.01532888 0.01890785 0.02358086
v 0.01608589 0.01890785 0.02370005
v 0.01642546 0.01890785 0.02375331
v 0.01731955 0.01890785 0.02380656
v 0.01731955 0.01918277 0.02364426
v 0.01797687 0.01914129 0.02362143
v 0.01802672 0.02502175 0.01653334
v 0.01532888 0.02651502 0.01016547
v 0.01831332 0.01890785 0.02372795
v 0.01815133 0.01890785 0.02374823
f 1 2 3
f 1 3 4
f 1 4 7
f 1 7 13
f 1 13 20
f 1 20 39
f 1 39 68
f 1 68 120
f 1 120 182
f 1 182 243
f 1 243 316
f 1 316 385
f 1 385 325
f 1 325 397
f 1 397 395
f 1 395 399
f 1 399 398
f 1 398 326
f 1 326 248
f 1 248 186
f 1 186 127
f 1 127 72
f 1 72 71
f 1 71 42
f 1 42 22
f 1 22 15
f 1 15 8
f 1 8 5
f 1 5 2
f 2 5 9
f 2 9 16
f 2 16 28
f 2 28 33
f 2 33 59
f 2 59 102
f 2 102 103
f 2 103 153
f 2 153 156
f 2 156 220
f 2 220 292
f 2 292 291
f 2 291 290
f 2 290 285
f 2 285 360
f 2 360 283
f 2 283 289
f 2 289 363
f 2 363 287
f 2 287 361
f 2 361 362
f 2 362 428
f 2 428 458
f 2 458 457
f 2 457 468
f 2 468 469
f 2 469 463
f 2 463 462
f 2 462 461
f 2 461 460
f 2 460 429
f 2 429 366
f 2 366 296
f 2 296 293
f 2 293 221
f 2 221 157
f 2 157 104
f 2 104 60
f 2 60 34
f 2 34 18
f 2 18 10
f 2 10 6
f 2 6 3
f 3 6 4
f 4 6 7
f 5 8 14
f 5 14 21
f 5 21 27
f 5 27 26
f 5 26 25
f 5 25 46
f 5 46 45
f 5 45 75
f 5 75 84
f 5 84 51
f 5 51 29
f 5 29 17
f 5 17 9
f 6 10 11
f 6 11 12
f 6 12 7
f 7 12 13
f 8 15 14
f 9 17 16
f 10 18 35
f 10 35 62
f 10 62 108
f 10 108 163
f 10 163 228
f 10 228 304
f 10 304 307
f 10 307 306
f 10 306 305
f 10 305 229
f 10 229 164
f 10 164 109
f 10 109 63
f 10 63 36
f 10 36 19
f 10 19 12
f 10 12 11
f 12 19 13
f 13 19 20
f 14 15 21
f 15 22 23
f 15 23 24
f 15 24 25
f 15 25 26
f 15 26 27
f 15 27 21
f 16 17 28
f 17 29 30
f 17 30 31
f 17 31 32
f 17 32 33
f 17 33 28
f 18 34 35
f 19 36 37
f 19 37 38
f 19 38 20
f 20 38 40
f 20 40 41
f 20 41 39
f 22 42 23
f 23 42 43
f 23 43 44
f 23 44 24
f 24 44 45
f 24 45 46
f 24 46 25
f 29 47 48
f 29 48 49
f 29 49 50
f 29 50 30
f 29 51 52
f 29 52 53
f 29 53 47
f 30 50 54
f 30 54 55
f 30 55 56
f 30 56 57
f 30 57 58
f 30 58 31
f 31 58 59
f 31 59 32
f 32 59 33
f 34 60 35
f 35 60 61
f 35 61 62
f 36 63 64
f 36 64 65
f 36 65 66
f 36 66 37
f 37 66 38
f 38 66 41
f 38 41 40
f 39 67 68
f 39 41 69
f 39 69 67
f 41 66 70
f 41 70 69
f 42 71 43
f 43 71 72
f 43 72 73
f 43 73 74
f 43 74 44
f 44 75 45
f 44 74 76
f 44 76 77
f 44 77 75
f 47 53 48
f 48 53 49
f 49 78 79
f 49 79 54
f 49 54 50
f 49 53 80
f 49 80 81
f 49 81 82
f 49 82 83
f 49 83 78
f 51 84 52
f 52 84 85
f 52 85 86
f 52 86 87
f 52 87 88
f 52 88 53
f 53 88 87
f 53 87 89
f 53 89 90
f 53 90 91
f 53 91 92
f 53 92 80
f 54 79 93
f 54 93 94
f 54 94 55
f 55 95 96
f 55 96 56
f 55 94 97
f 55 97 98
f 55 98 99
f 55 99 100
f 55 100 101
f 55 101 95
f 56 96 57
f 57 102 59
f 57 59 58
f 57 96 103
f 57 103 102
f 60 62 61
f 60 104 105
f 60 105 106
f 60 106 107
f 60 107 62
f 62 107 108
f 63 109 110
f 63 110 64
f 64 110 111
f 64 111 112
f 64 112 65
f 65 112 113
f 65 113 114
f 65 114 66
f 66 114 70
f 67 115 116
f 67 116 117
f 67 117 118
f 67 118 119
f 67 119 120
f 67 120 68
f 67 69 115
f 69 121 122
f 69 122 123
f 69 123 124
f 69 124 125
f 69 125 115
f 69 70 126
f 69 126 121
f 70 114 113
f 70 113 126
f 72 127 73
f 73 127 128
f 73 128 74
f 74 128 129
f 74 129 130
f 74 130 131
f 74 131 132
f 74 132 76
f 75 77 133
f 75 133 134
f 75 134 135
f 75 135 84
f 76 132 136
f 76 136 77
f 77 136 133
f 78 93 79
f 78 83 98
f 78 98 93
f 80 92 81
f 81 92 137
f 81 137 82
f 82 137 83
f 83 137 98
f 84 135 85
f 85 135 138
f 85 138 86
f 86 138 139
f 86 139 140
f 86 140 141
f 86 141 142
f 86 142 143
f 86 143 87
f 87 143 90
f 87 90 89
f 90 144 91
f 90 143 145
f 90 145 146
f 90 146 147
f 90 147 144
f 91 144 148
f 91 148 149
f 91 149 92
f 92 149 137
f 93 98 94
f 94 98 97
f 95 150 96
f 95 101 151
f 95 151 152
f 95 152 150
f 96 153 103
f 96 150 152
f 96 152 154
f 96 154 155
f 96 155 156
f 96 156 153
f 98 100 99
f 98 137 149
f 98 149 148
f 98 148 144
f 98 144 147
f 98 147 100
f 100 147 151
f 100 151 101
f 104 157 158
f 104 158 105
f 105 158 106
f 106 158 159
f 106 159 160
f 106 160 107
f 107 161 108
f 107 160 161
f 108 161 162
f 108 162 163
f 109 164 111
f 109 111 110
f 111 164 165
f 111 165 166
f 111 166 167
f 111 167 168
f 111 168 112
f 112 168 169
f 112 169 170
f 112 170 171
f 112 171 113
f 113 171 172
f 113 172 173
f 113 173 174
f 113 174 126
f 115 125 175
f 115 175 176
f 115 176 177
f 115 177 178
f 115 178 116
f 116 178 117
f 117 178 179
f 117 179 180
f 117 180 118
f 118 180 119
f 119 180 181
f 119 181 182
f 119 182 120
f 121 183 172
f 121 172 122
f 121 126 183
f 122 172 184
f 122 184 123
f 123 175 124
f 123 184 185
f 123 185 175
f 124 175 125
f 126 174 173
f 126 173 183
f 127 186 187
f 127 187 188
f 127 188 131
f 127 131 130
f 127 130 129
f 127 129 128
f 131 188 187
f 131 187 189
f 131 189 190
f 131 190 191
f 131 191 132
f 132 191 192
f 132 192 193
f 132 193 136
f 133 136 134
f 134 136 135
f 135 136 194
f 135 194 195
f 135 195 139
f 135 139 138
f 136 193 196
f 136 196 194
f 139 195 197
f 139 197 140
f 140 197 141
f 141 197 142
f 142 197 198
f 142 198 199
f 142 199 200
f 142 200 201
f 142 201 202
f 142 202 203
f 142 203 204
f 142 204 143
f 143 204 145
f 145 205 146
f 145 204 205
f 146 205 206
f 146 206 207
f 146 207 208
f 146 208 147
f 147 208 209
f 147 209 210
f 147 210 211
f 147 211 212
f 147 212 213
f 147 213 214
f 147 214 151
f 151 214 213
f 151 213 215
f 151 215 216
f 151 216 217
f 151 217 218
f 151 218 154
f 151 154 152
f 154 219 155
f 154 218 219
f 155 219 156
f 156 219 217
f 156 217 220
f 157 221 158
f 158 221 222
f 158 222 223
f 158 223 224
f 158 224 159
f 159 225 160
f 159 224 225
f 160 225 226
f 160 226 227
f 160 227 161
f 161 227 162
f 162 227 163
f 163 227 228
f 164 229 230
f 164 230 231
f 164 231 165
f 165 231 232
f 165 232 166
f 166 232 233
f 166 233 234
f 166 234 235
f 166 235 167
f 167 235 236
f 167 236 237
f 167 237 169
f 167 169 168
f 169 237 172
f 169 172 170
f 170 172 171
f 172 236 238
f 172 238 184
f 172 183 173
f 172 237 236
f 175 185 176
f 176 185 177
f 177 185 239
f 177 239 178
f 178 239 179
f 179 239 240
f 179 240 241
f 179 241 180
f 180 241 181
f 181 241 242
f 181 242 182
f 182 242 243
f 184 244 245
f 184 245 246
f 184 246 247
f 184 247 185
f 184 238 244
f 185 247 240
f 185 240 239
f 186 248 189
f 186 189 187
f 189 248 249
f 189 249 190
f 190 249 191
f 191 249 250
f 191 250 251
f 191 251 192
f 192 251 252
f 192 252 253
f 192 253 254
f 192 254 255
f 192 255 193
f 193 255 256
f 193 256 257
f 193 257 196
f 194 196 195
f 195 258 197
f 195 196 259
f 195 259 260
f 195 260 261
f 195 261 258
f 196 257 262
f 196 262 263
f 196 263 264
f 196 264 265
f 196 265 260
f 196 260 259
f 197 199 198
f 197 258 261
f 197 261 199
f 199 261 201
f 199 201 200
f 201 261 266
f 201 266 202
f 202 266 204
f 202 204 203
f 204 267 268
f 204 268 269
f 204 269 270
f 204 270 205
f 204 266 271
f 204 271 267
f 205 270 272
f 205 272 206
f 206 272 270
f 206 270 273
f 206 273 207
f 207 273 274
f 207 274 208
f 208 274 209
f 209 274 273
f 209 273 269
f 209 269 275
f 209 275 210
f 210 275 276
f 210 276 277
f 210 277 211
f 211 278 279
f 211 279 280
f 211 280 281
f 211 281 212
f 211 277 278
f 212 281 282
f 212 282 213
f 213 283 284
f 213 284 285
f 213 285 215
f 213 282 286
f 213 286 287
f 213 287 288
f 213 288 289
f 213 289 283
f 215 285 217
f 215 217 216
f 217 285 290
f 217 290 291
f 217 291 292
f 217 292 220
f 217 219 218
f 221 293 223
f 221 223 222
f 223 294 295
f 223 295 225
f 223 225 224
f 223 293 296
f 223 296 294
f 225 295 297
f 225 297 226
f 226 297 298
f 226 298 299
f 226 299 227
f 227 300 301
f 227 301 302
f 227 302 303
f 227 303 228
f 227 299 298
f 227 298 300
f 228 303 304
f 229 305 230
f 230 305 306
f 230 306 307
f 230 307 308
f 230 308 309
f 230 309 310
f 230 310 311
f 230 311 231
f 231 311 233
f 231 233 232
f 233 311 312
f 233 312 234
f 234 312 236
f 234 236 235
f 236 312 238
f 238 312 313
f 238 313 314
f 238 314 244
f 240 247 315
f 240 315 242
f 240 242 241
f 242 315 316
f 242 316 243
f 244 317 318
f 244 318 319
f 244 319 245
f 244 314 320
f 244 320 317
f 245 319 321
f 245 321 322
f 245 322 323
f 245 323 324
f 245 324 325
f 245 325 246
f 246 325 247
f 247 325 315
f 248 326 250
f 248 250 249
f 250 252 251
f 250 326 252
f 252 327 253
f 252 326 327
f 253 327 254
f 254 327 328
f 254 328 329
f 254 329 255
f 255 330 331
f 255 331 332
f 255 332 256
f 255 329 333
f 255 333 334
f 255 334 335
f 255 335 330
f 256 336 257
f 256 332 337
f 256 337 336
f 257 338 263
f 257 263 262
f 257 336 337
f 257 337 339
f 257 339 338
f 260 265 340
f 260 340 341
f 260 341 266
f 260 266 261
f 263 342 343
f 263 343 264
f 263 338 344
f 263 344 345
f 263 345 342
f 264 343 342
f 264 342 345
f 264 345 346
f 264 346 265
f 265 346 267
f 265 267 340
f 266 341 340
f 266 340 271
f 267 345 347
f 267 347 348
f 267 348 349
f 267 349 277
f 267 277 268
f 267 271 340
f 267 346 345
f 268 277 276
f 268 276 269
f 269 273 270
f 269 276 275
f 277 349 350
f 277 350 351
f 277 351 278
f 278 351 279
f 279 351 352
f 279 352 280
f 280 353 354
f 280 354 281
f 280 352 355
f 280 355 356
f 280 356 357
f 280 357 353
f 281 354 416
f 281 416 358
f 281 358 282
f 282 358 359
f 282 359 286
f 283 360 284
f 284 360 285
f 286 361 287
f 286 359 362
f 286 362 361
f 287 363 288
f 288 363 289
f 294 364 365
f 294 365 295
f 294 296 366
f 294 366 364
f 295 365 367
f 295 367 368
f 295 368 297
f 297 368 369
f 297 369 370
f 297 370 371
f 297 371 298
f 298 371 372
f 298 372 373
f 298 373 300
f 300 374 301
f 300 373 374
f 301 375 302
f 301 374 376
f 301 376 375
f 302 375 377
f 302 377 303
f 303 377 304
f 304 378 308
f 304 308 307
f 304 377 379
f 304 379 378
f 308 378 380
f 308 380 309
f 309 380 381
f 309 381 382
f 309 382 383
f 309 383 310
f 310 383 384
f 310 384 320
f 310 320 311
f 311 320 314
f 311 314 313
f 311 313 312
f 315 325 385
f 315 385 316
f 317 386 387
f 317 387 318
f 317 320 384
f 317 384 386
f 318 387 388
f 318 388 389
f 318 389 390
f 318 390 391
f 318 391 319
f 319 391 337
f 319 337 392
f 319 392 321
f 321 393 322
f 321 392 332
f 321 332 331
f 321 331 393
f 322 393 394
f 322 394 395
f 322 395 396
f 322 396 323
f 323 396 324
f 324 396 325
f 325 396 397
f 326 328 327
f 326 398 328
f 328 333 329
f 328 398 333
f 330 335 394
f 330 394 393
f 330 393 331
f 332 392 337
f 333 398 334
f 334 398 399
f 334 399 395
f 334 395 335
f 335 395 394
f 337 391 400
f 337 400 390
f 337 390 339
f 338 339 401
f 338 401 402
f 338 402 344
f 339 390 389
f 339 389 401
f 344 402 347
f 344 347 345
f 347 402 403
f 347 403 388
f 347 388 404
f 347 404 405
f 347 405 348
f 348 405 349
f 349 405 406
f 349 406 407
f 349 407 408
f 349 408 350
f 350 409 351
f 350 408 410
f 350 410 411
f 350 411 409
f 351 409 352
f 352 409 412
f 352 412 413
f 352 413 414
f 352 414 415
f 352 415 355
f 353 357 367
f 353 367 354
f 354 367 416
f 355 415 414
f 355 414 417
f 355 417 420
f 355 420 418
f 355 418 356
f 356 418 419
f 356 419 357
f 357 419 418
f 357 418 420
f 357 420 421
f 357 421 367
f 358 422 423
f 358 423 359
f 358 416 424
f 358 424 425
f 358 425 426
f 358 426 427
f 358 427 422
f 359 423 428
f 359 428 362
f 364 366 429
f 364 429 430
f 364 430 431
f 364 431 432
f 364 432 365
f 365 432 431
f 365 431 433
f 365 433 434
f 365 434 367
f 367 421 420
f 367 420 368
f 367 434 424
f 367 424 416
f 368 420 435
f 368 435 410
f 368 410 369
f 369 410 370
f 370 410 436
f 370 436 437
f 370 437 438
f 370 438 371
f 371 438 439
f 371 439 372
f 372 439 373
f 373 439 440
f 373 440 374
f 374 440 376
f 375 376 441
f 375 441 377
f 376 440 439
f 376 439 441
f 377 441 442
f 377 442 379
f 378 443 444
f 378 444 445
f 378 445 380
f 378 379 405
f 378 405 446
f 378 446 443
f 379 442 447
f 379 447 406
f 379 406 405
f 380 445 381
f 381 445 444
f 381 444 448
f 381 448 449
f 381 449 450
f 381 450 383
f 381 383 382
f 383 450 384
f 384 450 451
f 384 451 452
f 384 452 453
f 384 453 386
f 386 453 387
f 387 453 454
f 387 454 446
f 387 446 455
f 387 455 405
f 387 405 404
f 387 404 388
f 388 403 456
f 388 456 389
f 389 456 402
f 389 402 401
f 390 400 391
f 395 397 396
f 402 456 403
f 405 455 446
f 406 447 407
f 407 447 439
f 407 439 437
f 407 437 410
f 407 410 408
f 409 411 412
f 410 435 411
f 410 437 436
f 411 435 420
f 411 420 412
f 412 420 413
f 413 420 417
f 413 417 414
f 422 427 423
f 423 427 457
f 423 457 458
f 423 458 428
f 424 434 459
f 424 459 425
f 425 459 426
f 426 459 427
f 427 459 457
f 429 460 430
f 430 460 461
f 430 461 431
f 431 461 462
f 431 462 463
f 431 463 464
f 431 464 433
f 433 464 465
f 433 465 434
f 434 465 459
f 437 439 438
f 439 447 466
f 439 466 442
f 439 442 441
f 442 466 447
f 443 448 444
f 443 446 451
f 443 451 448
f 446 454 453
f 446 453 452
f 446 452 451
f 448 451 467
f 448 467 450
f 448 450 449
f 450 467 451
f 457 459 468
f 459 465 468
f 463 469 464
f 464 469 465
f 465 469 468

