# https://github.com/mikedh/trimesh
v 0.00900871 0.01128262 0.03182124
v 0.00897394 0.01064451 0.03176664
v 0.00900871 0.01128262 0.03140085
v 0.00852713 0.01128262 0.03140085
v 0.00807337 0.01121881 0.03285746
v 0.00401386 0.01026165 0.03869376
v 0.00493355 0.01022075 0.03761604
v 0.00813074 0.01056925 0.03313918
v 0.00786301 0.01018802 0.03355848
v 0.00786301 0.01013894 0.03355848
v 0.00488661 -0.00083156 0.03758110
v 0.00885920 0.01014221 0.03157664
v 0.00897394 0.01064451 0.03143907
v 0.00736231 0.00964809 0.03120758
v 0.00786301 0.01113863 0.03157337
v 0.00763178 0.01121881 0.03223726
v 0.00726495 0.01117954 0.03320469
v 0.00736231 0.01044490 0.03139648
v 0.00686160 0.01114191 0.03358031
v 0.00689464 0.01114191 0.03358031
v 0.00338103 0.01027638 0.03876801
v 0.00298464 0.00930940 0.03959241
v 0.00403472 0.00964809 0.03872870
v 0.00409557 -0.00030144 0.03867956
v 0.00493355 0.00990987 0.03761604
v 0.00461888 -0.00034234 0.03795999
v 0.00407819 -0.00097554 0.03866209
v 0.00439634 -0.00112279 0.03795999
v 0.00321239 -0.00187543 0.03772741
v 0.00488661 -0.00083156 0.03752322
v 0.00885920 0.01014221 0.03156136
v 0.00830982 0.00974626 0.03139539
v 0.00736578 0.00868439 0.03131459
v 0.00641654 0.00762088 0.03127418
v 0.00537167 0.00666208 0.03120649
v 0.00437722 0.00566729 0.03118137
v 0.00636786 0.00865330 0.03120758
v 0.00677641 0.01021420 0.03151659
v 0.00181634 0.00721674 0.03251351
v 0.00290293 0.00813954 0.03257903
v 0.00398778 0.00906725 0.03265765
v 0.00434419 0.00967427 0.03303217
v 0.00087752 0.00916051 0.03553157
v -0.00003348 0.00912451 0.03674796
v 0.00380002 0.01017493 0.03447241
v 0.00696765 0.01109937 0.03288367
v 0.00686160 0.01114191 0.03354755
v 0.00641480 0.00959409 0.03142159
v 0.00338103 0.01039745 0.03803424
v 0.00272560 0.01020438 0.03868066
v 0.00158859 0.00925377 0.03960333
v 0.00238832 0.00934703 0.03963281
v 0.00093489 0.00717584 0.04052927
v -0.00059503 0.00436491 0.04158297
v -0.00007694 0.00424547 0.04153602
v 0.00298464 0.00865330 0.03960114
v -0.00007694 0.00409821 0.04153602
v -0.00018300 0.00168978 0.04145849
v -0.00067848 0.00168978 0.04174894
v -0.00078106 0.00103531 0.04163102
v 0.00092794 0.00018123 0.04053364
v 0.00192065 -0.00081029 0.03953563
v 0.00338103 -0.00112443 0.03880950
v 0.00348013 -0.00165455 0.03805062
v 0.00321239 -0.00187543 0.03740093
v 0.00238832 -0.00171999 0.03839239
v 0.00238832 -0.00195233 0.03789448
v -0.00600366 -0.00479762 0.03359779
v -0.00712676 -0.00528847 0.03250587
v 0.00405037 0.00394441 0.03139539
v 0.00496311 0.00505046 0.03145872
v 0.00587411 0.00615815 0.03156027
v -0.00600887 -0.00482707 0.03250587
v 0.00207538 0.00206282 0.03147510
v 0.00313242 0.00294144 0.03138010
v 0.00794646 0.00903616 0.03146418
v 0.00703546 0.00792848 0.03140194
v 0.00438069 0.00470032 0.03130913
v 0.00343145 0.00364008 0.03127528
v 0.00338103 0.00467087 0.03119448
v 0.00537167 0.00765687 0.03124580
v -0.00874883 -0.00293730 0.03250587
v 0.00576806 0.00922596 0.03152642
v 0.00075060 0.00627431 0.03249167
v 0.00043419 0.00663263 0.03308349
v 0.00011777 0.00699259 0.03374738
v -0.00020734 0.00824098 0.03545295
v -0.00121917 0.00826880 0.03640838
v -0.00156688 0.00836861 0.03710612
v -0.00212669 0.00818535 0.03748064
v -0.00051854 0.00893308 0.03706134
v -0.00013605 0.00916378 0.03741076
v 0.00033683 0.00929140 0.03706134
v 0.00367832 0.01021420 0.03505003
v 0.00330453 0.01030255 0.03701002
v 0.00271517 0.01020766 0.03803424
v -0.00013605 0.00916378 0.03760184
v -0.00051854 0.00890854 0.03797309
v 0.00002911 0.00908852 0.03826245
v 0.00068976 0.00925050 0.03883789
v 0.00092446 0.00913924 0.03950178
v -0.00214929 0.00718402 0.04054347
v -0.00159296 0.00721184 0.04055548
v -0.00059503 0.00722002 0.04054783
v 0.00039768 0.00719875 0.04053582
v 0.00039768 0.00666208 0.04074110
v -0.00159296 0.00367935 0.04193129
v -0.00159296 0.00268456 0.04220973
v -0.00072195 0.00268456 0.04181009
v -0.00159296 0.00168978 0.04215404
v -0.00159296 0.00085533 0.04176096
v -0.00120352 -0.00075302 0.04049106
v -0.00499356 -0.00083319 0.04153929
v -0.00186591 -0.00088391 0.04058605
v 0.00139387 -0.00090846 0.03961315
v -0.00284993 0.00010106 0.04158734
v -0.00295946 -0.00037343 0.04127833
v -0.00358360 -0.00054686 0.04133620
v 0.00039768 -0.00106880 0.03975838
v 0.00039768 -0.00156456 0.03917420
v -0.00626792 -0.00494161 0.03250587
v 0.00173462 -0.00177235 0.03848520
v -0.00059503 -0.00167745 0.03931724
v -0.00457979 -0.00172327 0.04038077
v 0.00139908 -0.00198996 0.03810522
v -0.00856106 -0.00368339 0.03730812
v -0.00756487 -0.00361795 0.03715197
v -0.00698941 -0.00379465 0.03656670
v -0.00632529 -0.00375211 0.03645751
v -0.00159296 -0.00293567 0.03686480
v -0.00364618 -0.00359013 0.03595960
v -0.00401997 -0.00379465 0.03556870
v -0.00656869 -0.00483689 0.03370261
v -0.00756487 -0.00521157 0.03305838
v -0.00760138 -0.00538337 0.03250587
v 0.00239875 0.00264202 0.03135499
v 0.00238832 0.00367935 0.03126327
v -0.00874883 -0.00538337 0.03250587
v -0.00874883 0.00221826 0.03751995
v -0.00698768 0.00106803 0.03466896
v -0.00027340 0.00632831 0.03337503
v 0.00008996 0.00592254 0.03271006
v -0.00087146 0.00796938 0.03574449
v -0.00091493 0.00698932 0.03472355
v -0.00874883 0.00262239 0.03797855
v -0.00874883 0.00275492 0.03815654
v -0.00874883 0.00312469 0.03865554
v -0.00212669 0.00818535 0.03764661
v -0.00874883 0.00331776 0.03914363
v -0.00874883 0.00357955 0.04004118
v -0.00507875 0.00616633 0.03952362
v 0.00281600 0.01016839 0.03732340
v -0.00162425 0.00836533 0.03799930
v -0.00197544 0.00810027 0.03831159
v -0.00131131 0.00826225 0.03886082
v -0.00258741 0.00758325 0.03903007
v -0.00296120 0.00727892 0.03940678
v -0.00109226 0.00815427 0.03952471
v 0.00037334 0.00900507 0.03911306
v -0.00619316 0.00524516 0.04070834
v -0.00421817 0.00623177 0.04061444
v -0.00733017 0.00430110 0.04163211
v -0.00656869 0.00443690 0.04168670
v -0.00557424 0.00454489 0.04167906
v -0.00457979 0.00506028 0.04146941
v -0.00258741 0.00566729 0.04119643
v -0.00059503 0.00566729 0.04114730
v -0.00295946 0.00367935 0.04196732
v -0.00258741 0.00268456 0.04231019
v -0.00258741 0.00168978 0.04233639
v -0.00254568 0.00061809 0.04183083
v -0.00432943 -0.00069739 0.04144539
v -0.00557424 -0.00084465 0.04154475
v -0.00589761 -0.00181817 0.04056858
v -0.00462847 -0.00116043 0.04107632
v -0.00358360 -0.00113425 0.04083828
v -0.00296120 -0.00105408 0.04074765
v -0.00258741 -0.00100499 0.04069088
v -0.00358360 -0.00163328 0.04023992
v -0.00523522 -0.00177235 0.04047577
v -0.00756487 -0.00322036 0.03803424
v -0.00856106 -0.00326944 0.03803424
v -0.00874883 -0.00334144 0.03789229
v -0.00874883 -0.00367685 0.03730375
v -0.00874883 -0.00372266 0.03720875
v -0.00856106 -0.00389773 0.03681020
v -0.00756487 -0.00288985 0.03870686
v -0.00856106 -0.00419715 0.03604586
v -0.00662258 -0.00393046 0.03609391
v -0.00557424 -0.00370303 0.03632976
v -0.00457979 -0.00363595 0.03616161
v -0.00656869 -0.00464710 0.03420052
v -0.00756487 -0.00471091 0.03436868
v -0.00856106 -0.00456529 0.03505003
v -0.00856106 -0.00476163 0.03450189
v -0.00806905 -0.00541609 0.03250587
v -0.00854368 -0.00543246 0.03250587
v -0.00874883 -0.00521157 0.03305838
v -0.00507875 0.00616633 0.03953017
v -0.00874883 0.00355173 0.04104247
v -0.00456240 0.00631194 0.03992763
v -0.00488229 0.00606979 0.04019405
v -0.00309680 0.00716602 0.03954545
v -0.00834201 0.00346011 0.04168343
v -0.00762399 0.00374644 0.04181446
v -0.00656869 0.00367772 0.04202192
v -0.00557424 0.00367772 0.04202520
v -0.00457979 0.00456288 0.04166596
v -0.00296120 0.00542841 0.04129689
v -0.00457979 0.00367772 0.04200554
v -0.00295946 0.00268456 0.04229708
v -0.00358360 0.00268293 0.04227415
v -0.00457979 0.00268293 0.04223048
v -0.00557424 0.00268293 0.04218243
v -0.00358360 0.00168814 0.04228726
v -0.00296120 0.00168814 0.04231783
v -0.00457979 0.00069335 0.04198916
v -0.00611319 -0.00082828 0.04153056
v -0.00636180 -0.00181817 0.04056858
v -0.00856106 -0.00287349 0.03865445
v -0.00874883 -0.00291767 0.03853652
v -0.00874883 -0.00389446 0.03680475
v -0.00874883 -0.00419061 0.03604586
v -0.00874883 -0.00454893 0.03505003
v -0.00856106 -0.00492852 0.03400398
v -0.00874883 -0.00475181 0.03446477
v -0.00874883 0.00290872 0.04151200
v -0.00841850 0.00268293 0.04169544
v -0.00756487 0.00268293 0.04197169
v -0.00874883 0.00268293 0.04152728
v -0.00656869 0.00268293 0.04211255
v -0.00457979 0.00168814 0.04217479
v -0.00557424 0.00069335 0.04188216
v -0.00656869 0.00168814 0.04194440
v -0.00732669 0.00086678 0.04160808
v -0.00705896 0.00020250 0.04151527
v -0.00684338 -0.00030144 0.04144211
v -0.00756487 -0.00030144 0.04118442
v -0.00874883 -0.00048633 0.04069743
v -0.00836808 -0.00098045 0.04063300
v -0.00756487 -0.00118170 0.04078041
v -0.00756487 -0.00167745 0.04042008
v -0.00702592 -0.00179035 0.04051726
v -0.00874883 -0.00285386 0.03862169
v -0.00874883 0.00165051 0.04131327
v -0.00874883 0.00147707 0.04127286
v -0.00857671 0.00164233 0.04138424
v -0.00825682 0.00194502 0.04158843
v -0.00762225 0.00164233 0.04170745
v -0.00557424 0.00168814 0.04206123
v -0.00762225 0.00059845 0.04142683
v -0.00874883 -0.00038161 0.04072909
v -0.00874883 -0.00115879 0.04034583
v -0.00874883 -0.00131423 0.04023773
v -0.00874883 -0.00140094 0.04016457
v -0.00874883 -0.00194251 0.03969723
v -0.00856106 -0.00197524 0.03973326
v -0.00874883 -0.00258553 0.03895364
v -0.00874883 -0.00203414 0.03959241
f 1 2 13
f 1 13 3
f 1 3 4
f 1 4 5
f 1 5 6
f 1 6 7
f 1 7 8
f 1 8 9
f 1 9 10
f 1 10 11
f 1 11 2
f 2 12 31
f 2 31 13
f 2 11 12
f 3 13 14
f 3 14 4
f 4 15 16
f 4 16 17
f 4 17 5
f 4 14 18
f 4 18 15
f 5 17 19
f 5 19 20
f 5 20 6
f 6 21 22
f 6 22 23
f 6 23 7
f 6 20 21
f 7 23 24
f 7 24 25
f 7 25 10
f 7 10 9
f 7 9 8
f 10 25 26
f 10 26 11
f 11 26 24
f 11 24 27
f 11 27 28
f 11 28 29
f 11 29 65
f 11 65 30
f 11 30 31
f 11 31 12
f 13 31 32
f 13 32 14
f 14 32 33
f 14 33 34
f 14 34 35
f 14 35 36
f 14 36 37
f 14 37 18
f 15 18 38
f 15 38 39
f 15 39 40
f 15 40 41
f 15 41 42
f 15 42 43
f 15 43 44
f 15 44 45
f 15 45 16
f 16 46 47
f 16 47 19
f 16 19 17
f 16 45 46
f 18 37 48
f 18 48 38
f 19 47 49
f 19 49 21
f 19 21 20
f 21 49 50
f 21 50 51
f 21 51 52
f 21 52 22
f 22 52 53
f 22 53 54
f 22 54 55
f 22 55 56
f 22 56 23
f 23 56 24
f 24 26 25
f 24 56 57
f 24 57 27
f 27 57 58
f 27 58 59
f 27 59 60
f 27 60 61
f 27 61 62
f 27 62 63
f 27 63 64
f 27 64 28
f 28 64 29
f 29 64 66
f 29 66 67
f 29 67 68
f 29 68 69
f 29 69 65
f 30 70 71
f 30 71 72
f 30 72 31
f 30 65 73
f 30 73 74
f 30 74 75
f 30 75 70
f 31 76 32
f 31 72 71
f 31 71 76
f 32 76 77
f 32 77 33
f 33 77 70
f 33 70 78
f 33 78 34
f 34 78 79
f 34 79 35
f 35 79 36
f 36 79 80
f 36 80 37
f 37 80 81
f 37 81 82
f 37 82 48
f 38 48 83
f 38 83 82
f 38 82 84
f 38 84 39
f 39 84 85
f 39 85 86
f 39 86 40
f 40 86 41
f 41 86 87
f 41 87 43
f 41 43 42
f 43 87 88
f 43 88 89
f 43 89 44
f 44 89 90
f 44 90 91
f 44 91 92
f 44 92 93
f 44 93 94
f 44 94 46
f 44 46 45
f 46 94 47
f 47 94 93
f 47 93 95
f 47 95 96
f 47 96 49
f 48 82 83
f 49 96 50
f 50 96 97
f 50 97 98
f 50 98 99
f 50 99 100
f 50 100 101
f 50 101 51
f 51 101 102
f 51 102 52
f 52 102 103
f 52 103 104
f 52 104 105
f 52 105 53
f 53 105 106
f 53 106 107
f 53 107 54
f 54 107 55
f 55 107 108
f 55 108 57
f 55 57 56
f 57 108 109
f 57 109 59
f 57 59 58
f 59 109 108
f 59 108 110
f 59 110 60
f 60 110 111
f 60 111 61
f 61 111 62
f 62 112 113
f 62 113 114
f 62 114 115
f 62 115 63
f 62 111 116
f 62 116 117
f 62 117 118
f 62 118 112
f 63 115 119
f 63 119 120
f 63 120 66
f 63 66 64
f 65 69 121
f 65 121 73
f 66 122 67
f 66 120 123
f 66 123 124
f 66 124 122
f 67 122 125
f 67 125 126
f 67 126 127
f 67 127 128
f 67 128 129
f 67 129 130
f 67 130 131
f 67 131 132
f 67 132 68
f 68 132 133
f 68 133 134
f 68 134 135
f 68 135 69
f 69 135 136
f 69 136 74
f 69 74 121
f 70 77 71
f 70 75 79
f 70 79 78
f 71 77 76
f 73 121 74
f 74 136 75
f 75 136 79
f 79 136 137
f 79 137 80
f 80 137 82
f 80 82 81
f 82 138 198
f 82 198 226
f 82 226 224
f 82 224 223
f 82 223 222
f 82 222 185
f 82 185 184
f 82 184 183
f 82 183 221
f 82 221 244
f 82 244 258
f 82 258 259
f 82 259 256
f 82 256 255
f 82 255 254
f 82 254 253
f 82 253 239
f 82 239 252
f 82 252 246
f 82 246 245
f 82 245 230
f 82 230 227
f 82 227 200
f 82 200 150
f 82 150 149
f 82 149 147
f 82 147 146
f 82 146 145
f 82 145 139
f 82 139 140
f 82 140 141
f 82 141 142
f 82 142 84
f 82 137 138
f 84 142 141
f 84 141 85
f 85 141 86
f 86 141 143
f 86 143 87
f 87 143 88
f 88 90 89
f 88 143 141
f 88 141 144
f 88 144 139
f 88 139 145
f 88 145 146
f 88 146 147
f 88 147 90
f 90 148 97
f 90 97 92
f 90 92 91
f 90 147 149
f 90 149 150
f 90 150 151
f 90 151 199
f 90 199 148
f 92 97 96
f 92 96 93
f 93 96 152
f 93 152 95
f 95 152 96
f 97 148 153
f 97 153 98
f 98 153 100
f 98 100 99
f 100 153 154
f 100 154 155
f 100 155 156
f 100 156 157
f 100 157 158
f 100 158 159
f 100 159 101
f 101 159 158
f 101 158 160
f 101 160 161
f 101 161 162
f 101 162 102
f 102 162 163
f 102 163 103
f 103 163 164
f 103 164 165
f 103 165 104
f 104 166 105
f 104 165 166
f 105 166 167
f 105 167 106
f 106 167 107
f 107 168 169
f 107 169 108
f 107 167 168
f 108 169 170
f 108 170 110
f 110 170 171
f 110 171 111
f 111 171 113
f 111 113 116
f 112 118 172
f 112 172 113
f 113 173 174
f 113 174 175
f 113 175 176
f 113 176 177
f 113 177 178
f 113 178 114
f 113 172 116
f 113 171 170
f 113 170 173
f 114 178 115
f 115 178 119
f 116 172 118
f 116 118 117
f 119 178 177
f 119 177 176
f 119 176 120
f 120 176 179
f 120 179 123
f 122 124 180
f 122 180 174
f 122 174 181
f 122 181 125
f 123 179 124
f 124 179 175
f 124 175 180
f 125 181 126
f 126 182 183
f 126 183 184
f 126 184 185
f 126 185 186
f 126 186 128
f 126 128 127
f 126 181 174
f 126 174 187
f 126 187 182
f 128 186 188
f 128 188 129
f 129 188 189
f 129 189 132
f 129 132 190
f 129 190 130
f 130 190 191
f 130 191 131
f 131 191 132
f 132 191 190
f 132 189 192
f 132 192 133
f 133 192 134
f 134 193 188
f 134 188 194
f 134 194 195
f 134 195 196
f 134 196 135
f 134 192 193
f 135 196 136
f 136 196 197
f 136 197 138
f 136 138 137
f 138 197 198
f 139 144 141
f 139 141 140
f 148 199 153
f 150 200 199
f 150 199 151
f 153 199 154
f 154 156 155
f 154 199 156
f 156 199 201
f 156 201 202
f 156 202 157
f 157 202 203
f 157 203 158
f 158 203 202
f 158 202 160
f 160 199 200
f 160 200 162
f 160 162 161
f 160 202 199
f 162 200 204
f 162 204 205
f 162 205 206
f 162 206 163
f 163 206 164
f 164 206 207
f 164 207 165
f 165 207 208
f 165 208 166
f 166 168 167
f 166 208 209
f 166 209 168
f 168 209 210
f 168 210 169
f 169 210 207
f 169 207 206
f 169 206 211
f 169 211 170
f 170 211 212
f 170 212 213
f 170 213 214
f 170 214 215
f 170 215 216
f 170 216 217
f 170 217 218
f 170 218 173
f 173 218 219
f 173 219 174
f 174 180 175
f 174 219 187
f 175 179 176
f 182 220 183
f 182 187 219
f 182 219 220
f 183 220 221
f 185 222 186
f 186 222 188
f 188 222 223
f 188 223 194
f 188 193 189
f 189 193 192
f 194 223 224
f 194 224 195
f 195 225 197
f 195 197 196
f 195 224 226
f 195 226 225
f 197 225 226
f 197 226 198
f 199 202 201
f 200 227 204
f 204 228 229
f 204 229 205
f 204 227 230
f 204 230 228
f 205 229 206
f 206 229 231
f 206 231 214
f 206 214 213
f 206 213 212
f 206 212 211
f 207 210 208
f 208 210 209
f 214 231 215
f 215 232 233
f 215 233 217
f 215 217 216
f 215 231 232
f 217 233 218
f 218 233 234
f 218 234 229
f 218 229 235
f 218 235 236
f 218 236 237
f 218 237 238
f 218 238 239
f 218 239 240
f 218 240 241
f 218 241 242
f 218 242 243
f 218 243 219
f 219 243 220
f 220 244 221
f 220 243 244
f 228 230 245
f 228 245 246
f 228 246 247
f 228 247 248
f 228 248 229
f 229 234 231
f 229 248 249
f 229 249 235
f 231 234 250
f 231 250 232
f 232 250 233
f 233 250 234
f 235 249 248
f 235 248 236
f 236 248 251
f 236 251 238
f 236 238 237
f 238 251 247
f 238 247 252
f 238 252 239
f 239 253 240
f 240 253 254
f 240 254 242
f 240 242 241
f 242 254 255
f 242 255 256
f 242 256 243
f 243 256 257
f 243 257 258
f 243 258 244
f 246 252 247
f 247 251 248
f 256 259 257
f 257 259 258

