# https://github.com/mikedh/trimesh
v 0.05379362 0.02159493 0.00020976
v 0.05376164 0.02233481 0.00020976
v 0.05371368 0.02218432 0.00078916
v 0.05371501 0.02159493 0.00078651
v 0.05367371 0.02107809 0.00073335
v 0.05368037 0.02106823 0.00020976
v 0.05366704 0.02107719 -0.00034042
v 0.05372567 0.02164778 -0.00071783
v 0.05373233 0.02231420 -0.00078693
v 0.05354580 0.02281134 -0.00078693
v 0.05322605 0.02358615 -0.00078693
v 0.05283301 0.02437798 -0.00078693
v 0.05278505 0.02427856 -0.00010121
v 0.05252924 0.02392653 0.00056325
v 0.05279437 0.02326279 0.00086624
v 0.05311280 0.02254262 0.00115860
v 0.04869216 0.02311141 0.00570351
v 0.05276773 0.02223717 0.00182041
v 0.05276773 0.02189321 0.00182041
v 0.05269045 0.02007128 -0.00023145
v 0.05179647 0.02194158 0.00283038
v 0.04018396 0.01565798 0.01259794
v 0.04046375 0.01565350 0.01213547
v 0.04092206 0.01565350 0.01133015
v 0.04150828 0.01565350 0.01026967
v 0.04177341 0.01565350 0.00978860
v 0.04178274 0.01565350 0.00977000
v 0.04206653 0.01565350 0.00916667
v 0.05269045 0.02007128 -0.00039092
v 0.05367371 0.02201413 -0.00140621
v 0.05148470 0.01929467 -0.00177831
v 0.05264649 0.02110585 -0.00325075
v 0.05255323 0.02120618 -0.00376903
v 0.05169388 0.02205802 -0.00833785
v 0.05269978 0.02202846 -0.00542486
v 0.05367371 0.02215656 -0.00140621
v 0.05269712 0.02320278 -0.00449462
v 0.05306617 0.02358615 -0.00177831
v 0.05284500 0.02365512 -0.00281486
v 0.05276640 0.02428751 -0.00177831
v 0.05215619 0.02479271 -0.00078693
v 0.05218017 0.02448368 0.00022304
v 0.05186442 0.02427498 0.00094332
v 0.05157530 0.02397938 0.00160778
v 0.05088782 0.02336938 0.00295530
v 0.05250393 0.02290091 0.00153070
v 0.04773156 0.02314366 0.00672943
v 0.05058406 0.02403223 0.00264965
v 0.05179647 0.02228554 0.00283038
v 0.04595957 0.01565350 0.00018849
v 0.04990191 0.01797436 -0.00105006
v 0.04995387 0.01791882 -0.00177831
v 0.05045082 0.01829772 -0.00177831
v 0.04208118 0.01565350 0.00913477
v 0.04773156 0.02300930 0.00672943
v 0.05076925 0.02200159 0.00378721
v 0.04717997 0.02323860 0.00685701
v 0.04018396 0.01663971 0.01207966
v 0.04018396 0.01565350 0.01200790
v 0.05098642 0.01879575 -0.00177831
v 0.05079456 0.01898116 -0.00277500
v 0.05162060 0.02113452 -0.00616108
v 0.05174317 0.02100643 -0.00549928
v 0.05198433 0.02056841 -0.00369461
v 0.04452465 0.01565350 -0.00875779
v 0.04447536 0.01565350 -0.00884284
v 0.04445804 0.01565350 -0.00887208
v 0.04395709 0.01565350 -0.00969335
v 0.05151935 0.02228554 -0.00899965
v 0.05171387 0.02294928 -0.00931593
v 0.05068265 0.01909044 -0.00330922
v 0.04585032 0.01598671 -0.00675644
v 0.04509223 0.01565350 -0.00765744
v 0.05269978 0.02232495 -0.00542486
v 0.05171387 0.02314724 -0.00931593
v 0.05263450 0.02298780 -0.00515908
v 0.05261984 0.02403312 -0.00317101
v 0.05269845 0.02415763 -0.00250921
v 0.05171919 0.02411464 -0.00542752
v 0.05215619 0.02465118 -0.00177831
v 0.05116095 0.02472732 -0.00177831
v 0.05116095 0.02480435 -0.00078693
v 0.05116095 0.02472732 0.00020976
v 0.05121025 0.02441202 0.00124631
v 0.05091181 0.02425079 0.00198785
v 0.04992056 0.02417107 0.00301377
v 0.04627799 0.01565350 -0.00071517
v 0.04628066 0.01565350 -0.00075770
v 0.04624202 0.01565350 -0.00174110
v 0.04860556 0.01716013 -0.00277500
v 0.04577038 0.01565350 -0.00575975
v 0.04801401 0.01689320 -0.00376903
v 0.04563181 0.01565350 -0.00632587
v 0.04548259 0.01565350 -0.00675644
v 0.04981397 0.01799138 -0.00252516
v 0.04717997 0.02350106 0.00618192
v 0.04618606 0.02327712 0.00693674
v 0.04018396 0.01719327 0.01168364
v 0.04018396 0.01565350 -0.01455453
v 0.04784880 0.01697471 -0.00456904
v 0.04322032 0.01565350 -0.01075648
v 0.05085585 0.02196934 -0.00941428
v 0.04190664 0.01565350 -0.01260900
v 0.04114855 0.01565350 -0.01365087
v 0.04082613 0.01597238 -0.01431001
v 0.04968874 0.02207594 -0.01024618
v 0.04656710 0.01626081 -0.00575975
v 0.04968874 0.02210729 -0.01024618
v 0.05116095 0.02318038 -0.00937441
v 0.05116095 0.02338282 -0.00874716
v 0.05179380 0.02323502 -0.00874716
v 0.05144473 0.02411464 -0.00542752
v 0.04018396 0.02333982 -0.00078693
v 0.05116095 0.02455892 -0.00277500
v 0.04018396 0.02322875 -0.00193246
v 0.04018396 0.02323592 -0.00187133
v 0.04018396 0.02333982 -0.00075770
v 0.04018396 0.02327802 0.00020976
v 0.05016571 0.02450339 0.00120379
v 0.04618606 0.02346881 0.00618192
v 0.04917046 0.02415226 0.00305896
v 0.04917046 0.02407343 0.00355597
v 0.04018396 0.02281582 0.00618192
v 0.04018396 0.02281313 0.00621381
v 0.04341883 0.02312037 0.00675069
v 0.04584099 0.01565350 -0.00517768
v 0.04519082 0.02322069 0.00689156
v 0.04018396 0.02225688 0.00784041
v 0.04018396 0.02223180 0.00786433
v 0.04018396 0.01762950 0.01136470
v 0.04018396 0.01646325 -0.01442430
v 0.04021326 0.01645608 -0.01442164
v 0.04082613 0.01630022 -0.01431001
v 0.04027322 0.01565350 -0.01451998
v 0.04110193 0.01565350 -0.01370403
v 0.04917046 0.02215387 -0.01027541
v 0.04817522 0.02220761 -0.01033123
v 0.04717997 0.02219507 -0.01034452
v 0.05033625 0.02315261 -0.00934517
v 0.05006845 0.02325652 -0.00884550
v 0.05016571 0.02350553 -0.00775047
v 0.05116095 0.02359511 -0.00775047
v 0.04038380 0.02314455 -0.00247998
v 0.04018396 0.02320905 -0.00202549
v 0.04419424 0.02316426 0.00682511
v 0.04018396 0.02259905 0.00717595
v 0.04018396 0.02259009 0.00720253
v 0.04018396 0.01697382 -0.01412662
v 0.04018396 0.01764114 -0.01369871
v 0.04379188 0.02111033 -0.01124552
v 0.04319900 0.02112287 -0.01125881
v 0.04642455 0.02214312 -0.01030199
v 0.04256481 0.02111839 -0.01125616
v 0.04967275 0.02308723 -0.00924152
v 0.04018396 0.02304244 -0.00271918
v 0.04018396 0.01947830 -0.01247876
v 0.04018396 0.01997633 -0.01212261
v 0.04576105 0.02207594 -0.01018505
v 0.04018396 0.01999245 -0.01210932
v 0.04018396 0.02041345 -0.01162560
v 0.04190132 0.02105390 -0.01112592
v 0.04018396 0.02105659 -0.01004153
v 0.04018396 0.02141220 -0.00874716
v 0.04018396 0.02085684 -0.01073788
f 1 2 3
f 1 3 4
f 1 4 5
f 1 5 6
f 1 6 7
f 1 7 8
f 1 8 9
f 1 9 2
f 2 9 10
f 2 10 11
f 2 11 12
f 2 12 13
f 2 13 3
f 3 13 14
f 3 14 15
f 3 15 16
f 3 16 17
f 3 17 18
f 3 18 19
f 3 19 4
f 4 19 5
f 5 20 6
f 5 19 21
f 5 21 22
f 5 22 23
f 5 23 24
f 5 24 25
f 5 25 26
f 5 26 27
f 5 27 28
f 5 28 20
f 6 20 29
f 6 29 7
f 7 30 8
f 7 29 31
f 7 31 32
f 7 32 33
f 7 33 34
f 7 34 35
f 7 35 30
f 8 30 9
f 9 30 36
f 9 36 37
f 9 37 10
f 10 38 11
f 10 37 39
f 10 39 38
f 11 38 40
f 11 40 12
f 12 40 41
f 12 41 13
f 13 42 43
f 13 43 44
f 13 44 14
f 13 41 42
f 14 44 45
f 14 45 46
f 14 46 15
f 15 46 16
f 16 46 17
f 17 47 18
f 17 46 45
f 17 45 44
f 17 44 48
f 17 48 47
f 18 49 21
f 18 21 19
f 18 47 49
f 20 50 51
f 20 51 52
f 20 52 53
f 20 53 29
f 20 28 54
f 20 54 50
f 21 49 47
f 21 47 55
f 21 55 56
f 21 56 22
f 22 55 47
f 22 47 57
f 22 57 58
f 22 58 98
f 22 98 130
f 22 130 129
f 22 129 128
f 22 128 147
f 22 147 146
f 22 146 124
f 22 124 123
f 22 123 118
f 22 118 117
f 22 117 113
f 22 113 116
f 22 116 115
f 22 115 144
f 22 144 155
f 22 155 163
f 22 163 162
f 22 162 164
f 22 164 160
f 22 160 159
f 22 159 157
f 22 157 156
f 22 156 149
f 22 149 148
f 22 148 131
f 22 131 99
f 22 99 59
f 22 59 23
f 22 56 55
f 23 59 99
f 23 99 134
f 23 134 135
f 23 135 104
f 23 104 103
f 23 103 101
f 23 101 68
f 23 68 67
f 23 67 66
f 23 66 65
f 23 65 73
f 23 73 94
f 23 94 93
f 23 93 91
f 23 91 126
f 23 126 89
f 23 89 88
f 23 88 87
f 23 87 50
f 23 50 54
f 23 54 28
f 23 28 27
f 23 27 26
f 23 26 25
f 23 25 24
f 29 53 60
f 29 60 31
f 30 35 74
f 30 74 36
f 31 60 61
f 31 61 62
f 31 62 63
f 31 63 64
f 31 64 32
f 32 64 63
f 32 63 33
f 33 63 34
f 34 65 66
f 34 66 67
f 34 67 68
f 34 68 69
f 34 69 70
f 34 70 35
f 34 63 62
f 34 62 61
f 34 61 71
f 34 71 72
f 34 72 73
f 34 73 65
f 35 70 75
f 35 75 74
f 36 74 75
f 36 75 76
f 36 76 37
f 37 76 75
f 37 75 77
f 37 77 39
f 38 39 78
f 38 78 40
f 39 77 78
f 40 78 79
f 40 79 80
f 40 80 41
f 41 80 81
f 41 81 82
f 41 82 83
f 41 83 84
f 41 84 42
f 42 84 85
f 42 85 43
f 43 85 48
f 43 48 44
f 47 48 85
f 47 85 86
f 47 86 57
f 50 87 51
f 51 87 52
f 52 87 88
f 52 88 89
f 52 89 90
f 52 90 91
f 52 91 92
f 52 92 93
f 52 93 53
f 53 93 94
f 53 94 95
f 53 95 61
f 53 61 60
f 57 96 97
f 57 97 58
f 57 86 96
f 58 97 98
f 61 95 100
f 61 100 72
f 61 72 71
f 68 101 69
f 69 102 70
f 69 101 103
f 69 103 104
f 69 104 102
f 70 102 105
f 70 105 106
f 70 106 108
f 70 108 75
f 72 100 107
f 72 107 94
f 72 94 73
f 75 108 109
f 75 109 110
f 75 110 79
f 75 79 111
f 75 111 78
f 75 78 77
f 78 111 79
f 79 110 112
f 79 112 81
f 79 81 80
f 81 113 82
f 81 112 114
f 81 114 115
f 81 115 116
f 81 116 113
f 82 113 117
f 82 117 118
f 82 118 83
f 83 119 120
f 83 120 121
f 83 121 122
f 83 122 86
f 83 86 84
f 83 118 123
f 83 123 124
f 83 124 125
f 83 125 119
f 84 86 85
f 86 122 96
f 89 126 90
f 90 126 91
f 91 93 92
f 94 107 95
f 95 107 100
f 96 120 97
f 96 122 120
f 97 120 127
f 97 127 128
f 97 128 129
f 97 129 130
f 97 130 98
f 99 131 132
f 99 132 133
f 99 133 105
f 99 105 134
f 102 104 135
f 102 135 105
f 105 135 134
f 105 133 108
f 105 108 106
f 108 136 109
f 108 133 132
f 108 132 131
f 108 131 136
f 109 136 137
f 109 137 138
f 109 138 139
f 109 139 110
f 110 139 140
f 110 140 141
f 110 141 142
f 110 142 112
f 112 142 141
f 112 141 115
f 112 115 114
f 115 143 144
f 115 141 143
f 119 125 120
f 120 125 145
f 120 145 127
f 120 122 121
f 124 146 125
f 125 146 147
f 125 147 145
f 127 145 128
f 128 145 147
f 131 148 136
f 136 148 137
f 137 148 149
f 137 149 150
f 137 150 151
f 137 151 138
f 138 152 139
f 138 151 153
f 138 153 152
f 139 154 140
f 139 152 154
f 140 154 143
f 140 143 141
f 143 155 144
f 143 154 155
f 149 156 150
f 150 156 151
f 151 156 157
f 151 157 153
f 152 158 154
f 152 153 158
f 153 157 159
f 153 159 160
f 153 160 161
f 153 161 158
f 154 158 162
f 154 162 163
f 154 163 155
f 158 161 164
f 158 164 162
f 160 164 161

