# https://github.com/mikedh/trimesh
v 0.08598778 -0.05253134 -0.13131435
v 0.09044179 -0.05253134 -0.13066374
v 0.08143331 -0.05253134 -0.13118422
v 0.03687094 -0.00462563 -0.10906296
v 0.08593197 -0.05198270 -0.13106002
v 0.09313205 -0.04931450 -0.12927967
v 0.09044179 -0.05198270 -0.13056909
v 0.09345578 -0.05198270 -0.12951626
v 0.09342228 -0.05253134 -0.12949853
v 0.07689001 -0.05253134 -0.13092399
v 0.03687094 -0.01919992 -0.11529713
v 0.03687094 -0.00462563 -0.08039403
v 0.03857887 -0.00462563 -0.10870807
v 0.10845874 -0.03054330 -0.11658064
v 0.10394891 -0.03306144 -0.11915357
v 0.10394891 -0.03531230 -0.12052580
v 0.09044179 -0.04916444 -0.12939206
v 0.10652755 -0.03570151 -0.12022414
v 0.10675082 -0.03844943 -0.12037201
v 0.09905956 -0.04747161 -0.12573081
v 0.10131446 -0.04747161 -0.12425803
v 0.09569952 -0.05198270 -0.12800799
v 0.09878048 -0.05198270 -0.12574854
v 0.09863537 -0.05253134 -0.12566574
v 0.07291600 -0.05253134 -0.13068739
v 0.03687094 -0.02153519 -0.11617845
v 0.07240251 -0.05253134 -0.13065191
v 0.06809362 -0.05253134 -0.13033251
v 0.10832479 -0.00535247 -0.07088898
v 0.10755453 -0.00462563 -0.07088898
v 0.03687094 -0.05253134 -0.11468792
v 0.13287203 -0.02734521 -0.07088898
v 0.13062829 -0.02544136 -0.07088898
v 0.05887306 -0.00462563 -0.10446718
v 0.10845874 -0.02829713 -0.11440992
v 0.11145040 -0.03121387 -0.11594185
v 0.11999004 -0.03144833 -0.11117454
v 0.12017980 -0.03394303 -0.11129283
v 0.12243471 -0.03394303 -0.10979639
v 0.11465415 -0.03844943 -0.11511969
v 0.10910618 -0.04296052 -0.11894064
v 0.12017980 -0.03844943 -0.11132833
v 0.11230994 -0.04296052 -0.11668120
v 0.10638244 -0.04987721 -0.12018275
v 0.13349716 -0.03194071 -0.10216633
v 0.11997887 -0.04094413 -0.11120411
v 0.10054422 -0.05253134 -0.12258413
v 0.06338287 -0.05253134 -0.12989481
v 0.05438556 -0.05253134 -0.12896618
v 0.05012133 -0.05253134 -0.12803757
v 0.03687094 -0.02547418 -0.11727859
v 0.13440137 -0.00462563 -0.07088898
v 0.03687094 -0.05253134 -0.12269653
v 0.06790385 -0.05253134 -0.10703419
v 0.13299483 -0.02734521 -0.07088898
v 0.06864060 -0.05253134 -0.10696322
v 0.07240251 -0.05253134 -0.10695730
v 0.10687360 -0.00462563 -0.09137186
v 0.10845874 -0.01014961 -0.09647040
v 0.10845874 -0.01466539 -0.10097746
v 0.10845874 -0.01919992 -0.10546086
v 0.10845874 -0.02599938 -0.11215047
v 0.11157319 -0.02672622 -0.11145844
v 0.11458718 -0.02752340 -0.11065403
v 0.12922177 -0.02694193 -0.10222547
v 0.13222459 -0.02825962 -0.10140923
v 0.13349716 -0.03125607 -0.10216633
v 0.12573893 -0.03394303 -0.10754286
v 0.10652755 -0.04993817 -0.11776952
v 0.10253122 -0.05253134 -0.11776952
v 0.12885340 -0.03624078 -0.10216633
v 0.13855396 -0.02811425 -0.09431150
v 0.13409996 -0.03227833 -0.09973535
v 0.04981993 -0.05253134 -0.12794293
v 0.04959667 -0.05253134 -0.12787196
v 0.13711396 -0.00463970 -0.07088898
v 0.13533905 -0.00462563 -0.07219615
v 0.13360879 -0.02733114 -0.07088898
v 0.07338484 -0.05253134 -0.10709334
v 0.10845874 -0.00462563 -0.09092825
v 0.11157319 -0.02222451 -0.10695139
v 0.12650917 -0.02395955 -0.10069946
v 0.12650917 -0.02172276 -0.09844593
v 0.12915479 -0.02244022 -0.09772433
v 0.13068411 -0.02512718 -0.09957565
v 0.13459113 -0.02631357 -0.09841044
v 0.13855396 -0.02602283 -0.09431150
v 0.10231914 -0.05253134 -0.11562837
v 0.12885340 -0.03624078 -0.10167541
v 0.13434555 -0.03229709 -0.09523421
v 0.15090014 -0.01403703 -0.07088898
v 0.14303030 -0.02362661 -0.08536836
v 0.14352146 -0.02404865 -0.08169528
v 0.13907862 -0.02844250 -0.09072123
v 0.13741533 -0.00482727 -0.07088898
v 0.13993816 -0.00639818 -0.07088898
v 0.14356612 -0.01285533 -0.07588697
v 0.13251482 -0.00462563 -0.07429589
v 0.09389114 -0.05253134 -0.11007439
v 0.09721768 -0.05253134 -0.11058305
v 0.12922177 -0.03189381 -0.07910461
v 0.13802931 -0.02606972 -0.07088898
v 0.11172947 -0.00462563 -0.08917156
v 0.11453136 -0.00951656 -0.09260213
v 0.11748953 -0.01930309 -0.10085325
v 0.13215761 -0.02330305 -0.09673064
v 0.11304670 -0.00462563 -0.08843812
v 0.11450904 -0.00501953 -0.08802409
v 0.13594185 -0.02466763 -0.09552995
v 0.15035318 -0.01325392 -0.07088898
v 0.10133679 -0.05253134 -0.11313233
v 0.10632662 -0.04980218 -0.11089063
v 0.13908978 -0.02811894 -0.08621417
v 0.13596417 -0.03068867 -0.09072123
v 0.13873258 -0.02773442 -0.08169528
v 0.13825257 -0.02742493 -0.07801629
v 0.13370925 -0.03190788 -0.09072123
v 0.14799780 -0.01945783 -0.07088898
v 0.14795314 -0.01948128 -0.07268116
v 0.14750662 -0.01904518 -0.07641929
v 0.14665824 -0.02081773 -0.07088898
v 0.14575404 -0.02173214 -0.07268116
v 0.14363310 -0.02387045 -0.07718822
v 0.14098749 -0.02629950 -0.08169528
v 0.14577638 -0.01004176 -0.07088898
v 0.14658010 -0.01385883 -0.07476316
v 0.13729255 -0.02302169 -0.09260804
v 0.13892233 -0.01744613 -0.08480646
v 0.13690186 -0.01870755 -0.08781116
v 0.11963282 -0.00462563 -0.08387192
v 0.10078981 -0.05253134 -0.11231017
v 0.14002748 -0.02523972 -0.07088898
v 0.12005701 -0.00894446 -0.08869246
v 0.12886456 -0.01809794 -0.09304574
v 0.13427857 -0.02204632 -0.09372002
v 0.11425228 -0.00462563 -0.08773427
v 0.11723280 -0.00462563 -0.08564635
v 0.13919024 -0.02172276 -0.08959743
v 0.14912525 -0.01233013 -0.07088898
v 0.14002748 -0.02559610 -0.07268116
v 0.14125539 -0.02463480 -0.07088898
v 0.14349914 -0.02355627 -0.07268116
v 0.14335401 -0.02340152 -0.07088898
v 0.14559776 -0.02171338 -0.07088898
v 0.13186736 -0.01903580 -0.09193967
f 1 2 9
f 1 9 24
f 1 24 47
f 1 47 70
f 1 70 88
f 1 88 111
f 1 111 131
f 1 131 100
f 1 100 99
f 1 99 79
f 1 79 57
f 1 57 56
f 1 56 54
f 1 54 31
f 1 31 53
f 1 53 75
f 1 75 74
f 1 74 50
f 1 50 49
f 1 49 48
f 1 48 28
f 1 28 27
f 1 27 25
f 1 25 10
f 1 10 3
f 1 3 4
f 1 4 5
f 1 5 6
f 1 6 7
f 1 7 2
f 2 7 6
f 2 6 8
f 2 8 9
f 3 10 11
f 3 11 4
f 4 11 26
f 4 26 51
f 4 51 53
f 4 53 31
f 4 31 12
f 4 12 30
f 4 30 52
f 4 52 77
f 4 77 98
f 4 98 130
f 4 130 137
f 4 137 136
f 4 136 107
f 4 107 103
f 4 103 80
f 4 80 58
f 4 58 34
f 4 34 13
f 4 13 14
f 4 14 15
f 4 15 16
f 4 16 6
f 4 6 17
f 4 17 5
f 5 17 6
f 6 16 18
f 6 18 8
f 8 18 19
f 8 19 20
f 8 20 21
f 8 21 22
f 8 22 9
f 9 22 23
f 9 23 24
f 10 25 11
f 11 25 27
f 11 27 28
f 11 28 26
f 12 29 30
f 12 31 32
f 12 32 33
f 12 33 29
f 13 34 14
f 14 18 15
f 14 34 35
f 14 35 36
f 14 36 18
f 15 18 16
f 18 36 37
f 18 37 19
f 19 21 20
f 19 37 38
f 19 38 39
f 19 39 40
f 19 40 21
f 21 40 41
f 21 41 42
f 21 42 22
f 22 42 43
f 22 43 23
f 23 44 24
f 23 43 45
f 23 45 46
f 23 46 44
f 24 44 47
f 26 28 48
f 26 48 49
f 26 49 50
f 26 50 51
f 29 33 32
f 29 32 55
f 29 55 78
f 29 78 102
f 29 102 132
f 29 132 141
f 29 141 143
f 29 143 144
f 29 144 121
f 29 121 118
f 29 118 91
f 29 91 110
f 29 110 139
f 29 139 125
f 29 125 96
f 29 96 95
f 29 95 76
f 29 76 52
f 29 52 30
f 31 54 32
f 32 54 56
f 32 56 57
f 32 57 55
f 34 58 59
f 34 59 60
f 34 60 61
f 34 61 62
f 34 62 35
f 35 62 36
f 36 62 61
f 36 61 63
f 36 63 64
f 36 64 65
f 36 65 37
f 37 65 66
f 37 66 67
f 37 67 39
f 37 39 38
f 39 67 68
f 39 68 41
f 39 41 40
f 41 68 42
f 42 68 45
f 42 45 43
f 44 69 70
f 44 70 47
f 44 46 71
f 44 71 69
f 45 67 87
f 45 87 72
f 45 72 73
f 45 73 71
f 45 71 46
f 45 68 67
f 50 74 51
f 51 74 75
f 51 75 53
f 52 76 77
f 55 57 78
f 57 79 78
f 58 80 59
f 59 80 81
f 59 81 63
f 59 63 60
f 60 63 61
f 63 81 64
f 64 81 82
f 64 82 65
f 65 82 83
f 65 83 84
f 65 84 85
f 65 85 86
f 65 86 66
f 66 86 67
f 67 86 87
f 69 71 70
f 70 71 89
f 70 89 88
f 71 73 90
f 71 90 89
f 72 87 91
f 72 91 92
f 72 92 93
f 72 93 94
f 72 94 73
f 73 94 90
f 76 95 77
f 77 95 96
f 77 96 97
f 77 97 98
f 78 79 99
f 78 99 100
f 78 100 101
f 78 101 102
f 80 103 104
f 80 104 81
f 81 104 105
f 81 105 82
f 82 105 104
f 82 104 83
f 83 104 103
f 83 103 84
f 84 106 86
f 84 86 85
f 84 103 107
f 84 107 108
f 84 108 106
f 86 109 110
f 86 110 87
f 86 106 109
f 87 110 91
f 88 89 112
f 88 112 111
f 89 90 112
f 90 94 113
f 90 113 114
f 90 114 115
f 90 115 116
f 90 116 117
f 90 117 112
f 91 118 119
f 91 119 120
f 91 120 92
f 92 120 93
f 93 120 119
f 93 119 118
f 93 118 121
f 93 121 122
f 93 122 123
f 93 123 94
f 94 123 124
f 94 124 113
f 96 125 97
f 97 125 126
f 97 126 127
f 97 127 128
f 97 128 129
f 97 129 130
f 97 130 98
f 100 131 101
f 101 131 102
f 102 131 111
f 102 111 132
f 106 108 133
f 106 133 134
f 106 134 135
f 106 135 109
f 107 136 108
f 108 136 137
f 108 137 133
f 109 135 127
f 109 127 138
f 109 138 110
f 110 126 139
f 110 138 126
f 111 112 132
f 112 117 116
f 112 116 140
f 112 140 141
f 112 141 132
f 113 124 142
f 113 142 114
f 114 142 143
f 114 143 115
f 115 143 141
f 115 141 116
f 116 141 140
f 121 144 122
f 122 144 123
f 123 142 124
f 123 144 142
f 125 139 126
f 126 138 127
f 127 135 128
f 128 135 129
f 129 135 145
f 129 145 130
f 130 133 137
f 130 145 133
f 133 145 134
f 134 145 135
f 142 144 143

