# https://github.com/mikedh/trimesh
v 0.13170357 0.10506768 0.00944014
v 0.13166961 0.10491867 0.00944014
v 0.13170357 0.10506768 0.00929254
v 0.12419803 0.10506768 0.00944014
v 0.13060321 0.10134750 0.00944014
v 0.13081378 0.10506768 -0.01777178
v 0.13153377 0.10506768 0.00398932
v 0.07874365 0.05070191 0.00944014
v 0.09793203 0.10506768 -0.09826890
v 0.13032472 0.10042144 0.00944014
v 0.12982209 0.10134750 -0.01405004
v 0.13065755 0.10506768 -0.02228426
v 0.09187327 0.05070191 0.00944014
v 0.06231976 0.05070191 -0.09826890
v 0.11153711 0.10506768 -0.09826890
v 0.12931946 0.09711639 0.00944014
v 0.12964548 0.10134750 -0.01856252
v 0.12863342 0.09494495 0.00944014
v 0.13046056 0.10506768 -0.02677565
v 0.09196836 0.05080304 0.00944014
v 0.09471925 0.05070191 -0.05913265
v 0.08112777 0.05070191 -0.09826890
v 0.11098692 0.10234806 -0.09826890
v 0.12488406 0.10506768 -0.05546362
v 0.12885079 0.09894188 -0.01856252
v 0.12878285 0.09906429 -0.02100854
v 0.12923115 0.10265674 -0.03660189
v 0.12692855 0.09241693 0.00944014
v 0.10635453 0.06736024 -0.07128892
v 0.13041982 0.10506768 -0.02758747
v 0.12080186 0.08431130 0.00944014
v 0.12641235 0.09167182 0.00944014
v 0.12475501 0.08940991 0.00944014
v 0.12341013 0.08762167 0.00944014
v 0.12305012 0.08715332 0.00944014
v 0.09084083 0.05070191 -0.07633910
v 0.10193951 0.06276723 -0.07543239
v 0.08178663 0.05151620 -0.09826890
v 0.08285981 0.05070191 -0.09522192
v 0.11051145 0.10001696 -0.09826890
v 0.12841608 0.10506768 -0.04399265
v 0.12862664 0.10442370 -0.04288562
v 0.12421162 0.10379037 -0.05674988
v 0.11067447 0.09935169 -0.09729892
v 0.12410974 0.09490237 -0.04559521
v 0.12903418 0.10306656 -0.03988081
v 0.12989680 0.10506768 -0.03660189
v 0.13018209 0.10506768 -0.03208941
v 0.10611001 0.06777538 -0.07430427
v 0.11513025 0.08133621 -0.06021859
v 0.08465979 0.05070191 -0.09161615
v 0.08845671 0.05370893 -0.08893818
v 0.10126708 0.06366135 -0.07843719
v 0.10303988 0.06521010 -0.07703495
v 0.08227567 0.05219212 -0.09826890
v 0.08763484 0.05479997 -0.09194300
v 0.10954015 0.09674384 -0.09826890
v 0.12891871 0.10506768 -0.04217922
v 0.12922437 0.10506768 -0.04086133
v 0.12693535 0.10134750 -0.04559521
v 0.11506912 0.09984665 -0.08340303
v 0.11113635 0.09788810 -0.09429412
v 0.11551742 0.09830323 -0.08038768
v 0.12013621 0.08937266 -0.05366074
v 0.12523726 0.09715897 -0.04559521
v 0.12468708 0.09790939 -0.04929586
v 0.10907827 0.07429501 -0.07267008
v 0.11067447 0.07667933 -0.07025569
v 0.12082904 0.09198051 -0.05495755
v 0.10545116 0.06882916 -0.07718255
v 0.10622548 0.07202245 -0.07944934
v 0.10656511 0.07108575 -0.07718255
v 0.10229272 0.06666836 -0.08048256
v 0.09251854 0.05875965 -0.08815800
v 0.08300924 0.05322461 -0.09826890
v 0.10790999 0.09210292 -0.09826890
v 0.11062013 0.09488641 -0.09260722
v 0.12423879 0.09915477 -0.05231122
v 0.11987811 0.09872367 -0.06635471
v 0.11483818 0.08302865 -0.06408793
v 0.11073560 0.08085189 -0.07515827
v 0.10248290 0.07090480 -0.08532188
v 0.10288365 0.08209728 -0.09826890
v 0.10367157 0.08332137 -0.09826890
v 0.10535607 0.08596116 -0.09826890
v 0.10579757 0.08666901 -0.09826890
v 0.10603530 0.08598244 -0.09696154
v 0.10670095 0.08877657 -0.09826890
v 0.10725792 0.09029339 -0.09826890
v 0.11002241 0.08085189 -0.07754102
v 0.08361377 0.05409744 -0.09826890
v 0.10979825 0.08351830 -0.08153688
v 0.10058784 0.07874964 -0.09826890
v 0.10193951 0.08071352 -0.09826890
v 0.10203461 0.08085189 -0.09826890
v 0.10264592 0.07898382 -0.09489508
f 1 2 3
f 1 3 7
f 1 7 6
f 1 6 12
f 1 12 19
f 1 19 30
f 1 30 48
f 1 48 47
f 1 47 59
f 1 59 58
f 1 58 41
f 1 41 24
f 1 24 15
f 1 15 9
f 1 9 4
f 1 4 8
f 1 8 13
f 1 13 20
f 1 20 31
f 1 31 35
f 1 35 34
f 1 34 33
f 1 33 32
f 1 32 28
f 1 28 18
f 1 18 16
f 1 16 10
f 1 10 5
f 1 5 2
f 2 5 6
f 2 6 7
f 2 7 3
f 4 9 8
f 5 10 11
f 5 11 6
f 6 11 12
f 8 9 14
f 8 14 22
f 8 22 39
f 8 39 51
f 8 51 36
f 8 36 21
f 8 21 13
f 9 15 23
f 9 23 40
f 9 40 57
f 9 57 76
f 9 76 89
f 9 89 88
f 9 88 86
f 9 86 85
f 9 85 84
f 9 84 83
f 9 83 95
f 9 95 94
f 9 94 93
f 9 93 91
f 9 91 75
f 9 75 55
f 9 55 38
f 9 38 22
f 9 22 14
f 10 16 11
f 11 17 12
f 11 16 18
f 11 18 17
f 12 17 19
f 13 21 20
f 15 24 23
f 17 18 25
f 17 25 26
f 17 26 27
f 17 27 19
f 18 26 25
f 18 28 29
f 18 29 26
f 19 27 30
f 20 21 31
f 21 29 32
f 21 32 33
f 21 33 34
f 21 34 35
f 21 35 31
f 21 36 37
f 21 37 29
f 22 38 39
f 23 24 40
f 24 41 42
f 24 42 43
f 24 43 44
f 24 44 40
f 26 29 45
f 26 45 27
f 27 45 46
f 27 46 47
f 27 47 48
f 27 48 30
f 28 32 29
f 29 37 49
f 29 49 50
f 29 50 45
f 36 51 52
f 36 52 37
f 37 52 53
f 37 53 54
f 37 54 49
f 38 55 56
f 38 56 39
f 39 56 52
f 39 52 51
f 40 44 57
f 41 58 42
f 42 58 59
f 42 59 46
f 42 46 60
f 42 60 61
f 42 61 43
f 43 61 44
f 44 62 57
f 44 61 63
f 44 63 62
f 45 50 64
f 45 64 65
f 45 65 46
f 46 59 47
f 46 65 64
f 46 64 66
f 46 66 60
f 49 67 68
f 49 68 69
f 49 69 66
f 49 66 64
f 49 64 50
f 49 54 70
f 49 70 71
f 49 71 72
f 49 72 67
f 52 56 53
f 53 73 70
f 53 70 54
f 53 56 74
f 53 74 73
f 55 75 56
f 56 75 74
f 57 62 63
f 57 63 77
f 57 77 76
f 60 66 78
f 60 78 79
f 60 79 63
f 60 63 61
f 63 79 77
f 66 69 80
f 66 80 81
f 66 81 78
f 67 72 68
f 68 80 69
f 68 72 80
f 70 73 82
f 70 82 83
f 70 83 84
f 70 84 85
f 70 85 86
f 70 86 87
f 70 87 71
f 71 87 88
f 71 88 89
f 71 89 72
f 72 89 90
f 72 90 81
f 72 81 80
f 73 74 91
f 73 91 82
f 74 75 91
f 76 77 89
f 77 79 89
f 78 81 92
f 78 92 89
f 78 89 79
f 81 90 92
f 82 91 93
f 82 93 94
f 82 94 95
f 82 95 96
f 82 96 83
f 83 96 95
f 86 88 87
f 89 92 90

