# https://github.com/mikedh/trimesh
v 0.06565970 -0.07673482 0.14605430
v 0.06558578 -0.07673482 0.14605430
v 0.06565970 -0.07679968 0.14605430
v 0.07691347 -0.06550322 0.14426589
v 0.07691347 -0.06099948 0.14407854
v 0.07240374 -0.06550322 0.14444473
v 0.06380325 -0.07494629 0.14503235
v 0.06368824 -0.07503896 0.14502384
v 0.06558578 -0.07679968 0.14605430
v 0.08424895 -0.07256468 0.13737628
v 0.07860564 -0.07149898 0.14120857
v 0.08133283 -0.06999772 0.14038250
v 0.07703668 -0.06999772 0.14271593
v 0.08070032 -0.06550322 0.14252858
v 0.06368824 -0.07929251 0.14397633
v 0.06368824 -0.08035821 0.14280961
v 0.07125372 -0.07730937 0.14217941
v 0.08184212 -0.06128675 0.14285219
v 0.08412573 -0.05371563 0.14182173
v 0.08268821 -0.05371563 0.14182173
v 0.04531257 -0.00463766 0.11275591
v 0.06789403 -0.07001626 0.14459802
v 0.06368824 -0.07888476 0.14419775
v 0.04531257 -0.00684321 0.11324985
v 0.04531257 -0.02888010 0.11748241
v 0.06368824 -0.07894963 0.14418072
v 0.06368824 -0.07907937 0.14413814
v 0.06694937 -0.08035821 0.13893475
v 0.08142319 -0.07415860 0.13477030
v 0.08447896 -0.07269442 0.13477030
v 0.09280016 -0.06784778 0.13264126
v 0.08515254 -0.07001626 0.13808312
v 0.08295107 -0.06550322 0.14114895
v 0.08361644 -0.06297335 0.14147256
v 0.06368824 -0.08035821 0.12636481
v 0.06566791 -0.08035821 0.14088495
v 0.06665365 -0.08035821 0.13939461
v 0.08388751 -0.05997084 0.14175360
v 0.08417502 -0.05648645 0.14192393
v 0.08925976 -0.04746968 0.13785318
v 0.08884082 -0.04492126 0.13729963
v 0.08751830 -0.04492126 0.13729963
v 0.06861690 0.01431332 0.09054564
v 0.04531257 -0.00463766 0.09440348
v 0.04531257 -0.02887083 0.10900026
v 0.06795153 -0.08035821 0.13477030
v 0.06848547 -0.08035821 0.13026524
v 0.08417502 -0.07253688 0.13150010
v 0.09280016 -0.06784778 0.13212177
v 0.10310928 -0.05974843 0.12575164
v 0.10232890 -0.05944262 0.12838314
v 0.12651217 -0.00463766 0.06350667
v 0.12834398 -0.00463766 0.06354926
v 0.12913258 -0.00518441 0.06423906
v 0.06695759 -0.08035821 0.12729308
v 0.09513307 0.01431332 0.05906121
v 0.10232890 -0.05797844 0.12838314
v 0.10672362 -0.05362296 0.12405692
v 0.12002277 -0.03572840 0.10134419
v 0.12053207 -0.03073350 0.09718828
v 0.12431071 -0.02258782 0.08750536
v 0.12506643 -0.00836299 0.07457775
v 0.12426142 -0.00463766 0.07198881
v 0.12064708 -0.00463766 0.07467994
v 0.09493592 0.01431332 0.07508020
v 0.09152693 0.01431332 0.07731145
v 0.09068085 0.01431332 0.07784797
v 0.07573880 0.01431332 0.08716470
v 0.07393984 0.01431332 0.08819517
v 0.07240374 0.01431332 0.08898716
v 0.06861690 0.01431332 0.07676641
v 0.07464629 -0.07677189 0.12805103
v 0.08578505 -0.07130436 0.13009492
v 0.09222516 -0.06750491 0.12911555
v 0.09060691 -0.06871888 0.13047814
v 0.09793419 -0.06369617 0.12674806
v 0.10295320 -0.05938702 0.12228555
v 0.10720827 -0.05555975 0.12124657
v 0.10672362 -0.05542075 0.12405692
v 0.12918186 -0.00463766 0.06401765
v 0.12923115 -0.00463766 0.06531211
v 0.12876293 -0.00915995 0.06937434
v 0.12454072 -0.02302337 0.08252337
v 0.12482001 -0.01873275 0.07781391
v 0.12007206 -0.03646050 0.09615782
v 0.11151263 -0.04561628 0.10476771
v 0.10712612 -0.05019417 0.10910246
v 0.08505397 -0.06845940 0.12220890
v 0.09400769 -0.06392784 0.12224297
v 0.09701417 -0.06315868 0.12374183
v 0.09513307 0.01431332 0.07493542
v 0.11525840 -0.04508806 0.11003072
v 0.12002277 -0.03676631 0.10134419
v 0.12431071 -0.02345891 0.08750536
v 0.12876293 -0.00907655 0.06942543
v 0.12877114 -0.00463766 0.06737303
v 0.12794149 -0.00463766 0.06838646
v 0.12577288 -0.00463766 0.07056661
v 0.08344393 -0.07213839 0.12849388
v 0.10576253 -0.05401217 0.11491051
v 0.11014082 -0.04943428 0.11052466
v 0.11120870 -0.05023124 0.11353088
v 0.09970850 -0.06034152 0.12097405
v 0.11525840 -0.04525487 0.10984337
v 0.11525840 -0.04525487 0.11003072
v 0.12876293 -0.00915995 0.06942543
v 0.12905043 -0.00463766 0.06652141
v 0.12450785 -0.02353305 0.08518042
v 0.12020350 -0.03682191 0.09871268
f 1 2 9
f 1 9 3
f 1 3 4
f 1 4 5
f 1 5 2
f 2 5 6
f 2 6 7
f 2 7 8
f 2 8 9
f 3 10 11
f 3 11 12
f 3 12 13
f 3 13 14
f 3 14 4
f 3 9 15
f 3 15 16
f 3 16 17
f 3 17 10
f 4 14 18
f 4 18 5
f 5 18 19
f 5 19 20
f 5 20 21
f 5 21 6
f 6 22 7
f 6 21 22
f 7 22 21
f 7 21 8
f 8 23 9
f 8 21 24
f 8 24 25
f 8 25 23
f 9 23 26
f 9 26 27
f 9 27 15
f 10 17 28
f 10 28 29
f 10 29 30
f 10 30 31
f 10 31 32
f 10 32 12
f 10 12 11
f 12 32 14
f 12 14 13
f 14 32 33
f 14 33 34
f 14 34 18
f 15 27 25
f 15 25 16
f 16 35 55
f 16 55 47
f 16 47 46
f 16 46 28
f 16 28 37
f 16 37 36
f 16 36 17
f 16 25 35
f 17 36 37
f 17 37 28
f 18 38 39
f 18 39 19
f 18 34 38
f 19 39 40
f 19 40 41
f 19 41 42
f 19 42 20
f 20 42 21
f 21 43 71
f 21 71 44
f 21 44 45
f 21 45 25
f 21 25 24
f 21 42 41
f 21 41 43
f 23 25 26
f 25 45 35
f 25 27 26
f 28 46 29
f 29 46 47
f 29 47 30
f 30 47 48
f 30 48 49
f 30 49 31
f 31 49 50
f 31 50 51
f 31 51 32
f 32 51 34
f 32 34 33
f 34 51 38
f 35 52 53
f 35 53 54
f 35 54 55
f 35 45 44
f 35 44 56
f 35 56 52
f 38 51 39
f 39 51 57
f 39 57 40
f 40 57 58
f 40 58 41
f 41 58 59
f 41 59 60
f 41 60 61
f 41 61 62
f 41 62 63
f 41 63 64
f 41 64 65
f 41 65 66
f 41 66 67
f 41 67 68
f 41 68 69
f 41 69 70
f 41 70 43
f 43 70 69
f 43 69 68
f 43 68 67
f 43 67 66
f 43 66 65
f 43 65 91
f 43 91 56
f 43 56 71
f 44 71 56
f 47 55 72
f 47 72 48
f 48 72 73
f 48 73 74
f 48 74 75
f 48 75 49
f 49 75 74
f 49 74 76
f 49 76 50
f 50 76 77
f 50 77 78
f 50 78 79
f 50 79 51
f 51 79 58
f 51 58 57
f 52 56 53
f 53 56 80
f 53 80 54
f 54 80 81
f 54 81 82
f 54 82 83
f 54 83 84
f 54 84 55
f 55 84 83
f 55 83 85
f 55 85 86
f 55 86 87
f 55 87 88
f 55 88 89
f 55 89 77
f 55 77 90
f 55 90 72
f 56 91 81
f 56 81 80
f 58 79 105
f 58 105 92
f 58 92 59
f 59 92 105
f 59 105 93
f 59 93 94
f 59 94 61
f 59 61 60
f 61 94 106
f 61 106 95
f 61 95 96
f 61 96 97
f 61 97 62
f 62 97 98
f 62 98 63
f 63 98 91
f 63 91 64
f 64 91 65
f 72 99 73
f 72 90 76
f 72 76 99
f 73 99 74
f 74 99 76
f 76 90 77
f 77 100 101
f 77 101 102
f 77 102 78
f 77 89 103
f 77 103 100
f 78 102 104
f 78 104 105
f 78 105 79
f 81 95 106
f 81 106 82
f 81 91 107
f 81 107 95
f 82 106 108
f 82 108 83
f 83 108 109
f 83 109 85
f 85 109 104
f 85 104 102
f 85 102 101
f 85 101 86
f 86 101 87
f 87 101 88
f 88 101 89
f 89 101 100
f 89 100 103
f 91 98 97
f 91 97 96
f 91 96 107
f 93 105 109
f 93 109 108
f 93 108 94
f 94 108 106
f 95 107 96
f 104 109 105

