# https://github.com/mikedh/trimesh
v -0.11603981 -0.00462801 0.20778272
v -0.11973499 -0.00462801 0.20507959
v -0.11973499 -0.00600652 0.20507959
v -0.11603981 -0.00616125 0.20752686
v -0.11603981 -0.00462801 0.17514493
v -0.12519932 -0.00462801 0.20016280
v -0.13733935 -0.00910114 0.19116348
v -0.12454569 -0.00986074 0.20075235
v -0.13733935 -0.00927463 0.19116348
v -0.13536105 -0.01102825 0.19248722
v -0.13189246 -0.01139867 0.19506799
v -0.12889449 -0.01397752 0.19603577
v -0.11834059 -0.00901206 0.20462351
v -0.11603981 -0.00967318 0.20385595
v -0.11603981 -0.02886923 0.15344201
v -0.13407993 -0.05252903 0.11019190
v -0.15893520 -0.05252903 0.09415110
v -0.18014757 -0.04303885 0.09415110
v -0.13177916 -0.00462801 0.16845939
v -0.12997515 -0.00462801 0.19577992
v -0.14187989 -0.00909177 0.18669163
v -0.14667314 -0.01326951 0.18248676
v -0.14676030 -0.01590463 0.18253125
v -0.14154871 -0.01734410 0.18646915
v -0.15564092 -0.02740631 0.17332059
v -0.14200190 -0.01433856 0.18676950
v -0.16914921 -0.03631508 0.15972707
v -0.14224592 -0.02274093 0.18223090
v -0.12604468 -0.01416039 0.19635837
v -0.12604468 -0.01607343 0.19339940
v -0.12153900 -0.01419321 0.19652523
v -0.11702462 -0.01281938 0.19882791
v -0.11702462 -0.01620940 0.19339940
v -0.11702462 -0.02661859 0.17671341
v -0.11702462 -0.02802524 0.17445524
v -0.11603981 -0.02800648 0.17442186
v -0.16662185 -0.03639010 0.15986055
v -0.11603981 -0.02886923 0.17299800
v -0.13407993 -0.05252903 0.13373028
v -0.20502026 -0.05252903 0.09415110
v -0.18465324 -0.04199793 0.09415110
v -0.13207547 -0.00462801 0.16837040
v -0.13378361 -0.00462801 0.19191991
v -0.16933222 -0.03125115 0.16021653
v -0.13424551 -0.00462801 0.19098549
v -0.14203675 -0.00898861 0.18437785
v -0.19607864 -0.04059129 0.11114857
v -0.18733747 -0.03593528 0.12576550
v -0.18699759 -0.03612753 0.12824616
v -0.18278822 -0.03582744 0.13800190
v -0.17845686 -0.03553673 0.14710133
v -0.15135312 -0.01753634 0.17811504
v -0.15143155 -0.02041528 0.17814839
v -0.14655986 -0.01887265 0.18229765
v -0.15603308 -0.02492592 0.17368768
v -0.16517515 -0.03232020 0.16471061
v -0.17373331 -0.03664330 0.15564455
v -0.17324527 -0.04067099 0.15051639
v -0.17022987 -0.04096639 0.15108372
v -0.16662185 -0.04128524 0.15156205
v -0.16662185 -0.04001925 0.15382022
v -0.16662185 -0.03795617 0.15731315
v -0.15761051 -0.03279846 0.16585638
v -0.13957040 -0.02432107 0.17987262
v -0.15512672 -0.04520978 0.14605567
v -0.14859046 -0.05252903 0.13449784
v -0.12153900 -0.02886923 0.17300911
v -0.14408478 -0.05036748 0.13805752
v -0.11702462 -0.02886923 0.17306474
v -0.13506472 -0.04533169 0.14625590
v -0.16211618 -0.04149154 0.15181790
v -0.16211618 -0.04008958 0.15406494
v -0.16211618 -0.03642292 0.15993841
v -0.13407993 -0.04636323 0.14448719
v -0.13407993 -0.04838411 0.14100538
v -0.13407993 -0.05018462 0.13784616
v -0.13506472 -0.05021744 0.13790178
v -0.13633713 -0.05252903 0.13397500
v -0.20506383 -0.05198044 0.09415110
v -0.20465423 -0.05252903 0.09502990
v -0.18916763 -0.04228864 0.09415110
v -0.13313870 -0.00462801 0.16830365
v -0.17373331 -0.03556018 0.15564455
v -0.16507930 -0.02943189 0.16474399
v -0.13453311 -0.00462801 0.18889418
v -0.13482943 -0.00462801 0.18673612
v -0.13957040 -0.00746944 0.18437785
v -0.14215004 -0.00894641 0.17987262
v -0.19607864 -0.04059129 0.10913512
v -0.20156911 -0.04429077 0.09420672
v -0.20114207 -0.04438923 0.09871194
v -0.19584334 -0.04110705 0.11416318
v -0.19243577 -0.03967227 0.12126028
v -0.19176470 -0.04017398 0.12409689
v -0.15597208 -0.02181255 0.17366542
v -0.16057362 -0.02596216 0.16919358
v -0.19176470 -0.04155718 0.12409689
v -0.18292767 -0.04187603 0.13785729
v -0.17800367 -0.04083510 0.14623366
v -0.17149355 -0.04191354 0.14872544
v -0.18746819 -0.05026902 0.12435275
v -0.18285795 -0.04988922 0.12834626
v -0.18014757 -0.05018931 0.12894696
v -0.16662185 -0.04470807 0.14504339
v -0.16041674 -0.04982827 0.13724546
v -0.16662185 -0.04303416 0.14830272
v -0.15761051 -0.05007678 0.13763480
v -0.15761051 -0.04881079 0.13989297
v -0.15310483 -0.05215861 0.13477594
v -0.16211618 -0.04358276 0.14830272
v -0.15310483 -0.05029247 0.13795739
v -0.15761051 -0.04519103 0.14602229
v -0.15310483 -0.05252903 0.13411961
v -0.14451183 -0.05252903 0.13453120
v -0.13407993 -0.04532231 0.14623366
v -0.13957912 -0.04898428 0.14030455
v -0.13957912 -0.05033466 0.13805752
v -0.13506472 -0.04892801 0.14014882
v -0.13957912 -0.05252903 0.13429759
v -0.20450608 -0.05198044 0.09547485
v -0.19604379 -0.04411259 0.11466375
v -0.20118564 -0.04746979 0.10274994
v -0.20270208 -0.04746979 0.09871194
v -0.20410520 -0.04781207 0.09415110
v -0.20299837 -0.05252903 0.09818911
v -0.20287636 -0.05198044 0.09871194
v -0.19604379 -0.04546766 0.11466375
v -0.19363843 -0.04267312 0.09415110
v -0.13373132 -0.00462801 0.17085105
v -0.19814411 -0.04309512 0.09415110
v -0.19818769 -0.04309981 0.09415110
v -0.20153426 -0.04428608 0.09415110
v -0.14183630 -0.00913866 0.16407654
v -0.14414579 -0.01032962 0.16634583
v -0.20158654 -0.04430953 0.09415110
v -0.20396575 -0.04757294 0.09415110
v -0.20072375 -0.04478779 0.10213812
v -0.19016114 -0.04302010 0.12566538
v -0.19143353 -0.04974387 0.11902435
v -0.19216560 -0.05153969 0.11654370
v -0.19201745 -0.05252903 0.11598751
v -0.18014757 -0.05252903 0.12429713
v -0.16201159 -0.05252903 0.13127187
v -0.18914150 -0.05252903 0.11866839
v -0.18467067 -0.05252903 0.12236156
v -0.18447024 -0.05070508 0.12582111
v -0.18249191 -0.05252903 0.12334047
v -0.15761051 -0.05252903 0.13294047
v -0.15761051 -0.05158658 0.13477594
v -0.14408478 -0.05252903 0.13452008
v -0.14030246 -0.05252903 0.13434210
v -0.20111594 -0.05252903 0.10160418
v -0.20106363 -0.05198044 0.10202689
v -0.19989583 -0.05252903 0.10362875
v -0.19634010 -0.05066757 0.11063686
v -0.19113722 -0.04456272 0.12306236
v -0.19693272 -0.05252903 0.10840093
v -0.19498055 -0.05252903 0.11147116
f 1 2 3
f 1 3 4
f 1 4 14
f 1 14 36
f 1 36 38
f 1 38 15
f 1 15 5
f 1 5 19
f 1 19 42
f 1 42 82
f 1 82 129
f 1 129 86
f 1 86 85
f 1 85 45
f 1 45 43
f 1 43 20
f 1 20 6
f 1 6 2
f 2 6 7
f 2 7 9
f 2 9 3
f 3 8 4
f 3 9 10
f 3 10 11
f 3 11 8
f 4 8 12
f 4 12 13
f 4 13 14
f 5 15 16
f 5 16 17
f 5 17 18
f 5 18 19
f 6 20 7
f 7 20 21
f 7 21 22
f 7 22 23
f 7 23 9
f 8 11 24
f 8 24 25
f 8 25 12
f 9 23 26
f 9 26 10
f 10 26 11
f 11 26 24
f 12 25 27
f 12 27 13
f 13 28 29
f 13 29 14
f 13 27 28
f 14 30 31
f 14 31 32
f 14 32 33
f 14 33 34
f 14 34 35
f 14 35 36
f 14 29 37
f 14 37 30
f 15 38 39
f 15 39 16
f 16 39 78
f 16 78 119
f 16 119 151
f 16 151 150
f 16 150 114
f 16 114 66
f 16 66 113
f 16 113 148
f 16 148 143
f 16 143 142
f 16 142 147
f 16 147 145
f 16 145 144
f 16 144 141
f 16 141 158
f 16 158 157
f 16 157 154
f 16 154 152
f 16 152 125
f 16 125 80
f 16 80 40
f 16 40 17
f 17 40 79
f 17 79 124
f 17 124 136
f 17 136 135
f 17 135 132
f 17 132 131
f 17 131 130
f 17 130 128
f 17 128 81
f 17 81 41
f 17 41 18
f 18 41 19
f 19 41 42
f 20 43 21
f 21 44 22
f 21 43 45
f 21 45 46
f 21 46 47
f 21 47 48
f 21 48 49
f 21 49 50
f 21 50 51
f 21 51 44
f 22 52 23
f 22 44 52
f 23 52 53
f 23 53 26
f 24 26 54
f 24 54 55
f 24 55 25
f 25 55 56
f 25 56 27
f 26 53 55
f 26 55 54
f 27 56 57
f 27 57 58
f 27 58 59
f 27 59 60
f 27 60 61
f 27 61 62
f 27 62 37
f 27 37 28
f 28 37 29
f 30 37 63
f 30 63 31
f 31 33 32
f 31 63 64
f 31 64 65
f 31 65 66
f 31 66 33
f 33 67 34
f 33 66 67
f 34 67 66
f 34 66 68
f 34 68 35
f 35 69 36
f 35 68 70
f 35 70 69
f 36 69 38
f 37 62 71
f 37 71 112
f 37 112 72
f 37 72 73
f 37 73 63
f 38 69 74
f 38 74 75
f 38 75 76
f 38 76 39
f 39 76 77
f 39 77 78
f 40 80 79
f 41 81 82
f 41 82 42
f 44 83 84
f 44 84 52
f 44 51 83
f 45 85 46
f 46 85 86
f 46 86 87
f 46 87 88
f 46 88 47
f 47 89 90
f 47 90 91
f 47 91 92
f 47 92 49
f 47 49 48
f 47 88 86
f 47 86 89
f 49 92 93
f 49 93 94
f 49 94 50
f 50 94 51
f 51 94 83
f 52 95 53
f 52 84 95
f 53 95 55
f 55 95 96
f 55 96 56
f 56 96 84
f 56 84 83
f 56 83 57
f 57 83 94
f 57 94 97
f 57 97 98
f 57 98 99
f 57 99 58
f 58 100 59
f 58 99 101
f 58 101 102
f 58 102 103
f 58 103 100
f 59 100 104
f 59 104 105
f 59 105 106
f 59 106 60
f 60 106 107
f 60 107 108
f 60 108 61
f 61 108 109
f 61 109 110
f 61 110 62
f 62 110 111
f 62 111 71
f 63 73 112
f 63 112 65
f 63 65 64
f 65 112 66
f 66 109 113
f 66 114 68
f 66 112 111
f 66 111 109
f 68 114 70
f 69 70 115
f 69 115 74
f 70 114 116
f 70 116 117
f 70 117 115
f 71 111 112
f 72 112 73
f 74 118 75
f 74 115 117
f 74 117 119
f 74 119 118
f 75 118 119
f 75 119 77
f 75 77 76
f 77 119 78
f 79 80 120
f 79 120 121
f 79 121 122
f 79 122 123
f 79 123 124
f 80 125 126
f 80 126 127
f 80 127 120
f 81 128 82
f 82 128 130
f 82 130 131
f 82 131 132
f 82 132 90
f 82 90 129
f 84 96 95
f 86 88 87
f 86 129 133
f 86 133 134
f 86 134 89
f 89 134 133
f 89 133 90
f 90 132 135
f 90 135 136
f 90 136 91
f 90 133 129
f 91 137 92
f 91 136 137
f 92 137 123
f 92 123 122
f 92 122 121
f 92 121 94
f 92 94 93
f 94 121 127
f 94 127 97
f 97 127 138
f 97 138 98
f 98 138 139
f 98 139 99
f 99 139 140
f 99 140 141
f 99 141 101
f 100 103 142
f 100 142 143
f 100 143 104
f 101 141 144
f 101 144 145
f 101 145 146
f 101 146 102
f 102 146 145
f 102 145 147
f 102 147 103
f 103 147 142
f 104 143 105
f 105 143 148
f 105 148 149
f 105 149 106
f 106 149 107
f 107 149 113
f 107 113 108
f 108 113 109
f 109 111 110
f 113 149 148
f 114 150 117
f 114 117 116
f 117 150 151
f 117 151 119
f 120 127 121
f 123 137 124
f 124 137 136
f 125 152 153
f 125 153 126
f 126 153 127
f 127 153 152
f 127 152 154
f 127 154 155
f 127 155 138
f 138 155 156
f 138 156 139
f 139 156 155
f 139 155 157
f 139 157 158
f 139 158 140
f 140 158 141
f 154 157 155

