# https://github.com/mikedh/trimesh
v 0.06238486 0.05069659 -0.12522645
v 0.04977061 0.05069659 -0.12522645
v 0.00514917 -0.00461872 -0.12298779
v 0.05883342 0.04572541 -0.12522645
v 0.03745108 0.05069659 -0.15918732
v -0.02656328 -0.00461872 -0.12298779
v -0.06257874 0.05069659 -0.19510588
v -0.06288820 0.05061876 -0.19516931
v -0.07028581 0.04524872 -0.19200616
v -0.07921599 0.04080287 -0.19185208
v -0.08816090 -0.03539918 -0.12298779
v 0.00716805 0.01778563 -0.15627794
v 0.02028333 0.02708592 -0.15586102
v 0.00923112 -0.00021179 -0.12522645
v 0.04921063 0.03443082 -0.12522645
v 0.05153896 0.03656132 -0.12522645
v 0.05234946 0.03745633 -0.12522645
v 0.05358731 0.03885721 -0.12522645
v 0.05585669 0.04158114 -0.12522645
v 0.05659350 0.04260261 -0.12522645
v 0.00357239 -0.00563047 -0.12298779
v -0.03387248 -0.01796600 -0.14661627
v -0.03810179 -0.01815084 -0.15158305
v 0.02930193 0.03626947 -0.15579757
v 0.03040715 0.03927552 -0.15727492
v 0.03333966 0.04582269 -0.15978549
v 0.03450383 0.04882875 -0.16108158
v 0.03543222 0.05069659 -0.16148944
v 0.05212842 0.04040401 -0.12912376
v 0.03865946 0.03581224 -0.14275523
v -0.06278504 0.05069659 -0.19527808
v -0.06543757 0.04970430 -0.19604847
v -0.08092540 0.03950901 -0.19442612
v -0.08092540 0.03953819 -0.19391856
v -0.08092540 0.03826378 -0.19090948
v -0.06543757 0.04970430 -0.19728111
v -0.08816090 -0.00461872 -0.16513295
v -0.08816090 -0.04868809 -0.12298779
v -0.00609460 0.00859235 -0.15644108
v 0.01546456 0.02729994 -0.16024774
v 0.02059279 0.03137612 -0.16068278
v 0.01729186 0.02598662 -0.15723866
v 0.02234640 0.03050057 -0.15802719
v 0.02516103 0.03130802 -0.15630512
v 0.02140328 0.02618119 -0.15286100
v 0.02598626 0.03060758 -0.15385798
v 0.03017137 0.03090916 -0.14804830
v 0.04786963 0.03569550 -0.12949537
v 0.04685283 0.03685317 -0.13249537
v 0.05299785 0.03944091 -0.12680352
v 0.04278562 0.03632784 -0.13767062
v -0.03432930 -0.02656585 -0.12298779
v -0.03764496 -0.02291773 -0.13880354
v -0.03863229 -0.02239239 -0.14182168
v -0.03556715 -0.01953226 -0.14500298
v -0.04264056 -0.02264533 -0.14702414
v -0.03687868 -0.01885128 -0.14858304
v -0.03989961 -0.01997004 -0.14979756
v -0.04367210 -0.02215892 -0.14935344
v -0.04697302 -0.02271343 -0.15165557
v -0.04110799 -0.01900693 -0.15248035
v -0.02996736 0.04997670 -0.21426606
v -0.02643066 0.05057985 -0.21264370
v -0.01125230 0.00453564 -0.15593353
v 0.02921351 0.04086125 -0.16028400
v 0.03350176 0.05069659 -0.16311181
v 0.02499893 0.03596789 -0.16061933
v -0.02625382 0.05069659 -0.21261650
v -0.06334502 0.05069659 -0.19849561
v -0.08092540 0.03811785 -0.19858624
v -0.08816090 -0.00461872 -0.17777650
v -0.07868548 0.04047211 -0.19671917
v -0.06334502 0.05069659 -0.19864969
v -0.05865889 0.05069659 -0.20790350
v -0.08612730 -0.04856161 -0.12298779
v -0.08816090 -0.04508860 -0.13460717
v 0.02395266 0.03369146 -0.15963143
v -0.03455035 -0.02668259 -0.12298779
v -0.04022381 -0.02200326 -0.14524770
v -0.05084866 -0.02751923 -0.14345312
v -0.04592675 -0.02319012 -0.14935344
v -0.03651027 -0.02765542 -0.12298779
v -0.04022381 -0.02655612 -0.13167967
v -0.04162376 -0.02762624 -0.13041985
v -0.04608885 -0.03214991 -0.12298779
v -0.06666069 -0.04174206 -0.12298779
v -0.05603583 -0.03172187 -0.13817818
v -0.04936030 -0.02461046 -0.14935344
v -0.07921599 -0.03597315 -0.15104832
v -0.06947532 -0.03175106 -0.15171900
v -0.08222219 -0.03657631 -0.15230814
v -0.08543470 -0.03722811 -0.15321448
v -0.08786619 -0.03609962 -0.15605134
v -0.08092540 0.01185135 -0.20280075
v -0.08092540 0.01404995 -0.20504850
v -0.04768036 0.03626947 -0.20988840
v -0.03295883 0.04917897 -0.21492767
v -0.03198623 0.05069659 -0.21532649
v -0.03060102 0.05069659 -0.21483706
v -0.02646013 0.05069659 -0.21275246
v -0.08092540 0.03609436 -0.20345333
v -0.07790446 0.03991760 -0.19972825
v -0.07411724 0.04043320 -0.20561950
v -0.07351305 0.03996624 -0.20794882
v -0.07990859 0.03691154 -0.20345333
v -0.08816090 -0.03579804 -0.15625980
v -0.08092540 0.03335097 -0.20774037
v -0.08092540 0.03193063 -0.20842917
v -0.08092540 0.02918724 -0.20965275
v -0.08092540 0.02482895 -0.20953491
v -0.08092540 0.02016907 -0.20840199
v -0.08092540 0.01630693 -0.20663461
v -0.06016199 0.04914006 -0.20922676
v -0.05829048 0.05069659 -0.20844731
v -0.05715579 0.05023936 -0.21119355
v -0.08543470 -0.04851297 -0.12298779
v -0.08816090 -0.04083732 -0.14748636
v -0.08732094 -0.04528317 -0.13379145
v -0.04032696 -0.02945517 -0.12298779
v -0.07192153 -0.04407686 -0.12298779
v -0.06128195 -0.03593424 -0.13279447
v -0.07438249 -0.04513725 -0.12298779
v -0.07569402 -0.04568203 -0.12298779
v -0.06953426 -0.04074977 -0.12917814
v -0.06288820 -0.03364808 -0.14033528
v -0.05524007 -0.02752896 -0.14798485
v -0.05829048 -0.02818076 -0.14943501
v -0.07629821 -0.03542836 -0.14947127
v -0.08575889 -0.03941698 -0.14902715
v -0.08816090 -0.03985476 -0.14968880
v -0.08816090 -0.03762697 -0.15390331
v -0.08816090 -0.03640120 -0.15574320
v -0.07737395 0.01723112 -0.20622677
v -0.03581766 0.04864391 -0.21511802
v -0.05971990 0.03102590 -0.21045940
v -0.06739750 0.02742641 -0.20998810
v -0.03581766 0.05069659 -0.21557121
v -0.07906863 0.03627920 -0.20640801
v -0.07033002 0.04094880 -0.21091257
v -0.07659293 0.03755361 -0.20792161
v -0.06521653 0.04503470 -0.21032344
v -0.07821392 0.03500479 -0.20940804
v -0.07903916 0.03199873 -0.21039596
v -0.07930440 0.02918724 -0.21046846
v -0.07914231 0.02644385 -0.21038689
v -0.08076330 0.02483868 -0.20958930
v -0.07641610 0.02644385 -0.21038689
v -0.07641610 0.02418688 -0.20957118
v -0.07037423 0.02708592 -0.21015124
v -0.05610951 0.05069659 -0.21143825
v -0.08543470 -0.04728721 -0.12679444
v -0.08161800 -0.04778335 -0.12298779
v -0.08816090 -0.04061357 -0.14810269
v -0.08748304 -0.04078868 -0.14731416
v -0.07663714 -0.04606144 -0.12298779
v -0.07780131 -0.04556528 -0.12542586
v -0.07629821 -0.03722811 -0.14494859
v -0.04386367 0.04526818 -0.21461047
v -0.04776878 0.04483041 -0.21477360
v -0.04031223 0.04796293 -0.21524492
v -0.04031223 0.05069659 -0.21547151
v -0.05304437 0.04459693 -0.21484612
v -0.07520772 0.03682398 -0.21093071
v -0.06699962 0.04255397 -0.21149264
v -0.07184785 0.03828324 -0.21167390
v -0.05854100 0.04746678 -0.21240804
v -0.07659293 0.03357472 -0.21111198
v -0.07189206 0.03369146 -0.21231741
v -0.06739750 0.03369146 -0.21229023
v -0.04934556 0.04465530 -0.21483706
v -0.05384013 0.05069659 -0.21256211
v -0.08431474 -0.04497187 -0.13297573
v -0.08091066 -0.04761797 -0.12298779
v -0.08228114 -0.04556528 -0.12996666
v -0.07697608 -0.04618790 -0.12298779
v -0.04704671 0.05069659 -0.21494582
v -0.05304437 0.04588107 -0.21484612
v -0.06288820 0.03820541 -0.21346848
v -0.06739750 0.03820541 -0.21316938
v -0.05428222 0.04732086 -0.21435669
v -0.06288820 0.04271936 -0.21316938
v -0.05008238 0.05069659 -0.21423885
v -0.04776878 0.05037556 -0.21490051
v -0.04776878 0.05069659 -0.21479174
v -0.05108444 0.04888712 -0.21463767
f 1 2 6
f 1 6 3
f 1 3 4
f 1 4 5
f 1 5 28
f 1 28 66
f 1 66 68
f 1 68 100
f 1 100 99
f 1 99 98
f 1 98 137
f 1 137 161
f 1 161 176
f 1 176 184
f 1 184 182
f 1 182 171
f 1 171 150
f 1 150 114
f 1 114 74
f 1 74 73
f 1 73 69
f 1 69 31
f 1 31 7
f 1 7 2
f 2 7 8
f 2 8 9
f 2 9 10
f 2 10 11
f 2 11 6
f 3 12 13
f 3 13 14
f 3 14 15
f 3 15 16
f 3 16 17
f 3 17 18
f 3 18 19
f 3 19 20
f 3 20 4
f 3 6 11
f 3 11 38
f 3 38 75
f 3 75 116
f 3 116 152
f 3 152 173
f 3 173 175
f 3 175 155
f 3 155 123
f 3 123 122
f 3 122 120
f 3 120 86
f 3 86 85
f 3 85 119
f 3 119 82
f 3 82 78
f 3 78 52
f 3 52 21
f 3 21 22
f 3 22 23
f 3 23 12
f 4 20 5
f 5 24 25
f 5 25 26
f 5 26 27
f 5 27 28
f 5 20 19
f 5 19 29
f 5 29 30
f 5 30 24
f 7 31 8
f 8 31 32
f 8 32 10
f 8 10 9
f 10 33 34
f 10 34 35
f 10 35 11
f 10 32 36
f 10 36 33
f 11 35 37
f 11 37 71
f 11 71 106
f 11 106 132
f 11 132 131
f 11 131 130
f 11 130 153
f 11 153 117
f 11 117 76
f 11 76 38
f 12 39 40
f 12 40 41
f 12 41 42
f 12 42 13
f 12 23 39
f 13 42 41
f 13 41 43
f 13 43 44
f 13 44 45
f 13 45 14
f 14 45 44
f 14 44 46
f 14 46 47
f 14 47 48
f 14 48 15
f 15 48 16
f 16 48 17
f 17 48 49
f 17 49 18
f 18 49 50
f 18 50 19
f 19 50 51
f 19 51 29
f 21 52 53
f 21 53 54
f 21 54 55
f 21 55 22
f 22 55 56
f 22 56 57
f 22 57 23
f 23 57 58
f 23 58 59
f 23 59 60
f 23 60 61
f 23 61 62
f 23 62 63
f 23 63 64
f 23 64 39
f 24 44 25
f 24 30 44
f 25 44 65
f 25 65 26
f 26 65 27
f 27 66 28
f 27 65 67
f 27 67 68
f 27 68 66
f 29 51 30
f 30 51 44
f 31 69 32
f 32 69 73
f 32 73 36
f 33 70 71
f 33 71 34
f 33 36 72
f 33 72 70
f 34 71 37
f 34 37 35
f 36 73 74
f 36 74 72
f 38 76 75
f 39 64 63
f 39 63 40
f 40 63 41
f 41 67 77
f 41 77 44
f 41 44 43
f 41 63 68
f 41 68 67
f 44 77 67
f 44 67 65
f 44 51 48
f 44 48 46
f 46 48 47
f 48 51 49
f 49 51 50
f 52 78 53
f 53 78 56
f 53 56 54
f 54 79 55
f 54 56 79
f 55 79 56
f 56 80 81
f 56 81 59
f 56 59 58
f 56 58 57
f 56 78 82
f 56 82 83
f 56 83 84
f 56 84 85
f 56 85 86
f 56 86 87
f 56 87 80
f 59 81 60
f 60 81 88
f 60 88 89
f 60 89 90
f 60 90 91
f 60 91 92
f 60 92 93
f 60 93 94
f 60 94 95
f 60 95 61
f 61 95 96
f 61 96 62
f 62 96 95
f 62 95 97
f 62 97 98
f 62 98 99
f 62 99 100
f 62 100 63
f 63 100 68
f 70 101 71
f 70 72 102
f 70 102 103
f 70 103 104
f 70 104 105
f 70 105 101
f 71 101 107
f 71 107 108
f 71 108 109
f 71 109 110
f 71 110 111
f 71 111 112
f 71 112 106
f 72 74 113
f 72 113 102
f 74 114 115
f 74 115 113
f 75 76 116
f 76 117 118
f 76 118 116
f 80 87 81
f 81 87 88
f 82 119 83
f 83 119 84
f 84 119 85
f 86 120 121
f 86 121 87
f 87 121 120
f 87 120 122
f 87 122 123
f 87 123 124
f 87 124 88
f 88 124 125
f 88 125 126
f 88 126 127
f 88 127 89
f 89 127 128
f 89 128 129
f 89 129 91
f 89 91 90
f 91 129 92
f 92 129 130
f 92 130 131
f 92 131 132
f 92 132 93
f 93 132 95
f 93 95 94
f 95 132 106
f 95 106 112
f 95 112 133
f 95 133 97
f 97 134 98
f 97 133 135
f 97 135 136
f 97 136 134
f 98 134 137
f 101 105 138
f 101 138 107
f 102 113 103
f 103 113 104
f 104 139 140
f 104 140 138
f 104 138 105
f 104 113 141
f 104 141 139
f 107 138 142
f 107 142 143
f 107 143 108
f 108 143 109
f 109 143 144
f 109 144 110
f 110 144 145
f 110 145 146
f 110 146 111
f 111 146 145
f 111 145 147
f 111 147 148
f 111 148 149
f 111 149 136
f 111 136 112
f 112 136 135
f 112 135 133
f 113 115 141
f 114 150 115
f 115 150 139
f 115 139 141
f 116 151 152
f 116 118 151
f 117 153 154
f 117 154 118
f 118 154 151
f 123 155 156
f 123 156 124
f 124 156 157
f 124 157 125
f 125 157 126
f 126 157 128
f 126 128 127
f 128 157 129
f 129 156 154
f 129 154 130
f 129 157 156
f 130 154 153
f 134 136 158
f 134 158 159
f 134 159 160
f 134 160 137
f 136 149 158
f 137 160 162
f 137 162 161
f 138 140 163
f 138 163 142
f 139 164 165
f 139 165 163
f 139 163 140
f 139 150 166
f 139 166 164
f 142 163 143
f 143 163 167
f 143 167 144
f 144 167 168
f 144 168 145
f 145 168 147
f 147 168 169
f 147 169 170
f 147 170 149
f 147 149 148
f 149 170 159
f 149 159 158
f 150 171 166
f 151 172 152
f 151 154 172
f 152 172 174
f 152 174 173
f 154 156 174
f 154 174 172
f 155 175 174
f 155 174 156
f 159 170 160
f 160 170 162
f 161 162 177
f 161 177 176
f 162 178 179
f 162 179 177
f 162 170 178
f 163 165 179
f 163 179 167
f 164 166 180
f 164 180 181
f 164 181 165
f 165 181 179
f 166 171 182
f 166 182 180
f 167 179 168
f 168 179 178
f 168 178 169
f 169 178 170
f 173 174 175
f 176 183 184
f 176 177 183
f 177 180 185
f 177 185 183
f 177 179 180
f 179 181 180
f 180 182 185
f 182 184 185
f 183 185 184

