# https://github.com/mikedh/trimesh
v -0.08816414 -0.04868613 -0.12297873
v -0.08816414 -0.03540140 -0.12297873
v -0.08613262 -0.04856421 -0.12297873
v -0.02785502 -0.05253134 -0.10396006
v -0.08816414 -0.05224061 -0.11325015
v -0.08816414 -0.04776703 -0.07088898
v -0.00739300 -0.00462563 -0.07088898
v -0.02653331 -0.00462563 -0.12297873
v -0.08543505 -0.04851263 -0.12297873
v 0.03685978 -0.02069581 -0.11586075
v -0.02785502 -0.05253134 -0.09590390
v -0.08816414 -0.05253134 -0.11229666
v -0.08161678 -0.04779048 -0.12297873
v -0.08091921 -0.04762166 -0.12297873
v -0.08816414 -0.05253134 -0.07088898
v 0.02844001 -0.00462563 -0.07088898
v 0.00515100 -0.00462563 -0.12297873
v 0.03629684 -0.02069581 -0.11593214
v 0.01166164 -0.00462563 -0.12051089
v 0.03685978 -0.01919524 -0.11528969
v 0.03685978 -0.02069581 -0.10471979
v -0.07697856 -0.04618674 -0.12297873
v -0.07664813 -0.04606013 -0.12297873
v -0.07570580 -0.04568499 -0.12297873
v -0.07439633 -0.04513634 -0.12297873
v -0.07192424 -0.04408126 -0.12297873
v -0.06666188 -0.04175068 -0.12297873
v -0.02786726 -0.05253134 -0.09198288
v -0.05459516 -0.05253134 -0.07088898
v 0.02828091 -0.00473818 -0.07088898
v 0.03685978 -0.00957283 -0.08784262
v 0.03685978 -0.00465377 -0.08043401
v 0.03685978 -0.00462563 -0.08039831
v 0.00357229 -0.00564321 -0.12297873
v -0.04110883 -0.02982584 -0.12297873
v -0.03650733 -0.02766408 -0.12297873
v -0.03454924 -0.02668871 -0.12297873
v 0.03685978 -0.00462563 -0.10906400
v 0.02692249 -0.00562445 -0.07088898
v -0.02818545 -0.05253134 -0.09171264
v -0.04077841 -0.05253134 -0.08153536
v -0.03675209 -0.05253134 -0.08478332
f 1 2 8
f 1 8 17
f 1 17 34
f 1 34 37
f 1 37 36
f 1 36 35
f 1 35 27
f 1 27 26
f 1 26 25
f 1 25 24
f 1 24 23
f 1 23 22
f 1 22 14
f 1 14 13
f 1 13 9
f 1 9 3
f 1 3 4
f 1 4 5
f 1 5 12
f 1 12 15
f 1 15 6
f 1 6 2
f 2 6 7
f 2 7 8
f 3 9 4
f 4 10 21
f 4 21 11
f 4 11 28
f 4 28 40
f 4 40 42
f 4 42 41
f 4 41 29
f 4 29 15
f 4 15 12
f 4 12 5
f 4 9 13
f 4 13 14
f 4 14 10
f 6 15 29
f 6 29 39
f 6 39 30
f 6 30 16
f 6 16 7
f 7 16 33
f 7 33 38
f 7 38 19
f 7 19 17
f 7 17 8
f 10 18 17
f 10 17 19
f 10 19 20
f 10 20 38
f 10 38 33
f 10 33 32
f 10 32 31
f 10 31 21
f 10 14 22
f 10 22 23
f 10 23 24
f 10 24 25
f 10 25 26
f 10 26 27
f 10 27 18
f 11 21 28
f 16 30 21
f 16 21 31
f 16 31 32
f 16 32 33
f 17 18 34
f 18 27 35
f 18 35 36
f 18 36 37
f 18 37 34
f 19 38 20
f 21 30 39
f 21 39 28
f 28 39 40
f 29 41 39
f 39 41 42
f 39 42 40

