# https://github.com/mikedh/trimesh
v -0.06709662 -0.08037534 0.06031767
v -0.05615303 -0.05253226 0.10645401
v -0.05615303 -0.05253226 0.05833049
v -0.05615303 -0.08035541 0.05260431
v -0.04965121 -0.14654122 0.06031767
v -0.04739969 -0.14928071 0.06588697
v -0.04276647 -0.14915121 0.07861401
v -0.01512031 -0.12962618 0.10836274
v 0.00672858 -0.08036537 0.11938369
v -0.00465919 -0.05253226 0.11607609
v -0.03383699 -0.14463854 0.08764780
v -0.02069549 -0.13601166 0.10151877
v -0.04030052 -0.05253226 0.05660480
v -0.02393492 -0.14262626 0.06031767
v -0.02401150 -0.14530598 0.06031767
v -0.02464713 -0.14626230 0.06031767
v -0.02552783 -0.14738798 0.06031767
v -0.02784827 -0.14978875 0.06031767
v -0.02948712 -0.15080486 0.06031767
v -0.03297161 -0.15226923 0.06031767
v -0.03533800 -0.15294662 0.06031767
v -0.03824046 -0.15375353 0.06031767
v -0.04038476 -0.15430143 0.06031767
v -0.04367014 -0.15415201 0.06031767
v -0.04592165 -0.15236886 0.06031767
v -0.04823444 -0.15010753 0.06031767
v -0.04788215 -0.14977880 0.06263167
v -0.04554640 -0.15203016 0.06263167
v -0.04419089 -0.15049605 0.07165238
v -0.04331786 -0.14973895 0.07615620
v -0.04279710 -0.15357423 0.06546862
v -0.04033881 -0.15050600 0.07615620
v -0.04033881 -0.14935043 0.07916964
v -0.01641455 -0.13227601 0.10624483
v -0.01293006 -0.13242544 0.10836274
v 0.00672858 -0.05253226 0.11552700
v -0.00428394 -0.05253226 0.11612185
v -0.01238633 -0.13245533 0.10836274
v -0.00878697 -0.13252506 0.10836274
v -0.00811305 -0.13242544 0.10836274
v -0.00521058 -0.13145916 0.10836274
v -0.00301267 -0.13047294 0.10836274
v -0.00238470 -0.13015416 0.10836274
v 0.00795389 -0.12250354 0.10836274
v 0.01065724 -0.11915641 0.10836274
v 0.01101718 -0.11694489 0.10836274
v 0.01113971 -0.11500235 0.10836274
v -0.02473903 -0.14002626 0.09657045
v 0.00672858 -0.05253226 0.10548656
v -0.02004454 -0.14444928 0.06934492
v -0.02532105 -0.14815503 0.06263167
v -0.02758023 -0.14978875 0.06263167
v -0.02558143 -0.14857343 0.06714202
v -0.03131744 -0.15132287 0.06263167
v -0.02695991 -0.14833435 0.07163931
v -0.02852985 -0.14908147 0.07013585
v -0.03582812 -0.15082479 0.07165238
v -0.04043071 -0.15386312 0.06244211
v -0.04200831 -0.15357423 0.06546862
v -0.04328723 -0.15390296 0.06263167
v -0.03689262 -0.14927076 0.07922846
v -0.04033881 -0.15176119 0.07165238
v -0.02396555 -0.14002626 0.09657045
v 0.00905667 -0.08037534 0.10836274
v -0.01329766 -0.13501549 0.10431649
v -0.02871364 -0.14451900 0.08768047
v -0.01090829 -0.13543390 0.10107427
v -0.00915456 -0.13437794 0.10283265
v -0.00506508 -0.13155878 0.10770907
v -0.01985309 -0.14451900 0.07874475
v -0.00279824 -0.13052276 0.10770907
v -0.01951613 -0.14484774 0.07615620
v -0.01965398 -0.14479794 0.07165238
v 0.00791560 -0.12249358 0.10770907
v 0.00742548 -0.12226447 0.10500938
v -0.02231138 -0.14594352 0.07615620
v -0.02784061 -0.14937037 0.06714202
v -0.02960200 -0.14877267 0.07314930
v -0.03260402 -0.14920101 0.07503188
v -0.03556775 -0.14971903 0.07639152
v -0.03388294 -0.14884239 0.07803877
v -0.03131744 -0.14734814 0.08066655
v -0.01329766 -0.13682853 0.09869489
v -0.02123157 -0.14408068 0.08175819
v -0.02256410 -0.14485770 0.08041815
v -0.02682206 -0.14726844 0.07615620
f 1 2 3
f 1 3 4
f 1 4 5
f 1 5 6
f 1 6 7
f 1 7 2
f 2 8 9
f 2 9 10
f 2 10 37
f 2 37 36
f 2 36 49
f 2 49 13
f 2 13 3
f 2 7 11
f 2 11 12
f 2 12 8
f 3 13 4
f 4 13 14
f 4 14 15
f 4 15 16
f 4 16 17
f 4 17 18
f 4 18 19
f 4 19 20
f 4 20 21
f 4 21 22
f 4 22 23
f 4 23 24
f 4 24 25
f 4 25 26
f 4 26 5
f 5 26 27
f 5 27 6
f 6 27 25
f 6 25 28
f 6 28 29
f 6 29 30
f 6 30 7
f 7 30 31
f 7 31 32
f 7 32 33
f 7 33 11
f 8 34 35
f 8 35 9
f 8 12 34
f 9 36 37
f 9 37 10
f 9 35 38
f 9 38 39
f 9 39 40
f 9 40 41
f 9 41 42
f 9 42 43
f 9 43 44
f 9 44 45
f 9 45 46
f 9 46 47
f 9 47 36
f 11 33 48
f 11 48 12
f 12 48 35
f 12 35 34
f 13 49 14
f 14 49 47
f 14 47 15
f 15 47 46
f 15 46 45
f 15 45 50
f 15 50 16
f 16 50 17
f 17 50 51
f 17 51 18
f 18 52 19
f 18 51 52
f 19 52 53
f 19 53 20
f 20 54 55
f 20 55 56
f 20 56 21
f 20 53 54
f 21 56 57
f 21 57 22
f 22 57 23
f 23 57 58
f 23 58 59
f 23 59 31
f 23 31 60
f 23 60 24
f 24 60 25
f 25 60 31
f 25 31 28
f 25 27 26
f 28 31 29
f 29 31 30
f 31 59 32
f 32 61 33
f 32 59 62
f 32 62 61
f 33 61 63
f 33 63 48
f 35 48 38
f 36 47 64
f 36 64 49
f 38 48 39
f 39 65 40
f 39 48 63
f 39 63 65
f 40 65 66
f 40 66 67
f 40 67 68
f 40 68 41
f 41 69 42
f 41 68 70
f 41 70 69
f 42 69 71
f 42 71 43
f 43 71 44
f 44 71 72
f 44 72 73
f 44 73 74
f 44 74 45
f 45 74 75
f 45 75 50
f 47 49 64
f 50 73 51
f 50 75 73
f 51 73 52
f 52 73 72
f 52 72 53
f 53 72 76
f 53 76 55
f 53 55 77
f 53 77 54
f 54 77 55
f 55 78 56
f 55 76 78
f 56 78 57
f 57 59 58
f 57 78 79
f 57 79 80
f 57 80 59
f 59 80 62
f 61 62 80
f 61 80 81
f 61 81 66
f 61 66 63
f 63 66 65
f 66 81 82
f 66 82 83
f 66 83 67
f 67 83 84
f 67 84 70
f 67 70 68
f 69 70 71
f 70 84 85
f 70 85 81
f 70 81 76
f 70 76 72
f 70 72 71
f 73 75 74
f 76 81 86
f 76 86 78
f 78 86 79
f 79 86 81
f 79 81 80
f 81 85 82
f 82 85 84
f 82 84 83

