# https://github.com/mikedh/trimesh
v 0.09793492 0.10507005 -0.09826890
v 0.10224454 0.15546320 -0.09826890
v 0.11155010 0.10507005 -0.09826890
v 0.12420262 0.10507005 0.00942387
v 0.10275706 0.16026367 -0.09826890
v 0.13122191 0.17800730 0.00942387
v 0.11263753 0.11037501 -0.09826890
v 0.11486141 0.10993358 -0.09084690
v 0.11500848 0.10586619 -0.08769466
v 0.12488005 0.10507005 -0.05546590
v 0.13171215 0.10507005 0.00942387
v 0.10302445 0.16124111 -0.09826890
v 0.13132441 0.17885073 0.00942387
v 0.13193497 0.18207470 0.00942387
v 0.11355560 0.11489172 -0.09826890
v 0.11522686 0.12173377 -0.09741495
v 0.11569035 0.11940053 -0.09439976
v 0.12003118 0.13292699 -0.08934985
v 0.12394860 0.11488383 -0.06492262
v 0.12670729 0.10586619 -0.05012080
v 0.12841865 0.10507005 -0.04397445
v 0.13362852 0.11145493 0.00942387
v 0.13156506 0.10507005 0.00477458
v 0.10462441 0.16377930 -0.09826890
v 0.13439061 0.18432911 0.00942387
v 0.12839636 0.18074253 -0.01405453
v 0.12861028 0.18049030 -0.00954229
v 0.11546306 0.12463454 -0.09826890
v 0.11553438 0.12473702 -0.09813184
v 0.11932701 0.13292699 -0.09160597
v 0.11962115 0.13641107 -0.09255480
v 0.12172472 0.13743581 -0.08619761
v 0.12097599 0.13292699 -0.08619761
v 0.12449232 0.12040950 -0.06671486
v 0.12378816 0.11910100 -0.06819083
v 0.12420262 0.11740624 -0.06574494
v 0.12700143 0.10587407 -0.04916142
v 0.12887770 0.10745059 -0.04377414
v 0.12892227 0.10507005 -0.04218221
v 0.13465801 0.11489172 0.00942387
v 0.13279065 0.10975229 -0.00052836
v 0.13600838 0.11940053 0.00942387
v 0.13093668 0.10507005 -0.01405453
v 0.10711125 0.16604158 -0.09826890
v 0.12821810 0.18088442 -0.01856676
v 0.13485856 0.18450253 0.00942387
v 0.13443963 0.18432911 0.00849612
v 0.12807103 0.18091595 -0.02306846
v 0.11558785 0.12542281 -0.09826890
v 0.11978160 0.13941433 -0.09300813
v 0.12031639 0.13771957 -0.09091016
v 0.11605135 0.12841816 -0.09826890
v 0.11799446 0.13292699 -0.09521154
v 0.11666191 0.13292699 -0.09826890
v 0.12209907 0.14193675 -0.08619761
v 0.12428284 0.14393103 -0.07952414
v 0.12470623 0.14223628 -0.07731018
v 0.12853898 0.14643769 -0.06505968
v 0.12593181 0.14193675 -0.07267144
v 0.12293693 0.13743581 -0.08168537
v 0.12430067 0.12589575 -0.07058401
v 0.12228179 0.13292699 -0.08168537
v 0.12848550 0.11038290 -0.04681041
v 0.12908715 0.11038290 -0.04455430
v 0.12999633 0.11038290 -0.04110686
v 0.12930109 0.10591349 -0.04127555
v 0.12922531 0.10507005 -0.04085384
v 0.13327643 0.11263730 -0.01180895
v 0.13740332 0.12450843 0.00942387
v 0.13597719 0.11940053 0.00849612
v 0.13081190 0.10507005 -0.01777607
v 0.10784213 0.16662489 -0.09826890
v 0.13664569 0.18510948 0.00942387
v 0.13468476 0.18432122 0.00398388
v 0.12803537 0.18078196 -0.02758069
v 0.12028966 0.16609676 -0.09826890
v 0.13608415 0.15546320 -0.04110686
v 0.12458144 0.17069228 -0.08524877
v 0.13903894 0.15997201 -0.03208239
v 0.13289762 0.15095440 -0.05094312
v 0.12389512 0.13743581 -0.07806925
v 0.12891780 0.14307971 -0.06197069
v 0.12471069 0.13313194 -0.07278740
v 0.12447448 0.12841816 -0.07124819
v 0.12868604 0.11325214 -0.04754840
v 0.13485411 0.13743581 -0.03660517
v 0.13423908 0.13292699 -0.03660517
v 0.13808075 0.15095440 -0.03101758
v 0.13344580 0.12513115 -0.03508703
v 0.13086538 0.11038290 -0.03660517
v 0.13011666 0.10587407 -0.03660517
v 0.12989828 0.10507005 -0.03660517
v 0.13087429 0.10587407 -0.02306846
v 0.13068710 0.10587407 -0.02758069
v 0.13322741 0.11290531 -0.01481359
v 0.13580783 0.11940053 0.00398388
v 0.13758160 0.12517056 0.00942387
v 0.13065591 0.10507005 -0.02227776
v 0.10936186 0.16746044 -0.09826890
v 0.13929296 0.18550360 0.00942387
v 0.14003724 0.18559819 0.00849612
v 0.13693984 0.18502277 0.00398388
v 0.13503237 0.18428181 -0.00052836
v 0.13102135 0.18187763 -0.02306846
v 0.12823147 0.18052971 -0.03208239
v 0.12034314 0.16884777 -0.09826890
v 0.13792476 0.15669288 -0.03486564
v 0.12458144 0.17167762 -0.08524877
v 0.13904785 0.16448085 -0.03208239
v 0.14007288 0.16448085 -0.02758069
v 0.13998376 0.15997201 -0.02758069
v 0.13837934 0.15529767 -0.03238812
v 0.13771975 0.15368962 -0.03409602
v 0.13785790 0.14825855 -0.03015309
v 0.13319622 0.12212789 -0.03348456
v 0.13134669 0.11038290 -0.03208239
v 0.13173443 0.11038290 -0.02758069
v 0.13310708 0.11359109 -0.01856676
v 0.13043752 0.10587407 -0.03208239
v 0.13018796 0.10507005 -0.03208239
v 0.13046873 0.10507005 -0.02677945
v 0.13780442 0.12612435 0.00942387
v 0.11298516 0.16898966 -0.09826890
v 0.14003724 0.18556666 0.00942387
v 0.13759942 0.18481782 -0.00317455
v 0.13728745 0.18491241 -0.00052836
v 0.14279146 0.18527500 0.00849612
v 0.14266221 0.18513311 0.00479566
v 0.14040267 0.18518831 0.00357272
v 0.13795596 0.18481782 -0.00317455
v 0.12852561 0.18035631 -0.03511866
v 0.11994649 0.17035334 -0.09826890
v 0.11981724 0.17128348 -0.09760471
v 0.12914065 0.17612337 -0.06267705
v 0.13325416 0.17568195 -0.04779088
v 0.13358840 0.17267869 -0.04894002
v 0.13795596 0.16751562 -0.03502378
v 0.13934644 0.16898966 -0.02758069
v 0.14032692 0.16898966 -0.02306846
v 0.14235470 0.17602089 -0.00754974
v 0.14075030 0.16448085 -0.02306846
v 0.13931525 0.15546320 -0.02758069
v 0.14043388 0.15997201 -0.02306846
v 0.13858880 0.15095440 -0.02758069
v 0.13800052 0.14743090 -0.02758069
v 0.13210879 0.11489172 -0.03208239
v 0.13295555 0.11504148 -0.02316334
v 0.13653427 0.12390935 -0.00052836
v 0.13796042 0.12701507 0.00942387
v 0.11927799 0.17142536 -0.09521154
v 0.11962115 0.17128348 -0.09760471
v 0.11896157 0.17080264 -0.09826890
v 0.14222100 0.18530653 0.00942387
v 0.13102135 0.18046665 -0.03573013
v 0.13102135 0.18094748 -0.03208239
v 0.13102135 0.18146774 -0.02758069
v 0.14274690 0.18522771 0.00942387
v 0.14343767 0.18251611 0.00849612
v 0.14298755 0.18293390 0.00357272
v 0.14261764 0.18152291 -0.00052836
v 0.14214970 0.18471535 0.00179102
v 0.13355274 0.18045090 -0.03543494
v 0.13798717 0.18054548 -0.02170846
v 0.13405636 0.17390837 -0.04601972
v 0.14236808 0.18049818 -0.00309021
v 0.13834369 0.17808612 -0.02315280
v 0.13830803 0.16900542 -0.03212456
v 0.13832586 0.17354578 -0.02764395
v 0.14202045 0.17903203 -0.00609485
v 0.14292070 0.17800730 -0.00052836
v 0.14329952 0.17800730 0.00398388
v 0.14235470 0.17473604 -0.00754974
v 0.14112467 0.16448085 -0.01856676
v 0.13976538 0.15546320 -0.02306846
v 0.14073248 0.15997201 -0.01856676
v 0.14092857 0.14550754 0.00942387
v 0.14051409 0.15546320 -0.01405453
v 0.14016202 0.15546320 -0.01856676
v 0.13604850 0.12841816 -0.01405453
v 0.13956928 0.14194462 -0.00052836
v 0.13793813 0.12977396 0.00398388
v 0.13611981 0.12390935 -0.00503005
v 0.13818324 0.12829204 0.00942387
v 0.14337084 0.18251611 0.00942387
v 0.14346442 0.17800730 0.00849612
v 0.14341094 0.18157808 0.00942387
v 0.14343323 0.17800730 0.00942387
v 0.13526858 0.17349847 -0.04110686
v 0.14316137 0.17349847 0.00849612
v 0.14277808 0.16805165 0.00942387
v 0.14272460 0.17349847 -0.00052836
v 0.14245722 0.17334083 -0.00514602
v 0.14243492 0.16373987 0.00942387
v 0.14098650 0.15997201 -0.01405453
v 0.14038931 0.14194462 0.00849612
v 0.13998376 0.14194462 0.00398388
v 0.14103107 0.14644556 0.00942387
v 0.14097314 0.14644556 0.00849612
v 0.14046063 0.14194462 0.00942387
v 0.14066562 0.14644556 0.00398388
v 0.13964058 0.13743581 0.00849612
v 0.13896762 0.13292699 0.00942387
v 0.14340203 0.17706928 0.00942387
v 0.14312126 0.17256045 0.00942387
v 0.14031801 0.14101449 0.00942387
v 0.13972525 0.13743581 0.00942387
f 1 2 5
f 1 5 12
f 1 12 24
f 1 24 44
f 1 44 72
f 1 72 99
f 1 99 123
f 1 123 152
f 1 152 132
f 1 132 106
f 1 106 76
f 1 76 54
f 1 54 52
f 1 52 49
f 1 49 28
f 1 28 15
f 1 15 7
f 1 7 3
f 1 3 10
f 1 10 21
f 1 21 39
f 1 39 67
f 1 67 92
f 1 92 120
f 1 120 121
f 1 121 98
f 1 98 71
f 1 71 43
f 1 43 23
f 1 23 11
f 1 11 4
f 1 4 2
f 2 4 6
f 2 6 5
f 3 7 8
f 3 8 9
f 3 9 10
f 4 11 22
f 4 22 40
f 4 40 42
f 4 42 69
f 4 69 97
f 4 97 122
f 4 122 149
f 4 149 183
f 4 183 202
f 4 202 206
f 4 206 205
f 4 205 199
f 4 199 176
f 4 176 197
f 4 197 193
f 4 193 190
f 4 190 204
f 4 204 203
f 4 203 187
f 4 187 186
f 4 186 184
f 4 184 157
f 4 157 153
f 4 153 124
f 4 124 100
f 4 100 73
f 4 73 46
f 4 46 25
f 4 25 14
f 4 14 13
f 4 13 6
f 5 6 13
f 5 13 14
f 5 14 12
f 7 15 16
f 7 16 17
f 7 17 8
f 8 17 18
f 8 18 19
f 8 19 10
f 8 10 9
f 10 19 20
f 10 20 21
f 11 23 22
f 12 14 24
f 14 25 26
f 14 26 27
f 14 27 24
f 15 28 16
f 16 29 30
f 16 30 18
f 16 18 17
f 16 28 29
f 18 30 31
f 18 31 32
f 18 32 33
f 18 33 34
f 18 34 35
f 18 35 19
f 19 35 20
f 20 35 36
f 20 36 37
f 20 37 21
f 21 38 39
f 21 37 34
f 21 34 38
f 22 23 40
f 23 41 42
f 23 42 40
f 23 43 41
f 24 27 26
f 24 26 45
f 24 45 44
f 25 46 47
f 25 47 48
f 25 48 45
f 25 45 26
f 28 49 29
f 29 31 30
f 29 49 31
f 31 50 51
f 31 51 32
f 31 49 52
f 31 52 53
f 31 53 54
f 31 54 50
f 32 55 56
f 32 56 57
f 32 57 58
f 32 58 59
f 32 59 60
f 32 60 61
f 32 61 62
f 32 62 33
f 32 51 55
f 33 62 34
f 34 36 35
f 34 62 61
f 34 61 38
f 34 37 36
f 38 63 64
f 38 64 65
f 38 65 66
f 38 66 39
f 38 61 63
f 39 66 67
f 41 43 68
f 41 68 42
f 42 68 70
f 42 70 69
f 43 71 68
f 44 45 48
f 44 48 72
f 46 73 74
f 46 74 47
f 47 74 48
f 48 74 75
f 48 75 72
f 50 54 76
f 50 76 51
f 51 76 55
f 52 54 53
f 55 76 56
f 56 77 58
f 56 58 57
f 56 76 78
f 56 78 79
f 56 79 77
f 58 80 59
f 58 77 80
f 59 81 60
f 59 80 82
f 59 82 81
f 60 81 83
f 60 83 84
f 60 84 61
f 61 84 63
f 63 84 64
f 64 84 85
f 64 85 86
f 64 86 65
f 65 86 87
f 65 87 88
f 65 88 89
f 65 89 66
f 66 89 90
f 66 90 91
f 66 91 67
f 67 91 92
f 68 71 93
f 68 93 94
f 68 94 95
f 68 95 96
f 68 96 70
f 69 70 96
f 69 96 97
f 71 98 93
f 72 75 99
f 73 100 101
f 73 101 102
f 73 102 103
f 73 103 74
f 74 103 75
f 75 103 104
f 75 104 105
f 75 105 99
f 76 106 78
f 77 79 107
f 77 107 80
f 78 106 108
f 78 108 109
f 78 109 79
f 79 109 110
f 79 110 111
f 79 111 112
f 79 112 107
f 80 107 82
f 81 82 83
f 82 107 85
f 82 85 83
f 83 85 84
f 85 107 86
f 86 107 113
f 86 113 87
f 87 113 112
f 87 112 88
f 88 114 89
f 88 112 111
f 88 111 114
f 89 114 115
f 89 115 90
f 90 115 91
f 91 115 116
f 91 116 117
f 91 117 118
f 91 118 95
f 91 95 119
f 91 119 92
f 92 119 120
f 93 98 94
f 94 120 119
f 94 119 95
f 94 98 121
f 94 121 120
f 95 118 122
f 95 122 97
f 95 97 96
f 99 105 123
f 100 124 101
f 101 125 126
f 101 126 102
f 101 124 127
f 101 127 128
f 101 128 129
f 101 129 130
f 101 130 125
f 102 126 103
f 103 126 104
f 104 131 105
f 104 126 125
f 104 125 131
f 105 131 123
f 106 132 108
f 107 112 113
f 108 132 133
f 108 133 134
f 108 134 135
f 108 135 136
f 108 136 137
f 108 137 109
f 109 137 110
f 110 137 138
f 110 138 139
f 110 139 140
f 110 140 141
f 110 141 111
f 111 142 114
f 111 141 143
f 111 143 174
f 111 174 142
f 114 142 144
f 114 144 115
f 115 144 145
f 115 145 146
f 115 146 116
f 116 146 147
f 116 147 148
f 116 148 122
f 116 122 118
f 116 118 117
f 122 148 149
f 123 150 151
f 123 151 152
f 123 131 150
f 124 153 127
f 125 154 155
f 125 155 156
f 125 156 131
f 125 130 154
f 127 153 157
f 127 157 158
f 127 158 128
f 128 158 159
f 128 159 160
f 128 160 161
f 128 161 162
f 128 162 130
f 128 130 129
f 130 162 154
f 131 156 155
f 131 155 154
f 131 154 151
f 131 151 150
f 132 152 133
f 133 152 151
f 133 151 154
f 133 154 162
f 133 162 134
f 134 162 161
f 134 161 163
f 134 163 135
f 135 164 136
f 135 163 165
f 135 165 166
f 135 166 164
f 136 164 137
f 137 167 138
f 137 164 167
f 138 140 139
f 138 167 168
f 138 168 140
f 140 169 165
f 140 165 160
f 140 160 159
f 140 159 170
f 140 170 171
f 140 171 172
f 140 172 141
f 140 168 169
f 141 172 173
f 141 173 143
f 142 174 144
f 143 173 175
f 143 175 176
f 143 176 177
f 143 177 178
f 143 178 174
f 144 174 145
f 145 179 146
f 145 174 180
f 145 180 181
f 145 181 179
f 146 179 147
f 147 179 182
f 147 182 148
f 148 182 181
f 148 181 183
f 148 183 149
f 157 184 158
f 158 185 171
f 158 171 170
f 158 170 159
f 158 184 186
f 158 186 187
f 158 187 185
f 160 165 161
f 161 165 163
f 164 188 167
f 164 166 188
f 165 169 166
f 166 169 168
f 166 168 188
f 167 188 168
f 171 185 189
f 171 189 190
f 171 190 191
f 171 191 173
f 171 173 192
f 171 192 172
f 172 192 173
f 173 191 190
f 173 190 193
f 173 193 194
f 173 194 175
f 174 178 195
f 174 195 196
f 174 196 180
f 175 194 197
f 175 197 198
f 175 198 176
f 176 199 200
f 176 200 177
f 176 198 197
f 177 200 178
f 178 200 195
f 179 181 182
f 180 196 201
f 180 201 181
f 181 201 202
f 181 202 183
f 185 187 203
f 185 203 204
f 185 204 189
f 189 204 190
f 193 197 194
f 195 200 199
f 195 199 205
f 195 205 206
f 195 206 196
f 196 206 201
f 201 206 202

