# https://github.com/mikedh/trimesh
v -0.04486568 -0.15902601 0.03105220
v -0.04203571 -0.15844081 0.03105220
v -0.04203571 -0.15844850 0.03556371
v -0.04201198 -0.15834841 0.04006751
v -0.04220776 -0.15815590 0.04333739
v -0.04314515 -0.15815590 0.04333739
v -0.04400541 -0.15834841 0.04006751
v -0.04520978 -0.15854859 0.03591075
v -0.04802195 -0.15852551 0.03105220
v -0.05236480 -0.15839460 0.01752540
v -0.06078352 -0.15804809 -0.00670564
v -0.06086658 -0.15807119 -0.00952823
v -0.04937464 -0.15876421 0.01752540
v -0.04486568 -0.15897982 0.02654070
v -0.03351613 -0.15350498 0.05109563
v -0.04205944 -0.15837920 0.02622451
v -0.03351613 -0.15350498 0.05226015
v -0.03371785 -0.15340489 0.05526010
v -0.03458405 -0.15317388 0.05810582
v -0.04035671 -0.15653886 0.04908281
v -0.04035671 -0.15566105 0.05359432
v -0.04035671 -0.15473701 0.05810582
v -0.04041011 -0.15429041 0.06031145
v -0.04368504 -0.15415180 0.06031145
v -0.04694217 -0.15789409 0.03764595
v -0.04755326 -0.15827909 0.03463056
v -0.05199103 -0.15822519 0.02093409
v -0.05640507 -0.15814050 0.00718363
v -0.05842818 -0.15576884 0.00867976
v -0.06135307 -0.15426731 0.00399858
v -0.06187516 -0.15500653 -0.00051292
v -0.06198788 -0.15602294 -0.00512469
v -0.06261677 -0.15569954 -0.00952823
v -0.06266423 -0.15569954 -0.01403973
v -0.06085471 -0.15805580 -0.01403973
v -0.06076572 -0.15801729 -0.01664638
v -0.06010717 -0.15801729 -0.01664638
v -0.04486568 -0.15897211 0.02622451
v -0.02785026 -0.14979349 0.06031145
v -0.03724196 -0.15451370 -0.01847412
v -0.04212470 -0.15828680 0.02202919
v -0.02950552 -0.15080221 0.06031145
v -0.03299997 -0.15227295 0.06031145
v -0.03683853 -0.15380529 0.05810582
v -0.03721230 -0.15347418 0.06031145
v -0.03826241 -0.15375139 0.06031145
v -0.04594545 -0.15236536 0.06031145
v -0.04630142 -0.15268107 0.05810582
v -0.06091404 -0.15374370 0.00716821
v -0.04825927 -0.15011691 0.06031145
v -0.06088438 -0.14926217 0.02076443
v -0.06121662 -0.14977810 0.01752540
v -0.08353600 -0.08036093 0.02074900
v -0.08391570 -0.08036093 0.01752540
v -0.06310326 -0.15119493 -0.00051292
v -0.06401692 -0.15119493 -0.01403973
v -0.08404029 -0.08036093 0.01569766
v -0.08415895 -0.08036093 0.01301389
v -0.08420641 -0.08036093 0.01130183
v -0.08444373 -0.08036093 0.00244848
v -0.08452085 -0.08036093 -0.00051292
v -0.06362535 -0.15119493 -0.01847412
v -0.06181583 -0.15589975 -0.01831217
v -0.06179210 -0.15584585 -0.01847412
v -0.05851717 -0.15757838 -0.01847412
v -0.05851717 -0.15762459 -0.01831217
v -0.05546175 -0.15755528 -0.01847412
v -0.05388954 -0.15752448 -0.01847412
v -0.04486568 -0.15877192 0.02202919
v -0.04255186 -0.15798649 0.01022215
v -0.04242134 -0.15805580 0.01301389
v -0.04224335 -0.15817130 0.01752540
v -0.02553051 -0.14739874 0.06031145
v -0.04035671 -0.15606914 -0.01847412
v -0.03690379 -0.15125653 -0.01847412
v -0.02401171 -0.14531969 0.06031145
v -0.02464652 -0.14625911 0.06031145
v -0.04967128 -0.14653632 0.06031145
v -0.05133248 -0.14769904 0.05480510
v -0.06067672 -0.14448807 0.03341978
v -0.05175965 -0.14906198 0.05179743
v -0.08267573 -0.08036093 0.02394176
v -0.08454458 -0.08036093 -0.00501672
v -0.06299647 -0.15279657 -0.01847412
v -0.08410556 -0.08036093 -0.00949738
v -0.08349447 -0.08036093 -0.01248191
v -0.08310883 -0.08036093 -0.01403973
v -0.08265200 -0.08036093 -0.01586747
v -0.08199939 -0.08036093 -0.01847412
v -0.04486568 -0.15670827 -0.01847412
v -0.04331127 -0.15790948 0.00721448
v -0.03690379 -0.15119493 -0.01847412
v -0.02393458 -0.14263232 0.06031145
v -0.06709014 -0.08037633 0.06031145
v -0.06819365 -0.08037633 0.05816752
v -0.07379426 -0.08037633 0.04727050
v -0.07524187 -0.08037633 0.04444020
v -0.07736584 -0.08037633 0.04009064
v -0.07830323 -0.08037633 0.03809324
v -0.07887872 -0.08037633 0.03675136
v -0.08069416 -0.08037633 0.03081313
v -0.08112726 -0.08037633 0.02933243
v -0.08202312 -0.08037633 0.02622451
v -0.08201719 -0.08036093 0.02622451
v -0.07017522 -0.08036093 -0.01847412
v -0.03776405 -0.14794545 -0.01847412
v -0.02463465 -0.14012976 0.06031145
v -0.05082819 -0.08037633 0.06031145
v -0.07041253 -0.08036093 0.02622451
v -0.02543559 -0.13766570 0.06031145
f 1 2 3
f 1 3 4
f 1 4 5
f 1 5 6
f 1 6 7
f 1 7 8
f 1 8 9
f 1 9 10
f 1 10 11
f 1 11 12
f 1 12 13
f 1 13 14
f 1 14 2
f 2 15 3
f 2 14 16
f 2 16 15
f 3 15 17
f 3 17 4
f 4 17 18
f 4 18 5
f 5 18 19
f 5 19 20
f 5 20 21
f 5 21 22
f 5 22 23
f 5 23 6
f 6 23 24
f 6 24 25
f 6 25 26
f 6 26 7
f 7 26 8
f 8 26 9
f 9 26 27
f 9 27 28
f 9 28 11
f 9 11 10
f 11 28 29
f 11 29 30
f 11 30 31
f 11 31 32
f 11 32 33
f 11 33 12
f 12 33 34
f 12 34 35
f 12 35 13
f 13 35 36
f 13 36 14
f 14 36 37
f 14 37 38
f 14 38 16
f 15 39 17
f 15 16 40
f 15 40 39
f 16 38 41
f 16 41 40
f 17 39 42
f 17 42 18
f 18 42 43
f 18 43 19
f 19 44 20
f 19 43 45
f 19 45 44
f 20 44 21
f 21 44 45
f 21 45 46
f 21 46 22
f 22 46 23
f 23 46 45
f 23 45 43
f 23 43 42
f 23 42 39
f 23 39 73
f 23 73 77
f 23 77 76
f 23 76 93
f 23 93 107
f 23 107 110
f 23 110 108
f 23 108 94
f 23 94 78
f 23 78 50
f 23 50 47
f 23 47 24
f 24 47 26
f 24 26 25
f 26 47 48
f 26 48 27
f 27 48 28
f 28 48 29
f 29 49 30
f 29 48 47
f 29 47 50
f 29 50 49
f 30 49 51
f 30 51 31
f 31 51 52
f 31 52 53
f 31 53 54
f 31 54 55
f 31 55 33
f 31 33 32
f 33 56 34
f 33 55 54
f 33 54 57
f 33 57 58
f 33 58 59
f 33 59 60
f 33 60 61
f 33 61 56
f 34 62 63
f 34 63 36
f 34 36 35
f 34 56 62
f 36 63 64
f 36 64 65
f 36 65 66
f 36 66 37
f 37 66 67
f 37 67 68
f 37 68 38
f 38 68 69
f 38 69 70
f 38 70 71
f 38 71 72
f 38 72 41
f 39 40 73
f 40 41 74
f 40 74 90
f 40 90 68
f 40 68 67
f 40 67 65
f 40 65 64
f 40 64 84
f 40 84 62
f 40 62 89
f 40 89 105
f 40 105 106
f 40 106 92
f 40 92 75
f 40 75 76
f 40 76 77
f 40 77 73
f 41 72 74
f 49 50 51
f 50 78 79
f 50 79 80
f 50 80 81
f 50 81 51
f 51 81 80
f 51 80 52
f 52 80 53
f 53 82 104
f 53 104 109
f 53 109 105
f 53 105 89
f 53 89 88
f 53 88 87
f 53 87 86
f 53 86 85
f 53 85 83
f 53 83 61
f 53 61 60
f 53 60 59
f 53 59 58
f 53 58 57
f 53 57 54
f 53 80 82
f 56 61 83
f 56 83 62
f 62 84 63
f 62 83 85
f 62 85 86
f 62 86 87
f 62 87 88
f 62 88 89
f 63 84 64
f 65 67 66
f 68 90 91
f 68 91 69
f 69 91 70
f 70 91 90
f 70 90 74
f 70 74 71
f 71 74 72
f 75 92 93
f 75 93 76
f 78 94 95
f 78 95 96
f 78 96 97
f 78 97 98
f 78 98 99
f 78 99 100
f 78 100 80
f 78 80 79
f 80 100 101
f 80 101 102
f 80 102 103
f 80 103 82
f 82 103 102
f 82 102 104
f 92 106 93
f 93 106 107
f 94 108 109
f 94 109 104
f 94 104 95
f 95 104 96
f 96 104 97
f 97 104 98
f 98 104 99
f 99 104 100
f 100 104 101
f 101 104 102
f 105 109 108
f 105 108 106
f 106 108 110
f 106 110 107

