# https://github.com/mikedh/trimesh
v -0.07739214 -0.05252903 0.00361267
v -0.05698211 -0.05252903 0.00361267
v -0.09004532 -0.05252903 0.08385146
v 0.00339754 -0.00462801 0.00361267
v -0.04034743 -0.04815436 0.00361267
v -0.02712730 -0.05252903 0.08385146
v -0.03528358 -0.02886923 0.09204933
v 0.01119303 -0.00462801 0.09204933
v 0.00575551 -0.00462801 0.03556448
v 0.00534319 -0.00462801 0.03105435
v 0.00502106 -0.00462801 0.02654422
v 0.03372910 -0.00462801 0.00361267
v -0.03541243 -0.04657423 0.00361267
v -0.03583764 -0.04725410 0.00851235
v -0.03536089 -0.04655078 0.00361267
v -0.03304157 -0.04555206 0.00483326
v 0.01983894 -0.01322731 0.00361267
v 0.02277675 -0.01142211 0.00361267
v 0.02800811 -0.00820089 0.00361267
v 0.03179633 -0.00584710 0.00361267
v 0.04120246 -0.00504062 0.09204933
v 0.04014589 -0.00570644 0.09204933
v 0.03867698 -0.00663014 0.09204933
v 0.00151631 -0.02886923 0.09204933
v 0.04158902 -0.00462801 0.09204933
v -0.03327350 -0.04540671 0.00361267
f 1 2 6
f 1 6 3
f 1 3 4
f 1 4 12
f 1 12 20
f 1 20 19
f 1 19 18
f 1 18 17
f 1 17 26
f 1 26 15
f 1 15 13
f 1 13 5
f 1 5 2
f 2 5 6
f 3 6 24
f 3 24 7
f 3 7 8
f 3 8 9
f 3 9 10
f 3 10 11
f 3 11 4
f 4 11 10
f 4 10 9
f 4 9 8
f 4 8 25
f 4 25 12
f 5 13 14
f 5 14 6
f 6 14 13
f 6 13 15
f 6 15 16
f 6 16 17
f 6 17 18
f 6 18 19
f 6 19 20
f 6 20 12
f 6 12 21
f 6 21 22
f 6 22 23
f 6 23 24
f 7 24 23
f 7 23 22
f 7 22 21
f 7 21 25
f 7 25 8
f 12 25 21
f 15 26 16
f 16 26 17

