# https://github.com/mikedh/trimesh
v 0.17045386 -0.00773048 0.00400522
v 0.17045386 -0.01031733 0.00400522
v 0.17043911 -0.00773048 0.00362138
v 0.16836034 -0.00547654 0.00362138
v 0.16835296 -0.00547654 0.00400522
v 0.17004843 -0.00826532 0.00724166
v 0.17004843 -0.00983707 0.00724166
v 0.16581714 -0.00971155 0.01213557
v 0.16709979 -0.01073756 0.00400522
v 0.16709979 -0.01077031 0.00362138
v 0.17016636 -0.01038282 0.00362138
v 0.17043911 -0.01031188 0.00362138
v 0.16816868 -0.00532373 0.00362138
v 0.16726935 -0.00462517 0.00400522
v 0.16587612 -0.00462517 0.00853275
v 0.16728409 -0.00462517 0.00362138
v 0.16488095 -0.00462517 0.01082704
v 0.15632993 -0.00413400 0.02515985
v 0.15149418 -0.00439050 0.03357808
v 0.12879713 -0.00462517 0.06734698
v 0.16038430 -0.00917126 0.01984720
v 0.12794940 -0.00462517 0.06836763
v 0.09515329 -0.00462517 0.09272381
v 0.16680494 -0.01067207 0.00362138
v 0.09515329 -0.00462517 0.08284874
v 0.09515329 0.04498341 0.02108595
v 0.13821800 0.01373382 0.02108595
v 0.14028940 0.01216207 0.02108595
v 0.14334123 0.00970620 0.02108595
v 0.15694915 -0.00462517 0.00362138
v 0.15722927 -0.00332629 0.02204554
v 0.14553058 0.00775787 0.02108595
v 0.14601710 0.00732127 0.02108595
v 0.14800744 0.00552576 0.02108595
v 0.15557803 -0.00132339 0.02108595
v 0.14235345 -0.00005725 0.04244994
v 0.13851285 0.00054853 0.04817259
v 0.13378032 0.00040118 0.05668679
v 0.12869392 -0.00024827 0.06479970
v 0.12579690 -0.00462517 0.07054852
v 0.12427836 -0.00462517 0.07197046
v 0.12065892 -0.00462517 0.07465731
v 0.11977433 -0.00462517 0.07531159
v 0.11539562 -0.00462517 0.07850441
v 0.11102428 -0.00462517 0.08160999
v 0.10156655 -0.00462517 0.08832713
v 0.09946566 -0.00462517 0.08981886
v 0.09726892 -0.00462517 0.09136293
v 0.09685612 -0.00462517 0.09165081
v 0.09543341 -0.00462517 0.09254934
v 0.09515329 0.02411397 0.06582908
v 0.16418065 -0.00959694 0.00362138
v 0.09515329 0.03403023 0.02108595
v 0.15711132 -0.00473978 0.00362138
v 0.16210926 -0.00817800 0.00362138
v 0.09515329 0.03435767 0.04476168
v 0.10842211 0.01892389 0.05772489
v 0.12216272 0.01487444 0.04455232
v 0.13652991 0.01251134 0.02655562
v 0.13762826 0.00878388 0.03306339
v 0.14301689 0.00953701 0.02204554
v 0.14236082 0.00896398 0.02440962
v 0.13576326 0.00235496 0.04950730
v 0.13470912 0.00122526 0.05359865
v 0.13212909 0.00347920 0.05359865
v 0.12811157 0.00392126 0.05929513
v 0.12986600 0.00091418 0.06179879
v 0.12689526 0.00244773 0.06307244
v 0.12371074 0.00398129 0.06433735
v 0.12070315 0.00511099 0.06554992
v 0.12569369 0.00097421 0.06589887
v 0.12360017 -0.00063575 0.06890849
v 0.12040828 -0.00409580 0.07437816
v 0.12542832 -0.00364282 0.07025193
v 0.11535139 -0.00454331 0.07846951
v 0.12059256 0.00051578 0.06997277
v 0.12215535 0.00224581 0.06722485
v 0.11570521 0.00924777 0.06519225
v 0.11069255 0.01338454 0.06482586
v 0.09765963 0.02274414 0.06520098
v 0.09515329 0.02631879 0.06261008
v 0.09671607 0.02658075 0.05955683
v 0.10179508 0.02248218 0.06048153
v 0.11495332 0.01320445 0.05988833
v 0.12087269 0.00971711 0.05810000
v 0.11889712 0.01278968 0.05446228
v 0.13181210 0.00784519 0.04458721
v 0.13296944 0.00415593 0.05085945
v 0.12003971 0.00911133 0.06071707
v 0.12511134 0.00501275 0.06133644
v 0.10568726 0.01751586 0.06425884
f 1 2 12
f 1 12 3
f 1 3 4
f 1 4 5
f 1 5 6
f 1 6 7
f 1 7 2
f 2 7 8
f 2 8 9
f 2 9 10
f 2 10 11
f 2 11 12
f 3 12 11
f 3 11 10
f 3 10 24
f 3 24 52
f 3 52 55
f 3 55 54
f 3 54 30
f 3 30 16
f 3 16 13
f 3 13 4
f 4 13 5
f 5 14 15
f 5 15 6
f 5 13 16
f 5 16 14
f 6 15 17
f 6 17 18
f 6 18 19
f 6 19 20
f 6 20 7
f 7 21 8
f 7 20 22
f 7 22 21
f 8 21 9
f 9 21 23
f 9 23 10
f 10 23 25
f 10 25 24
f 14 26 27
f 14 27 28
f 14 28 15
f 14 16 26
f 15 28 29
f 15 29 17
f 16 30 26
f 17 31 18
f 17 29 32
f 17 32 33
f 17 33 34
f 17 34 35
f 17 35 36
f 17 36 37
f 17 37 31
f 18 31 37
f 18 37 38
f 18 38 19
f 19 38 39
f 19 39 20
f 20 39 22
f 21 22 40
f 21 40 41
f 21 41 42
f 21 42 43
f 21 43 44
f 21 44 45
f 21 45 46
f 21 46 47
f 21 47 48
f 21 48 49
f 21 49 50
f 21 50 23
f 22 39 40
f 23 50 51
f 23 51 81
f 23 81 56
f 23 56 26
f 23 26 53
f 23 53 25
f 24 25 52
f 25 53 30
f 25 30 54
f 25 54 55
f 25 55 52
f 26 56 57
f 26 57 58
f 26 58 59
f 26 59 27
f 26 30 53
f 27 59 60
f 27 60 28
f 28 60 61
f 28 61 29
f 29 61 32
f 32 61 62
f 32 62 33
f 33 62 34
f 34 62 36
f 34 36 35
f 36 62 37
f 37 62 63
f 37 63 64
f 37 64 38
f 38 64 65
f 38 65 66
f 38 66 67
f 38 67 39
f 39 68 69
f 39 69 70
f 39 70 71
f 39 71 72
f 39 72 73
f 39 73 74
f 39 74 40
f 39 67 68
f 40 74 41
f 41 74 73
f 41 73 42
f 42 73 43
f 43 73 75
f 43 75 44
f 44 75 45
f 45 75 46
f 46 75 47
f 47 75 51
f 47 51 48
f 48 51 49
f 49 51 50
f 51 75 76
f 51 76 77
f 51 77 71
f 51 71 70
f 51 70 78
f 51 78 79
f 51 79 80
f 51 80 81
f 56 81 82
f 56 82 57
f 57 82 83
f 57 83 84
f 57 84 85
f 57 85 86
f 57 86 58
f 58 86 66
f 58 66 87
f 58 87 59
f 59 87 60
f 60 62 61
f 60 87 66
f 60 66 88
f 60 88 62
f 62 88 63
f 63 88 64
f 64 88 65
f 65 88 66
f 66 84 81
f 66 81 89
f 66 89 90
f 66 90 67
f 66 86 85
f 66 85 84
f 67 90 68
f 68 90 69
f 69 79 78
f 69 78 70
f 69 90 79
f 71 77 76
f 71 76 72
f 72 76 75
f 72 75 73
f 79 90 91
f 79 91 80
f 80 91 81
f 81 91 90
f 81 90 89
f 81 84 83
f 81 83 82

