# https://github.com/mikedh/trimesh
v 0.10253576 -0.05253406 -0.11777532
v 0.09848390 -0.05514150 -0.12228330
v 0.09802306 -0.05486150 -0.12530741
v 0.10053592 -0.05253406 -0.12259346
v 0.10230100 -0.05253406 -0.11563588
v 0.07492914 -0.07249521 -0.12421479
v 0.06190404 -0.08187497 -0.13129926
v 0.06393866 -0.08036418 -0.13129926
v 0.06416474 -0.08019501 -0.13129926
v 0.09270173 -0.05876974 -0.12906465
v 0.09863171 -0.05253406 -0.12566693
v 0.10132717 -0.05253406 -0.11314045
v 0.09304083 -0.05898556 -0.11527284
v 0.03427133 -0.09948534 -0.11981254
v 0.06153885 -0.08162997 -0.13393919
v 0.04830506 -0.09075306 -0.12814121
v 0.04830506 -0.09075306 -0.13017139
v 0.07931142 -0.06789283 -0.13383345
v 0.08426757 -0.06371627 -0.13422115
v 0.08513707 -0.06100384 -0.13452075
v 0.09313647 -0.05650062 -0.12935016
v 0.09614494 -0.05253406 -0.12749268
v 0.10078807 -0.05253406 -0.11232626
v 0.01700306 -0.10916259 -0.11025380
v 0.01370766 -0.11212584 -0.11217823
v 0.03434958 -0.09952033 -0.12228682
v 0.04256636 -0.09445131 -0.12679128
v 0.05351337 -0.08650067 -0.13434805
v 0.05886079 -0.08262745 -0.13482741
v 0.07509435 -0.06806783 -0.13826036
v 0.07672031 -0.06880280 -0.13552527
v 0.04030566 -0.09585126 -0.12679128
v 0.03382789 -0.09922285 -0.12829275
v 0.07915492 -0.06326711 -0.13806300
v 0.09339732 -0.05253406 -0.12949818
v 0.09042364 -0.05650062 -0.13129573
v 0.07915492 -0.06326128 -0.13806300
v 0.09721442 -0.05253406 -0.11059920
v 0.01370766 -0.11070254 -0.10875583
v 0.01370766 -0.11211418 -0.11326734
v 0.04984407 -0.08731733 -0.13525036
v 0.04984407 -0.08522321 -0.13750611
v 0.04763554 -0.08132664 -0.14259563
v 0.05489587 -0.08390491 -0.13610683
v 0.03082811 -0.09989367 -0.12971318
v 0.04414885 -0.09074140 -0.13402730
v 0.05886079 -0.08036418 -0.13694216
v 0.05266995 -0.07712676 -0.14274368
v 0.06154754 -0.07706843 -0.13830620
v 0.03423655 -0.09942701 -0.12528980
v 0.03597555 -0.09828371 -0.12679128
v 0.01377722 -0.11107004 -0.12228682
v 0.01677699 -0.10876592 -0.12524045
v 0.09042364 -0.05253406 -0.13066483
v 0.07914622 -0.06326128 -0.13806300
v 0.08140692 -0.05741061 -0.13443616
v 0.08596310 -0.05253406 -0.13130982
v 0.05266995 -0.07639761 -0.14274368
v 0.04985277 -0.07625762 -0.14283884
v 0.09388424 -0.05253406 -0.11008108
v 0.01370766 -0.11053339 -0.10869591
v 0.01370766 -0.11162420 -0.11772244
v 0.01737695 -0.10909259 -0.12228682
v 0.02595891 -0.10434438 -0.12228682
v 0.02821091 -0.10309608 -0.12228682
v 0.04751381 -0.08577736 -0.13802774
v 0.04451404 -0.08637818 -0.13870095
v 0.03478434 -0.09060141 -0.13830972
v 0.04534006 -0.08177580 -0.14288819
v 0.05626968 -0.08107582 -0.13786560
v 0.05326121 -0.08205580 -0.13872914
v 0.01370766 -0.10927925 -0.12659390
v 0.02131578 -0.10415772 -0.12939243
v 0.01370766 -0.11109920 -0.12228682
v 0.06787750 -0.06417126 -0.13750611
v 0.07239021 -0.06100384 -0.13603282
v 0.07239021 -0.05788892 -0.13410133
v 0.07734635 -0.06145300 -0.13677299
v 0.07689422 -0.05761477 -0.13430223
v 0.04670518 -0.07647344 -0.14275779
v 0.05436547 -0.07002194 -0.13970546
v 0.06337349 -0.06680202 -0.13865513
v 0.08140692 -0.05515316 -0.13294172
v 0.07689422 -0.05535732 -0.13281132
v 0.08140692 -0.05253406 -0.13118999
v 0.04526181 -0.07880088 -0.14293401
v 0.04224464 -0.08014835 -0.14296573
v 0.07336405 -0.05253406 -0.10709926
v 0.01370766 -0.10615849 -0.10902371
v 0.07239021 -0.05253406 -0.10696533
v 0.06862526 -0.05253406 -0.10697238
v 0.06787750 -0.05253406 -0.10704640
v 0.03778411 -0.08999476 -0.13771054
v 0.04223595 -0.08190996 -0.14296573
v 0.01455977 -0.10776846 -0.12824342
v 0.02437642 -0.09914701 -0.13339289
v 0.02136795 -0.09954950 -0.13368894
v 0.01370766 -0.10886509 -0.12720717
v 0.05886079 -0.05253406 -0.12943122
v 0.06298222 -0.05253406 -0.12985769
v 0.06337349 -0.05253406 -0.12989646
v 0.06787750 -0.05598731 -0.13248000
v 0.07239021 -0.05563148 -0.13267033
v 0.06787750 -0.05253406 -0.13031590
v 0.06807748 -0.05253406 -0.13033351
v 0.07239021 -0.05253406 -0.13065073
v 0.07289451 -0.05253406 -0.13068599
v 0.04370540 -0.07713842 -0.14241941
v 0.04526181 -0.07479348 -0.14131974
v 0.04902674 -0.06800950 -0.13790791
v 0.05026143 -0.06971861 -0.13909218
v 0.07687682 -0.05253406 -0.13092564
v 0.04224464 -0.08035834 -0.14296573
v 0.04223595 -0.08036418 -0.14296573
v 0.03011512 -0.08805814 -0.13784447
v 0.03632335 -0.08354909 -0.14045268
v 0.03274101 -0.08354909 -0.13876440
v 0.03328879 -0.08035834 -0.13847537
v 0.03335835 -0.07997918 -0.13844013
v 0.02500246 -0.07674760 -0.13357969
v 0.03420177 -0.07697509 -0.13800308
v 0.04077519 -0.07880088 -0.14177088
v 0.01370766 -0.08036418 -0.11640776
v 0.02248091 -0.05253406 -0.11264348
v 0.02023760 -0.09954950 -0.13368894
v 0.01370766 -0.10667183 -0.12927261
v 0.01370766 -0.10609433 -0.12973081
v 0.05436547 -0.05253406 -0.12896244
v 0.02248091 -0.05253406 -0.11977025
v 0.04678344 -0.06271880 -0.13391805
v 0.05130483 -0.05384653 -0.12929022
v 0.02026369 -0.09707624 -0.13368191
v 0.02047237 -0.09452713 -0.13358673
v 0.01370766 -0.09511629 -0.13007973
v 0.01370766 -0.09257302 -0.12977310
v 0.01370766 -0.09134805 -0.12962507
v 0.01647267 -0.08036418 -0.12975901
v 0.02248091 -0.07904004 -0.13268442
v 0.02460249 -0.07904004 -0.13378765
v 0.01370766 -0.08036418 -0.12829275
v 0.01370766 -0.10223276 -0.13053089
v 0.01370766 -0.10158528 -0.13064016
v 0.05012231 -0.05253406 -0.12804252
v 0.01800299 -0.09707624 -0.13254698
v 0.01370766 -0.09690707 -0.13029122
v 0.01370766 -0.08102332 -0.12837383
f 1 2 3
f 1 3 4
f 1 4 11
f 1 11 22
f 1 22 35
f 1 35 54
f 1 54 57
f 1 57 85
f 1 85 112
f 1 112 107
f 1 107 106
f 1 106 105
f 1 105 104
f 1 104 101
f 1 101 100
f 1 100 99
f 1 99 128
f 1 128 143
f 1 143 129
f 1 129 124
f 1 124 92
f 1 92 91
f 1 91 90
f 1 90 88
f 1 88 60
f 1 60 38
f 1 38 23
f 1 23 12
f 1 12 5
f 1 5 6
f 1 6 7
f 1 7 8
f 1 8 9
f 1 9 2
f 2 10 3
f 2 9 10
f 3 11 4
f 3 10 11
f 5 12 13
f 5 13 6
f 6 13 14
f 6 14 7
f 7 15 8
f 7 14 16
f 7 16 17
f 7 17 15
f 8 15 9
f 9 15 10
f 10 18 19
f 10 19 20
f 10 20 21
f 10 21 11
f 10 15 18
f 11 21 22
f 12 23 24
f 12 24 25
f 12 25 13
f 13 25 14
f 14 25 26
f 14 26 27
f 14 27 16
f 15 17 28
f 15 28 29
f 15 29 30
f 15 30 31
f 15 31 18
f 16 27 17
f 17 27 32
f 17 32 33
f 17 33 28
f 18 31 19
f 19 31 30
f 19 30 34
f 19 34 20
f 20 35 36
f 20 36 21
f 20 34 37
f 20 37 35
f 21 36 35
f 21 35 22
f 23 38 39
f 23 39 24
f 24 39 25
f 25 39 61
f 25 61 89
f 25 89 123
f 25 123 140
f 25 140 146
f 25 146 136
f 25 136 135
f 25 135 134
f 25 134 145
f 25 145 142
f 25 142 141
f 25 141 127
f 25 127 126
f 25 126 98
f 25 98 72
f 25 72 74
f 25 74 62
f 25 62 40
f 25 40 26
f 26 32 27
f 26 40 32
f 28 41 42
f 28 42 43
f 28 43 44
f 28 44 29
f 28 33 45
f 28 45 46
f 28 46 41
f 29 44 47
f 29 47 30
f 30 48 34
f 30 47 49
f 30 49 43
f 30 43 48
f 32 50 51
f 32 51 33
f 32 40 50
f 33 51 52
f 33 52 53
f 33 53 45
f 34 48 58
f 34 58 37
f 35 37 54
f 37 55 56
f 37 56 57
f 37 57 54
f 37 58 59
f 37 59 55
f 38 60 61
f 38 61 39
f 40 62 63
f 40 63 64
f 40 64 65
f 40 65 50
f 41 46 66
f 41 66 42
f 42 66 43
f 43 66 67
f 43 67 68
f 43 68 69
f 43 69 48
f 43 49 70
f 43 70 71
f 43 71 44
f 44 71 70
f 44 70 47
f 45 53 72
f 45 72 73
f 45 73 46
f 46 73 66
f 47 70 49
f 48 59 58
f 48 69 59
f 50 65 64
f 50 64 63
f 50 63 51
f 51 63 52
f 52 63 62
f 52 62 74
f 52 74 53
f 53 74 72
f 55 75 76
f 55 76 77
f 55 77 78
f 55 78 79
f 55 79 56
f 55 59 80
f 55 80 81
f 55 81 82
f 55 82 75
f 56 83 57
f 56 79 84
f 56 84 83
f 57 83 85
f 59 69 86
f 59 86 87
f 59 87 80
f 60 88 61
f 61 88 90
f 61 90 91
f 61 91 92
f 61 92 89
f 66 73 93
f 66 93 67
f 67 93 68
f 68 94 69
f 68 93 73
f 68 73 95
f 68 95 96
f 68 96 97
f 68 97 94
f 69 94 86
f 72 98 73
f 73 98 95
f 75 82 76
f 76 82 81
f 76 81 99
f 76 99 100
f 76 100 101
f 76 101 102
f 76 102 77
f 77 103 78
f 77 102 101
f 77 101 104
f 77 104 105
f 77 105 103
f 78 103 79
f 79 103 105
f 79 105 106
f 79 106 107
f 79 107 84
f 80 87 108
f 80 108 109
f 80 109 110
f 80 110 111
f 80 111 81
f 81 111 99
f 83 84 112
f 83 112 85
f 84 107 112
f 86 94 113
f 86 113 87
f 87 113 94
f 87 94 114
f 87 114 115
f 87 115 116
f 87 116 117
f 87 117 118
f 87 118 119
f 87 119 120
f 87 120 121
f 87 121 122
f 87 122 108
f 89 92 124
f 89 124 123
f 94 97 125
f 94 125 114
f 95 98 126
f 95 126 97
f 95 97 96
f 97 126 127
f 97 127 125
f 99 111 128
f 108 122 121
f 108 121 129
f 108 129 130
f 108 130 109
f 109 130 110
f 110 131 128
f 110 128 111
f 110 130 131
f 114 125 115
f 115 117 116
f 115 125 132
f 115 132 133
f 115 133 117
f 117 133 134
f 117 134 135
f 117 135 136
f 117 136 137
f 117 137 138
f 117 138 139
f 117 139 118
f 118 139 120
f 118 120 119
f 120 139 138
f 120 138 137
f 120 137 140
f 120 140 129
f 120 129 121
f 123 124 129
f 123 129 140
f 125 127 141
f 125 141 142
f 125 142 132
f 128 131 143
f 129 143 131
f 129 131 130
f 132 142 144
f 132 144 133
f 133 144 145
f 133 145 134
f 136 146 137
f 137 146 140
f 142 145 144

