# https://github.com/mikedh/trimesh
v -0.08817005 -0.04777210 -0.07090689
v -0.12189669 -0.02830591 -0.12942836
v -0.12606095 -0.02830591 -0.12852845
v -0.12755531 -0.02830591 -0.12857345
v -0.13502096 -0.02830591 -0.12982433
v -0.13536485 -0.02830591 -0.12993233
v -0.15204683 -0.05253134 -0.09243286
v -0.10211340 -0.05253134 -0.07090689
v -0.08817005 -0.05253134 -0.07090689
v -0.08817005 -0.02830591 -0.13936344
v -0.15204683 -0.02830591 -0.13794155
v -0.15204683 -0.05253134 -0.12539674
v -0.08817005 -0.05253134 -0.11231198
v -0.08817005 -0.02830591 -0.15958452
v -0.15204683 -0.02830591 -0.16262622
v -0.15204683 -0.05223018 -0.12605369
v -0.15139031 -0.05253134 -0.12559472
v -0.08995204 -0.05253134 -0.11317591
v -0.08817005 -0.05224204 -0.11326590
v -0.08817005 -0.02928290 -0.15915257
v -0.08833887 -0.02830591 -0.15962951
v -0.14858289 -0.02830591 -0.16283321
v -0.15204683 -0.02875172 -0.16234726
v -0.15204683 -0.05071966 -0.12934737
v -0.14858289 -0.05253134 -0.12641364
v -0.09014588 -0.05253134 -0.11325689
v -0.08996455 -0.04097589 -0.14792162
v -0.08817005 -0.04083835 -0.14746267
v -0.08817005 -0.03394729 -0.15708275
v -0.08961441 -0.03434329 -0.15725373
v -0.09005209 -0.02917855 -0.15964751
v -0.09447269 -0.02830591 -0.16106038
v -0.10348897 -0.02830591 -0.16210428
v -0.09898083 -0.03116098 -0.16026846
v -0.09447269 -0.03668853 -0.15647082
v -0.15204683 -0.03100447 -0.15972851
v -0.10348897 -0.04062493 -0.15144029
v -0.15204683 -0.05029519 -0.13026530
v -0.14858289 -0.04948182 -0.13301903
v -0.13505222 -0.04517550 -0.14246814
v -0.14407475 -0.05253134 -0.12643166
v -0.09459775 -0.05253134 -0.11455277
v -0.09447269 -0.04048502 -0.15088233
v -0.08996455 -0.04018861 -0.15017141
v -0.08817005 -0.04062493 -0.14808361
v -0.08817005 -0.03580640 -0.15624584
v -0.09447269 -0.03051361 -0.16007948
v -0.09088369 -0.03662925 -0.15640782
v -0.09904335 -0.02830591 -0.16193329
v -0.09974366 -0.02830591 -0.16202329
v -0.09898083 -0.02890585 -0.16161834
v -0.09447269 -0.03872313 -0.15383406
v -0.15204683 -0.04086443 -0.14729168
v -0.09898083 -0.04060596 -0.15128732
v -0.15204683 -0.04120828 -0.14684172
v -0.15204683 -0.04924232 -0.13252407
v -0.14858289 -0.04817522 -0.13580877
v -0.14858289 -0.04616434 -0.13965140
v -0.14858289 -0.04476763 -0.14191020
v -0.15204683 -0.04307925 -0.14414199
v -0.14346199 -0.05253134 -0.12629667
v -0.09898083 -0.05253134 -0.11561467
v -0.08961441 -0.03784574 -0.15425701
v -0.08817005 -0.03763469 -0.15388805
v -0.08817005 -0.03985899 -0.14967646
v -0.08817005 -0.03641346 -0.15573289
v -0.15204683 -0.04765353 -0.13580877
v -0.15204683 -0.04634693 -0.13840951
v -0.15204683 -0.04498105 -0.14102827
f 1 2 3
f 1 3 4
f 1 4 5
f 1 5 6
f 1 6 7
f 1 7 8
f 1 8 9
f 1 9 13
f 1 13 19
f 1 19 28
f 1 28 45
f 1 45 65
f 1 65 64
f 1 64 66
f 1 66 46
f 1 46 29
f 1 29 20
f 1 20 14
f 1 14 10
f 1 10 2
f 2 10 14
f 2 14 21
f 2 21 32
f 2 32 49
f 2 49 50
f 2 50 33
f 2 33 22
f 2 22 15
f 2 15 11
f 2 11 6
f 2 6 5
f 2 5 4
f 2 4 3
f 6 11 7
f 7 12 17
f 7 17 25
f 7 25 41
f 7 41 61
f 7 61 62
f 7 62 42
f 7 42 26
f 7 26 18
f 7 18 13
f 7 13 9
f 7 9 8
f 7 11 15
f 7 15 23
f 7 23 36
f 7 36 53
f 7 53 55
f 7 55 60
f 7 60 69
f 7 69 68
f 7 68 67
f 7 67 56
f 7 56 38
f 7 38 24
f 7 24 16
f 7 16 12
f 12 16 17
f 13 18 19
f 14 20 21
f 15 22 23
f 16 24 17
f 17 24 25
f 18 26 27
f 18 27 19
f 19 27 28
f 20 29 21
f 21 29 30
f 21 30 31
f 21 31 32
f 22 33 34
f 22 34 35
f 22 35 23
f 23 35 37
f 23 37 36
f 24 38 39
f 24 39 25
f 25 39 40
f 25 40 41
f 26 42 43
f 26 43 27
f 27 43 44
f 27 44 45
f 27 45 28
f 29 46 30
f 30 47 32
f 30 32 31
f 30 46 48
f 30 48 47
f 32 47 49
f 33 50 34
f 34 50 51
f 34 51 48
f 34 48 35
f 35 48 52
f 35 52 37
f 36 37 53
f 37 52 54
f 37 54 41
f 37 41 40
f 37 40 55
f 37 55 53
f 38 56 39
f 39 56 57
f 39 57 40
f 40 57 58
f 40 58 59
f 40 59 60
f 40 60 55
f 41 54 43
f 41 43 61
f 42 62 43
f 43 62 61
f 43 54 52
f 43 52 63
f 43 63 44
f 44 63 64
f 44 64 65
f 44 65 45
f 46 66 48
f 47 48 49
f 48 66 63
f 48 63 52
f 48 51 49
f 49 51 50
f 56 67 57
f 57 67 68
f 57 68 69
f 57 69 58
f 58 69 60
f 58 60 59
f 63 66 64

