# https://github.com/mikedh/trimesh
v -0.14382377 -0.02830992 -0.14076348
v -0.14382377 -0.02830992 -0.16189148
v -0.14382377 -0.01590722 -0.14302719
v -0.15206394 -0.05253134 -0.09241825
v -0.14382377 -0.02682216 -0.16426049
v -0.15206394 -0.05253134 -0.12539126
v -0.15206394 -0.05223008 -0.12605810
v -0.15206394 -0.04924064 -0.13251583
v -0.15206394 -0.04765091 -0.13579734
v -0.15206394 -0.04634390 -0.13839447
v -0.15206394 -0.04497200 -0.14100915
v -0.15206394 -0.04307637 -0.14413273
v -0.14382377 -0.01124926 -0.14492239
v -0.19672558 -0.05253134 0.00360537
v -0.14382377 -0.01101288 -0.14506277
v -0.14382377 -0.02673410 -0.16438331
v -0.15206394 -0.04119928 -0.14683513
v -0.15310769 -0.05253134 -0.12507540
v -0.15310769 -0.05021859 -0.13009419
v -0.15310769 -0.04916649 -0.13235790
v -0.15310769 -0.04749332 -0.13579734
v -0.15310769 -0.04578773 -0.13918413
v -0.15310769 -0.04462439 -0.14143030
v -0.15627328 -0.04089338 -0.14732648
v -0.15310769 -0.04090265 -0.14734404
v -0.20024139 -0.04952800 0.00360537
v -0.21339129 -0.05253134 0.00360537
v -0.14382377 -0.00766656 -0.14901112
v -0.14382377 -0.02390687 -0.16827902
v -0.16188346 -0.05253134 -0.12209222
v -0.15660289 -0.04994050 -0.12948000
v -0.15961055 -0.04967631 -0.12893601
v -0.15927407 -0.04057822 -0.14681759
v -0.16212380 -0.04941677 -0.12842710
v -0.17009613 -0.05020004 -0.12365400
v -0.16212380 -0.03869186 -0.14932698
v -0.16212380 -0.03686111 -0.15255585
v -0.15761918 -0.03702797 -0.15266113
v -0.14859620 -0.02693802 -0.16482203
v -0.20269969 -0.04819781 0.00360537
v -0.21203168 -0.05161829 0.00360537
v -0.21343251 -0.05253134 0.00186811
v -0.14382377 -0.00611854 -0.15274887
v -0.14382377 -0.02273890 -0.16971797
v -0.16663527 -0.05253134 -0.12035494
v -0.17096823 -0.05253134 -0.11868787
v -0.17565824 -0.05253134 -0.11682776
v -0.17565824 -0.05030664 -0.12114462
v -0.16663527 -0.04095827 -0.14304474
v -0.16889445 -0.04071263 -0.14257093
v -0.16476065 -0.03648106 -0.15204696
v -0.16105944 -0.03263882 -0.15699555
v -0.15761918 -0.03300497 -0.15766238
v -0.15761918 -0.03525748 -0.15490732
v -0.20707385 -0.04839711 0.00360537
v -0.14382377 -0.00575703 -0.15366139
v -0.14382377 -0.00574776 -0.15369648
v -0.21353549 -0.05253134 -0.00255404
v -0.20933302 -0.04981535 0.00360537
v -0.20946349 -0.04972729 -0.00737978
v -0.14576022 -0.02245618 -0.16948985
v -0.14382377 -0.02129748 -0.17077085
v -0.18032767 -0.05253134 -0.11447632
v -0.17835690 -0.04995440 -0.12047779
v -0.18291645 -0.05019078 -0.11612584
v -0.16517265 -0.03393656 -0.15278398
v -0.17326173 -0.04047625 -0.13790312
v -0.16901119 -0.03637910 -0.14725630
v -0.16164312 -0.02942691 -0.15771501
v -0.15658228 -0.02830992 -0.16152295
v -0.15657543 -0.02839798 -0.16148788
v -0.20726611 -0.04851298 0.00360537
v -0.14382377 -0.00526574 -0.15832920
v -0.21361789 -0.05253134 -0.00660767
v -0.20949095 -0.04970412 -0.01038052
v -0.20953216 -0.04968094 -0.01406564
v -0.14382377 -0.00518232 -0.16285662
v -0.15205707 -0.02399493 -0.16598020
v -0.14754559 -0.01945284 -0.17047253
v -0.14382377 -0.01567548 -0.17410502
v -0.14419457 -0.02073668 -0.17108673
v -0.14382377 -0.02072741 -0.17115691
v -0.18342459 -0.05253134 -0.11201956
v -0.18460569 -0.05253134 -0.11100176
v -0.18805969 -0.05253134 -0.10759743
v -0.16389543 -0.02942691 -0.15541621
v -0.18297824 -0.04586187 -0.12070591
v -0.18720821 -0.04557916 -0.11589772
v -0.20090058 -0.05040397 -0.09382210
v -0.18266238 -0.04121318 -0.12495257
v -0.19136947 -0.04295586 -0.11082628
v -0.18272418 -0.03845085 -0.12504031
v -0.17059055 -0.03393656 -0.14481710
v -0.16903867 -0.03393656 -0.14730895
v -0.15952128 -0.02492653 -0.16027705
v -0.15726210 -0.02492653 -0.16222489
v -0.21178447 -0.05119652 -0.01406564
v -0.21371403 -0.05253134 -0.01143341
v -0.20957336 -0.04964850 -0.01855797
v -0.14382377 -0.00541406 -0.16736650
v -0.14790265 -0.00805125 -0.16285662
v -0.20953216 -0.04968558 -0.05749738
v -0.21396124 -0.05253134 -0.03210516
v -0.21185313 -0.05108065 -0.03210516
v -0.21190807 -0.05111310 -0.02759528
v -0.20964889 -0.04960679 -0.02759528
v -0.20962141 -0.04962533 -0.02308540
v -0.14382377 -0.01140221 -0.17566679
v -0.19085446 -0.05253134 -0.10426328
v -0.16533746 -0.02942691 -0.15317003
v -0.16387483 -0.02830992 -0.15538111
v -0.15967235 -0.02042151 -0.16034725
v -0.19236517 -0.05080257 -0.10426328
v -0.19693846 -0.05087209 -0.09868295
v -0.20003538 -0.05253134 -0.09240070
v -0.20125766 -0.05253134 -0.09008434
v -0.20428592 -0.05253134 -0.08338094
v -0.20449193 -0.05253134 -0.08290713
v -0.20495200 -0.04974120 -0.08397757
v -0.20090058 -0.04883278 -0.09382210
v -0.19627237 -0.04619559 -0.10256109
v -0.19831182 -0.05214202 -0.09543654
v -0.19627237 -0.04473563 -0.10256109
v -0.18436535 -0.03845085 -0.12226769
v -0.16887386 -0.02739687 -0.14704572
v -0.17601532 -0.03393656 -0.13579734
v -0.17269179 -0.03393656 -0.14136012
v -0.15741317 -0.02042151 -0.16255832
v -0.15500979 -0.02042151 -0.16482203
v -0.21183254 -0.05116871 -0.01855797
v -0.21387884 -0.05253134 -0.02033034
v -0.21187373 -0.05114090 -0.02308540
v -0.14761426 -0.00819493 -0.16736650
v -0.15015496 -0.00964562 -0.16285662
v -0.14382377 -0.00623441 -0.17206943
v -0.15565526 -0.01344615 -0.15832920
v -0.20936048 -0.04982463 -0.06049811
v -0.21342564 -0.05253134 -0.05012714
v -0.21361102 -0.05253134 -0.04749491
v -0.21372777 -0.05253134 -0.04561726
v -0.21385136 -0.05253134 -0.04110738
v -0.15555914 -0.01350177 -0.16118956
v -0.16098391 -0.01731620 -0.15383686
v -0.21396811 -0.05253134 -0.02759528
v -0.21394750 -0.05253134 -0.02478758
v -0.15050517 -0.01590722 -0.16931437
v -0.14600055 -0.01140221 -0.17373650
v -0.14382377 -0.00694817 -0.17352591
v -0.19413680 -0.05253134 -0.10031493
v -0.19415739 -0.05251744 -0.10031493
v -0.16530311 -0.02830992 -0.15311739
v -0.16381988 -0.02492653 -0.15520562
v -0.16121738 -0.02042151 -0.15810107
v -0.16057190 -0.01755721 -0.15741670
v -0.15505099 -0.01590722 -0.16431312
v -0.14790265 -0.01140221 -0.17149034
v -0.19621058 -0.05253134 -0.09778799
v -0.19771440 -0.05253134 -0.09580505
v -0.19872381 -0.05253134 -0.09433100
v -0.20521295 -0.05253134 -0.08092419
v -0.20495200 -0.04970875 -0.08397757
v -0.20928495 -0.05253134 -0.06757003
v -0.21034931 -0.05253134 -0.06386737
v -0.19682172 -0.04436021 -0.09973583
v -0.19178836 -0.04040673 -0.10777290
v -0.17359135 -0.02696583 -0.13841203
v -0.17372181 -0.02830992 -0.13862260
v -0.18256624 -0.03576730 -0.12479463
v -0.17894056 -0.03393656 -0.13081366
v -0.16833137 -0.02830992 -0.14806351
v -0.17382482 -0.02942691 -0.13878053
v -0.16519324 -0.02492653 -0.15294190
v -0.14708550 -0.00857035 -0.17084105
v -0.20575541 -0.04892084 -0.07720397
v -0.21308228 -0.05253134 -0.05291730
v -0.16487050 -0.02188610 -0.15241547
v -0.15209827 -0.01254236 -0.16645402
v -0.21270461 -0.05253134 -0.05463703
v -0.20525414 -0.04937505 -0.08171386
v -0.16720521 -0.02492653 -0.14932698
f 1 2 5
f 1 5 16
f 1 16 29
f 1 29 44
f 1 44 62
f 1 62 82
f 1 82 80
f 1 80 108
f 1 108 148
f 1 148 135
f 1 135 100
f 1 100 77
f 1 77 73
f 1 73 57
f 1 57 56
f 1 56 43
f 1 43 28
f 1 28 15
f 1 15 13
f 1 13 3
f 1 3 4
f 1 4 6
f 1 6 2
f 2 6 7
f 2 7 8
f 2 8 9
f 2 9 10
f 2 10 11
f 2 11 12
f 2 12 5
f 3 13 4
f 4 14 27
f 4 27 42
f 4 42 58
f 4 58 74
f 4 74 98
f 4 98 131
f 4 131 145
f 4 145 144
f 4 144 103
f 4 103 141
f 4 141 140
f 4 140 139
f 4 139 138
f 4 138 175
f 4 175 178
f 4 178 163
f 4 163 162
f 4 162 160
f 4 160 118
f 4 118 117
f 4 117 116
f 4 116 115
f 4 115 159
f 4 159 158
f 4 158 157
f 4 157 149
f 4 149 109
f 4 109 85
f 4 85 84
f 4 84 83
f 4 83 63
f 4 63 47
f 4 47 46
f 4 46 45
f 4 45 30
f 4 30 18
f 4 18 6
f 4 13 15
f 4 15 14
f 5 12 17
f 5 17 16
f 6 18 7
f 7 18 19
f 7 19 8
f 8 19 20
f 8 20 9
f 9 20 21
f 9 21 10
f 10 21 22
f 10 22 23
f 10 23 11
f 11 23 24
f 11 24 12
f 12 24 25
f 12 25 17
f 14 26 40
f 14 40 55
f 14 55 72
f 14 72 59
f 14 59 41
f 14 41 27
f 14 15 28
f 14 28 26
f 16 17 29
f 17 25 29
f 18 30 19
f 19 30 20
f 20 30 31
f 20 31 32
f 20 32 21
f 21 32 22
f 22 33 23
f 22 32 34
f 22 34 35
f 22 35 33
f 23 33 24
f 24 33 36
f 24 36 37
f 24 37 38
f 24 38 25
f 25 38 39
f 25 39 29
f 26 28 40
f 27 41 42
f 28 43 40
f 29 39 44
f 30 45 31
f 31 45 32
f 32 45 46
f 32 46 47
f 32 47 34
f 33 35 36
f 34 47 35
f 35 47 36
f 36 47 48
f 36 48 49
f 36 49 50
f 36 50 51
f 36 51 37
f 37 51 52
f 37 52 53
f 37 53 54
f 37 54 38
f 38 54 39
f 39 54 53
f 39 53 44
f 40 43 56
f 40 56 57
f 40 57 55
f 41 58 42
f 41 59 60
f 41 60 58
f 44 53 61
f 44 61 62
f 47 63 64
f 47 64 48
f 48 64 50
f 48 50 49
f 50 64 65
f 50 65 51
f 51 66 52
f 51 65 67
f 51 67 68
f 51 68 66
f 52 69 70
f 52 70 71
f 52 71 61
f 52 61 53
f 52 66 69
f 55 57 73
f 55 73 72
f 58 60 75
f 58 75 76
f 58 76 74
f 59 72 73
f 59 73 77
f 59 77 60
f 60 77 75
f 61 78 79
f 61 79 80
f 61 80 81
f 61 81 62
f 61 71 78
f 62 81 82
f 63 83 64
f 64 83 84
f 64 84 65
f 65 84 85
f 65 85 67
f 66 86 69
f 66 68 86
f 67 85 87
f 67 87 68
f 68 87 88
f 68 88 89
f 68 89 90
f 68 90 91
f 68 91 92
f 68 92 93
f 68 93 94
f 68 94 86
f 69 86 95
f 69 95 96
f 69 96 70
f 70 96 78
f 70 78 71
f 74 76 97
f 74 97 98
f 75 77 76
f 76 99 97
f 76 77 99
f 77 100 101
f 77 101 102
f 77 102 103
f 77 103 104
f 77 104 105
f 77 105 106
f 77 106 107
f 77 107 99
f 78 96 108
f 78 108 79
f 79 108 80
f 80 82 81
f 85 109 87
f 86 110 111
f 86 111 112
f 86 112 95
f 86 94 110
f 87 109 113
f 87 113 114
f 87 114 88
f 88 114 89
f 89 115 116
f 89 116 117
f 89 117 118
f 89 118 119
f 89 119 161
f 89 161 120
f 89 120 123
f 89 123 121
f 89 121 90
f 89 114 122
f 89 122 115
f 90 121 91
f 91 121 123
f 91 123 124
f 91 124 92
f 92 124 125
f 92 125 126
f 92 126 127
f 92 127 93
f 93 127 110
f 93 110 94
f 95 112 128
f 95 128 129
f 95 129 96
f 96 129 108
f 97 99 130
f 97 130 98
f 98 130 131
f 99 107 132
f 99 132 130
f 100 133 134
f 100 134 101
f 100 135 133
f 101 134 136
f 101 136 102
f 102 137 138
f 102 138 139
f 102 139 140
f 102 140 141
f 102 141 103
f 102 136 142
f 102 142 143
f 102 143 137
f 103 144 105
f 103 105 104
f 105 145 131
f 105 131 132
f 105 132 107
f 105 107 106
f 105 144 145
f 108 146 147
f 108 147 148
f 108 129 146
f 109 149 150
f 109 150 113
f 110 127 151
f 110 151 152
f 110 152 111
f 111 152 112
f 112 152 153
f 112 153 154
f 112 154 155
f 112 155 156
f 112 156 147
f 112 147 128
f 113 150 114
f 114 150 157
f 114 157 158
f 114 158 122
f 115 122 159
f 118 160 119
f 119 160 162
f 119 162 163
f 119 163 161
f 120 161 123
f 122 158 159
f 123 161 164
f 123 164 165
f 123 165 166
f 123 166 167
f 123 167 168
f 123 168 124
f 124 168 169
f 124 169 125
f 125 170 126
f 125 169 171
f 125 171 172
f 125 172 170
f 126 170 127
f 127 170 151
f 128 147 146
f 128 146 129
f 130 132 131
f 133 135 173
f 133 173 142
f 133 142 134
f 134 142 136
f 135 148 173
f 137 174 175
f 137 175 138
f 137 143 166
f 137 166 174
f 142 154 143
f 142 173 154
f 143 154 166
f 147 156 173
f 147 173 148
f 149 157 150
f 151 170 172
f 151 172 152
f 152 172 153
f 153 172 176
f 153 176 154
f 154 173 177
f 154 177 155
f 154 176 166
f 155 177 156
f 156 177 173
f 161 163 178
f 161 178 175
f 161 175 179
f 161 179 165
f 161 165 164
f 165 179 166
f 166 176 180
f 166 180 167
f 166 179 174
f 167 171 168
f 167 180 171
f 168 171 169
f 171 180 172
f 172 180 176
f 174 179 175

