# https://github.com/mikedh/trimesh
v -0.05610741 -0.08036622 -0.07468373
v -0.05610741 -0.08036622 -0.05662110
v -0.05610741 -0.05254005 -0.09267918
v -0.03654207 -0.13774064 -0.08581986
v 0.03685978 -0.02069967 -0.10472590
v -0.05610741 -0.05254005 -0.06917537
v -0.03570486 -0.13930830 -0.08581986
v -0.03322052 -0.14094722 -0.08581986
v -0.03110018 -0.14156482 -0.08581986
v -0.02680491 -0.14202797 -0.08581986
v -0.02228213 -0.14174294 -0.08581986
v -0.01919718 -0.14062656 -0.08581986
v -0.01795955 -0.13745560 -0.08581986
v -0.01600302 -0.02069967 -0.11263763
v -0.02784232 -0.03315791 -0.10823394
v -0.00116977 -0.11059141 -0.12403500
v -0.00428202 -0.11510441 -0.12206453
v -0.00655706 -0.11738464 -0.12003437
v -0.02945305 -0.13578103 -0.09335840
v -0.03557746 -0.13777627 -0.08673045
v 0.03685978 -0.03315791 -0.10824887
v 0.03685978 -0.02069967 -0.11585457
v 0.00204259 -0.02069967 -0.09732173
v -0.01464710 -0.13633922 -0.08773808
v 0.01159775 -0.11299042 -0.10641275
v -0.01600302 -0.02069967 -0.09732173
v -0.03237420 -0.13934392 -0.08823070
v -0.03105468 -0.14111350 -0.08652893
v -0.02680491 -0.14177856 -0.08620799
v -0.02229123 -0.14036530 -0.08913382
v -0.02229123 -0.14169545 -0.08620799
v -0.01914258 -0.14065033 -0.08620799
v -0.00200698 -0.12641065 -0.09744114
v 0.03195480 -0.02069967 -0.11601131
v 0.02246334 -0.07905982 -0.13267821
v 0.02246334 -0.07913108 -0.13269313
v 0.02246334 -0.08036622 -0.13287225
v 0.01369079 -0.10158917 -0.13063309
v 0.01087884 -0.10158917 -0.12936422
v 0.00107797 -0.11059141 -0.12524416
v 0.00137828 -0.11379800 -0.12507994
v -0.00428202 -0.11818036 -0.12101959
v -0.00766728 -0.12244394 -0.11630240
v -0.01649443 -0.12721823 -0.10743531
v -0.02041660 -0.13112554 -0.10227776
v 0.03685978 -0.03341919 -0.10832350
v 0.03685978 -0.02155477 -0.11616805
v 0.03630467 -0.02069967 -0.11592922
v 0.01197086 -0.11319232 -0.10874894
v 0.01369079 -0.11209970 -0.11216740
v 0.01369079 -0.11071017 -0.10874894
v 0.03685978 -0.05255191 -0.11468274
v 0.03685978 -0.04218391 -0.11115978
v 0.03685978 -0.03792031 -0.10973418
v -0.02937115 -0.13994962 -0.08852925
v -0.02680491 -0.14010401 -0.08875316
v -0.01933368 -0.14028217 -0.08903680
v -0.01778665 -0.13342954 -0.09974002
v -0.01778665 -0.13521098 -0.09718738
v -0.01417389 -0.13656488 -0.09072364
v -0.00200698 -0.12641065 -0.09762028
v 0.03570406 -0.02069967 -0.11598892
v 0.03685978 -0.02547395 -0.11727272
v 0.03685978 -0.05255191 -0.12269150
v 0.01369079 -0.10885747 -0.12719223
v 0.01369079 -0.10666036 -0.12925972
v 0.01369079 -0.10607842 -0.12972996
v 0.01369079 -0.10223049 -0.13052113
v 0.01144305 -0.10835865 -0.12905075
v 0.01101534 -0.10610216 -0.12927467
v 0.00472713 -0.11389302 -0.12532626
v 0.00022256 -0.11820412 -0.12122858
v -0.00428202 -0.12230144 -0.11610088
v -0.00877750 -0.12628001 -0.11077912
v -0.01328207 -0.12778829 -0.10829365
v -0.01778665 -0.13137494 -0.10263602
v 0.03630467 -0.02107971 -0.11606357
v 0.01369079 -0.11209970 -0.11325714
v -0.01061573 -0.13117304 -0.10255391
v -0.01461070 -0.13601856 -0.09439588
v -0.01328207 -0.13003291 -0.10509910
v 0.01369079 -0.11110209 -0.12227353
v 0.01369079 -0.11161277 -0.11771308
v 0.01369079 -0.10927314 -0.12658766
v 0.00789399 -0.11327545 -0.12503517
v 0.01154315 -0.10835865 -0.12905075
v 0.01331768 -0.10619718 -0.12971503
v -0.00202518 -0.12186202 -0.11551124
f 1 2 6
f 1 6 3
f 1 3 4
f 1 4 2
f 2 5 6
f 2 4 7
f 2 7 8
f 2 8 9
f 2 9 10
f 2 10 11
f 2 11 12
f 2 12 13
f 2 13 5
f 3 6 26
f 3 26 14
f 3 14 15
f 3 15 16
f 3 16 17
f 3 17 18
f 3 18 19
f 3 19 4
f 4 19 20
f 4 20 7
f 5 21 46
f 5 46 54
f 5 54 53
f 5 53 52
f 5 52 64
f 5 64 63
f 5 63 47
f 5 47 22
f 5 22 48
f 5 48 62
f 5 62 34
f 5 34 14
f 5 14 26
f 5 26 23
f 5 23 6
f 5 13 24
f 5 24 25
f 5 25 21
f 6 23 26
f 7 27 8
f 7 20 19
f 7 19 27
f 8 28 9
f 8 27 28
f 9 28 29
f 9 29 10
f 10 29 30
f 10 30 31
f 10 31 11
f 11 31 32
f 11 32 12
f 12 24 13
f 12 32 33
f 12 33 24
f 14 34 35
f 14 35 36
f 14 36 37
f 14 37 38
f 14 38 15
f 15 38 39
f 15 39 40
f 15 40 16
f 16 40 17
f 17 40 41
f 17 41 42
f 17 42 18
f 18 42 43
f 18 43 44
f 18 44 19
f 19 44 45
f 19 45 27
f 21 25 46
f 22 47 48
f 24 33 25
f 25 33 49
f 25 49 50
f 25 50 51
f 25 51 52
f 25 52 53
f 25 53 54
f 25 54 46
f 27 55 28
f 27 45 55
f 28 55 56
f 28 56 30
f 28 30 29
f 30 57 31
f 30 56 58
f 30 58 59
f 30 59 57
f 31 57 32
f 32 57 60
f 32 60 33
f 33 61 78
f 33 78 50
f 33 50 49
f 33 60 61
f 34 62 35
f 35 62 63
f 35 63 36
f 36 63 64
f 36 64 37
f 37 64 65
f 37 65 66
f 37 66 67
f 37 67 68
f 37 68 38
f 38 68 69
f 38 69 70
f 38 70 40
f 38 40 39
f 40 70 41
f 41 71 42
f 41 70 69
f 41 69 71
f 42 71 72
f 42 72 43
f 43 72 73
f 43 73 74
f 43 74 75
f 43 75 45
f 43 45 44
f 45 75 76
f 45 76 55
f 47 63 62
f 47 62 77
f 47 77 48
f 48 77 62
f 50 78 64
f 50 64 52
f 50 52 51
f 55 58 56
f 55 76 58
f 57 59 74
f 57 74 79
f 57 79 80
f 57 80 60
f 58 76 75
f 58 75 81
f 58 81 59
f 59 81 74
f 60 80 82
f 60 82 61
f 61 82 83
f 61 83 78
f 64 84 65
f 64 78 83
f 64 83 82
f 64 82 84
f 65 84 85
f 65 85 86
f 65 86 66
f 66 86 67
f 67 86 87
f 67 87 68
f 68 87 69
f 69 87 86
f 69 86 71
f 71 85 72
f 71 86 85
f 72 88 73
f 72 85 88
f 73 88 79
f 73 79 74
f 74 81 75
f 79 88 85
f 79 85 82
f 79 82 80
f 82 85 84

