# https://github.com/mikedh/trimesh
v -0.02831789 -0.00462564 -0.12522390
v 0.00229368 -0.00462564 -0.12522390
v -0.01727625 -0.00462564 -0.10981371
v -0.00490473 -0.00461480 -0.06241480
v 0.07026383 0.05069659 -0.06240250
v 0.04977884 0.05069659 -0.12522390
v 0.00453862 -0.00338554 -0.12522390
v 0.09631234 -0.00462564 -0.09194381
v 0.09631234 -0.00462564 -0.07415384
v 0.02721973 -0.00461480 -0.06241480
v 0.09630015 0.00845220 -0.06240250
v 0.05157234 0.01013634 -0.06240250
v 0.01052916 0.00527886 -0.06240865
v 0.09381119 0.05069659 -0.06240250
v 0.04143356 0.02504995 -0.06240250
v 0.06238218 0.05069659 -0.12522390
v 0.00635652 -0.00232415 -0.12522390
v 0.07537592 0.05069659 -0.10777830
v 0.07764526 0.05069659 -0.10443307
v 0.07852371 0.05069659 -0.10298798
v 0.07986578 0.05069659 -0.10071274
v 0.08071984 0.05069659 -0.09916926
v 0.08290376 0.05069659 -0.09511071
v 0.08463626 0.05069659 -0.09163020
v 0.09082201 0.05069659 -0.07635530
v 0.09631234 0.00920492 -0.08423257
v 0.09632454 0.02940382 -0.06240250
v 0.09632454 0.02858611 -0.06277761
v 0.09632454 0.02504995 -0.06438258
v 0.00927249 -0.00021762 -0.12522390
v 0.04922980 0.03444000 -0.12522390
v 0.05154794 0.03656820 -0.12522390
v 0.05236539 0.03746171 -0.12522390
v 0.05359766 0.03886427 -0.12522390
v 0.05587919 0.04158272 -0.12522390
v 0.09632454 0.02504995 -0.06240250
v 0.09631234 0.00844137 -0.06242710
v 0.09631234 0.01133853 -0.06240250
f 1 2 8
f 1 8 9
f 1 9 3
f 1 3 4
f 1 4 5
f 1 5 6
f 1 6 16
f 1 16 35
f 1 35 34
f 1 34 33
f 1 33 32
f 1 32 31
f 1 31 30
f 1 30 17
f 1 17 7
f 1 7 2
f 2 7 8
f 3 9 4
f 4 9 10
f 4 10 11
f 4 11 12
f 4 12 13
f 4 13 5
f 5 14 25
f 5 25 24
f 5 24 23
f 5 23 22
f 5 22 21
f 5 21 20
f 5 20 19
f 5 19 18
f 5 18 16
f 5 16 6
f 5 13 15
f 5 15 12
f 5 12 11
f 5 11 38
f 5 38 36
f 5 36 27
f 5 27 14
f 7 17 8
f 8 16 18
f 8 18 19
f 8 19 20
f 8 20 21
f 8 21 22
f 8 22 23
f 8 23 24
f 8 24 25
f 8 25 26
f 8 26 27
f 8 27 28
f 8 28 29
f 8 29 36
f 8 36 9
f 8 17 30
f 8 30 31
f 8 31 32
f 8 32 33
f 8 33 34
f 8 34 35
f 8 35 16
f 9 36 37
f 9 37 11
f 9 11 10
f 11 37 38
f 12 15 13
f 14 27 26
f 14 26 25
f 27 36 29
f 27 29 28
f 36 38 37

