# https://github.com/mikedh/trimesh
v 0.17044227 -0.00773761 0.00359967
v 0.17044227 -0.01030753 0.00359967
v 0.17027541 -0.00777320 -0.00052318
v 0.16594413 -0.00346628 -0.02307696
v 0.16841811 -0.00551652 -0.00052318
v 0.16836007 -0.00548092 0.00359967
v 0.16547254 -0.00414969 0.00848725
v 0.16587158 -0.00461954 0.00850942
v 0.16487764 -0.00461954 0.01081467
v 0.16072774 -0.00461954 0.01763068
v 0.17016658 -0.01037871 0.00359967
v 0.13362281 -0.02732166 -0.07087769
v 0.13803390 -0.02606161 -0.07087769
v 0.14003630 -0.02522871 -0.07087769
v 0.14126240 -0.02463072 -0.07087769
v 0.17027541 -0.01025058 -0.00052318
v 0.15961047 -0.00461954 0.01903821
v 0.15784022 -0.00461954 0.02107747
v 0.16978206 -0.00825729 -0.00503394
v 0.16503724 -0.00422800 -0.03526820
v 0.16536373 -0.00380086 -0.03208740
v 0.16572647 -0.00350899 -0.02757664
v 0.16122834 0.00050606 -0.04109783
v 0.16610374 -0.00350899 -0.01856621
v 0.16625609 -0.00358018 -0.00954469
v 0.16621983 -0.00354459 -0.01406654
v 0.16732983 -0.00461954 0.00185965
v 0.16816418 -0.00532431 0.00359967
v 0.16727181 -0.00461954 0.00397649
v 0.16020536 -0.00022719 0.01026052
v 0.16487037 -0.00459818 0.01079250
v 0.16103245 -0.00399308 0.01653347
v 0.15747021 -0.00306050 0.02107747
v 0.16709769 -0.01077025 0.00359967
v 0.13301338 -0.02733590 -0.07087769
v 0.10397137 -0.00461954 -0.09213477
v 0.10689516 -0.00461954 -0.09135897
v 0.10847677 -0.00461954 -0.09091566
v 0.14335911 -0.02339203 -0.07087769
v 0.16978206 -0.00971666 -0.00503394
v 0.14560819 -0.02170486 -0.07087769
v 0.14666742 -0.02081500 -0.07087769
v 0.14799510 -0.01944817 -0.07087769
v 0.14987417 -0.00461954 0.02107747
v 0.16946283 -0.00878409 -0.00777142
v 0.16503724 -0.00493989 -0.03526820
v 0.16041577 -0.00449140 -0.05250218
v 0.16195384 -0.00236997 -0.04560859
v 0.16083656 0.00022842 -0.04560859
v 0.16123559 0.00052742 -0.03657599
v 0.10166427 0.04038605 -0.05118331
v 0.09987952 0.04174576 -0.04986444
v 0.09632454 0.04539062 0.01299801
v 0.16621257 -0.00361577 -0.00503394
v 0.16333230 -0.00121671 -0.02307696
v 0.16118480 0.00050606 -0.03208740
v 0.16616903 -0.00365849 -0.00052318
v 0.16609648 -0.00369408 0.00397649
v 0.15537350 0.00402279 0.00848725
v 0.16060440 0.00008605 0.00724596
v 0.14745097 0.00940466 0.01300909
v 0.14703017 0.00909855 0.01565791
v 0.15951614 -0.00085365 0.01300909
v 0.16255601 -0.00339509 0.01258794
v 0.15557665 -0.00132349 0.02107747
v 0.13289732 -0.02733590 -0.07087769
v 0.10318782 -0.00461954 -0.09214586
v 0.09632454 0.00919822 -0.08419938
v 0.09632454 0.04092709 -0.05764466
v 0.11174880 -0.00461954 -0.08916455
v 0.15088987 -0.01403782 -0.07087769
v 0.16946283 -0.00929664 -0.00777142
v 0.15133968 -0.01372459 -0.07045654
v 0.15183303 -0.01430834 -0.06815129
v 0.12927704 0.00937619 0.02107747
v 0.09632454 -0.00461954 -0.07413608
v 0.16041577 -0.00479751 -0.05250218
v 0.15588136 -0.00904748 -0.06147936
v 0.16043028 -0.00005633 -0.04794709
v 0.16077852 -0.00274015 -0.04970928
v 0.09632454 0.04324072 -0.05530616
v 0.15572174 0.00433602 -0.02307696
v 0.09632454 0.04361802 -0.04996418
v 0.09632454 0.04483535 0.01751985
v 0.14222006 0.01336276 0.01300909
v 0.14779197 0.00961823 0.00848725
v 0.14784274 0.00963247 0.00397649
v 0.15807238 0.00256342 -0.01856621
v 0.16312917 -0.00135909 -0.00503394
v 0.15568547 0.00430042 -0.01856621
v 0.15009907 0.00802360 0.00397649
v 0.16302758 -0.00143740 0.00397649
v 0.15311718 0.00573132 0.00848725
v 0.14454895 0.01161152 0.01300909
v 0.14154536 0.01284309 0.01751985
v 0.14462875 0.01036571 0.01730927
v 0.14334460 0.00969654 0.02107747
v 0.14553563 0.00776020 0.02107747
v 0.15169518 0.00474180 0.01595715
v 0.09632454 -0.00461954 -0.09194636
v 0.09874047 -0.00461954 -0.09204611
v 0.15036024 -0.01324762 -0.07087769
v 0.14912689 -0.01232217 -0.07087769
v 0.11427356 -0.00461954 -0.08771268
v 0.11306196 -0.00461954 -0.08843307
v 0.15133968 -0.01360357 -0.07045654
v 0.15588136 -0.00927529 -0.06147936
v 0.12565677 0.01183932 0.02107747
v 0.12384300 0.01309937 0.02107747
v 0.09632454 0.03328140 0.02107747
v 0.15585959 -0.00461954 -0.05693536
v 0.09632454 0.04281359 0.02107747
v 0.13276672 0.01756291 0.02107747
v 0.13764212 0.01413872 0.02107747
v 0.13833861 0.01381837 0.02067848
v 0.15004829 0.00798089 0.00848725
v 0.13822253 0.01372583 0.02107747
v 0.14029022 0.01215255 0.02107747
f 1 2 16
f 1 16 3
f 1 3 4
f 1 4 5
f 1 5 6
f 1 6 7
f 1 7 8
f 1 8 9
f 1 9 10
f 1 10 2
f 2 11 12
f 2 12 13
f 2 13 14
f 2 14 15
f 2 15 16
f 2 10 17
f 2 17 18
f 2 18 11
f 3 16 40
f 3 40 19
f 3 19 20
f 3 20 21
f 3 21 22
f 3 22 4
f 4 22 23
f 4 23 24
f 4 24 5
f 5 25 6
f 5 24 26
f 5 26 25
f 6 25 27
f 6 27 28
f 6 28 29
f 6 29 7
f 7 30 31
f 7 31 8
f 7 29 30
f 8 31 9
f 9 31 32
f 9 32 10
f 10 33 17
f 10 32 33
f 11 18 34
f 11 34 12
f 12 35 36
f 12 36 13
f 12 34 35
f 13 36 14
f 14 36 37
f 14 37 15
f 15 37 38
f 15 38 39
f 15 39 16
f 16 39 41
f 16 41 42
f 16 42 43
f 16 43 40
f 17 33 18
f 18 44 34
f 18 33 65
f 18 65 98
f 18 98 97
f 18 97 118
f 18 118 117
f 18 117 114
f 18 114 113
f 18 113 112
f 18 112 110
f 18 110 109
f 18 109 108
f 18 108 75
f 18 75 44
f 19 40 72
f 19 72 45
f 19 45 20
f 20 46 77
f 20 77 47
f 20 47 48
f 20 48 49
f 20 49 21
f 20 45 72
f 20 72 46
f 21 49 23
f 21 23 22
f 23 50 26
f 23 26 24
f 23 49 51
f 23 51 52
f 23 52 53
f 23 53 50
f 25 54 27
f 25 26 50
f 25 50 55
f 25 55 56
f 25 56 54
f 27 54 57
f 27 57 58
f 27 58 29
f 27 29 28
f 29 58 59
f 29 59 60
f 29 60 30
f 30 60 59
f 30 59 61
f 30 61 62
f 30 62 31
f 31 62 63
f 31 63 64
f 31 64 32
f 32 64 65
f 32 65 33
f 34 44 66
f 34 66 35
f 35 66 67
f 35 67 36
f 36 67 68
f 36 68 37
f 37 68 38
f 38 68 69
f 38 69 70
f 38 70 71
f 38 71 43
f 38 43 42
f 38 42 41
f 38 41 39
f 40 43 72
f 43 71 73
f 43 73 74
f 43 74 72
f 44 75 76
f 44 76 66
f 46 74 77
f 46 72 74
f 47 77 107
f 47 107 78
f 47 78 79
f 47 79 80
f 47 80 48
f 48 80 79
f 48 79 49
f 49 79 81
f 49 81 51
f 50 53 82
f 50 82 56
f 50 56 55
f 51 81 52
f 52 81 83
f 52 83 53
f 53 84 85
f 53 85 86
f 53 86 87
f 53 87 82
f 53 83 81
f 53 81 69
f 53 69 68
f 53 68 100
f 53 100 76
f 53 76 110
f 53 110 112
f 53 112 84
f 54 56 88
f 54 88 89
f 54 89 57
f 56 82 90
f 56 90 91
f 56 91 88
f 57 89 91
f 57 91 92
f 57 92 58
f 58 92 93
f 58 93 59
f 59 93 94
f 59 94 61
f 61 94 95
f 61 95 62
f 62 95 96
f 62 96 97
f 62 97 98
f 62 98 99
f 62 99 63
f 63 99 98
f 63 98 65
f 63 65 64
f 66 76 100
f 66 100 101
f 66 101 67
f 67 101 68
f 68 101 100
f 69 81 102
f 69 102 103
f 69 103 104
f 69 104 105
f 69 105 70
f 70 105 71
f 71 106 73
f 71 105 102
f 71 102 106
f 73 106 78
f 73 78 107
f 73 107 74
f 74 107 77
f 75 108 76
f 76 108 109
f 76 109 110
f 78 106 79
f 79 106 111
f 79 111 81
f 81 111 106
f 81 106 102
f 82 87 86
f 82 86 91
f 82 91 90
f 84 112 113
f 84 113 114
f 84 114 115
f 84 115 95
f 84 95 85
f 85 95 94
f 85 94 93
f 85 93 116
f 85 116 86
f 86 116 91
f 88 91 89
f 91 116 92
f 92 116 93
f 95 115 117
f 95 117 118
f 95 118 97
f 95 97 96
f 102 105 104
f 102 104 103
f 114 117 115

