# https://github.com/mikedh/trimesh
v 0.02912172 0.05070183 0.17357275
v 0.06573753 0.05070183 0.12527527
v 0.04848092 0.05070183 0.17357275
v 0.06527598 0.13545759 0.17357275
v 0.06525034 0.13547958 0.17267923
v 0.09654985 0.15404774 0.12713322
v 0.07378890 0.05070183 0.12527527
v 0.09887466 0.15551075 0.12527527
v 0.04961768 0.05070183 0.17238611
v 0.05625023 0.05466187 0.16819744
v 0.04973734 0.05284686 0.17357275
v 0.06926748 0.13751459 0.17357275
v 0.07360087 0.14016563 0.17084964
v 0.07901119 0.14427966 0.16016047
v 0.09266946 0.15321174 0.13708489
v 0.09266946 0.15321174 0.13680123
v 0.09562676 0.15446575 0.13027710
v 0.10094307 0.15812878 0.12527527
v 0.06683156 0.05070183 0.14936727
v 0.08699418 0.06422095 0.12527527
v 0.05263482 0.05070183 0.16911459
v 0.06613070 0.05791790 0.16008481
v 0.07006236 0.06319795 0.15949386
v 0.06551530 0.06324194 0.16396621
v 0.05440407 0.05620188 0.17088746
v 0.05250661 0.05770890 0.17357275
v 0.07425044 0.13983563 0.17357275
v 0.07690860 0.14145264 0.17084964
v 0.07952401 0.14404866 0.16316724
v 0.11065258 0.16226482 0.12820166
v 0.11065258 0.16258383 0.12527527
v 0.10125931 0.15830480 0.12527527
v 0.06612214 0.05070183 0.15151836
v 0.08914805 0.06643198 0.12527527
v 0.05421603 0.05070183 0.16733228
v 0.06489136 0.05491487 0.15866180
v 0.06761789 0.05659789 0.15699296
v 0.07031024 0.05828090 0.15531938
v 0.06931876 0.06077792 0.15857670
v 0.05797676 0.05070183 0.16287886
v 0.07113930 0.06077792 0.15632161
v 0.07430173 0.06417695 0.15436912
v 0.07249829 0.06518896 0.15735698
v 0.07069485 0.06620097 0.16027392
v 0.06572043 0.08085310 0.17320871
v 0.06498538 0.07785008 0.17247593
v 0.06567770 0.07197602 0.16863710
v 0.06193407 0.07429704 0.17357275
v 0.07685731 0.14078163 0.17357275
v 0.08347277 0.14425766 0.16888294
v 0.08591725 0.14573167 0.16633949
v 0.09176347 0.14905371 0.16104926
v 0.08042146 0.14374065 0.16633949
v 0.08876343 0.14847070 0.15809922
v 0.10597730 0.15780978 0.14174160
v 0.11116541 0.16226482 0.12820166
v 0.11278936 0.16285881 0.12612624
v 0.11282355 0.16307883 0.12527527
v 0.06521616 0.05070183 0.15335740
v 0.08943866 0.06675097 0.12527527
v 0.08848138 0.06717998 0.12866499
v 0.06338707 0.05174685 0.15731916
v 0.06610505 0.05342986 0.15565503
v 0.07504533 0.06253794 0.15136707
v 0.06499393 0.05070183 0.15379706
v 0.06166910 0.05070183 0.15836397
v 0.07948127 0.06682798 0.14671035
v 0.08819932 0.08099610 0.14159031
v 0.09293442 0.14386167 0.16900586
v 0.08843865 0.13974762 0.17357275
v 0.06522470 0.08055609 0.17357275
v 0.06421614 0.07846608 0.17357275
v 0.06401956 0.07429704 0.17153513
v 0.07860093 0.14138663 0.17357275
v 0.08600271 0.14470866 0.17057072
v 0.08755829 0.14438966 0.17347820
v 0.10637048 0.15780978 0.14174160
v 0.11493468 0.16297983 0.12527527
v 0.09141304 0.06975400 0.12527527
v 0.09172928 0.07027101 0.12527527
v 0.08777197 0.06842299 0.13167176
v 0.06288280 0.05070183 0.15687476
v 0.08325910 0.06847799 0.14075354
v 0.08239584 0.06990800 0.14363739
v 0.08390868 0.07149202 0.14202054
v 0.09210535 0.08331712 0.13589825
v 0.10094307 0.09206221 0.12592296
v 0.10145588 0.09520823 0.12753035
v 0.10207128 0.09821125 0.12855151
v 0.08872925 0.14195864 0.17357275
v 0.10520808 0.10167629 0.12527527
v 0.10607987 0.10431631 0.12527527
v 0.11246455 0.12390748 0.12527527
v 0.11138763 0.12840651 0.12923230
v 0.11055002 0.13190454 0.13223433
v 0.10245590 0.14643568 0.15198165
v 0.10254992 0.15094572 0.15207621
v 0.09293442 0.14459866 0.16900586
v 0.08153258 0.14239864 0.17357275
v 0.08302832 0.14290465 0.17357275
v 0.08748136 0.14426866 0.17357275
v 0.08854976 0.14438966 0.17347820
v 0.11578085 0.16260582 0.12527527
v 0.10224222 0.15365174 0.15134816
v 0.09338742 0.07378004 0.12527527
v 0.09220792 0.07314203 0.12709068
v 0.08695145 0.06987501 0.13465017
v 0.09389170 0.07490205 0.12527527
v 0.09496863 0.08331712 0.13027710
v 0.10108836 0.09165519 0.12527527
v 0.10354139 0.09740825 0.12527527
v 0.08854976 0.14383966 0.17357275
v 0.11352441 0.12840651 0.12527527
v 0.11326800 0.12840651 0.12576695
v 0.11155856 0.13320257 0.13054658
v 0.11075515 0.13489658 0.13259837
v 0.10667817 0.14192563 0.14250275
v 0.10431062 0.14643568 0.14831302
v 0.10597730 0.15094572 0.14564663
v 0.10457558 0.15094572 0.14831302
v 0.09778063 0.14935072 0.16042520
v 0.11059275 0.15546675 0.13681069
v 0.11630221 0.15997681 0.12554002
v 0.11619110 0.16114281 0.12527527
v 0.08841300 0.14426866 0.17357275
v 0.11403723 0.13291657 0.12527527
v 0.11380646 0.13291657 0.12576695
v 0.11209704 0.13742660 0.13027710
v 0.11087480 0.13742660 0.13284893
v 0.10821664 0.14192563 0.13929270
v 0.10580637 0.14643568 0.14521642
v 0.10708843 0.15094572 0.14339155
v 0.11169532 0.15546675 0.13455561
v 0.11643897 0.15997681 0.12527527
v 0.11488339 0.14192563 0.12527527
v 0.11482357 0.15094572 0.12715213
v 0.11292611 0.14643568 0.13027710
v 0.11021668 0.14643568 0.13596916
v 0.11502869 0.15546675 0.12758234
v 0.11612273 0.15551075 0.12527527
v 0.11609709 0.15546675 0.12532727
f 1 2 7
f 1 7 19
f 1 19 33
f 1 33 59
f 1 59 65
f 1 65 82
f 1 82 66
f 1 66 40
f 1 40 35
f 1 35 21
f 1 21 9
f 1 9 3
f 1 3 11
f 1 11 26
f 1 26 48
f 1 48 72
f 1 72 71
f 1 71 70
f 1 70 90
f 1 90 112
f 1 112 125
f 1 125 101
f 1 101 100
f 1 100 99
f 1 99 74
f 1 74 49
f 1 49 27
f 1 27 12
f 1 12 4
f 1 4 5
f 1 5 6
f 1 6 2
f 2 6 8
f 2 8 18
f 2 18 32
f 2 32 31
f 2 31 58
f 2 58 78
f 2 78 103
f 2 103 124
f 2 124 134
f 2 134 140
f 2 140 135
f 2 135 126
f 2 126 113
f 2 113 93
f 2 93 92
f 2 92 91
f 2 91 111
f 2 111 110
f 2 110 108
f 2 108 105
f 2 105 80
f 2 80 79
f 2 79 60
f 2 60 34
f 2 34 20
f 2 20 7
f 3 9 10
f 3 10 11
f 4 12 13
f 4 13 14
f 4 14 5
f 5 14 15
f 5 15 16
f 5 16 17
f 5 17 6
f 6 17 18
f 6 18 8
f 7 20 19
f 9 21 22
f 9 22 10
f 10 22 23
f 10 23 11
f 11 23 24
f 11 24 25
f 11 25 26
f 12 27 13
f 13 27 28
f 13 28 29
f 13 29 14
f 14 29 30
f 14 30 15
f 15 30 31
f 15 31 32
f 15 32 18
f 15 18 16
f 16 18 17
f 19 20 34
f 19 34 33
f 21 35 22
f 22 36 37
f 22 37 38
f 22 38 39
f 22 39 23
f 22 35 40
f 22 40 36
f 23 39 41
f 23 41 42
f 23 42 43
f 23 43 44
f 23 44 45
f 23 45 46
f 23 46 47
f 23 47 24
f 24 26 25
f 24 47 48
f 24 48 26
f 27 49 28
f 28 49 50
f 28 50 51
f 28 51 52
f 28 52 53
f 28 53 29
f 29 53 52
f 29 52 54
f 29 54 30
f 30 55 77
f 30 77 56
f 30 56 57
f 30 57 58
f 30 58 31
f 30 54 52
f 30 52 55
f 33 34 60
f 33 60 61
f 33 61 38
f 33 38 59
f 36 40 62
f 36 62 37
f 37 62 63
f 37 63 38
f 38 61 64
f 38 64 42
f 38 42 41
f 38 41 39
f 38 63 65
f 38 65 59
f 40 66 62
f 42 64 67
f 42 67 68
f 42 68 69
f 42 69 70
f 42 70 43
f 43 70 44
f 44 70 45
f 45 71 46
f 45 70 71
f 46 72 73
f 46 73 47
f 46 71 72
f 47 73 48
f 48 73 72
f 49 74 50
f 50 74 75
f 50 75 51
f 51 75 52
f 52 75 76
f 52 76 55
f 55 76 102
f 55 102 77
f 56 78 57
f 56 77 78
f 57 78 58
f 60 79 61
f 61 79 80
f 61 80 81
f 61 81 64
f 62 66 82
f 62 82 63
f 63 82 65
f 64 81 67
f 67 81 83
f 67 83 84
f 67 84 68
f 68 84 85
f 68 85 86
f 68 86 87
f 68 87 88
f 68 88 89
f 68 89 69
f 69 90 70
f 69 89 91
f 69 91 92
f 69 92 93
f 69 93 94
f 69 94 95
f 69 95 96
f 69 96 97
f 69 97 98
f 69 98 90
f 74 99 75
f 75 99 100
f 75 100 76
f 76 100 101
f 76 101 125
f 76 125 102
f 77 103 78
f 77 102 104
f 77 104 103
f 80 105 81
f 81 105 106
f 81 106 107
f 81 107 83
f 83 107 106
f 83 106 108
f 83 108 109
f 83 109 87
f 83 87 85
f 83 85 84
f 85 87 86
f 87 110 111
f 87 111 88
f 87 109 108
f 87 108 110
f 88 111 91
f 88 91 89
f 90 98 112
f 93 113 114
f 93 114 94
f 94 114 95
f 95 114 113
f 95 113 115
f 95 115 116
f 95 116 117
f 95 117 96
f 96 118 119
f 96 119 120
f 96 120 97
f 96 117 118
f 97 121 98
f 97 120 122
f 97 122 123
f 97 123 124
f 97 124 104
f 97 104 121
f 98 121 102
f 98 102 112
f 102 121 104
f 102 125 112
f 103 104 124
f 105 108 106
f 113 126 127
f 113 127 115
f 115 127 116
f 116 127 128
f 116 128 129
f 116 129 130
f 116 130 117
f 117 130 131
f 117 131 118
f 118 131 132
f 118 132 119
f 119 132 122
f 119 122 120
f 122 133 134
f 122 134 123
f 122 132 133
f 123 134 124
f 126 135 127
f 127 135 128
f 128 135 136
f 128 136 137
f 128 137 129
f 129 137 138
f 129 138 130
f 130 138 131
f 131 138 132
f 132 138 139
f 132 139 133
f 133 139 134
f 134 139 141
f 134 141 140
f 135 140 141
f 135 141 136
f 136 141 139
f 136 139 138
f 136 138 137

