# https://github.com/mikedh/trimesh
v -0.00045338 -0.04591040 0.07016745
v -0.00022734 -0.04585011 0.06989107
v -0.00022734 -0.04590147 0.07020200
v -0.00022734 -0.04589923 0.07032868
v -0.00022734 -0.04584787 0.07119811
v -0.00263110 -0.04584787 0.07120388
v -0.00258064 -0.04576749 0.06993713
v -0.00164215 -0.04502166 0.06557264
v -0.00022734 -0.04473361 0.06378193
v -0.00022734 -0.04573399 0.07135934
v -0.00314777 -0.04565807 0.07146874
v -0.00570290 -0.04559331 0.07124994
v -0.00523264 -0.04565361 0.07069718
v -0.00452625 -0.04543924 0.06889495
v -0.00415287 -0.04418652 0.06202001
v -0.00257055 -0.04377119 0.05938864
v -0.00022734 -0.04445895 0.06238276
v -0.00022734 -0.04566254 0.07145722
v -0.00066328 -0.04545933 0.07165299
v -0.00510549 -0.04532312 0.07163572
v -0.00877471 -0.04506856 0.07122115
v -0.00926515 -0.04472468 0.07158966
v -0.00732357 -0.04516457 0.06977592
v -0.00546475 -0.04449021 0.06453045
v -0.00488348 -0.03425415 0.01352113
v -0.00273201 -0.03449085 0.01352113
v -0.00235863 -0.03452881 0.01352113
v -0.00022734 -0.03463153 0.01352113
v -0.00022734 -0.04550622 0.07160693
v -0.00022734 -0.04545264 0.07164147
v -0.00348684 -0.04502613 0.07179119
v -0.00624582 -0.04484749 0.07187179
v -0.01273253 -0.04397886 0.07093901
v -0.00962036 -0.04476710 0.07023655
v -0.01234300 -0.04406147 0.07138813
v -0.00983632 -0.04401235 0.07194089
v -0.01233493 -0.04374216 0.07176815
v -0.00807235 -0.04445225 0.06678180
v -0.00742650 -0.04379352 0.06269944
v -0.00658085 -0.04328216 0.05946350
v -0.00655663 -0.03387231 0.01352113
v -0.00842555 -0.04177489 0.05394742
v -0.00929946 -0.04298071 0.06075903
v -0.00022734 -0.03228688 0.01352113
v -0.00022734 -0.04540798 0.07164723
v -0.01963299 -0.03988801 0.07232667
v -0.01565095 -0.04198032 0.07217696
v -0.01528160 -0.04310129 0.07108872
v -0.01457319 -0.04254080 0.06667816
v -0.01247823 -0.04350546 0.06796793
v -0.01006034 -0.04407041 0.06726547
v -0.01525133 -0.04302983 0.07158390
v -0.01577608 -0.04252741 0.07190634
v -0.00928735 -0.03309969 0.01352113
v -0.01058307 -0.04089732 0.05245612
v -0.01158010 -0.04244255 0.06127724
v -0.02084395 -0.02309810 0.01352113
v -0.02084395 -0.02346654 0.01604885
v -0.00022734 -0.03318008 0.01910055
v -0.00022734 -0.04500604 0.07161845
v -0.02084395 -0.03879607 0.07231515
v -0.02084395 -0.03953519 0.07233243
v -0.02064818 -0.03970043 0.07231515
v -0.01792755 -0.04126353 0.07218272
v -0.01749363 -0.04217459 0.07130177
v -0.01750977 -0.04199149 0.07023079
v -0.01667219 -0.04177042 0.06716758
v -0.01570948 -0.04042169 0.05876103
v -0.01401817 -0.04140868 0.06014869
v -0.01714043 -0.04222372 0.07166451
v -0.01891247 -0.04114072 0.07197543
v -0.01194137 -0.03206358 0.01352113
v -0.01252465 -0.04107149 0.05608360
v -0.01444402 -0.03931859 0.05121241
v -0.02084395 -0.02660837 0.01352113
v -0.00022734 -0.03637103 0.03539543
v -0.00022734 -0.03542871 0.03066819
v -0.00022734 -0.03448192 0.02588912
v -0.00022734 -0.03321134 0.01926753
v -0.02084395 -0.02443343 0.02032122
v -0.00022734 -0.04223935 0.06269369
v -0.00022734 -0.04495914 0.07160693
v -0.02084395 -0.03858394 0.07215393
v -0.02084395 -0.03962451 0.07230364
v -0.02037975 -0.04067402 0.07131328
v -0.01934841 -0.04111839 0.07052444
v -0.01959464 -0.04104247 0.07167602
v -0.01812332 -0.04092188 0.06643057
v -0.01747546 -0.04019393 0.06154210
v -0.01636945 -0.03851024 0.05156365
v -0.01443595 -0.03754783 0.04320892
v -0.02084395 -0.04018946 0.07185452
v -0.01446824 -0.03087339 0.01352113
v -0.01933429 -0.02783205 0.01352113
v -0.02084395 -0.03771753 0.05948653
v -0.02084395 -0.02698798 0.03036302
v -0.00022734 -0.04398779 0.07005230
v -0.00022734 -0.04315488 0.06661482
v -0.00022734 -0.04279760 0.06509474
v -0.00022734 -0.04453934 0.07116933
v -0.02084395 -0.03806588 0.07130177
v -0.02084395 -0.04029218 0.07173936
v -0.02084395 -0.04036140 0.07146874
v -0.02084395 -0.04036140 0.07131904
v -0.02084395 -0.04031897 0.07093901
v -0.02084395 -0.04020062 0.07037473
v -0.02002655 -0.03964014 0.06540567
v -0.01834332 -0.03902830 0.05839253
v -0.01571553 -0.03016777 0.01352113
v -0.01920512 -0.02792807 0.01352113
v -0.02084395 -0.03783811 0.05999323
v -0.01784884 -0.02889943 0.01352113
v -0.02084395 -0.03477444 0.05975715
v -0.02084395 -0.03709006 0.06835946
v -0.02084395 -0.03967587 0.06789308
v -0.02084395 -0.03912879 0.06552082
v -0.02084395 -0.03818199 0.06143846
f 1 2 3
f 1 3 4
f 1 4 5
f 1 5 6
f 1 6 7
f 1 7 8
f 1 8 9
f 1 9 2
f 2 9 17
f 2 17 28
f 2 28 44
f 2 44 59
f 2 59 79
f 2 79 78
f 2 78 77
f 2 77 76
f 2 76 81
f 2 81 99
f 2 99 98
f 2 98 97
f 2 97 100
f 2 100 82
f 2 82 60
f 2 60 45
f 2 45 30
f 2 30 29
f 2 29 18
f 2 18 10
f 2 10 5
f 2 5 4
f 2 4 3
f 5 10 6
f 6 10 11
f 6 11 12
f 6 12 13
f 6 13 7
f 7 14 8
f 7 13 14
f 8 15 16
f 8 16 9
f 8 14 15
f 9 16 17
f 10 18 11
f 11 18 19
f 11 19 20
f 11 20 12
f 12 21 13
f 12 20 22
f 12 22 21
f 13 21 23
f 13 23 14
f 14 23 24
f 14 24 15
f 15 24 25
f 15 25 26
f 15 26 27
f 15 27 16
f 16 27 28
f 16 28 17
f 18 29 19
f 19 29 30
f 19 30 31
f 19 31 32
f 19 32 20
f 20 32 22
f 21 33 34
f 21 34 23
f 21 22 35
f 21 35 33
f 22 32 36
f 22 36 37
f 22 37 35
f 23 38 39
f 23 39 24
f 23 34 38
f 24 39 40
f 24 40 25
f 25 41 54
f 25 54 72
f 25 72 93
f 25 93 109
f 25 109 112
f 25 112 110
f 25 110 94
f 25 94 75
f 25 75 57
f 25 57 44
f 25 44 28
f 25 28 27
f 25 27 26
f 25 40 39
f 25 39 42
f 25 42 43
f 25 43 41
f 30 45 31
f 31 46 32
f 31 45 46
f 32 46 47
f 32 47 36
f 33 35 48
f 33 48 49
f 33 49 50
f 33 50 34
f 34 50 51
f 34 51 43
f 34 43 38
f 35 37 52
f 35 52 48
f 36 47 37
f 37 47 53
f 37 53 52
f 38 43 39
f 39 43 42
f 41 43 55
f 41 55 54
f 43 56 55
f 43 51 56
f 44 57 58
f 44 58 59
f 45 60 46
f 46 61 62
f 46 62 47
f 46 60 61
f 47 62 63
f 47 63 64
f 47 64 53
f 48 52 65
f 48 65 66
f 48 66 67
f 48 67 49
f 49 68 69
f 49 69 50
f 49 67 68
f 50 69 56
f 50 56 51
f 52 53 70
f 52 70 65
f 53 64 71
f 53 71 70
f 54 55 73
f 54 73 69
f 54 69 74
f 54 74 72
f 55 56 73
f 56 69 73
f 57 75 95
f 57 95 111
f 57 111 117
f 57 117 116
f 57 116 115
f 57 115 106
f 57 106 105
f 57 105 104
f 57 104 103
f 57 103 102
f 57 102 92
f 57 92 84
f 57 84 62
f 57 62 61
f 57 61 83
f 57 83 101
f 57 101 114
f 57 114 113
f 57 113 96
f 57 96 80
f 57 80 58
f 58 76 77
f 58 77 78
f 58 78 79
f 58 79 59
f 58 80 81
f 58 81 76
f 60 82 61
f 61 82 83
f 62 84 63
f 63 84 64
f 64 84 71
f 65 85 86
f 65 86 66
f 65 70 87
f 65 87 85
f 66 86 88
f 66 88 67
f 67 88 89
f 67 89 68
f 68 89 90
f 68 90 91
f 68 91 74
f 68 74 69
f 70 71 87
f 71 84 92
f 71 92 87
f 72 74 91
f 72 91 93
f 75 94 95
f 80 96 97
f 80 97 98
f 80 98 99
f 80 99 81
f 82 100 83
f 83 100 101
f 85 87 102
f 85 102 103
f 85 103 104
f 85 104 105
f 85 105 106
f 85 106 107
f 85 107 86
f 86 107 88
f 87 92 102
f 88 107 108
f 88 108 89
f 89 108 90
f 90 108 93
f 90 93 91
f 93 108 109
f 94 110 95
f 95 110 112
f 95 112 111
f 96 113 97
f 97 113 114
f 97 114 101
f 97 101 100
f 106 115 107
f 107 115 116
f 107 116 117
f 107 117 112
f 107 112 108
f 108 112 109
f 111 112 117

