# https://github.com/mikedh/trimesh
v 0.02754360 -0.03410501 -0.00514108
v 0.00043908 -0.04425940 -0.00514108
v 0.02754360 -0.03762180 -0.00514108
v 0.02754360 -0.04427376 -0.03277702
v 0.00043908 -0.05253844 -0.03277702
v 0.00043908 -0.04727555 -0.00514108
v 0.02563334 -0.03909295 -0.00514108
v 0.02754360 -0.03807935 -0.00572274
v 0.02754360 -0.04710320 -0.03277702
v 0.00043908 -0.05506421 -0.03277702
v 0.00043908 -0.04734326 -0.00525470
v 0.00185851 -0.04836506 -0.00705381
v 0.00048418 -0.04727350 -0.00514108
v 0.02320306 -0.04068926 -0.00514108
v 0.02419533 -0.04128223 -0.00684820
v 0.02628866 -0.03946843 -0.00626112
v 0.02754360 -0.03892880 -0.00683738
v 0.02648500 -0.04776183 -0.03277702
v 0.02754360 -0.04708884 -0.03190317
v 0.02624356 -0.04789315 -0.03152982
v 0.00059031 -0.05506421 -0.03277702
v 0.00043908 -0.05501497 -0.03060456
v 0.00043908 -0.04950177 -0.00902336
v 0.00046826 -0.04949766 -0.00901795
v 0.00416940 -0.04955511 -0.00951575
v 0.00472391 -0.04811269 -0.00698888
v 0.00329386 -0.04713603 -0.00514108
v 0.00317182 -0.04714424 -0.00514108
v 0.02179158 -0.04151408 -0.00514108
v 0.02305713 -0.04286212 -0.00830102
v 0.02468351 -0.04296266 -0.01004602
v 0.02598090 -0.04124940 -0.00857697
v 0.02155015 -0.04178492 -0.00533316
v 0.02754360 -0.03954845 -0.00776263
v 0.02366736 -0.04929864 -0.03214666
v 0.02469412 -0.04873849 -0.03277702
v 0.02754360 -0.04701497 -0.03008782
v 0.02754360 -0.04689392 -0.02866207
v 0.02693338 -0.04717296 -0.02777739
v 0.02511597 -0.04823170 -0.02782609
v 0.02329592 -0.04937660 -0.03037731
v 0.00357244 -0.05497393 -0.03277702
v 0.00411634 -0.05494931 -0.03191399
v 0.00043908 -0.05499035 -0.02963872
v 0.00165422 -0.05022605 -0.01063039
v 0.00043908 -0.05066719 -0.01167198
v 0.00468411 -0.05026914 -0.01119582
v 0.00756808 -0.04952844 -0.01048430
v 0.00743542 -0.04871387 -0.00887186
v 0.00820483 -0.04745406 -0.00687255
v 0.00785992 -0.04644047 -0.00514108
v 0.00477432 -0.04694932 -0.00514108
v 0.02135116 -0.04175004 -0.00514108
v 0.01953110 -0.04456512 -0.00810622
v 0.02276794 -0.04434967 -0.01061416
v 0.02563599 -0.04403165 -0.01330606
v 0.02754360 -0.04162488 -0.01099562
v 0.02754360 -0.04136225 -0.01054923
v 0.02754360 -0.04054768 -0.00925874
v 0.02088952 -0.04199010 -0.00514108
v 0.01864761 -0.04310423 -0.00514108
v 0.02337020 -0.04943200 -0.03277702
v 0.02134055 -0.05026093 -0.02922479
v 0.02079400 -0.05068976 -0.03211689
v 0.02754360 -0.04668463 -0.02695223
v 0.02754360 -0.04637891 -0.02470402
v 0.02584559 -0.04742328 -0.02470132
v 0.02381328 -0.04854357 -0.02480683
v 0.02230364 -0.04952639 -0.02660323
v 0.00446390 -0.05488160 -0.03277702
v 0.00792625 -0.05446098 -0.03277702
v 0.00798727 -0.05445483 -0.03270127
v 0.00588864 -0.05466821 -0.03010406
v 0.00415613 -0.05467027 -0.02758801
v 0.00043908 -0.05498624 -0.02955756
v 0.00154279 -0.05152484 -0.01374704
v 0.00405001 -0.05127042 -0.01342780
v 0.00043908 -0.05149202 -0.01365506
v 0.00639273 -0.05091136 -0.01330606
v 0.00992672 -0.04874875 -0.00983499
v 0.00824198 -0.05059332 -0.01334664
v 0.01120819 -0.04921451 -0.01153671
v 0.01076246 -0.04741303 -0.00775181
v 0.00837994 -0.04635224 -0.00514108
v 0.01623590 -0.04669284 -0.00955092
v 0.01805330 -0.04681800 -0.01112548
v 0.02066134 -0.04590905 -0.01161246
v 0.01754921 -0.04357409 -0.00514108
v 0.01627039 -0.04475389 -0.00617184
v 0.02317387 -0.04535712 -0.01315455
v 0.02615335 -0.04495906 -0.01616840
v 0.02754360 -0.04319040 -0.01412580
v 0.02754360 -0.04305293 -0.01381738
v 0.02754360 -0.04193060 -0.01159082
v 0.02158464 -0.05029581 -0.03277702
v 0.01843270 -0.05154331 -0.03060997
v 0.01896864 -0.05095444 -0.02616225
v 0.01552220 -0.05263693 -0.03092380
v 0.01630753 -0.05236609 -0.03277702
v 0.01744043 -0.05194342 -0.03277702
v 0.02062155 -0.05074516 -0.03277702
v 0.02754360 -0.04601369 -0.02295902
v 0.02604723 -0.04660051 -0.02137364
v 0.02311285 -0.04812295 -0.02104088
v 0.01988132 -0.05031633 -0.02432797
v 0.00802973 -0.05444662 -0.03277702
v 0.01219781 -0.05358281 -0.03179225
v 0.00958447 -0.05403215 -0.02946828
v 0.00772727 -0.05407114 -0.02628399
v 0.00615926 -0.05405062 -0.02443889
v 0.00431532 -0.05409987 -0.02351093
v 0.00210260 -0.05449791 -0.02510172
v 0.00043908 -0.05461076 -0.02551565
v 0.00046561 -0.05259179 -0.01668514
v 0.00335223 -0.05183467 -0.01474264
v 0.00043908 -0.05257742 -0.01664726
v 0.00726297 -0.05174850 -0.01599796
v 0.01231190 -0.04797317 -0.00958339
v 0.01052368 -0.05095034 -0.01544064
v 0.01351377 -0.04990802 -0.01472641
v 0.01498892 -0.04814757 -0.01157458
v 0.01427257 -0.04660872 -0.00812787
v 0.01243129 -0.04587827 -0.00596894
v 0.00955528 -0.04606909 -0.00514108
v 0.01732899 -0.04840405 -0.01413392
v 0.02028194 -0.04725504 -0.01426378
v 0.01586446 -0.04420194 -0.00514108
v 0.01453258 -0.04467181 -0.00514108
v 0.01264885 -0.04528736 -0.00514108
v 0.02370716 -0.04641379 -0.01638483
v 0.02628866 -0.04549459 -0.01784306
v 0.02754360 -0.04442149 -0.01709636
v 0.01604487 -0.05211987 -0.02661947
v 0.01596528 -0.05175465 -0.02376524
v 0.01272314 -0.05341661 -0.03277702
v 0.01491729 -0.05278260 -0.03277702
v 0.01401522 -0.05291392 -0.02882168
v 0.02754360 -0.04559718 -0.02109228
v 0.02630458 -0.04556435 -0.01806490
v 0.01959478 -0.05001677 -0.02224479
v 0.02352143 -0.04695137 -0.01784306
v 0.02163240 -0.04793418 -0.01784306
v 0.02105932 -0.04835276 -0.01824617
v 0.01201209 -0.05360743 -0.03277702
v 0.01129309 -0.05353151 -0.02760695
v 0.01140983 -0.05311500 -0.02443348
v 0.00907241 -0.05339815 -0.02348388
v 0.00659437 -0.05328530 -0.02108957
v 0.00489636 -0.05306986 -0.01917413
v 0.00312141 -0.05343508 -0.02012644
v 0.00046296 -0.05423323 -0.02321063
v 0.00043908 -0.05424144 -0.02325662
v 0.00043908 -0.05259179 -0.01669055
v 0.00043908 -0.05291597 -0.01784306
v 0.00094318 -0.05292213 -0.01784306
v 0.00229893 -0.05286263 -0.01784306
v 0.00376612 -0.05239481 -0.01652552
v 0.00746726 -0.05230864 -0.01784306
v 0.00752297 -0.05230043 -0.01784306
v 0.00752563 -0.05230659 -0.01786470
v 0.01068552 -0.05248920 -0.02058095
v 0.01291416 -0.05131146 -0.01826240
v 0.01298580 -0.05114526 -0.01784306
v 0.01589099 -0.05030812 -0.01784306
v 0.01593875 -0.05029376 -0.01784306
v 0.01606079 -0.05024862 -0.01784306
v 0.01912252 -0.04878774 -0.01700438
v 0.02754360 -0.04469644 -0.01784306
v 0.01372337 -0.05237840 -0.02368678
v 0.01771105 -0.05033275 -0.02031312
v 0.01515076 -0.05138943 -0.02084338
v 0.02754360 -0.04510474 -0.01924177
v 0.02754360 -0.04473747 -0.01795939
v 0.01876700 -0.04918168 -0.01784306
v 0.01217394 -0.05220399 -0.02085690
v 0.00131462 -0.05317450 -0.01873315
v 0.00432859 -0.05273131 -0.01784306
v 0.00043908 -0.05422708 -0.02318087
v 0.00043908 -0.05325247 -0.01904697
v 0.01592018 -0.05031223 -0.01788094
f 1 2 6
f 1 6 13
f 1 13 28
f 1 28 27
f 1 27 52
f 1 52 51
f 1 51 84
f 1 84 124
f 1 124 129
f 1 129 128
f 1 128 127
f 1 127 88
f 1 88 61
f 1 61 60
f 1 60 53
f 1 53 29
f 1 29 14
f 1 14 7
f 1 7 3
f 1 3 8
f 1 8 17
f 1 17 34
f 1 34 59
f 1 59 58
f 1 58 57
f 1 57 94
f 1 94 93
f 1 93 92
f 1 92 132
f 1 132 168
f 1 168 173
f 1 173 172
f 1 172 138
f 1 138 102
f 1 102 66
f 1 66 65
f 1 65 38
f 1 38 37
f 1 37 19
f 1 19 9
f 1 9 4
f 1 4 5
f 1 5 2
f 2 5 10
f 2 10 22
f 2 22 44
f 2 44 75
f 2 75 113
f 2 113 152
f 2 152 178
f 2 178 179
f 2 179 154
f 2 154 153
f 2 153 116
f 2 116 78
f 2 78 46
f 2 46 23
f 2 23 11
f 2 11 6
f 3 7 8
f 4 9 18
f 4 18 36
f 4 36 62
f 4 62 95
f 4 95 101
f 4 101 100
f 4 100 99
f 4 99 136
f 4 136 135
f 4 135 144
f 4 144 106
f 4 106 71
f 4 71 70
f 4 70 42
f 4 42 21
f 4 21 10
f 4 10 5
f 6 11 12
f 6 12 13
f 7 14 15
f 7 15 16
f 7 16 8
f 8 16 17
f 9 19 20
f 9 20 18
f 10 21 22
f 11 23 12
f 12 23 24
f 12 24 25
f 12 25 26
f 12 26 27
f 12 27 28
f 12 28 13
f 14 29 15
f 15 30 31
f 15 31 32
f 15 32 16
f 15 29 33
f 15 33 30
f 16 32 17
f 17 32 34
f 18 20 35
f 18 35 36
f 19 37 20
f 20 37 38
f 20 38 39
f 20 39 40
f 20 40 41
f 20 41 35
f 21 42 43
f 21 43 22
f 22 43 44
f 23 45 24
f 23 46 45
f 24 45 25
f 25 45 47
f 25 47 48
f 25 48 49
f 25 49 26
f 26 50 51
f 26 51 52
f 26 52 27
f 26 49 50
f 29 53 33
f 30 33 54
f 30 54 55
f 30 55 31
f 31 55 56
f 31 56 57
f 31 57 32
f 32 57 58
f 32 58 59
f 32 59 34
f 33 53 60
f 33 60 61
f 33 61 54
f 35 62 36
f 35 41 63
f 35 63 64
f 35 64 62
f 38 65 39
f 39 65 66
f 39 66 67
f 39 67 40
f 40 67 68
f 40 68 69
f 40 69 63
f 40 63 41
f 42 70 43
f 43 70 71
f 43 71 72
f 43 72 73
f 43 73 74
f 43 74 75
f 43 75 44
f 45 46 76
f 45 76 77
f 45 77 47
f 46 78 76
f 47 77 79
f 47 79 48
f 48 80 49
f 48 79 81
f 48 81 82
f 48 82 80
f 49 80 50
f 50 80 83
f 50 83 84
f 50 84 51
f 54 85 86
f 54 86 87
f 54 87 55
f 54 61 88
f 54 88 89
f 54 89 85
f 55 87 90
f 55 90 56
f 56 90 91
f 56 91 92
f 56 92 93
f 56 93 94
f 56 94 57
f 62 64 95
f 63 96 64
f 63 69 97
f 63 97 96
f 64 98 99
f 64 99 100
f 64 100 101
f 64 101 95
f 64 96 98
f 66 102 67
f 67 102 103
f 67 103 104
f 67 104 68
f 68 104 105
f 68 105 69
f 69 105 97
f 71 106 72
f 72 107 108
f 72 108 73
f 72 106 107
f 73 108 109
f 73 109 74
f 74 109 110
f 74 110 111
f 74 111 112
f 74 112 113
f 74 113 75
f 76 78 114
f 76 114 115
f 76 115 77
f 77 115 79
f 78 116 114
f 79 115 117
f 79 117 81
f 80 82 118
f 80 118 83
f 81 117 119
f 81 119 82
f 82 119 120
f 82 120 121
f 82 121 118
f 83 122 123
f 83 123 124
f 83 124 84
f 83 118 122
f 85 89 122
f 85 122 121
f 85 121 86
f 86 121 125
f 86 125 126
f 86 126 87
f 87 126 90
f 88 127 89
f 89 127 128
f 89 128 129
f 89 129 123
f 89 123 122
f 90 126 130
f 90 130 91
f 91 130 131
f 91 131 132
f 91 132 92
f 96 97 133
f 96 133 98
f 97 105 134
f 97 134 133
f 98 107 135
f 98 135 136
f 98 136 99
f 98 133 137
f 98 137 107
f 102 138 103
f 103 138 139
f 103 139 104
f 104 140 105
f 104 139 141
f 104 141 142
f 104 142 143
f 104 143 140
f 105 140 134
f 106 144 107
f 107 144 135
f 107 137 145
f 107 145 108
f 108 145 109
f 109 145 146
f 109 146 147
f 109 147 110
f 110 147 148
f 110 148 111
f 111 148 149
f 111 149 150
f 111 150 151
f 111 151 112
f 112 151 152
f 112 152 113
f 114 153 154
f 114 154 155
f 114 155 156
f 114 156 157
f 114 157 115
f 114 116 153
f 115 157 117
f 117 157 158
f 117 158 159
f 117 159 119
f 118 121 122
f 119 159 160
f 119 160 161
f 119 161 162
f 119 162 163
f 119 163 120
f 120 125 121
f 120 163 164
f 120 164 165
f 120 165 125
f 123 129 124
f 125 165 166
f 125 166 167
f 125 167 126
f 126 142 130
f 126 167 143
f 126 143 142
f 130 142 141
f 130 141 139
f 130 139 131
f 131 168 132
f 131 139 168
f 133 145 137
f 133 134 169
f 133 169 146
f 133 146 145
f 134 140 170
f 134 170 171
f 134 171 169
f 138 172 139
f 139 172 173
f 139 173 168
f 140 143 170
f 143 167 174
f 143 174 170
f 146 169 175
f 146 175 161
f 146 161 147
f 147 161 148
f 148 161 160
f 148 160 149
f 149 176 150
f 149 160 158
f 149 158 177
f 149 177 156
f 149 156 176
f 150 176 151
f 151 178 152
f 151 176 178
f 154 179 155
f 155 179 176
f 155 176 156
f 156 177 157
f 157 177 158
f 158 160 159
f 161 175 162
f 162 175 171
f 162 171 180
f 162 180 164
f 162 164 163
f 164 180 165
f 165 180 166
f 166 180 170
f 166 170 174
f 166 174 167
f 169 171 175
f 170 180 171
f 176 179 178

