# https://github.com/mikedh/trimesh
v -0.04059447 0.03149823 -0.03241557
v -0.03492483 0.03149823 -0.05230457
v -0.04394900 0.03149823 -0.03241557
v -0.05130974 -0.00011020 -0.03241557
v -0.03851013 0.03149823 -0.05230457
v -0.04653550 -0.00011020 -0.05230457
v -0.04399146 0.03149823 -0.03374332
v -0.04493486 0.03009664 -0.03281662
v -0.04449178 0.03071544 -0.03241557
v -0.05376887 -0.00011020 -0.03241557
v -0.03920060 0.03149823 -0.05118319
v -0.03863382 0.03134971 -0.05230457
v -0.04917555 -0.00011020 -0.05230457
v -0.04397484 0.03149823 -0.03397110
v -0.04494778 0.02965110 -0.03672394
v -0.04645612 0.02740794 -0.03293148
v -0.04624934 0.02774210 -0.03241557
v -0.04498286 0.02998525 -0.03241557
v -0.05376333 0.00067877 -0.03241557
v -0.05378364 -0.00011020 -0.03288087
v -0.03922460 0.03146729 -0.05118319
v -0.03923568 0.03149823 -0.05111115
v -0.03925414 0.03055456 -0.05230457
v -0.04931586 -0.00011020 -0.05202227
v -0.04941371 0.00167814 -0.05186458
v -0.04918848 0.00121403 -0.05230457
v -0.04376253 0.03149823 -0.03629953
v -0.04569549 0.02757502 -0.03992261
v -0.04686413 0.02590425 -0.03791347
v -0.04686413 0.02638692 -0.03516841
v -0.04422962 0.03038748 -0.03882849
v -0.04859769 0.02298350 -0.03508664
v -0.04883770 0.02272980 -0.03264724
v -0.04664997 0.02700881 -0.03241557
v -0.05377441 -0.00011020 -0.03354863
v -0.05370979 0.00213296 -0.03241557
v -0.04176865 0.02699335 -0.05209042
v -0.04130341 0.02955828 -0.04962181
v -0.04095079 0.03149823 -0.04719020
v -0.04134772 0.02745126 -0.05230457
v -0.04970171 -0.00011020 -0.05106638
v -0.05137990 0.00162863 -0.04656721
v -0.05027403 0.00383157 -0.04927722
v -0.05044758 0.00574367 -0.04844592
v -0.04867708 0.00772074 -0.05222475
v -0.04912940 0.00266512 -0.05230457
v -0.04917740 0.00184212 -0.05230457
v -0.05088697 -0.00011020 -0.04800788
v -0.05095712 -0.00011020 -0.04782293
v -0.04345791 0.03149823 -0.03879150
v -0.04394530 0.03022659 -0.04089020
v -0.04450839 0.02854035 -0.04264626
v -0.04626965 0.02565673 -0.04203105
v -0.04756198 0.02405713 -0.03981164
v -0.04846477 0.02290306 -0.03736056
v -0.04952264 0.02087648 -0.03572327
v -0.04883401 0.02271742 -0.03241557
v -0.04861800 0.02315058 -0.03241557
v -0.05031465 0.01924903 -0.03310281
v -0.05028326 0.01926141 -0.03241557
v -0.05355655 -0.00011020 -0.03603476
v -0.05368025 0.00188234 -0.03482187
v -0.05362117 0.00385632 -0.03241557
v -0.04170772 0.02688506 -0.05230457
v -0.04274159 0.02501937 -0.05230457
v -0.04279143 0.02607133 -0.05114230
v -0.04300744 0.02759668 -0.04858609
v -0.04220250 0.03030084 -0.04630049
v -0.04182219 0.03149823 -0.04499221
v -0.05187652 -0.00011020 -0.04481310
v -0.05257069 0.00123569 -0.04237175
v -0.05218114 0.00299928 -0.04343668
v -0.05153129 0.00520222 -0.04529397
v -0.05013003 0.00925847 -0.04806239
v -0.04924017 0.00876033 -0.05050763
v -0.04862354 0.00778262 -0.05230457
v -0.04866046 0.00753510 -0.05230457
v -0.04828569 0.01161301 -0.05147521
v -0.04797738 0.01107465 -0.05230457
v -0.04319390 0.03149823 -0.04015429
v -0.04277667 0.03149823 -0.04201159
v -0.04283575 0.03135590 -0.04219653
v -0.04441054 0.02723468 -0.04561909
v -0.04648566 0.02421183 -0.04392144
v -0.04855338 0.02136843 -0.04118417
v -0.04899278 0.02137771 -0.03866106
v -0.05021126 0.01869211 -0.03747543
v -0.05038665 0.01868592 -0.03506328
v -0.05118051 0.01655105 -0.03241557
v -0.05085004 0.01759992 -0.03241557
v -0.05149990 0.01525466 -0.03522293
v -0.05144821 0.01569710 -0.03241557
v -0.05335717 0.00125735 -0.03823275
v -0.05341624 -0.00011020 -0.03752799
v -0.05351963 0.00549615 -0.03333253
v -0.05334240 0.00609020 -0.03515284
v -0.05333501 0.00413169 -0.03694393
v -0.05351409 0.00529194 -0.03241557
v -0.04328252 0.02403856 -0.05230457
v -0.04340252 0.02380032 -0.05230457
v -0.04475763 0.02355899 -0.04952642
v -0.04451024 0.02556391 -0.04774116
v -0.04268067 0.03149823 -0.04237175
v -0.05198914 -0.00011020 -0.04441010
v -0.05260577 0.00458651 -0.04153655
v -0.05262423 -0.00011020 -0.04206220
v -0.05303039 -0.00011020 -0.03993430
v -0.05224391 0.00806727 -0.04139249
v -0.05134851 0.00816009 -0.04468266
v -0.05144082 0.01037231 -0.04309403
v -0.05022418 0.01260000 -0.04571449
v -0.04947648 0.01346942 -0.04736347
v -0.04913494 0.01217612 -0.04909616
v -0.04789245 0.01449353 -0.05064585
v -0.04774106 0.01222562 -0.05230457
v -0.04590411 0.02399525 -0.04617589
v -0.04794414 0.02062896 -0.04446656
v -0.04989187 0.01789385 -0.04116860
v -0.04943771 0.01971932 -0.04011730
v -0.05040327 0.01734312 -0.03937750
v -0.05074850 0.01655105 -0.03872920
v -0.05129128 0.01530726 -0.03770321
v -0.05205376 0.01245149 -0.03728658
v -0.05240084 0.01157588 -0.03542540
v -0.05278485 0.01059199 -0.03291396
v -0.05194668 0.01388711 -0.03241557
v -0.05324086 -0.00011020 -0.03877981
v -0.05293993 0.00422451 -0.03970846
v -0.05335163 0.00669044 -0.03241557
v -0.05314855 0.00819103 -0.03241557
v -0.05313378 0.00834264 -0.03371412
v -0.05291408 0.00870464 -0.03574857
v -0.05291039 0.00700912 -0.03832425
v -0.04468009 0.02090433 -0.05230457
v -0.04646166 0.02057946 -0.04872043
v -0.05239899 0.00995153 -0.03881291
v -0.05197622 0.01143356 -0.03954882
v -0.05115651 0.01290631 -0.04188504
v -0.05026296 0.01578064 -0.04240485
v -0.04936017 0.01621071 -0.04517327
v -0.04817307 0.01824967 -0.04668207
v -0.04639889 0.01655105 -0.05230457
v -0.04711521 0.01431408 -0.05230457
v -0.04758414 0.01280420 -0.05230457
v -0.04749552 0.01655105 -0.04988853
v -0.04602965 0.01770203 -0.05230457
v -0.04925124 0.01655105 -0.04511875
v -0.05012819 0.01655105 -0.04195512
v -0.05102913 0.01504118 -0.03995766
v -0.05280331 0.01038159 -0.03241557
v -0.05275162 0.01064149 -0.03241557
v -0.05250423 0.01173677 -0.03241557
v -0.05290485 0.00978445 -0.03241557
v -0.04595026 0.01792479 -0.05230457
v -0.04722783 0.01792170 -0.04938625
v -0.04597241 0.01786291 -0.05230457
f 1 2 5
f 1 5 11
f 1 11 22
f 1 22 39
f 1 39 69
f 1 69 103
f 1 103 81
f 1 81 80
f 1 80 50
f 1 50 27
f 1 27 14
f 1 14 7
f 1 7 3
f 1 3 9
f 1 9 18
f 1 18 17
f 1 17 34
f 1 34 58
f 1 58 57
f 1 57 60
f 1 60 90
f 1 90 89
f 1 89 92
f 1 92 126
f 1 126 152
f 1 152 151
f 1 151 150
f 1 150 153
f 1 153 130
f 1 130 129
f 1 129 98
f 1 98 63
f 1 63 36
f 1 36 19
f 1 19 10
f 1 10 4
f 1 4 2
f 2 4 6
f 2 6 13
f 2 13 26
f 2 26 47
f 2 47 46
f 2 46 77
f 2 77 76
f 2 76 79
f 2 79 115
f 2 115 144
f 2 144 143
f 2 143 142
f 2 142 146
f 2 146 156
f 2 156 154
f 2 154 134
f 2 134 100
f 2 100 99
f 2 99 65
f 2 65 64
f 2 64 40
f 2 40 23
f 2 23 12
f 2 12 5
f 3 7 8
f 3 8 9
f 4 10 20
f 4 20 35
f 4 35 61
f 4 61 94
f 4 94 127
f 4 127 107
f 4 107 106
f 4 106 104
f 4 104 70
f 4 70 49
f 4 49 48
f 4 48 41
f 4 41 24
f 4 24 13
f 4 13 6
f 5 12 11
f 7 14 15
f 7 15 8
f 8 15 16
f 8 16 17
f 8 17 18
f 8 18 9
f 10 19 20
f 11 21 22
f 11 12 23
f 11 23 21
f 13 24 25
f 13 25 26
f 14 27 15
f 15 28 29
f 15 29 30
f 15 30 16
f 15 27 31
f 15 31 28
f 16 30 32
f 16 32 33
f 16 33 34
f 16 34 17
f 19 35 20
f 19 36 35
f 21 23 37
f 21 37 38
f 21 38 22
f 22 38 39
f 23 40 37
f 24 41 25
f 25 42 43
f 25 43 44
f 25 44 45
f 25 45 46
f 25 46 47
f 25 47 26
f 25 41 48
f 25 48 49
f 25 49 42
f 27 50 31
f 28 31 51
f 28 51 52
f 28 52 53
f 28 53 54
f 28 54 29
f 29 54 55
f 29 55 30
f 30 55 32
f 31 50 51
f 32 55 56
f 32 56 33
f 33 57 58
f 33 58 34
f 33 56 59
f 33 59 60
f 33 60 57
f 35 36 62
f 35 62 61
f 36 63 62
f 37 64 65
f 37 65 66
f 37 66 38
f 37 40 64
f 38 66 67
f 38 67 68
f 38 68 39
f 39 68 69
f 42 49 70
f 42 70 71
f 42 71 72
f 42 72 73
f 42 73 44
f 42 44 43
f 44 73 74
f 44 74 75
f 44 75 45
f 45 76 77
f 45 77 46
f 45 75 78
f 45 78 79
f 45 79 76
f 50 80 51
f 51 80 81
f 51 81 82
f 51 82 52
f 52 82 83
f 52 83 53
f 53 84 85
f 53 85 54
f 53 83 84
f 54 85 86
f 54 86 55
f 55 86 56
f 56 87 88
f 56 88 59
f 56 86 87
f 59 89 90
f 59 90 60
f 59 88 91
f 59 91 92
f 59 92 89
f 61 62 93
f 61 93 94
f 62 63 95
f 62 95 96
f 62 96 97
f 62 97 93
f 63 98 95
f 65 99 66
f 66 99 100
f 66 100 101
f 66 101 102
f 66 102 67
f 67 83 68
f 67 102 83
f 68 82 69
f 68 83 82
f 69 82 103
f 70 104 71
f 71 93 105
f 71 105 72
f 71 104 106
f 71 106 107
f 71 107 93
f 72 105 73
f 73 105 108
f 73 108 109
f 73 109 74
f 74 110 111
f 74 111 112
f 74 112 113
f 74 113 78
f 74 78 75
f 74 109 110
f 78 113 114
f 78 114 115
f 78 115 79
f 81 103 82
f 83 102 116
f 83 116 84
f 84 116 117
f 84 117 85
f 85 117 118
f 85 118 119
f 85 119 86
f 86 119 87
f 87 119 120
f 87 120 121
f 87 121 122
f 87 122 91
f 87 91 88
f 91 122 123
f 91 123 124
f 91 124 125
f 91 125 126
f 91 126 92
f 93 107 127
f 93 127 94
f 93 97 128
f 93 128 105
f 95 98 129
f 95 129 130
f 95 130 131
f 95 131 96
f 96 131 132
f 96 132 133
f 96 133 97
f 97 133 128
f 100 134 135
f 100 135 101
f 101 116 102
f 101 135 116
f 105 128 133
f 105 133 108
f 108 133 136
f 108 136 137
f 108 137 110
f 108 110 109
f 110 137 138
f 110 138 111
f 111 138 139
f 111 139 140
f 111 140 112
f 112 114 113
f 112 140 141
f 112 141 114
f 114 142 143
f 114 143 144
f 114 144 115
f 114 141 145
f 114 145 146
f 114 146 142
f 116 135 117
f 117 135 141
f 117 141 147
f 117 147 118
f 118 148 149
f 118 149 120
f 118 120 119
f 118 147 140
f 118 140 148
f 120 149 121
f 121 149 122
f 122 149 137
f 122 137 123
f 123 137 136
f 123 136 124
f 124 136 132
f 124 132 125
f 125 150 151
f 125 151 152
f 125 152 126
f 125 132 131
f 125 131 130
f 125 130 153
f 125 153 150
f 132 136 133
f 134 154 135
f 135 154 155
f 135 155 141
f 137 149 138
f 138 149 139
f 139 149 148
f 139 148 140
f 140 147 141
f 141 155 145
f 145 155 146
f 146 155 156
f 154 156 155

