# https://github.com/mikedh/trimesh
v -0.02801866 -0.04702564 -0.03241849
v -0.02801866 -0.04410512 -0.03241849
v -0.02968877 -0.04374006 -0.01781857
v -0.02968877 -0.04395141 -0.01859129
v -0.02968877 -0.04440774 -0.02040196
v -0.02968877 -0.04516669 -0.02371551
v -0.02968877 -0.04529158 -0.02431143
v -0.02968877 -0.04532521 -0.02448823
v -0.02968877 -0.04564464 -0.02679331
v -0.02968877 -0.04567346 -0.02708145
v -0.02837243 -0.04681668 -0.03241849
v -0.02837243 -0.04682389 -0.03259203
v -0.02801866 -0.04702324 -0.03273937
v -0.02801866 -0.03866040 -0.05126513
v -0.02968877 -0.04053375 -0.01781857
v -0.03177847 -0.04216453 -0.01781857
v -0.03118612 -0.04337500 -0.02060169
v -0.03365838 -0.04217654 -0.02391197
v -0.03237905 -0.04352390 -0.02577830
v -0.03291588 -0.04344705 -0.02929158
v -0.03132186 -0.04475119 -0.03131507
v -0.02968877 -0.04570228 -0.02752675
v -0.02968877 -0.04583197 -0.02996935
v -0.03026879 -0.04544770 -0.03471702
v -0.02826548 -0.04671581 -0.03571239
v -0.02968877 -0.04589922 -0.03201903
v -0.02968877 -0.04589442 -0.03241521
v -0.02801866 -0.04686232 -0.03562726
v -0.02801866 -0.04200361 -0.05126513
v -0.04143510 -0.02249432 -0.05126513
v -0.04349600 -0.02402903 -0.01781857
v -0.03218572 -0.04184029 -0.01781857
v -0.03398335 -0.04093724 -0.01986498
v -0.03578510 -0.04025755 -0.02408550
v -0.03475053 -0.04182348 -0.02764462
v -0.03464152 -0.04224378 -0.03220894
v -0.03098044 -0.04497936 -0.03241521
v -0.03339305 -0.04305557 -0.03535550
v -0.03375299 -0.04255601 -0.03756890
v -0.03064107 -0.04466954 -0.03876073
v -0.02872620 -0.04604813 -0.03871162
v -0.02801866 -0.04684311 -0.03588266
v -0.02819349 -0.04188593 -0.05126513
v -0.02801866 -0.04206125 -0.05115380
v -0.04442567 -0.02249432 -0.05126513
v -0.04632614 -0.02249432 -0.03241849
v -0.04632614 -0.02402903 -0.01781857
v -0.03454280 -0.03980602 -0.01781857
v -0.03654405 -0.03860996 -0.02061479
v -0.03494181 -0.03941214 -0.01781857
v -0.03899163 -0.03687111 -0.02375807
v -0.03728655 -0.03920079 -0.02683915
v -0.03680938 -0.04008703 -0.03127578
v -0.03667158 -0.04020471 -0.03433393
v -0.03465386 -0.04221977 -0.03241849
v -0.03482046 -0.04187872 -0.03550939
v -0.03697186 -0.03948419 -0.03782430
v -0.03554651 -0.04052174 -0.03941886
v -0.03280070 -0.04280338 -0.04002787
v -0.03097016 -0.04344465 -0.04278807
v -0.02801866 -0.04637476 -0.03928789
v -0.02801866 -0.04649726 -0.03853808
v -0.02810710 -0.04527717 -0.04350513
v -0.02801866 -0.04538285 -0.04332177
v -0.02861308 -0.04159051 -0.05126513
v -0.02801866 -0.04338221 -0.04851475
v -0.02852463 -0.04322369 -0.04812839
v -0.04403076 -0.02331811 -0.05126513
v -0.04497072 -0.02249432 -0.05007002
v -0.04902671 -0.02249432 -0.03241849
v -0.04638167 -0.02402903 -0.01800193
v -0.04618011 -0.02433165 -0.01781857
v -0.03807636 -0.03663573 -0.01918066
v -0.03760330 -0.03670538 -0.01781857
v -0.04074401 -0.03384492 -0.02052966
v -0.04171893 -0.03367920 -0.02420665
v -0.04108750 -0.03484644 -0.02619413
v -0.03946469 -0.03711368 -0.02867274
v -0.03954902 -0.03728180 -0.03238575
v -0.03924873 -0.03745712 -0.03517542
v -0.03936597 -0.03685669 -0.03832525
v -0.03827587 -0.03734425 -0.04132775
v -0.03543133 -0.03996453 -0.04202844
v -0.03323879 -0.04146802 -0.04347239
v -0.03196358 -0.04128549 -0.04678594
v -0.02946253 -0.04321168 -0.04667789
v -0.02801866 -0.04528438 -0.04364593
v -0.02801866 -0.04534202 -0.04346584
v -0.02886812 -0.04140317 -0.05126513
v -0.02801866 -0.04362478 -0.04797777
v -0.03077064 -0.04103331 -0.04918924
v -0.02801866 -0.04407150 -0.04692673
v -0.04328415 -0.02478317 -0.05126513
v -0.04333968 -0.02603208 -0.04968366
v -0.04513320 -0.02249432 -0.04970331
v -0.04902876 -0.02249432 -0.03247743
v -0.04821838 -0.02402903 -0.02973360
v -0.04812377 -0.02402903 -0.02811284
v -0.04806001 -0.02402903 -0.02707490
v -0.04793455 -0.02402903 -0.02574883
v -0.04768362 -0.02402903 -0.02400037
v -0.04753553 -0.02402903 -0.02318181
v -0.04718177 -0.02402903 -0.02142353
v -0.04668814 -0.02402903 -0.01910863
v -0.04628295 -0.02472793 -0.01881394
v -0.04565974 -0.02539081 -0.01781857
v -0.04534094 -0.02638033 -0.01836865
v -0.03920965 -0.03480321 -0.01781857
v -0.04010230 -0.03372243 -0.01781857
v -0.04300648 -0.03158969 -0.02257607
v -0.04228660 -0.03140476 -0.01891872
v -0.04340139 -0.03204121 -0.02724516
v -0.04178681 -0.03442133 -0.03016908
v -0.04178064 -0.03451500 -0.03241521
v -0.04177653 -0.03457024 -0.03374129
v -0.04065146 -0.03590801 -0.03455658
v -0.04186497 -0.03408509 -0.03699918
v -0.04019074 -0.03533159 -0.04069255
v -0.03823473 -0.03622744 -0.04431715
v -0.03510224 -0.03887895 -0.04568579
v -0.03351029 -0.03989969 -0.04685797
v -0.03193479 -0.03894380 -0.05126513
v -0.03128484 -0.03950820 -0.05126513
v -0.04213646 -0.02678862 -0.05126513
v -0.04159964 -0.02990847 -0.04823971
v -0.04345692 -0.02846263 -0.04604923
v -0.04535123 -0.02518186 -0.04605251
v -0.04526895 -0.02249432 -0.04938898
v -0.04902876 -0.02249432 -0.03255601
v -0.04732985 -0.02609452 -0.03349900
v -0.04731134 -0.02608011 -0.03241521
v -0.04727638 -0.02605129 -0.03056199
v -0.04738950 -0.02533557 -0.02647244
v -0.04693495 -0.02528994 -0.02316216
v -0.04605259 -0.02678142 -0.02247129
v -0.04536974 -0.02596002 -0.01781857
v -0.04402048 -0.02827529 -0.01781857
v -0.04495015 -0.02674539 -0.01781857
v -0.04524427 -0.02620260 -0.01781857
v -0.04423850 -0.02911831 -0.02080142
v -0.04092913 -0.03270409 -0.01781857
v -0.04444418 -0.02995171 -0.02455045
v -0.04287485 -0.03008861 -0.01781857
v -0.04447297 -0.03047048 -0.02801134
v -0.04343224 -0.03239187 -0.03146568
v -0.04602791 -0.02763884 -0.02530680
v -0.04366877 -0.03207244 -0.03395412
v -0.04248817 -0.03276173 -0.03938939
v -0.04399580 -0.03131349 -0.03585646
v -0.04142687 -0.03245912 -0.04407158
v -0.03956547 -0.03338619 -0.04707080
v -0.03699449 -0.03598246 -0.04773875
v -0.03550332 -0.03682307 -0.04903208
v -0.03320588 -0.03874446 -0.04952649
v -0.03595375 -0.03505779 -0.05126513
v -0.04166957 -0.02753796 -0.05126513
v -0.04045401 -0.02936088 -0.05126513
v -0.03974030 -0.03068664 -0.05091806
v -0.04403899 -0.02935127 -0.04256542
v -0.04604642 -0.02656286 -0.04145872
v -0.04663672 -0.02346462 -0.04469042
v -0.04668814 -0.02249432 -0.04573490
v -0.04902259 -0.02249432 -0.03265751
v -0.04517023 -0.02977638 -0.03344006
v -0.04518256 -0.02971393 -0.03241521
v -0.04881691 -0.02249432 -0.03588593
v -0.04766100 -0.02500653 -0.03585974
v -0.04695141 -0.02576308 -0.03878038
v -0.04599294 -0.02813359 -0.03573204
v -0.04638990 -0.02744670 -0.02831585
v -0.04321628 -0.02956262 -0.01781857
v -0.04518874 -0.02966110 -0.03161630
v -0.04469305 -0.02966110 -0.03864941
v -0.03827998 -0.03274732 -0.05065284
v -0.03625816 -0.03474076 -0.05126513
v -0.03959838 -0.03059777 -0.05126513
v -0.03806813 -0.03257440 -0.05126513
v -0.04783582 -0.02290021 -0.04158314
v -0.04710772 -0.02249432 -0.04458891
v -0.04857421 -0.02249432 -0.03821393
v -0.04851045 -0.02249432 -0.03873454
v -0.04823484 -0.02249432 -0.04036839
v -0.03729478 -0.03353029 -0.05126513
v -0.04804767 -0.02249432 -0.04139324
v -0.04800859 -0.02249432 -0.04159296
v -0.04787902 -0.02249432 -0.04203826
f 1 2 15
f 1 15 3
f 1 3 4
f 1 4 5
f 1 5 6
f 1 6 7
f 1 7 8
f 1 8 9
f 1 9 10
f 1 10 11
f 1 11 12
f 1 12 13
f 1 13 28
f 1 28 42
f 1 42 62
f 1 62 61
f 1 61 64
f 1 64 88
f 1 88 87
f 1 87 92
f 1 92 90
f 1 90 66
f 1 66 44
f 1 44 29
f 1 29 14
f 1 14 2
f 2 14 15
f 3 15 31
f 3 31 47
f 3 47 72
f 3 72 106
f 3 106 136
f 3 136 139
f 3 139 138
f 3 138 137
f 3 137 171
f 3 171 143
f 3 143 141
f 3 141 109
f 3 109 108
f 3 108 74
f 3 74 50
f 3 50 48
f 3 48 32
f 3 32 16
f 3 16 17
f 3 17 4
f 4 17 5
f 5 17 6
f 6 17 7
f 7 18 19
f 7 19 8
f 7 17 18
f 8 19 9
f 9 19 10
f 10 20 21
f 10 21 22
f 10 22 11
f 10 19 20
f 11 22 23
f 11 23 12
f 12 24 25
f 12 25 13
f 12 23 26
f 12 26 27
f 12 27 24
f 13 25 28
f 14 29 43
f 14 43 65
f 14 65 89
f 14 89 123
f 14 123 122
f 14 122 155
f 14 155 175
f 14 175 183
f 14 183 177
f 14 177 176
f 14 176 157
f 14 157 156
f 14 156 124
f 14 124 93
f 14 93 68
f 14 68 45
f 14 45 30
f 14 30 15
f 15 30 31
f 16 32 17
f 17 32 33
f 17 33 18
f 18 34 35
f 18 35 19
f 18 33 34
f 19 35 20
f 20 35 36
f 20 36 21
f 21 36 37
f 21 37 27
f 21 27 26
f 21 26 23
f 21 23 22
f 24 38 39
f 24 39 40
f 24 40 41
f 24 41 25
f 24 27 37
f 24 37 36
f 24 36 38
f 25 42 28
f 25 41 42
f 29 44 43
f 30 45 69
f 30 69 95
f 30 95 128
f 30 128 162
f 30 162 179
f 30 179 186
f 30 186 185
f 30 185 184
f 30 184 182
f 30 182 181
f 30 181 180
f 30 180 166
f 30 166 163
f 30 163 129
f 30 129 96
f 30 96 70
f 30 70 46
f 30 46 31
f 31 46 70
f 31 70 47
f 32 48 33
f 33 49 34
f 33 48 50
f 33 50 49
f 34 49 51
f 34 51 52
f 34 52 35
f 35 52 53
f 35 53 36
f 36 53 54
f 36 54 55
f 36 55 56
f 36 56 38
f 38 56 39
f 39 57 58
f 39 58 59
f 39 59 40
f 39 56 57
f 40 59 60
f 40 60 41
f 41 61 62
f 41 62 42
f 41 60 63
f 41 63 64
f 41 64 61
f 43 44 66
f 43 66 67
f 43 67 65
f 45 68 69
f 47 70 71
f 47 71 72
f 49 50 73
f 49 73 51
f 50 74 73
f 51 73 75
f 51 75 76
f 51 76 77
f 51 77 78
f 51 78 52
f 52 78 53
f 53 78 79
f 53 79 54
f 54 80 57
f 54 57 56
f 54 56 55
f 54 79 80
f 57 81 82
f 57 82 58
f 57 80 81
f 58 82 83
f 58 83 59
f 59 83 84
f 59 84 60
f 60 84 85
f 60 85 86
f 60 86 63
f 63 87 88
f 63 88 64
f 63 86 87
f 65 67 89
f 66 90 67
f 67 91 89
f 67 90 92
f 67 92 86
f 67 86 85
f 67 85 91
f 68 93 94
f 68 94 95
f 68 95 69
f 70 96 97
f 70 97 98
f 70 98 99
f 70 99 100
f 70 100 101
f 70 101 102
f 70 102 103
f 70 103 104
f 70 104 71
f 71 104 105
f 71 105 72
f 72 105 107
f 72 107 106
f 73 74 108
f 73 108 109
f 73 109 75
f 75 110 76
f 75 109 111
f 75 111 110
f 76 110 112
f 76 112 77
f 77 112 113
f 77 113 78
f 78 113 79
f 79 113 114
f 79 114 115
f 79 115 116
f 79 116 80
f 80 116 81
f 81 116 117
f 81 117 118
f 81 118 82
f 82 118 119
f 82 119 83
f 83 119 120
f 83 120 84
f 84 120 121
f 84 121 85
f 85 121 122
f 85 122 123
f 85 123 91
f 86 92 87
f 89 91 123
f 93 124 94
f 94 124 125
f 94 125 126
f 94 126 127
f 94 127 95
f 95 127 128
f 96 129 130
f 96 130 131
f 96 131 132
f 96 132 97
f 97 132 133
f 97 133 98
f 98 133 99
f 99 133 100
f 100 133 101
f 101 133 134
f 101 134 102
f 102 134 103
f 103 134 104
f 104 134 105
f 105 134 135
f 105 135 107
f 106 107 136
f 107 137 138
f 107 138 139
f 107 139 136
f 107 135 140
f 107 140 137
f 109 141 111
f 110 111 140
f 110 140 142
f 110 142 112
f 111 141 143
f 111 143 140
f 112 144 145
f 112 145 113
f 112 142 146
f 112 146 144
f 113 145 114
f 114 145 115
f 115 147 117
f 115 117 116
f 115 145 147
f 117 148 118
f 117 147 149
f 117 149 148
f 118 148 150
f 118 150 119
f 119 150 151
f 119 151 152
f 119 152 120
f 120 152 121
f 121 152 153
f 121 153 154
f 121 154 122
f 122 154 153
f 122 153 155
f 124 156 125
f 125 151 150
f 125 150 126
f 125 156 157
f 125 157 158
f 125 158 151
f 126 150 159
f 126 159 160
f 126 160 127
f 127 160 161
f 127 161 162
f 127 162 128
f 129 163 130
f 130 164 165
f 130 165 131
f 130 163 166
f 130 166 167
f 130 167 168
f 130 168 169
f 130 169 164
f 131 165 132
f 132 165 170
f 132 170 133
f 133 146 134
f 133 170 146
f 134 146 135
f 135 146 142
f 135 142 140
f 137 140 171
f 140 143 171
f 144 146 170
f 144 170 172
f 144 172 145
f 145 172 165
f 145 165 164
f 145 164 147
f 147 164 149
f 148 159 150
f 148 149 173
f 148 173 159
f 149 164 169
f 149 169 173
f 151 158 174
f 151 174 175
f 151 175 152
f 152 175 153
f 153 175 155
f 157 176 158
f 158 176 177
f 158 177 174
f 159 173 160
f 160 173 168
f 160 168 178
f 160 178 161
f 161 179 162
f 161 178 179
f 165 172 170
f 166 180 167
f 167 180 168
f 168 180 181
f 168 181 182
f 168 182 178
f 168 173 169
f 174 177 183
f 174 183 175
f 178 182 184
f 178 184 185
f 178 185 186
f 178 186 179

