# https://github.com/mikedh/trimesh
v 0.00043908 0.03635538 -0.06868941
v 0.00043908 0.03923550 -0.06868941
v 0.01814902 0.03195836 -0.06868941
v 0.00043908 0.04749798 -0.05326936
v 0.00043908 0.04112123 -0.06664870
v 0.00237911 0.04072889 -0.06709699
v 0.00274493 0.03922826 -0.06868941
v 0.01814902 0.03513318 -0.06868941
v 0.01814902 0.04406281 -0.05326936
v 0.00043908 0.05041787 -0.05326936
v 0.00043908 0.04174317 -0.06592268
v 0.00239471 0.04282253 -0.06465629
v 0.00492421 0.04217527 -0.06525854
v 0.00559343 0.03949223 -0.06818678
v 0.00384237 0.03915052 -0.06868941
v 0.01716947 0.03560326 -0.06868941
v 0.01814902 0.03552552 -0.06831357
v 0.01814902 0.04714000 -0.05326936
v 0.00065926 0.05042691 -0.05326936
v 0.00043908 0.05026961 -0.05361954
v 0.00043908 0.04348064 -0.06385027
v 0.00043908 0.04437740 -0.06272274
v 0.00222481 0.04536818 -0.06145636
v 0.00445611 0.04538806 -0.06128429
v 0.00820614 0.04142677 -0.06559967
v 0.00703415 0.04376992 -0.06299444
v 0.00949776 0.03945245 -0.06752415
v 0.00623317 0.03889018 -0.06868941
v 0.00526922 0.03902758 -0.06868941
v 0.01662508 0.03585095 -0.06868941
v 0.01814902 0.03650906 -0.06730831
v 0.01814902 0.04675128 -0.05404670
v 0.01633728 0.04689953 -0.05504139
v 0.01551723 0.04807292 -0.05326936
v 0.00108229 0.05041064 -0.05326936
v 0.00043908 0.05024069 -0.05367991
v 0.00043908 0.04558513 -0.06117560
v 0.00069394 0.04717797 -0.05897641
v 0.00459134 0.04785415 -0.05760436
v 0.00715897 0.04639149 -0.05943979
v 0.01122801 0.04217347 -0.06396347
v 0.01012363 0.04095127 -0.06567664
v 0.00906606 0.04459978 -0.06146843
v 0.01271208 0.03914510 -0.06687511
v 0.00992599 0.03819048 -0.06868941
v 0.00845580 0.03849784 -0.06868941
v 0.01411465 0.03685258 -0.06868941
v 0.01652799 0.03806031 -0.06647512
v 0.01814902 0.03959709 -0.06398612
v 0.01814902 0.04586356 -0.05569346
v 0.01187469 0.04773844 -0.05587157
v 0.01434871 0.04840920 -0.05326936
v 0.01801379 0.04588164 -0.05575383
v 0.01408865 0.04622335 -0.05734625
v 0.00304313 0.05032024 -0.05326936
v 0.00268251 0.04972541 -0.05452518
v 0.00043908 0.04913963 -0.05573421
v 0.00043908 0.04692847 -0.05932206
v 0.00043908 0.04718339 -0.05895226
v 0.00043908 0.04771313 -0.05810850
v 0.00043908 0.04878346 -0.05636061
v 0.00235831 0.04814162 -0.05732814
v 0.00488780 0.04938371 -0.05496139
v 0.00757160 0.04791562 -0.05689192
v 0.01101650 0.04627940 -0.05850698
v 0.01442672 0.04082652 -0.06432573
v 0.01183655 0.04449131 -0.06078316
v 0.01312470 0.04317690 -0.06203144
v 0.01345584 0.03710569 -0.06868941
v 0.01104771 0.03786143 -0.06868941
v 0.01663201 0.04129479 -0.06284651
v 0.01814902 0.03998400 -0.06355895
v 0.01814902 0.04570808 -0.05593798
v 0.00793395 0.04912154 -0.05466857
v 0.00942148 0.04955727 -0.05332822
v 0.01277449 0.04885939 -0.05326936
v 0.01814902 0.04442260 -0.05790322
v 0.01688860 0.04437740 -0.05871377
v 0.01493297 0.04412247 -0.06005714
v 0.00547033 0.05015390 -0.05326936
v 0.01814902 0.04195651 -0.06121636
v 0.00647762 0.05001831 -0.05326936
v 0.00914928 0.04962597 -0.05326936
v 0.00942494 0.04958439 -0.05326936
v 0.01814902 0.04321125 -0.05958771
f 1 2 7
f 1 7 15
f 1 15 29
f 1 29 28
f 1 28 46
f 1 46 45
f 1 45 70
f 1 70 69
f 1 69 47
f 1 47 30
f 1 30 16
f 1 16 8
f 1 8 3
f 1 3 4
f 1 4 10
f 1 10 20
f 1 20 36
f 1 36 57
f 1 57 61
f 1 61 60
f 1 60 59
f 1 59 58
f 1 58 37
f 1 37 22
f 1 22 21
f 1 21 11
f 1 11 5
f 1 5 2
f 2 5 6
f 2 6 7
f 3 8 17
f 3 17 31
f 3 31 49
f 3 49 72
f 3 72 81
f 3 81 85
f 3 85 77
f 3 77 73
f 3 73 50
f 3 50 32
f 3 32 18
f 3 18 9
f 3 9 4
f 4 9 18
f 4 18 34
f 4 34 52
f 4 52 76
f 4 76 84
f 4 84 83
f 4 83 82
f 4 82 80
f 4 80 55
f 4 55 35
f 4 35 19
f 4 19 10
f 5 11 12
f 5 12 6
f 6 12 13
f 6 13 14
f 6 14 7
f 7 14 15
f 8 16 17
f 10 19 20
f 11 21 12
f 12 21 22
f 12 22 23
f 12 23 24
f 12 24 13
f 13 25 14
f 13 24 26
f 13 26 25
f 14 27 28
f 14 28 29
f 14 29 15
f 14 25 27
f 16 30 17
f 17 30 31
f 18 32 33
f 18 33 34
f 19 35 20
f 20 35 36
f 22 37 23
f 23 37 38
f 23 38 24
f 24 38 39
f 24 39 40
f 24 40 26
f 25 26 41
f 25 41 42
f 25 42 27
f 26 40 43
f 26 43 41
f 27 44 45
f 27 45 46
f 27 46 28
f 27 42 44
f 30 47 48
f 30 48 31
f 31 48 49
f 32 50 33
f 33 51 52
f 33 52 34
f 33 50 53
f 33 53 54
f 33 54 51
f 35 55 36
f 36 55 56
f 36 56 57
f 37 58 38
f 38 58 59
f 38 59 60
f 38 60 61
f 38 61 62
f 38 62 39
f 39 62 63
f 39 63 64
f 39 64 40
f 40 65 43
f 40 64 65
f 41 66 44
f 41 44 42
f 41 43 67
f 41 67 68
f 41 68 66
f 43 65 67
f 44 66 48
f 44 48 47
f 44 47 69
f 44 69 70
f 44 70 45
f 48 66 71
f 48 71 72
f 48 72 49
f 50 73 53
f 51 64 74
f 51 74 75
f 51 75 76
f 51 76 52
f 51 54 65
f 51 65 64
f 53 73 77
f 53 77 78
f 53 78 54
f 54 78 79
f 54 79 67
f 54 67 65
f 55 80 63
f 55 63 56
f 56 63 57
f 57 63 61
f 61 63 62
f 63 74 64
f 63 80 74
f 66 68 71
f 67 79 68
f 68 79 71
f 71 81 72
f 71 79 81
f 74 80 82
f 74 82 83
f 74 83 75
f 75 83 84
f 75 84 76
f 77 85 78
f 78 85 79
f 79 85 81

