# https://github.com/mikedh/trimesh
v -0.02084395 -0.04036340 0.07132171
v -0.02084395 -0.04036118 0.07146940
v -0.02180275 -0.03971640 0.07178842
v -0.02356827 -0.03853136 0.07135715
v -0.02163744 -0.03971196 0.07029969
v -0.02084395 -0.04031893 0.07093772
v -0.02084395 -0.04029225 0.07174116
v -0.02463948 -0.03770205 0.07184749
v -0.02277312 -0.03886709 0.07214878
v -0.02655542 -0.03604788 0.07128035
v -0.02430720 -0.03739078 0.06880505
v -0.02212180 -0.03833348 0.06569763
v -0.02084395 -0.03967638 0.06788936
v -0.02084395 -0.04018775 0.07185340
v -0.02659675 -0.03605011 0.07194202
v -0.02517343 -0.03707729 0.07222558
v -0.02084395 -0.03962303 0.07230238
v -0.02415512 -0.03749306 0.07245598
v -0.02932437 -0.03332206 0.07190066
v -0.02910946 -0.03324869 0.07035876
v -0.02790601 -0.03371781 0.06725725
v -0.02614380 -0.03527861 0.06648925
v -0.02430224 -0.03582999 0.06240707
v -0.02084395 -0.02660755 0.01352128
v -0.02110845 -0.03771317 0.06016216
v -0.02084395 -0.03912944 0.06552040
v -0.02704639 -0.03535865 0.07238509
v -0.02863668 -0.03373560 0.07244416
v -0.02084395 -0.03953631 0.07233782
v -0.02236646 -0.03825345 0.07247961
v -0.02644467 -0.03519857 0.07273955
v -0.03114609 -0.03110538 0.07210152
v -0.03090308 -0.03120099 0.07081366
v -0.02982030 -0.03084303 0.06480557
v -0.02483454 -0.02254105 0.01352128
v -0.02325087 -0.02435752 0.01352128
v -0.02176969 -0.02581382 0.01352128
v -0.02147378 -0.02609841 0.01352128
v -0.02084395 -0.02309911 0.01352128
v -0.02084395 -0.03771761 0.05948869
v -0.02084395 -0.03818230 0.06143821
v -0.02811595 -0.03373116 0.07277499
v -0.02997404 -0.03204364 0.07266866
v -0.02084395 -0.03879594 0.07231420
v -0.03640956 -0.01765191 0.07385609
v -0.03635336 -0.01794317 0.07385018
v -0.02864164 -0.03256835 0.07296403
v -0.02480975 -0.03627022 0.07265683
v -0.03286697 -0.02866859 0.07182386
v -0.03188172 -0.02969800 0.07275137
v -0.03283060 -0.02866193 0.07247370
v -0.03270661 -0.02835065 0.06988616
v -0.03159573 -0.02875308 0.06577443
v -0.02532882 -0.02192074 0.01352128
v -0.02493042 -0.01765191 0.01352128
v -0.02498663 -0.01765191 0.01417112
v -0.02084395 -0.02312134 0.01367488
v -0.03114443 -0.02969800 0.07308219
v -0.02084395 -0.03858472 0.07215469
v -0.03608721 -0.01765191 0.07351935
v -0.03656330 -0.01765191 0.07386791
v -0.03523421 -0.02168284 0.07364932
v -0.03453495 -0.02406849 0.07350754
v -0.03340753 -0.02650972 0.07328895
v -0.03408365 -0.02657865 0.07255050
v -0.03448701 -0.02588274 0.07197155
v -0.03396132 -0.02618512 0.06974436
v -0.03335133 -0.02740351 0.07295222
v -0.03300418 -0.02648304 0.06543178
v -0.02739850 -0.01887920 0.01352128
v -0.02805313 -0.01765191 0.01352128
v -0.02546437 -0.01765191 0.01722538
v -0.02084395 -0.02346819 0.01604976
v -0.02084395 -0.03806668 0.07130399
v -0.03605746 -0.01765191 0.07345437
v -0.03690550 -0.01765191 0.07384428
v -0.03597480 -0.02093135 0.07361979
v -0.03531687 -0.02332145 0.07330668
v -0.03451346 -0.02518461 0.07316490
v -0.03546730 -0.02381948 0.07253277
v -0.03496476 -0.02387061 0.06882868
v -0.03403240 -0.02413074 0.06408484
v -0.03292152 -0.02518239 0.06117237
v -0.03380428 -0.02267667 0.05892747
v -0.03517966 -0.02183403 0.06453382
v -0.03468869 -0.02068678 0.05895700
v -0.03567228 -0.01822553 0.05925829
v -0.03573675 -0.01765191 0.05856710
v -0.02084395 -0.02443312 0.02032099
v -0.03506229 -0.01765191 0.06964985
v -0.03565245 -0.01765191 0.07246779
v -0.03572022 -0.01765191 0.07263912
v -0.02084395 -0.03708841 0.06836198
v -0.03718157 -0.01765191 0.07372022
v -0.03721628 -0.01819885 0.07359616
v -0.03651206 -0.02064898 0.07334803
v -0.03646908 -0.02139158 0.07272182
v -0.03607894 -0.02163615 0.06984480
v -0.03617648 -0.01898592 0.06404348
v -0.03597149 -0.01765191 0.05999084
v -0.02084395 -0.02698774 0.03036399
v -0.02084395 -0.03477390 0.05975453
v -0.03738159 -0.01765191 0.07362569
v -0.03754029 -0.01765191 0.07343074
v -0.03771552 -0.01765191 0.07320035
v -0.03742127 -0.01847900 0.07318853
v -0.03773040 -0.01765191 0.07276317
v -0.03725595 -0.01907485 0.07191838
v -0.03699972 -0.01823443 0.06794253
v -0.03643106 -0.01765191 0.06293285
v -0.03691046 -0.01765191 0.06612298
v -0.03770890 -0.01765191 0.07184749
v -0.03721132 -0.01765191 0.06819656
v -0.03740308 -0.01765191 0.06955532
f 1 2 3
f 1 3 4
f 1 4 5
f 1 5 6
f 1 6 13
f 1 13 26
f 1 26 41
f 1 41 40
f 1 40 24
f 1 24 39
f 1 39 57
f 1 57 73
f 1 73 89
f 1 89 101
f 1 101 102
f 1 102 93
f 1 93 74
f 1 74 59
f 1 59 44
f 1 44 29
f 1 29 17
f 1 17 14
f 1 14 7
f 1 7 2
f 2 7 3
f 3 8 4
f 3 7 9
f 3 9 8
f 4 10 11
f 4 11 12
f 4 12 5
f 4 8 10
f 5 12 13
f 5 13 6
f 7 14 9
f 8 15 10
f 8 9 16
f 8 16 15
f 9 17 18
f 9 18 16
f 9 14 17
f 10 15 19
f 10 19 20
f 10 20 21
f 10 21 22
f 10 22 11
f 11 22 23
f 11 23 24
f 11 24 12
f 12 25 26
f 12 26 13
f 12 24 25
f 15 16 27
f 15 27 28
f 15 28 19
f 16 18 27
f 17 29 18
f 18 29 30
f 18 30 31
f 18 31 27
f 19 28 32
f 19 32 33
f 19 33 20
f 20 33 34
f 20 34 35
f 20 35 36
f 20 36 21
f 21 36 22
f 22 36 37
f 22 37 38
f 22 38 23
f 23 38 24
f 24 38 37
f 24 37 36
f 24 36 35
f 24 35 54
f 24 54 70
f 24 70 71
f 24 71 55
f 24 55 39
f 24 40 25
f 25 40 41
f 25 41 26
f 27 31 42
f 27 42 28
f 28 42 43
f 28 43 32
f 29 44 45
f 29 45 46
f 29 46 30
f 30 46 47
f 30 47 48
f 30 48 31
f 31 48 47
f 31 47 42
f 32 49 33
f 32 43 50
f 32 50 51
f 32 51 49
f 33 52 53
f 33 53 54
f 33 54 35
f 33 35 34
f 33 49 52
f 39 55 56
f 39 56 57
f 42 47 58
f 42 58 43
f 43 58 50
f 44 59 60
f 44 60 45
f 45 60 75
f 45 75 92
f 45 92 91
f 45 91 90
f 45 90 72
f 45 72 56
f 45 56 55
f 45 55 71
f 45 71 88
f 45 88 100
f 45 100 110
f 45 110 111
f 45 111 113
f 45 113 114
f 45 114 112
f 45 112 107
f 45 107 105
f 45 105 104
f 45 104 103
f 45 103 94
f 45 94 76
f 45 76 61
f 45 61 46
f 46 61 62
f 46 62 47
f 47 62 63
f 47 63 64
f 47 64 58
f 49 51 65
f 49 65 66
f 49 66 67
f 49 67 52
f 50 58 64
f 50 64 68
f 50 68 51
f 51 68 65
f 52 67 69
f 52 69 70
f 52 70 53
f 53 70 54
f 56 72 73
f 56 73 57
f 59 74 75
f 59 75 60
f 61 76 62
f 62 76 63
f 63 76 77
f 63 77 78
f 63 78 79
f 63 79 64
f 64 79 68
f 65 80 66
f 65 68 79
f 65 79 80
f 66 80 81
f 66 81 67
f 67 81 82
f 67 82 69
f 69 82 83
f 69 83 70
f 70 83 82
f 70 82 71
f 71 82 84
f 71 84 85
f 71 85 86
f 71 86 87
f 71 87 88
f 72 89 73
f 72 90 89
f 74 91 92
f 74 92 75
f 74 93 91
f 76 94 77
f 77 94 95
f 77 95 96
f 77 96 78
f 78 96 80
f 78 80 79
f 80 96 97
f 80 97 98
f 80 98 81
f 81 98 85
f 81 85 82
f 82 85 84
f 85 99 87
f 85 87 86
f 85 98 99
f 87 99 100
f 87 100 88
f 89 90 101
f 90 91 93
f 90 93 102
f 90 102 101
f 94 103 95
f 95 103 104
f 95 104 105
f 95 105 96
f 96 105 106
f 96 106 97
f 97 106 105
f 97 105 107
f 97 107 108
f 97 108 98
f 98 109 99
f 98 108 109
f 99 110 100
f 99 109 111
f 99 111 110
f 107 112 108
f 108 112 109
f 109 113 111
f 109 112 114
f 109 114 113

