# https://github.com/mikedh/trimesh
v -0.04920593 0.02183092 -0.03241413
v -0.04919851 0.02183092 -0.03219578
v -0.04913728 0.02199686 -0.03241413
v -0.04661403 0.02183092 -0.03241413
v -0.04910018 0.02183092 -0.02940900
v -0.04883486 0.02271826 -0.03241413
v -0.04410005 0.02183092 -0.01774043
v -0.03025370 0.04190570 -0.03241413
v -0.04897216 0.02183092 -0.02773119
v -0.04880147 0.02260072 -0.03026946
v -0.04720588 0.02586892 -0.03094317
v -0.04861779 0.02315387 -0.03241413
v -0.04704076 0.02183092 -0.01774043
v -0.03025370 0.03930128 -0.01774043
v -0.03025370 0.04537672 -0.03241413
v -0.04858068 0.02183092 -0.02442152
v -0.04786267 0.02397438 -0.02652454
v -0.04674575 0.02635523 -0.02773406
v -0.04527448 0.02931920 -0.03001089
v -0.04665114 0.02701210 -0.03241413
v -0.04707601 0.02183092 -0.01785822
v -0.04698880 0.02196229 -0.01774043
v -0.03025370 0.04250956 -0.01774043
v -0.03046149 0.04523613 -0.03241413
v -0.03147079 0.04447325 -0.03098770
v -0.03025370 0.04535598 -0.03204639
v -0.04850646 0.02183092 -0.02394892
v -0.04712610 0.02439846 -0.02315311
v -0.04540806 0.02852635 -0.02609503
v -0.04358983 0.03146958 -0.02637371
v -0.04498504 0.02998759 -0.03241413
v -0.04624853 0.02774733 -0.03241413
v -0.04698695 0.02211902 -0.01794585
v -0.04720773 0.02183092 -0.01830497
v -0.04685337 0.02225039 -0.01774043
v -0.03025370 0.04276308 -0.01837392
v -0.03189381 0.04133411 -0.01774043
v -0.03206450 0.04400998 -0.03241413
v -0.03025370 0.04528684 -0.03083400
v -0.03465269 0.04194718 -0.03081101
v -0.03240774 0.04343148 -0.02766367
v -0.03110715 0.04415287 -0.02557359
v -0.04798883 0.02183092 -0.02151121
v -0.04762889 0.02201530 -0.02022699
v -0.04582922 0.02551398 -0.01992964
v -0.04531159 0.02753990 -0.02247652
v -0.04435794 0.02976172 -0.02407677
v -0.04206475 0.03315899 -0.02443589
v -0.04058419 0.03564126 -0.02830291
v -0.04257125 0.03339639 -0.03069035
v -0.04449153 0.03071821 -0.03241413
v -0.04656393 0.02283581 -0.01774043
v -0.04771610 0.02183092 -0.02025141
v -0.03025370 0.04348679 -0.02054445
v -0.03131866 0.04306271 -0.02157585
v -0.03248566 0.04109211 -0.01819723
v -0.03215356 0.04114742 -0.01774043
v -0.03379738 0.04263401 -0.03241413
v -0.03025370 0.04476134 -0.02601028
v -0.03571394 0.04103679 -0.03241413
v -0.03648576 0.04030848 -0.03241413
v -0.03745981 0.03928745 -0.03064007
v -0.03574177 0.04063576 -0.02736919
v -0.03393096 0.04176049 -0.02434683
v -0.03025370 0.04386247 -0.02177408
v -0.03025370 0.04435570 -0.02387279
v -0.03025370 0.04469450 -0.02547878
v -0.04523551 0.02544714 -0.01774043
v -0.04466593 0.02651196 -0.01774043
v -0.04422436 0.02780265 -0.01861956
v -0.04321320 0.02998990 -0.01988080
v -0.04148774 0.03304836 -0.02160027
v -0.03983835 0.03568275 -0.02365875
v -0.03859342 0.03773401 -0.02669979
v -0.03939678 0.03736755 -0.03241413
v -0.04199981 0.03420537 -0.03241413
v -0.04331710 0.03240532 -0.03241413
v -0.03329459 0.04128341 -0.02069241
v -0.03279365 0.04062884 -0.01774043
v -0.03376213 0.03976685 -0.01774043
v -0.03886244 0.03794606 -0.03241413
v -0.03620375 0.03994893 -0.02541701
v -0.03509426 0.04058735 -0.02360991
v -0.04389225 0.02786257 -0.01774043
v -0.04224286 0.03031257 -0.01774043
v -0.04157680 0.03127828 -0.01774043
v -0.04158607 0.03201812 -0.01922863
v -0.04340801 0.02860011 -0.01774043
v -0.03980866 0.03437593 -0.01945991
v -0.03771770 0.03690659 -0.02001295
v -0.03787355 0.03801750 -0.02415578
v -0.03612212 0.03872738 -0.02072401
v -0.03579743 0.03792301 -0.01774043
v -0.04059903 0.03256205 -0.01774043
v -0.03962313 0.03379973 -0.01774043
v -0.03882163 0.03472165 -0.01774043
v -0.03789952 0.03573115 -0.01774043
v -0.03619076 0.03754041 -0.01774043
f 1 2 3
f 1 3 6
f 1 6 12
f 1 12 20
f 1 20 32
f 1 32 31
f 1 31 51
f 1 51 77
f 1 77 76
f 1 76 75
f 1 75 81
f 1 81 61
f 1 61 60
f 1 60 58
f 1 58 38
f 1 38 24
f 1 24 15
f 1 15 8
f 1 8 4
f 1 4 7
f 1 7 13
f 1 13 21
f 1 21 34
f 1 34 53
f 1 53 43
f 1 43 27
f 1 27 16
f 1 16 9
f 1 9 5
f 1 5 2
f 2 5 3
f 3 5 6
f 4 8 7
f 5 9 10
f 5 10 6
f 6 10 11
f 6 11 12
f 7 8 14
f 7 14 23
f 7 23 37
f 7 37 57
f 7 57 79
f 7 79 80
f 7 80 93
f 7 93 98
f 7 98 97
f 7 97 96
f 7 96 95
f 7 95 94
f 7 94 86
f 7 86 85
f 7 85 88
f 7 88 84
f 7 84 69
f 7 69 68
f 7 68 52
f 7 52 35
f 7 35 22
f 7 22 13
f 8 15 26
f 8 26 39
f 8 39 59
f 8 59 67
f 8 67 66
f 8 66 65
f 8 65 54
f 8 54 36
f 8 36 23
f 8 23 14
f 9 16 17
f 9 17 10
f 10 17 11
f 11 18 19
f 11 19 20
f 11 20 12
f 11 17 18
f 13 22 21
f 15 24 25
f 15 25 26
f 16 27 28
f 16 28 17
f 17 28 29
f 17 29 18
f 18 29 19
f 19 30 31
f 19 31 32
f 19 32 20
f 19 29 30
f 21 22 33
f 21 33 34
f 22 35 33
f 23 36 37
f 24 38 25
f 25 39 26
f 25 38 40
f 25 40 41
f 25 41 42
f 25 42 39
f 27 43 28
f 28 43 44
f 28 44 45
f 28 45 46
f 28 46 29
f 29 46 47
f 29 47 30
f 30 47 48
f 30 48 49
f 30 49 50
f 30 50 31
f 31 50 51
f 33 35 52
f 33 52 45
f 33 45 44
f 33 44 34
f 34 44 53
f 36 54 55
f 36 55 56
f 36 56 37
f 37 56 57
f 38 58 40
f 39 42 59
f 40 58 60
f 40 60 61
f 40 61 62
f 40 62 63
f 40 63 41
f 41 63 64
f 41 64 42
f 42 64 55
f 42 55 65
f 42 65 66
f 42 66 67
f 42 67 59
f 43 53 44
f 45 68 69
f 45 69 70
f 45 70 46
f 45 52 68
f 46 70 71
f 46 71 47
f 47 71 72
f 47 72 48
f 48 72 73
f 48 73 74
f 48 74 49
f 49 74 75
f 49 75 50
f 50 75 76
f 50 76 77
f 50 77 51
f 54 65 55
f 55 64 78
f 55 78 56
f 56 79 57
f 56 78 80
f 56 80 79
f 61 81 62
f 62 81 74
f 62 74 63
f 63 74 82
f 63 82 64
f 64 82 83
f 64 83 78
f 69 84 70
f 70 84 71
f 71 85 86
f 71 86 87
f 71 87 72
f 71 84 88
f 71 88 85
f 72 87 89
f 72 89 73
f 73 89 90
f 73 90 91
f 73 91 74
f 74 91 82
f 74 81 75
f 78 83 92
f 78 92 93
f 78 93 80
f 82 91 83
f 83 91 92
f 86 94 87
f 87 94 95
f 87 95 89
f 89 95 96
f 89 96 90
f 90 96 97
f 90 97 98
f 90 98 92
f 90 92 91
f 92 98 93

