# https://github.com/mikedh/trimesh
v -0.04829178 -0.02402721 -0.03241557
v -0.04548080 -0.02402721 -0.03241557
v -0.04827261 -0.02402721 -0.03164863
v -0.04906310 -0.02241550 -0.03241557
v -0.05107474 -0.00485932 -0.03241557
v -0.03844449 -0.02402721 -0.00754250
v -0.04827113 -0.02402721 -0.03159263
v -0.04822099 -0.02402721 -0.02973251
v -0.04867523 -0.02305343 -0.02933322
v -0.04963238 -0.02069684 -0.02767274
v -0.04908965 -0.02235171 -0.03241557
v -0.05351112 -0.00485932 -0.03241557
v -0.04488055 -0.00485932 -0.00754250
v -0.04177313 -0.02402721 -0.00754250
v -0.04812660 -0.02402721 -0.02811099
v -0.04806319 -0.02402721 -0.02707136
v -0.04874749 -0.02269694 -0.02768491
v -0.04853807 -0.02258999 -0.02495073
v -0.05022378 -0.01891440 -0.02693989
v -0.05027982 -0.01940222 -0.03192619
v -0.04930350 -0.02183011 -0.03241557
v -0.05311587 -0.00815591 -0.03241557
v -0.05296692 -0.00937360 -0.03194810
v -0.05350522 -0.00485932 -0.03161698
v -0.04769596 -0.00485932 -0.00754250
v -0.04212561 -0.02402721 -0.00808788
v -0.04187047 -0.02385272 -0.00754250
v -0.04793635 -0.02402721 -0.02574931
v -0.04768416 -0.02402721 -0.02399632
v -0.04753815 -0.02402721 -0.02317825
v -0.04836257 -0.02230105 -0.02320503
v -0.04898052 -0.02051485 -0.02236019
v -0.05083582 -0.01659346 -0.02510168
v -0.05109096 -0.01664975 -0.02903861
v -0.05176347 -0.01468155 -0.03034119
v -0.05057330 -0.01852976 -0.03241557
v -0.05019870 -0.01961987 -0.03241557
v -0.05296692 -0.00921225 -0.03241557
v -0.05261296 -0.01102472 -0.03052136
v -0.05286958 -0.00921412 -0.02887305
v -0.05332382 -0.00627590 -0.03017319
v -0.05349637 -0.00485932 -0.03045318
v -0.05285188 -0.00997213 -0.03241557
v -0.04814577 -0.00485932 -0.00832405
v -0.04829621 -0.00528335 -0.00865273
v -0.04767826 -0.00504882 -0.00754250
v -0.04218755 -0.02326357 -0.00754250
v -0.04369185 -0.02023153 -0.00754250
v -0.04411660 -0.02003640 -0.00810736
v -0.04415052 -0.02301778 -0.01089754
v -0.04355470 -0.02402721 -0.01077337
v -0.04718125 -0.02402721 -0.02142039
v -0.04743197 -0.02274385 -0.01965035
v -0.04825196 -0.01983939 -0.01772205
v -0.04961615 -0.01790872 -0.02075571
v -0.05169858 -0.01410929 -0.02635312
v -0.05105852 -0.01503804 -0.02337060
v -0.05237994 -0.01157821 -0.02832281
v -0.05196405 -0.01397045 -0.03241557
v -0.05135790 -0.01609625 -0.03241557
v -0.05261149 -0.01115042 -0.03241557
v -0.05206286 -0.01354266 -0.03241557
v -0.05209235 -0.01172456 -0.02485821
v -0.05299936 -0.00712397 -0.02614861
v -0.05330022 -0.00485932 -0.02664042
v -0.05339756 -0.00485932 -0.02841533
v -0.04840239 -0.00485932 -0.00882560
v -0.04714438 -0.01007908 -0.00777380
v -0.04706474 -0.00976199 -0.00754250
v -0.04756618 -0.00621023 -0.00754250
v -0.04889202 -0.00485932 -0.00984575
v -0.04883598 -0.00846925 -0.01051529
v -0.04485105 -0.01748469 -0.00754250
v -0.04620050 -0.01788433 -0.01042277
v -0.04578166 -0.02146987 -0.01291105
v -0.04503688 -0.02402721 -0.01409433
v -0.04440862 -0.02402721 -0.01264323
v -0.04668866 -0.02402721 -0.01910741
v -0.04638338 -0.02402721 -0.01799961
v -0.04660312 -0.02246616 -0.01618575
v -0.04763107 -0.01950167 -0.01540177
v -0.04926367 -0.01695745 -0.01769040
v -0.05065442 -0.01305108 -0.01859368
v -0.05132841 -0.01260265 -0.02138630
v -0.05214987 -0.00959688 -0.02227984
v -0.05260264 -0.00750110 -0.02331460
v -0.05301853 -0.00485932 -0.02403284
v -0.05310555 -0.00485932 -0.02474621
v -0.04823279 -0.01270585 -0.01121162
v -0.04678600 -0.01245067 -0.00812684
v -0.04655003 -0.01202852 -0.00754250
v -0.04700870 -0.01008658 -0.00754250
v -0.04958076 -0.00485932 -0.01133336
v -0.04970612 -0.00485932 -0.01162309
v -0.04973119 -0.00755175 -0.01237055
v -0.04978576 -0.01005844 -0.01354652
v -0.04501476 -0.01707941 -0.00754250
v -0.04510030 -0.01684676 -0.00754250
v -0.04642910 -0.01464778 -0.00856509
v -0.04869735 -0.01385599 -0.01310583
v -0.04709276 -0.01754285 -0.01219768
v -0.04550735 -0.02402721 -0.01528734
v -0.04610022 -0.02402721 -0.01705738
v -0.04838617 -0.01648089 -0.01454962
v -0.05015593 -0.01273962 -0.01641705
v -0.05120747 -0.00933796 -0.01738606
v -0.05176052 -0.00887264 -0.01948235
v -0.05243599 -0.00574867 -0.02096266
v -0.05280911 -0.00485932 -0.02269374
v -0.04590407 -0.01440762 -0.00754250
v -0.04638338 -0.01267583 -0.00754250
v -0.05043467 -0.00485932 -0.01349295
v -0.05051726 -0.00485932 -0.01372425
v -0.05095233 -0.00687067 -0.01558437
v -0.05194045 -0.00603949 -0.01859855
v -0.05213218 -0.00485932 -0.01914149
v -0.05246696 -0.00485932 -0.02081171
v -0.05129744 -0.00485932 -0.01613705
v -0.05184016 -0.00485932 -0.01792413
v -0.05198322 -0.00485932 -0.01847195
f 1 2 6
f 1 6 14
f 1 14 26
f 1 26 51
f 1 51 77
f 1 77 76
f 1 76 102
f 1 102 103
f 1 103 79
f 1 79 78
f 1 78 52
f 1 52 30
f 1 30 29
f 1 29 28
f 1 28 16
f 1 16 15
f 1 15 8
f 1 8 7
f 1 7 3
f 1 3 4
f 1 4 11
f 1 11 21
f 1 21 37
f 1 37 36
f 1 36 60
f 1 60 59
f 1 59 62
f 1 62 61
f 1 61 43
f 1 43 38
f 1 38 22
f 1 22 12
f 1 12 5
f 1 5 2
f 2 5 6
f 3 7 4
f 4 7 8
f 4 8 9
f 4 9 10
f 4 10 11
f 5 12 24
f 5 24 42
f 5 42 66
f 5 66 65
f 5 65 88
f 5 88 87
f 5 87 109
f 5 109 117
f 5 117 116
f 5 116 120
f 5 120 119
f 5 119 118
f 5 118 113
f 5 113 112
f 5 112 94
f 5 94 93
f 5 93 71
f 5 71 67
f 5 67 44
f 5 44 25
f 5 25 13
f 5 13 6
f 6 13 25
f 6 25 46
f 6 46 70
f 6 70 69
f 6 69 92
f 6 92 91
f 6 91 111
f 6 111 110
f 6 110 98
f 6 98 97
f 6 97 73
f 6 73 48
f 6 48 47
f 6 47 27
f 6 27 14
f 8 15 9
f 9 15 16
f 9 16 17
f 9 17 10
f 10 17 18
f 10 18 19
f 10 19 20
f 10 20 21
f 10 21 11
f 12 22 23
f 12 23 24
f 14 27 26
f 16 28 18
f 16 18 17
f 18 28 29
f 18 29 30
f 18 30 31
f 18 31 32
f 18 32 19
f 19 32 33
f 19 33 34
f 19 34 20
f 20 34 35
f 20 35 36
f 20 36 37
f 20 37 21
f 22 38 23
f 23 39 40
f 23 40 41
f 23 41 42
f 23 42 24
f 23 38 43
f 23 43 39
f 25 44 45
f 25 45 46
f 26 27 47
f 26 47 48
f 26 48 49
f 26 49 50
f 26 50 51
f 30 52 53
f 30 53 31
f 31 53 32
f 32 53 54
f 32 54 55
f 32 55 33
f 33 56 34
f 33 55 57
f 33 57 56
f 34 56 35
f 35 56 58
f 35 58 39
f 35 39 59
f 35 59 60
f 35 60 36
f 39 58 40
f 39 43 61
f 39 61 62
f 39 62 59
f 40 58 63
f 40 63 64
f 40 64 41
f 41 64 65
f 41 65 66
f 41 66 42
f 44 67 45
f 45 68 69
f 45 69 70
f 45 70 46
f 45 67 71
f 45 71 72
f 45 72 68
f 48 73 49
f 49 74 50
f 49 73 74
f 50 74 75
f 50 75 76
f 50 76 77
f 50 77 51
f 52 78 53
f 53 78 54
f 54 78 79
f 54 79 80
f 54 80 81
f 54 81 82
f 54 82 55
f 55 82 57
f 56 57 63
f 56 63 58
f 57 82 83
f 57 83 84
f 57 84 63
f 63 84 85
f 63 85 64
f 64 85 86
f 64 86 87
f 64 87 88
f 64 88 65
f 68 72 89
f 68 89 90
f 68 90 91
f 68 91 92
f 68 92 69
f 71 93 72
f 72 93 94
f 72 94 95
f 72 95 96
f 72 96 89
f 73 97 74
f 74 97 98
f 74 98 99
f 74 99 89
f 74 89 100
f 74 100 101
f 74 101 75
f 75 101 81
f 75 81 80
f 75 80 76
f 76 80 102
f 79 103 80
f 80 103 102
f 81 101 104
f 81 104 82
f 82 104 105
f 82 105 83
f 83 105 106
f 83 106 107
f 83 107 84
f 84 107 85
f 85 107 108
f 85 108 86
f 86 108 109
f 86 109 87
f 89 96 100
f 89 99 90
f 90 99 110
f 90 110 111
f 90 111 91
f 94 112 95
f 95 112 113
f 95 113 114
f 95 114 96
f 96 114 106
f 96 106 105
f 96 105 100
f 98 110 99
f 100 105 104
f 100 104 101
f 106 115 107
f 106 114 115
f 107 115 108
f 108 115 116
f 108 116 117
f 108 117 109
f 113 118 114
f 114 118 119
f 114 119 115
f 115 119 120
f 115 120 116

