# https://github.com/mikedh/trimesh
v 0.03155506 -0.02525807 -0.06783965
v 0.03155506 -0.02525807 -0.06467340
v 0.03155506 -0.02479005 -0.06818938
v 0.03226293 -0.02525807 -0.06721357
v 0.03155506 -0.01916140 -0.06869774
v 0.04108473 -0.02525807 -0.05126974
v 0.04842645 0.00003989 -0.05126974
v 0.03702871 0.00003989 -0.06869774
v 0.03155506 -0.02427993 -0.06854421
v 0.03353292 -0.02269014 -0.06783623
v 0.03258847 -0.02525807 -0.06691332
v 0.03155506 -0.02403973 -0.06869774
v 0.04404299 -0.02525807 -0.05126974
v 0.05088883 0.00003989 -0.05126974
v 0.03972389 0.00003989 -0.06869774
v 0.03286480 -0.02224688 -0.06869774
v 0.03443005 -0.01966409 -0.06869774
v 0.03461553 -0.01955266 -0.06858856
v 0.03506410 -0.02108302 -0.06727839
v 0.03654039 -0.02219240 -0.06502142
v 0.03496757 -0.02477767 -0.06496512
v 0.03317331 -0.02525807 -0.06635036
v 0.04391997 -0.02525807 -0.05152734
v 0.04410166 -0.02514168 -0.05129533
v 0.04412627 -0.02511445 -0.05126974
v 0.05033237 0.00003989 -0.05260039
v 0.05085855 -0.00145827 -0.05126974
v 0.05075445 -0.00165885 -0.05151199
v 0.04142163 0.00003989 -0.06681949
v 0.04142920 -0.00024488 -0.06682290
v 0.03973335 -0.00022012 -0.06869774
v 0.03454929 -0.01945608 -0.06869774
v 0.03493540 -0.01870576 -0.06869774
v 0.03729179 -0.01922578 -0.06599722
v 0.03831573 -0.02286348 -0.06245226
v 0.03683754 -0.02525807 -0.06245567
v 0.03613346 -0.02525807 -0.06326941
v 0.03916555 -0.02093939 -0.06277468
v 0.03483319 -0.02525807 -0.06471606
v 0.04255534 -0.02525807 -0.05419886
v 0.04314775 -0.02335627 -0.05505184
v 0.04511614 -0.02213545 -0.05230526
v 0.04533758 -0.02264061 -0.05126974
v 0.04983649 0.00003989 -0.05377067
v 0.05074498 -0.00350618 -0.05126974
v 0.04940496 -0.00188420 -0.05467995
v 0.04271244 0.00003989 -0.06525002
v 0.04290927 -0.00032412 -0.06502654
v 0.04147840 -0.00323379 -0.06654824
v 0.03998886 -0.00461061 -0.06810919
v 0.03960275 -0.00235965 -0.06869774
v 0.03973524 -0.00028450 -0.06869774
v 0.03578711 -0.01700949 -0.06869774
v 0.03859017 -0.01662319 -0.06590340
v 0.03967657 -0.01729427 -0.06429469
v 0.03951001 -0.02426507 -0.05994109
v 0.03722554 -0.02525807 -0.06197970
v 0.04122100 -0.01831946 -0.06173064
v 0.04108473 -0.02199430 -0.05955726
v 0.04167146 -0.02525807 -0.05570181
v 0.04141405 -0.02474300 -0.05664008
v 0.04294713 -0.02128112 -0.05713651
v 0.04486820 -0.02064966 -0.05426710
v 0.04584104 -0.02152132 -0.05126974
v 0.04678549 -0.01934712 -0.05134651
v 0.04680441 -0.01937932 -0.05126974
v 0.04894125 0.00003989 -0.05550392
v 0.05070334 -0.00418717 -0.05126974
v 0.04763530 -0.00050242 -0.05800484
v 0.04773751 0.00003989 -0.05779501
v 0.05069388 -0.00431098 -0.05126974
v 0.04924787 -0.00610383 -0.05425346
v 0.04814065 -0.00414012 -0.05674756
v 0.04292063 0.00003989 -0.06498730
v 0.04645995 -0.00322140 -0.05979268
v 0.04450859 -0.00276576 -0.06260579
v 0.04343165 -0.00475424 -0.06390743
v 0.04338434 0.00003989 -0.06435610
v 0.04525999 0.00003989 -0.06165387
v 0.04127967 -0.00624002 -0.06631965
v 0.03918258 -0.00867919 -0.06812284
v 0.03938320 -0.00475672 -0.06869774
v 0.03946459 -0.00400144 -0.06869774
v 0.03588552 -0.01679653 -0.06869774
v 0.03601801 -0.01650185 -0.06869774
v 0.03758326 -0.01517950 -0.06766223
v 0.04012135 -0.01287901 -0.06571575
v 0.04132510 -0.01465452 -0.06349971
v 0.04114529 -0.02525807 -0.05655820
v 0.03967278 -0.02525807 -0.05875887
v 0.03889300 -0.02525807 -0.05991209
v 0.04274082 -0.01750475 -0.06013899
v 0.04334270 -0.01854232 -0.05848080
v 0.04465054 -0.01801982 -0.05665373
v 0.04603220 -0.01725464 -0.05471065
v 0.04687444 -0.01919855 -0.05126974
v 0.04734951 -0.01634336 -0.05263280
v 0.04795517 -0.01631860 -0.05126974
v 0.04748578 0.00003989 -0.05823855
v 0.05066928 -0.00450909 -0.05126974
v 0.05014122 -0.00639851 -0.05198283
v 0.04988381 -0.00936017 -0.05135163
v 0.04871413 -0.00882034 -0.05434728
v 0.04794760 -0.00708197 -0.05637737
v 0.04683659 -0.00646537 -0.05852345
v 0.04672682 0.00003989 -0.05940372
v 0.04545304 -0.00683929 -0.06064565
v 0.04281275 -0.00693587 -0.06428103
v 0.04109230 -0.00993468 -0.06561168
v 0.03802615 -0.01252985 -0.06822519
v 0.03760029 -0.01235403 -0.06869774
v 0.03862992 -0.00857023 -0.06869774
v 0.03662367 -0.01493682 -0.06869774
v 0.04391997 -0.01273043 -0.06088449
v 0.04483792 -0.01503835 -0.05824197
v 0.04656594 -0.01294587 -0.05646949
v 0.04820500 -0.01328760 -0.05305929
v 0.04842834 -0.01492691 -0.05126974
v 0.05043269 -0.00633412 -0.05126974
v 0.04991410 -0.00936265 -0.05126974
v 0.04987814 -0.00953599 -0.05126974
v 0.04909835 -0.01187115 -0.05186854
v 0.04794760 -0.01139817 -0.05476695
v 0.04656404 -0.01048937 -0.05761077
v 0.04366445 -0.00966476 -0.06236013
v 0.03739021 -0.01293101 -0.06869774
v 0.04931033 -0.01201973 -0.05126974
v 0.04911160 -0.01273290 -0.05126974
f 1 2 5
f 1 5 12
f 1 12 9
f 1 9 3
f 1 3 4
f 1 4 11
f 1 11 22
f 1 22 39
f 1 39 37
f 1 37 36
f 1 36 57
f 1 57 91
f 1 91 90
f 1 90 89
f 1 89 60
f 1 60 40
f 1 40 23
f 1 23 13
f 1 13 6
f 1 6 2
f 2 6 7
f 2 7 8
f 2 8 5
f 3 9 10
f 3 10 4
f 4 10 11
f 5 8 15
f 5 15 31
f 5 31 52
f 5 52 51
f 5 51 83
f 5 83 82
f 5 82 112
f 5 112 111
f 5 111 126
f 5 126 113
f 5 113 85
f 5 85 84
f 5 84 53
f 5 53 33
f 5 33 32
f 5 32 17
f 5 17 16
f 5 16 12
f 6 13 25
f 6 25 43
f 6 43 64
f 6 64 66
f 6 66 96
f 6 96 98
f 6 98 118
f 6 118 128
f 6 128 127
f 6 127 121
f 6 121 120
f 6 120 119
f 6 119 100
f 6 100 71
f 6 71 68
f 6 68 45
f 6 45 27
f 6 27 14
f 6 14 7
f 7 14 26
f 7 26 44
f 7 44 67
f 7 67 70
f 7 70 99
f 7 99 106
f 7 106 79
f 7 79 78
f 7 78 74
f 7 74 47
f 7 47 29
f 7 29 15
f 7 15 8
f 9 12 10
f 10 16 17
f 10 17 18
f 10 18 19
f 10 19 20
f 10 20 21
f 10 21 22
f 10 22 11
f 10 12 16
f 13 23 24
f 13 24 25
f 14 27 28
f 14 28 26
f 15 29 30
f 15 30 31
f 17 32 18
f 18 32 33
f 18 33 34
f 18 34 19
f 19 34 20
f 20 35 36
f 20 36 37
f 20 37 21
f 20 34 38
f 20 38 35
f 21 37 39
f 21 39 22
f 23 40 24
f 24 41 42
f 24 42 43
f 24 43 25
f 24 40 41
f 26 28 44
f 27 45 28
f 28 45 46
f 28 46 44
f 29 47 30
f 30 48 49
f 30 49 50
f 30 50 51
f 30 51 52
f 30 52 31
f 30 47 48
f 33 53 34
f 34 53 54
f 34 54 55
f 34 55 38
f 35 56 36
f 35 38 56
f 36 56 57
f 38 55 58
f 38 58 59
f 38 59 56
f 40 60 41
f 41 61 59
f 41 59 62
f 41 62 63
f 41 63 42
f 41 60 61
f 42 64 43
f 42 63 65
f 42 65 66
f 42 66 64
f 44 46 67
f 45 68 46
f 46 69 70
f 46 70 67
f 46 68 71
f 46 71 72
f 46 72 73
f 46 73 69
f 47 74 48
f 48 75 76
f 48 76 77
f 48 77 49
f 48 74 78
f 48 78 79
f 48 79 75
f 49 77 80
f 49 80 50
f 50 80 81
f 50 81 82
f 50 82 83
f 50 83 51
f 53 84 54
f 54 84 85
f 54 85 86
f 54 86 87
f 54 87 88
f 54 88 55
f 55 88 58
f 56 59 61
f 56 61 89
f 56 89 90
f 56 90 91
f 56 91 57
f 58 88 92
f 58 92 59
f 59 92 93
f 59 93 62
f 60 89 61
f 62 93 94
f 62 94 63
f 63 94 95
f 63 95 65
f 65 96 66
f 65 95 97
f 65 97 98
f 65 98 96
f 69 73 75
f 69 75 99
f 69 99 70
f 71 100 72
f 72 100 101
f 72 101 102
f 72 102 103
f 72 103 104
f 72 104 73
f 73 104 105
f 73 105 75
f 75 79 106
f 75 106 99
f 75 105 107
f 75 107 77
f 75 77 76
f 77 107 108
f 77 108 80
f 80 108 109
f 80 109 81
f 81 109 110
f 81 110 111
f 81 111 112
f 81 112 82
f 85 113 86
f 86 113 110
f 86 110 87
f 87 110 109
f 87 109 88
f 88 109 114
f 88 114 92
f 92 114 115
f 92 115 94
f 92 94 93
f 94 115 95
f 95 115 116
f 95 116 117
f 95 117 97
f 97 117 98
f 98 117 118
f 100 119 101
f 101 119 102
f 102 120 121
f 102 121 122
f 102 122 103
f 102 119 120
f 103 122 123
f 103 123 124
f 103 124 104
f 104 124 105
f 105 124 107
f 107 124 114
f 107 114 125
f 107 125 108
f 108 125 109
f 109 125 114
f 110 113 126
f 110 126 111
f 114 124 116
f 114 116 115
f 116 124 123
f 116 123 117
f 117 123 122
f 117 122 127
f 117 127 128
f 117 128 118
f 121 127 122

