# https://github.com/mikedh/trimesh
v -0.02492898 -0.01764969 0.01351538
v -0.02936987 -0.00362301 0.01352736
v -0.02931700 -0.00362301 0.01419250
v -0.02950847 -0.00362301 0.01666728
v -0.02498613 -0.01764969 0.01417452
v -0.02805389 -0.01764969 0.01351538
v -0.02937130 -0.00362301 0.01351538
v -0.03073443 -0.00362301 0.02677614
v -0.02546480 -0.01764969 0.01722456
v -0.03161032 -0.00362301 0.03353535
v -0.03706428 -0.00362301 0.07171769
v -0.02860257 -0.01670094 0.01351538
v -0.03573687 -0.01764969 0.05856480
v -0.03206327 -0.00362301 0.01351538
v -0.03506244 -0.01764969 0.06965039
v -0.03742006 -0.00362301 0.07341949
v -0.02971851 -0.01409084 0.01351538
v -0.03597263 -0.01764969 0.05999095
v -0.03910897 -0.00694982 0.06920696
v -0.03910469 -0.00495620 0.06936276
v -0.03910040 -0.00362301 0.06999195
v -0.03193324 -0.00560838 0.01351538
v -0.03903181 -0.00909858 0.06949459
v -0.03565256 -0.01764969 0.07246672
v -0.03773727 -0.00362301 0.07424042
v -0.03071443 -0.01158510 0.01351538
v -0.03643129 -0.01764969 0.06293312
v -0.03930473 -0.00921116 0.07202330
v -0.03945618 -0.00661480 0.07241879
v -0.03944619 -0.00441798 0.07261653
v -0.03926186 -0.00362301 0.07140011
v -0.03129169 -0.00906974 0.01351538
v -0.03817164 -0.01375583 0.06770891
v -0.03808305 -0.01124047 0.06402970
v -0.03856172 -0.01047845 0.06687599
v -0.03912469 -0.01100706 0.07173567
v -0.03572115 -0.01764969 0.07263450
v -0.03778585 -0.00362301 0.07429434
v -0.03608694 -0.01764969 0.07351536
v -0.03605836 -0.01764969 0.07345544
v -0.03669849 -0.01625334 0.06177063
v -0.03794874 -0.01561489 0.06908113
v -0.03749579 -0.01462357 0.06436526
v -0.03690996 -0.01764969 0.06612097
v -0.03940617 -0.00922901 0.07318579
v -0.03952620 -0.00621937 0.07373108
v -0.03942618 -0.00362301 0.07304198
v -0.03867888 -0.01413753 0.07226299
v -0.03875747 -0.01262859 0.07052525
v -0.03903467 -0.01242950 0.07311988
v -0.03811591 -0.00362301 0.07464789
v -0.03640986 -0.01764969 0.07385692
v -0.03721145 -0.01764969 0.06819428
v -0.03740434 -0.01764969 0.06955451
v -0.03796874 -0.01683275 0.07180759
v -0.03924472 -0.01005694 0.07377303
v -0.03930616 -0.00776127 0.07408462
v -0.03934330 -0.00517589 0.07418649
v -0.03937617 -0.00362301 0.07384493
v -0.03943475 -0.00362301 0.07364719
v -0.03846884 -0.01526614 0.07315583
v -0.03880177 -0.01316406 0.07358727
v -0.03818879 -0.00362301 0.07468385
v -0.03845456 -0.00362301 0.07473178
v -0.03850885 -0.00649947 0.07463591
v -0.03656418 -0.01764969 0.07386291
v -0.03770869 -0.01764969 0.07184952
v -0.03773155 -0.01764969 0.07276633
v -0.03798017 -0.01690552 0.07320376
v -0.03881748 -0.01124185 0.07402470
v -0.03885892 -0.00867294 0.07434829
v -0.03898181 -0.00612876 0.07449808
v -0.03907182 -0.00362301 0.07442018
v -0.03926043 -0.00362301 0.07419249
v -0.03830024 -0.01531008 0.07354532
v -0.03809591 -0.01526889 0.07375505
v -0.03889750 -0.00362301 0.07456999
v -0.03813306 -0.01273843 0.07415653
v -0.03815449 -0.01041255 0.07436027
v -0.03712858 -0.01686433 0.07389886
v -0.03690567 -0.01764969 0.07384493
v -0.03771583 -0.01764969 0.07319777
v -0.03754009 -0.01764969 0.07343148
v -0.03738148 -0.01764969 0.07362323
v -0.03718144 -0.01764969 0.07371910
f 1 2 3
f 1 3 4
f 1 4 5
f 1 5 9
f 1 9 15
f 1 15 24
f 1 24 37
f 1 37 40
f 1 40 39
f 1 39 52
f 1 52 66
f 1 66 81
f 1 81 85
f 1 85 84
f 1 84 83
f 1 83 82
f 1 82 68
f 1 68 67
f 1 67 54
f 1 54 53
f 1 53 44
f 1 44 27
f 1 27 18
f 1 18 13
f 1 13 6
f 1 6 12
f 1 12 17
f 1 17 26
f 1 26 32
f 1 32 22
f 1 22 14
f 1 14 7
f 1 7 2
f 2 7 14
f 2 14 21
f 2 21 31
f 2 31 47
f 2 47 60
f 2 60 59
f 2 59 74
f 2 74 73
f 2 73 77
f 2 77 64
f 2 64 63
f 2 63 51
f 2 51 38
f 2 38 25
f 2 25 16
f 2 16 11
f 2 11 10
f 2 10 8
f 2 8 4
f 2 4 3
f 4 8 5
f 5 8 10
f 5 10 11
f 5 11 9
f 6 13 12
f 9 11 15
f 11 16 15
f 12 13 17
f 13 18 17
f 14 19 20
f 14 20 21
f 14 22 23
f 14 23 19
f 15 16 24
f 16 25 24
f 17 18 26
f 18 27 26
f 19 23 28
f 19 28 29
f 19 29 20
f 20 29 30
f 20 30 31
f 20 31 21
f 22 32 33
f 22 33 34
f 22 34 35
f 22 35 23
f 23 35 36
f 23 36 28
f 24 25 37
f 25 38 39
f 25 39 40
f 25 40 37
f 26 27 41
f 26 41 42
f 26 42 43
f 26 43 32
f 27 44 41
f 28 36 45
f 28 45 29
f 29 45 46
f 29 46 30
f 30 46 47
f 30 47 31
f 32 43 33
f 33 43 42
f 33 42 48
f 33 48 49
f 33 49 34
f 34 49 35
f 35 49 36
f 36 49 50
f 36 50 45
f 38 51 39
f 39 51 52
f 41 44 53
f 41 53 42
f 42 53 54
f 42 54 55
f 42 55 48
f 45 50 56
f 45 56 46
f 46 57 58
f 46 58 59
f 46 59 60
f 46 60 47
f 46 56 57
f 48 55 61
f 48 61 50
f 48 50 49
f 50 61 62
f 50 62 56
f 51 63 52
f 52 63 64
f 52 64 65
f 52 65 66
f 54 67 55
f 55 67 68
f 55 68 69
f 55 69 61
f 56 70 57
f 56 62 70
f 57 70 71
f 57 71 72
f 57 72 58
f 58 72 73
f 58 73 74
f 58 74 59
f 61 69 75
f 61 75 62
f 62 75 76
f 62 76 70
f 64 77 72
f 64 72 65
f 65 72 71
f 65 71 78
f 65 78 79
f 65 79 66
f 66 80 81
f 66 79 80
f 68 82 69
f 69 82 75
f 70 76 78
f 70 78 71
f 72 77 73
f 75 82 83
f 75 83 84
f 75 84 76
f 76 84 85
f 76 85 80
f 76 80 78
f 78 80 79
f 80 85 81

