# https://github.com/mikedh/trimesh
v 0.01896029 -0.03160429 -0.06869625
v 0.01896029 -0.04343690 -0.05344931
v 0.01896029 -0.03471909 -0.06869625
v 0.00043908 -0.03630003 -0.06869625
v 0.00043908 -0.04750606 -0.05344931
v 0.01896029 -0.04645573 -0.05344931
v 0.01896029 -0.03519536 -0.06822753
v 0.01870285 -0.03546338 -0.06810810
v 0.01805743 -0.03513741 -0.06869625
v 0.00043908 -0.03914500 -0.06869625
v 0.00043908 -0.05010475 -0.05344931
v 0.01878987 -0.04652816 -0.05344931
v 0.01826592 -0.04642494 -0.05409866
v 0.01896029 -0.04595410 -0.05444796
v 0.01896029 -0.03543622 -0.06798869
v 0.01784894 -0.03737753 -0.06657505
v 0.01538876 -0.03635798 -0.06869625
v 0.01617377 -0.03600666 -0.06869625
v 0.01896029 -0.03589800 -0.06751847
v 0.00043908 -0.04003598 -0.06779314
v 0.00135100 -0.03913594 -0.06869625
v 0.00197828 -0.03980780 -0.06800959
v 0.00043908 -0.04970634 -0.05426436
v 0.00167733 -0.05008121 -0.05344931
v 0.01832938 -0.04670744 -0.05344931
v 0.01729780 -0.04706963 -0.05344931
v 0.01310986 -0.04808194 -0.05410911
v 0.01610669 -0.04627101 -0.05573620
v 0.01655812 -0.04483675 -0.05790816
v 0.01896029 -0.04528948 -0.05557648
v 0.01896029 -0.03763831 -0.06570777
v 0.01896029 -0.03878281 -0.06443445
v 0.01896029 -0.03949451 -0.06363136
v 0.01608312 -0.04088892 -0.06349402
v 0.01520021 -0.03806568 -0.06701094
v 0.01511137 -0.03647388 -0.06869625
v 0.00043908 -0.04088711 -0.06680942
v 0.00208887 -0.04251514 -0.06488079
v 0.00224660 -0.03911965 -0.06869625
v 0.00422817 -0.03900375 -0.06869625
v 0.00512921 -0.03893312 -0.06869625
v 0.00398523 -0.04129457 -0.06620635
v 0.00043908 -0.04958320 -0.05450618
v 0.00336157 -0.04947454 -0.05453902
v 0.00280499 -0.05004499 -0.05344931
v 0.01372990 -0.04821957 -0.05344931
v 0.01285424 -0.04845680 -0.05344931
v 0.01177371 -0.04870309 -0.05344931
v 0.00971963 -0.04915401 -0.05344931
v 0.01052095 -0.04802580 -0.05536152
v 0.01289593 -0.04591245 -0.05800668
v 0.01469802 -0.04389688 -0.06029208
v 0.01775104 -0.04316889 -0.05978902
v 0.01896029 -0.04345139 -0.05859780
v 0.01896029 -0.04381358 -0.05802907
v 0.01896029 -0.03984945 -0.06322084
v 0.01250796 -0.04199179 -0.06355672
v 0.01339268 -0.03981324 -0.06579584
v 0.01795591 -0.04120946 -0.06215950
v 0.01180453 -0.03773610 -0.06861266
v 0.01264031 -0.03735580 -0.06869625
v 0.00043908 -0.04267269 -0.06470762
v 0.00415746 -0.04427899 -0.06249537
v 0.00111713 -0.04439670 -0.06252523
v 0.00667204 -0.03874116 -0.06869625
v 0.00821487 -0.03886793 -0.06834247
v 0.00677538 -0.04175093 -0.06530174
v 0.00043908 -0.04847672 -0.05649303
v 0.00050979 -0.04826122 -0.05687666
v 0.00235901 -0.04780125 -0.05755587
v 0.00444028 -0.04845861 -0.05624673
v 0.00665391 -0.04900733 -0.05481368
v 0.00605382 -0.04977697 -0.05344931
v 0.00467778 -0.04991098 -0.05344931
v 0.00796287 -0.04947273 -0.05344931
v 0.00954196 -0.04672918 -0.05790666
v 0.01189881 -0.04495265 -0.05991292
v 0.01173020 -0.04356186 -0.06183110
v 0.01896029 -0.04249160 -0.05995471
v 0.01896029 -0.04128190 -0.06149075
v 0.00960904 -0.04219642 -0.06419711
v 0.00996075 -0.04020077 -0.06643026
v 0.00849044 -0.03845685 -0.06869625
v 0.01163774 -0.03769444 -0.06869625
v 0.01183354 -0.03764012 -0.06869625
v 0.00043908 -0.04374114 -0.06336117
v 0.00803720 -0.04393129 -0.06227594
v 0.00474305 -0.04660241 -0.05925312
v 0.00158487 -0.04641951 -0.05985022
v 0.00043908 -0.04491100 -0.06182811
v 0.00799731 -0.03855283 -0.06869625
v 0.00856296 -0.04096680 -0.06591228
v 0.00043908 -0.04824311 -0.05690204
v 0.00043908 -0.04819421 -0.05698265
v 0.00698749 -0.04673461 -0.05857094
v 0.00043908 -0.04639415 -0.05985918
f 1 2 6
f 1 6 14
f 1 14 30
f 1 30 55
f 1 55 54
f 1 54 79
f 1 79 80
f 1 80 56
f 1 56 33
f 1 33 32
f 1 32 31
f 1 31 19
f 1 19 15
f 1 15 7
f 1 7 3
f 1 3 9
f 1 9 18
f 1 18 17
f 1 17 36
f 1 36 61
f 1 61 85
f 1 85 84
f 1 84 83
f 1 83 91
f 1 91 65
f 1 65 41
f 1 41 40
f 1 40 39
f 1 39 21
f 1 21 10
f 1 10 4
f 1 4 5
f 1 5 2
f 2 5 11
f 2 11 24
f 2 24 45
f 2 45 74
f 2 74 73
f 2 73 75
f 2 75 49
f 2 49 48
f 2 48 47
f 2 47 46
f 2 46 26
f 2 26 25
f 2 25 12
f 2 12 6
f 3 7 8
f 3 8 9
f 4 10 20
f 4 20 37
f 4 37 62
f 4 62 86
f 4 86 90
f 4 90 96
f 4 96 94
f 4 94 93
f 4 93 68
f 4 68 43
f 4 43 23
f 4 23 11
f 4 11 5
f 6 12 13
f 6 13 14
f 7 15 8
f 8 16 17
f 8 17 18
f 8 18 9
f 8 15 19
f 8 19 16
f 10 21 22
f 10 22 20
f 11 23 24
f 12 25 13
f 13 25 26
f 13 26 27
f 13 27 28
f 13 28 29
f 13 29 14
f 14 29 30
f 16 19 31
f 16 31 32
f 16 32 33
f 16 33 34
f 16 34 35
f 16 35 17
f 17 35 36
f 20 22 38
f 20 38 37
f 21 39 22
f 22 39 40
f 22 40 41
f 22 41 42
f 22 42 38
f 23 43 44
f 23 44 24
f 24 44 45
f 26 46 27
f 27 46 47
f 27 47 48
f 27 48 49
f 27 49 50
f 27 50 51
f 27 51 28
f 28 51 29
f 29 51 52
f 29 52 53
f 29 53 54
f 29 54 55
f 29 55 30
f 33 56 34
f 34 52 57
f 34 57 58
f 34 58 35
f 34 56 59
f 34 59 53
f 34 53 52
f 35 58 60
f 35 60 36
f 36 60 61
f 37 38 62
f 38 42 63
f 38 63 64
f 38 64 62
f 41 65 66
f 41 66 42
f 42 66 67
f 42 67 63
f 43 68 69
f 43 69 44
f 44 69 70
f 44 70 71
f 44 71 72
f 44 72 73
f 44 73 74
f 44 74 45
f 49 75 50
f 50 75 72
f 50 72 76
f 50 76 51
f 51 76 77
f 51 77 52
f 52 77 78
f 52 78 57
f 53 59 79
f 53 79 54
f 56 80 59
f 57 78 81
f 57 81 82
f 57 82 58
f 58 82 60
f 59 80 79
f 60 82 66
f 60 66 83
f 60 83 84
f 60 84 85
f 60 85 61
f 62 64 86
f 63 67 87
f 63 87 88
f 63 88 89
f 63 89 64
f 64 89 90
f 64 90 86
f 65 91 66
f 66 92 67
f 66 91 83
f 66 82 92
f 67 92 81
f 67 81 87
f 68 93 69
f 69 93 94
f 69 94 89
f 69 89 70
f 70 88 71
f 70 89 88
f 71 88 95
f 71 95 72
f 72 95 76
f 72 75 73
f 76 95 77
f 77 95 87
f 77 87 78
f 78 87 81
f 81 92 82
f 87 95 88
f 89 94 96
f 89 96 90

