# https://github.com/mikedh/trimesh
v -0.03206215 -0.00362301 0.01352139
v -0.03217173 -0.00202269 0.01352139
v -0.02937154 -0.00362301 0.01352139
v -0.03910024 -0.00362301 0.06999497
v -0.03212103 0.00044636 0.01352139
v -0.02293863 0.01668609 0.01352139
v -0.02278651 0.01668609 0.01406868
v -0.02936991 -0.00362301 0.01352740
v -0.03926217 -0.00362301 0.07140230
v -0.03909861 -0.00291728 0.07032575
v -0.03175792 0.00318778 0.01352139
v -0.03910842 -0.00065099 0.07252094
v -0.02635054 0.01668609 0.01352139
v -0.02276034 0.01668609 0.01416491
v -0.02272599 0.01668609 0.01448968
v -0.02931757 -0.00362301 0.01419498
v -0.03942573 -0.00362301 0.07303817
v -0.03939793 -0.00255348 0.07360952
v -0.03133593 0.00517972 0.01352139
v -0.03842637 0.00153180 0.07013329
v -0.03909533 0.00002690 0.07374183
v -0.02780134 0.01423691 0.01352139
v -0.03296665 0.01534222 0.07003105
v -0.03224370 0.01668609 0.07152859
v -0.02273090 0.01668609 0.01646836
v -0.02950893 -0.00362301 0.01666683
v -0.03943555 -0.00362301 0.07364560
v -0.03937503 -0.00362301 0.07384407
v -0.03926053 -0.00362301 0.07419290
v -0.03914604 -0.00148197 0.07420492
v -0.03061952 0.00798077 0.01352139
v -0.03834622 0.00300687 0.07249087
v -0.03857848 0.00247807 0.07374183
v -0.03867498 0.00146023 0.07421695
v -0.02834927 0.01316540 0.01352139
v -0.03438310 0.01211575 0.06644657
v -0.03411813 0.01323696 0.06946571
v -0.03411813 0.01396257 0.07344112
v -0.03300917 0.01445956 0.06544821
v -0.03231730 0.01668609 0.07258710
v -0.02297624 0.01668609 0.01866957
v -0.02348656 0.01668609 0.02321632
v -0.02477053 0.01668609 0.03404193
v -0.03073565 -0.00362301 0.02677674
v -0.03907080 -0.00362301 0.07441542
v -0.03885654 -0.00239842 0.07460187
v -0.03837075 0.00162126 0.07460187
v -0.02961852 0.01043591 0.01352139
v -0.03715712 0.00616575 0.06970628
v -0.03655357 0.00742414 0.06793810
v -0.03649633 0.00873620 0.07222023
v -0.03561145 0.00969440 0.06742088
v -0.03757911 0.00599081 0.07375386
v -0.03731577 0.00660907 0.07282767
v -0.03806162 0.00392134 0.07424702
v -0.02916872 0.01148357 0.01352139
v -0.03543153 0.01104821 0.07174511
v -0.03544462 0.01135237 0.07362155
v -0.03489014 0.01230659 0.07424101
v -0.03395456 0.01410372 0.07425304
v -0.03281944 0.01601813 0.07392225
v -0.03237455 0.01668609 0.07394030
v -0.02609702 0.01668609 0.04486753
v -0.03160908 -0.00362301 0.03353673
v -0.03889743 -0.00362301 0.07456578
v -0.03840183 -0.00090545 0.07481837
v -0.03784572 0.00166499 0.07491460
v -0.03754149 0.00457538 0.07468005
v -0.03676620 0.00823722 0.07397638
v -0.03714894 0.00663889 0.07440340
v -0.03580936 0.01038820 0.07418086
v -0.03602036 0.00942006 0.07457179
v -0.03416883 0.01309780 0.07468607
v -0.03289468 0.01533626 0.07466201
v -0.03191167 0.01668609 0.07472215
v -0.02856518 0.01668609 0.06392661
v -0.02931429 0.01668609 0.06952586
v -0.03706389 -0.00362301 0.07171503
v -0.03845417 -0.00362301 0.07472816
v -0.03131139 0.01668609 0.07495069
v -0.03182498 0.01580939 0.07495670
v -0.03731741 0.00352573 0.07493264
v -0.03579301 0.00896879 0.07489055
v -0.03527451 0.01067248 0.07472215
v -0.03373212 0.01316341 0.07493264
v -0.02979026 0.01668609 0.07280962
v -0.03742046 -0.00362301 0.07342307
v -0.03818756 -0.00362301 0.07468607
v -0.03084033 0.01668609 0.07472816
v -0.03443053 0.01119731 0.07495069
v -0.03014683 0.01668609 0.07388617
v -0.03773613 -0.00362301 0.07423499
v -0.03811559 -0.00362301 0.07464997
v -0.03032838 0.01668609 0.07430717
v -0.03778520 -0.00362301 0.07429513
f 1 2 5
f 1 5 11
f 1 11 19
f 1 19 31
f 1 31 48
f 1 48 56
f 1 56 35
f 1 35 22
f 1 22 13
f 1 13 6
f 1 6 3
f 1 3 8
f 1 8 16
f 1 16 26
f 1 26 44
f 1 44 64
f 1 64 78
f 1 78 87
f 1 87 92
f 1 92 95
f 1 95 93
f 1 93 88
f 1 88 79
f 1 79 65
f 1 65 45
f 1 45 29
f 1 29 28
f 1 28 27
f 1 27 17
f 1 17 9
f 1 9 4
f 1 4 2
f 2 4 5
f 3 6 7
f 3 7 14
f 3 14 8
f 4 9 10
f 4 10 5
f 5 10 12
f 5 12 11
f 6 13 24
f 6 24 40
f 6 40 62
f 6 62 75
f 6 75 80
f 6 80 89
f 6 89 94
f 6 94 91
f 6 91 86
f 6 86 77
f 6 77 76
f 6 76 63
f 6 63 43
f 6 43 42
f 6 42 41
f 6 41 25
f 6 25 15
f 6 15 14
f 6 14 7
f 8 14 15
f 8 15 16
f 9 17 10
f 10 17 18
f 10 18 12
f 11 12 20
f 11 20 19
f 12 18 21
f 12 21 20
f 13 22 23
f 13 23 24
f 15 25 16
f 16 25 26
f 17 27 18
f 18 27 28
f 18 28 29
f 18 29 30
f 18 30 21
f 19 20 32
f 19 32 31
f 20 21 32
f 21 33 32
f 21 30 34
f 21 34 33
f 22 35 36
f 22 36 37
f 22 37 38
f 22 38 39
f 22 39 23
f 23 39 38
f 23 38 24
f 24 38 40
f 25 41 26
f 26 41 42
f 26 42 43
f 26 43 44
f 29 45 46
f 29 46 30
f 30 46 47
f 30 47 34
f 31 32 49
f 31 49 50
f 31 50 51
f 31 51 52
f 31 52 48
f 32 33 53
f 32 53 54
f 32 54 49
f 33 34 55
f 33 55 53
f 34 47 55
f 35 56 36
f 36 57 37
f 36 56 57
f 37 57 38
f 38 58 59
f 38 59 60
f 38 60 61
f 38 61 40
f 38 57 58
f 40 61 62
f 43 63 44
f 44 63 64
f 45 65 46
f 46 65 66
f 46 66 47
f 47 66 67
f 47 67 68
f 47 68 55
f 48 52 56
f 49 54 50
f 50 54 51
f 51 54 69
f 51 69 58
f 51 58 57
f 51 57 52
f 52 57 56
f 53 55 70
f 53 70 69
f 53 69 54
f 55 68 70
f 58 69 71
f 58 71 59
f 59 71 72
f 59 72 73
f 59 73 60
f 60 73 74
f 60 74 62
f 60 62 61
f 62 74 75
f 63 76 64
f 64 76 77
f 64 77 78
f 65 79 66
f 66 79 67
f 67 79 80
f 67 80 81
f 67 81 82
f 67 82 68
f 68 82 83
f 68 83 72
f 68 72 70
f 69 70 72
f 69 72 71
f 72 83 84
f 72 84 73
f 73 84 85
f 73 85 74
f 74 85 75
f 75 85 80
f 77 86 78
f 78 86 87
f 79 88 80
f 80 85 81
f 80 88 89
f 81 85 90
f 81 90 82
f 82 90 83
f 83 90 85
f 83 85 84
f 86 91 87
f 87 91 92
f 88 93 89
f 89 93 94
f 91 94 92
f 92 94 95
f 93 95 94

