# https://github.com/mikedh/trimesh
v 0.00043908 0.05259563 -0.03277705
v 0.00044185 0.04399529 -0.00562948
v 0.00043908 0.04540625 -0.00767565
v 0.00043908 0.05502248 -0.03277705
v 0.02878357 0.04381512 -0.03277705
v 0.02878357 0.03285958 -0.00562948
v 0.00043908 0.04627236 -0.00562948
v 0.00043908 0.05502682 -0.03142712
v 0.00198449 0.05503116 -0.03277705
v 0.02878357 0.04658061 -0.03277705
v 0.02878357 0.03672343 -0.00562948
v 0.00043908 0.04698219 -0.00562948
v 0.00043908 0.05490092 -0.02857843
v 0.00218980 0.05503333 -0.03203299
v 0.00458144 0.05490092 -0.03277705
v 0.02878357 0.04657844 -0.03179649
v 0.02817040 0.04698436 -0.03277705
v 0.02780694 0.04723182 -0.03186026
v 0.02878357 0.03764815 -0.00683327
v 0.02791237 0.03816912 -0.00664725
v 0.02842288 0.03699477 -0.00562948
v 0.00216483 0.04693660 -0.00562948
v 0.00043908 0.04706902 -0.00576501
v 0.00043908 0.05488138 -0.02824094
v 0.00266979 0.05481409 -0.02889465
v 0.00493103 0.05480107 -0.03059802
v 0.00518073 0.05485968 -0.03277705
v 0.02878357 0.04646773 -0.02992039
v 0.02742405 0.04743369 -0.03277705
v 0.02439150 0.04913770 -0.03277705
v 0.02454133 0.04905738 -0.03112152
v 0.02663332 0.04775279 -0.02951648
v 0.02878357 0.03887677 -0.00853929
v 0.02628095 0.04083909 -0.00881566
v 0.02498247 0.04061117 -0.00725313
v 0.02428052 0.03986010 -0.00562948
v 0.02717434 0.03789778 -0.00562948
v 0.00267812 0.04691489 -0.00562948
v 0.00267257 0.04704731 -0.00582879
v 0.00175143 0.04854292 -0.00814334
v 0.00043908 0.04828027 -0.00773677
v 0.00043908 0.05485968 -0.02801241
v 0.00281962 0.05454926 -0.02598750
v 0.00507253 0.05450802 -0.02702653
v 0.00596592 0.05456663 -0.02902221
v 0.00720891 0.05457097 -0.03207285
v 0.00563298 0.05480107 -0.03277705
v 0.02878357 0.04640695 -0.02921088
v 0.02271569 0.05000815 -0.03277705
v 0.02256864 0.05008195 -0.03261495
v 0.02216079 0.05019049 -0.03106040
v 0.02374504 0.04918111 -0.02772010
v 0.02586200 0.04790908 -0.02677940
v 0.02878357 0.04637005 -0.02888137
v 0.02878357 0.03924579 -0.00907076
v 0.02878357 0.04012927 -0.01058280
v 0.02843675 0.04154891 -0.01259973
v 0.02554848 0.04274931 -0.01126840
v 0.02161421 0.04322253 -0.00829747
v 0.02161144 0.04156628 -0.00582613
v 0.02226622 0.04104096 -0.00562948
v 0.00350492 0.04685194 -0.00562948
v 0.00501981 0.04809576 -0.00783509
v 0.00255881 0.04978674 -0.01062000
v 0.00043908 0.04995822 -0.01074755
v 0.00518073 0.04937213 -0.01018419
v 0.00043908 0.05451670 -0.02486078
v 0.00232853 0.05432351 -0.02423365
v 0.00508363 0.05425188 -0.02485813
v 0.00611020 0.05420412 -0.02551449
v 0.00853235 0.05396318 -0.02685912
v 0.00952286 0.05411512 -0.03068040
v 0.00787757 0.05444073 -0.03277705
v 0.00741145 0.05452105 -0.03277705
v 0.00981973 0.05406086 -0.03277705
v 0.02249928 0.05010800 -0.03277705
v 0.01983297 0.05124979 -0.03216586
v 0.01933633 0.05126716 -0.02980613
v 0.02118971 0.05030988 -0.02762975
v 0.02589807 0.04759216 -0.02463757
v 0.02218021 0.04936996 -0.02404232
v 0.02875582 0.04600103 -0.02554373
v 0.02878357 0.04601188 -0.02577491
v 0.02878357 0.04113865 -0.01232337
v 0.02678591 0.04380210 -0.01481863
v 0.02878357 0.04141650 -0.01283358
v 0.02380053 0.04449021 -0.01264491
v 0.02056822 0.04514360 -0.01073958
v 0.01881472 0.04349169 -0.00661271
v 0.01926419 0.04257349 -0.00562948
v 0.02149768 0.04147945 -0.00562948
v 0.02168357 0.04137960 -0.00562948
v 0.00513079 0.04670868 -0.00562948
v 0.00583552 0.04659797 -0.00562948
v 0.00809953 0.04704079 -0.00692096
v 0.00695920 0.04851687 -0.00903356
v 0.00380735 0.05085690 -0.01308603
v 0.00060833 0.05139306 -0.01385401
v 0.00043908 0.05011668 -0.01108770
v 0.00717561 0.04971293 -0.01151553
v 0.00546651 0.05120204 -0.01423932
v 0.00043908 0.05447546 -0.02458176
v 0.00073873 0.05392410 -0.02190049
v 0.00446768 0.05350516 -0.02115111
v 0.00582720 0.05370052 -0.02264720
v 0.00816612 0.05374610 -0.02463757
v 0.01281898 0.05293643 -0.02597422
v 0.01192281 0.05343786 -0.02883619
v 0.01256928 0.05347477 -0.03171145
v 0.01183125 0.05363540 -0.03277705
v 0.02030464 0.05103489 -0.03277705
v 0.01997169 0.05117165 -0.03277705
v 0.01930026 0.05141477 -0.03277705
v 0.01667557 0.05231995 -0.03216586
v 0.01571836 0.05246756 -0.02957228
v 0.01711394 0.05177510 -0.02704513
v 0.01633430 0.05179030 -0.02489533
v 0.01946673 0.05036849 -0.02340721
v 0.02468005 0.04754874 -0.02176230
v 0.02774035 0.04610522 -0.02298735
v 0.02878357 0.04598149 -0.02553044
v 0.02210530 0.04850819 -0.02049209
v 0.02615055 0.04560596 -0.01819347
v 0.02602570 0.04566023 -0.01812704
v 0.02461346 0.04564069 -0.01613668
v 0.02878357 0.04313787 -0.01641570
v 0.02878357 0.04435346 -0.01936802
v 0.02174461 0.04632446 -0.01418883
v 0.01867599 0.04751618 -0.01384603
v 0.01816826 0.04661316 -0.01159525
v 0.01648690 0.04573186 -0.00861901
v 0.01781034 0.04324423 -0.00562948
v 0.00784150 0.04623980 -0.00562948
v 0.00971430 0.04585342 -0.00562948
v 0.01094341 0.04557774 -0.00562948
v 0.01152883 0.04641780 -0.00715481
v 0.01111820 0.04831717 -0.01030643
v 0.00280297 0.05150159 -0.01443065
v 0.00048625 0.05264990 -0.01722354
v 0.00043908 0.05142562 -0.01394967
v 0.00043908 0.05134965 -0.01377429
v 0.00934806 0.05016227 -0.01330659
v 0.00638765 0.05173603 -0.01600647
v 0.00357151 0.05230258 -0.01677179
v 0.00043908 0.05416505 -0.02303784
v 0.00198726 0.05312745 -0.01899599
v 0.00043908 0.05391541 -0.02189783
v 0.00043908 0.05380471 -0.02140888
v 0.00043908 0.05334018 -0.01962845
v 0.00566073 0.05284960 -0.01903586
v 0.00900125 0.05281921 -0.02098370
v 0.01243055 0.05277146 -0.02417518
v 0.01270800 0.05342918 -0.03277705
v 0.01681152 0.05225700 -0.03277705
v 0.01569061 0.05258912 -0.03277705
v 0.01609847 0.05119770 -0.02184734
v 0.01703348 0.05008629 -0.01887907
v 0.02251038 0.04735772 -0.01754242
v 0.02870033 0.04447068 -0.01952481
v 0.02878357 0.04445115 -0.01965236
v 0.02878357 0.04523477 -0.02241070
v 0.02878357 0.04549742 -0.02343112
v 0.02014926 0.04859719 -0.01801011
v 0.02878357 0.04441641 -0.01953544
v 0.01782699 0.04877953 -0.01611542
v 0.01468069 0.04970208 -0.01557598
v 0.01481664 0.04763991 -0.01107707
v 0.01355423 0.04639393 -0.00803173
v 0.01446982 0.04453363 -0.00562948
v 0.01705290 0.04354379 -0.00562948
v 0.01338776 0.04487877 -0.00562948
v 0.01397873 0.04470729 -0.00562948
v 0.01271078 0.04942640 -0.01353247
v 0.00255881 0.05283007 -0.01819347
v 0.00043908 0.05292775 -0.01819347
v 0.00043908 0.05268897 -0.01736438
v 0.00043908 0.05265207 -0.01723682
v 0.01071867 0.05108048 -0.01642367
v 0.00873489 0.05174254 -0.01710130
v 0.00730324 0.05231561 -0.01804200
v 0.00705076 0.05239810 -0.01819347
v 0.01107104 0.05193357 -0.01914481
v 0.01222246 0.05231127 -0.02181811
v 0.00782208 0.05226351 -0.01819347
v 0.01402313 0.05102621 -0.01863194
v 0.01654239 0.05000815 -0.01819347
v 0.01094618 0.05163618 -0.01819347
f 1 2 3
f 1 3 7
f 1 7 12
f 1 12 23
f 1 23 41
f 1 41 65
f 1 65 99
f 1 99 141
f 1 141 140
f 1 140 177
f 1 177 176
f 1 176 175
f 1 175 149
f 1 149 148
f 1 148 147
f 1 147 145
f 1 145 102
f 1 102 67
f 1 67 42
f 1 42 24
f 1 24 13
f 1 13 8
f 1 8 4
f 1 4 9
f 1 9 15
f 1 15 27
f 1 27 47
f 1 47 74
f 1 74 73
f 1 73 75
f 1 75 110
f 1 110 153
f 1 153 155
f 1 155 154
f 1 154 113
f 1 113 112
f 1 112 111
f 1 111 76
f 1 76 49
f 1 49 30
f 1 30 29
f 1 29 17
f 1 17 10
f 1 10 5
f 1 5 6
f 1 6 2
f 2 7 3
f 2 6 11
f 2 11 21
f 2 21 37
f 2 37 36
f 2 36 61
f 2 61 92
f 2 92 91
f 2 91 90
f 2 90 132
f 2 132 170
f 2 170 169
f 2 169 172
f 2 172 171
f 2 171 135
f 2 135 134
f 2 134 133
f 2 133 94
f 2 94 93
f 2 93 62
f 2 62 38
f 2 38 22
f 2 22 12
f 2 12 7
f 4 8 9
f 5 10 16
f 5 16 28
f 5 28 48
f 5 48 54
f 5 54 83
f 5 83 121
f 5 121 162
f 5 162 161
f 5 161 160
f 5 160 164
f 5 164 127
f 5 127 126
f 5 126 86
f 5 86 84
f 5 84 56
f 5 56 55
f 5 55 33
f 5 33 19
f 5 19 11
f 5 11 6
f 8 13 14
f 8 14 9
f 9 14 15
f 10 17 18
f 10 18 16
f 11 19 20
f 11 20 21
f 12 22 23
f 13 24 14
f 14 25 26
f 14 26 15
f 14 24 25
f 15 26 27
f 16 18 28
f 17 29 18
f 18 29 30
f 18 30 31
f 18 31 32
f 18 32 28
f 19 33 20
f 20 34 35
f 20 35 36
f 20 36 37
f 20 37 21
f 20 33 34
f 22 38 39
f 22 39 40
f 22 40 23
f 23 40 41
f 24 42 43
f 24 43 25
f 25 43 44
f 25 44 26
f 26 44 45
f 26 45 46
f 26 46 27
f 27 46 47
f 28 32 48
f 30 49 31
f 31 49 50
f 31 50 51
f 31 51 52
f 31 52 32
f 32 52 53
f 32 53 54
f 32 54 48
f 33 55 34
f 34 55 56
f 34 56 57
f 34 57 58
f 34 58 59
f 34 59 35
f 35 59 60
f 35 60 36
f 36 60 61
f 38 62 39
f 39 62 63
f 39 63 40
f 40 64 65
f 40 65 41
f 40 63 66
f 40 66 64
f 42 67 43
f 43 67 68
f 43 68 69
f 43 69 44
f 44 69 70
f 44 70 45
f 45 70 71
f 45 71 72
f 45 72 46
f 46 73 74
f 46 74 47
f 46 72 75
f 46 75 73
f 49 76 50
f 50 76 77
f 50 77 51
f 51 77 78
f 51 78 79
f 51 79 52
f 52 80 53
f 52 79 81
f 52 81 80
f 53 80 82
f 53 82 83
f 53 83 54
f 56 84 57
f 57 85 58
f 57 84 86
f 57 86 85
f 58 85 87
f 58 87 59
f 59 88 89
f 59 89 60
f 59 87 88
f 60 89 90
f 60 90 91
f 60 91 92
f 60 92 61
f 62 93 63
f 63 93 94
f 63 94 95
f 63 95 96
f 63 96 66
f 64 97 98
f 64 98 99
f 64 99 65
f 64 66 97
f 66 96 100
f 66 100 101
f 66 101 97
f 67 102 68
f 68 103 104
f 68 104 69
f 68 102 103
f 69 105 106
f 69 106 70
f 69 104 105
f 70 106 71
f 71 106 107
f 71 107 108
f 71 108 72
f 72 108 109
f 72 109 110
f 72 110 75
f 76 111 77
f 77 111 112
f 77 112 113
f 77 113 114
f 77 114 78
f 78 114 115
f 78 115 116
f 78 116 79
f 79 116 117
f 79 117 118
f 79 118 81
f 80 81 119
f 80 119 120
f 80 120 121
f 80 121 82
f 81 118 122
f 81 122 119
f 82 121 83
f 85 123 124
f 85 124 125
f 85 125 87
f 85 86 126
f 85 126 127
f 85 127 123
f 87 125 128
f 87 128 88
f 88 128 129
f 88 129 130
f 88 130 131
f 88 131 89
f 89 131 132
f 89 132 90
f 94 133 95
f 95 134 135
f 95 135 136
f 95 136 96
f 95 133 134
f 96 136 137
f 96 137 100
f 97 138 98
f 97 101 138
f 98 138 139
f 98 139 140
f 98 140 141
f 98 141 99
f 100 137 142
f 100 142 101
f 101 142 143
f 101 143 144
f 101 144 138
f 102 145 103
f 103 146 104
f 103 145 147
f 103 147 148
f 103 148 149
f 103 149 146
f 104 146 150
f 104 150 105
f 105 150 151
f 105 151 106
f 106 151 152
f 106 152 107
f 107 152 117
f 107 117 115
f 107 115 108
f 108 115 109
f 109 153 110
f 109 115 114
f 109 114 153
f 113 154 114
f 114 154 155
f 114 155 153
f 115 117 116
f 117 156 118
f 117 152 156
f 118 156 157
f 118 157 122
f 119 124 120
f 119 122 158
f 119 158 124
f 120 124 123
f 120 123 159
f 120 159 160
f 120 160 161
f 120 161 162
f 120 162 121
f 122 163 158
f 122 157 163
f 123 127 159
f 124 158 125
f 125 158 128
f 127 164 159
f 128 158 163
f 128 163 129
f 129 165 166
f 129 166 167
f 129 167 130
f 129 163 165
f 130 167 131
f 131 167 168
f 131 168 169
f 131 169 170
f 131 170 132
f 135 171 136
f 136 171 172
f 136 172 168
f 136 168 137
f 137 173 142
f 137 168 167
f 137 167 173
f 138 144 139
f 139 144 174
f 139 174 146
f 139 146 149
f 139 149 175
f 139 175 176
f 139 176 177
f 139 177 140
f 142 173 178
f 142 178 179
f 142 179 143
f 143 180 181
f 143 181 150
f 143 150 144
f 143 179 180
f 144 150 174
f 146 174 150
f 150 181 151
f 151 182 183
f 151 183 152
f 151 181 180
f 151 180 184
f 151 184 182
f 152 183 156
f 156 183 185
f 156 185 157
f 157 185 186
f 157 186 165
f 157 165 163
f 159 164 160
f 165 186 166
f 166 186 185
f 166 185 178
f 166 178 173
f 166 173 167
f 168 172 169
f 178 187 179
f 178 185 187
f 179 187 182
f 179 182 184
f 179 184 180
f 182 187 185
f 182 185 183

