# https://github.com/mikedh/trimesh
v -0.02287063 0.04962939 -0.03241679
v -0.02287063 0.04680812 -0.03241679
v -0.02287063 0.04965961 -0.03287565
v -0.02338335 0.04936451 -0.03241679
v -0.04059035 0.03149823 -0.03241679
v -0.02287063 0.03150001 -0.06452647
v -0.02589731 0.04808276 -0.03285168
v -0.02287063 0.04965072 -0.03314275
v -0.02440464 0.04880630 -0.03527266
v -0.02594073 0.04803298 -0.03241679
v -0.04394575 0.03149823 -0.03241679
v -0.03855396 0.03149823 -0.04500110
v -0.02287063 0.03150001 -0.06739946
v -0.02983158 0.04566148 -0.03241679
v -0.02661263 0.04762943 -0.03241679
v -0.02725766 0.04724544 -0.03466999
v -0.03000318 0.04557970 -0.03306399
v -0.02287063 0.04954050 -0.03559455
v -0.02287063 0.04948362 -0.03628625
v -0.02544248 0.04808631 -0.03768337
v -0.04331519 0.03240487 -0.03241679
v -0.04391887 0.03160667 -0.03381391
v -0.04399123 0.03149823 -0.03374200
v -0.04181632 0.03149823 -0.04500110
v -0.02383197 0.03150001 -0.06739946
v -0.02287063 0.03226977 -0.06739946
v -0.03046214 0.04523659 -0.03241679
v -0.02829757 0.04629080 -0.03831687
v -0.02990807 0.04548726 -0.03584795
v -0.03282518 0.04341441 -0.03424537
v -0.02287063 0.04929518 -0.03821756
v -0.02503314 0.04789076 -0.04029269
v -0.04199826 0.03420750 -0.03241679
v -0.04150001 0.03491682 -0.03392349
v -0.04293685 0.03278175 -0.03600546
v -0.04376175 0.03149823 -0.03629996
v -0.04397469 0.03149823 -0.03396801
v -0.03918245 0.03150001 -0.05120936
v -0.03756160 0.03150001 -0.05384265
v -0.03727837 0.03150001 -0.05425014
v -0.03591388 0.03150001 -0.05616432
v -0.03373691 0.03150001 -0.05892774
v -0.03364594 0.03150001 -0.05903731
v -0.03359012 0.03150001 -0.05910238
v -0.03220496 0.03150001 -0.06050292
v -0.03129944 0.03150001 -0.06136927
v -0.02930026 0.03150001 -0.06324578
v -0.02702611 0.03150001 -0.06515996
v -0.02667465 0.03150001 -0.06543733
v -0.02639142 0.03150001 -0.06564622
v -0.02623636 0.03150001 -0.06575922
v -0.02486154 0.03150001 -0.06673857
v -0.04181839 0.03149823 -0.04499768
v -0.02287063 0.03269287 -0.06706388
v -0.03206438 0.04400818 -0.03241679
v -0.03081153 0.04454150 -0.03856684
v -0.02830170 0.04575570 -0.04107000
v -0.03495254 0.04148379 -0.03667320
v -0.03613303 0.04067492 -0.03305372
v -0.03571128 0.04103758 -0.03241679
v -0.03379479 0.04263399 -0.03241679
v -0.02287063 0.04910674 -0.03941949
v -0.02287063 0.04878319 -0.04128916
v -0.02287063 0.04849875 -0.04239178
v -0.02522954 0.04699478 -0.04335402
v -0.03998874 0.03664656 -0.03241679
v -0.03925068 0.03757809 -0.03290990
v -0.04027611 0.03613279 -0.03624859
v -0.04171502 0.03399595 -0.03870381
v -0.04345370 0.03149823 -0.03878942
v -0.03919692 0.03150001 -0.05118539
v -0.03697653 0.03416306 -0.05114773
v -0.03573816 0.03412750 -0.05320915
v -0.03498148 0.03293642 -0.05579450
v -0.03220909 0.03458972 -0.05718819
v -0.03050349 0.03390173 -0.05987284
v -0.02960623 0.03260576 -0.06195140
v -0.02633974 0.03416306 -0.06324921
v -0.02658576 0.03169556 -0.06534830
v -0.02490496 0.03236221 -0.06601261
v -0.04267636 0.03149823 -0.04237466
v -0.04181632 0.03150001 -0.04500110
v -0.04094594 0.03150001 -0.04719608
v -0.03923206 0.03150001 -0.05111348
v -0.02287063 0.03389284 -0.06599207
v -0.03036290 0.04406507 -0.04205620
v -0.03301125 0.04234599 -0.04068648
v -0.02789856 0.04548192 -0.04294652
v -0.03824798 0.03840652 -0.03607053
v -0.03551074 0.04062159 -0.03882024
v -0.03648242 0.04031048 -0.03241679
v -0.02287063 0.04810587 -0.04383342
v -0.02362937 0.04739122 -0.04500110
v -0.02378029 0.04731122 -0.04500110
v -0.02578567 0.04611302 -0.04500110
v -0.03939332 0.03736832 -0.03241679
v -0.03885787 0.03794964 -0.03241679
v -0.03808052 0.03808120 -0.03923458
v -0.03986676 0.03592124 -0.03987150
v -0.04146693 0.03260221 -0.04378890
v -0.04277353 0.03149823 -0.04201169
v -0.04319321 0.03149823 -0.04015229
v -0.03457834 0.03630168 -0.05175383
v -0.03964555 0.03274265 -0.04812064
v -0.03835755 0.03521015 -0.04633658
v -0.03650930 0.03636568 -0.04796312
v -0.03399740 0.03513015 -0.05429466
v -0.03099140 0.03749987 -0.05478776
v -0.02919482 0.03604924 -0.05871201
v -0.02690000 0.03627501 -0.06060222
v -0.02436537 0.03503237 -0.06391694
v -0.04128293 0.03220932 -0.04500110
v -0.02287063 0.03479060 -0.06515996
v -0.02873172 0.04429617 -0.04498741
v -0.03253574 0.04164023 -0.04428542
v -0.03584152 0.03966516 -0.04143298
v -0.02648239 0.04500727 -0.04706253
v -0.02287063 0.04776987 -0.04500110
v -0.02287063 0.04770410 -0.04522368
v -0.02369139 0.04732899 -0.04510383
v -0.03669536 0.03810075 -0.04362111
v -0.03975512 0.03470882 -0.04382657
v -0.03972618 0.03417017 -0.04500110
v -0.03232280 0.03796564 -0.05238732
v -0.03405942 0.03814875 -0.04913081
v -0.03259777 0.03960116 -0.04893563
v -0.03910182 0.03494349 -0.04500110
v -0.03754300 0.03662878 -0.04500110
v -0.03485331 0.03937361 -0.04500110
v -0.03431991 0.03973983 -0.04540517
v -0.02699717 0.03975938 -0.05608556
v -0.02800813 0.03759765 -0.05798605
v -0.02887851 0.04028382 -0.05314409
v -0.02488842 0.03922606 -0.05883186
v -0.02448941 0.03746432 -0.06125969
v -0.02287063 0.03674967 -0.06320469
v -0.02783033 0.04344819 -0.04853156
v -0.03046834 0.04175045 -0.04793230
v -0.02441085 0.04610236 -0.04734675
v -0.02526882 0.04458417 -0.04976088
v -0.02287063 0.04670501 -0.04784670
v -0.02985432 0.04080825 -0.05094912
v -0.02505174 0.04182689 -0.05498979
v -0.02676355 0.04246688 -0.05202435
v -0.02287063 0.03947672 -0.06015364
v -0.02287063 0.03912295 -0.06057825
v -0.02359422 0.04168645 -0.05655470
v -0.02287063 0.03706611 -0.06286911
v -0.02287063 0.04578592 -0.05005880
v -0.02287063 0.04570414 -0.05024713
v -0.02287063 0.04550504 -0.05064435
v -0.02351980 0.04415573 -0.05259278
v -0.02287063 0.04314953 -0.05486652
v -0.02287063 0.04240821 -0.05606160
v -0.02287063 0.04189267 -0.05684234
v -0.02287063 0.04447039 -0.05263387
v -0.02287063 0.04419484 -0.05314067
f 1 2 6
f 1 6 13
f 1 13 26
f 1 26 54
f 1 54 85
f 1 85 113
f 1 113 136
f 1 136 148
f 1 148 146
f 1 146 145
f 1 145 155
f 1 155 154
f 1 154 153
f 1 153 157
f 1 157 156
f 1 156 151
f 1 151 150
f 1 150 149
f 1 149 141
f 1 141 119
f 1 119 118
f 1 118 92
f 1 92 64
f 1 64 63
f 1 63 62
f 1 62 31
f 1 31 19
f 1 19 18
f 1 18 8
f 1 8 3
f 1 3 4
f 1 4 10
f 1 10 15
f 1 15 14
f 1 14 27
f 1 27 55
f 1 55 61
f 1 61 60
f 1 60 91
f 1 91 97
f 1 97 96
f 1 96 66
f 1 66 33
f 1 33 21
f 1 21 11
f 1 11 5
f 1 5 2
f 2 5 6
f 3 7 4
f 3 8 9
f 3 9 7
f 4 7 10
f 5 11 23
f 5 23 37
f 5 37 36
f 5 36 70
f 5 70 102
f 5 102 101
f 5 101 81
f 5 81 53
f 5 53 24
f 5 24 12
f 5 12 6
f 6 12 13
f 7 14 15
f 7 15 10
f 7 9 16
f 7 16 17
f 7 17 14
f 8 18 9
f 9 18 19
f 9 19 20
f 9 20 16
f 11 21 22
f 11 22 23
f 12 24 25
f 12 25 13
f 13 25 26
f 14 17 27
f 16 20 28
f 16 28 29
f 16 29 17
f 17 29 30
f 17 30 27
f 19 31 20
f 20 31 32
f 20 32 28
f 21 33 22
f 22 33 34
f 22 34 35
f 22 35 36
f 22 36 37
f 22 37 23
f 24 38 39
f 24 39 40
f 24 40 41
f 24 41 42
f 24 42 43
f 24 43 44
f 24 44 45
f 24 45 46
f 24 46 47
f 24 47 48
f 24 48 49
f 24 49 50
f 24 50 51
f 24 51 52
f 24 52 25
f 24 53 71
f 24 71 38
f 25 52 54
f 25 54 26
f 27 30 55
f 28 56 29
f 28 32 57
f 28 57 56
f 29 56 30
f 30 56 58
f 30 58 59
f 30 59 60
f 30 60 61
f 30 61 55
f 31 62 32
f 32 62 63
f 32 63 64
f 32 64 65
f 32 65 57
f 33 66 67
f 33 67 34
f 34 68 69
f 34 69 35
f 34 67 68
f 35 69 70
f 35 70 36
f 38 71 72
f 38 72 73
f 38 73 39
f 39 73 74
f 39 74 40
f 40 74 41
f 41 74 42
f 42 74 43
f 43 74 75
f 43 75 44
f 44 75 76
f 44 76 45
f 45 76 77
f 45 77 46
f 46 77 47
f 47 77 78
f 47 78 79
f 47 79 48
f 48 79 49
f 49 79 50
f 50 79 51
f 51 79 80
f 51 80 52
f 52 80 54
f 53 81 82
f 53 82 83
f 53 83 84
f 53 84 71
f 54 80 85
f 56 57 86
f 56 86 87
f 56 87 58
f 57 65 88
f 57 88 86
f 58 89 59
f 58 87 90
f 58 90 89
f 59 67 91
f 59 91 60
f 59 89 67
f 64 92 93
f 64 93 65
f 65 93 94
f 65 94 95
f 65 95 88
f 66 96 67
f 67 96 97
f 67 97 91
f 67 89 68
f 68 89 98
f 68 98 99
f 68 99 69
f 69 99 100
f 69 100 101
f 69 101 102
f 69 102 70
f 71 84 72
f 72 103 73
f 72 84 104
f 72 104 105
f 72 105 106
f 72 106 103
f 73 103 107
f 73 107 74
f 74 107 75
f 75 107 108
f 75 108 109
f 75 109 76
f 76 109 110
f 76 110 78
f 76 78 77
f 78 111 80
f 78 80 79
f 78 110 111
f 80 111 85
f 81 101 100
f 81 100 82
f 82 112 104
f 82 104 83
f 82 100 112
f 83 104 84
f 85 111 113
f 86 88 114
f 86 114 115
f 86 115 87
f 87 115 116
f 87 116 90
f 88 95 117
f 88 117 114
f 89 90 98
f 90 116 98
f 92 118 93
f 93 118 119
f 93 119 120
f 93 120 94
f 94 120 117
f 94 117 95
f 98 116 121
f 98 121 122
f 98 122 99
f 99 122 100
f 100 122 123
f 100 123 104
f 100 104 112
f 103 124 107
f 103 106 125
f 103 125 126
f 103 126 124
f 104 123 127
f 104 127 105
f 105 127 128
f 105 128 129
f 105 129 130
f 105 130 106
f 106 130 125
f 107 124 108
f 108 131 132
f 108 132 109
f 108 124 133
f 108 133 131
f 109 132 110
f 110 132 134
f 110 134 135
f 110 135 111
f 111 135 136
f 111 136 113
f 114 117 137
f 114 137 138
f 114 138 115
f 115 138 130
f 115 130 116
f 116 129 121
f 116 130 129
f 117 120 139
f 117 139 140
f 117 140 137
f 119 141 120
f 120 141 139
f 121 129 128
f 121 128 127
f 121 127 122
f 122 127 123
f 124 126 142
f 124 142 133
f 125 130 126
f 126 130 138
f 126 138 142
f 131 133 143
f 131 143 134
f 131 134 132
f 133 142 144
f 133 144 143
f 134 145 146
f 134 146 135
f 134 143 147
f 134 147 145
f 135 148 136
f 135 146 148
f 137 140 144
f 137 144 142
f 137 142 138
f 139 141 149
f 139 149 140
f 140 149 150
f 140 150 151
f 140 151 152
f 140 152 144
f 143 153 154
f 143 154 147
f 143 144 152
f 143 152 153
f 145 147 155
f 147 154 155
f 151 156 152
f 152 156 157
f 152 157 153

