# https://github.com/mikedh/trimesh
v -0.01790359 0.02182831 0.01351339
v -0.01796154 0.02182831 0.01327704
v -0.02213981 0.02182831 0.01351339
v -0.02930546 -0.00485671 0.01351339
v -0.02931705 -0.00485671 0.01278050
v -0.02932284 -0.00485671 0.01245279
v -0.01894091 0.02182831 0.01134253
v -0.02940977 -0.00485671 0.01215089
v -0.02998059 -0.00485671 0.01087380
v -0.03012547 -0.00485671 0.01055204
v -0.02230207 0.02169768 0.01351339
v -0.03454133 0.02182831 0.00247041
v -0.03198279 -0.00485671 0.01351339
v -0.02010863 0.02182831 0.01006544
v -0.03128159 -0.00485671 0.00865726
v -0.04446255 -0.00485671 -0.00677312
v -0.02405220 0.01979832 0.01351339
v -0.03650298 0.02182831 0.00053988
v -0.03687676 0.02018760 0.00122112
v -0.03474126 0.02067615 0.00298880
v -0.02572988 0.01777617 0.01351339
v -0.03217403 -0.00202204 0.01351339
v -0.04319922 -0.00249754 -0.00032211
v -0.04211554 -0.00485671 0.00083184
v -0.03896879 0.02182831 -0.00677312
v -0.04725289 -0.00485671 -0.00677312
v -0.03720418 0.02182831 -0.00024664
v -0.03902674 0.02118038 -0.00190904
v -0.03839508 0.01846067 0.00054186
v -0.02834927 0.01316495 0.01351339
v -0.02780163 0.01423611 0.01351339
v -0.03212478 0.00044685 0.01351339
v -0.04270663 -0.00060863 0.00038098
v -0.04502757 0.00073685 -0.00276706
v -0.04532892 -0.00268303 -0.00331722
v -0.04358459 -0.00485671 -0.00110267
v -0.04202861 0.02182831 -0.00677312
v -0.04717756 -0.00485671 -0.00664601
v -0.04729926 -0.00437599 -0.00677312
v -0.03866166 0.02182831 -0.00192295
v -0.03907021 0.02182831 -0.00244928
v -0.04027559 0.02182831 -0.00408785
v -0.04073630 0.02086948 -0.00400244
v -0.04166352 0.01835878 -0.00360919
v -0.04033354 0.01728240 -0.00117814
v -0.03964682 0.01469593 0.00089738
v -0.02961839 0.01043479 0.01351339
v -0.02916927 0.01148244 0.01351339
v -0.03175969 0.00318746 0.01351339
v -0.04136507 0.00466358 0.00168986
v -0.04244585 0.00183414 0.00062727
v -0.04611416 0.00277990 -0.00463404
v -0.04713989 -0.00037350 -0.00611769
v -0.04382220 0.00443106 -0.00144031
v -0.04432637 -0.00485671 -0.00213944
v -0.04744124 -0.00236168 -0.00677312
v -0.04739777 -0.00321339 -0.00677312
v -0.04738328 -0.00339627 -0.00677312
v -0.04534051 -0.00485671 -0.00364295
v -0.04225172 0.02140506 -0.00677312
v -0.04171278 0.02182831 -0.00626268
v -0.04648794 -0.00485671 -0.00551787
v -0.04120570 0.02182831 -0.00548808
v -0.04189242 0.02106543 -0.00590319
v -0.04327456 0.01766383 -0.00559335
v -0.04279066 0.01508259 -0.00336489
v -0.04150125 0.01394873 -0.00106096
v -0.04071891 0.01101740 0.00102847
v -0.03062095 0.00798157 0.01351339
v -0.03133954 0.00518087 0.01351339
v -0.04185186 0.00737806 0.00063720
v -0.04568822 0.00679023 -0.00460226
v -0.04724710 0.00427953 -0.00677312
v -0.04750498 -0.00009918 -0.00677312
v -0.04420177 0.00668050 -0.00237777
v -0.04229518 0.02131885 -0.00677312
v -0.04281384 0.02026075 -0.00677312
v -0.04361357 0.01854166 -0.00677312
v -0.04421916 0.01706555 -0.00677312
v -0.04446835 0.01480827 -0.00575423
v -0.04234734 0.01192920 -0.00130724
v -0.04443647 0.01258496 -0.00453672
v -0.04344841 0.00966669 -0.00211958
v -0.04681826 0.00765238 -0.00677312
v -0.04685883 0.00743815 -0.00677312
v -0.04723261 0.00440754 -0.00677312
v -0.04514348 0.01022840 -0.00478101
v -0.04474651 0.01568610 -0.00677312
v -0.04505365 0.01482917 -0.00677312
v -0.04532892 0.01403494 -0.00677312
v -0.04564186 0.01303432 -0.00677312
v -0.04622426 0.01060984 -0.00677312
v -0.04630540 0.01026759 -0.00677312
f 1 2 7
f 1 7 14
f 1 14 25
f 1 25 37
f 1 37 61
f 1 61 63
f 1 63 42
f 1 42 41
f 1 41 40
f 1 40 27
f 1 27 18
f 1 18 12
f 1 12 3
f 1 3 11
f 1 11 17
f 1 17 21
f 1 21 31
f 1 31 30
f 1 30 48
f 1 48 47
f 1 47 69
f 1 69 70
f 1 70 49
f 1 49 32
f 1 32 22
f 1 22 13
f 1 13 4
f 1 4 5
f 1 5 6
f 1 6 2
f 2 6 8
f 2 8 9
f 2 9 10
f 2 10 7
f 3 12 11
f 4 13 24
f 4 24 36
f 4 36 55
f 4 55 59
f 4 59 62
f 4 62 38
f 4 38 26
f 4 26 16
f 4 16 15
f 4 15 10
f 4 10 9
f 4 9 8
f 4 8 6
f 4 6 5
f 7 10 15
f 7 15 16
f 7 16 14
f 11 12 17
f 12 18 19
f 12 19 20
f 12 20 21
f 12 21 17
f 13 22 23
f 13 23 24
f 14 16 25
f 16 26 39
f 16 39 58
f 16 58 57
f 16 57 56
f 16 56 74
f 16 74 73
f 16 73 86
f 16 86 85
f 16 85 84
f 16 84 93
f 16 93 92
f 16 92 91
f 16 91 90
f 16 90 89
f 16 89 88
f 16 88 79
f 16 79 78
f 16 78 77
f 16 77 76
f 16 76 60
f 16 60 37
f 16 37 25
f 18 27 19
f 19 27 28
f 19 28 29
f 19 29 30
f 19 30 31
f 19 31 21
f 19 21 20
f 22 32 33
f 22 33 23
f 23 33 34
f 23 34 35
f 23 35 36
f 23 36 24
f 26 38 39
f 27 40 28
f 28 40 41
f 28 41 42
f 28 42 43
f 28 43 44
f 28 44 45
f 28 45 29
f 29 45 46
f 29 46 47
f 29 47 48
f 29 48 30
f 32 49 50
f 32 50 51
f 32 51 33
f 33 51 34
f 34 52 53
f 34 53 35
f 34 51 54
f 34 54 52
f 35 55 36
f 35 53 56
f 35 56 57
f 35 57 58
f 35 58 39
f 35 39 59
f 35 59 55
f 37 60 61
f 38 62 39
f 39 62 59
f 42 63 43
f 43 63 64
f 43 64 44
f 44 64 65
f 44 65 66
f 44 66 45
f 45 66 67
f 45 67 46
f 46 67 68
f 46 68 69
f 46 69 47
f 49 70 71
f 49 71 50
f 50 71 54
f 50 54 51
f 52 72 73
f 52 73 74
f 52 74 53
f 52 54 72
f 53 74 56
f 54 71 75
f 54 75 72
f 60 76 64
f 60 64 61
f 61 64 63
f 64 76 77
f 64 77 78
f 64 78 65
f 65 78 79
f 65 79 80
f 65 80 66
f 66 81 67
f 66 80 82
f 66 82 81
f 67 81 68
f 68 81 71
f 68 71 70
f 68 70 69
f 71 81 83
f 71 83 75
f 72 84 85
f 72 85 86
f 72 86 73
f 72 75 87
f 72 87 84
f 75 83 87
f 79 88 80
f 80 88 89
f 80 89 90
f 80 90 82
f 81 82 83
f 82 90 91
f 82 91 92
f 82 92 87
f 82 87 83
f 84 87 93
f 87 92 93

