# https://github.com/mikedh/trimesh
v 0.04996261 -0.00366687 -0.01290197
v 0.04743521 -0.00366687 -0.01290197
v 0.04992141 -0.00439812 -0.01290197
v 0.05087895 -0.00366687 -0.01521555
v 0.05130231 -0.00366687 -0.03277653
v 0.03925350 -0.02707619 -0.01290197
v 0.04985890 -0.00503539 -0.01290197
v 0.05073830 -0.00602568 -0.01544905
v 0.05090878 -0.00366687 -0.01529533
v 0.05376436 -0.00366687 -0.03277653
v 0.04418611 -0.02708536 -0.03277653
v 0.03925208 -0.02708536 -0.01290781
v 0.03926345 -0.02708536 -0.01290197
v 0.04973814 -0.00602797 -0.01290197
v 0.05185638 -0.00601880 -0.01900794
v 0.05092157 -0.00366687 -0.01533230
v 0.05004785 -0.00822174 -0.01437496
v 0.05093719 -0.00984012 -0.01791828
v 0.05374020 -0.00366687 -0.03182698
v 0.05373310 -0.00422390 -0.03277653
v 0.04702890 -0.02708536 -0.03277653
v 0.04228666 -0.02708536 -0.01290197
v 0.04951651 -0.00752257 -0.01290197
v 0.05256388 -0.00549156 -0.02184689
v 0.05228543 -0.00381128 -0.01982324
v 0.05225275 -0.00366687 -0.01966952
v 0.05191036 -0.00366687 -0.01850592
v 0.05166033 -0.00910887 -0.02005868
v 0.05228258 -0.00820569 -0.02215822
v 0.04920680 -0.01017022 -0.01317828
v 0.04986032 -0.01147456 -0.01554828
v 0.05017713 -0.01375314 -0.01827632
v 0.05087895 -0.01301272 -0.02025132
v 0.05360382 -0.00366687 -0.02886545
v 0.05352142 -0.00447147 -0.02830116
v 0.05369190 -0.00489097 -0.03265006
v 0.05369616 -0.00481074 -0.03277653
v 0.04696070 -0.02708536 -0.03172385
v 0.04721927 -0.02676214 -0.03277653
v 0.04304530 -0.02596212 -0.01300316
v 0.04292881 -0.02606986 -0.01290197
v 0.04259779 -0.02708536 -0.01356744
v 0.04914998 -0.00976906 -0.01290197
v 0.05321455 -0.00504456 -0.02525790
v 0.05297446 -0.00375856 -0.02318561
v 0.05231526 -0.00366687 -0.01993221
v 0.05228969 -0.00366687 -0.01981740
v 0.05185496 -0.01224708 -0.02394448
v 0.05274004 -0.00845326 -0.02498938
v 0.04907184 -0.01021607 -0.01290197
v 0.04894114 -0.01080978 -0.01290197
v 0.04838423 -0.01310212 -0.01290197
v 0.04847942 -0.01435602 -0.01390991
v 0.04947673 -0.01449356 -0.01672550
v 0.04868399 -0.01810170 -0.01793385
v 0.05009189 -0.01640079 -0.02085452
v 0.05105938 -0.01461047 -0.02296573
v 0.05354557 -0.00366687 -0.02793924
v 0.05320318 -0.00751340 -0.02821554
v 0.05350295 -0.00662856 -0.03190675
v 0.05341344 -0.00366687 -0.02642345
v 0.05349727 -0.00663773 -0.03277653
v 0.05368054 -0.00498496 -0.03277653
v 0.04684279 -0.02708536 -0.03026060
v 0.04724058 -0.02672317 -0.03277653
v 0.04776623 -0.02542342 -0.03053107
v 0.04404689 -0.02607444 -0.01547629
v 0.04581847 -0.02210641 -0.01474855
v 0.04320300 -0.02557242 -0.01290197
v 0.04304530 -0.02587272 -0.01290197
v 0.04333938 -0.02708536 -0.01527587
v 0.05331115 -0.00366687 -0.02539022
v 0.05298298 -0.00366687 -0.02321091
v 0.05296735 -0.00366687 -0.02312918
v 0.05141596 -0.01541050 -0.02631448
v 0.05228543 -0.01212329 -0.02664722
v 0.05276988 -0.01047739 -0.02840429
v 0.04807168 -0.01420244 -0.01290197
v 0.04712693 -0.01703806 -0.01290197
v 0.04726615 -0.01718247 -0.01331643
v 0.04832314 -0.01685696 -0.01566309
v 0.04925084 -0.01858768 -0.02049260
v 0.04705731 -0.01953899 -0.01498983
v 0.04818675 -0.02005019 -0.01874137
v 0.05036750 -0.01771200 -0.02430056
v 0.05308101 -0.00961318 -0.03126464
v 0.05328558 -0.00819881 -0.03277653
v 0.04674050 -0.02708536 -0.02923904
v 0.04735991 -0.02648706 -0.03277653
v 0.04848510 -0.02422453 -0.03239710
v 0.04904485 -0.02261989 -0.02945892
v 0.04829331 -0.02369500 -0.02719788
v 0.04721927 -0.02566870 -0.02640983
v 0.04416906 -0.02708536 -0.01736373
v 0.04460095 -0.02708536 -0.01856041
v 0.04622195 -0.02434373 -0.01885812
v 0.04668083 -0.02207890 -0.01699208
v 0.04543631 -0.02114592 -0.01290197
v 0.04507546 -0.02196199 -0.01290197
v 0.05041439 -0.01865415 -0.02694687
v 0.05093862 -0.01783808 -0.02960485
v 0.05160065 -0.01626096 -0.03171801
v 0.05216609 -0.01356746 -0.02909505
v 0.05244596 -0.01313192 -0.03191260
v 0.04688683 -0.01766845 -0.01290197
v 0.04615518 -0.01949315 -0.01290197
v 0.04862006 -0.02096941 -0.02187219
v 0.04955487 -0.01976594 -0.02393475
v 0.04722353 -0.02297291 -0.02000809
v 0.05263917 -0.01217372 -0.03277653
v 0.05300855 -0.01016334 -0.03277653
v 0.04647057 -0.02708536 -0.02693520
v 0.04838281 -0.02442855 -0.03277653
v 0.04917555 -0.02273451 -0.03277653
v 0.04973814 -0.02148289 -0.03277653
v 0.04954919 -0.02099692 -0.02711616
v 0.04844958 -0.02251215 -0.02437256
v 0.04730877 -0.02455233 -0.02361758
v 0.04610545 -0.02707161 -0.02438618
v 0.04610119 -0.02708536 -0.02440953
v 0.04534539 -0.02708536 -0.02109386
v 0.04536528 -0.02708536 -0.02116974
v 0.05058913 -0.01909199 -0.03119264
v 0.05173846 -0.01575664 -0.03277653
v 0.05224565 -0.01387922 -0.03277653
v 0.04995124 -0.02095107 -0.03277653
v 0.05124833 -0.01723749 -0.03277653
v 0.04540648 -0.02708536 -0.02133709
v 0.04609693 -0.02708536 -0.02438229
f 1 2 6
f 1 6 13
f 1 13 22
f 1 22 41
f 1 41 70
f 1 70 69
f 1 69 99
f 1 99 98
f 1 98 106
f 1 106 105
f 1 105 79
f 1 79 78
f 1 78 52
f 1 52 51
f 1 51 50
f 1 50 43
f 1 43 23
f 1 23 14
f 1 14 7
f 1 7 3
f 1 3 4
f 1 4 9
f 1 9 16
f 1 16 27
f 1 27 26
f 1 26 47
f 1 47 46
f 1 46 74
f 1 74 73
f 1 73 72
f 1 72 61
f 1 61 58
f 1 58 34
f 1 34 19
f 1 19 10
f 1 10 5
f 1 5 2
f 2 5 6
f 3 7 8
f 3 8 4
f 4 8 9
f 5 10 20
f 5 20 37
f 5 37 63
f 5 63 62
f 5 62 87
f 5 87 111
f 5 111 110
f 5 110 125
f 5 125 124
f 5 124 127
f 5 127 126
f 5 126 115
f 5 115 114
f 5 114 113
f 5 113 89
f 5 89 65
f 5 65 39
f 5 39 21
f 5 21 11
f 5 11 12
f 5 12 6
f 6 12 13
f 7 14 8
f 8 15 16
f 8 16 9
f 8 14 17
f 8 17 18
f 8 18 15
f 10 19 20
f 11 21 38
f 11 38 64
f 11 64 88
f 11 88 112
f 11 112 120
f 11 120 129
f 11 129 128
f 11 128 122
f 11 122 121
f 11 121 95
f 11 95 94
f 11 94 71
f 11 71 42
f 11 42 22
f 11 22 13
f 11 13 12
f 14 23 17
f 15 24 25
f 15 25 26
f 15 26 27
f 15 27 16
f 15 18 28
f 15 28 29
f 15 29 24
f 17 23 30
f 17 30 31
f 17 31 18
f 18 31 32
f 18 32 33
f 18 33 28
f 19 34 35
f 19 35 36
f 19 36 20
f 20 36 37
f 21 39 38
f 22 40 41
f 22 42 40
f 23 43 30
f 24 44 45
f 24 45 25
f 24 29 44
f 25 45 46
f 25 46 47
f 25 47 26
f 28 33 48
f 28 48 29
f 29 48 49
f 29 49 44
f 30 43 50
f 30 50 51
f 30 51 31
f 31 51 52
f 31 52 53
f 31 53 54
f 31 54 32
f 32 54 55
f 32 55 56
f 32 56 33
f 33 56 57
f 33 57 48
f 34 58 35
f 35 44 59
f 35 59 60
f 35 60 36
f 35 58 61
f 35 61 44
f 36 60 62
f 36 62 63
f 36 63 37
f 38 39 65
f 38 65 66
f 38 66 64
f 40 67 68
f 40 68 69
f 40 69 70
f 40 70 41
f 40 42 71
f 40 71 67
f 44 61 72
f 44 72 45
f 44 49 59
f 45 72 73
f 45 73 74
f 45 74 46
f 48 57 75
f 48 75 76
f 48 76 49
f 49 77 59
f 49 76 77
f 52 78 53
f 53 78 79
f 53 79 80
f 53 80 81
f 53 81 54
f 54 81 55
f 55 82 56
f 55 81 83
f 55 83 84
f 55 84 82
f 56 82 85
f 56 85 57
f 57 85 75
f 59 77 86
f 59 86 60
f 60 86 87
f 60 87 62
f 64 66 88
f 65 89 90
f 65 90 66
f 66 90 91
f 66 91 92
f 66 92 93
f 66 93 88
f 67 71 94
f 67 94 95
f 67 95 96
f 67 96 68
f 68 97 83
f 68 83 98
f 68 98 99
f 68 99 69
f 68 96 97
f 75 85 100
f 75 100 101
f 75 101 102
f 75 102 103
f 75 103 76
f 76 103 77
f 77 103 104
f 77 104 86
f 79 105 80
f 80 105 106
f 80 106 83
f 80 83 81
f 82 84 107
f 82 107 108
f 82 108 85
f 83 106 98
f 83 97 84
f 84 97 96
f 84 96 109
f 84 109 107
f 85 108 100
f 86 104 110
f 86 110 111
f 86 111 87
f 88 93 112
f 89 113 90
f 90 113 114
f 90 114 115
f 90 115 91
f 91 115 116
f 91 116 92
f 92 116 117
f 92 117 93
f 93 118 119
f 93 119 120
f 93 120 112
f 93 117 118
f 95 121 96
f 96 121 122
f 96 122 118
f 96 118 109
f 100 108 116
f 100 116 101
f 101 116 123
f 101 123 102
f 102 124 125
f 102 125 104
f 102 104 103
f 102 123 126
f 102 126 127
f 102 127 124
f 104 125 110
f 107 109 118
f 107 118 117
f 107 117 108
f 108 117 116
f 115 126 123
f 115 123 116
f 118 122 128
f 118 128 119
f 119 128 129
f 119 129 120

