# https://github.com/mikedh/trimesh
v 0.00043760 0.04953083 -0.00997471
v 0.00043760 0.04828087 -0.00773515
v 0.00043760 0.04692787 -0.00997471
v -0.00134091 0.04950914 -0.00997471
v -0.00204691 0.04933019 -0.00966430
v -0.00012720 0.04643168 -0.00473911
v 0.00043760 0.04706615 -0.00576232
v -0.00180957 0.04782806 -0.00703845
v 0.00043760 0.02977539 0.00959040
v -0.03025370 0.02183092 0.00277285
v -0.03025370 0.03517384 -0.00997471
v -0.00213102 0.04947390 -0.00997471
v -0.00580821 0.04909430 -0.00997471
v -0.00480480 0.04851134 -0.00860890
v 0.00043760 0.04626357 -0.00452297
v 0.00043760 0.04655640 -0.00495755
v -0.00184562 0.04530372 -0.00322154
v -0.00513526 0.04543658 -0.00382627
v 0.00043760 0.02930903 0.01038597
v -0.02185685 0.02183092 0.00868446
v -0.03025370 0.02183092 0.00601952
v 0.00043760 0.02898908 0.01097690
v -0.03025370 0.03867971 -0.00997471
v -0.00620477 0.04902922 -0.00997471
v -0.00680862 0.04737525 -0.00717181
v 0.00043760 0.04584872 -0.00397343
v -0.00340482 0.04404291 -0.00171547
v -0.00033449 0.04364976 -0.00106016
v -0.00779101 0.04556131 -0.00455746
v -0.00666142 0.04331625 -0.00130849
v -0.02010538 0.02183092 0.01006176
v -0.02213925 0.02183092 0.01351538
v -0.03025370 0.02271755 0.00552056
v 0.00043760 0.02869624 0.01162302
v -0.03025370 0.03790424 -0.00874916
v -0.02978804 0.03905660 -0.00997471
v -0.00697085 0.04889636 -0.00997471
v -0.00971672 0.04768706 -0.00863190
v -0.00923905 0.04636660 -0.00628657
v 0.00043760 0.04376635 -0.00122801
v -0.00443527 0.04085970 0.00189910
v -0.00227222 0.04197409 0.00081611
v -0.00675755 0.04106306 0.00133806
v 0.00043760 0.03085183 0.01351538
v 0.00043760 0.04256518 0.00016539
v -0.01166647 0.04497564 -0.00498974
v -0.00886352 0.04403207 -0.00276167
v -0.00825667 0.04236996 -0.00050142
v -0.01893974 0.02183092 0.01134250
v 0.00043760 0.02827597 0.01287386
v -0.01790327 0.02183092 0.01351538
v -0.01983199 0.02374247 0.01351538
v -0.02692199 0.03124227 0.00175884
v -0.02962882 0.02875318 0.00178413
v -0.03025370 0.02828953 0.00162317
v -0.03025370 0.02641322 0.00304417
v -0.03025370 0.02605803 0.00330629
v -0.03025370 0.02539373 0.00376616
v -0.03025370 0.02335474 0.00514807
v -0.03025370 0.02309173 0.00530442
v -0.03025370 0.03757887 -0.00827780
v -0.02971894 0.03810218 -0.00837897
v -0.02721341 0.04010321 -0.00862270
v -0.02926530 0.03943891 -0.00997471
v -0.00956351 0.04842186 -0.00997471
v -0.01234243 0.04778467 -0.00997471
v -0.01335185 0.04629339 -0.00784782
v -0.00463355 0.03051019 0.01351538
v -0.00390052 0.03058068 0.01351538
v -0.00173447 0.03078675 0.01351538
v -0.00105551 0.03081658 0.01351538
v -0.00912189 0.04105763 0.00082070
v 0.00043760 0.02817565 0.01351538
v -0.01260680 0.04261399 -0.00214775
v -0.01104460 0.04297732 -0.00204198
v -0.01469475 0.04540133 -0.00712123
v -0.01469475 0.04385582 -0.00473681
v -0.01796035 0.02183092 0.01327625
v 0.00043760 0.02825699 0.01298193
v -0.01966977 0.02386449 0.01351538
v -0.02459672 0.03455292 0.00036773
v -0.02776018 0.03298030 -0.00045543
v -0.03025370 0.02908940 0.00096786
v -0.03025370 0.03626654 -0.00648661
v -0.02944856 0.03644821 -0.00581520
v -0.02635720 0.03861735 -0.00565195
v -0.02697908 0.04103052 -0.00997471
v -0.02478899 0.04151586 -0.00837437
v -0.02588553 0.04173278 -0.00997471
v -0.01271796 0.04768706 -0.00997471
v -0.01296130 0.04761657 -0.00997471
v -0.01434325 0.04675433 -0.00917914
v -0.01469174 0.04614427 -0.00835597
v -0.00787513 0.02979437 0.01351538
v -0.01149824 0.04071328 0.00052409
v -0.00805538 0.02975099 0.01351538
v -0.01443638 0.04077835 -0.00065547
v -0.01502221 0.04373381 -0.00470922
v -0.01469475 0.04222354 -0.00257083
v -0.01536770 0.04494853 -0.00675333
v -0.01739255 0.02555099 0.01351538
v -0.02238560 0.03652413 -0.00014272
v -0.02456667 0.03649701 -0.00161430
v -0.02754087 0.03530399 -0.00264671
v -0.02204912 0.03468307 0.00189220
v -0.03012151 0.03268204 -0.00219603
v -0.03025370 0.03240005 -0.00204428
v -0.03025370 0.03079760 -0.00056580
v -0.03025370 0.03569714 -0.00575312
v -0.02528469 0.03825944 -0.00418497
v -0.03025370 0.03479153 -0.00464024
v -0.03025370 0.03398895 -0.00369751
v -0.02310361 0.04099527 -0.00610952
v -0.02278516 0.04318067 -0.00930100
v -0.02330489 0.04325931 -0.00997471
v -0.01462565 0.04706886 -0.00997471
v -0.01469174 0.04702819 -0.00994022
v -0.01469475 0.04656725 -0.00908027
v -0.01848610 0.04450928 -0.00800647
v -0.01180467 0.02852000 0.01351538
v -0.01126090 0.02870709 0.01351538
v -0.01614880 0.04194698 -0.00286744
v -0.01722432 0.03936841 -0.00031057
v -0.01469475 0.04031741 -0.00025769
v -0.01857923 0.04256790 -0.00502423
v -0.01469475 0.02711277 0.01351538
v -0.01957063 0.03792864 0.00007342
v -0.02194698 0.03840043 -0.00194081
v -0.03025370 0.03289624 -0.00254094
v -0.01910797 0.03638856 0.00187380
v -0.03025370 0.03260070 -0.00223282
v -0.02168260 0.04024421 -0.00396193
v -0.02011740 0.04270346 -0.00631416
v -0.02004529 0.04483736 -0.00997471
v -0.02243066 0.04370940 -0.00997471
v -0.01469475 0.04704446 -0.00997471
v -0.01650931 0.04633407 -0.00997471
v -0.01857923 0.04551793 -0.00997471
v -0.01448745 0.02722936 0.01351538
v -0.01573722 0.03841941 0.00138404
v -0.01889767 0.04019540 -0.00213625
f 1 2 7
f 1 7 16
f 1 16 15
f 1 15 26
f 1 26 40
f 1 40 45
f 1 45 44
f 1 44 73
f 1 73 79
f 1 79 50
f 1 50 34
f 1 34 22
f 1 22 19
f 1 19 9
f 1 9 3
f 1 3 11
f 1 11 23
f 1 23 36
f 1 36 64
f 1 64 87
f 1 87 89
f 1 89 115
f 1 115 135
f 1 135 134
f 1 134 138
f 1 138 137
f 1 137 136
f 1 136 116
f 1 116 91
f 1 91 90
f 1 90 66
f 1 66 65
f 1 65 37
f 1 37 24
f 1 24 13
f 1 13 12
f 1 12 4
f 1 4 5
f 1 5 2
f 2 6 7
f 2 5 8
f 2 8 6
f 3 9 10
f 3 10 11
f 4 12 5
f 5 12 13
f 5 13 14
f 5 14 8
f 6 15 16
f 6 16 7
f 6 8 17
f 6 17 15
f 8 14 18
f 8 18 17
f 9 19 10
f 10 20 31
f 10 31 49
f 10 49 78
f 10 78 51
f 10 51 32
f 10 32 21
f 10 21 33
f 10 33 60
f 10 60 59
f 10 59 58
f 10 58 57
f 10 57 56
f 10 56 55
f 10 55 83
f 10 83 108
f 10 108 107
f 10 107 131
f 10 131 129
f 10 129 112
f 10 112 111
f 10 111 109
f 10 109 84
f 10 84 61
f 10 61 35
f 10 35 23
f 10 23 11
f 10 19 22
f 10 22 20
f 13 24 14
f 14 24 25
f 14 25 18
f 15 17 26
f 17 18 27
f 17 27 28
f 17 28 26
f 18 25 29
f 18 29 30
f 18 30 27
f 20 22 31
f 21 32 33
f 22 34 31
f 23 35 36
f 24 37 38
f 24 38 25
f 25 38 39
f 25 39 29
f 26 28 40
f 27 41 42
f 27 42 28
f 27 30 43
f 27 43 41
f 28 44 45
f 28 45 40
f 28 42 44
f 29 39 46
f 29 46 47
f 29 47 30
f 30 47 48
f 30 48 43
f 31 34 50
f 31 50 49
f 32 51 73
f 32 73 44
f 32 44 71
f 32 71 70
f 32 70 69
f 32 69 68
f 32 68 94
f 32 94 96
f 32 96 121
f 32 121 120
f 32 120 139
f 32 139 126
f 32 126 101
f 32 101 80
f 32 80 52
f 32 52 53
f 32 53 54
f 32 54 55
f 32 55 56
f 32 56 57
f 32 57 58
f 32 58 59
f 32 59 60
f 32 60 33
f 35 61 62
f 35 62 36
f 36 62 63
f 36 63 64
f 37 65 38
f 38 65 66
f 38 66 67
f 38 67 46
f 38 46 39
f 41 68 69
f 41 69 70
f 41 70 42
f 41 43 68
f 42 70 71
f 42 71 44
f 43 48 72
f 43 72 68
f 46 74 75
f 46 75 47
f 46 67 76
f 46 76 77
f 46 77 74
f 47 75 48
f 48 75 72
f 49 50 79
f 49 79 78
f 51 78 73
f 52 80 81
f 52 81 53
f 53 81 82
f 53 82 54
f 54 82 83
f 54 83 55
f 61 84 62
f 62 85 86
f 62 86 63
f 62 84 85
f 63 87 64
f 63 86 88
f 63 88 89
f 63 89 87
f 66 90 67
f 67 90 91
f 67 91 92
f 67 92 93
f 67 93 76
f 68 72 94
f 72 75 95
f 72 95 96
f 72 96 94
f 73 78 79
f 74 97 95
f 74 95 75
f 74 77 98
f 74 98 99
f 74 99 97
f 76 100 98
f 76 98 77
f 76 93 100
f 80 101 81
f 81 102 103
f 81 103 104
f 81 104 82
f 81 101 105
f 81 105 102
f 82 104 106
f 82 106 107
f 82 107 108
f 82 108 83
f 84 109 85
f 85 104 110
f 85 110 86
f 85 109 111
f 85 111 112
f 85 112 104
f 86 110 113
f 86 113 88
f 88 113 114
f 88 114 115
f 88 115 89
f 91 116 92
f 92 116 117
f 92 117 118
f 92 118 93
f 93 118 119
f 93 119 100
f 95 120 121
f 95 121 96
f 95 97 120
f 97 99 122
f 97 122 123
f 97 123 124
f 97 124 120
f 98 100 125
f 98 125 122
f 98 122 99
f 100 119 125
f 101 126 105
f 102 105 127
f 102 127 128
f 102 128 103
f 103 128 110
f 103 110 104
f 104 112 129
f 104 129 106
f 105 126 130
f 105 130 127
f 106 129 131
f 106 131 107
f 110 128 132
f 110 132 113
f 113 132 133
f 113 133 114
f 114 133 119
f 114 119 134
f 114 134 135
f 114 135 115
f 116 136 117
f 117 136 137
f 117 137 119
f 117 119 118
f 119 137 138
f 119 138 134
f 119 133 125
f 120 124 140
f 120 140 127
f 120 127 139
f 122 125 141
f 122 141 123
f 123 141 127
f 123 127 140
f 123 140 124
f 125 133 132
f 125 132 141
f 126 139 130
f 127 141 128
f 127 130 139
f 128 141 132

