# https://github.com/mikedh/trimesh
v 0.04009930 -0.00568407 0.07155963
v 0.04003189 -0.00841945 0.07131797
v 0.04004133 -0.00563327 0.07023051
v 0.03998336 -0.00362301 0.07142729
v 0.03996988 -0.00362301 0.07173224
v 0.03987280 -0.00362301 0.07206596
v 0.03988224 -0.00405605 0.07208898
v 0.03985663 -0.00870264 0.07175525
v 0.03966518 -0.01175423 0.07112234
v 0.03977843 -0.01051480 0.07058148
v 0.03987146 -0.00795085 0.06967814
v 0.03943330 -0.00686508 0.06580009
v 0.03888997 -0.00523833 0.06117404
v 0.03968406 -0.00500467 0.06742840
v 0.03971776 -0.00362301 0.06851012
v 0.03984179 -0.00362301 0.06960910
v 0.03984044 -0.00362301 0.07212925
v 0.03935375 -0.00362301 0.07229611
v 0.03946969 -0.00820865 0.07197390
v 0.03953306 -0.01093387 0.07171498
v 0.03902479 -0.01487947 0.07122015
v 0.03917040 -0.01416451 0.07050093
v 0.03925264 -0.01232187 0.06869424
v 0.03914748 -0.01373528 0.07155963
v 0.03842754 -0.01077005 0.06125459
v 0.03250763 -0.00426050 0.01351538
v 0.03930387 -0.00962078 0.06649054
v 0.03805005 -0.00612219 0.05520736
v 0.03809858 -0.00362301 0.05555834
v 0.03862842 -0.00362301 0.05963202
v 0.03256291 -0.00362301 0.01351538
v 0.03936184 -0.00362301 0.06544910
v 0.03877807 -0.00362301 0.07219830
v 0.03809050 -0.01659638 0.07172073
v 0.03814173 -0.01636018 0.07173224
v 0.03894120 -0.01303429 0.07180704
v 0.03858258 -0.01659638 0.07078861
v 0.03864460 -0.01643891 0.07065628
v 0.03851248 -0.01659638 0.07134674
v 0.03169332 -0.00917759 0.01351538
v 0.03205329 -0.00733622 0.01351538
v 0.03817948 -0.01659638 0.07165169
v 0.03846799 -0.01659638 0.07142729
v 0.03209913 -0.00705684 0.01351538
v 0.03017931 -0.00362301 0.01351538
v 0.03863921 -0.00362301 0.07203144
v 0.03741100 -0.01659638 0.07149058
v 0.03748785 -0.01659638 0.07158264
v 0.03784378 -0.01659638 0.07166895
v 0.03859067 -0.01659638 0.07062752
v 0.03855562 -0.01659638 0.07037435
v 0.03092081 -0.01174661 0.01351538
v 0.02632617 -0.01659638 0.01351538
v 0.03033704 -0.00362301 0.01518398
v 0.03856371 -0.00362301 0.07193938
v 0.03693105 -0.01659638 0.07086917
v 0.02918703 -0.01659638 0.01352689
v 0.03007415 -0.01437659 0.01351538
v 0.03363068 -0.00362301 0.03939018
v 0.03109338 -0.00362301 0.02104709
v 0.02914524 -0.01659638 0.01351538
v 0.02677242 -0.01659638 0.01625418
v 0.03789231 -0.00362301 0.06939045
v 0.03746224 -0.00362301 0.06657685
v 0.03743258 -0.00362301 0.06638122
v 0.03831160 -0.00362301 0.07141578
v 0.03669646 -0.01659638 0.07035133
v 0.03383829 -0.01659638 0.05608193
v 0.03546287 -0.01659638 0.06516717
v 0.03619089 -0.01659638 0.06881507
v 0.03825767 -0.00362301 0.07121440
v 0.03625561 -0.01659638 0.06904522
f 1 2 3
f 1 3 4
f 1 4 5
f 1 5 6
f 1 6 7
f 1 7 8
f 1 8 2
f 2 8 9
f 2 9 10
f 2 10 11
f 2 11 3
f 3 11 12
f 3 12 13
f 3 13 14
f 3 14 15
f 3 15 16
f 3 16 4
f 4 16 15
f 4 15 32
f 4 32 30
f 4 30 29
f 4 29 31
f 4 31 45
f 4 45 54
f 4 54 60
f 4 60 59
f 4 59 65
f 4 65 64
f 4 64 63
f 4 63 71
f 4 71 66
f 4 66 55
f 4 55 46
f 4 46 33
f 4 33 18
f 4 18 17
f 4 17 6
f 4 6 5
f 6 17 7
f 7 17 18
f 7 18 19
f 7 19 8
f 8 19 20
f 8 20 9
f 9 21 22
f 9 22 23
f 9 23 10
f 9 20 24
f 9 24 21
f 10 23 25
f 10 25 26
f 10 26 27
f 10 27 11
f 11 27 12
f 12 27 28
f 12 28 13
f 13 29 30
f 13 30 14
f 13 28 31
f 13 31 29
f 14 30 32
f 14 32 15
f 18 33 34
f 18 34 35
f 18 35 36
f 18 36 19
f 19 36 20
f 20 36 24
f 21 37 38
f 21 38 22
f 21 24 39
f 21 39 37
f 22 38 40
f 22 40 41
f 22 41 23
f 23 41 25
f 24 36 35
f 24 35 34
f 24 34 42
f 24 42 43
f 24 43 39
f 25 41 44
f 25 44 26
f 26 44 41
f 26 41 40
f 26 40 52
f 26 52 58
f 26 58 61
f 26 61 53
f 26 53 45
f 26 45 31
f 26 31 27
f 27 31 28
f 33 46 47
f 33 47 48
f 33 48 49
f 33 49 34
f 34 49 48
f 34 48 47
f 34 47 56
f 34 56 67
f 34 67 72
f 34 72 70
f 34 70 69
f 34 69 68
f 34 68 62
f 34 62 53
f 34 53 61
f 34 61 57
f 34 57 51
f 34 51 50
f 34 50 37
f 34 37 39
f 34 39 43
f 34 43 42
f 37 50 38
f 38 50 51
f 38 51 40
f 40 51 52
f 45 53 54
f 46 55 47
f 47 55 56
f 51 57 58
f 51 58 52
f 53 59 60
f 53 60 54
f 53 62 63
f 53 63 64
f 53 64 65
f 53 65 59
f 55 66 56
f 56 66 67
f 57 61 58
f 62 68 63
f 63 68 69
f 63 69 70
f 63 70 71
f 66 71 70
f 66 70 72
f 66 72 67

