# https://github.com/mikedh/trimesh
v 0.04752002 0.02110053 -0.03278114
v 0.04331410 0.02372679 -0.04819854
v 0.05002321 0.02110053 -0.03278114
v 0.04455945 0.02110053 -0.01755274
v 0.03096658 0.03908777 -0.04819854
v 0.04631001 0.02372679 -0.04819854
v 0.02878357 0.04043456 -0.01755274
v 0.04642020 0.02372679 -0.04791053
v 0.04699194 0.02372679 -0.04630248
v 0.04731212 0.02372679 -0.04520446
v 0.04758447 0.02372679 -0.04410043
v 0.04810840 0.02372679 -0.04179337
v 0.04825393 0.02372679 -0.04110935
v 0.04847847 0.02372679 -0.03941731
v 0.04855747 0.02372679 -0.03879329
v 0.04981322 0.02167168 -0.03278114
v 0.04990054 0.02110053 -0.03059108
v 0.04740775 0.02110053 -0.01755274
v 0.03096658 0.04224775 -0.04819854
v 0.02878357 0.04381154 -0.03278114
v 0.04548047 0.02537288 -0.04819854
v 0.02878357 0.04359705 -0.01755274
v 0.04619358 0.02491397 -0.04692650
v 0.04697115 0.02495387 -0.04419643
v 0.04793583 0.02441266 -0.04109135
v 0.04817077 0.02456230 -0.03878729
v 0.04871756 0.02372679 -0.03677724
v 0.04969056 0.02193605 -0.03278114
v 0.04854916 0.02428796 -0.03136510
v 0.04978619 0.02136989 -0.03034207
v 0.04877161 0.02372679 -0.03597922
v 0.04884854 0.02372679 -0.03411317
v 0.04887141 0.02372679 -0.03326415
v 0.04988183 0.02110053 -0.03030307
v 0.04768427 0.02110053 -0.01829976
v 0.04726222 0.02147963 -0.01755274
v 0.02878357 0.04657497 -0.03278114
v 0.03096658 0.04304336 -0.04616748
v 0.03212877 0.04224277 -0.04599948
v 0.03157158 0.04179633 -0.04819854
v 0.04369248 0.02844308 -0.04819854
v 0.04408542 0.02859022 -0.04685750
v 0.02878357 0.04435026 -0.01937079
v 0.02973370 0.04297104 -0.01755274
v 0.04480894 0.02838571 -0.04498845
v 0.04600647 0.02765744 -0.04180537
v 0.04618527 0.02792431 -0.03994232
v 0.04623724 0.02837574 -0.03726325
v 0.04847431 0.02434033 -0.03625523
v 0.04690878 0.02745542 -0.03128109
v 0.04750339 0.02556991 -0.02666098
v 0.04870924 0.02326788 -0.02770800
v 0.04840362 0.02469449 -0.03278114
v 0.04929970 0.02131253 -0.02524194
v 0.04942652 0.02110053 -0.02561995
v 0.04982362 0.02110053 -0.02961305
v 0.04833293 0.02488653 -0.03345615
v 0.04739944 0.02174650 -0.01822776
v 0.04792752 0.02110053 -0.01910678
v 0.04719569 0.02163177 -0.01755274
v 0.02878357 0.04657497 -0.03180011
v 0.03056116 0.04539029 -0.03278114
v 0.03096658 0.04508102 -0.03503719
v 0.03096658 0.04489396 -0.03746125
v 0.03096658 0.04478173 -0.03876029
v 0.03096658 0.04432781 -0.04111235
v 0.03096658 0.04406095 -0.04241439
v 0.03096658 0.04380156 -0.04355742
v 0.03096658 0.04337009 -0.04509345
v 0.03333254 0.04076129 -0.04724751
v 0.03225143 0.04125013 -0.04819854
v 0.03210798 0.04280393 -0.04420243
v 0.03486065 0.03996568 -0.04584347
v 0.04268830 0.02993453 -0.04819854
v 0.04199597 0.03094712 -0.04819854
v 0.04343052 0.03070520 -0.04462244
v 0.03229925 0.04205571 -0.02005480
v 0.02878357 0.04441261 -0.01953879
v 0.03009961 0.04270417 -0.01755274
v 0.04382138 0.03147586 -0.04055134
v 0.04424343 0.03134119 -0.03838828
v 0.04393781 0.03211684 -0.03539420
v 0.04610419 0.02892443 -0.03336615
v 0.04789010 0.02568713 -0.03278114
v 0.04633288 0.02850792 -0.03278114
v 0.04431827 0.03165045 -0.03175511
v 0.04428709 0.03110425 -0.02751600
v 0.04623309 0.02806148 -0.02807701
v 0.04560521 0.02836077 -0.02472292
v 0.04765516 0.02467952 -0.02462992
v 0.04830382 0.02255208 -0.02307888
v 0.04929346 0.02110053 -0.02477693
v 0.04937246 0.02110053 -0.02521194
v 0.04668009 0.02275660 -0.01755274
v 0.04751379 0.02318059 -0.02097883
v 0.04591291 0.02536290 -0.01896878
v 0.04834125 0.02110053 -0.02063682
v 0.03113290 0.04500620 -0.03164711
v 0.02878357 0.04646523 -0.02992206
v 0.03096658 0.04511095 -0.03278114
v 0.03197908 0.04438018 -0.03482119
v 0.03200610 0.04406344 -0.03869429
v 0.03395626 0.04234502 -0.04005332
v 0.03543031 0.03844430 -0.04819854
v 0.03461740 0.03918504 -0.04819854
v 0.03321612 0.04044953 -0.04819854
v 0.03524943 0.04066651 -0.04240238
v 0.03718711 0.03805273 -0.04504845
v 0.04032441 0.03327160 -0.04819854
v 0.04246584 0.03231138 -0.04386643
v 0.04197102 0.03350354 -0.04240238
v 0.03318077 0.04052934 -0.01799975
v 0.03566732 0.03859644 -0.01874977
v 0.03498747 0.04005796 -0.02114983
v 0.03385023 0.04181878 -0.02356490
v 0.03104142 0.04418066 -0.02439592
v 0.03008090 0.04414824 -0.02169585
v 0.02878357 0.04444752 -0.01965579
v 0.03111211 0.04192851 -0.01755274
v 0.04194192 0.03428668 -0.03956131
v 0.04250118 0.03403229 -0.03682524
v 0.04218724 0.03464832 -0.03318315
v 0.04279641 0.03380034 -0.03278114
v 0.04324756 0.03292242 -0.02977506
v 0.04235565 0.03346364 -0.02592296
v 0.04362179 0.03139107 -0.02433592
v 0.04341805 0.03046577 -0.02093083
v 0.04468627 0.02835578 -0.02079882
v 0.04616863 0.02653262 -0.02235886
v 0.04856579 0.02110053 -0.02153684
v 0.04898368 0.02110053 -0.02333089
v 0.04559274 0.02500625 -0.01755274
v 0.04368417 0.02858025 -0.01793675
v 0.04405839 0.02768488 -0.01755274
v 0.02916819 0.04616344 -0.02916004
v 0.03122438 0.04448743 -0.02718599
v 0.03373380 0.04269419 -0.02782501
v 0.03393547 0.04288374 -0.03128710
v 0.03143644 0.04478423 -0.03278114
v 0.02878357 0.04640288 -0.02921404
v 0.03487312 0.04205072 -0.03619822
v 0.03310800 0.04351724 -0.03278114
v 0.03422030 0.04263184 -0.03278114
v 0.03603116 0.04072138 -0.03895830
v 0.03590641 0.03798539 -0.04819854
v 0.03749481 0.03871116 -0.04194037
v 0.03904995 0.03657624 -0.04351541
v 0.03989820 0.03475557 -0.04606548
v 0.03842415 0.03538657 -0.04819854
v 0.03747610 0.03638420 -0.04819854
v 0.04017680 0.03346613 -0.04819854
v 0.04079012 0.03521198 -0.04151736
v 0.03298742 0.04048445 -0.01755274
v 0.03382320 0.03973373 -0.01755274
v 0.03561119 0.03809513 -0.01755274
v 0.03921212 0.03493514 -0.01873477
v 0.03817051 0.03711496 -0.02157884
v 0.03652389 0.03717481 -0.01755274
v 0.03687109 0.03935962 -0.02462992
v 0.02878357 0.04549254 -0.02343289
v 0.02878357 0.04523066 -0.02241287
v 0.02878357 0.04598137 -0.02556295
v 0.02878357 0.04597639 -0.02553295
v 0.03964664 0.03718729 -0.03848728
v 0.03999176 0.03713740 -0.03498319
v 0.04171738 0.03519203 -0.03278114
v 0.04213735 0.03468573 -0.03278114
v 0.04185459 0.03488027 -0.03060308
v 0.04051984 0.03589286 -0.02688598
v 0.03991691 0.03624702 -0.02494193
v 0.04064250 0.03460592 -0.02228686
v 0.04172570 0.03290746 -0.02140184
v 0.04191905 0.03161054 -0.01870177
v 0.04202508 0.03079000 -0.01755274
v 0.04349289 0.02863512 -0.01755274
v 0.04373614 0.02823357 -0.01755274
v 0.02878357 0.04636546 -0.02888403
v 0.02878357 0.04600881 -0.02577895
v 0.03598126 0.04074632 -0.02818802
v 0.03616837 0.04102316 -0.03213312
v 0.03596255 0.04118777 -0.03278114
v 0.03758213 0.03967886 -0.03411017
v 0.03810190 0.03890320 -0.03812427
v 0.03836802 0.03527184 -0.01755274
v 0.03983999 0.03360331 -0.01755274
v 0.03775677 0.03907779 -0.02814001
v 0.03898757 0.03820238 -0.03278114
v 0.04028698 0.03683063 -0.03154510
v 0.03856137 0.03856650 -0.03018907
v 0.04103544 0.03214178 -0.01755274
v 0.03791686 0.03929976 -0.03278114
v 0.03662993 0.04058421 -0.03278114
f 1 2 6
f 1 6 3
f 1 3 17
f 1 17 34
f 1 34 56
f 1 56 55
f 1 55 93
f 1 93 92
f 1 92 131
f 1 131 130
f 1 130 97
f 1 97 59
f 1 59 35
f 1 35 18
f 1 18 4
f 1 4 2
f 2 5 19
f 2 19 40
f 2 40 71
f 2 71 106
f 2 106 105
f 2 105 104
f 2 104 145
f 2 145 150
f 2 150 149
f 2 149 151
f 2 151 109
f 2 109 75
f 2 75 74
f 2 74 41
f 2 41 21
f 2 21 6
f 2 4 7
f 2 7 5
f 3 6 8
f 3 8 9
f 3 9 10
f 3 10 11
f 3 11 12
f 3 12 13
f 3 13 14
f 3 14 15
f 3 15 16
f 3 16 17
f 4 18 36
f 4 36 60
f 4 60 94
f 4 94 132
f 4 132 134
f 4 134 176
f 4 176 175
f 4 175 174
f 4 174 190
f 4 190 185
f 4 185 184
f 4 184 158
f 4 158 155
f 4 155 154
f 4 154 153
f 4 153 119
f 4 119 79
f 4 79 44
f 4 44 22
f 4 22 7
f 5 7 20
f 5 20 37
f 5 37 19
f 6 21 8
f 7 22 43
f 7 43 78
f 7 78 118
f 7 118 161
f 7 161 160
f 7 160 163
f 7 163 162
f 7 162 178
f 7 178 177
f 7 177 140
f 7 140 99
f 7 99 61
f 7 61 37
f 7 37 20
f 8 23 9
f 8 21 23
f 9 23 24
f 9 24 10
f 10 24 11
f 11 24 12
f 12 25 13
f 12 24 25
f 13 25 14
f 14 25 26
f 14 26 15
f 15 26 27
f 15 27 16
f 16 28 29
f 16 29 30
f 16 30 17
f 16 27 31
f 16 31 32
f 16 32 33
f 16 33 28
f 17 30 34
f 18 35 36
f 19 37 38
f 19 38 39
f 19 39 40
f 21 41 42
f 21 42 23
f 22 44 43
f 23 42 45
f 23 45 24
f 24 45 46
f 24 46 25
f 25 47 26
f 25 46 47
f 26 48 49
f 26 49 27
f 26 47 48
f 27 49 31
f 28 33 29
f 29 50 51
f 29 51 52
f 29 52 30
f 29 33 53
f 29 53 50
f 30 52 54
f 30 54 55
f 30 55 56
f 30 56 34
f 31 49 32
f 32 49 57
f 32 57 33
f 33 57 53
f 35 58 36
f 35 59 58
f 36 58 60
f 37 61 62
f 37 62 63
f 37 63 64
f 37 64 65
f 37 65 66
f 37 66 67
f 37 67 68
f 37 68 69
f 37 69 38
f 38 69 39
f 39 70 71
f 39 71 40
f 39 69 72
f 39 72 73
f 39 73 70
f 41 74 42
f 42 74 75
f 42 75 76
f 42 76 45
f 43 77 78
f 43 44 77
f 44 79 77
f 45 76 46
f 46 80 47
f 46 76 80
f 47 80 81
f 47 81 48
f 48 81 82
f 48 82 83
f 48 83 57
f 48 57 49
f 50 53 84
f 50 84 85
f 50 85 86
f 50 86 87
f 50 87 88
f 50 88 51
f 51 89 90
f 51 90 52
f 51 88 89
f 52 90 54
f 53 57 84
f 54 90 91
f 54 91 92
f 54 92 93
f 54 93 55
f 57 83 84
f 58 94 60
f 58 59 95
f 58 95 96
f 58 96 94
f 59 97 95
f 61 98 62
f 61 99 98
f 62 98 100
f 62 100 63
f 63 101 102
f 63 102 64
f 63 100 101
f 64 102 65
f 65 102 66
f 66 102 67
f 67 72 68
f 67 102 103
f 67 103 72
f 68 72 69
f 70 104 105
f 70 105 106
f 70 106 71
f 70 73 104
f 72 103 107
f 72 107 73
f 73 107 108
f 73 108 104
f 75 109 76
f 76 110 111
f 76 111 80
f 76 109 110
f 77 79 112
f 77 112 113
f 77 113 114
f 77 114 115
f 77 115 116
f 77 116 117
f 77 117 78
f 78 117 118
f 79 119 112
f 80 120 81
f 80 111 120
f 81 121 82
f 81 120 121
f 82 121 122
f 82 122 123
f 82 123 86
f 82 86 83
f 83 85 84
f 83 86 85
f 86 124 87
f 86 123 124
f 87 124 125
f 87 125 126
f 87 126 89
f 87 89 88
f 89 126 127
f 89 127 128
f 89 128 129
f 89 129 90
f 90 129 95
f 90 95 91
f 91 95 130
f 91 130 131
f 91 131 92
f 94 96 132
f 95 97 130
f 95 129 96
f 96 129 128
f 96 128 133
f 96 133 134
f 96 134 132
f 98 99 135
f 98 135 136
f 98 136 137
f 98 137 138
f 98 138 139
f 98 139 100
f 99 140 135
f 100 139 101
f 101 141 102
f 101 139 142
f 101 142 143
f 101 143 141
f 102 141 103
f 103 141 144
f 103 144 107
f 104 108 145
f 107 144 146
f 107 146 108
f 108 146 147
f 108 147 148
f 108 148 149
f 108 149 150
f 108 150 145
f 109 151 148
f 109 148 110
f 110 148 111
f 111 152 120
f 111 148 152
f 112 119 153
f 112 153 154
f 112 154 155
f 112 155 113
f 113 156 157
f 113 157 114
f 113 155 158
f 113 158 156
f 114 157 159
f 114 159 115
f 115 159 137
f 115 137 116
f 116 160 161
f 116 161 117
f 116 137 136
f 116 136 162
f 116 162 163
f 116 163 160
f 117 161 118
f 120 152 164
f 120 164 121
f 121 164 165
f 121 165 122
f 122 165 166
f 122 166 167
f 122 167 123
f 123 167 168
f 123 168 124
f 124 168 125
f 125 168 169
f 125 169 170
f 125 170 171
f 125 171 126
f 126 171 172
f 126 172 127
f 127 172 173
f 127 173 133
f 127 133 128
f 133 174 175
f 133 175 176
f 133 176 134
f 133 173 174
f 135 140 177
f 135 177 178
f 135 178 136
f 136 178 162
f 137 159 179
f 137 179 180
f 137 180 138
f 138 180 181
f 138 181 143
f 138 143 142
f 138 142 139
f 141 182 183
f 141 183 144
f 141 143 181
f 141 181 182
f 144 183 146
f 146 152 147
f 146 183 164
f 146 164 152
f 147 152 148
f 148 151 149
f 156 158 184
f 156 184 185
f 156 185 173
f 156 173 171
f 156 171 157
f 157 171 170
f 157 170 159
f 159 170 186
f 159 186 179
f 164 183 165
f 165 183 182
f 165 182 187
f 165 187 188
f 165 188 166
f 166 188 168
f 166 168 167
f 168 188 169
f 169 188 189
f 169 189 170
f 170 189 186
f 171 173 172
f 173 185 190
f 173 190 174
f 179 186 189
f 179 189 180
f 180 189 191
f 180 191 182
f 180 182 192
f 180 192 181
f 181 192 182
f 182 191 187
f 187 191 189
f 187 189 188

