# https://github.com/mikedh/trimesh
v 0.02754360 -0.01420078 0.01351538
v 0.02754360 -0.01953365 0.01351538
v 0.02754360 -0.01396930 0.01263528
v 0.01616871 -0.02744541 0.01351538
v 0.02711047 -0.02026073 0.01351538
v 0.02754360 -0.03434224 -0.00149563
v 0.02754360 -0.01377047 0.01187751
v 0.01616871 -0.02737122 0.01311550
v 0.01616871 -0.03025875 0.01351538
v 0.02612619 -0.02155462 0.01351538
v 0.02754360 -0.03583497 -0.00302577
v 0.02754360 -0.01382092 0.01113071
v 0.01616871 -0.02717239 0.01047702
v 0.01616871 -0.02727032 0.01206376
v 0.01616871 -0.04294250 -0.00346582
v 0.01844013 -0.04274960 -0.00441895
v 0.01911042 -0.04134590 -0.00296916
v 0.02275693 -0.04041999 -0.00435870
v 0.01754047 -0.02949903 0.01351538
v 0.02597365 -0.02174752 0.01351538
v 0.02754360 -0.03745531 -0.00493204
v 0.02394608 -0.02405339 0.01351538
v 0.02376236 -0.02425816 0.01351538
v 0.02191739 -0.02607732 0.01351538
v 0.02121481 -0.02669756 0.01351538
v 0.01960033 -0.02807456 0.01351538
v 0.02754360 -0.01398414 0.01055189
v 0.01616871 -0.02748696 0.00960240
v 0.01616871 -0.04408801 -0.00513837
v 0.01755049 -0.04357164 -0.00513837
v 0.01865279 -0.04310275 -0.00513837
v 0.02089303 -0.04198691 -0.00513837
v 0.02135511 -0.04174653 -0.00513837
v 0.02179492 -0.04150912 -0.00513837
v 0.02320676 -0.04068708 -0.00513837
v 0.02507288 -0.03876998 -0.00417793
v 0.02754360 -0.03761853 -0.00513837
v 0.02754360 -0.01456283 0.00960605
v 0.01616871 -0.02827635 0.00805766
v 0.01616871 -0.02812204 0.00833337
v 0.01616871 -0.04093933 -0.00513837
v 0.02563517 -0.03909048 -0.00513837
v 0.02754360 -0.03410186 -0.00513837
v 0.02754360 -0.01553622 0.00863100
v 0.02754360 -0.01696366 0.00753362
f 1 2 6
f 1 6 11
f 1 11 21
f 1 21 37
f 1 37 43
f 1 43 45
f 1 45 44
f 1 44 38
f 1 38 27
f 1 27 12
f 1 12 7
f 1 7 3
f 1 3 4
f 1 4 9
f 1 9 19
f 1 19 26
f 1 26 25
f 1 25 24
f 1 24 23
f 1 23 22
f 1 22 20
f 1 20 10
f 1 10 5
f 1 5 2
f 2 5 6
f 3 7 4
f 4 7 8
f 4 8 14
f 4 14 13
f 4 13 28
f 4 28 40
f 4 40 39
f 4 39 41
f 4 41 29
f 4 29 15
f 4 15 9
f 5 10 6
f 6 10 11
f 7 12 13
f 7 13 14
f 7 14 8
f 9 15 16
f 9 16 17
f 9 17 18
f 9 18 19
f 10 20 11
f 11 20 22
f 11 22 23
f 11 23 24
f 11 24 25
f 11 25 26
f 11 26 21
f 12 27 13
f 13 27 28
f 15 29 16
f 16 29 30
f 16 30 31
f 16 31 32
f 16 32 33
f 16 33 17
f 17 33 18
f 18 33 34
f 18 34 35
f 18 35 36
f 18 36 19
f 19 36 26
f 21 36 37
f 21 26 36
f 27 38 39
f 27 39 40
f 27 40 28
f 29 41 43
f 29 43 37
f 29 37 42
f 29 42 35
f 29 35 34
f 29 34 33
f 29 33 32
f 29 32 31
f 29 31 30
f 35 42 36
f 36 42 37
f 38 44 41
f 38 41 39
f 41 44 45
f 41 45 43

