# https://github.com/mikedh/trimesh
v 0.03256054 -0.00366687 0.01351538
v 0.03017936 -0.00366687 0.01351538
v 0.03251006 -0.00426122 0.01351538
v 0.04433697 -0.00366687 -0.00281067
v 0.03005207 -0.00366687 0.01224839
v 0.02754360 -0.01420134 0.01351538
v 0.03209967 -0.00705771 0.01351538
v 0.04346570 -0.00674148 -0.00210995
v 0.04521921 -0.00484033 -0.00420435
v 0.04533114 -0.00366687 -0.00426900
v 0.03033298 -0.00366687 0.01080558
v 0.02754360 -0.01456328 0.00960581
v 0.02754360 -0.01398417 0.01054959
v 0.02754360 -0.01382034 0.01112879
v 0.02754360 -0.01377081 0.01187864
v 0.02754360 -0.01953525 0.01351538
v 0.03205358 -0.00733583 0.01351538
v 0.04580298 -0.00703104 -0.00557735
v 0.04400119 -0.00973990 -0.00365102
v 0.04650088 -0.00443647 -0.00613586
v 0.04623314 -0.00366687 -0.00564975
v 0.03089920 -0.00366687 0.00910419
v 0.02754579 -0.03946883 -0.01290003
v 0.02754360 -0.01553481 0.00862842
v 0.02830953 -0.01826273 0.01351538
v 0.02754360 -0.01956191 0.00960581
v 0.02754579 -0.04258916 -0.01290003
v 0.02754579 -0.04192623 -0.01158908
v 0.02754579 -0.04161763 -0.01099179
v 0.02754579 -0.04135855 -0.01054446
v 0.02754579 -0.04054323 -0.00925421
v 0.02754579 -0.03954502 -0.00775968
v 0.02754579 -0.03892400 -0.00683400
v 0.02754579 -0.03807439 -0.00571957
v 0.02754579 -0.03745337 -0.00493093
v 0.02754579 -0.03583034 -0.00302528
v 0.02754579 -0.03434065 -0.00149714
v 0.02827661 -0.03546077 -0.00326575
v 0.02983261 -0.03230996 -0.00160315
v 0.03219623 -0.03335388 -0.00499299
v 0.03322332 -0.03166227 -0.00437242
v 0.03557378 -0.02923153 -0.00466978
v 0.03706833 -0.02698748 -0.00448619
v 0.03848387 -0.02544446 -0.00493869
v 0.03169366 -0.00917984 0.01351538
v 0.04619802 -0.00878742 -0.00672023
v 0.04765087 -0.00764063 -0.00889997
v 0.04415482 -0.01155724 -0.00450947
v 0.04810077 -0.00436027 -0.00891031
v 0.04778913 -0.00366687 -0.00827940
v 0.04683007 -0.00366687 -0.00661422
v 0.03136885 -0.00366687 0.00814490
v 0.02754360 -0.01956191 0.00594706
v 0.02754360 -0.01696354 0.00752951
v 0.03141933 -0.00366687 0.00806733
v 0.03189117 -0.00366687 0.00737695
v 0.04743580 -0.00366687 -0.01290003
v 0.02917422 -0.01662445 0.01351538
v 0.03859141 -0.02351663 -0.00363809
v 0.04120522 -0.02225173 -0.00617206
v 0.04108890 -0.01963811 -0.00420177
v 0.02783110 -0.04239867 -0.01290003
v 0.02802861 -0.04139284 -0.01115469
v 0.02858166 -0.04007842 -0.00970929
v 0.02848510 -0.03852015 -0.00726840
v 0.02861678 -0.03688569 -0.00525932
v 0.03283487 -0.03477880 -0.00741578
v 0.03547502 -0.03187181 -0.00737441
v 0.03633313 -0.03024878 -0.00668920
v 0.03841803 -0.02765041 -0.00686244
v 0.04078385 -0.02490725 -0.00778553
v 0.03092334 -0.01174774 0.01351538
v 0.04257686 -0.01450232 -0.00344675
v 0.04200626 -0.01287167 -0.00204530
v 0.04634067 -0.01082192 -0.00765366
v 0.04789009 -0.01063143 -0.01046431
v 0.04868455 -0.00642907 -0.01059359
v 0.04504803 -0.01325647 -0.00655216
v 0.04954484 -0.00468793 -0.01199245
v 0.04910372 -0.00366687 -0.01092973
v 0.04821709 -0.00366687 -0.00907062
v 0.04996402 -0.00366687 -0.01290003
v 0.04112402 -0.01956191 -0.00420435
v 0.04220159 -0.01724547 -0.00433622
v 0.03007841 -0.01438040 0.01351538
v 0.04262296 -0.02184406 -0.00801049
v 0.04293679 -0.01951619 -0.00680039
v 0.04221695 -0.01956191 -0.00578680
v 0.02882966 -0.04168240 -0.01290003
v 0.03096065 -0.04002889 -0.01283797
v 0.03205578 -0.03788389 -0.01073322
v 0.03089920 -0.03694665 -0.00788896
v 0.03424383 -0.03600940 -0.01100730
v 0.03568571 -0.03368535 -0.00989546
v 0.03893596 -0.03046595 -0.01082889
v 0.03865286 -0.02898007 -0.00863881
v 0.04052488 -0.02663315 -0.00904735
v 0.04304872 -0.02407288 -0.01084699
v 0.04356665 -0.01679209 -0.00608415
v 0.04634287 -0.01356127 -0.00893617
v 0.04832024 -0.01230018 -0.01225360
v 0.04894132 -0.01081049 -0.01290003
v 0.04906861 -0.01021995 -0.01290003
v 0.04914981 -0.00977038 -0.01290003
v 0.04728217 -0.01390416 -0.01094783
v 0.04951412 -0.00752252 -0.01290003
v 0.04973798 -0.00602903 -0.01290003
v 0.04504584 -0.01685305 -0.00858451
v 0.04992013 -0.00439837 -0.01290003
v 0.04964360 -0.00366687 -0.01209846
v 0.04985868 -0.00503463 -0.01290003
v 0.04388487 -0.02049535 -0.00913526
v 0.04298068 -0.01956191 -0.00690640
v 0.03089481 -0.04010890 -0.01290003
v 0.03098479 -0.04003651 -0.01290003
v 0.03124156 -0.03981172 -0.01290003
v 0.03322991 -0.03805534 -0.01290003
v 0.03703979 -0.03418444 -0.01290003
v 0.03711661 -0.03359010 -0.01206485
v 0.03362713 -0.03768577 -0.01290003
v 0.03844875 -0.03249665 -0.01290003
v 0.03957680 -0.03107935 -0.01290003
v 0.04020227 -0.03021830 -0.01290003
v 0.04089797 -0.02796663 -0.01113659
v 0.04292582 -0.02607309 -0.01290003
v 0.04304213 -0.02587117 -0.01290003
v 0.04320015 -0.02557018 -0.01290003
v 0.04468592 -0.02188978 -0.01193556
v 0.04639335 -0.01628918 -0.01073322
v 0.04838388 -0.01310026 -0.01290003
v 0.04807224 -0.01420134 -0.01290003
v 0.04418334 -0.01956191 -0.00899564
v 0.04533114 -0.01956191 -0.01114952
v 0.04549135 -0.01945905 -0.01137447
v 0.04545843 -0.01956191 -0.01139516
v 0.04124692 -0.02871719 -0.01290003
v 0.04507217 -0.02196598 -0.01290003
v 0.04543209 -0.02115066 -0.01290003
v 0.04615194 -0.01949334 -0.01290003
v 0.04688714 -0.01767219 -0.01290003
v 0.04712416 -0.01703974 -0.01290003
f 1 2 6
f 1 6 16
f 1 16 25
f 1 25 58
f 1 58 85
f 1 85 72
f 1 72 45
f 1 45 17
f 1 17 7
f 1 7 3
f 1 3 4
f 1 4 10
f 1 10 21
f 1 21 51
f 1 51 50
f 1 50 81
f 1 81 80
f 1 80 110
f 1 110 82
f 1 82 57
f 1 57 56
f 1 56 55
f 1 55 52
f 1 52 22
f 1 22 11
f 1 11 5
f 1 5 2
f 2 5 6
f 3 7 8
f 3 8 9
f 3 9 4
f 4 9 10
f 5 11 12
f 5 12 13
f 5 13 14
f 5 14 15
f 5 15 6
f 6 15 14
f 6 14 13
f 6 13 12
f 6 12 24
f 6 24 54
f 6 54 53
f 6 53 26
f 6 26 16
f 7 17 8
f 8 18 9
f 8 17 19
f 8 19 18
f 9 18 20
f 9 20 21
f 9 21 10
f 11 22 23
f 11 23 24
f 11 24 12
f 16 26 27
f 16 27 28
f 16 28 29
f 16 29 30
f 16 30 31
f 16 31 32
f 16 32 33
f 16 33 34
f 16 34 35
f 16 35 36
f 16 36 37
f 16 37 38
f 16 38 39
f 16 39 40
f 16 40 41
f 16 41 42
f 16 42 43
f 16 43 44
f 16 44 25
f 17 45 19
f 18 19 46
f 18 46 47
f 18 47 20
f 19 48 46
f 19 45 48
f 20 49 50
f 20 50 51
f 20 51 21
f 20 47 49
f 22 52 23
f 23 27 53
f 23 53 54
f 23 54 24
f 23 52 55
f 23 55 56
f 23 56 57
f 23 57 82
f 23 82 109
f 23 109 111
f 23 111 107
f 23 107 106
f 23 106 104
f 23 104 103
f 23 103 102
f 23 102 130
f 23 130 131
f 23 131 141
f 23 141 140
f 23 140 139
f 23 139 138
f 23 138 137
f 23 137 127
f 23 127 126
f 23 126 125
f 23 125 136
f 23 136 123
f 23 123 122
f 23 122 121
f 23 121 118
f 23 118 120
f 23 120 117
f 23 117 116
f 23 116 115
f 23 115 114
f 23 114 89
f 23 89 62
f 23 62 27
f 25 44 59
f 25 59 60
f 25 60 61
f 25 61 58
f 26 53 27
f 27 62 63
f 27 63 28
f 28 63 29
f 29 63 30
f 30 64 31
f 30 63 64
f 31 64 65
f 31 65 32
f 32 65 33
f 33 65 66
f 33 66 34
f 34 66 35
f 35 66 38
f 35 38 36
f 36 38 37
f 38 66 40
f 38 40 39
f 40 66 67
f 40 67 68
f 40 68 41
f 41 68 69
f 41 69 42
f 42 69 70
f 42 70 43
f 43 70 44
f 44 70 71
f 44 71 60
f 44 60 59
f 45 72 73
f 45 73 74
f 45 74 48
f 46 48 75
f 46 75 47
f 47 75 76
f 47 76 77
f 47 77 49
f 48 74 73
f 48 73 78
f 48 78 75
f 49 77 79
f 49 79 80
f 49 80 81
f 49 81 50
f 58 83 84
f 58 84 85
f 58 61 83
f 60 71 86
f 60 86 87
f 60 87 88
f 60 88 61
f 61 88 83
f 62 89 63
f 63 89 90
f 63 90 91
f 63 91 64
f 64 91 92
f 64 92 65
f 65 92 66
f 66 92 67
f 67 93 94
f 67 94 68
f 67 92 91
f 67 91 93
f 68 95 69
f 68 94 95
f 69 95 96
f 69 96 70
f 70 97 71
f 70 96 97
f 71 97 98
f 71 98 86
f 72 85 73
f 73 85 84
f 73 84 99
f 73 99 78
f 75 78 100
f 75 100 76
f 76 101 102
f 76 102 103
f 76 103 104
f 76 104 77
f 76 100 105
f 76 105 101
f 77 104 106
f 77 106 107
f 77 107 79
f 78 99 108
f 78 108 100
f 79 109 82
f 79 82 110
f 79 110 80
f 79 107 111
f 79 111 109
f 83 88 87
f 83 87 84
f 84 87 99
f 86 112 113
f 86 113 87
f 86 98 112
f 87 108 99
f 87 113 108
f 89 114 90
f 90 114 115
f 90 115 116
f 90 116 117
f 90 117 91
f 91 117 93
f 93 118 119
f 93 119 94
f 93 117 120
f 93 120 118
f 94 119 95
f 95 119 121
f 95 121 122
f 95 122 123
f 95 123 124
f 95 124 96
f 96 124 97
f 97 124 98
f 98 124 125
f 98 125 126
f 98 126 127
f 98 127 128
f 98 128 112
f 100 108 129
f 100 129 105
f 101 130 102
f 101 105 130
f 105 129 131
f 105 131 130
f 108 113 132
f 108 132 133
f 108 133 134
f 108 134 129
f 112 128 135
f 112 135 133
f 112 133 132
f 112 132 113
f 118 121 119
f 123 136 124
f 124 136 125
f 127 137 128
f 128 137 138
f 128 138 139
f 128 139 135
f 129 134 140
f 129 140 141
f 129 141 131
f 133 135 134
f 134 139 140
f 134 135 139

