# https://github.com/mikedh/trimesh
v 0.03096565 0.01970825 -0.06868941
v 0.03097345 0.02372353 -0.06618961
v 0.03096565 0.02372353 -0.06630215
v 0.03096565 0.02372353 -0.06868941
v 0.03703760 0.00003989 -0.06868941
v 0.04192558 0.02372353 -0.05126922
v 0.04842663 0.00004221 -0.05126922
v 0.03191360 0.02372353 -0.06868941
v 0.03973125 0.00003989 -0.06868941
v 0.04826864 0.00003989 -0.05172962
v 0.04508930 0.02372353 -0.05126922
v 0.04983489 0.00003989 -0.05126922
v 0.03415474 0.02372353 -0.06661761
v 0.03301174 0.02224446 -0.06868941
v 0.03972150 0.00034359 -0.06868941
v 0.04142234 0.00003989 -0.06681883
v 0.04444563 0.02372353 -0.05278172
v 0.04557888 0.02270580 -0.05126922
v 0.05088817 0.00003989 -0.05126922
v 0.03418595 0.02372353 -0.06658691
v 0.03526653 0.02145625 -0.06695353
v 0.03313267 0.02205204 -0.06868941
v 0.03440830 0.02372353 -0.06636695
v 0.03963567 0.00244396 -0.06868941
v 0.04135798 0.00254828 -0.06678984
v 0.04271163 0.00003989 -0.06525005
v 0.04448855 0.02325523 -0.05320802
v 0.04412770 0.02372353 -0.05341947
v 0.04667507 0.02036433 -0.05126922
v 0.05033228 0.00003989 -0.05259927
v 0.05089207 0.00019754 -0.05126922
v 0.03719753 0.02372353 -0.06334024
v 0.03790167 0.02140988 -0.06410587
v 0.03696543 0.01852361 -0.06682905
v 0.03467553 0.01944397 -0.06868941
v 0.03434199 0.02006295 -0.06868941
v 0.03956936 0.00337359 -0.06868941
v 0.04072991 0.00506826 -0.06728434
v 0.04307637 0.00441682 -0.06450829
v 0.04292034 0.00003989 -0.06498745
v 0.04278575 0.02371658 -0.05592438
v 0.04624791 0.02026001 -0.05232644
v 0.04493131 0.02030405 -0.05504110
v 0.04278185 0.02372353 -0.05592438
v 0.04746893 0.01842392 -0.05126922
v 0.04983489 0.00003989 -0.05377073
v 0.05007091 0.00109240 -0.05327282
v 0.05083941 0.00206608 -0.05126922
v 0.03838735 0.02372353 -0.06195392
v 0.03954400 0.02308832 -0.06104165
v 0.04057387 0.02025073 -0.06161289
v 0.03897640 0.01687530 -0.06545638
v 0.03708246 0.01542637 -0.06821537
v 0.03653436 0.01556779 -0.06868941
v 0.03942892 0.00485730 -0.06868941
v 0.03916170 0.00765547 -0.06846944
v 0.04009600 0.00839501 -0.06725194
v 0.04170322 0.00870798 -0.06531315
v 0.04283256 0.00826750 -0.06398821
v 0.04519268 0.00524213 -0.06143555
v 0.04484744 0.00115731 -0.06229326
v 0.04338456 0.00003989 -0.06435654
v 0.04286572 0.02189440 -0.05725443
v 0.04087620 0.02345229 -0.05905681
v 0.04756255 0.01782812 -0.05160685
v 0.04694229 0.01610332 -0.05425671
v 0.04481623 0.01733665 -0.05728683
v 0.04440857 0.01923301 -0.05667466
v 0.04088790 0.02372353 -0.05880444
v 0.04768543 0.01784667 -0.05126922
v 0.04893961 0.00003989 -0.05550320
v 0.04826279 0.00284039 -0.05670195
v 0.04920683 0.00432409 -0.05474610
v 0.05046686 0.00424063 -0.05184557
v 0.05073993 0.00370279 -0.05126922
v 0.03932749 0.02372353 -0.06083191
v 0.04066750 0.02372353 -0.05911649
v 0.04243856 0.01965957 -0.05948823
v 0.04238785 0.01766121 -0.06079951
v 0.04097567 0.01589003 -0.06353293
v 0.04033786 0.01433446 -0.06504031
v 0.03925142 0.01211586 -0.06712576
v 0.03682304 0.01485608 -0.06868941
v 0.03895300 0.00761606 -0.06868941
v 0.03889058 0.00790585 -0.06868941
v 0.04218109 0.01132300 -0.06393876
v 0.04415306 0.01010358 -0.06167256
v 0.04544039 0.00796380 -0.06044313
v 0.04645661 0.00621118 -0.05929554
v 0.04670238 0.00287516 -0.05945583
v 0.04748648 0.00003989 -0.05823832
v 0.04525900 0.00003989 -0.06165381
v 0.04079233 0.02372353 -0.05894256
v 0.04833886 0.01585294 -0.05126922
v 0.04668482 0.01461266 -0.05566008
v 0.04870165 0.01471002 -0.05126922
v 0.04794875 0.01206486 -0.05464379
v 0.04456852 0.01492331 -0.05902782
v 0.04773809 0.00003989 -0.05779497
v 0.04766788 0.00550642 -0.05739425
v 0.04865094 0.00874739 -0.05464890
v 0.04941359 0.00661456 -0.05372639
v 0.05047661 0.00633405 -0.05126922
v 0.05051563 0.00597703 -0.05126922
v 0.04348208 0.01347206 -0.06131960
v 0.03756423 0.01266529 -0.06868941
v 0.03805771 0.01105872 -0.06868941
v 0.04568226 0.01129519 -0.05900566
v 0.04758400 0.00935014 -0.05639501
v 0.04877382 0.01446197 -0.05126922
v 0.04961254 0.01122332 -0.05126922
v 0.04981149 0.01024964 -0.05126922
v 0.04959108 0.00901399 -0.05234179
v 0.05043565 0.00658210 -0.05126922
f 1 2 3
f 1 3 4
f 1 4 8
f 1 8 14
f 1 14 22
f 1 22 36
f 1 36 35
f 1 35 54
f 1 54 83
f 1 83 106
f 1 106 107
f 1 107 85
f 1 85 84
f 1 84 55
f 1 55 37
f 1 37 24
f 1 24 15
f 1 15 9
f 1 9 5
f 1 5 2
f 2 6 11
f 2 11 17
f 2 17 28
f 2 28 44
f 2 44 69
f 2 69 93
f 2 93 77
f 2 77 76
f 2 76 49
f 2 49 32
f 2 32 23
f 2 23 20
f 2 20 13
f 2 13 8
f 2 8 4
f 2 4 3
f 2 5 7
f 2 7 6
f 5 9 16
f 5 16 26
f 5 26 40
f 5 40 62
f 5 62 92
f 5 92 91
f 5 91 99
f 5 99 71
f 5 71 46
f 5 46 30
f 5 30 19
f 5 19 12
f 5 12 10
f 5 10 7
f 6 7 12
f 6 12 19
f 6 19 31
f 6 31 48
f 6 48 75
f 6 75 104
f 6 104 103
f 6 103 114
f 6 114 112
f 6 112 111
f 6 111 110
f 6 110 96
f 6 96 94
f 6 94 70
f 6 70 45
f 6 45 29
f 6 29 18
f 6 18 11
f 7 10 12
f 8 13 14
f 9 15 16
f 11 18 17
f 13 20 14
f 14 21 22
f 14 20 23
f 14 23 21
f 15 24 25
f 15 25 16
f 16 25 26
f 17 18 27
f 17 27 28
f 18 29 27
f 19 30 31
f 21 23 32
f 21 32 33
f 21 33 34
f 21 34 35
f 21 35 36
f 21 36 22
f 24 37 38
f 24 38 25
f 25 38 39
f 25 39 26
f 26 39 40
f 27 41 28
f 27 29 42
f 27 42 43
f 27 43 41
f 28 41 44
f 29 45 42
f 30 46 47
f 30 47 31
f 31 47 48
f 32 49 33
f 33 49 50
f 33 50 51
f 33 51 52
f 33 52 34
f 34 52 53
f 34 53 35
f 35 53 54
f 37 55 38
f 38 55 56
f 38 56 57
f 38 57 58
f 38 58 39
f 39 58 59
f 39 59 60
f 39 60 61
f 39 61 62
f 39 62 40
f 41 43 63
f 41 63 64
f 41 64 44
f 42 45 65
f 42 65 43
f 43 65 66
f 43 66 67
f 43 67 68
f 43 68 63
f 44 64 69
f 45 70 65
f 46 71 47
f 47 71 72
f 47 72 73
f 47 73 74
f 47 74 75
f 47 75 48
f 49 76 50
f 50 76 77
f 50 77 64
f 50 64 51
f 51 78 79
f 51 79 80
f 51 80 52
f 51 64 78
f 52 80 81
f 52 81 53
f 53 81 82
f 53 82 83
f 53 83 54
f 55 84 56
f 56 84 85
f 56 85 82
f 56 82 57
f 57 82 58
f 58 82 86
f 58 86 59
f 59 86 87
f 59 87 88
f 59 88 60
f 60 88 89
f 60 89 90
f 60 90 61
f 61 90 91
f 61 91 92
f 61 92 62
f 63 68 78
f 63 78 64
f 64 77 93
f 64 93 69
f 65 70 94
f 65 94 66
f 66 95 67
f 66 94 96
f 66 96 97
f 66 97 95
f 67 79 78
f 67 78 68
f 67 95 98
f 67 98 79
f 71 99 72
f 72 99 90
f 72 90 100
f 72 100 73
f 73 100 101
f 73 101 102
f 73 102 74
f 74 102 103
f 74 103 104
f 74 104 75
f 79 98 105
f 79 105 80
f 80 105 81
f 81 105 86
f 81 86 82
f 82 106 83
f 82 85 107
f 82 107 106
f 86 105 87
f 87 105 108
f 87 108 88
f 88 108 89
f 89 100 90
f 89 108 109
f 89 109 100
f 90 99 91
f 95 97 108
f 95 108 98
f 96 110 97
f 97 111 101
f 97 101 109
f 97 109 108
f 97 110 111
f 98 108 105
f 100 109 101
f 101 111 112
f 101 112 113
f 101 113 102
f 102 113 103
f 103 113 114
f 112 114 113

