# https://github.com/mikedh/trimesh
v -0.02287063 0.04233636 -0.05076808
v -0.02287063 0.04681057 -0.03241736
v -0.02287063 0.04544173 -0.05076808
v 0.00043908 0.04869864 -0.05076808
v 0.00043908 0.05259153 -0.03241736
v -0.02287063 0.04962900 -0.03241736
v -0.02287063 0.04550632 -0.05064233
v -0.02274742 0.04576344 -0.05027226
v -0.02212680 0.04583052 -0.05076808
v 0.00043908 0.05147732 -0.05076808
v 0.00043908 0.05502489 -0.03241736
v -0.02287063 0.04965137 -0.03275150
v -0.02262421 0.04975570 -0.03241736
v -0.02287063 0.04570507 -0.05024711
v -0.02055244 0.04761424 -0.04859438
v -0.02287063 0.04578829 -0.05005669
v -0.02002309 0.04684784 -0.05076808
v 0.00043908 0.05238533 -0.04862312
v -0.00110106 0.05149968 -0.05076808
v 0.00043908 0.05502489 -0.03277126
v -0.00101435 0.05501992 -0.03241736
v -0.02287063 0.04965882 -0.03287546
v -0.02267897 0.04975818 -0.03287546
v -0.02156779 0.05022896 -0.03241736
v -0.02059351 0.04874584 -0.04555659
v -0.01865179 0.04916941 -0.04685901
v -0.01737405 0.04858063 -0.04955907
v -0.01816351 0.04767387 -0.05076808
v -0.02287063 0.04670623 -0.04784166
v -0.02287063 0.04770740 -0.04522065
v 0.00011052 0.05256420 -0.04817401
v 0.00043908 0.05259525 -0.04805544
v -0.00142734 0.05148974 -0.05076808
v -0.00129044 0.05203132 -0.04941536
v 0.00043908 0.05502116 -0.03478688
v -0.00067895 0.05501495 -0.03540306
v -0.00372044 0.05496899 -0.03241736
v -0.02287063 0.04965261 -0.03314133
v -0.01894841 0.05131708 -0.03241736
v -0.01800151 0.05165122 -0.03508329
v -0.02194655 0.04998426 -0.03578391
v -0.02287063 0.04954205 -0.03559168
v -0.02160429 0.04930729 -0.04187027
v -0.01861072 0.05014574 -0.04367211
v -0.01486876 0.05119162 -0.04486674
v -0.01464515 0.05047242 -0.04740334
v -0.01706374 0.04815458 -0.05076808
v -0.01423673 0.04926878 -0.05076808
v -0.01462005 0.04912469 -0.05076808
v -0.02287063 0.04810862 -0.04383020
v -0.00292641 0.05250458 -0.04789376
v -0.00497080 0.05278778 -0.04670092
v -0.00268227 0.05355916 -0.04445716
v 0.00038888 0.05389578 -0.04351761
v 0.00043908 0.05386845 -0.04361283
v -0.00377063 0.05135062 -0.05076808
v -0.00429314 0.05140031 -0.05056149
v 0.00043908 0.05495160 -0.03606056
v -0.00223278 0.05483981 -0.03762167
v -0.00469472 0.05482366 -0.03542821
v -0.00397598 0.05496278 -0.03257186
v 0.00043908 0.05476280 -0.03877499
v 0.00043908 0.05475907 -0.03882529
v -0.00400336 0.05495284 -0.03241736
v -0.01680819 0.05215553 -0.03241736
v -0.01557380 0.05263251 -0.03288803
v -0.01718695 0.05179531 -0.03789114
v -0.02089697 0.05022027 -0.03862229
v -0.02287063 0.04948367 -0.03628511
v -0.01772087 0.05120280 -0.04057683
v -0.02287063 0.04850113 -0.04238945
v -0.02287063 0.04878435 -0.04129002
v -0.01552588 0.05175059 -0.04190800
v -0.01180673 0.05228720 -0.04398469
v -0.01211020 0.05142639 -0.04676380
v -0.01170862 0.05051714 -0.04942973
v -0.01392186 0.04935822 -0.05076808
v -0.00720685 0.05205492 -0.04789017
v -0.00789592 0.05261637 -0.04600390
v -0.00609111 0.05326974 -0.04438709
v -0.00457835 0.05410694 -0.04160979
v -0.00191790 0.05450071 -0.04014209
v 0.00043908 0.05391193 -0.04343677
v 0.00043908 0.05389329 -0.04352121
v -0.00431596 0.05130093 -0.05076808
v -0.00459660 0.05126615 -0.05076808
v -0.00720913 0.05099536 -0.05063874
v -0.00458976 0.05467088 -0.03795940
v -0.00867170 0.05421501 -0.03640727
v -0.00751488 0.05450319 -0.03409345
v -0.00422925 0.05492925 -0.03241736
v 0.00043908 0.05443238 -0.04067564
v -0.01558292 0.05260395 -0.03241736
v -0.01352484 0.05311323 -0.03602822
v -0.01525892 0.05270083 -0.03241736
v -0.01431431 0.05297535 -0.03241736
v -0.01029854 0.05405105 -0.03337666
v -0.01489157 0.05240272 -0.03947740
v -0.02287063 0.04910855 -0.03941992
v -0.02287063 0.04929487 -0.03821450
v -0.01126597 0.05299274 -0.04163674
v -0.00953645 0.05281760 -0.04401164
v -0.00962772 0.05215926 -0.04647996
v -0.00971671 0.05121150 -0.04893031
v -0.01147361 0.05003643 -0.05076808
v -0.01081876 0.05019915 -0.05076808
v -0.00735060 0.05368337 -0.04194752
v -0.00691252 0.05425848 -0.03879296
v -0.00721370 0.05093450 -0.05076808
v -0.00775446 0.05082892 -0.05076808
v -0.00955927 0.05372188 -0.03962830
v -0.01219918 0.05323868 -0.03862049
v -0.00811953 0.05441127 -0.03241736
v -0.00701519 0.05456281 -0.03241736
v -0.01175425 0.05366474 -0.03241736
v -0.01015479 0.05406347 -0.03241736
v -0.00943378 0.05419638 -0.03241736
f 1 2 6
f 1 6 12
f 1 12 22
f 1 22 38
f 1 38 42
f 1 42 69
f 1 69 100
f 1 100 99
f 1 99 72
f 1 72 71
f 1 71 50
f 1 50 30
f 1 30 29
f 1 29 16
f 1 16 14
f 1 14 7
f 1 7 3
f 1 3 9
f 1 9 17
f 1 17 28
f 1 28 47
f 1 47 49
f 1 49 48
f 1 48 77
f 1 77 105
f 1 105 106
f 1 106 110
f 1 110 109
f 1 109 86
f 1 86 85
f 1 85 56
f 1 56 33
f 1 33 19
f 1 19 10
f 1 10 4
f 1 4 5
f 1 5 2
f 2 5 11
f 2 11 21
f 2 21 37
f 2 37 64
f 2 64 91
f 2 91 114
f 2 114 113
f 2 113 117
f 2 117 116
f 2 116 115
f 2 115 96
f 2 96 95
f 2 95 93
f 2 93 65
f 2 65 39
f 2 39 24
f 2 24 13
f 2 13 6
f 3 7 8
f 3 8 9
f 4 10 18
f 4 18 32
f 4 32 55
f 4 55 84
f 4 84 83
f 4 83 92
f 4 92 63
f 4 63 62
f 4 62 58
f 4 58 35
f 4 35 20
f 4 20 11
f 4 11 5
f 6 13 12
f 7 14 8
f 8 15 9
f 8 14 16
f 8 16 15
f 9 15 17
f 10 19 18
f 11 20 21
f 12 13 23
f 12 23 22
f 13 24 23
f 15 25 26
f 15 26 27
f 15 27 28
f 15 28 17
f 15 16 29
f 15 29 30
f 15 30 25
f 18 19 31
f 18 31 32
f 19 33 34
f 19 34 31
f 20 35 21
f 21 35 36
f 21 36 37
f 22 23 38
f 23 24 39
f 23 39 40
f 23 40 41
f 23 41 42
f 23 42 38
f 25 30 43
f 25 43 44
f 25 44 26
f 26 44 45
f 26 45 46
f 26 46 27
f 27 47 28
f 27 46 48
f 27 48 49
f 27 49 47
f 30 50 43
f 31 34 51
f 31 51 52
f 31 52 53
f 31 53 54
f 31 54 55
f 31 55 32
f 33 56 34
f 34 56 57
f 34 57 51
f 35 58 36
f 36 59 60
f 36 60 61
f 36 61 37
f 36 58 62
f 36 62 63
f 36 63 59
f 37 61 64
f 39 65 40
f 40 65 66
f 40 66 67
f 40 67 41
f 41 68 69
f 41 69 42
f 41 67 68
f 43 68 70
f 43 70 44
f 43 50 71
f 43 71 72
f 43 72 68
f 44 70 73
f 44 73 45
f 45 74 75
f 45 75 46
f 45 73 74
f 46 75 76
f 46 76 48
f 48 76 77
f 51 57 52
f 52 57 78
f 52 78 79
f 52 79 80
f 52 80 81
f 52 81 53
f 53 81 54
f 54 81 82
f 54 82 83
f 54 83 84
f 54 84 55
f 56 85 57
f 57 85 86
f 57 86 87
f 57 87 78
f 59 63 82
f 59 82 88
f 59 88 60
f 60 88 89
f 60 89 90
f 60 90 61
f 61 91 64
f 61 90 91
f 63 92 82
f 65 93 66
f 66 94 67
f 66 93 95
f 66 95 96
f 66 96 97
f 66 97 94
f 67 70 68
f 67 94 98
f 67 98 70
f 68 72 99
f 68 99 100
f 68 100 69
f 70 98 73
f 73 98 101
f 73 101 74
f 74 101 102
f 74 102 103
f 74 103 75
f 75 103 104
f 75 104 76
f 76 105 77
f 76 104 106
f 76 106 105
f 78 87 104
f 78 104 103
f 78 103 79
f 79 107 80
f 79 103 102
f 79 102 107
f 80 107 81
f 81 107 108
f 81 108 88
f 81 88 82
f 82 92 83
f 86 109 87
f 87 109 110
f 87 110 104
f 88 108 89
f 89 111 112
f 89 112 97
f 89 97 90
f 89 108 111
f 90 97 113
f 90 113 114
f 90 114 91
f 94 112 98
f 94 97 112
f 96 115 97
f 97 116 117
f 97 117 113
f 97 115 116
f 98 112 101
f 101 112 111
f 101 111 107
f 101 107 102
f 104 110 106
f 107 111 108

