# https://github.com/mikedh/trimesh
v -0.03432117 0.01812032 -0.06739798
v -0.03370661 0.01937614 -0.06739798
v -0.03083864 0.01812032 -0.06739798
v -0.03534545 0.01812032 -0.06644655
v -0.03369331 0.01980697 -0.06721331
v -0.03341130 0.01993006 -0.06739798
v -0.01868836 0.03149823 -0.06739798
v -0.04300490 0.01812032 -0.05230652
v -0.03592277 0.01812032 -0.06590582
v -0.03565140 0.01962364 -0.06547148
v -0.03237905 0.02228324 -0.06714978
v -0.03220079 0.02209205 -0.06739798
v -0.03492244 0.03149823 -0.05230652
v -0.02383367 0.03149823 -0.06739798
v -0.04586754 0.01812032 -0.05230652
v -0.03742060 0.01812032 -0.06431912
v -0.03823470 0.01855377 -0.06324949
v -0.03767867 0.02138623 -0.06230544
v -0.03527628 0.02322215 -0.06384340
v -0.03292444 0.02484463 -0.06515827
v -0.03057260 0.02443607 -0.06739798
v -0.03177778 0.02272192 -0.06739798
v -0.03850873 0.03149823 -0.05230652
v -0.02482336 0.03071514 -0.06739798
v -0.02486061 0.03149823 -0.06674055
v -0.04468098 0.02090695 -0.05230652
v -0.04583295 0.01812032 -0.05238187
v -0.03868166 0.01812032 -0.06294367
v -0.04006775 0.01812032 -0.06127571
v -0.03962878 0.02120552 -0.06014255
v -0.03730886 0.02500308 -0.06046315
v -0.03495703 0.02656925 -0.06188292
v -0.03196933 0.02852565 -0.06335882
v -0.03030655 0.02678139 -0.06616437
v -0.02992345 0.02531867 -0.06739798
v -0.03756161 0.03149823 -0.05384152
v -0.03777977 0.03118395 -0.05391687
v -0.03863111 0.03135156 -0.05230652
v -0.02523839 0.03034586 -0.06739798
v -0.02623606 0.03149823 -0.06575956
v -0.04344653 0.02369750 -0.05230652
v -0.04333745 0.02381143 -0.05243948
v -0.04427925 0.02098028 -0.05311317
v -0.04580103 0.01812032 -0.05244835
v -0.04166935 0.01812032 -0.05928420
v -0.04206841 0.02008589 -0.05739610
v -0.04060517 0.02299299 -0.05752611
v -0.03642825 0.02831613 -0.05881734
v -0.03991877 0.02516939 -0.05680515
v -0.03298031 0.03039431 -0.06079261
v -0.02905082 0.03059729 -0.06430286
v -0.02777912 0.02902064 -0.06657360
v -0.02779509 0.02785518 -0.06739798
v -0.02887257 0.02665568 -0.06739798
v -0.03727960 0.03149823 -0.05425371
v -0.03674219 0.03022277 -0.05649490
v -0.03927760 0.02970420 -0.05335546
v -0.03925100 0.03055669 -0.05230652
v -0.02615093 0.02949337 -0.06739798
v -0.02667237 0.03149823 -0.06544045
v -0.02639037 0.03149823 -0.06564728
v -0.04340130 0.02379965 -0.05230652
v -0.04328158 0.02404190 -0.05230652
v -0.04273885 0.02502272 -0.05230652
v -0.04170393 0.02688484 -0.05230652
v -0.04119046 0.02599307 -0.05407199
v -0.04275747 0.02176206 -0.05513423
v -0.04424466 0.01878424 -0.05485943
v -0.04546581 0.01812032 -0.05307772
v -0.04170659 0.01812032 -0.05922954
v -0.03875349 0.02811447 -0.05583746
v -0.03367734 0.03142882 -0.05908180
v -0.03358955 0.03149823 -0.05910396
v -0.03220345 0.03149823 -0.06050452
v -0.03129890 0.03149823 -0.06137174
v -0.02702622 0.03149823 -0.06516418
v -0.02930090 0.03149823 -0.06324949
v -0.02728960 0.02835934 -0.06739798
v -0.03591479 0.03149823 -0.05616545
v -0.03373853 0.03149823 -0.05893110
v -0.04134477 0.02745317 -0.05230652
v -0.04428191 0.01812032 -0.05521105
v -0.03364542 0.03149823 -0.05904043
f 1 2 6
f 1 6 12
f 1 12 22
f 1 22 21
f 1 21 35
f 1 35 54
f 1 54 53
f 1 53 78
f 1 78 59
f 1 59 39
f 1 39 24
f 1 24 14
f 1 14 7
f 1 7 3
f 1 3 8
f 1 8 15
f 1 15 27
f 1 27 44
f 1 44 69
f 1 69 82
f 1 82 70
f 1 70 45
f 1 45 29
f 1 29 28
f 1 28 16
f 1 16 9
f 1 9 4
f 1 4 2
f 2 4 5
f 2 5 6
f 3 7 8
f 4 9 10
f 4 10 5
f 5 11 12
f 5 12 6
f 5 10 11
f 7 13 8
f 7 14 25
f 7 25 40
f 7 40 61
f 7 61 60
f 7 60 76
f 7 76 77
f 7 77 75
f 7 75 74
f 7 74 73
f 7 73 83
f 7 83 80
f 7 80 79
f 7 79 55
f 7 55 36
f 7 36 23
f 7 23 13
f 8 13 23
f 8 23 38
f 8 38 58
f 8 58 81
f 8 81 65
f 8 65 64
f 8 64 63
f 8 63 62
f 8 62 41
f 8 41 26
f 8 26 15
f 9 16 17
f 9 17 10
f 10 17 18
f 10 18 19
f 10 19 11
f 11 20 21
f 11 21 22
f 11 22 12
f 11 19 20
f 14 24 25
f 15 26 27
f 16 28 17
f 17 28 29
f 17 29 30
f 17 30 18
f 18 31 19
f 18 30 31
f 19 31 32
f 19 32 20
f 20 33 34
f 20 34 35
f 20 35 21
f 20 32 33
f 23 36 37
f 23 37 38
f 24 39 40
f 24 40 25
f 26 41 42
f 26 42 43
f 26 43 27
f 27 43 44
f 29 45 30
f 30 45 46
f 30 46 47
f 30 47 31
f 31 48 32
f 31 47 49
f 31 49 48
f 32 48 50
f 32 50 33
f 33 50 51
f 33 51 34
f 34 51 52
f 34 52 53
f 34 53 54
f 34 54 35
f 36 55 37
f 37 55 56
f 37 56 57
f 37 57 38
f 38 57 58
f 39 59 60
f 39 60 61
f 39 61 40
f 41 62 42
f 42 62 63
f 42 63 64
f 42 64 65
f 42 65 66
f 42 66 67
f 42 67 43
f 43 68 69
f 43 69 44
f 43 67 68
f 45 70 46
f 46 70 68
f 46 68 67
f 46 67 47
f 47 67 49
f 48 49 71
f 48 71 56
f 48 56 72
f 48 72 50
f 49 67 66
f 49 66 71
f 50 72 73
f 50 73 74
f 50 74 75
f 50 75 51
f 51 76 52
f 51 75 77
f 51 77 76
f 52 76 60
f 52 60 59
f 52 59 78
f 52 78 53
f 55 79 56
f 56 71 57
f 56 79 80
f 56 80 72
f 57 66 81
f 57 81 58
f 57 71 66
f 65 81 66
f 68 82 69
f 68 70 82
f 72 80 83
f 72 83 73

