# https://github.com/mikedh/trimesh
v 0.03017932 -0.00362301 0.01352127
v 0.02675010 0.01201853 0.01401055
v 0.02673973 0.01201853 0.01352127
v 0.03256357 -0.00362301 0.01352127
v 0.03033749 -0.00362301 0.01518366
v 0.02697699 0.01201853 0.01699931
v 0.02956738 0.01201853 0.01352127
v 0.03258042 -0.00342244 0.01352127
v 0.03809959 -0.00362301 0.05555842
v 0.03109335 -0.00362301 0.02104917
v 0.03203978 0.01201853 0.05786926
v 0.03074589 0.00922583 0.01352127
v 0.03477020 0.01201853 0.05971439
v 0.03533158 0.01116724 0.06086391
v 0.03679531 0.00959636 0.06763136
v 0.03583591 0.00933607 0.05825243
v 0.03266340 -0.00213786 0.01352127
v 0.03862855 -0.00362301 0.05963186
v 0.03363058 -0.00362301 0.03938847
v 0.03243651 0.01201853 0.06076369
v 0.03120873 0.00800556 0.01352127
v 0.03693793 0.00839445 0.06440680
v 0.03727761 0.00738700 0.06398236
v 0.03524082 0.01201853 0.06389983
v 0.03630265 0.01127289 0.06999525
v 0.03728668 0.00948306 0.07189342
v 0.03789344 0.00738853 0.06954133
v 0.03264006 -0.00043223 0.01352127
v 0.03828498 -0.00151165 0.05762756
v 0.03936107 -0.00362301 0.06545021
v 0.03263747 -0.00030209 0.01352127
v 0.03743319 -0.00362301 0.06638162
v 0.03789214 -0.00362301 0.06939396
v 0.03306272 0.01201853 0.06486661
v 0.03209424 0.00469995 0.01352127
v 0.03732169 0.00645610 0.06204291
v 0.03796475 0.00438149 0.06278567
v 0.03827850 0.00559717 0.06823854
v 0.03586703 0.01201853 0.06948238
v 0.03596556 0.01201853 0.07051989
v 0.03605891 0.01201853 0.07166942
v 0.03847298 0.00615142 0.07159868
v 0.03614188 0.01201853 0.07317853
v 0.03670715 0.01076610 0.07316085
v 0.03799587 0.00752939 0.07270104
v 0.03871671 0.00037311 0.06312169
v 0.03986930 -0.00156677 0.07129214
v 0.03906028 -0.00233231 0.06359918
v 0.03248189 0.00219051 0.01352127
v 0.03971890 -0.00362301 0.06850971
v 0.03825776 -0.00362301 0.07121550
v 0.03417511 0.01201853 0.07189342
v 0.03341666 0.01201853 0.06715386
v 0.03228093 0.00361135 0.01352127
v 0.03846001 0.00316887 0.06451880
v 0.03905510 0.00403699 0.07210565
v 0.03904213 0.00270036 0.06896362
v 0.03599408 0.01201853 0.07334360
v 0.03623134 0.01099883 0.07359119
v 0.03729965 0.00923349 0.07311959
v 0.03859873 0.00543947 0.07267746
v 0.03773527 0.00255491 0.05762167
v 0.03956721 0.00144793 0.07168710
v 0.03943108 0.00064718 0.06962976
v 0.03982003 -0.00121921 0.07193470
v 0.03997042 -0.00362301 0.07173426
v 0.03998339 -0.00362301 0.07142773
v 0.03984207 -0.00362301 0.06960618
v 0.03974224 -0.00261709 0.06929964
v 0.03831221 -0.00362301 0.07141594
v 0.03449793 0.01201853 0.07316675
v 0.03928977 0.00221348 0.07254188
v 0.03548067 0.01201853 0.07373267
v 0.03702739 0.00851541 0.07343202
v 0.03799846 0.00648979 0.07312548
v 0.03960222 -0.00116562 0.07232966
v 0.03987189 -0.00362301 0.07207028
v 0.03856373 -0.00362301 0.07194059
v 0.03475593 0.01201853 0.07350276
v 0.03861429 0.00373537 0.07294274
v 0.03524341 0.01201853 0.07373856
v 0.03935329 -0.00362301 0.07229429
v 0.03919382 -0.00079510 0.07251830
v 0.03983948 -0.00362301 0.07212923
v 0.03863892 -0.00362301 0.07203491
v 0.03481947 0.01201853 0.07357350
v 0.03877895 -0.00362301 0.07219997
v 0.03920160 -0.00362301 0.07227071
f 1 2 3
f 1 3 7
f 1 7 12
f 1 12 21
f 1 21 35
f 1 35 54
f 1 54 49
f 1 49 31
f 1 31 28
f 1 28 17
f 1 17 8
f 1 8 4
f 1 4 9
f 1 9 18
f 1 18 30
f 1 30 50
f 1 50 68
f 1 68 67
f 1 67 66
f 1 66 77
f 1 77 84
f 1 84 82
f 1 82 88
f 1 88 87
f 1 87 85
f 1 85 78
f 1 78 70
f 1 70 51
f 1 51 33
f 1 33 32
f 1 32 19
f 1 19 10
f 1 10 5
f 1 5 6
f 1 6 2
f 2 6 11
f 2 11 20
f 2 20 34
f 2 34 53
f 2 53 52
f 2 52 71
f 2 71 79
f 2 79 86
f 2 86 81
f 2 81 73
f 2 73 58
f 2 58 43
f 2 43 41
f 2 41 40
f 2 40 39
f 2 39 24
f 2 24 13
f 2 13 7
f 2 7 3
f 4 8 9
f 5 10 11
f 5 11 6
f 7 13 14
f 7 14 15
f 7 15 16
f 7 16 12
f 8 17 9
f 9 17 18
f 10 19 20
f 10 20 11
f 12 16 22
f 12 22 23
f 12 23 21
f 13 24 14
f 14 24 25
f 14 25 15
f 15 25 26
f 15 26 27
f 15 27 22
f 15 22 16
f 17 28 18
f 18 29 30
f 18 28 31
f 18 31 29
f 19 32 20
f 20 32 33
f 20 33 34
f 21 23 36
f 21 36 37
f 21 37 35
f 22 27 23
f 23 27 38
f 23 38 36
f 24 39 25
f 25 39 40
f 25 40 41
f 25 41 26
f 26 42 27
f 26 41 43
f 26 43 44
f 26 44 45
f 26 45 42
f 27 42 38
f 29 46 47
f 29 47 48
f 29 48 30
f 29 31 49
f 29 49 46
f 30 48 50
f 33 51 52
f 33 52 53
f 33 53 34
f 35 37 55
f 35 55 54
f 36 38 37
f 37 38 55
f 38 42 56
f 38 56 57
f 38 57 55
f 42 45 56
f 43 58 59
f 43 59 44
f 44 59 60
f 44 60 45
f 45 60 61
f 45 61 56
f 46 62 55
f 46 55 63
f 46 63 64
f 46 64 47
f 46 49 54
f 46 54 62
f 47 63 65
f 47 65 66
f 47 66 67
f 47 67 68
f 47 68 69
f 47 69 48
f 47 64 63
f 48 69 50
f 50 69 68
f 51 70 71
f 51 71 52
f 54 55 62
f 55 57 63
f 56 61 72
f 56 72 63
f 56 63 57
f 58 73 59
f 59 73 74
f 59 74 75
f 59 75 60
f 60 75 61
f 61 75 72
f 63 72 65
f 65 72 76
f 65 76 77
f 65 77 66
f 70 78 71
f 71 78 79
f 72 75 80
f 72 80 76
f 73 81 74
f 74 80 75
f 74 81 82
f 74 82 80
f 76 83 84
f 76 84 77
f 76 80 83
f 78 85 79
f 79 85 87
f 79 87 86
f 80 82 83
f 81 86 87
f 81 87 88
f 81 88 82
f 82 84 83

