# https://github.com/mikedh/trimesh
v -0.02968823 -0.04589276 -0.03241337
v -0.02968823 -0.04589999 -0.03201563
v -0.02968823 -0.04297772 -0.03241337
v -0.02877112 -0.04654155 -0.03241337
v -0.02968823 -0.04583132 -0.02996764
v -0.02836713 -0.04681987 -0.03241337
v -0.02837008 -0.04670059 -0.02888431
v -0.02968823 -0.03660547 -0.00996669
v 0.00043750 -0.05254513 -0.03241337
v -0.02968823 -0.04570481 -0.02752190
v -0.02801621 -0.04702769 -0.03241337
v -0.02542415 -0.04851865 -0.03113666
v -0.02425934 -0.04903190 -0.02828661
v -0.02687205 -0.04734576 -0.02570683
v -0.02941398 -0.04586023 -0.02689344
v -0.02968823 -0.03995786 -0.00996669
v 0.00043750 -0.04728793 -0.00996669
v 0.00043750 -0.05505536 -0.03241337
v -0.02968823 -0.04567409 -0.02707802
v -0.02493464 -0.04876985 -0.03241337
v -0.02228360 -0.05014876 -0.03241337
v -0.02403523 -0.04859817 -0.02374233
v -0.02211846 -0.05023189 -0.03241337
v -0.02182062 -0.05026262 -0.02935456
v -0.02132816 -0.05022828 -0.02620784
v -0.02649164 -0.04690300 -0.02201077
v -0.02938449 -0.04553132 -0.02433784
v -0.02968823 -0.04564879 -0.02679016
v -0.02968823 -0.04017653 -0.01031388
v -0.02891857 -0.04054159 -0.00996669
v 0.00043750 -0.04991563 -0.00996669
v 0.00043750 -0.05501379 -0.03060489
v 0.00036673 -0.05499210 -0.02959407
v -0.00226662 -0.05505716 -0.03188159
v -0.00138785 -0.05506439 -0.03241337
v -0.02504964 -0.04722468 -0.01995618
v -0.02114238 -0.04986322 -0.02330065
v -0.02222462 -0.04853130 -0.01950570
v -0.02206538 -0.05025719 -0.03241337
v -0.02111289 -0.05066924 -0.03241337
v -0.01938780 -0.05140839 -0.03225955
v -0.01892482 -0.05137224 -0.02834813
v -0.01694318 -0.05171381 -0.02482567
v -0.02834354 -0.04533614 -0.02021987
v -0.02968823 -0.04517168 -0.02371157
v -0.02968823 -0.04529457 -0.02430707
v -0.02968823 -0.04532891 -0.02448287
v -0.02968823 -0.04115604 -0.01196854
v -0.02805160 -0.04118496 -0.00996669
v -0.00239342 -0.04989213 -0.00996669
v 0.00043750 -0.05066743 -0.01167409
v 0.00043750 -0.05499030 -0.02963802
v -0.00078333 -0.05469391 -0.02582110
v -0.00288294 -0.05484211 -0.02875686
v 0.00043750 -0.05498488 -0.02955672
v 0.00043750 -0.05461078 -0.02551566
v -0.00487932 -0.05487102 -0.03113447
v -0.00575219 -0.05479150 -0.03241337
v -0.00262343 -0.05502102 -0.03241337
v -0.02491989 -0.04655782 -0.01737200
v -0.02896575 -0.04423012 -0.01762471
v -0.01873610 -0.05053370 -0.02192067
v -0.01870071 -0.04991201 -0.01913434
v -0.01996283 -0.04869214 -0.01677431
v -0.02259913 -0.04734576 -0.01630626
v -0.01937895 -0.05140478 -0.03241337
v -0.01775412 -0.05199032 -0.03241337
v -0.01626789 -0.05251621 -0.03241337
v -0.01674855 -0.05222344 -0.02961165
v -0.01571055 -0.05246381 -0.02804709
v -0.01571055 -0.05239874 -0.02722305
v -0.01571055 -0.05229393 -0.02618587
v -0.01571055 -0.05187646 -0.02338196
v -0.02968823 -0.04395362 -0.01859158
v -0.02968823 -0.04441084 -0.02040005
v -0.02968823 -0.04143797 -0.01246516
v -0.02698411 -0.04348916 -0.01269809
v -0.02634715 -0.04238134 -0.00996669
v -0.00332527 -0.04984334 -0.00996669
v -0.00521550 -0.05005117 -0.01068085
v -0.00165915 -0.05143369 -0.01347817
v 0.00043750 -0.05149333 -0.01365616
v 0.00043750 -0.05424211 -0.02325451
v 0.00043750 -0.05423488 -0.02321056
v -0.00249958 -0.05423126 -0.02360829
v -0.00399171 -0.05454211 -0.02602546
v -0.00557526 -0.05461621 -0.02825364
v -0.00799629 -0.05441560 -0.03052578
v -0.00669288 -0.05466138 -0.03241337
v -0.02448641 -0.04551867 -0.01396380
v -0.02665088 -0.04518795 -0.01620957
v -0.02968823 -0.04320904 -0.01638536
v -0.02968823 -0.04367711 -0.01757856
v -0.02837892 -0.04344217 -0.01466258
v -0.01571055 -0.05169031 -0.02240191
v -0.01571055 -0.05156562 -0.02185035
v -0.01537143 -0.05049032 -0.01727532
v -0.01571055 -0.05010358 -0.01649743
v -0.01665714 -0.04901563 -0.01431319
v -0.02028721 -0.04748311 -0.01375285
v -0.02278490 -0.04605180 -0.01317053
v -0.01591697 -0.05262465 -0.03241337
v -0.01571055 -0.05268609 -0.03232108
v -0.01405328 -0.05316320 -0.03159812
v -0.01499692 -0.05262645 -0.02697255
v -0.01375544 -0.05277826 -0.02545413
v -0.01497038 -0.05197224 -0.02252057
v -0.02968823 -0.04166387 -0.01293321
v -0.02513516 -0.04437650 -0.01220586
v -0.02582225 -0.04290182 -0.01024137
v -0.02566891 -0.04282591 -0.00996669
v -0.00533050 -0.04968250 -0.00996669
v -0.00429545 -0.05153851 -0.01408246
v -0.00872466 -0.04933190 -0.01019302
v -0.00975972 -0.05047948 -0.01324305
v -0.00671942 -0.05115899 -0.01381218
v -0.00237278 -0.05271682 -0.01728411
v 0.00043750 -0.05259212 -0.01669080
v 0.00043750 -0.05257766 -0.01664905
v 0.00043750 -0.05422765 -0.02317979
v -0.00199237 -0.05346501 -0.01992761
v -0.00461982 -0.05363127 -0.02125925
v -0.00562244 -0.05416078 -0.02446968
v -0.00589079 -0.05438488 -0.02621444
v -0.00947662 -0.05394392 -0.02705825
v -0.00848875 -0.05437946 -0.03241337
v -0.01086849 -0.05389874 -0.03038295
v -0.02968823 -0.04265784 -0.01503614
v -0.01322170 -0.05202284 -0.02063298
v -0.01109556 -0.05177345 -0.01777853
v -0.01267026 -0.05027707 -0.01446701
v -0.01571055 -0.04931744 -0.01435055
v -0.01634751 -0.04786986 -0.01139721
v -0.01571055 -0.04903913 -0.01360782
v -0.01868891 -0.04657589 -0.01044133
v -0.02126918 -0.04580782 -0.01116648
v -0.02296478 -0.04435482 -0.00996669
v -0.02351623 -0.04407651 -0.00996669
v -0.01571055 -0.05268248 -0.03241337
v -0.01401200 -0.05315236 -0.03241337
v -0.01289732 -0.05343790 -0.03241337
v -0.01072695 -0.05394573 -0.03241337
v -0.01285014 -0.05326802 -0.02804049
v -0.00962112 -0.05361500 -0.02470261
v -0.01290912 -0.05271682 -0.02374453
v -0.02453949 -0.04348916 -0.00996669
v -0.00824399 -0.04928491 -0.00996669
v -0.00635081 -0.05228128 -0.01691934
v -0.00509754 -0.05298067 -0.01868826
v -0.00874825 -0.04920359 -0.00996669
v -0.00893698 -0.04916925 -0.00996669
v -0.01147596 -0.04862166 -0.00996669
v -0.01233998 -0.04843190 -0.00996669
v -0.01214536 -0.04941684 -0.01204765
v -0.00894288 -0.05197044 -0.01710172
v 0.00043750 -0.05325175 -0.01904864
v -0.00644518 -0.05354813 -0.02190968
v -0.00937341 -0.05422042 -0.03241337
v -0.00972728 -0.05291380 -0.02113839
v -0.01409751 -0.04907708 -0.01240583
v -0.01571055 -0.04770360 -0.01061932
v -0.01828492 -0.04647107 -0.00996669
v -0.01913420 -0.04614397 -0.00996669
v -0.02047299 -0.04555843 -0.00996669
v -0.01517385 -0.04756444 -0.00996669
v -0.01729410 -0.04682348 -0.00996669
v -0.01239601 -0.04841745 -0.00996669
v -0.01428624 -0.04784998 -0.00996669
f 1 2 5
f 1 5 10
f 1 10 19
f 1 19 28
f 1 28 47
f 1 47 46
f 1 46 45
f 1 45 75
f 1 75 74
f 1 74 93
f 1 93 92
f 1 92 128
f 1 128 108
f 1 108 76
f 1 76 48
f 1 48 29
f 1 29 16
f 1 16 8
f 1 8 3
f 1 3 9
f 1 9 18
f 1 18 35
f 1 35 59
f 1 59 58
f 1 58 89
f 1 89 126
f 1 126 158
f 1 158 142
f 1 142 141
f 1 141 140
f 1 140 139
f 1 139 102
f 1 102 68
f 1 68 67
f 1 67 66
f 1 66 40
f 1 40 39
f 1 39 23
f 1 23 21
f 1 21 20
f 1 20 11
f 1 11 6
f 1 6 4
f 1 4 2
f 2 4 6
f 2 6 7
f 2 7 5
f 3 8 9
f 5 7 10
f 6 11 7
f 7 11 12
f 7 12 13
f 7 13 14
f 7 14 15
f 7 15 10
f 8 16 30
f 8 30 49
f 8 49 78
f 8 78 111
f 8 111 146
f 8 146 138
f 8 138 137
f 8 137 164
f 8 164 163
f 8 163 162
f 8 162 166
f 8 166 165
f 8 165 168
f 8 168 167
f 8 167 153
f 8 153 152
f 8 152 151
f 8 151 150
f 8 150 147
f 8 147 112
f 8 112 79
f 8 79 50
f 8 50 31
f 8 31 17
f 8 17 9
f 9 17 31
f 9 31 51
f 9 51 82
f 9 82 119
f 9 119 118
f 9 118 156
f 9 156 120
f 9 120 84
f 9 84 83
f 9 83 56
f 9 56 55
f 9 55 52
f 9 52 32
f 9 32 18
f 10 15 19
f 11 20 12
f 12 20 21
f 12 21 13
f 13 22 14
f 13 21 23
f 13 23 24
f 13 24 25
f 13 25 22
f 14 22 26
f 14 26 27
f 14 27 15
f 15 27 28
f 15 28 19
f 16 29 30
f 18 32 33
f 18 33 34
f 18 34 35
f 22 36 26
f 22 25 37
f 22 37 38
f 22 38 36
f 23 39 24
f 24 39 40
f 24 40 41
f 24 41 42
f 24 42 25
f 25 42 43
f 25 43 37
f 26 44 27
f 26 36 44
f 27 45 46
f 27 46 47
f 27 47 28
f 27 44 45
f 29 48 49
f 29 49 30
f 31 50 51
f 32 52 33
f 33 53 54
f 33 54 34
f 33 52 55
f 33 55 56
f 33 56 53
f 34 54 57
f 34 57 58
f 34 58 59
f 34 59 35
f 36 38 60
f 36 60 61
f 36 61 44
f 37 43 62
f 37 62 63
f 37 63 38
f 38 63 64
f 38 64 65
f 38 65 60
f 40 66 41
f 41 66 67
f 41 67 68
f 41 68 69
f 41 69 42
f 42 69 70
f 42 70 71
f 42 71 72
f 42 72 43
f 43 72 73
f 43 73 62
f 44 61 74
f 44 74 75
f 44 75 45
f 48 76 49
f 49 76 77
f 49 77 78
f 50 79 80
f 50 80 81
f 50 81 51
f 51 81 82
f 53 56 83
f 53 83 84
f 53 84 85
f 53 85 86
f 53 86 54
f 54 86 87
f 54 87 57
f 57 87 88
f 57 88 89
f 57 89 58
f 60 90 91
f 60 91 61
f 60 65 90
f 61 92 93
f 61 93 74
f 61 91 94
f 61 94 92
f 62 73 95
f 62 95 96
f 62 96 63
f 63 96 97
f 63 97 64
f 64 97 98
f 64 98 99
f 64 99 100
f 64 100 65
f 65 100 101
f 65 101 90
f 68 102 103
f 68 103 69
f 69 103 104
f 69 104 70
f 70 104 105
f 70 105 71
f 71 105 72
f 72 105 106
f 72 106 73
f 73 106 107
f 73 107 95
f 76 108 94
f 76 94 77
f 77 94 91
f 77 91 90
f 77 90 109
f 77 109 110
f 77 110 78
f 78 110 111
f 79 112 80
f 80 113 81
f 80 112 114
f 80 114 115
f 80 115 116
f 80 116 113
f 81 113 117
f 81 117 118
f 81 118 119
f 81 119 82
f 84 120 121
f 84 121 85
f 85 121 122
f 85 122 123
f 85 123 86
f 86 123 124
f 86 124 87
f 87 124 125
f 87 125 88
f 88 126 89
f 88 125 127
f 88 127 126
f 90 101 109
f 92 94 128
f 94 108 128
f 95 107 96
f 96 107 97
f 97 107 129
f 97 129 130
f 97 130 131
f 97 131 98
f 98 131 132
f 98 132 99
f 99 133 100
f 99 132 134
f 99 134 133
f 100 135 136
f 100 136 101
f 100 133 135
f 101 137 138
f 101 138 109
f 101 136 137
f 102 139 103
f 103 139 140
f 103 140 104
f 104 140 141
f 104 141 142
f 104 142 127
f 104 127 143
f 104 143 105
f 105 143 106
f 106 143 125
f 106 125 144
f 106 144 145
f 106 145 107
f 107 145 129
f 109 138 146
f 109 146 110
f 110 146 111
f 112 147 114
f 113 116 148
f 113 148 149
f 113 149 117
f 114 147 150
f 114 150 151
f 114 151 152
f 114 152 153
f 114 153 154
f 114 154 115
f 115 154 131
f 115 131 130
f 115 130 155
f 115 155 116
f 116 155 148
f 117 121 118
f 117 149 121
f 118 121 156
f 120 156 121
f 121 149 122
f 122 149 157
f 122 157 123
f 123 157 144
f 123 144 124
f 124 144 125
f 125 143 127
f 126 127 158
f 127 142 158
f 129 145 159
f 129 159 130
f 130 159 155
f 131 154 160
f 131 160 132
f 132 160 134
f 133 134 160
f 133 160 161
f 133 161 135
f 135 162 163
f 135 163 164
f 135 164 136
f 135 161 165
f 135 165 166
f 135 166 162
f 136 164 137
f 144 159 145
f 144 157 159
f 148 155 149
f 149 155 159
f 149 159 157
f 153 167 160
f 153 160 154
f 160 167 168
f 160 168 165
f 160 165 161

