# https://github.com/mikedh/trimesh
v 0.03096565 0.02372534 -0.06868941
v 0.03096565 0.02489685 -0.06868941
v 0.03191361 0.02372534 -0.06868941
v 0.03096565 0.02372534 -0.06630055
v 0.03169728 0.02401550 -0.06868941
v 0.03096565 0.02636395 -0.06762234
v 0.03415504 0.02372534 -0.06661746
v 0.03329723 0.02565851 -0.06609195
v 0.03097317 0.02372534 -0.06618822
v 0.03096565 0.02374711 -0.06618020
v 0.03096565 0.02747380 -0.06676388
v 0.03186854 0.02804686 -0.06552031
v 0.03432480 0.02394477 -0.06631058
v 0.03418659 0.02372534 -0.06658737
v 0.03349853 0.02913494 -0.06310737
v 0.03595630 0.02703857 -0.06229705
v 0.04331456 0.02372534 -0.04819854
v 0.03096565 0.03908912 -0.04819854
v 0.03096565 0.03043883 -0.06439106
v 0.03440743 0.02372534 -0.06636674
v 0.03695833 0.02450695 -0.06307929
v 0.03719719 0.02372534 -0.06334005
v 0.03208337 0.03169920 -0.06223286
v 0.03531331 0.02987485 -0.06052195
v 0.03827284 0.02683183 -0.05980188
v 0.04631316 0.02372534 -0.04819854
v 0.03096565 0.04225001 -0.04819854
v 0.03096565 0.03201112 -0.06293688
v 0.03838702 0.02372534 -0.06195406
v 0.03096565 0.03379377 -0.06108958
v 0.03096565 0.03475673 -0.06008268
v 0.03152151 0.03476942 -0.05954714
v 0.03381702 0.03244636 -0.05971964
v 0.03698838 0.02983495 -0.05861847
v 0.04079070 0.02372534 -0.05894140
v 0.04066601 0.02372534 -0.05911390
v 0.03932746 0.02372534 -0.06083083
v 0.03956933 0.02761163 -0.05731272
v 0.04615542 0.02403726 -0.04819854
v 0.04579636 0.02372534 -0.04955844
v 0.04445331 0.02602846 -0.05002779
v 0.03157108 0.04179846 -0.04819854
v 0.03137578 0.04164250 -0.04896674
v 0.03096565 0.04214483 -0.04846530
v 0.03096565 0.03563264 -0.05905774
v 0.03245594 0.03603885 -0.05693163
v 0.03502938 0.03349636 -0.05701787
v 0.03801745 0.03109169 -0.05589866
v 0.04088685 0.02372534 -0.05880100
v 0.04100703 0.02662872 -0.05608720
v 0.04009213 0.02955930 -0.05450866
v 0.04548088 0.02537017 -0.04819854
v 0.04551394 0.02372534 -0.05027851
v 0.04334461 0.02831163 -0.04939597
v 0.04369465 0.02844220 -0.04819854
v 0.04429857 0.02532302 -0.05132552
v 0.04184982 0.02849298 -0.05253901
v 0.03225012 0.04125079 -0.04819854
v 0.03290813 0.03964042 -0.05065158
v 0.03096565 0.04083006 -0.05138770
v 0.03096565 0.04140312 -0.05016619
v 0.03096565 0.04193991 -0.04897477
v 0.03321460 0.04045104 -0.04819854
v 0.03096565 0.03697279 -0.05736287
v 0.03096565 0.03785052 -0.05614136
v 0.03271283 0.03781425 -0.05416167
v 0.03624474 0.03447383 -0.05409548
v 0.03797089 0.03354351 -0.05259517
v 0.03973308 0.03157045 -0.05242869
v 0.04278125 0.02372534 -0.05592474
v 0.04250032 0.02583260 -0.05437227
v 0.04444580 0.02372534 -0.05278170
v 0.04156138 0.03102096 -0.04928165
v 0.04268961 0.02993469 -0.04819854
v 0.03560626 0.03797021 -0.04893265
v 0.03489717 0.03700906 -0.05216192
v 0.03096565 0.04041115 -0.05212582
v 0.03461625 0.03918706 -0.04819854
v 0.03096565 0.03902747 -0.05449663
v 0.03758329 0.03574507 -0.04941002
v 0.04020931 0.03332045 -0.04843521
v 0.04412731 0.02372534 -0.05341954
v 0.04199554 0.03094661 -0.04819854
v 0.03542899 0.03844534 -0.04819854
v 0.03590372 0.03798653 -0.04819854
v 0.03747362 0.03638523 -0.04819854
v 0.03842157 0.03538781 -0.04819854
v 0.04017776 0.03346372 -0.04819854
v 0.04032649 0.03326786 -0.04819854
f 1 2 5
f 1 5 3
f 1 3 7
f 1 7 14
f 1 14 20
f 1 20 22
f 1 22 29
f 1 29 37
f 1 37 36
f 1 36 35
f 1 35 49
f 1 49 70
f 1 70 82
f 1 82 72
f 1 72 53
f 1 53 40
f 1 40 26
f 1 26 17
f 1 17 9
f 1 9 4
f 1 4 10
f 1 10 18
f 1 18 27
f 1 27 44
f 1 44 62
f 1 62 61
f 1 61 60
f 1 60 77
f 1 77 79
f 1 79 65
f 1 65 64
f 1 64 45
f 1 45 31
f 1 31 30
f 1 30 28
f 1 28 19
f 1 19 11
f 1 11 6
f 1 6 2
f 2 6 5
f 3 5 8
f 3 8 7
f 4 9 10
f 5 6 8
f 6 11 12
f 6 12 8
f 7 13 14
f 7 8 13
f 8 12 15
f 8 15 16
f 8 16 13
f 9 17 18
f 9 18 10
f 11 19 12
f 12 19 15
f 13 20 14
f 13 16 21
f 13 21 22
f 13 22 20
f 15 23 24
f 15 24 16
f 15 19 23
f 16 24 25
f 16 25 21
f 17 26 39
f 17 39 52
f 17 52 55
f 17 55 74
f 17 74 83
f 17 83 89
f 17 89 88
f 17 88 87
f 17 87 86
f 17 86 85
f 17 85 84
f 17 84 78
f 17 78 63
f 17 63 58
f 17 58 42
f 17 42 27
f 17 27 18
f 19 28 23
f 21 25 29
f 21 29 22
f 23 28 30
f 23 30 31
f 23 31 32
f 23 32 33
f 23 33 24
f 24 33 34
f 24 34 25
f 25 35 36
f 25 36 37
f 25 37 29
f 25 34 38
f 25 38 35
f 26 40 41
f 26 41 39
f 27 42 43
f 27 43 44
f 31 45 32
f 32 45 46
f 32 46 33
f 33 46 47
f 33 47 34
f 34 47 48
f 34 48 38
f 35 38 50
f 35 50 49
f 38 48 51
f 38 51 50
f 39 41 52
f 40 53 41
f 41 54 55
f 41 55 52
f 41 53 56
f 41 56 57
f 41 57 54
f 42 58 43
f 43 59 60
f 43 60 61
f 43 61 62
f 43 62 44
f 43 58 63
f 43 63 59
f 45 64 46
f 46 64 65
f 46 65 66
f 46 66 67
f 46 67 47
f 47 67 48
f 48 67 68
f 48 68 69
f 48 69 51
f 49 50 70
f 50 51 71
f 50 71 70
f 51 69 57
f 51 57 71
f 53 72 56
f 54 57 73
f 54 73 74
f 54 74 55
f 56 72 71
f 56 71 57
f 57 69 73
f 59 63 75
f 59 75 76
f 59 76 66
f 59 66 60
f 60 66 77
f 63 78 75
f 65 79 66
f 66 76 67
f 66 79 77
f 67 76 68
f 68 76 80
f 68 80 81
f 68 81 69
f 69 81 73
f 70 71 82
f 71 72 82
f 73 81 83
f 73 83 74
f 75 80 76
f 75 78 84
f 75 84 85
f 75 85 86
f 75 86 80
f 80 86 87
f 80 87 81
f 81 87 88
f 81 88 89
f 81 89 83

