# https://github.com/mikedh/trimesh
v 0.03155318 -0.04448977 -0.03475879
v 0.03155318 -0.04448223 -0.03500247
v 0.03166729 -0.04440317 -0.03501276
v 0.03296751 -0.04340732 -0.03277848
v 0.03155318 -0.04448412 -0.03277848
v 0.03155318 -0.04446906 -0.03523585
v 0.03454257 -0.04190697 -0.03797464
v 0.03359432 -0.04289716 -0.03524958
v 0.03362807 -0.04289152 -0.03277848
v 0.03155318 -0.04138551 -0.03277848
v 0.03155318 -0.04411891 -0.03878118
v 0.03769429 -0.03922627 -0.03571977
v 0.03523849 -0.04156623 -0.03481714
v 0.03280518 -0.04303647 -0.03993779
v 0.03573833 -0.04041602 -0.04073747
v 0.03814591 -0.03852598 -0.03844140
v 0.03422274 -0.04240960 -0.03277848
v 0.04525134 -0.02525995 -0.03277848
v 0.03155318 -0.02525995 -0.06467275
v 0.03155318 -0.04392501 -0.04018490
v 0.03956829 -0.03733247 -0.03512945
v 0.03705623 -0.03994916 -0.03277848
v 0.03701605 -0.03998869 -0.03277848
v 0.03696623 -0.04003575 -0.03277848
v 0.03155318 -0.04366899 -0.04137583
v 0.03278590 -0.04255078 -0.04224414
v 0.03658693 -0.03884224 -0.04363756
v 0.03867950 -0.03723646 -0.04188034
v 0.03384665 -0.04080381 -0.04543254
v 0.04097298 -0.03514123 -0.04006821
v 0.04108066 -0.03540290 -0.03780990
v 0.04797073 -0.02525995 -0.03277848
v 0.03155318 -0.02525995 -0.06783712
v 0.04168336 -0.03497745 -0.03470388
v 0.04040242 -0.03649664 -0.03277848
v 0.03155318 -0.04336403 -0.04270404
v 0.03155318 -0.04296870 -0.04421415
v 0.03253678 -0.04203121 -0.04494862
v 0.03603405 -0.03830950 -0.04663720
v 0.03875504 -0.03609943 -0.04519916
v 0.04156122 -0.03372182 -0.04262854
v 0.03155318 -0.04201615 -0.04710396
v 0.03320859 -0.03993598 -0.04890923
v 0.04384023 -0.03137057 -0.04033591
v 0.04308324 -0.03284834 -0.03810163
v 0.04736000 -0.02648923 -0.03277848
v 0.04797073 -0.02525995 -0.03368455
v 0.03226195 -0.02525995 -0.06721248
v 0.03155318 -0.02633298 -0.06703401
v 0.04304305 -0.03321355 -0.03482057
v 0.04177658 -0.03488333 -0.03277848
v 0.04070458 -0.03615591 -0.03277848
v 0.03155318 -0.04214981 -0.04674359
v 0.03647603 -0.03646840 -0.04973979
v 0.03892380 -0.03470073 -0.04788647
v 0.04136674 -0.03311189 -0.04513395
v 0.04281483 -0.03183743 -0.04326347
v 0.03155318 -0.04181472 -0.04760504
v 0.03155318 -0.04088476 -0.04976381
v 0.03374379 -0.03865964 -0.05057036
v 0.04592637 -0.02801030 -0.04042858
v 0.04467918 -0.03060439 -0.03820116
v 0.04315556 -0.03085853 -0.04462257
v 0.04461490 -0.02942782 -0.04253587
v 0.04381451 -0.03206145 -0.03638216
v 0.04724106 -0.02672454 -0.03277848
v 0.04722981 -0.02675090 -0.03282310
v 0.04793377 -0.02525995 -0.03466612
v 0.03258821 -0.02525995 -0.06691389
v 0.03252392 -0.02543314 -0.06684868
v 0.03193087 -0.02889696 -0.06467617
v 0.03155318 -0.02861082 -0.06524590
v 0.04478847 -0.03076817 -0.03505738
v 0.04411184 -0.03176590 -0.03277848
v 0.03488490 -0.03651923 -0.05245113
v 0.03624138 -0.03494922 -0.05279777
v 0.03886112 -0.03362017 -0.05013448
v 0.04142781 -0.03196545 -0.04722751
v 0.03155318 -0.03945782 -0.05246143
v 0.03155318 -0.03896084 -0.05331945
v 0.03387719 -0.03663406 -0.05385485
v 0.04695016 -0.02658900 -0.03900770
v 0.04589744 -0.02853928 -0.03838992
v 0.04626228 -0.02649299 -0.04275209
v 0.04730214 -0.02525995 -0.04087818
v 0.04736642 -0.02525995 -0.04056243
v 0.04655157 -0.02780134 -0.03546236
v 0.04315877 -0.02942218 -0.04736479
v 0.04465025 -0.02820608 -0.04525751
v 0.04722017 -0.02676408 -0.03277848
v 0.04592958 -0.02899485 -0.03321093
v 0.04750464 -0.02593201 -0.03677685
v 0.04784376 -0.02525995 -0.03657093
v 0.03317323 -0.02525995 -0.06635103
v 0.03155318 -0.02951630 -0.06444966
v 0.03155318 -0.02903814 -0.06488553
v 0.03414398 -0.02772227 -0.06344406
v 0.03212855 -0.03116350 -0.06241444
v 0.03155318 -0.03147788 -0.06264782
v 0.04525778 -0.03004152 -0.03277848
v 0.04447507 -0.03125762 -0.03277848
v 0.03926613 -0.03197862 -0.05192945
v 0.03468400 -0.03335474 -0.05716680
v 0.03718320 -0.03269962 -0.05449321
v 0.04134424 -0.03069663 -0.04970890
v 0.03155318 -0.03816077 -0.05462020
v 0.03200158 -0.03725529 -0.05546449
v 0.03269750 -0.03487392 -0.05775712
v 0.04761072 -0.02525995 -0.03888414
v 0.04779715 -0.02525995 -0.03712006
v 0.04740339 -0.02525995 -0.04036337
v 0.04692766 -0.02525995 -0.04251871
v 0.04600994 -0.02553292 -0.04568994
v 0.04625103 -0.02525995 -0.04526094
v 0.04329538 -0.02791241 -0.04942747
v 0.04471776 -0.02631792 -0.04821595
v 0.04602281 -0.02878966 -0.03277848
v 0.03483347 -0.02525995 -0.06471393
v 0.03613370 -0.02525995 -0.06326903
v 0.03669461 -0.02548962 -0.06245562
v 0.03589101 -0.02871435 -0.06063320
v 0.03321663 -0.03264315 -0.05981293
v 0.03155318 -0.03393078 -0.06015270
v 0.03937703 -0.03001893 -0.05436623
v 0.03660461 -0.03093571 -0.05741391
v 0.03780197 -0.02955395 -0.05730065
v 0.04200641 -0.02790488 -0.05218686
v 0.03155318 -0.03754332 -0.05559148
v 0.03155318 -0.03707269 -0.05624014
v 0.03155318 -0.03573799 -0.05799393
v 0.03155318 -0.03461037 -0.05934960
v 0.04615781 -0.02525995 -0.04563160
v 0.04554547 -0.02530325 -0.04739568
v 0.04557761 -0.02525995 -0.04736136
v 0.04406845 -0.02525995 -0.05121558
v 0.04506652 -0.02525995 -0.04875822
v 0.04416166 -0.02525995 -0.05098907
v 0.03683765 -0.02525995 -0.06245562
v 0.03722499 -0.02525995 -0.06197857
v 0.03889165 -0.02525995 -0.05990903
v 0.03786465 -0.02690903 -0.05986098
v 0.04221534 -0.02634993 -0.05370384
v 0.04001991 -0.02739660 -0.05621269
v 0.04392058 -0.02525995 -0.05152447
v 0.04554868 -0.02525995 -0.04744717
v 0.03967275 -0.02525995 -0.05875585
v 0.04114334 -0.02525995 -0.05655589
v 0.04167050 -0.02525995 -0.05569787
v 0.04255607 -0.02525995 -0.05419463
f 1 2 3
f 1 3 4
f 1 4 5
f 1 5 10
f 1 10 19
f 1 19 33
f 1 33 49
f 1 49 72
f 1 72 96
f 1 96 95
f 1 95 99
f 1 99 123
f 1 123 131
f 1 131 130
f 1 130 129
f 1 129 128
f 1 128 106
f 1 106 80
f 1 80 79
f 1 79 59
f 1 59 58
f 1 58 42
f 1 42 53
f 1 53 37
f 1 37 36
f 1 36 25
f 1 25 20
f 1 20 11
f 1 11 6
f 1 6 2
f 2 6 3
f 3 6 7
f 3 7 8
f 3 8 4
f 4 8 9
f 4 9 17
f 4 17 24
f 4 24 23
f 4 23 22
f 4 22 35
f 4 35 52
f 4 52 51
f 4 51 74
f 4 74 101
f 4 101 100
f 4 100 117
f 4 117 90
f 4 90 66
f 4 66 46
f 4 46 32
f 4 32 18
f 4 18 10
f 4 10 5
f 6 11 7
f 7 12 13
f 7 13 8
f 7 11 14
f 7 14 15
f 7 15 16
f 7 16 12
f 8 13 17
f 8 17 9
f 10 18 19
f 11 20 14
f 12 16 21
f 12 21 22
f 12 22 23
f 12 23 24
f 12 24 13
f 13 24 17
f 14 20 25
f 14 25 26
f 14 26 15
f 15 27 28
f 15 28 16
f 15 26 29
f 15 29 27
f 16 30 31
f 16 31 21
f 16 28 30
f 18 32 47
f 18 47 68
f 18 68 93
f 18 93 110
f 18 110 109
f 18 109 111
f 18 111 86
f 18 86 85
f 18 85 112
f 18 112 114
f 18 114 132
f 18 132 134
f 18 134 145
f 18 145 136
f 18 136 137
f 18 137 135
f 18 135 144
f 18 144 149
f 18 149 148
f 18 148 147
f 18 147 146
f 18 146 140
f 18 140 139
f 18 139 138
f 18 138 119
f 18 119 118
f 18 118 94
f 18 94 69
f 18 69 48
f 18 48 33
f 18 33 19
f 21 34 35
f 21 35 22
f 21 31 34
f 25 36 26
f 26 36 37
f 26 37 38
f 26 38 29
f 27 29 39
f 27 39 40
f 27 40 28
f 28 40 41
f 28 41 30
f 29 42 43
f 29 43 39
f 29 38 42
f 30 44 45
f 30 45 31
f 30 41 44
f 31 45 34
f 32 46 47
f 33 48 49
f 34 45 50
f 34 50 51
f 34 51 52
f 34 52 35
f 37 53 38
f 38 53 42
f 39 43 54
f 39 54 40
f 40 54 55
f 40 55 56
f 40 56 41
f 41 57 44
f 41 56 57
f 42 58 43
f 43 58 59
f 43 59 60
f 43 60 54
f 44 61 62
f 44 62 45
f 44 57 63
f 44 63 64
f 44 64 61
f 45 62 65
f 45 65 50
f 46 66 67
f 46 67 47
f 47 67 68
f 48 69 70
f 48 70 49
f 49 70 71
f 49 71 72
f 50 73 74
f 50 74 51
f 50 65 73
f 54 60 75
f 54 75 76
f 54 76 77
f 54 77 55
f 55 78 56
f 55 77 78
f 56 78 63
f 56 63 57
f 59 79 60
f 60 79 80
f 60 80 81
f 60 81 75
f 61 82 83
f 61 83 62
f 61 64 84
f 61 84 85
f 61 85 86
f 61 86 82
f 62 83 87
f 62 87 73
f 62 73 65
f 63 78 88
f 63 88 89
f 63 89 64
f 64 89 84
f 66 90 67
f 67 91 87
f 67 87 92
f 67 92 68
f 67 90 91
f 68 92 93
f 69 94 70
f 70 94 71
f 71 95 96
f 71 96 72
f 71 94 97
f 71 97 98
f 71 98 99
f 71 99 95
f 73 87 91
f 73 91 100
f 73 100 101
f 73 101 74
f 75 81 76
f 76 102 77
f 76 81 103
f 76 103 104
f 76 104 102
f 77 105 78
f 77 102 105
f 78 105 88
f 80 106 81
f 81 106 107
f 81 107 108
f 81 108 103
f 82 109 110
f 82 110 92
f 82 92 83
f 82 86 111
f 82 111 109
f 83 92 87
f 84 112 85
f 84 89 113
f 84 113 114
f 84 114 112
f 88 105 115
f 88 115 116
f 88 116 89
f 89 116 113
f 90 117 91
f 91 117 100
f 92 110 93
f 94 118 97
f 97 119 120
f 97 120 121
f 97 121 98
f 97 118 119
f 98 121 122
f 98 122 123
f 98 123 99
f 102 104 124
f 102 124 105
f 103 108 122
f 103 122 125
f 103 125 104
f 104 125 126
f 104 126 124
f 105 124 127
f 105 127 115
f 106 128 107
f 107 128 129
f 107 129 130
f 107 130 108
f 108 130 131
f 108 131 122
f 113 132 114
f 113 116 133
f 113 133 134
f 113 134 132
f 115 127 135
f 115 135 116
f 116 136 133
f 116 135 137
f 116 137 136
f 119 138 120
f 120 138 139
f 120 139 140
f 120 140 141
f 120 141 121
f 121 141 126
f 121 126 125
f 121 125 122
f 122 131 123
f 124 142 127
f 124 126 143
f 124 143 142
f 126 141 143
f 127 142 144
f 127 144 135
f 133 136 145
f 133 145 134
f 140 146 141
f 141 146 143
f 142 143 147
f 142 147 148
f 142 148 149
f 142 149 144
f 143 146 147

