# https://github.com/mikedh/trimesh
v -0.01573716 -0.04832526 -0.05127314
v -0.01573716 -0.04766494 -0.05271300
v -0.01410624 -0.04886668 -0.05127314
v -0.01573716 -0.04547355 -0.05127314
v -0.01292501 -0.04910606 -0.05160341
v -0.01573716 -0.04761675 -0.05281150
v -0.01569441 -0.04762478 -0.05283033
v -0.01308968 -0.04920246 -0.05127314
v 0.00043750 -0.04842165 -0.05127314
v -0.01573716 -0.03469490 -0.06607146
v -0.01103598 -0.04791879 -0.05485104
v -0.00858643 -0.04903055 -0.05385445
v -0.01224572 -0.04943702 -0.05127314
v -0.01573716 -0.04759426 -0.05285496
v -0.01573716 -0.04626721 -0.05510309
v -0.01404765 -0.04648089 -0.05580999
v 0.00043750 -0.05110145 -0.05127314
v 0.00043750 -0.03873227 -0.06607146
v -0.01573716 -0.03794343 -0.06607146
v -0.01226947 -0.04575952 -0.05785388
v -0.00931480 -0.04701749 -0.05710643
v -0.00556367 -0.04807623 -0.05646617
v -0.00416710 -0.04928922 -0.05462797
v -0.00742895 -0.04998487 -0.05237694
v -0.00971382 -0.05002504 -0.05127314
v -0.01052295 -0.04985152 -0.05127314
v -0.01573716 -0.04570329 -0.05604175
v -0.01573716 -0.04456582 -0.05792920
v -0.01455118 -0.04458671 -0.05863609
v 0.00025699 -0.05110627 -0.05127314
v -0.00011037 -0.05082833 -0.05198583
v 0.00043750 -0.05088617 -0.05180621
v 0.00043750 -0.04151650 -0.06607146
v -0.01573716 -0.03800609 -0.06600483
v -0.01273024 -0.03915641 -0.06607146
v -0.01345228 -0.03979584 -0.06511542
v -0.01258932 -0.04443729 -0.05981231
v -0.00914538 -0.04461723 -0.06077849
v -0.00775196 -0.04623508 -0.05883889
v -0.00457087 -0.04710103 -0.05833045
v 0.00007806 -0.04959607 -0.05450195
v -0.00241583 -0.05011340 -0.05328228
v -0.00433336 -0.05087492 -0.05127314
v -0.00579169 -0.05070945 -0.05127314
v -0.00152120 -0.04775492 -0.05759459
v -0.00744320 -0.05044757 -0.05127314
v -0.01573716 -0.04395692 -0.05889103
v -0.01573716 -0.04266361 -0.06070461
v 0.00004639 -0.05110467 -0.05127314
v 0.00043750 -0.05072551 -0.05217559
v -0.00108734 -0.05108860 -0.05127314
v -0.00191547 -0.05104041 -0.05127314
v 0.00043750 -0.04267486 -0.06470838
v -0.00044605 -0.04152132 -0.06607146
v -0.01573716 -0.03971712 -0.06414055
v -0.01009385 -0.04004165 -0.06607146
v -0.00929263 -0.04062966 -0.06572381
v -0.01253232 -0.04224108 -0.06258192
v -0.01573716 -0.04256400 -0.06082918
v -0.01573716 -0.04240656 -0.06101749
v -0.01075255 -0.04364524 -0.06154476
v -0.00604345 -0.04545909 -0.06044966
v -0.00861493 -0.04218002 -0.06404640
v -0.00627463 -0.04253830 -0.06417387
v -0.00145944 -0.04634915 -0.05987170
v 0.00043750 -0.04958322 -0.05450629
v 0.00043750 -0.04970532 -0.05426439
v 0.00043750 -0.04847628 -0.05649370
v 0.00043750 -0.04819351 -0.05698185
v 0.00043750 -0.04824332 -0.05690074
v 0.00043750 -0.04374164 -0.06336123
v -0.00056798 -0.04277125 -0.06460119
v -0.00154020 -0.04146509 -0.06607146
v -0.00932905 -0.04028746 -0.06607146
v -0.00868935 -0.04044651 -0.06607146
v -0.00425577 -0.04379466 -0.06300055
v -0.00268185 -0.04496747 -0.06161864
v -0.00649156 -0.04086583 -0.06607146
v -0.00451545 -0.04194868 -0.06524579
v 0.00043750 -0.04490963 -0.06182723
v 0.00043750 -0.04639413 -0.05985721
v -0.00383299 -0.04130122 -0.06607146
v -0.00538000 -0.04107469 -0.06607146
f 1 2 3
f 1 3 8
f 1 8 13
f 1 13 26
f 1 26 25
f 1 25 46
f 1 46 44
f 1 44 43
f 1 43 52
f 1 52 51
f 1 51 49
f 1 49 30
f 1 30 17
f 1 17 9
f 1 9 4
f 1 4 10
f 1 10 19
f 1 19 34
f 1 34 55
f 1 55 60
f 1 60 59
f 1 59 48
f 1 48 47
f 1 47 28
f 1 28 27
f 1 27 15
f 1 15 14
f 1 14 6
f 1 6 2
f 2 5 3
f 2 6 7
f 2 7 5
f 3 5 8
f 4 9 10
f 5 7 11
f 5 11 12
f 5 12 13
f 5 13 8
f 6 14 7
f 7 14 15
f 7 15 16
f 7 16 11
f 9 17 32
f 9 32 50
f 9 50 67
f 9 67 66
f 9 66 68
f 9 68 70
f 9 70 69
f 9 69 81
f 9 81 80
f 9 80 71
f 9 71 53
f 9 53 33
f 9 33 18
f 9 18 10
f 10 18 33
f 10 33 54
f 10 54 73
f 10 73 82
f 10 82 83
f 10 83 78
f 10 78 75
f 10 75 74
f 10 74 56
f 10 56 35
f 10 35 19
f 11 16 20
f 11 20 21
f 11 21 12
f 12 21 22
f 12 22 23
f 12 23 24
f 12 24 25
f 12 25 26
f 12 26 13
f 15 27 16
f 16 27 28
f 16 28 29
f 16 29 20
f 17 30 31
f 17 31 32
f 19 35 36
f 19 36 34
f 20 29 37
f 20 37 21
f 21 37 38
f 21 38 39
f 21 39 22
f 22 39 40
f 22 40 23
f 23 41 42
f 23 42 43
f 23 43 44
f 23 44 24
f 23 40 45
f 23 45 41
f 24 44 46
f 24 46 25
f 28 47 29
f 29 47 48
f 29 48 37
f 30 49 31
f 31 50 32
f 31 49 51
f 31 51 52
f 31 52 42
f 31 42 41
f 31 41 50
f 33 53 54
f 34 36 55
f 35 56 36
f 36 56 57
f 36 57 58
f 36 58 59
f 36 59 60
f 36 60 55
f 37 48 59
f 37 59 58
f 37 58 61
f 37 61 38
f 38 62 39
f 38 61 63
f 38 63 64
f 38 64 62
f 39 62 40
f 40 62 65
f 40 65 45
f 41 66 67
f 41 67 50
f 41 45 68
f 41 68 66
f 42 52 43
f 45 69 70
f 45 70 68
f 45 65 69
f 53 71 72
f 53 72 54
f 54 72 73
f 56 74 57
f 57 75 64
f 57 64 63
f 57 63 61
f 57 61 58
f 57 74 75
f 62 64 76
f 62 76 77
f 62 77 65
f 64 75 78
f 64 78 79
f 64 79 76
f 65 80 81
f 65 81 69
f 65 77 72
f 65 72 71
f 65 71 80
f 72 77 76
f 72 76 79
f 72 79 73
f 73 79 82
f 78 83 79
f 79 83 82

