# https://github.com/mikedh/trimesh
v 0.02403185 -0.03775002 0.07054941
v 0.02514058 -0.03693204 0.07068615
v 0.02403185 -0.03767133 0.07089696
v 0.02403185 -0.03764234 0.06987707
v 0.02652721 -0.03570403 0.07097103
v 0.02481993 -0.03696310 0.07117615
v 0.02482136 -0.03697553 0.06947254
v 0.02672673 -0.03558599 0.07028730
v 0.02403185 -0.03758021 0.07110777
v 0.02403185 -0.03742076 0.06880590
v 0.02811764 -0.03424823 0.07089696
v 0.02719274 -0.03480114 0.07135847
v 0.02484131 -0.03659035 0.07143824
v 0.02403185 -0.03747046 0.07122173
v 0.02403185 -0.03641019 0.06426483
v 0.02482991 -0.03582207 0.06433890
v 0.02601703 -0.03550109 0.06714787
v 0.02718134 -0.03403701 0.06558100
v 0.02815042 -0.03328943 0.06646985
v 0.02936604 -0.03287940 0.06996253
v 0.02947150 -0.03278829 0.07100522
v 0.02864208 -0.03307406 0.07148382
v 0.03680512 -0.02015823 0.07167754
v 0.03809057 -0.01659845 0.07172313
v 0.02403185 -0.03706665 0.07141545
v 0.02403185 -0.03724267 0.07138696
v 0.02403185 -0.03573509 0.06141028
v 0.02403185 -0.02395615 0.01351538
v 0.02627924 -0.03381128 0.06122226
v 0.03153933 -0.03034884 0.07046393
v 0.02965248 -0.03175079 0.06682880
v 0.03129849 -0.03047723 0.07120463
v 0.03304853 -0.02782241 0.07143824
v 0.03523892 -0.02375735 0.07161487
v 0.03633768 -0.02215245 0.07148382
v 0.03756756 -0.01899027 0.07158069
v 0.03784402 -0.01659845 0.07167185
v 0.02403185 -0.03675188 0.07137556
v 0.03829721 -0.01731703 0.07139836
v 0.03846823 -0.01659845 0.07142685
v 0.02403185 -0.02008782 0.01351538
v 0.02597427 -0.02174863 0.01351538
v 0.03362000 -0.02746623 0.07084568
v 0.03095504 -0.03010862 0.06667496
v 0.03295590 -0.02702928 0.06558100
v 0.03384089 -0.02702721 0.07003091
v 0.02968241 -0.02951015 0.05869817
v 0.03446936 -0.02587168 0.07131859
v 0.03573486 -0.02386296 0.07095964
v 0.03682365 -0.02157261 0.07100522
v 0.03765449 -0.01947485 0.07125022
v 0.03748775 -0.01659845 0.07158069
v 0.02403185 -0.03619275 0.07097673
v 0.03858224 -0.01659845 0.07078870
v 0.03851241 -0.01659845 0.07134708
v 0.02403185 -0.02022035 0.01453527
v 0.02632627 -0.01659845 0.01351538
v 0.02612818 -0.02155397 0.01351538
v 0.03492397 -0.02523800 0.07021894
v 0.02711151 -0.02025970 0.01351538
v 0.03364565 -0.02538089 0.06383181
v 0.03565506 -0.02318994 0.06817915
v 0.03653577 -0.02157054 0.06894834
v 0.03758466 -0.01947692 0.07003661
v 0.03858936 -0.01659845 0.07062917
v 0.03741222 -0.01659845 0.07148953
v 0.03693053 -0.01659845 0.07087417
v 0.03669681 -0.01659845 0.07034998
v 0.02403185 -0.03534785 0.06952951
v 0.02677234 -0.01659845 0.01625027
v 0.02633768 -0.01659845 0.01358945
v 0.02403185 -0.03329979 0.06302273
v 0.03383804 -0.01659845 0.05608293
v 0.02914515 -0.01659845 0.01351538
v 0.02830860 -0.01826134 0.01351538
v 0.02917507 -0.01662537 0.01351538
v 0.03795946 -0.01764216 0.06846974
v 0.03855516 -0.01659845 0.07037278
v 0.02918647 -0.01659845 0.01352677
v 0.03625503 -0.01659845 0.06904521
v 0.03619090 -0.01659845 0.06881730
v 0.02403185 -0.03496060 0.06851532
v 0.02403185 -0.03334120 0.06317087
v 0.03546409 -0.01659845 0.06517077
v 0.02403185 -0.03423373 0.06628752
f 1 2 3
f 1 3 9
f 1 9 14
f 1 14 26
f 1 26 25
f 1 25 38
f 1 38 53
f 1 53 69
f 1 69 82
f 1 82 85
f 1 85 83
f 1 83 72
f 1 72 56
f 1 56 41
f 1 41 28
f 1 28 27
f 1 27 15
f 1 15 10
f 1 10 4
f 1 4 2
f 2 5 6
f 2 6 3
f 2 4 7
f 2 7 8
f 2 8 5
f 3 6 9
f 4 10 7
f 5 8 11
f 5 11 12
f 5 12 6
f 6 12 13
f 6 13 14
f 6 14 9
f 7 10 15
f 7 15 16
f 7 16 17
f 7 17 8
f 8 17 18
f 8 18 19
f 8 19 20
f 8 20 11
f 11 21 12
f 11 20 21
f 12 22 13
f 12 21 22
f 13 22 23
f 13 23 24
f 13 24 25
f 13 25 26
f 13 26 14
f 15 27 16
f 16 27 28
f 16 28 17
f 17 28 29
f 17 29 18
f 18 29 28
f 18 28 19
f 19 28 20
f 20 30 21
f 20 28 31
f 20 31 30
f 21 30 32
f 21 32 22
f 22 32 33
f 22 33 34
f 22 34 23
f 23 34 35
f 23 35 36
f 23 36 24
f 24 37 38
f 24 38 25
f 24 36 39
f 24 39 40
f 24 40 55
f 24 55 54
f 24 54 65
f 24 65 78
f 24 78 79
f 24 79 74
f 24 74 57
f 24 57 71
f 24 71 70
f 24 70 73
f 24 73 84
f 24 84 81
f 24 81 80
f 24 80 68
f 24 68 67
f 24 67 66
f 24 66 52
f 24 52 37
f 28 41 57
f 28 57 74
f 28 74 76
f 28 76 75
f 28 75 60
f 28 60 58
f 28 58 42
f 28 42 31
f 30 43 32
f 30 31 44
f 30 44 45
f 30 45 46
f 30 46 43
f 31 47 44
f 31 42 47
f 32 43 33
f 33 43 48
f 33 48 34
f 34 48 35
f 35 48 49
f 35 49 50
f 35 50 51
f 35 51 36
f 36 51 39
f 37 52 38
f 38 52 53
f 39 51 54
f 39 54 55
f 39 55 40
f 41 56 57
f 42 58 44
f 42 44 47
f 43 46 59
f 43 59 49
f 43 49 48
f 44 58 60
f 44 60 45
f 45 60 46
f 46 61 59
f 46 60 61
f 49 59 62
f 49 62 63
f 49 63 50
f 50 63 64
f 50 64 51
f 51 64 65
f 51 65 54
f 52 66 53
f 53 67 68
f 53 68 69
f 53 66 67
f 56 70 71
f 56 71 57
f 56 72 73
f 56 73 70
f 59 61 75
f 59 75 62
f 60 75 61
f 62 75 76
f 62 76 63
f 63 76 64
f 64 77 78
f 64 78 65
f 64 76 79
f 64 79 77
f 68 80 69
f 69 80 81
f 69 81 82
f 72 83 84
f 72 84 73
f 74 79 76
f 77 79 78
f 81 84 85
f 81 85 82
f 83 85 84

