# https://github.com/mikedh/trimesh
v 0.03155317 -0.03559370 -0.05344931
v 0.01896152 -0.04343732 -0.05344931
v 0.03155317 -0.03888236 -0.05344931
v 0.03155317 -0.01916377 -0.06869625
v 0.01896152 -0.04645616 -0.05344931
v 0.01896152 -0.03160511 -0.06869625
v 0.03093314 -0.03941400 -0.05344931
v 0.03155317 -0.03816105 -0.05462112
v 0.03155317 -0.02404199 -0.06869625
v 0.01896152 -0.04595391 -0.05444796
v 0.01972700 -0.04543296 -0.05483309
v 0.01994026 -0.04603672 -0.05344931
v 0.01896152 -0.03471744 -0.06869625
v 0.03065456 -0.03964375 -0.05344931
v 0.03155317 -0.03754392 -0.05559589
v 0.03155317 -0.02407672 -0.06867535
v 0.03121049 -0.02451218 -0.06869625
v 0.01896152 -0.04528870 -0.05557648
v 0.01896152 -0.04381401 -0.05802907
v 0.01951005 -0.04357892 -0.05805743
v 0.02117045 -0.04390484 -0.05631987
v 0.02333624 -0.04379264 -0.05464351
v 0.02319572 -0.04448724 -0.05344931
v 0.02149711 -0.04530473 -0.05344931
v 0.01997970 -0.03412436 -0.06869625
v 0.01896152 -0.03519297 -0.06822753
v 0.02963515 -0.03877550 -0.05614223
v 0.02849124 -0.04128140 -0.05344931
v 0.03155317 -0.03707373 -0.05624374
v 0.03155317 -0.02428243 -0.06854548
v 0.03120433 -0.02456294 -0.06866938
v 0.03118584 -0.02454424 -0.06869625
v 0.01896152 -0.04345068 -0.05859780
v 0.02087091 -0.04142299 -0.06021893
v 0.02252145 -0.04202943 -0.05818581
v 0.02606659 -0.04278547 -0.05365382
v 0.02557229 -0.04163938 -0.05609596
v 0.02604564 -0.04290035 -0.05344931
v 0.02142685 -0.03320535 -0.06869625
v 0.02386629 -0.03259624 -0.06781553
v 0.02185211 -0.03512618 -0.06663178
v 0.01896152 -0.03543341 -0.06798869
v 0.02726474 -0.04044521 -0.05625120
v 0.02737568 -0.03858849 -0.05875603
v 0.03040680 -0.03660354 -0.05822910
v 0.02679140 -0.04241947 -0.05344931
v 0.03155317 -0.03573797 -0.05799473
v 0.03155317 -0.02479269 -0.06818871
v 0.03155317 -0.02633417 -0.06703632
v 0.03020094 -0.02758712 -0.06729306
v 0.02911250 -0.02695396 -0.06869625
v 0.03112174 -0.02462171 -0.06869625
v 0.01896152 -0.04249160 -0.05995471
v 0.01896152 -0.04128140 -0.06149075
v 0.01896152 -0.03984679 -0.06322084
v 0.01936830 -0.03929378 -0.06365076
v 0.02209002 -0.03861521 -0.06279989
v 0.02328447 -0.04021813 -0.06009503
v 0.02486721 -0.04080319 -0.05802459
v 0.02623670 -0.04278280 -0.05344931
v 0.02315257 -0.03210735 -0.06869625
v 0.02465272 -0.03106011 -0.06869625
v 0.02681605 -0.03258822 -0.06571523
v 0.02467368 -0.03589291 -0.06397767
v 0.02213563 -0.03723135 -0.06429115
v 0.02015474 -0.03791526 -0.06477480
v 0.01896152 -0.03589559 -0.06751847
v 0.02552298 -0.03778970 -0.06127729
v 0.02843577 -0.03632303 -0.06054435
v 0.03087397 -0.03445296 -0.06029357
v 0.03155317 -0.03460791 -0.05935164
v 0.03155317 -0.02861032 -0.06524651
v 0.02741019 -0.02867710 -0.06869625
v 0.02940217 -0.02984456 -0.06609439
v 0.01896152 -0.03949147 -0.06363136
v 0.01896152 -0.03878084 -0.06443445
v 0.02499294 -0.03080097 -0.06869625
v 0.02732637 -0.02875725 -0.06869625
v 0.02976088 -0.03245999 -0.06337460
v 0.02746813 -0.03457852 -0.06323577
v 0.01896152 -0.03763475 -0.06570777
v 0.03155317 -0.03147954 -0.06264763
v 0.03155317 -0.03392934 -0.06015474
v 0.03155317 -0.02903776 -0.06488676
v 0.02736335 -0.02872252 -0.06869625
v 0.03155317 -0.02951596 -0.06444938
f 1 2 5
f 1 5 12
f 1 12 24
f 1 24 23
f 1 23 38
f 1 38 60
f 1 60 46
f 1 46 28
f 1 28 14
f 1 14 7
f 1 7 3
f 1 3 8
f 1 8 15
f 1 15 29
f 1 29 47
f 1 47 71
f 1 71 83
f 1 83 82
f 1 82 86
f 1 86 84
f 1 84 72
f 1 72 49
f 1 49 48
f 1 48 30
f 1 30 16
f 1 16 9
f 1 9 4
f 1 4 2
f 2 4 6
f 2 6 13
f 2 13 26
f 2 26 42
f 2 42 67
f 2 67 81
f 2 81 76
f 2 76 75
f 2 75 55
f 2 55 54
f 2 54 53
f 2 53 33
f 2 33 19
f 2 19 18
f 2 18 10
f 2 10 5
f 3 7 8
f 4 9 17
f 4 17 32
f 4 32 52
f 4 52 51
f 4 51 73
f 4 73 85
f 4 85 78
f 4 78 77
f 4 77 62
f 4 62 61
f 4 61 39
f 4 39 25
f 4 25 13
f 4 13 6
f 5 10 11
f 5 11 12
f 7 14 8
f 8 14 15
f 9 16 17
f 10 18 11
f 11 18 19
f 11 19 20
f 11 20 21
f 11 21 22
f 11 22 23
f 11 23 24
f 11 24 12
f 13 25 26
f 14 27 15
f 14 28 27
f 15 27 29
f 16 30 17
f 17 30 31
f 17 31 32
f 19 33 20
f 20 33 34
f 20 34 35
f 20 35 21
f 21 35 22
f 22 36 23
f 22 35 37
f 22 37 36
f 23 36 38
f 25 39 40
f 25 40 41
f 25 41 26
f 26 41 42
f 27 28 43
f 27 43 44
f 27 44 45
f 27 45 29
f 28 46 36
f 28 36 43
f 29 45 47
f 30 48 31
f 31 48 49
f 31 49 50
f 31 50 51
f 31 51 52
f 31 52 32
f 33 53 34
f 34 53 54
f 34 54 55
f 34 55 56
f 34 56 57
f 34 57 58
f 34 58 35
f 35 58 59
f 35 59 37
f 36 60 38
f 36 37 43
f 36 46 60
f 37 59 43
f 39 61 40
f 40 61 62
f 40 62 63
f 40 63 64
f 40 64 41
f 41 64 65
f 41 65 66
f 41 66 42
f 42 66 67
f 43 59 44
f 44 68 69
f 44 69 45
f 44 59 58
f 44 58 68
f 45 69 70
f 45 70 47
f 47 70 71
f 49 72 50
f 50 73 51
f 50 72 74
f 50 74 73
f 55 75 56
f 56 75 76
f 56 76 66
f 56 66 57
f 57 66 65
f 57 65 64
f 57 64 68
f 57 68 58
f 62 77 63
f 63 77 78
f 63 78 74
f 63 74 79
f 63 79 80
f 63 80 64
f 64 80 68
f 66 76 81
f 66 81 67
f 68 80 69
f 69 80 70
f 70 80 79
f 70 79 82
f 70 82 83
f 70 83 71
f 72 84 74
f 73 74 85
f 74 78 85
f 74 84 86
f 74 86 79
f 79 86 82

