# https://github.com/mikedh/trimesh
v -0.00911464 0.03214961 0.07500969
v -0.00911464 0.03209154 0.07499765
v -0.00911464 0.03238510 0.07493142
v -0.01297174 0.03114957 0.07498561
v -0.00947667 0.03204799 0.07500969
v -0.02820435 0.02068947 0.07497357
v -0.03131007 0.01668609 0.07494949
v -0.00911464 0.03164798 0.07479899
v -0.00911464 0.03262543 0.07484714
v -0.02007574 0.02739942 0.07497357
v -0.01511205 0.02991887 0.07498561
v -0.01145304 0.03202863 0.07481705
v -0.01524639 0.03034631 0.07490734
v -0.01826103 0.02881883 0.07490734
v -0.02512595 0.02377669 0.07498561
v -0.02582497 0.02346539 0.07494949
v -0.02778995 0.02147176 0.07493745
v -0.03057235 0.01794421 0.07494346
v -0.03191118 0.01668609 0.07472073
v -0.03083875 0.01668609 0.07472675
v -0.03032645 0.01668609 0.07430534
v -0.00911464 0.03161894 0.07475685
v -0.00911464 0.03268834 0.07478093
v -0.02190639 0.02617034 0.07496754
v -0.02355488 0.02539773 0.07491337
v -0.01079728 0.03255124 0.07444982
v -0.01324497 0.03178024 0.07434146
v -0.01478873 0.03089956 0.07466654
v -0.01778971 0.02945595 0.07464848
v -0.02055617 0.02775427 0.07472675
v -0.02531494 0.02442188 0.07461236
v -0.02684503 0.02310570 0.07452206
v -0.02814060 0.02172661 0.07457624
v -0.02975266 0.01962653 0.07473277
v -0.03162657 0.01707643 0.07473879
v -0.03151500 0.01797808 0.07396822
v -0.03237567 0.01668609 0.07393812
v -0.03014429 0.01668609 0.07388394
v -0.00911464 0.03114473 0.07395618
v -0.00911464 0.03306416 0.07435952
v -0.02182214 0.02716554 0.07453410
v -0.02378940 0.02570096 0.07458828
v -0.00911464 0.03313674 0.07407057
v -0.00978178 0.03300287 0.07381772
v -0.01369125 0.03171088 0.07376354
v -0.01626873 0.03051890 0.07420902
v -0.02065863 0.02813816 0.07416086
v -0.02529900 0.02481060 0.07396822
v -0.02648300 0.02373476 0.07401638
v -0.02833414 0.02195082 0.07385384
v -0.02997352 0.01987654 0.07428126
v -0.02960694 0.02046527 0.07304716
v -0.03206146 0.01702643 0.07190938
v -0.03231648 0.01668609 0.07258964
v -0.02978681 0.01668609 0.07280636
v -0.00911464 0.03085762 0.07261372
v -0.02218645 0.02718328 0.07388996
v -0.02370060 0.02606872 0.07399230
v -0.00911464 0.03316416 0.07380568
v -0.00932184 0.03300932 0.07198764
v -0.00911464 0.02938659 0.01351538
v -0.01158055 0.03222864 0.07032612
v -0.01544904 0.03087859 0.07204784
v -0.01676282 0.03034631 0.07354683
v -0.01126405 0.02870592 0.01351538
v -0.01180368 0.02851721 0.01351538
v -0.01913082 0.02905271 0.07400434
v -0.02126885 0.02761072 0.07121708
v -0.02336589 0.02617356 0.07138564
v -0.02517149 0.02470254 0.07097628
v -0.02644657 0.02370734 0.07207192
v -0.02793795 0.02222502 0.07217427
v -0.02997124 0.01962653 0.07018767
v -0.02404897 0.01979912 0.01351538
v -0.02572706 0.01777807 0.01351538
v -0.03224361 0.01668609 0.07153013
v -0.02931094 0.01668609 0.06952547
v -0.00911464 0.03037857 0.06752682
v -0.00911464 0.03306739 0.07212611
v -0.00911464 0.02660584 0.01351538
v -0.01448817 0.02722683 0.01351538
v -0.01818134 0.02945272 0.07131942
v -0.01739353 0.02554773 0.01351538
v -0.01967273 0.02386218 0.01351538
v -0.01983211 0.02373960 0.01351538
v -0.02230029 0.02169919 0.01351538
v -0.02634866 0.01668609 0.01351538
v -0.02856411 0.01668609 0.06392686
v -0.02694294 0.01668609 0.05141128
v -0.02609592 0.01668609 0.04486754
v -0.00911464 0.02763814 0.03576530
v -0.00911464 0.02644615 0.01423778
v -0.02293783 0.01668609 0.01351538
v -0.02476848 0.01668609 0.03404358
v -0.02348429 0.01668609 0.02321360
v -0.00911464 0.02724780 0.03091318
v -0.00911464 0.02642519 0.01436420
v -0.02275795 0.01668609 0.01416554
v -0.02297426 0.01668609 0.01866850
v -0.02272836 0.01668609 0.01646518
v -0.00911464 0.02665100 0.02042634
v -0.00911464 0.02654616 0.01834342
v -0.02272380 0.01668609 0.01449062
f 1 2 8
f 1 8 22
f 1 22 39
f 1 39 56
f 1 56 78
f 1 78 91
f 1 91 96
f 1 96 101
f 1 101 102
f 1 102 97
f 1 97 92
f 1 92 80
f 1 80 61
f 1 61 79
f 1 79 59
f 1 59 43
f 1 43 40
f 1 40 23
f 1 23 9
f 1 9 3
f 1 3 4
f 1 4 5
f 1 5 6
f 1 6 7
f 1 7 2
f 2 7 8
f 3 9 4
f 4 10 11
f 4 11 5
f 4 9 12
f 4 12 13
f 4 13 14
f 4 14 10
f 5 11 15
f 5 15 6
f 6 15 16
f 6 16 17
f 6 17 18
f 6 18 7
f 7 18 19
f 7 19 37
f 7 37 54
f 7 54 76
f 7 76 87
f 7 87 93
f 7 93 98
f 7 98 103
f 7 103 100
f 7 100 99
f 7 99 95
f 7 95 94
f 7 94 90
f 7 90 89
f 7 89 88
f 7 88 77
f 7 77 55
f 7 55 38
f 7 38 21
f 7 21 20
f 7 20 8
f 8 20 21
f 8 21 22
f 9 23 12
f 10 24 15
f 10 15 11
f 10 14 25
f 10 25 24
f 12 23 26
f 12 26 27
f 12 27 28
f 12 28 13
f 13 28 29
f 13 29 14
f 14 29 30
f 14 30 25
f 15 24 25
f 15 25 16
f 16 25 31
f 16 31 32
f 16 32 33
f 16 33 17
f 17 33 34
f 17 34 18
f 18 34 35
f 18 35 19
f 19 35 36
f 19 36 37
f 21 38 39
f 21 39 22
f 23 40 26
f 25 30 41
f 25 41 42
f 25 42 31
f 26 40 43
f 26 43 44
f 26 44 27
f 27 44 45
f 27 45 46
f 27 46 28
f 28 46 29
f 29 46 47
f 29 47 41
f 29 41 30
f 31 42 48
f 31 48 49
f 31 49 32
f 32 49 50
f 32 50 33
f 33 50 51
f 33 51 34
f 34 51 35
f 35 51 36
f 36 51 52
f 36 52 53
f 36 53 37
f 37 53 54
f 38 55 39
f 39 55 56
f 41 47 57
f 41 57 58
f 41 58 42
f 42 58 48
f 43 59 44
f 44 59 60
f 44 60 61
f 44 61 62
f 44 62 45
f 45 63 64
f 45 64 46
f 45 62 65
f 45 65 66
f 45 66 63
f 46 67 47
f 46 64 67
f 47 67 68
f 47 68 57
f 48 58 69
f 48 69 70
f 48 70 71
f 48 71 49
f 49 71 50
f 50 72 52
f 50 52 51
f 50 71 72
f 52 73 53
f 52 72 74
f 52 74 75
f 52 75 73
f 53 76 54
f 53 73 75
f 53 75 76
f 55 77 56
f 56 77 78
f 57 68 69
f 57 69 58
f 59 79 60
f 60 79 61
f 61 80 93
f 61 93 87
f 61 87 75
f 61 75 74
f 61 74 86
f 61 86 85
f 61 85 84
f 61 84 83
f 61 83 81
f 61 81 66
f 61 66 65
f 61 65 62
f 63 66 81
f 63 81 64
f 64 81 82
f 64 82 67
f 67 82 68
f 68 82 83
f 68 83 69
f 69 83 84
f 69 84 85
f 69 85 70
f 70 85 86
f 70 86 71
f 71 86 72
f 72 86 74
f 75 87 76
f 77 88 78
f 78 88 89
f 78 89 90
f 78 90 91
f 80 92 93
f 81 83 82
f 90 94 91
f 91 94 95
f 91 95 96
f 92 97 98
f 92 98 93
f 95 99 96
f 96 99 100
f 96 100 101
f 97 102 100
f 97 100 103
f 97 103 98
f 100 102 101

