# https://github.com/mikedh/trimesh
v 0.03972170 0.00003989 -0.06869835
v 0.03972833 -0.00029776 -0.06869835
v 0.03923757 -0.00030590 -0.06923874
v 0.03919778 0.00003989 -0.06927007
v 0.03701588 0.00003989 -0.06869835
v -0.02800997 -0.02471053 -0.06607184
v 0.00044091 -0.03872927 -0.06607184
v 0.00044091 -0.04151186 -0.06607184
v 0.03959569 -0.00236437 -0.06869835
v 0.03812341 -0.00245793 -0.07019076
v 0.03597467 -0.00032624 -0.07239208
v 0.03594151 0.00003989 -0.07240479
v 0.00044754 0.00003989 -0.07152222
v -0.02800997 -0.00011470 -0.06933614
v -0.02800997 -0.02927496 -0.06607184
v 0.00847878 -0.03844857 -0.06869835
v 0.01162894 -0.03768376 -0.06869835
v 0.01182789 -0.03763495 -0.06869835
v 0.01263699 -0.03735018 -0.06869835
v 0.01510406 -0.03646333 -0.06869835
v 0.01538260 -0.03634942 -0.06869835
v 0.01616516 -0.03599956 -0.06869835
v 0.01894393 -0.03471811 -0.06869835
v 0.01997851 -0.03412009 -0.06869835
v 0.02314856 -0.03210231 -0.06869835
v 0.02464074 -0.03105273 -0.06869835
v 0.02498560 -0.03079237 -0.06869835
v 0.02740625 -0.02867288 -0.06869835
v 0.02911065 -0.02694393 -0.06869835
v 0.03117317 -0.02453967 -0.06869835
v 0.03285767 -0.02224119 -0.06869835
v 0.03441617 -0.01966607 -0.06869835
v 0.03453555 -0.01946266 -0.06869835
v 0.03492683 -0.01871006 -0.06869835
v 0.03578234 -0.01701366 -0.06869835
v 0.03600783 -0.01651735 -0.06869835
v 0.03661796 -0.01494705 -0.06869835
v 0.03738063 -0.01293334 -0.06869835
v 0.03758622 -0.01235973 -0.06869835
v 0.03861417 -0.00857231 -0.06869835
v 0.03937020 -0.00476049 -0.06869835
v 0.03945642 -0.00400382 -0.06869835
v -0.00044113 -0.04152000 -0.06607184
v 0.00044091 -0.04088537 -0.06681041
v 0.00424099 -0.03899776 -0.06869835
v 0.00514293 -0.03892861 -0.06869835
v 0.00666164 -0.03873741 -0.06869835
v 0.00798802 -0.03854620 -0.06869835
v 0.03707556 -0.00531375 -0.07091916
v 0.03510589 -0.00380041 -0.07294178
v 0.03579561 0.00003989 -0.07254115
v 0.03448249 -0.00058253 -0.07365326
v 0.03454218 0.00003989 -0.07360582
v 0.00044754 0.00003989 -0.07325771
v -0.02800997 -0.00011470 -0.07106823
v -0.02800997 -0.02889256 -0.06637929
v -0.02793039 -0.02883154 -0.06649533
v -0.02752584 -0.02963703 -0.06617686
v -0.02765185 -0.02963703 -0.06607184
v 0.00937409 -0.03711423 -0.06984942
v 0.01245793 -0.03545850 -0.07061001
v 0.01509079 -0.03623144 -0.06894822
v 0.01926226 -0.03374176 -0.06947674
v 0.01536270 -0.03377023 -0.07115039
v 0.02178239 -0.03117478 -0.07037709
v 0.02483970 -0.03065812 -0.06892619
v 0.02842093 -0.02654932 -0.06958516
v 0.02426272 -0.02933598 -0.07037879
v 0.02543657 -0.02735074 -0.07110974
v 0.02958814 -0.02299786 -0.07098439
v 0.03156445 -0.02138688 -0.07035337
v 0.03070893 -0.02009322 -0.07178649
v 0.03342139 -0.01782728 -0.07052447
v 0.03564971 -0.01681432 -0.06893975
v 0.03490693 -0.01450770 -0.07053379
v 0.03541096 -0.01146474 -0.07112075
v 0.03686998 -0.00822652 -0.07051685
v -0.00153540 -0.04145898 -0.06607184
v -0.00255671 -0.04009208 -0.06761166
v -0.00030850 -0.04014498 -0.06768789
v 0.00044091 -0.04003513 -0.06779377
v 0.00528883 -0.03862350 -0.06901851
v 0.00225805 -0.03911574 -0.06869835
v 0.00699987 -0.03711423 -0.07030594
v 0.03459523 -0.00767326 -0.07281727
v 0.03319590 -0.00690032 -0.07397003
v 0.03349433 -0.00400789 -0.07405049
v 0.03366676 -0.00081441 -0.07408013
v 0.03371982 0.00003989 -0.07404625
v 0.03440954 0.00003989 -0.07368629
v 0.01365167 0.00003989 -0.07408353
v -0.01292901 -0.02908376 -0.07335596
v -0.01818812 -0.02691546 -0.07295279
v -0.00103801 -0.00011470 -0.07316793
v -0.00483809 -0.00011470 -0.07291213
v -0.02800997 -0.01711129 -0.07192878
v -0.02800997 -0.02874611 -0.06649194
v -0.02745952 -0.02585774 -0.06892704
v -0.02590103 -0.02801791 -0.06859671
v -0.02657085 -0.02963296 -0.06688410
v -0.02745952 -0.02963703 -0.06622937
v -0.02800997 -0.02613031 -0.06831297
v -0.02718098 -0.03011299 -0.06607184
v 0.00726514 -0.03545443 -0.07177886
v 0.01056783 -0.03465302 -0.07183138
v 0.01271657 -0.03281016 -0.07284607
v 0.01987903 -0.03082898 -0.07170856
v 0.01768387 -0.03172397 -0.07200331
v 0.01567440 -0.03091441 -0.07335765
v 0.02279707 -0.02740363 -0.07272325
v 0.02617271 -0.02471053 -0.07244205
v 0.02706138 -0.02241612 -0.07321112
v 0.02924328 -0.02043088 -0.07276306
v 0.03018501 -0.01795746 -0.07323399
v 0.03121296 -0.01791271 -0.07242596
v 0.03254597 -0.01461754 -0.07265973
v 0.03365350 -0.01028092 -0.07308069
v -0.00383004 -0.04129625 -0.06607184
v -0.00384993 -0.03766749 -0.06992903
v -0.00089874 -0.03790751 -0.06992819
v -0.00038145 -0.03794006 -0.06992819
v -0.00537527 -0.04107250 -0.06607184
v -0.00497073 -0.03860316 -0.06886436
v -0.00409531 -0.03764308 -0.06992819
v 0.00044754 -0.03914422 -0.06869835
v 0.00136274 -0.03913201 -0.06869835
v 0.00302735 -0.03713457 -0.07067184
v 0.00044754 -0.03815973 -0.06969526
v 0.03283777 -0.00977241 -0.07377099
v 0.03146497 -0.00933305 -0.07440115
v 0.03218785 -0.00356039 -0.07454767
v 0.03273830 0.00003989 -0.07437404
v 0.03354739 0.00003989 -0.07411740
v 0.01620495 0.00003989 -0.07423344
v -0.00852543 -0.03049947 -0.07367443
v -0.01163579 -0.02995434 -0.07344744
v -0.01877836 -0.02728159 -0.07280965
v -0.02143775 -0.02521905 -0.07257927
v -0.02354670 -0.02242019 -0.07243359
v -0.02572196 -0.01984507 -0.07219982
v -0.01588021 -0.02881933 -0.07304765
v -0.02762532 -0.01772151 -0.07198553
v -0.02800997 -0.01737165 -0.07192709
v -0.02664380 -0.02521091 -0.06992903
v -0.02550311 -0.02645983 -0.06992903
v -0.02800997 -0.02556891 -0.06867718
v -0.02800997 -0.02346569 -0.06992903
v -0.02479350 -0.02721650 -0.06992903
v -0.02307583 -0.02884374 -0.06992903
v -0.02306920 -0.02889663 -0.06989515
v -0.02688255 -0.03039776 -0.06607184
v 0.00547453 -0.03484828 -0.07247509
v 0.00828646 -0.03356276 -0.07315522
v 0.01369809 -0.03109748 -0.07370746
v 0.01068721 -0.03250505 -0.07347877
v 0.01878477 -0.02941328 -0.07328650
v 0.01861234 -0.02859559 -0.07380486
v 0.02158343 -0.02643542 -0.07382096
v 0.02448821 -0.02421422 -0.07367866
v 0.02814239 -0.02014611 -0.07361514
v 0.03117317 -0.01573220 -0.07333224
v 0.02918360 -0.01806323 -0.07378962
v 0.03165730 -0.01351101 -0.07366172
v -0.00039471 -0.03725254 -0.07061763
v -0.00394278 -0.03748443 -0.07010012
v 0.00022869 -0.03793192 -0.06992819
v -0.00648943 -0.04086096 -0.06607184
v -0.00662207 -0.03981139 -0.06726186
v -0.00804130 -0.03683759 -0.06992819
v -0.00583951 -0.03575547 -0.07138416
v 0.00044091 -0.03792785 -0.06992819
v 0.00044754 -0.03722813 -0.07063034
v 0.00186677 -0.03515339 -0.07243359
v 0.03083494 -0.01280315 -0.07418855
v 0.02943561 -0.01310013 -0.07454937
v 0.03065588 -0.00926796 -0.07461713
v 0.03103390 -0.00546834 -0.07470352
v 0.03168382 0.00003989 -0.07465524
v 0.03224090 0.00003989 -0.07452396
v 0.02092687 0.00003989 -0.07446298
v -0.00197310 -0.03144327 -0.07395817
v -0.00417490 -0.03180126 -0.07380740
v -0.00811425 -0.03114223 -0.07363970
v 0.02145742 0.00003989 -0.07448670
v -0.01221940 -0.03075983 -0.07318487
v -0.01047521 -0.03104459 -0.07338221
v -0.02113932 -0.02693580 -0.07219388
v -0.02348038 -0.02442984 -0.07219897
v -0.01853298 -0.02822539 -0.07258011
v -0.02554953 -0.02117534 -0.07220320
v -0.01495838 -0.03002350 -0.07282659
v -0.02779775 -0.01897042 -0.07188559
v -0.02800997 -0.01848225 -0.07187034
v -0.02580818 -0.02455595 -0.07094542
v -0.02425631 -0.02683816 -0.07056259
v -0.02800997 -0.02206219 -0.07074808
v -0.02753911 -0.02194829 -0.07116818
v -0.02335437 -0.02625235 -0.07153831
v -0.02033022 -0.02948651 -0.07105130
v -0.02204789 -0.02963703 -0.06992819
v -0.02271108 -0.02963296 -0.06953603
v -0.02357323 -0.02963703 -0.06896007
v -0.02512509 -0.03191924 -0.06607184
v 0.00526231 -0.03353021 -0.07346522
v 0.00824666 -0.03232605 -0.07384383
v 0.01226560 -0.03064592 -0.07404625
v 0.01617179 -0.02895358 -0.07412418
v 0.01920258 -0.02719616 -0.07416907
v 0.02149722 -0.02503191 -0.07427579
v 0.02482643 -0.02229814 -0.07418686
v 0.02747256 -0.01968234 -0.07406235
v 0.02906422 -0.01656209 -0.07416907
v -0.00227817 -0.03569445 -0.07187796
v 0.00044754 -0.03647146 -0.07129607
v -0.00869123 -0.04044195 -0.06607184
v -0.00953348 -0.03836314 -0.06801992
v -0.00829994 -0.03677657 -0.06992819
v -0.00824689 -0.03671148 -0.07000103
v -0.00439375 -0.03427468 -0.07270631
v -0.00991813 -0.03394516 -0.07190167
v -0.00722557 -0.03404687 -0.07244968
v 0.00172087 -0.03367667 -0.07351011
v -0.00060030 -0.03451877 -0.07286470
v 0.02791690 -0.01621631 -0.07453836
v 0.02848724 -0.01254280 -0.07468489
v 0.02951519 -0.00803125 -0.07472470
v 0.03007227 0.00003989 -0.07471368
v 0.03029113 0.00003989 -0.07471029
v 0.03157108 0.00003989 -0.07467134
v -0.00026207 -0.03220401 -0.07396664
v 0.02582122 0.00003989 -0.07463492
v 0.00248354 -0.03095509 -0.07409199
v 0.00172750 -0.03158565 -0.07407082
v 0.00044754 -0.03154090 -0.07403186
v 0.00044754 -0.03198433 -0.07400391
v -0.00683429 -0.03211451 -0.07353722
v -0.00143592 -0.03300136 -0.07368375
v -0.00920188 -0.03253352 -0.07300954
v -0.01243162 -0.03162634 -0.07270886
v -0.01845339 -0.02941328 -0.07199569
v -0.02511183 -0.02368130 -0.07180766
v -0.02661064 -0.02156995 -0.07180258
v -0.01483900 -0.03103646 -0.07233279
v -0.02800997 -0.01897042 -0.07181867
v -0.02800997 -0.01875888 -0.07185424
v -0.02800997 -0.02165945 -0.07094712
v -0.02800997 -0.02125670 -0.07113092
v -0.02800997 -0.01998745 -0.07162386
v -0.02794365 -0.02003627 -0.07164335
v -0.01704080 -0.03119918 -0.07140619
v -0.01773715 -0.03255793 -0.06992819
v -0.02117248 -0.03030420 -0.06992819
v -0.02198820 -0.03110155 -0.06882201
v -0.02173619 -0.03361158 -0.06685106
v -0.02230653 -0.03402246 -0.06607184
v 0.00324621 -0.03285084 -0.07385060
v 0.00502356 -0.03197213 -0.07404541
v 0.01079995 -0.03044251 -0.07419024
v 0.01523006 -0.02807894 -0.07438929
v 0.01896383 -0.02552823 -0.07447398
v 0.02179565 -0.02350637 -0.07449686
v 0.02667010 -0.01896228 -0.07443672
v -0.00170120 -0.03378651 -0.07332970
v -0.00932789 -0.04028329 -0.06607184
v -0.01009056 -0.04003920 -0.06607184
v -0.01208013 -0.03857874 -0.06693407
v -0.01293565 -0.03658537 -0.06859841
v -0.01054153 -0.03601583 -0.06992819
v -0.01083996 -0.03529985 -0.07050499
v -0.00535538 -0.03306645 -0.07335342
v -0.01317440 -0.03299322 -0.07162217
v 0.00044754 -0.03371735 -0.07344320
v 0.00044754 -0.03294440 -0.07375150
v 0.02507181 -0.01967421 -0.07458410
v 0.02659715 -0.01626106 -0.07466202
v 0.02678948 0.00003989 -0.07465778
v 0.00044754 -0.03233419 -0.07394377
v 0.00836604 -0.03059303 -0.07420888
v -0.02800997 -0.01950741 -0.07171957
v -0.01402991 -0.03397771 -0.07047958
v -0.01531650 -0.03396550 -0.06992819
v -0.01686174 -0.03312340 -0.06992819
v -0.01876509 -0.03457979 -0.06771076
v -0.02162345 -0.03451063 -0.06607184
v -0.01273006 -0.03915235 -0.06607184
v -0.01593990 -0.03784242 -0.06608708
v -0.01147663 -0.03569038 -0.06992819
v -0.01512418 -0.03600770 -0.06820710
v -0.01371158 -0.03475065 -0.06992819
v -0.01429519 -0.03447808 -0.06992819
v -0.01677552 -0.03394109 -0.06929718
v -0.01891763 -0.03620297 -0.06607184
v -0.01995220 -0.03556834 -0.06607184
v -0.01590011 -0.03787090 -0.06607184
v -0.01593990 -0.03785462 -0.06607184
v -0.01596643 -0.03784242 -0.06607184
f 1 2 3
f 1 3 4
f 1 4 12
f 1 12 51
f 1 51 53
f 1 53 90
f 1 90 89
f 1 89 133
f 1 133 132
f 1 132 179
f 1 179 178
f 1 178 229
f 1 229 228
f 1 228 227
f 1 227 276
f 1 276 231
f 1 231 184
f 1 184 180
f 1 180 134
f 1 134 91
f 1 91 54
f 1 54 13
f 1 13 5
f 1 5 6
f 1 6 7
f 1 7 2
f 2 7 8
f 2 8 9
f 2 9 3
f 3 10 11
f 3 11 4
f 3 9 10
f 4 11 12
f 5 13 14
f 5 14 6
f 6 14 55
f 6 55 96
f 6 96 143
f 6 143 193
f 6 193 245
f 6 245 244
f 6 244 279
f 6 279 248
f 6 248 247
f 6 247 246
f 6 246 196
f 6 196 147
f 6 147 146
f 6 146 102
f 6 102 97
f 6 97 56
f 6 56 15
f 6 15 59
f 6 59 103
f 6 103 151
f 6 151 203
f 6 203 255
f 6 255 284
f 6 284 293
f 6 293 292
f 6 292 296
f 6 296 295
f 6 295 294
f 6 294 285
f 6 285 265
f 6 265 264
f 6 264 215
f 6 215 167
f 6 167 122
f 6 122 118
f 6 118 78
f 6 78 43
f 6 43 8
f 6 8 7
f 8 16 17
f 8 17 18
f 8 18 19
f 8 19 20
f 8 20 21
f 8 21 22
f 8 22 23
f 8 23 24
f 8 24 25
f 8 25 26
f 8 26 27
f 8 27 28
f 8 28 29
f 8 29 30
f 8 30 31
f 8 31 32
f 8 32 33
f 8 33 34
f 8 34 35
f 8 35 36
f 8 36 37
f 8 37 38
f 8 38 39
f 8 39 40
f 8 40 41
f 8 41 42
f 8 42 9
f 8 43 44
f 8 44 45
f 8 45 46
f 8 46 47
f 8 47 48
f 8 48 16
f 9 42 10
f 10 42 49
f 10 49 50
f 10 50 11
f 11 51 12
f 11 50 52
f 11 52 53
f 11 53 51
f 13 54 55
f 13 55 14
f 15 56 57
f 15 57 58
f 15 58 59
f 16 48 60
f 16 60 17
f 17 60 18
f 18 61 62
f 18 62 19
f 18 60 61
f 19 62 20
f 20 62 21
f 21 62 22
f 22 62 23
f 23 63 24
f 23 62 64
f 23 64 63
f 24 63 65
f 24 65 25
f 25 65 66
f 25 66 26
f 26 66 27
f 27 66 28
f 28 67 29
f 28 66 68
f 28 68 69
f 28 69 67
f 29 67 30
f 30 67 70
f 30 70 71
f 30 71 31
f 31 71 32
f 32 71 33
f 33 71 72
f 33 72 73
f 33 73 34
f 34 73 74
f 34 74 35
f 35 74 36
f 36 74 37
f 37 74 75
f 37 75 38
f 38 75 76
f 38 76 39
f 39 76 40
f 40 76 77
f 40 77 49
f 40 49 41
f 41 49 42
f 43 78 79
f 43 79 80
f 43 80 44
f 44 80 81
f 44 81 45
f 45 82 46
f 45 81 83
f 45 83 82
f 46 82 47
f 47 82 48
f 48 82 84
f 48 84 60
f 49 77 85
f 49 85 50
f 50 85 86
f 50 86 87
f 50 87 52
f 52 87 88
f 52 88 89
f 52 89 90
f 52 90 53
f 54 91 92
f 54 92 93
f 54 93 94
f 54 94 95
f 54 95 55
f 55 95 96
f 56 97 57
f 57 98 99
f 57 99 100
f 57 100 101
f 57 101 58
f 57 97 102
f 57 102 98
f 58 101 103
f 58 103 59
f 60 84 104
f 60 104 105
f 60 105 61
f 61 105 106
f 61 106 64
f 61 64 62
f 63 107 65
f 63 64 108
f 63 108 107
f 64 106 109
f 64 109 108
f 65 107 110
f 65 110 68
f 65 68 66
f 67 69 111
f 67 111 70
f 68 110 69
f 69 110 111
f 70 111 112
f 70 112 113
f 70 113 71
f 71 113 72
f 72 114 115
f 72 115 73
f 72 113 114
f 73 115 116
f 73 116 74
f 74 116 75
f 75 116 76
f 76 116 117
f 76 117 85
f 76 85 77
f 78 118 79
f 79 119 120
f 79 120 121
f 79 121 80
f 79 118 122
f 79 122 123
f 79 123 124
f 79 124 119
f 80 121 81
f 81 125 126
f 81 126 83
f 81 121 125
f 82 83 127
f 82 127 84
f 83 126 128
f 83 128 127
f 84 127 104
f 85 117 129
f 85 129 86
f 86 129 130
f 86 130 131
f 86 131 87
f 87 131 88
f 88 131 132
f 88 132 133
f 88 133 89
f 91 134 135
f 91 135 92
f 92 135 136
f 92 136 93
f 93 137 138
f 93 138 139
f 93 139 140
f 93 140 94
f 93 136 141
f 93 141 137
f 94 140 95
f 95 140 142
f 95 142 96
f 96 142 143
f 98 144 145
f 98 145 99
f 98 102 146
f 98 146 147
f 98 147 144
f 99 145 148
f 99 148 149
f 99 149 150
f 99 150 100
f 100 151 103
f 100 103 101
f 100 150 151
f 104 127 152
f 104 152 153
f 104 153 105
f 105 153 106
f 106 154 109
f 106 153 155
f 106 155 154
f 107 108 156
f 107 156 110
f 108 109 156
f 109 154 157
f 109 157 156
f 110 156 158
f 110 158 159
f 110 159 111
f 111 159 112
f 112 160 113
f 112 159 160
f 113 160 114
f 114 161 115
f 114 160 162
f 114 162 161
f 115 161 116
f 116 161 163
f 116 163 117
f 117 163 129
f 119 164 120
f 119 124 165
f 119 165 164
f 120 164 121
f 121 166 128
f 121 128 125
f 121 164 166
f 122 167 168
f 122 168 123
f 123 168 169
f 123 169 170
f 123 170 124
f 124 170 165
f 125 128 126
f 127 128 171
f 127 171 172
f 127 172 173
f 127 173 152
f 128 166 171
f 129 163 174
f 129 174 130
f 130 174 175
f 130 175 176
f 130 176 131
f 131 176 177
f 131 177 178
f 131 178 179
f 131 179 132
f 134 180 135
f 135 181 182
f 135 182 183
f 135 183 136
f 135 180 184
f 135 184 181
f 136 185 141
f 136 183 186
f 136 186 185
f 137 187 188
f 137 188 138
f 137 141 189
f 137 189 187
f 138 188 190
f 138 190 139
f 139 190 140
f 140 190 142
f 141 185 191
f 141 191 189
f 142 190 192
f 142 192 193
f 142 193 143
f 144 147 194
f 144 194 145
f 145 194 195
f 145 195 148
f 147 196 197
f 147 197 194
f 148 195 149
f 149 195 198
f 149 198 199
f 149 199 150
f 150 199 200
f 150 200 201
f 150 201 202
f 150 202 151
f 151 202 203
f 152 173 204
f 152 204 153
f 153 204 205
f 153 205 155
f 154 155 205
f 154 205 206
f 154 206 207
f 154 207 157
f 156 157 158
f 157 208 158
f 157 207 208
f 158 209 210
f 158 210 159
f 158 208 209
f 159 210 211
f 159 211 160
f 160 211 162
f 161 162 163
f 162 211 212
f 162 212 174
f 162 174 163
f 164 165 213
f 164 213 214
f 164 214 172
f 164 172 166
f 165 170 213
f 166 172 171
f 167 215 168
f 168 215 216
f 168 216 217
f 168 217 169
f 169 217 218
f 169 218 170
f 170 219 213
f 170 218 220
f 170 220 221
f 170 221 219
f 172 214 173
f 173 222 204
f 173 214 213
f 173 213 223
f 173 223 222
f 174 212 175
f 175 212 224
f 175 224 225
f 175 225 176
f 176 225 177
f 177 225 226
f 177 226 227
f 177 227 228
f 177 228 229
f 177 229 178
f 181 230 182
f 181 184 231
f 181 231 232
f 181 232 233
f 181 233 234
f 181 234 235
f 181 235 230
f 182 236 183
f 182 230 237
f 182 237 236
f 183 236 186
f 185 186 238
f 185 238 239
f 185 239 191
f 186 236 238
f 187 189 240
f 187 240 199
f 187 199 198
f 187 198 188
f 188 198 241
f 188 241 242
f 188 242 190
f 189 191 240
f 190 242 192
f 191 239 243
f 191 243 240
f 192 242 244
f 192 244 245
f 192 245 193
f 194 241 198
f 194 198 195
f 194 197 241
f 196 246 197
f 197 246 247
f 197 247 248
f 197 248 249
f 197 249 242
f 197 242 241
f 199 240 250
f 199 250 251
f 199 251 252
f 199 252 200
f 200 252 253
f 200 253 201
f 201 253 202
f 202 253 203
f 203 253 254
f 203 254 255
f 204 222 256
f 204 256 205
f 205 256 257
f 205 257 258
f 205 258 206
f 206 258 259
f 206 259 207
f 207 259 208
f 208 259 260
f 208 260 209
f 209 261 210
f 209 260 261
f 210 261 262
f 210 262 211
f 211 262 212
f 212 262 224
f 213 263 223
f 213 219 263
f 215 264 216
f 216 264 265
f 216 265 266
f 216 266 267
f 216 267 268
f 216 268 217
f 217 268 269
f 217 269 218
f 218 269 220
f 219 221 270
f 219 270 263
f 220 269 271
f 220 271 239
f 220 239 238
f 220 238 221
f 221 238 270
f 222 272 237
f 222 237 273
f 222 273 256
f 222 223 272
f 223 263 272
f 224 262 274
f 224 274 275
f 224 275 225
f 225 275 226
f 226 275 276
f 226 276 227
f 230 235 257
f 230 257 277
f 230 277 273
f 230 273 237
f 231 276 275
f 231 275 232
f 232 275 259
f 232 259 233
f 233 259 278
f 233 278 257
f 233 257 235
f 233 235 234
f 236 237 270
f 236 270 238
f 237 272 263
f 237 263 270
f 239 271 243
f 240 243 250
f 242 249 279
f 242 279 244
f 243 271 250
f 248 279 249
f 250 271 280
f 250 280 281
f 250 281 282
f 250 282 251
f 251 283 252
f 251 282 283
f 252 283 253
f 253 283 254
f 254 284 255
f 254 283 284
f 256 273 277
f 256 277 257
f 257 278 258
f 258 278 259
f 259 275 260
f 260 275 274
f 260 274 261
f 261 274 262
f 265 285 266
f 266 285 286
f 266 286 267
f 267 287 268
f 267 286 288
f 267 288 289
f 267 289 287
f 268 287 269
f 269 287 289
f 269 289 280
f 269 280 271
f 280 289 290
f 280 290 281
f 281 290 288
f 281 288 291
f 281 291 282
f 282 291 283
f 283 291 288
f 283 288 286
f 283 286 292
f 283 292 293
f 283 293 284
f 285 294 286
f 286 294 295
f 286 295 296
f 286 296 292
f 288 290 289

