# https://github.com/mikedh/trimesh
v -0.01959117 -0.02402721 0.01200307
v -0.02019570 -0.02402721 0.01055511
v -0.01965605 -0.02402721 0.01254318
v 0.00043485 -0.03206596 0.01218464
v 0.00043485 -0.03215212 0.01035286
v -0.02029891 -0.02402721 0.01038044
v -0.01983298 -0.02402721 0.01351538
v 0.00043485 -0.03211918 0.01266039
v 0.00043485 -0.03219267 0.01024484
v -0.02164066 -0.02402721 0.00880377
v -0.02353681 -0.02402721 0.01351538
v 0.00043485 -0.03225350 0.01351538
v 0.00043485 -0.03293268 0.00844293
v -0.02256957 -0.02402721 0.00789363
v -0.02968823 -0.02402721 0.00582512
v -0.02968823 -0.02405509 0.00581133
v -0.02968823 -0.02540839 0.00494486
v -0.02968823 -0.02558579 0.00482764
v -0.02968823 -0.02609012 0.00449438
v -0.02968823 -0.02677184 0.00400254
v -0.02968823 -0.02863707 0.00264192
v -0.02968823 -0.02977496 0.00168121
v -0.02968823 -0.03216733 -0.00040568
v -0.02324782 -0.02435920 0.01351538
v 0.00043485 -0.03465600 0.01351538
v 0.00043485 -0.03317598 0.00794419
v -0.02362528 -0.02402721 0.00698808
v -0.02968823 -0.02402721 0.00259136
v -0.02968823 -0.03233966 -0.00057116
v -0.02176747 -0.02581641 0.01351538
v -0.00018148 -0.03463572 0.01351538
v -0.00170311 -0.04627569 -0.00366473
v 0.00030215 -0.04724885 -0.00508051
v 0.00043485 -0.04703597 -0.00477024
v 0.00043485 -0.03400722 0.00666172
v -0.02441263 -0.02402721 0.00634685
v -0.02968823 -0.03660233 -0.00996449
v 0.00043485 -0.03415674 0.00644338
v 0.00043485 -0.04728687 -0.00996449
v -0.02968823 -0.03367016 -0.00197085
v -0.02748245 -0.03477511 -0.00108140
v -0.02146962 -0.02610025 0.01351538
v -0.00236072 -0.03453182 0.01351538
v -0.00523885 -0.04600452 -0.00369461
v -0.00329847 -0.04723111 -0.00526898
v 0.00043485 -0.04950183 -0.00902217
v 0.00043485 -0.04734515 -0.00525059
v 0.00043485 -0.04723872 -0.00507821
v -0.00246983 -0.04835633 -0.00704789
v -0.02968823 -0.03995265 -0.00996449
v 0.00043485 -0.04991745 -0.00996449
v -0.02968823 -0.03501333 -0.00342800
v -0.02874163 -0.03632609 -0.00395892
v -0.02601684 -0.03708891 -0.00240754
v -0.01933462 -0.02783370 0.01351538
v -0.00273228 -0.03449380 0.01351538
v -0.00645380 -0.04718296 -0.00572405
v -0.00488498 -0.03425558 0.01351538
v -0.00990697 -0.04579671 -0.00455419
v -0.00553374 -0.04902285 -0.00869810
v -0.00246098 -0.04974765 -0.00963813
v -0.02968823 -0.03901750 -0.00847746
v -0.02891561 -0.04053554 -0.00996449
v -0.02754437 -0.04118938 -0.00934394
v -0.00239315 -0.04989211 -0.00996449
v -0.02968823 -0.03591553 -0.00443008
v -0.02759155 -0.03917463 -0.00642964
v -0.02968823 -0.03704836 -0.00579760
v -0.02968823 -0.03760844 -0.00650319
v -0.02555091 -0.04044937 -0.00622968
v -0.02420031 -0.03926586 -0.00356820
v -0.01785132 -0.02890064 0.01351538
v -0.01920487 -0.02793001 0.01351538
v -0.00905178 -0.04751749 -0.00698124
v -0.00655701 -0.03387290 0.01351538
v -0.01270548 -0.04606281 -0.00596767
v -0.01267009 -0.04610082 -0.00601134
v -0.00874805 -0.04920278 -0.00996449
v -0.00824378 -0.04928135 -0.00996449
v -0.00533027 -0.04968176 -0.00996449
v -0.00332501 -0.04984396 -0.00996449
v -0.02805158 -0.04118177 -0.00996449
v -0.02634712 -0.04237796 -0.00996449
v -0.02433301 -0.04217014 -0.00758800
v -0.02304434 -0.04132623 -0.00526898
v -0.02130154 -0.03868550 -0.00080100
v -0.01571631 -0.03017031 0.01351538
v -0.01069138 -0.04781907 -0.00809364
v -0.00928475 -0.03309995 0.01351538
v -0.01443059 -0.04407847 -0.00385090
v -0.01270548 -0.04608815 -0.00600674
v -0.01587850 -0.04480834 -0.00557925
v -0.01270548 -0.04612870 -0.00607569
v -0.00893678 -0.04916731 -0.00996449
v -0.02566887 -0.04282146 -0.00996449
v -0.02453944 -0.04348544 -0.00996449
v -0.02333038 -0.04403791 -0.00970708
v -0.02142539 -0.04359442 -0.00737885
v -0.02100075 -0.04153911 -0.00412210
v -0.01447187 -0.03087231 0.01351538
v -0.01270548 -0.04756057 -0.00857169
v -0.01234571 -0.04839688 -0.00989094
v -0.01194171 -0.03206596 0.01351538
v -0.01803710 -0.04244132 -0.00344869
v -0.01659214 -0.04602986 -0.00797413
v -0.01436276 -0.04734515 -0.00896701
v -0.01824352 -0.04465374 -0.00670314
v -0.01147578 -0.04861990 -0.00996449
v -0.02351322 -0.04407340 -0.00996449
v -0.02296472 -0.04435217 -0.00996449
v -0.01991850 -0.04537855 -0.00912560
v -0.01239584 -0.04841463 -0.00996449
v -0.01233981 -0.04842983 -0.00996449
v -0.01270548 -0.04829551 -0.00990473
v -0.01270548 -0.04832339 -0.00996449
v -0.01828481 -0.04647082 -0.00996449
v -0.01729397 -0.04682309 -0.00996449
v -0.01517371 -0.04756057 -0.00996449
v -0.01428609 -0.04784694 -0.00996449
v -0.02047290 -0.04555595 -0.00996449
v -0.01913409 -0.04614137 -0.00996449
f 1 2 6
f 1 6 10
f 1 10 14
f 1 14 27
f 1 27 36
f 1 36 28
f 1 28 15
f 1 15 11
f 1 11 7
f 1 7 3
f 1 3 4
f 1 4 5
f 1 5 2
f 2 5 6
f 3 7 4
f 4 8 12
f 4 12 25
f 4 25 34
f 4 34 48
f 4 48 47
f 4 47 46
f 4 46 51
f 4 51 39
f 4 39 38
f 4 38 35
f 4 35 26
f 4 26 13
f 4 13 9
f 4 9 5
f 4 7 8
f 5 9 10
f 5 10 6
f 7 11 24
f 7 24 30
f 7 30 42
f 7 42 55
f 7 55 73
f 7 73 72
f 7 72 87
f 7 87 100
f 7 100 103
f 7 103 89
f 7 89 75
f 7 75 58
f 7 58 56
f 7 56 43
f 7 43 31
f 7 31 25
f 7 25 12
f 7 12 8
f 9 13 14
f 9 14 10
f 11 15 16
f 11 16 17
f 11 17 18
f 11 18 19
f 11 19 20
f 11 20 21
f 11 21 22
f 11 22 23
f 11 23 24
f 13 26 27
f 13 27 14
f 15 28 37
f 15 37 50
f 15 50 62
f 15 62 69
f 15 69 68
f 15 68 66
f 15 66 52
f 15 52 40
f 15 40 29
f 15 29 23
f 15 23 22
f 15 22 21
f 15 21 20
f 15 20 19
f 15 19 18
f 15 18 17
f 15 17 16
f 23 29 24
f 24 29 30
f 25 31 32
f 25 32 33
f 25 33 34
f 26 35 28
f 26 28 36
f 26 36 27
f 28 35 38
f 28 38 39
f 28 39 37
f 29 40 41
f 29 41 42
f 29 42 30
f 31 43 32
f 32 43 44
f 32 44 45
f 32 45 33
f 33 46 47
f 33 47 48
f 33 48 34
f 33 45 49
f 33 49 46
f 37 39 51
f 37 51 65
f 37 65 81
f 37 81 80
f 37 80 79
f 37 79 78
f 37 78 94
f 37 94 108
f 37 108 113
f 37 113 112
f 37 112 115
f 37 115 119
f 37 119 118
f 37 118 117
f 37 117 116
f 37 116 121
f 37 121 120
f 37 120 110
f 37 110 109
f 37 109 96
f 37 96 95
f 37 95 83
f 37 83 82
f 37 82 63
f 37 63 50
f 40 52 41
f 41 52 53
f 41 53 54
f 41 54 55
f 41 55 42
f 43 56 44
f 44 57 45
f 44 56 58
f 44 58 59
f 44 59 57
f 45 57 60
f 45 60 49
f 46 49 61
f 46 61 51
f 49 60 61
f 50 63 64
f 50 64 62
f 51 61 65
f 52 66 53
f 53 67 54
f 53 66 68
f 53 68 69
f 53 69 67
f 54 67 70
f 54 70 71
f 54 71 72
f 54 72 73
f 54 73 55
f 57 74 60
f 57 59 74
f 58 75 59
f 59 76 77
f 59 77 74
f 59 75 76
f 60 74 78
f 60 78 79
f 60 79 80
f 60 80 81
f 60 81 61
f 61 81 65
f 62 64 67
f 62 67 69
f 63 82 64
f 64 70 67
f 64 82 83
f 64 83 84
f 64 84 70
f 70 84 85
f 70 85 71
f 71 85 86
f 71 86 87
f 71 87 72
f 74 77 88
f 74 88 78
f 75 89 90
f 75 90 76
f 76 91 77
f 76 90 92
f 76 92 91
f 77 91 93
f 77 93 88
f 78 88 94
f 83 95 84
f 84 95 96
f 84 96 97
f 84 97 98
f 84 98 85
f 85 98 99
f 85 99 86
f 86 99 100
f 86 100 87
f 88 93 101
f 88 101 102
f 88 102 94
f 89 103 104
f 89 104 90
f 90 104 92
f 91 92 105
f 91 105 106
f 91 106 93
f 92 104 107
f 92 107 105
f 93 106 101
f 94 102 108
f 96 109 97
f 97 109 110
f 97 110 111
f 97 111 98
f 98 111 107
f 98 107 99
f 99 107 104
f 99 104 100
f 100 104 103
f 101 106 102
f 102 112 113
f 102 113 108
f 102 106 114
f 102 114 115
f 102 115 112
f 105 116 106
f 105 107 111
f 105 111 116
f 106 116 117
f 106 117 118
f 106 118 119
f 106 119 114
f 110 120 111
f 111 120 121
f 111 121 116
f 114 119 115

