# https://github.com/mikedh/trimesh
v 0.01616871 -0.02744533 0.01351538
v 0.01616871 -0.03026168 0.01351538
v 0.01616871 -0.02737054 0.01311550
v 0.00043908 -0.03225341 0.01351538
v 0.01373598 -0.03161181 0.01351538
v 0.01616871 -0.04294417 -0.00346582
v 0.01616871 -0.02726820 0.01206376
v 0.00043908 -0.03206644 0.01218610
v 0.00043908 -0.03211958 0.01266084
v 0.00043908 -0.03212745 0.01272475
v 0.00043908 -0.03465450 0.01351538
v 0.01057034 -0.03290682 0.01351538
v 0.01502009 -0.04304060 -0.00298377
v 0.01616871 -0.04408764 -0.00513837
v 0.01616871 -0.02717176 0.01047702
v 0.00043908 -0.03215107 0.01035286
v 0.00045140 -0.03465450 0.01351538
v 0.00043908 -0.04703587 -0.00477136
v 0.00804061 -0.03365667 0.01351538
v 0.01289530 -0.04459344 -0.00416150
v 0.01586539 -0.04419982 -0.00513837
v 0.01616871 -0.04094063 -0.00513837
v 0.01616871 -0.02748665 0.00960240
v 0.00043908 -0.03219240 0.01024513
v 0.00352311 -0.03448524 0.01351538
v 0.00112579 -0.04595734 -0.00319558
v 0.00043908 -0.04724055 -0.00507812
v 0.00788356 -0.03369997 0.01351538
v 0.00841167 -0.04614628 -0.00480788
v 0.01264278 -0.04528819 -0.00513837
v 0.01453508 -0.04467217 -0.00513837
v 0.01616871 -0.02827587 0.00805766
v 0.00043908 -0.04425886 -0.00513837
v 0.01616871 -0.02812038 0.00833337
v 0.00043908 -0.03317448 0.00794262
v 0.00043908 -0.03293044 0.00844476
v 0.00566176 -0.03417822 0.01351538
v 0.00322749 -0.04709294 -0.00505438
v 0.00480260 -0.04625256 -0.00402820
v 0.00043908 -0.04727597 -0.00513837
v 0.00048219 -0.04727400 -0.00513837
v 0.00317052 -0.04714608 -0.00513837
v 0.00602051 -0.03410736 0.01351538
v 0.00477335 -0.04694927 -0.00513837
v 0.00785584 -0.04644346 -0.00513837
v 0.00837780 -0.04635490 -0.00513837
v 0.00955414 -0.04606952 -0.00513837
v 0.00043908 -0.03415657 0.00644353
v 0.00043908 -0.03400502 0.00666082
v 0.00043908 -0.03496546 0.00551048
v 0.00329215 -0.04713624 -0.00513837
f 1 2 6
f 1 6 14
f 1 14 22
f 1 22 32
f 1 32 34
f 1 34 23
f 1 23 15
f 1 15 7
f 1 7 3
f 1 3 4
f 1 4 11
f 1 11 17
f 1 17 25
f 1 25 37
f 1 37 43
f 1 43 28
f 1 28 19
f 1 19 12
f 1 12 5
f 1 5 2
f 2 5 6
f 3 7 8
f 3 8 9
f 3 9 10
f 3 10 4
f 4 10 9
f 4 9 8
f 4 8 16
f 4 16 24
f 4 24 36
f 4 36 35
f 4 35 49
f 4 49 48
f 4 48 50
f 4 50 33
f 4 33 40
f 4 40 27
f 4 27 18
f 4 18 11
f 5 12 6
f 6 13 14
f 6 12 13
f 7 15 8
f 8 15 16
f 11 18 17
f 12 19 20
f 12 20 13
f 13 20 21
f 13 21 14
f 14 21 31
f 14 31 30
f 14 30 47
f 14 47 46
f 14 46 45
f 14 45 44
f 14 44 51
f 14 51 42
f 14 42 41
f 14 41 40
f 14 40 33
f 14 33 22
f 15 23 16
f 16 23 24
f 17 18 26
f 17 26 25
f 18 27 26
f 19 28 20
f 20 29 30
f 20 30 31
f 20 31 21
f 20 28 29
f 22 33 32
f 23 34 35
f 23 35 36
f 23 36 24
f 25 26 38
f 25 38 39
f 25 39 37
f 26 27 38
f 27 40 41
f 27 41 42
f 27 42 38
f 28 43 29
f 29 39 44
f 29 44 45
f 29 45 46
f 29 46 47
f 29 47 30
f 29 43 37
f 29 37 39
f 32 48 49
f 32 49 35
f 32 35 34
f 32 33 50
f 32 50 48
f 38 42 51
f 38 51 44
f 38 44 39

