# https://github.com/mikedh/trimesh
v 0.00043908 -0.05010296 -0.05344580
v 0.00043908 -0.04750646 -0.05344580
v 0.00167865 -0.05008006 -0.05344580
v 0.00043908 -0.05072490 -0.05217129
v 0.00043908 -0.05253730 -0.03278051
v 0.03155317 -0.03559613 -0.05344580
v 0.00280553 -0.05004572 -0.05344580
v 0.00252229 -0.05033571 -0.05288946
v 0.00043908 -0.05088515 -0.05180309
v 0.00043908 -0.05506321 -0.03278051
v 0.03155317 -0.04138818 -0.03278051
v 0.03155317 -0.03888516 -0.05344580
v 0.00467859 -0.04991027 -0.05344580
v 0.00568669 -0.05024604 -0.05260826
v 0.00378622 -0.05124000 -0.05070459
v 0.00148068 -0.05203555 -0.04890206
v 0.00043908 -0.05124382 -0.05091903
v 0.00043908 -0.05508038 -0.03351689
v 0.00059136 -0.05506321 -0.03278051
v 0.03155317 -0.04448643 -0.03278051
v 0.03086791 -0.03947276 -0.05344580
v 0.03155317 -0.03896338 -0.05331835
v 0.00605521 -0.04977673 -0.05344580
v 0.00796482 -0.04947339 -0.05344580
v 0.00918916 -0.04990455 -0.05216724
v 0.00766330 -0.05117132 -0.04986908
v 0.00485219 -0.05224922 -0.04780962
v 0.00043908 -0.05257164 -0.04743941
v 0.00043908 -0.05179326 -0.04949279
v 0.00043908 -0.05506512 -0.03388711
v 0.00064923 -0.05508229 -0.03364030
v 0.00357303 -0.05497355 -0.03278051
v 0.03069431 -0.04513889 -0.03278051
v 0.03155317 -0.04449024 -0.03473678
v 0.03076740 -0.03974748 -0.05313829
v 0.03065167 -0.03964637 -0.05344580
v 0.03155317 -0.03946131 -0.05246260
v 0.00972214 -0.04915479 -0.05344580
v 0.01177489 -0.04870455 -0.05344580
v 0.01175357 -0.05006099 -0.05061760
v 0.00597602 -0.05283110 -0.04566521
v 0.01087339 -0.05115224 -0.04822637
v 0.00862267 -0.05195924 -0.04714607
v 0.00283903 -0.05322219 -0.04509067
v 0.00043908 -0.05279104 -0.04677788
v 0.00043908 -0.05461679 -0.03899729
v 0.00191621 -0.05474461 -0.03779763
v 0.00402987 -0.05474652 -0.03676790
v 0.00319232 -0.05499072 -0.03339146
v 0.00446235 -0.05488198 -0.03278051
v 0.03058466 -0.04520757 -0.03278051
v 0.03067908 -0.04515034 -0.03280883
v 0.03155317 -0.04449024 -0.03475903
v 0.03039584 -0.04155034 -0.05035662
v 0.02872988 -0.04144923 -0.05289553
v 0.02848927 -0.04128516 -0.05344580
v 0.03155317 -0.04088643 -0.04975983
v 0.01285609 -0.04845654 -0.05344580
v 0.01373323 -0.04822188 -0.05344580
v 0.01510985 -0.04852904 -0.05197505
v 0.01673317 -0.04916814 -0.04921361
v 0.01376368 -0.05044636 -0.04816972
v 0.00922875 -0.05250487 -0.04504414
v 0.00840034 -0.05327371 -0.04243847
v 0.00564101 -0.05364572 -0.04255581
v 0.00412429 -0.05359612 -0.04336502
v 0.01145510 -0.05203555 -0.04508460
v 0.00113044 -0.05415510 -0.04160498
v 0.00043908 -0.05393189 -0.04260032
v 0.00043908 -0.05361520 -0.04385864
v 0.00043908 -0.05461107 -0.03902966
v 0.00045431 -0.05461488 -0.03901549
v 0.00395068 -0.05429056 -0.04012614
v 0.00606739 -0.05414556 -0.03976604
v 0.00769071 -0.05414938 -0.03813548
v 0.00561664 -0.05465876 -0.03561275
v 0.00792827 -0.05446035 -0.03278051
v 0.02648221 -0.04776210 -0.03278051
v 0.02889434 -0.04631219 -0.03475499
v 0.03155317 -0.04448261 -0.03500180
v 0.02910145 -0.04314144 -0.04887981
v 0.02808421 -0.04277705 -0.05121237
v 0.03155317 -0.04181934 -0.04759923
v 0.03122425 -0.04219136 -0.04734028
v 0.02678982 -0.04242411 -0.05344580
v 0.01729661 -0.04706958 -0.05344580
v 0.01767427 -0.04693794 -0.05344580
v 0.01767427 -0.04816274 -0.05083406
v 0.01767427 -0.04859962 -0.04981243
v 0.01551492 -0.05010869 -0.04770038
v 0.01938286 -0.04905940 -0.04668077
v 0.01537787 -0.05101297 -0.04495108
v 0.01103176 -0.05263269 -0.04303526
v 0.01018508 -0.05330042 -0.04085444
v 0.01397383 -0.05205081 -0.04234541
v 0.00043908 -0.05416274 -0.04154227
v 0.00947849 -0.05377355 -0.03879499
v 0.00947240 -0.05409406 -0.03540438
v 0.00803182 -0.05444509 -0.03278051
v 0.02469443 -0.04873699 -0.03278051
v 0.02672586 -0.04763047 -0.03402872
v 0.03032579 -0.04517896 -0.03764590
v 0.02691164 -0.04736337 -0.03736673
v 0.03155317 -0.04446926 -0.03523647
v 0.02862024 -0.04442156 -0.04637530
v 0.02695428 -0.04498054 -0.04765790
v 0.02580303 -0.04423079 -0.05111931
v 0.02623551 -0.04278659 -0.05344580
v 0.03155317 -0.04201775 -0.04710156
v 0.03155317 -0.04215129 -0.04673944
v 0.01832907 -0.04670709 -0.05344580
v 0.01862145 -0.04802538 -0.05041529
v 0.02240412 -0.04707721 -0.04854399
v 0.02170363 -0.04883237 -0.04399823
v 0.01918794 -0.04997705 -0.04372917
v 0.01767731 -0.05038913 -0.04421267
v 0.01659307 -0.05152045 -0.04111743
v 0.01371800 -0.05265177 -0.03953137
v 0.01123277 -0.05350073 -0.03795745
v 0.01160434 -0.05366290 -0.03489457
v 0.01200636 -0.05360757 -0.03278051
v 0.02336958 -0.04943142 -0.03278051
v 0.02516955 -0.04845272 -0.03560668
v 0.02722534 -0.04682729 -0.04011400
v 0.03023137 -0.04486417 -0.04044781
v 0.03155317 -0.04392745 -0.04018683
v 0.03155317 -0.04412013 -0.03878082
v 0.02481625 -0.04838023 -0.03862707
v 0.02829740 -0.04562538 -0.04283094
v 0.02662840 -0.04642092 -0.04356935
v 0.03155317 -0.04297164 -0.04421065
v 0.03020701 -0.04425368 -0.04320116
v 0.02470965 -0.04627784 -0.04760125
v 0.02305284 -0.04519231 -0.05222996
v 0.02604364 -0.04290487 -0.05344580
v 0.01878896 -0.04652585 -0.05344580
v 0.02021127 -0.04680630 -0.05167767
v 0.02424063 -0.04769342 -0.04379997
v 0.02335740 -0.04875606 -0.04103246
v 0.02021432 -0.05027085 -0.04064404
v 0.01767731 -0.05087562 -0.04220987
v 0.01702555 -0.05183332 -0.03800600
v 0.01767731 -0.05114652 -0.04097582
v 0.01767731 -0.05151663 -0.03854211
v 0.01408652 -0.05298754 -0.03535381
v 0.01271904 -0.05341679 -0.03278051
v 0.02158789 -0.05029565 -0.03278051
v 0.02286401 -0.04965845 -0.03384867
v 0.02359191 -0.04917578 -0.03690547
v 0.03155317 -0.04367181 -0.04137637
v 0.02287315 -0.04927498 -0.03902359
v 0.03155317 -0.04336656 -0.04270349
v 0.02319598 -0.04448643 -0.05344580
v 0.01994021 -0.04603555 -0.05344580
v 0.02149652 -0.04530487 -0.05344580
v 0.01992803 -0.05082983 -0.03722309
v 0.01685195 -0.05217864 -0.03405906
v 0.01767731 -0.05160821 -0.03783000
v 0.01492102 -0.05278340 -0.03278051
v 0.02062243 -0.05074398 -0.03278051
v 0.02023564 -0.05086226 -0.03425125
v 0.01743975 -0.05194207 -0.03278051
v 0.01630678 -0.05236560 -0.03278051
f 1 2 6
f 1 6 12
f 1 12 21
f 1 21 36
f 1 36 56
f 1 56 85
f 1 85 108
f 1 108 135
f 1 135 153
f 1 153 155
f 1 155 154
f 1 154 136
f 1 136 111
f 1 111 87
f 1 87 86
f 1 86 59
f 1 59 58
f 1 58 39
f 1 39 38
f 1 38 24
f 1 24 23
f 1 23 13
f 1 13 7
f 1 7 3
f 1 3 4
f 1 4 9
f 1 9 17
f 1 17 29
f 1 29 28
f 1 28 45
f 1 45 70
f 1 70 69
f 1 69 96
f 1 96 71
f 1 71 46
f 1 46 30
f 1 30 18
f 1 18 10
f 1 10 5
f 1 5 2
f 2 5 6
f 3 7 8
f 3 8 4
f 4 8 9
f 5 10 19
f 5 19 32
f 5 32 50
f 5 50 77
f 5 77 99
f 5 99 121
f 5 121 146
f 5 146 159
f 5 159 163
f 5 163 162
f 5 162 160
f 5 160 147
f 5 147 122
f 5 122 100
f 5 100 78
f 5 78 51
f 5 51 33
f 5 33 20
f 5 20 11
f 5 11 6
f 6 11 20
f 6 20 34
f 6 34 53
f 6 53 80
f 6 80 104
f 6 104 127
f 6 127 126
f 6 126 150
f 6 150 152
f 6 152 131
f 6 131 110
f 6 110 109
f 6 109 83
f 6 83 57
f 6 57 37
f 6 37 22
f 6 22 12
f 7 13 14
f 7 14 8
f 8 14 15
f 8 15 9
f 9 16 17
f 9 15 16
f 10 18 19
f 12 22 21
f 13 23 14
f 14 23 24
f 14 24 25
f 14 25 26
f 14 26 15
f 15 26 27
f 15 27 16
f 16 28 29
f 16 29 17
f 16 27 28
f 18 30 31
f 18 31 19
f 19 31 32
f 20 33 34
f 21 22 35
f 21 35 36
f 22 37 35
f 24 38 25
f 25 38 39
f 25 39 40
f 25 40 26
f 26 41 27
f 26 40 42
f 26 42 43
f 26 43 41
f 27 44 45
f 27 45 28
f 27 41 44
f 30 46 47
f 30 47 31
f 31 47 48
f 31 48 49
f 31 49 32
f 32 49 50
f 33 51 52
f 33 52 53
f 33 53 34
f 35 37 54
f 35 54 55
f 35 55 36
f 36 55 56
f 37 57 54
f 39 58 40
f 40 58 59
f 40 59 60
f 40 60 61
f 40 61 62
f 40 62 42
f 41 43 63
f 41 63 64
f 41 64 65
f 41 65 66
f 41 66 44
f 42 62 67
f 42 67 43
f 43 67 63
f 44 66 68
f 44 68 69
f 44 69 70
f 44 70 45
f 46 71 72
f 46 72 47
f 47 72 73
f 47 73 48
f 48 73 74
f 48 74 75
f 48 75 76
f 48 76 49
f 49 76 50
f 50 76 77
f 51 78 52
f 52 78 79
f 52 79 53
f 53 79 80
f 54 81 82
f 54 82 55
f 54 57 83
f 54 83 84
f 54 84 81
f 55 82 85
f 55 85 56
f 59 86 60
f 60 86 87
f 60 87 88
f 60 88 89
f 60 89 61
f 61 90 62
f 61 89 91
f 61 91 90
f 62 90 92
f 62 92 67
f 63 67 93
f 63 93 64
f 64 74 65
f 64 93 94
f 64 94 74
f 65 74 73
f 65 73 66
f 66 73 68
f 67 92 95
f 67 95 93
f 68 72 96
f 68 96 69
f 68 73 72
f 71 96 72
f 74 94 97
f 74 97 75
f 75 97 98
f 75 98 76
f 76 98 99
f 76 99 77
f 78 100 101
f 78 101 79
f 79 102 80
f 79 101 103
f 79 103 102
f 80 102 104
f 81 105 106
f 81 106 107
f 81 107 82
f 81 84 105
f 82 108 85
f 82 107 108
f 83 109 84
f 84 109 110
f 84 110 105
f 87 111 112
f 87 112 88
f 88 112 89
f 89 112 91
f 90 91 92
f 91 112 113
f 91 113 114
f 91 114 115
f 91 115 116
f 91 116 92
f 92 117 95
f 92 116 117
f 93 95 94
f 94 95 118
f 94 118 119
f 94 119 97
f 95 117 118
f 97 119 98
f 98 119 120
f 98 120 99
f 99 120 121
f 100 122 123
f 100 123 101
f 101 123 103
f 102 103 124
f 102 124 125
f 102 125 126
f 102 126 127
f 102 127 104
f 103 123 128
f 103 128 124
f 105 129 130
f 105 130 106
f 105 110 131
f 105 131 132
f 105 132 129
f 106 130 133
f 106 133 107
f 107 133 134
f 107 134 135
f 107 135 108
f 111 136 137
f 111 137 112
f 112 137 113
f 113 137 134
f 113 134 133
f 113 133 138
f 113 138 114
f 114 138 139
f 114 139 140
f 114 140 115
f 115 141 116
f 115 140 141
f 116 141 117
f 117 142 118
f 117 141 143
f 117 143 144
f 117 144 142
f 118 145 119
f 118 142 145
f 119 145 120
f 120 145 121
f 121 145 146
f 122 147 148
f 122 148 123
f 123 148 149
f 123 149 128
f 124 129 125
f 124 128 139
f 124 139 138
f 124 138 130
f 124 130 129
f 125 129 132
f 125 132 150
f 125 150 126
f 128 149 151
f 128 151 139
f 130 138 133
f 131 152 132
f 132 152 150
f 134 153 135
f 134 137 154
f 134 154 155
f 134 155 153
f 136 154 137
f 139 151 140
f 140 151 156
f 140 156 144
f 140 144 143
f 140 143 141
f 142 157 145
f 142 144 158
f 142 158 157
f 144 156 158
f 145 159 146
f 145 157 159
f 147 160 161
f 147 161 148
f 148 161 149
f 149 161 156
f 149 156 151
f 156 161 157
f 156 157 158
f 157 162 163
f 157 163 159
f 157 161 160
f 157 160 162

