# https://github.com/mikedh/trimesh
v -0.03083651 0.01812032 -0.06739798
v -0.03594954 -0.00011020 -0.06739798
v -0.03432364 0.01812032 -0.06739798
v -0.04300466 0.01812032 -0.05230652
v -0.04653491 -0.00011020 -0.05230652
v -0.03866595 -0.00011020 -0.06739798
v -0.03486082 0.01702464 -0.06739798
v -0.03519678 0.01812032 -0.06658690
v -0.04586659 0.01812032 -0.05230652
v -0.04917407 -0.00011020 -0.05230652
v -0.03869829 -0.00011020 -0.06736696
v -0.03866595 -0.00008344 -0.06739798
v -0.03540698 0.01580760 -0.06739798
v -0.03596750 0.01550067 -0.06700057
v -0.03605733 0.01739224 -0.06611561
v -0.03592619 0.01812032 -0.06590582
v -0.04583246 0.01812032 -0.05238187
v -0.04593845 0.01786335 -0.05238925
v -0.04597438 0.01786514 -0.05230652
v -0.04918845 0.00121212 -0.05230652
v -0.04855426 -0.00011020 -0.05354752
v -0.03856354 0.00283780 -0.06739798
v -0.03866236 0.00005754 -0.06739798
v -0.03889232 -0.00011020 -0.06716456
v -0.03556867 0.01540609 -0.06739798
v -0.03594594 0.01445316 -0.06739798
v -0.03663762 0.01252946 -0.06739798
v -0.03804614 0.01235101 -0.06605209
v -0.03880608 0.01414444 -0.06458652
v -0.03742272 0.01812032 -0.06431912
v -0.04580192 0.01812032 -0.05244835
v -0.04601211 0.01406057 -0.05465260
v -0.04711341 0.01431397 -0.05230652
v -0.04603008 0.01770453 -0.05230652
v -0.04546596 0.01812032 -0.05307772
v -0.04428382 0.01812032 -0.05521105
v -0.04435927 0.01677837 -0.05592167
v -0.04917587 0.00183848 -0.05230652
v -0.04830633 -0.00011020 -0.05401142
v -0.04773502 0.00281460 -0.05497320
v -0.03855995 0.00290740 -0.06739798
v -0.03896238 -0.00011020 -0.06708626
v -0.04012835 0.00373719 -0.06560739
v -0.03746584 0.00971172 -0.06739798
v -0.03945823 0.01057900 -0.06511100
v -0.03868391 0.01812032 -0.06294367
v -0.04175065 0.01441212 -0.06093739
v -0.04029005 0.01656959 -0.06184450
v -0.04563124 0.01137310 -0.05654513
v -0.04752303 0.01246700 -0.05263893
v -0.04333343 0.01504026 -0.05848198
v -0.04430178 0.01190132 -0.05843174
v -0.04758411 0.01280428 -0.05230652
v -0.04170754 0.01812032 -0.05922954
v -0.04169856 0.01807393 -0.05927090
v -0.04912916 0.00266471 -0.05230652
v -0.04807277 -0.00011020 -0.05443986
v -0.04663013 0.00162255 -0.05702971
v -0.04843748 0.00505951 -0.05337171
v -0.04575520 0.00513446 -0.05804172
v -0.03832819 0.00506487 -0.06739798
v -0.03923187 -0.00011020 -0.06677305
v -0.04196085 0.00133703 -0.06355827
v -0.03983551 0.00768274 -0.06533703
v -0.04221956 0.00398167 -0.06303527
v -0.04286453 0.00612486 -0.06195087
v -0.03754848 0.00941014 -0.06739798
v -0.03760058 0.00915496 -0.06739798
v -0.04236328 0.00973135 -0.06177950
v -0.04225190 0.01157654 -0.06136878
v -0.04006907 0.01812032 -0.06127571
v -0.04166801 0.01812032 -0.05928420
v -0.04617380 0.00742399 -0.05682583
v -0.04714036 0.00961715 -0.05454623
v -0.04437903 0.00910678 -0.05924726
v -0.04797576 0.01107330 -0.05230652
v -0.04774041 0.01222253 -0.05230652
v -0.04866026 0.00753641 -0.05230652
v -0.04678284 -0.00011020 -0.05670616
v -0.04588456 -0.00011020 -0.05822344
v -0.04608757 -0.00011020 -0.05791023
v -0.04507431 0.00273430 -0.05938171
v -0.03815572 0.00632116 -0.06739798
v -0.04176503 -0.00011020 -0.06373555
v -0.04452276 -0.00011020 -0.06027848
v -0.04397121 0.00134595 -0.06100830
v -0.04862432 0.00778089 -0.05230652
f 1 2 6
f 1 6 12
f 1 12 23
f 1 23 22
f 1 22 41
f 1 41 61
f 1 61 83
f 1 83 68
f 1 68 67
f 1 67 44
f 1 44 27
f 1 27 26
f 1 26 25
f 1 25 13
f 1 13 7
f 1 7 3
f 1 3 8
f 1 8 16
f 1 16 30
f 1 30 46
f 1 46 71
f 1 71 72
f 1 72 54
f 1 54 36
f 1 36 35
f 1 35 31
f 1 31 17
f 1 17 9
f 1 9 4
f 1 4 5
f 1 5 2
f 2 5 10
f 2 10 21
f 2 21 39
f 2 39 57
f 2 57 79
f 2 79 81
f 2 81 80
f 2 80 85
f 2 85 84
f 2 84 62
f 2 62 42
f 2 42 24
f 2 24 11
f 2 11 6
f 3 7 8
f 4 9 19
f 4 19 34
f 4 34 33
f 4 33 53
f 4 53 77
f 4 77 76
f 4 76 87
f 4 87 78
f 4 78 56
f 4 56 38
f 4 38 20
f 4 20 10
f 4 10 5
f 6 11 12
f 7 13 14
f 7 14 15
f 7 15 8
f 8 15 16
f 9 17 18
f 9 18 19
f 10 20 21
f 11 22 23
f 11 23 12
f 11 24 22
f 13 25 14
f 14 25 26
f 14 26 27
f 14 27 28
f 14 28 29
f 14 29 15
f 15 29 30
f 15 30 16
f 17 31 18
f 18 32 33
f 18 33 34
f 18 34 19
f 18 31 35
f 18 35 36
f 18 36 37
f 18 37 32
f 20 38 21
f 21 38 40
f 21 40 39
f 22 24 42
f 22 42 43
f 22 43 41
f 27 44 28
f 28 44 45
f 28 45 29
f 29 46 30
f 29 45 47
f 29 47 48
f 29 48 46
f 32 49 50
f 32 50 33
f 32 37 51
f 32 51 52
f 32 52 49
f 33 50 53
f 36 54 37
f 37 54 55
f 37 55 51
f 38 56 40
f 39 40 57
f 40 58 57
f 40 56 59
f 40 59 60
f 40 60 58
f 41 43 61
f 42 62 63
f 42 63 43
f 43 64 61
f 43 63 65
f 43 65 66
f 43 66 64
f 44 67 45
f 45 67 68
f 45 68 64
f 45 64 69
f 45 69 70
f 45 70 47
f 46 48 71
f 47 70 52
f 47 52 51
f 47 51 55
f 47 55 48
f 48 72 71
f 48 55 72
f 49 73 74
f 49 74 50
f 49 52 75
f 49 75 73
f 50 74 76
f 50 76 77
f 50 77 53
f 52 70 75
f 54 72 55
f 56 78 59
f 57 58 79
f 58 80 81
f 58 81 79
f 58 60 82
f 58 82 80
f 59 78 74
f 59 74 73
f 59 73 60
f 60 73 75
f 60 75 66
f 60 66 82
f 61 64 83
f 62 84 63
f 63 84 85
f 63 85 86
f 63 86 65
f 64 68 83
f 64 66 69
f 65 86 66
f 66 86 82
f 66 75 69
f 69 75 70
f 74 78 87
f 74 87 76
f 80 82 85
f 82 86 85

