# https://github.com/mikedh/trimesh
v -0.02801660 -0.03865833 -0.05127314
v -0.02801660 -0.04200270 -0.05127314
v -0.01573716 -0.04547188 -0.05127314
v -0.02801660 -0.02471460 -0.06607146
v -0.02801660 -0.04169299 -0.05186415
v -0.02680981 -0.04217373 -0.05252469
v -0.02647807 -0.04305663 -0.05127314
v -0.01573716 -0.04832626 -0.05127314
v -0.01573716 -0.03469686 -0.06607146
v -0.02801660 -0.02927700 -0.06607146
v -0.02801660 -0.03992721 -0.05470185
v -0.02773654 -0.04008668 -0.05478007
v -0.02537345 -0.04167913 -0.05485974
v -0.02440825 -0.04340794 -0.05306499
v -0.02540470 -0.04373613 -0.05127314
v -0.01624680 -0.04815523 -0.05127314
v -0.01573716 -0.04766293 -0.05271300
v -0.01573716 -0.03794185 -0.06607146
v -0.02718603 -0.03011367 -0.06607146
v -0.02801660 -0.03025003 -0.06528345
v -0.02801660 -0.03949038 -0.05530879
v -0.02649249 -0.03818684 -0.05863030
v -0.02383010 -0.04025540 -0.05837535
v -0.02250071 -0.04159361 -0.05764239
v -0.02158480 -0.04403890 -0.05460624
v -0.02184563 -0.04524306 -0.05232334
v -0.02271707 -0.04528698 -0.05127314
v -0.01573716 -0.04761671 -0.05281150
v -0.01906305 -0.04696956 -0.05127314
v -0.01573716 -0.03800425 -0.06600483
v -0.01590664 -0.03787251 -0.06607146
v -0.02688674 -0.03040257 -0.06607146
v -0.02694083 -0.03053200 -0.06593240
v -0.02801660 -0.03249887 -0.06327722
v -0.02801660 -0.03805510 -0.05726142
v -0.02294665 -0.03888714 -0.06080890
v -0.02801660 -0.03652737 -0.05911266
v -0.02489145 -0.03588946 -0.06253701
v -0.01940080 -0.04113599 -0.06054092
v -0.01989602 -0.04262443 -0.05817256
v -0.01830820 -0.04451964 -0.05639664
v -0.01798006 -0.04598266 -0.05416444
v -0.02119055 -0.04605893 -0.05127314
v -0.01573716 -0.04759360 -0.05285496
v -0.02014363 -0.04651194 -0.05127314
v -0.01573716 -0.03971457 -0.06414055
v -0.01594751 -0.03785402 -0.06607146
v -0.01636219 -0.03969377 -0.06387402
v -0.02531695 -0.03175927 -0.06607146
v -0.02514387 -0.03190719 -0.06607146
v -0.02772693 -0.03306512 -0.06301358
v -0.02801660 -0.03295881 -0.06286149
v -0.02135042 -0.03673076 -0.06414635
v -0.01907266 -0.03786789 -0.06439260
v -0.02801660 -0.03347652 -0.06233856
v -0.02512944 -0.03191875 -0.06607146
v -0.02231080 -0.03402429 -0.06607146
v -0.02163048 -0.03451196 -0.06607146
v -0.01588861 -0.04257588 -0.06074662
v -0.01678048 -0.04340331 -0.05911845
v -0.01573716 -0.04456587 -0.05792920
v -0.01573716 -0.04570300 -0.05604175
v -0.01573716 -0.04626694 -0.05510309
v -0.01573716 -0.04240486 -0.06101749
v -0.01597275 -0.03784246 -0.06607146
v -0.01891881 -0.03620610 -0.06607146
v -0.01995612 -0.03557051 -0.06607146
v -0.01573716 -0.04256202 -0.06082918
v -0.01573716 -0.04266140 -0.06070461
v -0.01573716 -0.04395801 -0.05889103
f 1 2 7
f 1 7 15
f 1 15 27
f 1 27 43
f 1 43 45
f 1 45 29
f 1 29 16
f 1 16 8
f 1 8 3
f 1 3 4
f 1 4 10
f 1 10 20
f 1 20 34
f 1 34 52
f 1 52 55
f 1 55 37
f 1 37 35
f 1 35 21
f 1 21 11
f 1 11 5
f 1 5 2
f 2 5 6
f 2 6 7
f 3 8 17
f 3 17 28
f 3 28 44
f 3 44 63
f 3 63 62
f 3 62 61
f 3 61 70
f 3 70 69
f 3 69 68
f 3 68 64
f 3 64 46
f 3 46 30
f 3 30 18
f 3 18 9
f 3 9 4
f 4 9 18
f 4 18 31
f 4 31 47
f 4 47 65
f 4 65 66
f 4 66 67
f 4 67 58
f 4 58 57
f 4 57 56
f 4 56 50
f 4 50 49
f 4 49 32
f 4 32 19
f 4 19 10
f 5 11 12
f 5 12 6
f 6 12 13
f 6 13 14
f 6 14 7
f 7 14 15
f 8 16 17
f 10 19 20
f 11 21 12
f 12 21 22
f 12 22 23
f 12 23 13
f 13 23 24
f 13 24 14
f 14 25 26
f 14 26 27
f 14 27 15
f 14 24 25
f 16 28 17
f 16 29 28
f 18 30 31
f 19 32 33
f 19 33 20
f 20 33 34
f 21 35 22
f 22 36 23
f 22 35 37
f 22 37 38
f 22 38 36
f 23 36 24
f 24 36 39
f 24 39 40
f 24 40 25
f 25 40 41
f 25 41 42
f 25 42 26
f 26 42 43
f 26 43 27
f 28 29 45
f 28 45 42
f 28 42 44
f 30 46 31
f 31 46 48
f 31 48 47
f 32 49 33
f 33 49 50
f 33 50 51
f 33 51 34
f 34 51 52
f 36 38 53
f 36 53 54
f 36 54 39
f 37 55 38
f 38 55 51
f 38 51 50
f 38 50 56
f 38 56 57
f 38 57 58
f 38 58 53
f 39 54 48
f 39 48 59
f 39 59 60
f 39 60 40
f 40 60 41
f 41 60 61
f 41 61 62
f 41 62 63
f 41 63 42
f 42 63 44
f 42 45 43
f 46 64 48
f 47 48 65
f 48 64 59
f 48 54 65
f 51 55 52
f 53 66 54
f 53 58 67
f 53 67 66
f 54 66 65
f 59 68 69
f 59 69 70
f 59 70 60
f 59 64 68
f 60 70 61

