# https://github.com/mikedh/trimesh
v 0.03614252 0.01201853 0.07317685
v 0.03583867 0.01269243 0.07318284
v 0.03512774 0.01340345 0.07372238
v 0.03599450 0.01201853 0.07334470
v 0.03605877 0.01201853 0.07166612
v 0.03596528 0.01201853 0.07052109
v 0.03484531 0.01449137 0.07227761
v 0.03432526 0.01540940 0.07332072
v 0.03310596 0.01671895 0.07396217
v 0.03295987 0.01635106 0.07412405
v 0.03504593 0.01260917 0.07381231
v 0.03548028 0.01201853 0.07372838
v 0.03586789 0.01201853 0.06948397
v 0.03258980 0.01802400 0.07300299
v 0.03509852 0.01333145 0.06858473
v 0.02925327 0.01275430 0.01351538
v 0.02724707 0.01621943 0.01351538
v 0.03376041 0.01525864 0.06658842
v 0.03314491 0.01665707 0.06898040
v 0.03267745 0.01776411 0.07374037
v 0.03030701 0.02017283 0.07430389
v 0.02871179 0.02139237 0.07456167
v 0.02651081 0.02351195 0.07475351
v 0.03524266 0.01201853 0.07373437
v 0.02643875 0.02351195 0.07475351
v 0.02589532 0.02351195 0.07471754
v 0.03524071 0.01201853 0.06389670
v 0.02928054 0.01269693 0.01351538
v 0.03087381 0.01965418 0.06915425
v 0.03068293 0.02039671 0.07293705
v 0.03144841 0.01937967 0.07380032
v 0.02525840 0.01905116 0.01351538
v 0.02723733 0.01623406 0.01351538
v 0.02766974 0.02293480 0.07449573
v 0.03032649 0.02071734 0.07386626
v 0.02674260 0.02351195 0.07466958
v 0.03481805 0.01201853 0.07357851
v 0.02587390 0.02351195 0.07469955
v 0.02956492 0.01201853 0.01351538
v 0.02935650 0.02147337 0.06992760
v 0.02844690 0.02278967 0.07294304
v 0.02305937 0.02144975 0.01351538
v 0.02847027 0.02268504 0.07391422
v 0.02749054 0.02351195 0.07408208
v 0.02713410 0.02351195 0.07445376
v 0.03475571 0.01201853 0.07350057
v 0.02530515 0.02351195 0.07421996
v 0.02673871 0.01201853 0.01351538
v 0.02761520 0.02301805 0.06758358
v 0.02722175 0.02351195 0.06883053
v 0.02763468 0.02351195 0.07260733
v 0.02767558 0.02351195 0.07314686
v 0.02762104 0.02351195 0.07378833
v 0.02100837 0.02321156 0.01351538
v 0.02699776 0.02351195 0.06690016
v 0.03449666 0.01201853 0.07317085
v 0.02471887 0.02351195 0.07295503
v 0.02674844 0.01201853 0.01401296
v 0.01624413 0.02351195 0.01460046
v 0.01626556 0.02351195 0.01351538
v 0.02059934 0.02351195 0.01351538
v 0.03417528 0.01201853 0.07189393
v 0.03243398 0.01201853 0.06076736
v 0.03306116 0.01201853 0.06486788
v 0.03341565 0.01201853 0.06715195
v 0.01925343 0.02351195 0.03644596
v 0.02697633 0.01201853 0.01699843
v 0.01628114 0.02351195 0.01548171
v 0.03203858 0.01201853 0.05787181
v 0.01805556 0.02351195 0.02840077
v 0.01646813 0.02351195 0.01702840
v 0.03182043 0.01201853 0.05611530
f 1 2 3
f 1 3 4
f 1 4 12
f 1 12 24
f 1 24 37
f 1 37 46
f 1 46 56
f 1 56 62
f 1 62 65
f 1 65 64
f 1 64 63
f 1 63 69
f 1 69 72
f 1 72 67
f 1 67 58
f 1 58 48
f 1 48 39
f 1 39 27
f 1 27 13
f 1 13 6
f 1 6 5
f 1 5 2
f 2 5 6
f 2 6 7
f 2 7 8
f 2 8 3
f 3 9 10
f 3 10 11
f 3 11 12
f 3 12 4
f 3 8 9
f 6 13 7
f 7 14 8
f 7 13 15
f 7 15 16
f 7 16 17
f 7 17 18
f 7 18 19
f 7 19 14
f 8 14 20
f 8 20 9
f 9 20 21
f 9 21 10
f 10 21 22
f 10 22 23
f 10 23 11
f 11 24 12
f 11 23 25
f 11 25 26
f 11 26 24
f 13 27 28
f 13 28 16
f 13 16 15
f 14 29 30
f 14 30 31
f 14 31 20
f 14 19 32
f 14 32 29
f 16 28 39
f 16 39 48
f 16 48 60
f 16 60 61
f 16 61 54
f 16 54 42
f 16 42 32
f 16 32 33
f 16 33 17
f 17 33 19
f 17 19 18
f 19 33 32
f 20 31 21
f 21 34 22
f 21 31 35
f 21 35 34
f 22 34 36
f 22 36 23
f 23 36 45
f 23 45 44
f 23 44 53
f 23 53 52
f 23 52 51
f 23 51 50
f 23 50 55
f 23 55 61
f 23 61 60
f 23 60 59
f 23 59 68
f 23 68 71
f 23 71 70
f 23 70 66
f 23 66 57
f 23 57 47
f 23 47 38
f 23 38 26
f 23 26 25
f 24 26 37
f 26 38 37
f 27 39 28
f 29 32 30
f 30 40 41
f 30 41 35
f 30 35 31
f 30 32 42
f 30 42 40
f 34 35 43
f 34 43 44
f 34 44 45
f 34 45 36
f 35 41 43
f 37 38 47
f 37 47 46
f 40 42 41
f 41 42 49
f 41 49 50
f 41 50 51
f 41 51 52
f 41 52 53
f 41 53 43
f 42 54 55
f 42 55 50
f 42 50 49
f 43 53 44
f 46 47 56
f 47 57 56
f 48 58 59
f 48 59 60
f 54 61 55
f 56 57 62
f 57 63 64
f 57 64 65
f 57 65 62
f 57 66 63
f 58 67 68
f 58 68 59
f 63 66 70
f 63 70 71
f 63 71 69
f 67 71 68
f 67 72 71
f 69 71 72

