# https://github.com/mikedh/trimesh
v 0.00668370 0.03269824 0.07494099
v 0.00668370 0.03322658 0.07490487
v 0.00505376 0.03323049 0.07500119
v -0.00911464 0.03214956 0.07501323
v -0.00911464 0.03209173 0.07500119
v -0.00911464 0.03164857 0.07480253
v 0.00668370 0.03228478 0.07469418
v 0.00668370 0.03330709 0.07487477
v 0.00627080 0.03338290 0.07488079
v -0.00286242 0.03327504 0.07500119
v 0.00322124 0.03372914 0.07489885
v -0.00033710 0.03377291 0.07493497
v -0.00639911 0.03290692 0.07498915
v -0.00875587 0.03271778 0.07485069
v -0.00911464 0.03262633 0.07484467
v -0.00911464 0.03161887 0.07476039
v 0.00668370 0.03216989 0.07454970
v 0.00668370 0.03361425 0.07464000
v 0.00668370 0.03369397 0.07457379
v 0.00250060 0.03406913 0.07465806
v -0.00149847 0.03407929 0.07467611
v -0.00391708 0.03367521 0.07482661
v -0.00734088 0.03321017 0.07474835
v -0.00911464 0.03268886 0.07477845
v -0.00911464 0.03114445 0.07395977
v 0.00668370 0.03193854 0.07407414
v 0.00668370 0.03373618 0.07449552
v 0.00624142 0.03393001 0.07423066
v 0.00214183 0.03430361 0.07427279
v -0.00137320 0.03430282 0.07428483
v -0.00392018 0.03409961 0.07427279
v -0.00528722 0.03374165 0.07460990
v -0.00844039 0.03327113 0.07432697
v -0.00911464 0.03306480 0.07436309
v -0.00911464 0.03086152 0.07262940
v 0.00668370 0.03186663 0.07392365
v 0.00668370 0.03384091 0.07424871
v 0.00668370 0.03385967 0.07414638
v 0.00551615 0.03409883 0.07374907
v 0.00285783 0.03432705 0.07326148
v -0.00035411 0.03440990 0.07376111
v -0.00406399 0.03415432 0.07376111
v -0.00582383 0.03383544 0.07427881
v -0.00673932 0.03373461 0.07374907
v -0.00911464 0.03316406 0.07380325
v -0.00911464 0.03313670 0.07406812
v -0.00911464 0.03085839 0.07261134
v 0.00668370 0.03163997 0.07238259
v 0.00668370 0.03389327 0.07374907
v 0.00460530 0.03402067 0.07084755
v 0.00668370 0.03371742 0.07065492
v 0.00668370 0.03348919 0.06698287
v 0.00617493 0.03333366 0.06316032
v 0.00584244 0.03028706 0.01351538
v 0.00186657 0.03082400 0.01351538
v 0.00086293 0.03085839 0.01351538
v -0.00105464 0.03081540 0.01351538
v -0.00173043 0.03078414 0.01351538
v -0.00389698 0.03058015 0.01351538
v -0.00462999 0.03050590 0.01351538
v -0.00911464 0.03306792 0.07212976
v -0.00787440 0.02979309 0.01351538
v -0.00911464 0.03038006 0.06752464
v 0.00668370 0.03122339 0.06765106
v 0.00668370 0.03007212 0.01351538
v 0.00586409 0.03028237 0.01351538
v -0.00805533 0.02974854 0.01351538
v -0.00911464 0.02938746 0.01351538
v -0.00911464 0.02763984 0.03576440
v -0.00911464 0.02724983 0.03091248
v 0.00668370 0.02821274 0.02981688
v 0.00668370 0.02749603 0.01351538
v -0.00911464 0.02660659 0.01351538
v -0.00911464 0.02665192 0.02042606
v 0.00668370 0.02752807 0.01869839
v -0.00911464 0.02642526 0.01436416
v -0.00911464 0.02644793 0.01423775
v 0.00668370 0.02737566 0.01478555
v -0.00911464 0.02654797 0.01834322
f 1 2 3
f 1 3 4
f 1 4 5
f 1 5 6
f 1 6 7
f 1 7 17
f 1 17 26
f 1 26 36
f 1 36 48
f 1 48 64
f 1 64 71
f 1 71 75
f 1 75 78
f 1 78 72
f 1 72 65
f 1 65 52
f 1 52 51
f 1 51 49
f 1 49 38
f 1 38 37
f 1 37 27
f 1 27 19
f 1 19 18
f 1 18 8
f 1 8 2
f 2 8 9
f 2 9 3
f 3 10 4
f 3 9 11
f 3 11 12
f 3 12 10
f 4 10 13
f 4 13 14
f 4 14 15
f 4 15 24
f 4 24 34
f 4 34 46
f 4 46 45
f 4 45 61
f 4 61 68
f 4 68 73
f 4 73 77
f 4 77 76
f 4 76 79
f 4 79 74
f 4 74 70
f 4 70 69
f 4 69 63
f 4 63 47
f 4 47 35
f 4 35 25
f 4 25 16
f 4 16 6
f 4 6 5
f 6 16 17
f 6 17 7
f 8 18 9
f 9 18 19
f 9 19 11
f 10 12 13
f 11 19 20
f 11 20 12
f 12 20 21
f 12 21 22
f 12 22 13
f 13 22 23
f 13 23 14
f 14 23 15
f 15 23 24
f 16 25 17
f 17 25 26
f 19 27 28
f 19 28 20
f 20 28 29
f 20 29 21
f 21 29 30
f 21 30 31
f 21 31 32
f 21 32 22
f 22 32 23
f 23 32 33
f 23 33 34
f 23 34 24
f 25 35 36
f 25 36 26
f 27 37 28
f 28 37 38
f 28 38 39
f 28 39 29
f 29 39 40
f 29 40 41
f 29 41 30
f 30 41 42
f 30 42 31
f 31 42 43
f 31 43 32
f 32 43 33
f 33 43 44
f 33 44 45
f 33 45 46
f 33 46 34
f 35 47 36
f 36 47 48
f 38 49 39
f 39 50 40
f 39 49 51
f 39 51 52
f 39 52 53
f 39 53 54
f 39 54 55
f 39 55 50
f 40 50 55
f 40 55 56
f 40 56 41
f 41 56 57
f 41 57 58
f 41 58 42
f 42 44 43
f 42 58 59
f 42 59 60
f 42 60 44
f 44 61 45
f 44 60 62
f 44 62 61
f 47 63 48
f 48 63 64
f 52 65 66
f 52 66 54
f 52 54 53
f 54 66 65
f 54 65 72
f 54 72 73
f 54 73 68
f 54 68 67
f 54 67 62
f 54 62 60
f 54 60 59
f 54 59 58
f 54 58 57
f 54 57 56
f 54 56 55
f 61 62 67
f 61 67 68
f 63 69 64
f 64 69 70
f 64 70 71
f 70 74 75
f 70 75 71
f 72 76 77
f 72 77 73
f 72 78 76
f 74 79 75
f 75 79 78
f 76 78 79

