# https://github.com/mikedh/trimesh
v 0.02767726 0.02351297 0.07314719
v 0.02763410 0.02351297 0.07261153
v 0.02621207 0.02477510 0.07202172
v 0.02607439 0.02501391 0.07356849
v 0.02761972 0.02351297 0.07379117
v 0.02722106 0.02351297 0.06882586
v 0.02530172 0.02486554 0.06501612
v 0.02392900 0.02640104 0.06960226
v 0.02310701 0.02727499 0.07353237
v 0.02408107 0.02649149 0.07421247
v 0.02584834 0.02489705 0.07435691
v 0.02749026 0.02351297 0.07408006
v 0.02699707 0.02351297 0.06689993
v 0.02354472 0.02602708 0.06259666
v 0.02059584 0.02351297 0.01352139
v 0.02200144 0.02792029 0.07178699
v 0.01855115 0.02506879 0.01352139
v 0.02180005 0.02754530 0.06554575
v 0.02070064 0.02883285 0.07391155
v 0.02248435 0.02741726 0.07451941
v 0.02392694 0.02609720 0.07469997
v 0.02713475 0.02351297 0.07445321
v 0.02608877 0.02391945 0.07479627
v 0.01626602 0.02351297 0.01352139
v 0.02017046 0.02899544 0.07105875
v 0.01639754 0.02651384 0.01352139
v 0.01770450 0.03051468 0.07384533
v 0.01999373 0.02906861 0.07441710
v 0.01907722 0.02903304 0.07485646
v 0.02171785 0.02729735 0.07488655
v 0.02674225 0.02351297 0.07466988
v 0.02346458 0.02573441 0.07485646
v 0.00828041 0.03262231 0.07499488
v 0.00668370 0.03269853 0.07494071
v 0.02643812 0.02351297 0.07475414
v 0.02651209 0.02351297 0.07475414
v 0.00668370 0.02749551 0.01352139
v 0.01625780 0.02351297 0.01393066
v 0.00668370 0.02737661 0.01478529
v 0.01922517 0.02893447 0.06345130
v 0.01848539 0.02962651 0.06700826
v 0.01293492 0.02820178 0.01352139
v 0.01681470 0.03039375 0.06637632
v 0.01476589 0.03175954 0.07377914
v 0.01673250 0.03089576 0.07423655
v 0.01742708 0.03035209 0.07459164
v 0.01518305 0.03092015 0.07488655
v 0.01790589 0.02940802 0.07490460
v 0.01583448 0.03012852 0.07494071
v 0.02022184 0.02784610 0.07491063
v 0.01051827 0.03207558 0.07498284
v 0.01216019 0.03198006 0.07491664
v 0.00989767 0.03272190 0.07485044
v 0.00668370 0.03322696 0.07490460
v 0.00668370 0.03228493 0.07469396
v 0.02589355 0.02351297 0.07471803
v 0.00668370 0.03007161 0.01352139
v 0.01624547 0.02351297 0.01459871
v 0.01628041 0.02351297 0.01548344
v 0.00668370 0.02752803 0.01869735
v 0.01009289 0.02918547 0.01352139
v 0.01337057 0.03132257 0.05984619
v 0.01519538 0.03073113 0.06135684
v 0.01165673 0.03277881 0.07376710
v 0.01362333 0.03208270 0.07435691
v 0.01376718 0.03157967 0.06561196
v 0.01475151 0.03149329 0.07461571
v 0.01354524 0.03122705 0.07495275
v 0.01156014 0.03262739 0.07449535
v 0.00668370 0.03330724 0.07487451
v 0.00954627 0.03326049 0.07435089
v 0.00680494 0.03368222 0.07456756
v 0.00668370 0.03361414 0.07463979
v 0.00668370 0.03217009 0.07454951
v 0.02530377 0.02351297 0.07421849
v 0.00668370 0.03348914 0.06698418
v 0.00704538 0.03359889 0.06969855
v 0.00876538 0.03352674 0.07376108
v 0.00928529 0.03300441 0.06729113
v 0.00980725 0.02926982 0.01352139
v 0.01646741 0.02351297 0.01702419
v 0.00668370 0.02821295 0.02981361
v 0.01805384 0.02351297 0.02839925
v 0.01925189 0.02351297 0.03644606
v 0.02471605 0.02351297 0.07295459
v 0.01169372 0.03183982 0.05963554
v 0.01141424 0.03255930 0.06923513
v 0.00668370 0.03384075 0.07424858
v 0.00668370 0.03373608 0.07449535
v 0.00668370 0.03369340 0.07457358
v 0.00668370 0.03193840 0.07407404
v 0.00668370 0.03186624 0.07392358
v 0.00668370 0.03371677 0.07065551
v 0.00668370 0.03389258 0.07374904
v 0.00668370 0.03385904 0.07414627
v 0.00668370 0.03122298 0.06765225
v 0.00668370 0.03163963 0.07238283
f 1 2 3
f 1 3 4
f 1 4 5
f 1 5 12
f 1 12 22
f 1 22 31
f 1 31 36
f 1 36 35
f 1 35 56
f 1 56 75
f 1 75 85
f 1 85 84
f 1 84 83
f 1 83 81
f 1 81 59
f 1 59 58
f 1 58 38
f 1 38 24
f 1 24 15
f 1 15 13
f 1 13 6
f 1 6 2
f 2 6 3
f 3 6 7
f 3 7 8
f 3 8 4
f 4 9 10
f 4 10 11
f 4 11 12
f 4 12 5
f 4 8 9
f 6 13 7
f 7 14 8
f 7 13 15
f 7 15 14
f 8 16 9
f 8 14 17
f 8 17 18
f 8 18 16
f 9 19 10
f 9 16 19
f 10 19 20
f 10 20 21
f 10 21 11
f 11 22 12
f 11 21 23
f 11 23 22
f 14 15 17
f 15 24 37
f 15 37 57
f 15 57 80
f 15 80 61
f 15 61 42
f 15 42 26
f 15 26 17
f 16 18 25
f 16 25 19
f 17 26 18
f 18 26 25
f 19 25 27
f 19 27 28
f 19 28 20
f 20 29 30
f 20 30 21
f 20 28 29
f 21 30 23
f 22 23 31
f 23 30 32
f 23 32 33
f 23 33 34
f 23 34 35
f 23 35 36
f 23 36 31
f 24 38 39
f 24 39 37
f 25 26 40
f 25 40 41
f 25 41 27
f 26 42 43
f 26 43 41
f 26 41 40
f 27 44 45
f 27 45 28
f 27 41 43
f 27 43 44
f 28 45 46
f 28 46 29
f 29 47 48
f 29 48 30
f 29 46 47
f 30 48 49
f 30 49 50
f 30 50 32
f 32 50 33
f 33 51 52
f 33 52 53
f 33 53 54
f 33 54 34
f 33 50 51
f 34 54 70
f 34 70 73
f 34 73 90
f 34 90 89
f 34 89 88
f 34 88 95
f 34 95 94
f 34 94 93
f 34 93 76
f 34 76 57
f 34 57 37
f 34 37 39
f 34 39 60
f 34 60 82
f 34 82 96
f 34 96 97
f 34 97 92
f 34 92 91
f 34 91 74
f 34 74 55
f 34 55 56
f 34 56 35
f 38 58 39
f 39 58 59
f 39 59 60
f 42 61 62
f 42 62 63
f 42 63 43
f 43 63 44
f 44 64 65
f 44 65 45
f 44 63 66
f 44 66 64
f 45 65 67
f 45 67 46
f 46 67 47
f 47 52 68
f 47 68 48
f 47 67 52
f 48 68 49
f 49 68 51
f 49 51 50
f 51 68 52
f 52 67 69
f 52 69 53
f 53 70 54
f 53 69 71
f 53 71 72
f 53 72 73
f 53 73 70
f 55 74 56
f 56 74 75
f 57 76 77
f 57 77 78
f 57 78 79
f 57 79 80
f 59 81 60
f 60 81 83
f 60 83 84
f 60 84 85
f 60 85 82
f 61 80 86
f 61 86 62
f 62 86 66
f 62 66 63
f 64 78 71
f 64 71 65
f 64 66 87
f 64 87 79
f 64 79 78
f 65 71 69
f 65 69 67
f 66 86 87
f 71 78 88
f 71 88 89
f 71 89 72
f 72 89 90
f 72 90 73
f 74 91 75
f 75 91 92
f 75 92 85
f 76 93 77
f 77 93 94
f 77 94 78
f 78 94 95
f 78 95 88
f 79 87 80
f 80 87 86
f 82 85 96
f 85 92 97
f 85 97 96

