# https://github.com/mikedh/trimesh
v 0.02878357 0.01356384 0.01351538
v 0.02925637 0.01275176 0.01351538
v 0.03725489 0.02109804 -0.00047674
v 0.03549264 0.02109804 0.00135420
v 0.03514097 0.02109804 0.00171855
v 0.03498077 0.02109804 0.00186750
v 0.03471310 0.02109804 0.00211040
v 0.03258551 0.02109804 0.00397800
v 0.02878357 0.02109804 0.00711283
v 0.02878357 0.00743322 0.01351538
v 0.02928177 0.01269358 0.01351538
v 0.03900152 0.01792970 -0.00067381
v 0.03919689 0.02091138 -0.00254600
v 0.03747762 0.02046534 -0.00033467
v 0.03893314 0.02109804 -0.00236497
v 0.02878357 0.02109804 0.00423924
v 0.02878357 0.00737989 0.01321060
v 0.03005153 -0.00366686 0.01224816
v 0.03017657 -0.00366686 0.01351538
v 0.03074706 0.00922465 0.01351538
v 0.04076963 0.01762668 -0.00265141
v 0.04087513 0.01544497 -0.00170042
v 0.04070907 0.02088471 -0.00446401
v 0.03924573 0.02109804 -0.00272932
v 0.03911678 0.02109804 -0.00257808
v 0.04101971 0.02109804 -0.00989495
v 0.02878357 0.02109561 0.00423924
v 0.02878357 0.00737262 0.01316248
v 0.03033092 -0.00366686 0.01080907
v 0.02878357 0.00790350 0.01203275
v 0.02878357 0.00927798 0.01062117
v 0.02878357 0.01084397 0.00930353
v 0.02878357 0.01103063 0.00915459
v 0.02878357 0.01186453 0.00852212
v 0.03256011 -0.00366686 0.01351538
v 0.03120813 0.00800774 0.01351538
v 0.04230721 0.01732609 -0.00451443
v 0.04041796 0.01357596 -0.00040112
v 0.04303008 0.01117365 -0.00283932
v 0.04281908 0.01475409 -0.00393467
v 0.04076573 0.02109804 -0.00469546
v 0.04059380 0.02109804 -0.00445485
v 0.04227595 0.01960477 -0.00585268
v 0.04407923 0.02109804 -0.00989495
v 0.04597629 -0.00366686 -0.00989495
v 0.02878357 0.01418200 0.00737177
v 0.03188998 -0.00366686 0.00737635
v 0.03141718 -0.00366686 0.00807069
v 0.03136834 -0.00366686 0.00814402
v 0.03089749 -0.00366686 0.00910417
v 0.04399717 -0.00321598 -0.00227560
v 0.03258160 -0.00342203 0.01351538
v 0.04433712 -0.00366686 -0.00280953
v 0.03209512 0.00470123 0.01351538
v 0.04387995 0.01818423 -0.00744301
v 0.04451296 0.01547648 -0.00686784
v 0.04291286 0.00825985 -0.00181500
v 0.04518503 0.00874225 -0.00519272
v 0.04406751 0.01252389 -0.00479858
v 0.04190083 0.02109804 -0.00636599
v 0.04338761 0.02109804 -0.00862774
v 0.04351851 0.02109804 -0.00884085
v 0.04462237 0.01977689 -0.00989495
v 0.04860990 -0.00366686 -0.00989495
v 0.04552889 -0.00165726 -0.00438381
v 0.04345795 0.00100928 -0.00143919
v 0.03266365 -0.00213724 0.01351538
v 0.04533352 -0.00366686 -0.00427153
v 0.03228072 0.00361037 0.01351538
v 0.04346381 0.00642721 -0.00212894
v 0.04523583 0.01743275 -0.00924416
v 0.04348139 0.02109804 -0.00877898
v 0.04509321 0.01316871 -0.00667764
v 0.04673043 0.01384989 -0.00989495
v 0.04573989 0.00640782 -0.00544479
v 0.04728724 0.00817016 -0.00848795
v 0.04661711 0.01119062 -0.00836421
v 0.04539995 0.01784728 -0.00989495
v 0.04866851 -0.00267297 -0.00989495
v 0.04846923 -0.00221481 -0.00941602
v 0.04821916 -0.00366686 -0.00907458
v 0.04623223 -0.00366686 -0.00565103
v 0.04693166 -0.00011794 -0.00651952
v 0.04536673 0.00155956 -0.00416382
v 0.04477476 0.00413641 -0.00355198
v 0.03248196 0.00218983 0.01351538
v 0.03263826 -0.00030217 0.01351538
v 0.03264021 -0.00043065 0.01351538
v 0.04575943 0.01686793 -0.00989495
v 0.04648621 0.01462561 -0.00989495
v 0.04684960 0.01343779 -0.00989495
v 0.04677341 0.01370444 -0.00989495
v 0.04648230 0.00251951 -0.00598330
v 0.04737515 0.00506242 -0.00781653
v 0.04808044 0.00775321 -0.00986746
v 0.04731459 0.01153242 -0.00989495
v 0.04869587 -0.00213966 -0.00989495
v 0.04729896 -0.00257843 -0.00729406
v 0.04778934 -0.00366686 -0.00828171
v 0.04854543 0.00029901 -0.00946185
v 0.04683202 -0.00366686 -0.00661577
v 0.04736929 0.00223346 -0.00744072
v 0.04845361 0.00348674 -0.00956497
v 0.04857864 0.00377279 -0.00989495
v 0.04809608 0.00773139 -0.00989495
v 0.04808240 0.00780411 -0.00989495
v 0.04874080 -0.00001370 -0.00989495
v 0.04873885 0.00057536 -0.00989495
v 0.04861772 0.00328311 -0.00989495
f 1 2 3
f 1 3 4
f 1 4 5
f 1 5 6
f 1 6 7
f 1 7 8
f 1 8 9
f 1 9 16
f 1 16 27
f 1 27 46
f 1 46 34
f 1 34 33
f 1 33 32
f 1 32 31
f 1 31 30
f 1 30 28
f 1 28 17
f 1 17 10
f 1 10 19
f 1 19 35
f 1 35 52
f 1 52 67
f 1 67 88
f 1 88 87
f 1 87 86
f 1 86 69
f 1 69 54
f 1 54 36
f 1 36 20
f 1 20 11
f 1 11 2
f 2 11 12
f 2 12 13
f 2 13 14
f 2 14 3
f 3 15 25
f 3 25 24
f 3 24 42
f 3 42 41
f 3 41 60
f 3 60 61
f 3 61 72
f 3 72 62
f 3 62 44
f 3 44 26
f 3 26 16
f 3 16 9
f 3 9 8
f 3 8 7
f 3 7 6
f 3 6 5
f 3 5 4
f 3 14 15
f 10 17 18
f 10 18 19
f 11 20 12
f 12 21 13
f 12 20 22
f 12 22 21
f 13 21 23
f 13 23 24
f 13 24 25
f 13 25 15
f 13 15 14
f 16 26 27
f 17 28 18
f 18 29 50
f 18 50 49
f 18 49 48
f 18 48 47
f 18 47 45
f 18 45 64
f 18 64 81
f 18 81 99
f 18 99 101
f 18 101 82
f 18 82 68
f 18 68 53
f 18 53 35
f 18 35 19
f 18 28 30
f 18 30 31
f 18 31 32
f 18 32 33
f 18 33 34
f 18 34 29
f 20 36 22
f 21 37 23
f 21 22 37
f 22 36 38
f 22 38 39
f 22 39 40
f 22 40 37
f 23 41 42
f 23 42 24
f 23 37 43
f 23 43 41
f 26 44 63
f 26 63 78
f 26 78 89
f 26 89 90
f 26 90 74
f 26 74 92
f 26 92 91
f 26 91 96
f 26 96 106
f 26 106 105
f 26 105 104
f 26 104 109
f 26 109 108
f 26 108 107
f 26 107 97
f 26 97 79
f 26 79 64
f 26 64 45
f 26 45 27
f 27 45 47
f 27 47 48
f 27 48 49
f 27 49 50
f 27 50 46
f 29 34 46
f 29 46 50
f 35 51 52
f 35 53 51
f 36 39 38
f 36 54 39
f 37 55 43
f 37 40 56
f 37 56 55
f 39 54 57
f 39 57 58
f 39 58 59
f 39 59 40
f 40 59 56
f 41 43 60
f 43 55 61
f 43 61 60
f 44 62 63
f 51 65 66
f 51 66 67
f 51 67 52
f 51 53 65
f 53 68 65
f 54 69 70
f 54 70 57
f 55 56 71
f 55 71 62
f 55 62 72
f 55 72 61
f 56 59 73
f 56 73 74
f 56 74 71
f 57 70 58
f 58 70 75
f 58 75 76
f 58 76 77
f 58 77 59
f 59 77 73
f 62 71 63
f 63 71 78
f 64 79 80
f 64 80 81
f 65 68 82
f 65 82 83
f 65 83 84
f 65 84 66
f 66 84 85
f 66 85 86
f 66 86 87
f 66 87 88
f 66 88 67
f 69 86 70
f 70 86 85
f 70 85 75
f 71 89 78
f 71 74 90
f 71 90 89
f 73 77 91
f 73 91 92
f 73 92 74
f 75 85 93
f 75 93 94
f 75 94 76
f 76 94 95
f 76 95 77
f 77 95 96
f 77 96 91
f 79 97 80
f 80 98 99
f 80 99 81
f 80 97 100
f 80 100 83
f 80 83 98
f 82 101 83
f 83 100 102
f 83 102 93
f 83 93 84
f 83 101 98
f 84 93 85
f 93 102 94
f 94 102 103
f 94 103 95
f 95 103 104
f 95 104 105
f 95 105 106
f 95 106 96
f 97 107 100
f 98 101 99
f 100 107 108
f 100 108 103
f 100 103 102
f 103 108 109
f 103 109 104

