# https://github.com/mikedh/trimesh
v -0.04769652 -0.00485932 -0.00754250
v -0.04756722 -0.00621023 -0.00754250
v -0.04651080 -0.00755551 -0.00593266
v -0.04717932 -0.00485932 -0.00664585
v -0.04487941 -0.00485932 -0.00754250
v -0.04706377 -0.00976199 -0.00754250
v -0.04700875 -0.01008658 -0.00754250
v -0.04552041 -0.01018415 -0.00499066
v -0.04535259 -0.00653482 -0.00389200
v -0.04648879 -0.00485932 -0.00551628
v -0.03844185 -0.02402721 -0.00754250
v -0.03128076 -0.00485932 0.00865698
v -0.02030115 -0.02402721 0.01038019
v -0.02164369 -0.02402721 0.00880333
v -0.02257355 -0.02402721 0.00789431
v -0.04654932 -0.01202852 -0.00754250
v -0.04638425 -0.01267583 -0.00754250
v -0.04446949 -0.01375092 -0.00476186
v -0.04401556 -0.01055002 -0.00284694
v -0.04534159 -0.00485932 -0.00364259
v -0.04377897 -0.00604887 -0.00149475
v -0.04432644 -0.00485932 -0.00213787
v -0.04177067 -0.02402721 -0.00754250
v -0.03012530 -0.00485932 0.01055128
v -0.02019936 -0.02402721 0.01055334
v -0.04590281 -0.01440762 -0.00754250
v -0.04497294 -0.01705127 -0.00744563
v -0.04289312 -0.01659909 -0.00386933
v -0.04270604 -0.01212233 -0.00158957
v -0.04255748 -0.00876382 -0.00044145
v -0.04193849 -0.00524208 0.00101999
v -0.04358639 -0.00485932 -0.00110311
v -0.04186971 -0.02385272 -0.00754250
v -0.04033185 -0.02402721 -0.00531840
v -0.02997949 -0.00485932 0.01087284
v -0.01959137 -0.02402721 0.01200241
v -0.02941002 -0.00485932 0.01215082
v -0.04509674 -0.01684676 -0.00754250
v -0.04501145 -0.01707941 -0.00754250
v -0.04484914 -0.01748469 -0.00754250
v -0.04238416 -0.02083381 -0.00580692
v -0.04090683 -0.01975684 -0.00291703
v -0.04124246 -0.01711694 -0.00182662
v -0.04095085 -0.01381472 0.00001615
v -0.03071404 -0.01158572 0.01351538
v -0.04065373 -0.01079956 0.00138277
v -0.03129176 -0.00906965 0.01351538
v -0.03193277 -0.00560795 0.01351538
v -0.04211456 -0.00485932 0.00083241
v -0.04050242 -0.02289582 -0.00459490
v -0.04218609 -0.02326357 -0.00754250
v -0.03975962 -0.02402721 -0.00451038
v -0.01965740 -0.02402721 0.01254246
v -0.02932198 -0.00485932 0.01245177
v -0.02930548 -0.00485932 0.01351538
v -0.04368818 -0.02023153 -0.00754250
v -0.03854639 -0.02343994 -0.00238934
v -0.03929744 -0.02004203 -0.00103715
v -0.03916814 -0.01800066 0.00020373
v -0.02972089 -0.01409240 0.01351538
v -0.04005674 -0.01567597 0.00029030
v -0.03127801 -0.00913157 0.01351538
v -0.03198229 -0.00485932 0.01351538
v -0.03868945 -0.02402721 -0.00306132
v -0.01970967 -0.02402721 0.01282691
v -0.01983622 -0.02402721 0.01351538
v -0.03714333 -0.02165937 0.00040367
v -0.03817225 -0.02402721 -0.00238728
v -0.02739897 -0.01887875 0.01351538
v -0.02860395 -0.01670041 0.01351538
v -0.02353919 -0.02402721 0.01351538
v -0.03586408 -0.02402721 0.00018930
v -0.02533015 -0.02191829 0.01351538
v -0.02483495 -0.02253746 0.01351538
f 1 2 3
f 1 3 4
f 1 4 10
f 1 10 20
f 1 20 22
f 1 22 32
f 1 32 49
f 1 49 63
f 1 63 55
f 1 55 54
f 1 54 37
f 1 37 35
f 1 35 24
f 1 24 12
f 1 12 5
f 1 5 11
f 1 11 23
f 1 23 33
f 1 33 51
f 1 51 56
f 1 56 40
f 1 40 39
f 1 39 38
f 1 38 26
f 1 26 17
f 1 17 16
f 1 16 7
f 1 7 6
f 1 6 2
f 2 6 3
f 3 6 7
f 3 7 8
f 3 8 9
f 3 9 4
f 4 9 10
f 5 12 13
f 5 13 14
f 5 14 15
f 5 15 11
f 7 16 8
f 8 16 17
f 8 17 18
f 8 18 19
f 8 19 9
f 9 20 10
f 9 19 21
f 9 21 22
f 9 22 20
f 11 15 14
f 11 14 13
f 11 13 25
f 11 25 36
f 11 36 53
f 11 53 65
f 11 65 66
f 11 66 71
f 11 71 72
f 11 72 68
f 11 68 64
f 11 64 52
f 11 52 34
f 11 34 23
f 12 24 13
f 13 24 25
f 17 26 18
f 18 26 27
f 18 27 28
f 18 28 29
f 18 29 19
f 19 29 30
f 19 30 21
f 21 30 31
f 21 31 32
f 21 32 22
f 23 34 33
f 24 35 25
f 25 35 37
f 25 37 36
f 26 38 27
f 27 38 39
f 27 39 40
f 27 40 41
f 27 41 28
f 28 41 42
f 28 42 43
f 28 43 29
f 29 43 44
f 29 44 45
f 29 45 46
f 29 46 30
f 30 46 47
f 30 47 48
f 30 48 31
f 31 49 32
f 31 48 49
f 33 34 50
f 33 50 41
f 33 41 51
f 34 52 50
f 36 37 54
f 36 54 55
f 36 55 53
f 40 56 41
f 41 56 51
f 41 50 42
f 42 50 57
f 42 57 58
f 42 58 43
f 43 58 59
f 43 59 60
f 43 60 45
f 43 45 61
f 43 61 44
f 44 61 45
f 45 60 70
f 45 70 69
f 45 69 73
f 45 73 74
f 45 74 71
f 45 71 66
f 45 66 55
f 45 55 63
f 45 63 48
f 45 48 47
f 45 47 62
f 45 62 46
f 46 62 47
f 48 63 49
f 50 52 57
f 52 64 57
f 53 55 65
f 55 66 65
f 57 67 58
f 57 64 68
f 57 68 69
f 57 69 67
f 58 67 69
f 58 69 70
f 58 70 59
f 59 70 60
f 68 72 69
f 69 72 73
f 71 74 72
f 72 74 73

