# https://github.com/mikedh/trimesh
v 0.00043908 0.03923430 -0.06869000
v 0.00043908 0.03882762 -0.06912883
v 0.00043908 0.03635303 -0.06869000
v 0.00274675 0.03922663 -0.06869000
v 0.00043908 0.03792602 -0.07002534
v 0.00281213 0.03894655 -0.06898432
v 0.00043908 0.00004373 -0.07152230
v 0.03703484 0.00004373 -0.06869000
v 0.00384289 0.03914989 -0.06869000
v 0.00043908 0.03714720 -0.07074433
v 0.00111215 0.03716638 -0.07077205
v 0.00415442 0.03742727 -0.07041226
v 0.00043908 0.00004373 -0.07325930
v 0.03973096 0.00004373 -0.06869000
v 0.00526980 0.03902328 -0.06869000
v 0.00043908 0.03631850 -0.07146213
v 0.00143522 0.03610365 -0.07171044
v 0.00043908 0.03602308 -0.07171752
v 0.00623517 0.03888517 -0.06869000
v 0.00754285 0.03765363 -0.06971333
v 0.00581979 0.03603076 -0.07149988
v 0.00043908 0.00247611 -0.07326756
v 0.01515815 0.00205793 -0.07418767
v 0.01366201 0.00004373 -0.07408386
v 0.03920404 0.00004373 -0.06926979
v 0.03971942 0.00034298 -0.06869000
v 0.00090061 0.03512533 -0.07235689
v 0.00043908 0.03522124 -0.07226959
v 0.00406981 0.03535936 -0.07215989
v 0.00845822 0.03849383 -0.06869000
v 0.00992744 0.03818691 -0.06869000
v 0.01025051 0.03723928 -0.06956293
v 0.00916975 0.03557421 -0.07141023
v 0.00720054 0.03496803 -0.07217404
v 0.00043908 0.00450566 -0.07326933
v 0.01738120 0.00643162 -0.07430150
v 0.02106193 0.00080721 -0.07447255
v 0.02093116 0.00004373 -0.07446429
v 0.01621968 0.00004373 -0.07423426
v 0.00043908 0.03080151 -0.07324102
v 0.00043908 0.03221337 -0.07323924
v 0.00384289 0.03143455 -0.07344509
v 0.03890020 0.00239938 -0.06949569
v 0.03963481 0.00244542 -0.06869000
v 0.03636561 0.00004373 -0.07200771
v 0.00326597 0.03412398 -0.07290836
v 0.00053523 0.03412398 -0.07288064
v 0.00043908 0.03503325 -0.07238343
v 0.00645055 0.03397819 -0.07287120
v 0.01105050 0.03785697 -0.06869000
v 0.01345817 0.03710500 -0.06869000
v 0.01363894 0.03661008 -0.06912941
v 0.01185049 0.03440021 -0.07178417
v 0.01128127 0.03323390 -0.07271077
v 0.00924283 0.03325308 -0.07302337
v 0.01417739 0.01605757 -0.07408445
v 0.01721582 0.01993251 -0.07423013
v 0.02305807 0.00993057 -0.07452799
v 0.02600419 0.00239555 -0.07463947
v 0.02583496 0.00004373 -0.07463475
v 0.02146962 0.00004373 -0.07448670
v 0.00043908 0.03296150 -0.07319383
v 0.00168907 0.03301905 -0.07324868
v 0.00903899 0.03059434 -0.07372762
v 0.03818867 0.00465912 -0.07002299
v 0.03942712 0.00485862 -0.06869000
v 0.03956557 0.00337387 -0.06869000
v 0.03595023 0.00004373 -0.07240525
v 0.03570408 0.00337387 -0.07251554
v 0.00448904 0.03353315 -0.07316316
v 0.00043908 0.03322239 -0.07314606
v 0.00043908 0.03410096 -0.07288418
v 0.00043908 0.03413549 -0.07286943
v 0.00828515 0.03285408 -0.07330236
v 0.01411585 0.03684795 -0.06869000
v 0.01663890 0.03564326 -0.06889407
v 0.01558891 0.03374032 -0.07112180
v 0.01578891 0.03260086 -0.07203779
v 0.01465046 0.03196400 -0.07275619
v 0.01179665 0.03195632 -0.07333244
v 0.01707736 0.02613624 -0.07413635
v 0.02061578 0.01901940 -0.07437346
v 0.02588880 0.01630311 -0.07455336
v 0.02810032 0.01014925 -0.07464831
v 0.02680033 0.00004373 -0.07465894
v 0.03015030 0.00117552 -0.07471319
v 0.03007337 0.00004373 -0.07471497
v 0.00615440 0.03232463 -0.07345217
v 0.00995436 0.03129259 -0.07366037
v 0.01262741 0.02955463 -0.07387684
v 0.03895020 0.00761712 -0.06869000
v 0.03455025 0.00533436 -0.07338730
v 0.03664638 0.00718358 -0.07110588
v 0.03580408 0.00004373 -0.07254149
v 0.03476178 0.00222290 -0.07343388
v 0.01221203 0.03079768 -0.07368338
v 0.01662737 0.03584660 -0.06869000
v 0.01717351 0.03560106 -0.06869000
v 0.01823119 0.03259703 -0.07107285
v 0.01845042 0.03091277 -0.07233034
v 0.01742736 0.02996514 -0.07323748
v 0.01434277 0.03076698 -0.07346161
v 0.01601583 0.02826554 -0.07396825
v 0.02014271 0.02483565 -0.07421539
v 0.02168116 0.02233037 -0.07433453
v 0.02564265 0.01837870 -0.07448848
v 0.02953876 0.01164552 -0.07460113
v 0.03110798 0.00510800 -0.07466955
v 0.03162336 0.00050412 -0.07466955
v 0.03030414 0.00004373 -0.07471143
v 0.03888866 0.00790486 -0.06869000
v 0.03397333 0.00401458 -0.07389040
v 0.03310796 0.00709151 -0.07407620
v 0.03417333 0.00853790 -0.07320622
v 0.03672715 0.00988453 -0.07042701
v 0.03455025 0.00004373 -0.07360611
v 0.01705044 0.02895612 -0.07374649
v 0.01901195 0.03471865 -0.06869000
v 0.02086963 0.03370196 -0.06869000
v 0.02104270 0.03351013 -0.06877729
v 0.02058502 0.03084371 -0.07140256
v 0.02039655 0.02902902 -0.07280632
v 0.02003502 0.02776295 -0.07359137
v 0.01895042 0.02724885 -0.07392638
v 0.02165423 0.02529987 -0.07397533
v 0.02390805 0.02258358 -0.07415051
v 0.02590803 0.02041592 -0.07418826
v 0.02786955 0.01600002 -0.07445781
v 0.03084644 0.01153425 -0.07435046
v 0.03078875 0.00865683 -0.07457872
v 0.03230796 0.00368847 -0.07450027
v 0.03168874 0.00004373 -0.07465599
v 0.03158105 0.00004373 -0.07467191
v 0.03805405 0.01106236 -0.06869000
v 0.03441948 0.00004373 -0.07368632
v 0.03372718 0.00004373 -0.07404730
v 0.03355410 0.00004373 -0.07411866
v 0.03315796 0.00280990 -0.07424193
v 0.03218104 0.00973874 -0.07415405
v 0.03296180 0.00991906 -0.07379662
v 0.03362333 0.01182584 -0.07282992
v 0.03604254 0.01316480 -0.07009730
v 0.03756175 0.01266988 -0.06869000
v 0.02116193 0.03352932 -0.06869000
v 0.02327729 0.03107391 -0.06962604
v 0.02258115 0.02801233 -0.07248192
v 0.02201192 0.02649688 -0.07354477
v 0.02400421 0.02453255 -0.07368869
v 0.02683110 0.02122927 -0.07382847
v 0.02793878 0.01885827 -0.07404965
v 0.02922723 0.01582354 -0.07419828
v 0.03053106 0.01374028 -0.07416349
v 0.03225412 0.00004373 -0.07452504
v 0.03273873 0.00004373 -0.07437523
v 0.03186951 0.01282334 -0.07384381
v 0.03420025 0.01616883 -0.07070186
v 0.03179643 0.01434263 -0.07348107
v 0.03264257 0.01580819 -0.07227254
v 0.03681945 0.01486056 -0.06869000
v 0.02338114 0.03203305 -0.06869000
v 0.02413113 0.03148826 -0.06869000
v 0.02528881 0.03056748 -0.06869000
v 0.02490804 0.02900600 -0.07028192
v 0.02415036 0.02683834 -0.07242294
v 0.02416959 0.02553774 -0.07318439
v 0.02680802 0.02282528 -0.07318203
v 0.02784263 0.02068831 -0.07357131
v 0.02966184 0.01722005 -0.07382140
v 0.03207335 0.01923042 -0.07121323
v 0.03408487 0.01967929 -0.06916716
v 0.03653099 0.01557033 -0.06869000
v 0.02972722 0.01910765 -0.07313013
v 0.03125798 0.01729295 -0.07279747
v 0.02658495 0.02950475 -0.06869000
v 0.02661187 0.02731791 -0.07042819
v 0.02633880 0.02491238 -0.07232031
v 0.02953876 0.02175872 -0.07189977
v 0.03290796 0.02211552 -0.06886990
v 0.03433871 0.02006295 -0.06869000
v 0.03467332 0.01944910 -0.06869000
v 0.02720417 0.02895612 -0.06869000
v 0.02932723 0.02680381 -0.06869000
v 0.02963492 0.02648153 -0.06869000
v 0.02858108 0.02476275 -0.07077853
v 0.03152336 0.02383430 -0.06897134
v 0.03181951 0.02384581 -0.06869000
v 0.03300796 0.02224213 -0.06869000
v 0.03313103 0.02205030 -0.06869000
v 0.03066567 0.02525383 -0.06869000
v 0.03169643 0.02401078 -0.06869000
f 1 2 5
f 1 5 10
f 1 10 16
f 1 16 18
f 1 18 28
f 1 28 48
f 1 48 73
f 1 73 72
f 1 72 71
f 1 71 62
f 1 62 41
f 1 41 40
f 1 40 35
f 1 35 22
f 1 22 13
f 1 13 7
f 1 7 3
f 1 3 8
f 1 8 14
f 1 14 26
f 1 26 44
f 1 44 67
f 1 67 66
f 1 66 91
f 1 91 111
f 1 111 134
f 1 134 143
f 1 143 159
f 1 159 171
f 1 171 180
f 1 180 179
f 1 179 188
f 1 188 187
f 1 187 186
f 1 186 190
f 1 190 189
f 1 189 183
f 1 183 182
f 1 182 181
f 1 181 174
f 1 174 162
f 1 162 161
f 1 161 160
f 1 160 144
f 1 144 119
f 1 119 118
f 1 118 98
f 1 98 97
f 1 97 75
f 1 75 51
f 1 51 50
f 1 50 31
f 1 31 30
f 1 30 19
f 1 19 15
f 1 15 9
f 1 9 4
f 1 4 2
f 2 4 6
f 2 6 5
f 3 7 8
f 4 9 6
f 5 6 11
f 5 11 10
f 6 9 12
f 6 12 11
f 7 13 24
f 7 24 39
f 7 39 38
f 7 38 61
f 7 61 60
f 7 60 85
f 7 85 87
f 7 87 110
f 7 110 133
f 7 133 132
f 7 132 153
f 7 153 154
f 7 154 137
f 7 137 136
f 7 136 135
f 7 135 116
f 7 116 94
f 7 94 68
f 7 68 45
f 7 45 25
f 7 25 14
f 7 14 8
f 9 15 12
f 10 11 16
f 11 12 17
f 11 17 18
f 11 18 16
f 12 15 19
f 12 19 20
f 12 20 21
f 12 21 17
f 13 22 23
f 13 23 24
f 14 25 26
f 17 27 28
f 17 28 18
f 17 21 29
f 17 29 27
f 19 30 20
f 20 30 31
f 20 31 32
f 20 32 33
f 20 33 21
f 21 34 29
f 21 33 34
f 22 35 23
f 23 36 37
f 23 37 38
f 23 38 39
f 23 39 24
f 23 35 40
f 23 40 41
f 23 41 42
f 23 42 36
f 25 43 44
f 25 44 26
f 25 45 43
f 27 29 46
f 27 46 47
f 27 47 48
f 27 48 28
f 29 34 49
f 29 49 46
f 31 50 32
f 32 50 51
f 32 51 52
f 32 52 53
f 32 53 33
f 33 53 54
f 33 54 34
f 34 54 55
f 34 55 49
f 36 42 56
f 36 56 57
f 36 57 58
f 36 58 37
f 37 58 59
f 37 59 60
f 37 60 61
f 37 61 38
f 41 62 63
f 41 63 42
f 42 63 64
f 42 64 57
f 42 57 56
f 43 65 66
f 43 66 67
f 43 67 44
f 43 45 68
f 43 68 69
f 43 69 65
f 46 49 70
f 46 70 47
f 47 71 72
f 47 72 73
f 47 73 48
f 47 70 63
f 47 63 71
f 49 55 74
f 49 74 70
f 51 75 52
f 52 75 76
f 52 76 77
f 52 77 53
f 53 77 78
f 53 78 79
f 53 79 54
f 54 79 80
f 54 80 55
f 55 80 74
f 57 64 81
f 57 81 82
f 57 82 58
f 58 83 84
f 58 84 59
f 58 82 83
f 59 85 60
f 59 84 86
f 59 86 87
f 59 87 85
f 62 71 63
f 63 70 88
f 63 88 64
f 64 89 90
f 64 90 81
f 64 88 89
f 65 91 66
f 65 69 92
f 65 92 93
f 65 93 91
f 68 94 69
f 69 94 95
f 69 95 92
f 70 74 88
f 74 80 96
f 74 96 89
f 74 89 88
f 75 97 76
f 76 97 98
f 76 98 99
f 76 99 77
f 77 99 78
f 78 99 100
f 78 100 101
f 78 101 79
f 79 101 102
f 79 102 80
f 80 102 96
f 81 103 104
f 81 104 105
f 81 105 82
f 81 90 103
f 82 105 83
f 83 105 106
f 83 106 107
f 83 107 84
f 84 107 108
f 84 108 86
f 86 108 109
f 86 109 110
f 86 110 87
f 89 96 90
f 90 96 103
f 91 93 111
f 92 112 113
f 92 113 114
f 92 114 93
f 92 95 112
f 93 115 111
f 93 114 115
f 94 116 95
f 95 116 112
f 96 102 117
f 96 117 103
f 98 118 99
f 99 118 119
f 99 119 120
f 99 120 121
f 99 121 100
f 100 121 122
f 100 122 101
f 101 122 123
f 101 123 117
f 101 117 102
f 103 117 124
f 103 124 104
f 104 124 125
f 104 125 126
f 104 126 106
f 104 106 105
f 106 127 128
f 106 128 107
f 106 126 127
f 107 128 129
f 107 129 130
f 107 130 108
f 108 130 131
f 108 131 109
f 109 132 133
f 109 133 110
f 109 131 132
f 111 115 134
f 112 116 135
f 112 135 136
f 112 136 137
f 112 137 138
f 112 138 113
f 113 138 131
f 113 131 139
f 113 139 140
f 113 140 114
f 114 140 141
f 114 141 115
f 115 141 142
f 115 142 143
f 115 143 134
f 117 123 124
f 119 144 120
f 120 144 145
f 120 145 121
f 121 145 146
f 121 146 122
f 122 146 147
f 122 147 123
f 123 147 125
f 123 125 124
f 125 147 148
f 125 148 126
f 126 148 149
f 126 149 127
f 127 149 150
f 127 150 128
f 128 150 151
f 128 151 129
f 129 151 152
f 129 152 139
f 129 139 130
f 130 139 131
f 131 138 153
f 131 153 132
f 137 154 138
f 138 154 153
f 139 155 140
f 139 152 155
f 140 155 141
f 141 156 142
f 141 155 157
f 141 157 158
f 141 158 156
f 142 159 143
f 142 156 159
f 144 160 145
f 145 160 161
f 145 161 162
f 145 162 163
f 145 163 146
f 146 163 164
f 146 164 165
f 146 165 147
f 147 165 148
f 148 165 166
f 148 166 149
f 149 166 167
f 149 167 168
f 149 168 150
f 150 168 151
f 151 168 152
f 152 168 155
f 155 168 157
f 156 158 169
f 156 169 170
f 156 170 171
f 156 171 159
f 157 168 172
f 157 172 173
f 157 173 158
f 158 173 169
f 162 174 163
f 163 174 175
f 163 175 164
f 164 175 176
f 164 176 165
f 165 176 166
f 166 177 172
f 166 172 167
f 166 176 177
f 167 172 168
f 169 178 170
f 169 173 172
f 169 172 177
f 169 177 178
f 170 179 180
f 170 180 171
f 170 178 179
f 174 181 175
f 175 181 182
f 175 182 183
f 175 183 184
f 175 184 176
f 176 184 177
f 177 184 185
f 177 185 178
f 178 185 186
f 178 186 187
f 178 187 188
f 178 188 179
f 183 189 185
f 183 185 184
f 185 189 190
f 185 190 186

