# https://github.com/mikedh/trimesh
v 0.04456009 0.02110024 -0.01754825
v 0.02878539 0.04043812 -0.01754825
v 0.04740981 0.02110024 -0.01754825
v 0.02878539 0.02110024 0.00423918
v 0.02878539 0.04360126 -0.01754825
v 0.04726396 0.02147691 -0.01754825
v 0.04706704 0.02110024 -0.01658984
v 0.02878539 0.02110024 0.00711440
v 0.02878539 0.04313647 -0.01641361
v 0.02986110 0.04277743 -0.01727546
v 0.02972254 0.04298008 -0.01754825
v 0.04709439 0.02185137 -0.01754825
v 0.04568867 0.02234259 -0.01443886
v 0.04624476 0.02110024 -0.01443403
v 0.02878539 0.02136897 0.00695990
v 0.03258503 0.02110024 0.00397846
v 0.03212739 0.02346598 0.00302730
v 0.02878539 0.04141393 -0.01283106
v 0.03186667 0.04022004 -0.01492169
v 0.03111185 0.04193157 -0.01754825
v 0.03009995 0.04270694 -0.01754825
v 0.04668052 0.02275450 -0.01754825
v 0.04416262 0.02528545 -0.01427229
v 0.04325464 0.02385807 -0.01074526
v 0.04430848 0.02110024 -0.01032520
v 0.04530579 0.02467970 -0.01625187
v 0.02878539 0.02464886 0.00492721
v 0.03471275 0.02110024 0.00211234
v 0.03500447 0.02125443 0.00176712
v 0.03418219 0.02381182 0.00097771
v 0.03198518 0.02592865 0.00155468
v 0.02878539 0.04113638 -0.01231927
v 0.03061045 0.03896669 -0.01085872
v 0.03258503 0.03865169 -0.01308937
v 0.03532354 0.03648419 -0.01370256
v 0.03555327 0.03759217 -0.01634119
v 0.03382301 0.03973544 -0.01754825
v 0.03298796 0.04048657 -0.01754825
v 0.04559569 0.02500350 -0.01754825
v 0.04373598 0.02823052 -0.01754825
v 0.04226097 0.02898385 -0.01501825
v 0.04249800 0.02670402 -0.01250998
v 0.04188721 0.02494182 -0.00937163
v 0.04346796 0.02120817 -0.00882845
v 0.04426290 0.02114430 -0.01027209
v 0.04427566 0.02110024 -0.01026002
v 0.04405687 0.02768203 -0.01754825
v 0.02878539 0.02469512 0.00489582
v 0.02987022 0.02745295 0.00220408
v 0.03498077 0.02110024 0.00186852
v 0.03514121 0.02110024 0.00171643
v 0.03549310 0.02110024 0.00135190
v 0.03669462 0.02267300 -0.00083771
v 0.03583404 0.02559604 -0.00192165
v 0.03340913 0.02660489 -0.00020763
v 0.03270354 0.02850586 -0.00102360
v 0.03055576 0.02963807 -0.00003864
v 0.02878539 0.04012753 -0.01058110
v 0.02903882 0.03907902 -0.00909400
v 0.03196148 0.03700624 -0.00952854
v 0.03392693 0.03654146 -0.01166263
v 0.03579576 0.03493126 -0.01195715
v 0.03744944 0.03416470 -0.01352633
v 0.03744762 0.03564274 -0.01625428
v 0.03652323 0.03717806 -0.01754825
v 0.03560979 0.03809660 -0.01754825
v 0.04349531 0.02863142 -0.01754825
v 0.04047420 0.03054560 -0.01357944
v 0.04202578 0.03078790 -0.01754825
v 0.04103940 0.03214039 -0.01754825
v 0.04033563 0.03256331 -0.01662847
v 0.04000562 0.02800143 -0.00943439
v 0.03954070 0.02663573 -0.00739205
v 0.04134389 0.02332060 -0.00713132
v 0.04190180 0.02110024 -0.00636605
v 0.04338774 0.02110024 -0.00862808
v 0.04348255 0.02110024 -0.00878017
v 0.04351719 0.02110024 -0.00884052
v 0.02878539 0.02735383 0.00308041
v 0.02952015 0.03041343 0.00018588
v 0.02878539 0.03035836 0.00079665
v 0.03725435 0.02110024 -0.00048042
v 0.03893173 0.02110024 -0.00236826
v 0.03911771 0.02110024 -0.00258071
v 0.03750049 0.02487354 -0.00323735
v 0.03455048 0.02813800 -0.00249621
v 0.03218938 0.03083416 -0.00255898
v 0.02878539 0.03924203 -0.00906745
v 0.02878539 0.03887197 -0.00853875
v 0.03045730 0.03664279 -0.00718926
v 0.03296608 0.03557006 -0.00875361
v 0.03586869 0.03302148 -0.00927265
v 0.03820973 0.03207650 -0.01163124
v 0.03984335 0.03360080 -0.01754825
v 0.03836653 0.03527268 -0.01754825
v 0.03972667 0.02929224 -0.01055696
v 0.03768099 0.03084297 -0.00904572
v 0.03693893 0.02983632 -0.00696716
v 0.03631903 0.02805650 -0.00444441
v 0.03839935 0.02569736 -0.00497793
v 0.03968291 0.02276331 -0.00437923
v 0.04076592 0.02110024 -0.00469789
v 0.02986110 0.03292016 -0.00239965
v 0.02878539 0.03279460 -0.00137847
v 0.02878539 0.03125048 0.00003620
v 0.03924533 0.02110024 -0.00273280
v 0.03441009 0.03071081 -0.00480653
v 0.03123765 0.03312721 -0.00390847
v 0.02878539 0.03764504 -0.00682956
v 0.02878539 0.03648199 -0.00531832
v 0.02989210 0.03560309 -0.00533280
v 0.03260873 0.03390478 -0.00625258
v 0.03443197 0.03308536 -0.00744516
v 0.04059453 0.02110024 -0.00445648
v 0.02878539 0.03449732 -0.00302008
v 0.02878539 0.03487619 -0.00343048
v 0.02878539 0.03464710 -0.00317699
v 0.02878539 0.03638066 -0.00519520
f 1 2 5
f 1 5 11
f 1 11 21
f 1 21 20
f 1 20 38
f 1 38 37
f 1 37 66
f 1 66 65
f 1 65 95
f 1 95 94
f 1 94 70
f 1 70 69
f 1 69 67
f 1 67 40
f 1 40 47
f 1 47 39
f 1 39 22
f 1 22 12
f 1 12 6
f 1 6 3
f 1 3 7
f 1 7 14
f 1 14 25
f 1 25 46
f 1 46 78
f 1 78 77
f 1 77 76
f 1 76 75
f 1 75 102
f 1 102 114
f 1 114 106
f 1 106 84
f 1 84 83
f 1 83 82
f 1 82 52
f 1 52 51
f 1 51 50
f 1 50 28
f 1 28 16
f 1 16 8
f 1 8 4
f 1 4 2
f 2 4 8
f 2 8 15
f 2 15 27
f 2 27 48
f 2 48 79
f 2 79 81
f 2 81 105
f 2 105 104
f 2 104 115
f 2 115 117
f 2 117 116
f 2 116 118
f 2 118 110
f 2 110 109
f 2 109 89
f 2 89 88
f 2 88 58
f 2 58 32
f 2 32 18
f 2 18 9
f 2 9 5
f 3 6 7
f 5 9 10
f 5 10 11
f 6 12 13
f 6 13 14
f 6 14 7
f 8 16 17
f 8 17 15
f 9 18 19
f 9 19 10
f 10 20 21
f 10 21 11
f 10 19 20
f 12 22 13
f 13 23 24
f 13 24 25
f 13 25 14
f 13 22 26
f 13 26 23
f 15 17 27
f 16 28 17
f 17 28 29
f 17 29 30
f 17 30 31
f 17 31 27
f 18 32 33
f 18 33 19
f 19 33 34
f 19 34 35
f 19 35 36
f 19 36 37
f 19 37 38
f 19 38 20
f 22 39 26
f 23 26 40
f 23 40 41
f 23 41 42
f 23 42 24
f 24 43 44
f 24 44 45
f 24 45 25
f 24 42 43
f 25 45 46
f 26 39 47
f 26 47 40
f 27 31 49
f 27 49 48
f 28 50 29
f 29 50 51
f 29 51 52
f 29 52 53
f 29 53 30
f 30 53 54
f 30 54 55
f 30 55 31
f 31 55 56
f 31 56 57
f 31 57 49
f 32 58 33
f 33 58 59
f 33 59 60
f 33 60 34
f 34 60 61
f 34 61 35
f 35 61 62
f 35 62 63
f 35 63 64
f 35 64 36
f 36 64 65
f 36 65 66
f 36 66 37
f 40 67 41
f 41 68 42
f 41 67 69
f 41 69 70
f 41 70 71
f 41 71 68
f 42 68 72
f 42 72 43
f 43 72 73
f 43 73 74
f 43 74 44
f 44 74 75
f 44 75 76
f 44 76 77
f 44 77 78
f 44 78 46
f 44 46 45
f 48 49 79
f 49 57 80
f 49 80 81
f 49 81 79
f 52 82 53
f 53 82 83
f 53 83 84
f 53 84 85
f 53 85 54
f 54 86 55
f 54 85 86
f 55 86 56
f 56 86 87
f 56 87 57
f 57 87 80
f 58 88 59
f 59 88 89
f 59 89 90
f 59 90 60
f 60 90 91
f 60 91 61
f 61 91 62
f 62 92 93
f 62 93 63
f 62 91 92
f 63 93 68
f 63 68 71
f 63 71 64
f 64 71 94
f 64 94 95
f 64 95 65
f 68 93 96
f 68 96 72
f 70 94 71
f 72 96 97
f 72 97 98
f 72 98 73
f 73 98 99
f 73 99 100
f 73 100 74
f 74 100 101
f 74 101 102
f 74 102 75
f 80 87 103
f 80 103 104
f 80 104 105
f 80 105 81
f 84 106 101
f 84 101 85
f 85 101 100
f 85 100 99
f 85 99 86
f 86 99 107
f 86 107 87
f 87 107 108
f 87 108 103
f 89 109 90
f 90 109 110
f 90 110 111
f 90 111 112
f 90 112 91
f 91 112 113
f 91 113 92
f 92 113 97
f 92 97 93
f 93 97 96
f 97 113 98
f 98 113 107
f 98 107 99
f 101 106 114
f 101 114 102
f 103 108 115
f 103 115 104
f 107 112 108
f 107 113 112
f 108 112 111
f 108 111 116
f 108 116 117
f 108 117 115
f 110 118 111
f 111 118 116

