# https://github.com/mikedh/trimesh
v 0.01777202 0.02557838 0.01351538
v 0.02202099 0.03656359 -0.00015838
v 0.02098731 0.03493004 0.00211277
v 0.01807921 0.03742077 0.00125079
v 0.01777202 0.03746293 0.00133886
v 0.01777202 0.02257475 0.01351538
v 0.01855239 0.02506899 0.01351538
v 0.02448824 0.03701326 -0.00226837
v 0.02240795 0.03951804 -0.00368128
v 0.01937481 0.03921944 -0.00138203
v 0.02444513 0.03391478 0.00086477
v 0.01777202 0.03938806 -0.00076177
v 0.01777202 0.03775451 0.00103529
v 0.01777202 0.02257475 0.01299256
v 0.02878249 0.00737040 0.01316309
v 0.02878249 0.00743364 0.01351538
v 0.02100671 0.02321412 0.01351538
v 0.02690914 0.03520757 -0.00222902
v 0.02860356 0.03475790 -0.00312099
v 0.02625703 0.03755426 -0.00435963
v 0.02405170 0.03960938 -0.00509232
v 0.02226782 0.04103918 -0.00562825
v 0.02168577 0.04137292 -0.00562825
v 0.02150253 0.04147480 -0.00562825
v 0.02025975 0.04052277 -0.00343768
v 0.01777202 0.04057897 -0.00208286
v 0.02755264 0.03265009 -0.00021085
v 0.01777202 0.02257826 0.01268712
v 0.02878249 0.00790438 0.01203313
v 0.01777202 0.02312278 0.01145223
v 0.02878249 0.01356737 0.01351538
v 0.02305790 0.02145410 0.01351538
v 0.02878249 0.03464549 -0.00317534
v 0.02878249 0.03487734 -0.00342831
v 0.02865530 0.03646874 -0.00517665
v 0.02878249 0.03279412 -0.00137640
v 0.02878249 0.03449443 -0.00301793
v 0.02717646 0.03789503 -0.00562825
v 0.02428345 0.03985529 -0.00562825
v 0.01926595 0.04257086 -0.00562825
v 0.01777202 0.04323130 -0.00558515
v 0.01777202 0.04258842 -0.00469881
v 0.01777202 0.04081435 -0.00236394
v 0.02878249 0.03124839 0.00003838
v 0.02878249 0.00928148 0.01062210
v 0.01777202 0.02411345 0.00981632
v 0.01777202 0.02518492 0.00844651
v 0.01777202 0.02554325 0.00806611
v 0.02724760 0.01621970 0.01351538
v 0.02878249 0.02735245 0.00308157
v 0.02525677 0.01905470 0.01351538
v 0.02878249 0.03035609 0.00079918
v 0.02878249 0.03638092 -0.00519351
v 0.02878249 0.03648280 -0.00531906
v 0.02842787 0.03698867 -0.00562825
v 0.01781621 0.04324184 -0.00562825
v 0.01777202 0.04325941 -0.00562825
v 0.02878249 0.01084829 0.00930475
v 0.01777202 0.03996068 -0.00562825
v 0.02723790 0.01623375 0.01351538
v 0.02878249 0.03671817 -0.00562825
v 0.02869087 0.03678843 -0.00562825
v 0.02878249 0.01103097 0.00915484
v 0.02878249 0.03285736 -0.00562825
v 0.02878249 0.01186707 0.00852334
f 1 2 3
f 1 3 4
f 1 4 5
f 1 5 13
f 1 13 12
f 1 12 26
f 1 26 43
f 1 43 42
f 1 42 41
f 1 41 57
f 1 57 59
f 1 59 48
f 1 48 47
f 1 47 46
f 1 46 30
f 1 30 28
f 1 28 14
f 1 14 6
f 1 6 16
f 1 16 31
f 1 31 49
f 1 49 60
f 1 60 51
f 1 51 32
f 1 32 17
f 1 17 7
f 1 7 2
f 2 8 9
f 2 9 10
f 2 10 4
f 2 4 3
f 2 7 11
f 2 11 8
f 4 10 12
f 4 12 13
f 4 13 5
f 6 14 15
f 6 15 16
f 7 17 11
f 8 18 19
f 8 19 20
f 8 20 21
f 8 21 9
f 8 11 18
f 9 21 22
f 9 22 23
f 9 23 24
f 9 24 25
f 9 25 10
f 10 25 26
f 10 26 12
f 11 27 18
f 11 17 27
f 14 28 15
f 15 29 45
f 15 45 58
f 15 58 63
f 15 63 65
f 15 65 64
f 15 64 61
f 15 61 54
f 15 54 53
f 15 53 34
f 15 34 33
f 15 33 37
f 15 37 36
f 15 36 44
f 15 44 52
f 15 52 50
f 15 50 31
f 15 31 16
f 15 28 30
f 15 30 29
f 17 32 27
f 18 27 19
f 19 33 34
f 19 34 35
f 19 35 20
f 19 27 36
f 19 36 37
f 19 37 33
f 20 35 38
f 20 38 21
f 21 39 22
f 21 38 39
f 22 39 38
f 22 38 55
f 22 55 62
f 22 62 61
f 22 61 64
f 22 64 59
f 22 59 57
f 22 57 56
f 22 56 40
f 22 40 24
f 22 24 23
f 24 40 25
f 25 40 41
f 25 41 42
f 25 42 43
f 25 43 26
f 27 44 36
f 27 32 44
f 29 30 46
f 29 46 47
f 29 47 48
f 29 48 45
f 31 50 49
f 32 51 52
f 32 52 44
f 34 53 35
f 35 53 54
f 35 54 55
f 35 55 38
f 40 56 41
f 41 56 57
f 45 48 59
f 45 59 58
f 49 50 52
f 49 52 60
f 51 60 52
f 54 61 62
f 54 62 55
f 58 59 63
f 59 64 65
f 59 65 63

