# https://github.com/mikedh/trimesh
v 0.01815075 0.04713768 -0.05326936
v 0.01956696 0.04663557 -0.05326936
v 0.01815075 0.04675103 -0.05404670
v 0.01815075 0.04406327 -0.05326936
v 0.01972627 0.04657650 -0.05326936
v 0.01815075 0.04672686 -0.05409349
v 0.03096440 0.03642960 -0.05326936
v 0.01815075 0.03195896 -0.06868941
v 0.03096440 0.01970965 -0.06868941
v 0.01986300 0.04652548 -0.05326936
v 0.02026943 0.04558302 -0.05474253
v 0.01815075 0.04592939 -0.05557119
v 0.03096440 0.03974298 -0.05326936
v 0.01815075 0.03513003 -0.06868941
v 0.03096440 0.02489721 -0.06868941
v 0.02136827 0.04581125 -0.05326936
v 0.02187003 0.04556423 -0.05326936
v 0.02314575 0.04450631 -0.05408745
v 0.02383693 0.04309127 -0.05583685
v 0.02173958 0.04402031 -0.05606628
v 0.01913922 0.04445529 -0.05726776
v 0.01815075 0.04570922 -0.05593798
v 0.01815075 0.04586227 -0.05569346
v 0.03096440 0.03902607 -0.05449499
v 0.02912170 0.04030685 -0.05484819
v 0.02977774 0.04069887 -0.05326936
v 0.01815075 0.03552473 -0.06831357
v 0.01900876 0.03471921 -0.06868941
v 0.03066586 0.02525701 -0.06868941
v 0.03096440 0.02636594 -0.06762226
v 0.02294631 0.04502453 -0.05326936
v 0.02439513 0.04426197 -0.05326936
v 0.02172201 0.04247370 -0.05834095
v 0.02455068 0.04417067 -0.05326936
v 0.02622404 0.04211659 -0.05508366
v 0.02621275 0.04005177 -0.05804963
v 0.02342799 0.04014575 -0.06017337
v 0.01815075 0.04442038 -0.05790322
v 0.01907273 0.04235825 -0.06022619
v 0.01815075 0.04321210 -0.05958771
v 0.02951808 0.03788223 -0.05778247
v 0.03096440 0.03785001 -0.05614175
v 0.02836529 0.04174874 -0.05326936
v 0.01815075 0.03650747 -0.06730831
v 0.01927218 0.03543344 -0.06788490
v 0.02087153 0.03370157 -0.06868941
v 0.02963474 0.02648409 -0.06868941
v 0.02978151 0.02672306 -0.06839810
v 0.03096440 0.02747488 -0.06676342
v 0.02134820 0.04055656 -0.06106391
v 0.02468991 0.04408743 -0.05326936
v 0.02825240 0.04182392 -0.05326936
v 0.02777322 0.03743650 -0.06002091
v 0.02593553 0.03761104 -0.06126164
v 0.02349573 0.03659071 -0.06408121
v 0.01836525 0.03979669 -0.06365857
v 0.01815075 0.03998196 -0.06355895
v 0.01815075 0.04195549 -0.06121636
v 0.03096440 0.03697199 -0.05736286
v 0.03096440 0.03563214 -0.05905943
v 0.01815075 0.03959531 -0.06398612
v 0.02359106 0.03387073 -0.06688718
v 0.02038107 0.03675718 -0.06585626
v 0.02116256 0.03352972 -0.06868941
v 0.02932741 0.02680898 -0.06868941
v 0.02750227 0.02977599 -0.06782302
v 0.03096064 0.03043383 -0.06439969
v 0.03096440 0.03042041 -0.06440573
v 0.03096440 0.03475680 -0.06008431
v 0.03045763 0.03474606 -0.06057335
v 0.02820849 0.03495013 -0.06235445
v 0.02672078 0.03427886 -0.06426234
v 0.02569594 0.03224089 -0.06698379
v 0.02413547 0.03149175 -0.06868941
v 0.02338534 0.03203414 -0.06868941
v 0.02720623 0.02895973 -0.06868941
v 0.02658781 0.02950480 -0.06868941
v 0.02528826 0.03056809 -0.06868941
v 0.02865381 0.03075336 -0.06603135
v 0.02983419 0.03232681 -0.06364951
v 0.03096440 0.03201266 -0.06293708
v 0.03096440 0.03043920 -0.06439064
v 0.03096440 0.03379286 -0.06109108
f 1 2 3
f 1 3 6
f 1 6 12
f 1 12 23
f 1 23 22
f 1 22 38
f 1 38 40
f 1 40 58
f 1 58 57
f 1 57 61
f 1 61 44
f 1 44 27
f 1 27 14
f 1 14 8
f 1 8 4
f 1 4 7
f 1 7 13
f 1 13 26
f 1 26 43
f 1 43 52
f 1 52 51
f 1 51 34
f 1 34 32
f 1 32 31
f 1 31 17
f 1 17 16
f 1 16 10
f 1 10 5
f 1 5 2
f 2 5 6
f 2 6 3
f 4 8 9
f 4 9 7
f 5 10 6
f 6 10 11
f 6 11 12
f 7 9 15
f 7 15 30
f 7 30 49
f 7 49 68
f 7 68 82
f 7 82 81
f 7 81 83
f 7 83 69
f 7 69 60
f 7 60 59
f 7 59 42
f 7 42 24
f 7 24 13
f 8 14 28
f 8 28 46
f 8 46 64
f 8 64 75
f 8 75 74
f 8 74 78
f 8 78 77
f 8 77 76
f 8 76 65
f 8 65 47
f 8 47 29
f 8 29 15
f 8 15 9
f 10 16 11
f 11 17 18
f 11 18 19
f 11 19 20
f 11 20 21
f 11 21 22
f 11 22 23
f 11 23 12
f 11 16 17
f 13 24 25
f 13 25 26
f 14 27 28
f 15 29 30
f 17 31 18
f 18 31 32
f 18 32 19
f 19 33 20
f 19 32 34
f 19 34 35
f 19 35 36
f 19 36 37
f 19 37 33
f 20 33 21
f 21 38 22
f 21 33 39
f 21 39 40
f 21 40 38
f 24 41 25
f 24 42 41
f 25 41 36
f 25 36 35
f 25 35 43
f 25 43 26
f 27 44 45
f 27 45 28
f 28 45 46
f 29 47 48
f 29 48 30
f 30 48 49
f 33 37 50
f 33 50 39
f 34 51 35
f 35 51 52
f 35 52 43
f 36 41 53
f 36 53 37
f 37 53 54
f 37 54 55
f 37 55 50
f 39 50 56
f 39 56 57
f 39 57 58
f 39 58 40
f 41 42 59
f 41 59 60
f 41 60 53
f 44 61 45
f 45 62 46
f 45 61 56
f 45 56 63
f 45 63 62
f 46 62 64
f 47 65 48
f 48 65 66
f 48 66 67
f 48 67 49
f 49 67 68
f 50 55 63
f 50 63 56
f 53 60 69
f 53 69 70
f 53 70 71
f 53 71 72
f 53 72 54
f 54 72 55
f 55 72 62
f 55 62 63
f 56 61 57
f 62 72 73
f 62 73 74
f 62 74 75
f 62 75 64
f 65 76 66
f 66 76 77
f 66 77 78
f 66 78 73
f 66 73 79
f 66 79 67
f 67 79 80
f 67 80 81
f 67 81 82
f 67 82 68
f 69 83 70
f 70 83 81
f 70 81 80
f 70 80 71
f 71 80 72
f 72 80 73
f 73 80 79
f 73 78 74

