# https://github.com/mikedh/trimesh
v 0.00086494 0.03085955 0.01351538
v 0.00043908 0.03084999 0.01351538
v 0.00186935 0.03082610 0.01351538
v 0.00116864 0.04154076 0.00132387
v 0.00043908 0.04256587 0.00016581
v 0.00043908 0.02817372 0.01351538
v 0.00584290 0.03028845 0.01351538
v 0.00432949 0.04180360 0.00078794
v 0.00218663 0.04403543 -0.00160877
v 0.00043908 0.04376780 -0.00122837
v 0.00043908 0.02827408 0.01287451
v 0.01777201 0.02257743 0.01268712
v 0.01777201 0.02257504 0.01299256
v 0.01777201 0.02257504 0.01351538
v 0.00586665 0.03028367 0.01351538
v 0.00661826 0.04109392 0.00120581
v 0.00608891 0.04386816 -0.00192733
v 0.00274652 0.04557667 -0.00364193
v 0.00043908 0.04584908 -0.00397361
v 0.00043908 0.02869463 0.01162650
v 0.01777201 0.02312225 0.01145223
v 0.01777201 0.02558107 0.01351538
v 0.00980457 0.02927051 0.01351538
v 0.01004719 0.04025280 0.00133699
v 0.00977233 0.04273552 -0.00142325
v 0.01012523 0.04403543 -0.00311724
v 0.00758875 0.04546437 -0.00436900
v 0.00515067 0.04646558 -0.00523661
v 0.00350492 0.04685269 -0.00562825
v 0.00267865 0.04691482 -0.00562825
v 0.00216457 0.04693632 -0.00562825
v 0.00043908 0.04626486 -0.00452266
v 0.00043908 0.02898854 0.01098001
v 0.01777201 0.02411390 0.00981632
v 0.00043908 0.02930874 0.01038786
v 0.00043908 0.02977470 0.00959146
v 0.01639603 0.02651299 0.01351538
v 0.01777201 0.03746421 0.00133886
v 0.01009130 0.02918688 0.01351538
v 0.01330135 0.03961479 0.00100156
v 0.01285344 0.04215726 -0.00173806
v 0.01408011 0.04430545 -0.00505672
v 0.01065289 0.04516090 -0.00487120
v 0.00970955 0.04585625 -0.00562825
v 0.00783985 0.04624336 -0.00562825
v 0.00583441 0.04659939 -0.00562825
v 0.00513200 0.04670932 -0.00562825
v 0.00043908 0.04698411 -0.00562825
v 0.00043908 0.04655638 -0.00495740
v 0.01777201 0.02518441 0.00844651
v 0.00043908 0.04390400 -0.00549146
v 0.00044247 0.04399719 -0.00562825
v 0.01293318 0.02820239 0.01351538
v 0.01777201 0.03775574 0.00103529
v 0.01611439 0.03956223 -0.00011903
v 0.01539671 0.04243922 -0.00314348
v 0.01446695 0.04453484 -0.00562825
v 0.01397831 0.04470689 -0.00562825
v 0.01338279 0.04488133 -0.00562825
v 0.01717480 0.04308439 -0.00500050
v 0.01094132 0.04557667 -0.00562825
v 0.00043908 0.04627442 -0.00562825
v 0.01777201 0.02554762 0.00806611
v 0.01777201 0.03996127 -0.00562825
v 0.01777201 0.03939018 -0.00076177
v 0.01744965 0.04085496 -0.00222340
v 0.01705433 0.04354318 -0.00562825
v 0.01777201 0.04323016 -0.00558515
v 0.01777201 0.04325883 -0.00562825
v 0.01777201 0.04258737 -0.00469881
v 0.01777201 0.04058016 -0.00208286
v 0.01777201 0.04081673 -0.00236394
f 1 2 6
f 1 6 14
f 1 14 22
f 1 22 37
f 1 37 53
f 1 53 39
f 1 39 23
f 1 23 15
f 1 15 7
f 1 7 3
f 1 3 4
f 1 4 5
f 1 5 2
f 2 5 10
f 2 10 19
f 2 19 32
f 2 32 49
f 2 49 48
f 2 48 62
f 2 62 51
f 2 51 36
f 2 36 35
f 2 35 33
f 2 33 20
f 2 20 11
f 2 11 6
f 3 7 8
f 3 8 4
f 4 8 9
f 4 9 5
f 5 9 10
f 6 11 12
f 6 12 13
f 6 13 14
f 7 15 16
f 7 16 8
f 8 16 17
f 8 17 9
f 9 17 18
f 9 18 10
f 10 18 19
f 11 20 12
f 12 21 34
f 12 34 50
f 12 50 63
f 12 63 64
f 12 64 69
f 12 69 68
f 12 68 70
f 12 70 72
f 12 72 71
f 12 71 65
f 12 65 54
f 12 54 38
f 12 38 22
f 12 22 14
f 12 14 13
f 12 20 21
f 15 23 24
f 15 24 16
f 16 24 25
f 16 25 17
f 17 26 27
f 17 27 28
f 17 28 18
f 17 25 26
f 18 28 29
f 18 29 30
f 18 30 31
f 18 31 32
f 18 32 19
f 20 33 21
f 21 33 35
f 21 35 36
f 21 36 34
f 22 38 37
f 23 39 40
f 23 40 24
f 24 40 41
f 24 41 25
f 25 41 26
f 26 42 43
f 26 43 27
f 26 41 42
f 27 43 44
f 27 44 45
f 27 45 28
f 28 45 46
f 28 46 47
f 28 47 29
f 29 47 46
f 29 46 45
f 29 45 44
f 29 44 61
f 29 61 59
f 29 59 58
f 29 58 57
f 29 57 67
f 29 67 69
f 29 69 64
f 29 64 52
f 29 52 62
f 29 62 48
f 29 48 31
f 29 31 30
f 31 48 49
f 31 49 32
f 34 36 50
f 36 51 52
f 36 52 50
f 37 38 54
f 37 54 53
f 39 53 40
f 40 55 41
f 40 53 55
f 41 56 42
f 41 55 56
f 42 57 58
f 42 58 59
f 42 59 43
f 42 56 60
f 42 60 57
f 43 59 61
f 43 61 44
f 50 52 63
f 51 62 52
f 52 64 63
f 53 54 55
f 54 65 55
f 55 65 66
f 55 66 56
f 56 66 60
f 57 60 67
f 60 68 69
f 60 69 67
f 60 66 70
f 60 70 68
f 65 71 66
f 66 71 72
f 66 72 70

