# https://github.com/mikedh/trimesh
v -0.04346253 -0.01810309 -0.05126513
v -0.02801840 -0.01810309 -0.06913889
v -0.04632235 -0.01810309 -0.05126513
v -0.02801840 -0.03866104 -0.05126513
v -0.02801840 -0.01810309 -0.07189072
v -0.04590484 -0.01810309 -0.05222817
v -0.04536370 -0.01980903 -0.05202425
v -0.04568803 -0.01981371 -0.05126513
v -0.02801840 -0.04200741 -0.05126513
v -0.02845203 -0.01810309 -0.07180189
v -0.02801840 -0.01875832 -0.07185639
v -0.04581884 -0.01810309 -0.05242602
v -0.04342490 -0.02056489 -0.05475185
v -0.04325288 -0.02400019 -0.05225441
v -0.04533144 -0.02060467 -0.05126513
v -0.04510209 -0.01810309 -0.05369594
v -0.04434950 -0.01862025 -0.05466302
v -0.02819221 -0.04188806 -0.05126513
v -0.02801840 -0.04169383 -0.05186475
v -0.02863659 -0.01810309 -0.07173728
v -0.02810978 -0.01866706 -0.07184227
v -0.02801840 -0.01950950 -0.07171911
v -0.04107038 -0.02053915 -0.05840615
v -0.04162407 -0.02302670 -0.05576335
v -0.04328692 -0.02478179 -0.05126513
v -0.04403234 -0.02331687 -0.05126513
v -0.04105425 -0.02597993 -0.05398465
v -0.04168499 -0.02707042 -0.05185870
v -0.04213833 -0.02678727 -0.05126513
v -0.04464695 -0.01810309 -0.05447122
v -0.04380836 -0.01810309 -0.05585420
v -0.02861150 -0.04159321 -0.05126513
v -0.02861867 -0.04145280 -0.05153566
v -0.02801840 -0.03992704 -0.05470138
v -0.03013639 -0.01810309 -0.07098219
v -0.02801840 -0.01999156 -0.07162422
v -0.03909215 -0.02163667 -0.06040895
v -0.03971214 -0.02453139 -0.05738860
v -0.04231573 -0.01810309 -0.05815378
v -0.04117072 -0.01810309 -0.05980327
v -0.04034288 -0.01858515 -0.06068756
v -0.03906169 -0.02821942 -0.05489924
v -0.04167245 -0.02753611 -0.05126513
v -0.03829477 -0.02979666 -0.05439450
v -0.04045577 -0.02935906 -0.05126513
v -0.02886595 -0.04140599 -0.05126513
v -0.03144624 -0.03902141 -0.05193138
v -0.02977443 -0.03891611 -0.05420068
v -0.02801840 -0.03948944 -0.05530908
v -0.02871722 -0.03799644 -0.05663351
v -0.03017402 -0.01810309 -0.07095797
v -0.02801840 -0.02126459 -0.07112958
v -0.03720710 -0.02412889 -0.06103281
v -0.03697058 -0.02038470 -0.06360697
v -0.03761565 -0.02632393 -0.05872514
v -0.04048264 -0.01810309 -0.06074611
v -0.03933943 -0.01810309 -0.06210487
v -0.03773571 -0.01810309 -0.06395625
v -0.03665700 -0.02875765 -0.05782267
v -0.03653157 -0.03081930 -0.05583401
v -0.03745618 -0.03207594 -0.05299940
v -0.03959925 -0.03059464 -0.05126513
v -0.03128139 -0.03951050 -0.05126513
v -0.03294783 -0.03691999 -0.05299738
v -0.03193363 -0.03894419 -0.05126513
v -0.03595280 -0.03505959 -0.05126513
v -0.03610152 -0.03447456 -0.05200407
v -0.03257512 -0.03564228 -0.05522227
v -0.02801840 -0.03805494 -0.05726141
v -0.03242819 -0.03385911 -0.05760261
v -0.02923328 -0.03520234 -0.05950043
v -0.02801840 -0.03652685 -0.05911480
v -0.03025286 -0.01810309 -0.07089739
v -0.02801840 -0.02167177 -0.07094585
v -0.03082626 -0.01998220 -0.06962344
v -0.03471103 -0.02168581 -0.06527664
v -0.03475045 -0.02375682 -0.06393605
v -0.03597430 -0.02702128 -0.06032617
v -0.03533281 -0.01902041 -0.06613671
v -0.03685769 -0.01810309 -0.06492938
v -0.03413047 -0.02991601 -0.05987797
v -0.03376851 -0.03232633 -0.05772375
v -0.03509270 -0.03382635 -0.05429355
v -0.03729312 -0.03352682 -0.05126513
v -0.03806362 -0.03256970 -0.05126513
v -0.03625562 -0.03473666 -0.05126513
v -0.03095527 -0.03187235 -0.06132555
v -0.02801840 -0.03347299 -0.06233907
v -0.03232964 -0.01810309 -0.06925397
v -0.02801840 -0.02206725 -0.07074799
v -0.02931929 -0.02238550 -0.06958710
v -0.03193901 -0.02287693 -0.06716637
v -0.03327395 -0.02060935 -0.06721281
v -0.03307326 -0.01810309 -0.06861598
v -0.03226692 -0.02542532 -0.06529077
v -0.03444942 -0.02664686 -0.06220783
v -0.03222929 -0.02905953 -0.06256317
v -0.03529876 -0.01810309 -0.06658693
v -0.02933900 -0.02990197 -0.06448723
v -0.02801840 -0.03249716 -0.06327788
v -0.02801840 -0.03295583 -0.06286198
v -0.02801840 -0.02319519 -0.07009184
v -0.02801840 -0.02557509 -0.06867655
v -0.03001275 -0.02454310 -0.06777812
v -0.02973142 -0.02699086 -0.06641331
v -0.03067036 -0.02736762 -0.06534327
v -0.02801840 -0.02875531 -0.06649002
v -0.02801840 -0.02889806 -0.06637697
v -0.02801840 -0.03024597 -0.06528269
v -0.02801840 -0.02613906 -0.06831112
f 1 2 5
f 1 5 10
f 1 10 20
f 1 20 35
f 1 35 51
f 1 51 73
f 1 73 89
f 1 89 94
f 1 94 98
f 1 98 80
f 1 80 58
f 1 58 57
f 1 57 56
f 1 56 40
f 1 40 39
f 1 39 31
f 1 31 30
f 1 30 16
f 1 16 12
f 1 12 6
f 1 6 3
f 1 3 8
f 1 8 15
f 1 15 26
f 1 26 25
f 1 25 29
f 1 29 43
f 1 43 45
f 1 45 62
f 1 62 85
f 1 85 84
f 1 84 86
f 1 86 66
f 1 66 65
f 1 65 63
f 1 63 46
f 1 46 32
f 1 32 18
f 1 18 9
f 1 9 4
f 1 4 2
f 2 4 9
f 2 9 19
f 2 19 34
f 2 34 49
f 2 49 69
f 2 69 72
f 2 72 88
f 2 88 101
f 2 101 100
f 2 100 109
f 2 109 108
f 2 108 107
f 2 107 110
f 2 110 103
f 2 103 102
f 2 102 90
f 2 90 74
f 2 74 52
f 2 52 36
f 2 36 22
f 2 22 11
f 2 11 5
f 3 6 7
f 3 7 8
f 5 11 10
f 6 12 7
f 7 13 14
f 7 14 15
f 7 15 8
f 7 12 16
f 7 16 17
f 7 17 13
f 9 18 19
f 10 11 21
f 10 21 20
f 11 22 21
f 13 17 23
f 13 23 24
f 13 24 14
f 14 25 26
f 14 26 15
f 14 24 27
f 14 27 28
f 14 28 29
f 14 29 25
f 16 30 17
f 17 30 31
f 17 31 23
f 18 32 33
f 18 33 19
f 19 33 34
f 20 21 22
f 20 22 36
f 20 36 35
f 23 37 38
f 23 38 24
f 23 31 39
f 23 39 40
f 23 40 41
f 23 41 37
f 24 38 27
f 27 42 28
f 27 38 42
f 28 43 29
f 28 42 44
f 28 44 45
f 28 45 43
f 32 46 33
f 33 46 47
f 33 47 48
f 33 48 34
f 34 48 50
f 34 50 49
f 35 36 51
f 36 52 51
f 37 53 38
f 37 41 54
f 37 54 53
f 38 53 55
f 38 55 42
f 40 56 41
f 41 56 57
f 41 57 58
f 41 58 54
f 42 59 44
f 42 55 59
f 44 59 60
f 44 60 61
f 44 61 62
f 44 62 45
f 46 63 47
f 47 64 48
f 47 63 65
f 47 65 66
f 47 66 67
f 47 67 64
f 48 64 68
f 48 68 50
f 49 50 69
f 50 68 70
f 50 70 71
f 50 71 72
f 50 72 69
f 51 52 74
f 51 74 75
f 51 75 73
f 53 54 76
f 53 76 77
f 53 77 78
f 53 78 55
f 54 79 76
f 54 58 80
f 54 80 79
f 55 78 59
f 59 81 60
f 59 78 81
f 60 81 82
f 60 82 83
f 60 83 61
f 61 83 67
f 61 67 84
f 61 84 85
f 61 85 62
f 64 67 83
f 64 83 68
f 66 86 67
f 67 86 84
f 68 83 70
f 70 83 82
f 70 82 81
f 70 81 87
f 70 87 71
f 71 88 72
f 71 87 88
f 73 75 89
f 74 90 91
f 74 91 75
f 75 91 92
f 75 92 93
f 75 93 94
f 75 94 89
f 76 92 95
f 76 95 77
f 76 79 93
f 76 93 92
f 77 95 96
f 77 96 78
f 78 96 97
f 78 97 81
f 79 80 98
f 79 98 94
f 79 94 93
f 81 97 87
f 87 97 99
f 87 99 100
f 87 100 101
f 87 101 88
f 90 102 91
f 91 102 103
f 91 103 104
f 91 104 92
f 92 104 95
f 95 105 106
f 95 106 97
f 95 97 96
f 95 104 105
f 97 106 99
f 99 106 107
f 99 107 108
f 99 108 109
f 99 109 100
f 103 110 105
f 103 105 104
f 105 110 107
f 105 107 106

