# https://github.com/mikedh/trimesh
v 0.04228422 -0.02708536 -0.01290197
v 0.03926095 -0.02708536 -0.01290197
v 0.04124849 -0.02871957 -0.01290197
v 0.04231283 -0.02708536 -0.01296035
v 0.03924950 -0.02708536 -0.01290781
v 0.02754360 -0.03947322 -0.01290197
v 0.04020131 -0.03021858 -0.01290197
v 0.04162425 -0.02952688 -0.01479136
v 0.04259704 -0.02708536 -0.01356744
v 0.04418402 -0.02708536 -0.03277653
v 0.02754360 -0.04427199 -0.03277653
v 0.02754360 -0.04258880 -0.01290197
v 0.03957948 -0.03108271 -0.01290197
v 0.03985225 -0.03134528 -0.01378343
v 0.04424125 -0.02769084 -0.01849425
v 0.04416876 -0.02708536 -0.01736373
v 0.04333713 -0.02708536 -0.01527587
v 0.04045690 -0.03240340 -0.01681501
v 0.04202290 -0.03066730 -0.01768284
v 0.04702991 -0.02708536 -0.03277653
v 0.02754360 -0.04710345 -0.03277653
v 0.02754360 -0.04305124 -0.01381845
v 0.02772099 -0.04296110 -0.01386710
v 0.02764660 -0.04252217 -0.01290197
v 0.03844647 -0.03250137 -0.01290197
v 0.03703879 -0.03418849 -0.01290197
v 0.03690718 -0.03516823 -0.01427766
v 0.04337146 -0.02984235 -0.01997891
v 0.04529987 -0.02722840 -0.02120866
v 0.04459984 -0.02708536 -0.01856041
v 0.04098336 -0.03312841 -0.01985632
v 0.03833393 -0.03493701 -0.01682668
v 0.03848271 -0.03571689 -0.01894373
v 0.04695933 -0.02708536 -0.03172385
v 0.04657976 -0.02755760 -0.03018276
v 0.04602279 -0.02879011 -0.03277653
v 0.03058595 -0.04520863 -0.03277653
v 0.02754360 -0.04708973 -0.03190481
v 0.02754360 -0.04318644 -0.01412589
v 0.02754360 -0.04442091 -0.01709910
v 0.02868424 -0.04397807 -0.01786186
v 0.02993361 -0.04283961 -0.01719444
v 0.02941098 -0.04189514 -0.01417454
v 0.02882730 -0.04168351 -0.01290197
v 0.02782972 -0.04240265 -0.01290197
v 0.03362449 -0.03768812 -0.01290197
v 0.03347571 -0.03809178 -0.01335729
v 0.03517904 -0.03810745 -0.01655816
v 0.04442818 -0.02958566 -0.02348137
v 0.04279732 -0.03154319 -0.02233723
v 0.04609527 -0.02708536 -0.02438229
v 0.04603614 -0.02708536 -0.02411960
v 0.04540478 -0.02708536 -0.02133709
v 0.04536282 -0.02708536 -0.02116974
v 0.04534374 -0.02708536 -0.02109386
v 0.03895385 -0.03614601 -0.02166398
v 0.04109399 -0.03415518 -0.02334128
v 0.03583138 -0.03857774 -0.01920642
v 0.03678319 -0.03817408 -0.02072221
v 0.04684298 -0.02708536 -0.03026060
v 0.04673998 -0.02708536 -0.02923904
v 0.04545246 -0.02900370 -0.02764737
v 0.04439956 -0.03137663 -0.03222976
v 0.04525600 -0.03004222 -0.03277653
v 0.03066034 -0.04516160 -0.03277653
v 0.02991644 -0.04554370 -0.03056609
v 0.02754360 -0.04701527 -0.03008742
v 0.02754360 -0.04473835 -0.01795915
v 0.02916301 -0.04450713 -0.02078447
v 0.03128789 -0.04297089 -0.02057822
v 0.03298550 -0.04143858 -0.02008398
v 0.03260973 -0.04054701 -0.01678582
v 0.03098460 -0.04003755 -0.01290197
v 0.03089305 -0.04011005 -0.01290197
v 0.03322965 -0.03805651 -0.01290197
v 0.03124020 -0.03981417 -0.01290197
v 0.04312349 -0.03214475 -0.02594867
v 0.04646913 -0.02708536 -0.02693520
v 0.03906829 -0.03695528 -0.02505749
v 0.04169864 -0.03455099 -0.02843931
v 0.03575699 -0.03975930 -0.02281007
v 0.04351261 -0.03241516 -0.03058166
v 0.04182072 -0.03484100 -0.03184060
v 0.04411154 -0.03176461 -0.03277653
v 0.04447395 -0.03125906 -0.03277653
v 0.03067178 -0.04515376 -0.03277653
v 0.02997939 -0.04533403 -0.02858525
v 0.02810057 -0.04663709 -0.02947059
v 0.03206803 -0.04403685 -0.03030340
v 0.02754360 -0.04689378 -0.02866308
v 0.02754360 -0.04510477 -0.01924339
v 0.02754360 -0.04559661 -0.02109191
v 0.02919544 -0.04536147 -0.02470918
v 0.03177810 -0.04348036 -0.02440369
v 0.03377136 -0.04181676 -0.02399312
v 0.03587716 -0.04023154 -0.02524039
v 0.03726387 -0.03929687 -0.02801707
v 0.03879935 -0.03800165 -0.02981111
v 0.04035581 -0.03615189 -0.02897830
v 0.04052748 -0.03637331 -0.03242629
v 0.04177684 -0.03488607 -0.03277653
v 0.03069658 -0.04513613 -0.03277653
v 0.03139470 -0.04417598 -0.02696827
v 0.03074999 -0.04509693 -0.03277653
v 0.03364356 -0.04288860 -0.03161877
v 0.03425203 -0.04198528 -0.02739635
v 0.02754360 -0.04668412 -0.02695271
v 0.02754360 -0.04601202 -0.02295795
v 0.02754360 -0.04637844 -0.02470529
v 0.03597444 -0.04080958 -0.03050577
v 0.03700636 -0.04000032 -0.03272984
v 0.04040159 -0.03649872 -0.03277653
v 0.04070487 -0.03615777 -0.03277653
v 0.03705595 -0.03994937 -0.03277653
v 0.03296833 -0.04340590 -0.03277653
v 0.03362830 -0.04289252 -0.03277653
v 0.03422152 -0.04240853 -0.03277653
v 0.03696631 -0.04003559 -0.03277653
v 0.03701590 -0.03998856 -0.03277653
f 1 2 6
f 1 6 12
f 1 12 24
f 1 24 45
f 1 45 44
f 1 44 74
f 1 74 73
f 1 73 76
f 1 76 75
f 1 75 46
f 1 46 26
f 1 26 25
f 1 25 13
f 1 13 7
f 1 7 3
f 1 3 4
f 1 4 9
f 1 9 17
f 1 17 16
f 1 16 30
f 1 30 55
f 1 55 54
f 1 54 53
f 1 53 52
f 1 52 51
f 1 51 78
f 1 78 61
f 1 61 60
f 1 60 34
f 1 34 20
f 1 20 10
f 1 10 5
f 1 5 2
f 2 5 6
f 3 7 8
f 3 8 4
f 4 8 9
f 5 10 11
f 5 11 6
f 6 11 21
f 6 21 38
f 6 38 67
f 6 67 90
f 6 90 107
f 6 107 109
f 6 109 108
f 6 108 92
f 6 92 91
f 6 91 68
f 6 68 40
f 6 40 39
f 6 39 22
f 6 22 12
f 7 13 14
f 7 14 8
f 8 15 16
f 8 16 17
f 8 17 9
f 8 14 18
f 8 18 19
f 8 19 15
f 10 20 36
f 10 36 64
f 10 64 85
f 10 85 84
f 10 84 101
f 10 101 113
f 10 113 112
f 10 112 114
f 10 114 119
f 10 119 118
f 10 118 117
f 10 117 116
f 10 116 115
f 10 115 104
f 10 104 102
f 10 102 86
f 10 86 65
f 10 65 37
f 10 37 21
f 10 21 11
f 12 22 23
f 12 23 24
f 13 25 14
f 14 25 26
f 14 26 27
f 14 27 18
f 15 19 28
f 15 28 29
f 15 29 30
f 15 30 16
f 18 31 19
f 18 27 32
f 18 32 33
f 18 33 31
f 19 31 28
f 20 34 35
f 20 35 36
f 21 37 38
f 22 39 23
f 23 39 40
f 23 40 41
f 23 41 42
f 23 42 43
f 23 43 44
f 23 44 45
f 23 45 24
f 26 46 27
f 27 46 47
f 27 47 48
f 27 48 32
f 28 49 29
f 28 31 50
f 28 50 49
f 29 49 51
f 29 51 52
f 29 52 53
f 29 53 54
f 29 54 55
f 29 55 30
f 31 33 56
f 31 56 57
f 31 57 50
f 32 48 33
f 33 48 58
f 33 58 59
f 33 59 56
f 34 60 35
f 35 60 61
f 35 61 62
f 35 62 63
f 35 63 36
f 36 63 64
f 37 65 66
f 37 66 38
f 38 66 67
f 40 68 41
f 41 68 69
f 41 69 70
f 41 70 42
f 42 70 71
f 42 71 72
f 42 72 43
f 43 72 73
f 43 73 74
f 43 74 44
f 46 75 47
f 47 75 76
f 47 76 73
f 47 73 72
f 47 72 48
f 48 72 58
f 49 62 51
f 49 50 77
f 49 77 62
f 50 57 77
f 51 62 78
f 56 59 79
f 56 79 57
f 57 80 77
f 57 79 80
f 58 72 71
f 58 71 81
f 58 81 59
f 59 81 79
f 61 78 62
f 62 77 82
f 62 82 63
f 63 82 83
f 63 83 84
f 63 84 85
f 63 85 64
f 65 86 66
f 66 87 88
f 66 88 67
f 66 86 89
f 66 89 87
f 67 88 90
f 68 91 69
f 69 91 92
f 69 92 93
f 69 93 70
f 70 94 95
f 70 95 71
f 70 93 94
f 71 95 81
f 77 80 82
f 79 81 96
f 79 96 97
f 79 97 98
f 79 98 99
f 79 99 80
f 80 99 83
f 80 83 82
f 81 95 96
f 83 99 100
f 83 100 101
f 83 101 84
f 86 102 89
f 87 93 90
f 87 90 88
f 87 89 103
f 87 103 93
f 89 102 104
f 89 104 105
f 89 105 106
f 89 106 103
f 90 93 107
f 92 108 93
f 93 108 109
f 93 109 107
f 93 103 94
f 94 106 95
f 94 103 106
f 95 106 96
f 96 110 97
f 96 106 110
f 97 110 98
f 98 110 111
f 98 111 100
f 98 100 99
f 100 112 113
f 100 113 101
f 100 111 114
f 100 114 112
f 104 115 105
f 105 115 116
f 105 116 117
f 105 117 111
f 105 111 110
f 105 110 106
f 111 117 118
f 111 118 119
f 111 119 114

