# https://github.com/mikedh/trimesh
v 0.00043908 0.04749943 -0.05326936
v 0.00043908 0.05259611 -0.03277848
v 0.00043908 0.05041832 -0.05326936
v 0.03096427 0.03643022 -0.05326936
v 0.00043908 0.05502336 -0.03277848
v 0.03096427 0.04217878 -0.03277848
v 0.00043908 0.05238488 -0.04862000
v 0.00212729 0.05146533 -0.05093265
v 0.00066318 0.05042560 -0.05326936
v 0.03096427 0.03974606 -0.05326936
v 0.00043908 0.05501972 -0.03478625
v 0.00198386 0.05503246 -0.03277848
v 0.03096427 0.04511224 -0.03277848
v 0.00043908 0.05259429 -0.04805638
v 0.00067812 0.05042560 -0.05326936
v 0.00238127 0.05277637 -0.04735436
v 0.00452663 0.05226471 -0.04848361
v 0.00344499 0.05098461 -0.05186733
v 0.03096427 0.04041251 -0.05212407
v 0.02977506 0.04070203 -0.05326936
v 0.03048620 0.04112630 -0.05156646
v 0.00043908 0.05495052 -0.03606192
v 0.00161037 0.05502518 -0.03414240
v 0.00308942 0.05480121 -0.03761638
v 0.00458341 0.05490136 -0.03277848
v 0.03096427 0.04508310 -0.03504098
v 0.02923124 0.04627943 -0.03541004
v 0.03055791 0.04539265 -0.03277848
v 0.00043908 0.05386709 -0.04361161
v 0.00108448 0.05041103 -0.05326936
v 0.00523777 0.05284193 -0.04669446
v 0.00043908 0.05389258 -0.04352135
v 0.00679750 0.05117217 -0.05067189
v 0.00572183 0.05048387 -0.05253926
v 0.00547084 0.05015429 -0.05326936
v 0.00304460 0.05031999 -0.05326936
v 0.03096427 0.04083314 -0.05138394
v 0.02836174 0.04175087 -0.05326936
v 0.03096427 0.04140672 -0.05016444
v 0.02832887 0.04181642 -0.05319514
v 0.02692751 0.04388678 -0.05101689
v 0.02841851 0.04378845 -0.04902516
v 0.00045999 0.05475751 -0.03883388
v 0.00043908 0.05475751 -0.03882585
v 0.00520491 0.05486494 -0.03297304
v 0.00464615 0.05481942 -0.03538597
v 0.00584732 0.05458999 -0.03712697
v 0.00443998 0.05437148 -0.04015568
v 0.00189721 0.05438969 -0.04100411
v 0.00518100 0.05486130 -0.03277848
v 0.03096427 0.04489555 -0.03746394
v 0.02894440 0.04618292 -0.03889004
v 0.02631797 0.04802749 -0.03544815
v 0.02817350 0.04698411 -0.03277848
v 0.00634034 0.05381793 -0.04208723
v 0.00758633 0.05299306 -0.04487323
v 0.01011416 0.05247775 -0.04547497
v 0.00828252 0.05227017 -0.04710766
v 0.00766102 0.05174393 -0.04882860
v 0.00386629 0.05370503 -0.04368984
v 0.00043908 0.05391079 -0.04343711
v 0.00953747 0.05057127 -0.05115127
v 0.00914904 0.04962623 -0.05326936
v 0.00648077 0.05001772 -0.05326936
v 0.02825119 0.04182734 -0.05326936
v 0.03096427 0.04194206 -0.04897301
v 0.02458195 0.04422728 -0.05314299
v 0.02526918 0.04542361 -0.04973320
v 0.02714265 0.04530525 -0.04715780
v 0.02928204 0.04420907 -0.04640564
v 0.00043908 0.05475569 -0.03884792
v 0.00563517 0.05480303 -0.03277848
v 0.00801062 0.05437148 -0.03487851
v 0.00727856 0.05406739 -0.03980266
v 0.00873968 0.05412930 -0.03747196
v 0.00043908 0.05443157 -0.04067717
v 0.03096427 0.04478448 -0.03876368
v 0.02647035 0.04747940 -0.04016972
v 0.02422339 0.04908178 -0.03767655
v 0.03096427 0.04433107 -0.04111644
v 0.03011867 0.04454594 -0.04308008
v 0.02742352 0.04743205 -0.03277848
v 0.02424431 0.04922017 -0.03447135
v 0.01015001 0.05346103 -0.04082560
v 0.01212506 0.05249232 -0.04329871
v 0.01194579 0.05197882 -0.04569560
v 0.01098067 0.05172936 -0.04727012
v 0.00942692 0.04958435 -0.05326936
v 0.01105836 0.05054214 -0.05047934
v 0.01277644 0.04885963 -0.05326936
v 0.01254936 0.04890880 -0.05326936
v 0.02468653 0.04409071 -0.05326936
v 0.03096427 0.04214782 -0.04846155
v 0.02454908 0.04417448 -0.05326936
v 0.02439371 0.04426552 -0.05326936
v 0.02249335 0.04619749 -0.05141403
v 0.02435486 0.04686030 -0.04721396
v 0.02303119 0.04672555 -0.04941027
v 0.02701416 0.04618838 -0.04452824
v 0.02451322 0.04756862 -0.04464658
v 0.03096427 0.04380665 -0.04355946
v 0.03096427 0.04337146 -0.04509186
v 0.03096427 0.04304734 -0.04616695
v 0.00741003 0.05452079 -0.03277848
v 0.01016495 0.05399819 -0.03519543
v 0.01274059 0.05320429 -0.03824820
v 0.02376922 0.04866298 -0.04174625
v 0.02333297 0.04921107 -0.03999923
v 0.02090375 0.05040557 -0.03918288
v 0.02086191 0.05066049 -0.03670777
v 0.02168959 0.05040011 -0.03457364
v 0.02271745 0.05000862 -0.03277848
v 0.03096427 0.04406340 -0.04241818
v 0.02439371 0.04913823 -0.03277848
v 0.01357722 0.05263980 -0.04083764
v 0.01542678 0.05154181 -0.04355545
v 0.01542678 0.05094456 -0.04600850
v 0.01423757 0.05021802 -0.04922574
v 0.01513695 0.04862110 -0.05243897
v 0.01435111 0.04840988 -0.05326936
v 0.02294454 0.04502483 -0.05326936
v 0.02186886 0.04556564 -0.05326936
v 0.02152823 0.04584606 -0.05305073
v 0.01982210 0.04661629 -0.05312494
v 0.02011193 0.04810032 -0.04940024
v 0.02226328 0.04818955 -0.04640965
v 0.02096649 0.04907632 -0.04537668
v 0.00787915 0.05444067 -0.03277848
v 0.00981834 0.05406011 -0.03277848
v 0.01182926 0.05363584 -0.03277848
v 0.01292883 0.05335360 -0.03449542
v 0.01597059 0.05227199 -0.03853703
v 0.02066770 0.05004139 -0.04184654
v 0.01746458 0.05141981 -0.04091185
v 0.01912291 0.05121405 -0.03839863
v 0.01997150 0.05117217 -0.03277848
v 0.02030615 0.05103560 -0.03277848
v 0.02249933 0.05010876 -0.03277848
v 0.01915877 0.05013608 -0.04408296
v 0.01681320 0.05033456 -0.04642770
v 0.01681320 0.04987387 -0.04774549
v 0.01744367 0.04859560 -0.05074209
v 0.01681320 0.04790366 -0.05268769
v 0.01551941 0.04807483 -0.05326936
v 0.02136688 0.04581146 -0.05326936
v 0.01986094 0.04652525 -0.05326936
v 0.01956513 0.04663632 -0.05326936
v 0.01831914 0.04967175 -0.04688101
v 0.01270473 0.05342826 -0.03277848
v 0.01569271 0.05259065 -0.03277848
v 0.01681320 0.05225742 -0.03278049
v 0.01681320 0.05218094 -0.03499686
v 0.01681320 0.05211903 -0.03637481
v 0.01681320 0.05198975 -0.03849892
v 0.01732116 0.05202435 -0.03506505
v 0.01930219 0.05141434 -0.03277848
v 0.01681022 0.05225742 -0.03277848
f 1 2 5
f 1 5 11
f 1 11 22
f 1 22 44
f 1 44 71
f 1 71 76
f 1 76 61
f 1 61 32
f 1 32 29
f 1 29 14
f 1 14 7
f 1 7 3
f 1 3 9
f 1 9 15
f 1 15 30
f 1 30 36
f 1 36 35
f 1 35 64
f 1 64 63
f 1 63 88
f 1 88 91
f 1 91 90
f 1 90 120
f 1 120 144
f 1 144 147
f 1 147 146
f 1 146 145
f 1 145 122
f 1 122 121
f 1 121 95
f 1 95 94
f 1 94 92
f 1 92 65
f 1 65 38
f 1 38 20
f 1 20 10
f 1 10 4
f 1 4 2
f 2 4 6
f 2 6 13
f 2 13 28
f 2 28 54
f 2 54 82
f 2 82 114
f 2 114 112
f 2 112 138
f 2 138 137
f 2 137 136
f 2 136 156
f 2 156 157
f 2 157 150
f 2 150 149
f 2 149 130
f 2 130 129
f 2 129 128
f 2 128 104
f 2 104 72
f 2 72 50
f 2 50 25
f 2 25 12
f 2 12 5
f 3 7 8
f 3 8 9
f 4 10 19
f 4 19 37
f 4 37 39
f 4 39 66
f 4 66 93
f 4 93 103
f 4 103 102
f 4 102 101
f 4 101 113
f 4 113 80
f 4 80 77
f 4 77 51
f 4 51 26
f 4 26 13
f 4 13 6
f 5 12 11
f 7 14 8
f 8 15 9
f 8 14 16
f 8 16 17
f 8 17 18
f 8 18 15
f 10 20 21
f 10 21 19
f 11 12 23
f 11 23 24
f 11 24 22
f 12 25 23
f 13 26 27
f 13 27 28
f 14 29 16
f 15 18 30
f 16 31 17
f 16 29 32
f 16 32 31
f 17 31 33
f 17 33 18
f 18 33 34
f 18 34 35
f 18 35 36
f 18 36 30
f 19 21 37
f 20 38 21
f 21 39 37
f 21 38 40
f 21 40 41
f 21 41 42
f 21 42 39
f 22 43 44
f 22 24 43
f 23 25 45
f 23 45 46
f 23 46 24
f 24 46 47
f 24 47 48
f 24 48 49
f 24 49 43
f 25 50 45
f 26 51 27
f 27 51 52
f 27 52 53
f 27 53 54
f 27 54 28
f 31 55 56
f 31 56 57
f 31 57 58
f 31 58 59
f 31 59 33
f 31 32 60
f 31 60 55
f 32 61 49
f 32 49 60
f 33 59 62
f 33 62 34
f 34 62 63
f 34 63 64
f 34 64 35
f 38 65 40
f 39 42 66
f 40 65 41
f 41 65 67
f 41 67 68
f 41 68 42
f 42 68 69
f 42 69 70
f 42 70 66
f 43 49 71
f 43 71 44
f 45 47 46
f 45 50 72
f 45 72 73
f 45 73 47
f 47 74 48
f 47 73 75
f 47 75 74
f 48 60 49
f 48 74 55
f 48 55 60
f 49 61 76
f 49 76 71
f 51 77 52
f 52 78 79
f 52 79 53
f 52 77 80
f 52 80 81
f 52 81 78
f 53 82 54
f 53 79 83
f 53 83 82
f 55 74 84
f 55 84 57
f 55 57 56
f 57 84 85
f 57 85 86
f 57 86 87
f 57 87 58
f 58 87 62
f 58 62 59
f 62 88 63
f 62 87 89
f 62 89 90
f 62 90 91
f 62 91 88
f 65 92 67
f 66 70 93
f 67 92 94
f 67 94 95
f 67 95 96
f 67 96 68
f 68 97 69
f 68 96 98
f 68 98 97
f 69 99 70
f 69 97 100
f 69 100 99
f 70 81 101
f 70 101 102
f 70 102 103
f 70 103 93
f 70 99 81
f 72 104 73
f 73 105 75
f 73 104 105
f 74 75 84
f 75 105 106
f 75 106 84
f 78 81 99
f 78 99 107
f 78 107 108
f 78 108 79
f 79 108 109
f 79 109 110
f 79 110 111
f 79 111 112
f 79 112 83
f 80 113 81
f 81 113 101
f 82 83 114
f 83 112 114
f 84 106 115
f 84 115 85
f 85 115 116
f 85 116 86
f 86 116 117
f 86 117 87
f 87 117 118
f 87 118 89
f 89 118 119
f 89 119 90
f 90 119 120
f 95 121 96
f 96 121 122
f 96 122 123
f 96 123 124
f 96 124 125
f 96 125 98
f 97 98 126
f 97 126 100
f 98 125 126
f 99 100 107
f 100 126 127
f 100 127 107
f 104 128 105
f 105 128 129
f 105 129 130
f 105 130 131
f 105 131 106
f 106 131 132
f 106 132 115
f 107 127 133
f 107 133 108
f 108 133 109
f 109 133 134
f 109 134 135
f 109 135 110
f 110 135 136
f 110 136 137
f 110 137 111
f 111 137 138
f 111 138 112
f 115 132 134
f 115 134 116
f 116 134 139
f 116 139 117
f 117 140 118
f 117 139 140
f 118 140 141
f 118 141 142
f 118 142 119
f 119 143 144
f 119 144 120
f 119 142 143
f 122 145 123
f 123 145 146
f 123 146 124
f 124 146 147
f 124 147 143
f 124 143 142
f 124 142 125
f 125 127 126
f 125 142 148
f 125 148 127
f 127 148 139
f 127 139 133
f 130 149 131
f 131 149 150
f 131 150 151
f 131 151 152
f 131 152 132
f 132 152 153
f 132 153 154
f 132 154 134
f 133 139 134
f 134 154 135
f 135 154 153
f 135 153 155
f 135 155 136
f 136 155 156
f 139 148 140
f 140 148 141
f 141 148 142
f 143 147 144
f 150 157 151
f 151 156 155
f 151 155 152
f 151 157 156
f 152 155 153

