# https://github.com/mikedh/trimesh
v -0.00110106 0.05149975 -0.05076808
v -0.00151633 0.05113363 -0.05165695
v -0.00142734 0.05148996 -0.05076808
v 0.00043908 0.05147821 -0.05076808
v 0.00043908 0.05027021 -0.05362029
v 0.00040714 0.05024868 -0.05366913
v -0.00088202 0.04990018 -0.05426334
v -0.00464452 0.04988256 -0.05371634
v -0.00431596 0.05130005 -0.05076808
v -0.00377063 0.05134900 -0.05076808
v 0.00043908 0.04869805 -0.05076808
v 0.00043908 0.05025651 -0.05364959
v -0.00016100 0.04898390 -0.05605899
v 0.00043908 0.05024084 -0.05368052
v 0.00043908 0.04914053 -0.05573503
v -0.00367936 0.04837304 -0.05667111
v -0.00564390 0.04882335 -0.05553316
v -0.00727074 0.05008226 -0.05258978
v -0.00459660 0.05126677 -0.05076808
v 0.00043680 0.03774577 -0.06739946
v 0.00043908 0.03867967 -0.06653664
v -0.02287063 0.04233500 -0.05076808
v -0.02287063 0.03149823 -0.06452934
v -0.00145700 0.04722574 -0.05878097
v 0.00043908 0.04878224 -0.05636017
v 0.00043908 0.04771324 -0.05810861
v 0.00043908 0.04718266 -0.05895353
v -0.00552069 0.04706128 -0.05840002
v -0.00848688 0.04628596 -0.05885097
v -0.00981938 0.04781310 -0.05597109
v -0.00914172 0.04903676 -0.05398821
v -0.00728443 0.05092022 -0.05076808
v -0.00721370 0.05093393 -0.05076808
v -0.01132530 0.04973180 -0.05161462
v -0.00775446 0.05082820 -0.05076808
v 0.00043908 0.03873057 -0.06739946
v -0.02189407 0.03149823 -0.06518541
v -0.01868830 0.03149823 -0.06739946
v -0.02287063 0.04544017 -0.05076808
v -0.02287063 0.03149823 -0.06739946
v -0.00078162 0.04573189 -0.06098361
v -0.00471981 0.04558113 -0.06073779
v 0.00043908 0.04692814 -0.05931982
v -0.00853023 0.04376815 -0.06226320
v -0.01059744 0.04584153 -0.05880864
v -0.01226307 0.04615087 -0.05759255
v -0.01305253 0.04830844 -0.05346726
v -0.01147361 0.05003527 -0.05076808
v -0.01081876 0.05019778 -0.05076808
v -0.01421619 0.04920514 -0.05094716
v 0.00043908 0.04042021 -0.06739946
v -0.02212680 0.04582978 -0.05076808
v -0.02287063 0.04447103 -0.05263537
v -0.02287063 0.03226963 -0.06739946
v 0.00043908 0.04558505 -0.06117572
v -0.00056714 0.04381905 -0.06343535
v -0.00380714 0.04396002 -0.06300882
v -0.00640826 0.04348230 -0.06315859
v -0.00919876 0.04150486 -0.06480935
v -0.01145079 0.04417735 -0.06076546
v -0.01453107 0.04482932 -0.05845211
v -0.01508552 0.04667362 -0.05521082
v -0.01662337 0.04755270 -0.05247420
v -0.01392186 0.04935785 -0.05076808
v -0.01462005 0.04912487 -0.05076808
v -0.01423673 0.04926779 -0.05076808
v -0.01706374 0.04815377 -0.05076808
v -0.00036864 0.04042412 -0.06739946
v 0.00043908 0.04112112 -0.06664896
v -0.02002309 0.04684591 -0.05076808
v -0.01951883 0.04611367 -0.05284538
v -0.02287063 0.04419497 -0.05314004
v -0.02287063 0.03269448 -0.06706410
v -0.02221807 0.03280021 -0.06739946
v 0.00043908 0.04437705 -0.06272229
v 0.00043908 0.04348034 -0.06385048
v -0.00038917 0.04128950 -0.06645849
v -0.00419046 0.04230563 -0.06497378
v -0.00596333 0.04062187 -0.06659035
v -0.00859184 0.03961749 -0.06707061
v -0.01295442 0.03926507 -0.06594568
v -0.01268518 0.04186707 -0.06312277
v -0.01488245 0.04224885 -0.06169829
v -0.01648419 0.04329239 -0.05957053
v -0.01776193 0.04468051 -0.05665809
v -0.01816351 0.04767213 -0.05076808
v -0.00236055 0.04032819 -0.06739946
v 0.00043908 0.04174373 -0.06592125
v -0.02095630 0.04431440 -0.05475662
v -0.02287063 0.04315143 -0.05486732
v -0.02287063 0.03271406 -0.06704782
v -0.02222719 0.03282566 -0.06737178
v -0.02214049 0.03285503 -0.06739946
v -0.00263892 0.04030861 -0.06739946
v -0.00295379 0.04026945 -0.06739946
v -0.00534500 0.03993270 -0.06739946
v -0.00840930 0.03932576 -0.06739946
v -0.00875384 0.03924157 -0.06739946
v -0.01292476 0.03781429 -0.06739946
v -0.01439873 0.03719365 -0.06739946
v -0.01618757 0.03709576 -0.06674339
v -0.01520645 0.03940995 -0.06483866
v -0.01649788 0.04080395 -0.06260833
v -0.01942985 0.04126405 -0.06036010
v -0.02035849 0.04261301 -0.05784163
v -0.02287063 0.04189448 -0.05684531
v -0.02287063 0.04240744 -0.05606388
v -0.02287063 0.03389269 -0.06599452
v -0.02188951 0.03463276 -0.06598312
v -0.02038359 0.03402779 -0.06739946
v -0.01625146 0.03635373 -0.06739946
v -0.01868374 0.03517509 -0.06732945
v -0.01950514 0.03668265 -0.06541496
v -0.01920396 0.03861702 -0.06355744
v -0.02247590 0.03952546 -0.06041382
v -0.02287063 0.03947652 -0.06015497
v -0.02287063 0.03479135 -0.06516425
v -0.02287063 0.03674921 -0.06320417
v -0.02264246 0.03700961 -0.06309509
v -0.01875675 0.03505175 -0.06739946
v -0.01855824 0.03516335 -0.06739946
v -0.02287063 0.03912411 -0.06057825
v -0.02287063 0.03706443 -0.06287044
f 1 2 3
f 1 3 10
f 1 10 9
f 1 9 19
f 1 19 33
f 1 33 32
f 1 32 35
f 1 35 49
f 1 49 48
f 1 48 64
f 1 64 66
f 1 66 65
f 1 65 67
f 1 67 86
f 1 86 70
f 1 70 52
f 1 52 39
f 1 39 22
f 1 22 11
f 1 11 4
f 1 4 2
f 2 4 5
f 2 5 6
f 2 6 7
f 2 7 8
f 2 8 9
f 2 9 10
f 2 10 3
f 4 11 21
f 4 21 36
f 4 36 51
f 4 51 69
f 4 69 88
f 4 88 76
f 4 76 75
f 4 75 55
f 4 55 43
f 4 43 27
f 4 27 26
f 4 26 25
f 4 25 15
f 4 15 14
f 4 14 12
f 4 12 5
f 5 12 6
f 6 13 7
f 6 12 14
f 6 14 15
f 6 15 13
f 7 13 16
f 7 16 17
f 7 17 8
f 8 17 18
f 8 18 19
f 8 19 9
f 11 20 21
f 11 22 23
f 11 23 20
f 13 24 16
f 13 15 25
f 13 25 26
f 13 26 27
f 13 27 24
f 16 28 17
f 16 24 28
f 17 28 29
f 17 29 30
f 17 30 31
f 17 31 18
f 18 32 33
f 18 33 19
f 18 31 34
f 18 34 35
f 18 35 32
f 20 36 21
f 20 23 37
f 20 37 38
f 20 38 40
f 20 40 54
f 20 54 74
f 20 74 93
f 20 93 110
f 20 110 120
f 20 120 121
f 20 121 111
f 20 111 100
f 20 100 99
f 20 99 98
f 20 98 97
f 20 97 96
f 20 96 95
f 20 95 94
f 20 94 87
f 20 87 68
f 20 68 51
f 20 51 36
f 22 39 53
f 22 53 72
f 22 72 90
f 22 90 107
f 22 107 106
f 22 106 116
f 22 116 122
f 22 122 123
f 22 123 118
f 22 118 117
f 22 117 108
f 22 108 91
f 22 91 73
f 22 73 54
f 22 54 40
f 22 40 23
f 23 40 38
f 23 38 37
f 24 27 41
f 24 41 42
f 24 42 28
f 27 43 41
f 28 42 29
f 29 44 45
f 29 45 30
f 29 42 44
f 30 45 46
f 30 46 47
f 30 47 31
f 31 47 34
f 34 48 49
f 34 49 35
f 34 47 50
f 34 50 48
f 39 52 53
f 41 43 55
f 41 55 56
f 41 56 57
f 41 57 42
f 42 57 58
f 42 58 44
f 44 59 60
f 44 60 45
f 44 58 59
f 45 60 61
f 45 61 46
f 46 61 62
f 46 62 47
f 47 62 63
f 47 63 50
f 48 50 64
f 50 65 66
f 50 66 64
f 50 63 67
f 50 67 65
f 51 68 69
f 52 70 71
f 52 71 53
f 53 71 72
f 54 73 74
f 55 75 56
f 56 75 76
f 56 76 77
f 56 77 78
f 56 78 57
f 57 78 58
f 58 78 79
f 58 79 59
f 59 79 80
f 59 80 81
f 59 81 82
f 59 82 60
f 60 82 83
f 60 83 84
f 60 84 61
f 61 84 85
f 61 85 62
f 62 85 71
f 62 71 63
f 63 71 67
f 67 71 86
f 68 87 77
f 68 77 69
f 69 77 88
f 70 86 71
f 71 89 72
f 71 85 89
f 72 89 90
f 73 91 74
f 74 92 93
f 74 91 92
f 76 88 77
f 77 87 94
f 77 94 78
f 78 94 95
f 78 95 79
f 79 95 96
f 79 96 97
f 79 97 80
f 80 97 98
f 80 98 81
f 81 98 99
f 81 99 100
f 81 100 101
f 81 101 102
f 81 102 82
f 82 102 83
f 83 102 103
f 83 103 84
f 84 103 104
f 84 104 105
f 84 105 85
f 85 105 89
f 89 105 106
f 89 106 107
f 89 107 90
f 91 108 109
f 91 109 92
f 92 109 93
f 93 109 110
f 100 111 101
f 101 111 112
f 101 112 113
f 101 113 114
f 101 114 102
f 102 114 103
f 103 114 104
f 104 114 115
f 104 115 105
f 105 115 106
f 106 115 116
f 108 117 109
f 109 117 118
f 109 118 119
f 109 119 113
f 109 113 112
f 109 112 110
f 110 112 120
f 111 121 112
f 112 121 120
f 113 119 114
f 114 119 115
f 115 119 122
f 115 122 116
f 118 123 119
f 119 123 122

