# https://github.com/mikedh/trimesh
v -0.03897156 0.02182569 -0.00677885
v -0.04661504 0.02182569 -0.03241429
v -0.04203185 0.02182569 -0.00677885
v -0.04446617 -0.00485409 -0.00677885
v -0.05107361 -0.00485409 -0.03241429
v -0.04920730 0.02182569 -0.03241429
v -0.04270129 0.02182569 -0.00785546
v -0.04225499 0.02140254 -0.00677885
v -0.04725260 -0.00485409 -0.00677885
v -0.05351083 -0.00485409 -0.03241429
v -0.05028535 0.01925802 -0.03241429
v -0.04948986 0.02083049 -0.02829103
v -0.04910152 0.02182569 -0.02940780
v -0.04309976 0.02182569 -0.00851548
v -0.04391120 0.01930504 -0.00781029
v -0.04229846 0.02131634 -0.00677885
v -0.04814373 -0.00485409 -0.00832475
v -0.04729897 -0.00437347 -0.00677885
v -0.05349634 -0.00485409 -0.03045179
v -0.05363400 -0.00372829 -0.03067514
v -0.05360502 -0.00407308 -0.03241429
v -0.05085047 0.01759674 -0.03241429
v -0.05143297 0.01581269 -0.03167145
v -0.05024768 0.01927108 -0.03156354
v -0.04870305 0.02146262 -0.02406238
v -0.04897401 0.02182569 -0.02772889
v -0.04998831 0.01944870 -0.02802000
v -0.04985790 0.01869642 -0.02441623
v -0.04317366 0.02182569 -0.00864598
v -0.04493420 0.01875389 -0.00915542
v -0.04502838 0.01655452 -0.00778519
v -0.04361561 0.01853970 -0.00677885
v -0.04281721 0.02025845 -0.00677885
v -0.04840166 -0.00485409 -0.00882416
v -0.04757572 -0.00325550 -0.00707247
v -0.04739895 -0.00321110 -0.00677885
v -0.05339781 -0.00485409 -0.02841400
v -0.05346157 -0.00363948 -0.02690323
v -0.05365574 -0.00128599 -0.02876785
v -0.05377455 -0.00076358 -0.03241429
v -0.05374847 -0.00160467 -0.03241429
v -0.05144745 0.01569514 -0.03241429
v -0.05093451 0.01651011 -0.02705632
v -0.05194736 0.01388497 -0.03241429
v -0.05206908 0.01351144 -0.03164384
v -0.05155758 0.01449881 -0.02668239
v -0.04854656 0.02007560 -0.02049123
v -0.04799014 0.02182569 -0.02151013
v -0.04850743 0.02182569 -0.02394694
v -0.04858134 0.02182569 -0.02442125
v -0.05064036 0.01658586 -0.02462954
v -0.04999701 0.01657280 -0.02124913
v -0.04358228 0.02182569 -0.00939885
v -0.04445023 0.02138948 -0.01060597
v -0.04579925 0.01967073 -0.01181810
v -0.04607601 0.01728329 -0.01025463
v -0.04664692 0.01488278 -0.00955947
v -0.04505591 0.01482793 -0.00677885
v -0.04475017 0.01568469 -0.00677885
v -0.04421984 0.01706387 -0.00677885
v -0.04937539 -0.00097777 -0.01039014
v -0.04969996 -0.00428205 -0.01146425
v -0.04888997 -0.00485409 -0.00984556
v -0.04744097 -0.00235956 -0.00677885
v -0.04750327 -0.00009750 -0.00677885
v -0.04864074 0.00076188 -0.00883169
v -0.05329928 -0.00485409 -0.02663972
v -0.05310656 -0.00485409 -0.02474749
v -0.05314279 -0.00405480 -0.02425059
v -0.05350214 -0.00055200 -0.02578395
v -0.05353692 0.00152983 -0.02626579
v -0.05372239 0.00222726 -0.03150582
v -0.05376296 0.00068090 -0.03241429
v -0.05250523 0.01173523 -0.03241429
v -0.05243133 0.01113184 -0.02760090
v -0.05201402 0.01181620 -0.02482780
v -0.04785104 0.02098722 -0.01935690
v -0.04771773 0.02182569 -0.02025031
v -0.04888707 0.01844044 -0.01935690
v -0.05080700 0.01436298 -0.02178116
v -0.04944494 0.01690715 -0.01935690
v -0.04987384 0.01465553 -0.01790636
v -0.04421694 0.02182569 -0.01059091
v -0.04516604 0.02182569 -0.01275668
v -0.04545874 0.02182569 -0.01343176
v -0.04701351 0.01982223 -0.01497767
v -0.04758007 0.01708738 -0.01373542
v -0.04684543 0.01658847 -0.01143915
v -0.04810172 0.01377265 -0.01217697
v -0.04737576 0.01143745 -0.00915794
v -0.04620497 0.01324501 -0.00781531
v -0.04532977 0.01403386 -0.00677885
v -0.05059834 -0.00181886 -0.01356226
v -0.04915514 0.00249108 -0.01007142
v -0.05049546 0.00119548 -0.01318582
v -0.05047807 -0.00468170 -0.01356477
v -0.05043316 -0.00485409 -0.01349199
v -0.04970575 -0.00485409 -0.01162235
v -0.04958114 -0.00485409 -0.01133375
v -0.04724680 0.00428035 -0.00677885
v -0.04728448 0.00432998 -0.00684660
v -0.05301818 -0.00485409 -0.02403477
v -0.05256174 -0.00219500 -0.02036324
v -0.05307468 -0.00059379 -0.02303094
v -0.05280806 -0.00485409 -0.02269465
v -0.05246755 -0.00485409 -0.02081246
v -0.05287762 0.00119026 -0.02178116
v -0.05283270 0.00448409 -0.02280256
v -0.05305730 0.00617672 -0.02542759
v -0.05339636 0.00443446 -0.02751055
v -0.05349924 0.00476620 -0.03008037
v -0.05362241 0.00385719 -0.03241429
v -0.05371079 0.00213322 -0.03241429
v -0.05275156 0.01064077 -0.03241429
v -0.05280372 0.01037956 -0.03241429
v -0.05292689 0.00895597 -0.02904893
v -0.05166770 0.00975788 -0.02044857
v -0.05129676 0.01191024 -0.02108601
v -0.05240235 0.00873656 -0.02352533
v -0.04720623 0.02182569 -0.01830538
v -0.04748299 0.02182569 -0.01935690
v -0.04916673 0.01707432 -0.01840577
v -0.05097943 0.01155761 -0.01935690
v -0.05065196 0.01119191 -0.01757509
v -0.04955941 0.01207741 -0.01485972
v -0.04847845 0.01731986 -0.01650350
v -0.04555147 0.02182569 -0.01366265
v -0.04628611 0.02182569 -0.01558750
v -0.04698888 0.02182569 -0.01757258
v -0.04707582 0.02182569 -0.01785868
v -0.04880593 0.01022806 -0.01177293
v -0.04891750 0.00745664 -0.01080422
v -0.04832486 0.00643532 -0.00917801
v -0.04693237 0.00747754 -0.00690934
v -0.04652665 0.01027507 -0.00715528
v -0.04630785 0.01026724 -0.00677885
v -0.04564566 0.01303343 -0.00677885
v -0.05165901 -0.00274353 -0.01671681
v -0.05190244 0.00107794 -0.01729653
v -0.04958549 0.00469567 -0.01150440
v -0.05048387 0.00501957 -0.01390357
v -0.05140398 0.00348367 -0.01626258
v -0.05129676 -0.00485409 -0.01613459
v -0.05051575 -0.00485409 -0.01372538
v -0.04723376 0.00440834 -0.00677885
v -0.04685992 0.00743836 -0.00677885
v -0.05210965 -0.00126771 -0.01808705
v -0.05217486 -0.00485409 -0.01935690
v -0.05213139 -0.00485409 -0.01914107
v -0.05198214 -0.00485409 -0.01847102
v -0.05227049 0.00327470 -0.01935690
v -0.05218355 0.00655547 -0.02030803
v -0.05223572 0.00375271 -0.01935690
v -0.05315873 0.00806787 -0.03135775
v -0.05335289 0.00669130 -0.03241429
v -0.05351373 0.00529123 -0.03241429
v -0.05290515 0.00978400 -0.03241429
v -0.05160395 0.00874440 -0.01935690
v -0.05152715 0.00757157 -0.01808705
v -0.05086786 0.00741485 -0.01592880
v -0.04974488 0.00683497 -0.01253584
v -0.04681935 0.00765255 -0.00677885
v -0.05184013 -0.00485409 -0.01792142
v -0.05215747 0.00365606 -0.01891019
v -0.05190244 0.00699169 -0.01935690
v -0.05314713 0.00819063 -0.03241429
f 1 2 6
f 1 6 13
f 1 13 26
f 1 26 50
f 1 50 49
f 1 49 48
f 1 48 78
f 1 78 121
f 1 121 120
f 1 120 130
f 1 130 129
f 1 129 128
f 1 128 127
f 1 127 85
f 1 85 84
f 1 84 83
f 1 83 53
f 1 53 29
f 1 29 14
f 1 14 7
f 1 7 3
f 1 3 8
f 1 8 16
f 1 16 33
f 1 33 32
f 1 32 60
f 1 60 59
f 1 59 58
f 1 58 92
f 1 92 137
f 1 137 136
f 1 136 162
f 1 162 146
f 1 146 145
f 1 145 100
f 1 100 65
f 1 65 64
f 1 64 36
f 1 36 18
f 1 18 9
f 1 9 4
f 1 4 5
f 1 5 2
f 2 5 10
f 2 10 21
f 2 21 41
f 2 41 40
f 2 40 73
f 2 73 113
f 2 113 112
f 2 112 156
f 2 156 155
f 2 155 166
f 2 166 157
f 2 157 115
f 2 115 114
f 2 114 74
f 2 74 44
f 2 44 42
f 2 42 22
f 2 22 11
f 2 11 6
f 3 7 8
f 4 9 17
f 4 17 34
f 4 34 63
f 4 63 99
f 4 99 98
f 4 98 97
f 4 97 144
f 4 144 143
f 4 143 163
f 4 163 150
f 4 150 149
f 4 149 148
f 4 148 106
f 4 106 105
f 4 105 102
f 4 102 68
f 4 68 67
f 4 67 37
f 4 37 19
f 4 19 10
f 4 10 5
f 6 11 12
f 6 12 13
f 7 14 15
f 7 15 16
f 7 16 8
f 9 18 17
f 10 19 20
f 10 20 21
f 11 22 23
f 11 23 24
f 11 24 12
f 12 25 26
f 12 26 13
f 12 24 27
f 12 27 28
f 12 28 25
f 14 29 15
f 15 30 31
f 15 31 32
f 15 32 33
f 15 33 16
f 15 29 30
f 17 18 35
f 17 35 34
f 18 36 35
f 19 37 20
f 20 37 38
f 20 38 39
f 20 39 40
f 20 40 41
f 20 41 21
f 22 42 23
f 23 43 27
f 23 27 24
f 23 42 44
f 23 44 45
f 23 45 46
f 23 46 43
f 25 28 47
f 25 47 48
f 25 48 49
f 25 49 50
f 25 50 26
f 27 43 51
f 27 51 28
f 28 51 52
f 28 52 47
f 29 53 54
f 29 54 30
f 30 54 55
f 30 55 56
f 30 56 57
f 30 57 31
f 31 57 58
f 31 58 59
f 31 59 60
f 31 60 32
f 34 35 61
f 34 61 62
f 34 62 63
f 35 36 64
f 35 64 65
f 35 65 66
f 35 66 61
f 37 67 38
f 38 67 68
f 38 68 69
f 38 69 70
f 38 70 39
f 39 70 71
f 39 71 72
f 39 72 40
f 40 72 73
f 43 46 51
f 44 74 45
f 45 74 75
f 45 75 46
f 46 75 76
f 46 76 51
f 47 77 78
f 47 78 48
f 47 52 79
f 47 79 77
f 51 76 80
f 51 80 52
f 52 81 79
f 52 80 82
f 52 82 81
f 53 83 54
f 54 83 84
f 54 84 85
f 54 85 55
f 55 85 86
f 55 86 87
f 55 87 88
f 55 88 56
f 56 88 57
f 57 88 89
f 57 89 90
f 57 90 91
f 57 91 58
f 58 91 92
f 61 93 62
f 61 66 94
f 61 94 95
f 61 95 93
f 62 93 96
f 62 96 97
f 62 97 98
f 62 98 99
f 62 99 63
f 65 100 101
f 65 101 66
f 66 101 94
f 68 102 69
f 69 103 104
f 69 104 70
f 69 102 105
f 69 105 106
f 69 106 103
f 70 107 71
f 70 104 107
f 71 107 108
f 71 108 109
f 71 109 110
f 71 110 111
f 71 111 72
f 72 112 113
f 72 113 73
f 72 111 112
f 74 114 75
f 75 114 115
f 75 115 116
f 75 116 109
f 75 109 76
f 76 117 118
f 76 118 80
f 76 109 119
f 76 119 117
f 77 79 120
f 77 120 121
f 77 121 78
f 79 81 122
f 79 122 120
f 80 118 82
f 81 82 122
f 82 118 123
f 82 123 124
f 82 124 125
f 82 125 89
f 82 89 87
f 82 87 126
f 82 126 122
f 85 127 86
f 86 127 128
f 86 128 129
f 86 129 130
f 86 130 122
f 86 122 126
f 86 126 87
f 87 89 88
f 89 125 131
f 89 131 90
f 90 131 132
f 90 132 133
f 90 133 134
f 90 134 135
f 90 135 91
f 91 135 136
f 91 136 137
f 91 137 92
f 93 138 96
f 93 95 139
f 93 139 138
f 94 101 133
f 94 133 140
f 94 140 95
f 95 140 141
f 95 141 142
f 95 142 139
f 96 138 143
f 96 143 144
f 96 144 97
f 100 145 101
f 101 145 146
f 101 146 134
f 101 134 133
f 103 147 107
f 103 107 104
f 103 106 148
f 103 148 149
f 103 149 150
f 103 150 147
f 107 139 151
f 107 151 108
f 107 147 139
f 108 152 109
f 108 151 153
f 108 153 152
f 109 152 119
f 109 116 110
f 110 116 111
f 111 116 154
f 111 154 155
f 111 155 156
f 111 156 112
f 115 157 116
f 116 157 154
f 117 158 124
f 117 124 123
f 117 123 118
f 117 119 152
f 117 152 158
f 120 122 130
f 124 158 159
f 124 159 160
f 124 160 125
f 125 160 131
f 131 160 161
f 131 161 132
f 132 161 140
f 132 140 133
f 134 146 162
f 134 162 136
f 134 136 135
f 138 139 147
f 138 147 163
f 138 163 143
f 139 142 164
f 139 164 151
f 140 161 141
f 141 161 160
f 141 160 142
f 142 160 159
f 142 159 164
f 147 150 163
f 151 164 153
f 152 165 158
f 152 153 164
f 152 164 165
f 154 166 155
f 154 157 166
f 158 165 159
f 159 165 164

