# https://github.com/mikedh/trimesh
v -0.02801660 -0.04200391 -0.05127130
v -0.02801660 -0.04206500 -0.05115501
v -0.02801660 -0.03865834 -0.05127130
v -0.02647628 -0.04305694 -0.05127130
v -0.02613089 -0.04397974 -0.04996626
v -0.02801660 -0.04338651 -0.04851724
v -0.02801660 -0.04410836 -0.03241557
v 0.00043908 -0.05254544 -0.03241557
v 0.00043908 -0.04842176 -0.05127130
v -0.02540389 -0.04373859 -0.05127130
v -0.02359060 -0.04533019 -0.05021730
v -0.02576600 -0.04541701 -0.04731372
v -0.02801660 -0.04362927 -0.04797824
v -0.02801660 -0.04651505 -0.03241557
v 0.00043908 -0.05505663 -0.03241557
v 0.00043908 -0.05110175 -0.05127130
v -0.02271598 -0.04528840 -0.05127130
v -0.02373265 -0.04669029 -0.04694823
v -0.02118958 -0.04606008 -0.05127130
v -0.02071049 -0.04665170 -0.05050895
v -0.02550139 -0.04716937 -0.04241474
v -0.02801660 -0.04528840 -0.04364964
v -0.02801660 -0.04407459 -0.04692793
v -0.02801660 -0.04702951 -0.03241741
v -0.02801382 -0.04702951 -0.03241557
v -0.00138536 -0.05506467 -0.03241557
v 0.00043908 -0.05508235 -0.03351387
v 0.00043908 -0.05124484 -0.05092058
v 0.00025803 -0.05110657 -0.05127130
v -0.02037624 -0.04824973 -0.04713652
v -0.02018962 -0.04909858 -0.04485869
v -0.02344576 -0.04764685 -0.04448582
v -0.02014227 -0.04651345 -0.05127130
v -0.01906153 -0.04697163 -0.05127130
v -0.01647946 -0.04838317 -0.05060863
v -0.02661833 -0.04702468 -0.04042487
v -0.02801660 -0.04538646 -0.04332291
v -0.02801660 -0.04534627 -0.04346874
v -0.02379393 -0.04853268 -0.04072390
v -0.02801660 -0.04702307 -0.03273860
v -0.02493595 -0.04877062 -0.03241557
v -0.00262208 -0.05502126 -0.03241557
v -0.00156920 -0.05489908 -0.03626424
v 0.00043908 -0.05506628 -0.03388489
v 0.00043908 -0.05179466 -0.04949556
v 0.00004634 -0.05110496 -0.05127130
v -0.01710339 -0.04933009 -0.04779365
v -0.01854902 -0.04949086 -0.04580378
v -0.01910610 -0.05011785 -0.04292420
v -0.02164360 -0.04937832 -0.04163762
v -0.01624549 -0.04815649 -0.05127130
v -0.01410630 -0.04886708 -0.05127130
v -0.01309241 -0.04920308 -0.05127130
v -0.01445169 -0.04999567 -0.04853385
v -0.02522006 -0.04827385 -0.03785355
v -0.02801660 -0.04650058 -0.03854022
v -0.02801660 -0.04637840 -0.03928780
v -0.02305859 -0.04945870 -0.03761358
v -0.02801660 -0.04686713 -0.03562925
v -0.02420060 -0.04914681 -0.03433344
v -0.02228424 -0.05014840 -0.03241557
v -0.00575287 -0.05479136 -0.03241557
v -0.00621804 -0.05474956 -0.03309854
v -0.00416519 -0.05486371 -0.03471554
v -0.00369167 -0.05460809 -0.03818027
v 0.00043908 -0.05461452 -0.03901277
v 0.00043908 -0.05257278 -0.04744108
v -0.00178924 -0.05127699 -0.05076184
v -0.00108732 -0.05108889 -0.05127130
v -0.01561320 -0.05042492 -0.04630217
v -0.01890833 -0.05083648 -0.04017936
v -0.01614243 -0.05109853 -0.04329338
v -0.01555749 -0.05180913 -0.04144749
v -0.02074113 -0.05035739 -0.03857714
v -0.01224843 -0.04943620 -0.05127130
v -0.01098386 -0.05004711 -0.05066031
v -0.01021509 -0.05147473 -0.04750200
v -0.01317040 -0.05106477 -0.04652553
v -0.02801660 -0.04684623 -0.03588583
v -0.02135113 -0.05046029 -0.03514563
v -0.02207255 -0.05025772 -0.03250232
v -0.02211712 -0.05023360 -0.03241557
v -0.00669155 -0.05466114 -0.03241557
v -0.00871933 -0.05436372 -0.03330344
v -0.00765252 -0.05432031 -0.03683278
v -0.00495346 -0.05428977 -0.03974189
v -0.00201765 -0.05419170 -0.04132013
v 0.00043908 -0.05416437 -0.04154163
v 0.00043908 -0.05278981 -0.04677841
v 0.00012433 -0.05273354 -0.04699992
v -0.00191459 -0.05104066 -0.05127130
v -0.00311788 -0.05217568 -0.04821820
v -0.00490611 -0.05110175 -0.05067508
v -0.00433510 -0.05087507 -0.05127130
v -0.01428735 -0.05162585 -0.04360349
v -0.01701426 -0.05194256 -0.03760620
v -0.01454918 -0.05245541 -0.03949823
v -0.01235707 -0.05239432 -0.04258087
v -0.01074710 -0.05335732 -0.03988956
v -0.01916181 -0.05132200 -0.03593198
v -0.01052427 -0.04985258 -0.05127130
v -0.00971650 -0.05002461 -0.05127130
v -0.00744361 -0.05044904 -0.05127130
v -0.00746868 -0.05120464 -0.04947710
v -0.00630438 -0.05235252 -0.04683563
v -0.00778900 -0.05275283 -0.04473871
v -0.01007025 -0.05281071 -0.04316601
v -0.01937628 -0.05140560 -0.03241557
v -0.02111159 -0.05066928 -0.03241557
v -0.02206698 -0.05025772 -0.03241557
v -0.00848814 -0.05437980 -0.03241557
v -0.00937390 -0.05422225 -0.03241557
v -0.01073039 -0.05394573 -0.03241557
v -0.01061897 -0.05398110 -0.03402149
v -0.01114820 -0.05359526 -0.03756374
v -0.00927084 -0.05378174 -0.03908845
v -0.00713165 -0.05401646 -0.03965883
v -0.00469442 -0.05318047 -0.04468333
v -0.00690603 -0.05366439 -0.04166531
v -0.00191459 -0.05328979 -0.04493253
v -0.00020713 -0.05372387 -0.04352780
v 0.00043908 -0.05393287 -0.04259748
v 0.00043908 -0.05361776 -0.04385822
v -0.00579187 -0.05070948 -0.05127130
v -0.01446840 -0.05280910 -0.03726286
v -0.01636805 -0.05238789 -0.03478568
v -0.01920359 -0.05146830 -0.03241557
v -0.01289743 -0.05343931 -0.03241557
v -0.01387790 -0.05312099 -0.03505334
v -0.01624270 -0.05253258 -0.03255770
v -0.01775239 -0.05199240 -0.03241557
v -0.01401160 -0.05315315 -0.03241557
v -0.01591681 -0.05262582 -0.03241557
v -0.01626499 -0.05251651 -0.03241557
f 1 2 6
f 1 6 13
f 1 13 23
f 1 23 22
f 1 22 38
f 1 38 37
f 1 37 57
f 1 57 56
f 1 56 79
f 1 79 59
f 1 59 40
f 1 40 24
f 1 24 14
f 1 14 7
f 1 7 3
f 1 3 9
f 1 9 16
f 1 16 29
f 1 29 46
f 1 46 69
f 1 69 91
f 1 91 94
f 1 94 124
f 1 124 103
f 1 103 102
f 1 102 101
f 1 101 75
f 1 75 53
f 1 53 52
f 1 52 51
f 1 51 34
f 1 34 33
f 1 33 19
f 1 19 17
f 1 17 10
f 1 10 4
f 1 4 5
f 1 5 2
f 2 5 6
f 3 7 8
f 3 8 9
f 4 10 5
f 5 10 11
f 5 11 12
f 5 12 6
f 6 12 13
f 7 14 25
f 7 25 41
f 7 41 61
f 7 61 82
f 7 82 110
f 7 110 109
f 7 109 108
f 7 108 127
f 7 127 131
f 7 131 134
f 7 134 133
f 7 133 132
f 7 132 128
f 7 128 113
f 7 113 112
f 7 112 111
f 7 111 83
f 7 83 62
f 7 62 42
f 7 42 26
f 7 26 15
f 7 15 8
f 8 15 27
f 8 27 44
f 8 44 66
f 8 66 88
f 8 88 122
f 8 122 123
f 8 123 89
f 8 89 67
f 8 67 45
f 8 45 28
f 8 28 16
f 8 16 9
f 10 17 11
f 11 18 12
f 11 17 19
f 11 19 20
f 11 20 18
f 12 18 21
f 12 21 22
f 12 22 23
f 12 23 13
f 14 24 25
f 15 26 27
f 16 28 29
f 18 20 30
f 18 30 31
f 18 31 32
f 18 32 21
f 19 33 20
f 20 33 34
f 20 34 35
f 20 35 30
f 21 36 37
f 21 37 38
f 21 38 22
f 21 32 39
f 21 39 36
f 24 40 41
f 24 41 25
f 26 42 43
f 26 43 27
f 27 43 44
f 28 45 46
f 28 46 29
f 30 35 47
f 30 47 48
f 30 48 31
f 31 48 49
f 31 49 50
f 31 50 32
f 32 50 39
f 34 51 35
f 35 51 52
f 35 52 53
f 35 53 54
f 35 54 47
f 36 39 55
f 36 55 56
f 36 56 57
f 36 57 37
f 39 50 58
f 39 58 55
f 40 59 60
f 40 60 41
f 41 60 61
f 42 62 63
f 42 63 64
f 42 64 43
f 43 64 65
f 43 65 66
f 43 66 44
f 45 67 68
f 45 68 46
f 46 68 69
f 47 54 70
f 47 70 48
f 48 70 49
f 49 71 50
f 49 70 72
f 49 72 73
f 49 73 71
f 50 71 74
f 50 74 58
f 53 75 76
f 53 76 54
f 54 76 77
f 54 77 78
f 54 78 70
f 55 58 60
f 55 60 79
f 55 79 56
f 58 74 80
f 58 80 60
f 59 79 60
f 60 80 81
f 60 81 61
f 61 81 82
f 62 83 63
f 63 83 84
f 63 84 85
f 63 85 64
f 64 85 65
f 65 85 86
f 65 86 87
f 65 87 66
f 66 87 88
f 67 89 90
f 67 90 68
f 68 91 69
f 68 90 92
f 68 92 93
f 68 93 94
f 68 94 91
f 70 78 95
f 70 95 72
f 71 73 96
f 71 96 74
f 72 95 73
f 73 97 96
f 73 95 98
f 73 98 99
f 73 99 97
f 74 96 100
f 74 100 80
f 75 101 76
f 76 101 102
f 76 102 103
f 76 103 104
f 76 104 77
f 77 104 105
f 77 105 106
f 77 106 107
f 77 107 78
f 78 107 95
f 80 100 108
f 80 108 109
f 80 109 81
f 81 109 110
f 81 110 82
f 83 111 84
f 84 111 112
f 84 112 113
f 84 113 114
f 84 114 85
f 85 114 115
f 85 115 116
f 85 116 117
f 85 117 86
f 86 118 87
f 86 117 119
f 86 119 118
f 87 118 120
f 87 120 121
f 87 121 88
f 88 121 122
f 89 123 90
f 90 121 120
f 90 120 92
f 90 123 121
f 92 118 105
f 92 105 93
f 92 120 118
f 93 105 104
f 93 104 103
f 93 103 124
f 93 124 94
f 95 107 98
f 96 97 125
f 96 125 126
f 96 126 100
f 97 99 125
f 98 107 99
f 99 107 116
f 99 116 115
f 99 115 125
f 100 127 108
f 100 126 127
f 105 118 106
f 106 118 119
f 106 119 107
f 107 119 116
f 113 128 114
f 114 128 129
f 114 129 115
f 115 129 125
f 116 119 117
f 121 123 122
f 125 129 126
f 126 129 130
f 126 130 127
f 127 130 131
f 128 132 129
f 129 132 130
f 130 133 134
f 130 134 131
f 130 132 133

