# https://github.com/mikedh/trimesh
v -0.02968823 -0.04374100 -0.01781529
v -0.03177644 -0.04216830 -0.01781529
v -0.02968823 -0.04053578 -0.01781529
v -0.02968823 -0.04367539 -0.01757461
v -0.03185626 -0.04200621 -0.01744038
v -0.03218529 -0.04184025 -0.01781529
v -0.04349617 -0.02402721 -0.01781529
v -0.02968823 -0.02402721 0.00259422
v -0.02968823 -0.04320648 -0.01638277
v -0.03036095 -0.04225127 -0.01522332
v -0.03466932 -0.03954777 -0.01734318
v -0.03454226 -0.03980828 -0.01781529
v -0.03285312 -0.03996651 -0.01439250
v -0.04632715 -0.02402721 -0.01781529
v -0.02968823 -0.02402721 0.00582724
v -0.02968823 -0.04265459 -0.01503123
v -0.03006775 -0.04114749 -0.01242768
v -0.03760291 -0.03670726 -0.01781529
v -0.03493971 -0.03941269 -0.01781529
v -0.03560266 -0.03762772 -0.01517240
v -0.03734881 -0.03674392 -0.01708167
v -0.03154840 -0.03929112 -0.01115021
v -0.03423278 -0.03762386 -0.01253183
v -0.04618055 -0.02433017 -0.01781529
v -0.04610073 -0.02402721 -0.01705390
v -0.03125357 -0.02402721 0.00453357
v -0.03010359 -0.02587007 0.00432529
v -0.02968823 -0.02558448 0.00482980
v -0.02968823 -0.04166272 -0.01292988
v -0.02968823 -0.04143501 -0.01246240
v -0.02968823 -0.04115328 -0.01196483
v -0.02968823 -0.04017492 -0.01031013
v -0.03990614 -0.03368342 -0.01698216
v -0.03921061 -0.03480264 -0.01781529
v -0.03634543 -0.03565557 -0.01284425
v -0.03801990 -0.03425847 -0.01378847
v -0.02968823 -0.03901903 -0.00847723
v -0.03214945 -0.03728230 -0.00891463
v -0.03479637 -0.03455950 -0.00877577
v -0.04566094 -0.02538958 -0.01781529
v -0.04470154 -0.02517345 -0.01462392
v -0.04550620 -0.02402721 -0.01528349
v -0.03258925 -0.02402721 0.00341809
v -0.03287919 -0.02448262 0.00288813
v -0.02968823 -0.02608813 0.00449423
v -0.03095060 -0.02776311 0.00226790
v -0.02968823 -0.02863726 0.00264282
v -0.02968823 -0.02676931 0.00400129
v -0.03936698 -0.03240210 -0.01337653
v -0.04155293 -0.03089887 -0.01557971
v -0.04092907 -0.03270313 -0.01781529
v -0.04010323 -0.03372201 -0.01781529
v -0.03726248 -0.03316819 -0.01065264
v -0.02968823 -0.03760842 -0.00650316
v -0.03005961 -0.03733248 -0.00651705
v -0.03156795 -0.03509017 -0.00536454
v -0.03429630 -0.03345764 -0.00668599
v -0.03666142 -0.03054766 -0.00644994
v -0.04524720 -0.02620005 -0.01781529
v -0.04440671 -0.02402721 -0.01264291
v -0.04503545 -0.02402721 -0.01409396
v -0.04495075 -0.02674422 -0.01781529
v -0.04391968 -0.02770907 -0.01635731
v -0.04277947 -0.02732699 -0.01299931
v -0.04249441 -0.02582183 -0.01054850
v -0.04355318 -0.02402721 -0.01077067
v -0.03309094 -0.02402721 0.00297376
v -0.03486804 -0.02402721 0.00120797
v -0.03440544 -0.02589130 0.00034938
v -0.03388257 -0.02868936 -0.00136549
v -0.03137900 -0.03012505 -0.00011348
v -0.02968823 -0.02977385 0.00167777
v -0.04015047 -0.03032574 -0.01174729
v -0.04308406 -0.02961947 -0.01742187
v -0.04287557 -0.03008646 -0.01781529
v -0.03812578 -0.03066537 -0.00877809
v -0.02968823 -0.03704881 -0.00579963
v -0.02968823 -0.03591222 -0.00443190
v -0.03119819 -0.03291347 -0.00258048
v -0.03438426 -0.03133111 -0.00445735
v -0.03838314 -0.02859480 -0.00676468
v -0.03651483 -0.02868357 -0.00438330
v -0.04402066 -0.02827447 -0.01781529
v -0.04053488 -0.02743313 -0.00887066
v -0.04212140 -0.02403300 -0.00808612
v -0.04211652 -0.02402721 -0.00807224
v -0.03560917 -0.02402721 0.00046046
v -0.03703607 -0.02581990 -0.00238146
v -0.02981854 -0.03219562 -0.00054624
v -0.02968823 -0.03216667 -0.00040970
v -0.04321763 -0.02956158 -0.01781529
v -0.02968823 -0.03500912 -0.00342982
v -0.02968823 -0.03366991 -0.00197183
v -0.02968823 -0.03233842 -0.00057401
v -0.04001690 -0.02612479 -0.00665822
v -0.04033290 -0.02402721 -0.00532057
v -0.03586654 -0.02402721 0.00018738
v -0.03817302 -0.02402721 -0.00238840
v -0.03897768 -0.02521590 -0.00442264
v -0.03975954 -0.02402721 -0.00451289
v -0.03868937 -0.02402721 -0.00306416
f 1 2 6
f 1 6 12
f 1 12 19
f 1 19 18
f 1 18 34
f 1 34 52
f 1 52 51
f 1 51 75
f 1 75 91
f 1 91 83
f 1 83 62
f 1 62 59
f 1 59 40
f 1 40 24
f 1 24 14
f 1 14 7
f 1 7 3
f 1 3 8
f 1 8 15
f 1 15 28
f 1 28 45
f 1 45 48
f 1 48 47
f 1 47 72
f 1 72 90
f 1 90 94
f 1 94 93
f 1 93 92
f 1 92 78
f 1 78 77
f 1 77 54
f 1 54 37
f 1 37 32
f 1 32 31
f 1 31 30
f 1 30 29
f 1 29 16
f 1 16 9
f 1 9 4
f 1 4 5
f 1 5 2
f 2 5 6
f 3 7 8
f 4 9 10
f 4 10 5
f 5 11 12
f 5 12 6
f 5 10 13
f 5 13 11
f 7 14 25
f 7 25 42
f 7 42 61
f 7 61 60
f 7 60 66
f 7 66 86
f 7 86 96
f 7 96 100
f 7 100 101
f 7 101 98
f 7 98 97
f 7 97 87
f 7 87 68
f 7 68 67
f 7 67 43
f 7 43 26
f 7 26 15
f 7 15 8
f 9 16 10
f 10 16 17
f 10 17 13
f 11 18 19
f 11 19 12
f 11 13 20
f 11 20 21
f 11 21 18
f 13 17 22
f 13 22 23
f 13 23 20
f 14 24 25
f 15 26 27
f 15 27 28
f 16 29 17
f 17 29 30
f 17 30 31
f 17 31 32
f 17 32 22
f 18 21 33
f 18 33 34
f 20 23 35
f 20 35 21
f 21 35 36
f 21 36 33
f 22 32 37
f 22 37 38
f 22 38 23
f 23 38 39
f 23 39 35
f 24 40 25
f 25 40 41
f 25 41 42
f 26 43 44
f 26 44 27
f 27 45 28
f 27 44 46
f 27 46 47
f 27 47 48
f 27 48 45
f 33 36 49
f 33 49 50
f 33 50 51
f 33 51 52
f 33 52 34
f 35 49 36
f 35 39 53
f 35 53 49
f 37 54 55
f 37 55 38
f 38 55 56
f 38 56 57
f 38 57 39
f 39 57 58
f 39 58 53
f 40 59 41
f 41 60 61
f 41 61 42
f 41 59 62
f 41 62 63
f 41 63 64
f 41 64 65
f 41 65 66
f 41 66 60
f 43 67 44
f 44 67 68
f 44 68 69
f 44 69 46
f 46 69 70
f 46 70 71
f 46 71 47
f 47 71 72
f 49 53 73
f 49 73 50
f 50 63 74
f 50 74 75
f 50 75 51
f 50 73 64
f 50 64 63
f 53 58 76
f 53 76 73
f 54 77 55
f 55 77 78
f 55 78 56
f 56 78 79
f 56 79 80
f 56 80 57
f 57 80 58
f 58 81 76
f 58 80 82
f 58 82 81
f 62 83 74
f 62 74 63
f 64 73 65
f 65 84 85
f 65 85 66
f 65 73 84
f 66 85 86
f 68 87 69
f 69 87 88
f 69 88 70
f 70 88 82
f 70 82 80
f 70 80 79
f 70 79 71
f 71 79 89
f 71 89 72
f 72 89 90
f 73 76 84
f 74 83 91
f 74 91 75
f 76 81 84
f 78 92 79
f 79 92 93
f 79 93 94
f 79 94 89
f 81 95 84
f 81 82 88
f 81 88 95
f 84 95 85
f 85 95 86
f 86 95 96
f 87 97 88
f 88 97 98
f 88 98 99
f 88 99 95
f 89 94 90
f 95 99 100
f 95 100 96
f 98 101 99
f 99 101 100

