# https://github.com/mikedh/trimesh
v -0.04118601 -0.00011196 -0.06443273
v -0.03841961 -0.00011196 -0.06443273
v -0.03923045 -0.00011196 -0.06677437
v -0.03932069 -0.00372205 -0.06653360
v -0.04110479 -0.00267248 -0.06443273
v -0.02801789 -0.00011196 -0.06933402
v -0.03399672 -0.01810075 -0.06443273
v -0.03896103 -0.00011196 -0.06708708
v -0.03890947 -0.00028102 -0.06715240
v -0.03726844 -0.00255449 -0.06877100
v -0.03785241 -0.00587225 -0.06789894
v -0.03960687 -0.00593212 -0.06601241
v -0.04107257 -0.00317789 -0.06443273
v -0.02801789 -0.00011196 -0.07106860
v -0.02801789 -0.01810075 -0.06914023
v -0.03729165 -0.01810075 -0.06443273
v -0.03889013 -0.00011196 -0.06716562
v -0.03869677 -0.00011196 -0.06736822
v -0.03623201 -0.00411475 -0.06965407
v -0.03703770 -0.00011196 -0.06903379
v -0.03640088 -0.00011196 -0.06961517
v -0.03595357 -0.00139222 -0.06999467
v -0.03580532 -0.00778295 -0.06951827
v -0.03796327 -0.00905969 -0.06712378
v -0.04068584 -0.00710672 -0.06443273
v -0.04087792 -0.00570319 -0.06443273
v -0.03952050 -0.00907906 -0.06543911
v -0.02801789 -0.01710401 -0.07193112
v -0.03344370 -0.00011196 -0.07109869
v -0.02801789 -0.01810075 -0.07189001
v -0.03685594 -0.01810075 -0.06493115
v -0.03748630 -0.01772037 -0.06443273
v -0.03483463 -0.00208078 -0.07079627
v -0.03468896 -0.00578244 -0.07069497
v -0.03563130 -0.00011196 -0.07023324
v -0.03415657 -0.00892585 -0.07064358
v -0.03426485 -0.01193719 -0.06988090
v -0.03656847 -0.01067982 -0.06814045
v -0.03783822 -0.01303783 -0.06609389
v -0.04058787 -0.00766144 -0.06443273
v -0.03920338 -0.01329669 -0.06443273
v -0.03926139 -0.01308889 -0.06443273
v -0.04019728 -0.00964082 -0.06443273
v -0.02801789 -0.01736464 -0.07192744
v -0.03184909 -0.01063228 -0.07144371
v -0.03290357 -0.00549891 -0.07126092
v -0.03393742 -0.00011196 -0.07100034
v -0.03357003 -0.00202619 -0.07109429
v -0.02806946 -0.01810075 -0.07187973
v -0.03529742 -0.01810075 -0.06658865
v -0.03764873 -0.01733647 -0.06443273
v -0.03343596 -0.00732861 -0.07115889
v -0.03518140 -0.00011196 -0.07055623
v -0.03450720 -0.00011196 -0.07086673
v -0.03305181 -0.01093165 -0.07100400
v -0.03223968 -0.01504186 -0.07055770
v -0.03533996 -0.01345519 -0.06842086
v -0.03523812 -0.01656866 -0.06734032
v -0.03793749 -0.01662678 -0.06443273
v -0.02999794 -0.01554375 -0.07162208
v -0.03202312 -0.01308185 -0.07119633
v -0.02845232 -0.01810075 -0.07180266
v -0.03300541 -0.01725370 -0.06908958
v -0.03307373 -0.01810075 -0.06861611
v -0.03057159 -0.01602627 -0.07134754
v -0.03022869 -0.01801798 -0.07095409
v -0.02863666 -0.01810075 -0.07173660
v -0.03025318 -0.01810075 -0.07089903
v -0.03232863 -0.01810075 -0.06925548
v -0.03013717 -0.01810075 -0.07098198
v -0.03017326 -0.01810075 -0.07095850
f 1 2 6
f 1 6 14
f 1 14 29
f 1 29 47
f 1 47 54
f 1 54 53
f 1 53 35
f 1 35 21
f 1 21 20
f 1 20 18
f 1 18 17
f 1 17 8
f 1 8 3
f 1 3 4
f 1 4 5
f 1 5 13
f 1 13 26
f 1 26 25
f 1 25 40
f 1 40 43
f 1 43 42
f 1 42 41
f 1 41 59
f 1 59 51
f 1 51 32
f 1 32 16
f 1 16 7
f 1 7 2
f 2 7 6
f 3 8 9
f 3 9 4
f 4 10 11
f 4 11 12
f 4 12 5
f 4 9 10
f 5 12 13
f 6 7 15
f 6 15 30
f 6 30 44
f 6 44 28
f 6 28 14
f 7 16 31
f 7 31 50
f 7 50 64
f 7 64 69
f 7 69 68
f 7 68 71
f 7 71 70
f 7 70 67
f 7 67 62
f 7 62 49
f 7 49 30
f 7 30 15
f 8 17 9
f 9 17 18
f 9 18 10
f 10 19 11
f 10 18 20
f 10 20 21
f 10 21 22
f 10 22 19
f 11 23 24
f 11 24 12
f 11 19 23
f 12 25 26
f 12 26 13
f 12 24 27
f 12 27 25
f 14 28 29
f 16 32 31
f 19 22 33
f 19 33 34
f 19 34 23
f 21 35 22
f 22 35 33
f 23 34 36
f 23 36 37
f 23 37 38
f 23 38 24
f 24 38 39
f 24 39 27
f 25 27 40
f 27 39 41
f 27 41 42
f 27 42 43
f 27 43 40
f 28 44 45
f 28 45 46
f 28 46 29
f 29 46 48
f 29 48 47
f 30 49 44
f 31 32 50
f 32 51 50
f 33 52 34
f 33 35 53
f 33 53 54
f 33 54 52
f 34 52 55
f 34 55 36
f 36 55 37
f 37 55 56
f 37 56 57
f 37 57 38
f 38 57 39
f 39 57 58
f 39 58 59
f 39 59 41
f 44 49 60
f 44 60 45
f 45 60 61
f 45 61 52
f 45 52 46
f 46 52 48
f 47 48 52
f 47 52 54
f 49 62 60
f 50 51 58
f 50 58 63
f 50 63 64
f 51 59 58
f 52 61 55
f 55 61 56
f 56 61 65
f 56 65 66
f 56 66 63
f 56 63 57
f 57 63 58
f 60 62 65
f 60 65 61
f 62 67 65
f 63 66 68
f 63 68 69
f 63 69 64
f 65 67 70
f 65 70 66
f 66 70 71
f 66 71 68

