# https://github.com/mikedh/trimesh
v -0.03866587 -0.00008243 -0.06740003
v -0.03855869 0.00290921 -0.06740003
v -0.03855487 0.00290524 -0.06740520
v -0.03690125 0.00133007 -0.06918930
v -0.03703522 -0.00011020 -0.06903474
v -0.03866204 -0.00011020 -0.06740003
v -0.03832519 0.00506763 -0.06740003
v -0.03742183 0.00573024 -0.06829581
v -0.03723044 0.00360356 -0.06872733
v -0.03536630 0.00094123 -0.07042869
v -0.03563042 -0.00011020 -0.07023391
v -0.03639980 -0.00011020 -0.06961565
v -0.03586774 0.00406777 -0.06985582
v -0.03594812 -0.00011020 -0.06740003
v -0.03815295 0.00632142 -0.06740003
v -0.03759791 0.00915832 -0.06740003
v -0.03754815 0.00941226 -0.06740003
v -0.03737207 0.00930513 -0.06760803
v -0.03524381 0.00963445 -0.06953578
v -0.03567252 0.00661107 -0.06971620
v -0.03449355 0.00475815 -0.07072691
v -0.03518256 -0.00011020 -0.07055625
v -0.03407632 0.00777360 -0.07069702
v 0.00043908 -0.00011020 -0.07152098
v 0.00043525 0.03774157 -0.06740003
v -0.03746394 0.00971380 -0.06740003
v -0.03590602 0.01262212 -0.06809701
v -0.03504859 0.01163019 -0.06920022
v -0.03409163 0.00996773 -0.07033791
v -0.03424092 0.00148084 -0.07092341
v -0.03450504 -0.00011020 -0.07086653
v -0.03344091 0.00670629 -0.07102339
v -0.03297391 0.01045972 -0.07090445
v 0.00043908 -0.00011020 -0.07325855
v 0.00043908 0.03872556 -0.06740003
v -0.03663330 0.01253086 -0.06740003
v -0.03594429 0.01445519 -0.06740003
v -0.03349449 0.01491941 -0.06947143
v -0.03334521 0.01259831 -0.07026436
v -0.03323421 0.00302030 -0.07110614
v -0.03344091 -0.00011020 -0.07109866
v -0.03393469 -0.00011020 -0.07100041
v -0.03180643 0.01244754 -0.07104006
v -0.03216624 0.00921387 -0.07114176
v -0.03269448 0.00623413 -0.07115842
v -0.03218155 0.01464961 -0.07049649
v -0.03063894 0.01713338 -0.07070450
v -0.00046811 -0.00011020 -0.07320396
v -0.00007385 0.00327027 -0.07323901
v 0.00043908 0.00247673 -0.07326716
v 0.00043908 0.04041580 -0.06740003
v -0.03556534 0.01541140 -0.06740003
v -0.03540457 0.01581214 -0.06740003
v -0.03378158 0.01669694 -0.06855093
v -0.03163800 0.01786741 -0.06983974
v -0.00104611 -0.00011020 -0.07316891
v -0.02904657 0.01811340 -0.07110843
v -0.02979300 0.01509399 -0.07124059
v -0.02609150 0.01874823 -0.07148996
v -0.00229015 0.03283751 -0.07307410
v -0.00260403 0.03023073 -0.07305859
v -0.00250451 0.01859746 -0.07307813
v -0.02974707 0.02057337 -0.07011382
v -0.02835757 0.02088285 -0.07080448
v 0.00043908 0.00450819 -0.07326946
v 0.00043908 0.00340914 -0.07326832
v 0.00043908 0.03882872 -0.06912839
v -0.00036859 0.04042373 -0.06740003
v -0.03485720 0.01702625 -0.06740003
v -0.03370503 0.01937910 -0.06740003
v -0.03109445 0.02093443 -0.06891350
v -0.02746569 0.02091459 -0.07109694
v -0.02624461 0.02017660 -0.07143939
v -0.01635354 0.02818737 -0.07206110
v -0.00643185 0.03292479 -0.07272763
v -0.00167770 0.03355962 -0.07297240
v 0.00043908 0.03322237 -0.07314650
v 0.00043908 0.03296447 -0.07319419
v 0.00043908 0.03221458 -0.07323959
v 0.00043908 0.03079811 -0.07324131
v -0.02803603 0.02327140 -0.07003395
v -0.02608002 0.02369595 -0.07090963
v 0.00043908 0.03792408 -0.07002533
v -0.00032648 0.03879301 -0.06917494
v -0.00257341 0.04022138 -0.06750173
v -0.00236288 0.04032454 -0.06740003
v -0.03341028 0.01993060 -0.06740003
v -0.03219686 0.02208903 -0.06740003
v -0.03177580 0.02271989 -0.06740003
v -0.02964371 0.02427126 -0.06828088
v -0.02464459 0.02385862 -0.07130437
v -0.02358428 0.02337059 -0.07156523
v -0.02050289 0.02626304 -0.07175370
v -0.01619277 0.02942926 -0.07199675
v -0.01132379 0.03154007 -0.07235931
v -0.00918022 0.03318666 -0.07225876
v -0.00586533 0.03377785 -0.07249894
v -0.00231695 0.03448013 -0.07254376
v 0.00043908 0.03413494 -0.07286955
v 0.00043908 0.03409923 -0.07288449
v -0.02781019 0.02656062 -0.06831420
v -0.02615657 0.02684232 -0.06929043
v -0.02542929 0.02560044 -0.07043329
v -0.02354600 0.02605672 -0.07109005
v 0.00043908 0.03714642 -0.07074414
v -0.00299447 0.03705516 -0.07060394
v -0.00402415 0.03845179 -0.06912725
v -0.00295619 0.04026502 -0.06740003
v -0.00264231 0.04030470 -0.06740003
v -0.00534857 0.03992777 -0.06740003
v -0.03057005 0.02443394 -0.06740003
v -0.02991932 0.02531476 -0.06740003
v -0.02887050 0.02665584 -0.06740003
v -0.02152492 0.02710022 -0.07142100
v -0.01865023 0.02890552 -0.07165486
v -0.01530089 0.03105998 -0.07176462
v -0.01199749 0.03232964 -0.07204616
v -0.01099843 0.03373420 -0.07162499
v -0.00881658 0.03415478 -0.07186344
v -0.00696391 0.03513480 -0.07163763
v -0.00431124 0.03503164 -0.07205249
v -0.00237819 0.03579741 -0.07173703
v 0.00043908 0.03503164 -0.07238345
v -0.02779105 0.02785409 -0.06740003
v -0.02728578 0.02835798 -0.06740003
v -0.02477856 0.02988951 -0.06809184
v -0.02373357 0.02825482 -0.06990466
v -0.02281106 0.02737003 -0.07087112
v 0.00043908 0.03602356 -0.07171750
v -0.00686056 0.03686868 -0.07016036
v -0.00841083 0.03932071 -0.06740003
v -0.01889904 0.02967922 -0.07131644
v -0.01574875 0.03201620 -0.07120611
v -0.01313818 0.03322634 -0.07136068
v -0.00952089 0.03533715 -0.07085389
v 0.00043908 0.03521812 -0.07226968
v -0.02614509 0.02949274 -0.06740003
v -0.02523407 0.03034579 -0.06740003
v -0.02482067 0.03071479 -0.06740003
v -0.02221775 0.03279783 -0.06740003
v -0.02173545 0.03144088 -0.06878479
v -0.02166272 0.02979429 -0.07002533
v -0.01915550 0.03094492 -0.07052235
v -0.00937161 0.03780506 -0.06865206
v -0.00875533 0.03923739 -0.06740003
v -0.01800333 0.03234551 -0.07005981
v -0.01503295 0.03388498 -0.07015404
v -0.01195538 0.03514670 -0.07024252
v -0.02213737 0.03285338 -0.06740003
v -0.01957273 0.03370246 -0.06816136
v -0.01291616 0.03726942 -0.06794301
v -0.01292765 0.03781299 -0.06740003
v -0.01637651 0.03495625 -0.06862736
v -0.02038423 0.03402384 -0.06740003
v -0.01876124 0.03504751 -0.06740003
v -0.01440136 0.03719006 -0.06740003
v -0.01856219 0.03515860 -0.06740003
v -0.01625402 0.03634891 -0.06740003
f 1 2 3
f 1 3 4
f 1 4 5
f 1 5 6
f 1 6 14
f 1 14 25
f 1 25 35
f 1 35 51
f 1 51 68
f 1 68 86
f 1 86 109
f 1 109 108
f 1 108 110
f 1 110 131
f 1 131 145
f 1 145 152
f 1 152 156
f 1 156 158
f 1 158 157
f 1 157 155
f 1 155 154
f 1 154 149
f 1 149 140
f 1 140 139
f 1 139 138
f 1 138 137
f 1 137 125
f 1 125 124
f 1 124 113
f 1 113 112
f 1 112 111
f 1 111 89
f 1 89 88
f 1 88 87
f 1 87 70
f 1 70 69
f 1 69 53
f 1 53 52
f 1 52 37
f 1 37 36
f 1 36 26
f 1 26 17
f 1 17 16
f 1 16 15
f 1 15 7
f 1 7 2
f 2 7 3
f 3 7 8
f 3 8 9
f 3 9 4
f 4 10 11
f 4 11 12
f 4 12 5
f 4 9 13
f 4 13 10
f 5 12 11
f 5 11 22
f 5 22 31
f 5 31 42
f 5 42 41
f 5 41 56
f 5 56 48
f 5 48 34
f 5 34 24
f 5 24 14
f 5 14 6
f 7 15 8
f 8 15 16
f 8 16 17
f 8 17 18
f 8 18 19
f 8 19 20
f 8 20 9
f 9 20 13
f 10 13 21
f 10 21 22
f 10 22 11
f 13 20 23
f 13 23 21
f 14 24 25
f 17 26 18
f 18 26 27
f 18 27 28
f 18 28 19
f 19 28 29
f 19 29 20
f 20 29 23
f 21 30 31
f 21 31 22
f 21 23 32
f 21 32 30
f 23 29 33
f 23 33 32
f 24 34 50
f 24 50 66
f 24 66 65
f 24 65 80
f 24 80 79
f 24 79 78
f 24 78 77
f 24 77 100
f 24 100 99
f 24 99 123
f 24 123 136
f 24 136 129
f 24 129 105
f 24 105 83
f 24 83 67
f 24 67 51
f 24 51 35
f 24 35 25
f 26 36 27
f 27 36 37
f 27 37 38
f 27 38 28
f 28 38 39
f 28 39 29
f 29 39 33
f 30 32 40
f 30 40 41
f 30 41 42
f 30 42 31
f 32 33 43
f 32 43 44
f 32 44 45
f 32 45 40
f 33 39 46
f 33 46 47
f 33 47 43
f 34 48 49
f 34 49 50
f 37 52 38
f 38 52 53
f 38 53 54
f 38 54 55
f 38 55 46
f 38 46 39
f 40 45 41
f 41 45 49
f 41 49 56
f 43 47 57
f 43 57 58
f 43 58 44
f 44 58 45
f 45 58 59
f 45 59 60
f 45 60 61
f 45 61 62
f 45 62 49
f 46 55 47
f 47 55 63
f 47 63 64
f 47 64 57
f 48 56 49
f 49 65 66
f 49 66 50
f 49 62 65
f 51 67 68
f 53 69 54
f 54 69 70
f 54 70 71
f 54 71 55
f 55 71 63
f 57 64 72
f 57 72 73
f 57 73 58
f 58 73 59
f 59 73 74
f 59 74 60
f 60 74 75
f 60 75 76
f 60 76 77
f 60 77 78
f 60 78 79
f 60 79 61
f 61 79 80
f 61 80 62
f 62 80 65
f 63 71 81
f 63 81 64
f 64 81 82
f 64 82 72
f 67 83 84
f 67 84 68
f 68 84 85
f 68 85 86
f 70 87 71
f 71 88 89
f 71 89 90
f 71 90 81
f 71 87 88
f 72 82 91
f 72 91 73
f 73 91 92
f 73 92 93
f 73 93 74
f 74 93 94
f 74 94 95
f 74 95 75
f 75 96 97
f 75 97 76
f 75 95 96
f 76 97 98
f 76 98 99
f 76 99 100
f 76 100 77
f 81 90 101
f 81 101 102
f 81 102 103
f 81 103 82
f 82 103 104
f 82 104 91
f 83 105 84
f 84 105 106
f 84 106 107
f 84 107 85
f 85 108 109
f 85 109 86
f 85 107 110
f 85 110 108
f 89 111 90
f 90 111 112
f 90 112 113
f 90 113 101
f 91 104 114
f 91 114 93
f 91 93 92
f 93 114 115
f 93 115 94
f 94 115 116
f 94 116 95
f 95 116 117
f 95 117 96
f 96 117 118
f 96 118 119
f 96 119 97
f 97 119 120
f 97 120 121
f 97 121 98
f 98 121 122
f 98 122 123
f 98 123 99
f 101 113 124
f 101 124 125
f 101 125 126
f 101 126 102
f 102 126 127
f 102 127 103
f 103 127 128
f 103 128 104
f 104 128 114
f 105 129 122
f 105 122 106
f 106 122 120
f 106 120 130
f 106 130 107
f 107 130 110
f 110 130 131
f 114 128 132
f 114 132 115
f 115 132 116
f 116 132 133
f 116 133 134
f 116 134 117
f 117 134 118
f 118 120 119
f 118 134 135
f 118 135 120
f 120 135 130
f 120 122 121
f 122 129 136
f 122 136 123
f 125 137 126
f 126 138 139
f 126 139 140
f 126 140 141
f 126 141 142
f 126 142 127
f 126 137 138
f 127 142 128
f 128 142 143
f 128 143 132
f 130 135 144
f 130 144 145
f 130 145 131
f 132 143 133
f 133 146 147
f 133 147 134
f 133 143 146
f 134 147 148
f 134 148 135
f 135 148 144
f 140 149 150
f 140 150 141
f 141 143 142
f 141 150 146
f 141 146 143
f 144 151 152
f 144 152 145
f 144 148 151
f 146 150 153
f 146 153 147
f 147 153 151
f 147 151 148
f 149 154 150
f 150 154 155
f 150 155 153
f 151 156 152
f 151 153 156
f 153 155 157
f 153 157 158
f 153 158 156

