# https://github.com/mikedh/trimesh
v -0.00022532 -0.04590271 0.07020349
v -0.00022532 -0.04584965 0.06989051
v 0.00153176 -0.04538216 0.06775660
v 0.00238180 -0.04581427 0.07061320
v 0.00100463 -0.04584712 0.07119363
v -0.00022532 -0.04590019 0.07032868
v -0.00022532 -0.04473274 0.06378468
v 0.00032792 -0.04462156 0.06308476
v 0.00322947 -0.04463672 0.06426267
v 0.00544007 -0.04513958 0.06866138
v 0.00763404 -0.04509157 0.07076115
v 0.00475861 -0.04551609 0.07118794
v 0.00125870 -0.04566266 0.07144970
v -0.00022532 -0.04573341 0.07135865
v -0.00022532 -0.04584712 0.07119931
v -0.00022532 -0.04445983 0.06238483
v 0.00289468 -0.04379524 0.05985259
v -0.00018021 -0.03463255 0.01351538
v 0.00045139 -0.03465277 0.01351538
v 0.00352390 -0.03448346 0.01351538
v 0.00464226 -0.04428042 0.06310752
v 0.00855769 -0.04468220 0.06946942
v 0.01059970 -0.04426525 0.06977671
v 0.01067806 -0.04429305 0.07100015
v 0.00712591 -0.04503345 0.07127329
v 0.00323660 -0.04540238 0.07153505
v -0.00022532 -0.04545292 0.07163747
v -0.00022532 -0.04550598 0.07160334
v -0.00022532 -0.04566266 0.07145538
v -0.00022532 -0.03463002 0.01351538
v 0.00566326 -0.03417517 0.01351538
v 0.00587934 -0.04332776 0.05950547
v 0.00795696 -0.04336566 0.06182717
v 0.01006545 -0.04333029 0.06420008
v 0.01179404 -0.04320899 0.06622019
v 0.01380043 -0.04336314 0.07047663
v 0.01000372 -0.04214515 0.05798613
v 0.01305723 -0.04348696 0.07115948
v 0.01228317 -0.04346421 0.07144970
v 0.00832025 -0.04448763 0.07151797
v 0.00581048 -0.04473274 0.07160903
v -0.00022532 -0.04540743 0.07164886
v -0.00022532 -0.03228755 0.01351538
v 0.00601943 -0.03410442 0.01351538
v 0.00788335 -0.03369758 0.01351538
v 0.00830838 -0.04151847 0.05299561
v 0.01360810 -0.04155890 0.06089963
v 0.01510399 -0.04187730 0.06530972
v 0.01602527 -0.04237257 0.06970273
v 0.01575221 -0.04258231 0.07086358
v 0.01132865 -0.04089937 0.05395730
v 0.00804007 -0.03365462 0.01351538
v 0.01057358 -0.03290665 0.01351538
v 0.01557413 -0.04216031 0.07143831
v 0.02403184 -0.03706599 0.07141555
v -0.00022532 -0.04500565 0.07162040
v 0.02403184 -0.02008747 0.01351538
v -0.00022532 -0.03317956 0.01909769
v 0.02403184 -0.02022140 0.01453965
v 0.01621760 -0.04009580 0.05906162
v 0.01366034 -0.03164318 0.01351538
v 0.01373395 -0.03161285 0.01351538
v 0.01747367 -0.04180654 0.07045956
v 0.01713413 -0.04130873 0.06694287
v 0.01970088 -0.04056329 0.07082944
v 0.01776335 -0.04139970 0.07122208
v 0.02015203 -0.03974708 0.07138141
v 0.02403184 -0.03724288 0.07138710
v 0.02403184 -0.03675266 0.07137572
v -0.00022532 -0.04495763 0.07160903
v 0.02403184 -0.02395622 0.01351538
v -0.00022532 -0.03320988 0.01926841
v -0.00022532 -0.03447841 0.02589207
v -0.00022532 -0.03542854 0.03066635
v -0.00022532 -0.03637109 0.03539510
v -0.00022532 -0.04224117 0.06269781
v -0.00022532 -0.04279710 0.06509348
v -0.00022532 -0.04315340 0.06661852
v -0.00022532 -0.04398729 0.07004985
v 0.02403184 -0.03330085 0.06302216
v 0.01802691 -0.03937310 0.06002899
v 0.01754015 -0.02950033 0.01351538
v 0.01989321 -0.04047484 0.07022625
v 0.02023276 -0.03955251 0.06664128
v 0.02298472 -0.03852404 0.07041404
v 0.02143422 -0.03945901 0.07093756
v 0.02260718 -0.03839011 0.07130174
v 0.02403184 -0.03747031 0.07122208
v 0.02403184 -0.03619167 0.07097738
v -0.00022532 -0.04453816 0.07117087
v 0.02394636 -0.02405224 0.01351538
v 0.02403184 -0.03571155 0.06131503
v 0.02403184 -0.03534767 0.06952633
v 0.02403184 -0.03496105 0.06851343
v 0.02403184 -0.03423329 0.06628847
v 0.02403184 -0.03334128 0.06317011
v 0.01977212 -0.03842549 0.06024523
v 0.01959879 -0.02807261 0.01351538
v 0.02275677 -0.03734649 0.06414318
v 0.02296572 -0.03801866 0.06790455
v 0.02403184 -0.03775080 0.07055061
v 0.02326015 -0.03818290 0.07104567
v 0.02403184 -0.03741977 0.06880365
v 0.02403184 -0.03764214 0.06987914
v 0.02403184 -0.03757897 0.07110827
v 0.02376116 -0.02425945 0.01351538
v 0.02403184 -0.03640899 0.06426837
v 0.02121340 -0.02669795 0.01351538
v 0.02191623 -0.02607885 0.01351538
v 0.02403184 -0.03766993 0.07089772
f 1 2 3
f 1 3 4
f 1 4 5
f 1 5 6
f 1 6 15
f 1 15 14
f 1 14 29
f 1 29 28
f 1 28 27
f 1 27 42
f 1 42 56
f 1 56 70
f 1 70 90
f 1 90 79
f 1 79 78
f 1 78 77
f 1 77 76
f 1 76 75
f 1 75 74
f 1 74 73
f 1 73 72
f 1 72 58
f 1 58 43
f 1 43 30
f 1 30 16
f 1 16 7
f 1 7 2
f 2 7 8
f 2 8 3
f 3 8 9
f 3 9 4
f 4 9 10
f 4 10 11
f 4 11 12
f 4 12 5
f 5 12 13
f 5 13 14
f 5 14 15
f 5 15 6
f 7 16 8
f 8 17 9
f 8 16 18
f 8 18 19
f 8 19 20
f 8 20 17
f 9 17 21
f 9 21 10
f 10 22 11
f 10 21 22
f 11 22 23
f 11 23 24
f 11 24 25
f 11 25 12
f 12 25 26
f 12 26 13
f 13 26 27
f 13 27 28
f 13 28 29
f 13 29 14
f 16 30 18
f 17 20 21
f 18 30 43
f 18 43 57
f 18 57 71
f 18 71 91
f 18 91 106
f 18 106 109
f 18 109 108
f 18 108 98
f 18 98 82
f 18 82 62
f 18 62 61
f 18 61 53
f 18 53 52
f 18 52 45
f 18 45 44
f 18 44 31
f 18 31 20
f 18 20 19
f 20 31 21
f 21 32 33
f 21 33 22
f 21 31 32
f 22 33 34
f 22 34 23
f 23 35 36
f 23 36 24
f 23 34 37
f 23 37 35
f 24 38 39
f 24 39 25
f 24 36 38
f 25 39 40
f 25 40 26
f 26 40 41
f 26 41 42
f 26 42 27
f 31 44 32
f 32 44 33
f 33 37 34
f 33 44 45
f 33 45 46
f 33 46 37
f 35 37 47
f 35 47 36
f 36 47 48
f 36 48 49
f 36 49 50
f 36 50 38
f 37 51 47
f 37 46 45
f 37 45 52
f 37 52 53
f 37 53 51
f 38 54 39
f 38 50 54
f 39 54 41
f 39 41 40
f 41 54 55
f 41 55 42
f 42 55 56
f 43 58 59
f 43 59 57
f 47 51 53
f 47 53 48
f 48 60 49
f 48 53 61
f 48 61 62
f 48 62 60
f 49 63 50
f 49 60 64
f 49 64 63
f 50 63 65
f 50 65 66
f 50 66 54
f 54 66 67
f 54 67 55
f 55 67 68
f 55 68 88
f 55 88 105
f 55 105 110
f 55 110 101
f 55 101 104
f 55 104 103
f 55 103 107
f 55 107 92
f 55 92 71
f 55 71 57
f 55 57 59
f 55 59 80
f 55 80 96
f 55 96 95
f 55 95 94
f 55 94 93
f 55 93 89
f 55 89 69
f 55 69 56
f 56 69 70
f 58 72 59
f 59 72 73
f 59 73 74
f 59 74 75
f 59 75 76
f 59 76 77
f 59 77 78
f 59 78 79
f 59 79 80
f 60 81 64
f 60 62 81
f 62 82 81
f 63 83 65
f 63 64 83
f 64 84 83
f 64 81 84
f 65 83 85
f 65 85 86
f 65 86 66
f 66 86 87
f 66 87 67
f 67 87 68
f 68 87 88
f 69 89 70
f 70 89 90
f 71 92 91
f 79 90 93
f 79 93 94
f 79 94 95
f 79 95 96
f 79 96 80
f 81 97 84
f 81 82 97
f 82 98 99
f 82 99 84
f 82 84 97
f 83 84 85
f 84 100 85
f 84 99 100
f 85 101 102
f 85 102 86
f 85 100 103
f 85 103 104
f 85 104 101
f 86 102 87
f 87 102 88
f 88 102 105
f 89 93 90
f 91 92 106
f 92 107 98
f 92 98 108
f 92 108 109
f 92 109 106
f 98 107 99
f 99 107 103
f 99 103 100
f 101 110 102
f 102 110 105

