# https://github.com/mikedh/trimesh
v -0.03025369 0.04191063 -0.03241337
v -0.03025369 0.03517422 -0.00997910
v -0.03025369 0.04537600 -0.03241337
v 0.00043748 0.05259053 -0.03241337
v -0.03025369 0.03868430 -0.00997910
v 0.00043748 0.04692891 -0.00997910
v -0.03025369 0.04528466 -0.03083194
v -0.02983010 0.04566171 -0.03241337
v 0.00043748 0.05502387 -0.03241337
v -0.03025369 0.03889227 -0.01030637
v -0.02978804 0.03905942 -0.00997910
v 0.00043748 0.04952941 -0.00997910
v -0.03025369 0.04476378 -0.02600860
v -0.02937946 0.04586773 -0.03072212
v -0.02660657 0.04762860 -0.03241337
v 0.00043748 0.05502776 -0.03142498
v 0.00013406 0.05502387 -0.03241337
v -0.03025369 0.04020223 -0.01279931
v -0.02980306 0.03926932 -0.01033053
v -0.02926530 0.03944230 -0.00997910
v 0.00043748 0.04993756 -0.01071051
v 0.00042246 0.04952941 -0.00997910
v -0.03025369 0.04469575 -0.02547707
v -0.02753487 0.04670540 -0.02740333
v -0.02612288 0.04782685 -0.03062109
v -0.02593662 0.04803286 -0.03241337
v -0.00101356 0.05501999 -0.03241337
v -0.00118780 0.05502193 -0.03086050
v 0.00023620 0.05488782 -0.02818306
v 0.00043748 0.05490142 -0.02857622
v -0.03025369 0.04137809 -0.01504406
v -0.02911209 0.04137809 -0.01328692
v -0.02698209 0.04103408 -0.00997910
v -0.02676278 0.04191063 -0.01125523
v 0.00043748 0.04995699 -0.01074785
v 0.00041645 0.04995894 -0.01075005
v -0.00134102 0.04950997 -0.00997910
v -0.03025369 0.04435563 -0.02386928
v -0.02928934 0.04458497 -0.02194961
v -0.02754388 0.04641193 -0.02517615
v -0.02505037 0.04808728 -0.02694208
v -0.02228649 0.04973931 -0.02961073
v -0.02262296 0.04975486 -0.03241337
v -0.02338002 0.04936226 -0.03241337
v -0.00372337 0.05496750 -0.03241337
v -0.00460661 0.05473622 -0.02907041
v 0.00043748 0.05486061 -0.02801174
v 0.00043748 0.05488199 -0.02824017
v -0.00173157 0.05468569 -0.02674001
v 0.00001389 0.05451077 -0.02465780
v -0.03025369 0.04170461 -0.01577546
v -0.02676879 0.04370648 -0.01489689
v -0.02588555 0.04173765 -0.00997910
v -0.02480403 0.04348686 -0.01192074
v 0.00043748 0.05011636 -0.01109049
v -0.00276202 0.05053812 -0.01225679
v -0.00213113 0.04947304 -0.00997910
v -0.03025369 0.04386391 -0.02176950
v -0.02818078 0.04431482 -0.01854076
v -0.02636322 0.04602905 -0.02041211
v -0.02484609 0.04772189 -0.02391760
v -0.02203113 0.04945361 -0.02571208
v -0.01805053 0.05138357 -0.02754829
v -0.01928526 0.05119698 -0.03146671
v -0.02156848 0.05022715 -0.03241337
v -0.00400577 0.05495195 -0.03241337
v -0.00423109 0.05492863 -0.03241337
v -0.00658339 0.05461378 -0.03095934
v -0.00868936 0.05408513 -0.02798538
v -0.00512935 0.05436500 -0.02588780
v 0.00043748 0.05451466 -0.02485987
v -0.00240752 0.05441165 -0.02466878
v -0.00233542 0.05382274 -0.02187493
v 0.00043748 0.05391604 -0.02189690
v 0.00043748 0.05416676 -0.02303684
v 0.00043748 0.05447579 -0.02458093
v -0.03025369 0.04200975 -0.01648052
v -0.02554307 0.04495814 -0.01601927
v -0.02330492 0.04326335 -0.00997910
v -0.02243069 0.04371620 -0.00997910
v -0.02147534 0.04513695 -0.01178237
v -0.02376757 0.04545569 -0.01493204
v 0.00043748 0.05135053 -0.01377672
v 0.00043748 0.05142633 -0.01395243
v -0.00220023 0.05191416 -0.01547016
v -0.00527355 0.05090934 -0.01361199
v -0.00611474 0.04927674 -0.01039642
v -0.00580830 0.04909599 -0.00997910
v -0.03025369 0.04349075 -0.02054610
v -0.02424224 0.04676566 -0.01892733
v -0.03025369 0.04276580 -0.01837603
v -0.02443751 0.04733512 -0.02127531
v -0.02198306 0.04855179 -0.02120063
v -0.01993718 0.04972765 -0.02198256
v -0.01793637 0.05113479 -0.02498287
v -0.01419610 0.05258469 -0.02604155
v -0.01565315 0.05240589 -0.02918902
v -0.01588448 0.05249335 -0.03241337
v -0.01680978 0.05215322 -0.03241337
v -0.01894879 0.05131554 -0.03241337
v -0.00701600 0.05456130 -0.03241337
v -0.00849408 0.05435334 -0.03137446
v -0.00775204 0.05379554 -0.02443157
v -0.00991508 0.05408318 -0.03080559
v -0.01016143 0.05370808 -0.02693110
v -0.00489202 0.05369253 -0.02209238
v -0.00042473 0.05345736 -0.01998381
v -0.00290923 0.05283930 -0.01817396
v 0.00043748 0.05380525 -0.02140709
v -0.02250279 0.04748089 -0.01836505
v -0.02004533 0.04483764 -0.00997910
v -0.01867240 0.04653048 -0.01195149
v -0.02053202 0.04753530 -0.01600389
v 0.00043748 0.05263717 -0.01719655
v -0.00527656 0.05193748 -0.01620377
v -0.00781212 0.05149435 -0.01600389
v -0.01030263 0.05019216 -0.01396342
v -0.00944041 0.04902213 -0.01107073
v -0.00956359 0.04842546 -0.00997910
v -0.00697394 0.04889969 -0.00997910
v -0.00620486 0.04902991 -0.00997910
v -0.01878957 0.04951580 -0.01927656
v -0.01753380 0.05037291 -0.02073499
v -0.01599563 0.05146131 -0.02300389
v -0.01588448 0.05153128 -0.02318839
v -0.01439138 0.05154294 -0.02093047
v -0.01206611 0.05281792 -0.02402743
v -0.01321372 0.05314444 -0.02933398
v -0.01588448 0.05146908 -0.02286112
v -0.01558406 0.05260219 -0.03241337
v -0.00811855 0.05440971 -0.03241337
v -0.00943441 0.05419591 -0.03241337
v -0.01015842 0.05277322 -0.02160697
v -0.00719626 0.05302005 -0.02047142
v -0.01015542 0.05406180 -0.03241337
v -0.01268498 0.05341848 -0.03180057
v -0.00576324 0.05266632 -0.01849464
v 0.00043748 0.05268965 -0.01736568
v 0.00043748 0.05334074 -0.01963238
v 0.00043748 0.05265078 -0.01723828
v -0.01857927 0.04551788 -0.00997910
v -0.01636215 0.04806784 -0.01323860
v -0.01683081 0.04864509 -0.01494741
v -0.01588448 0.04690948 -0.01059630
v -0.01588448 0.04738371 -0.01149024
v -0.01588448 0.04789681 -0.01252037
v -0.01831790 0.04905129 -0.01745134
v -0.00893570 0.05239034 -0.01910744
v -0.01115282 0.05099680 -0.01654202
v -0.01309956 0.04927480 -0.01345604
v -0.01266996 0.04779769 -0.01014603
v -0.01234250 0.04778603 -0.00997910
v -0.01468579 0.05050702 -0.01776982
v -0.01182877 0.05177811 -0.01923263
v -0.01431627 0.05297535 -0.03241337
v -0.01525960 0.05269936 -0.03241337
v -0.01175667 0.05366337 -0.03241337
v -0.01588448 0.04657907 -0.00997910
v -0.01588448 0.04824666 -0.01327154
v -0.01462571 0.04707080 -0.00997910
v -0.01511239 0.04761888 -0.01136285
v -0.01296137 0.04761694 -0.00997910
v -0.01271802 0.04768885 -0.00997910
f 1 2 5
f 1 5 10
f 1 10 18
f 1 18 31
f 1 31 51
f 1 51 77
f 1 77 91
f 1 91 89
f 1 89 58
f 1 58 38
f 1 38 23
f 1 23 13
f 1 13 7
f 1 7 3
f 1 3 8
f 1 8 15
f 1 15 26
f 1 26 44
f 1 44 43
f 1 43 65
f 1 65 100
f 1 100 99
f 1 99 98
f 1 98 130
f 1 130 156
f 1 156 155
f 1 155 157
f 1 157 135
f 1 135 132
f 1 132 131
f 1 131 101
f 1 101 67
f 1 67 66
f 1 66 45
f 1 45 27
f 1 27 17
f 1 17 9
f 1 9 4
f 1 4 2
f 2 4 6
f 2 6 12
f 2 12 22
f 2 22 37
f 2 37 57
f 2 57 88
f 2 88 121
f 2 121 120
f 2 120 119
f 2 119 152
f 2 152 163
f 2 163 162
f 2 162 160
f 2 160 158
f 2 158 141
f 2 141 111
f 2 111 80
f 2 80 79
f 2 79 53
f 2 53 33
f 2 33 20
f 2 20 11
f 2 11 5
f 3 7 8
f 4 9 16
f 4 16 30
f 4 30 48
f 4 48 47
f 4 47 71
f 4 71 76
f 4 76 75
f 4 75 74
f 4 74 109
f 4 109 139
f 4 139 138
f 4 138 140
f 4 140 114
f 4 114 84
f 4 84 83
f 4 83 55
f 4 55 35
f 4 35 21
f 4 21 12
f 4 12 6
f 5 11 10
f 7 13 14
f 7 14 8
f 8 14 15
f 9 17 16
f 10 11 19
f 10 19 18
f 11 20 19
f 12 21 22
f 13 23 24
f 13 24 14
f 14 24 25
f 14 25 26
f 14 26 15
f 16 17 27
f 16 27 28
f 16 28 29
f 16 29 30
f 18 19 32
f 18 32 31
f 19 20 33
f 19 33 34
f 19 34 32
f 21 35 36
f 21 36 37
f 21 37 22
f 23 38 39
f 23 39 40
f 23 40 24
f 24 40 41
f 24 41 25
f 25 41 42
f 25 42 43
f 25 43 44
f 25 44 26
f 27 45 28
f 28 45 46
f 28 46 29
f 29 47 48
f 29 48 30
f 29 46 49
f 29 49 50
f 29 50 47
f 31 32 51
f 32 34 52
f 32 52 51
f 33 53 34
f 34 53 54
f 34 54 52
f 35 55 36
f 36 55 56
f 36 56 37
f 37 56 57
f 38 58 39
f 39 58 59
f 39 59 60
f 39 60 40
f 40 60 61
f 40 61 41
f 41 61 62
f 41 62 42
f 42 62 63
f 42 63 64
f 42 64 43
f 43 64 65
f 45 66 46
f 46 66 67
f 46 67 68
f 46 68 69
f 46 69 70
f 46 70 49
f 47 50 71
f 49 70 72
f 49 72 50
f 50 72 73
f 50 73 74
f 50 74 75
f 50 75 76
f 50 76 71
f 51 52 77
f 52 59 77
f 52 54 78
f 52 78 59
f 53 79 54
f 54 79 80
f 54 80 81
f 54 81 82
f 54 82 78
f 55 83 56
f 56 83 84
f 56 84 85
f 56 85 86
f 56 86 87
f 56 87 57
f 57 87 88
f 58 89 59
f 59 78 90
f 59 90 60
f 59 89 91
f 59 91 77
f 60 90 92
f 60 92 61
f 61 92 93
f 61 93 94
f 61 94 62
f 62 94 95
f 62 95 63
f 63 95 96
f 63 96 97
f 63 97 64
f 64 98 99
f 64 99 100
f 64 100 65
f 64 97 98
f 67 101 68
f 68 101 102
f 68 102 69
f 69 103 70
f 69 102 104
f 69 104 105
f 69 105 103
f 70 106 72
f 70 103 106
f 72 106 73
f 73 107 74
f 73 106 108
f 73 108 107
f 74 107 109
f 78 82 110
f 78 110 90
f 80 111 81
f 81 111 112
f 81 112 113
f 81 113 82
f 82 113 110
f 84 114 85
f 85 108 115
f 85 115 86
f 85 114 108
f 86 115 116
f 86 116 117
f 86 117 118
f 86 118 87
f 87 118 119
f 87 119 120
f 87 120 121
f 87 121 88
f 90 110 93
f 90 93 92
f 93 122 94
f 93 110 122
f 94 122 123
f 94 123 124
f 94 124 95
f 95 124 125
f 95 125 96
f 96 126 127
f 96 127 105
f 96 105 128
f 96 128 97
f 96 125 129
f 96 129 126
f 97 128 130
f 97 130 98
f 101 131 102
f 102 131 132
f 102 132 104
f 103 105 127
f 103 127 133
f 103 133 134
f 103 134 106
f 104 132 135
f 104 135 136
f 104 136 128
f 104 128 105
f 106 134 137
f 106 137 108
f 107 108 138
f 107 138 139
f 107 139 109
f 108 137 115
f 108 114 140
f 108 140 138
f 110 113 122
f 111 141 112
f 112 142 143
f 112 143 113
f 112 141 144
f 112 144 145
f 112 145 146
f 112 146 142
f 113 143 147
f 113 147 122
f 115 137 116
f 116 148 149
f 116 149 117
f 116 137 148
f 117 149 150
f 117 150 118
f 118 150 151
f 118 151 119
f 119 151 152
f 122 147 153
f 122 153 126
f 122 126 123
f 123 129 124
f 123 126 129
f 124 129 125
f 126 153 154
f 126 154 133
f 126 133 127
f 128 136 155
f 128 155 156
f 128 156 130
f 133 154 148
f 133 148 134
f 134 148 137
f 135 157 136
f 136 157 155
f 141 158 144
f 142 159 143
f 142 146 159
f 143 159 150
f 143 150 153
f 143 153 147
f 144 158 160
f 144 160 161
f 144 161 145
f 145 161 146
f 146 161 150
f 146 150 159
f 148 154 149
f 149 154 153
f 149 153 150
f 150 161 151
f 151 161 162
f 151 162 163
f 151 163 152
f 160 162 161

