# https://github.com/mikedh/trimesh
v 0.04408153 0.02109804 -0.00989495
v 0.04102186 0.02109804 -0.00989495
v 0.04462266 0.01977689 -0.00989495
v 0.04427623 0.02109804 -0.01026231
v 0.04752302 0.02109804 -0.03277848
v 0.05130208 -0.00366686 -0.03277848
v 0.04597675 -0.00366686 -0.00989495
v 0.04467956 0.01963629 -0.00989495
v 0.04599951 0.01936721 -0.01226708
v 0.04430911 0.02109804 -0.01032727
v 0.05002259 0.02109804 -0.03277848
v 0.05376372 -0.00366686 -0.03277848
v 0.04860908 -0.00366686 -0.00989495
v 0.04540148 0.01784728 -0.00989495
v 0.04662914 0.02024474 -0.01443313
v 0.04658995 0.01597585 -0.01092534
v 0.04747118 0.01679763 -0.01339155
v 0.04624731 0.02109804 -0.01443761
v 0.04990374 0.02109804 -0.03064603
v 0.05070785 0.01923388 -0.03277848
v 0.05373970 -0.00366686 -0.03182650
v 0.05389016 -0.00139788 -0.03277848
v 0.05382441 -0.00150939 -0.03037724
v 0.04866850 -0.00267297 -0.00989495
v 0.04910343 -0.00366686 -0.01093430
v 0.04576055 0.01686793 -0.00989495
v 0.04807553 0.01735518 -0.01537616
v 0.04869631 0.01880966 -0.01855020
v 0.04706913 0.02109804 -0.01659022
v 0.04841058 0.01431775 -0.01373426
v 0.04648754 0.01462561 -0.00989495
v 0.04688200 0.01373838 -0.01010103
v 0.04988351 0.02109804 -0.03030108
v 0.05088992 0.01873693 -0.03277848
v 0.05360315 -0.00366686 -0.02886526
v 0.05391418 -0.00074337 -0.03277848
v 0.05393567 0.00071838 -0.03151290
v 0.05358166 -0.00249843 -0.02741151
v 0.05354626 -0.00366686 -0.02794015
v 0.05374856 0.00090747 -0.02842398
v 0.04869505 -0.00213966 -0.00989495
v 0.04964709 -0.00366686 -0.01210132
v 0.04983294 -0.00175908 -0.01229620
v 0.04942330 0.01548133 -0.01741901
v 0.04874562 0.02009203 -0.02047209
v 0.04768738 0.02109804 -0.01829932
v 0.04980260 0.01726064 -0.02071849
v 0.04828541 0.01200513 -0.01202517
v 0.04954847 0.01246571 -0.01534928
v 0.04673155 0.01384989 -0.00989495
v 0.04677454 0.01370444 -0.00989495
v 0.04685040 0.01343779 -0.00989495
v 0.04731693 0.01153242 -0.00989495
v 0.04982535 0.02109804 -0.02961116
v 0.04994925 0.02021565 -0.02720544
v 0.05091900 0.01819151 -0.02988444
v 0.05154989 0.01667643 -0.03277848
v 0.05393694 0.00101898 -0.03277848
v 0.05386360 0.00310858 -0.03277848
v 0.05384211 0.00363461 -0.03247385
v 0.05366005 0.00394005 -0.02923037
v 0.05348431 -0.00118213 -0.02562626
v 0.05341351 -0.00366686 -0.02642369
v 0.05344385 0.00267223 -0.02575842
v 0.04874183 -0.00001370 -0.00989495
v 0.05087854 -0.00366686 -0.01521488
v 0.05091141 -0.00364020 -0.01529328
v 0.05074705 0.00056082 -0.01449361
v 0.04969639 0.00195469 -0.01203637
v 0.04873930 0.00057536 -0.00989495
v 0.05044993 0.01315174 -0.01861067
v 0.04926779 0.02049443 -0.02343109
v 0.04856609 0.02109804 -0.02153384
v 0.04834483 0.02109804 -0.02063561
v 0.04792760 0.02109804 -0.01910571
v 0.05106060 0.01350324 -0.02130312
v 0.05092658 0.01550557 -0.02325637
v 0.05038166 0.01817696 -0.02475715
v 0.04808312 0.00780411 -0.00989495
v 0.04928169 0.00873983 -0.01280244
v 0.05048912 0.00974342 -0.01641998
v 0.04942709 0.02109804 -0.02561954
v 0.05110991 0.01655037 -0.02617953
v 0.04937525 0.02109804 -0.02520962
v 0.05204424 0.01443895 -0.02968732
v 0.05205057 0.01505468 -0.03242680
v 0.05203919 0.01506923 -0.03277848
v 0.05383579 0.00364673 -0.03277848
v 0.05364488 0.00604420 -0.03277848
v 0.05351086 0.00635933 -0.03005916
v 0.05327190 0.00628661 -0.02687392
v 0.05327443 -0.00047186 -0.02404036
v 0.05299249 -0.00366686 -0.02327205
v 0.05331110 -0.00366686 -0.02538882
v 0.05305065 0.00606844 -0.02460483
v 0.05313156 0.00299222 -0.02374020
v 0.05090888 -0.00366686 -0.01529552
v 0.05194183 -0.00232147 -0.01821868
v 0.05157012 -0.00114092 -0.01688590
v 0.05092152 -0.00366686 -0.01533360
v 0.05191149 -0.00366686 -0.01850540
v 0.05189885 0.00179955 -0.01800588
v 0.05116174 0.00257042 -0.01585103
v 0.05033361 0.00398369 -0.01381266
v 0.04861919 0.00328311 -0.00989495
v 0.04945870 0.00576542 -0.01217972
v 0.05127680 0.00869862 -0.01826348
v 0.05140323 0.01214330 -0.02125608
v 0.04929307 0.02109804 -0.02477283
v 0.04898584 0.02109804 -0.02332581
v 0.05197218 0.01255298 -0.02436068
v 0.05165483 0.01436623 -0.02540674
v 0.04809576 0.00773139 -0.00989495
v 0.05052453 0.00651690 -0.01501104
v 0.05226929 0.01248026 -0.02641473
v 0.05266124 0.01219906 -0.03031451
v 0.05282686 0.01188635 -0.03277848
v 0.05238687 0.01371172 -0.03277848
v 0.05359178 0.00663811 -0.03277848
v 0.05356017 0.00690476 -0.03277848
v 0.05326937 0.00905739 -0.03214009
v 0.05312271 0.00875680 -0.02894365
v 0.05270422 0.01006583 -0.02654689
v 0.05295961 0.00005660 -0.02224391
v 0.05280663 -0.00137121 -0.02168839
v 0.05298237 -0.00366686 -0.02320933
v 0.05258032 0.00650236 -0.02226183
v 0.05279399 0.00419459 -0.02222151
v 0.05252342 0.00955676 -0.02439876
v 0.05240078 -0.00049610 -0.01969930
v 0.05225286 -0.00366686 -0.01967018
v 0.05256767 0.00219468 -0.02067593
v 0.05231228 0.00495091 -0.02027273
v 0.05175092 0.00491213 -0.01813804
v 0.04857999 0.00377279 -0.00989495
v 0.05195322 0.00662114 -0.01949322
v 0.05192666 0.00921496 -0.02112168
v 0.05303927 0.01061368 -0.03277848
v 0.05325294 0.00912526 -0.03277848
v 0.05231607 -0.00366686 -0.01993226
v 0.05296720 -0.00366686 -0.02312869
v 0.05228952 -0.00366686 -0.01981802
f 1 2 7
f 1 7 13
f 1 13 24
f 1 24 41
f 1 41 65
f 1 65 70
f 1 70 105
f 1 105 135
f 1 135 113
f 1 113 79
f 1 79 53
f 1 53 52
f 1 52 51
f 1 51 50
f 1 50 31
f 1 31 26
f 1 26 14
f 1 14 8
f 1 8 3
f 1 3 4
f 1 4 10
f 1 10 18
f 1 18 29
f 1 29 46
f 1 46 75
f 1 75 74
f 1 74 73
f 1 73 110
f 1 110 109
f 1 109 84
f 1 84 82
f 1 82 54
f 1 54 33
f 1 33 19
f 1 19 11
f 1 11 5
f 1 5 2
f 2 5 6
f 2 6 7
f 3 8 4
f 4 8 9
f 4 9 10
f 5 11 20
f 5 20 34
f 5 34 57
f 5 57 87
f 5 87 118
f 5 118 117
f 5 117 138
f 5 138 139
f 5 139 120
f 5 120 119
f 5 119 89
f 5 89 88
f 5 88 59
f 5 59 58
f 5 58 36
f 5 36 22
f 5 22 12
f 5 12 6
f 6 12 21
f 6 21 35
f 6 35 39
f 6 39 63
f 6 63 94
f 6 94 93
f 6 93 126
f 6 126 141
f 6 141 140
f 6 140 142
f 6 142 131
f 6 131 101
f 6 101 100
f 6 100 97
f 6 97 66
f 6 66 42
f 6 42 25
f 6 25 13
f 6 13 7
f 8 14 9
f 9 15 10
f 9 14 16
f 9 16 17
f 9 17 15
f 10 15 18
f 11 19 20
f 12 22 23
f 12 23 21
f 13 25 24
f 14 26 16
f 15 17 27
f 15 27 28
f 15 28 29
f 15 29 18
f 16 30 17
f 16 26 31
f 16 31 32
f 16 32 30
f 17 30 27
f 19 33 34
f 19 34 20
f 21 23 35
f 22 36 37
f 22 37 23
f 23 38 39
f 23 39 35
f 23 37 40
f 23 40 38
f 24 25 41
f 25 42 43
f 25 43 41
f 27 30 44
f 27 44 28
f 28 45 46
f 28 46 29
f 28 44 47
f 28 47 45
f 30 32 48
f 30 48 49
f 30 49 44
f 31 50 32
f 32 51 52
f 32 52 53
f 32 53 48
f 32 50 51
f 33 54 55
f 33 55 56
f 33 56 34
f 34 56 57
f 36 58 37
f 37 58 59
f 37 59 60
f 37 60 61
f 37 61 40
f 38 40 62
f 38 62 63
f 38 63 39
f 40 61 64
f 40 64 62
f 41 43 65
f 42 66 67
f 42 67 43
f 43 67 68
f 43 68 69
f 43 69 70
f 43 70 65
f 44 49 71
f 44 71 47
f 45 72 73
f 45 73 74
f 45 74 75
f 45 75 46
f 45 47 72
f 47 71 76
f 47 76 77
f 47 77 78
f 47 78 72
f 48 53 79
f 48 79 80
f 48 80 49
f 49 80 81
f 49 81 71
f 54 82 55
f 55 78 83
f 55 83 56
f 55 82 84
f 55 84 78
f 56 83 85
f 56 85 86
f 56 86 57
f 57 86 87
f 59 88 60
f 60 88 89
f 60 89 90
f 60 90 61
f 61 90 91
f 61 91 64
f 62 92 93
f 62 93 94
f 62 94 63
f 62 64 92
f 64 91 95
f 64 95 96
f 64 96 92
f 66 97 67
f 67 98 99
f 67 99 68
f 67 97 100
f 67 100 101
f 67 101 98
f 68 102 103
f 68 103 104
f 68 104 69
f 68 99 102
f 69 105 70
f 69 104 106
f 69 106 105
f 71 81 107
f 71 107 108
f 71 108 76
f 72 78 84
f 72 84 109
f 72 109 110
f 72 110 73
f 76 108 111
f 76 111 77
f 77 111 112
f 77 112 78
f 78 112 83
f 79 113 80
f 80 113 106
f 80 106 114
f 80 114 81
f 81 114 107
f 83 112 85
f 85 112 115
f 85 115 116
f 85 116 86
f 86 116 117
f 86 117 118
f 86 118 87
f 89 119 90
f 90 119 120
f 90 120 121
f 90 121 122
f 90 122 91
f 91 122 123
f 91 123 95
f 92 124 125
f 92 125 126
f 92 126 93
f 92 96 124
f 95 127 128
f 95 128 96
f 95 123 129
f 95 129 127
f 96 128 124
f 98 130 99
f 98 101 131
f 98 131 130
f 99 130 102
f 102 132 133
f 102 133 134
f 102 134 103
f 102 130 132
f 103 134 104
f 104 134 114
f 104 114 106
f 105 106 135
f 106 113 135
f 107 114 134
f 107 134 136
f 107 136 137
f 107 137 108
f 108 137 111
f 111 137 129
f 111 129 115
f 111 115 112
f 115 129 123
f 115 123 116
f 116 123 122
f 116 122 121
f 116 121 138
f 116 138 117
f 120 139 121
f 121 139 138
f 124 130 125
f 124 128 132
f 124 132 130
f 125 130 140
f 125 140 141
f 125 141 126
f 127 136 133
f 127 133 128
f 127 129 137
f 127 137 136
f 128 133 132
f 130 131 142
f 130 142 140
f 133 136 134

