# https://github.com/mikedh/trimesh
v 0.04885612 0.02372353 -0.03277848
v 0.04629995 0.02372353 -0.03277848
v 0.04969446 0.02193149 -0.03277848
v 0.04887023 0.02372353 -0.03319116
v 0.04192717 0.02372353 -0.05126922
v 0.05144522 0.00003989 -0.03277848
v 0.04981321 0.02166721 -0.03277848
v 0.04981439 0.02168575 -0.03292871
v 0.04887258 0.02372353 -0.03326537
v 0.04509123 0.02372353 -0.05126922
v 0.04842696 0.00004221 -0.05126922
v 0.04971680 0.00003989 -0.04750085
v 0.05392379 0.00003989 -0.03277848
v 0.05070800 0.01923301 -0.03277848
v 0.05088436 0.01882499 -0.03324546
v 0.04966389 0.02189208 -0.03515498
v 0.04885142 0.02372353 -0.03411606
v 0.05033056 0.02007454 -0.03633509
v 0.04551451 0.02372353 -0.05027736
v 0.04714769 0.02047793 -0.05010722
v 0.04558036 0.02270580 -0.05126922
v 0.04983556 0.00003989 -0.05126922
v 0.05393672 0.00102053 -0.03277848
v 0.05392379 0.00003989 -0.03319297
v 0.05088906 0.01873689 -0.03277848
v 0.05154986 0.01667593 -0.03277848
v 0.05195904 0.01516905 -0.03516403
v 0.05109718 0.01774466 -0.03710976
v 0.04966860 0.02132642 -0.03880571
v 0.04877381 0.02372353 -0.03598033
v 0.05063509 0.01841697 -0.03979034
v 0.04579788 0.02372353 -0.04955698
v 0.04672676 0.02212855 -0.04923300
v 0.04667738 0.02036433 -0.05126922
v 0.04859745 0.01990531 -0.04667912
v 0.04892667 0.01802286 -0.04784836
v 0.04768738 0.01784667 -0.05126922
v 0.04747104 0.01842392 -0.05126922
v 0.05088789 0.00003989 -0.05126922
v 0.05393790 0.00127322 -0.03384456
v 0.05386382 0.00310931 -0.03277848
v 0.05391908 0.00003989 -0.03519842
v 0.05203899 0.01506936 -0.03277848
v 0.05178737 0.01488158 -0.03920934
v 0.05286087 0.01182375 -0.03327442
v 0.05252930 0.01274180 -0.03712243
v 0.04933349 0.02139133 -0.04117860
v 0.04855982 0.02372353 -0.03879304
v 0.04871855 0.02372353 -0.03677854
v 0.05152752 0.01498590 -0.04100121
v 0.05038935 0.01807618 -0.04211797
v 0.04642223 0.02372353 -0.04791171
v 0.04699248 0.02372353 -0.04630445
v 0.04754040 0.02290517 -0.04587549
v 0.04948164 0.01947179 -0.04402750
v 0.04985672 0.01659479 -0.04647640
v 0.04862919 0.02163243 -0.04393519
v 0.04943461 0.01534524 -0.04884928
v 0.04779320 0.01752443 -0.05126922
v 0.05089142 0.00019754 -0.05126922
v 0.05103604 0.00003989 -0.05091628
v 0.05381209 0.00082116 -0.03752787
v 0.05376623 0.00377002 -0.03576314
v 0.05383560 0.00364715 -0.03277848
v 0.05388734 0.00003989 -0.03607445
v 0.05238703 0.01371084 -0.03277848
v 0.05225063 0.01224800 -0.04084918
v 0.05282677 0.01188635 -0.03277848
v 0.05303959 0.01061593 -0.03277848
v 0.05325358 0.00912759 -0.03277848
v 0.05319950 0.00933391 -0.03478756
v 0.05297257 0.01002708 -0.03749347
v 0.04825529 0.02372353 -0.04111344
v 0.04847869 0.02372353 -0.03942110
v 0.05139583 0.01364129 -0.04354604
v 0.05083027 0.01400063 -0.04567639
v 0.04731466 0.02372353 -0.04520580
v 0.05051281 0.01227350 -0.04820493
v 0.04758744 0.02372353 -0.04409990
v 0.04810831 0.02372353 -0.04179761
v 0.04882555 0.01461266 -0.05105745
v 0.04833877 0.01585294 -0.05126922
v 0.05084086 0.00206608 -0.05126922
v 0.05139936 0.00003989 -0.05000224
v 0.05379327 0.00003989 -0.03750071
v 0.05375330 0.00003989 -0.03796950
v 0.05351109 0.00093243 -0.04071162
v 0.05356870 0.00366802 -0.03904282
v 0.05358281 0.00611613 -0.03573237
v 0.05359456 0.00664702 -0.03285631
v 0.05364395 0.00604426 -0.03277848
v 0.05290085 0.00859206 -0.04039125
v 0.05268215 0.00840892 -0.04209987
v 0.05188967 0.00995521 -0.04478407
v 0.05356047 0.00690435 -0.03277848
v 0.05324771 0.00639432 -0.03991342
v 0.05103369 0.00973498 -0.04804384
v 0.04995431 0.01104945 -0.05057600
v 0.04877381 0.01446197 -0.05126922
v 0.04870092 0.01471002 -0.05126922
v 0.05073974 0.00370279 -0.05126922
v 0.05128296 0.00262479 -0.05011627
v 0.05150048 0.00003989 -0.04968549
v 0.05184264 0.00177166 -0.04844746
v 0.05351932 0.00003989 -0.04041659
v 0.05342290 0.00003989 -0.04121117
v 0.05321008 0.00037605 -0.04280576
v 0.05305488 0.00262942 -0.04320034
v 0.05359221 0.00663774 -0.03277848
v 0.05268450 0.00491757 -0.04426099
v 0.05214011 0.00605817 -0.04621576
v 0.05138408 0.00622972 -0.04880765
v 0.04961216 0.01122332 -0.05126922
v 0.05052575 0.00632246 -0.05115338
v 0.05043521 0.00658210 -0.05126922
v 0.04981204 0.01024964 -0.05126922
v 0.05051634 0.00597703 -0.05126922
v 0.05186968 0.00459069 -0.04773252
v 0.05202135 0.00003989 -0.04792800
v 0.05256575 0.00193625 -0.04578680
v 0.05321243 0.00003989 -0.04273517
v 0.05309956 0.00003989 -0.04331980
v 0.05047636 0.00633405 -0.05126922
v 0.05213188 0.00003989 -0.04752076
v 0.05258339 0.00003989 -0.04570716
f 1 2 6
f 1 6 13
f 1 13 23
f 1 23 41
f 1 41 64
f 1 64 91
f 1 91 109
f 1 109 95
f 1 95 70
f 1 70 69
f 1 69 68
f 1 68 66
f 1 66 43
f 1 43 26
f 1 26 25
f 1 25 14
f 1 14 7
f 1 7 3
f 1 3 4
f 1 4 9
f 1 9 17
f 1 17 30
f 1 30 49
f 1 49 48
f 1 48 74
f 1 74 73
f 1 73 80
f 1 80 79
f 1 79 77
f 1 77 53
f 1 53 52
f 1 52 32
f 1 32 19
f 1 19 10
f 1 10 5
f 1 5 2
f 2 5 6
f 3 7 8
f 3 8 4
f 4 8 9
f 5 10 21
f 5 21 34
f 5 34 38
f 5 38 37
f 5 37 59
f 5 59 82
f 5 82 100
f 5 100 99
f 5 99 113
f 5 113 116
f 5 116 115
f 5 115 123
f 5 123 117
f 5 117 101
f 5 101 83
f 5 83 60
f 5 60 39
f 5 39 22
f 5 22 11
f 5 11 6
f 6 11 12
f 6 12 22
f 6 22 39
f 6 39 61
f 6 61 84
f 6 84 103
f 6 103 119
f 6 119 124
f 6 124 125
f 6 125 122
f 6 122 121
f 6 121 106
f 6 106 105
f 6 105 86
f 6 86 85
f 6 85 65
f 6 65 42
f 6 42 24
f 6 24 13
f 7 14 15
f 7 15 8
f 8 16 17
f 8 17 9
f 8 15 18
f 8 18 16
f 10 19 20
f 10 20 21
f 11 22 12
f 13 24 23
f 14 25 15
f 15 25 26
f 15 26 27
f 15 27 28
f 15 28 18
f 16 18 29
f 16 29 30
f 16 30 17
f 18 28 31
f 18 31 29
f 19 32 33
f 19 33 20
f 20 34 21
f 20 33 35
f 20 35 36
f 20 36 37
f 20 37 38
f 20 38 34
f 23 24 40
f 23 40 41
f 24 42 40
f 26 43 27
f 27 44 28
f 27 43 45
f 27 45 46
f 27 46 44
f 28 44 31
f 29 47 48
f 29 48 49
f 29 49 30
f 29 31 47
f 31 44 50
f 31 50 51
f 31 51 47
f 32 52 33
f 33 52 53
f 33 53 54
f 33 54 35
f 35 55 56
f 35 56 36
f 35 54 57
f 35 57 55
f 36 56 58
f 36 58 37
f 37 58 59
f 39 60 61
f 40 62 63
f 40 63 64
f 40 64 41
f 40 42 65
f 40 65 62
f 43 66 45
f 44 46 67
f 44 67 50
f 45 66 68
f 45 68 69
f 45 69 70
f 45 70 71
f 45 71 72
f 45 72 46
f 46 72 67
f 47 57 73
f 47 73 74
f 47 74 48
f 47 51 55
f 47 55 57
f 50 67 75
f 50 75 51
f 51 56 55
f 51 75 76
f 51 76 56
f 53 77 54
f 54 77 57
f 56 76 78
f 56 78 58
f 57 77 79
f 57 79 80
f 57 80 73
f 58 81 59
f 58 78 81
f 59 81 82
f 60 83 61
f 61 83 84
f 62 65 85
f 62 85 86
f 62 86 87
f 62 87 88
f 62 88 63
f 63 89 64
f 63 88 89
f 64 89 90
f 64 90 91
f 67 72 92
f 67 92 93
f 67 93 94
f 67 94 75
f 70 95 71
f 71 95 90
f 71 90 89
f 71 89 72
f 72 89 96
f 72 96 92
f 75 94 76
f 76 94 78
f 78 94 97
f 78 97 98
f 78 98 81
f 81 99 100
f 81 100 82
f 81 98 99
f 83 101 102
f 83 102 84
f 84 102 104
f 84 104 103
f 86 105 87
f 87 105 106
f 87 106 107
f 87 107 108
f 87 108 88
f 88 108 96
f 88 96 89
f 90 95 109
f 90 109 91
f 92 96 93
f 93 96 110
f 93 110 111
f 93 111 94
f 94 111 97
f 96 108 110
f 97 111 112
f 97 112 98
f 98 113 99
f 98 112 114
f 98 114 115
f 98 115 116
f 98 116 113
f 101 117 102
f 102 117 114
f 102 114 112
f 102 112 118
f 102 118 104
f 103 104 119
f 104 118 120
f 104 120 119
f 106 121 107
f 107 120 108
f 107 121 122
f 107 122 120
f 108 120 110
f 110 120 111
f 111 120 118
f 111 118 112
f 114 123 115
f 114 117 123
f 119 120 124
f 120 122 125
f 120 125 124

