# https://github.com/mikedh/trimesh
v -0.03937367 0.00885496 0.03164209
v -0.03977352 0.00885496 0.03152620
v -0.03574467 0.00885496 0.03036904
v -0.03666234 0.02946136 0.01370341
v -0.04225525 0.02053784 0.02207398
v -0.04048491 0.00991594 0.03079046
v -0.03994165 0.00885496 0.03147704
v -0.03823771 0.00885496 0.01370341
v -0.03817978 0.00955287 0.01370341
v -0.03664044 0.02945128 0.01370341
v -0.03974950 0.02926772 0.01370341
v -0.04296099 0.01080547 0.01620738
v -0.04174661 0.02636919 0.01587024
v -0.04293061 0.00885496 0.01454100
v -0.04045806 0.00885496 0.02988440
v -0.04290306 0.00885496 0.01370341
v -0.04090736 0.02751892 0.01370341
v -0.04183492 0.02406771 0.01370341
v -0.04288045 0.01050896 0.01370341
v -0.04289600 0.00938545 0.01370341
f 1 2 7
f 1 7 15
f 1 15 14
f 1 14 16
f 1 16 8
f 1 8 3
f 1 3 4
f 1 4 5
f 1 5 6
f 1 6 2
f 2 6 7
f 3 8 9
f 3 9 10
f 3 10 4
f 4 10 9
f 4 9 8
f 4 8 16
f 4 16 20
f 4 20 19
f 4 19 18
f 4 18 17
f 4 17 11
f 4 11 5
f 5 12 6
f 5 11 13
f 5 13 12
f 6 12 14
f 6 14 15
f 6 15 7
f 11 17 13
f 12 13 18
f 12 18 19
f 12 19 20
f 12 20 16
f 12 16 14
f 13 17 18

