# https://github.com/mikedh/trimesh
v 0.00269093 -0.05092079 0.00510189
v -0.00096356 -0.04610726 0.01105676
v -0.00096356 -0.05063317 0.00475133
v 0.01529384 -0.04708435 0.00158180
v 0.01529384 -0.04794300 0.00246543
v 0.01096607 -0.04952918 0.00427109
v 0.01171734 -0.03664940 0.01956645
v 0.00370483 -0.02367656 0.03743585
v -0.00090786 -0.01528461 0.04783285
v -0.00096356 -0.01531422 0.04778003
v -0.00096356 -0.04710973 0.00189395
v 0.01529384 -0.04556585 0.00024676
v 0.01529384 -0.04702090 0.00413183
v 0.01529384 -0.03829057 0.01487940
v 0.01293975 -0.01419332 0.04544611
v 0.00926297 -0.01162582 0.04847156
v -0.00096356 -0.01211225 0.04927835
v -0.00096356 -0.01518732 0.04788088
v -0.00096356 -0.01526769 0.04783285
v 0.01529384 -0.04229197 0.00022755
v -0.00096356 -0.01142279 0.04473056
v 0.01529384 -0.01597830 0.04149380
v 0.01529384 -0.01239564 0.04558057
v 0.01529384 -0.01015807 0.04693002
v 0.01529384 -0.00840693 0.04562379
v -0.00096356 -0.01185000 0.04903824
v 0.01529384 -0.00773439 0.04391897
v -0.00096356 -0.01002272 0.04719415
v 0.01529384 -0.00771324 0.04409185
f 1 2 3
f 1 3 4
f 1 4 5
f 1 5 6
f 1 6 7
f 1 7 8
f 1 8 9
f 1 9 2
f 2 9 10
f 2 10 19
f 2 19 18
f 2 18 17
f 2 17 26
f 2 26 28
f 2 28 21
f 2 21 11
f 2 11 3
f 3 11 12
f 3 12 4
f 4 12 20
f 4 20 27
f 4 27 29
f 4 29 25
f 4 25 24
f 4 24 23
f 4 23 22
f 4 22 14
f 4 14 13
f 4 13 5
f 5 13 6
f 6 13 14
f 6 14 7
f 7 14 15
f 7 15 8
f 8 15 9
f 9 15 16
f 9 16 17
f 9 17 18
f 9 18 19
f 9 19 10
f 11 20 12
f 11 21 20
f 14 22 15
f 15 22 23
f 15 23 24
f 15 24 16
f 16 24 25
f 16 25 17
f 17 25 26
f 20 21 27
f 21 28 27
f 25 29 28
f 25 28 26
f 27 28 29

