# https://github.com/mikedh/trimesh
v -0.02087743 -0.04668438 0.00238669
v -0.02087743 -0.04525235 0.00445150
v -0.02369476 -0.04561483 0.00195173
v -0.02810589 -0.04246885 -0.00261287
v -0.02087743 -0.04591019 0.00035187
v -0.02087743 -0.02395096 0.02890432
v -0.02887382 -0.03028320 0.01366068
v -0.02887382 -0.04205714 -0.00046806
v -0.02738649 -0.02454167 0.02245989
v -0.02887382 -0.04196764 -0.00239789
v -0.02887382 -0.04184681 -0.00304783
v -0.02887382 -0.04118450 -0.00353278
v -0.02887382 -0.03813697 -0.00550261
v -0.02087743 -0.04369502 -0.00098301
v -0.02087743 -0.01659392 0.03716858
v -0.02887382 -0.00593428 0.04107823
v -0.02887382 -0.00466783 0.04244311
v -0.02087743 -0.03432868 0.00925107
v -0.02887382 -0.00963517 0.02715448
v -0.02087743 -0.00878043 0.04556783
v -0.02887382 -0.00464098 0.04243311
v -0.02087743 -0.01195774 0.03518376
v -0.02887382 -0.00096693 0.03953837
v -0.02087743 -0.00584925 0.04363300
v -0.02087743 -0.00687404 0.04444293
f 1 2 3
f 1 3 4
f 1 4 5
f 1 5 14
f 1 14 18
f 1 18 22
f 1 22 24
f 1 24 25
f 1 25 20
f 1 20 15
f 1 15 6
f 1 6 2
f 2 6 3
f 3 7 8
f 3 8 4
f 3 6 9
f 3 9 7
f 4 8 10
f 4 10 11
f 4 11 12
f 4 12 5
f 5 12 13
f 5 13 14
f 6 15 9
f 7 9 16
f 7 16 17
f 7 17 21
f 7 21 23
f 7 23 19
f 7 19 13
f 7 13 12
f 7 12 11
f 7 11 10
f 7 10 8
f 9 15 17
f 9 17 16
f 13 18 14
f 13 19 18
f 15 20 17
f 17 20 21
f 18 19 22
f 19 23 24
f 19 24 22
f 20 25 21
f 21 25 23
f 23 25 24

