# https://github.com/mikedh/trimesh
v 0.01185471 0.00738715 -0.04294290
v 0.01091104 0.00750628 -0.04370281
v 0.01185471 0.00749777 -0.04394353
v 0.01185471 0.01106737 -0.03819465
v -0.00096516 0.00917408 -0.04498191
v 0.01185471 0.00854440 -0.04645925
v 0.01185471 0.04630388 -0.00093080
v -0.00096516 0.04715054 -0.00179927
v -0.00096516 0.01069722 -0.04813483
v 0.00540086 0.01273517 -0.04914489
v 0.01185471 0.01011009 -0.04738436
v 0.01185471 0.04888641 -0.00300285
v 0.00097489 0.05084778 -0.00435747
v -0.00096516 0.05064781 -0.00422531
v -0.00096516 0.01125457 -0.04846522
v 0.00953695 0.01628350 -0.04429280
v 0.01185471 0.01526665 -0.04397184
v 0.01185471 0.01067169 -0.04763452
v -0.00096516 0.01228844 -0.04855490
v -0.00096516 0.01828741 -0.04318362
v -0.00096516 0.04488285 -0.01239079
v -0.00092500 0.04509558 -0.01214064
v 0.01185471 0.04596777 -0.00789270
v 0.01041160 0.04553380 -0.00922844
v -0.00096516 0.04511259 -0.01211231
v 0.00894339 0.02940040 -0.02896247
f 1 2 3
f 1 3 6
f 1 6 11
f 1 11 18
f 1 18 17
f 1 17 23
f 1 23 12
f 1 12 7
f 1 7 4
f 1 4 5
f 1 5 2
f 2 5 3
f 3 5 6
f 4 7 8
f 4 8 5
f 5 9 6
f 5 8 14
f 5 14 25
f 5 25 21
f 5 21 20
f 5 20 19
f 5 19 15
f 5 15 9
f 6 9 10
f 6 10 11
f 7 12 13
f 7 13 14
f 7 14 8
f 9 15 10
f 10 16 17
f 10 17 18
f 10 18 11
f 10 15 19
f 10 19 20
f 10 20 21
f 10 21 22
f 10 22 16
f 12 23 13
f 13 23 24
f 13 24 22
f 13 22 25
f 13 25 14
f 16 22 26
f 16 26 24
f 16 24 23
f 16 23 17
f 21 25 22
f 22 24 26

