# https://github.com/mikedh/trimesh
v -0.02999414 0.00010944 0.03855192
v -0.03574516 0.00885411 0.03036845
v -0.03020564 0.00010944 0.03866432
v -0.03735484 0.00010944 0.01370341
v -0.03823630 0.00885411 0.01370341
v -0.03937359 0.00885411 0.03164155
v -0.03523225 0.00010944 0.03726661
v -0.04165576 0.00010944 0.01370341
v -0.04290197 0.00885411 0.01370341
v -0.03994097 0.00885411 0.03147538
v -0.03560205 0.00038769 0.03696361
v -0.03559445 0.00010944 0.03667038
v -0.04291590 0.00787553 0.01370341
v -0.04023352 0.00010944 0.02241224
v -0.04045769 0.00885411 0.02988463
v -0.04293109 0.00885411 0.01454155
v -0.03997516 0.00885411 0.03137276
v -0.03576796 0.00010944 0.03619145
f 1 2 3
f 1 3 7
f 1 7 12
f 1 12 18
f 1 18 14
f 1 14 8
f 1 8 4
f 1 4 5
f 1 5 2
f 2 6 3
f 2 5 9
f 2 9 16
f 2 16 15
f 2 15 17
f 2 17 10
f 2 10 6
f 3 6 7
f 4 8 13
f 4 13 9
f 4 9 5
f 6 10 7
f 7 10 11
f 7 11 12
f 8 14 15
f 8 15 13
f 9 13 16
f 10 17 11
f 11 18 12
f 11 17 15
f 11 15 14
f 11 14 18
f 13 15 16

