# https://github.com/mikedh/trimesh
v 0.04064877 -0.01167732 -0.01007121
v 0.03639083 -0.01167732 -0.01007121
v 0.03984010 -0.02265796 -0.01007121
v 0.04051452 -0.02557051 -0.01753667
v 0.04094158 -0.01167732 -0.01253739
v 0.03493522 -0.01167732 -0.02501551
v 0.03014344 -0.03149603 -0.01007121
v 0.03529146 -0.03418986 -0.01007121
v 0.04014348 -0.01454746 -0.02727139
v 0.04056632 -0.01167732 -0.01979064
v 0.03672381 -0.02979314 -0.01406681
v 0.03505678 -0.01167732 -0.02856948
v 0.03159165 -0.03325472 -0.01007121
v 0.03305572 -0.03447777 -0.01007121
v 0.03880838 -0.01167732 -0.02959993
v 0.03934644 -0.01167732 -0.02773978
v 0.03988767 -0.01167732 -0.02586433
v 0.03757371 -0.01167732 -0.02931508
f 1 2 7
f 1 7 13
f 1 13 14
f 1 14 8
f 1 8 3
f 1 3 4
f 1 4 5
f 1 5 10
f 1 10 17
f 1 17 16
f 1 16 15
f 1 15 18
f 1 18 12
f 1 12 6
f 1 6 2
f 2 6 7
f 3 8 4
f 4 9 10
f 4 10 5
f 4 8 11
f 4 11 9
f 6 12 7
f 7 12 13
f 8 14 11
f 9 11 14
f 9 14 15
f 9 15 16
f 9 16 17
f 9 17 10
f 12 18 14
f 12 14 13
f 14 18 15

