# https://github.com/mikedh/trimesh
v -0.00096516 -0.05063171 0.00475125
v -0.01293669 -0.04968910 0.00361135
v -0.00096516 -0.04711117 0.00189409
v -0.00096516 -0.04610718 0.01105280
v -0.02087743 -0.04525225 0.00445024
v -0.02087743 -0.04668151 0.00238756
v -0.02087743 -0.04590989 0.00035448
v -0.00378359 -0.04239373 0.01564203
v -0.01472989 -0.04445432 0.00990303
v -0.02087743 -0.04369585 -0.00098774
v -0.02087743 -0.03432675 0.00925166
v -0.02087743 -0.01195401 0.03518324
v -0.00096516 -0.01142351 0.04473179
v -0.00096516 -0.01531233 0.04778140
v -0.01648605 -0.02355030 0.03324886
v -0.02087743 -0.02395365 0.02890143
v -0.02087743 -0.00584677 0.04363630
v -0.00096516 -0.01002494 0.04719418
v -0.00096516 -0.01526849 0.04783075
v -0.01637884 -0.01109469 0.04732741
v -0.02087743 -0.01659252 0.03716697
v -0.02087743 -0.00686830 0.04443571
v -0.00275445 -0.01219514 0.04942464
v -0.00096516 -0.01184878 0.04903480
v -0.00096516 -0.01518957 0.04788009
v -0.02087743 -0.00877982 0.04557068
v -0.00096516 -0.01211184 0.04928153
f 1 2 3
f 1 3 13
f 1 13 18
f 1 18 24
f 1 24 27
f 1 27 25
f 1 25 19
f 1 19 14
f 1 14 4
f 1 4 2
f 2 5 6
f 2 6 7
f 2 7 3
f 2 4 8
f 2 8 9
f 2 9 5
f 3 7 10
f 3 10 11
f 3 11 12
f 3 12 13
f 4 14 8
f 5 9 15
f 5 15 16
f 5 16 21
f 5 21 26
f 5 26 22
f 5 22 17
f 5 17 12
f 5 12 11
f 5 11 10
f 5 10 7
f 5 7 6
f 8 14 9
f 9 14 15
f 12 17 13
f 13 17 18
f 14 19 20
f 14 20 15
f 15 20 21
f 15 21 16
f 17 22 23
f 17 23 24
f 17 24 18
f 19 25 23
f 19 23 20
f 20 26 21
f 20 23 26
f 22 26 23
f 23 25 27
f 23 27 24

