# https://github.com/mikedh/trimesh
v 0.02780447 0.03823894 0.00565754
v 0.02780447 0.03873163 0.00534222
v 0.01185939 0.04630469 -0.00092461
v 0.01185627 0.04630044 -0.00092820
v 0.02780447 0.02397203 -0.00955988
v 0.02780447 0.04165807 0.00270148
v 0.01795297 0.04778702 -0.00223961
v 0.01185627 0.04888709 -0.00299923
v 0.01185627 0.01977988 -0.03094739
v 0.02780447 0.01899412 -0.01519251
v 0.02780447 0.03844281 -0.00138683
v 0.01185627 0.04596490 -0.00789016
v 0.02275226 0.03014771 -0.01845671
v 0.02164689 0.02052742 -0.03094739
v 0.01185627 0.02611695 -0.03094739
v 0.02780447 0.00549599 -0.03094739
v 0.02780447 0.01390153 -0.03081840
v 0.02780447 0.01379110 -0.03094739
f 1 2 3
f 1 3 4
f 1 4 5
f 1 5 10
f 1 10 16
f 1 16 18
f 1 18 17
f 1 17 11
f 1 11 6
f 1 6 2
f 2 6 7
f 2 7 8
f 2 8 3
f 3 8 4
f 4 8 12
f 4 12 15
f 4 15 9
f 4 9 10
f 4 10 5
f 6 11 7
f 7 12 8
f 7 11 13
f 7 13 14
f 7 14 15
f 7 15 12
f 9 15 14
f 9 14 18
f 9 18 16
f 9 16 10
f 11 17 13
f 13 17 18
f 13 18 14

