# https://github.com/mikedh/trimesh
v -0.03803873 0.00010858 -0.01548993
v -0.04154772 0.00010858 -0.01548993
v -0.03803873 -0.00520012 -0.01548993
v -0.03803873 0.00010858 -0.02842085
v -0.04031279 0.00010858 -0.02305224
v -0.04288125 -0.01582547 -0.02466945
v -0.04270585 -0.00640809 -0.01548993
v -0.03803873 -0.00709419 -0.01734182
v -0.03804395 -0.01558176 -0.01548993
v -0.03803873 -0.00145701 -0.03008058
v -0.03964769 0.00010858 -0.02485991
v -0.03803873 -0.00174046 -0.03023363
v -0.03950168 -0.02583360 -0.01651365
v -0.04267835 -0.02409317 -0.01680445
v -0.04266365 -0.02301765 -0.01548993
v -0.03803873 -0.00660942 -0.03286096
v -0.03803873 -0.01254859 -0.02708082
v -0.03867065 -0.02695415 -0.01548993
v -0.03911579 -0.02694620 -0.01548993
v -0.04177005 -0.02571439 -0.01548993
v -0.04235883 -0.02436337 -0.01548993
v -0.03803873 -0.01138566 -0.02822528
f 1 2 7
f 1 7 15
f 1 15 21
f 1 21 20
f 1 20 19
f 1 19 18
f 1 18 9
f 1 9 3
f 1 3 8
f 1 8 17
f 1 17 22
f 1 22 16
f 1 16 12
f 1 12 10
f 1 10 4
f 1 4 11
f 1 11 5
f 1 5 2
f 2 5 6
f 2 6 7
f 3 9 8
f 4 10 11
f 5 11 10
f 5 10 12
f 5 12 6
f 6 13 14
f 6 14 15
f 6 15 7
f 6 12 16
f 6 16 13
f 8 9 17
f 9 18 17
f 13 16 18
f 13 18 19
f 13 19 20
f 13 20 14
f 14 21 15
f 14 20 21
f 16 22 18
f 17 18 22

