# https://github.com/mikedh/trimesh
v -0.02892770 0.00070947 -0.03823244
v -0.02892770 0.00180143 -0.03988073
v -0.01543626 0.00830676 -0.04523633
v -0.02892770 0.03645157 0.00743952
v -0.02892770 0.00262389 -0.04093691
v -0.02699808 0.00415729 -0.04226514
v -0.01543626 0.01092282 -0.04699663
v -0.01543626 0.02558768 -0.02367524
v -0.01543626 0.04470403 0.00016892
v -0.01543626 0.04817974 -0.00224750
v -0.02892770 0.04129803 0.00387623
v -0.02892770 0.00446397 -0.04153435
v -0.02647243 0.00702893 -0.04342801
v -0.01543626 0.01107616 -0.04705531
v -0.01543626 0.04738051 -0.00442388
v -0.02010114 0.04472727 -0.00556008
v -0.02502225 0.04470403 0.00081970
v -0.02892770 0.04039193 -0.00043385
v -0.02892770 0.01172205 -0.03411439
v -0.02892770 0.03663279 -0.00517601
v -0.02261452 0.02178207 -0.03071113
v -0.01543626 0.01225642 -0.04581242
v -0.01543626 0.03918380 -0.01491638
v -0.02892770 0.03979716 -0.00130334
v -0.01543626 0.03259949 -0.02257638
f 1 2 3
f 1 3 4
f 1 4 11
f 1 11 18
f 1 18 24
f 1 24 20
f 1 20 19
f 1 19 12
f 1 12 5
f 1 5 2
f 2 5 3
f 3 5 6
f 3 6 7
f 3 7 14
f 3 14 22
f 3 22 25
f 3 25 23
f 3 23 15
f 3 15 10
f 3 10 9
f 3 9 8
f 3 8 4
f 4 8 9
f 4 9 10
f 4 10 11
f 5 12 13
f 5 13 6
f 6 13 14
f 6 14 7
f 10 15 16
f 10 16 17
f 10 17 11
f 11 17 18
f 12 19 13
f 13 19 20
f 13 20 21
f 13 21 14
f 14 21 22
f 15 23 16
f 16 24 18
f 16 18 17
f 16 23 21
f 16 21 24
f 20 24 21
f 21 23 25
f 21 25 22

