# https://github.com/mikedh/trimesh
v 0.04105632 -0.00741811 -0.01007121
v 0.04101139 -0.00674390 -0.01007121
v 0.04099950 -0.00815362 -0.01007121
v 0.04094137 -0.01167732 -0.01253857
v 0.04104178 -0.00845082 -0.01137796
v 0.04056611 -0.01167732 -0.01979164
v 0.03988695 -0.01167732 -0.02586404
v 0.04010893 0.00013697 -0.01007121
v 0.04064803 -0.01167732 -0.01007121
v 0.03883121 0.00013697 -0.02006961
v 0.03880875 -0.01167732 -0.02960091
v 0.03493331 -0.00334278 -0.03636681
v 0.03606305 0.00013697 -0.02966682
v 0.03625860 0.00013697 -0.01007121
v 0.03639073 -0.01167732 -0.01007121
v 0.02960442 0.00013697 -0.03934713
v 0.03757332 -0.01167732 -0.02931434
v 0.03328298 0.00013697 -0.03615762
v 0.03097199 0.00013697 -0.03925257
v 0.02756034 0.00013697 -0.03783692
v 0.03493331 -0.01167732 -0.02501580
v 0.02764887 0.00013697 -0.03863931
v 0.03505620 -0.01167732 -0.02856926
f 1 2 8
f 1 8 14
f 1 14 15
f 1 15 9
f 1 9 3
f 1 3 4
f 1 4 5
f 1 5 2
f 2 5 6
f 2 6 7
f 2 7 8
f 3 9 4
f 4 9 15
f 4 15 21
f 4 21 23
f 4 23 17
f 4 17 11
f 4 11 7
f 4 7 6
f 4 6 5
f 7 10 8
f 7 11 12
f 7 12 13
f 7 13 10
f 8 10 13
f 8 13 18
f 8 18 19
f 8 19 16
f 8 16 22
f 8 22 20
f 8 20 14
f 11 16 12
f 11 17 16
f 12 18 13
f 12 16 19
f 12 19 18
f 14 20 15
f 15 20 21
f 16 17 23
f 16 23 22
f 20 22 23
f 20 23 21

