# https://github.com/mikedh/trimesh
v -0.03803826 -0.01254839 -0.02708345
v -0.03803826 -0.01138379 -0.02822458
v -0.03208983 0.00010858 -0.03875668
v -0.03031274 0.00010858 -0.03816903
v -0.02967591 0.00010858 -0.03778182
v -0.03803826 -0.00709335 -0.01734170
v -0.03803826 -0.00660645 -0.03286198
v -0.03624563 -0.00319566 -0.03589361
v -0.03308764 0.00010858 -0.03832847
v -0.03693321 0.00010858 -0.01548993
v -0.03803826 -0.00519902 -0.01548993
v -0.03803826 -0.00173991 -0.03023351
v -0.03803826 -0.00145495 -0.03007863
v -0.03803826 0.00010858 -0.02842046
v -0.03589610 0.00010858 -0.03316036
v -0.03803826 0.00010858 -0.01548993
f 1 2 3
f 1 3 4
f 1 4 5
f 1 5 6
f 1 6 11
f 1 11 16
f 1 16 14
f 1 14 13
f 1 13 12
f 1 12 7
f 1 7 2
f 2 7 3
f 3 8 9
f 3 9 15
f 3 15 14
f 3 14 16
f 3 16 10
f 3 10 5
f 3 5 4
f 3 7 8
f 5 10 11
f 5 11 6
f 7 12 8
f 8 12 13
f 8 13 14
f 8 14 15
f 8 15 9
f 10 16 11

