# https://github.com/mikedh/trimesh
v 0.02960441 0.00013698 -0.03934246
v 0.03097212 0.00013698 -0.03924987
v 0.02780447 0.00013698 -0.03869435
v 0.02780447 0.00131575 -0.04035001
v 0.02780447 0.00292131 -0.04155907
v 0.03328191 0.00013698 -0.03615641
v 0.02780447 0.00013698 -0.03760511
v 0.02780447 0.00735592 -0.03847106
v 0.02980660 0.00746161 -0.03571526
v 0.03528843 0.00013698 -0.03147265
v 0.03265850 0.02354166 -0.01155579
v 0.03528843 0.02926885 0.00082894
v 0.02780447 0.00425048 -0.03192469
v 0.03528843 0.00013698 -0.01329313
v 0.02780447 0.01390420 -0.03081910
v 0.02922566 0.04077609 0.00341590
v 0.03528843 0.03385386 0.00660739
v 0.02780447 0.01899323 -0.01519387
v 0.03528843 0.02803317 0.01407962
v 0.02780447 0.03823563 0.00565430
v 0.02780447 0.02396845 -0.00956247
v 0.02780447 0.03844294 -0.00138767
v 0.02780447 0.04165813 0.00270245
v 0.03528843 0.03398800 0.00933595
v 0.03528843 0.03352462 0.00975531
v 0.02780447 0.03873153 0.00534387
f 1 2 6
f 1 6 10
f 1 10 14
f 1 14 7
f 1 7 3
f 1 3 4
f 1 4 5
f 1 5 2
f 2 5 6
f 3 7 13
f 3 13 18
f 3 18 21
f 3 21 20
f 3 20 26
f 3 26 23
f 3 23 22
f 3 22 15
f 3 15 8
f 3 8 5
f 3 5 4
f 5 8 9
f 5 9 6
f 6 9 11
f 6 11 12
f 6 12 10
f 7 14 13
f 8 15 9
f 9 15 16
f 9 16 11
f 10 12 17
f 10 17 24
f 10 24 25
f 10 25 19
f 10 19 14
f 11 16 12
f 12 16 17
f 13 14 18
f 14 19 20
f 14 20 21
f 14 21 18
f 15 22 16
f 16 23 24
f 16 24 17
f 16 22 23
f 19 25 26
f 19 26 20
f 23 26 25
f 23 25 24

