# https://github.com/mikedh/trimesh
v -0.03208972 0.00011261 -0.03875476
v -0.02892770 0.00262452 -0.04093733
v -0.03031320 0.00011261 -0.03816591
v -0.03308722 0.00011261 -0.03832798
v -0.02892770 0.00446309 -0.04153699
v -0.02892770 0.00180200 -0.03987846
v -0.02967658 0.00011261 -0.03778234
v -0.02892770 0.00111254 -0.03884120
v -0.03589590 0.00011261 -0.03315790
v -0.03370425 0.02083686 -0.01599995
v -0.02892770 0.01172061 -0.03411412
v -0.02892770 0.00071338 -0.03823074
v -0.03662368 0.00011261 -0.01693456
v -0.03662368 0.00011261 -0.03154799
v -0.03662368 0.01065618 -0.02035426
v -0.03662368 0.01180528 -0.01913333
v -0.03662368 0.02782424 -0.00109478
v -0.03001486 0.03919032 -0.00078144
v -0.02892770 0.03663406 -0.00517358
v -0.02892770 0.03645262 0.00743557
v -0.03662368 0.01629688 0.00059616
v -0.03662368 0.03279161 0.00513416
v -0.02892770 0.03979915 -0.00130547
v -0.03662368 0.03366251 0.00771110
v -0.03527962 0.03575509 0.00885100
v -0.02892770 0.04129903 0.00387541
v -0.02892770 0.04039184 -0.00043029
v -0.03662368 0.02951363 0.01365371
v -0.03662368 0.03378750 0.01001251
v -0.03662368 0.03380363 0.01030964
v -0.03662368 0.02954992 0.01362670
f 1 2 3
f 1 3 7
f 1 7 13
f 1 13 14
f 1 14 9
f 1 9 4
f 1 4 2
f 2 5 11
f 2 11 19
f 2 19 23
f 2 23 27
f 2 27 26
f 2 26 20
f 2 20 12
f 2 12 8
f 2 8 6
f 2 6 3
f 2 4 5
f 3 6 8
f 3 8 7
f 4 9 5
f 5 9 10
f 5 10 11
f 7 8 12
f 7 12 13
f 9 14 15
f 9 15 10
f 10 16 17
f 10 17 18
f 10 18 11
f 10 15 16
f 11 18 19
f 12 20 13
f 13 20 21
f 13 21 28
f 13 28 31
f 13 31 30
f 13 30 29
f 13 29 24
f 13 24 22
f 13 22 17
f 13 17 16
f 13 16 15
f 13 15 14
f 17 22 18
f 18 23 19
f 18 22 24
f 18 24 25
f 18 25 26
f 18 26 27
f 18 27 23
f 20 26 28
f 20 28 21
f 24 29 25
f 25 29 30
f 25 30 31
f 25 31 28
f 25 28 26

