# https://github.com/mikedh/trimesh
v 0.03528662 -0.03420367 -0.01005863
v 0.03528662 -0.03390450 -0.00650396
v 0.03528662 -0.03419022 -0.01007121
v 0.03529065 -0.03419022 -0.01007121
v 0.03983958 -0.02265370 -0.01007121
v 0.03931994 -0.02040825 -0.00431583
v 0.03835151 0.00013362 0.02529943
v 0.03735772 0.00013362 0.02892117
v 0.03528662 -0.00629685 0.02641446
v 0.03528662 -0.01989395 -0.01007121
v 0.04099986 -0.00815574 -0.01007121
v 0.04022096 -0.00265639 0.01412821
v 0.04001069 0.00013362 0.01748587
v 0.03629077 0.00013362 0.03118476
v 0.03528662 -0.00058910 0.03254291
v 0.03528662 -0.01785690 -0.00761061
v 0.03625909 0.00013362 -0.01007121
v 0.04105747 -0.00741958 -0.01007121
v 0.04117212 0.00013362 -0.00051384
v 0.04040014 0.00013362 0.01491628
v 0.03528662 0.00013362 0.03275250
v 0.03528662 0.00013362 0.01857155
v 0.04010920 0.00013362 -0.01007121
v 0.04101138 -0.00674729 -0.01007121
v 0.04089040 0.00013362 -0.00480627
f 1 2 9
f 1 9 15
f 1 15 21
f 1 21 22
f 1 22 16
f 1 16 10
f 1 10 3
f 1 3 4
f 1 4 5
f 1 5 2
f 2 5 6
f 2 6 7
f 2 7 8
f 2 8 9
f 3 10 17
f 3 17 23
f 3 23 24
f 3 24 18
f 3 18 11
f 3 11 5
f 3 5 4
f 5 11 12
f 5 12 6
f 6 12 7
f 7 12 13
f 7 13 20
f 7 20 19
f 7 19 25
f 7 25 23
f 7 23 17
f 7 17 22
f 7 22 21
f 7 21 14
f 7 14 8
f 8 14 15
f 8 15 9
f 10 16 17
f 11 18 19
f 11 19 12
f 12 19 20
f 12 20 13
f 14 21 15
f 16 22 17
f 18 24 25
f 18 25 19
f 23 25 24

