# https://github.com/mikedh/trimesh
v 0.01529663 -0.01015888 0.04693326
v 0.01959310 -0.00911266 0.04583399
v 0.02409919 -0.00370918 0.04147173
v 0.01529663 -0.00840716 0.04562527
v 0.01529663 -0.01239564 0.04558353
v 0.02753206 -0.01111692 0.03555102
v 0.02753206 -0.00562525 0.04143346
v 0.02397582 -0.02255322 0.02694129
v 0.02753206 -0.00437459 0.04075164
v 0.02753206 -0.00016966 0.03831657
v 0.01529663 -0.00771369 0.04409465
v 0.01529663 -0.01597524 0.04149608
v 0.02379255 -0.03574926 0.01139507
v 0.02715355 -0.03147618 0.01139507
v 0.02753206 -0.03030970 0.01222300
v 0.01529663 -0.00773373 0.04391724
v 0.02753206 -0.02252516 0.01139507
v 0.01529663 -0.03829066 0.01488071
v 0.01795453 -0.03950924 0.01139507
v 0.02753206 -0.03098714 0.01139507
v 0.01529663 -0.03495156 0.01139507
v 0.01529663 -0.04112067 0.01139507
f 1 2 3
f 1 3 4
f 1 4 11
f 1 11 16
f 1 16 21
f 1 21 22
f 1 22 18
f 1 18 12
f 1 12 5
f 1 5 2
f 2 6 7
f 2 7 3
f 2 5 8
f 2 8 6
f 3 7 9
f 3 9 10
f 3 10 4
f 4 10 11
f 5 12 8
f 6 8 13
f 6 13 14
f 6 14 15
f 6 15 20
f 6 20 17
f 6 17 10
f 6 10 9
f 6 9 7
f 8 12 13
f 10 16 11
f 10 17 16
f 12 18 19
f 12 19 13
f 13 19 22
f 13 22 21
f 13 21 17
f 13 17 20
f 13 20 14
f 14 20 15
f 16 17 21
f 18 22 19

