# https://github.com/mikedh/trimesh
v 0.01185627 0.02611308 -0.03094739
v 0.02164689 0.02052425 -0.03094739
v 0.02059929 0.01141634 -0.04276579
v 0.01185627 0.02491039 -0.03241121
v 0.01185627 0.01977670 -0.03094739
v 0.02780447 0.01378867 -0.03094739
v 0.02304577 0.00709886 -0.04502360
v 0.01185627 0.01526343 -0.04397475
v 0.01185627 0.01106799 -0.03819951
v 0.02780447 0.00425104 -0.03192926
v 0.02780447 0.00549696 -0.03094739
v 0.02780447 0.00735313 -0.03847561
v 0.02780447 0.00292122 -0.04155846
v 0.02780447 0.00131424 -0.04035277
v 0.01841510 0.00744466 -0.04560194
v 0.01185627 0.01010940 -0.04738760
v 0.01185627 0.01067133 -0.04763594
v 0.01185627 0.00738364 -0.04294713
v 0.01879917 0.00649115 -0.03737121
v 0.02755780 0.00013698 -0.03784009
v 0.02780447 0.00013698 -0.03760811
v 0.02780447 0.00013698 -0.03869780
v 0.01185627 0.00854565 -0.04645965
v 0.01185627 0.00749806 -0.04394370
v 0.02764835 0.00013698 -0.03864226
f 1 2 3
f 1 3 4
f 1 4 8
f 1 8 17
f 1 17 16
f 1 16 23
f 1 23 24
f 1 24 18
f 1 18 9
f 1 9 5
f 1 5 11
f 1 11 6
f 1 6 2
f 2 6 7
f 2 7 3
f 3 8 4
f 3 7 8
f 5 9 10
f 5 10 11
f 6 11 10
f 6 10 21
f 6 21 22
f 6 22 14
f 6 14 13
f 6 13 12
f 6 12 7
f 7 12 13
f 7 13 14
f 7 14 15
f 7 15 16
f 7 16 17
f 7 17 8
f 9 18 19
f 9 19 10
f 10 20 21
f 10 19 20
f 14 22 23
f 14 23 15
f 15 23 16
f 18 24 25
f 18 25 20
f 18 20 19
f 20 25 22
f 20 22 21
f 22 25 23
f 23 25 24

