# https://github.com/mikedh/trimesh
v 0.02753206 -0.04260915 -0.00302788
v 0.02753206 -0.04044590 -0.00011879
v 0.02753206 -0.04152125 -0.00405640
v 0.03305423 -0.03447500 -0.01007121
v 0.03528662 -0.03419047 -0.01007121
v 0.03421786 -0.03747928 -0.00708145
v 0.02950865 -0.00475858 0.04033624
v 0.02753206 -0.03030750 0.01222343
v 0.02753206 -0.03598969 -0.00691003
v 0.03159076 -0.03325320 -0.01007121
v 0.03528662 -0.01989713 -0.01007121
v 0.03528662 -0.03420303 -0.01005608
v 0.03528662 -0.03390176 -0.00650165
v 0.03528662 -0.00629837 0.02641092
v 0.03247127 -0.01503924 0.02300270
v 0.03528662 -0.00059108 0.03254169
v 0.03272631 0.00013279 0.03673643
v 0.02753206 -0.00562471 0.04143535
v 0.02753206 -0.01111443 0.03555162
v 0.02753206 -0.03493527 -0.00734362
v 0.03014398 -0.03149582 -0.01007121
v 0.03125980 -0.03285152 -0.01007121
v 0.03211906 -0.02660027 -0.01007121
v 0.02753206 -0.02921124 -0.00405135
v 0.03528662 -0.01785941 -0.00761083
v 0.03528662 0.00013279 0.03274840
v 0.02782961 0.00013279 0.03804224
v 0.02753206 -0.00017266 0.03831450
v 0.02753206 -0.00437363 0.04074967
v 0.03528662 0.00013279 0.01857099
f 1 2 8
f 1 8 19
f 1 19 18
f 1 18 29
f 1 29 28
f 1 28 24
f 1 24 20
f 1 20 9
f 1 9 3
f 1 3 4
f 1 4 5
f 1 5 6
f 1 6 2
f 2 6 7
f 2 7 8
f 3 9 10
f 3 10 4
f 4 10 22
f 4 22 21
f 4 21 23
f 4 23 11
f 4 11 5
f 5 11 25
f 5 25 30
f 5 30 26
f 5 26 16
f 5 16 14
f 5 14 13
f 5 13 12
f 5 12 6
f 6 12 13
f 6 13 14
f 6 14 15
f 6 15 7
f 7 16 17
f 7 17 18
f 7 18 19
f 7 19 8
f 7 15 16
f 9 20 21
f 9 21 22
f 9 22 10
f 11 23 24
f 11 24 25
f 14 16 15
f 16 26 17
f 17 27 28
f 17 28 29
f 17 29 18
f 17 26 30
f 17 30 27
f 20 24 21
f 21 24 23
f 24 28 30
f 24 30 25
f 27 30 28

