# https://github.com/mikedh/trimesh
v 0.02753206 -0.02252904 0.01139507
v 0.02753206 -0.02624597 0.00253780
v 0.01529663 -0.03495364 0.01139507
v 0.02753206 -0.03099041 0.01139507
v 0.02753206 -0.02921404 -0.00405563
v 0.01529663 -0.04229544 0.00022441
v 0.01529663 -0.04111866 0.01139507
v 0.02715355 -0.03148052 0.01139507
v 0.02370392 -0.04214368 0.00386052
v 0.02753206 -0.04044693 -0.00012232
v 0.02753206 -0.03493871 -0.00734683
v 0.01529663 -0.04556455 0.00024459
v 0.01529663 -0.04701997 0.00412836
v 0.01795453 -0.03950899 0.01139507
v 0.02379255 -0.03574977 0.01139507
v 0.01529663 -0.04794547 0.00246441
v 0.02540239 -0.04424099 -0.00174041
v 0.02753206 -0.04260892 -0.00303011
v 0.02015726 -0.03809088 0.01139507
v 0.02753206 -0.03599109 -0.00691021
v 0.01884089 -0.04508687 -0.00062499
v 0.01529663 -0.04708714 0.00157832
v 0.02753206 -0.04152419 -0.00405746
f 1 2 3
f 1 3 7
f 1 7 14
f 1 14 19
f 1 19 15
f 1 15 8
f 1 8 4
f 1 4 10
f 1 10 18
f 1 18 23
f 1 23 20
f 1 20 11
f 1 11 5
f 1 5 2
f 2 5 3
f 3 5 6
f 3 6 12
f 3 12 22
f 3 22 16
f 3 16 13
f 3 13 7
f 4 8 9
f 4 9 10
f 5 11 6
f 6 11 12
f 7 13 14
f 8 15 9
f 9 13 16
f 9 16 17
f 9 17 18
f 9 18 10
f 9 15 19
f 9 19 14
f 9 14 13
f 11 20 12
f 12 21 22
f 12 20 23
f 12 23 21
f 16 22 21
f 16 21 17
f 17 21 23
f 17 23 18

