# https://github.com/mikedh/trimesh
v -0.04267853 -0.02409476 -0.01680294
v -0.04255908 -0.01540155 -0.00619409
v -0.04288125 -0.01582635 -0.02467043
v -0.04242294 0.00881467 -0.00065780
v -0.04296099 0.01080407 0.01620638
v -0.04005023 -0.00707897 0.01626750
v -0.04048538 0.00991483 0.03079086
v -0.04225530 0.02053884 0.02207361
v -0.04174665 0.02636954 0.01586956
v -0.03950158 -0.02583424 -0.01651285
v -0.03624586 -0.00319504 -0.03589462
v -0.04022260 0.00066693 -0.02299541
v -0.03958768 -0.02671925 -0.00409776
v -0.03370451 0.02084068 -0.01600498
v -0.03810357 0.03136332 0.00646063
v -0.03592923 -0.03613270 -0.00704470
v -0.03844645 -0.01324921 -0.02648064
v -0.03795724 0.01834748 0.02245425
v -0.03663407 0.02950605 0.01366149
v -0.03527968 0.03575615 0.00885518
v -0.03515676 -0.01516157 0.02064440
v -0.03560134 0.00038721 0.03696488
v -0.03764864 -0.01787366 -0.00471409
v -0.03898178 -0.01019438 -0.01594265
v -0.03459513 0.00422017 -0.02244695
v -0.03842705 0.00787428 0.01755830
v -0.03737241 0.01501975 0.00114214
v -0.03205347 -0.03587057 -0.00734566
v -0.03173602 -0.00880528 0.02428442
v -0.02943892 -0.00062259 0.03925401
v -0.03535481 0.00718592 0.03176162
v -0.02738690 -0.02454566 0.02246227
v -0.03001423 0.03919324 -0.00077613
v -0.03146580 -0.04027863 -0.00168114
v -0.03153670 -0.00138581 -0.03665780
v -0.02904766 0.02922566 -0.00490554
v -0.02898046 -0.00460970 0.04240659
v -0.02823770 0.00672007 -0.03321612
v -0.02810604 -0.04247173 -0.00261509
v -0.02193397 -0.03339246 0.00975059
v -0.02699894 0.00415455 -0.04226693
v -0.02647245 0.00702829 -0.04343001
v -0.02196204 0.04273397 0.00181558
v -0.02502349 0.04470594 0.00082024
v -0.02261525 0.02177778 -0.03071560
v -0.02369413 -0.04561835 0.00194845
v -0.02120826 -0.04361421 -0.00105779
v -0.01780174 -0.00772354 0.04521189
v -0.02383334 0.00480073 -0.04131430
v -0.01879863 -0.01255641 0.03727328
v -0.01674292 0.02550813 -0.02320589
v -0.01293688 -0.04968961 0.00361003
v -0.01648681 -0.02354994 0.03325121
v -0.01473584 0.01132782 -0.04728493
v -0.02010020 0.04472772 -0.00555865
v -0.01473089 -0.04445761 0.00989958
v -0.01638010 -0.01109415 0.04733015
v -0.01299171 0.03628208 -0.01981041
v -0.01156688 0.04958108 -0.00348271
v -0.00600628 -0.04752355 0.00216098
v -0.01541580 0.00831243 -0.04524180
v -0.00378214 -0.04239500 0.01564169
v -0.00774951 -0.02716685 0.02616101
v -0.00524872 0.02202537 -0.03917901
v -0.00235725 0.01093083 -0.04831722
v -0.00521629 0.02623171 -0.02735787
v -0.00618516 0.04749699 -0.00215432
v -0.00471545 0.00970137 -0.04538941
v -0.00090876 -0.01528133 0.04783632
v -0.00275388 -0.01219460 0.04942464
v 0.00176162 -0.01202098 0.04465460
v 0.00097399 0.05084778 -0.00435567
v 0.00268940 -0.05092502 0.00509893
v 0.00540037 0.01273210 -0.04914489
v 0.00465648 0.01580912 -0.03905733
v 0.00301946 -0.03480789 0.01775774
v -0.00092536 0.04509831 -0.01214063
v 0.00370453 -0.02367583 0.03743914
v 0.00894448 0.02940200 -0.02896474
v 0.01041165 0.04553758 -0.00922622
v 0.00456693 -0.01077564 0.04784881
v 0.00912746 0.03286478 -0.01809839
v 0.01185906 0.04630590 -0.00092382
v 0.01171886 -0.03665182 0.01956490
v 0.01121247 -0.04611729 0.00124568
v 0.00953793 0.01628288 -0.04429657
v 0.00926341 -0.01162500 0.04847407
v 0.01307277 -0.02682710 0.02364930
v 0.01293978 -0.01418915 0.04544748
v 0.01096671 -0.04953121 0.00426672
v 0.01879847 0.00649063 -0.03736985
v 0.01091128 0.00750413 -0.04370510
v 0.01841390 0.00744263 -0.04560296
v 0.01795156 0.04778844 -0.00223815
v 0.02354598 -0.02710462 0.01348268
v 0.02060064 0.01141500 -0.04276726
v 0.01959308 -0.00911224 0.04583547
v 0.01589141 -0.00754312 0.04388791
v 0.02048992 0.03208370 -0.01137468
v 0.01884054 -0.04508714 -0.00062528
v 0.02079203 -0.00921189 0.03798884
v 0.01951608 0.01610304 -0.03093259
v 0.02370407 -0.04214605 0.00386203
v 0.02213306 -0.03589650 -0.00149033
v 0.02540249 -0.04424296 -0.00174068
v 0.02409978 -0.00370892 0.04147350
v 0.02275323 0.03015081 -0.01845940
v 0.02397640 -0.02255714 0.02694043
v 0.02304672 0.00709764 -0.04502382
v 0.02683248 0.03940769 0.00477097
v 0.02589069 -0.03709934 -0.00563445
v 0.03030716 -0.00299197 0.03071099
v 0.02980642 0.00746062 -0.03571852
v 0.02922493 0.04077900 0.00341668
v 0.03043679 -0.02561654 -0.00543685
v 0.02950793 -0.00475545 0.04034023
v 0.02863522 -0.00064355 -0.03789734
v 0.03121914 0.02018294 -0.00871101
v 0.03265881 0.02354217 -0.01155094
v 0.03247144 -0.01503875 0.02300664
v 0.02859962 0.00405126 -0.03144736
v 0.03222824 -0.01755641 0.00840455
v 0.03493340 -0.00334262 -0.03636756
v 0.03399055 0.00649015 0.03237637
v 0.03339269 -0.00545743 -0.02655677
v 0.03353593 0.03134798 0.01088526
v 0.03672459 -0.02979458 -0.01406636
v 0.03332464 -0.02730766 -0.01339005
v 0.03421077 -0.00792186 -0.03199242
v 0.03421826 -0.03747947 -0.00708386
v 0.03572597 -0.00385882 0.01202932
v 0.03629815 0.01611857 0.00447875
v 0.03637622 0.03276995 0.01039852
v 0.03631655 -0.01621152 -0.00807670
v 0.03666904 0.03227844 0.00733618
v 0.03624442 -0.00849318 -0.01790531
v 0.03823472 0.00682486 -0.01678859
v 0.03772243 0.02343753 0.01851619
v 0.03626182 -0.01703109 -0.02369175
v 0.03768056 0.00113971 0.02931285
v 0.03932015 -0.02040957 -0.00431637
v 0.03737125 0.00451563 0.00583965
v 0.03683953 0.01497399 0.02473875
v 0.04022113 -0.00265582 0.01413221
v 0.03926376 0.01007303 0.02943089
v 0.04014407 -0.01454724 -0.02727217
v 0.04051471 -0.02557154 -0.01753652
v 0.04104200 -0.00845111 -0.01137640
v 0.04049486 0.02262232 0.01239314
v 0.04054175 0.02324565 0.01748028
v 0.04141000 0.01583804 0.01933575
f 32 46 56
f 80 107 79
f 101 112 95
f 116 140 145
f 36 25 38
f 91 92 93
f 112 101 106
f 124 131 112
f 27 24 25
f 48 37 57
f 61 41 54
f 121 117 129
f 70 57 69
f 127 128 139
f 106 101 98
f 68 66 61
f 109 123 93
f 138 143 145
f 139 129 146
f 82 66 75
f 145 151 150
f 31 29 26
f 138 132 142
f 142 136 134
f 72 59 67
f 84 89 78
f 141 130 127
f 55 45 33
f 131 122 112
f 20 15 9
f 71 88 76
f 124 112 106
f 115 104 95
f 69 53 78
f 2 1 13
f 22 21 32
f 94 107 80
f 97 106 87
f 71 76 63
f 25 35 38
f 59 55 44
f 102 121 118
f 49 41 61
f 19 27 36
f 136 118 125
f 123 117 93
f 144 120 141
f 95 85 88
f 94 80 72
f 90 73 85
f 134 128 115
f 7 5 6
f 26 23 24
f 78 62 84
f 138 126 132
f 77 79 64
f 18 8 7
f 113 109 96
f 99 82 102
f 83 82 99
f 90 84 73
f 121 129 125
f 110 83 99
f 111 100 104
f 103 105 130
f 60 47 40
f 2 4 1
f 122 95 112
f 134 136 128
f 144 148 151
f 57 53 69
f 20 9 19
f 67 43 51
f 96 74 86
f 142 132 136
f 136 139 128
f 113 123 109
f 133 135 114
f 125 129 139
f 103 90 105
f 132 118 136
f 76 85 60
f 59 43 67
f 23 28 10
f 119 113 107
f 110 118 126
f 23 29 28
f 143 142 131
f 84 62 73
f 74 93 65
f 110 99 118
f 12 11 3
f 17 11 35
f 35 11 41
f 7 6 22
f 9 15 4
f 27 26 24
f 83 67 82
f 66 51 61
f 145 140 144
f 7 22 30
f 116 106 97
f 40 28 29
f 37 32 57
f 19 36 43
f 129 117 123
f 67 51 66
f 145 124 116
f 82 75 102
f 118 121 125
f 87 69 89
f 148 141 147
f 25 17 35
f 140 116 120
f 38 49 51
f 30 31 7
f 72 83 94
f 72 77 59
f 110 126 133
f 47 28 40
f 25 24 17
f 7 31 18
f 138 142 143
f 11 17 3
f 133 149 135
f 114 119 107
f 60 52 47
f 39 16 28
f 92 65 93
f 84 90 103
f 42 41 11
f 30 37 48
f 72 80 77
f 71 63 48
f 4 14 12
f 151 145 144
f 150 149 133
f 53 32 56
f 26 29 23
f 78 53 62
f 135 137 119
f 4 3 1
f 96 109 74
f 5 4 2
f 85 73 60
f 98 88 71
f 16 10 28
f 65 61 54
f 137 148 146
f 14 11 12
f 21 16 34
f 17 10 3
f 124 143 131
f 74 54 64
f 149 148 137
f 49 35 41
f 33 14 15
f 63 60 40
f 50 63 40
f 108 103 120
f 60 73 52
f 142 134 131
f 99 102 118
f 55 33 44
f 36 27 25
f 62 56 52
f 37 22 32
f 122 131 134
f 91 93 117
f 114 94 110
f 15 14 4
f 150 138 145
f 121 91 117
f 86 64 79
f 134 115 122
f 92 68 65
f 104 115 111
f 44 33 20
f 31 26 18
f 62 53 56
f 6 13 21
f 46 34 39
f 95 88 101
f 80 79 77
f 59 58 55
f 8 5 7
f 133 126 138
f 24 23 17
f 144 141 148
f 92 75 68
f 9 4 5
f 77 64 58
f 91 75 92
f 14 42 11
f 70 81 48
f 130 105 127
f 149 137 135
f 104 85 95
f 22 6 21
f 96 86 79
f 97 87 89
f 54 41 42
f 51 36 38
f 18 26 27
f 48 50 30
f 140 120 144
f 20 33 15
f 57 32 53
f 107 96 79
f 43 44 20
f 113 96 107
f 97 108 116
f 19 8 18
f 146 147 127
f 87 81 70
f 125 139 136
f 149 151 148
f 22 37 30
f 126 118 132
f 119 137 113
f 50 40 29
f 116 108 120
f 45 14 33
f 137 123 113
f 97 89 108
f 43 36 51
f 59 44 43
f 115 128 111
f 34 16 39
f 47 52 39
f 108 89 84
f 6 5 2
f 76 60 63
f 150 151 149
f 52 46 39
f 47 39 28
f 98 71 81
f 30 50 29
f 127 111 128
f 10 1 3
f 59 77 58
f 127 139 146
f 87 70 69
f 102 91 121
f 55 58 45
f 75 66 68
f 62 52 73
f 54 42 45
f 43 20 19
f 114 135 119
f 32 21 34
f 68 61 65
f 19 18 27
f 74 65 54
f 101 88 98
f 109 93 74
f 98 87 106
f 32 34 46
f 100 90 85
f 98 81 87
f 58 64 45
f 114 110 133
f 13 16 21
f 9 8 19
f 23 10 17
f 114 107 94
f 13 1 16
f 146 129 123
f 38 35 49
f 64 54 45
f 56 46 52
f 120 103 130
f 12 3 4
f 148 147 146
f 143 124 145
f 116 124 106
f 81 71 48
f 90 100 105
f 150 133 138
f 67 66 82
f 72 67 83
f 8 9 5
f 89 69 78
f 111 105 100
f 86 74 64
f 122 115 95
f 137 146 123
f 84 103 108
f 102 75 91
f 88 85 76
f 48 57 70
f 105 111 127
f 1 10 16
f 104 100 85
f 30 29 31
f 45 42 14
f 63 50 48
f 94 83 110
f 51 49 61
f 120 130 141
f 2 13 6
f 141 127 147

