# https://github.com/mikedh/trimesh
v -0.01317594 0.00701687 -0.00979869
v -0.01023807 -0.00116395 0.00320149
v -0.01307040 0.00945040 -0.00979869
v -0.00981346 -0.00401780 -0.00979869
v -0.00937167 -0.00559853 -0.00909371
v -0.00865500 -0.01018844 0.00320149
v -0.00986255 -0.00622290 0.00320149
v -0.00990673 -0.00038120 0.00320149
v -0.00878508 0.01974496 -0.00979869
v -0.00955575 -0.00480359 -0.00979869
v -0.00937413 -0.00497111 -0.00979869
v -0.00784506 -0.00622899 -0.00979869
v -0.00147599 -0.00916507 -0.00979869
v -0.00083785 -0.01080977 0.00320149
v -0.00744500 0.00513461 0.00320149
v -0.00799232 0.02030537 -0.00979869
v 0.01133088 -0.00954274 0.00320149
v 0.00283388 -0.00854070 -0.00979869
v -0.00396717 0.00589299 0.00320149
v 0.00247308 0.01918150 -0.00979869
v 0.00246081 0.00549400 0.00320149
v 0.00733763 -0.00827572 -0.00689223
v 0.01189784 -0.00815389 0.00320149
v 0.00644915 -0.00600666 -0.00979869
v 0.00308667 0.01893784 -0.00979869
v 0.00813530 0.00475389 0.00320149
v 0.00828993 -0.00274164 -0.00979869
v 0.00980181 0.00097415 -0.00979869
v 0.01151005 -0.00162081 0.00320149
v 0.00341801 0.01845661 -0.00979869
v 0.01105845 -0.00052130 0.00320149
v 0.00972573 0.00224117 -0.00979869
v 0.01150514 -0.00154771 0.00320149
f 1 2 3
f 1 3 9
f 1 9 16
f 1 16 20
f 1 20 25
f 1 25 30
f 1 30 32
f 1 32 28
f 1 28 27
f 1 27 24
f 1 24 18
f 1 18 13
f 1 13 12
f 1 12 11
f 1 11 10
f 1 10 4
f 1 4 5
f 1 5 6
f 1 6 7
f 1 7 2
f 2 8 9
f 2 9 3
f 2 7 6
f 2 6 14
f 2 14 17
f 2 17 23
f 2 23 29
f 2 29 33
f 2 33 31
f 2 31 26
f 2 26 21
f 2 21 19
f 2 19 15
f 2 15 8
f 4 10 5
f 5 10 11
f 5 11 12
f 5 12 6
f 6 13 14
f 6 12 13
f 8 15 9
f 9 15 16
f 13 17 14
f 13 18 17
f 15 19 16
f 16 19 21
f 16 21 20
f 17 18 22
f 17 22 23
f 18 24 22
f 20 21 26
f 20 26 25
f 22 24 27
f 22 27 28
f 22 28 23
f 23 28 29
f 25 26 30
f 26 31 30
f 28 32 29
f 29 32 33
f 30 33 32
f 30 31 33

