# https://github.com/mikedh/trimesh
v -0.00799701 0.02031366 -0.00980540
v -0.00879059 0.01975000 -0.00980540
v 0.00247054 0.01918635 -0.00980540
v -0.01091972 0.05314649 -0.03396125
v -0.02372156 0.07839818 -0.05592356
v -0.01307207 0.00945393 -0.00980540
v 0.00308605 0.01894210 -0.00980540
v -0.00599950 0.06485170 -0.04544551
v -0.01553024 0.08505868 -0.05962643
v -0.02783270 0.08101916 -0.06696508
v -0.02539389 0.05753359 -0.04948378
v -0.01317271 0.00702082 -0.00980540
v 0.00341897 0.01846299 -0.00980540
v 0.00019431 0.05509109 -0.04463383
v -0.00624338 0.08315166 -0.06673030
v -0.01506570 0.08680601 -0.06778347
v -0.02288539 0.07891486 -0.07669853
v -0.02974504 0.07233890 -0.06832012
v -0.01546830 0.01619898 -0.01880766
v -0.00981644 -0.00401740 -0.00980540
v 0.00972505 0.00224855 -0.00980540
v -0.00260452 0.07545778 -0.06813900
v -0.01388888 0.08211829 -0.07655095
v -0.00685502 0.07388895 -0.07589356
v -0.01993172 0.06960518 -0.07832860
v -0.02646619 0.06803634 -0.07361281
v -0.02026076 0.04131915 -0.05065099
v -0.00956095 -0.00479712 -0.00980540
v 0.00980247 0.00098033 -0.00980540
v 0.00930309 0.00314100 -0.01289112
v -0.00015796 0.05837907 -0.05763412
v -0.00340971 0.04914455 -0.05906295
v -0.01299464 0.06360226 -0.07643021
v -0.01458181 0.04942637 -0.06369153
v -0.00942933 0.01708204 -0.03455156
v -0.00937513 -0.00496622 -0.00980540
v 0.00828885 -0.00273978 -0.00980540
v 0.00645007 -0.00599958 -0.00980540
v 0.00290798 0.00305646 -0.02139028
v -0.00162125 -0.00879906 -0.01267646
v -0.00784990 -0.00622504 -0.00980540
v 0.00283056 -0.00853602 -0.00980540
v -0.00148189 -0.00916544 -0.00980540
f 1 2 6
f 1 6 12
f 1 12 20
f 1 20 28
f 1 28 36
f 1 36 41
f 1 41 43
f 1 43 42
f 1 42 38
f 1 38 37
f 1 37 29
f 1 29 21
f 1 21 13
f 1 13 7
f 1 7 3
f 1 3 4
f 1 4 5
f 1 5 2
f 2 5 6
f 3 7 8
f 3 8 4
f 4 8 9
f 4 9 5
f 5 9 10
f 5 10 11
f 5 11 6
f 6 11 12
f 7 13 8
f 8 14 15
f 8 15 9
f 8 13 14
f 9 15 16
f 9 16 10
f 10 16 17
f 10 17 18
f 10 18 11
f 11 18 12
f 12 18 19
f 12 19 20
f 13 21 14
f 14 22 15
f 14 21 22
f 15 23 16
f 15 22 24
f 15 24 23
f 16 23 17
f 17 23 25
f 17 25 26
f 17 26 18
f 18 26 27
f 18 27 28
f 18 28 20
f 18 20 19
f 21 29 30
f 21 30 22
f 22 31 24
f 22 30 31
f 23 24 25
f 24 31 32
f 24 32 33
f 24 33 25
f 25 33 34
f 25 34 26
f 26 34 35
f 26 35 27
f 27 35 28
f 28 35 36
f 29 37 30
f 30 37 38
f 30 38 39
f 30 39 32
f 30 32 31
f 32 39 33
f 33 39 40
f 33 40 34
f 34 40 35
f 35 40 41
f 35 41 36
f 38 42 40
f 38 40 39
f 40 42 43
f 40 43 41

