# https://github.com/mikedh/trimesh
v 0.02141017 -0.06274508 0.08743148
v 0.01687876 -0.06668877 0.09134569
v 0.01974921 -0.06924758 0.07426836
v 0.01946138 -0.06572165 0.06866275
v 0.01755892 -0.06558757 0.05586777
v 0.01643026 -0.06307863 0.05586777
v 0.01590979 -0.06284890 0.05586777
v 0.01184168 -0.06333614 0.05586777
v 0.01312608 -0.06879222 0.07305972
v 0.01603596 -0.07057196 0.07682110
v 0.01133994 -0.06433187 0.05586777
v 0.01623804 -0.07109680 0.05779883
v 0.01743767 -0.06635358 0.05586777
v 0.01194222 -0.06953371 0.05586777
v 0.01218373 -0.06971030 0.05586777
v 0.01411280 -0.07039210 0.05586777
v 0.01638393 -0.06959339 0.05586777
f 1 2 3
f 1 3 4
f 1 4 5
f 1 5 6
f 1 6 7
f 1 7 8
f 1 8 2
f 2 9 10
f 2 10 3
f 2 8 11
f 2 11 9
f 3 10 12
f 3 12 13
f 3 13 5
f 3 5 4
f 5 13 17
f 5 17 16
f 5 16 15
f 5 15 14
f 5 14 11
f 5 11 8
f 5 8 7
f 5 7 6
f 9 11 14
f 9 14 10
f 10 14 15
f 10 15 16
f 10 16 12
f 12 16 17
f 12 17 13

