# https://github.com/mikedh/trimesh
v 0.00498944 -0.05200296 0.04246053
v -0.00108678 -0.04125545 0.03966497
v -0.00108678 -0.04339534 0.03639584
v -0.00108678 -0.04496823 0.03389359
v 0.00498944 -0.03494790 0.02612711
v 0.00498944 -0.03487102 0.03410745
v 0.00498944 -0.01927993 0.02339877
v 0.00233530 -0.01927993 0.02389066
v -0.00108678 -0.01927993 0.02400371
v 0.00120452 -0.01927993 0.01124799
v -0.00108678 -0.01927993 0.01257703
v 0.00498944 -0.01927993 0.01219207
f 1 2 3
f 1 3 4
f 1 4 5
f 1 5 12
f 1 12 7
f 1 7 6
f 1 6 2
f 2 6 7
f 2 7 8
f 2 8 9
f 2 9 11
f 2 11 4
f 2 4 3
f 4 10 5
f 4 11 10
f 5 10 12
f 7 12 10
f 7 10 11
f 7 11 9
f 7 9 8

