# https://github.com/mikedh/trimesh
v -0.00396632 0.00589134 0.00320149
v -0.00744653 0.00513485 0.00320149
v 0.00106951 -0.00763683 0.01650884
v 0.00246277 0.00549461 0.00320149
v -0.00720743 -0.01466704 0.02126640
v -0.00990541 -0.00038484 0.00320149
v -0.00690930 -0.01927746 0.02459376
v 0.01822851 -0.01927746 0.02327035
v 0.01392179 -0.01001227 0.01720614
v 0.00813325 0.00475291 0.00320149
v -0.01023897 -0.00116844 0.00320149
v -0.00799262 -0.01927746 0.02367658
v 0.01941515 -0.01927746 0.01976081
v 0.01105851 -0.00052530 0.00320149
v 0.01991696 -0.01927746 0.01763959
v -0.00993493 -0.01927746 0.01966239
v -0.00986113 -0.00622487 0.00320149
v 0.01150424 -0.00154792 0.00320149
v 0.01893991 -0.01927746 0.01619264
v 0.01189683 -0.00815183 0.00320149
v 0.01151014 -0.00162431 0.00320149
v -0.00865383 -0.01018969 0.00320149
v -0.00887522 -0.01927746 0.01715798
v 0.01630982 -0.01927746 0.01307049
v 0.01166069 -0.00873337 0.00320149
v -0.00770629 -0.01927746 0.01448604
v -0.00083738 -0.01080819 0.00320149
v 0.00120529 -0.01927746 0.01124872
v 0.01133008 -0.00954408 0.00320149
f 1 2 3
f 1 3 4
f 1 4 10
f 1 10 14
f 1 14 18
f 1 18 21
f 1 21 20
f 1 20 25
f 1 25 29
f 1 29 27
f 1 27 22
f 1 22 17
f 1 17 11
f 1 11 6
f 1 6 2
f 2 5 3
f 2 6 5
f 3 5 7
f 3 7 8
f 3 8 9
f 3 9 4
f 4 9 10
f 5 6 11
f 5 11 12
f 5 12 7
f 7 12 16
f 7 16 23
f 7 23 26
f 7 26 28
f 7 28 24
f 7 24 19
f 7 19 15
f 7 15 13
f 7 13 8
f 8 13 9
f 9 13 10
f 10 13 15
f 10 15 14
f 11 16 12
f 11 17 16
f 14 15 18
f 15 19 20
f 15 20 21
f 15 21 18
f 16 17 22
f 16 22 23
f 19 24 20
f 20 24 25
f 22 26 23
f 22 27 28
f 22 28 26
f 24 28 29
f 24 29 25
f 27 29 28

