# https://github.com/mikedh/trimesh
v -0.00623363 -0.07212602 0.05948920
v -0.01062800 -0.06963551 0.05899940
v -0.00618975 -0.06855543 0.05587163
v -0.00392107 -0.06605352 0.05587163
v -0.00377237 -0.06697724 0.05699006
v -0.00366836 -0.06972250 0.08480064
v -0.00719084 -0.06905042 0.09526383
v -0.00907681 -0.07024235 0.08306127
v -0.00790752 -0.06369247 0.09405668
v -0.01055731 -0.06620368 0.05587163
v -0.00985606 -0.06688301 0.05587163
v -0.00362692 -0.06569626 0.05587163
v -0.00232762 -0.06550261 0.09359388
v -0.00546901 -0.06154679 0.05587163
v -0.00996332 -0.06169695 0.05587163
f 1 2 3
f 1 3 4
f 1 4 5
f 1 5 6
f 1 6 7
f 1 7 8
f 1 8 2
f 2 8 9
f 2 9 10
f 2 10 11
f 2 11 3
f 3 11 10
f 3 10 15
f 3 15 14
f 3 14 12
f 3 12 4
f 4 12 5
f 5 13 6
f 5 12 13
f 6 13 7
f 7 9 8
f 7 13 9
f 9 14 15
f 9 15 10
f 9 13 14
f 12 14 13

