# https://github.com/mikedh/trimesh
v -0.00546909 -0.06154267 0.05586777
v -0.00996358 -0.06169219 0.05586777
v -0.00362698 -0.06569563 0.05586777
v -0.00108678 -0.04126022 0.03966280
v -0.00108678 -0.01927993 0.02400450
v -0.00691070 -0.01927993 0.02459778
v -0.01055691 -0.06620208 0.05586777
v -0.00799260 -0.01927993 0.02368244
v -0.00976425 -0.02968403 0.02911941
v -0.00993669 -0.01927993 0.01966510
v -0.00392086 -0.06605256 0.05586777
v -0.00108678 -0.04496942 0.03389530
v -0.00108678 -0.04340181 0.03639554
v -0.00108678 -0.01927993 0.01257542
v -0.00985603 -0.06688219 0.05586777
v -0.01013138 -0.04536977 0.03686592
v -0.00599660 -0.05311134 0.04020099
v -0.00887704 -0.01927993 0.01716061
v -0.00618850 -0.06855591 0.05586777
v -0.00770706 -0.01927993 0.01449086
f 1 2 7
f 1 7 15
f 1 15 19
f 1 19 11
f 1 11 3
f 1 3 4
f 1 4 5
f 1 5 6
f 1 6 2
f 2 6 8
f 2 8 9
f 2 9 10
f 2 10 7
f 3 11 12
f 3 12 13
f 3 13 4
f 4 13 12
f 4 12 14
f 4 14 5
f 5 14 20
f 5 20 18
f 5 18 10
f 5 10 8
f 5 8 6
f 7 10 16
f 7 16 17
f 7 17 15
f 8 10 9
f 10 18 16
f 11 19 12
f 12 19 17
f 12 17 14
f 14 17 20
f 15 17 19
f 16 18 20
f 16 20 17

