# https://github.com/mikedh/trimesh
v 0.00599766 -0.03769095 0.03614385
v 0.00499003 -0.03964240 0.03614385
v 0.01758968 -0.03925617 0.03614385
v 0.01758968 -0.01927993 0.02321765
v 0.00499003 -0.01927993 0.02339819
v 0.00499003 -0.03486831 0.03410633
v 0.00499003 -0.04540673 0.03614385
v 0.01758968 -0.03939266 0.03614385
v 0.01758968 -0.01927993 0.01458924
v 0.00499003 -0.01927993 0.01219064
v 0.01053629 -0.04894665 0.03614385
v 0.00499003 -0.03494671 0.02612270
v 0.01207302 -0.04848201 0.03614385
v 0.01758968 -0.04207010 0.03585546
v 0.01758968 -0.02024403 0.01486122
v 0.01630948 -0.01927993 0.01306989
v 0.01758968 -0.02227970 0.01544036
v 0.01758968 -0.03318983 0.02423524
v 0.01758968 -0.04430904 0.03422591
f 1 2 7
f 1 7 11
f 1 11 13
f 1 13 8
f 1 8 3
f 1 3 4
f 1 4 5
f 1 5 6
f 1 6 2
f 2 6 5
f 2 5 10
f 2 10 12
f 2 12 7
f 3 8 14
f 3 14 19
f 3 19 18
f 3 18 17
f 3 17 15
f 3 15 9
f 3 9 4
f 4 9 16
f 4 16 10
f 4 10 5
f 7 12 11
f 8 13 14
f 9 15 16
f 10 16 17
f 10 17 11
f 10 11 12
f 11 17 18
f 11 18 13
f 13 18 19
f 13 19 14
f 15 17 16

