# https://github.com/mikedh/trimesh
v -0.04299147 -0.01481583 -0.00632643
v -0.04319784 -0.01167049 -0.00455735
v -0.04189245 -0.00821562 -0.01623615
v -0.04277295 -0.00701905 -0.01248951
v -0.04284007 -0.00837005 -0.00242674
v -0.04221548 -0.00290318 -0.00968945
v -0.04069981 -0.02111222 0.00262885
v -0.04138111 -0.01664201 0.00360660
v -0.04120900 -0.01449220 -0.00794272
v -0.04115872 -0.01242683 0.00407285
v -0.04038765 -0.00555396 -0.00324025
v -0.04074776 0.00118414 -0.01669087
v -0.04048493 -0.00219283 -0.02016447
v -0.03956187 -0.02083431 0.00114014
v -0.03791507 -0.02196475 0.01008979
v -0.03908527 -0.00927840 -0.01522312
v -0.03876107 -0.01712183 0.01044328
v -0.03776175 -0.01076406 0.00627960
v -0.03820486 -0.00151316 -0.02528246
v -0.03877267 0.00109493 -0.01242080
v -0.03832755 0.00203016 -0.02319882
v -0.03709062 -0.02489370 0.00553468
v -0.03795168 -0.02478269 0.00754463
v -0.03352782 -0.01912710 -0.00091385
v -0.03508458 -0.01530582 -0.00640032
v -0.03743143 -0.00403271 -0.02250573
v -0.03870366 -0.00129630 -0.00608862
v -0.03503273 0.00623076 -0.01850460
v -0.03836356 0.00452942 -0.02075683
v -0.03514458 -0.01542607 0.01200014
v -0.03823448 -0.00587934 0.00244692
v -0.03848239 0.00036791 0.00219444
v -0.03802988 0.00351696 -0.00500683
v -0.03786693 0.00507168 0.00405920
v -0.03712633 -0.00494703 0.00927033
v -0.03617052 -0.00259584 0.01390848
v -0.03652045 0.00448000 -0.01253564
v -0.03552857 0.01271713 -0.00671869
v -0.03605326 -0.02278673 0.00286897
v -0.03351699 -0.02075605 0.01661995
v -0.03028882 -0.01084714 -0.01237383
v -0.03379983 -0.00753659 -0.01727895
v -0.03636878 -0.00104362 -0.02648640
v -0.03538898 0.00162049 -0.02918033
v -0.03441505 0.00091432 0.01068418
v -0.03389008 0.00839054 -0.02694684
v -0.03586215 0.00952103 -0.01051753
v -0.03479898 0.00986569 -0.00039242
v -0.03360891 -0.02849964 0.01315781
v -0.03505238 0.00383624 -0.02846215
v -0.03051067 0.01032428 -0.02575272
v -0.03518076 -0.02653008 0.00746273
v -0.03486709 -0.02429894 0.00316988
v -0.03043699 -0.02757903 0.01836285
v -0.03420070 -0.01136226 0.01361200
v -0.03135981 -0.00217864 -0.02466170
v -0.03271781 -0.00359686 0.01696899
v -0.03394694 0.00174317 -0.03017678
v -0.03523180 0.00804259 0.00720716
v -0.03479995 0.01078218 0.00974390
v -0.03409281 0.01432873 -0.00052742
v -0.03417808 0.00310132 0.01300423
v -0.03211274 0.00415195 0.01937423
v -0.03270901 0.01259119 -0.01614954
v -0.03047890 0.01379635 0.00992241
v -0.03184352 0.01712820 -0.01452720
v -0.03377540 0.01689978 0.00095903
v -0.03088480 -0.02724013 0.01053920
v -0.02905374 -0.02533395 0.00556199
v -0.03194567 -0.02351218 0.00226561
v -0.03267028 -0.02148595 0.00133481
v -0.03241251 -0.00843141 0.01958267
v -0.03002517 0.01700097 -0.01210805
v -0.03113936 -0.02714980 0.00836203
v -0.03063249 -0.00150544 0.02033322
v -0.03218383 0.00352357 -0.03253580
v -0.03000316 0.00994757 -0.03142705
v -0.03048416 0.02157177 -0.00557007
v -0.03051939 -0.01570084 0.01776967
v -0.02752120 0.01519633 -0.02236780
v -0.02783354 0.02110589 -0.01137273
v -0.02591466 0.02242148 -0.00122187
v -0.02752814 -0.01788079 -0.00229145
v -0.02770983 -0.00582514 0.02060307
v -0.03059115 0.00561775 -0.03356351
v -0.02644390 -0.03134530 0.01677873
v -0.02906929 -0.02209343 0.00230136
v -0.02571072 -0.01437369 0.02496593
v -0.02829278 -0.00875953 0.02418183
v -0.02967072 -0.00617832 0.02086524
v -0.02620124 -0.00149801 0.02726317
v -0.02968418 0.00217336 -0.03240930
v -0.02845191 0.00075489 -0.02889244
v -0.02503328 0.00592684 0.02245294
v -0.02638409 -0.02573316 0.02331325
v -0.02888285 0.00401999 -0.03463188
v -0.02523029 -0.00601114 -0.01882952
v -0.02624159 0.02123020 -0.01946584
v -0.02566509 -0.01269856 -0.00945528
v -0.02716368 0.00637959 -0.03636755
v -0.02620663 0.00894296 -0.03609717
v -0.02586323 0.01350027 -0.03278042
v -0.01990916 0.01810215 0.01151293
v -0.02569765 -0.03263889 0.01969289
v -0.02632656 0.00021280 -0.03021684
v -0.02707060 0.00264145 -0.03419607
v -0.02412845 -0.02102533 0.02284710
v -0.02229328 -0.02128948 0.00264375
v -0.02455050 -0.00183413 -0.02461007
v -0.02565003 -0.02437130 0.00657044
v -0.01965526 -0.01608750 -0.00437976
v -0.01999656 -0.01288332 0.03030174
v -0.02480085 0.00527258 -0.03612008
v -0.01650459 0.01724982 -0.03141138
v -0.02112348 0.01870931 -0.02629826
v -0.02100940 0.02785241 -0.01292389
v -0.02173860 -0.02784443 0.01185378
v -0.02210189 -0.01024472 0.02728431
v -0.02301683 -0.00637856 0.02820562
v -0.02294417 0.00004746 -0.02752880
v -0.02094993 0.00081216 0.02843005
v -0.02224952 0.00874015 -0.03922920
v -0.02145265 0.02251553 -0.01947110
v -0.02114791 -0.03424416 0.02148351
v -0.02050270 -0.03246299 0.02399919
v -0.02243777 0.00206119 -0.03308087
v -0.02360910 0.00381181 -0.03543333
v -0.02047754 0.01255138 -0.03816574
v -0.01995331 -0.00729479 -0.01677147
v -0.01882958 0.02422667 -0.02401462
v -0.01952732 0.02722633 -0.01652209
v -0.01888651 0.02727429 -0.00732518
v -0.01992167 -0.00983764 -0.01376019
v -0.02138456 0.00089444 -0.03060122
v -0.02090914 0.00540944 -0.03494088
v -0.01970306 -0.03295264 0.01948943
v -0.01667889 -0.01897041 0.02914094
v -0.01763569 -0.00528532 0.03308243
v -0.01709282 -0.00092712 -0.02540086
v -0.01823916 0.00718040 -0.03704426
v -0.01943430 -0.01188562 -0.01042057
v -0.02073742 0.00343242 -0.03386231
v -0.01397544 0.02529830 0.00204365
v -0.01654723 -0.02934372 0.02826154
v -0.01527202 -0.02573628 0.02730638
v -0.01966566 0.00183054 -0.02967327
v -0.01852668 0.00952949 -0.04047962
v -0.01593920 0.01650862 -0.03774972
v -0.01879964 -0.02946874 0.01438149
v -0.01555164 -0.00912177 0.03212560
v -0.01922455 0.00358059 -0.03212430
v -0.01462020 0.00457042 -0.03309585
v -0.01441716 -0.02278833 0.00515655
v -0.01738131 -0.01038509 -0.01320231
v -0.01628552 0.01110256 -0.04160309
v -0.01318118 0.01449787 0.01923727
v -0.01500248 -0.03565031 0.02476087
v -0.01272245 -0.03200575 0.01853798
v -0.01632312 -0.03056875 0.01643949
v -0.01679437 -0.02888627 0.01550421
v -0.01429119 -0.01259100 -0.00895741
v -0.01177450 0.02592019 -0.02381076
v -0.00961878 0.03003263 -0.00928285
v -0.01281026 -0.01779974 -0.00170324
v -0.01293558 0.02396602 -0.02750741
v -0.01136222 -0.03604157 0.02442837
v -0.01297059 -0.01547551 0.03338619
v -0.00846047 0.00721007 0.02738147
v -0.01489659 0.00886399 -0.03925783
v -0.01207036 -0.03266325 0.02820529
v -0.01223560 -0.01387002 0.03264465
v -0.00881795 -0.01311121 0.03209096
v -0.00921147 -0.00320517 0.03431442
v -0.01325778 0.01456715 -0.04055767
v -0.01029053 0.02196661 0.01000683
v -0.01167834 0.03098905 -0.01838553
v -0.01527962 -0.02880184 0.01373626
v -0.00969080 -0.00856468 -0.01425409
v -0.01226731 -0.00506945 -0.01932071
v -0.00745663 -0.02965842 0.03046292
v -0.01155051 0.01151968 -0.04276269
v -0.00822708 -0.02655691 0.01075162
v -0.00847000 0.00984776 -0.04025542
v -0.00895669 0.01833427 -0.03644714
v -0.00797541 -0.00708874 0.03639491
v -0.00570761 -0.02831711 0.01423848
v -0.00939258 -0.00019251 -0.02606176
v -0.00924890 0.01292418 -0.04308956
v -0.00581653 -0.01950397 0.03292872
v -0.00687154 -0.01371926 -0.00689538
v -0.00597268 -0.01125858 0.03448294
v -0.00575806 0.01833600 -0.03973437
v -0.00098343 0.02314232 -0.03083516
v -0.00546165 -0.03375005 0.02145421
v -0.00304986 -0.02544996 0.02998816
v -0.00562848 -0.02261181 0.00544005
v -0.00628566 -0.01854499 -0.00022934
v -0.00352972 -0.00454880 -0.01955702
v -0.00597171 0.01540739 -0.04201899
v -0.00675404 -0.03682011 0.02675967
v -0.00592705 -0.01531827 0.03472048
v -0.00214872 0.01866162 0.01648524
v -0.00485468 -0.03345474 0.02945878
v -0.00182530 0.02800991 -0.02675694
v -0.00372559 0.02707513 -0.02332500
v -0.00348765 0.03233985 -0.01868391
v -0.00428632 0.00648525 -0.03521367
v 0.00153872 0.02637627 0.00394387
v -0.00404291 0.03020227 -0.02117604
v -0.00535172 -0.03009548 0.01642300
v -0.00152256 -0.01667484 0.03525950
v -0.00381534 0.01248547 -0.04367770
v -0.00061023 -0.01448361 0.03420571
v 0.00081476 0.03047372 -0.00727539
v -0.00391894 0.00214250 -0.02900944
v -0.00105796 0.01369318 -0.04374662
v 0.00203263 -0.01586275 -0.00343743
v -0.00114143 -0.01086421 -0.01060098
v 0.00022662 -0.00819135 0.03697543
v 0.00025770 -0.03015373 0.01644764
v 0.00046832 -0.02826913 0.01416224
v 0.00056556 0.01019722 -0.04024736
v 0.00136808 -0.03659916 0.02581551
v 0.00058213 -0.03697496 0.02733925
v 0.00207776 -0.03371850 0.02184831
v 0.00067545 -0.03095201 0.01903221
v 0.00168322 0.00580312 -0.03387689
v 0.00144944 0.00371877 0.03099021
v 0.00238003 -0.02008310 0.03303755
v 0.00205271 -0.02004678 0.00231969
v 0.00521604 -0.00446781 0.03590150
v 0.00312951 -0.00268414 -0.02184718
v 0.00481456 0.00271308 -0.02931767
v 0.00178656 0.03219051 -0.01990460
v 0.00362717 -0.03035745 0.03142397
v 0.00171961 0.01924993 -0.03828415
v 0.00474864 0.01963236 -0.03398344
v 0.00575161 0.02914875 -0.02164615
v 0.00277360 -0.02516621 0.00928467
v 0.00553137 -0.00854166 -0.01348314
v 0.00340230 0.01750133 -0.04093961
v 0.00717326 0.02671275 -0.02385737
v 0.00404419 -0.03537392 0.02844739
v 0.00746713 0.01284467 0.02288002
v 0.00330848 0.03234895 -0.01676179
v 0.01001428 -0.02734291 0.02971602
v 0.00564793 0.01260290 -0.04327753
v 0.00733297 0.02059441 0.01355658
v 0.00877346 -0.01580915 0.03469599
v 0.00773141 -0.01298118 -0.00713367
v 0.00649591 -0.01107613 0.03443140
v 0.00590983 0.01027533 -0.04004934
v 0.00511298 0.01344081 -0.04359903
v 0.00911734 0.01878464 -0.03876760
v 0.00513072 -0.02865849 0.01551186
v 0.00574146 -0.03688792 0.02700886
v 0.00946186 -0.03246740 0.02946142
v 0.00814659 -0.01942153 0.00171834
v 0.00607970 -0.01365859 0.03358959
v 0.01187915 0.00231909 0.03098741
v 0.00788261 0.02758975 -0.02634733
v 0.00864959 -0.02774087 0.01336172
v 0.01069809 -0.00632281 0.03594924
v 0.01207396 0.02403327 -0.02782235
v 0.01110881 0.03097490 -0.01220996
v 0.01315198 -0.03423713 0.02317202
v 0.00766914 -0.02968624 0.01645186
v 0.01000550 -0.00076387 -0.02411242
v 0.01191582 0.02852398 -0.00345675
v 0.01207310 -0.02212273 0.02955551
v 0.00780176 0.01416124 -0.04272246
v 0.01071139 0.03146591 -0.01831991
v 0.00914965 -0.03654209 0.02631559
v 0.01454781 -0.01648075 -0.00188237
v 0.01204924 -0.00429814 -0.01904731
v 0.01182916 0.00688677 -0.03487680
v 0.01234434 -0.02179249 0.00525114
v 0.00923917 -0.03639625 0.02686656
v 0.01279526 -0.03101599 0.01857344
v 0.01372791 -0.02902569 0.03001668
v 0.01386533 -0.01237760 0.03209596
v 0.01265041 0.01517747 -0.04059589
v 0.01325741 0.02443655 0.00563564
v 0.01593515 0.00133101 -0.02670808
v 0.01028235 0.01200548 -0.04225871
v 0.01357563 -0.01041221 -0.01039977
v 0.01188776 0.01296375 -0.04246205
v 0.01812088 -0.02654209 0.01204848
v 0.01723906 -0.00796460 0.03170417
v 0.01496558 0.02783747 -0.01904671
v 0.01182891 -0.03595842 0.02643450
v 0.01459296 0.01046354 -0.03992781
v 0.01663906 0.02601799 -0.02389713
v 0.01817147 0.01107385 -0.04034780
v 0.01531514 0.01969545 0.01288403
v 0.01633795 -0.03501995 0.02460017
v 0.01879338 -0.01684362 0.02950671
v 0.01479212 -0.03527333 0.02584135
v 0.02226236 0.01257495 0.01892447
v 0.02055726 0.01692022 -0.02942114
v 0.01720310 0.03015213 -0.01548074
v 0.02010469 -0.02137009 0.00506247
v 0.01800415 -0.01354283 0.03208591
v 0.01678256 0.01781695 -0.03618736
v 0.01678954 0.02467128 -0.02021498
v 0.02073824 0.00717921 -0.03473580
v 0.02090195 0.00530170 0.02631904
v 0.01900224 -0.03073849 0.02686694
v 0.01904039 -0.00672529 -0.01531350
v 0.02068758 -0.00243152 0.03171564
v 0.02323161 0.02008007 -0.02349243
v 0.02033162 -0.01303665 -0.00630935
v 0.01976296 0.01494817 -0.03734022
v 0.02431058 0.02391268 0.00001315
v 0.02377444 0.02682472 -0.00770498
v 0.02001177 -0.03394884 0.02403826
v 0.01960934 -0.02452296 0.02679242
v 0.02348908 -0.00791043 0.02637125
v 0.01992131 -0.00889405 -0.01178011
v 0.02065555 -0.00209913 -0.02156140
v 0.02129496 -0.03281462 0.02155404
v 0.02307005 -0.02990180 0.01760493
v 0.02108070 -0.02032305 0.02590783
v 0.02221142 0.02402786 -0.01952836
v 0.01992030 -0.01032589 -0.01002276
v 0.02640654 0.01772741 0.01001265
v 0.02072112 0.02602857 -0.01629388
v 0.02134658 -0.02731222 0.02744004
v 0.02421180 -0.01585199 -0.00229428
v 0.02241756 0.00295304 -0.02877288
v 0.02349225 0.02160085 -0.01577522
v 0.02432660 0.02716886 -0.01082648
v 0.02064520 -0.00897012 -0.01031944
v 0.02472870 -0.00418548 0.02726899
v 0.02247237 0.01083173 -0.03866940
v 0.02411891 0.01563779 -0.03346145
v 0.02467027 -0.02889954 0.02429458
v 0.02239523 -0.00964841 -0.01080054
v 0.02782423 0.02154791 -0.01719145
v 0.02440495 -0.03233583 0.02220504
v 0.02708421 -0.00966820 -0.01068454
v 0.02800316 -0.00445530 -0.01790737
v 0.02344831 0.00951952 -0.03803819
v 0.02598022 0.02316284 -0.01225399
v 0.02658963 -0.02515730 0.02474121
v 0.02521340 -0.00019449 -0.02420863
v 0.02555706 0.00515383 -0.03189733
v 0.02769641 0.01153037 -0.03364786
v 0.02691865 -0.02025306 0.02249656
v 0.02721171 -0.01894151 0.00224913
v 0.02473889 -0.02415917 0.00910183
v 0.02869357 -0.01140707 0.02373600
v 0.02894706 -0.00689132 0.02468990
v 0.02543468 0.00819882 -0.03612968
v 0.02450418 0.02022994 -0.01368323
v 0.02450926 0.02009010 -0.01360504
v 0.02443038 0.02054551 -0.01355133
v 0.02443605 0.02093403 -0.01357461
v 0.02676752 0.02161440 -0.01572433
v 0.02771865 -0.02612103 0.01199925
v 0.02600051 -0.02251259 0.00715921
v 0.02754795 0.00092523 -0.02862982
v 0.02713212 0.00348687 -0.03176643
v 0.02778646 0.00871180 -0.03559848
v 0.02456880 0.02034035 -0.01358421
v 0.02763534 -0.03108251 0.01971083
v 0.02689228 -0.02487592 0.00852516
v 0.02981501 -0.02689652 0.01127763
v 0.02720213 0.00094173 0.02675345
v 0.03034015 0.01242651 -0.02291711
v 0.02796559 -0.02291139 0.00607344
v 0.02999199 -0.00025947 0.02178677
v 0.02798310 -0.00031674 -0.02515433
v 0.03011365 0.00652625 -0.03346990
v 0.02757608 0.01990002 -0.01281914
v 0.02920875 -0.02987001 0.01959568
v 0.02861998 -0.02083261 0.00514491
v 0.03170881 -0.00225016 0.01900216
v 0.02896740 0.02375872 -0.00675804
v 0.03163597 -0.02752392 0.01439110
v 0.03005895 -0.02554842 0.02147203
v 0.03120513 0.01263329 -0.02836718
v 0.02800770 0.01633574 -0.01045646
v 0.02800802 0.01631987 -0.01036174
v 0.02790985 0.01679877 -0.01039390
v 0.02790947 0.01675261 -0.01024994
v 0.02787292 0.01720660 -0.01024736
v 0.03099522 -0.02461352 0.00737058
v 0.03176305 -0.01456385 0.01790395
v 0.03104186 -0.00152933 -0.02182993
v 0.03196526 0.00369271 -0.03143447
v 0.03050872 0.00418146 0.02241981
v 0.03190945 0.01004253 0.01606355
v 0.02810819 0.01635653 -0.01040564
v 0.03244815 0.01459920 -0.01548944
v 0.02799739 0.01702401 -0.01020815
v 0.02971531 0.02030986 -0.00831921
v 0.03235508 -0.01380834 -0.00460550
v 0.03210253 0.01589698 -0.00694223
v 0.03233818 0.01823101 -0.01079036
v 0.03455725 -0.02396234 0.01682921
v 0.03293171 -0.02130532 0.02007192
v 0.03230783 -0.02146036 0.00518437
v 0.03589183 -0.01952879 0.00368939
v 0.03422900 -0.01819779 0.01739842
v 0.03162922 0.00016449 -0.02439193
v 0.03185120 0.00086733 -0.02806905
v 0.03347733 0.00563062 -0.03124893
v 0.03211291 0.02027885 0.00018185
v 0.03158111 -0.02886723 0.01680893
v 0.03364607 0.01586409 -0.00016295
v 0.03378913 -0.00789539 0.01761655
v 0.03234173 0.00142898 0.01651362
v 0.03241715 0.00156067 0.01242996
v 0.03262889 0.00380132 0.00820445
v 0.03200901 0.00627969 0.00535537
v 0.03299260 0.00321308 0.01174369
v 0.03501789 0.00686298 -0.02804949
v 0.03525387 -0.02570719 0.00984986
v 0.03232902 0.00225101 0.01318180
v 0.03333715 0.00405939 0.01039626
v 0.03336800 0.00746668 0.00588416
v 0.03436839 -0.02711797 0.01448267
v 0.03563471 0.00017470 -0.02398364
v 0.03308938 0.00258847 0.01182832
v 0.03271154 0.00233826 0.01290059
v 0.03301110 0.00254741 0.01374245
v 0.03280561 0.00269768 0.01311807
v 0.03381583 0.00294168 0.01184040
v 0.03289926 0.00577501 0.01788428
v 0.03456124 0.01371374 0.00871144
v 0.04010619 -0.01158453 -0.00728686
v 0.03755949 -0.00487119 -0.01676676
v 0.03436934 0.00214132 -0.02747539
v 0.03377836 0.00215140 0.01316624
v 0.03446429 0.00598952 0.01117406
v 0.03454374 0.00769652 0.00454864
v 0.03543205 0.00981353 0.00199101
v 0.03545963 -0.02333021 0.00704621
v 0.03733960 -0.01305536 0.01165917
v 0.03446704 0.00697556 0.00626742
v 0.03713568 0.00850324 -0.02202878
v 0.03558502 0.01385063 -0.00433089
v 0.03670700 -0.00937046 0.01056458
v 0.03708171 -0.00362657 0.01109874
v 0.03648560 0.00102471 0.01379613
v 0.03527353 0.00566352 0.00807064
v 0.03507118 0.00922307 0.00636988
v 0.03496424 0.00832146 0.00541435
v 0.03673735 0.01065040 -0.00732805
v 0.03756802 0.00230923 -0.02673415
v 0.03694815 0.00693828 -0.01643648
v 0.03723554 0.00595813 -0.01041653
v 0.03794365 -0.02426004 0.01095505
v 0.03674315 -0.01905068 0.01620806
v 0.03703638 0.00718616 0.00558603
v 0.03765259 -0.02201845 0.01298491
v 0.03944467 -0.01570757 -0.00145386
v 0.03895935 0.00502352 -0.02182925
v 0.03811121 0.00950967 0.00039021
v 0.03954414 -0.01488189 0.01175290
v 0.03923690 -0.00002895 -0.02362692
v 0.03967002 0.00268676 -0.01024916
v 0.03866553 0.00390802 0.00136802
v 0.03926789 -0.02259914 0.00784127
v 0.04010675 -0.01827077 0.00981272
v 0.03874072 -0.00406465 0.00390071
v 0.04195618 -0.00630258 -0.01458859
v 0.03819897 0.00346108 0.00878594
v 0.03919366 0.00042959 -0.00299042
v 0.04082306 0.00438820 -0.01598308
v 0.04118668 -0.00533506 0.00060618
v 0.04097010 -0.00091650 -0.02146888
v 0.04151075 -0.01953243 0.00362206
v 0.04152960 -0.01994208 0.00513992
v 0.04146695 -0.01371052 0.00852038
v 0.04253028 -0.01076612 0.00545357
v 0.04191425 -0.00342136 -0.01876858
v 0.04198490 0.00047400 -0.01664979
v 0.04297304 -0.00109647 -0.00734178
v 0.04252658 -0.01563245 0.00411850
v 0.04248556 -0.01447711 -0.00306324
v 0.04319961 -0.00489872 -0.01563396
v 0.04275109 -0.01698346 0.00039473
v 0.04286505 -0.01744972 0.00198514
v 0.04291134 0.00058914 -0.01077391
v 0.04390520 -0.01130365 -0.00064594
v 0.04366080 -0.00425196 -0.01225479
v 0.04381806 -0.01470238 -0.00188973
v 0.04403926 -0.01275493 -0.00541031
v 0.04395119 -0.00887158 -0.01086772
v 0.04396204 -0.00519947 -0.00292885
v 0.04375799 -0.00233090 -0.00892740
v 0.04440668 -0.01016652 -0.00788874
v 0.04431160 -0.00832783 -0.00589769
f 114 102 51
f 460 456 469
f 473 478 462
f 374 391 363
f 65 63 94
f 227 222 252
f 432 341 433
f 101 85 77
f 239 196 230
f 451 434 391
f 408 364 348
f 307 260 310
f 24 9 25
f 259 251 213
f 317 280 328
f 6 12 4
f 456 441 447
f 121 91 138
f 218 198 240
f 178 129 179
f 72 55 79
f 40 17 15
f 143 132 82
f 302 274 329
f 340 308 316
f 188 181 155
f 489 432 490
f 152 140 169
f 92 76 96
f 433 341 342
f 43 58 56
f 150 172 191
f 163 176 116
f 427 414 435
f 412 389 444
f 193 114 165
f 209 205 162
f 434 407 391
f 422 416 438
f 373 346 362
f 111 161 164
f 485 484 489
f 267 226 220
f 477 487 492
f 483 468 478
f 130 115 80
f 211 189 229
f 160 149 177
f 67 61 60
f 47 37 33
f 201 172 171
f 151 135 152
f 113 100 122
f 173 185 219
f 348 364 335
f 381 337 376
f 342 309 320
f 51 102 46
f 286 240 275
f 196 197 230
f 69 52 53
f 472 480 463
f 257 298 308
f 102 77 46
f 351 288 302
f 93 109 56
f 263 251 289
f 448 441 449
f 34 33 32
f 213 172 201
f 120 134 146
f 489 490 494
f 171 172 112
f 187 139 152
f 250 218 240
f 162 123 131
f 38 47 33
f 408 391 374
f 437 416 415
f 233 227 276
f 409 431 411
f 293 264 261
f 374 347 354
f 310 260 263
f 373 362 407
f 448 449 438
f 92 58 76
f 330 363 362
f 36 35 55
f 244 260 307
f 180 203 235
f 461 466 476
f 446 429 435
f 241 216 199
f 160 177 159
f 305 293 242
f 163 116 132
f 477 481 487
f 86 104 49
f 466 454 475
f 456 460 438
f 342 346 390
f 296 273 266
f 492 480 472
f 329 274 312
f 287 294 285
f 330 306 347
f 279 262 288
f 345 337 381
f 348 313 336
f 442 382 370
f 333 325 319
f 55 18 30
f 290 305 242
f 240 198 232
f 162 165 130
f 361 371 367
f 381 401 402
f 85 76 50
f 205 204 162
f 195 235 246
f 242 204 205
f 159 177 158
f 83 24 25
f 189 137 195
f 91 75 84
f 87 70 71
f 282 271 241
f 431 448 411
f 253 247 216
f 65 60 63
f 12 29 21
f 300 304 237
f 41 16 42
f 82 67 65
f 494 490 491
f 272 238 234
f 235 243 257
f 161 141 154
f 33 37 27
f 83 99 111
f 20 28 12
f 454 465 475
f 417 414 415
f 258 239 230
f 248 208 202
f 350 329 398
f 223 194 225
f 253 216 241
f 361 377 371
f 401 454 457
f 262 221 239
f 36 55 72
f 293 311 264
f 246 235 280
f 244 168 228
f 313 335 294
f 382 348 336
f 57 45 36
f 486 493 488
f 471 442 452
f 170 157 200
f 474 404 458
f 96 76 85
f 8 7 15
f 303 297 352
f 200 166 223
f 368 367 388
f 227 207 222
f 362 391 407
f 111 99 141
f 51 29 28
f 454 423 419
f 289 251 281
f 345 328 337
f 38 66 47
f 194 166 158
f 198 179 187
f 406 407 434
f 393 431 326
f 338 319 341
f 413 435 420
f 139 146 152
f 392 372 430
f 264 237 193
f 10 8 17
f 396 394 386
f 121 94 91
f 465 439 404
f 488 483 479
f 133 99 129
f 353 303 352
f 41 25 16
f 27 11 31
f 11 10 18
f 361 302 350
f 277 258 274
f 262 255 221
f 233 215 227
f 372 378 413
f 313 294 282
f 26 3 19
f 480 492 493
f 292 276 252
f 169 147 155
f 308 298 316
f 164 161 190
f 111 141 161
f 156 94 168
f 363 330 347
f 446 445 469
f 410 322 380
f 353 412 446
f 118 89 112
f 155 147 122
f 249 270 297
f 461 477 440
f 418 451 408
f 4 3 1
f 469 456 446
f 332 327 301
f 266 273 223
f 298 291 296
f 183 181 212
f 457 454 466
f 202 208 175
f 195 145 180
f 244 248 202
f 188 212 181
f 352 349 389
f 280 257 308
f 168 121 173
f 388 367 371
f 401 423 454
f 334 289 318
f 341 309 342
f 461 476 477
f 157 125 124
f 403 388 371
f 274 250 286
f 81 73 61
f 5 2 8
f 35 18 55
f 108 111 164
f 219 191 213
f 22 7 14
f 224 200 223
f 244 228 260
f 195 180 235
f 431 409 326
f 210 158 186
f 463 471 452
f 106 92 96
f 165 115 130
f 178 154 129
f 132 116 82
f 460 464 450
f 255 267 220
f 495 488 493
f 396 386 387
f 275 232 268
f 15 7 23
f 11 6 5
f 278 256 273
f 86 68 117
f 324 305 331
f 149 136 117
f 339 395 311
f 99 25 41
f 35 31 18
f 243 224 256
f 117 68 110
f 350 398 404
f 395 452 370
f 88 107 137
f 70 53 39
f 294 287 282
f 21 50 44
f 460 450 443
f 447 436 429
f 142 127 113
f 354 306 343
f 73 98 66
f 288 277 302
f 450 395 400
f 65 67 60
f 148 102 114
f 408 374 364
f 270 229 195
f 22 14 39
f 488 495 494
f 26 19 43
f 230 197 217
f 468 433 478
f 216 188 199
f 425 420 429
f 463 486 471
f 59 61 48
f 11 5 10
f 302 277 274
f 112 88 137
f 71 39 24
f 352 323 349
f 490 432 491
f 166 200 157
f 59 45 62
f 427 435 428
f 299 248 244
f 218 190 178
f 144 95 125
f 56 58 93
f 208 163 143
f 402 349 345
f 141 99 133
f 174 155 128
f 447 446 456
f 29 46 21
f 317 246 280
f 436 447 448
f 145 144 180
f 166 136 158
f 385 383 394
f 23 7 22
f 89 72 88
f 395 370 311
f 396 387 394
f 397 399 375
f 420 417 429
f 87 71 24
f 337 308 340
f 288 239 277
f 60 62 63
f 329 312 341
f 433 390 424
f 121 138 173
f 71 70 39
f 198 215 233
f 309 275 320
f 393 392 430
f 136 86 117
f 327 331 290
f 113 106 96
f 234 238 209
f 470 472 463
f 202 168 244
f 320 284 330
f 228 173 231
f 265 245 214
f 287 247 271
f 12 21 13
f 446 435 413
f 68 74 69
f 424 406 434
f 129 41 97
f 380 322 360
f 435 414 420
f 194 158 210
f 390 373 406
f 345 317 328
f 62 45 75
f 46 77 50
f 234 209 206
f 312 274 286
f 369 372 392
f 206 209 176
f 293 339 311
f 263 219 251
f 389 440 444
f 360 288 351
f 195 137 145
f 82 78 67
f 170 125 157
f 284 306 330
f 139 120 146
f 258 217 274
f 112 172 118
f 298 296 316
f 353 318 303
f 440 389 405
f 150 138 119
f 177 149 117
f 301 290 272
f 84 90 89
f 376 366 410
f 394 383 384
f 449 422 438
f 304 254 237
f 450 453 395
f 284 233 276
f 439 388 403
f 56 26 43
f 228 168 173
f 403 377 404
f 452 453 463
f 484 458 482
f 313 348 335
f 206 176 163
f 406 373 407
f 484 482 489
f 465 404 474
f 467 444 472
f 204 165 162
f 311 370 300
f 152 135 140
f 375 331 344
f 369 310 334
f 382 336 300
f 1 7 8
f 20 12 6
f 221 220 186
f 352 389 412
f 369 334 372
f 34 38 33
f 202 156 168
f 213 201 211
f 141 133 154
f 320 330 346
f 436 421 429
f 272 290 238
f 225 226 267
f 60 59 62
f 267 255 262
f 479 473 459
f 329 341 398
f 66 80 64
f 108 24 83
f 166 124 136
f 2 4 1
f 203 200 224
f 261 204 242
f 441 437 415
f 290 242 238
f 310 263 289
f 192 241 199
f 492 495 493
f 476 466 481
f 152 183 207
f 215 187 207
f 93 58 92
f 357 355 358
f 351 302 361
f 171 112 167
f 91 84 119
f 301 327 290
f 260 231 263
f 221 186 182
f 144 125 170
f 252 247 285
f 52 23 22
f 312 286 325
f 402 345 381
f 237 184 193
f 275 240 232
f 277 239 258
f 161 154 178
f 435 425 426
f 34 32 35
f 421 415 425
f 186 158 182
f 448 422 441
f 179 139 187
f 481 485 489
f 68 69 110
f 279 225 267
f 214 245 163
f 336 304 300
f 136 124 86
f 37 28 20
f 359 324 331
f 216 247 212
f 198 187 215
f 303 249 297
f 261 264 193
f 238 205 209
f 307 310 369
f 223 166 194
f 472 477 492
f 409 379 315
f 125 54 104
f 353 378 318
f 269 214 208
f 39 14 24
f 192 199 174
f 464 453 450
f 260 228 231
f 2 6 4
f 427 428 417
f 120 93 105
f 446 412 445
f 320 268 284
f 40 30 17
f 310 289 334
f 15 49 54
f 235 257 280
f 60 61 59
f 306 292 294
f 464 445 467
f 446 378 353
f 365 357 358
f 386 383 385
f 251 259 281
f 151 142 135
f 433 424 462
f 492 487 495
f 352 412 353
f 486 488 479
f 319 286 309
f 485 474 484
f 116 81 78
f 199 188 174
f 470 463 453
f 185 150 191
f 140 122 147
f 380 360 368
f 186 220 210
f 47 64 28
f 326 283 295
f 74 52 69
f 35 32 31
f 47 28 37
f 40 15 54
f 449 437 422
f 326 314 283
f 420 414 417
f 167 137 189
f 30 40 79
f 17 8 15
f 110 69 87
f 82 116 78
f 158 136 159
f 419 388 439
f 63 75 91
f 73 66 38
f 102 101 77
f 103 143 82
f 192 174 148
f 340 321 366
f 360 367 368
f 376 410 423
f 128 122 101
f 157 124 166
f 14 9 24
f 293 261 242
f 326 409 314
f 136 149 159
f 460 443 438
f 108 83 111
f 100 85 101
f 173 138 185
f 410 380 423
f 315 379 332
f 180 170 203
f 122 100 101
f 91 119 138
f 469 445 464
f 63 62 75
f 107 95 145
f 151 134 142
f 399 400 375
f 223 225 266
f 184 192 148
f 446 413 378
f 362 363 391
f 190 161 178
f 367 351 361
f 13 21 19
f 249 281 259
f 304 282 254
f 95 40 54
f 286 250 240
f 306 276 292
f 99 41 129
f 315 332 301
f 425 415 414
f 382 300 370
f 66 64 47
f 25 9 16
f 474 458 484
f 419 368 388
f 39 53 22
f 182 153 196
f 221 182 239
f 176 162 131
f 139 109 120
f 400 359 375
f 201 167 211
f 112 89 88
f 14 1 9
f 36 34 35
f 196 164 197
f 417 415 416
f 75 45 84
f 51 46 29
f 268 232 233
f 43 19 58
f 488 491 483
f 131 123 81
f 168 94 121
f 427 420 426
f 475 465 474
f 242 205 238
f 13 19 3
f 27 37 20
f 88 79 107
f 284 268 233
f 374 363 347
f 9 3 16
f 447 421 422
f 462 424 451
f 401 376 423
f 188 155 174
f 257 291 298
f 126 106 127
f 243 203 224
f 67 78 61
f 328 308 337
f 251 219 213
f 276 227 252
f 455 466 461
f 159 149 160
f 102 148 128
f 418 348 382
f 208 143 175
f 153 108 164
f 442 418 382
f 254 241 192
f 211 167 189
f 119 84 118
f 445 444 467
f 254 282 241
f 322 366 321
f 126 105 106
f 20 6 11
f 491 468 483
f 18 10 30
f 115 114 51
f 471 459 442
f 116 131 81
f 118 84 89
f 285 247 287
f 338 325 333
f 245 206 163
f 483 478 473
f 150 118 172
f 44 19 21
f 421 441 415
f 495 489 494
f 427 426 414
f 424 434 451
f 123 130 98
f 12 13 4
f 158 177 182
f 135 142 113
f 365 358 355
f 393 326 299
f 394 384 386
f 169 155 181
f 266 225 279
f 332 344 327
f 402 401 455
f 480 493 486
f 79 55 30
f 292 252 285
f 366 322 410
f 124 104 86
f 202 175 156
f 443 400 399
f 443 450 400
f 456 438 437
f 283 208 248
f 342 320 346
f 42 16 26
f 413 420 427
f 102 128 101
f 314 269 283
f 430 372 413
f 436 417 421
f 69 53 70
f 52 22 53
f 258 230 217
f 292 285 294
f 59 48 45
f 110 87 108
f 30 10 17
f 454 419 465
f 182 117 153
f 314 315 269
f 81 123 73
f 279 267 262
f 175 143 103
f 405 455 461
f 155 122 128
f 239 182 196
f 494 491 488
f 372 334 378
f 176 131 116
f 84 45 57
f 150 119 118
f 191 172 213
f 393 430 431
f 265 272 245
f 296 291 273
f 257 278 291
f 152 169 183
f 261 193 204
f 226 194 210
f 435 426 428
f 299 295 248
f 236 254 192
f 429 417 435
f 322 288 360
f 256 223 273
f 453 452 395
f 412 444 445
f 283 269 208
f 436 448 431
f 241 271 253
f 16 3 26
f 417 425 435
f 146 134 151
f 249 229 270
f 299 326 295
f 409 411 379
f 464 467 470
f 433 462 478
f 448 438 411
f 125 104 124
f 148 174 128
f 364 343 335
f 82 65 103
f 274 217 250
f 232 198 233
f 387 386 385
f 338 333 319
f 137 107 145
f 312 325 338
f 278 243 256
f 448 447 422
f 156 103 94
f 255 220 221
f 307 299 244
f 211 229 249
f 217 197 190
f 100 96 85
f 374 354 364
f 398 341 432
f 486 479 471
f 357 356 355
f 439 403 404
f 41 42 97
f 284 276 306
f 48 34 45
f 197 164 190
f 452 442 370
f 344 331 327
f 97 109 139
f 8 2 1
f 152 146 151
f 461 440 405
f 379 411 397
f 98 80 66
f 341 312 338
f 145 95 144
f 387 385 394
f 275 268 320
f 459 418 442
f 84 57 90
f 14 7 1
f 271 247 253
f 365 355 356
f 460 469 464
f 339 359 400
f 90 57 36
f 208 214 163
f 360 351 367
f 45 34 36
f 377 403 371
f 130 80 98
f 10 5 8
f 76 58 44
f 303 318 281
f 354 343 364
f 404 398 458
f 78 81 61
f 249 213 211
f 31 11 18
f 209 162 176
f 117 108 153
f 269 265 214
f 93 92 105
f 227 215 207
f 456 437 449
f 322 266 279
f 229 189 195
f 319 309 341
f 178 179 198
f 476 481 477
f 419 439 465
f 40 95 107
f 236 192 184
f 489 482 432
f 325 286 319
f 427 417 436
f 397 344 379
f 184 148 114
f 315 301 265
f 380 368 419
f 400 395 339
f 361 350 377
f 411 399 397
f 402 455 405
f 249 259 213
f 409 315 314
f 379 344 332
f 187 152 207
f 309 286 275
f 397 375 344
f 135 113 140
f 401 381 376
f 323 270 317
f 337 340 376
f 61 73 48
f 316 296 321
f 262 239 288
f 245 234 206
f 455 457 466
f 134 126 142
f 140 113 122
f 142 126 127
f 117 110 108
f 226 210 220
f 362 346 330
f 27 20 11
f 218 178 198
f 9 1 3
f 459 451 418
f 352 297 323
f 193 165 204
f 32 27 31
f 430 413 436
f 482 458 432
f 432 468 491
f 389 349 405
f 257 243 278
f 6 2 5
f 73 38 48
f 54 49 104
f 179 129 139
f 451 391 408
f 13 3 4
f 307 369 392
f 127 106 113
f 231 173 219
f 183 169 181
f 438 443 399
f 15 23 49
f 481 475 474
f 270 195 246
f 336 313 304
f 324 339 293
f 225 194 226
f 95 54 125
f 97 56 109
f 180 144 170
f 481 489 487
f 390 346 373
f 481 474 485
f 193 184 114
f 421 417 416
f 134 105 126
f 323 317 349
f 113 96 100
f 302 329 350
f 80 115 51
f 331 305 290
f 64 80 28
f 304 313 282
f 237 254 236
f 473 462 451
f 49 52 68
f 459 473 451
f 120 105 134
f 428 426 420
f 72 79 88
f 203 170 200
f 291 278 273
f 69 70 87
f 467 472 470
f 438 416 437
f 42 56 97
f 77 85 50
f 441 422 437
f 182 177 117
f 235 203 243
f 300 237 264
f 163 132 143
f 222 183 212
f 32 33 27
f 432 433 468
f 301 272 265
f 456 449 441
f 334 318 378
f 433 342 390
f 365 356 357
f 252 222 247
f 322 279 288
f 386 384 383
f 311 300 264
f 68 52 74
f 107 79 40
f 201 171 167
f 421 416 422
f 429 421 425
f 440 477 472
f 299 392 393
f 222 212 247
f 89 90 36
f 281 249 303
f 108 87 24
f 340 366 376
f 94 103 65
f 269 315 265
f 426 425 414
f 480 486 463
f 162 130 123
f 237 236 184
f 123 98 73
f 349 317 345
f 402 405 349
f 377 350 404
f 335 343 294
f 324 293 305
f 154 133 129
f 156 175 103
f 282 287 271
f 28 29 12
f 328 280 308
f 431 430 436
f 83 25 99
f 321 266 322
f 392 299 307
f 289 281 318
f 36 72 89
f 86 49 68
f 216 212 188
f 46 50 21
f 207 183 222
f 458 398 432
f 217 190 218
f 401 457 455
f 306 294 343
f 428 420 425
f 423 380 419
f 481 466 475
f 471 479 459
f 339 324 359
f 411 438 399
f 48 38 34
f 50 76 44
f 347 306 354
f 270 246 317
f 447 441 421
f 165 114 115
f 418 408 348
f 42 26 56
f 444 440 472
f 340 316 321
f 49 23 52
f 129 97 139
f 446 447 429
f 464 470 453
f 217 218 250
f 219 185 191
f 256 224 223
f 167 112 137
f 295 283 248
f 94 63 91
f 297 270 323
f 138 150 185
f 296 266 321
f 375 359 331
f 413 427 436
f 105 92 106
f 487 489 495
f 272 234 245
f 231 219 263
f 417 428 425
f 44 58 19
f 424 390 406
f 80 51 28
f 483 473 479
f 120 109 93
f 169 140 147
f 153 164 196

