# https://github.com/mikedh/trimesh
v -0.09003043 -0.05252903 0.08387114
v -0.05717797 -0.03804525 0.08387114
v -0.02715247 -0.05252903 0.08387114
v -0.13406783 -0.05252903 0.11019894
v -0.05454416 -0.03688711 0.08387114
v -0.02685397 -0.05228990 0.08387114
v 0.04531257 -0.02886454 0.10901566
v -0.02664327 -0.05252903 0.08417928
v -0.13406783 -0.05252903 0.13372877
v -0.13406783 -0.02886923 0.15003574
v -0.11603497 -0.00462801 0.17514327
v 0.01119588 -0.00462801 0.09205544
v -0.05229663 -0.03593528 0.08387114
v 0.00069573 -0.02886923 0.08387114
v 0.04118626 -0.00504062 0.09205544
v 0.04531257 -0.00462801 0.09443431
v 0.04531257 -0.02886923 0.11750810
v 0.00726272 -0.05252903 0.10977986
v 0.00722760 -0.05252903 0.10572469
v -0.13053852 -0.05252903 0.13335900
v -0.13406783 -0.05018462 0.13785790
v -0.13406783 -0.02886923 0.17270277
v -0.11603497 -0.00462801 0.20778184
v 0.04157255 -0.00462801 0.09205544
v -0.03398284 -0.02886923 0.08387114
v -0.05155917 -0.03563989 0.08387114
v 0.04531257 -0.00462801 0.11277501
v 0.00311885 -0.00462801 0.16034006
v 0.00064306 -0.00462801 0.16255869
v -0.00151667 -0.00462801 0.16406243
v -0.00181517 -0.00462801 0.16423500
v 0.00726272 -0.05252903 0.11560994
v 0.04531257 -0.00684113 0.11326804
v 0.04367960 -0.00462801 0.11480876
v -0.11700071 -0.03519914 0.16232450
v -0.10346290 -0.05252903 0.13042548
v -0.13406783 -0.04838411 0.14100097
v -0.13159204 -0.04528480 0.14617777
v -0.13406783 -0.02976948 0.17127298
v -0.11529750 -0.00916679 0.20470041
v -0.11603497 -0.00967787 0.20384993
v -0.11603497 -0.00616125 0.20752299
v -0.11498144 -0.00489527 0.20935954
v -0.11498144 -0.00462801 0.20935954
v 0.04531257 -0.00471241 0.11279966
v -0.01117399 -0.00462801 0.16851202
v -0.04869709 -0.00462801 0.18562014
v -0.05090949 -0.00462801 0.18661854
v -0.05136602 -0.00471710 0.18672948
v -0.10743117 -0.00462801 0.20915000
v -0.10927485 -0.00492340 0.20948279
v -0.11463027 -0.00916679 0.20470041
v -0.11247054 -0.02793615 0.17428046
v -0.11247054 -0.02886923 0.17273974
v -0.11248810 -0.03001330 0.17084159
v -0.11248810 -0.03150903 0.16827784
v -0.11248810 -0.03280315 0.16603455
v -0.10346290 -0.04923748 0.13619393
v -0.11700071 -0.03294381 0.16623175
v -0.12151331 -0.03661985 0.16027842
v -0.11248810 -0.03505848 0.16207798
v -0.13406783 -0.04635854 0.14447683
v -0.13406783 -0.04532231 0.14623941
v -0.11700071 -0.03163563 0.16848737
v -0.13406783 -0.03297663 0.16614549
v -0.11247054 -0.00504531 0.20954442
v -0.12151331 -0.03165907 0.16854900
v -0.11873902 -0.02886923 0.17306022
v -0.11473562 -0.00462801 0.20942116
v -0.11166283 -0.00462801 0.20976628
v -0.05131334 -0.00462801 0.18679111
v -0.10909925 -0.00462801 0.20965536
v -0.11700071 -0.02886923 0.17306022
v -0.11603497 -0.02800648 0.17441605
v -0.11700071 -0.03022430 0.17084159
v -0.12602592 -0.03668550 0.16036472
v -0.13053852 -0.04032402 0.15443604
v -0.13406783 -0.04345147 0.14929619
v -0.13406783 -0.03807339 0.15797351
v -0.13053852 -0.03853758 0.15730792
v -0.13406783 -0.04139776 0.15263645
f 1 2 5
f 1 5 13
f 1 13 26
f 1 26 25
f 1 25 14
f 1 14 6
f 1 6 3
f 1 3 8
f 1 8 19
f 1 19 18
f 1 18 32
f 1 32 36
f 1 36 20
f 1 20 9
f 1 9 4
f 1 4 2
f 2 4 5
f 3 6 7
f 3 7 8
f 4 9 21
f 4 21 37
f 4 37 62
f 4 62 63
f 4 63 78
f 4 78 81
f 4 81 79
f 4 79 65
f 4 65 39
f 4 39 22
f 4 22 10
f 4 10 11
f 4 11 12
f 4 12 13
f 4 13 5
f 6 14 7
f 7 15 16
f 7 16 27
f 7 27 45
f 7 45 33
f 7 33 17
f 7 17 18
f 7 18 19
f 7 19 8
f 7 14 15
f 9 20 21
f 10 22 23
f 10 23 11
f 11 23 44
f 11 44 69
f 11 69 70
f 11 70 72
f 11 72 50
f 11 50 71
f 11 71 48
f 11 48 47
f 11 47 46
f 11 46 31
f 11 31 30
f 11 30 29
f 11 29 28
f 11 28 34
f 11 34 27
f 11 27 16
f 11 16 24
f 11 24 12
f 12 24 14
f 12 14 25
f 12 25 26
f 12 26 13
f 14 24 15
f 15 24 16
f 17 28 29
f 17 29 30
f 17 30 31
f 17 31 32
f 17 32 18
f 17 33 34
f 17 34 28
f 20 35 21
f 20 36 35
f 21 35 38
f 21 38 37
f 22 39 40
f 22 40 41
f 22 41 42
f 22 42 23
f 23 42 43
f 23 43 44
f 27 34 45
f 31 46 32
f 32 46 47
f 32 47 48
f 32 48 49
f 32 49 50
f 32 50 51
f 32 51 52
f 32 52 53
f 32 53 54
f 32 54 55
f 32 55 56
f 32 56 57
f 32 57 58
f 32 58 36
f 33 45 34
f 35 59 60
f 35 60 38
f 35 36 61
f 35 61 57
f 35 57 56
f 35 56 59
f 36 58 57
f 36 57 61
f 37 38 62
f 38 63 62
f 38 60 64
f 38 64 63
f 39 65 40
f 40 52 66
f 40 66 43
f 40 43 41
f 40 65 67
f 40 67 68
f 40 68 73
f 40 73 52
f 41 43 42
f 43 69 44
f 43 66 70
f 43 70 69
f 48 71 49
f 49 71 50
f 50 72 51
f 51 72 70
f 51 70 66
f 51 66 52
f 52 73 74
f 52 74 53
f 53 74 75
f 53 75 54
f 54 75 55
f 55 75 64
f 55 64 56
f 56 64 59
f 59 64 60
f 63 64 75
f 63 75 76
f 63 76 77
f 63 77 78
f 65 79 67
f 67 79 80
f 67 80 77
f 67 77 76
f 67 76 75
f 67 75 73
f 67 73 68
f 73 75 74
f 77 81 78
f 77 80 81
f 79 81 80

