# https://github.com/mikedh/trimesh
v -0.04358264 -0.00462564 0.16761902
v -0.04358264 0.05069659 0.21009387
v -0.04358264 -0.00462564 0.18329008
v -0.13312843 -0.00462564 0.16832241
v -0.13304806 -0.00450108 0.16841711
v -0.04486875 0.05069659 0.21044557
v -0.04358264 0.05069659 0.23472658
v -0.04358264 -0.00249203 0.18597519
v -0.04372554 -0.00462564 0.18335770
v -0.13371791 -0.00462564 0.17085874
v -0.05237109 0.04999261 0.21281280
v -0.05087062 0.05069659 0.21265724
v -0.04908435 0.05069659 0.21172388
v -0.04358264 0.05029045 0.23558554
v -0.04401134 0.05069659 0.23398936
v -0.08400597 0.02747057 0.22046234
v -0.08323787 0.02696695 0.22274840
v -0.04358264 -0.00103532 0.18780133
v -0.04754816 0.00003690 0.19095990
v -0.04874496 -0.00462564 0.18564378
v -0.04486875 -0.00462564 0.18387851
v -0.13481647 -0.00462564 0.18673946
v -0.05123681 0.05069659 0.21584286
v -0.13379829 -0.00394331 0.18889701
v -0.04358264 0.04988972 0.23641071
v -0.07894189 0.03161324 0.21863617
v -0.08714981 0.02652832 0.21595107
v -0.09273191 0.02273764 0.21497712
v -0.09212457 0.02223402 0.21798013
v -0.07416362 0.03142912 0.22720556
v -0.09035616 0.02050656 0.21986037
v -0.07817379 0.02564022 0.22685385
v -0.06636653 0.03277211 0.23247433
v -0.04358264 0.00073005 0.18994537
v -0.04486875 0.00055135 0.19034441
v -0.04918260 0.00133114 0.19325273
v -0.05622944 0.00442325 0.20013799
v -0.05055803 -0.00050463 0.19164301
v -0.05133506 -0.00462564 0.18682063
v -0.13453066 -0.00462564 0.18889701
v -0.08489017 0.02807166 0.21595107
v -0.13349463 -0.00404079 0.19184592
v -0.04805725 0.04568748 0.23668124
v -0.04358264 0.04921823 0.23667446
v -0.06498218 0.03577757 0.23143952
v -0.06198123 0.03683354 0.23316421
v -0.11973140 0.00481315 0.20061819
v -0.10594139 0.01361294 0.20938371
v -0.10134173 0.01362377 0.21379350
v -0.10508398 0.00742330 0.21313068
v -0.10575382 0.00441784 0.21370558
v -0.09274084 0.01922856 0.21857530
v -0.08704263 0.02017622 0.22225466
v -0.07877219 0.02264016 0.22727995
v -0.06636653 0.03039481 0.23247433
v -0.05697075 0.03648155 0.23629571
v -0.05580074 0.03948702 0.23595753
v -0.04358264 0.00332396 0.19288073
v -0.05615799 0.03145620 0.23172358
v -0.05658670 0.02711858 0.22702295
v -0.05718510 0.02280262 0.22230200
v -0.04937909 0.00383299 0.19632336
v -0.05388049 0.00488355 0.19963071
v -0.05564890 0.00869047 0.20492654
v -0.05856946 0.02094519 0.22066523
v -0.05839083 0.01652634 0.21535587
v -0.05839083 0.01426818 0.21267752
v -0.05839083 0.01237284 0.21042529
v -0.05839083 0.00821935 0.20548792
v -0.06290117 0.00523013 0.20368207
v -0.07192184 0.00376259 0.20542705
v -0.09897493 -0.00099742 0.21022913
v -0.08277344 -0.00025011 0.20483862
v -0.10630757 -0.00444152 0.20894407
v -0.10745972 -0.00462564 0.20915374
v -0.13423593 -0.00462564 0.19099371
v -0.13377149 -0.00462564 0.19193384
v -0.12893964 -0.00343969 0.19627601
v -0.05279087 0.04125239 0.23653920
v -0.05087062 0.03995815 0.23653920
v -0.04563685 0.04406291 0.23668124
v -0.04358264 0.04780485 0.23671505
v -0.12056202 0.00213801 0.20140275
v -0.10663804 0.01115983 0.21003975
v -0.10974614 0.00794317 0.20871411
v -0.11053210 0.00493770 0.20945810
v -0.11433686 -0.00106240 0.20878851
v -0.11501564 -0.00406786 0.20937017
v -0.09694751 0.00948110 0.21834536
v -0.07877219 0.02230442 0.22727995
v -0.05697075 0.03588587 0.23629571
v -0.04358264 0.03994190 0.23225790
v -0.05077238 0.03541475 0.23233229
v -0.05426454 0.03469452 0.23390143
v -0.05602402 0.03588587 0.23629571
v -0.05916786 0.03082261 0.23246080
v -0.05959656 0.02654998 0.22768575
v -0.06290117 0.02598679 0.22835535
v -0.06018603 0.02228276 0.22289719
v -0.09428596 0.00137447 0.21123691
v -0.09897493 0.00090334 0.21248814
v -0.09119571 0.00857134 0.21853472
v -0.10912095 -0.00462564 0.20966777
v -0.12996674 -0.00462564 0.19579580
v -0.12433106 -0.00356966 0.20069934
v -0.12354509 -0.00056419 0.19995536
v -0.05440744 0.03821985 0.23641746
v -0.04358264 0.04470191 0.23637687
v -0.04358264 0.04710086 0.23670827
v -0.11352411 0.00213801 0.20803100
v -0.11973140 -0.00375378 0.20508887
v -0.12518845 -0.00462564 0.20017856
v -0.11501564 -0.00462564 0.20937017
v -0.09694751 0.00860383 0.21834536
v -0.07643218 0.02207156 0.22751667
v -0.06290117 0.03018903 0.23283279
v -0.04358264 0.04052675 0.23279898
v -0.04358264 0.04373799 0.23568024
v -0.06290117 0.02793087 0.23060760
v -0.07009091 0.02256977 0.22706352
v -0.07195757 0.02018706 0.22496006
v -0.09006143 0.00668141 0.21591048
v -0.09192809 0.00430412 0.21380703
v -0.07310078 0.02208239 0.22756401
v -0.09446459 0.00843054 0.21855502
v -0.11168425 -0.00462564 0.20977597
v -0.11475664 -0.00462564 0.20943780
f 1 2 7
f 1 7 14
f 1 14 25
f 1 25 44
f 1 44 82
f 1 82 109
f 1 109 108
f 1 108 118
f 1 118 117
f 1 117 92
f 1 92 58
f 1 58 34
f 1 34 18
f 1 18 8
f 1 8 3
f 1 3 9
f 1 9 21
f 1 21 20
f 1 20 39
f 1 39 75
f 1 75 103
f 1 103 126
f 1 126 127
f 1 127 113
f 1 113 112
f 1 112 104
f 1 104 77
f 1 77 76
f 1 76 40
f 1 40 22
f 1 22 10
f 1 10 4
f 1 4 5
f 1 5 2
f 2 6 13
f 2 13 12
f 2 12 23
f 2 23 15
f 2 15 7
f 2 5 6
f 3 8 9
f 4 10 5
f 5 10 11
f 5 11 12
f 5 12 13
f 5 13 6
f 7 15 16
f 7 16 17
f 7 17 14
f 8 18 19
f 8 19 20
f 8 20 21
f 8 21 9
f 10 22 11
f 11 23 12
f 11 22 24
f 11 24 23
f 14 17 25
f 15 23 26
f 15 26 16
f 16 26 27
f 16 27 28
f 16 28 29
f 16 29 17
f 17 30 25
f 17 29 31
f 17 31 32
f 17 32 33
f 17 33 30
f 18 34 35
f 18 35 19
f 19 35 36
f 19 36 37
f 19 37 38
f 19 38 39
f 19 39 20
f 22 40 24
f 23 24 41
f 23 41 26
f 24 40 42
f 24 42 28
f 24 28 27
f 24 27 41
f 25 43 44
f 25 30 45
f 25 45 46
f 25 46 43
f 26 41 27
f 28 42 47
f 28 47 48
f 28 48 29
f 29 48 49
f 29 49 50
f 29 50 51
f 29 51 52
f 29 52 31
f 30 33 46
f 30 46 45
f 31 52 32
f 32 52 53
f 32 53 54
f 32 54 33
f 33 55 91
f 33 91 56
f 33 56 57
f 33 57 46
f 33 54 90
f 33 90 55
f 34 58 59
f 34 59 60
f 34 60 61
f 34 61 35
f 35 62 36
f 35 61 62
f 36 62 63
f 36 63 37
f 37 39 38
f 37 63 64
f 37 64 61
f 37 61 65
f 37 65 66
f 37 66 67
f 37 67 68
f 37 68 69
f 37 69 70
f 37 70 71
f 37 71 72
f 37 72 73
f 37 73 39
f 39 73 74
f 39 74 75
f 40 76 42
f 42 76 77
f 42 77 78
f 42 78 47
f 43 79 80
f 43 80 81
f 43 81 82
f 43 82 44
f 43 46 57
f 43 57 79
f 47 78 48
f 48 78 83
f 48 83 84
f 48 84 49
f 49 84 85
f 49 85 86
f 49 86 87
f 49 87 50
f 50 87 88
f 50 88 51
f 51 88 89
f 51 89 54
f 51 54 53
f 51 53 52
f 54 89 114
f 54 114 90
f 55 90 91
f 56 91 79
f 56 79 57
f 58 92 93
f 58 93 59
f 59 93 94
f 59 94 95
f 59 95 96
f 59 96 60
f 60 96 61
f 61 96 97
f 61 97 98
f 61 98 99
f 61 99 65
f 61 64 63
f 61 63 62
f 65 99 66
f 66 99 67
f 67 99 98
f 67 98 68
f 68 98 70
f 68 70 69
f 70 98 71
f 71 100 72
f 71 98 100
f 72 100 101
f 72 101 74
f 72 74 73
f 74 101 75
f 75 101 102
f 75 102 103
f 77 104 78
f 78 104 105
f 78 105 106
f 78 106 83
f 79 91 107
f 79 107 80
f 80 107 91
f 80 91 95
f 80 95 108
f 80 108 81
f 81 108 109
f 81 109 82
f 83 106 84
f 84 106 85
f 85 106 110
f 85 110 86
f 86 110 87
f 87 110 111
f 87 111 88
f 88 111 112
f 88 112 113
f 88 113 114
f 88 114 89
f 90 114 115
f 90 115 91
f 91 115 116
f 91 116 95
f 92 117 95
f 92 95 94
f 92 94 93
f 95 116 96
f 95 117 118
f 95 118 108
f 96 116 119
f 96 119 97
f 97 119 98
f 98 119 120
f 98 120 121
f 98 121 101
f 98 101 122
f 98 122 123
f 98 123 100
f 100 123 101
f 101 123 122
f 101 121 120
f 101 120 102
f 102 120 124
f 102 124 125
f 102 125 126
f 102 126 103
f 104 112 111
f 104 111 105
f 105 111 110
f 105 110 106
f 113 127 114
f 114 127 125
f 114 125 115
f 115 125 124
f 115 124 116
f 116 124 119
f 119 124 120
f 125 127 126

