# https://github.com/mikedh/trimesh
v -0.10349286 -0.02830591 -0.16212553
v -0.09974560 -0.02830591 -0.16203819
v -0.14380209 -0.02830591 -0.16191117
v -0.14380209 -0.02681147 -0.16426922
v -0.14380209 -0.02672512 -0.16440418
v -0.14071937 -0.02287943 -0.16987453
v -0.09904414 -0.02830591 -0.16193499
v -0.10480964 -0.00027020 -0.19684519
v -0.09602295 0.00414006 -0.20156130
v -0.14380209 -0.02830591 -0.14079195
v -0.14380209 -0.02389565 -0.16830251
v -0.14274375 -0.02287943 -0.16987453
v -0.09447236 -0.02830591 -0.16107751
v -0.10627409 -0.00027020 -0.19684519
v -0.09898261 0.00404708 -0.20159306
v -0.09450313 0.00637176 -0.20287926
v -0.08996211 0.01013111 -0.20502293
v -0.08996211 0.00754739 -0.20276810
v -0.08817154 -0.02830591 -0.15960076
v -0.13906418 -0.02830591 -0.13177262
v -0.14380209 -0.01589873 -0.14304680
v -0.14380209 -0.02272666 -0.16973163
v -0.13830119 -0.01851566 -0.17445566
v -0.10171461 0.00419320 -0.20135486
v -0.09898261 0.00664408 -0.20269665
v -0.08996211 0.01238274 -0.20604715
v -0.08329210 0.01344545 -0.20568192
v -0.08630099 0.01286760 -0.20600744
v -0.08633175 0.00830457 -0.20194240
v -0.08094160 -0.00462068 -0.17541635
v -0.08817154 -0.02830591 -0.13937871
v -0.08333518 0.00896877 -0.20110080
v -0.08094160 0.00959976 -0.20023540
v -0.08094160 0.00818502 -0.19798850
v -0.13535999 -0.02830591 -0.12995447
v -0.14380209 -0.01100360 -0.14507931
v -0.14380209 -0.01124271 -0.14495228
v -0.14380209 -0.02129200 -0.17077965
v -0.14131008 -0.01791124 -0.17397135
v -0.13372940 -0.01407219 -0.17894945
v -0.11701132 -0.00120007 -0.19289923
v -0.12000175 -0.00046946 -0.19241492
v -0.11146118 0.00336960 -0.19725806
v -0.10216995 0.00664408 -0.20159306
v -0.09255258 0.01258199 -0.20586453
v -0.08094160 0.02483641 -0.20954053
v -0.08094160 0.02016711 -0.20840518
v -0.08094160 0.01404987 -0.20505469
v -0.08094160 0.01185138 -0.20279987
v -0.08094160 0.01630813 -0.20664260
v -0.08094160 -0.00462068 -0.16577774
v -0.12189075 -0.02830591 -0.12944633
v -0.08094160 0.03820003 -0.19087465
v -0.08094160 0.03826645 -0.19091436
v -0.13502157 -0.02830591 -0.12984331
v -0.14380209 -0.00770919 -0.14897764
v -0.12755165 -0.02830591 -0.12858887
v -0.12605643 -0.02830591 -0.12854916
v -0.14380209 -0.02072079 -0.17116076
v -0.14302680 -0.01490243 -0.17497173
v -0.13971025 -0.01620426 -0.17562278
v -0.12457968 -0.00501920 -0.18792908
v -0.12758857 -0.00428194 -0.18744478
v -0.12606259 -0.00261481 -0.18900886
v -0.12947759 -0.00127977 -0.18838957
v -0.12304140 0.00214083 -0.19188298
v -0.10800312 0.00664408 -0.19915560
v -0.10442199 0.00664408 -0.20067208
v -0.09898261 0.01115397 -0.20315714
v -0.09255258 0.01486683 -0.20586453
v -0.08094160 0.02918690 -0.20965171
v -0.08094160 0.03954835 -0.19392344
v -0.08458427 0.03687828 -0.19134310
v -0.14380209 -0.00766270 -0.14904116
v -0.14380209 -0.01567290 -0.17412220
v -0.14373441 -0.01139548 -0.17572600
v -0.13400629 -0.00582287 -0.18395136
v -0.13516308 -0.01168108 -0.18009274
v -0.13060977 -0.00715127 -0.18456271
v -0.12947759 0.00131723 -0.18838957
v -0.13906418 -0.00688559 -0.18020388
v -0.13414782 -0.00236906 -0.18453094
v -0.12045708 0.00664408 -0.19283573
v -0.11701132 0.00664408 -0.19474122
v -0.11404551 0.00664408 -0.19634502
v -0.11179961 0.00664408 -0.19742480
v -0.09220801 0.01786235 -0.20570575
v -0.10213302 0.01115397 -0.20163275
v -0.08545186 0.02467700 -0.20816700
v -0.08908837 0.02467700 -0.20642030
v -0.08158153 0.02918690 -0.20932618
v -0.08094160 0.03193666 -0.20842901
v -0.08094160 0.03950850 -0.19443157
v -0.08137233 0.03923618 -0.19443157
v -0.09263258 0.03173741 -0.18992192
v -0.09254027 0.03164442 -0.18744478
v -0.14379594 -0.00573653 -0.15368579
v -0.14380209 -0.00611512 -0.15278068
v -0.14380209 -0.01139548 -0.17566247
v -0.11956488 0.00915474 -0.19242287
v -0.13339098 0.00034751 -0.18419750
v -0.12822850 0.00431940 -0.18723834
v -0.14132237 -0.00688559 -0.17746475
v -0.13863346 -0.00462068 -0.18000540
v -0.13844271 -0.00363103 -0.17991014
v -0.11066128 0.01376426 -0.19693252
v -0.11119660 0.01115397 -0.19718660
v -0.10132081 0.01800848 -0.20123577
v -0.10161616 0.01566386 -0.20137869
v -0.09194342 0.02016711 -0.20557076
v -0.08839921 0.02757290 -0.20609477
v -0.08094160 0.03335804 -0.20774621
v -0.08094160 0.03840593 -0.19774236
v -0.08467041 0.03697791 -0.19443157
v -0.08094160 0.03812033 -0.19858396
v -0.09245413 0.03162449 -0.19259754
v -0.09488463 0.03005699 -0.18992192
v -0.10333904 0.02399952 -0.18541224
v -0.14380209 -0.00517861 -0.16287185
v -0.14380209 -0.00526495 -0.15837014
v -0.14286682 -0.00462068 -0.15837014
v -0.14234380 -0.00426201 -0.15837014
v -0.14210382 -0.00442806 -0.15506728
v -0.14380209 -0.00574981 -0.15368579
v -0.14245456 -0.00462068 -0.15552777
v -0.14380209 -0.00538451 -0.15712361
v -0.14285451 -0.00688559 -0.17520992
v -0.14380209 -0.00693872 -0.17353468
v -0.11474697 0.01339896 -0.19215292
v -0.09894569 0.02352794 -0.19851249
v -0.09258950 0.02724080 -0.20172009
v -0.08391357 0.03203629 -0.20640442
v -0.09740741 0.02298995 -0.20170420
v -0.14185770 -0.00459411 -0.17428099
v -0.09781352 0.02779872 -0.18992192
v -0.14187002 -0.00462068 -0.17429687
v -0.08094160 0.03610117 -0.20345090
v -0.08692861 0.03531078 -0.19443157
v -0.08377820 0.03640006 -0.19772649
v -0.09727819 0.02738692 -0.19316123
v -0.08293522 0.03574251 -0.20072764
v -0.08842383 0.03203629 -0.19894125
v -0.10559109 0.02229918 -0.18541224
v -0.14380209 -0.00541107 -0.16738153
v -0.14380209 -0.00622803 -0.17207380
v -0.09565992 0.02605189 -0.19894125
v -0.08543339 0.03260086 -0.20306188
v -0.08217838 0.03511152 -0.20345090
f 1 2 7
f 1 7 13
f 1 13 19
f 1 19 31
f 1 31 52
f 1 52 58
f 1 58 57
f 1 57 55
f 1 55 35
f 1 35 20
f 1 20 10
f 1 10 3
f 1 3 4
f 1 4 5
f 1 5 6
f 1 6 2
f 2 6 8
f 2 8 9
f 2 9 7
f 3 10 21
f 3 21 37
f 3 37 36
f 3 36 56
f 3 56 74
f 3 74 98
f 3 98 124
f 3 124 126
f 3 126 120
f 3 120 119
f 3 119 144
f 3 144 145
f 3 145 128
f 3 128 99
f 3 99 75
f 3 75 59
f 3 59 38
f 3 38 22
f 3 22 11
f 3 11 5
f 3 5 4
f 5 11 12
f 5 12 6
f 6 12 14
f 6 14 8
f 7 9 13
f 8 14 15
f 8 15 9
f 9 15 16
f 9 16 17
f 9 17 18
f 9 18 19
f 9 19 13
f 10 20 21
f 11 22 12
f 12 22 23
f 12 23 14
f 14 24 15
f 14 23 24
f 15 24 25
f 15 25 26
f 15 26 17
f 15 17 16
f 17 27 18
f 17 26 28
f 17 28 27
f 18 27 29
f 18 29 19
f 19 30 51
f 19 51 31
f 19 29 32
f 19 32 33
f 19 33 34
f 19 34 30
f 20 35 36
f 20 36 37
f 20 37 21
f 22 38 23
f 23 38 39
f 23 39 40
f 23 40 24
f 24 41 42
f 24 42 43
f 24 43 44
f 24 44 25
f 24 40 41
f 25 44 45
f 25 45 26
f 26 45 46
f 26 46 47
f 26 47 28
f 27 48 49
f 27 49 32
f 27 32 29
f 27 28 50
f 27 50 48
f 28 47 50
f 30 34 33
f 30 33 49
f 30 49 48
f 30 48 50
f 30 50 47
f 30 47 46
f 30 46 71
f 30 71 92
f 30 92 112
f 30 112 137
f 30 137 115
f 30 115 113
f 30 113 93
f 30 93 72
f 30 72 54
f 30 54 53
f 30 53 51
f 31 51 53
f 31 53 54
f 31 54 52
f 32 49 33
f 35 55 36
f 36 55 57
f 36 57 58
f 36 58 54
f 36 54 56
f 38 59 39
f 39 59 60
f 39 60 61
f 39 61 41
f 39 41 40
f 41 62 63
f 41 63 42
f 41 61 62
f 42 64 65
f 42 65 43
f 42 63 64
f 43 65 66
f 43 66 67
f 43 67 68
f 43 68 44
f 44 68 69
f 44 69 45
f 45 69 70
f 45 70 71
f 45 71 46
f 52 54 58
f 54 72 73
f 54 73 74
f 54 74 56
f 59 75 60
f 60 75 76
f 60 76 77
f 60 77 61
f 61 77 78
f 61 78 62
f 62 78 63
f 63 78 79
f 63 79 77
f 63 77 65
f 63 65 64
f 65 80 66
f 65 77 76
f 65 76 81
f 65 81 82
f 65 82 80
f 66 83 84
f 66 84 85
f 66 85 86
f 66 86 67
f 66 80 83
f 67 69 68
f 67 86 69
f 69 87 70
f 69 86 85
f 69 85 88
f 69 88 87
f 70 87 89
f 70 89 71
f 71 89 90
f 71 90 91
f 71 91 92
f 72 93 94
f 72 94 95
f 72 95 96
f 72 96 73
f 73 96 74
f 74 97 98
f 74 96 97
f 75 99 76
f 76 99 81
f 77 79 78
f 80 100 83
f 80 82 101
f 80 101 102
f 80 102 100
f 81 99 103
f 81 103 104
f 81 104 82
f 82 104 105
f 82 105 101
f 83 100 106
f 83 106 107
f 83 107 84
f 84 107 85
f 85 107 108
f 85 108 109
f 85 109 88
f 87 88 109
f 87 109 110
f 87 110 89
f 89 110 90
f 90 111 91
f 90 110 109
f 90 109 108
f 90 108 111
f 91 111 92
f 92 111 112
f 93 113 94
f 94 114 95
f 94 113 115
f 94 115 114
f 95 114 116
f 95 116 117
f 95 117 118
f 95 118 119
f 95 119 120
f 95 120 121
f 95 121 122
f 95 122 96
f 96 122 123
f 96 123 97
f 97 124 98
f 97 123 125
f 97 125 126
f 97 126 124
f 99 127 103
f 99 128 127
f 100 102 129
f 100 129 130
f 100 130 131
f 100 131 132
f 100 132 133
f 100 133 106
f 101 105 134
f 101 134 102
f 102 134 135
f 102 135 116
f 102 116 129
f 103 127 105
f 103 105 104
f 105 127 128
f 105 128 136
f 105 136 134
f 106 133 111
f 106 111 108
f 106 108 107
f 111 132 112
f 111 133 132
f 112 132 137
f 114 138 116
f 114 115 139
f 114 139 138
f 115 137 139
f 116 140 129
f 116 135 117
f 116 138 141
f 116 141 142
f 116 142 140
f 117 135 143
f 117 143 118
f 118 143 144
f 118 144 119
f 120 126 121
f 121 126 122
f 122 126 125
f 122 125 123
f 128 145 134
f 128 134 136
f 129 140 146
f 129 146 130
f 130 146 147
f 130 147 131
f 131 147 132
f 132 147 148
f 132 148 137
f 134 145 144
f 134 144 143
f 134 143 135
f 137 148 141
f 137 141 139
f 138 139 141
f 140 142 146
f 141 148 142
f 142 148 147
f 142 147 146

