# https://github.com/mikedh/trimesh
v 0.09470956 0.05069659 -0.05913535
v 0.09393260 0.05069659 -0.06208769
v 0.09443763 0.05069659 0.01751741
v 0.09632175 0.04538212 0.01299889
v 0.09632175 0.04360389 -0.04995430
v 0.09632175 0.04323006 -0.05530991
v 0.09632175 0.04092644 -0.05763218
v 0.09632175 0.02940837 -0.06239372
v 0.09381607 0.05069659 -0.06239372
v 0.09632175 0.04280571 0.02106382
v 0.09632175 0.04483652 0.01751741
v 0.09369951 0.05069659 0.02106382
v 0.09632175 0.01133309 -0.06239372
v 0.02843491 -0.00462044 -0.07087269
v 0.07025477 0.05069659 -0.06239372
v 0.09632175 0.03328815 0.02106382
v 0.07996675 0.05069659 0.02106382
v 0.09632175 0.00976704 -0.06051250
v 0.09630232 0.00844347 -0.06239372
v 0.02693927 -0.00561059 -0.07087269
v -0.00736350 -0.00462044 -0.07087269
v -0.10211372 -0.05252146 -0.07087269
v 0.03406787 -0.00462044 0.02106382
v -0.07736756 -0.05252146 0.00359282
v 0.00467937 -0.00462044 0.02106382
v -0.03535347 -0.04655025 0.00359282
v -0.03539232 -0.04657045 0.00359282
v -0.05456380 -0.05252146 -0.07087269
v -0.05697237 -0.05252146 0.00359282
v -0.04032601 -0.04813651 0.00359282
f 1 2 9
f 1 9 15
f 1 15 17
f 1 17 12
f 1 12 3
f 1 3 4
f 1 4 5
f 1 5 6
f 1 6 7
f 1 7 2
f 2 7 8
f 2 8 9
f 3 10 11
f 3 11 4
f 3 12 10
f 4 11 10
f 4 10 16
f 4 16 18
f 4 18 13
f 4 13 8
f 4 8 7
f 4 7 6
f 4 6 5
f 8 13 14
f 8 14 9
f 9 14 21
f 9 21 15
f 10 12 17
f 10 17 25
f 10 25 23
f 10 23 16
f 13 18 19
f 13 19 14
f 14 20 28
f 14 28 22
f 14 22 21
f 14 19 20
f 15 21 22
f 15 22 17
f 16 19 18
f 16 23 19
f 17 22 24
f 17 24 25
f 19 23 26
f 19 26 27
f 19 27 28
f 19 28 20
f 22 28 29
f 22 29 24
f 23 25 24
f 23 24 29
f 23 29 30
f 23 30 27
f 23 27 26
f 27 30 28
f 28 30 29

