# https://github.com/mikedh/trimesh
v 0.08153210 0.14530933 -0.15373905
v 0.08559699 0.14500371 -0.15373905
v 0.08396203 0.14429058 -0.15631123
v 0.08313705 0.14429058 -0.15631123
v 0.08012214 0.14399423 -0.15574168
v 0.07689721 0.14363304 -0.15479243
v 0.07689721 0.14411463 -0.15373905
v 0.08564200 0.14499445 -0.15373905
v 0.08564200 0.14497593 -0.15379417
v 0.08474202 0.14050275 -0.16171281
v 0.08141210 0.14068796 -0.16217825
v 0.08696196 0.14352190 -0.15525174
v 0.08154710 0.14307736 -0.15803213
v 0.07689721 0.14018786 -0.16158420
v 0.07689721 0.14188267 -0.15836285
v 0.07098736 0.13947475 -0.16001026
v 0.07608723 0.14383678 -0.15373905
v 0.08574700 0.14495741 -0.15373905
v 0.08874691 0.14051200 -0.15704000
v 0.08477202 0.13742802 -0.16197614
v 0.08015213 0.13627963 -0.16601202
v 0.07019237 0.13070436 -0.17418174
v 0.07475226 0.13521458 -0.16968043
v 0.07445227 0.13521458 -0.16968043
v 0.08979689 0.14206789 -0.15373905
v 0.07145236 0.13489045 -0.16910475
v 0.06533249 0.13073215 -0.17425524
v 0.07400229 0.13983594 -0.16091666
v 0.05646773 0.12621267 -0.17876880
v 0.06548250 0.13524237 -0.16527098
v 0.07275732 0.14261431 -0.15373905
v 0.08987188 0.14198454 -0.15373905
v 0.08874691 0.13875237 -0.15704000
v 0.07949214 0.12988012 -0.16546695
v 0.08015213 0.13291781 -0.16604263
v 0.07019237 0.13049136 -0.17418174
v 0.05705271 0.12210068 -0.18350895
v 0.06197258 0.12656459 -0.17911787
v 0.05435278 0.12224887 -0.18385804
v 0.05885267 0.12650903 -0.17908725
v 0.05136785 0.12198955 -0.18374780
v 0.04334306 0.11703479 -0.18737946
v 0.06948740 0.13999338 -0.15700327
v 0.00926391 0.09684531 -0.19894814
v 0.06998238 0.14117882 -0.15373905
v 0.04739295 0.12628676 -0.16553432
v 0.08958690 0.13732615 -0.15373905
v 0.07604223 0.10166115 -0.15373905
v 0.07517226 0.12040588 -0.16566293
v 0.07691221 0.12838906 -0.16738996
v 0.07497726 0.12990791 -0.16995601
v 0.07484226 0.09878090 -0.15373905
v 0.07389729 0.09658599 -0.15373905
v 0.07020737 0.10794952 -0.16520362
v 0.05705271 0.12056332 -0.18350895
v 0.03461327 0.10430986 -0.19709249
v 0.04868292 0.11761825 -0.18811437
v 0.04635797 0.11761825 -0.18811437
v 0.02403854 0.10402276 -0.19711086
v 0.00171910 0.09042727 -0.20607062
v -0.00129583 0.08978824 -0.20480290
v -0.00233080 0.09027909 -0.20179591
v 0.01589374 0.10367083 -0.18789390
v 0.06881241 0.14053053 -0.15385541
v 0.06881241 0.14053053 -0.15373905
v 0.06077262 0.13542759 -0.15702777
v 0.02096361 0.10787543 -0.18091227
v 0.00743395 0.09880869 -0.18541971
v -0.03065009 0.07307173 -0.19894814
v -0.05211455 0.05883722 -0.19779065
v 0.06425253 0.10134627 -0.16827185
v 0.06569250 0.10796804 -0.16970491
v 0.05940765 0.11036670 -0.17696828
v 0.06161259 0.12049849 -0.17914850
v 0.05643773 0.11756267 -0.18300062
v 0.07374728 0.09627111 -0.15373905
v 0.07367229 0.09641929 -0.15394115
v 0.06518250 0.09553947 -0.16458507
v 0.06585749 0.09854011 -0.16539960
v 0.03461327 0.10286511 -0.19709249
v 0.01715371 0.09090886 -0.20614411
v 0.02556850 0.09924396 -0.20131822
v 0.02364855 0.09924396 -0.20131822
v 0.02729345 0.10443025 -0.19742320
v 0.00474902 0.09080698 -0.20635234
v -0.00426575 0.08520394 -0.20984927
v -0.01245555 0.08183285 -0.21102512
v -0.01547047 0.08101787 -0.20994113
v 0.01556375 0.10388384 -0.18541971
v 0.06660747 0.13916913 -0.15373905
v 0.06077262 0.13542759 -0.15487815
v 0.01329881 0.10248540 -0.18541971
v 0.00969890 0.10023492 -0.18541971
v -0.00377076 0.09118669 -0.18992713
v -0.02711018 0.07533147 -0.19894814
v -0.02424525 0.07635020 -0.20431909
v -0.03008011 0.07270128 -0.20345557
v -0.03822490 0.06763539 -0.20151418
v -0.05734942 0.05485488 -0.19894814
v -0.06336427 0.05069659 -0.19866030
v -0.05211455 0.05883722 -0.19633308
v 0.06137260 0.09853085 -0.16989478
v 0.05714271 0.11036670 -0.17919749
v 0.05813268 0.11487692 -0.18017125
v 0.05663272 0.10805140 -0.17868918
v 0.07170735 0.09238139 -0.15373905
v 0.07049238 0.09391876 -0.15659295
v 0.06636747 0.09318712 -0.16157806
v 0.06462752 0.09194612 -0.16299888
v 0.06144760 0.08961228 -0.16544858
v 0.06215259 0.09233509 -0.16618349
v 0.06327755 0.09703979 -0.16731036
v 0.02549350 0.09402990 -0.20167342
v 0.01715371 0.08888064 -0.20614411
v 0.00270907 0.08174950 -0.21026573
v 0.00443403 0.08327761 -0.20974517
v 0.00024913 0.08481497 -0.21011874
v 0.01376380 0.09128857 -0.20646258
v 0.00926391 0.09113113 -0.20651156
v 0.01826368 0.09669713 -0.20289215
v 0.02063362 0.09907726 -0.20118961
v -0.00878064 0.08254597 -0.21133746
v -0.01368552 0.07923044 -0.21218874
v -0.02016535 0.07211782 -0.21474865
v -0.01779541 0.07802648 -0.21188864
v -0.02076534 0.07704480 -0.21105576
v -0.02372026 0.07597049 -0.20796913
v -0.02147032 0.07748007 -0.20796913
v -0.01581546 0.08124013 -0.20694025
v -0.00275079 0.09053840 -0.19894814
v 0.06266256 0.13652042 -0.15373905
v 0.05933265 0.13398285 -0.15373905
v -0.06279428 0.05069659 -0.19529197
v 0.00239408 0.09465966 -0.19262792
v 0.00474902 0.09651190 -0.18992713
v -0.01364052 0.08438896 -0.19443458
v -0.02486023 0.07673918 -0.19894814
v -0.02459024 0.07657247 -0.20131208
v -0.03234505 0.07117318 -0.20345557
v -0.05959936 0.05327122 -0.19894814
v -0.02949512 0.07234935 -0.20667692
v -0.04702968 0.05845751 -0.21004525
v -0.05854939 0.05080773 -0.20782827
v -0.05865439 0.05069659 -0.20791401
v -0.06336427 0.05069659 -0.19850719
v -0.02883513 0.07186777 -0.20968392
v 0.06057762 0.09553021 -0.16922110
v 0.07025237 0.08999199 -0.15373905
v 0.06965239 0.09091812 -0.15543547
v 0.06557249 0.09017722 -0.16054307
v 0.06239258 0.08800083 -0.16271105
v 0.06027763 0.08660239 -0.16410126
v 0.03867817 0.05384541 -0.16073905
v 0.03545325 0.05069659 -0.16148008
v 0.01584874 0.08587075 -0.20550719
v 0.00252908 0.07652617 -0.21023509
v 0.00266407 0.07880443 -0.21026573
v -0.01515548 0.06527377 -0.21486501
v -0.01526048 0.06863560 -0.21479152
v -0.00878064 0.07429422 -0.21311349
v -0.00426575 0.07880443 -0.21191314
v -0.00878064 0.07880443 -0.21272154
v -0.00426575 0.08295346 -0.21100675
v -0.01784041 0.07389598 -0.21424647
v -0.02192031 0.06960803 -0.21499975
v -0.02514523 0.06797805 -0.21482827
v -0.03314003 0.06268989 -0.21465680
v -0.02816015 0.06683892 -0.21455269
v -0.02316528 0.07098795 -0.21438733
v -0.01937037 0.07211782 -0.21474865
v -0.02231030 0.06527377 -0.21570405
v -0.02681019 0.06076355 -0.21608374
v -0.02196531 0.07404415 -0.21272154
v -0.02582021 0.07296985 -0.21138033
v -0.03895988 0.06366232 -0.21114148
v -0.05209956 0.05435478 -0.21079239
v -0.03389001 0.06776504 -0.21063930
v -0.02712518 0.07356258 -0.20809774
v -0.01622045 0.08149019 -0.20345557
v 0.05718771 0.13219543 -0.15373905
v -0.06258429 0.05069659 -0.19510823
v 0.05598774 0.13118595 -0.15373905
v -0.05829440 0.05069659 -0.20845906
v 0.06881241 0.08795452 -0.15373905
v 0.06813744 0.08748220 -0.15421061
v 0.06146260 0.08511133 -0.16110039
v 0.03939815 0.05210430 -0.15798314
v 0.03764320 0.05069659 -0.15893853
v 0.03753820 0.05084477 -0.15923250
v 0.03746320 0.05069659 -0.15917738
v 0.03351830 0.05069659 -0.16310301
v -0.02423025 0.05372502 -0.21498139
v -0.01958037 0.05805927 -0.21507324
v -0.01532048 0.06279176 -0.21485277
v -0.01779541 0.06527377 -0.21545906
v -0.01328053 0.07429422 -0.21405663
v -0.02672019 0.06531081 -0.21514060
v -0.03991986 0.05604032 -0.21498139
v -0.04311478 0.05439182 -0.21481602
v -0.04611470 0.05325269 -0.21455269
v -0.04113483 0.05740172 -0.21439958
v -0.04950462 0.05174312 -0.21401374
v -0.05370451 0.05175237 -0.21200500
v -0.03556997 0.06520894 -0.21188252
v -0.01635545 0.07164550 -0.21471190
v -0.01784041 0.06999700 -0.21497525
v -0.02231030 0.06076355 -0.21619397
v -0.02681019 0.05625333 -0.21630421
v -0.03132507 0.05625333 -0.21617559
v -0.03583996 0.05625333 -0.21558768
v -0.05611945 0.05069659 -0.21144156
v -0.05994436 0.05069659 -0.19367518
v 0.05379779 0.12842610 -0.15373905
v 0.06222758 0.07899892 -0.15373905
v 0.05685771 0.07170107 -0.15373905
v 0.04182809 0.05128006 -0.15373905
v 0.03938315 0.05069659 -0.15656231
v 0.05624273 0.07705406 -0.16010825
v 0.03900816 0.05069659 -0.15707675
v -0.02628520 0.05069659 -0.21262968
v -0.02646519 0.05069659 -0.21277666
v -0.03062009 0.05069659 -0.21485277
v -0.02681019 0.05303969 -0.21538557
v -0.02256529 0.05643856 -0.21552645
v -0.01796041 0.06107843 -0.21528146
v -0.04705968 0.05069659 -0.21495686
v -0.04852964 0.05069659 -0.21462616
v -0.05008960 0.05069659 -0.21424647
v -0.05383951 0.05069659 -0.21256231
v -0.03141507 0.05159494 -0.21556929
v -0.03583996 0.05175237 -0.21579590
v -0.04033985 0.05175237 -0.21556319
v 0.02942340 0.05069659 -0.15373905
v 0.04139310 0.05069659 -0.15373905
v 0.04127311 0.05069659 -0.15391052
v -0.03200006 0.05069659 -0.21533047
v -0.04033985 0.05069659 -0.21547744
v -0.03583996 0.05069659 -0.21556929
f 1 2 3
f 1 3 4
f 1 4 5
f 1 5 6
f 1 6 7
f 1 7 17
f 1 17 31
f 1 31 45
f 1 45 65
f 1 65 90
f 1 90 131
f 1 131 132
f 1 132 180
f 1 180 182
f 1 182 213
f 1 213 233
f 1 233 234
f 1 234 216
f 1 216 215
f 1 215 214
f 1 214 184
f 1 184 148
f 1 148 106
f 1 106 76
f 1 76 53
f 1 53 52
f 1 52 48
f 1 48 47
f 1 47 32
f 1 32 25
f 1 25 18
f 1 18 8
f 1 8 2
f 2 8 9
f 2 9 3
f 3 10 11
f 3 11 4
f 3 9 12
f 3 12 10
f 4 13 5
f 4 11 13
f 5 14 15
f 5 15 6
f 5 13 14
f 6 15 16
f 6 16 7
f 7 16 17
f 8 18 9
f 9 18 12
f 10 12 19
f 10 19 20
f 10 20 21
f 10 21 22
f 10 22 23
f 10 23 11
f 11 23 24
f 11 24 13
f 12 18 25
f 12 25 19
f 13 24 14
f 14 24 26
f 14 26 27
f 14 27 15
f 15 28 16
f 15 27 29
f 15 29 28
f 16 30 31
f 16 31 17
f 16 28 29
f 16 29 30
f 19 25 32
f 19 32 33
f 19 33 20
f 20 33 34
f 20 34 35
f 20 35 21
f 21 35 22
f 22 35 36
f 22 36 55
f 22 55 37
f 22 37 38
f 22 38 23
f 23 38 39
f 23 39 24
f 24 27 26
f 24 39 40
f 24 40 27
f 27 40 29
f 29 40 41
f 29 41 42
f 29 42 30
f 30 43 31
f 30 42 44
f 30 44 43
f 31 43 46
f 31 46 45
f 32 47 33
f 33 47 48
f 33 48 34
f 34 49 50
f 34 50 51
f 34 51 35
f 34 48 52
f 34 52 53
f 34 53 54
f 34 54 49
f 35 51 36
f 36 51 55
f 37 39 38
f 37 55 80
f 37 80 56
f 37 56 57
f 37 57 39
f 39 41 40
f 39 57 58
f 39 58 41
f 41 58 42
f 42 58 59
f 42 59 60
f 42 60 61
f 42 61 44
f 43 44 61
f 43 61 62
f 43 62 63
f 43 63 46
f 45 64 65
f 45 46 64
f 46 66 64
f 46 63 67
f 46 67 68
f 46 68 69
f 46 69 70
f 46 70 66
f 49 54 71
f 49 71 50
f 50 72 73
f 50 73 74
f 50 74 51
f 50 71 72
f 51 74 75
f 51 75 55
f 53 76 77
f 53 77 54
f 54 77 78
f 54 78 79
f 54 79 71
f 55 75 80
f 56 80 114
f 56 114 81
f 56 81 82
f 56 82 57
f 57 82 83
f 57 83 58
f 58 83 84
f 58 84 59
f 59 84 60
f 60 84 85
f 60 85 86
f 60 86 87
f 60 87 61
f 61 87 88
f 61 88 62
f 62 88 63
f 63 88 89
f 63 89 67
f 64 66 90
f 64 90 65
f 66 91 90
f 66 70 101
f 66 101 91
f 67 89 92
f 67 92 93
f 67 93 68
f 68 93 94
f 68 94 69
f 69 94 95
f 69 95 96
f 69 96 97
f 69 97 98
f 69 98 70
f 70 98 99
f 70 99 100
f 70 100 145
f 70 145 101
f 71 102 73
f 71 73 72
f 71 79 102
f 73 102 103
f 73 103 75
f 73 75 104
f 73 104 74
f 74 104 75
f 75 103 105
f 75 105 80
f 76 106 107
f 76 107 77
f 77 107 108
f 77 108 78
f 78 108 109
f 78 109 110
f 78 110 111
f 78 111 79
f 79 111 112
f 79 112 102
f 80 105 102
f 80 102 113
f 80 113 114
f 81 114 115
f 81 115 116
f 81 116 117
f 81 117 118
f 81 118 82
f 82 118 83
f 83 118 119
f 83 119 120
f 83 120 121
f 83 121 84
f 84 121 85
f 85 121 120
f 85 120 119
f 85 119 86
f 86 122 87
f 86 119 118
f 86 118 117
f 86 117 122
f 87 122 123
f 87 123 124
f 87 124 125
f 87 125 126
f 87 126 88
f 88 126 127
f 88 127 128
f 88 128 96
f 88 96 129
f 88 129 130
f 88 130 89
f 89 130 92
f 90 91 131
f 91 132 131
f 91 101 133
f 91 133 132
f 92 130 134
f 92 134 135
f 92 135 136
f 92 136 94
f 92 94 93
f 94 136 95
f 95 137 138
f 95 138 96
f 95 136 137
f 96 138 129
f 96 128 97
f 97 139 98
f 97 128 127
f 97 127 139
f 98 100 140
f 98 140 99
f 98 139 127
f 98 127 141
f 98 141 100
f 99 140 100
f 100 142 143
f 100 143 144
f 100 144 183
f 100 183 211
f 100 211 229
f 100 229 228
f 100 228 227
f 100 227 226
f 100 226 237
f 100 237 238
f 100 238 236
f 100 236 222
f 100 222 221
f 100 221 220
f 100 220 191
f 100 191 154
f 100 154 190
f 100 190 188
f 100 188 219
f 100 219 217
f 100 217 235
f 100 235 234
f 100 234 233
f 100 233 212
f 100 212 181
f 100 181 133
f 100 133 145
f 100 141 146
f 100 146 142
f 101 145 133
f 102 112 111
f 102 111 147
f 102 147 113
f 102 105 103
f 106 148 149
f 106 149 150
f 106 150 107
f 107 150 108
f 108 150 109
f 109 150 110
f 110 150 151
f 110 151 152
f 110 152 153
f 110 153 154
f 110 154 155
f 110 155 113
f 110 113 111
f 111 113 147
f 113 155 114
f 114 155 156
f 114 156 157
f 114 157 115
f 115 157 158
f 115 158 159
f 115 159 160
f 115 160 161
f 115 161 162
f 115 162 116
f 116 162 117
f 117 162 163
f 117 163 122
f 122 163 162
f 122 162 164
f 122 164 123
f 123 164 124
f 124 165 166
f 124 166 167
f 124 167 168
f 124 168 169
f 124 169 125
f 124 164 170
f 124 170 171
f 124 171 172
f 124 172 165
f 125 169 173
f 125 173 126
f 126 173 174
f 126 174 175
f 126 175 176
f 126 176 177
f 126 177 146
f 126 146 178
f 126 178 127
f 127 178 141
f 129 179 134
f 129 134 130
f 129 138 179
f 132 133 180
f 133 181 182
f 133 182 180
f 134 179 138
f 134 138 136
f 134 136 135
f 136 138 137
f 141 178 146
f 142 176 144
f 142 144 143
f 142 146 177
f 142 177 176
f 144 176 183
f 148 184 150
f 148 150 149
f 150 184 185
f 150 185 186
f 150 186 151
f 151 186 153
f 151 153 152
f 153 187 188
f 153 188 189
f 153 189 154
f 153 186 187
f 154 189 190
f 154 191 192
f 154 192 193
f 154 193 156
f 154 156 155
f 156 193 194
f 156 194 157
f 157 194 158
f 158 194 195
f 158 195 159
f 159 195 196
f 159 196 161
f 159 161 160
f 161 196 162
f 162 196 164
f 164 196 170
f 165 172 197
f 165 197 166
f 166 197 198
f 166 198 199
f 166 199 167
f 167 199 200
f 167 200 168
f 168 200 201
f 168 201 169
f 169 201 202
f 169 202 203
f 169 203 204
f 169 204 173
f 170 196 205
f 170 205 206
f 170 206 171
f 171 207 172
f 171 206 207
f 172 207 208
f 172 208 209
f 172 209 210
f 172 210 198
f 172 198 197
f 173 204 174
f 174 204 175
f 175 204 211
f 175 211 176
f 176 211 183
f 181 212 213
f 181 213 182
f 184 214 185
f 185 214 215
f 185 215 216
f 185 216 217
f 185 217 186
f 186 217 218
f 186 218 187
f 187 217 219
f 187 219 188
f 187 218 217
f 188 190 189
f 191 220 192
f 192 220 221
f 192 221 222
f 192 222 223
f 192 223 224
f 192 224 193
f 193 224 225
f 193 225 194
f 194 225 207
f 194 207 195
f 195 206 205
f 195 205 196
f 195 207 206
f 198 210 199
f 199 210 226
f 199 226 200
f 200 226 227
f 200 227 228
f 200 228 202
f 200 202 201
f 202 228 229
f 202 229 203
f 203 229 211
f 203 211 204
f 207 224 208
f 207 225 224
f 208 224 223
f 208 223 230
f 208 230 231
f 208 231 209
f 209 231 232
f 209 232 226
f 209 226 210
f 212 233 213
f 216 234 235
f 216 235 217
f 222 236 223
f 223 236 230
f 226 232 237
f 230 236 238
f 230 238 231
f 231 238 237
f 231 237 232

