# https://github.com/mikedh/trimesh
v 0.08840691 0.14427726 0.17358372
v 0.08747534 0.14427726 0.17358372
v 0.08399566 0.13996281 0.18255058
v 0.08853021 0.14383757 0.17358372
v 0.08237910 0.13996281 0.18255058
v 0.08302298 0.14289406 0.17358372
v 0.07410455 0.13537353 0.19188690
v 0.06920010 0.13106823 0.20086627
v 0.07929669 0.13534606 0.19136091
v 0.08399566 0.13883610 0.18255058
v 0.08872201 0.14195971 0.17358372
v 0.07128243 0.13106823 0.20086627
v 0.08152972 0.14239025 0.17358372
v 0.07825553 0.13999943 0.17893754
v 0.07680337 0.14036585 0.17528068
v 0.07439224 0.13989867 0.17358372
v 0.07424154 0.13984372 0.17358372
v 0.07314558 0.13573994 0.18890002
v 0.07088514 0.13486972 0.18890002
v 0.06777534 0.13144381 0.19774792
v 0.06618619 0.13037206 0.19913803
v 0.06336407 0.12806369 0.20243172
v 0.05150023 0.11744701 0.21878748
v 0.07517312 0.13167281 0.19685248
v 0.07929669 0.13486972 0.19136091
v 0.08843432 0.13975210 0.17358372
v 0.05433604 0.11743785 0.21869355
v 0.05666498 0.11722717 0.21827401
v 0.07859802 0.14138263 0.17358372
v 0.07684447 0.14077805 0.17358372
v 0.06924120 0.13752618 0.17358372
v 0.06787124 0.13672008 0.17537460
v 0.07261129 0.13877197 0.17528068
v 0.06937820 0.13551094 0.18356499
v 0.07017276 0.13514453 0.18657064
v 0.06783014 0.13205753 0.19529955
v 0.06535052 0.13077511 0.19613238
v 0.04355447 0.12143170 0.19461703
v 0.04421205 0.12154163 0.19529955
v 0.05687047 0.12601180 0.19972037
v 0.04756846 0.12164239 0.20018375
v 0.04081455 0.11927905 0.19791698
v 0.03826643 0.11726380 0.20054066
v 0.03817053 0.10831428 0.22749133
v 0.04634918 0.11328828 0.22384700
v 0.07517312 0.13017969 0.19685248
v 0.07118654 0.12840262 0.20146741
v 0.06521352 0.08055887 0.17358372
v 0.04984258 0.11313256 0.22356521
v 0.05210301 0.11263791 0.22272614
v 0.05666498 0.11699816 0.21827401
v 0.06525461 0.13546515 0.17358372
v 0.06529571 0.13541934 0.17537460
v 0.06787124 0.13579491 0.17948858
v 0.04293799 0.12173399 0.19161136
v 0.06556971 0.13519032 0.17772277
v 0.06336407 0.13265295 0.18439156
v 0.06787124 0.13252471 0.19340850
v 0.05215781 0.12612173 0.19102277
v 0.04984258 0.12452786 0.19340850
v 0.03766365 0.11769434 0.19791698
v 0.04299279 0.12099201 0.19529331
v 0.02511483 0.10807612 0.20903164
v 0.04081455 0.10888222 0.22782323
v 0.00693547 0.09462894 0.22283259
v 0.00942880 0.09520603 0.22459215
v 0.01104535 0.09483046 0.22750387
v 0.02452575 0.09932813 0.23193094
v 0.04419835 0.10892802 0.22776060
v 0.05210301 0.11261042 0.22272614
v 0.06419975 0.07847034 0.17358372
v 0.04293799 0.12173399 0.19098520
v 0.02911511 0.05069659 0.17358372
v -0.04906844 0.05069659 0.21172419
v -0.05084938 0.05069659 0.21265720
v -0.04716419 0.05404923 0.21364656
v 0.02436135 0.10862573 0.20243172
v 0.02727936 0.11064098 0.20243172
v 0.03004668 0.11238141 0.20243172
v 0.02455314 0.10846085 0.20602597
v 0.02619709 0.09932813 0.23193094
v 0.00660668 0.09487627 0.22045937
v 0.00435995 0.09340148 0.22045937
v 0.00155154 0.09080914 0.22376558
v -0.00264054 0.08610079 0.22769798
v -0.01158637 0.07702303 0.23220021
v -0.02054590 0.06793610 0.23659596
v -0.01779228 0.06873304 0.23684017
v -0.00876425 0.07237880 0.23643315
v -0.00425709 0.07254369 0.23648326
v 0.04402026 0.10585935 0.22771052
v 0.02640259 0.09684571 0.23206243
v 0.04852742 0.05080651 0.17358372
v 0.04971929 0.05284924 0.17358372
v 0.05248660 0.05770415 0.17358372
v 0.06192562 0.07430244 0.17358372
v 0.04321198 0.10341357 0.22734106
v 0.01915550 0.10464104 0.20243172
v 0.02208722 0.10689446 0.20243172
v 0.04845892 0.05069659 0.17358372
v -0.05123297 0.05069659 0.21585070
v -0.04716419 0.05404923 0.21389078
v -0.02416259 0.07174674 0.21595715
v -0.02184736 0.07343222 0.21144243
v 0.00109945 0.09114806 0.22045937
v 0.01910071 0.10466852 0.20693395
v -0.00135278 0.07235132 0.23636428
v -0.00350361 0.08676948 0.22496784
v -0.03347831 0.05838200 0.23600736
v -0.03839646 0.05425075 0.23649578
v -0.02551885 0.06376821 0.23686524
v -0.02214875 0.06527964 0.23710944
v -0.02229944 0.06077282 0.23754776
v 0.02866302 0.09684571 0.23144253
v 0.02570391 0.09232973 0.23197478
v 0.02303249 0.08794199 0.23241310
v 0.02469014 0.08650383 0.23151766
v 0.01827873 0.08783207 0.23342751
v 0.02277220 0.09232973 0.23268861
v 0.03907470 0.09839378 0.22764163
v 0.03795134 0.09539840 0.22627656
v -0.01370980 0.07967032 0.21144243
v -0.01146307 0.08139244 0.21144243
v 0.00115425 0.09112059 0.21595715
v 0.03369077 0.09048853 0.22665854
v 0.04826713 0.05069659 0.17378411
v -0.04402699 0.05069659 0.23390967
v -0.01116168 0.08118176 0.22302043
v -0.02923143 0.06767046 0.21858084
v -0.00631203 0.08541378 0.22045937
v -0.00405159 0.08717254 0.22045937
v -0.00114728 0.08942594 0.22045937
v -0.00135278 0.07136202 0.23636428
v -0.00576404 0.08496492 0.22496784
v -0.04398589 0.05069659 0.23399106
v -0.04278033 0.05069659 0.23603866
v -0.04190355 0.05069659 0.23674625
v -0.03046440 0.05960032 0.23704681
v -0.02694360 0.06096518 0.23739746
v -0.04015001 0.05069659 0.23684017
v -0.03704020 0.05069659 0.23692158
v -0.02680661 0.05654997 0.23722212
v -0.02229944 0.05728278 0.23672746
v -0.01903894 0.05806140 0.23638934
v 0.01867602 0.08296800 0.23303302
v 0.02168993 0.08424126 0.23218767
v 0.02042957 0.08122756 0.23162411
v 0.03495113 0.09348391 0.22790462
v 0.04506142 0.05069659 0.17693377
v 0.01589501 0.07668410 0.23159280
v 0.00019528 0.06983227 0.23550014
v 0.00959320 0.07395435 0.23377816
v 0.00475724 0.07430244 0.23526846
v -0.04090348 0.05069659 0.23681512
v -0.04006781 0.05161262 0.23684645
v -0.03642372 0.05069659 0.23682138
v -0.02229944 0.05502937 0.23570679
v -0.01764158 0.05644004 0.23511818
v 0.01415516 0.07843370 0.23347133
v 0.01742936 0.07968864 0.23256339
v 0.01290850 0.07523679 0.23285769
v 0.04312979 0.05069659 0.17881857
v 0.01131934 0.07223224 0.23149888
v 0.03588270 0.05069659 0.18588811
v 0.00494903 0.06952082 0.23351516
v 0.00831913 0.07083988 0.23275122
v -0.03393039 0.05069659 0.23598857
v -0.01779228 0.05327977 0.23264478
v -0.01510716 0.05379274 0.23197478
v -0.01347691 0.05623852 0.23310815
v -0.00425709 0.06184456 0.23269486
v 0.00004458 0.06527048 0.23303926
v 0.00657928 0.06783534 0.23135485
v 0.03458124 0.05069659 0.18710288
v 0.00357908 0.06676359 0.23236926
v -0.02166926 0.05069659 0.23102924
v -0.01773748 0.05069659 0.22931978
v -0.00876425 0.05069659 0.22521205
v -0.00633943 0.05390267 0.22732227
v -0.01209325 0.05471792 0.23112944
v -0.00984652 0.05773163 0.23237553
v -0.00684631 0.05873010 0.23156150
v -0.00425709 0.05960032 0.23085392
v -0.00158567 0.06274226 0.23196225
v -0.00135278 0.05792400 0.22772929
v -0.00333922 0.05069659 0.22193088
v -0.00074999 0.05069659 0.21977684
v -0.00459958 0.05635760 0.22838052
v -0.00572294 0.05069659 0.22352764
v -0.00351731 0.05069659 0.22207491
f 1 2 5
f 1 5 3
f 1 3 4
f 1 4 11
f 1 11 26
f 1 26 48
f 1 48 71
f 1 71 96
f 1 96 95
f 1 95 94
f 1 94 93
f 1 93 100
f 1 100 73
f 1 73 52
f 1 52 31
f 1 31 17
f 1 17 16
f 1 16 30
f 1 30 29
f 1 29 13
f 1 13 6
f 1 6 2
f 2 6 7
f 2 7 8
f 2 8 5
f 3 9 25
f 3 25 10
f 3 10 11
f 3 11 4
f 3 5 8
f 3 8 12
f 3 12 9
f 6 13 14
f 6 14 7
f 7 14 15
f 7 15 16
f 7 16 17
f 7 17 18
f 7 18 19
f 7 19 20
f 7 20 8
f 8 20 21
f 8 21 22
f 8 22 23
f 8 23 12
f 9 24 46
f 9 46 25
f 9 12 24
f 10 25 11
f 11 25 26
f 12 23 27
f 12 27 28
f 12 28 24
f 13 29 15
f 13 15 14
f 15 30 16
f 15 29 30
f 17 31 32
f 17 32 33
f 17 33 34
f 17 34 35
f 17 35 19
f 17 19 18
f 19 35 20
f 20 35 36
f 20 36 37
f 20 37 38
f 20 38 21
f 21 38 39
f 21 39 40
f 21 40 22
f 22 40 23
f 23 40 41
f 23 41 42
f 23 42 43
f 23 43 44
f 23 44 45
f 23 45 27
f 24 28 47
f 24 47 46
f 25 46 48
f 25 48 26
f 27 45 49
f 27 49 28
f 28 49 50
f 28 50 70
f 28 70 51
f 28 51 47
f 31 52 53
f 31 53 32
f 32 54 33
f 32 53 55
f 32 55 56
f 32 56 54
f 33 54 34
f 34 54 56
f 34 56 57
f 34 57 37
f 34 37 58
f 34 58 35
f 35 58 36
f 36 58 37
f 37 57 59
f 37 59 60
f 37 60 38
f 38 55 61
f 38 61 62
f 38 62 39
f 38 60 59
f 38 59 56
f 38 56 55
f 39 62 42
f 39 42 40
f 40 42 41
f 42 62 61
f 42 61 43
f 43 61 63
f 43 63 44
f 44 64 45
f 44 63 65
f 44 65 66
f 44 66 67
f 44 67 68
f 44 68 64
f 45 64 69
f 45 69 49
f 46 47 51
f 46 51 70
f 46 70 48
f 48 70 71
f 49 69 50
f 50 69 70
f 52 72 55
f 52 55 53
f 52 73 74
f 52 74 75
f 52 75 76
f 52 76 72
f 55 72 77
f 55 77 78
f 55 78 61
f 56 59 57
f 61 78 79
f 61 79 63
f 63 79 80
f 63 80 65
f 64 68 81
f 64 81 69
f 65 82 83
f 65 83 84
f 65 84 67
f 65 67 66
f 65 80 82
f 67 84 85
f 67 85 86
f 67 86 87
f 67 87 68
f 68 87 88
f 68 88 89
f 68 89 90
f 68 90 81
f 69 91 70
f 69 81 92
f 69 92 91
f 70 93 94
f 70 94 95
f 70 95 96
f 70 96 71
f 70 91 97
f 70 97 93
f 72 76 98
f 72 98 99
f 72 99 77
f 73 100 126
f 73 126 149
f 73 149 162
f 73 162 164
f 73 164 174
f 73 174 187
f 73 187 186
f 73 186 190
f 73 190 189
f 73 189 178
f 73 178 177
f 73 177 176
f 73 176 167
f 73 167 156
f 73 156 141
f 73 141 140
f 73 140 154
f 73 154 137
f 73 137 136
f 73 136 135
f 73 135 127
f 73 127 101
f 73 101 75
f 73 75 74
f 75 101 76
f 76 101 102
f 76 102 103
f 76 103 104
f 76 104 99
f 76 99 98
f 77 99 105
f 77 105 106
f 77 106 78
f 78 106 80
f 78 80 79
f 80 106 83
f 80 83 82
f 81 90 107
f 81 107 92
f 83 105 84
f 83 106 105
f 84 105 108
f 84 108 85
f 85 108 109
f 85 109 86
f 86 109 87
f 87 109 110
f 87 110 111
f 87 111 112
f 87 112 88
f 88 112 113
f 88 113 90
f 88 90 89
f 90 113 107
f 91 92 114
f 91 114 115
f 91 115 116
f 91 116 117
f 91 117 97
f 92 107 118
f 92 118 119
f 92 119 116
f 92 116 115
f 92 115 114
f 93 97 100
f 97 117 120
f 97 120 121
f 97 121 100
f 99 104 122
f 99 122 123
f 99 123 124
f 99 124 105
f 100 121 125
f 100 125 126
f 101 127 128
f 101 128 129
f 101 129 102
f 102 129 130
f 102 130 131
f 102 131 132
f 102 132 103
f 103 123 122
f 103 122 104
f 103 132 105
f 103 105 124
f 103 124 123
f 105 132 108
f 107 133 118
f 107 113 133
f 108 132 131
f 108 131 128
f 108 128 134
f 108 134 109
f 109 134 110
f 110 127 135
f 110 135 136
f 110 136 137
f 110 137 138
f 110 138 111
f 110 134 127
f 111 138 139
f 111 139 112
f 112 139 113
f 113 139 140
f 113 140 141
f 113 141 142
f 113 142 143
f 113 143 144
f 113 144 133
f 116 119 118
f 116 118 145
f 116 145 146
f 116 146 117
f 117 146 147
f 117 147 148
f 117 148 120
f 118 133 145
f 120 148 121
f 121 148 125
f 125 147 126
f 125 148 147
f 126 147 150
f 126 150 149
f 127 134 128
f 128 131 130
f 128 130 129
f 133 151 152
f 133 152 153
f 133 153 145
f 133 144 151
f 137 154 155
f 137 155 139
f 137 139 138
f 139 155 154
f 139 154 140
f 141 156 142
f 142 156 143
f 143 156 144
f 144 156 157
f 144 157 158
f 144 158 151
f 145 153 159
f 145 159 160
f 145 160 146
f 146 160 147
f 147 160 161
f 147 161 150
f 149 150 162
f 150 161 163
f 150 163 164
f 150 164 162
f 151 165 152
f 151 158 165
f 152 166 161
f 152 161 160
f 152 160 159
f 152 159 153
f 152 165 166
f 156 167 157
f 157 167 168
f 157 168 158
f 158 168 169
f 158 169 170
f 158 170 171
f 158 171 172
f 158 172 165
f 161 166 163
f 163 166 173
f 163 173 164
f 164 173 174
f 165 172 175
f 165 175 166
f 166 175 173
f 167 176 168
f 168 177 178
f 168 178 169
f 168 176 177
f 169 178 179
f 169 179 180
f 169 180 170
f 170 180 181
f 170 181 171
f 171 181 182
f 171 182 183
f 171 183 184
f 171 184 175
f 171 175 172
f 173 175 185
f 173 185 186
f 173 186 187
f 173 187 174
f 175 184 188
f 175 188 179
f 175 179 185
f 178 189 179
f 179 189 190
f 179 190 185
f 179 188 183
f 179 183 182
f 179 182 180
f 180 182 181
f 183 188 184
f 185 190 186

