# https://github.com/mikedh/trimesh
v -0.05613928 -0.06353571 -0.06790388
v -0.05613928 -0.06403417 -0.06790388
v -0.05613928 -0.06100797 -0.06800604
v -0.05618731 -0.06831334 0.08137824
v -0.05613928 -0.06403417 -0.07891168
v -0.05618731 -0.07013559 0.08022894
v -0.05618731 -0.07681175 0.07583603
v -0.05618731 -0.08009128 0.07366512
v -0.05618731 -0.08036093 0.07346079
v -0.05613928 -0.05874173 -0.06815928
v -0.05620333 -0.05253679 0.10640758
v -0.05613928 -0.05650000 -0.06831252
v -0.05613928 -0.05253407 -0.06912980
v -0.14592057 -0.06780671 -0.09306092
v -0.14427161 -0.06695959 -0.09479764
v -0.13924462 -0.06425480 -0.10010999
v -0.09901273 -0.05445983 -0.11142427
v -0.09633915 -0.05430458 -0.11106672
v -0.09462614 -0.05253407 -0.11448909
v -0.09019150 -0.05253407 -0.11318655
v -0.08999939 -0.05253407 -0.11310992
v -0.08548471 -0.05253407 -0.11096456
v -0.08148233 -0.05253407 -0.10871702
v -0.06880280 -0.05253407 -0.10102944
v -0.05613928 -0.05253407 -0.09262674
v -0.05618731 -0.08036093 0.05494420
v -0.05618731 -0.08033641 0.05259451
v -0.07049981 -0.08036093 -0.01751318
v -0.16441156 -0.07678451 0.05588919
v -0.16209018 -0.07747637 0.05359057
v -0.15757550 -0.07881378 0.04906996
v -0.15757550 -0.07927412 0.04457490
v -0.14857815 -0.07953288 0.04007984
v -0.05676366 -0.08036093 0.07300108
v -0.06880280 -0.05253679 0.11981615
v -0.07011558 -0.05253679 0.12111869
v -0.07110817 -0.05253679 0.12206369
v -0.07203672 -0.05253679 0.12267665
v -0.07432608 -0.05253679 0.12400474
v -0.07648736 -0.05253679 0.12469432
v -0.07767206 -0.05253679 0.12502633
v -0.08098604 -0.05253679 0.12579255
v -0.09438600 -0.05253679 0.12883183
v -0.09438600 -0.05498281 0.12469432
v -0.09184048 -0.06332052 0.11003429
v -0.09449806 -0.06342947 0.11021306
v -0.09901273 -0.06357656 0.11046846
v -0.10351141 -0.06367735 0.11069833
v -0.13954879 -0.05870087 0.12328961
v -0.14406349 -0.05869270 0.12321299
v -0.14857815 -0.05859191 0.12285543
v -0.18538401 -0.06316526 0.10060997
v -0.19362891 -0.06594631 0.08962771
v -0.19814359 -0.06562490 0.08962771
v -0.19191588 -0.06782032 0.08308943
v -0.05637943 -0.05253407 -0.01856033
v -0.05649149 -0.05253407 -0.01751318
v -0.14659299 -0.06780671 -0.09306092
v -0.14404747 -0.06493304 -0.09967581
v -0.15757550 -0.07607359 -0.05012794
v -0.16209018 -0.07781958 -0.04111227
v -0.14404747 -0.05924019 -0.11201170
v -0.14404747 -0.05253407 -0.12641634
v -0.09901273 -0.05253407 -0.11556178
v -0.05658755 -0.08036093 0.05180276
v -0.08225079 -0.08036093 -0.01751318
v -0.16209018 -0.07839704 -0.03659167
v -0.16742134 -0.07662925 0.05491866
v -0.16209018 -0.07846241 0.04906996
v -0.19492568 -0.06765416 0.08222107
v -0.16209018 -0.07892819 0.04457490
v -0.16209018 -0.07896904 0.04007984
v -0.15757550 -0.07928773 0.04007984
v -0.15307684 -0.07944027 0.04007984
v -0.12608480 -0.08013213 0.02654356
v -0.13059948 -0.07998504 0.03103863
v -0.05969339 -0.08036093 0.07062584
v -0.05850869 -0.08036093 0.07159637
v -0.21394497 -0.05253407 0.03420560
v -0.09901273 -0.05253679 0.12975128
v -0.09747583 -0.05871449 0.11887117
v -0.11864039 -0.05936821 0.12002047
v -0.13509816 -0.05858919 0.12308529
v -0.13954879 -0.05738797 0.12569039
v -0.14406349 -0.05533147 0.12980235
v -0.14406349 -0.05751872 0.12569039
v -0.14857815 -0.05743428 0.12569039
v -0.15307684 -0.05839307 0.12239571
v -0.15757550 -0.05900322 0.11956076
v -0.18913023 -0.06289832 0.10004809
v -0.19362891 -0.06353842 0.09700881
v -0.18913023 -0.06375361 0.09780055
v -0.19362891 -0.06455988 0.09412277
v -0.16045721 -0.05887248 0.11917765
v -0.19787142 -0.06401511 0.09427601
v -0.20105731 -0.06378902 0.09284576
v -0.20265825 -0.06536341 0.08513264
v -0.19814359 -0.06663273 0.08513264
v -0.20717295 -0.07395171 -0.04560734
v -0.20493162 -0.07227109 -0.05237547
v -0.18461555 -0.06093443 -0.09518075
v -0.16762947 -0.06307810 -0.09689193
v -0.16461968 -0.06331234 -0.09753044
v -0.14828999 -0.06685335 -0.09479764
v -0.14856215 -0.06477506 -0.09967581
v -0.16658884 -0.07766160 -0.04111227
v -0.20265825 -0.07434939 -0.04560734
v -0.14856215 -0.06350574 -0.10248522
v -0.14856215 -0.05919661 -0.11190954
v -0.14803384 -0.05253407 -0.12641634
v -0.08351554 -0.08036093 -0.01245623
v -0.11703944 -0.08027650 0.02204850
v -0.11864039 -0.08026560 0.02202296
v -0.12157013 -0.08023291 0.02202296
v -0.13059948 -0.07984339 0.00848668
v -0.13509816 -0.07968542 0.00404270
v -0.14857815 -0.07913247 -0.01401418
v -0.15203622 -0.07900718 -0.01751318
v -0.16209018 -0.07854957 -0.03207106
v -0.16658884 -0.07823088 -0.03659167
v -0.17108752 -0.07551792 0.05811118
v -0.16660486 -0.07779235 0.04906996
v -0.18255033 -0.07680903 0.03801109
v -0.16660486 -0.07832894 0.04457490
v -0.19814359 -0.06740085 0.08066311
v -0.19667071 -0.06789114 0.07918179
v -0.16660486 -0.07850599 0.04007984
v -0.20717295 -0.07454551 -0.04111227
v -0.20265825 -0.07495954 -0.04111227
v -0.16209018 -0.07895270 0.03555923
v -0.16209018 -0.07894725 0.03420560
v -0.16209018 -0.07890911 0.02654356
v -0.16209018 -0.07865036 -0.01751318
v -0.16209018 -0.07861767 -0.02305539
v -0.15757550 -0.07924961 0.03420560
v -0.15757550 -0.07919785 0.02654356
v -0.14857815 -0.07954105 0.03555923
v -0.14540827 -0.07962549 0.03420560
v -0.12157013 -0.08020568 0.02654356
v -0.06187069 -0.08036093 0.06837831
v -0.21416910 -0.05253679 0.04007984
v -0.21407305 -0.05253679 0.04457490
v -0.21383290 -0.05253679 0.04906996
v -0.21356073 -0.05253679 0.05359057
v -0.21258415 -0.05253679 0.06636064
v -0.21252012 -0.05253679 0.06707576
v -0.21199182 -0.05253679 0.07075354
v -0.21186373 -0.05253679 0.07159637
v -0.21016672 -0.05253679 0.07879869
v -0.20973447 -0.05253679 0.08061203
v -0.20864582 -0.05253679 0.08474954
v -0.20704487 -0.05253679 0.08916799
v -0.20541190 -0.05253679 0.09305009
v -0.20461142 -0.05253679 0.09494006
v -0.20296244 -0.05253679 0.09813257
v -0.20107333 -0.05253679 0.10152941
v -0.19984059 -0.05253679 0.10357262
v -0.19687884 -0.05253679 0.10832309
v -0.19494168 -0.05253679 0.11141345
v -0.19196391 -0.05253679 0.11590851
v -0.18909821 -0.05253679 0.11861576
v -0.18461555 -0.05253679 0.12229355
v -0.18243827 -0.05253679 0.12328961
v -0.18010087 -0.05253679 0.12423459
v -0.16197811 -0.05253679 0.13120705
v -0.15757550 -0.05253679 0.13286717
v -0.15307684 -0.05253679 0.13406755
v -0.14857815 -0.05253679 0.13447620
v -0.14447974 -0.05253679 0.13450173
v -0.14406349 -0.05253679 0.13450173
v -0.13954879 -0.05253679 0.13424633
v -0.13509816 -0.05253679 0.13378660
v -0.10351141 -0.05253679 0.13036424
v -0.21391295 -0.05253407 -0.03207106
v -0.09901273 -0.05521706 0.12512849
v -0.10685740 -0.05418472 0.12786131
v -0.13954879 -0.05390689 0.13187110
v -0.13954879 -0.05519255 0.12959802
v -0.13509816 -0.05713738 0.12569039
v -0.14406349 -0.05399950 0.13204989
v -0.14857815 -0.05534508 0.12982790
v -0.15307684 -0.05506998 0.12947033
v -0.15307684 -0.05695761 0.12569039
v -0.19617441 -0.06333959 0.09652355
v -0.17336087 -0.05876624 0.11445273
v -0.18913023 -0.06139475 0.10313845
v -0.15757550 -0.05615680 0.12569039
v -0.15757550 -0.05463416 0.12875521
v -0.20259422 -0.06421939 0.08932123
v -0.19575816 -0.05868452 0.10536043
v -0.20505971 -0.06342130 0.08761004
v -0.20570008 -0.06383260 0.08513264
v -0.20725299 -0.06423573 0.08038218
v -0.20715694 -0.06519998 0.07609144
v -0.20265825 -0.06625956 0.08061203
v -0.19968049 -0.06763510 0.07757276
v -0.21023077 -0.07299019 -0.04560734
v -0.20971845 -0.07253258 -0.04839121
v -0.20670867 -0.07269874 -0.05000024
v -0.20092924 -0.06799737 -0.06665241
v -0.19511779 -0.06311351 -0.08363660
v -0.18461555 -0.05952075 -0.09908839
v -0.16209018 -0.06350302 -0.09796462
v -0.18034102 -0.05974955 -0.10005891
v -0.17899622 -0.05892967 -0.10233199
v -0.15280467 -0.06403689 -0.09990568
v -0.17560220 -0.07710321 -0.04042269
v -0.19362891 -0.07567319 -0.04111227
v -0.19814359 -0.07532998 -0.04111227
v -0.15306082 -0.05351738 -0.12289180
v -0.15306082 -0.05253407 -0.12503716
v -0.15136380 -0.05253407 -0.12554798
v -0.14856215 -0.05253407 -0.12636526
v -0.08412389 -0.08036093 -0.00946804
v -0.08455615 -0.08036093 -0.00499851
v -0.08454014 -0.08036093 -0.00050345
v -0.08421995 -0.08036093 0.01129610
v -0.08417193 -0.08036093 0.01300729
v -0.08405986 -0.08036093 0.01568900
v -0.08393178 -0.08036093 0.01750235
v -0.08367563 -0.08036093 0.01974988
v -0.08354755 -0.08036093 0.02074595
v -0.08300324 -0.08036093 0.02276362
v -0.08268305 -0.08036093 0.02393847
v -0.08071387 -0.08036093 0.03080877
v -0.07888879 -0.08036093 0.03673408
v -0.07831245 -0.08036093 0.03808771
v -0.07736789 -0.08036093 0.04007984
v -0.07527065 -0.08036093 0.04442166
v -0.06609720 -0.08036093 0.06229976
v -0.06513663 -0.08036093 0.06413864
v -0.06459230 -0.08036093 0.06498147
v -0.06295934 -0.08036093 0.06712684
v -0.12608480 -0.08009944 0.02202296
v -0.15757550 -0.07883558 -0.01856033
v -0.15757550 -0.07879744 -0.02305539
v -0.16209018 -0.07858770 -0.02757600
v -0.18245427 -0.07678724 -0.03891582
v -0.18011689 -0.07689347 -0.03950324
v -0.20265825 -0.07306646 0.04007984
v -0.18913023 -0.07537084 0.04007984
v -0.17816372 -0.07683082 0.04265939
v -0.19814359 -0.07454551 0.03555923
v -0.19948839 -0.07451282 0.03420560
v -0.20265825 -0.07442839 0.03103863
v -0.20265825 -0.07473346 0.02654356
v -0.18269442 -0.07681993 0.03555923
v -0.18010087 -0.07709504 0.03555923
v -0.20717295 -0.07449649 -0.03659167
v -0.21071105 -0.07326530 -0.03659167
v -0.21066302 -0.07330071 -0.04111227
v -0.18913023 -0.07615530 0.03103863
v -0.21498558 -0.05316328 0.04007984
v -0.21509764 -0.05334850 -0.03207106
v -0.21482548 -0.05317963 0.04457490
v -0.21458535 -0.05329675 0.04906996
v -0.21436122 -0.05349832 0.05359057
v -0.21412106 -0.05386059 0.05811118
v -0.21397698 -0.05414114 0.06076735
v -0.21365680 -0.05489293 0.06707576
v -0.21330459 -0.05560385 0.07159637
v -0.21407305 -0.05845300 0.07422701
v -0.20960639 -0.05384697 0.08352362
v -0.21407305 -0.05921295 0.07422701
v -0.20867784 -0.05650272 0.08582223
v -0.20534787 -0.05536415 0.09264144
v -0.20052901 -0.05456334 0.10112077
v -0.19563010 -0.05368626 0.10952348
v -0.19164373 -0.05450614 0.11483583
v -0.18913023 -0.05492017 0.11570419
v -0.18624853 -0.05412753 0.11869239
v -0.18325475 -0.05442170 0.11930535
v -0.15307684 -0.05385514 0.13174340
v -0.14857815 -0.05400767 0.13207543
v -0.21380089 -0.05253407 -0.04111227
v -0.21498558 -0.05329947 -0.04111227
v -0.18913023 -0.05837946 0.10916591
v -0.20083319 -0.05960246 0.09708542
v -0.20558800 -0.06101070 0.08850394
v -0.20959038 -0.05915575 0.08314051
v -0.21026278 -0.06079823 0.08038218
v -0.20880590 -0.06216016 0.08173580
v -0.20960639 -0.06340224 0.07872207
v -0.21018274 -0.06368007 0.07609144
v -0.21106325 -0.06409682 0.07159637
v -0.20715694 -0.06602803 0.07159637
v -0.20531584 -0.06795651 0.06592645
v -0.20465945 -0.06768141 0.06891465
v -0.20496362 -0.07228744 0.04242953
v -0.20078515 -0.06787207 0.07458457
v -0.21192777 -0.07001574 -0.04560734
v -0.21269622 -0.07001574 -0.04111227
v -0.21042286 -0.06998578 -0.05000024
v -0.20983052 -0.06846315 -0.05342262
v -0.20919015 -0.06729189 -0.05643635
v -0.20507570 -0.05897053 -0.07520836
v -0.20470749 -0.06300455 -0.07007479
v -0.20523579 -0.06806275 -0.06190195
v -0.19109941 -0.05861098 -0.09724950
v -0.18808962 -0.05914758 -0.09827110
v -0.18461555 -0.05844755 -0.10136146
v -0.18198998 -0.05869815 -0.10182118
v -0.16209018 -0.05385786 -0.11911186
v -0.15744743 -0.05330219 -0.12189574
v -0.15759151 -0.05253407 -0.12350477
v -0.20265825 -0.07377739 0.03555923
v -0.20265825 -0.07397351 0.03420560
v -0.20541190 -0.07247539 0.04007984
v -0.20613232 -0.07283221 0.03555923
v -0.20658058 -0.07318359 0.03103863
v -0.20685275 -0.07337698 0.02654356
v -0.20715694 -0.07395443 -0.00499851
v -0.20717295 -0.07420503 -0.01751318
v -0.20717295 -0.07422409 -0.01856033
v -0.20717295 -0.07430036 -0.02305539
v -0.20717295 -0.07437391 -0.02757600
v -0.20717295 -0.07443928 -0.03207106
v -0.21063100 -0.07321082 -0.03207106
v -0.21266420 -0.07090916 -0.02305539
v -0.21277627 -0.07083835 -0.02757600
v -0.21460135 -0.06865655 -0.02305539
v -0.21444127 -0.06858300 -0.02757600
v -0.21508165 -0.05324500 0.03555923
v -0.21969238 -0.05738525 0.00848668
v -0.21959633 -0.05740977 0.01300729
v -0.21716288 -0.05512990 0.00404270
v -0.21938820 -0.05744518 0.01752789
v -0.21918008 -0.05751599 0.02202296
v -0.21893992 -0.05770122 0.02654356
v -0.21873181 -0.05807983 0.03103863
v -0.21668258 -0.05650272 0.04457490
v -0.21461736 -0.05715100 0.06707576
v -0.21432920 -0.05785648 0.07159637
v -0.21855570 -0.05846662 0.03451208
v -0.21855570 -0.05906314 0.03451208
v -0.21432920 -0.06006825 0.07159637
v -0.21380089 -0.06305903 0.06853155
v -0.21332060 -0.06232359 0.07159637
v -0.21245608 -0.06083092 0.07588711
v -0.19985661 -0.05756775 0.10009917
v -0.21368882 -0.05253407 -0.04560734
v -0.21492155 -0.05330492 -0.04560734
v -0.20944628 -0.06777402 0.05594026
v -0.20595622 -0.06825886 0.06258070
v -0.20715694 -0.07010835 0.04906996
v -0.21335261 -0.06607706 -0.04560734
v -0.21394497 -0.06330962 -0.04790594
v -0.21263219 -0.06509647 -0.04969376
v -0.21420111 -0.06830517 -0.03207106
v -0.21402502 -0.06801099 -0.03526358
v -0.21386492 -0.06753977 -0.03827732
v -0.21370481 -0.06700045 -0.04111227
v -0.21047090 -0.06568755 -0.05480178
v -0.20504367 -0.05453338 -0.07975450
v -0.20121741 -0.05253407 -0.09002164
v -0.20000069 -0.05253407 -0.09234579
v -0.20060906 -0.05447346 -0.08874463
v -0.19964847 -0.05342205 -0.09175837
v -0.20115337 -0.05956433 -0.08057179
v -0.20073712 -0.06359291 -0.07541268
v -0.19390106 -0.05682414 -0.09561493
v -0.19556606 -0.05389328 -0.09699409
v -0.19257228 -0.05560113 -0.09885853
v -0.18706501 -0.05441352 -0.10667380
v -0.18215010 -0.05419834 -0.11086240
v -0.19622244 -0.05909311 -0.08889787
v -0.19522986 -0.05805259 -0.09191161
v -0.17914030 -0.05451431 -0.11150090
v -0.17232025 -0.05405942 -0.11510206
v -0.16931047 -0.05432636 -0.11563840
v -0.16209018 -0.05253407 -0.12194682
v -0.20766924 -0.07132047 0.04007984
v -0.20837367 -0.07160920 0.03555923
v -0.20784535 -0.07208043 0.03420560
v -0.20851775 -0.07167730 0.03420560
v -0.20883794 -0.07182711 0.03103863
v -0.20911010 -0.07201234 0.02654356
v -0.20927019 -0.07216214 0.02202296
v -0.20936623 -0.07223296 0.01911138
v -0.20952635 -0.07238550 0.01300729
v -0.20975047 -0.07258978 0.00404270
v -0.20986253 -0.07268512 -0.00050345
v -0.20997460 -0.07277773 -0.00499851
v -0.21019873 -0.07294116 -0.01401418
v -0.21027878 -0.07300381 -0.01751318
v -0.21051894 -0.07315635 -0.02757600
v -0.21253613 -0.07079749 -0.01751318
v -0.21456933 -0.06845225 -0.01401418
v -0.21463339 -0.06856938 -0.01856033
v -0.21858773 -0.06346488 -0.00050345
v -0.21855570 -0.06342947 -0.00405353
v -0.21842763 -0.06321429 -0.00709280
v -0.21956430 -0.05738797 0.00404270
v -0.21954829 -0.06101070 -0.00050345
v -0.21967638 -0.06101070 0.00404270
v -0.21959633 -0.06081185 0.01300729
v -0.21938820 -0.06056671 0.01752789
v -0.21918008 -0.06025347 0.02202296
v -0.21873181 -0.05944721 0.03103863
v -0.21399298 -0.06332869 0.06554336
v -0.21450530 -0.06133756 0.06705023
v -0.21023077 -0.06840050 0.04906996
v -0.20975047 -0.06798920 0.05359057
v -0.21356073 -0.05253407 -0.04747177
v -0.21336862 -0.05253407 -0.05012794
v -0.21471342 -0.05339208 -0.05012794
v -0.21938820 -0.05746152 -0.00050345
v -0.20715694 -0.06929937 0.05359057
v -0.21428117 -0.06100797 -0.04900417
v -0.21391295 -0.05872811 -0.05234993
v -0.20922215 -0.05817244 -0.06534987
v -0.21408905 -0.06382988 -0.04560734
v -0.21490553 -0.06100797 -0.04560734
v -0.21829954 -0.06275941 -0.00951912
v -0.21836360 -0.05952347 -0.01751318
v -0.21540183 -0.06100797 -0.04111227
v -0.20922215 -0.06275124 -0.06090588
v -0.20445134 -0.05253407 -0.08284486
v -0.20441930 -0.05276832 -0.08274270
v -0.20975047 -0.05516803 -0.06678011
v -0.19767931 -0.05253407 -0.09574263
v -0.19663869 -0.05504819 -0.09400591
v -0.19793548 -0.05626575 -0.09032812
v -0.19617441 -0.05253407 -0.09773476
v -0.19409318 -0.05253407 -0.10026324
v -0.18980263 -0.05253407 -0.10542234
v -0.18800958 -0.05253407 -0.10754219
v -0.18456751 -0.05253407 -0.11096456
v -0.18338282 -0.05253407 -0.11196063
v -0.18027698 -0.05253407 -0.11443801
v -0.17560220 -0.05253407 -0.11678771
v -0.17560220 -0.05373257 -0.11446356
v -0.17092742 -0.05253407 -0.11865214
v -0.16658884 -0.05253407 -0.12031224
v -0.21088715 -0.06935658 0.03555923
v -0.21106325 -0.06957448 0.03103863
v -0.21123937 -0.06975698 0.02654356
v -0.21139945 -0.06990135 0.02202296
v -0.21381688 -0.06762966 0.01752789
v -0.21114330 -0.07044339 0.01757897
v -0.21845964 -0.06329601 0.00677549
v -0.21852368 -0.06336683 0.00404270
v -0.21943621 -0.06142200 0.00835898
v -0.21908401 -0.06143289 -0.00535607
v -0.21892393 -0.06050678 -0.00951912
v -0.21892393 -0.05781017 -0.00951912
v -0.21868378 -0.05815338 -0.01401418
v -0.21852368 -0.05849658 -0.01707900
v -0.21852368 -0.05906587 -0.01707900
v -0.21829954 -0.06306993 0.01300729
v -0.21813945 -0.06282206 0.01752789
v -0.21839561 -0.06320339 0.00978923
v -0.21796334 -0.06250609 0.02202296
v -0.21429718 -0.06366373 0.05811118
v -0.21304844 -0.05253407 -0.05291182
v -0.21434520 -0.05371895 -0.05367802
v -0.21572202 -0.05650000 -0.04560734
v -0.21914805 -0.05760316 -0.00499851
v -0.21484150 -0.05693309 -0.05053658
v -0.21434520 -0.05571825 -0.05367802
v -0.21352872 -0.05693309 -0.05495503
v -0.20517176 -0.05253407 -0.08085273
v -0.21517769 -0.06464703 0.03555923
v -0.21570601 -0.06523266 0.02202296
v -0.21588211 -0.06539337 0.01752789
v -0.21266420 -0.05253407 -0.05462301
v -0.21029480 -0.05253407 -0.06384299
v -0.20923817 -0.05253407 -0.06754632
f 1 2 5
f 1 5 25
f 1 25 13
f 1 13 12
f 1 12 10
f 1 10 3
f 1 3 4
f 1 4 2
f 2 4 6
f 2 6 7
f 2 7 8
f 2 8 9
f 2 9 26
f 2 26 5
f 3 10 4
f 4 11 6
f 4 10 12
f 4 12 13
f 4 13 11
f 5 14 15
f 5 15 16
f 5 16 17
f 5 17 18
f 5 18 19
f 5 19 20
f 5 20 21
f 5 21 22
f 5 22 23
f 5 23 24
f 5 24 25
f 5 26 27
f 5 27 28
f 5 28 14
f 6 11 7
f 7 11 8
f 8 11 9
f 9 29 30
f 9 30 31
f 9 31 32
f 9 32 33
f 9 33 34
f 9 34 78
f 9 78 77
f 9 77 140
f 9 140 233
f 9 233 232
f 9 232 231
f 9 231 230
f 9 230 229
f 9 229 228
f 9 228 227
f 9 227 226
f 9 226 225
f 9 225 224
f 9 224 223
f 9 223 222
f 9 222 221
f 9 221 220
f 9 220 219
f 9 219 218
f 9 218 217
f 9 217 216
f 9 216 215
f 9 215 214
f 9 214 111
f 9 111 66
f 9 66 28
f 9 28 65
f 9 65 26
f 9 11 35
f 9 35 36
f 9 36 37
f 9 37 38
f 9 38 39
f 9 39 40
f 9 40 41
f 9 41 42
f 9 42 43
f 9 43 44
f 9 44 45
f 9 45 46
f 9 46 47
f 9 47 48
f 9 48 49
f 9 49 50
f 9 50 51
f 9 51 52
f 9 52 53
f 9 53 54
f 9 54 55
f 9 55 29
f 11 13 56
f 11 56 57
f 11 57 35
f 13 25 24
f 13 24 23
f 13 23 22
f 13 22 21
f 13 21 20
f 13 20 19
f 13 19 64
f 13 64 63
f 13 63 110
f 13 110 213
f 13 213 212
f 13 212 211
f 13 211 305
f 13 305 371
f 13 371 434
f 13 434 433
f 13 433 431
f 13 431 430
f 13 430 429
f 13 429 428
f 13 428 427
f 13 427 426
f 13 426 425
f 13 425 424
f 13 424 421
f 13 421 356
f 13 356 355
f 13 355 418
f 13 418 462
f 13 462 468
f 13 468 467
f 13 467 466
f 13 466 455
f 13 455 405
f 13 405 404
f 13 404 341
f 13 341 275
f 13 275 174
f 13 174 79
f 13 79 57
f 13 57 56
f 14 58 59
f 14 59 15
f 14 28 60
f 14 60 61
f 14 61 58
f 15 59 16
f 16 59 62
f 16 62 63
f 16 63 64
f 16 64 17
f 17 64 19
f 17 19 18
f 26 65 27
f 27 65 28
f 28 66 67
f 28 67 61
f 28 61 60
f 29 68 69
f 29 69 30
f 29 55 70
f 29 70 68
f 30 69 31
f 31 69 71
f 31 71 32
f 32 71 72
f 32 72 73
f 32 73 74
f 32 74 33
f 33 74 75
f 33 75 76
f 33 76 77
f 33 77 78
f 33 78 34
f 35 57 36
f 36 57 37
f 37 57 38
f 38 57 39
f 39 57 79
f 39 79 40
f 40 79 41
f 41 79 42
f 42 79 43
f 43 79 80
f 43 80 44
f 44 80 45
f 45 80 81
f 45 81 46
f 46 81 47
f 47 81 82
f 47 82 83
f 47 83 48
f 48 83 49
f 49 83 84
f 49 84 85
f 49 85 86
f 49 86 50
f 50 86 87
f 50 87 51
f 51 87 88
f 51 88 89
f 51 89 52
f 52 90 91
f 52 91 92
f 52 92 93
f 52 93 54
f 52 54 53
f 52 89 94
f 52 94 90
f 54 93 95
f 54 95 96
f 54 96 97
f 54 97 98
f 54 98 55
f 55 98 70
f 58 99 100
f 58 100 101
f 58 101 102
f 58 102 103
f 58 103 104
f 58 104 105
f 58 105 59
f 58 61 106
f 58 106 107
f 58 107 99
f 59 105 108
f 59 108 109
f 59 109 110
f 59 110 62
f 61 67 106
f 62 110 63
f 66 111 112
f 66 112 113
f 66 113 114
f 66 114 115
f 66 115 116
f 66 116 117
f 66 117 118
f 66 118 119
f 66 119 67
f 67 119 120
f 67 120 106
f 68 70 121
f 68 121 69
f 69 122 123
f 69 123 124
f 69 124 71
f 69 121 122
f 70 98 125
f 70 125 126
f 70 126 122
f 70 122 121
f 71 124 123
f 71 123 127
f 71 127 72
f 72 127 128
f 72 128 129
f 72 129 130
f 72 130 73
f 73 130 131
f 73 131 132
f 73 132 133
f 73 133 134
f 73 134 135
f 73 135 74
f 74 135 136
f 74 136 137
f 74 137 138
f 74 138 75
f 75 139 76
f 75 138 114
f 75 114 139
f 76 139 77
f 77 139 113
f 77 113 140
f 79 141 142
f 79 142 143
f 79 143 144
f 79 144 145
f 79 145 146
f 79 146 147
f 79 147 148
f 79 148 149
f 79 149 150
f 79 150 151
f 79 151 152
f 79 152 153
f 79 153 154
f 79 154 155
f 79 155 156
f 79 156 157
f 79 157 158
f 79 158 159
f 79 159 160
f 79 160 161
f 79 161 162
f 79 162 163
f 79 163 164
f 79 164 165
f 79 165 166
f 79 166 167
f 79 167 168
f 79 168 169
f 79 169 170
f 79 170 171
f 79 171 172
f 79 172 173
f 79 173 80
f 79 174 141
f 80 175 81
f 80 173 175
f 81 175 173
f 81 173 176
f 81 176 82
f 82 176 177
f 82 177 178
f 82 178 179
f 82 179 83
f 83 179 84
f 84 179 178
f 84 178 85
f 85 177 171
f 85 171 180
f 85 180 181
f 85 181 86
f 85 178 177
f 86 181 87
f 87 181 182
f 87 182 183
f 87 183 88
f 88 94 89
f 88 183 94
f 90 184 91
f 90 94 184
f 91 184 95
f 91 95 93
f 91 93 92
f 94 185 186
f 94 186 184
f 94 183 187
f 94 187 188
f 94 188 185
f 95 184 96
f 96 189 97
f 96 184 190
f 96 190 191
f 96 191 189
f 97 192 193
f 97 193 194
f 97 194 195
f 97 195 98
f 97 189 192
f 98 195 196
f 98 196 125
f 99 197 198
f 99 198 199
f 99 199 100
f 99 107 129
f 99 129 128
f 99 128 197
f 100 199 198
f 100 198 200
f 100 200 201
f 100 201 101
f 101 202 102
f 101 201 202
f 102 202 103
f 103 203 104
f 103 202 204
f 103 204 205
f 103 205 203
f 104 203 105
f 105 206 108
f 105 203 206
f 106 207 107
f 106 120 207
f 107 207 208
f 107 208 209
f 107 209 129
f 108 206 210
f 108 210 109
f 109 210 211
f 109 211 212
f 109 212 213
f 109 213 110
f 111 214 112
f 112 214 215
f 112 215 216
f 112 216 217
f 112 217 218
f 112 218 219
f 112 219 220
f 112 220 221
f 112 221 222
f 112 222 223
f 112 223 224
f 112 224 225
f 112 225 226
f 112 226 227
f 112 227 228
f 112 228 229
f 112 229 230
f 112 230 231
f 112 231 232
f 112 232 233
f 112 233 140
f 112 140 113
f 113 139 114
f 114 234 235
f 114 235 116
f 114 116 115
f 114 138 234
f 116 235 118
f 116 118 117
f 118 235 236
f 118 236 119
f 119 236 235
f 119 235 237
f 119 237 120
f 120 129 238
f 120 238 239
f 120 239 207
f 120 237 134
f 120 134 133
f 120 133 132
f 120 132 131
f 120 131 129
f 122 240 241
f 122 241 242
f 122 242 123
f 122 126 196
f 122 196 240
f 123 243 244
f 123 244 245
f 123 245 246
f 123 246 247
f 123 247 127
f 123 242 243
f 125 196 126
f 127 247 248
f 127 248 128
f 128 249 250
f 128 250 251
f 128 251 197
f 128 248 247
f 128 247 252
f 128 252 246
f 128 246 249
f 129 209 238
f 129 131 130
f 134 237 135
f 135 237 136
f 136 237 235
f 136 235 137
f 137 235 138
f 138 235 234
f 141 253 142
f 141 174 254
f 141 254 253
f 142 255 143
f 142 253 255
f 143 255 144
f 144 255 145
f 145 255 256
f 145 256 257
f 145 257 146
f 146 257 258
f 146 258 259
f 146 259 260
f 146 260 147
f 147 261 148
f 147 260 261
f 148 261 262
f 148 262 149
f 149 262 150
f 150 262 263
f 150 263 151
f 151 263 152
f 152 263 153
f 153 263 154
f 154 263 262
f 154 262 264
f 154 264 265
f 154 265 266
f 154 266 155
f 155 266 156
f 156 266 157
f 157 266 267
f 157 267 158
f 158 267 159
f 159 267 268
f 159 268 160
f 160 268 269
f 160 269 161
f 161 269 162
f 162 269 270
f 162 270 271
f 162 271 163
f 163 271 164
f 164 271 272
f 164 272 165
f 165 188 166
f 165 272 188
f 166 188 182
f 166 182 273
f 166 273 167
f 167 273 181
f 167 181 274
f 167 274 168
f 168 274 169
f 169 274 170
f 170 274 180
f 170 180 171
f 171 177 172
f 172 177 176
f 172 176 173
f 174 275 276
f 174 276 254
f 180 274 181
f 181 273 182
f 182 188 183
f 183 188 187
f 184 186 277
f 184 277 271
f 184 271 190
f 185 188 277
f 185 277 186
f 188 272 277
f 189 191 192
f 190 278 191
f 190 271 270
f 190 270 269
f 190 269 278
f 191 279 280
f 191 280 281
f 191 281 282
f 191 282 283
f 191 283 192
f 191 278 279
f 192 283 193
f 193 283 284
f 193 284 194
f 194 284 285
f 194 285 286
f 194 286 287
f 194 287 288
f 194 288 195
f 195 288 289
f 195 289 290
f 195 290 196
f 196 290 289
f 196 289 240
f 197 291 198
f 197 251 292
f 197 292 291
f 198 291 293
f 198 293 294
f 198 294 295
f 198 295 296
f 198 296 297
f 198 297 298
f 198 298 299
f 198 299 201
f 198 201 200
f 201 299 300
f 201 300 202
f 202 301 302
f 202 302 204
f 202 300 301
f 203 205 206
f 204 302 205
f 205 302 303
f 205 303 304
f 205 304 206
f 206 304 210
f 207 239 208
f 208 239 238
f 208 238 209
f 210 304 211
f 211 304 305
f 240 289 306
f 240 306 241
f 241 306 243
f 241 243 242
f 243 306 307
f 243 307 244
f 244 307 245
f 245 307 289
f 245 289 308
f 245 308 309
f 245 309 310
f 245 310 246
f 246 252 247
f 246 310 311
f 246 311 312
f 246 312 313
f 246 313 314
f 246 314 315
f 246 315 316
f 246 316 317
f 246 317 249
f 249 317 250
f 250 317 316
f 250 316 315
f 250 315 314
f 250 314 313
f 250 313 318
f 250 318 319
f 250 319 320
f 250 320 251
f 251 320 321
f 251 321 322
f 251 322 292
f 253 254 323
f 253 323 324
f 253 324 325
f 253 325 255
f 254 276 324
f 254 324 326
f 254 326 323
f 255 325 327
f 255 327 328
f 255 328 256
f 256 328 257
f 257 328 329
f 257 329 330
f 257 330 258
f 258 330 331
f 258 331 259
f 259 331 260
f 260 332 333
f 260 333 261
f 260 331 332
f 261 333 262
f 262 333 334
f 262 334 335
f 262 335 264
f 264 335 336
f 264 336 337
f 264 337 338
f 264 338 339
f 264 339 281
f 264 281 280
f 264 280 265
f 265 280 266
f 266 280 267
f 267 340 268
f 267 280 279
f 267 279 340
f 268 340 278
f 268 278 269
f 271 277 272
f 275 341 342
f 275 342 276
f 276 342 324
f 278 340 279
f 281 339 283
f 281 283 282
f 283 339 338
f 283 338 337
f 283 337 284
f 284 337 285
f 285 337 343
f 285 343 286
f 286 343 344
f 286 344 287
f 287 344 289
f 287 289 288
f 289 344 345
f 289 345 308
f 289 307 306
f 291 292 346
f 291 346 347
f 291 347 348
f 291 348 293
f 292 322 349
f 292 349 350
f 292 350 351
f 292 351 352
f 292 352 347
f 292 347 346
f 293 348 294
f 294 348 295
f 295 348 353
f 295 353 354
f 295 354 296
f 296 354 355
f 296 355 356
f 296 356 357
f 296 357 297
f 297 357 358
f 297 358 359
f 297 359 360
f 297 360 298
f 298 360 299
f 299 361 362
f 299 362 363
f 299 363 364
f 299 364 365
f 299 365 300
f 299 360 366
f 299 366 367
f 299 367 361
f 300 365 301
f 301 365 368
f 301 368 369
f 301 369 302
f 302 369 370
f 302 370 303
f 303 370 304
f 304 370 305
f 305 370 371
f 308 345 372
f 308 372 309
f 309 372 373
f 309 373 374
f 309 374 310
f 310 374 375
f 310 375 376
f 310 376 311
f 311 376 377
f 311 377 378
f 311 378 379
f 311 379 380
f 311 380 381
f 311 381 382
f 311 382 383
f 311 383 384
f 311 384 385
f 311 385 386
f 311 386 312
f 312 386 318
f 312 318 313
f 318 386 319
f 319 385 384
f 319 384 383
f 319 383 387
f 319 387 388
f 319 388 389
f 319 389 320
f 319 386 385
f 320 389 321
f 321 389 390
f 321 390 391
f 321 391 322
f 322 391 392
f 322 392 349
f 323 326 324
f 324 342 393
f 324 393 394
f 324 394 395
f 324 395 396
f 324 396 325
f 325 396 397
f 325 397 327
f 327 397 398
f 327 398 328
f 328 330 329
f 328 398 399
f 328 399 330
f 330 399 335
f 330 335 334
f 330 334 331
f 331 334 332
f 332 334 333
f 335 399 400
f 335 400 337
f 335 337 401
f 335 401 336
f 336 401 337
f 337 400 402
f 337 402 403
f 337 403 343
f 341 404 342
f 342 404 405
f 342 405 406
f 342 406 407
f 342 407 393
f 343 403 372
f 343 372 345
f 343 345 408
f 343 408 344
f 344 408 345
f 347 409 410
f 347 410 411
f 347 411 348
f 347 352 412
f 347 412 413
f 347 413 409
f 348 411 353
f 349 392 350
f 350 392 351
f 351 392 414
f 351 414 415
f 351 415 416
f 351 416 352
f 352 416 413
f 352 413 412
f 353 411 417
f 353 417 354
f 354 418 419
f 354 419 355
f 354 417 411
f 354 411 420
f 354 420 418
f 355 419 418
f 356 358 357
f 356 421 358
f 358 421 422
f 358 422 367
f 358 367 423
f 358 423 359
f 359 423 360
f 360 423 366
f 361 422 421
f 361 421 362
f 361 367 422
f 362 421 424
f 362 424 363
f 363 425 426
f 363 426 364
f 363 424 425
f 364 426 427
f 364 427 428
f 364 428 429
f 364 429 430
f 364 430 365
f 365 430 431
f 365 431 368
f 366 423 367
f 368 431 432
f 368 432 369
f 369 433 434
f 369 434 371
f 369 371 370
f 369 432 433
f 372 403 373
f 373 375 374
f 373 403 402
f 373 402 375
f 375 402 400
f 375 400 376
f 376 400 377
f 377 400 435
f 377 435 436
f 377 436 437
f 377 437 378
f 378 438 439
f 378 439 379
f 378 437 438
f 379 439 440
f 379 440 380
f 380 440 439
f 380 439 441
f 380 441 387
f 380 387 381
f 381 387 382
f 382 387 383
f 387 441 442
f 387 442 388
f 388 442 389
f 389 442 390
f 390 442 443
f 390 443 395
f 390 395 391
f 391 395 394
f 391 394 392
f 392 394 444
f 392 444 445
f 392 445 415
f 392 415 414
f 393 407 394
f 394 407 446
f 394 446 447
f 394 447 448
f 394 448 449
f 394 449 445
f 394 445 444
f 395 443 396
f 396 450 451
f 396 451 397
f 396 443 441
f 396 441 452
f 396 452 450
f 397 451 453
f 397 453 400
f 397 400 398
f 398 400 399
f 400 454 436
f 400 436 435
f 400 453 451
f 400 451 450
f 400 450 454
f 405 455 406
f 406 455 456
f 406 456 457
f 406 457 448
f 406 448 447
f 406 447 446
f 406 446 458
f 406 458 407
f 407 458 446
f 409 413 459
f 409 459 460
f 409 460 410
f 410 460 461
f 410 461 420
f 410 420 411
f 413 416 449
f 413 449 457
f 413 457 459
f 415 449 416
f 415 445 449
f 418 420 462
f 420 461 460
f 420 460 462
f 431 433 432
f 436 454 463
f 436 463 464
f 436 464 437
f 437 464 465
f 437 465 439
f 437 439 438
f 439 465 452
f 439 452 441
f 441 443 442
f 448 457 449
f 450 465 464
f 450 464 463
f 450 463 454
f 450 452 465
f 455 466 456
f 456 460 457
f 456 466 467
f 456 467 468
f 456 468 462
f 456 462 460
f 457 460 459

