# https://github.com/mikedh/trimesh
v -0.07290989 -0.06402960 -0.01752571
v -0.02352452 -0.10201621 -0.08581609
v -0.03445102 -0.08036872 -0.08581609
v -0.05610450 -0.06402960 -0.06793290
v -0.08591793 -0.06402960 -0.01752571
v -0.07047586 -0.08036872 -0.01752571
v -0.03691164 -0.15118997 -0.01848171
v -0.03774958 -0.14798839 -0.01848171
v -0.03776953 -0.14793319 -0.01848171
v -0.02220111 -0.10629418 -0.08581609
v -0.05610450 -0.06402960 -0.07893691
v -0.04567013 -0.08036872 -0.08581609
v -0.08591793 -0.06402960 -0.06823374
v -0.08591793 -0.07440715 -0.01752571
v -0.08224030 -0.08036872 -0.01752571
v -0.05850527 -0.15757474 -0.01848171
v -0.05545276 -0.15755634 -0.01848171
v -0.05386999 -0.15751953 -0.01848171
v -0.04477898 -0.15670073 -0.01848171
v -0.04036317 -0.15605675 -0.01848171
v -0.03724416 -0.15451115 -0.01848171
v -0.01797815 -0.13746364 -0.08580940
v -0.01797815 -0.13743603 -0.08580940
v -0.01801805 -0.13336965 -0.08580940
v -0.02167573 -0.11061817 -0.08581609
v -0.03709785 -0.11922013 -0.08581609
v -0.03657912 -0.13774884 -0.08580940
v -0.08591793 -0.06523479 -0.06364762
v -0.03820845 -0.14007643 -0.08404448
v -0.04242476 -0.14400481 -0.07463826
v -0.05189484 -0.14937757 -0.04851878
v -0.06062007 -0.15337956 -0.02529403
v -0.06125186 -0.15452956 -0.02228564
v -0.06178388 -0.15584515 -0.01848171
v -0.06300090 -0.15279996 -0.01848171
v -0.06360608 -0.15118997 -0.01856861
v -0.06361272 -0.15118997 -0.01848171
v -0.05621755 -0.15800714 -0.02558818
v -0.05621755 -0.15800714 -0.02429792
v -0.05566558 -0.15800714 -0.02429792
v -0.05128301 -0.15798873 -0.03346347
v -0.04694699 -0.15797034 -0.04280953
v -0.04521126 -0.15773113 -0.04122511
v -0.04036317 -0.15637875 -0.03660556
v -0.03661238 -0.15458475 -0.03209299
v -0.02899775 -0.14902797 -0.05193496
v -0.02420286 -0.14486960 -0.06814683
v -0.01957423 -0.14050883 -0.08305506
v -0.02128336 -0.11511695 -0.08581609
v -0.01922176 -0.14063761 -0.08580940
v -0.02611815 -0.11922013 -0.08581609
v -0.02682974 -0.14201762 -0.08580940
v -0.03112585 -0.14156681 -0.08580940
v -0.03325396 -0.14095043 -0.08580940
v -0.03572788 -0.13931282 -0.08580940
v -0.03584759 -0.14072962 -0.08496705
v -0.03830821 -0.14453840 -0.07964555
v -0.04285704 -0.14918438 -0.06636854
v -0.04314965 -0.14523761 -0.07163656
v -0.05618430 -0.15353596 -0.03448632
v -0.05674958 -0.15430875 -0.03209299
v -0.05754097 -0.15588196 -0.02729294
v -0.05566558 -0.15800714 -0.02558818
v -0.05354412 -0.15547715 -0.03600389
v -0.04714650 -0.15797034 -0.04343126
v -0.04694699 -0.15797034 -0.04343126
v -0.04036317 -0.15650755 -0.04563073
v -0.03646607 -0.15452036 -0.03660556
v -0.02893789 -0.14907397 -0.05462246
v -0.02385704 -0.14510879 -0.07265941
v -0.02376394 -0.14498921 -0.07717199
v -0.02402995 -0.14474079 -0.08017369
v -0.02231416 -0.14175081 -0.08580940
v -0.02682974 -0.14383920 -0.08270074
v -0.03134532 -0.14366440 -0.08245338
v -0.03584759 -0.14465800 -0.07989959
v -0.03796905 -0.14892678 -0.07038641
v -0.04035651 -0.15412475 -0.05847320
v -0.04035651 -0.15306675 -0.06073283
v -0.04321615 -0.15390396 -0.05783809
v -0.04742581 -0.14934078 -0.05749714
v -0.04782483 -0.15433636 -0.04923410
v -0.04704010 -0.15334275 -0.05222243
v -0.05161553 -0.15343475 -0.04336441
v -0.05240026 -0.15442835 -0.04035602
v -0.04832361 -0.15544954 -0.04613212
v -0.04035651 -0.15539435 -0.05462246
v -0.04035651 -0.15625913 -0.05013662
v -0.03689169 -0.15417996 -0.05462246
v -0.03676533 -0.15429035 -0.05013662
v -0.03651927 -0.15443756 -0.04111814
v -0.02895785 -0.14903717 -0.05913504
v -0.02902435 -0.14897278 -0.06260471
v -0.02910415 -0.14891759 -0.06560642
v -0.02682974 -0.14486960 -0.08044779
v -0.03733726 -0.15389477 -0.05804534
v -0.03134532 -0.14617598 -0.07717199
v -0.03134532 -0.14478680 -0.08019375
v -0.03584759 -0.14592759 -0.07717199
v -0.03496309 -0.14900038 -0.07057359
v -0.03622001 -0.14982837 -0.06859475
v -0.03463723 -0.15279076 -0.05462246
v -0.03639957 -0.15419835 -0.04613212
f 1 2 3
f 1 3 4
f 1 4 11
f 1 11 13
f 1 13 5
f 1 5 14
f 1 14 15
f 1 15 6
f 1 6 7
f 1 7 8
f 1 8 9
f 1 9 2
f 2 10 25
f 2 25 49
f 2 49 51
f 2 51 26
f 2 26 12
f 2 12 3
f 2 9 8
f 2 8 10
f 3 11 4
f 3 12 11
f 5 13 28
f 5 28 14
f 6 15 16
f 6 16 17
f 6 17 18
f 6 18 19
f 6 19 20
f 6 20 21
f 6 21 7
f 7 21 22
f 7 22 23
f 7 23 24
f 7 24 10
f 7 10 8
f 10 24 25
f 11 12 13
f 12 26 27
f 12 27 13
f 13 27 29
f 13 29 30
f 13 30 31
f 13 31 32
f 13 32 33
f 13 33 34
f 13 34 35
f 13 35 36
f 13 36 28
f 14 28 37
f 14 37 35
f 14 35 34
f 14 34 15
f 15 34 16
f 16 38 39
f 16 39 40
f 16 40 17
f 16 34 38
f 17 40 18
f 18 40 19
f 19 40 41
f 19 41 42
f 19 42 43
f 19 43 20
f 20 43 44
f 20 44 45
f 20 45 21
f 21 45 46
f 21 46 47
f 21 47 48
f 21 48 22
f 22 49 23
f 22 48 50
f 22 50 49
f 23 49 24
f 24 49 25
f 26 51 52
f 26 52 53
f 26 53 54
f 26 54 55
f 26 55 27
f 27 55 29
f 28 36 37
f 29 55 56
f 29 56 57
f 29 57 30
f 30 57 58
f 30 58 59
f 30 59 31
f 31 59 60
f 31 60 32
f 32 60 33
f 33 60 61
f 33 61 62
f 33 62 34
f 34 62 38
f 35 37 36
f 38 63 40
f 38 40 39
f 38 62 61
f 38 61 64
f 38 64 65
f 38 65 66
f 38 66 63
f 40 63 41
f 41 63 66
f 41 66 42
f 42 66 43
f 43 66 67
f 43 67 44
f 44 67 45
f 45 68 69
f 45 69 46
f 45 67 68
f 46 69 70
f 46 70 47
f 47 70 50
f 47 50 48
f 49 50 51
f 50 70 71
f 50 71 72
f 50 72 73
f 50 73 51
f 51 73 52
f 52 73 74
f 52 74 75
f 52 75 53
f 53 75 57
f 53 57 54
f 54 57 56
f 54 56 55
f 57 75 76
f 57 76 77
f 57 77 78
f 57 78 79
f 57 79 80
f 57 80 58
f 58 81 59
f 58 80 82
f 58 82 83
f 58 83 81
f 59 81 60
f 60 81 84
f 60 84 82
f 60 82 85
f 60 85 61
f 61 85 64
f 64 85 65
f 65 85 86
f 65 86 82
f 65 82 80
f 65 80 87
f 65 87 66
f 66 87 88
f 66 88 67
f 67 88 89
f 67 89 90
f 67 90 91
f 67 91 68
f 68 91 92
f 68 92 69
f 69 92 71
f 69 71 70
f 71 92 93
f 71 93 94
f 71 94 89
f 71 89 72
f 72 95 74
f 72 74 73
f 72 89 96
f 72 96 78
f 72 78 95
f 74 95 97
f 74 97 98
f 74 98 76
f 74 76 75
f 76 98 99
f 76 99 77
f 77 99 97
f 77 97 100
f 77 100 101
f 77 101 78
f 78 80 79
f 78 101 100
f 78 100 95
f 78 96 87
f 78 87 80
f 81 83 84
f 82 84 83
f 82 86 85
f 87 96 88
f 88 96 89
f 89 94 102
f 89 102 90
f 90 102 94
f 90 94 93
f 90 93 103
f 90 103 91
f 91 103 93
f 91 93 92
f 95 100 97
f 97 99 98

