# https://github.com/mikedh/trimesh
v 0.11730349 0.10943538 0.06471581
v 0.12532431 0.10944283 0.00945147
v 0.12617728 0.10943538 0.06471581
v 0.09781420 0.10943538 0.12527527
v 0.13121931 0.17801894 0.00945147
v 0.13301462 0.10944283 0.00945147
v 0.09888602 0.15551053 0.12527527
v 0.13362645 0.10944283 0.02754788
v 0.13349247 0.10944283 0.02982694
v 0.13319327 0.10944283 0.03145970
v 0.13306375 0.10944283 0.03215135
v 0.13235813 0.10944283 0.03564364
v 0.12421229 0.10943538 0.07396811
v 0.10760351 0.10943538 0.12527527
v 0.13132650 0.17886114 0.00945147
v 0.13308607 0.10966643 0.00945147
v 0.10095374 0.15813401 0.12527527
v 0.10098054 0.15829799 0.12123872
v 0.13193385 0.18208089 0.00945147
v 0.13378276 0.11002418 0.02699229
v 0.13657843 0.11939274 0.02655008
v 0.13927585 0.12841101 0.02655008
v 0.13907041 0.12841101 0.03106285
v 0.13362645 0.11144772 0.00945147
v 0.13383634 0.11074713 0.02203732
v 0.13788247 0.12584713 0.03378411
v 0.13346568 0.11201416 0.03421497
v 0.13267075 0.11045646 0.03566632
v 0.12633805 0.10993474 0.06471581
v 0.12618175 0.10944283 0.06471581
v 0.12257329 0.11488361 0.08968341
v 0.11980888 0.11697048 0.10573886
v 0.12384161 0.10943538 0.07570291
v 0.10933182 0.10943538 0.12276944
v 0.11247137 0.12391678 0.12527527
v 0.10127529 0.15830545 0.12527527
v 0.13162571 0.18115671 0.05811674
v 0.13137563 0.18142502 0.05360398
v 0.13366665 0.18424229 0.02655008
v 0.13372023 0.18437645 0.02203732
v 0.13394800 0.18436153 0.01752456
v 0.13439013 0.18433918 0.00945147
v 0.13600679 0.11939274 0.00945147
v 0.13811918 0.12504220 0.02203732
v 0.14042805 0.13293505 0.02655008
v 0.14032981 0.13293505 0.03106285
v 0.13804324 0.12530306 0.01752456
v 0.13793607 0.12563100 0.01302313
v 0.13907933 0.12841101 0.02203732
v 0.13958846 0.13293505 0.03557561
v 0.13833353 0.12839609 0.03539419
v 0.13803433 0.12987183 0.03899986
v 0.13021448 0.12232926 0.06471581
v 0.12736969 0.11488361 0.06714226
v 0.12456062 0.12067468 0.08885568
v 0.11948286 0.11829713 0.10874359
v 0.11880852 0.11523391 0.10742831
v 0.11962577 0.11299052 0.10043240
v 0.11997412 0.11203651 0.09742767
v 0.12423907 0.12172557 0.09186041
v 0.12175155 0.10943538 0.08513662
v 0.11098868 0.10943538 0.12024093
v 0.11547247 0.12098026 0.11935652
v 0.11352979 0.12841846 0.12527527
v 0.11442298 0.12390932 0.12214581
v 0.11066266 0.16259100 0.12527527
v 0.12872286 0.17578299 0.09206451
v 0.13294762 0.18043375 0.07082731
v 0.13592194 0.18524100 0.02655008
v 0.13597552 0.18530062 0.02203732
v 0.13485906 0.18451060 0.00945147
v 0.13619882 0.18524846 0.01752456
v 0.13740462 0.12449812 0.00945147
v 0.14110687 0.13743672 0.02655008
v 0.14102203 0.13743672 0.03106285
v 0.13784228 0.12595148 0.01015446
v 0.14010650 0.13293505 0.02203732
v 0.14082105 0.13743672 0.02203732
v 0.14042805 0.13743672 0.03557561
v 0.13953488 0.13743672 0.04007703
v 0.13805218 0.13398594 0.04345593
v 0.13846305 0.13265927 0.04032648
v 0.13771723 0.13098978 0.04199326
v 0.13114786 0.12390187 0.06262951
v 0.11983121 0.12130074 0.11017226
v 0.11880405 0.11963869 0.11189572
v 0.11730349 0.11488361 0.11222454
v 0.11632099 0.10943538 0.10865287
v 0.11691942 0.11038192 0.10771178
v 0.11761612 0.10943538 0.10322169
v 0.11947840 0.10943538 0.09528467
v 0.12000985 0.10943538 0.09296026
v 0.12861121 0.12694274 0.07775520
v 0.12398899 0.12349940 0.09446829
v 0.12308241 0.12390932 0.09868625
v 0.13745375 0.13265927 0.04480523
v 0.13653377 0.13293505 0.04909122
v 0.11127897 0.10943538 0.11978739
v 0.11144867 0.11038192 0.12002550
v 0.11571363 0.12390932 0.11990077
v 0.11586993 0.11488361 0.11541069
v 0.11639691 0.11944491 0.11690738
v 0.11728563 0.12390932 0.11673730
v 0.11404783 0.13292760 0.12527527
v 0.11486510 0.12841846 0.12272409
v 0.11283757 0.16307545 0.12527527
v 0.12392646 0.17139313 0.10578422
v 0.13101836 0.17659539 0.08968341
v 0.13101836 0.17763138 0.08517064
v 0.13727959 0.18483108 0.03364805
v 0.13649803 0.18500996 0.03106285
v 0.13377383 0.18043375 0.07082731
v 0.13869974 0.18524100 0.02655008
v 0.14003952 0.18557639 0.00945147
v 0.13929372 0.18551677 0.00945147
v 0.13664095 0.18511429 0.00945147
v 0.13758327 0.12516144 0.00945147
v 0.14140609 0.14194585 0.02655008
v 0.14105329 0.14194585 0.01752456
v 0.14131677 0.14194585 0.02203732
v 0.14166065 0.14645500 0.02203732
v 0.14234394 0.15706079 0.01868109
v 0.14116493 0.14194585 0.03106285
v 0.14071834 0.14194585 0.03557561
v 0.14013776 0.14194585 0.04007703
v 0.14234394 0.15706079 0.02030252
v 0.13780656 0.12611546 0.00945147
v 0.13796286 0.12700237 0.00945147
v 0.13971351 0.13293505 0.01752456
v 0.14046377 0.13743672 0.01752456
v 0.14046377 0.14194585 0.00945147
v 0.14074513 0.14194585 0.01302313
v 0.13788247 0.16103329 0.06570227
v 0.13775297 0.15802224 0.06473848
v 0.13781549 0.15305100 0.06050919
v 0.13819510 0.14662641 0.05353595
v 0.13840500 0.13725786 0.04480523
v 0.13769491 0.13564053 0.04646066
v 0.12005004 0.12390932 0.11063713
v 0.11906754 0.12390932 0.11289351
v 0.12201504 0.12390932 0.10319901
v 0.12290823 0.12841846 0.10319901
v 0.12442665 0.13431387 0.10166831
v 0.12867373 0.14915302 0.09605570
v 0.13294762 0.16448408 0.09057915
v 0.13318878 0.16768147 0.09161096
v 0.11577168 0.11065768 0.11190706
v 0.11557518 0.10943538 0.11115871
v 0.11536528 0.11235700 0.11468501
v 0.11655322 0.10943538 0.10771178
v 0.13584602 0.15095668 0.06714226
v 0.13547981 0.13293505 0.05360398
v 0.13737783 0.13725786 0.04917059
v 0.13286278 0.13292760 0.06471581
v 0.11258748 0.10943538 0.11758770
v 0.11772329 0.12841846 0.11673730
v 0.11595032 0.12841846 0.12046770
v 0.12034033 0.12841846 0.11121541
v 0.11927296 0.12841846 0.11347178
v 0.11489636 0.14194585 0.12527527
v 0.12041178 0.16724919 0.11544470
v 0.12452044 0.17139313 0.10578422
v 0.11494995 0.16297854 0.12527527
v 0.13331831 0.17580536 0.09199648
v 0.13395692 0.17646123 0.08968341
v 0.13101836 0.17581281 0.09207585
v 0.13786909 0.18483108 0.03364805
v 0.13819063 0.18500996 0.03106285
v 0.13471167 0.17725126 0.08517064
v 0.13789587 0.18038903 0.06109879
v 0.14257170 0.18506213 0.01302313
v 0.14274587 0.18523355 0.00945147
v 0.14221889 0.18531553 0.00945147
v 0.14092824 0.14552337 0.00945147
v 0.14102648 0.14645500 0.00945147
v 0.14123192 0.14645500 0.01302313
v 0.14145522 0.14645500 0.01752456
v 0.14277713 0.16806157 0.00945147
v 0.14266549 0.16448408 0.01302313
v 0.14312100 0.17257071 0.00945147
v 0.14340235 0.17707984 0.00945147
v 0.14121853 0.14645500 0.03106285
v 0.14077640 0.14645500 0.03557561
v 0.14033426 0.14645500 0.04007703
v 0.14238413 0.15997495 0.02068803
v 0.13910614 0.15545836 0.05360398
v 0.13769491 0.16448408 0.06861629
v 0.14316566 0.17350234 0.01302313
v 0.14331751 0.17801894 0.01302313
v 0.13818170 0.12829176 0.00945147
v 0.13896771 0.13293505 0.00945147
v 0.14005738 0.13743672 0.01302313
v 0.14032088 0.14100677 0.00945147
v 0.13691783 0.16899322 0.07614511
v 0.13586834 0.17350234 0.08517064
v 0.13612738 0.16899322 0.08065788
v 0.13514486 0.16899322 0.08517064
v 0.13655610 0.15996748 0.07164370
v 0.12420781 0.14022419 0.10531933
v 0.13373810 0.15103866 0.07615645
v 0.13426061 0.16448408 0.08517064
v 0.13327812 0.16221088 0.08743836
v 0.13443924 0.17350234 0.08968341
v 0.13332723 0.17069253 0.09204183
v 0.11473559 0.10943538 0.11325635
v 0.11315465 0.10943538 0.11647651
v 0.11608876 0.15498136 0.12527527
v 0.11602177 0.16304563 0.12484439
v 0.11578954 0.16260590 0.12527527
v 0.12887917 0.17141548 0.10114673
v 0.13334510 0.17350234 0.09206451
v 0.14236626 0.18485345 0.01574440
v 0.13921779 0.17801894 0.05360398
v 0.13656950 0.17350234 0.08065788
v 0.13793160 0.17662521 0.06638258
v 0.13801646 0.17727362 0.06471581
v 0.14310314 0.18252808 0.01302313
v 0.14337111 0.18252808 0.00945147
v 0.14237966 0.16306800 0.00945147
v 0.14343362 0.17801894 0.00945147
v 0.14284413 0.17350234 0.01752456
v 0.13871761 0.15997495 0.05811674
v 0.13748501 0.16899322 0.07164370
v 0.14242879 0.18100017 0.02115291
v 0.14289324 0.17801894 0.01752456
v 0.14341129 0.18158898 0.00945147
v 0.13972691 0.13743672 0.00945147
v 0.12887917 0.16990249 0.10114673
v 0.12431500 0.16608649 0.11008155
v 0.11845123 0.15996748 0.12123872
v 0.11612895 0.15545836 0.12527527
v 0.11620487 0.16114508 0.12527527
v 0.11644158 0.15996748 0.12527527
v 0.12431500 0.16687652 0.11008155
v 0.13974030 0.17801894 0.04909122
v 0.13708754 0.17350234 0.07614511
v 0.13799413 0.17350234 0.06700621
v 0.13774849 0.16899322 0.06899045
v 0.14022709 0.17801894 0.04457846
v 0.14068261 0.17801894 0.04007703
v 0.11613343 0.15551798 0.12527527
f 1 2 6
f 1 6 3
f 1 3 13
f 1 13 33
f 1 33 61
f 1 61 92
f 1 92 91
f 1 91 90
f 1 90 150
f 1 150 88
f 1 88 148
f 1 148 205
f 1 205 206
f 1 206 155
f 1 155 98
f 1 98 62
f 1 62 34
f 1 34 14
f 1 14 4
f 1 4 2
f 2 5 15
f 2 15 19
f 2 19 42
f 2 42 71
f 2 71 116
f 2 116 115
f 2 115 114
f 2 114 173
f 2 173 172
f 2 172 218
f 2 218 226
f 2 226 220
f 2 220 181
f 2 181 180
f 2 180 178
f 2 178 219
f 2 219 175
f 2 175 174
f 2 174 131
f 2 131 193
f 2 193 227
f 2 227 191
f 2 191 190
f 2 190 128
f 2 128 127
f 2 127 117
f 2 117 73
f 2 73 43
f 2 43 24
f 2 24 16
f 2 16 6
f 2 4 7
f 2 7 5
f 3 6 8
f 3 8 9
f 3 9 10
f 3 10 11
f 3 11 12
f 3 12 13
f 4 14 35
f 4 35 64
f 4 64 104
f 4 104 160
f 4 160 207
f 4 207 231
f 4 231 241
f 4 241 233
f 4 233 232
f 4 232 209
f 4 209 163
f 4 163 106
f 4 106 66
f 4 66 36
f 4 36 17
f 4 17 7
f 5 7 15
f 6 16 8
f 7 17 18
f 7 18 19
f 7 19 15
f 8 20 21
f 8 21 22
f 8 22 23
f 8 23 9
f 8 16 24
f 8 24 25
f 8 25 20
f 9 23 26
f 9 26 10
f 10 26 11
f 11 26 27
f 11 27 12
f 12 27 28
f 12 28 29
f 12 29 30
f 12 30 13
f 13 31 32
f 13 32 33
f 13 30 29
f 13 29 31
f 14 34 35
f 17 36 37
f 17 37 38
f 17 38 39
f 17 39 18
f 18 39 40
f 18 40 19
f 19 40 41
f 19 41 42
f 20 25 21
f 21 25 24
f 21 24 43
f 21 43 44
f 21 44 22
f 22 45 46
f 22 46 23
f 22 44 47
f 22 47 48
f 22 48 49
f 22 49 45
f 23 46 50
f 23 50 51
f 23 51 26
f 26 51 52
f 26 52 28
f 26 28 27
f 28 52 53
f 28 53 29
f 29 53 54
f 29 54 31
f 31 54 55
f 31 55 32
f 32 56 57
f 32 57 58
f 32 58 59
f 32 59 33
f 32 55 60
f 32 60 56
f 33 59 61
f 34 62 63
f 34 63 35
f 35 63 65
f 35 65 64
f 36 66 67
f 36 67 68
f 36 68 37
f 37 69 38
f 37 68 69
f 38 69 39
f 39 69 40
f 40 69 70
f 40 70 41
f 41 70 42
f 42 70 72
f 42 72 71
f 43 73 48
f 43 48 47
f 43 47 44
f 45 74 75
f 45 75 46
f 45 49 48
f 45 48 76
f 45 76 77
f 45 77 78
f 45 78 74
f 46 75 79
f 46 79 50
f 48 73 76
f 50 79 80
f 50 80 81
f 50 81 82
f 50 82 83
f 50 83 52
f 50 52 51
f 52 84 53
f 52 83 60
f 52 60 55
f 52 55 84
f 53 84 55
f 53 55 54
f 56 85 86
f 56 86 87
f 56 87 57
f 56 60 85
f 57 87 88
f 57 88 89
f 57 89 58
f 58 89 59
f 59 89 90
f 59 90 91
f 59 91 92
f 59 92 61
f 60 93 94
f 60 94 95
f 60 95 85
f 60 83 96
f 60 96 97
f 60 97 93
f 62 98 99
f 62 99 63
f 63 100 64
f 63 64 65
f 63 99 98
f 63 98 101
f 63 101 102
f 63 102 103
f 63 103 100
f 64 100 105
f 64 105 104
f 66 106 107
f 66 107 67
f 67 107 108
f 67 108 109
f 67 109 68
f 68 110 111
f 68 111 69
f 68 109 112
f 68 112 167
f 68 167 110
f 69 113 114
f 69 114 70
f 69 111 168
f 69 168 113
f 70 114 115
f 70 115 72
f 71 72 116
f 72 115 116
f 73 117 76
f 74 118 75
f 74 78 119
f 74 119 120
f 74 120 121
f 74 121 122
f 74 122 118
f 75 123 124
f 75 124 125
f 75 125 79
f 75 118 126
f 75 126 123
f 76 117 127
f 76 127 128
f 76 128 129
f 76 129 77
f 77 129 130
f 77 130 78
f 78 130 131
f 78 131 132
f 78 132 119
f 79 125 133
f 79 133 134
f 79 134 80
f 80 134 135
f 80 135 136
f 80 136 137
f 80 137 138
f 80 138 81
f 81 138 97
f 81 97 96
f 81 96 83
f 81 83 82
f 85 139 140
f 85 140 86
f 85 95 141
f 85 141 142
f 85 142 143
f 85 143 144
f 85 144 145
f 85 145 146
f 85 146 139
f 86 140 103
f 86 103 102
f 86 102 101
f 86 101 87
f 87 147 148
f 87 148 88
f 87 101 149
f 87 149 147
f 88 150 89
f 89 150 90
f 93 151 95
f 93 95 94
f 93 97 152
f 93 152 153
f 93 153 154
f 93 154 151
f 95 142 141
f 95 151 142
f 97 138 152
f 98 155 101
f 100 103 105
f 101 155 149
f 103 156 157
f 103 157 105
f 103 140 158
f 103 158 159
f 103 159 156
f 104 105 160
f 105 157 160
f 106 161 162
f 106 162 107
f 106 163 161
f 107 162 108
f 108 164 165
f 108 165 109
f 108 162 166
f 108 166 164
f 109 165 112
f 110 167 168
f 110 168 111
f 112 165 169
f 112 169 170
f 112 170 167
f 113 171 172
f 113 172 173
f 113 173 114
f 113 168 171
f 118 122 126
f 119 132 174
f 119 174 175
f 119 175 120
f 120 175 176
f 120 176 177
f 120 177 178
f 120 178 179
f 120 179 122
f 120 122 121
f 122 179 180
f 122 180 181
f 122 181 126
f 123 182 183
f 123 183 184
f 123 184 124
f 123 126 185
f 123 185 182
f 124 184 186
f 124 186 187
f 124 187 133
f 124 133 125
f 126 181 188
f 126 188 189
f 126 189 185
f 128 190 129
f 129 190 191
f 129 191 192
f 129 192 130
f 130 192 193
f 130 193 131
f 131 174 132
f 133 187 194
f 133 194 195
f 133 195 134
f 134 195 196
f 134 196 197
f 134 197 135
f 135 197 198
f 135 198 136
f 136 153 137
f 136 198 151
f 136 151 153
f 137 153 152
f 137 152 138
f 139 199 158
f 139 158 140
f 139 146 199
f 142 144 143
f 142 151 200
f 142 200 201
f 142 201 202
f 142 202 144
f 144 202 197
f 144 197 145
f 145 197 146
f 146 197 195
f 146 195 203
f 146 203 204
f 146 204 199
f 147 149 148
f 148 149 205
f 149 155 206
f 149 206 205
f 151 198 201
f 151 201 200
f 151 154 153
f 156 159 204
f 156 204 157
f 157 204 207
f 157 207 160
f 158 199 204
f 158 204 159
f 161 163 208
f 161 208 164
f 161 164 162
f 162 164 166
f 163 209 208
f 164 203 165
f 164 208 210
f 164 210 211
f 164 211 203
f 165 203 195
f 165 195 169
f 167 170 212
f 167 212 168
f 168 212 171
f 169 195 170
f 170 213 212
f 170 195 214
f 170 214 215
f 170 215 216
f 170 216 213
f 171 212 217
f 171 217 218
f 171 218 172
f 175 219 176
f 176 219 177
f 177 219 178
f 178 180 179
f 181 220 189
f 181 189 188
f 182 185 221
f 182 221 222
f 182 222 183
f 183 222 184
f 184 222 186
f 185 189 221
f 186 222 223
f 186 223 187
f 187 223 214
f 187 214 194
f 189 217 224
f 189 224 225
f 189 225 221
f 189 220 226
f 189 226 218
f 189 218 217
f 191 227 192
f 192 227 193
f 194 214 195
f 195 197 196
f 197 202 201
f 197 201 198
f 203 211 204
f 204 211 228
f 204 228 229
f 204 229 207
f 207 230 231
f 207 229 230
f 208 209 232
f 208 232 210
f 210 232 233
f 210 233 234
f 210 234 229
f 210 229 228
f 210 228 211
f 212 213 217
f 213 235 217
f 213 216 215
f 213 215 235
f 214 223 236
f 214 236 215
f 215 236 235
f 217 235 224
f 221 225 237
f 221 237 222
f 222 237 238
f 222 238 223
f 223 238 236
f 224 235 239
f 224 239 240
f 224 240 225
f 225 240 237
f 229 234 233
f 229 233 230
f 230 233 241
f 230 241 231
f 235 236 239
f 236 238 237
f 236 237 240
f 236 240 239

