# https://github.com/mikedh/trimesh
v 0.02943241 0.05069659 -0.15373905
v 0.04140946 0.05069659 -0.15373905
v 0.06232926 0.05069659 -0.09826890
v 0.05381362 0.12842390 -0.15373905
v 0.07538299 0.05069659 -0.10778179
v 0.06515890 0.08295854 -0.15373905
v 0.08111347 0.05069659 -0.09826890
v 0.10301206 0.16123843 -0.09826890
v 0.05639412 0.13085765 -0.15121965
v 0.05383142 0.12844741 -0.15373905
v 0.06835337 0.08730873 -0.15373905
v 0.06882498 0.08795539 -0.15373905
v 0.07073811 0.08927219 -0.15241419
v 0.07899568 0.05422378 -0.10626689
v 0.07765204 0.05069659 -0.10443707
v 0.08071305 0.05069659 -0.09917566
v 0.08178084 0.05151960 -0.09826890
v 0.10461375 0.16377801 -0.09826890
v 0.05600259 0.13118686 -0.15373905
v 0.10175742 0.16215549 -0.10227603
v 0.07026650 0.08998939 -0.15373905
v 0.08813418 0.09468054 -0.13349700
v 0.09739727 0.09431607 -0.12031905
v 0.08817868 0.06752124 -0.10651666
v 0.08307108 0.05933819 -0.10551215
v 0.10254935 0.09337548 -0.11220702
v 0.10149936 0.09036562 -0.11068127
v 0.07852408 0.05069659 -0.10300363
v 0.07987661 0.05069659 -0.10071770
v 0.08227024 0.05218976 -0.09826890
v 0.10709637 0.16603540 -0.09826890
v 0.10432011 0.16395438 -0.09974036
v 0.05720386 0.13219798 -0.15373905
v 0.10147267 0.16242592 -0.10527868
v 0.07171691 0.09237611 -0.15373905
v 0.10148157 0.09496271 -0.11521509
v 0.07462664 0.09463350 -0.15156172
v 0.07376350 0.09626777 -0.15373905
v 0.09707693 0.09934817 -0.12439677
v 0.10120572 0.10017118 -0.11936884
v 0.10232690 0.09797257 -0.11636619
v 0.09222739 0.07270620 -0.10569134
v 0.10238030 0.08909583 -0.10767862
v 0.10393748 0.09700847 -0.11312465
v 0.10554808 0.09605613 -0.10963333
v 0.10396418 0.09243490 -0.10865597
v 0.08404990 0.05476461 -0.09826890
v 0.09799346 0.07988990 -0.10425247
v 0.08899732 0.06193654 -0.09826890
v 0.10782603 0.16662326 -0.09826890
v 0.05934834 0.13398509 -0.15373905
v 0.10706078 0.16620000 -0.09974036
v 0.10124131 0.16257876 -0.10875914
v 0.09777099 0.10234628 -0.12531982
v 0.07390588 0.09658521 -0.15373905
v 0.08382744 0.10776637 -0.14727767
v 0.08489522 0.10610861 -0.14485601
v 0.09689897 0.11325702 -0.13316579
v 0.10189088 0.10318104 -0.12029733
v 0.10622434 0.09906600 -0.11103962
v 0.10133920 0.08608598 -0.10587595
v 0.10554808 0.09124742 -0.10425247
v 0.10327012 0.08768497 -0.10431761
v 0.10297647 0.08333477 -0.09961547
v 0.10625993 0.09449242 -0.10662526
v 0.10193539 0.08072466 -0.09826890
v 0.10935652 0.16746978 -0.09826890
v 0.10687391 0.16643514 -0.10875914
v 0.10697180 0.16634108 -0.10425247
v 0.06268518 0.13652466 -0.15373905
v 0.10395528 0.16454223 -0.10875914
v 0.09865193 0.16117965 -0.11778336
v 0.09293924 0.15751138 -0.12678584
v 0.07485799 0.09879558 -0.15373905
v 0.07900458 0.10405108 -0.15139884
v 0.08958461 0.13732415 -0.15373905
v 0.08864139 0.11159924 -0.14311850
v 0.09572440 0.11480898 -0.13567977
v 0.09277018 0.11243401 -0.13818286
v 0.09754854 0.11626688 -0.13408342
v 0.10146377 0.10913023 -0.12415243
v 0.10966796 0.10476827 -0.10405156
v 0.10891160 0.10135867 -0.10425247
v 0.11050440 0.10001834 -0.09826890
v 0.10773704 0.09684388 -0.10425247
v 0.10655358 0.09727889 -0.10838449
v 0.10179301 0.11212832 -0.12475513
v 0.09783329 0.14314400 -0.14349315
v 0.11077134 0.15757017 -0.12012357
v 0.11536284 0.16196738 -0.11124596
v 0.11992764 0.16644691 -0.10233033
v 0.11582555 0.12841214 -0.09882815
v 0.11545183 0.12462630 -0.09826890
v 0.11307599 0.11487952 -0.09974036
v 0.10994381 0.10604982 -0.10397554
v 0.10615315 0.09022453 -0.10182537
v 0.10545909 0.08762617 -0.10008243
v 0.10535231 0.08596840 -0.09826890
v 0.10366163 0.08332301 -0.09826890
v 0.10287859 0.08210026 -0.09826890
v 0.10911626 0.09684388 -0.09974036
v 0.10952559 0.09674981 -0.09826890
v 0.10661586 0.09349305 -0.10425247
v 0.11297812 0.16898647 -0.09826890
v 0.10395528 0.16474210 -0.11778336
v 0.10075192 0.16289622 -0.12229004
v 0.10913406 0.16735221 -0.10875914
v 0.10711416 0.16645867 -0.11327125
v 0.06662711 0.13917005 -0.15373905
v 0.08731554 0.15385488 -0.13580464
v 0.07201945 0.14299116 -0.14934097
v 0.10090318 0.16280216 -0.11778336
v 0.09519941 0.15914565 -0.12678584
v 0.07604146 0.10167611 -0.15373905
v 0.08986045 0.14198002 -0.15373905
v 0.09206722 0.14193299 -0.15097532
v 0.09332187 0.11487952 -0.13881271
v 0.10090318 0.11487952 -0.12745371
v 0.11081584 0.10766056 -0.10229232
v 0.11046881 0.10475652 -0.10150501
v 0.11117177 0.10476827 -0.09925710
v 0.11263108 0.11037649 -0.09826890
v 0.09783329 0.14494286 -0.14349315
v 0.10268283 0.15095083 -0.13498475
v 0.11077134 0.15811101 -0.12012357
v 0.11536284 0.16317838 -0.11124596
v 0.11992764 0.16716409 -0.10233033
v 0.12033697 0.16884539 -0.09826890
v 0.12018570 0.16618824 -0.09974036
v 0.11665308 0.13291518 -0.09826890
v 0.11603912 0.12841214 -0.09826890
v 0.11557640 0.12541404 -0.09826890
v 0.11442853 0.11938256 -0.09826890
v 0.11354761 0.11489128 -0.09826890
v 0.10660696 0.08899003 -0.09881730
v 0.10578832 0.08667384 -0.09826890
v 0.10731883 0.09196460 -0.10008243
v 0.10790610 0.09210569 -0.09826890
v 0.11895774 0.17080885 -0.09826890
v 0.11297812 0.16896296 -0.09974036
v 0.10395528 0.16435412 -0.12229004
v 0.10101886 0.16270810 -0.12595510
v 0.09286807 0.15764071 -0.13129252
v 0.11297812 0.16876310 -0.10425247
v 0.10936542 0.16715235 -0.11327125
v 0.06882498 0.14052214 -0.15373905
v 0.07427071 0.14447257 -0.14934097
v 0.08750241 0.15365499 -0.13884529
v 0.08979817 0.14206234 -0.15373905
v 0.10666036 0.16287269 -0.12516236
v 0.10704298 0.15996866 -0.12583564
v 0.10596628 0.15545386 -0.12870254
v 0.10949000 0.15975703 -0.12189367
v 0.11499801 0.16618824 -0.11088217
v 0.11056668 0.16112086 -0.11977064
v 0.11605691 0.16754033 -0.10787953
v 0.11993654 0.17035033 -0.09826890
v 0.12014121 0.16879836 -0.09937114
v 0.12028357 0.16609418 -0.09826890
v 0.10724764 0.09029508 -0.09826890
v 0.10668705 0.08877839 -0.09826890
v 0.11095821 0.16690545 -0.11587210
v 0.11000609 0.16690545 -0.11587210
v 0.10395528 0.16307257 -0.12606370
v 0.09582229 0.15793465 -0.13374677
v 0.08304439 0.14884627 -0.14736997
v 0.06999065 0.14116877 -0.15373905
v 0.07456435 0.14423743 -0.15170833
v 0.08575835 0.14495462 -0.15373905
v 0.08902401 0.14451960 -0.15224046
v 0.08565158 0.14498989 -0.15373905
v 0.08154058 0.14529558 -0.15373905
v 0.08149610 0.14763528 -0.14905861
v 0.07279360 0.14272074 -0.15346757
v 0.07277580 0.14260316 -0.15373905
v 0.07690459 0.14467244 -0.15253365
v 0.07690459 0.14411986 -0.15373905
v 0.07610375 0.14382592 -0.15373905
f 1 2 5
f 1 5 15
f 1 15 28
f 1 28 29
f 1 29 16
f 1 16 7
f 1 7 3
f 1 3 4
f 1 4 10
f 1 10 19
f 1 19 33
f 1 33 51
f 1 51 70
f 1 70 109
f 1 109 146
f 1 146 167
f 1 167 175
f 1 175 178
f 1 178 177
f 1 177 172
f 1 172 171
f 1 171 169
f 1 169 149
f 1 149 115
f 1 115 76
f 1 76 114
f 1 114 74
f 1 74 55
f 1 55 38
f 1 38 35
f 1 35 21
f 1 21 12
f 1 12 11
f 1 11 6
f 1 6 2
f 2 6 5
f 3 7 17
f 3 17 30
f 3 30 47
f 3 47 49
f 3 49 66
f 3 66 100
f 3 100 99
f 3 99 98
f 3 98 136
f 3 136 161
f 3 161 160
f 3 160 138
f 3 138 102
f 3 102 84
f 3 84 122
f 3 122 134
f 3 134 133
f 3 133 93
f 3 93 132
f 3 132 131
f 3 131 130
f 3 130 159
f 3 159 128
f 3 128 157
f 3 157 139
f 3 139 104
f 3 104 67
f 3 67 50
f 3 50 31
f 3 31 18
f 3 18 8
f 3 8 9
f 3 9 4
f 4 9 10
f 5 6 11
f 5 11 12
f 5 12 13
f 5 13 14
f 5 14 15
f 7 16 17
f 8 18 9
f 9 19 10
f 9 18 20
f 9 20 19
f 12 21 13
f 13 21 22
f 13 22 23
f 13 23 14
f 14 24 25
f 14 25 15
f 14 23 26
f 14 26 27
f 14 27 24
f 15 25 28
f 16 29 30
f 16 30 17
f 18 31 32
f 18 32 20
f 19 20 32
f 19 32 34
f 19 34 33
f 21 35 22
f 22 36 23
f 22 35 37
f 22 37 38
f 22 38 39
f 22 39 40
f 22 40 41
f 22 41 36
f 23 36 26
f 24 42 29
f 24 29 25
f 24 27 43
f 24 43 42
f 25 29 28
f 26 36 44
f 26 44 45
f 26 45 46
f 26 46 27
f 27 46 43
f 29 47 30
f 29 42 48
f 29 48 49
f 29 49 47
f 31 50 34
f 31 34 32
f 33 34 51
f 34 50 52
f 34 52 53
f 34 53 51
f 35 38 37
f 36 41 44
f 38 54 39
f 38 55 56
f 38 56 57
f 38 57 58
f 38 58 54
f 39 54 40
f 40 54 59
f 40 59 41
f 41 59 60
f 41 60 44
f 42 43 61
f 42 61 48
f 43 46 62
f 43 62 63
f 43 63 64
f 43 64 61
f 44 60 45
f 45 65 46
f 45 60 65
f 46 65 62
f 48 64 49
f 48 61 64
f 49 64 66
f 50 67 68
f 50 68 69
f 50 69 52
f 51 53 70
f 52 69 71
f 52 71 53
f 53 71 72
f 53 72 73
f 53 73 70
f 54 58 59
f 55 74 75
f 55 75 56
f 56 76 77
f 56 77 78
f 56 78 79
f 56 79 57
f 56 75 76
f 57 79 58
f 58 79 78
f 58 78 80
f 58 80 59
f 59 80 81
f 59 81 60
f 60 82 83
f 60 83 84
f 60 84 85
f 60 85 86
f 60 86 65
f 60 81 87
f 60 87 88
f 60 88 89
f 60 89 90
f 60 90 91
f 60 91 92
f 60 92 93
f 60 93 94
f 60 94 95
f 60 95 82
f 62 96 97
f 62 97 63
f 62 65 96
f 63 97 64
f 64 98 99
f 64 99 100
f 64 100 66
f 64 97 98
f 65 86 85
f 65 85 101
f 65 101 102
f 65 102 103
f 65 103 96
f 67 104 68
f 68 105 106
f 68 106 71
f 68 71 69
f 68 104 107
f 68 107 108
f 68 108 105
f 70 73 110
f 70 110 111
f 70 111 109
f 71 106 112
f 71 112 72
f 72 112 113
f 72 113 73
f 73 113 110
f 74 114 75
f 75 114 76
f 76 115 116
f 76 116 88
f 76 88 80
f 76 80 117
f 76 117 77
f 77 117 78
f 78 117 80
f 80 88 118
f 80 118 87
f 80 87 81
f 82 95 94
f 82 94 119
f 82 119 83
f 83 119 120
f 83 120 84
f 84 102 101
f 84 101 85
f 84 120 121
f 84 121 122
f 87 118 88
f 88 116 123
f 88 123 124
f 88 124 89
f 89 124 125
f 89 125 126
f 89 126 90
f 90 126 127
f 90 127 91
f 91 127 128
f 91 128 129
f 91 129 130
f 91 130 131
f 91 131 92
f 92 131 132
f 92 132 93
f 93 133 94
f 94 133 134
f 94 134 119
f 96 135 136
f 96 136 97
f 96 103 137
f 96 137 135
f 97 136 98
f 102 138 103
f 103 138 137
f 104 139 140
f 104 140 107
f 105 108 141
f 105 141 142
f 105 142 106
f 106 142 143
f 106 143 113
f 106 113 112
f 107 140 144
f 107 144 145
f 107 145 108
f 108 145 141
f 109 111 147
f 109 147 146
f 110 113 143
f 110 143 148
f 110 148 147
f 110 147 111
f 115 149 150
f 115 150 123
f 115 123 116
f 119 134 122
f 119 122 120
f 120 122 121
f 123 150 124
f 124 150 151
f 124 151 152
f 124 152 125
f 125 152 153
f 125 153 126
f 126 154 127
f 126 153 155
f 126 155 154
f 127 156 157
f 127 157 158
f 127 158 128
f 127 154 156
f 128 159 129
f 128 158 157
f 129 159 130
f 135 137 160
f 135 160 161
f 135 161 136
f 137 138 160
f 139 144 140
f 139 157 162
f 139 162 163
f 139 163 145
f 139 145 144
f 141 164 142
f 141 145 163
f 141 163 164
f 142 165 166
f 142 166 148
f 142 148 143
f 142 164 165
f 146 147 168
f 146 168 167
f 147 148 168
f 148 166 168
f 149 169 170
f 149 170 150
f 150 164 162
f 150 162 154
f 150 154 151
f 150 170 169
f 150 169 164
f 151 154 155
f 151 155 153
f 151 153 152
f 154 162 156
f 156 162 157
f 162 164 163
f 164 169 171
f 164 171 172
f 164 172 165
f 165 172 166
f 166 173 168
f 166 172 173
f 167 168 174
f 167 174 175
f 168 173 176
f 168 176 177
f 168 177 178
f 168 178 175
f 168 175 174
f 172 177 173
f 173 177 176

