# https://github.com/mikedh/trimesh
v -0.15892307 -0.05253031 0.09415109
v -0.18016061 -0.04304190 0.09415109
v -0.20501891 -0.05253031 0.09415109
v -0.19672199 -0.05253031 0.00361267
v -0.20024534 -0.04952968 0.00361267
v -0.20270248 -0.04820203 0.00361267
v -0.18466897 -0.04200080 0.09415109
v -0.20504056 -0.05229117 0.09415109
v -0.20545730 -0.05253031 0.09312305
v -0.21339701 -0.05253031 0.00361267
v -0.20707554 -0.04839994 0.00361267
v -0.19661373 -0.04506430 0.05035304
v -0.18917194 -0.04228942 0.09415109
v -0.20546813 -0.05198193 0.09321167
v -0.20506762 -0.05198193 0.09415109
v -0.20708637 -0.05253031 0.08921472
v -0.21411684 -0.05253031 0.03557053
v -0.21037158 -0.04912046 0.05810765
v -0.20933245 -0.04981728 0.00361267
v -0.20726497 -0.04851745 0.00361267
v -0.21036617 -0.04904212 0.06261861
v -0.20393646 -0.04555599 0.08516460
v -0.20158757 -0.04431183 0.09415109
v -0.20153885 -0.04429121 0.09415109
v -0.19819410 -0.04310477 0.09415109
v -0.19364242 -0.04267802 0.09415109
v -0.20519750 -0.04923282 0.09289262
v -0.20685905 -0.05198193 0.08967557
v -0.20411506 -0.04781651 0.09415109
v -0.20870462 -0.05253031 0.08478352
v -0.21421427 -0.05253031 0.04007264
v -0.21031746 -0.04898131 0.06712958
v -0.20397435 -0.04757531 0.09415109
v -0.21002521 -0.04914314 0.07164056
v -0.20410965 -0.04620745 0.08967557
v -0.20559260 -0.04846179 0.08967557
v -0.20929998 -0.05007497 0.07771131
v -0.20894276 -0.05081508 0.08065363
v -0.20990072 -0.05253031 0.08012189
v -0.20977083 -0.05253031 0.08065363
v -0.20934868 -0.05253031 0.08230203
v -0.21411684 -0.05253031 0.04458360
v -0.21229292 -0.05198193 0.06712958
v -0.21388952 -0.05253031 0.04908571
v -0.21361350 -0.05253031 0.05359668
v -0.21164887 -0.05198193 0.07164056
v -0.20966259 -0.04946268 0.07470695
v -0.21047442 -0.05173970 0.07618698
v -0.21020922 -0.05253031 0.07884569
v -0.21263930 -0.05253031 0.06640287
v -0.21255812 -0.05253031 0.06712958
v -0.21203314 -0.05253031 0.07078090
v -0.21190324 -0.05253031 0.07164056
v -0.21106435 -0.05253031 0.07524756
f 1 2 7
f 1 7 13
f 1 13 26
f 1 26 25
f 1 25 24
f 1 24 23
f 1 23 33
f 1 33 29
f 1 29 15
f 1 15 8
f 1 8 3
f 1 3 9
f 1 9 16
f 1 16 30
f 1 30 41
f 1 41 40
f 1 40 39
f 1 39 49
f 1 49 54
f 1 54 53
f 1 53 52
f 1 52 51
f 1 51 50
f 1 50 45
f 1 45 44
f 1 44 42
f 1 42 31
f 1 31 17
f 1 17 10
f 1 10 4
f 1 4 5
f 1 5 6
f 1 6 2
f 2 6 7
f 3 8 9
f 4 10 19
f 4 19 20
f 4 20 11
f 4 11 6
f 4 6 5
f 6 11 12
f 6 12 7
f 7 12 13
f 8 14 9
f 8 15 14
f 9 14 16
f 10 17 18
f 10 18 19
f 11 20 18
f 11 18 21
f 11 21 22
f 11 22 23
f 11 23 24
f 11 24 25
f 11 25 12
f 12 25 26
f 12 26 13
f 14 15 27
f 14 27 28
f 14 28 16
f 15 29 27
f 16 28 30
f 17 31 18
f 18 31 21
f 18 20 19
f 21 31 32
f 21 32 22
f 22 32 23
f 23 32 34
f 23 34 35
f 23 35 33
f 27 29 36
f 27 36 37
f 27 37 38
f 27 38 39
f 27 39 40
f 27 40 41
f 27 41 30
f 27 30 28
f 29 33 36
f 31 42 32
f 32 43 34
f 32 42 44
f 32 44 45
f 32 45 43
f 33 35 36
f 34 43 46
f 34 46 47
f 34 47 35
f 35 47 36
f 36 47 37
f 37 47 46
f 37 46 48
f 37 48 39
f 37 39 38
f 39 48 49
f 43 45 50
f 43 50 51
f 43 51 46
f 46 51 52
f 46 52 53
f 46 53 54
f 46 54 48
f 48 54 49

