# https://github.com/mikedh/trimesh
v 0.07873607 0.05069664 0.00944015
v 0.09187329 0.05069664 0.00944015
v 0.00472090 -0.00462564 0.02109564
v 0.12531579 0.10943538 0.00944015
v 0.03411244 -0.00462564 0.02109564
v 0.09213831 0.05099809 0.00944015
v 0.09514183 0.03403855 0.02108430
v 0.00613432 -0.00462564 0.11822851
v 0.09780461 0.10943538 0.12526941
v 0.13301386 0.10943538 0.00944015
v 0.06861499 -0.00462564 0.09452070
v 0.09514183 0.01432127 0.05906669
v 0.12079789 0.08430310 0.00944015
v 0.12304422 0.08713900 0.00944015
v 0.12341020 0.08761909 0.00944015
v 0.12474789 0.08939431 0.00944015
v 0.12641372 0.09166080 0.00944015
v 0.12862216 0.09493212 0.00944015
v 0.02517761 -0.00462564 0.11822851
v 0.06575029 0.05069664 0.12526941
v 0.10758495 0.10943538 0.12526941
v 0.13361962 0.10943538 0.02754698
v 0.13326627 0.10810675 0.02879416
v 0.13032584 0.10041411 0.00944015
v 0.06861499 -0.00462564 0.10220788
v 0.09514183 0.01432127 0.07491725
v 0.12869789 0.09474232 0.01218395
v 0.12876099 0.09457485 0.01517719
v 0.12887457 0.09430689 0.02204803
v 0.12893766 0.09415057 0.02654923
v 0.12931627 0.09710928 0.00944015
v 0.04371611 -0.00462564 0.11478175
v 0.07378911 0.05069664 0.12526941
v 0.10658800 0.10585143 0.12526941
v 0.10931386 0.10943538 0.12277506
v 0.13348080 0.10943538 0.02982592
v 0.13326627 0.10810675 0.02880549
v 0.12979582 0.09683017 0.02654923
v 0.12966962 0.09683017 0.02204803
v 0.09173448 0.07027994 0.12526941
v 0.09141898 0.06974402 0.12526941
v 0.08943766 0.06674065 0.12526941
v 0.08916003 0.06642804 0.12526941
v 0.10586867 0.09988936 0.12282041
v 0.10353399 0.09739958 0.12526941
v 0.10108575 0.09164963 0.12526941
v 0.09372841 0.07450029 0.12526941
v 0.09340029 0.07377456 0.12526941
v 0.12888718 0.09423990 0.02942909
v 0.12935413 0.09672967 0.03098240
v 0.13298862 0.10899995 0.03182141
v 0.13234502 0.10943538 0.03564233
v 0.12383927 0.10943538 0.07569958
v 0.12174438 0.10943538 0.08514415
v 0.12000284 0.10943538 0.09295605
v 0.11962426 0.10943538 0.09460006
v 0.11928351 0.10943538 0.09605134
v 0.11653239 0.10943538 0.10770682
v 0.11630525 0.10943538 0.10864788
v 0.11556068 0.10943538 0.11114224
v 0.11477825 0.10943538 0.11311506
v 0.11470252 0.10933489 0.11319442
v 0.11462682 0.10943538 0.11343253
v 0.11313768 0.10943538 0.11647111
v 0.11162329 0.10600774 0.11667520
v 0.11092921 0.10760433 0.11931697
v 0.08700205 0.06421738 0.12526941
v 0.10560365 0.10285923 0.12526941
v 0.10651227 0.10288156 0.12395421
v 0.10700445 0.10585143 0.12463448
v 0.11125731 0.10943538 0.11979315
v 0.13319054 0.10943538 0.03145859
v 0.10519981 0.10166458 0.12526941
v 0.13305174 0.10943538 0.03216155
v 0.11471514 0.10943538 0.11325111
v 0.11256978 0.10943538 0.11758224
f 1 2 5
f 1 5 3
f 1 3 4
f 1 4 10
f 1 10 24
f 1 24 31
f 1 31 18
f 1 18 17
f 1 17 16
f 1 16 15
f 1 15 14
f 1 14 13
f 1 13 6
f 1 6 2
f 2 6 7
f 2 7 5
f 3 5 11
f 3 11 25
f 3 25 32
f 3 32 19
f 3 19 8
f 3 8 9
f 3 9 4
f 4 9 21
f 4 21 35
f 4 35 71
f 4 71 76
f 4 76 64
f 4 64 63
f 4 63 75
f 4 75 61
f 4 61 60
f 4 60 59
f 4 59 58
f 4 58 57
f 4 57 56
f 4 56 55
f 4 55 54
f 4 54 53
f 4 53 52
f 4 52 74
f 4 74 72
f 4 72 36
f 4 36 22
f 4 22 10
f 5 7 12
f 5 12 11
f 6 13 7
f 7 13 14
f 7 14 15
f 7 15 16
f 7 16 17
f 7 17 18
f 7 18 12
f 8 19 33
f 8 33 20
f 8 20 9
f 9 20 33
f 9 33 67
f 9 67 43
f 9 43 42
f 9 42 41
f 9 41 40
f 9 40 48
f 9 48 47
f 9 47 46
f 9 46 45
f 9 45 73
f 9 73 68
f 9 68 34
f 9 34 21
f 10 22 23
f 10 23 24
f 11 12 26
f 11 26 25
f 12 18 27
f 12 27 28
f 12 28 29
f 12 29 30
f 12 30 26
f 18 31 27
f 19 32 33
f 21 34 35
f 22 36 37
f 22 37 23
f 23 37 38
f 23 38 39
f 23 39 24
f 24 39 28
f 24 28 31
f 25 40 41
f 25 41 42
f 25 42 43
f 25 43 32
f 25 26 40
f 26 44 45
f 26 45 46
f 26 46 47
f 26 47 48
f 26 48 40
f 26 30 49
f 26 49 50
f 26 50 51
f 26 51 52
f 26 52 53
f 26 53 54
f 26 54 55
f 26 55 56
f 26 56 57
f 26 57 58
f 26 58 59
f 26 59 60
f 26 60 61
f 26 61 62
f 26 62 63
f 26 63 64
f 26 64 65
f 26 65 66
f 26 66 44
f 27 31 28
f 28 39 29
f 29 39 38
f 29 38 30
f 30 38 49
f 32 43 67
f 32 67 33
f 34 68 69
f 34 69 70
f 34 70 35
f 35 70 71
f 36 72 37
f 37 72 49
f 37 49 38
f 44 66 69
f 44 69 45
f 45 69 73
f 49 72 51
f 49 51 50
f 51 72 74
f 51 74 52
f 61 75 62
f 62 75 63
f 64 76 65
f 65 76 66
f 66 76 71
f 66 71 69
f 68 73 69
f 69 71 70

