# https://github.com/mikedh/trimesh
v 0.00001866 -0.01387046 0.02722425
v -0.00003853 -0.01387046 0.02721942
v -0.00251649 -0.01680290 0.02668585
v -0.00195771 -0.01979857 0.02639371
v 0.00001866 -0.01680290 0.02687899
v 0.00159281 -0.01856552 0.02622228
v 0.00175407 -0.01680290 0.02635749
v 0.00192377 -0.01387046 0.02651684
v -0.00280432 -0.01387046 0.02686934
v -0.00430253 -0.01387046 0.02586737
v -0.00401470 -0.01680290 0.02557282
v -0.00181801 -0.03425524 0.02338781
v -0.00156581 -0.02146634 0.02620297
v -0.00135205 -0.03625498 0.02316327
v -0.00127142 -0.02146634 0.02620297
v 0.00156187 -0.03638935 0.02319466
v 0.00219285 -0.03178124 0.02362441
v 0.00181126 -0.03477691 0.02334918
v 0.00244786 -0.02878557 0.02385619
v 0.00261287 -0.02578990 0.02406383
v 0.00286226 -0.01680290 0.02466501
v 0.00298133 -0.01387046 0.02466501
v 0.00268600 -0.02279423 0.02428837
v -0.00432034 -0.01387046 0.02583357
v -0.00470849 -0.01979857 0.02369202
v -0.00458661 -0.02204334 0.02338298
v -0.00208521 -0.09461915 0.00881221
v -0.00158831 -0.06061554 0.01726495
v -0.00020448 -0.03506146 0.02344334
v 0.00064401 -0.03638935 0.02319466
v -0.00020448 -0.03754336 0.02290735
v 0.00001866 -0.09461915 0.00974658
v 0.00157500 -0.07532514 0.01421317
v 0.00174376 -0.04883047 0.02030223
v 0.00209534 -0.04675959 0.02053401
v 0.00250037 -0.04376392 0.02088651
v 0.00277694 -0.04076825 0.02122452
v 0.00453580 -0.05150997 0.01721666
v 0.00363762 -0.03178124 0.02167119
v 0.00385701 -0.02878557 0.02167119
v 0.00390482 -0.02578990 0.02167119
v 0.00378575 -0.02279423 0.02167119
v 0.00351949 -0.01979857 0.02167119
v 0.00297008 -0.01387046 0.02167119
v -0.00481818 -0.01387046 0.02437046
v -0.00479193 -0.01680290 0.02407590
v -0.00302277 -0.09167881 0.00669480
v -0.00292526 -0.09461915 0.00669480
v -0.00291026 -0.09461915 0.00674309
v -0.00203927 -0.09461915 0.00883636
v 0.00001866 -0.04076825 0.02217096
v 0.00132092 -0.07532514 0.01421317
v 0.00283320 -0.09461915 0.00912367
v 0.00163875 -0.08749752 0.01125073
v 0.00192283 -0.06120045 0.01740257
v 0.00235317 -0.05872645 0.01768988
v 0.00272913 -0.05573869 0.01804479
v 0.00449829 -0.06609311 0.01408763
v 0.00457611 -0.04975526 0.01730358
v 0.00457892 -0.06410127 0.01430492
v 0.00471487 -0.07370479 0.01162738
v 0.00460893 -0.04675959 0.01742429
v 0.00457517 -0.04376392 0.01739532
v 0.00452830 -0.04207243 0.01726736
v 0.00452830 -0.04207243 0.01713698
v 0.00191346 -0.01387046 0.01983626
v 0.00459955 -0.06542916 0.01102620
v 0.00450204 -0.07529353 0.00825208
v -0.00481818 -0.01387046 0.02240998
v -0.00479193 -0.01680290 0.02233997
v -0.00301339 -0.08868314 0.00669480
v -0.00233460 -0.09461915 0.00401967
v 0.00287820 -0.09461915 0.00907055
v 0.00457049 -0.09085678 0.00828347
v 0.00475987 -0.07070913 0.01190020
v 0.00463518 -0.08868314 0.00841143
v 0.00469049 -0.08568747 0.00859251
v 0.00460893 -0.04675959 0.01681829
v 0.00457517 -0.04376392 0.01699454
v 0.00470174 -0.06771345 0.01077269
v 0.00001866 -0.01387046 0.01930751
v 0.00232692 -0.08269180 0.00472467
v 0.00190971 -0.08025733 0.00499025
v 0.00458361 -0.07729328 0.00806376
v 0.00449736 -0.09061966 0.00534034
v 0.00419078 -0.08568747 0.00594635
v 0.00269256 -0.08568747 0.00443495
v -0.00480037 -0.01387046 0.02237618
v -0.00210678 -0.08868314 0.00454601
v -0.00231866 -0.09461915 0.00397139
v -0.00289432 -0.08568747 0.00669480
v 0.00432672 -0.09461915 0.00705455
v 0.00447298 -0.09285652 0.00750362
v 0.00454048 -0.09461915 0.00556005
v 0.00470456 -0.08269180 0.00882670
v 0.00475987 -0.07070913 0.01047330
v 0.00469049 -0.08568747 0.00744568
v 0.00465862 -0.07969613 0.00787785
v -0.00232523 -0.01387046 0.01963345
v 0.00055775 -0.08025733 0.00499025
v -0.00023542 -0.09461915 0.00255898
v 0.00001866 -0.08568747 0.00402933
v 0.00470456 -0.08269180 0.00766056
v 0.00452361 -0.09261940 0.00517616
v 0.00286132 -0.09461915 0.00350541
v 0.00291570 -0.08868314 0.00423214
v 0.00272257 -0.09461915 0.00346195
v -0.00388063 -0.01387046 0.02091066
v -0.00190333 -0.08568747 0.00479228
v -0.00033105 -0.09461915 0.00260727
v 0.00454048 -0.09461915 0.00513995
v -0.00238336 -0.01387046 0.01964552
v -0.00025604 -0.08242306 0.00470777
v -0.00143830 -0.08124535 0.00520996
v -0.00168206 -0.08324510 0.00501440
v -0.00384688 -0.01387046 0.02088168
f 1 2 3
f 1 3 4
f 1 4 5
f 1 5 6
f 1 6 7
f 1 7 8
f 1 8 22
f 1 22 44
f 1 44 66
f 1 66 81
f 1 81 99
f 1 99 112
f 1 112 116
f 1 116 108
f 1 108 88
f 1 88 69
f 1 69 45
f 1 45 24
f 1 24 10
f 1 10 9
f 1 9 2
f 2 9 3
f 3 9 10
f 3 10 11
f 3 11 12
f 3 12 4
f 4 13 5
f 4 12 14
f 4 14 13
f 5 13 15
f 5 15 16
f 5 16 6
f 6 17 7
f 6 16 18
f 6 18 17
f 7 17 19
f 7 19 20
f 7 20 8
f 8 21 22
f 8 20 23
f 8 23 21
f 10 24 25
f 10 25 26
f 10 26 11
f 11 26 27
f 11 27 12
f 12 27 28
f 12 28 14
f 13 14 29
f 13 29 30
f 13 30 16
f 13 16 15
f 14 31 30
f 14 30 29
f 14 28 32
f 14 32 31
f 16 30 52
f 16 52 33
f 16 33 34
f 16 34 35
f 16 35 36
f 16 36 18
f 17 18 36
f 17 36 37
f 17 37 38
f 17 38 19
f 19 38 39
f 19 39 20
f 20 39 40
f 20 40 23
f 21 23 40
f 21 40 22
f 22 40 41
f 22 41 42
f 22 42 43
f 22 43 44
f 24 45 46
f 24 46 25
f 25 46 47
f 25 47 48
f 25 48 49
f 25 49 26
f 26 49 27
f 27 49 48
f 27 48 72
f 27 72 90
f 27 90 110
f 27 110 101
f 27 101 107
f 27 107 105
f 27 105 111
f 27 111 94
f 27 94 92
f 27 92 73
f 27 73 53
f 27 53 32
f 27 32 50
f 27 50 28
f 28 50 32
f 30 31 51
f 30 51 32
f 30 32 52
f 31 32 51
f 32 53 54
f 32 54 33
f 32 33 52
f 33 54 53
f 33 53 55
f 33 55 34
f 34 55 56
f 34 56 35
f 35 56 36
f 36 56 57
f 36 57 58
f 36 58 38
f 36 38 37
f 38 59 40
f 38 40 39
f 38 58 60
f 38 60 61
f 38 61 59
f 40 59 62
f 40 62 41
f 41 62 63
f 41 63 64
f 41 64 65
f 41 65 42
f 42 65 43
f 43 65 44
f 44 65 67
f 44 67 68
f 44 68 66
f 45 69 70
f 45 70 46
f 46 70 47
f 47 71 72
f 47 72 48
f 47 70 69
f 47 69 71
f 53 73 74
f 53 74 58
f 53 58 57
f 53 57 56
f 53 56 55
f 58 74 60
f 59 61 75
f 59 75 62
f 60 74 61
f 61 74 76
f 61 76 77
f 61 77 75
f 62 78 79
f 62 79 63
f 62 75 96
f 62 96 78
f 63 79 65
f 63 65 64
f 65 79 80
f 65 80 67
f 66 68 82
f 66 82 83
f 66 83 81
f 67 80 68
f 68 80 84
f 68 84 85
f 68 85 86
f 68 86 87
f 68 87 82
f 69 88 89
f 69 89 90
f 69 90 91
f 69 91 71
f 71 91 90
f 71 90 72
f 73 92 74
f 74 92 93
f 74 93 94
f 74 94 76
f 75 77 95
f 75 95 103
f 75 103 96
f 76 94 77
f 77 94 111
f 77 111 97
f 77 97 103
f 77 103 95
f 78 96 79
f 79 96 80
f 80 96 98
f 80 98 84
f 81 83 100
f 81 100 99
f 82 87 101
f 82 101 83
f 83 101 102
f 83 102 100
f 84 98 85
f 85 98 103
f 85 103 104
f 85 104 105
f 85 105 106
f 85 106 87
f 85 87 86
f 87 106 105
f 87 105 107
f 87 107 101
f 88 108 89
f 89 109 110
f 89 110 90
f 89 108 109
f 92 94 93
f 96 103 98
f 97 111 103
f 99 100 112
f 100 102 113
f 100 113 114
f 100 114 112
f 101 110 115
f 101 115 114
f 101 114 102
f 102 114 113
f 103 111 104
f 104 111 105
f 108 116 115
f 108 115 109
f 109 115 110
f 112 114 116
f 114 115 116

