# https://github.com/mikedh/trimesh
v -0.01390916 -0.10691758 -0.02245004
v -0.01390916 -0.10757750 -0.02616178
v -0.02935578 -0.11365679 -0.02245004
v -0.01390916 -0.12785780 -0.02245004
v -0.01390916 -0.10991483 -0.02894790
v -0.01795417 -0.12087528 -0.04177932
v -0.02094984 -0.12260433 -0.04334592
v -0.02118115 -0.12093057 -0.04110593
v -0.02233391 -0.12016744 -0.03969435
v -0.02394363 -0.12042182 -0.03932874
v -0.02621907 -0.11982827 -0.03723452
v -0.02821618 -0.12025592 -0.03657270
v -0.02920346 -0.11969554 -0.03457567
v -0.02937459 -0.11368997 -0.02245004
v -0.03120057 -0.12030016 -0.03337005
v -0.03168575 -0.11989831 -0.03137303
v -0.03263542 -0.12143565 -0.03232179
v -0.03312059 -0.12163841 -0.02925104
v -0.01980460 -0.13747631 -0.02245004
v -0.01390916 -0.14446254 -0.03931254
v -0.01390916 -0.11975822 -0.04019882
v -0.01495849 -0.11968080 -0.04030758
v -0.01795417 -0.12237206 -0.04354031
v -0.02094984 -0.12407162 -0.04484312
v -0.02307107 -0.12290294 -0.04300113
v -0.02401886 -0.12202183 -0.04142526
v -0.02693931 -0.12249372 -0.04054593
v -0.02710668 -0.12089372 -0.03823419
v -0.02876718 -0.12292875 -0.03999518
v -0.02983343 -0.12232414 -0.03815782
v -0.03009483 -0.12074625 -0.03544113
v -0.03231384 -0.12135823 -0.02597434
v -0.03203929 -0.12463936 -0.02245004
v -0.03170832 -0.12287714 -0.03710493
v -0.03226683 -0.12230939 -0.03523980
v -0.03274637 -0.12431862 -0.03224774
v -0.03273132 -0.12463567 -0.02625666
v -0.03215024 -0.12441815 -0.02303087
v -0.02020891 -0.13792609 -0.02245004
v -0.02130150 -0.13912056 -0.02245004
v -0.02191079 -0.14135468 -0.02678426
v -0.01908436 -0.14431876 -0.03623022
v -0.01495849 -0.14456208 -0.03917832
v -0.01390916 -0.14442936 -0.04127254
v -0.01390916 -0.12117022 -0.04161964
v -0.01495849 -0.12100800 -0.04180477
v -0.01495849 -0.12250478 -0.04329965
v -0.01887186 -0.12565689 -0.04600246
v -0.02094984 -0.12556839 -0.04609039
v -0.02297140 -0.12585595 -0.04593304
v -0.02401698 -0.12458038 -0.04424841
v -0.02506631 -0.12330110 -0.04255221
v -0.02693931 -0.12386148 -0.04204312
v -0.02858101 -0.12592970 -0.04287849
v -0.03193586 -0.12665597 -0.02245004
v -0.03173465 -0.12463567 -0.03716741
v -0.03217657 -0.12484212 -0.03531386
v -0.03155975 -0.12619513 -0.03694295
v -0.03204117 -0.12672600 -0.02326228
v -0.02300149 -0.13912056 -0.02245004
v -0.02269309 -0.14135468 -0.02678426
v -0.01994000 -0.14431876 -0.03623022
v -0.01803315 -0.14458051 -0.03822030
v -0.01795417 -0.14453627 -0.04043022
v -0.01477796 -0.14450309 -0.04136047
v -0.01390916 -0.14423028 -0.04245039
v -0.01390916 -0.12268542 -0.04311452
v -0.01887186 -0.12655643 -0.04600246
v -0.01390916 -0.12463567 -0.04331353
v -0.02124885 -0.12758499 -0.04601634
v -0.02560602 -0.12923662 -0.04582659
v -0.02560602 -0.12877211 -0.04582659
v -0.02496664 -0.12677394 -0.04549336
v -0.02693931 -0.12535825 -0.04341535
v -0.02858101 -0.12675919 -0.04287849
v -0.01965980 -0.14428557 -0.03994890
v -0.02259718 -0.14156114 -0.03451319
v -0.02276267 -0.14173441 -0.03224774
v -0.02283413 -0.14158326 -0.02925104
v -0.01997385 -0.14439987 -0.03823650
v -0.01390916 -0.14393167 -0.04271882
v -0.01390916 -0.14260815 -0.04282527
v -0.01390916 -0.14276299 -0.04281832
v -0.02394363 -0.12920713 -0.04580114
f 1 2 3
f 1 3 14
f 1 14 33
f 1 33 55
f 1 55 60
f 1 60 40
f 1 40 39
f 1 39 19
f 1 19 4
f 1 4 20
f 1 20 44
f 1 44 66
f 1 66 81
f 1 81 83
f 1 83 82
f 1 82 69
f 1 69 67
f 1 67 45
f 1 45 21
f 1 21 5
f 1 5 2
f 2 5 6
f 2 6 7
f 2 7 8
f 2 8 9
f 2 9 10
f 2 10 11
f 2 11 12
f 2 12 13
f 2 13 3
f 3 13 15
f 3 15 16
f 3 16 17
f 3 17 18
f 3 18 14
f 4 19 20
f 5 21 22
f 5 22 23
f 5 23 6
f 6 23 7
f 7 23 24
f 7 24 25
f 7 25 8
f 8 25 9
f 9 25 26
f 9 26 10
f 10 26 27
f 10 27 28
f 10 28 11
f 11 28 12
f 12 28 29
f 12 29 30
f 12 30 31
f 12 31 13
f 13 31 15
f 14 18 32
f 14 32 33
f 15 31 34
f 15 34 35
f 15 35 16
f 16 35 17
f 17 35 18
f 18 35 36
f 18 36 37
f 18 37 38
f 18 38 32
f 19 39 20
f 20 39 40
f 20 40 41
f 20 41 42
f 20 42 43
f 20 43 44
f 21 45 46
f 21 46 22
f 22 46 23
f 23 46 47
f 23 47 48
f 23 48 49
f 23 49 24
f 24 49 50
f 24 50 25
f 25 50 51
f 25 51 52
f 25 52 26
f 26 52 27
f 27 52 29
f 27 29 28
f 29 34 30
f 29 52 53
f 29 53 54
f 29 54 34
f 30 34 31
f 32 38 33
f 33 38 37
f 33 37 55
f 34 56 35
f 34 54 56
f 35 56 57
f 35 57 36
f 36 57 58
f 36 58 59
f 36 59 37
f 37 59 55
f 40 60 61
f 40 61 41
f 41 61 62
f 41 62 42
f 42 62 63
f 42 63 43
f 43 63 64
f 43 64 65
f 43 65 44
f 44 65 66
f 45 67 47
f 45 47 46
f 47 67 48
f 48 68 49
f 48 67 69
f 48 69 68
f 49 68 70
f 49 70 71
f 49 71 72
f 49 72 50
f 50 73 74
f 50 74 51
f 50 72 73
f 51 74 52
f 52 74 53
f 53 74 54
f 54 74 73
f 54 73 72
f 54 72 71
f 54 71 75
f 54 75 56
f 55 59 61
f 55 61 60
f 56 75 58
f 56 58 57
f 58 75 76
f 58 76 77
f 58 77 78
f 58 78 59
f 59 78 79
f 59 79 61
f 61 79 62
f 62 80 63
f 62 79 80
f 63 80 64
f 64 80 76
f 64 76 66
f 64 66 65
f 66 76 81
f 68 82 83
f 68 83 81
f 68 81 70
f 68 69 82
f 70 84 71
f 70 81 84
f 71 84 81
f 71 81 76
f 71 76 75
f 76 80 77
f 77 80 78
f 78 80 79

