# https://github.com/mikedh/trimesh
v 0.01419489 -0.10458676 0.00102107
v 0.01419489 -0.10459196 0.00070461
v 0.01419489 -0.10462840 0.00370009
v 0.02298705 -0.10871486 -0.00072924
v 0.01929940 -0.10698397 -0.00072924
v 0.01419489 -0.10467265 -0.00072924
v 0.01693057 -0.10589858 -0.00072924
v 0.01419489 -0.10486786 0.00669315
v 0.01564654 -0.10557584 0.00669315
v 0.01799322 -0.10674451 0.00669315
v 0.02398328 -0.10928749 0.00070461
v 0.02398328 -0.10919378 -0.00072924
v 0.01419489 -0.11366547 -0.00072924
v 0.01419489 -0.10525309 0.00906665
v 0.01988449 -0.10796004 0.00968864
v 0.02657033 -0.11057850 0.00070461
v 0.02530843 -0.10985490 -0.00072924
v 0.02464744 -0.13001132 0.00741372
v 0.02183584 -0.12695298 0.00742589
v 0.01916973 -0.12360833 0.00765472
v 0.01645618 -0.12019600 0.00803814
v 0.01419489 -0.11644530 0.00669680
v 0.03145662 -0.13117479 -0.00072924
v 0.01419489 -0.10557323 0.01013047
v 0.01954292 -0.10813443 0.01125880
v 0.01799322 -0.10709849 0.00968864
v 0.02138358 -0.10872006 0.00968864
v 0.02744005 -0.11094550 -0.00072924
v 0.02665888 -0.11052904 -0.00072924
v 0.02806626 -0.11137757 0.00070461
v 0.02677590 -0.13117479 0.00644241
v 0.02464744 -0.13001132 0.00874045
v 0.02183584 -0.12695298 0.00870393
v 0.01916973 -0.12360833 0.00849945
v 0.01645618 -0.12019600 0.00823288
v 0.01419489 -0.11571911 0.01170551
v 0.03789577 -0.13117479 -0.00072924
v 0.01419489 -0.10616668 0.01170551
v 0.01886295 -0.10802510 0.01170551
v 0.01933102 -0.10821252 0.01170551
v 0.01999202 -0.10850143 0.01170551
v 0.02528629 -0.11126044 0.01170551
v 0.02546024 -0.11116674 0.01104214
v 0.02427108 -0.11036246 0.00990164
v 0.02815481 -0.11133072 -0.00072924
v 0.02997333 -0.11247336 0.00070461
v 0.03115300 -0.11301736 -0.00072924
v 0.02898026 -0.11178882 -0.00072924
v 0.02689608 -0.13117479 0.00895954
v 0.03404366 -0.13117479 0.01170551
v 0.04649816 -0.12619814 -0.00072924
v 0.03793372 -0.13117479 0.00070461
v 0.02689608 -0.11236925 0.01170551
v 0.02894231 -0.11378260 0.01170551
v 0.03753839 -0.11708561 -0.00060022
v 0.03755736 -0.11707259 -0.00072924
v 0.03363252 -0.11469880 0.00070461
v 0.03213659 -0.11374876 0.00070461
v 0.03228207 -0.11368369 -0.00072924
v 0.03816459 -0.13117479 0.01170551
v 0.04650449 -0.12601075 -0.00072924
v 0.03821203 -0.13078956 0.01170551
v 0.02995119 -0.11461290 0.01170551
v 0.04074531 -0.11989667 -0.00004761
v 0.04085917 -0.11980037 -0.00072924
v 0.03474577 -0.11518814 -0.00072924
v 0.03377800 -0.11458167 -0.00072924
v 0.04402814 -0.12262185 -0.00072924
v 0.04390163 -0.12273376 -0.00008170
v 0.03484697 -0.11965461 0.01170551
v 0.03550797 -0.12067753 0.01170551
v 0.03681098 -0.12407944 0.01170551
v 0.03696595 -0.12465467 0.01170551
v 0.03043508 -0.11504237 0.01170551
v 0.04035315 -0.12029491 0.00194978
v 0.03207333 -0.11653901 0.01170551
v 0.03307905 -0.11757755 0.01170551
f 1 2 6
f 1 6 13
f 1 13 22
f 1 22 36
f 1 36 38
f 1 38 24
f 1 24 14
f 1 14 8
f 1 8 3
f 1 3 4
f 1 4 5
f 1 5 2
f 2 5 7
f 2 7 6
f 3 8 9
f 3 9 10
f 3 10 11
f 3 11 12
f 3 12 4
f 4 12 17
f 4 17 29
f 4 29 28
f 4 28 45
f 4 45 48
f 4 48 47
f 4 47 59
f 4 59 67
f 4 67 66
f 4 66 56
f 4 56 65
f 4 65 68
f 4 68 61
f 4 61 51
f 4 51 37
f 4 37 23
f 4 23 13
f 4 13 6
f 4 6 7
f 4 7 5
f 8 14 15
f 8 15 9
f 9 15 10
f 10 15 16
f 10 16 11
f 11 16 17
f 11 17 12
f 13 18 19
f 13 19 20
f 13 20 21
f 13 21 22
f 13 23 18
f 14 24 25
f 14 25 26
f 14 26 15
f 15 26 25
f 15 25 27
f 15 27 16
f 16 28 29
f 16 29 17
f 16 27 30
f 16 30 28
f 18 31 32
f 18 32 33
f 18 33 19
f 18 23 31
f 19 33 34
f 19 34 20
f 20 34 35
f 20 35 21
f 21 35 22
f 22 35 36
f 23 37 52
f 23 52 60
f 23 60 50
f 23 50 49
f 23 49 31
f 24 38 39
f 24 39 40
f 24 40 25
f 25 40 41
f 25 41 42
f 25 42 43
f 25 43 27
f 27 43 44
f 27 44 30
f 28 30 45
f 30 46 47
f 30 47 48
f 30 48 45
f 30 44 43
f 30 43 46
f 31 49 32
f 32 36 33
f 32 49 50
f 32 50 36
f 33 36 34
f 34 36 35
f 36 50 60
f 36 60 62
f 36 62 73
f 36 73 72
f 36 72 71
f 36 71 70
f 36 70 77
f 36 77 76
f 36 76 74
f 36 74 63
f 36 63 54
f 36 54 53
f 36 53 42
f 36 42 41
f 36 41 40
f 36 40 39
f 36 39 38
f 37 51 52
f 42 53 43
f 43 53 54
f 43 54 55
f 43 55 56
f 43 56 57
f 43 57 58
f 43 58 46
f 46 58 47
f 47 58 59
f 51 61 62
f 51 62 60
f 51 60 52
f 54 63 55
f 55 63 64
f 55 64 65
f 55 65 56
f 56 66 57
f 57 66 58
f 58 66 67
f 58 67 59
f 61 68 69
f 61 69 70
f 61 70 71
f 61 71 72
f 61 72 73
f 61 73 62
f 63 74 64
f 64 75 69
f 64 69 68
f 64 68 65
f 64 74 75
f 69 75 74
f 69 74 76
f 69 76 77
f 69 77 70

