# https://github.com/mikedh/trimesh
v 0.00001628 -0.10115979 -0.00413057
v -0.00297822 -0.10147801 -0.00413057
v 0.00009039 -0.10116377 -0.00413057
v -0.00897122 -0.10354448 -0.02244930
v -0.00897122 -0.10330184 -0.02026324
v -0.01795271 -0.10304725 -0.01127873
v -0.00818003 -0.10210253 -0.00413057
v -0.01495821 -0.10275687 -0.00828389
v -0.01195971 -0.10249037 -0.00528905
v 0.00009039 -0.11150804 -0.00413057
v 0.00009239 -0.11209477 -0.00511868
v 0.00009039 -0.10365785 -0.01427357
v -0.00595669 -0.10444943 -0.02244930
v -0.01160317 -0.10420281 -0.02244930
v -0.02037034 -0.10387663 -0.01430584
v -0.02037034 -0.10339134 -0.01127873
v 0.00008839 -0.10446733 -0.01726840
v 0.00008839 -0.10505208 -0.01909041
v -0.01795271 -0.10312284 -0.00828389
v -0.01195971 -0.10257588 -0.00413057
v -0.01495821 -0.10288417 -0.00528905
v 0.00008839 -0.12147840 -0.01908683
v -0.00789360 -0.11787054 -0.00413057
v 0.00009039 -0.11827826 -0.01478107
v 0.00009039 -0.10379708 -0.01478107
v 0.00008839 -0.10632098 -0.02244930
v -0.02037034 -0.11062099 -0.02244930
v -0.02037034 -0.10481142 -0.01611889
v -0.02037034 -0.10380105 -0.00828389
v -0.01795271 -0.10356835 -0.00528905
v -0.01495821 -0.10308504 -0.00413057
v 0.00008839 -0.12147840 -0.02244930
v -0.01003682 -0.12075444 -0.00602431
v -0.01174939 -0.12147840 -0.00526215
v -0.01103832 -0.12010407 -0.00413057
v -0.01186156 -0.12147840 -0.00515096
v -0.02037034 -0.11745486 -0.02244930
v -0.02037034 -0.10434601 -0.00515096
v -0.01795271 -0.10380900 -0.00413057
v -0.01364223 -0.12147840 -0.02244930
v -0.01422310 -0.12147840 -0.00413057
v -0.02037034 -0.12147840 -0.00879140
v -0.01508440 -0.12147840 -0.02059680
v -0.01511444 -0.12147840 -0.02054838
v -0.01512846 -0.12147840 -0.02051969
v -0.01517253 -0.12147840 -0.02042285
v -0.02037034 -0.10455883 -0.00413057
v -0.02037034 -0.12147840 -0.00413057
f 1 2 7
f 1 7 20
f 1 20 31
f 1 31 39
f 1 39 47
f 1 47 48
f 1 48 41
f 1 41 35
f 1 35 23
f 1 23 10
f 1 10 3
f 1 3 4
f 1 4 5
f 1 5 6
f 1 6 2
f 2 6 8
f 2 8 9
f 2 9 7
f 3 10 11
f 3 11 12
f 3 12 4
f 4 13 26
f 4 26 32
f 4 32 40
f 4 40 37
f 4 37 27
f 4 27 14
f 4 14 15
f 4 15 16
f 4 16 6
f 4 6 5
f 4 12 17
f 4 17 18
f 4 18 13
f 6 16 19
f 6 19 8
f 7 9 20
f 8 19 9
f 9 19 21
f 9 21 20
f 10 22 11
f 10 23 22
f 11 22 24
f 11 24 25
f 11 25 12
f 12 25 17
f 13 18 26
f 14 27 28
f 14 28 15
f 15 28 27
f 15 27 37
f 15 37 42
f 15 42 48
f 15 48 47
f 15 47 38
f 15 38 29
f 15 29 16
f 16 29 19
f 17 25 18
f 18 25 26
f 19 29 30
f 19 30 21
f 20 21 31
f 21 30 31
f 22 32 24
f 22 23 33
f 22 33 34
f 22 34 36
f 22 36 41
f 22 41 48
f 22 48 42
f 22 42 46
f 22 46 45
f 22 45 44
f 22 44 43
f 22 43 40
f 22 40 32
f 23 35 36
f 23 36 34
f 23 34 33
f 24 32 26
f 24 26 25
f 29 38 30
f 30 38 39
f 30 39 31
f 35 41 36
f 37 40 43
f 37 43 44
f 37 44 45
f 37 45 46
f 37 46 42
f 38 47 39

