# https://github.com/mikedh/trimesh
v 0.00900428 -0.11448254 0.03232100
v 0.00009235 -0.11464822 0.03232100
v 0.01197792 -0.11500321 0.03232100
v 0.00900428 -0.11423799 0.03203849
v 0.00009235 -0.11263657 0.03030304
v 0.00009235 -0.11277857 0.03045641
v 0.00009235 -0.12605804 0.03232100
v 0.01507863 -0.11585520 0.03232100
v 0.01200034 -0.11449306 0.03164499
v 0.00900428 -0.11312567 0.03054116
v 0.00009235 -0.11025941 0.02743350
v 0.00009235 -0.11039352 0.02760906
v 0.00009235 -0.12138262 0.02501800
v 0.01042457 -0.12618953 0.02012848
v 0.01206164 -0.12796713 0.02178523
v 0.00101927 -0.12648667 0.03232100
v 0.01536568 -0.11593672 0.03232100
v 0.01200034 -0.11348855 0.03014766
v 0.00900428 -0.11162943 0.02838396
v 0.01536568 -0.11582627 0.03215755
v 0.01536568 -0.11479810 0.03062793
v 0.00600972 -0.11047503 0.02714291
v 0.00600972 -0.11154265 0.02864024
v 0.00009235 -0.10875791 0.02533684
v 0.00009235 -0.11020156 0.01170551
v 0.01492464 -0.11627068 0.01170551
v 0.01200034 -0.12640779 0.01999529
v 0.01492913 -0.12796713 0.02082871
v 0.00600972 -0.11281537 0.01170551
v 0.01213789 -0.12796713 0.02385565
v 0.00301515 -0.12691005 0.03232100
v 0.00169952 -0.12666285 0.03232100
v 0.01536568 -0.12545851 0.03232100
v 0.01441932 -0.11386722 0.02960685
v 0.01101063 -0.11098254 0.02647497
v 0.00900428 -0.11071695 0.02688663
v 0.00532200 -0.10800321 0.02341978
v 0.01536568 -0.11470344 0.03047659
v 0.00301515 -0.10787962 0.02358929
v 0.00009235 -0.10776918 0.02383749
v 0.00009235 -0.10873161 0.02529850
v 0.00009235 -0.10110576 0.01170551
v 0.01536568 -0.11637323 0.01170551
v 0.01499491 -0.12796713 0.02082669
v 0.01531634 -0.12796713 0.02552047
v 0.00600972 -0.12714145 0.03232100
v 0.00412896 -0.12700470 0.03232100
v 0.01185233 -0.12632890 0.03232100
v 0.01536568 -0.12796713 0.02554065
v 0.01536568 -0.11327556 0.02805301
v 0.01536568 -0.11319405 0.02790369
v 0.01300800 -0.11132177 0.02579491
v 0.00900428 -0.10845550 0.02249151
v 0.00731937 -0.10819780 0.02308883
v 0.00301515 -0.10477669 0.01789056
v 0.00301515 -0.10679622 0.02167222
v 0.00009235 -0.10774288 0.02379108
v 0.00505140 -0.10498180 0.01754145
v 0.00301366 -0.10173161 0.01170551
v 0.01536568 -0.10665160 0.01170551
v 0.01536568 -0.12796713 0.02086503
v 0.00724313 -0.12708884 0.03232100
v 0.01102259 -0.12652349 0.03232100
v 0.00900428 -0.12694685 0.03232100
v 0.01536568 -0.11167414 0.02473750
v 0.01515637 -0.11160050 0.02474356
v 0.01200632 -0.11050133 0.02474356
v 0.00900428 -0.10778495 0.02099620
v 0.00503196 -0.10245737 0.01170551
v 0.01068770 -0.10808473 0.02035045
v 0.01496501 -0.10647541 0.01170551
v 0.01536568 -0.10696715 0.01265193
v 0.01536568 -0.11153213 0.02438840
v 0.01114967 -0.10491343 0.01180237
v 0.01119302 -0.10489502 0.01170551
v 0.01264022 -0.10548931 0.01170551
f 1 2 7
f 1 7 16
f 1 16 32
f 1 32 31
f 1 31 47
f 1 47 46
f 1 46 62
f 1 62 64
f 1 64 63
f 1 63 48
f 1 48 33
f 1 33 17
f 1 17 8
f 1 8 3
f 1 3 4
f 1 4 5
f 1 5 6
f 1 6 2
f 2 6 5
f 2 5 12
f 2 12 11
f 2 11 24
f 2 24 41
f 2 41 40
f 2 40 57
f 2 57 42
f 2 42 25
f 2 25 13
f 2 13 7
f 3 8 9
f 3 9 4
f 4 9 10
f 4 10 11
f 4 11 12
f 4 12 5
f 7 13 14
f 7 14 15
f 7 15 16
f 8 17 9
f 9 18 19
f 9 19 10
f 9 17 20
f 9 20 21
f 9 21 18
f 10 19 22
f 10 22 23
f 10 23 11
f 11 23 24
f 13 25 14
f 14 26 27
f 14 27 28
f 14 28 15
f 14 25 29
f 14 29 26
f 15 28 44
f 15 44 61
f 15 61 49
f 15 49 45
f 15 45 30
f 15 30 31
f 15 31 32
f 15 32 16
f 17 33 49
f 17 49 61
f 17 61 43
f 17 43 60
f 17 60 72
f 17 72 73
f 17 73 65
f 17 65 51
f 17 51 50
f 17 50 38
f 17 38 21
f 17 21 20
f 18 21 34
f 18 34 35
f 18 35 19
f 19 35 36
f 19 36 37
f 19 37 22
f 21 38 34
f 22 37 39
f 22 39 40
f 22 40 41
f 22 41 24
f 22 24 23
f 25 42 59
f 25 59 69
f 25 69 75
f 25 75 76
f 25 76 71
f 25 71 60
f 25 60 43
f 25 43 26
f 25 26 29
f 26 43 27
f 27 43 28
f 28 43 44
f 30 45 46
f 30 46 47
f 30 47 31
f 33 48 49
f 34 50 35
f 34 38 50
f 35 50 51
f 35 51 52
f 35 52 53
f 35 53 54
f 35 54 36
f 36 54 37
f 37 54 55
f 37 55 42
f 37 42 56
f 37 56 39
f 39 56 57
f 39 57 40
f 42 55 54
f 42 54 58
f 42 58 59
f 42 57 56
f 43 61 44
f 45 49 46
f 46 49 62
f 48 63 49
f 49 63 64
f 49 64 62
f 51 65 66
f 51 66 52
f 52 66 67
f 52 67 53
f 53 68 58
f 53 58 54
f 53 67 68
f 58 68 59
f 59 68 70
f 59 70 69
f 60 71 72
f 65 73 70
f 65 70 66
f 66 70 67
f 67 70 68
f 69 74 75
f 69 70 74
f 70 73 74
f 71 76 72
f 72 76 74
f 72 74 73
f 74 76 75

