# https://github.com/mikedh/trimesh
v 0.00009235 -0.14259596 0.04561703
v 0.00090888 -0.14479983 0.04648358
v 0.00090888 -0.14479983 0.04775755
v 0.00009235 -0.14250414 0.04567701
v 0.00009235 -0.14174125 0.04368953
v 0.00301647 -0.14531195 0.04610305
v 0.00743192 -0.15011527 0.05010282
v 0.00397474 -0.14773834 0.04924867
v 0.00082569 -0.14260302 0.04766241
v 0.00009235 -0.13982698 0.04615061
v 0.00397474 -0.14773834 0.05056401
v 0.00397474 -0.14641389 0.05056401
v 0.00301647 -0.14348599 0.04460365
v 0.00009235 -0.13980933 0.04220254
v 0.00601146 -0.14696486 0.04730049
v 0.01881412 -0.14422414 0.04403284
v 0.01499643 -0.15026008 0.04994977
v 0.01184429 -0.15044726 0.05134990
v 0.01200144 -0.15050730 0.05344698
v 0.00984763 -0.15034837 0.05332290
v 0.00743192 -0.15011527 0.05027240
v 0.01798834 -0.14732511 0.04691375
v 0.00120468 -0.14097838 0.04721363
v 0.00013240 -0.13983053 0.04617336
v 0.00009235 -0.12464356 0.03930302
v 0.00984763 -0.14957491 0.05332290
v 0.00601146 -0.14597240 0.05092179
v 0.00009235 -0.12451290 0.03924305
v 0.00301647 -0.14198849 0.04346203
v 0.01798834 -0.14084770 0.04138356
v 0.00009235 -0.13826238 0.04102991
v 0.01971693 -0.14422414 0.04403284
v 0.01708552 -0.15027773 0.04992702
v 0.01499643 -0.15056382 0.05162496
v 0.01499643 -0.15039429 0.05335598
v 0.01200144 -0.14928176 0.05344698
v 0.01973541 -0.14731452 0.04691582
v 0.01200144 -0.14778425 0.05276243
v 0.01553873 -0.12900540 0.04422104
v 0.00009235 -0.12164150 0.03787808
v 0.00301647 -0.14001419 0.04196678
v 0.00601146 -0.13868621 0.04070315
v 0.00446774 -0.13512257 0.03814280
v 0.01798834 -0.13935019 0.04025850
v 0.00301647 -0.13851668 0.04083965
v 0.00009235 -0.13473760 0.03842613
v 0.00247108 -0.13496363 0.03826689
v 0.02388280 -0.12722182 0.03232101
v 0.02886520 -0.12954931 0.03773744
v 0.01703623 -0.15030952 0.05162496
v 0.01978780 -0.14767124 0.04863030
v 0.01662334 -0.15019651 0.05319881
v 0.01499643 -0.14953957 0.05335598
v 0.02596881 -0.13492478 0.04718881
v 0.02398140 -0.13342728 0.04672969
v 0.01798834 -0.13062651 0.04528406
v 0.02918257 -0.13247016 0.04073210
v 0.02998370 -0.13347319 0.04284367
v 0.03156747 -0.13248074 0.04367713
v 0.02098641 -0.13062651 0.04537506
v 0.01798834 -0.12894890 0.04426034
v 0.01200144 -0.12369704 0.04079208
v 0.01200144 -0.12519453 0.04168138
v 0.00009235 -0.11898555 0.03633111
v 0.00328762 -0.13631986 0.03917480
v 0.00328762 -0.13382638 0.03733416
v 0.00301647 -0.12691455 0.03232101
v 0.00412881 -0.12700638 0.03232101
v 0.00601146 -0.12714411 0.03232101
v 0.00009235 -0.13324715 0.03734657
v 0.00170077 -0.12666732 0.03232101
v 0.00301647 -0.13145651 0.03563622
v 0.02649571 -0.12492258 0.03232101
v 0.02850161 -0.12619053 0.03511298
v 0.01963681 -0.14764650 0.05029308
v 0.03156747 -0.13248074 0.04429550
v 0.01662334 -0.14991397 0.05319881
v 0.03156747 -0.13195804 0.04429550
v 0.02997138 -0.13143532 0.04472153
v 0.02697022 -0.13380165 0.04648358
v 0.02697639 -0.13081372 0.04514136
v 0.02425563 -0.13032985 0.04505037
v 0.03156747 -0.13195804 0.04367713
v 0.02343909 -0.12904426 0.04420036
v 0.02098641 -0.12898068 0.04424379
v 0.01087369 -0.12008748 0.03819450
v 0.01004483 -0.12008748 0.03819450
v 0.00009235 -0.11882309 0.03621737
v 0.00009235 -0.13110332 0.03584510
v 0.00101981 -0.12649073 0.03232101
v 0.02644025 -0.12299772 0.03232101
v 0.02850161 -0.12596802 0.03511298
v 0.02880666 -0.12572078 0.03872395
v 0.02926885 -0.12842265 0.04189853
v 0.02759572 -0.12642363 0.04071969
v 0.02674837 -0.12750791 0.04221909
v 0.02697639 -0.12931621 0.04395219
v 0.02543576 -0.12913255 0.04413211
v 0.02874195 -0.12569959 0.03664961
v 0.01287035 -0.12023935 0.03805801
v 0.01088910 -0.11706422 0.03523914
v 0.00900645 -0.11706775 0.03523500
v 0.00009235 -0.11563382 0.03345434
v 0.00009235 -0.11573271 0.03354120
v 0.00009235 -0.12606338 0.03232101
v 0.02596265 -0.12051484 0.03232101
v 0.02571615 -0.11987557 0.03232101
v 0.02571615 -0.11987557 0.03259193
v 0.02455143 -0.12048305 0.03458768
v 0.02518001 -0.12323083 0.03802905
v 0.02559906 -0.12609516 0.04118503
v 0.02398140 -0.12589738 0.04136495
v 0.01499643 -0.12042300 0.03786981
v 0.01288576 -0.11727966 0.03499096
v 0.01193365 -0.11617066 0.03385763
v 0.00900645 -0.11448244 0.03232101
v 0.00900645 -0.11565501 0.03365495
v 0.01798834 -0.12073735 0.03749754
v 0.00009235 -0.11465196 0.03232101
v 0.02142703 -0.11768229 0.03232101
v 0.02372565 -0.11951179 0.03361566
v 0.02255477 -0.12011573 0.03518744
v 0.02098641 -0.11986851 0.03548732
v 0.02318335 -0.12292003 0.03838891
v 0.02098641 -0.12261276 0.03869085
v 0.01798834 -0.11941997 0.03600021
v 0.01499643 -0.11753043 0.03465800
v 0.01197987 -0.11500516 0.03232101
v 0.01978163 -0.11713133 0.03232101
v 0.01798834 -0.11792246 0.03411201
v 0.01499643 -0.11640023 0.03316067
v 0.01798834 -0.11663333 0.03232101
v 0.01798834 -0.11682052 0.03261261
v 0.01943653 -0.11702890 0.03232101
f 1 2 3
f 1 3 4
f 1 4 10
f 1 10 25
f 1 25 28
f 1 28 40
f 1 40 64
f 1 64 88
f 1 88 104
f 1 104 103
f 1 103 119
f 1 119 105
f 1 105 89
f 1 89 70
f 1 70 46
f 1 46 31
f 1 31 14
f 1 14 5
f 1 5 2
f 2 5 6
f 2 6 7
f 2 7 8
f 2 8 11
f 2 11 3
f 3 9 10
f 3 10 4
f 3 11 12
f 3 12 9
f 5 13 6
f 5 14 13
f 6 15 7
f 6 13 16
f 6 16 15
f 7 17 18
f 7 18 19
f 7 19 20
f 7 20 21
f 7 21 11
f 7 11 8
f 7 15 22
f 7 22 17
f 9 23 10
f 9 12 23
f 10 23 24
f 10 24 25
f 11 21 20
f 11 20 26
f 11 26 12
f 12 26 27
f 12 27 28
f 12 28 23
f 13 14 29
f 13 29 30
f 13 30 16
f 14 31 29
f 15 16 22
f 16 30 32
f 16 32 22
f 17 33 34
f 17 34 18
f 17 22 33
f 18 34 19
f 19 34 35
f 19 35 53
f 19 53 36
f 19 36 26
f 19 26 20
f 22 37 33
f 22 32 37
f 23 28 25
f 23 25 24
f 26 36 38
f 26 38 39
f 26 39 27
f 27 39 40
f 27 40 28
f 29 41 42
f 29 42 30
f 29 31 41
f 30 42 43
f 30 43 44
f 30 44 32
f 31 45 41
f 31 46 47
f 31 47 45
f 32 44 48
f 32 48 49
f 32 49 37
f 33 50 34
f 33 37 51
f 33 51 50
f 34 50 35
f 35 50 52
f 35 52 77
f 35 77 53
f 36 53 54
f 36 54 55
f 36 55 56
f 36 56 38
f 37 49 57
f 37 57 58
f 37 58 59
f 37 59 51
f 38 56 39
f 39 56 60
f 39 60 61
f 39 61 62
f 39 62 63
f 39 63 40
f 40 63 64
f 41 45 43
f 41 43 42
f 43 45 65
f 43 65 47
f 43 47 66
f 43 66 67
f 43 67 44
f 44 67 68
f 44 68 69
f 44 69 48
f 45 47 65
f 46 70 71
f 46 71 67
f 46 67 47
f 47 67 72
f 47 72 66
f 48 69 68
f 48 68 67
f 48 67 71
f 48 71 90
f 48 90 105
f 48 105 119
f 48 119 116
f 48 116 128
f 48 128 132
f 48 132 134
f 48 134 129
f 48 129 120
f 48 120 107
f 48 107 106
f 48 106 91
f 48 91 73
f 48 73 49
f 49 73 74
f 49 74 59
f 49 59 57
f 50 51 75
f 50 75 52
f 51 59 76
f 51 76 75
f 52 75 76
f 52 76 78
f 52 78 77
f 53 77 54
f 54 78 79
f 54 79 80
f 54 80 81
f 54 81 55
f 54 77 78
f 55 81 82
f 55 82 60
f 55 60 56
f 57 59 58
f 59 74 92
f 59 92 83
f 59 83 78
f 59 78 76
f 60 82 84
f 60 84 85
f 60 85 62
f 60 62 61
f 62 86 87
f 62 87 64
f 62 64 63
f 62 85 84
f 62 84 86
f 64 87 88
f 66 72 67
f 70 89 90
f 70 90 71
f 73 91 92
f 73 92 74
f 78 83 93
f 78 93 94
f 78 94 79
f 79 94 95
f 79 95 96
f 79 96 97
f 79 97 81
f 79 81 80
f 81 97 98
f 81 98 82
f 82 98 84
f 83 92 99
f 83 99 93
f 84 98 86
f 86 100 101
f 86 101 87
f 86 98 100
f 87 101 102
f 87 102 103
f 87 103 104
f 87 104 88
f 89 105 90
f 91 106 92
f 92 106 99
f 93 99 107
f 93 107 108
f 93 108 109
f 93 109 95
f 93 95 94
f 95 109 110
f 95 110 111
f 95 111 96
f 96 111 97
f 97 111 98
f 98 111 112
f 98 112 113
f 98 113 100
f 99 106 107
f 100 113 101
f 101 114 115
f 101 115 116
f 101 116 117
f 101 117 102
f 101 113 118
f 101 118 114
f 102 117 103
f 103 117 116
f 103 116 119
f 107 120 108
f 108 120 121
f 108 121 109
f 109 121 120
f 109 120 122
f 109 122 110
f 110 122 123
f 110 123 124
f 110 124 111
f 111 124 125
f 111 125 118
f 111 118 112
f 112 118 113
f 114 126 127
f 114 127 115
f 114 118 126
f 115 128 116
f 115 127 128
f 118 125 124
f 118 124 126
f 120 129 122
f 122 129 130
f 122 130 123
f 123 130 126
f 123 126 124
f 126 130 127
f 127 130 131
f 127 131 128
f 128 131 133
f 128 133 132
f 129 134 130
f 130 134 133
f 130 133 131
f 132 133 134

