# https://github.com/mikedh/trimesh
v 0.03278515 -0.13681827 -0.01344889
v 0.03050744 -0.13595481 -0.01335040
v 0.02768256 -0.13308157 -0.01325191
v 0.02936859 -0.13139232 -0.01325191
v 0.03297103 -0.13437113 -0.01326668
v 0.03572784 -0.13676172 -0.01321990
v 0.04077807 -0.14083593 -0.01292443
v 0.04077807 -0.14140151 -0.01292443
v 0.03619648 -0.13961612 -0.01321005
v 0.03365958 -0.13862255 -0.01323960
v 0.03212278 -0.13749324 -0.01127718
v 0.03049697 -0.13599628 -0.01127718
v 0.02899944 -0.13456720 -0.01127718
v 0.02765638 -0.13306837 -0.01127718
v 0.02615885 -0.13130182 -0.01127718
v 0.02606460 -0.13117738 -0.01127718
v 0.02608293 -0.13117738 -0.01141260
v 0.02704899 -0.13117738 -0.01314357
v 0.02871146 -0.13117738 -0.01321498
v 0.02922198 -0.13117738 -0.01317558
v 0.03136617 -0.13221431 -0.01269298
v 0.03457328 -0.13502911 -0.01285549
v 0.03775945 -0.13785709 -0.01297121
v 0.04377574 -0.14081895 -0.01016917
v 0.04678651 -0.14375252 -0.01008052
v 0.04742269 -0.14560014 -0.01009530
v 0.04740698 -0.14721587 -0.00989832
v 0.04624718 -0.14721587 -0.00989832
v 0.03896114 -0.14137700 -0.01293674
v 0.03734842 -0.14117150 -0.01284071
v 0.03362031 -0.13869418 -0.01127718
v 0.04452451 -0.14637689 -0.00828062
v 0.03088444 -0.13561356 0.00850704
v 0.02760664 -0.13280819 0.00866462
v 0.02677672 -0.13117738 0.00644121
v 0.03067238 -0.13117738 -0.01227439
v 0.03272494 -0.13117738 -0.01061976
v 0.03295009 -0.13117738 -0.01042524
v 0.03314644 -0.13117738 -0.01024303
v 0.03420937 -0.13117738 -0.00922366
v 0.04585186 -0.14167866 -0.00828062
v 0.04737295 -0.14317562 -0.00828062
v 0.03510736 -0.13117738 -0.00816489
v 0.03662584 -0.13117738 -0.00599318
v 0.05029994 -0.14620155 -0.00777585
v 0.05029994 -0.14794549 -0.00777585
v 0.05280803 -0.15043789 -0.00473989
v 0.05149900 -0.15043789 -0.00473989
v 0.04794369 -0.14880143 -0.00528651
v 0.04602204 -0.14739120 -0.00828062
v 0.04794369 -0.14883159 -0.00228995
v 0.04613985 -0.14735349 0.00070169
v 0.04966899 -0.15004197 -0.00228995
v 0.03732748 -0.13525158 0.01127215
v 0.04627337 -0.14723095 0.00246466
v 0.04345110 -0.14410318 0.00519531
v 0.02689453 -0.13117738 0.00895763
v 0.03471728 -0.13185610 0.01170551
v 0.03404444 -0.13117738 0.01170551
v 0.04933911 -0.14420499 -0.00646347
v 0.03683528 -0.13117738 -0.00559676
v 0.05096754 -0.14561711 -0.00528159
v 0.05249386 -0.14702922 -0.00409971
v 0.05275828 -0.14859593 -0.00473743
v 0.05275305 -0.14865626 -0.00243276
v 0.05279233 -0.15042657 -0.00228995
v 0.05116651 -0.15042657 -0.00228995
v 0.04794369 -0.14842059 0.00070169
v 0.05168488 -0.15019467 -0.00066240
v 0.03771757 -0.13525158 0.01127215
v 0.03793748 -0.13297600 0.01170551
v 0.03615197 -0.13293640 0.01170551
v 0.04544868 -0.14453116 0.00545877
v 0.04794369 -0.14754957 0.00267642
v 0.03816787 -0.13117738 0.01170551
v 0.04964019 -0.14388449 -0.00446658
v 0.03709185 -0.13117738 -0.00500335
v 0.03751598 -0.13117738 -0.00384363
v 0.05249386 -0.14702922 -0.00352846
v 0.05253837 -0.14969507 -0.00066240
v 0.05226609 -0.14769661 -0.00153158
v 0.05253837 -0.15019467 -0.00066240
v 0.04672891 -0.14453116 0.00545877
v 0.04981298 -0.14756842 0.00257054
v 0.04672891 -0.14360546 0.00545877
v 0.04981298 -0.14654092 0.00257054
v 0.03793748 -0.13117738 0.00070169
v 0.03784062 -0.13117738 -0.00228995
v 0.03786679 -0.13117738 -0.00184182
f 1 2 3
f 1 3 4
f 1 4 5
f 1 5 6
f 1 6 7
f 1 7 8
f 1 8 9
f 1 9 10
f 1 10 2
f 2 10 11
f 2 11 12
f 2 12 13
f 2 13 3
f 3 13 14
f 3 14 15
f 3 15 16
f 3 16 17
f 3 17 18
f 3 18 19
f 3 19 4
f 4 19 20
f 4 20 21
f 4 21 22
f 4 22 5
f 5 22 23
f 5 23 6
f 6 23 7
f 7 24 25
f 7 25 26
f 7 26 8
f 7 23 24
f 8 26 27
f 8 27 28
f 8 28 29
f 8 29 9
f 9 30 10
f 9 29 30
f 10 31 11
f 10 30 32
f 10 32 31
f 11 33 34
f 11 34 12
f 11 31 33
f 12 34 13
f 13 34 14
f 14 34 15
f 15 34 16
f 16 34 35
f 16 35 57
f 16 57 59
f 16 59 75
f 16 75 87
f 16 87 89
f 16 89 88
f 16 88 78
f 16 78 77
f 16 77 61
f 16 61 44
f 16 44 43
f 16 43 40
f 16 40 39
f 16 39 38
f 16 38 37
f 16 37 36
f 16 36 20
f 16 20 19
f 16 19 18
f 16 18 17
f 20 36 21
f 21 36 22
f 22 36 37
f 22 37 23
f 23 37 38
f 23 38 39
f 23 39 40
f 23 40 24
f 24 41 42
f 24 42 25
f 24 40 43
f 24 43 44
f 24 44 41
f 25 42 45
f 25 45 26
f 26 45 46
f 26 46 27
f 27 46 47
f 27 47 48
f 27 48 28
f 28 48 49
f 28 49 50
f 28 50 30
f 28 30 29
f 30 50 32
f 31 32 51
f 31 51 52
f 31 52 33
f 32 50 49
f 32 49 53
f 32 53 51
f 33 54 34
f 33 52 55
f 33 55 56
f 33 56 54
f 34 57 35
f 34 54 58
f 34 58 59
f 34 59 57
f 41 44 42
f 42 60 45
f 42 44 61
f 42 61 60
f 45 60 62
f 45 62 63
f 45 63 64
f 45 64 47
f 45 47 46
f 47 64 65
f 47 65 66
f 47 66 67
f 47 67 48
f 48 67 53
f 48 53 49
f 51 53 52
f 52 53 55
f 53 68 55
f 53 67 69
f 53 69 68
f 54 70 71
f 54 71 72
f 54 72 58
f 54 56 73
f 54 73 83
f 54 83 70
f 55 68 69
f 55 69 74
f 55 74 73
f 55 73 56
f 58 72 71
f 58 71 75
f 58 75 59
f 60 76 62
f 60 61 77
f 60 77 78
f 60 78 76
f 62 76 63
f 63 79 64
f 63 76 75
f 63 75 79
f 64 79 65
f 65 80 66
f 65 79 81
f 65 81 80
f 66 80 82
f 66 82 69
f 66 69 67
f 69 82 74
f 70 83 71
f 71 83 75
f 73 74 83
f 74 82 84
f 74 84 83
f 75 83 85
f 75 85 86
f 75 86 81
f 75 81 79
f 75 76 87
f 76 88 89
f 76 89 87
f 76 78 88
f 80 81 86
f 80 86 84
f 80 84 82
f 83 84 86
f 83 86 85

