# https://github.com/mikedh/trimesh
v 0.01536811 -0.10665008 0.01170551
v 0.01536811 -0.11637709 0.01170551
v 0.01536811 -0.10696729 0.01265193
v 0.01886062 -0.10802535 0.01170551
v 0.01536811 -0.12796977 0.02086503
v 0.03108073 -0.12796977 0.01170551
v 0.01536811 -0.11153132 0.02438840
v 0.02000694 -0.11393333 0.02659403
v 0.01933278 -0.10821316 0.01170551
v 0.01536811 -0.12796977 0.02554065
v 0.03673202 -0.12796977 0.01170551
v 0.01536811 -0.11167324 0.02473750
v 0.01799175 -0.11360778 0.02720345
v 0.01799175 -0.11439455 0.02870078
v 0.02083200 -0.11645013 0.03073085
v 0.02295184 -0.11675899 0.02978039
v 0.02393266 -0.11187775 0.01570511
v 0.02290073 -0.11094491 0.01472236
v 0.02072004 -0.10910010 0.01242996
v 0.01999233 -0.10850324 0.01170551
v 0.02169113 -0.12796977 0.03005281
v 0.02135770 -0.12715380 0.03232100
v 0.01536811 -0.12545924 0.03232100
v 0.03714090 -0.12762752 0.01170551
v 0.03712873 -0.12796977 0.01171358
v 0.01536811 -0.11319457 0.02790369
v 0.01536811 -0.11327597 0.02805301
v 0.01641708 -0.11417333 0.02911648
v 0.02172520 -0.11738715 0.03177817
v 0.01799175 -0.11556737 0.03065619
v 0.01972948 -0.11707202 0.03226248
v 0.02571907 -0.11987262 0.03232100
v 0.03145311 -0.11715967 0.01713181
v 0.02797764 -0.11444671 0.01642754
v 0.02697978 -0.11350761 0.01553156
v 0.02352865 -0.11058805 0.01268624
v 0.02502787 -0.11139567 0.01268624
v 0.02528585 -0.11126003 0.01170551
v 0.02196615 -0.12796977 0.03018600
v 0.02390345 -0.12796977 0.03064004
v 0.02314411 -0.12720388 0.03232100
v 0.01536811 -0.11593884 0.03232100
v 0.03696566 -0.12465578 0.01170551
v 0.03913175 -0.12796977 0.01343490
v 0.03729910 -0.12796977 0.01184878
v 0.01536811 -0.11470757 0.03047659
v 0.01536811 -0.11479940 0.03062793
v 0.01978546 -0.11713254 0.03232100
v 0.02143071 -0.11767930 0.03232100
v 0.01943986 -0.11703029 0.03232100
v 0.01967351 -0.11709915 0.03232100
v 0.02596488 -0.12051122 0.03232100
v 0.03812416 -0.12796977 0.02172671
v 0.03832860 -0.12796977 0.02149060
v 0.03757899 -0.12596636 0.02034642
v 0.03486043 -0.12263359 0.02060472
v 0.03404023 -0.12054460 0.01867756
v 0.03442721 -0.12018357 0.01703696
v 0.03309105 -0.11852241 0.01608650
v 0.03175733 -0.11687168 0.01513604
v 0.02860069 -0.11405855 0.01443177
v 0.02697978 -0.11259147 0.01268624
v 0.02886111 -0.11384778 0.01268624
v 0.02689703 -0.11236817 0.01170551
v 0.02725966 -0.12796977 0.02967545
v 0.02388398 -0.12722057 0.03232100
v 0.01799175 -0.11663377 0.03232100
v 0.03717254 -0.12463283 0.01198802
v 0.03681234 -0.12407980 0.01170551
v 0.04007607 -0.12796977 0.01507954
v 0.02644191 -0.12299462 0.03232100
v 0.03604082 -0.12796977 0.02383749
v 0.03976697 -0.12796977 0.01914170
v 0.03535205 -0.12204300 0.01867756
v 0.03468519 -0.11988724 0.01503918
v 0.03725042 -0.12341825 0.01621162
v 0.03035790 -0.11508112 0.01268624
v 0.03355591 -0.11811964 0.01268624
v 0.03205912 -0.11657951 0.01268624
v 0.02994658 -0.11461158 0.01170551
v 0.02893899 -0.11378308 0.01170551
v 0.02969103 -0.12796977 0.02825885
v 0.02649789 -0.12492082 0.03232100
v 0.03551025 -0.12067817 0.01170551
v 0.03746703 -0.12312610 0.01415531
v 0.04022939 -0.12796977 0.01568089
v 0.03580717 -0.12796977 0.02403324
v 0.03991300 -0.12796977 0.01871591
v 0.03685128 -0.12397336 0.01867756
v 0.03746703 -0.12312610 0.01421585
v 0.03488720 -0.11961803 0.01268624
v 0.03043821 -0.11504147 0.01170551
v 0.03308132 -0.11757496 0.01170551
v 0.03207373 -0.11653778 0.01170551
v 0.03023377 -0.12796977 0.02792185
v 0.03322491 -0.12796977 0.02593617
v 0.03563924 -0.12796977 0.02415835
v 0.03484826 -0.11965559 0.01170551
f 1 2 5
f 1 5 10
f 1 10 23
f 1 23 42
f 1 42 47
f 1 47 46
f 1 46 27
f 1 27 26
f 1 26 12
f 1 12 7
f 1 7 3
f 1 3 4
f 1 4 9
f 1 9 20
f 1 20 38
f 1 38 64
f 1 64 81
f 1 81 80
f 1 80 92
f 1 92 94
f 1 94 93
f 1 93 98
f 1 98 84
f 1 84 69
f 1 69 43
f 1 43 24
f 1 24 11
f 1 11 6
f 1 6 2
f 2 6 5
f 3 7 8
f 3 8 9
f 3 9 4
f 5 6 11
f 5 11 25
f 5 25 45
f 5 45 44
f 5 44 70
f 5 70 86
f 5 86 88
f 5 88 73
f 5 73 54
f 5 54 53
f 5 53 72
f 5 72 87
f 5 87 97
f 5 97 96
f 5 96 95
f 5 95 82
f 5 82 65
f 5 65 40
f 5 40 39
f 5 39 21
f 5 21 10
f 7 12 8
f 8 13 14
f 8 14 15
f 8 15 16
f 8 16 17
f 8 17 18
f 8 18 19
f 8 19 20
f 8 20 9
f 8 12 13
f 10 21 22
f 10 22 23
f 11 24 25
f 12 26 13
f 13 26 14
f 14 26 27
f 14 27 28
f 14 28 15
f 15 29 16
f 15 28 30
f 15 30 31
f 15 31 29
f 16 29 32
f 16 32 33
f 16 33 34
f 16 34 35
f 16 35 17
f 17 35 18
f 18 36 19
f 18 35 37
f 18 37 36
f 19 36 20
f 20 36 38
f 21 39 22
f 22 39 40
f 22 40 41
f 22 41 66
f 22 66 83
f 22 83 71
f 22 71 52
f 22 52 32
f 22 32 49
f 22 49 48
f 22 48 51
f 22 51 50
f 22 50 67
f 22 67 42
f 22 42 23
f 24 43 44
f 24 44 45
f 24 45 25
f 27 46 28
f 28 46 47
f 28 47 30
f 29 31 48
f 29 48 49
f 29 49 32
f 30 47 31
f 31 50 51
f 31 51 48
f 31 47 50
f 32 52 53
f 32 53 54
f 32 54 55
f 32 55 56
f 32 56 57
f 32 57 33
f 33 57 58
f 33 58 59
f 33 59 60
f 33 60 61
f 33 61 34
f 34 61 35
f 35 61 37
f 36 37 38
f 37 61 38
f 38 61 62
f 38 62 63
f 38 63 64
f 40 65 66
f 40 66 41
f 42 67 47
f 43 68 44
f 43 69 68
f 44 68 70
f 47 67 50
f 52 71 72
f 52 72 53
f 54 73 55
f 55 73 56
f 56 73 74
f 56 74 57
f 57 74 58
f 58 75 59
f 58 74 76
f 58 76 75
f 59 75 60
f 60 77 61
f 60 75 78
f 60 78 79
f 60 79 77
f 61 63 62
f 61 77 63
f 63 80 81
f 63 81 64
f 63 77 80
f 65 82 66
f 66 82 83
f 68 69 70
f 69 84 70
f 70 85 86
f 70 84 85
f 71 83 72
f 72 83 87
f 73 88 89
f 73 89 74
f 74 89 76
f 75 76 90
f 75 90 91
f 75 91 78
f 76 89 88
f 76 88 90
f 77 79 92
f 77 92 80
f 78 93 94
f 78 94 79
f 78 91 93
f 79 94 92
f 82 95 83
f 83 95 96
f 83 96 97
f 83 97 87
f 84 98 85
f 85 90 86
f 85 98 91
f 85 91 90
f 86 90 88
f 91 98 93

