# https://github.com/mikedh/trimesh
v 0.01956399 -0.10968171 -0.03685063
v 0.02250529 -0.11008261 -0.03685063
v 0.02499146 -0.11119796 -0.03953595
v 0.02299437 -0.11110581 -0.03979385
v 0.00009235 -0.11143012 -0.04525982
v 0.00009235 -0.11117043 -0.04422723
v 0.00009235 -0.11090357 -0.04313043
v 0.00009235 -0.11009099 -0.03685063
v 0.02544318 -0.11072286 -0.03685063
v 0.02606473 -0.11099452 -0.03753902
v 0.02702931 -0.11145166 -0.03841707
v 0.02997060 -0.11224868 -0.03823744
v 0.03019137 -0.11340951 -0.04149073
v 0.03133257 -0.11418260 -0.04265879
v 0.02933547 -0.11394923 -0.04298392
v 0.00009235 -0.11273576 -0.04710121
v 0.00009235 -0.11577782 -0.03685063
v 0.02633984 -0.11095143 -0.03685063
v 0.02699534 -0.11112137 -0.03685063
v 0.03265717 -0.11340831 -0.03823744
v 0.03235488 -0.11377930 -0.04066286
v 0.02875469 -0.11162400 -0.03685063
v 0.02988230 -0.11207636 -0.03685063
v 0.03479012 -0.11662271 -0.04332912
v 0.03286774 -0.11615958 -0.04428744
v 0.03180467 -0.11699130 -0.04585288
v 0.00009235 -0.11278362 -0.04710121
v 0.02997060 -0.11864278 -0.04650414
v 0.02697497 -0.11864278 -0.04657538
v 0.00230681 -0.12190624 -0.03685063
v 0.00009235 -0.11573952 -0.04116159
v 0.03136653 -0.11271780 -0.03685063
v 0.03239904 -0.11342866 -0.03685063
v 0.03479012 -0.11662271 -0.04177573
v 0.03479012 -0.11762916 -0.04332912
v 0.03196770 -0.11864278 -0.04599236
v 0.00009235 -0.11460145 -0.04689348
v 0.02697497 -0.12120257 -0.04644894
v 0.01959116 -0.12190624 -0.04638572
v 0.03179787 -0.12033256 -0.04595423
v 0.02997060 -0.12071431 -0.04629240
v 0.01565132 -0.12190624 -0.03685063
v 0.00009235 -0.11538649 -0.04415900
v 0.00009235 -0.11464931 -0.04676906
v 0.00915059 -0.12190624 -0.04126997
v 0.03261980 -0.11548343 -0.03685063
v 0.03479012 -0.11762916 -0.04177573
v 0.03183184 -0.12033615 -0.04422723
v 0.01485656 -0.12190624 -0.04463464
v 0.01200357 -0.12190624 -0.04303509
v 0.01798805 -0.12190624 -0.04601644
v 0.02409481 -0.12190624 -0.04624423
v 0.02100407 -0.12190624 -0.04636365
v 0.02997060 -0.12106974 -0.04422723
v 0.02741989 -0.12190624 -0.04422723
v 0.02697497 -0.12190624 -0.04460755
v 0.02425104 -0.12190624 -0.04140143
v 0.02788521 -0.11998671 -0.03999354
v 0.03009627 -0.11809707 -0.03802771
v 0.02944416 -0.11757291 -0.03685063
v 0.03243640 -0.11766985 -0.03888569
v 0.03119671 -0.11698412 -0.03685063
v 0.03302738 -0.11864877 -0.04118568
v 0.03162466 -0.12020929 -0.04259055
v 0.02725687 -0.12190624 -0.04402553
v 0.02997060 -0.12049650 -0.04207075
v 0.02997060 -0.11967076 -0.04057355
v 0.03117633 -0.11703199 -0.03688876
v 0.03103028 -0.11705592 -0.03685063
v 0.03114916 -0.11701524 -0.03685063
f 1 2 3
f 1 3 4
f 1 4 5
f 1 5 6
f 1 6 7
f 1 7 8
f 1 8 17
f 1 17 30
f 1 30 42
f 1 42 60
f 1 60 69
f 1 69 70
f 1 70 62
f 1 62 46
f 1 46 33
f 1 33 32
f 1 32 23
f 1 23 22
f 1 22 19
f 1 19 18
f 1 18 9
f 1 9 2
f 2 9 10
f 2 10 3
f 3 10 11
f 3 11 12
f 3 12 13
f 3 13 14
f 3 14 15
f 3 15 5
f 3 5 4
f 5 16 27
f 5 27 37
f 5 37 44
f 5 44 43
f 5 43 31
f 5 31 17
f 5 17 8
f 5 8 7
f 5 7 6
f 5 15 16
f 9 18 10
f 10 18 19
f 10 19 12
f 10 12 11
f 12 20 21
f 12 21 13
f 12 19 22
f 12 22 23
f 12 23 20
f 13 21 14
f 14 21 24
f 14 24 25
f 14 25 26
f 14 26 15
f 15 26 16
f 16 26 28
f 16 28 29
f 16 29 27
f 17 31 30
f 20 23 32
f 20 32 33
f 20 33 34
f 20 34 24
f 20 24 21
f 24 34 47
f 24 47 35
f 24 35 36
f 24 36 26
f 24 26 25
f 26 36 28
f 27 29 38
f 27 38 39
f 27 39 37
f 28 36 40
f 28 40 41
f 28 41 38
f 28 38 29
f 30 31 43
f 30 43 44
f 30 44 37
f 30 37 45
f 30 45 50
f 30 50 49
f 30 49 51
f 30 51 39
f 30 39 53
f 30 53 52
f 30 52 56
f 30 56 55
f 30 55 65
f 30 65 57
f 30 57 42
f 33 46 34
f 34 46 47
f 35 47 48
f 35 48 40
f 35 40 36
f 37 49 50
f 37 50 45
f 37 39 51
f 37 51 49
f 38 41 52
f 38 52 53
f 38 53 39
f 40 48 54
f 40 54 55
f 40 55 41
f 41 55 56
f 41 56 52
f 42 57 58
f 42 58 59
f 42 59 60
f 46 61 47
f 46 62 61
f 47 61 63
f 47 63 64
f 47 64 48
f 48 64 54
f 54 64 55
f 55 64 65
f 57 65 64
f 57 64 66
f 57 66 67
f 57 67 58
f 58 67 59
f 59 68 69
f 59 69 60
f 59 67 68
f 61 62 68
f 61 68 64
f 61 64 63
f 62 70 68
f 64 68 67
f 64 67 66
f 68 70 69

