# https://github.com/mikedh/trimesh
v 0.01142780 -0.10622232 -0.02858721
v 0.01194363 -0.10624082 -0.02858721
v 0.01200094 -0.10637195 -0.02925129
v 0.00009235 -0.11009053 -0.03685063
v 0.00009235 -0.10844978 -0.02858721
v 0.01432535 -0.10674851 -0.02858721
v 0.01675165 -0.10808162 -0.03392494
v 0.01499720 -0.10799252 -0.03402201
v 0.01314086 -0.10801437 -0.03393384
v 0.00009235 -0.12339640 -0.03685063
v 0.01956641 -0.10968202 -0.03685063
v 0.00009235 -0.12339640 -0.02858721
v 0.02397959 -0.10913734 -0.02858721
v 0.02397959 -0.10921972 -0.02925129
v 0.02697585 -0.11037631 -0.03224654
v 0.02397959 -0.11008716 -0.03524098
v 0.02544110 -0.11072262 -0.03685063
v 0.02250534 -0.11008380 -0.03685063
v 0.01491441 -0.12339640 -0.03685063
v 0.01287976 -0.12339640 -0.02858721
v 0.02631355 -0.10972405 -0.02858721
v 0.02697585 -0.10997286 -0.02925129
v 0.02863796 -0.11110255 -0.03406245
v 0.02702998 -0.11084703 -0.03513340
v 0.02634221 -0.11095294 -0.03685063
v 0.03115022 -0.11701497 -0.03685063
v 0.03119798 -0.11698470 -0.03685063
v 0.02868572 -0.11428823 -0.03043548
v 0.02758401 -0.11375196 -0.02858721
v 0.02697585 -0.10996108 -0.02858721
v 0.02888632 -0.11078482 -0.02925129
v 0.02884492 -0.11094452 -0.03224654
v 0.03136674 -0.11271808 -0.03685063
v 0.02988295 -0.11207590 -0.03685063
v 0.02875577 -0.11162537 -0.03685063
v 0.02806482 -0.11126898 -0.03605955
v 0.02699495 -0.11112272 -0.03685063
v 0.03262129 -0.11548181 -0.03685063
v 0.03161510 -0.11431848 -0.03353265
v 0.02792471 -0.11344095 -0.02858721
v 0.02846283 -0.11059317 -0.02858721
v 0.02883855 -0.11081509 -0.02858721
v 0.03239840 -0.11342918 -0.03685063
v 0.03210228 -0.11345273 -0.03524098
v 0.03161510 -0.11383769 -0.03353265
v 0.02886403 -0.11234656 -0.02858721
f 1 2 3
f 1 3 4
f 1 4 5
f 1 5 12
f 1 12 20
f 1 20 29
f 1 29 40
f 1 40 46
f 1 46 42
f 1 42 41
f 1 41 30
f 1 30 21
f 1 21 13
f 1 13 6
f 1 6 2
f 2 6 7
f 2 7 3
f 3 7 8
f 3 8 9
f 3 9 4
f 4 10 12
f 4 12 5
f 4 9 8
f 4 8 11
f 4 11 18
f 4 18 17
f 4 17 25
f 4 25 37
f 4 37 35
f 4 35 34
f 4 34 33
f 4 33 43
f 4 43 38
f 4 38 27
f 4 27 26
f 4 26 19
f 4 19 10
f 6 13 14
f 6 14 7
f 7 14 15
f 7 15 16
f 7 16 17
f 7 17 18
f 7 18 11
f 7 11 8
f 10 19 20
f 10 20 12
f 13 21 22
f 13 22 14
f 14 22 15
f 15 22 23
f 15 23 24
f 15 24 16
f 16 24 17
f 17 24 25
f 19 26 20
f 20 26 27
f 20 27 28
f 20 28 29
f 21 30 22
f 22 30 31
f 22 31 32
f 22 32 23
f 23 32 33
f 23 33 34
f 23 34 35
f 23 35 36
f 23 36 24
f 24 36 25
f 25 36 37
f 27 38 39
f 27 39 28
f 28 39 29
f 29 39 40
f 30 41 31
f 31 41 42
f 31 42 43
f 31 43 33
f 31 33 32
f 35 37 36
f 38 43 44
f 38 44 45
f 38 45 39
f 39 45 46
f 39 46 40
f 42 46 45
f 42 45 44
f 42 44 43

