# https://github.com/mikedh/trimesh
v 0.01003571 -0.13247550 -0.05492084
v 0.00902452 -0.13300854 -0.05328999
v 0.00695132 -0.13254198 -0.05234190
v 0.01003571 -0.13181636 -0.05492084
v 0.01200192 -0.13244225 -0.05490138
v 0.01200192 -0.13340746 -0.05321393
v 0.00900580 -0.13344300 -0.05021756
v 0.00695132 -0.13116409 -0.05234190
v 0.00656343 -0.13262680 -0.05021756
v 0.00133092 -0.12930015 -0.04351906
v 0.00424679 -0.12979193 -0.04905898
v 0.00424679 -0.12887715 -0.04905898
v 0.00771640 -0.12916717 -0.05168391
v 0.01959119 -0.12190744 -0.04638631
v 0.01499536 -0.12863871 -0.05215972
v 0.01200192 -0.13182437 -0.05490138
v 0.01356953 -0.13219465 -0.05475457
v 0.01410722 -0.13261420 -0.05321393
v 0.01439881 -0.13280106 -0.05021756
v 0.01200192 -0.13361724 -0.05021756
v 0.00919038 -0.13251217 -0.04702308
v 0.00600968 -0.13045794 -0.04123375
v 0.00600968 -0.13131082 -0.04422836
v 0.00680686 -0.13237461 -0.04788803
v 0.00156633 -0.12910298 -0.03981162
v 0.00133092 -0.12930015 -0.04180861
v 0.00009235 -0.12761733 -0.03685240
v 0.00009235 -0.12743850 -0.03906519
v 0.00009235 -0.12572131 -0.03933758
v 0.00009235 -0.12484206 -0.03945786
v 0.00134965 -0.12762994 -0.04335810
v 0.00148073 -0.12610418 -0.04277970
v 0.00044546 -0.12265600 -0.03685240
v 0.00600968 -0.12852179 -0.04969930
v 0.01200192 -0.12190744 -0.04303617
v 0.01485358 -0.12190744 -0.04463695
v 0.01798880 -0.12190744 -0.04601663
v 0.02100364 -0.12190744 -0.04636331
v 0.02409339 -0.12190744 -0.04624303
v 0.01356953 -0.13202956 -0.05475457
v 0.02697715 -0.12190744 -0.04460865
v 0.02742122 -0.12190744 -0.04422836
v 0.01395742 -0.13244455 -0.04787742
v 0.01267604 -0.13204561 -0.04588219
v 0.01180663 -0.13255344 -0.04701601
v 0.01067774 -0.13213389 -0.04568940
v 0.01031125 -0.13213389 -0.04568940
v 0.00900580 -0.13065052 -0.04123375
v 0.00600968 -0.12956610 -0.03858053
v 0.00356463 -0.12938268 -0.03908464
v 0.00274605 -0.12971169 -0.04098081
v 0.00286643 -0.12839454 -0.03685240
v 0.00009235 -0.12288412 -0.03685240
v 0.00230466 -0.12190744 -0.03685240
v 0.00915025 -0.12190744 -0.04127090
v 0.02725536 -0.12190744 -0.04402671
v 0.01332342 -0.12895396 -0.03994959
v 0.01132779 -0.12949502 -0.03879279
v 0.00900580 -0.12907776 -0.03686478
v 0.00900580 -0.12964979 -0.03836296
v 0.00600968 -0.12898491 -0.03708234
v 0.00600968 -0.12888977 -0.03685240
v 0.01565076 -0.12190744 -0.03685240
v 0.02425122 -0.12190744 -0.04140179
v 0.01216242 -0.12783514 -0.03685240
v 0.00900580 -0.12907203 -0.03685240
v 0.01374073 -0.12597463 -0.03685240
v 0.01357755 -0.12627842 -0.03685240
f 1 2 3
f 1 3 8
f 1 8 4
f 1 4 16
f 1 16 5
f 1 5 6
f 1 6 2
f 2 6 7
f 2 7 3
f 3 7 9
f 3 9 10
f 3 10 11
f 3 11 12
f 3 12 8
f 4 8 12
f 4 12 13
f 4 13 14
f 4 14 15
f 4 15 16
f 5 16 40
f 5 40 17
f 5 17 6
f 6 17 18
f 6 18 19
f 6 19 20
f 6 20 7
f 7 21 22
f 7 22 23
f 7 23 24
f 7 24 9
f 7 20 21
f 9 24 25
f 9 25 26
f 9 26 10
f 10 26 27
f 10 27 28
f 10 28 29
f 10 29 30
f 10 30 31
f 10 31 12
f 10 12 11
f 12 31 32
f 12 32 33
f 12 33 34
f 12 34 13
f 13 34 35
f 13 35 36
f 13 36 37
f 13 37 14
f 14 37 36
f 14 36 35
f 14 35 55
f 14 55 54
f 14 54 63
f 14 63 64
f 14 64 56
f 14 56 42
f 14 42 41
f 14 41 39
f 14 39 38
f 14 38 15
f 15 38 39
f 15 39 16
f 16 39 40
f 17 40 41
f 17 41 42
f 17 42 18
f 18 42 19
f 19 43 20
f 19 42 43
f 20 43 44
f 20 44 45
f 20 45 46
f 20 46 47
f 20 47 21
f 21 47 48
f 21 48 22
f 22 48 49
f 22 49 50
f 22 50 23
f 23 50 51
f 23 51 24
f 24 51 25
f 25 27 26
f 25 51 50
f 25 50 52
f 25 52 27
f 27 53 30
f 27 30 29
f 27 29 28
f 27 52 62
f 27 62 66
f 27 66 65
f 27 65 68
f 27 68 67
f 27 67 63
f 27 63 54
f 27 54 33
f 27 33 53
f 30 53 32
f 30 32 31
f 32 53 33
f 33 54 55
f 33 55 34
f 34 55 35
f 39 41 40
f 42 56 57
f 42 57 43
f 43 57 58
f 43 58 44
f 44 58 59
f 44 59 60
f 44 60 45
f 45 60 48
f 45 48 46
f 46 48 47
f 48 60 49
f 49 60 59
f 49 59 61
f 49 61 50
f 50 61 52
f 52 61 62
f 56 64 65
f 56 65 57
f 57 65 58
f 58 66 59
f 58 65 66
f 59 66 62
f 59 62 61
f 63 67 64
f 64 67 68
f 64 68 65

