# https://github.com/mikedh/trimesh
v 0.00001785 -0.10255215 0.01423361
v -0.00062465 -0.10259173 0.01423361
v -0.00597422 -0.10832655 0.02579184
v -0.00298051 -0.10839491 0.02573115
v 0.00001785 -0.10331128 0.01568193
v 0.00009235 -0.10332207 0.01568193
v 0.00009235 -0.10256655 0.01423361
v -0.00298051 -0.10284358 0.01423361
v -0.00298051 -0.10348757 0.01568193
v -0.00646774 -0.10956417 0.02800881
v -0.00597422 -0.10932672 0.02766224
v -0.00896793 -0.10852443 0.02522815
v -0.00896793 -0.10964333 0.02766224
v -0.00597422 -0.10953540 0.02800881
v -0.00344610 -0.10974406 0.02800881
v -0.00298051 -0.10957497 0.02766224
v 0.00009235 -0.10776890 0.02383917
v 0.00009235 -0.10657804 0.02167074
v 0.00009235 -0.10463526 0.01812276
v 0.00009235 -0.11107524 0.01423361
v -0.00403739 -0.10310621 0.01423361
v -0.00896793 -0.10792001 0.02372994
v -0.00896793 -0.10983041 0.02800881
v -0.01054627 -0.10813586 0.02324447
v -0.01197095 -0.11047801 0.02771753
v -0.01180800 -0.11055716 0.02800881
v -0.00934971 -0.10989157 0.02800881
v -0.00298051 -0.10979803 0.02800881
v 0.00009235 -0.10873310 0.02529962
v 0.00009235 -0.11266184 0.01568193
v 0.00007372 -0.11168685 0.01423361
v -0.00598819 -0.10368905 0.01423361
v -0.01271123 -0.10842729 0.02167074
v -0.01171023 -0.10899933 0.02441229
v -0.01832153 -0.10808550 0.01423361
v -0.01411730 -0.11088455 0.02675603
v -0.01225496 -0.11072265 0.02800881
v -0.00068518 -0.11046721 0.02800881
v 0.00009235 -0.11025854 0.02743434
v 0.00009235 -0.10875828 0.02533603
v 0.00009235 -0.12138280 0.02501778
v -0.00106696 -0.12371774 0.02555180
v -0.00442383 -0.12920071 0.02610739
v -0.00728717 -0.13229838 0.02602918
v -0.01045780 -0.13512261 0.02615729
v -0.01175213 -0.11881760 0.01423361
v -0.01505313 -0.11046721 0.02471976
v -0.01966242 -0.10860717 0.01423361
v -0.01611466 -0.11130189 0.02575408
v -0.01505313 -0.11173362 0.02771753
v -0.01447114 -0.11162569 0.02800881
v -0.00044308 -0.11053916 0.02800881
v 0.00009235 -0.11039526 0.02760965
v 0.00009235 -0.12218149 0.02775394
v 0.00007838 -0.12224626 0.02800881
v -0.00442383 -0.12920071 0.02627056
v -0.00728717 -0.13229838 0.02660500
v -0.01045780 -0.13512261 0.02618695
v -0.01625899 -0.13821669 0.02604940
v -0.01795837 -0.13859084 0.02572306
v -0.02095209 -0.13910532 0.02533873
v -0.04568395 -0.12960365 0.01423361
v -0.02558465 -0.11108962 0.01433610
v -0.02548223 -0.11103565 0.01423361
v -0.03159535 -0.11405776 0.01437925
v -0.02012334 -0.11378074 0.02694483
v -0.01812598 -0.11319072 0.02783081
v -0.01535576 -0.11201425 0.02800881
v 0.00009235 -0.11080901 0.02800881
v 0.00009235 -0.12219948 0.02800881
v -0.01496001 -0.13361874 0.02798859
v -0.00896793 -0.13062182 0.02794274
v -0.02095209 -0.12006602 0.02800881
v -0.00926125 -0.13342448 0.02687066
v -0.01196630 -0.13548958 0.02671153
v -0.01625899 -0.13821669 0.02638384
v -0.01795837 -0.13859084 0.02679514
v -0.02095209 -0.13910532 0.02708372
v -0.02394114 -0.13930680 0.02520523
v -0.04706673 -0.12960365 0.01423361
v -0.02568708 -0.11112920 0.01423361
v -0.03145102 -0.11396783 0.01423361
v -0.03160932 -0.11404698 0.01423361
v -0.03173969 -0.11412253 0.01423361
v -0.03584614 -0.11690000 0.01423361
v -0.03512914 -0.11665894 0.01507913
v -0.03295952 -0.11562999 0.01572778
v -0.02123144 -0.11500038 0.02800881
v -0.02076585 -0.11472695 0.02800881
v -0.01830291 -0.11336340 0.02800881
v -0.01804684 -0.11324468 0.02800881
v -0.01795837 -0.13661209 0.02769056
v -0.01196630 -0.13361874 0.02771619
v -0.02388527 -0.11904065 0.02800881
v -0.02410875 -0.11881040 0.02800881
v -0.02095209 -0.13661209 0.02778226
v -0.01514159 -0.13660848 0.02712688
v -0.02394114 -0.13930680 0.02703922
v -0.02693951 -0.13906574 0.02527940
v -0.04731350 -0.12981233 0.01568193
v -0.04722504 -0.12772922 0.01423361
v -0.02879719 -0.13857645 0.02563810
v -0.04040887 -0.12000845 0.01423361
v -0.04048802 -0.12008400 0.01431857
v -0.03432833 -0.11720940 0.01707630
v -0.03888176 -0.11945080 0.01546212
v -0.03985482 -0.12054092 0.01631573
v -0.03785747 -0.11983936 0.01768044
v -0.02307981 -0.11646467 0.02800881
v -0.04050665 -0.12307373 0.02024265
v -0.02693951 -0.13661209 0.02735882
v -0.02394114 -0.13661209 0.02764471
v -0.04108397 -0.12851354 0.02344810
v -0.02693951 -0.13906574 0.02688279
v -0.04723900 -0.13001740 0.01867701
v -0.04747180 -0.12762849 0.01568193
v -0.04661512 -0.12588358 0.01423361
v -0.02879719 -0.13857645 0.02656050
v -0.04049734 -0.12007681 0.01423361
v -0.04057648 -0.12014517 0.01423361
v -0.04363072 -0.12293702 0.01474740
v -0.04642889 -0.12611024 0.01722464
v -0.04321169 -0.12328241 0.01674457
v -0.04107932 -0.12263841 0.01867701
v -0.04375643 -0.12586920 0.02040177
v -0.04679670 -0.12867904 0.02050831
v -0.04257850 -0.12379689 0.01867701
v -0.04575378 -0.12668228 0.01922181
v -0.04108397 -0.12958208 0.02344810
v -0.04679670 -0.12973318 0.02050831
v -0.04708536 -0.12766087 0.01840460
v -0.04656390 -0.12595554 0.01568193
v -0.04594933 -0.12516044 0.01423361
v -0.04325825 -0.12251969 0.01423361
v -0.04367262 -0.12289385 0.01423361
v -0.04481796 -0.12545185 0.01840460
f 1 2 3
f 1 3 4
f 1 4 5
f 1 5 6
f 1 6 7
f 1 7 20
f 1 20 31
f 1 31 46
f 1 46 62
f 1 62 80
f 1 80 101
f 1 101 117
f 1 117 133
f 1 133 135
f 1 135 134
f 1 134 120
f 1 120 119
f 1 119 103
f 1 103 85
f 1 85 84
f 1 84 83
f 1 83 82
f 1 82 81
f 1 81 64
f 1 64 48
f 1 48 35
f 1 35 32
f 1 32 21
f 1 21 8
f 1 8 2
f 2 8 9
f 2 9 3
f 3 10 11
f 3 11 4
f 3 9 8
f 3 8 12
f 3 12 13
f 3 13 10
f 4 11 14
f 4 14 15
f 4 15 16
f 4 16 17
f 4 17 18
f 4 18 19
f 4 19 5
f 5 19 6
f 6 19 18
f 6 18 17
f 6 17 29
f 6 29 40
f 6 40 39
f 6 39 53
f 6 53 69
f 6 69 70
f 6 70 54
f 6 54 41
f 6 41 30
f 6 30 20
f 6 20 7
f 8 21 22
f 8 22 12
f 10 14 11
f 10 13 23
f 10 23 27
f 10 27 26
f 10 26 37
f 10 37 51
f 10 51 68
f 10 68 91
f 10 91 90
f 10 90 89
f 10 89 88
f 10 88 109
f 10 109 95
f 10 95 94
f 10 94 73
f 10 73 55
f 10 55 70
f 10 70 69
f 10 69 52
f 10 52 38
f 10 38 28
f 10 28 15
f 10 15 14
f 12 22 24
f 12 24 25
f 12 25 26
f 12 26 27
f 12 27 13
f 13 27 23
f 15 28 16
f 16 28 17
f 17 28 29
f 20 30 31
f 21 32 24
f 21 24 22
f 24 33 34
f 24 34 25
f 24 32 35
f 24 35 33
f 25 34 36
f 25 36 37
f 25 37 26
f 28 38 39
f 28 39 40
f 28 40 29
f 30 41 31
f 31 41 42
f 31 42 43
f 31 43 44
f 31 44 45
f 31 45 46
f 33 47 34
f 33 35 48
f 33 48 47
f 34 47 36
f 36 47 49
f 36 49 50
f 36 50 51
f 36 51 37
f 38 52 39
f 39 52 53
f 41 54 42
f 42 54 55
f 42 55 43
f 43 56 57
f 43 57 44
f 43 55 56
f 44 57 58
f 44 58 45
f 45 58 76
f 45 76 59
f 45 59 46
f 46 59 60
f 46 60 61
f 46 61 62
f 47 48 63
f 47 63 49
f 48 64 63
f 49 63 65
f 49 65 66
f 49 66 67
f 49 67 50
f 50 67 68
f 50 68 51
f 52 69 53
f 54 70 55
f 55 71 72
f 55 72 57
f 55 57 56
f 55 73 71
f 57 72 74
f 57 74 58
f 58 74 75
f 58 75 76
f 59 76 77
f 59 77 60
f 60 77 78
f 60 78 61
f 61 78 98
f 61 98 79
f 61 79 62
f 62 79 80
f 63 64 81
f 63 81 82
f 63 82 65
f 65 82 83
f 65 83 84
f 65 84 85
f 65 85 86
f 65 86 87
f 65 87 88
f 65 88 66
f 66 88 89
f 66 89 90
f 66 90 67
f 67 90 91
f 67 91 68
f 71 92 93
f 71 93 72
f 71 73 94
f 71 94 95
f 71 95 96
f 71 96 92
f 72 93 74
f 74 93 75
f 75 93 97
f 75 97 77
f 75 77 76
f 77 97 92
f 77 92 78
f 78 92 96
f 78 96 98
f 79 98 114
f 79 114 99
f 79 99 80
f 80 100 101
f 80 99 102
f 80 102 100
f 85 103 104
f 85 104 86
f 86 105 87
f 86 104 106
f 86 106 107
f 86 107 108
f 86 108 105
f 87 105 88
f 88 105 108
f 88 108 110
f 88 110 109
f 92 97 93
f 95 111 112
f 95 112 96
f 95 109 113
f 95 113 111
f 96 112 98
f 98 112 114
f 99 114 118
f 99 118 102
f 100 115 116
f 100 116 101
f 100 102 115
f 101 116 117
f 102 118 115
f 103 119 104
f 104 119 120
f 104 120 121
f 104 121 122
f 104 122 123
f 104 123 107
f 104 107 106
f 107 124 108
f 107 123 124
f 108 124 110
f 109 110 125
f 109 125 126
f 109 126 113
f 110 124 127
f 110 127 128
f 110 128 125
f 111 118 114
f 111 114 112
f 111 113 129
f 111 129 118
f 113 126 130
f 113 130 129
f 115 118 130
f 115 130 126
f 115 126 131
f 115 131 116
f 116 131 122
f 116 122 132
f 116 132 117
f 117 132 133
f 118 129 130
f 120 134 121
f 121 134 135
f 121 135 132
f 121 132 122
f 122 131 126
f 122 126 128
f 122 128 136
f 122 136 127
f 122 127 123
f 123 127 124
f 125 128 126
f 127 136 128
f 132 135 133

