# https://github.com/mikedh/trimesh
v -0.02338133 -0.13661538 -0.02245004
v -0.02340665 -0.13661538 -0.02026390
v -0.02341585 -0.12147840 -0.01191029
v -0.02322486 -0.13566199 -0.02245004
v -0.02312591 -0.13855501 -0.02245004
v -0.02341585 -0.12547337 -0.00412877
v -0.02341585 -0.12557353 -0.00528910
v -0.02341585 -0.12461841 -0.00824998
v -0.02299935 -0.13912325 -0.02245004
v -0.02293262 -0.13871045 -0.02026390
v -0.02299245 -0.13662057 -0.01733530
v -0.01863413 -0.12615387 -0.02245004
v -0.01902762 -0.12662885 -0.02245004
v -0.02005852 -0.12807623 -0.02245004
v -0.02105491 -0.12978786 -0.02245004
v -0.02152663 -0.13068081 -0.02245004
v -0.02236424 -0.13232163 -0.02245004
v -0.02281526 -0.13379318 -0.02245004
v -0.02341585 -0.12147840 -0.00412877
v -0.01364301 -0.12147840 -0.02245004
v -0.01461868 -0.12211919 -0.02245004
v -0.01618574 -0.12336103 -0.02245004
v -0.02268179 -0.13834083 -0.01837726
v -0.02277154 -0.13562745 -0.01515453
v -0.02039909 -0.13281731 -0.01201969
v -0.01883663 -0.13281731 -0.01201969
v -0.01795300 -0.12984313 -0.00926504
v -0.02083170 -0.12443706 -0.00412877
v -0.02130112 -0.13912325 -0.02245004
v -0.02159797 -0.13871045 -0.02026390
v -0.01422289 -0.12147840 -0.00412877
v 0.00009005 -0.12147840 -0.02245004
v -0.02205129 -0.13834083 -0.01837726
v -0.02145530 -0.13562745 -0.01515453
v -0.00024362 -0.12453033 -0.02245004
v -0.01619035 -0.12940443 -0.00954122
v -0.01495695 -0.12184283 -0.00412877
v -0.00299115 -0.12651312 -0.02245004
v -0.01284222 -0.12375136 -0.00636693
v -0.01186195 -0.12147840 -0.00515101
v 0.00009005 -0.12147840 -0.01908744
v 0.00009005 -0.12407263 -0.02245004
v -0.00090864 -0.12408990 -0.02098126
v -0.01175149 -0.12147840 -0.00526220
f 1 2 3
f 1 3 4
f 1 4 18
f 1 18 17
f 1 17 16
f 1 16 15
f 1 15 14
f 1 14 13
f 1 13 12
f 1 12 22
f 1 22 21
f 1 21 20
f 1 20 32
f 1 32 42
f 1 42 35
f 1 35 38
f 1 38 29
f 1 29 9
f 1 9 5
f 1 5 2
f 2 6 7
f 2 7 8
f 2 8 3
f 2 5 9
f 2 9 10
f 2 10 11
f 2 11 6
f 3 12 13
f 3 13 14
f 3 14 15
f 3 15 16
f 3 16 17
f 3 17 18
f 3 18 4
f 3 8 7
f 3 7 6
f 3 6 19
f 3 19 31
f 3 31 40
f 3 40 44
f 3 44 41
f 3 41 32
f 3 32 20
f 3 20 21
f 3 21 22
f 3 22 12
f 6 11 23
f 6 23 24
f 6 24 25
f 6 25 26
f 6 26 27
f 6 27 28
f 6 28 37
f 6 37 31
f 6 31 19
f 9 29 30
f 9 30 10
f 10 30 33
f 10 33 23
f 10 23 11
f 23 33 34
f 23 34 24
f 24 34 26
f 24 26 25
f 26 34 33
f 26 33 35
f 26 35 36
f 26 36 27
f 27 36 37
f 27 37 28
f 29 38 30
f 30 38 33
f 31 37 39
f 31 39 40
f 32 41 42
f 33 38 35
f 35 42 41
f 35 41 43
f 35 43 36
f 36 43 39
f 36 39 37
f 39 44 40
f 39 43 41
f 39 41 44

