# https://github.com/mikedh/trimesh
v 0.00009235 -0.10631894 -0.02245004
v -0.00595451 -0.10444864 -0.02245004
v 0.00009235 -0.11741848 -0.02245004
v 0.00009235 -0.11090299 -0.04312863
v -0.00056826 -0.11063814 -0.04422785
v -0.00101643 -0.11088262 -0.04662433
v -0.00297768 -0.10931522 -0.04422785
v -0.00630537 -0.10752641 -0.04422785
v -0.00912732 -0.10568599 -0.04122579
v -0.01023335 -0.10508294 -0.04022129
v -0.00896697 -0.10354269 -0.02245004
v -0.00403300 -0.11741848 -0.02245004
v 0.00009235 -0.11741848 -0.03065260
v 0.00009235 -0.11116921 -0.04422785
v 0.00009235 -0.11143000 -0.04525819
v -0.00153723 -0.11128331 -0.04862187
v -0.00271179 -0.11021572 -0.04746237
v -0.00687140 -0.10785647 -0.04647222
v -0.00896697 -0.10643981 -0.04422785
v -0.01078294 -0.10508294 -0.04022129
v -0.01196161 -0.10449617 -0.02925202
v -0.01164639 -0.10419872 -0.02326226
v -0.01160390 -0.10420144 -0.02245004
v -0.01128045 -0.10497020 -0.03823522
v -0.01196161 -0.10466731 -0.03224833
v -0.01390916 -0.11491524 -0.02245004
v -0.01390916 -0.11741848 -0.02850294
v -0.00581608 -0.11741848 -0.03494330
v 0.00009235 -0.11739267 -0.03245497
v 0.00009235 -0.11273391 -0.04710075
v -0.00121104 -0.11327992 -0.04897488
v -0.00271179 -0.11242966 -0.04968378
v -0.00716059 -0.11106870 -0.05177029
v -0.00353412 -0.11065172 -0.04950297
v -0.00591339 -0.10864425 -0.04737053
v -0.00896697 -0.10751554 -0.04698021
v -0.00608745 -0.11026734 -0.05038694
v -0.01111051 -0.10760383 -0.04665302
v -0.01162035 -0.10707411 -0.04422785
v -0.01348703 -0.10513455 -0.03406794
v -0.01350896 -0.10510059 -0.02925202
v -0.01351856 -0.10509380 -0.03224833
v -0.01347470 -0.10514270 -0.02762759
v -0.01365013 -0.10644525 -0.02245004
v -0.01212334 -0.10489821 -0.03513846
v -0.01390916 -0.10691792 -0.02245004
v -0.01390916 -0.11741848 -0.03724219
v -0.00896697 -0.11741848 -0.03630082
v 0.00001834 -0.11538790 -0.04422785
v 0.00009235 -0.11538519 -0.04415897
v 0.00009235 -0.11278280 -0.04710075
v -0.00121104 -0.11434885 -0.04897488
v -0.00716059 -0.11128602 -0.05177029
v -0.00758683 -0.11106870 -0.05177029
v -0.00896697 -0.10841741 -0.04847836
v -0.01060889 -0.11039501 -0.04895479
v -0.01101182 -0.10950129 -0.04747959
v -0.01390916 -0.11704767 -0.03686622
v -0.01390916 -0.10991555 -0.02894780
v -0.01390916 -0.10757802 -0.02616100
v -0.01060889 -0.11131998 -0.04895479
v -0.00873809 -0.11186870 -0.05005975
v -0.00522538 -0.11443035 -0.04928771
v -0.00297768 -0.11451048 -0.04933938
v -0.00297768 -0.11502933 -0.04722129
v -0.01256465 -0.11741848 -0.03718192
v -0.01098578 -0.11741848 -0.03694945
v -0.00012009 -0.11464359 -0.04702900
v 0.00009235 -0.11464767 -0.04676783
v 0.00009235 -0.11460012 -0.04689411
v -0.00758683 -0.11128602 -0.05177029
f 1 2 11
f 1 11 23
f 1 23 44
f 1 44 46
f 1 46 26
f 1 26 12
f 1 12 3
f 1 3 13
f 1 13 29
f 1 29 50
f 1 50 69
f 1 69 70
f 1 70 51
f 1 51 30
f 1 30 15
f 1 15 14
f 1 14 4
f 1 4 5
f 1 5 6
f 1 6 7
f 1 7 8
f 1 8 9
f 1 9 10
f 1 10 2
f 2 10 11
f 3 12 27
f 3 27 47
f 3 47 66
f 3 66 67
f 3 67 48
f 3 48 28
f 3 28 13
f 4 14 5
f 5 14 6
f 6 15 16
f 6 16 17
f 6 17 8
f 6 8 7
f 6 14 15
f 8 17 18
f 8 18 19
f 8 19 9
f 9 19 10
f 10 19 20
f 10 20 11
f 11 21 22
f 11 22 23
f 11 20 24
f 11 24 25
f 11 25 21
f 12 26 27
f 13 28 29
f 15 30 16
f 16 31 32
f 16 32 33
f 16 33 34
f 16 34 17
f 16 30 31
f 17 34 35
f 17 35 18
f 18 36 19
f 18 35 37
f 18 37 36
f 19 36 38
f 19 38 20
f 20 38 39
f 20 39 40
f 20 40 24
f 21 25 40
f 21 40 22
f 22 41 23
f 22 40 42
f 22 42 41
f 23 41 43
f 23 43 44
f 24 40 45
f 24 45 25
f 25 45 40
f 26 46 60
f 26 60 59
f 26 59 58
f 26 58 47
f 26 47 27
f 28 48 49
f 28 49 29
f 29 49 50
f 30 51 52
f 30 52 31
f 31 52 32
f 32 53 33
f 32 52 53
f 33 37 34
f 33 53 71
f 33 71 54
f 33 54 55
f 33 55 37
f 34 37 35
f 36 37 55
f 36 55 38
f 38 55 54
f 38 54 56
f 38 56 57
f 38 57 47
f 38 47 39
f 39 47 40
f 40 47 58
f 40 58 59
f 40 59 60
f 40 60 42
f 41 46 43
f 41 42 46
f 42 60 46
f 43 46 44
f 47 57 56
f 47 56 61
f 47 61 62
f 47 62 63
f 47 63 64
f 47 64 65
f 47 65 66
f 48 67 65
f 48 65 49
f 49 65 64
f 49 64 52
f 49 52 68
f 49 68 50
f 50 68 69
f 51 70 52
f 52 64 53
f 52 70 68
f 53 64 71
f 54 71 61
f 54 61 56
f 61 71 62
f 62 71 63
f 63 71 64
f 65 67 66
f 68 70 69

