# https://github.com/mikedh/trimesh
v 0.01419489 -0.10467228 -0.00072924
v 0.01419489 -0.10475530 -0.00215274
v 0.01419489 -0.11366472 -0.00072924
v 0.01693072 -0.10589687 -0.00072924
v 0.02222188 -0.10827600 -0.00229259
v 0.02216525 -0.10829675 -0.00528819
v 0.02207677 -0.10832789 -0.00828254
v 0.02189627 -0.10839275 -0.01127813
v 0.01419489 -0.10476568 -0.00229259
v 0.02169453 -0.10844983 -0.01348581
v 0.01419489 -0.11986291 -0.01348581
v 0.02219710 -0.12646842 -0.00947253
v 0.03145929 -0.13117738 -0.00072924
v 0.01929847 -0.10698395 -0.00072924
v 0.02398442 -0.10909585 -0.00229259
v 0.02398442 -0.10912439 -0.00528819
v 0.02398442 -0.10918926 -0.00828254
v 0.02398442 -0.10933194 -0.01127813
v 0.02343584 -0.10919963 -0.01348581
v 0.02019743 -0.10790239 -0.01348581
v 0.01419489 -0.10503032 -0.00528819
v 0.02606549 -0.13117738 -0.01127813
v 0.01419489 -0.10627826 -0.01348581
v 0.01604237 -0.12071129 -0.01348581
v 0.02871284 -0.13117738 -0.01321484
v 0.02704940 -0.13117738 -0.01314367
v 0.02518068 -0.12974264 -0.01296511
v 0.02608319 -0.13117738 -0.01141174
v 0.02517714 -0.12941055 -0.00949876
v 0.03789362 -0.13117738 -0.00072924
v 0.02298635 -0.10871447 -0.00072924
v 0.02398442 -0.10919444 -0.00072924
v 0.02675564 -0.11047611 -0.00229259
v 0.02675210 -0.11048389 -0.00528819
v 0.02669194 -0.11051762 -0.00828254
v 0.02398442 -0.10944870 -0.01348581
v 0.01956391 -0.10768706 -0.01348581
v 0.01419489 -0.10531052 -0.00764071
v 0.01720678 -0.10704103 -0.01348581
v 0.02398796 -0.12414637 -0.01348581
v 0.02922249 -0.13117738 -0.01317613
v 0.04791320 -0.13114625 -0.01348581
v 0.04861751 -0.13106322 -0.01348581
v 0.05016062 -0.12976080 -0.00828254
v 0.04979254 -0.12943131 -0.00629463
v 0.04650458 -0.12619859 -0.00073049
v 0.04649751 -0.12619859 -0.00072924
v 0.03786531 -0.13117738 -0.00184306
v 0.02666008 -0.11053059 -0.00072924
v 0.02743871 -0.11094570 -0.00072924
v 0.02815718 -0.11132969 -0.00072924
v 0.02825274 -0.11127780 -0.00229259
v 0.03403585 -0.11437560 -0.00528819
v 0.02824920 -0.11127780 -0.00528819
v 0.02818903 -0.11130893 -0.00828254
v 0.02649374 -0.11059805 -0.01127813
v 0.02626722 -0.11065772 -0.01348581
v 0.01799249 -0.10725378 -0.01348581
v 0.03067358 -0.13117738 -0.01227583
v 0.03783699 -0.13117738 -0.00229259
v 0.03751138 -0.13117738 -0.00384596
v 0.03709022 -0.13117738 -0.00500474
v 0.03683185 -0.13117738 -0.00559911
v 0.03662303 -0.13117738 -0.00599619
v 0.03510470 -0.13117738 -0.00816641
v 0.03420573 -0.13117738 -0.00922405
v 0.03314396 -0.13117738 -0.01024422
v 0.03294931 -0.13117738 -0.01042528
v 0.03272279 -0.13117738 -0.01062132
v 0.05022433 -0.13053915 -0.01348581
v 0.05016062 -0.12781495 -0.00828254
v 0.05035174 -0.13005398 -0.01127813
v 0.04979254 -0.12836498 -0.00629463
v 0.04650458 -0.12601179 -0.00073049
v 0.04650104 -0.12601179 -0.00072924
v 0.02897828 -0.11178891 -0.00072924
v 0.03243966 -0.11361282 -0.00229259
v 0.02997635 -0.11223776 -0.00229259
v 0.03393675 -0.11445343 -0.00229259
v 0.03596120 -0.11546009 -0.00528819
v 0.03596120 -0.11551457 -0.00828254
v 0.03398276 -0.11440933 -0.00828254
v 0.02666362 -0.11088604 -0.01348581
v 0.05026326 -0.12843503 -0.01348581
v 0.05035174 -0.12767485 -0.01127813
v 0.04934659 -0.12631795 -0.00828254
v 0.04702131 -0.12549031 -0.00229259
v 0.04402712 -0.12262342 -0.00072924
v 0.03115491 -0.11301869 -0.00072924
v 0.03228039 -0.11368547 -0.00072924
v 0.03377749 -0.11458056 -0.00072924
v 0.03596120 -0.11571953 -0.00229259
v 0.03810244 -0.11673397 -0.00528819
v 0.03810244 -0.11675473 -0.00828254
v 0.03781930 -0.11692596 -0.01032663
v 0.04284855 -0.12051412 -0.01127813
v 0.04387493 -0.12207598 -0.01348581
v 0.05026326 -0.12780976 -0.01348581
v 0.05001551 -0.12741540 -0.01348581
v 0.04940676 -0.12617525 -0.01127813
v 0.04648335 -0.12309821 -0.00952123
v 0.04758759 -0.12439544 -0.00842613
v 0.04763360 -0.12490655 -0.00528819
v 0.04582859 -0.12399070 -0.00229259
v 0.04433149 -0.12235100 -0.00229259
v 0.04085950 -0.11980063 -0.00072924
v 0.03474724 -0.11518767 -0.00072924
v 0.03778744 -0.11691558 -0.00229259
v 0.03959953 -0.11776138 -0.00528819
v 0.03959953 -0.11770431 -0.00828254
v 0.04173369 -0.11919872 -0.00828254
v 0.04633116 -0.12321237 -0.01208104
v 0.04595247 -0.12343549 -0.01348581
v 0.04927581 -0.12631275 -0.01348581
v 0.04764068 -0.12437987 -0.01116076
v 0.04648335 -0.12309821 -0.01008439
v 0.04323079 -0.12031952 -0.00828254
v 0.04518445 -0.12206042 -0.00842613
v 0.04633824 -0.12323831 -0.00752334
v 0.04615774 -0.12340954 -0.00528819
v 0.04300428 -0.12053227 -0.00528819
v 0.04261497 -0.12085399 -0.00229259
v 0.04466065 -0.12202929 -0.00528819
v 0.04111787 -0.11957492 -0.00229259
v 0.03755739 -0.11707385 -0.00072924
v 0.03928454 -0.11807790 -0.00229259
v 0.04150718 -0.11925580 -0.00528819
v 0.04723013 -0.12439285 -0.01348581
f 1 2 9
f 1 9 21
f 1 21 38
f 1 38 23
f 1 23 11
f 1 11 3
f 1 3 13
f 1 13 30
f 1 30 47
f 1 47 75
f 1 75 88
f 1 88 106
f 1 106 125
f 1 125 107
f 1 107 91
f 1 91 90
f 1 90 89
f 1 89 76
f 1 76 51
f 1 51 50
f 1 50 49
f 1 49 32
f 1 32 31
f 1 31 14
f 1 14 4
f 1 4 5
f 1 5 6
f 1 6 7
f 1 7 8
f 1 8 2
f 2 8 10
f 2 10 9
f 3 11 12
f 3 12 13
f 4 14 5
f 5 15 16
f 5 16 6
f 5 14 15
f 6 16 17
f 6 17 7
f 7 17 18
f 7 18 8
f 8 18 19
f 8 19 10
f 9 20 21
f 9 10 20
f 10 19 36
f 10 36 57
f 10 57 83
f 10 83 97
f 10 97 113
f 10 113 128
f 10 128 114
f 10 114 99
f 10 99 98
f 10 98 84
f 10 84 70
f 10 70 43
f 10 43 42
f 10 42 40
f 10 40 24
f 10 24 11
f 10 11 23
f 10 23 39
f 10 39 58
f 10 58 37
f 10 37 20
f 11 22 12
f 11 24 25
f 11 25 26
f 11 26 27
f 11 27 28
f 11 28 22
f 12 22 29
f 12 29 13
f 13 29 22
f 13 22 28
f 13 28 26
f 13 26 25
f 13 25 41
f 13 41 59
f 13 59 69
f 13 69 68
f 13 68 67
f 13 67 66
f 13 66 65
f 13 65 64
f 13 64 63
f 13 63 62
f 13 62 61
f 13 61 60
f 13 60 48
f 13 48 30
f 14 31 15
f 15 31 32
f 15 32 33
f 15 33 34
f 15 34 16
f 16 34 35
f 16 35 17
f 17 35 18
f 18 36 19
f 18 35 36
f 20 37 21
f 21 37 38
f 23 38 39
f 24 40 25
f 25 40 42
f 25 42 41
f 26 28 27
f 30 42 43
f 30 43 44
f 30 44 45
f 30 45 46
f 30 46 47
f 30 48 42
f 32 49 33
f 33 49 50
f 33 50 51
f 33 51 52
f 33 52 53
f 33 53 54
f 33 54 34
f 34 54 55
f 34 55 35
f 35 55 56
f 35 56 36
f 36 56 57
f 37 58 38
f 38 58 39
f 41 42 59
f 42 48 60
f 42 60 61
f 42 61 62
f 42 62 63
f 42 63 64
f 42 64 65
f 42 65 66
f 42 66 67
f 42 67 68
f 42 68 69
f 42 69 59
f 43 70 44
f 44 71 73
f 44 73 45
f 44 70 72
f 44 72 85
f 44 85 71
f 45 73 74
f 45 74 46
f 46 74 75
f 46 75 47
f 51 76 77
f 51 77 78
f 51 78 52
f 52 78 53
f 53 77 79
f 53 79 80
f 53 80 81
f 53 81 82
f 53 82 54
f 53 78 77
f 54 82 55
f 55 82 56
f 56 82 57
f 57 82 81
f 57 81 83
f 70 84 72
f 71 85 86
f 71 86 87
f 71 87 73
f 72 84 98
f 72 98 85
f 73 87 74
f 74 87 88
f 74 88 75
f 76 89 79
f 76 79 77
f 79 89 90
f 79 90 91
f 79 91 92
f 79 92 93
f 79 93 80
f 80 93 94
f 80 94 81
f 81 94 83
f 83 94 95
f 83 95 96
f 83 96 97
f 85 98 99
f 85 99 100
f 85 100 86
f 86 100 101
f 86 101 102
f 86 102 103
f 86 103 87
f 87 103 104
f 87 104 88
f 88 105 106
f 88 104 105
f 91 107 92
f 92 107 108
f 92 108 93
f 93 109 110
f 93 110 94
f 93 108 109
f 94 110 95
f 95 110 96
f 96 110 111
f 96 111 112
f 96 112 113
f 96 113 97
f 99 114 100
f 100 114 115
f 100 115 116
f 100 116 101
f 101 116 117
f 101 117 118
f 101 118 119
f 101 119 102
f 102 119 103
f 103 119 120
f 103 120 105
f 103 105 104
f 105 121 122
f 105 122 106
f 105 120 123
f 105 123 121
f 106 122 124
f 106 124 125
f 107 125 108
f 108 125 126
f 108 126 109
f 109 126 127
f 109 127 117
f 109 117 111
f 109 111 110
f 111 117 112
f 112 116 115
f 112 115 114
f 112 114 128
f 112 128 113
f 112 117 116
f 117 127 121
f 117 121 118
f 118 123 119
f 118 121 123
f 119 123 120
f 121 127 124
f 121 124 122
f 124 126 125
f 124 127 126

