# https://github.com/mikedh/trimesh
v -0.00297622 0.13895856 0.03144352
v -0.00031689 0.13595812 0.03023654
v -0.00032651 0.13895856 0.03023179
v -0.00297622 0.14195901 0.03141739
v -0.00597117 0.13895856 0.03046701
v -0.00297622 0.13595812 0.03144115
v 0.00028701 0.08491833 0.03004409
v -0.00034896 0.14195901 0.03021160
v 0.00153117 0.08383752 0.02918162
v -0.00597117 0.14195901 0.03044087
v -0.00041950 0.14494331 0.03014269
v -0.00297622 0.14494331 0.03129978
v -0.00754133 0.13895856 0.02925528
v -0.00746758 0.10487289 0.02915549
v -0.00596155 0.10301776 0.03029357
v -0.00594659 0.10001732 0.03028763
v -0.00587070 0.08503125 0.03024605
v -0.00297622 0.08503125 0.03133542
v 0.00026670 0.08222438 0.03004172
v 0.00153117 0.08335358 0.02918162
v 0.00112607 0.14195901 0.02766220
v 0.00153865 0.13595812 0.02627703
v 0.00123723 0.13903922 0.02738778
v 0.00118058 0.13595812 0.02777387
v 0.00299764 -0.01080549 0.02466732
v -0.00580122 0.14794376 0.03013319
v -0.00626831 0.14516915 0.03010705
v -0.00749643 0.14431418 0.02919588
v -0.00752636 0.14195901 0.02923508
v 0.00101277 0.14494331 0.02766220
v -0.00057556 0.14794376 0.02997994
v -0.00297622 0.14794376 0.03095408
v -0.00792184 0.13895856 0.02766220
v -0.00746009 0.10301776 0.02912697
v -0.00569540 0.06409267 0.03004172
v -0.00586001 0.08204693 0.03022704
v -0.00777327 0.10301776 0.02762894
v -0.00766211 0.05809178 0.02683537
v -0.00297622 0.08204693 0.03131403
v -0.00018863 0.07904649 0.03018665
v -0.00049539 0.04312183 0.02985520
v 0.00207094 -0.00480460 0.02675815
v 0.00298375 -0.01378980 0.02466732
v 0.00152475 0.13808747 0.02620693
v 0.00296985 -0.01387046 0.02167244
v 0.00152475 0.13808747 0.02613803
v -0.00729976 0.14794376 0.02864347
v -0.00746437 0.14631449 0.02914004
v -0.00525076 0.14991179 0.02971383
v -0.00789084 0.14195901 0.02766220
v 0.00074555 0.14794376 0.02766220
v -0.00094325 0.14986339 0.02963424
v -0.00297622 0.15012150 0.02993123
v -0.00783313 0.14195901 0.02523755
v -0.00784916 0.13895856 0.02519716
v -0.00777327 0.10301776 0.02540030
v -0.00766211 0.05809178 0.02562008
v -0.00735748 0.08204693 0.02876702
v -0.00555218 0.05210703 0.02992886
v -0.00765035 0.05510747 0.02677954
v -0.00551049 0.04910658 0.02990391
v -0.00545491 0.04610614 0.02987064
v -0.00297622 0.04610614 0.03059412
v -0.00052318 0.04012138 0.02980768
v 0.00205277 -0.00780504 0.02669995
v 0.00298161 -0.01387046 0.02466732
v 0.00191275 -0.01387046 0.01983702
v 0.00074555 0.14195901 0.02466732
v 0.00094757 0.13903922 0.02495125
v 0.00063119 0.14494331 0.02466732
v 0.00035435 0.14794376 0.02466732
v -0.00754026 0.14954077 0.02649442
v -0.00766211 0.14794376 0.02714543
v -0.00773586 0.14516915 0.02794969
v -0.00297622 0.15092808 0.02766220
v -0.00613791 0.15010537 0.02756004
v -0.00778289 0.14494331 0.02537416
v -0.00066321 0.15000859 0.02466732
v -0.00046012 0.15015376 0.02766220
v -0.00710844 0.14195901 0.02374070
v -0.00713088 0.13895856 0.02369912
v -0.00699086 0.05510747 0.02413867
v -0.00765035 0.05510747 0.02563433
v -0.00730404 0.07604605 0.02865891
v -0.00763218 0.05210703 0.02671420
v -0.00715654 0.06109223 0.02838093
v -0.00708172 0.05510747 0.02827757
v -0.00537795 0.04312183 0.02981956
v -0.00704965 0.05210703 0.02821223
v -0.00700796 0.04910658 0.02812195
v -0.00297622 0.04312183 0.03051572
v -0.00112282 0.01316580 0.02930042
v -0.00054991 0.03712095 0.02975066
v 0.00200895 -0.01080549 0.02662273
v -0.00058732 0.03413663 0.02968532
v 0.00192451 -0.01387046 0.02651818
v 0.00192771 -0.01378980 0.02652175
v 0.00001873 -0.01387046 0.01930837
v -0.00297622 0.14195901 0.02190053
v -0.00080109 0.14494331 0.02265965
v -0.00072947 0.14195901 0.02261807
v -0.00096569 0.14794376 0.02277963
v -0.00121367 0.14966983 0.02297090
v -0.00754026 0.14954077 0.02599666
v -0.00766211 0.14794376 0.02568898
v -0.00297622 0.15068610 0.02466732
v -0.00595300 0.15004085 0.02486690
v -0.00702934 0.14494331 0.02387613
v -0.00553187 0.14494331 0.02248264
v -0.00561096 0.14195901 0.02245175
v -0.00563341 0.13895856 0.02244581
v -0.00238407 -0.01387046 0.01964694
v -0.00384734 -0.01387046 0.02088244
v -0.00388048 -0.01387046 0.02091332
v -0.00517273 0.01016535 0.02227712
v -0.00698659 0.05210703 0.02417550
v -0.00763218 0.05210703 0.02567235
v -0.00719288 0.06409267 0.02842251
v -0.00760653 0.04910658 0.02662391
v -0.00695238 0.04610614 0.02799246
v -0.00527534 0.04012138 0.02974591
v -0.00756912 0.04610614 0.02649442
v -0.00752422 0.04312183 0.02634355
v -0.00297622 0.04012138 0.03039454
v -0.00161235 0.00795535 0.02919588
v -0.00137934 0.00795535 0.02919588
v -0.00125001 0.01016535 0.02924577
v -0.00469495 0.02515143 0.02931467
v 0.00001873 -0.01080549 0.02745668
v 0.00001873 -0.01378980 0.02723216
v 0.00001873 -0.01387046 0.02722384
v -0.00232635 -0.01387046 0.01963388
v -0.00297622 0.14494331 0.02197300
v -0.00297622 0.14794376 0.02220584
v -0.00297622 0.14987953 0.02277726
v -0.00682412 0.14794376 0.02419213
v -0.00494293 0.14979887 0.02284497
v -0.00532665 0.14794376 0.02259549
v -0.00480077 -0.01387046 0.02237691
v -0.00495575 -0.00480460 0.02233533
v -0.00499957 -0.00182029 0.02231632
v -0.00509150 0.00418060 0.02228662
v -0.00513639 0.00718104 0.02227831
v -0.00697162 0.04910658 0.02424203
v -0.00760653 0.04910658 0.02573768
v -0.00749002 0.04092796 0.02623188
v -0.00687650 0.04312183 0.02784159
v -0.00534909 0.01316580 0.02740085
v -0.00756912 0.04610614 0.02584342
v -0.00752422 0.04312183 0.02597766
v -0.00456775 0.02215099 0.02922439
v -0.00449187 0.02042493 0.02917212
v -0.00397774 0.01616623 0.02902243
v -0.00365922 0.01316580 0.02889888
v -0.00281162 -0.01378980 0.02687458
v -0.00280413 -0.01387046 0.02686983
v -0.00003899 -0.01387046 0.02721909
v -0.00481787 -0.01387046 0.02241017
v -0.00695238 0.04610614 0.02434657
v -0.00690642 0.04000847 0.02740322
v -0.00749002 0.04092796 0.02608814
v -0.00481787 -0.01387046 0.02437152
v -0.00452714 -0.00991826 0.02622713
v -0.00461585 -0.00780504 0.02633643
v -0.00473877 -0.00480460 0.02649205
v -0.00484993 -0.00182029 0.02663817
v -0.00527000 0.01016535 0.02724404
v -0.00441918 -0.01190243 0.02605012
v -0.00430268 -0.01387046 0.02586836
v -0.00431978 -0.01387046 0.02583391
v -0.00430909 -0.01378980 0.02587430
f 1 2 3
f 1 3 4
f 1 4 10
f 1 10 5
f 1 5 6
f 1 6 7
f 1 7 2
f 2 7 3
f 3 8 4
f 3 7 9
f 3 9 8
f 4 8 11
f 4 11 12
f 4 12 10
f 5 10 13
f 5 13 14
f 5 14 15
f 5 15 16
f 5 16 17
f 5 17 18
f 5 18 6
f 6 18 7
f 7 18 19
f 7 19 20
f 7 20 9
f 8 21 11
f 8 9 21
f 9 22 23
f 9 23 24
f 9 24 21
f 9 20 25
f 9 25 22
f 10 12 26
f 10 26 27
f 10 27 28
f 10 28 29
f 10 29 13
f 11 21 30
f 11 30 31
f 11 31 12
f 12 31 32
f 12 32 26
f 13 29 33
f 13 33 14
f 14 34 35
f 14 35 36
f 14 36 17
f 14 17 16
f 14 16 15
f 14 33 37
f 14 37 38
f 14 38 34
f 17 36 39
f 17 39 18
f 18 39 19
f 19 39 40
f 19 40 41
f 19 41 20
f 20 41 42
f 20 42 43
f 20 43 25
f 21 24 23
f 21 23 44
f 21 44 30
f 22 44 23
f 22 25 44
f 25 43 45
f 25 45 46
f 25 46 44
f 26 47 48
f 26 48 27
f 26 32 49
f 26 49 47
f 27 48 28
f 28 50 29
f 28 48 50
f 29 50 33
f 30 51 31
f 30 44 46
f 30 46 51
f 31 51 52
f 31 52 32
f 32 52 53
f 32 53 49
f 33 50 54
f 33 54 55
f 33 55 56
f 33 56 57
f 33 57 38
f 33 38 37
f 34 58 59
f 34 59 35
f 34 38 60
f 34 60 58
f 35 59 61
f 35 61 39
f 35 39 36
f 38 57 83
f 38 83 60
f 39 61 62
f 39 62 63
f 39 63 64
f 39 64 41
f 39 41 40
f 41 64 42
f 42 64 65
f 42 65 43
f 43 65 66
f 43 66 45
f 45 66 96
f 45 96 131
f 45 131 157
f 45 157 156
f 45 156 169
f 45 169 170
f 45 170 162
f 45 162 158
f 45 158 139
f 45 139 114
f 45 114 113
f 45 113 112
f 45 112 132
f 45 132 98
f 45 98 67
f 45 67 68
f 45 68 69
f 45 69 46
f 46 69 68
f 46 68 70
f 46 70 71
f 46 71 51
f 47 49 72
f 47 72 73
f 47 73 48
f 48 74 50
f 48 73 74
f 49 53 75
f 49 75 76
f 49 76 72
f 50 74 73
f 50 73 77
f 50 77 54
f 51 71 78
f 51 78 79
f 51 79 52
f 52 79 75
f 52 75 53
f 54 80 81
f 54 81 55
f 54 77 80
f 55 81 82
f 55 82 56
f 56 82 57
f 57 82 83
f 58 84 61
f 58 61 59
f 58 60 85
f 58 85 84
f 60 83 117
f 60 117 85
f 61 86 87
f 61 87 62
f 61 84 86
f 62 88 63
f 62 87 89
f 62 89 90
f 62 90 88
f 63 88 91
f 63 91 92
f 63 92 93
f 63 93 64
f 64 93 65
f 65 92 94
f 65 94 66
f 65 93 95
f 65 95 92
f 66 94 97
f 66 97 96
f 67 98 99
f 67 99 100
f 67 100 101
f 67 101 68
f 68 101 100
f 68 100 70
f 70 100 102
f 70 102 71
f 71 102 103
f 71 103 78
f 72 104 105
f 72 105 73
f 72 76 104
f 73 105 77
f 75 79 78
f 75 78 106
f 75 106 107
f 75 107 76
f 76 107 104
f 77 108 80
f 77 105 108
f 78 103 106
f 80 108 109
f 80 109 110
f 80 110 81
f 81 110 111
f 81 111 112
f 81 112 113
f 81 113 114
f 81 114 115
f 81 115 82
f 82 115 116
f 82 116 83
f 83 116 117
f 84 85 118
f 84 118 86
f 85 117 145
f 85 145 119
f 85 119 89
f 85 89 86
f 85 86 118
f 86 89 87
f 88 90 120
f 88 120 121
f 88 121 91
f 89 119 90
f 90 119 122
f 90 122 123
f 90 123 120
f 91 124 125
f 91 125 126
f 91 126 127
f 91 127 92
f 91 121 128
f 91 128 124
f 92 127 94
f 92 95 93
f 94 127 97
f 96 129 130
f 96 130 131
f 96 97 126
f 96 126 129
f 97 127 126
f 98 132 99
f 99 110 109
f 99 109 133
f 99 133 100
f 99 132 110
f 100 133 102
f 102 133 134
f 102 134 103
f 103 135 106
f 103 134 135
f 104 136 105
f 104 107 137
f 104 137 136
f 105 136 108
f 106 135 137
f 106 137 107
f 108 136 138
f 108 138 109
f 109 138 133
f 110 132 112
f 110 112 111
f 114 139 140
f 114 140 141
f 114 141 142
f 114 142 143
f 114 143 115
f 115 143 116
f 116 144 117
f 116 143 142
f 116 142 144
f 117 144 145
f 119 145 149
f 119 149 122
f 120 123 146
f 120 146 147
f 120 147 148
f 120 148 128
f 120 128 121
f 122 149 150
f 122 150 123
f 123 150 161
f 123 161 146
f 124 128 151
f 124 151 152
f 124 152 125
f 125 152 153
f 125 153 154
f 125 154 155
f 125 155 156
f 125 156 157
f 125 157 130
f 125 130 126
f 126 130 129
f 128 148 151
f 130 157 131
f 133 138 134
f 134 138 137
f 134 137 135
f 136 137 138
f 139 158 140
f 140 158 144
f 140 144 141
f 141 144 142
f 144 159 145
f 144 158 159
f 145 159 158
f 145 158 149
f 146 160 147
f 146 161 158
f 146 158 162
f 146 162 163
f 146 163 164
f 146 164 165
f 146 165 166
f 146 166 167
f 146 167 160
f 147 160 167
f 147 167 148
f 148 167 151
f 149 158 150
f 150 158 161
f 151 167 152
f 152 167 166
f 152 166 165
f 152 165 164
f 152 164 163
f 152 163 155
f 152 155 154
f 152 154 153
f 155 163 156
f 156 163 168
f 156 168 169
f 162 170 168
f 162 168 163
f 168 171 169
f 168 170 171
f 169 171 170

