# https://github.com/mikedh/trimesh
v 0.00009235 -0.10110801 0.01170551
v 0.00301335 -0.10173318 0.01170551
v 0.00009235 -0.09461915 0.00972048
v 0.00009235 -0.11020131 0.01170551
v 0.00503155 -0.10245965 0.01170551
v 0.00283527 -0.09461915 0.00912128
v 0.00009235 -0.09461915 0.00272235
v 0.00577698 -0.10275371 0.01170551
v 0.01119382 -0.10489606 0.01170551
v 0.01263913 -0.10548910 0.01170551
v 0.01419489 -0.10616863 0.01170551
v 0.00009235 -0.11736229 -0.01348581
v 0.00601028 -0.11281317 0.01170551
v 0.00287945 -0.09461915 0.00906703
v 0.00272346 -0.09461915 0.00345964
v 0.00009235 -0.09463398 0.00265577
v 0.01419489 -0.10557312 0.01012982
v 0.00432753 -0.09461915 0.00705241
v 0.01419489 -0.11571660 0.01170551
v 0.01419489 -0.11986295 -0.01348581
v 0.01235614 -0.11512109 0.01170551
v 0.00009235 -0.10348018 -0.01348581
v 0.00286150 -0.09461915 0.00350403
v 0.00601028 -0.10351230 -0.01348581
v 0.00522205 -0.10343076 -0.01348581
v 0.00222650 -0.10343570 -0.01348581
v 0.01419489 -0.10525189 0.00906456
v 0.00454149 -0.09461915 0.00555810
v 0.01419489 -0.10486642 0.00669240
v 0.01419489 -0.10627736 -0.01348581
v 0.00454149 -0.09461915 0.00513890
v 0.00900444 -0.10438210 -0.01348581
v 0.00821622 -0.10412511 -0.01348581
v 0.01419489 -0.10462920 0.00369883
v 0.01419489 -0.10458718 0.00101843
v 0.01419489 -0.10531119 -0.00764170
v 0.01419489 -0.10459213 0.00070280
v 0.01419489 -0.10475522 -0.00215021
v 0.01419489 -0.10502949 -0.00528679
f 1 2 3
f 1 3 7
f 1 7 16
f 1 16 22
f 1 22 12
f 1 12 4
f 1 4 13
f 1 13 21
f 1 21 19
f 1 19 11
f 1 11 10
f 1 10 9
f 1 9 8
f 1 8 5
f 1 5 2
f 2 5 3
f 3 6 14
f 3 14 18
f 3 18 28
f 3 28 31
f 3 31 23
f 3 23 15
f 3 15 7
f 3 5 8
f 3 8 9
f 3 9 10
f 3 10 11
f 3 11 6
f 4 12 13
f 6 11 14
f 7 15 16
f 11 17 18
f 11 18 14
f 11 19 20
f 11 20 30
f 11 30 36
f 11 36 39
f 11 39 38
f 11 38 37
f 11 37 35
f 11 35 34
f 11 34 29
f 11 29 27
f 11 27 17
f 12 20 19
f 12 19 21
f 12 21 13
f 12 22 26
f 12 26 25
f 12 25 24
f 12 24 33
f 12 33 32
f 12 32 30
f 12 30 20
f 15 23 24
f 15 24 16
f 16 24 25
f 16 25 26
f 16 26 22
f 17 27 18
f 18 27 29
f 18 29 28
f 23 31 30
f 23 30 32
f 23 32 33
f 23 33 24
f 28 29 34
f 28 34 35
f 28 35 31
f 30 31 36
f 31 35 37
f 31 37 38
f 31 38 39
f 31 39 36

