# https://github.com/mikedh/trimesh
v -0.03088616 -0.12147840 -0.02245004
v -0.04419254 -0.12031148 -0.01127902
v -0.04433683 -0.12027784 -0.01297198
v -0.04985157 -0.11765889 -0.01963980
v -0.04718221 -0.11482215 -0.02227250
v -0.03892019 -0.11195000 -0.02244646
v -0.03892019 -0.11029612 -0.02244646
v -0.02961352 -0.11467519 -0.02245004
v -0.02600340 -0.12147840 -0.02245004
v -0.02816197 -0.12147840 -0.00412877
v -0.04352592 -0.12023002 -0.00966856
v -0.04985157 -0.11765889 -0.01786435
v -0.04985157 -0.11642999 -0.01963980
v -0.04718221 -0.11356138 -0.02227250
v -0.02935957 -0.11365169 -0.02245004
v -0.02937689 -0.11368711 -0.02245004
v -0.04191565 -0.11076359 -0.02218821
v -0.03471560 -0.10809153 -0.02184388
v -0.03293218 -0.10805612 -0.02187078
v -0.02037034 -0.11061839 -0.02245004
v -0.02037034 -0.11745526 -0.02245004
v -0.02037034 -0.12147840 -0.00879159
v -0.03761005 -0.11898519 -0.00412877
v -0.04041792 -0.12013972 -0.00678479
v -0.04161553 -0.12030617 -0.00851541
v -0.02037034 -0.12147840 -0.00412877
v -0.04352592 -0.11948808 -0.00966856
v -0.04461963 -0.11855135 -0.01101718
v -0.03820452 -0.11868417 -0.00412877
v -0.04985157 -0.11642999 -0.01786435
v -0.04752562 -0.11333295 -0.02026390
v -0.04354323 -0.11110003 -0.02184029
v -0.03479352 -0.10805434 -0.02026390
v -0.02598608 -0.10491835 -0.01633638
v -0.02394583 -0.10466336 -0.01653724
v -0.03126131 -0.10808799 -0.02182415
v -0.02095038 -0.10472711 -0.01621084
v -0.02037034 -0.10481210 -0.01611759
v -0.02037034 -0.10455712 -0.00412877
v -0.04334988 -0.11749245 -0.00984431
v -0.04722838 -0.11564732 -0.01488553
v -0.03762737 -0.11678060 -0.00412877
v -0.04869148 -0.11551628 -0.01702683
v -0.04707256 -0.11366763 -0.01726894
v -0.04491110 -0.11238383 -0.01726894
v -0.04468889 -0.11172334 -0.02011864
v -0.04354323 -0.11110003 -0.02102071
v -0.02595434 -0.10492897 -0.01427219
v -0.02394583 -0.10422067 -0.01427219
v -0.02095038 -0.10377622 -0.01427219
v -0.02037034 -0.10387361 -0.01430447
v -0.02037034 -0.10451639 -0.00432425
v -0.02220570 -0.10512021 -0.00412877
v -0.04587784 -0.11564732 -0.01338805
v -0.04373081 -0.11386949 -0.01247521
v -0.04657908 -0.11400761 -0.01555805
v -0.03653942 -0.11524182 -0.00412877
v -0.04438011 -0.11564732 -0.01184932
v -0.04032558 -0.11120274 -0.01295584
v -0.04296319 -0.11136565 -0.01726894
v -0.04336432 -0.11119389 -0.01902467
v -0.04218403 -0.11062725 -0.02011864
v -0.02409301 -0.10461732 -0.01135613
v -0.02095038 -0.10347164 -0.01127902
v -0.02037034 -0.10338842 -0.01127902
v -0.02037034 -0.10434463 -0.00515101
v -0.02255199 -0.10525656 -0.00412877
v -0.02119567 -0.10460847 -0.00510438
v -0.02095038 -0.10396391 -0.00828406
v -0.03760428 -0.11103807 -0.00959682
v -0.03503015 -0.11351889 -0.00412877
v -0.03356417 -0.11202791 -0.00412877
v -0.03297547 -0.11147189 -0.00412877
v -0.03213570 -0.11072464 -0.00412877
v -0.04086810 -0.11096900 -0.01495188
v -0.02879396 -0.10831110 -0.00412877
v -0.02812157 -0.10795341 -0.00412877
v -0.02903637 -0.10787550 -0.00584146
v -0.02037034 -0.10380100 -0.00828406
f 1 2 3
f 1 3 4
f 1 4 5
f 1 5 6
f 1 6 7
f 1 7 8
f 1 8 16
f 1 16 15
f 1 15 20
f 1 20 21
f 1 21 9
f 1 9 22
f 1 22 26
f 1 26 10
f 1 10 2
f 2 11 12
f 2 12 3
f 2 10 11
f 3 12 4
f 4 12 30
f 4 30 13
f 4 13 14
f 4 14 5
f 5 14 7
f 5 7 6
f 7 15 16
f 7 16 8
f 7 14 17
f 7 17 18
f 7 18 19
f 7 19 20
f 7 20 15
f 9 21 22
f 10 23 24
f 10 24 25
f 10 25 11
f 10 26 39
f 10 39 53
f 10 53 67
f 10 67 77
f 10 77 76
f 10 76 74
f 10 74 73
f 10 73 72
f 10 72 71
f 10 71 57
f 10 57 42
f 10 42 29
f 10 29 23
f 11 27 28
f 11 28 12
f 11 25 24
f 11 24 29
f 11 29 27
f 12 28 30
f 13 30 31
f 13 31 14
f 14 31 32
f 14 32 17
f 17 32 18
f 18 32 33
f 18 33 34
f 18 34 35
f 18 35 19
f 19 36 20
f 19 35 36
f 20 37 38
f 20 38 51
f 20 51 65
f 20 65 79
f 20 79 66
f 20 66 52
f 20 52 39
f 20 39 26
f 20 26 22
f 20 22 21
f 20 36 37
f 23 29 24
f 27 40 28
f 27 29 40
f 28 41 30
f 28 40 41
f 29 42 40
f 30 41 43
f 30 43 44
f 30 44 31
f 31 44 45
f 31 45 46
f 31 46 32
f 32 46 47
f 32 47 34
f 32 34 33
f 34 48 49
f 34 49 50
f 34 50 35
f 34 47 48
f 35 50 37
f 35 37 36
f 37 50 51
f 37 51 38
f 39 52 53
f 40 54 41
f 40 42 54
f 41 54 55
f 41 55 56
f 41 56 43
f 42 57 58
f 42 58 54
f 43 56 44
f 44 56 59
f 44 59 45
f 45 60 61
f 45 61 46
f 45 59 60
f 46 61 47
f 47 61 62
f 47 62 48
f 48 63 64
f 48 64 49
f 48 62 61
f 48 61 63
f 49 64 50
f 50 64 65
f 50 65 51
f 52 66 53
f 53 66 68
f 53 68 69
f 53 69 63
f 53 63 67
f 54 58 55
f 55 70 56
f 55 58 57
f 55 57 71
f 55 71 72
f 55 72 73
f 55 73 74
f 55 74 70
f 56 70 59
f 59 75 60
f 59 70 76
f 59 76 77
f 59 77 78
f 59 78 67
f 59 67 75
f 60 75 67
f 60 67 61
f 61 67 63
f 63 69 64
f 64 69 79
f 64 79 65
f 66 79 69
f 66 69 68
f 67 78 77
f 70 74 76

