# https://github.com/mikedh/trimesh
v 0.00522525 -0.10343038 -0.01348581
v 0.00600976 -0.10351248 -0.01348581
v 0.00600976 -0.10357699 -0.01427517
v 0.01054195 -0.10515042 -0.02485621
v 0.00600976 -0.10395422 -0.01727003
v 0.00223068 -0.10343429 -0.01348581
v 0.00821982 -0.10412426 -0.01348581
v 0.02398164 -0.10885435 -0.02625459
v 0.01194509 -0.10624107 -0.02858573
v 0.01142956 -0.10622349 -0.02858573
v 0.01033126 -0.10515042 -0.02485621
v 0.02631274 -0.10972413 -0.02858573
v 0.02398164 -0.10913776 -0.02858573
v 0.01432551 -0.10674927 -0.02858573
v 0.00009235 -0.10348121 -0.01348581
v 0.01956600 -0.10768550 -0.01348581
v 0.02398164 -0.10877225 -0.02325974
v 0.00920157 -0.10564493 -0.02601512
v 0.00833189 -0.10524423 -0.02453987
v 0.00009235 -0.10844974 -0.02858573
v 0.02697620 -0.10996064 -0.02858573
v 0.00009235 -0.10365907 -0.01427517
v 0.00009235 -0.11736262 -0.01348581
v 0.02019808 -0.10790052 -0.01348581
v 0.02169537 -0.10844780 -0.01348581
v 0.02343024 -0.10920031 -0.01348581
v 0.02398164 -0.10944658 -0.01348581
v 0.02697620 -0.10991568 -0.02625459
v 0.00009235 -0.10505074 -0.01909266
v 0.00009235 -0.10446827 -0.01727003
v 0.00009235 -0.10367667 -0.01434761
v 0.00009235 -0.12339640 -0.02858573
v 0.02846452 -0.11059392 -0.02858573
v 0.00009235 -0.12075381 -0.01808009
v 0.02356024 -0.12339640 -0.01348581
v 0.02626342 -0.11065646 -0.01348581
v 0.02665792 -0.11088515 -0.01348581
v 0.00009235 -0.12339640 -0.02171353
v 0.01288202 -0.12339640 -0.02858573
v 0.02883660 -0.11081674 -0.02858573
v 0.04588949 -0.12339640 -0.01348581
v 0.02865728 -0.11092228 -0.02625459
v 0.04387220 -0.12207511 -0.01348581
v 0.02758139 -0.11375056 -0.02858573
v 0.02397267 -0.12339640 -0.02648224
v 0.02886350 -0.11234718 -0.02858573
v 0.04547258 -0.12339640 -0.01427517
v 0.04507360 -0.12339640 -0.01477924
v 0.04384530 -0.12339640 -0.01615398
v 0.02792209 -0.11343782 -0.02858573
v 0.02558651 -0.12339640 -0.02592347
v 0.02626791 -0.12339640 -0.02559531
v 0.04302941 -0.12339640 -0.01663144
f 1 2 3
f 1 3 4
f 1 4 5
f 1 5 6
f 1 6 15
f 1 15 23
f 1 23 35
f 1 35 41
f 1 41 43
f 1 43 37
f 1 37 36
f 1 36 27
f 1 27 26
f 1 26 25
f 1 25 24
f 1 24 16
f 1 16 7
f 1 7 2
f 2 7 8
f 2 8 4
f 2 4 3
f 4 9 10
f 4 10 11
f 4 11 5
f 4 8 12
f 4 12 13
f 4 13 14
f 4 14 9
f 5 11 15
f 5 15 6
f 7 16 17
f 7 17 8
f 8 17 12
f 9 14 13
f 9 13 12
f 9 12 21
f 9 21 33
f 9 33 40
f 9 40 46
f 9 46 50
f 9 50 44
f 9 44 39
f 9 39 32
f 9 32 20
f 9 20 10
f 10 18 19
f 10 19 11
f 10 20 18
f 11 19 15
f 12 17 21
f 15 19 22
f 15 22 31
f 15 31 30
f 15 30 29
f 15 29 20
f 15 20 32
f 15 32 38
f 15 38 34
f 15 34 23
f 16 24 17
f 17 24 25
f 17 25 26
f 17 26 27
f 17 27 28
f 17 28 21
f 18 20 19
f 19 20 29
f 19 29 30
f 19 30 31
f 19 31 22
f 21 28 33
f 23 34 35
f 27 36 28
f 28 36 37
f 28 37 33
f 32 39 45
f 32 45 51
f 32 51 52
f 32 52 53
f 32 53 49
f 32 49 48
f 32 48 47
f 32 47 41
f 32 41 35
f 32 35 38
f 33 37 40
f 34 38 35
f 37 42 40
f 37 43 42
f 39 44 45
f 40 42 43
f 40 43 41
f 40 41 47
f 40 47 48
f 40 48 49
f 40 49 46
f 44 50 45
f 45 50 51
f 46 52 51
f 46 51 50
f 46 49 53
f 46 53 52

