# https://github.com/mikedh/trimesh
v -0.04722118 -0.12773006 0.01423146
v -0.04691549 -0.12785894 0.01241850
v -0.04706834 -0.12960587 0.01423146
v -0.04661442 -0.12588286 0.01423146
v -0.04667464 -0.12580651 0.01268455
v -0.04658200 -0.12590674 0.01071864
v -0.04419664 -0.14256003 0.00609542
v -0.04658200 -0.12701410 0.01071864
v -0.02552134 -0.13241723 0.01422031
v -0.04568344 -0.12960587 0.01423146
v -0.04386778 -0.14337625 0.00609542
v -0.04361767 -0.14151952 0.00843571
v -0.03797154 -0.14129993 0.01137341
v -0.03592429 -0.14142404 0.01155423
v -0.04594745 -0.12515737 0.01423146
v -0.04529437 -0.12430776 0.01268455
v -0.04382147 -0.12270878 0.00969028
v -0.04405306 -0.12463233 0.00712855
v -0.04411790 -0.14013053 0.00609542
v -0.04366399 -0.12285674 0.00723848
v -0.02513227 -0.13241723 0.01422031
v -0.01175109 -0.11881870 0.01423146
v -0.04246435 -0.14328554 0.00609542
v -0.03395116 -0.14133812 0.01148971
v -0.04191318 -0.14182021 0.00894152
v -0.03294607 -0.13969141 0.01206562
v -0.04366862 -0.12289492 0.01423146
v -0.04379831 -0.12276605 0.01268455
v -0.04231151 -0.12121002 0.00969028
v -0.04076913 -0.11980674 0.00669443
v -0.04232077 -0.12175415 0.00609542
v -0.04072744 -0.11984491 0.00609542
v -0.04248288 -0.12176847 0.00642201
v -0.03062555 -0.13874635 0.01191427
v 0.00007382 -0.11168771 0.01423146
v -0.03062555 -0.13874635 0.01057526
v -0.03395116 -0.14133812 0.01081582
v -0.02986594 -0.13321911 0.00609542
v -0.04326102 -0.12251785 0.01423146
v -0.04214940 -0.12126730 0.01268455
v -0.04081545 -0.11978764 0.00969028
v -0.03901368 -0.11831276 0.00669443
v -0.03749910 -0.11708608 0.00609542
v -0.04042175 -0.11957763 0.00609542
v -0.01619759 -0.12636495 0.01163389
v -0.01619759 -0.12636495 0.01095124
v -0.01321009 -0.12343428 0.01087317
v 0.00008772 -0.10777856 0.00609542
v 0.00008772 -0.11145383 0.01387381
v 0.00008772 -0.11107676 0.01423146
v -0.04057460 -0.12014085 0.01423146
v -0.04064870 -0.11994039 0.01268455
v -0.03866167 -0.11809320 0.00973250
v -0.03749447 -0.11709562 0.00876150
v -0.03751300 -0.11707652 0.00669443
v -0.03551207 -0.11568756 0.00609542
v 0.00008772 -0.09461916 0.00609542
v 0.00008772 -0.10256634 0.01423146
v -0.04049585 -0.12007403 0.01423146
v -0.04040785 -0.12000243 0.01423146
v -0.03892105 -0.11864210 0.01268455
v -0.03736015 -0.11719585 0.01075767
v -0.03618830 -0.11632715 0.00973250
v -0.00292756 -0.09461916 0.00669443
v -0.03373810 -0.11455157 0.00669443
v -0.03592429 -0.11597872 0.00669443
v -0.03376589 -0.11454679 0.00609542
v -0.00277472 -0.09461916 0.00609542
v 0.00008772 -0.09461916 0.00972215
v 0.00008309 -0.09461916 0.00972374
v 0.00001824 -0.09461916 0.00974525
v 0.00007382 -0.10256158 0.01423146
v -0.03584556 -0.11689992 0.01423146
v -0.03715635 -0.11734382 0.01268455
v -0.03565565 -0.11632715 0.01268455
v -0.00291367 -0.09461916 0.00674302
v -0.03174181 -0.11412199 0.01423146
v -0.00598453 -0.10368802 0.01423146
v -0.00403919 -0.10310570 0.01423146
v -0.00297851 -0.10284319 0.01423146
v -0.00062558 -0.10259021 0.01423146
v 0.00001824 -0.10255680 0.01423146
v -0.00204290 -0.09461916 0.00883398
v -0.02568808 -0.11112926 0.01423146
v -0.02548429 -0.11103857 0.01423146
v -0.01966215 -0.10860907 0.01423146
v -0.01895812 -0.10833223 0.01423146
v -0.01832357 -0.10808880 0.01423146
v -0.03531753 -0.11654194 0.01423146
v -0.00208921 -0.09461916 0.00881088
v -0.03161212 -0.11405040 0.01423146
v -0.03145000 -0.11396924 0.01423146
f 1 2 3
f 1 3 10
f 1 10 22
f 1 22 35
f 1 35 50
f 1 50 58
f 1 58 72
f 1 72 82
f 1 82 81
f 1 81 80
f 1 80 79
f 1 79 78
f 1 78 88
f 1 88 87
f 1 87 86
f 1 86 85
f 1 85 84
f 1 84 92
f 1 92 91
f 1 91 77
f 1 77 89
f 1 89 73
f 1 73 60
f 1 60 59
f 1 59 51
f 1 51 39
f 1 39 27
f 1 27 15
f 1 15 4
f 1 4 5
f 1 5 6
f 1 6 2
f 2 7 3
f 2 6 8
f 2 8 7
f 3 9 21
f 3 21 10
f 3 7 11
f 3 11 12
f 3 12 13
f 3 13 14
f 3 14 9
f 4 15 5
f 5 15 16
f 5 16 17
f 5 17 6
f 6 18 19
f 6 19 7
f 6 7 8
f 6 17 20
f 6 20 18
f 7 19 31
f 7 31 32
f 7 32 44
f 7 44 43
f 7 43 56
f 7 56 67
f 7 67 68
f 7 68 57
f 7 57 48
f 7 48 38
f 7 38 23
f 7 23 11
f 9 14 21
f 10 21 22
f 11 23 24
f 11 24 14
f 11 14 13
f 11 13 25
f 11 25 12
f 12 25 13
f 14 24 26
f 14 26 21
f 15 27 28
f 15 28 16
f 16 28 17
f 17 28 29
f 17 29 30
f 17 30 20
f 18 20 31
f 18 31 19
f 20 30 32
f 20 32 33
f 20 33 31
f 21 26 24
f 21 24 34
f 21 34 35
f 21 35 22
f 23 36 37
f 23 37 24
f 23 38 36
f 24 37 36
f 24 36 34
f 27 39 28
f 28 39 40
f 28 40 41
f 28 41 29
f 29 41 30
f 30 41 42
f 30 42 43
f 30 43 44
f 30 44 32
f 31 33 32
f 34 36 46
f 34 46 45
f 34 45 35
f 35 46 47
f 35 47 48
f 35 48 49
f 35 49 50
f 35 45 46
f 36 38 48
f 36 48 46
f 39 51 40
f 40 51 52
f 40 52 41
f 41 52 53
f 41 53 54
f 41 54 55
f 41 55 42
f 42 55 43
f 43 55 56
f 46 48 47
f 48 57 69
f 48 69 58
f 48 58 50
f 48 50 49
f 51 59 52
f 52 59 60
f 52 60 61
f 52 61 62
f 52 62 53
f 53 62 54
f 54 62 63
f 54 63 64
f 54 64 65
f 54 65 66
f 54 66 55
f 55 66 56
f 56 66 67
f 57 68 64
f 57 64 76
f 57 76 90
f 57 90 83
f 57 83 71
f 57 71 70
f 57 70 69
f 58 69 70
f 58 70 71
f 58 71 72
f 60 73 74
f 60 74 61
f 61 74 62
f 62 74 75
f 62 75 64
f 62 64 63
f 64 68 67
f 64 67 65
f 64 75 77
f 64 77 76
f 65 67 66
f 71 78 79
f 71 79 80
f 71 80 81
f 71 81 82
f 71 82 72
f 71 83 84
f 71 84 85
f 71 85 86
f 71 86 87
f 71 87 88
f 71 88 78
f 73 89 74
f 74 89 75
f 75 89 77
f 76 77 90
f 77 91 90
f 83 90 84
f 84 90 92
f 90 91 92

