# https://github.com/mikedh/trimesh
v -0.04411799 -0.14432383 -0.00412877
v -0.04407139 -0.14260556 -0.00412877
v -0.04390724 -0.14260556 -0.00459147
v -0.04394574 -0.14480430 -0.00464348
v -0.04401870 -0.14485006 -0.00412877
v -0.04361746 -0.14125794 -0.00412877
v -0.03204039 -0.12463581 -0.02245004
v -0.04112696 -0.14433070 -0.00706276
v -0.04002255 -0.14433070 -0.00706276
v -0.04363165 -0.14485006 -0.00412877
v -0.03193704 -0.12666067 -0.02245004
v -0.04349385 -0.14099711 -0.00412877
v -0.03088532 -0.12147840 -0.02245004
v -0.03121158 -0.12232268 -0.02245004
v -0.03148312 -0.12668125 -0.02245004
v -0.03431812 -0.13824011 -0.00985686
v -0.03700721 -0.14159428 -0.00752187
v -0.04002255 -0.14433070 -0.00619297
v -0.04214019 -0.14475168 -0.00412877
v -0.03023888 -0.12668125 -0.02245004
v -0.02866231 -0.12576149 -0.02245004
v -0.04337429 -0.14077289 -0.00412877
v -0.02827121 -0.12161340 -0.00412877
v -0.02816178 -0.12147840 -0.00412877
v -0.02600362 -0.12147840 -0.02245004
v -0.04096687 -0.13735008 -0.00412877
v -0.02767138 -0.13023677 -0.00828406
v -0.03147501 -0.13507126 -0.00828406
v -0.03422692 -0.13836823 -0.00828406
v -0.02849412 -0.12609325 -0.02170579
v -0.02812328 -0.12657373 -0.01970795
v -0.03700721 -0.14159428 -0.00630236
v -0.04070546 -0.14387767 -0.00412877
v -0.02341585 -0.12147840 -0.00412877
v -0.02513225 -0.12147840 -0.02026390
v -0.02341585 -0.12461980 -0.00824998
v -0.02341585 -0.12557387 -0.00528910
v -0.02431761 -0.12147840 -0.01767425
v -0.02341585 -0.12547320 -0.00412877
v -0.02341585 -0.12147840 -0.01191029
v -0.02423453 -0.12147840 -0.01723487
v -0.02378264 -0.12147840 -0.01452326
f 1 2 3
f 1 3 4
f 1 4 5
f 1 5 10
f 1 10 19
f 1 19 33
f 1 33 39
f 1 39 34
f 1 34 24
f 1 24 23
f 1 23 26
f 1 26 22
f 1 22 12
f 1 12 6
f 1 6 2
f 2 6 7
f 2 7 3
f 3 7 4
f 4 8 9
f 4 9 10
f 4 10 5
f 4 7 11
f 4 11 8
f 6 12 13
f 6 13 14
f 6 14 7
f 7 14 13
f 7 13 25
f 7 25 21
f 7 21 20
f 7 20 15
f 7 15 11
f 8 11 15
f 8 15 20
f 8 20 9
f 9 16 17
f 9 17 32
f 9 32 18
f 9 18 19
f 9 19 10
f 9 20 21
f 9 21 16
f 12 22 13
f 13 23 24
f 13 24 34
f 13 34 40
f 13 40 42
f 13 42 41
f 13 41 38
f 13 38 35
f 13 35 25
f 13 22 26
f 13 26 23
f 16 27 28
f 16 28 29
f 16 29 17
f 16 21 30
f 16 30 31
f 16 31 27
f 17 29 32
f 18 33 19
f 18 32 33
f 21 25 30
f 25 35 30
f 27 31 36
f 27 36 37
f 27 37 28
f 28 37 29
f 29 37 32
f 30 35 31
f 31 35 38
f 31 38 36
f 32 37 39
f 32 39 33
f 34 39 37
f 34 37 36
f 34 36 40
f 36 38 41
f 36 41 42
f 36 42 40

