# https://github.com/mikedh/trimesh
v -0.04513919 -0.14260378 0.00070372
v -0.04473186 -0.14260378 -0.00229145
v -0.04427582 -0.14501609 -0.00229145
v -0.04434224 -0.14479902 0.00070372
v -0.04493995 -0.14260378 0.00369889
v -0.04231886 -0.12175141 0.00609462
v -0.04407216 -0.14260378 -0.00412878
v -0.04411643 -0.14432544 -0.00412878
v -0.04401902 -0.14484835 -0.00412878
v -0.03820569 -0.11868793 -0.00412878
v -0.04250481 -0.14501609 -0.00229145
v -0.04283245 -0.14479902 0.00070372
v -0.04408544 -0.14452770 0.00369889
v -0.04369139 -0.14425145 0.00555223
v -0.04386849 -0.14337829 0.00609462
v -0.04419613 -0.14255938 0.00609462
v -0.04411643 -0.14012735 0.00609462
v -0.04072938 -0.11984722 0.00609462
v -0.03653651 -0.11524460 -0.00412878
v -0.03762568 -0.11678374 -0.00412878
v -0.04362940 -0.14484835 -0.00412878
v -0.04213733 -0.14474969 -0.00412878
v -0.04070281 -0.14387654 -0.00412878
v -0.04300955 -0.14452770 0.00369889
v -0.04321765 -0.14425145 0.00555223
v -0.04246497 -0.14328454 0.00609462
v -0.04041945 -0.11958083 0.00609462
v -0.03213112 -0.11072585 -0.00412878
v -0.03297235 -0.11147568 -0.00412878
v -0.03356121 -0.11202820 -0.00412878
v -0.03502673 -0.11352294 -0.00412878
v -0.00789486 -0.11787396 -0.00412878
v 0.00008797 -0.11151022 -0.00412878
v -0.02986423 -0.13322096 0.00609462
v -0.03750171 -0.11708466 0.00609462
v -0.02878834 -0.10831354 -0.00412878
v 0.00008797 -0.10116542 -0.00412878
v 0.00008797 -0.10777583 0.00609462
v -0.03551375 -0.11568858 0.00609462
v -0.00277664 -0.09461915 0.00609462
v -0.02811536 -0.10795342 -0.00412878
v -0.03376488 -0.11454903 0.00609462
v 0.00001713 -0.10116050 -0.00412878
v -0.00023967 -0.09461915 0.00255806
v 0.00008797 -0.09463395 0.00265613
v 0.00008797 -0.09461915 0.00609462
v -0.00233831 -0.09461915 0.00401712
v -0.02254996 -0.10525993 -0.00412878
v -0.00298031 -0.10148115 -0.00412878
v -0.00033265 -0.09461915 0.00260610
v 0.00008797 -0.09461915 0.00272418
v -0.00818265 -0.10210272 -0.00412878
v -0.01196375 -0.10257631 -0.00412878
v -0.01496119 -0.10308442 -0.00412878
v -0.01795419 -0.10380958 -0.00412878
v -0.00232060 -0.09461915 0.00396908
v -0.02220462 -0.10512180 -0.00412878
f 1 2 3
f 1 3 4
f 1 4 5
f 1 5 6
f 1 6 2
f 2 7 8
f 2 8 9
f 2 9 3
f 2 6 10
f 2 10 7
f 3 9 21
f 3 21 11
f 3 11 12
f 3 12 4
f 4 12 24
f 4 24 13
f 4 13 5
f 5 13 14
f 5 14 15
f 5 15 16
f 5 16 17
f 5 17 6
f 6 17 16
f 6 16 15
f 6 15 26
f 6 26 34
f 6 34 38
f 6 38 46
f 6 46 40
f 6 40 42
f 6 42 39
f 6 39 35
f 6 35 27
f 6 27 18
f 6 18 19
f 6 19 20
f 6 20 10
f 7 10 20
f 7 20 19
f 7 19 31
f 7 31 30
f 7 30 29
f 7 29 28
f 7 28 36
f 7 36 41
f 7 41 48
f 7 48 57
f 7 57 55
f 7 55 54
f 7 54 53
f 7 53 52
f 7 52 49
f 7 49 43
f 7 43 37
f 7 37 33
f 7 33 32
f 7 32 23
f 7 23 22
f 7 22 21
f 7 21 9
f 7 9 8
f 11 21 22
f 11 22 23
f 11 23 24
f 11 24 12
f 13 24 25
f 13 25 14
f 14 25 15
f 15 25 26
f 18 27 28
f 18 28 29
f 18 29 30
f 18 30 31
f 18 31 19
f 23 32 24
f 24 32 33
f 24 33 25
f 25 33 34
f 25 34 26
f 27 35 28
f 28 35 36
f 33 37 45
f 33 45 51
f 33 51 46
f 33 46 38
f 33 38 34
f 35 39 36
f 36 40 41
f 36 39 42
f 36 42 40
f 37 43 44
f 37 44 45
f 40 46 51
f 40 51 44
f 40 44 50
f 40 50 56
f 40 56 47
f 40 47 41
f 41 47 48
f 43 49 44
f 44 51 45
f 44 49 52
f 44 52 53
f 44 53 54
f 44 54 55
f 44 55 50
f 47 56 48
f 48 56 57
f 50 55 57
f 50 57 56

