# https://github.com/mikedh/trimesh
v 0.03107912 -0.12796977 0.01170551
v 0.03243878 -0.12953541 0.01170551
v 0.01206231 -0.12796977 0.02178494
v 0.03673396 -0.12796977 0.01170551
v 0.03379110 -0.13092387 0.01170551
v 0.01287224 -0.12977862 0.02261734
v 0.01287224 -0.12977862 0.02384477
v 0.01214294 -0.12796977 0.02385686
v 0.03471464 -0.13185488 0.01170551
v 0.03712976 -0.12796977 0.01171357
v 0.03821455 -0.13079178 0.01170551
v 0.02246677 -0.14112470 0.02913944
v 0.03615125 -0.13293569 0.01170551
v 0.01595436 -0.13298240 0.02651125
v 0.02246677 -0.14112470 0.02919185
v 0.01596536 -0.13062587 0.02646087
v 0.02169349 -0.12796977 0.03005246
v 0.03729834 -0.12796977 0.01184861
v 0.03793602 -0.13297595 0.01170551
v 0.04049408 -0.12904252 0.01414223
v 0.04049408 -0.12920198 0.01414223
v 0.04710910 -0.13961060 0.02247424
v 0.02398401 -0.14144202 0.02888751
v 0.04941795 -0.14410780 0.02615653
v 0.02178511 -0.13961060 0.02958688
v 0.02106314 -0.13661462 0.02976828
v 0.02398401 -0.14144202 0.02992347
v 0.02750225 -0.14138886 0.03229368
v 0.02196469 -0.12796977 0.03018548
v 0.03913076 -0.12796977 0.01343480
v 0.04944726 -0.14410780 0.02615653
v 0.04007629 -0.12796977 0.01507943
v 0.04022655 -0.12796977 0.01568206
v 0.04071763 -0.12877998 0.01568206
v 0.04950223 -0.14103289 0.02578165
v 0.04690753 -0.13763422 0.02233517
v 0.04948758 -0.14260498 0.02587235
v 0.04576044 -0.14442511 0.02849248
v 0.02398401 -0.13961060 0.03091509
v 0.04576044 -0.14442511 0.02964533
v 0.02669599 -0.14172067 0.03094935
v 0.02874096 -0.14138886 0.03229368
v 0.02750225 -0.14034349 0.03229368
v 0.02390338 -0.12796977 0.03063896
v 0.04944726 -0.14410780 0.02619482
v 0.04715308 -0.14442511 0.02964533
v 0.04828551 -0.14426565 0.02734365
v 0.03991503 -0.12796977 0.01871536
v 0.04076894 -0.12874937 0.01809661
v 0.04346626 -0.13210937 0.02019473
v 0.04346626 -0.13210937 0.02007178
v 0.04950223 -0.14103289 0.02626940
v 0.04948758 -0.14260498 0.02626537
v 0.02874096 -0.14034349 0.03229368
v 0.02726037 -0.12796977 0.02967556
v 0.02997601 -0.13362025 0.03094532
v 0.04201499 -0.13947207 0.03031649
v 0.04856037 -0.14260498 0.02776488
v 0.04706512 -0.14260498 0.02960301
v 0.03976478 -0.12796977 0.01914265
v 0.04656304 -0.14102644 0.02926441
v 0.03832816 -0.12796977 0.02149068
v 0.03812293 -0.12796977 0.02172649
v 0.02893153 -0.12879607 0.02941758
v 0.02969382 -0.12796977 0.02825868
v 0.03872763 -0.13665329 0.03004440
v 0.04494685 -0.14049974 0.02978037
v 0.03604131 -0.12796977 0.02383671
v 0.03580676 -0.12796977 0.02403221
v 0.03563818 -0.12796977 0.02415717
v 0.03322305 -0.12796977 0.02593684
v 0.03023621 -0.12796977 0.02792209
f 1 2 3
f 1 3 8
f 1 8 17
f 1 17 29
f 1 29 44
f 1 44 55
f 1 55 65
f 1 65 72
f 1 72 71
f 1 71 70
f 1 70 69
f 1 69 68
f 1 68 63
f 1 63 62
f 1 62 60
f 1 60 48
f 1 48 33
f 1 33 32
f 1 32 30
f 1 30 18
f 1 18 10
f 1 10 4
f 1 4 11
f 1 11 19
f 1 19 13
f 1 13 9
f 1 9 5
f 1 5 2
f 2 5 3
f 3 6 7
f 3 7 8
f 3 5 9
f 3 9 6
f 4 10 11
f 6 12 15
f 6 15 7
f 6 9 13
f 6 13 12
f 7 14 8
f 7 15 14
f 8 14 16
f 8 16 17
f 10 18 11
f 11 18 20
f 11 20 21
f 11 21 22
f 11 22 19
f 12 23 27
f 12 27 15
f 12 13 23
f 13 19 24
f 13 24 23
f 14 15 25
f 14 25 26
f 14 26 17
f 14 17 16
f 15 27 28
f 15 28 25
f 17 26 29
f 18 30 20
f 19 22 31
f 19 31 24
f 20 30 32
f 20 32 33
f 20 33 34
f 20 34 35
f 20 35 36
f 20 36 22
f 20 22 21
f 22 36 35
f 22 35 37
f 22 37 31
f 23 24 38
f 23 38 40
f 23 40 27
f 24 31 38
f 25 28 39
f 25 39 26
f 26 39 29
f 27 40 41
f 27 41 28
f 28 29 39
f 28 41 40
f 28 40 46
f 28 46 42
f 28 42 54
f 28 54 43
f 28 43 29
f 29 43 44
f 31 37 53
f 31 53 45
f 31 45 46
f 31 46 47
f 31 47 38
f 33 48 49
f 33 49 50
f 33 50 51
f 33 51 34
f 34 51 35
f 35 52 53
f 35 53 37
f 35 51 50
f 35 50 52
f 38 47 46
f 38 46 40
f 42 46 54
f 43 54 44
f 44 54 56
f 44 56 57
f 44 57 55
f 45 53 58
f 45 58 46
f 46 58 59
f 46 59 57
f 46 57 54
f 48 50 49
f 48 60 50
f 50 60 52
f 52 61 59
f 52 59 58
f 52 58 53
f 52 60 62
f 52 62 63
f 52 63 61
f 54 57 56
f 55 64 65
f 55 57 66
f 55 66 67
f 55 67 64
f 57 59 67
f 57 67 66
f 59 61 67
f 61 63 68
f 61 68 69
f 61 69 70
f 61 70 71
f 61 71 72
f 61 72 65
f 61 65 64
f 61 64 67

