# https://github.com/mikedh/trimesh
v -0.03206613 -0.14250061 0.04573344
v -0.03183631 -0.14460030 0.04563497
v -0.03188669 -0.14470528 0.04776629
v -0.03188669 -0.14342797 0.04776629
v -0.03194965 -0.14044990 0.04480344
v -0.03199057 -0.13951553 0.04273119
v -0.03179539 -0.14230813 0.04289968
v -0.03011427 -0.14485925 0.04549710
v -0.03151835 -0.14415936 0.04407039
v -0.02987186 -0.14504823 0.04871161
v -0.02882982 -0.14447431 0.05028494
v -0.02882982 -0.14380592 0.05028494
v -0.02994112 -0.14261609 0.04868316
v -0.03105242 -0.14142975 0.04679910
v -0.03184261 -0.13749634 0.04179682
v -0.02536369 -0.12321141 0.03508553
v -0.02634907 -0.12520961 0.03595426
v -0.02539203 -0.12018434 0.03200233
v -0.02618851 -0.12218256 0.03308768
v -0.03155298 -0.13480872 0.03793898
v -0.03169779 -0.13654447 0.03942916
v -0.03174187 -0.13961002 0.04057360
v -0.03143650 -0.14111130 0.04113816
v -0.02693777 -0.14484876 0.04622797
v -0.02693777 -0.14528270 0.04862846
v -0.03123187 -0.14415936 0.04407039
v 0.00008920 -0.14174122 0.04368744
v 0.00008920 -0.14259510 0.04561746
v -0.02693777 -0.14453381 0.05036372
v -0.02693777 -0.14324249 0.05036372
v -0.02515906 -0.14125828 0.05009675
v -0.02605944 -0.13751383 0.04751246
v -0.02805537 -0.13849019 0.04678378
v -0.02509295 -0.13240106 0.04385594
v -0.02882352 -0.12824717 0.03583172
v -0.03155298 -0.13480872 0.03847072
v -0.02220609 -0.12335139 0.03795867
v -0.02336776 -0.12229804 0.03596082
v -0.02437832 -0.12124120 0.03403737
v -0.02224071 -0.12030333 0.03498488
v -0.02339294 -0.11944246 0.03298922
v -0.02196997 -0.11744424 0.03174412
v -0.02297738 -0.11676884 0.02974845
v -0.02559980 -0.11979590 0.03000667
v -0.03155298 -0.13559261 0.03793898
v -0.02559980 -0.11979590 0.02897820
v -0.03142076 -0.14111130 0.04113816
v -0.02874167 -0.13238007 0.03499144
v -0.02508351 -0.14430985 0.05028275
v 0.00007976 -0.12224904 0.02800881
v 0.00008920 -0.12220355 0.02800881
v 0.00008920 -0.14250411 0.04567873
v -0.02224701 -0.14130728 0.05019304
v -0.02224701 -0.14095032 0.05019304
v -0.02315998 -0.14095032 0.05019304
v -0.02394387 -0.13692592 0.04786039
v -0.01409957 -0.13193913 0.04722143
v -0.01609235 -0.13221909 0.04707700
v -0.01795292 -0.13257955 0.04688225
v -0.01795292 -0.13062333 0.04579471
v -0.01795292 -0.12840815 0.04454742
v -0.01973793 -0.12890157 0.04428045
v -0.01675976 -0.12292095 0.04131322
v -0.01875570 -0.12366284 0.04069395
v -0.02002441 -0.12566105 0.04153861
v -0.02309701 -0.13161719 0.04451459
v -0.02020700 -0.12252201 0.03870048
v -0.02122386 -0.12141266 0.03686456
v -0.01885959 -0.12052380 0.03776830
v -0.02024478 -0.11959293 0.03577264
v -0.02110738 -0.11851859 0.03378135
v -0.01863607 -0.11759823 0.03457568
v -0.01997089 -0.11685283 0.03257783
v -0.02096256 -0.11620892 0.03071127
v -0.01923422 -0.11425970 0.02894319
v -0.02123015 -0.11499810 0.02800881
v -0.02307498 -0.11646438 0.02800881
v -0.02559980 -0.12052029 0.02897820
v -0.02411072 -0.11881254 0.02800881
v -0.02799870 -0.13238007 0.03499144
v -0.02394387 -0.12078276 0.02870248
v -0.02094682 -0.12006886 0.02800881
v 0.00008920 -0.13982698 0.04615138
v 0.00008920 -0.11080571 0.02800881
v -0.01275845 -0.13193913 0.04722143
v -0.01495902 -0.12783073 0.04486471
v -0.01504402 -0.13081580 0.04648399
v -0.00896806 -0.12762778 0.04513605
v -0.00896806 -0.12590602 0.04428264
v -0.01224530 -0.12733380 0.04493035
v -0.01342901 -0.12613697 0.04413384
v -0.01495902 -0.12633646 0.04402005
v -0.01495902 -0.12463570 0.04291938
v -0.01795292 -0.12691388 0.04357147
v -0.01495902 -0.12260249 0.04153861
v -0.01495902 -0.12110472 0.04028475
v -0.01495902 -0.11944596 0.03879020
v -0.01686365 -0.11990089 0.03839632
v -0.01781125 -0.12172412 0.03954513
v -0.01775143 -0.11874955 0.03652320
v -0.01664013 -0.11705230 0.03527591
v -0.01776403 -0.11643289 0.03360848
v -0.01602939 -0.11434719 0.03182945
v -0.01812292 -0.11475664 0.03076160
v -0.02076108 -0.11472864 0.02800881
v -0.01723828 -0.11377678 0.02983161
v -0.01829922 -0.11336034 0.02800881
v -0.02388720 -0.11904001 0.02800881
v -0.00896806 -0.13062333 0.04602665
v 0.00008920 -0.12464620 0.03930224
v -0.00088988 -0.12164014 0.03872455
v -0.00191303 -0.12463570 0.04088214
v -0.00340841 -0.12463570 0.04183402
v -0.00718620 -0.12595852 0.04424982
v -0.00659120 -0.12762778 0.04456930
v -0.00044284 -0.11053974 0.02800881
v -0.00134007 -0.11108217 0.02926486
v 0.00008920 -0.11263594 0.03030426
v -0.01143307 -0.12600750 0.04421918
v -0.00896806 -0.12441173 0.04325198
v -0.01196511 -0.12234703 0.04171586
v -0.01224530 -0.12485967 0.04339641
v -0.01196511 -0.12084925 0.04059548
v -0.01196511 -0.11902252 0.03910093
v -0.01196511 -0.11752473 0.03778143
v -0.01495902 -0.11794817 0.03725844
v -0.01495902 -0.11661136 0.03576170
v -0.01500624 -0.11504009 0.03360411
v -0.01403660 -0.11389926 0.03257345
v -0.01500624 -0.11329385 0.03076160
v -0.01297252 -0.11135162 0.02875500
v -0.01535568 -0.11201654 0.02800881
v 0.00008920 -0.12451322 0.03924097
v -0.00400026 -0.12281596 0.04136136
v 0.00008920 -0.12164014 0.03787770
v -0.00139044 -0.12003037 0.03822564
v -0.00597416 -0.12249401 0.04161301
v -0.00896806 -0.12231553 0.04175305
v -0.00068525 -0.11046626 0.02800881
v -0.00297711 -0.11196055 0.03111828
v -0.00297711 -0.11345832 0.03294983
v -0.00108506 -0.11385027 0.03250999
v -0.00297711 -0.10979786 0.02800881
v -0.00297711 -0.11083721 0.02961935
v 0.00008920 -0.11277942 0.03045744
v -0.00896806 -0.12081776 0.04061518
v -0.00896806 -0.11896303 0.03911843
v -0.00896806 -0.11746524 0.03785801
v -0.00896806 -0.11599196 0.03636127
v -0.01196511 -0.11611094 0.03628249
v -0.01196511 -0.11461316 0.03451222
v -0.01196511 -0.11352132 0.03301547
v -0.01097659 -0.11095969 0.02950118
v -0.01180770 -0.11055724 0.02800881
v -0.01225160 -0.11072522 0.02800881
v -0.01447105 -0.11162809 0.02800881
v -0.00597416 -0.12099622 0.04049920
v -0.00297711 -0.11958243 0.03858888
v 0.00008920 -0.11898402 0.03633063
v 0.00008920 -0.11882304 0.03621903
v -0.00113543 -0.11679684 0.03544878
v -0.00297711 -0.11808465 0.03739192
v -0.00597416 -0.11172608 0.03138525
v -0.00597416 -0.11322386 0.03324743
v -0.00597416 -0.11452566 0.03474636
v -0.00297711 -0.11484762 0.03444657
v 0.00008920 -0.11563501 0.03345312
v -0.00344619 -0.10974187 0.02800881
v -0.00597416 -0.11065874 0.02988850
v -0.00597416 -0.11909250 0.03900246
v -0.00597416 -0.11759473 0.03776392
v -0.00597416 -0.11602345 0.03626499
v -0.00896806 -0.11449417 0.03476167
v -0.00896806 -0.11324836 0.03326493
v -0.00896806 -0.11175057 0.03126052
v -0.00896806 -0.11077771 0.02976158
v -0.00896806 -0.10982935 0.02800881
v -0.00934899 -0.10989234 0.02800881
v 0.00008920 -0.11573299 0.03354065
v -0.00297711 -0.11634541 0.03589299
v -0.00597416 -0.10953189 0.02800881
v -0.00646842 -0.10956689 0.02800881
f 1 2 3
f 1 3 4
f 1 4 5
f 1 5 6
f 1 6 7
f 1 7 2
f 2 8 3
f 2 7 9
f 2 9 8
f 3 8 10
f 3 10 11
f 3 11 12
f 3 12 4
f 4 12 13
f 4 13 14
f 4 14 5
f 5 15 6
f 5 14 16
f 5 16 17
f 5 17 18
f 5 18 19
f 5 19 15
f 6 15 20
f 6 20 21
f 6 21 22
f 6 22 7
f 7 23 9
f 7 22 23
f 8 24 25
f 8 25 10
f 8 9 26
f 8 26 27
f 8 27 28
f 8 28 24
f 9 23 47
f 9 47 26
f 10 25 11
f 11 25 29
f 11 29 30
f 11 30 12
f 12 30 31
f 12 31 32
f 12 32 13
f 13 32 33
f 13 33 14
f 14 33 34
f 14 34 16
f 15 19 35
f 15 35 36
f 15 36 20
f 16 37 38
f 16 38 39
f 16 39 18
f 16 18 17
f 16 34 37
f 18 39 40
f 18 40 41
f 18 41 42
f 18 42 43
f 18 43 44
f 18 44 35
f 18 35 19
f 20 45 21
f 20 36 44
f 20 44 46
f 20 46 78
f 20 78 45
f 21 45 22
f 22 45 23
f 23 45 48
f 23 48 80
f 23 80 47
f 24 28 25
f 25 49 29
f 25 28 49
f 26 47 27
f 27 47 50
f 27 50 51
f 27 51 84
f 27 84 118
f 27 118 145
f 27 145 167
f 27 167 179
f 27 179 160
f 27 160 159
f 27 159 135
f 27 135 133
f 27 133 110
f 27 110 83
f 27 83 52
f 27 52 28
f 28 52 49
f 29 49 53
f 29 53 54
f 29 54 30
f 30 54 55
f 30 55 31
f 31 56 32
f 31 55 57
f 31 57 58
f 31 58 59
f 31 59 60
f 31 60 61
f 31 61 56
f 32 56 62
f 32 62 63
f 32 63 64
f 32 64 65
f 32 65 66
f 32 66 34
f 32 34 33
f 34 66 65
f 34 65 64
f 34 64 67
f 34 67 37
f 35 44 36
f 37 67 68
f 37 68 40
f 37 40 38
f 38 40 39
f 40 68 69
f 40 69 70
f 40 70 71
f 40 71 41
f 41 71 42
f 42 71 72
f 42 72 73
f 42 73 74
f 42 74 43
f 43 74 75
f 43 75 76
f 43 76 77
f 43 77 44
f 44 77 46
f 45 78 48
f 46 77 79
f 46 79 78
f 47 80 50
f 48 78 81
f 48 81 82
f 48 82 50
f 48 50 80
f 49 52 83
f 49 83 53
f 50 82 108
f 50 108 79
f 50 79 77
f 50 77 76
f 50 76 105
f 50 105 107
f 50 107 132
f 50 132 156
f 50 156 155
f 50 155 154
f 50 154 178
f 50 178 177
f 50 177 182
f 50 182 181
f 50 181 168
f 50 168 143
f 50 143 139
f 50 139 116
f 50 116 84
f 50 84 51
f 53 83 54
f 54 83 85
f 54 85 57
f 54 57 55
f 56 61 62
f 57 86 87
f 57 87 58
f 57 85 88
f 57 88 89
f 57 89 90
f 57 90 91
f 57 91 86
f 58 87 86
f 58 86 60
f 58 60 59
f 60 86 61
f 61 86 92
f 61 92 93
f 61 93 63
f 61 63 94
f 61 94 62
f 62 94 63
f 63 93 95
f 63 95 96
f 63 96 97
f 63 97 98
f 63 98 99
f 63 99 64
f 64 99 69
f 64 69 67
f 67 69 68
f 69 99 98
f 69 98 100
f 69 100 70
f 70 100 72
f 70 72 71
f 72 101 102
f 72 102 73
f 72 100 101
f 73 102 103
f 73 103 104
f 73 104 74
f 74 104 75
f 75 105 76
f 75 104 106
f 75 106 107
f 75 107 105
f 78 79 108
f 78 108 81
f 81 108 82
f 83 109 85
f 83 110 111
f 83 111 112
f 83 112 113
f 83 113 114
f 83 114 115
f 83 115 109
f 84 116 117
f 84 117 118
f 85 109 88
f 86 91 92
f 88 114 89
f 88 109 114
f 89 119 90
f 89 114 120
f 89 120 121
f 89 121 119
f 90 119 91
f 91 119 122
f 91 122 121
f 91 121 95
f 91 95 93
f 91 93 92
f 95 121 123
f 95 123 124
f 95 124 96
f 96 124 125
f 96 125 97
f 97 125 126
f 97 126 98
f 98 126 127
f 98 127 101
f 98 101 100
f 101 127 128
f 101 128 102
f 102 128 103
f 103 128 129
f 103 129 130
f 103 130 106
f 103 106 104
f 106 130 131
f 106 131 132
f 106 132 107
f 109 115 114
f 110 133 111
f 111 134 112
f 111 133 135
f 111 135 136
f 111 136 134
f 112 134 113
f 113 134 114
f 114 134 137
f 114 137 138
f 114 138 120
f 116 139 117
f 117 140 141
f 117 141 142
f 117 142 118
f 117 139 143
f 117 143 144
f 117 144 140
f 118 142 145
f 119 121 122
f 120 138 121
f 121 138 123
f 123 138 146
f 123 146 147
f 123 147 124
f 124 147 148
f 124 148 125
f 125 148 149
f 125 149 150
f 125 150 126
f 126 150 127
f 127 150 151
f 127 151 129
f 127 129 128
f 129 152 153
f 129 153 131
f 129 131 130
f 129 151 152
f 131 153 154
f 131 154 155
f 131 155 156
f 131 156 132
f 134 157 137
f 134 136 158
f 134 158 157
f 135 159 136
f 136 159 160
f 136 160 161
f 136 161 162
f 136 162 158
f 137 157 138
f 138 157 146
f 140 144 163
f 140 163 164
f 140 164 141
f 141 165 166
f 141 166 142
f 141 164 165
f 142 167 145
f 142 166 161
f 142 161 167
f 143 168 144
f 144 168 169
f 144 169 163
f 146 157 170
f 146 170 147
f 147 170 171
f 147 171 148
f 148 171 172
f 148 172 165
f 148 165 149
f 149 165 173
f 149 173 150
f 150 173 151
f 151 173 174
f 151 174 175
f 151 175 152
f 152 175 153
f 153 175 176
f 153 176 177
f 153 177 178
f 153 178 154
f 157 158 170
f 158 162 170
f 160 179 161
f 161 179 167
f 161 166 180
f 161 180 162
f 162 180 171
f 162 171 170
f 163 175 174
f 163 174 164
f 163 169 175
f 164 174 173
f 164 173 165
f 165 172 166
f 166 172 180
f 168 181 169
f 169 176 175
f 169 181 176
f 171 180 172
f 176 181 182
f 176 182 177

