# https://github.com/mikedh/trimesh
v 0.01590865 -0.06284823 0.05586777
v 0.01183992 -0.06333474 0.05586777
v 0.01643035 -0.06307548 0.05586777
v 0.01758968 -0.03927161 0.03615737
v 0.00599766 -0.03769685 0.03614578
v 0.01133919 -0.06433018 0.05586777
v 0.00499003 -0.03964609 0.03614578
v 0.01755884 -0.06558487 0.05586777
v 0.01758968 -0.03939324 0.03614578
v 0.01758968 -0.03925881 0.03614578
v 0.01194105 -0.06953137 0.05586777
v 0.00499003 -0.05200734 0.04246106
v 0.00499003 -0.04541062 0.03614578
v 0.01743798 -0.06635304 0.05586777
v 0.01678185 -0.06553045 0.05064912
v 0.01207302 -0.04848653 0.03614578
v 0.01245781 -0.05379975 0.03961716
v 0.01179552 -0.06962419 0.05376139
v 0.01218278 -0.06971061 0.05586777
v 0.01053629 -0.04894744 0.03614578
v 0.01638472 -0.06959219 0.05586777
v 0.01411170 -0.07039236 0.05586777
f 1 2 6
f 1 6 11
f 1 11 19
f 1 19 22
f 1 22 21
f 1 21 14
f 1 14 8
f 1 8 3
f 1 3 4
f 1 4 5
f 1 5 2
f 2 5 7
f 2 7 6
f 3 8 4
f 4 9 10
f 4 10 5
f 4 8 9
f 5 10 9
f 5 9 16
f 5 16 20
f 5 20 13
f 5 13 7
f 6 7 12
f 6 12 11
f 7 13 12
f 8 14 15
f 8 15 9
f 9 15 17
f 9 17 16
f 11 18 19
f 11 12 18
f 12 13 18
f 13 20 18
f 14 21 15
f 15 21 22
f 15 22 18
f 15 18 17
f 16 17 20
f 17 18 20
f 18 22 19

