# https://github.com/mikedh/trimesh
v 0.04752322 -0.06127216 0.08437752
v 0.04173815 -0.06300092 0.08886053
v 0.04066643 -0.06768504 0.06810562
v 0.04266097 -0.06432229 0.06381640
v 0.04017149 -0.06329031 0.05586777
v 0.03881140 -0.06217483 0.05586777
v 0.03792077 -0.06146424 0.05586777
v 0.04016344 -0.06164817 0.06962687
v 0.03422680 -0.06228406 0.05586777
v 0.03382038 -0.06273665 0.05586777
v 0.03741912 -0.06539696 0.07120626
v 0.03389818 -0.06633040 0.05586777
v 0.03462517 -0.06671520 0.05586777
v 0.03791004 -0.06634547 0.05586777
v 0.03931037 -0.06497702 0.05586777
f 1 2 3
f 1 3 4
f 1 4 5
f 1 5 6
f 1 6 7
f 1 7 8
f 1 8 2
f 2 8 9
f 2 9 10
f 2 10 11
f 2 11 3
f 3 11 12
f 3 12 13
f 3 13 14
f 3 14 15
f 3 15 4
f 4 15 5
f 5 15 14
f 5 14 13
f 5 13 12
f 5 12 10
f 5 10 9
f 5 9 7
f 5 7 6
f 7 9 8
f 10 12 11

