# https://github.com/mikedh/trimesh
v -0.02974504 0.07234466 -0.06832265
v -0.02026351 0.04132789 -0.05065581
v -0.02539411 0.05754042 -0.04948510
v -0.02783313 0.08102704 -0.06696973
v -0.02646707 0.06803907 -0.07361620
v -0.02288883 0.07892314 -0.07670260
v -0.02372220 0.07840307 -0.05592873
v -0.01993423 0.06960865 -0.07832860
v -0.01981676 0.05767925 -0.04142219
v -0.01458454 0.04943295 -0.06369807
v -0.01553246 0.08506575 -0.05962646
v -0.01547036 0.01619046 -0.01880449
v -0.01506806 0.08680601 -0.06778774
v -0.01092038 0.05315217 -0.03395788
v -0.01389267 0.08211971 -0.07655206
v -0.01028534 0.00161914 0.00066967
v -0.00937341 -0.00559928 -0.00909490
v -0.00757290 0.01557224 -0.00631742
v -0.01299738 0.06360794 -0.07643516
v -0.01062800 -0.06963614 0.05899924
v -0.00907699 -0.07024248 0.08306244
v -0.00883505 -0.06700334 0.07455221
v -0.00790760 -0.06369161 0.09405820
v -0.01014520 -0.06084407 0.05286865
v -0.01013209 -0.04537316 0.03686701
v -0.00976426 -0.02968287 0.02911721
v -0.00829764 -0.01248595 0.00934904
v -0.00942697 0.01707286 -0.03454640
v -0.00599613 0.06485311 -0.04544835
v -0.00623331 -0.07212602 0.05948913
v -0.00719137 -0.06905102 0.09526768
v -0.00599727 -0.05311224 0.04020244
v -0.00495070 -0.04969265 0.04653212
v -0.00701915 -0.02719865 0.02047764
v -0.00720821 -0.01466811 0.02126700
v -0.00685348 0.07389655 -0.07589749
v -0.00366780 -0.06972342 0.08480320
v -0.00562603 -0.06514340 0.05870026
v 0.00497801 -0.03491648 0.02610245
v 0.00361045 -0.03100540 0.03132002
v -0.00084389 -0.01079245 0.00318504
v -0.00161843 -0.00880547 -0.01267123
v -0.00254212 0.02523616 -0.04073518
v -0.00340685 0.04914977 -0.05906763
v -0.00624059 0.08315927 -0.06673200
v -0.00393649 -0.06654534 0.07736109
v 0.00106925 -0.00763703 0.01650930
v 0.00290939 0.00304881 -0.02138884
v 0.00360884 0.01630445 -0.00775196
v -0.00377227 -0.06697743 0.05698667
v -0.00232681 -0.06550223 0.09359481
v -0.00104709 -0.04304854 0.03609253
v -0.00015588 0.05838405 -0.05763622
v 0.00019798 0.05509735 -0.04463472
v -0.00260364 0.07546459 -0.06814126
v 0.00801642 -0.05649658 0.04565279
v 0.01084610 -0.05127960 0.04594258
v 0.00733854 -0.00827836 -0.00689261
v 0.00510395 0.02729653 -0.03063162
v 0.01179627 -0.06962447 0.05376328
v 0.01312575 -0.06879304 0.07305909
v 0.01206393 -0.06603824 0.05809299
v 0.01245829 -0.05379873 0.03961649
v 0.01130102 -0.03778443 0.02915354
v 0.01199652 -0.03491965 0.03232539
v 0.01228673 -0.00984808 0.00561425
v 0.01392383 -0.01001457 0.01720800
v 0.00930493 0.00313895 -0.01288553
v 0.01161913 -0.00178737 0.00402404
v 0.01603542 -0.07057235 0.07682333
v 0.01687889 -0.06668809 0.09134916
v 0.01606169 -0.06454502 0.07177128
v 0.01623755 -0.07109680 0.05779831
v 0.01678297 -0.06553219 0.05064942
v 0.01513174 -0.05376307 0.04390151
v 0.01588687 -0.06260355 0.05357199
v 0.02198717 -0.03258565 0.02358717
v 0.02141017 -0.06274508 0.08743301
v 0.02688063 -0.05394897 0.04172323
v 0.02191742 -0.02349706 0.02092292
v 0.01974930 -0.06924830 0.07427014
v 0.01946186 -0.06572107 0.06866125
v 0.02529370 -0.04526582 0.04143433
v 0.02825063 -0.04083178 0.03737553
v 0.03326676 -0.06649776 0.05311774
v 0.03333732 -0.06237909 0.05380876
v 0.03630396 -0.06556561 0.04874159
v 0.03741843 -0.06539725 0.07120416
v 0.04016265 -0.06164790 0.06962604
v 0.03746920 -0.06142722 0.05310042
v 0.04066596 -0.06768504 0.06810274
v 0.04173941 -0.06300088 0.08886376
v 0.03799350 -0.06238831 0.04891753
v 0.04266196 -0.06432173 0.06381542
v 0.04752322 -0.06127216 0.08438020
f 67 69 49
f 33 52 40
f 65 57 75
f 35 16 26
f 51 31 37
f 68 58 48
f 66 39 41
f 14 18 49
f 62 56 60
f 93 87 77
f 94 90 89
f 65 75 64
f 39 32 34
f 77 64 39
f 8 10 5
f 13 6 4
f 84 77 80
f 17 28 42
f 63 60 56
f 19 10 8
f 4 1 3
f 4 6 1
f 86 79 85
f 28 2 10
f 1 2 3
f 33 26 24
f 65 47 40
f 65 83 84
f 43 10 44
f 65 64 79
f 74 60 63
f 55 53 36
f 2 5 10
f 16 12 27
f 91 88 85
f 76 74 75
f 40 52 56
f 29 54 45
f 35 26 33
f 7 9 14
f 67 47 65
f 49 18 47
f 75 57 76
f 83 65 79
f 48 58 42
f 45 15 13
f 50 32 52
f 88 86 85
f 72 76 62
f 41 39 27
f 63 56 39
f 83 86 90
f 23 22 21
f 51 46 23
f 46 38 22
f 66 41 58
f 49 59 54
f 15 6 13
f 68 48 59
f 95 94 89
f 51 37 46
f 26 25 24
f 78 81 82
f 22 20 21
f 49 68 59
f 77 39 66
f 90 86 89
f 3 2 12
f 1 5 2
f 37 21 30
f 84 83 90
f 67 65 84
f 71 70 81
f 31 21 37
f 46 37 30
f 67 80 69
f 83 79 86
f 50 30 32
f 7 3 9
f 33 38 50
f 46 30 50
f 23 21 31
f 23 31 51
f 22 38 24
f 55 36 45
f 64 63 39
f 44 10 19
f 48 42 28
f 75 74 63
f 52 39 56
f 43 48 28
f 81 70 73
f 94 87 93
f 13 4 11
f 45 36 15
f 58 41 42
f 92 88 91
f 57 56 62
f 54 55 45
f 15 8 6
f 82 74 76
f 18 16 35
f 9 12 18
f 95 89 92
f 1 6 5
f 82 81 74
f 80 66 69
f 70 60 73
f 36 19 8
f 71 81 78
f 18 12 16
f 12 17 27
f 93 77 84
f 87 79 77
f 61 70 71
f 11 7 14
f 25 32 20
f 30 20 32
f 71 72 61
f 78 72 71
f 82 76 72
f 59 48 43
f 47 18 35
f 38 46 50
f 91 85 87
f 54 53 55
f 11 4 7
f 7 4 3
f 69 66 68
f 95 91 94
f 28 17 2
f 75 63 64
f 22 24 20
f 86 88 89
f 26 27 34
f 77 79 64
f 17 12 2
f 53 44 36
f 40 57 65
f 59 44 53
f 45 13 11
f 36 44 19
f 78 82 72
f 40 35 33
f 47 35 40
f 21 20 30
f 46 22 23
f 76 57 62
f 32 25 34
f 70 61 60
f 57 40 56
f 85 79 87
f 52 32 39
f 26 34 25
f 29 45 11
f 90 94 93
f 8 5 6
f 59 43 44
f 16 27 26
f 80 77 66
f 24 25 20
f 67 84 80
f 67 49 47
f 95 92 91
f 62 60 61
f 33 24 38
f 94 91 87
f 89 88 92
f 27 17 41
f 73 60 74
f 29 11 14
f 72 62 61
f 29 14 49
f 54 59 53
f 93 84 90
f 39 34 27
f 54 29 49
f 66 58 68
f 15 36 8
f 14 9 18
f 49 69 68
f 81 73 74
f 9 3 12
f 10 43 28
f 33 50 52
f 41 17 42

