# https://github.com/mikedh/trimesh
v -0.03086890 -0.00871079 0.00280627
v -0.03113138 -0.00635289 0.00734632
v -0.03107571 0.00014960 0.00354489
v -0.03096379 0.00303177 0.01103303
v -0.02976232 -0.00677952 -0.00101304
v -0.02983356 -0.00146871 0.01404491
v -0.02956090 0.00687265 0.00797529
v -0.02813055 -0.01454555 0.00316656
v -0.02760673 -0.01129961 -0.00327253
v -0.02786971 -0.00856138 0.01219265
v -0.02840842 0.00131942 -0.00045446
v -0.02755808 -0.01432466 0.00735798
v -0.02829234 0.00419961 0.01759982
v -0.02840031 0.00785448 0.00357711
v -0.02799552 0.00790766 0.01453057
v -0.02502120 0.01236072 0.00909649
v -0.02512640 -0.01599887 -0.00266870
v -0.02510466 -0.00659884 -0.00647371
v -0.02238055 -0.00540377 0.02027175
v -0.02214919 0.00458330 -0.00559339
v -0.02179161 -0.00032094 0.02399664
v -0.02278802 0.00375556 0.02310598
v -0.01529619 0.01562837 -0.00700296
v -0.02384721 0.00878655 0.01938332
v -0.02145649 -0.02201063 0.00151688
v -0.01988922 -0.01522042 0.01590174
v -0.01916201 0.01556669 0.00189405
v -0.02311214 0.01291245 0.01367338
v -0.02069888 -0.01055138 -0.01071911
v -0.02330506 -0.02122387 0.00594974
v -0.02306889 -0.01474909 -0.00711433
v -0.01857378 -0.02170850 0.01423180
v -0.01710361 0.00762701 0.02463844
v -0.01923065 0.01095496 0.01998762
v -0.01939256 -0.02364099 0.01026820
v -0.01924933 -0.01838659 -0.00702555
v -0.00833593 0.01723814 0.01128444
v -0.01888780 -0.02484364 0.00633578
v -0.01805143 -0.01022084 0.02004086
v -0.01542904 -0.00126979 -0.01553415
v -0.01774710 0.01695396 0.00596251
v -0.01695016 -0.01417133 -0.01184158
v -0.01456005 0.01020791 -0.01296699
v -0.01571757 -0.02324469 -0.00251949
v -0.01390088 -0.00985417 -0.01663752
v -0.01660635 -0.02518620 0.00280267
v -0.01292526 -0.00486854 -0.01890823
v -0.01459260 -0.00453550 0.02835450
v -0.01333023 -0.02690088 0.00985787
v -0.01437837 -0.01802249 -0.00986477
v -0.01443173 0.00113580 0.02836494
v -0.01419143 -0.02574118 0.01430521
v -0.01481688 -0.00983128 0.02559666
v -0.00922556 0.01194915 0.02178287
v -0.01171440 0.00498925 0.02779689
v -0.01325358 -0.01680920 0.02376990
v -0.01079050 -0.02774508 0.00698124
v -0.01132691 -0.02239218 0.02090658
v -0.01002671 -0.01935811 -0.00920309
v -0.01074502 -0.01091087 0.02851001
v -0.00909060 0.02233816 -0.00541316
v -0.00791425 0.02229135 -0.00073939
v -0.00875001 -0.02685109 0.01510995
v -0.00984779 -0.00281929 0.03030255
v -0.00832254 -0.02595802 0.00118866
v -0.00629401 -0.01426586 -0.01724014
v -0.00792385 -0.00948640 -0.02087578
v -0.00908617 -0.01868062 0.02510786
v -0.00718875 0.00082111 -0.02462243
v -0.00500496 -0.02032707 -0.00707987
v -0.00669582 0.00209066 0.02945676
v -0.00643618 0.00762995 -0.02506600
v -0.00636001 0.01438298 -0.02230777
v -0.00633838 -0.02277808 0.02195653
v -0.00584947 -0.01404903 0.02849473
v -0.00077608 -0.00351793 0.02931441
v -0.00415697 -0.02735059 0.00540353
v -0.00765215 -0.02820740 0.00998940
v -0.00582053 -0.00381409 -0.02543188
v -0.00603027 -0.00835290 0.03000171
v -0.00631798 0.00728333 0.02661996
v 0.00055366 0.01431787 0.01856978
v -0.00140171 0.02572825 -0.00808178
v -0.00475493 0.02233499 -0.01663299
v -0.00325032 -0.01873662 0.02535332
v -0.00313248 -0.02736488 0.01272297
v 0.00025897 0.02369517 -0.00015639
v -0.00033871 -0.00492142 -0.02718688
v 0.00178793 0.00359255 0.02654301
v -0.00164586 -0.02331210 0.01999577
v -0.00331930 0.01995831 -0.02185565
v -0.00125134 -0.01742714 -0.01303810
v -0.00305013 0.00148497 -0.02844897
v 0.00403934 -0.02138226 -0.00497205
v -0.00150159 -0.01052830 0.02901958
v 0.00019318 0.00863594 -0.02970783
v -0.00201452 0.01402531 -0.02743005
v -0.00080491 0.02314451 -0.02021016
v -0.00084940 -0.02736862 0.00712879
v -0.00036671 0.02595698 -0.01415603
v -0.00082801 -0.00852993 -0.02451179
v 0.00657951 0.00946701 0.02083837
v 0.00039626 -0.02572739 0.01441044
v 0.00072000 0.00080585 -0.02939656
v 0.00626844 -0.01420220 -0.01727610
v 0.00091304 -0.01523642 0.02642390
v 0.00156114 -0.01206412 -0.02072178
v 0.00206172 0.01976556 -0.02526220
v 0.00263076 -0.01862739 0.02291784
v 0.00581489 -0.02377171 0.00225548
v 0.00581155 -0.00778906 0.02514505
v 0.00373823 0.02563470 -0.01810818
v 0.00450266 -0.02494231 0.00753298
v 0.00715772 0.01459871 -0.02798454
v 0.00662235 0.02004423 0.00871921
v 0.00368494 -0.02222479 0.01811728
v 0.00590592 -0.00795349 -0.02575204
v 0.00870444 0.02743641 -0.00795350
v 0.00673151 0.00573904 -0.03051865
v 0.00833872 -0.02160276 0.01061655
v 0.00804121 -0.00286493 -0.02899543
v 0.00928916 0.01639500 0.01402632
v 0.00518465 0.02766419 -0.01327319
v 0.00822923 0.00037734 0.02405702
v 0.00976780 0.02300632 -0.02105325
v 0.00924666 -0.01403103 0.01950613
v 0.00949292 0.01889661 -0.02461648
v 0.01028711 -0.01815546 0.01485754
v 0.01060037 0.02681351 -0.01468832
v 0.01435010 0.02541060 -0.00137483
v 0.01537519 -0.01382828 -0.01469314
v 0.01200242 0.00039204 -0.02935850
v 0.01097764 -0.00802510 -0.02543311
v 0.01376032 0.00720834 -0.02853806
v 0.02045907 0.00632197 0.01289112
v 0.01454751 0.01641312 -0.02343733
v 0.01554479 -0.01871803 -0.00189492
v 0.01522265 -0.01806329 -0.00688570
v 0.01725456 -0.00293146 0.01489490
v 0.02006571 0.01630900 0.00717992
v 0.01394113 0.00687459 0.01888429
v 0.01630345 0.02055249 0.00508151
v 0.01815941 -0.00982578 -0.01914372
v 0.01435845 -0.00584601 -0.02569291
v 0.01622493 0.02504918 -0.01287045
v 0.01848113 -0.01361049 0.00680723
v 0.01734898 0.00164493 -0.02684102
v 0.01895291 -0.01040278 0.00968929
v 0.01552962 0.02353742 -0.01715386
v 0.02133984 -0.01336248 -0.00070342
v 0.02160817 0.01120086 0.01033155
v 0.01744925 0.02588407 -0.00723233
v 0.02314197 0.01846894 -0.01344015
v 0.02138435 0.02251676 -0.01052811
v 0.02144721 -0.00447744 -0.02150510
v 0.02277696 0.01031168 -0.02018331
v 0.02207371 0.02272223 -0.00185062
v 0.02248378 -0.01275477 -0.01119093
v 0.02397258 0.00125060 -0.02106472
v 0.02677327 -0.00112544 0.00344082
v 0.02506787 -0.01112662 -0.00930657
v 0.02746581 -0.00581112 -0.00110611
v 0.02545967 -0.00789092 -0.01469809
v 0.02564827 0.01833329 0.00027771
v 0.02656632 0.01365276 0.00360708
v 0.02678121 0.01770595 -0.00590859
v 0.02834756 -0.00738386 -0.00673060
v 0.02825922 0.00992536 -0.01281315
v 0.02881438 -0.00189381 -0.01420294
v 0.02919349 0.00393706 -0.01347055
v 0.02907560 0.00818653 0.00221734
v 0.02903271 -0.00490113 -0.01079709
v 0.02973672 0.01234464 -0.00283450
v 0.02985563 0.01149234 -0.00770540
v 0.03058322 0.00242908 -0.00229494
v 0.03073444 -0.00148958 -0.00675693
v 0.03105125 0.00346697 -0.00661774
f 170 159 156
f 24 28 15
f 77 57 65
f 68 58 74
f 26 10 12
f 129 112 123
f 64 51 48
f 135 124 139
f 115 87 37
f 114 119 96
f 138 131 158
f 20 18 11
f 60 56 68
f 117 101 88
f 92 59 66
f 31 17 9
f 90 63 86
f 84 91 23
f 6 2 10
f 154 149 145
f 69 79 47
f 122 115 82
f 105 66 107
f 109 90 116
f 155 144 147
f 153 156 136
f 22 21 51
f 90 74 63
f 81 54 33
f 104 88 93
f 86 99 113
f 169 163 155
f 159 147 156
f 113 99 110
f 89 102 81
f 48 21 53
f 102 82 81
f 70 59 92
f 58 32 52
f 109 116 128
f 93 88 79
f 52 49 63
f 126 106 109
f 112 108 98
f 157 140 164
f 131 105 133
f 62 87 83
f 25 30 8
f 136 134 114
f 109 85 90
f 120 103 113
f 135 160 171
f 7 14 3
f 140 157 142
f 154 145 152
f 75 60 68
f 109 128 126
f 23 43 20
f 71 64 76
f 93 79 69
f 64 48 60
f 61 23 27
f 16 27 14
f 167 161 172
f 144 133 121
f 147 132 134
f 2 8 12
f 44 25 36
f 108 97 91
f 16 7 15
f 35 30 38
f 62 61 41
f 163 143 155
f 3 11 5
f 114 96 97
f 12 35 32
f 127 136 114
f 165 171 173
f 172 163 169
f 43 72 40
f 149 125 129
f 156 147 134
f 33 24 22
f 96 93 72
f 137 158 161
f 130 152 118
f 23 91 73
f 82 115 37
f 34 24 33
f 130 118 87
f 14 11 3
f 164 173 166
f 143 133 144
f 9 17 8
f 94 105 131
f 132 121 119
f 13 4 6
f 83 100 61
f 90 103 116
f 50 66 59
f 56 32 58
f 82 37 54
f 157 166 154
f 7 3 4
f 58 52 63
f 135 151 141
f 128 146 148
f 6 4 2
f 174 177 170
f 47 79 45
f 157 152 130
f 78 57 77
f 145 129 152
f 50 36 42
f 140 165 164
f 15 7 4
f 95 80 75
f 123 112 100
f 119 104 96
f 154 153 149
f 103 86 113
f 177 176 169
f 55 51 71
f 140 102 141
f 140 122 102
f 175 176 177
f 6 19 21
f 41 16 28
f 1 5 9
f 121 88 104
f 69 47 40
f 2 12 10
f 86 77 99
f 65 70 94
f 144 121 132
f 176 162 167
f 27 23 14
f 142 157 130
f 94 70 92
f 75 85 106
f 169 155 159
f 125 127 108
f 19 26 39
f 168 170 156
f 96 72 97
f 15 4 13
f 65 46 44
f 11 18 5
f 2 1 8
f 128 120 146
f 135 165 151
f 123 83 118
f 37 41 28
f 159 155 147
f 76 80 95
f 53 26 56
f 149 153 136
f 136 156 134
f 81 71 89
f 26 12 32
f 123 100 83
f 47 29 40
f 53 39 26
f 28 16 15
f 108 91 98
f 86 78 77
f 76 95 111
f 90 86 103
f 116 103 120
f 79 88 67
f 64 60 80
f 7 16 14
f 55 33 51
f 14 20 11
f 157 164 166
f 122 82 102
f 61 84 23
f 29 47 45
f 146 120 150
f 165 173 164
f 20 40 18
f 174 168 153
f 18 29 9
f 124 76 111
f 173 174 166
f 24 15 13
f 105 94 92
f 131 133 143
f 19 10 26
f 110 77 94
f 77 65 94
f 3 5 1
f 65 57 46
f 160 162 175
f 13 6 21
f 171 160 175
f 17 31 36
f 37 62 41
f 17 36 25
f 23 20 14
f 52 35 49
f 45 67 42
f 2 3 1
f 51 21 48
f 120 137 150
f 173 177 174
f 140 141 151
f 146 162 148
f 12 30 35
f 111 126 139
f 143 144 155
f 80 60 75
f 32 35 52
f 62 83 61
f 112 98 100
f 85 68 74
f 141 102 89
f 67 66 42
f 92 66 105
f 76 64 80
f 29 42 31
f 163 158 143
f 148 162 160
f 138 94 131
f 165 135 171
f 170 169 159
f 74 58 63
f 111 106 126
f 72 69 40
f 153 168 156
f 68 56 58
f 114 134 119
f 95 75 106
f 158 131 143
f 4 3 2
f 81 33 55
f 176 167 172
f 33 22 51
f 59 44 50
f 171 175 173
f 38 25 46
f 105 117 133
f 105 107 117
f 43 23 73
f 41 27 16
f 40 29 18
f 121 133 117
f 53 56 60
f 141 89 124
f 53 21 19
f 118 83 87
f 65 59 70
f 134 132 119
f 34 37 28
f 121 117 88
f 137 110 138
f 72 93 69
f 44 36 50
f 145 149 129
f 61 27 41
f 85 75 68
f 177 169 170
f 35 38 49
f 152 129 118
f 124 111 139
f 1 9 8
f 22 13 21
f 84 98 91
f 176 172 169
f 147 144 132
f 96 104 93
f 149 136 125
f 141 124 135
f 162 146 150
f 81 82 54
f 135 139 160
f 142 130 115
f 174 170 168
f 108 114 97
f 161 158 163
f 127 114 108
f 112 125 108
f 172 161 163
f 173 175 177
f 136 127 125
f 73 97 72
f 65 44 59
f 5 18 9
f 71 76 89
f 106 85 109
f 126 148 139
f 91 97 73
f 88 101 67
f 150 137 161
f 126 128 148
f 129 123 118
f 38 30 25
f 6 10 19
f 24 13 22
f 157 154 152
f 78 63 49
f 79 67 45
f 73 72 43
f 29 31 9
f 142 115 122
f 49 46 57
f 121 104 119
f 139 148 160
f 107 66 101
f 101 66 67
f 63 78 86
f 137 138 158
f 89 76 124
f 66 50 42
f 8 17 25
f 49 57 78
f 116 120 128
f 150 161 167
f 81 55 71
f 56 26 32
f 142 122 140
f 166 174 153
f 100 84 61
f 117 107 101
f 162 150 167
f 115 130 87
f 113 110 137
f 12 8 30
f 111 95 106
f 43 40 20
f 120 113 137
f 175 162 176
f 60 48 53
f 34 28 24
f 33 54 34
f 166 153 154
f 54 37 34
f 49 38 46
f 87 62 37
f 53 19 39
f 71 51 64
f 46 25 44
f 85 74 90
f 165 140 151
f 110 94 138
f 100 98 84
f 45 42 29
f 129 125 112
f 99 77 110
f 42 36 31

