# https://github.com/mikedh/trimesh
v 0.00317623 -0.03134835 0.02365038
v 0.00152378 -0.03134835 0.02113564
v -0.00192903 -0.02862935 0.02113564
v -0.00025457 -0.02799879 0.03413789
v 0.00174392 -0.03044825 0.03475158
v 0.00222480 -0.03134835 0.03200371
v -0.00385184 -0.03134835 0.02113564
v -0.00280548 -0.02942977 0.02113564
v -0.00324026 -0.03113062 0.03025522
v -0.00097622 -0.03039775 0.03864797
v -0.00019196 -0.03134835 0.03503957
v -0.00341775 -0.03134835 0.02953182
v -0.00328016 -0.03134835 0.02991409
f 1 2 3
f 1 3 4
f 1 4 5
f 1 5 6
f 1 6 11
f 1 11 13
f 1 13 12
f 1 12 7
f 1 7 2
f 2 7 8
f 2 8 3
f 3 8 4
f 4 9 10
f 4 10 5
f 4 8 9
f 5 10 6
f 6 10 11
f 7 12 8
f 8 12 9
f 9 12 10
f 10 12 13
f 10 13 11

