# https://github.com/mikedh/trimesh
v 0.01727876 -0.02721796 0.01527952
v 0.01608539 -0.02721796 0.01181327
v 0.01603189 -0.02345340 0.00658562
v 0.01663527 -0.02345340 0.01238506
v 0.01503912 -0.02345340 0.01636659
v 0.01505564 -0.02721796 0.01850917
v 0.01493843 -0.02721796 0.01085239
v 0.01151721 -0.02630031 0.00508318
v 0.01516814 -0.02345561 0.00508318
v 0.01515791 -0.02345340 0.00508318
v 0.01290253 -0.02345340 0.01685163
v 0.01491090 -0.02713430 0.01850917
v 0.01482043 -0.02721796 0.01850917
v 0.01403769 -0.02721796 0.01114946
v 0.00954819 -0.02633569 0.00508318
v 0.00954819 -0.02345340 0.00508318
v 0.00924217 -0.02345340 0.01607215
v 0.01248717 -0.02721796 0.01701462
v 0.01100903 -0.02721796 0.01464332
v 0.00924217 -0.02552566 0.00795793
v 0.00924217 -0.02578769 0.01163055
v 0.00924217 -0.02345340 0.00795793
f 1 2 3
f 1 3 4
f 1 4 5
f 1 5 6
f 1 6 13
f 1 13 18
f 1 18 19
f 1 19 14
f 1 14 7
f 1 7 2
f 2 7 8
f 2 8 9
f 2 9 3
f 3 9 10
f 3 10 16
f 3 16 22
f 3 22 17
f 3 17 11
f 3 11 5
f 3 5 4
f 5 11 12
f 5 12 6
f 6 12 13
f 7 14 15
f 7 15 8
f 8 15 16
f 8 16 10
f 8 10 9
f 11 17 12
f 12 17 13
f 13 17 18
f 14 19 15
f 15 20 22
f 15 22 16
f 15 19 21
f 15 21 20
f 17 21 19
f 17 19 18
f 17 22 20
f 17 20 21

