# https://github.com/mikedh/trimesh
v 0.01338253 -0.04080525 -0.00260101
v 0.01655502 -0.03687113 0.00384368
v 0.01655502 -0.03721315 0.00375036
v 0.01655502 -0.03897174 0.00509296
v 0.01655438 -0.03897262 0.00509296
v 0.00997961 -0.04022699 0.00341559
v 0.00997961 -0.04020759 0.00332111
v 0.00997961 -0.03655379 0.00638190
v 0.00997961 -0.03614037 0.00679482
v 0.00997961 -0.03558767 0.00745737
v 0.01067731 -0.03372242 0.00931554
v 0.01308903 -0.03263465 0.00931554
v 0.01447349 -0.03220008 0.00931554
v 0.01574854 -0.03179988 0.00931554
v 0.01655502 -0.03204846 0.00931554
v 0.01655502 -0.03479344 0.00931554
v 0.01114974 -0.03787956 0.00931554
v 0.00997961 -0.03798270 0.00931438
v 0.00997961 -0.03550128 0.00764634
v 0.00997961 -0.03474055 0.00931554
v 0.00998025 -0.03798182 0.00931554
v 0.00997961 -0.03715850 0.00931554
f 1 2 3
f 1 3 4
f 1 4 5
f 1 5 6
f 1 6 7
f 1 7 8
f 1 8 9
f 1 9 10
f 1 10 11
f 1 11 12
f 1 12 13
f 1 13 14
f 1 14 15
f 1 15 2
f 2 15 16
f 2 16 4
f 2 4 3
f 4 16 5
f 5 16 17
f 5 17 6
f 6 17 18
f 6 18 22
f 6 22 20
f 6 20 19
f 6 19 10
f 6 10 9
f 6 9 8
f 6 8 7
f 10 19 11
f 11 20 22
f 11 22 21
f 11 21 17
f 11 17 16
f 11 16 15
f 11 15 14
f 11 14 13
f 11 13 12
f 11 19 20
f 17 21 18
f 18 21 22

