# https://github.com/mikedh/trimesh
v -0.00222920 -0.03134836 0.01450311
v 0.00121248 -0.03134836 0.01811607
v -0.00260209 -0.03134836 0.01451934
v -0.00543851 -0.02799211 0.01735518
v -0.00330000 -0.02799211 0.01726298
v -0.00326757 -0.02799211 0.01726169
v -0.00229637 -0.02799211 0.01939116
v 0.00129355 -0.03134836 0.01842835
v -0.00297266 -0.02799211 0.01757202
v -0.00616421 -0.03134836 0.01532049
v -0.00635953 -0.02799211 0.01756228
v -0.00236045 -0.02799211 0.01951516
v -0.00192966 -0.02862945 0.02113564
v 0.00152438 -0.03134836 0.02113564
v -0.00617348 -0.03134836 0.01872310
v -0.00636262 -0.02799211 0.01844199
v -0.00280513 -0.02942975 0.02113564
v -0.00385123 -0.03134836 0.02113564
v -0.00289083 -0.02958646 0.02113564
f 1 2 8
f 1 8 14
f 1 14 18
f 1 18 15
f 1 15 10
f 1 10 3
f 1 3 4
f 1 4 5
f 1 5 6
f 1 6 2
f 2 7 8
f 2 6 9
f 2 9 7
f 3 10 11
f 3 11 4
f 4 11 16
f 4 16 12
f 4 12 7
f 4 7 9
f 4 9 6
f 4 6 5
f 7 12 13
f 7 13 14
f 7 14 8
f 10 15 16
f 10 16 11
f 12 16 13
f 13 16 17
f 13 17 19
f 13 19 18
f 13 18 14
f 15 18 16
f 16 18 19
f 16 19 17

