# https://github.com/mikedh/trimesh
v 0.00404052 0.02227474 0.01833561
v 0.01032491 0.01677928 0.02539794
v 0.01217872 0.01602644 0.02298394
v 0.01574903 0.01457439 0.01833561
v -0.00155323 0.02218315 0.01833561
v 0.00168994 0.02136330 0.03060432
v 0.01178696 0.01366295 0.02954106
v 0.01410523 0.01419909 0.02298394
v 0.01427890 0.01403378 0.02298394
v 0.01604386 0.01429291 0.01833561
v -0.00726814 0.02090981 0.01833561
v -0.00187633 0.02161797 0.02298605
v -0.00219944 0.02105055 0.02763226
v -0.00395228 0.01731989 0.03408792
v 0.00248558 0.01558189 0.03623558
v 0.00716252 0.01115201 0.03711282
v 0.01118921 0.00543315 0.03367784
v 0.01826925 0.00361026 0.02298394
v 0.01589443 0.01063597 0.02298605
v 0.01880237 0.00848693 0.01833561
v -0.01078191 0.01997156 0.01833561
v -0.00904118 0.01301064 0.03282596
v -0.00017599 0.00869692 0.03981219
v -0.01271246 0.01612250 0.02268800
v 0.00530063 -0.00054708 0.03715087
v 0.00829339 -0.00054708 0.03550208
v 0.01278858 -0.00054708 0.03066773
v 0.02009883 -0.00054708 0.02163954
v 0.02094698 -0.00054708 0.02027400
v 0.02162550 0.00014320 0.01833561
v -0.01339905 0.01774880 0.01833561
v -0.00749432 0.00754421 0.03571980
v -0.01637566 0.01117211 0.02298394
v -0.00230041 0.00360356 0.03992634
v -0.01626257 0.01419909 0.01833561
v -0.01744190 0.01090404 0.02154865
v 0.00323276 -0.00054708 0.03778502
v 0.02160934 -0.00054708 0.01885773
v 0.02180320 -0.00054708 0.01833561
v -0.01669068 0.00562080 0.02298605
v -0.01596774 0.00058776 0.02434948
v -0.01629488 -0.00054708 0.02381890
v -0.00906541 -0.00054708 0.03243067
v -0.00524066 -0.00054708 0.03615948
v -0.00118570 -0.00054708 0.03807884
v -0.01874240 0.00952347 0.01833561
v -0.01900492 0.00764027 0.01833561
v -0.01938053 0.00494168 0.01833561
v -0.01945727 -0.00054708 0.01833561
v -0.01677550 -0.00054708 0.02298605
f 1 2 3
f 1 3 4
f 1 4 10
f 1 10 20
f 1 20 30
f 1 30 39
f 1 39 49
f 1 49 48
f 1 48 47
f 1 47 46
f 1 46 35
f 1 35 31
f 1 31 21
f 1 21 11
f 1 11 5
f 1 5 6
f 1 6 2
f 2 7 8
f 2 8 3
f 2 6 7
f 3 8 4
f 4 8 9
f 4 9 10
f 5 11 12
f 5 12 6
f 6 12 13
f 6 13 14
f 6 14 15
f 6 15 16
f 6 16 7
f 7 9 8
f 7 16 17
f 7 17 18
f 7 18 19
f 7 19 9
f 9 19 10
f 10 19 20
f 11 13 12
f 11 21 13
f 13 21 14
f 14 22 23
f 14 23 15
f 14 21 24
f 14 24 22
f 15 23 16
f 16 25 26
f 16 26 17
f 16 23 25
f 17 26 27
f 17 27 28
f 17 28 18
f 18 28 29
f 18 29 30
f 18 30 19
f 19 30 20
f 21 31 24
f 22 32 23
f 22 24 33
f 22 33 32
f 23 32 34
f 23 34 25
f 24 31 35
f 24 35 36
f 24 36 33
f 25 34 37
f 25 37 45
f 25 45 44
f 25 44 43
f 25 43 42
f 25 42 50
f 25 50 49
f 25 49 39
f 25 39 38
f 25 38 29
f 25 29 28
f 25 28 27
f 25 27 26
f 29 38 30
f 30 38 39
f 32 33 36
f 32 36 40
f 32 40 41
f 32 41 42
f 32 42 43
f 32 43 44
f 32 44 34
f 34 44 45
f 34 45 37
f 35 46 36
f 36 46 47
f 36 47 48
f 36 48 40
f 40 48 49
f 40 49 50
f 40 50 42
f 40 42 41

