# https://github.com/mikedh/trimesh
v 0.02383596 -0.02097329 -0.00775389
v 0.02383596 -0.01930976 -0.01059854
v 0.02741845 -0.01180789 -0.01423225
v 0.02741845 -0.01254168 -0.01100831
v 0.02741845 -0.01045827 -0.00011734
v 0.02383596 -0.01804412 0.00026533
v 0.02383596 -0.00814493 -0.01841795
v 0.02741845 -0.00698525 -0.01821138
v 0.02741845 -0.01045027 -0.00010041
v 0.02383596 -0.00979646 0.01572129
v 0.02383596 -0.00096296 -0.01598645
v 0.02383596 -0.00067304 -0.01588824
v 0.02741845 -0.00252052 -0.01577649
v 0.02741845 -0.01040828 -0.00008687
v 0.02383596 -0.00832487 0.01617846
v 0.02383596 -0.00054908 -0.01300295
v 0.02578153 -0.00054908 -0.00502099
v 0.02741845 -0.00254851 -0.00603693
v 0.02622031 -0.00054908 0.00467116
v 0.02681622 -0.00154680 0.00527395
v 0.02383596 -0.00154880 0.01345911
v 0.02383596 -0.00054908 0.01275133
v 0.02617156 -0.00054908 0.00633731
v 0.02383596 -0.00105893 0.01311368
f 1 2 3
f 1 3 4
f 1 4 5
f 1 5 6
f 1 6 10
f 1 10 15
f 1 15 21
f 1 21 24
f 1 24 22
f 1 22 16
f 1 16 12
f 1 12 11
f 1 11 7
f 1 7 2
f 2 7 8
f 2 8 3
f 3 8 13
f 3 13 18
f 3 18 14
f 3 14 9
f 3 9 5
f 3 5 4
f 5 9 6
f 6 9 10
f 7 11 8
f 8 11 12
f 8 12 13
f 9 14 10
f 10 14 15
f 12 16 17
f 12 17 13
f 13 17 19
f 13 19 20
f 13 20 18
f 14 20 15
f 14 18 20
f 15 20 21
f 16 22 23
f 16 23 19
f 16 19 17
f 19 23 20
f 20 23 24
f 20 24 21
f 22 24 23

