# https://github.com/mikedh/trimesh
v -0.00869871 0.01465114 -0.04173628
v -0.02495593 0.01465114 -0.02649763
v -0.01701305 0.02141149 -0.03839304
v -0.00901973 0.02362246 -0.04006675
v -0.00669006 0.01465114 -0.04128133
v -0.02806521 0.01465114 -0.02151826
v -0.02117710 0.02251105 -0.03370166
v -0.01907215 0.03359258 -0.03037095
v -0.01267474 0.03288127 -0.03377679
v -0.00780445 0.04077675 -0.02954453
v -0.00136118 0.03300872 -0.03209056
v 0.00641660 0.02185606 -0.03302133
v 0.00570119 0.01465114 -0.03423591
v -0.02843208 0.01465114 -0.01640532
v -0.02886775 0.01811578 -0.01895135
v -0.02502931 0.02763837 -0.02512862
v -0.01474300 0.04121836 -0.02613451
v -0.02708840 0.03123046 -0.01883866
v -0.00481440 0.04343525 -0.02341318
v 0.00141791 0.03921781 -0.02624721
v 0.01215364 0.02973079 -0.02501175
v 0.01473094 0.01465114 -0.02830490
v 0.01409350 0.01465114 -0.02886837
v -0.02785425 0.01465114 -0.01306208
v -0.02743693 0.02551927 -0.01072057
v -0.01039551 0.04454370 -0.01541195
v -0.02325912 0.03576798 -0.01244018
v -0.00278283 0.04492603 -0.01314139
v 0.00510502 0.04149991 -0.01645123
v 0.01029174 0.03613846 -0.02153913
v 0.01482266 0.03043024 -0.01551629
v 0.01782647 0.01962730 -0.02054576
v 0.01522623 0.01465114 -0.02746596
v -0.02683617 0.01465114 -0.00862948
v -0.02598318 0.01726222 -0.00478121
v -0.02266754 0.02808886 0.00042355
v -0.01403218 0.04173701 -0.00952268
v -0.00753388 0.04168070 -0.00376697
v -0.01862731 0.03542715 -0.00188457
v 0.00196364 0.04226160 -0.00664274
v 0.00942958 0.03847094 -0.01271565
v 0.01633144 0.01754377 -0.01016545
v 0.01702392 0.01465114 -0.01068300
v 0.01798239 0.01465114 -0.01585020
v 0.00809048 0.03611474 -0.00449321
v 0.01224077 0.02800291 -0.00356663
v 0.01720736 0.01465114 -0.02154748
v -0.02551541 0.01465114 -0.00546989
v -0.02058551 0.01465114 0.00090354
v -0.02175034 0.02577416 0.00090354
v -0.02187875 0.02844155 0.00090354
v -0.01147321 0.03630739 0.00090354
v -0.00752012 0.03743955 0.00090354
v -0.00534638 0.03778335 0.00090354
v 0.00175727 0.03745437 0.00090354
v 0.00222962 0.03787226 0.00036095
v -0.01716439 0.03385932 0.00090354
v 0.01332305 0.01465114 0.00090354
v 0.00661380 0.03002124 0.00090354
v 0.00759519 0.02845341 0.00090354
v 0.00342656 0.03511003 0.00090354
f 1 2 3
f 1 3 4
f 1 4 5
f 1 5 13
f 1 13 23
f 1 23 22
f 1 22 33
f 1 33 47
f 1 47 44
f 1 44 43
f 1 43 58
f 1 58 49
f 1 49 48
f 1 48 34
f 1 34 24
f 1 24 14
f 1 14 6
f 1 6 2
f 2 6 7
f 2 7 3
f 3 8 9
f 3 9 4
f 3 7 8
f 4 9 10
f 4 10 11
f 4 11 12
f 4 12 5
f 5 12 13
f 6 14 15
f 6 15 16
f 6 16 7
f 7 16 8
f 8 17 9
f 8 16 18
f 8 18 17
f 9 17 10
f 10 17 19
f 10 19 20
f 10 20 11
f 11 20 21
f 11 21 12
f 12 21 22
f 12 22 23
f 12 23 13
f 14 24 25
f 14 25 15
f 15 25 18
f 15 18 16
f 17 26 19
f 17 18 27
f 17 27 26
f 18 25 27
f 19 28 29
f 19 29 20
f 19 26 28
f 20 29 30
f 20 30 21
f 21 30 31
f 21 31 32
f 21 32 22
f 22 32 33
f 24 34 35
f 24 35 25
f 25 35 36
f 25 36 27
f 26 27 37
f 26 37 38
f 26 38 28
f 27 36 39
f 27 39 37
f 28 40 29
f 28 38 40
f 29 40 41
f 29 41 30
f 30 41 31
f 31 42 43
f 31 43 44
f 31 44 32
f 31 41 45
f 31 45 46
f 31 46 42
f 32 44 47
f 32 47 33
f 34 48 35
f 35 48 49
f 35 49 36
f 36 49 50
f 36 50 51
f 36 51 39
f 37 39 38
f 38 39 52
f 38 52 53
f 38 53 54
f 38 54 55
f 38 55 56
f 38 56 40
f 39 57 52
f 39 51 57
f 40 56 45
f 40 45 41
f 42 46 58
f 42 58 43
f 45 56 59
f 45 59 60
f 45 60 46
f 46 60 58
f 49 58 60
f 49 60 59
f 49 59 61
f 49 61 55
f 49 55 54
f 49 54 53
f 49 53 52
f 49 52 57
f 49 57 51
f 49 51 50
f 55 61 56
f 56 61 59

