# https://github.com/mikedh/trimesh
v 0.00531043 -0.04256946 0.00321736
v -0.00087233 -0.04163546 0.00476854
v -0.00087233 -0.04163748 0.00476252
v 0.00482731 -0.04212364 -0.00006359
v 0.00552911 -0.04186274 0.00039795
v 0.00552911 -0.04245985 0.00322740
v 0.00552911 -0.04233747 0.00354847
v 0.00552911 -0.03654387 0.01759136
v 0.00234343 -0.03723042 0.01749503
v -0.00087233 -0.03733935 0.01460539
v -0.00087233 -0.03922348 0.00486286
v 0.00010456 -0.03570065 0.00919532
v 0.00552911 -0.04130732 0.00089762
v 0.00552911 -0.03570065 0.01937732
v 0.00488935 -0.03570065 0.01965023
v 0.00304210 -0.03570065 0.02043686
v 0.00118608 -0.03570065 0.01930307
v -0.00087233 -0.03570065 0.01757932
v -0.00087233 -0.03570065 0.00971907
v 0.00339488 -0.03570065 0.01081874
v 0.00552911 -0.03865864 0.00554112
v 0.00552911 -0.03570065 0.01728433
f 1 2 3
f 1 3 4
f 1 4 5
f 1 5 6
f 1 6 7
f 1 7 8
f 1 8 9
f 1 9 2
f 2 9 10
f 2 10 18
f 2 18 19
f 2 19 11
f 2 11 3
f 3 11 4
f 4 11 12
f 4 12 13
f 4 13 5
f 5 13 21
f 5 21 22
f 5 22 14
f 5 14 8
f 5 8 7
f 5 7 6
f 8 14 15
f 8 15 9
f 9 15 16
f 9 16 17
f 9 17 10
f 10 17 18
f 11 19 12
f 12 19 18
f 12 18 17
f 12 17 16
f 12 16 15
f 12 15 14
f 12 14 22
f 12 22 20
f 12 20 21
f 12 21 13
f 20 22 21

