# https://github.com/mikedh/trimesh
v -0.00112903 -0.02345380 -0.02377322
v -0.00077953 -0.02345380 -0.02370489
v 0.00954744 -0.02434117 -0.01976345
v 0.00954744 -0.02434966 -0.01974482
v 0.00954744 -0.02672547 -0.01442435
v 0.00505103 -0.02879033 -0.01064753
v -0.01340512 -0.02826563 -0.01003566
v -0.00125001 -0.02345380 -0.02375769
v 0.00954744 -0.02345380 -0.02079773
v 0.00954744 -0.02806115 -0.00936477
v 0.00205342 -0.03050256 -0.00166515
v -0.01689673 -0.03133591 0.00042825
v -0.02001196 -0.03017848 -0.00423998
v -0.00145836 -0.02345380 -0.02371110
v 0.00954744 -0.02345380 0.00795704
v 0.00954744 -0.02851640 -0.00170553
v 0.00954744 -0.02556804 0.00795704
v -0.00148860 -0.02834202 0.00795704
v -0.01186934 -0.02527714 0.00795704
v -0.01558947 -0.02345380 0.00795704
v -0.02115790 -0.02345380 0.00542881
v -0.02470664 -0.02345380 0.00093762
v -0.02476378 -0.02356183 0.00072021
v -0.02267015 -0.02691221 -0.00928713
v -0.01434943 -0.02491602 -0.01739984
v -0.01535423 -0.02345380 -0.01808936
v -0.02478058 -0.02345380 0.00076680
v -0.02478394 -0.02345380 0.00055559
v -0.02065718 -0.02345380 -0.01416656
v -0.02384635 -0.02345380 -0.00860382
v -0.02291211 -0.02345380 -0.01146128
f 1 2 3
f 1 3 4
f 1 4 5
f 1 5 6
f 1 6 7
f 1 7 8
f 1 8 14
f 1 14 26
f 1 26 29
f 1 29 31
f 1 31 30
f 1 30 28
f 1 28 27
f 1 27 22
f 1 22 21
f 1 21 20
f 1 20 15
f 1 15 9
f 1 9 2
f 2 9 3
f 3 9 15
f 3 15 17
f 3 17 16
f 3 16 10
f 3 10 5
f 3 5 4
f 5 10 6
f 6 11 12
f 6 12 13
f 6 13 7
f 6 10 11
f 7 13 8
f 8 13 14
f 10 16 11
f 11 16 17
f 11 17 18
f 11 18 12
f 12 18 19
f 12 19 20
f 12 20 21
f 12 21 22
f 12 22 23
f 12 23 13
f 13 23 24
f 13 24 25
f 13 25 14
f 14 25 26
f 15 20 19
f 15 19 18
f 15 18 17
f 22 27 23
f 23 27 28
f 23 28 24
f 24 29 25
f 24 28 30
f 24 30 31
f 24 31 29
f 25 29 26

