# https://github.com/mikedh/trimesh
v 0.00642011 0.02246346 0.00749585
v 0.00862412 0.02096849 0.00749585
v 0.00623561 0.02246346 0.00392104
v -0.01285904 0.02246346 0.00749585
v 0.00886230 0.02072979 0.00701851
v 0.01118371 0.01889207 0.00749585
v -0.01708253 0.02246346 0.00392104
v 0.01470944 0.01596258 0.00749585
v 0.00965064 0.01947506 0.00392104
v -0.01766960 0.01464818 0.00749585
v -0.01819627 0.01464818 0.00392104
v 0.01607478 0.01464818 0.00749585
v 0.01413580 0.01464818 0.00392104
f 1 2 3
f 1 3 7
f 1 7 4
f 1 4 10
f 1 10 12
f 1 12 8
f 1 8 6
f 1 6 2
f 2 5 3
f 2 6 5
f 3 5 6
f 3 6 8
f 3 8 9
f 3 9 13
f 3 13 11
f 3 11 7
f 4 7 10
f 7 11 10
f 8 12 9
f 9 12 13
f 10 11 13
f 10 13 12

