# https://github.com/mikedh/trimesh
v -0.00724816 0.00525357 -0.03510646
v -0.00794445 -0.00054708 -0.02991879
v -0.01952151 -0.00054708 -0.02707891
v -0.02184940 0.00525357 -0.02801719
v 0.00442763 0.00525357 -0.03295466
v 0.00347153 -0.00054708 -0.03172863
v -0.02237940 0.00457725 -0.02735831
v -0.02466572 -0.00054708 -0.01953927
v -0.02297177 0.00525357 -0.02707057
v 0.00851701 0.00525357 -0.03122822
v 0.00422498 -0.00054708 -0.03157851
v -0.02574652 -0.00054708 -0.01288787
v -0.02581927 0.00525357 -0.02240000
v 0.01254924 0.00525357 -0.02845089
v 0.01100598 -0.00054708 -0.02844672
v -0.02489955 -0.00054708 0.00407215
v -0.02686370 0.00525357 -0.01335076
v 0.01255444 0.00525357 -0.02844672
v 0.01668539 -0.00054708 -0.02418482
v -0.02380316 -0.00054708 0.00749585
v -0.02347580 0.00447561 0.00662846
v -0.02312246 0.00484926 0.00749585
v -0.02290941 0.00525357 0.00749585
v 0.01564615 0.00525357 -0.02463103
v 0.02359110 -0.00054708 -0.01589455
v -0.02334069 0.00328084 0.00749585
v 0.02574751 -0.00054708 0.00749585
v 0.02257265 0.00525357 0.00749585
v 0.02035388 0.00525357 -0.01358012
v 0.02577868 -0.00054708 -0.00502713
v 0.02616840 -0.00054708 0.00633655
v 0.02546691 0.00054093 0.00749585
v 0.02622036 -0.00054708 0.00466849
v 0.02275451 0.00525357 0.00116972
v 0.02259863 0.00525357 -0.00234155
f 1 2 3
f 1 3 4
f 1 4 9
f 1 9 13
f 1 13 17
f 1 17 23
f 1 23 28
f 1 28 34
f 1 34 35
f 1 35 29
f 1 29 24
f 1 24 18
f 1 18 14
f 1 14 10
f 1 10 5
f 1 5 6
f 1 6 2
f 2 6 11
f 2 11 15
f 2 15 19
f 2 19 25
f 2 25 30
f 2 30 33
f 2 33 31
f 2 31 27
f 2 27 20
f 2 20 16
f 2 16 12
f 2 12 8
f 2 8 3
f 3 7 4
f 3 8 7
f 4 7 9
f 5 10 11
f 5 11 6
f 7 8 9
f 8 12 13
f 8 13 9
f 10 14 15
f 10 15 11
f 12 16 17
f 12 17 13
f 14 18 19
f 14 19 15
f 16 20 21
f 16 21 17
f 17 21 22
f 17 22 23
f 18 24 25
f 18 25 19
f 20 26 21
f 20 27 32
f 20 32 28
f 20 28 23
f 20 23 22
f 20 22 26
f 21 26 22
f 24 29 25
f 25 29 30
f 27 31 32
f 28 32 33
f 28 33 34
f 29 35 30
f 30 35 33
f 31 33 32
f 33 35 34

