# https://github.com/mikedh/trimesh
v -0.01558963 -0.02345304 0.00795704
v -0.01201411 -0.02520584 0.00795704
v -0.00635792 -0.02799167 0.01756084
v -0.00636035 -0.02799167 0.01844172
v -0.01187556 -0.02345304 0.01672437
v 0.00924217 -0.02345304 0.00795704
v -0.01186827 -0.02527693 0.00795704
v -0.00265600 -0.02799167 0.00795704
v -0.00236188 -0.02799167 0.01951506
v -0.00049998 -0.02345304 0.02308150
v -0.00663502 -0.02345304 0.02088301
v 0.00924217 -0.02345304 0.01607297
v 0.00924217 -0.02552619 0.00795704
v -0.00088889 -0.02799167 0.00795704
v -0.00229626 -0.02799167 0.01939070
v 0.00924217 -0.02578789 0.01163008
v 0.00496175 -0.02345304 0.01974009
v 0.00806086 -0.02589052 0.00795704
f 1 2 3
f 1 3 4
f 1 4 5
f 1 5 11
f 1 11 10
f 1 10 17
f 1 17 12
f 1 12 6
f 1 6 13
f 1 13 18
f 1 18 14
f 1 14 8
f 1 8 7
f 1 7 2
f 2 7 3
f 3 8 14
f 3 14 15
f 3 15 9
f 3 9 4
f 3 7 8
f 4 9 10
f 4 10 11
f 4 11 5
f 6 12 16
f 6 16 13
f 9 15 16
f 9 16 12
f 9 12 17
f 9 17 10
f 13 16 18
f 14 18 16
f 14 16 15

