# https://github.com/mikedh/trimesh
v 0.03134176 -0.00171085 -0.00639315
v 0.02741918 -0.00254792 -0.00604024
v 0.02741995 -0.00552811 -0.00511826
v 0.03036140 -0.00552811 -0.00945339
v 0.03023008 -0.00552811 -0.01646776
v 0.02976390 -0.00552811 -0.01759368
v 0.02861227 -0.00313648 -0.01573995
v 0.02741918 -0.00252064 -0.01577781
v 0.02741918 -0.00552811 -0.00785367
v 0.02787038 -0.00552811 -0.01727618
v 0.02741918 -0.00552811 -0.01720046
f 1 2 3
f 1 3 4
f 1 4 5
f 1 5 6
f 1 6 7
f 1 7 8
f 1 8 2
f 2 9 3
f 2 8 11
f 2 11 9
f 3 9 11
f 3 11 10
f 3 10 6
f 3 6 5
f 3 5 4
f 6 10 8
f 6 8 7
f 8 10 11

