# https://github.com/mikedh/trimesh
v -0.00087233 -0.03570081 0.01758112
v -0.00335960 -0.03570081 0.02361022
v -0.00087233 -0.03733919 0.01460558
v -0.00087233 -0.03570081 0.00971858
v -0.00407911 -0.03570081 0.02310093
v -0.00919426 -0.04200666 0.01114242
v -0.00397228 -0.04152459 0.00895573
v -0.00087233 -0.04163724 0.00476440
v -0.00087233 -0.04163558 0.00476873
v -0.00087233 -0.03922440 0.00486192
v -0.00407363 -0.04213256 0.00147028
v -0.00590987 -0.03570081 0.01241456
v -0.00683939 -0.03570081 0.01714768
v -0.01020049 -0.04043372 0.00982261
v -0.00995761 -0.04416190 0.00445666
f 1 2 3
f 1 3 9
f 1 9 8
f 1 8 10
f 1 10 4
f 1 4 12
f 1 12 13
f 1 13 5
f 1 5 2
f 2 5 6
f 2 6 7
f 2 7 8
f 2 8 9
f 2 9 3
f 4 10 11
f 4 11 12
f 5 13 14
f 5 14 6
f 6 14 15
f 6 15 7
f 7 15 8
f 8 15 11
f 8 11 10
f 11 15 14
f 11 14 12
f 12 14 13

