# https://github.com/mikedh/trimesh
v 0.01667140 -0.02345303 -0.01684801
v 0.01667140 -0.02161670 -0.01867162
v 0.02121705 -0.02345303 -0.01271584
v 0.01667140 -0.02345303 0.00419676
v 0.01667140 -0.02050683 -0.01955565
v 0.01967846 -0.01823328 -0.01929802
v 0.02162239 -0.02345303 -0.01194295
v 0.01988954 -0.02345303 0.00233779
v 0.01667140 -0.01548214 0.02095277
v 0.01667140 -0.01850009 -0.02115194
v 0.01667140 -0.01599335 -0.02280885
v 0.01667140 -0.00860766 -0.02573370
v 0.01821771 -0.00747537 -0.02482947
v 0.02383491 -0.00814577 -0.01841399
v 0.02383491 -0.01913911 -0.01071543
v 0.02383491 -0.01930951 -0.01059419
v 0.02383491 -0.02097320 -0.00775521
v 0.02322410 -0.02345303 -0.00584067
v 0.02288889 -0.02345303 -0.00270366
v 0.01667140 -0.01527586 0.02135184
v 0.01667140 -0.00598657 -0.02560236
v 0.01667140 -0.00054932 -0.02419802
v 0.01668893 -0.00054932 -0.02418287
v 0.02383491 -0.00067264 -0.01588822
v 0.02383491 -0.01804493 0.00026665
v 0.02383491 -0.00979601 0.01571936
v 0.02323672 -0.00968614 0.01836637
v 0.01667140 -0.00906282 0.02483236
v 0.01667140 -0.00054932 0.02587298
v 0.02359507 -0.00054932 -0.01589832
v 0.02383491 -0.00054932 -0.01300378
v 0.02383491 -0.00832515 0.01617400
v 0.02383491 -0.00154933 0.01346131
v 0.02159364 -0.00155157 0.01961411
v 0.02009993 -0.00054932 0.02163473
v 0.02383491 -0.00054932 0.01274904
v 0.02161257 -0.00054932 0.01885132
v 0.02094777 -0.00054932 0.02027081
f 1 2 3
f 1 3 7
f 1 7 18
f 1 18 19
f 1 19 8
f 1 8 4
f 1 4 9
f 1 9 20
f 1 20 28
f 1 28 29
f 1 29 22
f 1 22 21
f 1 21 12
f 1 12 11
f 1 11 10
f 1 10 5
f 1 5 2
f 2 5 6
f 2 6 3
f 3 6 7
f 4 8 9
f 5 10 6
f 6 10 11
f 6 11 12
f 6 12 13
f 6 13 14
f 6 14 7
f 7 15 16
f 7 16 17
f 7 17 18
f 7 14 15
f 8 19 20
f 8 20 9
f 12 21 13
f 13 21 22
f 13 22 23
f 13 23 24
f 13 24 14
f 14 24 31
f 14 31 36
f 14 36 33
f 14 33 32
f 14 32 26
f 14 26 25
f 14 25 17
f 14 17 16
f 14 16 15
f 17 25 18
f 18 25 19
f 19 25 26
f 19 26 27
f 19 27 20
f 20 27 28
f 22 29 35
f 22 35 38
f 22 38 37
f 22 37 36
f 22 36 31
f 22 31 30
f 22 30 23
f 23 30 24
f 24 30 31
f 26 32 27
f 27 32 33
f 27 33 34
f 27 34 35
f 27 35 29
f 27 29 28
f 33 37 34
f 33 36 37
f 34 37 38
f 34 38 35

