# https://github.com/mikedh/trimesh
v 0.02322449 -0.02345353 -0.00584185
v 0.02288846 -0.02345353 -0.00270812
v 0.02271040 -0.02553796 -0.00423319
v 0.02136090 -0.02394229 -0.01210171
v 0.02162196 -0.02345353 -0.01194211
v 0.01988824 -0.02345353 0.00233827
v 0.01869805 -0.02657695 -0.00676145
v 0.01865387 -0.02810916 -0.00090693
v 0.01391858 -0.02471707 -0.01809557
v 0.01504183 -0.02345353 -0.01833117
v 0.02121631 -0.02345353 -0.01271731
v 0.01517035 -0.02345353 0.00507680
v 0.01517035 -0.02345551 0.00508187
v 0.01151680 -0.02630084 0.00508187
v 0.00954878 -0.02806158 -0.00936571
v 0.00954878 -0.02633554 0.00508187
v 0.00954878 -0.02695368 0.00316160
v 0.00954878 -0.02851713 -0.00170492
v 0.00954878 -0.02672516 -0.01442224
v 0.00954878 -0.02434133 -0.01976503
v 0.01277526 -0.02345353 -0.01988917
v 0.01515964 -0.02345353 0.00508187
v 0.00954878 -0.02345353 0.00508187
v 0.00954878 -0.02345353 -0.02079863
f 1 2 3
f 1 3 4
f 1 4 5
f 1 5 11
f 1 11 10
f 1 10 21
f 1 21 24
f 1 24 23
f 1 23 22
f 1 22 12
f 1 12 6
f 1 6 2
f 2 6 3
f 3 7 4
f 3 6 8
f 3 8 7
f 4 9 10
f 4 10 11
f 4 11 5
f 4 7 9
f 6 12 13
f 6 13 14
f 6 14 8
f 7 15 9
f 7 8 15
f 8 14 16
f 8 16 17
f 8 17 18
f 8 18 15
f 9 15 19
f 9 19 20
f 9 20 21
f 9 21 10
f 12 22 13
f 13 22 23
f 13 23 16
f 13 16 14
f 15 18 17
f 15 17 16
f 15 16 23
f 15 23 24
f 15 24 20
f 15 20 19
f 20 24 21

