# https://github.com/mikedh/trimesh
v 0.00552911 -0.03386920 0.02289493
v 0.00552911 -0.03461889 0.02166791
v 0.00552911 -0.03215129 0.02272543
v 0.00222379 -0.03134836 0.03200278
v 0.00552911 -0.03569998 0.01938082
v -0.00019164 -0.03134836 0.03504127
v 0.00317543 -0.03134836 0.02364886
v 0.00552911 -0.03219005 0.01793622
v -0.00335773 -0.03569998 0.02360838
v 0.00552911 -0.03569998 0.01728602
v -0.00328024 -0.03134836 0.02991304
v -0.00407812 -0.03569998 0.02309986
v 0.00121161 -0.03134836 0.01811837
v 0.00552911 -0.03426960 0.01690905
v 0.00339458 -0.03569998 0.01081944
v -0.00222811 -0.03134836 0.01450559
v 0.00552911 -0.03481313 0.01696218
v -0.00341706 -0.03134836 0.02952849
v -0.00683982 -0.03569998 0.01715193
v 0.00010378 -0.03569998 0.00919774
v -0.00260223 -0.03134836 0.01452077
v -0.00617392 -0.03134836 0.01872556
v -0.00616423 -0.03134836 0.01532024
v -0.00590997 -0.03569998 0.01241332
f 1 2 5
f 1 5 10
f 1 10 17
f 1 17 14
f 1 14 8
f 1 8 3
f 1 3 4
f 1 4 2
f 2 4 6
f 2 6 5
f 3 7 4
f 3 8 7
f 4 7 13
f 4 13 16
f 4 16 21
f 4 21 23
f 4 23 22
f 4 22 18
f 4 18 11
f 4 11 6
f 5 6 9
f 5 9 12
f 5 12 19
f 5 19 24
f 5 24 20
f 5 20 15
f 5 15 10
f 6 11 12
f 6 12 9
f 7 8 13
f 8 14 15
f 8 15 16
f 8 16 13
f 10 15 17
f 11 18 19
f 11 19 12
f 14 17 15
f 15 20 16
f 16 20 21
f 18 22 19
f 19 22 23
f 19 23 24
f 20 24 23
f 20 23 21

