# https://github.com/mikedh/trimesh
v -0.00534314 0.03778525 0.00090354
v -0.00752191 0.03744182 0.00090354
v -0.00285526 0.03336261 0.00620075
v 0.00175738 0.03745532 0.00090354
v -0.00751291 0.03377803 0.00493598
v -0.01147131 0.03630804 0.00090354
v -0.01498555 0.03151647 0.00506762
v -0.00764195 0.03078011 0.00749585
v 0.00021183 0.02667690 0.00749585
v 0.00642103 0.02246572 0.00749585
v 0.00342897 0.03510977 0.00090354
v -0.01716732 0.03385901 0.00090354
v -0.02187899 0.02844056 0.00090354
v -0.01277677 0.02343603 0.00749585
v 0.00827568 0.02246572 0.00314658
v 0.00759444 0.02845256 0.00090354
v 0.00661610 0.03002426 0.00090354
v -0.01285780 0.02246572 0.00749585
v -0.02174994 0.02577408 0.00090354
v 0.00877986 0.02246572 0.00090354
v -0.02043848 0.02246572 0.00158755
v -0.02113773 0.02246572 0.00090354
f 1 2 3
f 1 3 4
f 1 4 11
f 1 11 17
f 1 17 16
f 1 16 20
f 1 20 22
f 1 22 19
f 1 19 13
f 1 13 12
f 1 12 6
f 1 6 2
f 2 5 3
f 2 6 7
f 2 7 5
f 3 5 8
f 3 8 9
f 3 9 10
f 3 10 4
f 4 10 11
f 5 7 8
f 6 12 7
f 7 12 13
f 7 13 14
f 7 14 8
f 8 14 18
f 8 18 10
f 8 10 9
f 10 15 16
f 10 16 17
f 10 17 11
f 10 18 21
f 10 21 22
f 10 22 20
f 10 20 15
f 13 19 18
f 13 18 14
f 15 20 16
f 18 19 21
f 19 22 21

