# https://github.com/mikedh/trimesh
v -0.02367729 0.00525506 -0.00209106
v -0.02311821 0.00525506 0.00585737
v -0.02167731 0.01464817 -0.00209106
v 0.02260858 0.00525506 -0.00209106
v -0.02300457 0.00525506 0.00694594
v -0.02290912 0.00525506 0.00749585
v -0.02035915 0.01464817 0.00205113
v 0.01290869 0.01464817 -0.00209106
v 0.02229949 0.00579391 -0.00209106
v 0.02079042 0.00854885 -0.00081668
v 0.02275858 0.00525506 0.00117183
v -0.02219549 0.00660310 0.00749585
v 0.02257222 0.00525506 0.00749585
v -0.01775008 0.01454059 0.00749585
v -0.01766827 0.01464817 0.00749585
v 0.01607229 0.01464817 0.00749585
v 0.01666319 0.01425645 0.00749585
v 0.02047224 0.00872816 -0.00209106
v 0.02133587 0.00726517 0.00749585
v 0.02259495 0.00525506 0.00676857
f 1 2 3
f 1 3 8
f 1 8 18
f 1 18 9
f 1 9 4
f 1 4 11
f 1 11 20
f 1 20 13
f 1 13 6
f 1 6 5
f 1 5 2
f 2 5 3
f 3 5 6
f 3 6 7
f 3 7 15
f 3 15 16
f 3 16 8
f 4 9 10
f 4 10 11
f 6 12 7
f 6 13 19
f 6 19 17
f 6 17 16
f 6 16 15
f 6 15 14
f 6 14 12
f 7 14 15
f 7 12 14
f 8 16 17
f 8 17 18
f 9 18 10
f 10 19 20
f 10 20 11
f 10 18 17
f 10 17 19
f 13 20 19

