# https://github.com/mikedh/trimesh
v 0.02200974 -0.04059795 -0.00076393
v 0.01655563 -0.03897258 0.00509331
v 0.01655563 -0.03721328 0.00375136
v 0.02248766 -0.03794814 -0.00036332
v 0.02276614 -0.03787783 0.00347704
v 0.02047931 -0.03591098 0.00931456
v 0.01655563 -0.03479363 0.00931456
v 0.01655563 -0.03687097 0.00384411
v 0.01655563 -0.03204924 0.00931456
v 0.01867708 -0.03270291 0.00931456
v 0.01918662 -0.03309125 0.00931456
v 0.01928025 -0.03327622 0.00931456
f 1 2 3
f 1 3 4
f 1 4 5
f 1 5 6
f 1 6 2
f 2 6 7
f 2 7 9
f 2 9 8
f 2 8 3
f 3 8 4
f 4 8 9
f 4 9 10
f 4 10 11
f 4 11 5
f 5 11 12
f 5 12 6
f 6 12 11
f 6 11 10
f 6 10 9
f 6 9 7

