# https://github.com/mikedh/trimesh
v 0.02741880 -0.01254194 -0.01101045
v 0.02741880 -0.01180874 -0.01423442
v 0.03005466 -0.00613262 -0.01805989
v 0.02964243 -0.00833084 -0.01169889
v 0.02742197 -0.01045012 -0.00011246
v 0.02741880 -0.01045698 -0.00011601
v 0.02741880 -0.00698527 -0.01821249
v 0.02976400 -0.00552917 -0.01759324
v 0.03023038 -0.00552917 -0.01646654
v 0.03036146 -0.00552917 -0.00945258
v 0.02741880 -0.01044943 -0.00010004
v 0.02741880 -0.00552917 -0.01720111
v 0.02741966 -0.00552917 -0.00511965
v 0.02741880 -0.01040618 -0.00008585
v 0.02741880 -0.00552917 -0.00785390
f 1 2 3
f 1 3 4
f 1 4 5
f 1 5 6
f 1 6 11
f 1 11 14
f 1 14 15
f 1 15 12
f 1 12 7
f 1 7 2
f 2 7 3
f 3 7 8
f 3 8 9
f 3 9 4
f 4 9 10
f 4 10 5
f 5 11 6
f 5 10 11
f 7 12 8
f 8 12 15
f 8 15 13
f 8 13 10
f 8 10 9
f 10 13 14
f 10 14 11
f 13 15 14

