# https://github.com/mikedh/trimesh
v 0.04958788 -0.03492972 -0.05231588
v 0.04894651 -0.03599089 -0.05250105
v 0.04934327 -0.03516867 -0.05313704
v 0.04886000 -0.03439785 -0.05315314
v 0.04913743 -0.03438500 -0.05187310
v 0.04908672 -0.03420257 -0.04958674
v 0.04934625 -0.03486291 -0.05105194
v 0.04880929 -0.03585985 -0.05310484
v 0.04658389 -0.03791281 -0.05044815
v 0.04485368 -0.04045910 -0.05157523
v 0.04704925 -0.03801302 -0.05242054
v 0.04844833 -0.03471132 -0.05351541
v 0.04797700 -0.03452118 -0.05337051
v 0.04819477 -0.03394563 -0.05191335
v 0.04859749 -0.03400473 -0.05180870
v 0.04541152 -0.03007866 -0.03241489
v 0.04497897 -0.02952624 -0.02945228
v 0.04449571 -0.02905860 -0.02632061
v 0.04512515 -0.02979088 -0.02935568
v 0.04442113 -0.02965471 -0.02698881
v 0.03652185 -0.04920797 -0.05050451
v 0.03538230 -0.04962421 -0.05072992
v 0.04215098 -0.04305678 -0.05064137
v 0.03939757 -0.04608612 -0.05060111
v 0.04308768 -0.02964443 -0.02370418
v 0.03513768 -0.04844228 -0.05102779
v 0.03567763 -0.04730660 -0.05076212
v 0.02119164 -0.02370394 0.02871303
v 0.02317541 -0.02370394 0.02480045
v 0.02356619 -0.02370394 0.02404370
v 0.03421292 -0.02370394 0.00398170
v 0.03916190 -0.02583398 -0.01076693
v 0.03920068 -0.02585197 -0.01087964
v 0.04454642 -0.02947741 -0.03008828
v 0.04461205 -0.02917936 -0.02840571
v 0.04418248 -0.02872971 -0.02606300
v 0.04383047 -0.02840340 -0.02378469
v 0.04069522 -0.02588537 -0.01087964
v 0.04068031 -0.02619627 -0.01087964
v 0.04342477 -0.02840340 -0.02206187
v 0.04391997 -0.02899180 -0.02434018
v 0.03583275 -0.04940324 -0.04923252
v 0.03557024 -0.04995310 -0.05019858
v 0.03508697 -0.04975525 -0.04979606
v 0.03480656 -0.04898443 -0.05072187
v 0.03489605 -0.04887908 -0.04573857
v 0.04224942 -0.02981658 -0.02206187
v 0.03470513 -0.04814165 -0.05016638
v 0.01918997 -0.02672557 0.02871303
v 0.02265336 -0.02370394 0.02871303
v 0.03346118 -0.04704709 -0.04509453
v 0.03604157 -0.02370394 0.00398170
v 0.03940652 -0.02583398 -0.01087964
v 0.03917682 -0.02583398 -0.01077498
v 0.04339195 -0.02832632 -0.02425162
v 0.04056695 -0.02583398 -0.01087964
v 0.04063258 -0.02583398 -0.01069447
v 0.04340985 -0.02806424 -0.02206187
v 0.04026267 -0.02583398 -0.00930173
v 0.03568956 -0.02370394 0.00481091
v 0.03861897 -0.02583398 -0.00562262
v 0.03666504 -0.02819785 -0.00583193
v 0.03501239 -0.02975234 -0.00516374
v 0.03526000 -0.03248363 -0.01121776
v 0.03617283 -0.03185926 -0.01203892
v 0.03528088 -0.04942636 -0.04792833
v 0.03309724 -0.04694688 -0.03794563
v 0.03462161 -0.04900498 -0.04972360
v 0.03060335 -0.04384816 -0.02573293
v 0.03106275 -0.04457787 -0.02938788
v 0.03310022 -0.04719868 -0.04045741
v 0.03330307 -0.04741708 -0.04324290
v 0.03292123 -0.04687750 -0.04237343
v 0.03413238 -0.04801318 -0.04811349
v 0.03440086 -0.03442097 -0.01336726
v 0.03139985 -0.03646623 -0.01091989
v 0.02878067 -0.03926689 -0.01114531
v 0.02860169 -0.03945703 -0.01116141
v 0.02801998 -0.03952640 -0.01008263
v 0.03369983 -0.04750958 -0.04630211
v 0.01911241 -0.02740647 0.02871303
v 0.02009684 -0.02765056 0.02871303
v 0.03002761 -0.02370394 0.01623465
v 0.03406973 -0.02370394 0.00840146
v 0.03242604 -0.02921277 0.00159068
v 0.03299581 -0.03185926 -0.00483367
v 0.03202630 -0.03285620 -0.00466460
v 0.02709820 -0.03852947 -0.00619421
v 0.02653141 -0.03784344 -0.00399641
v 0.02650754 -0.03795392 -0.00520399
v 0.03062125 -0.04400489 -0.02735109
v 0.03077339 -0.04405114 -0.02963745
v 0.01914224 -0.02754778 0.02871303
v 0.02956225 -0.03696213 -0.00791703
v 0.02776343 -0.03860398 -0.00749035
v 0.02000734 -0.02778674 0.02871303
v 0.03258713 -0.02370394 0.01139627
v 0.03397427 -0.02393776 0.00816799
v 0.03318375 -0.02370394 0.01022894
v 0.02940713 -0.03185926 0.00277412
v 0.03088078 -0.02709557 0.00872348
v 0.02916550 -0.02916138 0.00836121
v 0.02861064 -0.03507874 -0.00201597
v 0.02727718 -0.03785628 -0.00496247
v 0.02664178 -0.03691588 -0.00177445
v 0.02645086 -0.03754281 -0.00291763
v 0.01958971 -0.02798458 0.02871303
v 0.01956286 -0.02796146 0.02871303
v 0.01995961 -0.02783813 0.02871303
v 0.02096492 -0.02901235 0.02471190
v 0.02880752 -0.03185926 0.00397365
v 0.02855098 -0.03212392 0.00398170
v 0.02685358 -0.03256072 0.00651763
v 0.02586617 -0.03484749 0.00398170
v 0.02547240 -0.03463680 0.00518928
v 0.02018335 -0.02841111 0.02721562
f 1 2 3
f 1 3 4
f 1 4 5
f 1 5 6
f 1 6 7
f 1 7 2
f 2 8 3
f 2 7 9
f 2 9 10
f 2 10 11
f 2 11 8
f 3 8 12
f 3 12 4
f 4 12 13
f 4 13 14
f 4 14 15
f 4 15 5
f 5 15 16
f 5 16 17
f 5 17 6
f 6 17 18
f 6 18 19
f 6 19 7
f 7 19 20
f 7 20 9
f 8 11 21
f 8 21 22
f 8 22 12
f 9 20 10
f 10 23 24
f 10 24 21
f 10 21 11
f 10 20 25
f 10 25 23
f 12 26 13
f 12 22 26
f 13 26 27
f 13 27 28
f 13 28 29
f 13 29 30
f 13 30 31
f 13 31 14
f 14 31 32
f 14 32 33
f 14 33 34
f 14 34 35
f 14 35 15
f 15 35 16
f 16 35 17
f 17 35 36
f 17 36 18
f 18 36 37
f 18 37 38
f 18 38 39
f 18 39 40
f 18 40 41
f 18 41 19
f 19 41 20
f 20 41 25
f 21 24 42
f 21 42 43
f 21 43 22
f 22 43 44
f 22 44 45
f 22 45 26
f 23 25 46
f 23 46 24
f 24 46 42
f 25 41 47
f 25 47 46
f 26 45 48
f 26 48 27
f 27 48 28
f 28 49 81
f 28 81 93
f 28 93 108
f 28 108 107
f 28 107 109
f 28 109 96
f 28 96 82
f 28 82 50
f 28 50 83
f 28 83 97
f 28 97 99
f 28 99 84
f 28 84 60
f 28 60 52
f 28 52 31
f 28 31 30
f 28 30 29
f 28 48 51
f 28 51 49
f 31 52 56
f 31 56 53
f 31 53 54
f 31 54 32
f 32 54 33
f 33 54 53
f 33 53 55
f 33 55 34
f 34 55 35
f 35 55 36
f 36 55 56
f 36 56 57
f 36 57 58
f 36 58 37
f 37 58 38
f 38 57 59
f 38 59 39
f 38 58 57
f 39 59 60
f 39 60 61
f 39 61 62
f 39 62 63
f 39 63 64
f 39 64 65
f 39 65 47
f 39 47 41
f 39 41 40
f 42 46 66
f 42 66 43
f 43 66 67
f 43 67 44
f 44 68 45
f 44 67 69
f 44 69 70
f 44 70 71
f 44 71 72
f 44 72 73
f 44 73 68
f 45 74 48
f 45 68 74
f 46 67 66
f 46 47 64
f 46 64 75
f 46 75 76
f 46 76 77
f 46 77 78
f 46 78 79
f 46 79 69
f 46 69 67
f 47 65 64
f 48 74 80
f 48 80 51
f 49 51 81
f 50 82 83
f 51 80 73
f 51 73 81
f 52 60 59
f 52 59 57
f 52 57 56
f 53 56 55
f 60 84 61
f 61 84 85
f 61 85 62
f 62 85 63
f 63 86 64
f 63 85 86
f 64 86 87
f 64 87 75
f 68 73 80
f 68 80 74
f 69 79 88
f 69 88 89
f 69 89 90
f 69 90 91
f 69 91 70
f 70 91 71
f 71 91 72
f 72 91 73
f 73 92 93
f 73 93 81
f 73 91 92
f 75 87 76
f 76 87 94
f 76 94 77
f 77 94 95
f 77 95 78
f 78 95 79
f 79 95 88
f 82 96 83
f 83 96 97
f 84 98 85
f 84 99 98
f 85 100 87
f 85 87 86
f 85 98 101
f 85 101 102
f 85 102 100
f 87 103 95
f 87 95 94
f 87 100 103
f 88 95 104
f 88 104 105
f 88 105 106
f 88 106 107
f 88 107 89
f 89 107 108
f 89 108 90
f 90 108 93
f 90 93 91
f 91 93 92
f 95 103 104
f 96 109 110
f 96 110 97
f 97 110 101
f 97 101 99
f 98 99 101
f 100 111 112
f 100 112 103
f 100 102 111
f 101 110 102
f 102 110 113
f 102 113 111
f 103 105 104
f 103 112 114
f 103 114 105
f 105 114 115
f 105 115 106
f 106 115 110
f 106 110 116
f 106 116 107
f 107 116 109
f 109 116 110
f 110 115 113
f 111 113 112
f 112 113 115
f 112 115 114

