# https://github.com/mikedh/trimesh
v -0.00451576 -0.02584150 0.04884169
v -0.00367000 -0.02539400 0.04963101
v -0.00440948 -0.02549823 0.05035961
v -0.00560136 -0.02551183 0.04962322
v -0.00585663 -0.02555827 0.04863775
v -0.00519983 -0.02562172 0.04762736
v -0.00083746 -0.02410250 0.04279648
v -0.00083746 -0.02418520 0.04363250
v -0.00308405 -0.02484795 0.04996573
v -0.00083746 -0.02379774 0.04612656
v -0.00514078 -0.02523880 0.05065541
v -0.00322577 -0.02388951 0.05123923
v -0.00459117 -0.02466442 0.05130150
v -0.00709485 -0.02472559 0.04919198
v -0.00651980 -0.02482076 0.05014321
v -0.00695586 -0.02486154 0.04836686
v -0.00656613 -0.02484341 0.04704510
v -0.01011816 -0.02032314 0.03539993
v -0.00083746 -0.02203495 0.03539993
v -0.00083746 -0.02401300 0.04246020
v -0.00083746 -0.02342502 0.04703109
v -0.00207113 -0.02353944 0.05021016
v -0.00083746 -0.02134275 0.05128904
v -0.00473197 -0.02466442 0.05130150
v -0.00514532 -0.02454546 0.05130150
v -0.00601834 -0.02459757 0.05101504
v -0.00083746 -0.02132689 0.05130150
v -0.00301410 -0.02358703 0.05130150
v -0.00328027 -0.02383740 0.05130150
v -0.00360005 -0.02405605 0.05130150
v -0.00739009 -0.02379774 0.05019926
v -0.00796242 -0.02362554 0.04896935
v -0.00734467 -0.02434720 0.04746389
v -0.00678052 -0.02401640 0.05087960
v -0.01011816 -0.02037978 0.04408554
v -0.01011816 -0.01943154 0.03539993
v -0.00798240 -0.02355191 0.04770520
v -0.00083746 -0.02087826 0.03539993
v -0.00578850 -0.02422825 0.05130150
v -0.00630086 -0.02387932 0.05130150
v -0.00083746 -0.01905089 0.05130150
v -0.01011816 -0.01904862 0.05094187
v -0.01011816 -0.01910527 0.05085936
v -0.01011816 -0.01937830 0.05014321
v -0.00665153 -0.02351679 0.05130150
v -0.00720205 -0.02273055 0.05130150
v -0.00741462 -0.02257308 0.05120965
v -0.00902348 -0.01947799 0.03539993
v -0.01011816 -0.01446943 0.04622153
v -0.00111817 -0.02071059 0.03539993
v -0.00083746 -0.02068680 0.03594015
v -0.01011816 -0.01426778 0.05130150
v -0.00083746 -0.01870309 0.04501342
v -0.01011816 -0.01873707 0.05113492
v -0.01011816 -0.01842892 0.05130150
v -0.00790700 -0.01955730 0.03539993
v -0.01011816 -0.01431649 0.04841668
v -0.00799512 -0.01540294 0.04596154
v -0.00083746 -0.01960148 0.04046745
v -0.00083746 -0.02024044 0.03774453
v -0.00164779 -0.02050780 0.03539993
v -0.00222648 -0.02036279 0.03539993
v -0.00308678 -0.02015547 0.03539993
v -0.00451849 -0.01994701 0.03539993
v -0.00637899 -0.01971816 0.03539993
v -0.00083746 -0.01900104 0.04333670
v -0.00730652 -0.01568957 0.04612656
v -0.00083746 -0.01938622 0.04146694
f 1 2 3
f 1 3 4
f 1 4 5
f 1 5 6
f 1 6 7
f 1 7 8
f 1 8 2
f 2 9 3
f 2 8 10
f 2 10 9
f 3 11 4
f 3 9 12
f 3 12 13
f 3 13 11
f 4 14 5
f 4 11 15
f 4 15 14
f 5 16 17
f 5 17 6
f 5 14 16
f 6 17 18
f 6 18 19
f 6 19 20
f 6 20 7
f 7 20 19
f 7 19 38
f 7 38 51
f 7 51 60
f 7 60 59
f 7 59 68
f 7 68 66
f 7 66 53
f 7 53 41
f 7 41 27
f 7 27 23
f 7 23 21
f 7 21 10
f 7 10 8
f 9 10 21
f 9 21 22
f 9 22 23
f 9 23 12
f 11 13 24
f 11 24 25
f 11 25 26
f 11 26 15
f 12 23 27
f 12 27 28
f 12 28 29
f 12 29 30
f 12 30 13
f 13 30 29
f 13 29 28
f 13 28 27
f 13 27 41
f 13 41 52
f 13 52 55
f 13 55 46
f 13 46 45
f 13 45 40
f 13 40 39
f 13 39 25
f 13 25 24
f 14 15 31
f 14 31 32
f 14 32 33
f 14 33 16
f 15 26 34
f 15 34 31
f 16 33 18
f 16 18 17
f 18 35 44
f 18 44 43
f 18 43 42
f 18 42 54
f 18 54 55
f 18 55 52
f 18 52 57
f 18 57 49
f 18 49 36
f 18 36 48
f 18 48 56
f 18 56 65
f 18 65 64
f 18 64 63
f 18 63 62
f 18 62 61
f 18 61 50
f 18 50 38
f 18 38 19
f 18 33 37
f 18 37 32
f 18 32 35
f 21 23 22
f 25 39 26
f 26 39 40
f 26 40 34
f 31 34 42
f 31 42 43
f 31 43 32
f 32 43 44
f 32 44 35
f 32 37 33
f 34 40 45
f 34 45 46
f 34 46 47
f 34 47 42
f 36 49 48
f 38 50 51
f 41 53 52
f 42 47 54
f 46 55 54
f 46 54 47
f 48 49 56
f 49 57 58
f 49 58 59
f 49 59 60
f 49 60 51
f 49 51 50
f 49 50 61
f 49 61 62
f 49 62 63
f 49 63 64
f 49 64 65
f 49 65 56
f 52 53 57
f 53 66 58
f 53 58 67
f 53 67 57
f 57 67 58
f 58 66 68
f 58 68 59

