# https://github.com/mikedh/trimesh
v -0.02212389 -0.02394794 -0.06747060
v -0.02212389 -0.02193518 -0.06747060
v -0.02155022 -0.02407591 -0.06747060
v -0.02212389 -0.02427476 -0.06656704
v -0.02212389 -0.02193518 -0.06577122
v -0.02112352 -0.02193518 -0.06747060
v -0.02131198 -0.02411875 -0.06747060
v -0.02212389 -0.02428110 -0.06654920
v -0.02212389 -0.02463648 -0.05988101
v -0.01912753 -0.02463648 -0.06130173
v -0.01512368 -0.02463648 -0.06339938
v -0.01357809 -0.02348177 -0.06747060
v -0.01730932 -0.02264858 -0.06747060
v -0.02152058 -0.02463648 -0.06580986
v -0.02060437 -0.02423166 -0.06747060
v -0.02212389 -0.02463648 -0.06548589
v -0.01331496 -0.02463648 -0.06473689
v -0.01099538 -0.02427317 -0.06747060
v -0.01960282 -0.02463648 -0.06673125
v -0.01800152 -0.02463648 -0.06747060
v -0.01001635 -0.02463648 -0.06747060
f 1 2 6
f 1 6 13
f 1 13 12
f 1 12 18
f 1 18 21
f 1 21 20
f 1 20 15
f 1 15 7
f 1 7 3
f 1 3 4
f 1 4 8
f 1 8 16
f 1 16 9
f 1 9 5
f 1 5 2
f 2 5 6
f 3 7 8
f 3 8 4
f 5 9 10
f 5 10 11
f 5 11 12
f 5 12 13
f 5 13 6
f 7 14 8
f 7 15 14
f 8 14 16
f 9 16 14
f 9 14 19
f 9 19 20
f 9 20 21
f 9 21 17
f 9 17 11
f 9 11 10
f 11 17 12
f 12 17 18
f 14 15 19
f 15 20 19
f 17 21 18

