# https://github.com/mikedh/trimesh
v 0.01791376 0.02560269 0.07243820
v 0.02016592 0.02571761 0.07235338
v 0.01783955 0.02614140 0.07233476
v 0.01783955 0.02568409 0.07242372
v 0.01783955 0.02561466 0.07243613
v 0.02700147 0.01243888 0.07235958
v 0.02511068 0.01549639 0.07237200
v 0.02186795 0.02519566 0.07228511
v 0.02162596 0.02579184 0.07203892
v 0.02053053 0.02619647 0.07201823
v 0.01783955 0.02622760 0.07228097
v 0.01783955 0.02559551 0.07243407
v 0.03285613 0.00245948 0.07223752
v 0.02836954 0.01104061 0.07232648
v 0.02340704 0.02302404 0.07225408
v 0.02320054 0.02456836 0.07198305
v 0.02266976 0.02538481 0.07186100
v 0.02195991 0.02615577 0.07146792
v 0.02053537 0.02660111 0.07133759
v 0.01820093 0.02651731 0.07204719
v 0.01783955 0.02639759 0.07216512
v 0.01783955 0.02481257 0.07207409
v 0.03234793 0.00245948 0.07214443
v 0.03328687 0.00245948 0.07197892
v 0.03290452 0.00256243 0.07223546
v 0.03264962 0.00578994 0.07220442
v 0.02336510 0.02523157 0.07131690
v 0.03256089 0.00673089 0.07200167
v 0.03333043 0.00640527 0.07143275
v 0.02257780 0.02605521 0.07086589
v 0.02172114 0.02645745 0.07039834
v 0.02005299 0.02677350 0.07056591
v 0.01897531 0.02678307 0.07138103
v 0.01783955 0.02683335 0.07153412
v 0.01783955 0.02660111 0.07196858
v 0.01783955 0.02654843 0.07203892
v 0.01783955 0.02653167 0.07205961
v 0.01783955 0.01527851 0.05329120
v 0.01958191 0.01116991 0.05387254
v 0.02385876 0.00245948 0.05366980
v 0.03203657 0.00245948 0.07167067
v 0.03349983 0.00245948 0.07184031
v 0.03392574 0.00373803 0.07170377
v 0.03295292 0.00424083 0.07219408
v 0.03337077 0.00527995 0.07194582
v 0.02389264 0.02474793 0.07053074
v 0.02346189 0.02548537 0.07024524
v 0.03385475 0.00598387 0.07074177
v 0.03394832 0.00525601 0.07132310
v 0.02249391 0.02605042 0.06943219
v 0.02125813 0.02644308 0.06950253
v 0.01783955 0.02685969 0.07034868
v 0.01783955 0.02691476 0.07084107
v 0.01783955 0.02689321 0.07111208
v 0.01862684 0.02674955 0.06974045
v 0.01783955 0.01516119 0.05143960
v 0.01946414 0.01131117 0.05261469
v 0.02344092 0.00245948 0.05130306
v 0.02351513 0.00245948 0.05235402
v 0.02351836 0.00245948 0.05238712
v 0.03353371 0.00245948 0.07177411
v 0.03424356 0.00319931 0.07078314
v 0.03427744 0.00471251 0.07075417
v 0.03399995 0.00561276 0.06976528
v 0.02393136 0.02442709 0.06964736
v 0.02327313 0.02541593 0.06909704
v 0.02138074 0.02580141 0.06724130
v 0.02245519 0.02570085 0.06808746
v 0.02004815 0.02617493 0.06800884
v 0.01783955 0.02677589 0.06979631
v 0.01972065 0.02579902 0.06676341
v 0.01783955 0.02636647 0.06845985
v 0.01783955 0.01516837 0.05130306
v 0.01940445 0.01153623 0.05130306
v 0.02506228 0.00245948 0.05130306
v 0.03393219 0.00245948 0.07096313
v 0.03417096 0.00314185 0.06966804
v 0.03432100 0.00444195 0.06991630
v 0.03398705 0.00245948 0.07053281
v 0.03373537 0.00493039 0.06789712
v 0.03341594 0.00576599 0.06799850
v 0.02323603 0.02450850 0.06719786
v 0.02270526 0.02466173 0.06603311
v 0.02211479 0.02507355 0.06586347
v 0.02109680 0.02423076 0.06244783
v 0.02085319 0.02508313 0.06468423
v 0.01783955 0.02634252 0.06838537
v 0.01933508 0.02425710 0.06209613
v 0.01783955 0.01854432 0.05130306
v 0.02513972 0.00285214 0.05130306
v 0.02876319 0.00373563 0.05681027
v 0.02980538 0.00285693 0.05917494
v 0.02906326 0.00245948 0.05821088
v 0.03374344 0.00306523 0.06811435
v 0.03402093 0.00397506 0.06840192
v 0.03395962 0.00245948 0.06997216
v 0.03375796 0.00245948 0.06911566
v 0.03299648 0.00410196 0.06536074
v 0.03240601 0.00444434 0.06390015
v 0.03291098 0.00512193 0.06577865
v 0.02235517 0.02324192 0.06295469
v 0.02192119 0.02343586 0.06212923
v 0.02175825 0.02436484 0.06358775
v 0.02144366 0.02341191 0.06121688
v 0.02074832 0.02306235 0.05976663
v 0.02053376 0.02401527 0.06152514
v 0.01783955 0.02629224 0.06823848
v 0.01970129 0.02313896 0.05931149
v 0.01804444 0.02256912 0.05798744
v 0.01783955 0.02557874 0.06621516
v 0.01783955 0.01940626 0.05238299
v 0.01919149 0.02038792 0.05468766
v 0.01829934 0.01813729 0.05130306
v 0.02518005 0.00313946 0.05130306
v 0.02991992 0.00359677 0.05888945
v 0.02922782 0.00427675 0.05758609
v 0.03087015 0.00359437 0.06073277
v 0.03147514 0.00284735 0.06261541
v 0.03108634 0.00245948 0.06231750
v 0.02973600 0.00245948 0.05954527
v 0.03289000 0.00312988 0.06578071
v 0.03361115 0.00245948 0.06854260
v 0.03329817 0.00245948 0.06771713
v 0.03180587 0.00364226 0.06272712
v 0.03103148 0.00424562 0.06089000
v 0.03132510 0.00475321 0.06186442
v 0.03221080 0.00539727 0.06447943
v 0.02176793 0.02265053 0.06069347
v 0.02100968 0.02244941 0.05918322
v 0.02001589 0.02212139 0.05765229
v 0.01920279 0.02222674 0.05731300
v 0.01783955 0.02146535 0.05563105
v 0.01783955 0.02223871 0.05727783
v 0.01783955 0.02249011 0.05786124
v 0.01783955 0.02268644 0.05838465
v 0.01783955 0.02051243 0.05392840
v 0.01915761 0.02147493 0.05605102
v 0.02021432 0.02138155 0.05694268
v 0.02032242 0.02034004 0.05613377
v 0.01865749 0.01750041 0.05130306
v 0.02505744 0.00449941 0.05130306
v 0.03006996 0.00493278 0.05957630
v 0.02449440 0.00597190 0.05130306
v 0.02124845 0.02167126 0.05873635
v 0.03216241 0.00245948 0.06482698
v 0.03156548 0.00245948 0.06334157
v 0.01783955 0.02059144 0.05406081
f 1 2 3
f 1 3 4
f 1 4 5
f 1 5 6
f 1 6 7
f 1 7 2
f 2 8 9
f 2 9 10
f 2 10 3
f 2 7 6
f 2 6 8
f 3 10 11
f 3 11 21
f 3 21 37
f 3 37 36
f 3 36 35
f 3 35 34
f 3 34 54
f 3 54 53
f 3 53 52
f 3 52 70
f 3 70 72
f 3 72 87
f 3 87 107
f 3 107 110
f 3 110 135
f 3 135 134
f 3 134 133
f 3 133 132
f 3 132 147
f 3 147 136
f 3 136 111
f 3 111 89
f 3 89 73
f 3 73 56
f 3 56 38
f 3 38 22
f 3 22 12
f 3 12 5
f 3 5 4
f 5 12 13
f 5 13 6
f 6 13 14
f 6 14 8
f 8 15 16
f 8 16 17
f 8 17 9
f 8 14 15
f 9 18 10
f 9 17 18
f 10 18 19
f 10 19 20
f 10 20 11
f 11 20 21
f 12 22 23
f 12 23 13
f 13 23 41
f 13 41 40
f 13 40 60
f 13 60 59
f 13 59 58
f 13 58 75
f 13 75 93
f 13 93 120
f 13 120 119
f 13 119 146
f 13 146 145
f 13 145 123
f 13 123 122
f 13 122 97
f 13 97 96
f 13 96 79
f 13 79 76
f 13 76 61
f 13 61 42
f 13 42 24
f 13 24 25
f 13 25 14
f 14 25 26
f 14 26 15
f 15 26 16
f 16 27 17
f 16 26 28
f 16 28 29
f 16 29 27
f 17 27 18
f 18 27 30
f 18 30 31
f 18 31 19
f 19 31 32
f 19 32 33
f 19 33 20
f 20 33 34
f 20 34 35
f 20 35 36
f 20 36 37
f 20 37 21
f 22 38 39
f 22 39 40
f 22 40 41
f 22 41 23
f 24 42 43
f 24 43 25
f 25 43 44
f 25 44 26
f 26 44 45
f 26 45 28
f 27 46 47
f 27 47 30
f 27 29 48
f 27 48 46
f 28 45 29
f 29 45 49
f 29 49 48
f 30 50 31
f 30 47 50
f 31 51 32
f 31 50 51
f 32 52 53
f 32 53 54
f 32 54 33
f 32 51 55
f 32 55 52
f 33 54 34
f 38 56 57
f 38 57 39
f 39 57 58
f 39 58 59
f 39 59 60
f 39 60 40
f 42 61 43
f 43 62 63
f 43 63 49
f 43 49 45
f 43 45 44
f 43 61 62
f 46 48 64
f 46 64 47
f 47 64 65
f 47 65 66
f 47 66 50
f 48 49 63
f 48 63 64
f 50 67 51
f 50 66 68
f 50 68 67
f 51 67 69
f 51 69 55
f 52 55 70
f 55 69 71
f 55 71 72
f 55 72 70
f 56 73 57
f 57 74 58
f 57 73 74
f 58 74 73
f 58 73 89
f 58 89 113
f 58 113 140
f 58 140 143
f 58 143 141
f 58 141 114
f 58 114 90
f 58 90 75
f 61 76 62
f 62 77 78
f 62 78 63
f 62 76 79
f 62 79 77
f 63 78 64
f 64 78 80
f 64 80 81
f 64 81 82
f 64 82 66
f 64 66 65
f 66 82 83
f 66 83 68
f 67 68 84
f 67 84 85
f 67 85 86
f 67 86 69
f 68 83 84
f 69 86 71
f 71 87 72
f 71 86 88
f 71 88 87
f 75 90 91
f 75 91 92
f 75 92 93
f 77 94 95
f 77 95 78
f 77 79 96
f 77 96 97
f 77 97 94
f 78 95 80
f 80 95 98
f 80 98 99
f 80 99 100
f 80 100 81
f 81 100 101
f 81 101 82
f 82 101 83
f 83 101 102
f 83 102 103
f 83 103 84
f 84 103 85
f 85 103 104
f 85 104 105
f 85 105 106
f 85 106 86
f 86 106 88
f 87 88 107
f 88 106 108
f 88 108 109
f 88 109 110
f 88 110 107
f 89 111 112
f 89 112 113
f 90 114 91
f 91 115 92
f 91 114 116
f 91 116 115
f 92 115 117
f 92 117 118
f 92 118 119
f 92 119 120
f 92 120 93
f 94 121 98
f 94 98 95
f 94 97 122
f 94 122 123
f 94 123 121
f 98 121 124
f 98 124 99
f 99 125 126
f 99 126 127
f 99 127 100
f 99 124 125
f 100 127 128
f 100 128 101
f 101 128 102
f 102 128 104
f 102 104 103
f 104 128 129
f 104 129 105
f 105 129 130
f 105 130 131
f 105 131 108
f 105 108 106
f 108 131 109
f 109 131 132
f 109 132 133
f 109 133 134
f 109 134 135
f 109 135 110
f 111 136 137
f 111 137 112
f 112 137 130
f 112 130 138
f 112 138 113
f 113 138 139
f 113 139 140
f 114 141 116
f 115 116 125
f 115 125 117
f 116 142 125
f 116 141 143
f 116 143 139
f 116 139 144
f 116 144 142
f 117 124 118
f 117 125 124
f 118 145 146
f 118 146 119
f 118 124 121
f 118 121 145
f 121 123 145
f 125 142 126
f 126 142 128
f 126 128 127
f 128 144 129
f 128 142 144
f 129 144 138
f 129 138 130
f 130 137 131
f 131 137 136
f 131 136 147
f 131 147 132
f 138 144 139
f 139 143 140

