# https://github.com/mikedh/trimesh
v -0.02601986 0.03373102 -0.03316303
v -0.03415780 0.02618287 -0.02932707
v -0.03517979 0.02617548 -0.02932707
v -0.03557111 0.02617548 -0.02932707
v -0.02601986 0.03518154 -0.03316303
v -0.02329581 0.03466684 -0.03316303
v -0.03415780 0.02617548 -0.02931980
v -0.02001708 0.03585140 -0.03316303
v -0.01792751 0.03664192 -0.03316303
v -0.02601986 0.02421272 0.00398213
v -0.03555591 0.02617548 -0.02924708
v -0.03553692 0.02648824 -0.02932707
v -0.03532416 0.02838205 -0.02932707
v -0.03525957 0.02890907 -0.02932707
v -0.03506961 0.03017243 -0.02932707
v -0.03489105 0.03109594 -0.02932707
v -0.03481127 0.03125109 -0.02932707
v -0.03469729 0.03144072 -0.02932707
v -0.03435536 0.03166728 -0.02932707
v -0.00171621 0.04846777 -0.03316303
v 0.00324178 0.04663306 -0.03316303
v 0.00324178 0.03602379 0.00398213
v -0.01218688 0.02838944 0.00398213
v -0.01394212 0.02784765 0.00398213
v -0.02628960 0.02617548 0.00398213
v -0.02663913 0.02617548 0.00336765
v -0.02737998 0.02617548 0.00194235
v -0.02822341 0.02617548 -0.00024288
v -0.02837158 0.02617548 -0.00066829
v -0.03402102 0.02617548 -0.02230963
v -0.03487205 0.02617548 -0.02573836
v -0.03515700 0.02617548 -0.02716366
v -0.03479227 0.02795601 -0.02628375
v -0.03503162 0.02962571 -0.02858169
v -0.03479227 0.03109594 -0.02882530
v -0.03448073 0.03125601 -0.02788722
v -0.03403242 0.03172639 -0.02865441
v -0.03389945 0.03190863 -0.02932707
v -0.00015473 0.04930262 -0.03316303
v 0.00324178 0.04824120 -0.03316303
v 0.00324178 0.03760237 0.00398213
v -0.02616803 0.02623705 0.00398213
v -0.02776370 0.02769004 -0.00306803
v -0.02894906 0.02784026 -0.00543142
v -0.02756234 0.02640697 0.00100426
v -0.02846276 0.02712608 -0.00258808
v -0.02945436 0.02777623 -0.00640222
v -0.03048395 0.02804467 -0.00970733
v -0.02897565 0.02658183 -0.00312257
v -0.03369809 0.02671235 -0.02127337
v -0.03439715 0.03056400 -0.02639647
v -0.03371709 0.02911840 -0.02252779
v -0.03397543 0.02998527 -0.02421125
v -0.03321559 0.03016751 -0.02156789
v -0.03377027 0.03100974 -0.02510933
v -0.00012814 0.04883225 -0.03062875
v -0.00037509 0.04914993 -0.03257400
v 0.00005423 0.04936911 -0.03316303
v 0.00324178 0.04816239 -0.03281397
v 0.00297203 0.04836433 -0.03316303
v 0.00119399 0.04912530 -0.03288306
v 0.00324178 0.03793730 0.00291679
v 0.00250473 0.03804073 0.00398213
v 0.00079128 0.03871304 0.00398213
v 0.00035057 0.04087283 -0.00332619
v -0.00005595 0.04653455 -0.02246234
v -0.02960633 0.02848549 -0.00874379
v -0.03147174 0.02970452 -0.01617573
v -0.03261152 0.03022907 -0.02003714
v -0.03044216 0.02836235 -0.01018001
v -0.00012054 0.04786687 -0.02712003
v -0.03225819 0.02966758 -0.01780465
v -0.03181748 0.03059109 -0.01990625
v -0.03261911 0.03142102 -0.02452394
v 0.00020620 0.04866478 -0.02976702
v 0.00023659 0.04930262 -0.03231948
v 0.00117500 0.04916963 -0.03316303
v 0.00324178 0.04773142 -0.03115597
v 0.00248573 0.04821411 -0.03150865
v 0.00087866 0.04866232 -0.03049422
v 0.00324178 0.03871797 0.00032070
v 0.00284286 0.03835842 0.00232412
v 0.00157012 0.03907014 0.00203325
v 0.00229577 0.03814170 0.00398213
v 0.00269469 0.04044924 -0.00445334
v 0.00092425 0.03867610 0.00398213
v 0.00096224 0.04088267 -0.00333346
v 0.00051013 0.04212880 -0.00730395
v 0.00062411 0.04000103 -0.00030105
v 0.00024799 0.04554209 -0.01883000
v 0.00021759 0.04718471 -0.02448031
v 0.00059752 0.04757874 -0.02622194
v 0.00285046 0.04534261 -0.02184786
v 0.00324178 0.04549776 -0.02312409
v 0.00146754 0.04726597 -0.02628012
v 0.00324178 0.03979170 -0.00331164
v 0.00162711 0.03844707 0.00398213
v 0.00145614 0.04173723 -0.00683127
v 0.00324178 0.04174708 -0.00996912
v 0.00259211 0.04353254 -0.01490678
v 0.00207921 0.04266566 -0.01104537
v 0.00088626 0.04356455 -0.01245976
v 0.00058232 0.04500769 -0.01707746
v 0.00124718 0.04432059 -0.01547399
v 0.00324178 0.04344634 -0.01588486
v 0.00168030 0.04507172 -0.01880455
v 0.00324178 0.04203029 -0.01094720
f 1 2 3
f 1 3 4
f 1 4 5
f 1 5 20
f 1 20 39
f 1 39 58
f 1 58 77
f 1 77 60
f 1 60 40
f 1 40 21
f 1 21 9
f 1 9 8
f 1 8 6
f 1 6 2
f 2 7 3
f 2 6 8
f 2 8 9
f 2 9 7
f 3 7 10
f 3 10 4
f 4 11 12
f 4 12 5
f 4 10 11
f 5 12 13
f 5 13 14
f 5 14 15
f 5 15 16
f 5 16 17
f 5 17 18
f 5 18 19
f 5 19 20
f 7 9 21
f 7 21 22
f 7 22 23
f 7 23 24
f 7 24 10
f 10 25 26
f 10 26 27
f 10 27 28
f 10 28 29
f 10 29 30
f 10 30 31
f 10 31 32
f 10 32 11
f 10 24 23
f 10 23 22
f 10 22 41
f 10 41 63
f 10 63 84
f 10 84 97
f 10 97 86
f 10 86 64
f 10 64 42
f 10 42 25
f 11 32 12
f 12 32 33
f 12 33 13
f 13 33 34
f 13 34 14
f 14 34 15
f 15 34 16
f 16 34 35
f 16 35 17
f 17 35 18
f 18 35 36
f 18 36 19
f 19 37 38
f 19 38 39
f 19 39 20
f 19 36 37
f 21 40 59
f 21 59 78
f 21 78 94
f 21 94 105
f 21 105 107
f 21 107 99
f 21 99 96
f 21 96 81
f 21 81 62
f 21 62 41
f 21 41 22
f 25 42 43
f 25 43 44
f 25 44 26
f 26 45 27
f 26 44 46
f 26 46 45
f 27 45 46
f 27 46 28
f 28 46 47
f 28 47 48
f 28 48 29
f 29 48 49
f 29 49 30
f 30 50 33
f 30 33 31
f 30 49 50
f 31 33 32
f 33 51 34
f 33 50 52
f 33 52 53
f 33 53 51
f 34 51 35
f 35 51 36
f 36 51 54
f 36 54 55
f 36 55 37
f 37 55 56
f 37 56 57
f 37 57 38
f 38 57 39
f 39 57 58
f 40 60 61
f 40 61 59
f 41 62 63
f 42 64 65
f 42 65 43
f 43 65 66
f 43 66 44
f 44 67 68
f 44 68 69
f 44 69 70
f 44 70 47
f 44 47 46
f 44 66 71
f 44 71 67
f 47 70 48
f 48 70 72
f 48 72 54
f 48 54 53
f 48 53 52
f 48 52 49
f 49 52 50
f 51 53 54
f 54 72 69
f 54 69 55
f 55 69 73
f 55 73 74
f 55 74 56
f 56 71 75
f 56 75 76
f 56 76 57
f 56 74 73
f 56 73 71
f 57 76 58
f 58 76 77
f 59 61 79
f 59 79 78
f 60 77 61
f 61 77 76
f 61 76 80
f 61 80 79
f 62 81 82
f 62 82 63
f 63 83 84
f 63 82 85
f 63 85 83
f 64 86 87
f 64 87 88
f 64 88 89
f 64 89 65
f 65 89 88
f 65 88 90
f 65 90 66
f 66 90 91
f 66 91 71
f 67 71 68
f 68 71 73
f 68 73 69
f 69 72 70
f 71 91 75
f 75 91 92
f 75 92 80
f 75 80 76
f 78 93 94
f 78 79 93
f 79 80 95
f 79 95 93
f 80 92 95
f 81 96 85
f 81 85 82
f 83 97 84
f 83 85 98
f 83 98 87
f 83 87 86
f 83 86 97
f 85 96 99
f 85 99 100
f 85 100 101
f 85 101 98
f 87 102 103
f 87 103 88
f 87 98 102
f 88 103 90
f 90 103 91
f 91 103 92
f 92 103 104
f 92 104 95
f 93 100 94
f 93 95 100
f 94 100 105
f 95 106 100
f 95 104 106
f 98 101 104
f 98 104 102
f 99 107 100
f 100 107 105
f 100 106 104
f 100 104 101
f 102 104 103

