# https://github.com/mikedh/trimesh
v -0.01152642 0.01821822 0.05130151
v -0.01152642 0.02189661 0.03539838
v -0.01592770 0.02074196 0.03539838
v -0.01458040 0.01735429 0.05130151
v -0.01152642 0.01679758 0.05130151
v -0.01152642 0.02082444 0.03539838
v -0.01746319 0.02023886 0.03539838
v -0.01859357 0.01962236 0.03539838
v -0.01567811 0.01649449 0.05130151
v -0.01152642 0.01682026 0.05058543
v -0.01780034 0.00083245 0.05130151
v -0.01777421 0.00083245 0.05027253
v -0.01152642 0.01743058 0.04464355
v -0.01795324 0.00083245 0.04782386
v -0.01829562 0.00083245 0.04560091
v -0.01829954 0.00083245 0.04559001
v -0.02346400 0.00083245 0.03539838
v -0.01863800 0.01957906 0.03539838
v -0.01925088 0.01859760 0.03539838
v -0.02487664 0.00083245 0.03539838
v -0.02003758 0.00228401 0.05130151
v -0.01152642 0.01724501 0.04533316
v -0.02012383 0.00083245 0.05130151
v -0.02014212 0.00091080 0.05130151
v -0.02012383 0.00127781 0.05130151
f 1 2 3
f 1 3 4
f 1 4 9
f 1 9 21
f 1 21 25
f 1 25 24
f 1 24 23
f 1 23 11
f 1 11 5
f 1 5 10
f 1 10 22
f 1 22 13
f 1 13 6
f 1 6 2
f 2 6 17
f 2 17 20
f 2 20 19
f 2 19 18
f 2 18 8
f 2 8 7
f 2 7 3
f 3 7 4
f 4 7 8
f 4 8 9
f 5 11 12
f 5 12 10
f 6 13 14
f 6 14 15
f 6 15 16
f 6 16 17
f 8 18 9
f 9 18 19
f 9 19 20
f 9 20 21
f 10 12 22
f 11 23 20
f 11 20 17
f 11 17 16
f 11 16 15
f 11 15 14
f 11 14 12
f 12 14 22
f 13 22 14
f 20 23 24
f 20 24 25
f 20 25 21

