# https://github.com/mikedh/trimesh
v -0.01519641 -0.01340894 0.05443626
v -0.01257192 -0.01340894 0.05443626
v -0.01505988 -0.01382406 0.05443626
v -0.01613265 -0.01519993 0.05666881
v -0.01585091 -0.01340894 0.05553029
v -0.00399628 -0.01796474 0.05751202
v -0.00477647 -0.01699484 0.05443626
v -0.01606113 -0.01340894 0.06081015
v -0.01492334 -0.01403553 0.05443626
v -0.01565369 -0.01558633 0.05627211
v -0.01681532 -0.01646616 0.05840504
v -0.01708622 -0.01532264 0.05833744
v -0.01807230 -0.01528087 0.06081015
v -0.01805713 -0.01502501 0.06081015
v -0.01674597 -0.01340894 0.05778419
v 0.00050502 -0.02398649 0.07225931
v 0.00126787 -0.01986930 0.05443626
v -0.01773421 -0.01340894 0.06081015
v -0.01904971 -0.01719065 0.07238740
v -0.01820667 -0.01719065 0.07238206
v -0.01772121 -0.01719065 0.07230912
v -0.01741997 -0.01719065 0.07210455
v -0.01500136 -0.01799216 0.07216325
v -0.01301837 -0.01860177 0.07192310
v -0.01105488 -0.01939806 0.07208854
v -0.00223434 -0.02266283 0.07193021
v -0.01419083 -0.01512553 0.05443626
v -0.01464811 -0.01518557 0.05493258
v -0.01555617 -0.01687736 0.05714200
v -0.01789242 -0.01694524 0.06081015
v -0.01761285 -0.01615417 0.05964673
v -0.01587692 -0.01719065 0.05783222
v -0.01634503 -0.01764884 0.05884087
v -0.01703637 -0.01719065 0.05945638
v -0.01816982 -0.01773760 0.06197712
v -0.01807447 -0.01552497 0.06081015
v -0.01924259 -0.01719065 0.06456368
v -0.01991226 -0.01719065 0.06699370
v -0.02087233 -0.01719065 0.07055866
v -0.01787725 -0.01407077 0.06081015
v -0.01766703 -0.01340894 0.06055398
v -0.00146931 -0.02314452 0.07220595
v 0.00126787 -0.02457522 0.07254750
v 0.00126787 -0.02456217 0.07253149
v 0.00126787 -0.02430500 0.07184304
v 0.00126787 -0.02196053 0.05443626
v -0.02081598 -0.01719065 0.07096248
v -0.02076831 -0.01719065 0.07116883
v -0.02074013 -0.01719065 0.07124888
v -0.02045406 -0.01719065 0.07168116
v -0.01995994 -0.01719065 0.07208498
v -0.01986241 -0.01719065 0.07215080
v -0.01973671 -0.01719065 0.07219528
v -0.01890884 -0.01763448 0.07236250
v -0.01701037 -0.01860177 0.07241764
v 0.00126787 -0.02503733 0.07260977
v -0.01310939 -0.01868140 0.07217392
v -0.00394210 -0.02209890 0.07208320
v -0.01338029 -0.01599100 0.05443626
v -0.01385924 -0.01681731 0.05564592
v -0.01529827 -0.01719065 0.05724162
v -0.01834537 -0.01719065 0.06200736
v -0.01805279 -0.01640219 0.06081015
v -0.01450291 -0.01815663 0.05755293
v -0.01616299 -0.01864354 0.05997939
v -0.01727043 -0.01795821 0.06057177
v -0.01816766 -0.01875320 0.06324550
v -0.01891968 -0.01864876 0.06502798
v -0.01922092 -0.01748958 0.06463128
v -0.01896302 -0.01719065 0.06369201
v -0.02052341 -0.01829109 0.07035587
v -0.02069679 -0.01746739 0.07117239
v -0.01984507 -0.01844512 0.06790806
v 0.00088428 -0.02186132 0.05443626
v 0.00126787 -0.02276595 0.05619028
v -0.02030669 -0.01764623 0.07166871
v -0.01912990 -0.01920616 0.07183237
v -0.01810481 -0.01945027 0.07215970
v -0.01627352 -0.01989280 0.07233047
v -0.01399145 -0.02003247 0.07244966
v 0.00027312 -0.02488199 0.07260087
v 0.00126787 -0.02530232 0.07260265
v -0.01259793 -0.01663325 0.05443626
v -0.01254158 -0.01719065 0.05494325
v -0.01403912 -0.01719065 0.05617782
v -0.01286016 -0.01719065 0.05520297
v -0.01473046 -0.01893203 0.05899386
v -0.01252424 -0.01731597 0.05505710
v -0.01214932 -0.01786945 0.05550183
v -0.01557351 -0.01943591 0.06081904
v -0.01721408 -0.01925446 0.06240584
v -0.01826301 -0.01959386 0.06510625
v -0.01944631 -0.01958342 0.06873882
v -0.01998161 -0.01932234 0.07080416
v -0.01360351 -0.01925969 0.05885511
v -0.01141897 -0.01738254 0.05443626
v 0.00126787 -0.02482324 0.06092578
v -0.01944198 -0.01975051 0.07115638
v -0.01835837 -0.02035621 0.07134139
v -0.01640571 -0.02070083 0.07181814
v -0.01456792 -0.02081962 0.07213657
v 0.00126787 -0.02595501 0.07226465
v -0.01188275 -0.01714365 0.05443626
v -0.01179173 -0.01719065 0.05443626
v -0.01584657 -0.02009122 0.06285947
v -0.01705371 -0.01998679 0.06388769
v -0.01407163 -0.01976618 0.06040811
v -0.01870946 -0.02030269 0.06816601
v -0.01888283 -0.02065645 0.07048751
v 0.00126787 -0.02548377 0.06283812
v -0.01765836 -0.02123212 0.07065295
v 0.00126787 -0.02637273 0.07184304
v 0.00126787 -0.02608294 0.07214724
v 0.00126787 -0.02579576 0.06381297
v 0.00126787 -0.02615474 0.06502442
v -0.01756300 -0.02064862 0.06696345
v -0.01564719 -0.02080918 0.06526636
v -0.01824134 -0.02103632 0.07016730
v -0.01660943 -0.02158197 0.07027759
v 0.00126787 -0.02670692 0.07099628
v 0.00126787 -0.02646542 0.07164559
v 0.00126787 -0.02647978 0.06685138
v -0.01675030 -0.02126607 0.06853958
v 0.00126787 -0.02668211 0.06888291
v 0.00126787 -0.02672780 0.06988445
v 0.00126787 -0.02674346 0.07067607
f 1 2 7
f 1 7 17
f 1 17 46
f 1 46 74
f 1 74 96
f 1 96 104
f 1 104 103
f 1 103 83
f 1 83 59
f 1 59 27
f 1 27 9
f 1 9 3
f 1 3 4
f 1 4 5
f 1 5 15
f 1 15 41
f 1 41 18
f 1 18 8
f 1 8 2
f 2 6 7
f 2 8 6
f 3 9 10
f 3 10 4
f 4 10 11
f 4 11 12
f 4 12 5
f 5 12 13
f 5 13 14
f 5 14 15
f 6 16 17
f 6 17 7
f 6 8 16
f 8 18 19
f 8 19 20
f 8 20 21
f 8 21 22
f 8 22 23
f 8 23 24
f 8 24 25
f 8 25 26
f 8 26 16
f 9 27 28
f 9 28 10
f 10 28 29
f 10 29 11
f 11 30 31
f 11 31 12
f 11 29 32
f 11 32 33
f 11 33 34
f 11 34 35
f 11 35 30
f 12 31 36
f 12 36 13
f 13 36 37
f 13 37 14
f 14 37 38
f 14 38 39
f 14 39 40
f 14 40 15
f 15 40 41
f 16 26 42
f 16 42 43
f 16 43 44
f 16 44 45
f 16 45 17
f 17 45 44
f 17 44 43
f 17 43 56
f 17 56 82
f 17 82 102
f 17 102 113
f 17 113 112
f 17 112 121
f 17 121 120
f 17 120 126
f 17 126 125
f 17 125 124
f 17 124 122
f 17 122 115
f 17 115 114
f 17 114 110
f 17 110 97
f 17 97 75
f 17 75 46
f 18 41 40
f 18 40 39
f 18 39 47
f 18 47 48
f 18 48 49
f 18 49 50
f 18 50 51
f 18 51 52
f 18 52 53
f 18 53 19
f 19 53 54
f 19 54 55
f 19 55 56
f 19 56 20
f 20 56 43
f 20 43 21
f 21 43 57
f 21 57 23
f 21 23 22
f 23 57 24
f 24 57 25
f 25 57 58
f 25 58 26
f 26 58 42
f 27 29 28
f 27 59 29
f 29 59 60
f 29 60 61
f 29 61 32
f 30 35 62
f 30 62 63
f 30 63 31
f 31 63 36
f 32 61 33
f 33 61 64
f 33 64 65
f 33 65 66
f 33 66 34
f 34 66 35
f 35 67 68
f 35 68 69
f 35 69 62
f 35 66 67
f 36 63 70
f 36 70 37
f 37 69 38
f 37 70 69
f 38 69 39
f 39 71 72
f 39 72 47
f 39 69 73
f 39 73 71
f 42 58 57
f 42 57 43
f 46 75 74
f 47 72 48
f 48 72 49
f 49 72 50
f 50 72 76
f 50 76 51
f 51 76 52
f 52 76 77
f 52 77 78
f 52 78 53
f 53 78 54
f 54 78 79
f 54 79 55
f 55 79 80
f 55 80 81
f 55 81 56
f 56 81 82
f 59 83 84
f 59 84 60
f 60 85 61
f 60 84 86
f 60 86 85
f 61 85 64
f 62 70 63
f 62 69 70
f 64 87 65
f 64 85 86
f 64 86 88
f 64 88 89
f 64 89 87
f 65 90 91
f 65 91 66
f 65 87 90
f 66 91 67
f 67 92 68
f 67 91 92
f 68 92 93
f 68 93 73
f 68 73 69
f 71 94 72
f 71 73 93
f 71 93 94
f 72 94 76
f 74 75 95
f 74 95 89
f 74 89 96
f 75 97 95
f 76 94 98
f 76 98 77
f 77 99 78
f 77 98 99
f 78 99 100
f 78 100 79
f 79 100 101
f 79 101 102
f 79 102 82
f 79 82 80
f 80 82 81
f 83 103 84
f 84 103 88
f 84 88 86
f 87 89 95
f 87 95 90
f 88 103 104
f 88 104 89
f 89 104 96
f 90 105 106
f 90 106 91
f 90 95 107
f 90 107 105
f 91 106 92
f 92 108 93
f 92 106 108
f 93 108 109
f 93 109 94
f 94 109 98
f 95 97 107
f 97 110 105
f 97 105 107
f 98 109 99
f 99 109 111
f 99 111 100
f 100 111 112
f 100 112 113
f 100 113 102
f 100 102 101
f 105 110 114
f 105 114 115
f 105 115 106
f 106 116 108
f 106 115 117
f 106 117 116
f 108 116 118
f 108 118 109
f 109 118 111
f 111 119 120
f 111 120 121
f 111 121 112
f 111 118 119
f 115 122 123
f 115 123 116
f 115 116 117
f 116 123 118
f 118 123 119
f 119 123 122
f 119 122 124
f 119 124 125
f 119 125 126
f 119 126 120

