# https://github.com/mikedh/trimesh
v 0.02378487 -0.04025533 0.03379932
v 0.02392210 -0.04033453 0.03388588
v 0.02378487 -0.04024993 0.03385431
v 0.02378487 -0.04001051 0.03294287
v 0.02547840 -0.04114100 0.03422398
v 0.02707692 -0.04202306 0.03568840
v 0.02672856 -0.04177824 0.03637478
v 0.02378487 -0.03988630 0.03419343
v 0.02783245 -0.04196366 0.03857344
v 0.02793198 -0.04183584 0.03913864
v 0.02378487 -0.03987730 0.03274123
v 0.02419054 -0.04015272 0.03288075
v 0.02712065 -0.04172964 0.03485028
v 0.02545879 -0.04080977 0.03344085
v 0.02763640 -0.04191145 0.03539714
v 0.02807524 -0.04206626 0.03586458
v 0.02794103 -0.04227868 0.03714874
v 0.02815818 -0.04099698 0.03913864
v 0.02378487 -0.03975849 0.03411909
v 0.02869203 -0.04200146 0.03911522
v 0.02867695 -0.04199246 0.03913864
v 0.02378487 -0.03931386 0.03221168
v 0.02465049 -0.03932646 0.03196828
v 0.02556888 -0.04029313 0.03276465
v 0.02694270 -0.04110859 0.03380339
v 0.02792142 -0.04126700 0.03422602
v 0.02803151 -0.04183945 0.03539714
v 0.02898157 -0.04140202 0.03539714
v 0.02896197 -0.04192585 0.03678926
v 0.02935557 -0.04187185 0.03842782
v 0.02899364 -0.04026073 0.03913864
v 0.03832085 -0.02403794 0.03539816
v 0.02378487 -0.03535897 0.03104666
v 0.02869354 -0.04199246 0.03913864
v 0.02378487 -0.03877922 0.03179720
v 0.02378487 -0.03794936 0.03126153
v 0.02416942 -0.03789536 0.03114747
v 0.02614344 -0.03725271 0.03059552
v 0.02680849 -0.03870181 0.03148659
v 0.02742075 -0.03999791 0.03264347
v 0.02926659 -0.03954788 0.03300397
v 0.02960439 -0.04020132 0.03398059
v 0.02926357 -0.04119500 0.03525152
v 0.03024983 -0.04084037 0.03632183
v 0.02986377 -0.04147762 0.03776791
v 0.03005077 -0.04102578 0.03913864
v 0.02950034 -0.04151182 0.03913864
v 0.02934953 -0.04015272 0.03913864
v 0.03860436 -0.02389033 0.03539816
v 0.03567274 -0.02533224 0.03043360
v 0.03459147 -0.02594968 0.02981443
v 0.03411795 -0.02624130 0.02976656
v 0.02378487 -0.03501695 0.03070245
v 0.02378487 -0.03746692 0.03103545
v 0.02378487 -0.03632744 0.03056904
v 0.02525220 -0.03586121 0.03013929
v 0.02711010 -0.03505655 0.02956187
v 0.02800436 -0.03603042 0.02996820
v 0.02852765 -0.03857401 0.03173304
v 0.02988489 -0.03746692 0.03141836
v 0.03114862 -0.03741292 0.03220760
v 0.03078820 -0.03978549 0.03479427
v 0.03118482 -0.03868201 0.03371479
v 0.03057557 -0.04020312 0.03539816
v 0.03101139 -0.03970809 0.03539714
v 0.03119386 -0.03964329 0.03589207
v 0.03061025 -0.04060275 0.03766710
v 0.03014578 -0.04092858 0.03913864
v 0.02987584 -0.04010772 0.03913864
v 0.03876271 -0.02397674 0.03539816
v 0.03858024 -0.02404154 0.03487777
v 0.03790614 -0.02441417 0.03328198
v 0.03682488 -0.02485340 0.03174424
v 0.03014729 -0.04010412 0.03913864
v 0.03623071 -0.02593348 0.03079308
v 0.03533494 -0.02649512 0.03007106
v 0.03751707 -0.02514862 0.03230536
v 0.03374546 -0.02716657 0.02921155
v 0.03307590 -0.02727098 0.02929302
v 0.02378487 -0.03526356 0.03050692
v 0.03111545 -0.02954635 0.02897631
v 0.02378487 -0.03579820 0.03046720
v 0.02785205 -0.03376406 0.02916776
v 0.02859702 -0.03457591 0.02937245
v 0.02933445 -0.03597282 0.03021159
v 0.03069319 -0.03570280 0.03058941
v 0.03220123 -0.03527256 0.03115970
v 0.03158595 -0.03749033 0.03276058
v 0.03291001 -0.03531937 0.03177886
v 0.03511477 -0.03331402 0.03219131
v 0.03554455 -0.03283699 0.03231453
v 0.03636191 -0.03192792 0.03254978
v 0.03683996 -0.03162010 0.03341641
v 0.03821831 -0.02985237 0.03488694
v 0.03020459 -0.04085837 0.03913864
v 0.03847769 -0.02941133 0.03539816
v 0.03886827 -0.02883709 0.03539816
v 0.03895272 -0.02435657 0.03539816
v 0.03886676 -0.02466979 0.03481056
v 0.03837062 -0.02513242 0.03356407
v 0.03021665 -0.04081157 0.03913864
v 0.03916988 -0.02524403 0.03539816
v 0.03725316 -0.02724578 0.03196217
v 0.03608292 -0.02795683 0.03080632
v 0.03455377 -0.02760580 0.02964334
v 0.03807655 -0.02664273 0.03299887
v 0.03329758 -0.02905311 0.02916063
v 0.03240180 -0.02936273 0.02887956
v 0.03227211 -0.02861388 0.02890095
v 0.02378487 -0.03547238 0.03047128
v 0.02986981 -0.03128527 0.02880828
v 0.02857591 -0.03238515 0.02907101
v 0.02881870 -0.03261017 0.02889484
v 0.02862718 -0.03283699 0.02894779
v 0.02893935 -0.03283699 0.02893150
v 0.02918968 -0.03330862 0.02900991
v 0.03011562 -0.03359484 0.02926960
v 0.03118934 -0.03362364 0.02966982
v 0.03282104 -0.03347423 0.03038370
v 0.03487499 -0.03281718 0.03145808
v 0.03571798 -0.03158589 0.03149983
v 0.03725316 -0.03026460 0.03266281
v 0.03748238 -0.03070023 0.03351010
v 0.03828617 -0.02942754 0.03403863
v 0.03888033 -0.02881369 0.03539816
v 0.03919099 -0.02550865 0.03539816
v 0.03876421 -0.02673994 0.03424435
v 0.03888486 -0.02879569 0.03539816
v 0.03912313 -0.02749780 0.03539816
v 0.03915932 -0.02688935 0.03539816
v 0.03738737 -0.02872549 0.03235221
v 0.03631968 -0.03007738 0.03146521
v 0.03536962 -0.02982717 0.03060265
v 0.03425820 -0.03015659 0.02992237
v 0.03825148 -0.02837806 0.03350195
v 0.03320257 -0.03185772 0.02982257
v 0.03215147 -0.03131587 0.02918507
v 0.03095258 -0.03067323 0.02873495
v 0.03018800 -0.03200173 0.02881337
v 0.02955010 -0.03283699 0.02893863
v 0.03015181 -0.03283699 0.02905167
v 0.03079423 -0.03283699 0.02924006
v 0.03151809 -0.03283699 0.02950382
v 0.03208813 -0.03283699 0.02973703
v 0.03297335 -0.03283699 0.03016169
v 0.03340767 -0.03283699 0.03043360
v 0.03445877 -0.03168850 0.03052525
v 0.03880946 -0.02821065 0.03462420
f 1 2 3
f 1 3 8
f 1 8 19
f 1 19 33
f 1 33 53
f 1 53 80
f 1 80 110
f 1 110 82
f 1 82 55
f 1 55 54
f 1 54 36
f 1 36 35
f 1 35 22
f 1 22 11
f 1 11 4
f 1 4 5
f 1 5 2
f 2 5 6
f 2 6 7
f 2 7 3
f 3 7 9
f 3 9 10
f 3 10 8
f 4 11 12
f 4 12 5
f 5 13 6
f 5 12 14
f 5 14 13
f 6 15 16
f 6 16 17
f 6 17 7
f 6 13 15
f 7 17 9
f 8 10 18
f 8 18 19
f 9 17 20
f 9 20 21
f 9 21 10
f 10 21 34
f 10 34 47
f 10 47 46
f 10 46 68
f 10 68 95
f 10 95 101
f 10 101 74
f 10 74 69
f 10 69 48
f 10 48 31
f 10 31 18
f 11 22 23
f 11 23 12
f 12 23 24
f 12 24 14
f 13 14 25
f 13 25 26
f 13 26 27
f 13 27 15
f 14 24 25
f 15 27 16
f 16 27 28
f 16 28 29
f 16 29 17
f 17 29 30
f 17 30 20
f 18 31 32
f 18 32 33
f 18 33 19
f 20 30 34
f 20 34 21
f 22 35 23
f 23 35 36
f 23 36 37
f 23 37 38
f 23 38 39
f 23 39 24
f 24 40 25
f 24 39 40
f 25 40 26
f 26 40 41
f 26 41 42
f 26 42 43
f 26 43 27
f 27 43 28
f 28 43 29
f 29 43 44
f 29 44 45
f 29 45 30
f 30 45 46
f 30 46 47
f 30 47 34
f 31 48 49
f 31 49 32
f 32 49 50
f 32 50 51
f 32 51 52
f 32 52 53
f 32 53 33
f 36 54 37
f 37 54 55
f 37 55 56
f 37 56 38
f 38 56 57
f 38 57 58
f 38 58 39
f 39 58 59
f 39 59 40
f 40 59 41
f 41 59 60
f 41 60 61
f 41 61 42
f 42 62 43
f 42 61 63
f 42 63 62
f 43 62 64
f 43 64 44
f 44 64 65
f 44 65 66
f 44 66 67
f 44 67 45
f 45 67 68
f 45 68 46
f 48 69 49
f 49 70 71
f 49 71 72
f 49 72 73
f 49 73 50
f 49 69 74
f 49 74 70
f 50 75 76
f 50 76 51
f 50 73 77
f 50 77 75
f 51 76 78
f 51 78 79
f 51 79 52
f 52 79 53
f 53 79 81
f 53 81 80
f 55 82 56
f 56 82 57
f 57 83 84
f 57 84 58
f 57 82 83
f 58 85 59
f 58 84 85
f 59 85 60
f 60 85 86
f 60 86 87
f 60 87 61
f 61 88 63
f 61 87 89
f 61 89 88
f 62 63 90
f 62 90 91
f 62 91 92
f 62 92 93
f 62 93 65
f 62 65 64
f 63 88 89
f 63 89 90
f 65 93 66
f 66 93 94
f 66 94 67
f 67 95 68
f 67 94 96
f 67 96 97
f 67 97 95
f 70 98 71
f 70 74 98
f 71 98 99
f 71 99 72
f 72 99 100
f 72 100 77
f 72 77 73
f 74 101 102
f 74 102 98
f 75 103 104
f 75 104 76
f 75 77 103
f 76 104 105
f 76 105 78
f 77 100 106
f 77 106 103
f 78 105 107
f 78 107 108
f 78 108 109
f 78 109 79
f 79 109 81
f 80 81 111
f 80 111 112
f 80 112 113
f 80 113 110
f 81 109 111
f 82 110 83
f 83 110 114
f 83 114 115
f 83 115 116
f 83 116 84
f 84 116 117
f 84 117 85
f 85 117 118
f 85 118 86
f 86 118 119
f 86 119 87
f 87 119 120
f 87 120 89
f 89 120 90
f 90 120 91
f 91 120 92
f 92 120 121
f 92 121 122
f 92 122 123
f 92 123 93
f 93 123 94
f 94 123 124
f 94 124 97
f 94 97 96
f 95 97 125
f 95 125 101
f 97 124 125
f 98 102 99
f 99 102 100
f 100 102 126
f 100 126 127
f 100 127 106
f 101 125 128
f 101 128 129
f 101 129 130
f 101 130 126
f 101 126 102
f 103 106 131
f 103 131 104
f 104 131 132
f 104 132 133
f 104 133 105
f 105 133 134
f 105 134 107
f 106 127 135
f 106 135 131
f 107 134 136
f 107 136 137
f 107 137 108
f 108 137 138
f 108 138 109
f 109 138 111
f 110 113 114
f 111 138 113
f 111 113 112
f 113 138 139
f 113 139 115
f 113 115 114
f 115 139 140
f 115 140 116
f 116 140 141
f 116 141 117
f 117 141 142
f 117 142 118
f 118 142 143
f 118 143 144
f 118 144 145
f 118 145 119
f 119 145 146
f 119 146 120
f 120 146 147
f 120 147 121
f 121 147 133
f 121 133 132
f 121 132 122
f 122 132 131
f 122 131 135
f 122 135 124
f 122 124 123
f 124 135 148
f 124 148 125
f 125 148 128
f 126 130 127
f 127 130 129
f 127 129 148
f 127 148 135
f 128 148 129
f 133 147 134
f 134 147 136
f 136 147 145
f 136 145 144
f 136 144 137
f 137 144 143
f 137 143 142
f 137 142 139
f 137 139 138
f 139 142 141
f 139 141 140
f 145 147 146

