# https://github.com/mikedh/trimesh
v 0.02227426 0.03043877 0.00397788
v 0.00324364 0.04344903 -0.01589079
v 0.00324364 0.04203273 -0.01094596
v 0.00324364 0.04175058 -0.00996721
v 0.00324364 0.03979227 -0.00331170
v 0.00324364 0.03872123 0.00031819
v 0.00324364 0.03794162 0.00291827
v 0.00324364 0.03760564 0.00397788
v 0.02227426 0.02929905 0.00397788
v 0.02227426 0.03964934 -0.03240191
v 0.00324364 0.04816569 -0.03281469
v 0.00324364 0.04773319 -0.03115507
v 0.00324364 0.04550016 -0.02312505
v 0.00324364 0.03602228 0.00397788
v 0.01883142 0.02956263 0.00397788
v 0.02227426 0.03697453 -0.03948723
v 0.02227426 0.03991293 -0.03365301
v 0.00324364 0.04825293 -0.03320193
v 0.00697152 0.03377068 0.00397788
v 0.00324364 0.04458318 -0.03948723
v 0.01600710 0.02984478 0.00397788
v 0.02130363 0.03716386 -0.03948723
v 0.02227426 0.03837411 -0.03948723
v 0.01566803 0.02989118 0.00397788
v 0.01427450 0.03012692 0.00397788
v 0.02227426 0.03991478 -0.03368706
v 0.00324364 0.04826221 -0.03327002
v 0.00745590 0.03348483 0.00397788
v 0.00324364 0.04654335 -0.03948723
v 0.00954992 0.04172460 -0.03948723
v 0.01215627 0.03086941 0.00397788
v 0.01086148 0.03152465 0.00397788
v 0.01044603 0.03174740 0.00397788
v 0.02021004 0.03751468 -0.03948723
v 0.01309522 0.03049817 0.00397788
v 0.02227426 0.03841310 -0.03935956
v 0.00324364 0.04743805 -0.03666161
v 0.00324364 0.04773504 -0.03567434
v 0.00324364 0.04788169 -0.03509986
v 0.00324364 0.04824736 -0.03361046
v 0.02227426 0.03862471 -0.03866592
v 0.00992811 0.04155383 -0.03948723
v 0.01300580 0.04024705 -0.03948723
v 0.01921334 0.03785809 -0.03948723
v 0.01570716 0.03918714 -0.03948723
f 1 2 3
f 1 3 4
f 1 4 5
f 1 5 6
f 1 6 7
f 1 7 8
f 1 8 14
f 1 14 19
f 1 19 28
f 1 28 33
f 1 33 32
f 1 32 31
f 1 31 35
f 1 35 25
f 1 25 24
f 1 24 21
f 1 21 15
f 1 15 9
f 1 9 16
f 1 16 23
f 1 23 36
f 1 36 41
f 1 41 26
f 1 26 17
f 1 17 10
f 1 10 11
f 1 11 12
f 1 12 13
f 1 13 2
f 2 13 12
f 2 12 11
f 2 11 18
f 2 18 27
f 2 27 40
f 2 40 39
f 2 39 38
f 2 38 37
f 2 37 29
f 2 29 20
f 2 20 14
f 2 14 8
f 2 8 7
f 2 7 6
f 2 6 5
f 2 5 4
f 2 4 3
f 9 15 16
f 10 17 18
f 10 18 11
f 14 20 19
f 15 21 16
f 16 22 34
f 16 34 44
f 16 44 45
f 16 45 43
f 16 43 42
f 16 42 30
f 16 30 20
f 16 20 29
f 16 29 23
f 16 21 24
f 16 24 25
f 16 25 22
f 17 26 27
f 17 27 18
f 19 20 28
f 20 30 31
f 20 31 32
f 20 32 33
f 20 33 28
f 22 25 35
f 22 35 34
f 23 29 37
f 23 37 36
f 26 38 39
f 26 39 40
f 26 40 27
f 26 41 38
f 30 42 31
f 31 42 43
f 31 43 35
f 34 35 44
f 35 43 45
f 35 45 44
f 36 37 41
f 37 38 41

