# https://github.com/mikedh/trimesh
v -0.01458711 -0.00843589 0.05130151
v -0.01634953 -0.00843589 0.05130151
v -0.01464666 -0.00843589 0.04955472
v -0.01777451 0.00083245 0.05027399
v -0.01779959 0.00083245 0.05130151
v -0.01917965 -0.00187320 0.05130151
v -0.02522850 -0.00044325 0.03539838
v -0.02469257 -0.00154203 0.03539838
v -0.02444184 -0.00197664 0.03539838
v -0.01912010 -0.00843589 0.03539838
v -0.01467800 -0.00843589 0.04865643
v -0.01479292 -0.00843589 0.04627758
v -0.01795316 0.00083245 0.04782508
v -0.02012406 0.00083245 0.05130151
v -0.01953589 -0.00102304 0.05130151
v -0.02525880 -0.00019465 0.03539838
v -0.01990885 -0.00001681 0.05130151
v -0.01775048 -0.00843589 0.03539838
v -0.01829582 0.00083245 0.04560191
v -0.02487748 0.00083245 0.03539838
v -0.02515955 0.00022454 0.03539838
v -0.01816732 -0.00757575 0.03539838
v -0.01830000 0.00083245 0.04559101
v -0.02346504 0.00083245 0.03539838
v -0.01834910 -0.00725909 0.03539838
f 1 2 10
f 1 10 18
f 1 18 12
f 1 12 11
f 1 11 3
f 1 3 4
f 1 4 5
f 1 5 14
f 1 14 17
f 1 17 15
f 1 15 6
f 1 6 2
f 2 6 7
f 2 7 8
f 2 8 9
f 2 9 10
f 3 11 4
f 4 11 12
f 4 12 13
f 4 13 19
f 4 19 23
f 4 23 24
f 4 24 20
f 4 20 14
f 4 14 5
f 6 15 7
f 7 16 21
f 7 21 20
f 7 20 24
f 7 24 25
f 7 25 22
f 7 22 18
f 7 18 10
f 7 10 9
f 7 9 8
f 7 15 17
f 7 17 14
f 7 14 16
f 12 19 13
f 12 18 19
f 14 20 21
f 14 21 16
f 18 22 23
f 18 23 19
f 22 25 23
f 23 25 24

