# https://github.com/mikedh/trimesh
v 0.02877841 -0.02040484 0.00397789
v 0.01707458 -0.02368493 0.00398213
v 0.01773354 -0.02351868 0.00398213
v 0.01997805 -0.02295927 0.00398213
v 0.02330433 -0.02216396 0.00398213
v 0.02332682 -0.02215946 0.00398213
v 0.02877841 -0.02189885 0.00397789
v 0.02877841 -0.02914651 -0.03937213
v 0.02757519 -0.02914651 -0.03937213
v 0.01681370 -0.02376356 0.00398213
v 0.02332682 -0.02294803 0.00398213
v 0.00580257 -0.03345333 0.00398213
v 0.00580257 -0.03404195 0.00223336
v 0.00580257 -0.03635599 -0.00479993
v 0.00580257 -0.03753322 -0.00850970
v 0.00580257 -0.03925191 -0.01396400
v 0.00580257 -0.04049205 -0.01793270
v 0.00580257 -0.04090094 -0.01926550
v 0.00580257 -0.04137274 -0.02093362
v 0.02877841 -0.03185147 -0.03179553
v 0.02877841 -0.02981152 -0.03937213
v 0.02332682 -0.03073040 -0.03938062
v 0.02596265 -0.02974188 -0.03937213
v 0.01557900 -0.02420391 0.00398213
v 0.01609402 -0.02401968 0.00398213
v 0.00580257 -0.03177958 0.00398213
v 0.00580257 -0.04179061 -0.02247016
v 0.00580257 -0.04335428 -0.02905352
v 0.02877841 -0.03170769 -0.03259351
v 0.00580257 -0.04233430 -0.02459246
v 0.00580257 -0.04282182 -0.02660015
v 0.00580257 -0.04047408 -0.03938062
v 0.02332682 -0.03213455 -0.03938062
v 0.02877841 -0.03047653 -0.03717767
v 0.02229903 -0.03111457 -0.03938062
v 0.01550028 -0.02424210 0.00398213
v 0.01808664 -0.03274114 -0.03938062
v 0.01632117 -0.03350051 -0.03938062
v 0.01093930 -0.02724361 0.00398213
v 0.00580257 -0.03921596 -0.03938062
v 0.00580257 -0.04328014 -0.02943978
v 0.02877841 -0.03163804 -0.03286941
v 0.02877841 -0.03055067 -0.03692300
v 0.00580257 -0.04291169 -0.03083201
v 0.01422959 -0.02494080 0.00398213
v 0.01604454 -0.03363980 -0.03938062
v 0.01322879 -0.03509337 -0.03938062
v 0.01162300 -0.02671116 0.00398213
f 1 2 3
f 1 3 4
f 1 4 5
f 1 5 6
f 1 6 11
f 1 11 7
f 1 7 20
f 1 20 29
f 1 29 42
f 1 42 43
f 1 43 34
f 1 34 21
f 1 21 8
f 1 8 9
f 1 9 2
f 2 10 25
f 2 25 24
f 2 24 36
f 2 36 45
f 2 45 48
f 2 48 39
f 2 39 26
f 2 26 12
f 2 12 11
f 2 11 6
f 2 6 5
f 2 5 4
f 2 4 3
f 2 9 10
f 7 11 12
f 7 12 13
f 7 13 14
f 7 14 15
f 7 15 16
f 7 16 17
f 7 17 18
f 7 18 19
f 7 19 20
f 8 21 33
f 8 33 22
f 8 22 9
f 9 22 23
f 9 23 24
f 9 24 25
f 9 25 10
f 12 26 40
f 12 40 32
f 12 32 44
f 12 44 41
f 12 41 28
f 12 28 31
f 12 31 30
f 12 30 27
f 12 27 19
f 12 19 18
f 12 18 17
f 12 17 16
f 12 16 15
f 12 15 14
f 12 14 13
f 19 27 20
f 20 28 29
f 20 27 30
f 20 30 31
f 20 31 28
f 21 32 33
f 21 34 32
f 22 33 32
f 22 32 40
f 22 40 47
f 22 47 46
f 22 46 38
f 22 38 37
f 22 37 35
f 22 35 23
f 23 35 24
f 24 35 37
f 24 37 38
f 24 38 36
f 26 39 40
f 28 41 29
f 29 41 42
f 32 34 43
f 32 43 44
f 36 38 46
f 36 46 47
f 36 47 45
f 39 48 40
f 40 48 45
f 40 45 47
f 41 44 42
f 42 44 43

