# https://github.com/mikedh/trimesh
v 0.00980463 -0.02985558 0.00398213
v 0.00980463 -0.02440297 0.02100271
v 0.00980463 -0.02825753 0.00398213
v 0.02009512 -0.02369829 0.00398213
v 0.03604393 -0.02370214 0.00398455
v 0.03564033 -0.02370214 0.00491938
v 0.03435831 -0.02370214 0.00776744
v 0.03406550 -0.02370214 0.00840680
v 0.03318180 -0.02370214 0.01023770
v 0.03258563 -0.02370214 0.01139776
v 0.03006115 -0.02370214 0.01617359
v 0.03001103 -0.02370214 0.01626562
v 0.02265389 -0.02370214 0.02872107
v 0.02118985 -0.02370214 0.02872107
v 0.00980463 -0.02402688 0.02215066
v 0.00980463 -0.02706509 0.00771658
v 0.01093893 -0.02723709 0.00398213
v 0.02009512 -0.02293071 0.00398213
v 0.03675353 -0.02278182 0.00398455
v 0.03671924 -0.02290761 0.00398455
v 0.03608086 -0.02266373 0.00595592
v 0.03487270 -0.02174084 0.01037817
v 0.03361705 -0.02306035 0.01052348
v 0.03302353 -0.02178063 0.01378568
v 0.03294439 -0.02136091 0.01460667
v 0.03266477 -0.01995540 0.01736997
v 0.02837289 -0.01776819 0.02844256
v 0.02809327 -0.01790040 0.02872107
v 0.02746808 -0.01857042 0.02872107
v 0.02009512 -0.01821103 0.02872349
v 0.01920087 -0.01861278 0.02872349
v 0.01910590 -0.01865257 0.02872349
v 0.01907161 -0.01866541 0.02872349
v 0.01860734 -0.01881815 0.02872349
v 0.01743347 -0.01919039 0.02872349
v 0.00980463 -0.02154959 0.02872349
v 0.00980463 -0.02249173 0.02627502
v 0.00980463 -0.02059333 0.02825123
v 0.01186220 -0.02412957 0.01165205
v 0.01162215 -0.02670441 0.00398213
v 0.01998433 -0.02295638 0.00398213
v 0.03011391 -0.01674390 0.00398455
v 0.03132735 -0.01674390 0.00398455
v 0.03663746 -0.02260854 0.00398455
v 0.03629453 -0.02236338 0.00559264
v 0.03561923 -0.02196675 0.00819853
v 0.03431874 -0.02095658 0.01265226
v 0.03346406 -0.02029426 0.01532353
v 0.03069161 -0.01828034 0.02337368
v 0.02952302 -0.01786446 0.02616120
v 0.02840718 -0.01745372 0.02814709
v 0.02822780 -0.01774894 0.02872107
v 0.02009512 -0.01747810 0.02872349
v 0.00980463 -0.02046883 0.02872349
v 0.01407541 -0.02358790 0.00855938
v 0.01274590 -0.02422969 0.00923749
v 0.01423104 -0.02493437 0.00398213
v 0.01707735 -0.02367775 0.00398213
v 0.02145364 -0.01674390 0.02872107
v 0.01681620 -0.02375862 0.00398213
v 0.01609605 -0.02401276 0.00398213
v 0.01557638 -0.02419760 0.00398213
v 0.01014755 -0.02029811 0.02872349
v 0.01149553 -0.01979752 0.02872349
v 0.03030911 -0.01674390 0.00797088
v 0.03178107 -0.01891314 0.02015023
v 0.03261201 -0.01950486 0.01755646
v 0.03499668 -0.02138786 0.01024739
v 0.03369356 -0.02047139 0.01460667
v 0.03363816 -0.02037128 0.01460667
v 0.02962326 -0.01674390 0.01056465
v 0.02870263 -0.01674390 0.01398669
v 0.02853380 -0.01674390 0.01460667
v 0.02773979 -0.01674390 0.01750560
v 0.02715681 -0.01674390 0.01950845
v 0.02673211 -0.01674390 0.02094217
v 0.02801149 -0.01741393 0.02872107
v 0.02315246 -0.01674390 0.02872107
v 0.01549988 -0.02423867 0.00398213
v 0.02564529 -0.01674390 0.02400335
v 0.02490931 -0.01674390 0.02588995
v 0.02484864 -0.01674390 0.02604495
v 0.02480643 -0.01674390 0.02614425
v 0.02411530 -0.01674390 0.02733336
f 1 2 15
f 1 15 37
f 1 37 36
f 1 36 54
f 1 54 38
f 1 38 16
f 1 16 3
f 1 3 17
f 1 17 40
f 1 40 57
f 1 57 79
f 1 79 62
f 1 62 61
f 1 61 60
f 1 60 58
f 1 58 41
f 1 41 18
f 1 18 4
f 1 4 5
f 1 5 6
f 1 6 7
f 1 7 8
f 1 8 9
f 1 9 10
f 1 10 11
f 1 11 12
f 1 12 13
f 1 13 14
f 1 14 2
f 2 14 15
f 3 16 17
f 4 18 19
f 4 19 20
f 4 20 5
f 5 20 21
f 5 21 6
f 6 21 7
f 7 22 8
f 7 21 22
f 8 22 9
f 9 23 10
f 9 22 23
f 10 23 22
f 10 22 11
f 11 22 24
f 11 24 25
f 11 25 26
f 11 26 12
f 12 26 27
f 12 27 28
f 12 28 29
f 12 29 13
f 13 30 31
f 13 31 32
f 13 32 33
f 13 33 34
f 13 34 35
f 13 35 36
f 13 36 14
f 13 29 30
f 14 36 37
f 14 37 15
f 16 38 17
f 17 39 40
f 17 38 39
f 18 41 42
f 18 42 43
f 18 43 44
f 18 44 19
f 19 44 45
f 19 45 46
f 19 46 20
f 20 46 21
f 21 46 22
f 22 46 47
f 22 47 48
f 22 48 26
f 22 26 25
f 22 25 24
f 26 48 49
f 26 49 50
f 26 50 27
f 27 50 51
f 27 51 52
f 27 52 28
f 28 52 30
f 28 30 29
f 30 52 53
f 30 53 64
f 30 64 63
f 30 63 54
f 30 54 36
f 30 36 35
f 30 35 34
f 30 34 33
f 30 33 32
f 30 32 31
f 38 54 55
f 38 55 56
f 38 56 39
f 39 56 40
f 40 56 57
f 41 58 42
f 42 59 78
f 42 78 84
f 42 84 83
f 42 83 82
f 42 82 81
f 42 81 80
f 42 80 76
f 42 76 75
f 42 75 74
f 42 74 73
f 42 73 72
f 42 72 71
f 42 71 65
f 42 65 43
f 42 58 60
f 42 60 61
f 42 61 62
f 42 62 55
f 42 55 54
f 42 54 63
f 42 63 64
f 42 64 59
f 43 65 51
f 43 51 50
f 43 50 49
f 43 49 66
f 43 66 67
f 43 67 68
f 43 68 45
f 43 45 44
f 45 68 46
f 46 68 47
f 47 69 48
f 47 68 69
f 48 69 70
f 48 70 67
f 48 67 66
f 48 66 49
f 51 65 71
f 51 71 72
f 51 72 73
f 51 73 74
f 51 74 75
f 51 75 76
f 51 76 77
f 51 77 52
f 52 77 53
f 53 77 78
f 53 78 59
f 53 59 64
f 55 62 79
f 55 79 57
f 55 57 56
f 67 70 68
f 68 70 69
f 76 80 77
f 77 80 81
f 77 81 82
f 77 82 83
f 77 83 84
f 77 84 78

