# https://github.com/mikedh/trimesh
v -0.00083620 -0.02136912 0.03539838
v 0.00254776 -0.02385682 0.03539993
v 0.00217256 -0.02377908 0.03539993
v 0.00187861 -0.02370445 0.03539993
v 0.00096093 -0.02317270 0.03539993
v -0.00083620 -0.02203458 0.03539993
v -0.00083620 -0.02087676 0.03539838
v 0.01686508 -0.02501567 0.03539838
v 0.00367575 -0.02566144 0.03900522
v 0.01402121 -0.02566040 0.03598369
v 0.00285604 -0.02566144 0.03950336
v 0.00197899 -0.02566144 0.04025836
v 0.00180692 -0.02566144 0.04050431
v 0.00149864 -0.02566144 0.04104292
v 0.00098005 -0.02534322 0.04139629
v -0.00083620 -0.02401230 0.04246107
v -0.00083620 -0.02068500 0.03594166
v 0.01984517 -0.01527425 0.03539838
v 0.02356848 -0.01760647 0.03539838
v 0.01080692 -0.02566144 0.04660030
v 0.01114150 -0.02566144 0.04589201
v 0.01394474 -0.02566040 0.03673557
v 0.00420867 -0.02566144 0.03885733
v 0.01198988 -0.02566144 0.03797314
v 0.01198988 -0.02566144 0.03695506
v 0.00145801 -0.02566144 0.04120949
v -0.00083620 -0.02418436 0.04363170
v -0.00083620 -0.02410144 0.04279887
v -0.00083620 -0.02024136 0.03774742
v 0.01211415 -0.01527425 0.04581418
v 0.01198988 -0.01515609 0.04769155
v 0.01198988 -0.01507317 0.05130151
v 0.02118585 -0.01527425 0.03539838
v -0.00083620 -0.01960078 0.04047006
v -0.00083620 -0.01938622 0.04146790
v -0.00083620 -0.01900166 0.04333748
v 0.02357804 -0.01746447 0.03539838
v 0.01469036 -0.01527425 0.05130151
v 0.00949253 -0.02566144 0.04731794
v 0.00156316 -0.02566144 0.04175589
v -0.00083620 -0.02379774 0.04612552
v -0.00083620 -0.01870313 0.04501093
v 0.01832764 -0.01527425 0.04330013
v 0.01898484 -0.01527425 0.04162980
v -0.00083620 -0.01905037 0.05130151
v 0.01367230 -0.01590343 0.05130151
v 0.01067310 -0.01752148 0.05130151
v 0.00799412 -0.01895398 0.05130151
v 0.00495190 -0.02034191 0.05130151
v 0.00470336 -0.02044867 0.05130151
v 0.00273894 -0.02103017 0.05130151
v 0.00910538 -0.02566144 0.04737087
v 0.00683746 -0.02566144 0.04669682
v -0.00083620 -0.02342562 0.04702839
v -0.00083620 -0.02132766 0.05130151
v 0.00134091 -0.02117736 0.05130151
v 0.00815185 -0.02566144 0.04739577
v -0.00083620 -0.02134320 0.05128749
v 0.00814229 -0.02566144 0.04739110
f 1 2 3
f 1 3 4
f 1 4 5
f 1 5 6
f 1 6 16
f 1 16 28
f 1 28 27
f 1 27 41
f 1 41 54
f 1 54 58
f 1 58 55
f 1 55 45
f 1 45 42
f 1 42 36
f 1 36 35
f 1 35 34
f 1 34 29
f 1 29 17
f 1 17 7
f 1 7 18
f 1 18 33
f 1 33 37
f 1 37 19
f 1 19 8
f 1 8 2
f 2 9 3
f 2 8 10
f 2 10 9
f 3 9 11
f 3 11 4
f 4 11 12
f 4 12 13
f 4 13 5
f 5 13 6
f 6 13 14
f 6 14 15
f 6 15 16
f 7 17 18
f 8 19 20
f 8 20 21
f 8 21 22
f 8 22 10
f 9 23 25
f 9 25 24
f 9 24 21
f 9 21 20
f 9 20 39
f 9 39 52
f 9 52 57
f 9 57 59
f 9 59 53
f 9 53 40
f 9 40 26
f 9 26 14
f 9 14 13
f 9 13 12
f 9 12 11
f 9 10 23
f 10 22 24
f 10 24 25
f 10 25 23
f 14 26 15
f 15 27 28
f 15 28 16
f 15 26 27
f 17 29 18
f 18 30 31
f 18 31 32
f 18 32 33
f 18 29 34
f 18 34 35
f 18 35 36
f 18 36 30
f 19 37 38
f 19 38 20
f 20 38 39
f 21 24 22
f 26 40 27
f 27 40 41
f 30 36 42
f 30 42 31
f 31 42 32
f 32 38 43
f 32 43 44
f 32 44 33
f 32 42 45
f 32 45 55
f 32 55 56
f 32 56 51
f 32 51 50
f 32 50 49
f 32 49 48
f 32 48 47
f 32 47 46
f 32 46 38
f 33 44 37
f 37 44 43
f 37 43 38
f 38 46 39
f 39 47 48
f 39 48 49
f 39 49 50
f 39 50 51
f 39 51 52
f 39 46 47
f 40 53 41
f 41 53 54
f 51 56 52
f 52 56 55
f 52 55 57
f 53 58 54
f 53 59 58
f 55 58 57
f 57 58 59

