# https://github.com/mikedh/trimesh
v -0.02602321 0.03449819 -0.02932863
v -0.03102177 0.03296300 -0.02932863
v -0.02602321 0.03314653 -0.02932863
v -0.02602321 0.03521358 -0.03240014
v -0.03206329 0.03261467 -0.02932863
v -0.02881862 0.03408993 -0.03138085
v -0.03312682 0.03046710 -0.02932863
v -0.02602321 0.03046710 -0.04327935
v -0.02602321 0.03524963 -0.03267332
v -0.03124915 0.03329355 -0.03147647
v -0.03312131 0.03222561 -0.02932863
v -0.03501274 0.03046710 -0.02932863
v -0.02602321 0.03046710 -0.04677087
v -0.02917069 0.03414518 -0.03274161
v -0.02602321 0.03499446 -0.03445579
v -0.03360907 0.03230941 -0.03082255
v -0.03283893 0.03273312 -0.03217136
v -0.03390246 0.03190677 -0.02932863
v -0.03489172 0.03109400 -0.02932863
v -0.03509067 0.03046710 -0.02972814
v -0.02857750 0.03046710 -0.04488425
v -0.02602321 0.03091656 -0.04589159
v -0.02602321 0.03490879 -0.03475628
v -0.03207704 0.03262076 -0.03375407
v -0.03463684 0.03188383 -0.03171379
v -0.03485505 0.03157343 -0.03036840
v -0.03435629 0.03166613 -0.02932863
v -0.03252904 0.03060194 -0.04010881
v -0.03366224 0.03096806 -0.03704583
v -0.03440855 0.03162258 -0.03332381
v -0.03481378 0.03125131 -0.02932863
v -0.03513468 0.03108838 -0.03056986
v -0.03519977 0.03046710 -0.03039059
v -0.03015353 0.03046710 -0.04344496
v -0.02602321 0.03208281 -0.04334252
v -0.02602321 0.03377109 -0.03856537
v -0.03246120 0.03046710 -0.04067564
v -0.03512367 0.03147417 -0.03166257
v -0.03469918 0.03143999 -0.02932863
v -0.03343029 0.03046710 -0.03910659
v -0.03439296 0.03091749 -0.03556215
v -0.03538406 0.03046710 -0.03164379
v -0.02602321 0.03288435 -0.04114346
v -0.03157737 0.03046710 -0.04176152
v -0.03495498 0.03111741 -0.03314796
v -0.03537672 0.03046710 -0.03175988
v -0.03538772 0.03046710 -0.03169501
v -0.03392079 0.03046710 -0.03800024
v -0.03430036 0.03046710 -0.03658484
v -0.03501549 0.03046710 -0.03352528
f 1 2 5
f 1 5 11
f 1 11 18
f 1 18 27
f 1 27 39
f 1 39 31
f 1 31 19
f 1 19 12
f 1 12 7
f 1 7 3
f 1 3 8
f 1 8 13
f 1 13 22
f 1 22 35
f 1 35 43
f 1 43 36
f 1 36 23
f 1 23 15
f 1 15 9
f 1 9 4
f 1 4 2
f 2 4 6
f 2 6 5
f 3 7 8
f 4 9 10
f 4 10 6
f 5 6 10
f 5 10 11
f 7 12 20
f 7 20 33
f 7 33 42
f 7 42 47
f 7 47 46
f 7 46 50
f 7 50 49
f 7 49 48
f 7 48 40
f 7 40 37
f 7 37 44
f 7 44 34
f 7 34 21
f 7 21 13
f 7 13 8
f 9 14 10
f 9 15 14
f 10 16 11
f 10 14 17
f 10 17 16
f 11 16 18
f 12 19 20
f 13 21 22
f 14 15 23
f 14 23 24
f 14 24 17
f 16 17 25
f 16 25 26
f 16 26 27
f 16 27 18
f 17 24 28
f 17 28 29
f 17 29 30
f 17 30 25
f 19 31 32
f 19 32 20
f 20 32 33
f 21 34 35
f 21 35 22
f 23 36 37
f 23 37 28
f 23 28 24
f 25 30 38
f 25 38 26
f 26 38 32
f 26 32 31
f 26 31 39
f 26 39 27
f 28 37 29
f 29 37 40
f 29 40 41
f 29 41 30
f 30 41 38
f 32 38 42
f 32 42 33
f 34 43 35
f 34 44 36
f 34 36 43
f 36 44 37
f 38 41 45
f 38 45 46
f 38 46 47
f 38 47 42
f 40 48 41
f 41 48 49
f 41 49 45
f 45 50 46
f 45 49 50

