# https://github.com/mikedh/trimesh
v -0.01377135 -0.01908455 0.03539837
v -0.02402364 -0.01167376 0.00887352
v -0.02330793 -0.01113869 0.01178018
v -0.01880919 -0.00969017 0.02929564
v -0.01801293 -0.01001694 0.03180594
v -0.01842810 -0.00881876 0.03190031
v -0.01780224 -0.00856651 0.03490763
v -0.01774338 -0.00846331 0.03539208
v -0.01817094 -0.00757853 0.03539208
v -0.01653194 -0.01424021 0.03539837
v -0.01541965 -0.01908455 0.03539837
v -0.02398955 -0.02070506 0.00397875
v -0.03290647 -0.02070506 -0.02887532
v -0.03304279 -0.02014514 -0.02887532
v -0.03367794 -0.01792458 -0.02887532
v -0.02571530 -0.01208654 0.00297841
v -0.02410109 -0.01079471 0.00997453
v -0.01840331 -0.00756898 0.03438544
v -0.02740698 -0.01216680 -0.00241968
v -0.02755879 -0.01123424 -0.00134384
v -0.01825460 -0.00743330 0.03539208
v -0.01835374 -0.00726322 0.03539208
v -0.01880300 -0.00662686 0.03539208
v -0.01976967 -0.00544205 0.03539208
v -0.02339778 -0.00118248 0.03539208
v -0.01706485 -0.01424021 0.03539837
v -0.01556837 -0.01893167 0.03539837
v -0.01585651 -0.01908455 0.03455531
v -0.02488496 -0.02070506 0.00397875
v -0.03433168 -0.02070506 -0.02887532
v -0.03458574 -0.01613590 -0.02887532
v -0.03353542 -0.01592379 -0.02579250
v -0.03293744 -0.01480395 -0.02257127
v -0.03114043 -0.01450393 -0.01690265
v -0.01939787 -0.00649883 0.03351093
v -0.01939167 -0.00756898 0.03129004
v -0.03087088 -0.01309171 -0.01420990
v -0.02871756 -0.01128583 -0.00479156
v -0.03342698 -0.00118248 0.00398504
v -0.02486947 -0.00118248 0.03539208
v -0.01655983 -0.01594098 0.03539837
v -0.01592158 -0.01802204 0.03539837
v -0.02469596 -0.00154174 0.03539208
v -0.01651025 -0.01908455 0.03296986
v -0.04322691 -0.00500253 -0.02267822
v -0.02938369 -0.02070506 -0.01129695
v -0.01806560 -0.01908455 0.02869795
v -0.01839092 -0.01908455 0.02779827
v -0.01880919 -0.01908455 0.02662176
v -0.01987191 -0.01908455 0.02358927
v -0.02023751 -0.01908455 0.02251972
v -0.02070225 -0.01908455 0.02109156
v -0.02091604 -0.01908455 0.02041208
v -0.02113602 -0.01908455 0.01969485
v -0.04394881 -0.00445408 -0.02401201
v -0.04411612 -0.00539619 -0.02730875
v -0.04502702 -0.00451523 -0.02887532
v -0.03469418 -0.01595436 -0.02887532
v -0.03428521 -0.01424594 -0.02512561
v -0.03265860 -0.01315669 -0.01916129
v -0.03300251 -0.01183620 -0.01765763
v -0.03080582 -0.01187824 -0.01174364
v -0.03151843 -0.01042207 -0.01077475
v -0.04357392 -0.00312594 -0.02887532
v -0.03541918 -0.00118248 0.00398504
v -0.02760837 -0.00118248 0.02782344
v -0.01600213 -0.01780419 0.03539837
v -0.02480750 -0.00193540 0.03453644
v -0.04307819 -0.00453816 -0.02132555
v -0.03227441 -0.00227747 0.01330901
v -0.04314945 -0.00356356 -0.02077820
v -0.04430202 -0.00326545 -0.02432659
v -0.04475127 -0.00418654 -0.02669218
v -0.04510757 -0.00439101 -0.02887532
v -0.03655316 -0.01309553 -0.02887532
v -0.03455166 -0.01227763 -0.02254610
v -0.04535234 -0.00312594 -0.02887532
v -0.03543158 -0.00122452 0.00398504
v -0.03444632 -0.00118248 0.00721257
v -0.04537093 -0.00312594 -0.02873691
v -0.04520982 -0.00312594 -0.02791902
v -0.04495886 -0.00312594 -0.02681801
v -0.04446622 -0.00312594 -0.02496832
v -0.02834266 -0.00118248 0.02572208
v -0.03159278 -0.00194114 0.01561169
v -0.03214428 -0.00146721 0.01433452
v -0.03171672 -0.00118248 0.01582560
v -0.03503809 -0.00141179 0.00545725
v -0.04396740 -0.00312594 -0.02326962
v -0.04515405 -0.00334188 -0.02749120
v -0.04542050 -0.00347565 -0.02875578
v -0.04531206 -0.00382918 -0.02887532
v -0.04539881 -0.00344126 -0.02887532
v -0.03549045 -0.00146339 0.00398504
v -0.03136970 -0.00118248 0.01686369
v -0.04540501 -0.00349285 -0.02887532
f 1 2 3
f 1 3 4
f 1 4 5
f 1 5 6
f 1 6 7
f 1 7 8
f 1 8 9
f 1 9 10
f 1 10 26
f 1 26 41
f 1 41 67
f 1 67 42
f 1 42 27
f 1 27 11
f 1 11 29
f 1 29 12
f 1 12 13
f 1 13 14
f 1 14 15
f 1 15 2
f 2 15 16
f 2 16 3
f 3 17 18
f 3 18 6
f 3 6 4
f 3 16 19
f 3 19 20
f 3 20 17
f 4 6 5
f 6 18 7
f 7 18 9
f 7 9 8
f 9 18 21
f 9 21 10
f 10 21 22
f 10 22 23
f 10 23 24
f 10 24 25
f 10 25 40
f 10 40 26
f 11 27 28
f 11 28 29
f 12 29 46
f 12 46 30
f 12 30 13
f 13 30 57
f 13 57 74
f 13 74 92
f 13 92 96
f 13 96 93
f 13 93 77
f 13 77 64
f 13 64 75
f 13 75 58
f 13 58 31
f 13 31 15
f 13 15 14
f 15 31 32
f 15 32 33
f 15 33 34
f 15 34 16
f 16 34 19
f 17 35 36
f 17 36 18
f 17 20 35
f 18 36 35
f 18 35 23
f 18 23 22
f 18 22 21
f 19 34 37
f 19 37 20
f 20 37 38
f 20 38 39
f 20 39 35
f 23 35 24
f 24 35 25
f 25 35 39
f 25 39 65
f 25 65 79
f 25 79 87
f 25 87 95
f 25 95 84
f 25 84 66
f 25 66 40
f 26 40 41
f 27 42 40
f 27 40 43
f 27 43 28
f 28 43 44
f 28 44 29
f 29 45 46
f 29 44 47
f 29 47 48
f 29 48 49
f 29 49 50
f 29 50 51
f 29 51 52
f 29 52 53
f 29 53 54
f 29 54 45
f 30 45 55
f 30 55 56
f 30 56 57
f 30 46 45
f 31 58 33
f 31 33 32
f 33 58 59
f 33 59 60
f 33 60 37
f 33 37 34
f 37 60 61
f 37 61 62
f 37 62 38
f 38 62 63
f 38 63 64
f 38 64 39
f 39 64 77
f 39 77 65
f 40 66 43
f 40 42 67
f 40 67 41
f 43 66 68
f 43 68 44
f 44 68 47
f 45 69 55
f 45 54 53
f 45 53 52
f 45 52 69
f 47 68 48
f 48 68 70
f 48 70 49
f 49 70 50
f 50 70 69
f 50 69 51
f 51 69 52
f 55 69 71
f 55 71 72
f 55 72 73
f 55 73 56
f 56 73 74
f 56 74 57
f 58 75 59
f 59 76 60
f 59 75 76
f 60 76 61
f 61 63 62
f 61 76 64
f 61 64 63
f 64 76 75
f 65 78 79
f 65 77 80
f 65 80 81
f 65 81 82
f 65 82 83
f 65 83 78
f 66 84 70
f 66 70 68
f 69 70 71
f 70 84 85
f 70 85 86
f 70 86 71
f 71 86 87
f 71 87 88
f 71 88 72
f 72 88 89
f 72 89 83
f 72 83 90
f 72 90 73
f 73 90 91
f 73 91 74
f 74 91 92
f 77 93 91
f 77 91 80
f 78 94 88
f 78 88 79
f 78 83 89
f 78 89 94
f 79 88 87
f 80 91 90
f 80 90 81
f 81 90 82
f 82 90 83
f 84 95 85
f 85 95 86
f 86 95 87
f 88 94 89
f 91 93 96
f 91 96 92

