# https://github.com/mikedh/trimesh
v 0.01114223 -0.02566144 0.04589392
v 0.01168371 -0.02589644 0.04562959
v 0.01079062 -0.02566144 0.04556897
v 0.01080937 -0.02566144 0.04660121
v 0.01359648 -0.02662702 0.04551562
v 0.01322846 -0.02662383 0.04496999
v 0.00981783 -0.02566144 0.04473073
v 0.01109769 -0.02582930 0.04662061
v 0.01424813 -0.02712101 0.04595212
v 0.00949669 -0.02566144 0.04732063
v 0.01550221 -0.02759901 0.04546792
v 0.01470288 -0.02727288 0.04493847
v 0.03014563 -0.04010368 0.03914029
v 0.00868095 -0.02566144 0.04444862
v 0.01314641 -0.02710342 0.04656888
v 0.01638827 -0.02850864 0.04585997
v 0.00910757 -0.02566144 0.04737398
v 0.01000301 -0.02644158 0.04731578
v 0.01072967 -0.02644957 0.04721635
v 0.01426688 -0.02826405 0.04674186
v 0.01807600 -0.02938150 0.04528201
v 0.01656642 -0.02843191 0.04491664
v 0.02651935 -0.03646354 0.04422633
v 0.02744292 -0.03733481 0.04361603
v 0.02730462 -0.03724528 0.04402829
v 0.02948695 -0.03979354 0.04134381
v 0.03021361 -0.04081188 0.03914029
v 0.02987372 -0.04010688 0.03914029
v 0.00843014 -0.02566144 0.04441952
v 0.01717588 -0.03000178 0.04642095
v 0.01850497 -0.03016325 0.04577105
v 0.00815354 -0.02566144 0.04739742
v 0.02043180 -0.03359875 0.04616229
v 0.02221329 -0.03460911 0.04601436
v 0.01847215 -0.03162282 0.04644682
v 0.01351912 -0.02832959 0.04694718
v 0.01594055 -0.02969005 0.04668204
v 0.02003564 -0.03111125 0.04532081
v 0.02475192 -0.03522778 0.04487785
v 0.02445657 -0.03554751 0.04540730
v 0.02621463 -0.03678007 0.04475983
v 0.02749683 -0.03798067 0.04417540
v 0.02829382 -0.03857376 0.04327249
v 0.02907674 -0.03991983 0.04220307
v 0.03016908 -0.04087903 0.03926396
v 0.03020424 -0.04085664 0.03914029
v 0.02934631 -0.04015324 0.03914029
v 0.00819339 -0.02566144 0.04447125
v 0.02899235 -0.04026035 0.03914029
v 0.02815552 -0.04099733 0.03914029
v 0.01936290 -0.03203847 0.04631264
v 0.00684086 -0.02566144 0.04669821
v 0.02267976 -0.03545479 0.04578156
v 0.02379554 -0.03591521 0.04573953
v 0.02379788 -0.03577452 0.04578560
v 0.02423154 -0.03609426 0.04572174
v 0.02573643 -0.03707903 0.04520765
v 0.02798674 -0.03916207 0.04355218
v 0.02672798 -0.03801583 0.04463130
v 0.02969792 -0.04101331 0.04012727
v 0.02825397 -0.04001895 0.04287641
v 0.02875325 -0.04067919 0.04187003
v 0.03004953 -0.04102610 0.03914029
v 0.03014329 -0.04092858 0.03914029
v 0.00714090 -0.02566144 0.04478084
v 0.02792814 -0.04183822 0.03914029
v 0.02379554 -0.03648593 0.04519309
v 0.02452924 -0.03693355 0.04516561
v 0.02379554 -0.03634844 0.04540972
v 0.00668849 -0.02566144 0.04645975
v 0.02809223 -0.04162880 0.04006664
v 0.02429717 -0.03718454 0.04444458
v 0.02672798 -0.03862492 0.04415034
v 0.02879076 -0.04149131 0.04044332
v 0.02949867 -0.04151209 0.03914029
v 0.02779687 -0.04029072 0.04238898
v 0.00632750 -0.02566144 0.04525695
v 0.02867356 -0.04199169 0.03914029
v 0.00627124 -0.02566144 0.04566840
v 0.02868997 -0.04199329 0.03914029
f 1 2 3
f 1 3 7
f 1 7 14
f 1 14 29
f 1 29 48
f 1 48 65
f 1 65 77
f 1 77 79
f 1 79 70
f 1 70 52
f 1 52 32
f 1 32 17
f 1 17 10
f 1 10 4
f 1 4 5
f 1 5 2
f 2 5 6
f 2 6 7
f 2 7 3
f 4 8 9
f 4 9 5
f 4 10 8
f 5 9 11
f 5 11 12
f 5 12 6
f 6 12 13
f 6 13 7
f 7 13 14
f 8 15 9
f 8 10 15
f 9 15 16
f 9 16 11
f 10 17 18
f 10 18 19
f 10 19 20
f 10 20 15
f 11 16 21
f 11 21 22
f 11 22 12
f 12 22 13
f 13 23 24
f 13 24 25
f 13 25 26
f 13 26 27
f 13 27 46
f 13 46 64
f 13 64 63
f 13 63 75
f 13 75 80
f 13 80 78
f 13 78 66
f 13 66 50
f 13 50 49
f 13 49 47
f 13 47 28
f 13 28 29
f 13 29 14
f 13 22 21
f 13 21 23
f 15 20 30
f 15 30 16
f 16 30 31
f 16 31 21
f 17 32 18
f 18 32 33
f 18 33 34
f 18 34 35
f 18 35 36
f 18 36 19
f 19 36 37
f 19 37 20
f 20 37 30
f 21 31 38
f 21 38 23
f 23 39 40
f 23 40 41
f 23 41 25
f 23 25 24
f 23 38 39
f 25 41 42
f 25 42 43
f 25 43 26
f 26 43 44
f 26 44 45
f 26 45 27
f 27 45 46
f 28 47 29
f 29 47 49
f 29 49 50
f 29 50 48
f 30 37 51
f 30 51 40
f 30 40 31
f 31 40 38
f 32 52 53
f 32 53 33
f 33 53 34
f 34 51 35
f 34 53 54
f 34 54 55
f 34 55 51
f 35 51 37
f 35 37 36
f 38 40 39
f 40 56 57
f 40 57 41
f 40 51 56
f 41 57 42
f 42 58 43
f 42 57 59
f 42 59 58
f 43 58 44
f 44 60 45
f 44 58 61
f 44 61 62
f 44 62 60
f 45 63 64
f 45 64 46
f 45 60 63
f 48 50 66
f 48 66 65
f 51 55 56
f 52 67 68
f 52 68 69
f 52 69 53
f 52 70 71
f 52 71 72
f 52 72 67
f 53 69 54
f 54 69 68
f 54 68 56
f 54 56 55
f 56 68 57
f 57 68 59
f 58 59 61
f 59 68 73
f 59 73 61
f 60 62 74
f 60 74 75
f 60 75 63
f 61 73 76
f 61 76 62
f 62 76 74
f 65 66 77
f 66 78 71
f 66 71 70
f 66 70 79
f 66 79 77
f 67 72 68
f 68 72 76
f 68 76 73
f 71 78 80
f 71 80 74
f 71 74 76
f 71 76 72
f 74 80 75

