# https://github.com/mikedh/trimesh
v 0.01783955 0.01516122 0.05143960
v 0.01783955 0.01528034 0.05329118
v 0.00126787 0.02272415 0.05130513
v 0.01783955 0.01517158 0.05130513
v 0.00954236 0.02198357 0.06094780
v 0.00126787 0.02300381 0.05289190
v 0.01783955 0.02481298 0.07207380
v 0.01693278 0.02489584 0.07210483
v 0.01428060 0.02493209 0.07160004
v 0.01211830 0.02548796 0.07185244
v 0.01130074 0.02506156 0.07041255
v 0.01015714 0.02547587 0.07046013
v 0.00126787 0.02445563 0.05130513
v 0.01783955 0.01854477 0.05130513
v 0.00126787 0.02969150 0.07107250
v 0.01783955 0.02559499 0.07243377
v 0.01629528 0.02541891 0.07238205
v 0.01363337 0.02537402 0.07213379
v 0.01019932 0.02622509 0.07203863
v 0.00831603 0.02673090 0.07149453
v 0.00126787 0.03010409 0.07206138
v 0.00246987 0.02444872 0.05130513
v 0.00126787 0.02914772 0.05985754
v 0.00170260 0.02862810 0.05871143
v 0.01721503 0.01913344 0.05130513
v 0.01783955 0.01940793 0.05238297
v 0.01783955 0.02561571 0.07243584
v 0.01413136 0.02620955 0.07242136
v 0.01311104 0.02588846 0.07233447
v 0.00905734 0.02731266 0.07237378
v 0.00126787 0.03012998 0.07212138
v 0.00364592 0.02407412 0.05130513
v 0.00266939 0.02832255 0.05842593
v 0.00126787 0.02969841 0.06102021
v 0.00180642 0.03024392 0.06210839
v 0.01581189 0.01966169 0.05130513
v 0.01783955 0.02051276 0.05392836
v 0.01783955 0.02568476 0.07242343
v 0.00389572 0.03037857 0.07238205
v 0.00126787 0.03069276 0.07240067
v 0.00126787 0.03065996 0.07239446
v 0.01783955 0.02059389 0.05406077
v 0.01783955 0.02146740 0.05563098
v 0.00264344 0.03005057 0.06211047
v 0.00346748 0.02869370 0.05972927
v 0.00126787 0.03104320 0.06409238
v 0.00127761 0.03109499 0.06421030
v 0.00228170 0.03124518 0.06505436
v 0.01783955 0.02614223 0.07233447
v 0.00227846 0.03148686 0.07224964
v 0.00126787 0.03134357 0.07234275
v 0.01783955 0.02224251 0.05727775
v 0.01783955 0.02268790 0.05838456
v 0.01783955 0.02249110 0.05786115
v 0.01783955 0.02557773 0.06621496
v 0.00126787 0.03110362 0.06423305
v 0.00145442 0.03228441 0.06762381
v 0.00272130 0.03159561 0.06669492
v 0.01783955 0.02634420 0.06838513
v 0.01783955 0.02629242 0.06823824
v 0.01783955 0.02622682 0.07228068
v 0.01783955 0.02639772 0.07216690
v 0.00232388 0.03211350 0.07179451
v 0.00126787 0.03213767 0.07199518
v 0.00126787 0.03214458 0.06723075
v 0.00126787 0.03230167 0.06768794
v 0.00126787 0.03250883 0.06850098
v 0.00126787 0.03276777 0.06969261
v 0.00219249 0.03245359 0.06902232
v 0.01783955 0.02677578 0.06979605
v 0.01783955 0.02642361 0.06863959
v 0.01783955 0.02653064 0.07205932
v 0.00126787 0.03227923 0.07182761
v 0.00126787 0.03221017 0.07194346
v 0.01783955 0.02654964 0.07203863
v 0.01783955 0.02660315 0.07196829
v 0.01783955 0.02683275 0.07153591
v 0.00200919 0.03258133 0.07107871
v 0.00126787 0.03279712 0.06996983
v 0.00238876 0.03251918 0.07020360
v 0.01783955 0.02686037 0.07034842
v 0.00126787 0.03270217 0.07095665
v 0.01783955 0.02689317 0.07111388
v 0.00126787 0.03278676 0.07024291
v 0.01783955 0.02691561 0.07084080
f 1 2 3
f 1 3 4
f 1 4 14
f 1 14 26
f 1 26 37
f 1 37 42
f 1 42 43
f 1 43 52
f 1 52 54
f 1 54 53
f 1 53 55
f 1 55 60
f 1 60 59
f 1 59 71
f 1 71 70
f 1 70 81
f 1 81 85
f 1 85 83
f 1 83 77
f 1 77 76
f 1 76 75
f 1 75 72
f 1 72 62
f 1 62 61
f 1 61 49
f 1 49 38
f 1 38 27
f 1 27 16
f 1 16 7
f 1 7 2
f 2 5 6
f 2 6 3
f 2 7 8
f 2 8 9
f 2 9 10
f 2 10 11
f 2 11 12
f 2 12 5
f 3 6 15
f 3 15 21
f 3 21 31
f 3 31 41
f 3 41 40
f 3 40 51
f 3 51 64
f 3 64 74
f 3 74 73
f 3 73 82
f 3 82 84
f 3 84 79
f 3 79 68
f 3 68 67
f 3 67 66
f 3 66 65
f 3 65 56
f 3 56 46
f 3 46 34
f 3 34 23
f 3 23 13
f 3 13 22
f 3 22 32
f 3 32 36
f 3 36 25
f 3 25 14
f 3 14 4
f 5 12 15
f 5 15 6
f 7 16 17
f 7 17 8
f 8 17 18
f 8 18 9
f 9 18 10
f 10 18 19
f 10 19 11
f 11 19 12
f 12 19 20
f 12 20 21
f 12 21 15
f 13 23 24
f 13 24 22
f 14 25 26
f 16 27 28
f 16 28 17
f 17 28 29
f 17 29 18
f 18 29 19
f 19 29 30
f 19 30 31
f 19 31 20
f 20 31 21
f 22 24 33
f 22 33 32
f 23 34 35
f 23 35 24
f 24 35 33
f 25 36 37
f 25 37 26
f 27 38 39
f 27 39 40
f 27 40 28
f 28 40 30
f 28 30 29
f 30 40 41
f 30 41 31
f 32 42 36
f 32 33 43
f 32 43 42
f 33 35 44
f 33 44 45
f 33 45 43
f 34 46 35
f 35 46 47
f 35 47 48
f 35 48 44
f 36 42 37
f 38 49 39
f 39 49 50
f 39 50 51
f 39 51 40
f 43 45 52
f 44 53 54
f 44 54 52
f 44 52 45
f 44 48 55
f 44 55 53
f 46 56 47
f 47 56 57
f 47 57 48
f 48 57 58
f 48 58 59
f 48 59 60
f 48 60 55
f 49 61 50
f 50 61 62
f 50 62 63
f 50 63 64
f 50 64 51
f 56 65 57
f 57 65 66
f 57 66 67
f 57 67 68
f 57 68 69
f 57 69 58
f 58 69 70
f 58 70 71
f 58 71 59
f 62 72 63
f 63 73 74
f 63 74 64
f 63 72 75
f 63 75 76
f 63 76 77
f 63 77 78
f 63 78 73
f 68 79 69
f 69 79 80
f 69 80 81
f 69 81 70
f 73 78 82
f 77 83 78
f 78 83 80
f 78 80 79
f 78 79 84
f 78 84 82
f 80 83 85
f 80 85 81

