# https://github.com/mikedh/trimesh
v -0.03040212 -0.03211105 -0.02963649
v -0.03040212 -0.03209207 -0.02989572
v -0.03040212 -0.03200275 -0.02908823
v -0.03101560 -0.03199047 -0.02958832
v -0.03066939 -0.03168902 -0.03172635
v -0.03040212 -0.03176383 -0.03168505
v -0.03040212 -0.03141213 -0.02636523
v -0.03119193 -0.03103365 -0.02533980
v -0.03214376 -0.03152713 -0.02864548
v -0.03247611 -0.03128932 -0.03004483
v -0.03204128 -0.03145456 -0.03058622
v -0.03040212 -0.03103030 -0.03477739
v -0.03040212 -0.03169237 -0.03206815
v -0.03040212 -0.03056137 -0.02261221
v -0.03059646 -0.02993391 -0.02035490
v -0.03213776 -0.03110063 -0.02720484
v -0.03273138 -0.03102583 -0.02901482
v -0.03250843 -0.03047429 -0.03190987
v -0.03228455 -0.03082151 -0.03206127
v -0.03167431 -0.03062390 -0.03416718
v -0.03085404 -0.02978207 -0.03864281
v -0.03040212 -0.03001095 -0.03864281
v -0.03040212 -0.03046424 -0.03699800
v -0.03040212 -0.02984906 -0.01981122
v -0.03040212 -0.02946387 -0.01868485
v -0.03146474 -0.03033250 -0.02339906
v -0.03199974 -0.03049104 -0.02543156
v -0.03152752 -0.02953421 -0.02216488
v -0.03511696 -0.02070618 -0.03137536
v -0.03475921 -0.02070618 -0.03339639
v -0.03437008 -0.02070618 -0.03526831
v -0.03222085 -0.02994842 -0.03382308
v -0.03147028 -0.02949067 -0.03748662
v -0.03119054 -0.02936339 -0.03864281
v -0.03040212 -0.02612782 -0.03864281
v -0.03040212 -0.02912334 -0.01780854
v -0.03087388 -0.02927519 -0.01931571
v -0.03043305 -0.02834069 -0.01626237
v -0.03040212 -0.02831278 -0.01613161
v -0.03040212 -0.02070618 -0.01520712
v -0.03360197 -0.02070618 -0.03836523
v -0.03148643 -0.02839875 -0.03864281
v -0.03211422 -0.02875937 -0.03569500
v -0.03135211 -0.02888442 -0.03864281
v -0.03045982 -0.02587103 -0.03864281
v -0.03040212 -0.02070618 -0.01919642
v -0.03040212 -0.02834404 -0.01618437
v -0.03352349 -0.02070618 -0.03864281
v -0.03059738 -0.02534405 -0.03864281
v -0.03138719 -0.02252046 -0.03864281
v -0.03206113 -0.02070618 -0.03864281
f 1 2 6
f 1 6 13
f 1 13 12
f 1 12 23
f 1 23 22
f 1 22 35
f 1 35 46
f 1 46 40
f 1 40 39
f 1 39 47
f 1 47 36
f 1 36 25
f 1 25 24
f 1 24 14
f 1 14 7
f 1 7 3
f 1 3 4
f 1 4 2
f 2 5 6
f 2 4 5
f 3 7 4
f 4 7 8
f 4 8 9
f 4 9 10
f 4 10 11
f 4 11 5
f 5 11 12
f 5 12 13
f 5 13 6
f 7 14 8
f 8 14 15
f 8 15 9
f 9 16 17
f 9 17 10
f 9 15 16
f 10 18 19
f 10 19 11
f 10 17 18
f 11 19 20
f 11 20 21
f 11 21 22
f 11 22 23
f 11 23 12
f 14 24 15
f 15 24 25
f 15 25 26
f 15 26 16
f 16 26 27
f 16 27 17
f 17 27 28
f 17 28 29
f 17 29 18
f 18 29 30
f 18 30 31
f 18 31 32
f 18 32 33
f 18 33 19
f 19 33 34
f 19 34 21
f 19 21 20
f 21 34 44
f 21 44 42
f 21 42 48
f 21 48 51
f 21 51 50
f 21 50 49
f 21 49 45
f 21 45 35
f 21 35 22
f 25 36 26
f 26 36 37
f 26 37 27
f 27 37 28
f 28 37 38
f 28 38 29
f 29 38 39
f 29 39 40
f 29 40 46
f 29 46 51
f 29 51 48
f 29 48 41
f 29 41 31
f 29 31 30
f 31 41 42
f 31 42 43
f 31 43 32
f 32 43 33
f 33 43 42
f 33 42 44
f 33 44 34
f 35 45 46
f 36 47 37
f 37 47 38
f 38 47 39
f 41 48 42
f 45 49 46
f 46 49 50
f 46 50 51

