# https://github.com/mikedh/trimesh
v 0.03854726 -0.03185165 -0.02206642
v 0.04037713 -0.03185165 -0.02206642
v 0.03791270 -0.03185165 -0.02062119
v 0.03541215 -0.02746938 -0.02206642
v 0.04117661 -0.03099498 -0.02206642
v 0.03922502 -0.03185165 -0.01929968
v 0.03541215 -0.03185165 -0.01487094
v 0.03541215 -0.02486671 -0.02206642
v 0.04225175 -0.02981169 -0.02206642
v 0.04258631 -0.02777640 -0.01842160
v 0.03617080 -0.03185165 -0.01202428
v 0.03541215 -0.03185165 -0.01088234
v 0.03541215 -0.02232003 -0.01984055
v 0.03592341 -0.02232003 -0.02195255
v 0.03595247 -0.02232003 -0.02206642
v 0.04342820 -0.02840071 -0.02206642
v 0.04220228 -0.02727528 -0.01648478
v 0.04120724 -0.02713530 -0.01380673
v 0.03566111 -0.03185165 -0.01088234
v 0.03541215 -0.02985742 -0.01088234
v 0.03541215 -0.02232003 -0.01458409
v 0.03729777 -0.02232003 -0.02206642
v 0.04343449 -0.02830086 -0.02206642
v 0.04253212 -0.02740033 -0.01793657
v 0.04197217 -0.02694119 -0.01546874
v 0.04078001 -0.02627863 -0.01124474
v 0.04068420 -0.02619557 -0.01088234
v 0.03659410 -0.02846136 -0.01088234
v 0.03771872 -0.02718009 -0.01088234
v 0.03865172 -0.02623757 -0.01088234
v 0.03917240 -0.02586802 -0.01088234
v 0.03920696 -0.02584843 -0.01088234
v 0.04037241 -0.02574951 -0.01088234
v 0.04069598 -0.02588296 -0.01088234
v 0.03707552 -0.02232003 -0.02117848
v 0.04307401 -0.02778666 -0.02067265
v 0.04341328 -0.02806009 -0.02206642
v 0.04111771 -0.02625157 -0.01225092
f 1 2 6
f 1 6 11
f 1 11 19
f 1 19 12
f 1 12 7
f 1 7 3
f 1 3 4
f 1 4 8
f 1 8 15
f 1 15 22
f 1 22 37
f 1 37 23
f 1 23 16
f 1 16 9
f 1 9 5
f 1 5 2
f 2 5 6
f 3 7 4
f 4 7 12
f 4 12 20
f 4 20 21
f 4 21 13
f 4 13 8
f 5 9 10
f 5 10 11
f 5 11 6
f 8 13 14
f 8 14 15
f 9 16 10
f 10 17 18
f 10 18 11
f 10 16 17
f 11 18 19
f 12 19 27
f 12 27 34
f 12 34 33
f 12 33 32
f 12 32 31
f 12 31 30
f 12 30 29
f 12 29 28
f 12 28 20
f 13 21 35
f 13 35 22
f 13 22 15
f 13 15 14
f 16 23 24
f 16 24 17
f 17 25 26
f 17 26 18
f 17 24 25
f 18 26 19
f 19 26 27
f 20 28 21
f 21 28 29
f 21 29 30
f 21 30 31
f 21 31 32
f 21 32 33
f 21 33 34
f 21 34 35
f 22 35 34
f 22 34 36
f 22 36 37
f 23 37 24
f 24 37 25
f 25 37 36
f 25 36 34
f 25 34 38
f 25 38 26
f 26 38 27
f 27 38 34

