# https://github.com/mikedh/trimesh
v -0.02480024 0.00111278 -0.01989681
v -0.02886775 0.01811349 -0.01895122
v -0.02799219 0.01112764 -0.01381595
v -0.02375505 0.01760454 -0.02732575
v -0.02744029 0.02551633 -0.01071974
v -0.02693886 0.00977272 -0.02513535
v -0.02598375 0.01726056 -0.00478025
v -0.02503352 0.02763770 -0.02513020
v -0.02326321 0.03576852 -0.01243774
v -0.02709103 0.03123118 -0.01883550
v -0.02566467 -0.01810324 -0.00755383
v -0.02610582 -0.01503553 0.00425533
v -0.02626438 -0.00535901 0.00163055
v -0.02389617 0.00560582 -0.00785144
v -0.02345182 -0.01580982 -0.01627268
v -0.02498111 -0.00454423 -0.01256927
v -0.01739438 0.01094336 -0.03352671
v -0.02476608 -0.02356151 0.00072201
v -0.02347588 0.00447616 0.00662888
v -0.02238191 0.00457728 -0.02736197
v -0.02290071 -0.02000767 0.00780505
v -0.02247185 -0.00458267 0.01320226
v -0.01933434 0.03789935 -0.02075965
v -0.02267122 -0.02691211 -0.00928730
v -0.02022128 -0.01427135 0.01742555
v -0.02132586 0.00915739 0.00198751
v -0.01943266 0.01992874 0.00211132
v -0.02267032 0.02808616 0.00042539
v -0.02001241 -0.03017878 -0.00423923
v -0.01900903 -0.02771389 0.00249465
v -0.02118097 0.02250902 -0.03370434
v -0.01178905 -0.02524894 0.00801924
v -0.01597423 0.00058738 0.02434703
v -0.01862787 0.03542888 -0.00188393
v -0.01822614 -0.01927637 -0.02005964
v -0.01628998 -0.00635545 -0.02676081
v -0.00884158 0.00071776 -0.02981309
v -0.01526134 -0.02136192 0.01571975
v -0.01744456 0.01090545 0.02154861
v -0.01426559 0.01979642 0.01287379
v -0.01907416 0.03359437 -0.03037269
v -0.01689697 -0.03133591 0.00042869
v -0.01261821 0.01418899 -0.03662193
v -0.01498759 0.03151657 0.00506763
v -0.01701462 0.02141105 -0.03839645
v -0.01267630 0.03288146 -0.03377750
v -0.01340689 -0.02826577 -0.01003596
v -0.01403341 0.04173765 -0.00952042
v -0.01435224 -0.02491529 -0.01740156
v -0.01051746 -0.00798318 0.02940713
v -0.01231673 0.02174286 0.00800461
v -0.01038119 -0.01496511 -0.02698541
v -0.01474688 0.04122066 -0.02613589
v -0.01027582 0.00620067 -0.03396419
v -0.00929625 -0.02978179 -0.00288854
v -0.01271485 0.01612313 0.02268739
v -0.01050892 0.04283647 -0.02132461
v -0.00995805 -0.04416190 0.00445515
v -0.01039814 0.04454457 -0.01541005
v -0.00996699 -0.02896644 0.00331146
v -0.00904458 0.01301323 0.03282847
v -0.01021254 0.01866539 -0.04006913
v -0.00753548 0.04168179 -0.00376395
v -0.00919475 -0.04200701 0.01114221
v -0.01020049 -0.04043438 0.00982213
v -0.00936983 -0.02382399 0.01429466
v -0.00116458 -0.02341985 -0.02385482
v -0.00749726 0.00754316 0.03572174
v -0.01043276 0.00873485 -0.03967837
v -0.00785914 0.02580571 0.01174257
v -0.00902206 0.02361955 -0.04006867
v -0.00780864 0.04077965 -0.02954763
v -0.00480985 0.04343754 -0.02341566
v -0.00707223 -0.01640979 0.02619333
v -0.00729340 0.00477492 -0.03312177
v -0.00790445 0.01252318 -0.04261815
v -0.00751480 0.03377887 0.00493603
v -0.00685707 0.01749885 0.02292620
v 0.00031037 -0.01221266 -0.03092595
v -0.00642838 -0.02682086 0.01834411
v -0.00710270 0.00683687 -0.04166141
v -0.00397156 -0.04152527 0.00895448
v -0.00591091 -0.03569938 0.01241363
v -0.00395798 0.01732160 0.03408836
v -0.00129185 0.02265088 0.01453810
v -0.00136021 0.03301140 -0.03209243
v -0.00599657 -0.03451203 0.01898802
v -0.00470590 0.01813317 -0.03909443
v -0.00325428 -0.03741992 0.01246626
v -0.00420933 -0.03641414 0.02198275
v 0.00505313 -0.02879088 -0.01064755
v -0.00336584 -0.02767682 0.01752020
v 0.00117128 -0.00929036 0.03418470
v -0.00278152 0.04492603 -0.01313906
v -0.00407317 -0.04213295 0.00147028
v -0.00324060 -0.03113079 0.03025581
v -0.00393627 0.00832803 -0.03891680
v -0.00220434 0.02105229 0.02762930
v -0.00333887 -0.03118309 0.02330082
v -0.00201194 -0.03204742 0.01392865
v -0.00239157 -0.02806896 0.01945542
v 0.00369966 0.00028770 -0.03178774
v -0.00322436 0.01056924 -0.03566913
v 0.00013072 0.02671948 0.00740908
v -0.00285242 0.03336282 0.00620099
v 0.00141921 0.03921801 -0.02625028
v -0.00087500 -0.04163729 0.00476454
v 0.00205555 -0.03050301 -0.00166421
v 0.00001019 -0.02220887 0.02405887
v -0.00049387 -0.03348051 0.02192592
v -0.00080695 -0.02998941 0.02521454
v -0.00230590 0.00360009 0.03992845
v -0.00018154 0.00869610 0.03981490
v 0.00196688 0.04226401 -0.00663909
v 0.00110483 -0.03742723 0.00695683
v 0.00063359 -0.03234719 0.03125081
v -0.00118615 -0.02844894 0.00642557
v -0.00097658 -0.03039794 0.03864797
v 0.00248952 0.01558526 0.03623731
v 0.00169359 0.02136498 0.03060434
v 0.01093883 -0.02629468 0.00405904
v 0.00174420 -0.03044832 0.03475291
v -0.00025403 -0.02799846 0.03413805
v 0.00147917 -0.02496675 0.01687625
v 0.00694964 -0.00332607 0.03635104
v 0.00247520 0.02084767 0.02297613
v 0.00642057 0.02185432 -0.03302365
v 0.00222968 0.03787320 0.00036340
v 0.00373686 -0.03418000 0.02335848
v 0.00203116 -0.03200474 0.01822285
v 0.00547502 0.01233806 -0.03462516
v 0.00626878 0.02858004 0.00218076
v 0.00510786 0.04150027 -0.01644946
v 0.00482769 -0.04212427 -0.00006359
v 0.00234375 -0.03722994 0.01749605
v 0.00364491 -0.03946499 0.00960170
v 0.00299876 -0.03452281 0.01269330
v 0.00598674 -0.03230722 0.02254608
v 0.00891619 -0.01918969 -0.02593679
v 0.00576221 0.02383871 0.01324551
v 0.01032948 0.01678118 0.02539620
v 0.00456008 -0.03915889 0.00531206
v 0.00456797 -0.03462234 0.01678731
v 0.00900984 -0.02169572 0.02306553
v 0.00924712 0.01789529 0.01802427
v 0.00531059 -0.04256946 0.00321724
v 0.00970987 -0.03564306 0.01771908
v 0.00644906 0.01948948 0.01340076
v 0.00549205 0.02230902 0.00436035
v 0.00836388 -0.02507693 0.01012960
v 0.01215792 0.02972797 -0.02501207
v 0.00809162 0.03611642 -0.00449080
v 0.00826896 -0.01329554 0.03065544
v 0.01167213 -0.01227031 -0.02865123
v 0.00716606 0.01115309 0.03711466
v 0.01013416 -0.04015033 0.00342261
v 0.00995585 -0.03763915 0.01024800
v 0.00962211 -0.03654312 0.00650511
v 0.00844931 -0.03715826 0.00890914
v 0.01391787 -0.02471662 -0.01809732
v 0.01179059 0.01366733 0.02954275
v 0.00886399 0.02073041 0.00701858
v 0.01048836 -0.03245215 0.01752799
v 0.01234918 -0.02777447 -0.00171763
v 0.00738027 0.01809573 0.00453079
v 0.00782441 0.01915609 0.00320374
v 0.01383265 -0.03242933 0.02075260
v 0.01101601 -0.00055981 -0.02844156
v 0.01119193 0.00543082 0.03367946
v 0.01188306 0.01547862 -0.00160651
v 0.01036844 0.01860025 0.01269427
v 0.00828782 0.02006422 0.00350515
v 0.01038227 0.01991434 0.01483192
v 0.01029390 0.03613894 -0.02154157
v 0.00943080 0.03847360 -0.01271253
v 0.01502377 -0.00890392 0.02645788
v 0.01157778 0.01642825 0.00416013
v 0.00914496 0.01982735 0.00356269
v 0.01261692 -0.02289491 0.01666716
v 0.01275676 0.01716828 0.01246859
v 0.01094846 0.01796310 0.01382536
v 0.01224292 0.02800182 -0.00356330
v 0.01482343 0.03043060 -0.01551531
v 0.01655486 -0.03897272 0.00509330
v 0.01201279 -0.03015035 0.01287435
v 0.01245193 -0.02838787 0.01711002
v 0.01338310 -0.04080525 -0.00260101
v 0.01631017 -0.03449482 0.00954870
v 0.01626173 -0.01562565 0.02154084
v 0.01615924 0.01495840 0.00851770
v 0.01577433 -0.03672954 0.00439770
v 0.01570195 -0.02883941 0.03015995
v 0.01464909 -0.02633433 0.01062914
v 0.01821708 -0.00747505 -0.02483165
v 0.01485328 0.01393473 -0.02846114
v 0.01244695 0.01808015 0.01351582
v 0.01259426 0.01731436 0.01516098
v 0.01573803 -0.02964696 0.01146330
v 0.01581680 0.00340353 -0.02381854
v 0.01633399 0.01754167 -0.01016299
v 0.01479424 -0.02715622 0.01808603
v 0.01644354 -0.02259734 0.00538478
v 0.01633786 0.01433760 0.01756854
v 0.01869885 -0.02657713 -0.00676003
v 0.01605986 -0.01908428 0.00798692
v 0.02079261 0.00854869 -0.00081683
v 0.01865398 -0.02810947 -0.00090651
v 0.01994038 -0.02403836 0.00156156
v 0.01771214 -0.02662770 0.02863930
v 0.01967822 -0.01823403 -0.01930083
v 0.01662999 -0.02341968 0.01235941
v 0.01538398 -0.01827077 0.01396391
v 0.01812442 0.01004877 -0.01150794
v 0.01759344 -0.02906080 0.01669775
v 0.01937540 -0.01761216 0.01010204
v 0.01782867 0.01962594 -0.02054588
v 0.01928211 -0.03333226 0.00887298
v 0.01921830 -0.03162559 0.02216050
v 0.02288118 -0.00017843 -0.01592097
v 0.02159388 -0.00154966 0.01961811
v 0.02174216 0.00631590 0.01364190
v 0.02136170 -0.02394198 -0.01210285
v 0.02200977 -0.04059879 -0.00076492
v 0.02048510 -0.03592974 0.00925825
v 0.02287926 -0.01332871 0.01205075
v 0.02323690 -0.00968541 0.01836832
v 0.02248810 -0.03794860 -0.00036346
v 0.02271077 -0.02553758 -0.00423242
v 0.02459577 -0.01788877 -0.01013651
v 0.02276675 -0.03787859 0.00347629
v 0.02324419 -0.01929844 0.00032988
v 0.02383515 -0.00814410 -0.01841821
v 0.03005471 -0.00613207 -0.01806134
v 0.02693583 -0.00265093 -0.00599674
v 0.02742176 -0.01045019 -0.00011222
v 0.02861207 -0.00313636 -0.01574026
v 0.02681649 -0.00154607 0.00527549
v 0.03134176 -0.00171085 -0.00639226
v 0.02964252 -0.00833019 -0.01169987
f 15 35 24
f 185 158 159
f 167 218 192
f 138 163 130
f 217 191 198
f 5 2 3
f 53 46 41
f 91 47 67
f 182 170 200
f 173 145 171
f 110 89 135
f 36 20 37
f 152 182 183
f 85 104 70
f 128 114 63
f 195 131 127
f 43 31 45
f 33 25 50
f 76 62 88
f 159 157 147
f 238 236 234
f 151 127 86
f 55 91 108
f 95 107 82
f 204 91 160
f 59 57 23
f 161 203 141
f 163 143 130
f 86 71 46
f 154 139 79
f 164 108 91
f 79 52 36
f 173 171 181
f 48 9 34
f 207 164 204
f 225 215 231
f 127 88 86
f 16 1 15
f 88 62 71
f 2 6 1
f 122 111 123
f 20 36 1
f 165 166 149
f 128 152 114
f 226 235 237
f 216 195 151
f 194 154 168
f 19 13 22
f 237 234 206
f 132 178 170
f 60 55 108
f 136 107 146
f 154 79 102
f 34 9 28
f 205 202 215
f 114 94 63
f 131 103 88
f 41 45 31
f 92 66 32
f 107 115 134
f 174 151 106
f 211 198 193
f 173 162 140
f 116 90 110
f 237 235 234
f 124 101 92
f 161 220 221
f 181 148 145
f 162 178 172
f 212 205 215
f 198 214 217
f 166 170 178
f 179 186 201
f 1 36 15
f 207 228 208
f 41 31 8
f 140 162 104
f 70 77 51
f 63 105 128
f 100 83 80
f 120 84 119
f 13 16 11
f 234 236 219
f 133 175 174
f 177 170 165
f 229 222 210
f 136 89 107
f 84 78 61
f 193 121 202
f 106 86 72
f 37 75 102
f 191 184 187
f 208 164 207
f 151 86 106
f 126 140 85
f 80 83 87
f 189 179 212
f 186 163 167
f 197 181 145
f 114 133 94
f 163 147 143
f 39 40 19
f 155 113 169
f 238 239 233
f 191 227 223
f 136 142 137
f 73 59 94
f 93 50 74
f 229 228 222
f 210 160 139
f 63 59 48
f 120 126 98
f 217 227 191
f 32 30 60
f 143 137 130
f 43 69 54
f 190 177 178
f 158 142 159
f 159 142 146
f 3 2 1
f 218 224 217
f 158 134 142
f 203 190 180
f 10 2 5
f 128 105 132
f 121 117 108
f 23 41 8
f 87 65 64
f 138 129 167
f 132 104 149
f 38 66 80
f 182 200 183
f 179 150 186
f 117 60 108
f 189 212 215
f 174 106 133
f 188 224 218
f 101 130 92
f 215 208 231
f 37 79 36
f 59 23 9
f 143 136 137
f 115 95 83
f 160 67 139
f 147 135 143
f 38 21 32
f 172 178 132
f 96 90 116
f 169 113 125
f 196 180 181
f 16 15 11
f 59 9 48
f 192 186 167
f 135 136 143
f 109 74 80
f 111 99 96
f 133 73 94
f 175 183 174
f 75 54 81
f 231 228 229
f 83 95 58
f 198 158 185
f 56 40 39
f 57 53 23
f 54 37 17
f 9 10 5
f 208 121 164
f 186 150 193
f 74 50 38
f 115 107 95
f 33 22 25
f 101 87 99
f 50 25 38
f 15 36 35
f 72 46 53
f 180 190 171
f 139 67 79
f 9 23 10
f 121 108 164
f 211 214 198
f 236 232 219
f 220 226 237
f 101 80 87
f 230 223 227
f 162 165 149
f 104 77 70
f 142 134 115
f 113 68 112
f 232 210 194
f 61 33 68
f 39 33 61
f 22 12 25
f 138 130 111
f 150 124 121
f 18 24 29
f 203 145 141
f 124 92 117
f 167 147 157
f 98 85 78
f 225 235 226
f 211 193 205
f 135 89 136
f 201 214 211
f 123 111 96
f 158 191 156
f 84 113 119
f 173 196 162
f 177 166 178
f 47 24 49
f 173 181 197
f 222 160 210
f 173 140 145
f 61 78 56
f 218 209 192
f 14 16 19
f 184 157 156
f 117 32 60
f 83 65 87
f 23 8 10
f 127 131 88
f 152 183 175
f 131 102 103
f 102 79 37
f 49 35 67
f 195 168 131
f 8 31 4
f 7 3 14
f 96 87 90
f 126 145 140
f 87 64 90
f 169 220 161
f 200 213 216
f 107 134 146
f 125 112 93
f 183 200 216
f 197 180 196
f 46 71 45
f 43 76 69
f 5 3 7
f 113 112 125
f 214 218 217
f 218 167 188
f 236 233 232
f 63 48 34
f 193 185 186
f 9 5 28
f 235 231 229
f 70 51 40
f 25 12 21
f 109 101 124
f 12 18 21
f 172 149 166
f 156 134 158
f 17 20 6
f 67 35 52
f 142 115 137
f 110 129 116
f 217 230 227
f 28 5 7
f 182 132 170
f 136 146 142
f 159 146 157
f 97 81 76
f 172 166 177
f 47 49 67
f 144 124 150
f 157 146 156
f 220 176 226
f 11 15 24
f 179 144 150
f 224 223 230
f 137 115 100
f 160 91 67
f 171 190 162
f 193 150 121
f 51 27 26
f 30 18 42
f 212 211 205
f 42 29 55
f 54 69 81
f 103 97 88
f 189 153 144
f 109 80 101
f 64 82 89
f 7 14 27
f 161 141 120
f 217 224 230
f 125 93 153
f 74 38 80
f 40 51 26
f 168 102 131
f 133 106 73
f 228 204 222
f 152 128 132
f 21 38 25
f 163 185 159
f 66 38 32
f 122 118 116
f 203 221 190
f 42 18 29
f 173 197 196
f 151 195 127
f 130 100 92
f 206 234 219
f 215 202 208
f 62 43 45
f 124 117 121
f 212 179 201
f 88 71 86
f 3 1 16
f 191 187 156
f 63 44 77
f 75 81 97
f 58 95 82
f 62 76 43
f 118 96 116
f 37 20 17
f 73 57 59
f 144 179 189
f 206 219 213
f 209 214 201
f 175 133 114
f 39 22 33
f 146 134 156
f 132 149 172
f 144 109 124
f 221 237 206
f 84 61 68
f 52 35 36
f 69 76 81
f 126 85 98
f 141 126 120
f 110 135 129
f 43 4 31
f 167 129 147
f 201 186 192
f 190 221 206
f 154 210 139
f 239 235 229
f 167 163 138
f 44 34 28
f 75 37 54
f 92 80 66
f 206 213 170
f 176 153 189
f 71 62 45
f 46 45 41
f 68 50 112
f 85 70 78
f 239 229 233
f 216 213 199
f 233 236 238
f 203 180 197
f 202 121 208
f 84 68 113
f 73 72 53
f 183 216 151
f 225 231 235
f 195 199 168
f 238 234 239
f 60 42 55
f 166 165 170
f 94 59 63
f 102 75 103
f 55 47 91
f 205 193 202
f 176 169 125
f 219 194 199
f 122 116 129
f 19 16 13
f 72 86 46
f 229 210 232
f 224 184 223
f 93 74 109
f 111 129 138
f 132 105 104
f 8 4 2
f 43 17 4
f 129 135 147
f 204 160 222
f 106 72 73
f 120 98 84
f 68 33 50
f 190 206 177
f 162 149 104
f 83 58 65
f 191 223 184
f 137 100 130
f 198 191 158
f 206 170 177
f 26 14 19
f 30 42 60
f 221 203 161
f 10 8 2
f 170 213 200
f 186 185 163
f 171 145 148
f 153 93 144
f 190 178 162
f 188 157 184
f 208 228 231
f 152 132 182
f 224 188 184
f 155 119 113
f 40 26 19
f 194 210 154
f 198 185 193
f 112 50 93
f 44 27 51
f 140 104 85
f 176 189 226
f 199 194 168
f 204 164 91
f 122 129 111
f 122 123 118
f 11 24 18
f 90 64 89
f 161 155 169
f 2 4 6
f 89 82 107
f 169 176 220
f 32 21 30
f 99 87 96
f 181 180 148
f 174 183 151
f 70 40 56
f 67 52 79
f 216 199 195
f 111 130 101
f 63 34 44
f 93 109 144
f 64 58 82
f 39 19 22
f 119 161 120
f 228 207 204
f 97 103 75
f 49 24 35
f 155 161 119
f 92 32 117
f 218 214 209
f 152 175 114
f 232 194 219
f 141 145 126
f 233 229 232
f 43 54 17
f 73 53 57
f 17 6 4
f 163 159 147
f 167 157 188
f 225 189 215
f 100 115 83
f 13 12 22
f 21 18 30
f 111 101 99
f 203 197 145
f 53 41 23
f 184 156 187
f 97 76 88
f 212 201 211
f 28 7 27
f 123 96 118
f 172 177 165
f 77 44 51
f 12 11 18
f 26 27 14
f 65 58 64
f 213 219 199
f 125 153 176
f 63 77 105
f 92 100 80
f 56 39 61
f 168 154 102
f 234 235 239
f 13 11 12
f 47 55 29
f 44 28 27
f 84 98 78
f 180 171 148
f 1 6 20
f 110 90 89
f 47 29 24
f 226 189 225
f 70 56 78
f 220 237 221
f 209 201 192
f 162 172 165
f 105 77 104
f 196 181 171
f 14 3 16
f 196 171 162

