# https://github.com/mikedh/trimesh
v 0.01913407 -0.03134836 0.02251948
v 0.01771103 -0.02662770 0.02863773
v 0.01886760 -0.03134836 0.02295665
v 0.01849692 -0.03134836 0.01250871
v 0.01727752 -0.02721871 0.01528139
v 0.01570096 -0.02884016 0.03015881
v 0.01727434 -0.02721871 0.01527141
v 0.01608516 -0.02721871 0.01181405
v 0.01493973 -0.02721871 0.01085389
v 0.01403930 -0.02721871 0.01115132
v 0.01100789 -0.02721871 0.01464461
v 0.01439645 -0.03134836 0.02358544
v 0.01737377 -0.03134836 0.01026902
v 0.01102220 -0.03134836 0.01741529
v 0.01574630 -0.03134836 0.00976798
v 0.01422941 -0.03134836 0.01024107
v 0.01156549 -0.03134836 0.01168230
v 0.01140401 -0.03134836 0.01219731
f 1 2 3
f 1 3 12
f 1 12 14
f 1 14 18
f 1 18 17
f 1 17 16
f 1 16 15
f 1 15 13
f 1 13 4
f 1 4 5
f 1 5 2
f 2 6 3
f 2 5 7
f 2 7 8
f 2 8 9
f 2 9 10
f 2 10 11
f 2 11 6
f 3 6 12
f 4 13 8
f 4 8 7
f 4 7 5
f 6 11 14
f 6 14 12
f 8 13 9
f 9 13 15
f 9 15 16
f 9 16 10
f 10 16 17
f 10 17 11
f 11 17 18
f 11 18 14

