# https://github.com/mikedh/trimesh
v 0.01667140 -0.00054932 0.02586914
v 0.01278802 -0.00054932 0.03066623
v 0.01667140 -0.00906282 0.02483045
v 0.01667140 -0.00054932 -0.02419287
v 0.00829522 -0.00054932 0.03549750
v 0.01667140 -0.01527586 0.02135221
v 0.00694613 -0.00332736 0.03634484
v 0.01501970 -0.00890587 0.02645682
v 0.00826580 -0.01329379 0.03065257
v 0.01667140 -0.00598657 -0.02560056
v 0.01101023 -0.00054932 -0.02844328
v 0.00529863 -0.00054932 0.03715120
v 0.01625953 -0.01562564 0.02153672
v 0.01503651 -0.02345303 0.01636378
v 0.01663358 -0.02345303 0.01237987
v 0.01667140 -0.01548214 0.02094904
v 0.00323506 -0.00054932 0.03777988
v -0.00119049 -0.00054932 0.03808055
v 0.00116728 -0.00929152 0.03417863
v 0.00000731 -0.02220863 0.02405826
v -0.00050123 -0.02345303 0.02308108
v 0.00900970 -0.02169518 0.02306058
v 0.01667140 -0.00860766 -0.02573040
v 0.01167007 -0.01226912 -0.02864829
v 0.00422692 -0.00054932 -0.03157302
v 0.01667140 -0.02345303 0.00419337
v -0.00524199 -0.00054932 0.03616034
v -0.01051650 -0.00798434 0.02940204
v -0.00707020 -0.01640815 0.02619031
v -0.00663311 -0.02345303 0.02088070
v 0.01667140 -0.01599335 -0.02281251
v 0.00030991 -0.01221082 -0.03092383
v 0.00347041 -0.00054932 -0.03173019
v 0.00891304 -0.01918844 -0.02593540
v 0.01667140 -0.02345303 -0.01684689
v -0.00907074 -0.00054932 0.03242927
v -0.02022076 -0.01426913 0.01742297
v -0.01525726 -0.02136109 0.01571460
v -0.01187400 -0.02345303 0.01671912
v 0.01667140 -0.01850009 -0.02115197
v -0.00794439 -0.00054932 -0.02991932
v -0.00116527 -0.02341940 -0.02385119
v -0.01037781 -0.01496420 -0.02698092
v -0.01952310 -0.00054932 -0.02707659
v 0.01667140 -0.02161670 -0.01867142
v 0.01277120 -0.02345303 -0.01988778
v 0.01503651 -0.02345303 -0.01832975
v -0.01629535 -0.00054932 0.02381226
v -0.02115798 -0.00054932 0.01537293
v -0.02246926 -0.00458298 0.01319988
v -0.02610468 -0.01503371 0.00425487
v -0.02289794 -0.02000683 0.00780144
v -0.02470515 -0.02345303 0.00094064
v -0.02115798 -0.02345303 0.00543023
v -0.00078282 -0.02345303 -0.02370086
v -0.00112745 -0.02345303 -0.02376919
v -0.00124933 -0.02345303 -0.02375553
v -0.00145947 -0.02345303 -0.02370769
v -0.01628694 -0.00635653 -0.02675542
v -0.01535392 -0.02345303 -0.01809058
v -0.01822443 -0.01927588 -0.02005862
v -0.02466732 -0.00054932 -0.01953927
v -0.02344851 -0.01580950 -0.01626604
v -0.02291895 -0.00054932 0.01026832
v -0.02626438 -0.00536101 0.00163082
v -0.02566338 -0.01810323 -0.00755337
v -0.02478079 -0.02345303 0.00076980
v -0.02065365 -0.02345303 -0.01416133
v -0.02291055 -0.02345303 -0.01146211
v -0.02574744 -0.00054932 -0.01288347
v -0.02489847 -0.00054932 0.00407037
v -0.02384357 -0.02345303 -0.00860572
v -0.02478079 -0.02345303 0.00055796
f 1 2 3
f 1 3 6
f 1 6 16
f 1 16 26
f 1 26 35
f 1 35 45
f 1 45 40
f 1 40 31
f 1 31 23
f 1 23 10
f 1 10 4
f 1 4 11
f 1 11 25
f 1 25 33
f 1 33 41
f 1 41 44
f 1 44 62
f 1 62 70
f 1 70 71
f 1 71 64
f 1 64 49
f 1 49 48
f 1 48 36
f 1 36 27
f 1 27 18
f 1 18 17
f 1 17 12
f 1 12 5
f 1 5 2
f 2 5 3
f 3 5 7
f 3 7 8
f 3 8 9
f 3 9 6
f 4 10 11
f 5 12 7
f 6 13 14
f 6 14 15
f 6 15 16
f 6 9 13
f 7 12 17
f 7 17 18
f 7 18 19
f 7 19 9
f 7 9 8
f 9 19 20
f 9 20 21
f 9 21 22
f 9 22 14
f 9 14 13
f 10 23 11
f 11 23 24
f 11 24 25
f 14 22 21
f 14 21 30
f 14 30 39
f 14 39 54
f 14 54 53
f 14 53 67
f 14 67 73
f 14 73 72
f 14 72 69
f 14 69 68
f 14 68 60
f 14 60 58
f 14 58 57
f 14 57 56
f 14 56 55
f 14 55 46
f 14 46 47
f 14 47 35
f 14 35 26
f 14 26 15
f 15 26 16
f 18 27 28
f 18 28 19
f 19 28 29
f 19 29 21
f 19 21 20
f 21 29 30
f 23 31 24
f 24 32 33
f 24 33 25
f 24 31 34
f 24 34 32
f 27 36 28
f 28 36 37
f 28 37 29
f 29 37 38
f 29 38 30
f 30 38 39
f 31 40 34
f 32 41 33
f 32 34 42
f 32 42 43
f 32 43 44
f 32 44 41
f 34 40 45
f 34 45 46
f 34 46 42
f 35 47 45
f 36 48 37
f 37 48 49
f 37 49 50
f 37 50 51
f 37 51 52
f 37 52 38
f 38 52 53
f 38 53 54
f 38 54 39
f 42 46 55
f 42 55 56
f 42 56 57
f 42 57 58
f 42 58 43
f 43 59 44
f 43 58 60
f 43 60 61
f 43 61 59
f 44 59 61
f 44 61 63
f 44 63 62
f 45 47 46
f 49 64 50
f 50 64 65
f 50 65 51
f 51 65 66
f 51 66 67
f 51 67 52
f 52 67 53
f 60 68 61
f 61 68 69
f 61 69 63
f 62 63 66
f 62 66 70
f 63 69 66
f 64 71 65
f 65 71 70
f 65 70 66
f 66 69 72
f 66 72 73
f 66 73 67

