# https://github.com/mikedh/trimesh
v 0.00877951 0.02246346 0.00090354
v 0.00827536 0.02246346 0.00314632
v 0.01413872 0.01464818 0.00392069
v 0.01332378 0.01464818 0.00090354
v -0.02113809 0.02246346 0.00090354
v 0.00964969 0.01947506 0.00392069
v 0.00623458 0.02246346 0.00392069
v -0.01819605 0.01464818 0.00392069
v -0.02058559 0.01464818 0.00090354
v -0.02035769 0.01464818 0.00205063
v -0.02043711 0.02246346 0.00158754
v -0.01708416 0.02246346 0.00392069
f 1 2 3
f 1 3 4
f 1 4 9
f 1 9 5
f 1 5 11
f 1 11 12
f 1 12 7
f 1 7 2
f 2 6 3
f 2 7 6
f 3 6 7
f 3 7 12
f 3 12 8
f 3 8 10
f 3 10 9
f 3 9 4
f 5 9 10
f 5 10 11
f 8 12 11
f 8 11 10

