# https://github.com/mikedh/trimesh
v -0.00763884 0.03078030 0.00749629
v -0.00726532 0.02090617 0.01833322
v -0.00155090 0.02218490 0.01833322
v 0.00403739 0.02227076 0.01833322
v 0.00575463 0.02383468 0.01324571
v 0.00452249 0.02446638 0.01196535
v 0.00021970 0.02667119 0.00749629
v -0.01277114 0.02343297 0.00749629
v -0.01426038 0.01979303 0.01287444
v -0.01339206 0.01774767 0.01833322
v -0.01077255 0.01996782 0.01833322
v 0.01574758 0.01457384 0.01833322
v 0.01037758 0.01990956 0.01483158
v 0.01615506 0.01496022 0.00851782
v 0.00639980 0.02319685 0.01196535
v 0.00862154 0.02096750 0.00749629
v -0.01775306 0.01454624 0.00749629
v -0.01560410 0.01756368 0.01196535
v -0.01852922 0.00992502 0.01833322
v -0.01625897 0.01419973 0.01833322
v 0.01603864 0.01429479 0.01833322
v 0.01632969 0.01433465 0.01756733
v 0.01629089 0.01448491 0.01541183
v 0.01622297 0.01472410 0.01196535
v 0.01470948 0.01595990 0.00749629
v 0.01118284 0.01889148 0.00749629
v 0.01666441 0.01426106 0.00749629
v -0.02219654 0.00660400 0.00749629
v -0.02131851 0.00677573 0.01196535
v -0.01992144 0.00826605 0.01541183
v -0.01873781 0.00952331 0.01833322
v 0.01879883 0.00848990 0.01833322
v 0.02173850 0.00632188 0.01364139
v 0.01929848 0.00993729 0.01541183
v 0.02163178 0.00657640 0.01196535
v 0.02133587 0.00726637 0.00749629
v -0.02312307 0.00484996 0.00749629
v -0.02334136 0.00328298 0.00749629
v -0.02062483 0.00321858 0.01541183
v -0.01899976 0.00764355 0.01833322
v 0.02161723 0.00014595 0.01833322
v 0.02179671 -0.00054401 0.01833322
v 0.02283482 0.00444825 0.01196535
v 0.02275720 0.00474570 0.01196535
v 0.02546888 0.00054153 0.00749629
v -0.02380705 -0.00054708 0.00749629
v -0.02291447 -0.00054708 0.01027447
v -0.02115843 -0.00054708 0.01537576
v -0.01937328 0.00494196 0.01833322
v 0.02285907 -0.00054708 0.01541183
v 0.02412032 -0.00054708 0.01196535
v 0.02404755 -0.00026189 0.01196535
v 0.02273295 -0.00003804 0.01541183
v -0.01945090 -0.00054401 0.01833322
v 0.02575023 -0.00054708 0.00749629
v -0.02113903 -0.00054708 0.01541183
v -0.02113903 -0.00054401 0.01541183
f 1 2 3
f 1 3 4
f 1 4 5
f 1 5 6
f 1 6 7
f 1 7 16
f 1 16 26
f 1 26 25
f 1 25 27
f 1 27 36
f 1 36 45
f 1 45 55
f 1 55 46
f 1 46 38
f 1 38 37
f 1 37 28
f 1 28 17
f 1 17 8
f 1 8 9
f 1 9 10
f 1 10 11
f 1 11 2
f 2 11 10
f 2 10 20
f 2 20 19
f 2 19 31
f 2 31 40
f 2 40 49
f 2 49 54
f 2 54 42
f 2 42 41
f 2 41 32
f 2 32 21
f 2 21 12
f 2 12 4
f 2 4 3
f 4 12 5
f 5 12 13
f 5 13 14
f 5 14 15
f 5 15 6
f 6 15 7
f 7 15 16
f 8 17 18
f 8 18 9
f 9 18 19
f 9 19 20
f 9 20 10
f 12 21 22
f 12 22 13
f 13 22 23
f 13 23 24
f 13 24 14
f 14 25 26
f 14 26 16
f 14 16 15
f 14 24 27
f 14 27 25
f 17 28 18
f 18 28 19
f 19 28 29
f 19 29 30
f 19 30 31
f 21 32 33
f 21 33 34
f 21 34 22
f 22 34 35
f 22 35 36
f 22 36 23
f 23 36 27
f 23 27 24
f 28 37 29
f 29 37 38
f 29 38 39
f 29 39 30
f 30 39 31
f 31 39 40
f 32 41 33
f 33 41 42
f 33 42 43
f 33 43 44
f 33 44 35
f 33 35 34
f 35 44 36
f 36 44 45
f 38 46 47
f 38 47 48
f 38 48 39
f 39 48 40
f 40 48 49
f 42 50 51
f 42 51 52
f 42 52 53
f 42 53 43
f 42 54 56
f 42 56 50
f 43 53 52
f 43 52 55
f 43 55 45
f 43 45 44
f 46 55 51
f 46 51 50
f 46 50 56
f 46 56 48
f 46 48 47
f 48 56 57
f 48 57 49
f 49 57 54
f 51 55 52
f 54 57 56

