# https://github.com/mikedh/trimesh
v 0.00850863 -0.03708777 0.00931554
v 0.00854613 -0.03693618 0.00931554
v 0.00934067 -0.03829303 0.00931554
v 0.00957622 -0.03580502 0.01677631
v 0.00881567 -0.03643994 0.00931554
v 0.01031100 -0.03286223 0.01677631
v 0.01108210 -0.03134903 0.01677631
v 0.00974146 -0.03589407 0.01677631
v 0.02047830 -0.03591039 0.00931554
v 0.01140437 -0.03134903 0.01219687
v 0.01156492 -0.03134903 0.01168122
v 0.01050201 -0.03397844 0.00931554
v 0.01875445 -0.03134903 0.01677631
v 0.01974587 -0.03342170 0.01677631
v 0.01927946 -0.03327554 0.00931554
v 0.01067780 -0.03372284 0.00931554
v 0.01422979 -0.03134903 0.01024020
v 0.01308954 -0.03263450 0.00931554
v 0.01924313 -0.03231773 0.01677631
v 0.01849664 -0.03134903 0.01250728
v 0.01918571 -0.03309132 0.00931554
v 0.01574622 -0.03134903 0.00976618
v 0.01574856 -0.03180041 0.00931554
v 0.01867594 -0.03270316 0.00931554
v 0.01737397 -0.03134903 0.01026795
v 0.01752983 -0.03234968 0.00931554
f 1 2 5
f 1 5 12
f 1 12 16
f 1 16 18
f 1 18 23
f 1 23 26
f 1 26 24
f 1 24 21
f 1 21 15
f 1 15 9
f 1 9 3
f 1 3 4
f 1 4 2
f 2 4 6
f 2 6 7
f 2 7 5
f 3 8 4
f 3 9 8
f 4 8 14
f 4 14 19
f 4 19 13
f 4 13 7
f 4 7 6
f 5 7 10
f 5 10 11
f 5 11 12
f 7 13 20
f 7 20 25
f 7 25 22
f 7 22 17
f 7 17 11
f 7 11 10
f 8 9 14
f 9 15 14
f 11 16 12
f 11 17 18
f 11 18 16
f 13 19 15
f 13 15 20
f 14 15 19
f 15 21 20
f 17 22 23
f 17 23 18
f 20 21 24
f 20 24 25
f 22 25 23
f 23 25 26
f 24 26 25

