# https://github.com/mikedh/trimesh
v -0.01276434 0.01464817 -0.03679510
v -0.01035102 0.00745644 -0.03679510
v -0.01289425 0.01464817 -0.03673395
v -0.00048789 0.01464817 -0.03679510
v -0.01739112 0.01094334 -0.03352376
v -0.00910689 0.00643483 -0.03679510
v -0.02184802 0.00525506 -0.02801718
v -0.02092866 0.01464817 -0.03007578
v 0.00141578 0.01464817 -0.03640444
v -0.00507969 0.00716035 -0.03679510
v -0.02693447 0.00977276 -0.02513310
v -0.02495585 0.01464817 -0.02649871
v -0.00720821 0.00566241 -0.03679510
v -0.02297223 0.00525506 -0.02706941
v -0.00724818 0.00525506 -0.03510338
v -0.00516463 0.00702793 -0.03679510
v 0.00570280 0.01464817 -0.03423374
v 0.00547296 0.01233737 -0.03462440
v -0.02685953 0.00525506 -0.01334881
v -0.02798874 0.01112725 -0.01381760
v -0.02843343 0.01464817 -0.01640613
v -0.02806369 0.01464817 -0.02151866
v -0.02582025 0.00525506 -0.02240189
v -0.00693340 0.00584448 -0.03679510
v 0.00442869 0.00525506 -0.03295646
v 0.01409196 0.01464817 -0.02886983
v 0.01485143 0.01393461 -0.02845879
v 0.01255303 0.00525506 -0.02844860
v 0.00851584 0.00525506 -0.03122737
v -0.02367674 0.00525506 -0.00209445
v -0.02785383 0.01464817 -0.01306006
v -0.02683454 0.01464817 -0.00863034
v 0.01473151 0.01464817 -0.02830253
v 0.01522617 0.01464817 -0.02746686
v 0.02035260 0.00525506 -0.01357981
v 0.01564587 0.00525506 -0.02463374
v -0.02167813 0.01464817 -0.00209445
v -0.02551546 0.01464817 -0.00547110
v 0.02261102 0.00525506 -0.00209445
v 0.01720979 0.01464817 -0.02154924
v 0.02259603 0.00525506 -0.00234244
v 0.01290778 0.01464817 -0.00209445
v 0.01797925 0.01464817 -0.01584902
v 0.02230124 0.00579391 -0.00209445
v 0.02047251 0.00872816 -0.00209445
v 0.01702491 0.01464817 -0.01068554
f 1 2 3
f 1 3 8
f 1 8 12
f 1 12 22
f 1 22 21
f 1 21 31
f 1 31 32
f 1 32 38
f 1 38 37
f 1 37 42
f 1 42 46
f 1 46 43
f 1 43 40
f 1 40 34
f 1 34 33
f 1 33 26
f 1 26 17
f 1 17 9
f 1 9 4
f 1 4 10
f 1 10 16
f 1 16 24
f 1 24 13
f 1 13 6
f 1 6 2
f 2 5 3
f 2 6 7
f 2 7 5
f 3 5 8
f 4 9 10
f 5 7 11
f 5 11 12
f 5 12 8
f 6 13 7
f 7 14 11
f 7 13 15
f 7 15 25
f 7 25 29
f 7 29 28
f 7 28 36
f 7 36 35
f 7 35 41
f 7 41 39
f 7 39 30
f 7 30 19
f 7 19 23
f 7 23 14
f 9 16 10
f 9 17 18
f 9 18 16
f 11 19 20
f 11 20 21
f 11 21 22
f 11 22 12
f 11 14 23
f 11 23 19
f 13 24 25
f 13 25 15
f 16 18 25
f 16 25 24
f 17 26 18
f 18 26 27
f 18 27 28
f 18 28 29
f 18 29 25
f 19 30 20
f 20 31 21
f 20 30 32
f 20 32 31
f 26 33 27
f 27 34 35
f 27 35 36
f 27 36 28
f 27 33 34
f 30 37 38
f 30 38 32
f 30 39 44
f 30 44 45
f 30 45 42
f 30 42 37
f 34 40 35
f 35 40 41
f 39 41 43
f 39 43 44
f 40 43 41
f 42 45 46
f 43 45 44
f 43 46 45

