# https://github.com/mikedh/trimesh
v -0.00048747 0.01464817 -0.03679510
v -0.00508465 0.00716076 -0.03679510
v -0.00393685 0.00832891 -0.03891719
v -0.00710260 0.00683706 -0.04166113
v -0.00790425 0.01252299 -0.04261758
v -0.00669276 0.01464817 -0.04128323
v -0.01276583 0.01464817 -0.03679510
v -0.00516637 0.00702793 -0.03679510
v -0.00721076 0.00566187 -0.03679510
v -0.00910853 0.00643506 -0.03679510
v -0.01043179 0.00873530 -0.03967870
v -0.00870229 0.01464817 -0.04173580
v -0.01035247 0.00745631 -0.03679510
f 1 2 3
f 1 3 4
f 1 4 5
f 1 5 6
f 1 6 12
f 1 12 7
f 1 7 13
f 1 13 10
f 1 10 9
f 1 9 8
f 1 8 2
f 2 8 3
f 3 8 9
f 3 9 4
f 4 9 10
f 4 10 11
f 4 11 5
f 5 11 12
f 5 12 6
f 7 12 11
f 7 11 13
f 10 13 11

