# https://github.com/mikedh/trimesh
v 0.00552911 -0.04245986 0.00322741
v 0.00552911 -0.04186288 0.00039810
v 0.00997961 -0.04022761 0.00341685
v 0.00997961 -0.03798327 0.00931467
v 0.00552911 -0.04233744 0.00354867
v 0.00552911 -0.04130746 0.00089744
v 0.00997961 -0.03655430 0.00638235
v 0.00997961 -0.04020721 0.00332169
v 0.00997961 -0.03474069 0.00931467
v 0.00936797 -0.03827950 0.00931467
v 0.00552911 -0.03866035 0.00620775
v 0.00933965 -0.03829310 0.00931467
v 0.00552911 -0.03865809 0.00553993
v 0.00997961 -0.03558780 0.00745698
v 0.00997961 -0.03614020 0.00679439
v 0.00881427 -0.03644019 0.00931467
v 0.00997961 -0.03550090 0.00764642
v 0.00850714 -0.03708856 0.00931467
v 0.00854505 -0.03693667 0.00931467
f 1 2 3
f 1 3 4
f 1 4 5
f 1 5 11
f 1 11 13
f 1 13 6
f 1 6 2
f 2 6 7
f 2 7 8
f 2 8 3
f 3 8 7
f 3 7 15
f 3 15 14
f 3 14 17
f 3 17 9
f 3 9 4
f 4 9 16
f 4 16 19
f 4 19 18
f 4 18 12
f 4 12 10
f 4 10 5
f 5 10 12
f 5 12 11
f 6 13 14
f 6 14 15
f 6 15 7
f 9 17 13
f 9 13 11
f 9 11 16
f 11 12 18
f 11 18 19
f 11 19 16
f 13 17 14

