# https://github.com/mikedh/trimesh
v 0.00957622 -0.03580479 0.01677704
v 0.01031105 -0.03286231 0.01677704
v 0.00974183 -0.03589430 0.01677704
v 0.00553051 -0.03481312 0.01696164
v 0.00553051 -0.03426998 0.01690766
v 0.01108206 -0.03134836 0.01677704
v 0.00971122 -0.03564256 0.01771937
v 0.00553051 -0.03654372 0.01759275
v 0.01974687 -0.03342172 0.01677704
v 0.00553051 -0.03219001 0.01793596
v 0.01102221 -0.03134836 0.01741481
v 0.01875319 -0.03134836 0.01677704
v 0.01921802 -0.03162602 0.02216046
v 0.01886731 -0.03134836 0.02295618
v 0.00553051 -0.03461885 0.02166597
v 0.01924307 -0.03231715 0.01677704
v 0.01913452 -0.03134836 0.02251966
v 0.00553051 -0.03215136 0.02272559
v 0.01439434 -0.03134836 0.02358462
v 0.01881581 -0.03147142 0.01677704
v 0.00553051 -0.03386924 0.02289553
f 1 2 6
f 1 6 12
f 1 12 20
f 1 20 16
f 1 16 9
f 1 9 3
f 1 3 4
f 1 4 5
f 1 5 2
f 2 5 6
f 3 7 8
f 3 8 4
f 3 9 7
f 4 8 15
f 4 15 21
f 4 21 18
f 4 18 10
f 4 10 5
f 5 10 6
f 6 11 19
f 6 19 14
f 6 14 17
f 6 17 12
f 6 10 11
f 7 9 13
f 7 13 14
f 7 14 8
f 8 14 15
f 9 16 17
f 9 17 13
f 10 18 11
f 11 18 19
f 12 17 20
f 13 17 14
f 14 19 21
f 14 21 15
f 16 20 17
f 18 21 19

