# https://github.com/mikedh/trimesh
v -0.03719720 0.02006140 0.01235464
v -0.03543576 0.01325806 0.02101878
v -0.03645336 0.02519074 0.02612199
v -0.03828313 0.03081830 0.01570939
v -0.03565729 0.02245396 0.00275977
v -0.03267081 0.02057658 0.03364355
v -0.03707052 0.02915742 0.01885531
v -0.03495862 0.03750507 0.00430916
v -0.03568122 0.03545009 0.00871124
v -0.03316642 -0.01165330 -0.00303482
v -0.03499347 0.01539073 0.01743576
v -0.03048490 0.01011436 -0.01331165
v -0.03244136 -0.00584978 -0.01118944
v -0.03331352 0.02618632 0.00074427
v -0.03441010 0.00788247 -0.00155712
v -0.03215102 -0.01113437 0.00099325
v -0.03332281 0.00485133 0.00846070
v -0.03066798 0.00966796 0.03052192
v -0.03400384 0.01200908 0.00153602
v -0.02959973 0.01161167 0.03086464
v -0.02640779 -0.02325549 0.00895481
v 0.00448228 0.00307585 0.01039494
v -0.02254515 0.01466454 -0.00890951
v -0.03207045 0.00476729 0.00871595
v -0.03102603 -0.01949563 -0.01269027
v -0.02709149 -0.02311081 0.00616935
v -0.03139112 -0.00144454 0.01710988
v -0.02755600 0.01654182 -0.01204940
v -0.02877680 -0.03270444 -0.00812614
v -0.02746494 -0.01769257 -0.02568435
v -0.02646712 0.02815756 -0.01213716
v -0.02765177 0.04283495 -0.00352453
v -0.02896270 -0.00079595 0.01922894
v -0.02563690 0.00485481 -0.02106326
v -0.00779346 0.01564181 -0.01072805
v -0.02913707 -0.03536862 -0.02075252
v -0.02673738 0.01604746 -0.01103940
v -0.02672350 0.01510892 0.04102984
v -0.02476257 0.01547925 0.04136372
v -0.02566378 0.03170038 -0.00959508
v -0.02744595 -0.03229134 -0.02995932
v -0.00687850 0.00025799 0.01578968
v -0.02674149 -0.03968213 -0.02524286
v -0.02773134 -0.03615091 -0.00988988
v -0.02568872 -0.02093655 -0.03079154
v -0.02102763 -0.00662219 0.02976722
v -0.02472989 -0.04551536 -0.01010642
v -0.02808600 -0.03676121 -0.02294432
v -0.02505422 -0.00119362 0.02726293
v -0.02006237 0.00694785 -0.02707024
v -0.01943826 0.04621936 -0.00918684
v -0.02465273 -0.04131966 -0.02367377
v -0.02466300 -0.04484207 -0.01230866
v -0.02186232 -0.00756417 0.02775815
v -0.02041717 -0.04681810 -0.01736365
v -0.01925615 -0.03699079 -0.03437234
v -0.01410203 -0.02695066 0.01776534
v -0.02125431 -0.03217066 -0.03757394
v -0.02306656 -0.03195312 -0.03516622
v -0.01792304 -0.00656996 0.02955837
v -0.01866716 0.00818417 0.04119885
v -0.01877971 0.02148484 -0.01935036
v -0.01765797 0.00555636 0.04188368
v -0.01482192 0.01235975 0.04733232
v -0.01422278 0.03760238 -0.01552278
v -0.01663603 -0.02513381 -0.04207400
v -0.01630784 -0.00603572 -0.03425857
v -0.01731515 0.01633772 -0.02421070
v -0.01637648 -0.04374281 0.00328506
v -0.01965790 -0.04680106 -0.00446533
v -0.01560673 -0.03307067 -0.03884374
v -0.01560518 -0.02498958 -0.04235053
v -0.01567428 -0.05168088 -0.00378534
v 0.00323564 -0.04311806 -0.01964459
v -0.01784770 -0.04922610 -0.01060704
v -0.01209531 0.02217022 -0.02200695
v -0.01105132 0.03086534 -0.02140101
v -0.00322922 -0.04267204 -0.02077729
v -0.00960652 -0.05151664 -0.00015132
v -0.01170427 -0.02873005 -0.04400423
v -0.00700722 -0.00869276 0.03201664
v -0.00784986 -0.00178854 -0.03682490
v -0.00756384 0.00280744 0.04248535
v -0.00693778 -0.01194965 0.03300828
v -0.00773463 -0.02510313 0.02302612
v -0.00743413 -0.05296242 -0.00476638
v -0.00594301 -0.05190350 0.00174985
v -0.00673544 0.00845896 -0.03230061
v -0.00654232 0.00941314 0.04940921
v -0.00819844 -0.05309545 -0.00553167
v -0.00216284 0.00110858 0.04396476
v -0.00289881 0.02438875 -0.02416939
v -0.00255660 -0.03427052 0.01589365
v -0.00056992 -0.03023943 -0.04389216
v -0.00221918 -0.02410702 -0.04633212
v -0.00496124 -0.02460541 -0.04667870
v -0.00591450 -0.01358129 -0.04185911
v 0.00074666 0.04867883 -0.01366932
v -0.00234116 -0.03031582 -0.04409147
v -0.00144186 0.02899323 -0.02406734
v -0.00257738 0.03541766 -0.01962077
v 0.00409261 -0.05309596 -0.00067289
v 0.00466104 -0.02134535 -0.04564251
v 0.00172581 0.02299657 -0.02454201
v -0.00171134 0.04893407 -0.01495185
v 0.00784302 -0.01521525 0.03050906
v 0.00653866 -0.00809449 0.03447969
v 0.00431090 -0.05298562 -0.00578951
v 0.00492411 -0.05052173 0.00344350
v 0.00544265 -0.00546191 -0.03861754
v 0.00512704 0.00326826 0.04336261
v 0.00628301 0.01065231 0.05004865
v 0.00410281 -0.05402947 -0.00199938
v 0.00624377 0.00350027 -0.03481262
v 0.00847636 -0.05250056 -0.00814915
v 0.00727944 -0.02673765 -0.04559791
v 0.00766927 -0.01097154 0.03349284
v 0.00466143 0.01971081 -0.02746963
v 0.00759028 -0.02699423 -0.04567464
v 0.00676920 0.03665346 -0.01824733
v 0.00838690 -0.03728127 0.01235861
v 0.01176397 -0.03277950 -0.04101017
v 0.00987385 0.03620489 -0.01925748
v 0.00901847 0.04869520 -0.01327220
v 0.01164465 0.02328991 -0.02261642
v 0.01606716 -0.03168807 -0.03976964
v 0.01590392 -0.00184058 -0.03322799
v 0.01445759 -0.05104592 -0.00344456
v 0.01593256 0.01117691 0.04714397
v 0.01416982 -0.05131238 -0.00327521
v 0.01690228 0.00315370 -0.03008158
v 0.01462348 0.00437656 0.04071283
v 0.01576921 -0.01277134 0.02745641
v 0.01882601 0.01933440 -0.02207338
v 0.01886707 -0.04479711 -0.01926901
v 0.01619161 -0.03668059 0.00915442
v 0.01689478 0.04435732 -0.01075226
v 0.01777099 -0.04854381 -0.01235451
v 0.01611229 -0.02490713 -0.04186064
v 0.02443628 0.01566345 0.04148419
v 0.02206311 -0.01057758 0.02536707
v 0.01585052 -0.02615245 -0.04268346
v 0.01854370 0.02817708 -0.01688170
v 0.02072818 -0.02630777 0.01235875
v 0.02467515 -0.00728897 0.02400042
v 0.02204995 -0.00489969 0.02746174
v 0.02410923 0.00583015 0.03376073
v 0.02272024 0.01766623 -0.01564313
v 0.02115369 0.04014084 -0.01179450
v 0.02277264 -0.02146345 -0.03469075
v 0.02554797 0.00882460 0.00016479
v 0.02228042 -0.03818864 -0.02956028
v 0.02094330 -0.04748889 -0.00576965
v 0.02777893 -0.02075510 0.00782720
v 0.02165468 -0.03048504 -0.03824520
v 0.02368066 -0.01125780 -0.02943375
v 0.02513075 0.03708584 -0.00725628
v 0.02302859 -0.04578339 -0.00892129
v 0.02137436 -0.03718226 -0.03246903
v 0.02523187 0.02766491 -0.01324345
v 0.02474583 0.01728133 -0.01511940
v 0.02113412 -0.04848593 -0.01144668
v 0.02344496 -0.02962562 -0.03505967
v 0.02621472 -0.02885091 0.00234240
v 0.02673808 -0.04104705 -0.02018452
v 0.02780082 -0.03997656 -0.02165054
v 0.02957526 0.04149470 -0.00117634
v 0.02457887 0.01027962 0.03932232
v 0.02632361 -0.04315863 -0.01298101
v 0.02860389 0.00967807 -0.01599506
v 0.02678750 0.01052080 -0.01733300
v 0.02807231 0.02028214 -0.01016858
v 0.02681772 -0.03360639 -0.03050163
v 0.02859319 -0.01878832 -0.02307192
v 0.03216390 0.01698666 0.03325295
v 0.02833697 -0.03260736 -0.00819466
v 0.02735266 -0.03523649 -0.02613237
v 0.03104340 -0.00974471 -0.01626950
v 0.03024345 0.00028916 0.01620029
v 0.03022423 0.01260399 -0.00673044
v 0.03152765 -0.00133614 0.01573623
v 0.03109600 0.01128537 0.02634167
v 0.03098867 -0.02057841 -0.00333595
v 0.02958821 -0.02488599 -0.01594269
v 0.03229278 -0.00956238 0.00392894
v 0.03123533 0.01303366 -0.00508339
v 0.03259108 0.02145463 -0.00097426
v 0.03327190 0.03323492 0.00431251
v 0.03168330 0.03666029 -0.00149139
v 0.03266025 0.00489345 0.00612906
v 0.03299977 0.00256106 -0.00481892
v 0.03371155 0.00635871 0.00805308
v 0.03489516 0.00667169 0.00259705
v 0.03513039 0.02186191 0.02334708
v 0.03545105 0.03423599 0.00595870
v 0.03478303 0.00751330 0.01452206
v 0.03545482 0.02245641 0.01207319
v 0.03706380 0.03172081 0.01518373
f 68 34 67
f 112 89 91
f 137 120 143
f 11 33 24
f 103 96 82
f 125 92 35
f 121 128 102
f 170 127 160
f 11 14 7
f 191 180 174
f 91 89 85
f 39 6 38
f 93 102 79
f 98 124 105
f 110 97 95
f 36 43 47
f 107 111 132
f 90 73 55
f 195 193 170
f 81 42 60
f 137 124 120
f 164 158 144
f 182 179 147
f 1 5 13
f 21 47 69
f 138 152 74
f 198 195 188
f 120 101 92
f 27 17 22
f 117 84 22
f 14 37 40
f 117 93 84
f 95 71 94
f 145 144 133
f 16 44 25
f 28 15 34
f 36 41 43
f 181 22 190
f 189 160 167
f 86 75 79
f 78 122 159
f 175 154 196
f 107 81 83
f 154 183 196
f 132 146 107
f 6 20 3
f 37 62 40
f 191 174 184
f 110 116 131
f 98 101 120
f 106 85 109
f 153 162 169
f 16 26 44
f 155 159 122
f 27 26 16
f 31 50 12
f 89 83 64
f 75 52 53
f 167 160 149
f 157 137 143
f 142 119 103
f 43 41 56
f 25 30 15
f 153 130 162
f 44 48 25
f 50 66 45
f 17 16 15
f 154 153 169
f 109 87 113
f 183 169 166
f 187 172 186
f 39 38 64
f 108 138 74
f 176 158 164
f 49 33 20
f 10 13 41
f 20 33 11
f 187 186 192
f 120 92 125
f 181 185 164
f 188 187 197
f 95 72 71
f 133 144 121
f 7 14 9
f 142 122 119
f 154 169 183
f 23 15 28
f 21 29 47
f 46 21 69
f 176 165 158
f 180 191 190
f 78 56 99
f 42 24 33
f 150 142 127
f 27 16 17
f 189 170 160
f 89 63 85
f 194 175 196
f 80 56 58
f 44 26 53
f 114 103 82
f 83 60 61
f 147 179 146
f 157 172 187
f 32 31 8
f 51 31 32
f 162 135 166
f 10 41 36
f 127 103 114
f 38 18 46
f 174 163 177
f 45 58 41
f 13 45 41
f 112 111 89
f 79 75 70
f 105 77 51
f 163 152 177
f 63 46 85
f 55 47 43
f 133 121 117
f 2 10 21
f 7 4 3
f 140 182 147
f 179 151 42
f 75 53 70
f 42 35 24
f 119 99 96
f 44 53 48
f 35 37 19
f 107 42 81
f 128 138 108
f 136 106 109
f 122 99 119
f 106 91 85
f 61 20 39
f 3 1 2
f 104 118 134
f 152 126 74
f 74 75 86
f 66 58 45
f 149 127 123
f 6 2 18
f 5 12 13
f 104 76 88
f 161 22 134
f 150 155 142
f 183 178 193
f 77 31 51
f 171 134 131
f 114 82 100
f 30 72 34
f 67 72 97
f 130 115 162
f 167 157 188
f 178 150 170
f 144 128 121
f 52 59 48
f 29 36 47
f 83 81 60
f 135 78 159
f 185 176 164
f 120 125 143
f 3 11 7
f 99 56 80
f 131 116 139
f 90 55 78
f 195 189 167
f 129 168 140
f 179 192 151
f 129 140 112
f 121 102 93
f 42 151 35
f 175 194 182
f 30 59 72
f 161 134 171
f 166 159 173
f 78 115 90
f 147 146 132
f 116 94 126
f 127 142 103
f 105 100 77
f 124 98 120
f 80 58 66
f 11 19 14
f 174 171 156
f 8 31 12
f 149 160 127
f 198 197 194
f 22 76 104
f 100 82 77
f 134 118 131
f 175 168 141
f 15 16 25
f 190 191 185
f 84 93 57
f 174 177 184
f 1 10 2
f 82 66 50
f 49 60 33
f 61 49 20
f 167 137 157
f 154 136 153
f 48 59 30
f 26 57 70
f 139 116 126
f 175 182 140
f 4 5 1
f 35 92 62
f 129 112 106
f 179 42 146
f 184 176 185
f 35 148 125
f 71 72 59
f 165 138 158
f 82 50 77
f 98 105 51
f 112 91 106
f 136 130 153
f 145 133 117
f 12 45 13
f 166 135 159
f 148 35 151
f 127 114 123
f 145 164 144
f 195 170 189
f 97 72 95
f 145 117 22
f 155 122 142
f 84 57 54
f 8 12 5
f 132 111 112
f 54 26 27
f 184 177 165
f 14 19 37
f 34 68 28
f 51 65 98
f 109 85 87
f 173 159 155
f 78 99 122
f 98 65 101
f 96 80 66
f 96 66 82
f 178 173 150
f 134 22 104
f 102 128 108
f 141 154 175
f 88 67 97
f 188 157 187
f 64 38 63
f 165 152 138
f 145 22 181
f 76 28 68
f 74 52 75
f 15 23 17
f 25 48 30
f 51 32 40
f 35 19 24
f 130 109 113
f 180 22 161
f 87 69 73
f 22 54 27
f 137 149 123
f 162 115 135
f 22 180 190
f 196 183 193
f 121 93 117
f 178 166 173
f 46 18 21
f 170 150 127
f 89 111 83
f 156 139 163
f 169 162 166
f 177 152 165
f 187 192 197
f 14 40 32
f 136 154 141
f 124 100 105
f 92 65 62
f 18 2 21
f 11 24 19
f 129 106 141
f 55 56 78
f 32 8 9
f 144 158 128
f 167 149 137
f 183 166 178
f 102 108 86
f 140 132 112
f 140 168 175
f 131 118 110
f 186 151 192
f 158 138 128
f 71 59 52
f 9 14 32
f 93 79 57
f 57 79 70
f 180 171 174
f 74 94 71
f 104 88 118
f 74 71 52
f 61 60 49
f 115 78 135
f 143 148 172
f 7 9 4
f 64 61 39
f 15 30 34
f 77 50 31
f 51 40 65
f 85 46 69
f 194 197 192
f 123 114 100
f 1 13 10
f 87 73 90
f 163 139 126
f 161 171 180
f 103 119 96
f 40 62 65
f 194 196 193
f 193 178 170
f 9 8 4
f 35 62 37
f 54 57 26
f 88 68 67
f 53 52 48
f 190 185 181
f 167 188 195
f 87 90 113
f 60 42 33
f 118 88 110
f 96 99 80
f 83 61 64
f 113 90 115
f 69 47 73
f 163 126 152
f 85 69 87
f 146 42 107
f 172 148 186
f 157 143 172
f 143 125 148
f 110 88 97
f 101 65 92
f 141 106 136
f 184 165 176
f 131 156 171
f 191 184 185
f 150 173 155
f 116 95 94
f 181 164 145
f 73 47 55
f 194 193 198
f 6 3 2
f 23 28 76
f 156 131 139
f 186 148 151
f 192 179 182
f 23 76 22
f 137 123 124
f 111 107 83
f 39 20 6
f 102 86 79
f 10 36 29
f 10 29 21
f 76 68 88
f 156 163 174
f 3 4 1
f 3 20 11
f 55 43 56
f 198 193 195
f 123 100 124
f 129 141 168
f 194 192 182
f 41 58 56
f 12 50 45
f 70 53 26
f 110 95 116
f 147 132 140
f 198 188 197
f 130 113 115
f 84 54 22
f 126 94 74
f 108 74 86
f 22 17 23
f 4 8 5
f 38 46 63
f 6 18 38
f 136 109 130
f 89 64 63
f 67 34 72

