# https://github.com/mikedh/trimesh
v 0.04913327 -0.02838438 0.06769945
v 0.05045049 -0.02798615 0.06769945
v 0.04913327 -0.02812420 0.06968571
v 0.04913327 -0.02828880 0.06568105
v 0.05045049 -0.02798615 0.06579675
v 0.05235725 -0.02750827 0.06579675
v 0.05531871 -0.02669588 0.06523751
v 0.05441599 -0.02692419 0.06584175
v 0.05515290 -0.02664809 0.06651026
v 0.05235725 -0.02739676 0.06769945
v 0.05393700 -0.02688172 0.06769945
v 0.05357315 -0.02676490 0.06897862
v 0.05238949 -0.02699853 0.06960857
v 0.05304350 -0.02656313 0.07025137
v 0.05177693 -0.02680207 0.07081060
v 0.04913327 -0.02738614 0.07149840
v 0.04913327 -0.02803925 0.06388763
v 0.05045049 -0.02777907 0.06388763
v 0.05235725 -0.02738614 0.06388763
v 0.05518975 -0.02666401 0.06301985
v 0.05443902 -0.02689233 0.06375264
v 0.05531871 -0.02669588 0.06429259
v 0.05603720 -0.02639322 0.06584175
v 0.05807291 -0.02581445 0.06388763
v 0.05489038 -0.02654720 0.06769945
v 0.05807291 -0.02563923 0.06579675
v 0.05422716 -0.02627640 0.06960857
v 0.05616615 -0.02602684 0.06769945
v 0.05813739 -0.02517197 0.06770587
v 0.05754786 -0.02497551 0.06909432
v 0.05623985 -0.02532595 0.06967928
v 0.05565032 -0.02499144 0.07087488
v 0.05238949 -0.02610118 0.07147269
v 0.05079592 -0.02639853 0.07208335
v 0.04952475 -0.02667464 0.07247546
v 0.04913327 -0.02704632 0.07209621
v 0.04913327 -0.02758261 0.06198494
v 0.05045049 -0.02734897 0.06198494
v 0.05245857 -0.02695605 0.06184995
v 0.05392318 -0.02680738 0.06239633
v 0.05603720 -0.02645694 0.06375264
v 0.05616615 -0.02621269 0.06198494
v 0.05962964 -0.02493834 0.06008224
v 0.05807291 -0.02570295 0.06198494
v 0.06012705 -0.02506577 0.06387477
v 0.06085936 -0.02473126 0.06449829
v 0.06098832 -0.02478436 0.06247346
v 0.06098832 -0.02478436 0.06322554
v 0.06015008 -0.02503923 0.06189495
v 0.05962964 -0.02501268 0.06579675
v 0.05926118 -0.02486400 0.06707592
v 0.05881904 -0.02465161 0.06834868
v 0.06124623 -0.02303744 0.06895933
v 0.05692149 -0.02464630 0.07036065
v 0.05928421 -0.02300028 0.07073990
v 0.05637802 -0.02392949 0.07166553
v 0.05470615 -0.02448701 0.07214121
v 0.05343498 -0.02482683 0.07253975
v 0.05414886 -0.02526224 0.07151126
v 0.05235725 -0.02508701 0.07280329
v 0.05019257 -0.02560206 0.07329182
v 0.04959383 -0.02480560 0.07441030
v 0.04913327 -0.02531534 0.07408246
v 0.04913327 -0.02675428 0.07256545
v 0.04913327 -0.02694012 0.06015938
v 0.05045049 -0.02687641 0.06050006
v 0.05189668 -0.02674897 0.06080218
v 0.05316785 -0.02664278 0.06112358
v 0.05443902 -0.02656313 0.06184995
v 0.05922433 -0.02480560 0.05898948
v 0.06188182 -0.02394541 0.05817312
v 0.06057841 -0.02467816 0.06008224
v 0.06090081 -0.02475250 0.06120715
v 0.06393135 -0.02331886 0.06395191
v 0.06188182 -0.02396665 0.06579675
v 0.06057841 -0.02460383 0.06579675
v 0.06172523 -0.02439674 0.06387477
v 0.06488934 -0.02293656 0.06335410
v 0.06599010 -0.02261797 0.05817312
v 0.06927396 -0.02124274 0.05627043
v 0.06759749 -0.02199142 0.05817312
v 0.06515186 -0.02302682 0.06008224
v 0.06610524 -0.02262328 0.06008224
v 0.06378858 -0.02359497 0.06198494
v 0.06305166 -0.02297904 0.06701165
v 0.05992901 -0.02431710 0.06770587
v 0.06188182 -0.02331355 0.06766731
v 0.06251740 -0.02265514 0.06828439
v 0.06478341 -0.02097725 0.06869578
v 0.06203841 -0.02200735 0.06975641
v 0.06055078 -0.02263390 0.07022566
v 0.06155942 -0.02136487 0.07101630
v 0.05710572 -0.02284629 0.07245618
v 0.05807291 -0.02335603 0.07116415
v 0.05583455 -0.02321798 0.07285471
v 0.05476603 -0.02260735 0.07412747
v 0.05349485 -0.02295249 0.07445529
v 0.04913327 -0.02490117 0.07448743
v 0.05326918 -0.02093478 0.07626157
v 0.04913327 -0.02662685 0.05938802
v 0.05045049 -0.02649941 0.05954872
v 0.06188182 -0.02297904 0.05502339
v 0.06295034 -0.02288346 0.05524837
v 0.06188182 -0.02341975 0.05627043
v 0.06421690 -0.02274010 0.05578190
v 0.06486171 -0.02289939 0.05705465
v 0.06504133 -0.02296842 0.05817312
v 0.06465905 -0.02281443 0.06462685
v 0.06341552 -0.02317019 0.06579675
v 0.06505514 -0.02300558 0.06198494
v 0.06875812 -0.02106221 0.06198494
v 0.06600852 -0.02253301 0.06198494
v 0.06908052 -0.02121619 0.06008224
v 0.07003389 -0.02072238 0.06008224
v 0.06759749 -0.02185868 0.05627043
v 0.06990954 -0.02078079 0.05436774
v 0.07140639 -0.02020734 0.05436774
v 0.07022733 -0.02085513 0.05627043
v 0.06926475 -0.02127460 0.05817312
v 0.07021812 -0.02083920 0.05817312
v 0.06436890 -0.02263390 0.06579675
v 0.06585193 -0.02166221 0.06593817
v 0.06659345 -0.02091354 0.06666453
v 0.06372871 -0.02221974 0.06766731
v 0.06521174 -0.02125867 0.06769945
v 0.06616051 -0.02062150 0.06769945
v 0.06695729 -0.01927813 0.06895933
v 0.06283059 -0.02094539 0.07055348
v 0.06063828 -0.02074893 0.07228905
v 0.05645171 -0.02209230 0.07360037
v 0.05580230 -0.02133832 0.07471241
v 0.05418110 -0.02194363 0.07500167
v 0.05425940 -0.02067991 0.07604944
v 0.04915169 -0.02271886 0.07617158
v 0.04913327 -0.02272417 0.07617158
v 0.05425940 -0.01972415 0.07679509
v 0.05534634 -0.01724980 0.07826710
v 0.05425940 -0.01849228 0.07774644
v 0.05425940 -0.01753652 0.07847923
v 0.05372053 -0.01543386 0.08022765
v 0.05013270 -0.01936839 0.07842138
v 0.04913327 -0.02017548 0.07812569
v 0.04913327 -0.02658968 0.05930445
v 0.06508277 -0.02100911 0.05138513
v 0.06188182 -0.02259142 0.05407847
v 0.06635395 -0.02090292 0.05164868
v 0.06759749 -0.02077548 0.05202794
v 0.06759749 -0.02110469 0.05298571
v 0.06569073 -0.02198080 0.05436774
v 0.06863837 -0.02097725 0.05333925
v 0.06896077 -0.02109938 0.05436774
v 0.06856468 -0.02096132 0.06296843
v 0.07140639 -0.01993654 0.06008224
v 0.07140639 -0.02022327 0.05817312
v 0.07291706 -0.01938432 0.05817312
v 0.07140639 -0.01986220 0.05246504
v 0.07291245 -0.01928875 0.05246504
v 0.07312892 -0.01942680 0.05436774
v 0.07386583 -0.01888520 0.05246504
v 0.07140639 -0.02031353 0.05627043
v 0.07309669 -0.01945335 0.05627043
v 0.06697111 -0.02115778 0.06539179
v 0.06872127 -0.01917193 0.06697308
v 0.06759749 -0.01962326 0.06764802
v 0.07081226 -0.01928875 0.06354052
v 0.07043459 -0.01902857 0.06480683
v 0.06822847 -0.01878963 0.06824583
v 0.06900222 -0.01752059 0.06906861
v 0.06625262 -0.01871529 0.07022566
v 0.06498145 -0.01921972 0.07073347
v 0.06378858 -0.01964981 0.07115772
v 0.06218579 -0.02021265 0.07172981
v 0.06280756 -0.01902326 0.07244975
v 0.05707348 -0.02091884 0.07433959
v 0.05634117 -0.02012238 0.07542592
v 0.05560426 -0.01933122 0.07649940
v 0.05431467 -0.01611882 0.07951415
v 0.05687543 -0.01885335 0.07613301
v 0.06104819 -0.01533297 0.07634513
v 0.05498710 -0.01509934 0.07999624
v 0.05312639 -0.01326216 0.08195036
v 0.04966292 -0.01722325 0.08014408
v 0.04913327 -0.01778077 0.07989982
v 0.04913327 -0.01957547 0.07857565
v 0.04913327 -0.02603215 0.05828882
v 0.06674543 -0.01905512 0.04768259
v 0.06801200 -0.01899140 0.04782401
v 0.06950425 -0.01887989 0.04811327
v 0.06950425 -0.01982503 0.05056235
v 0.06950425 -0.01926751 0.04907105
v 0.07075699 -0.01912414 0.04939888
v 0.07260387 -0.01914007 0.05118586
v 0.07202816 -0.01895423 0.04991312
v 0.06824228 -0.02074362 0.06423474
v 0.07262229 -0.01921441 0.06008224
v 0.07241504 -0.01908167 0.06113644
v 0.07387044 -0.01878963 0.05817312
v 0.07405005 -0.01891706 0.05627043
v 0.07637133 -0.01722856 0.04926389
v 0.07521530 -0.01796130 0.05056235
v 0.07408230 -0.01895423 0.05436774
v 0.07521530 -0.01824803 0.05246504
v 0.07659240 -0.01735068 0.05056235
v 0.07079384 -0.01740909 0.06715949
v 0.07009377 -0.01875777 0.06579675
v 0.07142021 -0.01775422 0.06574532
v 0.07207882 -0.01883742 0.06240276
v 0.07142942 -0.01860910 0.06406119
v 0.07252097 -0.01727103 0.06507038
v 0.07027339 -0.01694714 0.06842581
v 0.06960096 -0.01628342 0.06969213
v 0.06826531 -0.01688873 0.07033493
v 0.06699414 -0.01744095 0.07080418
v 0.06554335 -0.01797192 0.07140841
v 0.06378858 -0.01861972 0.07210907
v 0.06483407 -0.01722856 0.07253332
v 0.06461760 -0.01512589 0.07428817
v 0.06335104 -0.01565155 0.07469313
v 0.06231936 -0.01480199 0.07595945
v 0.06307930 -0.01353296 0.07641584
v 0.06176207 -0.01421261 0.07671153
v 0.05571940 -0.01383030 0.08039478
v 0.05425940 -0.01284800 0.08171895
v 0.06070276 -0.01314003 0.07805499
v 0.04913327 -0.01732944 0.08022122
v 0.05344880 -0.00964621 0.08396233
v 0.05235725 -0.00994886 0.08415517
v 0.04913327 -0.00917364 0.08562718
v 0.04913327 -0.01040550 0.08486868
v 0.04913327 -0.01166392 0.08405232
v 0.04913327 -0.01214711 0.08373735
v 0.04913327 -0.01258782 0.08344166
v 0.04913327 -0.01412765 0.08240032
v 0.04913327 -0.02509232 0.05668182
v 0.06569073 -0.01907636 0.04764403
v 0.06759749 -0.01753652 0.04517567
v 0.06746852 -0.01857193 0.04693052
v 0.06950425 -0.01745157 0.04526566
v 0.06950425 -0.01823741 0.04675053
v 0.07140639 -0.01730289 0.04550350
v 0.07140639 -0.01788697 0.04675053
v 0.07139718 -0.01869936 0.04872393
v 0.07592458 -0.01705864 0.04799757
v 0.07330854 -0.01813122 0.04865323
v 0.07357106 -0.01854007 0.06008224
v 0.07480539 -0.01758962 0.06008224
v 0.07448299 -0.01733475 0.06147712
v 0.07328551 -0.01808343 0.06193994
v 0.07663385 -0.01745157 0.05436774
v 0.07640818 -0.01731882 0.05627043
v 0.07624237 -0.01720201 0.05745318
v 0.07532583 -0.01773299 0.05812170
v 0.07521530 -0.01831175 0.05436774
v 0.07711745 -0.01623563 0.04675053
v 0.07704836 -0.01678254 0.04864037
v 0.07998219 -0.01523739 0.04768259
v 0.07672136 -0.01745688 0.05246504
v 0.07754578 -0.01687811 0.05056235
v 0.07902421 -0.01585864 0.04865323
v 0.07206040 -0.01688342 0.06634313
v 0.07406848 -0.01505155 0.06649741
v 0.07416060 -0.01705333 0.06274344
v 0.07287560 -0.01755776 0.06388763
v 0.07452445 -0.01547102 0.06522465
v 0.07329472 -0.01617722 0.06578390
v 0.07382899 -0.01677192 0.06388763
v 0.07469946 -0.01378252 0.06713378
v 0.07019971 -0.01495598 0.07032207
v 0.06893314 -0.01561970 0.07088131
v 0.06809029 -0.01484978 0.07215406
v 0.06879036 -0.01358075 0.07265545
v 0.06530846 -0.01385685 0.07475740
v 0.06384845 -0.01432942 0.07536164
v 0.06374252 -0.01233826 0.07677580
v 0.06197393 -0.01245508 0.07775287
v 0.06434587 -0.01294888 0.07603016
v 0.05526805 -0.01148339 0.08202107
v 0.06140283 -0.01187100 0.07845995
v 0.05425940 -0.01189755 0.08227176
v 0.05415807 -0.00841434 0.08416802
v 0.05249081 -0.00680548 0.08558862
v 0.05130715 -0.00753823 0.08576860
v 0.05003598 -0.00795770 0.08598073
v 0.04913327 -0.00830815 0.08609001
v 0.04913327 -0.00906744 0.08568504
v 0.06092844 -0.00951877 0.08008624
v 0.05908156 -0.00767097 0.08202107
v 0.05982308 -0.00647627 0.08222034
v 0.04913327 -0.02450825 0.05573047
v 0.06759749 -0.01692059 0.04421789
v 0.06950425 -0.01687811 0.04431431
v 0.07140639 -0.01677192 0.04455215
v 0.07251637 -0.01718608 0.04570919
v 0.07627922 -0.01335242 0.04004611
v 0.07521530 -0.01495067 0.04255946
v 0.07321183 -0.01743033 0.04675053
v 0.07465341 -0.01727103 0.04738691
v 0.07603511 -0.01702678 0.05872593
v 0.07575877 -0.01676661 0.06008224
v 0.07643581 -0.01548695 0.06159925
v 0.07613184 -0.01520553 0.06286558
v 0.07767474 -0.01689935 0.05246504
v 0.07920843 -0.01584802 0.05260646
v 0.07758723 -0.01678785 0.05436774
v 0.07996377 -0.01522146 0.05333282
v 0.07838862 -0.01536483 0.04545850
v 0.07902421 -0.01550288 0.04693052
v 0.07965979 -0.01509934 0.04641628
v 0.08228504 -0.01361791 0.04675053
v 0.08006509 -0.01529580 0.04865323
v 0.08186592 -0.01332057 0.04392220
v 0.08211002 -0.01347986 0.04519495
v 0.07902421 -0.01603386 0.05056235
v 0.07524754 -0.01432411 0.06584817
v 0.07596603 -0.01308163 0.06647812
v 0.07491132 -0.01582147 0.06388763
v 0.07586470 -0.01493474 0.06388763
v 0.07640818 -0.01359136 0.06520537
v 0.07526135 -0.01240198 0.06774444
v 0.07076160 -0.01368694 0.07084917
v 0.06949503 -0.01426570 0.07149840
v 0.07060500 -0.01159489 0.07259116
v 0.06945357 -0.01229047 0.07302827
v 0.06853244 -0.01140905 0.07435887
v 0.06777710 -0.01252941 0.07406961
v 0.07005693 -0.01286924 0.07211550
v 0.06496763 -0.01167985 0.07642227
v 0.06267399 -0.01125507 0.07808712
v 0.05807291 -0.00666212 0.08300456
v 0.05819726 -0.00494706 0.08369236
v 0.05711953 -0.00570636 0.08389162
v 0.05425940 -0.00666212 0.08483654
v 0.05321391 -0.00557361 0.08575575
v 0.05194274 -0.00626919 0.08604501
v 0.05058406 -0.00680548 0.08632784
v 0.04913327 -0.00660371 0.08688708
v 0.06202459 -0.00875417 0.07982911
v 0.06275230 -0.00751699 0.08003481
v 0.06148113 -0.00824443 0.08041406
v 0.06093765 -0.00571698 0.08199535
v 0.06035273 -0.00698601 0.08168038
v 0.06325431 -0.00998603 0.07843424
v 0.04913327 -0.02362683 0.05436774
v 0.06569073 -0.01690466 0.04423075
v 0.06759749 -0.01602324 0.04293872
v 0.06950425 -0.01528518 0.04192309
v 0.06950425 -0.01597545 0.04293872
v 0.04913327 -0.02293125 0.05331354
v 0.07062803 -0.01525863 0.04195523
v 0.07131888 -0.01571527 0.04280373
v 0.07521530 -0.01343207 0.03992398
v 0.07704836 -0.01477013 0.04306085
v 0.07636672 -0.01529049 0.04377436
v 0.07763789 -0.01512058 0.04419218
v 0.07378293 -0.01700555 0.04611416
v 0.07711745 -0.01174888 0.03769988
v 0.07699770 -0.01276304 0.03929403
v 0.07755039 -0.01323030 0.04027109
v 0.07798793 -0.01515244 0.05891234
v 0.07978875 -0.01506748 0.05436774
v 0.07824124 -0.01538607 0.05764602
v 0.07678124 -0.01581616 0.06008224
v 0.07773461 -0.01490819 0.06008224
v 0.07723720 -0.01440907 0.06223563
v 0.07803859 -0.01328871 0.06286558
v 0.08012958 -0.01534359 0.05056235
v 0.08006970 -0.01530642 0.05206008
v 0.08225279 -0.01365508 0.05056235
v 0.08206397 -0.01350110 0.05246504
v 0.08191658 -0.01336304 0.05351281
v 0.07902421 -0.01413296 0.04293872
v 0.08005128 -0.01335774 0.04192309
v 0.07902421 -0.01488164 0.04483498
v 0.08111058 -0.01389933 0.04467428
v 0.08323842 -0.01290640 0.04675053
v 0.08233110 -0.01369225 0.04865323
v 0.08101848 -0.01464270 0.04865323
v 0.08437602 -0.01186569 0.04484141
v 0.08049342 -0.01357013 0.04293872
v 0.08144680 -0.01315065 0.04293872
v 0.08283772 -0.01180728 0.04107459
v 0.08347331 -0.01128162 0.04047036
v 0.08393387 -0.01151524 0.04174311
v 0.08416416 -0.01167454 0.04293872
v 0.08511293 -0.01102675 0.04293872
v 0.07642660 -0.01181259 0.06707592
v 0.07705297 -0.01228516 0.06568747
v 0.07679965 -0.01397898 0.06388763
v 0.07775304 -0.01287455 0.06388763
v 0.07844850 -0.01191879 0.06388763
v 0.07581865 -0.01094710 0.06834868
v 0.07131888 -0.01226392 0.07143413
v 0.07130967 -0.01028869 0.07286757
v 0.06961939 -0.01064975 0.07399891
v 0.07435404 -0.00963559 0.07063705
v 0.07187617 -0.01079843 0.07202550
v 0.07236899 -0.00952939 0.07246903
v 0.06906670 -0.01013471 0.07476383
v 0.06769420 -0.01055949 0.07538736
v 0.06685597 -0.00971523 0.07639012
v 0.05997506 -0.00475591 0.08285671
v 0.05764919 -0.00443732 0.08414231
v 0.05429164 -0.00486741 0.08550505
v 0.05249081 -0.00486741 0.08630213
v 0.05028929 -0.00459662 0.08724704
v 0.04913327 -0.00504264 0.08747846
v 0.06327274 -0.00624795 0.08035621
v 0.06184497 -0.00661964 0.08101830
v 0.06812714 -0.00889222 0.07603016
v 0.06217198 -0.00475591 0.08160324
v 0.06121860 -0.00475591 0.08215605
v 0.06454391 -0.00537184 0.07995768
v 0.06385767 -0.00474529 0.08060048
v 0.06759749 -0.01529049 0.04191666
v 0.07140639 -0.01360729 0.03969900
v 0.07330854 -0.01289047 0.03881193
v 0.04913327 -0.02220381 0.05236219
v 0.06634013 -0.01526394 0.04194880
v 0.07330854 -0.01353827 0.03976328
v 0.07521530 -0.01282145 0.03897263
v 0.07902421 -0.01304977 0.04065677
v 0.07902421 -0.01352234 0.04160812
v 0.07902421 -0.01156303 0.03796986
v 0.07521530 -0.01186569 0.03755847
v 0.07711745 -0.01109046 0.03674854
v 0.07902421 -0.00998072 0.03563649
v 0.07902421 -0.01093117 0.03701851
v 0.08003286 -0.01144091 0.03814984
v 0.07902421 -0.01223206 0.03912690
v 0.07945254 -0.01473297 0.05627043
v 0.08043355 -0.01378252 0.05627043
v 0.08015721 -0.01351172 0.05763317
v 0.07867417 -0.01395243 0.06008224
v 0.07833796 -0.01361260 0.06159925
v 0.08173696 -0.01125507 0.05879664
v 0.08016182 -0.01163737 0.06135499
v 0.08108295 -0.01461084 0.05056235
v 0.08320618 -0.01274180 0.05056235
v 0.08328447 -0.01288516 0.04865323
v 0.08432536 -0.01193472 0.04865323
v 0.08414113 -0.01179135 0.05056235
v 0.08393848 -0.01160020 0.05198937
v 0.08374044 -0.01136657 0.05326211
v 0.08246927 -0.01243384 0.05423275
v 0.08224819 -0.01183914 0.05627043
v 0.08167709 -0.01310287 0.05477913
v 0.08077437 -0.01173295 0.03914618
v 0.08220214 -0.01156303 0.03979542
v 0.08532480 -0.01113294 0.04484141
v 0.08440366 -0.01195596 0.04675053
v 0.08639331 -0.01007630 0.04293872
v 0.08283772 -0.01096834 0.03914618
v 0.08418258 -0.00971523 0.03781559
v 0.08544915 -0.00939134 0.03849053
v 0.08587287 -0.00964621 0.03976328
v 0.08614000 -0.00984798 0.04103602
v 0.07668452 -0.01037365 0.06770587
v 0.07624237 -0.00967806 0.06874721
v 0.07811228 -0.01148870 0.06490326
v 0.07770698 -0.01046922 0.06619529
v 0.07980717 -0.01106922 0.06262131
v 0.07455208 -0.00856832 0.07084274
v 0.07349738 -0.00856832 0.07179409
v 0.07254861 -0.00856832 0.07262331
v 0.07056355 -0.00216474 0.07637084
v 0.07129585 -0.00858425 0.07367750
v 0.07033326 -0.00922673 0.07427531
v 0.05997506 -0.00284970 0.08328739
v 0.05892036 -0.00284970 0.08384663
v 0.06260952 -0.00284970 0.08185394
v 0.06165614 -0.00284970 0.08238104
v 0.05796698 -0.00284970 0.08427730
v 0.05616615 -0.00284970 0.08508723
v 0.05367908 -0.00430458 0.08594859
v 0.04954317 -0.00385325 0.08772272
v 0.04913327 -0.00469750 0.08758774
v 0.06631250 -0.00719840 0.07798427
v 0.06855547 -0.00762318 0.07628085
v 0.06676846 -0.00592937 0.07827996
v 0.06488934 -0.00410281 0.08018909
v 0.06950425 -0.01361260 0.03972471
v 0.07140639 -0.01288516 0.03874765
v 0.07330854 -0.01194003 0.03751347
v 0.07521530 -0.01117542 0.03660712
v 0.04913327 -0.02124805 0.05117301
v 0.06506896 -0.01520553 0.04202594
v 0.06759749 -0.01356482 0.03980184
v 0.07140639 -0.01114887 0.03660069
v 0.07140639 -0.01193472 0.03755204
v 0.08093096 -0.00975771 0.03593861
v 0.07711745 -0.01013471 0.03545650
v 0.07902421 -0.00927983 0.03468514
v 0.08093096 -0.00812761 0.03368237
v 0.08093096 -0.00907806 0.03498083
v 0.08130403 -0.01124445 0.03852910
v 0.08208238 -0.00958780 0.03616359
v 0.08138692 -0.01278959 0.05627043
v 0.08200870 -0.01156834 0.05752389
v 0.08094938 -0.01239667 0.05821169
v 0.07988087 -0.01322499 0.05890591
v 0.08376807 -0.00948160 0.05716392
v 0.08252914 -0.01055949 0.05816669
v 0.08222055 -0.00998603 0.05967085
v 0.08527413 -0.01097896 0.04865323
v 0.08535703 -0.01111170 0.04675053
v 0.08631042 -0.01015594 0.04675053
v 0.08509451 -0.01071347 0.05056235
v 0.08613539 -0.01002320 0.04865323
v 0.08473987 -0.01046922 0.05245861
v 0.08589130 -0.00976302 0.05056235
v 0.08573470 -0.00957187 0.05164868
v 0.08553666 -0.00927983 0.05292143
v 0.08431154 -0.01017187 0.05436774
v 0.08354239 -0.01112232 0.05436774
v 0.08642095 -0.01017718 0.04484141
v 0.08734670 -0.00929576 0.04293872
v 0.08709338 -0.00912585 0.04103602
v 0.08276403 -0.00995417 0.03719850
v 0.08335356 -0.00936479 0.03654284
v 0.08603868 -0.00780903 0.03593861
v 0.08772436 -0.00771345 0.03793772
v 0.08730984 -0.00744796 0.03667140
v 0.07637133 -0.00856832 0.06889506
v 0.07550085 -0.00856832 0.06985283
v 0.08182447 -0.00933824 0.06094360
v 0.07796490 -0.00913647 0.06658740
v 0.08774278 0.00144059 0.05742104
v 0.08795465 0.00285830 0.05771030
v 0.08746184 0.00430787 0.05894448
v 0.08763685 0.00557690 0.05917589
v 0.07479157 -0.00666212 0.07112557
v 0.07411914 -0.00475591 0.07232762
v 0.07383359 -0.00666212 0.07208335
v 0.07171036 -0.00094881 0.07567661
v 0.07075699 -0.00094881 0.07651868
v 0.06829294 -0.00284970 0.07797142
v 0.06699414 -0.00475591 0.07845352
v 0.07058658 -0.00795770 0.07447457
v 0.06256807 -0.00094881 0.08185394
v 0.05771827 -0.00135766 0.08416160
v 0.06161469 -0.00094881 0.08232962
v 0.05997506 -0.00094881 0.08307526
v 0.06378858 -0.00284970 0.08112758
v 0.06610984 -0.00094881 0.07976484
v 0.06378858 -0.00094881 0.08114686
v 0.05480748 -0.00284970 0.08565933
v 0.04954317 -0.00374705 0.08772272
v 0.04913327 -0.00359307 0.08778700
v 0.04913327 -0.00411874 0.08776772
v 0.06509199 -0.00284970 0.08031122
v 0.06733957 -0.00284970 0.07869779
v 0.06604537 -0.00284970 0.07965556
v 0.07330854 -0.01119135 0.03656212
v 0.07521530 -0.01022497 0.03537294
v 0.07711745 -0.00941258 0.03450516
v 0.04913327 -0.02037725 0.05021523
v 0.06569073 -0.01346393 0.03993683
v 0.07140639 -0.01019311 0.03550150
v 0.07330854 -0.00945505 0.03443445
v 0.07330854 -0.01024090 0.03539222
v 0.08283311 -0.00786212 0.03402306
v 0.07895973 -0.00820726 0.03327098
v 0.07954926 -0.00754885 0.03254461
v 0.08093096 -0.00740548 0.03273102
v 0.08283311 -0.00716123 0.03307171
v 0.08396611 -0.00768159 0.03426732
v 0.08330290 -0.01045860 0.05642470
v 0.09106348 -0.00102314 0.05064591
v 0.08356542 -0.00873293 0.05830811
v 0.08400757 -0.00981081 0.05589760
v 0.08592814 -0.00801080 0.05393706
v 0.09130759 -0.00169748 0.04932817
v 0.08726379 -0.00912585 0.04675053
v 0.08737433 -0.00929045 0.04484141
v 0.08805598 -0.00817540 0.04675053
v 0.08708878 -0.00884974 0.04865323
v 0.08781648 -0.00789929 0.04865323
v 0.08765528 -0.00769752 0.04977813
v 0.08744802 -0.00734177 0.05105088
v 0.08818033 -0.00817540 0.04103602
v 0.08913370 -0.00721433 0.04103602
v 0.08826783 -0.00834531 0.04293872
v 0.08794083 -0.00790460 0.03912690
v 0.08523729 -0.00743203 0.03467229
v 0.08780726 -0.00584441 0.03414519
v 0.08948834 -0.00569574 0.03631143
v 0.08821717 -0.00616300 0.03531509
v 0.07967822 0.00476451 0.06831010
v 0.07573114 0.00095209 0.07195479
v 0.07456589 -0.00094881 0.07280329
v 0.07425271 -0.00376829 0.07245618
v 0.08563798 -0.00554707 0.05711250
v 0.08970020 -0.00043907 0.05369922
v 0.08994430 0.00095209 0.05406562
v 0.08946531 0.00202467 0.05526766
v 0.08965875 0.00329370 0.05553120
v 0.08812506 0.00487070 0.05825669
v 0.08917515 0.00476451 0.05673967
v 0.08929951 0.00667071 0.05688109
v 0.08841982 0.00667071 0.05817312
v 0.08766909 0.00667071 0.05921446
v 0.08685849 0.00667071 0.06016581
v 0.08332592 0.00667071 0.06430545
v 0.08237255 0.00667071 0.06541750
v 0.07271441 -0.00094881 0.07472527
v 0.07251176 -0.00239306 0.07451957
v 0.07387044 0.00095209 0.07397962
v 0.07291706 0.00095209 0.07485383
v 0.07175642 0.00095209 0.07580517
v 0.07080305 0.00095209 0.07653797
v 0.06856468 -0.00015234 0.07818997
v 0.06932002 -0.00085323 0.07759216
v 0.06850481 -0.00142137 0.07814498
v 0.06125084 0.00032554 0.08213677
v 0.06497684 0.00039457 0.08020837
v 0.05366527 -0.00172403 0.08590359
v 0.06775869 -0.00085323 0.07869136
v 0.06856468 0.00004943 0.07818997
v 0.06765275 0.00079280 0.07858208
v 0.04913327 -0.00324263 0.08766487
v 0.07521530 -0.00947629 0.03442159
v 0.07711745 -0.00854177 0.03341239
v 0.07828269 -0.00764442 0.03242248
v 0.04913327 -0.01942680 0.04922532
v 0.07242885 -0.00760726 0.03246747
v 0.07140639 -0.00934886 0.03455015
v 0.07315655 -0.00836124 0.03322598
v 0.07369542 -0.00767097 0.03239677
v 0.07521530 -0.00771345 0.03234534
v 0.07521530 -0.00862142 0.03341239
v 0.08006509 -0.00572760 0.03053264
v 0.08133627 -0.00560547 0.03068049
v 0.08283311 -0.00543556 0.03089261
v 0.08283311 -0.00621079 0.03184396
v 0.08473987 -0.00518600 0.03125258
v 0.08473987 -0.00590813 0.03220393
v 0.08574852 -0.00573291 0.03242891
v 0.09132601 0.00028837 0.05134014
v 0.09009629 -0.00102314 0.05255503
v 0.09161156 -0.00043376 0.05006739
v 0.08941925 -0.00170279 0.05325569
v 0.08780266 -0.00607273 0.05197651
v 0.09153788 -0.00211164 0.04806185
v 0.09185567 -0.00102314 0.04867894
v 0.08821717 -0.00833469 0.04484141
v 0.08917055 -0.00716654 0.04484141
v 0.08900474 -0.00687451 0.04675053
v 0.08964494 -0.00591875 0.04675053
v 0.08950216 -0.00571167 0.04770188
v 0.09175434 -0.00246209 0.04675053
v 0.08889420 -0.00705504 0.03912690
v 0.08986140 -0.00610459 0.03912690
v 0.08994891 -0.00625857 0.04103602
v 0.08922121 -0.00726212 0.04293872
v 0.08970020 -0.00590282 0.03757775
v 0.08649004 -0.00607804 0.03347025
v 0.08701969 -0.00544618 0.03287244
v 0.08821256 -0.00417714 0.03192110
v 0.08948374 -0.00378953 0.03248676
v 0.08917055 -0.00546742 0.03531509
v 0.08987061 -0.00413467 0.03375308
v 0.09146418 -0.00195766 0.03234534
v 0.09023447 -0.00451697 0.03531509
v 0.09118783 -0.00357714 0.03531509
v 0.09138128 -0.00376829 0.03642713
v 0.08154812 0.00667071 0.06636885
v 0.08059475 0.00667071 0.06741662
v 0.07872484 0.00476451 0.06931931
v 0.07587391 0.00285830 0.07215406
v 0.07674439 0.00285830 0.07120271
v 0.07477776 0.00095209 0.07302827
v 0.07366779 -0.00094881 0.07375464
v 0.09094835 0.00093616 0.05238790
v 0.09115100 0.00285830 0.05293429
v 0.09015156 0.00274148 0.05452843
v 0.08979692 0.00476451 0.05578833
v 0.09064898 0.00476451 0.05436774
v 0.08986600 0.00667071 0.05592974
v 0.08982916 0.00857692 0.05584618
v 0.08922582 0.00857692 0.05680395
v 0.08765528 0.00808311 0.05919518
v 0.08589130 0.00857692 0.06127143
v 0.08507609 0.00857692 0.06222277
v 0.08412271 0.00857692 0.06332839
v 0.07492514 0.00285830 0.07306684
v 0.07381978 0.00285830 0.07402462
v 0.07286640 0.00285830 0.07474455
v 0.07062803 0.00223175 0.07639012
v 0.06932002 0.00079280 0.07755359
v 0.06038037 0.00159457 0.08183466
v 0.06564467 0.00099988 0.07966841
v 0.06454851 0.00166360 0.08000910
v 0.06656120 0.00372910 0.07814498
v 0.05235725 -0.00144792 0.08609001
v 0.04913327 -0.00201076 0.08715706
v 0.04913327 -0.00261607 0.08743989
v 0.05910919 0.00193971 0.08201464
v 0.06832518 0.00131847 0.07805499
v 0.07711745 -0.00769752 0.03236463
v 0.07902421 -0.00579131 0.03047479
v 0.04913327 -0.01839140 0.04827397
v 0.07140639 -0.00552052 0.03071263
v 0.07140639 -0.00653999 0.03166397
v 0.07140639 -0.00749575 0.03257675
v 0.07259005 -0.00567450 0.03058407
v 0.07385662 -0.00576477 0.03050050
v 0.07521530 -0.00582848 0.03044265
v 0.07521530 -0.00677893 0.03139399
v 0.07711745 -0.00584972 0.03041694
v 0.07711745 -0.00680548 0.03141328
v 0.08031380 -0.00384263 0.02861066
v 0.08158498 -0.00376829 0.02868780
v 0.08283311 -0.00365679 0.02880993
v 0.08283311 -0.00448511 0.02976771
v 0.08473987 -0.00344971 0.02907348
v 0.08473987 -0.00423024 0.03003125
v 0.08616763 -0.00399661 0.03030766
v 0.08743881 -0.00373643 0.03065477
v 0.09180962 0.00093616 0.05064591
v 0.09150103 0.00156272 0.05170011
v 0.09260640 0.00095209 0.04865323
v 0.09251428 -0.00094881 0.04675053
v 0.09328343 0.00009722 0.04563849
v 0.09314526 0.00081935 0.04689195
v 0.08984758 -0.00621610 0.04484141
v 0.08993970 -0.00630636 0.04293872
v 0.09134904 -0.00370458 0.04543922
v 0.09036343 -0.00475591 0.04675053
v 0.09190632 -0.00298245 0.04482213
v 0.09300248 -0.00089571 0.04493783
v 0.09148721 -0.00391166 0.03769988
v 0.09081478 -0.00495768 0.03912690
v 0.09089768 -0.00498954 0.04103602
v 0.09155169 -0.00400723 0.03912690
v 0.08979692 -0.00211695 0.03023052
v 0.08906002 -0.00167093 0.02896420
v 0.09106810 -0.00161784 0.03107902
v 0.09175434 -0.00035411 0.03001840
v 0.09200765 -0.00097535 0.03163183
v 0.09307157 0.00032554 0.03150970
v 0.09168065 -0.00221784 0.03341239
v 0.09197081 -0.00262138 0.03531509
v 0.09291958 -0.00129925 0.03531509
v 0.09202147 -0.00301962 0.03712779
v 0.07965979 0.00667071 0.06836796
v 0.07778988 0.00476451 0.07027708
v 0.08325223 0.00857692 0.06427974
v 0.08229886 0.00857692 0.06528894
v 0.07683650 0.00476451 0.07120271
v 0.09163920 0.00285830 0.05198294
v 0.09130759 0.00476451 0.05321069
v 0.09075490 0.00667071 0.05436774
v 0.09069043 0.00857692 0.05436774
v 0.09050160 0.01048313 0.05436774
v 0.08972323 0.01048313 0.05565334
v 0.08757698 0.00935215 0.05909875
v 0.08817111 0.00866188 0.05834668
v 0.08698285 0.00866188 0.05993440
v 0.08579458 0.00986188 0.06115572
v 0.08397072 0.00991498 0.06314198
v 0.07574956 0.00476451 0.07216049
v 0.07480079 0.00476451 0.07285471
v 0.07262229 0.00424946 0.07454528
v 0.06958254 0.00286361 0.07681438
v 0.06529003 0.00412733 0.07841495
v 0.06378858 0.00446716 0.07869136
v 0.06705401 0.00246007 0.07841495
v 0.06828833 0.00553973 0.07616514
v 0.06765275 0.00300166 0.07786857
v 0.07220318 0.00551849 0.07428174
v 0.07093201 0.00607602 0.07462242
v 0.05235725 -0.00050278 0.08546006
v 0.05045049 -0.00112403 0.08634713
v 0.04913327 -0.00086385 0.08644997
v 0.06091923 0.00380875 0.08007981
v 0.05807291 0.00210431 0.08213677
v 0.05045049 -0.00016827 0.08567218
v 0.07902421 -0.00483556 0.02951701
v 0.04913327 -0.01743564 0.04745761
v 0.06950425 -0.00517538 0.03099546
v 0.07140639 -0.00457007 0.02992198
v 0.07330854 -0.00363555 0.02877779
v 0.07460274 -0.00375767 0.02868780
v 0.07587391 -0.00383732 0.02861709
v 0.07711745 -0.00387980 0.02857852
v 0.07711745 -0.00483556 0.02945916
v 0.07902421 -0.00387980 0.02857852
v 0.08093096 -0.00184616 0.02679153
v 0.08283311 -0.00081606 0.02598161
v 0.08283311 -0.00176651 0.02687510
v 0.08473987 -0.00067270 0.02607802
v 0.08473987 -0.00162315 0.02703580
v 0.08473987 -0.00249395 0.02799357
v 0.08664663 -0.00137359 0.02733792
v 0.08664663 -0.00220722 0.02828926
v 0.08778884 -0.00198952 0.02853996
v 0.09228861 0.00285830 0.05056235
v 0.09328804 0.00204590 0.04761831
v 0.09305315 0.00275210 0.04861466
v 0.09340779 -0.00022668 0.04436574
v 0.09365650 0.00081935 0.04493783
v 0.09348608 0.00136625 0.04635200
v 0.09089307 -0.00492051 0.04293872
v 0.09145497 -0.00387449 0.04416647
v 0.09088847 -0.00460724 0.04482213
v 0.09156090 -0.00403378 0.04103602
v 0.09221952 -0.00284970 0.04293872
v 0.09306696 -0.00137890 0.04293872
v 0.09306696 -0.00150102 0.03722421
v 0.09231623 -0.00284970 0.03912690
v 0.09005484 -0.00040721 0.02816713
v 0.09132601 0.00007598 0.02874565
v 0.08851654 -0.00093288 0.02771717
v 0.08924424 0.00013439 0.02689438
v 0.09245901 0.00086183 0.02946559
v 0.09347687 0.00164236 0.03018553
v 0.09327883 0.00006005 0.03262175
v 0.09351832 -0.00035411 0.03531509
v 0.09340318 -0.00014172 0.03389449
v 0.07870641 0.00667071 0.06921646
v 0.08132245 0.00857692 0.06624028
v 0.08036907 0.00857692 0.06709521
v 0.08208238 0.00985126 0.06503182
v 0.09177276 0.00476451 0.05225934
v 0.09255113 0.00476451 0.05056235
v 0.09182803 0.00667071 0.05234934
v 0.09134904 0.00667071 0.05330068
v 0.09131680 0.00857692 0.05324283
v 0.09123851 0.01048313 0.05309499
v 0.08960348 0.01173623 0.05546050
v 0.09105428 0.01238402 0.05274787
v 0.08906922 0.01048313 0.05660468
v 0.08742499 0.01048313 0.05889949
v 0.08637489 0.01048844 0.06019795
v 0.08558271 0.01113092 0.06091788
v 0.08364832 0.01118402 0.06280772
v 0.07754118 0.00667071 0.07016780
v 0.07658780 0.00667071 0.07090060
v 0.07451524 0.00606540 0.07262973
v 0.06701717 0.00590080 0.07642869
v 0.06378858 0.00542292 0.07793285
v 0.06988191 0.00734505 0.07415318
v 0.07392570 0.00733443 0.07232119
v 0.07265914 0.00778046 0.07259116
v 0.04913327 -0.00031163 0.08605786
v 0.05964806 0.00398397 0.08023408
v 0.05807291 0.00305476 0.08137184
v 0.06256346 0.00564593 0.07811283
v 0.05616615 0.00235918 0.08236176
v 0.04941882 -0.00001960 0.08578788
v 0.04913327 -0.01608696 0.04644199
v 0.06950425 -0.00422493 0.03021767
v 0.07140639 -0.00336475 0.02897063
v 0.07330854 -0.00268510 0.02807071
v 0.07521530 -0.00160722 0.02694581
v 0.07711745 -0.00178244 0.02683010
v 0.07711745 -0.00284970 0.02771074
v 0.07902421 -0.00185678 0.02677868
v 0.07902421 -0.00284970 0.02765932
v 0.08473987 0.00348485 0.02211837
v 0.08473987 0.00029899 0.02512668
v 0.08664663 0.00371848 0.02211837
v 0.08664663 0.00050076 0.02534523
v 0.08664663 -0.00042845 0.02630300
v 0.08797307 -0.00018420 0.02654727
v 0.09340779 0.00331494 0.04795900
v 0.09314065 0.00476451 0.04915461
v 0.09365650 0.00275210 0.04689195
v 0.09350911 -0.00043376 0.04293872
v 0.09403876 0.00095209 0.04293872
v 0.09462368 0.00285830 0.04293872
v 0.09424602 0.00285830 0.04484141
v 0.09151024 -0.00396475 0.04293872
v 0.09231623 -0.00284970 0.04103602
v 0.09311302 -0.00152226 0.04103602
v 0.09359661 -0.00057181 0.04103602
v 0.09362425 -0.00055057 0.03722421
v 0.09312684 -0.00156474 0.03912690
v 0.09059370 0.00050607 0.02759504
v 0.09045553 0.00153086 0.02633515
v 0.09140892 0.00190785 0.02674011
v 0.09177737 0.00148307 0.02769789
v 0.09316829 0.00213617 0.02891278
v 0.08933175 0.00199281 0.02492741
v 0.09351832 0.00340521 0.02823141
v 0.09377624 0.00280520 0.02956844
v 0.09437959 0.00285830 0.03150970
v 0.09366570 0.00127599 0.03150970
v 0.09379005 0.00079811 0.03332240
v 0.09418154 0.00095209 0.03531509
v 0.07840244 0.00809373 0.06894005
v 0.08008351 0.00964949 0.06683166
v 0.08163103 0.01112030 0.06465899
v 0.09266166 0.00667071 0.05056235
v 0.09319132 0.00667071 0.04930888
v 0.09181422 0.00857692 0.05229148
v 0.09263863 0.00857692 0.05056235
v 0.09173592 0.01048313 0.05214364
v 0.09004102 0.01237871 0.05445773
v 0.08938241 0.01300527 0.05515195
v 0.08884355 0.01237871 0.05616758
v 0.09155169 0.01238402 0.05179653
v 0.09141812 0.01336633 0.05153298
v 0.08981535 0.01396102 0.05388563
v 0.08781187 0.01238402 0.05749818
v 0.08703811 0.01238402 0.05844953
v 0.08760001 0.01334509 0.05722820
v 0.08608473 0.01238402 0.05960014
v 0.08578997 0.01345660 0.05923374
v 0.08516821 0.01238402 0.06055149
v 0.08237715 0.01196455 0.06339267
v 0.08421482 0.01238402 0.06144498
v 0.07628842 0.00773798 0.07063705
v 0.06569073 0.00615567 0.07666653
v 0.06861074 0.00764771 0.07439101
v 0.07415599 0.00947958 0.07051492
v 0.07789581 0.00936277 0.06854794
v 0.07521530 0.00815214 0.07098416
v 0.07662464 0.00983003 0.06891434
v 0.07521530 0.00910259 0.07024494
v 0.04913327 0.00031492 0.08554363
v 0.05807291 0.00417512 0.08042049
v 0.06129229 0.00580522 0.07826068
v 0.06378858 0.00645301 0.07698150
v 0.06569073 0.00810966 0.07484097
v 0.06378858 0.00740346 0.07606230
v 0.06378858 0.00838046 0.07511095
v 0.06378858 0.00933091 0.07418531
v 0.06262794 0.00756806 0.07622300
v 0.06196012 0.00668664 0.07725148
v 0.06759749 0.00781231 0.07455172
v 0.05235725 0.00169546 0.08371807
v 0.05107226 0.00184413 0.08384020
v 0.04913327 -0.01432942 0.04515638
v 0.06831137 -0.00394352 0.03044265
v 0.06944437 -0.00279130 0.02919561
v 0.07004311 -0.00212226 0.02850139
v 0.07140639 -0.00240899 0.02829569
v 0.07330854 -0.00132049 0.02711936
v 0.07897815 0.00425477 0.02211837
v 0.08093096 0.00377689 0.02211837
v 0.08283311 0.00350609 0.02211837
v 0.08738354 0.00393618 0.02211837
v 0.08810203 0.00358574 0.02269689
v 0.08806518 0.00169546 0.02461887
v 0.09402495 0.00476451 0.04675053
v 0.09350450 0.00476451 0.04820326
v 0.09357820 0.00667071 0.04835754
v 0.09461448 0.00476451 0.04484141
v 0.09423681 0.00095209 0.04103602
v 0.09493687 0.00301759 0.04093318
v 0.09504741 0.00474327 0.04295800
v 0.09516256 0.00409548 0.04149884
v 0.09364267 -0.00061960 0.03912690
v 0.09436116 0.00095209 0.03912690
v 0.09436577 0.00095209 0.03722421
v 0.09045553 0.00244414 0.02538380
v 0.09170828 0.00304945 0.02598161
v 0.09276298 0.00280520 0.02764003
v 0.09021604 0.00539637 0.02211837
v 0.09045553 0.00560876 0.02211837
v 0.09086544 0.00597513 0.02211837
v 0.09141352 0.00570964 0.02292830
v 0.09168526 0.00686187 0.02211837
v 0.09317289 0.00403707 0.02696509
v 0.08891724 0.00448840 0.02211837
v 0.08937320 0.00387777 0.02299900
v 0.09351372 0.00530610 0.02636728
v 0.09380848 0.00470610 0.02764003
v 0.09455921 0.00476451 0.02960058
v 0.09513492 0.00411140 0.03306528
v 0.09483095 0.00304414 0.03358595
v 0.09521782 0.00573088 0.03056478
v 0.09502899 0.00475389 0.03132329
v 0.09493227 0.00269370 0.03531509
v 0.08035985 0.01172561 0.06510895
v 0.09318210 0.00857692 0.04929603
v 0.09357820 0.00857692 0.04834468
v 0.09249125 0.01048313 0.05056235
v 0.09311763 0.01048313 0.04912890
v 0.09215043 0.01238402 0.05056235
v 0.08912449 0.01447607 0.05445773
v 0.09328343 0.01319111 0.04762474
v 0.09166223 0.01411501 0.05047236
v 0.09149642 0.01542652 0.04977813
v 0.09116021 0.01463537 0.05105088
v 0.09048778 0.01429554 0.05247147
v 0.08949295 0.01523006 0.05340353
v 0.08798689 0.01410439 0.05617401
v 0.08772896 0.01537873 0.05547335
v 0.08383715 0.01338226 0.06107216
v 0.08583602 0.01535218 0.05735676
v 0.08170012 0.01323359 0.06283986
v 0.07288482 0.00972914 0.07077204
v 0.06987269 0.00933091 0.07226334
v 0.06860153 0.00954330 0.07248189
v 0.06569073 0.01002118 0.07295114
v 0.07799254 0.01138579 0.06670953
v 0.07672136 0.01169375 0.06705664
v 0.07521530 0.01112561 0.06834225
v 0.04913327 0.00129192 0.08466941
v 0.04913327 0.00601761 0.08037549
v 0.05997506 0.00594858 0.07839566
v 0.05425940 0.00748311 0.07805499
v 0.06136138 0.00773267 0.07638370
v 0.05997506 0.00789727 0.07653797
v 0.05807291 0.00906542 0.07583089
v 0.06569073 0.00906011 0.07390891
v 0.06378858 0.01028136 0.07322754
v 0.06264175 0.00947958 0.07432030
v 0.04980109 0.00196626 0.08394948
v 0.04913327 -0.01290640 0.04416647
v 0.06877194 -0.00177182 0.02873279
v 0.06950425 0.00140342 0.02640585
v 0.07220318 0.00558221 0.02285116
v 0.07330854 0.00534327 0.02267760
v 0.07521530 0.00544947 0.02211837
v 0.07708521 0.00481760 0.02211837
v 0.07752736 0.00467424 0.02211837
v 0.08858102 0.00433972 0.02211837
v 0.08877446 0.00442468 0.02211837
v 0.09419075 0.00667071 0.04675053
v 0.09482634 0.00667071 0.04484141
v 0.09419536 0.00857692 0.04675053
v 0.09528691 0.00536982 0.04232806
v 0.09516716 0.00667071 0.04363937
v 0.09498293 0.00266184 0.03912690
v 0.09523625 0.00375565 0.04022609
v 0.09536520 0.00474327 0.04093318
v 0.09500596 0.00254502 0.03722421
v 0.09271233 0.00853975 0.02211837
v 0.09314526 0.00601761 0.02510097
v 0.09273995 0.00858754 0.02211837
v 0.09346766 0.00728665 0.02453530
v 0.09374400 0.00666009 0.02575662
v 0.09446248 0.00667071 0.02769789
v 0.09531454 0.00538044 0.03183753
v 0.09539744 0.00475389 0.03358595
v 0.09522243 0.00380344 0.03433803
v 0.09533296 0.00699992 0.03019196
v 0.09582116 0.00857692 0.03150970
v 0.09547574 0.00648487 0.03132329
v 0.09582116 0.00667071 0.03341239
v 0.09341239 0.00929374 0.02270974
v 0.09349529 0.01043534 0.02211837
v 0.09352753 0.01058932 0.02211837
v 0.09527770 0.00364414 0.03531509
v 0.07902421 0.01206544 0.06548820
v 0.09350911 0.01048313 0.04817755
v 0.09341239 0.01192207 0.04794614
v 0.09301170 0.01249022 0.04860823
v 0.09368413 0.01249022 0.04689195
v 0.09392823 0.01429023 0.04484141
v 0.09346766 0.01429023 0.04621701
v 0.09331567 0.01524599 0.04579918
v 0.09308999 0.01429023 0.04716835
v 0.09244519 0.01429023 0.04865323
v 0.09171750 0.01611679 0.04855038
v 0.09147339 0.01724246 0.04784330
v 0.09115560 0.01669556 0.04910962
v 0.09052462 0.01627608 0.05063305
v 0.08988903 0.01585661 0.05213721
v 0.08948374 0.01712565 0.05148798
v 0.08763225 0.01717875 0.05345495
v 0.08377728 0.01524068 0.05911804
v 0.08559193 0.01709910 0.05524837
v 0.08042894 0.01353094 0.06319340
v 0.07902421 0.01302120 0.06447901
v 0.08250611 0.01551679 0.05950372
v 0.07140639 0.00998401 0.07104202
v 0.07401782 0.01135393 0.06856080
v 0.07140639 0.01093446 0.07000710
v 0.06934305 0.01015392 0.07158197
v 0.06722442 0.01162473 0.07076561
v 0.06569073 0.01097163 0.07198051
v 0.07521530 0.01197517 0.06738447
v 0.07783594 0.01325483 0.06473613
v 0.04913327 0.00630965 0.08006695
v 0.05309416 0.00759461 0.07815140
v 0.05616615 0.00925126 0.07599159
v 0.05807291 0.00811497 0.07673081
v 0.05616615 0.00830081 0.07691722
v 0.05997506 0.00980879 0.07464813
v 0.05807291 0.01002118 0.07487954
v 0.06378858 0.01123180 0.07225048
v 0.04913327 -0.01199843 0.04358795
v 0.06838506 0.00174856 0.02664369
v 0.07027800 0.00366007 0.02474743
v 0.06989572 0.00476451 0.02449673
v 0.07186235 0.00667071 0.02262618
v 0.07282034 0.00677691 0.02211837
v 0.07341908 0.00626717 0.02211837
v 0.09484016 0.00857692 0.04484141
v 0.09517637 0.00857692 0.04371008
v 0.09404337 0.01048313 0.04675053
v 0.09537441 0.00667071 0.04268802
v 0.09567839 0.00667071 0.04103602
v 0.09540205 0.00857692 0.04275873
v 0.09531915 0.00349547 0.03722421
v 0.09527770 0.00361760 0.03912690
v 0.09555404 0.00476451 0.03912690
v 0.09590867 0.00667071 0.03912690
v 0.09326962 0.00963887 0.02211837
v 0.09560009 0.00476451 0.03531509
v 0.09544350 0.00857692 0.02980627
v 0.09436116 0.01619644 0.02211837
v 0.09591788 0.01048313 0.03150970
v 0.09606528 0.00857692 0.03341239
v 0.09450854 0.01795928 0.02211837
v 0.09599157 0.00667071 0.03531509
v 0.09437037 0.01238402 0.04484141
v 0.09348147 0.01563891 0.04484141
v 0.09449012 0.01429023 0.04293872
v 0.09262942 0.01601060 0.04656412
v 0.09326040 0.01703538 0.04373579
v 0.09304854 0.01658936 0.04484141
v 0.09170828 0.01760884 0.04675053
v 0.09130759 0.01893628 0.04559349
v 0.09098519 0.01855929 0.04675053
v 0.08988443 0.01756636 0.05021523
v 0.08919358 0.01883539 0.04923818
v 0.08870538 0.01822477 0.05072305
v 0.08808360 0.01752388 0.05246504
v 0.08721773 0.01888849 0.05123086
v 0.08328447 0.01696105 0.05693894
v 0.08486883 0.01785840 0.05452201
v 0.08432075 0.01736990 0.05566619
v 0.07902421 0.01378049 0.06352766
v 0.08131324 0.01504422 0.06077004
v 0.07575877 0.01701414 0.06084718
v 0.08093096 0.01675927 0.05852666
v 0.08201330 0.01719468 0.05729891
v 0.06834821 0.01327076 0.06858008
v 0.06849559 0.01141234 0.07054063
v 0.06950425 0.01307429 0.06836153
v 0.06569073 0.01185836 0.07102916
v 0.06707704 0.01347253 0.06880506
v 0.07140639 0.01358934 0.06703093
v 0.07224002 0.01520351 0.06479398
v 0.07330854 0.01501236 0.06455614
v 0.04913327 0.00724417 0.07904489
v 0.05807291 0.01097694 0.07385106
v 0.05616615 0.01011675 0.07504024
v 0.05997506 0.01075923 0.07365822
v 0.05997506 0.01164597 0.07270687
v 0.06378858 0.01208668 0.07129914
v 0.06128769 0.01151322 0.07255260
v 0.04913327 -0.01046391 0.04279730
v 0.06894235 0.00476451 0.02505597
v 0.07090898 0.00667071 0.02319827
v 0.07188538 0.00857692 0.02211837
v 0.09466054 0.01048313 0.04484141
v 0.09530993 0.01048313 0.04235377
v 0.09507965 0.01048313 0.04331154
v 0.09577050 0.00857692 0.04103602
v 0.09605145 0.00857692 0.03912690
v 0.09560470 0.01048313 0.04103602
v 0.09565536 0.00476451 0.03722421
v 0.09601460 0.00667071 0.03722421
v 0.09617580 0.00857692 0.03722421
v 0.09581196 0.01238402 0.03150970
v 0.09609751 0.01048313 0.03341239
v 0.09450854 0.01810264 0.02211837
v 0.09618042 0.00857692 0.03531509
v 0.09493227 0.01224597 0.04277802
v 0.09378545 0.01631856 0.04303514
v 0.09513032 0.01278226 0.04152455
v 0.09525467 0.01347253 0.04025823
v 0.09494609 0.01417873 0.04094603
v 0.09429669 0.01619644 0.04103602
v 0.09346766 0.01741768 0.04246305
v 0.09286892 0.01807079 0.04303514
v 0.09206752 0.01821946 0.04491212
v 0.09003181 0.01947257 0.04675053
v 0.08967257 0.01919115 0.04797186
v 0.09158853 0.01925487 0.04432074
v 0.09121087 0.02081063 0.04155669
v 0.09083320 0.02052390 0.04293872
v 0.08792241 0.01923363 0.04995811
v 0.08660518 0.01944602 0.05058163
v 0.08594656 0.01914867 0.05168725
v 0.08272258 0.01757167 0.05628971
v 0.08473987 0.01881946 0.05301142
v 0.08294825 0.01866548 0.05435488
v 0.07487448 0.01547962 0.06323840
v 0.08093096 0.01738052 0.05757532
v 0.07711745 0.01740707 0.05952301
v 0.07516003 0.01764069 0.06015938
v 0.07448760 0.01721591 0.06113001
v 0.08075595 0.01835752 0.05609044
v 0.06950425 0.01390793 0.06741019
v 0.06569073 0.01280881 0.06996854
v 0.06950425 0.01486369 0.06627885
v 0.06793370 0.01509201 0.06655525
v 0.06666253 0.01524599 0.06675453
v 0.06569073 0.01363713 0.06901076
v 0.07152614 0.01465661 0.06572604
v 0.07096885 0.01539997 0.06504467
v 0.05616615 0.01106720 0.07390248
v 0.04913327 0.00778046 0.07838923
v 0.05807291 0.01177340 0.07289328
v 0.06378858 0.01303713 0.07019351
v 0.06188182 0.01321235 0.07039921
v 0.06061986 0.01331323 0.07052135
v 0.04913327 -0.00882850 0.04222521
v 0.07156298 0.00857692 0.02233692
v 0.04913327 -0.00807982 0.04203236
v 0.07165510 0.01048313 0.02211837
v 0.09523164 0.01151322 0.04203879
v 0.09593170 0.01048313 0.03912690
v 0.09612054 0.01048313 0.03722421
v 0.09563233 0.01238402 0.03912690
v 0.09533757 0.01224597 0.04094603
v 0.09617580 0.01048313 0.03531509
v 0.09593631 0.01238402 0.03341239
v 0.09421378 0.01986549 0.02211837
v 0.09533757 0.01375395 0.03912690
v 0.09507044 0.01470970 0.03912690
v 0.09515795 0.01503360 0.03764203
v 0.09454079 0.01619644 0.03912690
v 0.09361504 0.01770972 0.04103602
v 0.09307157 0.01866017 0.04103602
v 0.09184185 0.01956814 0.04293872
v 0.08957124 0.02100178 0.04399934
v 0.08855799 0.01951504 0.04862108
v 0.09052923 0.02137877 0.04096531
v 0.08987982 0.02117169 0.04293872
v 0.09147339 0.02102302 0.04029037
v 0.08843363 0.02041771 0.04663483
v 0.08771975 0.02100178 0.04592132
v 0.08664663 0.02028496 0.04865323
v 0.08473987 0.02004071 0.05056235
v 0.08134087 0.02080532 0.05115372
v 0.08473987 0.01933982 0.05206008
v 0.08366214 0.01901062 0.05333925
v 0.08127639 0.01885663 0.05497840
v 0.08239096 0.01921770 0.05371208
v 0.07902421 0.01864424 0.05653398
v 0.07521530 0.01866548 0.05841096
v 0.07330854 0.01811858 0.06008224
v 0.07747209 0.01887787 0.05692609
v 0.07330854 0.01735397 0.06134856
v 0.07024115 0.01710972 0.06286558
v 0.07140639 0.01696635 0.06265345
v 0.06950425 0.01560705 0.06532750
v 0.08000522 0.01906371 0.05533194
v 0.06741786 0.01569732 0.06587388
v 0.06759749 0.01675927 0.06418332
v 0.06569073 0.01596812 0.06579675
v 0.06569073 0.01530440 0.06684452
v 0.06378858 0.01379111 0.06924216
v 0.05616615 0.01178933 0.07295114
v 0.04913327 0.00803532 0.07804855
v 0.05934869 0.01336633 0.07059848
v 0.05807291 0.01272385 0.07158840
v 0.07060961 0.00857692 0.02306328
v 0.04913327 -0.00768159 0.04198094
v 0.07179327 0.01238402 0.02211837
v 0.04913327 -0.00666212 0.04189095
v 0.04913327 -0.00513290 0.04198737
v 0.09585340 0.01238402 0.03722421
v 0.09596395 0.01238402 0.03531509
v 0.09558627 0.01429023 0.03341239
v 0.09416312 0.02001416 0.02211837
v 0.09526388 0.01535218 0.03531509
v 0.09528230 0.01540528 0.03341239
v 0.09540666 0.01435395 0.03709565
v 0.09523164 0.01527254 0.03636928
v 0.09373479 0.01798052 0.03912690
v 0.09483555 0.01602122 0.03709565
v 0.09324659 0.01893628 0.03912690
v 0.09247743 0.02000885 0.03912690
v 0.09201686 0.02010443 0.04096531
v 0.08843363 0.02116638 0.04471928
v 0.08899093 0.02074691 0.04526566
v 0.08854878 0.02169205 0.04293872
v 0.08854878 0.02219117 0.04103602
v 0.09045553 0.02178762 0.03912690
v 0.09159314 0.02112390 0.03912690
v 0.08664663 0.02116107 0.04636485
v 0.08664663 0.02082125 0.04732263
v 0.08664663 0.02167612 0.04484141
v 0.08569325 0.02095930 0.04770188
v 0.08226201 0.02107612 0.04988740
v 0.08287457 0.02061417 0.05053664
v 0.08006970 0.02098585 0.05156512
v 0.08079279 0.02042302 0.05231077
v 0.08294825 0.01961593 0.05260646
v 0.08075595 0.01937699 0.05435488
v 0.07330854 0.01886725 0.05875164
v 0.07620092 0.01906371 0.05724106
v 0.07521530 0.01916991 0.05745318
v 0.06896998 0.01722653 0.06307127
v 0.06956411 0.01665308 0.06377836
v 0.07902421 0.01986549 0.05436774
v 0.07902421 0.01920177 0.05558263
v 0.06759749 0.01730618 0.06323197
v 0.06569073 0.01685485 0.06429259
v 0.06378858 0.01537342 0.06696022
v 0.05807291 0.01338757 0.07063705
v 0.04913327 0.01110968 0.07390248
v 0.04913327 0.01045127 0.07480241
v 0.06188182 0.01483714 0.06797585
v 0.07220318 0.01429023 0.02211837
v 0.04913327 -0.00467626 0.04208379
v 0.09555864 0.01429023 0.03531509
v 0.09361504 0.02131506 0.02211837
v 0.09486318 0.01630794 0.03531509
v 0.09376702 0.01828849 0.03740419
v 0.09331106 0.01905309 0.03816270
v 0.09358280 0.02137877 0.02211837
v 0.08664663 0.02225488 0.04293872
v 0.08667427 0.02268498 0.04111959
v 0.08430234 0.02300887 0.04254018
v 0.08845206 0.02258940 0.03908833
v 0.08732827 0.02279648 0.03969900
v 0.08898632 0.02270622 0.03722421
v 0.08942847 0.02474517 0.02211837
v 0.08859483 0.02512747 0.02211837
v 0.09270772 0.02232922 0.02211837
v 0.09168986 0.02315754 0.02211837
v 0.09038185 0.02409207 0.02211837
v 0.08473987 0.02221241 0.04484141
v 0.08283311 0.02209559 0.04675053
v 0.08370820 0.02284427 0.04381293
v 0.08287457 0.02134691 0.04873036
v 0.08093096 0.02189382 0.04865323
v 0.08079279 0.02120886 0.05053664
v 0.07902421 0.02159647 0.05056235
v 0.07902421 0.02110266 0.05183509
v 0.07902421 0.02066726 0.05278644
v 0.07140639 0.01898407 0.05898305
v 0.07330854 0.01932920 0.05780030
v 0.07711745 0.02030089 0.05436774
v 0.07711745 0.02086372 0.05320426
v 0.07521530 0.01973805 0.05627043
v 0.06759749 0.01789556 0.06198494
v 0.06569073 0.01734866 0.06334125
v 0.06378858 0.01604776 0.06579675
v 0.06378858 0.01687078 0.06426045
v 0.05997506 0.01540528 0.06704379
v 0.05997506 0.01488493 0.06800156
v 0.06188182 0.01539997 0.06701808
v 0.05807291 0.01397695 0.06960857
v 0.05661752 0.01337695 0.07061777
v 0.04913327 0.01175216 0.07295114
v 0.04913327 0.01131145 0.07360680
v 0.07330394 0.01810264 0.02211837
v 0.04913327 -0.00284970 0.04250161
v 0.04913327 -0.00094881 0.04300943
v 0.08485962 0.02315754 0.04111959
v 0.08283311 0.02366197 0.04103602
v 0.08298049 0.02321595 0.04308013
v 0.08853957 0.02514871 0.02211837
v 0.08775199 0.02290799 0.03843268
v 0.08298049 0.02267436 0.04492497
v 0.08243703 0.02301418 0.04434645
v 0.08157115 0.02280179 0.04561277
v 0.07902421 0.02226550 0.04865323
v 0.08093096 0.02258409 0.04667982
v 0.07711745 0.02188320 0.05056235
v 0.07711745 0.02126196 0.05225291
v 0.07140639 0.01940354 0.05803170
v 0.06996021 0.01903716 0.05909233
v 0.07603051 0.02094868 0.05339067
v 0.07330854 0.01999823 0.05627043
v 0.06569073 0.01791680 0.06198494
v 0.06869364 0.01905840 0.05913733
v 0.06378858 0.01731680 0.06330268
v 0.05997506 0.01602122 0.06579675
v 0.05807291 0.01537342 0.06699879
v 0.05807291 0.01487962 0.06795014
v 0.04913327 0.01278757 0.07115772
v 0.04913327 0.01259110 0.07151126
v 0.04913327 0.01201765 0.07250760
v 0.07395335 0.01987080 0.02211837
v 0.04913327 0.00062820 0.04359438
v 0.08093096 0.02395401 0.04103602
v 0.08093096 0.02364073 0.04293872
v 0.08473987 0.02351861 0.03912690
v 0.08665124 0.02572747 0.02211837
v 0.08283311 0.02394339 0.03912690
v 0.08847048 0.02516995 0.02211837
v 0.08093096 0.02314162 0.04492497
v 0.08029999 0.02292923 0.04599202
v 0.07902421 0.02272214 0.04724549
v 0.07521530 0.02198940 0.05056235
v 0.07532583 0.02128320 0.05263860
v 0.07711745 0.02247790 0.04865323
v 0.07140639 0.02009912 0.05627043
v 0.07476394 0.02100178 0.05352566
v 0.06844493 0.01905840 0.05913733
v 0.06717376 0.01903185 0.05905376
v 0.06569073 0.01859645 0.06008224
v 0.06378858 0.01781592 0.06198494
v 0.06188182 0.01725839 0.06319340
v 0.05997506 0.01681237 0.06400333
v 0.05807291 0.01593626 0.06579675
v 0.04913327 0.01322828 0.07030922
v 0.07435404 0.02070443 0.02211837
v 0.04913327 0.00160519 0.04405719
v 0.04913327 0.00281051 0.04471285
v 0.04913327 0.00432910 0.04560634
v 0.04913327 0.00529548 0.04619772
v 0.07902421 0.02406021 0.04103602
v 0.07902421 0.02381065 0.04293872
v 0.08093096 0.02420357 0.03912690
v 0.07902421 0.02341241 0.04484141
v 0.08650386 0.02573809 0.02211837
v 0.07902421 0.02301418 0.04629414
v 0.07521530 0.02251506 0.04865323
v 0.07330854 0.02194161 0.05056235
v 0.07330854 0.02138408 0.05246504
v 0.07330854 0.02101771 0.05358994
v 0.07711745 0.02280710 0.04749618
v 0.07330854 0.02067788 0.05454129
v 0.07140639 0.02070443 0.05447701
v 0.06950425 0.02005664 0.05627043
v 0.06569073 0.01897876 0.05884806
v 0.05897102 0.01715751 0.06296200
v 0.05997506 0.01719468 0.06305198
v 0.05616615 0.01576635 0.06579675
v 0.04913327 0.01364775 0.06935787
v 0.04913327 0.01336633 0.07001353
v 0.07498501 0.02174515 0.02211837
v 0.06657963 0.01724777 0.03047479
v 0.04913327 0.01249553 0.05170653
v 0.04913327 0.00834329 0.04841539
v 0.07902421 0.02425667 0.03912690
v 0.07711745 0.02403897 0.04103602
v 0.07711745 0.02382127 0.04293872
v 0.08473987 0.02586022 0.02211837
v 0.07711745 0.02348675 0.04484141
v 0.07711745 0.02306728 0.04654483
v 0.07521530 0.02281241 0.04747047
v 0.07040696 0.02096461 0.05343567
v 0.07140639 0.02099647 0.05352566
v 0.07330854 0.02241418 0.04865323
v 0.06966544 0.02068319 0.05419418
v 0.06759749 0.01990797 0.05627043
v 0.06759749 0.02038585 0.05436774
v 0.05769985 0.01706193 0.06242204
v 0.04913327 0.01483183 0.06577747
v 0.04913327 0.01448138 0.06708235
v 0.04913327 0.01428492 0.06769945
v 0.04913327 0.01387076 0.06882435
v 0.07499883 0.02176639 0.02211837
v 0.04913327 0.01367430 0.05278644
v 0.04913327 0.01382828 0.05292786
v 0.04913327 0.01044596 0.05003525
v 0.07521530 0.02389029 0.04103602
v 0.07521530 0.02368321 0.04293872
v 0.07711745 0.02419826 0.03912690
v 0.07521530 0.02338586 0.04484141
v 0.08460171 0.02585491 0.02211837
v 0.07521530 0.02303542 0.04651912
v 0.07140639 0.02175046 0.05056235
v 0.06913579 0.02089558 0.05306927
v 0.07363555 0.02296108 0.04622344
v 0.07140639 0.02216993 0.04865323
v 0.06761131 0.02077877 0.05244576
v 0.06569073 0.02006726 0.05436774
v 0.05629511 0.01691326 0.06186280
v 0.04913327 0.01495926 0.06519894
v 0.07596143 0.02306197 0.02211837
v 0.04913327 0.01442298 0.05357066
v 0.07330854 0.02362480 0.04103602
v 0.07521530 0.02402835 0.03912690
v 0.07330854 0.02341772 0.04293872
v 0.07312431 0.02309383 0.04502782
v 0.08269494 0.02575402 0.02211837
v 0.08093096 0.02563721 0.02211837
v 0.07236899 0.02286551 0.04578633
v 0.07140639 0.02252037 0.04675053
v 0.06950425 0.02183010 0.04865323
v 0.06569073 0.02041771 0.05246504
v 0.04913327 0.01513979 0.06420903
v 0.07688717 0.02394870 0.02211837
v 0.04913327 0.01475218 0.05396277
v 0.04913327 0.01537342 0.05493983
v 0.07140639 0.02326905 0.04103602
v 0.07132810 0.02305135 0.04294515
v 0.07330854 0.02374693 0.03912690
v 0.08078819 0.02562128 0.02211837
v 0.07190841 0.02295577 0.04452001
v 0.07132810 0.02276993 0.04502782
v 0.06950425 0.02214338 0.04675053
v 0.06759749 0.02144780 0.04865323
v 0.04913327 0.01518758 0.06390692
v 0.07794648 0.02485667 0.02211837
v 0.04913327 0.01541590 0.05502339
v 0.07002008 0.02296639 0.04103602
v 0.07026879 0.02290799 0.04232163
v 0.07140639 0.02337525 0.03912690
v 0.07064185 0.02282834 0.04358795
v 0.07901961 0.02526021 0.02211837
v 0.06469129 0.02096992 0.04778544
v 0.06515186 0.02087435 0.04905176
v 0.04913327 0.01529378 0.06323197
v 0.06605919 0.02138939 0.03722421
v 0.06759749 0.02224427 0.03722421
v 0.06907131 0.02265312 0.03531509
v 0.07891367 0.02523367 0.02211837
v 0.04913327 0.01561767 0.05567905
v 0.06906670 0.02274869 0.04103602
v 0.06759749 0.02220179 0.04293872
v 0.07140639 0.02340179 0.03722421
v 0.06983585 0.02301418 0.03912690
v 0.06985888 0.02302480 0.03722421
v 0.06447943 0.02102833 0.04675053
v 0.04913327 0.01570263 0.06008224
v 0.04913327 0.01547962 0.06190137
v 0.06759749 0.02238763 0.03912690
v 0.06891011 0.02276462 0.03722421
v 0.04913327 0.01573980 0.05630900
v 0.04913327 0.01585661 0.05758174
v 0.06759749 0.02236108 0.04103602
v 0.06888247 0.02278055 0.03912690
v 0.06352605 0.02077877 0.04675053
v 0.04913327 0.01575573 0.05949087
v 0.04913327 0.01585130 0.05817312
f 1 2 3
f 1 3 16
f 1 16 36
f 1 36 64
f 1 64 63
f 1 63 98
f 1 98 135
f 1 135 142
f 1 142 184
f 1 184 183
f 1 183 225
f 1 225 233
f 1 233 232
f 1 232 231
f 1 231 230
f 1 230 229
f 1 229 228
f 1 228 285
f 1 285 284
f 1 284 336
f 1 336 406
f 1 406 476
f 1 476 549
f 1 549 548
f 1 548 620
f 1 620 696
f 1 696 695
f 1 695 774
f 1 774 845
f 1 845 921
f 1 921 1001
f 1 1001 1002
f 1 1002 1078
f 1 1078 1141
f 1 1141 1200
f 1 1200 1253
f 1 1253 1302
f 1 1302 1301
f 1 1301 1347
f 1 1347 1346
f 1 1346 1375
f 1 1375 1374
f 1 1374 1373
f 1 1373 1399
f 1 1399 1424
f 1 1424 1423
f 1 1423 1446
f 1 1446 1445
f 1 1445 1444
f 1 1444 1443
f 1 1443 1464
f 1 1464 1477
f 1 1477 1489
f 1 1489 1499
f 1 1499 1512
f 1 1512 1511
f 1 1511 1520
f 1 1520 1521
f 1 1521 1516
f 1 1516 1515
f 1 1515 1504
f 1 1504 1491
f 1 1491 1480
f 1 1480 1479
f 1 1479 1466
f 1 1466 1449
f 1 1449 1448
f 1 1448 1427
f 1 1427 1450
f 1 1450 1428
f 1 1428 1404
f 1 1404 1403
f 1 1403 1402
f 1 1402 1401
f 1 1401 1377
f 1 1377 1350
f 1 1350 1349
f 1 1349 1305
f 1 1305 1260
f 1 1260 1259
f 1 1259 1257
f 1 1257 1207
f 1 1207 1205
f 1 1205 1148
f 1 1148 1086
f 1 1086 1012
f 1 1012 934
f 1 934 851
f 1 851 779
f 1 779 701
f 1 701 624
f 1 624 556
f 1 556 485
f 1 485 417
f 1 417 348
f 1 348 343
f 1 343 289
f 1 289 234
f 1 234 185
f 1 185 143
f 1 143 100
f 1 100 65
f 1 65 37
f 1 37 17
f 1 17 4
f 1 4 5
f 1 5 6
f 1 6 7
f 1 7 2
f 2 7 8
f 2 8 9
f 2 9 10
f 2 10 3
f 3 10 11
f 3 11 12
f 3 12 13
f 3 13 14
f 3 14 15
f 3 15 16
f 4 17 18
f 4 18 19
f 4 19 20
f 4 20 5
f 5 20 21
f 5 21 6
f 6 21 22
f 6 22 7
f 7 23 9
f 7 9 8
f 7 22 24
f 7 24 23
f 9 25 11
f 9 11 10
f 9 23 26
f 9 26 25
f 11 25 12
f 12 27 14
f 12 14 13
f 12 25 28
f 12 28 29
f 12 29 27
f 14 27 30
f 14 30 31
f 14 31 32
f 14 32 15
f 15 32 33
f 15 33 34
f 15 34 35
f 15 35 36
f 15 36 16
f 17 37 38
f 17 38 39
f 17 39 40
f 17 40 18
f 18 40 20
f 18 20 19
f 20 41 22
f 20 22 21
f 20 40 42
f 20 42 43
f 20 43 44
f 20 44 41
f 22 41 24
f 23 24 45
f 23 45 46
f 23 46 26
f 24 47 48
f 24 48 45
f 24 41 49
f 24 49 47
f 25 26 50
f 25 50 28
f 26 46 50
f 27 29 30
f 28 51 29
f 28 50 51
f 29 51 52
f 29 52 30
f 30 52 53
f 30 53 54
f 30 54 31
f 31 54 32
f 32 54 55
f 32 55 56
f 32 56 57
f 32 57 58
f 32 58 59
f 32 59 33
f 33 59 34
f 34 59 58
f 34 58 35
f 35 58 60
f 35 60 61
f 35 61 62
f 35 62 63
f 35 63 64
f 35 64 36
f 37 65 66
f 37 66 67
f 37 67 68
f 37 68 38
f 38 68 39
f 39 68 40
f 40 68 69
f 40 69 42
f 41 44 49
f 42 69 70
f 42 70 43
f 43 70 71
f 43 71 72
f 43 72 44
f 44 72 73
f 44 73 49
f 45 48 46
f 46 74 75
f 46 75 76
f 46 76 50
f 46 48 77
f 46 77 78
f 46 78 74
f 47 49 73
f 47 73 79
f 47 79 80
f 47 80 81
f 47 81 82
f 47 82 48
f 48 82 83
f 48 83 84
f 48 84 77
f 50 76 51
f 51 85 86
f 51 86 52
f 51 76 75
f 51 75 85
f 52 86 85
f 52 85 87
f 52 87 53
f 53 87 85
f 53 85 88
f 53 88 89
f 53 89 90
f 53 90 91
f 53 91 54
f 54 91 55
f 55 92 93
f 55 93 94
f 55 94 56
f 55 91 92
f 56 93 57
f 56 94 93
f 57 93 95
f 57 95 58
f 58 95 96
f 58 96 97
f 58 97 60
f 60 97 62
f 60 62 61
f 62 98 63
f 62 97 99
f 62 99 98
f 65 100 101
f 65 101 66
f 66 101 102
f 66 102 67
f 67 102 103
f 67 103 68
f 68 70 69
f 68 103 104
f 68 104 70
f 70 104 103
f 70 103 105
f 70 105 71
f 71 105 106
f 71 106 72
f 72 106 73
f 73 107 79
f 73 106 107
f 74 108 75
f 74 78 108
f 75 108 109
f 75 109 85
f 77 84 110
f 77 110 78
f 78 111 108
f 78 110 112
f 78 112 113
f 78 113 114
f 78 114 111
f 79 107 80
f 80 115 116
f 80 116 117
f 80 117 118
f 80 118 81
f 80 107 115
f 81 119 83
f 81 83 82
f 81 118 119
f 83 119 84
f 84 119 120
f 84 120 110
f 85 109 121
f 85 121 122
f 85 122 123
f 85 123 124
f 85 124 88
f 88 124 125
f 88 125 89
f 89 125 126
f 89 126 127
f 89 127 128
f 89 128 90
f 90 128 91
f 91 128 92
f 92 128 129
f 92 129 93
f 93 129 130
f 93 130 96
f 93 96 95
f 96 130 131
f 96 131 132
f 96 132 97
f 97 132 133
f 97 133 99
f 98 99 134
f 98 134 135
f 99 133 136
f 99 136 137
f 99 137 138
f 99 138 139
f 99 139 140
f 99 140 141
f 99 141 142
f 99 142 134
f 100 143 144
f 100 144 145
f 100 145 102
f 100 102 101
f 102 145 144
f 102 144 146
f 102 146 103
f 103 146 147
f 103 147 148
f 103 148 149
f 103 149 105
f 105 149 150
f 105 150 106
f 106 150 151
f 106 151 115
f 106 115 107
f 108 121 109
f 108 111 152
f 108 152 121
f 110 120 113
f 110 113 112
f 111 114 153
f 111 153 152
f 113 120 114
f 114 120 154
f 114 154 155
f 114 155 153
f 115 151 116
f 116 151 156
f 116 156 157
f 116 157 117
f 117 158 118
f 117 157 159
f 117 159 158
f 118 158 160
f 118 160 120
f 118 120 119
f 120 160 161
f 120 161 154
f 121 152 162
f 121 162 122
f 122 162 123
f 123 163 164
f 123 164 126
f 123 126 125
f 123 125 124
f 123 162 165
f 123 165 166
f 123 166 163
f 126 164 127
f 127 164 167
f 127 167 168
f 127 168 169
f 127 169 170
f 127 170 128
f 128 170 171
f 128 171 172
f 128 172 129
f 129 172 173
f 129 173 174
f 129 174 130
f 130 174 131
f 131 175 176
f 131 176 133
f 131 133 132
f 131 174 175
f 133 176 137
f 133 137 136
f 134 142 135
f 137 177 139
f 137 139 138
f 137 176 178
f 137 178 179
f 137 179 180
f 137 180 177
f 139 177 140
f 140 180 181
f 140 181 182
f 140 182 183
f 140 183 184
f 140 184 141
f 140 177 180
f 141 184 142
f 143 185 186
f 143 186 187
f 143 187 144
f 144 187 188
f 144 188 146
f 146 189 147
f 146 188 190
f 146 190 191
f 146 191 189
f 147 189 148
f 148 189 150
f 148 150 149
f 150 192 156
f 150 156 151
f 150 189 191
f 150 191 193
f 150 193 192
f 152 194 162
f 152 153 195
f 152 195 196
f 152 196 194
f 153 155 195
f 154 161 155
f 155 197 195
f 155 161 198
f 155 198 197
f 156 192 157
f 157 192 199
f 157 199 200
f 157 200 159
f 158 201 160
f 158 159 202
f 158 202 201
f 159 200 199
f 159 199 203
f 159 203 202
f 160 201 161
f 161 201 198
f 162 194 165
f 163 204 167
f 163 167 164
f 163 166 205
f 163 205 206
f 163 206 204
f 165 207 166
f 165 194 196
f 165 196 207
f 166 207 208
f 166 208 209
f 166 209 205
f 167 210 168
f 167 204 210
f 168 210 211
f 168 211 212
f 168 212 169
f 169 212 213
f 169 213 170
f 170 213 214
f 170 214 215
f 170 215 173
f 170 173 171
f 171 173 172
f 173 215 216
f 173 216 217
f 173 217 218
f 173 218 179
f 173 179 178
f 173 178 175
f 173 175 174
f 175 178 176
f 179 218 219
f 179 219 220
f 179 220 221
f 179 221 180
f 180 222 223
f 180 223 181
f 180 221 224
f 180 224 222
f 181 225 182
f 181 223 226
f 181 226 227
f 181 227 228
f 181 228 229
f 181 229 230
f 181 230 231
f 181 231 232
f 181 232 233
f 181 233 225
f 182 225 183
f 185 234 186
f 186 235 236
f 186 236 237
f 186 237 187
f 186 234 235
f 187 237 238
f 187 238 239
f 187 239 188
f 188 239 240
f 188 240 241
f 188 241 191
f 188 191 190
f 191 241 242
f 191 242 193
f 192 193 243
f 192 243 199
f 193 242 244
f 193 244 243
f 195 245 196
f 195 197 245
f 196 245 246
f 196 246 247
f 196 247 248
f 196 248 207
f 197 198 249
f 197 249 250
f 197 250 251
f 197 251 252
f 197 252 245
f 198 201 253
f 198 253 249
f 199 243 254
f 199 254 255
f 199 255 256
f 199 256 203
f 201 202 257
f 201 257 253
f 202 203 258
f 202 258 257
f 203 256 259
f 203 259 258
f 204 206 260
f 204 260 261
f 204 261 210
f 205 209 206
f 206 209 260
f 207 262 263
f 207 263 208
f 207 248 262
f 208 263 209
f 209 264 265
f 209 265 260
f 209 263 266
f 209 266 264
f 210 261 267
f 210 267 211
f 211 268 269
f 211 269 212
f 211 267 268
f 212 269 270
f 212 270 213
f 213 270 216
f 213 216 214
f 214 216 215
f 216 270 271
f 216 271 217
f 217 271 272
f 217 272 273
f 217 273 218
f 218 273 219
f 219 273 220
f 220 274 275
f 220 275 224
f 220 224 221
f 220 273 276
f 220 276 274
f 222 277 223
f 222 224 278
f 222 278 277
f 223 277 279
f 223 279 226
f 224 275 278
f 226 280 281
f 226 281 282
f 226 282 283
f 226 283 284
f 226 284 285
f 226 285 227
f 226 279 277
f 226 277 286
f 226 286 287
f 226 287 288
f 226 288 280
f 227 285 228
f 234 289 236
f 234 236 235
f 236 290 291
f 236 291 238
f 236 238 237
f 236 289 290
f 238 291 292
f 238 292 240
f 238 240 239
f 240 293 241
f 240 292 294
f 240 294 295
f 240 295 293
f 241 293 242
f 242 293 296
f 242 296 297
f 242 297 244
f 243 244 297
f 243 297 254
f 245 252 298
f 245 298 246
f 246 299 247
f 246 298 299
f 247 300 301
f 247 301 262
f 247 262 248
f 247 299 300
f 249 253 302
f 249 302 303
f 249 303 304
f 249 304 250
f 250 304 305
f 250 305 251
f 251 305 298
f 251 298 252
f 253 257 302
f 254 297 306
f 254 306 255
f 255 306 307
f 255 307 308
f 255 308 256
f 256 309 310
f 256 310 258
f 256 258 259
f 256 308 311
f 256 311 312
f 256 312 309
f 257 258 313
f 257 313 302
f 258 310 313
f 260 265 261
f 261 265 264
f 261 264 314
f 261 314 315
f 261 315 267
f 262 301 316
f 262 316 266
f 262 266 263
f 264 266 316
f 264 316 317
f 264 317 318
f 264 318 314
f 267 315 319
f 267 319 320
f 267 320 268
f 268 320 321
f 268 321 269
f 269 321 271
f 269 271 270
f 271 322 323
f 271 323 324
f 271 324 325
f 271 325 272
f 271 321 326
f 271 326 322
f 272 276 273
f 272 325 276
f 274 276 327
f 274 327 328
f 274 328 278
f 274 278 275
f 276 325 324
f 276 324 327
f 277 278 286
f 278 328 286
f 280 288 329
f 280 329 330
f 280 330 331
f 280 331 332
f 280 332 281
f 281 332 333
f 281 333 334
f 281 334 282
f 282 334 335
f 282 335 336
f 282 336 283
f 283 336 284
f 286 337 338
f 286 338 339
f 286 339 340
f 286 340 341
f 286 341 287
f 286 328 342
f 286 342 337
f 287 341 288
f 288 341 340
f 288 340 330
f 288 330 329
f 289 343 290
f 290 344 345
f 290 345 346
f 290 346 347
f 290 347 291
f 290 343 348
f 290 348 344
f 291 347 349
f 291 349 350
f 291 350 292
f 292 350 351
f 292 351 294
f 293 352 353
f 293 353 354
f 293 354 355
f 293 355 296
f 293 295 352
f 294 351 356
f 294 356 357
f 294 357 358
f 294 358 295
f 295 358 352
f 296 355 354
f 296 354 297
f 297 354 306
f 298 359 299
f 298 305 360
f 298 360 361
f 298 361 359
f 299 362 300
f 299 359 362
f 300 362 363
f 300 363 301
f 301 364 365
f 301 365 317
f 301 317 316
f 301 363 364
f 302 313 366
f 302 366 367
f 302 367 303
f 303 367 304
f 304 367 305
f 305 367 368
f 305 368 369
f 305 369 370
f 305 370 360
f 306 354 371
f 306 371 372
f 306 372 373
f 306 373 374
f 306 374 308
f 306 308 307
f 308 374 311
f 309 375 376
f 309 376 377
f 309 377 310
f 309 312 378
f 309 378 375
f 310 377 366
f 310 366 313
f 311 374 373
f 311 373 379
f 311 379 380
f 311 380 381
f 311 381 382
f 311 382 383
f 311 383 384
f 311 384 312
f 312 384 385
f 312 385 378
f 314 318 315
f 315 386 319
f 315 318 387
f 315 387 386
f 317 365 388
f 317 388 318
f 318 388 365
f 318 365 389
f 318 389 390
f 318 390 387
f 319 386 391
f 319 391 392
f 319 392 320
f 320 392 326
f 320 326 321
f 322 393 394
f 322 394 324
f 322 324 323
f 322 326 392
f 322 392 391
f 322 391 395
f 322 395 396
f 322 396 397
f 322 397 393
f 324 394 398
f 324 398 399
f 324 399 327
f 327 399 328
f 328 399 400
f 328 400 342
f 330 340 401
f 330 401 402
f 330 402 333
f 330 333 331
f 331 333 332
f 333 403 404
f 333 404 334
f 333 402 403
f 334 404 405
f 334 405 335
f 335 405 406
f 335 406 336
f 337 342 400
f 337 400 338
f 338 407 408
f 338 408 339
f 338 400 409
f 338 409 407
f 339 408 340
f 340 410 411
f 340 411 401
f 340 408 407
f 340 407 412
f 340 412 413
f 340 413 410
f 344 414 345
f 344 348 414
f 345 414 346
f 346 349 347
f 346 414 415
f 346 415 416
f 346 416 349
f 348 417 418
f 348 418 414
f 349 416 419
f 349 419 420
f 349 420 351
f 349 351 350
f 351 420 356
f 352 354 353
f 352 358 421
f 352 421 422
f 352 422 354
f 354 422 371
f 356 423 357
f 356 420 424
f 356 424 425
f 356 425 426
f 356 426 427
f 356 427 423
f 357 423 358
f 358 423 428
f 358 428 429
f 358 429 421
f 359 363 362
f 359 361 430
f 359 430 431
f 359 431 432
f 359 432 363
f 360 370 430
f 360 430 361
f 363 433 434
f 363 434 364
f 363 432 433
f 364 434 365
f 365 434 435
f 365 435 436
f 365 436 389
f 366 437 367
f 366 377 376
f 366 376 437
f 367 437 368
f 368 438 369
f 368 437 376
f 368 376 439
f 368 439 440
f 368 440 438
f 369 438 441
f 369 441 370
f 370 441 442
f 370 442 443
f 370 443 444
f 370 444 445
f 370 445 446
f 370 446 431
f 370 431 430
f 371 422 372
f 372 381 379
f 372 379 373
f 372 422 421
f 372 421 447
f 372 447 448
f 372 448 381
f 375 378 449
f 375 449 450
f 375 450 376
f 376 450 439
f 378 385 451
f 378 451 449
f 379 381 380
f 381 448 382
f 382 448 452
f 382 452 453
f 382 453 454
f 382 454 455
f 382 455 383
f 383 455 456
f 383 456 384
f 384 456 385
f 385 456 451
f 386 457 458
f 386 458 391
f 386 387 459
f 386 459 460
f 386 460 457
f 387 390 459
f 389 436 390
f 390 436 461
f 390 461 459
f 391 458 395
f 393 397 398
f 393 398 394
f 395 462 397
f 395 397 396
f 395 458 462
f 397 462 463
f 397 463 464
f 397 464 465
f 397 465 466
f 397 466 467
f 397 467 398
f 398 409 400
f 398 400 399
f 398 467 409
f 401 468 469
f 401 469 402
f 401 411 470
f 401 470 471
f 401 471 468
f 402 469 472
f 402 472 473
f 402 473 474
f 402 474 403
f 403 474 404
f 404 475 405
f 404 474 475
f 405 475 476
f 405 476 406
f 407 409 477
f 407 477 412
f 409 478 479
f 409 479 477
f 409 467 478
f 410 470 411
f 410 413 480
f 410 480 470
f 412 480 413
f 412 477 479
f 412 479 480
f 414 418 481
f 414 481 482
f 414 482 415
f 415 482 483
f 415 483 416
f 416 483 484
f 416 484 424
f 416 424 419
f 417 485 418
f 418 486 487
f 418 487 488
f 418 488 489
f 418 489 481
f 418 485 486
f 419 424 420
f 421 429 428
f 421 428 447
f 423 427 490
f 423 490 428
f 424 484 425
f 425 484 491
f 425 491 492
f 425 492 426
f 426 490 427
f 426 492 493
f 426 493 494
f 426 494 490
f 428 495 447
f 428 490 496
f 428 496 495
f 431 446 432
f 432 446 497
f 432 497 498
f 432 498 499
f 432 499 500
f 432 500 433
f 433 500 434
f 434 500 499
f 434 499 435
f 435 499 498
f 435 498 501
f 435 501 502
f 435 502 503
f 435 503 436
f 436 503 461
f 438 440 504
f 438 504 441
f 439 450 505
f 439 505 440
f 440 505 506
f 440 506 504
f 441 507 442
f 441 504 508
f 441 508 507
f 442 509 443
f 442 507 510
f 442 510 511
f 442 511 509
f 443 509 512
f 443 512 513
f 443 513 514
f 443 514 445
f 443 445 444
f 445 498 497
f 445 497 446
f 445 514 498
f 447 495 448
f 448 495 452
f 449 515 450
f 449 451 516
f 449 516 515
f 450 515 505
f 451 456 517
f 451 517 516
f 452 495 518
f 452 518 453
f 453 518 519
f 453 519 520
f 453 520 454
f 454 521 455
f 454 520 522
f 454 522 521
f 455 521 456
f 456 521 517
f 457 460 458
f 458 523 524
f 458 524 462
f 458 460 525
f 458 525 526
f 458 526 527
f 458 527 528
f 458 528 529
f 458 529 530
f 458 530 523
f 459 461 525
f 459 525 460
f 461 503 525
f 462 531 532
f 462 532 533
f 462 533 463
f 462 524 531
f 463 533 465
f 463 465 464
f 465 534 535
f 465 535 536
f 465 536 537
f 465 537 479
f 465 479 478
f 465 478 467
f 465 467 538
f 465 538 466
f 465 533 534
f 466 538 467
f 468 471 539
f 468 539 469
f 469 540 472
f 469 539 541
f 469 541 542
f 469 542 540
f 470 480 543
f 470 543 544
f 470 544 545
f 470 545 539
f 470 539 471
f 472 540 473
f 473 546 474
f 473 540 546
f 474 546 475
f 475 547 548
f 475 548 549
f 475 549 476
f 475 546 547
f 479 537 480
f 480 550 543
f 480 537 551
f 480 551 552
f 480 552 550
f 481 489 482
f 482 489 553
f 482 553 483
f 483 553 621
f 483 621 554
f 483 554 484
f 484 554 555
f 484 555 491
f 485 556 557
f 485 557 486
f 486 557 487
f 487 557 558
f 487 558 559
f 487 559 488
f 488 559 489
f 489 559 560
f 489 560 553
f 490 494 561
f 490 561 496
f 491 555 492
f 492 555 562
f 492 562 563
f 492 563 493
f 493 561 494
f 493 563 564
f 493 564 565
f 493 565 561
f 495 496 519
f 495 519 518
f 496 561 566
f 496 566 519
f 498 514 513
f 498 513 567
f 498 567 501
f 501 568 569
f 501 569 503
f 501 503 502
f 501 567 570
f 501 570 512
f 501 512 571
f 501 571 572
f 501 572 568
f 503 569 525
f 504 506 573
f 504 573 508
f 505 515 574
f 505 574 506
f 506 574 573
f 507 508 510
f 508 573 575
f 508 575 576
f 508 576 510
f 509 511 512
f 510 576 577
f 510 577 511
f 511 577 578
f 511 578 512
f 512 579 571
f 512 570 513
f 512 578 579
f 513 570 567
f 515 516 574
f 516 517 580
f 516 580 581
f 516 581 582
f 516 582 574
f 517 521 583
f 517 583 580
f 519 566 584
f 519 584 520
f 520 584 585
f 520 585 522
f 521 522 586
f 521 586 583
f 522 585 587
f 522 587 586
f 523 588 589
f 523 589 590
f 523 590 591
f 523 591 531
f 523 531 524
f 523 530 588
f 525 569 592
f 525 592 593
f 525 593 594
f 525 594 595
f 525 595 526
f 526 595 527
f 527 595 596
f 527 596 528
f 528 596 597
f 528 597 529
f 529 597 530
f 530 597 598
f 530 598 599
f 530 599 600
f 530 600 601
f 530 601 602
f 530 602 603
f 530 603 604
f 530 604 588
f 531 591 532
f 532 591 605
f 532 605 533
f 533 605 606
f 533 606 534
f 534 605 607
f 534 607 608
f 534 608 535
f 534 606 605
f 535 608 609
f 535 609 610
f 535 610 611
f 535 611 612
f 535 612 613
f 535 613 536
f 536 613 551
f 536 551 537
f 539 614 541
f 539 545 615
f 539 615 614
f 540 616 546
f 540 542 614
f 540 614 616
f 541 614 542
f 543 550 544
f 544 550 617
f 544 617 611
f 544 611 618
f 544 618 545
f 545 618 619
f 545 619 615
f 546 616 547
f 547 616 548
f 548 616 620
f 550 552 613
f 550 613 617
f 551 613 552
f 553 560 621
f 554 621 555
f 555 621 622
f 555 622 623
f 555 623 562
f 556 624 625
f 556 625 557
f 557 625 626
f 557 626 558
f 558 626 559
f 559 621 560
f 559 626 625
f 559 625 627
f 559 627 628
f 559 628 629
f 559 629 630
f 559 630 621
f 561 565 566
f 562 623 563
f 563 623 631
f 563 631 632
f 563 632 564
f 564 632 633
f 564 633 634
f 564 634 565
f 565 634 635
f 565 635 636
f 565 636 566
f 566 636 637
f 566 637 584
f 568 638 639
f 568 639 569
f 568 572 640
f 568 640 638
f 569 639 641
f 569 641 592
f 571 579 642
f 571 642 572
f 572 643 644
f 572 644 640
f 572 642 579
f 572 579 643
f 573 574 645
f 573 645 575
f 574 582 645
f 575 645 646
f 575 646 647
f 575 647 577
f 575 577 576
f 577 647 578
f 578 647 648
f 578 648 649
f 578 649 650
f 578 650 643
f 578 643 579
f 580 583 651
f 580 651 652
f 580 652 581
f 581 653 654
f 581 654 582
f 581 652 653
f 582 654 645
f 583 586 655
f 583 655 651
f 584 656 585
f 584 637 656
f 585 656 657
f 585 657 658
f 585 658 659
f 585 659 587
f 586 587 660
f 586 660 661
f 586 661 662
f 586 662 663
f 586 663 664
f 586 664 665
f 586 665 655
f 587 659 660
f 588 666 667
f 588 667 668
f 588 668 669
f 588 669 670
f 588 670 671
f 588 671 589
f 588 604 666
f 589 671 590
f 590 671 672
f 590 672 591
f 591 672 605
f 592 641 593
f 593 641 638
f 593 638 673
f 593 673 594
f 594 673 674
f 594 674 675
f 594 675 596
f 594 596 595
f 596 675 674
f 596 674 676
f 596 676 598
f 596 598 597
f 598 676 599
f 599 676 677
f 599 677 678
f 599 678 679
f 599 679 680
f 599 680 681
f 599 681 600
f 600 681 601
f 601 681 682
f 601 682 602
f 602 682 603
f 603 683 604
f 603 682 683
f 604 683 684
f 604 684 666
f 605 672 607
f 607 672 671
f 607 671 669
f 607 669 685
f 607 685 608
f 608 685 686
f 608 686 609
f 609 686 610
f 610 686 687
f 610 687 688
f 610 688 689
f 610 689 618
f 610 618 611
f 611 613 612
f 611 617 613
f 614 690 616
f 614 615 691
f 614 691 692
f 614 692 693
f 614 693 690
f 615 619 691
f 616 694 695
f 616 695 696
f 616 696 620
f 616 690 697
f 616 697 694
f 618 689 698
f 618 698 619
f 619 698 691
f 621 630 699
f 621 699 622
f 622 699 623
f 623 699 700
f 623 700 631
f 624 701 702
f 624 702 703
f 624 703 704
f 624 704 625
f 625 704 705
f 625 705 706
f 625 706 628
f 625 628 627
f 628 706 707
f 628 707 708
f 628 708 629
f 629 708 709
f 629 709 710
f 629 710 699
f 629 699 630
f 631 700 711
f 631 711 712
f 631 712 713
f 631 713 632
f 632 713 714
f 632 714 633
f 633 714 715
f 633 715 716
f 633 716 634
f 634 716 635
f 635 716 717
f 635 717 636
f 636 717 637
f 637 717 718
f 637 718 657
f 637 657 656
f 638 640 719
f 638 719 720
f 638 720 673
f 638 641 639
f 640 644 721
f 640 721 719
f 643 650 722
f 643 722 644
f 644 722 723
f 644 723 724
f 644 724 721
f 645 654 646
f 646 725 647
f 646 654 726
f 646 726 725
f 647 725 648
f 648 725 727
f 648 727 728
f 648 728 649
f 649 728 650
f 650 728 727
f 650 727 729
f 650 729 730
f 650 730 722
f 651 655 652
f 652 655 665
f 652 665 731
f 652 731 732
f 652 732 653
f 653 733 726
f 653 726 654
f 653 732 734
f 653 734 733
f 657 718 658
f 658 735 659
f 658 718 736
f 658 736 735
f 659 735 737
f 659 737 662
f 659 662 661
f 659 661 660
f 662 737 738
f 662 738 739
f 662 739 740
f 662 740 741
f 662 741 664
f 662 664 663
f 664 742 665
f 664 741 742
f 665 742 743
f 665 743 744
f 665 744 731
f 666 684 667
f 667 745 746
f 667 746 668
f 667 684 747
f 667 747 748
f 667 748 745
f 668 746 669
f 669 746 749
f 669 749 685
f 669 671 670
f 673 720 674
f 674 720 750
f 674 750 751
f 674 751 677
f 674 677 676
f 677 751 678
f 678 751 752
f 678 752 753
f 678 753 679
f 679 753 754
f 679 754 755
f 679 755 680
f 680 755 756
f 680 756 757
f 680 757 681
f 681 756 758
f 681 758 682
f 681 757 756
f 682 758 756
f 682 756 759
f 682 759 683
f 683 759 684
f 684 759 760
f 684 760 747
f 685 749 761
f 685 761 686
f 686 761 687
f 687 761 762
f 687 762 763
f 687 763 688
f 688 764 698
f 688 698 689
f 688 763 764
f 690 693 765
f 690 765 766
f 690 766 697
f 691 698 767
f 691 767 692
f 692 767 693
f 693 768 765
f 693 767 769
f 693 769 770
f 693 770 771
f 693 771 768
f 694 772 773
f 694 773 695
f 694 697 772
f 695 773 774
f 697 775 776
f 697 776 777
f 697 777 772
f 697 766 775
f 698 764 767
f 699 710 700
f 700 710 709
f 700 709 778
f 700 778 711
f 701 779 702
f 702 780 781
f 702 781 705
f 702 705 703
f 702 779 780
f 703 705 704
f 705 781 782
f 705 782 783
f 705 783 706
f 706 783 784
f 706 784 707
f 707 709 708
f 707 784 785
f 707 785 786
f 707 786 709
f 709 786 787
f 709 787 778
f 711 787 788
f 711 788 789
f 711 789 790
f 711 790 712
f 711 778 787
f 712 790 791
f 712 791 792
f 712 792 713
f 713 792 793
f 713 793 715
f 713 715 714
f 715 793 794
f 715 794 795
f 715 795 716
f 716 795 717
f 717 795 796
f 717 796 718
f 718 796 736
f 719 797 720
f 719 721 798
f 719 798 799
f 719 799 797
f 720 797 750
f 721 724 798
f 722 730 723
f 723 730 800
f 723 800 801
f 723 801 802
f 723 802 724
f 724 802 798
f 725 726 803
f 725 803 804
f 725 804 805
f 725 805 727
f 726 733 806
f 726 806 803
f 727 805 729
f 729 805 804
f 729 804 807
f 729 807 808
f 729 808 730
f 730 808 800
f 731 734 732
f 731 744 809
f 731 809 734
f 733 734 806
f 734 809 810
f 734 810 806
f 735 736 811
f 735 811 812
f 735 812 737
f 736 796 813
f 736 813 814
f 736 814 811
f 737 812 738
f 738 815 816
f 738 816 740
f 738 740 739
f 738 812 815
f 740 816 817
f 740 817 741
f 741 817 742
f 742 817 743
f 743 818 809
f 743 809 744
f 743 817 819
f 743 819 818
f 745 820 749
f 745 749 746
f 745 748 821
f 745 821 822
f 745 822 820
f 747 760 748
f 748 760 823
f 748 823 821
f 749 820 761
f 750 824 751
f 750 797 825
f 750 825 824
f 751 824 826
f 751 826 827
f 751 827 752
f 752 827 828
f 752 828 753
f 753 828 829
f 753 829 754
f 754 830 755
f 754 829 831
f 754 831 830
f 755 830 832
f 755 832 756
f 756 833 759
f 756 832 830
f 756 830 833
f 759 833 834
f 759 834 835
f 759 835 760
f 760 836 823
f 760 835 836
f 761 820 837
f 761 837 838
f 761 838 839
f 761 839 762
f 762 839 763
f 763 839 770
f 763 770 769
f 763 769 764
f 764 769 767
f 765 768 840
f 765 840 766
f 766 840 841
f 766 841 775
f 768 771 842
f 768 842 840
f 770 839 843
f 770 843 771
f 771 843 844
f 771 844 842
f 772 777 773
f 773 777 774
f 774 777 845
f 775 846 847
f 775 847 776
f 775 841 848
f 775 848 846
f 776 847 849
f 776 849 850
f 776 850 777
f 777 850 845
f 779 851 852
f 779 852 780
f 780 852 781
f 781 852 853
f 781 853 782
f 782 853 854
f 782 854 855
f 782 855 783
f 783 855 856
f 783 856 784
f 784 856 857
f 784 857 785
f 785 857 858
f 785 858 859
f 785 859 787
f 785 787 786
f 787 859 788
f 788 859 858
f 788 858 860
f 788 860 789
f 789 860 790
f 790 860 861
f 790 861 791
f 791 861 862
f 791 862 863
f 791 863 792
f 792 863 864
f 792 864 794
f 792 794 793
f 794 864 865
f 794 865 795
f 795 865 796
f 796 865 813
f 797 799 866
f 797 866 867
f 797 867 825
f 798 802 868
f 798 868 866
f 798 866 799
f 800 808 869
f 800 869 870
f 800 870 801
f 801 870 871
f 801 871 872
f 801 872 802
f 802 872 868
f 803 806 873
f 803 873 804
f 804 873 807
f 806 874 873
f 806 810 874
f 807 873 874
f 807 874 875
f 807 875 808
f 808 875 876
f 808 876 869
f 809 818 877
f 809 877 878
f 809 878 810
f 810 878 874
f 811 879 812
f 811 814 880
f 811 880 879
f 812 879 881
f 812 881 882
f 812 882 883
f 812 883 815
f 813 865 814
f 814 865 884
f 814 884 880
f 815 883 816
f 816 883 885
f 816 885 886
f 816 886 887
f 816 887 888
f 816 888 817
f 817 888 889
f 817 889 819
f 818 890 877
f 818 819 890
f 819 889 890
f 820 822 891
f 820 891 837
f 821 823 822
f 822 823 892
f 822 892 891
f 823 836 893
f 823 893 892
f 824 825 894
f 824 894 826
f 825 867 895
f 825 895 894
f 826 896 827
f 826 894 897
f 826 897 896
f 827 896 828
f 828 896 898
f 828 898 829
f 829 898 902
f 829 902 831
f 830 831 899
f 830 899 900
f 830 900 901
f 830 901 833
f 831 902 903
f 831 903 904
f 831 904 899
f 833 835 834
f 833 901 905
f 833 905 835
f 835 905 906
f 835 906 907
f 835 907 908
f 835 908 909
f 835 909 910
f 835 910 836
f 836 911 893
f 836 910 909
f 836 909 912
f 836 912 911
f 837 891 838
f 838 913 839
f 838 891 913
f 839 913 843
f 840 914 841
f 840 842 915
f 840 915 914
f 841 914 915
f 841 915 848
f 842 844 916
f 842 916 915
f 843 913 917
f 843 917 918
f 843 918 919
f 843 919 920
f 843 920 916
f 843 916 844
f 845 850 921
f 846 922 847
f 846 848 923
f 846 923 922
f 847 922 849
f 848 924 925
f 848 925 926
f 848 926 927
f 848 927 928
f 848 928 929
f 848 929 930
f 848 930 923
f 848 915 931
f 848 931 924
f 849 922 932
f 849 932 850
f 850 932 933
f 850 933 921
f 851 934 935
f 851 935 852
f 852 935 936
f 852 936 937
f 852 937 853
f 853 937 938
f 853 938 854
f 854 938 939
f 854 939 940
f 854 940 855
f 855 940 941
f 855 941 856
f 856 941 942
f 856 942 857
f 857 942 858
f 858 942 860
f 860 942 941
f 860 941 940
f 860 940 1019
f 860 1019 1018
f 860 1018 1017
f 860 1017 1092
f 860 1092 1091
f 860 1091 1151
f 860 1151 1208
f 860 1208 1258
f 860 1258 1304
f 860 1304 1348
f 860 1348 1376
f 860 1376 1400
f 860 1400 1425
f 860 1425 1447
f 860 1447 1465
f 860 1465 1478
f 860 1478 1490
f 860 1490 1503
f 860 1503 1496
f 860 1496 1484
f 860 1484 1472
f 860 1472 1471
f 860 1471 1455
f 860 1455 1432
f 860 1432 1409
f 860 1409 1381
f 860 1381 1383
f 860 1383 1354
f 860 1354 1319
f 860 1319 1318
f 860 1318 1322
f 860 1322 1321
f 860 1321 1320
f 860 1320 1311
f 860 1311 1307
f 860 1307 1264
f 860 1264 1216
f 860 1216 1163
f 860 1163 1109
f 860 1109 1106
f 860 1106 1046
f 860 1046 1045
f 860 1045 1103
f 860 1103 1033
f 860 1033 1031
f 860 1031 964
f 860 964 962
f 860 962 961
f 860 961 960
f 860 960 966
f 860 966 1021
f 860 1021 1020
f 860 1020 943
f 860 943 862
f 860 862 861
f 862 943 863
f 863 943 944
f 863 944 945
f 863 945 864
f 864 945 865
f 865 945 884
f 866 868 946
f 866 946 947
f 866 947 867
f 867 947 948
f 867 948 895
f 868 872 949
f 868 949 946
f 869 876 950
f 869 950 870
f 870 950 951
f 870 951 871
f 871 952 872
f 871 951 953
f 871 953 952
f 872 952 949
f 874 878 875
f 875 878 954
f 875 954 876
f 876 954 955
f 876 955 950
f 877 956 954
f 877 954 878
f 877 890 956
f 879 880 881
f 880 884 957
f 880 957 881
f 881 958 959
f 881 959 882
f 881 957 960
f 881 960 961
f 881 961 962
f 881 962 963
f 881 963 964
f 881 964 958
f 882 959 883
f 883 959 965
f 883 965 885
f 884 945 966
f 884 966 967
f 884 967 957
f 885 965 968
f 885 968 969
f 885 969 970
f 885 970 886
f 886 970 887
f 887 971 972
f 887 972 889
f 887 889 888
f 887 970 973
f 887 973 974
f 887 974 971
f 889 972 890
f 890 975 956
f 890 972 975
f 891 892 917
f 891 917 913
f 892 893 976
f 892 976 917
f 893 911 976
f 894 895 977
f 894 977 897
f 895 948 978
f 895 978 977
f 896 897 979
f 896 979 898
f 897 977 980
f 897 980 979
f 898 979 981
f 898 981 902
f 899 904 900
f 900 904 982
f 900 982 907
f 900 907 905
f 900 905 901
f 902 981 903
f 903 981 983
f 903 983 984
f 903 984 985
f 903 985 986
f 903 986 987
f 903 987 904
f 904 987 988
f 904 988 982
f 905 907 906
f 907 982 989
f 907 989 990
f 907 990 909
f 907 909 908
f 909 991 912
f 909 990 992
f 909 992 991
f 911 993 976
f 911 912 991
f 911 991 993
f 915 916 994
f 915 994 995
f 915 995 996
f 915 996 997
f 915 997 931
f 916 920 919
f 916 919 998
f 916 998 999
f 916 999 1000
f 916 1000 994
f 917 919 918
f 917 976 919
f 919 976 998
f 921 933 1001
f 922 1002 933
f 922 933 932
f 922 923 1003
f 922 1003 1004
f 922 1004 1002
f 923 930 1005
f 923 1005 1006
f 923 1006 1007
f 923 1007 1003
f 924 931 925
f 925 927 926
f 925 931 1008
f 925 1008 928
f 925 928 927
f 928 1008 997
f 928 997 1009
f 928 1009 1010
f 928 1010 1005
f 928 1005 929
f 929 1005 930
f 931 997 1008
f 933 1011 1001
f 933 1002 1011
f 934 1012 1013
f 934 1013 935
f 935 1013 936
f 936 1013 937
f 937 1013 1014
f 937 1014 1015
f 937 1015 1016
f 937 1016 938
f 938 1016 1017
f 938 1017 939
f 939 1017 1018
f 939 1018 1019
f 939 1019 940
f 943 1020 944
f 944 1020 945
f 945 1020 1021
f 945 1021 966
f 946 1022 947
f 946 949 1023
f 946 1023 1022
f 947 1022 948
f 948 1022 1024
f 948 1024 978
f 949 952 1025
f 949 1025 1026
f 949 1026 1023
f 950 955 1027
f 950 1027 951
f 951 1027 1028
f 951 1028 953
f 952 953 1025
f 953 1028 1029
f 953 1029 1025
f 954 956 955
f 955 956 1030
f 955 1030 1027
f 956 975 1030
f 957 967 960
f 958 964 959
f 959 964 965
f 960 967 966
f 962 964 963
f 964 1031 965
f 965 1032 968
f 965 1031 1032
f 968 1032 1033
f 968 1033 1034
f 968 1034 1035
f 968 1035 969
f 969 1035 970
f 970 1035 1036
f 970 1036 973
f 971 974 973
f 971 973 1037
f 971 1037 1038
f 971 1038 1039
f 971 1039 972
f 972 1039 975
f 973 1040 1041
f 973 1041 1042
f 973 1042 1043
f 973 1043 1037
f 973 1036 1044
f 973 1044 1045
f 973 1045 1046
f 973 1046 1040
f 975 1047 1030
f 975 1039 1047
f 976 993 1048
f 976 1048 998
f 977 978 980
f 978 1024 1049
f 978 1049 980
f 979 980 1050
f 979 1050 981
f 980 1049 1050
f 981 1050 1051
f 981 1051 983
f 982 988 989
f 983 1050 1052
f 983 1052 1053
f 983 1053 1054
f 983 1054 1055
f 983 1055 1056
f 983 1056 1057
f 983 1057 984
f 983 1051 1050
f 984 1057 985
f 985 1057 1055
f 985 1055 1058
f 985 1058 1059
f 985 1059 1060
f 985 1060 1061
f 985 1061 1062
f 985 1062 988
f 985 988 986
f 986 988 987
f 988 1062 1063
f 988 1063 990
f 988 990 989
f 990 1063 1064
f 990 1064 992
f 991 1065 993
f 991 992 1065
f 992 1064 1066
f 992 1066 1065
f 993 1067 1068
f 993 1068 1048
f 993 1065 1069
f 993 1069 1067
f 994 1070 995
f 994 1000 1071
f 994 1071 1072
f 994 1072 1070
f 995 1070 1073
f 995 1073 996
f 996 1073 1074
f 996 1074 1075
f 996 1075 997
f 997 1075 1009
f 998 1048 999
f 999 1076 1000
f 999 1048 1068
f 999 1068 1077
f 999 1077 1076
f 1000 1076 1071
f 1001 1011 1002
f 1002 1004 1079
f 1002 1079 1080
f 1002 1080 1078
f 1003 1007 1081
f 1003 1081 1004
f 1004 1081 1007
f 1004 1007 1082
f 1004 1082 1080
f 1004 1080 1079
f 1005 1007 1006
f 1005 1010 1083
f 1005 1083 1007
f 1007 1084 1080
f 1007 1080 1082
f 1007 1083 1084
f 1009 1083 1010
f 1009 1075 1085
f 1009 1085 1083
f 1012 1086 1087
f 1012 1087 1013
f 1013 1087 1014
f 1014 1087 1088
f 1014 1088 1015
f 1015 1088 1089
f 1015 1089 1090
f 1015 1090 1091
f 1015 1091 1092
f 1015 1092 1016
f 1016 1092 1017
f 1022 1023 1093
f 1022 1093 1024
f 1023 1026 1094
f 1023 1094 1093
f 1024 1093 1095
f 1024 1095 1049
f 1025 1096 1026
f 1025 1029 1097
f 1025 1097 1096
f 1026 1096 1098
f 1026 1098 1094
f 1027 1030 1099
f 1027 1099 1100
f 1027 1100 1028
f 1028 1100 1101
f 1028 1101 1029
f 1029 1101 1102
f 1029 1102 1097
f 1030 1047 1099
f 1031 1033 1032
f 1033 1103 1034
f 1034 1103 1044
f 1034 1044 1035
f 1035 1044 1036
f 1037 1043 1038
f 1038 1104 1039
f 1038 1043 1104
f 1039 1104 1047
f 1040 1105 1041
f 1040 1046 1106
f 1040 1106 1105
f 1041 1107 1108
f 1041 1108 1043
f 1041 1043 1042
f 1041 1105 1109
f 1041 1109 1107
f 1043 1108 1110
f 1043 1110 1104
f 1044 1103 1045
f 1047 1104 1099
f 1049 1095 1050
f 1050 1095 1052
f 1052 1095 1111
f 1052 1111 1053
f 1053 1112 1055
f 1053 1055 1054
f 1053 1111 1113
f 1053 1113 1112
f 1055 1114 1058
f 1055 1057 1056
f 1055 1112 1115
f 1055 1115 1116
f 1055 1116 1114
f 1058 1114 1059
f 1059 1114 1116
f 1059 1116 1115
f 1059 1115 1117
f 1059 1117 1118
f 1059 1118 1119
f 1059 1119 1120
f 1059 1120 1060
f 1060 1120 1063
f 1060 1063 1061
f 1061 1063 1062
f 1063 1120 1121
f 1063 1121 1122
f 1063 1122 1123
f 1063 1123 1064
f 1064 1123 1124
f 1064 1124 1066
f 1065 1066 1125
f 1065 1125 1069
f 1066 1124 1126
f 1066 1126 1127
f 1066 1127 1125
f 1067 1128 1077
f 1067 1077 1068
f 1067 1069 1129
f 1067 1129 1130
f 1067 1130 1128
f 1069 1131 1130
f 1069 1130 1129
f 1069 1125 1132
f 1069 1132 1131
f 1070 1072 1133
f 1070 1133 1134
f 1070 1134 1074
f 1070 1074 1073
f 1071 1076 1135
f 1071 1135 1133
f 1071 1133 1072
f 1074 1136 1075
f 1074 1134 1133
f 1074 1133 1137
f 1074 1137 1136
f 1075 1136 1085
f 1076 1138 1135
f 1076 1077 1139
f 1076 1139 1138
f 1077 1128 1140
f 1077 1140 1139
f 1078 1080 1141
f 1080 1084 1142
f 1080 1142 1143
f 1080 1143 1141
f 1083 1085 1144
f 1083 1144 1084
f 1084 1144 1145
f 1084 1145 1142
f 1085 1136 1146
f 1085 1146 1147
f 1085 1147 1144
f 1086 1148 1087
f 1087 1148 1088
f 1088 1148 1089
f 1089 1149 1090
f 1089 1148 1149
f 1090 1149 1150
f 1090 1150 1151
f 1090 1151 1091
f 1093 1094 1152
f 1093 1152 1095
f 1094 1098 1153
f 1094 1153 1154
f 1094 1154 1152
f 1095 1152 1111
f 1096 1097 1155
f 1096 1155 1098
f 1097 1102 1156
f 1097 1156 1155
f 1098 1155 1157
f 1098 1157 1153
f 1099 1104 1158
f 1099 1158 1100
f 1100 1158 1101
f 1101 1158 1159
f 1101 1159 1102
f 1102 1159 1160
f 1102 1160 1156
f 1104 1110 1158
f 1105 1106 1109
f 1107 1161 1162
f 1107 1162 1108
f 1107 1109 1163
f 1107 1163 1161
f 1108 1162 1164
f 1108 1164 1110
f 1110 1164 1159
f 1110 1159 1158
f 1111 1152 1154
f 1111 1154 1165
f 1111 1165 1113
f 1112 1113 1166
f 1112 1166 1115
f 1113 1165 1167
f 1113 1167 1168
f 1113 1168 1169
f 1113 1169 1170
f 1113 1170 1166
f 1115 1166 1171
f 1115 1171 1172
f 1115 1172 1173
f 1115 1173 1117
f 1117 1173 1118
f 1118 1174 1175
f 1118 1175 1119
f 1118 1173 1176
f 1118 1176 1177
f 1118 1177 1178
f 1118 1178 1174
f 1119 1175 1120
f 1120 1175 1121
f 1121 1175 1179
f 1121 1179 1122
f 1122 1124 1123
f 1122 1179 1124
f 1124 1179 1180
f 1124 1180 1181
f 1124 1181 1126
f 1125 1127 1182
f 1125 1182 1132
f 1126 1181 1183
f 1126 1183 1127
f 1127 1183 1184
f 1127 1184 1182
f 1128 1185 1140
f 1128 1130 1185
f 1130 1131 1132
f 1130 1132 1186
f 1130 1186 1187
f 1130 1187 1188
f 1130 1188 1189
f 1130 1189 1139
f 1130 1139 1140
f 1130 1140 1185
f 1132 1182 1190
f 1132 1190 1186
f 1133 1135 1191
f 1133 1191 1137
f 1135 1138 1191
f 1136 1137 1192
f 1136 1192 1146
f 1137 1191 1193
f 1137 1193 1194
f 1137 1194 1195
f 1137 1195 1196
f 1137 1196 1192
f 1138 1139 1197
f 1138 1197 1191
f 1139 1189 1198
f 1139 1198 1193
f 1139 1193 1197
f 1141 1143 1199
f 1141 1199 1200
f 1142 1145 1201
f 1142 1201 1199
f 1142 1199 1143
f 1144 1147 1145
f 1145 1147 1146
f 1145 1146 1202
f 1145 1202 1203
f 1145 1203 1204
f 1145 1204 1201
f 1146 1192 1196
f 1146 1196 1202
f 1148 1205 1149
f 1149 1205 1150
f 1150 1206 1151
f 1150 1205 1207
f 1150 1207 1206
f 1151 1206 1208
f 1153 1157 1209
f 1153 1209 1154
f 1154 1209 1165
f 1155 1156 1210
f 1155 1210 1157
f 1156 1160 1211
f 1156 1211 1210
f 1157 1210 1212
f 1157 1212 1213
f 1157 1213 1209
f 1159 1164 1160
f 1160 1164 1214
f 1160 1214 1211
f 1161 1215 1162
f 1161 1163 1215
f 1162 1215 1214
f 1162 1214 1164
f 1163 1216 1215
f 1165 1209 1167
f 1166 1170 1171
f 1167 1209 1213
f 1167 1213 1168
f 1168 1212 1217
f 1168 1217 1218
f 1168 1218 1169
f 1168 1213 1212
f 1169 1218 1170
f 1170 1218 1219
f 1170 1219 1220
f 1170 1220 1221
f 1170 1221 1171
f 1171 1221 1222
f 1171 1222 1172
f 1172 1176 1173
f 1172 1222 1223
f 1172 1223 1176
f 1174 1224 1175
f 1174 1178 1224
f 1175 1224 1225
f 1175 1225 1179
f 1176 1223 1177
f 1177 1226 1227
f 1177 1227 1224
f 1177 1224 1178
f 1177 1223 1228
f 1177 1228 1226
f 1179 1225 1229
f 1179 1229 1230
f 1179 1230 1231
f 1179 1231 1180
f 1180 1232 1181
f 1180 1231 1232
f 1181 1232 1233
f 1181 1233 1234
f 1181 1234 1235
f 1181 1235 1183
f 1182 1184 1236
f 1182 1236 1190
f 1183 1235 1184
f 1184 1237 1236
f 1184 1235 1237
f 1186 1190 1238
f 1186 1238 1187
f 1187 1238 1188
f 1188 1239 1240
f 1188 1240 1189
f 1188 1238 1241
f 1188 1241 1239
f 1189 1240 1242
f 1189 1242 1243
f 1189 1243 1244
f 1189 1244 1245
f 1189 1245 1198
f 1190 1236 1246
f 1190 1246 1238
f 1191 1197 1193
f 1193 1198 1245
f 1193 1245 1194
f 1194 1245 1195
f 1195 1245 1247
f 1195 1247 1248
f 1195 1248 1249
f 1195 1249 1250
f 1195 1250 1204
f 1195 1204 1203
f 1195 1203 1251
f 1195 1251 1196
f 1196 1251 1203
f 1196 1203 1202
f 1199 1201 1252
f 1199 1252 1200
f 1200 1252 1253
f 1201 1204 1254
f 1201 1254 1255
f 1201 1255 1252
f 1204 1250 1254
f 1206 1256 1208
f 1206 1207 1256
f 1207 1257 1256
f 1208 1256 1259
f 1208 1259 1260
f 1208 1260 1258
f 1210 1211 1261
f 1210 1261 1212
f 1211 1214 1262
f 1211 1262 1261
f 1212 1261 1217
f 1214 1215 1262
f 1215 1263 1262
f 1215 1216 1263
f 1216 1264 1265
f 1216 1265 1266
f 1216 1266 1263
f 1217 1261 1267
f 1217 1267 1219
f 1217 1219 1218
f 1219 1267 1268
f 1219 1268 1220
f 1220 1269 1221
f 1220 1268 1270
f 1220 1270 1269
f 1221 1269 1271
f 1221 1271 1222
f 1222 1271 1272
f 1222 1272 1273
f 1222 1273 1223
f 1223 1273 1228
f 1224 1274 1230
f 1224 1230 1275
f 1224 1275 1225
f 1224 1227 1276
f 1224 1276 1274
f 1225 1275 1229
f 1226 1277 1227
f 1226 1228 1278
f 1226 1278 1277
f 1227 1277 1276
f 1228 1272 1279
f 1228 1279 1278
f 1228 1273 1272
f 1229 1275 1230
f 1230 1280 1281
f 1230 1281 1231
f 1230 1274 1282
f 1230 1282 1280
f 1231 1281 1283
f 1231 1283 1284
f 1231 1284 1285
f 1231 1285 1232
f 1232 1285 1233
f 1233 1286 1287
f 1233 1287 1234
f 1233 1285 1284
f 1233 1284 1286
f 1234 1287 1288
f 1234 1288 1237
f 1234 1237 1235
f 1236 1237 1246
f 1237 1289 1246
f 1237 1288 1287
f 1237 1287 1289
f 1238 1246 1241
f 1239 1290 1240
f 1239 1241 1291
f 1239 1291 1292
f 1239 1292 1290
f 1240 1290 1293
f 1240 1293 1243
f 1240 1243 1242
f 1241 1246 1291
f 1243 1293 1294
f 1243 1294 1244
f 1244 1294 1245
f 1245 1294 1247
f 1246 1289 1295
f 1246 1295 1296
f 1246 1296 1291
f 1247 1294 1293
f 1247 1293 1248
f 1248 1293 1297
f 1248 1297 1298
f 1248 1298 1249
f 1249 1298 1299
f 1249 1299 1250
f 1250 1299 1254
f 1252 1300 1301
f 1252 1301 1302
f 1252 1302 1253
f 1252 1255 1300
f 1254 1300 1255
f 1254 1299 1303
f 1254 1303 1300
f 1256 1257 1259
f 1258 1260 1305
f 1258 1305 1304
f 1261 1262 1306
f 1261 1306 1267
f 1262 1263 1306
f 1263 1266 1306
f 1264 1307 1268
f 1264 1268 1265
f 1265 1268 1306
f 1265 1306 1266
f 1267 1306 1268
f 1268 1307 1308
f 1268 1308 1270
f 1269 1270 1309
f 1269 1309 1310
f 1269 1310 1271
f 1270 1308 1309
f 1271 1310 1272
f 1272 1310 1311
f 1272 1311 1279
f 1274 1276 1282
f 1276 1277 1312
f 1276 1312 1282
f 1277 1313 1314
f 1277 1314 1312
f 1277 1278 1315
f 1277 1315 1316
f 1277 1316 1313
f 1278 1317 1315
f 1278 1279 1318
f 1278 1318 1319
f 1278 1319 1317
f 1279 1311 1320
f 1279 1320 1321
f 1279 1321 1322
f 1279 1322 1318
f 1280 1282 1323
f 1280 1323 1324
f 1280 1324 1283
f 1280 1283 1281
f 1282 1325 1323
f 1282 1312 1325
f 1283 1324 1326
f 1283 1326 1284
f 1284 1326 1327
f 1284 1327 1328
f 1284 1328 1286
f 1286 1328 1327
f 1286 1327 1329
f 1286 1329 1330
f 1286 1330 1331
f 1286 1331 1287
f 1287 1331 1295
f 1287 1295 1289
f 1290 1332 1293
f 1290 1292 1333
f 1290 1333 1332
f 1291 1296 1295
f 1291 1295 1331
f 1291 1331 1334
f 1291 1334 1292
f 1292 1334 1335
f 1292 1335 1336
f 1292 1336 1333
f 1293 1332 1297
f 1297 1337 1338
f 1297 1338 1298
f 1297 1332 1337
f 1298 1339 1299
f 1298 1338 1340
f 1298 1340 1341
f 1298 1341 1342
f 1298 1342 1343
f 1298 1343 1339
f 1299 1343 1342
f 1299 1342 1303
f 1299 1339 1343
f 1300 1344 1345
f 1300 1345 1346
f 1300 1346 1347
f 1300 1347 1301
f 1300 1303 1342
f 1300 1342 1344
f 1304 1305 1349
f 1304 1349 1350
f 1304 1350 1348
f 1307 1311 1309
f 1307 1309 1308
f 1309 1311 1310
f 1312 1314 1325
f 1313 1351 1314
f 1313 1316 1351
f 1314 1351 1352
f 1314 1352 1353
f 1314 1353 1325
f 1315 1317 1354
f 1315 1354 1355
f 1315 1355 1316
f 1316 1355 1351
f 1317 1319 1354
f 1323 1356 1324
f 1323 1325 1356
f 1324 1327 1326
f 1324 1356 1357
f 1324 1357 1358
f 1324 1358 1327
f 1325 1353 1357
f 1325 1357 1356
f 1327 1359 1329
f 1327 1358 1360
f 1327 1360 1359
f 1329 1361 1362
f 1329 1362 1330
f 1329 1359 1361
f 1330 1362 1335
f 1330 1335 1331
f 1331 1335 1334
f 1332 1333 1363
f 1332 1363 1364
f 1332 1364 1337
f 1333 1336 1335
f 1333 1335 1365
f 1333 1365 1366
f 1333 1366 1363
f 1335 1362 1365
f 1337 1367 1338
f 1337 1364 1368
f 1337 1368 1367
f 1338 1367 1369
f 1338 1369 1340
f 1340 1369 1370
f 1340 1370 1341
f 1341 1370 1371
f 1341 1371 1372
f 1341 1372 1342
f 1342 1372 1344
f 1344 1372 1345
f 1345 1373 1374
f 1345 1374 1375
f 1345 1375 1346
f 1345 1372 1373
f 1348 1350 1377
f 1348 1377 1376
f 1351 1355 1352
f 1352 1378 1379
f 1352 1379 1353
f 1352 1355 1380
f 1352 1380 1381
f 1352 1381 1382
f 1352 1382 1378
f 1353 1379 1357
f 1354 1383 1355
f 1355 1383 1381
f 1355 1381 1380
f 1357 1379 1384
f 1357 1384 1358
f 1358 1384 1385
f 1358 1385 1360
f 1359 1360 1385
f 1359 1385 1386
f 1359 1386 1361
f 1361 1387 1388
f 1361 1388 1365
f 1361 1365 1362
f 1361 1386 1389
f 1361 1389 1387
f 1363 1366 1390
f 1363 1390 1364
f 1364 1390 1368
f 1365 1388 1391
f 1365 1391 1366
f 1366 1391 1390
f 1367 1392 1393
f 1367 1393 1394
f 1367 1394 1395
f 1367 1395 1396
f 1367 1396 1369
f 1367 1368 1392
f 1368 1390 1392
f 1369 1396 1397
f 1369 1397 1398
f 1369 1398 1370
f 1370 1398 1371
f 1371 1399 1372
f 1371 1398 1399
f 1372 1399 1373
f 1376 1377 1401
f 1376 1401 1402
f 1376 1402 1403
f 1376 1403 1404
f 1376 1404 1400
f 1378 1405 1406
f 1378 1406 1379
f 1378 1382 1381
f 1378 1381 1407
f 1378 1407 1405
f 1379 1406 1408
f 1379 1408 1384
f 1381 1409 1407
f 1384 1408 1410
f 1384 1410 1385
f 1385 1410 1386
f 1386 1410 1389
f 1387 1411 1412
f 1387 1412 1413
f 1387 1413 1414
f 1387 1414 1391
f 1387 1391 1388
f 1387 1389 1415
f 1387 1415 1411
f 1389 1410 1415
f 1390 1391 1416
f 1390 1416 1414
f 1390 1414 1417
f 1390 1417 1418
f 1390 1418 1392
f 1391 1414 1416
f 1392 1418 1393
f 1393 1419 1394
f 1393 1418 1419
f 1394 1419 1420
f 1394 1420 1421
f 1394 1421 1395
f 1395 1421 1396
f 1396 1421 1397
f 1397 1421 1420
f 1397 1420 1398
f 1398 1420 1422
f 1398 1422 1423
f 1398 1423 1424
f 1398 1424 1399
f 1400 1404 1426
f 1400 1426 1427
f 1400 1427 1425
f 1404 1428 1426
f 1405 1429 1430
f 1405 1430 1431
f 1405 1431 1406
f 1405 1407 1432
f 1405 1432 1429
f 1406 1431 1433
f 1406 1433 1408
f 1407 1409 1432
f 1408 1433 1434
f 1408 1434 1415
f 1408 1415 1410
f 1411 1415 1434
f 1411 1434 1435
f 1411 1435 1412
f 1412 1436 1437
f 1412 1437 1413
f 1412 1435 1438
f 1412 1438 1436
f 1413 1437 1417
f 1413 1417 1414
f 1417 1437 1418
f 1418 1437 1436
f 1418 1436 1439
f 1418 1439 1440
f 1418 1440 1419
f 1419 1440 1420
f 1420 1440 1441
f 1420 1441 1442
f 1420 1442 1443
f 1420 1443 1444
f 1420 1444 1445
f 1420 1445 1446
f 1420 1446 1422
f 1422 1446 1423
f 1425 1427 1448
f 1425 1448 1449
f 1425 1449 1447
f 1426 1428 1450
f 1426 1450 1427
f 1429 1432 1430
f 1430 1451 1452
f 1430 1452 1431
f 1430 1432 1453
f 1430 1453 1451
f 1431 1452 1454
f 1431 1454 1433
f 1432 1455 1453
f 1433 1454 1456
f 1433 1456 1435
f 1433 1435 1434
f 1435 1456 1438
f 1436 1438 1457
f 1436 1457 1458
f 1436 1458 1441
f 1436 1441 1439
f 1438 1456 1459
f 1438 1459 1460
f 1438 1460 1457
f 1439 1441 1440
f 1441 1461 1462
f 1441 1462 1442
f 1441 1458 1460
f 1441 1460 1461
f 1442 1463 1464
f 1442 1464 1443
f 1442 1462 1463
f 1447 1449 1466
f 1447 1466 1465
f 1451 1467 1469
f 1451 1469 1452
f 1451 1453 1468
f 1451 1468 1467
f 1452 1469 1470
f 1452 1470 1454
f 1453 1455 1471
f 1453 1471 1472
f 1453 1472 1468
f 1454 1470 1459
f 1454 1459 1456
f 1457 1460 1458
f 1459 1470 1473
f 1459 1473 1460
f 1460 1473 1474
f 1460 1474 1475
f 1460 1475 1461
f 1461 1475 1462
f 1462 1475 1476
f 1462 1476 1464
f 1462 1464 1463
f 1464 1476 1477
f 1465 1466 1479
f 1465 1479 1480
f 1465 1480 1478
f 1467 1481 1482
f 1467 1482 1469
f 1467 1468 1483
f 1467 1483 1481
f 1468 1472 1484
f 1468 1484 1483
f 1469 1482 1485
f 1469 1485 1473
f 1469 1473 1470
f 1473 1485 1486
f 1473 1486 1487
f 1473 1487 1474
f 1474 1487 1475
f 1475 1487 1488
f 1475 1488 1477
f 1475 1477 1476
f 1477 1488 1489
f 1478 1480 1491
f 1478 1491 1490
f 1481 1492 1493
f 1481 1493 1482
f 1481 1483 1494
f 1481 1494 1492
f 1482 1493 1495
f 1482 1495 1485
f 1483 1484 1494
f 1484 1496 1494
f 1485 1495 1486
f 1486 1495 1487
f 1487 1497 1498
f 1487 1498 1488
f 1487 1495 1497
f 1488 1498 1489
f 1489 1498 1499
f 1490 1500 1501
f 1490 1501 1502
f 1490 1502 1503
f 1490 1491 1504
f 1490 1504 1500
f 1492 1505 1493
f 1492 1494 1505
f 1493 1505 1506
f 1493 1506 1497
f 1493 1497 1495
f 1494 1507 1508
f 1494 1508 1505
f 1494 1496 1507
f 1496 1503 1509
f 1496 1509 1507
f 1497 1506 1510
f 1497 1510 1511
f 1497 1511 1512
f 1497 1512 1499
f 1497 1499 1498
f 1500 1504 1501
f 1501 1513 1514
f 1501 1514 1502
f 1501 1504 1515
f 1501 1515 1516
f 1501 1516 1513
f 1502 1514 1503
f 1503 1514 1509
f 1505 1517 1506
f 1505 1508 1518
f 1505 1518 1517
f 1506 1517 1519
f 1506 1519 1510
f 1507 1509 1508
f 1508 1509 1518
f 1509 1514 1518
f 1510 1519 1511
f 1511 1519 1520
f 1513 1517 1518
f 1513 1518 1514
f 1513 1516 1521
f 1513 1521 1517
f 1517 1521 1520
f 1517 1520 1519

