# https://github.com/mikedh/trimesh
v -0.03652979 -0.00312444 -0.05736804
v -0.03548062 -0.00312115 -0.06004397
v -0.03408104 -0.00312115 -0.06339163
v -0.03327922 -0.00312115 -0.06521963
v -0.03256809 -0.00312115 -0.06683106
v -0.03455307 -0.00312444 -0.05736804
v -0.03763462 -0.00312444 -0.05447922
v -0.03829627 -0.00252600 -0.05409747
v -0.03593615 -0.00214458 -0.06072305
v -0.03809427 -0.00202949 -0.05553271
v -0.03418823 -0.00173356 -0.06536279
v -0.03301126 -0.00248983 -0.06683106
v -0.03034401 -0.00312115 -0.06683106
v -0.03846942 -0.00312444 -0.04471520
v -0.04406156 -0.00312444 -0.03428679
v -0.03926506 -0.00200319 -0.05235389
v -0.04431303 -0.00312444 -0.03349025
v -0.03517762 -0.00108251 -0.06383578
v -0.03860546 -0.00138173 -0.05466642
v -0.03453657 -0.00061560 -0.06582896
v -0.03384400 -0.00111868 -0.06683106
v -0.02579692 0.01252048 -0.06683106
v -0.02602366 0.03046710 -0.04328363
v -0.03581042 0.01493726 -0.02933137
v -0.04351946 -0.00312444 -0.02933137
v -0.03958867 -0.00149353 -0.05169317
v -0.04016376 -0.00197359 -0.04936228
v -0.04014315 -0.00162505 -0.04984314
v -0.04512310 -0.00312444 -0.03048764
v -0.04096146 -0.00160861 -0.04702773
v -0.03829421 -0.00074712 -0.05502615
v -0.03755011 -0.00084905 -0.05737171
v -0.03966082 -0.00112197 -0.05112054
v -0.03223623 0.02880988 -0.04553743
v -0.03741406 -0.00078329 -0.05771676
v -0.03546001 -0.00031309 -0.06290343
v -0.03054396 0.02751765 -0.05163444
v -0.02970709 0.02661999 -0.05467376
v -0.02782518 0.02573877 -0.06048078
v -0.02714497 0.02484768 -0.06306494
v -0.03412433 -0.00054983 -0.06683106
v -0.02528986 0.01475312 -0.06683106
v -0.02423244 0.02638324 -0.05737171
v -0.02602366 0.03046710 -0.04677079
v -0.03312875 0.03046710 -0.02933137
v -0.03491378 0.01861010 -0.02933137
v -0.03529511 0.01669312 -0.02933137
v -0.02423244 0.02799771 -0.05737171
v -0.04529006 -0.00312444 -0.02933137
v -0.04520349 -0.00312444 -0.02994804
v -0.04499530 -0.00278247 -0.03108229
v -0.04177977 -0.00124363 -0.04371677
v -0.03347710 0.02942476 -0.04093440
v -0.03296797 0.02951354 -0.04252013
v -0.03204454 0.02916500 -0.04568059
v -0.03114996 0.02834297 -0.04911635
v -0.02994619 0.02775439 -0.05286044
v -0.02879396 0.02632734 -0.05737171
v -0.02727895 0.02565656 -0.06175818
v -0.02643591 0.02471616 -0.06497737
v -0.02903100 0.02730720 -0.05551068
v -0.02585670 0.02427884 -0.06683106
v -0.02423244 0.02262162 -0.06683106
v -0.02423244 0.02785632 -0.05803978
v -0.02857959 0.03046710 -0.04488405
v -0.03501272 0.03046710 -0.02933137
v -0.04523028 -0.00273644 -0.02933137
v -0.04495202 -0.00172370 -0.02986729
v -0.04429654 -0.00170068 -0.03303142
v -0.03501478 0.03046710 -0.03353063
v -0.03420678 0.02999690 -0.03764547
v -0.03377392 0.03032242 -0.03876869
v -0.03124684 0.02931296 -0.04674142
v -0.03066145 0.02868493 -0.04950177
v -0.03329777 0.03017445 -0.04031405
v -0.02757783 0.02637995 -0.05983107
v -0.02565676 0.02446297 -0.06683106
v -0.02934225 0.02808649 -0.05300727
v -0.02799626 0.02713622 -0.05736804
v -0.02423244 0.02506799 -0.06683106
v -0.02423244 0.02695538 -0.06126264
v -0.03043265 0.02917486 -0.04829412
v -0.03015644 0.03046710 -0.04344514
v -0.04511898 -0.00218732 -0.02933137
v -0.03509105 0.03046710 -0.02973515
v -0.03538993 0.03046710 -0.03169896
v -0.03430365 0.03046710 -0.03659198
v -0.03392233 0.03046710 -0.03800519
v -0.03343175 0.03046710 -0.03911374
v -0.03246297 0.03046710 -0.04068112
v -0.02599892 0.02536063 -0.06437171
v -0.02547743 0.02460765 -0.06683106
v -0.02423244 0.02597551 -0.06437171
v -0.02577425 0.02591633 -0.06312367
v -0.02795916 0.02710663 -0.05748918
v -0.02467561 0.02492002 -0.06683106
v -0.03157870 0.03046710 -0.04176764
v -0.03519823 0.03046710 -0.03039587
v -0.03538374 0.03046710 -0.03165124
f 1 2 3
f 1 3 4
f 1 4 5
f 1 5 13
f 1 13 6
f 1 6 14
f 1 14 25
f 1 25 49
f 1 49 50
f 1 50 29
f 1 29 17
f 1 17 15
f 1 15 7
f 1 7 8
f 1 8 2
f 2 9 3
f 2 8 10
f 2 10 9
f 3 9 4
f 4 11 12
f 4 12 5
f 4 9 11
f 5 12 21
f 5 21 41
f 5 41 62
f 5 62 77
f 5 77 92
f 5 92 96
f 5 96 80
f 5 80 63
f 5 63 42
f 5 42 22
f 5 22 13
f 6 13 14
f 7 15 8
f 8 16 10
f 8 15 17
f 8 17 16
f 9 18 11
f 9 10 18
f 10 16 19
f 10 19 18
f 11 20 21
f 11 21 12
f 11 18 20
f 13 22 23
f 13 23 24
f 13 24 25
f 13 25 14
f 16 26 19
f 16 17 27
f 16 27 28
f 16 28 26
f 17 29 30
f 17 30 27
f 18 19 20
f 19 31 32
f 19 32 20
f 19 26 33
f 19 33 34
f 19 34 31
f 20 32 35
f 20 35 36
f 20 36 37
f 20 37 38
f 20 38 39
f 20 39 40
f 20 40 41
f 20 41 21
f 22 42 43
f 22 43 23
f 23 44 65
f 23 65 83
f 23 83 97
f 23 97 90
f 23 90 89
f 23 89 88
f 23 88 87
f 23 87 70
f 23 70 86
f 23 86 99
f 23 99 98
f 23 98 85
f 23 85 66
f 23 66 45
f 23 45 46
f 23 46 47
f 23 47 24
f 23 43 48
f 23 48 44
f 24 47 46
f 24 46 45
f 24 45 66
f 24 66 84
f 24 84 67
f 24 67 49
f 24 49 25
f 26 28 30
f 26 30 33
f 27 30 28
f 29 50 51
f 29 51 30
f 30 51 52
f 30 52 53
f 30 53 33
f 31 34 32
f 32 34 35
f 33 53 54
f 33 54 34
f 34 55 56
f 34 56 37
f 34 37 35
f 34 54 55
f 35 37 36
f 37 56 57
f 37 57 39
f 37 39 58
f 37 58 38
f 38 58 39
f 39 59 60
f 39 60 40
f 39 57 61
f 39 61 59
f 40 60 62
f 40 62 41
f 42 63 43
f 43 63 80
f 43 80 93
f 43 93 81
f 43 81 64
f 43 64 48
f 44 64 65
f 44 48 64
f 49 67 51
f 49 51 50
f 51 67 68
f 51 68 69
f 51 69 52
f 52 69 70
f 52 70 71
f 52 71 53
f 53 71 72
f 53 72 54
f 54 72 55
f 55 73 74
f 55 74 57
f 55 57 56
f 55 72 75
f 55 75 73
f 57 74 61
f 59 76 77
f 59 77 62
f 59 62 60
f 59 61 76
f 61 74 78
f 61 78 79
f 61 79 76
f 64 81 82
f 64 82 65
f 65 82 83
f 66 85 84
f 67 84 68
f 68 86 70
f 68 70 69
f 68 84 86
f 70 87 71
f 71 87 88
f 71 88 72
f 72 88 75
f 73 82 74
f 73 75 89
f 73 89 90
f 73 90 82
f 74 82 78
f 75 88 89
f 76 91 92
f 76 92 77
f 76 79 91
f 78 82 81
f 78 81 79
f 79 81 93
f 79 93 94
f 79 94 95
f 79 95 91
f 80 96 93
f 82 90 97
f 82 97 83
f 84 85 98
f 84 98 99
f 84 99 86
f 91 95 94
f 91 94 96
f 91 96 92
f 93 96 94

