# https://github.com/mikedh/trimesh
v -0.03102631 -0.02913394 0.00398213
v -0.03108695 -0.02890024 0.00398213
v -0.03104512 -0.02941074 0.00398213
v -0.04268177 -0.03707661 -0.05016578
v -0.03120823 -0.02873283 0.00398213
v -0.04326099 -0.03590145 -0.04960336
v -0.03129814 -0.02981351 0.00398213
v -0.04258140 -0.03719927 -0.04904629
v -0.04338436 -0.03764513 -0.05073892
v -0.04323380 -0.03669208 -0.05062643
v -0.04411204 -0.03511415 -0.05028362
v -0.03746881 -0.02150620 0.00398213
v -0.04997741 -0.02744662 -0.04857493
v -0.03132533 -0.02985495 0.00398213
v -0.04293269 -0.03751087 -0.04919092
v -0.04486691 -0.03638710 -0.05055680
v -0.05122158 -0.02857040 -0.05031576
v -0.05173807 -0.02707203 -0.05025149
v -0.04312089 -0.03737496 -0.04788931
v -0.04376911 -0.03738325 -0.05013900
v -0.05038935 -0.02851570 -0.05029434
v -0.04996068 -0.02803669 -0.04995688
v -0.03807312 -0.02081337 0.00398213
v -0.05145787 -0.02637423 -0.04925519
v -0.05059218 -0.02647700 -0.04731617
v -0.03133787 -0.02986489 0.00398213
v -0.03481109 -0.03208758 -0.00843937
v -0.04737198 -0.03341357 -0.05014436
v -0.04947138 -0.03098867 -0.05016043
v -0.05140768 -0.02858863 -0.05021399
v -0.04340109 -0.03687274 -0.04696801
v -0.05238630 -0.02676374 -0.04996760
v -0.05167115 -0.02658307 -0.05000509
v -0.04259185 -0.03670368 -0.04389343
v -0.04150033 -0.03624953 -0.03938869
v -0.03953684 -0.03481249 -0.02851519
v -0.04122641 -0.03581195 -0.03657658
v -0.03830731 -0.02071226 0.00398213
v -0.05223992 -0.02623169 -0.04857493
v -0.03137551 -0.02987815 0.00398213
v -0.03214502 -0.03027761 0.00250912
v -0.03254440 -0.03062236 0.00010409
v -0.03374675 -0.03120746 -0.00324902
v -0.03467936 -0.03161023 -0.00640394
v -0.03554714 -0.03237267 -0.01102652
v -0.04208791 -0.03604566 -0.04004217
v -0.05007987 -0.02620020 -0.03863879
v -0.05024507 -0.02616373 -0.03911016
v -0.04731761 -0.02542118 -0.02690291
v -0.04918909 -0.02638915 -0.03609986
v -0.05099157 -0.02646871 -0.04283822
v -0.05237165 -0.02677369 -0.04909450
v -0.03844950 -0.03389589 -0.02289632
v -0.03938420 -0.03423734 -0.02627085
v -0.04025198 -0.03491525 -0.03086129
v -0.04145015 -0.03490531 -0.03469113
v -0.04192063 -0.03574731 -0.03863879
v -0.03849760 -0.02072552 0.00398213
v -0.05196390 -0.02615213 -0.04665198
v -0.04211510 -0.02202333 -0.00649500
v -0.03176654 -0.02991628 0.00398213
v -0.03383457 -0.03051131 -0.00157246
v -0.03320726 -0.03079806 -0.00099397
v -0.03203628 -0.02966931 0.00398213
v -0.03234575 -0.02975384 0.00321081
v -0.03326790 -0.02850078 0.00398213
v -0.03586289 -0.03044004 -0.00647893
v -0.03558896 -0.03181575 -0.00938746
v -0.03497001 -0.02990633 -0.00277765
v -0.04834013 -0.02496869 -0.02926508
v -0.05016351 -0.02608749 -0.03863879
v -0.04524120 -0.02546593 -0.02037345
v -0.04648747 -0.02518416 -0.02359265
v -0.04624281 -0.02449464 -0.02110728
v -0.05132614 -0.02598638 -0.04337386
v -0.04049663 -0.02530018 -0.00585759
v -0.04343873 -0.02661954 -0.01796306
v -0.04139160 -0.02177802 -0.00390250
v -0.03862933 -0.02083989 0.00398213
v -0.04803275 -0.02472172 -0.02799026
v -0.04417478 -0.02294987 -0.01361902
v -0.03351464 -0.02862344 0.00317867
v -0.03554086 -0.02608749 0.00398213
v -0.03635846 -0.02715159 -0.00002982
v -0.03829268 -0.02697093 -0.00417032
v -0.03953475 -0.02508636 -0.00285264
v -0.04977040 -0.02571787 -0.03637303
v -0.04748698 -0.02470514 -0.02587448
v -0.04572633 -0.02411176 -0.01899150
v -0.04095457 -0.02372225 -0.00471132
v -0.04058864 -0.02176145 -0.00145462
v -0.03976059 -0.02128575 0.00100397
v -0.04532066 -0.02368910 -0.01751848
v -0.04137487 -0.02207969 -0.00386500
v -0.03860633 -0.02134377 0.00398213
v -0.03927337 -0.02124100 0.00245556
v -0.04622190 -0.02398082 -0.02079125
v -0.03599462 -0.02557035 0.00398213
v -0.03711542 -0.02422447 0.00398213
v -0.03761936 -0.02343054 0.00398213
v -0.03801875 -0.02324490 0.00332329
v -0.03978777 -0.02406204 -0.00204382
v -0.04022270 -0.02242444 -0.00110110
v -0.03851851 -0.02156255 0.00398213
v -0.03944484 -0.02246257 0.00087542
v -0.03778037 -0.02316368 0.00398213
f 1 2 5
f 1 5 12
f 1 12 23
f 1 23 38
f 1 38 58
f 1 58 79
f 1 79 95
f 1 95 104
f 1 104 106
f 1 106 100
f 1 100 99
f 1 99 98
f 1 98 83
f 1 83 66
f 1 66 64
f 1 64 61
f 1 61 40
f 1 40 26
f 1 26 14
f 1 14 7
f 1 7 3
f 1 3 4
f 1 4 2
f 2 4 6
f 2 6 5
f 3 7 8
f 3 8 4
f 4 8 9
f 4 9 10
f 4 10 11
f 4 11 6
f 5 6 11
f 5 11 13
f 5 13 12
f 7 14 8
f 8 15 9
f 8 14 15
f 9 16 17
f 9 17 18
f 9 18 10
f 9 15 19
f 9 19 20
f 9 20 16
f 10 18 21
f 10 21 22
f 10 22 11
f 11 22 13
f 12 13 23
f 13 22 24
f 13 24 25
f 13 25 23
f 14 26 15
f 15 26 27
f 15 27 19
f 16 28 29
f 16 29 30
f 16 30 17
f 16 20 31
f 16 31 28
f 17 30 32
f 17 32 18
f 18 32 33
f 18 33 22
f 18 22 21
f 19 34 31
f 19 31 20
f 19 27 35
f 19 35 36
f 19 36 37
f 19 37 34
f 22 33 24
f 23 25 24
f 23 24 38
f 24 33 39
f 24 39 38
f 26 40 41
f 26 41 42
f 26 42 27
f 27 42 41
f 27 41 43
f 27 43 44
f 27 44 45
f 27 45 36
f 27 36 35
f 28 31 46
f 28 46 29
f 29 47 48
f 29 48 30
f 29 46 49
f 29 49 50
f 29 50 47
f 30 48 51
f 30 51 52
f 30 52 32
f 31 34 37
f 31 37 46
f 32 52 39
f 32 39 33
f 36 53 54
f 36 54 55
f 36 55 37
f 36 45 44
f 36 44 53
f 37 55 56
f 37 56 57
f 37 57 46
f 38 39 58
f 39 52 59
f 39 59 60
f 39 60 58
f 40 61 41
f 41 62 63
f 41 63 43
f 41 61 64
f 41 64 65
f 41 65 66
f 41 66 62
f 43 63 62
f 43 62 44
f 44 67 68
f 44 68 54
f 44 54 53
f 44 62 69
f 44 69 67
f 46 57 49
f 47 50 49
f 47 49 48
f 48 49 70
f 48 70 71
f 48 71 52
f 48 52 51
f 49 57 56
f 49 56 55
f 49 55 72
f 49 72 73
f 49 73 74
f 49 74 70
f 52 71 75
f 52 75 59
f 54 68 67
f 54 67 76
f 54 76 77
f 54 77 72
f 54 72 55
f 58 60 78
f 58 78 79
f 59 75 80
f 59 80 81
f 59 81 60
f 60 81 78
f 62 66 82
f 62 82 69
f 64 66 65
f 66 83 84
f 66 84 82
f 67 85 76
f 67 69 85
f 69 82 84
f 69 84 86
f 69 86 85
f 70 87 71
f 70 74 88
f 70 88 80
f 70 80 75
f 70 75 87
f 71 87 75
f 72 77 76
f 72 76 74
f 72 74 73
f 74 76 89
f 74 89 88
f 76 85 86
f 76 86 90
f 76 90 89
f 78 91 92
f 78 92 79
f 78 81 93
f 78 93 94
f 78 94 91
f 79 92 96
f 79 96 95
f 80 88 97
f 80 97 81
f 81 97 93
f 83 98 86
f 83 86 84
f 86 98 99
f 86 99 100
f 86 100 101
f 86 101 102
f 86 102 90
f 88 89 97
f 89 90 94
f 89 94 93
f 89 93 97
f 90 102 103
f 90 103 94
f 91 103 96
f 91 96 92
f 91 94 103
f 95 96 105
f 95 105 104
f 96 103 105
f 100 106 101
f 101 106 105
f 101 105 102
f 102 105 103
f 104 105 106

