# https://github.com/mikedh/trimesh
v 0.03985512 -0.02232096 -0.03277640
v 0.03980958 -0.02232096 -0.03254209
v 0.03969357 -0.02287225 -0.03260903
v 0.03945396 -0.02299631 -0.03426036
v 0.03967948 -0.02232096 -0.03422968
v 0.03853457 -0.02232003 -0.03925340
v 0.03853457 -0.02232003 -0.02707206
v 0.03932278 -0.02232096 -0.03027151
v 0.03883814 -0.02373509 -0.02948490
v 0.03889235 -0.02496545 -0.03108601
v 0.03853457 -0.02623406 -0.03125896
v 0.03853457 -0.02634133 -0.03153511
v 0.03853457 -0.02634133 -0.03153790
v 0.03853457 -0.02611373 -0.03255045
v 0.03961442 -0.02232096 -0.03461462
v 0.03853457 -0.02601672 -0.03284334
v 0.03853457 -0.02573968 -0.03366622
v 0.03875791 -0.02469307 -0.03493540
v 0.03922628 -0.02235175 -0.03672341
v 0.03923713 -0.02232096 -0.03671783
v 0.03850421 -0.02232003 -0.03937892
v 0.03541208 -0.02231910 -0.01984191
v 0.03541208 -0.02231910 -0.01458667
v 0.03825267 -0.02232003 -0.02589214
v 0.03874490 -0.02232096 -0.02790051
v 0.03704054 -0.02485165 -0.02309436
v 0.03797187 -0.02544305 -0.02755184
v 0.03753060 -0.02786366 -0.02884054
v 0.03834049 -0.02692153 -0.03135380
v 0.03833615 -0.02666595 -0.03253930
v 0.03795452 -0.02688516 -0.03409579
v 0.03853457 -0.02530313 -0.03470109
v 0.03774419 -0.02567811 -0.03722550
v 0.03713053 -0.02582736 -0.03937892
v 0.03781899 -0.02412220 -0.03937892
v 0.03922086 -0.02232096 -0.03678199
v 0.03710343 -0.02232003 -0.03937892
v 0.03343559 -0.02231910 -0.01245277
v 0.03472361 -0.02231910 -0.01172474
v 0.03653964 -0.02756890 -0.02420176
v 0.03450461 -0.02231910 -0.01088513
v 0.03442221 -0.02263812 -0.01088513
v 0.03716522 -0.02830115 -0.02828545
v 0.03746555 -0.02852409 -0.03082102
v 0.03745037 -0.02840842 -0.03193678
v 0.03729533 -0.02769762 -0.03487403
v 0.03712186 -0.02703813 -0.03712229
v 0.03686165 -0.02638984 -0.03937892
v 0.02877896 -0.02868173 -0.03937892
v 0.02878004 -0.02484232 -0.01088513
v 0.03307997 -0.02231910 -0.01088513
v 0.03399503 -0.02393937 -0.01088513
v 0.03603766 -0.02725454 -0.02206786
v 0.03602682 -0.02726481 -0.02206786
v 0.03646375 -0.02796347 -0.02508879
v 0.03600947 -0.02940838 -0.03020735
v 0.03652555 -0.02868453 -0.02820735
v 0.03652013 -0.02902407 -0.03180289
v 0.03607452 -0.02707918 -0.03937892
v 0.03658626 -0.02677695 -0.03937892
v 0.02877896 -0.02781143 -0.02206786
v 0.02877896 -0.02980855 -0.03937892
v 0.02878004 -0.02583202 -0.01088513
v 0.03378361 -0.02449625 -0.01088513
v 0.03385842 -0.02469681 -0.01144301
v 0.03541208 -0.02719671 -0.02096326
v 0.03530040 -0.02718925 -0.02077916
v 0.03541208 -0.02726294 -0.02118920
v 0.03367194 -0.02460353 -0.01088513
v 0.03535678 -0.02948021 -0.02949884
v 0.02877896 -0.03184765 -0.03179731
v 0.03440703 -0.03001563 -0.03111670
v 0.03398744 -0.03017514 -0.03135938
v 0.03485046 -0.02979643 -0.03176105
v 0.02877896 -0.03047550 -0.03718087
v 0.02877896 -0.02884404 -0.02206786
v 0.02920614 -0.02574807 -0.01088513
v 0.03304311 -0.02483486 -0.01088513
v 0.03250318 -0.02502982 -0.01088513
v 0.03131490 -0.02533111 -0.01088513
v 0.02877896 -0.03170680 -0.03259787
v 0.02877896 -0.03163498 -0.03287124
v 0.02877896 -0.03054919 -0.03692425
f 1 2 3
f 1 3 4
f 1 4 5
f 1 5 6
f 1 6 7
f 1 7 2
f 2 8 9
f 2 9 10
f 2 10 3
f 2 7 8
f 3 10 11
f 3 11 12
f 3 12 13
f 3 13 14
f 3 14 4
f 4 15 5
f 4 14 16
f 4 16 17
f 4 17 18
f 4 18 19
f 4 19 15
f 5 15 6
f 6 15 20
f 6 20 21
f 6 21 22
f 6 22 23
f 6 23 7
f 7 23 24
f 7 24 8
f 8 24 25
f 8 25 9
f 9 25 26
f 9 26 27
f 9 27 10
f 10 27 28
f 10 28 11
f 11 29 12
f 11 28 29
f 12 29 13
f 13 29 14
f 14 30 16
f 14 29 30
f 15 19 20
f 16 30 17
f 17 31 32
f 17 32 18
f 17 30 31
f 18 32 33
f 18 33 34
f 18 34 35
f 18 35 19
f 19 36 20
f 19 35 21
f 19 21 36
f 20 36 21
f 21 35 34
f 21 34 48
f 21 48 60
f 21 60 59
f 21 59 62
f 21 62 49
f 21 49 37
f 21 37 22
f 22 38 51
f 22 51 41
f 22 41 39
f 22 39 23
f 22 37 38
f 23 39 24
f 24 26 25
f 24 39 26
f 26 40 27
f 26 39 41
f 26 41 42
f 26 42 40
f 27 40 28
f 28 43 44
f 28 44 29
f 28 40 43
f 29 44 45
f 29 45 30
f 30 45 31
f 31 46 47
f 31 47 33
f 31 33 32
f 31 45 46
f 33 47 34
f 34 47 48
f 37 49 50
f 37 50 51
f 37 51 38
f 40 42 52
f 40 52 53
f 40 53 54
f 40 54 55
f 40 55 43
f 41 51 50
f 41 50 63
f 41 63 77
f 41 77 80
f 41 80 79
f 41 79 78
f 41 78 69
f 41 69 64
f 41 64 52
f 41 52 42
f 43 56 44
f 43 55 57
f 43 57 56
f 44 56 58
f 44 58 45
f 45 58 46
f 46 59 60
f 46 60 47
f 46 58 59
f 47 60 48
f 49 61 50
f 49 62 75
f 49 75 83
f 49 83 82
f 49 82 81
f 49 81 71
f 49 71 76
f 49 76 61
f 50 61 76
f 50 76 63
f 52 64 53
f 53 64 65
f 53 65 54
f 54 66 67
f 54 67 68
f 54 68 55
f 54 65 69
f 54 69 66
f 55 68 70
f 55 70 56
f 55 56 57
f 56 70 71
f 56 71 72
f 56 72 73
f 56 73 74
f 56 74 58
f 58 74 59
f 59 75 62
f 59 74 75
f 63 76 71
f 63 71 77
f 64 69 65
f 66 69 67
f 67 69 78
f 67 78 79
f 67 79 80
f 67 80 71
f 67 71 70
f 67 70 68
f 71 81 73
f 71 73 72
f 71 80 77
f 73 81 74
f 74 81 82
f 74 82 83
f 74 83 75

