# https://github.com/mikedh/trimesh
v 0.04063802 -0.02583182 -0.01069210
v 0.04026653 -0.02583182 -0.00929684
v 0.04057301 -0.02583182 -0.01087979
v 0.03450622 -0.02231944 -0.01087979
v 0.04024100 -0.02548588 -0.00940305
v 0.03795986 -0.02348106 -0.00034187
v 0.03928443 -0.02473760 -0.00509215
v 0.03862388 -0.02583182 -0.00562319
v 0.03836268 -0.02554433 -0.00449418
v 0.02877841 -0.02583182 -0.01087979
v 0.03308065 -0.02231944 -0.01087979
v 0.03341847 -0.02231944 -0.00637538
v 0.03610360 -0.02235314 0.00398068
v 0.03615816 -0.02236243 0.00398068
v 0.03691506 -0.02280465 0.00270326
v 0.03663993 -0.02260899 0.00398068
v 0.03675254 -0.02278264 0.00398068
v 0.03701489 -0.02302198 0.00306408
v 0.03671887 -0.02290816 0.00398068
v 0.03798540 -0.02583182 -0.00422066
v 0.03540591 -0.02445321 0.00398068
v 0.03458400 -0.02583182 0.00318775
v 0.02877841 -0.02536621 -0.00910916
v 0.02877841 -0.02484110 -0.01087979
v 0.03234813 -0.02583182 0.00398068
v 0.02877841 -0.02231944 -0.00230745
v 0.03303886 -0.02231944 -0.00482445
v 0.03118376 -0.02231944 0.00076532
v 0.03070664 -0.02231944 0.00125417
v 0.02877841 -0.02231944 0.00196708
v 0.03602234 -0.02235761 0.00398068
v 0.03237948 -0.02231944 -0.00226671
v 0.03194879 -0.02231944 -0.00087000
v 0.03176769 -0.02231944 -0.00034332
v 0.03421019 -0.02583182 0.00398068
v 0.03447488 -0.02583182 0.00342053
v 0.03362162 -0.02433629 0.00398068
v 0.03538153 -0.02245287 0.00398068
v 0.03551387 -0.02239234 0.00398068
f 1 2 8
f 1 8 20
f 1 20 22
f 1 22 36
f 1 36 35
f 1 35 25
f 1 25 10
f 1 10 3
f 1 3 4
f 1 4 5
f 1 5 6
f 1 6 7
f 1 7 2
f 2 7 9
f 2 9 8
f 3 10 24
f 3 24 11
f 3 11 4
f 4 11 26
f 4 26 30
f 4 30 29
f 4 29 28
f 4 28 34
f 4 34 33
f 4 33 32
f 4 32 27
f 4 27 12
f 4 12 13
f 4 13 14
f 4 14 6
f 4 6 5
f 6 14 15
f 6 15 16
f 6 16 17
f 6 17 18
f 6 18 7
f 7 18 19
f 7 19 9
f 8 9 20
f 9 19 21
f 9 21 22
f 9 22 20
f 10 23 30
f 10 30 26
f 10 26 24
f 10 25 23
f 11 24 26
f 12 27 13
f 13 28 29
f 13 29 30
f 13 30 31
f 13 31 39
f 13 39 38
f 13 38 37
f 13 37 25
f 13 25 35
f 13 35 21
f 13 21 19
f 13 19 17
f 13 17 16
f 13 16 14
f 13 27 32
f 13 32 33
f 13 33 34
f 13 34 28
f 14 16 15
f 17 19 18
f 21 35 36
f 21 36 22
f 23 25 30
f 25 37 30
f 30 37 38
f 30 38 39
f 30 39 31

