# https://github.com/mikedh/trimesh
v -0.01152575 0.01680254 0.05129687
v -0.00450501 0.01963194 0.05129687
v -0.01152575 0.01822045 0.05129687
v -0.01289869 0.02035698 0.03539663
v -0.01152575 0.01682184 0.05058360
v 0.00242936 0.02278524 0.04731834
v 0.00242936 0.02272303 0.04835582
v 0.00242936 0.02270158 0.05012045
v 0.00242936 0.02280669 0.05129687
v -0.01289869 0.02153035 0.03539663
v 0.00103522 0.02446486 0.05129687
v 0.00016539 0.03842307 0.00398983
v -0.00014678 0.03823001 0.00398983
v -0.01152575 0.01724658 0.04533139
v -0.01289869 0.02130726 0.03110315
v 0.00242936 0.02297401 0.04512760
v 0.00258242 0.02685880 0.03539663
v 0.00242936 0.02444984 0.05129687
v -0.00173186 0.03717890 0.00398983
v -0.00180460 0.03712957 0.00398983
v -0.01289869 0.02435546 0.02417893
v 0.00079276 0.03871480 0.00398983
v 0.00051696 0.03781815 0.00653721
v -0.01152575 0.01743320 0.04464128
v -0.01289869 0.02194007 0.02853725
v -0.01289869 0.02816517 0.00398983
v 0.00258242 0.02702826 0.03478526
v -0.01218191 0.02838611 0.00398983
v -0.01096809 0.02899318 0.00398983
v -0.01079686 0.02908327 0.00398983
v 0.00258242 0.03632515 0.00398983
v 0.00258242 0.03613853 0.00458268
v 0.00258242 0.02987053 0.02501724
v 0.00258242 0.02847621 0.03539663
v 0.00258242 0.03799619 0.00398983
v 0.00250665 0.03803909 0.00398983
v 0.00229753 0.03814206 0.00398983
v 0.00163076 0.03844881 0.00398983
v 0.00092611 0.03867834 0.00398983
v -0.01289869 0.02931494 0.00398983
v -0.01289869 0.02861135 0.00692626
v -0.01289869 0.02706044 0.01334101
v -0.01289869 0.02588492 0.01809302
f 1 2 9
f 1 9 18
f 1 18 11
f 1 11 3
f 1 3 10
f 1 10 4
f 1 4 5
f 1 5 2
f 2 5 6
f 2 6 7
f 2 7 8
f 2 8 9
f 3 11 12
f 3 12 13
f 3 13 10
f 4 14 5
f 4 10 21
f 4 21 43
f 4 43 42
f 4 42 41
f 4 41 40
f 4 40 26
f 4 26 25
f 4 25 15
f 4 15 14
f 5 14 6
f 6 14 16
f 6 16 17
f 6 17 7
f 7 17 8
f 8 17 9
f 9 17 34
f 9 34 18
f 10 13 19
f 10 19 20
f 10 20 21
f 11 22 23
f 11 23 12
f 11 18 22
f 12 23 22
f 12 22 39
f 12 39 38
f 12 38 37
f 12 37 36
f 12 36 35
f 12 35 31
f 12 31 30
f 12 30 29
f 12 29 28
f 12 28 26
f 12 26 40
f 12 40 20
f 12 20 19
f 12 19 13
f 14 24 16
f 14 15 25
f 14 25 26
f 14 26 24
f 16 27 17
f 16 24 28
f 16 28 29
f 16 29 30
f 16 30 31
f 16 31 32
f 16 32 33
f 16 33 27
f 17 27 33
f 17 33 32
f 17 32 31
f 17 31 35
f 17 35 34
f 18 34 35
f 18 35 36
f 18 36 37
f 18 37 38
f 18 38 39
f 18 39 22
f 20 40 41
f 20 41 42
f 20 42 43
f 20 43 21
f 24 26 28

