# https://github.com/mikedh/trimesh
v -0.02112381 -0.02193484 -0.06746756
v -0.02212689 -0.02463648 -0.05987379
v -0.02212689 -0.02463648 -0.06548034
v -0.02212689 -0.02428062 -0.06654572
v -0.02212689 -0.02394791 -0.06746756
v -0.02360536 -0.01476697 -0.06746756
v -0.02786249 -0.01384887 -0.05255581
v -0.03367655 -0.01792555 -0.02887533
v -0.03304427 -0.02014498 -0.02887533
v -0.03290641 -0.02070300 -0.02887533
v -0.03080042 -0.02463648 -0.03864900
v -0.02311808 -0.02463648 -0.06494763
v -0.02317037 -0.02463648 -0.06491741
v -0.02279243 -0.02379840 -0.06746756
v -0.02573511 -0.01055132 -0.06746756
v -0.02636025 -0.00935106 -0.06746756
v -0.02816912 -0.00595453 -0.06746756
v -0.02903671 -0.01212218 -0.05198533
v -0.03458692 -0.01613569 -0.02887533
v -0.03433259 -0.02070300 -0.02887533
v -0.03229791 -0.02463648 -0.03864900
v -0.02431607 -0.02463648 -0.06317953
v -0.02283997 -0.02376471 -0.06746756
v -0.02957153 -0.00363613 -0.06746756
v -0.03442767 -0.00722217 -0.04634478
v -0.03655505 -0.01309713 -0.02887533
v -0.03469389 -0.01595460 -0.02887533
v -0.02990431 -0.00312444 -0.06746756
v -0.04502892 -0.00451632 -0.02887533
v -0.03511699 -0.02070300 -0.03138014
v -0.03137089 -0.02463648 -0.04220032
v -0.04513826 -0.00440893 -0.02906800
v -0.04462721 -0.00475216 -0.03048475
v -0.02361011 -0.02393949 -0.06583168
v -0.02554020 -0.02463648 -0.05977933
v -0.03763181 -0.00312444 -0.05448258
v -0.03654554 -0.00312444 -0.05732363
v -0.02332963 -0.02283820 -0.06746756
v -0.04357422 -0.00312444 -0.02887533
v -0.03228127 -0.00312444 -0.06746756
v -0.04510736 -0.00438998 -0.02887533
v -0.02983775 -0.02463648 -0.04683592
v -0.04338168 -0.00417730 -0.03523370
v -0.04531415 -0.00382986 -0.02887533
v -0.04540686 -0.00349294 -0.02887533
v -0.04530464 -0.00360454 -0.02963848
v -0.04473418 -0.00364245 -0.03156148
v -0.03547591 -0.00312444 -0.06004002
v -0.03407825 -0.00312444 -0.06339110
v -0.03327246 -0.00312444 -0.06521965
v -0.04406149 -0.00312444 -0.03428542
v -0.04535456 -0.00312444 -0.02887533
v -0.04431345 -0.00312444 -0.03348826
v -0.04539972 -0.00344240 -0.02887533
v -0.04520481 -0.00312444 -0.02994450
v -0.04512399 -0.00312444 -0.03048475
f 1 2 3
f 1 3 4
f 1 4 5
f 1 5 14
f 1 14 23
f 1 23 38
f 1 38 40
f 1 40 28
f 1 28 24
f 1 24 17
f 1 17 16
f 1 16 15
f 1 15 6
f 1 6 2
f 2 6 7
f 2 7 8
f 2 8 9
f 2 9 10
f 2 10 11
f 2 11 21
f 2 21 31
f 2 31 42
f 2 42 35
f 2 35 22
f 2 22 13
f 2 13 12
f 2 12 3
f 3 12 4
f 4 12 13
f 4 13 5
f 5 13 14
f 6 15 7
f 7 15 16
f 7 16 17
f 7 17 18
f 7 18 19
f 7 19 8
f 8 19 27
f 8 27 26
f 8 26 39
f 8 39 52
f 8 52 54
f 8 54 45
f 8 45 44
f 8 44 41
f 8 41 29
f 8 29 20
f 8 20 10
f 8 10 9
f 10 20 21
f 10 21 11
f 13 22 14
f 14 22 23
f 17 24 18
f 18 25 26
f 18 26 27
f 18 27 19
f 18 24 28
f 18 28 25
f 20 29 30
f 20 30 21
f 21 30 32
f 21 32 33
f 21 33 31
f 22 34 23
f 22 35 36
f 22 36 37
f 22 37 34
f 23 34 38
f 25 28 39
f 25 39 26
f 28 40 50
f 28 50 49
f 28 49 48
f 28 48 37
f 28 37 36
f 28 36 51
f 28 51 53
f 28 53 56
f 28 56 55
f 28 55 52
f 28 52 39
f 29 41 32
f 29 32 30
f 31 36 42
f 31 33 43
f 31 43 36
f 32 41 44
f 32 44 45
f 32 45 46
f 32 46 33
f 33 46 47
f 33 47 43
f 34 37 48
f 34 48 49
f 34 49 50
f 34 50 40
f 34 40 38
f 35 42 36
f 36 43 51
f 43 47 53
f 43 53 51
f 45 54 55
f 45 55 56
f 45 56 46
f 46 56 53
f 46 53 47
f 52 55 54

