# https://github.com/mikedh/trimesh
v 0.00497579 -0.02788760 0.07069847
v 0.00659215 -0.02715151 0.07075100
v 0.00629068 -0.02718423 0.07171132
v 0.00508139 -0.02737870 0.07192566
v 0.00407819 -0.02777310 0.07112084
v 0.00397089 -0.02779491 0.06955114
v 0.00442735 -0.02777310 0.06889132
v 0.00537605 -0.02760407 0.06955114
v 0.01866799 -0.02023956 0.07097585
v 0.01866799 -0.02023411 0.07179537
v 0.00825790 -0.02615734 0.07144865
v 0.01866799 -0.02008689 0.07216521
v 0.00800582 -0.02591925 0.07221144
v 0.00681016 -0.02624094 0.07243839
v 0.00311246 -0.02714606 0.07178067
v 0.00505925 -0.02649176 0.07255396
v 0.00399814 -0.02676620 0.07233752
v 0.00318059 -0.02755681 0.07081614
v 0.00279566 -0.02735507 0.06888081
v 0.00250441 -0.02706427 0.06724176
v 0.00401347 -0.02739869 0.06721234
v 0.00434389 -0.02696431 0.06572249
v 0.00493662 -0.02744231 0.06813483
v 0.01866799 -0.01818033 0.06183080
v 0.01866799 -0.01833664 0.06252004
v 0.01866799 -0.01920177 0.06635289
v 0.01866799 -0.01976156 0.07249513
v 0.01866799 -0.01966705 0.07258128
v 0.00902094 -0.02453068 0.07274518
v 0.00628046 -0.02575567 0.07271576
v 0.00186741 -0.02623549 0.07225557
v 0.00179247 -0.02661171 0.07183110
v 0.00273775 -0.02592652 0.07260440
v 0.00126787 -0.02646631 0.07164618
v 0.00126787 -0.02670804 0.07099476
v 0.00126787 -0.02674439 0.07067956
v 0.00126787 -0.02672803 0.06988946
v 0.00126787 -0.02668078 0.06888291
v 0.00126787 -0.02663171 0.06838489
v 0.00126787 -0.02648085 0.06685511
v 0.00126787 -0.02615552 0.06502905
v 0.00208201 -0.02649721 0.06513622
v 0.00306818 -0.02675348 0.06514671
v 0.00383122 -0.02649903 0.06410235
v 0.00416676 -0.02579202 0.06233512
v 0.00503540 -0.02614462 0.06429987
v 0.00534539 -0.02662262 0.06613015
v 0.01866799 -0.01741153 0.05935121
v 0.01866799 -0.01956527 0.07262961
v 0.01866799 -0.01914361 0.07276409
v 0.00850657 -0.02436710 0.07277039
v 0.00126787 -0.02503776 0.07260860
v 0.00126787 -0.02530311 0.07260229
v 0.00126787 -0.02595560 0.07226818
v 0.00126787 -0.02608282 0.07214630
v 0.00126787 -0.02572659 0.07238586
v 0.00126787 -0.02637180 0.07184581
v 0.00126787 -0.02579566 0.06381656
v 0.00172434 -0.02556483 0.06244859
v 0.00306137 -0.02600103 0.06270706
v 0.00339690 -0.02507774 0.06039348
v 0.00273605 -0.02103017 0.05130516
v 0.00470157 -0.02044857 0.05130516
v 0.00495024 -0.02033952 0.05130516
v 0.00799560 -0.01895277 0.05130516
v 0.01866799 -0.01626650 0.05655431
v 0.01866799 -0.01714072 0.05860944
v 0.01866799 -0.01903092 0.07273888
v 0.00126787 -0.02457611 0.07254976
v 0.01105289 -0.02271499 0.07276409
v 0.00126787 -0.02548486 0.06283104
v 0.00140924 -0.02490145 0.06093983
v 0.00126787 -0.02117375 0.05130516
v 0.00266452 -0.02491235 0.06010979
v 0.00133941 -0.02117739 0.05130516
v 0.01067477 -0.01752058 0.05130516
v 0.01866799 -0.01554132 0.05517163
v 0.01866799 -0.01560493 0.05528090
v 0.01866799 -0.01843478 0.07245940
v 0.01602459 -0.01955618 0.07261070
v 0.00126787 -0.02456339 0.07253505
v 0.00126787 -0.02482329 0.06092722
v 0.00126787 -0.01914361 0.05130516
v 0.01367074 -0.01590300 0.05130516
v 0.01866799 -0.01515419 0.05456014
v 0.01866799 -0.01840388 0.07239636
v 0.01673995 -0.01899094 0.07227658
v 0.01866799 -0.00960718 0.05356830
v 0.01866799 -0.00934728 0.05298413
v 0.00126787 -0.02430531 0.07184791
v 0.01866799 -0.00932184 0.05130516
v 0.00126787 -0.01910907 0.05224656
v 0.01486299 -0.01516873 0.05130516
v 0.01606036 -0.01437267 0.05130516
v 0.01639760 -0.01405461 0.05130516
v 0.01716916 -0.01331125 0.05130516
v 0.01866799 -0.01409459 0.05360823
v 0.00126787 -0.01910544 0.05246930
v 0.01866799 -0.01149375 0.05130516
v 0.01845680 -0.01177001 0.05130516
f 1 2 3
f 1 3 4
f 1 4 5
f 1 5 6
f 1 6 7
f 1 7 8
f 1 8 2
f 2 9 10
f 2 10 11
f 2 11 3
f 2 8 9
f 3 11 10
f 3 10 12
f 3 12 13
f 3 13 14
f 3 14 4
f 4 15 5
f 4 14 16
f 4 16 17
f 4 17 15
f 5 15 18
f 5 18 6
f 6 19 20
f 6 20 21
f 6 21 7
f 6 18 19
f 7 21 22
f 7 22 23
f 7 23 8
f 8 23 24
f 8 24 25
f 8 25 26
f 8 26 9
f 9 26 25
f 9 25 24
f 9 24 48
f 9 48 67
f 9 67 66
f 9 66 78
f 9 78 77
f 9 77 85
f 9 85 97
f 9 97 99
f 9 99 91
f 9 91 89
f 9 89 88
f 9 88 86
f 9 86 79
f 9 79 68
f 9 68 50
f 9 50 49
f 9 49 28
f 9 28 27
f 9 27 12
f 9 12 10
f 12 27 13
f 13 27 28
f 13 28 14
f 14 28 29
f 14 29 30
f 14 30 16
f 15 17 31
f 15 31 32
f 15 32 18
f 16 30 33
f 16 33 17
f 17 33 31
f 18 32 34
f 18 34 35
f 18 35 36
f 18 36 19
f 19 36 37
f 19 37 38
f 19 38 39
f 19 39 40
f 19 40 20
f 20 40 41
f 20 41 42
f 20 42 43
f 20 43 21
f 21 43 44
f 21 44 22
f 22 44 45
f 22 45 46
f 22 46 47
f 22 47 23
f 23 47 24
f 24 47 48
f 28 49 29
f 29 49 50
f 29 50 51
f 29 51 30
f 30 51 52
f 30 52 53
f 30 53 33
f 31 54 55
f 31 55 32
f 31 33 56
f 31 56 54
f 32 57 34
f 32 55 57
f 33 53 56
f 34 57 55
f 34 55 54
f 34 54 56
f 34 56 53
f 34 53 52
f 34 52 69
f 34 69 81
f 34 81 90
f 34 90 98
f 34 98 92
f 34 92 83
f 34 83 73
f 34 73 82
f 34 82 71
f 34 71 58
f 34 58 41
f 34 41 40
f 34 40 39
f 34 39 38
f 34 38 37
f 34 37 36
f 34 36 35
f 41 58 59
f 41 59 42
f 42 59 60
f 42 60 43
f 43 60 44
f 44 60 45
f 45 60 61
f 45 61 62
f 45 62 63
f 45 63 64
f 45 64 65
f 45 65 66
f 45 66 67
f 45 67 46
f 46 67 48
f 46 48 47
f 50 68 69
f 50 69 52
f 50 52 70
f 50 70 51
f 51 70 52
f 58 71 59
f 59 71 72
f 59 72 73
f 59 73 74
f 59 74 60
f 60 74 61
f 61 74 73
f 61 73 75
f 61 75 62
f 62 75 73
f 62 73 83
f 62 83 91
f 62 91 99
f 62 99 100
f 62 100 96
f 62 96 95
f 62 95 94
f 62 94 93
f 62 93 84
f 62 84 76
f 62 76 65
f 62 65 64
f 62 64 63
f 65 76 77
f 65 77 78
f 65 78 66
f 68 79 80
f 68 80 69
f 69 80 79
f 69 79 81
f 71 82 72
f 72 82 73
f 76 84 77
f 77 84 85
f 79 86 87
f 79 87 81
f 81 87 88
f 81 88 89
f 81 89 90
f 83 92 91
f 84 93 85
f 85 93 94
f 85 94 95
f 85 95 96
f 85 96 97
f 86 88 87
f 89 91 98
f 89 98 90
f 91 92 98
f 96 100 97
f 97 100 99

