# https://github.com/mikedh/trimesh
v 0.02391195 -0.01609730 0.02872349
v 0.02667480 -0.01743159 0.03140167
v 0.02747733 -0.01735824 0.02949904
v 0.02800934 -0.01741296 0.02872349
v 0.02229788 -0.01609730 0.02872349
v 0.02020590 -0.01609730 0.03539837
v 0.02732223 -0.01762952 0.03046343
v 0.02534748 -0.01741645 0.03323831
v 0.02481366 -0.01762137 0.03396944
v 0.02822936 -0.01774829 0.02872349
v 0.01982898 -0.01609730 0.03324027
v 0.01149714 -0.01979514 0.02872349
v 0.00980552 -0.01948310 0.03244446
v 0.00980552 -0.01932126 0.03317167
v 0.00980552 -0.01882643 0.03539837
v 0.02340338 -0.01736406 0.03539837
v 0.02384522 -0.01741762 0.03509455
v 0.01881906 -0.01609730 0.03539837
v 0.02586506 -0.01794156 0.03224257
v 0.01888579 -0.02687064 0.03158201
v 0.01992998 -0.02777298 0.02888356
v 0.02356930 -0.01760624 0.03539837
v 0.02000211 -0.02778462 0.02872349
v 0.01014817 -0.02029812 0.02872349
v 0.00980552 -0.01962049 0.03189955
v 0.00980552 -0.01953317 0.03539837
v 0.02357651 -0.01746536 0.03539837
v 0.01716712 -0.02521732 0.03499981
v 0.01776225 -0.02590310 0.03370678
v 0.01419687 -0.02799187 0.03533565
v 0.01897235 -0.02744348 0.03058169
v 0.01995522 -0.02783352 0.02872349
v 0.01686595 -0.02501589 0.03539837
v 0.00980552 -0.02046694 0.02872349
v 0.00980552 -0.02154742 0.02872349
v 0.01204718 -0.02799187 0.03539837
v 0.01457559 -0.02799187 0.03487241
v 0.01409047 -0.02799187 0.03539837
v 0.01958552 -0.02798022 0.02872349
v 0.01224556 -0.02799187 0.03530037
v 0.01435918 -0.02799187 0.03455682
v 0.01400751 -0.02799187 0.03455682
v 0.01369011 -0.02799187 0.03463915
v 0.01300841 -0.02799187 0.03492990
f 1 2 3
f 1 3 4
f 1 4 10
f 1 10 23
f 1 23 32
f 1 32 39
f 1 39 35
f 1 35 34
f 1 34 24
f 1 24 12
f 1 12 5
f 1 5 11
f 1 11 18
f 1 18 6
f 1 6 2
f 2 7 4
f 2 4 3
f 2 6 8
f 2 8 9
f 2 9 7
f 4 7 10
f 5 12 13
f 5 13 14
f 5 14 15
f 5 15 11
f 6 16 17
f 6 17 8
f 6 18 15
f 6 15 26
f 6 26 36
f 6 36 38
f 6 38 33
f 6 33 22
f 6 22 27
f 6 27 16
f 7 9 19
f 7 19 20
f 7 20 21
f 7 21 10
f 8 17 9
f 9 17 22
f 9 22 20
f 9 20 19
f 10 21 23
f 11 15 18
f 12 24 25
f 12 25 13
f 13 25 34
f 13 34 35
f 13 35 26
f 13 26 15
f 13 15 14
f 16 27 17
f 17 27 22
f 20 28 29
f 20 29 30
f 20 30 31
f 20 31 21
f 20 22 28
f 21 32 23
f 21 31 30
f 21 30 32
f 22 33 28
f 24 34 25
f 26 35 36
f 28 33 30
f 28 30 29
f 30 37 32
f 30 33 38
f 30 38 36
f 30 36 40
f 30 40 44
f 30 44 43
f 30 43 42
f 30 42 41
f 30 41 37
f 32 37 39
f 35 39 36
f 36 39 40
f 37 41 39
f 39 41 42
f 39 42 43
f 39 43 44
f 39 44 40

