# https://github.com/mikedh/trimesh
v 0.00580257 -0.03177843 0.00396943
v -0.00112199 -0.02071468 0.03539837
v 0.00139764 -0.02207970 0.03539837
v 0.00580257 -0.03345491 0.00396943
v 0.00580257 -0.04165721 -0.02974224
v -0.03040074 -0.02070738 -0.01918941
v -0.00165001 -0.02051029 0.03539837
v 0.00139764 -0.02343499 0.03539837
v 0.00520721 -0.03397804 0.00396943
v 0.00580257 -0.03357170 0.00363148
v 0.00580257 -0.04319986 -0.02974224
v -0.01245856 -0.03462284 -0.02974224
v -0.01373786 -0.03416053 -0.02974224
v -0.01557354 -0.03353277 -0.02974224
v -0.01941146 -0.03258139 -0.02974224
v -0.02094238 -0.03228940 -0.02974224
v -0.03039720 -0.03010682 -0.02642655
v -0.03040074 -0.02263690 -0.02043279
v -0.03040074 -0.02070738 -0.01519783
v -0.02500001 -0.01908687 0.00397580
v -0.02419203 -0.01908687 0.00397580
v -0.00223119 -0.02036430 0.03539837
v -0.01362800 -0.02000662 0.03539837
v 0.00139764 -0.02489734 0.03110710
v 0.00403422 -0.03463257 0.00396943
v 0.00429646 -0.03486859 0.00341469
v 0.00499813 -0.03413620 0.00396943
v 0.00509381 -0.03547446 -0.00028996
v 0.00525682 -0.03697574 -0.00526988
v 0.00580257 -0.03404130 0.00224144
v 0.00508672 -0.04362567 -0.02974224
v 0.00580257 -0.04328016 -0.02943618
v -0.02094238 -0.03388071 -0.02974224
v -0.03039720 -0.03142805 -0.02642655
v -0.03040074 -0.02596795 -0.02175270
v -0.03040074 -0.02469782 -0.02140200
v -0.03040074 -0.02443017 -0.02131911
v -0.03040074 -0.02596795 -0.01610964
v -0.03039720 -0.02831842 -0.01612240
v -0.02932343 -0.02735731 -0.01164621
v -0.02938013 -0.02070738 -0.01130189
v -0.02113374 -0.01908687 0.01969346
v -0.02294107 -0.01908687 0.01242444
v -0.02435150 -0.01908687 0.00666024
v -0.01912796 -0.01908687 0.02343000
v -0.01362800 -0.01911607 0.03539837
v -0.00791188 -0.01955891 0.03539837
v -0.00638097 -0.01971950 0.03539837
v -0.00452048 -0.01994822 0.03539837
v -0.00308879 -0.02015748 0.03539837
v 0.00139764 -0.02620884 0.02724942
v -0.01992177 -0.01908687 0.02343000
v -0.01990405 -0.01915986 0.02343000
v -0.01955676 -0.02030590 0.02343000
v -0.01950006 -0.02042026 0.02343000
v -0.01914214 -0.02113319 0.02343000
v -0.01857159 -0.02169769 0.02343000
v -0.01767855 -0.02213323 0.02343000
v 0.00449137 -0.04131900 -0.01809906
v 0.00438505 -0.03728475 -0.00444733
v 0.00469691 -0.03807068 -0.00743146
v 0.00527100 -0.03939434 -0.01295973
v 0.00538086 -0.03784683 -0.00835602
v 0.00580257 -0.03753538 -0.00850905
v 0.00580257 -0.03635528 -0.00479803
v 0.00476778 -0.04394442 -0.02924489
v 0.00498750 -0.04367677 -0.02974224
v 0.00580257 -0.04335315 -0.02905360
v 0.00327230 -0.04360377 -0.02974224
v -0.03039720 -0.03141588 -0.02635641
v 0.00324395 -0.04364027 -0.02895157
v -0.03039720 -0.03056426 -0.02260713
v -0.03039720 -0.03006546 -0.02063684
v -0.03039720 -0.02985134 -0.01980791
v -0.03039720 -0.02946689 -0.01867930
v -0.03039720 -0.02912868 -0.01779937
v -0.03039720 -0.02834762 -0.01617341
v -0.02977703 -0.02840602 -0.01463671
v -0.02870326 -0.02744977 -0.01017328
v -0.02047814 -0.02037890 0.02065629
v -0.02023362 -0.01908687 0.02251818
v -0.02069785 -0.01908687 0.02108988
v -0.02833826 -0.02800941 -0.01090018
v -0.02951834 -0.02947176 -0.01734665
v 0.00450554 -0.04281542 -0.02337229
v 0.00480676 -0.04245530 -0.02199500
v 0.00475715 -0.04036519 -0.01494915
v 0.00495206 -0.04149662 -0.01892160
v 0.00527100 -0.04036519 -0.01607776
v 0.00580257 -0.04048928 -0.01792690
v 0.00580257 -0.03925078 -0.01395444
v 0.00565018 -0.04345291 -0.02900259
v 0.00482094 -0.04379600 -0.02774007
v 0.00449845 -0.04365730 -0.02676450
v 0.00410155 -0.04377653 -0.02974224
v 0.00459768 -0.04387629 -0.02974224
v 0.00580257 -0.04282272 -0.02659871
v 0.00499458 -0.04316580 -0.02540633
v -0.03023772 -0.02907271 -0.01728289
v 0.00533124 -0.04221198 -0.02256249
v 0.00580257 -0.04137253 -0.02093652
v 0.00580257 -0.04089805 -0.01925955
v 0.00580257 -0.04233364 -0.02459017
v 0.00580257 -0.04179347 -0.02246685
f 1 2 3
f 1 3 8
f 1 8 4
f 1 4 10
f 1 10 30
f 1 30 65
f 1 65 64
f 1 64 91
f 1 91 90
f 1 90 102
f 1 102 101
f 1 101 104
f 1 104 103
f 1 103 97
f 1 97 68
f 1 68 32
f 1 32 11
f 1 11 5
f 1 5 6
f 1 6 2
f 2 7 22
f 2 22 50
f 2 50 49
f 2 49 48
f 2 48 47
f 2 47 46
f 2 46 23
f 2 23 8
f 2 8 3
f 2 6 7
f 4 9 10
f 4 8 9
f 5 11 31
f 5 31 67
f 5 67 96
f 5 96 95
f 5 95 69
f 5 69 33
f 5 33 16
f 5 16 15
f 5 15 14
f 5 14 13
f 5 13 12
f 5 12 6
f 6 12 13
f 6 13 14
f 6 14 15
f 6 15 16
f 6 16 17
f 6 17 18
f 6 18 37
f 6 37 36
f 6 36 35
f 6 35 38
f 6 38 19
f 6 19 20
f 6 20 21
f 6 21 7
f 7 21 22
f 8 23 24
f 8 24 25
f 8 25 26
f 8 26 27
f 8 27 9
f 9 27 26
f 9 26 28
f 9 28 29
f 9 29 30
f 9 30 10
f 11 32 31
f 16 33 34
f 16 34 17
f 17 34 35
f 17 35 36
f 17 36 37
f 17 37 18
f 19 38 39
f 19 39 40
f 19 40 41
f 19 41 42
f 19 42 43
f 19 43 44
f 19 44 20
f 20 44 43
f 20 43 42
f 20 42 82
f 20 82 81
f 20 81 52
f 20 52 45
f 20 45 21
f 21 45 46
f 21 46 47
f 21 47 48
f 21 48 49
f 21 49 50
f 21 50 22
f 23 51 24
f 23 46 52
f 23 52 53
f 23 53 54
f 23 54 55
f 23 55 56
f 23 56 57
f 23 57 58
f 23 58 59
f 23 59 60
f 23 60 25
f 23 25 51
f 24 51 25
f 25 60 26
f 26 60 61
f 26 61 29
f 26 29 28
f 29 61 62
f 29 62 63
f 29 63 64
f 29 64 65
f 29 65 30
f 31 32 66
f 31 66 67
f 32 68 66
f 33 69 34
f 34 70 38
f 34 38 35
f 34 69 71
f 34 71 70
f 38 70 72
f 38 72 73
f 38 73 74
f 38 74 75
f 38 75 76
f 38 76 77
f 38 77 39
f 39 77 78
f 39 78 40
f 40 78 79
f 40 79 56
f 40 56 55
f 40 55 54
f 40 54 80
f 40 80 53
f 40 53 81
f 40 81 82
f 40 82 42
f 40 42 41
f 45 52 46
f 52 81 53
f 53 80 54
f 56 79 57
f 57 79 83
f 57 83 58
f 58 83 74
f 58 74 84
f 58 84 85
f 58 85 59
f 59 85 86
f 59 86 60
f 60 86 87
f 60 87 61
f 61 87 88
f 61 88 62
f 62 88 89
f 62 89 90
f 62 90 91
f 62 91 64
f 62 64 63
f 66 68 92
f 66 92 93
f 66 93 94
f 66 94 71
f 66 71 69
f 66 69 95
f 66 95 96
f 66 96 67
f 68 93 92
f 68 97 98
f 68 98 93
f 70 71 94
f 70 94 72
f 72 94 85
f 72 85 73
f 73 85 74
f 74 83 75
f 74 85 84
f 75 83 99
f 75 99 76
f 76 99 78
f 76 78 77
f 78 83 79
f 78 99 83
f 85 94 86
f 86 94 93
f 86 93 98
f 86 98 100
f 86 100 88
f 86 88 87
f 88 100 101
f 88 101 102
f 88 102 89
f 89 102 90
f 97 103 100
f 97 100 98
f 100 103 104
f 100 104 101

