# https://github.com/mikedh/trimesh
v 0.03710572 -0.02231910 -0.03937660
v 0.03946469 -0.01551395 -0.03937660
v 0.04403860 -0.00312572 -0.03948723
v 0.03850671 -0.02231910 -0.03937660
v 0.02877841 -0.02231910 -0.00231105
v 0.03110246 -0.00873044 0.00398213
v 0.03146253 -0.00747593 0.00398213
v 0.03174622 -0.00733805 0.00302475
v 0.04219464 -0.00781119 -0.03937660
v 0.04541776 -0.00312572 -0.03948723
v 0.04265509 -0.00661076 -0.03937660
v 0.03157164 -0.00716501 0.00398213
v 0.04479147 -0.00124397 -0.03948723
v 0.04925627 0.00481226 -0.03948723
v 0.04948104 0.00530162 -0.03948723
v 0.04991094 0.00530162 -0.03793414
v 0.03922465 -0.02231910 -0.03678103
v 0.02877841 -0.02231910 0.00196525
v 0.02877841 -0.02161073 -0.00021333
v 0.03090825 -0.00966591 0.00398213
v 0.03207573 -0.00602136 0.00398213
v 0.04756070 0.00530162 -0.03948723
v 0.05074236 0.00530162 -0.03473862
v 0.03923993 -0.02231910 -0.03671721
v 0.03070748 -0.02231910 0.00125040
v 0.02877841 -0.02189192 0.00398213
v 0.02877841 -0.02079152 0.00249287
v 0.02877841 -0.02040219 0.00398213
v 0.02877841 -0.02043193 0.00386299
v 0.03239870 -0.00540762 0.00398213
v 0.03852853 0.00530162 0.00397788
v 0.05080128 0.00530162 -0.03442800
v 0.05075546 0.00519077 -0.03447906
v 0.03961745 -0.02231910 -0.03461522
v 0.03118539 -0.02231910 0.00076108
v 0.03034960 -0.02175673 0.00378214
v 0.03023831 -0.02173240 0.00398213
v 0.03382368 -0.00312843 0.00398213
v 0.04011063 0.00530162 0.00397788
v 0.05107187 0.00530162 -0.03271748
v 0.05072054 0.00445538 -0.03296427
v 0.03968073 -0.02231910 -0.03422376
v 0.03103263 -0.02211362 0.00167591
v 0.03034742 -0.02170266 0.00398213
v 0.03177022 -0.02231910 -0.00034523
v 0.03498025 -0.00312843 0.00398213
v 0.03108064 -0.02088885 0.00398213
v 0.03102609 -0.02112678 0.00398213
v 0.04385749 0.00530162 -0.00761707
v 0.03985749 -0.02231910 -0.03277279
v 0.05097586 0.00530162 -0.03212603
v 0.03074895 -0.02148907 0.00398213
v 0.03194916 -0.02231910 -0.00087286
v 0.03171130 -0.02221365 0.00004623
v 0.03077295 -0.02147014 0.00398213
v 0.03238124 -0.02231910 -0.00226850
v 0.03122685 -0.02115381 0.00327154
v 0.04616408 0.00530162 -0.01492721
v 0.04614008 0.00530162 -0.01485062
v 0.04467145 0.00530162 -0.01017009
v 0.03981167 -0.02231910 -0.03253877
v 0.05076200 0.00530162 -0.03114738
v 0.03932503 -0.02231910 -0.03026658
v 0.03304027 -0.02231910 -0.00482578
v 0.05050013 0.00530162 -0.03001979
v 0.05021645 0.00530162 -0.02892200
v 0.04916026 0.00530162 -0.02513502
v 0.03825575 -0.02231910 -0.02588391
f 1 2 3
f 1 3 10
f 1 10 4
f 1 4 17
f 1 17 24
f 1 24 34
f 1 34 42
f 1 42 50
f 1 50 61
f 1 61 63
f 1 63 68
f 1 68 64
f 1 64 56
f 1 56 53
f 1 53 45
f 1 45 35
f 1 35 25
f 1 25 18
f 1 18 5
f 1 5 6
f 1 6 7
f 1 7 8
f 1 8 2
f 2 9 3
f 2 8 9
f 3 9 11
f 3 11 12
f 3 12 13
f 3 13 22
f 3 22 15
f 3 15 14
f 3 14 10
f 4 10 14
f 4 14 15
f 4 15 16
f 4 16 17
f 5 18 26
f 5 26 28
f 5 28 29
f 5 29 27
f 5 27 19
f 5 19 20
f 5 20 6
f 6 20 28
f 6 28 26
f 6 26 37
f 6 37 44
f 6 44 52
f 6 52 55
f 6 55 48
f 6 48 47
f 6 47 46
f 6 46 38
f 6 38 30
f 6 30 21
f 6 21 12
f 6 12 7
f 7 12 8
f 8 12 9
f 9 12 11
f 12 21 22
f 12 22 13
f 15 22 31
f 15 31 39
f 15 39 49
f 15 49 60
f 15 60 59
f 15 59 58
f 15 58 67
f 15 67 66
f 15 66 65
f 15 65 62
f 15 62 51
f 15 51 40
f 15 40 32
f 15 32 23
f 15 23 16
f 16 23 17
f 17 23 24
f 18 25 26
f 19 27 20
f 20 27 29
f 20 29 28
f 21 30 22
f 22 30 31
f 23 32 33
f 23 33 24
f 24 33 34
f 25 35 36
f 25 36 37
f 25 37 26
f 30 38 31
f 31 38 46
f 31 46 39
f 32 40 33
f 33 40 41
f 33 41 34
f 34 41 42
f 35 43 44
f 35 44 36
f 35 45 43
f 36 44 37
f 39 46 47
f 39 47 48
f 39 48 49
f 40 50 41
f 40 51 50
f 41 50 42
f 43 45 52
f 43 52 44
f 45 53 54
f 45 54 55
f 45 55 52
f 48 55 54
f 48 54 53
f 48 53 56
f 48 56 57
f 48 57 58
f 48 58 59
f 48 59 60
f 48 60 49
f 50 51 61
f 51 62 63
f 51 63 61
f 56 64 65
f 56 65 66
f 56 66 67
f 56 67 57
f 57 67 58
f 62 65 63
f 63 65 68
f 64 68 65

