# https://github.com/mikedh/trimesh
v 0.03636649 0.02628290 -0.03949148
v 0.03309599 0.03457884 -0.03949148
v 0.03781761 0.02628290 -0.03949148
v 0.03309599 0.02628290 -0.01743798
v 0.03309599 0.03606461 -0.03949148
v 0.03485675 0.03476511 -0.03949148
v 0.03916306 0.02628290 -0.03577489
v 0.03309599 0.02628290 -0.01275560
v 0.03427044 0.03662787 -0.03631667
v 0.03312958 0.03605685 -0.03949148
v 0.03309599 0.03760804 -0.03358943
v 0.03449641 0.03545700 -0.03949148
v 0.03570873 0.03619545 -0.03463898
v 0.03548092 0.03523191 -0.03678779
v 0.03605318 0.03603911 -0.03359990
v 0.03933468 0.02628290 -0.03470441
v 0.03309599 0.03148422 -0.01581263
v 0.03929193 0.02628290 -0.03449764
v 0.03466864 0.03635511 -0.03674068
v 0.03410554 0.03577189 -0.03949148
v 0.03390277 0.03584729 -0.03949148
v 0.03406096 0.03741179 -0.03345857
v 0.03539236 0.03669107 -0.03437725
v 0.03309599 0.03753930 -0.03307382
v 0.03497279 0.03587833 -0.03730078
v 0.03435533 0.03557896 -0.03949148
v 0.03536427 0.03691172 -0.03347427
v 0.03572400 0.03650923 -0.03272048
v 0.03595730 0.03580959 -0.03209756
v 0.03327982 0.03147313 -0.01649051
v 0.03309599 0.03223486 -0.01652715
v 0.03553589 0.03549359 -0.02971319
v 0.03492820 0.03450011 -0.02576104
v 0.03452878 0.03715676 -0.03266814
v 0.03309599 0.03746722 -0.03271002
v 0.03521342 0.03667001 -0.03173899
v 0.03538320 0.03625089 -0.03084387
v 0.03309599 0.03280921 -0.01709249
v 0.03499233 0.03548915 -0.02771879
v 0.03442251 0.03486380 -0.02466177
v 0.03309599 0.03680971 -0.02960588
v 0.03309599 0.03668220 -0.02903269
v 0.03413852 0.03631187 -0.02847520
v 0.03452878 0.03590051 -0.02761934
v 0.03309599 0.03379160 -0.01885133
v 0.03400110 0.03487599 -0.02362270
v 0.03309599 0.03580404 -0.02510410
v 0.03309599 0.03559892 -0.02431890
v 0.03367985 0.03542928 -0.02447332
v 0.03309599 0.03468195 -0.02119383
v 0.03309599 0.03476622 -0.02142415
f 1 2 5
f 1 5 10
f 1 10 21
f 1 21 20
f 1 20 26
f 1 26 12
f 1 12 6
f 1 6 3
f 1 3 7
f 1 7 16
f 1 16 18
f 1 18 8
f 1 8 4
f 1 4 2
f 2 4 8
f 2 8 17
f 2 17 31
f 2 31 38
f 2 38 45
f 2 45 50
f 2 50 51
f 2 51 48
f 2 48 47
f 2 47 42
f 2 42 41
f 2 41 35
f 2 35 24
f 2 24 11
f 2 11 5
f 3 6 7
f 5 9 10
f 5 11 9
f 6 12 13
f 6 13 14
f 6 14 7
f 7 13 15
f 7 15 16
f 7 14 13
f 8 18 17
f 9 19 20
f 9 20 21
f 9 21 10
f 9 11 22
f 9 22 23
f 9 23 19
f 11 24 22
f 12 25 13
f 12 26 23
f 12 23 25
f 13 23 15
f 13 25 23
f 15 27 28
f 15 28 29
f 15 29 16
f 15 23 27
f 16 29 18
f 17 30 31
f 17 18 30
f 18 29 32
f 18 32 33
f 18 33 30
f 19 23 20
f 20 23 26
f 22 24 34
f 22 34 27
f 22 27 23
f 24 35 34
f 27 34 36
f 27 36 28
f 28 36 37
f 28 37 32
f 28 32 29
f 30 33 31
f 31 33 38
f 32 37 39
f 32 39 33
f 33 39 40
f 33 40 38
f 34 35 41
f 34 41 42
f 34 42 43
f 34 43 36
f 36 43 44
f 36 44 37
f 37 44 39
f 38 40 45
f 39 44 46
f 39 46 40
f 40 46 45
f 42 47 43
f 43 47 48
f 43 48 49
f 43 49 44
f 44 49 46
f 45 46 50
f 46 49 51
f 46 51 50
f 48 51 49

