# https://github.com/mikedh/trimesh
v 0.02379908 -0.01239701 0.04163120
v 0.02379908 -0.01250357 0.04098828
v 0.02379908 -0.01358059 0.04590671
v 0.02992397 -0.01545799 0.04070684
v 0.02790687 -0.01443653 0.04078341
v 0.02379908 -0.01294685 0.04090619
v 0.02940743 -0.01540697 0.04040055
v 0.02768734 -0.01480498 0.04049782
v 0.02379908 -0.01393317 0.04620471
v 0.02466945 -0.01411456 0.04574736
v 0.02616354 -0.01482765 0.04517274
v 0.03213347 -0.01674020 0.04055715
v 0.03435589 -0.01810971 0.04003702
v 0.03699155 -0.02116162 0.03919475
v 0.02425492 -0.01338899 0.04082410
v 0.02379908 -0.01326429 0.04089032
v 0.03699155 -0.02020592 0.03945067
v 0.02379908 -0.01398418 0.04624196
v 0.02823487 -0.01651913 0.04508582
v 0.03017320 -0.01750658 0.04446567
v 0.02772221 -0.01575162 0.04481058
v 0.03501707 -0.01860173 0.04030329
v 0.03699155 -0.02252659 0.03940238
v 0.02379908 -0.01345135 0.04098483
v 0.03699155 -0.02020478 0.03982524
v 0.02379908 -0.01447394 0.04609089
v 0.03241499 -0.01986467 0.04406695
v 0.03127214 -0.01878199 0.04437461
v 0.03409504 -0.02086346 0.04358684
v 0.03314073 -0.01950302 0.04350268
v 0.03500157 -0.01951323 0.04151531
v 0.03677718 -0.02003813 0.04001494
v 0.03699155 -0.02337233 0.04014256
v 0.02379908 -0.01408281 0.04134630
v 0.03699155 -0.02045306 0.04010324
v 0.02379908 -0.01465533 0.04572598
v 0.03593006 -0.02299821 0.04256797
v 0.03416865 -0.02143938 0.04341714
v 0.03571440 -0.02232933 0.04306120
v 0.03625289 -0.02203457 0.04254728
v 0.03590035 -0.02092581 0.04198645
v 0.03699155 -0.02392898 0.04096483
v 0.02379908 -0.01431522 0.04216857
v 0.03699155 -0.02194841 0.04146771
v 0.02379908 -0.01471769 0.04547833
v 0.03699155 -0.02397886 0.04168638
v 0.03688566 -0.02387456 0.04181331
v 0.03645563 -0.02321815 0.04252037
v 0.03699155 -0.02355032 0.04222651
v 0.03699155 -0.02304583 0.04233826
v 0.03699155 -0.02301068 0.04232585
v 0.02379908 -0.01471088 0.04411524
v 0.03699155 -0.02387910 0.04182779
f 1 2 6
f 1 6 16
f 1 16 24
f 1 24 34
f 1 34 43
f 1 43 52
f 1 52 45
f 1 45 36
f 1 36 26
f 1 26 18
f 1 18 9
f 1 9 3
f 1 3 4
f 1 4 5
f 1 5 2
f 2 5 7
f 2 7 8
f 2 8 6
f 3 9 10
f 3 10 11
f 3 11 12
f 3 12 4
f 4 7 5
f 4 12 13
f 4 13 7
f 6 8 14
f 6 14 15
f 6 15 16
f 7 13 17
f 7 17 14
f 7 14 8
f 9 18 10
f 10 18 19
f 10 19 20
f 10 20 21
f 10 21 11
f 11 21 22
f 11 22 12
f 12 22 13
f 13 22 17
f 14 17 25
f 14 25 35
f 14 35 44
f 14 44 51
f 14 51 50
f 14 50 49
f 14 49 53
f 14 53 46
f 14 46 42
f 14 42 33
f 14 33 23
f 14 23 16
f 14 16 15
f 16 23 24
f 17 22 25
f 18 26 27
f 18 27 28
f 18 28 19
f 19 28 20
f 20 28 29
f 20 29 30
f 20 30 31
f 20 31 22
f 20 22 21
f 22 31 32
f 22 32 25
f 23 33 34
f 23 34 24
f 25 32 35
f 26 36 37
f 26 37 38
f 26 38 27
f 27 38 39
f 27 39 29
f 27 29 28
f 29 39 40
f 29 40 30
f 30 40 41
f 30 41 31
f 31 41 32
f 32 41 40
f 32 40 35
f 33 42 34
f 34 42 43
f 35 40 44
f 36 45 46
f 36 46 47
f 36 47 37
f 37 47 48
f 37 48 38
f 38 48 39
f 39 48 49
f 39 49 50
f 39 50 40
f 40 50 51
f 40 51 44
f 42 46 52
f 42 52 43
f 45 52 46
f 46 53 47
f 47 53 49
f 47 49 48

