# https://github.com/mikedh/trimesh
v 0.00579884 -0.04165832 -0.02974765
v -0.02094268 -0.03155749 -0.02643025
v 0.00579884 -0.04320303 -0.02974765
v 0.00579884 -0.02463648 -0.07046928
v -0.03079266 -0.02463648 -0.03864451
v -0.02230027 -0.03132202 -0.02643025
v -0.02094268 -0.03294207 -0.02643025
v 0.00508648 -0.04362687 -0.02974765
v 0.00579884 -0.04291292 -0.03084305
v 0.00579884 -0.02463648 -0.07184523
v -0.03229944 -0.02463648 -0.03864451
v -0.03039732 -0.03010510 -0.02643025
v -0.02099863 -0.03293454 -0.02643025
v 0.00459417 -0.04388119 -0.02974765
v 0.00579884 -0.03873093 -0.04598287
v 0.00579884 -0.02722291 -0.07192093
v 0.00334101 -0.02795005 -0.07191202
v 0.00435920 -0.02463648 -0.07182296
v -0.03136330 -0.02463648 -0.04219791
v -0.03122530 -0.02825523 -0.03985570
v -0.03148264 -0.02840216 -0.03864451
v -0.03039732 -0.03211321 -0.02964078
v -0.03039732 -0.03200583 -0.02909307
v -0.03039732 -0.03142563 -0.02643025
v -0.02214363 -0.03276876 -0.02643025
v -0.02931945 -0.03162719 -0.02643025
v -0.03034883 -0.03143693 -0.02643025
v 0.00409812 -0.04378134 -0.02974765
v 0.00329252 -0.04358166 -0.03033988
v 0.00409439 -0.04368528 -0.03119483
v 0.00366922 -0.03962949 -0.04652166
v 0.00515361 -0.03917550 -0.04556875
v 0.00498951 -0.03827506 -0.04889505
v 0.00579884 -0.03789265 -0.04881045
v 0.00579884 -0.02771646 -0.07185858
v 0.00354987 -0.02889382 -0.07184523
v 0.00088317 -0.02821943 -0.07180069
v -0.00097046 -0.02671053 -0.07180515
v -0.00638217 -0.02463648 -0.07165375
v -0.02983414 -0.02463648 -0.04683782
v -0.02811851 -0.02641854 -0.05125508
v -0.02933064 -0.02758272 -0.04690016
v -0.03030035 -0.02821378 -0.04322653
v -0.03118800 -0.02936666 -0.03864451
v -0.03134838 -0.02888629 -0.03864451
v -0.03059872 -0.02909916 -0.04108469
v -0.03039732 -0.03209437 -0.02990350
v 0.00327014 -0.04360804 -0.02974765
v -0.03039732 -0.03176659 -0.03168910
v -0.03039732 -0.03169501 -0.03207205
v 0.00378483 -0.04257196 -0.03531375
v 0.00316198 -0.04008160 -0.04430858
v -0.02811105 -0.02806685 -0.04892622
v 0.00353122 -0.03860095 -0.04991922
v 0.00369532 -0.03752531 -0.05339247
v 0.00371397 -0.03618971 -0.05754256
v 0.00479930 -0.03662675 -0.05440327
v 0.00510513 -0.03533448 -0.05789433
v 0.00579884 -0.03518377 -0.05710617
v 0.00579884 -0.02820625 -0.07177398
v 0.00475081 -0.02882036 -0.07176507
v 0.00379975 -0.02995628 -0.07142666
v 0.00152467 -0.02921784 -0.07152016
v -0.00952625 -0.02463648 -0.07130197
v -0.00725863 -0.02463648 -0.07161813
v -0.00687075 -0.02463648 -0.07163594
v -0.02553387 -0.02463648 -0.05977791
v -0.02661920 -0.02596266 -0.05599741
v -0.02716745 -0.02655417 -0.05401587
v -0.02939032 -0.02815350 -0.04604075
v -0.02845045 -0.02732652 -0.04961642
v -0.03085233 -0.02978485 -0.03864451
v -0.02973345 -0.02880717 -0.04387220
v -0.03039732 -0.03103192 -0.03477941
v -0.03015490 -0.03043664 -0.03753574
v -0.02981923 -0.03026522 -0.03864451
v -0.02872644 -0.02970950 -0.04223353
v -0.02884206 -0.02897106 -0.04482512
v -0.02990501 -0.02946650 -0.04157896
v -0.02770079 -0.02731145 -0.05161577
v -0.02671243 -0.02668415 -0.05480849
v -0.02559727 -0.02644491 -0.05710617
v 0.00327387 -0.03721260 -0.05401142
v 0.00339695 -0.03605973 -0.05768505
v 0.00333728 -0.03367298 -0.06410166
v 0.00383332 -0.03419479 -0.06291720
v 0.00384078 -0.03536650 -0.05972002
v 0.00579884 -0.03495395 -0.05778302
v 0.00502680 -0.03416841 -0.06118947
v 0.00579884 -0.03408364 -0.06014749
v 0.00579884 -0.02905583 -0.07128862
v 0.00563101 -0.02974341 -0.07050936
v 0.00346036 -0.03116943 -0.07000173
v 0.00247573 -0.03014277 -0.07105261
v -0.01149550 -0.02463648 -0.07087895
v -0.02431055 -0.02463648 -0.06317991
v -0.02580613 -0.02579312 -0.05820158
v -0.03039732 -0.03046490 -0.03699694
v -0.03008776 -0.03017103 -0.03864451
v -0.02441871 -0.02474386 -0.06277915
v -0.02454924 -0.02552563 -0.06086441
v -0.02317301 -0.02466097 -0.06484974
v 0.00344171 -0.03313233 -0.06554884
v 0.00363192 -0.03315682 -0.06554884
v 0.00376619 -0.03216030 -0.06797121
v 0.00415407 -0.03295903 -0.06554884
v 0.00424731 -0.03315494 -0.06495216
v 0.00579884 -0.03367110 -0.06116721
v 0.00579884 -0.02936477 -0.07088786
v 0.00579884 -0.02961720 -0.07054944
v 0.00579884 -0.02966053 -0.07046928
v 0.00353495 -0.03265009 -0.06682237
v 0.00272935 -0.03124667 -0.06932934
v -0.02311333 -0.02463648 -0.06495216
v -0.02151705 -0.02463648 -0.06580266
v -0.01246894 -0.02463648 -0.07051381
v -0.02316182 -0.02463648 -0.06491654
v 0.00579884 -0.03057981 -0.06858572
v 0.00579884 -0.03187585 -0.06554884
v 0.00579884 -0.03210567 -0.06500559
v 0.00579884 -0.03271225 -0.06352278
v 0.00579884 -0.03069660 -0.06831408
f 1 2 7
f 1 7 3
f 1 3 9
f 1 9 15
f 1 15 34
f 1 34 59
f 1 59 88
f 1 88 90
f 1 90 108
f 1 108 121
f 1 121 120
f 1 120 119
f 1 119 122
f 1 122 118
f 1 118 111
f 1 111 110
f 1 110 109
f 1 109 91
f 1 91 60
f 1 60 35
f 1 35 16
f 1 16 10
f 1 10 4
f 1 4 2
f 2 5 6
f 2 6 12
f 2 12 24
f 2 24 27
f 2 27 26
f 2 26 25
f 2 25 13
f 2 13 7
f 2 4 5
f 3 8 9
f 3 7 8
f 4 10 18
f 4 18 39
f 4 39 66
f 4 66 65
f 4 65 64
f 4 64 95
f 4 95 116
f 4 116 115
f 4 115 114
f 4 114 117
f 4 117 96
f 4 96 67
f 4 67 40
f 4 40 19
f 4 19 11
f 4 11 5
f 5 11 12
f 5 12 6
f 7 13 14
f 7 14 8
f 8 14 15
f 8 15 9
f 10 16 17
f 10 17 18
f 11 19 20
f 11 20 21
f 11 21 22
f 11 22 23
f 11 23 24
f 11 24 12
f 13 25 14
f 14 25 26
f 14 26 27
f 14 27 28
f 14 28 29
f 14 29 30
f 14 30 31
f 14 31 32
f 14 32 15
f 15 32 33
f 15 33 34
f 16 35 36
f 16 36 17
f 17 36 37
f 17 37 38
f 17 38 18
f 18 38 39
f 19 40 41
f 19 41 42
f 19 42 43
f 19 43 20
f 20 44 45
f 20 45 21
f 20 43 46
f 20 46 44
f 21 45 22
f 22 45 44
f 22 44 47
f 22 47 29
f 22 29 48
f 22 48 23
f 23 48 24
f 24 48 27
f 27 48 28
f 28 48 29
f 29 47 49
f 29 49 50
f 29 50 30
f 30 50 51
f 30 51 31
f 31 52 53
f 31 53 54
f 31 54 55
f 31 55 33
f 31 33 32
f 31 51 52
f 33 55 34
f 34 55 56
f 34 56 57
f 34 57 58
f 34 58 59
f 35 60 61
f 35 61 36
f 36 61 62
f 36 62 63
f 36 63 37
f 37 63 64
f 37 64 65
f 37 65 38
f 38 65 66
f 38 66 39
f 40 67 68
f 40 68 41
f 41 68 69
f 41 69 42
f 42 70 43
f 42 69 71
f 42 71 70
f 43 70 46
f 44 46 72
f 44 72 50
f 44 50 49
f 44 49 47
f 46 70 73
f 46 73 72
f 50 74 51
f 50 72 74
f 51 74 75
f 51 75 52
f 52 76 77
f 52 77 78
f 52 78 53
f 52 75 76
f 53 78 79
f 53 79 73
f 53 73 80
f 53 80 81
f 53 81 82
f 53 82 54
f 54 82 83
f 54 83 55
f 55 83 84
f 55 84 56
f 56 84 85
f 56 85 86
f 56 86 87
f 56 87 58
f 56 58 57
f 58 88 59
f 58 87 89
f 58 89 90
f 58 90 88
f 60 91 62
f 60 62 61
f 62 91 92
f 62 92 93
f 62 93 94
f 62 94 63
f 63 94 95
f 63 95 64
f 67 96 68
f 68 96 69
f 69 80 71
f 69 96 97
f 69 97 81
f 69 81 80
f 70 71 80
f 70 80 73
f 72 73 79
f 72 79 98
f 72 98 74
f 74 98 75
f 75 98 99
f 75 99 76
f 76 99 77
f 77 79 78
f 77 99 79
f 79 99 98
f 81 97 100
f 81 100 101
f 81 101 82
f 82 101 102
f 82 102 84
f 82 84 83
f 84 102 85
f 85 102 103
f 85 103 86
f 86 89 87
f 86 103 104
f 86 104 105
f 86 105 106
f 86 106 107
f 86 107 89
f 89 107 108
f 89 108 90
f 91 109 92
f 92 109 110
f 92 110 111
f 92 111 105
f 92 105 93
f 93 105 112
f 93 112 113
f 93 113 114
f 93 114 94
f 94 114 115
f 94 115 116
f 94 116 95
f 96 101 100
f 96 100 97
f 96 117 102
f 96 102 101
f 102 117 112
f 102 112 103
f 103 112 104
f 104 112 105
f 105 118 106
f 105 111 118
f 106 118 107
f 107 119 120
f 107 120 121
f 107 121 108
f 107 118 122
f 107 122 119
f 112 117 114
f 112 114 113

