# https://github.com/mikedh/trimesh
v 0.03935703 0.00388960 0.00398983
v 0.03254423 -0.00742931 0.00398983
v 0.03811165 0.00388960 0.00398983
v 0.03904121 0.00388960 0.00503194
v 0.02511570 0.00385823 0.05129687
v 0.02518125 0.00313549 0.05129687
v 0.02513954 0.00285074 0.05129687
v 0.02489920 0.00163934 0.05129687
v 0.02333008 -0.00241839 0.05129687
v 0.02163582 -0.00640492 0.05129687
v 0.02137363 -0.00701666 0.05129687
v 0.02063078 -0.00843680 0.05129687
v 0.03147365 -0.00742931 0.00398983
v 0.02377698 -0.00843680 0.03539663
v 0.03239526 -0.00540467 0.00398983
v 0.03706292 0.00388960 0.00687995
v 0.03793687 0.00388960 0.00864458
v 0.02361411 0.00385823 0.05129687
v 0.03720990 0.00388960 0.01100669
v 0.03083805 0.00388960 0.03078820
v 0.02927290 0.00388960 0.03539663
v 0.01907754 -0.00843680 0.05129687
v 0.01981245 -0.00843680 0.04490065
v 0.01940726 -0.00843680 0.04634571
v 0.02317515 0.00385823 0.04519244
v 0.03156700 -0.00716265 0.00398983
v 0.02269647 -0.00843680 0.03539663
v 0.03207349 -0.00601882 0.00398983
v 0.03267334 0.00388960 0.02026523
v 0.02772363 0.00388960 0.03539663
v 0.02345918 0.00385823 0.04982403
v 0.02308775 0.00385823 0.04606318
v 0.01906761 -0.00843680 0.05067161
v 0.01918679 -0.00843680 0.04818908
f 1 2 13
f 1 13 26
f 1 26 28
f 1 28 15
f 1 15 3
f 1 3 16
f 1 16 29
f 1 29 30
f 1 30 21
f 1 21 20
f 1 20 19
f 1 19 17
f 1 17 4
f 1 4 5
f 1 5 6
f 1 6 7
f 1 7 8
f 1 8 9
f 1 9 10
f 1 10 11
f 1 11 12
f 1 12 2
f 2 12 14
f 2 14 27
f 2 27 13
f 3 15 16
f 4 17 5
f 5 18 22
f 5 22 12
f 5 12 11
f 5 11 10
f 5 10 9
f 5 9 8
f 5 8 7
f 5 7 6
f 5 17 19
f 5 19 20
f 5 20 21
f 5 21 30
f 5 30 18
f 12 22 33
f 12 33 34
f 12 34 24
f 12 24 23
f 12 23 27
f 12 27 14
f 13 23 24
f 13 24 25
f 13 25 26
f 13 27 23
f 15 28 25
f 15 25 16
f 16 25 29
f 18 30 31
f 18 31 22
f 22 31 32
f 22 32 33
f 24 34 25
f 25 34 32
f 25 32 30
f 25 30 29
f 25 28 26
f 30 32 31
f 32 34 33

