# https://github.com/mikedh/trimesh
v 0.03699155 -0.02304768 0.04233649
v 0.03703876 -0.02307410 0.04231000
v 0.03699155 -0.02301123 0.04232426
v 0.03699155 -0.02355159 0.04222510
v 0.03756806 -0.02390970 0.04190859
v 0.03771861 -0.02186400 0.04040278
v 0.03836070 -0.02387143 0.04105278
v 0.03699155 -0.02194965 0.04146643
v 0.03699155 -0.02388054 0.04182640
v 0.03803389 -0.02951556 0.03539838
v 0.03863873 -0.02532848 0.04049244
v 0.03904371 -0.02485920 0.04035185
v 0.03754707 -0.02064022 0.03933099
v 0.03699155 -0.02020647 0.03982410
v 0.03699155 -0.02045432 0.04010189
v 0.03837880 -0.02223942 0.03957279
v 0.03699155 -0.02397986 0.04168513
v 0.03802786 -0.02950372 0.03539838
v 0.03804333 -0.02951374 0.03539838
v 0.03914206 -0.02764937 0.03757049
v 0.03942376 -0.02595176 0.03945665
v 0.03946809 -0.02484006 0.03903690
v 0.03896686 -0.02337572 0.03900565
v 0.03699155 -0.02020738 0.03944917
v 0.03839690 -0.02198428 0.03870544
v 0.03908934 -0.02386049 0.03632753
v 0.03876384 -0.02397622 0.03539838
v 0.03699155 -0.02393066 0.04096381
v 0.03782720 -0.02847221 0.03539838
v 0.03802655 -0.02949825 0.03539838
v 0.03810943 -0.02949825 0.03539838
v 0.03806038 -0.02949825 0.03541400
v 0.03886037 -0.02876107 0.03615162
v 0.03961838 -0.02660055 0.03829113
v 0.03847847 -0.02940986 0.03539838
v 0.03967110 -0.02541322 0.03794677
v 0.03938416 -0.02421131 0.03781975
v 0.03699155 -0.02116326 0.03919379
v 0.03860568 -0.02389056 0.03539838
v 0.03832240 -0.02403636 0.03539838
v 0.03810943 -0.02502504 0.03539838
v 0.03886168 -0.02302034 0.03779191
v 0.03934482 -0.02416940 0.03696056
v 0.03895374 -0.02435711 0.03539838
v 0.03699155 -0.02337299 0.04014129
v 0.03779887 -0.02830181 0.03539838
v 0.03951085 -0.02733135 0.03695308
v 0.03886902 -0.02883579 0.03539838
v 0.03888764 -0.02880572 0.03541332
v 0.03950743 -0.02524282 0.03658088
v 0.03699155 -0.02252737 0.03940095
v 0.03917170 -0.02524282 0.03539838
v 0.03888660 -0.02879387 0.03539838
v 0.03935872 -0.02696140 0.03597910
v 0.03888109 -0.02881210 0.03539838
v 0.03923833 -0.02536948 0.03552878
v 0.03919059 -0.02550708 0.03539838
v 0.03912318 -0.02749628 0.03539838
v 0.03916016 -0.02688668 0.03539838
f 1 2 3
f 1 3 8
f 1 8 15
f 1 15 14
f 1 14 24
f 1 24 38
f 1 38 51
f 1 51 45
f 1 45 28
f 1 28 17
f 1 17 9
f 1 9 4
f 1 4 5
f 1 5 2
f 2 6 3
f 2 5 7
f 2 7 6
f 3 6 8
f 4 9 10
f 4 10 11
f 4 11 5
f 5 12 7
f 5 11 12
f 6 13 14
f 6 14 15
f 6 15 8
f 6 7 16
f 6 16 13
f 7 12 16
f 9 17 10
f 10 18 30
f 10 30 29
f 10 29 46
f 10 46 41
f 10 41 40
f 10 40 39
f 10 39 27
f 10 27 44
f 10 44 52
f 10 52 57
f 10 57 59
f 10 59 58
f 10 58 53
f 10 53 55
f 10 55 48
f 10 48 35
f 10 35 31
f 10 31 19
f 10 19 20
f 10 20 11
f 10 17 18
f 11 20 21
f 11 21 12
f 12 22 23
f 12 23 16
f 12 21 22
f 13 24 14
f 13 16 25
f 13 25 26
f 13 26 27
f 13 27 24
f 16 23 25
f 17 28 29
f 17 29 30
f 17 30 18
f 19 31 32
f 19 32 20
f 20 33 34
f 20 34 21
f 20 32 31
f 20 31 35
f 20 35 33
f 21 34 36
f 21 36 22
f 22 37 23
f 22 36 37
f 23 37 25
f 24 27 39
f 24 39 40
f 24 40 41
f 24 41 38
f 25 37 42
f 25 42 26
f 26 43 44
f 26 44 27
f 26 42 43
f 28 45 46
f 28 46 29
f 33 47 34
f 33 35 48
f 33 48 49
f 33 49 47
f 34 47 36
f 36 47 50
f 36 50 43
f 36 43 37
f 37 43 42
f 38 41 46
f 38 46 51
f 43 50 44
f 44 50 52
f 45 51 46
f 47 49 53
f 47 53 54
f 47 54 50
f 48 55 49
f 49 55 53
f 50 54 56
f 50 56 52
f 52 56 57
f 53 58 54
f 54 58 59
f 54 59 57
f 54 57 56

