# https://github.com/mikedh/trimesh
v 0.03309432 0.02628179 -0.01275211
v 0.03243653 0.02628179 -0.01016466
v 0.03309432 0.02628179 -0.01743750
v 0.03309432 0.03148329 -0.01580836
v 0.03118664 0.03024718 -0.00742958
v 0.03035938 0.02973237 -0.00385274
v 0.02877583 0.02628179 0.00397954
v 0.02227426 0.03317484 -0.01348769
v 0.03309432 0.02675546 -0.01782859
v 0.02813605 0.02628179 0.00222090
v 0.02227426 0.02929919 0.00397954
v 0.02227426 0.03111016 -0.00450284
v 0.03309432 0.03223494 -0.01652580
v 0.03297886 0.03271535 -0.01654911
v 0.03022909 0.03036729 -0.00419462
v 0.02943467 0.02951645 -0.00047274
v 0.02850254 0.02813056 0.00397954
v 0.02771766 0.02628179 0.00397954
v 0.02227426 0.03317484 -0.00829466
v 0.03309432 0.03317484 -0.02247771
v 0.03309432 0.02745448 -0.01837250
v 0.03309432 0.02723452 -0.01820156
v 0.02793586 0.02628179 0.00304713
v 0.02227426 0.03043678 0.00397954
v 0.03309432 0.03280913 -0.01709043
v 0.03309432 0.03317484 -0.01776643
v 0.03303818 0.03317484 -0.01758772
v 0.03292802 0.03317484 -0.01723806
v 0.03255835 0.03317484 -0.01612435
v 0.03198742 0.03235706 -0.01290752
v 0.03087205 0.03118709 -0.00753318
v 0.02850784 0.02906911 0.00307562
v 0.02849619 0.02815350 0.00397954
v 0.02227426 0.03281318 -0.00666811
v 0.02524752 0.03019118 0.00397954
v 0.02610550 0.03106900 -0.00036396
v 0.02966029 0.03317484 -0.01160732
v 0.03207216 0.03317484 -0.01503912
v 0.03086887 0.03209392 -0.00955860
v 0.02990073 0.03100288 -0.00461162
v 0.02808203 0.02919596 0.00397954
v 0.02825151 0.02897127 0.00397954
v 0.02558648 0.03015205 0.00397954
v 0.02790408 0.03130854 -0.00229871
v 0.02976409 0.03317484 -0.01166430
v 0.03153407 0.03317484 -0.01386324
v 0.02746662 0.02975935 0.00397954
v 0.02862436 0.02985719 0.00111755
v 0.02654509 0.03003127 0.00397954
v 0.02659169 0.03032410 0.00269229
v 0.02780875 0.03070195 0.00024211
v 0.03042717 0.03317484 -0.01219785
v 0.03096314 0.03317484 -0.01292306
v 0.03062843 0.03264315 -0.01061533
v 0.02864872 0.03094486 -0.00177294
v 0.02749839 0.02982615 0.00372831
v 0.02741259 0.02979039 0.00397954
f 1 2 7
f 1 7 18
f 1 18 23
f 1 23 10
f 1 10 3
f 1 3 9
f 1 9 22
f 1 22 21
f 1 21 20
f 1 20 26
f 1 26 25
f 1 25 13
f 1 13 4
f 1 4 5
f 1 5 6
f 1 6 2
f 2 6 7
f 3 8 9
f 3 10 11
f 3 11 12
f 3 12 8
f 4 13 5
f 5 13 14
f 5 14 6
f 6 14 15
f 6 15 16
f 6 16 17
f 6 17 7
f 7 17 33
f 7 33 42
f 7 42 41
f 7 41 47
f 7 47 57
f 7 57 49
f 7 49 43
f 7 43 35
f 7 35 24
f 7 24 11
f 7 11 18
f 8 19 37
f 8 37 45
f 8 45 52
f 8 52 53
f 8 53 46
f 8 46 38
f 8 38 29
f 8 29 28
f 8 28 27
f 8 27 26
f 8 26 20
f 8 20 21
f 8 21 22
f 8 22 9
f 8 12 11
f 8 11 24
f 8 24 34
f 8 34 19
f 10 23 11
f 11 23 18
f 13 25 14
f 14 25 26
f 14 26 27
f 14 27 28
f 14 28 29
f 14 29 30
f 14 30 31
f 14 31 15
f 15 31 32
f 15 32 16
f 16 32 33
f 16 33 17
f 19 34 35
f 19 35 36
f 19 36 37
f 24 35 34
f 29 38 39
f 29 39 40
f 29 40 41
f 29 41 30
f 30 41 31
f 31 41 42
f 31 42 32
f 32 42 33
f 35 43 44
f 35 44 36
f 36 44 37
f 37 44 45
f 38 46 39
f 39 46 47
f 39 47 40
f 40 47 48
f 40 48 41
f 41 48 47
f 43 49 50
f 43 50 44
f 44 50 49
f 44 49 51
f 44 51 52
f 44 52 45
f 46 53 54
f 46 54 55
f 46 55 56
f 46 56 47
f 47 56 57
f 49 57 51
f 51 57 55
f 51 55 53
f 51 53 52
f 53 55 54
f 55 57 56

