# https://github.com/mikedh/trimesh
v -0.01101528 -0.01340968 0.05280279
v -0.01105946 -0.01340968 0.05130336
v -0.01257224 -0.01340968 0.05443595
v -0.00477692 -0.01699415 0.05443595
v 0.00126787 -0.01961446 0.05389524
v 0.00126787 -0.01910538 0.05246881
v -0.01420284 -0.01340968 0.05130336
v 0.00126787 -0.01910979 0.05224461
v 0.00126787 -0.01911420 0.05210691
v 0.00126787 -0.01914395 0.05130336
v -0.01519803 -0.01340968 0.05443595
v 0.00126787 -0.01986789 0.05443595
v -0.02022659 -0.01744152 0.05130336
v 0.00126787 -0.02117474 0.05130336
v -0.01506127 -0.01382399 0.05443595
v 0.00126787 -0.02196260 0.05443595
v -0.02002461 -0.01773903 0.05130336
v -0.01419232 -0.01512533 0.05443595
v -0.01492451 -0.01403445 0.05443595
v -0.00459177 -0.02466445 0.05130336
v 0.00088705 -0.02186343 0.05443595
v -0.00462543 -0.02451349 0.05147419
v -0.00473273 -0.02466555 0.05130336
v -0.01917880 -0.01827786 0.05130336
v -0.01188423 -0.01714400 0.05443595
v -0.01259749 -0.01663383 0.05443595
v -0.01338228 -0.01599032 0.05443595
v -0.01142135 -0.01738091 0.05443595
v -0.00514722 -0.02454545 0.05130336
v -0.01775439 -0.01906681 0.05130336
v -0.01741565 -0.01923981 0.05130336
f 1 2 7
f 1 7 11
f 1 11 3
f 1 3 4
f 1 4 5
f 1 5 6
f 1 6 2
f 2 6 8
f 2 8 9
f 2 9 10
f 2 10 14
f 2 14 20
f 2 20 23
f 2 23 29
f 2 29 31
f 2 31 30
f 2 30 24
f 2 24 17
f 2 17 13
f 2 13 7
f 3 11 15
f 3 15 19
f 3 19 18
f 3 18 27
f 3 27 26
f 3 26 25
f 3 25 28
f 3 28 21
f 3 21 16
f 3 16 12
f 3 12 4
f 4 12 5
f 5 12 16
f 5 16 14
f 5 14 10
f 5 10 9
f 5 9 8
f 5 8 6
f 7 13 11
f 11 13 15
f 13 17 18
f 13 18 19
f 13 19 15
f 14 16 20
f 16 21 22
f 16 22 23
f 16 23 20
f 17 24 25
f 17 25 26
f 17 26 27
f 17 27 18
f 21 28 22
f 22 29 23
f 22 28 29
f 24 30 25
f 25 30 28
f 28 30 31
f 28 31 29

