# https://github.com/mikedh/trimesh
v 0.01402117 -0.02566144 0.03598227
v 0.01444079 -0.02842757 0.03426393
v 0.01400588 -0.02799322 0.03455741
v 0.01348573 -0.02683305 0.03539865
v 0.00367513 -0.02566144 0.03900224
v 0.01394468 -0.02566144 0.03673278
v 0.02378370 -0.03501572 0.03070292
v 0.02378370 -0.03526290 0.03050577
v 0.01412826 -0.02948488 0.03390772
v 0.01508113 -0.02980635 0.03355374
v 0.01368898 -0.02799322 0.03464030
v 0.00470012 -0.02656872 0.03837718
v 0.00285557 -0.02566144 0.03950071
v 0.02378370 -0.03988646 0.03419448
v 0.02378370 -0.03976072 0.03412054
v 0.02378370 -0.03535720 0.03104569
v 0.01331964 -0.02566144 0.03732198
v 0.02378370 -0.03547150 0.03047104
v 0.01587883 -0.03139374 0.03303846
v 0.01439489 -0.03156805 0.03346861
v 0.01001520 -0.03021356 0.03547259
v 0.00682659 -0.02795464 0.03722005
v 0.00859682 -0.03027357 0.03615365
v 0.00197920 -0.02566144 0.04025458
v 0.02378370 -0.04025080 0.03385395
v 0.01027964 -0.02566144 0.03885773
v 0.00294299 -0.02566144 0.04181946
v 0.00256272 -0.02566144 0.04191019
v 0.00156177 -0.02566144 0.04175225
v 0.02378370 -0.03579727 0.03046656
v 0.02328541 -0.03577441 0.03057858
v 0.01690163 -0.03425274 0.03241789
v 0.01633778 -0.03268108 0.03273826
v 0.01464404 -0.03320830 0.03323449
v 0.01275578 -0.03300827 0.03406454
v 0.01015070 -0.03042502 0.03539865
v 0.01138768 -0.03232960 0.03474000
v 0.01008950 -0.03166092 0.03539865
v 0.01006983 -0.03164949 0.03540986
v 0.00903829 -0.03100225 0.03615701
v 0.00180873 -0.02566144 0.04050326
v 0.02378370 -0.04025795 0.03379906
v 0.01185100 -0.03319544 0.03483409
v 0.01366713 -0.03434276 0.03430201
v 0.01583731 -0.03568582 0.03375985
v 0.00145687 -0.02566144 0.04120560
v 0.02378370 -0.03632592 0.03056850
v 0.02298600 -0.03658025 0.03080149
v 0.02067814 -0.03590443 0.03131565
v 0.01888823 -0.03508573 0.03181636
v 0.01558379 -0.03484712 0.03280995
v 0.01371958 -0.03424846 0.03370832
v 0.01050474 -0.03220815 0.03546138
v 0.00149621 -0.02566144 0.04103982
v 0.02378370 -0.04001077 0.03294213
v 0.01855604 -0.03729035 0.03313816
v 0.02083986 -0.03857769 0.03289508
v 0.02269752 -0.03962928 0.03311016
v 0.01551604 -0.03542864 0.03305639
v 0.01841399 -0.03718319 0.03282227
v 0.02378370 -0.03746752 0.03103449
v 0.02270626 -0.03810190 0.03158561
v 0.02127696 -0.03665740 0.03130332
v 0.01921387 -0.03597158 0.03174355
v 0.02378370 -0.03795045 0.03126188
v 0.01747641 -0.03580441 0.03224090
v 0.02293355 -0.03930352 0.03244926
v 0.02378370 -0.03987931 0.03274162
v 0.02057761 -0.03817049 0.03238765
v 0.01664375 -0.03609446 0.03288164
v 0.01989137 -0.03739465 0.03212553
v 0.02378370 -0.03878058 0.03179732
v 0.02378370 -0.03931494 0.03221178
f 1 2 3
f 1 3 4
f 1 4 5
f 1 5 13
f 1 13 24
f 1 24 41
f 1 41 54
f 1 54 46
f 1 46 29
f 1 29 28
f 1 28 27
f 1 27 26
f 1 26 17
f 1 17 6
f 1 6 7
f 1 7 8
f 1 8 2
f 2 9 3
f 2 8 10
f 2 10 9
f 3 9 11
f 3 11 4
f 4 11 5
f 5 12 13
f 5 11 9
f 5 9 12
f 6 14 15
f 6 15 16
f 6 16 7
f 6 17 14
f 7 16 15
f 7 15 14
f 7 14 25
f 7 25 42
f 7 42 55
f 7 55 68
f 7 68 73
f 7 73 72
f 7 72 65
f 7 65 61
f 7 61 47
f 7 47 30
f 7 30 18
f 7 18 8
f 8 18 19
f 8 19 10
f 9 10 20
f 9 20 21
f 9 21 22
f 9 22 12
f 10 19 20
f 12 22 23
f 12 23 13
f 13 23 24
f 14 17 26
f 14 26 27
f 14 27 28
f 14 28 29
f 14 29 25
f 18 30 31
f 18 31 32
f 18 32 33
f 18 33 19
f 19 33 20
f 20 33 34
f 20 34 35
f 20 35 21
f 21 35 36
f 21 36 23
f 21 23 22
f 23 36 37
f 23 37 38
f 23 38 39
f 23 39 24
f 24 39 40
f 24 40 41
f 25 29 43
f 25 43 44
f 25 44 45
f 25 45 42
f 29 46 43
f 30 47 48
f 30 48 31
f 31 48 49
f 31 49 50
f 31 50 32
f 32 50 51
f 32 51 34
f 32 34 33
f 34 51 35
f 35 52 37
f 35 37 36
f 35 51 52
f 37 52 38
f 38 52 39
f 39 53 40
f 39 52 43
f 39 43 53
f 40 54 41
f 40 53 54
f 42 45 56
f 42 56 57
f 42 57 58
f 42 58 55
f 43 52 59
f 43 59 44
f 43 46 53
f 44 59 45
f 45 59 60
f 45 60 56
f 46 54 53
f 47 61 48
f 48 62 63
f 48 63 64
f 48 64 49
f 48 61 65
f 48 65 62
f 49 64 66
f 49 66 50
f 50 66 51
f 51 59 52
f 51 66 59
f 55 58 67
f 55 67 68
f 56 60 57
f 57 69 58
f 57 60 69
f 58 69 67
f 59 66 70
f 59 70 60
f 60 70 69
f 62 67 69
f 62 69 71
f 62 71 63
f 62 65 72
f 62 72 67
f 63 71 66
f 63 66 64
f 66 71 70
f 67 72 73
f 67 73 68
f 69 70 71

