# https://github.com/mikedh/trimesh
v -0.01289869 0.02153074 0.03539837
v -0.01592844 0.02074569 0.03539837
v -0.01289869 0.02035576 0.03539837
v -0.01289869 0.02435359 0.02417389
v -0.01716098 0.02472589 0.01957954
v -0.01726704 0.02366810 0.02357115
v -0.02021367 0.02419699 0.01905368
v -0.01958593 0.02316824 0.02347275
v -0.01746338 0.02024272 0.03539837
v -0.01289869 0.02130674 0.03110539
v -0.01344330 0.02014006 0.03539837
v -0.02641650 0.01871930 0.00398213
v -0.01289869 0.02588324 0.01809115
v -0.01289869 0.02705822 0.01333996
v -0.01289869 0.02861068 0.00692202
v -0.01289869 0.02931276 0.00398521
v -0.02077261 0.02491982 0.01564021
v -0.02268161 0.02537197 0.01188539
v -0.02049314 0.02394084 0.01969333
v -0.02049314 0.02346795 0.02141851
v -0.01859417 0.01962464 0.03539837
v -0.02087437 0.02359136 0.02056053
v -0.02089300 0.02244957 0.02406933
v -0.02257986 0.02328543 0.01924127
v -0.01289869 0.02194037 0.02853760
v -0.01727420 0.01871930 0.03539837
v -0.02754011 0.01871930 0.00398213
v -0.02049457 0.02638206 0.00398213
v -0.01289869 0.02816475 0.00398521
v -0.02049457 0.02760578 0.00398213
v -0.02073391 0.02756118 0.00398213
v -0.02387259 0.02691406 0.00398213
v -0.02323626 0.02607924 0.00836122
v -0.02439570 0.02535849 0.00968663
v -0.02233048 0.02428411 0.01632598
v -0.02548063 0.02649717 0.00398213
v -0.02190769 0.02221830 0.02314062
v -0.01863860 0.01958316 0.03539837
v -0.02334661 0.02395018 0.01600924
v -0.02420509 0.02382366 0.01470228
v -0.02369631 0.02338913 0.01682724
v -0.02304278 0.02277520 0.01959184
v -0.01917604 0.01871930 0.03539837
v -0.02484143 0.01871930 0.01445934
v -0.02572140 0.02347002 0.01065531
v -0.02740970 0.02222660 0.00398213
v -0.02616856 0.02623480 0.00398213
v -0.02601521 0.02601598 0.00497234
v -0.01978371 0.01965264 0.03276907
v -0.02640073 0.02611242 0.00398213
v -0.02698834 0.02567272 0.00398213
v -0.02678339 0.02540931 0.00505845
v -0.02427388 0.02311017 0.01576322
v -0.02235485 0.02177652 0.02290998
v -0.01931219 0.01871930 0.03509392
v -0.02351429 0.01871930 0.01959184
v -0.02310297 0.01871930 0.02116327
v -0.02221440 0.01871930 0.02453676
v -0.02236918 0.01973146 0.02381409
v -0.02014344 0.01871930 0.03220324
v -0.01955297 0.01871930 0.03430667
v -0.02487869 0.02309979 0.01373666
v -0.02612699 0.02436603 0.00860723
v -0.02730077 0.02461389 0.00398213
v -0.02715889 0.02523508 0.00398213
v -0.01947415 0.01871930 0.03456806
v -0.02077978 0.01871930 0.02985994
f 1 2 9
f 1 9 21
f 1 21 38
f 1 38 43
f 1 43 26
f 1 26 11
f 1 11 3
f 1 3 10
f 1 10 25
f 1 25 29
f 1 29 16
f 1 16 15
f 1 15 14
f 1 14 13
f 1 13 4
f 1 4 5
f 1 5 6
f 1 6 7
f 1 7 8
f 1 8 2
f 2 8 9
f 3 11 12
f 3 12 10
f 4 13 5
f 5 13 14
f 5 14 15
f 5 15 16
f 5 16 17
f 5 17 7
f 5 7 6
f 7 17 18
f 7 18 19
f 7 19 8
f 8 19 20
f 8 20 9
f 9 20 22
f 9 22 23
f 9 23 24
f 9 24 21
f 10 12 25
f 11 26 12
f 12 27 46
f 12 46 64
f 12 64 65
f 12 65 51
f 12 51 50
f 12 50 47
f 12 47 36
f 12 36 32
f 12 32 31
f 12 31 30
f 12 30 28
f 12 28 29
f 12 29 25
f 12 26 43
f 12 43 55
f 12 55 66
f 12 66 61
f 12 61 60
f 12 60 67
f 12 67 58
f 12 58 57
f 12 57 56
f 12 56 44
f 12 44 27
f 16 29 28
f 16 28 30
f 16 30 31
f 16 31 32
f 16 32 33
f 16 33 17
f 17 33 18
f 18 34 35
f 18 35 22
f 18 22 19
f 18 33 36
f 18 36 34
f 19 22 20
f 21 37 38
f 21 24 37
f 22 35 24
f 22 24 23
f 24 35 39
f 24 39 40
f 24 40 41
f 24 41 42
f 24 42 37
f 27 44 45
f 27 45 46
f 32 36 33
f 34 39 35
f 34 36 47
f 34 47 48
f 34 48 39
f 37 42 38
f 38 49 43
f 38 42 49
f 39 48 50
f 39 50 40
f 40 50 51
f 40 51 52
f 40 52 41
f 41 53 42
f 41 52 53
f 42 54 49
f 42 53 54
f 43 49 55
f 44 56 45
f 45 56 57
f 45 57 58
f 45 58 59
f 45 59 60
f 45 60 61
f 45 61 62
f 45 62 53
f 45 53 63
f 45 63 64
f 45 64 46
f 47 50 48
f 49 54 55
f 51 65 52
f 52 65 63
f 52 63 53
f 53 62 61
f 53 61 66
f 53 66 55
f 53 55 54
f 58 67 59
f 59 67 60
f 63 65 64

