# https://github.com/mikedh/trimesh
v -0.02143105 -0.01908804 0.03539596
v -0.02257221 -0.01377270 0.03907026
v -0.02257221 -0.01364126 0.03928472
v -0.02257221 -0.01354188 0.04018899
v -0.02257221 -0.01355951 0.04049638
v -0.02257221 -0.01403077 0.04048565
v -0.02257221 -0.01420068 0.04036413
v -0.02257221 -0.01485789 0.03977438
v -0.02257221 -0.01631496 0.03838401
v -0.02257221 -0.01931245 0.03539596
v -0.02501947 -0.02503974 0.02594929
v -0.02501947 -0.02562481 0.02473406
v -0.02501947 -0.02563603 0.02445170
v -0.02501947 -0.02535552 0.02352240
v -0.02501947 -0.02523209 0.02344734
v -0.02997458 -0.02847323 0.00736334
v -0.03102485 -0.02913364 0.00398213
v -0.03108544 -0.02889961 0.00398213
v -0.03120494 -0.02873130 0.00398213
v -0.03746448 -0.02150366 0.00398213
v -0.03807040 -0.02081119 0.00398213
v -0.02449433 -0.01390414 0.03687211
v -0.02350634 -0.01365248 0.03869139
v -0.03830267 -0.02071341 0.00398213
v -0.02302160 -0.01365729 0.03987089
v -0.02362584 -0.01411573 0.03918464
v -0.02408196 -0.01483064 0.03814454
v -0.02294249 -0.01549586 0.03879505
v -0.02345416 -0.01908804 0.03461321
v -0.02501947 -0.02334383 0.02806166
v -0.02545876 -0.02512149 0.02519156
v -0.02567588 -0.02603196 0.02319000
v -0.02726475 -0.02728225 0.01856853
v -0.02796493 -0.02790579 0.01606657
v -0.02735396 -0.02746178 0.01724607
v -0.02554123 -0.02599669 0.02243941
v -0.02873580 -0.02816707 0.01170245
v -0.02943093 -0.02839789 0.00917190
v -0.03065456 -0.02906792 0.00519022
v -0.03104336 -0.02941095 0.00398213
v -0.02549242 -0.01424076 0.03544958
v -0.02488145 -0.01399871 0.03684352
v -0.02907747 -0.01578919 0.02747191
v -0.03849287 -0.02072303 0.00398213
v -0.02477541 -0.01414618 0.03733676
v -0.02585430 -0.01483064 0.03577840
v -0.02484947 -0.01455333 0.03732604
v -0.02575836 -0.01553433 0.03543528
v -0.02577014 -0.01555837 0.03539596
v -0.02501947 -0.02213522 0.02937340
v -0.02796493 -0.01573149 0.03207194
v -0.02930470 -0.01655059 0.02916609
v -0.02682209 -0.02281166 0.02589926
v -0.02875936 -0.02329895 0.02224283
v -0.03130088 -0.02285013 0.01864716
v -0.02684229 -0.02627881 0.02105619
v -0.02818542 -0.02761886 0.01641685
v -0.02882669 -0.02832896 0.01369329
v -0.02937539 -0.02873451 0.01135218
v -0.03133623 -0.02986618 0.00398213
v -0.02835542 -0.02810776 0.01388987
v -0.03003517 -0.02898617 0.00756350
v -0.03129583 -0.02981489 0.00398213
v -0.02879471 -0.01558722 0.02910533
v -0.02759632 -0.01514481 0.03188250
v -0.02577687 -0.01448761 0.03576053
v -0.03862583 -0.02083844 0.00398213
v -0.03830267 -0.02063647 0.00474701
v -0.02598558 -0.01458058 0.03539596
v -0.02693317 -0.01543174 0.03388407
v -0.02578865 -0.01553272 0.03539596
v -0.02670596 -0.01489956 0.03413069
v -0.02699713 -0.01502940 0.03361958
v -0.02885867 -0.01582927 0.02998102
v -0.03056199 -0.01692247 0.02639607
v -0.03018160 -0.01739694 0.02674992
v -0.03059733 -0.02146359 0.02158160
v -0.02925925 -0.01908804 0.02636033
v -0.02842779 -0.02612172 0.01856853
v -0.03157859 -0.02205507 0.01911896
v -0.03317756 -0.02336627 0.01417581
v -0.03147256 -0.02480892 0.01514442
v -0.03039199 -0.02644712 0.01429733
v -0.02988369 -0.02825683 0.01179180
v -0.03176542 -0.02991747 0.00398213
v -0.03066298 -0.02940614 0.00724897
v -0.03009408 -0.02911761 0.00900391
v -0.03137325 -0.02987900 0.00398213
v -0.03132276 -0.02985336 0.00398213
v -0.02951340 -0.02873451 0.00965442
v -0.03002339 -0.01635663 0.02699297
v -0.03415377 -0.01899346 0.01708523
v -0.03345023 -0.01846289 0.01877941
v -0.03119148 -0.01704429 0.02436949
v -0.03860059 -0.02134337 0.00398213
v -0.03196067 -0.01772073 0.02284687
v -0.03311865 -0.01874020 0.01964080
v -0.03251946 -0.01908643 0.02050218
v -0.03202126 -0.01937496 0.02120988
v -0.03308331 -0.01999370 0.01841484
v -0.03352092 -0.02150206 0.01574847
v -0.03323142 -0.02500608 0.01118061
v -0.03576789 -0.02247825 0.00944712
v -0.03777585 -0.02315949 0.00398213
v -0.03761596 -0.02342718 0.00398213
v -0.03639233 -0.02399623 0.00598369
v -0.03476980 -0.02396898 0.00971161
v -0.03190344 -0.02780641 0.00838200
v -0.03326340 -0.02849887 0.00398213
v -0.03203472 -0.02966902 0.00398213
v -0.03423288 -0.01908643 0.01682788
v -0.03851642 -0.02156137 0.00398213
v -0.03495999 -0.01995843 0.01444388
v -0.03310855 -0.01908643 0.01930482
v -0.03535552 -0.02584762 0.00486496
v -0.03711102 -0.02422064 0.00398213
v -0.03599006 -0.02556550 0.00398213
v -0.03438941 -0.02730308 0.00398213
v -0.03553562 -0.02608165 0.00398213
f 1 2 3
f 1 3 4
f 1 4 5
f 1 5 6
f 1 6 7
f 1 7 8
f 1 8 9
f 1 9 10
f 1 10 11
f 1 11 12
f 1 12 13
f 1 13 14
f 1 14 15
f 1 15 16
f 1 16 17
f 1 17 18
f 1 18 2
f 2 18 19
f 2 19 20
f 2 20 21
f 2 21 3
f 3 22 23
f 3 23 4
f 3 21 24
f 3 24 22
f 4 23 5
f 5 23 25
f 5 25 26
f 5 26 6
f 6 26 27
f 6 27 7
f 7 27 8
f 8 27 28
f 8 28 9
f 9 28 10
f 10 28 29
f 10 29 30
f 10 30 11
f 11 30 31
f 11 31 32
f 11 32 12
f 12 32 33
f 12 33 34
f 12 34 35
f 12 35 13
f 13 35 36
f 13 36 14
f 14 36 37
f 14 37 38
f 14 38 15
f 15 38 16
f 16 38 39
f 16 39 17
f 17 40 63
f 17 63 89
f 17 89 60
f 17 60 88
f 17 88 85
f 17 85 110
f 17 110 109
f 17 109 118
f 17 118 119
f 17 119 117
f 17 117 116
f 17 116 105
f 17 105 104
f 17 104 112
f 17 112 95
f 17 95 67
f 17 67 44
f 17 44 24
f 17 24 21
f 17 21 20
f 17 20 19
f 17 19 18
f 17 39 40
f 22 41 42
f 22 42 23
f 22 24 43
f 22 43 41
f 23 42 25
f 24 44 43
f 25 42 45
f 25 45 26
f 26 45 46
f 26 46 47
f 26 47 27
f 27 47 48
f 27 48 29
f 27 29 28
f 29 48 49
f 29 49 50
f 29 50 30
f 30 50 51
f 30 51 52
f 30 52 53
f 30 53 31
f 31 53 54
f 31 54 55
f 31 55 56
f 31 56 32
f 32 56 33
f 33 57 34
f 33 56 57
f 34 57 58
f 34 58 59
f 34 59 60
f 34 60 61
f 34 61 35
f 35 61 37
f 35 37 36
f 37 61 62
f 37 62 40
f 37 40 38
f 38 40 39
f 40 62 63
f 41 43 64
f 41 64 42
f 42 64 65
f 42 65 66
f 42 66 45
f 43 44 64
f 44 67 68
f 44 68 64
f 45 66 46
f 46 66 69
f 46 69 51
f 46 51 70
f 46 70 71
f 46 71 47
f 47 71 48
f 48 71 49
f 49 71 70
f 49 70 50
f 50 70 51
f 51 69 72
f 51 72 73
f 51 73 74
f 51 74 75
f 51 75 52
f 52 75 76
f 52 76 77
f 52 77 78
f 52 78 53
f 53 78 77
f 53 77 54
f 54 77 55
f 55 79 56
f 55 77 80
f 55 80 81
f 55 81 82
f 55 82 79
f 56 79 57
f 57 79 82
f 57 82 83
f 57 83 84
f 57 84 58
f 58 84 85
f 58 85 86
f 58 86 59
f 59 86 87
f 59 87 88
f 59 88 60
f 60 89 61
f 61 89 90
f 61 90 62
f 62 90 89
f 62 89 63
f 64 91 74
f 64 74 65
f 64 68 91
f 65 73 72
f 65 72 66
f 65 74 73
f 66 72 69
f 67 92 93
f 67 93 94
f 67 94 68
f 67 95 92
f 68 94 91
f 74 91 75
f 75 91 94
f 75 94 96
f 75 96 97
f 75 97 76
f 76 98 99
f 76 99 77
f 76 97 98
f 77 99 80
f 80 100 101
f 80 101 81
f 80 99 100
f 81 102 82
f 81 101 103
f 81 103 104
f 81 104 105
f 81 105 106
f 81 106 107
f 81 107 102
f 82 102 83
f 83 102 84
f 84 102 108
f 84 108 109
f 84 109 110
f 84 110 85
f 85 88 86
f 86 88 87
f 92 111 97
f 92 97 96
f 92 96 93
f 92 95 111
f 93 96 94
f 95 112 113
f 95 113 111
f 97 111 113
f 97 113 114
f 97 114 98
f 98 114 100
f 98 100 99
f 100 114 113
f 100 113 101
f 101 113 103
f 102 107 115
f 102 115 108
f 103 113 104
f 104 113 112
f 105 116 106
f 106 116 107
f 107 116 117
f 107 117 115
f 108 115 118
f 108 118 109
f 115 117 119
f 115 119 118

