# https://github.com/mikedh/trimesh
v 0.04544635 -0.00312855 -0.03938062
v 0.04881741 0.00396723 -0.03949224
v 0.04407091 -0.00312855 -0.03938062
v 0.04078582 -0.01623315 -0.03938062
v 0.04715952 0.00396723 -0.03949224
v 0.03923640 -0.02038545 -0.03938062
v 0.03878815 -0.02156862 -0.03938062
v 0.03782207 -0.02411451 -0.03938062
v 0.03859575 -0.01933375 -0.04382658
v 0.04593144 0.00396723 -0.04942391
v 0.03145042 -0.02763515 -0.03938062
v 0.04477910 0.00396723 -0.04582313
v 0.03719984 -0.00410330 -0.05300238
v 0.03568932 -0.00598867 -0.05409952
v 0.03713435 -0.02581711 -0.03938062
v 0.03628288 -0.02498986 -0.04408811
v 0.03791212 -0.02225479 -0.04195762
v 0.04559577 0.00396723 -0.05055295
v 0.03470686 -0.02501551 -0.04892318
v 0.02790947 -0.02141792 -0.06109698
v 0.03145042 -0.02878946 -0.03938062
v 0.03145042 -0.00312855 -0.06991556
v 0.03704838 0.00396723 -0.06703238
v 0.03686622 -0.02638465 -0.03938062
v 0.03668405 -0.02592934 -0.04096254
v 0.03584896 -0.02585880 -0.04418698
v 0.03531475 -0.02551250 -0.04640997
v 0.04457647 0.00396723 -0.05353500
v 0.03387791 -0.02473655 -0.05133434
v 0.03330071 -0.02389006 -0.05418563
v 0.03269486 -0.02278706 -0.05731758
v 0.02790947 -0.02141792 -0.06670387
v 0.02790947 -0.01875980 -0.06787118
v 0.03145042 -0.02573374 -0.05032650
v 0.03346036 -0.02534256 -0.04999481
v 0.03442031 -0.02612172 -0.04607509
v 0.03604955 -0.02708364 -0.03938062
v 0.03690306 0.00396723 -0.06746613
v 0.03145042 -0.00312855 -0.07195038
v 0.03658990 -0.02677262 -0.03938062
v 0.03586534 -0.02641992 -0.04244240
v 0.04297588 0.00396723 -0.05795227
v 0.03031036 -0.02028605 -0.06670068
v 0.03279516 -0.02432934 -0.05416649
v 0.03236533 -0.02325198 -0.05740051
v 0.03173492 -0.02227723 -0.06048462
v 0.02790947 -0.02100108 -0.06787118
v 0.02860538 -0.02141792 -0.06617125
v 0.03145042 -0.02313655 -0.05908130
v 0.03145042 -0.02349246 -0.05795227
v 0.03145042 -0.02389327 -0.05667652
v 0.03145042 -0.02448966 -0.05473420
v 0.03145042 -0.00387885 -0.07196313
v 0.03607820 -0.02707082 -0.03938062
v 0.03949429 0.00396723 -0.06746613
v 0.03193755 -0.00312855 -0.07194719
v 0.03965804 0.00396723 -0.06703238
v 0.02993784 -0.02007122 -0.06787118
v 0.03181270 -0.02347002 -0.05777366
v 0.03037381 -0.02141792 -0.06467225
v 0.03013228 -0.02095619 -0.06605962
v 0.03145042 -0.00858586 -0.07178771
v 0.02897585 -0.02070930 -0.06787118
v 0.03145042 -0.00713656 -0.07192805
v 0.02948960 -0.02054257 -0.06787118
v 0.03295685 -0.00382755 -0.07189296
v 0.03008316 -0.01969928 -0.06787118
v 0.03407849 -0.00312855 -0.07137310
v 0.03373259 -0.00312855 -0.07172393
v 0.03343375 -0.00312855 -0.07185788
v 0.03306533 -0.00312855 -0.07189296
v 0.03145042 -0.00923676 -0.07151662
v 0.03145042 -0.01033336 -0.07095848
f 1 2 5
f 1 5 3
f 1 3 11
f 1 11 21
f 1 21 37
f 1 37 54
f 1 54 40
f 1 40 24
f 1 24 15
f 1 15 8
f 1 8 7
f 1 7 6
f 1 6 4
f 1 4 2
f 2 4 6
f 2 6 7
f 2 7 8
f 2 8 9
f 2 9 10
f 2 10 18
f 2 18 28
f 2 28 42
f 2 42 57
f 2 57 55
f 2 55 38
f 2 38 23
f 2 23 12
f 2 12 5
f 3 5 11
f 5 12 13
f 5 13 14
f 5 14 11
f 8 15 16
f 8 16 17
f 8 17 9
f 9 18 10
f 9 17 16
f 9 16 19
f 9 19 18
f 11 20 21
f 11 14 22
f 11 22 20
f 12 23 22
f 12 22 13
f 13 22 14
f 15 24 25
f 15 25 16
f 16 25 26
f 16 26 27
f 16 27 19
f 18 19 28
f 19 27 29
f 19 29 30
f 19 30 31
f 19 31 28
f 20 32 21
f 20 22 33
f 20 33 47
f 20 47 32
f 21 34 35
f 21 35 36
f 21 36 37
f 21 32 34
f 22 23 38
f 22 38 39
f 22 39 33
f 24 40 26
f 24 26 25
f 26 40 41
f 26 41 27
f 27 41 36
f 27 36 29
f 28 31 43
f 28 43 42
f 29 36 35
f 29 35 44
f 29 44 45
f 29 45 30
f 30 45 46
f 30 46 31
f 31 46 43
f 32 47 48
f 32 48 49
f 32 49 50
f 32 50 51
f 32 51 52
f 32 52 34
f 33 39 53
f 33 53 47
f 34 52 44
f 34 44 35
f 36 41 37
f 37 41 54
f 38 55 39
f 39 56 53
f 39 55 56
f 40 54 41
f 42 43 57
f 43 46 58
f 43 58 55
f 43 55 57
f 44 52 59
f 44 59 45
f 45 59 60
f 45 60 61
f 45 61 46
f 46 61 58
f 47 62 63
f 47 63 48
f 47 53 64
f 47 64 62
f 48 63 49
f 49 63 65
f 49 65 60
f 49 60 59
f 49 59 50
f 50 59 51
f 51 59 52
f 53 56 66
f 53 66 64
f 55 58 67
f 55 67 68
f 55 68 69
f 55 69 70
f 55 70 71
f 55 71 56
f 56 71 66
f 58 62 72
f 58 72 73
f 58 73 68
f 58 68 67
f 58 61 65
f 58 65 62
f 60 65 61
f 62 64 70
f 62 70 69
f 62 69 68
f 62 68 72
f 62 65 63
f 64 66 70
f 66 71 70
f 68 73 72

