# https://github.com/mikedh/trimesh
v -0.01101620 -0.01340798 0.05280368
v -0.01555233 -0.01718983 0.06081259
v -0.01106325 -0.01340798 0.05130306
v -0.01744575 -0.00124456 0.05130306
v -0.01743567 -0.00124456 0.05174566
v -0.01760031 -0.00124456 0.05321677
v -0.01968693 -0.00761580 0.07071836
v -0.01973397 -0.00879109 0.07187333
v -0.01742391 -0.01718983 0.07210517
v -0.01777672 -0.01718983 0.06081259
v -0.01420493 -0.01340798 0.05130306
v -0.01944500 -0.00124456 0.05130306
v -0.02034215 -0.00686973 0.07142863
v -0.02545957 -0.00124456 0.07190916
v -0.02030015 -0.00742850 0.07207145
v -0.02025983 -0.00833065 0.07243817
v -0.01772632 -0.01718983 0.07231171
v -0.01798000 -0.01718983 0.06117300
v -0.01437126 -0.01325346 0.05130306
v -0.02375937 -0.00124456 0.05913493
v -0.01544817 -0.01083107 0.05130306
v -0.02255813 -0.00484535 0.07236440
v -0.02139722 -0.00627350 0.07240234
v -0.02585942 -0.00124456 0.07259414
v -0.02089992 -0.00741289 0.07263418
v -0.02019430 -0.01016148 0.07264050
v -0.02143418 -0.00775783 0.07283440
v -0.02087136 -0.00961988 0.07276063
v -0.01820849 -0.01718983 0.07238337
v -0.01834793 -0.01718983 0.06200761
v -0.02518068 -0.00124456 0.06195281
v -0.02472539 -0.00124456 0.06098542
v -0.01789432 -0.01694322 0.06081259
v -0.02307726 -0.00492652 0.07272059
v -0.02631808 -0.00124456 0.07261310
v -0.02493372 -0.00287249 0.07268476
v -0.02324863 -0.00592856 0.07282597
v -0.02014390 -0.01377321 0.07258570
v -0.01905187 -0.01718983 0.07238759
v -0.01896787 -0.01718983 0.06369369
v -0.02686241 -0.00124456 0.06621440
v -0.02547973 -0.00124456 0.06266518
v -0.02659024 -0.00124456 0.07259835
v -0.02545453 -0.00335946 0.07265736
v -0.01973733 -0.01718983 0.07219790
v -0.01924508 -0.01718983 0.06456625
v -0.02761675 -0.00124456 0.06843582
v -0.02710602 -0.00124456 0.07235597
v -0.02712618 -0.00157545 0.07227167
v -0.01989526 -0.01710398 0.07216418
v -0.01983141 -0.01718983 0.07216418
v -0.01991206 -0.01718983 0.06699421
v -0.02815941 -0.00124456 0.07042119
v -0.02733955 -0.00124456 0.07221055
v -0.02774108 -0.00124456 0.07180589
v -0.02045639 -0.01718983 0.07168154
v -0.01996078 -0.01718983 0.07208830
v -0.01986501 -0.01718983 0.07215153
v -0.02087136 -0.01718983 0.07055818
v -0.02817957 -0.00124456 0.07058347
v -0.02784188 -0.00124456 0.07168997
v -0.02074032 -0.01718983 0.07124948
v -0.02081928 -0.01718983 0.07096284
v -0.02815941 -0.00124456 0.07103661
v -0.02790236 -0.00124456 0.07158459
v -0.02076888 -0.01718983 0.07117149
f 1 2 3
f 1 3 4
f 1 4 5
f 1 5 6
f 1 6 7
f 1 7 8
f 1 8 9
f 1 9 2
f 2 10 11
f 2 11 3
f 2 9 17
f 2 17 29
f 2 29 39
f 2 39 45
f 2 45 51
f 2 51 58
f 2 58 57
f 2 57 56
f 2 56 62
f 2 62 66
f 2 66 63
f 2 63 59
f 2 59 52
f 2 52 46
f 2 46 40
f 2 40 30
f 2 30 18
f 2 18 10
f 3 11 19
f 3 19 21
f 3 21 12
f 3 12 4
f 4 12 20
f 4 20 32
f 4 32 31
f 4 31 42
f 4 42 41
f 4 41 47
f 4 47 53
f 4 53 60
f 4 60 64
f 4 64 65
f 4 65 61
f 4 61 55
f 4 55 54
f 4 54 48
f 4 48 43
f 4 43 35
f 4 35 24
f 4 24 14
f 4 14 6
f 4 6 5
f 6 13 7
f 6 14 13
f 7 13 15
f 7 15 8
f 8 15 16
f 8 16 9
f 9 16 17
f 10 18 19
f 10 19 11
f 12 21 20
f 13 14 22
f 13 22 23
f 13 23 15
f 14 24 22
f 15 23 25
f 15 25 16
f 16 25 26
f 16 26 17
f 17 26 27
f 17 27 28
f 17 28 29
f 18 30 31
f 18 31 32
f 18 32 20
f 18 20 33
f 18 33 19
f 19 33 21
f 20 21 33
f 22 24 23
f 23 24 34
f 23 34 25
f 24 35 36
f 24 36 34
f 25 34 27
f 25 27 26
f 27 34 37
f 27 37 38
f 27 38 28
f 28 38 29
f 29 38 39
f 30 40 41
f 30 41 42
f 30 42 31
f 34 36 37
f 35 43 37
f 35 37 36
f 37 43 44
f 37 44 38
f 38 44 39
f 39 44 45
f 40 46 47
f 40 47 41
f 43 48 44
f 44 48 49
f 44 49 50
f 44 50 45
f 45 50 51
f 46 52 47
f 47 52 53
f 48 54 49
f 49 54 55
f 49 55 56
f 49 56 57
f 49 57 50
f 50 57 58
f 50 58 51
f 52 59 53
f 53 59 60
f 55 61 56
f 56 61 62
f 59 63 64
f 59 64 60
f 61 65 62
f 62 65 64
f 62 64 66
f 63 66 64

