# https://github.com/mikedh/trimesh
v 0.03254445 -0.00743103 0.00398213
v 0.03132936 -0.01674322 0.00398213
v 0.03147420 -0.00743103 0.00398213
v 0.02580511 -0.00743012 0.02872105
v 0.02409714 -0.00743012 0.03539097
v 0.03154663 -0.00743103 0.00772006
v 0.02062889 -0.00843837 0.05130151
v 0.02379739 -0.01357899 0.04590535
v 0.02379739 -0.01393179 0.04620180
v 0.02379739 -0.01398284 0.04623885
v 0.02379739 -0.01447238 0.04609063
v 0.03011427 -0.01674322 0.00398213
v 0.02379739 -0.01465379 0.04572471
v 0.02379739 -0.01471578 0.04547459
v 0.03030940 -0.01674322 0.00797482
v 0.02318984 -0.00743012 0.03471934
v 0.02370485 -0.00743012 0.03282490
v 0.02377325 -0.00743012 0.03258404
v 0.02487569 -0.00743012 0.02872105
v 0.03145811 -0.00747479 0.00398213
v 0.01211519 -0.01527369 0.04581272
v 0.02303896 -0.00743012 0.03539097
v 0.01907583 -0.00843837 0.05130151
v 0.02017022 -0.00945027 0.05130151
v 0.01993685 -0.00983679 0.05130151
v 0.01845822 -0.01176852 0.05130151
v 0.01717272 -0.01331006 0.05130151
v 0.01640020 -0.01405394 0.05130151
v 0.01606223 -0.01437028 0.05130151
v 0.01486726 -0.01516703 0.05130151
v 0.01469425 -0.01527369 0.05130151
v 0.03055685 -0.01239389 0.00398213
v 0.02145169 -0.01674322 0.02872105
v 0.02314961 -0.01674322 0.02872105
v 0.02411726 -0.01674322 0.02733611
v 0.02480729 -0.01674322 0.02614572
v 0.02484752 -0.01674322 0.02604845
v 0.02490988 -0.01674322 0.02589096
v 0.02564618 -0.01674322 0.02400578
v 0.02673051 -0.01674322 0.02094411
v 0.02715700 -0.01674322 0.01951285
v 0.02773840 -0.01674322 0.01751188
v 0.02870403 -0.01674322 0.01398701
v 0.02962139 -0.01674322 0.01056404
v 0.01940776 -0.00843837 0.04634539
v 0.03109801 -0.00873100 0.00398213
v 0.01199248 -0.01527369 0.04646118
v 0.03090488 -0.00966814 0.00398213
v 0.03077814 -0.01038377 0.00398213
v 0.01918647 -0.00843837 0.04818887
v 0.01906778 -0.00843837 0.05067157
v 0.01199248 -0.01507040 0.05130151
v 0.01199248 -0.01527369 0.05130151
v 0.01199248 -0.01521626 0.04702627
v 0.01199248 -0.01515336 0.04768863
f 1 2 12
f 1 12 32
f 1 32 49
f 1 49 48
f 1 48 46
f 1 46 20
f 1 20 3
f 1 3 19
f 1 19 4
f 1 4 5
f 1 5 6
f 1 6 7
f 1 7 8
f 1 8 9
f 1 9 10
f 1 10 11
f 1 11 2
f 2 11 13
f 2 13 14
f 2 14 15
f 2 15 44
f 2 44 43
f 2 43 42
f 2 42 41
f 2 41 40
f 2 40 39
f 2 39 38
f 2 38 37
f 2 37 36
f 2 36 35
f 2 35 34
f 2 34 33
f 2 33 12
f 3 16 17
f 3 17 18
f 3 18 19
f 3 20 21
f 3 21 16
f 4 19 18
f 4 18 17
f 4 17 16
f 4 16 22
f 4 22 5
f 5 22 23
f 5 23 7
f 5 7 6
f 7 23 52
f 7 52 53
f 7 53 31
f 7 31 30
f 7 30 29
f 7 29 28
f 7 28 27
f 7 27 26
f 7 26 25
f 7 25 24
f 7 24 11
f 7 11 10
f 7 10 9
f 7 9 8
f 11 24 25
f 11 25 26
f 11 26 27
f 11 27 28
f 11 28 29
f 11 29 30
f 11 30 31
f 11 31 13
f 12 21 32
f 12 33 21
f 13 31 14
f 14 31 34
f 14 34 35
f 14 35 36
f 14 36 37
f 14 37 38
f 14 38 39
f 14 39 40
f 14 40 41
f 14 41 42
f 14 42 43
f 14 43 44
f 14 44 15
f 16 21 45
f 16 45 22
f 20 46 21
f 21 47 45
f 21 46 48
f 21 48 49
f 21 49 32
f 21 33 47
f 22 45 50
f 22 50 51
f 22 51 23
f 23 51 52
f 31 53 33
f 31 33 34
f 33 53 47
f 45 47 50
f 47 53 52
f 47 52 55
f 47 55 54
f 47 54 50
f 50 54 55
f 50 55 51
f 51 55 52

