# https://github.com/mikedh/trimesh
v -0.03878855 -0.01655895 0.04247076
v -0.03877832 -0.01649254 0.04247076
v -0.03863896 -0.01689344 0.04107209
v -0.03877202 -0.01685294 0.04247076
v -0.03855708 -0.01626172 0.04247076
v -0.03859802 -0.01645610 0.04127209
v -0.03791463 -0.01670473 0.03964867
v -0.03786739 -0.01755917 0.03928371
v -0.03830199 -0.01804835 0.04050780
v -0.03866100 -0.01776246 0.04183706
v -0.03867754 -0.01766851 0.04247076
v -0.03839726 -0.01628845 0.04247076
v -0.03600223 -0.01721821 0.03687951
v -0.03699347 -0.01698172 0.03819432
v -0.03718164 -0.01714613 0.03805205
v -0.03690450 -0.01831075 0.03809604
v -0.03736587 -0.01917572 0.03936619
v -0.03745720 -0.02034764 0.04076280
v -0.03809335 -0.01941383 0.04159925
v -0.03821302 -0.01932960 0.04247076
v -0.03837363 -0.01884042 0.04247076
v -0.03814138 -0.01658973 0.04247076
v -0.03290414 -0.01879102 0.03564372
v -0.03354895 -0.01838850 0.03555918
v -0.03468112 -0.01779971 0.03634340
v -0.03465277 -0.01791229 0.03589115
v -0.03564794 -0.01854805 0.03679565
v -0.03528814 -0.02120775 0.03767265
v -0.03624709 -0.02065135 0.03857990
v -0.03663918 -0.02134138 0.03995864
v -0.03559913 -0.02341876 0.04035316
v -0.03638330 -0.02268986 0.04154702
v -0.03726824 -0.02130008 0.04221370
v -0.03774614 -0.02032982 0.04247076
v -0.03254985 -0.01939034 0.03582861
v -0.03499525 -0.02360747 0.04247076
v -0.03074610 -0.02282430 0.03621006
v -0.03108544 -0.02137945 0.03578394
v -0.03200423 -0.02019457 0.03544990
v -0.03261047 -0.02066593 0.03558255
v -0.03349699 -0.02035088 0.03585954
v -0.03410953 -0.02111785 0.03647468
v -0.03380247 -0.02332724 0.03746096
v -0.03489920 -0.02326326 0.03875998
v -0.03440949 -0.02414119 0.03912906
v -0.03551253 -0.02384234 0.04123635
v -0.03598570 -0.02331105 0.04247076
v -0.03718794 -0.02141427 0.04247076
v -0.03493385 -0.02374839 0.04247076
v -0.03077523 -0.02295469 0.03581143
v -0.03137045 -0.02375244 0.03659565
v -0.03146414 -0.02180140 0.03555781
v -0.03156728 -0.02296117 0.03578256
v -0.03248135 -0.02299519 0.03619632
v -0.03267109 -0.02415091 0.03725271
v -0.03346629 -0.02453480 0.03860740
v -0.03447641 -0.02441898 0.04012291
v -0.03528893 -0.02402052 0.04224257
v -0.03549205 -0.02384720 0.04247076
v -0.03575187 -0.02362772 0.04247076
v -0.03523696 -0.02397192 0.04247076
v -0.03445201 -0.02429264 0.04086452
v -0.03218060 -0.02412985 0.03753107
v -0.03152476 -0.02355644 0.03610972
f 1 2 3
f 1 3 4
f 1 4 11
f 1 11 21
f 1 21 20
f 1 20 34
f 1 34 48
f 1 48 47
f 1 47 60
f 1 60 59
f 1 59 61
f 1 61 49
f 1 49 36
f 1 36 22
f 1 22 12
f 1 12 5
f 1 5 2
f 2 5 6
f 2 6 3
f 3 6 7
f 3 7 8
f 3 8 9
f 3 9 10
f 3 10 4
f 4 10 11
f 5 7 6
f 5 12 13
f 5 13 7
f 7 14 15
f 7 15 8
f 7 13 14
f 8 16 17
f 8 17 9
f 8 15 16
f 9 17 18
f 9 18 19
f 9 19 10
f 10 19 20
f 10 20 21
f 10 21 11
f 12 22 23
f 12 23 24
f 12 24 25
f 12 25 13
f 13 15 14
f 13 25 26
f 13 26 27
f 13 27 15
f 15 27 16
f 16 27 28
f 16 28 29
f 16 29 17
f 17 29 30
f 17 30 18
f 18 30 31
f 18 31 32
f 18 32 33
f 18 33 19
f 19 33 34
f 19 34 20
f 22 35 23
f 22 36 37
f 22 37 38
f 22 38 35
f 23 35 38
f 23 38 39
f 23 39 24
f 24 39 40
f 24 40 41
f 24 41 26
f 24 26 25
f 26 41 42
f 26 42 27
f 27 42 28
f 28 42 43
f 28 43 44
f 28 44 29
f 29 44 30
f 30 44 31
f 31 44 45
f 31 45 46
f 31 46 32
f 32 46 47
f 32 47 33
f 33 47 48
f 33 48 34
f 36 49 37
f 37 50 38
f 37 49 51
f 37 51 50
f 38 50 52
f 38 52 39
f 39 52 40
f 40 52 53
f 40 53 41
f 41 53 54
f 41 54 42
f 42 54 43
f 43 55 45
f 43 45 44
f 43 54 55
f 45 55 56
f 45 56 57
f 45 57 46
f 46 57 58
f 46 58 59
f 46 59 60
f 46 60 47
f 49 61 62
f 49 62 63
f 49 63 51
f 50 51 64
f 50 64 53
f 50 53 52
f 51 63 55
f 51 55 64
f 53 64 54
f 54 64 55
f 55 63 56
f 56 62 57
f 56 63 62
f 57 62 58
f 58 61 59
f 58 62 61

