# https://github.com/mikedh/trimesh
v 0.02555776 0.03753924 -0.03949148
v 0.03250328 0.03619530 -0.03949148
v 0.02555776 0.03725665 -0.04056222
v 0.02555776 0.03613944 -0.03949148
v 0.03312996 0.03605401 -0.03949148
v 0.03277050 0.03587657 -0.04049102
v 0.03303063 0.03508467 -0.04330068
v 0.03226679 0.03451949 -0.04572149
v 0.02883305 0.03043511 -0.06067624
v 0.02555776 0.03089514 -0.06083233
v 0.02555776 0.03279768 -0.04808478
v 0.02942899 0.01710420 -0.06746762
v 0.02981446 0.01639445 -0.06746762
v 0.03111512 0.01402531 -0.06746762
v 0.03690187 0.00397044 -0.06746762
v 0.03400968 0.01490922 -0.05452564
v 0.04715816 0.00397044 -0.03949148
v 0.03390326 0.03584700 -0.03949148
v 0.03259551 0.03409561 -0.04657589
v 0.03410663 0.03576814 -0.03949148
v 0.03363840 0.03528511 -0.04177536
v 0.03126410 0.03286997 -0.05146952
v 0.02903170 0.02977136 -0.06229467
v 0.02739996 0.02844714 -0.06746762
v 0.02752766 0.02896632 -0.06589575
v 0.02611113 0.02871987 -0.06746762
v 0.02555776 0.02880859 -0.06746762
v 0.03008169 0.03122045 -0.05723947
v 0.02555776 0.02725107 -0.06746762
v 0.02898440 0.01825427 -0.06746762
v 0.03948900 0.00397044 -0.06746762
v 0.03704849 0.00397044 -0.06703494
v 0.04478150 0.00397044 -0.04581733
v 0.04881827 0.00397044 -0.03949148
v 0.03087627 0.03152275 -0.05537457
v 0.03139180 0.03238365 -0.05254300
v 0.03362184 0.03470679 -0.04329247
v 0.03435731 0.03557755 -0.03949148
v 0.03420123 0.03519639 -0.04084976
v 0.02956378 0.02972536 -0.06138002
v 0.02822529 0.02837814 -0.06649547
v 0.02788712 0.02819084 -0.06746762
v 0.03949137 0.00397701 -0.06746762
v 0.03955285 0.00397044 -0.06730606
v 0.04593081 0.00397044 -0.04941841
v 0.04621696 0.00443704 -0.04956355
v 0.04705410 0.00496279 -0.04793143
v 0.04758147 0.00488392 -0.04586115
v 0.04910915 0.00452247 -0.03949148
v 0.03057121 0.03073413 -0.05743390
v 0.03357928 0.03422705 -0.04413865
v 0.04864801 0.00585984 -0.04267357
v 0.03449683 0.03545598 -0.03949148
v 0.03485629 0.03476265 -0.03949148
v 0.03462217 0.03458850 -0.04051293
v 0.04962232 0.00581055 -0.03982557
v 0.04625716 0.00511722 -0.05018518
v 0.04414773 0.00487407 -0.05582368
v 0.04255856 0.00476563 -0.05981636
v 0.04082986 0.00477220 -0.06391037
v 0.03944407 0.00481821 -0.06704043
v 0.03931400 0.00469006 -0.06746762
v 0.04109472 0.00438447 -0.06359544
v 0.03965690 0.00397044 -0.06703769
v 0.04559501 0.00397044 -0.05055214
v 0.04597338 0.00489050 -0.05110530
v 0.04797876 0.00539324 -0.04526690
v 0.04824599 0.00496279 -0.04353893
v 0.04915881 0.00474263 -0.03972425
v 0.04925577 0.00481821 -0.03949148
v 0.04966725 0.00591241 -0.03949148
v 0.04971455 0.00581712 -0.03949148
v 0.04373624 0.00460791 -0.05683691
v 0.04297713 0.00397044 -0.05795147
v 0.04481697 0.00443047 -0.05364112
v 0.04457576 0.00397044 -0.05352611
f 1 2 3
f 1 3 10
f 1 10 27
f 1 27 29
f 1 29 11
f 1 11 4
f 1 4 17
f 1 17 34
f 1 34 49
f 1 49 70
f 1 70 72
f 1 72 71
f 1 71 54
f 1 54 53
f 1 53 38
f 1 38 20
f 1 20 18
f 1 18 5
f 1 5 2
f 2 5 6
f 2 6 7
f 2 7 3
f 3 7 8
f 3 8 9
f 3 9 10
f 4 11 12
f 4 12 13
f 4 13 14
f 4 14 15
f 4 15 16
f 4 16 17
f 5 18 7
f 5 7 6
f 7 19 8
f 7 18 20
f 7 20 21
f 7 21 19
f 8 19 22
f 8 22 9
f 9 23 24
f 9 24 25
f 9 25 26
f 9 26 27
f 9 27 10
f 9 22 28
f 9 28 23
f 11 29 30
f 11 30 12
f 12 30 29
f 12 29 27
f 12 27 26
f 12 26 24
f 12 24 42
f 12 42 62
f 12 62 43
f 12 43 31
f 12 31 15
f 12 15 14
f 12 14 13
f 15 31 44
f 15 44 64
f 15 64 74
f 15 74 76
f 15 76 65
f 15 65 45
f 15 45 34
f 15 34 17
f 15 17 33
f 15 33 32
f 15 32 16
f 16 32 33
f 16 33 17
f 19 35 36
f 19 36 22
f 19 21 37
f 19 37 35
f 20 38 21
f 21 38 39
f 21 39 37
f 22 36 28
f 23 40 41
f 23 41 42
f 23 42 24
f 23 28 36
f 23 36 35
f 23 35 40
f 24 26 25
f 31 43 44
f 34 45 46
f 34 46 47
f 34 47 48
f 34 48 49
f 35 37 50
f 35 50 40
f 37 51 50
f 37 39 52
f 37 52 51
f 38 53 39
f 39 53 54
f 39 54 55
f 39 55 56
f 39 56 52
f 40 50 57
f 40 57 41
f 41 57 58
f 41 58 59
f 41 59 60
f 41 60 61
f 41 61 42
f 42 61 62
f 43 62 63
f 43 63 44
f 44 63 64
f 45 65 46
f 46 65 66
f 46 66 47
f 47 66 67
f 47 67 48
f 48 67 68
f 48 68 49
f 49 68 69
f 49 69 70
f 50 51 67
f 50 67 57
f 51 52 67
f 52 56 67
f 54 71 56
f 54 56 55
f 56 72 68
f 56 68 67
f 56 71 72
f 57 67 66
f 57 66 58
f 58 66 73
f 58 73 63
f 58 63 59
f 59 63 60
f 60 63 62
f 60 62 61
f 63 73 64
f 64 73 75
f 64 75 74
f 65 76 66
f 66 76 75
f 66 75 73
f 68 72 70
f 68 70 69
f 74 75 76

