# https://github.com/mikedh/trimesh
v -0.01944328 -0.00124456 0.05130306
v -0.01953677 -0.00102158 0.05130306
v -0.01744445 -0.00124456 0.05130306
v -0.02375880 -0.00124456 0.05913143
v -0.02393556 -0.00085347 0.05887700
v -0.02587661 0.00040120 0.06091663
v -0.02478371 0.00053038 0.05884336
v -0.01990900 -0.00001467 0.05130306
v -0.01147174 0.01683396 0.05130306
v -0.01131877 0.01683396 0.05275813
v -0.01743765 -0.00124456 0.05163739
v -0.02472592 -0.00124456 0.06098602
v -0.02576273 -0.00066589 0.06209204
v -0.02532081 0.00138865 0.05944263
v -0.02691342 -0.00004475 0.06371743
v -0.02698821 0.00074274 0.06292471
v -0.02646810 0.00120638 0.06165468
v -0.02386928 0.00118691 0.05709812
v -0.02014356 0.00090908 0.05130306
v -0.01520426 0.01683396 0.05130306
v -0.01760082 -0.00124456 0.05321652
v -0.01743595 -0.00124456 0.05174673
v -0.01994979 0.01683396 0.07200419
v -0.01998719 0.01447505 0.07174977
v -0.02022344 0.01188254 0.07188224
v -0.02050389 0.01052701 0.07169300
v -0.02518144 -0.00124456 0.06195116
v -0.02548228 -0.00124456 0.06266608
v -0.02686243 -0.00124456 0.06621545
v -0.02689642 -0.00106405 0.06590214
v -0.01567847 0.01649419 0.05130306
v -0.02003818 0.00228231 0.05130306
v -0.02776837 0.00067018 0.06540380
v -0.02762559 -0.00071013 0.06725839
v -0.02815589 -0.00036682 0.06839595
v -0.02715308 0.00131256 0.06343988
v -0.02012486 0.00127716 0.05130306
v -0.01680027 0.01683396 0.05475149
v -0.02546019 -0.00124456 0.07190958
v -0.01999908 0.01683396 0.07210302
v -0.02022514 0.01496346 0.07227755
v -0.02046650 0.01351768 0.07243945
v -0.02064667 0.01102781 0.07223760
v -0.02586132 -0.00124456 0.07259295
v -0.02761710 -0.00124456 0.06843590
v -0.01774869 0.01683396 0.05688574
v -0.02865220 -0.00002705 0.07019167
v -0.02845164 0.00076751 0.06864828
v -0.02783295 0.00159393 0.06670117
v -0.02815929 -0.00124456 0.07042086
v -0.02833606 -0.00092602 0.07035568
v -0.02202171 0.01683396 0.06961132
v -0.02057528 0.01683396 0.06494541
v -0.02047160 0.01683396 0.07267075
v -0.02050049 0.01618628 0.07265183
v -0.02091862 0.01182768 0.07259085
v -0.02158150 0.00974660 0.07254459
v -0.02200472 0.01070574 0.07272752
v -0.02337977 0.00767614 0.07276117
v -0.02521883 0.00476156 0.07278430
v -0.02631853 -0.00124456 0.07261398
v -0.02837006 -0.00078622 0.07109162
v -0.02861481 0.00014283 0.07125563
v -0.02868110 0.00079582 0.07016853
v -0.02812530 0.00219206 0.06952721
v -0.02228347 0.01683396 0.07075519
v -0.02226817 0.01683396 0.07067949
v -0.02817799 -0.00124456 0.07058487
v -0.02815929 -0.00124456 0.07103905
v -0.02111918 0.01683396 0.07271701
v -0.02117697 0.01343805 0.07272962
v -0.02594630 0.00438463 0.07267075
v -0.02668737 0.00147005 0.07265183
v -0.02659048 -0.00124456 0.07259926
v -0.02790434 -0.00124456 0.07158366
v -0.02790264 -0.00115608 0.07168038
v -0.02807601 -0.00009607 0.07199789
v -0.02823918 0.00106127 0.07174977
v -0.02855022 0.00127716 0.07080986
v -0.02801992 0.00268579 0.07033254
v -0.02228517 0.01683396 0.07123881
v -0.02120586 0.01683396 0.07269388
v -0.02740463 0.00189476 0.07239319
v -0.02705790 -0.00037567 0.07257403
v -0.02710889 -0.00124456 0.07235534
v -0.02784315 -0.00124456 0.07168879
v -0.02773947 -0.00124456 0.07180443
v -0.02734004 -0.00124456 0.07221026
v -0.02753721 0.00314235 0.07171192
v -0.02700860 0.00352813 0.07222498
v -0.02771397 0.00322906 0.07110634
v -0.02222398 0.01683396 0.07161730
v -0.02172937 0.01683396 0.07235534
v -0.02184325 0.01683396 0.07225231
v -0.02216449 0.01683396 0.07174556
v -0.02220868 0.01683396 0.07166776
f 1 2 8
f 1 8 19
f 1 19 37
f 1 37 32
f 1 32 31
f 1 31 20
f 1 20 9
f 1 9 3
f 1 3 11
f 1 11 22
f 1 22 21
f 1 21 39
f 1 39 44
f 1 44 61
f 1 61 74
f 1 74 85
f 1 85 88
f 1 88 87
f 1 87 86
f 1 86 75
f 1 75 69
f 1 69 68
f 1 68 50
f 1 50 45
f 1 45 29
f 1 29 28
f 1 28 27
f 1 27 12
f 1 12 4
f 1 4 5
f 1 5 6
f 1 6 7
f 1 7 2
f 2 7 8
f 3 9 10
f 3 10 11
f 4 12 13
f 4 13 5
f 5 13 6
f 6 14 7
f 6 13 15
f 6 15 16
f 6 16 17
f 6 17 14
f 7 14 18
f 7 18 8
f 8 18 19
f 9 20 38
f 9 38 46
f 9 46 53
f 9 53 52
f 9 52 67
f 9 67 66
f 9 66 81
f 9 81 92
f 9 92 96
f 9 96 95
f 9 95 94
f 9 94 93
f 9 93 82
f 9 82 70
f 9 70 54
f 9 54 40
f 9 40 23
f 9 23 10
f 10 21 22
f 10 22 11
f 10 23 24
f 10 24 25
f 10 25 26
f 10 26 21
f 12 27 13
f 13 27 28
f 13 28 29
f 13 29 30
f 13 30 15
f 14 31 32
f 14 32 18
f 14 17 31
f 15 33 16
f 15 30 34
f 15 34 35
f 15 35 33
f 16 33 36
f 16 36 17
f 17 36 31
f 18 32 37
f 18 37 19
f 20 31 38
f 21 26 39
f 23 40 25
f 23 25 24
f 25 40 41
f 25 41 42
f 25 42 43
f 25 43 26
f 26 43 44
f 26 44 39
f 29 45 30
f 30 45 34
f 31 36 46
f 31 46 38
f 33 35 47
f 33 47 48
f 33 48 49
f 33 49 36
f 34 45 35
f 35 45 50
f 35 50 51
f 35 51 47
f 36 49 52
f 36 52 53
f 36 53 46
f 40 54 41
f 41 54 42
f 42 54 55
f 42 55 56
f 42 56 43
f 43 56 57
f 43 57 44
f 44 57 56
f 44 56 58
f 44 58 59
f 44 59 60
f 44 60 61
f 47 51 62
f 47 62 63
f 47 63 64
f 47 64 48
f 48 65 49
f 48 64 65
f 49 65 66
f 49 66 67
f 49 67 52
f 50 68 51
f 51 68 69
f 51 69 62
f 54 70 71
f 54 71 56
f 54 56 55
f 56 71 58
f 58 71 59
f 59 71 60
f 60 71 70
f 60 70 72
f 60 72 73
f 60 73 61
f 61 73 74
f 62 69 75
f 62 75 76
f 62 76 63
f 63 76 77
f 63 77 78
f 63 78 79
f 63 79 64
f 64 79 80
f 64 80 65
f 65 80 66
f 66 80 81
f 70 82 72
f 72 82 83
f 72 83 73
f 73 83 84
f 73 84 74
f 74 84 85
f 75 86 76
f 76 86 87
f 76 87 88
f 76 88 77
f 77 88 85
f 77 85 84
f 77 84 83
f 77 83 78
f 78 89 79
f 78 83 90
f 78 90 89
f 79 89 91
f 79 91 92
f 79 92 81
f 79 81 80
f 82 93 83
f 83 93 90
f 89 90 94
f 89 94 95
f 89 95 96
f 89 96 91
f 90 93 94
f 91 96 92

