# https://github.com/mikedh/trimesh
v 0.04025914 0.00561196 0.00398983
v 0.03794765 0.00497645 0.01071027
v 0.04017005 0.00542805 0.00398983
v 0.02908530 0.02473437 0.00398983
v 0.02907045 0.02473437 0.00405004
v 0.02717721 0.02473437 0.01153469
v 0.02640011 0.02473437 0.01443407
v 0.02611551 0.02473437 0.01548544
v 0.02437570 0.02473437 0.02177976
v 0.01865885 0.01750063 0.05129687
v 0.02449450 0.00597365 0.05129687
v 0.02505628 0.00450034 0.05129687
v 0.02511568 0.00385870 0.05129687
v 0.03963549 0.00434708 0.00398983
v 0.02799390 0.02473437 0.00398983
v 0.02381392 0.02473437 0.02346566
v 0.01830000 0.01813818 0.05129687
v 0.02361346 0.00385870 0.05129687
v 0.02925854 0.00385870 0.03539663
v 0.03935831 0.00389344 0.00398983
v 0.01890386 0.02473437 0.02505893
v 0.02899620 0.01882273 0.00398983
v 0.02347486 0.02473437 0.02443366
v 0.01721603 0.01913129 0.05129687
v 0.02271014 0.02473437 0.02612882
v 0.01497631 0.01802375 0.05129687
v 0.02350209 0.00385870 0.05022698
v 0.02771425 0.00385870 0.03539663
v 0.03810852 0.00389344 0.00398983
v 0.01497631 0.02383117 0.03539663
v 0.01890386 0.02473437 0.03004252
v 0.01497631 0.02235786 0.03539663
v 0.02904075 0.01861634 0.00398983
v 0.01581528 0.01965849 0.05129687
v 0.02250968 0.02473437 0.02642988
v 0.02066841 0.02411725 0.03087620
v 0.01497631 0.01981992 0.05129687
v 0.01497631 0.01802375 0.05078277
v 0.02308632 0.00385870 0.04606318
v 0.02346002 0.00385870 0.04981939
v 0.02317541 0.00385870 0.04518781
v 0.03152548 0.01346895 0.00398983
v 0.01497631 0.02379848 0.03554021
v 0.01503571 0.02382913 0.03539663
v 0.01902018 0.02473437 0.02999157
v 0.01589200 0.02374126 0.03539663
v 0.01661465 0.02366361 0.03539663
v 0.01497631 0.01860408 0.04598907
v 0.02940208 0.01736781 0.00398983
v 0.02965698 0.01665874 0.00398983
v 0.02982032 0.01623779 0.00398983
v 0.03045140 0.01510165 0.00398983
v 0.03048852 0.01504034 0.00398983
v 0.01928251 0.02473437 0.02981557
v 0.01915877 0.02461176 0.03036673
v 0.02122525 0.02473437 0.02814357
v 0.01497631 0.02294228 0.03896758
v 0.01497631 0.01812592 0.04929139
v 0.01497631 0.01847535 0.04663286
v 0.01497631 0.01823831 0.04829097
v 0.03063701 0.01481352 0.00398983
v 0.01497631 0.02362274 0.03624884
f 1 2 3
f 1 3 14
f 1 14 20
f 1 20 29
f 1 29 42
f 1 42 61
f 1 61 53
f 1 53 52
f 1 52 51
f 1 51 50
f 1 50 49
f 1 49 33
f 1 33 22
f 1 22 15
f 1 15 4
f 1 4 5
f 1 5 6
f 1 6 7
f 1 7 8
f 1 8 9
f 1 9 10
f 1 10 11
f 1 11 12
f 1 12 13
f 1 13 2
f 2 14 3
f 2 13 14
f 4 15 21
f 4 21 31
f 4 31 45
f 4 45 54
f 4 54 56
f 4 56 35
f 4 35 25
f 4 25 23
f 4 23 16
f 4 16 9
f 4 9 8
f 4 8 7
f 4 7 6
f 4 6 5
f 9 16 17
f 9 17 10
f 10 17 24
f 10 24 34
f 10 34 37
f 10 37 26
f 10 26 18
f 10 18 13
f 10 13 12
f 10 12 11
f 13 18 27
f 13 27 40
f 13 40 39
f 13 39 41
f 13 41 28
f 13 28 19
f 13 19 20
f 13 20 14
f 15 22 21
f 16 23 17
f 17 23 25
f 17 25 24
f 18 26 27
f 19 28 29
f 19 29 20
f 21 30 31
f 21 22 32
f 21 32 30
f 22 33 32
f 24 25 35
f 24 35 36
f 24 36 34
f 26 37 57
f 26 57 62
f 26 62 43
f 26 43 30
f 26 30 32
f 26 32 48
f 26 48 59
f 26 59 60
f 26 60 58
f 26 58 38
f 26 38 39
f 26 39 40
f 26 40 27
f 28 41 29
f 29 41 42
f 30 43 44
f 30 44 31
f 31 44 46
f 31 46 47
f 31 47 45
f 32 41 48
f 32 33 49
f 32 49 50
f 32 50 51
f 32 51 52
f 32 52 53
f 32 53 41
f 34 36 54
f 34 54 55
f 34 55 37
f 35 56 36
f 36 56 54
f 37 47 57
f 37 55 45
f 37 45 47
f 38 58 39
f 39 59 41
f 39 58 60
f 39 60 59
f 41 59 48
f 41 53 61
f 41 61 42
f 43 62 44
f 44 62 46
f 45 55 54
f 46 62 57
f 46 57 47

