# https://github.com/mikedh/trimesh
v -0.01363152 -0.01911380 0.03539837
v -0.01376862 -0.01908687 0.03539837
v -0.01363152 -0.02000521 0.03539837
v -0.01363152 -0.02175725 0.02343380
v -0.01913335 -0.01908687 0.02343380
v -0.02275814 -0.01908687 0.03539837
v -0.01961599 -0.02292249 0.03539837
v -0.01363152 -0.02084596 0.03195867
v -0.01363152 -0.02262365 0.02343380
v -0.01992474 -0.01908687 0.02343380
v -0.02083540 -0.02180663 0.03539837
v -0.02345145 -0.01908687 0.03461604
v -0.01972188 -0.02295391 0.03539837
v -0.01363152 -0.02184062 0.02719323
v -0.02501751 -0.02562494 0.02473965
v -0.02501751 -0.02563840 0.02445740
v -0.02501751 -0.02535559 0.02352867
v -0.02501751 -0.02523246 0.02345020
v -0.01467370 -0.02255888 0.02343380
v -0.02070499 -0.02338872 0.03401875
v -0.01990356 -0.01915805 0.02343380
v -0.02501751 -0.02479958 0.02364110
v -0.02501751 -0.01908687 0.03031905
v -0.02081088 -0.02183869 0.03539837
v -0.02082760 -0.02184511 0.03537612
v -0.02402102 -0.01908687 0.03386298
v -0.02211277 -0.02295905 0.03273515
v -0.02079750 -0.02185537 0.03539837
v -0.02402660 -0.02485666 0.02765583
v -0.02501751 -0.02504071 0.02595180
v -0.02157106 -0.02373053 0.03250092
v -0.01474058 -0.02255374 0.02343380
v -0.01955803 -0.02030406 0.02343380
v -0.01950118 -0.02041885 0.02343380
v -0.01914450 -0.02113198 0.02343380
v -0.01857380 -0.02169632 0.02343380
v -0.01768098 -0.02213112 0.02343380
v -0.01681157 -0.02235686 0.02343380
v -0.01664214 -0.02239983 0.02343380
v -0.01660647 -0.02240560 0.02343380
v -0.02501751 -0.01908687 0.03249624
v -0.02501751 -0.02084019 0.03073247
v -0.02501751 -0.02213561 0.02937861
v -0.02414252 -0.02360163 0.02911393
v -0.02261101 -0.02416597 0.03057436
v -0.02501751 -0.02334383 0.02806574
f 1 2 6
f 1 6 11
f 1 11 24
f 1 24 28
f 1 28 13
f 1 13 7
f 1 7 3
f 1 3 8
f 1 8 14
f 1 14 9
f 1 9 4
f 1 4 5
f 1 5 2
f 2 5 10
f 2 10 23
f 2 23 41
f 2 41 26
f 2 26 12
f 2 12 6
f 3 7 8
f 4 9 19
f 4 19 32
f 4 32 40
f 4 40 39
f 4 39 38
f 4 38 37
f 4 37 36
f 4 36 35
f 4 35 34
f 4 34 33
f 4 33 21
f 4 21 10
f 4 10 5
f 6 12 11
f 7 13 9
f 7 9 14
f 7 14 8
f 9 15 16
f 9 16 17
f 9 17 18
f 9 18 19
f 9 13 20
f 9 20 15
f 10 21 18
f 10 18 22
f 10 22 23
f 11 12 25
f 11 25 24
f 12 26 27
f 12 27 25
f 13 28 20
f 15 29 30
f 15 30 46
f 15 46 43
f 15 43 42
f 15 42 41
f 15 41 23
f 15 23 22
f 15 22 18
f 15 18 17
f 15 17 16
f 15 20 31
f 15 31 29
f 18 32 19
f 18 21 33
f 18 33 34
f 18 34 35
f 18 35 36
f 18 36 37
f 18 37 38
f 18 38 39
f 18 39 40
f 18 40 32
f 20 28 25
f 20 25 27
f 20 27 31
f 24 25 28
f 26 41 27
f 27 41 42
f 27 42 43
f 27 43 44
f 27 44 45
f 27 45 31
f 29 44 30
f 29 31 45
f 29 45 44
f 30 44 46
f 43 46 44

