# https://github.com/mikedh/trimesh
v -0.02970252 -0.01472940 0.04964179
v -0.03214182 -0.01474026 0.04900315
v -0.03072181 -0.01473483 0.04966048
v -0.02869277 -0.01489407 0.05029318
v -0.02588774 -0.01504607 0.05053777
v -0.02257067 -0.01530756 0.05043331
v -0.03855650 -0.01626120 0.04247144
v -0.03215454 -0.01500717 0.04935899
v -0.03458748 -0.01497188 0.04805451
v -0.02967549 -0.01508679 0.05018617
v -0.02819664 -0.01585495 0.05058533
v -0.02592749 -0.01551837 0.05085285
v -0.02305726 -0.01566857 0.05087578
v -0.02257067 -0.01567219 0.05079170
v -0.02257067 -0.01546861 0.05016579
v -0.03839749 -0.01628834 0.04247144
v -0.03877754 -0.01649283 0.04247144
v -0.03852152 -0.01609744 0.04347867
v -0.03421856 -0.01530937 0.04859210
v -0.03242169 -0.01566857 0.04931482
v -0.03786638 -0.01583686 0.04521712
v -0.03641297 -0.01544599 0.04675853
v -0.03562426 -0.01538356 0.04771906
v -0.03020501 -0.01582238 0.05005878
v -0.02744609 -0.01821915 0.05015135
v -0.02609764 -0.01622501 0.05086643
v -0.03000624 -0.01818930 0.04951950
v -0.02257067 -0.01667650 0.05114754
v -0.02257067 -0.01662764 0.05114499
v -0.02257067 -0.01621415 0.05105242
v -0.02257067 -0.01589748 0.05094711
v -0.02257067 -0.01579705 0.05088427
v -0.02257067 -0.01550209 0.05011398
v -0.03814147 -0.01658964 0.04247144
v -0.03878867 -0.01655887 0.04247144
v -0.03881411 -0.01650006 0.04271858
v -0.03857081 -0.01696241 0.04407401
v -0.03466063 -0.01607753 0.04834326
v -0.03339486 -0.01716056 0.04865749
v -0.03806674 -0.01659778 0.04515088
v -0.03700928 -0.01681312 0.04643242
v -0.03560041 -0.01667288 0.04765451
v -0.02683547 -0.02090636 0.04956026
v -0.02325762 -0.02040512 0.05035348
v -0.02344049 -0.01823544 0.05082652
v -0.02257067 -0.01863083 0.05086813
v -0.02257067 -0.01736142 0.05110763
v -0.03139444 -0.01965686 0.04862947
v -0.03046262 -0.02137142 0.04838403
v -0.02870867 -0.02136871 0.04892671
v -0.02257067 -0.01653083 0.04992969
v -0.03493413 -0.02374829 0.04247144
v -0.03499456 -0.02360715 0.04247144
v -0.03877118 -0.01685293 0.04247144
v -0.03869803 -0.01755414 0.04324427
v -0.03791567 -0.01923070 0.04419885
v -0.03772803 -0.01821735 0.04519759
v -0.03481646 -0.01782557 0.04782436
v -0.03356819 -0.01815039 0.04831524
v -0.03592003 -0.01860188 0.04683922
v -0.02626937 -0.02144833 0.04926387
v -0.02410358 -0.02116151 0.04979551
v -0.02257067 -0.02045397 0.05044945
v -0.02257067 -0.01910765 0.05076112
v -0.03255367 -0.02032911 0.04796025
v -0.03049919 -0.02189348 0.04808424
v -0.03266816 -0.02195139 0.04724431
v -0.02948944 -0.02195591 0.04821587
v -0.02257067 -0.01832139 0.04963075
v -0.03523626 -0.02397178 0.04247144
v -0.02257067 -0.01988124 0.04937087
v -0.02257067 -0.02071998 0.04925623
v -0.02257067 -0.02105746 0.04944731
v -0.03867736 -0.01766814 0.04247144
v -0.03837363 -0.01883984 0.04247144
v -0.03824960 -0.01930309 0.04274406
v -0.03691228 -0.02180210 0.04334873
v -0.03619671 -0.02229521 0.04425915
v -0.03698384 -0.02035173 0.04484259
v -0.03630802 -0.01984777 0.04595768
v -0.03389258 -0.01988215 0.04753307
v -0.03435054 -0.02128728 0.04666512
v -0.02257067 -0.02109908 0.04992884
v -0.03184446 -0.02244631 0.04703370
v -0.03400071 -0.02243998 0.04617594
v -0.03384646 -0.02311042 0.04554748
v -0.02257067 -0.02110090 0.04972077
v -0.03490551 -0.02366234 0.04394492
v -0.03549227 -0.02384691 0.04247144
v -0.03821303 -0.01932933 0.04247144
v -0.03774552 -0.02032911 0.04247144
v -0.03718738 -0.02141395 0.04247144
v -0.03582462 -0.02356281 0.04284597
v -0.03518061 -0.02338547 0.04431095
v -0.03536984 -0.02244812 0.04510416
v -0.03575147 -0.02362796 0.04247144
v -0.03598522 -0.02331128 0.04247144
f 1 2 3
f 1 3 4
f 1 4 5
f 1 5 6
f 1 6 7
f 1 7 2
f 2 8 3
f 2 7 9
f 2 9 8
f 3 8 10
f 3 10 4
f 4 10 11
f 4 11 12
f 4 12 5
f 5 12 13
f 5 13 6
f 6 13 14
f 6 14 32
f 6 32 31
f 6 31 30
f 6 30 29
f 6 29 28
f 6 28 47
f 6 47 46
f 6 46 64
f 6 64 63
f 6 63 83
f 6 83 87
f 6 87 73
f 6 73 72
f 6 72 71
f 6 71 69
f 6 69 51
f 6 51 33
f 6 33 15
f 6 15 16
f 6 16 7
f 7 16 34
f 7 34 53
f 7 53 52
f 7 52 70
f 7 70 89
f 7 89 96
f 7 96 97
f 7 97 92
f 7 92 91
f 7 91 90
f 7 90 75
f 7 75 74
f 7 74 54
f 7 54 35
f 7 35 17
f 7 17 18
f 7 18 9
f 8 9 19
f 8 19 20
f 8 20 10
f 9 18 21
f 9 21 22
f 9 22 23
f 9 23 19
f 10 20 24
f 10 24 11
f 11 25 26
f 11 26 12
f 11 24 27
f 11 27 25
f 12 26 28
f 12 28 29
f 12 29 30
f 12 30 13
f 13 30 31
f 13 31 32
f 13 32 14
f 15 33 16
f 16 33 34
f 17 35 36
f 17 36 18
f 18 36 37
f 18 37 21
f 19 23 38
f 19 38 20
f 20 38 39
f 20 39 24
f 21 37 40
f 21 40 41
f 21 41 23
f 21 23 22
f 23 42 38
f 23 41 42
f 24 39 27
f 25 43 44
f 25 44 26
f 25 27 43
f 26 44 45
f 26 45 46
f 26 46 47
f 26 47 28
f 27 48 49
f 27 49 50
f 27 50 43
f 27 39 48
f 33 51 52
f 33 52 53
f 33 53 34
f 35 54 36
f 36 54 55
f 36 55 37
f 37 55 56
f 37 56 57
f 37 57 40
f 38 58 39
f 38 42 58
f 39 58 59
f 39 59 48
f 40 57 41
f 41 57 60
f 41 60 42
f 42 60 58
f 43 50 61
f 43 61 62
f 43 62 63
f 43 63 44
f 44 63 64
f 44 64 45
f 45 64 46
f 48 65 49
f 48 59 65
f 49 66 50
f 49 65 67
f 49 67 66
f 50 68 61
f 50 66 68
f 51 69 52
f 52 69 71
f 52 71 72
f 52 72 73
f 52 73 70
f 54 74 55
f 55 74 75
f 55 75 76
f 55 76 56
f 56 76 77
f 56 77 78
f 56 78 79
f 56 79 57
f 57 79 80
f 57 80 60
f 58 81 59
f 58 60 81
f 59 81 65
f 60 80 82
f 60 82 81
f 61 68 83
f 61 83 62
f 62 83 63
f 65 81 67
f 66 67 84
f 66 84 68
f 67 81 82
f 67 82 85
f 67 85 86
f 67 86 84
f 68 84 86
f 68 86 83
f 70 87 83
f 70 83 88
f 70 88 89
f 70 73 87
f 75 90 76
f 76 90 91
f 76 91 77
f 77 91 92
f 77 92 93
f 77 93 78
f 78 93 94
f 78 94 95
f 78 95 79
f 79 95 80
f 80 95 82
f 82 95 85
f 83 86 88
f 85 95 94
f 85 94 86
f 86 94 88
f 88 94 93
f 88 93 89
f 89 93 96
f 92 97 93
f 93 97 96

