# https://github.com/mikedh/trimesh
v 0.02555656 0.03753828 -0.03949148
v 0.00324396 0.04654272 -0.03949148
v 0.02555656 0.03614268 -0.03949148
v 0.02555656 0.03725690 -0.04056222
v 0.00324396 0.04458244 -0.03949148
v 0.00324396 0.04641052 -0.03991594
v 0.02555656 0.03280001 -0.04808478
v 0.02528571 0.03619933 -0.03949148
v 0.01466347 0.03222401 -0.05507334
v 0.02555656 0.03089638 -0.06083507
v 0.00955003 0.04172323 -0.03949148
v 0.00324396 0.04148528 -0.04675663
v 0.01207726 0.03376693 -0.05357540
v 0.00328110 0.04633309 -0.04010216
v 0.00324396 0.04636708 -0.04003917
v 0.02555656 0.02881147 -0.06746762
v 0.02555656 0.02725155 -0.06746762
v 0.02130155 0.03716247 -0.03949148
v 0.01309296 0.03261682 -0.05535814
v 0.01340968 0.02996724 -0.06746762
v 0.02217964 0.02782566 -0.06746762
v 0.02020940 0.03751185 -0.03949148
v 0.00992791 0.04155516 -0.03949148
v 0.00324396 0.04028418 -0.04968952
v 0.00324396 0.03419939 -0.06746762
v 0.01921336 0.03785555 -0.03949148
v 0.01570757 0.03918695 -0.03949148
v 0.01300777 0.04024642 -0.03949148
v 0.00324396 0.03971385 -0.05132164
v 0.00324396 0.04633687 -0.04012132
v 0.00324396 0.03648638 -0.06688707
v 0.00324396 0.03626543 -0.06746762
v 0.00666676 0.03255261 -0.06746762
v 0.00852123 0.03172733 -0.06746762
v 0.01108559 0.03077741 -0.06746762
v 0.01311262 0.03006355 -0.06746762
f 1 2 5
f 1 5 11
f 1 11 23
f 1 23 28
f 1 28 27
f 1 27 26
f 1 26 22
f 1 22 18
f 1 18 8
f 1 8 3
f 1 3 7
f 1 7 17
f 1 17 16
f 1 16 10
f 1 10 4
f 1 4 2
f 2 4 6
f 2 6 15
f 2 15 30
f 2 30 31
f 2 31 32
f 2 32 25
f 2 25 29
f 2 29 24
f 2 24 12
f 2 12 5
f 3 8 9
f 3 9 7
f 4 10 6
f 5 12 13
f 5 13 11
f 6 14 15
f 6 10 16
f 6 16 14
f 7 9 17
f 8 18 9
f 9 13 19
f 9 19 20
f 9 20 21
f 9 21 17
f 9 18 22
f 9 22 13
f 11 13 23
f 12 24 13
f 13 25 19
f 13 22 26
f 13 26 27
f 13 27 28
f 13 28 23
f 13 24 29
f 13 29 25
f 14 30 15
f 14 16 31
f 14 31 30
f 16 17 21
f 16 21 20
f 16 20 36
f 16 36 35
f 16 35 34
f 16 34 33
f 16 33 25
f 16 25 32
f 16 32 31
f 19 25 33
f 19 33 34
f 19 34 35
f 19 35 36
f 19 36 20

