# https://github.com/mikedh/trimesh
v 0.03144864 -0.02764390 -0.03938790
v 0.02877782 -0.02914629 -0.03795267
v 0.03144864 -0.02878929 -0.03938790
v 0.03144864 -0.02141970 -0.05632953
v 0.02102641 -0.02533824 -0.05330382
v 0.01808951 -0.03273971 -0.03938498
v 0.01632486 -0.03350047 -0.03938498
v 0.01604874 -0.03364072 -0.03938498
v 0.01322480 -0.03509212 -0.03938498
v 0.00580473 -0.03921467 -0.03938498
v 0.00580473 -0.04047268 -0.03938498
v 0.01952031 -0.02576962 -0.05359966
v 0.02039636 -0.03221270 -0.04623602
v 0.03144864 -0.02574200 -0.05032205
v 0.03144864 -0.02141970 -0.06220813
v 0.02790428 -0.01876341 -0.06786999
v 0.01968849 -0.02518099 -0.05516670
v 0.01819996 -0.02577600 -0.05485037
v 0.01692730 -0.02591413 -0.05625045
v 0.01546387 -0.02688951 -0.05596926
v 0.00681131 -0.02780327 -0.06786999
v 0.00580473 -0.02848328 -0.06786999
v 0.00580473 -0.03897879 -0.04504390
v 0.00580473 -0.03873016 -0.04597827
v 0.00580473 -0.03789290 -0.04880773
v 0.03144864 -0.02314309 -0.05907991
v 0.03144864 -0.02350010 -0.05795516
v 0.03144864 -0.02390173 -0.05667223
v 0.03144864 -0.02449461 -0.05472734
v 0.03144864 -0.02183195 -0.06178343
v 0.03118758 -0.02141970 -0.06295797
v 0.03037178 -0.02141970 -0.06467147
v 0.02790428 -0.02100744 -0.06786999
v 0.01829032 -0.02197220 -0.06786999
v 0.01392765 -0.02367647 -0.06786999
v 0.01214040 -0.02467311 -0.06786999
v 0.00929136 -0.02626688 -0.06786999
v 0.00835256 -0.02684276 -0.06786999
v 0.00580473 -0.03088456 -0.06786999
v 0.00580473 -0.03518349 -0.05711452
v 0.00580473 -0.03495399 -0.05778527
v 0.00580473 -0.03408485 -0.06014901
v 0.03117252 -0.02289021 -0.06007872
v 0.03056757 -0.02179583 -0.06353793
v 0.03144864 -0.02216558 -0.06123276
v 0.00580473 -0.03270784 -0.06352914
v 0.00580473 -0.03210008 -0.06501124
f 1 2 3
f 1 3 14
f 1 14 29
f 1 29 28
f 1 28 27
f 1 27 26
f 1 26 45
f 1 45 30
f 1 30 15
f 1 15 4
f 1 4 5
f 1 5 2
f 2 6 7
f 2 7 8
f 2 8 9
f 2 9 10
f 2 10 11
f 2 11 3
f 2 5 12
f 2 12 6
f 3 11 13
f 3 13 14
f 4 15 16
f 4 16 5
f 5 16 17
f 5 17 18
f 5 18 12
f 6 12 18
f 6 18 7
f 7 18 8
f 8 18 9
f 9 18 10
f 10 18 19
f 10 19 20
f 10 20 21
f 10 21 22
f 10 22 39
f 10 39 47
f 10 47 46
f 10 46 42
f 10 42 41
f 10 41 40
f 10 40 25
f 10 25 24
f 10 24 23
f 10 23 11
f 11 23 13
f 13 23 24
f 13 24 25
f 13 25 26
f 13 26 27
f 13 27 28
f 13 28 29
f 13 29 14
f 15 30 31
f 15 31 16
f 16 31 32
f 16 32 33
f 16 33 39
f 16 39 22
f 16 22 21
f 16 21 38
f 16 38 37
f 16 37 36
f 16 36 35
f 16 35 34
f 16 34 17
f 17 34 18
f 18 34 35
f 18 35 19
f 19 35 36
f 19 36 37
f 19 37 20
f 20 37 38
f 20 38 21
f 25 40 26
f 26 40 41
f 26 41 42
f 26 42 43
f 26 43 44
f 26 44 45
f 30 45 32
f 30 32 31
f 32 45 44
f 32 44 46
f 32 46 47
f 32 47 39
f 32 39 33
f 42 46 44
f 42 44 43

