# https://github.com/mikedh/trimesh
v -0.00024827 0.03804754 -0.06683106
v -0.00020503 0.03804351 -0.06683106
v 0.00030661 0.03696746 -0.06947055
v -0.00044284 0.03693925 -0.06960227
v -0.00073829 0.03756392 -0.06761685
v -0.00072388 0.03785409 -0.06683106
v 0.00037867 0.03792664 -0.06683106
v 0.00005439 0.03627831 -0.07104466
v 0.02724336 0.02783515 -0.06931612
v 0.02567962 0.02766588 -0.07079686
v -0.00050769 0.03589141 -0.07132123
v -0.00127155 0.03587126 -0.07073125
v -0.02454756 0.02337378 -0.07035425
v -0.02528980 0.02434504 -0.06768700
v -0.02546996 0.02460700 -0.06683106
v -0.00084639 0.03778961 -0.06683106
v 0.00078222 0.03774931 -0.06683106
v 0.02739469 0.02844370 -0.06746848
v 0.00063809 0.03557303 -0.07147263
v 0.02534093 0.02741601 -0.07125309
v 0.02787751 0.02818980 -0.06746848
v 0.02704880 0.02710166 -0.07074790
v -0.00066623 0.03510150 -0.07158164
v -0.02412240 0.02287807 -0.07094876
v -0.03227981 0.00051075 -0.06996817
v -0.02488625 0.02317630 -0.07000098
v -0.02556364 0.02406293 -0.06774555
v -0.02585188 0.02428056 -0.06683106
v -0.02565011 0.02446192 -0.06683106
v 0.00166858 0.03734227 -0.06683106
v 0.00237478 0.03430757 -0.07160284
v 0.02587419 0.02648102 -0.07144134
v 0.02699115 0.02618279 -0.07124754
v 0.00210816 0.03710851 -0.06683106
v 0.00323953 0.03650399 -0.06683106
v 0.03931374 0.00469405 -0.06746848
v 0.03862916 0.00400892 -0.06971633
v 0.03804545 0.00441193 -0.07049556
v 0.03715909 0.00466180 -0.07156801
v -0.00316678 0.03284059 -0.07165936
v -0.01953205 0.02337781 -0.07144487
v -0.02222717 0.02309167 -0.07122079
v -0.00055814 0.03354184 -0.07173557
v -0.02243615 0.02185441 -0.07137170
v -0.02376209 0.01995621 -0.07125007
v -0.03164567 0.00001907 -0.07040875
v -0.03266174 -0.00027513 -0.06980213
v -0.03345442 -0.00044439 -0.06844352
v -0.03411739 -0.00054918 -0.06683106
v 0.02181710 0.02732332 -0.07155691
v 0.01306878 0.02984619 -0.07165331
v 0.00469518 0.03277611 -0.07167298
v 0.02704159 0.02452237 -0.07148676
v 0.02650833 0.02373246 -0.07160233
v 0.02472120 0.02565081 -0.07160940
v 0.00323953 0.03446071 -0.06683106
v 0.03948669 0.00397668 -0.06746848
v 0.03940742 0.00380338 -0.06746848
v 0.03744013 0.00237671 -0.07083370
v 0.03758426 0.00316259 -0.07138330
v 0.03681319 0.00221550 -0.07168914
v 0.03625111 0.00296914 -0.07182187
v 0.03585477 0.00538723 -0.07176030
v -0.00820391 0.02868148 -0.07169671
v -0.01630367 0.02444176 -0.07154026
v 0.00908375 0.03068043 -0.07171689
v 0.01456046 0.02766588 -0.07179260
v 0.00169020 0.03219980 -0.07177190
v -0.00350547 0.03115599 -0.07174263
v -0.02882804 -0.00312444 -0.07068129
v -0.02954146 -0.00114161 -0.07068532
v -0.03067283 0.00041806 -0.07062729
v 0.01736367 -0.00312444 -0.07191574
v -0.03051429 -0.00110937 -0.07061668
v -0.03176096 -0.00092801 -0.07021143
v -0.03092504 -0.00312444 -0.06985966
v -0.03112682 -0.00312444 -0.06969564
v -0.03249599 -0.00115370 -0.06949730
v -0.03172493 -0.00312444 -0.06866457
v -0.03383635 -0.00112146 -0.06683106
v 0.02481488 0.02291031 -0.07175777
v 0.02119737 0.02567096 -0.07172094
v -0.03033414 -0.00312444 -0.06683106
v -0.00396667 0.00159889 -0.06683914
v 0.03862916 0.00235656 -0.06746848
v 0.03831208 0.00234850 -0.06835672
v 0.03485311 -0.00312444 -0.06943371
v 0.03471619 -0.00312444 -0.06979759
v 0.03549446 -0.00061366 -0.07142418
v 0.03372894 -0.00312444 -0.07173254
v 0.03469457 -0.00127057 -0.07176333
v 0.03342628 -0.00312444 -0.07185771
v 0.03305877 -0.00312444 -0.07189505
v 0.03193460 -0.00312444 -0.07194703
v 0.03339025 0.00569352 -0.07185467
v 0.02477885 0.01593009 -0.07192533
v 0.02687585 0.01753006 -0.07183348
v -0.01177818 0.02642460 -0.07164573
v 0.00025616 0.02685985 -0.07182793
v 0.00194241 0.02248714 -0.07186679
v 0.01237698 0.02606188 -0.07191322
v 0.00791635 0.02948348 -0.07181026
v 0.00966745 0.02130631 -0.07197580
v 0.00323953 0.02509868 -0.07187536
v -0.02902981 -0.00312444 -0.07066716
v 0.00323953 0.02228564 -0.07188546
v 0.01499283 0.01466866 -0.07198488
v 0.02524725 -0.00312444 -0.07197227
v -0.03008913 -0.00312444 -0.07034921
v -0.03011795 -0.00312444 -0.07033962
v -0.03165287 -0.00312444 -0.06880639
v -0.03202039 -0.00312444 -0.06805795
v -0.03300764 -0.00248768 -0.06683106
v 0.02392131 0.01975470 -0.07187688
v 0.03549446 -0.00312444 -0.06746848
v -0.03256085 -0.00312444 -0.06683106
v 0.03573947 -0.00270530 -0.06746848
v 0.03517018 -0.00312444 -0.06847532
v 0.03407484 -0.00312444 -0.07137725
v 0.03050777 -0.00312444 -0.07196166
v 0.02036865 0.01588979 -0.07198337
v 0.01549727 0.01994009 -0.07196873
v 0.02061367 0.01150499 -0.07198690
v 0.02552108 -0.00312444 -0.07197227
f 1 2 3
f 1 3 4
f 1 4 5
f 1 5 6
f 1 6 16
f 1 16 15
f 1 15 29
f 1 29 28
f 1 28 49
f 1 49 80
f 1 80 113
f 1 113 116
f 1 116 83
f 1 83 56
f 1 56 35
f 1 35 34
f 1 34 30
f 1 30 17
f 1 17 7
f 1 7 2
f 2 7 3
f 3 8 4
f 3 7 9
f 3 9 10
f 3 10 8
f 4 8 11
f 4 11 12
f 4 12 13
f 4 13 14
f 4 14 15
f 4 15 5
f 5 15 16
f 5 16 6
f 7 17 18
f 7 18 9
f 8 19 11
f 8 10 20
f 8 20 19
f 9 18 21
f 9 21 22
f 9 22 10
f 10 22 20
f 11 19 23
f 11 23 24
f 11 24 13
f 11 13 12
f 13 24 25
f 13 25 26
f 13 26 27
f 13 27 14
f 14 27 28
f 14 28 29
f 14 29 15
f 17 30 18
f 18 30 21
f 19 31 23
f 19 20 32
f 19 32 31
f 20 22 33
f 20 33 32
f 21 30 34
f 21 34 35
f 21 35 36
f 21 36 22
f 22 36 37
f 22 37 38
f 22 38 39
f 22 39 33
f 23 40 41
f 23 41 42
f 23 42 24
f 23 31 43
f 23 43 40
f 24 42 44
f 24 44 45
f 24 45 46
f 24 46 25
f 25 46 47
f 25 47 26
f 26 47 48
f 26 48 27
f 27 48 28
f 28 48 49
f 31 32 50
f 31 50 51
f 31 51 52
f 31 52 43
f 32 33 53
f 32 53 54
f 32 54 55
f 32 55 50
f 33 39 53
f 35 56 57
f 35 57 36
f 36 57 37
f 37 57 58
f 37 58 59
f 37 59 60
f 37 60 38
f 38 60 39
f 39 60 61
f 39 61 62
f 39 62 63
f 39 63 53
f 40 64 41
f 40 43 64
f 41 65 44
f 41 44 42
f 41 64 65
f 43 52 66
f 43 66 67
f 43 67 68
f 43 68 69
f 43 69 64
f 44 70 71
f 44 71 72
f 44 72 45
f 44 65 73
f 44 73 70
f 45 72 46
f 46 72 74
f 46 74 75
f 46 75 47
f 47 75 76
f 47 76 77
f 47 77 78
f 47 78 48
f 48 78 79
f 48 79 80
f 48 80 49
f 50 55 51
f 51 55 67
f 51 67 66
f 51 66 52
f 53 63 54
f 54 81 55
f 54 63 81
f 55 82 67
f 55 81 82
f 56 83 84
f 56 84 57
f 57 84 58
f 58 85 86
f 58 86 59
f 58 84 85
f 59 86 87
f 59 87 88
f 59 88 89
f 59 89 60
f 60 89 61
f 61 89 90
f 61 90 91
f 61 91 92
f 61 92 62
f 62 92 93
f 62 93 94
f 62 94 95
f 62 95 96
f 62 96 97
f 62 97 63
f 63 97 81
f 64 98 65
f 64 69 99
f 64 99 100
f 64 100 98
f 65 98 73
f 67 82 81
f 67 81 101
f 67 101 102
f 67 102 68
f 68 102 101
f 68 101 103
f 68 103 104
f 68 104 69
f 69 104 99
f 70 105 71
f 70 73 108
f 70 108 124
f 70 124 120
f 70 120 94
f 70 94 93
f 70 93 92
f 70 92 90
f 70 90 119
f 70 119 88
f 70 88 87
f 70 87 118
f 70 118 115
f 70 115 83
f 70 83 116
f 70 116 112
f 70 112 79
f 70 79 111
f 70 111 77
f 70 77 76
f 70 76 110
f 70 110 109
f 70 109 105
f 71 105 74
f 71 74 72
f 73 106 103
f 73 103 107
f 73 107 108
f 73 98 100
f 73 100 106
f 74 105 109
f 74 109 110
f 74 110 75
f 75 110 76
f 77 111 78
f 78 111 79
f 79 112 113
f 79 113 80
f 81 114 101
f 81 97 114
f 83 115 84
f 84 115 117
f 84 117 85
f 85 117 118
f 85 118 87
f 85 87 86
f 88 119 89
f 89 119 90
f 90 92 91
f 94 120 121
f 94 121 96
f 94 96 95
f 96 114 97
f 96 121 114
f 99 104 106
f 99 106 100
f 101 114 121
f 101 121 122
f 101 122 103
f 103 122 121
f 103 121 107
f 103 106 104
f 107 121 123
f 107 123 108
f 108 123 124
f 112 116 113
f 115 118 117
f 120 124 123
f 120 123 121

