# https://github.com/mikedh/trimesh
v -0.01520199 0.01683396 0.05130306
v -0.01457953 0.01735512 0.05130306
v -0.01146953 0.01683396 0.05130306
v -0.01679733 0.01683396 0.05475251
v -0.01758578 0.01781977 0.05658732
v -0.01880535 0.01888249 0.05955238
v -0.01746590 0.01901436 0.05737367
v -0.01794773 0.01982906 0.05904912
v -0.01665209 0.01977255 0.05750368
v -0.01705323 0.02084783 0.05977256
v 0.00103272 0.02446455 0.05130306
v -0.01131737 0.01683396 0.05276043
v -0.00450488 0.01963284 0.05130306
v -0.00433428 0.01963912 0.05186294
v -0.00571522 0.01904261 0.05228861
v -0.01774486 0.01683396 0.05688719
v -0.01902436 0.01811332 0.05980192
v -0.02014249 0.01886994 0.06250906
v -0.01966065 0.01950098 0.06180029
v -0.01934251 0.02028115 0.06197014
v -0.01816905 0.02075992 0.06083151
v -0.01843187 0.02140980 0.06236646
v -0.01768722 0.02166568 0.06207290
v 0.00012900 0.02926644 0.06095942
v 0.00101658 0.02944539 0.06051907
v 0.00126787 0.02914714 0.05986064
v 0.00126787 0.02445827 0.05130306
v -0.01994652 0.01683396 0.07200396
v -0.00503973 0.01932360 0.05396406
v -0.00701317 0.01857796 0.05395568
v -0.00426281 0.01975057 0.05130306
v 0.00126787 0.02272526 0.05130306
v -0.02057360 0.01683396 0.06494359
v -0.02054824 0.01723896 0.06449275
v -0.02063354 0.01829698 0.06386997
v -0.02093093 0.01913837 0.06515119
v -0.02029233 0.01996563 0.06380496
v -0.02025776 0.02088080 0.06497924
v -0.01937017 0.02098126 0.06311717
v -0.01907508 0.02197335 0.06480100
v -0.01828663 0.02225276 0.06437742
v -0.00024909 0.03196014 0.06765283
v 0.00048173 0.03074986 0.06379448
v 0.00126787 0.03109206 0.06420337
v 0.00126787 0.03104340 0.06409224
v 0.00126787 0.02969655 0.06102233
v -0.01999724 0.01683396 0.07210252
v -0.00626160 0.01911011 0.05548014
v -0.00580282 0.01967993 0.05691025
v 0.00126787 0.02300311 0.05289253
v -0.00449566 0.02009749 0.05596663
v -0.02202139 0.01683396 0.06960926
v -0.02184388 0.01808035 0.06870968
v -0.02193609 0.01924354 0.06955684
v -0.02133899 0.02006766 0.06766331
v -0.02081105 0.02063434 0.06625208
v -0.02017015 0.02177713 0.06654565
v -0.01967679 0.02245369 0.06746411
v -0.01877768 0.02294660 0.06758153
v -0.00086002 0.03236514 0.07016705
v 0.00058778 0.03236200 0.06791914
v 0.00065002 0.03167759 0.06592286
v 0.00126787 0.03110305 0.06423064
v -0.02047216 0.01683396 0.07266869
v -0.00562531 0.02050876 0.05889185
v 0.00126787 0.02969184 0.07107292
v 0.00126787 0.03010312 0.07206058
v 0.00126787 0.03013137 0.07211929
v -0.02226808 0.01683396 0.07067870
v -0.02227730 0.01706943 0.07069757
v -0.02213436 0.01906459 0.07060531
v -0.02121450 0.02115393 0.06904729
v -0.02052057 0.02221666 0.06909762
v -0.01987045 0.02286026 0.06991751
v -0.01839037 0.02357921 0.06973089
v -0.00050960 0.03253153 0.07122390
v 0.00047251 0.03282979 0.07082129
v 0.00096817 0.03287060 0.06990702
v -0.01828893 0.02369694 0.07088629
v 0.00126787 0.03250956 0.06849999
v 0.00126787 0.03230078 0.06768638
v 0.00126787 0.03214380 0.06722715
v -0.02111767 0.01683396 0.07271482
v 0.00126787 0.03065881 0.07239398
v 0.00126787 0.03069178 0.07239819
v -0.02228421 0.01683396 0.07075419
v -0.02226808 0.01761099 0.07116938
v -0.02201909 0.01904418 0.07138956
v -0.02166867 0.02046638 0.07094501
v -0.02089405 0.02190428 0.07080242
v -0.01949928 0.02309101 0.07099324
v -0.00190668 0.03143584 0.07183411
v 0.00027193 0.03249229 0.07172716
v -0.01896903 0.02311299 0.07175023
v 0.00126787 0.03270106 0.07095549
v 0.00126787 0.03278583 0.07024254
v 0.00126787 0.03279525 0.06996784
v 0.00126787 0.03276856 0.06969104
v -0.02033153 0.01957319 0.07272530
v -0.02111076 0.01728134 0.07271273
v -0.02120528 0.01683396 0.07269175
v 0.00126787 0.03134323 0.07234366
v 0.00042640 0.03122549 0.07241915
v -0.02228421 0.01683396 0.07123648
v -0.02222197 0.01683396 0.07161603
v -0.02220813 0.01683396 0.07166635
v -0.02174013 0.01772559 0.07226608
v -0.02143121 0.02015086 0.07190330
v -0.02035228 0.02211933 0.07173975
v -0.00067789 0.03162578 0.07222623
v 0.00113185 0.03222229 0.07196202
v 0.00126787 0.03227723 0.07182572
v -0.01997188 0.02177242 0.07228495
v -0.01808606 0.02294346 0.07229124
v -0.01950850 0.02143963 0.07261626
v -0.02088713 0.02006766 0.07243383
v -0.02172861 0.01683396 0.07235415
v 0.00126787 0.03213595 0.07199557
v -0.02216433 0.01683396 0.07174394
v -0.02184157 0.01683396 0.07225140
v 0.00126787 0.03220973 0.07194315
f 1 2 11
f 1 11 27
f 1 27 32
f 1 32 31
f 1 31 13
f 1 13 3
f 1 3 12
f 1 12 28
f 1 28 47
f 1 47 64
f 1 64 83
f 1 83 101
f 1 101 117
f 1 117 120
f 1 120 119
f 1 119 106
f 1 106 105
f 1 105 104
f 1 104 86
f 1 86 69
f 1 69 52
f 1 52 33
f 1 33 16
f 1 16 4
f 1 4 5
f 1 5 6
f 1 6 7
f 1 7 8
f 1 8 2
f 2 8 9
f 2 9 10
f 2 10 11
f 3 13 14
f 3 14 15
f 3 15 12
f 4 16 17
f 4 17 5
f 5 17 6
f 6 8 7
f 6 17 18
f 6 18 19
f 6 19 20
f 6 20 8
f 8 20 21
f 8 21 9
f 9 21 10
f 10 21 22
f 10 22 23
f 10 23 24
f 10 24 25
f 10 25 11
f 11 25 26
f 11 26 27
f 12 15 29
f 12 29 30
f 12 30 28
f 13 31 14
f 14 31 32
f 14 32 29
f 14 29 15
f 16 33 34
f 16 34 35
f 16 35 17
f 17 35 18
f 18 35 36
f 18 36 37
f 18 37 19
f 19 37 20
f 20 37 38
f 20 38 39
f 20 39 21
f 21 39 22
f 22 40 41
f 22 41 23
f 22 39 40
f 23 41 42
f 23 42 43
f 23 43 24
f 24 43 25
f 25 43 44
f 25 44 45
f 25 45 46
f 25 46 26
f 26 46 45
f 26 45 44
f 26 44 63
f 26 63 82
f 26 82 81
f 26 81 80
f 26 80 98
f 26 98 97
f 26 97 96
f 26 96 95
f 26 95 112
f 26 112 121
f 26 121 118
f 26 118 102
f 26 102 85
f 26 85 84
f 26 84 68
f 26 68 67
f 26 67 66
f 26 66 50
f 26 50 32
f 26 32 27
f 28 30 48
f 28 48 47
f 29 49 48
f 29 48 30
f 29 32 50
f 29 50 51
f 29 51 49
f 33 52 34
f 34 52 35
f 35 52 53
f 35 53 36
f 36 53 54
f 36 54 55
f 36 55 56
f 36 56 37
f 37 56 38
f 38 57 39
f 38 56 57
f 39 57 40
f 40 57 58
f 40 58 41
f 41 58 59
f 41 59 42
f 42 60 61
f 42 61 62
f 42 62 43
f 42 59 60
f 43 62 44
f 44 62 63
f 47 48 49
f 47 49 51
f 47 51 65
f 47 65 66
f 47 66 67
f 47 67 68
f 47 68 64
f 50 66 51
f 51 66 65
f 52 69 53
f 53 69 70
f 53 70 54
f 54 70 71
f 54 71 72
f 54 72 55
f 55 72 56
f 56 72 57
f 57 72 73
f 57 73 58
f 58 73 74
f 58 74 59
f 59 74 75
f 59 75 60
f 60 76 77
f 60 77 78
f 60 78 61
f 60 75 74
f 60 74 79
f 60 79 76
f 61 78 80
f 61 80 81
f 61 81 82
f 61 82 62
f 62 82 63
f 64 68 84
f 64 84 85
f 64 85 83
f 69 86 70
f 70 86 87
f 70 87 71
f 71 88 89
f 71 89 72
f 71 87 88
f 72 89 90
f 72 90 73
f 73 90 74
f 74 91 79
f 74 90 91
f 76 92 93
f 76 93 77
f 76 79 91
f 76 91 94
f 76 94 92
f 77 93 95
f 77 95 78
f 78 95 96
f 78 96 97
f 78 97 98
f 78 98 80
f 83 99 100
f 83 100 101
f 83 85 99
f 85 102 103
f 85 103 99
f 86 104 87
f 87 104 105
f 87 105 106
f 87 106 88
f 88 106 107
f 88 107 108
f 88 108 89
f 89 108 90
f 90 109 91
f 90 108 109
f 91 109 94
f 92 110 93
f 92 94 110
f 93 110 111
f 93 111 112
f 93 112 95
f 94 109 113
f 94 113 114
f 94 114 110
f 99 115 116
f 99 116 100
f 99 103 115
f 100 107 117
f 100 117 101
f 100 116 107
f 102 118 111
f 102 111 103
f 103 111 110
f 103 110 115
f 106 119 107
f 107 120 117
f 107 116 108
f 107 119 120
f 108 116 113
f 108 113 109
f 110 114 115
f 111 118 121
f 111 121 112
f 113 116 115
f 113 115 114

