# https://github.com/mikedh/trimesh
v 0.05139460 0.00607380 -0.03249979
v 0.05097744 0.00530163 -0.03212956
v 0.05107246 0.00530163 -0.03272107
v 0.05080362 0.00530163 -0.03443176
v 0.05119529 0.00619497 -0.03400196
v 0.05119761 0.00667963 -0.03293810
v 0.05091950 0.00643935 -0.03079335
v 0.05086388 0.00610461 -0.03002737
v 0.05076190 0.00530163 -0.03115081
v 0.05074568 0.00530163 -0.03474241
v 0.05068311 0.00587870 -0.03610840
v 0.04971668 0.00581504 -0.03948723
v 0.04966801 0.00591156 -0.03948723
v 0.05020801 0.00709242 -0.03568712
v 0.03916481 0.02628179 -0.03577648
v 0.03933631 0.02628179 -0.03470411
v 0.05003419 0.00643524 -0.02735070
v 0.03929228 0.02628179 -0.03449559
v 0.05039110 0.00559325 -0.02898053
v 0.05050233 0.00530163 -0.03002312
v 0.04942004 0.00608612 -0.02479318
v 0.04991136 0.00530163 -0.03793824
v 0.04948029 0.00530163 -0.03948723
v 0.03781831 0.02628179 -0.03948723
v 0.04909557 0.00636337 -0.02407401
v 0.02877749 0.02628179 0.00397788
v 0.05021728 0.00530163 -0.02892521
v 0.04911644 0.00558503 -0.02443572
v 0.04916047 0.00530163 -0.02513787
v 0.04592746 0.00602041 -0.01320135
v 0.04749182 0.00596906 -0.01847810
v 0.04535734 0.00567128 -0.01168641
v 0.04756135 0.00530163 -0.03948723
v 0.03636751 0.02628179 -0.03948723
v 0.02772067 0.02628179 0.00397788
v 0.04026102 0.00560967 0.00397788
v 0.04202237 0.00591567 -0.00146909
v 0.04474087 0.00606353 -0.00967359
v 0.04618471 0.00534270 -0.01490353
v 0.04624265 0.00530163 -0.01519290
v 0.04441178 0.00568155 -0.00871186
v 0.04467134 0.00530163 -0.01016722
v 0.04370492 0.00548029 -0.00682670
v 0.04176048 0.01531732 -0.03948723
v 0.03852980 0.00530163 0.00397788
v 0.03230945 0.01251818 0.00397788
v 0.03182740 0.01309526 0.00397788
v 0.03153075 0.01346902 0.00397788
v 0.03049017 0.01504418 0.00397788
v 0.03045308 0.01510373 0.00397788
v 0.03655986 0.02579097 -0.03948723
v 0.02982502 0.01623735 0.00397788
v 0.02966048 0.01666041 0.00397788
v 0.02940323 0.01736892 0.00397788
v 0.02904400 0.01861754 0.00397788
v 0.02899997 0.01882291 0.00397788
v 0.04011038 0.00530163 0.00397788
v 0.04241867 0.00548440 -0.00285211
v 0.04614068 0.00530163 -0.01484821
v 0.04616386 0.00530163 -0.01492480
v 0.04385788 0.00530163 -0.00761395
v 0.04106753 0.01654746 -0.03948723
v 0.03836989 0.02199786 -0.03948723
v 0.03982763 0.01899336 -0.03948723
f 1 2 3
f 1 3 4
f 1 4 5
f 1 5 6
f 1 6 7
f 1 7 8
f 1 8 2
f 2 8 9
f 2 9 20
f 2 20 27
f 2 27 29
f 2 29 40
f 2 40 60
f 2 60 59
f 2 59 42
f 2 42 61
f 2 61 57
f 2 57 45
f 2 45 33
f 2 33 23
f 2 23 22
f 2 22 10
f 2 10 4
f 2 4 3
f 4 10 5
f 5 10 11
f 5 11 12
f 5 12 13
f 5 13 14
f 5 14 15
f 5 15 6
f 6 15 16
f 6 16 7
f 7 17 8
f 7 16 18
f 7 18 17
f 8 19 20
f 8 20 9
f 8 17 21
f 8 21 19
f 10 22 11
f 11 22 12
f 12 22 23
f 12 23 33
f 12 33 44
f 12 44 62
f 12 62 64
f 12 64 63
f 12 63 51
f 12 51 34
f 12 34 24
f 12 24 13
f 13 24 15
f 13 15 14
f 15 24 34
f 15 34 35
f 15 35 26
f 15 26 18
f 15 18 16
f 17 25 21
f 17 18 26
f 17 26 25
f 19 27 20
f 19 21 28
f 19 28 29
f 19 29 27
f 21 25 30
f 21 30 31
f 21 31 32
f 21 32 28
f 25 26 30
f 26 35 56
f 26 56 55
f 26 55 54
f 26 54 53
f 26 53 52
f 26 52 50
f 26 50 49
f 26 49 48
f 26 48 47
f 26 47 46
f 26 46 45
f 26 45 57
f 26 57 36
f 26 36 37
f 26 37 38
f 26 38 30
f 28 32 39
f 28 39 29
f 29 39 40
f 30 38 36
f 30 36 41
f 30 41 32
f 30 32 31
f 32 42 39
f 32 41 43
f 32 43 42
f 33 45 46
f 33 46 47
f 33 47 48
f 33 48 49
f 33 49 50
f 33 50 44
f 34 51 52
f 34 52 53
f 34 53 54
f 34 54 55
f 34 55 56
f 34 56 35
f 36 57 58
f 36 58 41
f 36 38 37
f 39 42 59
f 39 59 60
f 39 60 40
f 41 58 43
f 42 43 61
f 43 58 57
f 43 57 61
f 44 50 62
f 50 52 62
f 51 63 52
f 52 63 64
f 52 64 62

