# https://github.com/mikedh/trimesh
v -0.04529022 -0.00312259 -0.02932863
v -0.04352103 -0.00312259 -0.02932863
v -0.04537357 -0.00312259 -0.02873845
v -0.04523339 -0.00273546 -0.02932863
v -0.03581158 0.01493736 -0.02932863
v -0.03250618 0.01234508 -0.01673601
v -0.03148141 0.01135863 -0.01216459
v -0.03313885 -0.00312259 0.00398213
v -0.04531295 -0.00271826 -0.02871562
v -0.04521256 -0.00312259 -0.02792003
v -0.04511974 -0.00218776 -0.02932863
v -0.03529635 0.01669804 -0.02932863
v -0.03242662 0.01415738 -0.01822939
v -0.03159885 0.01315946 -0.01474376
v -0.03045854 0.01266624 -0.01025711
v -0.03032784 0.01121239 -0.00785727
v -0.02860789 0.01008830 0.00013783
v -0.02693341 0.01165973 0.00398213
v -0.03493267 -0.00312259 0.00398213
v -0.03555965 0.02617249 -0.02925037
v -0.03557102 0.02617249 -0.02932863
v -0.04462725 -0.00070523 -0.02932863
v -0.04474469 -0.00288458 -0.02607776
v -0.03487395 0.02617249 -0.02573539
v -0.03516187 0.02617249 -0.02716682
v -0.04496063 -0.00312259 -0.02682119
v -0.03491562 0.01861071 -0.02932863
v -0.02602229 0.02617249 -0.00097731
v -0.03097187 0.01447568 -0.01313952
v -0.02667390 0.01319388 0.00398213
v -0.02672315 0.01289852 0.00398213
v -0.03500275 -0.00299928 0.00398213
v -0.03530772 -0.00306810 0.00301046
v -0.03513914 -0.00312259 0.00339848
v -0.03518081 0.02617249 -0.02932863
v -0.04446624 -0.00312259 -0.02497566
v -0.04322932 -0.00281862 -0.02094224
v -0.04372749 -0.00264083 -0.02282690
v -0.02837490 0.02617249 -0.00066755
v -0.03402344 0.02617249 -0.02230846
v -0.03465611 0.02097072 -0.02932863
v -0.02602229 0.02617249 0.00398213
v -0.02602229 0.02420820 0.00398213
v -0.03423370 0.02533803 -0.02932863
v -0.03415983 0.02617249 -0.02932210
v -0.03540054 -0.00195549 0.00398213
v -0.03618095 -0.00281289 0.00078018
v -0.03726823 -0.00287024 -0.00250003
v -0.03725497 -0.00312259 -0.00280653
v -0.03533613 -0.00312259 0.00283764
v -0.04396617 -0.00312259 -0.02327035
v -0.03549714 -0.00145653 0.00398213
v -0.03618853 -0.00153395 0.00172250
v -0.03564300 -0.00112102 0.00322566
v -0.02819495 0.02605205 0.00005631
v -0.02822526 0.02617249 -0.00024041
v -0.02629127 0.02617249 0.00398213
v -0.03545736 -0.00173468 0.00398213
v -0.03575097 -0.00196982 0.00292894
v -0.03685340 -0.00194402 -0.00034801
v -0.04149422 -0.00312259 -0.01545784
v -0.04262127 -0.00312259 -0.01901194
v -0.04078200 -0.00276987 -0.01306126
v -0.03800508 -0.00212467 -0.00405536
v -0.03544031 -0.00121852 0.00398213
v -0.02716261 0.02523479 0.00398213
v -0.02699213 0.02567066 0.00398213
v -0.02738423 0.02617249 0.00194423
v -0.02664359 0.02617249 0.00336913
v -0.02640302 0.02611227 0.00398213
f 1 2 8
f 1 8 19
f 1 19 34
f 1 34 50
f 1 50 49
f 1 49 61
f 1 61 62
f 1 62 51
f 1 51 36
f 1 36 26
f 1 26 10
f 1 10 3
f 1 3 4
f 1 4 11
f 1 11 22
f 1 22 21
f 1 21 35
f 1 35 44
f 1 44 41
f 1 41 27
f 1 27 12
f 1 12 5
f 1 5 2
f 2 5 6
f 2 6 7
f 2 7 8
f 3 9 4
f 3 10 9
f 4 9 11
f 5 12 13
f 5 13 14
f 5 14 6
f 6 14 7
f 7 14 15
f 7 15 16
f 7 16 8
f 8 16 17
f 8 17 18
f 8 18 31
f 8 31 30
f 8 30 43
f 8 43 42
f 8 42 57
f 8 57 70
f 8 70 67
f 8 67 66
f 8 66 65
f 8 65 52
f 8 52 58
f 8 58 46
f 8 46 32
f 8 32 19
f 9 20 21
f 9 21 22
f 9 22 11
f 9 10 23
f 9 23 24
f 9 24 25
f 9 25 20
f 10 26 23
f 12 27 13
f 13 27 28
f 13 28 29
f 13 29 14
f 14 29 15
f 15 29 28
f 15 28 30
f 15 30 31
f 15 31 18
f 15 18 16
f 16 18 17
f 19 32 33
f 19 33 34
f 20 25 24
f 20 24 40
f 20 40 39
f 20 39 56
f 20 56 68
f 20 68 69
f 20 69 57
f 20 57 42
f 20 42 28
f 20 28 45
f 20 45 35
f 20 35 21
f 23 36 37
f 23 37 38
f 23 38 39
f 23 39 40
f 23 40 24
f 23 26 36
f 27 41 28
f 28 42 43
f 28 43 30
f 28 41 44
f 28 44 45
f 32 46 47
f 32 47 33
f 33 47 48
f 33 48 49
f 33 49 50
f 33 50 34
f 35 45 44
f 36 51 37
f 37 51 52
f 37 52 53
f 37 53 54
f 37 54 38
f 38 54 39
f 39 54 55
f 39 55 56
f 46 58 59
f 46 59 48
f 46 48 47
f 48 59 60
f 48 60 61
f 48 61 49
f 51 62 63
f 51 63 64
f 51 64 52
f 52 65 54
f 52 54 53
f 52 64 60
f 52 60 58
f 54 65 55
f 55 65 66
f 55 66 67
f 55 67 56
f 56 67 68
f 57 69 70
f 58 60 59
f 60 64 63
f 60 63 61
f 61 63 62
f 67 70 69
f 67 69 68

