# https://github.com/mikedh/trimesh
v 0.00580257 -0.03088652 -0.06787333
v 0.00580257 -0.02847880 -0.06787333
v 0.00580257 -0.03069629 -0.06832027
v 0.02821811 -0.01978277 -0.07120249
v 0.02916705 -0.02033443 -0.06877451
v 0.02948838 -0.02054368 -0.06787333
v 0.03144651 -0.00721701 -0.06787333
v 0.00580257 -0.00312716 -0.06880043
v 0.00580257 -0.03057944 -0.06858973
v 0.02598133 -0.02023660 -0.07165106
v 0.02852438 -0.01894578 -0.07176613
v 0.02899383 -0.01953276 -0.07083862
v 0.00580257 -0.03012833 -0.06951077
v 0.00580257 -0.02965548 -0.07047312
v 0.00580257 -0.02961472 -0.07055376
v 0.00580257 -0.02936199 -0.07089454
v 0.00580257 -0.02905220 -0.07129447
v 0.02993524 -0.02007083 -0.06787333
v 0.03144902 -0.00918449 -0.06787333
v 0.03144902 -0.00603217 -0.06864930
v 0.03144902 -0.00312716 -0.06991678
v 0.00580257 -0.00312716 -0.07030334
v 0.00580257 -0.02820162 -0.07178072
v 0.02681478 -0.01753267 -0.07197563
v 0.02902647 -0.01554346 -0.07192822
v 0.02965156 -0.01534780 -0.07177383
v 0.02922730 -0.01811150 -0.07140023
v 0.02602902 -0.01960885 -0.07186703
v 0.03008084 -0.01970125 -0.06787333
v 0.02980721 -0.01900013 -0.06927291
v 0.03144902 -0.01427982 -0.06787333
v 0.03144902 -0.00312716 -0.07195253
v 0.00580257 -0.00316249 -0.07031307
v 0.01109956 -0.00312716 -0.07161944
v 0.00580257 -0.02770975 -0.07186379
v 0.00645277 -0.02702765 -0.07192173
v 0.02741980 -0.01339391 -0.07200885
v 0.03016118 -0.00806215 -0.07198575
v 0.03002059 -0.01149437 -0.07194442
v 0.03144902 -0.00713548 -0.07193024
v 0.03112016 -0.00956494 -0.07182043
v 0.03144902 -0.00858392 -0.07178923
v 0.03123061 -0.00987745 -0.07165024
v 0.03049506 -0.01314390 -0.07145696
v 0.03132852 -0.01090739 -0.07091641
v 0.03034193 -0.01877458 -0.06787333
v 0.03050008 -0.01571194 -0.06973038
v 0.03073104 -0.01726908 -0.06787333
v 0.03140383 -0.01447819 -0.06787333
v 0.03144902 -0.01412220 -0.06800502
v 0.03144902 -0.00387447 -0.07196306
v 0.03051263 -0.00312716 -0.07196184
v 0.00580257 -0.00531203 -0.07081269
v 0.01143846 -0.00312716 -0.07167131
v 0.00580257 -0.00929319 -0.07162675
v 0.00580257 -0.00836108 -0.07150032
v 0.00580257 -0.00814640 -0.07146182
v 0.00580257 -0.02721788 -0.07192092
v 0.02099061 -0.01191558 -0.07201250
v 0.03112518 -0.00437178 -0.07197319
v 0.03119547 -0.00769257 -0.07193632
v 0.03144902 -0.00416525 -0.07196023
v 0.03144902 -0.00923612 -0.07151936
v 0.03144902 -0.01032856 -0.07095937
v 0.03144902 -0.01129871 -0.07020529
v 0.02552694 -0.00312716 -0.07197239
v 0.01420495 -0.00312716 -0.07182691
v 0.00580257 -0.01267105 -0.07174060
v 0.00580257 -0.01396459 -0.07176005
v 0.01365516 -0.01210037 -0.07193997
v 0.01758648 -0.00715179 -0.07195657
v 0.02524828 -0.00312716 -0.07197239
v 0.01736807 -0.00312716 -0.07191606
f 1 2 8
f 1 8 22
f 1 22 33
f 1 33 53
f 1 53 57
f 1 57 56
f 1 56 55
f 1 55 68
f 1 68 69
f 1 69 58
f 1 58 35
f 1 35 23
f 1 23 17
f 1 17 16
f 1 16 15
f 1 15 14
f 1 14 13
f 1 13 9
f 1 9 3
f 1 3 4
f 1 4 5
f 1 5 6
f 1 6 18
f 1 18 29
f 1 29 46
f 1 46 48
f 1 48 49
f 1 49 31
f 1 31 19
f 1 19 7
f 1 7 2
f 2 7 8
f 3 9 4
f 4 10 11
f 4 11 12
f 4 12 5
f 4 9 13
f 4 13 14
f 4 14 15
f 4 15 16
f 4 16 17
f 4 17 10
f 5 12 6
f 6 12 18
f 7 19 20
f 7 20 21
f 7 21 8
f 8 21 32
f 8 32 52
f 8 52 66
f 8 66 72
f 8 72 73
f 8 73 67
f 8 67 54
f 8 54 34
f 8 34 22
f 10 17 23
f 10 23 11
f 11 24 25
f 11 25 26
f 11 26 27
f 11 27 12
f 11 23 28
f 11 28 24
f 12 29 18
f 12 27 30
f 12 30 29
f 19 31 50
f 19 50 65
f 19 65 64
f 19 64 63
f 19 63 42
f 19 42 40
f 19 40 62
f 19 62 51
f 19 51 32
f 19 32 21
f 19 21 20
f 22 34 33
f 23 35 28
f 24 28 36
f 24 36 37
f 24 37 25
f 25 37 38
f 25 38 39
f 25 39 40
f 25 40 26
f 26 40 41
f 26 41 42
f 26 42 43
f 26 43 27
f 27 43 44
f 27 44 45
f 27 45 30
f 28 35 36
f 29 30 46
f 30 45 47
f 30 47 48
f 30 48 46
f 31 49 50
f 32 51 52
f 33 34 53
f 34 54 55
f 34 55 56
f 34 56 57
f 34 57 53
f 35 58 36
f 36 58 37
f 37 59 60
f 37 60 38
f 37 58 59
f 38 61 39
f 38 60 51
f 38 51 62
f 38 62 40
f 38 40 61
f 39 61 40
f 40 42 41
f 42 63 43
f 43 63 45
f 43 45 44
f 45 63 64
f 45 64 65
f 45 65 50
f 45 50 49
f 45 49 48
f 45 48 47
f 51 60 52
f 52 60 66
f 54 67 55
f 55 67 68
f 58 69 70
f 58 70 59
f 59 70 71
f 59 71 72
f 59 72 66
f 59 66 60
f 67 73 68
f 68 73 69
f 69 73 70
f 70 73 71
f 71 73 72

