# https://github.com/mikedh/trimesh
v 0.00403880 -0.03463659 0.00398520
v 0.00387101 -0.03458862 0.00398520
v 0.00500278 -0.03413669 0.00398520
v 0.00411776 -0.03386275 0.00656530
v 0.00374846 -0.03158764 0.01392118
v 0.00366703 -0.03262614 0.01041237
v 0.00387677 -0.03449111 0.00432655
v 0.00329362 -0.03052283 0.01702098
v 0.00260107 -0.02911752 0.02057283
v 0.00264960 -0.03310438 0.00670676
v 0.00179420 -0.03336903 0.00398520
v 0.00520922 -0.03397573 0.00398520
v 0.00521334 -0.03391692 0.00415127
v 0.00495260 -0.03305021 0.00731872
v 0.00411694 -0.03273913 0.01007410
v 0.00365058 -0.03068379 0.01676573
v 0.00312089 -0.02941778 0.02048980
v 0.00140104 -0.03311831 0.00398520
v 0.00204424 -0.02756674 0.02469360
v 0.00526433 -0.03392930 0.00398520
v 0.00980372 -0.02402871 0.02215041
v 0.00980372 -0.01953422 0.03539837
v 0.00702942 -0.02578225 0.02370339
v 0.00509572 -0.02839321 0.02029914
v 0.00526844 -0.02634406 0.02555466
v 0.00390885 -0.02865786 0.02171373
v 0.00377807 -0.02722470 0.02570534
v 0.00347046 -0.02990840 0.01909366
v 0.00294652 -0.02815796 0.02430305
v 0.00140104 -0.03164027 0.00398520
v 0.00140104 -0.03067915 0.01239588
v 0.00140104 -0.02701421 0.02485044
v 0.00140104 -0.02778187 0.02231032
v 0.00250073 -0.02712255 0.02687699
v 0.00183121 -0.02631466 0.02793486
v 0.00140104 -0.02620941 0.02725524
v 0.00770058 -0.03178729 0.00398520
v 0.00980372 -0.02440635 0.02100336
v 0.00980372 -0.01882692 0.03539837
v 0.00445664 -0.02292676 0.03539837
v 0.00443525 -0.02315582 0.03487559
v 0.00310033 -0.02693218 0.02729522
v 0.00425019 -0.02305057 0.03539837
v 0.00308799 -0.02365572 0.03539837
v 0.00254596 -0.02386002 0.03539837
v 0.00980372 -0.02706683 0.00771850
v 0.00980372 -0.02826010 0.00398520
v 0.00140104 -0.02207707 0.03539837
v 0.00980372 -0.02059284 0.02825161
v 0.00217090 -0.02378263 0.03539837
v 0.00187563 -0.02370680 0.03539837
v 0.00140104 -0.02343130 0.03539837
v 0.00140104 -0.02489542 0.03110847
v 0.00980372 -0.02985577 0.00398520
v 0.00912022 -0.01903277 0.03539837
v 0.00980372 -0.01948315 0.03244310
v 0.00294406 -0.02371453 0.03539837
v 0.00972887 -0.01947386 0.03259071
v 0.00980372 -0.01962089 0.03189879
f 1 2 11
f 1 11 18
f 1 18 30
f 1 30 47
f 1 47 54
f 1 54 37
f 1 37 20
f 1 20 12
f 1 12 3
f 1 3 4
f 1 4 5
f 1 5 6
f 1 6 7
f 1 7 2
f 2 7 6
f 2 6 8
f 2 8 9
f 2 9 10
f 2 10 11
f 3 12 13
f 3 13 14
f 3 14 15
f 3 15 4
f 4 15 5
f 5 15 16
f 5 16 17
f 5 17 8
f 5 8 6
f 8 17 9
f 9 18 11
f 9 11 10
f 9 17 19
f 9 19 18
f 12 20 13
f 13 20 21
f 13 21 22
f 13 22 23
f 13 23 14
f 14 23 15
f 15 24 16
f 15 23 24
f 16 24 25
f 16 25 26
f 16 26 27
f 16 27 28
f 16 28 17
f 17 28 29
f 17 29 19
f 18 19 31
f 18 31 33
f 18 33 32
f 18 32 36
f 18 36 53
f 18 53 52
f 18 52 48
f 18 48 30
f 19 32 33
f 19 33 31
f 19 29 34
f 19 34 35
f 19 35 36
f 19 36 32
f 20 37 38
f 20 38 21
f 21 38 54
f 21 54 47
f 21 47 46
f 21 46 49
f 21 49 59
f 21 59 56
f 21 56 39
f 21 39 22
f 22 39 55
f 22 55 48
f 22 48 52
f 22 52 51
f 22 51 50
f 22 50 45
f 22 45 57
f 22 57 44
f 22 44 43
f 22 43 40
f 22 40 41
f 22 41 25
f 22 25 23
f 23 25 24
f 25 27 26
f 25 41 27
f 27 42 29
f 27 29 28
f 27 41 43
f 27 43 44
f 27 44 42
f 29 42 45
f 29 45 34
f 30 46 47
f 30 48 49
f 30 49 46
f 34 45 50
f 34 50 51
f 34 51 52
f 34 52 35
f 35 53 36
f 35 52 53
f 37 54 38
f 39 56 55
f 40 43 41
f 42 44 57
f 42 57 45
f 48 55 58
f 48 58 59
f 48 59 49
f 55 56 58
f 56 59 58

