# https://github.com/mikedh/trimesh
v -0.02256945 -0.01931083 0.03539929
v -0.02256945 -0.01780023 0.03539929
v -0.02083493 -0.02180623 0.03539929
v -0.02256945 -0.01631379 0.03838640
v -0.02256945 -0.01377149 0.03907390
v -0.01911991 -0.00843680 0.03539929
v -0.02081055 -0.02183749 0.03539929
v -0.02256945 -0.01485719 0.03977794
v -0.02256945 -0.01363934 0.03928805
v -0.02256945 -0.01354270 0.04019338
v -0.02256945 -0.01355833 0.04049668
v -0.01883468 -0.00843680 0.03661068
v -0.01774983 -0.00843680 0.03539929
v -0.02079714 -0.02185454 0.03539929
v -0.01903580 -0.01368339 0.04478802
v -0.02256945 -0.01419924 0.04036801
v -0.02256945 -0.01403013 0.04048933
v -0.02140295 -0.01330254 0.04211616
v -0.01667475 -0.00843680 0.04478802
v -0.01681005 -0.00843680 0.04431560
v -0.01820328 -0.00843680 0.03914559
v -0.01543876 -0.00843680 0.04478802
v -0.01011816 -0.01942877 0.03539929
v -0.01972205 -0.02295303 0.03539929
v -0.01914794 -0.02243008 0.03661711
v -0.01940635 -0.01308512 0.04478802
v -0.02206604 -0.01398892 0.04110973
v -0.01735612 -0.02196823 0.03850589
v -0.01665159 -0.02132448 0.03957573
v -0.01516206 -0.02119232 0.04065937
v -0.01023762 -0.01987783 0.04478802
v -0.01942464 -0.01305528 0.04478802
v -0.01928446 -0.01263322 0.04478802
v -0.01011816 -0.01655821 0.04478802
v -0.01011816 -0.02032263 0.03539929
v -0.01932834 -0.02277966 0.03594984
v -0.01011816 -0.02037947 0.04408490
v -0.01011816 -0.02036384 0.04412166
v -0.01359575 -0.02089248 0.04185789
v -0.01011816 -0.01992046 0.04478802
f 1 2 6
f 1 6 13
f 1 13 23
f 1 23 35
f 1 35 24
f 1 24 14
f 1 14 7
f 1 7 3
f 1 3 4
f 1 4 8
f 1 8 16
f 1 16 17
f 1 17 11
f 1 11 10
f 1 10 9
f 1 9 5
f 1 5 2
f 2 5 6
f 3 7 8
f 3 8 4
f 5 9 6
f 6 9 10
f 6 10 11
f 6 11 12
f 6 12 21
f 6 21 20
f 6 20 19
f 6 19 22
f 6 22 13
f 7 14 8
f 8 15 16
f 8 14 15
f 11 17 18
f 11 18 19
f 11 19 20
f 11 20 21
f 11 21 12
f 13 22 23
f 14 24 25
f 14 25 15
f 15 26 27
f 15 27 16
f 15 25 28
f 15 28 29
f 15 29 30
f 15 30 31
f 15 31 40
f 15 40 34
f 15 34 22
f 15 22 19
f 15 19 33
f 15 33 32
f 15 32 26
f 16 27 17
f 17 27 32
f 17 32 18
f 18 32 33
f 18 33 19
f 22 34 23
f 23 34 40
f 23 40 38
f 23 38 37
f 23 37 35
f 24 36 25
f 24 35 37
f 24 37 36
f 25 36 28
f 26 32 27
f 28 36 37
f 28 37 38
f 28 38 39
f 28 39 30
f 28 30 29
f 30 39 31
f 31 39 40
f 38 40 39

