# https://github.com/mikedh/trimesh
v 0.03309432 0.03317484 -0.01776864
v 0.03292802 0.03317484 -0.01724031
v 0.03309432 0.03317484 -0.02247785
v 0.03309432 0.03379252 -0.01884975
v 0.03255835 0.03317484 -0.01612866
v 0.02227426 0.03317484 -0.01349004
v 0.03309432 0.03457981 -0.03949148
v 0.03309432 0.03468275 -0.02119214
v 0.03287823 0.03363283 -0.01792745
v 0.03207216 0.03317484 -0.01504145
v 0.02227426 0.03317484 -0.00829525
v 0.02227426 0.03697333 -0.03949148
v 0.02528883 0.03619858 -0.03949148
v 0.02606843 0.03603228 -0.03949148
v 0.03309432 0.03606528 -0.03949148
v 0.03309432 0.03476722 -0.02142424
v 0.03300323 0.03466362 -0.02094782
v 0.03210605 0.03351074 -0.01591489
v 0.03153407 0.03317484 -0.01386568
v 0.02966029 0.03317484 -0.01160880
v 0.02227426 0.03964995 -0.03240018
v 0.02227426 0.03837235 -0.03949148
v 0.03250221 0.03619858 -0.03949148
v 0.03076189 0.03808397 -0.03390273
v 0.03309432 0.03760883 -0.03358817
v 0.03234332 0.03466230 -0.01992169
v 0.03096314 0.03317484 -0.01292811
v 0.03309432 0.03559938 -0.02431634
v 0.02976409 0.03317484 -0.01166683
v 0.03040599 0.03323159 -0.01236924
v 0.03203932 0.03617153 -0.02565703
v 0.03288141 0.03675819 -0.02914771
v 0.03224693 0.03765107 -0.03273612
v 0.02227426 0.03991392 -0.03365230
v 0.02227426 0.03862444 -0.03866691
v 0.02457491 0.03934177 -0.03415315
v 0.02227426 0.03991590 -0.03368895
v 0.03309432 0.03753954 -0.03307205
v 0.03283057 0.03567659 -0.02424610
v 0.03042717 0.03317484 -0.01219822
v 0.03309432 0.03580527 -0.02510121
v 0.03309432 0.03668230 -0.02903166
v 0.03309432 0.03681033 -0.02960580
v 0.03309432 0.03746760 -0.03271168
f 1 2 5
f 1 5 10
f 1 10 19
f 1 19 27
f 1 27 40
f 1 40 29
f 1 29 20
f 1 20 11
f 1 11 6
f 1 6 3
f 1 3 7
f 1 7 15
f 1 15 25
f 1 25 38
f 1 38 44
f 1 44 43
f 1 43 42
f 1 42 41
f 1 41 28
f 1 28 16
f 1 16 8
f 1 8 4
f 1 4 2
f 2 4 5
f 3 6 7
f 4 8 9
f 4 9 5
f 5 9 10
f 6 11 21
f 6 21 34
f 6 34 37
f 6 37 35
f 6 35 22
f 6 22 12
f 6 12 13
f 6 13 14
f 6 14 7
f 7 14 13
f 7 13 12
f 7 12 22
f 7 22 23
f 7 23 15
f 8 16 17
f 8 17 18
f 8 18 9
f 9 18 10
f 10 18 19
f 11 20 21
f 15 23 24
f 15 24 25
f 16 26 27
f 16 27 17
f 16 28 26
f 17 27 19
f 17 19 18
f 20 29 21
f 21 29 30
f 21 30 31
f 21 31 32
f 21 32 33
f 21 33 34
f 22 35 23
f 23 35 24
f 24 36 37
f 24 37 25
f 24 35 36
f 25 37 34
f 25 34 38
f 26 28 39
f 26 39 30
f 26 30 40
f 26 40 27
f 28 41 39
f 29 40 30
f 30 39 31
f 31 39 32
f 32 42 43
f 32 43 44
f 32 44 33
f 32 39 42
f 33 44 38
f 33 38 34
f 35 37 36
f 39 41 42

