# https://github.com/mikedh/trimesh
v 0.02908527 0.02473616 0.00398213
v 0.02799205 0.02473616 0.00398213
v 0.02850083 0.02812986 0.00398213
v 0.02906962 0.02473616 0.00404698
v 0.01497513 0.01802502 0.05130151
v 0.01497513 0.01802698 0.05078273
v 0.01497513 0.01812863 0.04929590
v 0.01497513 0.01824201 0.04829540
v 0.01497513 0.01847856 0.04663256
v 0.01309917 0.03049332 0.00398676
v 0.01215728 0.03086475 0.00398676
v 0.01086315 0.03152159 0.00398676
v 0.01889925 0.02955693 0.00398213
v 0.01497513 0.01860758 0.04598873
v 0.00243046 0.02297481 0.04512720
v 0.02824775 0.02897046 0.00398213
v 0.02726150 0.02746128 0.00924859
v 0.02709190 0.02553767 0.01132367
v 0.02717540 0.02473616 0.01153674
v 0.01497513 0.01982548 0.05130151
v 0.01042743 0.01947555 0.05130151
v 0.02639527 0.02473616 0.01443630
v 0.02611087 0.02473616 0.01548774
v 0.02436798 0.02473616 0.02178248
v 0.01044569 0.03174445 0.00398676
v 0.01889925 0.03074550 0.00398213
v 0.00745824 0.03348039 0.00398676
v 0.00258440 0.03632476 0.00398676
v 0.00243046 0.02278714 0.04731808
v 0.00243046 0.02690414 0.03539560
v 0.02808076 0.02919527 0.00398213
v 0.02773375 0.02877301 0.00581636
v 0.02668227 0.02793632 0.01031392
v 0.02640570 0.02682008 0.01297726
v 0.00364631 0.02407541 0.05130151
v 0.02380963 0.02473616 0.02346385
v 0.02347044 0.02473616 0.02443192
v 0.02270596 0.02473616 0.02612719
v 0.02250245 0.02473616 0.02642826
v 0.02239026 0.02541060 0.02463572
v 0.02456366 0.02728730 0.01611305
v 0.01018739 0.01957330 0.05130151
v 0.00243046 0.02270112 0.05012037
v 0.00243046 0.02272262 0.04835562
v 0.00258440 0.03799619 0.00398676
v 0.02524464 0.03019031 0.00398213
v 0.00243046 0.02854625 0.03539560
v 0.02746240 0.02975828 0.00398213
v 0.02705799 0.02891377 0.00718276
v 0.02575081 0.02783662 0.01265303
v 0.02566993 0.02648188 0.01557575
v 0.00247221 0.02445075 0.05130151
v 0.02544294 0.02864008 0.01074469
v 0.02610044 0.02869873 0.00967009
v 0.00243046 0.02280864 0.05130151
v 0.00243046 0.02445075 0.05130151
v 0.02643701 0.02938294 0.00683537
v 0.02740761 0.02978956 0.00398213
v 0.02654138 0.03003001 0.00398213
v 0.02558383 0.03015121 0.00398213
f 1 2 13
f 1 13 26
f 1 26 46
f 1 46 60
f 1 60 59
f 1 59 58
f 1 58 48
f 1 48 31
f 1 31 16
f 1 16 3
f 1 3 4
f 1 4 5
f 1 5 6
f 1 6 7
f 1 7 8
f 1 8 9
f 1 9 2
f 2 10 11
f 2 11 12
f 2 12 13
f 2 9 14
f 2 14 15
f 2 15 10
f 3 16 17
f 3 17 18
f 3 18 4
f 4 18 19
f 4 19 5
f 5 20 35
f 5 35 52
f 5 52 56
f 5 56 55
f 5 55 42
f 5 42 21
f 5 21 6
f 5 19 22
f 5 22 23
f 5 23 24
f 5 24 20
f 6 21 7
f 7 21 8
f 8 21 15
f 8 15 9
f 9 15 14
f 10 15 11
f 11 15 12
f 12 25 13
f 12 15 25
f 13 25 27
f 13 27 28
f 13 28 45
f 13 45 26
f 15 21 29
f 15 29 44
f 15 44 43
f 15 43 55
f 15 55 56
f 15 56 47
f 15 47 30
f 15 30 28
f 15 28 27
f 15 27 25
f 16 31 32
f 16 32 33
f 16 33 34
f 16 34 17
f 17 34 18
f 18 34 23
f 18 23 22
f 18 22 19
f 20 24 36
f 20 36 37
f 20 37 38
f 20 38 39
f 20 39 40
f 20 40 41
f 20 41 35
f 21 42 43
f 21 43 44
f 21 44 29
f 23 34 24
f 24 34 36
f 26 45 46
f 28 30 47
f 28 47 45
f 31 48 49
f 31 49 32
f 32 49 33
f 33 49 50
f 33 50 37
f 33 37 51
f 33 51 34
f 34 51 37
f 34 37 36
f 35 41 53
f 35 53 45
f 35 45 52
f 37 50 38
f 38 50 41
f 38 41 39
f 39 41 40
f 41 50 54
f 41 54 53
f 42 55 43
f 45 47 56
f 45 56 52
f 45 53 57
f 45 57 58
f 45 58 59
f 45 59 60
f 45 60 46
f 48 58 54
f 48 54 49
f 49 54 50
f 53 54 57
f 54 58 57

