# https://github.com/mikedh/trimesh
v 0.00324178 0.04824344 -0.03316303
v 0.00324178 0.04663154 -0.03316303
v 0.00324178 0.04825130 -0.03320587
v 0.00297538 0.04836401 -0.03316303
v -0.01792712 0.03663771 -0.03316303
v -0.01457562 0.02980479 -0.05417918
v 0.00324178 0.04028350 -0.04968726
v 0.00324178 0.04826179 -0.03327508
v 0.00117645 0.04917128 -0.03316303
v -0.02001823 0.03585142 -0.03316303
v -0.01853440 0.02898967 -0.05235671
v 0.00324178 0.03971213 -0.05131859
v -0.01574148 0.02924915 -0.05450875
v -0.02423196 0.02262329 -0.06682777
v -0.01404281 0.02690074 -0.06682777
v 0.00324178 0.03446229 -0.06682777
v 0.00324178 0.04824607 -0.03361453
v 0.00114780 0.04923156 -0.03356180
v 0.00005642 0.04936785 -0.03316303
v -0.02329812 0.03466411 -0.03316303
v -0.01860029 0.02849168 -0.05386940
v -0.02602229 0.03373104 -0.03316303
v -0.02197757 0.02835801 -0.05107142
v -0.02602229 0.02587855 -0.05736934
v -0.02423196 0.02507391 -0.06682777
v -0.02546371 0.02830821 -0.04875131
v -0.02602229 0.02827414 -0.04852061
v -0.02602229 0.02788099 -0.04993443
v 0.00324178 0.03650404 -0.06682777
v 0.00324178 0.04788174 -0.03510415
v 0.00240820 0.04809143 -0.03581930
v 0.00090718 0.04907167 -0.03450434
v -0.00002092 0.04939930 -0.03351896
v -0.00015269 0.04930232 -0.03316303
v -0.02602229 0.03518306 -0.03316303
v -0.02602229 0.02763200 -0.05736934
v -0.00084877 0.03779357 -0.06682777
v 0.00166056 0.03734800 -0.06682777
v 0.00324178 0.04636682 -0.04004098
v 0.00324178 0.04773235 -0.03568088
v 0.00324178 0.04743618 -0.03666627
v 0.00324178 0.04640875 -0.03991575
v 0.00015954 0.04901926 -0.03508108
v 0.00142280 0.04802066 -0.03704527
v 0.00021397 0.04154158 -0.05680909
v 0.00011084 0.04333434 -0.05166792
v -0.00171386 0.04846885 -0.03316303
v -0.00033602 0.04877288 -0.03542382
v -0.00138731 0.04830897 -0.03529529
v -0.00190579 0.04839808 -0.03383863
v -0.02602229 0.03499697 -0.03445821
v -0.02602229 0.03377297 -0.03856784
v -0.00246151 0.04711118 -0.03727925
v -0.00080581 0.04147867 -0.05651908
v -0.00084018 0.03984842 -0.06117908
v -0.00072846 0.03785647 -0.06682777
v 0.00077828 0.03775425 -0.06682777
v 0.00056058 0.03954963 -0.06218754
v -0.00024149 0.04272889 -0.05354642
v -0.00025868 0.04486761 -0.04730782
v -0.00001806 0.03991919 -0.06152512
v -0.00073992 0.04778739 -0.03791531
v -0.02602229 0.03491048 -0.03475811
v -0.00030165 0.04381135 -0.05039911
v -0.00031597 0.04136597 -0.05736934
v -0.00033029 0.04109863 -0.05811415
v -0.00023863 0.03811333 -0.06665640
v -0.00067977 0.03873450 -0.06445163
v -0.00025295 0.03804518 -0.06682777
v 0.00037438 0.03792724 -0.06682777
v 0.00039157 0.03815002 -0.06620490
v -0.00020712 0.03804518 -0.06682777
f 1 2 7
f 1 7 12
f 1 12 16
f 1 16 29
f 1 29 39
f 1 39 42
f 1 42 41
f 1 41 40
f 1 40 30
f 1 30 17
f 1 17 8
f 1 8 3
f 1 3 4
f 1 4 9
f 1 9 19
f 1 19 34
f 1 34 47
f 1 47 35
f 1 35 22
f 1 22 20
f 1 20 10
f 1 10 5
f 1 5 2
f 2 5 6
f 2 6 7
f 3 8 9
f 3 9 4
f 5 10 11
f 5 11 6
f 6 12 7
f 6 11 13
f 6 13 14
f 6 14 15
f 6 15 16
f 6 16 12
f 8 17 18
f 8 18 9
f 9 18 19
f 10 20 11
f 11 21 13
f 11 20 22
f 11 22 23
f 11 23 14
f 11 14 21
f 13 21 14
f 14 24 36
f 14 36 25
f 14 25 37
f 14 37 56
f 14 56 69
f 14 69 72
f 14 72 70
f 14 70 57
f 14 57 38
f 14 38 29
f 14 29 16
f 14 16 15
f 14 23 26
f 14 26 27
f 14 27 28
f 14 28 24
f 17 30 18
f 18 30 31
f 18 31 32
f 18 32 33
f 18 33 19
f 19 33 34
f 22 35 51
f 22 51 63
f 22 63 52
f 22 52 36
f 22 36 24
f 22 24 28
f 22 28 27
f 22 27 26
f 22 26 23
f 25 36 37
f 29 38 39
f 30 40 31
f 31 40 41
f 31 41 42
f 31 42 39
f 31 39 32
f 32 43 33
f 32 39 44
f 32 44 45
f 32 45 46
f 32 46 43
f 33 47 34
f 33 43 48
f 33 48 49
f 33 49 50
f 33 50 47
f 35 47 50
f 35 50 51
f 36 52 53
f 36 53 54
f 36 54 55
f 36 55 37
f 37 55 56
f 38 57 58
f 38 58 39
f 39 45 44
f 39 58 45
f 43 46 59
f 43 59 60
f 43 60 48
f 45 59 46
f 45 58 61
f 45 61 59
f 48 60 62
f 48 62 49
f 49 62 53
f 49 53 52
f 49 52 63
f 49 63 51
f 49 51 50
f 53 62 64
f 53 64 54
f 54 64 55
f 55 65 66
f 55 66 67
f 55 67 68
f 55 68 56
f 55 64 65
f 56 68 67
f 56 67 69
f 57 70 71
f 57 71 58
f 58 71 61
f 59 64 60
f 59 61 67
f 59 67 65
f 59 65 64
f 60 64 62
f 61 71 67
f 65 67 66
f 67 72 69
f 67 71 72
f 70 72 71

