# https://github.com/mikedh/trimesh
v 0.08679221 0.07384676 -0.08231220
v 0.07931043 0.06268134 -0.07435127
v 0.08667814 0.06720082 -0.07435127
v 0.08759228 0.06715063 -0.07435127
v 0.08849677 0.06765689 -0.07511339
v 0.09572150 0.07126533 -0.08231220
v 0.08842126 0.06974323 -0.08231220
v 0.08186005 0.06245609 -0.07435127
v 0.08864779 0.06971312 -0.08231220
v 0.08775936 0.06671017 -0.07435127
v 0.08623312 0.06265458 -0.07435127
v 0.09550140 0.07081595 -0.08231220
v 0.08793448 0.06419675 -0.07660022
f 1 2 3
f 1 3 4
f 1 4 5
f 1 5 6
f 1 6 12
f 1 12 9
f 1 9 7
f 1 7 2
f 2 8 11
f 2 11 10
f 2 10 4
f 2 4 3
f 2 7 9
f 2 9 8
f 4 10 5
f 5 10 6
f 6 10 11
f 6 11 12
f 8 9 13
f 8 13 11
f 9 12 13
f 11 13 12

