# https://github.com/mikedh/trimesh
v 0.03280525 0.03126917 -0.04996348
v 0.03255474 0.03126917 -0.04968359
v 0.03283928 0.03157595 -0.04996348
v 0.05773934 0.03126917 -0.04996348
v 0.03140422 0.03126917 -0.04807999
v 0.03361866 0.03440297 -0.04996348
v 0.05876615 0.03183825 -0.04996348
v 0.05796511 0.03126917 -0.04893640
v 0.02820936 0.03126917 -0.04362353
v 0.03269700 0.03440297 -0.04867761
v 0.04033311 0.03440297 -0.04996348
v 0.05980532 0.03311079 -0.04996348
v 0.05754140 0.03126917 -0.04765860
v 0.02907535 0.03440297 -0.04362353
v 0.03051659 0.03440297 -0.04563548
v 0.03445062 0.03126917 -0.04362353
v 0.05339706 0.03399126 -0.04996348
v 0.03570011 0.03440297 -0.04362353
v 0.04977540 0.03126917 -0.04613133
v 0.03563825 0.03424283 -0.04362353
f 1 2 3
f 1 3 6
f 1 6 11
f 1 11 17
f 1 17 12
f 1 12 7
f 1 7 4
f 1 4 8
f 1 8 13
f 1 13 19
f 1 19 16
f 1 16 9
f 1 9 5
f 1 5 2
f 2 5 3
f 3 5 6
f 4 7 8
f 5 9 6
f 6 9 10
f 6 10 15
f 6 15 14
f 6 14 18
f 6 18 11
f 7 12 8
f 8 12 13
f 9 14 15
f 9 15 10
f 9 16 20
f 9 20 18
f 9 18 14
f 11 18 17
f 12 17 18
f 12 18 13
f 13 18 19
f 16 19 20
f 18 20 19

