# https://github.com/mikedh/trimesh
v 0.01754590 0.02355663 -0.03527867
v 0.01903742 0.02355588 -0.03527867
v 0.00961377 0.02355588 -0.02065045
v 0.02095605 0.03126917 -0.03350065
v 0.02223061 0.03126917 -0.03527867
v 0.02527804 0.02355588 -0.03527867
v 0.01909165 0.02355588 -0.01260160
v 0.02077639 0.03126917 -0.02970486
v 0.03378644 0.03126917 -0.03527867
v 0.04424398 0.03126917 -0.03076590
v 0.03635591 0.02509763 -0.02217987
v 0.03279323 0.02355588 -0.01860605
v 0.02342382 0.02355588 -0.01310104
v 0.02327806 0.02556801 -0.01495232
v 0.02893564 0.03126917 -0.02358719
v 0.04096604 0.03126917 -0.02716323
v 0.02881021 0.02355588 -0.01475255
v 0.03550846 0.03126917 -0.02407110
v 0.03881691 0.03126917 -0.02508553
f 1 2 3
f 1 3 4
f 1 4 5
f 1 5 9
f 1 9 6
f 1 6 2
f 2 6 12
f 2 12 17
f 2 17 13
f 2 13 7
f 2 7 3
f 3 7 8
f 3 8 4
f 4 8 15
f 4 15 18
f 4 18 19
f 4 19 16
f 4 16 10
f 4 10 9
f 4 9 5
f 6 9 10
f 6 10 11
f 6 11 12
f 7 13 14
f 7 14 15
f 7 15 8
f 10 16 11
f 11 16 17
f 11 17 12
f 13 17 18
f 13 18 14
f 14 18 15
f 16 19 17
f 17 19 18

