# https://github.com/mikedh/trimesh
v 0.07456956 0.06327267 -0.06806626
v 0.08013524 0.06297288 -0.06806626
v 0.07320106 0.06306770 -0.06806626
v 0.06946570 0.05873821 -0.06146410
v 0.07442354 0.05352189 -0.06146410
v 0.08025070 0.06267170 -0.06806626
v 0.07230458 0.05858482 -0.06146410
v 0.06139053 0.06081859 -0.06806626
v 0.06309520 0.05777888 -0.06146410
v 0.08072611 0.05767152 -0.06708653
v 0.08167693 0.05889019 -0.06806626
v 0.05363796 0.04902926 -0.06146410
v 0.05546489 0.04902926 -0.06389920
v 0.05573655 0.04902926 -0.06446273
v 0.05691828 0.04902926 -0.06692432
v 0.05746500 0.04902926 -0.06806626
v 0.05144428 0.05200901 -0.06806626
v 0.04706372 0.04902926 -0.06310301
v 0.04698902 0.04902926 -0.06146410
v 0.05580446 0.05639010 -0.06146410
v 0.08146979 0.05834360 -0.06806626
v 0.05100283 0.04902926 -0.06806626
v 0.05127789 0.05141362 -0.06806626
v 0.04906384 0.04902926 -0.06589096
v 0.04918948 0.04902926 -0.06603378
v 0.05127110 0.05135506 -0.06806626
f 1 2 6
f 1 6 11
f 1 11 21
f 1 21 16
f 1 16 22
f 1 22 26
f 1 26 23
f 1 23 17
f 1 17 8
f 1 8 3
f 1 3 4
f 1 4 2
f 2 5 6
f 2 4 7
f 2 7 5
f 3 8 9
f 3 9 4
f 4 9 20
f 4 20 19
f 4 19 12
f 4 12 5
f 4 5 7
f 5 10 11
f 5 11 6
f 5 12 13
f 5 13 14
f 5 14 15
f 5 15 16
f 5 16 10
f 8 17 18
f 8 18 19
f 8 19 20
f 8 20 9
f 10 21 11
f 10 16 21
f 12 19 18
f 12 18 24
f 12 24 25
f 12 25 22
f 12 22 16
f 12 16 15
f 12 15 14
f 12 14 13
f 17 23 18
f 18 23 24
f 22 25 26
f 23 26 25
f 23 25 24

