# https://github.com/mikedh/trimesh
v 0.06946599 0.05873830 -0.06146410
v 0.06309044 0.05777806 -0.06146410
v 0.04622876 0.04868545 -0.04996460
v 0.06416275 0.05402207 -0.05460042
v 0.07230363 0.05858440 -0.06146410
v 0.05579939 0.05638980 -0.06146410
v 0.04679045 0.04924813 -0.05081679
v 0.04574001 0.04852194 -0.04996460
v 0.06028927 0.05042478 -0.04996460
v 0.07442638 0.05352031 -0.06146410
v 0.04561965 0.04804743 -0.06146410
v 0.03726358 0.04236134 -0.05198982
v 0.03723075 0.04236134 -0.05134702
v 0.03716511 0.04236134 -0.04996460
v 0.06187587 0.04539916 -0.04996460
v 0.06187222 0.04506572 -0.04996460
v 0.05098854 0.04236134 -0.06146410
v 0.04455462 0.04417922 -0.06146410
v 0.04286591 0.04236134 -0.05980587
v 0.04816185 0.04236134 -0.04996460
v 0.04434308 0.04236134 -0.06146410
v 0.04296803 0.04236134 -0.05992070
f 1 2 3
f 1 3 4
f 1 4 5
f 1 5 10
f 1 10 17
f 1 17 21
f 1 21 18
f 1 18 11
f 1 11 6
f 1 6 2
f 2 6 7
f 2 7 3
f 3 7 8
f 3 8 14
f 3 14 20
f 3 20 16
f 3 16 15
f 3 15 9
f 3 9 4
f 4 9 5
f 5 9 10
f 6 11 12
f 6 12 13
f 6 13 14
f 6 14 8
f 6 8 7
f 9 15 10
f 10 15 16
f 10 16 17
f 11 18 12
f 12 19 22
f 12 22 21
f 12 21 17
f 12 17 20
f 12 20 14
f 12 14 13
f 12 18 19
f 16 20 17
f 18 21 22
f 18 22 19

