# https://github.com/mikedh/trimesh
v 0.06287264 0.05385159 -0.07435066
v 0.06039751 0.05385159 -0.06806627
v 0.06534778 0.05377946 -0.07435066
v 0.05714161 0.05385159 -0.07435066
v 0.07757443 0.04757922 -0.06806627
v 0.08033466 0.04982677 -0.07087901
v 0.08332814 0.05218540 -0.07435066
v 0.05363300 0.05385159 -0.06806627
v 0.05642239 0.04747824 -0.07435066
v 0.05415460 0.05385159 -0.07104820
v 0.07446107 0.04300477 -0.06806627
v 0.08173421 0.04822261 -0.07435066
v 0.08341237 0.05109480 -0.07435066
v 0.05384359 0.05385159 -0.07019120
v 0.05144297 0.05200652 -0.06806627
v 0.05657142 0.04736571 -0.07435066
v 0.05531765 0.03911411 -0.06806627
v 0.05031879 0.04314037 -0.06806627
v 0.05084362 0.04767010 -0.06806627
v 0.05127774 0.05141217 -0.06806627
v 0.05250235 0.05272637 -0.06926654
v 0.07110798 0.04192283 -0.06806627
v 0.07323647 0.04548026 -0.07435066
v 0.06120096 0.04387321 -0.07435066
v 0.06067613 0.04294418 -0.07342107
v 0.05707681 0.03920355 -0.06806627
v 0.06247092 0.04371308 -0.07435066
f 1 2 3
f 1 3 7
f 1 7 13
f 1 13 12
f 1 12 23
f 1 23 27
f 1 27 24
f 1 24 16
f 1 16 9
f 1 9 4
f 1 4 10
f 1 10 14
f 1 14 8
f 1 8 2
f 2 5 6
f 2 6 7
f 2 7 3
f 2 8 15
f 2 15 20
f 2 20 19
f 2 19 18
f 2 18 17
f 2 17 26
f 2 26 22
f 2 22 11
f 2 11 5
f 4 9 10
f 5 11 12
f 5 12 13
f 5 13 6
f 6 13 7
f 8 14 15
f 9 16 17
f 9 17 18
f 9 18 10
f 10 18 19
f 10 19 20
f 10 20 21
f 10 21 14
f 11 22 23
f 11 23 12
f 14 21 15
f 15 21 20
f 16 24 17
f 17 24 25
f 17 25 26
f 22 26 23
f 23 26 27
f 24 27 25
f 25 27 26

