# https://github.com/mikedh/trimesh
v -0.00014034 -0.10702854 -0.01846771
v -0.00014034 -0.10543129 -0.01487669
v -0.00014034 -0.10420880 -0.01846771
v 0.01256168 -0.11493472 -0.01846771
v 0.00603046 -0.12257531 -0.01459322
v 0.00538171 -0.12317927 -0.01393561
v 0.00422839 -0.12284818 -0.01287116
v 0.00382421 -0.12235337 -0.01260548
v 0.00308536 -0.12079614 -0.01260548
v 0.00290258 -0.12020309 -0.01260548
v -0.00014034 -0.10437252 -0.01260548
v -0.00014034 -0.10174925 -0.01260548
v 0.00959083 -0.09451980 -0.01846771
v 0.01681714 -0.11739425 -0.01846771
v 0.01838236 -0.13168579 -0.01260548
v 0.00567004 -0.12425259 -0.01311790
v 0.00442919 -0.12324476 -0.01260548
v 0.00420522 -0.12296825 -0.01260548
v 0.00404561 -0.12273540 -0.01260548
v 0.00970668 -0.09452709 -0.01260548
v 0.00964490 -0.09451980 -0.01415424
v 0.00963975 -0.09451980 -0.01427876
v 0.01547846 -0.09451980 -0.01846771
v 0.01806571 -0.11762348 -0.01846771
v 0.01960005 -0.13109638 -0.01260548
v 0.00548984 -0.12439813 -0.01260548
v 0.01935548 -0.11714685 -0.01846771
v 0.01077248 -0.09451980 -0.01260548
v 0.01575392 -0.09451980 -0.01635659
v 0.01859604 -0.09565862 -0.01846771
v 0.02036206 -0.12992482 -0.01260548
v 0.02615443 -0.11355214 -0.01846771
v 0.01570758 -0.09451980 -0.01260548
v 0.01632285 -0.09473082 -0.01611903
v 0.02038781 -0.09636445 -0.01600541
v 0.01942499 -0.09599335 -0.01846771
v 0.02615443 -0.11355214 -0.01661711
v 0.02615443 -0.11349392 -0.01550905
v 0.02615443 -0.11335930 -0.01392069
v 0.02615443 -0.11322105 -0.01305650
v 0.02615443 -0.11309734 -0.01260548
v 0.02615443 -0.10157461 -0.01846771
v 0.01785204 -0.09534935 -0.01494096
v 0.01622245 -0.09482543 -0.01260548
v 0.02099537 -0.09697571 -0.01541436
v 0.02316557 -0.09786711 -0.01798225
v 0.02297507 -0.09770702 -0.01846771
v 0.02189897 -0.09705939 -0.01846771
v 0.01788808 -0.09582234 -0.01260548
v 0.02615443 -0.10279347 -0.01260548
v 0.02497279 -0.09987913 -0.01846771
v 0.01889467 -0.09652454 -0.01260548
v 0.02014582 -0.09740867 -0.01260548
v 0.02156173 -0.09854020 -0.01260548
v 0.02344361 -0.09800901 -0.01846771
v 0.02335865 -0.10012654 -0.01260548
v 0.02563698 -0.10220768 -0.01260548
v 0.02445019 -0.09922058 -0.01846771
v 0.02360837 -0.09819456 -0.01846771
f 1 2 11
f 1 11 12
f 1 12 3
f 1 3 13
f 1 13 23
f 1 23 30
f 1 30 36
f 1 36 48
f 1 48 47
f 1 47 55
f 1 55 59
f 1 59 58
f 1 58 51
f 1 51 42
f 1 42 32
f 1 32 27
f 1 27 24
f 1 24 14
f 1 14 4
f 1 4 5
f 1 5 6
f 1 6 7
f 1 7 8
f 1 8 9
f 1 9 10
f 1 10 2
f 2 10 11
f 3 12 13
f 4 14 5
f 5 14 15
f 5 15 6
f 6 15 16
f 6 16 7
f 7 16 17
f 7 17 18
f 7 18 19
f 7 19 8
f 8 19 18
f 8 18 17
f 8 17 26
f 8 26 15
f 8 15 25
f 8 25 31
f 8 31 41
f 8 41 50
f 8 50 57
f 8 57 56
f 8 56 54
f 8 54 53
f 8 53 52
f 8 52 49
f 8 49 44
f 8 44 33
f 8 33 28
f 8 28 20
f 8 20 12
f 8 12 11
f 8 11 10
f 8 10 9
f 12 20 21
f 12 21 22
f 12 22 13
f 13 22 21
f 13 21 28
f 13 28 33
f 13 33 29
f 13 29 23
f 14 24 15
f 15 26 16
f 15 24 27
f 15 27 25
f 16 26 17
f 20 28 21
f 23 29 30
f 25 27 32
f 25 32 31
f 29 34 30
f 29 33 34
f 30 34 35
f 30 35 36
f 31 32 37
f 31 37 38
f 31 38 39
f 31 39 40
f 31 40 41
f 32 42 50
f 32 50 41
f 32 41 40
f 32 40 39
f 32 39 38
f 32 38 37
f 33 43 34
f 33 44 35
f 33 35 43
f 34 43 35
f 35 45 46
f 35 46 47
f 35 47 48
f 35 48 36
f 35 44 49
f 35 49 45
f 42 51 50
f 45 49 52
f 45 52 53
f 45 53 54
f 45 54 46
f 46 55 47
f 46 54 56
f 46 56 57
f 46 57 55
f 50 51 58
f 50 58 59
f 50 59 57
f 55 57 59

