# https://github.com/mikedh/trimesh
v -0.02923847 -0.08092246 -0.01307711
v -0.03323270 -0.07685344 -0.01240116
v -0.02946668 -0.08092246 -0.01154902
v -0.02925498 -0.08092246 -0.01493617
v -0.03175012 -0.07835583 -0.01339079
v -0.03025461 -0.07995541 -0.01524656
v -0.03368552 -0.07670444 -0.01507613
v -0.03502458 -0.07538991 -0.01398852
v -0.03568407 -0.07506834 -0.01242010
v -0.03347382 -0.07711788 -0.01151609
v -0.02978386 -0.08092246 -0.00985792
v -0.03045770 -0.08007850 -0.01054539
v -0.02928655 -0.08092246 -0.01522598
v -0.03269378 -0.07793297 -0.01628230
v -0.03398405 -0.07724155 -0.01651365
v -0.03537765 -0.07627392 -0.01594638
v -0.03623089 -0.07490639 -0.01357769
v -0.03638446 -0.07567024 -0.01213029
v -0.03491335 -0.07655543 -0.01130038
v -0.03157645 -0.08092246 -0.00829525
v -0.03080143 -0.08092246 -0.00873655
v -0.03098658 -0.08028521 -0.00938533
v -0.03020653 -0.08092246 -0.00925442
v -0.02966187 -0.08092246 -0.01606577
v -0.03010535 -0.08054200 -0.01621561
v -0.03178959 -0.07949014 -0.01669890
v -0.03384770 -0.07808669 -0.01666515
v -0.03585558 -0.07676803 -0.01532725
v -0.03656888 -0.07551477 -0.01389549
v -0.03492412 -0.07770505 -0.01613740
v -0.03505687 -0.07750069 -0.01069853
v -0.03645335 -0.07645177 -0.01295196
v -0.03539200 -0.07806607 -0.01127568
v -0.03483441 -0.07851662 -0.01050587
v -0.03181542 -0.08092246 -0.00828784
v -0.03045913 -0.08092246 -0.00900907
v -0.02975444 -0.08092246 -0.01616951
v -0.02988720 -0.08092246 -0.01624937
v -0.03154703 -0.08042127 -0.01660751
v -0.03028906 -0.08092246 -0.01646343
v -0.03306550 -0.07974928 -0.01626666
v -0.03510567 -0.07845125 -0.01487524
v -0.03607373 -0.07736640 -0.01327306
v -0.03314444 -0.08064448 -0.01512142
v -0.03244620 -0.08092246 -0.00836935
v -0.03374149 -0.08048664 -0.01038731
v -0.03337407 -0.08092246 -0.00987274
v -0.03298154 -0.08092246 -0.00885841
v -0.03074977 -0.08092246 -0.01650213
v -0.03105260 -0.08092246 -0.01650295
v -0.03122769 -0.08092246 -0.01644120
v -0.03192091 -0.08092246 -0.01608306
v -0.03224383 -0.08092246 -0.01583194
v -0.03344368 -0.08084177 -0.01361556
v -0.03501812 -0.07896716 -0.01308863
v -0.03284376 -0.08092246 -0.01514035
v -0.03292556 -0.08092246 -0.01490900
v -0.03336618 -0.08092246 -0.01359745
v -0.03339991 -0.08092246 -0.01015184
v -0.03339273 -0.08092246 -0.01298078
v -0.03341928 -0.08092246 -0.01189482
f 1 2 3
f 1 3 11
f 1 11 23
f 1 23 36
f 1 36 21
f 1 21 20
f 1 20 35
f 1 35 45
f 1 45 48
f 1 48 47
f 1 47 59
f 1 59 61
f 1 61 60
f 1 60 58
f 1 58 57
f 1 57 56
f 1 56 53
f 1 53 52
f 1 52 51
f 1 51 50
f 1 50 49
f 1 49 40
f 1 40 38
f 1 38 37
f 1 37 24
f 1 24 13
f 1 13 4
f 1 4 5
f 1 5 2
f 2 5 6
f 2 6 7
f 2 7 8
f 2 8 9
f 2 9 10
f 2 10 11
f 2 11 12
f 2 12 3
f 3 12 11
f 4 13 6
f 4 6 5
f 6 13 14
f 6 14 7
f 7 14 15
f 7 15 8
f 8 15 16
f 8 16 17
f 8 17 9
f 9 18 19
f 9 19 20
f 9 20 21
f 9 21 22
f 9 22 10
f 9 17 18
f 10 22 23
f 10 23 11
f 13 24 14
f 14 24 25
f 14 25 26
f 14 26 15
f 15 26 27
f 15 27 16
f 16 28 29
f 16 29 17
f 16 27 30
f 16 30 28
f 17 29 18
f 18 31 19
f 18 29 32
f 18 32 33
f 18 33 34
f 18 34 31
f 19 31 35
f 19 35 20
f 21 36 22
f 22 36 23
f 24 37 25
f 25 37 38
f 25 38 26
f 26 39 27
f 26 38 40
f 26 40 39
f 27 39 41
f 27 41 30
f 28 42 43
f 28 43 32
f 28 32 29
f 28 30 42
f 30 41 44
f 30 44 42
f 31 45 35
f 31 34 45
f 32 43 33
f 33 46 47
f 33 47 48
f 33 48 34
f 33 43 46
f 34 48 45
f 39 40 49
f 39 49 50
f 39 50 51
f 39 51 52
f 39 52 41
f 41 52 53
f 41 53 44
f 42 44 54
f 42 54 55
f 42 55 43
f 43 55 46
f 44 56 57
f 44 57 58
f 44 58 54
f 44 53 56
f 46 55 59
f 46 59 47
f 54 58 60
f 54 60 55
f 55 60 61
f 55 61 59

