# https://github.com/mikedh/trimesh
v -0.02540815 -0.06991635 0.03809423
v -0.02640920 -0.07063687 0.03809423
v -0.03015052 -0.06991635 0.03809423
v -0.03013611 -0.05093917 0.06150882
v -0.03013611 -0.05093917 0.06264707
v -0.03013611 -0.05783110 0.06264707
v -0.03896189 -0.06746589 0.09681754
v -0.05603009 -0.08158042 0.09630015
v -0.02717258 -0.07114507 0.03809423
v -0.03018293 -0.07088748 0.03809423
v -0.03034137 -0.06991635 0.03820920
v -0.03155847 -0.05093917 0.06264707
v -0.03754314 -0.04810234 0.09200586
v -0.03754314 -0.06294087 0.09200586
v -0.03896189 -0.04810582 0.09681754
v -0.03960645 -0.06780004 0.09681754
v -0.05275328 -0.07728515 0.09680605
v -0.05532792 -0.07989921 0.09663934
v -0.05346626 -0.07920653 0.09646112
v -0.05822663 -0.08236360 0.09626566
v -0.05912326 -0.08365844 0.09600122
v -0.02957438 -0.07128777 0.03809423
v -0.05917006 -0.08365148 0.09460428
v -0.05941132 -0.08357143 0.09326482
v -0.03018293 -0.07107893 0.03809423
v -0.03112276 -0.07038973 0.03867485
v -0.04936125 -0.06509548 0.06448666
v -0.04680462 -0.05991260 0.06702761
v -0.04507979 -0.05902500 0.06619404
v -0.04335137 -0.05814089 0.06536047
v -0.04239713 -0.05650841 0.06629752
v -0.04058949 -0.05562777 0.06551568
v -0.03787082 -0.05311117 0.06588936
v -0.03787082 -0.05284663 0.06625727
v -0.03862701 -0.05251596 0.06755074
v -0.03787082 -0.05167709 0.06828658
v -0.03787082 -0.05153090 0.06863725
v -0.03787082 -0.05076861 0.07109196
v -0.03787082 -0.05067463 0.07155760
v -0.03787082 -0.05025345 0.07386285
v -0.03896189 -0.04823112 0.09567930
v -0.03979009 -0.04876368 0.09681754
v -0.04455407 -0.05456962 0.07386285
v -0.04603403 -0.05537367 0.07644978
v -0.04767603 -0.05667200 0.07644978
v -0.04286885 -0.06863194 0.09681754
v -0.05321420 -0.07423947 0.09672557
v -0.05572041 -0.07695100 0.09662783
v -0.04411476 -0.06893477 0.09681754
v -0.04452526 -0.06862150 0.09681754
v -0.04513741 -0.05642487 0.09681754
v -0.04439923 -0.05431204 0.09681754
v -0.05820143 -0.07973561 0.09636914
v -0.05972460 -0.08224873 0.09605871
v -0.05963458 -0.08365844 0.09600122
v -0.06060322 -0.08366192 0.09440308
v -0.03614599 -0.07318132 0.04660235
v -0.06076526 -0.08360275 0.09321883
v -0.06211559 -0.08359927 0.09322459
v -0.03112276 -0.07086660 0.03867485
v -0.05170542 -0.06796364 0.06477410
v -0.05108608 -0.06623369 0.06561342
v -0.05171623 -0.06536350 0.06734378
v -0.05017505 -0.06436799 0.06638375
v -0.04926763 -0.06260324 0.06715982
v -0.04416517 -0.05739600 0.06709084
v -0.04862667 -0.06076191 0.06867174
v -0.04732675 -0.05937656 0.06867174
v -0.04600883 -0.05808172 0.06867174
v -0.04144290 -0.05492814 0.06724606
v -0.04195783 -0.05454177 0.06867174
v -0.04377987 -0.05513698 0.07022390
v -0.03915273 -0.05215744 0.06927536
v -0.04093517 -0.05270392 0.07127018
v -0.03964246 -0.05186505 0.07127018
v -0.04124845 -0.05248115 0.07286257
v -0.04146091 -0.05234889 0.07459294
v -0.04120524 -0.04998196 0.09681754
v -0.04897235 -0.05773712 0.07644978
v -0.05179545 -0.06010753 0.07731209
v -0.04584678 -0.05555467 0.07386285
v -0.04244034 -0.05313554 0.07377662
v -0.04423719 -0.05479586 0.07195427
v -0.04354942 -0.05302415 0.09681754
v -0.05946174 -0.07058814 0.08547530
v -0.06176991 -0.07885150 0.09201160
v -0.06217681 -0.08070327 0.09350052
v -0.06065723 -0.07981219 0.09454104
v -0.05964178 -0.08065454 0.09600697
v -0.06102092 -0.08224873 0.09481698
v -0.06211559 -0.08359927 0.09340280
v -0.05949055 -0.07319523 0.07770301
v -0.05704194 -0.07076566 0.07226470
v -0.06219481 -0.08224873 0.09351777
v -0.06219121 -0.08202248 0.09222431
v -0.06209759 -0.08101306 0.09064340
v -0.05170542 -0.06800541 0.06477410
v -0.05704194 -0.07006254 0.07226470
v -0.05459694 -0.06754246 0.06939608
v -0.05212673 -0.06692985 0.06632051
v -0.05348787 -0.06668271 0.06859126
v -0.05211953 -0.06486923 0.06867174
v -0.05103926 -0.06357786 0.06867174
v -0.04974294 -0.06206024 0.06867174
v -0.04471251 -0.05688433 0.06867174
v -0.04325415 -0.05558949 0.06867174
v -0.05152178 -0.06300701 0.07029288
v -0.04903717 -0.06028853 0.07009168
v -0.04645533 -0.05767098 0.07006294
v -0.04693425 -0.05720108 0.07179330
v -0.04139969 -0.05020821 0.09681754
v -0.05182786 -0.06008316 0.07904246
v -0.05437728 -0.06271114 0.08102002
v -0.05679348 -0.06550273 0.08163514
v -0.04736636 -0.05685301 0.07386285
v -0.05157940 -0.06032334 0.07558747
v -0.05294773 -0.06154509 0.07659924
v -0.05431607 -0.06277031 0.07761677
v -0.05437728 -0.06270767 0.07904246
v -0.05312418 -0.06140934 0.07904246
v -0.05653061 -0.06578815 0.08422782
v -0.05750646 -0.06708300 0.08422782
v -0.05721479 -0.06756335 0.08609615
v -0.05893241 -0.06943252 0.08445776
v -0.05955896 -0.07040018 0.08374492
v -0.05998027 -0.07162541 0.08445776
v -0.06072565 -0.07446572 0.08682050
v -0.06217681 -0.08015678 0.09201160
v -0.05949055 -0.07285064 0.07770301
v -0.06217681 -0.08015678 0.09200586
v -0.06209759 -0.08014286 0.09064340
v -0.05941853 -0.07112069 0.07800194
v -0.05744885 -0.06923064 0.07378811
v -0.05675387 -0.06833956 0.07287982
v -0.05498224 -0.06668271 0.07139089
v -0.05396678 -0.06581599 0.07061481
v -0.05296934 -0.06413130 0.07131616
v -0.05196829 -0.06248141 0.07201751
v -0.04948368 -0.05980470 0.07182205
v -0.04798571 -0.05873610 0.07094249
v -0.04995180 -0.05935220 0.07386285
v -0.04866628 -0.05806083 0.07386285
v -0.05765049 -0.06679758 0.08163514
v -0.05554757 -0.06410345 0.07904246
v -0.05674667 -0.06558975 0.07904246
v -0.05124811 -0.06069926 0.07386285
v -0.05241480 -0.06199758 0.07386285
v -0.05410362 -0.06303834 0.07588640
v -0.05502544 -0.06398511 0.07663374
v -0.05648381 -0.06595871 0.07644978
v -0.05894681 -0.06900091 0.08163514
v -0.05960217 -0.07029575 0.08163514
v -0.06009549 -0.07187254 0.08163514
v -0.05969580 -0.07194216 0.07893898
v -0.05838507 -0.06927937 0.07644978
v -0.05955896 -0.07037581 0.07973230
v -0.05706355 -0.06768866 0.07461018
v -0.05611291 -0.06676973 0.07378811
v -0.05439169 -0.06526255 0.07233943
v -0.05370752 -0.06352913 0.07386285
v -0.05758568 -0.06687763 0.07904246
v -0.05471577 -0.06482049 0.07386285
v -0.05732641 -0.06726052 0.07644978
v -0.05896842 -0.06942208 0.07893898
f 1 2 9
f 1 9 22
f 1 22 25
f 1 25 10
f 1 10 3
f 1 3 4
f 1 4 5
f 1 5 6
f 1 6 7
f 1 7 8
f 1 8 2
f 2 8 9
f 3 10 11
f 3 11 4
f 4 11 12
f 4 12 13
f 4 13 5
f 5 13 14
f 5 14 6
f 6 14 7
f 7 14 13
f 7 13 15
f 7 15 42
f 7 42 78
f 7 78 111
f 7 111 84
f 7 84 52
f 7 52 51
f 7 51 50
f 7 50 49
f 7 49 46
f 7 46 16
f 7 16 17
f 7 17 18
f 7 18 19
f 7 19 8
f 8 19 18
f 8 18 20
f 8 20 21
f 8 21 9
f 9 21 23
f 9 23 24
f 9 24 22
f 10 25 60
f 10 60 26
f 10 26 11
f 11 26 27
f 11 27 28
f 11 28 29
f 11 29 30
f 11 30 31
f 11 31 32
f 11 32 33
f 11 33 12
f 12 33 34
f 12 34 35
f 12 35 36
f 12 36 37
f 12 37 38
f 12 38 39
f 12 39 40
f 12 40 13
f 13 40 41
f 13 41 15
f 15 41 43
f 15 43 44
f 15 44 45
f 15 45 42
f 16 46 17
f 17 47 48
f 17 48 18
f 17 46 49
f 17 49 50
f 17 50 51
f 17 51 52
f 17 52 47
f 18 48 53
f 18 53 20
f 20 53 54
f 20 54 55
f 20 55 21
f 21 55 56
f 21 56 23
f 22 57 25
f 22 24 58
f 22 58 59
f 22 59 57
f 23 56 58
f 23 58 24
f 25 57 60
f 26 61 27
f 26 60 97
f 26 97 61
f 27 61 62
f 27 62 63
f 27 63 64
f 27 64 65
f 27 65 28
f 28 66 29
f 28 65 67
f 28 67 68
f 28 68 69
f 28 69 66
f 29 66 30
f 30 66 31
f 31 66 70
f 31 70 32
f 32 70 33
f 33 70 34
f 34 70 35
f 35 70 71
f 35 71 72
f 35 72 73
f 35 73 36
f 36 73 37
f 37 73 38
f 38 73 74
f 38 74 75
f 38 75 76
f 38 76 39
f 39 76 40
f 40 76 77
f 40 77 41
f 41 77 43
f 42 45 79
f 42 79 80
f 42 80 78
f 43 81 44
f 43 77 82
f 43 82 76
f 43 76 83
f 43 83 81
f 44 81 45
f 45 81 79
f 47 52 48
f 48 52 53
f 52 84 85
f 52 85 86
f 52 86 87
f 52 87 88
f 52 88 89
f 52 89 53
f 53 89 54
f 54 89 90
f 54 90 55
f 55 90 91
f 55 91 56
f 56 91 59
f 56 59 58
f 57 59 92
f 57 92 93
f 57 93 60
f 59 91 94
f 59 94 95
f 59 95 96
f 59 96 92
f 60 93 97
f 61 98 99
f 61 99 100
f 61 100 62
f 61 97 93
f 61 93 98
f 62 100 63
f 63 101 102
f 63 102 103
f 63 103 65
f 63 65 64
f 63 100 101
f 65 103 104
f 65 104 67
f 66 69 105
f 66 105 106
f 66 106 70
f 67 107 108
f 67 108 68
f 67 104 107
f 68 108 109
f 68 109 69
f 69 109 105
f 70 106 72
f 70 72 71
f 72 106 105
f 72 105 109
f 72 109 110
f 72 110 83
f 72 83 73
f 73 83 74
f 74 83 76
f 74 76 75
f 76 82 77
f 78 80 112
f 78 112 113
f 78 113 114
f 78 114 111
f 79 81 115
f 79 115 80
f 80 115 116
f 80 116 117
f 80 117 118
f 80 118 119
f 80 119 120
f 80 120 112
f 81 83 115
f 83 110 115
f 84 111 121
f 84 121 122
f 84 122 123
f 84 123 85
f 85 123 122
f 85 122 124
f 85 124 125
f 85 125 126
f 85 126 86
f 86 126 127
f 86 127 128
f 86 128 87
f 87 94 90
f 87 90 89
f 87 89 88
f 87 128 94
f 90 94 91
f 92 96 131
f 92 131 129
f 92 129 98
f 92 98 93
f 94 128 130
f 94 130 95
f 95 130 131
f 95 131 96
f 98 129 132
f 98 132 133
f 98 133 134
f 98 134 99
f 99 134 135
f 99 135 136
f 99 136 101
f 99 101 100
f 101 136 102
f 102 136 107
f 102 107 103
f 103 107 104
f 107 136 137
f 107 137 138
f 107 138 108
f 108 138 139
f 108 139 140
f 108 140 109
f 109 140 110
f 110 140 139
f 110 139 141
f 110 141 142
f 110 142 115
f 111 114 121
f 112 120 113
f 113 120 119
f 113 119 114
f 114 143 122
f 114 122 121
f 114 119 144
f 114 144 145
f 114 145 143
f 115 142 116
f 116 142 141
f 116 141 146
f 116 146 147
f 116 147 148
f 116 148 117
f 117 148 118
f 118 148 149
f 118 149 150
f 118 150 145
f 118 145 144
f 118 144 119
f 122 143 124
f 124 143 151
f 124 151 125
f 125 151 152
f 125 152 126
f 126 152 153
f 126 153 127
f 127 153 128
f 128 153 130
f 129 131 154
f 129 154 132
f 130 153 131
f 131 153 154
f 132 155 133
f 132 154 153
f 132 153 156
f 132 156 155
f 133 155 134
f 134 155 157
f 134 157 158
f 134 158 135
f 135 158 159
f 135 159 136
f 136 159 137
f 137 159 138
f 138 159 160
f 138 160 147
f 138 147 139
f 139 147 146
f 139 146 141
f 143 145 161
f 143 161 151
f 145 150 161
f 147 160 148
f 148 150 149
f 148 160 162
f 148 162 150
f 150 162 158
f 150 158 157
f 150 157 163
f 150 163 161
f 151 161 156
f 151 156 152
f 152 156 153
f 155 156 164
f 155 164 163
f 155 163 157
f 156 161 164
f 158 162 159
f 159 162 160
f 161 163 164

