# https://github.com/mikedh/trimesh
v -0.01028713 -0.09321662 0.00046691
v -0.01028713 -0.09058517 0.00046691
v -0.00987351 -0.09323875 0.00046691
v -0.01028713 -0.09451980 0.00985131
v -0.01028713 -0.08976801 0.00255043
v -0.01026559 -0.09058219 0.00046691
v 0.01359047 -0.09355138 0.00046691
v 0.00925614 -0.09451980 0.00503299
v 0.00670121 -0.09451980 0.00555173
v -0.01028713 -0.09451980 0.01402405
v -0.01028713 -0.08976860 0.00262026
v -0.00256633 -0.08841342 0.00712648
v -0.00180804 -0.08841342 0.00653648
v -0.00148921 -0.08841342 0.00642105
v 0.02047973 -0.08841342 0.00046691
v 0.01404717 -0.09351791 0.00046691
v 0.01677874 -0.09451980 0.00475509
v 0.01472791 -0.09451980 0.00474796
v 0.01383605 -0.09451980 0.00478359
v -0.01028713 -0.09128040 0.01039000
v -0.00661199 -0.09451980 0.01502591
v 0.00312086 -0.08841342 0.01196048
v -0.01028713 -0.08990071 0.00575694
v -0.00235522 -0.08841342 0.00759392
v 0.02530092 -0.08841342 0.00046691
v 0.01437031 -0.09347846 0.00046691
v 0.03301741 -0.09122062 0.00552323
v 0.03086317 -0.09216213 0.00710653
v 0.01778262 -0.09451980 0.00572274
v -0.01028713 -0.09049790 0.00927841
v -0.00557365 -0.09442893 0.01502591
v 0.00429277 -0.08841342 0.01224835
v 0.00403857 -0.08841342 0.01220988
v -0.00002002 -0.09451980 0.01502591
v 0.00262108 -0.08841342 0.01169683
v -0.01028713 -0.09043932 0.00907319
v 0.00091923 -0.08841342 0.01050829
v 0.03116476 -0.08841342 0.00139609
v 0.03247023 -0.08841342 0.00180082
v 0.03210401 -0.08965681 0.00316038
v 0.03335347 -0.08961437 0.00369480
v 0.03371969 -0.09051345 0.00534651
v 0.03287523 -0.09156734 0.00682863
v 0.02050989 -0.09392919 0.00750699
v 0.01861847 -0.09435420 0.00671320
v 0.01795927 -0.09451980 0.00615313
v 0.00151380 -0.09451980 0.01488340
v 0.00434447 -0.09451980 0.01374758
v 0.00203513 -0.08841342 0.01134198
v 0.00116912 -0.08841342 0.01070353
v -0.00366499 -0.09434763 0.01502591
v 0.00546037 -0.08841342 0.01212722
v 0.03309927 -0.08841342 0.00268439
v 0.03319836 -0.08841342 0.00332427
v 0.03330177 -0.08876134 0.00380738
v 0.03274167 -0.08841342 0.00399407
v 0.03242715 -0.08841342 0.00431330
v 0.03274167 -0.09018765 0.00590088
v 0.03312512 -0.08841342 0.00353946
f 1 2 6
f 1 6 15
f 1 15 25
f 1 25 26
f 1 26 16
f 1 16 7
f 1 7 3
f 1 3 4
f 1 4 10
f 1 10 20
f 1 20 30
f 1 30 36
f 1 36 23
f 1 23 11
f 1 11 5
f 1 5 2
f 2 5 6
f 3 7 8
f 3 8 9
f 3 9 4
f 4 9 8
f 4 8 19
f 4 19 18
f 4 18 17
f 4 17 29
f 4 29 46
f 4 46 48
f 4 48 47
f 4 47 34
f 4 34 21
f 4 21 10
f 5 11 12
f 5 12 13
f 5 13 14
f 5 14 15
f 5 15 6
f 7 16 17
f 7 17 18
f 7 18 19
f 7 19 8
f 10 21 22
f 10 22 20
f 11 23 12
f 12 23 24
f 12 24 37
f 12 37 50
f 12 50 49
f 12 49 35
f 12 35 22
f 12 22 33
f 12 33 32
f 12 32 52
f 12 52 57
f 12 57 56
f 12 56 59
f 12 59 54
f 12 54 53
f 12 53 39
f 12 39 38
f 12 38 25
f 12 25 15
f 12 15 14
f 12 14 13
f 16 26 17
f 17 27 28
f 17 28 29
f 17 26 27
f 20 22 30
f 21 31 32
f 21 32 33
f 21 33 22
f 21 34 51
f 21 51 31
f 22 35 30
f 23 36 24
f 24 36 37
f 25 38 26
f 26 38 39
f 26 39 40
f 26 40 27
f 27 40 41
f 27 41 42
f 27 42 43
f 27 43 28
f 28 44 45
f 28 45 46
f 28 46 29
f 28 43 47
f 28 47 48
f 28 48 44
f 30 35 49
f 30 49 50
f 30 50 36
f 31 51 32
f 32 51 34
f 32 34 47
f 32 47 52
f 36 50 37
f 39 53 41
f 39 41 40
f 41 53 42
f 42 53 54
f 42 54 55
f 42 55 56
f 42 56 57
f 42 57 58
f 42 58 43
f 43 58 52
f 43 52 47
f 44 48 45
f 45 48 46
f 52 58 57
f 54 59 55
f 55 59 56

