# https://github.com/mikedh/trimesh
v 0.02507686 -0.10445488 0.01502681
v 0.02507686 -0.11763208 0.01502681
v 0.02507686 -0.10550491 0.01770080
v 0.02908750 -0.10742181 0.01874522
v 0.02807818 -0.10571857 0.01502681
v 0.02804009 -0.12004652 0.01502681
v 0.02507686 -0.11756644 0.01515816
v 0.02507686 -0.10669076 0.01981681
v 0.02823624 -0.10578877 0.01502681
v 0.03068909 -0.10975383 0.02145544
v 0.03621373 -0.11262767 0.02252431
v 0.03525963 -0.11118083 0.02081231
v 0.03386181 -0.10968973 0.01917005
v 0.02815245 -0.12004346 0.01502681
v 0.04170789 -0.11933378 0.01873616
v 0.04156888 -0.11872178 0.02030142
v 0.04254583 -0.11781521 0.02212032
v 0.04069857 -0.11695139 0.02313303
v 0.03858088 -0.11569990 0.02403251
v 0.03560813 -0.11434922 0.02427074
v 0.03281249 -0.11316948 0.02400171
v 0.02507686 -0.11744436 0.01540092
v 0.02507686 -0.10677165 0.01994091
v 0.03856755 -0.11133955 0.01732217
v 0.03864754 -0.11095648 0.01566361
v 0.03766678 -0.11034753 0.01502681
v 0.02735070 -0.10838484 0.02115199
v 0.03074432 -0.11099464 0.02302161
v 0.03347331 -0.11280166 0.02396910
v 0.03802861 -0.11444995 0.02389664
v 0.04008535 -0.11509553 0.02347271
v 0.04052908 -0.11421491 0.02189567
v 0.03903984 -0.11246742 0.01991192
v 0.04226588 -0.11640806 0.01502681
v 0.04237443 -0.11753897 0.01623247
v 0.04341803 -0.11837533 0.01806766
v 0.04426358 -0.11824866 0.01926697
v 0.04303525 -0.11882861 0.01992822
v 0.04385414 -0.11805483 0.02083586
v 0.04270770 -0.11696207 0.02281146
v 0.04105468 -0.11620203 0.02367833
v 0.03872181 -0.11534583 0.02427980
v 0.03585951 -0.11391425 0.02420099
v 0.03021490 -0.11158223 0.02361855
v 0.02629376 -0.10973705 0.02265113
v 0.02507686 -0.10931429 0.02192919
v 0.02507686 -0.10806739 0.02152791
v 0.04101660 -0.11294512 0.01826513
v 0.03997871 -0.11192714 0.01502681
v 0.03951023 -0.11157154 0.01502681
v 0.03820001 -0.11064361 0.01502681
v 0.04185453 -0.11346556 0.01680132
v 0.02666321 -0.10915862 0.02230601
v 0.04252297 -0.11598683 0.02226434
v 0.04251155 -0.11447284 0.01981590
v 0.04270198 -0.11620814 0.01502681
v 0.04363894 -0.11736499 0.01665096
v 0.04452448 -0.11704601 0.01813469
v 0.04453210 -0.11761986 0.01984308
v 0.04384271 -0.11643706 0.02051248
v 0.02507686 -0.10837874 0.02189929
v 0.02507686 -0.10869770 0.02208318
v 0.04175169 -0.11383031 0.01502681
v 0.04190595 -0.11402109 0.01502681
v 0.04335900 -0.11500396 0.01797708
v 0.04424073 -0.11608298 0.01875790
v 0.04289433 -0.11603872 0.01502681
v 0.04357800 -0.11648895 0.01588735
v 0.04360467 -0.11577469 0.01671346
v 0.04205640 -0.11422865 0.01502681
v 0.04289813 -0.11575332 0.01502681
v 0.04271912 -0.11534888 0.01502681
f 1 2 7
f 1 7 22
f 1 22 46
f 1 46 62
f 1 62 61
f 1 61 47
f 1 47 23
f 1 23 8
f 1 8 3
f 1 3 4
f 1 4 5
f 1 5 9
f 1 9 26
f 1 26 51
f 1 51 50
f 1 50 49
f 1 49 63
f 1 63 64
f 1 64 70
f 1 70 72
f 1 72 71
f 1 71 67
f 1 67 56
f 1 56 34
f 1 34 14
f 1 14 6
f 1 6 2
f 2 6 7
f 3 8 4
f 4 9 5
f 4 8 10
f 4 10 11
f 4 11 12
f 4 12 13
f 4 13 9
f 6 14 15
f 6 15 16
f 6 16 17
f 6 17 18
f 6 18 19
f 6 19 20
f 6 20 21
f 6 21 22
f 6 22 7
f 8 23 10
f 9 13 24
f 9 24 25
f 9 25 26
f 10 23 27
f 10 27 28
f 10 28 11
f 11 28 29
f 11 29 30
f 11 30 31
f 11 31 32
f 11 32 12
f 12 32 33
f 12 33 13
f 13 33 24
f 14 34 35
f 14 35 15
f 15 35 36
f 15 36 37
f 15 37 38
f 15 38 16
f 16 38 17
f 17 38 39
f 17 39 40
f 17 40 18
f 18 40 41
f 18 41 19
f 19 41 42
f 19 42 20
f 20 42 43
f 20 43 29
f 20 29 21
f 21 44 45
f 21 45 22
f 21 29 44
f 22 45 46
f 23 47 27
f 24 33 48
f 24 48 25
f 25 49 50
f 25 50 51
f 25 51 26
f 25 48 52
f 25 52 49
f 27 53 28
f 27 47 53
f 28 53 44
f 28 44 29
f 29 43 30
f 30 43 42
f 30 42 31
f 31 41 54
f 31 54 32
f 31 42 41
f 32 54 55
f 32 55 33
f 33 55 48
f 34 56 35
f 35 56 57
f 35 57 36
f 36 57 37
f 37 58 59
f 37 59 39
f 37 39 38
f 37 57 58
f 39 59 40
f 40 54 41
f 40 59 60
f 40 60 54
f 44 53 61
f 44 61 62
f 44 62 45
f 45 62 46
f 47 61 53
f 48 55 52
f 49 52 63
f 52 64 63
f 52 55 65
f 52 65 64
f 54 60 55
f 55 60 66
f 55 66 65
f 56 67 68
f 56 68 57
f 57 68 58
f 58 68 69
f 58 69 66
f 58 66 59
f 59 66 60
f 64 65 69
f 64 69 70
f 65 66 69
f 67 71 68
f 68 71 69
f 69 71 72
f 69 72 70

