# https://github.com/mikedh/trimesh
v -0.01509570 -0.09717454 -0.02605349
v -0.01509570 -0.09806266 -0.02812193
v -0.02243389 -0.09825584 -0.02605349
v -0.01509570 -0.11124225 -0.02605349
v -0.02415395 -0.09855904 -0.02605349
v -0.01509570 -0.10228324 -0.03506622
v -0.02168511 -0.12302928 -0.02605349
v -0.01509570 -0.12295952 -0.03824142
v -0.02361384 -0.09909566 -0.02705228
v -0.02452788 -0.09951155 -0.02723618
v -0.02452788 -0.09867709 -0.02605349
v -0.01509570 -0.10429291 -0.03802884
v -0.02452788 -0.11645021 -0.03382279
v -0.02452788 -0.11690367 -0.03406068
v -0.02346242 -0.11981755 -0.03545932
v -0.02235449 -0.12195334 -0.03581699
v -0.02111915 -0.12398984 -0.03598908
v -0.02054210 -0.12422059 -0.03579338
v -0.01885158 -0.12458550 -0.03805584
v -0.01686931 -0.12454525 -0.03898545
v -0.01575030 -0.12390666 -0.03907487
v -0.01509570 -0.12308563 -0.03844725
v -0.02452788 -0.10145683 -0.02605349
v -0.01509570 -0.10511932 -0.03920478
v -0.02452788 -0.10086386 -0.02870399
v -0.01509570 -0.10612550 -0.04052750
v -0.02452788 -0.11654682 -0.03427326
v -0.02215691 -0.12222433 -0.03666225
v -0.01509570 -0.10894547 -0.04328768
v -0.02062058 -0.12399253 -0.03752270
v -0.02017464 -0.12343443 -0.03803222
v -0.01749068 -0.12350419 -0.03904619
v -0.01509570 -0.12235313 -0.03884373
v -0.02452788 -0.10174125 -0.02962180
v -0.01509570 -0.10816468 -0.04270392
v -0.02452788 -0.11018777 -0.03393414
v -0.02452788 -0.10872814 -0.03380929
v -0.02452788 -0.10767635 -0.03357984
v -0.02452788 -0.10698946 -0.03336895
v -0.02452788 -0.10658431 -0.03320023
v -0.02452788 -0.10545203 -0.03257936
v -0.02452788 -0.10503346 -0.03234654
v -0.02452788 -0.10487783 -0.03224362
v -0.02452788 -0.10303988 -0.03080111
v -0.02452788 -0.10349334 -0.03118916
f 1 2 3
f 1 3 5
f 1 5 11
f 1 11 23
f 1 23 7
f 1 7 4
f 1 4 8
f 1 8 22
f 1 22 33
f 1 33 29
f 1 29 35
f 1 35 26
f 1 26 24
f 1 24 12
f 1 12 6
f 1 6 2
f 2 5 3
f 2 6 5
f 4 7 8
f 5 9 10
f 5 10 11
f 5 6 12
f 5 12 9
f 7 13 14
f 7 14 15
f 7 15 16
f 7 16 17
f 7 17 18
f 7 18 19
f 7 19 20
f 7 20 21
f 7 21 22
f 7 22 8
f 7 23 13
f 9 12 24
f 9 24 10
f 10 25 34
f 10 34 44
f 10 44 45
f 10 45 43
f 10 43 42
f 10 42 41
f 10 41 40
f 10 40 39
f 10 39 38
f 10 38 37
f 10 37 36
f 10 36 27
f 10 27 14
f 10 14 13
f 10 13 23
f 10 23 11
f 10 24 26
f 10 26 25
f 14 27 15
f 15 28 16
f 15 27 29
f 15 29 28
f 16 28 17
f 17 30 19
f 17 19 18
f 17 28 30
f 19 30 31
f 19 31 20
f 20 29 21
f 20 31 32
f 20 32 29
f 21 33 22
f 21 29 33
f 25 26 35
f 25 35 34
f 27 36 29
f 28 31 30
f 28 29 31
f 29 37 38
f 29 38 39
f 29 39 40
f 29 40 41
f 29 41 42
f 29 42 43
f 29 43 35
f 29 32 31
f 29 36 37
f 34 35 44
f 35 43 45
f 35 45 44

