# https://github.com/mikedh/trimesh
v -0.02412141 -0.13391340 0.00430982
v -0.02344090 -0.13382021 0.00526729
v -0.02335143 -0.13337696 0.00681980
v -0.02370176 -0.13339458 0.00630049
v -0.02500353 -0.13268940 0.00205409
v -0.02782635 -0.12844068 -0.01260547
v -0.02771419 -0.12840794 -0.01260547
v -0.02746845 -0.12822661 -0.01260547
v -0.01699002 -0.10818684 0.00412861
v -0.01658676 -0.10818684 0.00647630
v -0.01536312 -0.10818684 0.01502591
v -0.02087013 -0.10818684 -0.01260547
v -0.02308805 -0.13136466 0.00848861
v -0.02343587 -0.13073504 0.00908365
v -0.02601546 -0.12924913 -0.00011509
v -0.02820314 -0.12772794 -0.01260547
v -0.02812501 -0.12791935 -0.01260547
v -0.01885888 -0.10818684 0.01502591
v -0.01835228 -0.11317349 0.01502591
v -0.02203076 -0.12321982 0.01307040
v -0.02283854 -0.12593476 0.01221030
v -0.02304899 -0.12845327 0.01063074
v -0.02293809 -0.10818684 -0.01260547
v -0.02339554 -0.12802009 0.01058206
v -0.02661153 -0.12673312 -0.00126460
v -0.02823591 -0.12741062 -0.01260547
v -0.02438604 -0.10818684 -0.00461574
v -0.02702361 -0.11832636 -0.00347706
v -0.02229918 -0.12290752 0.01316506
v -0.01973722 -0.11338252 0.01502591
v -0.01955324 -0.11485586 0.01502591
v -0.02305907 -0.12573077 0.01163149
v -0.02296329 -0.10823218 -0.01260547
v -0.02294691 -0.10818684 -0.01256490
v -0.02671234 -0.12430277 -0.00168383
v -0.02813383 -0.12576351 -0.01168317
v -0.02823086 -0.12650898 -0.01260547
v -0.02378116 -0.10991706 -0.01260547
v -0.02484475 -0.11294179 -0.01260547
v -0.02691902 -0.12052249 -0.01260547
v -0.02780618 -0.12400055 -0.01260547
v -0.01972966 -0.11489362 0.01502591
v -0.01981032 -0.11429171 0.01502591
f 1 2 3
f 1 3 4
f 1 4 5
f 1 5 6
f 1 6 7
f 1 7 8
f 1 8 2
f 2 9 10
f 2 10 11
f 2 11 3
f 2 8 12
f 2 12 9
f 3 13 14
f 3 14 4
f 3 11 13
f 4 14 5
f 5 14 15
f 5 15 16
f 5 16 17
f 5 17 6
f 6 17 16
f 6 16 26
f 6 26 37
f 6 37 41
f 6 41 40
f 6 40 39
f 6 39 38
f 6 38 33
f 6 33 23
f 6 23 12
f 6 12 8
f 6 8 7
f 9 12 23
f 9 23 34
f 9 34 27
f 9 27 18
f 9 18 11
f 9 11 10
f 11 18 30
f 11 30 43
f 11 43 42
f 11 42 31
f 11 31 19
f 11 19 20
f 11 20 21
f 11 21 22
f 11 22 13
f 13 22 14
f 14 22 21
f 14 21 24
f 14 24 15
f 15 25 16
f 15 24 25
f 16 25 26
f 18 27 28
f 18 28 29
f 18 29 30
f 19 31 20
f 20 29 21
f 20 31 29
f 21 29 32
f 21 32 24
f 23 33 34
f 24 32 35
f 24 35 25
f 25 35 36
f 25 36 26
f 26 36 37
f 27 34 33
f 27 33 38
f 27 38 39
f 27 39 40
f 27 40 41
f 27 41 28
f 28 41 36
f 28 36 35
f 28 35 32
f 28 32 29
f 29 31 42
f 29 42 43
f 29 43 30
f 36 41 37

