# https://github.com/mikedh/trimesh
v -0.00058825 -0.08841210 -0.01883675
v 0.00621240 -0.08478937 -0.00814019
v 0.00542517 -0.08191082 -0.00960771
v 0.00541193 -0.08092246 -0.01069280
v 0.00548470 -0.08092246 -0.01098308
v 0.00637448 -0.08092246 -0.01214650
v 0.00735687 -0.08092246 -0.01294592
v 0.00846164 -0.08092246 -0.01369927
v 0.00929518 -0.08092246 -0.01418306
v 0.00983765 -0.08092246 -0.01432360
v 0.01068111 -0.08092246 -0.01450099
v 0.01228535 -0.08092246 -0.01454476
v -0.00041625 -0.08840697 -0.01883675
v -0.00036332 -0.08841210 -0.01883675
v 0.00832933 -0.08841210 -0.00661968
v 0.00799856 -0.08813788 -0.00686388
v 0.00744287 -0.08647132 -0.00726935
v 0.02549965 -0.08841210 0.00375435
v 0.00563355 -0.08092246 -0.01015602
v 0.01243089 -0.08092246 -0.01453324
v 0.01424021 -0.08092246 -0.01434203
v 0.01474629 -0.08092246 -0.01418076
v 0.01760745 -0.08092246 -0.01303577
v 0.02568488 -0.08092246 -0.00973903
v 0.02789774 -0.08092246 -0.00858252
v 0.02859897 -0.08201566 -0.00717029
v 0.02962436 -0.08429299 -0.00445410
v 0.03247561 -0.08840257 0.00178920
v 0.03247230 -0.08841210 0.00179842
v 0.02258556 -0.08841210 0.00199885
v 0.02843689 -0.08841210 0.00464822
v 0.02863536 -0.08639801 0.00276602
v 0.02822520 -0.08395644 -0.00012065
v 0.02865520 -0.08092246 -0.00529269
v 0.02881066 -0.08092246 -0.00782226
v 0.02951520 -0.08136899 -0.00689844
v 0.03066298 -0.08424313 -0.00374453
v 0.03202575 -0.08645153 -0.00049156
v 0.03310076 -0.08841210 0.00268308
v 0.03090444 -0.08841210 0.00469891
v 0.03090113 -0.08726390 0.00358847
v 0.02923736 -0.08423726 0.00030325
v 0.02938290 -0.08092246 -0.00529499
v 0.02939282 -0.08092246 -0.00724862
v 0.03048436 -0.08177885 -0.00498859
v 0.03156268 -0.08440664 -0.00215951
v 0.03285268 -0.08724485 0.00170166
v 0.03319668 -0.08841210 0.00332354
v 0.03242599 -0.08841210 0.00431187
v 0.03238630 -0.08818921 0.00411144
v 0.03209191 -0.08634668 0.00194356
v 0.03079529 -0.08433111 -0.00014599
v 0.02982944 -0.08092246 -0.00535950
v 0.03036859 -0.08244092 -0.00298197
v 0.02996836 -0.08092246 -0.00574884
v 0.03160237 -0.08405983 -0.00133936
v 0.03312722 -0.08841210 0.00353779
v 0.03274353 -0.08841210 0.00399164
f 1 2 3
f 1 3 4
f 1 4 5
f 1 5 6
f 1 6 7
f 1 7 8
f 1 8 9
f 1 9 10
f 1 10 11
f 1 11 12
f 1 12 13
f 1 13 14
f 1 14 29
f 1 29 39
f 1 39 48
f 1 48 57
f 1 57 58
f 1 58 49
f 1 49 40
f 1 40 31
f 1 31 18
f 1 18 30
f 1 30 15
f 1 15 16
f 1 16 2
f 2 16 15
f 2 15 17
f 2 17 18
f 2 18 3
f 3 19 4
f 3 18 19
f 4 19 34
f 4 34 43
f 4 43 53
f 4 53 55
f 4 55 44
f 4 44 35
f 4 35 25
f 4 25 24
f 4 24 23
f 4 23 22
f 4 22 21
f 4 21 20
f 4 20 12
f 4 12 11
f 4 11 10
f 4 10 9
f 4 9 8
f 4 8 7
f 4 7 6
f 4 6 5
f 12 20 14
f 12 14 13
f 14 20 21
f 14 21 22
f 14 22 23
f 14 23 24
f 14 24 25
f 14 25 26
f 14 26 27
f 14 27 28
f 14 28 29
f 15 30 17
f 17 30 18
f 18 31 32
f 18 32 19
f 19 32 33
f 19 33 34
f 25 35 36
f 25 36 26
f 26 36 37
f 26 37 27
f 27 37 28
f 28 37 38
f 28 38 39
f 28 39 29
f 31 40 32
f 32 40 41
f 32 41 42
f 32 42 33
f 33 42 43
f 33 43 34
f 35 44 36
f 36 44 45
f 36 45 46
f 36 46 37
f 37 46 38
f 38 47 39
f 38 46 47
f 39 47 48
f 40 49 50
f 40 50 41
f 41 50 51
f 41 51 52
f 41 52 42
f 42 53 43
f 42 52 54
f 42 54 53
f 44 55 45
f 45 56 47
f 45 47 46
f 45 55 56
f 47 56 48
f 48 56 57
f 49 58 50
f 50 58 57
f 50 57 51
f 51 57 56
f 51 56 52
f 52 56 54
f 53 54 56
f 53 56 55

