# https://github.com/mikedh/trimesh
v 0.02727715 -0.11663159 -0.02605370
v 0.02726408 -0.11453623 -0.02605370
v 0.02681458 -0.11761004 -0.02605370
v 0.02717784 -0.11983471 -0.02903521
v 0.02722749 -0.11433464 -0.02605370
v 0.02716608 -0.11517869 -0.02752448
v 0.02704325 -0.11371764 -0.02748642
v 0.02637814 -0.11763345 -0.02605370
v 0.02630235 -0.12174781 -0.03007407
v 0.02678844 -0.12003732 -0.02862042
v 0.02654932 -0.12217341 -0.03077616
v 0.02687076 -0.12147394 -0.03124232
v 0.02707200 -0.11874528 -0.02943096
v 0.02706285 -0.11371764 -0.02708115
v 0.02703410 -0.11371764 -0.02605370
v 0.02658590 -0.12020328 -0.03205476
v 0.02577706 -0.12015136 -0.03463290
v 0.02696354 -0.11371764 -0.02768240
v 0.02601357 -0.11765077 -0.02605370
v 0.02616515 -0.12315593 -0.03186830
v 0.01405600 -0.11371764 -0.04040183
v 0.02611941 -0.12335549 -0.03349319
v 0.02618998 -0.12234853 -0.03407161
v 0.02434231 -0.11371764 -0.02605370
v 0.02514723 -0.12158491 -0.03661930
v 0.02467029 -0.11948039 -0.03681908
v 0.02390195 -0.11744001 -0.03708355
v 0.02178119 -0.11402919 -0.03717869
v 0.02170278 -0.11371764 -0.03697510
v 0.02586591 -0.11734226 -0.02605370
v 0.01596508 -0.11371764 -0.03748882
v 0.02565031 -0.12355402 -0.03380904
v 0.01657662 -0.11834616 -0.04207809
v 0.01877579 -0.12187204 -0.04319116
v 0.02189356 -0.12389104 -0.04119144
v 0.01392794 -0.11371764 -0.04145972
v 0.01482695 -0.11570405 -0.04242248
v 0.01600951 -0.11811505 -0.04297806
v 0.02502832 -0.12366094 -0.03663071
v 0.02536153 -0.12318139 -0.03622925
v 0.02435146 -0.12293296 -0.03839450
v 0.02352693 -0.12069403 -0.03930398
v 0.02318850 -0.11795723 -0.03883592
v 0.02089394 -0.11608689 -0.04013545
v 0.02148195 -0.11371764 -0.03728714
v 0.02253646 -0.12411808 -0.04094980
v 0.01617024 -0.11843373 -0.04314740
v 0.01730575 -0.12067571 -0.04434419
v 0.01934420 -0.12294720 -0.04426047
v 0.02101023 -0.12392057 -0.04321589
v 0.01402987 -0.11371764 -0.04163477
v 0.01617024 -0.11843576 -0.04423764
v 0.01617024 -0.11843678 -0.04412918
v 0.02407052 -0.12365584 -0.03874650
v 0.02262139 -0.12343083 -0.04120667
v 0.02149502 -0.12226504 -0.04270598
v 0.01948009 -0.12041302 -0.04435750
v 0.01791075 -0.11624368 -0.04375816
v 0.01929324 -0.11458103 -0.04084325
v 0.01935335 -0.11371764 -0.04000417
v 0.01618984 -0.11847445 -0.04426047
v 0.01834458 -0.12202577 -0.04513190
v 0.01965258 -0.12289324 -0.04490928
v 0.01484002 -0.11371764 -0.04267173
v 0.01519805 -0.11531817 -0.04317784
v 0.01617024 -0.11841439 -0.04424144
v 0.01820215 -0.11967079 -0.04520800
v 0.01736456 -0.11671814 -0.04440697
v 0.01634533 -0.11371764 -0.04322731
v 0.01646032 -0.11371764 -0.04315120
v 0.01842429 -0.11371764 -0.04115149
v 0.01656486 -0.11707652 -0.04441649
v 0.01725349 -0.11964431 -0.04506911
v 0.01836156 -0.12136092 -0.04548960
v 0.01531827 -0.11371764 -0.04302372
v 0.01578345 -0.11453522 -0.04348988
v 0.01617024 -0.11579365 -0.04395033
v 0.01617024 -0.11656745 -0.04405878
v 0.01617024 -0.11402919 -0.04333196
v 0.01617024 -0.11371764 -0.04321589
v 0.01603173 -0.11371764 -0.04320638
f 1 2 5
f 1 5 15
f 1 15 24
f 1 24 30
f 1 30 19
f 1 19 8
f 1 8 3
f 1 3 4
f 1 4 2
f 2 4 6
f 2 6 7
f 2 7 5
f 3 8 9
f 3 9 10
f 3 10 4
f 4 10 11
f 4 11 12
f 4 12 13
f 4 13 6
f 5 7 14
f 5 14 15
f 6 13 7
f 7 13 16
f 7 16 17
f 7 17 18
f 7 18 29
f 7 29 45
f 7 45 60
f 7 60 71
f 7 71 70
f 7 70 69
f 7 69 80
f 7 80 81
f 7 81 75
f 7 75 64
f 7 64 51
f 7 51 36
f 7 36 21
f 7 21 31
f 7 31 24
f 7 24 15
f 7 15 14
f 8 19 9
f 9 20 11
f 9 11 10
f 9 19 21
f 9 21 20
f 11 20 12
f 12 16 13
f 12 20 22
f 12 22 23
f 12 23 16
f 16 23 17
f 17 25 26
f 17 26 18
f 17 23 25
f 18 26 27
f 18 27 28
f 18 28 29
f 19 30 31
f 19 31 21
f 20 32 22
f 20 21 33
f 20 33 34
f 20 34 35
f 20 35 32
f 21 36 37
f 21 37 38
f 21 38 33
f 22 32 39
f 22 39 40
f 22 40 23
f 23 40 25
f 24 31 30
f 25 40 41
f 25 41 42
f 25 42 26
f 26 42 43
f 26 43 27
f 27 43 28
f 28 43 44
f 28 44 45
f 28 45 29
f 32 35 46
f 32 46 39
f 33 38 47
f 33 47 48
f 33 48 34
f 34 48 49
f 34 49 35
f 35 49 50
f 35 50 46
f 36 51 52
f 36 52 37
f 37 52 53
f 37 53 38
f 38 53 47
f 39 46 54
f 39 54 40
f 40 54 41
f 41 54 55
f 41 55 42
f 42 55 56
f 42 56 43
f 43 56 57
f 43 57 58
f 43 58 44
f 44 59 60
f 44 60 45
f 44 58 59
f 46 50 55
f 46 55 54
f 47 53 48
f 48 53 61
f 48 61 62
f 48 62 49
f 49 62 63
f 49 63 50
f 50 63 56
f 50 56 55
f 51 64 65
f 51 65 66
f 51 66 52
f 52 66 61
f 52 61 53
f 56 63 57
f 57 63 67
f 57 67 58
f 58 67 68
f 58 68 69
f 58 69 70
f 58 70 71
f 58 71 59
f 59 71 60
f 61 66 72
f 61 72 73
f 61 73 62
f 62 73 74
f 62 74 63
f 63 74 67
f 64 75 65
f 65 75 76
f 65 76 77
f 65 77 78
f 65 78 66
f 66 78 72
f 67 74 73
f 67 73 72
f 67 72 68
f 68 72 77
f 68 77 76
f 68 76 79
f 68 79 69
f 69 79 80
f 72 78 77
f 75 81 76
f 76 81 79
f 79 81 80

