# https://github.com/mikedh/trimesh
v -0.01899347 -0.09451980 -0.01260548
v -0.01899347 -0.09451980 -0.01944841
v -0.02219938 -0.09451980 -0.01260548
v -0.01899347 -0.10660104 -0.01260548
v -0.01923355 -0.09451980 -0.01943657
v -0.01899347 -0.09581118 -0.02248226
v -0.02241846 -0.09451980 -0.01321224
v -0.02349471 -0.09503783 -0.01350971
v -0.02276991 -0.09482691 -0.01260548
v -0.02746923 -0.12822515 -0.01260548
v -0.02637291 -0.13232130 -0.01746621
v -0.02516704 -0.13169596 -0.01960636
v -0.02376126 -0.13001606 -0.02159777
v -0.01899347 -0.11347975 -0.02299295
v -0.02008341 -0.09451980 -0.01896537
v -0.02011353 -0.09586668 -0.02254939
v -0.02205880 -0.09664003 -0.02367079
v -0.01899347 -0.09685464 -0.02424202
v -0.02261107 -0.09451980 -0.01381112
v -0.02424050 -0.09541526 -0.01511547
v -0.02678551 -0.09695455 -0.01658567
v -0.02623416 -0.09679544 -0.01498780
v -0.02449245 -0.09614790 -0.01260548
v -0.02368367 -0.09548926 -0.01260548
v -0.02284750 -0.09488242 -0.01260548
v -0.02266128 -0.09451980 -0.01470087
v -0.02771479 -0.12840647 -0.01260548
v -0.02750575 -0.12943512 -0.01360711
v -0.02711323 -0.13167006 -0.01577358
v -0.02736882 -0.13192168 -0.01627768
v -0.02668419 -0.13216588 -0.01777420
v -0.02575856 -0.13182917 -0.01924177
v -0.02466863 -0.13053779 -0.02100811
v -0.02168636 -0.12303003 -0.02605180
v -0.01899347 -0.11529286 -0.02605180
v -0.02137600 -0.09487133 -0.01918912
v -0.02121625 -0.09451980 -0.01809930
v -0.01899347 -0.09724686 -0.02488433
v -0.02145815 -0.09756138 -0.02522259
v -0.02308210 -0.09649572 -0.02266521
v -0.02243490 -0.09825703 -0.02605180
v -0.02415378 -0.09856045 -0.02605180
v -0.02456091 -0.09815342 -0.02529630
v -0.02557508 -0.09628851 -0.01778342
v -0.02831909 -0.09800541 -0.01795847
v -0.02831909 -0.09799062 -0.01772682
v -0.02831909 -0.09834953 -0.01611184
v -0.02746467 -0.09854935 -0.01292531
v -0.02731679 -0.09851974 -0.01260548
v -0.02218112 -0.09451980 -0.01679495
v -0.02317521 -0.09504154 -0.01739119
v -0.02782707 -0.12843977 -0.01260548
v -0.02777869 -0.13024178 -0.01426652
v -0.02782524 -0.13070060 -0.01499043
v -0.02802607 -0.12930562 -0.01509836
v -0.02831909 -0.10264920 -0.02605180
v -0.02654361 -0.13006046 -0.01894036
v -0.02557052 -0.13011597 -0.02026577
v -0.02438473 -0.12640095 -0.02254676
v -0.02401868 -0.12811784 -0.02236906
v -0.01899347 -0.09817932 -0.02605180
v -0.02431444 -0.09642912 -0.02091071
v -0.01899347 -0.09756138 -0.02530683
v -0.01960416 -0.09813492 -0.02605180
v -0.02116604 -0.09817562 -0.02605180
v -0.02651622 -0.09875286 -0.02481589
v -0.02501916 -0.09883057 -0.02605180
v -0.02593383 -0.09914138 -0.02605180
v -0.02598039 -0.09697305 -0.02006439
v -0.02831909 -0.09840874 -0.02017627
v -0.02831909 -0.09831993 -0.01971428
v -0.02831909 -0.09888977 -0.01435471
v -0.02768649 -0.09885276 -0.01260548
v -0.02812557 -0.12791803 -0.01260548
v -0.02827345 -0.12800314 -0.01293716
v -0.02831909 -0.10222737 -0.01260548
v -0.02831909 -0.10036246 -0.02605180
v -0.02829445 -0.12699668 -0.01320830
v -0.02724102 -0.09828293 -0.02244672
v -0.02699547 -0.09960391 -0.02605180
v -0.02831909 -0.10022555 -0.02575434
v -0.02831909 -0.10011084 -0.02549241
v -0.02831909 -0.09954841 -0.02420648
v -0.02831909 -0.09917838 -0.02321275
v -0.02831909 -0.09861965 -0.02109630
v -0.02831909 -0.09947070 -0.01260548
v -0.02820316 -0.12772562 -0.01260548
v -0.02823694 -0.12741110 -0.01260548
f 1 2 5
f 1 5 15
f 1 15 37
f 1 37 50
f 1 50 26
f 1 26 19
f 1 19 7
f 1 7 3
f 1 3 9
f 1 9 25
f 1 25 24
f 1 24 23
f 1 23 49
f 1 49 73
f 1 73 86
f 1 86 76
f 1 76 88
f 1 88 87
f 1 87 74
f 1 74 52
f 1 52 27
f 1 27 10
f 1 10 4
f 1 4 14
f 1 14 35
f 1 35 61
f 1 61 63
f 1 63 38
f 1 38 18
f 1 18 6
f 1 6 2
f 2 6 5
f 3 7 8
f 3 8 9
f 4 10 11
f 4 11 12
f 4 12 13
f 4 13 14
f 5 6 16
f 5 16 17
f 5 17 15
f 6 18 16
f 7 19 8
f 8 20 21
f 8 21 22
f 8 22 23
f 8 23 24
f 8 24 25
f 8 25 9
f 8 19 26
f 8 26 20
f 10 27 28
f 10 28 29
f 10 29 11
f 11 29 30
f 11 30 31
f 11 31 32
f 11 32 12
f 12 32 33
f 12 33 13
f 13 33 34
f 13 34 35
f 13 35 14
f 15 17 36
f 15 36 37
f 16 18 38
f 16 38 39
f 16 39 17
f 17 40 36
f 17 39 41
f 17 41 42
f 17 42 43
f 17 43 40
f 20 26 44
f 20 44 21
f 21 44 45
f 21 45 46
f 21 46 22
f 22 46 47
f 22 47 48
f 22 48 49
f 22 49 23
f 26 50 51
f 26 51 44
f 27 52 53
f 27 53 28
f 28 53 29
f 29 53 30
f 30 53 54
f 30 54 55
f 30 55 56
f 30 56 31
f 31 56 57
f 31 57 32
f 32 57 58
f 32 58 33
f 33 58 56
f 33 56 59
f 33 59 60
f 33 60 34
f 34 60 56
f 34 56 77
f 34 77 80
f 34 80 68
f 34 68 67
f 34 67 42
f 34 42 41
f 34 41 65
f 34 65 64
f 34 64 61
f 34 61 35
f 36 51 37
f 36 40 62
f 36 62 51
f 37 51 50
f 38 63 39
f 39 63 64
f 39 64 65
f 39 65 41
f 40 43 66
f 40 66 62
f 42 67 43
f 43 67 68
f 43 68 66
f 44 69 70
f 44 70 71
f 44 71 45
f 44 51 69
f 45 71 70
f 45 70 85
f 45 85 84
f 45 84 83
f 45 83 82
f 45 82 81
f 45 81 77
f 45 77 56
f 45 56 76
f 45 76 86
f 45 86 72
f 45 72 47
f 45 47 46
f 47 72 48
f 48 72 73
f 48 73 49
f 51 62 69
f 52 74 75
f 52 75 53
f 53 75 54
f 54 75 55
f 55 75 56
f 56 60 59
f 56 58 57
f 56 75 78
f 56 78 76
f 61 64 63
f 62 66 79
f 62 79 69
f 66 68 80
f 66 80 77
f 66 77 81
f 66 81 82
f 66 82 83
f 66 83 84
f 66 84 79
f 69 79 85
f 69 85 70
f 72 86 73
f 74 87 75
f 75 87 88
f 75 88 76
f 75 76 78
f 79 84 85

