# https://github.com/mikedh/trimesh
v 0.00769203 -0.12580107 -0.03247339
v 0.00769203 -0.12479971 -0.03169940
v 0.00769203 -0.12575112 -0.03250658
v 0.01497687 -0.13476792 -0.03113385
v 0.01308050 -0.13259490 -0.03093006
v 0.00926655 -0.12782197 -0.03172529
v 0.00769203 -0.11504495 -0.02605180
v 0.00769203 -0.12469527 -0.03283317
v 0.01617174 -0.13549453 -0.03107012
v 0.01765183 -0.13639599 -0.03099046
v 0.01787539 -0.13585103 -0.03032069
v 0.01616981 -0.13521297 -0.03079863
v 0.01818374 -0.13262215 -0.02803988
v 0.01617174 -0.13356902 -0.02972261
v 0.01606574 -0.13026974 -0.02779228
v 0.01155415 -0.13060126 -0.03097121
v 0.01364710 -0.13000180 -0.02908271
v 0.01250426 -0.12244049 -0.02605180
v 0.00769203 -0.11371888 -0.02605180
v 0.00769203 -0.12339871 -0.03281060
v 0.01994906 -0.13668664 -0.03085903
v 0.01975056 -0.13691369 -0.03064330
v 0.02008011 -0.13609853 -0.02994565
v 0.01646467 -0.13327383 -0.02937677
v 0.02636666 -0.13138691 -0.02605180
v 0.01825119 -0.12916392 -0.02605180
v 0.01786575 -0.12881425 -0.02605180
v 0.01648973 -0.12741779 -0.02605180
v 0.01616981 -0.12707038 -0.02605180
v 0.01471477 -0.12669118 -0.02669170
v 0.01344474 -0.12372796 -0.02605180
v 0.00953636 -0.11371888 -0.02605180
v 0.00769203 -0.11371888 -0.02853839
v 0.00769203 -0.12256766 -0.03260549
v 0.02427564 -0.13250180 -0.02941461
v 0.02350861 -0.13488372 -0.03013748
v 0.02217692 -0.13640280 -0.03044880
v 0.02195914 -0.13663441 -0.03006646
v 0.02360498 -0.13611896 -0.02965424
v 0.02553026 -0.13395956 -0.02803324
v 0.02694675 -0.13133694 -0.02605180
v 0.01550685 -0.12634149 -0.02605180
v 0.02661335 -0.12599635 -0.02605180
v 0.02698337 -0.12630516 -0.02605180
v 0.02507158 -0.13273340 -0.02889153
v 0.02480755 -0.13468619 -0.02913116
v 0.02706817 -0.13118027 -0.02646004
v 0.02719922 -0.13091233 -0.02605180
v 0.02736688 -0.12864622 -0.02605180
v 0.02624910 -0.13094413 -0.02751548
v 0.02737845 -0.13004267 -0.02605180
v 0.02737074 -0.13060126 -0.02605180
f 1 2 7
f 1 7 19
f 1 19 33
f 1 33 34
f 1 34 20
f 1 20 8
f 1 8 3
f 1 3 4
f 1 4 5
f 1 5 6
f 1 6 2
f 2 6 7
f 3 8 4
f 4 8 9
f 4 9 10
f 4 10 11
f 4 11 12
f 4 12 13
f 4 13 14
f 4 14 15
f 4 15 5
f 5 16 6
f 5 15 17
f 5 17 16
f 6 16 7
f 7 18 31
f 7 31 42
f 7 42 29
f 7 29 28
f 7 28 27
f 7 27 26
f 7 26 25
f 7 25 41
f 7 41 48
f 7 48 52
f 7 52 51
f 7 51 49
f 7 49 44
f 7 44 43
f 7 43 32
f 7 32 19
f 7 16 18
f 8 20 21
f 8 21 10
f 8 10 9
f 10 21 22
f 10 22 11
f 11 22 23
f 11 23 13
f 11 13 12
f 13 24 14
f 13 23 25
f 13 25 26
f 13 26 15
f 13 15 24
f 14 24 15
f 15 26 27
f 15 27 28
f 15 28 29
f 15 29 30
f 15 30 17
f 16 17 18
f 17 30 31
f 17 31 18
f 19 32 33
f 20 34 35
f 20 35 36
f 20 36 37
f 20 37 21
f 21 37 22
f 22 37 38
f 22 38 23
f 23 38 25
f 25 38 39
f 25 39 40
f 25 40 41
f 29 42 30
f 30 42 31
f 32 43 33
f 33 43 44
f 33 44 34
f 34 44 35
f 35 45 36
f 35 44 45
f 36 45 46
f 36 46 39
f 36 39 37
f 37 39 38
f 39 46 40
f 40 46 47
f 40 47 48
f 40 48 41
f 44 49 50
f 44 50 45
f 45 50 46
f 46 50 47
f 47 50 51
f 47 51 52
f 47 52 48
f 49 51 50

