# https://github.com/mikedh/trimesh
v 0.00406234 -0.03472386 0.08694018
v 0.00406234 -0.03011364 0.08041628
v -0.00381686 -0.03532890 0.08694018
v 0.00665452 -0.03492115 0.08694018
v 0.00355517 -0.03011364 0.08028785
v 0.00639289 -0.03011364 0.07973368
v 0.00848596 -0.02714101 0.07144979
v -0.00381686 -0.03526314 0.08682364
v -0.00381686 -0.04709448 0.08694018
v 0.00848596 -0.03542098 0.08694018
v 0.01432845 -0.03665739 0.08693780
v 0.00673100 -0.03011364 0.07962428
v 0.00163317 -0.03011364 0.07890363
v -0.00381686 -0.03129743 0.07834947
v 0.00848596 -0.03011364 0.06383421
v -0.00381686 -0.03027806 0.06264740
v -0.00381686 -0.03104752 0.07645390
v -0.00381686 -0.03105410 0.07655142
v 0.00848596 -0.02812093 0.07386384
v 0.01674353 -0.03765045 0.08693780
v 0.01674353 -0.03618386 0.07127379
v 0.00848596 -0.04709448 0.08694018
v -0.00381686 -0.07071771 0.08693305
v 0.01674353 -0.06945499 0.08693780
v 0.00848596 -0.02837742 0.07444179
v 0.00848596 -0.03269168 0.06264740
v -0.00371020 -0.03028464 0.06264740
v 0.00848596 -0.08996090 0.06264264
v 0.00760647 -0.09072378 0.06264264
v 0.00747364 -0.09124334 0.06264264
v 0.00742735 -0.09261128 0.06264264
v -0.00381686 -0.04704187 0.06264740
v 0.01674353 -0.06759381 0.07127379
v -0.00381686 -0.07883325 0.07904633
v -0.00336605 -0.08224652 0.07904633
v -0.00264958 -0.08438392 0.08075164
v -0.00238593 -0.08612015 0.08011423
v -0.00065713 -0.08650160 0.08051142
v 0.00037934 -0.08650160 0.08051142
v 0.00277228 -0.08873107 0.07775488
v 0.01674353 -0.07194096 0.08489239
v 0.00848596 -0.09428831 0.06264264
v 0.00773729 -0.09370300 0.06264264
v 0.00009355 -0.07344700 0.06470470
v -0.00069336 -0.07437431 0.06593195
v -0.00214643 -0.07445980 0.06785605
v -0.00268781 -0.07705757 0.06944243
v -0.00340831 -0.07705757 0.07126903
v -0.00371020 -0.07445980 0.07126903
v -0.00381686 -0.07419674 0.07148308
v 0.01674353 -0.06873814 0.07181368
v -0.00381686 -0.07964876 0.07675596
v -0.00381686 -0.07975398 0.07645390
v -0.00340227 -0.08224652 0.07645390
v -0.00274819 -0.08508762 0.07916763
v -0.00243021 -0.08615304 0.07838514
v 0.00788219 -0.09405813 0.06264264
v -0.00135952 -0.08686988 0.07916763
v 0.00264549 -0.08873107 0.07775488
v 0.00848596 -0.09432778 0.06305648
v 0.01674353 -0.07230924 0.08428828
v 0.00848596 -0.09432778 0.06277107
v 0.00837527 -0.09426859 0.06264264
v 0.01674353 -0.06989563 0.07301238
v 0.01674353 -0.07113861 0.07442039
v 0.01674353 -0.07235529 0.07660611
v 0.01674353 -0.07243421 0.07676071
v 0.01674353 -0.07328916 0.07904871
v 0.00784194 -0.09399237 0.06264264
v -0.00254492 -0.07866884 0.06975162
v -0.00180631 -0.07705757 0.06814145
v -0.00289310 -0.07957642 0.07125951
v -0.00360554 -0.07964876 0.07386146
v -0.00381686 -0.07858334 0.07386146
v -0.00381686 -0.07705757 0.07277454
v -0.00381686 -0.07618288 0.07217043
v -0.00381686 -0.07899109 0.07452027
v -0.00293737 -0.08226626 0.07385195
v -0.00264354 -0.08391698 0.07471054
v -0.00274215 -0.08480483 0.07668936
v -0.00243021 -0.08615304 0.07770493
v 0.01674353 -0.07371665 0.08118212
v 0.01674353 -0.07361799 0.08156741
v -0.00266970 -0.08141129 0.07211097
f 1 2 3
f 1 3 9
f 1 9 22
f 1 22 10
f 1 10 4
f 1 4 2
f 2 5 3
f 2 4 6
f 2 6 7
f 2 7 5
f 3 8 14
f 3 14 18
f 3 18 17
f 3 17 16
f 3 16 32
f 3 32 50
f 3 50 76
f 3 76 75
f 3 75 74
f 3 74 77
f 3 77 53
f 3 53 52
f 3 52 34
f 3 34 23
f 3 23 9
f 3 5 8
f 4 10 11
f 4 11 12
f 4 12 6
f 5 7 13
f 5 13 14
f 5 14 8
f 6 12 7
f 7 15 16
f 7 16 17
f 7 17 18
f 7 18 14
f 7 14 13
f 7 12 19
f 7 19 20
f 7 20 21
f 7 21 15
f 9 23 24
f 9 24 22
f 10 22 24
f 10 24 20
f 10 20 11
f 11 20 25
f 11 25 12
f 12 25 19
f 15 26 27
f 15 27 16
f 15 21 26
f 16 27 28
f 16 28 29
f 16 29 30
f 16 30 31
f 16 31 32
f 19 25 20
f 20 24 41
f 20 41 61
f 20 61 83
f 20 83 82
f 20 82 68
f 20 68 67
f 20 67 66
f 20 66 65
f 20 65 64
f 20 64 51
f 20 51 33
f 20 33 21
f 21 33 42
f 21 42 28
f 21 28 26
f 23 34 35
f 23 35 36
f 23 36 37
f 23 37 38
f 23 38 39
f 23 39 24
f 24 39 40
f 24 40 41
f 26 28 27
f 28 42 63
f 28 63 57
f 28 57 69
f 28 69 43
f 28 43 31
f 28 31 30
f 28 30 29
f 31 43 44
f 31 44 32
f 32 44 45
f 32 45 46
f 32 46 47
f 32 47 48
f 32 48 49
f 32 49 50
f 33 51 42
f 34 52 35
f 35 52 53
f 35 53 54
f 35 54 55
f 35 55 37
f 35 37 36
f 37 55 56
f 37 56 57
f 37 57 58
f 37 58 38
f 38 58 59
f 38 59 40
f 38 40 39
f 40 59 60
f 40 60 41
f 41 60 61
f 42 62 63
f 42 51 64
f 42 64 65
f 42 65 66
f 42 66 67
f 42 67 68
f 42 68 62
f 43 69 70
f 43 70 71
f 43 71 45
f 43 45 44
f 45 71 46
f 46 71 47
f 47 71 70
f 47 70 48
f 48 70 72
f 48 72 73
f 48 73 74
f 48 74 75
f 48 75 76
f 48 76 50
f 48 50 49
f 53 77 54
f 54 77 73
f 54 73 78
f 54 78 79
f 54 79 80
f 54 80 81
f 54 81 55
f 55 81 56
f 56 81 57
f 57 63 62
f 57 62 60
f 57 60 58
f 57 81 69
f 58 60 59
f 60 62 82
f 60 82 83
f 60 83 61
f 62 68 82
f 69 81 79
f 69 79 84
f 69 84 70
f 70 84 72
f 72 84 73
f 73 77 74
f 73 84 78
f 78 84 79
f 79 81 80

