# https://github.com/mikedh/trimesh
v 0.01264764 -0.12136766 0.02514930
v 0.01264764 -0.11895875 0.01502591
v 0.01558096 -0.12865576 0.02514930
v 0.01264764 -0.10634358 0.02514930
v 0.02066653 -0.11908516 0.01502591
v 0.02083321 -0.13618585 0.02514930
v 0.02021637 -0.13584276 0.02514930
v 0.01941095 -0.13500127 0.02514930
v 0.01865907 -0.13408755 0.02514930
v 0.01805196 -0.13319911 0.02514930
v 0.01593014 -0.12935641 0.02514930
v 0.01264764 -0.09929022 0.01502591
v 0.01489234 -0.10776654 0.02514930
v 0.02507686 -0.10869832 0.02208305
v 0.02507686 -0.10838050 0.02189872
v 0.01264764 -0.10614856 0.02491740
v 0.02303898 -0.11882512 0.01502591
v 0.02222383 -0.12062006 0.01601100
v 0.02182720 -0.12838130 0.02056479
v 0.02112764 -0.13015817 0.02158158
v 0.02136123 -0.13595110 0.02514930
v 0.01264764 -0.10068790 0.01731222
v 0.02507686 -0.10669030 0.01981854
v 0.02507686 -0.10550570 0.01770071
v 0.01906542 -0.10194110 0.01502591
v 0.01665769 -0.10904864 0.02514930
v 0.01734388 -0.10957593 0.02514930
v 0.01929537 -0.11125891 0.02514930
v 0.01984773 -0.11177175 0.02514930
v 0.02063733 -0.11260241 0.02514930
v 0.02149020 -0.11392063 0.02514930
v 0.02163132 -0.11416622 0.02514930
v 0.02173596 -0.11446237 0.02514930
v 0.02227979 -0.11602255 0.02514930
v 0.02348306 -0.11986525 0.02514930
v 0.02414491 -0.12217664 0.02514930
v 0.02442717 -0.12323482 0.02514930
v 0.02491018 -0.12554982 0.02514930
v 0.02493329 -0.12569068 0.02514930
v 0.02505982 -0.12688610 0.02514930
v 0.02506104 -0.12716781 0.02514930
v 0.02507686 -0.10931589 0.02192844
v 0.02507686 -0.10806991 0.02152807
v 0.02507686 -0.10677336 0.01994242
v 0.01264764 -0.10581630 0.02450810
v 0.02458290 -0.11798362 0.01502591
v 0.02324946 -0.12236083 0.01724979
v 0.02482866 -0.12821877 0.02465378
v 0.02492478 -0.12845352 0.02514930
v 0.02507686 -0.11763692 0.01502591
v 0.01264764 -0.10388772 0.02199088
v 0.02492112 -0.10666141 0.01986016
v 0.02507686 -0.10445835 0.01502591
v 0.02423859 -0.10410081 0.01502591
v 0.02507686 -0.11744551 0.01540052
v 0.01264764 -0.10576935 0.02444963
f 1 2 3
f 1 3 11
f 1 11 10
f 1 10 9
f 1 9 8
f 1 8 7
f 1 7 6
f 1 6 21
f 1 21 49
f 1 49 41
f 1 41 40
f 1 40 39
f 1 39 38
f 1 38 37
f 1 37 36
f 1 36 35
f 1 35 34
f 1 34 33
f 1 33 32
f 1 32 31
f 1 31 30
f 1 30 29
f 1 29 28
f 1 28 27
f 1 27 26
f 1 26 13
f 1 13 4
f 1 4 16
f 1 16 45
f 1 45 56
f 1 56 51
f 1 51 22
f 1 22 12
f 1 12 2
f 2 5 6
f 2 6 7
f 2 7 8
f 2 8 9
f 2 9 10
f 2 10 11
f 2 11 3
f 2 12 25
f 2 25 54
f 2 54 53
f 2 53 50
f 2 50 46
f 2 46 17
f 2 17 5
f 4 13 14
f 4 14 15
f 4 15 16
f 5 17 18
f 5 18 19
f 5 19 20
f 5 20 6
f 6 20 19
f 6 19 21
f 12 22 23
f 12 23 24
f 12 24 25
f 13 26 14
f 14 26 27
f 14 27 28
f 14 28 29
f 14 29 30
f 14 30 31
f 14 31 32
f 14 32 33
f 14 33 34
f 14 34 35
f 14 35 36
f 14 36 37
f 14 37 38
f 14 38 39
f 14 39 40
f 14 40 41
f 14 41 42
f 14 42 55
f 14 55 50
f 14 50 53
f 14 53 24
f 14 24 23
f 14 23 44
f 14 44 43
f 14 43 15
f 15 43 16
f 16 43 44
f 16 44 45
f 17 46 47
f 17 47 19
f 17 19 18
f 19 47 21
f 21 48 49
f 21 47 46
f 21 46 50
f 21 50 48
f 22 51 52
f 22 52 23
f 23 52 44
f 24 53 54
f 24 54 25
f 41 49 50
f 41 50 55
f 41 55 42
f 44 52 51
f 44 51 56
f 44 56 45
f 48 50 49

