# https://github.com/mikedh/trimesh
v -0.01899347 -0.11529180 -0.02605180
v -0.00091790 -0.11354955 -0.02605180
v -0.00335356 -0.12822191 -0.02430520
v -0.00538328 -0.12989490 -0.02343124
v -0.00790567 -0.12990528 -0.02177677
v -0.00980438 -0.12914327 -0.01982221
v -0.01070484 -0.12882461 -0.01862184
v -0.01123256 -0.12932338 -0.01610657
v -0.01161267 -0.12951043 -0.01447054
v -0.01184886 -0.12944461 -0.01289636
v -0.01186362 -0.12938920 -0.01260548
v -0.01899347 -0.11348027 -0.02299295
v -0.01899347 -0.09817749 -0.02605180
v -0.00014292 -0.11256238 -0.02605180
v -0.00238668 -0.12705810 -0.02443155
v -0.00274096 -0.12791711 -0.02394061
v -0.00423741 -0.12899087 -0.02380504
v -0.01164958 -0.12934417 -0.01260548
v -0.01168279 -0.12935802 -0.01260548
v -0.01899347 -0.10660130 -0.01260548
v -0.01899347 -0.09756442 -0.02530683
v -0.01179350 -0.09452326 -0.02605180
v -0.00014292 -0.11253813 -0.02598731
v -0.00116516 -0.12492791 -0.02372870
v -0.00137551 -0.12611251 -0.02405117
v -0.00014292 -0.09697904 -0.02605180
v -0.00014292 -0.10437412 -0.01260548
v -0.01899347 -0.09452326 -0.01260548
v -0.01899347 -0.09724575 -0.02488433
v -0.01899347 -0.09475186 -0.01998674
v -0.01899347 -0.09452326 -0.01944841
v -0.00793519 -0.09452326 -0.02605180
v -0.01899347 -0.09685436 -0.02424202
v -0.01899347 -0.09581177 -0.02248226
v -0.00014292 -0.11215712 -0.02507781
v -0.00014292 -0.09452326 -0.02467637
v -0.00014292 -0.10174861 -0.01260548
v -0.01377894 -0.09452326 -0.01260548
v -0.00014292 -0.09452326 -0.02358129
v -0.01135250 -0.09452326 -0.01438761
f 1 2 3
f 1 3 4
f 1 4 5
f 1 5 6
f 1 6 7
f 1 7 8
f 1 8 9
f 1 9 10
f 1 10 11
f 1 11 12
f 1 12 20
f 1 20 28
f 1 28 31
f 1 31 30
f 1 30 34
f 1 34 33
f 1 33 29
f 1 29 21
f 1 21 13
f 1 13 22
f 1 22 32
f 1 32 26
f 1 26 14
f 1 14 2
f 2 14 15
f 2 15 3
f 3 15 16
f 3 16 17
f 3 17 4
f 4 17 16
f 4 16 18
f 4 18 19
f 4 19 10
f 4 10 5
f 5 10 9
f 5 9 8
f 5 8 6
f 6 8 7
f 10 19 11
f 11 19 18
f 11 18 27
f 11 27 37
f 11 37 38
f 11 38 28
f 11 28 20
f 11 20 12
f 13 21 22
f 14 23 24
f 14 24 25
f 14 25 15
f 14 26 36
f 14 36 39
f 14 39 37
f 14 37 27
f 14 27 35
f 14 35 23
f 15 25 16
f 16 25 18
f 18 25 27
f 21 29 22
f 22 30 31
f 22 31 28
f 22 28 38
f 22 38 40
f 22 40 39
f 22 39 36
f 22 36 32
f 22 29 33
f 22 33 34
f 22 34 30
f 23 35 24
f 24 35 27
f 24 27 25
f 26 32 36
f 37 39 40
f 37 40 38

