# https://github.com/mikedh/trimesh
v -0.00289331 -0.09861435 0.02369411
v -0.00289331 -0.09861435 0.02249510
v -0.00317234 -0.09861435 0.02373034
v -0.00289331 -0.10375539 0.02659257
v -0.00289331 -0.10348788 0.01502591
v -0.01379224 -0.09861435 0.01502591
v -0.00605429 -0.09861435 0.02354353
v -0.00859057 -0.10298385 0.02659257
v -0.00729120 -0.10298385 0.02659257
v -0.00511308 -0.10326688 0.02659257
v -0.00289331 -0.11492922 0.02659257
v -0.00289331 -0.10731846 0.01502591
v -0.02050568 -0.09861435 0.01502591
v -0.00620005 -0.09861435 0.02353107
v -0.01143087 -0.10349175 0.02659257
v -0.01147669 -0.13622232 0.02657898
v -0.00943184 -0.13324857 0.02650426
v -0.00689972 -0.12975141 0.02596646
v -0.00417603 -0.12674278 0.02501427
v -0.00289331 -0.12387759 0.02471537
v -0.03233333 -0.12970102 0.02659257
v -0.00289331 -0.12473831 0.02415605
v -0.00453002 -0.12747943 0.02483651
v -0.01426285 -0.13776153 0.02634461
v -0.04411517 -0.12981732 0.01502591
v -0.02155518 -0.09919979 0.01502591
v -0.01580377 -0.09861435 0.01939284
v -0.01455437 -0.09861435 0.02053298
v -0.01140172 -0.10033966 0.02351296
v -0.01400464 -0.10411210 0.02659257
v -0.01248454 -0.10373601 0.02659257
v -0.00816161 -0.13210094 0.02602986
v -0.00546707 -0.12867358 0.02536525
v -0.00310987 -0.12532763 0.02438589
v -0.00289331 -0.12414124 0.02461233
v -0.03265818 -0.12951879 0.02659257
v -0.04541871 -0.13011587 0.01502591
v -0.01928960 -0.13754828 0.02561887
v -0.01700320 -0.13822290 0.02598684
v -0.00289331 -0.12468791 0.02435645
v -0.04538123 -0.13010810 0.01502591
v -0.02291286 -0.10000235 0.01502591
v -0.02500769 -0.10138648 0.01502591
v -0.02296283 -0.10735335 0.02440061
v -0.02330017 -0.10936170 0.02659257
v -0.02053900 -0.10754721 0.02659257
v -0.02039324 -0.10745416 0.02659257
v -0.01995595 -0.10721765 0.02659257
v -0.01614944 -0.10516278 0.02659257
v -0.03314544 -0.12778960 0.02659257
v -0.04543954 -0.13009648 0.01502591
v -0.02774387 -0.10337932 0.01502591
v -0.02524924 -0.11102109 0.02659257
v -0.02802707 -0.10360031 0.01502591
v -0.03320375 -0.12718089 0.02659257
v -0.04535624 -0.12980181 0.01502591
v -0.03301634 -0.12531988 0.02659257
v -0.03299968 -0.12521131 0.02659257
v -0.03295803 -0.12504072 0.02659257
v -0.03237914 -0.12296259 0.02659257
v -0.02541582 -0.11116843 0.02659257
v -0.03020935 -0.10550009 0.01502591
v -0.04495644 -0.12842932 0.01502591
v -0.03180026 -0.12098527 0.02659257
v -0.02578648 -0.11152124 0.02659257
v -0.03170031 -0.10696952 0.01502591
v -0.04486481 -0.12823935 0.01502591
v -0.03144209 -0.11990356 0.02659257
v -0.03049255 -0.11761218 0.02659257
v -0.03017604 -0.11693370 0.02659257
v -0.03175028 -0.10701992 0.01502591
v -0.02824363 -0.11408014 0.02659257
v -0.03715185 -0.11466558 0.01502591
v -0.02860179 -0.11457253 0.02659257
v -0.03454893 -0.11054421 0.01502591
v -0.03668957 -0.11387077 0.01502591
v -0.03181275 -0.10708584 0.01502591
v -0.03230418 -0.10769454 0.01502591
v -0.03418661 -0.11007896 0.01502591
f 1 2 6
f 1 6 13
f 1 13 27
f 1 27 28
f 1 28 14
f 1 14 7
f 1 7 3
f 1 3 4
f 1 4 11
f 1 11 20
f 1 20 35
f 1 35 40
f 1 40 22
f 1 22 12
f 1 12 5
f 1 5 2
f 2 5 6
f 3 7 8
f 3 8 9
f 3 9 10
f 3 10 4
f 4 10 9
f 4 9 8
f 4 8 15
f 4 15 31
f 4 31 30
f 4 30 49
f 4 49 48
f 4 48 47
f 4 47 46
f 4 46 45
f 4 45 53
f 4 53 61
f 4 61 65
f 4 65 72
f 4 72 74
f 4 74 70
f 4 70 69
f 4 69 68
f 4 68 64
f 4 64 60
f 4 60 59
f 4 59 58
f 4 58 57
f 4 57 55
f 4 55 50
f 4 50 36
f 4 36 21
f 4 21 11
f 5 12 25
f 5 25 41
f 5 41 37
f 5 37 51
f 5 51 56
f 5 56 63
f 5 63 67
f 5 67 73
f 5 73 76
f 5 76 75
f 5 75 79
f 5 79 78
f 5 78 77
f 5 77 71
f 5 71 66
f 5 66 62
f 5 62 54
f 5 54 52
f 5 52 43
f 5 43 42
f 5 42 26
f 5 26 13
f 5 13 6
f 7 14 8
f 8 14 15
f 11 16 17
f 11 17 18
f 11 18 19
f 11 19 20
f 11 21 16
f 12 22 23
f 12 23 16
f 12 16 24
f 12 24 25
f 13 26 27
f 14 28 29
f 14 29 30
f 14 30 31
f 14 31 15
f 16 23 32
f 16 32 17
f 16 21 24
f 17 32 33
f 17 33 18
f 18 33 19
f 19 33 23
f 19 23 34
f 19 34 35
f 19 35 20
f 21 36 37
f 21 37 38
f 21 38 39
f 21 39 24
f 22 40 34
f 22 34 23
f 23 33 32
f 24 39 25
f 25 39 41
f 26 42 27
f 27 42 28
f 28 42 43
f 28 43 44
f 28 44 45
f 28 45 46
f 28 46 47
f 28 47 48
f 28 48 49
f 28 49 30
f 28 30 29
f 34 40 35
f 36 50 51
f 36 51 37
f 37 41 39
f 37 39 38
f 43 52 44
f 44 52 45
f 45 52 54
f 45 54 53
f 50 55 51
f 51 55 57
f 51 57 58
f 51 58 59
f 51 59 60
f 51 60 56
f 53 54 62
f 53 62 61
f 56 60 63
f 60 64 63
f 61 62 65
f 62 66 65
f 63 64 68
f 63 68 69
f 63 69 70
f 63 70 67
f 65 66 71
f 65 71 72
f 67 70 73
f 70 74 75
f 70 75 76
f 70 76 73
f 71 77 72
f 72 77 78
f 72 78 79
f 72 79 75
f 72 75 74

