# https://github.com/mikedh/trimesh
v 0.04773029 -0.05879999 0.05110681
v 0.04709364 -0.05723725 0.05206082
v 0.04071182 -0.05985419 0.06264151
v 0.04596525 -0.05921108 0.05110681
v 0.04403774 -0.05718321 0.03840662
v 0.04433411 -0.05718321 0.03883677
v 0.04492466 -0.05718321 0.04012481
v 0.04516395 -0.05718321 0.04072317
v 0.04715512 -0.05718321 0.04577922
v 0.04717926 -0.05718321 0.04585612
v 0.04722756 -0.05718321 0.04604115
v 0.04769956 -0.05718321 0.04792755
v 0.04747124 -0.05718321 0.05053007
v 0.04727367 -0.05703276 0.05110681
v 0.04387090 -0.05314443 0.05311337
v 0.04217611 -0.05179252 0.05509830
v 0.04431435 -0.05491167 0.05446389
v 0.03498420 -0.05110703 0.06264151
v 0.02530498 -0.05985419 0.06264151
v 0.03641994 -0.05985419 0.05143603
v 0.04550642 -0.05930855 0.05110681
v 0.03965586 -0.05093963 0.05736438
v 0.04376552 -0.05718321 0.03809422
v 0.04202463 -0.05455250 0.03842584
v 0.04133968 -0.05282447 0.03952404
v 0.04235612 -0.05370384 0.04029303
v 0.04174362 -0.05232862 0.04125425
v 0.03965148 -0.04913320 0.04274175
v 0.03935071 -0.04948813 0.04087697
v 0.03956805 -0.04903149 0.04274175
v 0.04746246 -0.05689185 0.04792755
v 0.04513321 -0.05399520 0.05051806
v 0.04642846 -0.05560987 0.05051806
v 0.04738343 -0.05690668 0.05051806
v 0.04257346 -0.05135495 0.05311337
v 0.04096428 -0.05093963 0.05585526
v 0.04222221 -0.05093963 0.05311337
v 0.03479979 -0.05093963 0.06264151
v 0.02530498 -0.05335845 0.06264151
v 0.02530498 -0.05985419 0.05239725
v 0.03627505 -0.05985419 0.05110681
v 0.04071401 -0.04903149 0.05110681
v 0.03727832 -0.05718321 0.03809422
v 0.04238686 -0.05540327 0.03809422
v 0.04147360 -0.05423465 0.03809422
v 0.03939023 -0.05163677 0.03809422
v 0.03729808 -0.04903149 0.03809422
v 0.03763396 -0.04903149 0.03851957
v 0.03890945 -0.05004224 0.03914677
v 0.03913777 -0.04903149 0.04138882
v 0.03842209 -0.04903149 0.03978598
v 0.03877115 -0.04903149 0.04046605
v 0.04011688 -0.04903149 0.04533465
v 0.04635382 -0.05559503 0.04792755
v 0.04403335 -0.05269839 0.05051806
v 0.04238027 -0.05093963 0.05163068
v 0.04156361 -0.04995430 0.05110681
v 0.02802061 -0.05093963 0.06264151
v 0.02530498 -0.05094705 0.05743888
v 0.02530498 -0.05916022 0.05110681
v 0.02941684 -0.05985419 0.05110681
v 0.03443976 -0.04903149 0.05110681
v 0.04076890 -0.04903149 0.05051806
v 0.03137947 -0.04903149 0.03809422
v 0.04020250 -0.04903149 0.04577441
v 0.04262175 -0.05134542 0.04792755
v 0.04273592 -0.05122146 0.05051806
v 0.04243515 -0.05093963 0.05110681
v 0.04158776 -0.04992464 0.05051806
v 0.02535767 -0.05093963 0.05746771
v 0.02530498 -0.05093963 0.05252702
v 0.02530498 -0.05093963 0.05110681
v 0.04067450 -0.04903149 0.04919397
v 0.04148238 -0.05004860 0.04792755
v 0.04058010 -0.04903149 0.04807174
f 1 2 3
f 1 3 4
f 1 4 5
f 1 5 6
f 1 6 7
f 1 7 8
f 1 8 9
f 1 9 10
f 1 10 11
f 1 11 12
f 1 12 13
f 1 13 2
f 2 13 14
f 2 14 15
f 2 15 16
f 2 16 17
f 2 17 3
f 3 18 38
f 3 38 58
f 3 58 39
f 3 39 19
f 3 19 40
f 3 40 61
f 3 61 41
f 3 41 20
f 3 20 21
f 3 21 4
f 3 17 16
f 3 16 22
f 3 22 18
f 4 21 23
f 4 23 5
f 5 23 24
f 5 24 6
f 6 24 25
f 6 25 7
f 7 25 26
f 7 26 27
f 7 27 8
f 8 27 9
f 9 28 10
f 9 27 29
f 9 29 28
f 10 28 30
f 10 30 11
f 11 31 12
f 11 30 31
f 12 31 32
f 12 32 33
f 12 33 34
f 12 34 13
f 13 34 14
f 14 34 15
f 15 34 35
f 15 35 16
f 16 36 22
f 16 35 37
f 16 37 36
f 18 22 38
f 19 39 59
f 19 59 71
f 19 71 72
f 19 72 60
f 19 60 40
f 20 41 21
f 21 41 23
f 22 36 42
f 22 42 38
f 23 41 61
f 23 61 43
f 23 43 64
f 23 64 47
f 23 47 46
f 23 46 45
f 23 45 44
f 23 44 24
f 24 44 45
f 24 45 46
f 24 46 47
f 24 47 48
f 24 48 49
f 24 49 25
f 25 49 29
f 25 29 27
f 25 27 26
f 28 29 30
f 29 50 30
f 29 49 51
f 29 51 52
f 29 52 50
f 30 50 52
f 30 52 51
f 30 51 48
f 30 48 47
f 30 47 64
f 30 64 62
f 30 62 42
f 30 42 63
f 30 63 73
f 30 73 75
f 30 75 65
f 30 65 53
f 30 53 54
f 30 54 31
f 31 54 55
f 31 55 32
f 32 55 37
f 32 37 35
f 32 35 33
f 33 35 34
f 36 37 42
f 37 55 56
f 37 56 57
f 37 57 42
f 38 42 62
f 38 62 58
f 39 58 59
f 40 60 43
f 40 43 61
f 42 57 63
f 43 60 64
f 48 51 49
f 53 65 54
f 54 65 66
f 54 66 55
f 55 67 68
f 55 68 56
f 55 66 67
f 56 68 57
f 57 68 67
f 57 67 69
f 57 69 63
f 58 62 70
f 58 70 59
f 59 70 62
f 59 62 64
f 59 64 71
f 60 72 64
f 63 69 73
f 64 72 71
f 65 74 66
f 65 75 74
f 66 74 67
f 67 74 69
f 69 74 73
f 73 74 75

