# https://github.com/mikedh/trimesh
v 0.02615701 -0.11355482 -0.01846771
v 0.04511096 -0.12789169 -0.01846771
v 0.04571677 -0.12842447 -0.01736423
v 0.02615701 -0.11355482 -0.01661711
v 0.02615701 -0.10157172 -0.01846771
v 0.04521193 -0.12796217 -0.01846771
v 0.04740037 -0.12967606 -0.01665326
v 0.02615701 -0.11349563 -0.01550905
v 0.04364339 -0.11893608 -0.01260548
v 0.04418346 -0.11949422 -0.01260548
v 0.04547492 -0.12086702 -0.01260548
v 0.04617231 -0.12162813 -0.01260548
v 0.04813533 -0.12386069 -0.01260548
v 0.04843353 -0.12458514 -0.01323382
v 0.04597506 -0.12300656 -0.01521123
v 0.04765866 -0.12524758 -0.01545912
v 0.04527532 -0.12388324 -0.01713069
v 0.04384768 -0.12387196 -0.01846771
v 0.02615701 -0.10279512 -0.01260548
v 0.02615936 -0.10279512 -0.01260548
v 0.04122484 -0.11663869 -0.01260548
v 0.04273702 -0.11805940 -0.01260548
v 0.04537395 -0.12802701 -0.01846771
v 0.04668184 -0.12881629 -0.01789101
v 0.04835370 -0.12998332 -0.01653276
v 0.04897830 -0.13036950 -0.01537707
v 0.04851572 -0.12953511 -0.01370493
v 0.02615701 -0.11309816 -0.01260548
v 0.02615701 -0.11316863 -0.01286140
v 0.02615701 -0.11322220 -0.01305650
v 0.02615701 -0.11336032 -0.01392069
v 0.04914501 -0.12550974 -0.01260548
v 0.04923659 -0.12568733 -0.01260548
v 0.04900882 -0.12684025 -0.01466208
v 0.04813298 -0.12720670 -0.01634052
v 0.04644234 -0.12576343 -0.01734415
v 0.04431965 -0.12451185 -0.01846771
v 0.04583887 -0.12773384 -0.01846771
v 0.04772675 -0.12861615 -0.01720586
v 0.04902056 -0.12967606 -0.01592507
v 0.04981422 -0.13033849 -0.01429712
v 0.04958881 -0.12979445 -0.01260548
v 0.04940331 -0.12973243 -0.01260548
v 0.04913327 -0.12956612 -0.01260548
v 0.04939626 -0.12613834 -0.01260548
v 0.05005843 -0.12830889 -0.01298707
v 0.04939391 -0.12881629 -0.01507925
v 0.04518845 -0.12585364 -0.01846771
v 0.04584357 -0.12755343 -0.01846771
v 0.04992224 -0.12983674 -0.01260548
v 0.05014531 -0.12954076 -0.01260548
v 0.05002085 -0.12806365 -0.01260548
v 0.05006313 -0.12827788 -0.01260548
v 0.05013826 -0.12875429 -0.01260548
f 1 2 3
f 1 3 4
f 1 4 8
f 1 8 31
f 1 31 30
f 1 30 29
f 1 29 28
f 1 28 19
f 1 19 5
f 1 5 18
f 1 18 37
f 1 37 48
f 1 48 49
f 1 49 38
f 1 38 23
f 1 23 6
f 1 6 2
f 2 6 7
f 2 7 3
f 3 7 4
f 4 7 8
f 5 9 10
f 5 10 11
f 5 11 12
f 5 12 13
f 5 13 14
f 5 14 15
f 5 15 16
f 5 16 17
f 5 17 18
f 5 19 20
f 5 20 21
f 5 21 22
f 5 22 9
f 6 23 7
f 7 24 25
f 7 25 26
f 7 26 27
f 7 27 28
f 7 28 29
f 7 29 30
f 7 30 31
f 7 31 8
f 7 23 24
f 9 22 21
f 9 21 20
f 9 20 19
f 9 19 28
f 9 28 44
f 9 44 43
f 9 43 42
f 9 42 50
f 9 50 51
f 9 51 54
f 9 54 53
f 9 53 52
f 9 52 45
f 9 45 33
f 9 33 32
f 9 32 13
f 9 13 12
f 9 12 11
f 9 11 10
f 13 32 14
f 14 32 33
f 14 33 34
f 14 34 16
f 14 16 15
f 16 34 35
f 16 35 36
f 16 36 17
f 17 36 18
f 18 36 37
f 23 38 24
f 24 38 39
f 24 39 25
f 25 39 40
f 25 40 26
f 26 40 41
f 26 41 42
f 26 42 43
f 26 43 44
f 26 44 27
f 27 44 28
f 33 45 46
f 33 46 34
f 34 46 47
f 34 47 35
f 35 47 40
f 35 40 39
f 35 39 36
f 36 48 37
f 36 39 48
f 38 49 39
f 39 49 48
f 40 47 41
f 41 50 42
f 41 47 46
f 41 46 51
f 41 51 50
f 45 52 46
f 46 52 53
f 46 53 54
f 46 54 51

