# https://github.com/mikedh/trimesh
v -0.01029144 -0.09451980 -0.01883675
v -0.01029144 -0.09451980 -0.01589471
v -0.01029144 -0.09141729 -0.01883675
v 0.01543253 -0.09451980 -0.01883675
v -0.00987681 -0.09323875 0.00046691
v -0.01029144 -0.09321662 0.00046691
v 0.01422002 -0.09451980 -0.00190259
v -0.01029144 -0.09135631 -0.01854954
v -0.00718700 -0.08914033 -0.01883675
v 0.02530332 -0.08841342 0.00046691
v 0.01575308 -0.09451980 -0.01635577
v 0.00646764 -0.09021933 -0.01883675
v 0.01535239 -0.09451980 -0.00134328
v 0.01359287 -0.09355138 0.00046691
v -0.01029144 -0.09058517 0.00046691
v -0.01029144 -0.09112557 -0.01744226
v -0.00646925 -0.08892751 -0.01883675
v -0.01029144 -0.09058637 -0.01446433
v -0.01029144 -0.09044410 -0.01310952
v -0.01029144 -0.09045307 -0.01211183
v 0.02047767 -0.08841342 0.00046691
v 0.01437333 -0.09347846 0.00046691
v 0.01618861 -0.09451980 -0.00189692
v 0.01644992 -0.09451980 -0.00221059
v 0.01649522 -0.09451980 -0.00636760
v 0.01648128 -0.09451980 -0.00678330
v 0.00415761 -0.08924614 -0.01883675
v 0.00144689 -0.08859275 -0.01883675
v -0.00036142 -0.08841342 -0.01883675
v 0.01404930 -0.09351791 0.00046691
v -0.01026705 -0.09058219 0.00046691
v -0.00480031 -0.08864118 -0.01883675
v 0.00832822 -0.08841342 -0.00662080
v -0.00059138 -0.08841342 -0.01883675
v -0.00354599 -0.08850309 -0.01883675
v -0.00158090 -0.08841641 -0.01883675
f 1 2 6
f 1 6 15
f 1 15 20
f 1 20 19
f 1 19 18
f 1 18 16
f 1 16 8
f 1 8 3
f 1 3 9
f 1 9 17
f 1 17 32
f 1 32 35
f 1 35 36
f 1 36 34
f 1 34 29
f 1 29 28
f 1 28 27
f 1 27 12
f 1 12 4
f 1 4 11
f 1 11 26
f 1 26 25
f 1 25 24
f 1 24 23
f 1 23 13
f 1 13 7
f 1 7 2
f 2 5 6
f 2 7 5
f 3 8 9
f 4 10 11
f 4 12 10
f 5 7 13
f 5 13 14
f 5 14 30
f 5 30 22
f 5 22 10
f 5 10 21
f 5 21 31
f 5 31 15
f 5 15 6
f 8 16 9
f 9 16 18
f 9 18 19
f 9 19 20
f 9 20 15
f 9 15 17
f 10 22 13
f 10 13 23
f 10 23 24
f 10 24 25
f 10 25 26
f 10 26 11
f 10 12 27
f 10 27 28
f 10 28 29
f 10 29 34
f 10 34 33
f 10 33 21
f 13 22 30
f 13 30 14
f 15 31 32
f 15 32 17
f 21 33 31
f 31 35 32
f 31 33 35
f 33 34 36
f 33 36 35

