# https://github.com/mikedh/trimesh
v -0.01145006 -0.00248192 0.02188191
v -0.01228093 -0.00282995 0.02040923
v -0.01408659 -0.00277756 0.02023093
v -0.01407351 -0.00269897 0.02196116
v -0.01127996 -0.00265406 0.02451687
v -0.00870885 -0.00260916 0.02442442
v -0.00944812 -0.00261290 0.02267108
v 0.02622688 -0.02104740 0.04915940
v 0.01318159 -0.02358841 0.03881766
v -0.01228093 -0.00387031 0.02040923
v -0.01757362 -0.00546078 0.01792286
v -0.01927462 -0.00540839 0.01782710
v -0.02093635 -0.00558802 0.01791625
v -0.01570254 -0.00297590 0.02036631
v -0.01570254 -0.00297590 0.02107293
v -0.01319030 -0.00290480 0.02360883
v 0.00175224 -0.00532606 0.04555036
v 0.01185351 -0.00532606 0.04803674
v -0.00705365 -0.00282995 0.02636597
v 0.01346945 -0.00532606 0.04720134
v 0.01346945 -0.00532606 0.04597301
v 0.01345637 -0.00532606 0.04579140
v -0.00705365 -0.00282995 0.02518057
v 0.01173575 -0.00532606 0.04326871
v 0.01315542 -0.00532606 0.04525978
v 0.02678952 -0.02066942 0.05051651
v 0.02809797 -0.02267529 0.05110756
v 0.02622688 -0.02139543 0.04915940
v 0.01318159 -0.02395141 0.03881766
v -0.01757362 -0.00612691 0.01792286
v 0.01151331 -0.02687788 0.03809123
v -0.01931387 -0.00701383 0.01775446
v -0.02181956 -0.00693898 0.01752662
v -0.02444955 -0.00771363 0.01743417
v -0.02620943 -0.00811406 0.01777427
v -0.02620943 -0.00811406 0.01865259
v -0.02706646 -0.00896356 0.01947148
v -0.02872820 -0.01070372 0.02097717
v 0.00175224 -0.00673690 0.04599612
v 0.01244886 -0.01024716 0.05110756
v 0.01184043 -0.00773609 0.04958866
v 0.01184043 -0.00644126 0.04876647
v -0.03163951 -0.01300897 0.02120170
v -0.03428259 -0.01538158 0.02136350
v -0.03502186 -0.01721529 0.02220220
v -0.03576114 -0.01922116 0.02303759
v -0.02120459 -0.02601715 0.03808793
v 0.01358067 -0.00780345 0.04959196
v 0.01326664 -0.00532606 0.04731361
v 0.02535676 -0.01939705 0.05110756
v 0.02709701 -0.02091267 0.05110756
v 0.02809797 -0.02311688 0.05110756
v -0.03073013 -0.03957171 0.02579473
v -0.02019708 -0.00861178 0.01788984
v -0.02186535 -0.00913196 0.01752332
v 0.01335823 -0.02687788 0.04104649
v -0.02682440 -0.04071310 0.02797402
v -0.02667392 -0.04057464 0.02797402
v -0.02427291 -0.00985422 0.01737803
v -0.02706646 -0.00952490 0.01742426
v -0.02964412 -0.01044176 0.01771813
v -0.03097220 -0.01090206 0.01806814
v -0.03097220 -0.01090206 0.01820022
v -0.02961140 -0.01040059 0.01920072
v -0.03044881 -0.01128003 0.01993045
v 0.00175224 -0.00974569 0.04681171
v 0.01357413 -0.01037066 0.05110756
v 0.00508880 -0.02111102 0.05110756
v -0.03659201 -0.01798621 0.02131067
v -0.03632377 -0.02094635 0.02344704
v -0.03663781 -0.02260044 0.02369799
v -0.02132235 -0.02640635 0.03808793
v 0.00431682 -0.02246946 0.05110756
v 0.02436233 -0.01856252 0.05110756
v 0.02632502 -0.02362209 0.05110756
v -0.03164605 -0.03957171 0.02579473
v -0.03526393 -0.03478533 0.02295174
v -0.02704684 -0.04068691 0.02788487
v -0.02704684 -0.01185260 0.01750681
v 0.00722813 -0.02687788 0.05110756
v 0.00429719 -0.02687788 0.05110756
v -0.02704684 -0.04070936 0.02797402
v -0.02942168 -0.01247382 0.01764219
v -0.03167876 -0.01403061 0.01785352
v -0.03152829 -0.01223431 0.01788653
v -0.03659201 -0.01798621 0.02018800
v -0.03687333 -0.02005569 0.02210644
v -0.03872479 -0.02388031 0.02070971
v -0.03792663 -0.02286240 0.02174322
v -0.03831917 -0.02519011 0.02208993
v -0.03702380 -0.02519011 0.02400507
v -0.02129618 -0.02786584 0.03808793
v 0.00365605 -0.02519385 0.05110756
v -0.03723969 -0.02778351 0.02424941
v -0.03586582 -0.03037691 0.02569897
v -0.03598358 -0.03297406 0.02573199
v -0.02976842 -0.04018544 0.02707919
v -0.02887213 -0.04051476 0.02797402
v -0.03166568 -0.03973262 0.02718155
v -0.03420408 -0.03769308 0.02523009
v -0.03652005 -0.03478533 0.02295174
v -0.03741634 -0.02668702 0.02067009
v -0.03607517 -0.02664211 0.02067669
v -0.03014133 -0.01403061 0.01785352
v 0.00421214 -0.02667953 0.05110756
v -0.03141053 -0.03971391 0.02797402
v -0.03084135 -0.03996091 0.02797402
v -0.03873788 -0.02660095 0.02068329
v -0.03873788 -0.02519011 0.02068660
v -0.03872479 -0.02388031 0.02069650
v -0.03690604 -0.02001452 0.02000969
v -0.03873788 -0.02519011 0.02079226
v -0.03873788 -0.02660095 0.02081207
v -0.03725278 -0.03037691 0.02440130
v -0.03463587 -0.03556372 0.02676221
v -0.03216944 -0.03828062 0.02797402
v -0.03697146 -0.03297406 0.02443432
v -0.03420408 -0.03769308 0.02645843
v -0.03652005 -0.03478533 0.02405130
f 1 2 3
f 1 3 4
f 1 4 5
f 1 5 6
f 1 6 7
f 1 7 2
f 2 7 8
f 2 8 9
f 2 9 29
f 2 29 10
f 2 10 30
f 2 30 11
f 2 11 3
f 3 11 12
f 3 12 13
f 3 13 14
f 3 14 4
f 4 14 15
f 4 15 16
f 4 16 5
f 5 16 17
f 5 17 18
f 5 18 19
f 5 19 6
f 6 19 20
f 6 20 21
f 6 21 22
f 6 22 23
f 6 23 7
f 7 23 24
f 7 24 8
f 8 24 25
f 8 25 26
f 8 26 27
f 8 27 52
f 8 52 28
f 8 28 29
f 8 29 9
f 10 29 31
f 10 31 30
f 11 30 32
f 11 32 33
f 11 33 12
f 12 33 34
f 12 34 13
f 13 34 35
f 13 35 14
f 14 35 36
f 14 36 15
f 15 36 37
f 15 37 38
f 15 38 17
f 15 17 16
f 17 39 40
f 17 40 41
f 17 41 42
f 17 42 18
f 17 38 43
f 17 43 44
f 17 44 45
f 17 45 46
f 17 46 47
f 17 47 39
f 18 42 48
f 18 48 49
f 18 49 19
f 19 49 20
f 20 48 50
f 20 50 51
f 20 51 21
f 20 49 48
f 21 51 22
f 22 25 23
f 22 51 26
f 22 26 25
f 23 25 24
f 26 51 27
f 27 51 50
f 27 50 74
f 27 74 67
f 27 67 40
f 27 40 68
f 27 68 73
f 27 73 93
f 27 93 105
f 27 105 81
f 27 81 80
f 27 80 75
f 27 75 52
f 28 52 29
f 29 52 31
f 30 53 54
f 30 54 55
f 30 55 32
f 30 31 53
f 31 52 56
f 31 56 57
f 31 57 58
f 31 58 53
f 32 55 33
f 33 55 59
f 33 59 34
f 34 59 60
f 34 60 61
f 34 61 35
f 35 61 62
f 35 62 63
f 35 63 36
f 36 63 64
f 36 64 37
f 37 64 38
f 38 64 65
f 38 65 43
f 39 66 40
f 39 47 66
f 40 67 48
f 40 48 41
f 40 66 68
f 41 48 42
f 43 65 44
f 44 65 63
f 44 63 69
f 44 69 45
f 45 69 46
f 46 69 70
f 46 70 47
f 47 70 71
f 47 71 72
f 47 72 73
f 47 73 66
f 48 67 74
f 48 74 50
f 52 75 57
f 52 57 56
f 53 76 101
f 53 101 77
f 53 77 55
f 53 55 54
f 53 58 57
f 53 57 78
f 53 78 76
f 55 79 59
f 55 77 79
f 57 75 80
f 57 80 81
f 57 81 82
f 57 82 78
f 59 79 60
f 60 79 83
f 60 83 84
f 60 84 85
f 60 85 61
f 61 85 62
f 62 85 86
f 62 86 69
f 62 69 63
f 63 65 64
f 66 73 68
f 69 87 70
f 69 86 110
f 69 110 88
f 69 88 89
f 69 89 87
f 70 87 89
f 70 89 71
f 71 89 90
f 71 90 91
f 71 91 72
f 72 92 93
f 72 93 73
f 72 91 94
f 72 94 95
f 72 95 96
f 72 96 92
f 76 78 97
f 76 97 98
f 76 98 99
f 76 99 100
f 76 100 101
f 77 101 102
f 77 102 103
f 77 103 79
f 78 82 98
f 78 98 97
f 79 103 104
f 79 104 84
f 79 84 83
f 81 105 92
f 81 92 106
f 81 106 107
f 81 107 98
f 81 98 82
f 84 104 102
f 84 102 108
f 84 108 109
f 84 109 110
f 84 110 111
f 84 111 85
f 85 111 86
f 86 111 110
f 88 110 109
f 88 109 112
f 88 112 90
f 88 90 89
f 90 112 113
f 90 113 114
f 90 114 94
f 90 94 91
f 92 96 115
f 92 115 116
f 92 116 106
f 92 105 93
f 94 114 95
f 95 114 96
f 96 114 117
f 96 117 115
f 98 107 99
f 99 107 106
f 99 106 118
f 99 118 100
f 100 118 119
f 100 119 101
f 101 119 113
f 101 113 108
f 101 108 102
f 102 104 103
f 106 116 118
f 108 113 112
f 108 112 109
f 113 119 117
f 113 117 114
f 115 117 118
f 115 118 116
f 117 119 118

