# https://github.com/mikedh/trimesh
v -0.02155670 0.14732781 0.02846796
v -0.02092182 0.14709496 0.02645036
v -0.02094140 0.14457257 0.02739840
v -0.02109243 0.14347304 0.02886231
v -0.02154551 0.14647408 0.02942976
v -0.02119871 0.14734074 0.03039385
v -0.02106166 0.14846613 0.02946988
v -0.02090225 0.14840145 0.02725854
v -0.01948986 0.14797460 0.02509880
v -0.02015270 0.14582731 0.02561237
v 0.00023603 0.01730066 0.02545531
v -0.00010518 0.01730066 0.02604684
v -0.00028977 0.01730066 0.02642858
v -0.00048555 0.01730066 0.02739611
v -0.00057505 0.01730066 0.02790738
v -0.02089665 0.14510292 0.03081915
v -0.00051911 0.01730066 0.02817907
v -0.02075961 0.14318848 0.03031819
v -0.02056104 0.14651288 0.03151041
v -0.02050230 0.14824623 0.03120089
v -0.02019745 0.14902236 0.02941829
v -0.01986743 0.14886713 0.02664524
v -0.01862844 0.14903530 0.02577285
v -0.01734471 0.14867310 0.02488098
v -0.01740344 0.14761239 0.02424704
v -0.01794602 0.14585318 0.02425507
v -0.01927450 0.14602134 0.02484086
v 0.00104430 0.01730066 0.02455656
v 0.00050172 0.01730066 0.02514350
v -0.01982268 0.14329195 0.03206295
v -0.00026181 0.01730066 0.02897350
v -0.00006044 0.01730066 0.02939422
v 0.00029476 0.01730066 0.03004535
v -0.01981429 0.14686215 0.03225210
v -0.01860048 0.14850494 0.03241374
v -0.01916822 0.14897062 0.03107823
v -0.01777262 0.14941043 0.02949395
v -0.01911788 0.14928107 0.02806788
v -0.01704825 0.14943630 0.02733191
v -0.01627633 0.14904822 0.02559517
v -0.01553517 0.14842732 0.02512975
v -0.01543169 0.14762533 0.02483971
v -0.01691120 0.14585318 0.02414387
v 0.00297690 0.01730066 0.02389855
v 0.00179385 0.01730066 0.02414502
v 0.00159248 0.01730066 0.02424934
v -0.01929408 0.14034268 0.03208817
v -0.01642735 0.12870076 0.03296056
v -0.01891931 0.14313672 0.03285509
v 0.00106388 0.01730066 0.03090971
v -0.01904517 0.14671984 0.03279433
v -0.01651406 0.14851788 0.03270950
v -0.01700070 0.14912584 0.03187953
v -0.01747336 0.14761239 0.03319556
v -0.01558552 0.14933281 0.03056007
v -0.01506811 0.14935869 0.02807819
v -0.01523591 0.14915171 0.02642743
v -0.01380954 0.14838852 0.02673236
v -0.01408643 0.14644821 0.02558370
v -0.01498420 0.14533575 0.02481450
v -0.01574214 0.14461137 0.02444881
v 0.00195047 0.04865620 0.02482825
v 0.00421309 0.01730066 0.02407738
v -0.01562467 0.12271165 0.03270836
v -0.01410041 0.12002108 0.03363462
v -0.01800755 0.13946305 0.03309124
v -0.01802433 0.14252876 0.03328956
v 0.00156451 0.01730066 0.03121464
v -0.01038345 0.10619308 0.03452190
v -0.01800475 0.14586611 0.03329529
v -0.01517159 0.14783229 0.03258340
v -0.01523871 0.14895768 0.03159638
v -0.01689442 0.14494769 0.03352686
v -0.01531982 0.14492181 0.03325976
v -0.01432415 0.14912584 0.03002816
v -0.01397455 0.14906116 0.02822264
v -0.01280549 0.14761239 0.02819971
v -0.01326137 0.14673279 0.02666702
v -0.01259573 0.14142925 0.02618325
v -0.00315091 0.09544372 0.02671288
v -0.00417454 0.09924675 0.02640679
v -0.00320684 0.09261086 0.02615803
v -0.00468636 0.09848356 0.02584966
v -0.00172454 0.08121473 0.02580152
v 0.00306360 0.04628900 0.02513204
v 0.00452633 0.01730066 0.02420119
v -0.00920879 0.10756424 0.03539658
v -0.01680772 0.14220537 0.03367244
v -0.01678255 0.13858345 0.03361398
v 0.00183021 0.01730066 0.03136711
v 0.00074504 0.02992566 0.03221771
v -0.01385988 0.14805220 0.03123413
v -0.01377878 0.14543924 0.03226127
v -0.01586240 0.14151980 0.03374123
v -0.01328654 0.14203721 0.03262926
v -0.01475766 0.14123522 0.03355323
v -0.00739367 0.10699508 0.03560866
v -0.00639800 0.10854733 0.03501713
v -0.01320263 0.14836265 0.02968654
v -0.01282786 0.14761239 0.02955242
v -0.01183500 0.14321433 0.02862845
v -0.00293555 0.10169154 0.02991925
v -0.00241814 0.09840593 0.02883479
v -0.00330473 0.10074725 0.02797044
v -0.00419412 0.10214429 0.02703730
v -0.00232305 0.09484869 0.02769416
v 0.00003745 0.07864057 0.02679541
v -0.00052191 0.07659677 0.02601244
v 0.00453752 0.04438749 0.02575452
v 0.00497382 0.01730066 0.02438232
v 0.00203158 0.03086995 0.03282987
v 0.00308877 0.01730066 0.03180043
v 0.00212107 0.02358729 0.03216957
v -0.01311034 0.14677159 0.03092920
v -0.01268522 0.14335664 0.03165026
v -0.00602323 0.10700801 0.03502401
v 0.00070309 0.04897958 0.03357501
v 0.00181622 0.04387008 0.03340305
v 0.00284545 0.03912276 0.03320359
v 0.00168477 0.05007910 0.03353947
v -0.00035410 0.06657179 0.03401177
v -0.00136934 0.07456590 0.03420551
v -0.00186158 0.08025751 0.03421812
v -0.00506392 0.10753837 0.03357271
v -0.01212866 0.14318848 0.03075610
v -0.01201399 0.14382231 0.02975532
v -0.00398436 0.10649060 0.03091888
v -0.00259155 0.09969948 0.03137399
v -0.00185319 0.09605169 0.02995250
v -0.00109805 0.09121383 0.02890014
v 0.00024721 0.08228836 0.02829829
v -0.00056666 0.08478490 0.02758411
v 0.00083734 0.07751518 0.02788331
v 0.00525350 0.04469794 0.02667963
v 0.00619882 0.01730066 0.02553097
v 0.00555835 0.01730066 0.02487984
v 0.00553038 0.01730066 0.02485576
v 0.00300207 0.02490670 0.03252035
v 0.00322022 0.03140030 0.03295138
v 0.00385230 0.01730066 0.03182336
v -0.00483738 0.10431744 0.03402897
v 0.00017450 0.06980565 0.03371257
v -0.00081278 0.07953312 0.03375728
v -0.00043800 0.08279285 0.03293304
v 0.00357262 0.03839838 0.03295826
v 0.00283146 0.04556462 0.03323798
v 0.00416274 0.03266798 0.03270377
v 0.00053249 0.06326032 0.03374238
v -0.00264469 0.09809549 0.03221657
v -0.00418573 0.10442092 0.03297317
v -0.00413538 0.10665876 0.03186922
v -0.00061141 0.08702274 0.03210537
v -0.00330194 0.10298508 0.03149436
v -0.00154274 0.09279194 0.03188527
v -0.00045199 0.08817399 0.03105989
v -0.00169097 0.09502978 0.03102893
v 0.00076183 0.08149930 0.02985735
v 0.00000948 0.08516004 0.02898841
v 0.00084293 0.08054208 0.02900102
v 0.00175749 0.07455297 0.02887950
v 0.00372644 0.05897868 0.02799565
v 0.00498780 0.04969103 0.02768843
v 0.00574014 0.04486610 0.02774804
v 0.00665190 0.01730066 0.02639992
v 0.00647570 0.01730066 0.02604798
v 0.00420749 0.01730066 0.03183139
v 0.00417113 0.02048278 0.03210078
v 0.00406206 0.02771370 0.03260060
v 0.00286782 0.05150199 0.03302819
v 0.00347193 0.05210996 0.03261092
v 0.00143306 0.06805937 0.03290324
v 0.00016611 0.07831719 0.03296056
v 0.00100794 0.07662264 0.03197468
v 0.00042901 0.08161572 0.03177063
v 0.00380755 0.04484024 0.03277599
v 0.00501857 0.02516541 0.03200563
v 0.00506891 0.03059830 0.03209620
v 0.00421868 0.03877351 0.03261435
v 0.00063877 0.08173214 0.03085698
v 0.00184139 0.07455297 0.02974271
v 0.00385230 0.05941849 0.02868233
v 0.00537376 0.04841042 0.02853789
v 0.00564785 0.04564223 0.02907324
v 0.00625755 0.03574661 0.02861699
v 0.00659597 0.02983511 0.02865367
v 0.00662673 0.02537238 0.02754857
v 0.00691480 0.01908575 0.02756806
v 0.00701549 0.01730066 0.02772626
v 0.00509967 0.01730066 0.03146570
v 0.00507171 0.01867182 0.03157116
v 0.00497661 0.04455566 0.03178897
v 0.00452353 0.04817758 0.03190132
v 0.00379636 0.05645627 0.03180158
v 0.00200920 0.07029720 0.03167892
v 0.00278671 0.06671408 0.03095213
v 0.00200361 0.07244448 0.03085354
v 0.00507450 0.03410381 0.03206295
v 0.00502416 0.03847599 0.03198156
v 0.00562268 0.02469974 0.03143131
v 0.00527867 0.01730066 0.03134762
v 0.00606178 0.01730066 0.03070222
v 0.00575133 0.03143911 0.03135450
v 0.00409562 0.05794385 0.02982181
v 0.00462981 0.05395973 0.02893223
v 0.00517519 0.04984625 0.02964986
v 0.00544928 0.04469794 0.03089939
v 0.00585481 0.04072676 0.02980118
v 0.00618204 0.03524213 0.02979086
v 0.00638621 0.03142617 0.02982640
v 0.00685607 0.02269474 0.02867545
v 0.00699311 0.01730066 0.02871099
v 0.00571218 0.03626403 0.03111491
v 0.00431937 0.05207115 0.03167778
v 0.00433335 0.05526621 0.03097849
v 0.00610093 0.01929272 0.03074349
v 0.00641138 0.01730066 0.03017145
v 0.00612890 0.02848982 0.03081686
v 0.00484237 0.05125622 0.03077215
v 0.00599186 0.03530681 0.03058070
v 0.00655681 0.02627786 0.02983557
v 0.00695116 0.01730066 0.02887950
v 0.00656241 0.01730066 0.02989977
v 0.00659876 0.02084498 0.02986079
f 1 2 3
f 1 3 4
f 1 4 5
f 1 5 6
f 1 6 7
f 1 7 8
f 1 8 2
f 2 8 9
f 2 9 10
f 2 10 11
f 2 11 12
f 2 12 13
f 2 13 3
f 3 13 4
f 4 13 14
f 4 14 15
f 4 15 5
f 5 16 6
f 5 15 17
f 5 17 18
f 5 18 16
f 6 16 19
f 6 19 20
f 6 20 7
f 7 20 21
f 7 21 8
f 8 21 22
f 8 22 9
f 9 22 23
f 9 23 24
f 9 24 25
f 9 25 26
f 9 26 27
f 9 27 10
f 10 27 28
f 10 28 29
f 10 29 11
f 11 29 28
f 11 28 46
f 11 46 45
f 11 45 44
f 11 44 63
f 11 63 86
f 11 86 110
f 11 110 137
f 11 137 136
f 11 136 135
f 11 135 165
f 11 165 164
f 11 164 188
f 11 188 211
f 11 211 221
f 11 221 222
f 11 222 216
f 11 216 201
f 11 201 200
f 11 200 189
f 11 189 166
f 11 166 140
f 11 140 112
f 11 112 90
f 11 90 68
f 11 68 50
f 11 50 33
f 11 33 32
f 11 32 31
f 11 31 17
f 11 17 15
f 11 15 14
f 11 14 13
f 11 13 12
f 16 30 19
f 16 18 31
f 16 31 32
f 16 32 33
f 16 33 30
f 17 31 18
f 19 34 20
f 19 30 34
f 20 35 36
f 20 36 21
f 20 34 35
f 21 36 37
f 21 37 38
f 21 38 22
f 22 38 23
f 23 38 39
f 23 39 40
f 23 40 24
f 24 41 25
f 24 40 41
f 25 42 43
f 25 43 26
f 25 41 42
f 26 43 44
f 26 44 45
f 26 45 27
f 27 45 46
f 27 46 28
f 30 47 48
f 30 48 49
f 30 49 34
f 30 33 47
f 33 50 47
f 34 51 35
f 34 49 51
f 35 52 53
f 35 53 36
f 35 51 54
f 35 54 52
f 36 53 37
f 37 55 39
f 37 39 38
f 37 53 55
f 39 55 56
f 39 56 57
f 39 57 40
f 40 57 41
f 41 57 58
f 41 58 42
f 42 59 60
f 42 60 61
f 42 61 43
f 42 58 59
f 43 61 62
f 43 62 63
f 43 63 44
f 47 64 48
f 47 50 64
f 48 64 50
f 48 50 65
f 48 65 66
f 48 66 49
f 49 66 67
f 49 67 51
f 50 68 69
f 50 69 65
f 51 70 54
f 51 67 70
f 52 54 71
f 52 71 72
f 52 72 53
f 53 72 55
f 54 70 73
f 54 73 74
f 54 74 71
f 55 75 56
f 55 72 75
f 56 75 76
f 56 76 57
f 57 76 58
f 58 76 77
f 58 77 78
f 58 78 59
f 59 78 79
f 59 79 80
f 59 80 81
f 59 81 82
f 59 82 83
f 59 83 60
f 60 83 84
f 60 84 85
f 60 85 62
f 60 62 61
f 62 85 63
f 63 85 86
f 65 69 87
f 65 87 66
f 66 87 67
f 67 88 70
f 67 87 89
f 67 89 88
f 68 90 91
f 68 91 69
f 69 91 87
f 70 88 73
f 71 92 72
f 71 74 93
f 71 93 92
f 72 92 75
f 73 88 94
f 73 94 74
f 74 95 93
f 74 94 96
f 74 96 97
f 74 97 98
f 74 98 95
f 75 92 99
f 75 99 76
f 76 99 77
f 77 99 100
f 77 100 101
f 77 101 102
f 77 102 103
f 77 103 78
f 78 103 104
f 78 104 105
f 78 105 79
f 79 105 80
f 80 106 107
f 80 107 82
f 80 82 81
f 80 105 106
f 82 107 108
f 82 108 83
f 83 108 84
f 84 108 85
f 85 109 110
f 85 110 86
f 85 108 109
f 87 97 88
f 87 88 89
f 87 91 111
f 87 111 97
f 88 97 94
f 90 112 113
f 90 113 91
f 91 113 111
f 92 93 114
f 92 114 99
f 93 95 98
f 93 98 115
f 93 115 114
f 94 97 96
f 97 116 98
f 97 111 117
f 97 117 118
f 97 118 119
f 97 119 120
f 97 120 121
f 97 121 122
f 97 122 123
f 97 123 116
f 98 116 124
f 98 124 115
f 99 114 100
f 100 114 125
f 100 125 126
f 100 126 101
f 101 126 127
f 101 127 102
f 102 127 128
f 102 128 129
f 102 129 103
f 103 129 130
f 103 130 131
f 103 131 106
f 103 106 104
f 104 106 105
f 106 131 132
f 106 132 107
f 107 132 133
f 107 133 134
f 107 134 109
f 107 109 108
f 109 134 135
f 109 135 136
f 109 136 137
f 109 137 110
f 111 113 138
f 111 138 139
f 111 139 117
f 112 140 138
f 112 138 113
f 114 115 125
f 115 124 125
f 116 141 124
f 116 123 142
f 116 142 143
f 116 143 144
f 116 144 141
f 117 139 118
f 118 139 119
f 119 145 146
f 119 146 120
f 119 139 147
f 119 147 145
f 120 146 121
f 121 146 148
f 121 148 142
f 121 142 122
f 122 142 123
f 124 149 150
f 124 150 151
f 124 151 125
f 124 141 144
f 124 144 152
f 124 152 149
f 125 151 126
f 126 151 127
f 127 151 153
f 127 153 128
f 128 149 154
f 128 154 155
f 128 155 156
f 128 156 129
f 128 153 151
f 128 151 149
f 129 157 158
f 129 158 130
f 129 156 155
f 129 155 157
f 130 158 159
f 130 159 131
f 131 159 133
f 131 133 132
f 133 159 160
f 133 160 161
f 133 161 134
f 134 162 163
f 134 163 164
f 134 164 165
f 134 165 135
f 134 161 162
f 138 140 166
f 138 166 167
f 138 167 139
f 139 167 168
f 139 168 147
f 142 148 146
f 142 146 169
f 142 169 170
f 142 170 143
f 143 170 171
f 143 171 172
f 143 172 144
f 144 172 173
f 144 173 174
f 144 174 152
f 145 175 146
f 145 147 175
f 146 175 169
f 147 168 176
f 147 176 177
f 147 177 178
f 147 178 175
f 149 151 150
f 149 152 154
f 152 174 155
f 152 155 154
f 155 174 179
f 155 179 157
f 157 179 180
f 157 180 159
f 157 159 158
f 159 180 160
f 160 180 181
f 160 181 163
f 160 163 161
f 161 163 162
f 163 182 183
f 163 183 184
f 163 184 185
f 163 185 186
f 163 186 164
f 163 181 182
f 164 186 187
f 164 187 188
f 166 189 167
f 167 176 168
f 167 189 190
f 167 190 176
f 169 175 170
f 170 175 191
f 170 191 192
f 170 192 193
f 170 193 171
f 171 193 172
f 172 193 173
f 173 194 174
f 173 193 194
f 174 194 195
f 174 195 196
f 174 196 179
f 175 178 197
f 175 197 198
f 175 198 191
f 176 199 177
f 176 190 200
f 176 200 201
f 176 201 199
f 177 202 197
f 177 197 178
f 177 199 202
f 179 196 180
f 180 203 204
f 180 204 182
f 180 182 181
f 180 196 195
f 180 195 203
f 182 204 203
f 182 203 205
f 182 205 183
f 183 206 207
f 183 207 208
f 183 208 185
f 183 185 184
f 183 205 206
f 185 209 210
f 185 210 188
f 185 188 187
f 185 187 186
f 185 208 209
f 188 210 211
f 189 200 190
f 191 198 202
f 191 202 212
f 191 212 206
f 191 206 213
f 191 213 193
f 191 193 192
f 193 213 214
f 193 214 194
f 194 214 195
f 195 214 203
f 197 202 198
f 199 201 215
f 199 215 202
f 201 216 215
f 202 215 217
f 202 217 212
f 203 214 205
f 205 214 218
f 205 218 206
f 206 212 219
f 206 219 209
f 206 209 208
f 206 208 207
f 206 218 214
f 206 214 213
f 209 220 210
f 209 219 220
f 210 220 211
f 211 220 221
f 212 217 219
f 215 216 217
f 216 222 217
f 217 222 223
f 217 223 220
f 217 220 219
f 220 223 221
f 221 223 222

