# https://github.com/mikedh/trimesh
v 0.02149953 -0.09955619 0.00474287
v 0.02391054 -0.10160796 0.00474287
v 0.02149953 -0.09933982 0.00358134
v 0.02149953 -0.11911510 0.00474287
v 0.02226016 -0.09965318 0.00149430
v 0.02149953 -0.09898915 0.00158091
v 0.02477334 -0.10243612 0.00474287
v 0.03599682 -0.11115798 -0.00858425
v 0.02149953 -0.11633589 -0.01072052
v 0.02976140 -0.12809438 -0.01071883
v 0.03135218 -0.13027669 -0.01059486
v 0.03207166 -0.13147418 -0.00867594
v 0.03508152 -0.13519721 -0.00888142
v 0.03550441 -0.13582392 -0.00657023
v 0.03599682 -0.13643946 -0.00618985
v 0.03195246 -0.13135481 0.00474287
v 0.02500465 -0.10147365 -0.00454433
v 0.02169678 -0.09862357 -0.00329449
v 0.02149953 -0.09849674 -0.00284958
v 0.02598098 -0.10370821 0.00474287
v 0.03599682 -0.11233308 -0.00296335
v 0.03599682 -0.11172129 -0.00556493
v 0.03599682 -0.11131093 -0.00773007
v 0.03599682 -0.11152730 -0.01096506
v 0.02563898 -0.10220483 -0.01260548
v 0.02336136 -0.10012695 -0.01260548
v 0.03009347 -0.10579728 -0.00837877
v 0.02521468 -0.10136174 -0.00766215
v 0.02149953 -0.11535851 -0.01260548
v 0.02764272 -0.12465114 -0.01209603
v 0.02944069 -0.12699760 -0.01215377
v 0.03327929 -0.13229862 -0.01120450
v 0.03365393 -0.13330212 -0.01002428
v 0.03599682 -0.13627905 -0.00882878
v 0.03599682 -0.13635366 -0.00407734
v 0.03599682 -0.13597316 0.00169978
v 0.03219228 -0.13161595 0.00474287
v 0.02149953 -0.09842958 -0.00406376
v 0.02149953 -0.09846689 -0.00314166
v 0.03147565 -0.10997169 0.00474287
v 0.03325659 -0.11161683 0.00440834
v 0.03599682 -0.11394838 0.00261339
v 0.03599682 -0.11367606 0.00189507
v 0.03599682 -0.11176232 -0.01198225
v 0.03599682 -0.11190780 -0.01260548
v 0.02156339 -0.09854150 -0.01260548
v 0.02392473 -0.10038435 -0.00980861
v 0.02149953 -0.09848927 -0.01260548
v 0.02149953 -0.09832886 -0.00678760
v 0.03599682 -0.11478028 -0.01260548
v 0.03599682 -0.13358937 -0.01251717
v 0.03513686 -0.13270526 -0.01249340
v 0.03294581 -0.13041472 -0.01239491
v 0.03329348 -0.13145554 -0.01209433
v 0.03504321 -0.13414147 -0.01142696
v 0.03599682 -0.13596195 -0.01005655
v 0.03584073 -0.13582766 -0.00998352
v 0.03599682 -0.13603656 -0.00986805
v 0.03599682 -0.13552922 0.00298528
v 0.03559381 -0.13505544 0.00340982
v 0.03406688 -0.13366398 0.00383606
v 0.03324524 -0.13256723 0.00474287
v 0.03299264 -0.11189289 0.00474287
v 0.03599682 -0.11445200 0.00390738
v 0.03599682 -0.13388035 -0.01235924
v 0.03599682 -0.13478686 -0.01173093
v 0.03599682 -0.13508528 -0.01147111
v 0.03599682 -0.13599180 -0.00999202
v 0.03599682 -0.13534269 0.00331982
v 0.03523052 -0.13407806 0.00474287
v 0.03473952 -0.13371621 0.00474287
v 0.03379442 -0.13299249 0.00474287
v 0.03329632 -0.11232190 0.00474287
v 0.03599682 -0.13192931 0.00474287
v 0.03599682 -0.13477939 0.00430135
v 0.03599682 -0.13452199 0.00474287
f 1 2 3
f 1 3 6
f 1 6 19
f 1 19 39
f 1 39 38
f 1 38 49
f 1 49 48
f 1 48 29
f 1 29 9
f 1 9 4
f 1 4 16
f 1 16 37
f 1 37 62
f 1 62 72
f 1 72 71
f 1 71 70
f 1 70 76
f 1 76 74
f 1 74 73
f 1 73 63
f 1 63 40
f 1 40 20
f 1 20 7
f 1 7 2
f 2 5 6
f 2 6 3
f 2 7 8
f 2 8 5
f 4 9 10
f 4 10 11
f 4 11 12
f 4 12 13
f 4 13 14
f 4 14 15
f 4 15 16
f 5 17 18
f 5 18 19
f 5 19 6
f 5 8 17
f 7 20 21
f 7 21 22
f 7 22 23
f 7 23 8
f 8 23 22
f 8 22 21
f 8 21 43
f 8 43 42
f 8 42 64
f 8 64 74
f 8 74 76
f 8 76 75
f 8 75 69
f 8 69 59
f 8 59 36
f 8 36 35
f 8 35 15
f 8 15 34
f 8 34 58
f 8 58 68
f 8 68 56
f 8 56 67
f 8 67 66
f 8 66 65
f 8 65 51
f 8 51 50
f 8 50 45
f 8 45 44
f 8 44 24
f 8 24 25
f 8 25 26
f 8 26 27
f 8 27 28
f 8 28 17
f 9 29 30
f 9 30 10
f 10 30 11
f 11 30 31
f 11 31 32
f 11 32 33
f 11 33 12
f 12 33 13
f 13 33 34
f 13 34 15
f 13 15 14
f 15 35 16
f 16 35 36
f 16 36 37
f 17 28 18
f 18 38 39
f 18 39 19
f 18 28 38
f 20 40 41
f 20 41 42
f 20 42 43
f 20 43 21
f 24 44 25
f 25 44 45
f 25 45 50
f 25 50 29
f 25 29 48
f 25 48 46
f 25 46 26
f 26 46 47
f 26 47 27
f 27 47 28
f 28 47 46
f 28 46 48
f 28 48 49
f 28 49 38
f 29 50 51
f 29 51 52
f 29 52 53
f 29 53 31
f 29 31 30
f 31 53 52
f 31 52 54
f 31 54 55
f 31 55 32
f 32 55 56
f 32 56 57
f 32 57 33
f 33 57 58
f 33 58 34
f 36 59 60
f 36 60 61
f 36 61 37
f 37 61 62
f 40 63 41
f 41 63 64
f 41 64 42
f 51 65 54
f 51 54 52
f 54 65 66
f 54 66 55
f 55 66 67
f 55 67 56
f 56 68 57
f 57 68 58
f 59 69 60
f 60 69 70
f 60 70 71
f 60 71 72
f 60 72 61
f 61 72 62
f 63 73 64
f 64 73 74
f 69 75 70
f 70 75 76

