# https://github.com/mikedh/trimesh
v 0.03599683 -0.11502517 0.00391791
v 0.03599683 -0.11445280 0.00390821
v 0.03599683 -0.11559390 0.00347636
v 0.03914060 -0.11762922 0.00275985
v 0.03798207 -0.11625222 0.00346989
v 0.03673711 -0.11499591 0.00368015
v 0.03599683 -0.11394808 0.00261267
v 0.03599683 -0.11614798 0.00235874
v 0.03841007 -0.11782305 0.00191880
v 0.03682494 -0.11620467 0.00318361
v 0.04178248 -0.11932074 0.00200452
v 0.04177133 -0.11973036 0.00156944
v 0.03959509 -0.11727627 0.00278250
v 0.03850348 -0.11607300 0.00251401
v 0.03599683 -0.11367378 0.00189454
v 0.03599683 -0.11628330 0.00162444
v 0.04855937 -0.12911697 -0.01260548
v 0.04913514 -0.12956682 -0.01260548
v 0.04950320 -0.12958328 -0.01194881
v 0.04942930 -0.12812582 -0.00811556
v 0.04509216 -0.12289581 -0.00102002
v 0.04292985 -0.12112746 0.00019789
v 0.04474084 -0.12188455 0.00018980
v 0.04388902 -0.12072882 0.00057959
v 0.04157894 -0.11857463 0.00093704
v 0.04348333 -0.11920736 -0.00304339
v 0.03599683 -0.11233153 -0.00296252
v 0.03599683 -0.11635279 0.00093219
v 0.03599683 -0.11478014 -0.01260548
v 0.04940282 -0.12973322 -0.01260548
v 0.04959102 -0.12979540 -0.01260548
v 0.04997860 -0.12957047 -0.01170135
v 0.04949762 -0.12741263 -0.00706102
v 0.04802123 -0.12597713 -0.00476916
v 0.04701467 -0.12425450 -0.00236085
v 0.04734368 -0.12406250 -0.00279431
v 0.04561914 -0.12215153 -0.00114779
v 0.04445922 -0.12049658 -0.00212956
v 0.04335646 -0.11821256 -0.00693648
v 0.03599683 -0.11172258 -0.00556492
v 0.04518975 -0.12004672 -0.00730363
v 0.03599683 -0.11190728 -0.01260548
v 0.04992143 -0.12983747 -0.01260548
v 0.05023790 -0.12931629 -0.01212349
v 0.05009291 -0.12801793 -0.00946448
v 0.04934705 -0.12631908 -0.00712410
v 0.04859980 -0.12603381 -0.00495031
v 0.04685713 -0.12300370 -0.00330864
v 0.04828194 -0.12472997 -0.00539509
v 0.04628693 -0.12182054 -0.00511528
v 0.04475617 -0.11903912 -0.01013247
v 0.04029773 -0.11496666 -0.00915070
v 0.03816889 -0.11341228 -0.00698500
v 0.03599683 -0.11130930 -0.00773062
v 0.04660200 -0.12123170 -0.00969253
v 0.03599683 -0.11152508 -0.01096543
v 0.04274862 -0.11748292 -0.01128406
v 0.03684586 -0.11265156 -0.01260548
v 0.05014450 -0.12954122 -0.01260548
v 0.05013892 -0.12875488 -0.01260548
v 0.05006224 -0.12827760 -0.01260548
v 0.05002042 -0.12806365 -0.01260548
v 0.04981269 -0.12674333 -0.01055299
v 0.04894136 -0.12478299 -0.01058372
v 0.04877685 -0.12503536 -0.00744272
v 0.04730326 -0.12267637 -0.00743464
v 0.04621443 -0.12077454 -0.01098484
v 0.03599683 -0.11115935 -0.00858461
v 0.04809233 -0.12344623 -0.00963269
v 0.04765318 -0.12268185 -0.01158489
v 0.04377330 -0.11890014 -0.01230949
v 0.04274025 -0.11806078 -0.01260548
v 0.04122622 -0.11664173 -0.01260548
v 0.04939724 -0.12613805 -0.01260548
v 0.04924528 -0.12563883 -0.01251652
v 0.04617261 -0.12162853 -0.01260548
v 0.04547554 -0.12086597 -0.01260548
v 0.04418457 -0.11949629 -0.01260548
v 0.04813694 -0.12385952 -0.01260548
v 0.04364365 -0.11893855 -0.01260548
v 0.04923552 -0.12568820 -0.01260548
v 0.04914630 -0.12551081 -0.01260548
f 1 2 7
f 1 7 15
f 1 15 27
f 1 27 40
f 1 40 54
f 1 54 68
f 1 68 56
f 1 56 42
f 1 42 29
f 1 29 28
f 1 28 16
f 1 16 8
f 1 8 3
f 1 3 4
f 1 4 5
f 1 5 2
f 2 5 6
f 2 6 7
f 3 8 9
f 3 9 10
f 3 10 4
f 4 11 5
f 4 10 12
f 4 12 11
f 5 11 13
f 5 13 6
f 6 13 14
f 6 14 7
f 7 14 15
f 8 16 17
f 8 17 18
f 8 18 19
f 8 19 9
f 9 19 20
f 9 20 21
f 9 21 22
f 9 22 12
f 9 12 10
f 11 12 23
f 11 23 24
f 11 24 13
f 12 22 21
f 12 21 23
f 13 24 14
f 14 24 25
f 14 25 26
f 14 26 27
f 14 27 15
f 16 28 17
f 17 28 29
f 17 29 42
f 17 42 58
f 17 58 73
f 17 73 72
f 17 72 80
f 17 80 78
f 17 78 77
f 17 77 76
f 17 76 79
f 17 79 82
f 17 82 81
f 17 81 74
f 17 74 62
f 17 62 61
f 17 61 60
f 17 60 59
f 17 59 43
f 17 43 31
f 17 31 30
f 17 30 18
f 18 30 19
f 19 30 31
f 19 31 32
f 19 32 20
f 20 32 33
f 20 33 34
f 20 34 21
f 21 34 35
f 21 35 23
f 23 35 36
f 23 36 37
f 23 37 24
f 24 37 38
f 24 38 26
f 24 26 25
f 26 39 40
f 26 40 27
f 26 38 41
f 26 41 39
f 31 43 32
f 32 43 44
f 32 44 45
f 32 45 33
f 33 45 46
f 33 46 47
f 33 47 34
f 34 47 35
f 35 47 36
f 36 48 37
f 36 47 46
f 36 46 49
f 36 49 48
f 37 48 38
f 38 48 50
f 38 50 41
f 39 41 51
f 39 51 52
f 39 52 53
f 39 53 40
f 40 53 54
f 41 50 55
f 41 55 51
f 42 56 57
f 42 57 58
f 43 59 44
f 44 59 60
f 44 60 45
f 45 60 61
f 45 61 62
f 45 62 63
f 45 63 46
f 46 63 64
f 46 64 65
f 46 65 49
f 48 66 50
f 48 49 66
f 49 65 66
f 50 66 55
f 51 57 52
f 51 55 67
f 51 67 57
f 52 56 68
f 52 68 53
f 52 57 56
f 53 68 54
f 55 66 69
f 55 69 70
f 55 70 67
f 57 67 71
f 57 71 72
f 57 72 73
f 57 73 58
f 62 74 75
f 62 75 63
f 63 75 64
f 64 75 70
f 64 70 69
f 64 69 65
f 65 69 66
f 67 70 76
f 67 76 77
f 67 77 78
f 67 78 71
f 70 75 79
f 70 79 76
f 71 78 80
f 71 80 72
f 74 81 75
f 75 81 82
f 75 82 79

