# https://github.com/mikedh/trimesh
v -0.01509570 -0.12308550 -0.03844654
v -0.01509570 -0.12296037 -0.03824215
v -0.01509570 -0.12235314 -0.03884277
v -0.00052448 -0.13208358 -0.03542340
v -0.00302253 -0.13085440 -0.03573562
v -0.00246939 -0.13100529 -0.03536572
v -0.01509570 -0.11124630 -0.02605180
v -0.00949516 -0.12434781 -0.03800517
v 0.00122862 -0.13190326 -0.03561650
v -0.01509570 -0.10723856 -0.03886032
v 0.00714588 -0.11083043 -0.03886032
v 0.00722394 -0.11082308 -0.03886032
v 0.00769010 -0.11059491 -0.03886032
v 0.00084945 -0.13211671 -0.03531180
v 0.00769010 -0.11504059 -0.02605180
v -0.01509570 -0.09717691 -0.02605180
v 0.00205833 -0.13099425 -0.03565788
v 0.00357054 -0.13111201 -0.03512498
v -0.01509570 -0.10487956 -0.03886032
v 0.00769010 -0.12575364 -0.03250685
v 0.00728640 -0.12585300 -0.03363786
v 0.00656821 -0.12775199 -0.03413189
v 0.00505153 -0.12989387 -0.03458956
v 0.00769010 -0.10592842 -0.03886032
v 0.00173046 -0.13149843 -0.03499833
v 0.00769010 -0.12479679 -0.03170059
v 0.00769010 -0.09451980 -0.02605180
v -0.01318870 -0.09552450 -0.02605180
v -0.01361917 -0.09667640 -0.02800788
v -0.01509570 -0.09806383 -0.02812198
v 0.00692507 -0.12774095 -0.03340213
v -0.01509570 -0.10429440 -0.03802899
v -0.01235676 -0.10165202 -0.03886032
v 0.00769010 -0.12580149 -0.03247424
v 0.00768118 -0.10588793 -0.03886032
v 0.00769010 -0.09451980 -0.02617092
v -0.01179247 -0.09451980 -0.02605180
v -0.01254412 -0.09503871 -0.02605180
v -0.01166311 -0.09511231 -0.02781728
v -0.01257534 -0.09793871 -0.03251437
v -0.01157389 -0.09605076 -0.03018213
v -0.01167649 -0.09953223 -0.03686663
v -0.01345635 -0.10090126 -0.03584220
v -0.01509570 -0.10228502 -0.03506604
v -0.01186831 -0.10108896 -0.03886032
v 0.00171931 -0.10349581 -0.03886032
v 0.00096543 -0.10323451 -0.03886032
v -0.00290209 -0.10202740 -0.03886032
v -0.00525293 -0.10137969 -0.03886032
v -0.00799856 -0.10063997 -0.03886032
v -0.00972489 -0.10019834 -0.03886032
v -0.01012190 -0.10011370 -0.03886032
v -0.01014421 -0.09987081 -0.03848541
v -0.01020666 -0.09825888 -0.03556634
v -0.01041408 -0.09558706 -0.02994639
v -0.01030702 -0.09451980 -0.02766556
v -0.01150252 -0.09451980 -0.02656841
v -0.01114119 -0.09848338 -0.03566290
v -0.01100737 -0.09451980 -0.02706369
v -0.01098061 -0.09933349 -0.03733058
v -0.01108543 -0.10034188 -0.03886032
v -0.01120588 -0.10042652 -0.03886032
v -0.01061036 -0.10022411 -0.03886032
f 1 2 7
f 1 7 16
f 1 16 30
f 1 30 44
f 1 44 32
f 1 32 19
f 1 19 10
f 1 10 3
f 1 3 4
f 1 4 5
f 1 5 2
f 2 5 6
f 2 6 7
f 3 8 9
f 3 9 4
f 3 10 11
f 3 11 12
f 3 12 13
f 3 13 8
f 4 6 5
f 4 9 14
f 4 14 7
f 4 7 6
f 7 14 15
f 7 15 27
f 7 27 37
f 7 37 38
f 7 38 28
f 7 28 16
f 8 13 9
f 9 17 18
f 9 18 14
f 9 13 17
f 10 19 33
f 10 33 45
f 10 45 62
f 10 62 61
f 10 61 63
f 10 63 52
f 10 52 51
f 10 51 50
f 10 50 49
f 10 49 48
f 10 48 47
f 10 47 46
f 10 46 35
f 10 35 24
f 10 24 13
f 10 13 12
f 10 12 11
f 13 20 21
f 13 21 22
f 13 22 23
f 13 23 18
f 13 18 17
f 13 24 36
f 13 36 27
f 13 27 15
f 13 15 26
f 13 26 34
f 13 34 20
f 14 18 25
f 14 25 15
f 15 25 26
f 16 28 29
f 16 29 30
f 18 23 31
f 18 31 25
f 19 32 33
f 20 34 21
f 21 34 31
f 21 31 22
f 22 31 23
f 24 35 36
f 25 31 26
f 26 31 34
f 27 36 56
f 27 56 59
f 27 59 57
f 27 57 37
f 28 38 39
f 28 39 29
f 29 40 30
f 29 39 41
f 29 41 40
f 30 40 42
f 30 42 43
f 30 43 44
f 32 44 33
f 33 44 43
f 33 43 42
f 33 42 45
f 35 46 36
f 36 46 47
f 36 47 48
f 36 48 49
f 36 49 50
f 36 50 51
f 36 51 52
f 36 52 53
f 36 53 54
f 36 54 55
f 36 55 56
f 37 39 38
f 37 57 39
f 39 57 41
f 40 41 58
f 40 58 42
f 41 57 59
f 41 59 56
f 41 56 55
f 41 55 58
f 42 60 61
f 42 61 62
f 42 62 45
f 42 58 60
f 52 63 53
f 53 63 60
f 53 60 54
f 54 58 55
f 54 60 58
f 60 63 61

