# https://github.com/mikedh/trimesh
v -0.00132828 -0.06045387 0.09382605
v -0.00132828 -0.03853799 0.09382605
v -0.00132828 -0.04719943 0.08694018
v 0.02064563 -0.08021314 0.08694018
v 0.02132872 -0.08109327 0.08694018
v 0.03373928 -0.08627498 0.09345126
v 0.03518584 -0.08682870 0.09362922
v 0.03275769 -0.08471289 0.09372628
v 0.03273473 -0.08208998 0.09381054
v 0.00969885 -0.06569387 0.09382605
v 0.00096210 -0.03727899 0.09382605
v -0.00132828 -0.03632309 0.08948691
v -0.00132828 -0.03529724 0.08694018
v 0.04803266 -0.09424863 0.08694018
v 0.04656313 -0.09409709 0.08777606
v 0.04140259 -0.09148583 0.09046435
v 0.04140259 -0.09148583 0.09100968
v 0.03835449 -0.08900281 0.09345396
v 0.03531786 -0.08472455 0.09377483
v 0.03940497 -0.08900281 0.09345396
v 0.05593133 -0.07911152 0.09382605
v 0.05507028 -0.07909986 0.09382605
v 0.05331948 -0.07907071 0.09382605
v 0.00171982 -0.03688847 0.09382605
v 0.00219053 -0.03667863 0.09382605
v 0.00406761 -0.03612491 0.09382605
v 0.00666223 -0.03582182 0.09382605
v 0.00406761 -0.03471437 0.08694018
v 0.04814172 -0.09426029 0.08694018
v 0.04656313 -0.09409709 0.08848790
v 0.04296396 -0.09181806 0.09117282
v 0.04477790 -0.09181806 0.09103261
v 0.05730900 -0.07852865 0.09382605
v 0.01444035 -0.03569359 0.09382605
v 0.01710386 -0.03573439 0.09382605
v 0.00666223 -0.03492420 0.08694018
v 0.05000732 -0.09419617 0.08694018
v 0.04814746 -0.09412623 0.08846431
v 0.04954236 -0.09402131 0.08821490
v 0.05731474 -0.07849950 0.09309129
v 0.05730900 -0.07816727 0.09382605
v 0.01772381 -0.03591508 0.09382605
v 0.01728181 -0.03618320 0.09177007
v 0.01433129 -0.03666115 0.08694018
v 0.05504158 -0.07451850 0.08694018
v 0.05505306 -0.07444856 0.08694018
v 0.05731474 -0.07814978 0.09309129
v 0.05488659 -0.07283401 0.08694018
v 0.05481197 -0.07298556 0.08870159
v 0.04573079 -0.05833806 0.09382605
v 0.01940572 -0.03642800 0.09382605
v 0.01891780 -0.03653875 0.09247112
v 0.01647816 -0.03657372 0.08942153
v 0.01588117 -0.03680104 0.08793312
v 0.01437721 -0.03667863 0.08694018
v 0.05505306 -0.07438444 0.08694018
v 0.05490955 -0.07288647 0.08694018
v 0.04240715 -0.05443283 0.08694018
v 0.04491567 -0.05692168 0.09201408
v 0.04492141 -0.05705575 0.09382605
v 0.02053082 -0.03701087 0.09382605
v 0.01830932 -0.03688264 0.09074275
v 0.02729291 -0.04379547 0.08694018
v 0.02521492 -0.04255396 0.08694018
v 0.01686276 -0.03769866 0.08694018
v 0.04234974 -0.05437455 0.08694018
v 0.03357855 -0.04589963 0.09382605
v 0.02060545 -0.03705750 0.09382605
v 0.01910723 -0.03897514 0.08694018
v 0.01901538 -0.03892269 0.08694018
v 0.02865910 -0.04468143 0.08694018
v 0.04079413 -0.05307475 0.08694018
v 0.03305618 -0.04543916 0.09382605
v 0.02391761 -0.03920829 0.09382605
v 0.02456052 -0.03962795 0.09382605
v 0.03168999 -0.04440748 0.09382605
v 0.03950829 -0.05213050 0.08694018
v 0.03954848 -0.05215964 0.08694018
f 1 2 12
f 1 12 13
f 1 13 3
f 1 3 4
f 1 4 5
f 1 5 6
f 1 6 7
f 1 7 8
f 1 8 9
f 1 9 10
f 1 10 23
f 1 23 22
f 1 22 21
f 1 21 33
f 1 33 41
f 1 41 50
f 1 50 60
f 1 60 67
f 1 67 73
f 1 73 76
f 1 76 75
f 1 75 74
f 1 74 68
f 1 68 61
f 1 61 51
f 1 51 42
f 1 42 35
f 1 35 34
f 1 34 27
f 1 27 26
f 1 26 25
f 1 25 24
f 1 24 11
f 1 11 2
f 2 11 12
f 3 13 28
f 3 28 36
f 3 36 44
f 3 44 55
f 3 55 65
f 3 65 70
f 3 70 69
f 3 69 64
f 3 64 63
f 3 63 71
f 3 71 77
f 3 77 78
f 3 78 72
f 3 72 66
f 3 66 58
f 3 58 48
f 3 48 57
f 3 57 56
f 3 56 46
f 3 46 45
f 3 45 37
f 3 37 29
f 3 29 14
f 3 14 5
f 3 5 4
f 5 14 15
f 5 15 16
f 5 16 17
f 5 17 18
f 5 18 6
f 6 18 7
f 7 19 8
f 7 18 20
f 7 20 19
f 8 19 9
f 9 19 21
f 9 21 22
f 9 22 23
f 9 23 10
f 11 24 12
f 12 24 25
f 12 25 13
f 13 25 26
f 13 26 27
f 13 27 28
f 14 29 15
f 15 29 30
f 15 30 17
f 15 17 16
f 17 30 31
f 17 31 18
f 18 31 20
f 19 20 21
f 20 31 32
f 20 32 33
f 20 33 21
f 27 34 28
f 28 34 35
f 28 35 36
f 29 37 38
f 29 38 30
f 30 38 31
f 31 38 32
f 32 38 39
f 32 39 33
f 33 39 37
f 33 37 40
f 33 40 47
f 33 47 41
f 35 42 43
f 35 43 36
f 36 43 44
f 37 39 38
f 37 45 40
f 40 45 46
f 40 46 56
f 40 56 47
f 41 47 48
f 41 48 49
f 41 49 50
f 42 51 52
f 42 52 43
f 43 52 53
f 43 53 44
f 44 53 54
f 44 54 55
f 47 56 57
f 47 57 48
f 48 58 59
f 48 59 50
f 48 50 49
f 50 59 60
f 51 61 52
f 52 62 54
f 52 54 53
f 52 61 63
f 52 63 64
f 52 64 62
f 54 62 65
f 54 65 55
f 58 66 59
f 59 66 67
f 59 67 60
f 61 68 63
f 62 64 69
f 62 69 70
f 62 70 65
f 63 68 71
f 66 72 73
f 66 73 67
f 68 74 71
f 71 74 75
f 71 75 76
f 71 76 77
f 72 78 76
f 72 76 73
f 76 78 77

