# https://github.com/mikedh/trimesh
v -0.03143730 -0.08397254 0.06608178
v -0.03111102 -0.08373463 0.06443594
v -0.02938421 -0.08389457 0.06264264
v -0.02969711 -0.08392855 0.06353929
v -0.02958333 -0.08395654 0.06597476
v -0.03306706 -0.08390456 0.07386146
v -0.03436550 -0.08390456 0.07386146
v -0.03396392 -0.08391656 0.07126903
v -0.03107588 -0.08225124 0.06450729
v -0.03040155 -0.08225124 0.06321108
v -0.03010371 -0.08225124 0.06264264
v -0.03000332 -0.08263908 0.06264264
v -0.03365102 -0.08368065 0.06975162
v -0.03365102 -0.08294095 0.06975162
v -0.02757876 -0.08387857 0.06264264
v -0.02785485 -0.08388457 0.06348935
v -0.03045677 -0.08392055 0.06867421
v -0.03341677 -0.08366266 0.07541692
v -0.03610067 -0.08356670 0.08050666
v -0.03617263 -0.08356670 0.08050666
v -0.03625629 -0.08364066 0.07904633
v -0.03625796 -0.08365266 0.07709606
v -0.03095373 -0.08092777 0.06476416
v -0.02961177 -0.07987019 0.06264264
v -0.03639015 -0.08225124 0.07685109
v -0.03409778 -0.08214727 0.07106924
v -0.03346027 -0.08121365 0.07007270
v -0.03634999 -0.08028803 0.07720309
v -0.02702826 -0.08346274 0.06264264
v -0.02822966 -0.08366466 0.06504004
v -0.03593837 -0.08120365 0.08693780
v -0.03670138 -0.08120365 0.08693780
v -0.03673819 -0.08121965 0.08682602
v -0.03706950 -0.08171345 0.08423357
v -0.03681516 -0.08242116 0.08147942
v -0.03783919 -0.07965828 0.08423357
v -0.03679340 -0.08225124 0.07904633
v -0.02601259 -0.06457639 0.06264264
v -0.03746103 -0.07965828 0.08163877
v -0.03387524 -0.07965828 0.07186362
v -0.03669636 -0.07951834 0.07890125
v -0.03458972 -0.07187943 0.07904633
v -0.03390368 -0.06941643 0.07909866
v -0.03360752 -0.07036804 0.07759076
v -0.02573985 -0.06354881 0.06264264
v -0.03474199 -0.07965828 0.07386146
v -0.02638573 -0.08251712 0.06264264
v -0.02419209 -0.06354881 0.08693780
v -0.03673484 -0.08114168 0.08693780
v -0.03756311 -0.07965828 0.08682602
v -0.03737068 -0.07706533 0.08682602
v -0.03727363 -0.07706533 0.08423357
v -0.03466669 -0.06928649 0.08163877
v -0.03367445 -0.06763116 0.07999768
v -0.02581515 -0.06354881 0.06283529
v -0.02074517 -0.06354881 0.06264264
v -0.02587538 -0.08147955 0.06264264
v -0.03079477 -0.06354881 0.08693780
v -0.02551563 -0.08047795 0.06264264
v -0.02523452 -0.07964229 0.06264264
v -0.02451502 -0.07712931 0.06264264
v -0.03751960 -0.07965229 0.08693780
v -0.03752797 -0.07954833 0.08693780
v -0.03734391 -0.07705933 0.08693780
v -0.03647549 -0.07435443 0.08666667
v -0.03615255 -0.07309894 0.08569391
v -0.03615255 -0.07309894 0.08523964
v -0.03731547 -0.07695937 0.08693780
v -0.03646377 -0.07445040 0.08693780
v -0.03579614 -0.07209335 0.08431683
v -0.03390536 -0.06718733 0.08163877
v -0.03494111 -0.06928649 0.08423357
v -0.03160965 -0.06354881 0.07893930
v -0.03146407 -0.06354881 0.07849930
v -0.03140216 -0.06441846 0.08693780
v -0.03129507 -0.06354881 0.08627424
v -0.03564555 -0.07209335 0.08666667
v -0.03630816 -0.07401256 0.08693780
v -0.03331805 -0.06589186 0.08163877
v -0.03400743 -0.06708737 0.08423357
v -0.03380998 -0.06749521 0.08618624
v -0.03222875 -0.06354881 0.08163877
v -0.03277256 -0.06646563 0.08693780
v -0.03187904 -0.06354881 0.08477823
v -0.03290977 -0.06667954 0.08693780
v -0.03577774 -0.07256915 0.08693780
v -0.03430862 -0.06908057 0.08693780
v -0.03329629 -0.06578990 0.08423357
v -0.03205808 -0.06354881 0.08423357
f 1 2 3
f 1 3 4
f 1 4 5
f 1 5 6
f 1 6 7
f 1 7 8
f 1 8 2
f 2 9 10
f 2 10 11
f 2 11 12
f 2 12 3
f 2 8 13
f 2 13 14
f 2 14 9
f 3 12 11
f 3 11 24
f 3 24 38
f 3 38 45
f 3 45 56
f 3 56 61
f 3 61 60
f 3 60 59
f 3 59 57
f 3 57 47
f 3 47 29
f 3 29 15
f 3 15 4
f 4 15 5
f 5 15 16
f 5 16 17
f 5 17 6
f 6 17 18
f 6 18 19
f 6 19 20
f 6 20 7
f 7 20 21
f 7 21 22
f 7 22 8
f 8 22 13
f 9 23 10
f 9 14 23
f 10 23 11
f 11 23 24
f 13 22 25
f 13 25 14
f 14 26 27
f 14 27 23
f 14 25 28
f 14 28 26
f 15 29 16
f 16 30 17
f 16 29 30
f 17 30 18
f 18 31 19
f 18 30 31
f 19 31 32
f 19 32 20
f 20 32 33
f 20 33 34
f 20 34 21
f 21 34 35
f 21 35 22
f 22 35 36
f 22 36 37
f 22 37 25
f 23 38 24
f 23 27 38
f 25 37 39
f 25 39 28
f 26 28 27
f 27 40 38
f 27 28 40
f 28 39 41
f 28 41 42
f 28 42 43
f 28 43 44
f 28 44 45
f 28 45 38
f 28 38 46
f 28 46 40
f 29 47 31
f 29 31 30
f 31 48 58
f 31 58 75
f 31 75 83
f 31 83 85
f 31 85 87
f 31 87 86
f 31 86 78
f 31 78 69
f 31 69 68
f 31 68 64
f 31 64 63
f 31 63 62
f 31 62 49
f 31 49 32
f 31 47 48
f 32 49 33
f 33 49 50
f 33 50 34
f 34 50 36
f 34 36 35
f 36 50 51
f 36 51 52
f 36 52 39
f 36 39 37
f 38 40 46
f 39 53 41
f 39 52 53
f 41 53 42
f 42 53 43
f 43 53 54
f 43 54 55
f 43 55 44
f 44 55 45
f 45 55 74
f 45 74 73
f 45 73 82
f 45 82 89
f 45 89 84
f 45 84 76
f 45 76 58
f 45 58 48
f 45 48 56
f 47 57 48
f 48 57 59
f 48 59 60
f 48 60 61
f 48 61 56
f 49 62 50
f 50 62 63
f 50 63 64
f 50 64 51
f 51 65 66
f 51 66 67
f 51 67 52
f 51 64 68
f 51 68 69
f 51 69 65
f 52 67 70
f 52 70 53
f 53 71 54
f 53 70 72
f 53 72 71
f 54 71 73
f 54 73 74
f 54 74 55
f 58 76 75
f 65 77 66
f 65 69 78
f 65 78 77
f 66 77 72
f 66 72 67
f 67 72 70
f 71 79 73
f 71 72 80
f 71 80 79
f 72 77 81
f 72 81 80
f 73 79 82
f 75 76 83
f 76 84 81
f 76 81 85
f 76 85 83
f 77 78 86
f 77 86 87
f 77 87 81
f 79 80 82
f 80 81 88
f 80 88 82
f 81 84 89
f 81 89 88
f 81 87 85
f 82 88 89

