# https://github.com/mikedh/trimesh
v -0.01312022 -0.09506285 0.01502591
v -0.01312022 -0.10631844 0.01502591
v -0.01312022 -0.09451980 0.01415229
v -0.01532205 -0.09451980 0.01502591
v -0.01536351 -0.10818433 0.01502591
v -0.01312022 -0.10603620 0.00232456
v -0.01312022 -0.09451980 0.01012496
v -0.01821835 -0.09451980 0.01502591
v -0.01885950 -0.10818433 0.01502591
v -0.01658659 -0.10818433 0.00647630
v -0.01312022 -0.10543029 -0.01259736
v -0.01312022 -0.09839606 -0.01162637
v -0.01378062 -0.09451980 -0.01260547
v -0.02824728 -0.10021246 0.00932437
v -0.02702864 -0.09967075 0.01040896
v -0.02824728 -0.10074481 0.01052797
v -0.02824728 -0.10147914 0.01201826
v -0.02824728 -0.10192455 0.01282427
v -0.02824728 -0.10217199 0.01317318
v -0.02824728 -0.10327548 0.01447685
v -0.02824728 -0.10358579 0.01481494
v -0.02824728 -0.10378642 0.01502591
v -0.02378438 -0.09451980 0.00263019
v -0.02651039 -0.09804160 0.00693610
v -0.02824728 -0.09936178 0.00692528
v -0.02824728 -0.10816695 0.01502591
v -0.02438555 -0.10818433 -0.00461574
v -0.01698934 -0.10818433 0.00412861
v -0.02086884 -0.10818433 -0.01260547
v -0.01312022 -0.10539819 -0.01260547
v -0.01312022 -0.09883745 -0.01260547
v -0.02219853 -0.09451980 -0.01260547
v -0.02454399 -0.09451980 0.00010128
v -0.02650003 -0.09646729 0.00183771
v -0.02824728 -0.09912369 0.00622206
v -0.02824728 -0.10556137 -0.00593023
v -0.02294629 -0.10818433 -0.01256490
v -0.02293741 -0.10818433 -0.01260547
v -0.02276860 -0.09482476 -0.01260547
v -0.02824728 -0.09790249 0.00073960
v -0.02824728 -0.09788778 0.00178903
v -0.02368369 -0.09548686 -0.01260547
v -0.02449217 -0.09614761 -0.01260547
v -0.02731738 -0.09851643 -0.01260547
v -0.02768609 -0.09885083 -0.01260547
v -0.02824728 -0.09839204 0.00364717
v -0.02824728 -0.10214791 -0.01260547
v -0.02824728 -0.09939789 -0.01260547
f 1 2 6
f 1 6 11
f 1 11 30
f 1 30 31
f 1 31 12
f 1 12 7
f 1 7 3
f 1 3 4
f 1 4 8
f 1 8 22
f 1 22 26
f 1 26 9
f 1 9 5
f 1 5 2
f 2 5 6
f 3 7 13
f 3 13 32
f 3 32 33
f 3 33 23
f 3 23 8
f 3 8 4
f 5 9 27
f 5 27 37
f 5 37 38
f 5 38 29
f 5 29 28
f 5 28 10
f 5 10 11
f 5 11 6
f 7 12 13
f 8 14 15
f 8 15 16
f 8 16 17
f 8 17 18
f 8 18 19
f 8 19 20
f 8 20 21
f 8 21 22
f 8 23 24
f 8 24 25
f 8 25 14
f 9 26 27
f 10 28 11
f 11 29 30
f 11 28 29
f 12 31 13
f 13 31 30
f 13 30 29
f 13 29 38
f 13 38 47
f 13 47 48
f 13 48 45
f 13 45 44
f 13 44 43
f 13 43 42
f 13 42 39
f 13 39 32
f 14 16 15
f 14 25 35
f 14 35 46
f 14 46 41
f 14 41 40
f 14 40 48
f 14 48 47
f 14 47 36
f 14 36 26
f 14 26 22
f 14 22 21
f 14 21 20
f 14 20 19
f 14 19 18
f 14 18 17
f 14 17 16
f 23 33 34
f 23 34 35
f 23 35 24
f 24 35 25
f 26 36 37
f 26 37 27
f 32 39 33
f 33 40 41
f 33 41 34
f 33 39 42
f 33 42 43
f 33 43 44
f 33 44 45
f 33 45 40
f 34 41 46
f 34 46 35
f 36 47 38
f 36 38 37
f 40 45 48

