# https://github.com/mikedh/trimesh
v -0.00133146 -0.03529668 0.08694068
v -0.00133146 -0.04720401 0.08694068
v -0.00371809 -0.03531666 0.08694068
v 0.01702116 -0.03566629 0.09720278
v 0.01702116 -0.03556140 0.09461172
v 0.01709388 -0.03573122 0.09382948
v 0.01774839 -0.03593101 0.09382948
v -0.00252147 -0.06821665 0.08694068
v 0.01774839 -0.05995544 0.09382948
v -0.00631628 -0.03537660 0.08694068
v 0.00665484 -0.03634057 0.09720278
v 0.00665484 -0.03671517 0.09921400
v 0.01702116 -0.03618074 0.09979201
v 0.01774839 -0.03629062 0.09979201
v 0.01774839 -0.03584110 0.09719913
v 0.01774839 -0.03577617 0.09464090
v 0.01774839 -0.03582612 0.09437468
v -0.00272641 -0.06928052 0.08694068
v 0.01774839 -0.06529976 0.10318170
v 0.01120332 -0.06561442 0.09382948
v -0.00392965 -0.07091878 0.08694068
v -0.00646834 -0.03539658 0.08694068
v -0.02603079 -0.04200954 0.10384908
v 0.00498882 -0.03678510 0.09890037
v 0.00665484 -0.03700486 0.10050861
v 0.01443619 -0.03676512 0.10140025
v 0.01702116 -0.03669020 0.10160629
v 0.01774839 -0.03670518 0.10154247
v 0.01774839 -0.03743940 0.10318170
v -0.00133807 -0.05670890 0.10556673
v -0.00218430 -0.07639795 0.10378343
v -0.00494116 -0.07835586 0.10368497
v -0.00336770 -0.07784141 0.10238306
v -0.00463043 -0.07856065 0.10094439
v -0.01013093 -0.07580857 0.08807848
v -0.00704351 -0.07357096 0.08776850
v -0.01149944 -0.07618318 0.08757887
v -0.01200189 -0.07588349 0.08694068
v -0.00912603 -0.03584110 0.08694068
v -0.02445733 -0.04088574 0.09979384
v -0.02695636 -0.04181974 0.10229189
v -0.02776292 -0.04223430 0.10309236
v -0.02695636 -0.04255396 0.10482095
v -0.02697619 -0.04281868 0.10556673
v -0.02472839 -0.04251400 0.10556673
v 0.00406326 -0.03800879 0.10318170
v 0.00406326 -0.03777405 0.10238671
v 0.00665484 -0.03750433 0.10238671
v 0.00586150 -0.03781400 0.10318170
v 0.00665484 -0.03777405 0.10318170
v 0.01702116 -0.03717468 0.10290273
v 0.01774839 -0.03698488 0.10227913
v 0.01702116 -0.03730455 0.10318170
v -0.02169386 -0.04266883 0.10556673
v -0.01984935 -0.04316331 0.10556673
v -0.01929401 -0.04331814 0.10556673
v -0.00134468 -0.05009593 0.10556673
v -0.00133807 -0.05051049 0.10556673
v -0.03824824 -0.07642791 0.10556673
v -0.02445733 -0.08389997 0.10125437
v -0.02294338 -0.08369019 0.10121061
v -0.02794142 -0.08632239 0.09898607
v -0.00467010 -0.07851569 0.10238306
v -0.02794142 -0.08632239 0.09829317
v -0.03593433 -0.08120283 0.08694068
v -0.01374724 -0.07627808 0.08694068
v -0.01149944 -0.03658032 0.08694068
v -0.02704891 -0.04110051 0.09460990
v -0.02704891 -0.04113047 0.09682533
v -0.02704230 -0.04113547 0.09720278
v -0.02704230 -0.04136522 0.09979384
v -0.02847032 -0.04200954 0.10136379
v -0.02963388 -0.04337808 0.10497776
v -0.02964049 -0.04355789 0.10556673
v -0.02768359 -0.04298850 0.10556673
v -0.02445733 -0.04248903 0.10556673
v 0.01668399 -0.03731953 0.10318170
v -0.02234176 -0.04261390 0.10556673
v -0.03929942 -0.07642791 0.10556673
v -0.02603079 -0.08387000 0.10118873
v -0.02883393 -0.08632239 0.09898607
v -0.02883393 -0.08632239 0.09829317
v -0.03669461 -0.08120283 0.08694068
v -0.02499945 -0.04144514 0.08694068
v -0.02708858 -0.04166491 0.08960102
v -0.02705552 -0.04127532 0.09201338
v -0.02890665 -0.04181475 0.09460990
v -0.02864882 -0.04170986 0.09682533
v -0.02891327 -0.04181475 0.09720278
v -0.02869510 -0.04191464 0.09979384
v -0.02999750 -0.04250901 0.09979384
v -0.03237091 -0.04410731 0.10222442
v -0.03167012 -0.04425215 0.10497776
v -0.03153129 -0.04433206 0.10556673
v -0.03016277 -0.04374269 0.10556673
v -0.04971201 -0.06078456 0.10556673
v -0.03357414 -0.08358530 0.09597199
v -0.03357414 -0.08358530 0.09581517
v -0.03751440 -0.07964949 0.08694068
v -0.02551512 -0.04163494 0.08694068
v -0.02624896 -0.04183473 0.08727437
v -0.02841081 -0.04202952 0.09058384
v -0.02864882 -0.04192463 0.09201338
v -0.02891988 -0.04181475 0.09682533
v -0.03020905 -0.04242410 0.09460990
v -0.03021566 -0.04241411 0.09682533
v -0.03020905 -0.04241411 0.09720278
v -0.03223868 -0.04370274 0.09979384
v -0.03357414 -0.04463175 0.10125255
v -0.03332953 -0.04479657 0.10298114
v -0.03297252 -0.04499136 0.10497776
v -0.03333614 -0.04535598 0.10556673
v -0.04977151 -0.06028010 0.10556673
v -0.04960623 -0.06067967 0.10497776
v -0.04451563 -0.06862123 0.09682533
v -0.03752101 -0.07954460 0.08694068
v -0.04656509 -0.05775279 0.09839711
v -0.02615640 -0.04187968 0.08694068
v -0.02798109 -0.04224429 0.08885525
v -0.02942232 -0.04280869 0.08960102
v -0.03344852 -0.04470667 0.09105245
v -0.02994461 -0.04255895 0.09201338
v -0.03223868 -0.04354291 0.09460990
v -0.03194118 -0.04334812 0.09682533
v -0.03223868 -0.04350794 0.09720278
v -0.03369975 -0.04455183 0.09979384
v -0.03498232 -0.04540592 0.09979384
v -0.03689956 -0.04670954 0.09979384
v -0.03664172 -0.04688935 0.10238489
v -0.03636406 -0.04708414 0.10451097
v -0.03500877 -0.04640486 0.10556673
v -0.04979134 -0.05877170 0.10556673
v -0.04958640 -0.05872176 0.10477719
v -0.04921617 -0.06034004 0.10348075
v -0.03752762 -0.05920124 0.08694068
v -0.04656509 -0.05743812 0.09839711
v -0.02723403 -0.04242410 0.08694068
v -0.03175607 -0.04416225 0.08942233
v -0.03365348 -0.04457181 0.09278286
v -0.03244363 -0.04395747 0.09201338
v -0.03244363 -0.04396745 0.09195685
v -0.03305186 -0.04503632 0.08942233
v -0.03616572 -0.04720901 0.09064036
v -0.03646983 -0.04696926 0.09201338
v -0.03816229 -0.04772845 0.09460990
v -0.03687311 -0.04668456 0.09460990
v -0.03223868 -0.04351294 0.09682533
v -0.03379231 -0.04447692 0.09460990
v -0.03383859 -0.04445194 0.09682533
v -0.03383859 -0.04445194 0.09720278
v -0.03514099 -0.04533101 0.09720278
v -0.03699212 -0.04662962 0.09720278
v -0.03818213 -0.04761857 0.09979384
v -0.04125632 -0.04988116 0.10051772
v -0.04403963 -0.05232356 0.10452008
v -0.03793751 -0.04778340 0.10238489
v -0.04320000 -0.05189901 0.10556673
v -0.03690617 -0.04765853 0.10556673
v -0.04922278 -0.05746809 0.10556673
v -0.04921617 -0.05746809 0.10550655
v -0.04906411 -0.05772282 0.10377797
v -0.04921617 -0.05945098 0.10348075
v -0.03752762 -0.05132462 0.08694068
v -0.04620809 -0.05570497 0.09934163
v -0.04439002 -0.05432144 0.09682533
v -0.02989172 -0.04395747 0.08694068
v -0.03124701 -0.04445194 0.08771015
v -0.03508810 -0.04538595 0.09460990
v -0.03395098 -0.04683441 0.08751505
v -0.03482365 -0.04649476 0.08963384
v -0.03567649 -0.04780837 0.08891360
v -0.03738217 -0.05109487 0.08694068
v -0.03894902 -0.04961644 0.09201338
v -0.03894902 -0.04929179 0.09251299
v -0.03894902 -0.04884726 0.09359427
v -0.03894902 -0.04844769 0.09460990
v -0.04119021 -0.04999105 0.09682533
v -0.04132904 -0.04983122 0.09839528
v -0.03827468 -0.04757861 0.09682533
v -0.03828790 -0.04755864 0.09720278
v -0.03672767 -0.04644981 0.09682533
v -0.04024481 -0.04909700 0.09971178
v -0.04132904 -0.04983122 0.09879097
v -0.04407268 -0.05228361 0.10238489
v -0.04677004 -0.05476597 0.10556673
v -0.04528252 -0.05348233 0.10556673
v -0.04463463 -0.05298286 0.10556673
v -0.04677004 -0.05475597 0.10497776
v -0.04661798 -0.05489583 0.10238489
v -0.04650559 -0.05502569 0.10107022
v -0.03747473 -0.05123972 0.08694068
v -0.04447596 -0.05419657 0.09720278
v -0.04362312 -0.05289795 0.09720278
v -0.04353056 -0.05302782 0.09682533
v -0.03096934 -0.04466172 0.08694068
v -0.03208663 -0.04558573 0.08694068
v -0.03375264 -0.04703919 0.08694068
v -0.03271469 -0.04611517 0.08694068
v -0.04138193 -0.05021081 0.09682533
v -0.04398673 -0.05234854 0.10060524
f 1 2 8
f 1 8 18
f 1 18 21
f 1 21 38
f 1 38 66
f 1 66 65
f 1 65 83
f 1 83 99
f 1 99 116
f 1 116 135
f 1 135 163
f 1 163 191
f 1 191 172
f 1 172 197
f 1 197 198
f 1 198 196
f 1 196 195
f 1 195 166
f 1 166 137
f 1 137 118
f 1 118 100
f 1 100 84
f 1 84 67
f 1 67 39
f 1 39 22
f 1 22 10
f 1 10 3
f 1 3 4
f 1 4 5
f 1 5 6
f 1 6 7
f 1 7 9
f 1 9 2
f 2 9 8
f 3 10 4
f 4 11 12
f 4 12 13
f 4 13 14
f 4 14 15
f 4 15 5
f 4 10 11
f 5 15 16
f 5 16 17
f 5 17 6
f 6 17 7
f 7 17 16
f 7 16 15
f 7 15 14
f 7 14 28
f 7 28 52
f 7 52 29
f 7 29 19
f 7 19 9
f 8 9 18
f 9 19 20
f 9 20 21
f 9 21 18
f 10 22 23
f 10 23 24
f 10 24 12
f 10 12 11
f 12 24 25
f 12 25 13
f 13 25 26
f 13 26 27
f 13 27 28
f 13 28 14
f 19 29 58
f 19 58 30
f 19 30 31
f 19 31 32
f 19 32 33
f 19 33 34
f 19 34 20
f 20 34 35
f 20 35 36
f 20 36 21
f 21 36 35
f 21 35 37
f 21 37 38
f 22 39 40
f 22 40 23
f 23 40 41
f 23 41 42
f 23 42 43
f 23 43 44
f 23 44 45
f 23 45 46
f 23 46 47
f 23 47 24
f 24 47 25
f 25 47 48
f 25 48 26
f 26 48 27
f 27 48 49
f 27 49 50
f 27 50 51
f 27 51 28
f 28 51 52
f 29 52 53
f 29 53 54
f 29 54 55
f 29 55 56
f 29 56 57
f 29 57 58
f 30 58 57
f 30 57 56
f 30 56 55
f 30 55 54
f 30 54 78
f 30 78 76
f 30 76 45
f 30 45 44
f 30 44 75
f 30 75 74
f 30 74 95
f 30 95 94
f 30 94 112
f 30 112 131
f 30 131 158
f 30 158 157
f 30 157 187
f 30 187 186
f 30 186 185
f 30 185 159
f 30 159 132
f 30 132 113
f 30 113 96
f 30 96 79
f 30 79 59
f 30 59 31
f 31 59 32
f 32 60 61
f 32 61 62
f 32 62 63
f 32 63 33
f 32 59 60
f 33 63 34
f 34 63 62
f 34 62 64
f 34 64 37
f 34 37 35
f 37 64 65
f 37 65 66
f 37 66 38
f 39 67 68
f 39 68 69
f 39 69 70
f 39 70 71
f 39 71 40
f 40 71 41
f 41 71 72
f 41 72 42
f 42 72 73
f 42 73 74
f 42 74 75
f 42 75 43
f 43 75 44
f 45 76 49
f 45 49 46
f 46 49 47
f 47 49 48
f 49 76 50
f 50 77 51
f 50 76 77
f 51 77 53
f 51 53 52
f 53 77 76
f 53 76 78
f 53 78 54
f 59 79 60
f 60 80 81
f 60 81 62
f 60 62 61
f 60 79 80
f 62 81 82
f 62 82 64
f 64 82 83
f 64 83 65
f 67 84 85
f 67 85 86
f 67 86 68
f 68 86 87
f 68 87 88
f 68 88 69
f 69 88 70
f 70 88 89
f 70 89 90
f 70 90 71
f 71 90 72
f 72 90 91
f 72 91 92
f 72 92 93
f 72 93 94
f 72 94 95
f 72 95 73
f 73 95 74
f 79 96 83
f 79 83 97
f 79 97 81
f 79 81 80
f 81 97 98
f 81 98 82
f 82 98 83
f 83 98 97
f 83 96 99
f 84 100 101
f 84 101 85
f 85 102 86
f 85 101 102
f 86 102 103
f 86 103 87
f 87 104 88
f 87 103 105
f 87 105 106
f 87 106 104
f 88 104 89
f 89 104 106
f 89 106 107
f 89 107 91
f 89 91 90
f 91 107 108
f 91 108 92
f 92 108 109
f 92 109 110
f 92 110 93
f 93 110 111
f 93 111 112
f 93 112 94
f 96 113 114
f 96 114 115
f 96 115 99
f 99 115 117
f 99 117 116
f 100 118 101
f 101 118 119
f 101 119 102
f 102 119 120
f 102 120 121
f 102 121 122
f 102 122 103
f 103 122 105
f 105 123 124
f 105 124 106
f 105 122 123
f 106 124 125
f 106 125 107
f 107 125 108
f 108 125 126
f 108 126 109
f 109 126 127
f 109 127 128
f 109 128 129
f 109 129 130
f 109 130 110
f 110 130 131
f 110 131 111
f 111 131 112
f 113 132 133
f 113 133 134
f 113 134 114
f 114 134 115
f 115 134 117
f 116 117 135
f 117 134 162
f 117 162 136
f 117 136 163
f 117 163 135
f 118 137 119
f 119 137 120
f 120 137 138
f 120 138 121
f 121 139 140
f 121 140 141
f 121 141 122
f 121 138 142
f 121 142 143
f 121 143 144
f 121 144 145
f 121 145 146
f 121 146 139
f 122 141 140
f 122 140 123
f 123 147 124
f 123 140 139
f 123 139 148
f 123 148 149
f 123 149 147
f 124 147 125
f 125 147 149
f 125 149 150
f 125 150 126
f 126 150 127
f 127 150 151
f 127 151 128
f 128 152 153
f 128 153 154
f 128 154 155
f 128 155 156
f 128 156 129
f 128 151 152
f 129 156 157
f 129 157 130
f 130 157 158
f 130 158 131
f 132 159 160
f 132 160 161
f 132 161 133
f 133 162 134
f 133 161 162
f 136 162 161
f 136 161 164
f 136 164 165
f 136 165 163
f 137 166 167
f 137 167 138
f 138 167 142
f 139 168 148
f 139 146 168
f 142 167 169
f 142 169 170
f 142 170 143
f 143 170 169
f 143 169 171
f 143 171 172
f 143 172 173
f 143 173 174
f 143 174 175
f 143 175 144
f 144 175 176
f 144 176 145
f 145 176 177
f 145 177 178
f 145 178 146
f 146 178 179
f 146 179 180
f 146 180 168
f 148 168 181
f 148 181 151
f 148 151 149
f 149 151 150
f 151 181 152
f 152 181 180
f 152 180 153
f 153 180 182
f 153 182 154
f 154 183 155
f 154 182 183
f 155 184 185
f 155 185 186
f 155 186 187
f 155 187 157
f 155 157 156
f 155 183 184
f 159 185 188
f 159 188 189
f 159 189 160
f 160 189 190
f 160 190 161
f 161 190 164
f 163 165 191
f 164 190 192
f 164 192 165
f 165 192 193
f 165 193 194
f 165 194 173
f 165 173 172
f 165 172 191
f 166 195 167
f 167 195 196
f 167 196 169
f 168 180 181
f 169 197 172
f 169 172 171
f 169 196 198
f 169 198 197
f 173 194 193
f 173 193 174
f 174 193 199
f 174 199 177
f 174 177 175
f 175 177 176
f 177 199 190
f 177 190 178
f 178 190 189
f 178 189 200
f 178 200 188
f 178 188 184
f 178 184 183
f 178 183 180
f 178 180 179
f 180 183 182
f 184 188 185
f 188 200 189
f 190 199 193
f 190 193 192

