# https://github.com/mikedh/trimesh
v 0.02577022 -0.06402530 0.01502591
v 0.02574787 -0.06384878 0.01502591
v 0.02566221 -0.06476669 0.01502591
v 0.02576153 -0.06329274 0.01432394
v 0.02542135 -0.06388739 0.01502591
v 0.02538410 -0.06538893 0.01502591
v 0.02561130 -0.06433421 0.01433353
v 0.02541514 -0.06167978 0.01144570
v 0.02519663 -0.06180335 0.01193500
v 0.01308666 -0.05692586 0.00187395
v 0.02498557 -0.06402199 0.01502591
v 0.02460690 -0.06683198 0.01502591
v 0.02506751 -0.06275435 0.01123943
v 0.02431265 -0.06126717 0.00834040
v 0.02462180 -0.06029520 0.00872416
v 0.01308666 -0.06819560 0.00715552
v 0.02074199 -0.06819560 0.01502591
v 0.02364470 -0.06505795 0.01502591
v 0.02426796 -0.06446108 0.01502591
v 0.01357086 -0.05692586 0.00184197
v 0.01308666 -0.05692586 0.00032610
v 0.02440080 -0.06476337 0.01233635
v 0.02344606 -0.06819560 0.01502591
v 0.02302766 -0.06245758 0.00754409
v 0.02329956 -0.06014736 0.00571800
v 0.02239199 -0.05915112 0.00398786
v 0.02337281 -0.05937729 0.00617852
v 0.01782189 -0.05692586 0.00129831
v 0.01671195 -0.05692586 0.00145501
v 0.01308666 -0.06819560 0.00564445
v 0.01343926 -0.05692586 0.00031011
v 0.01437538 -0.05877712 -0.00083479
v 0.01308666 -0.05812510 -0.00038706
v 0.02327473 -0.06819560 0.01479085
v 0.02042043 -0.06362482 0.00578516
v 0.02080034 -0.06133226 0.00352734
v 0.02175384 -0.06005579 0.00349056
v 0.02240317 -0.06819560 0.01359638
v 0.02240565 -0.05879367 0.00433485
v 0.02079165 -0.05894040 0.00176202
v 0.02028510 -0.05827294 0.00145981
v 0.01757482 -0.05692586 0.00068908
v 0.01308666 -0.06746194 0.00457950
v 0.01870835 -0.06819560 0.00974754
v 0.01543193 -0.05692586 0.00027813
v 0.01629231 -0.05735834 -0.00000010
v 0.01658780 -0.05960787 -0.00105386
v 0.01358327 -0.06029410 -0.00130970
v 0.01308666 -0.06030181 -0.00130490
v 0.01308666 -0.05893378 -0.00085078
v 0.01308666 -0.05852227 -0.00062212
v 0.02166321 -0.06819560 0.01274251
v 0.01975248 -0.06819560 0.01061741
v 0.01903735 -0.06209791 0.00256153
v 0.01925835 -0.05990354 0.00059793
v 0.01910316 -0.05878705 0.00003828
v 0.01853081 -0.05754589 0.00044123
v 0.01614705 -0.05692586 0.00031171
v 0.01326668 -0.06724018 0.00441800
v 0.01308666 -0.06546063 0.00222734
v 0.01486578 -0.06345823 0.00076263
v 0.01750405 -0.06388408 0.00333546
v 0.01730665 -0.06021907 -0.00075324
v 0.01550518 -0.06106858 -0.00097870
v 0.01308666 -0.06120979 -0.00109543
v 0.01308666 -0.06045517 -0.00129691
v 0.01758724 -0.06126275 0.00036608
v 0.01308666 -0.06453279 0.00119277
v 0.01347278 -0.06288454 -0.00028952
v 0.01507064 -0.06230312 -0.00028473
v 0.01308666 -0.06296287 -0.00028473
v 0.01308666 -0.06329384 -0.00002249
v 0.01308666 -0.06313387 -0.00017919
f 1 2 5
f 1 5 11
f 1 11 19
f 1 19 18
f 1 18 17
f 1 17 23
f 1 23 12
f 1 12 6
f 1 6 3
f 1 3 4
f 1 4 2
f 2 4 5
f 3 6 7
f 3 7 4
f 4 7 8
f 4 8 9
f 4 9 10
f 4 10 5
f 5 10 11
f 6 12 13
f 6 13 7
f 7 13 8
f 8 13 14
f 8 14 15
f 8 15 9
f 9 15 10
f 10 16 17
f 10 17 18
f 10 18 19
f 10 19 11
f 10 15 20
f 10 20 29
f 10 29 28
f 10 28 42
f 10 42 58
f 10 58 45
f 10 45 31
f 10 31 21
f 10 21 33
f 10 33 51
f 10 51 50
f 10 50 49
f 10 49 66
f 10 66 65
f 10 65 71
f 10 71 73
f 10 73 72
f 10 72 68
f 10 68 60
f 10 60 43
f 10 43 30
f 10 30 16
f 12 22 13
f 12 23 24
f 12 24 22
f 13 22 14
f 14 24 25
f 14 25 15
f 14 22 24
f 15 25 26
f 15 26 27
f 15 27 28
f 15 28 29
f 15 29 20
f 16 30 44
f 16 44 53
f 16 53 52
f 16 52 38
f 16 38 34
f 16 34 23
f 16 23 17
f 21 31 32
f 21 32 33
f 23 34 24
f 24 35 36
f 24 36 37
f 24 37 25
f 24 34 38
f 24 38 35
f 25 37 26
f 26 39 27
f 26 37 40
f 26 40 41
f 26 41 39
f 27 39 28
f 28 39 42
f 30 43 44
f 31 45 46
f 31 46 32
f 32 47 48
f 32 48 49
f 32 49 50
f 32 50 51
f 32 51 33
f 32 46 47
f 35 38 52
f 35 52 53
f 35 53 54
f 35 54 36
f 36 54 55
f 36 55 37
f 37 55 40
f 39 41 42
f 40 55 56
f 40 56 41
f 41 56 57
f 41 57 42
f 42 57 46
f 42 46 58
f 43 59 44
f 43 60 61
f 43 61 59
f 44 59 61
f 44 61 62
f 44 62 53
f 45 58 46
f 46 57 47
f 47 57 56
f 47 56 63
f 47 63 64
f 47 64 48
f 48 65 66
f 48 66 49
f 48 64 65
f 53 62 54
f 54 62 67
f 54 67 55
f 55 67 63
f 55 63 56
f 60 68 61
f 61 69 70
f 61 70 67
f 61 67 62
f 61 68 69
f 63 67 70
f 63 70 64
f 64 70 69
f 64 69 71
f 64 71 65
f 68 72 69
f 69 72 73
f 69 73 71

