# https://github.com/mikedh/trimesh
v -0.00550373 -0.02779764 0.01749613
v -0.00277767 -0.03871747 0.01255134
v -0.00285730 -0.04076718 0.01232331
v -0.00535853 -0.03039052 0.01742177
v -0.00550373 -0.02779764 0.01883209
v -0.00529295 -0.02604513 0.01781091
v -0.00111018 -0.03844588 0.01241006
v -0.00022491 -0.04428755 0.01019916
v -0.00040290 -0.04594782 0.00999840
v -0.00359268 -0.02519450 0.01764237
v -0.00265589 -0.02373408 0.01800672
v -0.00018744 -0.04796679 0.01001327
v -0.00263715 -0.04254530 0.01248938
v -0.00510091 -0.03184581 0.01770929
v -0.00535853 -0.03039052 0.01851731
v 0.01560219 -0.02175099 0.03403824
v -0.00271209 -0.02520475 0.02081248
v -0.00255752 -0.02372896 0.02077530
v -0.00529295 -0.02604513 0.01862389
v -0.00023428 -0.02096698 0.02018292
v -0.00111018 -0.02362647 0.01799185
v 0.00148474 -0.04432343 0.01021403
v 0.00148474 -0.04594782 0.00979267
v 0.00407965 -0.05113359 0.00936140
v 0.00128801 -0.04871493 0.00975054
v 0.00148474 -0.02043917 0.01991276
v 0.00210770 -0.05113359 0.00991660
v 0.00263699 -0.05256839 0.01017933
v -0.00018744 -0.04796679 0.01096009
v -0.00263715 -0.04254530 0.01317843
v -0.00510091 -0.03184581 0.01819757
v 0.01713385 -0.02261187 0.03427370
v 0.01703549 -0.02001386 0.03446455
v 0.01562561 -0.02001386 0.03395149
v 0.00681508 -0.05356250 0.01217708
v -0.00023428 -0.02096698 0.02101325
v 0.01572866 -0.01870717 0.03367388
v 0.00502581 -0.01848683 0.02257228
v 0.00407965 -0.02011634 0.02004660
v 0.00051516 -0.02371359 0.01805133
v 0.00148474 -0.04302698 0.01071223
v 0.00290866 -0.04457451 0.01030078
v 0.04035692 -0.06409288 0.00914328
v 0.00407965 -0.04853558 0.00952498
v 0.00666988 -0.05113359 0.00938866
v 0.00926479 -0.05372135 0.00927465
v 0.00666988 -0.05372135 0.00932918
v 0.00428106 -0.05354712 0.00992156
v 0.00666988 -0.01807176 0.02226989
v 0.00263699 -0.05256839 0.01050155
v 0.00527874 -0.05510490 0.01022890
v 0.00059947 -0.04691631 0.01269014
v 0.00428106 -0.05354712 0.01087829
v 0.00416396 -0.05104135 0.01222417
v 0.01806127 -0.02396980 0.03377055
v 0.01842662 -0.02396980 0.03377055
v 0.01893249 -0.02260674 0.03414482
v 0.00881045 -0.05431064 0.01266288
v 0.01185502 -0.05676004 0.01253151
v 0.01367708 -0.05732371 0.01278433
v 0.01904490 -0.02001386 0.03417208
v 0.01857651 -0.01856369 0.03380773
v 0.01703549 -0.01859443 0.03378046
v 0.00666988 -0.05560196 0.01086590
v 0.00502581 -0.01848683 0.02346953
v 0.01507759 -0.01581708 0.02900918
v 0.01235152 -0.01590931 0.02549702
v 0.01812216 -0.02395955 0.02072325
v 0.01962103 -0.02554295 0.02025232
v 0.02221126 -0.02779764 0.01970455
v 0.01962103 -0.02779764 0.01929806
v 0.02480617 -0.03218401 0.01830167
v 0.00926479 -0.01780017 0.02248305
v 0.00666988 -0.01922984 0.02097607
v 0.02300285 -0.03183556 0.01817030
v 0.04231482 -0.06409288 0.00974806
v 0.04233824 -0.06621946 0.00974806
v 0.04036629 -0.06692149 0.00963652
v 0.03776670 -0.06409288 0.00919533
v 0.01185502 -0.05631423 0.00925978
v 0.02659545 -0.03392627 0.01797945
v 0.04186516 -0.06257610 0.01013472
v 0.00912896 -0.05647308 0.00960678
v 0.00666988 -0.05560196 0.00991660
v 0.01444525 -0.01578121 0.02538548
v 0.00527874 -0.05510490 0.01043958
v 0.00990650 -0.05801549 0.00996122
v 0.01704017 -0.05950153 0.01254391
v 0.01877792 -0.05997809 0.01277937
v 0.02049693 -0.06035216 0.01298014
v 0.02648303 -0.06268883 0.01280912
v 0.02821141 -0.06288868 0.01296775
v 0.02998663 -0.06308853 0.01305945
v 0.03257686 -0.06333961 0.01315612
v 0.03517646 -0.06474367 0.01249929
v 0.03517646 -0.06345235 0.01318586
v 0.03776670 -0.06452844 0.01257613
v 0.04036629 -0.06692149 0.01103197
v 0.03917188 -0.06292455 0.01295535
v 0.04233824 -0.06621946 0.01084112
v 0.02034236 -0.02001386 0.03300466
v 0.04231482 -0.06409288 0.01097000
v 0.00935847 -0.05623737 0.01173589
v 0.00990650 -0.05801549 0.01080889
v 0.01185502 -0.05855867 0.01123521
v 0.02104495 -0.01857906 0.03130187
v 0.01951330 -0.01815887 0.03224622
v 0.01845941 -0.01601692 0.02876628
v 0.01703549 -0.01581195 0.02909345
v 0.01235152 -0.01590931 0.02648349
v 0.01461388 -0.01572484 0.02797561
v 0.01430474 -0.01566335 0.02727912
v 0.01962103 -0.02425164 0.02086949
v 0.01694649 -0.01990112 0.02268630
v 0.02221126 -0.02608100 0.02049275
v 0.02364924 -0.02640896 0.02064394
v 0.02480617 -0.03039052 0.01907251
v 0.01444057 -0.01705203 0.02408918
v 0.01185502 -0.01798977 0.02278792
v 0.01444057 -0.01834847 0.02305561
v 0.01602843 -0.01860468 0.02320928
v 0.03950913 -0.06801295 0.01027352
v 0.03891426 -0.06801295 0.01027352
v 0.03794000 -0.06683950 0.00970840
v 0.01704017 -0.05890712 0.00943823
v 0.01704017 -0.06082360 0.00985216
v 0.01185502 -0.05855867 0.00975549
v 0.02743388 -0.03303465 0.01866602
v 0.02832383 -0.03453093 0.01827193
v 0.04186516 -0.06257610 0.01067009
v 0.02739641 -0.03038027 0.01997720
v 0.02897022 -0.03123090 0.02040351
v 0.02871728 -0.02904283 0.02321176
v 0.01708701 -0.01572996 0.02721716
v 0.01625326 -0.01588369 0.02560608
v 0.01488086 -0.06052639 0.01002318
v 0.01488086 -0.06052639 0.01083120
v 0.02480617 -0.06240699 0.01254391
v 0.03891426 -0.06801295 0.01036027
v 0.03950913 -0.06801295 0.01036027
v 0.02125105 -0.02001386 0.03170589
v 0.02871728 -0.02904283 0.02331338
v 0.02107306 -0.01855344 0.02977258
v 0.01845941 -0.01601692 0.02811193
v 0.01825331 -0.01597080 0.02797561
v 0.02538230 -0.02696238 0.02105786
v 0.02653456 -0.02868926 0.02045804
v 0.02463287 -0.02781813 0.02024489
v 0.01775681 -0.01895826 0.02348440
v 0.01962103 -0.02078762 0.02294407
v 0.02101217 -0.02123344 0.02321919
v 0.02090443 -0.06280157 0.01032061
v 0.03517646 -0.06616822 0.00975054
v 0.02653924 -0.02601951 0.02278792
v 0.01798164 -0.01632950 0.02638187
v 0.02090443 -0.06280157 0.01033548
v 0.02220658 -0.06295530 0.01068744
v 0.02653924 -0.02601951 0.02407678
v 0.02099811 -0.01863543 0.02826064
v 0.02429094 -0.02313967 0.02458242
v 0.02388812 -0.02360598 0.02298373
f 1 2 3
f 1 3 4
f 1 4 15
f 1 15 5
f 1 5 19
f 1 19 6
f 1 6 2
f 2 7 8
f 2 8 9
f 2 9 3
f 2 6 10
f 2 10 11
f 2 11 7
f 3 9 12
f 3 12 13
f 3 13 4
f 4 13 14
f 4 14 31
f 4 31 15
f 5 15 16
f 5 16 17
f 5 17 18
f 5 18 19
f 6 19 36
f 6 36 20
f 6 20 11
f 6 11 10
f 7 11 21
f 7 21 8
f 8 22 23
f 8 23 9
f 8 21 22
f 9 23 24
f 9 24 25
f 9 25 12
f 11 20 26
f 11 26 21
f 12 25 24
f 12 24 27
f 12 27 28
f 12 28 50
f 12 50 29
f 12 29 30
f 12 30 13
f 13 30 31
f 13 31 14
f 15 31 16
f 16 32 33
f 16 33 34
f 16 34 17
f 16 31 35
f 16 35 32
f 17 34 18
f 18 36 19
f 18 34 37
f 18 37 36
f 20 36 65
f 20 65 38
f 20 38 26
f 21 26 39
f 21 39 40
f 21 40 22
f 22 41 42
f 22 42 43
f 22 43 23
f 22 40 41
f 23 44 24
f 23 43 44
f 24 45 46
f 24 46 47
f 24 47 48
f 24 48 27
f 24 44 45
f 26 38 49
f 26 49 39
f 27 48 28
f 28 48 51
f 28 51 86
f 28 86 50
f 29 50 30
f 30 50 52
f 30 52 31
f 31 52 53
f 31 53 54
f 31 54 35
f 32 55 56
f 32 56 57
f 32 57 33
f 32 35 58
f 32 58 59
f 32 59 60
f 32 60 55
f 33 57 61
f 33 61 62
f 33 62 63
f 33 63 37
f 33 37 34
f 35 54 53
f 35 53 64
f 35 64 58
f 36 37 65
f 37 63 66
f 37 66 65
f 38 65 110
f 38 110 67
f 38 67 49
f 39 68 69
f 39 69 70
f 39 70 71
f 39 71 72
f 39 72 40
f 39 49 73
f 39 73 74
f 39 74 68
f 40 72 75
f 40 75 42
f 40 42 41
f 42 75 72
f 42 72 43
f 43 76 77
f 43 77 78
f 43 78 79
f 43 79 80
f 43 80 46
f 43 46 45
f 43 45 44
f 43 72 81
f 43 81 82
f 43 82 76
f 46 80 47
f 47 80 83
f 47 83 84
f 47 84 48
f 48 84 51
f 49 67 85
f 49 85 73
f 50 86 53
f 50 53 52
f 51 84 87
f 51 87 104
f 51 104 86
f 53 86 64
f 55 60 88
f 55 88 89
f 55 89 90
f 55 90 91
f 55 91 92
f 55 92 93
f 55 93 94
f 55 94 95
f 55 95 96
f 55 96 56
f 56 96 97
f 56 97 98
f 56 98 99
f 56 99 100
f 56 100 57
f 57 101 61
f 57 100 102
f 57 102 101
f 58 64 103
f 58 103 59
f 59 103 104
f 59 104 105
f 59 105 88
f 59 88 60
f 61 101 62
f 62 106 107
f 62 107 108
f 62 108 109
f 62 109 66
f 62 66 63
f 62 101 106
f 64 86 104
f 64 104 103
f 65 66 110
f 66 109 111
f 66 111 110
f 67 110 112
f 67 112 85
f 68 113 69
f 68 74 114
f 68 114 113
f 69 113 115
f 69 115 70
f 70 115 116
f 70 116 117
f 70 117 72
f 70 72 71
f 72 117 81
f 73 85 118
f 73 118 119
f 73 119 74
f 74 119 120
f 74 120 121
f 74 121 114
f 76 102 100
f 76 100 77
f 76 82 130
f 76 130 102
f 77 100 140
f 77 140 122
f 77 122 78
f 78 122 123
f 78 123 124
f 78 124 79
f 79 124 125
f 79 125 80
f 80 125 126
f 80 126 127
f 80 127 83
f 81 117 128
f 81 128 129
f 81 129 82
f 82 129 131
f 82 131 132
f 82 132 133
f 82 133 142
f 82 142 130
f 83 127 87
f 83 87 84
f 85 112 134
f 85 134 135
f 85 135 118
f 87 127 136
f 87 136 137
f 87 137 104
f 88 137 89
f 88 105 137
f 89 137 138
f 89 138 90
f 90 138 91
f 91 138 139
f 91 139 92
f 92 139 95
f 92 95 93
f 93 95 94
f 95 139 140
f 95 140 98
f 95 98 97
f 95 97 96
f 98 140 100
f 98 100 99
f 101 141 106
f 101 102 142
f 101 142 141
f 102 130 142
f 104 137 105
f 106 143 108
f 106 108 107
f 106 141 142
f 106 142 143
f 108 144 145
f 108 145 134
f 108 134 109
f 108 143 144
f 109 134 112
f 109 112 111
f 110 111 112
f 113 116 115
f 113 114 116
f 114 121 116
f 116 146 147
f 116 147 148
f 116 148 117
f 116 121 149
f 116 149 150
f 116 150 151
f 116 151 146
f 117 148 128
f 118 135 121
f 118 121 120
f 118 120 119
f 121 135 149
f 122 140 139
f 122 139 123
f 123 139 156
f 123 156 152
f 123 152 153
f 123 153 124
f 124 153 125
f 125 153 126
f 126 136 127
f 126 153 136
f 128 148 147
f 128 147 129
f 129 147 131
f 131 147 132
f 132 147 154
f 132 154 133
f 133 154 158
f 133 158 142
f 134 145 155
f 134 155 135
f 135 155 151
f 135 151 149
f 136 153 152
f 136 152 156
f 136 156 137
f 137 156 157
f 137 157 138
f 138 157 139
f 139 157 156
f 142 158 143
f 143 154 159
f 143 159 144
f 143 158 154
f 144 155 145
f 144 159 160
f 144 160 154
f 144 154 155
f 146 151 161
f 146 161 154
f 146 154 147
f 149 151 150
f 151 155 161
f 154 161 155
f 154 160 159

