# https://github.com/mikedh/trimesh
v -0.01029144 -0.09451980 0.01402353
v -0.01029144 -0.09130680 0.01042060
v -0.02620152 -0.08092246 0.01308832
v -0.02711027 -0.08092246 0.01383613
v -0.02729447 -0.08092246 0.01392099
v -0.02636994 -0.08394247 0.01502591
v -0.02538400 -0.08478098 0.01502591
v -0.01532288 -0.09451980 0.01502591
v -0.01029144 -0.09451980 0.00985134
v -0.01029144 -0.09128018 0.01038878
v -0.01191946 -0.08092246 -0.00180424
v -0.02697694 -0.08284041 0.01464582
v -0.02770850 -0.08092246 0.01386972
v -0.02621731 -0.08497531 0.01502591
v -0.01821753 -0.09451980 0.01502591
v -0.01948416 -0.09451980 0.00079453
v -0.01029144 -0.09323940 -0.00303291
v -0.01029144 -0.09049623 0.00927855
v -0.01155632 -0.08092246 -0.00240886
v -0.02802077 -0.08092246 0.01383083
v -0.02796989 -0.08119132 0.01393160
v -0.02621205 -0.08500060 0.01502591
v -0.01990696 -0.09285873 0.01502591
v -0.02378405 -0.09451980 0.00263135
v -0.02339107 -0.09451980 -0.00299933
v -0.01440536 -0.09349361 -0.00303291
v -0.01029144 -0.09071052 -0.00303291
v -0.01029144 -0.09043901 0.00907348
v -0.01155456 -0.08092246 -0.00243714
v -0.02806814 -0.08092246 0.01374774
v -0.02755938 -0.08286969 0.01391569
v -0.02619099 -0.08503653 0.01502591
v -0.02454367 -0.09451980 0.00010152
v -0.02262793 -0.08993456 0.01502591
v -0.02335599 -0.08908805 0.01502591
v -0.02423316 -0.08799132 0.01502591
v -0.02517173 -0.08670826 0.01502591
v -0.02341563 -0.09451980 -0.00297988
v -0.02663835 -0.08841457 -0.00303291
v -0.02537874 -0.09024069 -0.00303291
v -0.02451210 -0.09117370 -0.00303291
v -0.02247706 -0.09317683 -0.00303291
v -0.02234022 -0.09330727 -0.00303291
v -0.02072448 -0.09347898 -0.00303291
v -0.01251945 -0.08092246 -0.00280663
v -0.01029144 -0.08976685 0.00255180
v -0.01029144 -0.08989995 0.00575695
v -0.01029144 -0.08976818 0.00262074
v -0.02821199 -0.08092246 0.01277718
v -0.02804182 -0.08153205 0.01284082
v -0.02553312 -0.08628101 0.01468294
v -0.02806638 -0.08092246 0.01217963
v -0.02770148 -0.08092246 0.01136288
v -0.02731202 -0.08092246 0.01068755
v -0.02700325 -0.08092246 0.01021199
v -0.01995959 -0.08092246 0.00118877
v -0.01837191 -0.08092246 -0.00051900
v -0.01827718 -0.08092246 -0.00061977
v -0.01825437 -0.08092246 -0.00063921
v -0.01602110 -0.08092246 -0.00166281
v -0.01402817 -0.08092246 -0.00245836
v -0.01395449 -0.08092246 -0.00247603
f 1 2 3
f 1 3 4
f 1 4 5
f 1 5 6
f 1 6 7
f 1 7 8
f 1 8 15
f 1 15 24
f 1 24 33
f 1 33 38
f 1 38 25
f 1 25 16
f 1 16 9
f 1 9 17
f 1 17 27
f 1 27 46
f 1 46 48
f 1 48 47
f 1 47 28
f 1 28 18
f 1 18 10
f 1 10 2
f 2 10 3
f 3 10 11
f 3 11 19
f 3 19 29
f 3 29 45
f 3 45 62
f 3 62 61
f 3 61 60
f 3 60 59
f 3 59 58
f 3 58 57
f 3 57 56
f 3 56 55
f 3 55 54
f 3 54 53
f 3 53 52
f 3 52 49
f 3 49 30
f 3 30 20
f 3 20 13
f 3 13 5
f 3 5 4
f 5 12 6
f 5 13 12
f 6 12 14
f 6 14 22
f 6 22 32
f 6 32 37
f 6 37 36
f 6 36 35
f 6 35 34
f 6 34 23
f 6 23 15
f 6 15 8
f 6 8 7
f 9 16 17
f 10 18 11
f 11 18 19
f 12 13 20
f 12 20 21
f 12 21 14
f 14 21 22
f 15 23 24
f 16 25 17
f 17 25 26
f 17 26 44
f 17 44 43
f 17 43 42
f 17 42 41
f 17 41 40
f 17 40 39
f 17 39 27
f 18 28 29
f 18 29 19
f 20 30 21
f 21 30 31
f 21 31 22
f 22 31 33
f 22 33 32
f 23 34 24
f 24 34 35
f 24 35 36
f 24 36 37
f 24 37 33
f 25 38 39
f 25 39 40
f 25 40 41
f 25 41 42
f 25 42 43
f 25 43 44
f 25 44 26
f 27 39 45
f 27 45 29
f 27 29 46
f 28 47 29
f 29 47 48
f 29 48 46
f 30 49 31
f 31 49 50
f 31 50 33
f 32 33 51
f 32 51 37
f 33 37 51
f 33 50 39
f 33 39 38
f 39 49 52
f 39 52 53
f 39 53 54
f 39 54 55
f 39 55 56
f 39 56 57
f 39 57 58
f 39 58 59
f 39 59 60
f 39 60 61
f 39 61 62
f 39 62 45
f 39 50 49

