# https://github.com/mikedh/trimesh
v -0.04848470 -0.12903725 0.00968933
v -0.04644234 -0.12406268 0.00633121
v -0.04751997 -0.12661701 0.00724165
v -0.04806870 -0.12861897 0.00850751
v -0.04821727 -0.13010049 0.01077311
v -0.04787457 -0.13044533 0.01294240
v -0.04798352 -0.12968861 0.01239964
v -0.04002206 -0.11134209 0.00487451
v -0.04228431 -0.11519595 0.00441404
v -0.04547365 -0.12211820 0.00536474
v -0.04636508 -0.12453843 0.00593552
v -0.04390473 -0.11851020 0.00433875
v -0.04713567 -0.12743440 0.00711034
v -0.04629574 -0.12851042 0.00729593
v -0.04726245 -0.12939166 0.00858280
v -0.04749819 -0.13026333 0.01145243
v -0.04666420 -0.13050599 0.01403143
v -0.04668995 -0.12993446 0.01430281
v -0.03890679 -0.11131975 0.00818536
v -0.04588767 -0.12829331 0.01423628
v -0.03833231 -0.11376871 0.01297392
v -0.03746465 -0.11118565 0.01164853
v -0.04054306 -0.11172844 0.00309740
v -0.03758153 -0.10778519 0.00560811
v -0.03793612 -0.10749144 0.00326198
v -0.04219517 -0.11490221 0.00319895
v -0.04410481 -0.11950000 0.00420569
v -0.04454855 -0.12167758 0.00453835
v -0.04547365 -0.12403714 0.00536124
v -0.04606793 -0.12612212 0.00608084
v -0.04539045 -0.12763236 0.00653781
v -0.04472287 -0.12741843 0.00657983
v -0.04411472 -0.12981632 0.01502591
v -0.04549544 -0.13021544 0.01445338
v -0.04538252 -0.13011007 0.01502591
v -0.04542016 -0.13011645 0.01502591
v -0.04543799 -0.13009410 0.01502591
v -0.04535678 -0.12980035 0.01502591
v -0.04527357 -0.12845294 0.01486133
v -0.03652964 -0.10807575 0.00902576
v -0.03715562 -0.11466273 0.01502591
v -0.03669406 -0.11386769 0.01502591
v -0.03610176 -0.11138361 0.01396490
v -0.03518061 -0.10846528 0.01236638
v -0.03752012 -0.10699654 0.00185955
v -0.03917818 -0.10979353 0.00146736
v -0.03613147 -0.10594288 0.00577269
v -0.03595319 -0.10493071 0.00323397
v -0.04134732 -0.11384214 0.00230427
v -0.03945551 -0.11142831 0.00078979
v -0.03992500 -0.11353882 0.00124150
v -0.04391266 -0.12310800 0.00458912
v -0.04351845 -0.12527280 0.00508111
v -0.04358580 -0.12610935 0.00559761
v -0.04184850 -0.12405629 0.00441754
v -0.04255372 -0.12832841 0.01502591
v -0.04495662 -0.12843059 0.01502591
v -0.04486550 -0.12823902 0.01502591
v -0.03462000 -0.10615361 0.00977512
v -0.03455067 -0.11054387 0.01502591
v -0.03419014 -0.11008089 0.01502591
v -0.03230625 -0.10769578 0.01502591
v -0.03183280 -0.10700292 0.01493662
v -0.03221513 -0.10529152 0.01265702
v -0.03510534 -0.10401116 0.00180878
v -0.03701101 -0.10695503 0.00088083
v -0.03833627 -0.10946146 0.00041861
v -0.03359783 -0.10412291 0.00776515
v -0.03358001 -0.10277869 0.00431949
v -0.03386526 -0.10268928 0.00224124
v -0.03755181 -0.10954449 -0.00003836
v -0.03794800 -0.11278530 0.00060420
v -0.03982397 -0.11753636 0.00212918
v -0.04185048 -0.12220760 0.00376797
v -0.04023601 -0.12168396 0.00330750
v -0.02829878 -0.10594288 -0.00221116
v -0.04240317 -0.12814642 0.01502591
v -0.03181497 -0.10708594 0.01502591
v -0.03170602 -0.10696780 0.01502591
v -0.03097109 -0.10533941 0.01415749
v -0.02902579 -0.10263820 0.01304745
v -0.03113947 -0.10329594 0.01080987
v -0.03137916 -0.10043509 0.00170023
v -0.03134153 -0.10071287 0.00097362
v -0.03412080 -0.10350668 0.00101039
v -0.03632759 -0.10753294 -0.00009614
v -0.02824926 -0.09976777 -0.00133399
v -0.03095524 -0.10142171 0.00690724
v -0.02982808 -0.10010941 0.00557660
v -0.03122663 -0.10039039 0.00263693
v -0.02824926 -0.10252006 -0.00279069
v -0.02824926 -0.10366951 -0.00285898
v -0.02824926 -0.10410056 -0.00285197
v -0.03818572 -0.11829627 0.00199787
v -0.02922191 -0.10607059 -0.00229345
v -0.02824926 -0.10585027 -0.00224268
v -0.02824926 -0.10816833 0.01502591
v -0.03021238 -0.10550225 0.01502591
v -0.02824926 -0.10378765 0.01502591
v -0.02824926 -0.10372698 0.01496113
v -0.02824926 -0.10358969 0.01481406
v -0.02824926 -0.10327679 0.01447614
v -0.02824926 -0.10217523 0.01317527
v -0.02824926 -0.10192619 0.01282510
v -0.02824926 -0.10148236 0.01201971
v -0.02824926 -0.10074480 0.01052799
v -0.02824926 -0.09788714 0.00178952
v -0.02824926 -0.09790311 0.00073901
v -0.02824926 -0.09795739 0.00066548
v -0.02824926 -0.09890249 -0.00050234
v -0.02824926 -0.10079270 -0.00201507
v -0.02824926 -0.10104813 -0.00213413
v -0.02824926 -0.10021477 0.00932341
v -0.02824926 -0.09936226 0.00692475
v -0.02824926 -0.09912599 0.00622441
v -0.02824926 -0.09839482 0.00364892
f 1 2 3
f 1 3 4
f 1 4 5
f 1 5 6
f 1 6 7
f 1 7 8
f 1 8 9
f 1 9 2
f 2 10 11
f 2 11 3
f 2 9 12
f 2 12 10
f 3 11 13
f 3 13 4
f 4 13 14
f 4 14 15
f 4 15 5
f 5 16 6
f 5 15 16
f 6 16 17
f 6 17 18
f 6 18 7
f 7 19 8
f 7 18 20
f 7 20 21
f 7 21 22
f 7 22 19
f 8 23 9
f 8 19 24
f 8 24 25
f 8 25 23
f 9 23 26
f 9 26 12
f 10 12 27
f 10 27 11
f 11 27 28
f 11 28 29
f 11 29 30
f 11 30 13
f 12 26 27
f 13 30 14
f 14 30 31
f 14 31 32
f 14 32 33
f 14 33 15
f 15 33 16
f 16 34 17
f 16 33 34
f 17 34 35
f 17 35 36
f 17 36 37
f 17 37 18
f 18 38 39
f 18 39 20
f 18 37 38
f 19 22 40
f 19 40 24
f 20 39 41
f 20 41 42
f 20 42 43
f 20 43 21
f 21 43 22
f 22 44 40
f 22 43 44
f 23 25 45
f 23 45 46
f 23 46 26
f 24 40 47
f 24 47 25
f 25 47 48
f 25 48 45
f 26 46 49
f 26 49 27
f 27 49 50
f 27 50 28
f 28 50 51
f 28 51 52
f 28 52 29
f 29 52 30
f 30 52 53
f 30 53 31
f 31 53 54
f 31 54 32
f 32 54 33
f 33 35 34
f 33 54 55
f 33 55 56
f 33 56 77
f 33 77 97
f 33 97 99
f 33 99 98
f 33 98 79
f 33 79 78
f 33 78 62
f 33 62 61
f 33 61 60
f 33 60 42
f 33 42 41
f 33 41 58
f 33 58 57
f 33 57 38
f 33 38 37
f 33 37 36
f 33 36 35
f 38 57 39
f 39 57 58
f 39 58 41
f 40 44 59
f 40 59 47
f 42 60 43
f 43 60 61
f 43 61 44
f 44 61 62
f 44 62 63
f 44 63 64
f 44 64 59
f 45 48 65
f 45 65 66
f 45 66 46
f 46 66 67
f 46 67 50
f 46 50 49
f 47 59 68
f 47 68 69
f 47 69 48
f 48 69 70
f 48 70 65
f 50 67 71
f 50 71 51
f 51 71 72
f 51 72 73
f 51 73 74
f 51 74 52
f 52 74 53
f 53 74 75
f 53 75 55
f 53 55 54
f 55 75 76
f 55 76 56
f 56 76 77
f 59 64 68
f 62 78 63
f 63 79 80
f 63 80 64
f 63 78 79
f 64 80 81
f 64 81 82
f 64 82 68
f 65 70 83
f 65 83 84
f 65 84 85
f 65 85 66
f 66 86 67
f 66 85 87
f 66 87 86
f 67 86 71
f 68 82 88
f 68 88 69
f 69 88 89
f 69 89 90
f 69 90 70
f 70 90 83
f 71 86 91
f 71 91 92
f 71 92 93
f 71 93 72
f 72 94 73
f 72 93 95
f 72 95 94
f 73 94 74
f 74 94 75
f 75 94 76
f 76 95 96
f 76 96 97
f 76 97 77
f 76 94 95
f 79 98 80
f 80 98 99
f 80 99 100
f 80 100 101
f 80 101 102
f 80 102 81
f 81 102 103
f 81 103 104
f 81 104 105
f 81 105 106
f 81 106 82
f 82 106 88
f 83 90 107
f 83 107 108
f 83 108 84
f 84 108 109
f 84 109 110
f 84 110 85
f 85 110 87
f 86 87 111
f 86 111 112
f 86 112 91
f 87 110 109
f 87 109 108
f 87 108 107
f 87 107 116
f 87 116 115
f 87 115 114
f 87 114 113
f 87 113 106
f 87 106 105
f 87 105 104
f 87 104 103
f 87 103 102
f 87 102 101
f 87 101 100
f 87 100 99
f 87 99 97
f 87 97 96
f 87 96 93
f 87 93 92
f 87 92 91
f 87 91 112
f 87 112 111
f 88 106 113
f 88 113 114
f 88 114 89
f 89 114 115
f 89 115 116
f 89 116 107
f 89 107 90
f 93 96 95

