# https://github.com/mikedh/trimesh
v -0.00134231 -0.10356423 0.00474287
v 0.00834337 -0.10372109 0.00474287
v -0.00134231 -0.09977461 -0.00347959
v -0.00134231 -0.10597941 0.00474287
v 0.00834432 -0.10465728 -0.01260548
v 0.00834337 -0.10242137 -0.00374111
v 0.00811960 -0.10197568 -0.00383111
v 0.00582595 -0.10048673 -0.00416565
v 0.00315492 -0.09959036 -0.00498755
v 0.00336447 -0.10018047 -0.00334883
v 0.00105754 -0.09979952 -0.00377847
v -0.00134231 -0.09953061 -0.00403489
v 0.00834337 -0.10597693 0.00474287
v -0.00134231 -0.11724617 -0.00154879
v -0.00131671 -0.11730591 -0.00156407
v -0.00011441 -0.12035353 -0.00272221
v 0.00820494 -0.10367627 -0.01260548
v 0.00834337 -0.10379828 -0.01172923
v 0.00834337 -0.10368623 -0.01152885
v 0.00834337 -0.10265541 -0.00911747
v 0.00834337 -0.10244129 -0.00830745
v 0.00834337 -0.10844938 -0.00003743
v 0.00834337 -0.10850167 -0.00020895
v 0.00834337 -0.11157668 -0.01260548
v 0.00823338 -0.10215495 -0.00890859
v 0.00793186 -0.10151754 -0.01030278
v 0.00772611 -0.10144533 -0.00696421
v 0.00643184 -0.10021533 -0.00916671
v 0.00664707 -0.10072078 -0.00600135
v 0.00493940 -0.09977213 -0.00627306
v 0.00163214 -0.09932395 -0.00685213
v -0.00034956 -0.09925174 -0.00523718
v -0.00134231 -0.09930652 -0.00478547
v 0.00060052 -0.12179020 -0.00371394
v 0.00178385 -0.12268656 -0.00482283
v 0.00250162 -0.12351071 -0.00607437
v 0.00351807 -0.12408090 -0.00764007
v 0.00438376 -0.12457141 -0.00949276
v 0.00567614 -0.12415560 -0.01205697
v -0.00134231 -0.11724617 -0.00158275
v -0.00134231 -0.11720633 -0.00305336
v -0.00121999 -0.11749764 -0.00316713
v 0.00775171 -0.10263052 -0.01260548
v 0.00830070 -0.10360905 -0.01172244
v 0.00588284 -0.12365264 -0.01260548
v 0.00619195 -0.10038962 -0.01039957
v 0.00758293 -0.10192588 -0.01164092
v 0.00435247 -0.09963767 -0.00911577
v -0.00134231 -0.09927414 -0.00785574
v -0.00134231 -0.09923431 -0.00548172
v 0.00151362 -0.12015684 -0.00998352
v 0.00291029 -0.12203670 -0.01095657
v 0.00257084 -0.12259693 -0.00857745
v -0.00134231 -0.11697974 -0.00374620
v -0.00134231 -0.11636225 -0.00537643
v -0.00134231 -0.11592652 -0.00627985
v -0.00012010 -0.11819979 -0.00752969
v 0.00405474 -0.12374726 -0.01086657
v 0.00515274 -0.12466852 -0.01165111
v 0.00567139 -0.12420789 -0.01260548
v 0.00730037 -0.10236161 -0.01260548
v 0.00542108 -0.10081290 -0.01122318
v 0.00277849 -0.09994642 -0.01029599
v 0.00630857 -0.10195825 -0.01260548
v 0.00114098 -0.09952812 -0.00905294
v -0.00134231 -0.09928659 -0.00798989
v 0.00235465 -0.12055273 -0.01163583
v 0.00039666 -0.11808525 -0.00950125
v 0.00382339 -0.12235541 -0.01260548
v 0.00404337 -0.12273636 -0.01260548
v -0.00134231 -0.11515963 -0.00778272
v 0.00420361 -0.12296792 -0.01260548
v 0.00442738 -0.12324680 -0.01260548
v 0.00548745 -0.12439961 -0.01260548
v 0.00453737 -0.10171175 -0.01260548
v -0.00134231 -0.09984184 -0.01004975
v 0.00355885 -0.10167191 -0.01260548
v -0.00134231 -0.10176155 -0.01260548
v -0.00134231 -0.09962274 -0.00938238
v 0.00308381 -0.12079424 -0.01260548
v -0.00080658 -0.11512727 -0.00935181
v -0.00134231 -0.11385991 -0.00917011
v -0.00134231 -0.11262244 -0.00981371
v -0.00088149 -0.11313286 -0.01027221
v -0.00134231 -0.11503016 -0.00797461
v -0.00134231 -0.11482101 -0.00820046
v -0.00134231 -0.11424086 -0.00882369
v -0.00134231 -0.10443320 -0.01260548
v 0.00290176 -0.12020414 -0.01260548
v -0.00134231 -0.11193025 -0.01012957
f 1 2 3
f 1 3 12
f 1 12 33
f 1 33 50
f 1 50 49
f 1 49 66
f 1 66 79
f 1 79 76
f 1 76 78
f 1 78 88
f 1 88 90
f 1 90 83
f 1 83 82
f 1 82 87
f 1 87 86
f 1 86 85
f 1 85 71
f 1 71 56
f 1 56 55
f 1 55 54
f 1 54 41
f 1 41 40
f 1 40 14
f 1 14 4
f 1 4 13
f 1 13 2
f 2 5 6
f 2 6 7
f 2 7 8
f 2 8 9
f 2 9 10
f 2 10 11
f 2 11 12
f 2 12 3
f 2 13 5
f 4 14 15
f 4 15 16
f 4 16 13
f 5 17 18
f 5 18 19
f 5 19 20
f 5 20 21
f 5 21 6
f 5 13 22
f 5 22 23
f 5 23 24
f 5 24 45
f 5 45 60
f 5 60 74
f 5 74 73
f 5 73 72
f 5 72 70
f 5 70 69
f 5 69 80
f 5 80 89
f 5 89 88
f 5 88 78
f 5 78 77
f 5 77 75
f 5 75 64
f 5 64 61
f 5 61 43
f 5 43 17
f 6 21 25
f 6 25 26
f 6 26 7
f 7 26 27
f 7 27 28
f 7 28 29
f 7 29 8
f 8 29 28
f 8 28 30
f 8 30 9
f 9 31 32
f 9 32 33
f 9 33 12
f 9 12 11
f 9 11 10
f 9 30 31
f 13 16 34
f 13 34 35
f 13 35 36
f 13 36 37
f 13 37 38
f 13 38 39
f 13 39 22
f 14 40 16
f 14 16 15
f 16 40 41
f 16 41 42
f 16 42 34
f 17 43 26
f 17 26 44
f 17 44 19
f 17 19 18
f 19 44 26
f 19 26 20
f 20 26 25
f 20 25 21
f 22 39 45
f 22 45 23
f 23 45 24
f 26 46 28
f 26 28 27
f 26 43 47
f 26 47 46
f 28 46 48
f 28 48 30
f 30 48 31
f 31 49 32
f 31 48 49
f 32 49 50
f 32 50 33
f 34 51 52
f 34 52 53
f 34 53 36
f 34 36 35
f 34 42 54
f 34 54 55
f 34 55 56
f 34 56 57
f 34 57 51
f 36 58 38
f 36 38 37
f 36 53 58
f 38 58 59
f 38 59 39
f 39 59 60
f 39 60 45
f 41 54 42
f 43 61 47
f 46 62 63
f 46 63 48
f 46 47 61
f 46 61 64
f 46 64 62
f 48 63 65
f 48 65 66
f 48 66 49
f 51 67 52
f 51 57 68
f 51 68 67
f 52 69 70
f 52 70 58
f 52 58 53
f 52 67 69
f 56 71 57
f 57 71 68
f 58 70 72
f 58 72 73
f 58 73 59
f 59 73 74
f 59 74 60
f 62 75 63
f 62 64 75
f 63 76 65
f 63 75 77
f 63 77 78
f 63 78 76
f 65 76 79
f 65 79 66
f 67 80 69
f 67 68 81
f 67 81 82
f 67 82 83
f 67 83 84
f 67 84 80
f 68 71 85
f 68 85 86
f 68 86 87
f 68 87 81
f 80 84 89
f 81 87 82
f 83 90 84
f 84 90 89
f 88 89 90

