# https://github.com/mikedh/trimesh
v -0.00817788 -0.06991901 0.04274087
v -0.01533248 -0.07849289 0.04929955
v -0.01490577 -0.07947772 0.04787504
v -0.01263276 -0.07871417 0.04434269
v -0.01263276 -0.07871417 0.04321404
v -0.01000071 -0.07350045 0.04126158
v -0.00948148 -0.07188047 0.04107231
v -0.00884763 -0.06991901 0.04093086
v -0.00966929 -0.06991901 0.04470230
v -0.01627289 -0.07706550 0.05110756
v -0.01641513 -0.07759958 0.05110756
v -0.01567771 -0.08022214 0.04870484
v -0.01696888 -0.07955557 0.05110756
v -0.01718983 -0.08027814 0.05110756
v -0.01519024 -0.08129030 0.04697651
v -0.01477597 -0.08177520 0.04533386
v -0.01476768 -0.08171373 0.04339932
v -0.01246015 -0.07659972 0.04127353
v -0.01149626 -0.07188047 0.04096074
v -0.01159430 -0.06991901 0.04104840
v -0.01488092 -0.06991901 0.05110756
v -0.01587380 -0.07506306 0.05110756
v -0.01773944 -0.08155254 0.05110756
v -0.01754749 -0.08204155 0.05038933
v -0.01786510 -0.08365060 0.04943801
v -0.01755025 -0.08384183 0.04792585
v -0.01616518 -0.08307146 0.04533386
v -0.01774773 -0.08357958 0.04400299
v -0.01311056 -0.07659972 0.04127353
v -0.01316994 -0.07447299 0.04122174
v -0.01295452 -0.07188047 0.04133231
v -0.01218120 -0.06991901 0.04123369
v -0.02002764 -0.06991901 0.05110756
v -0.01837467 -0.08271085 0.05110756
v -0.01850862 -0.08284744 0.05110756
v -0.01960922 -0.08381587 0.05110756
v -0.01929437 -0.08383636 0.05038933
v -0.01931370 -0.08387325 0.04798362
v -0.01746187 -0.08378856 0.04533386
v -0.01801286 -0.08357958 0.04400299
v -0.01677693 -0.07982876 0.04322500
v -0.01803358 -0.08080539 0.04396813
v -0.01282333 -0.07044216 0.04142097
v -0.01350965 -0.06991901 0.04218701
v -0.01730307 -0.06991901 0.04683008
v -0.02199823 -0.07959655 0.05110756
v -0.02085206 -0.08381587 0.05110756
v -0.02116415 -0.08383227 0.05051983
v -0.01837743 -0.08378856 0.04533386
v -0.02074020 -0.08369704 0.04888614
v -0.02228546 -0.08225190 0.05110756
v -0.01804601 -0.08225190 0.04396016
v -0.02221503 -0.08139001 0.05110756
v -0.01572604 -0.06991901 0.04449410
v -0.01544019 -0.07032332 0.04397012
v -0.01473592 -0.06991901 0.04337044
v -0.01407307 -0.06991901 0.04272991
v -0.02133676 -0.08381315 0.05110756
v -0.02181180 -0.08325312 0.05110756
f 1 2 3
f 1 3 4
f 1 4 5
f 1 5 6
f 1 6 7
f 1 7 8
f 1 8 20
f 1 20 32
f 1 32 44
f 1 44 57
f 1 57 56
f 1 56 54
f 1 54 45
f 1 45 33
f 1 33 21
f 1 21 9
f 1 9 10
f 1 10 11
f 1 11 2
f 2 12 3
f 2 11 13
f 2 13 14
f 2 14 12
f 3 12 4
f 4 12 15
f 4 15 16
f 4 16 5
f 5 16 17
f 5 17 6
f 6 17 18
f 6 18 7
f 7 18 8
f 8 19 20
f 8 18 19
f 9 21 22
f 9 22 10
f 10 22 21
f 10 21 33
f 10 33 46
f 10 46 53
f 10 53 51
f 10 51 59
f 10 59 58
f 10 58 47
f 10 47 36
f 10 36 35
f 10 35 34
f 10 34 23
f 10 23 14
f 10 14 13
f 10 13 11
f 12 14 23
f 12 23 24
f 12 24 15
f 15 24 25
f 15 25 16
f 16 25 26
f 16 26 27
f 16 27 17
f 17 27 28
f 17 28 18
f 18 29 19
f 18 28 40
f 18 40 29
f 19 29 30
f 19 30 20
f 20 30 31
f 20 31 32
f 23 34 24
f 24 34 25
f 25 34 35
f 25 35 36
f 25 36 26
f 26 36 37
f 26 37 38
f 26 38 39
f 26 39 27
f 27 39 28
f 28 39 49
f 28 49 40
f 29 40 41
f 29 41 30
f 30 41 42
f 30 42 31
f 31 43 32
f 31 42 43
f 32 43 44
f 33 45 42
f 33 42 46
f 36 47 37
f 37 47 48
f 37 48 38
f 38 48 49
f 38 49 39
f 40 49 50
f 40 50 51
f 40 51 52
f 40 52 41
f 41 52 42
f 42 52 51
f 42 51 53
f 42 53 46
f 42 45 54
f 42 54 55
f 42 55 56
f 42 56 57
f 42 57 44
f 42 44 43
f 47 58 48
f 48 58 59
f 48 59 50
f 48 50 49
f 50 59 51
f 54 56 55

