# https://github.com/mikedh/trimesh
v 0.04221744 -0.06991901 0.05110557
v 0.04984708 -0.07790850 0.05110557
v 0.06069091 -0.08821194 0.04792522
v 0.06049611 -0.08816396 0.04591752
v 0.05741179 -0.08598863 0.04388785
v 0.04173044 -0.06991901 0.05027851
v 0.03564621 -0.06991901 0.05110557
v 0.05220415 -0.08068897 0.05110557
v 0.06246358 -0.09099773 0.04927966
v 0.06246358 -0.09099773 0.04907989
v 0.06056104 -0.09003004 0.04595748
v 0.05785333 -0.08743885 0.04368009
v 0.05206130 -0.08612460 0.04143866
v 0.05593131 -0.08548213 0.04346234
v 0.03571114 -0.06991901 0.04431536
v 0.03606178 -0.06991901 0.04451113
v 0.03822405 -0.06991901 0.04592751
v 0.03856820 -0.06991901 0.04620519
v 0.03908766 -0.06991901 0.04666466
v 0.04015906 -0.06991901 0.04800912
v 0.04054866 -0.06991901 0.04856249
v 0.03560725 -0.06991901 0.05109358
v -0.00159942 -0.06992434 0.05110557
v 0.05234700 -0.08202454 0.05110557
v 0.06246358 -0.09137895 0.04927966
v 0.06246358 -0.09137895 0.04907989
v 0.06012599 -0.09145892 0.04644492
v 0.05787930 -0.08916897 0.04371006
v 0.05593131 -0.08743885 0.04284505
v 0.03002300 -0.06991901 0.04209391
v 0.03062688 -0.06991901 0.04226971
v 0.03275019 -0.06991901 0.04303283
v 0.03358134 -0.06991901 0.04333648
v 0.05206130 -0.08615658 0.04143866
v 0.01087423 -0.09691588 0.03083084
v 0.01080281 -0.09521508 0.03088877
v 0.01056255 -0.09391148 0.03107057
v 0.01319234 -0.08610593 0.03365560
v 0.01201056 -0.06992434 0.03822236
v 0.02481537 -0.06992434 0.04082537
v 0.02686725 -0.06992434 0.04125687
v 0.02848409 -0.06992434 0.04165442
v 0.03452936 -0.06991901 0.04374402
v 0.03467871 -0.06991901 0.04381394
v 0.02971132 -0.06991901 0.04662471
v -0.00386558 -0.06992434 0.04291097
v -0.00320976 -0.07707144 0.04210390
v -0.00293704 -0.07966262 0.04186817
v -0.00122930 -0.07210232 0.05110557
v 0.05074316 -0.08324283 0.05110557
v 0.02819189 -0.09590020 0.05110557
v 0.02696465 -0.09655599 0.05110557
v 0.02552963 -0.09683857 0.05110557
v 0.06104155 -0.09149891 0.04809901
v 0.00925740 -0.09715314 0.03071497
v 0.02971132 -0.06991901 0.04200601
v 0.00925740 -0.09521508 0.03069899
v 0.00798471 -0.08353874 0.03366359
v 0.00901065 -0.08478635 0.03343784
v 0.01184823 -0.08571939 0.03354572
v 0.00925740 -0.07966262 0.03497608
v 0.00927038 -0.07206234 0.03723948
v 0.01093267 -0.06992434 0.03809450
v -0.00386558 -0.06992434 0.04253540
v -0.00320976 -0.07707144 0.04045179
v -0.00246303 -0.08373601 0.03906738
v -0.00263834 -0.08146472 0.04163244
v -0.00119683 -0.07227560 0.05110557
v -0.00246303 -0.08373601 0.03879570
v 0.02493874 -0.09685189 0.05110557
v 0.01185472 -0.09699585 0.04792322
v 0.00925740 -0.09694520 0.04615724
v 0.00757563 -0.09696120 0.03083883
v 0.00530297 -0.06992434 0.03809450
v 0.00472507 -0.06992434 0.03817641
v 0.00401730 -0.06992434 0.03830226
v 0.00247189 -0.06992434 0.03869781
v 0.00229657 -0.06992434 0.03874575
v -0.00071633 -0.06992434 0.03980454
v -0.00318378 -0.06992434 0.04069152
v -0.00376169 -0.06992434 0.04097519
v 0.00763407 -0.09521508 0.03088478
v 0.00790679 -0.09385017 0.03105658
v 0.00794575 -0.08353874 0.03366359
v 0.00864703 -0.07547726 0.03616871
v 0.00732889 -0.07547726 0.03616871
v 0.00665358 -0.07206234 0.03726346
v 0.00008235 -0.08899037 0.03678001
v 0.00507571 -0.09186679 0.04962726
v 0.00288097 -0.08676439 0.05110557
v -0.00050854 -0.07489078 0.05110557
v -0.00246952 -0.08225647 0.03878970
v 0.00006936 -0.08743618 0.03614674
v 0.00008235 -0.08899037 0.03615073
v 0.02481537 -0.09684923 0.05110557
v 0.01185472 -0.09668662 0.04937355
v 0.00945220 -0.09689189 0.04783732
v 0.00778991 -0.09669195 0.04691637
v 0.00473156 -0.09472190 0.03425891
v 0.00473156 -0.09472190 0.03311422
v 0.00429651 -0.09262389 0.03292843
v 0.00490688 -0.07010828 0.03809450
v 0.00666657 -0.07966262 0.03500006
v 0.00621853 -0.08415455 0.03385137
v 0.00519908 -0.08588200 0.03360166
v 0.00235501 -0.06997499 0.03871379
v 0.00423158 -0.08494896 0.03421895
v 0.00480948 -0.08743618 0.03342586
v 0.00351731 -0.08743618 0.03400519
v 0.00130309 -0.08493563 0.03563732
v 0.00013430 -0.08586601 0.03621865
v -0.00243705 -0.08076361 0.03882766
v 0.00434196 -0.09003004 0.03315018
v 0.00691331 -0.08494896 0.03349179
v 0.00691331 -0.08250973 0.03415902
v 0.00224462 -0.09186679 0.03661221
v 0.00461468 -0.08932626 0.05110557
v 0.01045217 -0.09657198 0.04926168
v 0.00304979 -0.09003004 0.03385736
v 0.00224462 -0.09186679 0.03548150
v 0.02309464 -0.09672661 0.05110557
v 0.02253622 -0.09667595 0.05110557
v 0.00490688 -0.08951553 0.05110557
v 0.02088042 -0.09621476 0.05110557
f 1 2 3
f 1 3 4
f 1 4 5
f 1 5 6
f 1 6 21
f 1 21 20
f 1 20 19
f 1 19 18
f 1 18 17
f 1 17 16
f 1 16 15
f 1 15 44
f 1 44 43
f 1 43 33
f 1 33 32
f 1 32 31
f 1 31 30
f 1 30 56
f 1 56 45
f 1 45 22
f 1 22 7
f 1 7 23
f 1 23 49
f 1 49 68
f 1 68 91
f 1 91 90
f 1 90 117
f 1 117 123
f 1 123 124
f 1 124 122
f 1 122 121
f 1 121 95
f 1 95 70
f 1 70 53
f 1 53 52
f 1 52 51
f 1 51 50
f 1 50 24
f 1 24 8
f 1 8 2
f 2 8 9
f 2 9 3
f 3 9 10
f 3 10 4
f 4 10 11
f 4 11 12
f 4 12 5
f 5 12 13
f 5 13 14
f 5 14 15
f 5 15 16
f 5 16 17
f 5 17 18
f 5 18 19
f 5 19 20
f 5 20 21
f 5 21 6
f 7 22 23
f 8 24 9
f 9 25 26
f 9 26 10
f 9 24 25
f 10 26 11
f 11 27 28
f 11 28 12
f 11 26 27
f 12 28 29
f 12 29 13
f 13 30 31
f 13 31 32
f 13 32 33
f 13 33 14
f 13 29 34
f 13 34 35
f 13 35 36
f 13 36 37
f 13 37 38
f 13 38 39
f 13 39 40
f 13 40 41
f 13 41 42
f 13 42 30
f 14 33 43
f 14 43 44
f 14 44 15
f 22 45 23
f 23 46 47
f 23 47 48
f 23 48 49
f 23 45 46
f 24 50 25
f 25 50 51
f 25 51 52
f 25 52 53
f 25 53 26
f 26 54 27
f 26 53 54
f 27 54 55
f 27 55 35
f 27 35 28
f 28 34 29
f 28 35 34
f 30 42 56
f 35 55 57
f 35 57 36
f 36 57 37
f 37 57 58
f 37 58 59
f 37 59 60
f 37 60 38
f 38 60 39
f 39 60 61
f 39 61 62
f 39 62 63
f 39 63 56
f 39 56 40
f 40 56 41
f 41 56 42
f 45 56 64
f 45 64 46
f 46 64 65
f 46 65 47
f 47 65 48
f 48 66 67
f 48 67 68
f 48 68 49
f 48 65 69
f 48 69 66
f 53 70 55
f 53 55 54
f 55 70 71
f 55 71 72
f 55 72 73
f 55 73 57
f 56 63 74
f 56 74 75
f 56 75 76
f 56 76 77
f 56 77 78
f 56 78 79
f 56 79 80
f 56 80 81
f 56 81 64
f 57 73 82
f 57 82 83
f 57 83 84
f 57 84 58
f 58 85 62
f 58 62 61
f 58 61 60
f 58 60 59
f 58 84 86
f 58 86 85
f 62 85 86
f 62 86 87
f 62 87 74
f 62 74 63
f 64 81 65
f 65 81 69
f 66 88 89
f 66 89 90
f 66 90 67
f 66 69 94
f 66 94 88
f 67 91 68
f 67 90 91
f 69 81 92
f 69 92 93
f 69 93 94
f 70 95 71
f 71 96 97
f 71 97 72
f 71 95 96
f 72 98 73
f 72 97 98
f 73 98 99
f 73 99 100
f 73 100 94
f 73 94 101
f 73 101 82
f 74 87 102
f 74 102 75
f 75 102 103
f 75 103 76
f 76 103 104
f 76 104 105
f 76 105 77
f 77 105 106
f 77 106 78
f 78 106 105
f 78 105 79
f 79 105 80
f 80 105 107
f 80 107 108
f 80 108 109
f 80 109 81
f 81 109 110
f 81 110 111
f 81 111 112
f 81 112 92
f 82 101 113
f 82 113 108
f 82 108 83
f 83 108 105
f 83 105 114
f 83 114 84
f 84 114 104
f 84 104 115
f 84 115 103
f 84 103 102
f 84 102 87
f 84 87 86
f 88 94 120
f 88 120 116
f 88 116 98
f 88 98 89
f 89 117 90
f 89 98 118
f 89 118 117
f 92 112 93
f 93 112 111
f 93 111 119
f 93 119 94
f 94 119 101
f 94 100 120
f 95 121 96
f 96 118 97
f 96 121 122
f 96 122 118
f 97 118 98
f 98 116 99
f 99 116 120
f 99 120 100
f 101 119 113
f 103 115 104
f 104 114 105
f 105 108 107
f 108 113 109
f 109 113 119
f 109 119 110
f 110 119 111
f 117 118 123
f 118 122 124
f 118 124 123

