# https://github.com/mikedh/trimesh
v 0.01308666 -0.05692586 0.00187401
v 0.01308666 -0.06819560 0.00715585
v 0.01308666 -0.05692586 0.00032598
v 0.00640322 -0.05692586 0.00525084
v 0.01308666 -0.06819560 0.00564344
v 0.00509778 -0.05692586 0.00585465
v 0.00417164 -0.05692586 0.00572792
v 0.00396897 -0.06819560 0.00420060
v 0.01308666 -0.05812510 -0.00038716
v 0.01071468 -0.05692586 0.00043780
v 0.01249678 -0.06819560 0.00510672
v 0.01308666 -0.06746194 0.00457746
v 0.00408899 -0.05692586 0.00569893
v 0.00356704 -0.06819560 0.00395544
v 0.01308666 -0.05852227 -0.00062321
v 0.00939792 -0.05779302 -0.00001444
v 0.00506948 -0.05876498 -0.00031261
v 0.00582693 -0.05693689 0.00084779
v 0.00419881 -0.05692586 0.00099439
v 0.01095471 -0.06819560 0.00434886
v 0.01308666 -0.06546063 0.00222685
v 0.00321945 -0.05692586 0.00513985
v 0.00250163 -0.05692586 0.00426272
v 0.00182343 -0.06274001 0.00220614
v 0.00194345 -0.06454273 0.00203221
v 0.00243030 -0.06654733 0.00230967
v 0.00333720 -0.06819560 0.00330193
v 0.01308666 -0.05893378 -0.00085181
v 0.00983155 -0.05932764 -0.00089240
v 0.00575900 -0.06036581 -0.00107213
v 0.00410936 -0.05995650 -0.00067870
v 0.00412635 -0.05692586 0.00101758
v 0.01055730 -0.06819560 0.00420060
v 0.01037615 -0.06617002 0.00184999
v 0.01308666 -0.06453279 0.00119317
v 0.00235331 -0.05692586 0.00368045
v 0.00152000 -0.06093067 0.00154767
v 0.00188457 -0.05994546 0.00256809
v 0.00152566 -0.06296397 0.00127103
v 0.00203063 -0.06453942 0.00105651
v 0.00296017 -0.06672055 0.00199493
v 0.00342664 -0.06819560 0.00321662
v 0.01308666 -0.06030181 -0.00130570
v 0.00922695 -0.06035808 -0.00127423
v 0.00577711 -0.06149444 -0.00125186
v 0.00420673 -0.06196552 -0.00094292
v 0.00316737 -0.06112484 -0.00059422
v 0.00296470 -0.05883118 0.00037568
v 0.00326587 -0.05692586 0.00130416
v 0.00805059 -0.06819560 0.00335991
v 0.00725125 -0.06819560 0.00319592
v 0.00752864 -0.06670400 0.00179201
v 0.01060825 -0.06474131 0.00053387
v 0.01308666 -0.06329384 -0.00002355
v 0.00221518 -0.05692586 0.00294495
v 0.00190948 -0.05853109 0.00216804
v 0.00173172 -0.06098473 0.00076745
v 0.00264542 -0.06253591 -0.00018506
v 0.00265787 -0.06417534 0.00042289
v 0.00373460 -0.06819560 0.00312634
v 0.00427354 -0.06509104 0.00051979
v 0.00423730 -0.06718060 0.00204546
v 0.01308666 -0.06045517 -0.00129742
v 0.00438223 -0.06326405 -0.00050725
v 0.01024934 -0.06137528 -0.00123198
v 0.00759770 -0.06292976 -0.00069941
v 0.00225820 -0.06100900 0.00013548
v 0.00231481 -0.05814606 0.00133646
v 0.00311076 -0.05692586 0.00143254
v 0.00602280 -0.06819560 0.00305014
v 0.00472755 -0.06819560 0.00298140
v 0.00693083 -0.06504580 0.00045850
v 0.01071921 -0.06344609 -0.00025380
v 0.01308666 -0.06296287 -0.00028528
v 0.01308666 -0.06313387 -0.00017926
v 0.00249257 -0.05692586 0.00204877
v 0.01308666 -0.06120979 -0.00109532
f 1 2 5
f 1 5 12
f 1 12 21
f 1 21 35
f 1 35 54
f 1 54 75
f 1 75 74
f 1 74 77
f 1 77 63
f 1 63 43
f 1 43 28
f 1 28 15
f 1 15 9
f 1 9 3
f 1 3 10
f 1 10 19
f 1 19 32
f 1 32 49
f 1 49 69
f 1 69 76
f 1 76 55
f 1 55 36
f 1 36 23
f 1 23 22
f 1 22 13
f 1 13 7
f 1 7 6
f 1 6 4
f 1 4 2
f 2 4 6
f 2 6 7
f 2 7 8
f 2 8 14
f 2 14 27
f 2 27 42
f 2 42 60
f 2 60 71
f 2 71 70
f 2 70 51
f 2 51 50
f 2 50 33
f 2 33 20
f 2 20 11
f 2 11 5
f 3 9 10
f 5 11 12
f 7 13 8
f 8 13 14
f 9 15 10
f 10 15 16
f 10 16 17
f 10 17 18
f 10 18 19
f 11 20 21
f 11 21 12
f 13 22 14
f 14 22 23
f 14 23 24
f 14 24 25
f 14 25 26
f 14 26 27
f 15 28 29
f 15 29 16
f 16 29 17
f 17 30 31
f 17 31 19
f 17 19 18
f 17 29 30
f 19 31 32
f 20 33 34
f 20 34 35
f 20 35 21
f 23 36 37
f 23 37 38
f 23 38 24
f 24 38 37
f 24 37 39
f 24 39 25
f 25 39 26
f 26 39 40
f 26 40 41
f 26 41 27
f 27 41 42
f 28 43 44
f 28 44 29
f 29 44 30
f 30 45 31
f 30 44 45
f 31 45 46
f 31 46 47
f 31 47 48
f 31 48 49
f 31 49 32
f 33 50 34
f 34 50 51
f 34 51 52
f 34 52 53
f 34 53 54
f 34 54 35
f 36 55 37
f 37 55 56
f 37 56 57
f 37 57 39
f 39 57 58
f 39 58 40
f 40 58 59
f 40 59 41
f 41 60 42
f 41 59 61
f 41 61 62
f 41 62 60
f 43 63 45
f 43 45 44
f 45 64 46
f 45 63 65
f 45 65 66
f 45 66 64
f 46 64 59
f 46 59 58
f 46 58 47
f 47 58 67
f 47 67 48
f 48 67 68
f 48 68 49
f 49 68 69
f 51 70 52
f 52 70 71
f 52 71 62
f 52 62 72
f 52 72 53
f 53 73 74
f 53 74 75
f 53 75 54
f 53 72 73
f 55 76 56
f 56 76 68
f 56 68 57
f 57 68 67
f 57 67 58
f 59 64 61
f 60 62 71
f 61 64 72
f 61 72 62
f 63 77 65
f 64 66 72
f 65 77 73
f 65 73 66
f 66 73 72
f 68 76 69
f 73 77 74

