# https://github.com/mikedh/trimesh
v -0.04024166 -0.11505129 -0.02876234
v -0.03984478 -0.11689128 -0.03124068
v -0.04018782 -0.11690982 -0.02965136
v -0.04014321 -0.11367697 -0.02605180
v -0.03999861 -0.11235210 -0.02605180
v -0.03991093 -0.11181844 -0.02605180
v -0.03976171 -0.11278479 -0.02832754
v -0.03969864 -0.11475664 -0.03018421
v -0.03860798 -0.11738373 -0.03326017
v -0.03919254 -0.11860970 -0.03278282
v -0.03995708 -0.11810077 -0.03100755
v -0.03994477 -0.11490294 -0.02605180
v -0.03879873 -0.10925729 -0.02605180
v -0.03832340 -0.11143931 -0.02934145
v -0.03862337 -0.10930468 -0.02651343
v -0.03861568 -0.11492354 -0.03178833
v -0.03693738 -0.11714883 -0.03455900
v -0.03796959 -0.11865915 -0.03408443
v -0.03765731 -0.11523673 -0.03302889
v -0.03807727 -0.11958842 -0.03354787
v -0.03945712 -0.11901767 -0.03201313
v -0.03973402 -0.11492149 -0.02605180
v -0.03849107 -0.10882665 -0.02605180
v -0.03713582 -0.11198739 -0.03135354
v -0.03595594 -0.10730191 -0.02824613
v -0.03554060 -0.10859589 -0.03008060
v -0.03701122 -0.10704436 -0.02605180
v -0.03618823 -0.11768661 -0.03510296
v -0.03615900 -0.11402106 -0.03356452
v -0.03469915 -0.11420856 -0.03455345
v -0.03395769 -0.11518316 -0.03534626
v -0.03537754 -0.11925050 -0.03523247
v -0.03625745 -0.11965229 -0.03472644
v -0.03566059 -0.11972234 -0.03440174
v -0.03864183 -0.11894762 -0.03208344
v -0.03961557 -0.11489676 -0.02605180
v -0.03468069 -0.11031018 -0.03216393
v -0.03605593 -0.10609449 -0.02605180
v -0.03546061 -0.10553816 -0.02605180
v -0.03338390 -0.10497773 -0.02836547
v -0.03177330 -0.10495711 -0.02964581
v -0.03283165 -0.10803544 -0.03172173
v -0.03527448 -0.11829033 -0.03540362
v -0.03410229 -0.11673880 -0.03550260
v -0.03288241 -0.11230058 -0.03444336
v -0.03190405 -0.11615569 -0.03534811
v -0.02979965 -0.10937680 -0.03407333
v -0.03123950 -0.11241185 -0.03489389
v -0.03340390 -0.11921959 -0.03517789
v -0.03310085 -0.11819967 -0.03549890
v -0.02452942 -0.11690365 -0.03405945
v -0.02452942 -0.11645034 -0.03382263
v -0.02452942 -0.10145640 -0.02605180
v -0.03367156 -0.10410614 -0.02605180
v -0.02994271 -0.10154912 -0.02660038
v -0.02965043 -0.10243306 -0.02837750
v -0.02786138 -0.10439666 -0.03119627
v -0.02973812 -0.10649834 -0.03212137
v -0.02452942 -0.11654719 -0.03427222
v -0.02822904 -0.11146404 -0.03452848
v -0.02585851 -0.11080881 -0.03419081
v -0.02772447 -0.10744821 -0.03358117
v -0.02790292 -0.10912336 -0.03420006
v -0.02452942 -0.09867479 -0.02605180
v -0.03105952 -0.10213429 -0.02605180
v -0.02980580 -0.10122975 -0.02605180
v -0.02889051 -0.10068991 -0.02605180
v -0.02728452 -0.10011092 -0.02679373
v -0.02777524 -0.10162123 -0.02849683
v -0.02503244 -0.10183758 -0.02961620
v -0.02522165 -0.10364872 -0.03122402
v -0.02452942 -0.11018449 -0.03393364
v -0.02545855 -0.10912748 -0.03397711
v -0.02452942 -0.10872775 -0.03380782
v -0.02479401 -0.10509105 -0.03237392
v -0.02452942 -0.10658488 -0.03319819
v -0.02452942 -0.10699078 -0.03336748
v -0.02523858 -0.10759450 -0.03362373
v -0.02452942 -0.10767485 -0.03357932
v -0.02452942 -0.09889525 -0.02636448
v -0.02590774 -0.10014182 -0.02751438
v -0.02502014 -0.09883138 -0.02605180
v -0.02699686 -0.09960198 -0.02605180
v -0.02593543 -0.09914044 -0.02605180
v -0.02452942 -0.09951133 -0.02723593
v -0.02452942 -0.10086299 -0.02870406
v -0.02452942 -0.10174075 -0.02962175
v -0.02452942 -0.10303883 -0.03079941
v -0.02452942 -0.10349213 -0.03118702
v -0.02452942 -0.10487676 -0.03224256
v -0.02452942 -0.10545163 -0.03257837
v -0.02452942 -0.10503130 -0.03234432
f 1 2 3
f 1 3 4
f 1 4 5
f 1 5 6
f 1 6 7
f 1 7 8
f 1 8 2
f 2 9 10
f 2 10 11
f 2 11 3
f 2 8 9
f 3 11 12
f 3 12 4
f 4 12 22
f 4 22 36
f 4 36 53
f 4 53 64
f 4 64 82
f 4 82 84
f 4 84 83
f 4 83 67
f 4 67 66
f 4 66 65
f 4 65 54
f 4 54 39
f 4 39 38
f 4 38 27
f 4 27 23
f 4 23 13
f 4 13 6
f 4 6 5
f 6 13 7
f 7 14 8
f 7 13 15
f 7 15 14
f 8 14 16
f 8 16 9
f 9 17 18
f 9 18 10
f 9 16 19
f 9 19 17
f 10 18 20
f 10 20 21
f 10 21 11
f 11 21 12
f 12 21 22
f 13 23 15
f 14 24 16
f 14 15 25
f 14 25 26
f 14 26 24
f 15 23 27
f 15 27 25
f 16 24 19
f 17 28 18
f 17 19 29
f 17 29 30
f 17 30 31
f 17 31 28
f 18 32 33
f 18 33 20
f 18 28 32
f 19 24 29
f 20 33 34
f 20 34 21
f 21 34 35
f 21 35 22
f 22 35 36
f 24 26 37
f 24 37 29
f 25 27 38
f 25 38 39
f 25 39 40
f 25 40 26
f 26 40 41
f 26 41 42
f 26 42 37
f 28 43 32
f 28 31 44
f 28 44 43
f 29 37 30
f 30 37 45
f 30 45 31
f 31 46 44
f 31 45 47
f 31 47 48
f 31 48 46
f 32 49 33
f 32 43 50
f 32 50 49
f 33 49 34
f 34 49 51
f 34 51 35
f 35 51 36
f 36 51 52
f 36 52 53
f 37 42 45
f 39 54 40
f 40 54 55
f 40 55 56
f 40 56 41
f 41 56 57
f 41 57 58
f 41 58 42
f 42 58 47
f 42 47 45
f 43 44 50
f 44 46 50
f 46 59 50
f 46 48 60
f 46 60 61
f 46 61 59
f 47 58 62
f 47 62 63
f 47 63 48
f 48 63 60
f 49 50 59
f 49 59 51
f 51 59 72
f 51 72 74
f 51 74 79
f 51 79 77
f 51 77 76
f 51 76 91
f 51 91 92
f 51 92 90
f 51 90 89
f 51 89 88
f 51 88 87
f 51 87 86
f 51 86 85
f 51 85 80
f 51 80 64
f 51 64 53
f 51 53 52
f 54 65 55
f 55 65 66
f 55 66 67
f 55 67 68
f 55 68 56
f 56 68 69
f 56 69 57
f 57 69 70
f 57 70 71
f 57 71 62
f 57 62 58
f 59 61 72
f 60 63 73
f 60 73 61
f 61 73 74
f 61 74 72
f 62 71 75
f 62 75 76
f 62 76 77
f 62 77 78
f 62 78 63
f 63 74 73
f 63 78 79
f 63 79 74
f 64 80 81
f 64 81 82
f 67 83 68
f 68 83 84
f 68 84 81
f 68 81 69
f 69 81 70
f 70 81 85
f 70 85 86
f 70 86 87
f 70 87 88
f 70 88 71
f 71 88 89
f 71 89 90
f 71 90 75
f 75 91 76
f 75 90 92
f 75 92 91
f 77 79 78
f 80 85 81
f 81 84 82

