# https://github.com/mikedh/trimesh
v -0.02536280 -0.07629085 0.04001639
v -0.02512497 -0.07993178 0.03749768
v -0.02520098 -0.07726099 0.04016789
v -0.02521814 -0.07375000 0.04219422
v -0.02417122 -0.06990986 0.04523899
v -0.02203078 -0.08843496 0.03023613
v -0.02297963 -0.08650045 0.03197208
v -0.02485282 -0.08168727 0.03623937
v -0.02438943 -0.08181719 0.03744929
v -0.02458557 -0.07883748 0.04002270
v -0.02423741 -0.07670086 0.04215425
v -0.02507594 -0.07450071 0.04216056
v -0.02478417 -0.07164226 0.04402066
v -0.02368576 -0.06953450 0.04633737
v -0.02304093 -0.06778190 0.04731371
v -0.00121484 -0.09407969 0.03023613
v -0.02187141 -0.08925785 0.03023613
v -0.02328366 -0.08630411 0.03249603
v -0.02407069 -0.08382678 0.03525882
v -0.02330573 -0.08614242 0.03323670
v -0.02313900 -0.08529932 0.03500632
v -0.02299925 -0.08433495 0.03662444
v -0.02283498 -0.08286530 0.03860238
v -0.02337437 -0.07957086 0.04109163
v -0.02214111 -0.07625043 0.04479079
v -0.02322727 -0.07489916 0.04451935
v -0.02418348 -0.07403585 0.04381445
v -0.02411728 -0.07105324 0.04526844
v -0.02319049 -0.07142859 0.04628897
v -0.02286685 -0.06879823 0.04749678
v -0.02186405 -0.06764908 0.04860568
v -0.02222692 -0.06720443 0.04802072
v -0.00083236 -0.09420673 0.03023613
v -0.02118245 -0.09006919 0.03023613
v -0.02201852 -0.08899221 0.03054124
v -0.02231274 -0.08743595 0.03304101
v -0.02121187 -0.08773623 0.03412256
v -0.02198910 -0.08459770 0.03763445
v -0.02028999 -0.08365643 0.04037200
v -0.02185425 -0.08083551 0.04164924
v -0.02145215 -0.07888079 0.04360403
v -0.02044445 -0.07597325 0.04638997
v -0.02222938 -0.07344106 0.04628476
v -0.01980943 -0.07825135 0.04540522
v -0.02163113 -0.07042091 0.04817433
v -0.01994918 -0.06978570 0.04960728
v -0.02012572 -0.06745851 0.04989976
v -0.02017475 -0.06642196 0.04973353
v -0.00031502 -0.09453011 0.03023613
v -0.01571735 -0.06693880 0.05146948
v -0.01902485 -0.08901243 0.03450342
v -0.02120942 -0.09002299 0.03028242
v -0.01906408 -0.09144355 0.03023613
v -0.01899788 -0.09132517 0.03053913
v -0.01998351 -0.08622038 0.03770179
v -0.01847564 -0.08420213 0.04133993
v -0.01853203 -0.08113579 0.04405433
v -0.01851487 -0.07444008 0.04850679
v -0.02004481 -0.07307725 0.04823114
v -0.01684763 -0.07899628 0.04660881
v -0.01788230 -0.07175775 0.05004915
v -0.01843151 -0.06974816 0.05048472
v -0.01809806 -0.06748450 0.05096027
v -0.01857372 -0.06630358 0.05073301
v -0.00031502 -0.09432511 0.03089895
v -0.00031502 -0.09566195 0.03023613
v -0.01222351 -0.06929196 0.05140846
v -0.00972755 -0.07244204 0.05047631
v -0.00795734 -0.07552282 0.04918644
v -0.01558250 -0.06760576 0.05168832
v -0.01422419 -0.06793492 0.05172829
v -0.01655587 -0.08866306 0.03708526
v -0.01823046 -0.08669101 0.03857081
v -0.01551139 -0.09110863 0.03388900
v -0.01890716 -0.09153883 0.03023613
v -0.01567076 -0.08240333 0.04449621
v -0.01527847 -0.08786615 0.03908634
v -0.01539126 -0.08597206 0.04123682
v -0.01620281 -0.07609452 0.04864145
v -0.01446202 -0.07668642 0.04905808
v -0.01402069 -0.08082396 0.04649729
v -0.01481753 -0.07335444 0.05050576
v -0.01592575 -0.07023323 0.05119594
v -0.01695797 -0.06843442 0.05127379
v -0.00031502 -0.09421828 0.03231717
v -0.00654755 -0.07844480 0.04765459
v -0.00545158 -0.08099142 0.04629318
v -0.00031502 -0.09515088 0.03116408
v -0.00054549 -0.09484194 0.03202048
v -0.00035670 -0.09569082 0.03023613
v -0.01263786 -0.07025056 0.05157890
v -0.01081861 -0.07150366 0.05110756
v -0.00902879 -0.07431303 0.05011438
v -0.00778326 -0.07716571 0.04887502
v -0.01442034 -0.07057394 0.05144844
v -0.01394713 -0.09040989 0.03624990
v -0.01536183 -0.09312976 0.03023613
v -0.01506026 -0.09324814 0.03023613
v -0.01359407 -0.09233863 0.03298841
v -0.01258147 -0.08384988 0.04445833
v -0.01274819 -0.08647446 0.04178391
v -0.01259373 -0.08884207 0.03905267
v -0.01199549 -0.07879417 0.04826901
v -0.01273103 -0.07500888 0.05015226
v -0.01050233 -0.08186918 0.04650991
v -0.01286343 -0.07277408 0.05097921
v -0.00031502 -0.09430779 0.03226246
v -0.00445614 -0.08353227 0.04417637
v -0.00297525 -0.08749080 0.04119263
v -0.00111922 -0.09237905 0.03533879
v -0.00491709 -0.08275558 0.04524319
v -0.00679763 -0.07972677 0.04757042
v -0.00031502 -0.09452433 0.03200785
v -0.00124917 -0.09523462 0.03156387
v -0.00075390 -0.09578610 0.03023613
v -0.00078332 -0.09372455 0.03371646
v -0.00140363 -0.09383715 0.03397737
v -0.01000461 -0.07465951 0.05027220
v -0.01010268 -0.07691164 0.04940738
v -0.00889394 -0.07933699 0.04819326
v -0.01151003 -0.09037524 0.03725780
v -0.01069602 -0.09210186 0.03468438
v -0.01230687 -0.09398441 0.03023613
v -0.00948237 -0.09381406 0.03181848
v -0.00944069 -0.08490665 0.04428579
v -0.00906802 -0.08849560 0.04063502
v -0.00896014 -0.08696819 0.04235414
v -0.00835454 -0.08481425 0.04449621
v -0.00781023 -0.08212325 0.04646783
v -0.00456648 -0.08508277 0.04384601
v -0.00274232 -0.08910771 0.04006058
v -0.00197490 -0.09085743 0.03798585
v -0.00182534 -0.09054848 0.03760499
v -0.00601550 -0.08279889 0.04580922
v -0.00148699 -0.09579765 0.03023613
v -0.00238926 -0.09277750 0.03567756
v -0.00265161 -0.09467159 0.03231086
v -0.00954612 -0.09454454 0.03023613
v -0.00156300 -0.09245123 0.03585852
v -0.00783965 -0.08991038 0.03902321
v -0.00513285 -0.09176116 0.03680330
v -0.01123052 -0.09421828 0.03023613
v -0.00556927 -0.08916834 0.04032991
v -0.00447576 -0.08867750 0.04087700
v -0.00664562 -0.08464678 0.04463298
v -0.00447086 -0.08719919 0.04221527
v -0.00317630 -0.09082566 0.03836881
f 1 2 3
f 1 3 4
f 1 4 5
f 1 5 6
f 1 6 7
f 1 7 2
f 2 8 9
f 2 9 3
f 2 7 8
f 3 9 10
f 3 10 11
f 3 11 12
f 3 12 4
f 4 12 13
f 4 13 5
f 5 13 14
f 5 14 15
f 5 15 16
f 5 16 6
f 6 17 18
f 6 18 7
f 6 16 33
f 6 33 49
f 6 49 66
f 6 66 90
f 6 90 115
f 6 115 135
f 6 135 138
f 6 138 142
f 6 142 123
f 6 123 98
f 6 98 97
f 6 97 75
f 6 75 53
f 6 53 34
f 6 34 17
f 7 18 8
f 8 19 9
f 8 18 20
f 8 20 19
f 9 19 21
f 9 21 22
f 9 22 23
f 9 23 24
f 9 24 10
f 10 24 11
f 11 24 25
f 11 25 26
f 11 26 27
f 11 27 12
f 12 27 13
f 13 28 14
f 13 27 28
f 14 28 29
f 14 29 30
f 14 30 15
f 15 30 31
f 15 31 32
f 15 32 16
f 16 32 33
f 17 34 35
f 17 35 18
f 18 35 20
f 19 20 21
f 20 36 21
f 20 35 36
f 21 36 22
f 22 36 37
f 22 37 38
f 22 38 23
f 23 38 39
f 23 39 40
f 23 40 24
f 24 40 41
f 24 41 25
f 25 42 43
f 25 43 26
f 25 41 44
f 25 44 42
f 26 43 29
f 26 29 27
f 27 29 28
f 29 45 30
f 29 43 45
f 30 45 31
f 31 45 46
f 31 46 47
f 31 47 48
f 31 48 32
f 32 48 33
f 33 48 50
f 33 50 49
f 34 51 37
f 34 37 52
f 34 52 35
f 34 53 54
f 34 54 51
f 35 52 36
f 36 52 37
f 37 55 38
f 37 51 55
f 38 55 39
f 39 56 57
f 39 57 40
f 39 55 56
f 40 57 41
f 41 57 44
f 42 58 59
f 42 59 43
f 42 44 58
f 43 59 45
f 44 57 60
f 44 60 58
f 45 59 46
f 46 59 61
f 46 61 62
f 46 62 47
f 47 63 64
f 47 64 48
f 47 62 63
f 48 64 50
f 49 65 85
f 49 85 107
f 49 107 113
f 49 113 88
f 49 88 66
f 49 50 67
f 49 67 68
f 49 68 69
f 49 69 65
f 50 64 70
f 50 70 71
f 50 71 67
f 51 72 73
f 51 73 55
f 51 54 74
f 51 74 72
f 53 75 54
f 54 75 74
f 55 73 56
f 56 76 57
f 56 73 77
f 56 77 78
f 56 78 76
f 57 76 60
f 58 61 59
f 58 60 79
f 58 79 80
f 58 80 61
f 60 81 80
f 60 80 79
f 60 76 81
f 61 82 83
f 61 83 62
f 61 80 82
f 62 83 84
f 62 84 63
f 63 84 70
f 63 70 64
f 65 69 86
f 65 86 87
f 65 87 85
f 66 88 89
f 66 89 90
f 67 71 91
f 67 91 92
f 67 92 68
f 68 92 93
f 68 93 69
f 69 93 94
f 69 94 86
f 70 84 83
f 70 83 95
f 70 95 91
f 70 91 71
f 72 74 96
f 72 96 77
f 72 77 73
f 74 75 97
f 74 97 98
f 74 98 99
f 74 99 96
f 76 78 100
f 76 100 81
f 77 101 78
f 77 96 102
f 77 102 101
f 78 101 100
f 80 81 103
f 80 103 104
f 80 104 82
f 81 100 105
f 81 105 103
f 82 104 106
f 82 106 95
f 82 95 83
f 85 87 108
f 85 108 109
f 85 109 110
f 85 110 107
f 86 94 87
f 87 111 109
f 87 109 108
f 87 94 112
f 87 112 111
f 88 113 89
f 89 114 115
f 89 115 90
f 89 113 107
f 89 107 116
f 89 116 117
f 89 117 114
f 91 95 106
f 91 106 118
f 91 118 92
f 92 118 93
f 93 118 94
f 94 119 120
f 94 120 112
f 94 118 119
f 96 121 102
f 96 99 122
f 96 122 121
f 98 123 99
f 99 123 124
f 99 124 122
f 100 101 125
f 100 125 105
f 101 102 126
f 101 126 127
f 101 127 125
f 102 121 126
f 103 119 104
f 103 105 120
f 103 120 119
f 104 118 106
f 104 119 118
f 105 125 128
f 105 128 129
f 105 129 120
f 107 110 116
f 109 130 131
f 109 131 132
f 109 132 133
f 109 133 110
f 109 111 130
f 110 132 116
f 110 133 132
f 111 112 134
f 111 134 130
f 112 120 134
f 114 135 115
f 114 117 136
f 114 136 137
f 114 137 138
f 114 138 135
f 116 132 139
f 116 139 117
f 117 139 136
f 120 129 134
f 121 140 126
f 121 122 141
f 121 141 140
f 122 124 137
f 122 137 141
f 123 142 124
f 124 142 138
f 124 138 137
f 125 127 128
f 126 140 143
f 126 143 127
f 127 143 144
f 127 144 128
f 128 144 145
f 128 145 129
f 129 145 134
f 130 145 146
f 130 146 131
f 130 134 145
f 131 146 144
f 131 144 147
f 131 147 132
f 132 147 139
f 136 139 147
f 136 147 141
f 136 141 137
f 140 141 147
f 140 147 143
f 143 147 144
f 144 146 145

