# https://github.com/mikedh/trimesh
v -0.01029144 -0.09071052 -0.00303709
v -0.02978353 -0.08092246 -0.00986011
v -0.03020462 -0.08092246 -0.00925496
v -0.03045817 -0.08092246 -0.00900904
v -0.03080002 -0.08092246 -0.00873660
v -0.03157427 -0.08092246 -0.00829540
v -0.03017519 -0.08400635 -0.00569397
v -0.02883044 -0.08522687 -0.00485014
v -0.02758982 -0.08698510 -0.00369770
v -0.02663673 -0.08841457 -0.00303709
v -0.01029144 -0.09323940 -0.00303709
v -0.01029144 -0.09045231 -0.01211436
v -0.02923794 -0.08092246 -0.01307874
v -0.02946432 -0.08092246 -0.01155019
v -0.03181424 -0.08092246 -0.00828816
v -0.02890061 -0.08626503 -0.00452707
v -0.03244361 -0.08092246 -0.00837014
v -0.03199762 -0.08203782 -0.00764444
v -0.03063476 -0.08417405 -0.00627983
v -0.02704649 -0.08800995 -0.00322033
v -0.02537800 -0.09024069 -0.00303709
v -0.01440493 -0.09349361 -0.00303709
v -0.01532859 -0.09451980 -0.00497792
v -0.01403818 -0.09451980 -0.00580970
v -0.01029144 -0.09451980 -0.01589474
v -0.01029144 -0.09044299 -0.01311250
v -0.02925378 -0.08092246 -0.01493759
v -0.02627677 -0.08931165 -0.00341079
v -0.02878968 -0.08665635 -0.00528170
v -0.03298015 -0.08092246 -0.00885956
v -0.03243455 -0.08203384 -0.00856060
v -0.02231270 -0.09451980 -0.00432937
v -0.02451320 -0.09117370 -0.00303709
v -0.02072797 -0.09347898 -0.00303709
v -0.01834862 -0.09451980 -0.00464038
v -0.01029144 -0.09451980 -0.02765782
v -0.01029144 -0.09058540 -0.01446505
v -0.02928548 -0.08092246 -0.01522691
v -0.03337406 -0.08092246 -0.00987458
v -0.03339896 -0.08092246 -0.01015184
v -0.03166483 -0.08313323 -0.00895600
v -0.02265907 -0.09451980 -0.01470132
v -0.02233986 -0.09330727 -0.00303709
v -0.02247796 -0.09317683 -0.00303709
v -0.01030955 -0.09451980 -0.02766505
v -0.03028838 -0.08092246 -0.01646132
v -0.02988541 -0.08092246 -0.01624916
v -0.02975184 -0.08092246 -0.01616959
v -0.01029144 -0.09434412 -0.02728894
v -0.01029144 -0.09112446 -0.01744258
v -0.01029144 -0.09135471 -0.01854921
v -0.01029144 -0.09177398 -0.02050932
v -0.01029144 -0.09191374 -0.02112894
v -0.02965902 -0.08092246 -0.01606592
v -0.03341934 -0.08092246 -0.01189496
v -0.03339217 -0.08092246 -0.01298230
v -0.03336500 -0.08092246 -0.01359951
v -0.02217913 -0.09451980 -0.01679403
v -0.03191838 -0.08092246 -0.01608280
v -0.03122563 -0.08092246 -0.01643962
v -0.03105131 -0.08092246 -0.01650231
v -0.03074795 -0.08092246 -0.01650231
v -0.01100909 -0.09451980 -0.02706231
v -0.03224212 -0.08092246 -0.01583206
v -0.01029144 -0.09277754 -0.02372796
v -0.01029144 -0.09387294 -0.02624018
v -0.01029144 -0.09217860 -0.02207163
v -0.03292581 -0.08092246 -0.01491107
v -0.02121697 -0.09451980 -0.01809836
v -0.03284205 -0.08092246 -0.01514252
f 1 2 3
f 1 3 4
f 1 4 5
f 1 5 6
f 1 6 7
f 1 7 8
f 1 8 9
f 1 9 10
f 1 10 21
f 1 21 33
f 1 33 44
f 1 44 43
f 1 43 34
f 1 34 22
f 1 22 11
f 1 11 25
f 1 25 36
f 1 36 49
f 1 49 66
f 1 66 65
f 1 65 67
f 1 67 53
f 1 53 52
f 1 52 51
f 1 51 50
f 1 50 37
f 1 37 26
f 1 26 12
f 1 12 13
f 1 13 14
f 1 14 2
f 2 14 13
f 2 13 27
f 2 27 38
f 2 38 54
f 2 54 48
f 2 48 47
f 2 47 46
f 2 46 62
f 2 62 61
f 2 61 60
f 2 60 59
f 2 59 64
f 2 64 70
f 2 70 68
f 2 68 57
f 2 57 56
f 2 56 55
f 2 55 40
f 2 40 39
f 2 39 30
f 2 30 17
f 2 17 15
f 2 15 6
f 2 6 5
f 2 5 4
f 2 4 3
f 6 15 7
f 7 16 9
f 7 9 8
f 7 15 17
f 7 17 18
f 7 18 19
f 7 19 16
f 9 16 20
f 9 20 10
f 10 20 21
f 11 22 23
f 11 23 24
f 11 24 25
f 12 26 13
f 13 26 27
f 16 28 20
f 16 19 29
f 16 29 28
f 17 30 18
f 18 30 19
f 19 30 31
f 19 31 29
f 20 28 21
f 21 28 32
f 21 32 33
f 22 34 32
f 22 32 35
f 22 35 23
f 23 35 32
f 23 32 42
f 23 42 58
f 23 58 69
f 23 69 63
f 23 63 45
f 23 45 36
f 23 36 25
f 23 25 24
f 26 37 38
f 26 38 27
f 28 29 32
f 29 31 39
f 29 39 40
f 29 40 41
f 29 41 42
f 29 42 32
f 30 39 31
f 32 34 43
f 32 43 44
f 32 44 33
f 36 45 46
f 36 46 47
f 36 47 48
f 36 48 49
f 37 50 38
f 38 50 51
f 38 51 52
f 38 52 53
f 38 53 54
f 40 55 41
f 41 55 42
f 42 55 56
f 42 56 57
f 42 57 58
f 45 59 60
f 45 60 61
f 45 61 62
f 45 62 46
f 45 63 64
f 45 64 59
f 48 54 65
f 48 65 66
f 48 66 49
f 53 67 54
f 54 67 65
f 57 68 58
f 58 68 70
f 58 70 69
f 63 69 64
f 64 69 70

