# https://github.com/mikedh/trimesh
v 0.01796332 -0.09451980 0.00615307
v 0.02807517 -0.10571749 0.01502490
v 0.02823107 -0.10578848 0.01502490
v 0.03766302 -0.11034500 0.01502490
v 0.03820001 -0.11064188 0.01502490
v 0.03950784 -0.11156911 0.01502490
v 0.03997554 -0.11192623 0.01502490
v 0.03977200 -0.11175842 0.01483164
v 0.03894486 -0.11168958 0.01275712
v 0.03711737 -0.11023743 0.01206964
v 0.01778576 -0.09451980 0.00572226
v 0.00434804 -0.09451980 0.01374758
v 0.00382838 -0.09506194 0.01502490
v 0.04175107 -0.11383016 0.01502490
v 0.04172941 -0.11390330 0.01467059
v 0.03930430 -0.11285131 0.01155327
v 0.03747248 -0.11120768 0.01086378
v 0.01678541 -0.09451980 0.00475495
v 0.02477095 -0.10243455 0.00474287
v 0.00151586 -0.09451980 0.01488298
v 0.00142059 -0.09456929 0.01502490
v 0.04190264 -0.11402163 0.01502490
v 0.04083732 -0.11415286 0.01279436
v 0.04205421 -0.11422816 0.01502490
v 0.04236601 -0.11517904 0.01435554
v 0.03329349 -0.11231992 0.00474287
v 0.03299035 -0.11188965 0.00474287
v 0.03147465 -0.10996637 0.00474287
v 0.02597918 -0.10370814 0.00474287
v 0.02390917 -0.10160629 0.00474287
v 0.01960460 -0.09776186 0.00474287
v 0.01871683 -0.09698093 0.00474287
v 0.01817984 -0.09667113 0.00474287
v 0.01473272 -0.09451980 0.00474690
v -0.00001716 -0.09451980 0.01502490
v 0.04271678 -0.11534899 0.01502490
v 0.04289867 -0.11575130 0.01502490
v 0.04218412 -0.11557273 0.01413410
v 0.03327617 -0.11239953 0.00474287
v 0.01800662 -0.09662165 0.00474287
v -0.00134231 -0.10356400 0.00474287
v 0.01384063 -0.09451980 0.00478314
v -0.00134231 -0.09451980 0.01502490
v 0.04289434 -0.11603743 0.01502490
v 0.04269946 -0.11620738 0.01502490
v 0.02658979 -0.11649565 0.00474287
v -0.00134231 -0.10597780 0.00474287
v -0.00134231 -0.09451980 0.00962369
v 0.00669954 -0.09451980 0.00555114
v 0.00925890 -0.09451980 0.00503176
v -0.00134231 -0.11094092 0.01502490
v 0.04226641 -0.11640745 0.01502490
v 0.04156052 -0.11647414 0.01502490
v 0.02649884 -0.11649565 0.01230517
v 0.01952665 -0.11649565 0.00474287
v 0.00095722 -0.11649565 0.01305808
v 0.00077533 -0.11649565 0.01329563
v -0.00134231 -0.11181220 0.01246220
v 0.00074502 -0.11649565 0.01502490
v 0.02539888 -0.11649565 0.01502490
v 0.02633861 -0.11649565 0.01430320
v 0.02645987 -0.11649565 0.01392876
v 0.00071471 -0.11649565 0.01370329
f 1 2 3
f 1 3 4
f 1 4 5
f 1 5 6
f 1 6 7
f 1 7 8
f 1 8 9
f 1 9 10
f 1 10 11
f 1 11 18
f 1 18 34
f 1 34 42
f 1 42 50
f 1 50 49
f 1 49 48
f 1 48 43
f 1 43 35
f 1 35 20
f 1 20 12
f 1 12 13
f 1 13 2
f 2 13 21
f 2 21 35
f 2 35 43
f 2 43 51
f 2 51 59
f 2 59 60
f 2 60 53
f 2 53 52
f 2 52 45
f 2 45 44
f 2 44 37
f 2 37 36
f 2 36 24
f 2 24 22
f 2 22 14
f 2 14 7
f 2 7 6
f 2 6 5
f 2 5 4
f 2 4 3
f 7 14 8
f 8 14 15
f 8 15 9
f 9 15 16
f 9 16 17
f 9 17 10
f 10 17 11
f 11 17 19
f 11 19 18
f 12 20 21
f 12 21 13
f 14 22 15
f 15 23 16
f 15 22 24
f 15 24 25
f 15 25 23
f 16 23 26
f 16 26 27
f 16 27 17
f 17 27 28
f 17 28 29
f 17 29 19
f 18 19 30
f 18 30 31
f 18 31 32
f 18 32 33
f 18 33 34
f 19 29 28
f 19 28 27
f 19 27 26
f 19 26 39
f 19 39 46
f 19 46 55
f 19 55 47
f 19 47 41
f 19 41 40
f 19 40 33
f 19 33 32
f 19 32 31
f 19 31 30
f 20 35 21
f 23 25 26
f 24 36 25
f 25 36 37
f 25 37 38
f 25 38 26
f 26 38 39
f 33 40 34
f 34 41 42
f 34 40 41
f 37 44 38
f 38 44 39
f 39 44 45
f 39 45 46
f 41 47 58
f 41 58 51
f 41 51 43
f 41 43 48
f 41 48 49
f 41 49 50
f 41 50 42
f 45 52 46
f 46 52 53
f 46 53 54
f 46 54 62
f 46 62 61
f 46 61 60
f 46 60 59
f 46 59 63
f 46 63 57
f 46 57 56
f 46 56 55
f 47 56 57
f 47 57 58
f 47 55 56
f 51 58 59
f 53 60 61
f 53 61 62
f 53 62 54
f 57 63 58
f 58 63 59

