# https://github.com/mikedh/trimesh
v 0.00406650 -0.00532439 0.06748608
v 0.00291732 -0.00532439 0.06733641
v 0.00579936 -0.00532439 0.06725130
v 0.00546062 0.00988522 0.05965345
v 0.00406650 0.00851889 0.06046635
v 0.00246801 -0.00532439 0.06707816
v 0.00275076 0.00982857 0.05960650
v 0.00218107 0.00851889 0.06000854
v 0.00651462 -0.00532439 0.06657927
v 0.00789195 0.00694927 0.05942455
v 0.00603871 0.00851889 0.06005257
v 0.00406650 0.00987855 0.05964758
v 0.00733346 0.00851889 0.05887283
v 0.00568458 0.02830404 0.04685537
v 0.00406650 0.02872061 0.04675265
v 0.00027464 0.00682264 0.05938639
v 0.00173036 -0.00532439 0.06608625
v 0.00299571 0.02872061 0.04658832
v 0.00250580 0.02825406 0.04681722
v 0.00088492 0.00851889 0.05879946
v 0.00690234 -0.00532439 0.06617428
v 0.00787095 -0.00532439 0.06506205
v 0.00804452 -0.00532439 0.06478912
v 0.01347125 -0.00532439 0.04720753
v 0.00798713 0.00990855 0.05707388
v 0.00790174 0.02506484 0.04632713
v 0.00667978 0.02872061 0.04538804
v 0.00639004 0.02872061 0.04577248
v 0.00602891 0.02872061 0.04618040
v 0.00010388 0.00509306 0.05971508
v 0.00193192 0.02872061 0.04594269
v 0.00133283 0.02872061 0.04532640
v 0.00019626 0.02872061 0.04399700
v 0.00011227 0.02822739 0.04417308
v 0.00016966 0.00982857 0.05701518
v 0.00002969 0.00851889 0.05750234
v 0.00071416 -0.00444794 0.06348613
v 0.00068616 -0.00532439 0.06348613
v 0.01347125 -0.00532439 0.04597497
v 0.00800812 0.02872061 0.04233305
v 0.00798433 0.02872061 0.04288477
v 0.00795073 0.02793080 0.04397353
v 0.00801792 0.02042264 0.04937038
v 0.00783596 0.02872061 0.04365364
v 0.00771978 0.02872061 0.04388842
v 0.00759520 0.02690772 0.04541151
v -0.00008649 0.00594285 0.05843263
v 0.00009408 0.00333016 0.05975616
v 0.00005908 0.02872061 0.04340420
v -0.00075136 -0.00532439 0.04408211
v -0.00005989 0.00333016 0.05829763
v 0.01345865 -0.00532439 0.04579595
v 0.00800252 0.02872061 0.04123254
v 0.00800812 0.02872061 0.04159058
v -0.00082834 -0.00532439 0.04277911
v 0.00001289 0.02872061 0.04271162
v -0.00010888 0.00851889 0.05570632
v 0.01315351 -0.00532439 0.04526478
v 0.01164041 -0.00185524 0.04274096
v 0.01071939 0.00073746 0.04125896
v 0.00764279 0.02872061 0.04039910
v -0.00012708 -0.00532439 0.04108582
v 0.00003949 0.02872061 0.04060746
v 0.01173559 -0.00532439 0.04327214
v 0.01153263 -0.00421133 0.04268520
v 0.01068720 -0.00185524 0.04131178
v 0.00803752 0.00592286 0.03876449
v 0.00802072 0.00851889 0.03876742
v 0.00797453 0.00998853 0.03882319
v 0.00627106 0.02872061 0.03862657
v -0.00001230 -0.00532439 0.04095669
v 0.00066516 0.02872061 0.03944240
v 0.00573637 -0.00532439 0.03836538
v 0.01056962 -0.00318825 0.04142917
v 0.00799553 0.00441323 0.03881732
v 0.00665739 0.00851889 0.03803670
v 0.00686735 0.01095496 0.03810419
v 0.00640544 0.01370095 0.03789583
v 0.00597012 0.02872061 0.03832136
v 0.00161978 -0.00532439 0.03929567
v 0.00074775 0.02872061 0.03936904
v 0.00242042 -0.00532439 0.03851211
v 0.00402171 -0.00532439 0.03804550
v 0.00406650 0.01370095 0.03750846
v 0.00459979 0.02872061 0.03783127
v 0.00187453 0.02872061 0.03837418
v 0.00253100 -0.00532439 0.03844755
v 0.00226505 0.01629365 0.03831255
v 0.00406650 0.02872061 0.03775790
f 1 2 6
f 1 6 17
f 1 17 38
f 1 38 50
f 1 50 55
f 1 55 62
f 1 62 71
f 1 71 80
f 1 80 82
f 1 82 87
f 1 87 83
f 1 83 73
f 1 73 64
f 1 64 58
f 1 58 52
f 1 52 39
f 1 39 24
f 1 24 23
f 1 23 22
f 1 22 21
f 1 21 9
f 1 9 3
f 1 3 4
f 1 4 5
f 1 5 2
f 2 5 7
f 2 7 8
f 2 8 6
f 3 9 10
f 3 10 11
f 3 11 4
f 4 12 5
f 4 11 13
f 4 13 14
f 4 14 15
f 4 15 12
f 5 12 7
f 6 16 17
f 6 8 16
f 7 12 15
f 7 15 18
f 7 18 19
f 7 19 8
f 8 19 20
f 8 20 16
f 9 21 10
f 10 21 22
f 10 22 23
f 10 23 24
f 10 24 25
f 10 25 26
f 10 26 27
f 10 27 28
f 10 28 29
f 10 29 14
f 10 14 13
f 10 13 11
f 14 29 15
f 15 29 28
f 15 28 27
f 15 27 45
f 15 45 44
f 15 44 41
f 15 41 40
f 15 40 54
f 15 54 53
f 15 53 61
f 15 61 70
f 15 70 79
f 15 79 85
f 15 85 89
f 15 89 86
f 15 86 81
f 15 81 72
f 15 72 63
f 15 63 56
f 15 56 49
f 15 49 33
f 15 33 32
f 15 32 31
f 15 31 18
f 16 30 17
f 16 20 19
f 16 19 31
f 16 31 32
f 16 32 33
f 16 33 34
f 16 34 35
f 16 35 36
f 16 36 30
f 17 37 38
f 17 30 37
f 18 31 19
f 24 39 54
f 24 54 40
f 24 40 41
f 24 41 42
f 24 42 43
f 24 43 25
f 25 43 26
f 26 43 42
f 26 42 44
f 26 44 45
f 26 45 46
f 26 46 27
f 27 46 45
f 30 36 47
f 30 47 48
f 30 48 38
f 30 38 37
f 33 49 34
f 34 49 47
f 34 47 36
f 34 36 35
f 38 48 51
f 38 51 50
f 39 52 53
f 39 53 54
f 41 44 42
f 47 55 51
f 47 51 48
f 47 49 56
f 47 56 57
f 47 57 55
f 50 51 55
f 52 58 59
f 52 59 60
f 52 60 61
f 52 61 53
f 55 57 56
f 55 56 63
f 55 63 62
f 58 64 65
f 58 65 59
f 59 66 60
f 59 65 66
f 60 66 67
f 60 67 68
f 60 68 69
f 60 69 70
f 60 70 61
f 62 63 72
f 62 72 71
f 64 73 74
f 64 74 65
f 65 74 66
f 66 75 67
f 66 74 73
f 66 73 75
f 67 75 76
f 67 76 77
f 67 77 68
f 68 77 78
f 68 78 79
f 68 79 69
f 69 79 70
f 71 72 80
f 72 81 82
f 72 82 80
f 73 83 76
f 73 76 75
f 76 83 84
f 76 84 78
f 76 78 77
f 78 84 85
f 78 85 79
f 81 86 82
f 82 86 88
f 82 88 87
f 83 87 84
f 84 88 86
f 84 86 89
f 84 89 85
f 84 87 88

