# https://github.com/mikedh/trimesh
v -0.03795350 -0.11805037 -0.01125867
v -0.03589014 -0.11745925 -0.01037527
v -0.03880326 -0.11739837 -0.01040363
v -0.03995140 -0.11803467 -0.01140482
v -0.03973486 -0.11492193 -0.02605180
v -0.03961527 -0.11489639 -0.02605180
v -0.03454939 -0.11645768 -0.01032074
v -0.03455317 -0.11661675 -0.00972745
v -0.03693755 -0.11586066 -0.00916905
v -0.03937355 -0.11473340 -0.00848196
v -0.04034922 -0.11662657 -0.01006990
v -0.04078102 -0.11682099 -0.01156186
v -0.04047762 -0.11745139 -0.01260667
v -0.03994384 -0.11490230 -0.02605180
v -0.02832154 -0.10264970 -0.02605180
v -0.03157457 -0.11398517 -0.00938499
v -0.03272648 -0.11532649 -0.00916905
v -0.03137063 -0.11373182 -0.00770326
v -0.03050198 -0.11234337 -0.00666499
v -0.03775459 -0.11266151 -0.00725829
v -0.03757205 -0.11160888 -0.00687657
v -0.03929047 -0.11393214 -0.00822021
v -0.04032152 -0.11545414 -0.00969037
v -0.04095475 -0.11574479 -0.01260667
v -0.04087670 -0.11640465 -0.01260667
v -0.04057959 -0.11733749 -0.01284007
v -0.04014401 -0.11367487 -0.02605180
v -0.04101644 -0.11578800 -0.01415753
v -0.02832154 -0.10036179 -0.02605180
v -0.02824978 -0.10215087 -0.01260667
v -0.02824978 -0.10556409 -0.00593428
v -0.03013689 -0.11217447 -0.00826384
v -0.03078901 -0.11355704 -0.00833364
v -0.03059136 -0.11300716 -0.00731718
v -0.03012305 -0.11205468 -0.00720376
v -0.02824978 -0.10507312 -0.00431362
v -0.02824978 -0.10438970 -0.00389265
v -0.03035091 -0.11017133 -0.00583176
v -0.03112262 -0.10746315 -0.00469098
v -0.03653722 -0.11006528 -0.00647305
v -0.03828963 -0.11186811 -0.00821803
v -0.03407604 -0.10847061 -0.00544350
v -0.03265724 -0.10675812 -0.00485893
v -0.03972983 -0.11343528 -0.01036000
v -0.04051161 -0.11367095 -0.01260667
v -0.04073822 -0.11373968 -0.01325886
v -0.04060729 -0.11490425 -0.01135465
v -0.04110960 -0.11477660 -0.01354679
v -0.03999798 -0.11235122 -0.02605180
v -0.04100511 -0.11382805 -0.01610974
v -0.04075459 -0.11180134 -0.01860071
v -0.02889057 -0.10068975 -0.02605180
v -0.02832154 -0.10022432 -0.02575297
v -0.02824978 -0.09940146 -0.01260667
v -0.02977055 -0.11085279 -0.00711433
v -0.02824978 -0.10394979 -0.00376832
v -0.03041511 -0.10569763 -0.00428745
v -0.03454436 -0.10779112 -0.00582086
v -0.03896315 -0.10779504 -0.01966079
v -0.04019814 -0.10989835 -0.01928343
v -0.04032655 -0.11143409 -0.01631695
v -0.03191322 -0.10556212 -0.00478477
v -0.04081376 -0.11256332 -0.01622316
v -0.03991111 -0.11181705 -0.02605180
v -0.03994007 -0.11162851 -0.02560028
v -0.03959009 -0.10949183 -0.02390547
v -0.02980706 -0.10122982 -0.02605180
v -0.02832154 -0.09954874 -0.02420648
v -0.02824978 -0.09961551 -0.01179962
v -0.02832154 -0.09918150 -0.02321183
v -0.02832154 -0.09861983 -0.02109604
v -0.02832154 -0.09840774 -0.02017556
v -0.02832154 -0.09831937 -0.01971313
v -0.02832154 -0.09800514 -0.01795724
v -0.02832154 -0.09798747 -0.01772603
v -0.02832154 -0.09835079 -0.01610974
v -0.02824978 -0.10312299 -0.00391664
v -0.03203030 -0.10507312 -0.00567035
v -0.03391993 -0.10691327 -0.00624620
v -0.03727746 -0.10573101 -0.01952991
v -0.03800889 -0.10628482 -0.02126399
v -0.03904498 -0.10754759 -0.02193799
v -0.03007898 -0.10347060 -0.00523629
v -0.02824978 -0.10263596 -0.00414785
v -0.03879949 -0.10925616 -0.02605180
v -0.03921493 -0.10914619 -0.02496118
v -0.03106094 -0.10213516 -0.02605180
v -0.03384188 -0.10359236 -0.02468417
v -0.02926698 -0.09996901 -0.02388583
v -0.02824978 -0.10103736 -0.00678714
v -0.02902653 -0.09884176 -0.02021046
v -0.02866019 -0.09821920 -0.01797905
v -0.03192203 -0.10082527 -0.01869232
v -0.02877726 -0.10192306 -0.00568998
v -0.02953513 -0.10214302 -0.00704453
v -0.03441972 -0.10310924 -0.01896061
v -0.03708359 -0.10539716 -0.02264253
v -0.03793335 -0.10682096 -0.02412577
v -0.02824978 -0.10150477 -0.00557874
v -0.03848979 -0.10882214 -0.02605180
v -0.03367319 -0.10410885 -0.02605180
v -0.03608904 -0.10570941 -0.02534944
v -0.03292917 -0.10227656 -0.02297408
v -0.03545959 -0.10553855 -0.02605180
v -0.02824978 -0.10133784 -0.00594519
v -0.03605631 -0.10609433 -0.02605180
v -0.03700931 -0.10704681 -0.02605180
f 1 2 3
f 1 3 4
f 1 4 5
f 1 5 6
f 1 6 2
f 2 6 7
f 2 7 8
f 2 8 9
f 2 9 3
f 3 9 10
f 3 10 11
f 3 11 4
f 4 11 12
f 4 12 13
f 4 13 14
f 4 14 5
f 5 14 27
f 5 27 49
f 5 49 64
f 5 64 85
f 5 85 100
f 5 100 107
f 5 107 106
f 5 106 104
f 5 104 101
f 5 101 87
f 5 87 67
f 5 67 52
f 5 52 29
f 5 29 15
f 5 15 6
f 6 15 16
f 6 16 17
f 6 17 7
f 7 17 8
f 8 17 18
f 8 18 19
f 8 19 9
f 9 19 10
f 10 19 20
f 10 20 21
f 10 21 22
f 10 22 23
f 10 23 11
f 11 23 12
f 12 23 24
f 12 24 25
f 12 25 26
f 12 26 13
f 13 26 14
f 14 26 28
f 14 28 27
f 15 29 54
f 15 54 30
f 15 30 31
f 15 31 32
f 15 32 33
f 15 33 16
f 16 33 17
f 17 33 34
f 17 34 18
f 18 34 19
f 19 34 35
f 19 35 36
f 19 36 37
f 19 37 38
f 19 38 39
f 19 39 20
f 20 39 21
f 21 40 41
f 21 41 22
f 21 39 42
f 21 42 43
f 21 43 40
f 22 41 44
f 22 44 45
f 22 45 46
f 22 46 23
f 23 47 48
f 23 48 24
f 23 46 47
f 24 48 28
f 24 28 25
f 25 28 26
f 27 28 50
f 27 50 51
f 27 51 49
f 28 48 50
f 29 52 53
f 29 53 54
f 30 54 69
f 30 69 90
f 30 90 105
f 30 105 99
f 30 99 84
f 30 84 77
f 30 77 56
f 30 56 37
f 30 37 36
f 30 36 31
f 31 36 35
f 31 35 55
f 31 55 32
f 32 55 35
f 32 35 33
f 33 35 34
f 37 56 39
f 37 39 38
f 39 56 57
f 39 57 43
f 39 43 42
f 40 43 58
f 40 58 59
f 40 59 41
f 41 59 60
f 41 60 61
f 41 61 46
f 41 46 45
f 41 45 44
f 43 57 56
f 43 56 62
f 43 62 58
f 46 61 63
f 46 63 48
f 46 48 47
f 48 63 51
f 48 51 50
f 49 51 65
f 49 65 64
f 51 63 60
f 51 60 66
f 51 66 65
f 52 67 68
f 52 68 53
f 53 68 54
f 54 68 70
f 54 70 71
f 54 71 72
f 54 72 73
f 54 73 74
f 54 74 75
f 54 75 76
f 54 76 69
f 56 77 62
f 58 62 78
f 58 78 79
f 58 79 80
f 58 80 59
f 59 80 81
f 59 81 82
f 59 82 60
f 60 82 66
f 60 63 61
f 62 83 78
f 62 77 84
f 62 84 83
f 64 65 66
f 64 66 86
f 64 86 85
f 66 82 86
f 67 87 88
f 67 88 89
f 67 89 68
f 68 89 70
f 69 76 90
f 70 89 71
f 71 89 91
f 71 91 72
f 72 91 73
f 73 91 74
f 74 91 92
f 74 92 75
f 75 92 93
f 75 93 76
f 76 93 90
f 78 83 94
f 78 94 95
f 78 95 80
f 78 80 79
f 80 96 81
f 80 95 96
f 81 97 82
f 81 96 93
f 81 93 97
f 82 97 98
f 82 98 86
f 83 84 99
f 83 99 94
f 85 86 100
f 86 98 100
f 87 101 88
f 88 102 97
f 88 97 103
f 88 103 89
f 88 101 104
f 88 104 102
f 89 103 91
f 90 93 95
f 90 95 105
f 91 103 97
f 91 97 93
f 91 93 92
f 93 96 95
f 94 99 105
f 94 105 95
f 97 102 98
f 98 102 106
f 98 106 107
f 98 107 100
f 102 104 106

