# https://github.com/mikedh/trimesh
v 0.01800211 -0.09662132 0.00474287
v 0.01817595 -0.09666942 0.00474287
v 0.01619030 -0.09451980 -0.00189691
v 0.01535329 -0.09451980 -0.00134331
v 0.01422139 -0.09451980 -0.00190201
v 0.00834427 -0.10372134 0.00474287
v 0.01871292 -0.09698020 0.00474287
v 0.01645041 -0.09451980 -0.00221107
v 0.00970796 -0.09451980 -0.01242377
v 0.00834427 -0.10597825 0.00474287
v 0.00834427 -0.10242269 -0.00374111
v 0.01960016 -0.09776088 0.00474287
v 0.01896145 -0.09708380 0.00436588
v 0.01649548 -0.09451980 -0.00636476
v 0.01883783 -0.09683591 0.00318227
v 0.01888290 -0.09642152 -0.00110387
v 0.02084537 -0.09779787 -0.00663476
v 0.01077290 -0.09451980 -0.01260548
v 0.00970667 -0.09452720 -0.01260548
v 0.00834427 -0.10844975 -0.00003743
v 0.01340369 -0.12252769 -0.00746856
v 0.01481889 -0.12571327 -0.00828877
v 0.01563401 -0.12574656 -0.00704232
v 0.02046936 -0.11846155 0.00474287
v 0.00834427 -0.10244119 -0.00830745
v 0.02149953 -0.09955531 0.00474287
v 0.01943404 -0.09718740 0.00181356
v 0.02149953 -0.09934071 0.00358134
v 0.02149953 -0.09922601 0.00293434
v 0.02149953 -0.09898923 0.00158091
v 0.01648261 -0.09451980 -0.00678250
v 0.01969673 -0.09702461 -0.01063222
v 0.02149953 -0.09846754 -0.00314166
v 0.02149953 -0.09843055 -0.00406376
v 0.02014486 -0.09740939 -0.01260548
v 0.02149953 -0.09833065 -0.00678760
v 0.02149953 -0.09848975 -0.01260548
v 0.01570741 -0.09451980 -0.01260548
v 0.00834556 -0.10465740 -0.01260548
v 0.00834427 -0.10465740 -0.01260378
v 0.00834427 -0.10379904 -0.01172923
v 0.00834427 -0.10368804 -0.01152885
v 0.00834427 -0.10265578 -0.00911747
v 0.00834427 -0.10850155 -0.00020895
v 0.01378356 -0.12399283 -0.00904275
v 0.01664872 -0.13026778 -0.01121469
v 0.01618772 -0.12812556 -0.00910558
v 0.01796477 -0.13075615 -0.01034014
v 0.02140810 -0.11920522 0.00474287
v 0.02149953 -0.11911643 0.00474287
v 0.02149953 -0.09849715 -0.00284958
v 0.01639504 -0.09451980 -0.00784215
v 0.01889578 -0.09652513 -0.01260548
v 0.01788750 -0.09582216 -0.01260548
v 0.02149953 -0.11535738 -0.01260548
v 0.01613879 -0.09451980 -0.01042335
v 0.01624696 -0.09483799 -0.01260548
v 0.00834427 -0.10610404 -0.01260548
v 0.00834427 -0.11157982 -0.01260548
v 0.01437334 -0.12529148 -0.00966427
v 0.01609887 -0.12858436 -0.01191433
v 0.01713419 -0.13041207 -0.01230660
v 0.01821072 -0.13188092 -0.01256812
v 0.01808967 -0.13207701 -0.01176998
v 0.01925763 -0.13205482 -0.01118072
v 0.01992852 -0.13219541 -0.01140148
v 0.02027878 -0.13231380 -0.01207565
v 0.02098316 -0.13064146 -0.01131658
v 0.02128577 -0.12821807 -0.01119601
v 0.02146348 -0.12532848 -0.01132507
v 0.02149953 -0.11633044 -0.01072052
v 0.02089559 -0.12744109 -0.01260548
v 0.01413125 -0.12343046 -0.01260548
v 0.01838327 -0.13168852 -0.01260548
v 0.01960016 -0.13109654 -0.01260548
v 0.02036248 -0.12992370 -0.01260548
v 0.02089431 -0.13033438 -0.01201282
v 0.02038695 -0.12983491 -0.01260548
f 1 2 3
f 1 3 4
f 1 4 5
f 1 5 6
f 1 6 10
f 1 10 24
f 1 24 49
f 1 49 50
f 1 50 26
f 1 26 12
f 1 12 7
f 1 7 2
f 2 7 8
f 2 8 3
f 3 8 14
f 3 14 31
f 3 31 52
f 3 52 56
f 3 56 38
f 3 38 18
f 3 18 9
f 3 9 5
f 3 5 4
f 5 9 6
f 6 9 11
f 6 11 25
f 6 25 43
f 6 43 42
f 6 42 41
f 6 41 40
f 6 40 58
f 6 58 59
f 6 59 44
f 6 44 20
f 6 20 10
f 7 12 13
f 7 13 8
f 8 13 15
f 8 15 16
f 8 16 17
f 8 17 14
f 9 18 19
f 9 19 11
f 10 20 21
f 10 21 22
f 10 22 23
f 10 23 24
f 11 19 25
f 12 26 13
f 13 27 15
f 13 26 28
f 13 28 29
f 13 29 30
f 13 30 27
f 14 17 32
f 14 32 31
f 15 27 16
f 16 27 33
f 16 33 34
f 16 34 17
f 17 35 32
f 17 34 36
f 17 36 37
f 17 37 35
f 18 38 57
f 18 57 54
f 18 54 53
f 18 53 35
f 18 35 37
f 18 37 55
f 18 55 72
f 18 72 78
f 18 78 76
f 18 76 75
f 18 75 74
f 18 74 73
f 18 73 59
f 18 59 58
f 18 58 39
f 18 39 19
f 19 39 40
f 19 40 41
f 19 41 42
f 19 42 43
f 19 43 25
f 20 44 45
f 20 45 21
f 21 45 22
f 22 45 46
f 22 46 47
f 22 47 23
f 23 47 48
f 23 48 24
f 24 48 49
f 26 50 71
f 26 71 55
f 26 55 37
f 26 37 36
f 26 36 34
f 26 34 33
f 26 33 51
f 26 51 30
f 26 30 29
f 26 29 28
f 27 30 51
f 27 51 33
f 31 32 35
f 31 35 53
f 31 53 54
f 31 54 52
f 38 56 57
f 39 58 40
f 44 59 45
f 45 60 46
f 45 59 60
f 46 61 62
f 46 62 63
f 46 63 64
f 46 64 47
f 46 60 59
f 46 59 61
f 47 64 48
f 48 64 49
f 49 64 65
f 49 65 66
f 49 66 50
f 50 66 67
f 50 67 68
f 50 68 69
f 50 69 70
f 50 70 71
f 52 54 56
f 54 57 56
f 55 71 70
f 55 70 72
f 59 73 62
f 59 62 61
f 62 73 63
f 63 74 67
f 63 67 64
f 63 73 74
f 64 67 66
f 64 66 65
f 67 74 75
f 67 75 76
f 67 76 77
f 67 77 68
f 68 77 69
f 69 77 70
f 70 77 72
f 72 77 78
f 76 78 77

