# https://github.com/mikedh/trimesh
v 0.02479446 -0.07482700 0.08693781
v 0.02479446 -0.07445816 0.08669760
v 0.02479742 -0.05991160 0.06264388
v 0.03913514 -0.09383847 0.06264388
v 0.04570264 -0.09251841 0.08693781
v 0.02479446 -0.04232373 0.08693781
v 0.02479446 -0.05369955 0.07529146
v 0.02479742 -0.02815896 0.06264388
v 0.04037932 -0.09411672 0.06264388
v 0.04803400 -0.09424613 0.08693781
v 0.02521808 -0.04255669 0.08693781
v 0.02479446 -0.04191607 0.07529146
v 0.02729467 -0.04379909 0.08693781
v 0.02866327 -0.04468561 0.08693781
v 0.03951136 -0.05213360 0.08693781
v 0.03955579 -0.05216596 0.08693781
v 0.04079109 -0.05307835 0.08693781
v 0.02603864 -0.02918783 0.06264388
v 0.04056891 -0.09411025 0.06264388
v 0.05015207 -0.09421378 0.08508989
v 0.04814065 -0.09426555 0.08687597
v 0.04814065 -0.09425260 0.08693781
v 0.04234631 -0.05437900 0.08693781
v 0.02731541 -0.03052084 0.06264388
v 0.04240556 -0.05443723 0.08693781
v 0.04203823 -0.09390318 0.06264388
v 0.05005135 -0.09421378 0.08682602
v 0.05258415 -0.09216898 0.08163904
v 0.05000692 -0.09419437 0.08693781
v 0.02739836 -0.03061790 0.06264388
v 0.02924389 -0.03299271 0.06264388
v 0.02846183 -0.03189914 0.06264388
v 0.05488293 -0.07283397 0.08693781
v 0.05489182 -0.07282102 0.08682602
v 0.04453548 -0.09165131 0.06264388
v 0.05241234 -0.09214310 0.08350597
v 0.05239160 -0.09162543 0.07996474
v 0.05282707 -0.09004653 0.07907765
v 0.05298703 -0.09002712 0.08163904
v 0.05505771 -0.07444523 0.08693781
v 0.02928537 -0.03305742 0.06264388
v 0.05490959 -0.07288574 0.08693781
v 0.05479702 -0.07289221 0.08526351
v 0.03053547 -0.03514752 0.06264388
v 0.02942459 -0.03328390 0.06264388
v 0.04533827 -0.08992358 0.06264388
v 0.04693497 -0.08884294 0.06461307
v 0.05220201 -0.08633224 0.07223777
v 0.05248640 -0.08681756 0.07386213
v 0.05269969 -0.08727699 0.07529146
v 0.05284484 -0.08760701 0.07629985
v 0.05321809 -0.08743876 0.07904673
v 0.05287446 -0.08483747 0.07386213
v 0.05479702 -0.07346811 0.08526351
v 0.05228496 -0.08224911 0.07160754
v 0.05107336 -0.07706593 0.06867515
v 0.05058754 -0.07446463 0.06867515
v 0.04967218 -0.07249748 0.06682010
v 0.04937298 -0.07076976 0.06795453
v 0.04819100 -0.06928145 0.06608284
v 0.04748301 -0.06651191 0.06863233
v 0.03097686 -0.03599521 0.06264388
v 0.04595444 -0.08743229 0.06264388
v 0.04625956 -0.08743229 0.06296970
v 0.04903527 -0.08483747 0.06549779
v 0.04732008 -0.08743229 0.06426585
v 0.04952702 -0.08620929 0.06721013
v 0.04981140 -0.08483747 0.06679393
v 0.05230866 -0.08483747 0.07180018
v 0.05285965 -0.08646166 0.07529146
v 0.05192355 -0.08224911 0.07031139
v 0.05128073 -0.07965428 0.06867515
v 0.05006913 -0.07706593 0.06617559
v 0.04989731 -0.07446463 0.06635634
v 0.04783256 -0.07183099 0.06264388
v 0.04763409 -0.07116448 0.06264388
v 0.04716012 -0.06971500 0.06264388
v 0.04910341 -0.07172745 0.06600673
v 0.04663282 -0.06852435 0.06264388
v 0.04695867 -0.06779962 0.06448227
v 0.04722529 -0.06730783 0.06608284
v 0.04774073 -0.08483747 0.06401376
v 0.04778221 -0.07646414 0.06264388
v 0.04918635 -0.08224911 0.06507922
v 0.05009579 -0.08224911 0.06637537
v 0.05127480 -0.08224911 0.06867515
v 0.05013134 -0.07965428 0.06623505
v 0.04939076 -0.07706593 0.06487944
v 0.04804882 -0.07362989 0.06264388
v 0.04932559 -0.07446463 0.06506019
v 0.04802512 -0.07441286 0.06264388
v 0.04932262 -0.07965428 0.06493890
f 1 2 3
f 1 3 4
f 1 4 5
f 1 5 10
f 1 10 22
f 1 22 29
f 1 29 40
f 1 40 42
f 1 42 33
f 1 33 25
f 1 25 23
f 1 23 17
f 1 17 16
f 1 16 15
f 1 15 14
f 1 14 13
f 1 13 11
f 1 11 6
f 1 6 12
f 1 12 7
f 1 7 2
f 2 7 3
f 3 7 12
f 3 12 8
f 3 8 18
f 3 18 24
f 3 24 30
f 3 30 32
f 3 32 31
f 3 31 41
f 3 41 45
f 3 45 44
f 3 44 62
f 3 62 79
f 3 79 77
f 3 77 76
f 3 76 75
f 3 75 89
f 3 89 91
f 3 91 83
f 3 83 63
f 3 63 46
f 3 46 35
f 3 35 26
f 3 26 19
f 3 19 9
f 3 9 4
f 4 9 10
f 4 10 5
f 6 11 8
f 6 8 12
f 8 11 13
f 8 13 14
f 8 14 15
f 8 15 16
f 8 16 17
f 8 17 18
f 9 19 20
f 9 20 21
f 9 21 10
f 10 21 22
f 17 23 18
f 18 23 25
f 18 25 24
f 19 26 20
f 20 27 21
f 20 26 28
f 20 28 27
f 21 27 29
f 21 29 22
f 24 25 30
f 25 31 32
f 25 32 30
f 25 33 34
f 25 34 31
f 26 35 28
f 27 28 36
f 27 36 29
f 28 35 37
f 28 37 38
f 28 38 39
f 28 39 36
f 29 36 40
f 31 34 41
f 33 42 34
f 34 42 43
f 34 43 44
f 34 44 45
f 34 45 41
f 35 46 47
f 35 47 48
f 35 48 37
f 36 39 40
f 37 48 38
f 38 48 49
f 38 49 50
f 38 50 51
f 38 51 52
f 38 52 39
f 39 52 40
f 40 52 53
f 40 53 54
f 40 54 43
f 40 43 42
f 43 55 56
f 43 56 57
f 43 57 58
f 43 58 59
f 43 59 60
f 43 60 61
f 43 61 62
f 43 62 44
f 43 54 53
f 43 53 55
f 46 63 64
f 46 64 65
f 46 65 66
f 46 66 47
f 47 66 67
f 47 67 48
f 48 67 68
f 48 68 69
f 48 69 53
f 48 53 49
f 49 53 70
f 49 70 50
f 50 70 51
f 51 70 52
f 52 70 53
f 53 69 55
f 55 71 72
f 55 72 56
f 55 69 71
f 56 72 73
f 56 73 74
f 56 74 58
f 56 58 57
f 58 75 76
f 58 76 77
f 58 77 78
f 58 78 60
f 58 60 59
f 58 74 75
f 60 77 79
f 60 79 80
f 60 80 62
f 60 62 81
f 60 81 61
f 60 78 77
f 61 81 62
f 62 80 79
f 63 82 64
f 63 83 82
f 64 82 65
f 65 82 84
f 65 84 85
f 65 85 68
f 65 68 66
f 66 68 67
f 68 85 86
f 68 86 69
f 69 86 71
f 71 86 72
f 72 87 73
f 72 86 87
f 73 87 88
f 73 88 89
f 73 89 90
f 73 90 74
f 74 90 75
f 75 90 89
f 82 83 84
f 83 91 84
f 84 91 92
f 84 92 85
f 85 92 87
f 85 87 86
f 87 92 88
f 88 92 91
f 88 91 89

