# https://github.com/mikedh/trimesh
v 0.01674326 -0.03766403 0.08693865
v 0.01685919 -0.03770878 0.08693865
v 0.00560691 -0.00548551 0.06753130
v 0.00406671 -0.00532439 0.06749086
v 0.00406671 -0.01022949 0.07039210
v 0.00406671 -0.01223449 0.07156923
v 0.00406671 -0.01372930 0.07244674
v 0.00406671 -0.01502718 0.07317919
v 0.00319605 -0.01880446 0.07511017
v 0.00331435 -0.02401389 0.07767847
v 0.00406671 -0.02780012 0.07946440
v 0.00355804 -0.03010946 0.08028959
v 0.01674326 -0.06944870 0.08693865
v 0.01909971 -0.03898876 0.08693865
v 0.00580092 -0.00532439 0.06725543
v 0.02479210 -0.04232745 0.08693865
v 0.00291924 -0.00532439 0.06734104
v 0.00265426 -0.00560187 0.06746233
v 0.00243659 -0.01050697 0.07022563
v 0.00233486 -0.01544787 0.07294613
v 0.00238218 -0.02053199 0.07554773
v 0.00243186 -0.02574142 0.07808512
v 0.00209590 -0.02780012 0.07852031
v 0.00162982 -0.03010946 0.07890556
v 0.00848860 -0.08191732 0.07127436
v 0.02064465 -0.08020769 0.08693865
v 0.00651543 -0.00532439 0.06658483
v 0.02479210 -0.07482820 0.08693865
v 0.02479446 -0.04171878 0.07127436
v 0.02479446 -0.02815816 0.06264675
v 0.00804617 -0.00532439 0.06479177
v 0.00787346 -0.00532439 0.06506524
v 0.00690344 -0.00532439 0.06617580
v 0.00246972 -0.00532439 0.06708422
v 0.00223786 -0.00705192 0.06789275
v 0.00202729 -0.01223449 0.07072741
v 0.00195631 -0.01742602 0.07346693
v 0.00087982 -0.01742602 0.07126960
v 0.00063140 -0.03010946 0.07645140
v 0.00848860 -0.09432328 0.06305816
v 0.00985609 -0.09465446 0.06540293
v 0.01267863 -0.09676687 0.06780238
v 0.02079844 -0.08136236 0.08638456
v 0.02132130 -0.08109383 0.08693865
v 0.02479446 -0.05988913 0.06264675
v 0.02479446 -0.05328336 0.07123868
v 0.02479446 -0.05132311 0.07127436
v 0.02373690 -0.07963483 0.08693865
v 0.02363517 -0.08133551 0.08607303
v 0.02372507 -0.08221270 0.08408497
v 0.02400898 -0.08224850 0.08163557
v 0.02427869 -0.08224850 0.07904586
v 0.02447033 -0.08224850 0.07645140
v 0.02455314 -0.08224850 0.07386407
v 0.02463358 -0.07966169 0.07127436
v 0.00822598 -0.00532439 0.06264675
v 0.00821415 -0.00532439 0.06351712
v 0.00816210 -0.00532439 0.06410450
v 0.00173155 -0.00532439 0.06609019
v 0.00175048 -0.00963873 0.06877739
v 0.00085616 -0.01223449 0.06867514
v 0.00167004 -0.01467809 0.07146223
v 0.00062667 -0.00963873 0.06608305
v 0.00063140 -0.00705192 0.06348859
v 0.00848860 -0.09428748 0.06264675
v 0.00848860 -0.09432328 0.06277279
v 0.01267863 -0.09676687 0.06674891
v 0.01443887 -0.09672213 0.06684641
v 0.01462577 -0.09671317 0.06867038
v 0.01561236 -0.09656101 0.07002350
v 0.02221799 -0.08129075 0.08693865
v 0.02450345 -0.07965274 0.06867514
v 0.02436623 -0.07706592 0.06608305
v 0.02395930 -0.07706592 0.06348859
v 0.02384337 -0.07587546 0.06264675
v 0.01856265 -0.09404580 0.07268931
v 0.02355946 -0.08360904 0.08312424
v 0.02366829 -0.08385071 0.08163557
v 0.02375819 -0.08478161 0.07880092
v 0.02398059 -0.08483531 0.07645140
v 0.02407759 -0.08483531 0.07386407
v 0.02447743 -0.08224850 0.07127436
v 0.00100995 -0.00532439 0.06264675
v 0.00068818 -0.00532439 0.06348859
v 0.00111641 -0.00705192 0.06608305
v 0.00095080 -0.00710562 0.06264675
v 0.01053984 -0.09472606 0.06264675
v 0.01184819 -0.09527206 0.06348859
v 0.01443887 -0.09602395 0.06555036
v 0.01580163 -0.09655206 0.06729824
v 0.01587734 -0.09657891 0.06867514
v 0.01585605 -0.09656101 0.07002350
v 0.02421245 -0.07965274 0.06608305
v 0.02424557 -0.08223955 0.06867514
v 0.02371324 -0.07939316 0.06357182
v 0.02357838 -0.07870394 0.06264675
v 0.02376292 -0.07706592 0.06264675
v 0.01887259 -0.09440383 0.07127436
v 0.02115569 -0.09168276 0.07324339
v 0.02352160 -0.08614215 0.07777360
v 0.02357128 -0.08627641 0.07645140
v 0.02399242 -0.08484427 0.07127436
v 0.02361860 -0.08641963 0.07386407
v 0.02358311 -0.08633012 0.07126960
v 0.01184819 -0.09466341 0.06264675
v 0.01358950 -0.09419796 0.06264675
v 0.01423066 -0.09459180 0.06355517
v 0.01610210 -0.09424272 0.06446597
v 0.01681424 -0.09505725 0.06632086
v 0.01853662 -0.09414426 0.06707232
v 0.01885129 -0.09446649 0.06867514
v 0.01717149 -0.09576437 0.06867514
v 0.02381261 -0.08223060 0.06607592
v 0.02362334 -0.08135341 0.06449213
v 0.02374400 -0.08485322 0.06885587
v 0.02363753 -0.08399393 0.06693439
v 0.02325189 -0.08008239 0.06276328
v 0.02319274 -0.08004658 0.06264675
v 0.02016437 -0.09312385 0.07127436
v 0.02122430 -0.09182598 0.07127436
v 0.02310520 -0.08771750 0.07386407
v 0.02353343 -0.08619586 0.06983802
v 0.02310993 -0.08762800 0.07126960
v 0.01489785 -0.09313280 0.06264675
v 0.01495700 -0.09319546 0.06273712
v 0.01621803 -0.09180807 0.06264675
v 0.01684500 -0.09240779 0.06364554
v 0.01854609 -0.09161115 0.06455634
v 0.01782922 -0.09335658 0.06534348
v 0.01906896 -0.09254205 0.06615677
v 0.02086232 -0.09123521 0.06756696
v 0.02026847 -0.09254205 0.06852770
v 0.02109181 -0.09162905 0.06929582
v 0.02122430 -0.09182598 0.07126960
v 0.02338438 -0.08309884 0.06520554
v 0.02339857 -0.08573040 0.06810915
v 0.02308154 -0.08485322 0.06607592
v 0.02288990 -0.08223060 0.06357182
v 0.02267697 -0.08132656 0.06264675
v 0.02211862 -0.09002684 0.07126960
v 0.02299400 -0.08720731 0.06885587
v 0.01764231 -0.09002684 0.06264675
v 0.01772275 -0.09002684 0.06271334
v 0.01780319 -0.08982097 0.06264675
v 0.01844199 -0.08894378 0.06264675
v 0.01908078 -0.09002684 0.06400938
v 0.02084339 -0.08861260 0.06489164
v 0.02045538 -0.09023272 0.06588805
v 0.02132840 -0.08949874 0.06662049
v 0.02160995 -0.09023272 0.06852770
v 0.02184890 -0.08761905 0.06588805
v 0.02131184 -0.08687612 0.06426384
v 0.02172114 -0.08480847 0.06343627
v 0.02165017 -0.08381491 0.06264675
v 0.02231025 -0.08223060 0.06264675
v 0.02046248 -0.08597207 0.06264675
v 0.02061863 -0.08573040 0.06264675
v 0.02140648 -0.08433406 0.06264675
f 1 2 3
f 1 3 4
f 1 4 5
f 1 5 6
f 1 6 7
f 1 7 8
f 1 8 9
f 1 9 10
f 1 10 11
f 1 11 12
f 1 12 13
f 1 13 26
f 1 26 44
f 1 44 71
f 1 71 48
f 1 48 28
f 1 28 16
f 1 16 14
f 1 14 2
f 2 14 3
f 3 15 4
f 3 14 16
f 3 16 15
f 4 15 27
f 4 27 33
f 4 33 32
f 4 32 31
f 4 31 58
f 4 58 57
f 4 57 56
f 4 56 83
f 4 83 84
f 4 84 59
f 4 59 34
f 4 34 17
f 4 17 5
f 5 17 6
f 6 17 7
f 7 17 18
f 7 18 19
f 7 19 9
f 7 9 8
f 9 19 20
f 9 20 21
f 9 21 22
f 9 22 10
f 10 22 12
f 10 12 11
f 12 22 23
f 12 23 24
f 12 24 13
f 13 25 26
f 13 24 25
f 15 16 27
f 16 28 47
f 16 47 29
f 16 29 30
f 16 30 31
f 16 31 32
f 16 32 33
f 16 33 27
f 17 34 18
f 18 34 35
f 18 35 19
f 19 36 20
f 19 35 36
f 20 37 21
f 20 36 37
f 21 37 22
f 22 24 23
f 22 37 24
f 24 37 38
f 24 38 39
f 24 39 25
f 25 40 41
f 25 41 42
f 25 42 26
f 25 39 40
f 26 42 43
f 26 43 44
f 28 45 46
f 28 46 47
f 28 48 49
f 28 49 50
f 28 50 51
f 28 51 52
f 28 52 53
f 28 53 54
f 28 54 55
f 28 55 45
f 29 47 46
f 29 46 45
f 29 45 30
f 30 56 57
f 30 57 58
f 30 58 31
f 30 45 75
f 30 75 97
f 30 97 96
f 30 96 118
f 30 118 139
f 30 139 155
f 30 155 154
f 30 154 158
f 30 158 157
f 30 157 156
f 30 156 145
f 30 145 144
f 30 144 142
f 30 142 126
f 30 126 124
f 30 124 106
f 30 106 105
f 30 105 87
f 30 87 65
f 30 65 86
f 30 86 83
f 30 83 56
f 34 59 35
f 35 60 36
f 35 59 60
f 36 60 61
f 36 61 62
f 36 62 37
f 37 62 61
f 37 61 38
f 38 61 39
f 39 61 63
f 39 63 64
f 39 64 65
f 39 65 66
f 39 66 40
f 40 66 67
f 40 67 42
f 40 42 41
f 42 67 68
f 42 68 69
f 42 69 70
f 42 70 43
f 43 70 44
f 44 70 71
f 45 55 72
f 45 72 73
f 45 73 74
f 45 74 75
f 48 71 49
f 49 71 76
f 49 76 77
f 49 77 50
f 50 77 51
f 51 77 78
f 51 78 52
f 52 78 79
f 52 79 80
f 52 80 53
f 53 80 81
f 53 81 54
f 54 81 82
f 54 82 55
f 55 82 72
f 59 84 85
f 59 85 60
f 60 85 61
f 61 85 84
f 61 84 63
f 63 84 64
f 64 84 86
f 64 86 65
f 65 87 67
f 65 67 66
f 67 88 68
f 67 87 88
f 68 88 89
f 68 89 90
f 68 90 91
f 68 91 69
f 69 91 92
f 69 92 70
f 70 92 71
f 71 92 76
f 72 93 73
f 72 82 94
f 72 94 93
f 73 93 74
f 74 93 95
f 74 95 96
f 74 96 97
f 74 97 75
f 76 92 98
f 76 98 99
f 76 99 77
f 77 100 79
f 77 79 78
f 77 99 100
f 79 100 80
f 80 100 101
f 80 101 81
f 81 102 82
f 81 101 103
f 81 103 104
f 81 104 102
f 82 102 94
f 83 86 84
f 87 105 88
f 88 105 106
f 88 106 89
f 89 106 107
f 89 107 108
f 89 108 90
f 90 108 109
f 90 109 110
f 90 110 111
f 90 111 112
f 90 112 91
f 91 112 92
f 92 112 98
f 93 94 113
f 93 113 114
f 93 114 95
f 94 102 115
f 94 115 116
f 94 116 113
f 95 114 96
f 96 114 117
f 96 117 118
f 98 112 111
f 98 111 119
f 98 119 99
f 99 119 120
f 99 120 121
f 99 121 100
f 100 121 101
f 101 121 103
f 102 104 122
f 102 122 115
f 103 121 123
f 103 123 104
f 104 123 122
f 106 124 125
f 106 125 108
f 106 108 107
f 108 125 126
f 108 126 127
f 108 127 128
f 108 128 129
f 108 129 110
f 108 110 109
f 110 129 130
f 110 130 131
f 110 131 132
f 110 132 111
f 111 132 133
f 111 133 134
f 111 134 119
f 113 116 114
f 114 116 135
f 114 135 117
f 115 122 136
f 115 136 116
f 116 136 137
f 116 137 135
f 117 135 138
f 117 138 139
f 117 139 118
f 119 134 120
f 120 134 140
f 120 140 121
f 121 140 123
f 122 123 140
f 122 140 141
f 122 141 136
f 124 126 125
f 126 142 143
f 126 143 128
f 126 128 127
f 128 130 129
f 128 143 144
f 128 144 145
f 128 145 146
f 128 146 147
f 128 147 130
f 130 147 148
f 130 148 131
f 131 148 147
f 131 147 149
f 131 149 150
f 131 150 133
f 131 133 132
f 133 150 140
f 133 140 134
f 135 137 151
f 135 151 152
f 135 152 138
f 136 141 150
f 136 150 149
f 136 149 137
f 137 149 151
f 138 152 153
f 138 153 154
f 138 154 155
f 138 155 139
f 140 150 141
f 142 144 143
f 145 156 146
f 146 156 147
f 147 152 151
f 147 151 149
f 147 156 157
f 147 157 152
f 152 157 158
f 152 158 153
f 153 158 154

