# https://github.com/mikedh/trimesh
v 0.00071248 -0.11649780 0.01370329
v 0.00074379 -0.11649780 0.01502490
v 0.00077285 -0.11649780 0.01329563
v 0.00231570 -0.12450711 0.01502490
v 0.02355558 -0.11649780 0.01502490
v 0.00095397 -0.11649780 0.01305808
v 0.00311172 -0.12516704 0.01409786
v 0.00307818 -0.12712736 0.01502490
v 0.02355558 -0.11649780 0.00474287
v 0.02355558 -0.11800274 0.01502490
v 0.01952405 -0.11649780 0.00474287
v 0.01949498 -0.13233864 0.00596081
v 0.01905225 -0.13661483 0.00649429
v 0.01825399 -0.13972943 0.00746361
v 0.00714325 -0.13323966 0.01337817
v 0.00355445 -0.12448763 0.01346272
v 0.00440637 -0.12851298 0.01413108
v 0.00361706 -0.12849106 0.01502490
v 0.02355558 -0.11911075 0.00474287
v 0.02303906 -0.11883070 0.01502490
v 0.01478594 -0.13978542 0.01204749
v 0.01697723 -0.14092997 0.00988439
v 0.01773077 -0.14100789 0.00861210
v 0.01916852 -0.13842660 0.00724015
v 0.01921324 -0.13871396 0.00682243
v 0.02027982 -0.13514884 0.00625372
v 0.02117870 -0.13178830 0.00576252
v 0.02355558 -0.11961970 0.00602121
v 0.02046764 -0.11846542 0.00474287
v 0.02075609 -0.12998383 0.00550887
v 0.02022168 -0.13334924 0.00585915
v 0.01661500 -0.14137560 0.00970623
v 0.00897678 -0.13589402 0.01302386
v 0.00517780 -0.13147902 0.01466757
v 0.00713878 -0.13387768 0.01380294
v 0.00441532 -0.13040024 0.01502490
v 0.02355558 -0.11920572 0.00481132
v 0.02140900 -0.11920816 0.00474287
v 0.01058224 -0.13548003 0.01502490
v 0.01234421 -0.13742574 0.01387340
v 0.01269527 -0.13848992 0.01321611
v 0.01521749 -0.14081307 0.01123520
v 0.02355558 -0.11933479 0.00490493
v 0.01494917 -0.14049163 0.01070071
v 0.01302843 -0.13911575 0.01165393
v 0.01332135 -0.13938850 0.01232933
v 0.01086397 -0.13726746 0.01332885
v 0.00604761 -0.13276967 0.01502490
v 0.00534103 -0.13213897 0.01502490
v 0.00492065 -0.13142546 0.01502490
v 0.00972584 -0.13534853 0.01502490
v 0.00949330 -0.13520242 0.01502490
v 0.00700685 -0.13350023 0.01502490
f 1 2 5
f 1 5 9
f 1 9 11
f 1 11 6
f 1 6 3
f 1 3 4
f 1 4 2
f 2 4 8
f 2 8 18
f 2 18 36
f 2 36 50
f 2 50 49
f 2 49 48
f 2 48 53
f 2 53 52
f 2 52 51
f 2 51 39
f 2 39 20
f 2 20 10
f 2 10 5
f 3 6 7
f 3 7 8
f 3 8 4
f 5 10 28
f 5 28 43
f 5 43 37
f 5 37 19
f 5 19 9
f 6 11 12
f 6 12 13
f 6 13 14
f 6 14 15
f 6 15 16
f 6 16 7
f 7 16 17
f 7 17 18
f 7 18 8
f 9 19 38
f 9 38 29
f 9 29 11
f 10 20 21
f 10 21 22
f 10 22 23
f 10 23 24
f 10 24 25
f 10 25 26
f 10 26 27
f 10 27 28
f 11 29 30
f 11 30 31
f 11 31 12
f 12 31 13
f 13 31 25
f 13 25 14
f 14 25 23
f 14 23 32
f 14 32 33
f 14 33 15
f 15 34 17
f 15 17 16
f 15 33 35
f 15 35 34
f 17 34 18
f 18 34 36
f 19 37 27
f 19 27 30
f 19 30 38
f 20 39 40
f 20 40 21
f 21 40 41
f 21 41 42
f 21 42 22
f 22 42 32
f 22 32 23
f 23 25 24
f 25 31 26
f 26 31 27
f 27 31 30
f 27 37 43
f 27 43 28
f 29 38 30
f 32 42 44
f 32 44 33
f 33 44 45
f 33 45 46
f 33 46 47
f 33 47 48
f 33 48 49
f 33 49 35
f 34 35 49
f 34 49 50
f 34 50 36
f 39 51 41
f 39 41 40
f 41 51 47
f 41 47 46
f 41 46 42
f 42 46 45
f 42 45 44
f 47 51 52
f 47 52 53
f 47 53 48

