# https://github.com/mikedh/trimesh
v 0.01124265 -0.09861435 0.01502760
v 0.00650916 -0.09861435 0.01877647
v 0.00475899 -0.09861435 0.01502760
v 0.00690965 -0.09651546 0.01502760
v -0.00031502 -0.09422044 0.03231472
v -0.00031502 -0.09430819 0.03226056
v -0.00031502 -0.09452624 0.03200669
v -0.00031502 -0.09515376 0.03116213
v -0.00031502 -0.09587847 0.02984537
v -0.00019850 -0.09640063 0.02875033
v 0.00183450 -0.09861435 0.02225624
v -0.00031502 -0.09753393 0.01502760
v -0.00009781 -0.09861435 0.01937900
v 0.00382791 -0.09506000 0.01502760
v 0.00142044 -0.09456926 0.01502760
v -0.00031502 -0.09450603 0.01502760
v -0.00031502 -0.09627245 0.02906006
v -0.00031502 -0.09639847 0.02875880
v -0.00031502 -0.09861435 0.02336313
v 0.00023367 -0.09861435 0.02329543
v 0.00028797 -0.09861435 0.02326665
v -0.00031502 -0.09851371 0.01923683
v -0.00031502 -0.09861435 0.02019140
f 1 2 11
f 1 11 21
f 1 21 20
f 1 20 19
f 1 19 23
f 1 23 13
f 1 13 3
f 1 3 12
f 1 12 16
f 1 16 15
f 1 15 14
f 1 14 4
f 1 4 5
f 1 5 6
f 1 6 7
f 1 7 8
f 1 8 9
f 1 9 10
f 1 10 2
f 2 10 11
f 3 13 12
f 4 14 5
f 5 14 15
f 5 15 16
f 5 16 12
f 5 12 22
f 5 22 23
f 5 23 19
f 5 19 18
f 5 18 17
f 5 17 9
f 5 9 8
f 5 8 7
f 5 7 6
f 9 17 10
f 10 17 18
f 10 18 19
f 10 19 20
f 10 20 21
f 10 21 11
f 12 13 22
f 13 23 22

