# https://github.com/mikedh/trimesh
v 0.02355714 -0.11961967 0.00602121
v 0.02355714 -0.11800259 0.01502490
v 0.02355714 -0.11933518 0.00490493
v 0.02798940 -0.12638560 0.00673788
v 0.02598098 -0.12331052 0.00792562
v 0.02355714 -0.11649780 0.01502490
v 0.02791444 -0.12612544 0.00772532
v 0.02957302 -0.12751043 0.00836549
v 0.03133312 -0.12827033 0.00964181
v 0.03061003 -0.12585779 0.01204951
v 0.03064282 -0.12416584 0.01360464
v 0.02920757 -0.12184129 0.01467261
v 0.02803938 -0.12004827 0.01502490
v 0.02355714 -0.11911059 0.00474287
v 0.03075527 -0.12976201 0.00474287
v 0.03006810 -0.12916309 0.00600510
v 0.02540313 -0.11649780 0.01502490
v 0.02355714 -0.11649780 0.00474287
v 0.03133937 -0.13001841 0.00684961
v 0.03296672 -0.13093552 0.00750991
v 0.03373510 -0.13011761 0.00928448
v 0.03241386 -0.12747863 0.01145563
v 0.03220614 -0.12568934 0.01285677
v 0.03070217 -0.12326933 0.01423274
v 0.02985102 -0.12179262 0.01467865
v 0.02815339 -0.12004453 0.01502490
v 0.03195158 -0.13135475 0.00474287
v 0.03183601 -0.13122748 0.00491600
v 0.02634019 -0.11649780 0.01430320
v 0.02637767 -0.11748040 0.01502490
v 0.02686025 -0.11766382 0.01487392
v 0.02659163 -0.11649780 0.00474287
v 0.03324627 -0.13256757 0.00474287
v 0.03379445 -0.13299243 0.00474287
v 0.03473931 -0.13371675 0.00474287
v 0.03522970 -0.13407797 0.00474287
v 0.03472526 -0.13271730 0.00659394
v 0.03663060 -0.13326567 0.00700361
v 0.03510945 -0.13049194 0.00937004
v 0.03392407 -0.12815616 0.01112448
v 0.03276369 -0.12607490 0.01224981
v 0.03121599 -0.12363618 0.01367108
v 0.02848135 -0.11963838 0.01480749
v 0.02797066 -0.11967208 0.01502490
v 0.03219209 -0.13161679 0.00474287
v 0.02646356 -0.11649780 0.01392876
v 0.03951048 -0.13517286 0.00474287
v 0.02650261 -0.11649780 0.01230517
v 0.03619487 -0.13464133 0.00474287
v 0.03815487 -0.13539746 0.00493513
v 0.03718346 -0.13285767 0.00732169
v 0.03835009 -0.13560148 0.00474287
v 0.03944176 -0.13561831 0.00474287
v 0.03938553 -0.13551350 0.00484152
v 0.03947612 -0.13561082 0.00474287
v 0.03755828 -0.13287078 0.00696234
v 0.02997127 -0.12174209 0.01378381
v 0.03810333 -0.13550414 0.00474287
f 1 2 6
f 1 6 18
f 1 18 14
f 1 14 3
f 1 3 4
f 1 4 5
f 1 5 2
f 2 5 7
f 2 7 8
f 2 8 9
f 2 9 10
f 2 10 11
f 2 11 12
f 2 12 13
f 2 13 26
f 2 26 44
f 2 44 30
f 2 30 17
f 2 17 6
f 3 14 15
f 3 15 4
f 4 15 16
f 4 16 7
f 4 7 5
f 6 17 29
f 6 29 46
f 6 46 48
f 6 48 32
f 6 32 18
f 7 16 8
f 8 16 19
f 8 19 9
f 9 19 20
f 9 20 21
f 9 21 10
f 10 21 22
f 10 22 11
f 11 22 23
f 11 23 24
f 11 24 12
f 12 24 25
f 12 25 13
f 13 25 26
f 14 18 32
f 14 32 47
f 14 47 55
f 14 55 53
f 14 53 52
f 14 52 58
f 14 58 49
f 14 49 36
f 14 36 35
f 14 35 34
f 14 34 33
f 14 33 45
f 14 45 27
f 14 27 15
f 15 27 16
f 16 27 28
f 16 28 19
f 17 30 31
f 17 31 29
f 19 28 33
f 19 33 34
f 19 34 20
f 20 34 35
f 20 35 36
f 20 36 37
f 20 37 21
f 21 37 38
f 21 38 39
f 21 39 22
f 22 39 40
f 22 40 23
f 23 40 41
f 23 41 24
f 24 42 25
f 24 41 42
f 25 42 43
f 25 43 44
f 25 44 26
f 27 45 28
f 28 45 33
f 29 31 43
f 29 43 46
f 30 44 43
f 30 43 31
f 32 48 47
f 36 49 37
f 37 49 50
f 37 50 38
f 38 51 39
f 38 50 52
f 38 52 53
f 38 53 54
f 38 54 51
f 39 51 40
f 40 51 55
f 40 55 56
f 40 56 47
f 40 47 41
f 41 47 42
f 42 47 57
f 42 57 43
f 43 57 46
f 46 57 47
f 46 47 48
f 47 56 55
f 49 58 50
f 50 58 52
f 51 54 55
f 53 55 54

