# https://github.com/mikedh/trimesh
v 0.04823145 -0.14841540 -0.00649997
v 0.04903832 -0.14773279 -0.00669995
v 0.04871021 -0.14758918 -0.00543399
v 0.04725988 -0.14707762 -0.00438834
v 0.04653344 -0.14762306 -0.00577971
v 0.04693560 -0.14812009 -0.00723040
v 0.04782419 -0.14798132 -0.00912003
v 0.04853275 -0.14810880 -0.00867940
v 0.04890938 -0.14688882 -0.00810319
v 0.04880852 -0.14641921 -0.00546449
v 0.04822506 -0.14639179 -0.00414599
v 0.04699688 -0.14546390 -0.00294612
v 0.03835106 -0.13560241 0.00474287
v 0.03810466 -0.13550560 0.00474287
v 0.03619599 -0.13464226 0.00474287
v 0.04503459 -0.14566883 -0.00414260
v 0.03599683 -0.13452606 0.00474287
v 0.03599683 -0.13534583 0.00331930
v 0.03599683 -0.13553303 0.00298544
v 0.04502948 -0.14623526 -0.00542721
v 0.04635853 -0.14737938 -0.00884718
v 0.04485330 -0.14614649 -0.00710838
v 0.04649003 -0.14634822 -0.01053852
v 0.04746032 -0.14622881 -0.01077070
v 0.04855190 -0.14700985 -0.00926069
v 0.04732116 -0.14502497 -0.01049106
v 0.04787780 -0.14521377 -0.00846586
v 0.04854552 -0.14583021 -0.00651184
v 0.04772587 -0.14468125 -0.00423920
v 0.04722413 -0.14457797 -0.00277156
v 0.03947839 -0.13561210 0.00474287
v 0.03944264 -0.13561855 0.00474287
v 0.03599683 -0.13193120 0.00474287
v 0.03599683 -0.13575411 0.00234483
v 0.03599683 -0.13597520 0.00170083
v 0.04282462 -0.14392601 -0.00439851
v 0.04359575 -0.14457634 -0.00872685
v 0.04183646 -0.14195566 -0.01056733
v 0.04415239 -0.14415516 -0.01082832
v 0.03959457 -0.14052913 -0.00821843
v 0.04252843 -0.14368556 -0.00554753
v 0.04027505 -0.14132631 -0.00455612
v 0.03787741 -0.13878630 -0.00474254
v 0.04490820 -0.14442627 -0.01135707
v 0.04636109 -0.14548004 -0.01127573
v 0.04590275 -0.14420357 -0.01175703
v 0.04591424 -0.14361295 -0.01124353
v 0.04018185 -0.13773575 -0.01195362
v 0.04603553 -0.14336766 -0.00887090
v 0.04137557 -0.13725810 0.00264141
v 0.04662408 -0.14352259 -0.00479507
v 0.04621682 -0.14300619 -0.00192081
v 0.03951158 -0.13517478 0.00474287
v 0.03599683 -0.13359010 -0.01251627
v 0.03691860 -0.13275743 0.00474287
v 0.03599683 -0.13635603 -0.00407651
v 0.03953073 -0.13974647 -0.01015551
v 0.03838426 -0.13802624 -0.01117404
v 0.04148154 -0.14064531 -0.01189430
v 0.03749184 -0.13804238 -0.00874210
v 0.03599683 -0.13603812 -0.00986740
v 0.03599683 -0.13599616 -0.00999112
v 0.03599683 -0.13643993 -0.00618984
v 0.03599683 -0.13628018 -0.00882853
v 0.04473967 -0.14369041 -0.01178754
v 0.04218882 -0.14022252 -0.01240611
v 0.04258971 -0.14026770 -0.01197057
v 0.03794762 -0.13559596 -0.01257050
v 0.03780464 -0.13355298 0.00474287
v 0.03897537 -0.13742593 -0.01221630
v 0.03599683 -0.13388218 -0.01235866
v 0.03599683 -0.13596551 -0.01005721
v 0.03599683 -0.13508764 -0.01147231
v 0.03599683 -0.13479072 -0.01172991
v 0.03732077 -0.13569118 -0.01215021
f 1 2 3
f 1 3 4
f 1 4 5
f 1 5 6
f 1 6 7
f 1 7 8
f 1 8 2
f 2 8 9
f 2 9 10
f 2 10 3
f 3 10 11
f 3 11 4
f 4 11 12
f 4 12 13
f 4 13 14
f 4 14 15
f 4 15 16
f 4 16 5
f 5 16 17
f 5 17 18
f 5 18 19
f 5 19 20
f 5 20 6
f 6 21 7
f 6 20 22
f 6 22 21
f 7 21 23
f 7 23 24
f 7 24 8
f 8 24 25
f 8 25 9
f 9 25 26
f 9 26 27
f 9 27 28
f 9 28 10
f 10 29 30
f 10 30 11
f 10 28 29
f 11 30 12
f 12 30 31
f 12 31 32
f 12 32 13
f 13 32 31
f 13 31 53
f 13 53 69
f 13 69 55
f 13 55 33
f 13 33 17
f 13 17 15
f 13 15 14
f 15 17 16
f 17 33 54
f 17 54 71
f 17 71 74
f 17 74 73
f 17 73 72
f 17 72 62
f 17 62 61
f 17 61 64
f 17 64 63
f 17 63 56
f 17 56 35
f 17 35 34
f 17 34 19
f 17 19 18
f 19 34 20
f 20 34 35
f 20 35 36
f 20 36 22
f 21 22 37
f 21 37 38
f 21 38 39
f 21 39 23
f 22 40 37
f 22 36 41
f 22 41 42
f 22 42 43
f 22 43 40
f 23 39 44
f 23 44 45
f 23 45 24
f 24 26 25
f 24 45 46
f 24 46 26
f 26 46 47
f 26 47 27
f 27 47 48
f 27 48 49
f 27 49 50
f 27 50 51
f 27 51 29
f 27 29 28
f 29 52 30
f 29 51 50
f 29 50 52
f 30 52 53
f 30 53 31
f 33 55 54
f 35 56 43
f 35 43 42
f 35 42 36
f 36 42 41
f 37 40 57
f 37 57 38
f 38 57 58
f 38 58 39
f 39 58 59
f 39 59 44
f 40 60 61
f 40 61 62
f 40 62 57
f 40 43 60
f 43 56 63
f 43 63 64
f 43 64 60
f 44 59 65
f 44 65 45
f 45 65 46
f 46 65 66
f 46 66 47
f 47 66 67
f 47 67 48
f 48 67 68
f 48 68 54
f 48 54 50
f 48 50 49
f 50 53 52
f 50 54 53
f 53 54 69
f 54 68 70
f 54 70 71
f 54 55 69
f 57 62 72
f 57 72 58
f 58 72 73
f 58 73 59
f 59 73 74
f 59 74 75
f 59 75 70
f 59 70 66
f 59 66 65
f 60 64 61
f 66 70 68
f 66 68 67
f 70 75 71
f 71 75 74

