# https://github.com/mikedh/trimesh
v -0.02627034 0.01549747 -0.01639332
v -0.02605441 0.01045536 -0.01565570
v -0.02557484 0.01485128 0.00668709
v -0.02675243 0.02459991 -0.00756136
v -0.02556160 0.02482895 -0.01050736
v -0.02664603 0.02855097 -0.00742912
v -0.02638727 0.02714569 0.00336502
v -0.02649214 0.03258921 -0.00384113
v -0.02583036 0.00296221 -0.02577117
v -0.02520461 -0.00482958 -0.03152149
v -0.02546243 -0.00473489 -0.02966544
v -0.02486470 -0.01026448 -0.02112862
v -0.02457547 -0.00075322 -0.02902681
v -0.02436640 -0.00687370 -0.00358616
v -0.02457409 0.01452582 -0.01786300
v -0.02537433 0.01888534 0.01482812
v -0.02371357 0.02853591 0.00254071
v -0.02320201 0.03278871 -0.00492776
v -0.02480170 -0.01126039 -0.02576601
v -0.02464202 -0.00682691 -0.03219399
v -0.01799398 0.00366404 -0.02647055
v -0.02477308 0.01148936 0.02262650
v -0.02402513 0.01452728 0.02164865
v -0.01506916 0.01813122 -0.01639366
v -0.02453412 0.02231428 0.01106707
v -0.02289834 -0.01120637 -0.02677701
v -0.02368256 -0.00088244 0.02691596
v -0.02392024 0.00987647 0.02769663
v -0.02392102 -0.01817999 -0.01675786
v -0.02336079 -0.02209806 -0.00236559
v -0.02369392 -0.00566436 0.01728680
v -0.01591946 -0.00541477 -0.03291586
v -0.02343518 0.00140632 0.03315402
v -0.01304451 0.02356618 0.01009632
v -0.01846645 0.03323604 -0.00389003
v -0.02304075 -0.02468187 -0.00756158
v -0.02279172 -0.02155074 0.01323364
v -0.02298180 -0.01506046 0.01951488
v -0.02308349 -0.00903195 0.02511153
v -0.01606740 -0.00753876 -0.03117713
v -0.02315533 -0.00403691 0.02915837
v -0.02292442 0.00472735 0.03451712
v -0.01868551 0.00767967 0.03137621
v -0.01464791 0.01458919 0.02235164
v -0.02240350 -0.03178878 0.00301644
v -0.02200272 -0.02354361 0.01507835
v -0.01919691 -0.02639108 -0.00537622
v -0.02246415 -0.01257655 0.02323880
v -0.01989385 0.00460085 0.03502531
v -0.01215274 0.03162893 -0.00097903
v -0.02232993 -0.03233693 0.00734882
v -0.02131540 -0.03454094 0.00711400
v -0.02151769 -0.03262995 0.00882225
v -0.02230754 -0.02893563 0.01091291
v -0.01368279 -0.01616136 -0.01926836
v -0.02109962 -0.00523065 0.02849302
v -0.02075020 -0.03133595 0.00125556
v -0.02020251 -0.02987040 0.01077641
v -0.01747979 0.00299552 0.03419869
v -0.01603282 0.03187231 -0.00628391
v -0.01861337 -0.02060952 0.01731556
v -0.01467045 -0.03442691 0.00697822
v -0.01525550 -0.01106006 -0.02547469
v -0.01743035 -0.03408545 0.00529320
v -0.00377571 -0.01163120 0.02217373
v -0.00826360 -0.02416564 -0.00805906
v -0.00918111 -0.02788305 0.01113844
v -0.01016182 0.00042672 0.03169453
v -0.01255403 0.00502407 0.03493642
v -0.00674453 -0.03048120 0.00084288
v -0.00693029 0.00797723 0.03180955
v -0.00612394 -0.01283023 -0.02363550
v -0.00624811 0.03443311 -0.00490576
v -0.00705639 -0.03381257 0.00648532
v -0.00747053 -0.00689519 -0.03170684
v -0.00120605 -0.00508394 -0.03360845
v 0.00480905 0.02367325 0.01095555
v -0.00525317 -0.03315235 0.00470911
v -0.00622221 0.00593329 0.03451462
v 0.00123448 0.03279636 -0.00725963
v 0.00500274 0.00939022 -0.02433718
v -0.00388691 0.00418780 0.03390240
v 0.00487952 -0.00147768 -0.03220588
v 0.00329253 -0.02527060 0.01184961
v 0.00121658 -0.00636299 -0.03201457
v 0.00525061 -0.01975387 -0.01331443
v 0.00913311 0.02096915 -0.01636579
v 0.00800155 0.00141604 0.03075029
v 0.00331086 0.00877836 0.03132897
v -0.00005144 -0.03351387 0.00605055
v 0.00037695 0.00609701 0.03438060
v 0.00398914 -0.03187196 0.00711538
v 0.01043544 -0.02562673 -0.00495421
v 0.00900138 -0.03270654 0.00562761
v 0.00933509 -0.03126405 0.00268533
v 0.01450055 -0.01286892 -0.02217210
v 0.00986715 0.03441416 -0.00361561
v 0.01199299 -0.00861071 0.02316252
v 0.00834941 0.00604315 0.03402990
v 0.00447650 0.00657342 0.03422434
v 0.00997412 -0.00558084 -0.03240335
v 0.01560046 0.03214216 -0.00907325
v 0.01330734 0.03570500 -0.00583662
v 0.01297016 -0.00362072 -0.03427263
v 0.00926024 0.00712105 0.03377927
v 0.01768424 -0.03022205 0.00686071
v 0.02070166 -0.01939282 0.01458904
v 0.01654372 0.01054525 0.02982770
v 0.01494542 0.00745366 0.03364858
v 0.01865872 0.02059777 0.01615953
v 0.01758613 0.02962014 0.00359511
v 0.01736874 0.00549371 0.03276305
v 0.01910896 0.00155989 -0.03154076
v 0.02230799 -0.02711217 -0.00240291
v 0.02003459 -0.00496507 -0.03239993
v 0.01950865 0.01475886 -0.02194355
v 0.01937236 0.03471367 -0.00343846
v 0.02154837 -0.01763801 -0.01540357
v 0.02296933 -0.03188249 0.00456227
v 0.02192212 0.00974533 0.03134498
v 0.02223239 0.00762116 0.03351692
v 0.02333488 -0.01252842 -0.02217948
v 0.02279270 -0.00203953 0.02694984
v 0.02255389 0.02373976 0.01166218
v 0.02433941 0.00245132 0.02991576
v 0.02204145 0.00702815 -0.02763220
v 0.02145724 0.03219055 -0.00913480
v 0.02181110 0.02516446 -0.01376048
v 0.02167333 0.03237599 -0.00070291
v 0.02131895 0.03565586 -0.00598385
v 0.02293854 -0.00803051 -0.02814703
v 0.02238908 -0.00125962 -0.03363951
v 0.02212192 0.01674755 -0.01985052
v 0.02242359 -0.00318097 -0.03377453
v 0.02366063 0.01488202 0.02397863
v 0.02258925 0.01908332 -0.01108305
v 0.02213150 0.02993726 -0.00574295
v 0.02243119 0.02863713 0.00068096
v 0.02584726 -0.02800920 0.00772517
v 0.02464024 -0.02215416 -0.00884414
v 0.02486810 -0.00875694 0.02176397
v 0.02272509 0.01117213 -0.01992009
v 0.02453123 -0.01656160 -0.01593829
v 0.02303830 -0.00430535 -0.03155721
v 0.02351127 -0.00168182 -0.02187727
v 0.02283441 0.00320277 -0.02776847
v 0.02372414 0.00190780 -0.01101525
v 0.02323399 0.01342008 -0.00367658
v 0.02360474 0.01497429 0.00757343
v 0.02365083 0.01746151 0.01583287
v 0.02618298 -0.02140104 0.01205580
v 0.02369894 -0.00894961 -0.02571655
v 0.02468669 -0.00323456 0.00525990
v 0.02485852 -0.01401172 -0.01047503
v 0.02504027 0.00571311 0.03159778
v 0.02597009 -0.03061282 0.00294265
v 0.02601822 -0.02798202 0.00005682
v 0.02565693 -0.00797996 0.02174963
v 0.02485401 0.00439993 0.02042911
v 0.02476963 0.00825078 0.03241296
v 0.02486809 0.00861854 0.02819525
v 0.02574901 -0.02439196 -0.00413385
v 0.02582806 -0.01570552 0.01638476
v 0.02540060 -0.00793289 0.01494422
v 0.02537424 -0.00058465 0.02605530
v 0.02642594 -0.03095246 0.00498694
v 0.02592775 -0.02164731 0.00326764
v 0.02643918 -0.02674494 0.00516996
f 88 65 98
f 111 117 77
f 1 9 2
f 61 58 67
f 133 126 116
f 27 39 41
f 30 51 54
f 15 1 5
f 164 163 151
f 125 88 123
f 132 134 104
f 67 62 74
f 18 6 8
f 139 106 119
f 64 57 47
f 167 168 157
f 16 3 22
f 65 48 61
f 75 32 76
f 141 98 107
f 9 11 12
f 35 18 8
f 131 115 134
f 130 127 103
f 107 65 84
f 142 146 126
f 160 161 135
f 103 102 80
f 56 41 48
f 30 45 51
f 40 26 20
f 13 10 11
f 66 55 72
f 62 53 52
f 77 44 89
f 152 131 144
f 167 157 162
f 21 13 9
f 5 6 18
f 83 76 32
f 86 72 96
f 44 28 43
f 91 82 88
f 100 91 99
f 37 14 30
f 147 154 145
f 124 111 110
f 59 33 56
f 136 148 147
f 89 71 79
f 140 118 143
f 85 75 76
f 151 107 139
f 143 118 122
f 34 25 16
f 77 34 44
f 124 150 138
f 31 14 37
f 22 3 27
f 30 36 45
f 117 97 77
f 55 29 26
f 47 36 29
f 103 127 102
f 65 67 84
f 142 147 145
f 42 43 28
f 40 20 32
f 66 47 55
f 144 131 134
f 72 55 63
f 27 3 31
f 97 103 73
f 166 139 119
f 126 146 132
f 61 48 46
f 126 132 113
f 132 104 113
f 79 71 69
f 59 56 65
f 93 86 96
f 136 147 142
f 101 85 76
f 136 128 127
f 93 66 86
f 65 61 67
f 69 49 59
f 117 103 97
f 12 11 19
f 8 6 7
f 3 14 31
f 162 140 143
f 130 137 127
f 109 120 108
f 81 21 24
f 83 104 76
f 149 148 136
f 7 4 3
f 68 59 65
f 138 150 149
f 69 68 82
f 153 167 154
f 120 160 135
f 107 84 106
f 157 114 140
f 2 9 12
f 155 125 165
f 125 123 141
f 161 165 159
f 165 125 141
f 90 74 78
f 155 165 161
f 4 2 3
f 55 26 63
f 97 73 50
f 54 51 53
f 21 9 15
f 11 20 19
f 39 31 48
f 90 78 94
f 50 35 17
f 158 141 163
f 151 167 164
f 57 45 36
f 116 87 102
f 95 70 93
f 100 89 91
f 138 136 137
f 153 164 167
f 121 109 112
f 53 51 52
f 145 154 152
f 60 24 5
f 133 116 128
f 41 39 48
f 94 78 95
f 123 98 141
f 34 50 17
f 136 142 133
f 123 88 98
f 146 144 132
f 112 88 125
f 38 37 46
f 58 54 53
f 14 2 12
f 49 43 42
f 83 32 21
f 4 1 2
f 30 29 36
f 25 7 16
f 44 23 28
f 137 136 127
f 115 101 104
f 6 5 4
f 120 110 108
f 67 90 92
f 78 70 95
f 71 44 43
f 9 13 11
f 109 99 112
f 95 93 114
f 131 96 115
f 142 145 146
f 98 65 107
f 35 60 18
f 46 58 61
f 67 74 90
f 86 66 72
f 93 96 118
f 72 40 75
f 138 149 136
f 135 124 110
f 88 82 68
f 133 142 126
f 49 42 33
f 116 81 87
f 72 75 85
f 69 59 68
f 96 85 101
f 166 156 157
f 129 137 130
f 52 45 64
f 150 161 159
f 91 89 79
f 57 36 47
f 77 50 34
f 32 20 10
f 52 51 45
f 84 67 92
f 167 151 168
f 79 69 82
f 1 15 9
f 27 31 39
f 34 16 44
f 7 3 16
f 149 153 148
f 73 35 50
f 128 116 102
f 121 112 125
f 69 71 43
f 74 62 78
f 144 134 132
f 26 19 20
f 165 158 164
f 145 144 146
f 70 47 66
f 91 79 82
f 72 63 40
f 17 35 8
f 124 129 111
f 113 104 83
f 127 128 102
f 63 26 40
f 5 1 4
f 37 54 46
f 33 41 56
f 96 101 115
f 30 14 29
f 24 15 5
f 60 5 18
f 47 29 55
f 34 17 25
f 126 113 116
f 119 95 114
f 17 8 7
f 128 136 133
f 70 64 47
f 135 110 120
f 13 32 10
f 101 76 104
f 77 97 50
f 87 81 24
f 162 157 140
f 67 58 62
f 154 162 143
f 48 38 46
f 89 44 71
f 119 114 156
f 163 107 151
f 165 164 159
f 135 161 150
f 12 29 14
f 69 43 49
f 153 154 147
f 103 80 73
f 159 164 153
f 160 155 161
f 116 113 81
f 151 139 168
f 94 95 119
f 109 105 99
f 28 22 27
f 140 93 118
f 115 104 134
f 156 114 157
f 64 45 57
f 159 153 149
f 96 72 85
f 121 155 160
f 81 83 21
f 124 138 129
f 75 40 32
f 110 111 77
f 25 17 7
f 130 117 129
f 139 166 168
f 108 77 89
f 143 122 152
f 121 125 155
f 154 143 152
f 37 30 54
f 108 105 109
f 106 94 119
f 91 88 99
f 122 96 131
f 78 62 70
f 21 15 24
f 141 158 165
f 58 53 62
f 12 19 29
f 121 120 109
f 113 83 81
f 10 20 11
f 49 33 59
f 158 163 164
f 105 100 99
f 112 99 88
f 21 32 13
f 105 89 100
f 167 162 154
f 152 144 145
f 28 33 42
f 114 93 140
f 80 24 60
f 62 52 64
f 110 77 108
f 153 147 148
f 108 89 105
f 23 22 28
f 121 160 120
f 33 27 41
f 28 27 33
f 141 107 163
f 23 16 22
f 107 106 139
f 48 31 38
f 29 19 26
f 166 119 156
f 56 48 65
f 150 159 149
f 135 150 124
f 152 122 131
f 130 103 117
f 7 6 4
f 129 138 137
f 46 54 58
f 84 94 106
f 129 117 111
f 73 60 35
f 88 68 65
f 92 90 94
f 94 84 92
f 118 96 122
f 87 24 80
f 62 64 70
f 70 66 93
f 168 166 157
f 102 87 80
f 31 37 38
f 44 16 23
f 3 2 14
f 73 80 60

