# https://github.com/mikedh/trimesh
v -0.00165590 0.04440873 0.08729775
v -0.00383356 0.04429283 0.08729775
v -0.00165590 0.03886374 0.08729775
v -0.00165590 0.04449253 0.08623537
v -0.00296188 0.04446400 0.08581764
v -0.00380603 0.04434811 0.08668268
v -0.00623449 0.04418942 0.08681425
v -0.00623449 0.04414663 0.08729775
v -0.03289863 0.03161959 0.08729775
v -0.03289863 0.02653639 0.05369947
v -0.00165590 0.03631946 0.05369947
v -0.00165590 0.04459772 0.08455463
v -0.00380603 0.04449787 0.08438359
v -0.00451255 0.04441764 0.08508746
v -0.00855897 0.04403431 0.08681425
v -0.00855897 0.04399330 0.08729775
v -0.00611521 0.04435880 0.08438359
v -0.03289863 0.03825753 0.08729775
v -0.03289863 0.03377518 0.05369947
v -0.00165590 0.04211763 0.05369947
v -0.00165590 0.04460128 0.08448555
v -0.00391002 0.04460307 0.08216673
v -0.00526189 0.04446222 0.08353501
v -0.00855897 0.04418586 0.08448885
v -0.01088344 0.04386492 0.08681425
v -0.01088344 0.04382035 0.08729775
v -0.00693184 0.04442121 0.08216673
v -0.03215848 0.03861769 0.08729775
v -0.03289863 0.03830389 0.08681425
v -0.03289863 0.03460604 0.05660376
v -0.03244903 0.03486992 0.05660376
v -0.03228999 0.03412642 0.05369947
v -0.00205045 0.04209445 0.05369947
v -0.00165590 0.04228701 0.05459411
v -0.00165590 0.04471361 0.08216673
v -0.00391002 0.04464764 0.07984133
v -0.00736003 0.04444795 0.08033141
v -0.00576960 0.04449253 0.08216673
v -0.01088344 0.04400935 0.08448885
v -0.01320791 0.04380074 0.08448885
v -0.01320791 0.04364919 0.08681425
v -0.01320791 0.04360105 0.08729775
v -0.00855897 0.04429640 0.08216673
v -0.03179757 0.03879064 0.08729775
v -0.03179757 0.03883878 0.08681425
v -0.03289863 0.03845723 0.08448885
v -0.03289863 0.03503930 0.05812662
v -0.03281300 0.03507318 0.05807070
v -0.03128680 0.03551713 0.05660376
v -0.03170887 0.03461317 0.05423560
v -0.03173028 0.03444914 0.05369947
v -0.00378768 0.04198391 0.05369947
v -0.00391002 0.04221747 0.05496249
v -0.00391002 0.04252949 0.05660376
v -0.00165590 0.04266143 0.05660376
v -0.00165590 0.04475105 0.07984133
v -0.00391002 0.04459237 0.07751922
v -0.00739979 0.04445152 0.07867041
v -0.00644553 0.04450679 0.07967030
v -0.01320791 0.04389523 0.08216673
v -0.01088344 0.04409671 0.08216673
v -0.00739979 0.04445152 0.07878224
v -0.00832958 0.04436950 0.07967030
v -0.01320791 0.04394516 0.07984133
v -0.01553238 0.04363849 0.08216673
v -0.01553238 0.04353151 0.08448885
v -0.01553238 0.04336570 0.08681425
v -0.01553238 0.04331578 0.08729775
v -0.03045794 0.03938436 0.08729775
v -0.03010621 0.03958940 0.08681425
v -0.03030501 0.03966607 0.08448885
v -0.03179757 0.03899033 0.08448885
v -0.03289863 0.03854637 0.08216673
v -0.03289863 0.03512310 0.05843250
v -0.03194132 0.03577922 0.05887983
v -0.03087390 0.03528713 0.05498223
v -0.03027749 0.03730365 0.06125127
v -0.02944863 0.03707365 0.05878773
v -0.03053441 0.03510527 0.05369947
v -0.00626202 0.04180383 0.05369947
v -0.00627120 0.04194112 0.05440334
v -0.00552186 0.04216221 0.05526181
v -0.00165590 0.04267391 0.05667283
v -0.00627120 0.04232980 0.05645575
v -0.00623449 0.04277554 0.05892916
v -0.00391002 0.04293422 0.05892916
v -0.00165590 0.04468152 0.07751922
v -0.00533223 0.04446578 0.07607530
v -0.00615803 0.04448896 0.07774617
v -0.00687984 0.04442299 0.07712124
v -0.00855897 0.04423756 0.07519381
v -0.00832958 0.04435346 0.07774617
v -0.01088344 0.04414485 0.07751922
v -0.01320791 0.04393268 0.07751922
v -0.01553238 0.04368663 0.07984133
v -0.01785380 0.04328546 0.08216673
v -0.01785380 0.04318205 0.08448885
v -0.01785380 0.04301089 0.08681425
v -0.01785380 0.04295740 0.08729775
v -0.03003892 0.03956444 0.08729775
v -0.02894397 0.04005118 0.08681425
v -0.02914278 0.04014033 0.08448885
v -0.02923759 0.04018491 0.08216673
v -0.03039983 0.03970351 0.08216673
v -0.03179757 0.03907769 0.08216673
v -0.03289863 0.03854815 0.08100568
v -0.03289863 0.03539233 0.05945542
v -0.03179757 0.03648527 0.06125127
v -0.02947310 0.03645853 0.05660376
v -0.03058640 0.03745342 0.06252416
v -0.02911525 0.03787242 0.06125127
v -0.02865953 0.03764419 0.05946857
v -0.02822522 0.03743737 0.05791941
v -0.03017350 0.03529070 0.05369947
v -0.00855897 0.04160414 0.05369947
v -0.00855897 0.04171825 0.05427836
v -0.00707253 0.04210158 0.05558085
v -0.00165590 0.04305368 0.05892916
v -0.00855897 0.04257941 0.05892916
v -0.00855897 0.04296453 0.06125127
v -0.00623449 0.04314640 0.06125127
v -0.00165590 0.04306438 0.05899495
v -0.00391002 0.04328725 0.06125127
v -0.00165590 0.04456206 0.07526288
v -0.00433210 0.04442656 0.07452612
v -0.00615803 0.04437841 0.07525960
v -0.00623449 0.04424113 0.07286841
v -0.01088344 0.04406997 0.07519381
v -0.00855897 0.04411276 0.07286841
v -0.01088344 0.04395764 0.07286841
v -0.01320791 0.04386136 0.07519381
v -0.01553238 0.04365810 0.07751922
v -0.01785380 0.04332647 0.07984133
v -0.02017521 0.04285756 0.08216673
v -0.02017521 0.04275236 0.08448885
v -0.02017521 0.04257407 0.08681425
v -0.02018744 0.04251879 0.08729775
v -0.02887669 0.04002444 0.08729775
v -0.02714863 0.04086243 0.08448885
v -0.02745754 0.04052545 0.08729775
v -0.02714863 0.04068235 0.08681425
v -0.02714863 0.04094980 0.08216673
v -0.02714863 0.04096762 0.07984133
v -0.02923453 0.04018847 0.07984133
v -0.03039677 0.03970173 0.07984133
v -0.03179757 0.03907947 0.07984133
v -0.03289863 0.03854994 0.07984133
v -0.03289863 0.03585946 0.06125127
v -0.03289863 0.03612690 0.06235312
v -0.03289863 0.03641396 0.06353721
v -0.03173334 0.03704512 0.06341222
v -0.02784597 0.03726086 0.05660376
v -0.02960156 0.03573108 0.05423560
v -0.03091672 0.03762458 0.06407662
v -0.02967802 0.03809350 0.06341222
v -0.02714863 0.03876567 0.06125127
v -0.02732908 0.03807745 0.05878773
v -0.02668373 0.03780288 0.05660376
v -0.02970554 0.03552783 0.05369947
v -0.01088344 0.04135987 0.05369947
v -0.01088344 0.04147577 0.05427836
v -0.01013104 0.04217112 0.05752800
v -0.00855897 0.04203205 0.05594923
v -0.00855897 0.04224779 0.05711028
v -0.01088344 0.04274344 0.06125127
v -0.01089567 0.04232623 0.05883049
v -0.01088344 0.04309291 0.06357668
v -0.00855897 0.04329795 0.06357668
v -0.00623449 0.04346376 0.06357668
v -0.00165590 0.04338353 0.06125127
v -0.00165590 0.04339244 0.06132034
v -0.00391002 0.04358679 0.06357668
v -0.00165590 0.04455850 0.07519710
v -0.00278449 0.04445152 0.07401302
v -0.00369899 0.04436237 0.07309207
v -0.00391002 0.04419299 0.07054630
v -0.00623449 0.04409493 0.07054630
v -0.00855897 0.04397190 0.07054630
v -0.01320791 0.04375082 0.07286841
v -0.01088344 0.04381857 0.07054630
v -0.01553238 0.04358322 0.07519381
v -0.01785380 0.04329082 0.07751922
v -0.02017521 0.04288965 0.07984133
v -0.02234676 0.04237616 0.08216673
v -0.02213266 0.04232088 0.08448885
v -0.02175340 0.04222996 0.08681425
v -0.02165553 0.04220499 0.08729775
v -0.02061564 0.04243143 0.08729775
v -0.02482415 0.04159522 0.08448885
v -0.02482415 0.04169150 0.08216673
v -0.02714863 0.04062886 0.08729775
v -0.02531046 0.04120476 0.08729775
v -0.02482415 0.04140979 0.08681425
v -0.02482415 0.04171646 0.07984133
v -0.02482415 0.04167724 0.07751922
v -0.02714863 0.04091235 0.07751922
v -0.02915501 0.04014746 0.07751922
v -0.03031725 0.03967320 0.07751922
v -0.03179757 0.03901885 0.07751922
v -0.03289863 0.03851962 0.07868027
v -0.03289863 0.03695776 0.06589879
v -0.03245209 0.03721272 0.06589879
v -0.02622801 0.03759071 0.05503814
v -0.02705993 0.03698450 0.05427178
v -0.02943334 0.03566333 0.05369947
v -0.03128985 0.03781893 0.06589879
v -0.02947310 0.03869792 0.06589879
v -0.02701405 0.03934335 0.06361285
v -0.02573253 0.03970707 0.06286623
v -0.02528599 0.03953413 0.06125127
v -0.02464982 0.03928986 0.05906073
v -0.02482415 0.03861769 0.05660376
v -0.01320791 0.04107282 0.05369947
v -0.01320791 0.04118871 0.05427836
v -0.01320791 0.04163623 0.05660376
v -0.01168171 0.04208732 0.05798848
v -0.01089567 0.04193220 0.05669256
v -0.01320791 0.04282546 0.06357668
v -0.01277972 0.04222460 0.05953765
v -0.01341589 0.04239755 0.06103748
v -0.01320791 0.04315174 0.06589879
v -0.01088344 0.04339422 0.06589879
v -0.00855897 0.04357430 0.06589879
v -0.00623449 0.04371516 0.06589879
v -0.00165590 0.04367237 0.06357668
v -0.00391002 0.04382392 0.06589879
v -0.00165590 0.04367950 0.06364574
v -0.00165590 0.04447113 0.07370385
v -0.00165590 0.04439981 0.07254279
v -0.00165590 0.04427144 0.07054630
v -0.00391002 0.04402361 0.06822418
v -0.00623449 0.04392376 0.06822418
v -0.00855897 0.04379360 0.06822418
v -0.01320791 0.04360639 0.07054630
v -0.01553238 0.04346197 0.07286841
v -0.01088344 0.04363493 0.06822418
v -0.01785380 0.04321415 0.07519381
v -0.02017521 0.04284329 0.07751922
v -0.02239569 0.04238864 0.07984133
v -0.02350899 0.04208910 0.08216673
v -0.02329490 0.04203562 0.08448885
v -0.02291564 0.04194112 0.08681425
v -0.02242016 0.04201422 0.08729775
v -0.02355793 0.04209980 0.07984133
v -0.02482415 0.04135631 0.08729775
v -0.02345700 0.04207484 0.07751922
v -0.02482415 0.04156491 0.07519381
v -0.02714863 0.04078754 0.07519381
v -0.02901126 0.04008149 0.07519381
v -0.03017350 0.03961436 0.07519381
v -0.03289863 0.03848575 0.07751922
v -0.03179757 0.03889405 0.07519381
v -0.03289863 0.03732505 0.06769136
v -0.03277630 0.03738032 0.06761900
v -0.02491897 0.03795622 0.05427178
v -0.02552761 0.03753187 0.05369947
v -0.02581817 0.03740350 0.05369947
v -0.02610873 0.03726799 0.05369947
v -0.02708134 0.03680977 0.05369947
v -0.03191991 0.03794730 0.06832615
v -0.02947310 0.03909196 0.06822418
v -0.02762575 0.03951986 0.06589879
v -0.02615155 0.03986932 0.06441540
v -0.02375979 0.03983901 0.05992576
v -0.02325514 0.03966428 0.05837659
v -0.02249051 0.03949669 0.05649193
v -0.02249968 0.03894218 0.05427836
v -0.01495127 0.04078933 0.05369947
v -0.01553238 0.04081072 0.05427836
v -0.01553238 0.04127251 0.05660376
v -0.01341589 0.04201422 0.05883049
v -0.01433039 0.04212119 0.06012311
v -0.01553238 0.04249205 0.06357668
v -0.01553238 0.04282190 0.06589879
v -0.01553238 0.04222282 0.06184661
v -0.01553238 0.04309825 0.06822418
v -0.01320791 0.04341562 0.06822418
v -0.00165590 0.04390593 0.06589879
v -0.00165590 0.04410384 0.06829326
v -0.00165590 0.04409849 0.06822418
v -0.01553238 0.04330508 0.07054630
v -0.01785380 0.04308399 0.07286841
v -0.02017521 0.04276306 0.07519381
v -0.02229476 0.04236368 0.07751922
v -0.02279330 0.04191972 0.08729775
v -0.02209290 0.04232088 0.07519381
v -0.02325514 0.04201956 0.07519381
v -0.02296458 0.04193933 0.07286841
v -0.02482415 0.04138840 0.07286841
v -0.02714863 0.04060033 0.07286841
v -0.02877270 0.03998878 0.07286841
v -0.02993493 0.03951630 0.07286841
v -0.03289863 0.03842513 0.07639434
v -0.03289863 0.03835203 0.07519381
v -0.03179757 0.03867296 0.07286841
v -0.03289863 0.03825397 0.07416103
v -0.03289863 0.03744451 0.06835575
v -0.02471099 0.03788489 0.05369947
v -0.03289863 0.03756753 0.06906620
v -0.03179757 0.03836451 0.07054630
v -0.02936911 0.03945033 0.07039829
v -0.02805089 0.03969816 0.06822418
v -0.02646658 0.03999413 0.06589879
v -0.02490368 0.04014746 0.06361285
v -0.02412375 0.03997095 0.06125127
v -0.02482415 0.04056824 0.06589879
v -0.02249051 0.04006723 0.05906073
v -0.02170753 0.03992460 0.05719580
v -0.02117840 0.03975878 0.05564334
v -0.02249968 0.04050762 0.06125127
v -0.02064011 0.03958940 0.05427836
v -0.02044742 0.03950382 0.05369947
v -0.02179317 0.03903490 0.05369947
v -0.02249968 0.03878350 0.05369947
v -0.01553238 0.04069126 0.05369947
v -0.01785380 0.04080538 0.05660376
v -0.01785380 0.04125646 0.05892916
v -0.01670685 0.04213011 0.06239917
v -0.01553238 0.04170576 0.05892916
v -0.01553238 0.04202135 0.06068226
v -0.01797614 0.04236724 0.06584287
v -0.01785380 0.04268283 0.06822418
v -0.01714728 0.04221926 0.06357668
v -0.01785380 0.04291105 0.07054630
v -0.02017521 0.04262577 0.07286841
v -0.02180234 0.04224957 0.07286841
v -0.02153013 0.04217825 0.07115150
v -0.02238346 0.04187872 0.07044762
v -0.02482415 0.04116375 0.07054630
v -0.02735355 0.04024909 0.07039829
v -0.02852496 0.03988715 0.07106927
v -0.03289863 0.03800792 0.07200667
v -0.03289863 0.03812203 0.07286841
v -0.03289863 0.03771194 0.06997400
v -0.03289863 0.03780288 0.07054630
v -0.02826498 0.03978552 0.06952339
v -0.02688865 0.04015994 0.06822418
v -0.02482415 0.04089452 0.06822418
v -0.02249968 0.04093375 0.06357668
v -0.02249968 0.04130282 0.06589879
v -0.02017521 0.04070731 0.05892916
v -0.02031284 0.04017421 0.05649193
v -0.01947787 0.03992816 0.05427836
v -0.01924848 0.03986575 0.05369947
v -0.02017521 0.04115483 0.06125127
v -0.01727574 0.04032576 0.05369947
v -0.01785380 0.04032398 0.05427836
v -0.01762747 0.04176817 0.06147493
v -0.02017521 0.04156491 0.06357668
v -0.01830646 0.04197678 0.06357668
v -0.01883252 0.04208910 0.06503046
v -0.01930353 0.04218717 0.06657963
v -0.01974396 0.04228880 0.06822418
v -0.02035566 0.04238329 0.07044762
v -0.02124875 0.04210693 0.06960562
v -0.02249968 0.04160770 0.06822418
v -0.02090620 0.04203383 0.06822418
v -0.02011710 0.04191616 0.06584287
v -0.01779874 0.04021343 0.05369947
f 1 2 8
f 1 8 16
f 1 16 26
f 1 26 42
f 1 42 68
f 1 68 99
f 1 99 137
f 1 137 188
f 1 188 187
f 1 187 243
f 1 243 285
f 1 285 245
f 1 245 192
f 1 192 191
f 1 191 140
f 1 140 138
f 1 138 100
f 1 100 69
f 1 69 44
f 1 44 28
f 1 28 18
f 1 18 9
f 1 9 3
f 1 3 11
f 1 11 20
f 1 20 34
f 1 34 55
f 1 55 83
f 1 83 118
f 1 118 122
f 1 122 170
f 1 170 171
f 1 171 225
f 1 225 227
f 1 227 278
f 1 278 280
f 1 280 279
f 1 279 230
f 1 230 229
f 1 229 228
f 1 228 173
f 1 173 124
f 1 124 87
f 1 87 56
f 1 56 35
f 1 35 21
f 1 21 12
f 1 12 4
f 1 4 5
f 1 5 6
f 1 6 2
f 2 6 7
f 2 7 8
f 3 9 10
f 3 10 11
f 4 12 5
f 5 12 13
f 5 13 14
f 5 14 7
f 5 7 6
f 7 15 16
f 7 16 8
f 7 14 17
f 7 17 15
f 9 18 29
f 9 29 46
f 9 46 73
f 9 73 106
f 9 106 147
f 9 147 200
f 9 200 251
f 9 251 293
f 9 293 294
f 9 294 296
f 9 296 333
f 9 333 332
f 9 332 335
f 9 335 334
f 9 334 299
f 9 299 297
f 9 297 253
f 9 253 201
f 9 201 150
f 9 150 149
f 9 149 148
f 9 148 107
f 9 107 74
f 9 74 47
f 9 47 30
f 9 30 19
f 9 19 10
f 10 19 32
f 10 32 51
f 10 51 79
f 10 79 114
f 10 114 159
f 10 159 205
f 10 205 259
f 10 259 258
f 10 258 257
f 10 257 256
f 10 256 298
f 10 298 314
f 10 314 313
f 10 313 312
f 10 312 344
f 10 344 359
f 10 359 346
f 10 346 315
f 10 315 268
f 10 268 213
f 10 213 160
f 10 160 115
f 10 115 80
f 10 80 52
f 10 52 33
f 10 33 20
f 10 20 11
f 12 21 13
f 13 21 22
f 13 22 23
f 13 23 14
f 14 23 17
f 15 17 24
f 15 24 25
f 15 25 16
f 16 25 26
f 17 23 27
f 17 27 24
f 18 28 29
f 19 30 31
f 19 31 32
f 20 33 34
f 21 35 22
f 22 35 36
f 22 36 37
f 22 37 38
f 22 38 23
f 23 38 27
f 24 27 39
f 24 39 25
f 25 39 40
f 25 40 41
f 25 41 26
f 26 41 42
f 27 43 39
f 27 38 37
f 27 37 43
f 28 44 45
f 28 45 29
f 29 45 46
f 30 47 31
f 31 47 48
f 31 48 49
f 31 49 50
f 31 50 51
f 31 51 32
f 33 52 53
f 33 53 54
f 33 54 34
f 34 54 55
f 35 56 36
f 36 56 57
f 36 57 58
f 36 58 59
f 36 59 37
f 37 60 61
f 37 61 43
f 37 59 62
f 37 62 63
f 37 63 64
f 37 64 60
f 39 43 61
f 39 61 60
f 39 60 40
f 40 60 65
f 40 65 66
f 40 66 41
f 41 66 67
f 41 67 42
f 42 67 68
f 44 69 70
f 44 70 45
f 45 70 71
f 45 71 72
f 45 72 46
f 46 72 73
f 47 74 48
f 48 74 75
f 48 75 49
f 49 76 50
f 49 75 77
f 49 77 78
f 49 78 76
f 50 76 51
f 51 76 79
f 52 80 81
f 52 81 82
f 52 82 53
f 53 82 54
f 54 83 55
f 54 82 84
f 54 84 85
f 54 85 86
f 54 86 83
f 56 87 57
f 57 87 88
f 57 88 89
f 57 89 58
f 58 62 59
f 58 89 90
f 58 90 91
f 58 91 92
f 58 92 93
f 58 93 64
f 58 64 62
f 60 64 65
f 62 64 63
f 64 93 94
f 64 94 95
f 64 95 65
f 65 96 97
f 65 97 66
f 65 95 96
f 66 97 67
f 67 97 98
f 67 98 68
f 68 98 99
f 69 100 70
f 70 100 101
f 70 101 102
f 70 102 71
f 71 102 103
f 71 103 104
f 71 104 105
f 71 105 72
f 72 105 73
f 73 105 106
f 74 107 108
f 74 108 75
f 75 108 77
f 76 78 109
f 76 109 79
f 77 108 110
f 77 110 111
f 77 111 112
f 77 112 78
f 78 113 109
f 78 112 113
f 79 109 114
f 80 115 116
f 80 116 81
f 81 116 117
f 81 117 82
f 82 117 84
f 83 86 118
f 84 117 119
f 84 119 85
f 85 119 120
f 85 120 121
f 85 121 86
f 86 122 118
f 86 121 123
f 86 123 122
f 87 124 125
f 87 125 88
f 88 126 91
f 88 91 90
f 88 90 89
f 88 125 127
f 88 127 126
f 91 128 92
f 91 126 129
f 91 129 130
f 91 130 128
f 92 128 93
f 93 128 131
f 93 131 94
f 94 131 132
f 94 132 95
f 95 132 133
f 95 133 96
f 96 134 97
f 96 133 134
f 97 134 135
f 97 135 98
f 98 135 136
f 98 136 137
f 98 137 99
f 100 138 101
f 101 139 102
f 101 138 140
f 101 140 141
f 101 141 139
f 102 139 142
f 102 142 103
f 103 142 143
f 103 143 144
f 103 144 104
f 104 144 145
f 104 145 146
f 104 146 105
f 105 146 147
f 105 147 106
f 107 148 108
f 108 148 149
f 108 149 150
f 108 150 151
f 108 151 110
f 109 152 153
f 109 153 114
f 109 113 152
f 110 151 154
f 110 154 155
f 110 155 111
f 111 155 156
f 111 156 112
f 112 156 157
f 112 157 158
f 112 158 113
f 113 158 152
f 114 153 159
f 115 160 161
f 115 161 116
f 116 161 162
f 116 162 163
f 116 163 117
f 117 163 164
f 117 164 119
f 119 165 120
f 119 164 162
f 119 162 166
f 119 166 165
f 120 165 167
f 120 167 168
f 120 168 121
f 121 168 169
f 121 169 123
f 122 123 170
f 123 171 170
f 123 169 172
f 123 172 171
f 124 173 125
f 125 174 175
f 125 175 176
f 125 176 177
f 125 177 127
f 125 173 174
f 126 127 129
f 127 177 178
f 127 178 129
f 128 130 179
f 128 179 131
f 129 178 180
f 129 180 130
f 130 180 179
f 131 179 181
f 131 181 132
f 132 181 182
f 132 182 133
f 133 182 183
f 133 183 134
f 134 184 185
f 134 185 135
f 134 183 184
f 135 185 186
f 135 186 136
f 136 186 187
f 136 187 188
f 136 188 137
f 139 141 189
f 139 189 190
f 139 190 142
f 140 191 141
f 141 191 192
f 141 192 193
f 141 193 189
f 142 190 194
f 142 194 143
f 143 194 195
f 143 195 196
f 143 196 144
f 144 196 197
f 144 197 198
f 144 198 145
f 145 198 199
f 145 199 146
f 146 199 200
f 146 200 147
f 150 201 202
f 150 202 151
f 151 202 154
f 152 158 203
f 152 203 204
f 152 204 205
f 152 205 153
f 153 205 159
f 154 202 206
f 154 206 155
f 155 206 207
f 155 207 208
f 155 208 156
f 156 208 209
f 156 209 210
f 156 210 211
f 156 211 212
f 156 212 157
f 157 212 158
f 158 212 203
f 160 213 214
f 160 214 161
f 161 214 215
f 161 215 216
f 161 216 217
f 161 217 162
f 162 164 163
f 162 217 216
f 162 216 166
f 165 218 167
f 165 166 219
f 165 219 220
f 165 220 218
f 166 216 219
f 167 218 221
f 167 221 222
f 167 222 168
f 168 222 223
f 168 223 169
f 169 223 224
f 169 224 172
f 171 172 225
f 172 224 226
f 172 226 227
f 172 227 225
f 173 228 174
f 174 228 229
f 174 229 175
f 175 229 176
f 176 229 230
f 176 230 231
f 176 231 177
f 177 231 232
f 177 232 178
f 178 232 233
f 178 233 180
f 179 180 234
f 179 234 235
f 179 235 181
f 180 233 236
f 180 236 234
f 181 235 237
f 181 237 182
f 182 237 238
f 182 238 183
f 183 239 184
f 183 238 239
f 184 240 241
f 184 241 185
f 184 239 240
f 185 241 186
f 186 241 242
f 186 242 187
f 187 242 243
f 189 241 240
f 189 240 190
f 189 193 241
f 190 240 244
f 190 244 194
f 192 245 193
f 193 242 241
f 193 245 242
f 194 244 195
f 195 244 246
f 195 246 247
f 195 247 196
f 196 247 248
f 196 248 249
f 196 249 197
f 197 249 250
f 197 250 198
f 198 250 199
f 199 251 200
f 199 250 252
f 199 252 251
f 201 253 254
f 201 254 202
f 202 254 206
f 203 212 255
f 203 255 256
f 203 256 257
f 203 257 258
f 203 258 204
f 204 258 259
f 204 259 205
f 206 254 260
f 206 260 207
f 207 260 261
f 207 261 262
f 207 262 208
f 208 262 263
f 208 263 209
f 209 264 210
f 209 263 264
f 210 264 211
f 211 264 265
f 211 265 212
f 212 265 266
f 212 266 267
f 212 267 255
f 213 268 269
f 213 269 214
f 214 269 270
f 214 270 215
f 215 271 216
f 215 270 272
f 215 272 271
f 216 271 219
f 218 273 274
f 218 274 221
f 218 220 275
f 218 275 273
f 219 272 220
f 219 271 272
f 220 272 275
f 221 274 276
f 221 276 277
f 221 277 222
f 222 277 236
f 222 236 223
f 223 236 233
f 223 233 224
f 224 233 232
f 224 232 226
f 226 232 231
f 226 231 278
f 226 278 227
f 230 279 231
f 231 279 280
f 231 280 278
f 234 281 235
f 234 236 277
f 234 277 281
f 235 281 282
f 235 282 237
f 237 282 283
f 237 283 238
f 238 284 239
f 238 283 284
f 239 244 240
f 239 284 246
f 239 246 244
f 242 245 285
f 242 285 243
f 246 284 286
f 246 286 287
f 246 287 247
f 247 287 288
f 247 288 289
f 247 289 248
f 248 289 290
f 248 290 291
f 248 291 249
f 249 291 250
f 250 291 292
f 250 292 252
f 251 252 293
f 252 294 293
f 252 292 295
f 252 295 296
f 252 296 294
f 253 297 254
f 254 297 260
f 255 267 298
f 255 298 256
f 260 297 299
f 260 299 300
f 260 300 261
f 261 300 301
f 261 301 302
f 261 302 262
f 262 302 303
f 262 303 263
f 263 304 305
f 263 305 264
f 263 303 306
f 263 306 304
f 264 307 308
f 264 308 309
f 264 309 265
f 264 305 310
f 264 310 307
f 265 309 266
f 266 309 267
f 267 311 312
f 267 312 313
f 267 313 314
f 267 314 298
f 267 309 311
f 268 315 269
f 269 316 270
f 269 315 316
f 270 316 317
f 270 317 318
f 270 318 319
f 270 319 272
f 272 320 318
f 272 318 275
f 272 319 320
f 273 275 318
f 273 318 274
f 274 321 322
f 274 322 276
f 274 318 323
f 274 323 321
f 276 322 324
f 276 324 281
f 276 281 277
f 281 324 282
f 282 324 325
f 282 325 283
f 283 325 286
f 283 286 284
f 286 325 326
f 286 326 287
f 287 326 288
f 288 326 327
f 288 327 328
f 288 328 289
f 289 328 329
f 289 329 290
f 290 329 330
f 290 330 331
f 290 331 291
f 291 331 292
f 292 331 301
f 292 301 295
f 295 301 300
f 295 300 332
f 295 332 333
f 295 333 296
f 299 334 300
f 300 334 335
f 300 335 332
f 301 331 336
f 301 336 302
f 302 337 303
f 302 336 337
f 303 337 338
f 303 338 306
f 304 306 339
f 304 339 310
f 304 310 305
f 306 338 340
f 306 340 339
f 307 310 308
f 308 341 309
f 308 310 341
f 309 341 342
f 309 342 343
f 309 343 344
f 309 344 311
f 310 339 345
f 310 345 341
f 311 344 312
f 315 346 316
f 316 341 317
f 316 346 347
f 316 347 344
f 316 344 343
f 316 343 341
f 317 341 345
f 317 345 348
f 317 348 318
f 318 320 319
f 318 348 349
f 318 349 350
f 318 350 323
f 321 323 351
f 321 351 352
f 321 352 322
f 322 352 353
f 322 353 354
f 322 354 324
f 323 350 351
f 324 354 325
f 325 354 327
f 325 327 326
f 327 354 355
f 327 355 328
f 328 355 356
f 328 356 329
f 329 356 338
f 329 338 330
f 330 338 337
f 330 337 331
f 331 337 336
f 338 356 340
f 339 349 345
f 339 340 349
f 340 356 357
f 340 357 358
f 340 358 349
f 341 343 342
f 344 347 359
f 345 349 348
f 346 359 347
f 349 358 351
f 349 351 350
f 351 358 352
f 352 357 353
f 352 358 357
f 353 357 355
f 353 355 354
f 355 357 356

