# https://github.com/mikedh/trimesh
v 0.02594345 0.01877393 -0.01843129
v 0.02257157 0.01877393 -0.00385097
v 0.02594345 0.01877393 -0.03557918
v 0.02594345 0.02440863 -0.02338149
v 0.01942463 0.02469927 -0.00385097
v 0.01401592 0.01877393 -0.00385097
v 0.02594345 0.02497478 -0.02391492
v 0.02594345 0.02526657 -0.02422075
v 0.02594345 0.02597803 -0.02512402
v 0.02453259 0.01877393 -0.03416382
v 0.00096360 0.02215336 -0.03404291
v 0.00096360 0.02251955 -0.03636865
v 0.00096360 0.02334377 -0.04070718
v 0.00096360 0.02381575 -0.04317517
v 0.00096360 0.02525378 -0.05030886
v 0.00096360 0.02668135 -0.05727897
v 0.00096360 0.02718472 -0.05960471
v 0.00096360 0.02996430 -0.07122629
v 0.00096360 0.03063507 -0.07395744
v 0.00096360 0.03065018 -0.07401434
v 0.02594345 0.03065018 -0.07649654
v 0.01842211 0.02604197 -0.00385097
v 0.02594345 0.02628028 -0.02560055
v 0.00096360 0.02218126 -0.00385097
v 0.00096360 0.02178716 -0.00615537
v 0.00096360 0.02150467 -0.00825352
v 0.00096360 0.02147561 -0.00848822
v 0.00096360 0.02133611 -0.01060770
v 0.00096360 0.02128612 -0.01259916
v 0.01389855 0.01877393 -0.00615537
v 0.02234661 0.01877393 -0.03174562
v 0.02030734 0.01877393 -0.02945544
v 0.00096360 0.02212778 -0.03382242
v 0.00096360 0.03065018 -0.04852366
v 0.02594345 0.03065018 -0.05490344
v 0.00559475 0.02856463 -0.00385097
v 0.02594345 0.02652093 -0.02639002
v 0.02594345 0.03064669 -0.05355209
v 0.00096360 0.02836932 -0.00385097
v 0.00096360 0.02128380 -0.01294056
v 0.01395234 0.01877393 -0.00848111
v 0.00096360 0.02129077 -0.01545122
v 0.00096360 0.02188598 -0.03171717
v 0.01850769 0.01877393 -0.02699457
v 0.00113721 0.02842629 -0.00385097
v 0.00115188 0.02842978 -0.00385097
v 0.00306400 0.02876225 -0.00385097
v 0.00272168 0.03065018 -0.04749948
v 0.02569160 0.03065018 -0.05333873
v 0.01402081 0.01877393 -0.01079974
v 0.01416263 0.01877393 -0.01312548
v 0.00096360 0.02136866 -0.02193057
v 0.00096360 0.02186738 -0.03149669
v 0.01751740 0.01877393 -0.02474706
v 0.00096360 0.02170230 -0.02939854
v 0.02564514 0.03065018 -0.05329605
v 0.02437365 0.03065018 -0.05219363
v 0.02400444 0.03065018 -0.05187358
v 0.02107023 0.03065018 -0.04934158
v 0.02012884 0.03065018 -0.04864457
v 0.01933172 0.03065018 -0.04810403
v 0.01892582 0.03065018 -0.04783376
v 0.01773257 0.03065018 -0.04725055
v 0.01682542 0.03065018 -0.04702295
v 0.01516270 0.03065018 -0.04667445
v 0.01468345 0.03065018 -0.04658199
v 0.01238743 0.03065018 -0.04624059
v 0.01003763 0.03065018 -0.04616947
v 0.00771227 0.03065018 -0.04634728
v 0.00538936 0.03065018 -0.04671001
v 0.00420590 0.03065018 -0.04702295
v 0.00335009 0.03065018 -0.04727188
v 0.01441937 0.01877393 -0.01545122
v 0.00096360 0.02146398 -0.02451947
v 0.01570064 0.01877393 -0.02025206
v 0.00096360 0.02157094 -0.02707280
v 0.01494997 0.01877393 -0.01777696
v 0.00096360 0.02156048 -0.02684521
f 1 2 6
f 1 6 30
f 1 30 41
f 1 41 50
f 1 50 51
f 1 51 73
f 1 73 77
f 1 77 75
f 1 75 54
f 1 54 44
f 1 44 32
f 1 32 31
f 1 31 10
f 1 10 3
f 1 3 21
f 1 21 35
f 1 35 38
f 1 38 37
f 1 37 23
f 1 23 9
f 1 9 8
f 1 8 7
f 1 7 4
f 1 4 2
f 2 5 22
f 2 22 36
f 2 36 47
f 2 47 46
f 2 46 45
f 2 45 39
f 2 39 24
f 2 24 6
f 2 4 7
f 2 7 8
f 2 8 9
f 2 9 5
f 3 10 11
f 3 11 12
f 3 12 13
f 3 13 14
f 3 14 15
f 3 15 16
f 3 16 17
f 3 17 18
f 3 18 19
f 3 19 20
f 3 20 21
f 5 9 23
f 5 23 22
f 6 24 25
f 6 25 26
f 6 26 27
f 6 27 28
f 6 28 29
f 6 29 30
f 10 31 11
f 11 31 32
f 11 32 33
f 11 33 43
f 11 43 53
f 11 53 55
f 11 55 76
f 11 76 78
f 11 78 74
f 11 74 52
f 11 52 42
f 11 42 40
f 11 40 29
f 11 29 28
f 11 28 27
f 11 27 26
f 11 26 25
f 11 25 24
f 11 24 39
f 11 39 34
f 11 34 20
f 11 20 19
f 11 19 18
f 11 18 17
f 11 17 16
f 11 16 15
f 11 15 14
f 11 14 13
f 11 13 12
f 20 34 48
f 20 48 72
f 20 72 71
f 20 71 70
f 20 70 69
f 20 69 68
f 20 68 67
f 20 67 66
f 20 66 65
f 20 65 64
f 20 64 63
f 20 63 62
f 20 62 61
f 20 61 60
f 20 60 59
f 20 59 58
f 20 58 57
f 20 57 56
f 20 56 49
f 20 49 35
f 20 35 21
f 22 23 37
f 22 37 38
f 22 38 36
f 29 40 30
f 30 40 42
f 30 42 41
f 32 43 33
f 32 44 43
f 34 39 45
f 34 45 46
f 34 46 47
f 34 47 48
f 35 49 38
f 36 38 47
f 38 49 47
f 41 42 50
f 42 51 50
f 42 52 51
f 43 44 53
f 44 54 55
f 44 55 53
f 47 49 56
f 47 56 57
f 47 57 58
f 47 58 59
f 47 59 60
f 47 60 61
f 47 61 62
f 47 62 63
f 47 63 64
f 47 64 65
f 47 65 66
f 47 66 67
f 47 67 68
f 47 68 69
f 47 69 70
f 47 70 71
f 47 71 72
f 47 72 48
f 51 52 73
f 52 74 73
f 54 75 55
f 55 75 76
f 73 74 77
f 74 78 77
f 75 77 76
f 76 77 78

