# https://github.com/mikedh/trimesh
v 0.00786746 0.04306413 -0.10376485
v 0.00786746 0.04305275 -0.10391975
v 0.00771152 0.04306128 -0.10376485
v 0.00771152 0.04288210 -0.10144038
v 0.00786746 0.04289632 -0.10159624
v 0.00786746 0.04290770 -0.10573076
v 0.00784347 0.04290770 -0.10573076
v 0.00771152 0.04290486 -0.10573076
v 0.00735167 0.04289632 -0.10573076
v 0.00538451 0.04300582 -0.10376485
v 0.00538451 0.04283802 -0.10144038
v 0.00538451 0.04251094 -0.09911686
v 0.00771152 0.04255076 -0.09911686
v 0.00786746 0.04257351 -0.09927271
v 0.00786746 0.04288210 -0.10144038
v 0.00786746 0.03598078 -0.10573076
v 0.00502466 0.04281953 -0.10573076
v 0.00306349 0.04292903 -0.10376485
v 0.00306349 0.04275981 -0.10144038
v 0.00306349 0.04243984 -0.09911686
v 0.00306349 0.04219240 -0.09759557
v 0.00538451 0.04222653 -0.09745406
v 0.00771152 0.04224217 -0.09738617
v 0.00786746 0.04226350 -0.09750187
v 0.00786746 0.04255076 -0.09911686
v 0.00786746 0.03590541 -0.09596337
v -0.04141368 0.02853764 -0.10570781
v -0.04137170 0.02854475 -0.10573076
v 0.00306349 0.04273847 -0.10573076
v 0.00073647 0.04281953 -0.10376485
v 0.00073647 0.04266026 -0.10144038
v 0.00055055 0.04230616 -0.09889884
v 0.00120428 0.04215827 -0.09777246
v 0.00055055 0.04198193 -0.09691572
v 0.00306349 0.04198051 -0.09643381
v 0.00538451 0.04199615 -0.09629134
v 0.00771152 0.04200611 -0.09622345
v 0.00786746 0.04224217 -0.09738521
v 0.00786746 0.04194496 -0.09596337
v -0.04359076 0.02853764 -0.09596337
v -0.04143168 0.02853764 -0.10573076
v 0.00270364 0.04272141 -0.10573076
v -0.00159054 0.04267448 -0.10376485
v -0.00159054 0.04252658 -0.10144038
v 0.00073647 0.04261618 -0.10573076
v -0.00812777 0.04218813 -0.10518765
v -0.00159054 0.04226492 -0.09935208
v -0.00159054 0.04209428 -0.09818936
v -0.00034307 0.04212272 -0.09797805
v -0.00159054 0.04186105 -0.09679334
v -0.00159054 0.04169894 -0.09596337
v -0.00028310 0.04175724 -0.09596337
v 0.00062252 0.04179280 -0.09596337
v 0.00250572 0.04186532 -0.09596337
v 0.00306349 0.04187954 -0.09596337
v 0.00496468 0.04191794 -0.09596337
v 0.00538451 0.04192363 -0.09596337
v 0.00736367 0.04194354 -0.09596337
v 0.00771152 0.04194496 -0.09596337
v 0.00786746 0.04194922 -0.09598058
v 0.00786746 0.04200611 -0.09622345
v -0.05265893 0.02853764 -0.09596337
v -0.05223310 0.02853764 -0.10573076
v -0.00391156 0.04251805 -0.10376485
v -0.00794185 0.04216822 -0.10224739
v -0.00391156 0.04236731 -0.10144038
v -0.00521301 0.04213694 -0.10020690
v -0.00391156 0.04218529 -0.09986077
v -0.00473921 0.04230900 -0.10573076
v -0.00623857 0.04225781 -0.10550702
v -0.00743207 0.04211276 -0.10573076
v -0.00854760 0.04201606 -0.10573076
v -0.01356747 0.04151407 -0.10573076
v -0.01553464 0.04130929 -0.10573076
v -0.01588849 0.04127089 -0.10573076
v -0.01785566 0.04130929 -0.10376485
v -0.01553464 0.04155673 -0.10376485
v -0.01320762 0.04178853 -0.10376485
v -0.01088661 0.04199757 -0.10376485
v -0.00951319 0.04211134 -0.10376485
v -0.00835568 0.04220377 -0.10376485
v -0.00623857 0.04236020 -0.10376485
v -0.00623857 0.04220520 -0.10573076
v -0.00391156 0.04201891 -0.09869900
v -0.00391156 0.04172027 -0.09679334
v -0.00241819 0.04165770 -0.09596337
v -0.05218512 0.02927996 -0.09596337
v -0.05223910 0.02949327 -0.09681915
v -0.05284485 0.02853764 -0.09680672
v -0.05299478 0.02853764 -0.10386047
v -0.05202319 0.02894578 -0.10573076
v -0.00676035 0.04207863 -0.10069934
v -0.00608864 0.04221515 -0.10145950
v -0.01320762 0.04161645 -0.10144038
v -0.01088661 0.04182977 -0.10144038
v -0.00865555 0.04201891 -0.10145950
v -0.00855959 0.04170605 -0.09911686
v -0.00608864 0.04193642 -0.09930618
v -0.00589072 0.04223080 -0.10573076
v -0.01785566 0.04104763 -0.10573076
v -0.02018267 0.04103909 -0.10376485
v -0.02250369 0.04065229 -0.10144038
v -0.02018267 0.04091538 -0.10144038
v -0.01785566 0.04115713 -0.10144038
v -0.01553464 0.04138893 -0.10144038
v -0.00623857 0.04153824 -0.09679334
v -0.00623857 0.04139177 -0.09596337
v -0.00473921 0.04150838 -0.09596337
v -0.00391156 0.04156668 -0.09596337
v -0.05146543 0.03027542 -0.09596337
v -0.05163936 0.03060960 -0.09761183
v -0.05274289 0.02934538 -0.09911686
v -0.05324068 0.02853764 -0.09911686
v -0.05340261 0.02853764 -0.10144038
v -0.05237705 0.02956296 -0.10395992
v -0.05153140 0.03048162 -0.10486542
v -0.05129750 0.03012894 -0.10573076
v -0.01320762 0.04127800 -0.09911686
v -0.01088661 0.04149700 -0.09911686
v -0.02018267 0.04061389 -0.09911686
v -0.01553464 0.04105758 -0.09911686
v -0.00855959 0.04133631 -0.09679334
v -0.01821550 0.04100497 -0.10573076
v -0.02018267 0.04075326 -0.10573076
v -0.02250369 0.04072908 -0.10376485
v -0.02482471 0.04036361 -0.10144038
v -0.02836321 0.03981184 -0.10018682
v -0.02770349 0.03973505 -0.09863780
v -0.02482471 0.04012755 -0.09911686
v -0.02250369 0.04038068 -0.09911686
v -0.00855959 0.04118984 -0.09596337
v -0.05141145 0.03034652 -0.09596337
v -0.05142345 0.03036501 -0.09606186
v -0.05133948 0.03041762 -0.09596337
v -0.05033791 0.03163065 -0.09697118
v -0.04925236 0.03284937 -0.09787956
v -0.05057181 0.03193640 -0.09911686
v -0.05177130 0.03077314 -0.09911686
v -0.05290482 0.02934538 -0.10144038
v -0.05175331 0.03073901 -0.10331640
v -0.05047585 0.03176717 -0.10405170
v -0.04917440 0.03279533 -0.10478701
v -0.05011000 0.03138464 -0.10573076
v -0.02328336 0.03984740 -0.09596337
v -0.02420697 0.03975496 -0.09596337
v -0.02116626 0.04004080 -0.09596337
v -0.02053652 0.04070491 -0.10573076
v -0.02662395 0.03992419 -0.10531387
v -0.02482471 0.04039774 -0.10376485
v -0.02714572 0.04004507 -0.10144038
v -0.02853114 0.03984171 -0.10144038
v -0.02968865 0.03964262 -0.10144038
v -0.03179375 0.03925724 -0.10144038
v -0.03179375 0.03911787 -0.09911686
v -0.02927482 0.03957578 -0.09929375
v -0.02947274 0.03925439 -0.09679334
v -0.02701378 0.03960280 -0.09694633
v -0.02615614 0.03982180 -0.09782410
v -0.02482471 0.03989006 -0.09734409
v -0.02482471 0.03972368 -0.09618138
v -0.05019996 0.03146427 -0.09596337
v -0.04940830 0.03297167 -0.09911686
v -0.04917440 0.03236871 -0.09596337
v -0.04897048 0.03265170 -0.09633055
v -0.04814284 0.03334994 -0.09697980
v -0.04806487 0.03383487 -0.09911686
v -0.05070375 0.03203310 -0.10144038
v -0.05185526 0.03087126 -0.10144038
v -0.04942029 0.03297736 -0.10323704
v -0.04885054 0.03255500 -0.10573076
v -0.04826279 0.03354619 -0.10391306
v -0.04607371 0.03477770 -0.10376485
v -0.04768703 0.03328737 -0.10573076
v -0.02511858 0.03966111 -0.09596337
v -0.02555040 0.03997965 -0.10573076
v -0.02625810 0.03985593 -0.10573076
v -0.02698979 0.03972083 -0.10573076
v -0.02982659 0.03911361 -0.10573076
v -0.02817729 0.03977629 -0.10463402
v -0.02730166 0.03999814 -0.10382126
v -0.02854313 0.03984455 -0.10308501
v -0.03412077 0.03877231 -0.10144038
v -0.03412077 0.03864432 -0.09911686
v -0.03179375 0.03884484 -0.09679334
v -0.02947274 0.03913778 -0.09596337
v -0.02799137 0.03933545 -0.09596337
v -0.02706776 0.03945491 -0.09596337
v -0.04954025 0.03306837 -0.10144038
v -0.04889252 0.03259766 -0.09596337
v -0.04866461 0.03275125 -0.09596337
v -0.04784896 0.03327173 -0.09596337
v -0.04625963 0.03416052 -0.09596337
v -0.04564789 0.03468953 -0.09675223
v -0.04625364 0.03485734 -0.09911686
v -0.04806487 0.03400267 -0.10144038
v -0.04639157 0.03492844 -0.10144038
v -0.04491020 0.03529392 -0.10376485
v -0.04459234 0.03516309 -0.10494765
v -0.04555193 0.03441507 -0.10573076
v -0.04571386 0.03432975 -0.10573076
v -0.03179375 0.03868556 -0.10573076
v -0.03215360 0.03860450 -0.10573076
v -0.03412077 0.03859171 -0.10376485
v -0.03179375 0.03912356 -0.10376485
v -0.02938278 0.03961418 -0.10382126
v -0.03644179 0.03820917 -0.10144038
v -0.03644179 0.03810109 -0.09911686
v -0.03412077 0.03836133 -0.09679334
v -0.03179375 0.03872680 -0.09596337
v -0.04568388 0.03447480 -0.09596337
v -0.04441841 0.03507634 -0.09596337
v -0.04481424 0.03525836 -0.09749900
v -0.04509013 0.03536787 -0.09911686
v -0.04523407 0.03542475 -0.10144038
v -0.04341684 0.03586986 -0.10376485
v -0.04144967 0.03603197 -0.10573076
v -0.04344682 0.03533942 -0.10573076
v -0.04425048 0.03502514 -0.10573076
v -0.04537801 0.03450467 -0.10573076
v -0.03576408 0.03773988 -0.10573076
v -0.03644179 0.03764176 -0.10547642
v -0.03763528 0.03748675 -0.10495339
v -0.03644179 0.03800297 -0.10376485
v -0.03798913 0.03758914 -0.10376485
v -0.03836098 0.03769153 -0.10144038
v -0.03818705 0.03764603 -0.09911686
v -0.03786919 0.03755501 -0.09751908
v -0.03654375 0.03777259 -0.09676369
v -0.03412077 0.03823192 -0.09596337
v -0.04438243 0.03509198 -0.09596337
v -0.04329089 0.03551292 -0.09596337
v -0.04353679 0.03558402 -0.09675223
v -0.04341684 0.03600637 -0.09911686
v -0.04341684 0.03611872 -0.10144038
v -0.04108982 0.03666195 -0.10376485
v -0.04108982 0.03615427 -0.10573076
v -0.03625587 0.03761474 -0.10573076
v -0.03915264 0.03724784 -0.10376485
v -0.03708352 0.03739290 -0.10573076
v -0.03840895 0.03700751 -0.10573076
v -0.03951849 0.03736161 -0.10144038
v -0.03935055 0.03730899 -0.09911686
v -0.04108982 0.03678567 -0.09911686
v -0.04108982 0.03644437 -0.09679334
v -0.03869084 0.03717816 -0.09676369
v -0.03872082 0.03702600 -0.09596337
v -0.03739538 0.03741565 -0.09596337
v -0.03738939 0.03741849 -0.09597006
v -0.03626786 0.03771428 -0.09596337
v -0.04108982 0.03628226 -0.09596337
v -0.04108982 0.03689517 -0.10144038
f 1 2 3
f 1 3 4
f 1 4 5
f 1 5 15
f 1 15 14
f 1 14 25
f 1 25 24
f 1 24 38
f 1 38 61
f 1 61 60
f 1 60 39
f 1 39 26
f 1 26 16
f 1 16 6
f 1 6 2
f 2 6 7
f 2 7 8
f 2 8 9
f 2 9 10
f 2 10 3
f 3 10 11
f 3 11 4
f 4 11 12
f 4 12 13
f 4 13 14
f 4 14 15
f 4 15 5
f 6 16 28
f 6 28 41
f 6 41 63
f 6 63 91
f 6 91 117
f 6 117 143
f 6 143 170
f 6 170 173
f 6 173 200
f 6 200 199
f 6 199 219
f 6 219 218
f 6 218 217
f 6 217 216
f 6 216 236
f 6 236 240
f 6 240 239
f 6 239 237
f 6 237 220
f 6 220 202
f 6 202 201
f 6 201 178
f 6 178 177
f 6 177 176
f 6 176 175
f 6 175 147
f 6 147 124
f 6 124 123
f 6 123 100
f 6 100 75
f 6 75 74
f 6 74 73
f 6 73 72
f 6 72 71
f 6 71 83
f 6 83 99
f 6 99 69
f 6 69 45
f 6 45 42
f 6 42 29
f 6 29 17
f 6 17 9
f 6 9 8
f 6 8 7
f 9 17 10
f 10 17 18
f 10 18 11
f 11 18 19
f 11 19 20
f 11 20 12
f 12 20 21
f 12 21 22
f 12 22 13
f 13 22 23
f 13 23 24
f 13 24 25
f 13 25 14
f 16 26 27
f 16 27 28
f 17 29 18
f 18 29 30
f 18 30 31
f 18 31 19
f 19 31 32
f 19 32 20
f 20 32 33
f 20 33 21
f 21 33 34
f 21 34 35
f 21 35 22
f 22 35 36
f 22 36 23
f 23 36 37
f 23 37 38
f 23 38 24
f 26 39 59
f 26 59 58
f 26 58 57
f 26 57 56
f 26 56 55
f 26 55 54
f 26 54 53
f 26 53 52
f 26 52 51
f 26 51 86
f 26 86 109
f 26 109 108
f 26 108 107
f 26 107 131
f 26 131 146
f 26 146 144
f 26 144 145
f 26 145 174
f 26 174 187
f 26 187 186
f 26 186 185
f 26 185 209
f 26 209 229
f 26 229 249
f 26 249 247
f 26 247 246
f 26 246 250
f 26 250 231
f 26 231 230
f 26 230 211
f 26 211 210
f 26 210 192
f 26 192 191
f 26 191 190
f 26 190 189
f 26 189 163
f 26 163 161
f 26 161 134
f 26 134 132
f 26 132 110
f 26 110 87
f 26 87 62
f 26 62 40
f 26 40 27
f 27 41 28
f 27 40 62
f 27 62 89
f 27 89 113
f 27 113 114
f 27 114 90
f 27 90 63
f 27 63 41
f 29 42 30
f 30 43 44
f 30 44 31
f 30 42 45
f 30 45 46
f 30 46 43
f 31 44 47
f 31 47 32
f 32 47 48
f 32 48 49
f 32 49 33
f 33 49 34
f 34 49 50
f 34 50 51
f 34 51 52
f 34 52 53
f 34 53 54
f 34 54 35
f 35 54 55
f 35 55 56
f 35 56 36
f 36 56 57
f 36 57 37
f 37 57 58
f 37 58 59
f 37 59 60
f 37 60 61
f 37 61 38
f 39 60 59
f 43 64 65
f 43 65 44
f 43 46 64
f 44 66 67
f 44 67 68
f 44 68 47
f 44 65 66
f 45 69 70
f 45 70 46
f 46 71 72
f 46 72 73
f 46 73 74
f 46 74 75
f 46 75 76
f 46 76 77
f 46 77 78
f 46 78 79
f 46 79 80
f 46 80 81
f 46 81 82
f 46 82 64
f 46 70 83
f 46 83 71
f 47 68 84
f 47 84 48
f 48 84 85
f 48 85 50
f 48 50 49
f 50 85 86
f 50 86 51
f 62 87 88
f 62 88 89
f 63 90 91
f 64 82 65
f 65 92 67
f 65 67 93
f 65 93 66
f 65 82 81
f 65 81 80
f 65 80 79
f 65 79 78
f 65 78 94
f 65 94 95
f 65 95 96
f 65 96 92
f 66 93 67
f 67 92 97
f 67 97 98
f 67 98 84
f 67 84 68
f 69 99 70
f 70 99 83
f 75 100 76
f 76 100 101
f 76 101 102
f 76 102 103
f 76 103 77
f 77 103 104
f 77 104 105
f 77 105 78
f 78 105 94
f 84 98 106
f 84 106 85
f 85 106 107
f 85 107 108
f 85 108 109
f 85 109 86
f 87 110 111
f 87 111 88
f 88 112 89
f 88 111 112
f 89 112 113
f 90 114 115
f 90 115 116
f 90 116 91
f 91 116 117
f 92 96 95
f 92 95 97
f 94 118 119
f 94 119 95
f 94 105 120
f 94 120 121
f 94 121 118
f 95 119 97
f 97 119 122
f 97 122 106
f 97 106 98
f 100 123 101
f 101 123 124
f 101 124 125
f 101 125 126
f 101 126 102
f 102 126 127
f 102 127 128
f 102 128 129
f 102 129 103
f 103 129 130
f 103 130 104
f 104 130 120
f 104 120 105
f 106 122 131
f 106 131 107
f 110 132 133
f 110 133 111
f 111 133 134
f 111 134 135
f 111 135 136
f 111 136 137
f 111 137 138
f 111 138 112
f 112 139 114
f 112 114 113
f 112 138 139
f 114 139 140
f 114 140 115
f 115 140 116
f 116 140 141
f 116 141 142
f 116 142 143
f 116 143 117
f 118 121 144
f 118 144 119
f 119 144 122
f 120 130 145
f 120 145 144
f 120 144 121
f 122 144 146
f 122 146 131
f 124 147 125
f 125 147 148
f 125 148 149
f 125 149 150
f 125 150 126
f 126 150 127
f 127 150 151
f 127 151 152
f 127 152 153
f 127 153 154
f 127 154 155
f 127 155 128
f 128 155 156
f 128 156 157
f 128 157 158
f 128 158 129
f 129 158 130
f 130 158 159
f 130 159 160
f 130 160 145
f 132 134 133
f 134 161 135
f 135 161 136
f 136 162 137
f 136 161 163
f 136 163 164
f 136 164 165
f 136 165 166
f 136 166 162
f 137 167 138
f 137 162 188
f 137 188 167
f 138 167 168
f 138 168 139
f 139 168 140
f 140 167 169
f 140 169 141
f 140 168 167
f 141 169 142
f 142 170 143
f 142 169 171
f 142 171 172
f 142 172 173
f 142 173 170
f 145 160 174
f 147 175 148
f 148 175 176
f 148 176 177
f 148 177 178
f 148 178 179
f 148 179 149
f 149 179 180
f 149 180 181
f 149 181 151
f 149 151 150
f 151 181 152
f 152 181 153
f 153 181 182
f 153 182 183
f 153 183 154
f 154 184 156
f 154 156 155
f 154 183 184
f 156 185 186
f 156 186 157
f 156 184 185
f 157 187 158
f 157 186 187
f 158 187 174
f 158 174 160
f 158 160 159
f 162 166 188
f 163 189 164
f 164 189 190
f 164 190 165
f 165 191 192
f 165 192 193
f 165 193 194
f 165 194 166
f 165 190 191
f 166 194 195
f 166 195 188
f 167 188 169
f 169 188 195
f 169 195 171
f 171 195 196
f 171 196 172
f 172 196 197
f 172 197 198
f 172 198 199
f 172 199 200
f 172 200 173
f 178 201 179
f 179 181 180
f 179 201 202
f 179 202 203
f 179 203 204
f 179 204 205
f 179 205 181
f 181 205 204
f 181 204 182
f 182 203 206
f 182 206 207
f 182 207 183
f 182 204 203
f 183 207 208
f 183 208 184
f 184 209 185
f 184 208 209
f 192 210 193
f 193 210 211
f 193 211 212
f 193 212 194
f 194 196 195
f 194 212 213
f 194 213 196
f 196 213 214
f 196 214 197
f 197 214 215
f 197 215 198
f 198 215 216
f 198 216 217
f 198 217 218
f 198 218 219
f 198 219 199
f 202 220 221
f 202 221 222
f 202 222 203
f 203 222 223
f 203 223 206
f 206 223 224
f 206 224 225
f 206 225 226
f 206 226 207
f 207 226 227
f 207 227 208
f 208 227 228
f 208 228 229
f 208 229 209
f 211 230 212
f 212 230 231
f 212 231 232
f 212 232 233
f 212 233 213
f 213 233 234
f 213 234 214
f 214 234 215
f 215 234 235
f 215 235 216
f 216 235 236
f 220 237 221
f 221 237 222
f 222 238 224
f 222 224 223
f 222 237 239
f 222 239 240
f 222 240 236
f 222 236 235
f 222 235 238
f 224 238 241
f 224 241 225
f 225 241 226
f 226 241 242
f 226 242 227
f 227 242 243
f 227 243 244
f 227 244 245
f 227 245 246
f 227 246 247
f 227 247 248
f 227 248 249
f 227 249 228
f 228 249 229
f 231 250 232
f 232 250 244
f 232 244 233
f 233 244 243
f 233 243 234
f 234 243 251
f 234 251 235
f 235 251 238
f 238 251 241
f 241 251 242
f 242 251 243
f 244 250 246
f 244 246 245
f 247 249 248

