# https://github.com/mikedh/trimesh
v 0.05440224 -0.02147005 -0.10142281
v 0.05432394 -0.02179850 -0.10142281
v 0.04816772 -0.02147005 -0.10142281
v 0.04706581 -0.02147005 -0.07364295
v 0.05365700 -0.02432379 -0.10142281
v 0.02478105 -0.03725312 -0.10142281
v 0.02478105 -0.02147005 -0.03668386
v 0.05307994 -0.02643531 -0.10142281
v 0.05348301 -0.02497858 -0.10142281
v 0.04666564 -0.02147005 -0.07215084
v 0.02478105 -0.04325708 -0.10142281
v 0.02478105 -0.02147005 -0.02162212
v 0.05255218 -0.02813093 -0.10142281
v 0.04647426 -0.02147005 -0.07151806
v 0.05234050 -0.02874732 -0.10142281
v 0.05239559 -0.02861722 -0.10142281
v 0.02630633 -0.04298194 -0.10142281
v 0.02478105 -0.04317176 -0.09911042
v 0.02478105 -0.02529851 -0.02811399
v 0.02552630 -0.02147005 -0.02249708
v 0.04599289 -0.02147005 -0.07008845
v 0.05127048 -0.03112118 -0.10142281
v 0.02863195 -0.04249352 -0.10142281
v 0.02630633 -0.04287317 -0.09911042
v 0.02478105 -0.04299047 -0.09679023
v 0.02506523 -0.02521746 -0.02832491
v 0.02741405 -0.02147005 -0.02474696
v 0.02690369 -0.02147005 -0.02412200
v 0.02478105 -0.02610472 -0.02956704
v 0.03466928 -0.02147005 -0.03692604
v 0.05051074 -0.03195512 -0.10074316
v 0.05121829 -0.03120436 -0.10142281
v 0.03095467 -0.04192618 -0.10142281
v 0.02863195 -0.04234422 -0.09911042
v 0.02630633 -0.04267268 -0.09679023
v 0.02478105 -0.04272173 -0.09446222
v 0.02899442 -0.02147005 -0.02669999
v 0.02567998 -0.02564403 -0.02987952
v 0.02478105 -0.02717328 -0.03171536
v 0.02639333 -0.02608340 -0.03168412
v 0.03412992 -0.02147005 -0.03558236
v 0.03277863 -0.02829942 -0.04798799
v 0.04900866 -0.03292130 -0.09911042
v 0.04949002 -0.03338626 -0.10142281
v 0.04961181 -0.03324763 -0.10142281
v 0.03227987 -0.04158493 -0.10142281
v 0.03213198 -0.04154440 -0.10024318
v 0.03100106 -0.04174915 -0.09932135
v 0.02863195 -0.04210107 -0.09679023
v 0.02630633 -0.04238901 -0.09446222
v 0.02478105 -0.04239114 -0.09214202
v 0.02722846 -0.02507456 -0.03088728
v 0.02775622 -0.02552032 -0.03243408
v 0.02996875 -0.02147005 -0.02805930
v 0.02638173 -0.02715622 -0.03387151
v 0.02478105 -0.03396000 -0.04568341
v 0.02720526 -0.02743349 -0.03557455
v 0.03357317 -0.02147005 -0.03439492
v 0.03241326 -0.02790271 -0.04618339
v 0.03163322 -0.02946183 -0.04798799
v 0.04818802 -0.03441430 -0.10072754
v 0.04936823 -0.03350783 -0.10142281
v 0.03343108 -0.04126073 -0.10142281
v 0.03305411 -0.04114769 -0.09932135
v 0.03180430 -0.04145056 -0.09868857
v 0.03022393 -0.04166598 -0.09679023
v 0.03560301 -0.04060168 -0.10142281
v 0.02990495 -0.04157639 -0.09539967
v 0.02868125 -0.04178968 -0.09456377
v 0.02786351 -0.04165318 -0.09214202
v 0.02752424 -0.04155933 -0.09088428
v 0.02630633 -0.04205415 -0.09214202
v 0.02478105 -0.04226743 -0.09137643
v 0.02823758 -0.02591490 -0.03404338
v 0.03173181 -0.02147005 -0.03080916
v 0.03101557 -0.02147005 -0.02966078
v 0.03092567 -0.02147005 -0.02952016
v 0.02762863 -0.03237529 -0.04658962
v 0.02478105 -0.03439296 -0.04658181
v 0.02496374 -0.03449961 -0.04705835
v 0.02631793 -0.03295116 -0.04575372
v 0.03297582 -0.02147005 -0.03312936
v 0.03006154 -0.03017206 -0.04631620
v 0.03047041 -0.03054105 -0.04798799
v 0.04739058 -0.03517572 -0.10142281
v 0.02915391 -0.03170345 -0.04798799
v 0.02799400 -0.03266536 -0.04798799
v 0.02622224 -0.03393440 -0.04789424
v 0.03560301 -0.04030095 -0.09911042
v 0.03138674 -0.04131405 -0.09679023
v 0.03792862 -0.03984025 -0.10142281
v 0.03078938 -0.04115196 -0.09456377
v 0.02948738 -0.04145269 -0.09385288
v 0.03328029 -0.04070406 -0.09679023
v 0.02902632 -0.04130552 -0.09214202
v 0.02478105 -0.03763489 -0.06313567
v 0.02478105 -0.03822569 -0.06657299
v 0.02933950 -0.02722234 -0.03869158
v 0.03248285 -0.02147005 -0.03211378
v 0.02478105 -0.03452307 -0.04690992
v 0.02478105 -0.03460198 -0.04723803
v 0.02478105 -0.03483660 -0.04826922
v 0.02539291 -0.03470650 -0.04861296
v 0.04732099 -0.03522264 -0.10142281
v 0.03914363 -0.03923880 -0.10016506
v 0.03796052 -0.03950540 -0.09927448
v 0.03560301 -0.03990424 -0.09679023
v 0.03939011 -0.03933264 -0.10142281
v 0.03095467 -0.04067420 -0.09214202
v 0.03328029 -0.04029455 -0.09446222
v 0.02565389 -0.03712514 -0.06192479
v 0.02531461 -0.03696945 -0.06041705
v 0.02478105 -0.03725098 -0.06101859
v 0.02630633 -0.03772874 -0.06657299
v 0.02478105 -0.03504562 -0.04934729
v 0.04004836 -0.03867146 -0.09927448
v 0.04257406 -0.03796335 -0.10142281
v 0.04421243 -0.03715074 -0.10142281
v 0.04388766 -0.03698011 -0.09996194
v 0.04536654 -0.03648955 -0.10142281
v 0.04538394 -0.03647889 -0.10142281
v 0.04053842 -0.03886981 -0.10142281
v 0.04055872 -0.03886128 -0.10142281
f 1 2 5
f 1 5 9
f 1 9 8
f 1 8 13
f 1 13 16
f 1 16 15
f 1 15 22
f 1 22 32
f 1 32 45
f 1 45 44
f 1 44 62
f 1 62 85
f 1 85 104
f 1 104 121
f 1 121 120
f 1 120 118
f 1 118 117
f 1 117 123
f 1 123 122
f 1 122 108
f 1 108 91
f 1 91 67
f 1 67 63
f 1 63 46
f 1 46 33
f 1 33 23
f 1 23 17
f 1 17 11
f 1 11 6
f 1 6 3
f 1 3 7
f 1 7 12
f 1 12 20
f 1 20 28
f 1 28 27
f 1 27 37
f 1 37 54
f 1 54 77
f 1 77 76
f 1 76 75
f 1 75 99
f 1 99 82
f 1 82 58
f 1 58 41
f 1 41 30
f 1 30 21
f 1 21 14
f 1 14 10
f 1 10 4
f 1 4 2
f 2 4 5
f 3 6 7
f 4 8 9
f 4 9 5
f 4 10 8
f 6 11 18
f 6 18 25
f 6 25 36
f 6 36 51
f 6 51 73
f 6 73 97
f 6 97 96
f 6 96 113
f 6 113 115
f 6 115 102
f 6 102 101
f 6 101 100
f 6 100 79
f 6 79 56
f 6 56 39
f 6 39 29
f 6 29 19
f 6 19 12
f 6 12 7
f 8 10 13
f 10 14 15
f 10 15 16
f 10 16 13
f 11 17 18
f 12 19 20
f 14 21 22
f 14 22 15
f 17 23 24
f 17 24 18
f 18 24 25
f 19 26 27
f 19 27 28
f 19 28 20
f 19 29 26
f 21 30 22
f 22 31 32
f 22 30 31
f 23 33 34
f 23 34 24
f 24 34 35
f 24 35 25
f 25 35 36
f 26 37 27
f 26 29 38
f 26 38 37
f 29 39 40
f 29 40 38
f 30 41 42
f 30 42 43
f 30 43 31
f 31 43 44
f 31 44 45
f 31 45 32
f 33 46 47
f 33 47 34
f 34 47 48
f 34 48 49
f 34 49 35
f 35 49 50
f 35 50 36
f 36 50 51
f 37 38 52
f 37 52 53
f 37 53 54
f 38 40 53
f 38 53 52
f 39 55 40
f 39 56 55
f 40 55 57
f 40 57 53
f 41 58 59
f 41 59 42
f 42 59 60
f 42 60 43
f 43 60 44
f 44 60 61
f 44 61 62
f 46 63 47
f 47 64 65
f 47 65 66
f 47 66 48
f 47 63 67
f 47 67 64
f 48 66 49
f 49 66 68
f 49 68 69
f 49 69 50
f 50 69 70
f 50 70 71
f 50 71 72
f 50 72 51
f 51 72 73
f 53 74 75
f 53 75 76
f 53 76 77
f 53 77 54
f 53 57 78
f 53 78 74
f 55 56 57
f 56 79 80
f 56 80 81
f 56 81 57
f 57 81 78
f 58 82 59
f 59 82 60
f 60 82 83
f 60 83 84
f 60 84 61
f 61 85 62
f 61 84 86
f 61 86 87
f 61 87 88
f 61 88 85
f 64 67 89
f 64 89 90
f 64 90 65
f 65 90 68
f 65 68 66
f 67 91 89
f 68 92 93
f 68 93 71
f 68 71 69
f 68 90 94
f 68 94 92
f 69 71 70
f 71 93 95
f 71 95 96
f 71 96 97
f 71 97 72
f 72 97 73
f 74 98 75
f 74 78 98
f 75 98 99
f 78 81 80
f 78 80 88
f 78 88 87
f 78 87 86
f 78 86 83
f 78 83 99
f 78 99 98
f 79 100 80
f 80 100 101
f 80 101 102
f 80 102 103
f 80 103 88
f 82 99 83
f 83 86 84
f 85 88 103
f 85 103 104
f 89 105 106
f 89 106 107
f 89 107 94
f 89 94 90
f 89 91 105
f 91 108 105
f 92 109 96
f 92 96 95
f 92 95 93
f 92 94 109
f 94 107 110
f 94 110 109
f 96 111 112
f 96 112 113
f 96 109 114
f 96 114 111
f 102 115 103
f 103 115 112
f 103 112 105
f 103 105 116
f 103 116 117
f 103 117 118
f 103 118 119
f 103 119 120
f 103 120 121
f 103 121 104
f 105 108 122
f 105 122 123
f 105 123 116
f 105 112 111
f 105 111 106
f 106 111 107
f 107 111 110
f 109 110 114
f 110 111 114
f 112 115 113
f 116 123 117
f 118 120 119

