# https://github.com/mikedh/trimesh
v -0.05067649 -0.01941237 0.07081444
v -0.04395395 -0.01941237 0.07081444
v -0.05094013 -0.01941237 0.07275502
v -0.05103693 -0.01927301 0.07291748
v -0.05149828 -0.01817925 0.07217284
v -0.05077948 -0.01920966 0.07081444
v -0.05021309 0.00215875 0.07081444
v -0.03526448 -0.01941237 0.10308228
v -0.05096072 -0.01941237 0.07291748
v -0.05104311 -0.01941237 0.07375690
v -0.05159096 -0.01837351 0.07372080
v -0.05196993 -0.01729875 0.07291748
v -0.05183605 -0.01699259 0.07081444
v -0.05139736 -0.01796388 0.07081444
v -0.05572047 0.00215875 0.07081444
v -0.04344111 0.00215875 0.10308228
v -0.03536746 -0.01941237 0.10540646
v -0.05115432 -0.01941237 0.07492577
v -0.05117698 -0.01941237 0.07519654
v -0.05164657 -0.01848542 0.07519654
v -0.05224385 -0.01713828 0.07519654
v -0.05318509 -0.01481351 0.07519654
v -0.05296884 -0.01481351 0.07287236
v -0.05272786 -0.01481351 0.07081444
v -0.05191020 -0.01681944 0.07081444
v -0.05577196 0.00153163 0.07081444
v -0.05609326 0.00159709 0.07298066
v -0.05578637 0.00215875 0.07125219
v -0.04431850 0.00215875 0.11492434
v -0.04459243 0.00215875 0.11582694
v -0.03831064 -0.01941237 0.11486568
v -0.05126143 -0.01941237 0.07688891
v -0.05129026 -0.01941237 0.07752073
v -0.05169600 -0.01859521 0.07752073
v -0.05234889 -0.01713828 0.07752073
v -0.05330455 -0.01481351 0.07752073
v -0.05381533 -0.01344104 0.07752073
v -0.05374943 -0.01328056 0.07519654
v -0.05363821 -0.01297651 0.07287236
v -0.05280613 -0.01460236 0.07081444
v -0.05577607 0.00147040 0.07081444
v -0.05622919 0.00091718 0.07382460
v -0.05615916 0.00215875 0.07375690
v -0.05604176 0.00215875 0.07295359
v -0.04461508 0.00215875 0.11585402
v -0.03876787 -0.01941237 0.11537113
v -0.05130262 -0.01941237 0.07913186
v -0.05170218 -0.01861000 0.07984491
v -0.05235507 -0.01713828 0.07984491
v -0.05328807 -0.01481351 0.07984491
v -0.05379680 -0.01336925 0.07984491
v -0.05414899 -0.01227760 0.07752073
v -0.05470714 -0.01016399 0.07519654
v -0.05413251 -0.01211713 0.07519654
v -0.05404601 -0.01181307 0.07287236
v -0.05394921 -0.01153646 0.07117999
v -0.05357436 -0.01246975 0.07081444
v -0.05580903 -0.00059888 0.07081444
v -0.05581315 -0.00087126 0.07081444
v -0.05608090 -0.00087126 0.07266476
v -0.05622919 -0.00087126 0.07382460
v -0.05630539 -0.00087126 0.07519654
v -0.05627244 0.00159709 0.07505664
v -0.05622301 0.00215875 0.07449703
v -0.04552131 0.00215875 0.11626921
v -0.04040113 -0.01941237 0.11630983
v -0.05130674 -0.01941237 0.07984491
v -0.05166099 -0.01852554 0.08216911
v -0.05225827 -0.01713828 0.08216911
v -0.05137264 -0.01543430 0.11005483
v -0.05172072 -0.01417373 0.11194126
v -0.05406661 -0.01197143 0.08216911
v -0.05411809 -0.01220581 0.07984491
v -0.05474833 -0.01016399 0.07752073
v -0.05534150 -0.00784344 0.07752073
v -0.05529619 -0.00784344 0.07519654
v -0.05514584 -0.00784344 0.07287236
v -0.05453413 -0.01016399 0.07287236
v -0.05426021 -0.01030545 0.07081444
v -0.05408308 -0.01092201 0.07081444
v -0.05375354 -0.01196510 0.07081444
v -0.05571841 -0.00290042 0.07081444
v -0.05621065 -0.00210227 0.07396901
v -0.05623537 -0.00232609 0.07519654
v -0.05623949 -0.00235565 0.07692501
v -0.05627450 -0.00090927 0.07762904
v -0.05626832 0.00154641 0.07764258
v -0.05625390 0.00215875 0.07587800
v -0.05625390 0.00215875 0.07535449
v -0.04725961 0.00215875 0.11667990
v -0.04806698 0.00215875 0.11686493
v -0.04088308 -0.01941237 0.11640911
v -0.05122229 -0.01941237 0.08216911
v -0.04970849 -0.01919910 0.11005483
v -0.05069092 -0.01713828 0.11005483
v -0.05049113 -0.01713828 0.11237902
v -0.05132115 -0.01489586 0.11258210
v -0.05153947 -0.01359095 0.11348922
v -0.05194521 -0.01268512 0.11258210
v -0.05248895 -0.01016399 0.11237902
v -0.05266814 -0.01016399 0.11005483
v -0.05219648 -0.01248875 0.11005483
v -0.05524470 -0.00784344 0.07984491
v -0.05454443 -0.01016399 0.08216911
v -0.05468037 -0.01016399 0.07984491
v -0.05579049 -0.00551868 0.07752073
v -0.05578225 -0.00551868 0.07519654
v -0.05564838 -0.00551868 0.07287236
v -0.05492340 -0.00784344 0.07081444
v -0.05570193 -0.00317491 0.07081444
v -0.05601293 -0.00300388 0.07306642
v -0.05609943 -0.00348741 0.07519654
v -0.05610355 -0.00315591 0.07762904
v -0.05593466 -0.00319391 0.07984491
v -0.05618800 -0.00170953 0.07847296
v -0.05622095 -0.00016180 0.07892878
v -0.05622095 0.00083272 0.07892878
v -0.05621271 0.00215875 0.07826537
v -0.05624979 0.00215875 0.07732216
v -0.05051997 0.00215875 0.11629629
v -0.04806698 -0.00087126 0.11687846
v -0.04574580 -0.01248875 0.11691909
v -0.04342051 -0.01713828 0.11677918
v -0.04342051 -0.01941237 0.11679272
v -0.04959520 -0.01941237 0.11005483
v -0.04961168 -0.01900696 0.11237902
v -0.04937689 -0.01858466 0.11375999
v -0.04970437 -0.01713828 0.11417970
v -0.05006891 -0.01482407 0.11485214
v -0.04938101 -0.01405760 0.11598039
v -0.05088864 -0.01268512 0.11461295
v -0.05170218 -0.01204111 0.11377805
v -0.05285968 -0.00784344 0.11237902
v -0.05304916 -0.00784344 0.11005483
v -0.05565044 -0.00551868 0.07984491
v -0.05540741 -0.00551868 0.07081444
v -0.05498107 -0.00757528 0.07081444
v -0.05544242 -0.00525052 0.07081444
v -0.05331485 -0.00551868 0.11005483
v -0.05312948 -0.00551868 0.11237902
v -0.05351669 -0.00319391 0.11005483
v -0.05332927 -0.00319391 0.11237902
v -0.05349610 -0.00087126 0.11237902
v -0.05355170 0.00145350 0.11237902
v -0.05612827 0.00154641 0.07975917
v -0.05617564 0.00215875 0.07883400
v -0.05619624 0.00215875 0.07855872
v -0.05353111 0.00215875 0.11237902
v -0.05151887 0.00215875 0.11586304
v -0.05061265 0.00139649 0.11626921
v -0.05059205 -0.00071501 0.11626921
v -0.04806698 -0.00784344 0.11687846
v -0.04806698 -0.00551868 0.11688298
v -0.04574580 -0.01481351 0.11691006
v -0.04574580 -0.01713828 0.11674760
v -0.04581377 -0.01941237 0.11632337
v -0.04938924 -0.01941237 0.11237902
v -0.04805256 -0.01941237 0.11471675
v -0.04803196 -0.01941237 0.11473931
v -0.04867456 -0.01713828 0.11533954
v -0.04904323 -0.01560744 0.11572314
v -0.04712574 -0.01870290 0.11600745
v -0.04751088 -0.01713828 0.11621054
v -0.04818644 -0.01482407 0.11635044
v -0.04957049 -0.01248875 0.11611126
v -0.05094218 -0.01016399 0.11521318
v -0.05187519 -0.01016399 0.11404882
v -0.05205643 -0.00784344 0.11430606
v -0.05219443 -0.00551868 0.11447756
v -0.05230359 -0.00319391 0.11459941
v -0.05222532 -0.00071501 0.11491532
v -0.05225209 0.00139649 0.11492886
v -0.05229946 0.00215875 0.11484311
v -0.05320157 0.00215875 0.11306951
v -0.05153535 0.00215875 0.11585402
v -0.05156007 0.00058568 0.11587207
v -0.05156007 0.00016338 0.11587207
v -0.05024604 -0.00319391 0.11634594
v -0.04806698 -0.01016399 0.11682431
v -0.04806698 -0.01248875 0.11669794
v -0.04591881 -0.01941237 0.11628726
v -0.04978057 -0.01016399 0.11622409
v -0.05128202 -0.00551868 0.11564191
v -0.05112961 -0.00784344 0.11547041
v -0.05140971 -0.00319391 0.11575925
v -0.05150034 -0.00138647 0.11583145
v -0.05012040 -0.00551868 0.11632787
v -0.04996799 -0.00784344 0.11629629
f 1 2 8
f 1 8 17
f 1 17 31
f 1 31 46
f 1 46 66
f 1 66 92
f 1 92 124
f 1 124 156
f 1 156 181
f 1 181 159
f 1 159 158
f 1 158 157
f 1 157 125
f 1 125 93
f 1 93 67
f 1 67 47
f 1 47 33
f 1 33 32
f 1 32 19
f 1 19 18
f 1 18 10
f 1 10 9
f 1 9 3
f 1 3 4
f 1 4 5
f 1 5 6
f 1 6 14
f 1 14 13
f 1 13 25
f 1 25 24
f 1 24 40
f 1 40 57
f 1 57 81
f 1 81 80
f 1 80 79
f 1 79 109
f 1 109 137
f 1 137 136
f 1 136 138
f 1 138 110
f 1 110 82
f 1 82 59
f 1 59 58
f 1 58 41
f 1 41 26
f 1 26 15
f 1 15 7
f 1 7 2
f 2 7 8
f 3 9 4
f 4 9 10
f 4 10 11
f 4 11 5
f 5 11 12
f 5 12 13
f 5 13 14
f 5 14 6
f 7 15 28
f 7 28 44
f 7 44 43
f 7 43 64
f 7 64 89
f 7 89 88
f 7 88 119
f 7 119 118
f 7 118 147
f 7 147 146
f 7 146 148
f 7 148 174
f 7 174 173
f 7 173 175
f 7 175 149
f 7 149 120
f 7 120 91
f 7 91 90
f 7 90 65
f 7 65 45
f 7 45 30
f 7 30 29
f 7 29 16
f 7 16 8
f 8 16 17
f 10 18 11
f 11 18 19
f 11 19 20
f 11 20 21
f 11 21 12
f 12 21 22
f 12 22 23
f 12 23 24
f 12 24 25
f 12 25 13
f 15 26 27
f 15 27 28
f 16 29 17
f 17 29 30
f 17 30 31
f 19 32 20
f 20 32 33
f 20 33 34
f 20 34 35
f 20 35 21
f 21 35 36
f 21 36 22
f 22 36 37
f 22 37 38
f 22 38 23
f 23 39 40
f 23 40 24
f 23 38 39
f 26 41 27
f 27 42 43
f 27 43 44
f 27 44 28
f 27 41 42
f 30 45 31
f 31 45 46
f 33 47 34
f 34 47 48
f 34 48 35
f 35 48 49
f 35 49 36
f 36 49 50
f 36 50 37
f 37 50 51
f 37 51 52
f 37 52 53
f 37 53 54
f 37 54 38
f 38 54 55
f 38 55 39
f 39 55 56
f 39 56 57
f 39 57 40
f 41 58 42
f 42 58 59
f 42 59 60
f 42 60 61
f 42 61 62
f 42 62 63
f 42 63 64
f 42 64 43
f 45 65 66
f 45 66 46
f 47 67 48
f 48 67 68
f 48 68 49
f 49 68 69
f 49 69 50
f 50 69 70
f 50 70 71
f 50 71 51
f 51 72 73
f 51 73 74
f 51 74 52
f 51 71 72
f 52 74 53
f 53 74 75
f 53 75 76
f 53 76 77
f 53 77 78
f 53 78 54
f 54 78 55
f 55 78 56
f 56 78 79
f 56 79 80
f 56 80 81
f 56 81 57
f 59 82 60
f 60 83 61
f 60 82 83
f 61 83 62
f 62 84 85
f 62 85 86
f 62 86 87
f 62 87 63
f 62 83 84
f 63 88 89
f 63 89 64
f 63 87 88
f 65 90 66
f 66 90 91
f 66 91 92
f 67 93 68
f 68 93 94
f 68 94 95
f 68 95 69
f 69 95 70
f 70 95 71
f 71 95 96
f 71 96 97
f 71 97 98
f 71 98 99
f 71 99 100
f 71 100 101
f 71 101 102
f 71 102 103
f 71 103 104
f 71 104 72
f 72 104 105
f 72 105 73
f 73 105 74
f 74 105 75
f 75 105 103
f 75 103 106
f 75 106 107
f 75 107 76
f 76 107 108
f 76 108 77
f 77 108 109
f 77 109 78
f 78 109 79
f 82 110 83
f 83 110 111
f 83 111 108
f 83 108 112
f 83 112 84
f 84 112 85
f 85 112 106
f 85 106 113
f 85 113 114
f 85 114 115
f 85 115 86
f 86 115 116
f 86 116 117
f 86 117 87
f 87 117 118
f 87 118 119
f 87 119 88
f 91 120 121
f 91 121 122
f 91 122 123
f 91 123 92
f 92 123 124
f 93 125 94
f 94 125 126
f 94 126 95
f 95 126 96
f 96 126 127
f 96 127 98
f 96 98 97
f 98 127 128
f 98 128 129
f 98 129 130
f 98 130 131
f 98 131 132
f 98 132 100
f 98 100 99
f 100 133 134
f 100 134 101
f 100 132 133
f 101 134 135
f 101 135 103
f 101 103 102
f 103 135 106
f 103 105 104
f 106 112 107
f 106 135 113
f 107 112 108
f 108 111 136
f 108 136 137
f 108 137 109
f 110 138 111
f 111 138 136
f 113 135 114
f 114 135 134
f 114 134 139
f 114 139 115
f 115 139 140
f 115 140 141
f 115 141 142
f 115 142 143
f 115 143 116
f 116 143 144
f 116 144 117
f 117 145 146
f 117 146 147
f 117 147 118
f 117 144 148
f 117 148 145
f 120 149 150
f 120 150 151
f 120 151 152
f 120 152 153
f 120 153 121
f 121 153 122
f 122 154 124
f 122 124 123
f 122 153 152
f 122 152 154
f 124 154 155
f 124 155 156
f 125 157 126
f 126 157 127
f 127 158 159
f 127 159 160
f 127 160 128
f 127 157 158
f 128 160 161
f 128 161 129
f 129 161 130
f 130 162 163
f 130 163 164
f 130 164 165
f 130 165 166
f 130 166 131
f 130 161 162
f 131 166 132
f 132 166 167
f 132 167 133
f 133 167 168
f 133 168 140
f 133 140 134
f 134 140 139
f 140 168 169
f 140 169 142
f 140 142 141
f 142 169 143
f 143 169 170
f 143 170 171
f 143 171 144
f 144 171 172
f 144 172 173
f 144 173 174
f 144 174 148
f 145 148 146
f 149 175 176
f 149 176 150
f 150 176 177
f 150 177 151
f 151 178 152
f 151 177 178
f 152 178 179
f 152 179 154
f 154 179 180
f 154 180 155
f 155 180 164
f 155 164 163
f 155 163 156
f 156 163 181
f 159 181 162
f 159 162 160
f 160 162 161
f 162 181 163
f 164 180 165
f 165 180 182
f 165 182 183
f 165 183 184
f 165 184 166
f 166 184 167
f 167 184 168
f 168 184 183
f 168 183 169
f 169 183 185
f 169 185 170
f 170 185 186
f 170 186 171
f 171 186 177
f 171 177 172
f 172 177 176
f 172 176 173
f 173 176 175
f 177 186 187
f 177 187 178
f 178 187 179
f 179 187 188
f 179 188 180
f 180 188 182
f 182 188 185
f 182 185 183
f 185 188 186
f 186 188 187

