# https://github.com/mikedh/trimesh
v 0.00413200 -0.03388199 0.07073829
v -0.02191591 -0.03298015 0.07073829
v 0.00413200 -0.03958026 0.07073829
v 0.00413200 -0.02410636 0.01369930
v -0.02191591 -0.01941437 0.02108743
v -0.02191591 -0.03881701 0.07073829
v 0.00325226 -0.03966462 0.07073829
v 0.00413200 -0.03957223 0.07054117
v 0.00413200 -0.02392358 0.01244361
v -0.02079648 -0.01941437 0.01940101
v -0.02191591 -0.01941437 0.00344937
v -0.02047518 -0.03908214 0.07073829
v -0.02191591 -0.03880898 0.07059958
v 0.00306101 -0.03968270 0.07073829
v 0.00306101 -0.03967466 0.07054117
v 0.00306101 -0.03954411 0.06821961
v 0.00413200 -0.03950193 0.06929278
v 0.00413200 -0.02378097 0.01143614
v -0.01939655 -0.01941437 0.01717435
v -0.01855760 -0.01941437 -0.00384385
v -0.02191591 -0.02028408 0.00461015
v -0.02043948 -0.03907611 0.07054117
v -0.01927670 -0.03925889 0.07054117
v -0.01940930 -0.03924885 0.07073829
v -0.02191591 -0.03880496 0.07054117
v 0.00092924 -0.03982531 0.07073829
v 0.00073799 -0.03982932 0.07054117
v 0.00073799 -0.03970479 0.06821961
v 0.00413200 -0.03944167 0.06827071
v 0.00073799 -0.03953808 0.06589804
v 0.00320126 -0.03935129 0.06575934
v 0.00413200 -0.03929906 0.06620467
v -0.01678793 -0.01941437 0.01249471
v -0.01861116 -0.01941437 0.01582375
v 0.00413200 -0.02365443 0.01011475
v -0.01459751 -0.01941437 0.00782968
v -0.01083886 -0.01941437 -0.00384385
v -0.01850151 -0.01949673 -0.00384385
v -0.02191591 -0.02090874 0.00566143
v -0.01719338 -0.02133656 -0.00384385
v -0.01633403 -0.02248947 -0.00384385
v -0.02191591 -0.03866637 0.06887665
v -0.01994479 -0.03898975 0.06845323
v -0.01901660 -0.03921671 0.06938040
v -0.01785382 -0.03941154 0.07054117
v -0.01785382 -0.03942158 0.07073829
v -0.01915940 -0.03928099 0.07073829
v -0.01931240 -0.03926291 0.07073829
v 0.00073799 -0.03983736 0.07073829
v -0.00139378 -0.03990564 0.07073829
v -0.00158503 -0.03990364 0.07054117
v -0.00158503 -0.03977509 0.06821961
v 0.00252042 -0.03927295 0.06416781
v -0.00158503 -0.03960235 0.06589804
v -0.00001425 -0.03924081 0.06221128
v 0.00075074 -0.03932317 0.06346697
v 0.00406825 -0.03920265 0.06489787
v 0.00413200 -0.03921068 0.06507308
v 0.00413200 -0.02245131 -0.00382925
v -0.01084141 -0.01941437 -0.00382195
v -0.00389275 -0.02101921 -0.00384385
v -0.01631874 -0.02250755 -0.00384385
v -0.01660433 -0.02285503 -0.00247866
v -0.02191591 -0.03013805 0.02702276
v -0.02191591 -0.03861415 0.06827071
v -0.02017684 -0.03869047 0.06589804
v -0.01834596 -0.03914842 0.06783269
v -0.01679813 -0.03922676 0.06695662
v -0.01768297 -0.03926893 0.06845323
v -0.01552825 -0.03943565 0.06821961
v -0.01552825 -0.03960637 0.07054117
v -0.01766257 -0.03943766 0.07073829
v -0.00158503 -0.03991167 0.07073829
v -0.00391060 -0.03993176 0.07073829
v -0.00391060 -0.03992172 0.07054117
v -0.00391060 -0.03978313 0.06821961
v 0.00153613 -0.03919663 0.06262010
v 0.00306101 -0.03892748 0.06124761
v 0.00320126 -0.03914039 0.06346697
v -0.00391060 -0.03959834 0.06589804
v -0.00158503 -0.03938945 0.06356918
v -0.00158503 -0.03924684 0.06214557
v -0.00158503 -0.03911427 0.06098479
v -0.00158503 -0.03886923 0.05892605
v 0.00073799 -0.03855389 0.05659718
v 0.00073799 -0.03883107 0.05892605
v 0.00075074 -0.03910423 0.06135711
v 0.00413200 -0.03919863 0.06494167
v 0.00413200 -0.03881098 0.06124761
v 0.00413200 -0.02535970 -0.00384385
v 0.00307886 -0.02263007 -0.00384385
v -0.01516360 -0.02353995 -0.00384385
v -0.02191591 -0.03068839 0.02862157
v -0.02191591 -0.03836308 0.06589804
v -0.01768297 -0.03903795 0.06606595
v -0.02017684 -0.03840325 0.06356918
v -0.01785382 -0.03871658 0.06356918
v -0.01552825 -0.03927697 0.06651858
v -0.01552825 -0.03914842 0.06535050
v -0.01320523 -0.03957624 0.06821961
v -0.01320523 -0.03973693 0.07054117
v -0.01533700 -0.03962847 0.07073829
v -0.01552825 -0.03961641 0.07073829
v -0.00604237 -0.03992372 0.07073829
v -0.00623362 -0.03991368 0.07054117
v -0.00623362 -0.03976706 0.06821961
v 0.00306101 -0.03867038 0.05892605
v 0.00413200 -0.03867240 0.05999191
v -0.00623362 -0.03957424 0.06589804
v -0.00391060 -0.03937338 0.06356918
v -0.00391060 -0.03923680 0.06222587
v -0.00391060 -0.03910624 0.06106510
v -0.00391060 -0.03884513 0.05892605
v -0.00158503 -0.03858000 0.05659718
v 0.00073799 -0.03823855 0.05427561
v 0.00306101 -0.03838517 0.05659718
v 0.00413200 -0.02855731 -0.00382925
v 0.00306101 -0.02855330 -0.00384385
v -0.01320523 -0.02448397 -0.00384385
v -0.02191591 -0.03144361 0.03108185
v -0.02191591 -0.03807385 0.06356918
v -0.01552825 -0.03893150 0.06356918
v -0.02017684 -0.03807586 0.06124761
v -0.01785382 -0.03839120 0.06124761
v -0.01552825 -0.03861615 0.06124761
v -0.01400847 -0.03920064 0.06488327
v -0.01322053 -0.03933522 0.06575204
v -0.01087966 -0.03944971 0.06589804
v -0.01087966 -0.03965859 0.06821961
v -0.01087966 -0.03981928 0.07054117
v -0.01301398 -0.03975501 0.07073829
v -0.01320523 -0.03974697 0.07073829
v -0.00623362 -0.03992172 0.07073829
v -0.00855919 -0.03988958 0.07073829
v -0.00855919 -0.03987954 0.07054117
v -0.00855919 -0.03972086 0.06821961
v 0.00413200 -0.03854787 0.05892605
v -0.00855919 -0.03952402 0.06589804
v -0.00627697 -0.03932116 0.06337936
v -0.00552983 -0.03922676 0.06232078
v -0.00627697 -0.03910222 0.06142282
v -0.00623362 -0.03878889 0.05892605
v -0.00391060 -0.03853380 0.05659718
v -0.00158503 -0.03825863 0.05427561
v 0.00306101 -0.03806581 0.05427561
v 0.00073799 -0.03788705 0.05194674
v 0.00413200 -0.03807786 0.05534879
v 0.00413200 -0.03824859 0.05659718
v 0.00413200 -0.03839321 0.05767035
v 0.00413200 -0.03772837 0.05301992
v 0.00306101 -0.03770829 0.05194674
v 0.00073799 -0.03750543 0.04962518
v -0.00158503 -0.03752952 0.04962518
v 0.00073799 -0.02801300 -0.00384385
v -0.00282176 -0.03689482 0.04612093
v -0.00372190 -0.03704145 0.04716490
v -0.00437214 -0.03686469 0.04630344
v -0.00623362 -0.03681850 0.04656626
v -0.00855919 -0.03695508 0.04811397
v -0.00855919 -0.03675021 0.04694588
v -0.00997952 -0.03691089 0.04836218
v -0.01080571 -0.03669798 0.04747152
v -0.01152990 -0.03685666 0.04866881
v -0.01320523 -0.03678636 0.04905574
v -0.01469186 -0.03692495 0.05060345
v -0.01624224 -0.03684662 0.05104148
v -0.01901405 -0.03689281 0.05311483
v -0.01994479 -0.03652927 0.05218036
v -0.02017684 -0.03593674 0.04962518
v -0.02191591 -0.03523777 0.04788765
v -0.02066898 -0.03213656 0.03270986
v -0.02191591 -0.03198592 0.03322820
v -0.02191591 -0.03156814 0.03157098
v -0.02191591 -0.03774645 0.06124761
v -0.01320523 -0.03878086 0.06124761
v -0.02017684 -0.03770829 0.05892605
v -0.01785382 -0.03803166 0.05892605
v -0.01552825 -0.03826265 0.05892605
v -0.01320523 -0.03843338 0.05892605
v -0.01322053 -0.03909620 0.06370059
v -0.01245809 -0.03923680 0.06456935
v -0.01087966 -0.03927295 0.06427002
v -0.00855919 -0.03931513 0.06386120
v -0.01068841 -0.03983535 0.07073829
v -0.01087966 -0.03982932 0.07073829
v -0.00708021 -0.03921068 0.06247409
v -0.00855919 -0.03899979 0.06124761
v -0.00855919 -0.03869047 0.05892605
v -0.00623362 -0.03845949 0.05659718
v -0.00391060 -0.03819235 0.05427561
v -0.00158503 -0.03790513 0.05194674
v 0.00413200 -0.03792119 0.05427561
v -0.00391060 -0.03783282 0.05194674
v -0.00391060 -0.03745521 0.04962518
v -0.00623362 -0.03701935 0.04772704
v -0.00855919 -0.03721820 0.04962518
v -0.01087966 -0.03746927 0.05194674
v -0.01080571 -0.03705551 0.04951567
v -0.01320523 -0.03729653 0.05194674
v -0.01552825 -0.03748735 0.05427561
v -0.01549000 -0.03706957 0.05187374
v -0.01785382 -0.03764401 0.05659718
v -0.01785382 -0.03723628 0.05427561
v -0.01785382 -0.03696110 0.05272060
v -0.02017684 -0.03731863 0.05659718
v -0.01994479 -0.03698119 0.05448733
v -0.02137022 -0.03690085 0.05539989
v -0.02056443 -0.03675021 0.05385218
v -0.02191591 -0.03621392 0.05252348
v -0.02191591 -0.03573388 0.05020922
v -0.02191591 -0.03560935 0.04962518
v -0.02191591 -0.03226109 0.03441818
v -0.02158187 -0.03230126 0.03425028
v -0.02191591 -0.03215062 0.03392175
v -0.02191591 -0.03735880 0.05883114
v -0.01087966 -0.03857196 0.05892605
v -0.01087966 -0.03889936 0.06124761
v -0.02184961 -0.03700931 0.05659718
v -0.01552825 -0.03788102 0.05659718
v -0.01320523 -0.03769021 0.05427561
v -0.01320523 -0.03806381 0.05659718
v -0.01087966 -0.03784487 0.05427561
v -0.01087966 -0.03820842 0.05659718
v -0.00855919 -0.03834701 0.05659718
v -0.01087966 -0.03913235 0.06310924
v -0.00855919 -0.03918257 0.06270041
v -0.00623362 -0.03810197 0.05427561
v -0.00623362 -0.03772837 0.05194674
v -0.00623362 -0.03734273 0.04962518
v -0.00855919 -0.03760987 0.05194674
v -0.02191591 -0.03684863 0.05579412
v -0.02191591 -0.03667589 0.05485965
v -0.02191591 -0.03700329 0.05664828
v -0.00855919 -0.03798346 0.05427561
f 1 2 6
f 1 6 12
f 1 12 24
f 1 24 48
f 1 48 47
f 1 47 46
f 1 46 72
f 1 72 103
f 1 103 102
f 1 102 132
f 1 132 131
f 1 131 185
f 1 185 184
f 1 184 134
f 1 134 133
f 1 133 104
f 1 104 74
f 1 74 73
f 1 73 50
f 1 50 49
f 1 49 26
f 1 26 14
f 1 14 7
f 1 7 3
f 1 3 8
f 1 8 17
f 1 17 29
f 1 29 32
f 1 32 58
f 1 58 88
f 1 88 89
f 1 89 108
f 1 108 137
f 1 137 149
f 1 149 148
f 1 148 147
f 1 147 192
f 1 192 150
f 1 150 117
f 1 117 90
f 1 90 59
f 1 59 35
f 1 35 18
f 1 18 9
f 1 9 4
f 1 4 5
f 1 5 2
f 2 5 11
f 2 11 21
f 2 21 39
f 2 39 64
f 2 64 93
f 2 93 120
f 2 120 173
f 2 173 172
f 2 172 214
f 2 214 212
f 2 212 170
f 2 170 211
f 2 211 210
f 2 210 209
f 2 209 232
f 2 232 231
f 2 231 233
f 2 233 215
f 2 215 174
f 2 174 121
f 2 121 94
f 2 94 65
f 2 65 42
f 2 42 25
f 2 25 13
f 2 13 6
f 3 7 8
f 4 9 10
f 4 10 5
f 5 10 19
f 5 19 34
f 5 34 33
f 5 33 36
f 5 36 60
f 5 60 37
f 5 37 20
f 5 20 11
f 6 13 12
f 7 14 15
f 7 15 8
f 8 15 16
f 8 16 17
f 9 18 10
f 10 18 19
f 11 20 21
f 12 13 22
f 12 22 23
f 12 23 24
f 13 25 22
f 14 26 15
f 15 26 27
f 15 27 28
f 15 28 16
f 16 29 17
f 16 28 30
f 16 30 31
f 16 31 32
f 16 32 29
f 18 33 34
f 18 34 19
f 18 35 36
f 18 36 33
f 20 37 61
f 20 61 91
f 20 91 90
f 20 90 118
f 20 118 154
f 20 154 119
f 20 119 92
f 20 92 62
f 20 62 41
f 20 41 40
f 20 40 38
f 20 38 21
f 21 38 40
f 21 40 41
f 21 41 39
f 22 25 42
f 22 42 43
f 22 43 44
f 22 44 23
f 23 44 45
f 23 45 46
f 23 46 47
f 23 47 48
f 23 48 24
f 26 49 27
f 27 49 50
f 27 50 51
f 27 51 28
f 28 52 30
f 28 51 52
f 30 53 31
f 30 52 54
f 30 54 55
f 30 55 56
f 30 56 53
f 31 53 57
f 31 57 58
f 31 58 32
f 35 59 36
f 36 59 60
f 37 60 59
f 37 59 61
f 39 41 62
f 39 62 63
f 39 63 64
f 42 65 43
f 43 65 66
f 43 66 44
f 44 66 67
f 44 67 68
f 44 68 69
f 44 69 45
f 45 69 70
f 45 70 71
f 45 71 72
f 45 72 46
f 50 73 51
f 51 73 74
f 51 74 75
f 51 75 52
f 52 76 54
f 52 75 76
f 53 56 77
f 53 77 78
f 53 78 79
f 53 79 57
f 54 80 81
f 54 81 55
f 54 76 80
f 55 82 83
f 55 83 84
f 55 84 85
f 55 85 86
f 55 86 87
f 55 87 77
f 55 77 56
f 55 81 82
f 57 88 58
f 57 79 78
f 57 78 89
f 57 89 88
f 59 90 91
f 59 91 61
f 62 92 63
f 63 92 64
f 64 92 93
f 65 94 66
f 66 95 67
f 66 94 96
f 66 96 97
f 66 97 95
f 67 95 68
f 68 98 70
f 68 70 69
f 68 95 99
f 68 99 98
f 70 98 100
f 70 100 71
f 71 101 102
f 71 102 103
f 71 103 72
f 71 100 101
f 74 104 105
f 74 105 75
f 75 105 76
f 76 106 80
f 76 105 106
f 77 87 86
f 77 86 107
f 77 107 78
f 78 107 108
f 78 108 89
f 80 106 109
f 80 109 110
f 80 110 81
f 81 110 82
f 82 111 112
f 82 112 83
f 82 110 111
f 83 112 84
f 84 112 113
f 84 113 114
f 84 114 85
f 85 114 115
f 85 115 116
f 85 116 107
f 85 107 86
f 90 117 118
f 92 119 93
f 93 119 120
f 94 121 96
f 95 97 122
f 95 122 99
f 96 121 174
f 96 174 123
f 96 123 124
f 96 124 97
f 97 124 125
f 97 125 122
f 98 99 126
f 98 126 127
f 98 127 100
f 99 122 126
f 100 127 128
f 100 128 129
f 100 129 130
f 100 130 101
f 101 130 131
f 101 131 132
f 101 132 102
f 104 133 105
f 105 133 134
f 105 134 135
f 105 135 106
f 106 136 109
f 106 135 136
f 107 137 108
f 107 116 137
f 109 136 138
f 109 138 139
f 109 139 140
f 109 140 110
f 110 140 111
f 111 140 112
f 112 140 141
f 112 141 113
f 113 141 142
f 113 142 143
f 113 143 114
f 114 143 144
f 114 144 115
f 115 145 116
f 115 144 146
f 115 146 145
f 116 145 147
f 116 147 148
f 116 148 149
f 116 149 137
f 117 150 151
f 117 151 146
f 117 146 152
f 117 152 153
f 117 153 118
f 118 153 155
f 118 155 156
f 118 156 157
f 118 157 158
f 118 158 159
f 118 159 160
f 118 160 161
f 118 161 162
f 118 162 163
f 118 163 164
f 118 164 165
f 118 165 166
f 118 166 167
f 118 167 168
f 118 168 169
f 118 169 170
f 118 170 171
f 118 171 172
f 118 172 154
f 119 154 120
f 120 154 173
f 122 125 175
f 122 175 126
f 123 174 176
f 123 176 177
f 123 177 124
f 124 177 178
f 124 178 125
f 125 178 179
f 125 179 175
f 126 175 180
f 126 180 181
f 126 181 127
f 127 181 182
f 127 182 128
f 128 182 183
f 128 183 138
f 128 138 129
f 129 138 136
f 129 136 130
f 130 135 184
f 130 184 185
f 130 185 131
f 130 136 135
f 134 184 135
f 138 183 186
f 138 186 139
f 139 186 140
f 140 186 141
f 141 186 142
f 142 186 187
f 142 187 188
f 142 188 189
f 142 189 143
f 143 189 190
f 143 190 144
f 144 190 191
f 144 191 146
f 145 192 147
f 145 146 151
f 145 151 192
f 146 191 153
f 146 153 152
f 150 192 151
f 153 191 193
f 153 193 194
f 153 194 155
f 154 172 173
f 155 194 156
f 156 194 157
f 157 194 195
f 157 195 158
f 158 195 196
f 158 196 159
f 159 196 161
f 159 161 160
f 161 196 197
f 161 197 198
f 161 198 162
f 162 198 163
f 163 198 197
f 163 197 199
f 163 199 164
f 164 199 165
f 165 199 200
f 165 200 201
f 165 201 166
f 166 201 200
f 166 200 202
f 166 202 203
f 166 203 204
f 166 204 167
f 167 204 203
f 167 203 202
f 167 202 205
f 167 205 206
f 167 206 207
f 167 207 208
f 167 208 168
f 168 208 209
f 168 209 210
f 168 210 211
f 168 211 170
f 168 170 169
f 170 212 213
f 170 213 171
f 171 213 214
f 171 214 172
f 174 215 176
f 175 179 216
f 175 216 188
f 175 188 217
f 175 217 180
f 176 215 218
f 176 218 207
f 176 207 205
f 176 205 202
f 176 202 177
f 177 202 219
f 177 219 178
f 178 219 220
f 178 220 221
f 178 221 179
f 179 221 222
f 179 222 223
f 179 223 224
f 179 224 216
f 180 217 225
f 180 225 181
f 181 225 182
f 182 225 226
f 182 226 183
f 183 226 186
f 186 226 187
f 187 226 217
f 187 217 188
f 188 216 224
f 188 224 189
f 189 224 227
f 189 227 190
f 190 227 193
f 190 193 191
f 193 227 228
f 193 228 194
f 194 228 229
f 194 229 195
f 195 229 196
f 196 229 230
f 196 230 197
f 197 230 222
f 197 222 220
f 197 220 199
f 199 220 219
f 199 219 200
f 200 219 202
f 205 207 206
f 207 218 231
f 207 231 232
f 207 232 209
f 207 209 208
f 212 214 213
f 215 233 218
f 217 226 225
f 218 233 231
f 220 222 221
f 222 234 224
f 222 224 223
f 222 230 234
f 224 234 227
f 227 234 230
f 227 230 228
f 228 230 229

