# https://github.com/mikedh/trimesh
v -0.00223923 -0.02979331 -0.02244038
v -0.00223923 -0.03332381 -0.03469562
v -0.00223923 -0.02979331 -0.04150752
v -0.00380656 -0.02979331 -0.02322131
v -0.00623720 -0.03304161 -0.03404613
v -0.00623720 -0.03378697 -0.03636573
v -0.00623720 -0.03436057 -0.03824461
v -0.00390933 -0.03386979 -0.03636573
v -0.00390933 -0.03438970 -0.03816729
v -0.00223923 -0.03395108 -0.03687605
v -0.00223923 -0.03936185 -0.10142289
v -0.04708538 -0.02979331 -0.10142289
v -0.00432043 -0.02979331 -0.02348420
v -0.00623720 -0.03245269 -0.03231416
v -0.00755787 -0.03231158 -0.03270849
v -0.00749620 -0.03460442 -0.03973689
v -0.00623720 -0.03469797 -0.03941215
v -0.00390933 -0.03472098 -0.03932710
v -0.00223923 -0.03685124 -0.04698179
v -0.00223923 -0.04541830 -0.10142289
v -0.05473702 -0.02979331 -0.10142289
v -0.00623720 -0.02979331 -0.02469040
v -0.00676136 -0.02979331 -0.02503834
v -0.00740884 -0.02992520 -0.02589659
v -0.00761439 -0.02979331 -0.02568782
v -0.01905846 -0.03691105 -0.05607464
v -0.01660726 -0.03687731 -0.05385555
v -0.01571311 -0.03733895 -0.05476020
v -0.01553326 -0.03811651 -0.05728856
v -0.01321053 -0.03847232 -0.05728856
v -0.00623720 -0.03759200 -0.05031428
v -0.00390933 -0.03776070 -0.05031428
v -0.00390933 -0.03717024 -0.04813386
v -0.00390933 -0.03685584 -0.04697406
v -0.00223923 -0.03779905 -0.05031428
v -0.00390933 -0.04538762 -0.10142289
v -0.00223923 -0.04546124 -0.09911102
v -0.05431050 -0.03083313 -0.10142289
v -0.05424370 -0.03067210 -0.09911102
v -0.05460341 -0.02979331 -0.09911102
v -0.00809744 -0.02979331 -0.02618267
v -0.03531757 -0.03691105 -0.07235052
v -0.01785599 -0.03762727 -0.05728856
v -0.01785599 -0.03708129 -0.05554886
v -0.03412023 -0.03778524 -0.07354898
v -0.03390440 -0.03867783 -0.07609282
v -0.03298456 -0.03922382 -0.07701293
v -0.01785599 -0.03828061 -0.05960817
v -0.01553326 -0.03871004 -0.05960817
v -0.01337497 -0.03903057 -0.05961590
v -0.01130404 -0.03912107 -0.05885043
v -0.01067197 -0.03886801 -0.05750506
v -0.00855993 -0.03849686 -0.05496123
v -0.00623720 -0.03819780 -0.05263389
v -0.00390933 -0.03837263 -0.05263389
v -0.00223923 -0.03842938 -0.05263389
v -0.00623720 -0.04532014 -0.10142289
v -0.00390933 -0.04542749 -0.09911102
v -0.00223923 -0.04534928 -0.09679142
v -0.00390933 -0.04532321 -0.09679142
v -0.05374524 -0.03200332 -0.10142289
v -0.05365274 -0.03183462 -0.09911102
v -0.05407412 -0.03032856 -0.09679142
v -0.05430023 -0.02979331 -0.09679142
v -0.05446467 -0.02979331 -0.09804400
v -0.01557437 -0.02979331 -0.03396881
v -0.03697225 -0.03656291 -0.07354898
v -0.03750155 -0.03684204 -0.07484023
v -0.03581089 -0.03713957 -0.07354898
v -0.01612936 -0.02979331 -0.03458737
v -0.03661254 -0.03756746 -0.07571395
v -0.03644296 -0.03844319 -0.07819593
v -0.03470605 -0.03905051 -0.07819593
v -0.03526104 -0.03921155 -0.07938665
v -0.03353955 -0.03937258 -0.07819593
v -0.03179750 -0.03978821 -0.07819593
v -0.03179750 -0.03936645 -0.07646395
v -0.03058989 -0.03920695 -0.07474745
v -0.01774807 -0.03889561 -0.06205922
v -0.02968032 -0.03962871 -0.07565983
v -0.01690017 -0.03925603 -0.06291747
v -0.01553326 -0.03910112 -0.06127828
v -0.01425884 -0.03920235 -0.06083756
v -0.01270693 -0.03930510 -0.06039684
v -0.00975213 -0.03922075 -0.05843290
v -0.00623720 -0.03877446 -0.05496123
v -0.00457737 -0.03919775 -0.05622154
v -0.00384767 -0.03898763 -0.05516226
v -0.00223923 -0.03898457 -0.05490710
v -0.00855993 -0.04520818 -0.10142289
v -0.00623720 -0.04535695 -0.09911102
v -0.00855993 -0.04525112 -0.09911102
v -0.00623720 -0.04525879 -0.09679142
v -0.00223923 -0.04512843 -0.09446408
v -0.00390933 -0.04510236 -0.09446408
v -0.00623720 -0.04504715 -0.09446408
v -0.05270720 -0.03340816 -0.10142289
v -0.05165889 -0.03468110 -0.09911102
v -0.05259415 -0.03340816 -0.09911102
v -0.05217277 -0.03353238 -0.09693833
v -0.05346775 -0.03149107 -0.09679142
v -0.05394051 -0.03005250 -0.09532233
v -0.05401760 -0.02979331 -0.09515223
v -0.03820556 -0.03495409 -0.07167011
v -0.03889416 -0.03539886 -0.07344846
v -0.03883249 -0.03646782 -0.07571395
v -0.03964956 -0.03673775 -0.07746138
v -0.03810279 -0.03714570 -0.07638663
v -0.01683851 -0.02979331 -0.03553068
v -0.04220868 -0.03219503 -0.07245104
v -0.04056940 -0.03282230 -0.07122164
v -0.03975747 -0.03444185 -0.07261341
v -0.03883249 -0.03740796 -0.07821912
v -0.03877082 -0.03811651 -0.08052326
v -0.03650976 -0.03898304 -0.08029903
v -0.03732169 -0.03912107 -0.08213151
v -0.03577492 -0.03938178 -0.08093306
v -0.03434120 -0.03965018 -0.08029903
v -0.02946963 -0.04025444 -0.07819593
v -0.03179750 -0.04029278 -0.08052326
v -0.01553326 -0.03973146 -0.06424737
v -0.01553326 -0.03936185 -0.06243035
v -0.02715204 -0.04066240 -0.07819593
v -0.02482931 -0.04057651 -0.07586859
v -0.02482931 -0.04104581 -0.07819593
v -0.02250658 -0.04094766 -0.07586859
v -0.01337497 -0.03950601 -0.06174220
v -0.01067197 -0.03937105 -0.05961590
v -0.00855993 -0.03928056 -0.05816228
v -0.00623720 -0.03913486 -0.05649989
v -0.00855993 -0.03957963 -0.05960817
v -0.00623720 -0.03937719 -0.05766743
v -0.00623720 -0.03975753 -0.05960817
v -0.00390933 -0.03986949 -0.05960817
v -0.00384767 -0.03940019 -0.05711073
v -0.00223923 -0.03948607 -0.05723444
v -0.00303060 -0.03922689 -0.05607464
v -0.00223923 -0.03924222 -0.05602051
v -0.01088266 -0.04506555 -0.10142289
v -0.00855993 -0.04516064 -0.09679142
v -0.01088266 -0.04510083 -0.09911102
v -0.01088266 -0.04501341 -0.09679142
v -0.00223923 -0.04481863 -0.09213675
v -0.00390933 -0.04479409 -0.09213675
v -0.00623720 -0.04474502 -0.09213675
v -0.00855993 -0.04494593 -0.09446408
v -0.05167944 -0.03469184 -0.10142289
v -0.05038961 -0.03577614 -0.09911102
v -0.05158181 -0.03460288 -0.09781204
v -0.05139681 -0.03439124 -0.09626564
v -0.05203916 -0.03292198 -0.09446408
v -0.05327247 -0.03092976 -0.09451820
v -0.05372982 -0.02979331 -0.09383778
v -0.05381718 -0.02979331 -0.09422439
v -0.04032274 -0.03484367 -0.07415982
v -0.04109870 -0.03516880 -0.07596910
v -0.04098564 -0.03619483 -0.07821912
v -0.04175646 -0.03659818 -0.08052326
v -0.04014288 -0.03701227 -0.07900779
v -0.04437210 -0.02979331 -0.07265207
v -0.04229603 -0.02996968 -0.07001545
v -0.04274311 -0.03050033 -0.07122164
v -0.04273283 -0.03271954 -0.07399744
v -0.04126314 -0.03357993 -0.07330929
v -0.04495792 -0.03036690 -0.07415982
v -0.04428474 -0.03191590 -0.07519591
v -0.04187465 -0.03426854 -0.07526549
v -0.04059510 -0.03724386 -0.08052326
v -0.04126827 -0.03754292 -0.08271142
v -0.04109356 -0.03827908 -0.08517020
v -0.03864750 -0.03877139 -0.08288153
v -0.03939262 -0.03901678 -0.08517020
v -0.03980372 -0.03917168 -0.08654650
v -0.03779446 -0.03928517 -0.08368565
v -0.03650976 -0.03954129 -0.08288153
v -0.03644296 -0.04000445 -0.08517020
v -0.03412023 -0.04021610 -0.08284286
v -0.02946963 -0.04072681 -0.08052326
v -0.03179750 -0.04073908 -0.08284286
v -0.01553326 -0.04017622 -0.06657471
v -0.01321053 -0.04002593 -0.06424737
v -0.02260422 -0.04137709 -0.07817273
v -0.02012219 -0.04131574 -0.07596910
v -0.02692593 -0.04120531 -0.08074749
v -0.02599582 -0.04154272 -0.08167534
v -0.01088266 -0.03981888 -0.06193550
v -0.00855993 -0.04001826 -0.06193550
v -0.00623720 -0.04017316 -0.06193550
v -0.00390933 -0.04028051 -0.06193550
v -0.00223923 -0.04004893 -0.06026539
v -0.00223923 -0.03993237 -0.05960817
v -0.00223923 -0.03961951 -0.05793805
v -0.01321053 -0.04489531 -0.10142289
v -0.01321053 -0.04492139 -0.09911102
v -0.01088266 -0.04479409 -0.09446408
v -0.01321053 -0.04462079 -0.09446408
v -0.01321053 -0.04482630 -0.09679142
v -0.00223923 -0.04224974 -0.07419847
v -0.00390933 -0.04391377 -0.08598979
v -0.00855993 -0.04464379 -0.09213675
v -0.00623720 -0.04441221 -0.08981714
v -0.00747051 -0.04386929 -0.08630680
v -0.00855993 -0.04432173 -0.08981714
v -0.01088266 -0.04449349 -0.09213675
v -0.05038961 -0.03579761 -0.10142289
v -0.04912547 -0.03682823 -0.09911102
v -0.04893534 -0.03668714 -0.09679142
v -0.05052836 -0.03535285 -0.09693833
v -0.04998879 -0.03528230 -0.09446408
v -0.05115529 -0.03408451 -0.09446408
v -0.05177195 -0.03255237 -0.09255428
v -0.05236804 -0.03130857 -0.09192798
v -0.05327247 -0.02979331 -0.09208262
v -0.05347802 -0.02979331 -0.09287129
v -0.04238853 -0.03467650 -0.07681189
v -0.04279449 -0.03497403 -0.07819593
v -0.04353448 -0.03536818 -0.08050007
v -0.04215728 -0.03684050 -0.08185317
v -0.04448515 -0.02979331 -0.07281444
v -0.04475237 -0.03242354 -0.07674231
v -0.04333407 -0.03334528 -0.07600777
v -0.04627345 -0.02979331 -0.07555158
v -0.04681302 -0.02979331 -0.07639436
v -0.04697232 -0.03000649 -0.07692014
v -0.04563110 -0.03096196 -0.07605416
v -0.04524055 -0.02979331 -0.07394332
v -0.04634026 -0.03160150 -0.07819593
v -0.04255811 -0.03707208 -0.08339957
v -0.04301032 -0.03731901 -0.08517020
v -0.04360642 -0.03758586 -0.08734290
v -0.04341629 -0.03832049 -0.08981714
v -0.04219326 -0.03919315 -0.09110066
v -0.04103189 -0.03883580 -0.08738928
v -0.04021483 -0.03933118 -0.08810063
v -0.03892499 -0.03964098 -0.08738928
v -0.03823125 -0.03943546 -0.08517020
v -0.03877082 -0.04014708 -0.08981714
v -0.03644296 -0.04043695 -0.08748980
v -0.03412023 -0.04063633 -0.08517020
v -0.02928464 -0.04123599 -0.08303616
v -0.03160223 -0.04122065 -0.08535577
v -0.03069780 -0.04155346 -0.08625268
v -0.02993212 -0.04142463 -0.08470628
v -0.01553326 -0.04061178 -0.06890205
v -0.01785599 -0.04146604 -0.07513405
v -0.01088266 -0.04024831 -0.06424737
v -0.01321053 -0.04045075 -0.06657471
v -0.02189507 -0.04162094 -0.07893047
v -0.02086217 -0.04147677 -0.07738406
v -0.01931026 -0.04158106 -0.07681189
v -0.02482931 -0.04162554 -0.08122688
v -0.02754773 -0.04141083 -0.08238667
v -0.02839049 -0.04155346 -0.08394081
v -0.02692593 -0.04163321 -0.08303616
v -0.02715204 -0.04196755 -0.08517020
v -0.02482931 -0.04231416 -0.08517020
v -0.02482931 -0.04191387 -0.08284286
v -0.01088266 -0.04065166 -0.06657471
v -0.00855993 -0.04041701 -0.06424737
v -0.00623720 -0.04055964 -0.06424737
v -0.00390933 -0.04067313 -0.06424737
v -0.00223923 -0.04073601 -0.06424737
v -0.00223923 -0.04045075 -0.06257726
v -0.00223923 -0.04034033 -0.06193550
v -0.01553326 -0.04469287 -0.10142289
v -0.01553326 -0.04472047 -0.09911102
v -0.01321053 -0.04433399 -0.09213675
v -0.01553326 -0.04443215 -0.09446408
v -0.01553326 -0.04415916 -0.09213675
v -0.01553326 -0.04462539 -0.09679142
v -0.00390933 -0.04245525 -0.07586859
v -0.00223923 -0.04191387 -0.07187887
v -0.00623720 -0.04407787 -0.08748980
v -0.01088266 -0.04394904 -0.08806971
v -0.01249110 -0.04389843 -0.08841765
v -0.00855993 -0.04331257 -0.08284286
v -0.00836980 -0.04369292 -0.08538670
v -0.00902242 -0.04383248 -0.08656196
v -0.00836980 -0.04398432 -0.08739702
v -0.00623720 -0.04388770 -0.08617536
v -0.00623720 -0.04371899 -0.08501556
v -0.00390933 -0.04211478 -0.07354898
v -0.00623720 -0.04306105 -0.08052326
v -0.00623720 -0.04271904 -0.07819593
v -0.00855993 -0.04297210 -0.08052326
v -0.04912033 -0.03683284 -0.10142289
v -0.04796411 -0.03752452 -0.09911102
v -0.04776883 -0.03743557 -0.09679142
v -0.04745537 -0.03724692 -0.09446408
v -0.04861673 -0.03644328 -0.09446408
v -0.04961366 -0.03493262 -0.09213675
v -0.04934644 -0.03467957 -0.09067539
v -0.05092405 -0.03335908 -0.09192798
v -0.05154070 -0.03223337 -0.09100787
v -0.05209055 -0.03078712 -0.08981714
v -0.05264554 -0.02979331 -0.08984034
v -0.04395586 -0.03400169 -0.07819593
v -0.04439266 -0.03440964 -0.07971140
v -0.04479862 -0.03474551 -0.08125781
v -0.04519944 -0.03505531 -0.08284286
v -0.04336490 -0.03632059 -0.08271142
v -0.04417169 -0.03663499 -0.08517020
v -0.04451085 -0.03685277 -0.08646145
v -0.04675649 -0.03207694 -0.07963408
v -0.04517889 -0.03283917 -0.07819593
v -0.04703913 -0.02979331 -0.07678097
v -0.04878631 -0.02979331 -0.08004387
v -0.04732690 -0.03043898 -0.07819593
v -0.04489112 -0.03708589 -0.08801558
v -0.04533819 -0.03733128 -0.08981714
v -0.04592915 -0.03756592 -0.09200530
v -0.04335976 -0.03884961 -0.09198210
v -0.04254783 -0.03933731 -0.09265479
v -0.04128883 -0.03968238 -0.09198210
v -0.04067732 -0.03949834 -0.08981714
v -0.03877082 -0.04054584 -0.09213675
v -0.03412023 -0.04103355 -0.08748980
v -0.03644296 -0.04083110 -0.08981714
v -0.03235763 -0.04142003 -0.08748980
v -0.02928464 -0.04164394 -0.08535577
v -0.03119626 -0.04165315 -0.08748980
v -0.02946963 -0.04233256 -0.08981714
v -0.02946963 -0.04196601 -0.08748980
v -0.01553326 -0.04103355 -0.07122164
v -0.01666379 -0.04153812 -0.07472425
v -0.02017872 -0.04212705 -0.08052326
v -0.01785599 -0.04167002 -0.07629385
v -0.01321053 -0.04086024 -0.06890205
v -0.02260422 -0.04178504 -0.08039182
v -0.02250658 -0.04223440 -0.08284286
v -0.02012219 -0.04171756 -0.07817273
v -0.02715204 -0.04234943 -0.08748980
v -0.02482931 -0.04267610 -0.08748980
v -0.02250658 -0.04260708 -0.08517020
v -0.01321053 -0.04125286 -0.07122164
v -0.01088266 -0.04103814 -0.06890205
v -0.00855993 -0.04080196 -0.06657471
v -0.00855993 -0.04117617 -0.06890205
v -0.00623720 -0.04093232 -0.06657471
v -0.00390933 -0.04104735 -0.06657471
v -0.00223923 -0.04084184 -0.06490459
v -0.01785599 -0.04448123 -0.10142289
v -0.01785599 -0.04451036 -0.09911102
v -0.01785599 -0.04441834 -0.09679142
v -0.01553326 -0.04393831 -0.09042024
v -0.01403787 -0.04384169 -0.08883517
v -0.01775321 -0.04397205 -0.09215993
v -0.01949526 -0.04390917 -0.09294087
v -0.01785599 -0.04422664 -0.09446408
v -0.01690531 -0.04388463 -0.09083004
v -0.00223923 -0.04159487 -0.06970617
v -0.01088266 -0.04353495 -0.08517020
v -0.01321053 -0.04339539 -0.08517020
v -0.01553326 -0.04323589 -0.08517020
v -0.01553326 -0.04355182 -0.08748980
v -0.01088266 -0.04319755 -0.08284286
v -0.01088266 -0.04285860 -0.08052326
v -0.00348281 -0.04157799 -0.06982215
v -0.00623720 -0.04237090 -0.07586859
v -0.00855993 -0.04262242 -0.07819593
v -0.04794869 -0.03747544 -0.10142289
v -0.04551291 -0.03878672 -0.09907236
v -0.04458793 -0.03922229 -0.09790482
v -0.04551291 -0.03867476 -0.09699245
v -0.04573901 -0.03819780 -0.09446408
v -0.04714191 -0.03705215 -0.09268571
v -0.04683358 -0.03684970 -0.09113931
v -0.04797439 -0.03622857 -0.09200530
v -0.04817480 -0.03534978 -0.08987126
v -0.04749648 -0.03505378 -0.08748980
v -0.04902270 -0.03437744 -0.08912899
v -0.04976268 -0.03285604 -0.08748980
v -0.05006587 -0.03352472 -0.08987126
v -0.05135057 -0.03194964 -0.08981714
v -0.05179764 -0.03031475 -0.08790734
v -0.05200319 -0.02979331 -0.08766764
v -0.04716760 -0.03251863 -0.08118048
v -0.04636595 -0.03408604 -0.08284286
v -0.04674108 -0.03442651 -0.08432741
v -0.04712649 -0.03475625 -0.08587381
v -0.04587776 -0.03540346 -0.08512381
v -0.04569791 -0.03632673 -0.08734290
v -0.04650469 -0.03662426 -0.08981714
v -0.04805661 -0.03106318 -0.08055419
v -0.04914089 -0.02979331 -0.08074749
v -0.04932075 -0.03004790 -0.08148203
v -0.04408433 -0.03900757 -0.09446408
v -0.04292296 -0.03948761 -0.09446408
v -0.04109356 -0.04014862 -0.09446408
v -0.03877082 -0.04088478 -0.09446408
v -0.03698253 -0.04138629 -0.09446408
v -0.03631449 -0.04123752 -0.09219860
v -0.03496813 -0.04147064 -0.09146406
v -0.03416648 -0.04137402 -0.08965477
v -0.03286637 -0.04152279 -0.08877332
v -0.03197222 -0.04184025 -0.08965477
v -0.02715204 -0.04269604 -0.08981714
v -0.03179750 -0.04223594 -0.09213675
v -0.02946963 -0.04265923 -0.09213675
v -0.01785599 -0.04199209 -0.07819593
v -0.01785599 -0.04237550 -0.08052326
v -0.01574395 -0.04177277 -0.07564436
v -0.01511188 -0.04160560 -0.07430672
v -0.02017872 -0.04251353 -0.08284286
v -0.02250658 -0.04293529 -0.08748980
v -0.02482931 -0.04299510 -0.08981714
v -0.02017872 -0.04284787 -0.08517020
v -0.01321053 -0.04149211 -0.07268300
v -0.01197208 -0.04153658 -0.07241238
v -0.01107279 -0.04141389 -0.07129896
v -0.01042531 -0.04158106 -0.07212629
v -0.00855993 -0.04145070 -0.07064175
v -0.00412002 -0.04141696 -0.06898709
v -0.00223923 -0.04111023 -0.06657471
v -0.02017872 -0.04426344 -0.10142289
v -0.02017872 -0.04429718 -0.09911102
v -0.02017872 -0.04420056 -0.09679142
v -0.01553326 -0.04378647 -0.08926043
v -0.01845722 -0.04381408 -0.09139447
v -0.02023524 -0.04374507 -0.09215993
v -0.02250658 -0.04353189 -0.09213675
v -0.02104717 -0.04383862 -0.09358263
v -0.02023524 -0.04399505 -0.09440222
v -0.02179229 -0.04391224 -0.09513677
v -0.01785599 -0.04305338 -0.08517020
v -0.01785599 -0.04336165 -0.08748980
v -0.01775321 -0.04369446 -0.08995631
v -0.02017872 -0.04345520 -0.08981714
v -0.00223923 -0.04147984 -0.06894070
v -0.01321053 -0.04306105 -0.08284286
v -0.01553326 -0.04290462 -0.08284286
v -0.01785599 -0.04273131 -0.08284286
v -0.01088266 -0.04250433 -0.07819593
v -0.01321053 -0.04272058 -0.08052326
v -0.00223923 -0.04120838 -0.06720100
v -0.00855993 -0.04226201 -0.07586859
v -0.04573901 -0.03855821 -0.10142289
v -0.04458793 -0.03922229 -0.09827596
v -0.04456224 -0.03921001 -0.09982236
v -0.04109356 -0.04038173 -0.09679142
v -0.04353962 -0.03953669 -0.09699245
v -0.04439779 -0.03914100 -0.09635069
v -0.04363725 -0.03956889 -0.09907236
v -0.04109356 -0.04047529 -0.09911102
v -0.04865784 -0.03401702 -0.08748980
v -0.04942866 -0.03247722 -0.08586609
v -0.05104224 -0.03108772 -0.08728103
v -0.05154070 -0.02990373 -0.08636093
v -0.05163320 -0.02979331 -0.08646917
v -0.04873493 -0.03162911 -0.08284286
v -0.04907922 -0.03207234 -0.08431968
v -0.04757356 -0.03292352 -0.08284286
v -0.04810286 -0.03345263 -0.08510061
v -0.04940810 -0.02979331 -0.08131966
v -0.05008129 -0.02979331 -0.08285833
v -0.05147390 -0.02979331 -0.08604392
v -0.04963421 -0.03046812 -0.08284286
v -0.03853958 -0.04119611 -0.09700792
v -0.03738336 -0.04148904 -0.09638162
v -0.03582117 -0.04166695 -0.09446408
v -0.03545117 -0.04158260 -0.09301819
v -0.03342136 -0.04164548 -0.09031972
v -0.03416648 -0.04175283 -0.09219860
v -0.02715204 -0.04300584 -0.09213675
v -0.03412023 -0.04205037 -0.09446408
v -0.03179750 -0.04252120 -0.09446408
v -0.02946963 -0.04292762 -0.09446408
v -0.01553326 -0.04256261 -0.08052326
v -0.01553326 -0.04220373 -0.07819593
v -0.02017872 -0.04315307 -0.08748980
v -0.02250658 -0.04324049 -0.08981714
v -0.02482931 -0.04328803 -0.09213675
v -0.01321053 -0.04167922 -0.07385053
v -0.01321053 -0.04199975 -0.07586859
v -0.01321053 -0.04236630 -0.07819593
v -0.01088266 -0.04214238 -0.07586859
v -0.00623720 -0.04168995 -0.07143041
v -0.02250658 -0.04404259 -0.10142289
v -0.02250658 -0.04407480 -0.09911102
v -0.02386836 -0.04388770 -0.09764967
v -0.02254256 -0.04396745 -0.09683780
v -0.02334421 -0.04383248 -0.09609554
v -0.02482931 -0.04353955 -0.09446408
v -0.02254256 -0.04376961 -0.09440222
v -0.04439779 -0.03914560 -0.10142289
v -0.04324671 -0.03959497 -0.10142289
v -0.04322615 -0.03960263 -0.10142289
v -0.04109356 -0.04036026 -0.10142289
v -0.03760946 -0.04154272 -0.09792802
v -0.03853958 -0.04126513 -0.09898731
v -0.03758891 -0.04153658 -0.09967545
v -0.05007615 -0.03121195 -0.08512381
v -0.03654060 -0.04172216 -0.09700792
v -0.03412023 -0.04225128 -0.09679142
v -0.02715204 -0.04326503 -0.09446408
v -0.03179750 -0.04273285 -0.09679142
v -0.02946963 -0.04313467 -0.09679142
v -0.02395572 -0.04389843 -0.10142289
v -0.02410474 -0.04391224 -0.09911102
v -0.02471626 -0.04374046 -0.09683780
v -0.02715204 -0.04345827 -0.09679142
v -0.02526611 -0.04378647 -0.09911102
v -0.03876569 -0.04107495 -0.10142289
v -0.03760946 -0.04154272 -0.09812905
v -0.03412023 -0.04235863 -0.09911102
v -0.03733711 -0.04147371 -0.10142289
v -0.03616546 -0.04177124 -0.10142289
v -0.03412023 -0.04227275 -0.10142289
v -0.03666393 -0.04176357 -0.09898731
v -0.03179750 -0.04284634 -0.09911102
v -0.02946963 -0.04324049 -0.09911102
v -0.02512222 -0.04376654 -0.10142289
v -0.02715204 -0.04355949 -0.09911102
v -0.03179750 -0.04276505 -0.10142289
v -0.02946963 -0.04316074 -0.10142289
v -0.02715204 -0.04350428 -0.10142289
f 1 2 10
f 1 10 19
f 1 19 35
f 1 35 56
f 1 56 89
f 1 89 138
f 1 138 136
f 1 136 192
f 1 192 191
f 1 191 190
f 1 190 264
f 1 264 263
f 1 263 262
f 1 262 341
f 1 341 414
f 1 414 435
f 1 435 429
f 1 429 351
f 1 351 272
f 1 272 198
f 1 198 143
f 1 143 94
f 1 94 59
f 1 59 37
f 1 37 20
f 1 20 11
f 1 11 3
f 1 3 12
f 1 12 21
f 1 21 40
f 1 40 65
f 1 65 64
f 1 64 103
f 1 103 154
f 1 154 153
f 1 153 214
f 1 214 213
f 1 213 296
f 1 296 376
f 1 376 449
f 1 449 456
f 1 456 455
f 1 455 454
f 1 454 385
f 1 385 307
f 1 307 306
f 1 306 223
f 1 223 222
f 1 222 226
f 1 226 219
f 1 219 160
f 1 160 109
f 1 109 70
f 1 70 66
f 1 66 41
f 1 41 25
f 1 25 23
f 1 23 22
f 1 22 13
f 1 13 4
f 1 4 5
f 1 5 6
f 1 6 7
f 1 7 8
f 1 8 9
f 1 9 2
f 2 9 10
f 3 11 12
f 4 13 5
f 5 13 14
f 5 14 15
f 5 15 16
f 5 16 6
f 6 16 7
f 7 16 17
f 7 17 8
f 8 17 9
f 9 17 18
f 9 18 19
f 9 19 10
f 11 20 36
f 11 36 57
f 11 57 90
f 11 90 139
f 11 139 193
f 11 193 265
f 11 265 342
f 11 342 415
f 11 415 478
f 11 478 498
f 11 498 512
f 11 512 516
f 11 516 515
f 11 515 514
f 11 514 508
f 11 508 507
f 11 507 506
f 11 506 503
f 11 503 488
f 11 488 487
f 11 487 486
f 11 486 485
f 11 485 437
f 11 437 361
f 11 361 286
f 11 286 205
f 11 205 147
f 11 147 97
f 11 97 61
f 11 61 38
f 11 38 21
f 11 21 12
f 13 22 15
f 13 15 14
f 15 22 23
f 15 23 24
f 15 24 25
f 15 25 26
f 15 26 27
f 15 27 16
f 16 27 28
f 16 28 29
f 16 29 30
f 16 30 17
f 17 31 32
f 17 32 33
f 17 33 34
f 17 34 18
f 17 30 31
f 18 34 35
f 18 35 19
f 20 37 36
f 21 38 39
f 21 39 40
f 23 25 24
f 25 41 42
f 25 42 26
f 26 43 44
f 26 44 27
f 26 42 45
f 26 45 46
f 26 46 47
f 26 47 43
f 27 44 43
f 27 43 28
f 28 43 29
f 29 43 48
f 29 48 49
f 29 49 30
f 30 49 50
f 30 50 51
f 30 51 52
f 30 52 53
f 30 53 31
f 31 53 54
f 31 54 55
f 31 55 32
f 32 55 56
f 32 56 33
f 33 56 34
f 34 56 35
f 36 37 58
f 36 58 57
f 37 59 60
f 37 60 58
f 38 61 39
f 39 62 63
f 39 63 64
f 39 64 65
f 39 65 40
f 39 61 62
f 41 66 42
f 42 67 68
f 42 68 69
f 42 69 45
f 42 66 70
f 42 70 67
f 43 47 48
f 45 69 71
f 45 71 72
f 45 72 46
f 46 72 73
f 46 73 47
f 47 73 74
f 47 74 75
f 47 75 76
f 47 76 77
f 47 77 78
f 47 78 48
f 48 79 49
f 48 78 77
f 48 77 76
f 48 76 80
f 48 80 79
f 49 79 81
f 49 81 82
f 49 82 83
f 49 83 50
f 50 83 84
f 50 84 51
f 51 85 52
f 51 84 85
f 52 85 53
f 53 85 54
f 54 86 55
f 54 85 86
f 55 86 87
f 55 87 88
f 55 88 89
f 55 89 56
f 57 58 91
f 57 91 92
f 57 92 90
f 58 60 93
f 58 93 91
f 59 94 95
f 59 95 60
f 60 95 96
f 60 96 93
f 61 97 98
f 61 98 99
f 61 99 62
f 62 99 100
f 62 100 101
f 62 101 63
f 63 101 102
f 63 102 64
f 64 102 103
f 67 70 104
f 67 104 105
f 67 105 106
f 67 106 68
f 68 106 107
f 68 107 108
f 68 108 69
f 69 108 71
f 70 109 110
f 70 110 111
f 70 111 112
f 70 112 104
f 71 108 72
f 72 113 114
f 72 114 115
f 72 115 74
f 72 74 73
f 72 108 113
f 74 115 116
f 74 116 117
f 74 117 118
f 74 118 75
f 75 118 76
f 76 119 79
f 76 79 80
f 76 118 120
f 76 120 119
f 79 119 81
f 81 121 122
f 81 122 82
f 81 119 123
f 81 123 124
f 81 124 125
f 81 125 126
f 81 126 121
f 82 122 83
f 83 122 127
f 83 127 84
f 84 128 85
f 84 127 128
f 85 129 130
f 85 130 86
f 85 128 131
f 85 131 129
f 86 130 87
f 87 130 132
f 87 132 133
f 87 133 134
f 87 134 135
f 87 135 136
f 87 136 137
f 87 137 88
f 88 137 138
f 88 138 89
f 90 92 139
f 91 93 140
f 91 140 92
f 92 141 139
f 92 140 142
f 92 142 141
f 93 96 140
f 94 143 144
f 94 144 95
f 95 144 145
f 95 145 96
f 96 146 140
f 96 145 200
f 96 200 146
f 97 147 98
f 98 148 149
f 98 149 99
f 98 147 148
f 99 149 100
f 100 149 150
f 100 150 151
f 100 151 101
f 101 151 152
f 101 152 102
f 102 152 153
f 102 153 154
f 102 154 103
f 104 112 105
f 105 112 155
f 105 155 106
f 106 155 156
f 106 156 107
f 107 156 157
f 107 157 158
f 107 158 159
f 107 159 113
f 107 113 108
f 109 160 161
f 109 161 162
f 109 162 110
f 110 163 164
f 110 164 112
f 110 112 111
f 110 162 160
f 110 160 165
f 110 165 166
f 110 166 163
f 112 164 167
f 112 167 155
f 113 159 168
f 113 168 114
f 114 168 169
f 114 169 170
f 114 170 171
f 114 171 116
f 114 116 115
f 116 171 172
f 116 172 173
f 116 173 174
f 116 174 175
f 116 175 117
f 117 175 176
f 117 176 177
f 117 177 118
f 118 177 120
f 119 120 178
f 119 178 123
f 120 177 179
f 120 179 178
f 121 180 181
f 121 181 127
f 121 127 122
f 121 126 182
f 121 182 183
f 121 183 180
f 123 178 184
f 123 184 185
f 123 185 125
f 123 125 124
f 125 185 126
f 126 185 182
f 127 181 186
f 127 186 128
f 128 186 131
f 129 131 132
f 129 132 130
f 131 187 133
f 131 133 132
f 131 186 187
f 133 187 188
f 133 188 134
f 134 188 189
f 134 189 190
f 134 190 191
f 134 191 192
f 134 192 135
f 135 192 136
f 136 138 137
f 139 141 193
f 140 146 142
f 141 194 193
f 141 142 194
f 142 146 195
f 142 195 196
f 142 196 197
f 142 197 194
f 143 198 144
f 144 198 199
f 144 199 145
f 145 199 201
f 145 201 202
f 145 202 203
f 145 203 200
f 146 200 204
f 146 204 195
f 147 205 148
f 148 205 206
f 148 206 207
f 148 207 149
f 149 207 208
f 149 208 209
f 149 209 150
f 150 209 210
f 150 210 151
f 151 210 211
f 151 211 152
f 152 211 212
f 152 212 213
f 152 213 214
f 152 214 153
f 155 167 215
f 155 215 156
f 156 215 157
f 157 216 158
f 157 215 216
f 158 216 217
f 158 217 218
f 158 218 159
f 159 218 168
f 160 162 161
f 160 219 165
f 163 166 220
f 163 220 221
f 163 221 167
f 163 167 164
f 165 222 223
f 165 223 224
f 165 224 225
f 165 225 166
f 165 219 226
f 165 226 222
f 166 225 227
f 166 227 220
f 167 221 215
f 168 218 169
f 169 218 228
f 169 228 229
f 169 229 170
f 170 172 171
f 170 229 230
f 170 230 231
f 170 231 232
f 170 232 233
f 170 233 173
f 170 173 172
f 173 233 232
f 173 232 234
f 173 234 235
f 173 235 236
f 173 236 174
f 174 236 175
f 175 236 176
f 176 236 235
f 176 235 237
f 176 237 238
f 176 238 177
f 177 238 239
f 177 239 179
f 178 179 240
f 178 240 185
f 178 185 184
f 179 239 241
f 179 241 242
f 179 242 243
f 179 243 240
f 180 244 181
f 180 183 245
f 180 245 244
f 181 246 186
f 181 244 247
f 181 247 246
f 182 185 248
f 182 248 183
f 183 248 249
f 183 249 250
f 183 250 245
f 185 251 248
f 185 240 252
f 185 252 253
f 185 253 254
f 185 254 255
f 185 255 256
f 185 256 257
f 185 257 251
f 186 246 187
f 187 246 258
f 187 258 259
f 187 259 188
f 188 259 260
f 188 260 261
f 188 261 189
f 189 261 262
f 189 262 263
f 189 263 264
f 189 264 190
f 193 194 266
f 193 266 265
f 194 197 270
f 194 270 266
f 195 204 267
f 195 267 196
f 196 268 197
f 196 267 269
f 196 269 268
f 197 268 270
f 198 271 199
f 198 272 271
f 199 271 273
f 199 273 201
f 200 203 274
f 200 274 275
f 200 275 204
f 201 273 202
f 202 276 277
f 202 277 278
f 202 278 279
f 202 279 203
f 202 273 280
f 202 280 281
f 202 281 271
f 202 271 282
f 202 282 283
f 202 283 284
f 202 284 285
f 202 285 276
f 203 279 278
f 203 278 274
f 204 275 267
f 205 286 206
f 206 287 288
f 206 288 207
f 206 286 287
f 207 288 289
f 207 289 290
f 207 290 209
f 207 209 208
f 209 290 291
f 209 291 210
f 210 291 292
f 210 292 293
f 210 293 294
f 210 294 211
f 211 294 212
f 212 294 295
f 212 295 213
f 213 295 296
f 215 221 297
f 215 297 298
f 215 298 216
f 216 298 299
f 216 299 217
f 217 299 300
f 217 300 301
f 217 301 218
f 218 301 302
f 218 302 303
f 218 303 228
f 220 227 304
f 220 304 305
f 220 305 297
f 220 297 221
f 223 306 224
f 224 306 307
f 224 307 308
f 224 308 304
f 224 304 227
f 224 227 225
f 228 303 309
f 228 309 229
f 229 309 230
f 230 309 310
f 230 310 231
f 231 310 311
f 231 311 312
f 231 312 232
f 232 312 313
f 232 313 314
f 232 314 315
f 232 315 234
f 234 315 235
f 235 315 237
f 237 315 314
f 237 314 316
f 237 316 238
f 238 317 239
f 238 316 318
f 238 318 317
f 239 317 241
f 240 243 253
f 240 253 252
f 241 317 319
f 241 319 242
f 242 320 243
f 242 319 321
f 242 321 322
f 242 322 323
f 242 323 320
f 243 320 253
f 244 324 247
f 244 245 325
f 244 325 324
f 245 250 326
f 245 326 327
f 245 327 325
f 246 247 328
f 246 328 258
f 247 324 325
f 247 325 328
f 248 251 329
f 248 329 330
f 248 330 326
f 248 326 331
f 248 331 250
f 248 250 249
f 250 331 326
f 251 257 329
f 253 320 255
f 253 255 254
f 255 320 323
f 255 323 332
f 255 332 256
f 256 332 333
f 256 333 334
f 256 334 330
f 256 330 257
f 257 330 329
f 258 328 335
f 258 335 336
f 258 336 259
f 259 336 337
f 259 337 260
f 260 337 338
f 260 338 339
f 260 339 340
f 260 340 261
f 261 340 341
f 261 341 262
f 265 266 343
f 265 343 342
f 266 270 344
f 266 344 343
f 267 345 269
f 267 275 346
f 267 346 345
f 268 269 347
f 268 347 348
f 268 348 349
f 268 349 270
f 269 345 350
f 269 350 347
f 270 349 344
f 271 281 280
f 271 280 273
f 271 272 282
f 272 351 282
f 274 278 352
f 274 352 353
f 274 353 275
f 275 353 354
f 275 354 355
f 275 355 346
f 276 356 278
f 276 278 277
f 276 285 357
f 276 357 356
f 278 356 352
f 282 351 358
f 282 358 284
f 282 284 283
f 284 359 285
f 284 358 359
f 285 359 360
f 285 360 357
f 286 361 287
f 287 362 363
f 287 363 364
f 287 364 288
f 287 361 362
f 288 364 365
f 288 365 289
f 289 365 366
f 289 366 290
f 290 366 367
f 290 367 368
f 290 368 291
f 291 368 292
f 292 368 369
f 292 369 370
f 292 370 371
f 292 371 372
f 292 372 373
f 292 373 293
f 293 373 294
f 294 373 374
f 294 374 375
f 294 375 295
f 295 375 296
f 296 375 376
f 297 305 298
f 298 305 377
f 298 377 378
f 298 378 379
f 298 379 299
f 299 379 380
f 299 380 300
f 300 380 381
f 300 381 301
f 301 381 302
f 302 382 303
f 302 381 382
f 303 382 383
f 303 383 367
f 303 367 309
f 304 308 384
f 304 384 377
f 304 377 305
f 307 385 386
f 307 386 384
f 307 384 308
f 309 367 310
f 310 367 311
f 311 367 366
f 311 366 365
f 311 365 312
f 312 365 387
f 312 387 313
f 313 387 388
f 313 388 389
f 313 389 314
f 314 389 316
f 316 389 390
f 316 390 391
f 316 391 392
f 316 392 318
f 317 318 393
f 317 393 394
f 317 394 395
f 317 395 319
f 318 392 393
f 319 395 321
f 321 395 396
f 321 396 322
f 322 397 332
f 322 332 323
f 322 396 398
f 322 398 399
f 322 399 397
f 325 327 326
f 325 326 400
f 325 400 401
f 325 401 402
f 325 402 403
f 325 403 335
f 325 335 328
f 326 330 404
f 326 404 400
f 330 334 404
f 332 397 333
f 333 405 334
f 333 397 406
f 333 406 405
f 334 405 407
f 334 407 404
f 335 408 409
f 335 409 336
f 335 403 408
f 336 409 410
f 336 410 337
f 337 410 338
f 338 410 411
f 338 411 412
f 338 412 339
f 339 412 413
f 339 413 340
f 340 414 341
f 340 413 358
f 340 358 414
f 342 343 416
f 342 416 415
f 343 344 416
f 344 349 417
f 344 417 416
f 345 346 418
f 345 418 350
f 346 355 418
f 347 350 419
f 347 419 348
f 348 419 420
f 348 420 421
f 348 421 422
f 348 422 349
f 349 422 423
f 349 423 424
f 349 424 417
f 350 418 355
f 350 355 425
f 350 425 426
f 350 426 427
f 350 427 428
f 350 428 419
f 351 429 358
f 352 356 430
f 352 430 353
f 353 430 431
f 353 431 354
f 354 425 355
f 354 431 432
f 354 432 425
f 356 357 430
f 357 360 433
f 357 433 475
f 357 475 434
f 357 434 430
f 358 429 435
f 358 435 414
f 358 413 436
f 358 436 360
f 358 360 359
f 360 436 433
f 361 437 362
f 362 438 363
f 362 437 439
f 362 439 438
f 363 440 441
f 363 441 442
f 363 442 364
f 363 438 443
f 363 443 444
f 363 444 440
f 364 442 365
f 365 442 387
f 367 383 380
f 367 380 370
f 367 370 369
f 367 369 368
f 370 380 371
f 371 380 445
f 371 445 446
f 371 446 372
f 372 446 447
f 372 447 374
f 372 374 373
f 374 447 448
f 374 448 375
f 375 448 376
f 376 448 449
f 377 384 450
f 377 450 451
f 377 451 452
f 377 452 378
f 378 452 379
f 379 452 453
f 379 453 445
f 379 445 380
f 380 383 381
f 381 383 382
f 384 386 450
f 385 454 386
f 386 454 455
f 386 455 456
f 386 456 448
f 386 448 457
f 386 457 450
f 387 442 388
f 388 442 441
f 388 441 389
f 389 441 440
f 389 440 390
f 390 440 458
f 390 458 459
f 390 459 391
f 391 460 461
f 391 461 392
f 391 459 460
f 392 461 393
f 393 462 394
f 393 461 463
f 393 463 462
f 394 462 395
f 395 462 396
f 396 462 398
f 397 399 464
f 397 464 406
f 398 462 463
f 398 463 465
f 398 465 466
f 398 466 399
f 399 466 467
f 399 467 464
f 400 404 401
f 401 468 469
f 401 469 402
f 401 404 432
f 401 432 468
f 402 469 403
f 403 469 408
f 404 407 432
f 405 470 407
f 405 406 471
f 405 471 470
f 406 464 472
f 406 472 471
f 407 470 426
f 407 426 425
f 407 425 432
f 408 473 409
f 408 469 473
f 409 473 474
f 409 474 475
f 409 475 476
f 409 476 410
f 410 476 411
f 411 476 412
f 412 477 413
f 412 476 433
f 412 433 436
f 412 436 477
f 413 477 436
f 415 416 478
f 416 479 478
f 416 417 480
f 416 480 479
f 417 481 480
f 417 424 482
f 417 482 481
f 419 428 471
f 419 471 421
f 419 421 420
f 421 471 472
f 421 472 483
f 421 483 422
f 422 483 484
f 422 484 424
f 422 424 423
f 424 484 483
f 424 483 482
f 426 470 427
f 427 470 428
f 428 470 471
f 430 434 431
f 431 434 468
f 431 468 432
f 433 476 475
f 434 475 468
f 437 485 439
f 438 439 443
f 439 485 486
f 439 486 487
f 439 487 488
f 439 488 444
f 439 444 443
f 440 444 489
f 440 489 458
f 444 490 489
f 444 488 491
f 444 491 490
f 445 453 446
f 446 453 452
f 446 452 451
f 446 451 492
f 446 492 447
f 447 492 448
f 448 456 449
f 448 492 457
f 450 457 451
f 451 457 492
f 458 489 459
f 459 465 460
f 459 489 493
f 459 493 494
f 459 494 465
f 460 465 461
f 461 465 463
f 464 467 495
f 464 495 472
f 465 494 496
f 465 496 466
f 466 496 467
f 467 496 497
f 467 497 495
f 468 475 469
f 469 475 474
f 469 474 473
f 472 495 483
f 478 479 498
f 479 499 498
f 479 480 499
f 480 481 482
f 480 482 500
f 480 500 501
f 480 501 502
f 480 502 499
f 482 483 500
f 483 495 501
f 483 501 500
f 488 503 491
f 489 494 493
f 489 490 504
f 489 504 505
f 489 505 494
f 490 491 504
f 491 503 506
f 491 506 507
f 491 507 508
f 491 508 505
f 491 505 509
f 491 509 504
f 494 505 510
f 494 510 496
f 495 497 501
f 496 510 497
f 497 510 511
f 497 511 501
f 498 499 502
f 498 502 512
f 501 511 513
f 501 513 502
f 502 513 512
f 504 509 505
f 505 508 514
f 505 514 510
f 510 514 515
f 510 515 511
f 511 515 516
f 511 516 513
f 512 513 516

