# https://github.com/mikedh/trimesh
v 0.04433728 0.02930349 -0.10901899
v 0.04433728 0.03069418 -0.09596337
v 0.04433728 0.03912520 -0.10901899
v 0.04971930 -0.00062784 -0.10901899
v 0.04978622 -0.00062784 -0.09596337
v 0.04433728 0.03743031 -0.09596337
v 0.04433728 0.03937015 -0.10840174
v 0.04483574 0.03897902 -0.10901899
v 0.05804294 -0.00062784 -0.10901899
v 0.05590433 -0.00062784 -0.09596337
v 0.04520446 0.03712609 -0.09596337
v 0.04433728 0.03768316 -0.09674037
v 0.04474287 0.03930694 -0.10825604
v 0.04433728 0.03955189 -0.10784966
v 0.04571795 0.03870247 -0.10901899
v 0.05810576 -0.00062784 -0.10841323
v 0.05811395 0.00145818 -0.10901899
v 0.05817951 0.00145818 -0.10841323
v 0.05665134 -0.00062784 -0.09911737
v 0.05598354 0.00138312 -0.09596337
v 0.04605526 0.03747376 -0.09796081
v 0.04552266 0.03728413 -0.09679276
v 0.04725021 0.03626087 -0.09596337
v 0.04433728 0.03769896 -0.09679276
v 0.04722290 0.03844566 -0.10841323
v 0.04722290 0.03821652 -0.10901899
v 0.04433728 0.03970992 -0.10687713
v 0.05796510 -0.00062784 -0.10633016
v 0.05817541 0.00438573 -0.10901899
v 0.05822867 0.00378126 -0.10841323
v 0.05801153 0.00145818 -0.10608862
v 0.05670597 -0.00062784 -0.09935890
v 0.05671553 0.00145818 -0.09911737
v 0.05674967 0.00378126 -0.09911737
v 0.05600129 0.00295554 -0.09596337
v 0.04722290 0.03656508 -0.09679276
v 0.04732532 0.03721301 -0.09888861
v 0.04816656 0.03738289 -0.10060235
v 0.04661791 0.03770291 -0.09951098
v 0.04512798 0.03806243 -0.09888861
v 0.04887533 0.03544700 -0.09596337
v 0.04433728 0.03832714 -0.09895890
v 0.04722290 0.03880124 -0.10608862
v 0.04900370 0.03775427 -0.10841323
v 0.04783197 0.03801898 -0.10901899
v 0.04433728 0.03973363 -0.10608862
v 0.04508292 0.03951238 -0.10608862
v 0.05794734 -0.00062784 -0.10608862
v 0.05821365 0.00671276 -0.10901899
v 0.05826690 0.00610434 -0.10841323
v 0.05805797 0.00378126 -0.10608862
v 0.05777118 0.00145818 -0.10438000
v 0.05774113 -0.00062784 -0.10456019
v 0.05776571 -0.00062784 -0.10473783
v 0.05717166 -0.00062784 -0.10144197
v 0.05723038 0.00145818 -0.10144197
v 0.05726589 0.00378126 -0.10144197
v 0.05675650 0.00610434 -0.09911737
v 0.05601495 0.00527467 -0.09596337
v 0.05600949 0.00378126 -0.09596337
v 0.04863634 0.03760414 -0.10215252
v 0.04732532 0.03794786 -0.10140363
v 0.04913480 0.03559713 -0.09679276
v 0.04976300 0.03596850 -0.09891545
v 0.04946529 0.03692855 -0.10140363
v 0.04489856 0.03883284 -0.10144197
v 0.05008393 0.03459758 -0.09596337
v 0.05029697 0.03483858 -0.09679276
v 0.05068072 0.03513489 -0.09800555
v 0.04433728 0.03885260 -0.10087840
v 0.04722290 0.03854049 -0.10376403
v 0.04936970 0.03792811 -0.10608862
v 0.04433728 0.03960325 -0.10426626
v 0.05016587 0.03721696 -0.10841323
v 0.04939018 0.03736709 -0.10901899
v 0.04877428 0.03765155 -0.10901899
v 0.05823823 0.00903584 -0.10901899
v 0.05828739 0.00842741 -0.10841323
v 0.05808391 0.00610434 -0.10608862
v 0.05779439 0.00378126 -0.10426498
v 0.05757726 0.00145818 -0.10321833
v 0.05756906 -0.00062784 -0.10351993
v 0.05720716 -0.00062784 -0.10162599
v 0.05759364 0.00378126 -0.10310204
v 0.05759364 0.00610434 -0.10306881
v 0.05726862 0.00610434 -0.10144197
v 0.05601495 0.00610434 -0.09596337
v 0.05724950 0.00842741 -0.10144197
v 0.05672782 0.00842741 -0.09911737
v 0.05020001 0.03720116 -0.10376403
v 0.04903784 0.03778983 -0.10376403
v 0.05104535 0.03539959 -0.09955570
v 0.05149192 0.03570380 -0.10144197
v 0.04473741 0.03940966 -0.10388032
v 0.04433728 0.03948868 -0.10368479
v 0.04433728 0.03899483 -0.10144070
v 0.05130482 0.03346765 -0.09596337
v 0.05150011 0.03367704 -0.09679276
v 0.05265409 0.03477536 -0.10144197
v 0.05296682 0.03509143 -0.10277872
v 0.05053186 0.03738685 -0.10608862
v 0.05209690 0.03599616 -0.10863177
v 0.05248611 0.03564059 -0.10901899
v 0.05047451 0.03678237 -0.10901899
v 0.05823823 0.01135891 -0.10901899
v 0.05828466 0.01075444 -0.10841323
v 0.05809484 0.00842741 -0.10608862
v 0.05780805 0.00610434 -0.10423048
v 0.05754858 -0.00062784 -0.10339852
v 0.05781351 0.00842741 -0.10423686
v 0.05758818 0.00842741 -0.10307520
v 0.05599583 0.00760169 -0.09596337
v 0.05757452 0.01075444 -0.10313271
v 0.05720853 0.01075444 -0.10144197
v 0.05667046 0.01075444 -0.09911737
v 0.05598354 0.00846297 -0.09596337
v 0.05206276 0.03596061 -0.10363750
v 0.05296409 0.03270514 -0.09811417
v 0.05326999 0.03316343 -0.09966306
v 0.05239052 0.03200189 -0.09596337
v 0.05320854 0.03531662 -0.10432889
v 0.05359502 0.03361383 -0.10144197
v 0.05388044 0.03418669 -0.10363750
v 0.05187020 0.03649791 -0.10608862
v 0.05326043 0.03535613 -0.10800301
v 0.05372612 0.03452646 -0.10901899
v 0.05822867 0.01307752 -0.10901899
v 0.05827101 0.01307752 -0.10841323
v 0.05808254 0.01075444 -0.10608862
v 0.05780532 0.01075444 -0.10429437
v 0.05778893 0.01307752 -0.10440045
v 0.05754721 0.01307752 -0.10323750
v 0.05714707 0.01307752 -0.10144197
v 0.05594121 0.01003144 -0.09596337
v 0.05659672 0.01307752 -0.09911737
v 0.05266228 0.03219153 -0.09679276
v 0.05312523 0.03070603 -0.09596337
v 0.05327545 0.03102999 -0.09679276
v 0.05369471 0.03182806 -0.09898063
v 0.05475036 0.03150409 -0.10159533
v 0.05512181 0.03224684 -0.10376403
v 0.05530618 0.03271304 -0.10521323
v 0.05543728 0.03295009 -0.10676339
v 0.05463974 0.03383112 -0.10602856
v 0.05333554 0.03542725 -0.10608862
v 0.05543728 0.03295009 -0.10766435
v 0.05426555 0.03404841 -0.10860876
v 0.05494564 0.03313183 -0.10901899
v 0.05822457 0.01368199 -0.10901899
v 0.05825188 0.01540059 -0.10841323
v 0.05805523 0.01307752 -0.10608862
v 0.05801017 0.01540059 -0.10608862
v 0.05775752 0.01540059 -0.10456403
v 0.05750897 0.01540059 -0.10340236
v 0.05706241 0.01540059 -0.10144197
v 0.05591526 0.01075444 -0.09596337
v 0.05585926 0.01218463 -0.09596337
v 0.05649293 0.01540059 -0.09911737
v 0.05354039 0.02934300 -0.09596337
v 0.05383401 0.02934300 -0.09679276
v 0.05463838 0.02934300 -0.09911737
v 0.05539904 0.03062306 -0.10247329
v 0.05558067 0.03108531 -0.10376403
v 0.05580191 0.03182806 -0.10602856
v 0.05677562 0.02934300 -0.10841323
v 0.05584288 0.03182016 -0.10842857
v 0.05541270 0.03247599 -0.10901899
v 0.05820955 0.01540059 -0.10901899
v 0.05819862 0.01600902 -0.10901899
v 0.05819726 0.01772762 -0.10841323
v 0.05792959 0.01772762 -0.10608862
v 0.05771109 0.01772762 -0.10478639
v 0.05745981 0.01772762 -0.10362345
v 0.05694769 0.01772762 -0.10144197
v 0.05581283 0.01307752 -0.09596337
v 0.05589341 0.01540059 -0.09679276
v 0.05574045 0.01437733 -0.09596337
v 0.05372749 0.02862000 -0.09596337
v 0.05535261 0.02815776 -0.10029309
v 0.05519420 0.02934300 -0.10077360
v 0.05556292 0.02934300 -0.10193527
v 0.05609416 0.02934300 -0.10376403
v 0.05662403 0.02934300 -0.10608862
v 0.05734100 0.02701992 -0.10841323
v 0.05725496 0.02701992 -0.10901899
v 0.05661447 0.02939436 -0.10901899
v 0.05643011 0.02991191 -0.10901899
v 0.05579372 0.03161076 -0.10901899
v 0.05815765 0.01772762 -0.10901899
v 0.05810712 0.02004674 -0.10841323
v 0.05781898 0.01984525 -0.10599790
v 0.05768377 0.01893657 -0.10491291
v 0.05742294 0.01984525 -0.10398895
v 0.05679201 0.02004674 -0.10144197
v 0.05634680 0.01772762 -0.09911737
v 0.05567354 0.01540059 -0.09596337
v 0.05410577 0.02706733 -0.09596337
v 0.05579918 0.02723722 -0.10121705
v 0.05657623 0.02701992 -0.10376403
v 0.05439802 0.02701992 -0.09679276
v 0.05428331 0.02619025 -0.09596337
v 0.05458102 0.02458227 -0.09596337
v 0.05549191 0.02660904 -0.09985603
v 0.05710337 0.02701992 -0.10608862
v 0.05763324 0.02544355 -0.10841323
v 0.05768377 0.02492994 -0.10901899
v 0.05805933 0.02008625 -0.10901899
v 0.05803065 0.02075394 -0.10901899
v 0.05792959 0.02236982 -0.10901899
v 0.05796100 0.02236982 -0.10841323
v 0.05778347 0.02236982 -0.10668927
v 0.05763734 0.02048528 -0.10516339
v 0.05717029 0.02236982 -0.10376403
v 0.05615698 0.02004674 -0.09911737
v 0.05551922 0.01737205 -0.09596337
v 0.05656940 0.02236982 -0.10144197
v 0.05627579 0.02469289 -0.10144197
v 0.05691082 0.02469289 -0.10376403
v 0.05746664 0.02468499 -0.10619470
v 0.05493199 0.02450721 -0.09700235
v 0.05524336 0.02515909 -0.09830714
v 0.05473397 0.02363013 -0.09596337
v 0.05559706 0.02450721 -0.09909564
v 0.05772064 0.02390669 -0.10703943
v 0.05777118 0.02428201 -0.10841323
v 0.05776708 0.02423065 -0.10901899
v 0.05788180 0.02308097 -0.10901899
v 0.05756496 0.02236982 -0.10552633
v 0.05559297 0.02004674 -0.09716209
v 0.05590160 0.02236982 -0.09911737
v 0.05536900 0.01883385 -0.09596337
v 0.05536900 0.02360642 -0.09791736
v 0.05492653 0.02236982 -0.09596337
v 0.05523243 0.02004674 -0.09596337
v 0.05523926 0.01998748 -0.09596337
v 0.05545503 0.02236982 -0.09763622
v 0.05509041 0.02236982 -0.09647455
v 0.05500983 0.02177720 -0.09596337
f 1 2 6
f 1 6 12
f 1 12 24
f 1 24 42
f 1 42 70
f 1 70 96
f 1 96 95
f 1 95 73
f 1 73 46
f 1 46 27
f 1 27 14
f 1 14 7
f 1 7 3
f 1 3 8
f 1 8 15
f 1 15 26
f 1 26 45
f 1 45 76
f 1 76 75
f 1 75 104
f 1 104 103
f 1 103 126
f 1 126 148
f 1 148 167
f 1 167 188
f 1 188 187
f 1 187 186
f 1 186 185
f 1 185 206
f 1 206 226
f 1 226 227
f 1 227 209
f 1 209 208
f 1 208 207
f 1 207 189
f 1 189 169
f 1 169 168
f 1 168 149
f 1 149 127
f 1 127 105
f 1 105 77
f 1 77 49
f 1 49 29
f 1 29 17
f 1 17 9
f 1 9 4
f 1 4 5
f 1 5 2
f 2 5 10
f 2 10 20
f 2 20 35
f 2 35 60
f 2 60 59
f 2 59 87
f 2 87 112
f 2 112 116
f 2 116 134
f 2 134 156
f 2 156 157
f 2 157 175
f 2 175 177
f 2 177 196
f 2 196 215
f 2 215 231
f 2 231 235
f 2 235 234
f 2 234 238
f 2 238 233
f 2 233 222
f 2 222 202
f 2 202 201
f 2 201 197
f 2 197 178
f 2 178 159
f 2 159 137
f 2 137 120
f 2 120 97
f 2 97 67
f 2 67 41
f 2 41 23
f 2 23 11
f 2 11 6
f 3 7 8
f 4 9 16
f 4 16 28
f 4 28 48
f 4 48 54
f 4 54 53
f 4 53 82
f 4 82 109
f 4 109 83
f 4 83 55
f 4 55 32
f 4 32 19
f 4 19 10
f 4 10 5
f 6 11 12
f 7 13 8
f 7 14 13
f 8 13 15
f 9 17 18
f 9 18 16
f 10 19 20
f 11 21 22
f 11 22 12
f 11 23 21
f 12 22 21
f 12 21 24
f 13 14 25
f 13 25 26
f 13 26 15
f 14 27 25
f 16 18 28
f 17 29 30
f 17 30 18
f 18 31 28
f 18 30 31
f 19 32 33
f 19 33 20
f 20 33 34
f 20 34 35
f 21 23 36
f 21 36 37
f 21 37 38
f 21 38 39
f 21 39 40
f 21 40 24
f 23 41 36
f 24 40 42
f 25 43 44
f 25 44 45
f 25 45 26
f 25 27 43
f 27 46 47
f 27 47 43
f 28 31 48
f 29 49 50
f 29 50 30
f 30 50 51
f 30 51 31
f 31 52 53
f 31 53 54
f 31 54 48
f 31 51 52
f 32 55 33
f 33 56 57
f 33 57 34
f 33 55 56
f 34 57 58
f 34 58 59
f 34 59 60
f 34 60 35
f 36 41 38
f 36 38 37
f 38 61 62
f 38 62 39
f 38 41 63
f 38 63 64
f 38 64 65
f 38 65 61
f 39 62 66
f 39 66 40
f 40 66 42
f 41 67 68
f 41 68 69
f 41 69 63
f 42 66 70
f 43 71 72
f 43 72 44
f 43 47 73
f 43 73 71
f 44 72 74
f 44 74 75
f 44 75 76
f 44 76 45
f 46 73 47
f 49 77 50
f 50 77 78
f 50 78 79
f 50 79 51
f 51 80 52
f 51 79 80
f 52 81 82
f 52 82 53
f 52 80 81
f 55 83 81
f 55 81 56
f 56 81 84
f 56 84 57
f 57 84 85
f 57 85 86
f 57 86 58
f 58 87 59
f 58 86 88
f 58 88 89
f 58 89 87
f 61 65 90
f 61 90 91
f 61 91 71
f 61 71 62
f 62 71 66
f 63 69 64
f 64 69 65
f 65 69 92
f 65 92 93
f 65 93 90
f 66 94 95
f 66 95 96
f 66 96 70
f 66 71 94
f 67 97 69
f 67 69 68
f 69 97 98
f 69 98 99
f 69 99 100
f 69 100 92
f 71 91 72
f 71 73 94
f 72 91 101
f 72 101 74
f 73 95 94
f 74 101 102
f 74 102 103
f 74 103 104
f 74 104 75
f 77 105 78
f 78 105 106
f 78 106 107
f 78 107 79
f 79 108 80
f 79 107 108
f 80 84 81
f 80 108 84
f 81 83 109
f 81 109 82
f 84 108 85
f 85 108 110
f 85 110 111
f 85 111 86
f 86 111 88
f 87 89 112
f 88 111 113
f 88 113 114
f 88 114 89
f 89 114 115
f 89 115 116
f 89 116 112
f 90 101 91
f 90 93 117
f 90 117 101
f 92 100 93
f 93 100 117
f 97 118 119
f 97 119 98
f 97 120 118
f 98 119 99
f 99 119 100
f 100 121 117
f 100 119 122
f 100 122 123
f 100 123 121
f 101 117 121
f 101 121 124
f 101 124 125
f 101 125 102
f 102 125 103
f 103 125 126
f 105 127 106
f 106 127 128
f 106 128 129
f 106 129 107
f 107 110 108
f 107 129 110
f 110 129 130
f 110 130 111
f 111 130 113
f 113 130 131
f 113 131 132
f 113 132 114
f 114 132 133
f 114 133 115
f 115 134 116
f 115 133 135
f 115 135 134
f 118 120 136
f 118 136 137
f 118 137 138
f 118 138 139
f 118 139 119
f 119 139 140
f 119 140 141
f 119 141 122
f 120 137 136
f 121 123 142
f 121 142 143
f 121 143 144
f 121 144 145
f 121 145 124
f 122 141 142
f 122 142 123
f 124 145 125
f 125 145 146
f 125 146 147
f 125 147 126
f 126 147 148
f 127 149 128
f 128 149 150
f 128 150 129
f 129 150 151
f 129 151 130
f 130 151 131
f 131 151 152
f 131 152 153
f 131 153 132
f 132 153 154
f 132 154 133
f 133 154 155
f 133 155 135
f 134 135 156
f 135 157 156
f 135 155 158
f 135 158 157
f 137 159 160
f 137 160 161
f 137 161 162
f 137 162 140
f 137 140 138
f 138 140 139
f 140 162 141
f 141 162 163
f 141 163 142
f 142 163 164
f 142 164 143
f 143 146 145
f 143 145 144
f 143 164 165
f 143 165 146
f 146 165 166
f 146 166 167
f 146 167 148
f 146 148 147
f 149 168 150
f 150 152 151
f 150 168 169
f 150 169 170
f 150 170 152
f 152 170 171
f 152 171 153
f 153 171 172
f 153 172 154
f 154 172 173
f 154 173 155
f 155 173 174
f 155 174 158
f 157 158 175
f 158 176 177
f 158 177 175
f 158 174 176
f 159 178 160
f 160 178 179
f 160 179 161
f 161 180 162
f 161 179 180
f 162 180 179
f 162 179 181
f 162 181 182
f 162 182 163
f 163 182 183
f 163 183 164
f 164 183 165
f 165 184 185
f 165 185 186
f 165 186 187
f 165 187 188
f 165 188 166
f 165 183 184
f 166 188 167
f 169 189 170
f 170 189 190
f 170 190 171
f 171 190 191
f 171 191 192
f 171 192 172
f 172 192 173
f 173 192 193
f 173 193 174
f 174 193 194
f 174 194 195
f 174 195 176
f 176 196 177
f 176 195 196
f 178 197 179
f 179 198 199
f 179 199 182
f 179 182 181
f 179 197 200
f 179 200 201
f 179 201 202
f 179 202 203
f 179 203 198
f 182 199 183
f 183 199 204
f 183 204 184
f 184 204 205
f 184 205 206
f 184 206 185
f 189 207 190
f 190 207 208
f 190 208 209
f 190 209 210
f 190 210 211
f 190 211 191
f 191 211 212
f 191 212 192
f 192 212 193
f 193 212 213
f 193 213 194
f 194 214 215
f 194 215 195
f 194 213 216
f 194 216 214
f 195 215 196
f 197 201 200
f 198 203 217
f 198 217 199
f 199 217 218
f 199 218 219
f 199 219 204
f 202 220 221
f 202 221 203
f 202 222 220
f 203 221 223
f 203 223 217
f 204 219 224
f 204 224 205
f 205 224 225
f 205 225 226
f 205 226 206
f 209 227 210
f 210 227 225
f 210 225 224
f 210 224 211
f 211 224 228
f 211 228 212
f 212 228 213
f 213 228 219
f 213 219 218
f 213 218 216
f 214 229 215
f 214 216 230
f 214 230 229
f 215 229 231
f 216 218 217
f 216 217 230
f 217 223 232
f 217 232 230
f 219 228 224
f 220 222 232
f 220 232 221
f 221 232 223
f 222 233 232
f 225 227 226
f 229 234 235
f 229 235 231
f 229 230 234
f 230 232 236
f 230 236 234
f 232 233 237
f 232 237 236
f 233 238 237
f 234 236 238
f 236 237 238

