# https://github.com/mikedh/trimesh
v 0.04816926 -0.02147005 -0.10143062
v 0.05094710 -0.00062784 -0.10143062
v 0.05440512 -0.02147005 -0.10143062
v 0.03833899 -0.02147005 -0.06915185
v 0.05682351 -0.00062784 -0.10143062
v 0.03833899 -0.00062784 -0.04816595
v 0.04842364 -0.01836493 -0.06989799
v 0.04776374 -0.01975020 -0.07122222
v 0.04706882 -0.02147005 -0.07364211
v 0.05492677 -0.01936461 -0.10143062
v 0.04997384 -0.01248929 -0.06658407
v 0.04931394 -0.01481303 -0.06658407
v 0.04863562 -0.01644311 -0.06658407
v 0.03833899 -0.02147005 -0.04955067
v 0.05716821 -0.00062988 -0.10143062
v 0.05670554 -0.00062784 -0.09935354
v 0.03833899 -0.00062784 -0.03495733
v 0.04822272 -0.01802219 -0.06834522
v 0.04726605 -0.01948090 -0.06884937
v 0.04660431 -0.02122115 -0.07122222
v 0.04666882 -0.02147005 -0.07214984
v 0.05500972 -0.01901982 -0.10143062
v 0.05029273 -0.01016760 -0.06658407
v 0.04981164 -0.01016760 -0.06425828
v 0.04947063 -0.01248929 -0.06425828
v 0.05545948 -0.01704904 -0.10143062
v 0.05550556 -0.01683686 -0.10143062
v 0.05588896 -0.01482323 -0.10143062
v 0.05627052 -0.01248929 -0.10143062
v 0.04856004 -0.01406429 -0.06254418
v 0.04875727 -0.01482935 -0.06434567
v 0.04845682 -0.01610036 -0.06517918
v 0.04534718 -0.02147005 -0.06834522
v 0.04603473 -0.02059686 -0.06780747
v 0.04638496 -0.01868524 -0.06425828
v 0.03833899 -0.02112526 -0.04875748
v 0.05716268 -0.00088082 -0.10143062
v 0.05069273 -0.00062784 -0.06810323
v 0.05039227 -0.00784182 -0.06658407
v 0.03833899 -0.00551809 -0.03276598
v 0.03884221 -0.00062784 -0.03591857
v 0.04795175 -0.01760396 -0.06658407
v 0.04679232 -0.01918303 -0.06658407
v 0.04630938 -0.02088248 -0.06935351
v 0.04647528 -0.02147005 -0.07151797
v 0.05657283 -0.01017576 -0.10143062
v 0.05679771 -0.00785202 -0.10143062
v 0.05695992 -0.00552829 -0.10143062
v 0.05707420 -0.00320456 -0.10143062
v 0.04989089 -0.00784182 -0.06425828
v 0.04924206 -0.01016760 -0.06193249
v 0.04854714 -0.01187317 -0.06029906
v 0.04880336 -0.01258518 -0.06183166
v 0.04821166 -0.01561481 -0.06363314
v 0.04831304 -0.01342368 -0.06099141
v 0.04796281 -0.01482935 -0.06183166
v 0.04761074 -0.01697967 -0.06434567
v 0.04599418 -0.02147005 -0.07008620
v 0.04613243 -0.01838534 -0.06292062
v 0.03833899 -0.02047037 -0.04739293
v 0.05039411 -0.00062784 -0.06658407
v 0.03833899 -0.00790915 -0.03344490
v 0.03927907 -0.00715225 -0.03475568
v 0.03874636 -0.00551809 -0.03363983
v 0.03935833 -0.00062784 -0.03696048
v 0.04987984 -0.00062784 -0.06425828
v 0.04930842 -0.00784182 -0.06193249
v 0.04866511 -0.01016760 -0.05991590
v 0.04827802 -0.01016760 -0.05875301
v 0.04776005 -0.01016760 -0.05728763
v 0.04688818 -0.01016760 -0.05496184
v 0.04611583 -0.01146718 -0.05366450
v 0.04724762 -0.01248929 -0.05728763
v 0.04807157 -0.01258518 -0.05955964
v 0.04693057 -0.01503948 -0.05938487
v 0.04605501 -0.01596367 -0.05846397
v 0.04637943 -0.01642067 -0.06001002
v 0.04665592 -0.01717144 -0.06206021
v 0.04616560 -0.01383171 -0.05589619
v 0.04646238 -0.01435807 -0.05728763
v 0.03833899 -0.01932993 -0.04520830
v 0.03833899 -0.01949314 -0.04551750
v 0.03833899 -0.02042957 -0.04731227
v 0.03860996 -0.00789283 -0.03400954
v 0.03833899 -0.01744482 -0.04306400
v 0.04577851 -0.01016760 -0.05216551
v 0.04142466 -0.00671974 -0.03981730
v 0.04142466 -0.00656877 -0.03981730
v 0.03926248 -0.00551809 -0.03480273
v 0.04536377 -0.00062784 -0.05031025
v 0.04932685 -0.00062784 -0.06217448
v 0.04869276 -0.00784182 -0.05980164
v 0.04832041 -0.00784182 -0.05863874
v 0.04787065 -0.00784182 -0.05728763
v 0.04707066 -0.00784182 -0.05496184
v 0.04635731 -0.00784182 -0.05298559
v 0.04593151 -0.00784182 -0.05182941
v 0.04624487 -0.01016760 -0.05332840
v 0.04638311 -0.01234036 -0.05505594
v 0.03833899 -0.01855467 -0.04420001
v 0.04542460 -0.00551809 -0.05031025
v 0.03991869 -0.00551809 -0.03636894
v 0.04596284 -0.00062784 -0.05176891
v 0.04925681 -0.00062784 -0.06193249
v 0.04871856 -0.00062784 -0.06017134
v 0.04782641 -0.00062784 -0.05743551
v 0.04709831 -0.00062784 -0.05520383
v 0.04634809 -0.00062784 -0.05293181
v 0.04600340 -0.00062784 -0.05188991
v 0.04596469 -0.00551809 -0.05176219
f 1 2 5
f 1 5 15
f 1 15 37
f 1 37 49
f 1 49 48
f 1 48 47
f 1 47 46
f 1 46 29
f 1 29 28
f 1 28 27
f 1 27 26
f 1 26 22
f 1 22 10
f 1 10 3
f 1 3 9
f 1 9 21
f 1 21 45
f 1 45 58
f 1 58 33
f 1 33 14
f 1 14 4
f 1 4 2
f 2 4 6
f 2 6 17
f 2 17 41
f 2 41 65
f 2 65 90
f 2 90 103
f 2 103 109
f 2 109 108
f 2 108 107
f 2 107 106
f 2 106 105
f 2 105 104
f 2 104 91
f 2 91 66
f 2 66 61
f 2 61 38
f 2 38 16
f 2 16 5
f 3 7 8
f 3 8 9
f 3 10 11
f 3 11 12
f 3 12 13
f 3 13 7
f 4 14 36
f 4 36 60
f 4 60 83
f 4 83 82
f 4 82 81
f 4 81 100
f 4 100 85
f 4 85 62
f 4 62 40
f 4 40 17
f 4 17 6
f 5 16 15
f 7 13 18
f 7 18 19
f 7 19 8
f 8 20 21
f 8 21 9
f 8 19 20
f 10 22 11
f 11 23 24
f 11 24 25
f 11 25 12
f 11 22 26
f 11 26 27
f 11 27 28
f 11 28 29
f 11 29 23
f 12 25 30
f 12 30 31
f 12 31 32
f 12 32 13
f 13 32 18
f 14 33 34
f 14 34 35
f 14 35 36
f 15 16 38
f 15 38 39
f 15 39 37
f 17 40 41
f 18 32 42
f 18 42 43
f 18 43 19
f 19 43 44
f 19 44 20
f 20 45 21
f 20 44 45
f 23 39 24
f 23 29 46
f 23 46 47
f 23 47 48
f 23 48 49
f 23 49 39
f 24 50 51
f 24 51 25
f 24 39 50
f 25 51 52
f 25 52 53
f 25 53 30
f 30 54 32
f 30 32 31
f 30 53 55
f 30 55 56
f 30 56 54
f 32 54 57
f 32 57 42
f 33 58 34
f 34 43 35
f 34 58 44
f 34 44 43
f 35 59 36
f 35 43 42
f 35 42 59
f 36 59 60
f 37 39 49
f 38 61 39
f 39 61 50
f 40 62 63
f 40 63 64
f 40 64 65
f 40 65 41
f 42 57 59
f 44 58 45
f 50 66 67
f 50 67 51
f 50 61 66
f 51 67 68
f 51 68 52
f 52 55 53
f 52 68 69
f 52 69 70
f 52 70 71
f 52 71 72
f 52 72 73
f 52 73 74
f 52 74 55
f 54 56 75
f 54 75 76
f 54 76 77
f 54 77 78
f 54 78 57
f 55 74 73
f 55 73 79
f 55 79 80
f 55 80 56
f 56 80 75
f 57 78 59
f 59 78 77
f 59 77 81
f 59 81 82
f 59 82 83
f 59 83 60
f 62 84 63
f 62 85 79
f 62 79 84
f 63 72 86
f 63 86 87
f 63 87 88
f 63 88 89
f 63 89 64
f 63 84 79
f 63 79 72
f 64 89 90
f 64 90 65
f 66 91 67
f 67 91 92
f 67 92 68
f 68 92 93
f 68 93 69
f 69 93 94
f 69 94 95
f 69 95 70
f 70 95 96
f 70 96 97
f 70 97 71
f 71 97 87
f 71 87 98
f 71 98 72
f 72 98 86
f 72 79 99
f 72 99 73
f 73 99 79
f 75 80 76
f 76 80 79
f 76 79 81
f 76 81 77
f 79 85 100
f 79 100 81
f 86 98 87
f 87 97 101
f 87 101 88
f 88 102 89
f 88 101 103
f 88 103 90
f 88 90 102
f 89 102 90
f 91 104 92
f 92 104 105
f 92 105 93
f 93 105 106
f 93 106 107
f 93 107 108
f 93 108 109
f 93 109 94
f 94 109 103
f 94 103 95
f 95 103 110
f 95 110 96
f 96 110 97
f 97 110 101
f 101 110 103

