# https://github.com/mikedh/trimesh
v -0.03888186 0.01922053 0.10309107
v -0.03895329 0.01922053 0.10405072
v -0.04431886 0.00215875 0.11492139
v -0.04344132 0.00215875 0.10308290
v -0.04477464 0.01922053 0.07517933
v -0.04025089 0.01922053 0.11470496
v -0.04459097 0.00215875 0.11582388
v -0.05098204 0.00215875 0.07517933
v -0.05153645 0.01922053 0.07517933
v -0.04027810 0.01922053 0.11475397
v -0.04459607 0.00217378 0.11584430
v -0.04461478 0.00215875 0.11585247
v -0.05624727 0.00215875 0.07517933
v -0.05161808 0.01904515 0.07517933
v -0.05162488 0.01903847 0.07519566
v -0.05153815 0.01922053 0.07519566
v -0.04134101 0.01922053 0.11626492
v -0.04552123 0.00215875 0.11627309
v -0.05621666 0.00273833 0.07517933
v -0.05625408 0.00215875 0.07535084
v -0.05162659 0.01902677 0.07517933
v -0.05220311 0.01772397 0.07519566
v -0.05169291 0.01919380 0.07752334
v -0.05219971 0.01772397 0.07517933
v -0.05167590 0.01922053 0.07745801
v -0.04190733 0.01922053 0.11646502
v -0.04342092 0.01922053 0.11682846
v -0.04806711 0.00215875 0.11686521
v -0.05612823 0.00356678 0.07517933
v -0.05622857 0.00289199 0.07573879
v -0.05625408 0.00215875 0.07587764
v -0.05315207 0.01539895 0.07519566
v -0.05233066 0.01772397 0.07752334
v -0.05315037 0.01539895 0.07517933
v -0.05170482 0.01922053 0.07889953
v -0.05167931 0.01922053 0.07752334
v -0.04424574 0.01922053 0.11689380
v -0.04806711 0.00378057 0.11686113
v -0.05032558 0.00378057 0.11635884
v -0.05052116 0.00215875 0.11629758
v -0.05582551 0.00576151 0.07517933
v -0.05622857 0.00289199 0.07694346
v -0.05580000 0.00610392 0.07752334
v -0.05625068 0.00215875 0.07732324
v -0.05326772 0.01539895 0.07752334
v -0.05315718 0.01538225 0.07517933
v -0.05373540 0.01381220 0.07517933
v -0.05235447 0.01772397 0.07984694
v -0.05172012 0.01922053 0.07981427
v -0.04574401 0.01772397 0.11685296
v -0.04806711 0.00610392 0.11684888
v -0.04574401 0.01922053 0.11674679
v -0.04806711 0.00842893 0.11681212
v -0.05023715 0.00610392 0.11633842
v -0.05151774 0.00215875 0.11586063
v -0.05577959 0.00608387 0.07517933
v -0.05577789 0.00610392 0.07519566
v -0.05619285 0.00238423 0.07849526
v -0.05611802 0.00371209 0.07764177
v -0.05533062 0.00842893 0.07752334
v -0.05569796 0.00610392 0.07984694
v -0.05525919 0.00842893 0.07984694
v -0.05621326 0.00215875 0.07826249
v -0.05379322 0.01395751 0.07752334
v -0.05327112 0.01539895 0.07984694
v -0.05411295 0.01264970 0.07517933
v -0.05411295 0.01265304 0.07519566
v -0.05229324 0.01772397 0.08217053
v -0.05168271 0.01917710 0.08217053
v -0.05170312 0.01922053 0.08055750
v -0.05172012 0.01922053 0.07984694
v -0.04806711 0.01075060 0.11676312
v -0.04806711 0.01307561 0.11666920
v -0.04647529 0.01922053 0.11655077
v -0.05007899 0.00842893 0.11629350
v -0.05139870 0.00610392 0.11575855
v -0.05148713 0.00378057 0.11582388
v -0.05153475 0.00215875 0.11585247
v -0.05577619 0.00610392 0.07517933
v -0.05529150 0.00842893 0.07519566
v -0.05529490 0.00840889 0.07517933
v -0.05598197 0.00378057 0.07984694
v -0.05619795 0.00215875 0.07855651
v -0.05348540 0.00378057 0.11238137
v -0.05350411 0.00610392 0.11005776
v -0.05470818 0.01075060 0.07984694
v -0.05473539 0.01075060 0.07752334
v -0.05553980 0.00610392 0.08217053
v -0.05288848 0.01075060 0.11005776
v -0.05512484 0.00842893 0.08217053
v -0.05459423 0.01075060 0.08217053
v -0.05414186 0.01279501 0.07752334
v -0.05414356 0.01279501 0.07984694
v -0.05379152 0.01395751 0.07984694
v -0.05320140 0.01539895 0.08217053
v -0.05467416 0.01075060 0.07517933
v -0.05467587 0.01075060 0.07519566
v -0.05048034 0.01922053 0.11005776
v -0.05166400 0.01922053 0.08217053
v -0.04829160 0.01560774 0.11635884
v -0.04962491 0.01307561 0.11612199
v -0.04986641 0.01075060 0.11622816
v -0.04749399 0.01922053 0.11618325
v -0.04779841 0.01772397 0.11630166
v -0.05124054 0.00842893 0.11561153
v -0.05217250 0.00842893 0.11444770
v -0.05231876 0.00610392 0.11459471
v -0.05239869 0.00378057 0.11466004
v -0.05229834 0.00215875 0.11484381
v -0.05528980 0.00842893 0.07517933
v -0.05325072 0.00842893 0.11005776
v -0.05353132 0.00215875 0.11238137
v -0.05320309 0.00215875 0.11307150
v -0.05332214 0.00610392 0.11238137
v -0.05409934 0.01265805 0.08217053
v -0.05304493 0.00842893 0.11238137
v -0.05267589 0.01075060 0.11238137
v -0.05218611 0.01307561 0.11238137
v -0.05239359 0.01307561 0.11005776
v -0.05183066 0.01526032 0.11005776
v -0.05375241 0.01382055 0.08217053
v -0.05151434 0.01642283 0.11005776
v -0.05104667 0.01772397 0.11005776
v -0.05036300 0.01922053 0.11155239
v -0.04939873 0.01497304 0.11598723
v -0.04790555 0.01922053 0.11594639
v -0.04921675 0.01652304 0.11585655
v -0.05102796 0.01075060 0.11536651
v -0.05198032 0.01075060 0.11420268
v -0.05173203 0.01307561 0.11383106
v -0.05157387 0.01431996 0.11357787
v -0.05172523 0.01486614 0.11238137
v -0.05141230 0.01602865 0.11238137
v -0.05084769 0.01772397 0.11238137
v -0.05029327 0.01922053 0.11238137
v -0.04865554 0.01922053 0.11526851
v -0.04896166 0.01772397 0.11562378
v -0.04990382 0.01772397 0.11446403
v -0.05078646 0.01307561 0.11499491
v -0.04996164 0.01922053 0.11336553
v -0.04962491 0.01922053 0.11410467
f 1 2 3
f 1 3 4
f 1 4 5
f 1 5 9
f 1 9 16
f 1 16 25
f 1 25 36
f 1 36 35
f 1 35 49
f 1 49 71
f 1 71 70
f 1 70 99
f 1 99 98
f 1 98 124
f 1 124 135
f 1 135 140
f 1 140 141
f 1 141 136
f 1 136 126
f 1 126 103
f 1 103 74
f 1 74 52
f 1 52 37
f 1 37 27
f 1 27 26
f 1 26 17
f 1 17 10
f 1 10 6
f 1 6 2
f 2 6 3
f 3 6 7
f 3 7 12
f 3 12 18
f 3 18 28
f 3 28 40
f 3 40 55
f 3 55 78
f 3 78 109
f 3 109 113
f 3 113 112
f 3 112 83
f 3 83 63
f 3 63 44
f 3 44 31
f 3 31 20
f 3 20 13
f 3 13 8
f 3 8 4
f 4 8 5
f 5 8 13
f 5 13 19
f 5 19 29
f 5 29 41
f 5 41 56
f 5 56 79
f 5 79 81
f 5 81 110
f 5 110 96
f 5 96 66
f 5 66 47
f 5 47 46
f 5 46 34
f 5 34 24
f 5 24 21
f 5 21 14
f 5 14 9
f 6 10 11
f 6 11 7
f 7 11 12
f 9 14 15
f 9 15 16
f 10 17 11
f 11 17 12
f 12 17 18
f 13 20 19
f 14 21 15
f 15 22 23
f 15 23 16
f 15 21 24
f 15 24 22
f 16 23 25
f 17 26 18
f 18 26 27
f 18 27 28
f 19 20 30
f 19 30 29
f 20 31 42
f 20 42 30
f 22 32 33
f 22 33 23
f 22 24 34
f 22 34 32
f 23 33 35
f 23 35 36
f 23 36 25
f 27 37 28
f 28 37 38
f 28 38 39
f 28 39 40
f 29 30 41
f 30 42 43
f 30 43 41
f 31 44 42
f 32 45 33
f 32 34 46
f 32 46 47
f 32 47 45
f 33 45 48
f 33 48 49
f 33 49 35
f 37 50 51
f 37 51 38
f 37 52 50
f 38 51 39
f 39 51 53
f 39 53 54
f 39 54 55
f 39 55 40
f 41 43 57
f 41 57 56
f 42 44 58
f 42 58 59
f 42 59 43
f 43 60 57
f 43 59 61
f 43 61 62
f 43 62 60
f 44 63 58
f 45 64 65
f 45 65 48
f 45 47 64
f 47 66 67
f 47 67 64
f 48 65 68
f 48 68 69
f 48 69 70
f 48 70 71
f 48 71 49
f 50 72 53
f 50 53 51
f 50 52 73
f 50 73 72
f 52 74 73
f 53 72 54
f 54 72 75
f 54 75 76
f 54 76 77
f 54 77 55
f 55 77 78
f 56 57 79
f 57 60 80
f 57 80 81
f 57 81 79
f 58 82 59
f 58 63 83
f 58 83 84
f 58 84 85
f 58 85 82
f 59 82 61
f 60 62 86
f 60 86 87
f 60 87 80
f 61 82 88
f 61 88 89
f 61 89 90
f 61 90 62
f 62 90 91
f 62 91 86
f 64 67 92
f 64 92 93
f 64 93 94
f 64 94 65
f 65 94 95
f 65 95 68
f 66 96 97
f 66 97 67
f 67 97 92
f 68 95 98
f 68 98 69
f 69 99 70
f 69 98 99
f 72 73 75
f 73 74 100
f 73 100 101
f 73 101 102
f 73 102 75
f 74 103 104
f 74 104 100
f 75 102 76
f 76 105 106
f 76 106 107
f 76 107 77
f 76 102 105
f 77 107 108
f 77 108 78
f 78 108 109
f 80 87 97
f 80 97 96
f 80 96 110
f 80 110 81
f 82 85 111
f 82 111 88
f 83 112 84
f 84 112 113
f 84 113 108
f 84 108 107
f 84 107 114
f 84 114 85
f 85 114 111
f 86 91 115
f 86 115 93
f 86 93 87
f 87 93 92
f 87 92 97
f 88 111 89
f 89 111 116
f 89 116 117
f 89 117 118
f 89 118 119
f 89 119 90
f 90 119 91
f 91 119 120
f 91 120 115
f 93 115 121
f 93 121 94
f 94 121 95
f 95 121 122
f 95 122 123
f 95 123 98
f 98 123 124
f 100 104 125
f 100 125 101
f 101 125 105
f 101 105 102
f 103 126 127
f 103 127 104
f 104 127 125
f 105 128 129
f 105 129 106
f 105 125 128
f 106 129 116
f 106 116 114
f 106 114 107
f 108 113 109
f 111 114 116
f 115 120 122
f 115 122 121
f 116 129 117
f 117 129 130
f 117 130 131
f 117 131 118
f 118 131 132
f 118 132 119
f 119 132 120
f 120 132 133
f 120 133 122
f 122 133 134
f 122 134 123
f 123 134 135
f 123 135 124
f 125 127 128
f 126 136 137
f 126 137 127
f 127 137 138
f 127 138 131
f 127 131 130
f 127 130 139
f 127 139 128
f 128 139 129
f 129 139 130
f 131 140 134
f 131 134 133
f 131 133 132
f 131 138 141
f 131 141 140
f 134 140 135
f 136 141 137
f 137 141 138

