# https://github.com/mikedh/trimesh
v 0.01700898 0.04227983 -0.10901899
v 0.01835506 0.04226723 -0.10901899
v 0.01933627 0.04209923 -0.10949528
v 0.01700898 0.04210763 -0.10952692
v 0.01602284 0.04227143 -0.10901899
v 0.01933627 0.04225043 -0.10901899
v 0.02084506 0.04220843 -0.10901899
v 0.02165863 0.04206563 -0.10939010
v 0.02165863 0.04149443 -0.11073775
v 0.01933627 0.04155322 -0.11073775
v 0.01700898 0.04157002 -0.11073775
v 0.01468662 0.04155322 -0.11073775
v 0.01468662 0.04209503 -0.10949358
v 0.01468662 0.04225883 -0.10901899
v 0.02165863 0.04218323 -0.10901899
v 0.02398099 0.04201103 -0.10919257
v 0.02398099 0.04138942 -0.11073775
v 0.02165863 0.04039401 -0.11277119
v 0.02398099 0.04033941 -0.11271475
v 0.01933627 0.04041501 -0.11279427
v 0.01700898 0.04042761 -0.11280796
v 0.01468662 0.04041921 -0.11279770
v 0.01236426 0.04038981 -0.11274809
v 0.01236426 0.04149022 -0.11073775
v 0.01236426 0.04206143 -0.10939524
v 0.01236426 0.04219163 -0.10901899
v 0.01381388 0.04223363 -0.10901899
v 0.02356681 0.04208663 -0.10901899
v 0.02398099 0.04206143 -0.10901899
v 0.02541582 0.04196063 -0.10901899
v 0.02644634 0.04188083 -0.10901899
v 0.02863064 0.04104082 -0.11073775
v 0.02630828 0.04122562 -0.11073775
v 0.02863064 0.04017141 -0.11248558
v 0.02630828 0.04025541 -0.11261042
v 0.02165863 0.03954980 -0.11393242
v 0.02398099 0.03950780 -0.11387598
v 0.02630828 0.03944060 -0.11377166
v 0.01933627 0.03957080 -0.11395551
v 0.01700898 0.03957920 -0.11396919
v 0.01468662 0.03956240 -0.11395893
v 0.01236426 0.03951200 -0.11390933
v 0.01003696 0.04033521 -0.11267199
v 0.01003696 0.04138522 -0.11073775
v 0.01003696 0.04201103 -0.10926697
v 0.00959320 0.04208243 -0.10901899
v 0.01168382 0.04216643 -0.10901899
v 0.03095793 0.04145662 -0.10901899
v 0.03095793 0.04083921 -0.11073775
v 0.03095793 0.04007481 -0.11233851
v 0.02863064 0.03935660 -0.11364681
v 0.02165863 0.03838639 -0.11499446
v 0.02398099 0.03834439 -0.11495598
v 0.03095793 0.03809658 -0.11479607
v 0.02863064 0.03819319 -0.11485764
v 0.02630828 0.03827719 -0.11490809
v 0.03327536 0.03798318 -0.11470458
v 0.01933627 0.03840739 -0.11500643
v 0.01700898 0.03841579 -0.11499532
v 0.01468662 0.03840319 -0.11496539
v 0.01236426 0.03834859 -0.11492520
v 0.01003696 0.03828139 -0.11488500
v 0.00786746 0.03821839 -0.11484310
v 0.01003696 0.03944480 -0.11383323
v 0.00786746 0.04021341 -0.11266515
v 0.00786746 0.04027221 -0.11258734
v 0.00786746 0.04120042 -0.11086772
v 0.00786746 0.04126762 -0.11073775
v 0.00786746 0.04191862 -0.10923875
v 0.00786746 0.04196063 -0.10914041
v 0.00786746 0.04200263 -0.10901899
v 0.03155948 0.04139362 -0.10901899
v 0.03327536 0.04059981 -0.11073775
v 0.03327536 0.03995301 -0.11215380
v 0.03095793 0.03926000 -0.11349974
v 0.03327536 0.03914240 -0.11331589
v 0.02165863 0.03661397 -0.11615655
v 0.02398099 0.03657197 -0.11611807
v 0.02863064 0.03648377 -0.11601973
v 0.02630828 0.03652997 -0.11607018
v 0.03095793 0.03642497 -0.11595816
v 0.03344300 0.03611416 -0.11600006
v 0.03559772 0.03783198 -0.11457289
v 0.03559772 0.03631577 -0.11569137
v 0.01933627 0.03663077 -0.11616851
v 0.01700898 0.03660136 -0.11615740
v 0.01468662 0.03654257 -0.11612747
v 0.01003696 0.03642077 -0.11604709
v 0.00786746 0.03637037 -0.11600519
v 0.00786746 0.03809658 -0.11492091
v 0.00786746 0.03938180 -0.11374857
v 0.00786746 0.03313633 -0.10901899
v 0.03327536 0.04121302 -0.10901899
v 0.03482853 0.03986061 -0.11200073
v 0.03559772 0.04091482 -0.10901899
v 0.03560266 0.04023441 -0.11089167
v 0.03560266 0.03912140 -0.11289005
v 0.02165863 0.03545056 -0.11666447
v 0.03095793 0.03526155 -0.11659864
v 0.02863064 0.03532036 -0.11662428
v 0.02630828 0.03536655 -0.11664139
v 0.02398099 0.03540855 -0.11665336
v 0.03278229 0.03520695 -0.11657213
v 0.03433053 0.03514395 -0.11654305
v 0.03792502 0.03763038 -0.11438134
v 0.03792502 0.03631577 -0.11540320
v 0.03559772 0.03503895 -0.11650372
v 0.03792502 0.03481635 -0.11640709
v 0.01933627 0.03546735 -0.11667047
v 0.01700898 0.03543796 -0.11666106
v 0.01468662 0.03538335 -0.11663883
v 0.00786746 0.03520695 -0.11657042
v 0.00786746 0.03629476 -0.11604197
v 0.00786746 -0.00062364 -0.10969794
v 0.04971432 -0.00062364 -0.10901899
v 0.03638171 0.03974300 -0.11176815
v 0.03634719 0.04080562 -0.10901899
v 0.03792502 0.04010841 -0.11029737
v 0.03792502 0.03859219 -0.11306193
v 0.03921686 0.03750438 -0.11425137
v 0.02863064 0.03399314 -0.11704500
v 0.02630828 0.03399314 -0.11706638
v 0.02398099 0.03399314 -0.11707835
v 0.03344300 0.03421574 -0.11688595
v 0.03095793 0.03399314 -0.11701250
v 0.03559772 0.03387974 -0.11691930
v 0.04009452 0.03646277 -0.11493973
v 0.04024737 0.03453075 -0.11626001
v 0.03792502 0.03365294 -0.11685602
v 0.04024737 0.03336733 -0.11676195
v 0.01933627 0.03399314 -0.11708433
v 0.02165863 0.03399314 -0.11708605
v 0.01700898 0.03399314 -0.11706296
v 0.01003696 0.03399314 -0.11696120
v 0.00786746 0.03399314 -0.11692528
v 0.00786746 0.03512295 -0.11659522
v 0.00786746 -0.00062364 -0.11752214
v 0.05804228 -0.00062364 -0.10901899
v 0.03792502 0.03960020 -0.11145946
v 0.04256973 0.03794539 -0.11260017
v 0.04009452 0.03807558 -0.11319361
v 0.03792502 0.04055361 -0.10901899
v 0.03866955 0.04042761 -0.10901899
v 0.03974444 0.03994041 -0.10989461
v 0.04076510 0.03733218 -0.11405469
v 0.04256973 0.03591676 -0.11488672
v 0.03327536 0.03166631 -0.11749136
v 0.03095793 0.03166631 -0.11749991
v 0.03559772 0.03166631 -0.11744947
v 0.04024737 0.03166631 -0.11726819
v 0.03792502 0.03166631 -0.11737593
v 0.04278668 0.03391334 -0.11614543
v 0.04370380 0.03281713 -0.11654305
v 0.04215556 0.03308173 -0.11665165
v 0.04278668 0.03189312 -0.11695522
v 0.01933627 0.03166631 -0.11747769
v 0.01003696 0.03166631 -0.11743493
v 0.00786746 0.03166631 -0.11741611
v 0.02630828 0.03166631 -0.11750077
v 0.02398099 0.03166631 -0.11749478
v 0.02165863 0.03166631 -0.11748710
v 0.02863064 0.03166631 -0.11750249
v 0.00786746 0.02237161 -0.11763588
v 0.04721939 -0.00062364 -0.11768889
v 0.05789436 -0.00062364 -0.11044616
v 0.05811131 0.00145538 -0.10901899
v 0.04041009 0.03943640 -0.11069670
v 0.04256973 0.03894079 -0.11073775
v 0.04440396 0.03769758 -0.11222734
v 0.04256973 0.03708017 -0.11376140
v 0.04082426 0.04001180 -0.10901899
v 0.04129268 0.03977660 -0.10949614
v 0.04489703 0.03555136 -0.11459085
v 0.04489703 0.03399314 -0.11565203
v 0.04024737 0.02934369 -0.11762135
v 0.03559772 0.02934369 -0.11764272
v 0.03327536 0.02934369 -0.11765127
v 0.04489703 0.02934369 -0.11733916
v 0.04256973 0.02934369 -0.11754181
v 0.04489703 0.03254412 -0.11644642
v 0.04489703 0.03138071 -0.11683036
v 0.00786746 0.02934369 -0.11761364
v 0.03095793 0.02934369 -0.11764956
v 0.01003696 0.02934369 -0.11761792
v 0.00786746 0.02453883 -0.11764529
v 0.04721939 0.01075428 -0.11772822
v 0.04954668 0.01075428 -0.11769317
v 0.04954668 0.00842746 -0.11768461
v 0.04954668 0.00378220 -0.11766410
v 0.04954668 0.00145538 -0.11765213
v 0.04954668 -0.00062364 -0.11763758
v 0.05786477 -0.00062364 -0.11056758
v 0.05793873 0.00145538 -0.11062658
v 0.05817541 0.00438701 -0.10901899
v 0.04256973 0.03963380 -0.10903011
v 0.04506467 0.03815538 -0.11092673
v 0.04595220 0.03744138 -0.11182801
v 0.04506467 0.03684077 -0.11302601
v 0.04637131 0.03529096 -0.11435313
v 0.04252043 0.03965060 -0.10901899
v 0.04717501 0.03408134 -0.11493118
v 0.04738703 0.03167891 -0.11623351
v 0.04489703 0.02701686 -0.11764100
v 0.04256973 0.02701686 -0.11770258
v 0.04672139 0.03091451 -0.11667988
v 0.04738703 0.02952429 -0.11691844
v 0.04721939 0.02701686 -0.11742980
v 0.00786746 0.02918828 -0.11761621
v 0.00786746 0.02701686 -0.11765127
v 0.04024737 0.02701686 -0.11769915
v 0.04721939 0.02004899 -0.11775474
v 0.04721939 0.01540373 -0.11774191
v 0.04721939 0.01307691 -0.11773507
v 0.04954668 0.01307691 -0.11769402
v 0.05186904 0.01075428 -0.11731094
v 0.05186904 0.00842746 -0.11729897
v 0.05186904 0.00610483 -0.11728016
v 0.05186904 0.00378220 -0.11725707
v 0.05186904 0.00145538 -0.11722884
v 0.05186904 -0.00062364 -0.11718609
v 0.05760345 -0.00062364 -0.11160824
v 0.05764782 0.00145538 -0.11178868
v 0.05767248 0.00291699 -0.11187589
v 0.05791408 0.00372760 -0.11095580
v 0.05801763 0.00610483 -0.11073775
v 0.05820992 0.00670964 -0.10901899
v 0.05806200 0.00842746 -0.11073775
v 0.04256973 0.03963800 -0.10901899
v 0.04259932 0.03962960 -0.10901899
v 0.04483293 0.03897860 -0.10901899
v 0.04571552 0.03870559 -0.10901899
v 0.04721939 0.03776898 -0.11019646
v 0.04851617 0.03753798 -0.10970050
v 0.04721939 0.03719357 -0.11135856
v 0.04954668 0.03552195 -0.11236330
v 0.04717501 0.03593776 -0.11315428
v 0.04791955 0.03491715 -0.11398885
v 0.04954668 0.03327073 -0.11455493
v 0.04954668 0.03166631 -0.11547160
v 0.04826963 0.03041890 -0.11652339
v 0.04489703 0.02469424 -0.11773934
v 0.04721939 0.02469424 -0.11766154
v 0.04256973 0.02469424 -0.11773592
v 0.04908319 0.02886908 -0.11672349
v 0.04972912 0.02719327 -0.11692272
v 0.04954668 0.02469424 -0.11736053
v 0.04489703 0.02237161 -0.11775132
v 0.04721939 0.02237161 -0.11774961
v 0.04954668 0.01540373 -0.11768121
v 0.05186904 0.01307691 -0.11730751
v 0.05348631 0.01540373 -0.11676538
v 0.05349124 0.01307691 -0.11676709
v 0.05347645 0.01075428 -0.11676794
v 0.05345672 0.00842746 -0.11676111
v 0.05342221 0.00610483 -0.11674828
v 0.05338277 0.00378220 -0.11673203
v 0.05333346 0.00145538 -0.11671066
v 0.05326936 -0.00062364 -0.11667988
v 0.05687863 -0.00062364 -0.11306193
v 0.05698218 0.00145538 -0.11306193
v 0.05717941 0.00372760 -0.11284216
v 0.05713010 0.00842746 -0.11319361
v 0.05715968 0.01075428 -0.11326116
v 0.05777109 0.01075428 -0.11209907
v 0.05822965 0.00842746 -0.10901899
v 0.05809652 0.01075428 -0.11073775
v 0.04721939 0.03821839 -0.10901899
v 0.04783080 0.03801678 -0.10901899
v 0.04877255 0.03765138 -0.10901899
v 0.04938890 0.03736998 -0.10901899
v 0.05134638 0.03554716 -0.11073775
v 0.04938890 0.03666017 -0.11058041
v 0.05079908 0.03521115 -0.11197679
v 0.04954668 0.03442995 -0.11352453
v 0.05076949 0.03288013 -0.11425992
v 0.05167181 0.03147311 -0.11455237
v 0.05186904 0.02934369 -0.11547930
v 0.04972912 0.02952429 -0.11633869
v 0.05063143 0.02808787 -0.11652680
v 0.04954668 0.02237161 -0.11756063
v 0.05109492 0.02653806 -0.11668842
v 0.05186904 0.02449263 -0.11678676
v 0.05186904 0.02237161 -0.11703131
v 0.04954668 0.02004899 -0.11763588
v 0.04954668 0.01772636 -0.11766154
v 0.05186904 0.01540373 -0.11729213
v 0.05343701 0.01772636 -0.11674999
v 0.05464996 0.01540373 -0.11611977
v 0.05464996 0.01307691 -0.11611635
v 0.05464010 0.01075428 -0.11609840
v 0.05462037 0.00842746 -0.11607360
v 0.05458586 0.00610483 -0.11603683
v 0.05454148 0.00378220 -0.11599493
v 0.05449217 0.00145538 -0.11594619
v 0.05443301 -0.00062364 -0.11589146
v 0.05676522 -0.00062364 -0.11324064
v 0.05579387 -0.00062364 -0.11472937
v 0.05584812 0.00145538 -0.11478411
v 0.05589249 0.00378220 -0.11483285
v 0.05717447 0.01307691 -0.11328766
v 0.05593194 0.00610483 -0.11487474
v 0.05596645 0.00842746 -0.11491151
v 0.05599604 0.01075428 -0.11493631
v 0.05778095 0.01307691 -0.11212558
v 0.05823458 0.00903646 -0.10901899
v 0.05810638 0.01307691 -0.11073775
v 0.05047365 0.03678197 -0.10901899
v 0.05302282 0.03514395 -0.10955428
v 0.05251003 0.03471975 -0.11073775
v 0.05322498 0.03303133 -0.11211275
v 0.05155841 0.03372854 -0.11281908
v 0.05231773 0.03211992 -0.11366136
v 0.05308199 0.03057010 -0.11426335
v 0.05186904 0.02719327 -0.11622581
v 0.05347645 0.02934369 -0.11456007
v 0.05264809 0.02513104 -0.11639768
v 0.05186904 0.02004899 -0.11717925
v 0.05186904 0.01772636 -0.11725536
v 0.05304747 0.02358122 -0.11655673
v 0.05315595 0.02237161 -0.11661232
v 0.05332360 0.02004899 -0.11669869
v 0.05460065 0.01772636 -0.11607788
v 0.05600097 0.01772636 -0.11491579
v 0.05602069 0.01540373 -0.11495769
v 0.05601083 0.01307691 -0.11495427
v 0.05565581 -0.00062364 -0.11484995
v 0.05717941 0.01540373 -0.11326458
v 0.05776616 0.01540373 -0.11210249
v 0.05808666 0.01540373 -0.11073775
v 0.05823458 0.01135909 -0.10901899
v 0.05820992 0.01540373 -0.10901899
v 0.05822472 0.01307691 -0.10901899
v 0.05248538 0.03563956 -0.10901899
v 0.05372299 0.03452655 -0.10901899
v 0.05494580 0.03313213 -0.10901899
v 0.05526629 0.03269533 -0.10921481
v 0.05369340 0.03355633 -0.11073775
v 0.05495073 0.03181751 -0.11096264
v 0.05535011 0.03049030 -0.11188615
v 0.05363916 0.03147311 -0.11295675
v 0.05477815 0.02956629 -0.11313631
v 0.05512330 0.02757127 -0.11395978
v 0.05428508 0.02688666 -0.11487816
v 0.05396952 0.02449263 -0.11571788
v 0.05431960 0.02237161 -0.11586411
v 0.05448724 0.02004899 -0.11599578
v 0.05593687 0.02004899 -0.11483370
v 0.05716461 0.01772636 -0.11322182
v 0.05774644 0.01772636 -0.11205973
v 0.05804721 0.01772636 -0.11073775
v 0.05815569 0.01772636 -0.10901899
v 0.05540928 0.03247692 -0.10901899
v 0.05568048 0.03114551 -0.11033671
v 0.05609465 0.02956629 -0.11096264
v 0.05568048 0.02894048 -0.11241119
v 0.05590728 0.02688666 -0.11313631
v 0.05540928 0.02602145 -0.11428045
v 0.05557693 0.02469424 -0.11446087
v 0.05580374 0.02237161 -0.11470201
v 0.05688849 0.02237161 -0.11306193
v 0.05720899 0.02021279 -0.11288320
v 0.05771685 0.01954918 -0.11198962
v 0.05802749 0.02075879 -0.10901899
v 0.05805707 0.02009099 -0.10901899
v 0.05790915 0.02021279 -0.11095153
v 0.05785491 0.02237161 -0.11040425
v 0.05578895 0.03161171 -0.10901899
v 0.05642994 0.02991069 -0.10901899
v 0.05661237 0.02939409 -0.10901899
v 0.05701176 0.02701686 -0.11073775
v 0.05648911 0.02469424 -0.11306193
v 0.05759852 0.02237161 -0.11156635
v 0.05767248 0.02109480 -0.11186905
v 0.05792887 0.02237161 -0.10901899
v 0.05776123 0.02415663 -0.10993737
v 0.05725336 0.02701686 -0.10901899
v 0.05747032 0.02483704 -0.11072236
v 0.05787957 0.02308142 -0.10901899
v 0.05768234 0.02492944 -0.10901899
v 0.05776616 0.02423223 -0.10901899
f 1 2 3
f 1 3 4
f 1 4 5
f 1 5 14
f 1 14 27
f 1 27 26
f 1 26 47
f 1 47 46
f 1 46 71
f 1 71 92
f 1 92 115
f 1 115 138
f 1 138 166
f 1 166 194
f 1 194 226
f 1 226 265
f 1 265 305
f 1 305 330
f 1 330 332
f 1 332 331
f 1 331 351
f 1 351 364
f 1 364 363
f 1 363 374
f 1 374 378
f 1 378 380
f 1 380 379
f 1 379 376
f 1 376 369
f 1 369 368
f 1 368 367
f 1 367 352
f 1 352 335
f 1 335 334
f 1 334 333
f 1 333 307
f 1 307 270
f 1 270 269
f 1 269 268
f 1 268 267
f 1 267 231
f 1 231 230
f 1 230 229
f 1 229 228
f 1 228 200
f 1 200 171
f 1 171 143
f 1 143 142
f 1 142 117
f 1 117 95
f 1 95 93
f 1 93 72
f 1 72 48
f 1 48 31
f 1 31 30
f 1 30 29
f 1 29 28
f 1 28 15
f 1 15 7
f 1 7 6
f 1 6 2
f 2 6 3
f 3 6 7
f 3 7 8
f 3 8 9
f 3 9 10
f 3 10 4
f 4 11 12
f 4 12 13
f 4 13 14
f 4 14 5
f 4 10 11
f 7 15 8
f 8 15 16
f 8 16 17
f 8 17 9
f 9 18 10
f 9 17 19
f 9 19 18
f 10 20 21
f 10 21 11
f 10 18 20
f 11 21 22
f 11 22 12
f 12 22 23
f 12 23 24
f 12 24 13
f 13 24 25
f 13 25 26
f 13 26 27
f 13 27 14
f 15 28 16
f 16 29 30
f 16 30 31
f 16 31 32
f 16 32 33
f 16 33 17
f 16 28 29
f 17 33 34
f 17 34 35
f 17 35 19
f 18 36 39
f 18 39 20
f 18 19 37
f 18 37 36
f 19 35 38
f 19 38 37
f 20 39 21
f 21 40 22
f 21 39 40
f 22 41 23
f 22 40 41
f 23 41 42
f 23 42 43
f 23 43 24
f 24 43 44
f 24 44 45
f 24 45 25
f 25 45 46
f 25 46 47
f 25 47 26
f 31 48 49
f 31 49 32
f 32 49 50
f 32 50 33
f 33 50 34
f 34 50 75
f 34 75 51
f 34 51 38
f 34 38 35
f 36 52 39
f 36 37 53
f 36 53 52
f 37 38 54
f 37 54 55
f 37 55 56
f 37 56 53
f 38 51 57
f 38 57 54
f 39 58 40
f 39 52 58
f 40 59 41
f 40 58 59
f 41 60 61
f 41 61 42
f 41 59 60
f 42 61 62
f 42 62 63
f 42 63 64
f 42 64 43
f 43 64 65
f 43 65 66
f 43 66 44
f 44 66 67
f 44 67 68
f 44 68 69
f 44 69 70
f 44 70 45
f 45 70 46
f 46 70 71
f 48 72 73
f 48 73 49
f 49 73 74
f 49 74 50
f 50 74 76
f 50 76 75
f 51 75 57
f 52 77 58
f 52 53 78
f 52 78 77
f 53 56 79
f 53 79 80
f 53 80 78
f 54 81 55
f 54 57 82
f 54 82 81
f 55 81 56
f 56 81 79
f 57 83 84
f 57 84 82
f 57 75 83
f 58 85 59
f 58 77 85
f 59 86 60
f 59 85 86
f 60 87 61
f 60 86 87
f 61 87 88
f 61 88 89
f 61 89 62
f 62 89 90
f 62 90 63
f 63 90 89
f 63 89 113
f 63 113 112
f 63 112 136
f 63 136 135
f 63 135 158
f 63 158 182
f 63 182 208
f 63 208 209
f 63 209 185
f 63 185 163
f 63 163 137
f 63 137 114
f 63 114 92
f 63 92 71
f 63 71 70
f 63 70 69
f 63 69 68
f 63 68 67
f 63 67 66
f 63 66 65
f 63 65 91
f 63 91 64
f 64 91 65
f 72 93 73
f 73 94 74
f 73 93 95
f 73 95 96
f 73 96 94
f 74 94 76
f 75 76 83
f 76 94 97
f 76 97 83
f 77 98 85
f 77 78 99
f 77 99 100
f 77 100 101
f 77 101 102
f 77 102 98
f 78 80 99
f 79 81 103
f 79 103 80
f 80 103 99
f 81 82 104
f 81 104 103
f 82 84 104
f 83 97 105
f 83 105 106
f 83 106 84
f 84 107 104
f 84 106 108
f 84 108 107
f 85 109 110
f 85 110 86
f 85 98 109
f 86 110 111
f 86 111 112
f 86 112 87
f 87 112 88
f 88 112 113
f 88 113 89
f 92 114 115
f 94 96 116
f 94 116 97
f 95 117 96
f 96 117 118
f 96 118 116
f 97 116 119
f 97 119 120
f 97 120 105
f 98 102 121
f 98 121 122
f 98 122 123
f 98 123 109
f 99 103 124
f 99 124 125
f 99 125 100
f 100 125 121
f 100 121 101
f 101 121 102
f 103 104 124
f 104 107 126
f 104 126 124
f 105 120 127
f 105 127 106
f 106 127 128
f 106 128 108
f 107 108 129
f 107 129 126
f 108 128 130
f 108 130 129
f 109 131 110
f 109 123 132
f 109 132 131
f 110 133 134
f 110 134 111
f 110 131 133
f 111 134 135
f 111 135 136
f 111 136 112
f 114 137 164
f 114 164 191
f 114 191 220
f 114 220 258
f 114 258 295
f 114 295 326
f 114 326 297
f 114 297 296
f 114 296 259
f 114 259 221
f 114 221 192
f 114 192 165
f 114 165 138
f 114 138 115
f 116 118 139
f 116 139 140
f 116 140 141
f 116 141 119
f 117 142 118
f 118 142 143
f 118 143 144
f 118 144 139
f 119 141 120
f 120 141 145
f 120 145 146
f 120 146 127
f 121 125 147
f 121 147 122
f 122 147 123
f 123 147 148
f 123 148 132
f 124 126 125
f 125 126 149
f 125 149 147
f 126 129 150
f 126 150 151
f 126 151 149
f 127 146 128
f 128 146 152
f 128 152 153
f 128 153 154
f 128 154 130
f 129 130 150
f 130 154 155
f 130 155 150
f 131 156 157
f 131 157 158
f 131 158 133
f 131 132 162
f 131 162 159
f 131 159 160
f 131 160 161
f 131 161 156
f 132 148 162
f 133 158 134
f 134 158 135
f 137 163 164
f 138 165 166
f 139 144 167
f 139 167 168
f 139 168 140
f 140 168 169
f 140 169 170
f 140 170 145
f 140 145 141
f 143 171 172
f 143 172 144
f 144 172 167
f 145 170 173
f 145 173 146
f 146 173 174
f 146 174 152
f 147 149 175
f 147 175 176
f 147 176 148
f 148 176 177
f 148 177 162
f 149 151 175
f 150 155 178
f 150 178 179
f 150 179 151
f 151 179 175
f 152 174 180
f 152 180 153
f 153 155 154
f 153 180 181
f 153 181 155
f 155 181 178
f 156 161 182
f 156 182 157
f 157 182 158
f 159 162 177
f 159 177 183
f 159 183 184
f 159 184 182
f 159 182 160
f 160 182 161
f 163 185 164
f 164 186 187
f 164 187 188
f 164 188 189
f 164 189 190
f 164 190 191
f 164 185 186
f 165 192 193
f 165 193 166
f 166 193 194
f 167 172 168
f 168 172 195
f 168 195 196
f 168 196 169
f 169 196 197
f 169 197 198
f 169 198 170
f 170 198 199
f 170 199 173
f 171 200 172
f 172 200 195
f 173 199 174
f 174 199 201
f 174 201 202
f 174 202 180
f 175 179 203
f 175 203 204
f 175 204 176
f 176 204 177
f 177 204 183
f 178 203 179
f 178 181 205
f 178 205 206
f 178 206 207
f 178 207 203
f 180 202 205
f 180 205 181
f 182 184 208
f 183 209 184
f 183 204 210
f 183 210 209
f 184 209 208
f 185 209 211
f 185 211 212
f 185 212 213
f 185 213 186
f 186 213 187
f 187 214 215
f 187 215 188
f 187 213 212
f 187 212 211
f 187 211 214
f 188 215 189
f 189 215 216
f 189 216 190
f 190 216 191
f 191 216 217
f 191 217 218
f 191 218 219
f 191 219 220
f 192 221 222
f 192 222 193
f 193 222 223
f 193 223 224
f 193 224 225
f 193 225 194
f 194 225 227
f 194 227 226
f 195 200 228
f 195 228 229
f 195 229 196
f 196 229 230
f 196 230 231
f 196 231 232
f 196 232 197
f 197 232 233
f 197 233 234
f 197 234 235
f 197 235 236
f 197 236 198
f 198 236 199
f 199 236 237
f 199 237 238
f 199 238 201
f 201 238 202
f 202 238 239
f 202 239 240
f 202 240 205
f 203 241 204
f 203 207 242
f 203 242 241
f 204 241 243
f 204 243 210
f 205 240 206
f 206 240 244
f 206 244 245
f 206 245 207
f 207 245 246
f 207 246 242
f 209 210 243
f 209 243 247
f 209 247 211
f 211 248 214
f 211 247 248
f 214 249 250
f 214 250 215
f 214 248 249
f 215 250 251
f 215 251 252
f 215 252 253
f 215 253 216
f 216 253 254
f 216 254 217
f 217 254 218
f 218 254 255
f 218 255 219
f 219 255 256
f 219 256 257
f 219 257 220
f 220 257 258
f 221 259 222
f 222 259 260
f 222 260 223
f 223 260 261
f 223 261 262
f 223 262 263
f 223 263 264
f 223 264 225
f 223 225 224
f 225 264 227
f 226 227 266
f 226 266 265
f 227 264 266
f 231 267 232
f 232 267 233
f 233 267 268
f 233 268 269
f 233 269 270
f 233 270 271
f 233 271 272
f 233 272 234
f 234 272 273
f 234 273 235
f 235 273 237
f 235 237 236
f 237 273 274
f 237 274 275
f 237 275 238
f 238 275 239
f 239 275 276
f 239 276 277
f 239 277 278
f 239 278 240
f 240 278 279
f 240 279 244
f 241 247 243
f 241 242 248
f 241 248 247
f 242 246 280
f 242 280 248
f 244 279 245
f 245 279 281
f 245 281 246
f 246 281 282
f 246 282 283
f 246 283 280
f 248 280 284
f 248 284 285
f 248 285 249
f 249 285 286
f 249 286 250
f 250 286 251
f 251 287 288
f 251 288 252
f 251 286 287
f 252 288 289
f 252 289 253
f 253 289 254
f 254 289 290
f 254 290 255
f 255 290 291
f 255 291 256
f 256 291 257
f 257 291 292
f 257 292 293
f 257 293 294
f 257 294 258
f 258 294 295
f 259 296 260
f 260 296 297
f 260 297 298
f 260 298 262
f 260 262 261
f 262 298 299
f 262 299 263
f 263 300 264
f 263 299 301
f 263 301 302
f 263 302 303
f 263 303 300
f 264 300 304
f 264 304 266
f 265 266 305
f 266 306 305
f 266 304 306
f 270 307 271
f 271 273 272
f 271 307 308
f 271 308 273
f 273 308 309
f 273 309 310
f 273 310 311
f 273 311 275
f 273 275 274
f 275 311 310
f 275 310 312
f 275 312 313
f 275 313 276
f 276 313 277
f 277 314 279
f 277 279 278
f 277 313 315
f 277 315 314
f 279 314 316
f 279 316 281
f 280 283 317
f 280 317 318
f 280 318 284
f 281 316 319
f 281 319 282
f 282 319 283
f 283 319 320
f 283 320 317
f 284 318 286
f 284 286 285
f 286 318 287
f 287 321 322
f 287 322 288
f 287 318 317
f 287 317 321
f 288 322 323
f 288 323 324
f 288 324 289
f 289 324 325
f 289 325 290
f 290 325 303
f 290 303 291
f 291 303 302
f 291 302 301
f 291 301 292
f 292 301 299
f 292 299 293
f 293 299 298
f 293 298 294
f 294 298 326
f 294 326 295
f 297 326 298
f 300 327 304
f 300 303 325
f 300 325 324
f 300 324 327
f 304 327 328
f 304 328 329
f 304 329 306
f 305 306 330
f 306 329 331
f 306 331 332
f 306 332 330
f 307 333 308
f 308 310 309
f 308 333 334
f 308 334 335
f 308 335 336
f 308 336 337
f 308 337 310
f 310 313 312
f 310 337 338
f 310 338 339
f 310 339 340
f 310 340 313
f 313 340 339
f 313 339 341
f 313 341 342
f 313 342 315
f 314 315 343
f 314 343 316
f 315 342 343
f 316 343 319
f 317 320 321
f 319 343 344
f 319 344 345
f 319 345 320
f 320 345 346
f 320 346 321
f 321 346 322
f 322 347 323
f 322 346 347
f 323 347 348
f 323 348 324
f 324 348 327
f 327 348 328
f 328 348 349
f 328 349 329
f 329 350 331
f 329 349 350
f 331 350 351
f 335 352 336
f 336 352 353
f 336 353 339
f 336 339 338
f 336 338 337
f 339 342 341
f 339 353 354
f 339 354 355
f 339 355 342
f 342 355 356
f 342 356 357
f 342 357 343
f 343 357 344
f 344 357 358
f 344 358 345
f 345 358 359
f 345 359 346
f 346 359 347
f 347 359 360
f 347 360 361
f 347 361 348
f 348 361 362
f 348 362 349
f 349 362 350
f 350 363 364
f 350 364 351
f 350 362 365
f 350 365 366
f 350 366 363
f 352 367 353
f 353 367 368
f 353 368 354
f 354 368 369
f 354 369 370
f 354 370 355
f 355 370 356
f 356 371 357
f 356 370 371
f 357 371 358
f 358 371 360
f 358 360 359
f 360 372 373
f 360 373 361
f 360 371 372
f 361 373 362
f 362 373 365
f 363 366 374
f 365 373 366
f 366 373 375
f 366 375 374
f 369 376 370
f 370 376 375
f 370 375 377
f 370 377 371
f 371 377 372
f 372 377 375
f 372 375 373
f 374 375 378
f 375 376 379
f 375 379 380
f 375 380 378

