# https://github.com/mikedh/trimesh
v -0.05913065 -0.00062499 -0.09911768
v -0.05912175 -0.00062499 -0.10144093
v -0.05912175 -0.00062499 -0.09887568
v -0.05908391 0.00145612 -0.09911768
v -0.05908168 0.00145612 -0.10144093
v -0.05887467 -0.00062499 -0.10352334
v -0.05903049 -0.00062499 -0.09679326
v -0.05898152 0.00145612 -0.09679326
v -0.05898597 0.00377988 -0.09911768
v -0.05884129 -0.00062499 -0.10378542
v -0.05898152 0.00377988 -0.10144093
v -0.05873445 0.00377988 -0.10353751
v -0.05875226 0.00157602 -0.10397547
v -0.05901491 -0.00062499 -0.09655126
v -0.05895481 0.00011725 -0.09596337
v -0.05892142 0.00145612 -0.09596337
v -0.05887691 0.00377988 -0.09679326
v -0.05883684 0.00610364 -0.09911768
v -0.05854970 0.00088232 -0.10499307
v -0.05856751 -0.00062499 -0.10503911
v -0.05883016 0.00610364 -0.10144093
v -0.05865209 0.00610364 -0.10314676
v -0.05847180 0.00377988 -0.10469913
v -0.05851854 0.00243244 -0.10489037
v -0.05897262 -0.00062499 -0.09596337
v -0.05881458 0.00377988 -0.09596337
v -0.05876561 0.00457921 -0.09596337
v -0.05861425 0.00692866 -0.09596337
v -0.05872555 0.00610364 -0.09679326
v -0.05858309 0.00782505 -0.09679326
v -0.05861871 0.00852732 -0.09927469
v -0.05852967 0.00962354 -0.10015417
v -0.05852967 0.00962354 -0.10036312
v -0.05818021 -0.00062499 -0.10604018
v -0.05816240 0.00157602 -0.10589616
v -0.05861425 0.00846452 -0.10125913
v -0.05857641 0.00771086 -0.10282093
v -0.05837386 0.00610364 -0.10430837
v -0.05774839 0.00610364 -0.10608859
v -0.05795095 0.00377988 -0.10608859
v -0.05307408 -0.00062499 -0.09596337
v -0.05855861 0.00759953 -0.09596337
v -0.05851409 0.00805343 -0.09596337
v -0.05846512 0.00898694 -0.09679326
v -0.05850296 0.00936947 -0.09860417
v -0.05837163 0.01053992 -0.09927469
v -0.05798433 0.01307778 -0.09911768
v -0.05796208 0.01307778 -0.10144093
v -0.05835383 0.01053992 -0.10125913
v -0.05848738 0.00926099 -0.10191195
v -0.05812456 -0.00062499 -0.10617712
v -0.05713851 0.00184722 -0.10802343
v -0.05715854 0.00147610 -0.10802343
v -0.05795985 0.01075402 -0.10376416
v -0.05828483 0.00846452 -0.10366264
v -0.05748129 0.00843026 -0.10608859
v -0.05679127 0.00627207 -0.10802343
v -0.05680908 0.00610364 -0.10802343
v -0.05700495 0.00369424 -0.10802343
v -0.04845542 -0.00062499 -0.10802343
v -0.03639347 0.02853337 -0.10802343
v -0.04359859 0.02853337 -0.09596337
v -0.05843396 0.00873286 -0.09596337
v -0.05832934 0.00961498 -0.09596337
v -0.05818912 0.01075402 -0.09596337
v -0.05824476 0.01075402 -0.09679326
v -0.05789308 0.01307778 -0.09679326
v -0.05756142 0.01539869 -0.09911768
v -0.05755029 0.01539869 -0.10144093
v -0.05759481 0.01307778 -0.10376416
v -0.05724090 -0.00062499 -0.10802343
v -0.05713851 0.01075402 -0.10608859
v -0.05659317 0.00843026 -0.10791601
v -0.05665326 0.00746536 -0.10802343
v -0.05084822 0.02853337 -0.10802343
v -0.05266007 0.02853337 -0.09596337
v -0.05783075 0.01307778 -0.09596337
v -0.05745903 0.01539869 -0.09679326
v -0.05707173 0.01772245 -0.09911768
v -0.05707173 0.01772245 -0.10144093
v -0.05638617 0.01963227 -0.10323294
v -0.05716076 0.01539869 -0.10376416
v -0.05650859 0.01539869 -0.10560457
v -0.05640620 0.01075402 -0.10758901
v -0.05667108 0.01307493 -0.10623732
v -0.05613464 0.01384571 -0.10711209
v -0.05652639 0.00843026 -0.10802343
v -0.05655088 0.00825327 -0.10802343
v -0.05625039 0.01007459 -0.10802343
v -0.05090609 0.02843916 -0.10802343
v -0.05122216 0.02853337 -0.10760318
v -0.05284927 0.02853337 -0.09680625
v -0.05300285 0.02799953 -0.09596337
v -0.05739225 0.01539869 -0.09596337
v -0.05693373 0.01772245 -0.09679326
v -0.05645739 0.02022035 -0.09914602
v -0.05622145 0.02127661 -0.09994050
v -0.05622145 0.02127661 -0.10085893
v -0.05645962 0.02026317 -0.10155661
v -0.05619474 0.02117955 -0.10240658
v -0.05602335 0.02026317 -0.10391055
v -0.05615690 0.01867879 -0.10478176
v -0.05660207 0.01783093 -0.10391055
v -0.05632384 0.01712866 -0.10519493
v -0.05596770 0.01539869 -0.10676738
v -0.05626597 0.01229844 -0.10735881
v -0.05597661 0.01156191 -0.10802343
v -0.05612574 0.01075402 -0.10802343
v -0.05518197 0.01539869 -0.10802343
v -0.05565608 0.01322623 -0.10802343
v -0.05572286 0.01288080 -0.10802343
v -0.05423598 0.02004621 -0.10779088
v -0.05429163 0.01920692 -0.10802343
v -0.05133346 0.02772833 -0.10802343
v -0.05161169 0.02828215 -0.10733520
v -0.05177195 0.02853337 -0.10674967
v -0.05324102 0.02853337 -0.09911768
v -0.05350812 0.02749709 -0.09679326
v -0.05345025 0.02729440 -0.09596337
v -0.05685805 0.01772245 -0.09596337
v -0.05642623 0.01971221 -0.09679326
v -0.05617471 0.02111103 -0.09839050
v -0.05588980 0.02217871 -0.09914602
v -0.05504175 0.02469373 -0.09911768
v -0.05511520 0.02469373 -0.10144093
v -0.05592541 0.02217871 -0.10155661
v -0.05474570 0.02469373 -0.10376416
v -0.05548692 0.02236997 -0.10376416
v -0.05576960 0.01783093 -0.10601775
v -0.05414027 0.02469373 -0.10544167
v -0.05446079 0.02240994 -0.10621843
v -0.05518197 0.02004621 -0.10608859
v -0.05400894 0.02166200 -0.10744853
v -0.05407127 0.02004621 -0.10802343
v -0.05415140 0.01975503 -0.10802343
v -0.05168514 0.02702035 -0.10802343
v -0.05191441 0.02702035 -0.10773775
v -0.05305405 0.02684050 -0.10590561
v -0.05211028 0.02853337 -0.10606261
v -0.05333450 0.02853337 -0.10046346
v -0.05376410 0.02794814 -0.10144093
v -0.05368619 0.02780826 -0.09911768
v -0.05411356 0.02633521 -0.09679326
v -0.05404901 0.02619818 -0.09596337
v -0.05374407 0.02678055 -0.09596337
v -0.05638394 0.01955520 -0.09596337
v -0.05617916 0.02030314 -0.09596337
v -0.05610793 0.02087409 -0.09679326
v -0.05563382 0.02236997 -0.09679326
v -0.05480135 0.02469373 -0.09679326
v -0.05424711 0.02664638 -0.09911768
v -0.05429385 0.02678626 -0.10144093
v -0.05410688 0.02638945 -0.10376416
v -0.05391546 0.02594697 -0.10500842
v -0.05353929 0.02469373 -0.10660329
v -0.05377968 0.02321212 -0.10708021
v -0.05343467 0.02216729 -0.10802343
v -0.05377968 0.02104537 -0.10802343
v -0.05181869 0.02673488 -0.10802343
v -0.05204573 0.02615536 -0.10802343
v -0.05299840 0.02853337 -0.10385978
v -0.05359493 0.02755133 -0.10376416
v -0.05340128 0.02853337 -0.10144093
v -0.05439402 0.02537602 -0.09596337
v -0.05606119 0.02071708 -0.09596337
v -0.05553143 0.02236997 -0.09596337
v -0.05464999 0.02474797 -0.09596337
v -0.05260443 0.02465948 -0.10802343
v -0.05329889 0.02259264 -0.10802343
f 1 2 6
f 1 6 10
f 1 10 20
f 1 20 34
f 1 34 51
f 1 51 71
f 1 71 60
f 1 60 41
f 1 41 25
f 1 25 14
f 1 14 7
f 1 7 3
f 1 3 4
f 1 4 5
f 1 5 2
f 2 5 6
f 3 7 4
f 4 8 9
f 4 9 5
f 4 7 8
f 5 10 6
f 5 9 11
f 5 11 12
f 5 12 13
f 5 13 10
f 7 14 8
f 8 15 16
f 8 16 17
f 8 17 9
f 8 14 15
f 9 17 18
f 9 18 11
f 10 13 19
f 10 19 20
f 11 18 21
f 11 21 22
f 11 22 12
f 12 22 23
f 12 23 24
f 12 24 13
f 13 24 19
f 14 25 15
f 15 25 41
f 15 41 62
f 15 62 76
f 15 76 93
f 15 93 119
f 15 119 145
f 15 145 144
f 15 144 164
f 15 164 167
f 15 167 166
f 15 166 165
f 15 165 147
f 15 147 146
f 15 146 120
f 15 120 94
f 15 94 77
f 15 77 65
f 15 65 64
f 15 64 63
f 15 63 43
f 15 43 42
f 15 42 28
f 15 28 27
f 15 27 26
f 15 26 16
f 16 26 17
f 17 26 27
f 17 27 28
f 17 28 29
f 17 29 18
f 18 29 30
f 18 30 31
f 18 31 32
f 18 32 33
f 18 33 21
f 19 34 20
f 19 24 35
f 19 35 34
f 21 33 36
f 21 36 37
f 21 37 22
f 22 38 23
f 22 37 38
f 23 38 39
f 23 39 24
f 24 39 40
f 24 40 35
f 28 42 30
f 28 30 29
f 30 42 43
f 30 43 44
f 30 44 31
f 31 44 45
f 31 45 32
f 32 46 47
f 32 47 33
f 32 45 46
f 33 47 48
f 33 48 49
f 33 49 50
f 33 50 36
f 34 35 51
f 35 40 52
f 35 52 53
f 35 53 51
f 36 50 37
f 37 50 54
f 37 54 55
f 37 55 38
f 38 55 54
f 38 54 56
f 38 56 39
f 39 56 57
f 39 57 58
f 39 58 40
f 40 59 52
f 40 58 59
f 41 60 61
f 41 61 62
f 43 63 44
f 44 63 64
f 44 64 65
f 44 65 66
f 44 66 45
f 45 66 46
f 46 66 47
f 47 67 68
f 47 68 69
f 47 69 48
f 47 66 67
f 48 69 70
f 48 70 50
f 48 50 49
f 50 70 54
f 51 53 71
f 52 59 58
f 52 58 57
f 52 57 74
f 52 74 88
f 52 88 87
f 52 87 89
f 52 89 108
f 52 108 107
f 52 107 111
f 52 111 110
f 52 110 109
f 52 109 113
f 52 113 135
f 52 135 134
f 52 134 158
f 52 158 157
f 52 157 169
f 52 169 168
f 52 168 160
f 52 160 159
f 52 159 136
f 52 136 114
f 52 114 90
f 52 90 75
f 52 75 61
f 52 61 60
f 52 60 71
f 52 71 53
f 54 72 56
f 54 70 72
f 56 72 73
f 56 73 74
f 56 74 57
f 61 75 91
f 61 91 116
f 61 116 139
f 61 139 161
f 61 161 163
f 61 163 140
f 61 140 117
f 61 117 92
f 61 92 76
f 61 76 62
f 65 77 67
f 65 67 66
f 67 77 78
f 67 78 68
f 68 78 79
f 68 79 80
f 68 80 69
f 69 80 81
f 69 81 82
f 69 82 70
f 70 82 83
f 70 83 72
f 72 84 73
f 72 83 85
f 72 85 86
f 72 86 84
f 73 87 88
f 73 88 74
f 73 84 89
f 73 89 87
f 75 90 91
f 76 92 93
f 77 94 78
f 78 94 95
f 78 95 79
f 79 95 96
f 79 96 97
f 79 97 98
f 79 98 80
f 80 98 99
f 80 99 100
f 80 100 81
f 81 100 101
f 81 101 102
f 81 102 103
f 81 103 82
f 82 104 83
f 82 103 102
f 82 102 104
f 83 104 105
f 83 105 86
f 83 86 85
f 84 86 106
f 84 106 107
f 84 107 108
f 84 108 89
f 86 109 110
f 86 110 111
f 86 111 107
f 86 107 106
f 86 105 112
f 86 112 113
f 86 113 109
f 90 114 115
f 90 115 91
f 91 115 116
f 92 117 118
f 92 118 93
f 93 118 119
f 94 120 95
f 95 120 121
f 95 121 96
f 96 121 122
f 96 122 97
f 97 122 123
f 97 123 124
f 97 124 125
f 97 125 98
f 98 100 99
f 98 125 126
f 98 126 100
f 100 126 125
f 100 125 127
f 100 127 128
f 100 128 101
f 101 128 102
f 102 129 104
f 102 128 130
f 102 130 131
f 102 131 132
f 102 132 129
f 104 129 105
f 105 129 132
f 105 132 112
f 112 132 133
f 112 133 134
f 112 134 135
f 112 135 113
f 114 136 115
f 115 136 137
f 115 137 138
f 115 138 116
f 116 138 139
f 117 140 141
f 117 141 142
f 117 142 118
f 118 142 143
f 118 143 144
f 118 144 145
f 118 145 119
f 120 146 121
f 121 146 147
f 121 147 148
f 121 148 122
f 122 148 149
f 122 149 123
f 123 149 124
f 124 150 151
f 124 151 152
f 124 152 125
f 124 149 150
f 125 152 153
f 125 153 127
f 127 153 154
f 127 154 128
f 128 154 130
f 130 154 155
f 130 155 156
f 130 156 131
f 131 156 132
f 132 156 133
f 133 157 158
f 133 158 134
f 133 156 157
f 136 159 137
f 137 159 160
f 137 160 156
f 137 156 155
f 137 155 138
f 138 155 154
f 138 154 139
f 139 154 162
f 139 162 161
f 140 163 141
f 141 163 161
f 141 161 162
f 141 162 152
f 141 152 151
f 141 151 142
f 142 151 143
f 143 151 150
f 143 150 164
f 143 164 144
f 147 165 148
f 148 165 149
f 149 166 150
f 149 165 166
f 150 166 167
f 150 167 164
f 152 162 153
f 153 162 154
f 156 168 169
f 156 169 157
f 156 160 168

