# https://github.com/mikedh/trimesh
v 0.03783844 0.00215875 0.05946478
v 0.03222483 0.02364599 0.05946478
v 0.04412328 0.00215875 0.05946478
v 0.03838779 0.00215875 0.10540610
v 0.03917575 0.02364599 0.05946478
v 0.03410634 0.02364599 0.10499246
v 0.04429667 0.00378039 0.05946478
v 0.04427950 0.00215875 0.06054917
v 0.04013710 0.00215875 0.11470168
v 0.03924785 0.02364599 0.05966041
v 0.03931823 0.02328843 0.05946478
v 0.03624534 0.02364599 0.11470168
v 0.04407693 0.00614659 0.05946478
v 0.04436362 0.00610452 0.06125347
v 0.04455074 0.00378039 0.06125347
v 0.04437907 0.00215875 0.06125347
v 0.04039117 0.00215875 0.11512650
v 0.03670198 0.02364599 0.11590905
v 0.03977488 0.02364599 0.06129259
v 0.04052508 0.02003253 0.05946478
v 0.04385547 0.00728237 0.05946478
v 0.04381256 0.00765675 0.05965483
v 0.04365977 0.00920478 0.06060507
v 0.04462799 0.00610452 0.06357876
v 0.04392071 0.00843077 0.06132613
v 0.04377479 0.00978108 0.06215340
v 0.04839786 0.01661678 0.10884932
v 0.04910686 0.01307484 0.11005668
v 0.04944677 0.01075280 0.11005668
v 0.04455760 0.00215875 0.06287447
v 0.04967852 0.00842866 0.11005668
v 0.04976093 0.00610452 0.11005668
v 0.04971286 0.00378039 0.11005668
v 0.04961672 0.00215875 0.11005668
v 0.04107099 0.00215875 0.11612145
v 0.03794144 0.02364599 0.11632828
v 0.04021264 0.02237140 0.06125347
v 0.04121176 0.01809961 0.05946478
v 0.04036542 0.02364599 0.06357876
v 0.04325463 0.01025432 0.05946478
v 0.04295935 0.01307484 0.06125347
v 0.04347952 0.01063502 0.06132613
v 0.04327523 0.01307484 0.06357876
v 0.04614899 0.02364599 0.10880461
v 0.04737299 0.02004725 0.11005668
v 0.04839786 0.01661678 0.10920148
v 0.04860730 0.01557355 0.11000638
v 0.04278254 0.01539898 0.06357876
v 0.04252332 0.01772312 0.06590405
v 0.04179887 0.02025758 0.06571400
v 0.04150875 0.02154059 0.06636799
v 0.04079117 0.02364599 0.06582021
v 0.04836181 0.01646535 0.11074980
v 0.04853863 0.01491522 0.11153795
v 0.04870859 0.01307484 0.11188450
v 0.04887510 0.01075280 0.11218075
v 0.04907081 0.00610452 0.11237639
v 0.04905364 0.00378039 0.11237639
v 0.04890257 0.00215875 0.11251055
v 0.04151733 0.00215875 0.11625560
v 0.04257310 0.00215875 0.11656304
v 0.04025041 0.02237140 0.11655745
v 0.04035341 0.02364599 0.11643448
v 0.04103837 0.01998626 0.06125906
v 0.04156540 0.01703534 0.05946478
v 0.04131304 0.01858547 0.06048768
v 0.04078086 0.02237140 0.06357876
v 0.04150188 0.01917228 0.06203602
v 0.04315506 0.01072546 0.05946478
v 0.04241345 0.01539898 0.06125347
v 0.04265207 0.01307484 0.05946478
v 0.04616787 0.02364599 0.11005668
v 0.04660906 0.02237140 0.11005668
v 0.04609405 0.02363337 0.11128641
v 0.04811289 0.01752330 0.11000638
v 0.04220572 0.01772312 0.06357876
v 0.04140060 0.02117252 0.06481966
v 0.04117742 0.02233774 0.06571400
v 0.04128386 0.02081496 0.06357876
v 0.04631551 0.02237140 0.11164974
v 0.04659361 0.01990002 0.11244906
v 0.04725454 0.01772312 0.11237639
v 0.04787255 0.01557355 0.11234285
v 0.04803907 0.01307484 0.11304715
v 0.04824165 0.01075280 0.11334340
v 0.04834293 0.00905965 0.11348873
v 0.04887682 0.00834243 0.11257762
v 0.04839958 0.00750952 0.11355580
v 0.04842190 0.00610452 0.11357816
v 0.04842361 0.00378039 0.11358376
v 0.04840301 0.00239642 0.11356140
v 0.04852833 0.00215875 0.11328192
v 0.04257310 0.00378039 0.11656862
v 0.04319283 0.00215875 0.11648479
v 0.04461940 0.00378039 0.11632268
v 0.04465717 0.00610452 0.11633386
v 0.04257310 0.01539898 0.11648479
v 0.04257310 0.01772312 0.11639535
v 0.04203062 0.02237140 0.11619971
v 0.04257310 0.01075280 0.11655185
v 0.04257310 0.01307484 0.11653509
v 0.04178857 0.02364599 0.11609351
v 0.04174908 0.01777570 0.06125906
v 0.04201002 0.01551676 0.05946478
v 0.04164780 0.01965394 0.06357876
v 0.04609920 0.02364599 0.11115225
v 0.04608203 0.02364599 0.11129759
v 0.04554986 0.02237140 0.11281238
v 0.04585372 0.02057729 0.11327074
v 0.04610435 0.01902716 0.11358935
v 0.04628632 0.01772312 0.11376821
v 0.04660048 0.01539898 0.11405329
v 0.04687687 0.01307484 0.11427128
v 0.04707944 0.01075280 0.11442780
v 0.04742964 0.00834243 0.11433277
v 0.04722192 0.00610452 0.11458990
v 0.04722192 0.00378039 0.11456195
v 0.04812491 0.00215875 0.11376821
v 0.04839100 0.00215875 0.11354463
v 0.04456791 0.00215875 0.11630592
v 0.04491983 0.00215875 0.11611587
v 0.04578161 0.00378039 0.11568547
v 0.04581938 0.00610452 0.11571341
v 0.04462284 0.00842866 0.11632828
v 0.04451640 0.01075280 0.11630592
v 0.04437049 0.01307484 0.11625002
v 0.04417993 0.01539898 0.11616617
v 0.04267610 0.01991054 0.11621648
v 0.04393101 0.01772312 0.11600967
v 0.04377307 0.01904398 0.11589788
v 0.04351900 0.02059411 0.11570783
v 0.04319283 0.02237140 0.11540598
v 0.04284091 0.02364599 0.11525506
v 0.04531810 0.02364599 0.11244347
v 0.04415590 0.02364599 0.11399180
v 0.04438765 0.02237140 0.11424334
v 0.04534214 0.01539898 0.11521593
v 0.04553269 0.01307484 0.11543393
v 0.04567861 0.01075280 0.11558485
v 0.04578504 0.00842866 0.11568547
v 0.04573011 0.00215875 0.11564634
v 0.04616615 0.00215875 0.11530536
v 0.04361685 0.02364599 0.11451723
f 1 2 5
f 1 5 11
f 1 11 20
f 1 20 38
f 1 38 65
f 1 65 104
f 1 104 71
f 1 71 69
f 1 69 40
f 1 40 21
f 1 21 13
f 1 13 7
f 1 7 3
f 1 3 8
f 1 8 16
f 1 16 30
f 1 30 34
f 1 34 59
f 1 59 92
f 1 92 119
f 1 119 118
f 1 118 142
f 1 142 141
f 1 141 121
f 1 121 120
f 1 120 94
f 1 94 61
f 1 61 60
f 1 60 35
f 1 35 17
f 1 17 9
f 1 9 4
f 1 4 2
f 2 4 6
f 2 6 12
f 2 12 18
f 2 18 36
f 2 36 63
f 2 63 102
f 2 102 133
f 2 133 143
f 2 143 135
f 2 135 134
f 2 134 107
f 2 107 106
f 2 106 72
f 2 72 44
f 2 44 52
f 2 52 39
f 2 39 19
f 2 19 10
f 2 10 5
f 3 7 8
f 4 9 6
f 5 10 11
f 6 9 12
f 7 13 14
f 7 14 15
f 7 15 8
f 8 15 16
f 9 17 18
f 9 18 12
f 10 19 11
f 11 19 20
f 13 21 22
f 13 22 23
f 13 23 14
f 14 24 15
f 14 23 25
f 14 25 26
f 14 26 27
f 14 27 28
f 14 28 29
f 14 29 24
f 15 30 16
f 15 24 31
f 15 31 32
f 15 32 33
f 15 33 34
f 15 34 30
f 17 35 18
f 18 35 36
f 19 37 38
f 19 38 20
f 19 39 37
f 21 40 22
f 22 40 23
f 23 40 41
f 23 41 42
f 23 42 26
f 23 26 25
f 24 29 31
f 26 42 41
f 26 41 43
f 26 43 27
f 27 44 45
f 27 45 46
f 27 46 47
f 27 47 28
f 27 43 48
f 27 48 49
f 27 49 50
f 27 50 51
f 27 51 52
f 27 52 44
f 28 47 53
f 28 53 54
f 28 54 29
f 29 54 55
f 29 55 56
f 29 56 31
f 31 56 57
f 31 57 32
f 32 57 58
f 32 58 33
f 33 58 34
f 34 58 59
f 35 60 36
f 36 60 61
f 36 61 62
f 36 62 63
f 37 64 38
f 37 39 64
f 38 64 66
f 38 66 65
f 39 52 67
f 39 67 68
f 39 68 64
f 40 69 41
f 41 70 48
f 41 48 43
f 41 69 71
f 41 71 70
f 44 72 73
f 44 73 45
f 45 73 74
f 45 74 53
f 45 53 75
f 45 75 46
f 46 75 53
f 46 53 47
f 48 70 76
f 48 76 49
f 49 76 50
f 50 76 77
f 50 77 51
f 51 77 78
f 51 78 52
f 52 78 77
f 52 77 79
f 52 79 67
f 53 74 54
f 54 74 80
f 54 80 81
f 54 81 82
f 54 82 83
f 54 83 84
f 54 84 55
f 55 84 85
f 55 85 56
f 56 85 86
f 56 86 87
f 56 87 57
f 57 87 88
f 57 88 89
f 57 89 90
f 57 90 58
f 58 90 91
f 58 91 92
f 58 92 59
f 61 93 62
f 61 94 95
f 61 95 96
f 61 96 93
f 62 97 98
f 62 98 99
f 62 99 63
f 62 93 100
f 62 100 101
f 62 101 97
f 63 99 102
f 64 68 66
f 65 66 68
f 65 68 103
f 65 103 104
f 67 79 68
f 68 79 105
f 68 105 76
f 68 76 103
f 70 71 104
f 70 104 103
f 70 103 76
f 72 106 73
f 73 106 74
f 74 106 107
f 74 107 108
f 74 108 80
f 76 105 77
f 77 105 79
f 80 108 109
f 80 109 81
f 81 109 110
f 81 110 82
f 82 110 83
f 83 110 84
f 84 110 111
f 84 111 112
f 84 112 85
f 85 112 113
f 85 113 114
f 85 114 86
f 86 88 87
f 86 114 115
f 86 115 88
f 88 115 116
f 88 116 89
f 89 116 90
f 90 116 117
f 90 117 91
f 91 117 118
f 91 118 119
f 91 119 92
f 93 96 100
f 94 120 95
f 95 120 121
f 95 121 122
f 95 122 123
f 95 123 96
f 96 124 100
f 96 123 124
f 97 101 125
f 97 125 126
f 97 126 98
f 98 126 127
f 98 127 128
f 98 128 99
f 99 128 127
f 99 127 129
f 99 129 130
f 99 130 102
f 100 124 101
f 101 124 125
f 102 130 131
f 102 131 132
f 102 132 133
f 107 134 108
f 108 134 135
f 108 135 109
f 109 135 136
f 109 136 110
f 110 136 131
f 110 131 130
f 110 130 111
f 111 130 112
f 112 130 137
f 112 137 113
f 113 137 138
f 113 138 114
f 114 138 139
f 114 139 140
f 114 140 115
f 115 140 116
f 116 140 123
f 116 123 117
f 117 123 122
f 117 122 141
f 117 141 142
f 117 142 118
f 121 141 122
f 123 140 124
f 124 140 125
f 125 140 126
f 126 140 139
f 126 139 127
f 127 139 138
f 127 138 129
f 129 138 137
f 129 137 130
f 131 136 132
f 132 136 143
f 132 143 133
f 135 143 136

