# https://github.com/mikedh/trimesh
v 0.00096360 0.02836922 -0.00384386
v -0.00636482 0.02623805 -0.00384386
v 0.00096360 0.02218242 -0.00384386
v 0.00096360 0.02896912 -0.04101351
v -0.00623420 0.02801507 -0.04101351
v -0.00722202 0.02786257 -0.04101351
v -0.00835952 0.02768361 -0.04101351
v -0.01318708 0.02418377 -0.00384386
v -0.01367147 0.01609518 -0.00384386
v 0.00096360 0.02178669 -0.00615059
v 0.00096360 0.02340239 -0.04101351
v -0.01088215 0.02682283 -0.04101351
v -0.01088215 0.02682283 -0.04100987
v -0.01320341 0.02417873 -0.00384386
v -0.02178090 0.01609518 -0.00384386
v -0.01306190 0.01609518 -0.00615059
v 0.00096360 0.02147539 -0.00849006
v 0.00096360 0.02150438 -0.00825357
v 0.00096360 0.02338852 -0.04094438
v -0.01704314 0.01609518 -0.04101351
v -0.01259928 0.02610446 -0.04101351
v -0.01453140 0.02366075 -0.00384386
v -0.02135366 0.01657914 -0.00384386
v -0.02683705 0.01609518 -0.04101351
v -0.01247138 0.01609518 -0.00845004
v 0.00096360 0.02133550 -0.01060760
v -0.01158969 0.01609518 -0.01312535
v 0.00096360 0.02334315 -0.04070788
v 0.00096360 0.02251892 -0.03636366
v 0.00096360 0.02215343 -0.03403874
v 0.00096360 0.02188625 -0.03171382
v -0.01200332 0.01609518 -0.02242140
v -0.01375855 0.02558900 -0.04101351
v -0.01454772 0.02364940 -0.00384386
v -0.01552739 0.02474334 -0.04100987
v -0.01717104 0.02385105 -0.04100987
v -0.01684721 0.02137961 -0.00384386
v -0.01619954 0.02203748 -0.00384386
v -0.01599273 0.02224543 -0.00384386
v -0.01465930 0.02354102 -0.00384386
v -0.02615400 0.01670265 -0.04100987
v -0.02615400 0.01670139 -0.04101351
v -0.01130939 0.01609518 -0.01546119
v 0.00096360 0.02128635 -0.01259415
v 0.00096360 0.02186734 -0.03148824
v -0.01146179 0.01609518 -0.02008557
v -0.01552739 0.02474334 -0.04101351
v -0.01833303 0.02302430 -0.04101351
v -0.01717104 0.02385105 -0.04101351
v -0.01125769 0.01609518 -0.01777156
v 0.00096360 0.02128383 -0.01294344
v 0.00096360 0.02170224 -0.02938890
v 0.00096360 0.02157117 -0.02706761
v 0.00096360 0.02156109 -0.02684203
v 0.00096360 0.02146405 -0.02451711
v 0.00096360 0.02136953 -0.02193022
v 0.00096360 0.02129013 -0.01545028
f 1 2 8
f 1 8 14
f 1 14 22
f 1 22 34
f 1 34 40
f 1 40 39
f 1 39 38
f 1 38 37
f 1 37 23
f 1 23 15
f 1 15 9
f 1 9 3
f 1 3 10
f 1 10 18
f 1 18 17
f 1 17 26
f 1 26 44
f 1 44 51
f 1 51 57
f 1 57 56
f 1 56 55
f 1 55 54
f 1 54 53
f 1 53 52
f 1 52 45
f 1 45 31
f 1 31 30
f 1 30 29
f 1 29 28
f 1 28 19
f 1 19 11
f 1 11 4
f 1 4 5
f 1 5 6
f 1 6 7
f 1 7 2
f 2 7 8
f 3 9 10
f 4 11 20
f 4 20 24
f 4 24 42
f 4 42 48
f 4 48 49
f 4 49 47
f 4 47 33
f 4 33 21
f 4 21 12
f 4 12 7
f 4 7 6
f 4 6 5
f 7 12 13
f 7 13 14
f 7 14 8
f 9 15 24
f 9 24 20
f 9 20 32
f 9 32 46
f 9 46 50
f 9 50 43
f 9 43 27
f 9 27 25
f 9 25 16
f 9 16 17
f 9 17 18
f 9 18 10
f 11 19 20
f 12 21 13
f 13 21 22
f 13 22 14
f 15 23 24
f 16 25 17
f 17 25 27
f 17 27 26
f 19 28 20
f 20 28 29
f 20 29 30
f 20 30 31
f 20 31 32
f 21 33 22
f 22 33 35
f 22 35 36
f 22 36 34
f 23 37 24
f 24 37 38
f 24 38 39
f 24 39 40
f 24 40 34
f 24 34 41
f 24 41 42
f 26 27 43
f 26 43 44
f 31 45 46
f 31 46 32
f 33 47 35
f 34 36 48
f 34 48 41
f 35 47 49
f 35 49 36
f 36 49 48
f 41 48 42
f 43 50 44
f 44 50 51
f 45 52 46
f 46 52 53
f 46 53 54
f 46 54 55
f 46 55 50
f 50 55 56
f 50 56 57
f 50 57 51

