# https://github.com/mikedh/trimesh
v -0.05897469 -0.00062577 -0.09596337
v -0.05307450 -0.00062577 -0.09596337
v -0.05887042 -0.00062577 -0.09446765
v -0.05892076 0.00145510 -0.09596337
v -0.04965699 0.02058580 -0.09596337
v -0.04060895 0.02058580 -0.07532742
v -0.04060895 -0.00062577 -0.06478043
v -0.05885065 -0.00062577 -0.09425688
v -0.05881469 0.00145510 -0.09446765
v -0.05881469 0.00378102 -0.09596337
v -0.05609830 0.02058580 -0.09596337
v -0.04060895 0.02058580 -0.06554247
v -0.04060895 -0.00062577 -0.05455366
v -0.05865290 -0.00062577 -0.09225854
v -0.05862414 0.00145510 -0.09246527
v -0.05870144 0.00378102 -0.09446765
v -0.05856481 0.00378102 -0.09294762
v -0.05858099 0.00591173 -0.09458115
v -0.05876616 0.00458056 -0.09596337
v -0.05617920 0.02030129 -0.09596337
v -0.05608392 0.02058580 -0.09582555
v -0.04189074 0.02058580 -0.06690443
v -0.04060895 0.02050273 -0.06547357
v -0.04060895 -0.00040771 -0.05456178
v -0.04947542 0.00145510 -0.06739084
v -0.04868082 -0.00062577 -0.06621129
v -0.05864032 -0.00062577 -0.09214099
v -0.05848930 0.00145510 -0.09130599
v -0.05853065 0.00500836 -0.09325973
v -0.05842998 0.00378102 -0.09178835
v -0.05854503 0.00745681 -0.09543236
v -0.05861514 0.00692932 -0.09596337
v -0.05638415 0.01955367 -0.09596337
v -0.05630864 0.01927124 -0.09446765
v -0.05602460 0.02058580 -0.09527834
v -0.04245703 0.02058580 -0.06752054
v -0.04060895 0.01828272 -0.06371033
v -0.04060895 0.02008116 -0.06512903
v -0.04060895 0.00138242 -0.05483335
v -0.04926688 0.00746927 -0.06769484
v -0.04933699 0.00610487 -0.06759756
v -0.04942328 0.00378102 -0.06747191
v -0.05038328 0.00378102 -0.06890276
v -0.05048036 0.00145510 -0.06890276
v -0.05050013 -0.00062577 -0.06890276
v -0.04948441 -0.00062577 -0.06737462
v -0.05851088 -0.00062577 -0.09109926
v -0.05848930 -0.00062577 -0.09094524
v -0.05827717 0.00145510 -0.08981839
v -0.05816391 0.00378102 -0.08981839
v -0.05846953 0.00655759 -0.09387991
v -0.05834728 0.00591173 -0.09234771
v -0.05810818 0.00842871 -0.09214099
v -0.05800571 0.00610487 -0.08981839
v -0.05838144 0.00831034 -0.09458115
v -0.05832930 0.00961659 -0.09596337
v -0.05843357 0.00873191 -0.09596337
v -0.05851267 0.00805282 -0.09596337
v -0.05855941 0.00760010 -0.09596337
v -0.05685875 0.01772201 -0.09596337
v -0.05672032 0.01772201 -0.09446765
v -0.05597965 0.02043212 -0.09446765
v -0.05622774 0.01897427 -0.09310976
v -0.05592932 0.02058580 -0.09446765
v -0.04321568 0.02058580 -0.06840014
v -0.04433567 0.01852362 -0.06803127
v -0.04278601 0.01964297 -0.06715573
v -0.04209029 0.01863576 -0.06560328
v -0.04122198 0.01791722 -0.06411568
v -0.04060895 0.01740842 -0.06306989
v -0.04060895 0.00140526 -0.05483741
v -0.04912486 0.00901850 -0.06787724
v -0.04989609 0.00831657 -0.06875278
v -0.05119766 0.00842871 -0.07059304
v -0.05024305 0.00610487 -0.06890276
v -0.05130013 0.00610487 -0.07045927
v -0.05135226 0.00378102 -0.07038225
v -0.05139720 0.00145510 -0.07032146
v -0.05140799 -0.00062577 -0.07030524
v -0.05832571 -0.00062577 -0.08981839
v -0.05828436 -0.00062577 -0.08957518
v -0.05788167 0.00145510 -0.08749578
v -0.05777560 0.00378102 -0.08749578
v -0.05762459 0.00610487 -0.08749578
v -0.05779717 0.00842871 -0.08981839
v -0.05785291 0.01075048 -0.09214099
v -0.05808481 0.01075048 -0.09446765
v -0.05818908 0.01075048 -0.09596337
v -0.05739268 0.01539817 -0.09596337
v -0.05727403 0.01539817 -0.09446765
v -0.05701156 0.01539817 -0.09214099
v -0.05643449 0.01778639 -0.09225854
v -0.05612527 0.01860461 -0.09156136
v -0.05583584 0.01986725 -0.09225854
v -0.05558056 0.02058580 -0.09222611
v -0.04392578 0.02058580 -0.06923919
v -0.04362017 0.02033452 -0.06866766
v -0.04485881 0.01697439 -0.06743137
v -0.04499185 0.01947476 -0.06957968
v -0.04570016 0.01765555 -0.06895951
v -0.04260984 0.01708654 -0.06503174
v -0.04060895 0.01700139 -0.06277400
v -0.04060895 0.00378102 -0.05568051
v -0.04694959 0.00971627 -0.06536818
v -0.04890913 0.01075048 -0.06813261
v -0.04981879 0.01075048 -0.06929188
v -0.05098193 0.01075048 -0.07090919
v -0.05174956 0.01075048 -0.07207253
v -0.05194372 0.00842871 -0.07175231
v -0.05202102 0.00610487 -0.07162260
v -0.05207316 0.00378102 -0.07154559
v -0.05209833 0.00145510 -0.07148478
v -0.05210013 -0.00062577 -0.07146857
v -0.05792481 -0.00062577 -0.08749578
v -0.05787448 -0.00062577 -0.08725257
v -0.05739987 0.00145510 -0.08516911
v -0.05730459 0.00378102 -0.08516911
v -0.05741425 0.00842871 -0.08749578
v -0.05714998 0.00610487 -0.08516911
v -0.05752212 0.01075048 -0.08981839
v -0.05748796 0.01307432 -0.09214099
v -0.05772167 0.01307432 -0.09446765
v -0.05783133 0.01307432 -0.09596337
v -0.05714639 0.01307432 -0.08981839
v -0.05656931 0.01559338 -0.08963193
v -0.05633201 0.01705538 -0.09028453
v -0.05599404 0.01778639 -0.08963193
v -0.05531269 0.02004793 -0.08981839
v -0.05510415 0.02058580 -0.08981027
v -0.04460713 0.02058580 -0.07004582
v -0.04705206 0.01678956 -0.06988368
v -0.04653072 0.01539817 -0.06818935
v -0.04690465 0.01423313 -0.06774348
v -0.04415949 0.01590073 -0.06588297
v -0.04654150 0.01833879 -0.07052817
v -0.04190332 0.01600872 -0.06348334
v -0.04060895 0.01552484 -0.06173632
v -0.04060895 0.00583074 -0.05652768
v -0.04666375 0.01126343 -0.06568434
v -0.04760397 0.01059472 -0.06650719
v -0.04952935 0.01245338 -0.06967696
v -0.05158957 0.01199028 -0.07233195
v -0.05254776 0.01075048 -0.07355203
v -0.05291270 0.00842871 -0.07355203
v -0.05307630 0.00610487 -0.07355203
v -0.05318057 0.00378102 -0.07355203
v -0.05324349 0.00145510 -0.07355203
v -0.05320574 -0.00062577 -0.07346690
v -0.05742864 -0.00062577 -0.08516911
v -0.05683538 -0.00062577 -0.08284651
v -0.05680482 0.00145510 -0.08284651
v -0.05671673 0.00378102 -0.08284651
v -0.05710325 0.01075048 -0.08749578
v -0.05692527 0.00842871 -0.08516911
v -0.05650639 0.00617963 -0.08266005
v -0.05642729 0.00842871 -0.08319916
v -0.05669875 0.01307432 -0.08749578
v -0.05633561 0.01480215 -0.08749578
v -0.05618640 0.01649882 -0.08873612
v -0.05553202 0.01772201 -0.08749578
v -0.05472123 0.02004793 -0.08749578
v -0.05450550 0.02058580 -0.08749578
v -0.04511589 0.02058580 -0.07068221
v -0.04580443 0.02013307 -0.07115240
v -0.04909250 0.01400261 -0.07025255
v -0.04749251 0.01539817 -0.06935269
v -0.04714554 0.01924216 -0.07207658
v -0.04757521 0.01762648 -0.07127400
v -0.04874374 0.01558715 -0.07110781
v -0.04735768 0.01268390 -0.06723680
v -0.04633836 0.01330484 -0.06650719
v -0.04465567 0.01435150 -0.06533575
v -0.04822419 0.01334429 -0.06870820
v -0.04240130 0.01445949 -0.06294018
v -0.04060895 0.01494544 -0.06134314
v -0.04060895 0.00652021 -0.05683979
v -0.04060895 0.00842871 -0.05771128
v -0.04060895 0.01049504 -0.05870841
v -0.04438961 0.01143579 -0.06330094
v -0.05036350 0.01299748 -0.07129427
v -0.05119945 0.01353951 -0.07297644
v -0.05165608 0.01444911 -0.07452890
v -0.05191136 0.01288949 -0.07367363
v -0.05311585 0.01286873 -0.07608136
v -0.05389247 0.01195705 -0.07699338
v -0.05351315 0.01075048 -0.07556657
v -0.05368214 0.00842871 -0.07519366
v -0.05377023 0.00610487 -0.07498288
v -0.05382236 0.00378102 -0.07484506
v -0.05385832 0.00145510 -0.07475589
v -0.05387270 -0.00024573 -0.07472346
v -0.05387450 -0.00062577 -0.07471941
v -0.05336214 -0.00062577 -0.07375064
v -0.05635538 -0.00062577 -0.08123730
v -0.05633561 0.00145510 -0.08129405
v -0.05629426 0.00378102 -0.08141565
v -0.05624572 0.00545486 -0.08155347
v -0.05653336 0.01089377 -0.08499482
v -0.05633201 0.01307432 -0.08579334
v -0.05629785 0.01021468 -0.08362882
v -0.05617920 0.00700408 -0.08176019
v -0.05610730 0.00842871 -0.08203988
v -0.05621156 0.01427882 -0.08629191
v -0.05605156 0.01596511 -0.08749578
v -0.05571539 0.01519257 -0.08537990
v -0.05489202 0.01772201 -0.08516911
v -0.05413517 0.01993163 -0.08537585
v -0.05401292 0.02058580 -0.08582982
v -0.05434551 0.02058580 -0.08694857
v -0.04636353 0.02058580 -0.07226304
v -0.04668532 0.02058580 -0.07267243
v -0.04918598 0.01648844 -0.07245355
v -0.04965160 0.01493921 -0.07180095
v -0.04764891 0.02058580 -0.07396547
v -0.04795273 0.01985480 -0.07372227
v -0.04879408 0.01772201 -0.07299671
v -0.04211546 0.01161024 -0.06092158
v -0.04503679 0.01307432 -0.06493041
v -0.04280220 0.01307432 -0.06251457
v -0.04060895 0.01302240 -0.06011900
v -0.04060895 0.01307432 -0.06015143
v -0.04060895 0.01410437 -0.06079593
v -0.04060895 0.01126758 -0.05910565
v -0.05045339 0.01546877 -0.07349122
v -0.05125698 0.01599834 -0.07521798
v -0.05170282 0.01686848 -0.07676233
v -0.05200125 0.01529225 -0.07594354
v -0.05318776 0.01526318 -0.07834317
v -0.05359764 0.01350628 -0.07766624
v -0.05400034 0.01075048 -0.07672991
v -0.05393742 0.01439719 -0.07921465
v -0.05409022 0.01286873 -0.07834317
v -0.05477876 0.01307432 -0.08051985
v -0.05529831 0.01075048 -0.08051985
v -0.05452708 0.01075048 -0.07819724
v -0.05414596 0.00842871 -0.07635293
v -0.05423045 0.00610487 -0.07614216
v -0.05430596 0.00378102 -0.07600029
v -0.05435270 0.00145510 -0.07591517
v -0.05428079 -0.00062577 -0.07568412
v -0.05408483 -0.00062577 -0.07521798
v -0.05587898 -0.00062577 -0.07987536
v -0.05593291 0.00145510 -0.08013478
v -0.05588977 0.00378102 -0.08025233
v -0.05515809 0.00378102 -0.07819724
v -0.05500528 0.00610487 -0.07819724
v -0.05482730 0.00842871 -0.07819724
v -0.05617741 0.01176391 -0.08410307
v -0.05597246 0.01089377 -0.08285056
v -0.05562550 0.00842871 -0.08051985
v -0.05603538 0.01307432 -0.08463001
v -0.05551943 0.01307432 -0.08284651
v -0.05488662 0.01539817 -0.08284651
v -0.05418011 0.01761194 -0.08295596
v -0.05395719 0.01908018 -0.08380312
v -0.05365877 0.02058580 -0.08477594
v -0.04925070 0.01891820 -0.07468698
v -0.04960486 0.01772201 -0.07416004
v -0.04860171 0.02058580 -0.07527878
v -0.04875991 0.02046743 -0.07538822
v -0.05077519 0.01767424 -0.07594354
v -0.05130732 0.01841771 -0.07746763
v -0.05172799 0.01923386 -0.07902009
v -0.05206596 0.01767424 -0.07822561
v -0.05322911 0.01761194 -0.08063740
v -0.05363360 0.01594642 -0.07993615
v -0.05395539 0.01676464 -0.08148456
v -0.05416573 0.01526318 -0.08063740
v -0.05524617 0.00145510 -0.07819724
v -0.05518146 -0.00062577 -0.07795809
v -0.05527494 -0.00062577 -0.07819724
v -0.05364259 0.01831387 -0.08225471
v -0.05322551 0.01993163 -0.08295596
v -0.05360124 0.02058580 -0.08462596
v -0.05363540 0.02058580 -0.08471108
v -0.04944306 0.02058580 -0.07650291
v -0.04959767 0.01983403 -0.07604893
v -0.04870778 0.02058580 -0.07542875
v -0.05016216 0.02058580 -0.07766219
v -0.05083991 0.02002301 -0.07822561
v -0.05119586 0.02058580 -0.07938083
v -0.05137204 0.02058580 -0.07968890
v -0.05151945 0.02058580 -0.07998075
v -0.05195091 0.02058580 -0.08084412
v -0.05208574 0.02002301 -0.08054417
v -0.05289653 0.02058580 -0.08296001
v -0.05260349 0.02058580 -0.08228308
f 1 2 7
f 1 7 13
f 1 13 26
f 1 26 46
f 1 46 45
f 1 45 79
f 1 79 113
f 1 113 148
f 1 148 193
f 1 193 192
f 1 192 241
f 1 241 240
f 1 240 270
f 1 270 271
f 1 271 242
f 1 242 194
f 1 194 150
f 1 150 149
f 1 149 115
f 1 115 114
f 1 114 81
f 1 81 80
f 1 80 48
f 1 48 47
f 1 47 27
f 1 27 14
f 1 14 8
f 1 8 3
f 1 3 4
f 1 4 10
f 1 10 19
f 1 19 32
f 1 32 59
f 1 59 58
f 1 58 57
f 1 57 56
f 1 56 88
f 1 88 123
f 1 123 89
f 1 89 60
f 1 60 33
f 1 33 20
f 1 20 11
f 1 11 5
f 1 5 2
f 2 5 6
f 2 6 7
f 3 8 9
f 3 9 4
f 4 9 10
f 5 11 21
f 5 21 35
f 5 35 64
f 5 64 95
f 5 95 129
f 5 129 162
f 5 162 209
f 5 209 208
f 5 208 256
f 5 256 275
f 5 275 274
f 5 274 286
f 5 286 287
f 5 287 284
f 5 284 283
f 5 283 282
f 5 282 281
f 5 281 279
f 5 279 276
f 5 276 278
f 5 278 259
f 5 259 214
f 5 214 211
f 5 211 210
f 5 210 163
f 5 163 130
f 5 130 96
f 5 96 65
f 5 65 36
f 5 36 22
f 5 22 12
f 5 12 6
f 6 12 23
f 6 23 38
f 6 38 37
f 6 37 70
f 6 70 102
f 6 102 137
f 6 137 175
f 6 175 222
f 6 222 221
f 6 221 220
f 6 220 223
f 6 223 178
f 6 178 177
f 6 177 176
f 6 176 138
f 6 138 103
f 6 103 71
f 6 71 39
f 6 39 24
f 6 24 13
f 6 13 7
f 8 14 15
f 8 15 9
f 9 16 10
f 9 15 17
f 9 17 16
f 10 16 18
f 10 18 19
f 11 20 21
f 12 22 23
f 13 24 25
f 13 25 26
f 14 27 15
f 15 27 28
f 15 28 30
f 15 30 17
f 16 17 29
f 16 29 18
f 17 30 29
f 18 31 19
f 18 29 31
f 19 31 32
f 20 33 34
f 20 34 21
f 21 34 35
f 22 36 37
f 22 37 38
f 22 38 23
f 24 39 40
f 24 40 41
f 24 41 42
f 24 42 25
f 25 42 43
f 25 43 44
f 25 44 45
f 25 45 46
f 25 46 26
f 27 47 28
f 28 47 48
f 28 48 49
f 28 49 50
f 28 50 30
f 29 51 31
f 29 30 52
f 29 52 53
f 29 53 51
f 30 50 54
f 30 54 52
f 31 51 55
f 31 55 56
f 31 56 57
f 31 57 58
f 31 58 59
f 31 59 32
f 33 60 61
f 33 61 34
f 34 62 35
f 34 61 63
f 34 63 62
f 35 62 64
f 36 65 66
f 36 66 67
f 36 67 68
f 36 68 37
f 37 68 69
f 37 69 70
f 39 71 40
f 40 71 72
f 40 72 73
f 40 73 74
f 40 74 41
f 41 74 75
f 41 75 42
f 42 75 76
f 42 76 43
f 43 76 77
f 43 77 44
f 44 77 78
f 44 78 79
f 44 79 45
f 48 80 49
f 49 80 81
f 49 81 82
f 49 82 83
f 49 83 50
f 50 83 84
f 50 84 54
f 51 53 55
f 52 54 53
f 53 54 85
f 53 85 86
f 53 86 55
f 54 84 85
f 55 86 87
f 55 87 56
f 56 87 88
f 60 89 90
f 60 90 61
f 61 90 91
f 61 91 92
f 61 92 63
f 62 63 93
f 62 93 94
f 62 94 64
f 63 92 93
f 64 94 95
f 65 96 97
f 65 97 66
f 66 98 68
f 66 68 67
f 66 97 99
f 66 99 100
f 66 100 98
f 68 101 69
f 68 98 101
f 69 101 70
f 70 101 102
f 71 103 104
f 71 104 105
f 71 105 72
f 72 105 106
f 72 106 73
f 73 106 107
f 73 107 74
f 74 107 108
f 74 108 109
f 74 109 76
f 74 76 75
f 76 109 110
f 76 110 111
f 76 111 77
f 77 111 78
f 78 111 112
f 78 112 79
f 79 112 113
f 81 114 82
f 82 114 115
f 82 115 116
f 82 116 117
f 82 117 83
f 83 117 84
f 84 118 85
f 84 117 119
f 84 119 118
f 85 120 86
f 85 118 120
f 86 120 121
f 86 121 122
f 86 122 87
f 87 122 123
f 87 123 88
f 89 123 122
f 89 122 90
f 90 122 121
f 90 121 91
f 91 121 124
f 91 124 125
f 91 125 126
f 91 126 92
f 92 126 93
f 93 126 127
f 93 127 128
f 93 128 94
f 94 128 95
f 95 128 129
f 96 130 97
f 97 130 99
f 98 100 131
f 98 131 132
f 98 132 133
f 98 133 134
f 98 134 101
f 99 130 135
f 99 135 131
f 99 131 100
f 101 134 136
f 101 136 102
f 102 136 137
f 103 138 104
f 104 138 139
f 104 139 140
f 104 140 105
f 105 141 106
f 105 140 139
f 105 139 141
f 106 141 107
f 107 141 142
f 107 142 108
f 108 142 143
f 108 143 109
f 109 143 144
f 109 144 145
f 109 145 110
f 110 145 146
f 110 146 111
f 111 146 147
f 111 147 112
f 112 147 113
f 113 147 148
f 115 149 116
f 116 149 150
f 116 150 151
f 116 151 152
f 116 152 117
f 117 152 119
f 118 153 120
f 118 119 154
f 118 154 153
f 119 152 155
f 119 155 156
f 119 156 154
f 120 124 121
f 120 153 124
f 124 153 157
f 124 157 158
f 124 158 125
f 125 158 159
f 125 159 126
f 126 159 127
f 127 159 160
f 127 160 128
f 128 160 161
f 128 161 129
f 129 161 162
f 130 163 164
f 130 164 135
f 131 165 166
f 131 166 133
f 131 133 132
f 131 135 167
f 131 167 168
f 131 168 169
f 131 169 165
f 133 170 171
f 133 171 172
f 133 172 134
f 133 166 165
f 133 165 173
f 133 173 170
f 134 172 136
f 135 164 167
f 136 172 174
f 136 174 137
f 137 174 175
f 138 176 139
f 139 170 141
f 139 176 177
f 139 177 178
f 139 178 179
f 139 179 170
f 141 170 173
f 141 173 165
f 141 165 180
f 141 180 142
f 142 180 181
f 142 181 182
f 142 182 183
f 142 183 184
f 142 184 185
f 142 185 143
f 143 185 186
f 143 186 144
f 144 186 187
f 144 187 188
f 144 188 145
f 145 188 189
f 145 189 146
f 146 189 190
f 146 190 147
f 147 190 191
f 147 191 192
f 147 192 193
f 147 193 148
f 150 194 151
f 151 195 196
f 151 196 152
f 151 194 195
f 152 196 197
f 152 197 155
f 153 154 198
f 153 198 199
f 153 199 157
f 154 156 200
f 154 200 198
f 155 197 201
f 155 201 156
f 156 201 202
f 156 202 200
f 157 199 203
f 157 203 158
f 158 203 159
f 159 203 204
f 159 204 160
f 160 204 205
f 160 205 206
f 160 206 161
f 161 206 207
f 161 207 208
f 161 208 209
f 161 209 162
f 163 210 164
f 164 210 211
f 164 211 167
f 165 169 212
f 165 212 213
f 165 213 180
f 167 211 214
f 167 214 215
f 167 215 216
f 167 216 212
f 167 212 168
f 168 212 169
f 170 179 217
f 170 217 218
f 170 218 171
f 171 218 172
f 172 218 174
f 174 219 220
f 174 220 221
f 174 221 222
f 174 222 175
f 174 218 219
f 178 223 179
f 179 223 217
f 180 213 181
f 181 224 225
f 181 225 182
f 181 213 224
f 182 225 226
f 182 226 227
f 182 227 183
f 183 227 184
f 184 228 229
f 184 229 185
f 184 227 228
f 185 230 186
f 185 229 231
f 185 231 232
f 185 232 233
f 185 233 234
f 185 234 235
f 185 235 230
f 186 230 187
f 187 230 236
f 187 236 188
f 188 236 237
f 188 237 238
f 188 238 189
f 189 238 239
f 189 239 190
f 190 239 191
f 191 239 240
f 191 240 241
f 191 241 192
f 194 242 243
f 194 243 195
f 195 243 196
f 196 243 244
f 196 244 197
f 197 244 245
f 197 245 246
f 197 246 247
f 197 247 201
f 198 200 248
f 198 248 199
f 199 248 203
f 200 202 249
f 200 249 248
f 201 247 250
f 201 250 202
f 202 250 234
f 202 234 249
f 203 248 251
f 203 251 252
f 203 252 205
f 203 205 204
f 205 252 253
f 205 253 206
f 206 253 254
f 206 254 255
f 206 255 207
f 207 255 256
f 207 256 208
f 212 216 257
f 212 257 258
f 212 258 213
f 213 258 224
f 214 259 260
f 214 260 215
f 215 260 257
f 215 257 216
f 217 220 219
f 217 219 218
f 217 223 220
f 224 258 261
f 224 261 225
f 225 261 262
f 225 262 226
f 226 262 263
f 226 263 264
f 226 264 227
f 227 264 228
f 228 264 265
f 228 265 266
f 228 266 229
f 229 266 231
f 230 235 247
f 230 247 236
f 231 266 267
f 231 267 268
f 231 268 253
f 231 253 233
f 231 233 232
f 233 253 252
f 233 252 234
f 234 250 235
f 234 252 248
f 234 248 249
f 235 250 247
f 236 247 246
f 236 246 237
f 237 246 245
f 237 245 238
f 238 245 269
f 238 269 239
f 239 269 270
f 239 270 240
f 242 271 269
f 242 269 243
f 243 269 244
f 244 269 245
f 248 252 251
f 253 268 267
f 253 267 254
f 254 267 255
f 255 267 272
f 255 272 273
f 255 273 274
f 255 274 275
f 255 275 256
f 257 260 276
f 257 276 277
f 257 277 258
f 258 277 261
f 259 278 260
f 260 278 276
f 261 277 262
f 262 277 276
f 262 276 279
f 262 279 280
f 262 280 281
f 262 281 282
f 262 282 263
f 263 282 283
f 263 283 284
f 263 284 285
f 263 285 264
f 264 285 265
f 265 285 273
f 265 273 272
f 265 272 266
f 266 272 267
f 269 271 270
f 273 286 274
f 273 285 284
f 273 284 287
f 273 287 286
f 279 281 280

