# https://github.com/mikedh/trimesh
v -0.01065988 0.02058580 -0.04101686
v -0.01072144 0.02058580 -0.04119489
v -0.02127515 0.02058580 -0.04101686
v -0.02738164 -0.00062577 -0.04101686
v -0.02804711 -0.00062577 -0.04344549
v -0.02808229 -0.00062577 -0.04357314
v -0.02863342 -0.00062577 -0.04553150
v -0.01074489 0.02058580 -0.04125872
v -0.02952170 -0.00062577 -0.04798700
v -0.02615624 0.01670027 -0.04101686
v -0.04060895 0.02058580 -0.06553829
v -0.03383406 -0.00062577 -0.04101686
v -0.01164782 0.02058580 -0.04333128
v -0.03032788 -0.00062577 -0.04981435
v -0.02731714 0.01566398 -0.04101686
v -0.04060895 0.02058580 -0.07533007
v -0.04060895 0.02008116 -0.06512512
v -0.03076469 0.01105575 -0.04101686
v -0.03005231 0.01236616 -0.04101686
v -0.02972984 0.01287703 -0.04101686
v -0.02961551 0.01303902 -0.04101686
v -0.02855427 0.01449479 -0.04101686
v -0.03352331 0.00145510 -0.04101686
v -0.04060895 0.00140526 -0.05483620
v -0.04060895 -0.00027272 -0.05458427
v -0.04060895 -0.00040771 -0.05456411
v -0.04060895 -0.00062577 -0.05455404
v -0.01292013 0.02058580 -0.04588756
v -0.03090247 -0.00062577 -0.05095308
v -0.04060895 -0.00062577 -0.06477578
v -0.02481650 0.02058580 -0.06099679
v -0.04060895 0.01828272 -0.06370423
v -0.03091713 0.01068195 -0.04101686
v -0.04060895 0.01740842 -0.06306600
v -0.04060895 0.01700139 -0.06277040
v -0.03308650 0.00347782 -0.04101686
v -0.04060895 0.00583074 -0.05652919
v -0.04060895 0.00378102 -0.05567934
v -0.03096110 -0.00062577 -0.05106393
v -0.01407224 0.02058580 -0.04799035
v -0.02313377 0.02058580 -0.05946168
v -0.02266765 0.02058580 -0.05901492
v -0.02074453 0.02058580 -0.05715062
v -0.02033118 0.02058580 -0.05670386
v -0.01877157 0.02058580 -0.05496385
v -0.01763119 0.02058580 -0.05350264
v -0.04050341 -0.00062577 -0.06463806
v -0.03172918 0.00841833 -0.04101686
v -0.04060895 0.01552484 -0.06173244
v -0.04060895 0.01494544 -0.06134278
v -0.04060895 0.01410437 -0.06079189
v -0.03245035 0.00590135 -0.04101686
v -0.04060895 0.01049504 -0.05870252
v -0.04060895 0.00842871 -0.05771159
v -0.04060895 0.00652021 -0.05683823
v -0.03183472 -0.00062577 -0.05261584
v -0.03274351 -0.00062577 -0.05411064
v -0.01547647 0.02058580 -0.05026447
v -0.01683087 0.02058580 -0.05232023
v -0.03355849 -0.00062577 -0.05527288
v -0.03471939 -0.00062577 -0.05689869
v -0.03556662 -0.00062577 -0.05806094
v -0.04060895 0.01307432 -0.06014694
v -0.04060895 0.01302240 -0.06011670
v -0.04060895 0.01126758 -0.05909890
v -0.01548527 0.02058580 -0.05027790
f 1 2 8
f 1 8 13
f 1 13 28
f 1 28 40
f 1 40 58
f 1 58 66
f 1 66 59
f 1 59 46
f 1 46 45
f 1 45 44
f 1 44 43
f 1 43 42
f 1 42 41
f 1 41 31
f 1 31 16
f 1 16 11
f 1 11 3
f 1 3 10
f 1 10 15
f 1 15 22
f 1 22 21
f 1 21 20
f 1 20 19
f 1 19 18
f 1 18 33
f 1 33 48
f 1 48 52
f 1 52 36
f 1 36 23
f 1 23 12
f 1 12 4
f 1 4 5
f 1 5 6
f 1 6 7
f 1 7 2
f 2 7 9
f 2 9 8
f 3 11 10
f 4 12 27
f 4 27 30
f 4 30 47
f 4 47 62
f 4 62 61
f 4 61 60
f 4 60 57
f 4 57 56
f 4 56 39
f 4 39 29
f 4 29 14
f 4 14 9
f 4 9 7
f 4 7 6
f 4 6 5
f 8 9 13
f 9 14 13
f 10 11 15
f 11 16 30
f 11 30 27
f 11 27 26
f 11 26 25
f 11 25 24
f 11 24 38
f 11 38 37
f 11 37 55
f 11 55 54
f 11 54 53
f 11 53 65
f 11 65 64
f 11 64 63
f 11 63 51
f 11 51 50
f 11 50 49
f 11 49 35
f 11 35 34
f 11 34 32
f 11 32 17
f 11 17 18
f 11 18 19
f 11 19 20
f 11 20 21
f 11 21 22
f 11 22 15
f 12 23 24
f 12 24 25
f 12 25 26
f 12 26 27
f 13 14 28
f 14 29 28
f 16 31 30
f 17 32 18
f 18 32 34
f 18 34 35
f 18 35 33
f 23 36 37
f 23 37 38
f 23 38 24
f 28 29 39
f 28 39 40
f 30 31 41
f 30 41 42
f 30 42 43
f 30 43 44
f 30 44 45
f 30 45 46
f 30 46 47
f 33 35 49
f 33 49 50
f 33 50 51
f 33 51 48
f 36 52 53
f 36 53 54
f 36 54 55
f 36 55 37
f 39 56 40
f 40 56 57
f 40 57 58
f 46 59 57
f 46 57 60
f 46 60 61
f 46 61 62
f 46 62 47
f 48 51 63
f 48 63 64
f 48 64 65
f 48 65 52
f 52 65 53
f 57 59 66
f 57 66 58

