# https://github.com/mikedh/trimesh
v -0.05912657 -0.00087041 -0.10144076
v -0.05911930 -0.00319367 -0.10144076
v -0.05912657 -0.00087041 -0.10143140
v -0.05912293 -0.00062784 -0.10144076
v -0.05885209 -0.00087041 -0.10376543
v -0.05911930 -0.00319367 -0.10143140
v -0.05883573 -0.00319367 -0.10376543
v -0.05909022 -0.00551961 -0.10144076
v -0.05912293 -0.00062784 -0.10143140
v -0.05887571 -0.00062784 -0.10352414
v -0.05884118 -0.00062784 -0.10378651
v -0.05858851 -0.00062784 -0.10494143
v -0.05857033 -0.00087041 -0.10504685
v -0.05856488 -0.00319367 -0.10503669
v -0.05909022 -0.00551961 -0.10143140
v -0.05874302 -0.00561125 -0.10397783
v -0.05873756 -0.00784287 -0.10360379
v -0.05899205 -0.00784287 -0.10144076
v -0.05294978 -0.00062784 -0.10143140
v -0.05856669 -0.00062784 -0.10503982
v -0.05818133 -0.00062784 -0.10604089
v -0.05812134 -0.00087041 -0.10620879
v -0.05813407 -0.00319367 -0.10619785
v -0.05819769 -0.00561125 -0.10588785
v -0.05854307 -0.00489702 -0.10497969
v -0.05899205 -0.00784287 -0.10143140
v -0.05851762 -0.00644676 -0.10489457
v -0.05849217 -0.00784287 -0.10476573
v -0.05841582 -0.01016612 -0.10437842
v -0.05864486 -0.01016612 -0.10321648
v -0.05857033 -0.01178863 -0.10282917
v -0.05881209 -0.01016612 -0.10144076
v -0.05267893 -0.00062784 -0.10144076
v -0.05268075 -0.00063054 -0.10143140
v -0.05812498 -0.00062784 -0.10617755
v -0.05706340 -0.00087041 -0.10841319
v -0.05709066 -0.00319367 -0.10841319
v -0.05705431 -0.00062784 -0.10841319
v -0.05706703 -0.00551961 -0.10841319
v -0.05804136 -0.00784287 -0.10608853
v -0.05881209 -0.01016612 -0.10143140
v -0.05788140 -0.01016612 -0.10608853
v -0.05765963 -0.01249207 -0.10608853
v -0.05739605 -0.01481263 -0.10608853
v -0.05803227 -0.01481263 -0.10376543
v -0.05832493 -0.01253520 -0.10366861
v -0.05861941 -0.01217134 -0.10144076
v -0.05772325 -0.01713589 -0.10376543
v -0.05829767 -0.01481263 -0.10144076
v -0.05849217 -0.01333297 -0.10144076
v -0.04453712 -0.00062784 -0.10940802
v -0.04817085 -0.02816191 -0.10143140
v -0.05648353 -0.00081381 -0.10940802
v -0.05648535 -0.00087041 -0.10940802
v -0.05651079 -0.00319367 -0.10940802
v -0.05649625 -0.00496171 -0.10940802
v -0.05649080 -0.00551961 -0.10940802
v -0.05647626 -0.00062784 -0.10940802
v -0.05643081 -0.00736582 -0.10940802
v -0.05697796 -0.00784287 -0.10841319
v -0.05861941 -0.01216326 -0.10143140
v -0.05672529 -0.01249207 -0.10823125
v -0.05659805 -0.01481263 -0.10802042
v -0.05645262 -0.01713589 -0.10775336
v -0.05631811 -0.01905756 -0.10748630
v -0.05710521 -0.01713589 -0.10608853
v -0.05849217 -0.01333297 -0.10143140
v -0.05796865 -0.01713589 -0.10144076
v -0.05736697 -0.01946184 -0.10376543
v -0.05829767 -0.01481263 -0.10143140
v -0.04055984 -0.02816191 -0.10940802
v -0.05401499 -0.02816191 -0.10143140
v -0.05641082 -0.00784287 -0.10940802
v -0.05634720 -0.00905301 -0.10940802
v -0.05671802 -0.01010683 -0.10860997
v -0.05623086 -0.01075368 -0.10940802
v -0.05609271 -0.01249207 -0.10939319
v -0.05597273 -0.01481263 -0.10918236
v -0.05582913 -0.01713589 -0.10891530
v -0.05576369 -0.01968554 -0.10832183
v -0.05619996 -0.02060729 -0.10724422
v -0.05665258 -0.01968554 -0.10631733
v -0.05796865 -0.01713589 -0.10143140
v -0.05759782 -0.01946184 -0.10144076
v -0.05646354 -0.02178509 -0.10573323
v -0.05629993 -0.02333752 -0.10523582
v -0.05693615 -0.02178509 -0.10376543
v -0.05295705 -0.02816191 -0.10940802
v -0.05535832 -0.02816191 -0.10144076
v -0.05589275 -0.02654480 -0.10143140
v -0.05631993 -0.00945190 -0.10940802
v -0.05609998 -0.01229802 -0.10940802
v -0.05607817 -0.01251363 -0.10940802
v -0.05576187 -0.01518726 -0.10940802
v -0.05537832 -0.01792288 -0.10940802
v -0.05487662 -0.02095767 -0.10940802
v -0.05533833 -0.02178509 -0.10841319
v -0.05484571 -0.02410835 -0.10841319
v -0.05607998 -0.02178509 -0.10689595
v -0.05759601 -0.01946184 -0.10143140
v -0.05713247 -0.02178509 -0.10144076
v -0.05584731 -0.02411104 -0.10604089
v -0.05525653 -0.02643429 -0.10608853
v -0.05610361 -0.02488726 -0.10432376
v -0.05641991 -0.02411104 -0.10363581
v -0.05622904 -0.02536700 -0.10277450
v -0.05345694 -0.02816191 -0.10872477
v -0.05365144 -0.02689248 -0.10922921
v -0.05336786 -0.02723477 -0.10940802
v -0.05526925 -0.02816191 -0.10313761
v -0.05589275 -0.02654749 -0.10144076
v -0.05623449 -0.02537778 -0.10143140
v -0.05623449 -0.02538317 -0.10144076
v -0.05472938 -0.02178509 -0.10940802
v -0.05441491 -0.02345341 -0.10940802
v -0.05427675 -0.02410835 -0.10940802
v -0.05405317 -0.02514060 -0.10940802
v -0.05396591 -0.02549367 -0.10940802
v -0.05429856 -0.02624293 -0.10843819
v -0.05713066 -0.02178509 -0.10143140
v -0.05657078 -0.02410835 -0.10144076
v -0.05656896 -0.02411104 -0.10143140
v -0.05411860 -0.02816191 -0.10769166
v -0.05413496 -0.02816191 -0.10765263
v -0.05467666 -0.02816191 -0.10616975
v -0.05523108 -0.02816191 -0.10373420
v -0.05584549 -0.02625911 -0.10363581
v -0.05376959 -0.02615130 -0.10940802
f 1 2 6
f 1 6 3
f 1 3 9
f 1 9 4
f 1 4 5
f 1 5 2
f 2 5 7
f 2 7 8
f 2 8 15
f 2 15 6
f 3 6 15
f 3 15 26
f 3 26 41
f 3 41 61
f 3 61 67
f 3 67 70
f 3 70 83
f 3 83 100
f 3 100 120
f 3 120 122
f 3 122 112
f 3 112 90
f 3 90 72
f 3 72 52
f 3 52 34
f 3 34 19
f 3 19 9
f 4 9 19
f 4 19 33
f 4 33 51
f 4 51 58
f 4 58 38
f 4 38 35
f 4 35 21
f 4 21 20
f 4 20 12
f 4 12 11
f 4 11 10
f 4 10 5
f 5 10 11
f 5 11 12
f 5 12 13
f 5 13 14
f 5 14 7
f 7 14 16
f 7 16 17
f 7 17 8
f 8 17 18
f 8 18 26
f 8 26 15
f 12 20 13
f 13 20 21
f 13 21 22
f 13 22 23
f 13 23 14
f 14 23 24
f 14 24 25
f 14 25 16
f 16 25 27
f 16 27 28
f 16 28 17
f 17 28 29
f 17 29 30
f 17 30 18
f 18 30 31
f 18 31 32
f 18 32 41
f 18 41 26
f 19 34 33
f 21 35 22
f 22 36 37
f 22 37 23
f 22 35 38
f 22 38 36
f 23 37 39
f 23 39 40
f 23 40 24
f 24 40 27
f 24 27 25
f 27 40 28
f 28 40 42
f 28 42 29
f 29 42 43
f 29 43 44
f 29 44 45
f 29 45 46
f 29 46 31
f 29 31 30
f 31 47 32
f 31 46 45
f 31 45 48
f 31 48 49
f 31 49 50
f 31 50 47
f 32 47 41
f 33 34 51
f 34 52 51
f 36 53 54
f 36 54 37
f 36 38 53
f 37 54 55
f 37 55 56
f 37 56 57
f 37 57 39
f 38 58 53
f 39 57 59
f 39 59 60
f 39 60 40
f 40 60 42
f 41 47 61
f 42 62 63
f 42 63 43
f 42 60 62
f 43 63 64
f 43 64 44
f 44 64 65
f 44 65 66
f 44 66 45
f 45 66 48
f 47 50 67
f 47 67 61
f 48 68 49
f 48 66 69
f 48 69 68
f 49 68 83
f 49 83 70
f 49 70 67
f 49 67 50
f 51 71 88
f 51 88 109
f 51 109 128
f 51 128 118
f 51 118 117
f 51 117 116
f 51 116 115
f 51 115 114
f 51 114 96
f 51 96 95
f 51 95 94
f 51 94 93
f 51 93 92
f 51 92 76
f 51 76 91
f 51 91 74
f 51 74 73
f 51 73 59
f 51 59 57
f 51 57 56
f 51 56 55
f 51 55 54
f 51 54 53
f 51 53 58
f 51 52 71
f 52 72 89
f 52 89 110
f 52 110 126
f 52 126 125
f 52 125 124
f 52 124 123
f 52 123 107
f 52 107 88
f 52 88 71
f 59 73 60
f 60 73 74
f 60 74 75
f 60 75 62
f 62 75 76
f 62 76 77
f 62 77 78
f 62 78 63
f 63 78 79
f 63 79 64
f 64 79 65
f 65 79 80
f 65 80 81
f 65 81 66
f 66 81 82
f 66 82 69
f 68 69 84
f 68 84 83
f 69 82 85
f 69 85 86
f 69 86 87
f 69 87 84
f 72 90 89
f 74 91 75
f 75 91 76
f 76 92 77
f 77 92 93
f 77 93 94
f 77 94 78
f 78 94 95
f 78 95 79
f 79 95 96
f 79 96 80
f 80 96 97
f 80 97 81
f 81 97 98
f 81 98 99
f 81 99 85
f 81 85 82
f 83 84 100
f 84 87 101
f 84 101 120
f 84 120 100
f 85 99 86
f 86 99 102
f 86 102 103
f 86 103 104
f 86 104 105
f 86 105 87
f 87 105 106
f 87 106 101
f 88 107 108
f 88 108 109
f 89 90 111
f 89 111 106
f 89 106 110
f 90 112 113
f 90 113 111
f 96 114 97
f 97 114 115
f 97 115 116
f 97 116 98
f 98 116 117
f 98 117 118
f 98 118 119
f 98 119 99
f 99 119 103
f 99 103 102
f 101 106 121
f 101 121 122
f 101 122 120
f 103 119 123
f 103 123 124
f 103 124 125
f 103 125 126
f 103 126 127
f 103 127 104
f 104 127 106
f 104 106 105
f 106 127 126
f 106 126 110
f 106 111 113
f 106 113 121
f 107 123 108
f 108 119 118
f 108 118 128
f 108 128 109
f 108 123 119
f 112 122 113
f 113 122 121

