# https://github.com/mikedh/trimesh
v -0.00165590 0.04211667 0.05369947
v -0.00165590 0.03631836 0.05369947
v -0.00165590 0.04207314 0.05346290
v -0.00200763 0.04209708 0.05369947
v -0.03289863 0.02653697 0.05369947
v -0.03289863 0.01988328 0.03688033
v -0.00165590 0.03119695 0.03563551
v -0.00165590 0.04206661 0.05342910
v -0.00378768 0.04198390 0.05369947
v -0.03289863 0.03377398 0.05369947
v -0.03289863 0.01988328 0.02419556
v -0.01858784 0.01988328 0.01668158
v -0.00165590 0.02491327 0.01237822
v -0.00165590 0.02493068 0.01244582
v -0.00165590 0.02552706 0.01475521
v -0.00165590 0.02558582 0.01497488
v -0.00165590 0.04176842 0.05195335
v -0.00391002 0.04162912 0.05195335
v -0.00391002 0.04197520 0.05369947
v -0.03228999 0.03412440 0.05369947
v -0.03289863 0.03329732 0.05195335
v -0.03289863 0.02270190 0.02576707
v -0.01822694 0.01988328 -0.00383822
v -0.01745007 0.01988328 0.01503121
v -0.00165590 0.02436914 0.01005756
v -0.00165590 0.04127435 0.04962705
v -0.00391002 0.04114158 0.04962705
v -0.00623449 0.04145936 0.05195335
v -0.00626202 0.04180325 0.05369947
v -0.03173028 0.03444653 0.05369947
v -0.03289863 0.03291207 0.05055644
v -0.03289863 0.02329175 0.02613320
v -0.03289863 0.02430819 0.02684291
v -0.03289863 0.02547482 0.02802577
v -0.03274571 0.02559235 0.02791875
v -0.01820247 0.01991157 -0.00383822
v -0.00684008 0.01988328 -0.00383822
v -0.01660592 0.01988328 0.01373570
v -0.01587494 0.01988328 0.01256973
v -0.01570060 0.01988328 0.01228247
v -0.00165590 0.02396212 0.00813683
v -0.00165590 0.04075633 0.04736836
v -0.00391002 0.04060398 0.04730076
v -0.00623449 0.04043203 0.04730076
v -0.00623449 0.04096310 0.04962705
v -0.00855897 0.04125694 0.05195335
v -0.00798091 0.04165525 0.05369947
v -0.03053441 0.03510385 0.05369947
v -0.03263254 0.03264871 0.04910322
v -0.03289863 0.03279671 0.05014526
v -0.03289863 0.02574906 0.02844822
v -0.03107270 0.02621920 0.02638667
v -0.01455060 0.02365088 -0.00383822
v -0.01466071 0.02354422 -0.00383822
v -0.01590858 0.02233189 -0.00383822
v -0.01599728 0.02224483 -0.00383822
v -0.01620220 0.02203806 -0.00383822
v -0.01684755 0.02138074 -0.00383822
v -0.01804648 0.02009005 -0.00383822
v -0.00379992 0.02087361 -0.00383822
v -0.00684620 0.01988328 -0.00382696
v -0.00204127 0.02328957 0.00547257
v -0.00165590 0.02389247 0.00780450
v -0.00297106 0.02128715 -0.00309471
v -0.00342372 0.02143951 -0.00150067
v -0.00165590 0.02205329 -0.00150067
v -0.00165590 0.04017084 0.04497447
v -0.00282731 0.03980736 0.04379724
v -0.00372651 0.04001195 0.04485619
v -0.00437798 0.03975512 0.04400002
v -0.00623449 0.03997931 0.04544761
v -0.00855897 0.04021437 0.04730076
v -0.00855897 0.04074980 0.04962705
v -0.00855897 0.03987265 0.04587007
v -0.01088344 0.04101099 0.05195335
v -0.01088344 0.04135923 0.05369947
v -0.01030538 0.04142018 0.05369947
v -0.00855897 0.04160301 0.05369947
v -0.01088344 0.04051039 0.04962705
v -0.03066898 0.03284895 0.04607847
v -0.03099624 0.03302307 0.04730076
v -0.03017350 0.03528886 0.05369947
v -0.02369556 0.03052658 0.02517001
v -0.03289863 0.03252682 0.04923840
v -0.03215848 0.03238535 0.04730076
v -0.03057416 0.02814762 0.02998594
v -0.03095036 0.02838486 0.03153493
v -0.03289863 0.02619526 0.02929312
v -0.03190156 0.02668933 0.02870169
v -0.02813653 0.02806491 0.02551924
v -0.01453225 0.02366176 -0.00383822
v -0.02109582 0.03038293 0.02086665
v -0.00165590 0.02162234 -0.00383822
v -0.00165590 0.02335922 0.00514025
v -0.00165590 0.02203806 -0.00157953
v -0.00165590 0.03984436 0.04365643
v -0.00165590 0.02756212 -0.00383822
v -0.00623449 0.03968112 0.04428729
v -0.00978543 0.03980954 0.04611227
v -0.01069075 0.03998584 0.04726697
v -0.00855897 0.03957012 0.04470410
v -0.01320791 0.04072369 0.05195335
v -0.01262985 0.04114376 0.05369947
v -0.01278889 0.03990966 0.04801611
v -0.01342201 0.04014037 0.04940738
v -0.02845767 0.03058752 0.03424987
v -0.02932935 0.02986709 0.03342750
v -0.02970554 0.03552610 0.05369947
v -0.02247521 0.03084000 0.02426879
v -0.02168306 0.03068982 0.02241564
v -0.02323373 0.03024798 0.02362666
v -0.02858919 0.02834786 0.02706822
v -0.02905408 0.02860687 0.02870733
v -0.02966884 0.02892029 0.03087027
v -0.02943334 0.03566322 0.05369947
v -0.02708134 0.03680808 0.05369947
v -0.02610873 0.03726951 0.05369947
v -0.02575394 0.03737398 0.05348543
v -0.03289863 0.03096842 0.04409014
v -0.03175475 0.02762089 0.03087027
v -0.03253162 0.02788643 0.03335991
v -0.03021632 0.02791473 0.02870733
v -0.03289863 0.03047216 0.04247357
v -0.03289863 0.03072464 0.04329030
v -0.03289863 0.02681339 0.03097166
v -0.01320791 0.02417978 -0.00383822
v -0.01888146 0.03048304 0.01832069
v -0.00389167 0.02695704 -0.00383822
v -0.01433650 0.03979865 0.04848362
v -0.01342201 0.03962671 0.04726697
v -0.01133610 0.03972247 0.04646713
v -0.01553238 0.04033190 0.05195335
v -0.01495127 0.04078898 0.05369947
v -0.01320791 0.04107193 0.05369947
v -0.02026391 0.03098583 0.02168339
v -0.01954821 0.03073117 0.01986967
v -0.02552761 0.03753070 0.05369947
v -0.02471099 0.03788330 0.05369947
v -0.02432256 0.03804218 0.05369947
v -0.02249968 0.03878221 0.05369947
v -0.02179317 0.03903469 0.05369947
v -0.01994582 0.03927846 0.05218428
v -0.02581817 0.03740228 0.05369947
v -0.03289863 0.02761001 0.03337681
v -0.03289863 0.02808014 0.03480751
v -0.03284970 0.02810626 0.03477371
v -0.01318956 0.02418631 -0.00383822
v -0.00475417 0.02670674 -0.00383822
v -0.00636601 0.02623879 -0.00383822
v -0.01553238 0.03921534 0.04730076
v -0.01553238 0.03966806 0.04900746
v -0.01676191 0.03982042 0.05071416
v -0.01553238 0.03994666 0.05016779
v -0.01553238 0.04069104 0.05369947
v -0.01830951 0.03961800 0.05155906
v -0.01766111 0.03934376 0.04981856
v -0.02044742 0.03950264 0.05369947
v -0.01901603 0.03980301 0.05311367
v -0.01766111 0.03992272 0.05218428
v -0.01779874 0.04021220 0.05369947
v -0.01727574 0.04032538 0.05369947
v -0.01924848 0.03986613 0.05369947
f 1 2 7
f 1 7 16
f 1 16 15
f 1 15 14
f 1 14 13
f 1 13 25
f 1 25 41
f 1 41 63
f 1 63 94
f 1 94 66
f 1 66 95
f 1 95 93
f 1 93 97
f 1 97 96
f 1 96 67
f 1 67 42
f 1 42 26
f 1 26 17
f 1 17 8
f 1 8 3
f 1 3 4
f 1 4 9
f 1 9 19
f 1 19 29
f 1 29 47
f 1 47 78
f 1 78 77
f 1 77 76
f 1 76 103
f 1 103 134
f 1 134 133
f 1 133 154
f 1 154 161
f 1 161 160
f 1 160 162
f 1 162 157
f 1 157 141
f 1 141 140
f 1 140 139
f 1 139 138
f 1 138 137
f 1 137 143
f 1 143 117
f 1 117 116
f 1 116 115
f 1 115 108
f 1 108 82
f 1 82 48
f 1 48 30
f 1 30 20
f 1 20 10
f 1 10 5
f 1 5 2
f 2 5 6
f 2 6 7
f 3 8 4
f 4 8 9
f 5 10 21
f 5 21 31
f 5 31 50
f 5 50 84
f 5 84 119
f 5 119 124
f 5 124 123
f 5 123 145
f 5 145 144
f 5 144 125
f 5 125 88
f 5 88 51
f 5 51 34
f 5 34 33
f 5 33 32
f 5 32 22
f 5 22 11
f 5 11 6
f 6 11 23
f 6 23 37
f 6 37 61
f 6 61 40
f 6 40 39
f 6 39 38
f 6 38 24
f 6 24 12
f 6 12 13
f 6 13 14
f 6 14 15
f 6 15 16
f 6 16 7
f 8 17 18
f 8 18 9
f 9 18 19
f 10 20 21
f 11 22 23
f 12 24 13
f 13 24 25
f 17 26 27
f 17 27 18
f 18 28 19
f 18 27 28
f 19 28 29
f 20 30 21
f 21 30 31
f 22 32 23
f 23 32 33
f 23 33 34
f 23 34 35
f 23 35 36
f 23 36 59
f 23 59 58
f 23 58 57
f 23 57 56
f 23 56 55
f 23 55 54
f 23 54 53
f 23 53 91
f 23 91 126
f 23 126 147
f 23 147 149
f 23 149 148
f 23 148 128
f 23 128 97
f 23 97 93
f 23 93 60
f 23 60 37
f 24 38 25
f 25 38 39
f 25 39 40
f 25 40 41
f 26 42 27
f 27 42 43
f 27 43 44
f 27 44 45
f 27 45 28
f 28 46 47
f 28 47 29
f 28 45 46
f 30 48 49
f 30 49 50
f 30 50 31
f 34 51 35
f 35 51 52
f 35 52 53
f 35 53 54
f 35 54 55
f 35 55 56
f 35 56 57
f 35 57 58
f 35 58 59
f 35 59 36
f 37 60 61
f 40 62 63
f 40 63 41
f 40 61 60
f 40 60 64
f 40 64 65
f 40 65 66
f 40 66 62
f 42 67 43
f 43 67 68
f 43 68 69
f 43 69 70
f 43 70 71
f 43 71 44
f 44 72 73
f 44 73 45
f 44 71 74
f 44 74 72
f 45 73 46
f 46 75 76
f 46 76 77
f 46 77 78
f 46 78 47
f 46 73 79
f 46 79 75
f 48 80 81
f 48 81 49
f 48 82 83
f 48 83 80
f 49 84 50
f 49 81 80
f 49 80 85
f 49 85 86
f 49 86 87
f 49 87 84
f 51 88 52
f 52 88 89
f 52 89 90
f 52 90 53
f 53 90 92
f 53 92 91
f 60 93 64
f 62 94 63
f 62 66 94
f 64 93 95
f 64 95 66
f 64 66 65
f 67 96 68
f 68 70 69
f 68 96 97
f 68 97 70
f 70 98 71
f 70 97 98
f 71 98 74
f 72 74 99
f 72 99 100
f 72 100 79
f 72 79 73
f 74 98 101
f 74 101 99
f 75 102 103
f 75 103 76
f 75 79 102
f 79 100 104
f 79 104 105
f 79 105 102
f 80 106 107
f 80 107 85
f 80 83 106
f 82 108 83
f 83 109 110
f 83 110 111
f 83 111 90
f 83 90 112
f 83 112 113
f 83 113 86
f 83 86 114
f 83 114 107
f 83 107 106
f 83 108 115
f 83 115 116
f 83 116 117
f 83 117 118
f 83 118 109
f 84 87 119
f 85 107 114
f 85 114 86
f 86 88 120
f 86 120 121
f 86 121 87
f 86 113 112
f 86 112 122
f 86 122 88
f 87 121 123
f 87 123 124
f 87 124 119
f 88 125 120
f 88 122 89
f 89 122 90
f 90 122 112
f 90 111 110
f 90 110 92
f 91 92 127
f 91 127 126
f 92 110 127
f 97 128 127
f 97 127 129
f 97 129 130
f 97 130 131
f 97 131 99
f 97 99 101
f 97 101 98
f 99 131 100
f 100 131 104
f 102 132 154
f 102 154 133
f 102 133 134
f 102 134 103
f 102 105 129
f 102 129 132
f 104 129 105
f 104 131 130
f 104 130 129
f 109 118 110
f 110 135 136
f 110 136 127
f 110 118 137
f 110 137 138
f 110 138 139
f 110 139 140
f 110 140 141
f 110 141 142
f 110 142 135
f 117 143 118
f 118 143 137
f 120 125 121
f 121 144 145
f 121 145 146
f 121 146 123
f 121 125 144
f 123 146 145
f 126 127 147
f 127 128 148
f 127 148 149
f 127 149 147
f 127 136 150
f 127 150 129
f 129 150 151
f 129 151 152
f 129 152 153
f 129 153 132
f 132 153 152
f 132 152 154
f 135 142 136
f 136 142 155
f 136 155 156
f 136 156 150
f 141 157 142
f 142 157 158
f 142 158 155
f 150 156 152
f 150 152 151
f 152 156 155
f 152 155 158
f 152 158 159
f 152 159 160
f 152 160 161
f 152 161 154
f 157 162 158
f 158 162 160
f 158 160 159

