# https://github.com/mikedh/trimesh
v 0.04112031 0.01772369 -0.04746903
v 0.04111764 -0.00062784 -0.05527805
v 0.04111764 0.01877393 -0.06360181
v 0.04111764 0.01877393 -0.04810663
v 0.04111764 0.00613695 -0.03870656
v 0.04111764 0.00359778 -0.03851938
v 0.04111764 -0.00062784 -0.04094690
v 0.02808574 -0.00062784 -0.02925971
v 0.01850965 0.01877393 -0.02699012
v 0.02257296 0.01877393 -0.00384386
v 0.02398246 0.01800097 -0.00384386
v 0.02554117 0.01700961 -0.00384386
v 0.02639913 0.01539913 -0.00384386
v 0.03010008 0.00554061 -0.00384386
v 0.03920722 0.00525954 -0.03259974
v 0.03010008 0.00418082 -0.00384386
v 0.02828291 -0.00062784 -0.00384386
v 0.02752620 -0.00062784 -0.02810152
v 0.02746758 -0.00062784 -0.02797868
v 0.02689739 -0.00062784 -0.02670935
v 0.02595949 -0.00062784 -0.02459185
v 0.01751847 0.01877393 -0.02474393
v 0.01402002 0.01877393 -0.00384386
v 0.02355082 -0.00062784 -0.00384386
v 0.02533334 -0.00062784 -0.02308854
v 0.01570130 0.01877393 -0.02025156
v 0.02528538 -0.00062784 -0.02297155
v 0.01390279 0.01877393 -0.00615439
v 0.02344157 -0.00062784 -0.00615439
v 0.02489371 -0.00062784 -0.02193035
v 0.01495258 0.01877393 -0.01777139
v 0.02335365 -0.00062784 -0.00847662
v 0.01395607 0.01877393 -0.00847662
v 0.02330036 -0.00062784 -0.01312693
v 0.02329769 -0.00062784 -0.01079885
v 0.02434749 -0.00062784 -0.02009947
v 0.01442236 0.01877393 -0.01544916
v 0.01402269 0.01877393 -0.01079885
v 0.01416390 0.01877393 -0.01312693
v 0.02347088 -0.00062784 -0.01544916
v 0.02383591 -0.00062784 -0.01777139
f 1 2 3
f 1 3 4
f 1 4 5
f 1 5 6
f 1 6 7
f 1 7 2
f 2 7 17
f 2 17 24
f 2 24 29
f 2 29 32
f 2 32 35
f 2 35 34
f 2 34 40
f 2 40 41
f 2 41 36
f 2 36 30
f 2 30 27
f 2 27 25
f 2 25 21
f 2 21 20
f 2 20 19
f 2 19 18
f 2 18 8
f 2 8 9
f 2 9 3
f 3 9 22
f 3 22 26
f 3 26 31
f 3 31 37
f 3 37 39
f 3 39 38
f 3 38 33
f 3 33 28
f 3 28 23
f 3 23 10
f 3 10 4
f 4 10 11
f 4 11 12
f 4 12 13
f 4 13 14
f 4 14 5
f 5 15 6
f 5 14 15
f 6 15 14
f 6 14 16
f 6 16 7
f 7 16 17
f 8 18 9
f 9 18 19
f 9 19 20
f 9 20 21
f 9 21 22
f 10 23 24
f 10 24 17
f 10 17 16
f 10 16 14
f 10 14 13
f 10 13 12
f 10 12 11
f 21 25 22
f 22 25 27
f 22 27 26
f 23 28 24
f 24 28 29
f 26 27 30
f 26 30 31
f 28 32 29
f 28 33 34
f 28 34 35
f 28 35 32
f 30 36 31
f 31 36 37
f 33 38 34
f 34 38 39
f 34 39 40
f 36 41 37
f 37 40 39
f 37 41 40

