# https://github.com/mikedh/trimesh
v 0.04126301 -0.03885470 -0.10376494
v 0.04126301 -0.03879109 -0.10608879
v 0.04257548 -0.03828968 -0.10608879
v 0.04257548 -0.03831213 -0.10376494
v 0.04126301 -0.03855161 -0.10144109
v 0.04126301 -0.03819988 -0.10841862
v 0.04435293 -0.03715215 -0.10797299
v 0.04474205 -0.03735048 -0.10608879
v 0.04590283 -0.03681913 -0.10608879
v 0.04464477 -0.03735048 -0.10376494
v 0.04257548 -0.03796414 -0.10143062
v 0.04126301 -0.03545335 -0.10143062
v 0.04126301 -0.03799782 -0.10887770
v 0.04323337 -0.03721951 -0.10906837
v 0.04277829 -0.03756750 -0.10861377
v 0.04388301 -0.03695383 -0.10906837
v 0.04503555 -0.03660584 -0.10861377
v 0.04739174 -0.03537477 -0.10855695
v 0.04873059 -0.03482097 -0.10787878
v 0.04722355 -0.03605205 -0.10608879
v 0.04580720 -0.03674803 -0.10376494
v 0.04421608 -0.03715215 -0.10143062
v 0.04126301 -0.03175265 -0.10143062
v 0.04126301 -0.03791175 -0.10906837
v 0.04258538 -0.03744776 -0.10906837
v 0.04436117 -0.03673680 -0.10906837
v 0.04718728 -0.03524754 -0.10906837
v 0.04791277 -0.03486213 -0.10906837
v 0.04891361 -0.03496316 -0.10608879
v 0.04838433 -0.03457401 -0.10906837
v 0.04952203 -0.03386306 -0.10855695
v 0.05099115 -0.03257586 -0.10841264
v 0.05007274 -0.03400525 -0.10608879
v 0.04722355 -0.03586121 -0.10376494
v 0.04538015 -0.03648610 -0.10144109
v 0.04537026 -0.03648984 -0.10143062
v 0.04126301 -0.02982559 -0.10906837
v 0.05094663 -0.00062784 -0.10143062
v 0.04967372 -0.00062784 -0.10906837
v 0.04874378 -0.03484343 -0.10376494
v 0.04879160 -0.03423724 -0.10906837
v 0.05085759 -0.03241496 -0.10906837
v 0.05121209 -0.03284153 -0.10608879
v 0.05222942 -0.03089950 -0.10829974
v 0.05308187 -0.03000520 -0.10744960
v 0.05104721 -0.03265069 -0.10376494
v 0.04990456 -0.03381441 -0.10376494
v 0.04850470 -0.03466007 -0.10228076
v 0.04733897 -0.03522883 -0.10147997
v 0.04739338 -0.03517645 -0.10143062
v 0.05682308 -0.00062784 -0.10143062
v 0.05803663 -0.00062784 -0.10906837
v 0.05284939 -0.02957863 -0.10906837
v 0.05286587 -0.02961230 -0.10899884
v 0.05250478 -0.03089950 -0.10586672
v 0.05342318 -0.02880406 -0.10829974
v 0.05434653 -0.02643172 -0.10841264
v 0.05344626 -0.02898741 -0.10586672
v 0.05308187 -0.03000520 -0.10649405
v 0.05082956 -0.03238877 -0.10229421
v 0.05303076 -0.02991539 -0.10494556
v 0.05203816 -0.03108285 -0.10376494
v 0.04937034 -0.03350758 -0.10143062
v 0.05717099 -0.00062784 -0.10144109
v 0.05716934 -0.00063159 -0.10143062
v 0.05810588 -0.00062784 -0.10841264
v 0.05803003 -0.00087106 -0.10906837
v 0.05335228 -0.02847852 -0.10906837
v 0.05413713 -0.02643172 -0.10906837
v 0.05437291 -0.02577689 -0.10906837
v 0.05530780 -0.02283205 -0.10906837
v 0.05509345 -0.02393590 -0.10836180
v 0.05538035 -0.02304533 -0.10755278
v 0.05538035 -0.02304533 -0.10710716
v 0.05433169 -0.02643172 -0.10608879
v 0.04961602 -0.03324565 -0.10143062
v 0.04949235 -0.03338410 -0.10143062
v 0.05127969 -0.03113898 -0.10148820
v 0.05122033 -0.03120260 -0.10143062
v 0.05381066 -0.02643172 -0.10376494
v 0.05325994 -0.02825401 -0.10376494
v 0.05286258 -0.02941773 -0.10376494
v 0.05127145 -0.03111653 -0.10143062
v 0.05720726 -0.00062784 -0.10162578
v 0.05716274 -0.00088229 -0.10143062
v 0.05796573 -0.00062784 -0.10633029
v 0.05794099 -0.00087106 -0.10608879
v 0.05809598 -0.00087106 -0.10841264
v 0.05790966 -0.00319476 -0.10906837
v 0.05531934 -0.02278340 -0.10906837
v 0.05532924 -0.02273850 -0.10906837
v 0.05556007 -0.02191529 -0.10836180
v 0.05604813 -0.01946438 -0.10841264
v 0.05525009 -0.02250277 -0.10555792
v 0.05501925 -0.02393590 -0.10623534
v 0.05646528 -0.01714068 -0.10841264
v 0.05637790 -0.01714068 -0.10608879
v 0.05596239 -0.01946438 -0.10608879
v 0.05552544 -0.02175065 -0.10623534
v 0.05442897 -0.02410802 -0.10376494
v 0.05325005 -0.02643172 -0.10194130
v 0.05306868 -0.02770395 -0.10249535
v 0.05365897 -0.02432131 -0.10143062
v 0.05348419 -0.02497614 -0.10143062
v 0.05234154 -0.02874419 -0.10143062
v 0.05246850 -0.02859077 -0.10160857
v 0.05239595 -0.02861697 -0.10143062
v 0.05754857 -0.00062784 -0.10339931
v 0.05754527 -0.00087106 -0.10342026
v 0.05707370 -0.00320599 -0.10143062
v 0.05707700 -0.00319476 -0.10144109
v 0.05794759 -0.00062784 -0.10608879
v 0.05776621 -0.00062784 -0.10473919
v 0.05770521 -0.00259232 -0.10477209
v 0.05767058 -0.00414145 -0.10501584
v 0.05781404 -0.00329953 -0.10590934
v 0.05776292 -0.00551846 -0.10652694
v 0.05796573 -0.00319476 -0.10841264
v 0.05771346 -0.00707507 -0.10697257
v 0.05777281 -0.00551846 -0.10906837
v 0.05605637 -0.01880955 -0.10906837
v 0.05543311 -0.02095364 -0.10463452
v 0.05635481 -0.01714068 -0.10906837
v 0.05683462 -0.01481698 -0.10841264
v 0.05675218 -0.01481698 -0.10608879
v 0.05600031 -0.01714068 -0.10376494
v 0.05639273 -0.01481698 -0.10376494
v 0.05502420 -0.02175065 -0.10382176
v 0.05496814 -0.01936334 -0.10156222
v 0.05433004 -0.02178433 -0.10144109
v 0.05308187 -0.02643172 -0.10143062
v 0.05255259 -0.02812678 -0.10143062
v 0.05429706 -0.02189659 -0.10143062
v 0.05774148 -0.00062784 -0.10456199
v 0.05753373 -0.00329953 -0.10390476
v 0.05773653 -0.00087106 -0.10458292
v 0.05695993 -0.00552968 -0.10143062
v 0.05696323 -0.00551846 -0.10144109
v 0.05739523 -0.00551846 -0.10376494
v 0.05762936 -0.00551846 -0.10536502
v 0.05781238 -0.00551846 -0.10841264
v 0.05769366 -0.00684308 -0.10906837
v 0.05761287 -0.00816395 -0.10841264
v 0.05770686 -0.00700398 -0.10841264
v 0.05755682 -0.00784964 -0.10615459
v 0.05733917 -0.01016959 -0.10608879
v 0.05741502 -0.01016959 -0.10841264
v 0.05557326 -0.01936334 -0.10382176
v 0.05540673 -0.01852143 -0.10241759
v 0.05522701 -0.02006681 -0.10308528
v 0.05671921 -0.01481698 -0.10906837
v 0.05714625 -0.01249329 -0.10841264
v 0.05707370 -0.01249329 -0.10608879
v 0.05673239 -0.01249329 -0.10376494
v 0.05588984 -0.01482447 -0.10143062
v 0.05552050 -0.01693114 -0.10156222
v 0.05627237 -0.01249329 -0.10144109
v 0.05501101 -0.01902283 -0.10143062
v 0.05492692 -0.01936709 -0.10143062
v 0.05432345 -0.02179555 -0.10143062
v 0.05679835 -0.00785338 -0.10143062
v 0.05680165 -0.00784215 -0.10144109
v 0.05723364 -0.00784215 -0.10376494
v 0.05711163 -0.01183472 -0.10906837
v 0.05702094 -0.01016959 -0.10376494
v 0.05550566 -0.01684133 -0.10143062
v 0.05545949 -0.01705087 -0.10143062
v 0.05703083 -0.01249329 -0.10906837
v 0.05657576 -0.01016959 -0.10144109
v 0.05626742 -0.01250825 -0.10143062
v 0.05657246 -0.01017707 -0.10143062
f 1 2 3
f 1 3 4
f 1 4 5
f 1 5 12
f 1 12 23
f 1 23 37
f 1 37 24
f 1 24 13
f 1 13 6
f 1 6 2
f 2 6 7
f 2 7 3
f 3 7 8
f 3 8 4
f 4 8 9
f 4 9 10
f 4 10 11
f 4 11 5
f 5 11 12
f 6 13 14
f 6 14 15
f 6 15 7
f 7 16 17
f 7 17 18
f 7 18 9
f 7 9 8
f 7 15 14
f 7 14 16
f 9 18 19
f 9 19 20
f 9 20 21
f 9 21 10
f 10 21 22
f 10 22 11
f 11 22 36
f 11 36 50
f 11 50 63
f 11 63 77
f 11 77 76
f 11 76 79
f 11 79 83
f 11 83 105
f 11 105 107
f 11 107 132
f 11 132 131
f 11 131 104
f 11 104 103
f 11 103 133
f 11 133 160
f 11 160 159
f 11 159 158
f 11 158 167
f 11 167 166
f 11 166 155
f 11 155 170
f 11 170 171
f 11 171 161
f 11 161 137
f 11 137 110
f 11 110 85
f 11 85 65
f 11 65 51
f 11 51 38
f 11 38 23
f 11 23 12
f 13 24 25
f 13 25 14
f 14 25 24
f 14 24 37
f 14 37 39
f 14 39 52
f 14 52 67
f 14 67 89
f 14 89 120
f 14 120 142
f 14 142 164
f 14 164 168
f 14 168 151
f 14 151 123
f 14 123 121
f 14 121 91
f 14 91 90
f 14 90 71
f 14 71 70
f 14 70 69
f 14 69 68
f 14 68 53
f 14 53 42
f 14 42 41
f 14 41 30
f 14 30 28
f 14 28 27
f 14 27 26
f 14 26 16
f 16 26 17
f 17 26 27
f 17 27 28
f 17 28 18
f 18 28 19
f 19 29 20
f 19 28 30
f 19 30 31
f 19 31 32
f 19 32 33
f 19 33 29
f 20 29 34
f 20 34 21
f 21 34 35
f 21 35 36
f 21 36 22
f 23 38 39
f 23 39 37
f 29 40 34
f 29 33 40
f 30 41 31
f 31 41 42
f 31 42 32
f 32 43 33
f 32 42 44
f 32 44 45
f 32 45 43
f 33 43 46
f 33 46 47
f 33 47 40
f 34 40 48
f 34 48 49
f 34 49 35
f 35 49 36
f 36 49 50
f 38 51 64
f 38 64 84
f 38 84 108
f 38 108 134
f 38 134 113
f 38 113 112
f 38 112 86
f 38 86 66
f 38 66 52
f 38 52 39
f 40 47 48
f 42 53 54
f 42 54 44
f 43 55 46
f 43 45 55
f 44 54 45
f 45 54 56
f 45 56 57
f 45 57 58
f 45 58 59
f 45 59 55
f 46 60 47
f 46 55 61
f 46 61 62
f 46 62 60
f 47 60 48
f 48 50 49
f 48 60 63
f 48 63 50
f 51 65 64
f 52 66 67
f 53 68 54
f 54 68 56
f 55 59 61
f 56 68 57
f 57 69 70
f 57 70 71
f 57 71 72
f 57 72 73
f 57 73 74
f 57 74 75
f 57 75 58
f 57 68 69
f 58 61 59
f 58 75 61
f 60 76 77
f 60 77 63
f 60 62 78
f 60 78 79
f 60 79 76
f 61 75 80
f 61 80 81
f 61 81 82
f 61 82 83
f 61 83 78
f 61 78 62
f 64 65 84
f 65 85 84
f 66 86 87
f 66 87 88
f 66 88 67
f 67 88 89
f 71 90 73
f 71 73 72
f 73 90 91
f 73 91 92
f 73 92 93
f 73 93 74
f 74 94 95
f 74 95 75
f 74 93 96
f 74 96 97
f 74 97 98
f 74 98 99
f 74 99 94
f 75 95 94
f 75 94 100
f 75 100 80
f 78 83 79
f 80 101 102
f 80 102 81
f 80 100 103
f 80 103 104
f 80 104 101
f 81 102 82
f 82 105 83
f 82 102 106
f 82 106 107
f 82 107 105
f 84 85 108
f 85 109 108
f 85 110 111
f 85 111 109
f 86 112 87
f 87 112 113
f 87 113 114
f 87 114 115
f 87 115 116
f 87 116 117
f 87 117 88
f 88 118 89
f 88 117 119
f 88 119 118
f 89 118 120
f 91 121 93
f 91 93 92
f 93 121 96
f 94 99 122
f 94 122 100
f 96 121 123
f 96 123 124
f 96 124 125
f 96 125 97
f 97 126 98
f 97 125 127
f 97 127 126
f 98 126 122
f 98 122 99
f 100 122 128
f 100 128 129
f 100 129 130
f 100 130 103
f 101 104 131
f 101 131 102
f 102 132 106
f 102 131 132
f 103 130 133
f 106 132 107
f 108 109 134
f 109 111 135
f 109 135 114
f 109 114 136
f 109 136 134
f 110 137 138
f 110 138 111
f 111 138 135
f 113 134 136
f 113 136 114
f 114 135 115
f 115 135 139
f 115 139 140
f 115 140 117
f 115 117 116
f 117 140 119
f 118 119 141
f 118 141 142
f 118 142 120
f 119 143 144
f 119 144 141
f 119 140 145
f 119 145 146
f 119 146 147
f 119 147 143
f 122 126 148
f 122 148 149
f 122 149 150
f 122 150 128
f 123 151 124
f 124 151 168
f 124 168 152
f 124 152 153
f 124 153 125
f 125 153 154
f 125 154 127
f 126 127 155
f 126 155 156
f 126 156 148
f 127 154 157
f 127 157 155
f 128 150 129
f 129 150 149
f 129 149 158
f 129 158 159
f 129 159 130
f 130 160 133
f 130 159 160
f 135 138 139
f 137 161 162
f 137 162 138
f 138 162 163
f 138 163 139
f 139 163 140
f 140 163 145
f 141 144 142
f 142 144 143
f 142 143 147
f 142 147 152
f 142 152 164
f 145 163 146
f 146 163 165
f 146 165 153
f 146 153 147
f 147 153 152
f 148 156 149
f 149 156 166
f 149 166 167
f 149 167 158
f 152 168 164
f 153 165 154
f 154 165 169
f 154 169 157
f 155 166 156
f 155 157 170
f 157 169 171
f 157 171 170
f 161 171 169
f 161 169 162
f 162 169 165
f 162 165 163

