# https://github.com/mikedh/trimesh
v -0.04710041 -0.02193797 -0.08194911
v -0.03409557 -0.02193797 -0.06346050
v -0.04710041 -0.02193797 -0.06979717
v -0.04710041 -0.00062993 -0.07357053
v -0.03556729 -0.00062993 -0.05806318
v -0.03472194 -0.00062993 -0.05690092
v -0.03409557 -0.00062993 -0.05601729
v -0.03409557 -0.02193797 -0.05478737
v -0.04710041 -0.02147901 -0.06945487
v -0.04650078 -0.02193797 -0.06891753
v -0.04710041 -0.00062993 -0.06395008
v -0.03409557 -0.00062993 -0.04192693
v -0.03409557 -0.02191919 -0.05475951
v -0.04282403 -0.02193797 -0.06443568
v -0.04710041 -0.02104092 -0.06918421
v -0.03409557 -0.01244385 -0.04398875
v -0.03409557 -0.01016785 -0.04256378
v -0.04642566 -0.02193797 -0.06881404
v -0.04710041 -0.00086984 -0.06393813
v -0.03409557 -0.00319382 -0.04128610
v -0.03409557 -0.00150194 -0.04164433
v -0.03409557 -0.00086984 -0.04179956
v -0.03409557 -0.00071963 -0.04187917
v -0.03409557 -0.01710225 -0.04855816
v -0.04413024 -0.02193797 -0.06592830
v -0.04710041 -0.01971829 -0.06842794
v -0.03409557 -0.01480539 -0.04600677
v -0.03409557 -0.00889112 -0.04206227
v -0.04710041 -0.01713771 -0.06720599
v -0.04710041 -0.01779485 -0.06748063
v -0.04710041 -0.01869816 -0.06789458
v -0.04604118 -0.02193797 -0.06831251
v -0.04710041 -0.00206729 -0.06400979
v -0.03409557 -0.00551780 -0.04130999
v -0.03409557 -0.01664329 -0.04800091
v -0.04424100 -0.02193797 -0.06605567
v -0.04510289 -0.02193797 -0.06709453
v -0.03409557 -0.00784178 -0.04168414
v -0.04710041 -0.01481373 -0.06633429
v -0.04710041 -0.00319382 -0.06408143
v -0.03409557 -0.00587036 -0.04136571
v -0.04710041 -0.00463536 -0.06426452
v -0.04710041 -0.00551780 -0.06438792
v -0.04710041 -0.00736405 -0.06467848
v -0.04710041 -0.01014073 -0.06516010
v -0.04710041 -0.01187016 -0.06549445
v -0.04710041 -0.01304675 -0.06578103
v -0.04710041 -0.01386036 -0.06602781
f 1 2 8
f 1 8 14
f 1 14 25
f 1 25 36
f 1 36 37
f 1 37 32
f 1 32 18
f 1 18 10
f 1 10 3
f 1 3 9
f 1 9 15
f 1 15 26
f 1 26 31
f 1 31 30
f 1 30 29
f 1 29 39
f 1 39 48
f 1 48 47
f 1 47 46
f 1 46 45
f 1 45 44
f 1 44 43
f 1 43 42
f 1 42 40
f 1 40 33
f 1 33 19
f 1 19 11
f 1 11 4
f 1 4 5
f 1 5 6
f 1 6 7
f 1 7 2
f 2 7 12
f 2 12 23
f 2 23 22
f 2 22 21
f 2 21 20
f 2 20 34
f 2 34 41
f 2 41 38
f 2 38 28
f 2 28 17
f 2 17 16
f 2 16 27
f 2 27 35
f 2 35 24
f 2 24 13
f 2 13 8
f 3 10 9
f 4 11 12
f 4 12 7
f 4 7 6
f 4 6 5
f 8 13 14
f 9 10 16
f 9 16 17
f 9 17 15
f 10 18 16
f 11 19 20
f 11 20 21
f 11 21 22
f 11 22 23
f 11 23 12
f 13 24 14
f 14 24 25
f 15 17 26
f 16 18 27
f 17 28 29
f 17 29 30
f 17 30 31
f 17 31 26
f 18 32 27
f 19 33 34
f 19 34 20
f 24 35 25
f 25 35 36
f 27 32 37
f 27 37 35
f 28 38 39
f 28 39 29
f 33 40 34
f 34 40 42
f 34 42 43
f 34 43 44
f 34 44 41
f 35 37 36
f 38 41 44
f 38 44 45
f 38 45 46
f 38 46 47
f 38 47 48
f 38 48 39

