# https://github.com/mikedh/trimesh
v 0.00096360 0.03581629 -0.09595849
v 0.00096360 0.03256065 -0.08277985
v 0.00096360 0.04180544 -0.09595849
v 0.04439631 0.03065018 -0.09595849
v 0.00096360 0.03065018 -0.07401196
v 0.00096360 0.04153331 -0.09460846
v 0.00251112 0.04186517 -0.09595849
v 0.05314006 0.03065018 -0.09595849
v 0.00096360 0.03065018 -0.04853195
v 0.00096360 0.04150233 -0.09446713
v 0.00306782 0.04155875 -0.09446713
v 0.00306782 0.04188066 -0.09595849
v 0.05312474 0.03070660 -0.09595849
v 0.05309920 0.03065018 -0.09581716
v 0.00272052 0.03065018 -0.04750358
v 0.00335383 0.03065018 -0.04727939
v 0.00420676 0.03065018 -0.04703083
v 0.00539166 0.03065018 -0.04671891
v 0.00572874 0.03065018 -0.04666530
v 0.00771549 0.03065018 -0.04635338
v 0.00539166 0.04158751 -0.09446713
v 0.00497285 0.04191827 -0.09595849
v 0.00783296 0.03065018 -0.04634363
v 0.01003932 0.03065018 -0.04617305
v 0.05238929 0.03200642 -0.09595849
v 0.05081112 0.03065018 -0.09034392
v 0.05086730 0.03074531 -0.09059249
v 0.00736819 0.04194372 -0.09595849
v 0.01238869 0.03065018 -0.04624616
v 0.01236316 0.03105727 -0.04798609
v 0.01236316 0.03159269 -0.05031087
v 0.01003932 0.04195146 -0.09595849
v 0.00771549 0.04194593 -0.09595849
v 0.05130142 0.03346886 -0.09595849
v 0.05105627 0.03320668 -0.09492038
v 0.05066811 0.03278521 -0.09337541
v 0.04850261 0.03065018 -0.08519723
v 0.01468699 0.03065018 -0.04658732
v 0.01468699 0.03100749 -0.04798609
v 0.01468699 0.03157167 -0.05031087
v 0.01468699 0.03210045 -0.05263565
v 0.01236316 0.04191495 -0.09595849
v 0.05008077 0.03459832 -0.09595849
v 0.04832896 0.03278742 -0.08873558
v 0.04154132 0.03065018 -0.07122417
v 0.04621452 0.03065018 -0.08051843
v 0.01516708 0.03065018 -0.04667992
v 0.01701082 0.03148981 -0.05031087
v 0.01701082 0.03202302 -0.05263565
v 0.01468699 0.04150675 -0.09446713
v 0.01468699 0.04183973 -0.09595849
v 0.04887034 0.03544791 -0.09595849
v 0.04863540 0.03531184 -0.09520794
v 0.04005509 0.03065018 -0.06915282
v 0.04724620 0.03626432 -0.09595849
v 0.01682696 0.03065018 -0.04702596
v 0.01723555 0.03081943 -0.04775702
v 0.01773607 0.03065018 -0.04725502
v 0.01933466 0.03124644 -0.05031087
v 0.01933466 0.03182389 -0.05263565
v 0.01933466 0.03235820 -0.05496044
v 0.01926316 0.04162291 -0.09595849
v 0.01831830 0.04168154 -0.09595849
v 0.01701082 0.04175566 -0.09595849
v 0.01631112 0.04178331 -0.09595849
v 0.02869128 0.03065018 -0.05628122
v 0.04520328 0.03712607 -0.09595849
v 0.03687323 0.03287924 -0.07224766
v 0.03469750 0.03293787 -0.06974743
v 0.03403355 0.03267569 -0.06819757
v 0.01893118 0.03065018 -0.04783988
v 0.01933466 0.03072651 -0.04837111
v 0.02273614 0.03282393 -0.05847929
v 0.02398233 0.03458173 -0.06657948
v 0.02165849 0.03425872 -0.06425469
v 0.02083111 0.04148574 -0.09595849
v 0.03248603 0.03296995 -0.06732517
v 0.03176079 0.03271331 -0.06577531
v 0.02790476 0.03065018 -0.05544294
v 0.04397752 0.03756303 -0.09595849
v 0.03326745 0.03319120 -0.06894325
v 0.01933466 0.03065018 -0.04810793
v 0.02013140 0.03065018 -0.04864892
v 0.02398233 0.03270003 -0.05891306
v 0.02621423 0.03308279 -0.06193966
v 0.02630616 0.03368568 -0.06425469
v 0.02630616 0.03428305 -0.06657948
v 0.02617337 0.03487267 -0.06906997
v 0.02530513 0.03517799 -0.06995212
v 0.02398233 0.04115608 -0.09595849
v 0.02315494 0.04124789 -0.09595849
v 0.02165849 0.04141162 -0.09595849
v 0.03097426 0.03321443 -0.06655999
v 0.03021327 0.03297327 -0.06497601
v 0.02686286 0.03065018 -0.05438533
v 0.04249639 0.03801769 -0.09595849
v 0.02107115 0.03065018 -0.04935074
v 0.02537152 0.03288256 -0.06058963
v 0.02786900 0.03294340 -0.06272434
v 0.02862489 0.03383502 -0.06657948
v 0.02862489 0.03441248 -0.06890427
v 0.03687833 0.03929982 -0.09595849
v 0.03560150 0.03952992 -0.09595849
v 0.03443703 0.03971687 -0.09595849
v 0.03284865 0.03995803 -0.09595849
v 0.03022859 0.04033636 -0.09595849
v 0.02867596 0.04055429 -0.09595849
v 0.02779750 0.04067487 -0.09595849
v 0.02630616 0.04087178 -0.09595849
v 0.03416634 0.03975891 -0.09595849
v 0.03395183 0.03979209 -0.09595849
v 0.02547878 0.04097466 -0.09595849
v 0.03094872 0.03387596 -0.06890427
v 0.02863511 0.03317350 -0.06422545
v 0.02941653 0.03272437 -0.06343103
v 0.02639809 0.03065018 -0.05396619
v 0.04174051 0.03822235 -0.09595849
v 0.02400787 0.03065018 -0.05188022
v 0.02569839 0.03065018 -0.05334235
v 0.04024917 0.03860621 -0.09595849
v 0.03941667 0.03879317 -0.09595849
v 0.03781808 0.03912614 -0.09595849
f 1 2 5
f 1 5 9
f 1 9 10
f 1 10 6
f 1 6 3
f 1 3 7
f 1 7 12
f 1 12 22
f 1 22 28
f 1 28 33
f 1 33 32
f 1 32 42
f 1 42 51
f 1 51 65
f 1 65 64
f 1 64 63
f 1 63 62
f 1 62 76
f 1 76 92
f 1 92 91
f 1 91 90
f 1 90 112
f 1 112 109
f 1 109 108
f 1 108 107
f 1 107 106
f 1 106 105
f 1 105 111
f 1 111 110
f 1 110 104
f 1 104 103
f 1 103 102
f 1 102 122
f 1 122 121
f 1 121 120
f 1 120 117
f 1 117 96
f 1 96 80
f 1 80 67
f 1 67 55
f 1 55 52
f 1 52 43
f 1 43 34
f 1 34 25
f 1 25 13
f 1 13 8
f 1 8 4
f 1 4 2
f 2 4 5
f 3 6 7
f 4 8 14
f 4 14 26
f 4 26 37
f 4 37 46
f 4 46 45
f 4 45 54
f 4 54 66
f 4 66 79
f 4 79 95
f 4 95 116
f 4 116 119
f 4 119 118
f 4 118 97
f 4 97 83
f 4 83 82
f 4 82 71
f 4 71 58
f 4 58 56
f 4 56 47
f 4 47 38
f 4 38 29
f 4 29 24
f 4 24 23
f 4 23 20
f 4 20 19
f 4 19 18
f 4 18 17
f 4 17 16
f 4 16 15
f 4 15 9
f 4 9 5
f 6 10 11
f 6 11 12
f 6 12 7
f 8 13 14
f 9 15 10
f 10 15 16
f 10 16 17
f 10 17 18
f 10 18 19
f 10 19 20
f 10 20 11
f 11 21 22
f 11 22 12
f 11 20 23
f 11 23 24
f 11 24 21
f 13 25 14
f 14 25 27
f 14 27 26
f 21 28 22
f 21 24 28
f 24 29 30
f 24 30 31
f 24 31 32
f 24 32 33
f 24 33 28
f 25 34 35
f 25 35 36
f 25 36 37
f 25 37 27
f 26 27 37
f 29 38 39
f 29 39 40
f 29 40 30
f 30 40 31
f 31 40 41
f 31 41 32
f 32 41 42
f 34 43 35
f 35 43 44
f 35 44 45
f 35 45 46
f 35 46 36
f 36 46 37
f 38 47 48
f 38 48 39
f 39 48 40
f 40 48 49
f 40 49 41
f 41 49 50
f 41 50 42
f 42 50 51
f 43 52 53
f 43 53 45
f 43 45 44
f 45 53 55
f 45 55 54
f 47 56 57
f 47 57 48
f 48 57 58
f 48 58 59
f 48 59 60
f 48 60 61
f 48 61 49
f 49 61 62
f 49 62 63
f 49 63 64
f 49 64 65
f 49 65 50
f 50 65 51
f 52 55 53
f 54 55 67
f 54 67 68
f 54 68 69
f 54 69 70
f 54 70 66
f 56 58 57
f 58 71 59
f 59 71 72
f 59 72 73
f 59 73 60
f 60 73 74
f 60 74 61
f 61 74 75
f 61 75 62
f 62 75 74
f 62 74 76
f 66 77 78
f 66 78 79
f 66 70 77
f 67 80 69
f 67 69 68
f 69 80 81
f 69 81 77
f 69 77 70
f 71 82 72
f 72 82 83
f 72 83 73
f 73 84 85
f 73 85 86
f 73 86 87
f 73 87 74
f 73 83 84
f 74 87 88
f 74 88 89
f 74 89 90
f 74 90 91
f 74 91 92
f 74 92 76
f 77 81 93
f 77 93 94
f 77 94 78
f 78 94 79
f 79 94 95
f 80 96 81
f 81 96 93
f 83 97 98
f 83 98 84
f 84 98 85
f 85 99 100
f 85 100 86
f 85 98 97
f 85 97 99
f 86 100 87
f 87 100 101
f 87 101 102
f 87 102 103
f 87 103 104
f 87 104 88
f 88 105 106
f 88 106 107
f 88 107 108
f 88 108 109
f 88 109 89
f 88 104 110
f 88 110 111
f 88 111 105
f 89 112 90
f 89 109 112
f 93 96 113
f 93 113 94
f 94 100 114
f 94 114 99
f 94 99 115
f 94 115 95
f 94 113 100
f 95 115 99
f 95 99 116
f 96 117 113
f 97 118 99
f 99 118 119
f 99 119 116
f 99 114 100
f 100 113 120
f 100 120 121
f 100 121 101
f 101 121 122
f 101 122 102
f 113 117 120

