# https://github.com/mikedh/trimesh
v 0.00786746 0.04290901 -0.10573288
v 0.00786746 0.04287947 -0.10608917
v 0.00770860 0.04287665 -0.10608917
v 0.00734971 0.04289635 -0.10573288
v 0.00786746 0.03598148 -0.10573288
v 0.00786746 0.04284570 -0.10622424
v 0.00770860 0.04238846 -0.10796963
v 0.00538465 0.04279927 -0.10608917
v 0.00786746 0.04239127 -0.10797894
v 0.00502576 0.04281897 -0.10573288
v 0.00786746 0.02853763 -0.11053588
v -0.04137089 0.02854466 -0.10573288
v 0.00538465 0.04234485 -0.10783107
v 0.00786746 0.04236314 -0.10805695
v 0.00306070 0.04270360 -0.10608917
v 0.00306070 0.04273878 -0.10573288
v 0.00786746 0.02853763 -0.11762687
v -0.04142973 0.02853763 -0.10573288
v 0.00538465 0.04190027 -0.10899310
v 0.00306070 0.04228716 -0.10767504
v 0.00786746 0.04196076 -0.10914097
v 0.00073675 0.04221963 -0.10749456
v 0.00073675 0.04257980 -0.10608917
v 0.00270181 0.04272189 -0.10573288
v 0.00770860 0.02934518 -0.11761289
v 0.00786746 0.02934518 -0.11761289
v 0.00538465 0.02853763 -0.11761988
v -0.05223169 0.02853763 -0.10573288
v 0.00786746 0.04191856 -0.10923878
v 0.00770860 0.04126295 -0.11073849
v 0.00306070 0.04183837 -0.10883708
v 0.00073675 0.04176521 -0.10865660
v -0.00101063 0.04216336 -0.10734785
v 0.00073675 0.04261638 -0.10573288
v -0.00255797 0.04211552 -0.10720114
v -0.00170487 0.04237861 -0.10629178
v -0.00391115 0.04233640 -0.10585513
v -0.00473483 0.04230827 -0.10573288
v 0.00786746 0.03166936 -0.11741611
v 0.00538465 0.02934518 -0.11760359
v 0.00306070 0.02853763 -0.11761057
v -0.05214932 0.02869801 -0.10573288
v -0.05210814 0.02853763 -0.10606356
v 0.00786746 0.04126998 -0.11073849
v 0.00770860 0.04027109 -0.11258051
v 0.00538465 0.04019652 -0.11247805
v 0.00538465 0.04113211 -0.11073849
v 0.00786746 0.04120104 -0.11086773
v 0.00306070 0.04099423 -0.11073849
v 0.00073675 0.04084369 -0.11073849
v -0.00158720 0.04068471 -0.11073849
v -0.00391115 0.04154714 -0.10841325
v -0.00170487 0.04176521 -0.10823859
v -0.00623510 0.04137128 -0.10841325
v -0.00391115 0.04207191 -0.10701717
v -0.00588798 0.04223089 -0.10573288
v 0.00770860 0.03166936 -0.11741494
v 0.00786746 0.03399355 -0.11692476
v 0.00306070 0.02934518 -0.11759309
v -0.00158720 0.02934518 -0.11756283
v 0.00073675 0.02853763 -0.11759893
v -0.05201988 0.02894562 -0.10573288
v -0.05194929 0.02882182 -0.10608917
v -0.05176690 0.02853763 -0.10675053
v 0.00770860 0.03937912 -0.11374255
v 0.00786746 0.04027531 -0.11258633
v 0.00538465 0.03930315 -0.11364008
v 0.00073675 0.04004317 -0.11226147
v -0.00158720 0.03996579 -0.11214737
v -0.00391115 0.03987857 -0.11201580
v -0.00531141 0.03982229 -0.11192963
v -0.00391115 0.04051729 -0.11073849
v -0.00855906 0.04025139 -0.11050445
v -0.00855906 0.04116728 -0.10841325
v -0.00623510 0.04198328 -0.10667019
v -0.00623510 0.04220556 -0.10573288
v 0.00538465 0.03166936 -0.11738584
v -0.00391115 0.02934518 -0.11754303
v 0.00786746 0.03521191 -0.11657079
v 0.00306070 0.03166936 -0.11735557
v 0.00073675 0.03166936 -0.11732413
v -0.00158720 0.03166936 -0.11729153
v 0.00770860 0.03399355 -0.11692243
v -0.00158720 0.02853763 -0.11758379
v -0.00391115 0.02853763 -0.11756749
v -0.05129623 0.03012882 -0.10573288
v -0.05119621 0.02998391 -0.10608917
v -0.05121974 0.02853763 -0.10760401
v 0.00786746 0.03938334 -0.11374836
v 0.00306070 0.03805805 -0.11472527
v 0.00073675 0.03797083 -0.11465541
v -0.00158720 0.03788219 -0.11458088
v -0.00391115 0.03778793 -0.11450171
v 0.00306070 0.03922014 -0.11353179
v -0.00623510 0.03768804 -0.11441671
v 0.00073675 0.03913292 -0.11342351
v -0.00158720 0.03904428 -0.11330941
v -0.00391115 0.03895002 -0.11317783
v -0.00614685 0.03901192 -0.11284715
v -0.00855906 0.03862081 -0.11306139
v -0.01320696 0.03827190 -0.11289722
v -0.00685875 0.03975476 -0.11181087
v -0.00614685 0.04025421 -0.11091779
v -0.00855906 0.03967879 -0.11166649
v -0.01088301 0.03956342 -0.11143827
v -0.01088301 0.04013462 -0.11027623
v -0.01088301 0.04094780 -0.10841325
v -0.01320696 0.04150493 -0.10608917
v -0.01088301 0.04172019 -0.10608917
v -0.00876497 0.04192700 -0.10601348
v -0.00854729 0.04201704 -0.10573288
v -0.00743532 0.04211271 -0.10573288
v -0.00623510 0.02853763 -0.11754187
v -0.00623510 0.02934518 -0.11751160
v 0.00634953 0.03516830 -0.11655333
v 0.00786746 0.03637260 -0.11600491
v -0.00391115 0.03166936 -0.11725078
v 0.00549644 0.03419473 -0.11681647
v 0.00306070 0.03386130 -0.11685722
v -0.05011366 0.03138376 -0.10573288
v -0.05003717 0.03130217 -0.10608917
v -0.04954885 0.03083086 -0.10763778
v -0.05026074 0.02915384 -0.10826188
v -0.04950178 0.02853763 -0.10962418
v 0.00786746 0.03822125 -0.11484287
v 0.00770860 0.03821703 -0.11484054
v 0.00538465 0.03814106 -0.11478815
v -0.00158720 0.03631632 -0.11562532
v -0.00391115 0.03631632 -0.11550423
v -0.00623510 0.03631632 -0.11537150
v -0.00855906 0.03631632 -0.11521780
v -0.00855906 0.03758252 -0.11432240
v -0.01002403 0.03751218 -0.11425487
v -0.01083005 0.03823673 -0.11325817
v -0.01157137 0.03741791 -0.11416521
v -0.01553091 0.03813121 -0.11273654
v -0.01785486 0.03798489 -0.11256304
v -0.01320696 0.03943399 -0.11116929
v -0.01320696 0.04000659 -0.11000726
v -0.02017881 0.03783576 -0.11237907
v -0.01320696 0.04070723 -0.10841325
v -0.01553091 0.04126436 -0.10608917
v -0.01356585 0.04151338 -0.10573288
v -0.01088301 0.02853763 -0.11746735
v -0.00855906 0.02934518 -0.11746735
v -0.01320696 0.02853763 -0.11742776
v 0.00770860 0.03636837 -0.11600257
v 0.00073675 0.03375437 -0.11683393
v -0.00158720 0.03364886 -0.11680949
v -0.00391115 0.03354194 -0.11678271
v 0.00480219 0.03510218 -0.11653003
v -0.01088301 0.02934518 -0.11742194
v -0.01320696 0.02934518 -0.11737420
v -0.01553091 0.02934518 -0.11731947
v -0.00623510 0.03166936 -0.11719257
v -0.04885460 0.03255570 -0.10573288
v -0.04873106 0.03246426 -0.10608917
v -0.04707193 0.03293838 -0.10742354
v -0.04795444 0.03160605 -0.10830496
v -0.04728373 0.03083226 -0.10988966
v -0.04883696 0.03002330 -0.10918755
v -0.04927233 0.02853763 -0.10984425
v 0.00306070 0.03631632 -0.11584539
v 0.00073675 0.03631632 -0.11573827
v -0.00391115 0.03470403 -0.11638799
v -0.00623510 0.03458303 -0.11634025
v -0.00855906 0.03443672 -0.11628087
v -0.01088301 0.03427915 -0.11620751
v -0.01320696 0.03413142 -0.11612484
v -0.01785486 0.03399355 -0.11586169
v -0.01320696 0.03614749 -0.11496280
v -0.01083005 0.03651188 -0.11489992
v -0.01553091 0.03599133 -0.11486849
v -0.01785486 0.03582954 -0.11476253
v -0.01320696 0.03730959 -0.11405925
v -0.02017881 0.03566352 -0.11464609
v -0.01553091 0.03715342 -0.11389858
v -0.01553091 0.03929330 -0.11088869
v -0.01671936 0.03980541 -0.10958227
v -0.02249688 0.03766834 -0.11215784
v -0.01785486 0.03699163 -0.11372508
v -0.02017881 0.03682421 -0.11354111
v -0.01553091 0.04044695 -0.10841325
v -0.01588980 0.04127139 -0.10573288
v -0.01553091 0.04130938 -0.10573288
v -0.01785486 0.04099986 -0.10608917
v -0.01553091 0.02853763 -0.11738352
v 0.00549644 0.03609262 -0.11605963
v -0.00623510 0.03342094 -0.11674544
v -0.00158720 0.03481095 -0.11642990
v 0.00073675 0.03491506 -0.11646833
v 0.00306070 0.03502339 -0.11650442
v -0.01785486 0.02853763 -0.11732996
v -0.01785486 0.02934518 -0.11725310
v -0.00855906 0.03166936 -0.11711571
v -0.04768381 0.03328729 -0.10573288
v -0.04757202 0.03323523 -0.10608917
v -0.04551871 0.03438888 -0.10587028
v -0.04391253 0.03488974 -0.10649787
v -0.04235931 0.03519643 -0.10733505
v -0.04554224 0.03321975 -0.10828400
v -0.04463620 0.03286522 -0.10961836
v -0.04618942 0.03238266 -0.10897331
v -0.04540692 0.03146255 -0.11052889
v -0.04462443 0.03054244 -0.11192498
v -0.04617177 0.02974192 -0.11143943
v -0.04787207 0.02910882 -0.11059992
v -0.04727196 0.02853763 -0.11141381
v -0.00855906 0.03327462 -0.11669771
v -0.01471900 0.03287648 -0.11656380
v -0.01626634 0.03275689 -0.11652538
v -0.01785486 0.03261901 -0.11648463
v -0.01550737 0.03378814 -0.11612134
v -0.02017881 0.03239954 -0.11641360
v -0.02017881 0.03399355 -0.11567423
v -0.02249688 0.03548625 -0.11450870
v -0.02249688 0.03399355 -0.11544951
v -0.01763717 0.03921873 -0.11050910
v -0.02017881 0.03877416 -0.11073849
v -0.01826670 0.03970552 -0.10935988
v -0.01763717 0.04015291 -0.10851688
v -0.02249688 0.03664694 -0.11332104
v -0.02610930 0.03518096 -0.11424555
v -0.02398538 0.03754172 -0.11198784
v -0.02249688 0.03844776 -0.11073849
v -0.02482083 0.03529351 -0.11434452
v -0.02017881 0.04008538 -0.10791025
v -0.01785486 0.04104769 -0.10573288
v -0.02017881 0.04070160 -0.10608917
v -0.02017881 0.04075365 -0.10573288
v -0.01821375 0.04100549 -0.10573288
v -0.01088301 0.03166936 -0.11703537
v -0.01320696 0.03166936 -0.11695153
v -0.02017881 0.02853763 -0.11726126
v -0.02017881 0.02934518 -0.11717277
v -0.04555401 0.03441421 -0.10573288
v -0.04537750 0.03450425 -0.10573288
v -0.04424789 0.03502480 -0.10573288
v -0.04324771 0.03537089 -0.10587028
v -0.04324771 0.03432135 -0.10823160
v -0.04109437 0.03606167 -0.10608917
v -0.04109437 0.03541873 -0.10779264
v -0.03971766 0.03508248 -0.10943905
v -0.04109437 0.03481517 -0.10895468
v -0.04341833 0.03315082 -0.11001890
v -0.04182980 0.03262324 -0.11167464
v -0.04341833 0.03212097 -0.11118094
v -0.04341833 0.02934518 -0.11312310
v -0.04553635 0.02911867 -0.11216949
v -0.04640122 0.02853763 -0.11200298
v -0.04341833 0.03095889 -0.11223353
v -0.03982944 0.03043693 -0.11419082
v -0.01550737 0.03185648 -0.11680716
v -0.01785486 0.03145692 -0.11681181
v -0.02017881 0.03123745 -0.11675826
v -0.02249688 0.03214630 -0.11632510
v -0.02633875 0.03058887 -0.11657545
v -0.02482083 0.03190291 -0.11622731
v -0.02482083 0.03399355 -0.11518636
v -0.02947462 0.03166936 -0.11583258
v -0.02017881 0.03957890 -0.10907228
v -0.02699181 0.03413986 -0.11481725
v -0.02947462 0.03362776 -0.11478233
v -0.02766252 0.03501073 -0.11408953
v -0.02478553 0.03799052 -0.11087355
v -0.02947462 0.03581828 -0.11272722
v -0.03179857 0.03556223 -0.11241983
v -0.02553272 0.03738556 -0.11173750
v -0.02249688 0.03942133 -0.10867289
v -0.02249688 0.03991234 -0.10751086
v -0.02053770 0.04070582 -0.10573288
v -0.02372063 0.03981385 -0.10727915
v -0.02249688 0.04035972 -0.10608917
v -0.02555037 0.03997846 -0.10573288
v -0.02249688 0.02853763 -0.11717742
v -0.02482083 0.02853763 -0.11708079
v -0.02249688 0.02934518 -0.11707146
v -0.04344774 0.03533994 -0.10573288
v -0.04144738 0.03603213 -0.10573288
v -0.04109437 0.03615312 -0.10573288
v -0.03841153 0.03700710 -0.10573288
v -0.03855274 0.03691988 -0.10587376
v -0.03644647 0.03728285 -0.10663991
v -0.03519918 0.03745731 -0.10718368
v -0.03644647 0.03658644 -0.10841325
v -0.03887632 0.03577467 -0.10856462
v -0.04107084 0.03357148 -0.11083513
v -0.03817032 0.03534557 -0.10987452
v -0.03513447 0.03510639 -0.11183066
v -0.03644647 0.03486160 -0.11149183
v -0.03887632 0.03452535 -0.11068492
v -0.04028246 0.03297073 -0.11204374
v -0.04107084 0.03177769 -0.11268414
v -0.04131206 0.02953511 -0.11398590
v -0.04197689 0.02853763 -0.11415124
v -0.04261230 0.02853763 -0.11386364
v -0.03894104 0.03163419 -0.11362960
v -0.03644647 0.03243752 -0.11393700
v -0.03507563 0.03275267 -0.11416754
v -0.03828210 0.03083649 -0.11442021
v -0.03894104 0.02953511 -0.11479048
v -0.04068254 0.02888794 -0.11449356
v -0.02482083 0.02934518 -0.11695851
v -0.02249688 0.03098421 -0.11669189
v -0.02712713 0.02949994 -0.11678620
v -0.02788609 0.03037643 -0.11651257
v -0.02712713 0.03148647 -0.11617839
v -0.02947462 0.03008380 -0.11643456
v -0.03195742 0.02931845 -0.11632627
v -0.03412252 0.02934518 -0.11596648
v -0.03179857 0.03166936 -0.11544834
v -0.03179857 0.03329151 -0.11455178
v -0.02947462 0.03478985 -0.11388925
v -0.02714478 0.03785264 -0.11028438
v -0.02947462 0.03698037 -0.11099930
v -0.02714478 0.03721814 -0.11144758
v -0.03179857 0.03445360 -0.11358187
v -0.03358125 0.03533431 -0.11212990
v -0.02462668 0.03926938 -0.10819784
v -0.02714478 0.03871507 -0.10841325
v -0.02526797 0.03967316 -0.10686348
v -0.02626227 0.03985605 -0.10573288
v -0.02462668 0.04002629 -0.10608917
v -0.02713302 0.02853763 -0.11695503
v -0.03708776 0.03739259 -0.10573288
v -0.03625820 0.03761488 -0.10573288
v -0.03430491 0.03795113 -0.10628130
v -0.03179857 0.03860674 -0.10608917
v -0.03365184 0.03765146 -0.10766223
v -0.03430491 0.03716327 -0.10842838
v -0.03644647 0.03562132 -0.11032979
v -0.03644647 0.03369951 -0.11277496
v -0.03877042 0.03326055 -0.11234414
v -0.03426372 0.03588722 -0.11092944
v -0.03432844 0.03405967 -0.11314872
v -0.04081197 0.02853763 -0.11455760
v -0.03644647 0.03127543 -0.11466122
v -0.03352241 0.03301435 -0.11435617
v -0.03422842 0.03185507 -0.11485685
v -0.03644647 0.02934518 -0.11550190
v -0.03887044 0.02853763 -0.11511999
v -0.04032364 0.02853763 -0.11470547
v -0.02947462 0.02853763 -0.11680716
v -0.02947462 0.02892171 -0.11673614
v -0.03123376 0.02853763 -0.11663832
v -0.03130436 0.02853763 -0.11663017
v -0.03252811 0.02853763 -0.11645784
v -0.03328707 0.02853763 -0.11633442
v -0.03412252 0.02853763 -0.11619470
v -0.02947462 0.03761629 -0.10983726
v -0.03158677 0.03677638 -0.11051492
v -0.03066895 0.03748685 -0.10959158
v -0.02947462 0.03824939 -0.10841325
v -0.02947462 0.03911181 -0.10608917
v -0.02729775 0.03954654 -0.10608917
v -0.02698593 0.03972099 -0.10573288
v -0.03576399 0.03774010 -0.10573288
v -0.03215157 0.03860392 -0.10573288
v -0.03179857 0.03868552 -0.10573288
v -0.03158677 0.03779215 -0.10842838
v -0.03222217 0.03731522 -0.10921200
v -0.03640529 0.02853763 -0.11573710
v -0.02982762 0.03911322 -0.10573288
f 1 2 3
f 1 3 4
f 1 4 10
f 1 10 16
f 1 16 24
f 1 24 34
f 1 34 38
f 1 38 56
f 1 56 76
f 1 76 112
f 1 112 111
f 1 111 143
f 1 143 185
f 1 185 184
f 1 184 228
f 1 228 231
f 1 231 230
f 1 230 271
f 1 271 274
f 1 274 322
f 1 322 356
f 1 356 363
f 1 363 359
f 1 359 358
f 1 358 357
f 1 357 326
f 1 326 325
f 1 325 281
f 1 281 280
f 1 280 279
f 1 279 278
f 1 278 238
f 1 238 237
f 1 237 236
f 1 236 196
f 1 196 156
f 1 156 120
f 1 120 86
f 1 86 62
f 1 62 42
f 1 42 28
f 1 28 18
f 1 18 12
f 1 12 5
f 1 5 11
f 1 11 17
f 1 17 26
f 1 26 39
f 1 39 58
f 1 58 79
f 1 79 116
f 1 116 125
f 1 125 89
f 1 89 66
f 1 66 48
f 1 48 44
f 1 44 29
f 1 29 21
f 1 21 14
f 1 14 9
f 1 9 6
f 1 6 2
f 2 6 3
f 3 7 8
f 3 8 10
f 3 10 4
f 3 6 9
f 3 9 7
f 5 12 11
f 7 13 8
f 7 9 14
f 7 14 13
f 8 13 15
f 8 15 16
f 8 16 10
f 11 12 18
f 11 18 28
f 11 28 43
f 11 43 64
f 11 64 88
f 11 88 124
f 11 124 162
f 11 162 208
f 11 208 250
f 11 250 296
f 11 296 295
f 11 295 336
f 11 336 342
f 11 342 341
f 11 341 362
f 11 362 349
f 11 349 348
f 11 348 347
f 11 347 346
f 11 346 345
f 11 345 343
f 11 343 324
f 11 324 276
f 11 276 275
f 11 275 234
f 11 234 193
f 11 193 187
f 11 187 146
f 11 146 144
f 11 144 113
f 11 113 85
f 11 85 84
f 11 84 61
f 11 61 41
f 11 41 27
f 11 27 17
f 13 19 20
f 13 20 15
f 13 14 21
f 13 21 19
f 15 20 22
f 15 22 23
f 15 23 24
f 15 24 16
f 17 25 26
f 17 27 25
f 19 21 29
f 19 29 30
f 19 30 31
f 19 31 20
f 20 31 22
f 22 32 33
f 22 33 23
f 22 31 32
f 23 34 24
f 23 33 35
f 23 35 36
f 23 36 37
f 23 37 38
f 23 38 34
f 25 39 26
f 25 27 41
f 25 41 40
f 25 40 39
f 28 42 43
f 29 44 30
f 30 45 46
f 30 46 47
f 30 47 31
f 30 44 48
f 30 48 45
f 31 49 50
f 31 50 32
f 31 47 49
f 32 50 51
f 32 51 52
f 32 52 53
f 32 53 33
f 33 53 52
f 33 52 35
f 35 52 54
f 35 54 55
f 35 55 36
f 36 55 37
f 37 55 56
f 37 56 38
f 39 57 58
f 39 40 59
f 39 59 60
f 39 60 57
f 40 41 59
f 41 61 59
f 42 62 43
f 43 62 63
f 43 63 64
f 45 65 46
f 45 48 66
f 45 66 89
f 45 89 65
f 46 67 68
f 46 68 47
f 46 65 67
f 47 68 49
f 49 68 69
f 49 69 50
f 50 69 70
f 50 70 51
f 51 70 71
f 51 71 72
f 51 72 52
f 52 72 54
f 54 73 74
f 54 74 55
f 54 72 73
f 55 74 75
f 55 75 76
f 55 76 56
f 57 77 58
f 57 60 78
f 57 78 77
f 58 77 80
f 58 80 81
f 58 81 82
f 58 82 83
f 58 83 79
f 59 61 84
f 59 84 60
f 60 84 85
f 60 85 78
f 62 86 63
f 63 86 87
f 63 87 64
f 64 87 88
f 65 89 90
f 65 90 91
f 65 91 92
f 65 92 93
f 65 93 67
f 67 94 69
f 67 69 68
f 67 93 95
f 67 95 94
f 69 94 96
f 69 96 97
f 69 97 70
f 70 98 71
f 70 97 98
f 71 99 100
f 71 100 101
f 71 101 102
f 71 102 103
f 71 103 72
f 71 98 99
f 72 103 73
f 73 103 102
f 73 102 104
f 73 104 105
f 73 105 106
f 73 106 74
f 74 106 107
f 74 107 75
f 75 107 108
f 75 108 109
f 75 109 110
f 75 110 111
f 75 111 112
f 75 112 76
f 77 78 80
f 78 85 113
f 78 113 114
f 78 114 81
f 78 81 80
f 79 83 115
f 79 115 116
f 81 114 82
f 82 114 117
f 82 117 83
f 83 118 115
f 83 117 119
f 83 119 118
f 86 120 121
f 86 121 122
f 86 122 87
f 87 122 88
f 88 122 123
f 88 123 124
f 89 125 126
f 89 126 127
f 89 127 90
f 90 128 129
f 90 129 91
f 90 127 128
f 91 129 130
f 91 130 92
f 92 130 93
f 93 130 131
f 93 131 95
f 94 95 96
f 95 131 132
f 95 132 96
f 96 132 97
f 97 132 133
f 97 133 98
f 98 133 100
f 98 100 99
f 100 133 134
f 100 134 101
f 101 134 135
f 101 135 136
f 101 136 104
f 101 104 102
f 104 136 137
f 104 137 105
f 105 138 139
f 105 139 106
f 105 137 140
f 105 140 138
f 106 139 141
f 106 141 107
f 107 141 142
f 107 142 108
f 108 142 143
f 108 143 111
f 108 111 109
f 109 111 110
f 113 144 114
f 114 145 117
f 114 144 146
f 114 146 187
f 114 187 145
f 115 147 116
f 115 118 119
f 115 119 148
f 115 148 149
f 115 149 150
f 115 150 151
f 115 151 147
f 116 147 126
f 116 126 125
f 117 145 152
f 117 152 153
f 117 153 154
f 117 154 155
f 117 155 150
f 117 150 149
f 117 149 148
f 117 148 119
f 120 156 121
f 121 156 157
f 121 157 122
f 122 157 158
f 122 158 159
f 122 159 160
f 122 160 161
f 122 161 123
f 123 161 124
f 124 161 162
f 126 147 163
f 126 163 127
f 127 163 164
f 127 164 128
f 128 164 165
f 128 165 166
f 128 166 129
f 129 166 130
f 130 166 167
f 130 167 131
f 131 167 168
f 131 168 169
f 131 169 170
f 131 170 171
f 131 171 172
f 131 172 132
f 132 172 133
f 133 172 171
f 133 171 173
f 133 173 174
f 133 174 135
f 133 135 134
f 135 175 136
f 135 174 176
f 135 176 175
f 136 175 177
f 136 177 137
f 137 177 140
f 138 178 179
f 138 179 139
f 138 140 180
f 138 180 178
f 139 179 141
f 140 177 181
f 140 181 182
f 140 182 180
f 141 179 183
f 141 183 142
f 142 184 185
f 142 185 143
f 142 183 186
f 142 186 184
f 145 187 152
f 147 151 188
f 147 188 163
f 150 155 189
f 150 189 165
f 150 165 190
f 150 190 191
f 150 191 192
f 150 192 151
f 151 192 188
f 152 187 153
f 153 187 193
f 153 193 154
f 154 193 194
f 154 194 155
f 155 195 189
f 155 194 195
f 156 196 197
f 156 197 158
f 156 158 157
f 158 197 198
f 158 198 199
f 158 199 200
f 158 200 201
f 158 201 202
f 158 202 203
f 158 203 159
f 159 203 160
f 160 203 202
f 160 202 204
f 160 204 205
f 160 205 206
f 160 206 207
f 160 207 161
f 161 207 162
f 162 207 208
f 163 190 165
f 163 165 164
f 163 188 190
f 165 189 166
f 166 189 209
f 166 209 210
f 166 210 167
f 167 210 211
f 167 211 168
f 168 211 169
f 169 211 212
f 169 212 213
f 169 213 170
f 170 212 214
f 170 214 215
f 170 215 173
f 170 173 171
f 170 213 212
f 173 215 174
f 174 215 176
f 175 176 216
f 175 216 177
f 176 215 217
f 176 217 216
f 177 216 181
f 178 218 179
f 178 180 219
f 178 219 218
f 179 218 219
f 179 219 220
f 179 220 221
f 179 221 183
f 180 222 223
f 180 223 224
f 180 224 225
f 180 225 219
f 180 182 222
f 181 216 182
f 182 216 226
f 182 226 223
f 182 223 222
f 183 221 227
f 183 227 186
f 184 186 228
f 186 227 229
f 186 229 230
f 186 230 231
f 186 231 228
f 188 192 191
f 188 191 190
f 189 195 232
f 189 232 233
f 189 233 209
f 193 234 194
f 194 234 235
f 194 235 232
f 194 232 195
f 196 236 197
f 197 236 198
f 198 236 237
f 198 237 238
f 198 238 199
f 199 238 239
f 199 239 200
f 200 240 201
f 200 239 241
f 200 241 242
f 200 242 243
f 200 243 244
f 200 244 240
f 201 240 202
f 202 240 245
f 202 245 246
f 202 246 247
f 202 247 204
f 204 247 205
f 205 248 249
f 205 249 250
f 205 250 206
f 205 247 246
f 205 246 251
f 205 251 252
f 205 252 248
f 206 250 208
f 206 208 207
f 209 233 210
f 210 233 253
f 210 253 254
f 210 254 211
f 211 254 255
f 211 255 212
f 212 255 214
f 214 256 215
f 214 255 257
f 214 257 256
f 215 256 258
f 215 258 217
f 216 217 259
f 216 259 226
f 217 258 260
f 217 260 259
f 219 225 261
f 219 261 220
f 220 261 227
f 220 227 221
f 223 262 263
f 223 263 264
f 223 264 224
f 223 226 262
f 224 265 225
f 224 264 266
f 224 266 267
f 224 267 268
f 224 268 265
f 225 265 269
f 225 269 261
f 226 259 262
f 227 261 269
f 227 269 270
f 227 270 229
f 229 271 230
f 229 270 272
f 229 272 273
f 229 273 274
f 229 274 271
f 232 235 233
f 233 235 254
f 233 254 253
f 234 275 235
f 235 275 276
f 235 276 277
f 235 277 254
f 238 278 239
f 239 278 241
f 240 244 245
f 241 278 279
f 241 279 280
f 241 280 281
f 241 281 282
f 241 282 283
f 241 283 242
f 242 283 284
f 242 284 285
f 242 285 286
f 242 286 243
f 243 287 245
f 243 245 244
f 243 286 288
f 243 288 289
f 243 289 290
f 243 290 291
f 243 291 287
f 245 287 246
f 246 287 292
f 246 292 293
f 246 293 251
f 248 252 294
f 248 294 295
f 248 295 296
f 248 296 250
f 248 250 249
f 251 293 252
f 252 297 298
f 252 298 299
f 252 299 300
f 252 300 301
f 252 301 302
f 252 302 295
f 252 295 294
f 252 293 297
f 254 277 255
f 255 277 303
f 255 303 304
f 255 304 257
f 256 257 258
f 257 303 305
f 257 305 306
f 257 306 307
f 257 307 258
f 257 304 303
f 258 307 260
f 259 260 263
f 259 263 262
f 260 307 306
f 260 306 308
f 260 308 309
f 260 309 310
f 260 310 311
f 260 311 263
f 263 311 312
f 263 312 313
f 263 313 264
f 264 313 266
f 265 268 314
f 265 314 269
f 266 313 267
f 267 315 316
f 267 316 268
f 267 313 317
f 267 317 318
f 267 318 315
f 268 316 314
f 269 314 319
f 269 319 272
f 269 272 270
f 272 319 320
f 272 320 321
f 272 321 322
f 272 322 274
f 272 274 323
f 272 323 273
f 273 323 274
f 276 324 303
f 276 303 277
f 281 325 283
f 281 283 282
f 283 325 284
f 284 326 327
f 284 327 328
f 284 328 329
f 284 329 330
f 284 330 285
f 284 325 326
f 285 330 331
f 285 331 288
f 285 288 286
f 287 291 290
f 287 290 292
f 288 331 289
f 289 332 333
f 289 333 292
f 289 292 290
f 289 331 334
f 289 334 318
f 289 318 335
f 289 335 332
f 292 333 299
f 292 299 298
f 292 298 297
f 292 297 293
f 295 302 336
f 299 337 300
f 299 333 332
f 299 332 335
f 299 335 317
f 299 317 338
f 299 338 339
f 299 339 337
f 300 337 340
f 300 340 301
f 301 341 342
f 301 342 302
f 301 340 341
f 302 342 336
f 303 324 305
f 305 324 343
f 305 343 344
f 305 344 306
f 306 344 308
f 308 344 345
f 308 345 346
f 308 346 309
f 309 346 347
f 309 347 348
f 309 348 310
f 310 348 349
f 310 349 340
f 310 340 311
f 311 340 337
f 311 337 339
f 311 339 312
f 312 339 338
f 312 338 313
f 313 338 317
f 314 316 350
f 314 350 320
f 314 320 319
f 315 318 351
f 315 351 352
f 315 352 350
f 315 350 316
f 317 335 318
f 318 334 351
f 320 350 352
f 320 352 353
f 320 353 321
f 321 353 354
f 321 354 355
f 321 355 356
f 321 356 322
f 326 357 327
f 327 357 328
f 328 358 359
f 328 359 354
f 328 354 329
f 328 357 358
f 329 354 353
f 329 353 360
f 329 360 361
f 329 361 330
f 330 361 331
f 331 361 334
f 334 361 351
f 340 349 362
f 340 362 341
f 343 345 344
f 351 361 352
f 352 361 360
f 352 360 353
f 354 359 363
f 354 363 356
f 354 356 355

