# https://github.com/mikedh/trimesh
v 0.04978567 -0.00062784 -0.09596337
v 0.04492729 0.01877393 -0.07947183
v 0.04544929 0.01877393 -0.08151852
v 0.04760290 0.01877393 -0.08981770
v 0.04785078 0.01877393 -0.09070609
v 0.04940219 0.01877393 -0.09596337
v 0.05590384 -0.00062784 -0.09596337
v 0.04892102 -0.00062784 -0.09192622
v 0.04112021 0.01877393 -0.06360444
v 0.05537455 0.01877393 -0.09596337
v 0.05598404 0.00138336 -0.09596337
v 0.05210112 0.00842923 -0.06890107
v 0.05180221 0.00610466 -0.06890107
v 0.05069406 -0.00062784 -0.06810264
v 0.04830278 -0.00062784 -0.08903614
v 0.04112021 -0.00062784 -0.05528839
v 0.04112021 0.01877393 -0.04811376
v 0.05195094 0.01075000 -0.06890107
v 0.05551890 0.01737045 -0.09596337
v 0.04841068 0.01877393 -0.06556678
v 0.04894726 0.01792880 -0.06639332
v 0.05072614 0.01428242 -0.06766406
v 0.05093319 0.01300239 -0.06677005
v 0.05600153 0.00295207 -0.09596337
v 0.05244378 0.00842923 -0.07122327
v 0.05574053 0.01437548 -0.09596337
v 0.05145956 0.01075000 -0.06657887
v 0.05157913 0.00842923 -0.06657887
v 0.04988045 -0.00062784 -0.06425668
v 0.05039515 -0.00062784 -0.06658450
v 0.04112021 -0.00062784 -0.04095600
v 0.04112021 0.00613695 -0.03871253
v 0.04608065 0.01877393 -0.05840902
v 0.05567346 0.01539913 -0.09596337
v 0.04806074 0.01877393 -0.06425668
v 0.04941531 0.01539913 -0.06425668
v 0.05014290 0.01519402 -0.06677005
v 0.05053513 0.01372787 -0.06611781
v 0.05079613 0.01218006 -0.06515069
v 0.05601028 0.00378010 -0.09596337
v 0.05601465 0.00527473 -0.09596337
v 0.05601611 0.00610466 -0.09596337
v 0.05598404 0.00846341 -0.09596337
v 0.05594175 0.01002642 -0.09596337
v 0.05591550 0.01075000 -0.09596337
v 0.05586009 0.01218386 -0.09596337
v 0.05581344 0.01307456 -0.09596337
v 0.05094194 0.01075000 -0.06472337
v 0.05099006 0.00842923 -0.06459966
v 0.04925784 -0.00062784 -0.06193448
v 0.04932637 -0.00062784 -0.06217626
v 0.04112021 0.00359778 -0.03852697
v 0.04536326 -0.00062784 -0.05031226
v 0.04155618 0.00547984 -0.03939850
v 0.04836986 0.01180782 -0.05848212
v 0.04819051 0.01307456 -0.05887570
v 0.04848796 0.01451982 -0.06053441
v 0.04659681 0.01877393 -0.05966289
v 0.04742209 0.01877393 -0.06197947
v 0.04872855 0.01533645 -0.06202444
v 0.05027413 0.01300239 -0.06432977
v 0.04945030 0.01307456 -0.06193448
v 0.05054971 0.01075000 -0.06355946
v 0.05058762 0.00842923 -0.06343576
v 0.04600337 -0.00062784 -0.05188663
v 0.04641893 -0.00062784 -0.05314612
v 0.04709694 -0.00062784 -0.05520405
v 0.04777933 -0.00062784 -0.05728447
v 0.04782890 -0.00062784 -0.05743628
v 0.04831153 -0.00062784 -0.05891507
v 0.04871980 -0.00062784 -0.06016894
v 0.04155618 0.00423210 -0.03939850
v 0.04596254 -0.00062784 -0.05176855
v 0.05002334 0.00842923 -0.06193448
v 0.04994606 0.01075000 -0.06193448
v 0.04888748 0.01091902 -0.05939862
v 0.04870085 0.01307456 -0.06003962
v 0.04820218 0.01606953 -0.06131035
f 1 2 3
f 1 3 4
f 1 4 5
f 1 5 6
f 1 6 10
f 1 10 19
f 1 19 34
f 1 34 26
f 1 26 47
f 1 47 46
f 1 46 45
f 1 45 44
f 1 44 43
f 1 43 42
f 1 42 41
f 1 41 40
f 1 40 24
f 1 24 11
f 1 11 7
f 1 7 14
f 1 14 30
f 1 30 29
f 1 29 51
f 1 51 50
f 1 50 71
f 1 71 70
f 1 70 69
f 1 69 68
f 1 68 67
f 1 67 66
f 1 66 65
f 1 65 73
f 1 73 53
f 1 53 31
f 1 31 16
f 1 16 15
f 1 15 8
f 1 8 9
f 1 9 2
f 2 9 17
f 2 17 33
f 2 33 58
f 2 58 59
f 2 59 35
f 2 35 20
f 2 20 10
f 2 10 6
f 2 6 5
f 2 5 4
f 2 4 3
f 7 11 12
f 7 12 13
f 7 13 14
f 8 15 9
f 9 15 16
f 9 16 31
f 9 31 52
f 9 52 32
f 9 32 17
f 10 18 19
f 10 20 21
f 10 21 22
f 10 22 23
f 10 23 18
f 11 24 25
f 11 25 12
f 12 25 26
f 12 26 18
f 12 18 27
f 12 27 28
f 12 28 13
f 13 28 29
f 13 29 30
f 13 30 14
f 17 32 33
f 18 26 34
f 18 34 19
f 18 23 27
f 20 35 36
f 20 36 37
f 20 37 22
f 20 22 21
f 22 37 36
f 22 36 38
f 22 38 23
f 23 38 39
f 23 39 27
f 24 40 25
f 25 40 41
f 25 41 42
f 25 42 43
f 25 43 44
f 25 44 45
f 25 45 46
f 25 46 47
f 25 47 26
f 27 39 48
f 27 48 28
f 28 48 49
f 28 49 50
f 28 50 51
f 28 51 29
f 31 53 52
f 32 52 54
f 32 54 55
f 32 55 56
f 32 56 57
f 32 57 33
f 33 57 58
f 35 59 36
f 36 60 61
f 36 61 38
f 36 59 60
f 38 61 39
f 39 61 62
f 39 62 63
f 39 63 48
f 48 63 49
f 49 63 64
f 49 64 73
f 49 73 65
f 49 65 66
f 49 66 67
f 49 67 68
f 49 68 69
f 49 69 70
f 49 70 71
f 49 71 50
f 52 72 54
f 52 53 73
f 52 73 72
f 54 72 64
f 54 64 74
f 54 74 75
f 54 75 76
f 54 76 55
f 55 76 75
f 55 75 62
f 55 62 77
f 55 77 56
f 56 77 57
f 57 77 62
f 57 62 60
f 57 60 78
f 57 78 58
f 58 78 59
f 59 78 60
f 60 62 61
f 62 75 63
f 63 75 64
f 64 75 74
f 64 72 73

