# https://github.com/mikedh/trimesh
v 0.05803789 -0.00062784 -0.10906997
v 0.05790334 -0.00319499 -0.10906997
v 0.05767908 -0.00671959 -0.10958727
v 0.05781363 -0.00319499 -0.11013790
v 0.05789212 -0.00062784 -0.11044742
v 0.04966201 -0.00062784 -0.10906997
v 0.05769029 -0.00684084 -0.10906997
v 0.05772393 -0.00551964 -0.10978392
v 0.05710723 -0.01183716 -0.10906997
v 0.05672600 -0.01249358 -0.11073813
v 0.05701753 -0.01016894 -0.11073813
v 0.05735391 -0.00763106 -0.11051240
v 0.05743240 -0.00551964 -0.11094590
v 0.05751089 -0.00319499 -0.11129987
v 0.05760059 -0.00062784 -0.11160939
v 0.00194080 -0.03474080 -0.10906997
v -0.05646610 -0.00062784 -0.10940942
v 0.05680449 -0.01416181 -0.10906997
v 0.05642326 -0.01481823 -0.11073813
v 0.05553745 -0.01714288 -0.11222244
v 0.05570564 -0.01481823 -0.11251828
v 0.05586262 -0.01249358 -0.11278505
v 0.05651296 -0.00551964 -0.11306208
v 0.05758938 -0.00087034 -0.11158802
v 0.05671479 -0.00319499 -0.11306208
v 0.05686055 -0.00087034 -0.11306208
v 0.05687176 -0.00062784 -0.11306208
v 0.00194080 -0.04334116 -0.10906997
v -0.05647732 -0.00081599 -0.10940942
v -0.05651096 -0.00319499 -0.10940942
v -0.05629791 -0.00062784 -0.10971039
v 0.05670357 -0.01481823 -0.10906997
v 0.05606445 -0.01714288 -0.11073813
v 0.05541412 -0.01856443 -0.11200954
v 0.05474135 -0.01714288 -0.11338442
v 0.05495440 -0.01481823 -0.11367854
v 0.05515623 -0.01249358 -0.11394531
v 0.05527956 -0.01077100 -0.11412315
v 0.05589626 -0.01006441 -0.11323479
v 0.05625507 -0.00784429 -0.11306208
v 0.05536927 -0.00921984 -0.11425398
v 0.05560473 -0.00551964 -0.11451989
v 0.05570564 -0.00319499 -0.11464643
v 0.05675964 -0.00062784 -0.11324163
v 0.00500186 -0.04333280 -0.10906997
v -0.05648853 -0.00496356 -0.10940942
v -0.05647732 -0.00551964 -0.10940942
v -0.05642125 -0.00736765 -0.10940942
v -0.05634276 -0.00905678 -0.10940942
v -0.05621942 -0.01075428 -0.10940942
v -0.05609608 -0.01230126 -0.10940942
v -0.05607366 -0.01251867 -0.10940942
v -0.05575970 -0.01519034 -0.10940942
v -0.05536726 -0.01792891 -0.10940942
v -0.05487390 -0.02096015 -0.10940942
v -0.05440297 -0.02345204 -0.10940942
v -0.05426842 -0.02410428 -0.10940942
v -0.05404416 -0.02513699 -0.10940942
v -0.05395446 -0.02548820 -0.10940942
v -0.05376384 -0.02614880 -0.10940942
v -0.05336019 -0.02723586 -0.10940942
v -0.05220528 -0.02987409 -0.10940942
v -0.05189132 -0.03051379 -0.10940942
v -0.05143160 -0.03140016 -0.10940942
v -0.05120735 -0.03175137 -0.10940942
v -0.05102795 -0.03201059 -0.10940942
v -0.05006366 -0.03311020 -0.10940942
v -0.04908815 -0.03417218 -0.10940942
v -0.04894239 -0.03431015 -0.10940942
v -0.04878541 -0.03443976 -0.10940942
v -0.04773141 -0.03514218 -0.10940942
v -0.04701380 -0.03558118 -0.10940942
v -0.04487218 -0.03685221 -0.10940942
v -0.04468156 -0.03694002 -0.10940942
v -0.04441246 -0.03704872 -0.10940942
v -0.04259600 -0.03767169 -0.10940942
v -0.03955736 -0.03870441 -0.10940942
v -0.03821184 -0.03914759 -0.10940942
v -0.03778576 -0.03926884 -0.10940942
v -0.03744938 -0.03935665 -0.10940942
v -0.03566656 -0.03978311 -0.10940942
v -0.03411921 -0.04014268 -0.10940942
v -0.03299794 -0.04038099 -0.10940942
v -0.03000415 -0.04100396 -0.10940942
v -0.02946595 -0.04111268 -0.10940942
v -0.02778404 -0.04143043 -0.10940942
v -0.02771677 -0.04144298 -0.10940942
v -0.02750373 -0.04147642 -0.10940942
v -0.02637124 -0.04163112 -0.10940942
v -0.02593395 -0.04168966 -0.10940942
v -0.02412871 -0.04191125 -0.10940942
v -0.02250287 -0.04210357 -0.10940942
v -0.02150493 -0.04221229 -0.10940942
v -0.02017063 -0.04234608 -0.10940942
v -0.01900451 -0.04245896 -0.10940942
v -0.01784960 -0.04255513 -0.10940942
v -0.01657135 -0.04264711 -0.10940942
v -0.01557342 -0.04270983 -0.10940942
v -0.01319633 -0.04285198 -0.10940942
v -0.00947372 -0.04300668 -0.10940942
v -0.00468590 -0.04314047 -0.10940942
v -0.00391222 -0.04315301 -0.10940942
v -0.00157999 -0.04317810 -0.10940942
v 0.00306207 -0.04250496 -0.11073813
v -0.05629791 -0.00087034 -0.10971637
v -0.05630913 -0.00319499 -0.10973604
v -0.05629791 -0.00551964 -0.10972322
v -0.05540090 -0.00062784 -0.11075181
v -0.05529998 -0.00087034 -0.11087835
v 0.05634477 -0.01714288 -0.10906997
v 0.05548139 -0.02123610 -0.10999168
v 0.05563837 -0.01939227 -0.11075523
v 0.05522350 -0.02011977 -0.11154099
v 0.05348554 -0.02410428 -0.11253025
v 0.05373221 -0.02175036 -0.11319973
v 0.05457316 -0.01939227 -0.11289535
v 0.05311552 -0.02094761 -0.11431810
v 0.05330613 -0.01946753 -0.11450791
v 0.05357524 -0.01714288 -0.11475587
v 0.05378827 -0.01481823 -0.11494911
v 0.05399011 -0.01249358 -0.11511156
v 0.05419194 -0.00784429 -0.11545785
v 0.05399011 -0.00565761 -0.11584944
v 0.05432649 -0.00319499 -0.11580840
v 0.05578413 -0.00087034 -0.11472253
v 0.05442740 -0.00062784 -0.11589134
v 0.05578413 -0.00062784 -0.11472936
v 0.00538309 -0.04248823 -0.11073813
v 0.00538309 -0.04332862 -0.10906997
v -0.05626427 -0.00784429 -0.10966507
v -0.05620821 -0.00929510 -0.10960522
v -0.05615215 -0.01084208 -0.10951715
v -0.05463843 -0.01480569 -0.11093991
v -0.05466086 -0.01714288 -0.11058079
v -0.05448146 -0.01946753 -0.11037388
v -0.05429084 -0.02178799 -0.11011567
v -0.05404416 -0.02410428 -0.10979931
v -0.05388718 -0.02533768 -0.10960265
v -0.05263136 -0.02617807 -0.11066289
v -0.05210437 -0.02875357 -0.11019860
v -0.05173435 -0.03028383 -0.10980786
v -0.05038882 -0.03106986 -0.11073385
v -0.04976091 -0.03281753 -0.11011139
v -0.04816871 -0.03351158 -0.11084928
v -0.04646438 -0.03420981 -0.11158802
v -0.04743989 -0.03494567 -0.11003872
v -0.04459186 -0.03690239 -0.10959239
v -0.04341453 -0.03712398 -0.10997117
v -0.04103744 -0.03747100 -0.11081251
v -0.03763999 -0.03922703 -0.10960095
v -0.03644023 -0.03939009 -0.10989764
v -0.03411921 -0.03967441 -0.11043544
v -0.02946595 -0.04048552 -0.11073813
v -0.03197759 -0.03987509 -0.11095103
v -0.02703279 -0.04098725 -0.11054233
v -0.02619184 -0.04156841 -0.10963771
v -0.02482389 -0.04166039 -0.10983779
v -0.02250287 -0.04180254 -0.11014987
v -0.02017063 -0.04193216 -0.11041835
v -0.01784960 -0.04203668 -0.11062270
v -0.01565191 -0.04202414 -0.11095615
v -0.01319633 -0.04226246 -0.11073813
v -0.01087531 -0.04234608 -0.11073813
v -0.00855428 -0.04240043 -0.11073813
v -0.00623325 -0.04245060 -0.11073813
v -0.00391222 -0.04248823 -0.11073813
v -0.00157999 -0.04250496 -0.11073813
v 0.00306207 -0.04171056 -0.11214891
v 0.00194080 -0.04212448 -0.11141958
v 0.00194080 -0.04171474 -0.11215147
v -0.05531120 -0.00319499 -0.11089801
v -0.05531120 -0.00551964 -0.11088519
v -0.05413386 -0.00062784 -0.11213609
v -0.05413386 -0.00087034 -0.11214036
v -0.05415629 -0.00319499 -0.11215404
v 0.05605324 -0.01880693 -0.10906997
v 0.05531320 -0.02277890 -0.10910418
v 0.05505531 -0.02192597 -0.11075523
v 0.05442740 -0.02410428 -0.11073813
v 0.05319401 -0.02565126 -0.11212326
v 0.05256609 -0.02410428 -0.11369052
v 0.05288005 -0.02249041 -0.11406416
v 0.05200546 -0.02175036 -0.11500382
v 0.05165786 -0.01936718 -0.11579473
v 0.05206152 -0.01714288 -0.11591785
v 0.05228578 -0.01481823 -0.11611108
v 0.05251003 -0.01249358 -0.11627354
v 0.05272307 -0.01016894 -0.11639666
v 0.05290247 -0.00784429 -0.11648900
v 0.05300339 -0.00652727 -0.11653689
v 0.05309309 -0.00497611 -0.11658306
v 0.05564958 -0.00062784 -0.11484993
v 0.05317158 -0.00319499 -0.11662666
v 0.05326128 -0.00062784 -0.11667967
v 0.00538309 -0.04169802 -0.11212925
v 0.00771533 -0.04167711 -0.11210360
v 0.00771533 -0.04244224 -0.11073813
v 0.00726683 -0.04328262 -0.10906997
v -0.05526634 -0.00784429 -0.11082705
v -0.05396567 -0.01249358 -0.11198902
v -0.05390961 -0.01401966 -0.11193858
v -0.05381991 -0.01557081 -0.11184966
v -0.05370778 -0.01714288 -0.11174277
v -0.05351717 -0.01946753 -0.11153586
v -0.05327049 -0.02178799 -0.11127764
v -0.05296774 -0.02410428 -0.11096129
v -0.05161101 -0.02545893 -0.11195397
v -0.05135312 -0.02701009 -0.11172397
v -0.05100552 -0.02875357 -0.11136058
v -0.04946939 -0.03030474 -0.11210188
v -0.04890875 -0.03185171 -0.11166069
v -0.04736140 -0.03266283 -0.11220876
v -0.04491703 -0.03479097 -0.11211642
v -0.04553373 -0.03563972 -0.11059020
v -0.04341453 -0.03633795 -0.11113400
v -0.04178869 -0.03670588 -0.11163676
v -0.04024134 -0.03699855 -0.11203263
v -0.03855944 -0.03842428 -0.11052009
v -0.03644023 -0.03872531 -0.11105876
v -0.03411921 -0.03903471 -0.11159828
v -0.03286339 -0.03919359 -0.11186761
v -0.03132725 -0.03936919 -0.11211984
v -0.02946595 -0.03954897 -0.11237464
v -0.02482389 -0.04108759 -0.11099891
v -0.02250287 -0.04123810 -0.11131185
v -0.02017063 -0.04137608 -0.11158033
v -0.01784960 -0.04147642 -0.11178553
v -0.01650408 -0.04152659 -0.11187530
v -0.01495672 -0.04157677 -0.11196081
v -0.01319633 -0.04161439 -0.11201211
v -0.01087531 -0.04163948 -0.11205144
v -0.00855428 -0.04166457 -0.11208735
v -0.00391222 -0.04169802 -0.11213352
v -0.00623325 -0.04168548 -0.11211471
v -0.00157999 -0.04170638 -0.11214549
v 0.00074104 -0.04171474 -0.11215318
v 0.00306207 -0.04082419 -0.11331088
v 0.00194080 -0.04082419 -0.11331344
v -0.05414508 -0.00551964 -0.11214891
v -0.05411144 -0.00784429 -0.11211214
v -0.05270985 -0.00062784 -0.11312193
v -0.05270985 -0.00087034 -0.11313133
v -0.05270985 -0.00319499 -0.11316809
v -0.05270985 -0.00551964 -0.11316980
v 0.05531320 -0.02277890 -0.10906997
v 0.05530199 -0.02282907 -0.10906997
v 0.05436013 -0.02577669 -0.10906997
v 0.05325007 -0.02805953 -0.11004385
v 0.05357524 -0.02642893 -0.11078686
v 0.05283520 -0.02720660 -0.11159314
v 0.05191576 -0.02653763 -0.11312278
v 0.05100753 -0.02586449 -0.11448910
v 0.05139997 -0.02410428 -0.11480889
v 0.05021143 -0.02179218 -0.11628978
v 0.05052538 -0.02007378 -0.11646249
v 0.05076085 -0.01852680 -0.11657707
v 0.05089540 -0.01714288 -0.11664889
v 0.05111966 -0.01481823 -0.11675492
v 0.05135512 -0.01249358 -0.11684299
v 0.05155695 -0.01016894 -0.11691566
v 0.05173635 -0.00784429 -0.11696611
v 0.05208395 -0.00565761 -0.11693276
v 0.05185969 -0.00319499 -0.11711145
v 0.05185969 -0.00087034 -0.11718072
v 0.05185969 -0.00062784 -0.11718585
v 0.00538309 -0.04081164 -0.11329122
v 0.00771533 -0.04079074 -0.11326557
v 0.01003636 -0.04164367 -0.11206341
v 0.00771533 -0.04326590 -0.10906997
v 0.01235739 -0.04160186 -0.11199415
v 0.01003636 -0.04235444 -0.11073813
v -0.05404416 -0.01016894 -0.11205229
v -0.05270985 -0.01249358 -0.11290646
v -0.05291168 -0.01480569 -0.11259609
v -0.05254166 -0.01714288 -0.11264140
v -0.05235105 -0.01946753 -0.11252683
v -0.05210437 -0.02178799 -0.11236523
v -0.05180162 -0.02410428 -0.11212155
v -0.05050095 -0.02631186 -0.11259267
v -0.04983940 -0.02875357 -0.11239602
v -0.04797810 -0.02883302 -0.11364520
v -0.04673348 -0.02965667 -0.11414881
v -0.04810144 -0.03107823 -0.11262687
v -0.04587011 -0.03124546 -0.11387007
v -0.04445731 -0.03213184 -0.11417446
v -0.04571313 -0.03342378 -0.11265167
v -0.04357151 -0.03342796 -0.11372728
v -0.04168778 -0.03422235 -0.11400346
v -0.04341453 -0.03517563 -0.11247895
v -0.04095895 -0.03568571 -0.11301847
v -0.03876126 -0.03609127 -0.11347505
v -0.03644023 -0.03651355 -0.11388461
v -0.03876126 -0.03722851 -0.11231393
v -0.03197759 -0.03852044 -0.11296119
v -0.03644023 -0.03756299 -0.11272434
v -0.03414164 -0.03774695 -0.11323735
v -0.02946595 -0.03862079 -0.11353404
v -0.02714492 -0.03885074 -0.11381022
v -0.02714492 -0.03974548 -0.11265080
v -0.02482389 -0.03992526 -0.11288081
v -0.02017063 -0.04033919 -0.11306208
v -0.02251408 -0.03993363 -0.11326215
v -0.01784960 -0.04053570 -0.11306208
v -0.01319633 -0.04072802 -0.11317322
v -0.01565191 -0.04083673 -0.11286628
v -0.01087531 -0.04076147 -0.11321341
v -0.00855428 -0.04078237 -0.11324932
v -0.00623325 -0.04080328 -0.11327754
v -0.00391222 -0.04081582 -0.11329550
v -0.00157999 -0.04082001 -0.11330746
v 0.00074104 -0.04082419 -0.11331516
v 0.00306207 -0.03966604 -0.11464900
v 0.00538309 -0.03965350 -0.11463617
v 0.00194080 -0.03966604 -0.11465070
v -0.05270985 -0.00784429 -0.11311423
v -0.05270985 -0.01016894 -0.11301847
v -0.05121856 -0.00062784 -0.11404791
v -0.05122978 -0.00087034 -0.11405048
v -0.05126341 -0.00319499 -0.11407357
v -0.05127463 -0.00551964 -0.11408126
v -0.05122978 -0.00784429 -0.11406245
v 0.05412466 -0.02642893 -0.10906997
v 0.05333977 -0.02847763 -0.10906997
v 0.05284641 -0.02958142 -0.10906997
v 0.05242033 -0.02880375 -0.11078686
v 0.05082813 -0.03007478 -0.11204288
v 0.05123178 -0.02875357 -0.11251230
v 0.05059266 -0.02741983 -0.11412145
v 0.04970686 -0.02655854 -0.11511412
v 0.04948260 -0.02426316 -0.11606833
v 0.04830527 -0.02513699 -0.11651636
v 0.04867529 -0.02359001 -0.11668737
v 0.04904531 -0.02179218 -0.11683699
v 0.04966201 -0.01936718 -0.11688829
v 0.04953866 -0.01714288 -0.11710034
v 0.04953866 -0.01481823 -0.11724485
v 0.04953866 -0.01249358 -0.11738165
v 0.04953866 -0.01016894 -0.11747997
v 0.04953866 -0.00784429 -0.11753555
v 0.04953866 -0.00551964 -0.11757658
v 0.04953866 -0.00319499 -0.11760993
v 0.04953866 -0.00087034 -0.11763473
v 0.04953866 -0.00062784 -0.11763644
v 0.00771533 -0.03962841 -0.11461138
v 0.01003636 -0.03959496 -0.11459000
v 0.01235739 -0.03956151 -0.11456349
v 0.01003636 -0.04075729 -0.11322539
v 0.01235739 -0.04072384 -0.11315612
v 0.01003636 -0.04315719 -0.10906997
v 0.01235739 -0.04224991 -0.11073813
v 0.01389353 -0.04156423 -0.11193515
v -0.05109522 -0.01249358 -0.11397780
v -0.05098310 -0.01481823 -0.11390256
v -0.05082612 -0.01714288 -0.11380167
v -0.05065793 -0.01946753 -0.11368709
v -0.05048974 -0.02178799 -0.11352464
v -0.04923392 -0.02297959 -0.11422918
v -0.05016457 -0.02389941 -0.11339126
v -0.04897602 -0.02453074 -0.11408896
v -0.04863964 -0.02642893 -0.11388546
v -0.04714836 -0.02810970 -0.11435401
v -0.04587011 -0.02883302 -0.11472253
v -0.04518614 -0.03058486 -0.11448312
v -0.04357151 -0.03124546 -0.11481487
v -0.04289875 -0.03267537 -0.11445918
v -0.04012921 -0.03466554 -0.11429330
v -0.03493774 -0.03678113 -0.11412743
v -0.03339038 -0.03701109 -0.11432580
v -0.03178697 -0.03720342 -0.11449423
v -0.02946595 -0.03745846 -0.11470287
v -0.02482389 -0.03904725 -0.11404193
v -0.02329897 -0.03916014 -0.11416847
v -0.02175161 -0.03926466 -0.11427364
v -0.02017063 -0.03934411 -0.11434803
v -0.01784960 -0.03943191 -0.11443438
v -0.01552857 -0.03951134 -0.11450791
v -0.01319633 -0.03956570 -0.11456349
v -0.01087531 -0.03959915 -0.11459000
v -0.00623325 -0.03964096 -0.11462591
v -0.00855428 -0.03962005 -0.11460881
v -0.00391222 -0.03965350 -0.11463959
v -0.00157999 -0.03965768 -0.11464985
v 0.00306207 -0.03805217 -0.11577848
v 0.00538309 -0.03805217 -0.11577078
v 0.00771533 -0.03805217 -0.11574428
v 0.01003636 -0.03805217 -0.11571606
v 0.01235739 -0.03805217 -0.11568357
v 0.00074104 -0.03966186 -0.11465156
v -0.05117371 -0.01016894 -0.11402654
v -0.05005244 -0.00062784 -0.11465156
v -0.05006366 -0.00087034 -0.11465498
v -0.05009729 -0.00319499 -0.11466695
v -0.05010851 -0.00551964 -0.11465584
v -0.05007487 -0.00784429 -0.11463104
v -0.05001881 -0.01016894 -0.11461052
v 0.05085055 -0.03241197 -0.10906997
v 0.05073842 -0.03228236 -0.10962916
v 0.05115329 -0.03093607 -0.11053719
v 0.05013294 -0.03162594 -0.11117846
v 0.04858559 -0.03242451 -0.11210702
v 0.04929199 -0.03081064 -0.11285003
v 0.04845104 -0.02999952 -0.11428048
v 0.05008809 -0.02875357 -0.11367256
v 0.04893318 -0.02875357 -0.11462249
v 0.04785676 -0.02642893 -0.11629919
v 0.04620850 -0.02775849 -0.11661127
v 0.04669064 -0.02642893 -0.11678912
v 0.04739704 -0.02426316 -0.11698662
v 0.04721764 -0.02179218 -0.11736882
v 0.04721764 -0.01946753 -0.11752187
v 0.04721764 -0.01714288 -0.11757316
v 0.04488540 -0.01946753 -0.11771938
v 0.04721764 -0.00062784 -0.11768774
v 0.01467841 -0.03805217 -0.11561004
v 0.01467841 -0.03949880 -0.11450963
v 0.01466720 -0.04082419 -0.11285089
v 0.01227890 -0.04302758 -0.10906997
v 0.01466720 -0.04201996 -0.11094333
v 0.01544088 -0.04150987 -0.11185393
v -0.04994032 -0.01249358 -0.11458059
v -0.04981697 -0.01481823 -0.11452929
v -0.04967121 -0.01714288 -0.11446174
v -0.04950302 -0.01946753 -0.11437710
v -0.04932362 -0.02178799 -0.11428048
v -0.04805658 -0.02178799 -0.11486103
v -0.04814629 -0.02389941 -0.11460026
v -0.04748474 -0.02642893 -0.11452587
v -0.04573556 -0.02642893 -0.11525948
v -0.04341453 -0.02875357 -0.11561004
v -0.04108229 -0.03107823 -0.11558267
v -0.04098138 -0.03342796 -0.11466438
v -0.03876126 -0.03340287 -0.11523041
v -0.03876126 -0.03492894 -0.11447372
v -0.03644023 -0.03535123 -0.11473963
v -0.03178697 -0.03572752 -0.11539372
v -0.03414164 -0.03589476 -0.11486959
v -0.02946595 -0.03572752 -0.11574000
v -0.02714492 -0.03768842 -0.11486788
v -0.02482389 -0.03788492 -0.11498758
v -0.02251408 -0.03825286 -0.11493885
v -0.02017063 -0.03805217 -0.11527829
v -0.01784960 -0.03805217 -0.11541424
v -0.01552857 -0.03805217 -0.11552710
v -0.01319633 -0.03805217 -0.11561346
v -0.01087531 -0.03805217 -0.11566561
v -0.00855428 -0.03805217 -0.11570153
v -0.00623325 -0.03805217 -0.11572461
v -0.00157999 -0.03805217 -0.11575710
v 0.00074104 -0.03805217 -0.11576993
v 0.00538309 -0.03681041 -0.11651979
v 0.00771533 -0.03680204 -0.11651722
v 0.01235739 -0.03677696 -0.11650439
v 0.01467841 -0.03673514 -0.11648472
v -0.04805658 -0.00062784 -0.11550060
v -0.04805658 -0.00087034 -0.11550658
v -0.04805658 -0.00319499 -0.11553565
v -0.04805658 -0.00551964 -0.11552197
v -0.04805658 -0.00784429 -0.11547922
v -0.04805658 -0.01016894 -0.11543048
v -0.04805658 -0.01249358 -0.11536893
v 0.04877620 -0.03423489 -0.10906997
v 0.04827163 -0.03449830 -0.10942994
v 0.04943775 -0.03279662 -0.11053719
v 0.04738583 -0.03411365 -0.11088946
v 0.04588333 -0.03446903 -0.11176415
v 0.04721764 -0.03289279 -0.11261575
v 0.04600667 -0.03221128 -0.11419498
v 0.04721764 -0.03169702 -0.11377601
v 0.04721764 -0.03053051 -0.11464900
v 0.04707188 -0.02861978 -0.11577848
v 0.04540119 -0.02931383 -0.11628295
v 0.04385383 -0.03000370 -0.11658990
v 0.04472842 -0.02861978 -0.11677971
v 0.04488540 -0.02642893 -0.11728161
v 0.04488540 -0.02410428 -0.11757316
v 0.04488540 -0.02179218 -0.11768090
v 0.04256437 -0.02410428 -0.11774503
v 0.04256437 -0.02179218 -0.11776640
v 0.04024335 -0.02410428 -0.11779034
v 0.03792232 -0.02410428 -0.11779547
v 0.03326906 -0.02642893 -0.11779634
v -0.01784960 -0.00062784 -0.11745005
v 0.01701065 -0.03665571 -0.11644881
v 0.01933168 -0.03657627 -0.11640093
v 0.01701065 -0.03805217 -0.11549033
v 0.01701065 -0.03941936 -0.11442669
v 0.01701065 -0.04047716 -0.11306208
v 0.01467841 -0.04287707 -0.10906997
v 0.01701065 -0.04203250 -0.11055601
v 0.02080054 -0.03924376 -0.11425824
v 0.01933168 -0.04025557 -0.11306208
v 0.02160786 -0.03988764 -0.11325788
v 0.01701065 -0.04144298 -0.11171798
v -0.04805658 -0.01481823 -0.11528000
v -0.04805658 -0.01714288 -0.11516970
v -0.04805658 -0.01946753 -0.11503803
v -0.04573556 -0.02178799 -0.11575796
v -0.04573556 -0.02410428 -0.11555275
v -0.04341453 -0.02642893 -0.11600506
v -0.04097017 -0.02864069 -0.11623591
v -0.03923220 -0.02933892 -0.11643001
v -0.03858186 -0.03087754 -0.11615212
v -0.03644023 -0.03340287 -0.11570409
v -0.03178697 -0.03370390 -0.11628465
v -0.02946595 -0.03411365 -0.11642231
v -0.02778404 -0.03440214 -0.11650439
v -0.02706643 -0.03552683 -0.11610852
v -0.02482389 -0.03589894 -0.11614956
v -0.02250287 -0.03607455 -0.11624189
v -0.02017063 -0.03622924 -0.11631543
v -0.01784960 -0.03635049 -0.11636417
v -0.01552857 -0.03645084 -0.11640350
v -0.01319633 -0.03653863 -0.11643513
v -0.01087531 -0.03660972 -0.11645993
v -0.00855428 -0.03666407 -0.11647788
v 0.00194080 -0.03677696 -0.11650866
v 0.00306207 -0.03678532 -0.11651380
v 0.00538309 -0.03564808 -0.11687718
v 0.00771533 -0.03564390 -0.11688060
v 0.01003636 -0.03563135 -0.11688487
v 0.01235739 -0.03561463 -0.11688916
v 0.01467841 -0.03556864 -0.11689172
v 0.01701065 -0.03550174 -0.11689172
v 0.01933168 -0.03541394 -0.11688231
v 0.02165271 -0.03531360 -0.11686606
v -0.04576920 -0.00062784 -0.11624020
v -0.04579162 -0.00087034 -0.11623677
v -0.04584768 -0.00319499 -0.11625301
v -0.04581405 -0.00551964 -0.11625130
v -0.04573556 -0.01016894 -0.11618290
v -0.04573556 -0.01249358 -0.11612818
v -0.04573556 -0.01481823 -0.11606833
v -0.04573556 -0.01714288 -0.11599480
v 0.04837255 -0.03457355 -0.10906997
v 0.04790162 -0.03485787 -0.10906997
v 0.04717279 -0.03524670 -0.10906997
v 0.04672428 -0.03495821 -0.11021485
v 0.04501995 -0.03543485 -0.11088946
v 0.04432477 -0.03486623 -0.11228315
v 0.04516572 -0.03355757 -0.11323991
v 0.04256437 -0.03428506 -0.11392821
v 0.04445932 -0.03264610 -0.11457632
v 0.04493025 -0.03110749 -0.11542963
v 0.04256437 -0.03152141 -0.11613075
v 0.04082641 -0.03196878 -0.11641376
v 0.04256437 -0.03035909 -0.11673354
v 0.04256437 -0.02875357 -0.11722688
v 0.04256437 -0.02642893 -0.11762448
v 0.04024335 -0.02642893 -0.11776128
v 0.03792232 -0.02642893 -0.11780316
v 0.03559008 -0.02642893 -0.11780060
v 0.03094803 -0.02875357 -0.11779804
v 0.02862700 -0.02875357 -0.11779034
v -0.02017063 -0.00062784 -0.11743978
v 0.02397374 -0.02875357 -0.11776982
v 0.02397374 -0.03520071 -0.11684042
v 0.02630598 -0.03507946 -0.11679851
v 0.02165271 -0.03647592 -0.11633424
v 0.01933168 -0.03805217 -0.11534413
v 0.02160786 -0.03825286 -0.11500297
v 0.01933168 -0.03931066 -0.11432751
v 0.01701065 -0.04268892 -0.10906997
v 0.01933168 -0.04192379 -0.11033370
v 0.02397374 -0.03789747 -0.11509104
v 0.02630598 -0.03774277 -0.11499870
v 0.02235911 -0.03915596 -0.11416078
v 0.02397374 -0.03989600 -0.11287653
v 0.01933168 -0.04132173 -0.11149567
v -0.04573556 -0.01946753 -0.11590075
v -0.04370606 -0.02178799 -0.11633937
v -0.04325755 -0.02408756 -0.11628550
v -0.04206901 -0.02485268 -0.11651038
v -0.04168778 -0.02642893 -0.11643257
v -0.04011800 -0.02778776 -0.11658562
v -0.03768485 -0.02996607 -0.11656082
v -0.03644023 -0.03147542 -0.11634878
v -0.03466863 -0.03193951 -0.11647788
v -0.03398466 -0.03320636 -0.11616068
v -0.03312128 -0.03230326 -0.11656510
v -0.03178697 -0.03254158 -0.11662751
v -0.02946595 -0.03295132 -0.11673012
v -0.02706643 -0.03354084 -0.11677201
v -0.02623669 -0.03461955 -0.11656681
v -0.02482389 -0.03473662 -0.11660529
v -0.02017063 -0.03507110 -0.11670532
v -0.02250287 -0.03491222 -0.11666001
v -0.01784960 -0.03518817 -0.11674038
v -0.01552857 -0.03528851 -0.11676688
v -0.01087531 -0.03544739 -0.11680109
v -0.01319633 -0.03537631 -0.11678655
v -0.00855428 -0.03550174 -0.11681562
v -0.00623325 -0.03552683 -0.11682930
v 0.00194080 -0.03561463 -0.11686692
v 0.00306207 -0.03562299 -0.11687120
v 0.01467841 -0.03340705 -0.11742184
v 0.01701065 -0.03340705 -0.11743038
v 0.01933168 -0.03340705 -0.11742269
v 0.02165271 -0.03340705 -0.11740388
v 0.02397374 -0.03340705 -0.11737394
v 0.02630598 -0.03340705 -0.11732607
v -0.04462550 -0.00062784 -0.11656082
v -0.04463672 -0.00087034 -0.11656339
v -0.04468156 -0.00319499 -0.11657621
v -0.04464792 -0.00551964 -0.11656681
v -0.04460308 -0.00702063 -0.11655314
v -0.04552251 -0.00781502 -0.11629064
v -0.04435640 -0.01249358 -0.11650268
v -0.04425548 -0.01481823 -0.11647874
v -0.04413214 -0.01714288 -0.11644796
v 0.04434719 -0.03673514 -0.10906997
v 0.04367443 -0.03686894 -0.10952400
v 0.04276620 -0.03651355 -0.11083388
v 0.04105066 -0.03675605 -0.11167181
v 0.04256437 -0.03526761 -0.11276795
v 0.04139825 -0.03456520 -0.11422148
v 0.04256437 -0.03312274 -0.11496877
v 0.04034426 -0.03344050 -0.11546041
v 0.03792232 -0.03370808 -0.11597855
v 0.03927905 -0.03231162 -0.11658818
v 0.04013122 -0.03114512 -0.11687376
v 0.03792232 -0.03108240 -0.11720466
v 0.04024335 -0.02875357 -0.11752016
v 0.03792232 -0.02875357 -0.11766807
v 0.03559008 -0.02875357 -0.11774930
v 0.03326906 -0.02875357 -0.11778949
v 0.02862700 -0.03108240 -0.11769030
v 0.02630598 -0.03108240 -0.11769629
v 0.02397374 -0.03108240 -0.11769886
v 0.02165271 -0.03108240 -0.11769971
v 0.01933168 -0.03108240 -0.11769459
v -0.02250287 -0.00062784 -0.11742610
v 0.02165271 -0.02875357 -0.11775699
v 0.02862700 -0.03340705 -0.11725254
v 0.02862700 -0.03492476 -0.11673525
v 0.02397374 -0.03636304 -0.11625301
v 0.02630598 -0.03624596 -0.11616068
v 0.01933168 -0.04247151 -0.10906997
v 0.02165271 -0.04180254 -0.11009771
v 0.02862700 -0.03609127 -0.11602986
v 0.02862700 -0.03756299 -0.11486788
v 0.02397374 -0.03905562 -0.11403680
v 0.02630598 -0.03974548 -0.11267988
v 0.02165271 -0.04118793 -0.11125968
v -0.04394153 -0.01946753 -0.11640264
v -0.04255115 -0.02178799 -0.11661640
v -0.04237175 -0.02330152 -0.11657707
v -0.04121685 -0.02408756 -0.11673696
v -0.04052166 -0.02642893 -0.11666684
v -0.03876126 -0.02642893 -0.11691651
v -0.03858186 -0.02864069 -0.11666343
v -0.03644023 -0.02875357 -0.11689172
v -0.03644023 -0.03031310 -0.11663606
v -0.03398466 -0.03113258 -0.11672498
v -0.03178697 -0.03107823 -0.11693276
v -0.02946595 -0.03107823 -0.11709863
v -0.02482389 -0.03340287 -0.11692848
v -0.02017063 -0.03340287 -0.11708153
v -0.02250287 -0.03340287 -0.11701569
v -0.01784960 -0.03340287 -0.11713797
v -0.01552857 -0.03340287 -0.11718585
v -0.01319633 -0.03340287 -0.11722089
v -0.01087531 -0.03340287 -0.11724485
v -0.00855428 -0.03340287 -0.11726792
v -0.00623325 -0.03340287 -0.11729016
v -0.00391222 -0.03340287 -0.11731154
v 0.00074104 -0.03340287 -0.11734744
v 0.00194080 -0.03340705 -0.11735429
v 0.00306207 -0.03340705 -0.11736113
v 0.03094803 -0.03108240 -0.11765696
v -0.04363878 -0.00062784 -0.11675150
v -0.04341453 -0.00087034 -0.11679937
v -0.04341453 -0.00319499 -0.11681562
v -0.04341453 -0.00551964 -0.11679937
v -0.04308936 -0.01481823 -0.11672413
v -0.04297724 -0.01714288 -0.11670619
v -0.04453580 -0.00856760 -0.11653859
v -0.04278662 -0.01946753 -0.11666770
v 0.04387626 -0.03695256 -0.10906997
v 0.04322593 -0.03721178 -0.10906997
v 0.04257559 -0.03744592 -0.10906997
v 0.04212708 -0.03717415 -0.11012251
v 0.04025456 -0.03749191 -0.11083388
v 0.03950331 -0.03704036 -0.11211214
v 0.04045639 -0.03580696 -0.11316724
v 0.03792232 -0.03637558 -0.11361698
v 0.03985090 -0.03485787 -0.11450706
v 0.03792232 -0.03521325 -0.11481658
v 0.03559008 -0.03410110 -0.11627696
v 0.03380727 -0.03438541 -0.11645395
v 0.03792232 -0.03254576 -0.11670619
v 0.03559008 -0.03294296 -0.11686606
v 0.03559008 -0.03108240 -0.11744407
v 0.03326906 -0.03108240 -0.11758087
v 0.01701065 -0.03108240 -0.11767919
v -0.02505936 -0.00062784 -0.11741071
v -0.01784960 -0.02875357 -0.11749022
v -0.02017063 -0.02642893 -0.11748938
v -0.02946595 -0.00062784 -0.11738335
v -0.02714492 -0.00062784 -0.11739790
v 0.03094803 -0.03340705 -0.11712258
v 0.03094803 -0.03472408 -0.11663521
v 0.02165271 -0.04223319 -0.10906997
v 0.02397374 -0.04105414 -0.11098095
v 0.02397374 -0.04165621 -0.10981897
v 0.03224870 -0.03459864 -0.11656510
v 0.03094803 -0.03589058 -0.11584688
v 0.02630598 -0.03890092 -0.11384014
v 0.03094803 -0.03735394 -0.11468491
v 0.02862700 -0.03872949 -0.11359134
v 0.02862700 -0.03956151 -0.11243107
v -0.04108229 -0.02178799 -0.11687547
v -0.03876126 -0.02410428 -0.11706015
v -0.03644023 -0.02642893 -0.11711916
v -0.03411921 -0.02875357 -0.11708922
v -0.02714492 -0.03107823 -0.11721833
v -0.03178697 -0.02875357 -0.11723886
v -0.02482389 -0.03107823 -0.11729956
v -0.02250287 -0.03107823 -0.11734658
v -0.02017063 -0.03107823 -0.11737736
v -0.01784960 -0.03107823 -0.11740730
v -0.01552857 -0.03107823 -0.11743636
v -0.01319633 -0.03107823 -0.11745946
v -0.01087531 -0.03107823 -0.11747655
v -0.04342574 -0.00062784 -0.11678997
v -0.04108229 -0.00062784 -0.11709607
v -0.04108229 -0.00087034 -0.11709863
v -0.04108229 -0.00319499 -0.11710205
v -0.04108229 -0.00551964 -0.11708922
v -0.04108229 -0.00784429 -0.11707126
v -0.04108229 -0.01481823 -0.11701056
v -0.04108229 -0.01714288 -0.11698662
v -0.04108229 -0.01946753 -0.11694131
v 0.04015364 -0.03830721 -0.10906997
v 0.03792232 -0.03905143 -0.10909306
v 0.03792232 -0.03829049 -0.11073813
v 0.03375120 -0.03904307 -0.11154612
v 0.03792232 -0.03729122 -0.11245672
v 0.03609465 -0.03668497 -0.11397866
v 0.03454730 -0.03692329 -0.11425740
v 0.03542189 -0.03583623 -0.11495680
v 0.03312329 -0.03551429 -0.11572547
v 0.03312329 -0.03352412 -0.11689600
v -0.02017063 -0.02875357 -0.11747313
v -0.02250287 -0.02642893 -0.11747313
v -0.02714492 -0.02410428 -0.11743978
v -0.02482389 -0.02410428 -0.11745518
v -0.03178697 -0.00062784 -0.11736455
v 0.02397374 -0.04195724 -0.10906997
v 0.02617142 -0.04096634 -0.11054233
v 0.02530804 -0.04156841 -0.10963600
v 0.03094803 -0.03851208 -0.11328352
v 0.03326906 -0.03709053 -0.11442754
v 0.03094803 -0.03935665 -0.11212155
v -0.03876126 -0.02178799 -0.11712514
v -0.03644023 -0.02410428 -0.11720124
v -0.03411921 -0.02642893 -0.11725167
v -0.02946595 -0.02875357 -0.11733717
v -0.02714492 -0.02875357 -0.11739361
v -0.02482389 -0.02875357 -0.11742782
v -0.02250287 -0.02875357 -0.11745261
v -0.03876126 -0.00062784 -0.11722089
v -0.03876126 -0.00087034 -0.11722175
v -0.03876126 -0.00319499 -0.11722431
v -0.03876126 -0.00784429 -0.11720978
v -0.03876126 -0.01016894 -0.11720210
v -0.03876126 -0.01249358 -0.11719269
v -0.03876126 -0.01714288 -0.11716875
v -0.03876126 -0.01946753 -0.11715336
v 0.03792232 -0.03905562 -0.10906997
v 0.03624042 -0.03949880 -0.10906997
v 0.03673378 -0.03920613 -0.10955562
v 0.03580312 -0.03886747 -0.11075779
v 0.03517521 -0.03940682 -0.10999682
v 0.03308965 -0.03957406 -0.11075779
v 0.03220385 -0.03923958 -0.11193772
v 0.03542189 -0.03750027 -0.11314843
v 0.03308965 -0.03834066 -0.11285259
v -0.02714492 -0.02642893 -0.11743466
v -0.02482389 -0.02642893 -0.11745432
v -0.02946595 -0.02410428 -0.11741413
v -0.02946595 -0.02178799 -0.11741413
v -0.03411921 -0.00062784 -0.11733633
v 0.02573413 -0.04171056 -0.10906997
v 0.02862700 -0.04046462 -0.11073813
v 0.02686661 -0.04143879 -0.10930340
v -0.03644023 -0.02178799 -0.11723544
v -0.03411921 -0.02410428 -0.11730041
v -0.03178697 -0.02642893 -0.11734146
v -0.02946595 -0.02642893 -0.11740046
v -0.03644023 -0.00062784 -0.11729102
v -0.03644023 -0.00087034 -0.11729186
v -0.03644023 -0.00319499 -0.11729358
v -0.03644023 -0.00551964 -0.11729186
v -0.03644023 -0.01016894 -0.11728588
v -0.03644023 -0.01249358 -0.11727989
v -0.03644023 -0.01946753 -0.11725339
v 0.03322420 -0.04023048 -0.10906997
v 0.03085833 -0.04073220 -0.10906997
v 0.03094803 -0.04003397 -0.11073813
v -0.03178697 -0.02410428 -0.11736796
v -0.03178697 -0.02178799 -0.11737394
v -0.03411921 -0.00087034 -0.11733633
v 0.02666478 -0.04155586 -0.10906997
v 0.02779726 -0.04135099 -0.10906997
v 0.02711329 -0.04147642 -0.10906997
v 0.02862700 -0.04118793 -0.10906997
v -0.03411921 -0.02178799 -0.11731666
f 1 2 3
f 1 3 4
f 1 4 5
f 1 5 15
f 1 15 27
f 1 27 44
f 1 44 127
f 1 127 192
f 1 192 126
f 1 126 194
f 1 194 265
f 1 265 343
f 1 343 413
f 1 413 482
f 1 482 554
f 1 554 631
f 1 631 695
f 1 695 699
f 1 699 698
f 1 698 747
f 1 747 782
f 1 782 790
f 1 790 761
f 1 761 725
f 1 725 724
f 1 724 670
f 1 670 601
f 1 601 526
f 1 526 454
f 1 454 390
f 1 390 317
f 1 317 241
f 1 241 173
f 1 173 108
f 1 108 31
f 1 31 17
f 1 17 6
f 1 6 16
f 1 16 28
f 1 28 45
f 1 45 129
f 1 129 198
f 1 198 269
f 1 269 349
f 1 349 417
f 1 417 488
f 1 488 562
f 1 562 637
f 1 637 702
f 1 702 748
f 1 748 783
f 1 783 803
f 1 803 805
f 1 805 804
f 1 804 806
f 1 806 798
f 1 798 797
f 1 797 770
f 1 770 769
f 1 769 733
f 1 733 680
f 1 680 679
f 1 679 678
f 1 678 610
f 1 610 536
f 1 536 535
f 1 535 534
f 1 534 461
f 1 461 396
f 1 396 324
f 1 324 323
f 1 323 322
f 1 322 247
f 1 247 246
f 1 246 245
f 1 245 176
f 1 176 110
f 1 110 32
f 1 32 18
f 1 18 9
f 1 9 7
f 1 7 2
f 2 7 3
f 3 8 4
f 3 7 9
f 3 9 10
f 3 10 11
f 3 11 12
f 3 12 13
f 3 13 8
f 4 8 13
f 4 13 14
f 4 14 15
f 4 15 5
f 6 17 16
f 9 18 19
f 9 19 10
f 10 19 20
f 10 20 11
f 11 20 21
f 11 21 22
f 11 22 23
f 11 23 13
f 11 13 12
f 13 23 14
f 14 24 15
f 14 23 24
f 15 24 25
f 15 25 26
f 15 26 27
f 16 17 29
f 16 29 30
f 16 30 28
f 17 31 29
f 18 32 19
f 19 32 110
f 19 110 33
f 19 33 34
f 19 34 20
f 20 34 35
f 20 35 36
f 20 36 37
f 20 37 21
f 21 37 22
f 22 37 38
f 22 38 39
f 22 39 40
f 22 40 23
f 23 25 24
f 23 40 38
f 23 38 41
f 23 41 42
f 23 42 25
f 25 42 43
f 25 43 26
f 26 43 44
f 26 44 27
f 28 30 46
f 28 46 47
f 28 47 48
f 28 48 49
f 28 49 50
f 28 50 51
f 28 51 52
f 28 52 53
f 28 53 54
f 28 54 55
f 28 55 56
f 28 56 57
f 28 57 58
f 28 58 59
f 28 59 60
f 28 60 61
f 28 61 62
f 28 62 63
f 28 63 64
f 28 64 65
f 28 65 66
f 28 66 67
f 28 67 68
f 28 68 69
f 28 69 70
f 28 70 71
f 28 71 72
f 28 72 73
f 28 73 74
f 28 74 75
f 28 75 76
f 28 76 77
f 28 77 78
f 28 78 79
f 28 79 80
f 28 80 81
f 28 81 82
f 28 82 83
f 28 83 84
f 28 84 85
f 28 85 86
f 28 86 87
f 28 87 88
f 28 88 89
f 28 89 90
f 28 90 91
f 28 91 92
f 28 92 93
f 28 93 94
f 28 94 95
f 28 95 96
f 28 96 97
f 28 97 98
f 28 98 99
f 28 99 100
f 28 100 101
f 28 101 102
f 28 102 103
f 28 103 104
f 28 104 45
f 29 31 105
f 29 105 30
f 30 105 106
f 30 106 107
f 30 107 46
f 31 108 109
f 31 109 105
f 33 110 111
f 33 111 112
f 33 112 34
f 34 112 111
f 34 111 113
f 34 113 114
f 34 114 115
f 34 115 116
f 34 116 35
f 35 116 117
f 35 117 118
f 35 118 119
f 35 119 36
f 36 119 37
f 37 119 120
f 37 120 38
f 38 40 39
f 38 120 121
f 38 121 41
f 41 121 42
f 42 121 122
f 42 122 123
f 42 123 124
f 42 124 43
f 43 125 44
f 43 124 126
f 43 126 125
f 44 125 127
f 45 104 128
f 45 128 129
f 46 107 47
f 47 107 130
f 47 130 48
f 48 130 49
f 49 130 131
f 49 131 132
f 49 132 50
f 50 132 51
f 51 132 133
f 51 133 52
f 52 133 134
f 52 134 53
f 53 134 135
f 53 135 54
f 54 135 136
f 54 136 55
f 55 136 56
f 56 136 137
f 56 137 57
f 57 137 58
f 58 137 138
f 58 138 59
f 59 138 60
f 60 138 139
f 60 139 140
f 60 140 61
f 61 140 141
f 61 141 62
f 62 141 63
f 63 141 64
f 64 141 142
f 64 142 65
f 65 142 66
f 66 142 143
f 66 143 67
f 67 143 68
f 68 143 69
f 69 144 145
f 69 145 146
f 69 146 70
f 69 143 144
f 70 146 71
f 71 146 72
f 72 146 73
f 73 147 74
f 73 146 147
f 74 147 75
f 75 147 76
f 76 147 148
f 76 148 77
f 77 148 149
f 77 149 78
f 78 150 79
f 78 149 150
f 79 150 80
f 80 150 151
f 80 151 81
f 81 151 82
f 82 151 152
f 82 152 83
f 83 152 84
f 84 153 85
f 84 152 154
f 84 154 153
f 85 153 86
f 86 153 87
f 87 153 155
f 87 155 88
f 88 155 156
f 88 156 89
f 89 156 90
f 90 157 91
f 90 156 157
f 91 157 92
f 92 157 158
f 92 158 93
f 93 159 94
f 93 158 159
f 94 159 95
f 95 159 96
f 96 159 160
f 96 160 97
f 97 160 98
f 98 160 161
f 98 161 99
f 99 161 162
f 99 162 100
f 100 162 163
f 100 163 101
f 101 163 164
f 101 164 165
f 101 165 166
f 101 166 102
f 102 166 103
f 103 166 167
f 103 167 104
f 104 168 128
f 104 167 169
f 104 169 170
f 104 170 168
f 105 109 171
f 105 171 106
f 106 171 172
f 106 172 107
f 107 172 130
f 108 173 109
f 109 173 174
f 109 174 175
f 109 175 171
f 110 176 111
f 111 177 178
f 111 178 113
f 111 176 177
f 113 178 179
f 113 179 114
f 114 180 181
f 114 181 182
f 114 182 115
f 114 179 180
f 115 182 117
f 115 117 116
f 117 182 183
f 117 183 118
f 118 183 184
f 118 184 119
f 119 184 185
f 119 185 186
f 119 186 120
f 120 186 187
f 120 187 121
f 121 187 188
f 121 188 122
f 122 188 123
f 123 188 189
f 123 189 190
f 123 190 124
f 124 190 191
f 124 191 126
f 125 126 192
f 125 192 127
f 126 191 193
f 126 193 194
f 128 168 195
f 128 195 196
f 128 196 197
f 128 197 129
f 129 197 198
f 130 172 199
f 130 199 200
f 130 200 201
f 130 201 131
f 131 201 132
f 132 201 133
f 133 201 202
f 133 202 134
f 134 202 203
f 134 203 135
f 135 203 204
f 135 204 136
f 136 204 205
f 136 205 137
f 137 205 206
f 137 206 138
f 138 206 139
f 139 207 208
f 139 208 140
f 139 206 207
f 140 208 209
f 140 209 141
f 141 209 210
f 141 210 142
f 142 210 211
f 142 211 143
f 143 211 144
f 144 211 212
f 144 212 145
f 145 212 213
f 145 213 146
f 146 213 214
f 146 214 147
f 147 214 215
f 147 215 216
f 147 216 148
f 148 216 149
f 149 216 217
f 149 217 218
f 149 218 150
f 150 219 151
f 150 218 219
f 151 219 220
f 151 220 152
f 152 220 221
f 152 221 154
f 153 154 222
f 153 222 223
f 153 223 224
f 153 224 155
f 154 221 222
f 155 224 156
f 156 224 157
f 157 224 225
f 157 225 158
f 158 225 226
f 158 226 159
f 159 226 160
f 160 227 228
f 160 228 161
f 160 226 227
f 161 228 229
f 161 229 162
f 162 230 163
f 162 229 230
f 163 230 164
f 164 230 165
f 165 230 231
f 165 231 232
f 165 232 166
f 166 233 167
f 166 232 234
f 166 234 233
f 167 233 235
f 167 235 236
f 167 236 169
f 168 237 266
f 168 266 195
f 168 170 237
f 169 236 170
f 170 238 237
f 170 236 311
f 170 311 238
f 171 175 172
f 172 175 239
f 172 239 240
f 172 240 199
f 173 241 242
f 173 242 174
f 174 242 243
f 174 243 175
f 175 243 244
f 175 244 239
f 176 245 177
f 177 245 246
f 177 246 247
f 177 247 179
f 177 179 178
f 179 247 248
f 179 248 249
f 179 249 180
f 180 249 250
f 180 250 251
f 180 251 181
f 181 251 252
f 181 252 182
f 182 252 253
f 182 253 183
f 183 253 254
f 183 254 255
f 183 255 184
f 184 255 185
f 185 255 256
f 185 256 186
f 186 256 187
f 187 256 257
f 187 257 188
f 188 257 258
f 188 258 259
f 188 259 189
f 189 259 190
f 190 259 260
f 190 260 191
f 191 260 261
f 191 261 262
f 191 262 193
f 193 262 263
f 193 263 194
f 194 263 264
f 194 264 265
f 195 266 267
f 195 267 196
f 196 267 347
f 196 347 268
f 196 268 197
f 197 269 198
f 197 268 270
f 197 270 271
f 197 271 269
f 199 240 272
f 199 272 200
f 200 272 273
f 200 273 201
f 201 273 274
f 201 274 275
f 201 275 202
f 202 275 276
f 202 276 203
f 203 276 204
f 204 276 277
f 204 277 205
f 205 277 278
f 205 278 207
f 205 207 206
f 207 278 279
f 207 279 208
f 208 279 280
f 208 280 209
f 209 280 210
f 210 280 281
f 210 281 282
f 210 282 283
f 210 283 211
f 211 283 212
f 212 283 284
f 212 284 285
f 212 285 286
f 212 286 213
f 213 286 285
f 213 285 287
f 213 287 288
f 213 288 289
f 213 289 216
f 213 216 215
f 213 215 214
f 216 289 217
f 217 289 290
f 217 290 291
f 217 291 292
f 217 292 293
f 217 293 220
f 217 220 219
f 217 219 218
f 220 293 221
f 221 294 222
f 221 293 295
f 221 295 296
f 221 296 294
f 222 297 223
f 222 294 297
f 223 297 298
f 223 298 299
f 223 299 224
f 224 299 225
f 225 299 300
f 225 300 226
f 226 301 227
f 226 300 302
f 226 302 301
f 227 301 228
f 228 301 303
f 228 303 229
f 229 304 230
f 229 303 305
f 229 305 304
f 230 304 306
f 230 306 231
f 231 306 232
f 232 307 308
f 232 308 234
f 232 306 307
f 233 309 235
f 233 234 308
f 233 308 309
f 235 309 236
f 236 309 310
f 236 310 311
f 237 312 313
f 237 313 266
f 237 238 312
f 238 314 312
f 238 311 314
f 239 244 315
f 239 315 240
f 240 315 316
f 240 316 272
f 241 317 318
f 241 318 242
f 242 318 319
f 242 319 243
f 243 319 320
f 243 320 244
f 244 320 321
f 244 321 315
f 247 322 248
f 248 322 323
f 248 323 324
f 248 324 325
f 248 325 250
f 248 250 249
f 250 325 326
f 250 326 327
f 250 327 251
f 251 327 328
f 251 328 252
f 252 328 329
f 252 329 330
f 252 330 253
f 253 330 254
f 254 330 331
f 254 331 332
f 254 332 255
f 255 332 333
f 255 333 256
f 256 333 334
f 256 334 257
f 257 334 258
f 258 334 335
f 258 335 259
f 259 335 336
f 259 336 337
f 259 337 260
f 260 337 261
f 261 337 338
f 261 338 263
f 261 263 262
f 263 338 264
f 264 338 339
f 264 339 265
f 265 339 340
f 265 340 341
f 265 341 342
f 265 342 343
f 266 313 267
f 267 344 345
f 267 345 346
f 267 346 347
f 267 313 344
f 268 347 348
f 268 348 270
f 269 271 350
f 269 350 349
f 270 348 351
f 270 351 271
f 271 351 350
f 272 316 273
f 273 316 352
f 273 352 353
f 273 353 274
f 274 353 275
f 275 353 354
f 275 354 355
f 275 355 276
f 276 355 356
f 276 356 277
f 277 356 357
f 277 357 358
f 277 358 278
f 278 358 279
f 279 358 359
f 279 359 360
f 279 360 280
f 280 360 281
f 281 360 361
f 281 361 282
f 282 361 362
f 282 362 363
f 282 363 285
f 282 285 284
f 282 284 283
f 285 364 365
f 285 365 288
f 285 288 287
f 285 363 364
f 288 366 289
f 288 365 366
f 289 366 290
f 290 366 291
f 291 366 292
f 292 367 293
f 292 366 367
f 293 367 295
f 294 296 368
f 294 368 297
f 295 367 296
f 296 367 368
f 297 368 369
f 297 369 298
f 298 369 370
f 298 370 371
f 298 371 299
f 299 371 300
f 300 371 372
f 300 372 302
f 301 302 373
f 301 373 374
f 301 374 303
f 302 372 373
f 303 374 375
f 303 375 305
f 304 305 376
f 304 376 377
f 304 377 306
f 305 375 376
f 306 378 307
f 306 377 378
f 307 378 308
f 308 379 309
f 308 378 380
f 308 380 379
f 309 381 310
f 309 379 381
f 310 382 311
f 310 381 382
f 311 382 314
f 312 383 384
f 312 384 313
f 312 314 383
f 313 384 385
f 313 385 386
f 313 386 387
f 313 387 344
f 314 382 388
f 314 388 383
f 315 321 389
f 315 389 316
f 316 389 352
f 317 390 391
f 317 391 318
f 318 391 319
f 319 391 392
f 319 392 320
f 320 392 393
f 320 393 321
f 321 393 394
f 321 394 395
f 321 395 389
f 324 396 397
f 324 397 398
f 324 398 325
f 325 398 326
f 326 398 397
f 326 397 399
f 326 399 400
f 326 400 401
f 326 401 402
f 326 402 403
f 326 403 328
f 326 328 327
f 328 403 402
f 328 402 404
f 328 404 329
f 329 404 405
f 329 405 331
f 329 331 330
f 331 405 406
f 331 406 407
f 331 407 408
f 331 408 332
f 332 408 333
f 333 408 409
f 333 409 334
f 334 409 335
f 335 409 410
f 335 410 336
f 336 410 337
f 337 410 338
f 338 410 339
f 339 410 411
f 339 411 340
f 340 411 412
f 340 412 341
f 341 412 342
f 342 412 343
f 343 412 413
f 344 387 345
f 345 387 346
f 346 348 347
f 346 387 414
f 346 414 415
f 346 415 348
f 348 415 416
f 348 416 351
f 349 350 417
f 350 351 418
f 350 418 417
f 351 416 419
f 351 419 418
f 352 389 420
f 352 420 421
f 352 421 353
f 353 421 422
f 353 422 423
f 353 423 354
f 354 423 424
f 354 424 357
f 354 357 355
f 355 357 356
f 357 424 425
f 357 425 426
f 357 426 427
f 357 427 359
f 357 359 358
f 359 427 360
f 360 427 361
f 361 427 428
f 361 428 362
f 362 428 429
f 362 429 363
f 363 429 364
f 364 429 430
f 364 430 365
f 365 430 431
f 365 431 366
f 366 431 432
f 366 432 433
f 366 433 367
f 367 433 434
f 367 434 368
f 368 435 369
f 368 434 436
f 368 436 435
f 369 435 370
f 370 435 437
f 370 437 438
f 370 438 371
f 371 438 372
f 372 438 373
f 373 438 439
f 373 439 440
f 373 440 374
f 374 441 375
f 374 440 441
f 375 442 376
f 375 441 442
f 376 443 377
f 376 442 443
f 377 444 445
f 377 445 378
f 377 443 444
f 378 445 446
f 378 446 380
f 379 380 446
f 379 446 447
f 379 447 381
f 381 447 448
f 381 448 382
f 382 448 449
f 382 449 383
f 382 383 388
f 383 450 451
f 383 451 384
f 383 449 450
f 384 451 452
f 384 452 385
f 385 452 386
f 386 452 387
f 387 452 453
f 387 453 414
f 389 395 420
f 390 454 391
f 391 454 455
f 391 455 456
f 391 456 392
f 392 456 393
f 393 456 457
f 393 457 394
f 394 457 458
f 394 458 395
f 395 458 459
f 395 459 460
f 395 460 420
f 396 461 397
f 397 461 462
f 397 462 463
f 397 463 400
f 397 400 399
f 400 402 401
f 400 463 462
f 400 462 464
f 400 464 465
f 400 465 466
f 400 466 467
f 400 467 468
f 400 468 402
f 402 468 467
f 402 467 469
f 402 469 470
f 402 470 404
f 404 470 405
f 405 470 406
f 406 470 471
f 406 471 472
f 406 472 473
f 406 473 474
f 406 474 407
f 407 474 408
f 408 474 409
f 409 474 475
f 409 475 410
f 410 475 476
f 410 476 411
f 411 476 412
f 412 476 477
f 412 477 478
f 412 478 413
f 413 478 479
f 413 479 480
f 413 480 481
f 413 481 482
f 414 453 483
f 414 483 484
f 414 484 485
f 414 485 415
f 415 485 486
f 415 486 416
f 416 486 487
f 416 487 419
f 417 418 488
f 418 419 489
f 418 489 488
f 419 487 490
f 419 490 491
f 419 491 492
f 419 492 493
f 419 493 489
f 420 460 494
f 420 494 421
f 421 494 495
f 421 495 422
f 422 495 496
f 422 496 423
f 423 496 425
f 423 425 424
f 425 496 497
f 425 497 498
f 425 498 426
f 426 498 428
f 426 428 427
f 428 498 499
f 428 499 429
f 429 499 500
f 429 500 430
f 430 500 501
f 430 501 502
f 430 502 503
f 430 503 432
f 430 432 431
f 432 503 434
f 432 434 433
f 434 503 435
f 434 435 436
f 435 504 437
f 435 503 504
f 437 505 506
f 437 506 507
f 437 507 508
f 437 508 438
f 437 504 505
f 438 508 439
f 439 508 509
f 439 509 441
f 439 441 440
f 441 510 442
f 441 509 510
f 442 511 443
f 442 510 511
f 443 512 444
f 443 511 512
f 444 513 514
f 444 514 445
f 444 512 513
f 445 514 515
f 445 515 446
f 446 515 447
f 447 516 517
f 447 517 450
f 447 450 448
f 447 515 516
f 448 450 449
f 450 518 519
f 450 519 520
f 450 520 521
f 450 521 451
f 450 517 594
f 450 594 518
f 451 521 452
f 452 521 522
f 452 522 523
f 452 523 453
f 453 523 524
f 453 524 525
f 453 525 483
f 454 526 455
f 455 526 527
f 455 527 528
f 455 528 456
f 456 528 529
f 456 529 457
f 457 529 458
f 458 529 530
f 458 530 459
f 459 530 531
f 459 531 532
f 459 532 460
f 460 532 533
f 460 533 494
f 461 534 462
f 462 535 536
f 462 536 537
f 462 537 464
f 462 534 535
f 464 537 465
f 465 467 466
f 465 537 538
f 465 538 539
f 465 539 540
f 465 540 467
f 467 540 541
f 467 541 542
f 467 542 543
f 467 543 469
f 469 543 471
f 469 471 470
f 471 543 472
f 472 544 545
f 472 545 546
f 472 546 547
f 472 547 473
f 472 543 544
f 473 547 474
f 474 547 548
f 474 548 475
f 475 548 477
f 475 477 476
f 477 548 549
f 477 549 479
f 477 479 478
f 479 549 550
f 479 550 480
f 480 550 551
f 480 551 481
f 481 551 552
f 481 552 553
f 481 553 482
f 482 553 555
f 482 555 554
f 483 525 556
f 483 556 484
f 484 556 557
f 484 557 558
f 484 558 485
f 485 558 559
f 485 559 486
f 486 559 560
f 486 560 561
f 486 561 487
f 487 561 490
f 488 489 562
f 489 493 563
f 489 563 562
f 490 560 564
f 490 564 565
f 490 565 566
f 490 566 492
f 490 492 491
f 490 561 560
f 492 566 567
f 492 567 493
f 493 568 563
f 493 567 568
f 494 533 569
f 494 569 495
f 495 569 496
f 496 569 497
f 497 569 570
f 497 570 571
f 497 571 498
f 498 571 499
f 499 571 572
f 499 572 573
f 499 573 500
f 500 574 501
f 500 573 574
f 501 574 575
f 501 575 502
f 502 575 576
f 502 576 503
f 503 576 577
f 503 577 578
f 503 578 504
f 504 578 579
f 504 579 505
f 505 579 506
f 506 579 580
f 506 580 581
f 506 581 582
f 506 582 583
f 506 583 507
f 507 583 508
f 508 583 509
f 509 583 584
f 509 584 510
f 510 585 511
f 510 584 586
f 510 586 585
f 511 587 512
f 511 585 587
f 512 587 513
f 513 587 588
f 513 588 514
f 514 589 515
f 514 588 590
f 514 590 589
f 515 589 591
f 515 591 592
f 515 592 593
f 515 593 517
f 515 517 516
f 517 593 594
f 518 594 595
f 518 595 596
f 518 596 519
f 519 596 520
f 520 596 521
f 521 596 597
f 521 597 522
f 522 597 523
f 523 597 598
f 523 598 599
f 523 599 524
f 524 599 525
f 525 599 600
f 525 600 556
f 526 601 602
f 526 602 528
f 526 528 527
f 528 602 603
f 528 603 529
f 529 603 604
f 529 604 605
f 529 605 606
f 529 606 530
f 530 606 607
f 530 607 608
f 530 608 531
f 531 608 532
f 532 608 609
f 532 609 533
f 533 609 569
f 536 610 537
f 537 610 611
f 537 611 538
f 538 611 612
f 538 612 539
f 539 612 613
f 539 613 614
f 539 614 541
f 539 541 540
f 541 614 615
f 541 615 542
f 542 615 616
f 542 616 544
f 542 544 543
f 544 616 545
f 545 616 617
f 545 617 618
f 545 618 619
f 545 619 546
f 546 619 620
f 546 620 547
f 547 620 621
f 547 621 622
f 547 622 548
f 548 622 623
f 548 623 549
f 549 623 624
f 549 624 550
f 550 624 625
f 550 625 552
f 550 552 551
f 552 625 626
f 552 626 627
f 552 627 628
f 552 628 629
f 552 629 630
f 552 630 553
f 553 630 555
f 554 555 632
f 554 632 631
f 555 630 632
f 556 600 633
f 556 633 557
f 557 633 634
f 557 634 635
f 557 635 558
f 558 635 559
f 559 635 636
f 559 636 564
f 559 564 560
f 562 563 637
f 563 568 638
f 563 638 637
f 564 636 565
f 565 636 639
f 565 639 640
f 565 640 566
f 566 641 567
f 566 640 641
f 567 641 642
f 567 642 568
f 568 642 643
f 568 643 638
f 569 609 644
f 569 644 570
f 570 644 645
f 570 645 646
f 570 646 571
f 571 646 572
f 572 646 647
f 572 647 648
f 572 648 573
f 573 648 574
f 574 648 649
f 574 649 650
f 574 650 575
f 575 650 651
f 575 651 652
f 575 652 577
f 575 577 576
f 577 652 653
f 577 653 579
f 577 579 578
f 579 653 654
f 579 654 580
f 580 654 581
f 581 655 582
f 581 654 655
f 582 655 656
f 582 656 583
f 583 656 584
f 584 656 586
f 585 657 587
f 585 586 658
f 585 658 657
f 586 656 658
f 587 659 588
f 587 657 659
f 588 660 590
f 588 659 660
f 589 590 661
f 589 661 591
f 590 660 661
f 591 661 662
f 591 662 663
f 591 663 664
f 591 664 665
f 591 665 592
f 592 665 666
f 592 666 593
f 593 666 667
f 593 667 668
f 593 668 594
f 594 668 595
f 595 630 596
f 595 668 630
f 596 630 629
f 596 629 628
f 596 628 627
f 596 627 626
f 596 626 597
f 597 626 598
f 598 626 599
f 599 626 669
f 599 669 600
f 600 669 633
f 601 670 602
f 602 670 671
f 602 671 603
f 603 671 672
f 603 672 604
f 604 672 673
f 604 673 674
f 604 674 605
f 605 674 675
f 605 675 676
f 605 676 606
f 606 676 607
f 607 676 675
f 607 675 608
f 608 675 609
f 609 675 677
f 609 677 644
f 610 678 611
f 611 678 679
f 611 679 680
f 611 680 681
f 611 681 613
f 611 613 612
f 613 681 682
f 613 682 683
f 613 683 614
f 614 683 684
f 614 684 615
f 615 684 685
f 615 685 686
f 615 686 617
f 615 617 616
f 617 686 687
f 617 687 618
f 618 687 688
f 618 688 619
f 619 688 689
f 619 689 690
f 619 690 620
f 620 690 621
f 621 690 691
f 621 691 692
f 621 692 622
f 622 692 623
f 623 692 693
f 623 693 624
f 624 693 669
f 624 669 625
f 625 669 626
f 630 668 666
f 630 666 694
f 630 694 632
f 631 632 695
f 632 694 696
f 632 696 697
f 632 697 698
f 632 698 699
f 632 699 695
f 633 669 693
f 633 693 700
f 633 700 634
f 634 636 635
f 634 700 701
f 634 701 636
f 636 701 639
f 637 638 702
f 638 643 703
f 638 703 704
f 638 704 702
f 639 701 705
f 639 705 706
f 639 706 640
f 640 707 641
f 640 706 708
f 640 708 707
f 641 707 642
f 642 707 709
f 642 709 710
f 642 710 703
f 642 703 643
f 644 677 645
f 645 711 646
f 645 677 711
f 646 711 647
f 647 711 712
f 647 712 649
f 647 649 648
f 649 712 713
f 649 713 651
f 649 651 650
f 651 713 714
f 651 714 654
f 651 654 653
f 651 653 652
f 654 714 655
f 655 715 656
f 655 714 716
f 655 716 715
f 656 715 658
f 657 658 717
f 657 717 659
f 658 715 717
f 659 717 660
f 660 717 718
f 660 718 661
f 661 718 719
f 661 719 720
f 661 720 721
f 661 721 662
f 662 721 663
f 663 721 722
f 663 722 664
f 664 722 665
f 665 722 666
f 666 668 667
f 666 722 723
f 666 723 694
f 670 724 671
f 671 724 725
f 671 725 726
f 671 726 672
f 672 726 727
f 672 727 728
f 672 728 673
f 673 728 729
f 673 729 730
f 673 730 731
f 673 731 674
f 674 731 675
f 675 731 732
f 675 732 711
f 675 711 677
f 680 733 681
f 681 733 734
f 681 734 682
f 682 734 735
f 682 735 683
f 683 735 736
f 683 736 737
f 683 737 685
f 683 685 684
f 685 737 738
f 685 738 686
f 686 738 687
f 687 738 739
f 687 739 740
f 687 740 688
f 688 740 741
f 688 741 689
f 689 691 690
f 689 741 706
f 689 706 705
f 689 705 691
f 691 705 742
f 691 742 700
f 691 700 692
f 692 700 693
f 694 723 696
f 696 723 722
f 696 722 743
f 696 743 744
f 696 744 697
f 697 744 745
f 697 745 746
f 697 746 698
f 698 746 745
f 698 745 747
f 700 742 701
f 701 742 705
f 702 704 748
f 703 710 749
f 703 749 750
f 703 750 704
f 704 750 748
f 706 741 708
f 707 708 709
f 708 751 709
f 708 741 752
f 708 752 751
f 709 753 710
f 709 751 753
f 710 753 749
f 711 732 712
f 712 732 754
f 712 754 755
f 712 755 713
f 713 755 756
f 713 756 716
f 713 716 714
f 715 716 757
f 715 757 717
f 716 756 757
f 717 757 758
f 717 758 718
f 718 758 759
f 718 759 719
f 719 759 720
f 720 759 721
f 721 759 760
f 721 760 722
f 722 760 743
f 725 761 726
f 726 761 762
f 726 762 727
f 727 762 763
f 727 763 764
f 727 764 765
f 727 765 766
f 727 766 767
f 727 767 728
f 728 767 768
f 728 768 729
f 729 768 730
f 730 768 731
f 731 768 754
f 731 754 732
f 733 769 734
f 734 769 770
f 734 770 771
f 734 771 735
f 735 771 772
f 735 772 736
f 736 773 774
f 736 774 775
f 736 775 737
f 736 772 771
f 736 771 773
f 737 775 776
f 737 776 738
f 738 776 739
f 739 752 740
f 739 776 777
f 739 777 751
f 739 751 752
f 740 752 741
f 743 760 778
f 743 778 779
f 743 779 744
f 744 779 745
f 745 778 780
f 745 780 781
f 745 781 747
f 745 779 778
f 747 781 782
f 748 750 783
f 749 753 784
f 749 784 750
f 750 784 785
f 750 785 783
f 751 777 775
f 751 775 753
f 753 775 784
f 754 768 786
f 754 786 755
f 755 786 787
f 755 787 756
f 756 787 788
f 756 788 757
f 757 789 758
f 757 788 789
f 758 789 778
f 758 778 759
f 759 778 760
f 761 790 791
f 761 791 762
f 762 791 763
f 763 791 792
f 763 792 793
f 763 793 794
f 763 794 795
f 763 795 764
f 764 795 765
f 765 795 796
f 765 796 766
f 766 796 767
f 767 796 768
f 768 796 786
f 770 797 771
f 771 797 773
f 773 797 774
f 774 797 798
f 774 798 799
f 774 799 775
f 775 777 776
f 775 799 784
f 778 789 780
f 780 789 800
f 780 800 801
f 780 801 802
f 780 802 782
f 780 782 781
f 782 802 792
f 782 792 791
f 782 791 790
f 783 785 803
f 784 799 785
f 785 804 805
f 785 805 803
f 785 799 806
f 785 806 804
f 786 796 787
f 787 807 800
f 787 800 788
f 787 796 807
f 788 800 789
f 792 802 801
f 792 801 793
f 793 801 794
f 794 801 807
f 794 807 795
f 795 807 796
f 798 806 799
f 800 807 801

