# https://github.com/mikedh/trimesh
v 0.02265556 0.00919527 -0.00384386
v 0.02265556 0.01869836 -0.00384386
v 0.02265556 0.00919527 -0.00382329
v -0.00165284 0.02162291 -0.00384386
v 0.01942427 0.02470084 -0.00384386
v 0.02265556 0.04199591 0.06520150
v 0.02265556 0.00920209 -0.00377530
v -0.00165284 0.02458836 -0.00384386
v 0.02265556 0.00952590 -0.00149915
v 0.02265556 0.00979518 0.00023538
v -0.00165284 0.02205238 -0.00149915
v 0.01842015 0.02604382 -0.00384386
v 0.02253896 0.04203000 0.06513295
v 0.02265556 0.04218338 0.06619560
v -0.00165284 0.02755722 -0.00383700
v -0.00158384 0.02757767 -0.00384386
v 0.02265556 0.01015308 0.00212074
v -0.00165284 0.02342604 0.00547326
v 0.00559495 0.02856275 -0.00384386
v 0.01235970 0.04149485 0.05194912
v 0.01468204 0.04200954 0.05591181
v 0.01597884 0.04215952 0.05761892
v 0.01826311 0.04215611 0.05997048
v 0.02046171 0.04211862 0.06244545
v 0.02098757 0.04227882 0.06399487
v 0.02220584 0.04234699 0.06619560
v 0.02265556 0.03551622 0.06619560
v -0.00165284 0.03984170 0.04366039
v 0.00113825 0.02842641 -0.00384386
v 0.02265556 0.01058597 0.00419807
v -0.00165284 0.02389301 0.00780425
v 0.00307987 0.02876044 -0.00384386
v 0.00771265 0.03995759 0.04317362
v 0.00931402 0.03988941 0.04348214
v 0.01006830 0.04011779 0.04488759
v 0.01003737 0.04072792 0.04730085
v 0.01003737 0.04125625 0.04962499
v 0.01258575 0.04198569 0.05425955
v 0.01351136 0.04212544 0.05543876
v 0.01468204 0.04226860 0.05707730
v 0.01468204 0.04261627 0.05892153
v 0.01700676 0.04265376 0.06124566
v 0.01685447 0.04227882 0.05908607
v 0.01879610 0.04228223 0.06124566
v 0.01954562 0.04250038 0.06335727
v 0.02171330 0.04247992 0.06619560
v 0.02172044 0.04242880 0.06590765
v -0.00165284 0.03829420 0.06619560
v 0.02265556 0.02042650 0.03195058
v -0.00165284 0.04018937 0.04504527
v 0.00115252 0.02842981 -0.00384386
v -0.00165284 0.02491217 0.01237711
v -0.00165284 0.02437021 0.01005983
v 0.02265556 0.01095068 0.00547326
v 0.00306322 0.02876044 -0.00384386
v 0.00538793 0.03932359 0.04032844
v 0.00771265 0.04038706 0.04497671
v 0.01003737 0.04175049 0.05194912
v 0.00771265 0.04090176 0.04730085
v 0.01195996 0.04220042 0.05502740
v 0.01258575 0.04239131 0.05637115
v 0.01235970 0.04286850 0.05892153
v 0.01468204 0.04299121 0.06124566
v 0.01700676 0.04301507 0.06356981
v 0.01933148 0.04296394 0.06589394
v 0.01933148 0.04300144 0.06619560
v -0.00165284 0.04334911 0.06619560
v 0.02265556 0.01281176 0.01136929
v 0.02265556 0.01315262 0.01244566
v 0.02265556 0.01344575 0.01328208
v 0.02265556 0.01483304 0.01705966
v -0.00165284 0.04075519 0.04736941
v -0.00158384 0.04074496 0.04730085
v 0.00074088 0.04029163 0.04497671
v 0.00306560 0.04036661 0.04497671
v 0.00538793 0.03970194 0.04191900
v 0.00538793 0.03997463 0.04308449
v 0.00538793 0.04041093 0.04497671
v 0.00771265 0.04137896 0.04962499
v 0.00771265 0.04184593 0.05194912
v 0.01003737 0.04205386 0.05350540
v 0.00538793 0.04092562 0.04730085
v 0.00538793 0.04141986 0.04962499
v 0.01003737 0.04226860 0.05466405
v 0.01003737 0.04262650 0.05659739
v 0.01003737 0.04302530 0.05892153
v 0.01235970 0.04321618 0.06124566
v 0.01468204 0.04330480 0.06356981
v 0.01700676 0.04331503 0.06589394
v 0.01700676 0.04334911 0.06619560
v -0.00164570 0.04392857 0.06619560
v -0.00165284 0.04391152 0.06596250
v -0.00165284 0.04127330 0.04962499
v -0.00158384 0.04127670 0.04962499
v 0.00074088 0.04084381 0.04730085
v 0.00306560 0.04090176 0.04730085
v 0.00306560 0.04141986 0.04962499
v 0.00539983 0.04193797 0.05216165
v 0.00618267 0.04211862 0.05314204
v 0.00771265 0.04232313 0.05441038
v 0.00771265 0.04273216 0.05659739
v 0.00306560 0.04190047 0.05189427
v 0.00463365 0.04213225 0.05308034
v 0.00771265 0.04311733 0.05892153
v 0.01003737 0.04337297 0.06124566
v 0.01235970 0.04351272 0.06356981
v 0.01468204 0.04357748 0.06589394
v 0.01468204 0.04360816 0.06619560
v -0.00158384 0.04393198 0.06619560
v -0.00158384 0.04390812 0.06589394
v -0.00165284 0.04390471 0.06589394
v -0.00165284 0.04176754 0.05194912
v -0.00158384 0.04177095 0.05194912
v 0.00008891 0.04210839 0.05319689
v 0.00074088 0.04136873 0.04962499
v 0.00163793 0.04213566 0.05307348
v 0.00539983 0.04230950 0.05406073
v 0.00538793 0.04277988 0.05659739
v 0.00306560 0.04213566 0.05305977
v 0.00306560 0.04236404 0.05427326
v 0.00538793 0.04316164 0.05892153
v 0.00538793 0.04349909 0.06124566
v 0.00771265 0.04345137 0.06124566
v 0.01003737 0.04365588 0.06356981
v 0.01235970 0.04376496 0.06589394
v 0.01235970 0.04379223 0.06619560
v 0.00074088 0.04398311 0.06619560
v 0.00074088 0.04395925 0.06589394
v 0.00074088 0.04373087 0.06356981
v -0.00165284 0.04367292 0.06356981
v -0.00165284 0.04206749 0.05342999
v 0.00081464 0.04191410 0.05216165
v -0.00165284 0.04207431 0.05346427
v -0.00158384 0.04228905 0.05457492
v -0.00165284 0.04267421 0.05666595
v 0.00074088 0.04275261 0.05659739
v 0.00081464 0.04229927 0.05409501
v 0.00306560 0.04278329 0.05659739
v 0.00306560 0.04317186 0.05892153
v 0.00306560 0.04350249 0.06124566
v 0.00538793 0.04376836 0.06356981
v 0.00771265 0.04373087 0.06356981
v 0.01003737 0.04388425 0.06589394
v 0.01003737 0.04391152 0.06619560
v 0.00306560 0.04400696 0.06619560
v 0.00306560 0.04397970 0.06589394
v 0.00306560 0.04376155 0.06356981
v 0.00074088 0.04346159 0.06124566
v -0.00165284 0.04339343 0.06131423
v -0.00165284 0.04229587 0.05463662
v -0.00165284 0.04305257 0.05892153
v -0.00158384 0.04305598 0.05892153
v 0.00074088 0.04314119 0.05892153
v 0.00538793 0.04398651 0.06589394
v 0.00771265 0.04395925 0.06589394
v 0.00973994 0.04392175 0.06619560
v 0.00538793 0.04401378 0.06619560
v -0.00158384 0.04338660 0.06124566
v -0.00165284 0.04306279 0.05899009
v 0.00771265 0.04398311 0.06619560
f 1 2 6
f 1 6 14
f 1 14 27
f 1 27 49
f 1 49 71
f 1 71 70
f 1 70 69
f 1 69 68
f 1 68 54
f 1 54 30
f 1 30 17
f 1 17 10
f 1 10 9
f 1 9 7
f 1 7 3
f 1 3 4
f 1 4 8
f 1 8 16
f 1 16 29
f 1 29 51
f 1 51 55
f 1 55 32
f 1 32 19
f 1 19 12
f 1 12 5
f 1 5 2
f 2 5 6
f 3 7 4
f 4 7 9
f 4 9 10
f 4 10 11
f 4 11 18
f 4 18 31
f 4 31 53
f 4 53 52
f 4 52 48
f 4 48 67
f 4 67 92
f 4 92 111
f 4 111 130
f 4 130 149
f 4 149 159
f 4 159 151
f 4 151 135
f 4 135 150
f 4 150 133
f 4 133 131
f 4 131 112
f 4 112 93
f 4 93 72
f 4 72 50
f 4 50 28
f 4 28 15
f 4 15 8
f 5 12 6
f 6 13 14
f 6 12 13
f 8 15 16
f 10 17 11
f 11 17 18
f 12 19 20
f 12 20 21
f 12 21 22
f 12 22 23
f 12 23 24
f 12 24 13
f 13 24 25
f 13 25 26
f 13 26 14
f 14 26 46
f 14 46 66
f 14 66 90
f 14 90 108
f 14 108 126
f 14 126 144
f 14 144 156
f 14 156 160
f 14 160 157
f 14 157 145
f 14 145 127
f 14 127 109
f 14 109 91
f 14 91 67
f 14 67 48
f 14 48 27
f 15 28 16
f 16 28 29
f 17 30 31
f 17 31 18
f 19 32 33
f 19 33 34
f 19 34 35
f 19 35 20
f 20 35 36
f 20 36 37
f 20 37 38
f 20 38 39
f 20 39 21
f 21 39 22
f 22 39 40
f 22 40 41
f 22 41 42
f 22 42 43
f 22 43 23
f 23 43 42
f 23 42 44
f 23 44 24
f 24 44 45
f 24 45 25
f 25 46 47
f 25 47 26
f 25 45 46
f 26 47 46
f 27 48 49
f 28 50 51
f 28 51 29
f 30 52 53
f 30 53 31
f 30 54 48
f 30 48 52
f 32 55 56
f 32 56 33
f 33 56 57
f 33 57 34
f 34 57 36
f 34 36 35
f 36 57 37
f 37 58 38
f 37 57 59
f 37 59 58
f 38 60 39
f 38 58 60
f 39 60 61
f 39 61 62
f 39 62 41
f 39 41 40
f 41 62 63
f 41 63 42
f 42 63 64
f 42 64 65
f 42 65 45
f 42 45 44
f 45 65 46
f 46 65 66
f 48 54 68
f 48 68 69
f 48 69 70
f 48 70 71
f 48 71 49
f 50 72 55
f 50 55 51
f 55 72 73
f 55 73 74
f 55 74 75
f 55 75 76
f 55 76 56
f 56 76 57
f 57 76 77
f 57 77 78
f 57 78 82
f 57 82 59
f 58 59 79
f 58 79 80
f 58 80 81
f 58 81 60
f 59 82 83
f 59 83 79
f 60 81 84
f 60 84 85
f 60 85 62
f 60 62 61
f 62 86 105
f 62 105 87
f 62 87 63
f 62 85 86
f 63 87 88
f 63 88 64
f 64 88 89
f 64 89 65
f 65 89 66
f 66 89 90
f 67 91 92
f 72 93 73
f 73 93 94
f 73 94 95
f 73 95 74
f 74 95 75
f 75 95 96
f 75 96 78
f 75 78 77
f 75 77 76
f 78 96 97
f 78 97 82
f 79 83 98
f 79 98 99
f 79 99 80
f 80 99 100
f 80 100 81
f 81 100 101
f 81 101 84
f 82 97 83
f 83 97 102
f 83 102 103
f 83 103 98
f 84 101 85
f 85 101 86
f 86 101 104
f 86 104 105
f 87 105 106
f 87 106 88
f 88 106 107
f 88 107 89
f 89 107 90
f 90 107 108
f 91 109 92
f 92 110 111
f 92 109 110
f 93 112 113
f 93 113 94
f 94 113 114
f 94 114 115
f 94 115 95
f 95 115 96
f 96 115 97
f 97 115 116
f 97 116 102
f 98 103 99
f 99 103 117
f 99 117 100
f 100 117 101
f 101 117 118
f 101 118 104
f 102 116 119
f 102 119 103
f 103 119 120
f 103 120 117
f 104 118 121
f 104 121 122
f 104 122 123
f 104 123 105
f 105 123 124
f 105 124 106
f 106 124 125
f 106 125 107
f 107 125 108
f 108 125 126
f 109 127 128
f 109 128 110
f 110 128 129
f 110 129 130
f 110 130 111
f 112 114 113
f 112 131 114
f 114 116 132
f 114 132 115
f 114 131 133
f 114 133 134
f 114 134 135
f 114 135 136
f 114 136 137
f 114 137 116
f 115 132 116
f 116 137 136
f 116 136 138
f 116 138 120
f 116 120 119
f 117 120 118
f 118 120 138
f 118 138 139
f 118 139 121
f 121 139 122
f 122 139 140
f 122 140 141
f 122 141 142
f 122 142 123
f 123 142 124
f 124 142 155
f 124 155 143
f 124 143 125
f 125 143 144
f 125 144 126
f 127 145 128
f 128 145 146
f 128 146 147
f 128 147 129
f 129 140 148
f 129 148 130
f 129 147 140
f 130 148 149
f 133 150 134
f 134 150 135
f 135 151 152
f 135 152 136
f 136 152 153
f 136 153 139
f 136 139 138
f 139 153 140
f 140 153 148
f 140 147 141
f 141 147 146
f 141 146 154
f 141 154 155
f 141 155 142
f 143 155 156
f 143 156 144
f 145 157 154
f 145 154 146
f 148 158 149
f 148 153 158
f 149 158 152
f 149 152 159
f 151 159 152
f 152 158 153
f 154 157 155
f 155 157 160
f 155 160 156

