# https://github.com/mikedh/trimesh
v 0.04616902 0.02364599 0.11005613
v 0.04613449 0.02374502 0.11005613
v 0.04609767 0.02364599 0.11115106
v 0.04614830 0.02364599 0.10880398
v 0.04612299 0.02371531 0.10873660
v 0.04570409 0.02490757 0.11005613
v 0.04608155 0.02364599 0.11129705
v 0.04484788 0.02702078 0.11005613
v 0.04078780 0.02364599 0.06582098
v 0.04398017 0.02866064 0.10837724
v 0.04078090 0.02469764 0.06822421
v 0.04007890 0.02702078 0.06822421
v 0.03940222 0.02901515 0.06822421
v 0.03948048 0.02952612 0.07047584
v 0.03905008 0.03041933 0.06965043
v 0.03915365 0.03061738 0.07120018
v 0.04389731 0.02853389 0.11152165
v 0.04414818 0.02679896 0.11233021
v 0.04515860 0.02452534 0.11218984
v 0.04531741 0.02364599 0.11244252
v 0.04404001 0.02880324 0.11005613
v 0.04036431 0.02364599 0.06357497
v 0.04047478 0.02469764 0.06589960
v 0.04344849 0.02996580 0.11005613
v 0.03925262 0.03078177 0.07287345
v 0.03973135 0.02702078 0.06589960
v 0.03922270 0.02852795 0.06589960
v 0.03893499 0.03017573 0.06822421
v 0.03793148 0.03166904 0.06822421
v 0.03843554 0.03150465 0.07047584
v 0.03847006 0.03194432 0.07287345
v 0.04146218 0.03290091 0.11130267
v 0.04186497 0.03166904 0.11185294
v 0.04268204 0.02951424 0.11252674
v 0.04339556 0.02742480 0.11307140
v 0.04374080 0.02587406 0.11354867
v 0.04396406 0.02469764 0.11378451
v 0.04415509 0.02364599 0.11399226
v 0.04002136 0.02469764 0.06357497
v 0.03910071 0.02822097 0.06467552
v 0.03977279 0.02364599 0.06128966
v 0.03918357 0.02614737 0.06213753
v 0.04153584 0.03299003 0.10865799
v 0.04241966 0.03166904 0.11005613
v 0.03862197 0.03213049 0.07519808
v 0.03870943 0.02969050 0.06589960
v 0.03740441 0.03177004 0.06607366
v 0.03678757 0.03286130 0.06696644
v 0.03692107 0.03301974 0.06822421
v 0.03713742 0.03329503 0.07054883
v 0.03730774 0.03354656 0.07287345
v 0.03745965 0.03378224 0.07519808
v 0.03927103 0.03534288 0.11148795
v 0.04006509 0.03377828 0.11216738
v 0.03930786 0.03310688 0.11373397
v 0.04099035 0.03166904 0.11301525
v 0.04140464 0.03049657 0.11353183
v 0.04154274 0.03300191 0.11005613
v 0.04059217 0.03416250 0.11005613
v 0.03942984 0.03551122 0.11005613
v 0.04184655 0.02894781 0.11393612
v 0.04260149 0.02679896 0.11422809
v 0.04135861 0.02576910 0.11583398
v 0.04250252 0.02487589 0.11510965
v 0.04284086 0.02364599 0.11525564
v 0.04361651 0.02364599 0.11451446
v 0.03931706 0.02696136 0.06377150
v 0.03892118 0.02769613 0.06312577
v 0.03844244 0.02913596 0.06377150
v 0.03924571 0.02364599 0.05966130
v 0.03861046 0.02696136 0.06132335
v 0.03935849 0.03543992 0.10843901
v 0.03671622 0.03509135 0.07684327
v 0.03678987 0.03518840 0.07839302
v 0.03724330 0.03110657 0.06357497
v 0.03657122 0.03261176 0.06541670
v 0.03451816 0.03522999 0.06682608
v 0.03472301 0.03544190 0.06822421
v 0.03588533 0.03418032 0.06822421
v 0.03500381 0.03575482 0.07054883
v 0.03616613 0.03445561 0.07054883
v 0.03639399 0.03470714 0.07287345
v 0.03659884 0.03494281 0.07519808
v 0.03819156 0.03667378 0.11005613
v 0.03689805 0.03758481 0.11140373
v 0.03775656 0.03616875 0.11221791
v 0.03861737 0.03465564 0.11303209
v 0.03706607 0.03544587 0.11376766
v 0.03787394 0.03392483 0.11422248
v 0.03665638 0.03271474 0.11581153
v 0.03800513 0.03183144 0.11539041
v 0.03982802 0.03166904 0.11414948
v 0.04037811 0.02955187 0.11482329
v 0.03454578 0.03757887 0.07752269
v 0.03464475 0.03766799 0.07984731
v 0.04099035 0.02702078 0.11555885
v 0.03935159 0.02860915 0.11602490
v 0.03982802 0.02702078 0.11621019
v 0.04167854 0.02421836 0.11604174
v 0.04178901 0.02364599 0.11609228
v 0.03744814 0.02943700 0.06122789
v 0.03696710 0.03075206 0.06198592
v 0.03917436 0.02364599 0.05946478
v 0.03779798 0.02711980 0.05946478
v 0.03712361 0.02868243 0.05946478
v 0.03709829 0.02873986 0.05946478
v 0.03588993 0.03610538 0.07757884
v 0.03525469 0.03648167 0.07533283
v 0.03446753 0.03750559 0.07619754
v 0.03625589 0.03226913 0.06357497
v 0.03509357 0.03349705 0.06357497
v 0.03316941 0.03673518 0.06813999
v 0.03378394 0.03691738 0.07054883
v 0.03423046 0.03497054 0.06527632
v 0.03411768 0.03718277 0.07287345
v 0.03432022 0.03736696 0.07464780
v 0.03523167 0.03602219 0.07287345
v 0.03698091 0.03765413 0.10855692
v 0.03702924 0.03768978 0.11005613
v 0.03269527 0.04013769 0.11181924
v 0.03339267 0.03927815 0.11250989
v 0.03549405 0.03801855 0.11225722
v 0.03464935 0.03762442 0.11368904
v 0.03619836 0.03699462 0.11295348
v 0.03559993 0.03872558 0.11005613
v 0.03423966 0.03967623 0.11005613
v 0.03549405 0.03625787 0.11422248
v 0.03440078 0.03511908 0.11584522
v 0.03577025 0.03420408 0.11549709
v 0.03883142 0.03015791 0.11571046
v 0.03510738 0.03357230 0.11614842
v 0.03728242 0.03116599 0.11611474
v 0.03327988 0.03857705 0.07752269
v 0.03800513 0.02936768 0.11627758
v 0.03792458 0.02702078 0.11658640
v 0.04044946 0.02487589 0.11632250
v 0.04035049 0.02364599 0.11643480
v 0.03658503 0.03027080 0.06043618
v 0.03565747 0.03173241 0.06114367
v 0.03472991 0.03312867 0.06185116
v 0.03222344 0.02364599 0.05946478
v 0.03706837 0.02878739 0.05946478
v 0.03343870 0.03818293 0.07533283
v 0.03385069 0.03465762 0.06357497
v 0.03338346 0.03587960 0.06598943
v 0.03200248 0.03740459 0.06731458
v 0.03232241 0.03762839 0.06886432
v 0.03262162 0.03785614 0.07054883
v 0.03295536 0.03812549 0.07287345
v 0.03268836 0.03558450 0.06357497
v 0.03186208 0.03964058 0.07752269
v 0.03307734 0.04034961 0.11005613
v 0.03095524 0.04138145 0.11005613
v 0.02788716 0.04226080 0.11151042
v 0.03105191 0.04055360 0.11250989
v 0.03188970 0.03968217 0.11336899
v 0.03327988 0.03807994 0.11413825
v 0.03185287 0.03726397 0.11573853
v 0.03348703 0.03642027 0.11540163
v 0.03069976 0.04033772 0.07752269
v 0.03285178 0.03571521 0.11612597
v 0.03348703 0.03420408 0.11640111
v 0.03577025 0.03183144 0.11637304
v 0.03166414 0.03949996 0.07519808
v 0.03792458 0.02469764 0.11648533
v 0.03095524 0.03399217 0.11679415
v 0.03794068 0.02364599 0.11632811
v 0.03639399 0.02978953 0.05946478
v 0.03557231 0.03082732 0.05946478
v 0.03516722 0.03128085 0.05946478
v 0.03474142 0.03175420 0.05946478
v 0.03432482 0.03271277 0.06030141
v 0.03338346 0.03314451 0.05946478
v 0.03290702 0.03357428 0.05946478
v 0.03331902 0.03404763 0.06118298
v 0.02265786 0.03277019 0.05946478
v 0.03410617 0.02364599 0.10499138
v 0.02265786 0.03259789 0.10486785
v 0.02265786 0.03259591 0.10348655
v 0.03231550 0.03529732 0.06206454
v 0.03111865 0.03820471 0.06813999
v 0.02959037 0.03967623 0.06986380
v 0.03164113 0.03716692 0.06589960
v 0.03047880 0.03790566 0.06589960
v 0.02918759 0.03943461 0.06822421
v 0.03079642 0.03909990 0.07060498
v 0.03133040 0.03928805 0.07287345
v 0.03050182 0.04024266 0.07519808
v 0.02863059 0.04139927 0.07752269
v 0.02939934 0.04199541 0.11005613
v 0.02718056 0.04202710 0.07752269
v 0.02265786 0.04356001 0.11138128
v 0.02265786 0.04330057 0.11238075
v 0.02398130 0.04297972 0.11238075
v 0.02608959 0.04242914 0.11232460
v 0.02517124 0.04213602 0.11355429
v 0.02672024 0.04188846 0.11306017
v 0.02864900 0.04160327 0.11232460
v 0.02823701 0.04237567 0.11005613
v 0.02630594 0.04296387 0.11005613
v 0.02398130 0.04358179 0.11005613
v 0.03034070 0.04006243 0.11387435
v 0.03109564 0.03873153 0.11480644
v 0.03030157 0.03778088 0.11604737
v 0.02863059 0.04126262 0.07519808
v 0.03102889 0.03642027 0.11635619
v 0.02863059 0.03631729 0.11678854
v 0.03016808 0.04004065 0.07287345
v 0.02630594 0.03631729 0.11682785
v 0.02398130 0.03631729 0.11663133
v 0.02265786 0.03626778 0.11642918
v 0.03670011 0.02364599 0.11591260
v 0.03409006 0.03246124 0.05946478
v 0.03245820 0.03394662 0.05946478
v 0.03183216 0.03496856 0.06051479
v 0.02265786 0.03979506 0.05946478
v 0.03624438 0.02364599 0.11470537
v 0.02265786 0.03478239 0.11470537
v 0.03004609 0.03763631 0.06435546
v 0.02802526 0.04013373 0.06822421
v 0.02874107 0.04037733 0.07060498
v 0.02991490 0.03988022 0.07141355
v 0.02850170 0.03911377 0.06595574
v 0.02763859 0.03990399 0.06676431
v 0.02863059 0.04093781 0.07287345
v 0.02708850 0.04198550 0.07519808
v 0.02592617 0.04240141 0.07519808
v 0.02601824 0.04242121 0.07752269
v 0.02265786 0.04387689 0.11005613
v 0.02265786 0.04245885 0.11404280
v 0.02398130 0.04229249 0.11379573
v 0.02398130 0.04136759 0.11495804
v 0.02618166 0.04093385 0.11466045
v 0.02863059 0.04039912 0.11429547
v 0.02398130 0.04294803 0.07519808
v 0.02863059 0.03934351 0.11545778
v 0.02719207 0.03966237 0.11576100
v 0.02564307 0.03997925 0.11600244
v 0.02863059 0.03818293 0.11623827
v 0.02681230 0.04186073 0.07287345
v 0.02398130 0.03864042 0.11670432
v 0.02265786 0.03864042 0.11676046
v 0.02637269 0.03878896 0.11636180
v 0.02265786 0.03513096 0.11591260
v 0.02267167 0.03511116 0.11590698
v 0.02265786 0.03510522 0.11587330
v 0.03134651 0.03479428 0.05946478
v 0.03101508 0.03578057 0.06127843
v 0.03037062 0.03541417 0.05946478
v 0.03030618 0.03545379 0.05946478
v 0.03022102 0.03550528 0.05946478
v 0.02265786 0.03994558 0.05978483
v 0.02811042 0.03670745 0.05946478
v 0.02869504 0.03810965 0.06358059
v 0.02718056 0.03963662 0.06521456
v 0.02951212 0.03731547 0.06280572
v 0.02630594 0.04109230 0.06822421
v 0.02620237 0.04169833 0.07047584
v 0.02636578 0.04035554 0.06595574
v 0.02564998 0.04231031 0.07287345
v 0.02398130 0.04278365 0.07287345
v 0.02265786 0.04325897 0.07652321
v 0.02265786 0.04193401 0.11470537
v 0.02265786 0.04153791 0.11520510
v 0.02265786 0.04307676 0.07287345
v 0.02265786 0.04322530 0.07519808
v 0.02398130 0.04020503 0.11614842
v 0.02501473 0.04208255 0.06965604
v 0.02535997 0.04220930 0.07120579
v 0.02265786 0.04037535 0.11622704
v 0.02341740 0.04015750 0.06125597
v 0.02796312 0.03776504 0.06174447
v 0.02265786 0.04057340 0.06125597
v 0.02562926 0.04007630 0.06408033
v 0.02636578 0.03937916 0.06341214
v 0.02388233 0.04163099 0.06591082
v 0.02463266 0.04192213 0.06822421
v 0.02416313 0.04062093 0.06341214
v 0.02413551 0.04247271 0.07047584
v 0.02265786 0.04284900 0.07052076
v 0.02304223 0.04220930 0.06669131
v 0.02347033 0.04234200 0.06822421
v 0.02265786 0.04137749 0.06338406
v 0.02265786 0.04199541 0.06520895
v 0.02265786 0.04255787 0.06822421
v 0.02265786 0.04227268 0.06646109
v 0.02265786 0.04237963 0.06711806
f 1 2 3
f 1 3 7
f 1 7 20
f 1 20 38
f 1 38 66
f 1 66 65
f 1 65 100
f 1 100 137
f 1 137 167
f 1 167 212
f 1 212 217
f 1 217 177
f 1 177 141
f 1 141 103
f 1 103 70
f 1 70 41
f 1 41 22
f 1 22 9
f 1 9 4
f 1 4 2
f 2 4 5
f 2 5 6
f 2 6 3
f 3 6 8
f 3 8 7
f 4 9 5
f 5 10 8
f 5 8 6
f 5 9 11
f 5 11 12
f 5 12 13
f 5 13 14
f 5 14 15
f 5 15 16
f 5 16 10
f 7 8 17
f 7 17 18
f 7 18 19
f 7 19 20
f 8 10 21
f 8 21 17
f 9 22 23
f 9 23 12
f 9 12 11
f 10 24 21
f 10 16 25
f 10 25 24
f 12 23 26
f 12 26 27
f 12 27 13
f 13 27 28
f 13 28 15
f 13 15 14
f 15 28 29
f 15 29 30
f 15 30 16
f 16 30 31
f 16 31 25
f 17 32 33
f 17 33 34
f 17 34 35
f 17 35 18
f 17 21 24
f 17 24 32
f 18 35 36
f 18 36 19
f 19 36 20
f 20 36 37
f 20 37 38
f 22 39 40
f 22 40 26
f 22 26 23
f 22 41 42
f 22 42 39
f 24 25 43
f 24 43 44
f 24 44 32
f 25 31 45
f 25 45 43
f 26 40 27
f 27 40 46
f 27 46 28
f 28 46 47
f 28 47 29
f 29 47 48
f 29 48 49
f 29 49 50
f 29 50 30
f 30 50 51
f 30 51 31
f 31 51 52
f 31 52 45
f 32 53 54
f 32 54 55
f 32 55 56
f 32 56 57
f 32 57 33
f 32 44 58
f 32 58 59
f 32 59 60
f 32 60 53
f 33 57 34
f 34 57 35
f 35 57 61
f 35 61 36
f 36 61 62
f 36 62 63
f 36 63 64
f 36 64 37
f 37 64 65
f 37 65 66
f 37 66 38
f 39 67 40
f 39 42 68
f 39 68 67
f 40 67 68
f 40 68 69
f 40 69 46
f 41 70 42
f 42 70 71
f 42 71 68
f 43 72 60
f 43 60 59
f 43 59 58
f 43 58 44
f 43 45 73
f 43 73 74
f 43 74 72
f 45 52 73
f 46 69 75
f 46 75 47
f 47 75 76
f 47 76 48
f 48 76 77
f 48 77 78
f 48 78 79
f 48 79 80
f 48 80 81
f 48 81 49
f 49 81 50
f 50 81 82
f 50 82 83
f 50 83 51
f 51 83 52
f 52 83 73
f 53 60 84
f 53 84 85
f 53 85 86
f 53 86 87
f 53 87 54
f 54 87 55
f 55 88 89
f 55 89 90
f 55 90 91
f 55 91 92
f 55 92 57
f 55 57 56
f 55 87 88
f 57 92 93
f 57 93 61
f 60 72 94
f 60 94 95
f 60 95 84
f 61 93 96
f 61 96 63
f 61 63 62
f 63 65 64
f 63 96 97
f 63 97 98
f 63 98 99
f 63 99 65
f 65 99 100
f 68 71 101
f 68 101 69
f 69 101 102
f 69 102 75
f 70 103 71
f 71 103 104
f 71 104 105
f 71 105 106
f 71 106 101
f 72 74 107
f 72 107 94
f 73 83 108
f 73 108 109
f 73 109 107
f 73 107 74
f 75 102 110
f 75 110 76
f 76 110 111
f 76 111 77
f 77 112 113
f 77 113 78
f 77 111 114
f 77 114 112
f 78 113 115
f 78 115 80
f 78 80 79
f 80 115 116
f 80 116 117
f 80 117 81
f 81 117 82
f 82 117 83
f 83 117 108
f 84 118 119
f 84 119 85
f 84 95 118
f 85 120 121
f 85 121 122
f 85 122 123
f 85 123 124
f 85 124 86
f 85 119 125
f 85 125 126
f 85 126 120
f 86 124 87
f 87 124 88
f 88 124 123
f 88 123 127
f 88 127 128
f 88 128 89
f 89 128 129
f 89 129 90
f 90 130 91
f 90 129 128
f 90 128 131
f 90 131 132
f 90 132 130
f 91 130 92
f 92 130 93
f 93 130 96
f 94 107 109
f 94 109 133
f 94 133 95
f 95 133 118
f 96 130 97
f 97 130 132
f 97 132 134
f 97 134 98
f 98 134 135
f 98 135 136
f 98 136 100
f 98 100 99
f 100 136 137
f 101 138 102
f 101 106 138
f 102 138 139
f 102 139 140
f 102 140 110
f 103 141 176
f 103 176 216
f 103 216 253
f 103 253 251
f 103 251 250
f 103 250 249
f 103 249 247
f 103 247 214
f 103 214 174
f 103 174 173
f 103 173 213
f 103 213 171
f 103 171 170
f 103 170 169
f 103 169 168
f 103 168 142
f 103 142 106
f 103 106 105
f 103 105 104
f 106 142 138
f 108 117 116
f 108 116 109
f 109 116 143
f 109 143 133
f 110 140 111
f 111 144 114
f 111 140 144
f 112 114 145
f 112 145 146
f 112 146 147
f 112 147 113
f 113 147 148
f 113 148 149
f 113 149 115
f 114 144 150
f 114 150 145
f 115 149 116
f 116 149 143
f 118 125 119
f 118 133 151
f 118 151 125
f 120 126 152
f 120 152 153
f 120 153 154
f 120 154 155
f 120 155 156
f 120 156 121
f 121 156 123
f 121 123 122
f 123 157 158
f 123 158 159
f 123 159 128
f 123 128 127
f 123 156 157
f 125 151 126
f 126 151 160
f 126 160 152
f 128 159 158
f 128 158 161
f 128 161 131
f 131 161 162
f 131 162 163
f 131 163 132
f 132 163 134
f 133 143 164
f 133 164 151
f 134 163 135
f 135 165 137
f 135 137 136
f 135 163 166
f 135 166 165
f 137 165 167
f 138 142 168
f 138 168 169
f 138 169 139
f 139 169 170
f 139 170 171
f 139 171 172
f 139 172 140
f 140 172 173
f 140 173 174
f 140 174 175
f 140 175 144
f 141 177 178
f 141 178 179
f 141 179 176
f 143 149 164
f 144 175 180
f 144 180 150
f 145 150 146
f 146 181 182
f 146 182 147
f 146 150 183
f 146 183 184
f 146 184 185
f 146 185 181
f 147 182 186
f 147 186 148
f 148 186 187
f 148 187 149
f 149 187 164
f 150 180 183
f 151 164 188
f 151 188 160
f 152 160 189
f 152 189 153
f 153 190 154
f 153 189 191
f 153 191 190
f 154 192 193
f 154 193 194
f 154 194 195
f 154 195 196
f 154 196 197
f 154 197 198
f 154 198 155
f 154 190 199
f 154 199 200
f 154 200 201
f 154 201 192
f 155 198 202
f 155 202 156
f 156 202 203
f 156 203 157
f 157 203 158
f 158 204 161
f 158 203 204
f 160 188 205
f 160 205 189
f 161 206 162
f 161 204 206
f 162 207 166
f 162 166 163
f 162 206 207
f 164 187 208
f 164 208 188
f 165 166 209
f 165 209 210
f 165 210 167
f 166 207 209
f 167 210 211
f 167 211 212
f 171 213 172
f 172 213 173
f 174 214 215
f 174 215 175
f 175 215 180
f 176 179 178
f 176 178 218
f 176 218 246
f 176 246 244
f 176 244 211
f 176 211 242
f 176 242 270
f 176 270 264
f 176 264 263
f 176 263 230
f 176 230 193
f 176 193 192
f 176 192 229
f 176 229 262
f 176 262 266
f 176 266 265
f 176 265 280
f 176 280 285
f 176 285 287
f 176 287 286
f 176 286 284
f 176 284 283
f 176 283 273
f 176 273 252
f 176 252 216
f 177 217 178
f 178 217 218
f 180 215 219
f 180 219 183
f 181 185 182
f 182 185 220
f 182 220 221
f 182 221 222
f 182 222 186
f 183 219 184
f 184 219 223
f 184 223 224
f 184 224 185
f 185 224 220
f 186 222 187
f 187 222 208
f 188 208 225
f 188 225 205
f 189 205 226
f 189 226 191
f 190 191 227
f 190 227 228
f 190 228 199
f 191 226 227
f 192 201 229
f 193 230 231
f 193 231 196
f 193 196 194
f 194 196 195
f 196 231 232
f 196 232 233
f 196 233 234
f 196 234 202
f 196 202 197
f 197 202 198
f 199 228 200
f 200 228 235
f 200 235 201
f 201 235 229
f 202 234 236
f 202 236 203
f 203 236 204
f 204 236 237
f 204 237 238
f 204 238 239
f 204 239 206
f 205 225 240
f 205 240 226
f 206 239 207
f 207 241 242
f 207 242 209
f 207 239 243
f 207 243 241
f 208 222 225
f 209 242 210
f 210 242 211
f 211 244 212
f 212 244 245
f 212 245 246
f 212 246 217
f 214 247 215
f 215 248 219
f 215 247 249
f 215 249 250
f 215 250 251
f 215 251 248
f 216 252 253
f 217 246 218
f 219 254 255
f 219 255 223
f 219 248 256
f 219 256 254
f 220 224 257
f 220 257 221
f 221 258 225
f 221 225 222
f 221 257 258
f 223 255 224
f 224 255 259
f 224 259 257
f 225 258 240
f 226 240 260
f 226 260 227
f 227 260 261
f 227 261 235
f 227 235 228
f 229 235 262
f 230 263 231
f 231 263 264
f 231 264 232
f 232 264 238
f 232 238 233
f 233 238 237
f 233 237 234
f 234 237 236
f 235 261 265
f 235 265 266
f 235 266 262
f 238 264 267
f 238 267 243
f 238 243 239
f 240 258 268
f 240 268 269
f 240 269 260
f 241 243 267
f 241 267 270
f 241 270 242
f 244 246 245
f 248 251 256
f 251 253 271
f 251 271 272
f 251 272 256
f 252 273 271
f 252 271 253
f 254 274 255
f 254 256 272
f 254 272 275
f 254 275 274
f 255 274 259
f 257 259 276
f 257 276 277
f 257 277 258
f 258 277 268
f 259 274 278
f 259 278 276
f 260 269 261
f 261 269 279
f 261 279 280
f 261 280 265
f 264 270 267
f 268 277 281
f 268 281 282
f 268 282 269
f 269 282 279
f 271 273 278
f 271 278 274
f 271 274 275
f 271 275 272
f 273 283 278
f 276 284 277
f 276 278 283
f 276 283 284
f 277 284 281
f 279 282 285
f 279 285 280
f 281 284 286
f 281 286 287
f 281 287 285
f 281 285 282

