# https://github.com/mikedh/trimesh
v -0.00223923 -0.02150482 -0.00384386
v -0.00223923 -0.02194005 -0.00384386
v -0.00223923 -0.02159320 -0.00615490
v -0.01350824 -0.01669054 -0.00882194
v -0.01349265 -0.01669054 -0.00847762
v -0.01364856 -0.01669054 -0.00655175
v -0.01374834 -0.01669054 -0.00593897
v -0.01398844 -0.01669054 -0.00497020
v -0.01427219 -0.01669054 -0.00384386
v -0.01674489 -0.02194005 -0.00384386
v -0.00223923 -0.02194005 -0.00968567
v -0.00223923 -0.02173862 -0.00782399
v -0.01371404 -0.01669054 -0.01066611
v -0.02058645 -0.01669054 -0.00384386
v -0.01719702 -0.02133525 -0.00384386
v -0.03409430 -0.02194005 -0.05478609
v -0.00223923 -0.02180234 -0.00847762
v -0.00237019 -0.02194005 -0.01001832
v -0.02428770 -0.01669054 -0.04347013
v -0.02372643 -0.01669054 -0.04195861
v -0.02336161 -0.01669054 -0.04094899
v -0.03409430 -0.01669054 -0.04805137
v -0.03409430 -0.01710317 -0.04855327
v -0.03409430 -0.02191899 -0.05475691
v -0.03409430 -0.02194005 -0.06346418
v -0.00272254 -0.02194005 -0.01080034
v -0.02532916 -0.01669054 -0.04579868
v -0.03409430 -0.01669054 -0.06010266
v -0.03326175 -0.02194005 -0.06258878
v -0.00314349 -0.02194005 -0.01156485
v -0.02873419 -0.01669054 -0.05276684
v -0.02818539 -0.01669054 -0.05169886
v -0.02758359 -0.01669054 -0.05049665
v -0.03387603 -0.01669054 -0.05985755
v -0.03110087 -0.02194005 -0.06022521
v -0.03225771 -0.02194005 -0.06151496
v -0.02316205 -0.02194005 -0.04780626
v -0.02458081 -0.02194005 -0.05037409
v -0.02884021 -0.01669054 -0.05295359
v -0.03367335 -0.01669054 -0.05962411
v -0.03280650 -0.01669054 -0.05861448
v -0.03009994 -0.02194005 -0.05905802
v -0.02715017 -0.02194005 -0.05487946
v -0.02996586 -0.01669054 -0.05487363
v -0.03188664 -0.01669054 -0.05749398
v -0.02885580 -0.02194005 -0.05748814
v -0.02809809 -0.02194005 -0.05643183
v -0.03010930 -0.01669054 -0.05508956
v -0.03177751 -0.01669054 -0.05735392
v -0.03072046 -0.01669054 -0.05597662
f 1 2 11
f 1 11 17
f 1 17 12
f 1 12 3
f 1 3 4
f 1 4 5
f 1 5 6
f 1 6 7
f 1 7 8
f 1 8 9
f 1 9 14
f 1 14 15
f 1 15 10
f 1 10 2
f 2 10 16
f 2 16 25
f 2 25 29
f 2 29 36
f 2 36 35
f 2 35 42
f 2 42 46
f 2 46 47
f 2 47 43
f 2 43 38
f 2 38 37
f 2 37 30
f 2 30 26
f 2 26 18
f 2 18 11
f 3 12 13
f 3 13 4
f 4 13 21
f 4 21 20
f 4 20 19
f 4 19 27
f 4 27 33
f 4 33 32
f 4 32 31
f 4 31 39
f 4 39 44
f 4 44 48
f 4 48 50
f 4 50 49
f 4 49 45
f 4 45 41
f 4 41 40
f 4 40 34
f 4 34 28
f 4 28 22
f 4 22 14
f 4 14 9
f 4 9 8
f 4 8 7
f 4 7 6
f 4 6 5
f 10 15 16
f 11 13 17
f 11 18 19
f 11 19 20
f 11 20 21
f 11 21 13
f 12 17 13
f 14 22 23
f 14 23 24
f 14 24 16
f 14 16 15
f 16 24 23
f 16 23 22
f 16 22 28
f 16 28 25
f 18 26 27
f 18 27 19
f 25 28 29
f 26 30 31
f 26 31 32
f 26 32 33
f 26 33 27
f 28 34 35
f 28 35 36
f 28 36 29
f 30 37 31
f 31 37 38
f 31 38 39
f 34 40 35
f 35 40 41
f 35 41 42
f 38 43 39
f 39 43 44
f 41 45 42
f 42 45 46
f 43 47 44
f 44 47 48
f 45 49 46
f 46 49 50
f 46 50 47
f 47 50 48

