# https://github.com/mikedh/trimesh
v -0.04055643 -0.02816360 -0.10940802
v -0.05295305 -0.02816360 -0.10940802
v -0.04816829 -0.02816360 -0.10143140
v 0.00193985 -0.03420155 -0.10940802
v -0.05221261 -0.02987954 -0.10940802
v -0.05345789 -0.02816360 -0.10872477
v -0.05401321 -0.02816360 -0.10143140
v 0.00072823 -0.03940013 -0.10143140
v 0.00193985 -0.03939844 -0.10144076
v 0.00193985 -0.04317047 -0.10940802
v -0.05334570 -0.02888450 -0.10843819
v -0.05189850 -0.03051921 -0.10940802
v -0.05411979 -0.02816360 -0.10769166
v -0.05535945 -0.02816360 -0.10144076
v -0.05515752 -0.02875927 -0.10143140
v 0.00193985 -0.04254095 -0.10143140
v 0.00193985 -0.04349538 -0.10875756
v 0.00155841 -0.04317216 -0.10940802
v -0.05380006 -0.02974247 -0.10705604
v -0.05411418 -0.02819237 -0.10767995
v -0.05225749 -0.03107089 -0.10845224
v -0.05143292 -0.03140595 -0.10940802
v -0.05131512 -0.03183747 -0.10925263
v -0.05443391 -0.02888450 -0.10620410
v -0.05467511 -0.02816360 -0.10616975
v -0.05526409 -0.02816360 -0.10313761
v -0.05503411 -0.02875927 -0.10376543
v -0.05515752 -0.02875927 -0.10144076
v -0.05431051 -0.03083228 -0.10143140
v 0.00073384 -0.04544992 -0.10143140
v 0.00193985 -0.04543808 -0.10144076
v 0.00193985 -0.04401659 -0.10759562
v 0.00073384 -0.04401997 -0.10759874
v -0.00158842 -0.04350215 -0.10877006
v -0.00158842 -0.04318062 -0.10940802
v -0.05184240 -0.03261760 -0.10770338
v -0.05341301 -0.03109965 -0.10620410
v -0.05408052 -0.03033476 -0.10550600
v -0.05121415 -0.03175794 -0.10940802
v -0.05103466 -0.03201516 -0.10940802
v -0.05046251 -0.03349249 -0.10850690
v -0.05523044 -0.02816360 -0.10373420
v -0.05424320 -0.03071044 -0.10376543
v -0.05430490 -0.03084582 -0.10143140
v 0.00073384 -0.04516393 -0.10376543
v -0.00158842 -0.04542962 -0.10143140
v -0.00158842 -0.04542962 -0.10144076
v -0.00158842 -0.04514532 -0.10376543
v 0.00193985 -0.04530101 -0.10255898
v 0.00193985 -0.04454965 -0.10608853
v 0.00073384 -0.04455980 -0.10608853
v -0.00158842 -0.04402336 -0.10760812
v -0.00391068 -0.04349538 -0.10873335
v -0.00234007 -0.04317554 -0.10940802
v -0.04961549 -0.03486998 -0.10776117
v -0.05120855 -0.03421847 -0.10608853
v -0.05219579 -0.03305759 -0.10608853
v -0.05366544 -0.03187301 -0.10376543
v -0.05006986 -0.03311512 -0.10940802
v -0.04899848 -0.03436908 -0.10931042
v -0.05374397 -0.03200331 -0.10144076
v -0.05374397 -0.03200331 -0.10143140
v 0.00193985 -0.04515209 -0.10376543
v -0.00158842 -0.04455811 -0.10608853
v -0.00391068 -0.04538900 -0.10143140
v -0.00391068 -0.04510301 -0.10376543
v -0.00391068 -0.04400305 -0.10757141
v -0.00623856 -0.04346830 -0.10864121
v -0.00947514 -0.04300970 -0.10940802
v -0.00708556 -0.04307909 -0.10940802
v -0.00469599 -0.04314339 -0.10940802
v -0.00391068 -0.04315693 -0.10940802
v -0.04815707 -0.03544027 -0.10848659
v -0.04690059 -0.03689222 -0.10724579
v -0.04806732 -0.03647762 -0.10631811
v -0.05004741 -0.03521182 -0.10608853
v -0.05148340 -0.03450446 -0.10453147
v -0.05234724 -0.03360080 -0.10375997
v -0.05271185 -0.03340788 -0.10144076
v -0.04908822 -0.03417955 -0.10940802
v -0.04894799 -0.03431493 -0.10940802
v -0.04879093 -0.03444692 -0.10940802
v -0.05271185 -0.03340788 -0.10143140
v -0.00391068 -0.04451073 -0.10608853
v -0.00623856 -0.04531962 -0.10143140
v -0.00623856 -0.04531962 -0.10144076
v -0.00623856 -0.04503702 -0.10376543
v -0.00623856 -0.04395906 -0.10747927
v -0.00856082 -0.04344122 -0.10854126
v -0.01197690 -0.04290986 -0.10940802
v -0.04773638 -0.03514751 -0.10940802
v -0.04701838 -0.03558750 -0.10940802
v -0.04633404 -0.03659608 -0.10841319
v -0.04487001 -0.03685499 -0.10940802
v -0.04469051 -0.03694130 -0.10940802
v -0.04517291 -0.03714775 -0.10841319
v -0.04341719 -0.03784326 -0.10841319
v -0.04180731 -0.03907015 -0.10668200
v -0.04327135 -0.03871985 -0.10597999
v -0.04596944 -0.03753358 -0.10631811
v -0.04728762 -0.03709191 -0.10569653
v -0.04884141 -0.03667730 -0.10376543
v -0.05058030 -0.03535904 -0.10375997
v -0.05160681 -0.03462630 -0.10298222
v -0.05167973 -0.03469738 -0.10144076
v -0.05167973 -0.03469230 -0.10143140
v -0.00623856 -0.04443458 -0.10608853
v -0.00856082 -0.04520793 -0.10143140
v -0.00856082 -0.04520793 -0.10144076
v -0.00856082 -0.04493210 -0.10376543
v -0.00856082 -0.04434320 -0.10608853
v -0.00856082 -0.04391675 -0.10737932
v -0.01086625 -0.04348692 -0.10821094
v -0.01321095 -0.04328892 -0.10841319
v -0.01321095 -0.04285232 -0.10940802
v -0.04441565 -0.03704960 -0.10940802
v -0.04105566 -0.03871816 -0.10834135
v -0.04025353 -0.03932060 -0.10751832
v -0.03876706 -0.04017857 -0.10608853
v -0.04105566 -0.03949321 -0.10597999
v -0.04239629 -0.03926814 -0.10513352
v -0.04393325 -0.03897369 -0.10376543
v -0.04573945 -0.03821218 -0.10376543
v -0.04768028 -0.03729498 -0.10376543
v -0.04912188 -0.03683130 -0.10144076
v -0.04794953 -0.03747266 -0.10143140
v -0.05038958 -0.03579734 -0.10144076
v -0.05038958 -0.03579734 -0.10143140
v -0.01008095 -0.04388459 -0.10730201
v -0.01088308 -0.04506578 -0.10143140
v -0.01088308 -0.04506578 -0.10144076
v -0.01088308 -0.04480179 -0.10376543
v -0.01321095 -0.04415366 -0.10587301
v -0.01086625 -0.04416551 -0.10627829
v -0.01416454 -0.04279648 -0.10940802
v -0.01162912 -0.04384229 -0.10717864
v -0.01553321 -0.04315016 -0.10841319
v -0.04260384 -0.03767573 -0.10940802
v -0.03920458 -0.03900753 -0.10906757
v -0.03856512 -0.03948475 -0.10834135
v -0.03644479 -0.04003134 -0.10841319
v -0.03644479 -0.04081655 -0.10608853
v -0.03512660 -0.04150360 -0.10472590
v -0.03647284 -0.04132930 -0.10387710
v -0.03876706 -0.04071670 -0.10376543
v -0.04109493 -0.03998904 -0.10376543
v -0.04277211 -0.03941367 -0.10376543
v -0.04323769 -0.03959813 -0.10144076
v -0.04439882 -0.03914461 -0.10144076
v -0.04573945 -0.03855909 -0.10143140
v -0.04912188 -0.03683130 -0.10143140
v -0.01321095 -0.04489487 -0.10143140
v -0.01321095 -0.04489487 -0.10144076
v -0.01321095 -0.04464611 -0.10376543
v -0.01553321 -0.04406397 -0.10562000
v -0.01553321 -0.04373060 -0.10678194
v -0.01321095 -0.04379829 -0.10703495
v -0.01557809 -0.04271187 -0.10940802
v -0.01785548 -0.04297755 -0.10841319
v -0.01785548 -0.04255618 -0.10940802
v -0.01657655 -0.04265095 -0.10940802
v -0.03956358 -0.03870970 -0.10940802
v -0.03821173 -0.03914968 -0.10940802
v -0.03779103 -0.03926983 -0.10940802
v -0.03746008 -0.03935952 -0.10940802
v -0.03412253 -0.04059825 -0.10841319
v -0.03257997 -0.04146807 -0.10699747
v -0.03425715 -0.04132422 -0.10616896
v -0.03357282 -0.04168805 -0.10544822
v -0.03425715 -0.04187082 -0.10387710
v -0.03571558 -0.04164744 -0.10317665
v -0.03733668 -0.04147483 -0.10143140
v -0.03876706 -0.04107377 -0.10144076
v -0.04109493 -0.04035964 -0.10144076
v -0.04109493 -0.04035964 -0.10143140
v -0.04322647 -0.03960151 -0.10143140
v -0.04439882 -0.03914461 -0.10143140
v -0.01553321 -0.04469349 -0.10143140
v -0.01553321 -0.04469349 -0.10144076
v -0.02367796 -0.04386598 -0.10260974
v -0.01553321 -0.04445150 -0.10376543
v -0.01933073 -0.04389305 -0.10502966
v -0.01785548 -0.04395906 -0.10527799
v -0.01785548 -0.04363922 -0.10643914
v -0.01901100 -0.04246141 -0.10940802
v -0.02018335 -0.04275925 -0.10841319
v -0.03567632 -0.03978935 -0.10940802
v -0.03412253 -0.04014642 -0.10940802
v -0.03180027 -0.04113808 -0.10830230
v -0.03103179 -0.04161698 -0.10745350
v -0.03180027 -0.04184543 -0.10616896
v -0.03179466 -0.04241911 -0.10376543
v -0.03412253 -0.04227357 -0.10143140
v -0.03616433 -0.04177098 -0.10143140
v -0.03876706 -0.04107377 -0.10143140
v -0.01785548 -0.04448196 -0.10143140
v -0.02250561 -0.04373229 -0.10415040
v -0.02087890 -0.04382367 -0.10465953
v -0.02250561 -0.04392521 -0.10298846
v -0.02018335 -0.04426366 -0.10144076
v -0.02250561 -0.04404197 -0.10144076
v -0.02396404 -0.04389813 -0.10144076
v -0.02512517 -0.04376614 -0.10144076
v -0.02715014 -0.04350384 -0.10144076
v -0.02947240 -0.04316201 -0.10143140
v -0.02715014 -0.04320262 -0.10376543
v -0.02460350 -0.04358845 -0.10353664
v -0.01785548 -0.04423997 -0.10376543
v -0.02013286 -0.04356814 -0.10591752
v -0.02250561 -0.04327031 -0.10608853
v -0.02018335 -0.04235142 -0.10940802
v -0.02250561 -0.04250880 -0.10841319
v -0.02250561 -0.04210773 -0.10940802
v -0.02151276 -0.04221435 -0.10940802
v -0.03300627 -0.04038164 -0.10940802
v -0.02947240 -0.04131407 -0.10899026
v -0.02947240 -0.04175574 -0.10782832
v -0.02947240 -0.04228542 -0.10608853
v -0.03179466 -0.04276602 -0.10143140
v -0.02947240 -0.04283033 -0.10376543
v -0.02018335 -0.04426366 -0.10143140
v -0.02482787 -0.04298094 -0.10608853
v -0.02013286 -0.04401997 -0.10383727
v -0.02250561 -0.04404197 -0.10143140
v -0.02396964 -0.04389644 -0.10143140
v -0.02512517 -0.04376614 -0.10143140
v -0.02395282 -0.04389813 -0.10143140
v -0.02715014 -0.04350384 -0.10143140
v -0.02715014 -0.04265602 -0.10608853
v -0.02482787 -0.04221773 -0.10841319
v -0.02482787 -0.04183020 -0.10940802
v -0.02412671 -0.04191651 -0.10940802
v -0.03000528 -0.04100946 -0.10940802
v -0.02947240 -0.04111608 -0.10940802
v -0.02773911 -0.04146129 -0.10936742
v -0.02703795 -0.04187420 -0.10852095
v -0.02637044 -0.04163221 -0.10940802
v -0.02594413 -0.04168975 -0.10940802
v -0.02778960 -0.04143253 -0.10940802
v -0.02771668 -0.04144437 -0.10940802
v -0.02750913 -0.04147653 -0.10940802
f 1 2 6
f 1 6 13
f 1 13 25
f 1 25 42
f 1 42 26
f 1 26 14
f 1 14 7
f 1 7 3
f 1 3 4
f 1 4 10
f 1 10 18
f 1 18 35
f 1 35 54
f 1 54 72
f 1 72 71
f 1 71 70
f 1 70 69
f 1 69 90
f 1 90 115
f 1 115 135
f 1 135 158
f 1 158 161
f 1 161 160
f 1 160 185
f 1 185 211
f 1 211 214
f 1 214 213
f 1 213 232
f 1 232 231
f 1 231 238
f 1 238 237
f 1 237 241
f 1 241 240
f 1 240 239
f 1 239 234
f 1 234 233
f 1 233 215
f 1 215 188
f 1 188 187
f 1 187 165
f 1 165 164
f 1 164 163
f 1 163 162
f 1 162 138
f 1 138 116
f 1 116 95
f 1 95 94
f 1 94 92
f 1 92 91
f 1 91 82
f 1 82 81
f 1 81 80
f 1 80 59
f 1 59 40
f 1 40 39
f 1 39 22
f 1 22 12
f 1 12 5
f 1 5 2
f 2 5 6
f 3 7 15
f 3 15 29
f 3 29 44
f 3 44 62
f 3 62 83
f 3 83 106
f 3 106 128
f 3 128 151
f 3 151 126
f 3 126 150
f 3 150 177
f 3 177 176
f 3 176 175
f 3 175 195
f 3 195 172
f 3 172 194
f 3 194 193
f 3 193 219
f 3 219 205
f 3 205 228
f 3 228 226
f 3 226 225
f 3 225 227
f 3 227 224
f 3 224 221
f 3 221 196
f 3 196 178
f 3 178 152
f 3 152 130
f 3 130 108
f 3 108 85
f 3 85 65
f 3 65 46
f 3 46 30
f 3 30 16
f 3 16 8
f 3 8 9
f 3 9 4
f 4 9 16
f 4 16 31
f 4 31 49
f 4 49 63
f 4 63 50
f 4 50 32
f 4 32 17
f 4 17 10
f 5 11 6
f 5 12 11
f 6 11 13
f 7 14 15
f 8 16 9
f 10 17 18
f 11 19 20
f 11 20 13
f 11 12 21
f 11 21 19
f 12 22 23
f 12 23 21
f 13 20 24
f 13 24 25
f 14 26 27
f 14 27 28
f 14 28 15
f 15 28 29
f 16 30 31
f 17 32 33
f 17 33 34
f 17 34 18
f 18 34 35
f 19 21 36
f 19 36 37
f 19 37 38
f 19 38 24
f 19 24 20
f 21 23 36
f 22 39 23
f 23 39 40
f 23 40 41
f 23 41 36
f 24 27 25
f 24 38 27
f 25 27 42
f 26 42 27
f 27 38 43
f 27 43 28
f 28 43 29
f 29 43 44
f 30 45 31
f 30 46 47
f 30 47 48
f 30 48 45
f 31 45 49
f 32 50 51
f 32 51 33
f 33 51 52
f 33 52 34
f 34 52 53
f 34 53 54
f 34 54 35
f 36 41 55
f 36 55 56
f 36 56 57
f 36 57 37
f 37 57 58
f 37 58 38
f 38 58 43
f 40 59 41
f 41 59 60
f 41 60 55
f 43 58 61
f 43 61 44
f 44 61 62
f 45 51 50
f 45 50 63
f 45 63 49
f 45 48 64
f 45 64 51
f 46 65 47
f 47 65 48
f 48 65 66
f 48 66 64
f 51 64 52
f 52 64 67
f 52 67 53
f 53 67 68
f 53 68 69
f 53 69 70
f 53 70 71
f 53 71 72
f 53 72 54
f 55 60 73
f 55 73 74
f 55 74 75
f 55 75 76
f 55 76 56
f 56 77 57
f 56 76 77
f 57 77 58
f 58 77 78
f 58 78 79
f 58 79 61
f 59 80 60
f 60 80 81
f 60 81 82
f 60 82 73
f 61 79 83
f 61 83 62
f 64 66 84
f 64 84 67
f 65 85 86
f 65 86 87
f 65 87 66
f 66 87 84
f 67 84 88
f 67 88 89
f 67 89 68
f 68 89 69
f 69 89 90
f 73 82 91
f 73 91 92
f 73 92 93
f 73 93 74
f 74 93 94
f 74 94 95
f 74 95 96
f 74 96 97
f 74 97 98
f 74 98 99
f 74 99 100
f 74 100 101
f 74 101 75
f 75 102 76
f 75 101 102
f 76 102 77
f 77 102 103
f 77 103 104
f 77 104 78
f 78 104 79
f 79 104 105
f 79 105 83
f 83 105 106
f 84 87 107
f 84 107 88
f 85 108 109
f 85 109 86
f 86 109 110
f 86 110 87
f 87 110 111
f 87 111 107
f 88 107 112
f 88 112 89
f 89 112 113
f 89 113 90
f 90 114 115
f 90 113 114
f 92 94 93
f 95 116 97
f 95 97 96
f 97 116 117
f 97 117 118
f 97 118 98
f 98 118 119
f 98 119 120
f 98 120 121
f 98 121 99
f 99 122 100
f 99 121 122
f 100 123 101
f 100 122 123
f 101 123 124
f 101 124 102
f 102 125 103
f 102 124 126
f 102 126 125
f 103 125 104
f 104 125 127
f 104 127 105
f 105 127 128
f 105 128 106
f 107 111 129
f 107 129 112
f 108 130 131
f 108 131 109
f 109 131 132
f 109 132 110
f 110 132 133
f 110 133 111
f 111 133 134
f 111 134 129
f 112 129 113
f 113 129 114
f 114 135 115
f 114 129 136
f 114 136 137
f 114 137 135
f 116 138 117
f 117 138 139
f 117 139 118
f 118 139 140
f 118 140 141
f 118 141 142
f 118 142 119
f 119 142 143
f 119 143 144
f 119 144 145
f 119 145 120
f 120 146 121
f 120 145 146
f 121 146 147
f 121 147 122
f 122 147 148
f 122 148 149
f 122 149 123
f 123 150 124
f 123 149 150
f 124 150 126
f 125 151 128
f 125 128 127
f 125 126 151
f 129 134 136
f 130 152 153
f 130 153 131
f 131 153 154
f 131 154 132
f 132 154 155
f 132 155 133
f 133 155 156
f 133 156 157
f 133 157 134
f 134 157 136
f 135 137 158
f 136 157 137
f 137 156 159
f 137 159 160
f 137 160 161
f 137 161 158
f 137 157 156
f 138 162 139
f 139 162 163
f 139 163 164
f 139 164 140
f 140 164 141
f 141 164 165
f 141 165 166
f 141 166 167
f 141 167 142
f 142 167 168
f 142 168 169
f 142 169 143
f 143 169 170
f 143 170 171
f 143 171 144
f 144 171 145
f 145 171 172
f 145 172 173
f 145 173 174
f 145 174 146
f 146 174 147
f 147 174 148
f 148 175 176
f 148 176 177
f 148 177 149
f 148 174 175
f 149 177 150
f 152 178 179
f 152 179 153
f 153 179 180
f 153 180 181
f 153 181 154
f 154 181 182
f 154 182 183
f 154 183 155
f 155 183 184
f 155 184 156
f 156 184 159
f 159 185 160
f 159 184 186
f 159 186 185
f 165 187 166
f 166 187 188
f 166 188 189
f 166 189 167
f 167 189 190
f 167 190 191
f 167 191 169
f 167 169 168
f 169 191 192
f 169 192 170
f 170 193 171
f 170 192 193
f 171 193 194
f 171 194 172
f 172 195 173
f 173 195 175
f 173 175 174
f 178 196 179
f 179 196 180
f 180 197 198
f 180 198 199
f 180 199 181
f 180 196 200
f 180 200 201
f 180 201 202
f 180 202 203
f 180 203 204
f 180 204 205
f 180 205 206
f 180 206 207
f 180 207 197
f 181 208 198
f 181 198 182
f 181 199 208
f 182 209 184
f 182 184 183
f 182 198 210
f 182 210 209
f 184 209 210
f 184 210 186
f 185 186 211
f 186 210 212
f 186 212 213
f 186 213 214
f 186 214 211
f 188 215 189
f 189 215 216
f 189 216 190
f 190 216 217
f 190 217 218
f 190 218 191
f 191 218 192
f 192 219 193
f 192 218 220
f 192 220 219
f 196 221 200
f 197 207 206
f 197 206 222
f 197 222 198
f 198 222 210
f 198 208 223
f 198 223 199
f 199 223 208
f 200 221 224
f 200 224 201
f 201 224 202
f 202 225 226
f 202 226 203
f 202 224 227
f 202 227 225
f 203 226 228
f 203 228 204
f 204 228 205
f 205 219 220
f 205 220 206
f 206 229 222
f 206 220 218
f 206 218 229
f 210 222 212
f 212 222 230
f 212 230 231
f 212 231 232
f 212 232 213
f 215 233 216
f 216 233 234
f 216 234 235
f 216 235 217
f 217 235 236
f 217 236 229
f 217 229 218
f 222 229 236
f 222 236 230
f 230 237 238
f 230 238 231
f 230 236 235
f 230 235 237
f 234 239 235
f 235 239 240
f 235 240 241
f 235 241 237

