# https://github.com/mikedh/trimesh
v 0.02377193 0.00215875 -0.00384386
v 0.02265767 0.00952706 -0.00150139
v 0.02265767 0.00919549 -0.00382527
v 0.02265767 0.00919549 -0.00384386
v 0.02733502 0.00215875 -0.00384386
v 0.02422103 0.00215875 0.00315256
v 0.02265767 0.01315228 0.01244808
v 0.02265767 0.01280965 0.01136980
v 0.02265767 0.01094915 0.00547644
v 0.02265767 0.01058810 0.00419986
v 0.02265767 0.01015337 0.00212386
v 0.02265767 0.00979601 0.00023377
v 0.02265767 0.01869694 -0.00384386
v 0.02961650 0.00301715 -0.00384386
v 0.02919495 0.00215875 -0.00383146
v 0.02265767 0.01483226 0.01705865
v 0.02265767 0.01344701 0.01327848
v 0.02428881 0.00215875 0.00385283
v 0.02265767 0.02042481 0.03195006
v 0.02398165 0.01800432 -0.00384386
v 0.02265767 0.03979613 0.05946478
v 0.03010161 0.00418135 -0.00384386
v 0.04268045 0.00215875 0.05194781
v 0.02444981 0.00215875 0.00547644
v 0.02265767 0.03012889 0.05382550
v 0.02554289 0.01701328 -0.00384386
v 0.02878398 0.03632196 0.05946478
v 0.03022023 0.03550408 0.05946478
v 0.03037064 0.03541566 0.05946478
v 0.02265767 0.03276675 0.05946478
v 0.03010161 0.00554080 -0.00384386
v 0.04332443 0.00377977 0.05427788
v 0.04320369 0.00215875 0.05427788
v 0.02620805 0.00215875 0.01709583
v 0.02265767 0.03147361 0.05675668
v 0.02639871 0.01540330 -0.00384386
v 0.03134720 0.03479304 0.05946478
v 0.03245723 0.03394568 0.05946478
v 0.03290844 0.03356989 0.05946478
v 0.03338507 0.03314253 0.05946478
v 0.03408837 0.03245728 0.05946478
v 0.03474082 0.03174992 0.05946478
v 0.03516661 0.03127835 0.05946478
v 0.03557334 0.03082520 0.05946478
v 0.03639315 0.02978626 0.05946478
v 0.03706890 0.02878417 0.05946478
v 0.03709856 0.02873628 0.05946478
v 0.03783787 0.00215875 0.05946478
v 0.02265767 0.03235044 0.05860959
v 0.02666138 0.00215875 0.01941971
v 0.02676306 0.00215875 0.01987829
v 0.02723758 0.00215875 0.02184274
v 0.02857426 0.00215875 0.02709780
v 0.02916529 0.00215875 0.02922338
v 0.02970547 0.00215875 0.03115684
v 0.03931649 0.02328740 0.05946478
v 0.04052395 0.02003429 0.05946478
v 0.04121242 0.01810379 0.05946478
v 0.04156407 0.01703907 0.05945858
v 0.04185429 0.01556540 0.05878311
v 0.04157466 0.01474752 0.05660176
v 0.04202799 0.01307860 0.05660176
v 0.04255970 0.01307860 0.05892564
v 0.04256818 0.01075389 0.05660176
v 0.04305964 0.00610448 0.05427788
v 0.04383496 0.00542659 0.05725244
v 0.04366126 0.00377977 0.05583333
v 0.04382860 0.00215875 0.05724005
v 0.03712398 0.02868101 0.05946478
v 0.03779762 0.02711893 0.05946478
v 0.04412306 0.00215875 0.05946478
v 0.04156407 0.01703907 0.05946478
v 0.04200893 0.01552119 0.05946478
v 0.04265291 0.01307860 0.05946478
v 0.04306176 0.01075389 0.05892564
v 0.04306811 0.00842919 0.05660176
v 0.04353627 0.00616343 0.05652739
v 0.04398536 0.00616343 0.05889465
v 0.04407645 0.00614869 0.05946478
v 0.04429676 0.00377977 0.05946478
v 0.04421838 0.00377977 0.05892564
v 0.04387944 0.00377977 0.05699217
v 0.04423957 0.00324189 0.05946478
v 0.04315496 0.01072810 0.05946478
v 0.04325453 0.01025653 0.05946478
v 0.04385614 0.00728341 0.05946478
f 1 2 3
f 1 3 4
f 1 4 13
f 1 13 20
f 1 20 26
f 1 26 36
f 1 36 31
f 1 31 22
f 1 22 14
f 1 14 5
f 1 5 15
f 1 15 23
f 1 23 33
f 1 33 68
f 1 68 71
f 1 71 48
f 1 48 55
f 1 55 54
f 1 54 53
f 1 53 52
f 1 52 51
f 1 51 50
f 1 50 34
f 1 34 24
f 1 24 18
f 1 18 6
f 1 6 7
f 1 7 8
f 1 8 9
f 1 9 10
f 1 10 11
f 1 11 12
f 1 12 2
f 2 12 11
f 2 11 10
f 2 10 9
f 2 9 8
f 2 8 7
f 2 7 17
f 2 17 16
f 2 16 19
f 2 19 25
f 2 25 35
f 2 35 49
f 2 49 30
f 2 30 21
f 2 21 13
f 2 13 4
f 2 4 3
f 5 14 15
f 6 16 17
f 6 17 7
f 6 18 19
f 6 19 16
f 13 21 20
f 14 22 23
f 14 23 15
f 18 24 19
f 19 24 25
f 20 21 27
f 20 27 28
f 20 28 29
f 20 29 26
f 21 30 48
f 21 48 71
f 21 71 83
f 21 83 80
f 21 80 79
f 21 79 86
f 21 86 85
f 21 85 84
f 21 84 74
f 21 74 73
f 21 73 72
f 21 72 58
f 21 58 57
f 21 57 56
f 21 56 70
f 21 70 69
f 21 69 47
f 21 47 46
f 21 46 45
f 21 45 44
f 21 44 43
f 21 43 42
f 21 42 41
f 21 41 40
f 21 40 39
f 21 39 38
f 21 38 37
f 21 37 29
f 21 29 28
f 21 28 27
f 22 31 32
f 22 32 23
f 23 32 33
f 24 34 35
f 24 35 25
f 26 29 37
f 26 37 38
f 26 38 39
f 26 39 40
f 26 40 41
f 26 41 42
f 26 42 43
f 26 43 44
f 26 44 45
f 26 45 46
f 26 46 47
f 26 47 36
f 30 49 34
f 30 34 50
f 30 50 51
f 30 51 52
f 30 52 53
f 30 53 54
f 30 54 55
f 30 55 48
f 31 36 56
f 31 56 57
f 31 57 58
f 31 58 59
f 31 59 60
f 31 60 61
f 31 61 62
f 31 62 63
f 31 63 64
f 31 64 65
f 31 65 66
f 31 66 32
f 32 66 67
f 32 67 33
f 33 67 68
f 34 49 35
f 36 47 69
f 36 69 70
f 36 70 56
f 58 72 59
f 59 72 73
f 59 73 60
f 60 73 63
f 60 63 62
f 60 62 61
f 63 73 74
f 63 74 75
f 63 75 64
f 64 75 76
f 64 76 65
f 65 76 77
f 65 77 66
f 66 77 75
f 66 75 78
f 66 78 79
f 66 79 80
f 66 80 81
f 66 81 82
f 66 82 67
f 67 82 68
f 68 82 81
f 68 81 80
f 68 80 83
f 68 83 71
f 74 84 75
f 75 84 85
f 75 85 78
f 75 77 76
f 78 85 86
f 78 86 79

