# https://github.com/mikedh/trimesh
v 0.04961547 0.00215664 0.11005727
v 0.04890304 0.00215664 0.11251271
v 0.04957542 0.00145352 0.11005727
v 0.04455677 0.00215664 0.06287141
v 0.04883137 -0.00087055 0.11214519
v 0.04852785 0.00215664 0.11327970
v 0.04884612 0.00155457 0.11256064
v 0.04933724 -0.00087055 0.11005727
v 0.04456099 0.00145352 0.06357981
v 0.04440712 0.00145352 0.06218965
v 0.04445139 0.00187455 0.06218965
v 0.04448089 0.00215664 0.06218965
v 0.04865853 -0.00319463 0.11182562
v 0.04832128 0.00084514 0.11346079
v 0.04821379 -0.00087055 0.11330633
v 0.04839084 0.00215664 0.11354601
v 0.04850045 -0.00498611 0.11149005
v 0.04900632 -0.00319463 0.11005727
v 0.04840349 -0.00676285 0.10883222
v 0.04323519 -0.00551871 0.06218965
v 0.03810694 0.00215664 0.06218965
v 0.04801565 -0.00319463 0.11299208
v 0.04705239 -0.00087055 0.11435562
v 0.04685427 -0.00319463 0.11418517
v 0.04660343 -0.00551871 0.11399343
v 0.04633575 -0.00784278 0.11377504
v 0.04812315 0.00215664 0.11376972
v 0.04835501 -0.00653549 0.11077633
v 0.04787232 -0.00566396 0.11231031
v 0.04730955 -0.00784278 0.11237955
v 0.04637790 -0.01248883 0.11179365
v 0.04857211 -0.00566396 0.11001999
v 0.04840349 -0.00676285 0.10922637
v 0.04746341 -0.01016476 0.11005727
v 0.04675942 -0.01248883 0.11005727
v 0.04619031 -0.01399822 0.10855525
v 0.04146254 -0.01639598 0.06590209
v 0.04142882 -0.01602758 0.06467704
v 0.04263869 -0.00877536 0.06218965
v 0.04282417 -0.00784278 0.06218965
v 0.04307289 -0.00645339 0.06218965
v 0.02997088 -0.01933897 0.06218965
v 0.02808441 -0.01934528 0.10540740
v 0.03838728 0.00215664 0.10540740
v 0.04614815 -0.00931007 0.11362059
v 0.04541043 -0.00319463 0.11535164
v 0.04741704 0.00155457 0.11429170
v 0.04558327 -0.00087055 0.11551675
v 0.04404880 -0.00551871 0.11609732
v 0.04521019 -0.00551871 0.11515456
v 0.04386963 -0.00718598 0.11597481
v 0.04616712 0.00215664 0.11530370
v 0.04570762 0.00145352 0.11562860
v 0.04614394 -0.01387823 0.11138885
v 0.04812948 -0.00765964 0.11001999
v 0.04664770 -0.01011634 0.11250738
v 0.04590576 -0.01085945 0.11336492
v 0.04562332 -0.01248883 0.11295479
v 0.04622193 -0.01408243 0.11005727
v 0.04578140 -0.01524447 0.11005727
v 0.04497201 -0.01713699 0.11005727
v 0.04053511 -0.01934528 0.06808588
v 0.04110632 -0.01755802 0.06590209
v 0.04105996 -0.01498132 0.06218965
v 0.04162906 -0.01329931 0.06218965
v 0.04215179 -0.01109944 0.06218965
v 0.04235203 -0.01016476 0.06218965
v 0.03356044 -0.01934528 0.06218965
v 0.03042406 -0.01934528 0.06357981
v 0.03130722 -0.01934528 0.11438224
v 0.04013463 0.00215664 0.11470182
v 0.04446192 -0.01248883 0.11410528
v 0.04362935 -0.00873326 0.11580437
v 0.04161430 -0.01415611 0.11602275
v 0.04424904 -0.00319463 0.11620385
v 0.04186302 -0.01248883 0.11617721
v 0.04257335 -0.00551871 0.11651811
v 0.04221291 -0.01016476 0.11628907
v 0.04573081 0.00215664 0.11564459
v 0.04492142 0.00215664 0.11611329
v 0.04454624 0.00145352 0.11629973
v 0.04442188 -0.00087055 0.11626244
v 0.04523337 -0.01471818 0.11225172
v 0.04422164 -0.01694753 0.11236357
v 0.04394763 -0.01869058 0.11158060
v 0.04401929 -0.01481291 0.11375906
v 0.04376635 -0.01604442 0.11356732
v 0.04408674 -0.01894320 0.11005727
v 0.03995969 -0.01934528 0.06598198
v 0.04386331 -0.01934528 0.11005727
v 0.03997023 -0.01693068 0.06218965
v 0.03781607 -0.01934528 0.06218965
v 0.03141050 -0.01934528 0.11455801
v 0.04038757 0.00215664 0.11512793
v 0.04038546 -0.01488449 0.11631570
v 0.03968778 -0.01713699 0.11618254
v 0.03927255 -0.01861059 0.11599079
v 0.04125176 -0.01570549 0.11576176
v 0.04024846 -0.01248883 0.11659266
v 0.04257335 -0.00319463 0.11655539
v 0.04456942 0.00215664 0.11630505
v 0.04336376 -0.01759380 0.11313056
v 0.04305603 -0.01934528 0.11225705
v 0.04371366 -0.01934528 0.11087220
v 0.04258389 -0.01694753 0.11413191
v 0.04172602 -0.01934528 0.11376972
v 0.03982690 -0.01934528 0.06571034
v 0.03894584 -0.01815588 0.06218965
v 0.03845051 -0.01870953 0.06218965
v 0.03230209 -0.01934528 0.11557534
v 0.04107049 0.00215664 0.11611862
v 0.03792778 -0.01713699 0.11655005
v 0.03798891 -0.01934528 0.11621982
v 0.03805003 -0.01934528 0.11620385
v 0.03900697 -0.01934528 0.11582568
v 0.04006508 -0.01934528 0.11505336
v 0.03792778 -0.01481291 0.11656604
v 0.03571882 -0.01934528 0.11652874
v 0.04024846 -0.01016476 0.11659800
v 0.04257335 0.00145352 0.11656071
v 0.04319304 0.00215664 0.11648615
v 0.04276516 -0.01934528 0.11262989
v 0.03851585 -0.01863796 0.06218965
v 0.03340447 -0.01934528 0.11617721
v 0.04151734 0.00215664 0.11625712
v 0.03793411 -0.01934528 0.11623047
v 0.04257335 0.00215664 0.11656071
v 0.03559868 -0.01934528 0.11651278
v 0.03347613 -0.01934528 0.11619852
f 1 2 3
f 1 3 4
f 1 4 12
f 1 12 21
f 1 21 44
f 1 44 71
f 1 71 94
f 1 94 111
f 1 111 125
f 1 125 127
f 1 127 121
f 1 121 101
f 1 101 80
f 1 80 79
f 1 79 52
f 1 52 27
f 1 27 16
f 1 16 6
f 1 6 2
f 2 5 3
f 2 6 7
f 2 7 5
f 3 5 8
f 3 8 4
f 4 9 10
f 4 10 11
f 4 11 12
f 4 8 9
f 5 13 8
f 5 7 14
f 5 14 15
f 5 15 13
f 6 16 7
f 7 16 14
f 8 13 17
f 8 17 18
f 8 18 19
f 8 19 9
f 9 19 10
f 10 19 20
f 10 20 41
f 10 41 40
f 10 40 39
f 10 39 67
f 10 67 66
f 10 66 65
f 10 65 64
f 10 64 91
f 10 91 108
f 10 108 123
f 10 123 109
f 10 109 92
f 10 92 68
f 10 68 42
f 10 42 21
f 10 21 12
f 10 12 11
f 13 15 22
f 13 22 17
f 14 16 23
f 14 23 15
f 15 23 24
f 15 24 25
f 15 25 26
f 15 26 22
f 16 27 23
f 17 28 18
f 17 22 29
f 17 29 30
f 17 30 31
f 17 31 28
f 18 28 32
f 18 32 33
f 18 33 19
f 19 33 34
f 19 34 35
f 19 35 36
f 19 36 37
f 19 37 38
f 19 38 39
f 19 39 40
f 19 40 41
f 19 41 20
f 21 42 43
f 21 43 44
f 22 26 45
f 22 45 30
f 22 30 29
f 23 46 24
f 23 27 47
f 23 47 48
f 23 48 46
f 24 46 49
f 24 49 50
f 24 50 25
f 25 50 51
f 25 51 26
f 26 51 45
f 27 52 53
f 27 53 47
f 28 31 54
f 28 54 34
f 28 34 55
f 28 55 33
f 28 33 32
f 30 56 31
f 30 45 56
f 31 56 57
f 31 57 58
f 31 58 54
f 33 55 34
f 34 54 35
f 35 54 59
f 35 59 36
f 36 59 60
f 36 60 61
f 36 61 62
f 36 62 63
f 36 63 37
f 37 63 38
f 38 63 64
f 38 64 65
f 38 65 66
f 38 66 67
f 38 67 39
f 42 68 69
f 42 69 43
f 43 70 71
f 43 71 44
f 43 69 68
f 43 68 92
f 43 92 107
f 43 107 89
f 43 89 62
f 43 62 90
f 43 90 104
f 43 104 103
f 43 103 122
f 43 122 106
f 43 106 116
f 43 116 115
f 43 115 114
f 43 114 113
f 43 113 126
f 43 126 118
f 43 118 128
f 43 128 129
f 43 129 124
f 43 124 110
f 43 110 93
f 43 93 70
f 45 72 57
f 45 57 56
f 45 51 73
f 45 73 74
f 45 74 72
f 46 48 49
f 47 53 48
f 48 53 75
f 48 75 49
f 49 76 51
f 49 51 50
f 49 75 77
f 49 77 78
f 49 78 76
f 51 76 74
f 51 74 73
f 52 79 53
f 53 79 80
f 53 80 81
f 53 81 82
f 53 82 75
f 54 61 60
f 54 60 59
f 54 58 83
f 54 83 84
f 54 84 85
f 54 85 61
f 57 72 86
f 57 86 87
f 57 87 58
f 58 87 83
f 61 85 88
f 61 88 62
f 62 89 63
f 62 88 90
f 63 89 91
f 63 91 64
f 70 93 71
f 71 93 94
f 72 74 86
f 74 76 95
f 74 95 96
f 74 96 97
f 74 97 98
f 74 98 87
f 74 87 86
f 75 82 77
f 76 78 99
f 76 99 95
f 77 100 99
f 77 99 78
f 77 82 81
f 77 81 100
f 80 101 81
f 81 101 100
f 83 87 84
f 84 87 102
f 84 102 85
f 85 102 103
f 85 103 104
f 85 104 90
f 85 90 88
f 87 105 106
f 87 106 102
f 87 98 105
f 89 107 91
f 91 107 108
f 92 109 107
f 93 110 111
f 93 111 94
f 95 99 112
f 95 112 96
f 96 112 113
f 96 113 114
f 96 114 97
f 97 114 115
f 97 115 116
f 97 116 98
f 98 116 106
f 98 106 105
f 99 117 118
f 99 118 112
f 99 100 119
f 99 119 117
f 100 120 119
f 100 101 121
f 100 121 120
f 102 106 122
f 102 122 103
f 107 109 123
f 107 123 108
f 110 124 111
f 111 124 125
f 112 118 126
f 112 126 113
f 117 119 127
f 117 127 118
f 118 127 128
f 119 120 127
f 120 121 127
f 124 129 125
f 125 129 127
f 127 129 128

