# https://github.com/mikedh/trimesh
v 0.00096360 0.02897048 -0.04101888
v -0.00742334 0.02819162 -0.04214305
v -0.00623517 0.02801716 -0.04101888
v 0.00096360 0.02340423 -0.04101888
v 0.00096360 0.04150078 -0.09446806
v 0.00073751 0.04149455 -0.09446806
v -0.00158591 0.04140732 -0.09446806
v -0.00390934 0.04074892 -0.09213904
v -0.00623517 0.04059315 -0.09213904
v -0.02360555 0.03757117 -0.08460871
v -0.02360555 0.03745279 -0.08411387
v -0.02360555 0.03736348 -0.08375886
v -0.02360555 0.03715786 -0.08295204
v -0.02360555 0.03653061 -0.08052082
v -0.00836137 0.02768485 -0.04101888
v -0.00722131 0.02786346 -0.04101888
v -0.02360555 0.03588468 -0.07819717
v -0.01066075 0.02058788 -0.04101888
v -0.01074252 0.02058788 -0.04126093
v -0.01164447 0.02058788 -0.04333176
v -0.01291923 0.02058788 -0.04588670
v -0.01297696 0.02058788 -0.04599428
v -0.01406892 0.02058788 -0.04798981
v -0.01547356 0.02058788 -0.05026504
v -0.01682769 0.02058788 -0.05231975
v -0.01762862 0.02058788 -0.05350309
v 0.00096360 0.02381547 -0.04318116
v 0.00096360 0.04153194 -0.09460790
v 0.00096360 0.04154232 -0.09465632
v -0.00027748 0.04175832 -0.09596337
v -0.00158591 0.04169809 -0.09596337
v -0.00241571 0.04165863 -0.09596337
v -0.00390934 0.04129101 -0.09446806
v -0.00623517 0.04112693 -0.09446806
v -0.02360555 0.03801357 -0.08649129
v -0.01088203 0.02682499 -0.04101888
v -0.02360555 0.03534883 -0.07641679
v -0.02360555 0.03497082 -0.07525497
v -0.02360555 0.03435604 -0.07354989
v -0.02127250 0.02058788 -0.04101888
v 0.00096360 0.02525480 -0.05031345
v -0.01876869 0.02058788 -0.05496612
v 0.00096360 0.02713653 -0.05938212
v 0.00096360 0.02668375 -0.05728439
v 0.00096360 0.04180402 -0.09596337
v 0.00062447 0.04179155 -0.09596337
v -0.00390934 0.04156724 -0.09596337
v -0.00473914 0.04150909 -0.09596337
v -0.00623517 0.04139070 -0.09596337
v -0.00855860 0.04092546 -0.09446806
v -0.02360555 0.03895443 -0.09103638
v -0.02360555 0.03871142 -0.08981539
v -0.02360555 0.03848919 -0.08871274
v -0.02360555 0.03823580 -0.08749175
v -0.01259694 0.02610636 -0.04101888
v -0.02360555 0.03343387 -0.07118859
v -0.02360555 0.02058788 -0.04735512
v -0.01976444 0.02186313 -0.04101888
v -0.02360555 0.03062582 -0.06517509
v -0.02360555 0.03000896 -0.06400789
v 0.00096360 0.02718638 -0.05960803
v -0.02032726 0.02058788 -0.05670347
v 0.00096360 0.03255947 -0.08277991
v 0.00096360 0.03581407 -0.09596337
v -0.00855860 0.04118923 -0.09596337
v -0.02017573 0.03974367 -0.09365048
v -0.01894667 0.03979767 -0.09333850
v -0.02360555 0.03916005 -0.09213904
v -0.01375865 0.02559127 -0.04101888
v -0.02360555 0.03290840 -0.06988155
v -0.02360555 0.02058788 -0.05989848
v -0.01833335 0.02302623 -0.04101888
v -0.02360555 0.03131330 -0.06656820
v -0.02074336 0.02058788 -0.05714992
v 0.00096360 0.03284609 -0.08394174
v -0.02360555 0.03374126 -0.09596337
v -0.02266271 0.02058788 -0.05901636
v -0.02312932 0.02058788 -0.05946818
v -0.02328566 0.03984752 -0.09596337
v -0.02352137 0.03978937 -0.09572132
v -0.02360555 0.03976860 -0.09563526
v -0.02197242 0.03985998 -0.09528026
v -0.02264828 0.03966682 -0.09448957
v -0.02360555 0.03940305 -0.09345685
v -0.01552888 0.02474595 -0.04101888
v -0.02360555 0.03238708 -0.06875738
v -0.01717163 0.02385286 -0.04101888
v -0.02360555 0.03981429 -0.09596337
v -0.02360555 0.03978521 -0.09574822
v -0.02360555 0.03957751 -0.09447882
f 1 2 3
f 1 3 16
f 1 16 15
f 1 15 36
f 1 36 55
f 1 55 69
f 1 69 85
f 1 85 87
f 1 87 72
f 1 72 58
f 1 58 40
f 1 40 18
f 1 18 4
f 1 4 27
f 1 27 41
f 1 41 44
f 1 44 43
f 1 43 61
f 1 61 63
f 1 63 75
f 1 75 64
f 1 64 45
f 1 45 29
f 1 29 28
f 1 28 5
f 1 5 6
f 1 6 7
f 1 7 8
f 1 8 9
f 1 9 10
f 1 10 11
f 1 11 12
f 1 12 13
f 1 13 14
f 1 14 2
f 2 15 16
f 2 16 3
f 2 14 17
f 2 17 15
f 4 18 19
f 4 19 20
f 4 20 21
f 4 21 22
f 4 22 23
f 4 23 24
f 4 24 25
f 4 25 26
f 4 26 27
f 5 28 6
f 6 28 29
f 6 29 7
f 7 29 30
f 7 30 31
f 7 31 32
f 7 32 33
f 7 33 8
f 8 33 9
f 9 33 34
f 9 34 35
f 9 35 10
f 10 35 54
f 10 54 53
f 10 53 52
f 10 52 51
f 10 51 68
f 10 68 84
f 10 84 90
f 10 90 81
f 10 81 89
f 10 89 88
f 10 88 76
f 10 76 71
f 10 71 57
f 10 57 60
f 10 60 59
f 10 59 73
f 10 73 86
f 10 86 70
f 10 70 56
f 10 56 39
f 10 39 38
f 10 38 37
f 10 37 17
f 10 17 14
f 10 14 13
f 10 13 12
f 10 12 11
f 15 17 37
f 15 37 38
f 15 38 39
f 15 39 36
f 18 40 57
f 18 57 71
f 18 71 78
f 18 78 77
f 18 77 74
f 18 74 62
f 18 62 42
f 18 42 26
f 18 26 25
f 18 25 24
f 18 24 23
f 18 23 22
f 18 22 21
f 18 21 20
f 18 20 19
f 26 41 27
f 26 42 43
f 26 43 44
f 26 44 41
f 29 45 46
f 29 46 30
f 30 46 45
f 30 45 64
f 30 64 76
f 30 76 88
f 30 88 79
f 30 79 65
f 30 65 49
f 30 49 48
f 30 48 47
f 30 47 32
f 30 32 31
f 32 47 33
f 33 47 48
f 33 48 34
f 34 48 49
f 34 49 65
f 34 65 50
f 34 50 51
f 34 51 52
f 34 52 53
f 34 53 54
f 34 54 35
f 36 39 56
f 36 56 55
f 40 58 59
f 40 59 60
f 40 60 57
f 42 61 43
f 42 62 63
f 42 63 61
f 50 66 67
f 50 67 51
f 50 65 66
f 51 67 68
f 55 56 70
f 55 70 69
f 58 72 73
f 58 73 59
f 62 74 63
f 63 74 75
f 64 75 74
f 64 74 77
f 64 77 78
f 64 78 71
f 64 71 76
f 65 79 80
f 65 80 81
f 65 81 82
f 65 82 83
f 65 83 84
f 65 84 66
f 66 84 67
f 67 84 68
f 69 70 85
f 70 86 87
f 70 87 85
f 72 87 86
f 72 86 73
f 79 88 89
f 79 89 80
f 80 89 81
f 81 90 82
f 82 90 83
f 83 90 84

