# https://github.com/mikedh/trimesh
v -0.03289863 0.03161845 0.08730392
v -0.03289863 0.02618352 0.10305182
v -0.03289863 0.03825859 0.08730392
v -0.00165590 0.03886310 0.08730392
v -0.03289863 0.02621604 0.10345591
v -0.00165590 0.03510400 0.10405915
v -0.00165590 0.03510400 0.10439686
v -0.03289863 0.03857806 0.10996462
v -0.03215848 0.03861824 0.08730392
v -0.00165590 0.04440899 0.08730392
v -0.03289863 0.02734473 0.11470400
v -0.00165590 0.03719303 0.11452216
v -0.03289863 0.03824902 0.11152613
v -0.03179757 0.03909458 0.11005697
v -0.03179757 0.03879041 0.08730392
v -0.00185164 0.04439943 0.08730392
v -0.00165590 0.04572516 0.11005697
v -0.03289863 0.02776177 0.11576617
v -0.00165590 0.03757372 0.11565071
v -0.00165590 0.03758520 0.11568247
v -0.03289863 0.03805963 0.11238048
v -0.02895315 0.04006258 0.11184363
v -0.03043653 0.03971823 0.11005697
v -0.03045794 0.03938345 0.08730392
v -0.00383356 0.04429420 0.08730392
v -0.00391002 0.04561037 0.11005697
v -0.00165590 0.04571559 0.11012337
v -0.03289863 0.02790142 0.11600862
v -0.00165590 0.03871389 0.11636653
v -0.03289863 0.03759476 0.11346576
v -0.03179757 0.03857998 0.11238048
v -0.02927429 0.04018501 0.11005697
v -0.02962602 0.03948675 0.11252192
v -0.02813041 0.03972971 0.11339360
v -0.02727403 0.04042414 0.11252192
v -0.02376591 0.04215926 0.11130676
v -0.03003892 0.03956328 0.08730392
v -0.00623449 0.04414690 0.08730392
v -0.00623449 0.04544968 0.11005697
v -0.00623449 0.04509194 0.11238048
v -0.00391002 0.04523351 0.11238048
v -0.00855897 0.04399386 0.08730392
v -0.00165590 0.04532533 0.11238048
v -0.03289863 0.02844281 0.11621066
v -0.00165590 0.03874832 0.11638384
v -0.03289863 0.03752398 0.11360141
v -0.02714863 0.04100188 0.11005697
v -0.02887669 0.04002431 0.08730392
v -0.02658280 0.04002814 0.11384964
v -0.02249968 0.04185318 0.11293178
v -0.02465594 0.04148014 0.11220153
v -0.03179757 0.03777459 0.11392180
v -0.02111723 0.04206552 0.11341380
v -0.02249968 0.04233909 0.11176858
v -0.01276748 0.04459647 0.11163581
v -0.01785380 0.04364378 0.11005697
v -0.02017521 0.04310430 0.11005697
v -0.02249968 0.04250743 0.11005697
v -0.02375673 0.04215544 0.11005697
v -0.02491897 0.04178048 0.11005697
v -0.00855897 0.04523351 0.11005697
v -0.01088344 0.04474760 0.11205433
v -0.01088344 0.04381977 0.08730392
v -0.00787386 0.04449699 0.11362161
v -0.00623449 0.04456012 0.11373129
v -0.00861096 0.04482412 0.11256810
v -0.00391002 0.04462899 0.11384675
v -0.00165590 0.04530811 0.11242379
v -0.03289863 0.02935724 0.11647622
v -0.00165590 0.04096553 0.11676196
v -0.03289863 0.03057010 0.11674753
v -0.03289863 0.03692137 0.11428259
v -0.02745754 0.04052553 0.08730392
v -0.02482415 0.04032466 0.11420466
v -0.02927124 0.03813615 0.11475883
v -0.02836286 0.03749911 0.11588163
v -0.03179757 0.03669181 0.11508499
v -0.02991352 0.03712225 0.11556701
v -0.01956657 0.04225874 0.11372841
v -0.01785380 0.04324013 0.11238048
v -0.02027614 0.04261648 0.11253636
v -0.01297241 0.04462516 0.11005697
v -0.01413464 0.04440899 0.11005697
v -0.01553238 0.04413734 0.11005697
v -0.01553238 0.04374134 0.11238048
v -0.01340977 0.04417751 0.11239780
v -0.01088344 0.04431907 0.11321753
v -0.01088344 0.04495420 0.11005697
v -0.02061564 0.04243091 0.08730392
v -0.02165553 0.04220517 0.08730392
v -0.02242016 0.04201387 0.08730392
v -0.02279330 0.04192013 0.08730392
v -0.02331325 0.04177666 0.08730392
v -0.02482415 0.04135578 0.08730392
v -0.02531046 0.04120466 0.08730392
v -0.02714863 0.04062884 0.08730392
v -0.01320791 0.04360169 0.08730392
v -0.00942147 0.04441855 0.11346576
v -0.00623449 0.04367630 0.11489161
v -0.00861096 0.04370691 0.11451927
v -0.00391002 0.04376812 0.11500995
v -0.00165590 0.04381403 0.11507344
v -0.00165590 0.04464430 0.11394777
v -0.00165590 0.04466916 0.11391314
v -0.03289863 0.03167010 0.11678506
v -0.00165590 0.04265283 0.11624530
v -0.00391002 0.04096553 0.11671867
v -0.02947310 0.03399443 0.11671867
v -0.03289863 0.03641825 0.11481945
v -0.02482415 0.03921319 0.11536786
v -0.02249968 0.03958623 0.11571133
v -0.02249968 0.04069196 0.11454813
v -0.03289863 0.03550573 0.11577194
v -0.03289863 0.03529338 0.11595379
v -0.03179757 0.03553251 0.11608078
v -0.02927124 0.03633408 0.11619335
v -0.02714863 0.03768659 0.11599708
v -0.02130074 0.03978328 0.11585853
v -0.02043213 0.04103249 0.11479347
v -0.01785380 0.04138066 0.11515427
v -0.01785380 0.04245196 0.11399107
v -0.01785380 0.04295700 0.08730392
v -0.01836457 0.04286135 0.08730392
v -0.02018744 0.04251891 0.08730392
v -0.01553238 0.04270639 0.11431145
v -0.01553238 0.04331473 0.08730392
v -0.01301522 0.04279821 0.11483965
v -0.01088344 0.04326117 0.11470400
v -0.01088344 0.04223004 0.11594801
v -0.00855897 0.04238309 0.11606058
v -0.00623449 0.04251508 0.11615006
v -0.01210990 0.04214013 0.11587873
v -0.00391002 0.04260500 0.11621066
v -0.00165590 0.04377960 0.11511096
v -0.03289863 0.03289444 0.11669558
v -0.00623449 0.04096553 0.11664651
v -0.02482415 0.03631686 0.11657435
v -0.02714863 0.03631686 0.11645024
v -0.03179757 0.03399443 0.11657723
v -0.03289863 0.03478452 0.11616160
v -0.02482415 0.03805007 0.11617026
v -0.01975008 0.03999944 0.11600573
v -0.01088344 0.04096553 0.11639827
v -0.01553238 0.04047962 0.11622510
v -0.01301522 0.04105927 0.11620779
v -0.00855897 0.04096553 0.11653682
v -0.01785380 0.04021753 0.11612696
v -0.03289863 0.03401356 0.11640983
v -0.02249968 0.03842502 0.11625685
f 1 2 5
f 1 5 11
f 1 11 18
f 1 18 28
f 1 28 44
f 1 44 69
f 1 69 71
f 1 71 105
f 1 105 135
f 1 135 148
f 1 148 140
f 1 140 114
f 1 114 113
f 1 113 109
f 1 109 72
f 1 72 46
f 1 46 30
f 1 30 21
f 1 21 13
f 1 13 8
f 1 8 3
f 1 3 9
f 1 9 15
f 1 15 24
f 1 24 37
f 1 37 48
f 1 48 73
f 1 73 96
f 1 96 95
f 1 95 94
f 1 94 93
f 1 93 92
f 1 92 91
f 1 91 90
f 1 90 89
f 1 89 124
f 1 124 123
f 1 123 122
f 1 122 126
f 1 126 97
f 1 97 63
f 1 63 42
f 1 42 38
f 1 38 25
f 1 25 16
f 1 16 10
f 1 10 4
f 1 4 2
f 2 4 6
f 2 6 7
f 2 7 5
f 3 8 9
f 4 10 17
f 4 17 27
f 4 27 43
f 4 43 68
f 4 68 104
f 4 104 103
f 4 103 102
f 4 102 134
f 4 134 106
f 4 106 70
f 4 70 45
f 4 45 29
f 4 29 20
f 4 20 19
f 4 19 12
f 4 12 7
f 4 7 6
f 5 7 11
f 7 12 11
f 8 13 14
f 8 14 15
f 8 15 9
f 10 16 17
f 11 12 19
f 11 19 20
f 11 20 18
f 13 21 22
f 13 22 14
f 14 22 23
f 14 23 15
f 15 23 24
f 16 25 26
f 16 26 17
f 17 26 27
f 18 20 28
f 20 29 28
f 21 30 31
f 21 31 22
f 22 32 23
f 22 31 33
f 22 33 34
f 22 34 35
f 22 35 36
f 22 36 32
f 23 37 24
f 23 32 37
f 25 38 26
f 26 39 40
f 26 40 41
f 26 41 27
f 26 38 42
f 26 42 39
f 27 41 43
f 28 29 45
f 28 45 44
f 30 46 34
f 30 34 33
f 30 33 31
f 32 36 47
f 32 47 48
f 32 48 37
f 34 49 50
f 34 50 51
f 34 51 35
f 34 46 52
f 34 52 49
f 35 51 36
f 36 50 53
f 36 53 54
f 36 54 55
f 36 55 56
f 36 56 57
f 36 57 58
f 36 58 59
f 36 59 60
f 36 60 47
f 36 51 50
f 39 61 62
f 39 62 40
f 39 42 63
f 39 63 61
f 40 64 65
f 40 65 41
f 40 62 66
f 40 66 64
f 41 67 68
f 41 68 43
f 41 65 67
f 44 45 69
f 45 70 71
f 45 71 69
f 46 72 52
f 47 60 73
f 47 73 48
f 49 74 53
f 49 53 50
f 49 52 75
f 49 75 76
f 49 76 74
f 52 72 77
f 52 77 78
f 52 78 75
f 53 79 80
f 53 80 81
f 53 81 54
f 53 74 79
f 54 81 80
f 54 80 55
f 55 82 83
f 55 83 84
f 55 84 56
f 55 80 85
f 55 85 86
f 55 86 87
f 55 87 62
f 55 62 61
f 55 61 88
f 55 88 82
f 56 84 89
f 56 89 90
f 56 90 57
f 57 90 91
f 57 91 92
f 57 92 58
f 58 92 93
f 58 93 94
f 58 94 59
f 59 94 95
f 59 95 96
f 59 96 60
f 60 96 73
f 61 63 97
f 61 97 88
f 62 87 98
f 62 98 66
f 64 99 65
f 64 66 98
f 64 98 100
f 64 100 99
f 65 99 101
f 65 101 67
f 67 101 102
f 67 102 103
f 67 103 104
f 67 104 68
f 70 105 71
f 70 106 107
f 70 107 108
f 70 108 105
f 72 109 77
f 74 76 110
f 74 110 111
f 74 111 112
f 74 112 79
f 75 78 76
f 76 78 113
f 76 113 114
f 76 114 115
f 76 115 116
f 76 116 117
f 76 117 118
f 76 118 111
f 76 111 110
f 77 109 113
f 77 113 78
f 79 112 119
f 79 119 120
f 79 120 121
f 79 121 87
f 79 87 85
f 79 85 80
f 82 88 122
f 82 122 83
f 83 122 123
f 83 123 124
f 83 124 84
f 84 124 89
f 85 87 86
f 87 121 125
f 87 125 98
f 88 97 126
f 88 126 122
f 98 125 127
f 98 127 128
f 98 128 100
f 99 100 129
f 99 129 130
f 99 130 131
f 99 131 101
f 100 128 132
f 100 132 129
f 101 131 133
f 101 133 134
f 101 134 102
f 105 108 135
f 106 134 133
f 106 133 107
f 107 133 136
f 107 136 108
f 108 137 138
f 108 138 139
f 108 139 135
f 108 136 137
f 111 118 112
f 112 118 119
f 114 140 115
f 115 140 116
f 116 140 139
f 116 139 138
f 116 138 141
f 116 141 117
f 117 141 142
f 117 142 118
f 118 142 132
f 118 132 120
f 118 120 119
f 120 132 121
f 121 132 125
f 125 132 127
f 127 132 128
f 129 143 130
f 129 132 144
f 129 144 145
f 129 145 143
f 130 146 131
f 130 143 146
f 131 146 136
f 131 136 133
f 132 142 147
f 132 147 144
f 135 139 148
f 136 146 137
f 137 146 138
f 138 146 143
f 138 143 144
f 138 144 149
f 138 149 141
f 139 140 148
f 141 149 147
f 141 147 142
f 143 145 144
f 144 147 149

