# https://github.com/mikedh/trimesh
v 0.04126136 -0.02982884 -0.10906837
v 0.04126136 -0.03175565 -0.10143062
v 0.04126136 -0.03791350 -0.10906837
v 0.00194546 -0.03475054 -0.10906837
v 0.04126136 -0.03545495 -0.10143062
v 0.00194546 -0.03939872 -0.10144109
v 0.00305381 -0.03939720 -0.10143062
v 0.04126136 -0.03799754 -0.10887770
v 0.04011067 -0.03867904 -0.10827132
v 0.04016070 -0.03830926 -0.10906837
v 0.00194546 -0.04334097 -0.10906837
v 0.04056094 -0.03886087 -0.10143062
v 0.04126136 -0.03855068 -0.10144109
v 0.00194546 -0.04254030 -0.10143062
v 0.04126136 -0.03819924 -0.10841862
v 0.03924477 -0.03926579 -0.10740250
v 0.03798632 -0.03904117 -0.10906837
v 0.00306536 -0.04349683 -0.10875434
v 0.00194546 -0.04349530 -0.10875733
v 0.00306536 -0.04333945 -0.10906837
v 0.04053785 -0.03887156 -0.10143062
v 0.04054939 -0.03886851 -0.10144109
v 0.04126136 -0.03885323 -0.10376494
v 0.00194546 -0.04543892 -0.10144109
v 0.00306536 -0.04542823 -0.10143062
v 0.04126136 -0.03849721 -0.10725296
v 0.03956419 -0.03937428 -0.10608879
v 0.03792474 -0.03986477 -0.10608879
v 0.03560027 -0.04050805 -0.10608879
v 0.03150550 -0.04141569 -0.10656881
v 0.03327580 -0.04048513 -0.10841264
v 0.03792474 -0.03944457 -0.10792962
v 0.03792474 -0.03905951 -0.10906837
v 0.04126136 -0.03879058 -0.10608879
v 0.04072642 -0.03899380 -0.10608879
v 0.00194546 -0.04401788 -0.10759541
v 0.00500498 -0.04333181 -0.10906837
v 0.00538983 -0.04349530 -0.10873789
v 0.03938716 -0.03933302 -0.10143062
v 0.03938716 -0.03933455 -0.10144109
v 0.04086882 -0.03901520 -0.10376494
v 0.00194546 -0.04530140 -0.10255890
v 0.00306536 -0.04542823 -0.10144109
v 0.00538983 -0.04536711 -0.10143062
v 0.03792474 -0.04002979 -0.10376494
v 0.03560027 -0.04072350 -0.10376494
v 0.03218284 -0.04155780 -0.10501958
v 0.03308338 -0.04117579 -0.10591158
v 0.03082048 -0.04168309 -0.10591158
v 0.02862685 -0.04210788 -0.10608879
v 0.02995842 -0.04157613 -0.10734866
v 0.03082048 -0.04108259 -0.10823917
v 0.03262156 -0.04035984 -0.10906837
v 0.03322577 -0.04022996 -0.10906837
v 0.03625066 -0.03950263 -0.10906837
v 0.03581578 -0.03976545 -0.10863246
v 0.03970658 -0.03943846 -0.10376494
v 0.00194546 -0.04454963 -0.10608879
v 0.00306536 -0.04401482 -0.10759241
v 0.00538983 -0.04332875 -0.10906837
v 0.00771430 -0.04327374 -0.10906837
v 0.00771430 -0.04346933 -0.10867658
v 0.00538983 -0.04400260 -0.10757596
v 0.03792474 -0.03984032 -0.10143062
v 0.03792474 -0.03984185 -0.10144109
v 0.00194546 -0.04515166 -0.10376494
v 0.00306536 -0.04514097 -0.10376494
v 0.00538983 -0.04536711 -0.10144109
v 0.00771430 -0.04527543 -0.10143062
v 0.03560027 -0.04060279 -0.10144109
v 0.03343743 -0.04125831 -0.10144109
v 0.03227520 -0.04158530 -0.10143062
v 0.03347977 -0.04129498 -0.10376494
v 0.03231753 -0.04159447 -0.10376494
v 0.03095132 -0.04191993 -0.10376494
v 0.02862685 -0.04244251 -0.10376494
v 0.02630238 -0.04290244 -0.10376494
v 0.02630238 -0.04254183 -0.10608879
v 0.02862685 -0.04170448 -0.10770008
v 0.02862685 -0.04127970 -0.10886201
v 0.03086281 -0.04073726 -0.10906837
v 0.00306536 -0.04453893 -0.10608879
v 0.01003878 -0.04316067 -0.10906837
v 0.00771430 -0.04397662 -0.10751466
v 0.01003878 -0.04341279 -0.10854200
v 0.01003878 -0.04392162 -0.10738006
v 0.00538983 -0.04450531 -0.10608879
v 0.03560027 -0.04060126 -0.10143062
v 0.00771430 -0.04444572 -0.10608879
v 0.00538983 -0.04507984 -0.10376494
v 0.00771430 -0.04500344 -0.10376494
v 0.00771430 -0.04527543 -0.10144109
v 0.01003878 -0.04513791 -0.10143062
v 0.03344898 -0.04125372 -0.10143062
v 0.03095132 -0.04192757 -0.10143062
v 0.02862685 -0.04249446 -0.10144109
v 0.02630238 -0.04298342 -0.10144109
v 0.02397791 -0.04340362 -0.10144109
v 0.02065669 -0.04388953 -0.10281387
v 0.02397791 -0.04328902 -0.10376494
v 0.02397791 -0.04290244 -0.10608879
v 0.02617153 -0.04185728 -0.10848143
v 0.02666414 -0.04155780 -0.10906837
v 0.02711826 -0.04147681 -0.10906837
v 0.02779559 -0.04135457 -0.10906837
v 0.02862685 -0.04118954 -0.10906837
v 0.01228243 -0.04302621 -0.10906837
v 0.01468387 -0.04287799 -0.10906837
v 0.01468772 -0.04317901 -0.10841264
v 0.01224010 -0.04343113 -0.10819730
v 0.01138189 -0.04387730 -0.10727912
v 0.01003878 -0.04433265 -0.10608879
v 0.01003878 -0.04487815 -0.10376494
v 0.01003878 -0.04513791 -0.10144109
v 0.01236325 -0.04494385 -0.10143062
v 0.02862685 -0.04249293 -0.10143062
v 0.02630238 -0.04298189 -0.10143062
v 0.02397791 -0.04340362 -0.10143062
v 0.02194977 -0.04373367 -0.10144109
v 0.01997551 -0.04380091 -0.10436310
v 0.02152259 -0.04366644 -0.10365952
v 0.02079138 -0.04390939 -0.10144109
v 0.01933281 -0.04411414 -0.10144109
v 0.01701219 -0.04442127 -0.10144109
v 0.01468772 -0.04470090 -0.10144109
v 0.01701219 -0.04423180 -0.10376494
v 0.01925585 -0.04397357 -0.10365952
v 0.02397791 -0.04221484 -0.10841264
v 0.01842458 -0.04389564 -0.10504501
v 0.02165344 -0.04322332 -0.10608879
v 0.02573281 -0.04171059 -0.10906837
v 0.01701219 -0.04269157 -0.10906837
v 0.01293282 -0.04382688 -0.10712211
v 0.01701219 -0.04298189 -0.10841264
v 0.01224010 -0.04413401 -0.10624357
v 0.01468772 -0.04408817 -0.10571494
v 0.01236325 -0.04469784 -0.10376494
v 0.01236325 -0.04494385 -0.10144109
v 0.01468772 -0.04470090 -0.10143062
v 0.02195747 -0.04373214 -0.10143062
v 0.02078753 -0.04390939 -0.10143062
v 0.01933281 -0.04411414 -0.10143062
v 0.01701219 -0.04442127 -0.10143062
v 0.01468772 -0.04448240 -0.10376494
v 0.02397791 -0.04195660 -0.10906837
v 0.02165344 -0.04250668 -0.10841264
v 0.01701219 -0.04397051 -0.10531866
v 0.01701219 -0.04365116 -0.10648058
v 0.01925585 -0.04356254 -0.10592654
v 0.01933281 -0.04247154 -0.10906837
v 0.01468772 -0.04375812 -0.10687762
v 0.01933281 -0.04275575 -0.10841264
v 0.02165344 -0.04223317 -0.10906837
f 1 2 5
f 1 5 13
f 1 13 23
f 1 23 34
f 1 34 26
f 1 26 15
f 1 15 8
f 1 8 3
f 1 3 10
f 1 10 17
f 1 17 33
f 1 33 55
f 1 55 54
f 1 54 53
f 1 53 81
f 1 81 106
f 1 106 105
f 1 105 104
f 1 104 103
f 1 103 131
f 1 131 145
f 1 145 153
f 1 153 150
f 1 150 132
f 1 132 108
f 1 108 107
f 1 107 83
f 1 83 61
f 1 61 60
f 1 60 37
f 1 37 20
f 1 20 11
f 1 11 4
f 1 4 2
f 2 4 6
f 2 6 7
f 2 7 14
f 2 14 25
f 2 25 44
f 2 44 69
f 2 69 93
f 2 93 115
f 2 115 139
f 2 139 143
f 2 143 142
f 2 142 141
f 2 141 140
f 2 140 118
f 2 118 117
f 2 117 116
f 2 116 95
f 2 95 72
f 2 72 94
f 2 94 88
f 2 88 64
f 2 64 39
f 2 39 21
f 2 21 12
f 2 12 5
f 3 8 9
f 3 9 10
f 4 11 19
f 4 19 36
f 4 36 58
f 4 58 66
f 4 66 42
f 4 42 24
f 4 24 14
f 4 14 6
f 5 12 13
f 6 14 7
f 8 15 9
f 9 15 16
f 9 16 17
f 9 17 10
f 11 18 19
f 11 20 18
f 12 21 13
f 13 21 22
f 13 22 23
f 14 24 25
f 15 26 16
f 16 27 28
f 16 28 29
f 16 29 30
f 16 30 31
f 16 31 32
f 16 32 33
f 16 33 17
f 16 26 34
f 16 34 35
f 16 35 27
f 18 36 19
f 18 20 37
f 18 37 38
f 18 38 36
f 21 39 22
f 22 39 40
f 22 40 41
f 22 41 23
f 23 41 34
f 24 42 43
f 24 43 25
f 25 43 68
f 25 68 44
f 27 45 28
f 27 35 45
f 28 45 46
f 28 46 47
f 28 47 29
f 29 47 48
f 29 48 30
f 30 48 47
f 30 47 49
f 30 49 50
f 30 50 51
f 30 51 31
f 31 51 52
f 31 52 53
f 31 53 54
f 31 54 55
f 31 55 56
f 31 56 32
f 32 56 33
f 33 56 55
f 34 41 35
f 35 41 57
f 35 57 45
f 36 38 59
f 36 59 58
f 37 60 38
f 38 60 61
f 38 61 62
f 38 62 84
f 38 84 63
f 38 63 59
f 39 64 65
f 39 65 40
f 40 57 41
f 40 65 57
f 42 66 67
f 42 67 43
f 43 67 90
f 43 90 68
f 44 68 92
f 44 92 69
f 45 57 65
f 45 65 70
f 45 70 71
f 45 71 46
f 46 71 72
f 46 72 73
f 46 73 47
f 47 74 75
f 47 75 76
f 47 76 50
f 47 50 49
f 47 73 74
f 50 76 77
f 50 77 78
f 50 78 51
f 51 78 79
f 51 79 80
f 51 80 52
f 52 80 81
f 52 81 53
f 58 59 63
f 58 63 82
f 58 82 67
f 58 67 66
f 61 83 62
f 62 83 85
f 62 85 86
f 62 86 84
f 63 84 87
f 63 87 82
f 64 88 70
f 64 70 65
f 67 82 87
f 67 87 89
f 67 89 90
f 68 90 91
f 68 91 92
f 69 92 114
f 69 114 93
f 70 88 94
f 70 94 71
f 71 94 72
f 72 95 73
f 73 95 74
f 74 95 96
f 74 96 75
f 75 96 76
f 76 96 97
f 76 97 77
f 77 97 98
f 77 98 99
f 77 99 100
f 77 100 78
f 78 100 101
f 78 101 102
f 78 102 79
f 79 102 103
f 79 103 104
f 79 104 105
f 79 105 80
f 80 105 106
f 80 106 81
f 83 107 85
f 84 89 87
f 84 86 89
f 85 107 108
f 85 108 109
f 85 109 110
f 85 110 86
f 86 110 111
f 86 111 112
f 86 112 89
f 89 91 90
f 89 112 91
f 91 112 113
f 91 113 92
f 92 113 114
f 93 114 138
f 93 138 115
f 95 116 96
f 96 116 117
f 96 117 97
f 97 117 118
f 97 118 98
f 98 118 119
f 98 119 99
f 99 120 121
f 99 121 100
f 99 119 122
f 99 122 123
f 99 123 124
f 99 124 125
f 99 125 126
f 99 126 127
f 99 127 120
f 100 121 120
f 100 120 101
f 101 128 102
f 101 120 129
f 101 129 130
f 101 130 128
f 102 128 131
f 102 131 103
f 108 132 109
f 109 133 111
f 109 111 110
f 109 132 134
f 109 134 133
f 111 133 112
f 112 133 135
f 112 135 136
f 112 136 113
f 113 136 137
f 113 137 114
f 114 137 138
f 115 138 125
f 115 125 139
f 118 140 119
f 119 140 122
f 120 127 126
f 120 126 129
f 122 140 141
f 122 141 142
f 122 142 123
f 123 142 143
f 123 143 124
f 124 143 139
f 124 139 125
f 125 138 144
f 125 144 126
f 126 144 129
f 128 145 131
f 128 130 146
f 128 146 145
f 129 144 137
f 129 137 147
f 129 147 148
f 129 148 149
f 129 149 130
f 130 149 146
f 132 150 134
f 133 134 151
f 133 151 135
f 134 150 152
f 134 152 151
f 135 151 136
f 136 151 148
f 136 148 147
f 136 147 137
f 137 144 138
f 145 146 153
f 146 149 148
f 146 148 152
f 146 152 153
f 148 151 152
f 150 153 152

