# https://github.com/mikedh/trimesh
v -0.02831585 -0.02194006 -0.04163197
v -0.04236186 -0.02979254 -0.06994502
v -0.04222101 -0.02979254 -0.06977527
v -0.04017017 -0.02979254 -0.06739877
v -0.02831585 -0.02979254 -0.05402369
v -0.02831585 -0.02194006 -0.05673382
v -0.04798760 -0.02194006 -0.07109229
v -0.04689175 -0.02292402 -0.07008550
v -0.04737065 -0.02411092 -0.07169519
v -0.04701852 -0.02546310 -0.07222200
v -0.04653116 -0.02701208 -0.07292441
v -0.04705514 -0.02782385 -0.07447557
v -0.04574519 -0.02876476 -0.07354487
v -0.04441834 -0.02970644 -0.07261419
v -0.04437045 -0.02979254 -0.07264930
v -0.02831585 -0.02979254 -0.06510423
v -0.05048354 -0.02194006 -0.10143062
v -0.04829184 -0.02194006 -0.07155471
v -0.04896513 -0.02230136 -0.07283661
v -0.04856510 -0.02412015 -0.07358585
v -0.04904964 -0.02490117 -0.07502580
v -0.04742136 -0.02631638 -0.07363853
v -0.04863834 -0.02647858 -0.07582772
v -0.04904682 -0.02728190 -0.07736716
v -0.04739037 -0.02866252 -0.07603259
v -0.04650862 -0.02937282 -0.07537115
v -0.04448877 -0.02979254 -0.07281320
v -0.04708331 -0.02979254 -0.10143062
v -0.05709243 -0.02194006 -0.10143062
v -0.04933698 -0.02194006 -0.07324050
v -0.04961306 -0.02194006 -0.07373219
v -0.04940741 -0.02335143 -0.07438777
v -0.04983279 -0.02412015 -0.07582772
v -0.04947220 -0.02573369 -0.07657110
v -0.04988350 -0.02647858 -0.07816324
v -0.04945248 -0.02796222 -0.07891832
v -0.04852848 -0.02874554 -0.07816324
v -0.04703823 -0.02979254 -0.07677598
v -0.04681569 -0.02979254 -0.07639550
v -0.04627480 -0.02979254 -0.07555261
v -0.04524093 -0.02979254 -0.07394291
v -0.05473453 -0.02979254 -0.10143062
v -0.05656845 -0.02411169 -0.10143062
v -0.05701919 -0.02194006 -0.09926485
v -0.05080751 -0.02194006 -0.07597405
v -0.05105259 -0.02194006 -0.07643647
v -0.05136529 -0.02243819 -0.07741985
v -0.05103005 -0.02413706 -0.07819835
v -0.05139909 -0.02492807 -0.07969683
v -0.05101597 -0.02643784 -0.08049290
v -0.05135965 -0.02721425 -0.08214942
v -0.04976800 -0.02874554 -0.08063338
v -0.04895104 -0.02951119 -0.07993682
v -0.04878765 -0.02979254 -0.08004804
v -0.05515991 -0.02875861 -0.10143062
v -0.05467255 -0.02979254 -0.10026579
v -0.05623322 -0.02538085 -0.10143062
v -0.05621632 -0.02532935 -0.10008433
v -0.05701356 -0.02194006 -0.09911852
v -0.05179067 -0.02194006 -0.07795251
v -0.05195406 -0.02194006 -0.07830372
v -0.05173433 -0.02337910 -0.07897101
v -0.05207519 -0.02413706 -0.08049290
v -0.05173996 -0.02566528 -0.08124214
v -0.05203012 -0.02643784 -0.08289281
v -0.05168080 -0.02782461 -0.08369473
v -0.05083286 -0.02866252 -0.08289281
v -0.04940741 -0.02979254 -0.08131823
v -0.04914542 -0.02979254 -0.08075045
v -0.05589235 -0.02654623 -0.10143062
v -0.05503596 -0.02875861 -0.09911266
v -0.05460776 -0.02979254 -0.09911266
v -0.05587545 -0.02623567 -0.09922973
v -0.05615152 -0.02510257 -0.09853318
v -0.05643887 -0.02424084 -0.09922973
v -0.05685580 -0.02194006 -0.09694104
v -0.05292314 -0.02194006 -0.08051631
v -0.05363586 -0.02194006 -0.08231331
v -0.05318513 -0.02389107 -0.08306255
v -0.05286116 -0.02643477 -0.08516979
v -0.05194842 -0.02833428 -0.08516979
v -0.05163573 -0.02979254 -0.08646926
v -0.05147797 -0.02979254 -0.08604196
v -0.05130050 -0.02949658 -0.08516979
v -0.05473171 -0.02875861 -0.09678885
v -0.05555430 -0.02643477 -0.09678885
v -0.05430070 -0.02979254 -0.09678885
v -0.05606138 -0.02480277 -0.09678885
v -0.05639943 -0.02364046 -0.09678885
v -0.05684171 -0.02194006 -0.09678885
v -0.05369784 -0.02194006 -0.08247721
v -0.05388376 -0.02296937 -0.08398740
v -0.05362741 -0.02463058 -0.08516979
v -0.05383869 -0.02517099 -0.08646340
v -0.05355135 -0.02648089 -0.08734141
v -0.05232592 -0.02898000 -0.08727702
v -0.05200477 -0.02979254 -0.08766335
v -0.05401899 -0.02979254 -0.09514989
v -0.05428943 -0.02885162 -0.09451772
v -0.05522188 -0.02643477 -0.09446504
v -0.05597405 -0.02407018 -0.09423675
v -0.05629520 -0.02326764 -0.09486307
v -0.05655719 -0.02201693 -0.09423675
v -0.05657691 -0.02194006 -0.09424261
v -0.05405843 -0.02194006 -0.08348986
v -0.05460212 -0.02194006 -0.08516979
v -0.05406969 -0.02346827 -0.08516979
v -0.05441057 -0.02428235 -0.08734141
v -0.05406406 -0.02573754 -0.08800870
v -0.05374855 -0.02728651 -0.08913841
v -0.05330063 -0.02862331 -0.08987595
v -0.05264707 -0.02979254 -0.08984668
v -0.05382179 -0.02979254 -0.09422505
v -0.05411195 -0.02812442 -0.09214123
v -0.05479369 -0.02643477 -0.09214123
v -0.05561909 -0.02411092 -0.09214123
v -0.05619942 -0.02294554 -0.09331191
v -0.05656845 -0.02194006 -0.09417237
v -0.05464156 -0.02194006 -0.08530442
v -0.05526414 -0.02194006 -0.08748189
v -0.05512047 -0.02411092 -0.08981741
v -0.05425844 -0.02648089 -0.08987595
v -0.05395138 -0.02775774 -0.09068958
v -0.05357389 -0.02928595 -0.09214123
v -0.05327246 -0.02979254 -0.09208854
v -0.05372883 -0.02979254 -0.09383872
v -0.05377108 -0.02968799 -0.09378019
v -0.05586418 -0.02194006 -0.08998131
v -0.05609800 -0.02259808 -0.09214123
v -0.05628111 -0.02194006 -0.09214123
v -0.05654028 -0.02194006 -0.09396165
v -0.05530640 -0.02194006 -0.08764579
v -0.05582193 -0.02194006 -0.08978815
v -0.05348092 -0.02979254 -0.09287290
v -0.05593461 -0.02194006 -0.09033252
f 1 2 3
f 1 3 4
f 1 4 5
f 1 5 16
f 1 16 6
f 1 6 17
f 1 17 29
f 1 29 44
f 1 44 59
f 1 59 76
f 1 76 90
f 1 90 104
f 1 104 118
f 1 118 131
f 1 131 130
f 1 130 135
f 1 135 128
f 1 128 133
f 1 133 132
f 1 132 120
f 1 120 119
f 1 119 106
f 1 106 105
f 1 105 91
f 1 91 78
f 1 78 77
f 1 77 61
f 1 61 60
f 1 60 46
f 1 46 45
f 1 45 31
f 1 31 30
f 1 30 18
f 1 18 7
f 1 7 8
f 1 8 9
f 1 9 10
f 1 10 11
f 1 11 12
f 1 12 13
f 1 13 14
f 1 14 15
f 1 15 2
f 2 15 27
f 2 27 41
f 2 41 40
f 2 40 39
f 2 39 38
f 2 38 54
f 2 54 69
f 2 69 68
f 2 68 83
f 2 83 82
f 2 82 97
f 2 97 112
f 2 112 125
f 2 125 134
f 2 134 126
f 2 126 113
f 2 113 98
f 2 98 87
f 2 87 72
f 2 72 56
f 2 56 42
f 2 42 28
f 2 28 16
f 2 16 5
f 2 5 4
f 2 4 3
f 6 16 17
f 7 18 8
f 8 18 19
f 8 19 9
f 9 19 20
f 9 20 10
f 10 20 21
f 10 21 22
f 10 22 12
f 10 12 11
f 12 22 23
f 12 23 24
f 12 24 25
f 12 25 26
f 12 26 13
f 13 26 27
f 13 27 14
f 14 27 15
f 16 28 17
f 17 28 42
f 17 42 55
f 17 55 70
f 17 70 57
f 17 57 43
f 17 43 29
f 18 30 19
f 19 30 31
f 19 31 32
f 19 32 20
f 20 32 21
f 21 33 34
f 21 34 23
f 21 23 22
f 21 32 33
f 23 34 24
f 24 34 35
f 24 35 36
f 24 36 37
f 24 37 25
f 25 37 38
f 25 38 39
f 25 39 26
f 26 39 40
f 26 40 41
f 26 41 27
f 29 43 44
f 31 45 32
f 32 45 46
f 32 46 47
f 32 47 33
f 33 47 48
f 33 48 34
f 34 48 49
f 34 49 35
f 35 49 50
f 35 50 36
f 36 50 51
f 36 51 52
f 36 52 53
f 36 53 37
f 37 53 38
f 38 53 54
f 42 56 55
f 43 57 58
f 43 58 59
f 43 59 44
f 46 60 47
f 47 60 61
f 47 61 62
f 47 62 48
f 48 62 49
f 49 63 64
f 49 64 50
f 49 62 63
f 50 64 51
f 51 65 66
f 51 66 67
f 51 67 52
f 51 64 65
f 52 68 69
f 52 69 53
f 52 67 68
f 53 69 54
f 55 56 71
f 55 71 70
f 56 72 71
f 57 70 58
f 58 73 74
f 58 74 75
f 58 75 59
f 58 70 73
f 59 75 76
f 61 77 62
f 62 77 63
f 63 77 78
f 63 78 79
f 63 79 64
f 64 79 65
f 65 79 80
f 65 80 66
f 66 81 82
f 66 82 83
f 66 83 84
f 66 84 67
f 66 80 81
f 67 84 68
f 68 84 83
f 70 71 73
f 71 72 85
f 71 85 86
f 71 86 73
f 72 87 85
f 73 86 88
f 73 88 74
f 74 88 89
f 74 89 75
f 75 89 76
f 76 89 90
f 78 91 92
f 78 92 79
f 79 92 93
f 79 93 80
f 80 93 94
f 80 94 95
f 80 95 81
f 81 95 96
f 81 96 82
f 82 96 97
f 85 87 98
f 85 98 99
f 85 99 100
f 85 100 86
f 86 100 101
f 86 101 88
f 88 101 102
f 88 102 89
f 89 102 103
f 89 103 90
f 90 103 104
f 91 105 92
f 92 105 106
f 92 106 107
f 92 107 94
f 92 94 93
f 94 107 108
f 94 108 109
f 94 109 95
f 95 109 110
f 95 110 96
f 96 110 111
f 96 111 97
f 97 111 112
f 98 113 114
f 98 114 99
f 99 114 115
f 99 115 100
f 100 115 116
f 100 116 117
f 100 117 101
f 101 117 102
f 102 117 103
f 103 117 118
f 103 118 104
f 106 119 107
f 107 119 108
f 108 119 120
f 108 120 121
f 108 121 109
f 109 121 122
f 109 122 110
f 110 122 123
f 110 123 111
f 111 123 124
f 111 124 112
f 112 124 125
f 113 126 127
f 113 127 114
f 114 127 123
f 114 123 115
f 115 123 122
f 115 122 121
f 115 121 116
f 116 121 128
f 116 128 129
f 116 129 117
f 117 129 130
f 117 130 131
f 117 131 118
f 120 132 121
f 121 133 128
f 121 132 133
f 123 127 124
f 124 127 126
f 124 126 134
f 124 134 125
f 128 135 129
f 129 135 130

