# https://github.com/mikedh/trimesh
v 0.00786746 0.02853337 -0.11053598
v 0.00786746 0.02004621 -0.10998560
v 0.00786746 0.02853337 -0.11762597
v -0.03638791 0.02853337 -0.10802343
v 0.00786746 0.01787946 -0.10987440
v 0.00786746 0.02702035 -0.11765142
v 0.00770813 0.02853337 -0.11762597
v -0.05084228 0.02853337 -0.10802343
v -0.04845234 -0.00062499 -0.10802343
v 0.00786746 -0.00062499 -0.10969815
v 0.00786746 0.01307778 -0.10974339
v 0.00786746 0.01539869 -0.10978957
v 0.00786746 0.01772245 -0.10986685
v 0.00786746 0.02469373 -0.11764577
v 0.00538192 0.02469373 -0.11764671
v 0.00306208 0.02469373 -0.11764671
v 0.00538192 0.02702035 -0.11764953
v 0.00306208 0.02702035 -0.11764577
v 0.00538192 0.02853337 -0.11762032
v -0.04950392 0.02853337 -0.10962370
v -0.05090601 0.02843916 -0.10802343
v -0.05723458 -0.00062499 -0.10802343
v 0.00786746 -0.00062499 -0.11752231
v 0.00786746 0.02236997 -0.11763635
v 0.00306208 0.02236997 -0.11763823
v 0.00073587 0.02236997 -0.11763823
v 0.00073587 0.02469373 -0.11764294
v -0.00159034 0.02469373 -0.11763445
v 0.00073587 0.02702035 -0.11763635
v 0.00306208 0.02853337 -0.11761090
v -0.04942744 0.02847341 -0.10976224
v -0.04927448 0.02853337 -0.10984424
v -0.05133302 0.02772833 -0.10802343
v -0.05723458 -0.00048796 -0.10802343
v -0.05717085 -0.00062499 -0.10816480
v 0.00770813 -0.00062499 -0.11752231
v -0.00159034 0.02004621 -0.11762032
v -0.00159034 0.02236997 -0.11763162
v -0.00391018 0.02469373 -0.11762314
v -0.00159034 0.02702035 -0.11762503
v 0.00073587 0.02853337 -0.11759864
v -0.04981620 0.02702035 -0.11011660
v -0.05136488 0.02538744 -0.10936736
v -0.05097612 0.02702035 -0.10890179
v -0.04727330 0.02853337 -0.11141434
v -0.04691003 0.02819080 -0.11190441
v -0.04840773 0.02702035 -0.11127863
v -0.05168355 0.02702035 -0.10802343
v -0.05715811 0.00147610 -0.10802343
v -0.05697329 0.00145612 -0.10841361
v -0.05704976 -0.00062499 -0.10841361
v -0.00391018 -0.00062499 -0.11749686
v -0.00623639 -0.00062499 -0.11749121
v -0.00856260 -0.00062499 -0.11748366
v -0.01553486 -0.00062499 -0.11745822
v -0.01785470 -0.00062499 -0.11744973
v -0.01809688 -0.00062499 -0.11744879
v -0.02042309 -0.00062499 -0.11743843
v -0.00391018 0.02004621 -0.11760996
v -0.00623639 0.02004621 -0.11759770
v -0.00391018 0.02236997 -0.11761938
v -0.00623639 0.02469373 -0.11760996
v -0.00391018 0.02702035 -0.11761279
v -0.00159034 0.02853337 -0.11758451
v -0.05030694 0.02448819 -0.11067735
v -0.04889846 0.02513907 -0.11166032
v -0.05165805 0.02383731 -0.10969438
v -0.05227625 0.02464520 -0.10852104
v -0.05204681 0.02615536 -0.10802343
v -0.05181738 0.02673488 -0.10802343
v -0.04640018 0.02853337 -0.11200337
v -0.04261450 0.02853337 -0.11386374
v -0.04223211 0.02815083 -0.11421433
v -0.04574374 0.02702035 -0.11292790
v -0.04724143 0.02702035 -0.11211552
v -0.05713899 0.00184722 -0.10802343
v -0.05672473 0.00367140 -0.10859361
v -0.05622125 0.00282354 -0.10960109
v -0.05625949 0.00145612 -0.10965575
v -0.05637420 -0.00062499 -0.10958035
v -0.02274930 -0.00062499 -0.11742523
v -0.01088244 0.02004621 -0.11757036
v -0.00856260 0.02236997 -0.11759111
v -0.00856260 0.02469373 -0.11759487
v -0.00623639 0.02702035 -0.11759675
v -0.00391018 0.02853337 -0.11756754
v -0.04924899 0.02359180 -0.11191761
v -0.04810182 0.02449676 -0.11237375
v -0.05188748 0.02236997 -0.10993471
v -0.05367835 0.01811641 -0.10932401
v -0.05340431 0.02004621 -0.10895457
v -0.05315575 0.02240994 -0.10830051
v -0.05063197 0.02236997 -0.11109674
v -0.05329596 0.02259264 -0.10802343
v -0.05260129 0.02465948 -0.10802343
v -0.04197719 0.02853337 -0.11415119
v -0.04277384 0.02660356 -0.11443958
v -0.04349401 0.02723446 -0.11393820
v -0.04081727 0.02853337 -0.11455739
v -0.04130800 0.02723446 -0.11479677
v -0.04432252 0.02540742 -0.11411066
v -0.04560990 0.02465662 -0.11369034
v -0.05700515 0.00369424 -0.10802343
v -0.05673748 0.00610364 -0.10817517
v -0.05614477 0.00437081 -0.10948893
v -0.05533538 0.00367140 -0.11052091
v -0.05525890 0.00145612 -0.11081778
v -0.05629773 -0.00062499 -0.10970946
v -0.05540548 -0.00062499 -0.11075086
v -0.01553486 0.02004621 -0.11754209
v -0.02947301 -0.00062499 -0.11738376
v -0.01088244 0.02469373 -0.11757886
v -0.01320865 0.02469373 -0.11756188
v -0.01553486 0.02469373 -0.11754303
v -0.00856260 0.02702035 -0.11757413
v -0.01320865 0.02702035 -0.11752890
v -0.01553486 0.02702035 -0.11750440
v -0.00623639 0.02853337 -0.11754115
v -0.04806358 0.02236997 -0.11293733
v -0.04947205 0.02236997 -0.11207876
v -0.05102073 0.02004621 -0.11144450
v -0.05223801 0.02004621 -0.11028247
v -0.05387592 0.01656913 -0.10957752
v -0.05439852 0.01749407 -0.10849465
v -0.05429018 0.01920692 -0.10802343
v -0.05414997 0.01975503 -0.10802343
v -0.05406711 0.02004621 -0.10802343
v -0.05377395 0.02104537 -0.10802343
v -0.05342979 0.02216729 -0.10802343
v -0.04349401 0.02465662 -0.11461864
v -0.04109132 0.02469373 -0.11546307
v -0.04032016 0.02853337 -0.11470535
v -0.03876511 0.02702035 -0.11562140
v -0.04475590 0.02385729 -0.11430104
v -0.04625360 0.02236997 -0.11392029
v -0.05680758 0.00610364 -0.10802343
v -0.05678846 0.00627207 -0.10802343
v -0.05664825 0.00746536 -0.10802343
v -0.05652716 0.00843026 -0.10802343
v -0.05604279 0.00610364 -0.10933720
v -0.05470443 0.00603798 -0.11092615
v -0.05391416 0.00521867 -0.11193645
v -0.05399701 0.00377988 -0.11200996
v -0.05529714 -0.00062499 -0.11087149
v -0.05409261 0.00145612 -0.11209573
v -0.01785470 0.01772245 -0.11751948
v -0.02250712 0.01772245 -0.11748744
v -0.01785470 0.02004621 -0.11752608
v -0.03179285 -0.00062499 -0.11736491
v -0.02482059 0.01772245 -0.11747047
v -0.02250712 0.02004621 -0.11749309
v -0.02018091 0.02236997 -0.11750910
v -0.02250712 0.02236997 -0.11748744
v -0.01785470 0.02469373 -0.11752042
v -0.02018091 0.02469373 -0.11749403
v -0.02250712 0.02469373 -0.11746293
v -0.01785470 0.02702035 -0.11747236
v -0.00856260 0.02853337 -0.11750534
v -0.04785963 0.01989491 -0.11357630
v -0.04986081 0.02004621 -0.11234359
v -0.04664236 0.02056578 -0.11410407
v -0.05136488 0.01772245 -0.11174985
v -0.05283072 0.01749407 -0.11038614
v -0.05400975 0.01539869 -0.10972831
v -0.05553932 0.01307493 -0.10824586
v -0.05493386 0.01539869 -0.10841361
v -0.05313663 0.01307778 -0.11118816
v -0.05518242 0.01539869 -0.10802343
v -0.04341753 0.02236997 -0.11509646
v -0.03856754 0.02449961 -0.11618404
v -0.04109132 0.02236997 -0.11586361
v -0.03887345 0.02853337 -0.11512096
v -0.03640065 0.02853337 -0.11573638
v -0.03632418 0.02689474 -0.11621325
v -0.03701248 0.02514478 -0.11641964
v -0.04509367 0.02236997 -0.11444806
v -0.05624674 0.01007459 -0.10802343
v -0.05587072 0.00843026 -0.10907897
v -0.05470443 0.00843026 -0.11053410
v -0.05379307 0.00676880 -0.11182524
v -0.05249294 0.00843026 -0.11258579
v -0.05289445 0.00603798 -0.11257355
v -0.05271600 0.00377988 -0.11291565
v -0.05413722 -0.00062499 -0.11213531
v -0.05271600 0.00145612 -0.11305136
v -0.02714680 0.01772245 -0.11744973
v -0.03411906 -0.00062499 -0.11733665
v -0.02482059 0.02004621 -0.11747424
v -0.02714680 0.02004621 -0.11744973
v -0.02482059 0.02236997 -0.11746293
v -0.02714680 0.02236997 -0.11743277
v -0.02482059 0.02469373 -0.11742618
v -0.02018091 0.02702035 -0.11742713
v -0.01553486 0.02853337 -0.11738376
v -0.01320865 0.02853337 -0.11742806
v -0.04694827 0.01901850 -0.11424638
v -0.04829301 0.01772245 -0.11372050
v -0.05020497 0.01772245 -0.11255941
v -0.05154333 0.01652917 -0.11189216
v -0.04864991 0.01539869 -0.11393160
v -0.05341705 0.01075402 -0.11146994
v -0.05426468 0.01307778 -0.11002613
v -0.05565404 0.01075402 -0.10875195
v -0.05597269 0.01156191 -0.10802343
v -0.05565404 0.01322623 -0.10802343
v -0.04341753 0.02004621 -0.11545930
v -0.04581385 0.01989491 -0.11457247
v -0.03765617 0.02359466 -0.11655819
v -0.03917299 0.02236997 -0.11637818
v -0.03965098 0.02075133 -0.11649410
v -0.04093836 0.02000339 -0.11623964
v -0.03531722 0.02853337 -0.11595502
v -0.03411906 0.02767694 -0.11643662
v -0.03546380 0.02603832 -0.11658646
v -0.05612565 0.01075402 -0.10802343
v -0.05449412 0.01075402 -0.11030791
v -0.05365286 0.00843026 -0.11169613
v -0.05225713 0.01075402 -0.11242935
v -0.05072756 0.00843026 -0.11374688
v -0.05092514 0.00610364 -0.11387600
v -0.05107172 0.00377988 -0.11396742
v -0.05271600 -0.00062499 -0.11312111
v -0.05116732 0.00145612 -0.11401736
v -0.03644527 -0.00062499 -0.11729141
v -0.03411906 0.00145612 -0.11733477
v -0.02947301 0.01772245 -0.11741015
v -0.02947301 0.02004621 -0.11740262
v -0.02947301 0.02236997 -0.11737246
v -0.02714680 0.02469373 -0.11737999
v -0.02250712 0.02702035 -0.11737528
v -0.01785470 0.02853337 -0.11733004
v -0.04574374 0.01772245 -0.11491551
v -0.04748999 0.01539869 -0.11449424
v -0.04919800 0.01181028 -0.11421057
v -0.04901318 0.01307778 -0.11412009
v -0.05038979 0.01307778 -0.11329451
v -0.05061285 0.01561280 -0.11268947
v -0.05174090 0.01497904 -0.11205520
v -0.05197671 0.01307778 -0.11223615
v -0.04341753 0.01772245 -0.11575522
v -0.04574374 0.01539869 -0.11521238
v -0.03801307 0.02236997 -0.11662510
v -0.03632418 0.02449961 -0.11665997
v -0.03644527 0.02236997 -0.11687391
v -0.04005886 0.01920121 -0.11658458
v -0.04149283 0.01772245 -0.11633860
v -0.03411906 0.02853337 -0.11619440
v -0.03283805 0.02810230 -0.11653180
v -0.03411906 0.02651506 -0.11667883
v -0.03411906 0.02469373 -0.11694176
v -0.05024321 0.01092245 -0.11370919
v -0.04937645 0.01026301 -0.11430386
v -0.04956128 0.00843026 -0.11440471
v -0.04976522 0.00610364 -0.11449707
v -0.04990543 0.00377988 -0.11455927
v -0.05000740 0.00145612 -0.11461676
v -0.05122468 -0.00062499 -0.11404752
v -0.05006476 -0.00062499 -0.11465163
v -0.03876511 -0.00062499 -0.11722073
v -0.03644527 0.00145612 -0.11728575
v -0.03644527 0.00610364 -0.11727161
v -0.03179285 0.01772245 -0.11734889
v -0.03179285 0.02004621 -0.11731968
v -0.03179285 0.02236997 -0.11727255
v -0.02947301 0.02469373 -0.11730461
v -0.02482059 0.02702035 -0.11731026
v -0.02018091 0.02853337 -0.11726125
v -0.04785326 0.01307778 -0.11464315
v -0.04828027 0.01092245 -0.11471194
v -0.04341753 0.01539869 -0.11601251
v -0.04574374 0.01307778 -0.11548004
v -0.03882884 0.02000339 -0.11671934
v -0.03644527 0.02004621 -0.11703601
v -0.03876511 0.01772245 -0.11690217
v -0.03411906 0.02236997 -0.11713120
v -0.04033291 0.01772245 -0.11664772
v -0.04186884 0.01539869 -0.11645640
v -0.03328417 0.02853337 -0.11633483
v -0.03195855 0.02720305 -0.11681359
v -0.03252576 0.02853337 -0.11645829
v -0.03130211 0.02853337 -0.11663076
v -0.03128937 0.02852195 -0.11663546
v -0.02947301 0.02702035 -0.11709066
v -0.03179285 0.02469373 -0.11716324
v -0.04806358 0.00843026 -0.11505688
v -0.04806358 0.00610364 -0.11522274
v -0.04806358 0.00377988 -0.11534338
v -0.04806358 0.00145612 -0.11544328
v -0.04826752 -0.00062499 -0.11541501
v -0.04109132 -0.00062499 -0.11709633
v -0.03876511 0.00145612 -0.11720847
v -0.03644527 0.00843026 -0.11726125
v -0.03411906 0.01539869 -0.11728764
v -0.03411906 0.01772245 -0.11725560
v -0.03411906 0.02004621 -0.11721130
v -0.02714680 0.02702035 -0.11722073
v -0.02250712 0.02853337 -0.11717737
v -0.04323908 0.01306636 -0.11627074
v -0.04574374 0.01075402 -0.11571282
v -0.03644527 0.01772245 -0.11712554
v -0.03876511 0.01539869 -0.11699641
v -0.04109132 0.01075402 -0.11686260
v -0.04070893 0.01539869 -0.11671369
v -0.04235321 0.01228416 -0.11657232
v -0.04211740 0.01383143 -0.11651955
v -0.03123201 0.02853337 -0.11663829
v -0.02947301 0.02853337 -0.11680793
v -0.02713405 0.02853337 -0.11695590
v -0.04574374 0.00843026 -0.11589188
v -0.04574374 0.00610364 -0.11601911
v -0.04574374 0.00377988 -0.11612372
v -0.04806358 -0.00062499 -0.11550077
v -0.04603691 -0.00062499 -0.11615483
v -0.04109132 0.00145612 -0.11707276
v -0.03876511 0.00843026 -0.11714815
v -0.03876511 0.00610364 -0.11716983
v -0.03876511 0.00377988 -0.11718963
v -0.04343665 -0.00062499 -0.11679002
v -0.03644527 0.01075402 -0.11724333
v -0.03644527 0.01307778 -0.11721507
v -0.03644527 0.01539869 -0.11717737
v -0.02482059 0.02853337 -0.11708124
v -0.04371706 0.01075402 -0.11632540
v -0.03876511 0.01075402 -0.11711328
v -0.03876511 0.01307778 -0.11705862
v -0.04109132 0.00843026 -0.11694742
v -0.04281845 0.00843026 -0.11668165
v -0.04255078 0.01075402 -0.11662039
v -0.04398474 0.00843026 -0.11640174
v -0.04418868 0.00610364 -0.11645547
v -0.04576923 -0.00062499 -0.11624059
v -0.04436713 0.00377988 -0.11650164
v -0.04449460 0.00194999 -0.11652992
v -0.04551430 0.00128769 -0.11626791
v -0.04109132 0.00610364 -0.11699925
v -0.04364059 -0.00062499 -0.11675139
v -0.04359598 0.00128769 -0.11672217
v -0.04320084 0.00377988 -0.11674008
v -0.04302239 0.00610364 -0.11671840
v -0.04459019 0.00040272 -0.11654972
v -0.04473678 -0.00062499 -0.11653086
v -0.04462843 -0.00062499 -0.11656102
f 1 2 5
f 1 5 13
f 1 13 12
f 1 12 11
f 1 11 10
f 1 10 23
f 1 23 24
f 1 24 14
f 1 14 6
f 1 6 3
f 1 3 7
f 1 7 19
f 1 19 30
f 1 30 41
f 1 41 64
f 1 64 86
f 1 86 118
f 1 118 158
f 1 158 195
f 1 195 194
f 1 194 231
f 1 231 267
f 1 267 297
f 1 297 322
f 1 322 308
f 1 308 307
f 1 307 306
f 1 306 281
f 1 281 280
f 1 280 278
f 1 278 247
f 1 247 212
f 1 212 173
f 1 173 172
f 1 172 132
f 1 132 99
f 1 99 96
f 1 96 72
f 1 72 71
f 1 71 45
f 1 45 32
f 1 32 20
f 1 20 8
f 1 8 4
f 1 4 2
f 2 4 5
f 3 6 7
f 4 8 21
f 4 21 33
f 4 33 48
f 4 48 70
f 4 70 69
f 4 69 95
f 4 95 94
f 4 94 129
f 4 129 128
f 4 128 127
f 4 127 126
f 4 126 125
f 4 125 168
f 4 168 205
f 4 205 204
f 4 204 215
f 4 215 177
f 4 177 139
f 4 139 138
f 4 138 137
f 4 137 136
f 4 136 103
f 4 103 76
f 4 76 49
f 4 49 34
f 4 34 22
f 4 22 9
f 4 9 10
f 4 10 11
f 4 11 12
f 4 12 13
f 4 13 5
f 6 14 15
f 6 15 16
f 6 16 17
f 6 17 7
f 7 17 18
f 7 18 19
f 8 20 21
f 9 22 35
f 9 35 51
f 9 51 80
f 9 80 108
f 9 108 109
f 9 109 144
f 9 144 184
f 9 184 222
f 9 222 257
f 9 257 258
f 9 258 289
f 9 289 312
f 9 312 313
f 9 313 331
f 9 331 341
f 9 341 342
f 9 342 336
f 9 336 318
f 9 318 290
f 9 290 259
f 9 259 224
f 9 224 187
f 9 187 149
f 9 149 111
f 9 111 81
f 9 81 58
f 9 58 57
f 9 57 56
f 9 56 55
f 9 55 54
f 9 54 53
f 9 53 52
f 9 52 36
f 9 36 23
f 9 23 10
f 14 24 25
f 14 25 15
f 15 25 26
f 15 26 16
f 16 26 27
f 16 27 17
f 17 27 18
f 18 27 28
f 18 28 29
f 18 29 19
f 19 29 30
f 20 31 21
f 20 32 31
f 21 31 33
f 22 34 35
f 23 36 26
f 23 26 25
f 23 25 24
f 26 37 38
f 26 38 27
f 26 36 37
f 27 38 28
f 28 38 39
f 28 39 40
f 28 40 29
f 29 40 30
f 30 40 41
f 31 42 43
f 31 43 44
f 31 44 33
f 31 32 45
f 31 45 46
f 31 46 47
f 31 47 42
f 33 44 48
f 34 49 50
f 34 50 35
f 35 50 51
f 36 52 37
f 37 52 53
f 37 53 54
f 37 54 55
f 37 55 56
f 37 56 57
f 37 57 38
f 38 57 58
f 38 58 59
f 38 59 60
f 38 60 61
f 38 61 39
f 39 61 62
f 39 62 63
f 39 63 40
f 40 63 41
f 41 63 64
f 42 65 43
f 42 47 66
f 42 66 65
f 43 67 68
f 43 68 69
f 43 69 70
f 43 70 44
f 43 65 67
f 44 70 48
f 45 71 46
f 46 71 72
f 46 72 73
f 46 73 74
f 46 74 75
f 46 75 66
f 46 66 47
f 49 76 50
f 50 76 77
f 50 77 78
f 50 78 79
f 50 79 51
f 51 79 80
f 58 81 60
f 58 60 59
f 60 81 82
f 60 82 61
f 61 82 110
f 61 110 83
f 61 83 62
f 62 83 84
f 62 84 63
f 63 84 85
f 63 85 64
f 64 85 86
f 65 66 87
f 65 87 67
f 66 75 88
f 66 88 87
f 67 89 90
f 67 90 91
f 67 91 92
f 67 92 68
f 67 87 93
f 67 93 89
f 68 92 94
f 68 94 95
f 68 95 69
f 72 96 73
f 73 97 98
f 73 98 74
f 73 96 99
f 73 99 100
f 73 100 97
f 74 98 101
f 74 101 102
f 74 102 75
f 75 102 88
f 76 103 77
f 77 103 104
f 77 104 105
f 77 105 78
f 78 105 106
f 78 106 107
f 78 107 79
f 79 108 80
f 79 107 109
f 79 109 108
f 81 110 82
f 81 111 110
f 83 110 84
f 84 110 148
f 84 148 112
f 84 112 85
f 85 112 113
f 85 113 114
f 85 114 115
f 85 115 86
f 86 115 116
f 86 116 117
f 86 117 118
f 87 88 119
f 87 119 120
f 87 120 121
f 87 121 93
f 88 102 119
f 89 93 121
f 89 121 122
f 89 122 90
f 90 123 124
f 90 124 125
f 90 125 126
f 90 126 91
f 90 122 123
f 91 126 127
f 91 127 128
f 91 128 92
f 92 128 129
f 92 129 94
f 97 130 101
f 97 101 98
f 97 100 131
f 97 131 130
f 99 132 133
f 99 133 100
f 100 133 131
f 101 130 134
f 101 134 102
f 102 134 135
f 102 135 119
f 103 136 104
f 104 136 137
f 104 137 138
f 104 138 139
f 104 139 140
f 104 140 105
f 105 140 141
f 105 141 106
f 106 141 142
f 106 142 143
f 106 143 107
f 107 144 109
f 107 143 145
f 107 145 144
f 110 111 146
f 110 146 147
f 110 147 148
f 111 149 150
f 111 150 147
f 111 147 146
f 112 148 151
f 112 151 113
f 113 151 152
f 113 152 114
f 114 116 115
f 114 152 153
f 114 153 154
f 114 154 116
f 116 154 117
f 117 154 155
f 117 155 156
f 117 156 157
f 117 157 118
f 118 157 158
f 119 159 160
f 119 160 120
f 119 135 161
f 119 161 159
f 120 160 162
f 120 162 121
f 121 162 122
f 122 162 163
f 122 163 123
f 123 164 165
f 123 165 166
f 123 166 124
f 123 163 167
f 123 167 164
f 124 166 168
f 124 168 125
f 130 131 169
f 130 169 134
f 131 133 170
f 131 170 171
f 131 171 169
f 132 172 133
f 133 173 174
f 133 174 175
f 133 175 170
f 133 172 173
f 134 176 135
f 134 169 176
f 135 176 161
f 139 177 178
f 139 178 140
f 140 178 179
f 140 179 141
f 141 179 180
f 141 180 142
f 142 180 181
f 142 181 182
f 142 182 183
f 142 183 143
f 143 183 145
f 144 145 184
f 145 183 185
f 145 185 184
f 147 150 151
f 147 151 148
f 149 186 150
f 149 187 186
f 150 188 151
f 150 186 188
f 151 188 152
f 152 188 153
f 153 188 189
f 153 189 190
f 153 190 154
f 154 190 155
f 155 190 191
f 155 191 156
f 156 192 157
f 156 191 192
f 157 192 193
f 157 193 194
f 157 194 195
f 157 195 158
f 159 161 196
f 159 196 197
f 159 197 160
f 160 198 199
f 160 199 162
f 160 197 200
f 160 200 198
f 161 176 196
f 162 199 163
f 163 199 167
f 164 167 201
f 164 201 202
f 164 202 203
f 164 203 165
f 165 203 204
f 165 204 205
f 165 205 166
f 166 205 168
f 167 199 201
f 169 206 207
f 169 207 176
f 169 171 206
f 170 175 208
f 170 208 209
f 170 209 171
f 171 209 210
f 171 210 211
f 171 211 206
f 173 212 174
f 174 212 213
f 174 213 214
f 174 214 175
f 175 214 208
f 176 207 196
f 177 215 178
f 178 203 202
f 178 202 216
f 178 216 179
f 178 215 203
f 179 216 217
f 179 217 180
f 180 217 181
f 181 218 219
f 181 219 220
f 181 220 182
f 181 217 218
f 182 220 183
f 183 220 221
f 183 221 185
f 184 185 222
f 185 221 223
f 185 223 222
f 186 187 189
f 186 189 188
f 187 224 225
f 187 225 226
f 187 226 189
f 189 226 227
f 189 227 191
f 189 191 190
f 191 227 228
f 191 228 229
f 191 229 192
f 192 229 193
f 193 229 230
f 193 230 194
f 194 230 231
f 196 207 232
f 196 232 233
f 196 233 234
f 196 234 235
f 196 235 200
f 196 200 197
f 198 236 237
f 198 237 199
f 198 200 236
f 199 238 201
f 199 237 238
f 200 235 236
f 201 217 216
f 201 216 202
f 201 238 239
f 201 239 218
f 201 218 217
f 203 215 204
f 206 240 241
f 206 241 232
f 206 232 207
f 206 211 240
f 208 242 210
f 208 210 209
f 208 214 243
f 208 243 244
f 208 244 242
f 210 245 211
f 210 242 245
f 211 246 240
f 211 245 246
f 212 247 213
f 213 247 248
f 213 248 214
f 214 248 249
f 214 249 250
f 214 250 243
f 218 239 236
f 218 236 251
f 218 251 219
f 219 251 234
f 219 234 252
f 219 252 253
f 219 253 220
f 220 253 254
f 220 254 221
f 221 254 255
f 221 255 256
f 221 256 223
f 222 223 257
f 223 256 258
f 223 258 257
f 224 259 260
f 224 260 226
f 224 226 225
f 226 260 261
f 226 261 227
f 227 262 263
f 227 263 228
f 227 261 262
f 228 263 264
f 228 264 265
f 228 265 229
f 229 265 266
f 229 266 230
f 230 266 231
f 231 266 267
f 232 241 268
f 232 268 233
f 233 268 234
f 234 268 269
f 234 269 252
f 234 251 236
f 234 236 235
f 236 239 238
f 236 238 237
f 240 270 271
f 240 271 241
f 240 246 270
f 241 271 268
f 242 244 272
f 242 272 245
f 243 250 244
f 244 273 274
f 244 274 272
f 244 250 275
f 244 275 273
f 245 272 274
f 245 274 276
f 245 276 277
f 245 277 246
f 246 277 270
f 247 278 248
f 248 279 249
f 248 278 280
f 248 280 281
f 248 281 282
f 248 282 279
f 249 279 250
f 250 279 283
f 250 283 284
f 250 284 275
f 252 269 285
f 252 285 253
f 253 285 254
f 254 285 286
f 254 286 255
f 255 286 287
f 255 287 256
f 256 287 288
f 256 288 258
f 258 288 289
f 259 290 291
f 259 291 292
f 259 292 261
f 259 261 260
f 261 292 262
f 262 293 263
f 262 292 293
f 263 293 294
f 263 294 295
f 263 295 264
f 264 295 275
f 264 275 265
f 265 275 284
f 265 284 283
f 265 283 296
f 265 296 266
f 266 297 267
f 266 296 297
f 268 271 269
f 269 271 285
f 270 298 299
f 270 299 271
f 270 277 298
f 271 299 285
f 273 300 301
f 273 301 274
f 273 275 300
f 274 301 302
f 274 302 303
f 274 303 276
f 275 295 300
f 276 303 304
f 276 304 305
f 276 305 277
f 277 305 298
f 279 282 283
f 281 306 282
f 282 306 307
f 282 307 283
f 283 307 308
f 283 308 296
f 285 299 309
f 285 309 286
f 286 309 310
f 286 310 287
f 287 310 311
f 287 311 288
f 288 312 289
f 288 311 313
f 288 313 312
f 290 314 315
f 290 315 316
f 290 316 317
f 290 317 291
f 290 318 314
f 291 317 319
f 291 319 292
f 292 319 293
f 293 319 320
f 293 320 294
f 294 320 321
f 294 321 295
f 295 321 300
f 296 308 322
f 296 322 297
f 298 305 323
f 298 323 299
f 299 323 309
f 300 321 324
f 300 324 325
f 300 325 301
f 301 325 326
f 301 326 302
f 302 326 327
f 302 327 328
f 302 328 303
f 303 328 304
f 304 328 323
f 304 323 305
f 309 323 329
f 309 329 310
f 310 329 330
f 310 330 311
f 311 331 313
f 311 330 332
f 311 332 333
f 311 333 334
f 311 334 331
f 314 335 324
f 314 324 315
f 314 318 335
f 315 324 320
f 315 320 319
f 315 319 316
f 316 319 317
f 318 336 337
f 318 337 338
f 318 338 335
f 320 324 321
f 323 328 329
f 324 335 326
f 324 326 325
f 326 335 339
f 326 339 327
f 327 339 332
f 327 332 330
f 327 330 329
f 327 329 328
f 331 334 340
f 331 340 341
f 332 339 333
f 333 340 334
f 333 339 340
f 335 338 339
f 336 342 340
f 336 340 337
f 337 340 338
f 338 340 339
f 340 342 341

