# https://github.com/mikedh/trimesh
v 0.03833899 -0.00551809 -0.03276540
v 0.03833899 -0.00790915 -0.03344305
v 0.03833899 -0.00062784 -0.03495817
v 0.02828200 -0.00062784 -0.00384386
v 0.02842572 -0.00550177 -0.00384386
v 0.02842572 -0.00551809 -0.00384386
v 0.02824225 -0.00782550 -0.00384386
v 0.03674895 -0.01810992 -0.03757287
v 0.03697217 -0.01879133 -0.03911996
v 0.03833899 -0.01744482 -0.04305799
v 0.02823919 -0.00784182 -0.00384386
v 0.03833899 -0.00062784 -0.04815954
v 0.02354858 -0.00062784 -0.00384386
v 0.03578270 -0.01946050 -0.03636461
v 0.02771326 -0.00942090 -0.00384386
v 0.03466050 -0.01875664 -0.03235625
v 0.03643094 -0.01952374 -0.03848067
v 0.03661441 -0.02033980 -0.04034100
v 0.03718010 -0.01952374 -0.04107619
v 0.03833899 -0.01932993 -0.04520601
v 0.03833899 -0.01855467 -0.04419593
v 0.03833899 -0.02147005 -0.06915387
v 0.01003938 -0.02147005 -0.01969828
v 0.00901809 -0.02147005 -0.01788270
v 0.02914429 -0.00062784 -0.03126946
v 0.02343850 -0.00062784 -0.00615170
v 0.00711922 -0.02147005 -0.00788418
v 0.00722624 -0.02147005 -0.00615170
v 0.00747086 -0.02147005 -0.00384386
v 0.03496322 -0.01950334 -0.03407595
v 0.03456265 -0.02077232 -0.03487506
v 0.02348131 -0.01677769 -0.00384386
v 0.03423547 -0.02030512 -0.03332798
v 0.03683763 -0.02073559 -0.04189448
v 0.03779471 -0.01946050 -0.04333289
v 0.03833899 -0.01949314 -0.04551287
v 0.03833899 -0.02147005 -0.04954041
v 0.00810993 -0.02147005 -0.01544700
v 0.02489094 -0.00062784 -0.02192941
v 0.02528234 -0.00062784 -0.02297146
v 0.02533126 -0.00062784 -0.02309292
v 0.02595810 -0.00062784 -0.02458886
v 0.02602537 -0.00062784 -0.02474868
v 0.02689378 -0.00062784 -0.02671131
v 0.02746558 -0.00062784 -0.02798350
v 0.02808325 -0.00062784 -0.02926208
v 0.02334983 -0.00062784 -0.00847872
v 0.00710087 -0.02147005 -0.00847872
v 0.01982423 -0.02147005 -0.00384386
v 0.03412539 -0.02147005 -0.03558468
v 0.03466356 -0.02147005 -0.03692080
v 0.03481950 -0.02107834 -0.03636461
v 0.02347214 -0.01679198 -0.00384386
v 0.03651962 -0.02147005 -0.04261688
v 0.03688655 -0.02147005 -0.04385711
v 0.03713423 -0.02147005 -0.04474572
v 0.03804239 -0.02147005 -0.04835132
v 0.03833899 -0.02112526 -0.04875408
v 0.03833899 -0.02047037 -0.04738599
v 0.03833899 -0.02042957 -0.04730289
v 0.00755954 -0.02147005 -0.01312637
v 0.02434666 -0.00062784 -0.02010104
v 0.02329479 -0.00062784 -0.01079935
v 0.02329785 -0.00062784 -0.01312637
v 0.00716202 -0.02147005 -0.01024956
v 0.03513751 -0.02147005 -0.03832724
v 0.00751978 -0.02147005 -0.01292819
v 0.02383296 -0.00062784 -0.01777402
v 0.02346602 -0.00062784 -0.01544700
v 0.00721095 -0.02147005 -0.01079935
f 1 2 10
f 1 10 21
f 1 21 20
f 1 20 36
f 1 36 60
f 1 60 59
f 1 59 58
f 1 58 37
f 1 37 22
f 1 22 12
f 1 12 3
f 1 3 4
f 1 4 5
f 1 5 6
f 1 6 7
f 1 7 2
f 2 8 9
f 2 9 10
f 2 7 11
f 2 11 8
f 3 12 25
f 3 25 46
f 3 46 45
f 3 45 44
f 3 44 43
f 3 43 42
f 3 42 41
f 3 41 40
f 3 40 39
f 3 39 62
f 3 62 68
f 3 68 69
f 3 69 64
f 3 64 63
f 3 63 47
f 3 47 26
f 3 26 13
f 3 13 4
f 4 13 29
f 4 29 49
f 4 49 53
f 4 53 32
f 4 32 15
f 4 15 11
f 4 11 7
f 4 7 6
f 4 6 5
f 8 14 9
f 8 11 15
f 8 15 16
f 8 16 14
f 9 14 17
f 9 17 18
f 9 18 19
f 9 19 20
f 9 20 21
f 9 21 10
f 12 22 23
f 12 23 24
f 12 24 25
f 13 26 27
f 13 27 28
f 13 28 29
f 14 30 31
f 14 31 18
f 14 18 17
f 14 16 30
f 15 32 33
f 15 33 16
f 16 33 30
f 18 31 34
f 18 34 19
f 19 34 35
f 19 35 20
f 20 35 34
f 20 34 36
f 22 37 57
f 22 57 56
f 22 56 55
f 22 55 54
f 22 54 66
f 22 66 51
f 22 51 50
f 22 50 49
f 22 49 29
f 22 29 28
f 22 28 27
f 22 27 48
f 22 48 65
f 22 65 70
f 22 70 67
f 22 67 61
f 22 61 38
f 22 38 24
f 22 24 23
f 24 38 39
f 24 39 40
f 24 40 41
f 24 41 42
f 24 42 43
f 24 43 44
f 24 44 45
f 24 45 46
f 24 46 25
f 26 47 27
f 27 47 48
f 30 33 31
f 31 50 51
f 31 51 52
f 31 52 34
f 31 33 49
f 31 49 50
f 32 53 33
f 33 53 49
f 34 54 55
f 34 55 56
f 34 56 57
f 34 57 58
f 34 58 59
f 34 59 60
f 34 60 36
f 34 52 54
f 37 58 57
f 38 61 62
f 38 62 39
f 47 63 48
f 48 63 64
f 48 64 65
f 51 66 52
f 52 66 54
f 61 67 68
f 61 68 62
f 64 69 65
f 65 69 70
f 67 70 69
f 67 69 68

