# https://github.com/mikedh/trimesh
v -0.01083928 -0.01941237 -0.00383958
v -0.02320105 0.00215875 -0.00383530
v -0.02320339 0.00215875 -0.00382247
v -0.01084395 -0.01941237 -0.00382247
v -0.01855925 -0.01941237 -0.00383958
v -0.02329688 0.00147251 -0.00383958
v -0.02490492 0.00215875 -0.00383958
v -0.02343711 0.00215875 -0.00296691
v -0.01460227 -0.01941237 0.00783028
v -0.02205813 -0.01494020 -0.00383958
v -0.03471674 -0.01941237 0.02411162
v -0.03471674 -0.01907030 0.02342289
v -0.03471674 -0.01885071 0.02299511
v -0.03471674 -0.01854876 0.02240905
v -0.03471674 -0.01792376 0.02123693
v -0.03471674 -0.01781818 0.02104871
v -0.03471674 -0.01693135 0.01951726
v -0.03471674 -0.01605719 0.01803286
v -0.02872634 0.00215875 -0.00383958
v -0.02359371 0.00215875 -0.00248351
v -0.02389055 0.00215875 -0.00167501
v -0.02460341 0.00215875 0.00025428
v -0.02482077 0.00215875 0.00082323
v -0.02535133 0.00215875 0.00212796
v -0.02562012 0.00215875 0.00275680
v -0.01679228 -0.01941237 0.01249737
v -0.02336933 -0.01325311 -0.00383958
v -0.03471674 -0.01941237 0.03985824
v -0.03471674 -0.01504789 0.01681796
v -0.02879412 0.00145350 -0.00383958
v -0.03471674 0.00157597 0.00777467
v -0.03471674 0.00215875 0.00792867
v -0.02601044 0.00215875 0.00356531
v -0.03461156 0.00215875 0.01955576
v -0.01861301 -0.01941237 0.01582551
v -0.02618106 0.00215875 0.00391609
v -0.02697807 0.00215875 0.00547321
v -0.02794803 0.00215875 0.00726989
v -0.02421075 -0.01209812 -0.00383958
v -0.02242508 -0.01941237 0.02185294
v -0.03471674 0.00215875 0.01973970
v -0.03471674 -0.01494865 0.01670246
v -0.03471674 0.00145350 0.00775756
v -0.03471674 0.00151896 0.00776612
v -0.02879412 0.00143450 -0.00383958
v -0.01939833 -0.01941237 0.01717729
v -0.02546819 -0.01001407 -0.00383958
v -0.03471674 -0.01396680 0.01562445
v -0.02079835 -0.01941237 0.01939320
v -0.03471674 -0.00088604 0.00797145
v -0.02870063 -0.00082481 -0.00383958
v -0.02647789 -0.00800814 -0.00383958
v -0.03471674 -0.01278436 0.01452505
v -0.03471674 -0.00094516 0.00799284
v -0.02869361 -0.00096839 -0.00383958
v -0.02749226 -0.00553768 -0.00383958
v -0.03471674 -0.01264711 0.01440955
v -0.03471674 -0.01144144 0.01341282
v -0.03471674 -0.00235142 0.00851473
v -0.02860948 -0.00136958 -0.00383958
v -0.02749928 -0.00551868 -0.00383958
v -0.03471674 -0.01035824 0.01265137
v -0.03471674 -0.00319391 0.00887407
v -0.02822149 -0.00318125 -0.00383958
v -0.02815137 -0.00343251 -0.00383958
v -0.03471674 -0.01018510 0.01254015
v -0.03471674 -0.00566226 0.01006758
v -0.03471674 -0.00787934 0.01119692
f 1 2 3
f 1 3 8
f 1 8 4
f 1 4 9
f 1 9 26
f 1 26 35
f 1 35 46
f 1 46 49
f 1 49 40
f 1 40 28
f 1 28 11
f 1 11 5
f 1 5 10
f 1 10 27
f 1 27 39
f 1 39 47
f 1 47 52
f 1 52 56
f 1 56 61
f 1 61 65
f 1 65 64
f 1 64 60
f 1 60 55
f 1 55 51
f 1 51 45
f 1 45 30
f 1 30 19
f 1 19 7
f 1 7 6
f 1 6 2
f 2 6 7
f 2 7 19
f 2 19 32
f 2 32 41
f 2 41 34
f 2 34 38
f 2 38 37
f 2 37 36
f 2 36 33
f 2 33 25
f 2 25 24
f 2 24 23
f 2 23 22
f 2 22 21
f 2 21 20
f 2 20 8
f 2 8 3
f 4 8 9
f 5 11 12
f 5 12 13
f 5 13 14
f 5 14 15
f 5 15 16
f 5 16 17
f 5 17 18
f 5 18 10
f 8 20 9
f 9 20 21
f 9 21 22
f 9 22 23
f 9 23 24
f 9 24 25
f 9 25 26
f 10 18 27
f 11 28 41
f 11 41 32
f 11 32 31
f 11 31 44
f 11 44 43
f 11 43 50
f 11 50 54
f 11 54 59
f 11 59 63
f 11 63 67
f 11 67 68
f 11 68 66
f 11 66 62
f 11 62 58
f 11 58 57
f 11 57 53
f 11 53 48
f 11 48 42
f 11 42 29
f 11 29 18
f 11 18 17
f 11 17 16
f 11 16 15
f 11 15 14
f 11 14 13
f 11 13 12
f 18 29 27
f 19 30 31
f 19 31 32
f 25 33 26
f 26 34 35
f 26 33 36
f 26 36 37
f 26 37 38
f 26 38 34
f 27 29 39
f 28 40 41
f 29 42 39
f 30 43 44
f 30 44 31
f 30 45 43
f 34 41 35
f 35 41 46
f 39 42 48
f 39 48 47
f 40 49 41
f 41 49 46
f 43 45 51
f 43 51 50
f 47 48 53
f 47 53 52
f 50 51 55
f 50 55 54
f 52 53 57
f 52 57 58
f 52 58 56
f 54 55 59
f 55 60 59
f 56 58 62
f 56 62 61
f 59 60 64
f 59 64 63
f 61 62 66
f 61 66 65
f 63 64 67
f 64 65 68
f 64 68 67
f 65 66 68

