# https://github.com/mikedh/trimesh
v -0.03471880 -0.01941237 0.02411746
v -0.03528671 -0.01941237 0.02491992
v -0.03471880 -0.01907030 0.02342611
v -0.03471880 -0.01941237 0.03985801
v -0.03634613 -0.01941237 0.02651867
v -0.03532389 -0.01832917 0.02284587
v -0.03471880 -0.01854876 0.02241378
v -0.03471880 0.00215875 0.01974714
v -0.04395410 -0.01941237 0.07081444
v -0.03637297 -0.01939125 0.02651867
v -0.03734979 -0.01941237 0.02805568
v -0.03566876 -0.01634647 0.01997553
v -0.03471880 -0.01693135 0.01952492
v -0.03471880 -0.01781818 0.02105577
v -0.03471880 -0.01792376 0.02124095
v -0.03783510 -0.01850864 0.02717915
v -0.03735805 -0.01807579 0.02562979
v -0.03686861 -0.01762392 0.02406808
v -0.03471880 0.00215875 0.00792630
v -0.05021147 0.00215875 0.07081444
v -0.05067613 -0.01941237 0.07081444
v -0.03801270 -0.01941237 0.02916061
v -0.03770293 -0.01607197 0.02274711
v -0.03517932 -0.01584815 0.01842617
v -0.03471880 -0.01605719 0.01803729
v -0.03807259 -0.01646049 0.02406808
v -0.03826671 -0.01892883 0.02871617
v -0.03980937 -0.01815813 0.03013591
v -0.03942938 -0.01774428 0.02871617
v -0.03471880 0.00157597 0.00777198
v -0.03501825 0.00215875 0.00834604
v -0.05572126 0.00215875 0.07081444
v -0.05077939 -0.01920966 0.07081444
v -0.05063896 -0.01941237 0.07054283
v -0.03874582 -0.01941237 0.03051245
v -0.03815725 -0.01475228 0.02188292
v -0.03780205 -0.01393724 0.02025948
v -0.03721762 -0.01548708 0.02119774
v -0.04006545 -0.01615009 0.02727174
v -0.03968339 -0.01560110 0.02572238
v -0.03576789 -0.01429831 0.01754964
v -0.03471880 -0.01494865 0.01670397
v -0.03471880 -0.01504789 0.01682125
v -0.03892962 -0.01941237 0.03085195
v -0.04037315 -0.01658295 0.02871617
v -0.03980730 -0.01941237 0.03257415
v -0.04015218 -0.01856143 0.03168527
v -0.03471880 0.00145350 0.00775346
v -0.03537551 0.00145350 0.00881517
v -0.03534247 0.00215875 0.00887073
v -0.05577289 0.00153163 0.07081444
v -0.05568203 0.00215875 0.07054283
v -0.05139686 -0.01796388 0.07081444
v -0.05137621 -0.01791953 0.07054283
v -0.05025071 -0.01941237 0.06829595
v -0.03928689 -0.01482196 0.02401252
v -0.03978872 -0.01334813 0.02319772
v -0.03937982 -0.01253942 0.02172860
v -0.03814280 -0.01239584 0.01945702
v -0.03731674 -0.01310742 0.01871012
v -0.03524335 -0.01358040 0.01600027
v -0.04049912 -0.01482196 0.02645694
v -0.04199015 -0.01551453 0.03103713
v -0.04156061 -0.01471638 0.02876555
v -0.04016870 -0.01405126 0.02474708
v -0.03471880 -0.01396680 0.01562374
v -0.04077999 -0.01728397 0.03096306
v -0.04031326 -0.01941237 0.03373463
v -0.04048673 -0.01900063 0.03336427
v -0.03471880 -0.00088604 0.00797568
v -0.03537345 -0.00016391 0.00881517
v -0.03617266 0.00145350 0.01012380
v -0.03740968 0.00215875 0.01233982
v -0.05577702 0.00147040 0.07081444
v -0.05573779 0.00145350 0.07054283
v -0.05537639 0.00215875 0.06892557
v -0.05529997 0.00145350 0.06822187
v -0.05183674 -0.01699259 0.07081444
v -0.05190282 -0.01675821 0.07054283
v -0.05171076 -0.01632324 0.06822187
v -0.05118209 -0.01748456 0.06822187
v -0.05023625 -0.01941237 0.06822187
v -0.04015012 -0.01179829 0.02248785
v -0.04055282 -0.01253942 0.02401252
v -0.03772358 -0.01155758 0.01807432
v -0.03568735 -0.01203055 0.01532744
v -0.03485717 -0.01267878 0.01463609
v -0.03471880 -0.01278436 0.01452498
v -0.04237840 -0.01387812 0.02957419
v -0.04206037 -0.01321511 0.02802482
v -0.04222352 -0.01590938 0.03231489
v -0.04169897 -0.01245919 0.02641990
v -0.04175060 -0.01712350 0.03319760
v -0.04072422 -0.01941237 0.03480252
v -0.04206657 -0.01798921 0.03568522
v -0.03471880 -0.00094516 0.00799420
v -0.03522476 -0.00171375 0.00906209
v -0.03591245 -0.00091138 0.00995096
v -0.03716599 -0.00087126 0.01203736
v -0.03784335 -0.00087126 0.01319784
v -0.03724653 0.00145350 0.01192625
v -0.03786814 0.00215875 0.01314846
v -0.05581006 -0.00059888 0.07081444
v -0.05577496 -0.00087126 0.07054283
v -0.05534954 -0.00087126 0.06822187
v -0.05524009 0.00215875 0.06822187
v -0.05488488 0.00215875 0.06659843
v -0.05478989 0.00145350 0.06589474
v -0.05484358 -0.00087126 0.06589474
v -0.05191108 -0.01681944 0.07081444
v -0.05269790 -0.01481351 0.07054283
v -0.05231791 -0.01481351 0.06822187
v -0.05158686 -0.01605085 0.06690707
v -0.05098384 -0.01695036 0.06603672
v -0.04980051 -0.01941237 0.06614783
v -0.03973915 -0.01071931 0.02093849
v -0.04240525 -0.01166526 0.02721619
v -0.04206450 -0.01073831 0.02566683
v -0.04161223 -0.01004363 0.02422857
v -0.03798998 -0.01016399 0.01762371
v -0.03727750 -0.01016399 0.01646323
v -0.03607973 -0.01024422 0.01463609
v -0.03517107 -0.01107193 0.01377808
v -0.03471880 -0.01144144 0.01341388
v -0.03471880 -0.01264711 0.01440770
v -0.04262209 -0.01435321 0.03103713
v -0.04345227 -0.01248875 0.03103713
v -0.04267165 -0.01245919 0.02876555
v -0.04225656 -0.01829749 0.03685188
v -0.04246101 -0.01633802 0.03386426
v -0.04294838 -0.01500566 0.03319760
v -0.04108356 -0.01941237 0.03578399
v -0.03471880 -0.00235142 0.00851888
v -0.03471880 -0.00319391 0.00887690
v -0.03502857 -0.00319391 0.00937690
v -0.03573898 -0.00319391 0.01053737
v -0.03770912 -0.00240210 0.01343858
v -0.03790325 0.00145350 0.01308673
v -0.03872310 -0.00087126 0.01477189
v -0.03811802 0.00215875 0.01359289
v -0.05581419 -0.00087126 0.07081444
v -0.05566550 -0.00319391 0.07054283
v -0.05523596 -0.00319391 0.06822187
v -0.05474239 -0.00319391 0.06589474
v -0.05472793 0.00215875 0.06589474
v -0.05401133 0.00215875 0.06285774
v -0.05416208 0.00167310 0.06333922
v -0.05392459 0.00104598 0.06222194
v -0.05395144 -0.00087126 0.06211083
v -0.05430045 -0.00087126 0.06357378
v -0.05392046 -0.00319391 0.06222812
v -0.05422404 -0.00319391 0.06357378
v -0.05272888 -0.01481351 0.07081444
v -0.05356319 -0.01238106 0.07045642
v -0.05316049 -0.01248875 0.06822187
v -0.05280529 -0.01460236 0.07081444
v -0.05357352 -0.01246975 0.07081444
v -0.05269583 -0.01248875 0.06589474
v -0.05186978 -0.01483463 0.06603672
v -0.05155175 -0.01364797 0.06241330
v -0.05141338 -0.01562222 0.06535771
v -0.05031680 -0.01713828 0.06357378
v -0.04949900 -0.01881270 0.06357378
v -0.04966421 -0.01941237 0.06554906
v -0.04976953 -0.01941237 0.06600586
v -0.04036489 -0.01003307 0.02172860
v -0.03998490 -0.00916947 0.02048787
v -0.03919189 -0.01003307 0.01959900
v -0.04260970 -0.01004363 0.02641990
v -0.04348325 -0.01016399 0.02871617
v -0.04231851 -0.00918847 0.02510510
v -0.03753978 -0.00874717 0.01604348
v -0.03550356 -0.00952420 0.01326574
v -0.03471880 -0.01035824 0.01265463
v -0.04416681 -0.01244230 0.03332105
v -0.04426387 -0.01022944 0.03097540
v -0.04449104 -0.01104659 0.03252477
v -0.04272121 -0.01682789 0.03568522
v -0.04177538 -0.01941237 0.03776544
v -0.04225036 -0.01941237 0.03932098
v -0.04694236 -0.01941237 0.05531462
v -0.04730995 -0.01941237 0.05658003
v -0.04713648 -0.01872191 0.05467265
v -0.04861099 -0.01696725 0.05671583
v -0.04390660 -0.01458758 0.03590744
v -0.04438985 -0.01318555 0.03527782
v -0.04927803 -0.01608041 0.05757385
v -0.04907152 -0.01559899 0.05602448
v -0.03471880 -0.00566226 0.01006824
v -0.03548290 -0.00500770 0.01095712
v -0.03827704 -0.00792157 0.01693236
v -0.03950166 -0.00784344 0.01902493
v -0.03994567 -0.00439747 0.01824099
v -0.03942938 -0.00319391 0.01682742
v -0.04007990 -0.00319391 0.01798790
v -0.03965242 -0.00087126 0.01645088
v -0.03884288 0.00145350 0.01477189
v -0.03877267 0.00215875 0.01477189
v -0.05571713 -0.00290042 0.07081444
v -0.05537432 -0.00551868 0.07054283
v -0.05570268 -0.00317491 0.07081444
v -0.05495716 -0.00551868 0.06822187
v -0.05388329 -0.00439747 0.06238244
v -0.05447805 -0.00551868 0.06589474
v -0.05377590 0.00215875 0.06191948
v -0.05366025 -0.00087126 0.06095035
v -0.04683084 0.00145350 0.03482721
v -0.04688453 -0.00045318 0.03460499
v -0.05311506 -0.00319391 0.05892568
v -0.05364580 -0.00319391 0.06106763
v -0.05384405 -0.01121340 0.06962926
v -0.05375319 -0.01196510 0.07081444
v -0.05371395 -0.01078266 0.06822187
v -0.05350537 -0.01002885 0.06597499
v -0.05294571 -0.01016399 0.06357378
v -0.05206803 -0.01271890 0.06334539
v -0.05178924 -0.01204111 0.06124664
v -0.05141751 -0.01090512 0.05830224
v -0.05110981 -0.01236417 0.05901211
v -0.05043657 -0.01248875 0.05659856
v -0.04939161 -0.01404915 0.05486400
v -0.04957954 -0.01481985 0.05671583
v -0.05016397 -0.01481351 0.05892568
v -0.05077112 -0.01481351 0.06124664
v -0.05127708 -0.01483463 0.06334539
v -0.04930901 -0.01845163 0.06209849
v -0.04945563 -0.01645204 0.05892568
v -0.04970345 -0.01722274 0.06129603
v -0.04904260 -0.01941237 0.06302441
v -0.04918303 -0.01941237 0.06357378
v -0.04934824 -0.01941237 0.06422810
v -0.04192201 -0.00784344 0.02358043
v -0.04098030 -0.00784344 0.02174095
v -0.04015631 -0.00784344 0.02018541
v -0.04418540 -0.00787723 0.02876555
v -0.04449517 -0.00867326 0.03015442
v -0.04249405 -0.00784344 0.02474708
v -0.04322511 -0.00784344 0.02638904
v -0.03578442 -0.00784344 0.01281513
v -0.03503890 -0.00784344 0.01165465
v -0.03471880 -0.00787934 0.01119786
v -0.03471880 -0.01018510 0.01254352
v -0.04470581 -0.01163570 0.03407413
v -0.04473679 -0.00949675 0.03170379
v -0.05121100 -0.01014498 0.05658003
v -0.04497221 -0.01022944 0.03332105
v -0.04738636 -0.01941237 0.05685781
v -0.04910869 -0.01805678 0.06054913
v -0.04889185 -0.01761548 0.05892568
v -0.04035456 -0.00530964 0.01938912
v -0.04084813 -0.00319391 0.01941998
v -0.03971024 0.00145350 0.01635829
v -0.04027196 -0.00087126 0.01761137
v -0.03967720 0.00215875 0.01642002
v -0.03907211 0.00215875 0.01531510
v -0.05489521 -0.00784344 0.07054283
v -0.05540736 -0.00551868 0.07081444
v -0.05544247 -0.00525052 0.07081444
v -0.05451109 -0.00784344 0.06822187
v -0.05393905 -0.00697562 0.06445031
v -0.05376971 -0.00594520 0.06290095
v -0.05402165 -0.00530964 0.06363551
v -0.05154555 -0.00417365 0.05314181
v -0.05287964 -0.00551868 0.05892568
v -0.05353428 -0.00530964 0.06146270
v -0.04689899 0.00215875 0.03541980
v -0.04664498 -0.00108452 0.03359266
v -0.04690518 -0.00200303 0.03452474
v -0.04690518 -0.00204315 0.03452474
v -0.04644879 0.00145350 0.03336427
v -0.04594696 -0.00087126 0.03103713
v -0.04684943 -0.00359299 0.03475931
v -0.05408361 -0.01092201 0.07081444
v -0.05421371 -0.01032868 0.07045642
v -0.05405883 -0.00962133 0.06822187
v -0.05392459 -0.00916524 0.06680831
v -0.05377590 -0.00852335 0.06525894
v -0.05300767 -0.00784344 0.06124664
v -0.05166533 -0.00935528 0.05734546
v -0.05238193 -0.01016399 0.06124664
v -0.05183674 -0.01014498 0.05901211
v -0.04867088 -0.01941237 0.06161084
v -0.04213265 -0.00616058 0.02315451
v -0.04166593 -0.00543844 0.02190144
v -0.04469755 -0.00712553 0.02956801
v -0.04443321 -0.00551868 0.02793840
v -0.04495982 -0.00787723 0.03097540
v -0.04378270 -0.00551868 0.02638904
v -0.04270469 -0.00543844 0.02398783
v -0.04567023 -0.00784344 0.03336427
v -0.04795428 -0.01941237 0.05892568
v -0.04855110 -0.01941237 0.06116023
v -0.04817938 -0.01941237 0.05976518
v -0.04231851 -0.00461073 0.02278414
v -0.04186418 -0.00319391 0.02136441
v -0.04030913 0.00145350 0.01752495
v -0.03986100 0.00215875 0.01677187
v -0.04119508 -0.00087126 0.01941998
v -0.05425914 -0.01030545 0.07081444
v -0.05492412 -0.00784344 0.07081444
v -0.05498194 -0.00757528 0.07081444
v -0.05407948 -0.00778643 0.06597499
v -0.05357971 -0.00778643 0.06363551
v -0.05227661 -0.00551868 0.05659856
v -0.05243769 -0.00784344 0.05892568
v -0.05163435 -0.00703685 0.05513561
v -0.04652727 0.00215875 0.03400006
v -0.04584990 -0.00319391 0.03103713
v -0.04658302 -0.00296798 0.03359266
v -0.04635999 0.00215875 0.03336427
v -0.04590979 0.00215875 0.03174083
v -0.04580240 0.00145350 0.03103713
v -0.04508580 0.00145350 0.02871617
v -0.04519319 -0.00087126 0.02871617
v -0.04618858 -0.00551868 0.03336427
v -0.05145675 -0.00858458 0.05579610
v -0.04487516 -0.00551868 0.02910505
v -0.04551328 -0.00551868 0.03103713
v -0.04456332 -0.00416732 0.02760507
v -0.04316522 -0.00319391 0.02406808
v -0.05183880 -0.00782444 0.05658003
v -0.04244448 -0.00319391 0.02252489
v -0.04201907 -0.00087126 0.02108046
v -0.04124877 0.00145350 0.01941998
v -0.04027816 0.00215875 0.01758667
v -0.04499080 -0.00331216 0.02851247
v -0.04571360 0.00215875 0.03103713
v -0.04499906 0.00215875 0.02870382
v -0.04461494 0.00215875 0.02746927
v -0.04464386 0.00145350 0.02738903
v -0.04468103 -0.00087126 0.02729644
v -0.04464386 -0.00261747 0.02739520
v -0.04421844 -0.00331216 0.02653101
v -0.04337586 -0.00087126 0.02406808
v -0.04256427 -0.00087126 0.02224094
v -0.04203559 0.00145350 0.02106811
v -0.04118269 0.00215875 0.01941998
v -0.04442702 0.00215875 0.02697545
v -0.04420398 0.00145350 0.02622855
v -0.04423083 -0.00087126 0.02612978
v -0.04334489 0.00145350 0.02406808
v -0.04256220 0.00145350 0.02222859
v -0.04253329 0.00215875 0.02229649
v -0.04216569 0.00215875 0.02148786
v -0.04200048 0.00215875 0.02113602
v -0.04328087 0.00215875 0.02406808
f 1 2 3
f 1 3 7
f 1 7 15
f 1 15 14
f 1 14 13
f 1 13 25
f 1 25 43
f 1 43 42
f 1 42 66
f 1 66 88
f 1 88 125
f 1 125 124
f 1 124 174
f 1 174 242
f 1 242 241
f 1 241 189
f 1 189 134
f 1 134 133
f 1 133 96
f 1 96 70
f 1 70 48
f 1 48 30
f 1 30 19
f 1 19 8
f 1 8 4
f 1 4 9
f 1 9 21
f 1 21 34
f 1 34 55
f 1 55 82
f 1 82 115
f 1 115 165
f 1 165 164
f 1 164 231
f 1 231 230
f 1 230 229
f 1 229 282
f 1 282 292
f 1 292 293
f 1 293 291
f 1 291 247
f 1 247 182
f 1 182 181
f 1 181 180
f 1 180 179
f 1 179 132
f 1 132 94
f 1 94 68
f 1 68 46
f 1 46 44
f 1 44 35
f 1 35 22
f 1 22 11
f 1 11 5
f 1 5 2
f 2 5 6
f 2 6 3
f 3 6 7
f 4 8 9
f 5 10 6
f 5 11 10
f 6 12 13
f 6 13 14
f 6 14 15
f 6 15 7
f 6 10 11
f 6 11 16
f 6 16 17
f 6 17 18
f 6 18 12
f 8 19 31
f 8 31 50
f 8 50 73
f 8 73 102
f 8 102 140
f 8 140 198
f 8 198 255
f 8 255 254
f 8 254 297
f 8 297 325
f 8 325 337
f 8 337 345
f 8 345 344
f 8 344 343
f 8 343 346
f 8 346 338
f 8 338 329
f 8 329 328
f 8 328 327
f 8 327 311
f 8 311 310
f 8 310 307
f 8 307 266
f 8 266 205
f 8 205 146
f 8 146 145
f 8 145 107
f 8 107 106
f 8 106 76
f 8 76 52
f 8 52 32
f 8 32 20
f 8 20 9
f 9 20 32
f 9 32 51
f 9 51 74
f 9 74 103
f 9 103 141
f 9 141 199
f 9 199 201
f 9 201 258
f 9 258 257
f 9 257 301
f 9 301 300
f 9 300 299
f 9 299 273
f 9 273 212
f 9 212 157
f 9 157 156
f 9 156 153
f 9 153 110
f 9 110 78
f 9 78 53
f 9 53 33
f 9 33 21
f 11 22 16
f 12 18 23
f 12 23 24
f 12 24 25
f 12 25 13
f 16 26 23
f 16 23 17
f 16 22 27
f 16 27 28
f 16 28 29
f 16 29 26
f 17 23 18
f 19 30 31
f 21 33 34
f 22 35 27
f 23 36 37
f 23 37 38
f 23 38 24
f 23 26 39
f 23 39 40
f 23 40 36
f 24 41 42
f 24 42 43
f 24 43 25
f 24 38 37
f 24 37 41
f 26 29 39
f 27 35 44
f 27 44 28
f 28 45 39
f 28 39 29
f 28 44 46
f 28 46 47
f 28 47 45
f 30 48 49
f 30 49 31
f 31 49 50
f 32 52 51
f 33 53 34
f 34 54 55
f 34 53 54
f 36 40 56
f 36 56 37
f 37 56 57
f 37 57 58
f 37 58 59
f 37 59 60
f 37 60 61
f 37 61 41
f 39 62 40
f 39 45 63
f 39 63 64
f 39 64 62
f 40 62 65
f 40 65 56
f 41 61 66
f 41 66 42
f 45 47 67
f 45 67 63
f 46 68 47
f 47 68 69
f 47 69 67
f 48 70 71
f 48 71 49
f 49 71 72
f 49 72 50
f 50 72 73
f 51 52 75
f 51 75 74
f 52 76 77
f 52 77 75
f 53 78 79
f 53 79 54
f 54 79 80
f 54 80 81
f 54 81 55
f 55 81 82
f 56 65 57
f 57 83 58
f 57 65 84
f 57 84 83
f 58 83 59
f 59 85 60
f 59 83 85
f 60 85 86
f 60 86 87
f 60 87 61
f 61 87 88
f 61 88 66
f 62 64 89
f 62 89 90
f 62 90 65
f 63 89 64
f 63 67 91
f 63 91 89
f 65 90 92
f 65 92 84
f 67 69 93
f 67 93 91
f 68 94 69
f 69 94 95
f 69 95 93
f 70 96 71
f 71 97 98
f 71 98 99
f 71 99 100
f 71 100 101
f 71 101 72
f 71 96 97
f 72 101 73
f 73 101 102
f 74 75 104
f 74 104 103
f 75 77 105
f 75 105 104
f 76 106 77
f 77 106 107
f 77 107 108
f 77 108 109
f 77 109 105
f 78 110 79
f 79 110 111
f 79 111 80
f 80 111 112
f 80 112 113
f 80 113 81
f 81 113 114
f 81 114 115
f 81 115 82
f 83 116 85
f 83 84 117
f 83 117 118
f 83 118 119
f 83 119 116
f 84 92 117
f 85 120 121
f 85 121 122
f 85 122 123
f 85 123 86
f 85 116 120
f 86 123 124
f 86 124 87
f 87 124 125
f 87 125 88
f 89 91 126
f 89 126 127
f 89 127 128
f 89 128 90
f 90 128 117
f 90 117 92
f 91 93 95
f 91 95 129
f 91 129 130
f 91 130 131
f 91 131 126
f 94 132 95
f 95 132 129
f 96 133 97
f 97 133 134
f 97 134 135
f 97 135 136
f 97 136 137
f 97 137 98
f 98 137 99
f 99 137 100
f 100 138 101
f 100 137 139
f 100 139 138
f 101 138 102
f 102 138 140
f 103 104 141
f 104 105 142
f 104 142 141
f 105 143 142
f 105 109 144
f 105 144 143
f 107 145 108
f 108 145 146
f 108 146 147
f 108 147 148
f 108 148 149
f 108 149 150
f 108 150 109
f 109 150 151
f 109 151 152
f 109 152 144
f 110 153 111
f 111 154 155
f 111 155 112
f 111 153 156
f 111 156 157
f 111 157 154
f 112 155 158
f 112 158 159
f 112 159 113
f 113 159 160
f 113 160 161
f 113 161 114
f 114 161 162
f 114 162 163
f 114 163 164
f 114 164 165
f 114 165 115
f 116 119 166
f 116 166 167
f 116 167 168
f 116 168 120
f 117 169 118
f 117 128 170
f 117 170 169
f 118 169 171
f 118 171 119
f 119 171 166
f 120 168 172
f 120 172 121
f 121 172 173
f 121 173 122
f 122 173 123
f 123 173 174
f 123 174 124
f 126 131 175
f 126 175 127
f 127 176 128
f 127 175 177
f 127 177 176
f 128 176 170
f 129 178 130
f 129 132 179
f 129 179 180
f 129 180 181
f 129 181 182
f 129 182 178
f 130 178 183
f 130 183 184
f 130 184 131
f 131 185 186
f 131 186 175
f 131 184 187
f 131 187 188
f 131 188 185
f 134 189 190
f 134 190 135
f 135 190 172
f 135 172 136
f 136 172 137
f 137 172 191
f 137 191 192
f 137 192 193
f 137 193 194
f 137 194 195
f 137 195 196
f 137 196 139
f 138 139 197
f 138 197 140
f 139 196 197
f 140 197 198
f 141 142 199
f 142 200 201
f 142 201 199
f 142 143 202
f 142 202 200
f 143 144 203
f 143 203 204
f 143 204 202
f 144 152 203
f 146 205 148
f 146 148 147
f 148 206 149
f 148 205 207
f 148 207 208
f 148 208 206
f 149 206 209
f 149 209 210
f 149 210 150
f 150 210 151
f 151 203 152
f 151 210 203
f 154 211 155
f 154 157 212
f 154 212 211
f 155 211 213
f 155 213 158
f 158 214 215
f 158 215 216
f 158 216 160
f 158 160 159
f 158 213 214
f 160 216 215
f 160 215 217
f 160 217 218
f 160 218 219
f 160 219 220
f 160 220 221
f 160 221 222
f 160 222 223
f 160 223 224
f 160 224 225
f 160 225 161
f 161 225 162
f 162 226 163
f 162 225 224
f 162 224 227
f 162 227 228
f 162 228 226
f 163 226 229
f 163 229 230
f 163 230 231
f 163 231 164
f 166 171 167
f 167 171 232
f 167 232 233
f 167 233 234
f 167 234 192
f 167 192 191
f 167 191 172
f 167 172 168
f 169 170 235
f 169 235 171
f 170 176 236
f 170 236 235
f 171 237 232
f 171 235 238
f 171 238 237
f 172 190 239
f 172 239 173
f 173 239 240
f 173 240 241
f 173 241 242
f 173 242 174
f 175 186 188
f 175 188 243
f 175 243 177
f 176 177 244
f 176 244 236
f 177 243 220
f 177 220 245
f 177 245 246
f 177 246 244
f 178 182 183
f 182 247 248
f 182 248 249
f 182 249 183
f 183 249 184
f 184 249 187
f 185 188 186
f 187 222 188
f 187 249 248
f 187 248 227
f 187 227 224
f 187 224 223
f 187 223 222
f 188 222 221
f 188 221 243
f 189 241 240
f 189 240 239
f 189 239 190
f 192 234 193
f 193 234 250
f 193 250 251
f 193 251 195
f 193 195 194
f 195 251 196
f 196 252 197
f 196 251 253
f 196 253 252
f 197 252 254
f 197 254 255
f 197 255 198
f 200 256 257
f 200 257 258
f 200 258 201
f 200 202 259
f 200 259 256
f 202 204 260
f 202 260 259
f 203 261 262
f 203 262 204
f 203 210 209
f 203 209 263
f 203 263 264
f 203 264 265
f 203 265 261
f 204 262 261
f 204 261 260
f 205 266 207
f 206 208 267
f 206 267 268
f 206 268 269
f 206 269 209
f 207 266 270
f 207 270 208
f 208 270 271
f 208 271 267
f 209 269 272
f 209 272 263
f 211 212 273
f 211 273 274
f 211 274 275
f 211 275 213
f 213 275 276
f 213 276 214
f 214 277 215
f 214 276 277
f 215 277 278
f 215 278 279
f 215 279 280
f 215 280 217
f 217 280 281
f 217 281 218
f 218 281 279
f 218 279 245
f 218 245 220
f 218 220 219
f 220 243 221
f 226 228 248
f 226 248 282
f 226 282 229
f 227 248 228
f 232 283 233
f 232 237 283
f 233 283 284
f 233 284 234
f 234 284 250
f 235 236 285
f 235 285 286
f 235 286 238
f 236 244 287
f 236 287 285
f 237 238 288
f 237 288 289
f 237 289 283
f 238 286 288
f 244 246 290
f 244 290 287
f 245 279 246
f 246 279 290
f 247 291 248
f 248 292 282
f 248 291 293
f 248 293 292
f 250 284 251
f 251 284 294
f 251 294 295
f 251 295 253
f 252 253 296
f 252 296 297
f 252 297 254
f 253 295 298
f 253 298 296
f 256 259 275
f 256 275 274
f 256 274 299
f 256 299 300
f 256 300 301
f 256 301 257
f 259 260 302
f 259 302 277
f 259 277 276
f 259 276 275
f 260 303 277
f 260 277 302
f 260 261 278
f 260 278 303
f 261 265 264
f 261 264 278
f 263 304 264
f 263 272 304
f 264 305 278
f 264 304 306
f 264 306 305
f 266 307 270
f 267 271 268
f 268 271 269
f 269 271 308
f 269 308 309
f 269 309 272
f 270 307 310
f 270 310 311
f 270 311 312
f 270 312 271
f 271 312 313
f 271 313 314
f 271 314 308
f 272 309 308
f 272 308 315
f 272 315 304
f 273 299 274
f 277 303 278
f 278 305 279
f 279 281 280
f 279 305 316
f 279 316 290
f 283 289 294
f 283 294 284
f 285 317 286
f 285 287 318
f 285 318 317
f 286 317 319
f 286 319 288
f 287 290 318
f 288 320 294
f 288 294 289
f 288 319 320
f 290 315 318
f 290 316 321
f 290 321 306
f 290 306 315
f 294 320 322
f 294 322 295
f 295 322 298
f 296 298 323
f 296 323 324
f 296 324 325
f 296 325 297
f 298 322 323
f 304 315 306
f 305 306 321
f 305 321 316
f 308 314 326
f 308 326 317
f 308 317 318
f 308 318 315
f 311 327 312
f 312 327 328
f 312 328 313
f 313 328 329
f 313 329 330
f 313 330 314
f 314 330 331
f 314 331 332
f 314 332 326
f 317 326 319
f 319 326 332
f 319 332 333
f 319 333 320
f 320 333 334
f 320 334 335
f 320 335 322
f 322 335 323
f 323 335 336
f 323 336 324
f 324 337 325
f 324 336 337
f 329 338 339
f 329 339 330
f 330 339 331
f 331 339 340
f 331 340 332
f 332 340 334
f 332 334 333
f 334 340 341
f 334 341 342
f 334 342 335
f 335 342 336
f 336 342 343
f 336 343 344
f 336 344 345
f 336 345 337
f 338 346 339
f 339 346 341
f 339 341 340
f 341 346 343
f 341 343 342

