# https://github.com/mikedh/trimesh
v 0.01236176 0.04310340 -0.10376403
v 0.01236176 0.04288998 -0.10144197
v 0.01468566 0.04308314 -0.10376403
v 0.01468566 0.04301020 -0.10608862
v 0.01003786 0.04309124 -0.10376403
v 0.01003786 0.04289403 -0.10144197
v 0.01003786 0.04255634 -0.09911737
v 0.01236176 0.04253878 -0.09911737
v 0.01468566 0.04285081 -0.10144197
v 0.01700956 0.04302371 -0.10376403
v 0.01700956 0.04298318 -0.10608862
v 0.01468566 0.04249556 -0.10833017
v 0.01236176 0.04297913 -0.10608862
v 0.00786745 0.04305342 -0.10391994
v 0.01700956 0.04249690 -0.10836340
v 0.00786745 0.04306288 -0.10376403
v 0.00786745 0.04289538 -0.10159661
v 0.00786745 0.04288188 -0.10144197
v 0.00786745 0.04257390 -0.09927328
v 0.00786745 0.04255094 -0.09911737
v 0.00786745 0.04224296 -0.09738573
v 0.01003786 0.04224431 -0.09737550
v 0.01468566 0.04248610 -0.09911737
v 0.01236176 0.04223215 -0.09744964
v 0.01700956 0.04278057 -0.10144197
v 0.01933346 0.04293320 -0.10376403
v 0.01933346 0.04292240 -0.10608862
v 0.01933346 0.04247394 -0.10833272
v 0.01700956 0.04227943 -0.10901899
v 0.01602431 0.04227403 -0.10901899
v 0.01468566 0.04226052 -0.10901899
v 0.01236176 0.04246043 -0.10823177
v 0.00786745 0.04287918 -0.10608862
v 0.01003786 0.04293185 -0.10608862
v 0.01835535 0.04226727 -0.10901899
v 0.00786745 0.04200657 -0.09622280
v 0.01003786 0.04200927 -0.09621385
v 0.01468566 0.04220378 -0.09760554
v 0.01700956 0.04216867 -0.09777167
v 0.01700956 0.04241180 -0.09911737
v 0.01236176 0.04198766 -0.09628669
v 0.01933346 0.04267520 -0.10144197
v 0.02165736 0.04280083 -0.10376403
v 0.02165736 0.04282109 -0.10608862
v 0.02165736 0.04242801 -0.10822666
v 0.01933346 0.04225241 -0.10901899
v 0.02084346 0.04221054 -0.10901899
v 0.01236176 0.04219163 -0.10901899
v 0.00786745 0.04239019 -0.10797745
v 0.00786745 0.04284540 -0.10622282
v 0.00786745 0.04194579 -0.09596337
v 0.01003786 0.04195119 -0.09596337
v 0.01236176 0.04191472 -0.09596337
v 0.01468566 0.04184043 -0.09596337
v 0.01630989 0.04178370 -0.09596337
v 0.01835892 0.04214300 -0.09788797
v 0.01921209 0.04228888 -0.09903558
v 0.02165736 0.04250771 -0.10144197
v 0.02398126 0.04262117 -0.10376403
v 0.02398126 0.04265900 -0.10608862
v 0.02978922 0.04212679 -0.10724773
v 0.02823996 0.04218893 -0.10747521
v 0.02630159 0.04226457 -0.10774869
v 0.02398126 0.04235237 -0.10802985
v 0.02165736 0.04218217 -0.10901899
v 0.02398126 0.04206331 -0.10901899
v 0.02356717 0.04208627 -0.10901899
v 0.01168351 0.04216732 -0.10901899
v 0.00786745 0.04236318 -0.10805541
v 0.00786745 0.03590648 -0.09596337
v 0.01700956 0.04175533 -0.09596337
v 0.01831965 0.04168104 -0.09596337
v 0.01926206 0.04162295 -0.09596337
v 0.01921209 0.04186474 -0.09698445
v 0.02165736 0.04160539 -0.09679276
v 0.01990819 0.04207681 -0.09820490
v 0.02165736 0.04222540 -0.09978063
v 0.02390272 0.04229294 -0.10138574
v 0.02630159 0.04219973 -0.10221514
v 0.02752958 0.04213490 -0.10256530
v 0.02630159 0.04240235 -0.10376403
v 0.03001055 0.04214975 -0.10475700
v 0.02630159 0.04246719 -0.10608862
v 0.02886109 0.04189446 -0.10831483
v 0.02630159 0.04193363 -0.10891036
v 0.02886109 0.04223621 -0.10631994
v 0.03001055 0.04214975 -0.10569885
v 0.03085301 0.04204980 -0.10631994
v 0.03327686 0.04178370 -0.10608862
v 0.03560076 0.04148382 -0.10608862
v 0.03560076 0.04113803 -0.10841323
v 0.03327686 0.04143249 -0.10841323
v 0.03095296 0.04167428 -0.10841323
v 0.02541629 0.04196335 -0.10901899
v 0.00959521 0.04208492 -0.10901899
v 0.00786745 0.04200522 -0.10901899
v 0.00786745 0.03314010 -0.10901899
v 0.04433591 0.03069790 -0.09596337
v 0.02082918 0.04148518 -0.09596337
v 0.02165736 0.04141088 -0.09596337
v 0.02315308 0.04124879 -0.09596337
v 0.02398126 0.04135145 -0.09679276
v 0.02165736 0.04199712 -0.09861897
v 0.02307454 0.04215381 -0.10013846
v 0.02462381 0.04207141 -0.10057424
v 0.02630159 0.04197551 -0.10105348
v 0.02843272 0.04184718 -0.10165156
v 0.03095296 0.04149868 -0.10144197
v 0.03327686 0.04162295 -0.10376403
v 0.03085301 0.04193768 -0.10389565
v 0.03560076 0.04130822 -0.10376403
v 0.02644081 0.04188230 -0.10901899
v 0.03792466 0.04094892 -0.10376403
v 0.03792466 0.04112182 -0.10608862
v 0.03792466 0.04076386 -0.10841323
v 0.03792466 0.04055449 -0.10901899
v 0.03634683 0.04080844 -0.10901899
v 0.03560076 0.04091785 -0.10901899
v 0.03327686 0.04121502 -0.10901899
v 0.03155624 0.04139467 -0.10901899
v 0.03095296 0.04145681 -0.10901899
v 0.04433591 0.02930525 -0.10901899
v 0.04433591 0.03743286 -0.09596337
v 0.02398126 0.04115558 -0.09596337
v 0.02390272 0.04189041 -0.09926561
v 0.02547698 0.04097458 -0.09596337
v 0.02630159 0.04106914 -0.09679276
v 0.02630159 0.04158378 -0.09911737
v 0.02862906 0.04130012 -0.09911737
v 0.03327686 0.04119341 -0.10144197
v 0.03560076 0.04086652 -0.10144197
v 0.03792466 0.04049506 -0.10144197
v 0.04024856 0.04050722 -0.10376403
v 0.04024856 0.04067471 -0.10608862
v 0.04386114 0.03983858 -0.10737681
v 0.04257246 0.03998176 -0.10786755
v 0.04040920 0.04022355 -0.10859726
v 0.04082329 0.04001418 -0.10901899
v 0.03866716 0.04042752 -0.10901899
v 0.04433591 0.03912673 -0.10901899
v 0.04433591 0.03768545 -0.09674037
v 0.04397894 0.03756388 -0.09596337
v 0.02630159 0.04087192 -0.09596337
v 0.02862906 0.04076521 -0.09679276
v 0.03095296 0.04099485 -0.09911737
v 0.03327686 0.04067336 -0.09911737
v 0.03560076 0.04032756 -0.09911737
v 0.03774974 0.03998312 -0.09917871
v 0.03944894 0.03987776 -0.09999405
v 0.04023428 0.04005200 -0.10143814
v 0.04175856 0.03988991 -0.10221130
v 0.04255104 0.04000878 -0.10388032
v 0.04385043 0.03983858 -0.10473271
v 0.04257246 0.04017358 -0.10608862
v 0.04391825 0.03985614 -0.10608862
v 0.04433591 0.03973322 -0.10608862
v 0.04433591 0.03971161 -0.10687713
v 0.04433591 0.03955357 -0.10784966
v 0.04433591 0.03937121 -0.10840174
v 0.04257246 0.03964002 -0.10901899
v 0.04251891 0.03965218 -0.10901899
v 0.04260102 0.03963191 -0.10901899
v 0.04433591 0.03832977 -0.09895890
v 0.04257246 0.03824602 -0.09679276
v 0.04249749 0.03801639 -0.09596337
v 0.02779731 0.04067471 -0.09596337
v 0.02867547 0.04055449 -0.09596337
v 0.03095296 0.04043832 -0.09679276
v 0.03328043 0.04007902 -0.09669053
v 0.03560076 0.03992638 -0.09748413
v 0.03685731 0.03982102 -0.09788413
v 0.03840658 0.03967514 -0.09844516
v 0.04023428 0.03949819 -0.09917871
v 0.04099821 0.03971701 -0.10066242
v 0.04255104 0.03951440 -0.10143814
v 0.04330783 0.03969675 -0.10318255
v 0.04433591 0.03949008 -0.10368479
v 0.04433591 0.03960355 -0.10426626
v 0.04433591 0.03885522 -0.10087840
v 0.04257246 0.03891870 -0.09911737
v 0.04174428 0.03822171 -0.09596337
v 0.03022830 0.04033567 -0.09596337
v 0.03416929 0.03975889 -0.09596337
v 0.03231303 0.04003580 -0.09596337
v 0.03284849 0.03995745 -0.09596337
v 0.03560076 0.03962516 -0.09632119
v 0.03560076 0.03952926 -0.09596337
v 0.03687873 0.03929962 -0.09596337
v 0.03782114 0.03912673 -0.09596337
v 0.03774974 0.03941444 -0.09698317
v 0.03942038 0.03879309 -0.09596337
v 0.04024856 0.03884306 -0.09679276
v 0.04433591 0.03899840 -0.10144070
v 0.04024856 0.03860533 -0.09596337
v 0.03512955 0.03960490 -0.09596337
f 1 2 3
f 1 3 4
f 1 4 5
f 1 5 6
f 1 6 2
f 2 6 7
f 2 7 8
f 2 8 9
f 2 9 3
f 3 9 10
f 3 10 11
f 3 11 4
f 4 12 13
f 4 13 14
f 4 14 5
f 4 11 15
f 4 15 12
f 5 14 16
f 5 16 17
f 5 17 6
f 6 17 18
f 6 18 19
f 6 19 7
f 7 19 20
f 7 20 21
f 7 21 22
f 7 22 8
f 8 23 9
f 8 22 24
f 8 24 23
f 9 23 25
f 9 25 10
f 10 25 26
f 10 26 27
f 10 27 11
f 11 27 28
f 11 28 15
f 12 15 29
f 12 29 30
f 12 30 31
f 12 31 32
f 12 32 33
f 12 33 34
f 12 34 13
f 13 34 14
f 14 33 50
f 14 50 49
f 14 49 69
f 14 69 96
f 14 96 97
f 14 97 70
f 14 70 51
f 14 51 36
f 14 36 21
f 14 21 20
f 14 20 19
f 14 19 18
f 14 18 17
f 14 17 16
f 14 34 33
f 15 28 35
f 15 35 29
f 21 36 37
f 21 37 22
f 22 37 24
f 23 24 38
f 23 38 39
f 23 39 40
f 23 40 25
f 24 37 41
f 24 41 38
f 25 40 42
f 25 42 26
f 26 42 43
f 26 43 44
f 26 44 27
f 27 44 45
f 27 45 28
f 28 46 35
f 28 45 47
f 28 47 46
f 29 35 46
f 29 46 47
f 29 47 65
f 29 65 67
f 29 67 66
f 29 66 94
f 29 94 112
f 29 112 121
f 29 121 120
f 29 120 119
f 29 119 118
f 29 118 117
f 29 117 116
f 29 116 139
f 29 139 138
f 29 138 161
f 29 161 160
f 29 160 162
f 29 162 140
f 29 140 122
f 29 122 97
f 29 97 96
f 29 96 95
f 29 95 68
f 29 68 48
f 29 48 31
f 29 31 30
f 31 48 32
f 32 48 49
f 32 49 50
f 32 50 33
f 36 51 52
f 36 52 37
f 37 52 53
f 37 53 41
f 38 41 39
f 39 41 54
f 39 54 55
f 39 55 56
f 39 56 40
f 40 56 57
f 40 57 42
f 41 53 54
f 42 57 58
f 42 58 43
f 43 58 59
f 43 59 60
f 43 60 44
f 44 60 61
f 44 61 62
f 44 62 63
f 44 63 64
f 44 64 45
f 45 65 47
f 45 64 66
f 45 66 67
f 45 67 65
f 48 68 49
f 49 68 69
f 51 70 98
f 51 98 123
f 51 123 142
f 51 142 165
f 51 165 181
f 51 181 194
f 51 194 191
f 51 191 189
f 51 189 188
f 51 188 187
f 51 187 195
f 51 195 183
f 51 183 185
f 51 185 184
f 51 184 182
f 51 182 167
f 51 167 166
f 51 166 143
f 51 143 126
f 51 126 124
f 51 124 101
f 51 101 100
f 51 100 99
f 51 99 73
f 51 73 72
f 51 72 71
f 51 71 55
f 51 55 54
f 51 54 53
f 51 53 52
f 55 71 56
f 56 72 73
f 56 73 74
f 56 74 75
f 56 75 76
f 56 76 57
f 56 71 72
f 57 76 77
f 57 77 58
f 58 78 79
f 58 79 59
f 58 77 78
f 59 79 80
f 59 80 81
f 59 81 82
f 59 82 60
f 60 82 83
f 60 83 61
f 61 84 85
f 61 85 62
f 61 83 86
f 61 86 87
f 61 87 88
f 61 88 89
f 61 89 90
f 61 90 91
f 61 91 92
f 61 92 93
f 61 93 84
f 62 85 63
f 63 85 64
f 64 85 66
f 66 85 94
f 68 95 69
f 69 95 96
f 70 97 98
f 73 99 75
f 73 75 74
f 75 100 101
f 75 101 102
f 75 102 103
f 75 103 76
f 75 99 100
f 76 103 77
f 77 103 104
f 77 104 78
f 78 104 79
f 79 104 105
f 79 105 80
f 80 105 106
f 80 106 107
f 80 107 108
f 80 108 109
f 80 109 110
f 80 110 82
f 80 82 81
f 82 110 109
f 82 109 111
f 82 111 90
f 82 90 89
f 82 89 87
f 82 87 83
f 83 87 86
f 84 93 85
f 85 93 112
f 85 112 94
f 87 89 88
f 90 111 113
f 90 113 114
f 90 114 91
f 91 114 115
f 91 115 116
f 91 116 117
f 91 117 118
f 91 118 119
f 91 119 92
f 92 119 120
f 92 120 93
f 93 120 121
f 93 121 112
f 97 122 98
f 98 122 140
f 98 140 159
f 98 159 158
f 98 158 157
f 98 157 156
f 98 156 178
f 98 178 177
f 98 177 193
f 98 193 179
f 98 179 163
f 98 163 141
f 98 141 123
f 101 124 102
f 102 125 103
f 102 124 126
f 102 126 127
f 102 127 128
f 102 128 125
f 103 125 104
f 104 125 105
f 105 125 106
f 106 128 107
f 106 125 128
f 107 128 108
f 108 128 129
f 108 129 145
f 108 145 130
f 108 130 109
f 109 130 111
f 111 130 131
f 111 131 113
f 113 132 133
f 113 133 114
f 113 131 132
f 114 133 134
f 114 134 135
f 114 135 115
f 115 135 136
f 115 136 137
f 115 137 138
f 115 138 139
f 115 139 116
f 123 141 142
f 126 143 127
f 127 143 144
f 127 144 129
f 127 129 128
f 129 144 145
f 130 145 146
f 130 146 131
f 131 146 147
f 131 147 132
f 132 147 148
f 132 148 149
f 132 149 150
f 132 150 133
f 133 150 151
f 133 151 152
f 133 152 153
f 133 153 134
f 134 153 154
f 134 154 135
f 135 155 156
f 135 156 157
f 135 157 158
f 135 158 159
f 135 159 160
f 135 160 161
f 135 161 136
f 135 154 155
f 136 161 138
f 136 138 137
f 140 162 159
f 141 163 164
f 141 164 142
f 142 164 165
f 143 166 144
f 144 166 167
f 144 167 168
f 144 168 146
f 144 146 145
f 146 169 147
f 146 168 169
f 147 169 170
f 147 170 171
f 147 171 148
f 148 171 149
f 149 172 173
f 149 173 174
f 149 174 150
f 149 171 172
f 150 174 151
f 151 174 175
f 151 175 176
f 151 176 152
f 152 176 153
f 153 155 154
f 153 176 177
f 153 177 178
f 153 178 156
f 153 156 155
f 159 162 160
f 163 179 180
f 163 180 164
f 164 180 181
f 164 181 165
f 167 182 168
f 168 182 169
f 169 183 170
f 169 182 184
f 169 184 185
f 169 185 183
f 170 186 171
f 170 183 186
f 171 186 187
f 171 187 188
f 171 188 189
f 171 189 190
f 171 190 172
f 172 190 189
f 172 189 173
f 173 189 191
f 173 191 192
f 173 192 180
f 173 180 174
f 174 180 175
f 175 180 193
f 175 193 176
f 176 193 177
f 179 193 180
f 180 192 194
f 180 194 181
f 183 195 186
f 186 195 187
f 191 194 192

