# https://github.com/mikedh/trimesh
v 0.00413455 -0.03340678 0.11656177
v 0.00306270 -0.03340678 0.11655730
v 0.00073735 -0.03538137 0.11619393
v 0.00413455 -0.03444908 0.11636888
v 0.00413455 -0.03247585 0.11641373
v -0.02237863 -0.02936270 0.11607730
v -0.02237863 -0.03108428 0.11630160
v 0.00073735 -0.03340678 0.11653038
v -0.00623352 -0.03531537 0.11615805
v -0.00391076 -0.03537450 0.11617150
v -0.00158541 -0.03538825 0.11618048
v -0.00391076 -0.03653643 0.11566011
v -0.00158541 -0.03655018 0.11566011
v 0.00306270 -0.03533875 0.11619842
v 0.00413455 -0.03530024 0.11619842
v 0.00413455 -0.03146243 0.11623431
v -0.02237863 -0.02819114 0.11539544
v -0.01552974 -0.03340678 0.11629711
v -0.01320438 -0.03340678 0.11635543
v -0.00855887 -0.03340678 0.11641823
v -0.02237863 -0.03284712 0.11609524
v -0.00855887 -0.03521637 0.11613113
v -0.00623352 -0.03647730 0.11562423
v -0.00623352 -0.03762962 0.11446238
v -0.00391076 -0.03764336 0.11449826
v -0.00158541 -0.03763099 0.11449826
v 0.00073735 -0.03654331 0.11563768
v 0.00413455 -0.03592728 0.11586197
v 0.00413455 -0.03092615 0.11586197
v 0.00413455 -0.03030049 0.11522947
v -0.02237863 -0.02717358 0.11424705
v -0.01552974 -0.03484097 0.11601002
v -0.01320438 -0.03499498 0.11606833
v -0.01087903 -0.03511323 0.11609973
v -0.02017785 -0.03434870 0.11576328
v -0.01898403 -0.03455771 0.11586197
v -0.01743466 -0.03469247 0.11593825
v -0.02237863 -0.03400768 0.11551657
v -0.00855887 -0.03637830 0.11555694
v -0.01087903 -0.03751411 0.11431434
v -0.00855887 -0.03758423 0.11439509
v -0.00623352 -0.03879155 0.11258278
v -0.00391076 -0.03880529 0.11265007
v 0.00073735 -0.03758974 0.11447583
v -0.00158541 -0.03879292 0.11263661
v 0.00306270 -0.03650068 0.11557937
v 0.00413455 -0.03646218 0.11552554
v 0.00413455 -0.03004885 0.11469565
v 0.00413455 -0.02975321 0.11406761
v -0.02237863 -0.02610241 0.10540534
v -0.01320438 -0.03615692 0.11535058
v -0.01087903 -0.03627517 0.11547619
v -0.02237863 -0.03521499 0.11441752
v -0.02017785 -0.03557663 0.11460143
v -0.01744504 -0.03706583 0.11377155
v -0.01552974 -0.03724459 0.11399584
v -0.01552974 -0.03600291 0.11515769
v -0.01320438 -0.03740273 0.11418874
v -0.01087903 -0.03859491 0.11238091
v -0.00865490 -0.03883142 0.11220596
v -0.00623352 -0.03929482 0.11142094
v -0.00391076 -0.03932232 0.11148822
v -0.00158541 -0.03931957 0.11147476
v 0.00306270 -0.03751961 0.11441752
v 0.00073735 -0.03875167 0.11256035
v 0.00073735 -0.03928794 0.11139402
v 0.00413455 -0.03701221 0.11490199
v 0.00413455 -0.02880717 0.10540534
v -0.02237863 -0.02630867 0.10308164
v -0.02237863 -0.03527962 0.11435471
v -0.01899441 -0.03688845 0.11352930
v -0.01552974 -0.03800226 0.11238091
v -0.01320438 -0.03834465 0.11238091
v -0.00794379 -0.03925219 0.11131327
v -0.00623352 -0.03944058 0.11005722
v -0.00391076 -0.03949971 0.11005722
v -0.00158541 -0.03948871 0.11005722
v 0.00413455 -0.03747423 0.11436369
v 0.00413455 -0.03818927 0.11311212
v 0.00246579 -0.03924944 0.11129981
v 0.00316911 -0.03878192 0.11219700
v 0.00413455 -0.02901343 0.10308164
v 0.00413455 -0.03388255 0.07073830
v -0.02237863 -0.03287600 0.07073830
v -0.02237863 -0.03643605 0.11230466
v -0.02017785 -0.03673857 0.11313006
v -0.02017785 -0.03714971 0.11196822
v -0.01807310 -0.03742060 0.11260521
v -0.01785250 -0.03803251 0.11005722
v -0.01552974 -0.03847941 0.11005722
v -0.01320438 -0.03883280 0.11005722
v -0.00949316 -0.03920132 0.11093646
v -0.00865490 -0.03930170 0.11012002
v -0.01552974 -0.03985448 0.08216837
v -0.01320438 -0.03997548 0.08216837
v -0.01087903 -0.04004974 0.08216837
v -0.00855887 -0.04008961 0.08216837
v -0.00623352 -0.04015011 0.07984467
v 0.00073735 -0.03941445 0.11005722
v -0.00391076 -0.04013361 0.07984467
v -0.00158541 -0.04007724 0.07984467
v 0.00413455 -0.03866779 0.11227325
v 0.00401516 -0.03920544 0.11079740
v 0.00413455 -0.03914632 0.11093197
v 0.00413455 -0.03958084 0.07073830
v -0.02237863 -0.03873242 0.07073830
v -0.02237863 -0.03645943 0.11224186
v -0.02159745 -0.03696683 0.11145233
v -0.02017785 -0.03748798 0.11005722
v -0.02237863 -0.03887267 0.08449207
v -0.02088895 -0.03915044 0.08449207
v -0.01079339 -0.03911744 0.11012002
v -0.01972627 -0.03932370 0.08449207
v -0.01785250 -0.03955333 0.08449207
v -0.00996031 -0.03924257 0.10938882
v -0.01785250 -0.03965784 0.08216837
v -0.01552974 -0.03988885 0.07984467
v -0.01320438 -0.04001398 0.07984467
v -0.01087903 -0.04009236 0.07984467
v -0.00855887 -0.04013361 0.07984467
v -0.00623352 -0.04014736 0.07752097
v -0.00391076 -0.04013774 0.07752097
v 0.00316911 -0.03928107 0.11003479
v 0.00073735 -0.03997961 0.07984467
v -0.00158541 -0.04009373 0.07752097
v 0.00073735 -0.04000160 0.07752097
v 0.00413455 -0.03919857 0.11072113
v 0.00413455 -0.03923707 0.10938882
v 0.00325216 -0.03966471 0.07073830
v 0.00413455 -0.03962071 0.07162201
v -0.02236825 -0.03873517 0.07073830
v -0.02237863 -0.03886443 0.07287358
v -0.02237863 -0.03688983 0.11005722
v -0.02185439 -0.03704246 0.11005722
v -0.02237863 -0.03898268 0.08234781
v -0.02121855 -0.03919857 0.08216837
v -0.02005847 -0.03937732 0.08216837
v -0.02040364 -0.03936632 0.08003308
v -0.01785250 -0.03969222 0.07984467
v -0.01552974 -0.03988198 0.07752097
v -0.01320438 -0.04000573 0.07752097
v -0.01087903 -0.04008686 0.07752097
v -0.00855887 -0.04012949 0.07752097
v -0.00623352 -0.04010061 0.07519729
v -0.00391076 -0.04010199 0.07519729
v -0.00158541 -0.04006623 0.07519729
v 0.00306270 -0.03986273 0.07752097
v 0.00306270 -0.03983935 0.07984467
v 0.00073735 -0.03997410 0.07519729
v 0.00413455 -0.03974859 0.07984467
v 0.00306270 -0.03968259 0.07073830
v 0.00413455 -0.03967297 0.07287358
v -0.02047630 -0.03908169 0.07073830
v -0.02087597 -0.03914494 0.07287358
v -0.02118481 -0.03919444 0.07519729
v -0.02237863 -0.03896618 0.07519729
v -0.02237863 -0.03899093 0.08216837
v -0.02133274 -0.03921644 0.08093026
v -0.02139503 -0.03922744 0.07938263
v -0.02139503 -0.03922744 0.07802788
v -0.02040104 -0.03935945 0.07735948
v -0.01785250 -0.03968259 0.07752097
v -0.01552974 -0.03983247 0.07519729
v -0.01320438 -0.03996035 0.07519729
v -0.01087903 -0.04003873 0.07519729
v -0.00855887 -0.04008136 0.07519729
v -0.00623352 -0.04002773 0.07287358
v -0.00391076 -0.04003186 0.07287358
v -0.00158541 -0.04000298 0.07287358
v 0.00073735 -0.03991773 0.07287358
v 0.00306270 -0.03983523 0.07519729
v 0.00413455 -0.03974172 0.07519729
v 0.00413455 -0.03976785 0.07752097
v 0.00413455 -0.03976097 0.07859311
v 0.00092940 -0.03982423 0.07073830
v 0.00306270 -0.03976922 0.07287358
v 0.00413455 -0.03970597 0.07394572
v -0.01931363 -0.03926457 0.07073830
v -0.01971330 -0.03932370 0.07287358
v -0.02002473 -0.03936357 0.07519729
v -0.02132495 -0.03921507 0.07648025
v -0.02237863 -0.03897030 0.07533186
v -0.02237863 -0.03902256 0.08083606
v -0.02230337 -0.03905419 0.08003308
v -0.02230337 -0.03904456 0.07735948
v -0.01785250 -0.03963034 0.07519729
v -0.01785250 -0.03954096 0.07287358
v -0.01552974 -0.03973484 0.07287358
v -0.01320438 -0.03986273 0.07287358
v -0.01087903 -0.03994660 0.07287358
v -0.00855887 -0.04000023 0.07287358
v -0.00623352 -0.03992323 0.07073830
v -0.00391076 -0.03993148 0.07073830
v -0.00158541 -0.03991223 0.07073830
v 0.00073735 -0.03983660 0.07073830
v -0.01916051 -0.03928244 0.07073830
v -0.02237863 -0.03900605 0.07654753
v -0.02237863 -0.03903906 0.08002860
v -0.02237863 -0.03902806 0.07736398
v -0.02237863 -0.03902668 0.07729668
v -0.01785250 -0.03942133 0.07073830
v -0.01766045 -0.03943783 0.07073830
v -0.01552974 -0.03961796 0.07073830
v -0.01320438 -0.03974722 0.07073830
v -0.01301234 -0.03975409 0.07073830
v -0.01087903 -0.03982972 0.07073830
v -0.01068958 -0.03983523 0.07073830
v -0.00855887 -0.03989023 0.07073830
v -0.00836682 -0.03989298 0.07073830
f 1 2 3
f 1 3 4
f 1 4 15
f 1 15 28
f 1 28 47
f 1 47 67
f 1 67 78
f 1 78 79
f 1 79 102
f 1 102 104
f 1 104 127
f 1 127 128
f 1 128 150
f 1 150 174
f 1 174 173
f 1 173 172
f 1 172 177
f 1 177 152
f 1 152 130
f 1 130 105
f 1 105 83
f 1 83 82
f 1 82 68
f 1 68 49
f 1 49 48
f 1 48 30
f 1 30 29
f 1 29 16
f 1 16 5
f 1 5 6
f 1 6 7
f 1 7 2
f 2 7 8
f 2 8 9
f 2 9 10
f 2 10 3
f 3 10 11
f 3 11 12
f 3 12 13
f 3 13 14
f 3 14 4
f 4 14 15
f 5 16 6
f 6 16 17
f 6 17 31
f 6 31 50
f 6 50 69
f 6 69 84
f 6 84 106
f 6 106 132
f 6 132 156
f 6 156 182
f 6 182 197
f 6 197 200
f 6 200 199
f 6 199 198
f 6 198 183
f 6 183 157
f 6 157 135
f 6 135 110
f 6 110 133
f 6 133 107
f 6 107 85
f 6 85 70
f 6 70 53
f 6 53 38
f 6 38 21
f 6 21 7
f 7 18 19
f 7 19 20
f 7 20 8
f 7 21 18
f 8 20 9
f 9 20 19
f 9 19 22
f 9 22 23
f 9 23 12
f 9 12 10
f 10 12 11
f 12 23 24
f 12 24 25
f 12 25 13
f 13 25 26
f 13 26 27
f 13 27 14
f 14 27 15
f 15 27 28
f 16 29 17
f 17 29 30
f 17 30 31
f 18 21 32
f 18 32 33
f 18 33 19
f 19 33 34
f 19 34 22
f 21 35 36
f 21 36 37
f 21 37 32
f 21 38 35
f 22 34 23
f 23 39 40
f 23 40 41
f 23 41 24
f 23 34 33
f 23 33 39
f 24 41 42
f 24 42 43
f 24 43 25
f 25 43 26
f 26 44 27
f 26 43 45
f 26 45 44
f 27 44 46
f 27 46 28
f 28 46 47
f 30 48 31
f 31 48 49
f 31 49 50
f 32 37 51
f 32 51 52
f 32 52 33
f 33 52 39
f 35 38 53
f 35 53 36
f 36 53 54
f 36 54 55
f 36 55 56
f 36 56 57
f 36 57 51
f 36 51 37
f 39 52 40
f 40 52 58
f 40 58 59
f 40 59 42
f 40 42 41
f 42 59 60
f 42 60 61
f 42 61 62
f 42 62 43
f 43 62 63
f 43 63 45
f 44 64 46
f 44 45 65
f 44 65 64
f 45 63 66
f 45 66 65
f 46 64 67
f 46 67 47
f 49 68 50
f 50 68 82
f 50 82 69
f 51 57 58
f 51 58 52
f 53 70 54
f 54 70 55
f 55 70 71
f 55 71 72
f 55 72 56
f 56 58 57
f 56 72 73
f 56 73 58
f 58 73 59
f 59 73 74
f 59 74 60
f 60 74 61
f 61 74 75
f 61 75 76
f 61 76 62
f 62 76 63
f 63 76 77
f 63 77 66
f 64 65 78
f 64 78 67
f 65 79 78
f 65 66 80
f 65 80 81
f 65 81 79
f 66 77 80
f 69 82 83
f 69 83 84
f 70 85 86
f 70 86 71
f 71 86 87
f 71 87 88
f 71 88 72
f 72 88 87
f 72 87 89
f 72 89 90
f 72 90 91
f 72 91 92
f 72 92 73
f 73 92 74
f 74 92 75
f 75 92 93
f 75 93 94
f 75 94 95
f 75 95 96
f 75 96 76
f 76 96 97
f 76 97 98
f 76 98 77
f 77 99 80
f 77 98 100
f 77 100 101
f 77 101 99
f 79 81 102
f 80 99 103
f 80 103 104
f 80 104 102
f 80 102 81
f 83 105 129
f 83 129 151
f 83 151 175
f 83 175 195
f 83 195 194
f 83 194 193
f 83 193 192
f 83 192 209
f 83 209 208
f 83 208 207
f 83 207 206
f 83 206 205
f 83 205 204
f 83 204 203
f 83 203 202
f 83 202 201
f 83 201 196
f 83 196 178
f 83 178 153
f 83 153 131
f 83 131 106
f 83 106 84
f 85 107 86
f 86 107 108
f 86 108 87
f 87 108 89
f 89 108 109
f 89 109 110
f 89 110 90
f 90 110 111
f 90 111 91
f 91 112 92
f 91 111 113
f 91 113 114
f 91 114 112
f 92 112 115
f 92 115 93
f 93 115 94
f 94 116 139
f 94 139 117
f 94 117 118
f 94 118 95
f 94 115 116
f 95 118 119
f 95 119 96
f 96 119 120
f 96 120 97
f 97 120 98
f 98 120 121
f 98 121 122
f 98 122 100
f 99 123 103
f 99 101 124
f 99 124 123
f 100 122 125
f 100 125 101
f 101 125 126
f 101 126 124
f 103 127 104
f 103 123 128
f 103 128 127
f 105 130 129
f 106 131 132
f 107 133 108
f 108 133 134
f 108 134 109
f 109 134 110
f 110 135 111
f 110 134 133
f 111 135 136
f 111 136 137
f 111 137 113
f 112 114 115
f 113 137 116
f 113 116 114
f 114 116 115
f 116 137 138
f 116 138 139
f 117 139 140
f 117 140 118
f 118 140 141
f 118 141 142
f 118 142 119
f 119 142 143
f 119 143 120
f 120 143 121
f 121 143 144
f 121 144 145
f 121 145 122
f 122 145 146
f 122 146 125
f 123 124 128
f 124 126 147
f 124 147 148
f 124 148 128
f 125 146 149
f 125 149 126
f 126 149 171
f 126 171 147
f 128 148 150
f 129 130 151
f 130 152 151
f 131 153 154
f 131 154 132
f 132 154 155
f 132 155 156
f 135 157 136
f 136 157 158
f 136 158 137
f 137 158 138
f 138 158 159
f 138 159 160
f 138 160 161
f 138 161 139
f 139 161 162
f 139 162 140
f 140 162 163
f 140 163 164
f 140 164 141
f 141 164 142
f 142 164 165
f 142 165 166
f 142 166 143
f 143 166 144
f 144 166 167
f 144 167 168
f 144 168 145
f 145 168 169
f 145 169 146
f 146 169 170
f 146 170 149
f 147 171 172
f 147 172 173
f 147 173 174
f 147 174 150
f 147 150 148
f 149 170 171
f 151 152 176
f 151 176 175
f 152 177 176
f 153 178 154
f 154 179 155
f 154 178 179
f 155 180 181
f 155 181 156
f 155 179 180
f 156 181 182
f 157 183 158
f 158 183 184
f 158 184 159
f 159 184 160
f 160 184 185
f 160 185 181
f 160 181 161
f 161 181 180
f 161 180 162
f 162 180 186
f 162 186 163
f 163 186 187
f 163 187 188
f 163 188 189
f 163 189 164
f 164 189 190
f 164 190 165
f 165 190 191
f 165 191 166
f 166 191 167
f 167 191 192
f 167 192 193
f 167 193 168
f 168 193 194
f 168 194 169
f 169 194 195
f 169 195 170
f 170 176 171
f 170 195 176
f 171 176 172
f 172 176 177
f 175 176 195
f 178 196 187
f 178 187 179
f 179 187 186
f 179 186 180
f 181 185 197
f 181 197 182
f 183 198 184
f 184 198 185
f 185 199 200
f 185 200 197
f 185 198 199
f 187 196 201
f 187 201 202
f 187 202 203
f 187 203 188
f 188 203 204
f 188 204 189
f 189 204 190
f 190 204 205
f 190 205 206
f 190 206 207
f 190 207 208
f 190 208 191
f 191 208 209
f 191 209 192

