# https://github.com/mikedh/trimesh
v 0.05537478 0.01877393 -0.09596337
v 0.04940266 0.01877393 -0.09596337
v 0.05536902 0.01883089 -0.09596337
v 0.04840875 0.01877393 -0.06556068
v 0.02594633 0.03065018 -0.07649684
v 0.04439853 0.03065018 -0.09596337
v 0.02594633 0.01877393 -0.03557540
v 0.05523938 0.01999108 -0.09596337
v 0.05500891 0.02178135 -0.09596337
v 0.05492536 0.02237307 -0.09596337
v 0.05473234 0.02363440 -0.09596337
v 0.05457965 0.02458650 -0.09596337
v 0.05428292 0.02619077 -0.09596337
v 0.05410430 0.02706963 -0.09596337
v 0.05372690 0.02862275 -0.09596337
v 0.05353964 0.02934467 -0.09596337
v 0.04806016 0.01877393 -0.06424773
v 0.02594633 0.03065018 -0.05491290
v 0.05313920 0.03065018 -0.09596337
v 0.02594633 0.01877393 -0.01843119
v 0.04742060 0.01877393 -0.06197095
v 0.05309886 0.03065018 -0.09581917
v 0.02594633 0.03064669 -0.05355442
v 0.02639863 0.03065018 -0.05397183
v 0.02977505 0.01877393 -0.02406244
v 0.03017262 0.02004921 -0.02532985
v 0.02991334 0.02148142 -0.02574726
v 0.03221807 0.02375181 -0.03039191
v 0.03014381 0.02411103 -0.02776602
v 0.02962525 0.02565950 -0.02842628
v 0.02797737 0.02419822 -0.02535262
v 0.02735798 0.02574669 -0.02602048
v 0.02594633 0.02440863 -0.02337941
v 0.04629993 0.02226263 -0.06209238
v 0.04612995 0.02141400 -0.06056692
v 0.04659378 0.01877393 -0.05965621
v 0.05081430 0.03065018 -0.09033971
v 0.04144272 0.02820774 -0.05835085
v 0.04206788 0.02709288 -0.05745531
v 0.04177979 0.02634887 -0.05495844
v 0.04390302 0.02610010 -0.06027094
v 0.04363509 0.02569089 -0.05872272
v 0.04437837 0.02482830 -0.05954237
v 0.04535787 0.02450745 -0.06209238
v 0.04609250 0.02360650 -0.06298032
v 0.02594633 0.02652093 -0.02638477
v 0.02863134 0.02716961 -0.03172004
v 0.03095623 0.02760207 -0.03636468
v 0.02686246 0.03065018 -0.05438924
v 0.03087845 0.01877393 -0.02589905
v 0.03196454 0.02058977 -0.02849459
v 0.03240532 0.02237307 -0.03005039
v 0.03460057 0.02401222 -0.03489235
v 0.03388035 0.02474925 -0.03408789
v 0.03430960 0.02556069 -0.03543120
v 0.03262715 0.02459464 -0.03176557
v 0.03177441 0.02530028 -0.03102182
v 0.03232178 0.02605592 -0.03257003
v 0.03022448 0.02620123 -0.02997450
v 0.02807532 0.02623262 -0.02757628
v 0.02594633 0.02628028 -0.02560307
v 0.02594633 0.02597803 -0.02512494
v 0.02594633 0.02526657 -0.02422182
v 0.02594633 0.02497478 -0.02391824
v 0.04585627 0.02296363 -0.06143210
v 0.04554513 0.02226263 -0.05971693
v 0.04585051 0.02044330 -0.05901871
v 0.04606082 0.01889483 -0.05843433
v 0.04607810 0.01877393 -0.05840398
v 0.04850382 0.03065018 -0.08519417
v 0.03917545 0.02822866 -0.05359237
v 0.03560313 0.02751255 -0.04333924
v 0.03509609 0.02648954 -0.03869459
v 0.03724524 0.02641049 -0.04333924
v 0.03936559 0.02621518 -0.04838612
v 0.03908614 0.02584202 -0.04683790
v 0.04151186 0.02600361 -0.05353165
v 0.04406435 0.02414358 -0.05768299
v 0.02647354 0.02654069 -0.02690842
v 0.03095623 0.02723122 -0.03404236
v 0.03094758 0.03065018 -0.05882898
v 0.02869472 0.03065018 -0.05628657
v 0.02790823 0.03065018 -0.05544415
v 0.03327824 0.02750906 -0.03869459
v 0.04005701 0.03065018 -0.06914282
v 0.03204809 0.01877393 -0.02788744
v 0.03215180 0.01904014 -0.02816066
v 0.03331281 0.02237307 -0.03172004
v 0.03474462 0.02237307 -0.03456602
v 0.03685056 0.02383086 -0.03965843
v 0.03500966 0.02474925 -0.03627361
v 0.03418572 0.02237307 -0.03340486
v 0.03659704 0.02537934 -0.04022004
v 0.03693410 0.02607452 -0.04176825
v 0.03470716 0.02614776 -0.03698700
v 0.03275391 0.02637910 -0.03404236
v 0.03098216 0.02651046 -0.03176557
v 0.02876386 0.02657324 -0.02927628
v 0.04372440 0.02350420 -0.05614237
v 0.04440141 0.02258698 -0.05706826
v 0.03557720 0.02237307 -0.03636468
v 0.03500966 0.01877393 -0.03399682
v 0.04621350 0.03065018 -0.08051158
v 0.03686496 0.02822401 -0.04881112
v 0.03343093 0.02672437 -0.03627361
v 0.04141679 0.03050951 -0.07004594
v 0.04154355 0.03065018 -0.07122228
v 0.03217197 0.01877393 -0.02812271
v 0.03393220 0.01877393 -0.03171245
v 0.03468412 0.01877393 -0.03329102
v 0.03715594 0.02464230 -0.04100173
v 0.03620812 0.02464230 -0.03880843
f 1 2 6
f 1 6 19
f 1 19 16
f 1 16 15
f 1 15 14
f 1 14 13
f 1 13 12
f 1 12 11
f 1 11 10
f 1 10 9
f 1 9 8
f 1 8 3
f 1 3 4
f 1 4 17
f 1 17 21
f 1 21 36
f 1 36 69
f 1 69 102
f 1 102 110
f 1 110 109
f 1 109 108
f 1 108 86
f 1 86 50
f 1 50 25
f 1 25 20
f 1 20 7
f 1 7 2
f 2 5 6
f 2 7 5
f 3 8 4
f 4 8 9
f 4 9 10
f 4 10 11
f 4 11 12
f 4 12 13
f 4 13 14
f 4 14 15
f 4 15 16
f 4 16 17
f 5 18 24
f 5 24 49
f 5 49 83
f 5 83 82
f 5 82 81
f 5 81 85
f 5 85 107
f 5 107 103
f 5 103 70
f 5 70 37
f 5 37 22
f 5 22 19
f 5 19 6
f 5 7 20
f 5 20 33
f 5 33 64
f 5 64 63
f 5 63 62
f 5 62 61
f 5 61 46
f 5 46 23
f 5 23 18
f 16 19 17
f 17 19 22
f 17 22 21
f 18 23 24
f 20 25 26
f 20 26 27
f 20 27 28
f 20 28 29
f 20 29 30
f 20 30 31
f 20 31 32
f 20 32 33
f 21 22 34
f 21 34 35
f 21 35 36
f 22 37 38
f 22 38 39
f 22 39 40
f 22 40 41
f 22 41 42
f 22 42 43
f 22 43 44
f 22 44 45
f 22 45 34
f 23 46 47
f 23 47 48
f 23 48 24
f 24 48 49
f 25 50 51
f 25 51 52
f 25 52 28
f 25 28 26
f 26 28 27
f 28 52 53
f 28 53 54
f 28 54 55
f 28 55 56
f 28 56 57
f 28 57 29
f 29 57 30
f 30 57 58
f 30 58 59
f 30 59 60
f 30 60 32
f 30 32 31
f 32 60 61
f 32 61 62
f 32 62 63
f 32 63 64
f 32 64 33
f 34 45 65
f 34 65 35
f 35 65 66
f 35 66 67
f 35 67 36
f 36 67 68
f 36 68 69
f 37 70 38
f 38 71 72
f 38 72 73
f 38 73 74
f 38 74 75
f 38 75 40
f 38 40 39
f 38 70 71
f 40 75 76
f 40 76 77
f 40 77 41
f 41 77 42
f 42 78 43
f 42 77 76
f 42 76 78
f 43 78 45
f 43 45 44
f 45 78 65
f 46 61 79
f 46 79 47
f 47 79 80
f 47 80 48
f 48 81 82
f 48 82 83
f 48 83 49
f 48 80 84
f 48 84 85
f 48 85 81
f 50 86 87
f 50 87 51
f 51 87 52
f 52 88 53
f 52 87 88
f 53 89 90
f 53 90 91
f 53 91 55
f 53 55 54
f 53 88 92
f 53 92 89
f 55 58 56
f 55 91 93
f 55 93 94
f 55 94 95
f 55 95 58
f 56 58 57
f 58 95 96
f 58 96 97
f 58 97 59
f 59 98 60
f 59 97 98
f 60 98 61
f 61 98 79
f 65 78 66
f 66 78 99
f 66 99 100
f 66 100 67
f 67 100 90
f 67 90 68
f 68 90 69
f 69 90 101
f 69 101 102
f 70 103 104
f 70 104 71
f 71 104 72
f 72 84 73
f 72 104 84
f 73 84 105
f 73 105 95
f 73 95 94
f 73 94 74
f 74 94 75
f 75 94 76
f 76 94 93
f 76 93 99
f 76 99 78
f 79 98 80
f 80 98 97
f 80 97 96
f 80 96 105
f 80 105 84
f 84 104 106
f 84 106 85
f 85 106 107
f 86 108 87
f 87 108 109
f 87 109 92
f 87 92 88
f 89 92 109
f 89 109 110
f 89 110 101
f 89 101 90
f 90 111 93
f 90 93 112
f 90 112 91
f 90 100 111
f 91 112 93
f 93 111 100
f 93 100 99
f 95 105 96
f 101 110 102
f 103 107 106
f 103 106 104

