# https://github.com/mikedh/trimesh
v -0.02191591 -0.03297900 0.07073829
v -0.04394317 -0.01941427 0.07073829
v -0.02191591 -0.03881824 0.07073829
v -0.02191591 -0.01941427 0.02108821
v -0.05066645 -0.01941427 0.07073829
v -0.02250409 -0.03870996 0.07073829
v -0.02191591 -0.03880494 0.07054069
v -0.02191591 -0.01941427 0.00344920
v -0.05063831 -0.01941427 0.07054069
v -0.05061298 -0.01946365 0.07054069
v -0.04962799 -0.02129293 0.07054069
v -0.04974056 -0.02113147 0.07073829
v -0.02463731 -0.03822368 0.07073829
v -0.02482868 -0.03816859 0.07054069
v -0.02250409 -0.03869666 0.07054069
v -0.02191591 -0.03866627 0.06888086
v -0.03734653 -0.01941427 0.02805688
v -0.02191591 -0.02028426 0.00460845
v -0.05024994 -0.01941427 0.06829464
v -0.04941973 -0.02094531 0.06822219
v -0.04890472 -0.02245546 0.07054069
v -0.04892160 -0.02247825 0.07073829
v -0.04958295 -0.02141070 0.07073829
v -0.04963924 -0.02131572 0.07073829
v -0.02482868 -0.03817998 0.07073829
v -0.02715326 -0.03751704 0.07054069
v -0.02482868 -0.03795774 0.06822219
v -0.02250409 -0.03850291 0.06822219
v -0.02715326 -0.03753034 0.07073829
v -0.02191591 -0.03861498 0.06827489
v -0.03316735 -0.02545865 0.03187713
v -0.03478555 -0.02479381 0.03336570
v -0.03801070 -0.01941427 0.02916343
v -0.02191591 -0.02090732 0.00566231
v -0.05023586 -0.01941427 0.06822219
v -0.05021054 -0.01946365 0.06822219
v -0.04867395 -0.02210594 0.06822219
v -0.04927620 -0.02070596 0.06684558
v -0.04759327 -0.02425623 0.07068560
v -0.04751166 -0.02373196 0.06822219
v -0.04755669 -0.02431702 0.07073829
v -0.02866452 -0.03702505 0.07054069
v -0.02846752 -0.03694907 0.06884792
v -0.02733619 -0.03723400 0.06812999
v -0.02854070 -0.03708014 0.07073829
v -0.02680711 -0.03714282 0.06589711
v -0.02482868 -0.03769749 0.06589711
v -0.02250409 -0.03825217 0.06589711
v -0.02191591 -0.03836234 0.06589711
v -0.03167579 -0.02635525 0.03123164
v -0.03067954 -0.02762795 0.03213400
v -0.03362326 -0.02583097 0.03336570
v -0.03518518 -0.02517752 0.03472256
v -0.03789531 -0.02090162 0.03169270
v -0.03874522 -0.01941427 0.03051369
v -0.02191591 -0.03014866 0.02704912
v -0.02194124 -0.03013346 0.02702936
v -0.02348909 -0.02985043 0.02772096
v -0.02490466 -0.02950471 0.02858381
v -0.02573206 -0.02979344 0.03021729
v -0.02718985 -0.02826810 0.02872213
v -0.02861105 -0.02778941 0.02949935
v -0.03015890 -0.02724994 0.03058615
v -0.04979965 -0.01941427 0.06614740
v -0.04970116 -0.01955104 0.06600250
v -0.04849384 -0.02160255 0.06600250
v -0.04685031 -0.02287526 0.06262355
v -0.04704167 -0.02312600 0.06417800
v -0.04724430 -0.02339384 0.06589711
v -0.04910172 -0.02038304 0.06529772
v -0.04764111 -0.02197487 0.06346664
v -0.04659702 -0.02489449 0.06822219
v -0.04678277 -0.02512813 0.07000718
v -0.04597507 -0.02621658 0.07073829
v -0.02982681 -0.03658246 0.07054069
v -0.02868422 -0.03703265 0.07073829
v -0.02933713 -0.03654257 0.06812999
v -0.02823394 -0.03686739 0.06730006
v -0.02796940 -0.03678381 0.06589711
v -0.02633150 -0.03699846 0.06357203
v -0.02482868 -0.03740877 0.06357203
v -0.02250409 -0.03796344 0.06357203
v -0.02191591 -0.03807361 0.06357203
v -0.02942156 -0.02804775 0.03123164
v -0.02785120 -0.02967187 0.03295733
v -0.02924989 -0.02905451 0.03358307
v -0.03102287 -0.02786159 0.03336570
v -0.03266078 -0.02738100 0.03509141
v -0.03218517 -0.02699350 0.03336570
v -0.03752383 -0.02286956 0.03468304
v -0.03412701 -0.02645212 0.03568421
v -0.03558480 -0.02552324 0.03627041
v -0.03715798 -0.02485459 0.03800270
v -0.03792908 -0.02327796 0.03623090
v -0.03833715 -0.02135371 0.03336570
v -0.03892815 -0.01941427 0.03085620
v -0.02191591 -0.03068813 0.02862333
v -0.02263074 -0.03046968 0.02858381
v -0.02418140 -0.03015626 0.02926882
v -0.02710542 -0.02934515 0.03100769
v -0.02490466 -0.03043739 0.03100769
v -0.02630054 -0.03007458 0.03176515
v -0.04976870 -0.01941427 0.06600250
v -0.04966457 -0.01941427 0.06554803
v -0.04667582 -0.02260742 0.06124695
v -0.04520115 -0.02373006 0.05892186
v -0.04539251 -0.02427333 0.06123377
v -0.04618333 -0.02398460 0.06346664
v -0.04632685 -0.02455636 0.06589711
v -0.04934656 -0.01941427 0.06423070
v -0.04918333 -0.01941427 0.06357203
v -0.04888502 -0.01997843 0.06357203
v -0.04710359 -0.02095291 0.05892186
v -0.04741598 -0.02144489 0.06124695
v -0.04543473 -0.02623937 0.06822219
v -0.04488032 -0.02561442 0.06357203
v -0.04516456 -0.02592975 0.06589711
v -0.04455386 -0.02756906 0.06951976
v -0.04574148 -0.02643883 0.07053410
v -0.04535312 -0.02692131 0.07073829
v -0.03179961 -0.03577325 0.07054069
v -0.02984651 -0.03658815 0.07073829
v -0.03179961 -0.03553200 0.06822219
v -0.02947503 -0.03621584 0.06589711
v -0.02749379 -0.03662235 0.06357203
v -0.02604726 -0.03691108 0.06228763
v -0.02483149 -0.03710104 0.06140503
v -0.02250409 -0.03763671 0.06124695
v -0.02191591 -0.03783046 0.06183315
v -0.02832399 -0.02992641 0.03450520
v -0.02981837 -0.02944012 0.03569079
v -0.03185027 -0.02819022 0.03579618
v -0.03306885 -0.02767544 0.03663927
v -0.03456322 -0.02703528 0.03800270
v -0.03599850 -0.02587276 0.03800270
v -0.03748443 -0.02516042 0.03945176
v -0.03832871 -0.02369207 0.03800270
v -0.03984278 -0.02052171 0.03472256
v -0.03949944 -0.02016459 0.03336570
v -0.03949100 -0.02246685 0.03800270
v -0.03980339 -0.01941427 0.03257531
v -0.02191591 -0.03144416 0.03108014
v -0.02250409 -0.03130169 0.03104062
v -0.02482868 -0.03116112 0.03336570
v -0.02715326 -0.03082300 0.03569079
v -0.02710542 -0.03024364 0.03358307
v -0.04636344 -0.02211544 0.05892186
v -0.04465236 -0.02304242 0.05518724
v -0.04486062 -0.02330646 0.05659678
v -0.04425273 -0.02489259 0.05892186
v -0.04447788 -0.02515662 0.06045655
v -0.04468613 -0.02539407 0.06200441
v -0.04904262 -0.01941427 0.06302533
v -0.04867113 -0.01941427 0.06160921
v -0.04792817 -0.01946365 0.05892186
v -0.04693192 -0.02066987 0.05767040
v -0.04380808 -0.02677695 0.06357203
v -0.04410077 -0.02709227 0.06589711
v -0.04439345 -0.02740190 0.06822219
v -0.04343379 -0.02878288 0.07046165
v -0.04400227 -0.02830799 0.07073829
v -0.04293847 -0.02827950 0.06589711
v -0.04323116 -0.02853214 0.06822219
v -0.04198725 -0.02969277 0.06822219
v -0.03179961 -0.03578654 0.07073829
v -0.03353039 -0.03500582 0.07073829
v -0.03368517 -0.03492035 0.07054069
v -0.03340374 -0.03478738 0.06822219
v -0.03315046 -0.03466010 0.06645039
v -0.03199942 -0.03509890 0.06576538
v -0.02947503 -0.03587012 0.06357203
v -0.02715326 -0.03597460 0.05892186
v -0.02695345 -0.03646088 0.06140503
v -0.02560823 -0.03678951 0.06073977
v -0.02405757 -0.03699846 0.05947514
v -0.02266169 -0.03720741 0.05879013
v -0.02191591 -0.03702505 0.05677462
v -0.02191591 -0.03735748 0.05882965
v -0.02191591 -0.03774688 0.06124695
v -0.02865608 -0.03010307 0.03569079
v -0.03030805 -0.02973266 0.03746260
v -0.03161387 -0.02912480 0.03814102
v -0.03340093 -0.02790528 0.03800270
v -0.03498818 -0.02737341 0.03981403
v -0.03640938 -0.02641413 0.04040682
v -0.03780244 -0.02545485 0.04099962
v -0.03880151 -0.02413656 0.04026850
v -0.03979775 -0.02279738 0.03953739
v -0.04016361 -0.02090922 0.03627700
v -0.04030995 -0.01941427 0.03373456
v -0.02191591 -0.03156953 0.03157414
v -0.02241685 -0.03192475 0.03343157
v -0.02384931 -0.03230086 0.03660633
v -0.02470485 -0.03181647 0.03577642
v -0.02599941 -0.03224957 0.03914877
v -0.02692530 -0.03161322 0.03822665
v -0.02751911 -0.03191335 0.04032778
v -0.02801724 -0.03212610 0.04194809
v -0.02947503 -0.03099206 0.04032778
v -0.04607920 -0.02158166 0.05677462
v -0.04441878 -0.02271190 0.05363938
v -0.04237844 -0.02310890 0.04810001
v -0.04262609 -0.02340523 0.04962812
v -0.04299195 -0.02384593 0.05195320
v -0.04222928 -0.02524211 0.05319807
v -0.04390096 -0.02446899 0.05659678
v -0.04344786 -0.02646352 0.06115473
v -0.04246286 -0.02550044 0.05474593
v -0.04273866 -0.02579867 0.05659678
v -0.04309044 -0.02615959 0.05892186
v -0.04797038 -0.01941427 0.05898114
v -0.04732592 -0.01948455 0.05677462
v -0.04670396 -0.02027287 0.05612254
v -0.04224617 -0.01941427 0.03932003
v -0.04201540 -0.02024817 0.04032778
v -0.04264579 -0.02798316 0.06357203
v -0.04241784 -0.02775522 0.06185950
v -0.04215892 -0.02984093 0.06986227
v -0.04345348 -0.02881137 0.07073829
v -0.04170301 -0.02944012 0.06589711
v -0.04082496 -0.03057796 0.06822219
v -0.04054072 -0.03037661 0.06589711
v -0.03370206 -0.03492794 0.07073829
v -0.03379774 -0.03488235 0.07073829
v -0.03486435 -0.03435998 0.07073829
v -0.03484746 -0.03435048 0.07054069
v -0.03456604 -0.03421181 0.06822219
v -0.03400600 -0.03413773 0.06576538
v -0.03290843 -0.03454233 0.06490253
v -0.03150693 -0.03497733 0.06357203
v -0.03107635 -0.03477218 0.06124695
v -0.02947503 -0.03547312 0.06124695
v -0.02897690 -0.03485196 0.05659678
v -0.02858854 -0.03468670 0.05481839
v -0.02715326 -0.03555480 0.05659678
v -0.02482868 -0.03628803 0.05659678
v -0.02483149 -0.03667364 0.05879013
v -0.02353974 -0.03686359 0.05792728
v -0.02191591 -0.03699466 0.05659678
v -0.02950880 -0.03036141 0.03814102
v -0.03071612 -0.02996630 0.03901045
v -0.03220768 -0.02944392 0.04032778
v -0.03417766 -0.02817122 0.04048586
v -0.03533996 -0.02763745 0.04136847
v -0.03675272 -0.02689852 0.04265287
v -0.03750695 -0.02751587 0.04640067
v -0.03810919 -0.02573599 0.04265287
v -0.03967956 -0.02501226 0.04497795
v -0.03927149 -0.02457726 0.04265287
v -0.04007074 -0.02311080 0.04108525
v -0.04047881 -0.02130622 0.03800270
v -0.04084748 -0.01963461 0.03557223
v -0.04072084 -0.01941427 0.03480159
v -0.02191591 -0.03198553 0.03322739
v -0.02191591 -0.03215079 0.03392557
v -0.02361854 -0.03455943 0.04618330
v -0.02482868 -0.03288212 0.04032778
v -0.02470485 -0.03242623 0.03822665
v -0.02482868 -0.03341400 0.04265287
v -0.02577146 -0.03450814 0.04875209
v -0.02715326 -0.03370273 0.04730303
v -0.02715326 -0.03317276 0.04497795
v -0.02848722 -0.03232555 0.04350254
v -0.03104539 -0.03016006 0.04032778
v -0.02934557 -0.03169300 0.04269897
v -0.03002663 -0.03194184 0.04497795
v -0.04221240 -0.02055400 0.04165170
v -0.04075179 -0.02192928 0.04032119
v -0.04033247 -0.02341473 0.04265287
v -0.04046755 -0.02581387 0.04962812
v -0.04085873 -0.02618998 0.05195320
v -0.04118800 -0.02653000 0.05399506
v -0.04160733 -0.02696120 0.05659678
v -0.03989907 -0.02523831 0.04623600
v -0.04015798 -0.02550614 0.04779044
v -0.04218706 -0.02753107 0.06030506
v -0.04197318 -0.02732212 0.05892186
v -0.04736250 -0.01941427 0.05677462
v -0.04730903 -0.01941427 0.05658361
v -0.04694318 -0.01941427 0.05531897
v -0.04178463 -0.01941427 0.03779193
v -0.04081370 -0.02836877 0.05892186
v -0.04136249 -0.02914379 0.06357203
v -0.04126962 -0.03061405 0.07059997
v -0.04144128 -0.03050768 0.07073829
v -0.04311296 -0.02911910 0.07073829
v -0.04020020 -0.03012586 0.06357203
v -0.03912514 -0.03174049 0.06822219
v -0.03939250 -0.03191524 0.07054069
v -0.03877055 -0.03108704 0.06357203
v -0.03862139 -0.03164361 0.06585759
v -0.03633058 -0.03361725 0.07073829
v -0.03644596 -0.03354127 0.07054069
v -0.03644596 -0.03325823 0.06822219
v -0.03661482 -0.03280994 0.06585759
v -0.03412420 -0.03371033 0.06357203
v -0.03266922 -0.03443026 0.06357203
v -0.03223864 -0.03422511 0.06124695
v -0.03078366 -0.03463541 0.05971226
v -0.02961011 -0.03500582 0.05893504
v -0.03047128 -0.03449484 0.05816440
v -0.03013920 -0.03434668 0.05659678
v -0.02940749 -0.03418902 0.05413996
v -0.02823112 -0.03453853 0.05327053
v -0.02733619 -0.03502672 0.05413996
v -0.02672268 -0.03483297 0.05195320
v -0.02627521 -0.03467150 0.05029995
v -0.02482868 -0.03585493 0.05427170
v -0.02301629 -0.03674582 0.05659678
v -0.02191591 -0.03684839 0.05579321
v -0.03265233 -0.02972696 0.04217863
v -0.03391313 -0.02906211 0.04283071
v -0.03490656 -0.02966427 0.04730303
v -0.03559324 -0.02782930 0.04265287
v -0.03605760 -0.02816932 0.04497795
v -0.03661764 -0.02841436 0.04722400
v -0.03779400 -0.02774952 0.04794852
v -0.03966267 -0.02735251 0.05195320
v -0.03925460 -0.02697640 0.04962812
v -0.04177337 -0.01941427 0.03775899
v -0.04108106 -0.01941427 0.03578959
v -0.04101070 -0.01941427 0.03559199
v -0.02191591 -0.03235785 0.03486088
v -0.02191591 -0.03475698 0.04570907
v -0.02191591 -0.03523757 0.04788924
v -0.02191591 -0.03560989 0.04962812
v -0.02191591 -0.03573525 0.05021432
v -0.02250409 -0.03549781 0.04962812
v -0.02250409 -0.03598030 0.05195320
v -0.02482868 -0.03541423 0.05195320
v -0.02422080 -0.03472089 0.04773116
v -0.02492999 -0.03438277 0.04709226
v -0.02482868 -0.03393827 0.04497795
v -0.02492999 -0.03490705 0.04956884
v -0.02886433 -0.03250031 0.04497795
v -0.02709135 -0.03421751 0.04956884
v -0.02947503 -0.03325633 0.04962812
v -0.03042625 -0.03213939 0.04655874
v -0.03184745 -0.03038420 0.04283071
v -0.03988781 -0.02755766 0.05324418
v -0.04014954 -0.02779321 0.05479204
v -0.04044503 -0.02805155 0.05659678
v -0.03998913 -0.02996440 0.06222836
v -0.04125836 -0.03063874 0.07073829
v -0.03887467 -0.03052097 0.06137209
v -0.03796285 -0.03245282 0.06822219
v -0.03774897 -0.03232745 0.06660188
v -0.03823021 -0.03259719 0.07054069
v -0.03940939 -0.03192664 0.07073829
v -0.03725085 -0.03204252 0.06357203
v -0.03750413 -0.03218498 0.06505402
v -0.03825272 -0.03036901 0.05892186
v -0.03683434 -0.03179938 0.06124695
v -0.03644596 -0.03355836 0.07073829
v -0.03824710 -0.03260668 0.07073829
v -0.03609137 -0.03268647 0.06357203
v -0.03412420 -0.03327343 0.06124695
v -0.03179961 -0.03354127 0.05659678
v -0.03165327 -0.03406934 0.05893504
v -0.03109886 -0.03248891 0.04962812
v -0.03079211 -0.03232935 0.04811319
v -0.02947503 -0.03372363 0.05195320
v -0.02788497 -0.03440747 0.05195320
v -0.02229021 -0.03651977 0.05448247
v -0.02191591 -0.03667554 0.05485791
v -0.03299849 -0.02994351 0.04372649
v -0.03519361 -0.02985993 0.04868623
v -0.03634184 -0.02926916 0.04952931
v -0.03698630 -0.02948192 0.05195320
v -0.03734090 -0.02973646 0.05380404
v -0.03809231 -0.02799266 0.04962812
v -0.02191591 -0.03621394 0.05252624
v -0.02958197 -0.03271306 0.04732279
v -0.03179961 -0.03096547 0.04497795
v -0.03850038 -0.02832128 0.05195320
v -0.03901539 -0.02921218 0.05659678
v -0.03941501 -0.02952751 0.05892186
v -0.03972177 -0.02976115 0.06068050
v -0.03763921 -0.02994161 0.05535191
v -0.03785310 -0.03009167 0.05659678
v -0.03834278 -0.03255160 0.07073829
v -0.03567486 -0.03245662 0.06124695
v -0.03644596 -0.03098636 0.05659678
v -0.03628555 -0.03161702 0.05896797
v -0.03479962 -0.03197603 0.05659678
v -0.03511200 -0.03214889 0.05822368
v -0.03540187 -0.03230656 0.05977154
v -0.03425084 -0.03275675 0.05896797
v -0.03363733 -0.03260099 0.05659678
v -0.03296753 -0.03224767 0.05309928
v -0.03179961 -0.03307588 0.05427170
v -0.03184464 -0.03262948 0.05217715
v -0.03165890 -0.03163791 0.04732279
v -0.03264952 -0.03207291 0.05155141
v -0.03226115 -0.03184686 0.04962812
v -0.03325740 -0.03010687 0.04497795
v -0.03374427 -0.03040130 0.04730303
v -0.03550037 -0.03006318 0.05023409
v -0.03582682 -0.03027593 0.05195320
v -0.03651914 -0.03043929 0.05445612
v -0.03435497 -0.03171390 0.05427170
v -0.03389624 -0.03149544 0.05217715
v -0.03430149 -0.03061785 0.04952931
f 1 2 5
f 1 5 12
f 1 12 24
f 1 24 23
f 1 23 22
f 1 22 41
f 1 41 74
f 1 74 120
f 1 120 161
f 1 161 219
f 1 219 286
f 1 286 285
f 1 285 344
f 1 344 349
f 1 349 381
f 1 381 355
f 1 355 354
f 1 354 292
f 1 292 225
f 1 225 224
f 1 224 223
f 1 223 166
f 1 166 165
f 1 165 122
f 1 122 76
f 1 76 45
f 1 45 29
f 1 29 25
f 1 25 13
f 1 13 6
f 1 6 3
f 1 3 7
f 1 7 16
f 1 16 30
f 1 30 49
f 1 49 83
f 1 83 129
f 1 129 179
f 1 179 178
f 1 178 177
f 1 177 239
f 1 239 310
f 1 310 365
f 1 365 372
f 1 372 327
f 1 327 326
f 1 326 325
f 1 325 324
f 1 324 323
f 1 323 255
f 1 255 254
f 1 254 191
f 1 191 142
f 1 142 97
f 1 97 56
f 1 56 34
f 1 34 18
f 1 18 8
f 1 8 4
f 1 4 2
f 2 4 8
f 2 8 17
f 2 17 33
f 2 33 55
f 2 55 96
f 2 96 141
f 2 141 190
f 2 190 253
f 2 253 322
f 2 322 321
f 2 321 320
f 2 320 281
f 2 281 214
f 2 214 280
f 2 280 279
f 2 279 278
f 2 278 211
f 2 211 154
f 2 154 153
f 2 153 111
f 2 111 110
f 2 110 104
f 2 104 103
f 2 103 64
f 2 64 35
f 2 35 19
f 2 19 9
f 2 9 5
f 3 6 15
f 3 15 7
f 5 9 10
f 5 10 11
f 5 11 12
f 6 13 14
f 6 14 15
f 7 15 16
f 8 18 17
f 9 19 10
f 10 19 20
f 10 20 11
f 11 21 22
f 11 22 23
f 11 23 24
f 11 24 12
f 11 20 21
f 13 25 14
f 14 26 27
f 14 27 28
f 14 28 15
f 14 25 29
f 14 29 26
f 15 28 16
f 16 28 30
f 17 31 32
f 17 32 33
f 17 18 34
f 17 34 31
f 19 35 36
f 19 36 20
f 20 37 21
f 20 36 38
f 20 38 37
f 21 39 22
f 21 37 40
f 21 40 39
f 22 39 41
f 26 42 43
f 26 43 44
f 26 44 27
f 26 29 45
f 26 45 42
f 27 44 46
f 27 46 47
f 27 47 48
f 27 48 28
f 28 48 49
f 28 49 30
f 31 50 51
f 31 51 52
f 31 52 53
f 31 53 32
f 31 34 50
f 32 53 33
f 33 53 54
f 33 54 55
f 34 56 57
f 34 57 58
f 34 58 59
f 34 59 60
f 34 60 61
f 34 61 62
f 34 62 63
f 34 63 50
f 35 64 65
f 35 65 36
f 36 65 38
f 37 38 66
f 37 66 67
f 37 67 68
f 37 68 69
f 37 69 40
f 38 65 70
f 38 70 71
f 38 71 66
f 39 40 41
f 40 72 73
f 40 73 41
f 40 69 72
f 41 73 74
f 42 75 43
f 42 45 76
f 42 76 75
f 43 75 77
f 43 77 78
f 43 78 44
f 44 78 46
f 46 79 80
f 46 80 47
f 46 78 79
f 47 80 81
f 47 81 82
f 47 82 48
f 48 82 83
f 48 83 49
f 50 63 51
f 51 63 62
f 51 62 84
f 51 84 85
f 51 85 86
f 51 86 87
f 51 87 88
f 51 88 89
f 51 89 52
f 52 89 53
f 53 90 54
f 53 89 88
f 53 88 91
f 53 91 92
f 53 92 93
f 53 93 94
f 53 94 90
f 54 95 96
f 54 96 55
f 54 90 95
f 56 97 98
f 56 98 57
f 57 98 58
f 58 98 99
f 58 99 60
f 58 60 59
f 60 100 62
f 60 62 61
f 60 99 101
f 60 101 102
f 60 102 100
f 62 100 84
f 64 103 65
f 65 103 104
f 65 104 70
f 66 71 67
f 67 105 106
f 67 106 107
f 67 107 108
f 67 108 68
f 67 71 105
f 68 108 109
f 68 109 69
f 69 109 72
f 70 104 110
f 70 110 111
f 70 111 112
f 70 112 113
f 70 113 114
f 70 114 71
f 71 114 105
f 72 115 73
f 72 109 116
f 72 116 117
f 72 117 115
f 73 118 119
f 73 119 74
f 73 115 118
f 74 119 120
f 75 121 77
f 75 76 122
f 75 122 121
f 77 123 124
f 77 124 78
f 77 121 123
f 78 124 79
f 79 124 125
f 79 125 80
f 80 125 126
f 80 126 81
f 81 126 127
f 81 127 128
f 81 128 82
f 82 128 129
f 82 129 83
f 84 100 85
f 85 100 102
f 85 102 130
f 85 130 86
f 86 130 131
f 86 131 87
f 87 131 132
f 87 132 133
f 87 133 88
f 88 133 134
f 88 134 91
f 90 94 95
f 91 134 92
f 92 134 135
f 92 135 93
f 93 135 136
f 93 136 137
f 93 137 94
f 94 138 139
f 94 139 95
f 94 137 140
f 94 140 138
f 95 139 96
f 96 139 141
f 97 142 143
f 97 143 98
f 98 143 99
f 99 143 101
f 101 143 144
f 101 144 102
f 102 144 145
f 102 145 146
f 102 146 130
f 105 114 113
f 105 113 147
f 105 147 148
f 105 148 149
f 105 149 106
f 106 150 151
f 106 151 107
f 106 149 150
f 107 151 152
f 107 152 108
f 108 152 109
f 109 152 116
f 111 153 112
f 112 153 154
f 112 154 155
f 112 155 156
f 112 156 113
f 113 156 147
f 115 117 118
f 116 157 158
f 116 158 159
f 116 159 117
f 116 152 157
f 117 159 118
f 118 160 161
f 118 161 120
f 118 120 119
f 118 159 162
f 118 162 163
f 118 163 164
f 118 164 160
f 121 122 165
f 121 165 166
f 121 166 167
f 121 167 123
f 123 168 169
f 123 169 170
f 123 170 124
f 123 167 168
f 124 170 171
f 124 171 125
f 125 171 172
f 125 172 173
f 125 173 126
f 126 173 172
f 126 172 174
f 126 174 127
f 127 174 175
f 127 175 128
f 128 175 176
f 128 176 177
f 128 177 178
f 128 178 179
f 128 179 129
f 130 146 145
f 130 145 180
f 130 180 181
f 130 181 131
f 131 181 132
f 132 181 182
f 132 182 133
f 133 182 183
f 133 183 184
f 133 184 134
f 134 184 135
f 135 184 185
f 135 185 136
f 136 185 186
f 136 186 187
f 136 187 137
f 137 187 188
f 137 188 140
f 138 140 189
f 138 189 190
f 138 190 141
f 138 141 139
f 140 188 189
f 142 191 143
f 143 191 192
f 143 192 193
f 143 193 144
f 144 193 194
f 144 194 195
f 144 195 196
f 144 196 145
f 145 196 197
f 145 197 198
f 145 198 199
f 145 199 180
f 147 156 200
f 147 200 201
f 147 201 148
f 148 201 202
f 148 202 203
f 148 203 204
f 148 204 205
f 148 205 206
f 148 206 149
f 149 206 150
f 150 206 205
f 150 205 151
f 151 207 152
f 151 205 208
f 151 208 209
f 151 209 210
f 151 210 207
f 152 207 157
f 154 211 155
f 155 212 156
f 155 211 212
f 156 201 200
f 156 212 213
f 156 213 214
f 156 214 215
f 156 215 201
f 157 216 158
f 157 207 217
f 157 217 216
f 158 216 159
f 159 216 162
f 160 164 218
f 160 218 219
f 160 219 161
f 162 216 220
f 162 220 163
f 163 220 164
f 164 221 218
f 164 220 222
f 164 222 221
f 166 223 167
f 167 223 224
f 167 224 225
f 167 225 226
f 167 226 168
f 168 226 227
f 168 227 169
f 169 227 228
f 169 228 229
f 169 229 170
f 170 229 230
f 170 230 171
f 171 230 231
f 171 231 232
f 171 232 172
f 172 232 233
f 172 233 234
f 172 234 235
f 172 235 236
f 172 236 174
f 174 236 237
f 174 237 175
f 175 237 238
f 175 238 176
f 176 238 239
f 176 239 177
f 180 199 240
f 180 240 241
f 180 241 181
f 181 241 182
f 182 241 242
f 182 242 183
f 183 242 243
f 183 243 244
f 183 244 184
f 184 244 185
f 185 244 186
f 186 244 245
f 186 245 246
f 186 246 247
f 186 247 248
f 186 248 249
f 186 249 187
f 187 249 188
f 188 249 250
f 188 250 251
f 188 251 189
f 189 252 253
f 189 253 190
f 189 251 252
f 191 254 192
f 192 255 256
f 192 256 193
f 192 254 255
f 193 257 258
f 193 258 195
f 193 195 194
f 193 256 257
f 195 197 196
f 195 258 257
f 195 257 259
f 195 259 260
f 195 260 261
f 195 261 262
f 195 262 263
f 195 263 198
f 195 198 197
f 198 263 199
f 199 264 241
f 199 241 240
f 199 263 265
f 199 265 266
f 199 266 264
f 201 215 267
f 201 267 202
f 202 267 215
f 202 215 251
f 202 251 268
f 202 268 250
f 202 250 269
f 202 269 205
f 202 205 203
f 203 205 204
f 205 270 271
f 205 271 272
f 205 272 273
f 205 273 208
f 205 269 274
f 205 274 275
f 205 275 270
f 207 210 276
f 207 276 217
f 208 273 277
f 208 277 209
f 209 277 210
f 210 277 276
f 211 278 212
f 212 278 279
f 212 279 280
f 212 280 213
f 213 280 214
f 214 281 215
f 215 281 251
f 216 217 220
f 217 276 282
f 217 282 283
f 217 283 220
f 218 284 285
f 218 285 286
f 218 286 219
f 218 221 284
f 220 283 287
f 220 287 222
f 221 288 289
f 221 289 284
f 221 222 288
f 222 287 290
f 222 290 291
f 222 291 288
f 225 292 293
f 225 293 226
f 226 293 227
f 227 293 294
f 227 294 228
f 228 295 296
f 228 296 229
f 228 294 295
f 229 296 297
f 229 297 230
f 230 297 298
f 230 298 231
f 231 298 299
f 231 299 232
f 232 299 300
f 232 300 233
f 233 300 301
f 233 301 302
f 233 302 234
f 234 303 304
f 234 304 235
f 234 302 303
f 235 304 305
f 235 305 306
f 235 306 307
f 235 307 236
f 236 238 237
f 236 307 308
f 236 308 238
f 238 308 309
f 238 309 239
f 239 309 310
f 241 264 242
f 242 264 311
f 242 311 243
f 243 311 312
f 243 312 244
f 244 312 313
f 244 313 314
f 244 314 246
f 244 246 245
f 246 314 315
f 246 315 316
f 246 316 317
f 246 317 318
f 246 318 319
f 246 319 247
f 247 274 248
f 247 319 274
f 248 269 250
f 248 250 249
f 248 274 269
f 250 268 251
f 251 281 320
f 251 320 252
f 252 320 321
f 252 321 322
f 252 322 253
f 255 323 256
f 256 324 325
f 256 325 326
f 256 326 327
f 256 327 328
f 256 328 329
f 256 329 330
f 256 330 331
f 256 331 260
f 256 260 332
f 256 332 333
f 256 333 259
f 256 259 257
f 256 323 324
f 259 333 260
f 260 333 332
f 260 331 334
f 260 334 330
f 260 330 307
f 260 307 261
f 261 335 263
f 261 263 262
f 261 307 336
f 261 336 337
f 261 337 335
f 263 335 338
f 263 338 266
f 263 266 265
f 264 266 339
f 264 339 311
f 266 338 339
f 270 318 340
f 270 340 271
f 270 275 318
f 271 340 272
f 272 340 273
f 273 340 341
f 273 341 277
f 274 319 275
f 275 319 318
f 276 277 342
f 276 342 282
f 277 341 342
f 282 342 343
f 282 343 283
f 283 343 287
f 284 289 344
f 284 344 285
f 287 343 345
f 287 345 290
f 288 346 289
f 288 291 347
f 288 347 346
f 289 348 349
f 289 349 344
f 289 346 348
f 290 350 351
f 290 351 291
f 290 345 352
f 290 352 353
f 290 353 350
f 291 351 347
f 292 354 293
f 293 354 355
f 293 355 348
f 293 348 294
f 294 348 346
f 294 346 347
f 294 347 295
f 295 351 356
f 295 356 296
f 295 347 351
f 296 356 357
f 296 357 298
f 296 298 297
f 298 357 358
f 298 358 359
f 298 359 301
f 298 301 299
f 299 301 300
f 301 358 302
f 301 359 358
f 302 358 360
f 302 360 361
f 302 361 337
f 302 337 362
f 302 362 303
f 303 362 304
f 304 362 337
f 304 337 363
f 304 363 306
f 304 306 305
f 306 363 307
f 307 330 308
f 307 363 336
f 308 330 309
f 309 330 364
f 309 364 365
f 309 365 310
f 311 339 366
f 311 366 312
f 312 366 313
f 313 367 314
f 313 366 367
f 314 367 315
f 315 367 316
f 316 367 368
f 316 368 369
f 316 369 317
f 317 369 370
f 317 370 371
f 317 371 341
f 317 341 340
f 317 340 318
f 327 329 328
f 327 372 329
f 329 372 365
f 329 365 364
f 329 364 330
f 330 334 331
f 335 337 373
f 335 373 338
f 336 363 337
f 337 361 373
f 338 373 361
f 338 361 374
f 338 374 339
f 339 374 366
f 341 371 375
f 341 375 376
f 341 376 342
f 342 376 377
f 342 377 378
f 342 378 343
f 343 378 379
f 343 379 380
f 343 380 352
f 343 352 345
f 348 355 381
f 348 381 349
f 350 356 351
f 350 353 382
f 350 382 356
f 352 380 383
f 352 383 353
f 353 383 384
f 353 384 385
f 353 385 386
f 353 386 387
f 353 387 382
f 356 382 357
f 357 382 388
f 357 388 389
f 357 389 358
f 358 389 390
f 358 390 391
f 358 391 360
f 360 391 392
f 360 392 390
f 360 390 361
f 361 393 374
f 361 390 394
f 361 394 395
f 361 395 393
f 366 374 396
f 366 396 367
f 367 396 397
f 367 397 398
f 367 398 370
f 367 370 369
f 367 369 368
f 370 379 371
f 370 398 379
f 371 379 375
f 374 393 396
f 375 379 376
f 376 379 377
f 377 379 378
f 379 398 399
f 379 399 400
f 379 400 383
f 379 383 380
f 382 387 388
f 383 400 399
f 383 399 401
f 383 401 385
f 383 385 384
f 385 401 390
f 385 390 386
f 386 388 387
f 386 390 388
f 388 390 389
f 390 401 402
f 390 402 394
f 390 392 391
f 393 395 403
f 393 403 397
f 393 397 396
f 394 402 395
f 395 402 403
f 397 403 398
f 398 402 399
f 398 403 402
f 399 402 401

