# https://github.com/mikedh/trimesh
v -0.03289863 0.00216229 0.00500610
v -0.03501962 0.00216229 0.00834422
v -0.03531674 0.00273266 0.00891431
v -0.03289863 0.00268307 0.00516408
v -0.03289863 0.00216229 0.01624306
v -0.03534188 0.00216229 0.00886623
v -0.03289863 0.00378131 0.00550064
v -0.03740801 0.00216229 0.01234172
v -0.03778513 0.00378131 0.01330332
v -0.03709032 0.00378131 0.01214253
v -0.03766171 0.00512400 0.01352311
v -0.03289863 0.03213729 0.07517525
v -0.05098186 0.00216229 0.07517525
v -0.03289863 0.00473785 0.00599517
v -0.03742630 0.00667572 0.01389401
v -0.03713375 0.00842937 0.01432673
v -0.03767313 0.00977915 0.01583781
v -0.03679549 0.01063294 0.01494490
v -0.03786741 0.00216229 0.01315221
v -0.03811882 0.00216229 0.01359866
v -0.03861021 0.00378131 0.01477319
v -0.04006153 0.00559873 0.01800827
v -0.03946729 0.00626476 0.01717718
v -0.03991069 0.00714690 0.01830362
v -0.03883876 0.00842937 0.01709476
v -0.03788569 0.00842937 0.01549439
v -0.03289863 0.03834769 0.07517525
v -0.05624775 0.00216229 0.07517525
v -0.03535102 0.01206775 0.01351624
v -0.03289863 0.00602031 0.00667516
v -0.03741487 0.01133086 0.01629801
v -0.03877248 0.00216229 0.01477319
v -0.03959985 0.00378131 0.01656588
v -0.04020552 0.00378131 0.01772667
v -0.04103289 0.00378131 0.01941633
v -0.04182597 0.00617619 0.02186153
v -0.04053692 0.00626476 0.01921714
v -0.04032893 0.00842937 0.01981471
v -0.03972327 0.00842937 0.01865392
v -0.04220994 0.00699811 0.02303606
v -0.03376943 0.03792256 0.07517525
v -0.03289863 0.03825204 0.07415871
v -0.05621575 0.00273975 0.07517525
v -0.05619518 0.00247050 0.07417931
v -0.05622261 0.00216229 0.07448839
v -0.03501276 0.01361592 0.01407946
v -0.03295349 0.01422173 0.01129770
v -0.03327118 0.01267001 0.01084437
v -0.03289863 0.01169576 0.00979349
v -0.04008896 0.00997400 0.02028864
v -0.03934615 0.01074985 0.01947128
v -0.03782855 0.01231928 0.01785030
v -0.03577613 0.01293572 0.01482127
v -0.03907189 0.00216229 0.01531580
v -0.03967756 0.00216229 0.01642164
v -0.03986040 0.00216229 0.01677193
v -0.04027865 0.00216229 0.01758242
v -0.04118373 0.00216229 0.01941633
v -0.04200196 0.00216229 0.02113347
v -0.04192425 0.00378131 0.02129831
v -0.04234707 0.00544994 0.02271323
v -0.04125001 0.00842937 0.02174477
v -0.04268762 0.00617619 0.02391523
v -0.04359726 0.00610534 0.02639478
v -0.04457548 0.00723901 0.02989774
v -0.04305331 0.00842937 0.02639478
v -0.04244992 0.00842937 0.02470512
v -0.04201796 0.00842937 0.02353746
v -0.03493734 0.03728133 0.07517525
v -0.03354773 0.03779857 0.07286742
v -0.03289863 0.03812096 0.07286742
v -0.05612661 0.00356875 0.07517525
v -0.05610605 0.00371400 0.07505162
v -0.05589577 0.00378131 0.07286742
v -0.05604205 0.00216229 0.07294297
v -0.05615861 0.00216229 0.07375346
v -0.03699890 0.01308805 0.01708102
v -0.03546073 0.01445555 0.01563176
v -0.03289863 0.01433864 0.01138012
v -0.03289863 0.01411544 0.01116033
v -0.03289863 0.01296406 0.01049408
v -0.03346317 0.01481690 0.01284312
v -0.03289863 0.01517472 0.01252717
v -0.04228079 0.00964452 0.02517218
v -0.04042722 0.01074985 0.02173790
v -0.03976670 0.01152217 0.02096175
v -0.03738973 0.01386745 0.01877755
v -0.04216423 0.00216229 0.02149063
v -0.04246363 0.00378131 0.02245910
v -0.04313330 0.00378131 0.02406634
v -0.04411837 0.00358292 0.02660771
v -0.04446806 0.00422769 0.02789212
v -0.04472632 0.00569084 0.02944442
v -0.04434235 0.00632145 0.02868888
v -0.04386467 0.00842937 0.02871635
v -0.04502116 0.00632145 0.03081813
v -0.04577767 0.00610534 0.03336636
v -0.04529542 0.00842937 0.03336636
v -0.04478346 0.00842937 0.03153933
v -0.04442463 0.00842937 0.03037167
v -0.03643437 0.03639919 0.07517525
v -0.03471107 0.03715379 0.07286742
v -0.03289863 0.03800759 0.07200885
v -0.03324147 0.03762852 0.07054584
v -0.05582492 0.00576170 0.07517525
v -0.05577921 0.00608408 0.07517525
v -0.05555980 0.00610534 0.07286742
v -0.05555066 0.00378131 0.07054584
v -0.05568093 0.00216229 0.07054584
v -0.03573499 0.02407051 0.03103792
v -0.03289863 0.02547343 0.02802949
v -0.04154028 0.01055146 0.02426553
v -0.04462119 0.00969058 0.03207507
v -0.04250478 0.01014405 0.02639478
v -0.04198824 0.01130606 0.02639478
v -0.04010038 0.01216695 0.02251405
v -0.03734173 0.02306437 0.03286496
v -0.04253220 0.00216229 0.02230112
v -0.04328186 0.00216229 0.02406634
v -0.04442692 0.00216229 0.02697861
v -0.04458919 0.00267952 0.02752809
v -0.04482460 0.00358292 0.02868888
v -0.04550570 0.00378131 0.03103792
v -0.04615707 0.00378131 0.03336636
v -0.04673075 0.00397970 0.03565359
v -0.05309141 0.00610534 0.06124583
v -0.05384793 0.00709022 0.06485868
v -0.05261831 0.00842937 0.06124583
v -0.05151439 0.00942133 0.05790083
v -0.05172009 0.01023970 0.05945313
v -0.05151896 0.01178787 0.06021554
v -0.03799311 0.03543203 0.07517525
v -0.03644808 0.03611577 0.07286742
v -0.03440252 0.03698374 0.07054584
v -0.03289863 0.03780211 0.07054584
v -0.03289863 0.03756829 0.06906223
v -0.03303348 0.03751515 0.06916527
v -0.05529468 0.00840811 0.07517525
v -0.05508898 0.00842937 0.07286742
v -0.05520326 0.00610534 0.07054584
v -0.05475986 0.00610534 0.06821740
v -0.05510269 0.00378131 0.06821740
v -0.05523982 0.00216229 0.06821740
v -0.05537467 0.00216229 0.06892487
v -0.03472479 0.02523252 0.03103792
v -0.03318890 0.02605089 0.02947189
v -0.03289863 0.02574622 0.02845534
v -0.03765257 0.02358515 0.03441725
v -0.04453205 0.01179142 0.03469199
v -0.04431721 0.01131669 0.03336636
v -0.04394010 0.01057980 0.03119590
v -0.04291160 0.01093053 0.02856524
v -0.05132698 0.01317662 0.06109472
v -0.05077387 0.01307743 0.05892425
v -0.05148468 0.01401625 0.06268822
v -0.05060017 0.01540145 0.06124583
v -0.04982308 0.01560339 0.05873193
v -0.04221223 0.01182330 0.02768607
v -0.04461205 0.00216229 0.02747314
v -0.04499831 0.00216229 0.02870261
v -0.04571368 0.00216229 0.03103792
v -0.04636049 0.00216229 0.03336636
v -0.04701187 0.00333847 0.03640226
v -0.04591024 0.00216229 0.03174539
v -0.05343653 0.00378131 0.06124583
v -0.05397363 0.00554205 0.06432980
v -0.05366737 0.00623288 0.06356052
v -0.05419076 0.00623288 0.06573786
v -0.05402163 0.00789442 0.06641097
v -0.05371994 0.00857462 0.06573786
v -0.05322854 0.00842937 0.06357426
v -0.05265259 0.01075340 0.06357426
v -0.05197378 0.01090928 0.06109472
v -0.05171780 0.01246808 0.06176097
v -0.03801368 0.03541785 0.07517525
v -0.03779199 0.03527614 0.07286742
v -0.03657151 0.03570127 0.07070382
v -0.03764343 0.03517341 0.07158986
v -0.03393399 0.03685266 0.06832043
v -0.03599326 0.03560916 0.06821740
v -0.03289863 0.03744430 0.06834791
v -0.05529011 0.00842937 0.07517525
v -0.05447874 0.01075340 0.07286742
v -0.05413362 0.01080300 0.07062140
v -0.05472558 0.00842937 0.07054584
v -0.05422047 0.00857462 0.06808690
v -0.05458616 0.00378131 0.06589583
v -0.05488557 0.00216229 0.06659643
v -0.03508361 0.02567182 0.03272072
v -0.03289863 0.02619260 0.02930018
v -0.03356373 0.02634139 0.03103792
v -0.03289863 0.02680903 0.03098297
v -0.04688388 0.02117255 0.05782528
v -0.04713986 0.02161540 0.05937071
v -0.04647477 0.02238063 0.05872507
v -0.04668732 0.02316357 0.06080623
v -0.04510344 0.02471174 0.05912344
v -0.04459833 0.02587730 0.06003696
v -0.04211852 0.02802773 0.05816184
v -0.04920828 0.01651387 0.05783215
v -0.04943454 0.01703111 0.05937757
v -0.04909171 0.01857928 0.06055897
v -0.04864375 0.01992552 0.06130077
v -0.04706215 0.01917092 0.05496110
v -0.05193722 0.01317662 0.06350558
v -0.05254288 0.01307743 0.06589583
v -0.05167209 0.01459017 0.06423365
v -0.05120812 0.01538020 0.06350558
v -0.05029391 0.01772548 0.06357426
v -0.04689759 0.00216229 0.03542006
v -0.05387535 0.00259804 0.06241347
v -0.05380907 0.00378131 0.06269509
v -0.05409477 0.00378131 0.06385587
v -0.05384336 0.00944613 0.06722147
v -0.05321712 0.01075340 0.06589583
v -0.03895533 0.03445778 0.07286742
v -0.03916560 0.03458886 0.07517525
v -0.03742858 0.03503524 0.07003757
v -0.03855992 0.03437630 0.07070382
v -0.03289863 0.03732384 0.06768853
v -0.03412369 0.03625748 0.06589583
v -0.03715660 0.03485811 0.06821740
v -0.03560929 0.03536117 0.06589583
v -0.05467987 0.01073214 0.07517525
v -0.05401249 0.01231220 0.07286742
v -0.05391650 0.01203586 0.07145249
v -0.05411762 0.01263813 0.07517525
v -0.05379765 0.01161428 0.06990020
v -0.05399878 0.01006257 0.06877376
v -0.05472786 0.00216229 0.06589583
v -0.04023523 0.02848829 0.05427424
v -0.04066948 0.02891341 0.05659581
v -0.03820796 0.02875753 0.04962423
v -0.03944900 0.03007543 0.05659581
v -0.03762057 0.03051472 0.05308598
v -0.03730059 0.03025256 0.05153368
v -0.03541730 0.03060329 0.04815436
v -0.03289863 0.02760615 0.03338010
v -0.04732270 0.01965272 0.05659581
v -0.04766782 0.02025853 0.05872507
v -0.04894315 0.02063760 0.06357426
v -0.04734099 0.02238063 0.06144501
v -0.04692044 0.02355681 0.06235853
v -0.04601537 0.02447792 0.06144501
v -0.04631249 0.02499870 0.06357426
v -0.04479260 0.02611820 0.06124583
v -0.04380525 0.02728022 0.06124583
v -0.04238821 0.02831823 0.05970727
v -0.04965395 0.01777154 0.06130077
v -0.04931569 0.01907172 0.06211126
v -0.05181151 0.01538020 0.06608815
v -0.05367194 0.01080300 0.06808690
v -0.05303885 0.01307743 0.06821740
v -0.05140468 0.01614188 0.06543564
v -0.04951225 0.01947913 0.06357426
v -0.05098643 0.01751646 0.06608815
v -0.05377479 0.00216229 0.06191894
v -0.05401249 0.00216229 0.06285307
v -0.04028094 0.03310800 0.07054584
v -0.04050264 0.03329577 0.07286742
v -0.04066263 0.03341622 0.07517525
v -0.03895989 0.03358981 0.06814872
v -0.04007296 0.03293795 0.06886992
v -0.03289863 0.03695894 0.06589583
v -0.03422197 0.03569419 0.06367729
v -0.03536702 0.03520529 0.06452212
v -0.03677034 0.03460303 0.06589583
v -0.03846165 0.03344101 0.06589583
v -0.05362166 0.01347421 0.07286742
v -0.05411305 0.01265230 0.07517525
v -0.05373365 0.01381431 0.07517525
v -0.05350510 0.01291800 0.07062140
v -0.04108317 0.02933500 0.05896546
v -0.03975984 0.03035530 0.05822366
v -0.04004553 0.03059975 0.05977595
v -0.03784684 0.03069186 0.05427424
v -0.03749258 0.03274664 0.06040099
v -0.03719546 0.03253762 0.05892425
v -0.03671321 0.03219752 0.05659581
v -0.03649380 0.03104968 0.05216559
v -0.03573271 0.03083357 0.04962423
v -0.03422654 0.03113824 0.04735073
v -0.03351573 0.03086545 0.04498108
v -0.03289863 0.02807733 0.03481563
v -0.03449852 0.03234277 0.05195267
v -0.04798322 0.02237000 0.06357426
v -0.04914657 0.02104148 0.06509908
v -0.04710786 0.02383669 0.06357426
v -0.04515143 0.02656459 0.06357426
v -0.04663018 0.02546988 0.06589583
v -0.04418465 0.02772660 0.06357426
v -0.04264191 0.02858394 0.06124583
v -0.04146028 0.02974595 0.06124583
v -0.05156695 0.01659890 0.06698793
v -0.05223662 0.01540145 0.06821740
v -0.04973395 0.02018059 0.06588209
v -0.05118756 0.01803016 0.06821740
v -0.04144428 0.03214792 0.07054584
v -0.04166370 0.03232860 0.07286742
v -0.04181454 0.03245968 0.07517525
v -0.03986040 0.03277144 0.06732449
v -0.04094832 0.03205581 0.06814872
v -0.03289863 0.03641337 0.06353305
v -0.03353402 0.03549580 0.06124583
v -0.03506304 0.03501399 0.06296983
v -0.03661036 0.03354376 0.06120461
v -0.03626296 0.03439755 0.06367729
v -0.03777370 0.03294503 0.06195328
v -0.03805939 0.03315051 0.06357426
v -0.03962499 0.03259430 0.06589583
v -0.05292228 0.01540145 0.07286742
v -0.05262516 0.01540145 0.07054584
v -0.05315084 0.01540145 0.07517525
v -0.03890047 0.03125869 0.05897233
v -0.03828795 0.03103551 0.05659581
v -0.04184883 0.03012502 0.06357426
v -0.04029694 0.03080877 0.06124583
v -0.03863763 0.03209478 0.06120461
v -0.03603211 0.03332411 0.05892425
v -0.03554987 0.03300526 0.05659581
v -0.03922273 0.03228963 0.06357426
v -0.03529846 0.03283875 0.05540755
v -0.03622410 0.03192119 0.05448717
v -0.03494420 0.03261556 0.05385526
v -0.03393170 0.03205227 0.04977534
v -0.03289863 0.03252699 0.04923959
v -0.03314319 0.03062455 0.04344253
v -0.03289863 0.02813755 0.03500795
v -0.03302891 0.03286709 0.05064764
v -0.04866432 0.02224246 0.06588209
v -0.04932027 0.02138158 0.06665138
v -0.04742555 0.02430787 0.06589583
v -0.04533200 0.02715622 0.06596451
v -0.04444292 0.02802064 0.06524333
v -0.04681988 0.02573913 0.06743439
v -0.04302359 0.02896301 0.06357426
v -0.05168123 0.01686814 0.06821740
v -0.05026419 0.02004951 0.06821740
v -0.05187093 0.01731098 0.07054584
v -0.05137497 0.01847300 0.07054584
v -0.04251621 0.03074146 0.06821740
v -0.04278361 0.03098590 0.07054584
v -0.04300074 0.03116658 0.07286742
v -0.04316530 0.03128704 0.07517525
v -0.04068777 0.03112761 0.06357426
v -0.04124087 0.03128704 0.06596451
v -0.04233336 0.03057495 0.06678187
v -0.03289863 0.03612641 0.06235166
v -0.03469736 0.03479434 0.06124583
v -0.03289863 0.03585716 0.06124583
v -0.03317290 0.03527969 0.05961798
v -0.05193493 0.01786719 0.07300478
v -0.05220919 0.01770423 0.07517525
v -0.04211394 0.03037301 0.06523646
v -0.03401855 0.03457114 0.05887618
v -0.03412369 0.03388032 0.05659581
v -0.03415111 0.03327451 0.05448717
v -0.03333518 0.03305132 0.05195267
v -0.03289863 0.03096465 0.04408817
v -0.03289863 0.03279624 0.05014624
v -0.03289863 0.03072020 0.04329142
v -0.03289863 0.03046867 0.04247406
v -0.03289863 0.03291315 0.05055835
v -0.03289863 0.03503524 0.05812063
v -0.04884030 0.02283055 0.06821740
v -0.04946883 0.02166854 0.06821740
v -0.04757411 0.02485699 0.06821053
v -0.04611593 0.02685509 0.06821053
v -0.04465090 0.02825801 0.06678875
v -0.04338700 0.02931728 0.06601260
v -0.04698901 0.02597295 0.06898668
v -0.05063902 0.02004951 0.07054584
v -0.05148925 0.01873870 0.07232480
v -0.04367954 0.02960779 0.06821740
v -0.04394696 0.02987349 0.07054584
v -0.04416408 0.03008960 0.07286742
v -0.04431721 0.03024193 0.07517525
v -0.03289863 0.03538951 0.05945313
v -0.03289863 0.03512027 0.05842972
v -0.05156924 0.01892292 0.07387023
v -0.05220005 0.01772548 0.07517525
v -0.04904143 0.02318837 0.07054584
v -0.04810664 0.02469402 0.07054584
v -0.04965395 0.02202635 0.07054584
v -0.04623021 0.02732981 0.07054584
v -0.04482232 0.02844577 0.06821740
v -0.04713300 0.02616780 0.07054584
v -0.05104814 0.01984049 0.07300478
v -0.04506687 0.02871148 0.07054584
v -0.04526114 0.02892758 0.07286742
v -0.04540742 0.02906929 0.07517525
v -0.05161952 0.01904692 0.07517525
v -0.05108242 0.02019831 0.07517525
v -0.04916028 0.02340802 0.07231794
v -0.04857518 0.02448146 0.07300478
v -0.04729984 0.02640516 0.07286742
v -0.04970195 0.02252942 0.07300478
v -0.04642220 0.02756718 0.07286742
v -0.04999450 0.02237354 0.07517525
v -0.04655933 0.02773723 0.07517525
v -0.04924713 0.02356035 0.07387023
v -0.04858432 0.02481802 0.07517525
v -0.04742098 0.02657521 0.07517525
v -0.04930884 0.02364892 0.07517525
f 1 2 3
f 1 3 4
f 1 4 7
f 1 7 14
f 1 14 30
f 1 30 49
f 1 49 81
f 1 81 80
f 1 80 79
f 1 79 83
f 1 83 111
f 1 111 147
f 1 147 190
f 1 190 192
f 1 192 238
f 1 238 284
f 1 284 328
f 1 328 362
f 1 362 361
f 1 361 359
f 1 359 326
f 1 326 360
f 1 360 363
f 1 363 364
f 1 364 379
f 1 379 378
f 1 378 350
f 1 350 348
f 1 348 303
f 1 303 264
f 1 264 220
f 1 220 181
f 1 181 136
f 1 136 135
f 1 135 103
f 1 103 71
f 1 71 42
f 1 42 27
f 1 27 12
f 1 12 5
f 1 5 13
f 1 13 28
f 1 28 45
f 1 45 76
f 1 76 75
f 1 75 109
f 1 109 144
f 1 144 143
f 1 143 188
f 1 188 230
f 1 230 258
f 1 258 257
f 1 257 210
f 1 210 162
f 1 162 164
f 1 164 161
f 1 161 160
f 1 160 159
f 1 159 120
f 1 120 119
f 1 119 118
f 1 118 88
f 1 88 59
f 1 59 58
f 1 58 57
f 1 57 56
f 1 56 55
f 1 55 54
f 1 54 32
f 1 32 20
f 1 20 19
f 1 19 8
f 1 8 6
f 1 6 2
f 2 6 3
f 3 7 4
f 3 6 8
f 3 8 9
f 3 9 10
f 3 10 11
f 3 11 7
f 5 12 13
f 7 11 15
f 7 15 16
f 7 16 17
f 7 17 18
f 7 18 14
f 8 19 9
f 9 19 20
f 9 20 21
f 9 21 11
f 9 11 10
f 11 21 22
f 11 22 23
f 11 23 24
f 11 24 25
f 11 25 26
f 11 26 15
f 12 27 41
f 12 41 69
f 12 69 101
f 12 101 132
f 12 132 175
f 12 175 217
f 12 217 261
f 12 261 300
f 12 300 344
f 12 344 377
f 12 377 391
f 12 391 400
f 12 400 403
f 12 403 402
f 12 402 404
f 12 404 399
f 12 399 393
f 12 393 392
f 12 392 381
f 12 381 353
f 12 353 313
f 12 313 271
f 12 271 270
f 12 270 227
f 12 227 224
f 12 224 182
f 12 182 138
f 12 138 106
f 12 106 105
f 12 105 72
f 12 72 43
f 12 43 28
f 12 28 13
f 14 29 30
f 14 18 29
f 15 26 17
f 15 17 16
f 17 31 18
f 17 26 25
f 17 25 31
f 18 31 29
f 20 32 21
f 21 32 33
f 21 33 22
f 22 24 23
f 22 33 34
f 22 34 35
f 22 35 36
f 22 36 37
f 22 37 24
f 24 38 39
f 24 39 25
f 24 37 36
f 24 36 40
f 24 40 38
f 25 39 31
f 27 42 41
f 28 43 44
f 28 44 45
f 29 46 47
f 29 47 48
f 29 48 30
f 29 31 46
f 30 48 49
f 31 39 50
f 31 50 51
f 31 51 52
f 31 52 53
f 31 53 46
f 32 54 33
f 33 54 55
f 33 55 56
f 33 56 34
f 34 56 57
f 34 57 58
f 34 58 35
f 35 58 59
f 35 59 60
f 35 60 61
f 35 61 36
f 36 61 40
f 38 62 50
f 38 50 39
f 38 40 62
f 40 61 63
f 40 63 64
f 40 64 65
f 40 65 66
f 40 66 67
f 40 67 68
f 40 68 62
f 41 42 70
f 41 70 69
f 42 71 70
f 43 72 73
f 43 73 44
f 44 73 74
f 44 74 75
f 44 75 76
f 44 76 45
f 46 53 52
f 46 52 77
f 46 77 78
f 46 78 47
f 47 79 80
f 47 80 81
f 47 81 48
f 47 78 82
f 47 82 83
f 47 83 79
f 48 81 49
f 50 62 68
f 50 68 84
f 50 84 85
f 50 85 86
f 50 86 51
f 51 86 52
f 52 87 77
f 52 86 87
f 59 88 89
f 59 89 60
f 60 89 61
f 61 89 90
f 61 90 63
f 63 90 91
f 63 91 64
f 64 91 92
f 64 92 93
f 64 93 94
f 64 94 65
f 65 95 66
f 65 94 93
f 65 93 96
f 65 96 97
f 65 97 98
f 65 98 99
f 65 99 100
f 65 100 95
f 66 84 67
f 66 95 84
f 67 84 68
f 69 70 102
f 69 102 101
f 70 71 103
f 70 103 104
f 70 104 102
f 72 105 73
f 73 105 106
f 73 106 74
f 74 106 107
f 74 107 108
f 74 108 75
f 75 108 109
f 77 87 78
f 78 87 110
f 78 110 111
f 78 111 82
f 82 111 83
f 84 112 85
f 84 95 113
f 84 113 114
f 84 114 115
f 84 115 112
f 85 112 86
f 86 112 116
f 86 116 87
f 87 116 117
f 87 117 110
f 88 118 89
f 89 118 119
f 89 119 90
f 90 119 120
f 90 120 121
f 90 121 91
f 91 121 92
f 92 122 93
f 92 121 122
f 93 122 123
f 93 123 96
f 95 100 113
f 96 123 97
f 97 123 124
f 97 124 125
f 97 125 126
f 97 126 127
f 97 127 98
f 98 113 99
f 98 127 128
f 98 128 129
f 98 129 130
f 98 130 131
f 98 131 113
f 99 113 100
f 101 102 133
f 101 133 132
f 102 104 134
f 102 134 133
f 103 135 104
f 104 135 136
f 104 136 137
f 104 137 134
f 106 138 139
f 106 139 107
f 107 139 140
f 107 140 108
f 108 140 141
f 108 141 142
f 108 142 143
f 108 143 144
f 108 144 109
f 110 145 146
f 110 146 147
f 110 147 111
f 110 117 148
f 110 148 145
f 112 115 116
f 113 149 150
f 113 150 151
f 113 151 152
f 113 152 114
f 113 131 153
f 113 153 154
f 113 154 155
f 113 155 156
f 113 156 157
f 113 157 149
f 114 158 115
f 114 152 158
f 115 158 116
f 116 158 148
f 116 148 117
f 120 159 121
f 121 159 160
f 121 160 161
f 121 161 122
f 122 161 123
f 123 161 124
f 124 162 163
f 124 163 125
f 124 161 164
f 124 164 162
f 125 163 165
f 125 165 126
f 126 165 166
f 126 166 167
f 126 167 127
f 127 167 166
f 127 166 168
f 127 168 141
f 127 141 169
f 127 169 170
f 127 170 171
f 127 171 128
f 128 171 129
f 129 171 130
f 130 171 172
f 130 172 173
f 130 173 131
f 131 173 172
f 131 172 174
f 131 174 153
f 132 133 176
f 132 176 175
f 133 134 177
f 133 177 178
f 133 178 176
f 134 137 179
f 134 179 180
f 134 180 177
f 136 181 137
f 137 181 179
f 138 182 139
f 139 183 184
f 139 184 185
f 139 185 140
f 139 182 183
f 140 185 141
f 141 185 186
f 141 186 169
f 141 168 142
f 142 168 187
f 142 187 188
f 142 188 143
f 145 148 189
f 145 189 146
f 146 190 147
f 146 189 191
f 146 191 192
f 146 192 190
f 148 158 193
f 148 193 194
f 148 194 195
f 148 195 196
f 148 196 197
f 148 197 198
f 148 198 199
f 148 199 189
f 149 158 150
f 149 157 200
f 149 200 201
f 149 201 202
f 149 202 203
f 149 203 204
f 149 204 193
f 149 193 158
f 150 158 151
f 151 158 152
f 153 174 155
f 153 155 154
f 155 174 205
f 155 205 206
f 155 206 207
f 155 207 208
f 155 208 156
f 156 208 209
f 156 209 201
f 156 201 157
f 157 201 200
f 162 210 163
f 163 210 165
f 165 211 212
f 165 212 166
f 165 210 211
f 166 213 187
f 166 187 168
f 166 212 213
f 169 186 214
f 169 214 170
f 170 215 172
f 170 172 171
f 170 214 215
f 172 215 174
f 174 215 205
f 175 176 216
f 175 216 217
f 176 178 216
f 177 180 218
f 177 218 178
f 178 218 219
f 178 219 216
f 179 181 220
f 179 220 221
f 179 221 180
f 180 222 218
f 180 221 223
f 180 223 222
f 182 224 183
f 183 225 226
f 183 226 184
f 183 224 227
f 183 227 225
f 184 226 228
f 184 228 229
f 184 229 185
f 185 229 186
f 186 229 214
f 187 230 188
f 187 213 211
f 187 211 230
f 189 199 231
f 189 231 232
f 189 232 233
f 189 233 234
f 189 234 235
f 189 235 236
f 189 236 191
f 191 236 237
f 191 237 238
f 191 238 192
f 193 204 194
f 194 196 195
f 194 204 239
f 194 239 240
f 194 240 203
f 194 203 241
f 194 241 242
f 194 242 196
f 196 242 243
f 196 243 244
f 196 244 197
f 197 244 198
f 198 244 245
f 198 245 246
f 198 246 247
f 198 247 199
f 199 247 248
f 199 248 232
f 199 232 231
f 201 209 249
f 201 249 250
f 201 250 202
f 202 250 203
f 203 250 241
f 203 240 239
f 203 239 204
f 205 215 206
f 206 251 207
f 206 215 252
f 206 252 253
f 206 253 251
f 207 251 254
f 207 254 208
f 208 254 209
f 209 255 250
f 209 250 249
f 209 254 256
f 209 256 255
f 210 257 211
f 211 257 258
f 211 258 230
f 211 213 212
f 214 229 252
f 214 252 215
f 216 219 259
f 216 259 260
f 216 260 217
f 217 260 261
f 218 222 262
f 218 262 219
f 219 262 263
f 219 263 259
f 220 264 221
f 221 264 265
f 221 265 266
f 221 266 223
f 222 223 267
f 222 267 268
f 222 268 262
f 223 266 267
f 225 269 226
f 225 227 270
f 225 270 271
f 225 271 269
f 226 272 228
f 226 269 272
f 228 253 252
f 228 252 229
f 228 272 253
f 232 234 233
f 232 248 273
f 232 273 274
f 232 274 234
f 234 274 235
f 235 274 275
f 235 275 276
f 235 276 277
f 235 277 278
f 235 278 279
f 235 279 280
f 235 280 281
f 235 281 237
f 235 237 236
f 237 282 283
f 237 283 284
f 237 284 238
f 237 281 285
f 237 285 282
f 241 286 242
f 241 250 255
f 241 255 287
f 241 287 286
f 242 286 243
f 243 286 288
f 243 288 244
f 244 288 245
f 245 289 246
f 245 288 332
f 245 332 290
f 245 290 289
f 246 289 291
f 246 291 247
f 247 291 248
f 248 291 292
f 248 292 293
f 248 293 273
f 251 294 254
f 251 253 295
f 251 295 294
f 253 272 295
f 254 294 256
f 255 256 296
f 255 296 287
f 256 294 297
f 256 297 296
f 259 298 260
f 259 263 298
f 260 298 299
f 260 299 300
f 260 300 261
f 262 268 301
f 262 301 263
f 263 301 302
f 263 302 298
f 264 303 265
f 265 303 304
f 265 304 305
f 265 305 266
f 266 305 306
f 266 306 307
f 266 307 267
f 267 307 308
f 267 308 309
f 267 309 268
f 268 310 301
f 268 309 310
f 269 311 312
f 269 312 272
f 269 271 311
f 271 313 311
f 272 312 295
f 273 293 274
f 274 293 275
f 275 314 315
f 275 315 276
f 275 293 316
f 275 316 317
f 275 317 318
f 275 318 314
f 276 315 277
f 277 319 320
f 277 320 278
f 277 315 314
f 277 314 318
f 277 318 321
f 277 321 308
f 277 308 307
f 277 307 306
f 277 306 319
f 278 320 322
f 278 322 279
f 279 322 323
f 279 323 280
f 280 323 322
f 280 322 281
f 281 322 324
f 281 324 285
f 282 285 325
f 282 325 283
f 283 325 326
f 283 326 327
f 283 327 284
f 284 327 328
f 285 329 325
f 285 324 329
f 286 287 330
f 286 330 288
f 287 296 331
f 287 331 330
f 288 330 332
f 289 290 333
f 289 333 334
f 289 334 291
f 290 332 335
f 290 335 333
f 291 334 292
f 292 334 336
f 292 336 316
f 292 316 293
f 294 295 337
f 294 337 297
f 295 312 337
f 296 297 338
f 296 338 331
f 297 337 339
f 297 339 340
f 297 340 338
f 298 302 341
f 298 341 342
f 298 342 299
f 299 342 343
f 299 343 344
f 299 344 300
f 301 310 345
f 301 345 346
f 301 346 347
f 301 347 302
f 302 347 341
f 303 348 304
f 304 349 305
f 304 348 350
f 304 350 351
f 304 351 349
f 305 349 319
f 305 319 306
f 308 321 310
f 308 310 309
f 310 321 345
f 311 313 352
f 311 352 339
f 311 339 312
f 312 339 337
f 313 353 352
f 316 336 354
f 316 354 317
f 317 354 345
f 317 345 321
f 317 321 318
f 319 349 320
f 320 349 322
f 322 349 355
f 322 355 356
f 322 356 357
f 322 357 324
f 324 357 358
f 324 358 329
f 325 329 326
f 326 359 327
f 326 329 360
f 327 359 361
f 327 361 362
f 327 362 328
f 329 363 360
f 329 358 364
f 329 364 363
f 330 331 365
f 330 365 332
f 331 338 366
f 331 366 365
f 332 365 367
f 332 367 335
f 333 335 368
f 333 368 369
f 333 369 334
f 334 369 370
f 334 370 336
f 335 367 371
f 335 371 368
f 336 370 354
f 338 340 372
f 338 372 366
f 339 352 373
f 339 373 340
f 340 373 372
f 341 347 374
f 341 374 375
f 341 375 342
f 342 375 376
f 342 376 343
f 343 376 377
f 343 377 344
f 345 354 346
f 346 354 347
f 347 354 370
f 347 370 374
f 349 351 355
f 350 378 351
f 351 378 379
f 351 379 355
f 352 353 380
f 352 380 373
f 353 381 380
f 355 379 364
f 355 364 356
f 356 358 357
f 356 364 358
f 365 366 382
f 365 382 383
f 365 383 367
f 366 372 384
f 366 384 382
f 367 383 371
f 368 371 385
f 368 385 386
f 368 386 369
f 369 386 374
f 369 374 370
f 371 383 387
f 371 387 385
f 372 373 388
f 372 388 384
f 373 380 388
f 374 386 375
f 375 389 376
f 375 386 389
f 376 390 377
f 376 389 390
f 377 390 391
f 380 381 392
f 380 392 393
f 380 393 388
f 382 384 394
f 382 394 383
f 383 394 395
f 383 395 396
f 383 396 387
f 384 388 397
f 384 397 394
f 385 387 398
f 385 398 389
f 385 389 386
f 387 396 398
f 388 393 399
f 388 399 397
f 389 398 390
f 390 398 400
f 390 400 391
f 394 397 401
f 394 401 395
f 395 401 402
f 395 402 396
f 396 402 403
f 396 403 400
f 396 400 398
f 397 399 401
f 399 404 401
f 401 404 402

