# https://github.com/mikedh/trimesh
v -0.02360796 0.02058787 -0.04735355
v -0.04003526 0.02363325 -0.06764254
v -0.04232204 0.02361255 -0.06998833
v -0.04224253 0.02119394 -0.06775673
v -0.04188631 0.02058787 -0.06690501
v -0.02360796 0.02058787 -0.05990094
v -0.02360796 0.03000822 -0.06400727
v -0.02947599 0.03094367 -0.06930791
v -0.03102489 0.03066134 -0.06980276
v -0.03257380 0.03033761 -0.07034519
v -0.03516273 0.03044866 -0.07248639
v -0.03644765 0.03011739 -0.07303358
v -0.03811424 0.02849307 -0.07192968
v -0.03966314 0.02800558 -0.07263389
v -0.03996529 0.02588623 -0.07003591
v -0.04226161 0.02586553 -0.07237695
v -0.04077632 0.02439742 -0.06923653
v -0.04450705 0.02343751 -0.07247687
v -0.04403634 0.02254723 -0.07109224
v -0.04279276 0.02237407 -0.06943638
v -0.04447206 0.02574319 -0.07484169
v -0.04321259 0.02058787 -0.06839909
v -0.04245562 0.02058787 -0.06751882
v -0.04445298 0.02102643 -0.07023100
v -0.04392502 0.02058787 -0.06924129
v -0.04965629 0.02058787 -0.09595861
v -0.02360796 0.03374061 -0.09595861
v -0.02360796 0.03062370 -0.06517778
v -0.02932014 0.03213510 -0.07141579
v -0.02998805 0.03263576 -0.07279091
v -0.03180094 0.03111495 -0.07116361
v -0.03361382 0.03078745 -0.07188686
v -0.03428173 0.03130317 -0.07337617
v -0.03644765 0.03078745 -0.07419459
v -0.03762126 0.03051077 -0.07469895
v -0.03864220 0.02929111 -0.07366642
v -0.04045509 0.02854012 -0.07418031
v -0.04117388 0.02750115 -0.07346182
v -0.04200399 0.02799240 -0.07498921
v -0.04276095 0.02630220 -0.07354747
v -0.04511135 0.02419415 -0.07402329
v -0.04666025 0.02319470 -0.07503679
v -0.04586194 0.02254159 -0.07339045
v -0.04506364 0.02188659 -0.07177266
v -0.04357516 0.02716424 -0.07568866
v -0.04505728 0.02633796 -0.07639287
v -0.04660936 0.02550415 -0.07746822
v -0.04585876 0.02484915 -0.07571245
v -0.04661255 0.02079303 -0.07275760
v -0.04636129 0.02058787 -0.07225800
v -0.04511453 0.02058787 -0.07068303
v -0.04460247 0.02058787 -0.07004543
v -0.05609681 0.02058787 -0.09595861
v -0.02360796 0.03981631 -0.09595861
v -0.02360796 0.03131447 -0.06656718
v -0.02715104 0.03247389 -0.07079723
v -0.02843914 0.03286539 -0.07231034
v -0.02932014 0.03317971 -0.07355698
v -0.03113939 0.03300091 -0.07433733
v -0.03186773 0.03235908 -0.07355698
v -0.03268830 0.03273363 -0.07491783
v -0.03430399 0.03250777 -0.07576479
v -0.03644765 0.03164573 -0.07587423
v -0.03854679 0.03076299 -0.07608359
v -0.03996529 0.03052583 -0.07699717
v -0.03917016 0.03008916 -0.07545075
v -0.04098305 0.02929299 -0.07599319
v -0.04267508 0.02849683 -0.07653562
v -0.04422399 0.02788700 -0.07750154
v -0.04722638 0.02395511 -0.07658796
v -0.04799288 0.02225361 -0.07598843
v -0.04720730 0.02164567 -0.07430878
v -0.04570292 0.02699673 -0.07825809
v -0.04713415 0.02610833 -0.07901940
v -0.04795472 0.02454047 -0.07839132
v -0.04668252 0.02058787 -0.07266720
v -0.05606182 0.02071963 -0.09595861
v -0.05608409 0.02058787 -0.09582538
v -0.02421225 0.03975419 -0.09595861
v -0.02360796 0.03978619 -0.09574925
v -0.02360796 0.03238543 -0.06876548
v -0.02473067 0.03225744 -0.06907000
v -0.02544311 0.03270164 -0.07034519
v -0.02715104 0.03302726 -0.07195347
v -0.02715104 0.03371425 -0.07354747
v -0.02947599 0.03412081 -0.07587423
v -0.03186773 0.03338675 -0.07576479
v -0.03365199 0.03309125 -0.07646900
v -0.03520089 0.03279763 -0.07710660
v -0.03666711 0.03258118 -0.07801066
v -0.03758945 0.03282021 -0.07938103
v -0.03877260 0.03169467 -0.07819624
v -0.04051234 0.03081757 -0.07819624
v -0.04222345 0.03048630 -0.07940006
v -0.04167640 0.03014751 -0.07819624
v -0.04343840 0.02893161 -0.07824381
v -0.04479966 0.02836131 -0.07905271
v -0.04688925 0.02816933 -0.08170779
v -0.04647578 0.02777783 -0.08052299
v -0.04925555 0.02357491 -0.07931441
v -0.04877529 0.02285968 -0.07776324
v -0.04929371 0.02131063 -0.07694007
v -0.04860036 0.02058787 -0.07527945
v -0.04764621 0.02058787 -0.07396143
v -0.04760804 0.02661652 -0.08052299
v -0.04916013 0.02576766 -0.08179820
v -0.04876893 0.02523876 -0.08052299
v -0.05553068 0.02237407 -0.09595861
v -0.05602366 0.02058787 -0.09527819
v -0.05592824 0.02058787 -0.09446453
v -0.02512506 0.03966008 -0.09595861
v -0.02360796 0.03976925 -0.09563982
v -0.02715104 0.03922907 -0.09446453
v -0.02360796 0.03290680 -0.06988365
v -0.02389420 0.03288233 -0.06995027
v -0.02473067 0.03322112 -0.07116361
v -0.02482927 0.03418292 -0.07354747
v -0.02705562 0.03471746 -0.07603601
v -0.02947599 0.03487368 -0.07778227
v -0.03071002 0.03517483 -0.07930490
v -0.03161011 0.03455747 -0.07839607
v -0.03430399 0.03351663 -0.07801066
v -0.03603737 0.03314207 -0.07865778
v -0.03666711 0.03355991 -0.08030412
v -0.03828599 0.03313266 -0.08093220
v -0.03983489 0.03278445 -0.08180772
v -0.03894753 0.03256988 -0.08030412
v -0.04130746 0.03137846 -0.08031363
v -0.04277686 0.03083451 -0.08094648
v -0.04432576 0.03033008 -0.08204086
v -0.04349883 0.03003270 -0.08031363
v -0.04531490 0.02876598 -0.08052299
v -0.04586831 0.02945298 -0.08264991
v -0.04650759 0.03020397 -0.08516700
v -0.04734724 0.02857400 -0.08325420
v -0.04889615 0.02783995 -0.08461505
v -0.04825369 0.02723012 -0.08252620
v -0.04960858 0.02220091 -0.07840084
v -0.04959586 0.02407745 -0.08052299
v -0.05077582 0.02231949 -0.08054203
v -0.05131969 0.02078550 -0.07978547
v -0.05119565 0.02058787 -0.07938103
v -0.05016199 0.02058787 -0.07766332
v -0.04944001 0.02058787 -0.07650232
v -0.04870531 0.02058787 -0.07543172
v -0.04958950 0.02629090 -0.08334937
v -0.05041642 0.02472492 -0.08281169
v -0.05464968 0.02475127 -0.09595861
v -0.05534303 0.02237407 -0.09446453
v -0.05558157 0.02058787 -0.09222342
v -0.02707153 0.03945493 -0.09595861
v -0.02360796 0.03957727 -0.09447881
v -0.02715104 0.03886580 -0.09214253
v -0.02947599 0.03892980 -0.09446453
v -0.02947599 0.03856841 -0.09214253
v -0.02799387 0.03933635 -0.09595861
v -0.02360796 0.03343381 -0.07119692
v -0.02360796 0.03435796 -0.07354747
v -0.02482927 0.03489627 -0.07546502
v -0.02621915 0.03519366 -0.07692104
v -0.02776806 0.03505814 -0.07731121
v -0.02947599 0.03530094 -0.07894327
v -0.02947599 0.03582983 -0.08052299
v -0.03180094 0.03604629 -0.08284499
v -0.03161011 0.03537811 -0.08062292
v -0.03320672 0.03523130 -0.08146988
v -0.03225893 0.03495085 -0.07991870
v -0.03404001 0.03465158 -0.08062292
v -0.03475562 0.03498096 -0.08218361
v -0.03637132 0.03465347 -0.08291162
v -0.03894753 0.03350157 -0.08268798
v -0.04041374 0.03306113 -0.08335888
v -0.04196265 0.03268470 -0.08440569
v -0.04115162 0.03244754 -0.08268798
v -0.04349883 0.03119212 -0.08282597
v -0.04485054 0.03069146 -0.08359204
v -0.04687971 0.03048819 -0.08637083
v -0.04809148 0.02990847 -0.08728440
v -0.04888342 0.03020962 -0.08929236
v -0.04810102 0.02892597 -0.08530024
v -0.04931279 0.02827473 -0.08616146
v -0.05124018 0.02305919 -0.08227401
v -0.05172680 0.02151015 -0.08133189
v -0.05137058 0.02058787 -0.07968555
v -0.04992027 0.02704754 -0.08530024
v -0.05148508 0.02575825 -0.08649454
v -0.05119247 0.02531405 -0.08516700
v -0.05164410 0.02368219 -0.08382519
v -0.05439206 0.02537804 -0.09595861
v -0.05436343 0.02485291 -0.09439792
v -0.05398177 0.02606128 -0.09512592
v -0.05494547 0.02237407 -0.09214253
v -0.05510131 0.02058787 -0.08981101
v -0.02360796 0.03940222 -0.09345579
v -0.02715104 0.03845549 -0.08981577
v -0.02482927 0.03906720 -0.09214253
v -0.02947599 0.03913872 -0.09595861
v -0.03180094 0.03872652 -0.09595861
v -0.03180094 0.03851195 -0.09446453
v -0.03180094 0.03813175 -0.09214253
v -0.02947599 0.03815810 -0.08981577
v -0.02360796 0.03497155 -0.07525566
v -0.02482927 0.03528588 -0.07662603
v -0.02705562 0.03545904 -0.07812962
v -0.02715104 0.03621380 -0.08052299
v -0.02947599 0.03655259 -0.08284499
v -0.03404001 0.03544587 -0.08291162
v -0.03180094 0.03669564 -0.08516700
v -0.03412588 0.03609334 -0.08516700
v -0.03554439 0.03524636 -0.08373478
v -0.03709329 0.03496403 -0.08463884
v -0.03860404 0.03454806 -0.08531451
v -0.04115162 0.03334911 -0.08517652
v -0.04251287 0.03296514 -0.08595211
v -0.04459928 0.03284092 -0.08862622
v -0.04406496 0.03254918 -0.08707504
v -0.04333980 0.03222168 -0.08517652
v -0.04534352 0.03101520 -0.08516700
v -0.04733452 0.03082133 -0.08792201
v -0.04963720 0.02860976 -0.08749376
v -0.04929371 0.03056347 -0.09083878
v -0.05123700 0.02777595 -0.08940656
v -0.05194943 0.02058787 -0.08084179
v -0.05202577 0.02231949 -0.08296871
v -0.05289722 0.02058787 -0.08295920
v -0.05260143 0.02058787 -0.08228353
v -0.05090941 0.02700990 -0.08736054
v -0.05193353 0.02415086 -0.08516700
v -0.05179359 0.02622691 -0.08804572
v -0.05235336 0.02486985 -0.08736054
v -0.05310077 0.02215950 -0.08537636
v -0.05404856 0.02620056 -0.09595861
v -0.05418215 0.02421673 -0.09214253
v -0.05381639 0.02573190 -0.09357475
v -0.05345063 0.02729599 -0.09595861
v -0.05374324 0.02678216 -0.09595861
v -0.05333931 0.02691014 -0.09439792
v -0.05436661 0.02247947 -0.08978722
v -0.05399767 0.02379701 -0.09054378
v -0.05450337 0.02058787 -0.08749376
v -0.02360796 0.03916131 -0.09214253
v -0.02482927 0.03863242 -0.08981577
v -0.02360796 0.03895427 -0.09103387
v -0.02860135 0.03752568 -0.08612816
v -0.02715104 0.03798494 -0.08749376
v -0.02482927 0.03816751 -0.08749376
v -0.03412588 0.03823151 -0.09595861
v -0.03412588 0.03800000 -0.09446453
v -0.03322580 0.03754451 -0.09062942
v -0.03181366 0.03771202 -0.08983956
v -0.03104716 0.03756898 -0.08824080
v -0.02941556 0.03769132 -0.08747473
v -0.02360796 0.03534799 -0.07641666
v -0.02482927 0.03578090 -0.07819624
v -0.02482927 0.03646037 -0.08052299
v -0.02715104 0.03688762 -0.08284499
v -0.02941556 0.03719819 -0.08528120
v -0.03015026 0.03739958 -0.08668963
v -0.03181366 0.03723206 -0.08747473
v -0.03412588 0.03667305 -0.08749376
v -0.03644765 0.03597100 -0.08749376
v -0.03637132 0.03542516 -0.08531451
v -0.03771668 0.03519742 -0.08619002
v -0.03934191 0.03491133 -0.08749376
v -0.04109437 0.03414715 -0.08749376
v -0.04333980 0.03315336 -0.08770788
v -0.04341932 0.03380084 -0.08981577
v -0.04496504 0.03303855 -0.08981577
v -0.04707690 0.03293691 -0.09298949
v -0.04662209 0.03266587 -0.09143832
v -0.04612593 0.03236284 -0.08981577
v -0.04809148 0.03109613 -0.08996803
v -0.05026377 0.02920265 -0.09012505
v -0.05156141 0.02819568 -0.09095774
v -0.04793881 0.03204852 -0.09218536
v -0.04858446 0.03237790 -0.09446453
v -0.04956087 0.03081380 -0.09214253
v -0.05072494 0.02960356 -0.09214253
v -0.05362556 0.02063305 -0.08473876
v -0.05360011 0.02058787 -0.08462457
v -0.05353332 0.02282015 -0.08749376
v -0.05200986 0.02700990 -0.09003465
v -0.05333931 0.02462140 -0.08978722
v -0.05388954 0.02124288 -0.08628518
v -0.05363510 0.02537993 -0.09214253
v -0.05267140 0.02702119 -0.09214253
v -0.05300218 0.02800181 -0.09595861
v -0.05208937 0.02890715 -0.09446453
v -0.05407719 0.02165884 -0.08749376
v -0.05377822 0.02332458 -0.08899260
v -0.05434435 0.02058787 -0.08694657
v -0.02360796 0.03871146 -0.08981577
v -0.02715104 0.03733935 -0.08460554
v -0.02715104 0.03760662 -0.08576653
v -0.02360796 0.03823527 -0.08749376
v -0.02360796 0.03848937 -0.08871187
v -0.02482927 0.03770073 -0.08538588
v -0.02360796 0.03801317 -0.08648978
v -0.03626955 0.03771390 -0.09595861
v -0.03574476 0.03760474 -0.09446453
v -0.03534084 0.03749369 -0.09322740
v -0.03404955 0.03764803 -0.09232810
v -0.03477471 0.03734688 -0.09167623
v -0.03404955 0.03717936 -0.08983956
v -0.03259606 0.03739581 -0.08907825
v -0.02360796 0.03588442 -0.07819624
v -0.02360796 0.03653189 -0.08052299
v -0.02482927 0.03707772 -0.08284499
v -0.03644765 0.03649613 -0.08981577
v -0.03877260 0.03626650 -0.09214253
v -0.03893163 0.03563973 -0.08969206
v -0.03817785 0.03536493 -0.08749376
v -0.03981262 0.03510707 -0.08883558
v -0.04109755 0.03480592 -0.08969206
v -0.04327938 0.03459888 -0.09223294
v -0.04580469 0.03336040 -0.09218536
v -0.04574108 0.03406434 -0.09446453
v -0.04742357 0.03315524 -0.09446453
v -0.05116066 0.03007034 -0.09446453
v -0.05175224 0.02844224 -0.09214253
v -0.04999978 0.03121659 -0.09446453
v -0.04889615 0.03259623 -0.09595861
v -0.04917603 0.03236849 -0.09595861
v -0.05363510 0.02058787 -0.08471022
v -0.05401358 0.02058787 -0.08583315
v -0.05218479 0.02927982 -0.09595861
v -0.05146599 0.03027361 -0.09595861
v -0.02482927 0.03742781 -0.08422488
v -0.02360796 0.03745416 -0.08411068
v -0.03738590 0.03741840 -0.09595861
v -0.03690883 0.03728477 -0.09446453
v -0.03625046 0.03706643 -0.09232810
v -0.02360796 0.03715678 -0.08294968
v -0.03877260 0.03674081 -0.09446453
v -0.04109437 0.03599170 -0.09446453
v -0.04109755 0.03548539 -0.09223294
v -0.04241428 0.03521812 -0.09306562
v -0.04187677 0.03500167 -0.09151921
v -0.04397909 0.03490003 -0.09446453
v -0.04441800 0.03507508 -0.09595861
v -0.04568384 0.03447277 -0.09595861
v -0.04626269 0.03415845 -0.09595861
v -0.04785294 0.03327006 -0.09595861
v -0.04866715 0.03274869 -0.09595861
v -0.05133877 0.03041666 -0.09595861
v -0.05140875 0.03034514 -0.09595861
v -0.05020333 0.03146316 -0.09595861
v -0.03872490 0.03702502 -0.09595861
v -0.04109437 0.03628156 -0.09595861
v -0.04329210 0.03550986 -0.09595861
v -0.04281820 0.03537434 -0.09446453
v -0.04438301 0.03509013 -0.09595861
f 1 2 3
f 1 3 4
f 1 4 5
f 1 5 23
f 1 23 22
f 1 22 25
f 1 25 52
f 1 52 51
f 1 51 50
f 1 50 76
f 1 76 104
f 1 104 103
f 1 103 145
f 1 145 144
f 1 144 143
f 1 143 142
f 1 142 184
f 1 184 223
f 1 223 226
f 1 226 225
f 1 225 280
f 1 280 324
f 1 324 325
f 1 325 291
f 1 291 240
f 1 240 193
f 1 193 150
f 1 150 110
f 1 110 109
f 1 109 78
f 1 78 53
f 1 53 26
f 1 26 6
f 1 6 27
f 1 27 54
f 1 54 80
f 1 80 112
f 1 112 152
f 1 152 194
f 1 194 241
f 1 241 243
f 1 243 292
f 1 292 296
f 1 296 295
f 1 295 298
f 1 298 329
f 1 329 333
f 1 333 307
f 1 307 306
f 1 306 253
f 1 253 202
f 1 202 158
f 1 158 157
f 1 157 114
f 1 114 81
f 1 81 55
f 1 55 28
f 1 28 7
f 1 7 8
f 1 8 9
f 1 9 10
f 1 10 11
f 1 11 12
f 1 12 13
f 1 13 14
f 1 14 15
f 1 15 16
f 1 16 17
f 1 17 2
f 2 17 3
f 3 18 19
f 3 19 20
f 3 20 4
f 3 17 16
f 3 16 21
f 3 21 18
f 4 22 23
f 4 23 5
f 4 20 24
f 4 24 25
f 4 25 22
f 6 26 27
f 7 28 29
f 7 29 8
f 8 29 9
f 9 29 30
f 9 30 31
f 9 31 32
f 9 32 10
f 10 32 11
f 11 32 33
f 11 33 34
f 11 34 35
f 11 35 12
f 12 35 13
f 13 35 36
f 13 36 37
f 13 37 14
f 14 37 38
f 14 38 15
f 15 38 16
f 16 38 39
f 16 39 40
f 16 40 21
f 18 41 42
f 18 42 43
f 18 43 44
f 18 44 24
f 18 24 19
f 18 21 41
f 19 24 20
f 21 45 46
f 21 46 47
f 21 47 48
f 21 48 41
f 21 40 45
f 24 44 49
f 24 49 50
f 24 50 51
f 24 51 52
f 24 52 25
f 26 53 77
f 26 77 108
f 26 108 148
f 26 148 189
f 26 189 232
f 26 232 236
f 26 236 235
f 26 235 287
f 26 287 326
f 26 326 327
f 26 327 346
f 26 346 345
f 26 345 347
f 26 347 323
f 26 323 322
f 26 322 344
f 26 344 343
f 26 343 342
f 26 342 341
f 26 341 340
f 26 340 352
f 26 352 350
f 26 350 349
f 26 349 348
f 26 348 330
f 26 330 299
f 26 299 247
f 26 247 198
f 26 198 197
f 26 197 156
f 26 156 151
f 26 151 111
f 26 111 79
f 26 79 54
f 26 54 27
f 28 55 56
f 28 56 29
f 29 57 30
f 29 56 57
f 30 57 58
f 30 58 59
f 30 59 60
f 30 60 31
f 31 60 32
f 32 60 33
f 33 60 61
f 33 61 62
f 33 62 63
f 33 63 34
f 34 63 35
f 35 63 64
f 35 64 65
f 35 65 66
f 35 66 36
f 36 66 37
f 37 66 65
f 37 65 67
f 37 67 68
f 37 68 39
f 37 39 38
f 39 68 69
f 39 69 45
f 39 45 40
f 41 48 70
f 41 70 42
f 42 70 71
f 42 71 72
f 42 72 43
f 43 49 44
f 43 72 49
f 45 69 46
f 46 69 73
f 46 73 74
f 46 74 47
f 47 74 75
f 47 75 70
f 47 70 48
f 49 76 50
f 49 72 76
f 53 78 77
f 54 79 80
f 55 81 82
f 55 82 83
f 55 83 56
f 56 83 57
f 57 83 84
f 57 84 85
f 57 85 58
f 58 85 86
f 58 86 59
f 59 86 87
f 59 87 61
f 59 61 60
f 61 87 88
f 61 88 89
f 61 89 62
f 62 89 63
f 63 89 90
f 63 90 91
f 63 91 92
f 63 92 64
f 64 92 65
f 65 92 93
f 65 93 94
f 65 94 95
f 65 95 67
f 67 95 68
f 68 95 94
f 68 94 96
f 68 96 69
f 69 96 97
f 69 97 98
f 69 98 99
f 69 99 73
f 70 75 100
f 70 100 101
f 70 101 102
f 70 102 71
f 71 103 72
f 71 102 103
f 72 103 104
f 72 104 76
f 73 99 74
f 74 99 98
f 74 98 105
f 74 105 106
f 74 106 107
f 74 107 75
f 75 107 100
f 77 78 109
f 77 109 110
f 77 110 108
f 79 111 80
f 80 111 113
f 80 113 112
f 81 114 115
f 81 115 83
f 81 83 82
f 83 115 84
f 84 115 116
f 84 116 85
f 85 117 118
f 85 118 86
f 85 116 117
f 86 118 119
f 86 119 120
f 86 120 121
f 86 121 87
f 87 121 122
f 87 122 88
f 88 122 89
f 89 122 123
f 89 123 91
f 89 91 90
f 91 123 124
f 91 124 125
f 91 125 126
f 91 126 127
f 91 127 92
f 92 127 93
f 93 127 128
f 93 128 94
f 94 97 96
f 94 128 129
f 94 129 130
f 94 130 131
f 94 131 97
f 97 131 132
f 97 132 98
f 98 132 130
f 98 130 133
f 98 133 134
f 98 134 135
f 98 135 136
f 98 136 137
f 98 137 105
f 100 138 101
f 100 107 106
f 100 106 139
f 100 139 140
f 100 140 138
f 101 138 102
f 102 138 141
f 102 141 142
f 102 142 143
f 102 143 144
f 102 144 145
f 102 145 103
f 105 137 106
f 106 137 146
f 106 146 147
f 106 147 139
f 108 110 149
f 108 149 148
f 110 150 149
f 111 151 113
f 112 113 153
f 112 153 152
f 113 154 155
f 113 155 153
f 113 151 156
f 113 156 154
f 114 157 117
f 114 117 115
f 115 117 116
f 117 157 158
f 117 158 159
f 117 159 118
f 118 159 160
f 118 160 161
f 118 161 119
f 119 161 162
f 119 162 120
f 120 162 163
f 120 163 164
f 120 164 165
f 120 165 166
f 120 166 167
f 120 167 121
f 121 167 168
f 121 168 122
f 122 168 123
f 123 168 124
f 124 168 169
f 124 169 170
f 124 170 125
f 125 170 171
f 125 171 126
f 126 128 127
f 126 171 172
f 126 172 173
f 126 173 174
f 126 174 128
f 128 174 129
f 129 174 175
f 129 175 176
f 129 176 130
f 130 176 134
f 130 134 133
f 130 132 131
f 134 177 135
f 134 176 177
f 135 177 178
f 135 178 179
f 135 179 180
f 135 180 181
f 135 181 136
f 136 146 137
f 136 181 146
f 138 140 141
f 139 147 182
f 139 182 140
f 140 183 141
f 140 182 183
f 141 183 184
f 141 184 142
f 146 181 185
f 146 185 186
f 146 186 187
f 146 187 147
f 147 187 188
f 147 188 182
f 148 149 190
f 148 190 191
f 148 191 189
f 149 150 192
f 149 192 190
f 150 193 192
f 152 153 194
f 153 155 201
f 153 201 195
f 153 195 196
f 153 196 194
f 154 156 197
f 154 197 198
f 154 198 199
f 154 199 155
f 155 199 200
f 155 200 201
f 158 202 159
f 159 202 203
f 159 203 160
f 160 204 161
f 160 203 205
f 160 205 204
f 161 204 162
f 162 204 163
f 163 205 206
f 163 206 164
f 163 204 205
f 164 207 166
f 164 166 165
f 164 206 208
f 164 208 209
f 164 209 207
f 166 168 167
f 166 207 210
f 166 210 169
f 166 169 168
f 169 210 170
f 170 210 211
f 170 211 171
f 171 211 212
f 171 212 213
f 171 213 172
f 172 213 173
f 173 175 174
f 173 213 214
f 173 214 215
f 173 215 216
f 173 216 217
f 173 217 175
f 175 217 216
f 175 216 176
f 176 216 215
f 176 215 218
f 176 218 177
f 177 218 219
f 177 219 179
f 177 179 178
f 179 220 181
f 179 181 180
f 179 219 221
f 179 221 220
f 181 220 222
f 181 222 185
f 182 188 183
f 183 223 184
f 183 188 224
f 183 224 225
f 183 225 226
f 183 226 223
f 185 222 227
f 185 227 186
f 186 228 187
f 186 227 222
f 186 222 229
f 186 229 230
f 186 230 228
f 187 228 188
f 188 228 231
f 188 231 224
f 189 191 232
f 190 192 233
f 190 233 234
f 190 234 191
f 191 235 236
f 191 236 232
f 191 234 237
f 191 237 235
f 192 193 238
f 192 238 239
f 192 239 233
f 193 240 238
f 194 196 241
f 195 242 243
f 195 243 241
f 195 241 196
f 195 201 244
f 195 244 245
f 195 245 246
f 195 246 242
f 198 247 199
f 199 247 248
f 199 248 200
f 200 249 250
f 200 250 201
f 200 248 249
f 201 250 251
f 201 251 252
f 201 252 244
f 202 253 203
f 203 253 254
f 203 254 205
f 205 255 256
f 205 256 206
f 205 254 255
f 206 256 257
f 206 257 208
f 207 209 210
f 208 257 258
f 208 258 259
f 208 259 260
f 208 260 209
f 209 260 261
f 209 261 262
f 209 262 210
f 210 262 211
f 211 262 263
f 211 263 212
f 212 263 264
f 212 264 265
f 212 265 213
f 213 265 214
f 214 265 266
f 214 266 215
f 215 266 267
f 215 267 268
f 215 268 269
f 215 269 270
f 215 270 271
f 215 271 218
f 218 271 219
f 219 271 270
f 219 270 272
f 219 272 221
f 220 221 273
f 220 273 274
f 220 274 222
f 221 274 273
f 221 272 275
f 221 275 276
f 221 276 277
f 221 277 278
f 221 278 274
f 222 274 229
f 224 231 279
f 224 279 225
f 225 279 280
f 228 230 281
f 228 281 231
f 229 274 282
f 229 282 283
f 229 283 230
f 230 283 281
f 231 284 279
f 231 281 284
f 233 239 234
f 234 239 285
f 234 285 286
f 234 286 237
f 235 237 288
f 235 288 287
f 237 286 288
f 238 240 289
f 238 289 290
f 238 290 239
f 239 290 283
f 239 283 285
f 240 291 289
f 242 292 243
f 242 246 292
f 244 258 257
f 244 257 293
f 244 293 294
f 244 294 245
f 244 252 258
f 245 294 246
f 246 295 296
f 246 296 292
f 246 294 297
f 246 297 298
f 246 298 295
f 247 299 248
f 248 299 300
f 248 300 301
f 248 301 302
f 248 302 249
f 249 302 301
f 249 301 303
f 249 303 304
f 249 304 305
f 249 305 250
f 250 305 251
f 251 305 259
f 251 259 258
f 251 258 252
f 253 306 254
f 254 306 255
f 255 307 308
f 255 308 256
f 255 306 307
f 256 308 293
f 256 293 257
f 259 305 260
f 260 305 304
f 260 304 309
f 260 309 261
f 261 309 310
f 261 310 311
f 261 311 312
f 261 312 263
f 261 263 262
f 263 312 313
f 263 313 264
f 264 313 314
f 264 314 265
f 265 314 315
f 265 315 267
f 265 267 266
f 267 315 316
f 267 316 268
f 268 316 269
f 269 275 270
f 269 316 317
f 269 317 318
f 269 318 276
f 269 276 275
f 270 275 272
f 274 278 319
f 274 319 320
f 274 320 286
f 274 286 282
f 276 321 277
f 276 318 322
f 276 322 323
f 276 323 321
f 277 321 319
f 277 319 278
f 279 284 324
f 279 324 280
f 281 283 290
f 281 290 284
f 282 286 283
f 283 286 285
f 284 291 325
f 284 325 324
f 284 290 289
f 284 289 291
f 286 320 288
f 287 288 326
f 288 327 326
f 288 320 327
f 293 308 328
f 293 328 297
f 293 297 294
f 297 328 329
f 297 329 298
f 299 330 300
f 300 330 331
f 300 331 301
f 301 331 332
f 301 332 303
f 303 332 304
f 304 332 309
f 307 333 308
f 308 333 329
f 308 329 328
f 309 332 334
f 309 334 310
f 310 334 335
f 310 335 336
f 310 336 311
f 311 313 312
f 311 336 337
f 311 337 313
f 313 337 338
f 313 338 314
f 314 338 315
f 315 337 339
f 315 339 317
f 315 317 316
f 315 338 337
f 317 340 341
f 317 341 318
f 317 339 340
f 318 341 342
f 318 342 343
f 318 343 344
f 318 344 322
f 319 321 345
f 319 345 346
f 319 346 320
f 320 346 327
f 321 323 347
f 321 347 345
f 330 348 334
f 330 334 331
f 331 334 332
f 334 348 349
f 334 349 335
f 335 349 350
f 335 350 351
f 335 351 337
f 335 337 336
f 337 351 352
f 337 352 339
f 339 352 340
f 350 352 351

