# https://github.com/mikedh/trimesh
v -0.00684095 0.01988328 -0.00384386
v -0.01822828 0.01988328 -0.00384386
v -0.00684606 0.01988328 -0.00382791
v -0.02343726 0.00215875 -0.00296675
v -0.02320258 0.00215875 -0.00382392
v -0.02320003 0.00215875 -0.00383588
v -0.02296789 0.00377921 -0.00384386
v -0.02135316 0.01657815 -0.00384386
v -0.02827636 0.01651569 0.00668937
v -0.03076351 0.01664060 0.01108286
v -0.03289608 0.01988328 0.02419158
v -0.02794730 0.00215875 0.00727144
v -0.02697794 0.00215875 0.00547338
v -0.02617950 0.00215875 0.00391851
v -0.02600859 0.00215875 0.00356368
v -0.02562085 0.00215875 0.00275436
v -0.02535046 0.00215875 0.00212444
v -0.02481986 0.00215875 0.00082473
v -0.02460304 0.00215875 0.00025062
v -0.02388878 0.00215875 -0.00167502
v -0.02359287 0.00215875 -0.00248435
v -0.01570031 0.01988328 0.01227891
v -0.02490659 0.00215875 -0.00384386
v -0.02251383 0.01527518 -0.00384386
v -0.02353420 0.01408672 -0.00384386
v -0.03289608 0.01433655 0.01138187
v -0.03289608 0.01517108 0.01252609
v -0.03289608 0.01541051 0.01298458
v -0.03289608 0.01619125 0.01477866
v -0.03289608 0.01988328 0.03688567
v -0.03289608 0.00215875 0.01624183
v -0.01587632 0.01988328 0.01256995
v -0.02872532 0.00215875 -0.00384386
v -0.02425866 0.01310298 -0.00384386
v -0.03289608 0.01411448 0.01115861
v -0.02432753 0.01300756 -0.00384386
v -0.02552902 0.01118931 -0.00384386
v -0.02624838 0.01003901 -0.00384386
v -0.01859051 0.01988328 0.01667241
v -0.01660589 0.01988328 0.01373809
v -0.01745280 0.01988328 0.01502983
v -0.03289608 0.00215875 0.00500692
v -0.02857737 0.00372543 -0.00384386
v -0.03289608 0.01296072 0.01048882
v -0.02625858 0.01001993 -0.00384386
v -0.02706467 0.00842895 -0.00384386
v -0.02798811 0.00613878 -0.00384386
v -0.02800852 0.00608673 -0.00384386
v -0.02835544 0.00493644 -0.00384386
v -0.03289608 0.00377921 0.00549730
v -0.03289608 0.01169245 0.00979112
v -0.03289608 0.00473519 0.00599167
v -0.03289608 0.00602081 0.00667740
f 1 2 11
f 1 11 30
f 1 30 39
f 1 39 41
f 1 41 40
f 1 40 32
f 1 32 22
f 1 22 3
f 1 3 4
f 1 4 5
f 1 5 6
f 1 6 7
f 1 7 23
f 1 23 33
f 1 33 43
f 1 43 49
f 1 49 48
f 1 48 47
f 1 47 46
f 1 46 45
f 1 45 38
f 1 38 37
f 1 37 36
f 1 36 34
f 1 34 25
f 1 25 24
f 1 24 8
f 1 8 2
f 2 8 9
f 2 9 10
f 2 10 11
f 3 12 13
f 3 13 14
f 3 14 15
f 3 15 16
f 3 16 17
f 3 17 18
f 3 18 19
f 3 19 20
f 3 20 21
f 3 21 4
f 3 22 12
f 4 21 20
f 4 20 19
f 4 19 18
f 4 18 17
f 4 17 16
f 4 16 15
f 4 15 14
f 4 14 13
f 4 13 12
f 4 12 31
f 4 31 42
f 4 42 33
f 4 33 23
f 4 23 6
f 4 6 5
f 6 23 7
f 8 24 9
f 9 24 25
f 9 25 26
f 9 26 27
f 9 27 10
f 10 27 28
f 10 28 29
f 10 29 11
f 11 29 28
f 11 28 27
f 11 27 26
f 11 26 35
f 11 35 44
f 11 44 51
f 11 51 53
f 11 53 52
f 11 52 50
f 11 50 42
f 11 42 31
f 11 31 30
f 12 22 31
f 22 32 31
f 25 34 26
f 26 34 36
f 26 36 37
f 26 37 38
f 26 38 35
f 30 31 39
f 31 32 40
f 31 40 41
f 31 41 39
f 33 42 43
f 35 38 45
f 35 45 46
f 35 46 47
f 35 47 48
f 35 48 49
f 35 49 44
f 42 50 43
f 43 50 49
f 44 49 51
f 49 50 52
f 49 52 53
f 49 53 51

