# https://github.com/mikedh/trimesh
v -0.00223923 -0.02194006 -0.00384386
v -0.01674269 -0.02194006 -0.00384386
v -0.00223923 -0.02719964 -0.00384386
v -0.00223923 -0.02194006 -0.00968424
v -0.01633428 -0.02248892 -0.00384386
v -0.02831585 -0.02194006 -0.04162645
v -0.02831585 -0.02979254 -0.05401478
v -0.00809728 -0.02979254 -0.02618602
v -0.00761485 -0.02979254 -0.02568833
v -0.00675975 -0.02979254 -0.02503473
v -0.00623393 -0.02979254 -0.02469294
v -0.00431954 -0.02979254 -0.02348769
v -0.00380648 -0.02979254 -0.02322385
v -0.00223923 -0.02979254 -0.02244434
v -0.01065746 -0.02511795 -0.00384386
v -0.01612498 -0.02979254 -0.03458082
v -0.01556852 -0.02979254 -0.03396920
v -0.00223923 -0.02199233 -0.01014595
v -0.00237196 -0.02194006 -0.01001403
v -0.01631897 -0.02250814 -0.00384386
v -0.02831585 -0.02194006 -0.05672510
v -0.02831585 -0.02979254 -0.06510191
v -0.01683713 -0.02979254 -0.03552223
v -0.01320744 -0.02448298 -0.00384386
v -0.01516778 -0.02354053 -0.00384386
v -0.00223923 -0.02979254 -0.04150053
v -0.00223923 -0.02207381 -0.01079955
v -0.00272166 -0.02194006 -0.01079955
v -0.02809888 -0.02194006 -0.05643128
v -0.00223923 -0.02479047 -0.02489082
v -0.00223923 -0.02232519 -0.01245452
v -0.02315974 -0.02194006 -0.04780263
v -0.02715189 -0.02194006 -0.05487825
v -0.00223923 -0.02416704 -0.02242035
v -0.00223923 -0.02245510 -0.01319207
v -0.02458150 -0.02194006 -0.05037504
v -0.00223923 -0.02403482 -0.02176676
v -0.00223923 -0.02359127 -0.01942820
f 1 2 5
f 1 5 20
f 1 20 25
f 1 25 24
f 1 24 15
f 1 15 3
f 1 3 14
f 1 14 26
f 1 26 30
f 1 30 34
f 1 34 37
f 1 37 38
f 1 38 35
f 1 35 31
f 1 31 27
f 1 27 18
f 1 18 4
f 1 4 19
f 1 19 28
f 1 28 32
f 1 32 36
f 1 36 33
f 1 33 29
f 1 29 21
f 1 21 6
f 1 6 2
f 2 6 7
f 2 7 5
f 3 8 9
f 3 9 10
f 3 10 11
f 3 11 12
f 3 12 13
f 3 13 14
f 3 15 16
f 3 16 17
f 3 17 8
f 4 18 19
f 5 7 20
f 6 21 22
f 6 22 7
f 7 22 26
f 7 26 14
f 7 14 13
f 7 13 12
f 7 12 11
f 7 11 10
f 7 10 9
f 7 9 8
f 7 8 17
f 7 17 16
f 7 16 23
f 7 23 24
f 7 24 25
f 7 25 20
f 15 24 16
f 16 24 23
f 18 27 28
f 18 28 19
f 21 29 26
f 21 26 22
f 26 29 30
f 27 31 28
f 28 31 32
f 29 33 30
f 30 33 34
f 31 35 36
f 31 36 32
f 33 36 37
f 33 37 34
f 35 38 36
f 36 38 37

