# https://github.com/mikedh/trimesh
v -0.05709520 -0.02193797 -0.10143062
v -0.05713173 -0.02178568 -0.10143062
v -0.05048582 -0.02193797 -0.10143062
v -0.05701979 -0.02193797 -0.09926923
v -0.05705160 -0.02178568 -0.09911510
v -0.05759718 -0.01946170 -0.10143062
v -0.05754887 -0.01946170 -0.09911510
v -0.05268109 -0.00062993 -0.10143062
v -0.04710041 -0.00062993 -0.07357474
v -0.04710041 -0.02193797 -0.08195242
v -0.05701271 -0.02193797 -0.09912245
v -0.05685599 -0.02193797 -0.09694271
v -0.05688310 -0.02178568 -0.09679225
v -0.05740510 -0.01946170 -0.09679225
v -0.05796954 -0.01713771 -0.10143062
v -0.05795540 -0.01713771 -0.09911510
v -0.05783992 -0.01713771 -0.09679225
v -0.05912314 -0.00062993 -0.10143062
v -0.04710041 -0.00062993 -0.06395306
v -0.04710041 -0.02193797 -0.06980240
v -0.05684303 -0.02193797 -0.09679225
v -0.05666628 -0.02193797 -0.09508956
v -0.05720125 -0.01946170 -0.09446573
v -0.05766434 -0.01713771 -0.09446573
v -0.05829712 -0.01481373 -0.10143062
v -0.05830065 -0.01481373 -0.09911510
v -0.05820285 -0.01481373 -0.09679225
v -0.05803788 -0.01481373 -0.09446573
v -0.05912786 -0.00086984 -0.10143062
v -0.05913257 -0.00062993 -0.09911510
v -0.04751873 -0.00062993 -0.06454754
v -0.04710041 -0.00086984 -0.06394206
v -0.04710041 -0.02147901 -0.06945746
v -0.04798889 -0.02193797 -0.07109042
v -0.05657673 -0.02193797 -0.09424556
v -0.05656847 -0.02193797 -0.09417584
v -0.05691373 -0.01946170 -0.09214288
v -0.05740275 -0.01713771 -0.09214288
v -0.05777982 -0.01481373 -0.09214288
v -0.05849272 -0.01333047 -0.10143062
v -0.05849272 -0.01335551 -0.09911510
v -0.05844559 -0.01290072 -0.09679225
v -0.05836546 -0.01228948 -0.09464922
v -0.05807912 -0.01248975 -0.09214288
v -0.05911843 -0.00319382 -0.10143062
v -0.05913728 -0.00319382 -0.09911510
v -0.05913728 -0.00086984 -0.09911510
v -0.05903830 -0.00086984 -0.09679225
v -0.05903241 -0.00062993 -0.09679225
v -0.04856039 -0.00062993 -0.06604106
v -0.04752108 -0.00086984 -0.06454387
v -0.04863581 -0.00319382 -0.06627224
v -0.04747395 -0.00319382 -0.06461359
v -0.04710041 -0.00206729 -0.06401545
v -0.04723946 -0.02137262 -0.06958222
v -0.04710041 -0.02104092 -0.06918591
v -0.04810319 -0.02183575 -0.07119684
v -0.04829291 -0.02193797 -0.07156013
v -0.05654019 -0.02193797 -0.09396300
v -0.05642236 -0.02143520 -0.09214288
v -0.05629038 -0.02093453 -0.09053926
v -0.05649659 -0.01953054 -0.08978700
v -0.05703039 -0.01713771 -0.08981635
v -0.05742749 -0.01481373 -0.08981635
v -0.05774447 -0.01248975 -0.08981635
v -0.05861881 -0.01217265 -0.10143062
v -0.05862706 -0.01219143 -0.09911510
v -0.05853161 -0.01138200 -0.09554459
v -0.05857167 -0.01173873 -0.09679225
v -0.05847623 -0.01059552 -0.09399603
v -0.05835486 -0.00995924 -0.09235939
v -0.05798839 -0.01016785 -0.08981635
v -0.05909014 -0.00551780 -0.10143062
v -0.05909014 -0.00551780 -0.09911510
v -0.05903477 -0.00319382 -0.09679225
v -0.05887686 -0.00086984 -0.09446573
v -0.05887098 -0.00062993 -0.09446573
v -0.04868058 -0.00062993 -0.06621353
v -0.04868294 -0.00086984 -0.06620987
v -0.04944298 -0.00319382 -0.06743551
v -0.04936285 -0.00551780 -0.06755294
v -0.04710041 -0.00319382 -0.06408517
v -0.04752344 -0.01935948 -0.06884463
v -0.04878074 -0.01946170 -0.07076750
v -0.04928037 -0.02075094 -0.07230873
v -0.04710041 -0.01971829 -0.06842997
v -0.04933928 -0.02193797 -0.07324814
v -0.05628214 -0.02193797 -0.09214288
v -0.05593688 -0.02193797 -0.09033377
v -0.05588739 -0.02173978 -0.08978700
v -0.05613248 -0.02035040 -0.08899070
v -0.05632691 -0.01880038 -0.08811734
v -0.05651662 -0.01722116 -0.08740176
v -0.05699386 -0.01481373 -0.08749351
v -0.05733912 -0.01248975 -0.08749351
v -0.05758775 -0.01016785 -0.08749351
v -0.05881206 -0.01016785 -0.10143062
v -0.05882149 -0.01016785 -0.09911510
v -0.05857756 -0.00995924 -0.09464922
v -0.05871779 -0.01016785 -0.09679225
v -0.05852925 -0.00904758 -0.09327678
v -0.05842791 -0.00784178 -0.09183830
v -0.05814746 -0.00784178 -0.08981635
v -0.05899352 -0.00784178 -0.10143062
v -0.05898881 -0.00784178 -0.09911510
v -0.05888158 -0.00784178 -0.09679225
v -0.05897821 -0.00551780 -0.09679225
v -0.05887098 -0.00319382 -0.09446573
v -0.05865769 -0.00086984 -0.09223462
v -0.05885094 -0.00062993 -0.09426024
v -0.04948422 -0.00062993 -0.06737313
v -0.04948540 -0.00086984 -0.06737313
v -0.05043044 -0.00319382 -0.06890335
v -0.05029021 -0.00551780 -0.06890335
v -0.04994260 -0.00796487 -0.06868684
v -0.04928861 -0.00727226 -0.06765936
v -0.04710041 -0.00463536 -0.06426865
v -0.04710041 -0.01869816 -0.06789788
v -0.04907297 -0.01783866 -0.07030880
v -0.04951957 -0.01946170 -0.07193077
v -0.05045282 -0.01946170 -0.07355272
v -0.04965980 -0.02162922 -0.07359309
v -0.04961384 -0.02193797 -0.07373620
v -0.05586500 -0.02193797 -0.08998515
v -0.05582258 -0.02193797 -0.08979067
v -0.05530764 -0.02193797 -0.08764763
v -0.05532060 -0.02178568 -0.08749351
v -0.05597105 -0.01953054 -0.08740176
v -0.05614663 -0.01805145 -0.08656877
v -0.05631749 -0.01650143 -0.08590824
v -0.05645182 -0.01474280 -0.08514863
v -0.05681593 -0.01248975 -0.08517065
v -0.05707517 -0.01016785 -0.08517065
v -0.05774565 -0.00784178 -0.08749351
v -0.05724014 -0.00784178 -0.08517065
v -0.05871072 -0.00784178 -0.09446573
v -0.05856343 -0.00784178 -0.09300157
v -0.05846916 -0.00551780 -0.09142364
v -0.05861999 -0.00551780 -0.09258690
v -0.05785288 -0.00551780 -0.08749351
v -0.05824527 -0.00551780 -0.08981635
v -0.05881324 -0.00551780 -0.09446573
v -0.05865298 -0.00319382 -0.09231903
v -0.05865416 -0.00062993 -0.09226031
v -0.05851394 -0.00086984 -0.09107503
v -0.05851158 -0.00062993 -0.09109704
v -0.05864002 -0.00062993 -0.09213921
v -0.05039744 -0.00062993 -0.06874555
v -0.05050350 -0.00086984 -0.06890335
v -0.05138019 -0.00319382 -0.07034916
v -0.05132009 -0.00551780 -0.07044458
v -0.05123879 -0.00784178 -0.07056201
v -0.05113274 -0.01016785 -0.07070145
v -0.04997088 -0.01016785 -0.06902077
v -0.04921320 -0.00882228 -0.06776577
v -0.04737615 -0.00551780 -0.06476771
v -0.04710041 -0.00551780 -0.06438974
v -0.04710041 -0.01779485 -0.06748688
v -0.04933457 -0.01628865 -0.06991615
v -0.04984716 -0.01709390 -0.07114179
v -0.05136840 -0.01534988 -0.07272707
v -0.05116927 -0.01733799 -0.07352336
v -0.05153691 -0.01824547 -0.07474901
v -0.05132481 -0.01946170 -0.07517835
v -0.05091121 -0.02171058 -0.07599299
v -0.05080987 -0.02193797 -0.07597832
v -0.05526521 -0.02193797 -0.08748616
v -0.05464305 -0.02193797 -0.08530276
v -0.05465836 -0.02178568 -0.08517065
v -0.05537952 -0.01946170 -0.08517065
v -0.05594395 -0.01722116 -0.08514863
v -0.05610420 -0.01546879 -0.08435968
v -0.05625385 -0.01392085 -0.08382758
v -0.05636108 -0.01248975 -0.08345695
v -0.05649188 -0.01016785 -0.08300926
v -0.05653666 -0.00807335 -0.08261662
v -0.05735444 -0.00551780 -0.08517065
v -0.05674523 -0.00551780 -0.08284413
v -0.05850215 -0.00319382 -0.09115576
v -0.05791887 -0.00319382 -0.08749351
v -0.05831361 -0.00319382 -0.08981635
v -0.05833129 -0.00086984 -0.08981635
v -0.05849037 -0.00062993 -0.09094292
v -0.05050114 -0.00062993 -0.06890335
v -0.05140965 -0.00062993 -0.07030513
v -0.05141083 -0.00086984 -0.07030513
v -0.05207777 -0.00319382 -0.07151243
v -0.05202828 -0.00551780 -0.07160416
v -0.05196230 -0.00784178 -0.07172526
v -0.05188099 -0.01016785 -0.07186471
v -0.05172780 -0.01248975 -0.07211424
v -0.05096306 -0.01248975 -0.07095098
v -0.04980120 -0.01248975 -0.06926297
v -0.04914603 -0.01016785 -0.06785751
v -0.04710041 -0.00736405 -0.06468331
v -0.04720647 -0.01713771 -0.06734744
v -0.04710041 -0.01713771 -0.06720799
v -0.04870415 -0.01481373 -0.06846666
v -0.04953960 -0.01481373 -0.06962993
v -0.05159818 -0.01379986 -0.07232341
v -0.05198822 -0.01466979 -0.07352336
v -0.05178319 -0.01669545 -0.07427930
v -0.05226277 -0.01733799 -0.07566641
v -0.05189748 -0.01946170 -0.07633794
v -0.05164886 -0.02088654 -0.07684434
v -0.05105378 -0.02193797 -0.07644068
v -0.05460416 -0.02193797 -0.08517065
v -0.05406094 -0.02193797 -0.08348998
v -0.05408686 -0.02178568 -0.08341659
v -0.05447926 -0.01968909 -0.08262029
v -0.05526286 -0.01713771 -0.08284413
v -0.05583436 -0.01474280 -0.08296890
v -0.05602172 -0.01248975 -0.08229736
v -0.05615487 -0.01016785 -0.08184967
v -0.05620201 -0.00900377 -0.08168821
v -0.05625739 -0.00745376 -0.08152675
v -0.05681711 -0.00319382 -0.08284413
v -0.05741924 -0.00319382 -0.08517065
v -0.05630570 -0.00551780 -0.08138363
v -0.05634459 -0.00319382 -0.08126988
v -0.05792947 -0.00086984 -0.08749351
v -0.05743221 -0.00086984 -0.08517065
v -0.05828533 -0.00062993 -0.08957783
v -0.05832658 -0.00062993 -0.08981635
v -0.05210134 -0.00062993 -0.07146839
v -0.05210134 -0.00086984 -0.07146472
v -0.05334568 -0.00298520 -0.07378390
v -0.05310648 -0.00551780 -0.07355272
v -0.05297804 -0.00784178 -0.07355272
v -0.05281071 -0.01016785 -0.07355272
v -0.05250552 -0.01248975 -0.07355272
v -0.04897282 -0.01248975 -0.06809970
v -0.04710041 -0.01187016 -0.06549796
v -0.04817625 -0.01016785 -0.06658049
v -0.04710041 -0.01014073 -0.06516403
v -0.04754229 -0.01481373 -0.06691076
v -0.04710041 -0.01481373 -0.06633830
v -0.05389833 -0.01373101 -0.07699113
v -0.05324434 -0.01462806 -0.07608107
v -0.05369212 -0.01527894 -0.07744249
v -0.05347294 -0.01722533 -0.07821310
v -0.05275768 -0.01946170 -0.07820210
v -0.05198940 -0.02171058 -0.07820210
v -0.05179379 -0.02193797 -0.07795624
v -0.05369918 -0.02193797 -0.08248084
v -0.05367209 -0.02178568 -0.08225700
v -0.05387476 -0.02061534 -0.08169555
v -0.05411043 -0.01906532 -0.08110107
v -0.05437792 -0.01722533 -0.08040752
v -0.05501423 -0.01481373 -0.08052494
v -0.05543607 -0.01248975 -0.08052494
v -0.05572124 -0.01016785 -0.08052494
v -0.05591920 -0.00807335 -0.08066072
v -0.05590389 -0.00551780 -0.08022037
v -0.05683950 -0.00086984 -0.08284413
v -0.05635755 -0.00086984 -0.08123685
v -0.05594512 -0.00319382 -0.08010662
v -0.05792475 -0.00062993 -0.08749351
v -0.05787527 -0.00062993 -0.08725131
v -0.05736740 -0.00062993 -0.08492846
v -0.05742867 -0.00062993 -0.08517065
v -0.05320546 -0.00062993 -0.07346465
v -0.05338221 -0.00096163 -0.07378390
v -0.05387948 -0.00207146 -0.07471231
v -0.05384177 -0.00362148 -0.07479304
v -0.05379463 -0.00551780 -0.07489579
v -0.05373218 -0.00784178 -0.07503891
v -0.05364616 -0.01016785 -0.07522973
v -0.05349297 -0.01248975 -0.07557833
v -0.04710041 -0.01386036 -0.06603006
v -0.04710041 -0.01304675 -0.06578419
v -0.04767663 -0.01250644 -0.06640068
v -0.05400909 -0.01248975 -0.07673793
v -0.05458531 -0.01248975 -0.07820210
v -0.05417877 -0.01462806 -0.07821310
v -0.05404091 -0.01650769 -0.07899473
v -0.05380170 -0.01805771 -0.07955250
v -0.05363438 -0.01968909 -0.08040752
v -0.05298275 -0.02178568 -0.08052494
v -0.05195522 -0.02193797 -0.07830485
v -0.05363673 -0.02193797 -0.08231571
v -0.05488696 -0.01016785 -0.07820210
v -0.05505193 -0.00784178 -0.07820210
v -0.05516977 -0.00551780 -0.07820210
v -0.05525697 -0.00319382 -0.07820210
v -0.05683478 -0.00062993 -0.08284413
v -0.05635519 -0.00062993 -0.08124419
v -0.05595220 -0.00086984 -0.08007359
v -0.05527818 -0.00086984 -0.07820210
v -0.05336336 -0.00062993 -0.07375088
v -0.05387948 -0.00179609 -0.07471231
v -0.05426951 -0.00096163 -0.07565173
v -0.05425773 -0.00298520 -0.07569209
v -0.05430486 -0.00551780 -0.07605906
v -0.05424241 -0.00784178 -0.07619850
v -0.05415874 -0.01016785 -0.07639299
v -0.05292383 -0.02193797 -0.08052494
v -0.05594984 -0.00062993 -0.08008093
v -0.05527464 -0.00062993 -0.07820210
v -0.05587796 -0.00062993 -0.07987911
v -0.05428129 -0.00062993 -0.07568842
v -0.05518156 -0.00062993 -0.07796357
v -0.05387476 -0.00062993 -0.07471965
v -0.05408451 -0.00062993 -0.07521871
f 1 2 6
f 1 6 15
f 1 15 25
f 1 25 40
f 1 40 66
f 1 66 97
f 1 97 104
f 1 104 73
f 1 73 45
f 1 45 29
f 1 29 18
f 1 18 8
f 1 8 3
f 1 3 10
f 1 10 20
f 1 20 34
f 1 34 58
f 1 58 87
f 1 87 123
f 1 123 166
f 1 166 206
f 1 206 244
f 1 244 280
f 1 280 297
f 1 297 281
f 1 281 245
f 1 245 208
f 1 208 207
f 1 207 168
f 1 168 167
f 1 167 126
f 1 126 125
f 1 125 124
f 1 124 89
f 1 89 88
f 1 88 59
f 1 59 36
f 1 36 35
f 1 35 22
f 1 22 21
f 1 21 12
f 1 12 11
f 1 11 4
f 1 4 5
f 1 5 2
f 2 5 7
f 2 7 6
f 3 8 9
f 3 9 10
f 4 11 5
f 5 11 12
f 5 12 13
f 5 13 14
f 5 14 7
f 6 7 16
f 6 16 15
f 7 14 17
f 7 17 16
f 8 18 30
f 8 30 49
f 8 49 77
f 8 77 110
f 8 110 144
f 8 144 147
f 8 147 146
f 8 146 183
f 8 183 224
f 8 224 223
f 8 223 258
f 8 258 259
f 8 259 261
f 8 261 260
f 8 260 286
f 8 286 287
f 8 287 298
f 8 298 300
f 8 300 299
f 8 299 302
f 8 302 301
f 8 301 304
f 8 304 303
f 8 303 290
f 8 290 262
f 8 262 225
f 8 225 185
f 8 185 184
f 8 184 148
f 8 148 111
f 8 111 78
f 8 78 50
f 8 50 31
f 8 31 19
f 8 19 9
f 9 19 32
f 9 32 54
f 9 54 82
f 9 82 117
f 9 117 157
f 9 157 195
f 9 195 235
f 9 235 233
f 9 233 271
f 9 271 270
f 9 270 237
f 9 237 197
f 9 197 158
f 9 158 118
f 9 118 86
f 9 86 56
f 9 56 33
f 9 33 20
f 9 20 10
f 12 21 13
f 13 21 22
f 13 22 23
f 13 23 14
f 14 23 24
f 14 24 17
f 15 16 26
f 15 26 25
f 16 17 27
f 16 27 26
f 17 24 28
f 17 28 27
f 18 29 47
f 18 47 30
f 19 31 32
f 20 33 34
f 22 35 23
f 23 35 36
f 23 36 37
f 23 37 38
f 23 38 24
f 24 38 39
f 24 39 28
f 25 26 40
f 26 41 40
f 26 27 41
f 27 28 42
f 27 42 41
f 28 43 42
f 28 39 44
f 28 44 43
f 29 45 46
f 29 46 47
f 30 47 48
f 30 48 49
f 31 50 51
f 31 51 32
f 32 51 52
f 32 52 53
f 32 53 54
f 33 55 34
f 33 56 55
f 34 57 58
f 34 55 57
f 36 59 37
f 37 59 60
f 37 60 61
f 37 61 62
f 37 62 63
f 37 63 38
f 38 63 64
f 38 64 39
f 39 64 65
f 39 65 44
f 40 41 67
f 40 67 66
f 41 42 67
f 42 43 68
f 42 68 69
f 42 69 67
f 43 44 70
f 43 70 68
f 44 71 70
f 44 65 72
f 44 72 71
f 45 73 46
f 46 73 74
f 46 74 75
f 46 75 48
f 46 48 47
f 48 75 76
f 48 76 77
f 48 77 49
f 50 78 79
f 50 79 51
f 51 79 52
f 52 79 80
f 52 80 81
f 52 81 53
f 53 82 54
f 53 81 82
f 55 56 83
f 55 83 84
f 55 84 85
f 55 85 57
f 56 86 83
f 57 85 58
f 58 85 87
f 59 88 60
f 60 88 61
f 61 89 90
f 61 90 91
f 61 91 62
f 61 88 89
f 62 91 92
f 62 92 63
f 63 92 93
f 63 93 94
f 63 94 64
f 64 94 95
f 64 95 65
f 65 95 96
f 65 96 72
f 66 67 97
f 67 98 97
f 67 69 98
f 68 70 99
f 68 99 100
f 68 100 69
f 69 100 98
f 70 71 101
f 70 101 99
f 71 72 102
f 71 102 101
f 72 96 103
f 72 103 102
f 73 104 74
f 74 104 105
f 74 105 106
f 74 106 107
f 74 107 75
f 75 107 108
f 75 108 76
f 76 108 109
f 76 109 110
f 76 110 77
f 78 111 79
f 79 111 112
f 79 112 80
f 80 112 113
f 80 113 114
f 80 114 81
f 81 114 115
f 81 115 116
f 81 116 82
f 82 116 117
f 83 86 118
f 83 118 119
f 83 119 84
f 84 119 120
f 84 120 85
f 85 120 121
f 85 121 122
f 85 122 87
f 87 122 123
f 89 124 90
f 90 125 126
f 90 126 127
f 90 127 91
f 90 124 125
f 91 127 128
f 91 128 92
f 92 128 129
f 92 129 93
f 93 129 130
f 93 130 94
f 94 130 131
f 94 131 132
f 94 132 95
f 95 132 133
f 95 133 96
f 96 134 103
f 96 133 135
f 96 135 134
f 97 98 104
f 98 105 104
f 98 100 105
f 99 106 100
f 99 101 136
f 99 136 106
f 100 106 105
f 101 137 136
f 101 102 137
f 102 103 138
f 102 138 139
f 102 139 137
f 103 134 140
f 103 140 141
f 103 141 138
f 106 136 142
f 106 142 107
f 107 142 108
f 108 142 143
f 108 143 109
f 109 144 110
f 109 143 145
f 109 145 146
f 109 146 147
f 109 147 144
f 111 148 112
f 112 148 149
f 112 149 113
f 113 149 150
f 113 150 151
f 113 151 114
f 114 151 152
f 114 152 115
f 115 152 153
f 115 153 154
f 115 154 116
f 116 154 155
f 116 155 156
f 116 156 117
f 117 156 157
f 118 158 159
f 118 159 119
f 119 160 120
f 119 159 160
f 120 160 161
f 120 161 162
f 120 162 121
f 121 162 163
f 121 163 164
f 121 164 122
f 122 164 165
f 122 165 123
f 123 165 166
f 126 167 127
f 127 167 168
f 127 168 169
f 127 169 170
f 127 170 128
f 128 170 129
f 129 170 171
f 129 171 130
f 130 171 172
f 130 172 131
f 131 172 173
f 131 173 132
f 132 173 174
f 132 174 133
f 133 174 175
f 133 175 176
f 133 176 135
f 134 135 177
f 134 177 140
f 135 176 178
f 135 178 177
f 136 137 142
f 137 139 142
f 138 141 179
f 138 179 143
f 138 143 139
f 139 143 142
f 140 180 181
f 140 181 141
f 140 177 180
f 141 181 179
f 143 179 145
f 145 179 181
f 145 181 182
f 145 182 183
f 145 183 146
f 148 184 149
f 149 184 185
f 149 185 186
f 149 186 150
f 150 186 187
f 150 187 188
f 150 188 151
f 151 188 189
f 151 189 152
f 152 189 190
f 152 190 153
f 153 190 191
f 153 191 192
f 153 192 193
f 153 193 154
f 154 193 194
f 154 194 155
f 155 194 156
f 156 194 157
f 157 194 195
f 158 196 159
f 158 197 196
f 159 196 198
f 159 198 199
f 159 199 200
f 159 200 160
f 160 200 161
f 161 201 202
f 161 202 162
f 161 200 201
f 162 202 163
f 163 203 204
f 163 204 164
f 163 202 203
f 164 204 205
f 164 205 165
f 165 205 206
f 165 206 166
f 168 207 169
f 169 207 208
f 169 208 209
f 169 209 210
f 169 210 170
f 170 210 211
f 170 211 171
f 171 211 172
f 172 211 212
f 172 212 173
f 173 212 213
f 173 213 174
f 174 213 214
f 174 214 175
f 175 214 215
f 175 215 176
f 176 215 216
f 176 216 178
f 177 178 217
f 177 217 218
f 177 218 180
f 178 216 219
f 178 219 220
f 178 220 217
f 180 221 182
f 180 182 181
f 180 218 222
f 180 222 221
f 182 221 223
f 182 223 224
f 182 224 183
f 185 225 226
f 185 226 186
f 186 226 187
f 187 226 227
f 187 227 188
f 188 227 228
f 188 228 229
f 188 229 189
f 189 229 190
f 190 229 230
f 190 230 191
f 191 230 231
f 191 231 200
f 191 200 192
f 192 200 199
f 192 199 193
f 193 199 232
f 193 232 194
f 194 232 233
f 194 233 234
f 194 234 195
f 195 234 235
f 196 197 236
f 196 236 198
f 197 237 236
f 198 236 232
f 198 232 199
f 200 231 201
f 201 231 238
f 201 238 239
f 201 239 202
f 202 239 203
f 203 239 240
f 203 240 241
f 203 241 242
f 203 242 204
f 204 242 205
f 205 242 243
f 205 243 244
f 205 244 206
f 208 245 246
f 208 246 247
f 208 247 209
f 209 247 210
f 210 247 248
f 210 248 249
f 210 249 211
f 211 249 250
f 211 250 212
f 212 250 213
f 213 250 251
f 213 251 252
f 213 252 214
f 214 252 215
f 215 252 253
f 215 253 216
f 216 253 254
f 216 254 219
f 217 255 218
f 217 220 256
f 217 256 255
f 218 255 222
f 219 254 257
f 219 257 220
f 220 257 256
f 221 258 223
f 221 222 259
f 221 259 258
f 222 255 260
f 222 260 261
f 222 261 259
f 225 262 226
f 226 262 263
f 226 263 264
f 226 264 227
f 227 264 228
f 228 264 265
f 228 265 266
f 228 266 229
f 229 266 267
f 229 267 230
f 230 267 268
f 230 268 231
f 231 268 269
f 231 269 238
f 232 236 270
f 232 270 271
f 232 271 272
f 232 272 233
f 233 272 271
f 233 235 234
f 236 237 270
f 238 273 274
f 238 274 250
f 238 250 275
f 238 275 276
f 238 276 240
f 238 240 239
f 238 269 273
f 240 276 241
f 241 276 277
f 241 277 242
f 242 277 278
f 242 278 279
f 242 279 243
f 243 279 280
f 243 280 244
f 245 281 246
f 246 281 279
f 246 279 247
f 247 279 278
f 247 278 277
f 247 277 248
f 248 277 276
f 248 276 249
f 249 276 250
f 250 276 275
f 250 274 251
f 251 274 282
f 251 282 252
f 252 282 253
f 253 282 283
f 253 283 254
f 254 283 284
f 254 284 285
f 254 285 257
f 255 286 260
f 255 256 287
f 255 287 286
f 256 257 288
f 256 288 298
f 256 298 287
f 257 285 289
f 257 289 288
f 262 290 263
f 263 290 291
f 263 291 264
f 264 291 292
f 264 292 285
f 264 285 293
f 264 293 294
f 264 294 265
f 265 294 266
f 266 294 295
f 266 295 267
f 267 295 296
f 267 296 268
f 268 296 273
f 268 273 269
f 273 296 282
f 273 282 274
f 279 281 297
f 279 297 280
f 282 296 283
f 283 296 295
f 283 295 294
f 283 294 284
f 284 294 293
f 284 293 285
f 285 292 289
f 288 289 299
f 288 299 300
f 288 300 298
f 289 292 301
f 289 301 302
f 289 302 299
f 290 303 291
f 291 303 292
f 292 303 304
f 292 304 301

