# https://github.com/mikedh/trimesh
v 0.04386052 -0.01934739 0.11005755
v 0.04371274 -0.01934739 0.11087354
v 0.04344051 -0.02010897 0.11005755
v 0.03851705 -0.02168211 0.07640463
v 0.03886706 -0.02100448 0.07640463
v 0.03907318 -0.02059071 0.07640463
v 0.03921707 -0.02019093 0.07640463
v 0.03945041 -0.01954128 0.07640463
v 0.03949708 -0.01939136 0.07640463
v 0.03950874 -0.01934739 0.07640463
v 0.04305550 -0.01934739 0.11225719
v 0.04145712 -0.02301138 0.11131111
v 0.04237492 -0.02178805 0.11005755
v 0.04149602 -0.02306335 0.10871727
v 0.03790259 -0.02274553 0.07640463
v 0.03319692 -0.01934739 0.07640463
v 0.04186547 -0.02178805 0.11185116
v 0.04276383 -0.01934739 0.11263168
v 0.04138323 -0.02057471 0.11351863
v 0.04101767 -0.02178805 0.11301406
v 0.03880873 -0.02489835 0.11316779
v 0.03929096 -0.02548403 0.11161858
v 0.03941930 -0.02562195 0.11005755
v 0.04058210 -0.02424471 0.11005755
v 0.04150768 -0.02308134 0.11005755
v 0.03584921 -0.02558197 0.07640463
v 0.03645200 -0.02488635 0.07640463
v 0.03730758 -0.02372299 0.07640463
v 0.00413844 -0.03413529 0.07640463
v 0.00413844 -0.02901410 0.10308414
v 0.00413844 -0.02880821 0.10540598
v 0.02828125 -0.01934739 0.10294617
v 0.04172546 -0.01934739 0.11376698
v 0.03936485 -0.02334920 0.11372361
v 0.04006487 -0.01934739 0.11505207
v 0.03985486 -0.02178805 0.11409023
v 0.03726091 -0.02573589 0.11383399
v 0.03638589 -0.02728504 0.11304953
v 0.03785982 -0.02638354 0.11233208
v 0.03691479 -0.02772480 0.11150032
v 0.03818649 -0.02678332 0.11005755
v 0.03206912 -0.02987763 0.07918374
v 0.03428195 -0.02743296 0.07752021
v 0.03528920 -0.02619964 0.07640463
v 0.00413844 -0.03975422 0.07640463
v 0.00413844 -0.02975169 0.11406657
v 0.02808291 -0.01934739 0.10540598
v 0.03900706 -0.01934739 0.11582471
v 0.03871150 -0.02016294 0.11564337
v 0.03798815 -0.02411878 0.11422820
v 0.03654923 -0.02269955 0.11575769
v 0.03570532 -0.02422672 0.11545415
v 0.03423139 -0.02507625 0.11576951
v 0.03560809 -0.02647948 0.11425973
v 0.03483808 -0.02788471 0.11376698
v 0.03346137 -0.02957579 0.11258437
v 0.03560809 -0.02828050 0.11231632
v 0.03281191 -0.03035336 0.11194971
v 0.03436362 -0.02987163 0.11049116
v 0.03702368 -0.02781875 0.11005755
v 0.03696146 -0.02776478 0.10857535
v 0.03213523 -0.02994159 0.08073295
v 0.03115521 -0.03066719 0.07991301
v 0.03080909 -0.03075114 0.07752021
v 0.03073131 -0.03070317 0.07640463
v 0.03197189 -0.02978567 0.07752021
v 0.03311915 -0.02862431 0.07752021
v 0.03360138 -0.02797866 0.07640463
v 0.03420417 -0.02736100 0.07640463
v 0.00478790 -0.03969825 0.07640463
v 0.00413844 -0.03976821 0.07752021
v 0.00413844 -0.03029939 0.11522947
v 0.03229857 -0.01934739 0.11557242
v 0.03140799 -0.01934739 0.11455932
v 0.03130298 -0.01934739 0.11438192
v 0.02817236 -0.01934739 0.10565826
v 0.03804649 -0.01934739 0.11620314
v 0.03715980 -0.02114840 0.11606123
v 0.03499752 -0.02352710 0.11609670
v 0.03171133 -0.02727705 0.11566308
v 0.03338359 -0.02647549 0.11535954
v 0.03267969 -0.02572789 0.11608882
v 0.03016352 -0.02782475 0.11601786
v 0.02739845 -0.02987563 0.11584047
v 0.03204190 -0.02988162 0.11349892
v 0.02998073 -0.03235227 0.11142542
v 0.03134188 -0.03178658 0.11005755
v 0.03346137 -0.03048529 0.10985256
v 0.03444140 -0.02992360 0.10894196
v 0.03537086 -0.02914003 0.10985256
v 0.03444140 -0.02992360 0.10888677
v 0.02944016 -0.03200046 0.07984600
v 0.02931961 -0.03191251 0.07752021
v 0.03002740 -0.03126287 0.07640463
v 0.03189411 -0.02970372 0.07640463
v 0.03304525 -0.02854435 0.07640463
v 0.00539069 -0.03964428 0.07640463
v 0.00539069 -0.03965627 0.07752021
v 0.00539069 -0.03964228 0.07984600
v 0.00413844 -0.03976022 0.07859244
v 0.00413844 -0.03092505 0.11586412
v 0.03339915 -0.01934739 0.11617555
v 0.03798426 -0.01934739 0.11622284
v 0.03792982 -0.01941735 0.11622284
v 0.03570532 -0.02187001 0.11627803
v 0.03338359 -0.02422672 0.11630169
v 0.03094131 -0.02647549 0.11625832
v 0.02862737 -0.02831448 0.11618343
v 0.02585063 -0.03024942 0.11605728
v 0.02282500 -0.03224633 0.11586806
v 0.02744901 -0.03223633 0.11353440
v 0.02862737 -0.03192650 0.11310866
v 0.02862737 -0.03268808 0.11194577
v 0.02518951 -0.03458904 0.11126380
v 0.02862737 -0.03325577 0.11005755
v 0.03017907 -0.03246421 0.11005755
v 0.02637565 -0.03393540 0.07984600
v 0.02834736 -0.03280602 0.08217179
v 0.02827736 -0.03277204 0.07984600
v 0.02951017 -0.03205443 0.08217179
v 0.02815680 -0.03270807 0.07752021
v 0.02809069 -0.03266410 0.07640463
v 0.02925349 -0.03186454 0.07640463
v 0.00780186 -0.03936043 0.07640463
v 0.00893744 -0.03922651 0.07640463
v 0.00771241 -0.03938042 0.07752021
v 0.00793797 -0.03934044 0.07996427
v 0.00413844 -0.03974822 0.07984600
v 0.00771241 -0.03888669 0.11005755
v 0.00523124 -0.03913456 0.11003390
v 0.00435233 -0.03922651 0.10924549
v 0.00413844 -0.03146076 0.11623468
v 0.03347304 -0.01934739 0.11619920
v 0.03792982 -0.01934739 0.11623468
v 0.03571310 -0.01934739 0.11653032
v 0.03095298 -0.02411278 0.11656975
v 0.02862737 -0.02643551 0.11658552
v 0.02375058 -0.03104698 0.11614400
v 0.02649620 -0.02896612 0.11631351
v 0.02165831 -0.03241823 0.11597845
v 0.01577039 -0.03453907 0.11584836
v 0.01933269 -0.03500282 0.11409811
v 0.02102051 -0.03474896 0.11377880
v 0.02375058 -0.03287398 0.11471306
v 0.02590119 -0.03261213 0.11394437
v 0.02256833 -0.03447511 0.11338855
v 0.02398392 -0.03419326 0.11288003
v 0.02632120 -0.03344367 0.11239910
v 0.02398392 -0.03481092 0.11171713
v 0.01823989 -0.03691177 0.11126380
v 0.02165831 -0.03599428 0.11005755
v 0.02398392 -0.03518872 0.11005755
v 0.02538784 -0.03466700 0.11005755
v 0.02654676 -0.03419726 0.11005755
v 0.02398392 -0.03523669 0.08217179
v 0.02525562 -0.03463102 0.08217179
v 0.02521284 -0.03460903 0.07984600
v 0.02641842 -0.03396738 0.08217179
v 0.02515450 -0.03457705 0.07854120
v 0.02608008 -0.03398737 0.07766607
v 0.02619286 -0.03382546 0.07640463
v 0.02726233 -0.03317182 0.07640463
v 0.00997969 -0.03906659 0.07640463
v 0.01010802 -0.03906260 0.07752021
v 0.00894522 -0.03922651 0.07752021
v 0.00886355 -0.03921451 0.08081968
v 0.00891022 -0.03922051 0.07927047
v 0.00413844 -0.03923650 0.10939135
v 0.01003802 -0.03859086 0.11005755
v 0.00413844 -0.03919852 0.11072375
v 0.00413844 -0.03247420 0.11641206
v 0.03559643 -0.01934739 0.11651456
v 0.00413844 -0.03340570 0.11656580
v 0.01468536 -0.03108296 0.11664464
v 0.01701097 -0.03108296 0.11666830
v 0.02398392 -0.02876024 0.11662100
v 0.02165831 -0.03108296 0.11639629
v 0.01933269 -0.03275805 0.11615978
v 0.01421868 -0.03469899 0.11596662
v 0.01003802 -0.03616818 0.11508755
v 0.01254253 -0.03617417 0.11457509
v 0.01188918 -0.03700972 0.11371572
v 0.01487203 -0.03546057 0.11492593
v 0.01701097 -0.03531265 0.11449230
v 0.01468536 -0.03674586 0.11325846
v 0.01701097 -0.03647601 0.11273023
v 0.01914213 -0.03618217 0.11217441
v 0.02173997 -0.03519671 0.11252130
v 0.01701097 -0.03704770 0.11156733
v 0.01236364 -0.03824704 0.11005755
v 0.01468536 -0.03781928 0.11005755
v 0.01701097 -0.03732755 0.11005755
v 0.01847323 -0.03698173 0.11005755
v 0.01963215 -0.03663392 0.11005755
v 0.02010271 -0.03677985 0.07984600
v 0.02165831 -0.03620816 0.08217179
v 0.02541896 -0.03467900 0.10861477
v 0.02165831 -0.03622016 0.07984600
v 0.02398392 -0.03521071 0.07984600
v 0.02416670 -0.03501282 0.07766607
v 0.02506895 -0.03453108 0.07698804
v 0.02502228 -0.03450709 0.07640463
v 0.01236364 -0.03866082 0.07640463
v 0.01236364 -0.03868081 0.07752021
v 0.01236364 -0.03867881 0.07984600
v 0.00982413 -0.03909058 0.07996427
v 0.01003802 -0.03797119 0.11237939
v 0.00413844 -0.03914655 0.11093267
v 0.00539069 -0.03340570 0.11657368
v 0.00413844 -0.03444912 0.11636870
v 0.00771241 -0.03340570 0.11656975
v 0.01003802 -0.03340570 0.11655397
v 0.01236364 -0.03340570 0.11650273
v 0.01933269 -0.03108296 0.11659340
v 0.01701097 -0.03314583 0.11625832
v 0.01487203 -0.03362157 0.11627015
v 0.01236364 -0.03484290 0.11606517
v 0.00771241 -0.03631210 0.11530436
v 0.00771241 -0.03729356 0.11414146
v 0.01003802 -0.03714764 0.11392466
v 0.01343699 -0.03687779 0.11351469
v 0.01468536 -0.03729956 0.11209556
v 0.01468536 -0.03819707 0.07984600
v 0.01850434 -0.03699173 0.10862660
v 0.01890491 -0.03710167 0.08217179
v 0.01893991 -0.03710767 0.07984600
v 0.01886991 -0.03709767 0.07752021
v 0.02003271 -0.03674986 0.07752021
v 0.02165831 -0.03613620 0.07752021
v 0.02288334 -0.03551653 0.07640463
v 0.02396836 -0.03502680 0.07640463
v 0.01356922 -0.03840496 0.07640463
v 0.01468536 -0.03818708 0.07752021
v 0.01254253 -0.03747347 0.11259621
v 0.00771241 -0.03827103 0.11237939
v 0.00539069 -0.03851889 0.11237939
v 0.00413844 -0.03866681 0.11227690
v 0.00413844 -0.03530066 0.11619525
v 0.00539069 -0.03525468 0.11619525
v 0.00771241 -0.03515074 0.11617948
v 0.01003802 -0.03500681 0.11614007
v 0.00539069 -0.03641805 0.11546598
v 0.00539069 -0.03741950 0.11430309
v 0.01701097 -0.03763338 0.07984600
v 0.01701097 -0.03761139 0.08217179
v 0.01701097 -0.03761339 0.07752021
v 0.01701097 -0.03758940 0.07640463
v 0.01797544 -0.03732155 0.07640463
v 0.01879602 -0.03708368 0.07640463
v 0.01995882 -0.03671988 0.07640463
v 0.02080273 -0.03640205 0.07640463
v 0.02165831 -0.03606823 0.07640463
v 0.01468536 -0.03816709 0.07640463
v 0.00413844 -0.03747347 0.11436617
v 0.00413844 -0.03592631 0.11586412
v 0.00413844 -0.03646202 0.11552905
v 0.00413844 -0.03701172 0.11490228
v 0.01589094 -0.03786925 0.07640463
f 1 2 3
f 1 3 4
f 1 4 5
f 1 5 6
f 1 6 7
f 1 7 8
f 1 8 9
f 1 9 10
f 1 10 16
f 1 16 32
f 1 32 47
f 1 47 76
f 1 76 75
f 1 75 74
f 1 74 73
f 1 73 102
f 1 102 133
f 1 133 172
f 1 172 135
f 1 135 134
f 1 134 103
f 1 103 77
f 1 77 48
f 1 48 35
f 1 35 33
f 1 33 18
f 1 18 11
f 1 11 2
f 2 11 12
f 2 12 3
f 3 13 14
f 3 14 15
f 3 15 4
f 3 12 13
f 4 15 28
f 4 28 27
f 4 27 26
f 4 26 44
f 4 44 69
f 4 69 68
f 4 68 96
f 4 96 95
f 4 95 65
f 4 65 94
f 4 94 123
f 4 123 122
f 4 122 162
f 4 162 161
f 4 161 202
f 4 202 231
f 4 231 230
f 4 230 252
f 4 252 251
f 4 251 250
f 4 250 249
f 4 249 248
f 4 248 247
f 4 247 258
f 4 258 253
f 4 253 232
f 4 232 203
f 4 203 163
f 4 163 125
f 4 125 124
f 4 124 97
f 4 97 70
f 4 70 45
f 4 45 29
f 4 29 16
f 4 16 10
f 4 10 9
f 4 9 8
f 4 8 7
f 4 7 6
f 4 6 5
f 11 17 12
f 11 18 19
f 11 19 20
f 11 20 17
f 12 17 20
f 12 20 21
f 12 21 22
f 12 22 23
f 12 23 24
f 12 24 25
f 12 25 13
f 13 25 14
f 14 25 24
f 14 24 23
f 14 23 26
f 14 26 27
f 14 27 28
f 14 28 15
f 16 29 30
f 16 30 31
f 16 31 32
f 18 33 19
f 19 34 20
f 19 33 35
f 19 35 36
f 19 36 34
f 20 34 21
f 21 34 37
f 21 37 38
f 21 38 39
f 21 39 22
f 22 39 40
f 22 40 41
f 22 41 23
f 23 41 42
f 23 42 43
f 23 43 44
f 23 44 26
f 29 45 71
f 29 71 100
f 29 100 128
f 29 128 168
f 29 168 170
f 29 170 208
f 29 208 237
f 29 237 254
f 29 254 257
f 29 257 256
f 29 256 255
f 29 255 238
f 29 238 210
f 29 210 173
f 29 173 171
f 29 171 132
f 29 132 101
f 29 101 72
f 29 72 46
f 29 46 31
f 29 31 30
f 31 46 47
f 31 47 32
f 34 36 48
f 34 48 49
f 34 49 50
f 34 50 37
f 35 48 36
f 37 50 51
f 37 51 52
f 37 52 53
f 37 53 54
f 37 54 55
f 37 55 38
f 38 56 57
f 38 57 40
f 38 40 39
f 38 55 56
f 40 57 58
f 40 58 59
f 40 59 60
f 40 60 41
f 41 60 61
f 41 61 62
f 41 62 42
f 42 62 63
f 42 63 64
f 42 64 65
f 42 65 66
f 42 66 67
f 42 67 43
f 43 67 68
f 43 68 69
f 43 69 44
f 45 70 71
f 46 72 73
f 46 73 74
f 46 74 75
f 46 75 76
f 46 76 47
f 48 51 49
f 48 77 78
f 48 78 51
f 49 51 50
f 51 78 79
f 51 79 53
f 51 53 52
f 53 80 81
f 53 81 54
f 53 79 82
f 53 82 80
f 54 81 55
f 55 81 80
f 55 80 83
f 55 83 84
f 55 84 85
f 55 85 56
f 56 85 58
f 56 58 57
f 58 86 59
f 58 85 86
f 59 87 88
f 59 88 89
f 59 89 90
f 59 90 60
f 59 86 87
f 60 90 89
f 60 89 91
f 60 91 62
f 60 62 61
f 62 91 63
f 63 92 64
f 63 91 92
f 64 93 94
f 64 94 65
f 64 92 93
f 65 95 66
f 66 95 96
f 66 96 67
f 67 96 68
f 70 97 98
f 70 98 71
f 71 98 99
f 71 99 100
f 72 101 102
f 72 102 73
f 77 103 78
f 78 103 104
f 78 104 105
f 78 105 79
f 79 105 106
f 79 106 82
f 80 82 83
f 82 106 107
f 82 107 83
f 83 107 108
f 83 108 109
f 83 109 84
f 84 109 110
f 84 110 85
f 85 111 112
f 85 112 86
f 85 110 111
f 86 112 113
f 86 113 114
f 86 114 115
f 86 115 116
f 86 116 87
f 87 91 89
f 87 89 88
f 87 116 117
f 87 117 91
f 91 117 118
f 91 118 119
f 91 119 120
f 91 120 92
f 92 120 119
f 92 119 121
f 92 121 93
f 93 121 122
f 93 122 123
f 93 123 94
f 97 124 98
f 98 124 125
f 98 125 126
f 98 126 127
f 98 127 99
f 99 128 100
f 99 127 129
f 99 129 130
f 99 130 131
f 99 131 128
f 101 132 133
f 101 133 102
f 103 134 104
f 104 134 105
f 105 134 135
f 105 135 106
f 106 135 136
f 106 136 137
f 106 137 107
f 107 137 108
f 108 138 109
f 108 137 139
f 108 139 138
f 109 138 110
f 110 138 140
f 110 140 141
f 110 141 142
f 110 142 143
f 110 143 144
f 110 144 145
f 110 145 111
f 111 146 147
f 111 147 148
f 111 148 113
f 111 113 112
f 111 145 146
f 113 148 114
f 114 148 147
f 114 147 146
f 114 146 149
f 114 149 150
f 114 150 151
f 114 151 152
f 114 152 153
f 114 153 154
f 114 154 115
f 115 154 155
f 115 155 156
f 115 156 116
f 116 156 157
f 116 157 158
f 116 158 117
f 117 157 159
f 117 159 160
f 117 160 119
f 117 119 118
f 117 158 157
f 119 160 121
f 121 160 161
f 121 161 162
f 121 162 122
f 125 163 164
f 125 164 165
f 125 165 126
f 126 165 127
f 127 166 129
f 127 165 167
f 127 167 166
f 128 131 168
f 129 169 170
f 129 170 130
f 129 166 169
f 130 170 131
f 131 170 168
f 132 171 135
f 132 135 172
f 132 172 133
f 135 171 173
f 135 173 174
f 135 174 175
f 135 175 136
f 136 175 176
f 136 176 137
f 137 176 139
f 138 139 177
f 138 177 140
f 139 176 177
f 140 177 178
f 140 178 141
f 141 178 179
f 141 179 180
f 141 180 181
f 141 181 182
f 141 182 183
f 141 183 184
f 141 184 142
f 142 184 185
f 142 185 186
f 142 186 143
f 143 186 187
f 143 187 188
f 143 188 146
f 143 146 144
f 144 146 145
f 146 188 149
f 149 188 150
f 150 188 187
f 150 187 186
f 150 186 189
f 150 189 190
f 150 190 191
f 150 191 192
f 150 192 193
f 150 193 194
f 150 194 151
f 151 194 195
f 151 195 152
f 152 195 196
f 152 196 197
f 152 197 153
f 153 197 154
f 154 197 155
f 155 198 199
f 155 199 156
f 155 197 198
f 156 199 157
f 157 199 159
f 159 199 200
f 159 200 201
f 159 201 160
f 160 201 161
f 161 201 202
f 163 203 204
f 163 204 164
f 164 204 205
f 164 205 206
f 164 206 165
f 165 206 167
f 166 167 206
f 166 206 169
f 169 190 207
f 169 207 208
f 169 208 170
f 169 206 190
f 173 209 175
f 173 175 174
f 173 210 209
f 175 209 211
f 175 211 212
f 175 212 213
f 175 213 214
f 175 214 176
f 176 214 177
f 177 215 178
f 177 214 215
f 178 215 179
f 179 215 216
f 179 216 217
f 179 217 218
f 179 218 180
f 180 218 219
f 180 219 220
f 180 220 182
f 180 182 181
f 182 207 221
f 182 221 183
f 182 220 207
f 183 221 184
f 184 221 185
f 185 221 222
f 185 222 189
f 185 189 186
f 189 222 190
f 190 222 207
f 190 206 205
f 190 205 191
f 191 205 223
f 191 223 192
f 192 223 224
f 192 224 193
f 193 224 194
f 194 224 195
f 195 225 226
f 195 226 227
f 195 227 228
f 195 228 198
f 195 198 196
f 195 224 225
f 196 198 197
f 198 228 229
f 198 229 199
f 199 229 200
f 200 229 230
f 200 230 231
f 200 231 201
f 201 231 202
f 203 232 204
f 204 232 233
f 204 233 223
f 204 223 205
f 207 222 234
f 207 234 221
f 207 220 235
f 207 235 208
f 208 235 236
f 208 236 237
f 209 210 211
f 210 238 211
f 211 238 212
f 212 238 239
f 212 239 240
f 212 240 213
f 213 216 215
f 213 215 214
f 213 240 241
f 213 241 217
f 213 217 216
f 217 241 242
f 217 242 218
f 218 242 243
f 218 243 219
f 219 243 236
f 219 236 235
f 219 235 220
f 221 234 222
f 223 233 244
f 223 244 245
f 223 245 224
f 224 245 244
f 224 244 225
f 225 244 226
f 226 244 246
f 226 246 227
f 227 246 247
f 227 247 248
f 227 248 249
f 227 249 228
f 228 249 250
f 228 250 251
f 228 251 229
f 229 251 252
f 229 252 230
f 232 253 233
f 233 253 246
f 233 246 244
f 236 243 254
f 236 254 237
f 238 255 239
f 239 255 240
f 240 255 256
f 240 256 241
f 241 256 242
f 242 256 257
f 242 257 254
f 242 254 243
f 246 253 258
f 246 258 247

