# https://github.com/mikedh/trimesh
v -0.05153705 0.01922220 0.07517935
v -0.04477335 0.01922220 0.07517935
v -0.05153889 0.01922220 0.07519571
v -0.05108380 0.02019802 0.07517935
v -0.03289863 0.03213714 0.07517935
v -0.03888113 0.01922220 0.10309284
v -0.05168076 0.01922220 0.07752117
v -0.05115382 0.02035718 0.07752117
v -0.05108380 0.02020181 0.07519571
v -0.04999490 0.02237514 0.07517935
v -0.03289863 0.03835018 0.07517935
v -0.03289863 0.02618368 0.10305190
v -0.03289863 0.02621589 0.10345312
v -0.03895299 0.01922220 0.10405086
v -0.05170472 0.01922220 0.07890087
v -0.05171208 0.01924304 0.07984661
v -0.05118330 0.02040455 0.07984661
v -0.05014414 0.02237325 0.07752117
v -0.04930582 0.02366360 0.07519571
v -0.04930951 0.02365223 0.07517935
v -0.03378487 0.03791437 0.07517935
v -0.03377749 0.03792006 0.07519571
v -0.03289863 0.03835207 0.07519571
v -0.03289863 0.02734519 0.11470369
v -0.04025193 0.01922220 0.11470369
v -0.05171946 0.01922220 0.07981795
v -0.05171946 0.01922220 0.07984661
v -0.05170287 0.01922220 0.08055488
v -0.05166418 0.01922220 0.08216795
v -0.05115750 0.02034202 0.08216795
v -0.05014230 0.02237325 0.08216795
v -0.05019205 0.02237325 0.07984661
v -0.04937952 0.02379055 0.07752117
v -0.04866464 0.02495206 0.07752117
v -0.04858541 0.02482511 0.07519571
v -0.04858541 0.02482132 0.07517935
v -0.04929845 0.02367118 0.07517935
v -0.03493641 0.03728151 0.07517935
v -0.03508933 0.03736867 0.07752117
v -0.03392674 0.03798638 0.07752117
v -0.03289863 0.03842407 0.07639938
v -0.03289863 0.02776205 0.11576406
v -0.04027772 0.01922220 0.11475281
v -0.05047948 0.01922220 0.11005689
v -0.05016810 0.02004833 0.11005689
v -0.04947348 0.02175744 0.11005689
v -0.04895022 0.02292084 0.11005689
v -0.04937584 0.02378866 0.08216795
v -0.04806031 0.02469816 0.11005689
v -0.04940163 0.02383034 0.07984661
v -0.04869596 0.02499375 0.07984661
v -0.04750388 0.02668770 0.07752117
v -0.04742282 0.02658159 0.07519571
v -0.04743387 0.02656264 0.07517935
v -0.03643249 0.03639854 0.07517935
v -0.03644723 0.03656149 0.07752117
v -0.03516303 0.03741225 0.07984661
v -0.03289863 0.03848470 0.07752117
v -0.03400043 0.03801859 0.07984661
v -0.03289863 0.03851881 0.07868388
v -0.03289863 0.02790226 0.11600970
v -0.04134083 0.01922220 0.11626763
v -0.05036340 0.01922220 0.11155532
v -0.04998569 0.02004833 0.11237824
v -0.04938873 0.02156227 0.11237824
v -0.04883968 0.02272378 0.11237824
v -0.04867201 0.02495206 0.08216795
v -0.04717593 0.02629169 0.11005689
v -0.04710407 0.02617800 0.11195245
v -0.04642604 0.02745320 0.11005689
v -0.04750941 0.02669907 0.08216795
v -0.04753337 0.02672560 0.07984661
v -0.04667478 0.02788711 0.07984661
v -0.04663793 0.02784921 0.07752117
v -0.04656054 0.02774310 0.07519571
v -0.04655870 0.02774120 0.07517935
v -0.03801517 0.03541892 0.07517935
v -0.03800596 0.03542650 0.07519571
v -0.03644723 0.03639096 0.07519571
v -0.03812388 0.03550798 0.07752117
v -0.03644723 0.03663349 0.07984661
v -0.03844078 0.03565957 0.11005689
v -0.03528832 0.03748047 0.10889008
v -0.03289863 0.03854913 0.07984661
v -0.03289863 0.02844228 0.11621030
v -0.04190831 0.01922220 0.11646414
v -0.05029154 0.01922220 0.11237824
v -0.04924502 0.02124584 0.11356962
v -0.04764391 0.02491796 0.11258704
v -0.04526529 0.02912820 0.11005689
v -0.04689218 0.02583883 0.11350002
v -0.04639840 0.02697950 0.11258704
v -0.04511973 0.02893303 0.11237824
v -0.04666004 0.02786247 0.08216795
v -0.04440854 0.03028971 0.11005689
v -0.04551402 0.02922104 0.07984661
v -0.04539794 0.02908272 0.07519571
v -0.04547717 0.02918315 0.07752117
v -0.04539610 0.02908272 0.07517935
v -0.03916671 0.03458711 0.07517935
v -0.03916856 0.03458900 0.07519571
v -0.03928648 0.03467616 0.07752117
v -0.03816441 0.03553640 0.07984661
v -0.03960338 0.03493386 0.11005689
v -0.03921830 0.03470269 0.11237824
v -0.03805571 0.03541703 0.11237824
v -0.03523673 0.03745393 0.11047858
v -0.03621692 0.03693855 0.10984400
v -0.03528832 0.03748047 0.10893101
v -0.03289863 0.03857945 0.10996273
v -0.03289863 0.02935557 0.11647642
v -0.03289863 0.03056824 0.11674663
v -0.04341913 0.01922220 0.11682851
v -0.04996174 0.01922220 0.11336491
v -0.04947164 0.02004833 0.11390943
v -0.04848592 0.02004833 0.11507215
v -0.04795161 0.02214397 0.11460543
v -0.04732148 0.02428889 0.11408956
v -0.04630812 0.02491796 0.11480194
v -0.04522660 0.02686391 0.11467502
v -0.04482125 0.02852186 0.11388078
v -0.04424456 0.03009454 0.11237824
v -0.04324594 0.03159333 0.11005689
v -0.04445460 0.03038445 0.07984661
v -0.04441775 0.03034466 0.07752117
v -0.04431641 0.03024613 0.07519571
v -0.04431641 0.03024423 0.07517935
v -0.04064069 0.03343697 0.07517935
v -0.04065543 0.03342749 0.07519571
v -0.04077335 0.03351276 0.07752117
v -0.03932701 0.03470269 0.07984661
v -0.04102392 0.03377235 0.11005689
v -0.04078440 0.03354118 0.11237824
v -0.04081020 0.03354118 0.07984661
v -0.04031273 0.03313380 0.11388487
v -0.03763747 0.03517071 0.11356143
v -0.03644723 0.03629622 0.11237824
v -0.03470057 0.03719625 0.11237824
v -0.03353797 0.03775900 0.11237824
v -0.03289863 0.03806027 0.11237824
v -0.03289863 0.03824975 0.11152667
v -0.03432655 0.03790869 0.10984400
v -0.03289863 0.03166723 0.11678758
v -0.03644723 0.02934420 0.11695544
v -0.03877243 0.02702118 0.11700047
v -0.04341913 0.02004833 0.11691450
v -0.04424456 0.01922220 0.11688992
v -0.04962457 0.01922220 0.11410595
v -0.04865543 0.01922220 0.11526867
v -0.04703405 0.02149216 0.11595648
v -0.04662319 0.02304211 0.11564123
v -0.04465359 0.02598283 0.11591963
v -0.04410269 0.02753278 0.11543243
v -0.04267109 0.03093015 0.11398722
v -0.04338781 0.02928736 0.11470778
v -0.04308196 0.03139059 0.11237824
v -0.04218468 0.03275673 0.11005689
v -0.04329200 0.03142848 0.07984661
v -0.04325515 0.03139627 0.07752117
v -0.04316487 0.03128827 0.07517935
v -0.04181619 0.03245925 0.07517935
v -0.04181619 0.03246115 0.07519571
v -0.04193594 0.03255778 0.07752117
v -0.04197095 0.03258999 0.07984661
v -0.04194516 0.03255210 0.11237824
v -0.04105340 0.03162175 0.11471187
v -0.03919804 0.03231335 0.11543243
v -0.03841683 0.03376856 0.11449898
v -0.03644723 0.03435026 0.11510900
v -0.03644723 0.03548335 0.11395037
v -0.03300550 0.03749941 0.11356962
v -0.03289863 0.03759415 0.11346727
v -0.03412388 0.03166723 0.11682443
v -0.03289863 0.03289316 0.11669340
v -0.03877243 0.02934420 0.11681624
v -0.04109578 0.02469816 0.11699637
v -0.04109578 0.02702118 0.11684080
v -0.04341913 0.02237325 0.11692677
v -0.04574249 0.01922220 0.11674663
v -0.04790555 0.01922220 0.11594418
v -0.04732332 0.02004833 0.11612023
v -0.04580697 0.02230882 0.11629629
v -0.04500550 0.02469816 0.11610386
v -0.04336386 0.02686391 0.11620622
v -0.04255317 0.02850670 0.11602607
v -0.04179408 0.03005475 0.11553478
v -0.04315566 0.03129774 0.07519571
v -0.04024456 0.03076530 0.11601789
v -0.03764852 0.03285337 0.11588278
v -0.03469504 0.03483343 0.11561257
v -0.03385120 0.03618253 0.11459314
v -0.03289863 0.03752404 0.11360238
v -0.03644723 0.03166723 0.11660334
v -0.03289863 0.03401109 0.11640683
v -0.03856238 0.03159143 0.11616937
v -0.04104972 0.02930441 0.11627990
v -0.04341913 0.02469816 0.11667703
v -0.04574249 0.02004833 0.11668932
v -0.04647395 0.01922220 0.11655012
v -0.04749283 0.01922220 0.11618575
v -0.03314553 0.03523703 0.11592373
v -0.03644723 0.03318875 0.11605882
v -0.03289863 0.03550419 0.11577224
v -0.03289863 0.03641938 0.11481832
v -0.03289863 0.03692150 0.11428199
v -0.03400227 0.03403193 0.11623897
v -0.03289863 0.03478228 0.11616118
v -0.03289863 0.03529197 0.11595237
f 1 2 6
f 1 6 14
f 1 14 25
f 1 25 43
f 1 43 62
f 1 62 86
f 1 86 113
f 1 113 147
f 1 147 179
f 1 179 199
f 1 199 200
f 1 200 180
f 1 180 149
f 1 149 148
f 1 148 114
f 1 114 87
f 1 87 63
f 1 63 44
f 1 44 29
f 1 29 28
f 1 28 27
f 1 27 26
f 1 26 15
f 1 15 7
f 1 7 3
f 1 3 4
f 1 4 10
f 1 10 20
f 1 20 37
f 1 37 36
f 1 36 54
f 1 54 76
f 1 76 99
f 1 99 127
f 1 127 160
f 1 160 161
f 1 161 128
f 1 128 100
f 1 100 77
f 1 77 55
f 1 55 38
f 1 38 21
f 1 21 11
f 1 11 5
f 1 5 2
f 2 5 6
f 3 7 8
f 3 8 9
f 3 9 4
f 4 9 10
f 5 11 23
f 5 23 41
f 5 41 58
f 5 58 60
f 5 60 84
f 5 84 110
f 5 110 141
f 5 141 140
f 5 140 172
f 5 172 192
f 5 192 205
f 5 205 204
f 5 204 203
f 5 203 208
f 5 208 207
f 5 207 194
f 5 194 174
f 5 174 143
f 5 143 112
f 5 112 111
f 5 111 85
f 5 85 61
f 5 61 42
f 5 42 24
f 5 24 13
f 5 13 12
f 5 12 6
f 6 12 13
f 6 13 14
f 7 15 16
f 7 16 17
f 7 17 8
f 8 17 18
f 8 18 10
f 8 10 9
f 10 18 19
f 10 19 20
f 11 21 22
f 11 22 23
f 13 24 14
f 14 24 25
f 15 26 16
f 16 26 27
f 16 27 28
f 16 28 29
f 16 29 30
f 16 30 17
f 17 30 31
f 17 31 32
f 17 32 18
f 18 32 33
f 18 33 19
f 19 33 34
f 19 34 35
f 19 35 36
f 19 36 37
f 19 37 20
f 21 38 22
f 22 38 39
f 22 39 40
f 22 40 23
f 23 40 41
f 24 42 25
f 25 42 43
f 29 44 45
f 29 45 46
f 29 46 47
f 29 47 30
f 30 47 31
f 31 48 32
f 31 47 49
f 31 49 48
f 32 48 50
f 32 50 33
f 33 50 51
f 33 51 34
f 34 51 52
f 34 52 53
f 34 53 35
f 35 53 54
f 35 54 36
f 38 55 39
f 39 55 56
f 39 56 57
f 39 57 40
f 40 58 41
f 40 57 59
f 40 59 60
f 40 60 58
f 42 61 43
f 43 61 62
f 44 63 45
f 45 63 64
f 45 64 65
f 45 65 46
f 46 65 47
f 47 65 66
f 47 66 49
f 48 67 50
f 48 49 68
f 48 68 67
f 49 66 69
f 49 69 68
f 50 67 51
f 51 67 70
f 51 70 71
f 51 71 72
f 51 72 52
f 52 72 73
f 52 73 74
f 52 74 75
f 52 75 53
f 53 75 54
f 54 75 76
f 55 77 78
f 55 78 79
f 55 79 56
f 56 79 78
f 56 78 80
f 56 80 81
f 56 81 57
f 57 81 82
f 57 82 83
f 57 83 59
f 59 84 60
f 59 83 84
f 61 85 62
f 62 85 86
f 63 87 64
f 64 87 88
f 64 88 65
f 65 88 66
f 66 89 69
f 66 88 89
f 67 68 70
f 68 69 70
f 69 90 70
f 69 89 91
f 69 91 92
f 69 92 93
f 69 93 90
f 70 90 71
f 71 90 72
f 72 90 94
f 72 94 73
f 73 94 95
f 73 95 96
f 73 96 98
f 73 98 74
f 74 97 75
f 74 98 97
f 75 97 99
f 75 99 76
f 77 100 101
f 77 101 102
f 77 102 80
f 77 80 78
f 80 102 103
f 80 103 81
f 81 103 104
f 81 104 82
f 82 104 105
f 82 105 106
f 82 106 107
f 82 107 108
f 82 108 109
f 82 109 83
f 83 109 110
f 83 110 84
f 85 111 86
f 86 111 112
f 86 112 113
f 87 114 88
f 88 115 116
f 88 116 117
f 88 117 118
f 88 118 91
f 88 91 89
f 88 114 115
f 90 93 95
f 90 95 94
f 91 118 119
f 91 119 120
f 91 120 121
f 91 121 93
f 91 93 92
f 93 121 122
f 93 122 95
f 95 122 123
f 95 123 96
f 96 124 98
f 96 123 124
f 97 98 125
f 97 125 126
f 97 126 127
f 97 127 99
f 98 124 125
f 100 128 101
f 101 128 129
f 101 129 102
f 102 129 130
f 102 130 131
f 102 131 103
f 103 131 104
f 104 132 133
f 104 133 105
f 104 131 134
f 104 134 132
f 105 133 135
f 105 135 136
f 105 136 106
f 106 137 107
f 106 136 137
f 107 137 138
f 107 138 139
f 107 139 140
f 107 140 141
f 107 141 110
f 107 110 142
f 107 142 109
f 107 109 108
f 109 142 110
f 112 143 144
f 112 144 145
f 112 145 146
f 112 146 113
f 113 146 147
f 114 148 115
f 115 148 149
f 115 149 116
f 116 149 150
f 116 150 151
f 116 151 117
f 117 151 118
f 118 151 119
f 119 151 152
f 119 152 120
f 120 152 153
f 120 153 121
f 121 154 122
f 121 153 155
f 121 155 154
f 122 156 123
f 122 154 156
f 123 156 157
f 123 157 124
f 124 158 159
f 124 159 125
f 124 157 158
f 125 159 160
f 125 160 126
f 126 160 127
f 128 161 129
f 129 161 162
f 129 162 163
f 129 163 130
f 130 163 164
f 130 164 134
f 130 134 131
f 132 157 165
f 132 165 133
f 132 134 164
f 132 164 157
f 133 165 135
f 135 154 166
f 135 166 167
f 135 167 168
f 135 168 136
f 135 165 154
f 136 168 169
f 136 169 170
f 136 170 171
f 136 171 138
f 136 138 137
f 138 171 139
f 139 171 172
f 139 172 140
f 143 173 144
f 143 174 173
f 144 173 175
f 144 175 145
f 145 176 146
f 145 175 177
f 145 177 176
f 146 176 147
f 147 176 178
f 147 178 179
f 149 180 150
f 150 180 181
f 150 181 182
f 150 182 183
f 150 183 152
f 150 152 151
f 152 183 184
f 152 184 185
f 152 185 153
f 153 185 186
f 153 186 155
f 154 155 186
f 154 186 166
f 154 165 156
f 156 165 157
f 157 164 158
f 158 164 163
f 158 163 159
f 159 163 187
f 159 187 160
f 160 187 162
f 160 162 161
f 162 187 163
f 166 186 167
f 167 186 188
f 167 188 189
f 167 189 168
f 168 189 169
f 169 189 190
f 169 190 170
f 170 191 192
f 170 192 171
f 170 190 191
f 171 192 172
f 173 174 193
f 173 193 175
f 174 194 193
f 175 193 195
f 175 195 196
f 175 196 177
f 176 177 178
f 177 196 184
f 177 184 197
f 177 197 178
f 178 197 198
f 178 198 179
f 179 198 199
f 180 200 181
f 181 200 198
f 181 198 182
f 182 198 197
f 182 197 183
f 183 197 184
f 184 196 185
f 185 196 188
f 185 188 186
f 188 196 195
f 188 195 189
f 189 201 190
f 189 195 202
f 189 202 201
f 190 201 203
f 190 203 204
f 190 204 205
f 190 205 191
f 191 205 192
f 193 194 206
f 193 206 202
f 193 202 195
f 194 207 206
f 198 200 199
f 201 202 206
f 201 206 207
f 201 207 208
f 201 208 203

