# https://github.com/mikedh/trimesh
v -0.01125512 0.01609394 -0.01777156
v -0.02178235 0.01609230 -0.00384386
v -0.01367309 0.01609230 -0.00384386
v -0.01306307 0.01609230 -0.00615059
v -0.01247073 0.01609230 -0.00845004
v -0.01159107 0.01609230 -0.01312535
v -0.01131038 0.01609230 -0.01546119
v -0.02259349 -0.00062784 -0.00847551
v -0.02258907 -0.00062784 -0.00871928
v -0.02258023 -0.00062784 -0.01080043
v -0.02259128 -0.00062784 -0.01104056
v -0.02271064 -0.00062784 -0.01312535
v -0.02290071 -0.00062784 -0.01545028
v -0.01146067 0.01609230 -0.02008557
v -0.01200217 0.01609230 -0.02242140
v -0.01704366 0.01609230 -0.04101351
v -0.02683489 0.01609230 -0.04101351
v -0.02251614 0.01527553 -0.00384386
v -0.02731671 0.01566346 -0.04100987
v -0.02855001 0.01450131 -0.04100987
v -0.02316815 -0.00062784 -0.00384386
v -0.02312173 -0.00062784 -0.00406944
v -0.02277031 -0.00062784 -0.00615059
v -0.02274379 -0.00062784 -0.00639436
v -0.02292282 -0.00062784 -0.01569041
v -0.02367650 -0.00062784 -0.02366937
v -0.02379143 -0.00062784 -0.02476452
v -0.02381574 -0.00062784 -0.02498282
v -0.02407875 -0.00062784 -0.02706761
v -0.02410970 -0.00062784 -0.02730775
v -0.02449206 -0.00062784 -0.02963267
v -0.02496284 -0.00062784 -0.03195395
v -0.02545572 -0.00062784 -0.03403874
v -0.02551539 -0.00062784 -0.03428615
v -0.02586460 -0.00062784 -0.03561779
v -0.02738302 -0.00062620 -0.04101351
v -0.02731671 0.01566346 -0.04101351
v -0.02353504 0.01408556 -0.00384386
v -0.02855443 0.01449476 -0.04101351
v -0.02961533 0.01303963 -0.04101351
v -0.02425999 0.01310346 -0.00384386
v -0.02870693 -0.00062784 -0.00384386
v -0.02738302 -0.00062784 -0.04100987
v -0.02801072 -0.00062784 -0.04101351
v -0.02972805 0.01287758 -0.04101351
v -0.02432851 0.01300853 -0.00384386
v -0.02879313 0.00143619 -0.00384386
v -0.03383462 -0.00062784 -0.04101351
v -0.03005074 0.01236689 -0.04101351
v -0.02552865 0.01119002 -0.00384386
v -0.02879313 0.00145583 -0.00384386
v -0.02857874 0.00372447 -0.00384386
v -0.03352298 0.00145583 -0.04100987
v -0.03352298 0.00145420 -0.04101351
v -0.03076464 0.01105580 -0.04101351
v -0.03047731 0.01155012 -0.04062056
v -0.02626023 0.01001805 -0.00384386
v -0.02624918 0.01003606 -0.00384386
v -0.02835551 0.00493572 -0.00384386
v -0.03308757 0.00347731 -0.04101351
v -0.03091714 0.01068260 -0.04101351
v -0.02706475 0.00842706 -0.00384386
v -0.02800851 0.00608640 -0.00384386
v -0.03172608 0.00842706 -0.04100987
v -0.03245103 0.00590144 -0.04101351
v -0.03299474 0.00383577 -0.04101351
v -0.03172166 0.00843525 -0.04101351
v -0.03172829 0.00841560 -0.04101351
f 1 2 3
f 1 3 4
f 1 4 5
f 1 5 6
f 1 6 7
f 1 7 8
f 1 8 9
f 1 9 10
f 1 10 11
f 1 11 12
f 1 12 13
f 1 13 14
f 1 14 15
f 1 15 16
f 1 16 17
f 1 17 2
f 2 18 38
f 2 38 41
f 2 41 46
f 2 46 50
f 2 50 58
f 2 58 57
f 2 57 62
f 2 62 63
f 2 63 59
f 2 59 52
f 2 52 51
f 2 51 47
f 2 47 42
f 2 42 21
f 2 21 3
f 2 17 19
f 2 19 20
f 2 20 18
f 3 21 4
f 4 21 5
f 5 21 22
f 5 22 6
f 6 22 23
f 6 23 7
f 7 23 24
f 7 24 8
f 8 24 23
f 8 23 22
f 8 22 21
f 8 21 42
f 8 42 48
f 8 48 44
f 8 44 43
f 8 43 35
f 8 35 34
f 8 34 33
f 8 33 32
f 8 32 31
f 8 31 30
f 8 30 29
f 8 29 28
f 8 28 27
f 8 27 26
f 8 26 25
f 8 25 13
f 8 13 12
f 8 12 11
f 8 11 10
f 8 10 9
f 13 25 14
f 14 25 26
f 14 26 27
f 14 27 28
f 14 28 29
f 14 29 30
f 14 30 31
f 14 31 32
f 14 32 15
f 15 32 33
f 15 33 34
f 15 34 35
f 15 35 16
f 16 35 36
f 16 36 44
f 16 44 48
f 16 48 54
f 16 54 60
f 16 60 66
f 16 66 65
f 16 65 68
f 16 68 67
f 16 67 61
f 16 61 55
f 16 55 49
f 16 49 45
f 16 45 40
f 16 40 39
f 16 39 37
f 16 37 17
f 17 37 19
f 18 20 38
f 19 37 20
f 20 37 39
f 20 39 40
f 20 40 41
f 20 41 38
f 35 43 36
f 36 43 44
f 40 45 46
f 40 46 41
f 42 47 48
f 45 49 50
f 45 50 46
f 47 51 48
f 48 51 52
f 48 52 53
f 48 53 54
f 49 55 56
f 49 56 57
f 49 57 58
f 49 58 50
f 52 59 53
f 53 60 54
f 53 59 60
f 55 61 62
f 55 62 56
f 56 62 57
f 59 63 64
f 59 64 65
f 59 65 66
f 59 66 60
f 61 67 64
f 61 64 63
f 61 63 62
f 64 67 68
f 64 68 65

