# https://github.com/mikedh/trimesh
v 0.02478105 -0.02147005 -0.02163032
v 0.01982187 -0.02147005 -0.00384386
v 0.02478105 -0.02530042 -0.02811637
v 0.02478105 -0.02147005 -0.03668482
v 0.02478105 -0.02556831 -0.02859398
v 0.00747284 -0.02147005 -0.00384386
v 0.01974781 -0.02157814 -0.00384386
v 0.02478105 -0.03439460 -0.04658105
v 0.02478105 -0.03395987 -0.04568313
v 0.02478105 -0.02717330 -0.03171760
v 0.02478105 -0.02610409 -0.02956832
v -0.00223923 -0.02403616 -0.02177361
v -0.00223923 -0.02359203 -0.01943329
v -0.00223923 -0.02245466 -0.01319560
v -0.00223923 -0.02232542 -0.01246007
v -0.00223923 -0.02207398 -0.01080752
v -0.00223923 -0.02199408 -0.01014841
v 0.01004103 -0.02147005 -0.01970075
v 0.02478105 -0.03725445 -0.10143062
v -0.00223923 -0.03936233 -0.10143062
v -0.00223923 -0.02150530 -0.00384386
v 0.00722686 -0.02147005 -0.00615552
v 0.01848090 -0.02323014 -0.00384386
v 0.02478105 -0.03452150 -0.04691538
v -0.00223923 -0.02180373 -0.00847674
v -0.00223923 -0.02174029 -0.00782718
v -0.00223923 -0.02159459 -0.00615552
v 0.00902010 -0.02147005 -0.01788580
v 0.02478105 -0.04325849 -0.10143062
v -0.00223923 -0.04541807 -0.10143062
v -0.00223923 -0.02720150 -0.00384386
v 0.00711842 -0.02147005 -0.00788450
v 0.00710255 -0.02147005 -0.00847674
v 0.00716338 -0.02147005 -0.01025348
v 0.00721099 -0.02147005 -0.01080752
v 0.00751780 -0.02147005 -0.01292814
v 0.00755747 -0.02147005 -0.01312873
v 0.00811026 -0.02147005 -0.01544996
v 0.01700770 -0.02386462 -0.00384386
v 0.02478105 -0.03460139 -0.04724016
v 0.02282383 -0.03457085 -0.04448909
v 0.02397965 -0.04340184 -0.10143062
v 0.02478105 -0.04317155 -0.09910940
v 0.02397965 -0.04332664 -0.09910940
v -0.00158329 -0.04542982 -0.10143062
v -0.00223923 -0.04544862 -0.09975896
v -0.00177637 -0.02733310 -0.00384386
v -0.00223923 -0.03924013 -0.05600921
v 0.00712900 -0.02796757 -0.00384386
v 0.02326817 -0.03471184 -0.04566403
v 0.02410396 -0.03498208 -0.04789928
v 0.02478105 -0.03483639 -0.04827182
v 0.02397965 -0.03549436 -0.05031602
v 0.00711578 -0.02797227 -0.00384386
v 0.00538866 -0.02856210 -0.00384386
v 0.01154334 -0.03698186 -0.04633269
v 0.01468283 -0.03825552 -0.05494891
v 0.01700770 -0.03831192 -0.05727968
v 0.01933256 -0.03785838 -0.05727968
v 0.01933256 -0.03832366 -0.05960090
v 0.02194308 -0.04373318 -0.10143062
v 0.02184522 -0.04370498 -0.09910940
v 0.02068410 -0.04389532 -0.09910940
v 0.02478105 -0.04299060 -0.09678818
v 0.02397965 -0.04315745 -0.09678818
v 0.02143790 -0.04363683 -0.09698878
v 0.02051748 -0.04386947 -0.09789626
v 0.00074157 -0.04544862 -0.10143062
v -0.00158329 -0.04547212 -0.09910940
v -0.00223923 -0.04546037 -0.09910940
v -0.00062320 -0.02765503 -0.00384386
v -0.00223923 -0.03929653 -0.05628623
v -0.00158329 -0.03925188 -0.05596145
v 0.00306379 -0.02855270 -0.00384386
v 0.00304792 -0.02855035 -0.00384386
v 0.00074157 -0.02801457 -0.00384386
v 0.02478105 -0.03504553 -0.04935123
v 0.02165478 -0.03782548 -0.05960090
v 0.02165478 -0.03826257 -0.06192212
v 0.02397965 -0.03767743 -0.06192212
v 0.02478105 -0.03725210 -0.06101464
v 0.00537014 -0.02856210 -0.00384386
v 0.00074157 -0.03927303 -0.05586593
v 0.00538866 -0.03926833 -0.05586593
v 0.00721099 -0.03925423 -0.05595190
v 0.00876090 -0.03920959 -0.05615250
v 0.01003839 -0.03886414 -0.05494891
v 0.01235797 -0.03814977 -0.05263724
v 0.01235797 -0.03861036 -0.05494891
v 0.01468283 -0.03870905 -0.05727968
v 0.01700770 -0.03874430 -0.05960090
v 0.01933256 -0.03873725 -0.06192212
v 0.02078726 -0.04390942 -0.10143062
v 0.01933256 -0.04409272 -0.09910940
v 0.02478105 -0.04272036 -0.09446695
v 0.02397965 -0.04289426 -0.09446695
v 0.02165478 -0.04333369 -0.09446695
v 0.02012339 -0.04380602 -0.09634877
v 0.01934314 -0.04397757 -0.09698878
v 0.01700770 -0.04430891 -0.09678818
v 0.01700770 -0.04441935 -0.09910940
v 0.00306379 -0.04542747 -0.10143062
v 0.00074157 -0.04547447 -0.09910940
v -0.00158329 -0.04535932 -0.09678818
v -0.00223923 -0.04534992 -0.09678818
v -0.00223923 -0.03948687 -0.05722236
v -0.00158329 -0.03951977 -0.05727968
v 0.00074157 -0.03956207 -0.05727968
v 0.02165478 -0.03866440 -0.06425289
v 0.02397965 -0.03810277 -0.06425289
v 0.02478105 -0.03763514 -0.06313527
v 0.00306379 -0.03955737 -0.05727968
v 0.00306379 -0.04001091 -0.05960090
v 0.00538866 -0.03954327 -0.05727968
v 0.00538866 -0.03996861 -0.05960090
v 0.00787751 -0.03942813 -0.05706953
v 0.01003839 -0.03936703 -0.05762356
v 0.01003839 -0.03915318 -0.05646773
v 0.01167823 -0.03927773 -0.05810118
v 0.01241615 -0.03904039 -0.05730833
v 0.01322814 -0.03917903 -0.05866477
v 0.01480714 -0.03908269 -0.05950537
v 0.01566144 -0.03918843 -0.06092867
v 0.01647078 -0.03932003 -0.06247615
v 0.01715052 -0.03909209 -0.06178839
v 0.01802069 -0.03919313 -0.06324989
v 0.01942778 -0.03908269 -0.06410961
v 0.01933256 -0.04411386 -0.10143062
v 0.02478105 -0.04239137 -0.09213619
v 0.02397965 -0.04256997 -0.09213619
v 0.02165478 -0.04300705 -0.09213619
v 0.01800747 -0.04384362 -0.09348307
v 0.01934314 -0.04372378 -0.09434278
v 0.01857348 -0.04393057 -0.09503055
v 0.01468283 -0.04460265 -0.09678818
v 0.01714259 -0.04405747 -0.09434278
v 0.01468283 -0.04438645 -0.09446695
v 0.01468283 -0.04471074 -0.09910940
v 0.01700770 -0.04442170 -0.10143062
v 0.00538866 -0.04536637 -0.10143062
v 0.00538866 -0.04540162 -0.09910940
v 0.00306379 -0.04545097 -0.09910940
v 0.00074157 -0.04535697 -0.09678818
v -0.00158329 -0.04513843 -0.09446695
v -0.00223923 -0.04519013 -0.09511652
v -0.00223923 -0.03993336 -0.05960090
v -0.00158329 -0.03995686 -0.05960090
v 0.00074157 -0.04000856 -0.05960090
v 0.02026621 -0.03917668 -0.06569529
v 0.02164156 -0.03902629 -0.06650724
v 0.02240858 -0.03913673 -0.06831264
v 0.02397965 -0.03848581 -0.06657411
v 0.02478105 -0.03822497 -0.06657411
v 0.00074157 -0.04041744 -0.06192212
v 0.00306379 -0.04041509 -0.06192212
v 0.00771352 -0.03986756 -0.05960090
v 0.00538866 -0.04035164 -0.06192212
v 0.01003839 -0.03968897 -0.05960090
v 0.01235797 -0.03979471 -0.06192212
v 0.01241615 -0.03941168 -0.05950537
v 0.01468283 -0.03986286 -0.06425289
v 0.01411418 -0.03930593 -0.06021225
v 0.01715052 -0.03946808 -0.06410961
v 0.01480714 -0.03945868 -0.06178839
v 0.01871630 -0.03931298 -0.06479737
v 0.02478105 -0.04226683 -0.09137200
v 0.01933256 -0.04341124 -0.09213619
v 0.01646020 -0.04394232 -0.09281441
v 0.01235797 -0.04482824 -0.09678818
v 0.01235797 -0.04495749 -0.09910940
v 0.01467754 -0.04404102 -0.09207887
v 0.01235797 -0.04428541 -0.09213619
v 0.01235797 -0.04461205 -0.09446695
v 0.01468283 -0.04470135 -0.10143062
v 0.00771352 -0.04527472 -0.10143062
v 0.00771352 -0.04530997 -0.09910940
v 0.00538866 -0.04528178 -0.09678818
v 0.00306379 -0.04533347 -0.09678818
v 0.00074157 -0.04513138 -0.09446695
v -0.00158329 -0.04482824 -0.09213619
v -0.00223923 -0.04481884 -0.09213619
v -0.00223923 -0.04512668 -0.09446695
v -0.00223923 -0.04033989 -0.06192212
v -0.00158329 -0.04036339 -0.06192212
v -0.00158329 -0.04076053 -0.06425289
v 0.00074157 -0.04080283 -0.06425289
v 0.00306379 -0.04078403 -0.06425289
v 0.00771352 -0.04022710 -0.06192212
v 0.00538866 -0.04071118 -0.06425289
v 0.00771352 -0.04057724 -0.06425289
v 0.01003839 -0.04003676 -0.06192212
v 0.01235797 -0.04014720 -0.06425289
v 0.01003839 -0.04502328 -0.09678818
v 0.01003839 -0.04516193 -0.09910940
v 0.01235797 -0.04494338 -0.10143062
v 0.01003839 -0.04038454 -0.06425289
v 0.01003839 -0.04444990 -0.09213619
v 0.01003839 -0.04477889 -0.09446695
v 0.01003839 -0.04513843 -0.10143062
v 0.00771352 -0.04517838 -0.09678818
v 0.00538866 -0.04503738 -0.09446695
v 0.00306379 -0.04509378 -0.09446695
v 0.00074157 -0.04481884 -0.09213619
v 0.00074157 -0.04184384 -0.07122611
v -0.00158329 -0.04217048 -0.07354732
v -0.00223923 -0.04225038 -0.07419688
v -0.00223923 -0.04073468 -0.06425289
v -0.00223923 -0.04084043 -0.06490245
v -0.00223923 -0.04111067 -0.06657411
v -0.00158329 -0.04113417 -0.06657411
v -0.00158329 -0.04142791 -0.06847503
v 0.00074157 -0.04116001 -0.06657411
v 0.00306379 -0.04113417 -0.06657411
v 0.00538866 -0.04105427 -0.06657411
v 0.00771352 -0.04091327 -0.06657411
v 0.00771352 -0.04492459 -0.09446695
v 0.00306379 -0.04476949 -0.09213619
v 0.00458990 -0.04156420 -0.06989832
v 0.00306379 -0.04159005 -0.06971683
v 0.00306379 -0.04142321 -0.06856100
v 0.00074157 -0.04160885 -0.06960221
v -0.00158329 -0.04183444 -0.07122611
v -0.00223923 -0.04191434 -0.07187566
v -0.00223923 -0.04147961 -0.06894309
v -0.00158329 -0.04160415 -0.06964041
v 0.00074157 -0.04143731 -0.06843682
v -0.00223923 -0.04159475 -0.06970728
f 1 2 3
f 1 3 5
f 1 5 11
f 1 11 10
f 1 10 9
f 1 9 8
f 1 8 24
f 1 24 40
f 1 40 52
f 1 52 77
f 1 77 81
f 1 81 111
f 1 111 153
f 1 153 166
f 1 166 129
f 1 129 95
f 1 95 64
f 1 64 43
f 1 43 29
f 1 29 19
f 1 19 4
f 1 4 18
f 1 18 28
f 1 28 38
f 1 38 37
f 1 37 36
f 1 36 35
f 1 35 34
f 1 34 33
f 1 33 32
f 1 32 22
f 1 22 6
f 1 6 2
f 2 5 3
f 2 6 21
f 2 21 31
f 2 31 47
f 2 47 71
f 2 71 76
f 2 76 75
f 2 75 74
f 2 74 82
f 2 82 55
f 2 55 54
f 2 54 49
f 2 49 39
f 2 39 23
f 2 23 7
f 2 7 8
f 2 8 9
f 2 9 10
f 2 10 11
f 2 11 5
f 4 12 13
f 4 13 14
f 4 14 15
f 4 15 16
f 4 16 17
f 4 17 18
f 4 19 20
f 4 20 12
f 6 22 21
f 7 23 8
f 8 23 24
f 12 20 30
f 12 30 46
f 12 46 70
f 12 70 105
f 12 105 145
f 12 145 182
f 12 182 181
f 12 181 206
f 12 206 223
f 12 223 227
f 12 227 224
f 12 224 209
f 12 209 208
f 12 208 207
f 12 207 183
f 12 183 146
f 12 146 106
f 12 106 72
f 12 72 48
f 12 48 31
f 12 31 21
f 12 21 27
f 12 27 26
f 12 26 25
f 12 25 17
f 12 17 16
f 12 16 15
f 12 15 14
f 12 14 13
f 17 25 18
f 18 25 26
f 18 26 27
f 18 27 21
f 18 21 28
f 19 29 42
f 19 42 61
f 19 61 93
f 19 93 128
f 19 128 139
f 19 139 174
f 19 174 195
f 19 195 199
f 19 199 175
f 19 175 140
f 19 140 102
f 19 102 68
f 19 68 45
f 19 45 30
f 19 30 20
f 21 22 32
f 21 32 33
f 21 33 34
f 21 34 35
f 21 35 36
f 21 36 37
f 21 37 38
f 21 38 28
f 23 39 24
f 24 39 41
f 24 41 40
f 29 43 44
f 29 44 42
f 30 45 46
f 31 48 47
f 39 49 41
f 40 41 50
f 40 50 51
f 40 51 52
f 41 53 50
f 41 49 54
f 41 54 55
f 41 55 56
f 41 56 57
f 41 57 58
f 41 58 59
f 41 59 60
f 41 60 53
f 42 44 62
f 42 62 63
f 42 63 61
f 43 64 65
f 43 65 44
f 44 65 66
f 44 66 67
f 44 67 62
f 45 68 69
f 45 69 46
f 46 69 70
f 47 48 71
f 48 72 73
f 48 73 74
f 48 74 75
f 48 75 76
f 48 76 71
f 50 53 51
f 51 53 52
f 52 53 77
f 53 60 78
f 53 78 79
f 53 79 80
f 53 80 81
f 53 81 77
f 55 82 83
f 55 83 84
f 55 84 85
f 55 85 86
f 55 86 56
f 56 86 87
f 56 87 88
f 56 88 57
f 57 88 89
f 57 89 90
f 57 90 58
f 58 90 91
f 58 91 60
f 58 60 59
f 60 91 92
f 60 92 79
f 60 79 78
f 61 63 93
f 62 67 63
f 63 94 93
f 63 67 94
f 64 95 96
f 64 96 65
f 65 96 97
f 65 97 66
f 66 97 98
f 66 98 67
f 67 98 99
f 67 99 100
f 67 100 101
f 67 101 94
f 68 102 103
f 68 103 69
f 69 103 104
f 69 104 105
f 69 105 70
f 72 106 73
f 73 106 107
f 73 107 108
f 73 108 83
f 73 83 74
f 74 83 82
f 79 92 109
f 79 109 110
f 79 110 80
f 80 110 81
f 81 110 111
f 83 108 84
f 84 108 112
f 84 112 113
f 84 113 114
f 84 114 85
f 85 114 115
f 85 115 116
f 85 116 86
f 86 116 117
f 86 117 118
f 86 118 87
f 87 118 89
f 87 89 88
f 89 118 119
f 89 119 120
f 89 120 121
f 89 121 90
f 90 121 122
f 90 122 91
f 91 122 123
f 91 123 124
f 91 124 125
f 91 125 126
f 91 126 92
f 92 126 127
f 92 127 109
f 93 94 128
f 94 101 128
f 95 129 130
f 95 130 96
f 96 130 97
f 97 130 131
f 97 131 132
f 97 132 133
f 97 133 98
f 98 133 134
f 98 134 99
f 99 134 100
f 100 135 101
f 100 134 136
f 100 136 137
f 100 137 135
f 101 135 138
f 101 138 139
f 101 139 128
f 102 140 141
f 102 141 142
f 102 142 103
f 103 142 178
f 103 178 143
f 103 143 104
f 104 143 144
f 104 144 105
f 105 144 145
f 106 146 147
f 106 147 107
f 107 147 148
f 107 148 108
f 108 148 113
f 108 113 112
f 109 127 149
f 109 149 150
f 109 150 129
f 109 129 151
f 109 151 152
f 109 152 110
f 110 153 111
f 110 152 153
f 113 148 154
f 113 154 155
f 113 155 115
f 113 115 114
f 115 156 116
f 115 155 157
f 115 157 156
f 116 156 117
f 117 156 158
f 117 158 119
f 117 119 118
f 119 158 159
f 119 159 160
f 119 160 121
f 119 121 120
f 121 160 159
f 121 159 161
f 121 161 162
f 121 162 122
f 122 162 123
f 123 162 124
f 124 161 163
f 124 163 126
f 124 126 125
f 124 162 164
f 124 164 161
f 126 163 132
f 126 132 165
f 126 165 127
f 127 165 131
f 127 131 149
f 129 166 152
f 129 152 151
f 129 150 130
f 130 150 149
f 130 149 131
f 131 167 132
f 131 165 167
f 132 168 137
f 132 137 136
f 132 136 134
f 132 134 133
f 132 167 165
f 132 163 161
f 132 161 168
f 135 169 170
f 135 170 138
f 135 137 173
f 135 173 169
f 137 168 171
f 137 171 172
f 137 172 173
f 138 170 174
f 138 174 139
f 140 175 176
f 140 176 141
f 141 176 177
f 141 177 178
f 141 178 142
f 143 178 179
f 143 179 144
f 144 179 180
f 144 180 181
f 144 181 182
f 144 182 145
f 146 183 184
f 146 184 147
f 147 184 154
f 147 154 148
f 152 166 153
f 154 184 185
f 154 185 186
f 154 186 155
f 155 186 187
f 155 187 157
f 156 157 188
f 156 188 158
f 157 187 189
f 157 189 188
f 158 188 190
f 158 190 191
f 158 191 192
f 158 192 159
f 159 192 161
f 161 164 162
f 161 192 168
f 168 192 171
f 169 193 194
f 169 194 170
f 169 173 193
f 170 194 195
f 170 195 174
f 171 192 196
f 171 196 172
f 172 197 198
f 172 198 173
f 172 196 190
f 172 190 197
f 173 198 193
f 175 199 176
f 176 194 200
f 176 200 177
f 176 199 194
f 177 200 201
f 177 201 202
f 177 202 178
f 178 202 179
f 179 202 203
f 179 203 180
f 180 203 204
f 180 204 205
f 180 205 181
f 181 205 206
f 183 207 185
f 183 185 184
f 185 207 208
f 185 208 209
f 185 209 210
f 185 210 186
f 186 210 211
f 186 211 212
f 186 212 187
f 187 212 213
f 187 213 189
f 188 189 190
f 189 213 214
f 189 214 190
f 190 196 191
f 190 214 215
f 190 215 197
f 191 196 192
f 193 200 194
f 193 198 200
f 194 199 195
f 197 216 198
f 197 215 214
f 197 214 216
f 198 216 200
f 200 216 201
f 201 217 202
f 201 216 214
f 201 214 218
f 201 218 219
f 201 219 217
f 202 217 203
f 203 217 219
f 203 219 204
f 204 219 220
f 204 220 221
f 204 221 205
f 205 221 222
f 205 222 223
f 205 223 206
f 209 224 210
f 210 224 211
f 211 224 225
f 211 225 212
f 212 225 226
f 212 226 213
f 213 226 221
f 213 221 220
f 213 220 214
f 214 220 218
f 218 220 219
f 221 225 222
f 221 226 225
f 222 225 223
f 223 225 227
f 224 227 225

