# https://github.com/mikedh/trimesh
v -0.02237863 -0.03108161 0.11630452
v -0.04341795 -0.01941237 0.11679141
v -0.04341795 -0.01946424 0.11679593
v -0.02250322 -0.03108161 0.11630452
v -0.02237863 -0.03284525 0.11609262
v -0.02237863 -0.02936216 0.11607458
v -0.04088077 -0.01941237 0.11640821
v -0.04581355 -0.01941237 0.11632254
v -0.04581638 -0.01947385 0.11631352
v -0.04355387 -0.02192719 0.11634509
v -0.04116394 -0.02421916 0.11625943
v -0.03877118 -0.02411157 0.11653444
v -0.02482803 -0.03108161 0.11626393
v -0.02250322 -0.03282604 0.11609262
v -0.02237863 -0.03400756 0.11551555
v -0.04039939 -0.01941237 0.11631352
v -0.02237863 -0.02819216 0.11539833
v -0.04591832 -0.01941237 0.11628649
v -0.04509147 -0.02124517 0.11610615
v -0.04286861 -0.02351601 0.11609262
v -0.03644921 -0.02643620 0.11633156
v -0.04043337 -0.02559857 0.11602048
v -0.03854181 -0.02639778 0.11610163
v -0.02947480 -0.03048989 0.11607458
v -0.02482803 -0.03251289 0.11600246
v -0.02625802 -0.03231885 0.11591228
v -0.02250322 -0.03398835 0.11550201
v -0.02237863 -0.03527939 0.11435689
v -0.03876552 -0.01941237 0.11537128
v -0.02237863 -0.02717393 0.11424418
v -0.04664040 -0.02025384 0.11568686
v -0.04803075 -0.01941237 0.11473560
v -0.04441753 -0.02279557 0.11578605
v -0.04198513 -0.02506448 0.11575449
v -0.03412440 -0.02839580 0.11613320
v -0.03916195 -0.02714703 0.11556514
v -0.03761302 -0.02760043 0.11586720
v -0.03644921 -0.02786363 0.11598442
v -0.03131256 -0.03016137 0.11598442
v -0.03286148 -0.02985782 0.11584465
v -0.02780695 -0.03198841 0.11575900
v -0.02482803 -0.03367520 0.11512782
v -0.02250322 -0.03526402 0.11433886
v -0.02237863 -0.03643594 0.11230558
v -0.03830678 -0.01941237 0.11486183
v -0.02237863 -0.02610383 0.10540774
v -0.03536751 -0.01941237 0.10540774
v -0.04805340 -0.01941237 0.11471756
v -0.04740495 -0.02138926 0.11414049
v -0.04689524 -0.02293965 0.11351383
v -0.04599194 -0.02209241 0.11496101
v -0.04518492 -0.02411157 0.11409540
v -0.04461858 -0.02531039 0.11358596
v -0.04355387 -0.02421916 0.11531267
v -0.04341795 -0.02580797 0.11407286
v -0.04127721 -0.02654955 0.11488437
v -0.04056929 -0.02800965 0.11401425
v -0.03845120 -0.02858023 0.11460035
v -0.03644921 -0.03029777 0.11400524
v -0.03644921 -0.02902595 0.11516840
v -0.03412440 -0.02955619 0.11565981
v -0.02947480 -0.03165220 0.11549751
v -0.02947480 -0.03295284 0.11433435
v -0.02706222 -0.03336781 0.11472207
v -0.02482803 -0.03491052 0.11396466
v -0.02242677 -0.03643017 0.11228754
v -0.02237863 -0.03645899 0.11224246
v -0.02631749 -0.03467422 0.11368514
v -0.02237863 -0.02630940 0.10308143
v -0.03526557 -0.01941237 0.10308143
v -0.04938712 -0.01941237 0.11237771
v -0.04897369 -0.02017123 0.11237771
v -0.04774475 -0.02201364 0.11259411
v -0.04709629 -0.02317596 0.11196294
v -0.04615052 -0.02401551 0.11259411
v -0.04480830 -0.02548906 0.11237771
v -0.04326504 -0.02678201 0.11240026
v -0.04211821 -0.02750053 0.11318922
v -0.03773762 -0.02998654 0.11363555
v -0.03299740 -0.03226122 0.11356341
v -0.03391203 -0.03111235 0.11432082
v -0.03197234 -0.03099515 0.11517291
v -0.03179960 -0.03249752 0.11385195
v -0.02482803 -0.03566362 0.11237771
v -0.02858849 -0.03467422 0.11156169
v -0.02301859 -0.03670298 0.11005589
v -0.02237863 -0.03688933 0.11005589
v -0.02786641 -0.03441678 0.11311258
v -0.02237863 -0.03287407 0.07074280
v -0.04394181 -0.01941237 0.07074280
v -0.04954852 -0.01941237 0.11056534
v -0.04908130 -0.02036335 0.11005589
v -0.04492723 -0.02560433 0.11005589
v -0.04815251 -0.02178694 0.11005589
v -0.04920589 -0.02291276 0.08294699
v -0.04854894 -0.02390024 0.08217154
v -0.04723505 -0.02566965 0.08217154
v -0.04620715 -0.02683196 0.08217154
v -0.04504617 -0.02806536 0.08217154
v -0.04239006 -0.02770033 0.11164284
v -0.04124323 -0.02827669 0.11240026
v -0.03924124 -0.02952930 0.11237771
v -0.03454066 -0.03190195 0.11237771
v -0.03808025 -0.03017289 0.11237771
v -0.03644921 -0.03099324 0.11237771
v -0.03337968 -0.03243797 0.11237771
v -0.03179960 -0.03311422 0.11237771
v -0.02940967 -0.03408826 0.11235517
v -0.02711602 -0.03492013 0.11235517
v -0.02715283 -0.03531205 0.11005589
v -0.02482803 -0.03611702 0.11005589
v -0.03179960 -0.03346387 0.11005589
v -0.02989672 -0.03426884 0.11005589
v -0.03179960 -0.03594219 0.08449336
v -0.03001282 -0.03666840 0.08449336
v -0.02885183 -0.03707953 0.08449336
v -0.02715283 -0.03764243 0.08449336
v -0.02482803 -0.03831677 0.08449336
v -0.02250322 -0.03884894 0.08449336
v -0.02237863 -0.03887199 0.08449336
v -0.02237863 -0.03873174 0.07074280
v -0.05066420 -0.01941237 0.07074280
v -0.04959382 -0.01941237 0.11005589
v -0.05108329 -0.01968902 0.08217154
v -0.04979771 -0.02199828 0.08217154
v -0.04378890 -0.02922575 0.08217154
v -0.04925120 -0.02298384 0.08139610
v -0.04844983 -0.02417881 0.07984522
v -0.04728602 -0.02574265 0.07984522
v -0.04627511 -0.02690305 0.07984522
v -0.04511412 -0.02813644 0.07984522
v -0.04386536 -0.02929683 0.07984522
v -0.03945644 -0.02964265 0.11005589
v -0.04262508 -0.03020171 0.08217154
v -0.04109315 -0.03103358 0.08449336
v -0.03956122 -0.03202683 0.08449336
v -0.03829262 -0.03029969 0.11005589
v -0.03488613 -0.03205181 0.11005589
v -0.03372514 -0.03260126 0.11005589
v -0.03644921 -0.03126989 0.11005589
v -0.03388088 -0.03500466 0.08449336
v -0.03179960 -0.03613047 0.08217154
v -0.03029315 -0.03677022 0.08217154
v -0.02912934 -0.03717559 0.08217154
v -0.02715283 -0.03781150 0.08217154
v -0.02482803 -0.03846086 0.08217154
v -0.02250322 -0.03896805 0.08217154
v -0.02237863 -0.03898342 0.08234738
v -0.02250322 -0.03870869 0.07074280
v -0.02237863 -0.03874327 0.07090059
v -0.05064721 -0.01944887 0.07074280
v -0.05072650 -0.01941237 0.07118011
v -0.05122204 -0.01941237 0.08217154
v -0.05112576 -0.01977547 0.07984522
v -0.05001009 -0.02178694 0.07984522
v -0.04927385 -0.02301650 0.07984522
v -0.04926252 -0.02300113 0.07752340
v -0.04841585 -0.02416344 0.07752340
v -0.04725487 -0.02570615 0.07752340
v -0.04625812 -0.02686846 0.07752340
v -0.04509713 -0.02812107 0.07752340
v -0.04385686 -0.02928147 0.07752340
v -0.04269304 -0.03025358 0.07752340
v -0.04270437 -0.03025742 0.07984522
v -0.03840023 -0.03268579 0.08449336
v -0.04109315 -0.03124299 0.08217154
v -0.03972262 -0.03212289 0.08217154
v -0.03644921 -0.03372899 0.08449336
v -0.03504186 -0.03444944 0.08449336
v -0.03519761 -0.03452628 0.08276214
v -0.03430280 -0.03499697 0.08205884
v -0.03531654 -0.03458392 0.08121126
v -0.03179960 -0.03622076 0.07984522
v -0.03040076 -0.03680865 0.07984522
v -0.02923694 -0.03721209 0.07984522
v -0.02715283 -0.03787682 0.07984522
v -0.02482803 -0.03851465 0.07984522
v -0.02237863 -0.03902185 0.08083706
v -0.02237863 -0.03899110 0.08217154
v -0.02250322 -0.03884125 0.07287526
v -0.02482803 -0.03832061 0.07287526
v -0.02482803 -0.03818037 0.07074280
v -0.02237863 -0.03886431 0.07287526
v -0.04974107 -0.02112990 0.07074280
v -0.05096152 -0.01941237 0.07291584
v -0.05130416 -0.01941237 0.07984522
v -0.05130133 -0.01941237 0.07913290
v -0.05129000 -0.01941237 0.07752340
v -0.05111727 -0.01975818 0.07752340
v -0.04999026 -0.02178694 0.07752340
v -0.04923704 -0.02296271 0.07623401
v -0.04849797 -0.02388679 0.07535487
v -0.04718974 -0.02561585 0.07519708
v -0.04616184 -0.02677817 0.07519708
v -0.04499802 -0.02802309 0.07519708
v -0.04376341 -0.02918541 0.07519708
v -0.04259960 -0.03018634 0.07519708
v -0.04109315 -0.03123146 0.07519708
v -0.04109315 -0.03134865 0.07752340
v -0.04109315 -0.03134865 0.07984522
v -0.03856163 -0.03277417 0.08217154
v -0.03623400 -0.03403831 0.08205884
v -0.03980757 -0.03217284 0.07984522
v -0.03864658 -0.03282604 0.07984522
v -0.03650018 -0.03398835 0.07984522
v -0.03533920 -0.03459545 0.07984522
v -0.03412440 -0.03516796 0.07984522
v -0.03179960 -0.03619771 0.07752340
v -0.03036111 -0.03679135 0.07752340
v -0.02920013 -0.03720633 0.07752340
v -0.02715283 -0.03786914 0.07752340
v -0.02482803 -0.03850313 0.07752340
v -0.02237863 -0.03902761 0.07736561
v -0.02237863 -0.03903721 0.07995793
v -0.02237863 -0.03903721 0.08002556
v -0.02237863 -0.03887391 0.07309166
v -0.02237863 -0.03896613 0.07519708
v -0.02250322 -0.03894115 0.07519708
v -0.02482803 -0.03843397 0.07519708
v -0.02715283 -0.03768278 0.07287526
v -0.02715283 -0.03780574 0.07519708
v -0.02715283 -0.03752909 0.07074280
v -0.04963914 -0.02131626 0.07074280
v -0.04978638 -0.02155832 0.07287526
v -0.05104364 -0.01941237 0.07375439
v -0.05105497 -0.01965059 0.07519708
v -0.05126168 -0.01941237 0.07688772
v -0.05117673 -0.01941237 0.07519708
v -0.04976656 -0.02197522 0.07535487
v -0.04918041 -0.02287433 0.07468763
v -0.04806190 -0.02411157 0.07287526
v -0.04704816 -0.02544295 0.07287526
v -0.04601460 -0.02660526 0.07287526
v -0.04485078 -0.02787708 0.07287526
v -0.04360484 -0.02903940 0.07287526
v -0.04244103 -0.03006723 0.07287526
v -0.04109315 -0.03102974 0.07287526
v -0.03973395 -0.03212865 0.07519708
v -0.03959519 -0.03204604 0.07287526
v -0.03981606 -0.03217860 0.07752340
v -0.03865508 -0.03282220 0.07752340
v -0.03623967 -0.03409978 0.07735208
v -0.03532503 -0.03458776 0.07801482
v -0.03435377 -0.03503348 0.07735208
v -0.03405078 -0.03509111 0.07519708
v -0.03179960 -0.03609397 0.07519708
v -0.03022803 -0.03673372 0.07519708
v -0.02906704 -0.03717559 0.07519708
v -0.02237863 -0.03900648 0.07654959
v -0.02888015 -0.03711219 0.07287526
v -0.02868476 -0.03703342 0.07074280
v -0.04958250 -0.02141039 0.07074280
v -0.04908130 -0.02272064 0.07287526
v -0.05115408 -0.01941237 0.07492206
v -0.04891989 -0.02247857 0.07074280
v -0.04762865 -0.02422108 0.07074280
v -0.04693206 -0.02530847 0.07155882
v -0.04470353 -0.02772531 0.07107191
v -0.04345193 -0.02881270 0.07074280
v -0.04231360 -0.02996733 0.07141905
v -0.04144144 -0.03050718 0.07074280
v -0.04125739 -0.03063974 0.07074280
v -0.03940831 -0.03192693 0.07074280
v -0.03857296 -0.03277417 0.07519708
v -0.03843421 -0.03270116 0.07287526
v -0.03834076 -0.03255323 0.07074280
v -0.03824732 -0.03260703 0.07074280
v -0.03644921 -0.03389998 0.07519708
v -0.03527972 -0.03456471 0.07646845
v -0.03521177 -0.03453205 0.07519708
v -0.03389787 -0.03501811 0.07287526
v -0.03179960 -0.03594604 0.07287526
v -0.03004397 -0.03665879 0.07287526
v -0.02984575 -0.03658963 0.07074280
v -0.04755503 -0.02431714 0.07074280
v -0.04597495 -0.02621718 0.07074280
v -0.04535199 -0.02692226 0.07074280
v -0.04400411 -0.02830743 0.07074280
v -0.04311213 -0.02912201 0.07074280
v -0.03644921 -0.03355993 0.07074280
v -0.03644921 -0.03375205 0.07287526
v -0.03505886 -0.03445712 0.07287526
v -0.03379877 -0.03488170 0.07074280
v -0.03370249 -0.03492781 0.07074280
v -0.03179960 -0.03578658 0.07074280
v -0.03165519 -0.03584614 0.07074280
v -0.03486630 -0.03435914 0.07074280
f 1 2 3
f 1 3 4
f 1 4 5
f 1 5 15
f 1 15 28
f 1 28 44
f 1 44 67
f 1 67 87
f 1 87 120
f 1 120 148
f 1 148 179
f 1 179 178
f 1 178 215
f 1 215 214
f 1 214 213
f 1 213 249
f 1 249 217
f 1 217 216
f 1 216 183
f 1 183 150
f 1 150 121
f 1 121 89
f 1 89 69
f 1 69 46
f 1 46 30
f 1 30 17
f 1 17 6
f 1 6 2
f 2 7 16
f 2 16 29
f 2 29 45
f 2 45 47
f 2 47 70
f 2 70 90
f 2 90 122
f 2 122 152
f 2 152 185
f 2 185 225
f 2 225 254
f 2 254 228
f 2 228 227
f 2 227 188
f 2 188 187
f 2 187 186
f 2 186 153
f 2 153 123
f 2 123 91
f 2 91 71
f 2 71 48
f 2 48 32
f 2 32 18
f 2 18 8
f 2 8 3
f 2 6 7
f 3 8 9
f 3 9 10
f 3 10 11
f 3 11 12
f 3 12 4
f 4 12 13
f 4 13 5
f 5 14 15
f 5 13 14
f 6 16 7
f 6 17 16
f 8 18 9
f 9 18 19
f 9 19 10
f 10 19 20
f 10 20 11
f 11 21 12
f 11 20 22
f 11 22 23
f 11 23 21
f 12 21 13
f 13 21 24
f 13 24 25
f 13 25 14
f 14 25 15
f 15 25 26
f 15 26 27
f 15 27 28
f 16 17 29
f 17 30 29
f 18 31 19
f 18 32 31
f 19 31 33
f 19 33 20
f 20 33 34
f 20 34 22
f 21 23 35
f 21 35 24
f 22 34 36
f 22 36 37
f 22 37 23
f 23 37 38
f 23 38 35
f 24 39 25
f 24 35 39
f 25 39 26
f 26 40 41
f 26 41 42
f 26 42 27
f 26 39 40
f 27 42 43
f 27 43 28
f 28 43 44
f 29 30 45
f 30 46 47
f 30 47 45
f 31 32 48
f 31 48 49
f 31 49 50
f 31 50 51
f 31 51 33
f 33 51 52
f 33 52 53
f 33 53 54
f 33 54 34
f 34 54 55
f 34 55 56
f 34 56 36
f 35 38 39
f 36 56 57
f 36 57 58
f 36 58 59
f 36 59 60
f 36 60 37
f 37 60 61
f 37 61 40
f 37 40 38
f 38 40 39
f 40 61 62
f 40 62 41
f 41 62 63
f 41 63 64
f 41 64 42
f 42 64 65
f 42 65 43
f 43 65 44
f 44 66 67
f 44 65 68
f 44 68 66
f 46 69 70
f 46 70 47
f 48 71 49
f 49 71 50
f 50 53 52
f 50 52 51
f 50 71 72
f 50 72 73
f 50 73 74
f 50 74 75
f 50 75 53
f 53 57 55
f 53 55 54
f 53 75 76
f 53 76 77
f 53 77 78
f 53 78 57
f 55 57 56
f 57 78 79
f 57 79 58
f 58 79 59
f 59 79 80
f 59 80 81
f 59 81 61
f 59 61 60
f 61 81 82
f 61 82 62
f 62 82 63
f 63 82 81
f 63 81 83
f 63 83 68
f 63 68 65
f 63 65 64
f 66 68 84
f 66 84 67
f 67 85 86
f 67 86 87
f 67 84 85
f 68 83 80
f 68 80 88
f 68 88 84
f 69 89 90
f 69 90 70
f 71 91 92
f 71 92 72
f 72 92 74
f 72 74 73
f 74 93 76
f 74 76 75
f 74 92 94
f 74 94 95
f 74 95 96
f 74 96 97
f 74 97 98
f 74 98 99
f 74 99 93
f 76 93 100
f 76 100 77
f 77 100 78
f 78 100 101
f 78 101 102
f 78 102 79
f 79 103 80
f 79 102 104
f 79 104 105
f 79 105 103
f 80 83 81
f 80 103 106
f 80 106 107
f 80 107 85
f 80 85 108
f 80 108 88
f 84 88 109
f 84 109 85
f 85 110 111
f 85 111 86
f 85 109 88
f 85 88 108
f 85 107 106
f 85 106 112
f 85 112 113
f 85 113 114
f 85 114 115
f 85 115 116
f 85 116 110
f 86 111 117
f 86 117 87
f 87 117 118
f 87 118 119
f 87 119 120
f 89 121 149
f 89 149 182
f 89 182 222
f 89 222 251
f 89 251 274
f 89 274 286
f 89 286 285
f 89 285 284
f 89 284 283
f 89 283 287
f 89 287 280
f 89 280 267
f 89 267 266
f 89 266 263
f 89 263 262
f 89 262 261
f 89 261 279
f 89 279 259
f 89 259 278
f 89 278 277
f 89 277 276
f 89 276 275
f 89 275 256
f 89 256 255
f 89 255 252
f 89 252 223
f 89 223 184
f 89 184 151
f 89 151 122
f 89 122 90
f 91 123 92
f 92 123 124
f 92 124 125
f 92 125 95
f 92 95 94
f 93 99 126
f 93 126 100
f 95 125 127
f 95 127 96
f 96 127 128
f 96 128 97
f 97 128 129
f 97 129 130
f 97 130 98
f 98 130 131
f 98 131 99
f 99 131 132
f 99 132 126
f 100 133 102
f 100 102 101
f 100 126 134
f 100 134 135
f 100 135 136
f 100 136 133
f 102 133 137
f 102 137 104
f 103 105 138
f 103 138 139
f 103 139 106
f 104 137 140
f 104 140 105
f 105 140 138
f 106 139 112
f 110 116 111
f 111 116 117
f 112 139 114
f 112 114 113
f 114 141 142
f 114 142 143
f 114 143 115
f 114 139 141
f 115 143 116
f 116 143 144
f 116 144 117
f 117 144 145
f 117 145 118
f 118 145 146
f 118 146 119
f 119 146 147
f 119 147 148
f 119 148 120
f 121 150 149
f 122 151 152
f 123 153 124
f 124 153 154
f 124 154 155
f 124 155 125
f 125 155 127
f 126 132 134
f 127 155 156
f 127 156 128
f 128 156 157
f 128 157 158
f 128 158 129
f 129 158 159
f 129 159 160
f 129 160 130
f 130 160 161
f 130 161 131
f 131 161 162
f 131 162 132
f 132 162 163
f 132 163 164
f 132 164 134
f 133 136 165
f 133 165 137
f 134 164 166
f 134 166 135
f 135 166 136
f 136 166 167
f 136 167 165
f 137 165 168
f 137 168 140
f 138 140 169
f 138 169 141
f 138 141 139
f 140 168 169
f 141 169 170
f 141 170 171
f 141 171 142
f 142 171 172
f 142 172 173
f 142 173 143
f 143 173 174
f 143 174 144
f 144 174 175
f 144 175 145
f 145 175 176
f 145 176 146
f 146 176 177
f 146 177 147
f 147 177 178
f 147 178 179
f 147 179 148
f 149 150 180
f 149 180 181
f 149 181 182
f 150 183 180
f 151 184 152
f 152 184 185
f 153 186 154
f 154 186 187
f 154 187 188
f 154 188 189
f 154 189 155
f 155 189 190
f 155 190 156
f 156 190 157
f 157 190 191
f 157 191 158
f 158 191 192
f 158 192 193
f 158 193 159
f 159 193 160
f 160 193 194
f 160 194 161
f 161 194 195
f 161 195 196
f 161 196 162
f 162 196 197
f 162 197 163
f 163 197 198
f 163 198 199
f 163 199 164
f 164 200 166
f 164 199 200
f 165 167 201
f 165 201 202
f 165 202 168
f 166 200 167
f 167 200 203
f 167 203 204
f 167 204 201
f 168 202 170
f 168 170 169
f 170 202 172
f 170 172 171
f 172 202 201
f 172 201 204
f 172 204 205
f 172 205 206
f 172 206 207
f 172 207 173
f 173 207 208
f 173 208 174
f 174 208 209
f 174 209 210
f 174 210 175
f 175 210 211
f 175 211 176
f 176 211 177
f 177 211 212
f 177 212 213
f 177 213 214
f 177 214 215
f 177 215 178
f 180 183 216
f 180 216 217
f 180 217 218
f 180 218 219
f 180 219 181
f 181 220 182
f 181 219 221
f 181 221 220
f 182 220 222
f 184 223 224
f 184 224 185
f 185 224 226
f 185 226 225
f 188 227 189
f 189 227 228
f 189 228 226
f 189 226 190
f 190 226 229
f 190 229 191
f 191 229 230
f 191 230 192
f 192 230 231
f 192 231 193
f 193 231 232
f 193 232 194
f 194 232 233
f 194 233 234
f 194 234 195
f 195 234 196
f 196 234 235
f 196 235 236
f 196 236 197
f 197 236 237
f 197 237 198
f 198 238 199
f 198 237 239
f 198 239 238
f 199 238 240
f 199 240 200
f 200 240 203
f 203 240 204
f 204 240 241
f 204 241 205
f 205 241 242
f 205 242 243
f 205 243 206
f 206 243 207
f 207 243 244
f 207 244 208
f 208 244 245
f 208 245 246
f 208 246 209
f 209 246 247
f 209 247 248
f 209 248 210
f 210 248 221
f 210 221 211
f 211 221 212
f 212 221 219
f 212 219 218
f 212 218 249
f 212 249 213
f 217 249 218
f 220 250 251
f 220 251 222
f 220 221 248
f 220 248 250
f 223 252 224
f 224 252 253
f 224 253 230
f 224 230 229
f 224 229 226
f 225 226 254
f 226 228 254
f 230 253 231
f 231 253 255
f 231 255 256
f 231 256 232
f 232 256 257
f 232 257 258
f 232 258 233
f 233 258 234
f 234 258 235
f 235 258 259
f 235 259 260
f 235 260 236
f 236 260 261
f 236 261 262
f 236 262 237
f 237 262 263
f 237 263 239
f 238 264 240
f 238 239 265
f 238 265 264
f 239 263 266
f 239 266 267
f 239 267 265
f 240 264 241
f 241 264 242
f 242 264 268
f 242 268 269
f 242 269 243
f 243 269 244
f 244 269 245
f 245 269 270
f 245 270 271
f 245 271 246
f 246 271 272
f 246 272 247
f 247 272 273
f 247 273 250
f 247 250 248
f 250 273 274
f 250 274 251
f 252 255 253
f 256 275 257
f 257 275 276
f 257 276 277
f 257 277 258
f 258 277 278
f 258 278 259
f 259 279 260
f 260 279 261
f 264 265 268
f 265 267 280
f 265 280 281
f 265 281 268
f 268 270 269
f 268 281 270
f 270 281 282
f 270 282 271
f 271 282 283
f 271 283 284
f 271 284 285
f 271 285 272
f 272 285 286
f 272 286 274
f 272 274 273
f 280 287 282
f 280 282 281
f 282 287 283

