# https://github.com/mikedh/trimesh
v 0.04053310 -0.01934938 0.06821600
v 0.04027298 -0.01934938 0.07042319
v 0.04049746 -0.01946325 0.06821600
v 0.04053310 -0.01934938 0.06807461
v 0.04022310 -0.01946325 0.07054102
v 0.03951045 -0.01934938 0.07640069
v 0.03949263 -0.02107335 0.06821600
v 0.03907216 -0.02058992 0.07640069
v 0.03948194 -0.02117522 0.07054102
v 0.02141985 -0.01934938 -0.00383600
v 0.03944987 -0.01954116 0.07640069
v 0.03319637 -0.01934938 0.07640069
v 0.03852699 -0.02233785 0.07054102
v 0.03189579 -0.02970514 0.07640069
v 0.03181027 -0.02961724 0.07519105
v 0.03044555 -0.03052217 0.07286603
v 0.03021394 -0.03033639 0.07054102
v 0.02996807 -0.03009867 0.06821600
v 0.02982198 -0.02995484 0.06695922
v 0.02701058 -0.03180865 0.06357381
v 0.01848373 -0.02323079 -0.00384386
v 0.01975225 -0.02157875 -0.00384386
v 0.03886550 -0.02100343 0.07640069
v 0.03851986 -0.02168262 0.07640069
v 0.03789986 -0.02274537 0.07640069
v 0.03730836 -0.02372421 0.07640069
v 0.03645318 -0.02488484 0.07640069
v 0.02130939 -0.01949122 -0.00384386
v 0.02118111 -0.01934938 -0.00384386
v 0.00413455 -0.03413590 0.07640069
v 0.02213962 -0.01934938 0.04239730
v 0.03585099 -0.02558201 0.07640069
v 0.03529156 -0.02619928 0.07640069
v 0.03420477 -0.02736191 0.07640069
v 0.03360258 -0.02797918 0.07640069
v 0.03073061 -0.03070396 0.07640069
v 0.03064865 -0.03065202 0.07519105
v 0.02903807 -0.03168480 0.07286603
v 0.02887772 -0.03149702 0.07054102
v 0.02743461 -0.03222016 0.06722630
v 0.02728851 -0.03209631 0.06589098
v 0.02554609 -0.03258773 0.06124879
v 0.02531091 -0.03239795 0.05956002
v 0.01700855 -0.02386404 -0.00384386
v 0.02365044 -0.03291934 0.05659876
v 0.02165858 -0.03382626 0.05659876
v 0.01236208 -0.01934938 -0.00384386
v 0.00413455 -0.03975525 0.07640069
v 0.00413455 -0.02410776 0.01370375
v 0.01496681 -0.01934938 0.01898216
v 0.03002509 -0.03126330 0.07640069
v 0.02918060 -0.03181464 0.07519105
v 0.02771610 -0.03241993 0.07054102
v 0.02757357 -0.03232404 0.06877368
v 0.02612690 -0.03291334 0.06589098
v 0.02584896 -0.03278150 0.06357381
v 0.02397826 -0.03352063 0.06124879
v 0.02415998 -0.03302122 0.05883737
v 0.00712767 -0.02796719 -0.00384386
v 0.02165858 -0.03414189 0.05892377
v 0.01782810 -0.03677877 0.06821600
v 0.01617832 -0.03700051 0.06589098
v 0.01589325 -0.03690862 0.06462635
v 0.01550130 -0.03678876 0.06307896
v 0.01356289 -0.03690463 0.06001559
v 0.00538881 -0.02856249 -0.00384386
v 0.00711698 -0.02797119 -0.00384386
v 0.01029183 -0.02015243 -0.00384386
v 0.01187748 -0.01934938 -0.00383600
v 0.00538881 -0.03964538 0.07640069
v 0.00413455 -0.03974127 0.07519105
v 0.01443233 -0.01934938 0.01719127
v 0.00413455 -0.02392397 0.01244698
v 0.02925186 -0.03186458 0.07640069
v 0.02801898 -0.03261769 0.07519105
v 0.02787645 -0.03252380 0.07286603
v 0.02630506 -0.03325294 0.07054102
v 0.02651529 -0.03289536 0.06808247
v 0.02630506 -0.03367045 0.07519105
v 0.02630506 -0.03346469 0.07286603
v 0.02492964 -0.03445952 0.07519105
v 0.02472298 -0.03434765 0.07286603
v 0.02448424 -0.03423977 0.07054102
v 0.02417780 -0.03415987 0.06821600
v 0.02397826 -0.03376833 0.06357381
v 0.02332262 -0.03482508 0.07054102
v 0.02165858 -0.03557819 0.07054102
v 0.01919282 -0.03655104 0.07044675
v 0.01809534 -0.03686867 0.06961415
v 0.01666648 -0.03714434 0.06821600
v 0.01468531 -0.03742800 0.06589098
v 0.01471026 -0.03712237 0.06373876
v 0.01387646 -0.03699651 0.06124879
v 0.01236208 -0.03739404 0.06124879
v 0.01232645 -0.03708641 0.05911229
v 0.00537099 -0.02856249 -0.00384386
v 0.01152828 -0.03699252 0.05725070
v 0.01003884 -0.03759580 0.05892377
v 0.00771204 -0.03770368 0.05659876
v 0.00538881 -0.03775362 0.05427374
v 0.00413455 -0.03772765 0.05301698
v 0.00538881 -0.02223996 -0.00384386
v 0.00413455 -0.02245171 -0.00382815
v 0.01193093 -0.01934938 -0.00331759
v 0.00893424 -0.03922588 0.07600009
v 0.00893780 -0.03922588 0.07640069
v 0.00538881 -0.03963140 0.07519105
v 0.00413455 -0.03970531 0.07394214
v 0.01391922 -0.01934938 0.01477200
v 0.00413455 -0.02378014 0.01144157
v 0.02809024 -0.03266364 0.07640069
v 0.02726357 -0.03317104 0.07640069
v 0.02619460 -0.03382427 0.07640069
v 0.02502229 -0.03450746 0.07640069
v 0.02376803 -0.03504083 0.07519105
v 0.02356136 -0.03494894 0.07286603
v 0.02165858 -0.03581791 0.07286603
v 0.01967742 -0.03660098 0.07286603
v 0.01832339 -0.03694658 0.07116154
v 0.01719740 -0.03720827 0.07044675
v 0.01468531 -0.03769569 0.06821600
v 0.01236208 -0.03798734 0.06589098
v 0.01236208 -0.03771367 0.06357381
v 0.00413455 -0.02855849 -0.00382815
v 0.00413455 -0.02536028 -0.00384386
v 0.01003884 -0.03791143 0.06124879
v 0.00771204 -0.03804328 0.05892377
v 0.00538881 -0.03809122 0.05659876
v 0.00413455 -0.03807724 0.05534199
v 0.00413455 -0.03792142 0.05427374
v 0.00413455 -0.02365429 0.01011411
v 0.01360209 -0.01934938 0.01244698
v 0.01332415 -0.01934938 0.01002770
v 0.00997827 -0.03906607 0.07640069
v 0.00789733 -0.03933775 0.07521462
v 0.00879527 -0.03920590 0.07445270
v 0.00983930 -0.03907006 0.07521462
v 0.00413455 -0.03967135 0.07286603
v 0.00538881 -0.03955748 0.07286603
v 0.00739135 -0.03932576 0.07286603
v 0.02396400 -0.03502684 0.07640069
v 0.02165858 -0.03599769 0.07519105
v 0.01988053 -0.03668688 0.07519105
v 0.01851224 -0.03701050 0.07286603
v 0.01700855 -0.03744798 0.07286603
v 0.01468531 -0.03789545 0.07054102
v 0.01236208 -0.03821308 0.06821600
v 0.01003884 -0.03843681 0.06589098
v 0.01003884 -0.03819909 0.06357381
v 0.00771204 -0.03833294 0.06124879
v 0.00538881 -0.03840285 0.05892377
v 0.00413455 -0.03839286 0.05766701
v 0.00413455 -0.03824903 0.05659876
v 0.01113632 -0.03887030 0.07640069
v 0.00855297 -0.03917394 0.07286603
v 0.01003884 -0.03895020 0.07286603
v 0.01236208 -0.03863857 0.07519105
v 0.00413455 -0.03962141 0.07161712
v 0.00538881 -0.03945161 0.07054102
v 0.00694595 -0.03927182 0.07054102
v 0.02165858 -0.03606961 0.07640069
v 0.02080341 -0.03640122 0.07640069
v 0.01871891 -0.03706843 0.07519105
v 0.01995892 -0.03671885 0.07640069
v 0.01700855 -0.03756185 0.07519105
v 0.01468531 -0.03804927 0.07286603
v 0.01236208 -0.03840485 0.07054102
v 0.01003884 -0.03862858 0.06821600
v 0.00771204 -0.03881237 0.06589098
v 0.00771204 -0.03858863 0.06357381
v 0.00538881 -0.03867453 0.06124879
v 0.00413455 -0.03854668 0.05892377
v 0.00413455 -0.03867253 0.05999203
v 0.01236208 -0.03866054 0.07640069
v 0.00810756 -0.03910602 0.07054102
v 0.01236208 -0.03854868 0.07286603
v 0.01003884 -0.03880837 0.07054102
v 0.01468531 -0.03814515 0.07519105
v 0.01356645 -0.03840485 0.07640069
v 0.00413455 -0.03957147 0.07054102
v 0.00413455 -0.03950155 0.06929210
v 0.00413455 -0.03944162 0.06827097
v 0.00540662 -0.03931777 0.06833382
v 0.00665732 -0.03923187 0.06918214
v 0.01879730 -0.03708441 0.07640069
v 0.01797419 -0.03732013 0.07640069
v 0.01700855 -0.03758781 0.07640069
v 0.01588969 -0.03786948 0.07640069
v 0.00754457 -0.03903411 0.06833382
v 0.00619410 -0.03917194 0.06763474
v 0.00540662 -0.03911401 0.06575744
v 0.00538881 -0.03891025 0.06357381
v 0.00413455 -0.03881237 0.06124879
v 0.00413455 -0.03919791 0.06494054
v 0.01468531 -0.03816713 0.07640069
v 0.00413455 -0.03929779 0.06620517
v 0.00464409 -0.03926982 0.06644867
v 0.00413455 -0.03920989 0.06506623
f 1 2 3
f 1 3 4
f 1 4 10
f 1 10 29
f 1 29 47
f 1 47 69
f 1 69 104
f 1 104 133
f 1 133 132
f 1 132 109
f 1 109 72
f 1 72 50
f 1 50 31
f 1 31 12
f 1 12 6
f 1 6 2
f 2 5 3
f 2 6 5
f 3 7 4
f 3 5 8
f 3 8 9
f 3 9 7
f 4 7 10
f 5 6 11
f 5 11 8
f 6 12 30
f 6 30 48
f 6 48 70
f 6 70 106
f 6 106 134
f 6 134 154
f 6 154 174
f 6 174 179
f 6 179 195
f 6 195 188
f 6 188 187
f 6 187 186
f 6 186 185
f 6 185 164
f 6 164 162
f 6 162 161
f 6 161 141
f 6 141 114
f 6 114 113
f 6 113 112
f 6 112 111
f 6 111 74
f 6 74 51
f 6 51 36
f 6 36 14
f 6 14 35
f 6 35 34
f 6 34 33
f 6 33 32
f 6 32 27
f 6 27 26
f 6 26 25
f 6 25 24
f 6 24 23
f 6 23 8
f 6 8 11
f 7 9 13
f 7 13 14
f 7 14 15
f 7 15 16
f 7 16 17
f 7 17 18
f 7 18 19
f 7 19 20
f 7 20 21
f 7 21 22
f 7 22 10
f 8 23 9
f 9 23 24
f 9 24 25
f 9 25 26
f 9 26 27
f 9 27 13
f 10 22 28
f 10 28 29
f 12 31 30
f 13 27 32
f 13 32 33
f 13 33 34
f 13 34 35
f 13 35 14
f 14 36 37
f 14 37 16
f 14 16 15
f 16 37 38
f 16 38 39
f 16 39 40
f 16 40 17
f 17 40 41
f 17 41 18
f 18 41 19
f 19 41 20
f 20 41 42
f 20 42 43
f 20 43 21
f 21 44 59
f 21 59 67
f 21 67 66
f 21 66 96
f 21 96 125
f 21 125 102
f 21 102 68
f 21 68 47
f 21 47 29
f 21 29 28
f 21 28 22
f 21 43 45
f 21 45 46
f 21 46 44
f 30 31 49
f 30 49 73
f 30 73 110
f 30 110 131
f 30 131 103
f 30 103 125
f 30 125 124
f 30 124 101
f 30 101 130
f 30 130 129
f 30 129 153
f 30 153 152
f 30 152 172
f 30 172 173
f 30 173 193
f 30 193 194
f 30 194 198
f 30 198 196
f 30 196 182
f 30 182 181
f 30 181 180
f 30 180 158
f 30 158 138
f 30 138 108
f 30 108 71
f 30 71 48
f 31 50 49
f 36 51 37
f 37 52 38
f 37 51 52
f 38 52 53
f 38 53 54
f 38 54 39
f 39 54 40
f 40 55 56
f 40 56 41
f 40 54 55
f 41 56 42
f 42 56 57
f 42 57 58
f 42 58 45
f 42 45 43
f 44 46 59
f 45 58 57
f 45 57 46
f 46 57 60
f 46 60 61
f 46 61 62
f 46 62 63
f 46 63 64
f 46 64 65
f 46 65 66
f 46 66 67
f 46 67 59
f 47 68 69
f 48 71 107
f 48 107 70
f 49 50 72
f 49 72 73
f 51 74 52
f 52 75 76
f 52 76 53
f 52 74 75
f 53 77 78
f 53 78 55
f 53 55 54
f 53 76 79
f 53 79 80
f 53 80 77
f 55 78 77
f 55 77 81
f 55 81 82
f 55 82 83
f 55 83 84
f 55 84 85
f 55 85 57
f 55 57 56
f 57 85 86
f 57 86 87
f 57 87 88
f 57 88 60
f 60 88 89
f 60 89 61
f 61 89 90
f 61 90 62
f 62 90 91
f 62 91 63
f 63 91 92
f 63 92 93
f 63 93 65
f 63 65 64
f 65 93 94
f 65 94 95
f 65 95 66
f 66 95 97
f 66 97 98
f 66 98 99
f 66 99 100
f 66 100 101
f 66 101 96
f 68 102 103
f 68 103 69
f 69 103 104
f 70 105 106
f 70 107 105
f 71 108 107
f 72 109 110
f 72 110 73
f 74 111 75
f 75 79 76
f 75 111 79
f 77 80 81
f 79 81 80
f 79 111 112
f 79 112 113
f 79 113 114
f 79 114 81
f 81 115 116
f 81 116 82
f 81 114 115
f 82 116 83
f 83 116 84
f 84 116 86
f 84 86 85
f 86 116 117
f 86 117 87
f 87 117 88
f 88 117 118
f 88 118 119
f 88 119 89
f 89 119 120
f 89 120 90
f 90 121 91
f 90 120 121
f 91 122 123
f 91 123 94
f 91 94 93
f 91 93 92
f 91 121 122
f 94 123 98
f 94 98 95
f 95 98 97
f 96 124 125
f 96 101 124
f 98 123 126
f 98 126 127
f 98 127 99
f 99 127 100
f 100 127 128
f 100 128 129
f 100 129 130
f 100 130 101
f 102 125 103
f 103 131 109
f 103 109 132
f 103 132 133
f 103 133 104
f 105 134 106
f 105 107 135
f 105 135 136
f 105 136 137
f 105 137 134
f 107 108 138
f 107 138 139
f 107 139 140
f 107 140 135
f 109 131 110
f 114 141 115
f 115 142 117
f 115 117 116
f 115 141 142
f 117 142 118
f 118 142 143
f 118 143 144
f 118 144 119
f 119 144 145
f 119 145 120
f 120 145 146
f 120 146 121
f 121 146 147
f 121 147 122
f 122 147 148
f 122 148 149
f 122 149 123
f 123 149 126
f 126 149 150
f 126 150 127
f 127 151 128
f 127 150 151
f 128 151 152
f 128 152 153
f 128 153 129
f 134 137 154
f 135 140 136
f 136 140 155
f 136 155 156
f 136 156 137
f 137 156 157
f 137 157 154
f 138 158 139
f 139 158 159
f 139 159 160
f 139 160 140
f 140 160 155
f 141 161 142
f 142 161 162
f 142 162 143
f 143 163 144
f 143 162 164
f 143 164 163
f 144 163 145
f 145 163 165
f 145 165 166
f 145 166 146
f 146 167 147
f 146 166 167
f 147 167 168
f 147 168 148
f 148 168 169
f 148 169 170
f 148 170 149
f 149 170 150
f 150 170 171
f 150 171 151
f 151 172 152
f 151 171 173
f 151 173 172
f 154 157 174
f 155 160 175
f 155 175 156
f 156 176 157
f 156 175 177
f 156 177 176
f 157 178 179
f 157 179 174
f 157 176 178
f 158 180 159
f 159 180 181
f 159 181 182
f 159 182 183
f 159 183 184
f 159 184 160
f 160 184 175
f 163 164 185
f 163 185 165
f 165 178 166
f 165 185 186
f 165 186 187
f 165 187 188
f 165 188 178
f 166 178 176
f 166 176 167
f 167 177 168
f 167 176 177
f 168 177 189
f 168 189 169
f 169 189 184
f 169 184 190
f 169 190 191
f 169 191 192
f 169 192 170
f 170 192 171
f 171 193 173
f 171 192 194
f 171 194 193
f 175 184 177
f 177 184 189
f 178 188 195
f 178 195 179
f 182 196 197
f 182 197 183
f 183 197 184
f 184 197 190
f 190 197 191
f 191 197 198
f 191 198 192
f 192 198 194
f 196 198 197

